<?xml version="1.0" encoding="UTF-8" standalone="no"?>
<!DOCTYPE svg PUBLIC "-//W3C//DTD SVG 1.1//EN"
 "http://www.w3.org/Graphics/SVG/1.1/DTD/svg11.dtd">
<!-- Generated by graphviz version 2.38.0 (20140413.2041)
 -->
<!-- Title: G Pages: 1 -->
<svg width="941pt" height="1788pt"
 viewBox="0.00 0.00 941.00 1788.05" xmlns="http://www.w3.org/2000/svg" xmlns:xlink="http://www.w3.org/1999/xlink">
<g id="graph0" class="graph" transform="scale(1 1) rotate(0) translate(4 1784.05)">
<title>G</title>
<polygon fill="white" stroke="none" points="-4,4 -4,-1784.05 937,-1784.05 937,4 -4,4"/>
<!-- FASLG -->
<g id="node1" class="node"><title>FASLG</title>
<ellipse fill="none" stroke="black" cx="23" cy="-1762.05" rx="18" ry="18"/>
<text text-anchor="middle" x="23" y="-1760.85" font-family="Times,serif" font-size="4.00">FASLG</text>
</g>
<!-- pr_884d8553&#45;2749&#45;4096&#45;9593&#45;daf46a0928fa -->
<g id="node2" class="node"><title>pr_884d8553&#45;2749&#45;4096&#45;9593&#45;daf46a0928fa</title>
<polygon fill="none" stroke="black" points="99.5,-1708.05 0.5,-1708.05 0.5,-1609.05 99.5,-1609.05 99.5,-1708.05"/>
<text text-anchor="middle" x="50" y="-1657.35" font-family="Times,serif" font-size="4.00">pr_884d8553&#45;2749&#45;4096&#45;9593&#45;daf46a0928fa</text>
</g>
<!-- FASLG&#45;&gt;pr_884d8553&#45;2749&#45;4096&#45;9593&#45;daf46a0928fa -->
<g id="edge1" class="edge"><title>FASLG&#45;&gt;pr_884d8553&#45;2749&#45;4096&#45;9593&#45;daf46a0928fa</title>
<path fill="none" stroke="black" d="M27.4585,-1744.28C29.4356,-1736.85 31.8915,-1727.62 34.448,-1718.01"/>
<polygon fill="black" stroke="black" points="37.8355,-1718.89 37.0239,-1708.33 31.0708,-1717.09 37.8355,-1718.89"/>
</g>
<!-- FAS/FASL -->
<g id="node4" class="node"><title>FAS/FASL</title>
<ellipse fill="none" stroke="black" cx="50" cy="-1553.42" rx="18.6233" ry="18.6233"/>
<text text-anchor="middle" x="50" y="-1552.22" font-family="Times,serif" font-size="4.00">FAS/FASL</text>
</g>
<!-- pr_884d8553&#45;2749&#45;4096&#45;9593&#45;daf46a0928fa&#45;&gt;FAS/FASL -->
<g id="edge2" class="edge"><title>pr_884d8553&#45;2749&#45;4096&#45;9593&#45;daf46a0928fa&#45;&gt;FAS/FASL</title>
<path fill="none" stroke="black" d="M50,-1609C50,-1599.85 50,-1590.57 50,-1582.32"/>
<polygon fill="black" stroke="black" points="53.5001,-1582.17 50,-1572.17 46.5001,-1582.17 53.5001,-1582.17"/>
</g>
<!-- FAS -->
<g id="node3" class="node"><title>FAS</title>
<ellipse fill="none" stroke="black" cx="77" cy="-1762.05" rx="18" ry="18"/>
<text text-anchor="middle" x="77" y="-1760.85" font-family="Times,serif" font-size="4.00">FAS</text>
</g>
<!-- FAS&#45;&gt;pr_884d8553&#45;2749&#45;4096&#45;9593&#45;daf46a0928fa -->
<g id="edge3" class="edge"><title>FAS&#45;&gt;pr_884d8553&#45;2749&#45;4096&#45;9593&#45;daf46a0928fa</title>
<path fill="none" stroke="black" d="M72.5415,-1744.28C70.5644,-1736.85 68.1085,-1727.62 65.552,-1718.01"/>
<polygon fill="black" stroke="black" points="68.9292,-1717.09 62.9761,-1708.33 62.1645,-1718.89 68.9292,-1717.09"/>
</g>
<!-- pr_4b84349e&#45;0e49&#45;44f3&#45;8e35&#45;ca56bd048978 -->
<g id="node6" class="node"><title>pr_4b84349e&#45;0e49&#45;44f3&#45;8e35&#45;ca56bd048978</title>
<polygon fill="none" stroke="black" points="100,-1497.8 0,-1497.8 0,-1397.8 100,-1397.8 100,-1497.8"/>
<text text-anchor="middle" x="50" y="-1446.6" font-family="Times,serif" font-size="4.00">pr_4b84349e&#45;0e49&#45;44f3&#45;8e35&#45;ca56bd048978</text>
</g>
<!-- FAS/FASL&#45;&gt;pr_4b84349e&#45;0e49&#45;44f3&#45;8e35&#45;ca56bd048978 -->
<g id="edge4" class="edge"><title>FAS/FASL&#45;&gt;pr_4b84349e&#45;0e49&#45;44f3&#45;8e35&#45;ca56bd048978</title>
<path fill="none" stroke="black" d="M50,-1534.85C50,-1527.3 50,-1518.01 50,-1508.35"/>
<polygon fill="black" stroke="black" points="53.5001,-1508.2 50,-1498.2 46.5001,-1508.2 53.5001,-1508.2"/>
</g>
<!-- FADD -->
<g id="node5" class="node"><title>FADD</title>
<ellipse fill="none" stroke="black" cx="50" cy="-1337.41" rx="18" ry="18"/>
<text text-anchor="middle" x="50" y="-1336.21" font-family="Times,serif" font-size="4.00">FADD</text>
</g>
<!-- FADD&#45;&gt;pr_4b84349e&#45;0e49&#45;44f3&#45;8e35&#45;ca56bd048978 -->
<g id="edge5" class="edge"><title>FADD&#45;&gt;pr_4b84349e&#45;0e49&#45;44f3&#45;8e35&#45;ca56bd048978</title>
<path fill="none" stroke="black" d="M54.9926,-1354.72C56.02,-1363.69 56.597,-1375.43 56.7234,-1387.51"/>
<polygon fill="black" stroke="black" points="53.2233,-1387.68 56.7236,-1397.68 60.2233,-1387.68 53.2233,-1387.68"/>
</g>
<!-- pr_b12f1bec&#45;3722&#45;41ea&#45;ad47&#45;6ec6ac1c0620 -->
<g id="node8" class="node"><title>pr_b12f1bec&#45;3722&#45;41ea&#45;ad47&#45;6ec6ac1c0620</title>
<polygon fill="none" stroke="black" points="132,-1058.34 32,-1058.34 32,-958.342 132,-958.342 132,-1058.34"/>
<text text-anchor="middle" x="82" y="-1007.14" font-family="Times,serif" font-size="4.00">pr_b12f1bec&#45;3722&#45;41ea&#45;ad47&#45;6ec6ac1c0620</text>
</g>
<!-- FADD&#45;&gt;pr_b12f1bec&#45;3722&#45;41ea&#45;ad47&#45;6ec6ac1c0620 -->
<g id="edge6" class="edge"><title>FADD&#45;&gt;pr_b12f1bec&#45;3722&#45;41ea&#45;ad47&#45;6ec6ac1c0620</title>
<path fill="none" stroke="black" d="M51.6754,-1319.28C56.1768,-1273.27 68.6969,-1145.31 76.1676,-1068.95"/>
<polygon fill="black" stroke="black" points="79.6964,-1068.83 77.1869,-1058.54 72.7297,-1068.15 79.6964,-1068.83"/>
</g>
<!-- pr_3cde5340&#45;5b87&#45;41c7&#45;a9ee&#45;87ccc3a1c5f3 -->
<g id="node29" class="node"><title>pr_3cde5340&#45;5b87&#45;41c7&#45;a9ee&#45;87ccc3a1c5f3</title>
<polygon fill="none" stroke="black" points="178,-1277.01 78,-1277.01 78,-1177.01 178,-1177.01 178,-1277.01"/>
<text text-anchor="middle" x="128" y="-1225.81" font-family="Times,serif" font-size="4.00">pr_3cde5340&#45;5b87&#45;41c7&#45;a9ee&#45;87ccc3a1c5f3</text>
</g>
<!-- FADD&#45;&gt;pr_3cde5340&#45;5b87&#45;41c7&#45;a9ee&#45;87ccc3a1c5f3 -->
<g id="edge7" class="edge"><title>FADD&#45;&gt;pr_3cde5340&#45;5b87&#45;41c7&#45;a9ee&#45;87ccc3a1c5f3</title>
<path fill="none" stroke="black" d="M60.1971,-1322.24C67.1701,-1312.54 76.9186,-1299 86.8534,-1285.19"/>
<polygon fill="black" stroke="black" points="89.7049,-1287.22 92.7048,-1277.06 84.023,-1283.13 89.7049,-1287.22"/>
</g>
<!-- pr_4b84349e&#45;0e49&#45;44f3&#45;8e35&#45;ca56bd048978&#45;&gt;FADD -->
<g id="edge8" class="edge"><title>pr_4b84349e&#45;0e49&#45;44f3&#45;8e35&#45;ca56bd048978&#45;&gt;FADD</title>
<path fill="none" stroke="black" d="M43.2764,-1397.68C43.1581,-1386.32 43.4378,-1374.67 44.1157,-1364.73"/>
<polygon fill="black" stroke="black" points="47.6064,-1364.99 45.0074,-1354.72 40.634,-1364.37 47.6064,-1364.99"/>
</g>
<!-- CASP8 -->
<g id="node7" class="node"><title>CASP8</title>
<ellipse fill="none" stroke="black" cx="82" cy="-904.342" rx="18" ry="18"/>
<text text-anchor="middle" x="82" y="-903.142" font-family="Times,serif" font-size="4.00">CASP8</text>
</g>
<!-- CASP8&#45;&gt;pr_b12f1bec&#45;3722&#45;41ea&#45;ad47&#45;6ec6ac1c0620 -->
<g id="edge9" class="edge"><title>CASP8&#45;&gt;pr_b12f1bec&#45;3722&#45;41ea&#45;ad47&#45;6ec6ac1c0620</title>
<path fill="none" stroke="black" d="M87.1407,-921.957C87.9752,-929.332 88.4851,-938.504 88.6706,-948.075"/>
<polygon fill="black" stroke="black" points="85.171,-948.161 88.7463,-958.134 92.1708,-948.108 85.171,-948.161"/>
</g>
<!-- pr_e9467a4a&#45;a161&#45;4a6f&#45;affc&#45;f6a528dd7b0d -->
<g id="node11" class="node"><title>pr_e9467a4a&#45;a161&#45;4a6f&#45;affc&#45;f6a528dd7b0d</title>
<polygon fill="none" stroke="black" points="131,-848.842 33,-848.842 33,-750.842 131,-750.842 131,-848.842"/>
<text text-anchor="middle" x="82" y="-798.642" font-family="Times,serif" font-size="4.00">pr_e9467a4a&#45;a161&#45;4a6f&#45;affc&#45;f6a528dd7b0d</text>
</g>
<!-- CASP8&#45;&gt;pr_e9467a4a&#45;a161&#45;4a6f&#45;affc&#45;f6a528dd7b0d -->
<g id="edge10" class="edge"><title>CASP8&#45;&gt;pr_e9467a4a&#45;a161&#45;4a6f&#45;affc&#45;f6a528dd7b0d</title>
<path fill="none" stroke="black" d="M82,-885.954C82,-878.408 82,-869.09 82,-859.416"/>
<polygon fill="black" stroke="black" points="85.5001,-859.266 82,-849.266 78.5001,-859.266 85.5001,-859.266"/>
</g>
<!-- pr_ae5e1fdf&#45;cd1e&#45;44c9&#45;a6d1&#45;20b8b76c8c52 -->
<g id="node17" class="node"><title>pr_ae5e1fdf&#45;cd1e&#45;44c9&#45;a6d1&#45;20b8b76c8c52</title>
<polygon fill="none" stroke="black" points="233.5,-402.458 134.5,-402.458 134.5,-303.458 233.5,-303.458 233.5,-402.458"/>
<text text-anchor="middle" x="184" y="-351.758" font-family="Times,serif" font-size="4.00">pr_ae5e1fdf&#45;cd1e&#45;44c9&#45;a6d1&#45;20b8b76c8c52</text>
</g>
<!-- CASP8&#45;&gt;pr_ae5e1fdf&#45;cd1e&#45;44c9&#45;a6d1&#45;20b8b76c8c52 -->
<g id="edge11" class="edge"><title>CASP8&#45;&gt;pr_ae5e1fdf&#45;cd1e&#45;44c9&#45;a6d1&#45;20b8b76c8c52</title>
<path fill="none" stroke="black" d="M67.0822,-894.237C53.3918,-885.004 33.7968,-869.385 24,-850.342 -8.30386,-787.549 5,-763.213 5,-692.598 5,-692.598 5,-692.598 5,-582.855 5,-502.886 73.6339,-434.187 125.903,-393.464"/>
<polygon fill="black" stroke="black" points="128.318,-396.023 134.139,-387.171 124.068,-390.461 128.318,-396.023"/>
</g>
<!-- pr_0fc1aed1&#45;44ce&#45;419b&#45;8082&#45;7eb703e5b654 -->
<g id="node26" class="node"><title>pr_0fc1aed1&#45;44ce&#45;419b&#45;8082&#45;7eb703e5b654</title>
<polygon fill="none" stroke="black" points="249,-849.842 149,-849.842 149,-749.842 249,-749.842 249,-849.842"/>
<text text-anchor="middle" x="199" y="-798.642" font-family="Times,serif" font-size="4.00">pr_0fc1aed1&#45;44ce&#45;419b&#45;8082&#45;7eb703e5b654</text>
</g>
<!-- CASP8&#45;&gt;pr_0fc1aed1&#45;44ce&#45;419b&#45;8082&#45;7eb703e5b654 -->
<g id="edge12" class="edge"><title>CASP8&#45;&gt;pr_0fc1aed1&#45;44ce&#45;419b&#45;8082&#45;7eb703e5b654</title>
<path fill="none" stroke="black" d="M95.4214,-891.584C106.821,-881.597 124.014,-866.534 141.136,-851.535"/>
<polygon fill="black" stroke="black" points="143.76,-853.889 148.976,-844.666 139.148,-848.623 143.76,-853.889"/>
</g>
<!-- pr_b12f1bec&#45;3722&#45;41ea&#45;ad47&#45;6ec6ac1c0620&#45;&gt;CASP8 -->
<g id="edge13" class="edge"><title>pr_b12f1bec&#45;3722&#45;41ea&#45;ad47&#45;6ec6ac1c0620&#45;&gt;CASP8</title>
<path fill="none" stroke="black" d="M75.2537,-958.134C75.2166,-949.168 75.458,-940.128 75.9778,-932.124"/>
<polygon fill="black" stroke="black" points="79.4824,-932.222 76.8593,-921.957 72.5086,-931.617 79.4824,-932.222"/>
</g>
<!-- TRADD/FADD -->
<g id="node9" class="node"><title>TRADD/FADD</title>
<ellipse fill="none" stroke="black" cx="114" cy="-1117.68" rx="23.1702" ry="23.1702"/>
<text text-anchor="middle" x="114" y="-1116.48" font-family="Times,serif" font-size="4.00">TRADD/FADD</text>
</g>
<!-- TRADD/FADD&#45;&gt;pr_b12f1bec&#45;3722&#45;41ea&#45;ad47&#45;6ec6ac1c0620 -->
<g id="edge14" class="edge"><title>TRADD/FADD&#45;&gt;pr_b12f1bec&#45;3722&#45;41ea&#45;ad47&#45;6ec6ac1c0620</title>
<path fill="none" stroke="black" d="M107.601,-1095.21C105.248,-1087.32 102.456,-1077.96 99.5949,-1068.36"/>
<polygon fill="black" stroke="black" points="102.936,-1067.31 96.7246,-1058.73 96.2276,-1069.31 102.936,-1067.31"/>
</g>
<!-- CASP3 -->
<g id="node10" class="node"><title>CASP3</title>
<ellipse fill="none" stroke="black" cx="82" cy="-691.598" rx="18" ry="18"/>
<text text-anchor="middle" x="82" y="-690.398" font-family="Times,serif" font-size="4.00">CASP3</text>
</g>
<!-- CASP3&#45;&gt;pr_e9467a4a&#45;a161&#45;4a6f&#45;affc&#45;f6a528dd7b0d -->
<g id="edge15" class="edge"><title>CASP3&#45;&gt;pr_e9467a4a&#45;a161&#45;4a6f&#45;affc&#45;f6a528dd7b0d</title>
<path fill="none" stroke="black" d="M87.0493,-709.082C88.0354,-717.756 88.5927,-728.971 88.7211,-740.517"/>
<polygon fill="black" stroke="black" points="85.2211,-740.694 88.7236,-750.694 92.2211,-740.693 85.2211,-740.694"/>
</g>
<!-- pr_e9467a4a&#45;a161&#45;4a6f&#45;affc&#45;f6a528dd7b0d&#45;&gt;CASP3 -->
<g id="edge16" class="edge"><title>pr_e9467a4a&#45;a161&#45;4a6f&#45;affc&#45;f6a528dd7b0d&#45;&gt;CASP3</title>
<path fill="none" stroke="black" d="M75.2764,-750.694C75.161,-739.843 75.4241,-728.714 76.0656,-719.137"/>
<polygon fill="black" stroke="black" points="79.5603,-719.351 76.9507,-709.082 72.5872,-718.737 79.5603,-719.351"/>
</g>
<!-- CASP9 -->
<g id="node12" class="node"><title>CASP9</title>
<ellipse fill="none" stroke="black" cx="286" cy="-904.342" rx="18" ry="18"/>
<text text-anchor="middle" x="286" y="-903.142" font-family="Times,serif" font-size="4.00">CASP9</text>
</g>
<!-- CASP9&#45;&gt;pr_e9467a4a&#45;a161&#45;4a6f&#45;affc&#45;f6a528dd7b0d -->
<g id="edge17" class="edge"><title>CASP9&#45;&gt;pr_e9467a4a&#45;a161&#45;4a6f&#45;affc&#45;f6a528dd7b0d</title>
<path fill="none" stroke="black" d="M268.486,-899.166C240.158,-891.946 183.109,-875.447 140,-850.342 139.907,-850.288 139.814,-850.233 139.721,-850.179"/>
<polygon fill="black" stroke="black" points="141.442,-847.126 131.124,-844.719 137.689,-853.035 141.442,-847.126"/>
</g>
<!-- pr_8bcebccc&#45;4116&#45;4a28&#45;8bd2&#45;9a69bfa4d50d -->
<g id="node13" class="node"><title>pr_8bcebccc&#45;4116&#45;4a28&#45;8bd2&#45;9a69bfa4d50d</title>
<polygon fill="none" stroke="black" points="373,-633.855 273,-633.855 273,-533.855 373,-533.855 373,-633.855"/>
<text text-anchor="middle" x="323" y="-582.655" font-family="Times,serif" font-size="4.00">pr_8bcebccc&#45;4116&#45;4a28&#45;8bd2&#45;9a69bfa4d50d</text>
</g>
<!-- CASP9&#45;&gt;pr_8bcebccc&#45;4116&#45;4a28&#45;8bd2&#45;9a69bfa4d50d -->
<g id="edge18" class="edge"><title>CASP9&#45;&gt;pr_8bcebccc&#45;4116&#45;4a28&#45;8bd2&#45;9a69bfa4d50d</title>
<path fill="none" stroke="black" d="M284.726,-886.218C286.17,-841.3 299.733,-718.44 310.713,-644.192"/>
<polygon fill="black" stroke="black" points="314.212,-644.461 312.244,-634.051 307.29,-643.416 314.212,-644.461"/>
</g>
<!-- CASP9&#45;&gt;pr_0fc1aed1&#45;44ce&#45;419b&#45;8082&#45;7eb703e5b654 -->
<g id="edge19" class="edge"><title>CASP9&#45;&gt;pr_0fc1aed1&#45;44ce&#45;419b&#45;8082&#45;7eb703e5b654</title>
<path fill="none" stroke="black" d="M274.626,-889.942C267.447,-881.484 257.631,-869.919 247.449,-857.922"/>
<polygon fill="black" stroke="black" points="249.868,-855.363 240.728,-850.004 244.531,-859.893 249.868,-855.363"/>
</g>
<!-- pr_4c7bc060&#45;c25d&#45;4ea3&#45;91bd&#45;d8664ad67d9c -->
<g id="node42" class="node"><title>pr_4c7bc060&#45;c25d&#45;4ea3&#45;91bd&#45;d8664ad67d9c</title>
<polygon fill="none" stroke="black" points="424.5,-850.342 323.5,-850.342 323.5,-749.342 424.5,-749.342 424.5,-850.342"/>
<text text-anchor="middle" x="374" y="-798.642" font-family="Times,serif" font-size="4.00">pr_4c7bc060&#45;c25d&#45;4ea3&#45;91bd&#45;d8664ad67d9c</text>
</g>
<!-- CASP9&#45;&gt;pr_4c7bc060&#45;c25d&#45;4ea3&#45;91bd&#45;d8664ad67d9c -->
<g id="edge20" class="edge"><title>CASP9&#45;&gt;pr_4c7bc060&#45;c25d&#45;4ea3&#45;91bd&#45;d8664ad67d9c</title>
<path fill="none" stroke="black" d="M297.504,-889.942C304.689,-881.573 314.486,-870.162 324.669,-858.301"/>
<polygon fill="black" stroke="black" points="327.535,-860.336 331.394,-850.468 322.224,-855.776 327.535,-860.336"/>
</g>
<!-- pr_8bcebccc&#45;4116&#45;4a28&#45;8bd2&#45;9a69bfa4d50d&#45;&gt;CASP9 -->
<g id="edge21" class="edge"><title>pr_8bcebccc&#45;4116&#45;4a28&#45;8bd2&#45;9a69bfa4d50d&#45;&gt;CASP9</title>
<path fill="none" stroke="black" d="M322.333,-633.952C317.014,-702.125 302.599,-823.096 293.06,-876.607"/>
<polygon fill="black" stroke="black" points="289.577,-876.191 291.162,-886.667 296.455,-877.489 289.577,-876.191"/>
</g>
<!-- Apoptosome -->
<g id="node14" class="node"><title>Apoptosome</title>
<ellipse fill="none" stroke="black" cx="360" cy="-691.598" rx="21.9898" ry="21.9898"/>
<text text-anchor="middle" x="360" y="-690.398" font-family="Times,serif" font-size="4.00">Apoptosome</text>
</g>
<!-- Apoptosome&#45;&gt;pr_8bcebccc&#45;4116&#45;4a28&#45;8bd2&#45;9a69bfa4d50d -->
<g id="edge22" class="edge"><title>Apoptosome&#45;&gt;pr_8bcebccc&#45;4116&#45;4a28&#45;8bd2&#45;9a69bfa4d50d</title>
<path fill="none" stroke="black" d="M353.041,-670.709C350.309,-662.901 347.018,-653.496 343.631,-643.815"/>
<polygon fill="black" stroke="black" points="346.834,-642.374 340.228,-634.091 340.227,-644.686 346.834,-642.374"/>
</g>
<!-- AKT1 -->
<g id="node15" class="node"><title>AKT1</title>
<ellipse fill="none" stroke="black" cx="531" cy="-904.342" rx="18" ry="18"/>
<text text-anchor="middle" x="531" y="-903.142" font-family="Times,serif" font-size="4.00">AKT1</text>
</g>
<!-- AKT1&#45;&gt;pr_8bcebccc&#45;4116&#45;4a28&#45;8bd2&#45;9a69bfa4d50d -->
<g id="edge23" class="edge"><title>AKT1&#45;&gt;pr_8bcebccc&#45;4116&#45;4a28&#45;8bd2&#45;9a69bfa4d50d</title>
<path fill="none" stroke="black" d="M516.572,-893.517C503.376,-883.878 484.117,-868.077 472,-850.342 444.944,-810.741 453.901,-792.979 434,-749.342 417.334,-712.797 413.19,-703.334 391,-669.855 384.863,-660.595 377.959,-651.107 370.964,-641.982"/>
<polygon fill="black" stroke="black" points="373.713,-639.816 364.811,-634.072 368.188,-644.114 373.713,-639.816"/>
</g>
<!-- pr_2661aa8c&#45;ecca&#45;44f8&#45;91f3&#45;a6c61aa21793 -->
<g id="node27" class="node"><title>pr_2661aa8c&#45;ecca&#45;44f8&#45;91f3&#45;a6c61aa21793</title>
<polygon fill="none" stroke="black" points="698.5,-849.342 599.5,-849.342 599.5,-750.342 698.5,-750.342 698.5,-849.342"/>
<text text-anchor="middle" x="649" y="-798.642" font-family="Times,serif" font-size="4.00">pr_2661aa8c&#45;ecca&#45;44f8&#45;91f3&#45;a6c61aa21793</text>
</g>
<!-- AKT1&#45;&gt;pr_2661aa8c&#45;ecca&#45;44f8&#45;91f3&#45;a6c61aa21793 -->
<g id="edge24" class="edge"><title>AKT1&#45;&gt;pr_2661aa8c&#45;ecca&#45;44f8&#45;91f3&#45;a6c61aa21793</title>
<path fill="none" stroke="black" d="M542.125,-889.518C553.857,-877.991 572.887,-860.911 591.694,-844.81"/>
<polygon fill="black" stroke="black" points="594.084,-847.371 599.436,-838.227 589.55,-842.039 594.084,-847.371"/>
</g>
<!-- AKT1&#45;&gt;pr_4c7bc060&#45;c25d&#45;4ea3&#45;91bd&#45;d8664ad67d9c -->
<g id="edge25" class="edge"><title>AKT1&#45;&gt;pr_4c7bc060&#45;c25d&#45;4ea3&#45;91bd&#45;d8664ad67d9c</title>
<path fill="none" stroke="black" d="M515.334,-895.115C496.726,-885.162 464.942,-867.589 439,-850.342 437.081,-849.066 435.143,-847.752 433.197,-846.411"/>
<polygon fill="black" stroke="black" points="434.835,-843.283 424.644,-840.385 430.803,-849.006 434.835,-843.283"/>
</g>
<!-- pr_9eb36356&#45;2128&#45;4b12&#45;aee1&#45;d958fdb9e27a -->
<g id="node44" class="node"><title>pr_9eb36356&#45;2128&#45;4b12&#45;aee1&#45;d958fdb9e27a</title>
<polygon fill="none" stroke="black" points="581,-849.842 481,-849.842 481,-749.842 581,-749.842 581,-849.842"/>
<text text-anchor="middle" x="531" y="-798.642" font-family="Times,serif" font-size="4.00">pr_9eb36356&#45;2128&#45;4b12&#45;aee1&#45;d958fdb9e27a</text>
</g>
<!-- AKT1&#45;&gt;pr_9eb36356&#45;2128&#45;4b12&#45;aee1&#45;d958fdb9e27a -->
<g id="edge26" class="edge"><title>AKT1&#45;&gt;pr_9eb36356&#45;2128&#45;4b12&#45;aee1&#45;d958fdb9e27a</title>
<path fill="none" stroke="black" d="M531,-885.954C531,-878.656 531,-869.699 531,-860.366"/>
<polygon fill="black" stroke="black" points="534.5,-860.152 531,-850.152 527.5,-860.152 534.5,-860.152"/>
</g>
<!-- BID -->
<g id="node16" class="node"><title>BID</title>
<ellipse fill="none" stroke="black" cx="184" cy="-237.229" rx="18" ry="18"/>
<text text-anchor="middle" x="184" y="-236.029" font-family="Times,serif" font-size="4.00">BID</text>
</g>
<!-- BID&#45;&gt;pr_ae5e1fdf&#45;cd1e&#45;44c9&#45;a6d1&#45;20b8b76c8c52 -->
<g id="edge27" class="edge"><title>BID&#45;&gt;pr_ae5e1fdf&#45;cd1e&#45;44c9&#45;a6d1&#45;20b8b76c8c52</title>
<path fill="none" stroke="black" d="M188.926,-254.751C190.088,-265.061 190.695,-279.018 190.746,-293.137"/>
<polygon fill="black" stroke="black" points="187.245,-293.376 190.686,-303.396 194.245,-293.417 187.245,-293.376"/>
</g>
<!-- pr_832b1546&#45;a2ac&#45;4fcc&#45;859d&#45;db1b8b9bf995 -->
<g id="node19" class="node"><title>pr_832b1546&#45;a2ac&#45;4fcc&#45;859d&#45;db1b8b9bf995</title>
<polygon fill="none" stroke="black" points="529.5,-171 430.5,-171 430.5,-72 529.5,-72 529.5,-171"/>
<text text-anchor="middle" x="480" y="-120.3" font-family="Times,serif" font-size="4.00">pr_832b1546&#45;a2ac&#45;4fcc&#45;859d&#45;db1b8b9bf995</text>
</g>
<!-- BID&#45;&gt;pr_832b1546&#45;a2ac&#45;4fcc&#45;859d&#45;db1b8b9bf995 -->
<g id="edge28" class="edge"><title>BID&#45;&gt;pr_832b1546&#45;a2ac&#45;4fcc&#45;859d&#45;db1b8b9bf995</title>
<path fill="none" stroke="black" d="M200.762,-229.788C242.403,-213.789 352.151,-171.622 421.006,-145.167"/>
<polygon fill="black" stroke="black" points="422.36,-148.396 430.439,-141.542 419.849,-141.862 422.36,-148.396"/>
</g>
<!-- pr_ae5e1fdf&#45;cd1e&#45;44c9&#45;a6d1&#45;20b8b76c8c52&#45;&gt;BID -->
<g id="edge29" class="edge"><title>pr_ae5e1fdf&#45;cd1e&#45;44c9&#45;a6d1&#45;20b8b76c8c52&#45;&gt;BID</title>
<path fill="none" stroke="black" d="M177.314,-303.396C177.109,-290.22 177.396,-276.436 178.175,-264.956"/>
<polygon fill="black" stroke="black" points="181.683,-265.019 179.074,-254.751 174.71,-264.405 181.683,-265.019"/>
</g>
<!-- BAX -->
<g id="node18" class="node"><title>BAX</title>
<ellipse fill="none" stroke="black" cx="480" cy="-18" rx="18" ry="18"/>
<text text-anchor="middle" x="480" y="-16.8" font-family="Times,serif" font-size="4.00">BAX</text>
</g>
<!-- BAX&#45;&gt;pr_832b1546&#45;a2ac&#45;4fcc&#45;859d&#45;db1b8b9bf995 -->
<g id="edge30" class="edge"><title>BAX&#45;&gt;pr_832b1546&#45;a2ac&#45;4fcc&#45;859d&#45;db1b8b9bf995</title>
<path fill="none" stroke="black" d="M485.154,-35.647C485.988,-43.0329 486.495,-52.2125 486.675,-61.7797"/>
<polygon fill="black" stroke="black" points="483.176,-61.8555 486.745,-71.831 490.176,-61.807 483.176,-61.8555"/>
</g>
<!-- pr_832b1546&#45;a2ac&#45;4fcc&#45;859d&#45;db1b8b9bf995&#45;&gt;BAX -->
<g id="edge31" class="edge"><title>pr_832b1546&#45;a2ac&#45;4fcc&#45;859d&#45;db1b8b9bf995&#45;&gt;BAX</title>
<path fill="none" stroke="black" d="M473.255,-71.831C473.212,-62.8766 473.449,-53.8356 473.967,-45.8256"/>
<polygon fill="black" stroke="black" points="477.472,-45.9113 474.846,-35.647 470.498,-45.3084 477.472,-45.9113"/>
</g>
<!-- BAD/BBC3/BCL2L11 -->
<g id="node20" class="node"><title>BAD/BBC3/BCL2L11</title>
<ellipse fill="none" stroke="black" cx="480" cy="-237.229" rx="30.4594" ry="30.4594"/>
<text text-anchor="middle" x="480" y="-236.029" font-family="Times,serif" font-size="4.00">BAD/BBC3/BCL2L11</text>
</g>
<!-- BAD/BBC3/BCL2L11&#45;&gt;pr_832b1546&#45;a2ac&#45;4fcc&#45;859d&#45;db1b8b9bf995 -->
<g id="edge32" class="edge"><title>BAD/BBC3/BCL2L11&#45;&gt;pr_832b1546&#45;a2ac&#45;4fcc&#45;859d&#45;db1b8b9bf995</title>
<path fill="none" stroke="black" d="M480,-206.941C480,-199.003 480,-190.119 480,-181.176"/>
<polygon fill="black" stroke="black" points="483.5,-181.1 480,-171.1 476.5,-181.1 483.5,-181.1"/>
</g>
<!-- pr_a0a03430&#45;b5cd&#45;44bf&#45;b950&#45;23d767fc736e -->
<g id="node34" class="node"><title>pr_a0a03430&#45;b5cd&#45;44bf&#45;b950&#45;23d767fc736e</title>
<polygon fill="none" stroke="black" points="529.5,-402.458 430.5,-402.458 430.5,-303.458 529.5,-303.458 529.5,-402.458"/>
<text text-anchor="middle" x="480" y="-351.758" font-family="Times,serif" font-size="4.00">pr_a0a03430&#45;b5cd&#45;44bf&#45;b950&#45;23d767fc736e</text>
</g>
<!-- BAD/BBC3/BCL2L11&#45;&gt;pr_a0a03430&#45;b5cd&#45;44bf&#45;b950&#45;23d767fc736e -->
<g id="edge33" class="edge"><title>BAD/BBC3/BCL2L11&#45;&gt;pr_a0a03430&#45;b5cd&#45;44bf&#45;b950&#45;23d767fc736e</title>
<path fill="none" stroke="black" d="M485.951,-266.91C486.448,-274.954 486.713,-284.005 486.746,-293.123"/>
<polygon fill="black" stroke="black" points="483.245,-293.376 486.686,-303.396 490.245,-293.417 483.245,-293.376"/>
</g>
<!-- BCL2/MCL1/BCL2L1 -->
<g id="node21" class="node"><title>BCL2/MCL1/BCL2L1</title>
<ellipse fill="none" stroke="black" cx="558" cy="-468.156" rx="29.8983" ry="29.8983"/>
<text text-anchor="middle" x="558" y="-466.956" font-family="Times,serif" font-size="4.00">BCL2/MCL1/BCL2L1</text>
</g>
<!-- BCL2/MCL1/BCL2L1&#45;&gt;pr_832b1546&#45;a2ac&#45;4fcc&#45;859d&#45;db1b8b9bf995 -->
<g id="edge34" class="edge"><title>BCL2/MCL1/BCL2L1&#45;&gt;pr_832b1546&#45;a2ac&#45;4fcc&#45;859d&#45;db1b8b9bf995</title>
<path fill="none" stroke="black" d="M556.855,-438.323C554.223,-389.539 545.738,-288.111 519,-207 516.14,-198.323 512.64,-189.356 508.923,-180.651"/>
<polygon fill="black" stroke="black" points="512.055,-179.079 504.825,-171.334 505.648,-181.897 512.055,-179.079"/>
</g>
<!-- BCL2/MCL1/BCL2L1&#45;&gt;pr_a0a03430&#45;b5cd&#45;44bf&#45;b950&#45;23d767fc736e -->
<g id="edge35" class="edge"><title>BCL2/MCL1/BCL2L1&#45;&gt;pr_a0a03430&#45;b5cd&#45;44bf&#45;b950&#45;23d767fc736e</title>
<path fill="none" stroke="black" d="M541.458,-443.15C534.909,-433.645 527.078,-422.28 519.234,-410.897"/>
<polygon fill="black" stroke="black" points="522.095,-408.88 513.539,-402.631 516.331,-412.852 522.095,-408.88"/>
</g>
<!-- pr_780f527b&#45;a982&#45;4b15&#45;952d&#45;645319faae0a -->
<g id="node35" class="node"><title>pr_780f527b&#45;a982&#45;4b15&#45;952d&#45;645319faae0a</title>
<polygon fill="none" stroke="black" points="607.5,-633.355 508.5,-633.355 508.5,-534.355 607.5,-534.355 607.5,-633.355"/>
<text text-anchor="middle" x="558" y="-582.655" font-family="Times,serif" font-size="4.00">pr_780f527b&#45;a982&#45;4b15&#45;952d&#45;645319faae0a</text>
</g>
<!-- BCL2/MCL1/BCL2L1&#45;&gt;pr_780f527b&#45;a982&#45;4b15&#45;952d&#45;645319faae0a -->
<g id="edge36" class="edge"><title>BCL2/MCL1/BCL2L1&#45;&gt;pr_780f527b&#45;a982&#45;4b15&#45;952d&#45;645319faae0a</title>
<path fill="none" stroke="black" d="M563.931,-497.508C564.445,-505.687 564.716,-514.928 564.747,-524.233"/>
<polygon fill="black" stroke="black" points="561.247,-524.285 564.686,-534.306 568.247,-524.328 561.247,-524.285"/>
</g>
<!-- CYCS -->
<g id="node22" class="node"><title>CYCS</title>
<ellipse fill="none" stroke="black" cx="766" cy="-904.342" rx="18" ry="18"/>
<text text-anchor="middle" x="766" y="-903.142" font-family="Times,serif" font-size="4.00">CYCS</text>
</g>
<!-- pr_9269c00a&#45;0e23&#45;4109&#45;af60&#45;173d23f9fd4c -->
<g id="node23" class="node"><title>pr_9269c00a&#45;0e23&#45;4109&#45;af60&#45;173d23f9fd4c</title>
<polygon fill="none" stroke="black" points="815,-848.842 717,-848.842 717,-750.842 815,-750.842 815,-848.842"/>
<text text-anchor="middle" x="766" y="-798.642" font-family="Times,serif" font-size="4.00">pr_9269c00a&#45;0e23&#45;4109&#45;af60&#45;173d23f9fd4c</text>
</g>
<!-- CYCS&#45;&gt;pr_9269c00a&#45;0e23&#45;4109&#45;af60&#45;173d23f9fd4c -->
<g id="edge37" class="edge"><title>CYCS&#45;&gt;pr_9269c00a&#45;0e23&#45;4109&#45;af60&#45;173d23f9fd4c</title>
<path fill="none" stroke="black" d="M760.885,-886.873C760.004,-879.149 759.479,-869.428 759.31,-859.325"/>
<polygon fill="black" stroke="black" points="762.809,-859.136 759.26,-849.154 755.809,-859.171 762.809,-859.136"/>
</g>
<!-- CYCS&#45;&gt;pr_4c7bc060&#45;c25d&#45;4ea3&#45;91bd&#45;d8664ad67d9c -->
<g id="edge38" class="edge"><title>CYCS&#45;&gt;pr_4c7bc060&#45;c25d&#45;4ea3&#45;91bd&#45;d8664ad67d9c</title>
<path fill="none" stroke="black" d="M748.421,-899.957C730.289,-896.48 701.184,-890.942 676,-886.342 585.431,-869.797 559.359,-879.408 472,-850.342 459.317,-846.122 446.229,-840.5 433.909,-834.56"/>
<polygon fill="black" stroke="black" points="435.172,-831.279 424.658,-829.974 432.063,-837.551 435.172,-831.279"/>
</g>
<!-- pr_9269c00a&#45;0e23&#45;4109&#45;af60&#45;173d23f9fd4c&#45;&gt;CYCS -->
<g id="edge39" class="edge"><title>pr_9269c00a&#45;0e23&#45;4109&#45;af60&#45;173d23f9fd4c&#45;&gt;CYCS</title>
<path fill="none" stroke="black" d="M772.74,-849.154C772.804,-858.697 772.556,-868.376 771.994,-876.862"/>
<polygon fill="black" stroke="black" points="768.503,-876.605 771.115,-886.873 775.476,-877.218 768.503,-876.605"/>
</g>
<!-- MAPK14 -->
<g id="node24" class="node"><title>MAPK14</title>
<ellipse fill="none" stroke="black" cx="856" cy="-904.342" rx="18" ry="18"/>
<text text-anchor="middle" x="856" y="-903.142" font-family="Times,serif" font-size="4.00">MAPK14</text>
</g>
<!-- MAPK14&#45;&gt;pr_9269c00a&#45;0e23&#45;4109&#45;af60&#45;173d23f9fd4c -->
<g id="edge40" class="edge"><title>MAPK14&#45;&gt;pr_9269c00a&#45;0e23&#45;4109&#45;af60&#45;173d23f9fd4c</title>
<path fill="none" stroke="black" d="M844.601,-890.36C836.924,-881.616 826.215,-869.42 815.168,-856.838"/>
<polygon fill="black" stroke="black" points="817.498,-854.188 808.27,-848.983 812.238,-858.806 817.498,-854.188"/>
</g>
<!-- pr_9117885c&#45;847d&#45;4576&#45;b760&#45;c9bdfc982a64 -->
<g id="node32" class="node"><title>pr_9117885c&#45;847d&#45;4576&#45;b760&#45;c9bdfc982a64</title>
<polygon fill="none" stroke="black" points="933,-849.842 833,-849.842 833,-749.842 933,-749.842 933,-849.842"/>
<text text-anchor="middle" x="883" y="-798.642" font-family="Times,serif" font-size="4.00">pr_9117885c&#45;847d&#45;4576&#45;b760&#45;c9bdfc982a64</text>
</g>
<!-- MAPK14&#45;&gt;pr_9117885c&#45;847d&#45;4576&#45;b760&#45;c9bdfc982a64 -->
<g id="edge41" class="edge"><title>MAPK14&#45;&gt;pr_9117885c&#45;847d&#45;4576&#45;b760&#45;c9bdfc982a64</title>
<path fill="none" stroke="black" d="M855.363,-885.954C856.507,-878.578 858.41,-869.508 860.722,-860.068"/>
<polygon fill="black" stroke="black" points="864.171,-860.708 863.265,-850.152 857.391,-858.969 864.171,-860.708"/>
</g>
<!-- CASP7 -->
<g id="node25" class="node"><title>CASP7</title>
<ellipse fill="none" stroke="black" cx="199" cy="-691.598" rx="18" ry="18"/>
<text text-anchor="middle" x="199" y="-690.398" font-family="Times,serif" font-size="4.00">CASP7</text>
</g>
<!-- CASP7&#45;&gt;pr_0fc1aed1&#45;44ce&#45;419b&#45;8082&#45;7eb703e5b654 -->
<g id="edge42" class="edge"><title>CASP7&#45;&gt;pr_0fc1aed1&#45;44ce&#45;419b&#45;8082&#45;7eb703e5b654</title>
<path fill="none" stroke="black" d="M204.068,-709.244C205.014,-717.642 205.561,-728.39 205.709,-739.507"/>
<polygon fill="black" stroke="black" points="202.209,-739.771 205.733,-749.763 209.209,-739.755 202.209,-739.771"/>
</g>
<!-- pr_0fc1aed1&#45;44ce&#45;419b&#45;8082&#45;7eb703e5b654&#45;&gt;CASP7 -->
<g id="edge43" class="edge"><title>pr_0fc1aed1&#45;44ce&#45;419b&#45;8082&#45;7eb703e5b654&#45;&gt;CASP7</title>
<path fill="none" stroke="black" d="M192.267,-749.763C192.177,-739.29 192.438,-728.606 193.051,-719.352"/>
<polygon fill="black" stroke="black" points="196.551,-719.51 193.932,-709.244 189.577,-718.903 196.551,-719.51"/>
</g>
<!-- pr_2661aa8c&#45;ecca&#45;44f8&#45;91f3&#45;a6c61aa21793&#45;&gt;AKT1 -->
<g id="edge44" class="edge"><title>pr_2661aa8c&#45;ecca&#45;44f8&#45;91f3&#45;a6c61aa21793&#45;&gt;AKT1</title>
<path fill="none" stroke="black" d="M599.852,-849.39C583.982,-863.25 567.148,-877.374 554.035,-887.692"/>
<polygon fill="black" stroke="black" points="551.787,-885.006 546.003,-893.882 556.06,-890.55 551.787,-885.006"/>
</g>
<!-- M -->
<g id="node28" class="node"><title>M</title>
<ellipse fill="none" stroke="black" cx="649" cy="-904.342" rx="18" ry="18"/>
<text text-anchor="middle" x="649" y="-903.142" font-family="Times,serif" font-size="4.00">M</text>
</g>
<!-- M&#45;&gt;pr_2661aa8c&#45;ecca&#45;44f8&#45;91f3&#45;a6c61aa21793 -->
<g id="edge45" class="edge"><title>M&#45;&gt;pr_2661aa8c&#45;ecca&#45;44f8&#45;91f3&#45;a6c61aa21793</title>
<path fill="none" stroke="black" d="M649,-885.954C649,-878.493 649,-869.299 649,-859.742"/>
<polygon fill="black" stroke="black" points="652.5,-859.709 649,-849.709 645.5,-859.709 652.5,-859.709"/>
</g>
<!-- pr_3cde5340&#45;5b87&#45;41c7&#45;a9ee&#45;87ccc3a1c5f3&#45;&gt;TRADD/FADD -->
<g id="edge46" class="edge"><title>pr_3cde5340&#45;5b87&#45;41c7&#45;a9ee&#45;87ccc3a1c5f3&#45;&gt;TRADD/FADD</title>
<path fill="none" stroke="black" d="M121.574,-1176.74C120.434,-1168 119.274,-1159.11 118.216,-1151"/>
<polygon fill="black" stroke="black" points="121.657,-1150.32 116.893,-1140.85 114.716,-1151.22 121.657,-1150.32"/>
</g>
<!-- TRADD -->
<g id="node30" class="node"><title>TRADD</title>
<ellipse fill="none" stroke="black" cx="188" cy="-1337.41" rx="18" ry="18"/>
<text text-anchor="middle" x="188" y="-1336.21" font-family="Times,serif" font-size="4.00">TRADD</text>
</g>
<!-- TRADD&#45;&gt;pr_3cde5340&#45;5b87&#45;41c7&#45;a9ee&#45;87ccc3a1c5f3 -->
<g id="edge47" class="edge"><title>TRADD&#45;&gt;pr_3cde5340&#45;5b87&#45;41c7&#45;a9ee&#45;87ccc3a1c5f3</title>
<path fill="none" stroke="black" d="M179.657,-1321.33C174.477,-1311.98 167.452,-1299.28 160.253,-1286.28"/>
<polygon fill="black" stroke="black" points="163.167,-1284.32 155.262,-1277.26 157.043,-1287.71 163.167,-1284.32"/>
</g>
<!-- TNF/TNFRSF1A -->
<g id="node31" class="node"><title>TNF/TNFRSF1A</title>
<ellipse fill="none" stroke="black" cx="128" cy="-1337.41" rx="24.2908" ry="24.2908"/>
<text text-anchor="middle" x="128" y="-1336.21" font-family="Times,serif" font-size="4.00">TNF/TNFRSF1A</text>
</g>
<!-- TNF/TNFRSF1A&#45;&gt;pr_3cde5340&#45;5b87&#45;41c7&#45;a9ee&#45;87ccc3a1c5f3 -->
<g id="edge48" class="edge"><title>TNF/TNFRSF1A&#45;&gt;pr_3cde5340&#45;5b87&#45;41c7&#45;a9ee&#45;87ccc3a1c5f3</title>
<path fill="none" stroke="black" d="M128,-1312.89C128,-1305.29 128,-1296.49 128,-1287.49"/>
<polygon fill="black" stroke="black" points="131.5,-1287.3 128,-1277.3 124.5,-1287.3 131.5,-1287.3"/>
</g>
<!-- pr_9117885c&#45;847d&#45;4576&#45;b760&#45;c9bdfc982a64&#45;&gt;MAPK14 -->
<g id="edge49" class="edge"><title>pr_9117885c&#45;847d&#45;4576&#45;b760&#45;c9bdfc982a64&#45;&gt;MAPK14</title>
<path fill="none" stroke="black" d="M876.832,-849.859C874.243,-859.882 871.279,-870.02 868.345,-878.734"/>
<polygon fill="black" stroke="black" points="865.026,-877.623 864.939,-888.217 871.614,-879.989 865.026,-877.623"/>
</g>
<!-- Orf3a -->
<g id="node33" class="node"><title>Orf3a</title>
<ellipse fill="none" stroke="black" cx="910" cy="-904.342" rx="18" ry="18"/>
<text text-anchor="middle" x="910" y="-903.142" font-family="Times,serif" font-size="4.00">Orf3a</text>
</g>
<!-- Orf3a&#45;&gt;pr_9117885c&#45;847d&#45;4576&#45;b760&#45;c9bdfc982a64 -->
<g id="edge50" class="edge"><title>Orf3a&#45;&gt;pr_9117885c&#45;847d&#45;4576&#45;b760&#45;c9bdfc982a64</title>
<path fill="none" stroke="black" d="M905.541,-886.416C903.564,-878.91 901.108,-869.587 898.552,-859.882"/>
<polygon fill="black" stroke="black" points="901.908,-858.881 895.976,-850.103 895.139,-860.664 901.908,-858.881"/>
</g>
<!-- pr_a0a03430&#45;b5cd&#45;44bf&#45;b950&#45;23d767fc736e&#45;&gt;BAD/BBC3/BCL2L11 -->
<g id="edge51" class="edge"><title>pr_a0a03430&#45;b5cd&#45;44bf&#45;b950&#45;23d767fc736e&#45;&gt;BAD/BBC3/BCL2L11</title>
<path fill="none" stroke="black" d="M473.314,-303.396C473.176,-294.555 473.26,-285.439 473.566,-276.93"/>
<polygon fill="black" stroke="black" points="477.063,-277.067 474.049,-266.91 470.071,-276.73 477.063,-277.067"/>
</g>
<!-- pr_780f527b&#45;a982&#45;4b15&#45;952d&#45;645319faae0a&#45;&gt;BCL2/MCL1/BCL2L1 -->
<g id="edge52" class="edge"><title>pr_780f527b&#45;a982&#45;4b15&#45;952d&#45;645319faae0a&#45;&gt;BCL2/MCL1/BCL2L1</title>
<path fill="none" stroke="black" d="M551.314,-534.306C551.175,-525.381 551.262,-516.177 551.575,-507.599"/>
<polygon fill="black" stroke="black" points="555.076,-507.667 552.069,-497.508 548.084,-507.325 555.076,-507.667"/>
</g>
<!-- Orf7a -->
<g id="node36" class="node"><title>Orf7a</title>
<ellipse fill="none" stroke="black" cx="585" cy="-691.598" rx="18" ry="18"/>
<text text-anchor="middle" x="585" y="-690.398" font-family="Times,serif" font-size="4.00">Orf7a</text>
</g>
<!-- Orf7a&#45;&gt;pr_780f527b&#45;a982&#45;4b15&#45;952d&#45;645319faae0a -->
<g id="edge53" class="edge"><title>Orf7a&#45;&gt;pr_780f527b&#45;a982&#45;4b15&#45;952d&#45;645319faae0a</title>
<path fill="none" stroke="black" d="M580.781,-674.076C578.625,-665.63 575.856,-654.785 572.996,-643.585"/>
<polygon fill="black" stroke="black" points="576.338,-642.526 570.473,-633.702 569.555,-644.258 576.338,-642.526"/>
</g>
<!-- E -->
<g id="node37" class="node"><title>E</title>
<ellipse fill="none" stroke="black" cx="639" cy="-691.598" rx="18" ry="18"/>
<text text-anchor="middle" x="639" y="-690.398" font-family="Times,serif" font-size="4.00">E</text>
</g>
<!-- E&#45;&gt;pr_780f527b&#45;a982&#45;4b15&#45;952d&#45;645319faae0a -->
<g id="edge54" class="edge"><title>E&#45;&gt;pr_780f527b&#45;a982&#45;4b15&#45;952d&#45;645319faae0a</title>
<path fill="none" stroke="black" d="M628.411,-676.774C621.379,-667.595 611.63,-654.867 601.625,-641.806"/>
<polygon fill="black" stroke="black" points="604.244,-639.469 595.384,-633.659 598.687,-643.726 604.244,-639.469"/>
</g>
<!-- BAD -->
<g id="node38" class="node"><title>BAD</title>
<ellipse fill="none" stroke="black" cx="531" cy="-691.598" rx="18" ry="18"/>
<text text-anchor="middle" x="531" y="-690.398" font-family="Times,serif" font-size="4.00">BAD</text>
</g>
<!-- BAD&#45;&gt;pr_780f527b&#45;a982&#45;4b15&#45;952d&#45;645319faae0a -->
<g id="edge55" class="edge"><title>BAD&#45;&gt;pr_780f527b&#45;a982&#45;4b15&#45;952d&#45;645319faae0a</title>
<path fill="none" stroke="black" d="M535.219,-674.076C537.375,-665.63 540.144,-654.785 543.004,-643.585"/>
<polygon fill="black" stroke="black" points="546.445,-644.258 545.527,-633.702 539.662,-642.526 546.445,-644.258"/>
</g>
<!-- BAD&#45;&gt;pr_9eb36356&#45;2128&#45;4b12&#45;aee1&#45;d958fdb9e27a -->
<g id="edge56" class="edge"><title>BAD&#45;&gt;pr_9eb36356&#45;2128&#45;4b12&#45;aee1&#45;d958fdb9e27a</title>
<path fill="none" stroke="black" d="M536.068,-709.244C537.014,-717.642 537.561,-728.39 537.709,-739.507"/>
<polygon fill="black" stroke="black" points="534.209,-739.771 537.733,-749.763 541.209,-739.755 534.209,-739.771"/>
</g>
<!-- TNFRSF1A -->
<g id="node39" class="node"><title>TNFRSF1A</title>
<ellipse fill="none" stroke="black" cx="195" cy="-1553.42" rx="19.7452" ry="19.7452"/>
<text text-anchor="middle" x="195" y="-1552.22" font-family="Times,serif" font-size="4.00">TNFRSF1A</text>
</g>
<!-- pr_b138f75a&#45;2a5e&#45;4601&#45;a49b&#45;5f21e43d0f9f -->
<g id="node40" class="node"><title>pr_b138f75a&#45;2a5e&#45;4601&#45;a49b&#45;5f21e43d0f9f</title>
<polygon fill="none" stroke="black" points="216,-1496.8 118,-1496.8 118,-1398.8 216,-1398.8 216,-1496.8"/>
<text text-anchor="middle" x="167" y="-1446.6" font-family="Times,serif" font-size="4.00">pr_b138f75a&#45;2a5e&#45;4601&#45;a49b&#45;5f21e43d0f9f</text>
</g>
<!-- TNFRSF1A&#45;&gt;pr_b138f75a&#45;2a5e&#45;4601&#45;a49b&#45;5f21e43d0f9f -->
<g id="edge57" class="edge"><title>TNFRSF1A&#45;&gt;pr_b138f75a&#45;2a5e&#45;4601&#45;a49b&#45;5f21e43d0f9f</title>
<path fill="none" stroke="black" d="M190.123,-1534.37C187.986,-1526.46 185.346,-1516.7 182.623,-1506.62"/>
<polygon fill="black" stroke="black" points="185.988,-1505.66 180.001,-1496.92 179.231,-1507.48 185.988,-1505.66"/>
</g>
<!-- pr_b138f75a&#45;2a5e&#45;4601&#45;a49b&#45;5f21e43d0f9f&#45;&gt;TNF/TNFRSF1A -->
<g id="edge58" class="edge"><title>pr_b138f75a&#45;2a5e&#45;4601&#45;a49b&#45;5f21e43d0f9f&#45;&gt;TNF/TNFRSF1A</title>
<path fill="none" stroke="black" d="M149.667,-1398.63C146.208,-1389.01 142.657,-1379.14 139.457,-1370.25"/>
<polygon fill="black" stroke="black" points="142.695,-1368.91 136.016,-1360.69 136.108,-1371.28 142.695,-1368.91"/>
</g>
<!-- TNF -->
<g id="node41" class="node"><title>TNF</title>
<ellipse fill="none" stroke="black" cx="139" cy="-1553.42" rx="18" ry="18"/>
<text text-anchor="middle" x="139" y="-1552.22" font-family="Times,serif" font-size="4.00">TNF</text>
</g>
<!-- TNF&#45;&gt;pr_b138f75a&#45;2a5e&#45;4601&#45;a49b&#45;5f21e43d0f9f -->
<g id="edge59" class="edge"><title>TNF&#45;&gt;pr_b138f75a&#45;2a5e&#45;4601&#45;a49b&#45;5f21e43d0f9f</title>
<path fill="none" stroke="black" d="M143.499,-1535.77C145.676,-1527.72 148.435,-1517.51 151.29,-1506.94"/>
<polygon fill="black" stroke="black" points="154.695,-1507.76 153.925,-1497.19 147.937,-1505.93 154.695,-1507.76"/>
</g>
<!-- pr_4c7bc060&#45;c25d&#45;4ea3&#45;91bd&#45;d8664ad67d9c&#45;&gt;Apoptosome -->
<g id="edge60" class="edge"><title>pr_4c7bc060&#45;c25d&#45;4ea3&#45;91bd&#45;d8664ad67d9c&#45;&gt;Apoptosome</title>
<path fill="none" stroke="black" d="M367.451,-749.142C366.293,-740.355 365.119,-731.442 364.055,-723.372"/>
<polygon fill="black" stroke="black" points="367.508,-722.785 362.732,-713.328 360.568,-723.7 367.508,-722.785"/>
</g>
<!-- APAF1 -->
<g id="node43" class="node"><title>APAF1</title>
<ellipse fill="none" stroke="black" cx="374" cy="-904.342" rx="18" ry="18"/>
<text text-anchor="middle" x="374" y="-903.142" font-family="Times,serif" font-size="4.00">APAF1</text>
</g>
<!-- APAF1&#45;&gt;pr_4c7bc060&#45;c25d&#45;4ea3&#45;91bd&#45;d8664ad67d9c -->
<g id="edge61" class="edge"><title>APAF1&#45;&gt;pr_4c7bc060&#45;c25d&#45;4ea3&#45;91bd&#45;d8664ad67d9c</title>
<path fill="none" stroke="black" d="M374,-885.954C374,-878.739 374,-869.904 374,-860.688"/>
<polygon fill="black" stroke="black" points="377.5,-860.595 374,-850.595 370.5,-860.595 377.5,-860.595"/>
</g>
<!-- pr_9eb36356&#45;2128&#45;4b12&#45;aee1&#45;d958fdb9e27a&#45;&gt;BAD -->
<g id="edge62" class="edge"><title>pr_9eb36356&#45;2128&#45;4b12&#45;aee1&#45;d958fdb9e27a&#45;&gt;BAD</title>
<path fill="none" stroke="black" d="M524.267,-749.763C524.177,-739.29 524.438,-728.606 525.051,-719.352"/>
<polygon fill="black" stroke="black" points="528.551,-719.51 525.932,-709.244 521.577,-718.903 528.551,-719.51"/>
</g>
</g>
</svg>
