<?xml version="1.0" encoding="UTF-8" standalone="no"?>
<!DOCTYPE svg PUBLIC "-//W3C//DTD SVG 1.1//EN"
 "http://www.w3.org/Graphics/SVG/1.1/DTD/svg11.dtd">
<!-- Generated by graphviz version 2.38.0 (20140413.2041)
 -->
<!-- Title: G Pages: 1 -->
<svg width="937pt" height="1791pt"
 viewBox="0.00 0.00 936.50 1791.05" xmlns="http://www.w3.org/2000/svg" xmlns:xlink="http://www.w3.org/1999/xlink">
<g id="graph0" class="graph" transform="scale(1 1) rotate(0) translate(4 1787.05)">
<title>G</title>
<polygon fill="white" stroke="none" points="-4,4 -4,-1787.05 932.5,-1787.05 932.5,4 -4,4"/>
<!-- FASLG -->
<g id="node1" class="node"><title>FASLG</title>
<ellipse fill="none" stroke="black" cx="23.5" cy="-1765.05" rx="18" ry="18"/>
<text text-anchor="middle" x="23.5" y="-1763.85" font-family="Times,serif" font-size="4.00">FASLG</text>
</g>
<!-- pr_84281ea5&#45;1542&#45;4543&#45;9a24&#45;adbb85234836 -->
<g id="node2" class="node"><title>pr_84281ea5&#45;1542&#45;4543&#45;9a24&#45;adbb85234836</title>
<polygon fill="none" stroke="black" points="101,-1711.05 0,-1711.05 0,-1610.05 101,-1610.05 101,-1711.05"/>
<text text-anchor="middle" x="50.5" y="-1659.35" font-family="Times,serif" font-size="4.00">pr_84281ea5&#45;1542&#45;4543&#45;9a24&#45;adbb85234836</text>
</g>
<!-- FASLG&#45;&gt;pr_84281ea5&#45;1542&#45;4543&#45;9a24&#45;adbb85234836 -->
<g id="edge1" class="edge"><title>FASLG&#45;&gt;pr_84281ea5&#45;1542&#45;4543&#45;9a24&#45;adbb85234836</title>
<path fill="none" stroke="black" d="M27.9585,-1747.12C29.8928,-1739.78 32.2854,-1730.69 34.782,-1721.22"/>
<polygon fill="black" stroke="black" points="38.2438,-1721.81 37.4066,-1711.25 31.4747,-1720.03 38.2438,-1721.81"/>
</g>
<!-- FAS/FASL -->
<g id="node4" class="node"><title>FAS/FASL</title>
<ellipse fill="none" stroke="black" cx="50.5" cy="-1554.42" rx="18.6233" ry="18.6233"/>
<text text-anchor="middle" x="50.5" y="-1553.22" font-family="Times,serif" font-size="4.00">FAS/FASL</text>
</g>
<!-- pr_84281ea5&#45;1542&#45;4543&#45;9a24&#45;adbb85234836&#45;&gt;FAS/FASL -->
<g id="edge2" class="edge"><title>pr_84281ea5&#45;1542&#45;4543&#45;9a24&#45;adbb85234836&#45;&gt;FAS/FASL</title>
<path fill="none" stroke="black" d="M50.5,-1609.92C50.5,-1600.75 50.5,-1591.47 50.5,-1583.23"/>
<polygon fill="black" stroke="black" points="54.0001,-1583.1 50.5,-1573.1 47.0001,-1583.1 54.0001,-1583.1"/>
</g>
<!-- FAS -->
<g id="node3" class="node"><title>FAS</title>
<ellipse fill="none" stroke="black" cx="77.5" cy="-1765.05" rx="18" ry="18"/>
<text text-anchor="middle" x="77.5" y="-1763.85" font-family="Times,serif" font-size="4.00">FAS</text>
</g>
<!-- FAS&#45;&gt;pr_84281ea5&#45;1542&#45;4543&#45;9a24&#45;adbb85234836 -->
<g id="edge3" class="edge"><title>FAS&#45;&gt;pr_84281ea5&#45;1542&#45;4543&#45;9a24&#45;adbb85234836</title>
<path fill="none" stroke="black" d="M73.0415,-1747.12C71.1072,-1739.78 68.7146,-1730.69 66.218,-1721.22"/>
<polygon fill="black" stroke="black" points="69.5253,-1720.03 63.5934,-1711.25 62.7562,-1721.81 69.5253,-1720.03"/>
</g>
<!-- pr_37c4115b&#45;50cb&#45;469c&#45;9244&#45;d116fad11b31 -->
<g id="node6" class="node"><title>pr_37c4115b&#45;50cb&#45;469c&#45;9244&#45;d116fad11b31</title>
<polygon fill="none" stroke="black" points="100.5,-1498.8 0.5,-1498.8 0.5,-1398.8 100.5,-1398.8 100.5,-1498.8"/>
<text text-anchor="middle" x="50.5" y="-1447.6" font-family="Times,serif" font-size="4.00">pr_37c4115b&#45;50cb&#45;469c&#45;9244&#45;d116fad11b31</text>
</g>
<!-- FAS/FASL&#45;&gt;pr_37c4115b&#45;50cb&#45;469c&#45;9244&#45;d116fad11b31 -->
<g id="edge4" class="edge"><title>FAS/FASL&#45;&gt;pr_37c4115b&#45;50cb&#45;469c&#45;9244&#45;d116fad11b31</title>
<path fill="none" stroke="black" d="M50.5,-1535.85C50.5,-1528.3 50.5,-1519.01 50.5,-1509.35"/>
<polygon fill="black" stroke="black" points="54.0001,-1509.2 50.5,-1499.2 47.0001,-1509.2 54.0001,-1509.2"/>
</g>
<!-- FADD -->
<g id="node5" class="node"><title>FADD</title>
<ellipse fill="none" stroke="black" cx="50.5" cy="-1338.41" rx="18" ry="18"/>
<text text-anchor="middle" x="50.5" y="-1337.21" font-family="Times,serif" font-size="4.00">FADD</text>
</g>
<!-- FADD&#45;&gt;pr_37c4115b&#45;50cb&#45;469c&#45;9244&#45;d116fad11b31 -->
<g id="edge5" class="edge"><title>FADD&#45;&gt;pr_37c4115b&#45;50cb&#45;469c&#45;9244&#45;d116fad11b31</title>
<path fill="none" stroke="black" d="M55.4926,-1355.72C56.52,-1364.69 57.097,-1376.43 57.2234,-1388.51"/>
<polygon fill="black" stroke="black" points="53.7233,-1388.68 57.2236,-1398.68 60.7233,-1388.68 53.7233,-1388.68"/>
</g>
<!-- pr_40abc283&#45;56a4&#45;4bec&#45;b755&#45;2b86ccaedab6 -->
<g id="node8" class="node"><title>pr_40abc283&#45;56a4&#45;4bec&#45;b755&#45;2b86ccaedab6</title>
<polygon fill="none" stroke="black" points="133,-1059.34 32,-1059.34 32,-958.342 133,-958.342 133,-1059.34"/>
<text text-anchor="middle" x="82.5" y="-1007.64" font-family="Times,serif" font-size="4.00">pr_40abc283&#45;56a4&#45;4bec&#45;b755&#45;2b86ccaedab6</text>
</g>
<!-- FADD&#45;&gt;pr_40abc283&#45;56a4&#45;4bec&#45;b755&#45;2b86ccaedab6 -->
<g id="edge6" class="edge"><title>FADD&#45;&gt;pr_40abc283&#45;56a4&#45;4bec&#45;b755&#45;2b86ccaedab6</title>
<path fill="none" stroke="black" d="M52.1754,-1320.26C56.6799,-1274.15 69.2139,-1145.84 76.6828,-1069.39"/>
<polygon fill="black" stroke="black" points="80.168,-1069.71 77.657,-1059.42 73.2012,-1069.03 80.168,-1069.71"/>
</g>
<!-- pr_d0b534ec&#45;0e8b&#45;47f1&#45;9cdd&#45;530477966c39 -->
<g id="node29" class="node"><title>pr_d0b534ec&#45;0e8b&#45;47f1&#45;9cdd&#45;530477966c39</title>
<polygon fill="none" stroke="black" points="178.5,-1278.01 78.5,-1278.01 78.5,-1178.01 178.5,-1178.01 178.5,-1278.01"/>
<text text-anchor="middle" x="128.5" y="-1226.81" font-family="Times,serif" font-size="4.00">pr_d0b534ec&#45;0e8b&#45;47f1&#45;9cdd&#45;530477966c39</text>
</g>
<!-- FADD&#45;&gt;pr_d0b534ec&#45;0e8b&#45;47f1&#45;9cdd&#45;530477966c39 -->
<g id="edge7" class="edge"><title>FADD&#45;&gt;pr_d0b534ec&#45;0e8b&#45;47f1&#45;9cdd&#45;530477966c39</title>
<path fill="none" stroke="black" d="M60.6971,-1323.24C67.6701,-1313.54 77.4186,-1300 87.3534,-1286.19"/>
<polygon fill="black" stroke="black" points="90.2049,-1288.22 93.2048,-1278.06 84.523,-1284.13 90.2049,-1288.22"/>
</g>
<!-- pr_37c4115b&#45;50cb&#45;469c&#45;9244&#45;d116fad11b31&#45;&gt;FADD -->
<g id="edge8" class="edge"><title>pr_37c4115b&#45;50cb&#45;469c&#45;9244&#45;d116fad11b31&#45;&gt;FADD</title>
<path fill="none" stroke="black" d="M43.7764,-1398.68C43.6581,-1387.32 43.9378,-1375.67 44.6157,-1365.73"/>
<polygon fill="black" stroke="black" points="48.1064,-1365.99 45.5074,-1355.72 41.134,-1365.37 48.1064,-1365.99"/>
</g>
<!-- CASP8 -->
<g id="node7" class="node"><title>CASP8</title>
<ellipse fill="none" stroke="black" cx="82.5" cy="-904.342" rx="18" ry="18"/>
<text text-anchor="middle" x="82.5" y="-903.142" font-family="Times,serif" font-size="4.00">CASP8</text>
</g>
<!-- CASP8&#45;&gt;pr_40abc283&#45;56a4&#45;4bec&#45;b755&#45;2b86ccaedab6 -->
<g id="edge9" class="edge"><title>CASP8&#45;&gt;pr_40abc283&#45;56a4&#45;4bec&#45;b755&#45;2b86ccaedab6</title>
<path fill="none" stroke="black" d="M87.6278,-921.924C88.4624,-929.289 88.975,-938.452 89.1655,-948.026"/>
<polygon fill="black" stroke="black" points="85.6661,-948.122 89.2474,-958.093 92.6658,-948.065 85.6661,-948.122"/>
</g>
<!-- pr_3c24ef88&#45;56ff&#45;4fc7&#45;9955&#45;97687626f804 -->
<g id="node11" class="node"><title>pr_3c24ef88&#45;56ff&#45;4fc7&#45;9955&#45;97687626f804</title>
<polygon fill="none" stroke="black" points="131,-848.842 34,-848.842 34,-751.842 131,-751.842 131,-848.842"/>
<text text-anchor="middle" x="82.5" y="-799.142" font-family="Times,serif" font-size="4.00">pr_3c24ef88&#45;56ff&#45;4fc7&#45;9955&#45;97687626f804</text>
</g>
<!-- CASP8&#45;&gt;pr_3c24ef88&#45;56ff&#45;4fc7&#45;9955&#45;97687626f804 -->
<g id="edge10" class="edge"><title>CASP8&#45;&gt;pr_3c24ef88&#45;56ff&#45;4fc7&#45;9955&#45;97687626f804</title>
<path fill="none" stroke="black" d="M82.5,-886.039C82.5,-878.446 82.5,-869.049 82.5,-859.306"/>
<polygon fill="black" stroke="black" points="86.0001,-859.089 82.5,-849.089 79.0001,-859.089 86.0001,-859.089"/>
</g>
<!-- pr_5895abf0&#45;0a84&#45;49b4&#45;9e37&#45;5972cab0d24d -->
<g id="node17" class="node"><title>pr_5895abf0&#45;0a84&#45;49b4&#45;9e37&#45;5972cab0d24d</title>
<polygon fill="none" stroke="black" points="231.5,-402.458 131.5,-402.458 131.5,-302.458 231.5,-302.458 231.5,-402.458"/>
<text text-anchor="middle" x="181.5" y="-351.258" font-family="Times,serif" font-size="4.00">pr_5895abf0&#45;0a84&#45;49b4&#45;9e37&#45;5972cab0d24d</text>
</g>
<!-- CASP8&#45;&gt;pr_5895abf0&#45;0a84&#45;49b4&#45;9e37&#45;5972cab0d24d -->
<g id="edge11" class="edge"><title>CASP8&#45;&gt;pr_5895abf0&#45;0a84&#45;49b4&#45;9e37&#45;5972cab0d24d</title>
<path fill="none" stroke="black" d="M67.5854,-894.236C53.8974,-885.002 34.304,-869.381 24.5,-850.342 -7.62563,-787.953 5.5,-763.772 5.5,-693.598 5.5,-693.598 5.5,-693.598 5.5,-583.355 5.5,-504.389 71.7768,-435.766 122.988,-394.528"/>
<polygon fill="black" stroke="black" points="125.388,-397.092 131.065,-388.147 121.049,-391.6 125.388,-397.092"/>
</g>
<!-- pr_71668197&#45;f9b7&#45;4311&#45;b7a0&#45;f2af26417c63 -->
<g id="node26" class="node"><title>pr_71668197&#45;f9b7&#45;4311&#45;b7a0&#45;f2af26417c63</title>
<polygon fill="none" stroke="black" points="246.5,-849.342 148.5,-849.342 148.5,-751.342 246.5,-751.342 246.5,-849.342"/>
<text text-anchor="middle" x="197.5" y="-799.142" font-family="Times,serif" font-size="4.00">pr_71668197&#45;f9b7&#45;4311&#45;b7a0&#45;f2af26417c63</text>
</g>
<!-- CASP8&#45;&gt;pr_71668197&#45;f9b7&#45;4311&#45;b7a0&#45;f2af26417c63 -->
<g id="edge12" class="edge"><title>CASP8&#45;&gt;pr_71668197&#45;f9b7&#45;4311&#45;b7a0&#45;f2af26417c63</title>
<path fill="none" stroke="black" d="M95.692,-891.641C106.896,-881.703 123.796,-866.714 140.625,-851.788"/>
<polygon fill="black" stroke="black" points="143.172,-854.207 148.331,-844.953 138.527,-848.97 143.172,-854.207"/>
</g>
<!-- pr_40abc283&#45;56a4&#45;4bec&#45;b755&#45;2b86ccaedab6&#45;&gt;CASP8 -->
<g id="edge13" class="edge"><title>pr_40abc283&#45;56a4&#45;4bec&#45;b755&#45;2b86ccaedab6&#45;&gt;CASP8</title>
<path fill="none" stroke="black" d="M75.7526,-958.093C75.7218,-949.116 75.9673,-940.077 76.4892,-932.08"/>
<polygon fill="black" stroke="black" points="79.9928,-932.19 77.3722,-921.924 73.0191,-931.583 79.9928,-932.19"/>
</g>
<!-- TRADD/FADD -->
<g id="node9" class="node"><title>TRADD/FADD</title>
<ellipse fill="none" stroke="black" cx="114.5" cy="-1118.68" rx="23.1702" ry="23.1702"/>
<text text-anchor="middle" x="114.5" y="-1117.48" font-family="Times,serif" font-size="4.00">TRADD/FADD</text>
</g>
<!-- TRADD/FADD&#45;&gt;pr_40abc283&#45;56a4&#45;4bec&#45;b755&#45;2b86ccaedab6 -->
<g id="edge14" class="edge"><title>TRADD/FADD&#45;&gt;pr_40abc283&#45;56a4&#45;4bec&#45;b755&#45;2b86ccaedab6</title>
<path fill="none" stroke="black" d="M108.101,-1096.11C105.748,-1088.18 102.956,-1078.77 100.095,-1069.13"/>
<polygon fill="black" stroke="black" points="103.425,-1068.05 97.2246,-1059.46 96.7142,-1070.04 103.425,-1068.05"/>
</g>
<!-- CASP3 -->
<g id="node10" class="node"><title>CASP3</title>
<ellipse fill="none" stroke="black" cx="82.5" cy="-692.598" rx="18" ry="18"/>
<text text-anchor="middle" x="82.5" y="-691.398" font-family="Times,serif" font-size="4.00">CASP3</text>
</g>
<!-- CASP3&#45;&gt;pr_3c24ef88&#45;56ff&#45;4fc7&#45;9955&#45;97687626f804 -->
<g id="edge15" class="edge"><title>CASP3&#45;&gt;pr_3c24ef88&#45;56ff&#45;4fc7&#45;9955&#45;97687626f804</title>
<path fill="none" stroke="black" d="M87.5617,-710.113C88.5478,-718.8 89.1019,-730.024 89.2241,-741.563"/>
<polygon fill="black" stroke="black" points="85.7241,-741.727 89.2202,-751.729 92.7241,-741.73 85.7241,-741.727"/>
</g>
<!-- pr_3c24ef88&#45;56ff&#45;4fc7&#45;9955&#45;97687626f804&#45;&gt;CASP3 -->
<g id="edge16" class="edge"><title>pr_3c24ef88&#45;56ff&#45;4fc7&#45;9955&#45;97687626f804&#45;&gt;CASP3</title>
<path fill="none" stroke="black" d="M75.7798,-751.729C75.6568,-740.895 75.915,-729.764 76.5544,-720.18"/>
<polygon fill="black" stroke="black" points="80.0501,-720.381 77.4383,-710.113 73.0769,-719.769 80.0501,-720.381"/>
</g>
<!-- CASP9 -->
<g id="node12" class="node"><title>CASP9</title>
<ellipse fill="none" stroke="black" cx="283.5" cy="-904.342" rx="18" ry="18"/>
<text text-anchor="middle" x="283.5" y="-903.142" font-family="Times,serif" font-size="4.00">CASP9</text>
</g>
<!-- CASP9&#45;&gt;pr_3c24ef88&#45;56ff&#45;4fc7&#45;9955&#45;97687626f804 -->
<g id="edge17" class="edge"><title>CASP9&#45;&gt;pr_3c24ef88&#45;56ff&#45;4fc7&#45;9955&#45;97687626f804</title>
<path fill="none" stroke="black" d="M266.219,-899.135C239.852,-892.283 188.272,-877.16 139.797,-850.014"/>
<polygon fill="black" stroke="black" points="141.515,-846.964 131.105,-844.993 138.014,-853.026 141.515,-846.964"/>
</g>
<!-- pr_48ca1ce5&#45;71c5&#45;40f9&#45;a03a&#45;d7056c76e206 -->
<g id="node13" class="node"><title>pr_48ca1ce5&#45;71c5&#45;40f9&#45;a03a&#45;d7056c76e206</title>
<polygon fill="none" stroke="black" points="369.5,-634.355 269.5,-634.355 269.5,-534.355 369.5,-534.355 369.5,-634.355"/>
<text text-anchor="middle" x="319.5" y="-583.155" font-family="Times,serif" font-size="4.00">pr_48ca1ce5&#45;71c5&#45;40f9&#45;a03a&#45;d7056c76e206</text>
</g>
<!-- CASP9&#45;&gt;pr_48ca1ce5&#45;71c5&#45;40f9&#45;a03a&#45;d7056c76e206 -->
<g id="edge18" class="edge"><title>CASP9&#45;&gt;pr_48ca1ce5&#45;71c5&#45;40f9&#45;a03a&#45;d7056c76e206</title>
<path fill="none" stroke="black" d="M282.173,-886.245C283.475,-841.398 296.653,-718.73 307.399,-644.599"/>
<polygon fill="black" stroke="black" points="310.896,-644.878 308.898,-634.474 303.971,-643.853 310.896,-644.878"/>
</g>
<!-- CASP9&#45;&gt;pr_71668197&#45;f9b7&#45;4311&#45;b7a0&#45;f2af26417c63 -->
<g id="edge19" class="edge"><title>CASP9&#45;&gt;pr_71668197&#45;f9b7&#45;4311&#45;b7a0&#45;f2af26417c63</title>
<path fill="none" stroke="black" d="M272.257,-890.007C265.086,-881.502 255.253,-869.839 245.074,-857.766"/>
<polygon fill="black" stroke="black" points="247.481,-855.192 238.359,-849.803 242.129,-859.704 247.481,-855.192"/>
</g>
<!-- pr_5f14dd8b&#45;9ac4&#45;4945&#45;9232&#45;c7ee6209b6e1 -->
<g id="node42" class="node"><title>pr_5f14dd8b&#45;9ac4&#45;4945&#45;9232&#45;c7ee6209b6e1</title>
<polygon fill="none" stroke="black" points="420.5,-850.342 320.5,-850.342 320.5,-750.342 420.5,-750.342 420.5,-850.342"/>
<text text-anchor="middle" x="370.5" y="-799.142" font-family="Times,serif" font-size="4.00">pr_5f14dd8b&#45;9ac4&#45;4945&#45;9232&#45;c7ee6209b6e1</text>
</g>
<!-- CASP9&#45;&gt;pr_5f14dd8b&#45;9ac4&#45;4945&#45;9232&#45;c7ee6209b6e1 -->
<g id="edge20" class="edge"><title>CASP9&#45;&gt;pr_5f14dd8b&#45;9ac4&#45;4945&#45;9232&#45;c7ee6209b6e1</title>
<path fill="none" stroke="black" d="M294.874,-890.007C301.977,-881.679 311.662,-870.324 321.73,-858.52"/>
<polygon fill="black" stroke="black" points="324.551,-860.606 328.378,-850.726 319.225,-856.063 324.551,-860.606"/>
</g>
<!-- pr_48ca1ce5&#45;71c5&#45;40f9&#45;a03a&#45;d7056c76e206&#45;&gt;CASP9 -->
<g id="edge21" class="edge"><title>pr_48ca1ce5&#45;71c5&#45;40f9&#45;a03a&#45;d7056c76e206&#45;&gt;CASP9</title>
<path fill="none" stroke="black" d="M318.988,-634.375C313.882,-702.441 299.847,-823.222 290.476,-876.649"/>
<polygon fill="black" stroke="black" points="286.995,-876.222 288.61,-886.693 293.878,-877.501 286.995,-876.222"/>
</g>
<!-- Apoptosome -->
<g id="node14" class="node"><title>Apoptosome</title>
<ellipse fill="none" stroke="black" cx="356.5" cy="-692.598" rx="21.9898" ry="21.9898"/>
<text text-anchor="middle" x="356.5" y="-691.398" font-family="Times,serif" font-size="4.00">Apoptosome</text>
</g>
<!-- Apoptosome&#45;&gt;pr_48ca1ce5&#45;71c5&#45;40f9&#45;a03a&#45;d7056c76e206 -->
<g id="edge22" class="edge"><title>Apoptosome&#45;&gt;pr_48ca1ce5&#45;71c5&#45;40f9&#45;a03a&#45;d7056c76e206</title>
<path fill="none" stroke="black" d="M349.541,-671.615C346.749,-663.597 343.373,-653.904 339.907,-643.951"/>
<polygon fill="black" stroke="black" points="343.166,-642.668 336.572,-634.375 336.555,-644.97 343.166,-642.668"/>
</g>
<!-- AKT1 -->
<g id="node15" class="node"><title>AKT1</title>
<ellipse fill="none" stroke="black" cx="526.5" cy="-904.342" rx="18" ry="18"/>
<text text-anchor="middle" x="526.5" y="-903.142" font-family="Times,serif" font-size="4.00">AKT1</text>
</g>
<!-- AKT1&#45;&gt;pr_48ca1ce5&#45;71c5&#45;40f9&#45;a03a&#45;d7056c76e206 -->
<g id="edge23" class="edge"><title>AKT1&#45;&gt;pr_48ca1ce5&#45;71c5&#45;40f9&#45;a03a&#45;d7056c76e206</title>
<path fill="none" stroke="black" d="M512.086,-893.508C498.898,-883.863 479.647,-868.057 467.5,-850.342 440.613,-811.129 449.088,-793.665 429.5,-750.342 413.039,-713.934 409.363,-704.298 387.5,-670.855 381.32,-661.4 374.335,-651.718 367.254,-642.425"/>
<polygon fill="black" stroke="black" points="369.912,-640.141 361.025,-634.374 364.376,-644.425 369.912,-640.141"/>
</g>
<!-- pr_c042e8c6&#45;838f&#45;481e&#45;97eb&#45;6c87cd9eac32 -->
<g id="node27" class="node"><title>pr_c042e8c6&#45;838f&#45;481e&#45;97eb&#45;6c87cd9eac32</title>
<polygon fill="none" stroke="black" points="694.5,-850.342 594.5,-850.342 594.5,-750.342 694.5,-750.342 694.5,-850.342"/>
<text text-anchor="middle" x="644.5" y="-799.142" font-family="Times,serif" font-size="4.00">pr_c042e8c6&#45;838f&#45;481e&#45;97eb&#45;6c87cd9eac32</text>
</g>
<!-- AKT1&#45;&gt;pr_c042e8c6&#45;838f&#45;481e&#45;97eb&#45;6c87cd9eac32 -->
<g id="edge24" class="edge"><title>AKT1&#45;&gt;pr_c042e8c6&#45;838f&#45;481e&#45;97eb&#45;6c87cd9eac32</title>
<path fill="none" stroke="black" d="M537.625,-889.585C549.208,-878.261 567.903,-861.55 586.475,-845.708"/>
<polygon fill="black" stroke="black" points="589.038,-848.124 594.406,-838.99 584.513,-842.783 589.038,-848.124"/>
</g>
<!-- AKT1&#45;&gt;pr_5f14dd8b&#45;9ac4&#45;4945&#45;9232&#45;c7ee6209b6e1 -->
<g id="edge25" class="edge"><title>AKT1&#45;&gt;pr_5f14dd8b&#45;9ac4&#45;4945&#45;9232&#45;c7ee6209b6e1</title>
<path fill="none" stroke="black" d="M510.826,-895.126C492.211,-885.185 460.419,-867.623 434.5,-850.342 432.655,-849.112 430.794,-847.846 428.925,-846.555"/>
<polygon fill="black" stroke="black" points="430.895,-843.662 420.708,-840.751 426.857,-849.379 430.895,-843.662"/>
</g>
<!-- pr_9ec39d31&#45;9af2&#45;4e5b&#45;8c25&#45;0a18a1b1e3b9 -->
<g id="node44" class="node"><title>pr_9ec39d31&#45;9af2&#45;4e5b&#45;8c25&#45;0a18a1b1e3b9</title>
<polygon fill="none" stroke="black" points="576.5,-850.342 476.5,-850.342 476.5,-750.342 576.5,-750.342 576.5,-850.342"/>
<text text-anchor="middle" x="526.5" y="-799.142" font-family="Times,serif" font-size="4.00">pr_9ec39d31&#45;9af2&#45;4e5b&#45;8c25&#45;0a18a1b1e3b9</text>
</g>
<!-- AKT1&#45;&gt;pr_9ec39d31&#45;9af2&#45;4e5b&#45;8c25&#45;0a18a1b1e3b9 -->
<g id="edge26" class="edge"><title>AKT1&#45;&gt;pr_9ec39d31&#45;9af2&#45;4e5b&#45;8c25&#45;0a18a1b1e3b9</title>
<path fill="none" stroke="black" d="M526.5,-886.039C526.5,-878.776 526.5,-869.863 526.5,-860.576"/>
<polygon fill="black" stroke="black" points="530,-860.411 526.5,-850.411 523,-860.411 530,-860.411"/>
</g>
<!-- BID -->
<g id="node16" class="node"><title>BID</title>
<ellipse fill="none" stroke="black" cx="181.5" cy="-236.229" rx="18" ry="18"/>
<text text-anchor="middle" x="181.5" y="-235.029" font-family="Times,serif" font-size="4.00">BID</text>
</g>
<!-- BID&#45;&gt;pr_5895abf0&#45;0a84&#45;49b4&#45;9e37&#45;5972cab0d24d -->
<g id="edge27" class="edge"><title>BID&#45;&gt;pr_5895abf0&#45;0a84&#45;49b4&#45;9e37&#45;5972cab0d24d</title>
<path fill="none" stroke="black" d="M186.414,-253.717C187.576,-264.01 188.186,-277.953 188.245,-292.081"/>
<polygon fill="black" stroke="black" points="184.744,-292.333 188.191,-302.351 191.744,-292.37 184.744,-292.333"/>
</g>
<!-- pr_7ccd10e3&#45;2fb8&#45;4110&#45;b69a&#45;e4fe9c3f0874 -->
<g id="node19" class="node"><title>pr_7ccd10e3&#45;2fb8&#45;4110&#45;b69a&#45;e4fe9c3f0874</title>
<polygon fill="none" stroke="black" points="524.5,-170 426.5,-170 426.5,-72 524.5,-72 524.5,-170"/>
<text text-anchor="middle" x="475.5" y="-119.8" font-family="Times,serif" font-size="4.00">pr_7ccd10e3&#45;2fb8&#45;4110&#45;b69a&#45;e4fe9c3f0874</text>
</g>
<!-- BID&#45;&gt;pr_7ccd10e3&#45;2fb8&#45;4110&#45;b69a&#45;e4fe9c3f0874 -->
<g id="edge28" class="edge"><title>BID&#45;&gt;pr_7ccd10e3&#45;2fb8&#45;4110&#45;b69a&#45;e4fe9c3f0874</title>
<path fill="none" stroke="black" d="M198.149,-228.817C239.509,-212.888 348.514,-170.906 416.905,-144.567"/>
<polygon fill="black" stroke="black" points="418.2,-147.819 426.274,-140.958 415.684,-141.286 418.2,-147.819"/>
</g>
<!-- pr_5895abf0&#45;0a84&#45;49b4&#45;9e37&#45;5972cab0d24d&#45;&gt;BID -->
<g id="edge29" class="edge"><title>pr_5895abf0&#45;0a84&#45;49b4&#45;9e37&#45;5972cab0d24d&#45;&gt;BID</title>
<path fill="none" stroke="black" d="M174.809,-302.351C174.613,-289.154 174.905,-275.375 175.687,-263.908"/>
<polygon fill="black" stroke="black" points="179.193,-263.986 176.586,-253.717 172.22,-263.37 179.193,-263.986"/>
</g>
<!-- BAX -->
<g id="node18" class="node"><title>BAX</title>
<ellipse fill="none" stroke="black" cx="475.5" cy="-18" rx="18" ry="18"/>
<text text-anchor="middle" x="475.5" y="-16.8" font-family="Times,serif" font-size="4.00">BAX</text>
</g>
<!-- BAX&#45;&gt;pr_7ccd10e3&#45;2fb8&#45;4110&#45;b69a&#45;e4fe9c3f0874 -->
<g id="edge30" class="edge"><title>BAX&#45;&gt;pr_7ccd10e3&#45;2fb8&#45;4110&#45;b69a&#45;e4fe9c3f0874</title>
<path fill="none" stroke="black" d="M480.666,-35.6781C481.5,-43.0739 482.005,-52.2609 482.18,-61.8239"/>
<polygon fill="black" stroke="black" points="478.68,-61.8887 482.243,-71.8664 485.68,-61.8446 478.68,-61.8887"/>
</g>
<!-- pr_7ccd10e3&#45;2fb8&#45;4110&#45;b69a&#45;e4fe9c3f0874&#45;&gt;BAX -->
<g id="edge31" class="edge"><title>pr_7ccd10e3&#45;2fb8&#45;4110&#45;b69a&#45;e4fe9c3f0874&#45;&gt;BAX</title>
<path fill="none" stroke="black" d="M468.757,-71.8664C468.707,-62.9242 468.94,-53.8829 469.455,-45.8672"/>
<polygon fill="black" stroke="black" points="472.962,-45.9418 470.334,-35.6781 465.988,-45.3405 472.962,-45.9418"/>
</g>
<!-- BAD/BBC3/BCL2L11 -->
<g id="node20" class="node"><title>BAD/BBC3/BCL2L11</title>
<ellipse fill="none" stroke="black" cx="475.5" cy="-236.229" rx="30.4594" ry="30.4594"/>
<text text-anchor="middle" x="475.5" y="-235.029" font-family="Times,serif" font-size="4.00">BAD/BBC3/BCL2L11</text>
</g>
<!-- BAD/BBC3/BCL2L11&#45;&gt;pr_7ccd10e3&#45;2fb8&#45;4110&#45;b69a&#45;e4fe9c3f0874 -->
<g id="edge32" class="edge"><title>BAD/BBC3/BCL2L11&#45;&gt;pr_7ccd10e3&#45;2fb8&#45;4110&#45;b69a&#45;e4fe9c3f0874</title>
<path fill="none" stroke="black" d="M475.5,-205.775C475.5,-197.957 475.5,-189.233 475.5,-180.451"/>
<polygon fill="black" stroke="black" points="479,-180.164 475.5,-170.164 472,-180.164 479,-180.164"/>
</g>
<!-- pr_f34ba163&#45;1cc8&#45;4368&#45;a5ed&#45;ec6244aed521 -->
<g id="node34" class="node"><title>pr_f34ba163&#45;1cc8&#45;4368&#45;a5ed&#45;ec6244aed521</title>
<polygon fill="none" stroke="black" points="525.5,-402.458 425.5,-402.458 425.5,-302.458 525.5,-302.458 525.5,-402.458"/>
<text text-anchor="middle" x="475.5" y="-351.258" font-family="Times,serif" font-size="4.00">pr_f34ba163&#45;1cc8&#45;4368&#45;a5ed&#45;ec6244aed521</text>
</g>
<!-- BAD/BBC3/BCL2L11&#45;&gt;pr_f34ba163&#45;1cc8&#45;4368&#45;a5ed&#45;ec6244aed521 -->
<g id="edge33" class="edge"><title>BAD/BBC3/BCL2L11&#45;&gt;pr_f34ba163&#45;1cc8&#45;4368&#45;a5ed&#45;ec6244aed521</title>
<path fill="none" stroke="black" d="M481.46,-266.183C481.948,-274.167 482.209,-283.13 482.246,-292.167"/>
<polygon fill="black" stroke="black" points="478.745,-292.333 482.191,-302.351 485.745,-292.37 478.745,-292.333"/>
</g>
<!-- BCL2/MCL1/BCL2L1 -->
<g id="node21" class="node"><title>BCL2/MCL1/BCL2L1</title>
<ellipse fill="none" stroke="black" cx="553.5" cy="-468.156" rx="29.8983" ry="29.8983"/>
<text text-anchor="middle" x="553.5" y="-466.956" font-family="Times,serif" font-size="4.00">BCL2/MCL1/BCL2L1</text>
</g>
<!-- BCL2/MCL1/BCL2L1&#45;&gt;pr_7ccd10e3&#45;2fb8&#45;4110&#45;b69a&#45;e4fe9c3f0874 -->
<g id="edge34" class="edge"><title>BCL2/MCL1/BCL2L1&#45;&gt;pr_7ccd10e3&#45;2fb8&#45;4110&#45;b69a&#45;e4fe9c3f0874</title>
<path fill="none" stroke="black" d="M552.397,-438.204C549.827,-389.221 541.43,-287.385 514.5,-206 511.607,-197.256 508.056,-188.22 504.286,-179.46"/>
<polygon fill="black" stroke="black" points="507.384,-177.812 500.13,-170.089 500.985,-180.649 507.384,-177.812"/>
</g>
<!-- BCL2/MCL1/BCL2L1&#45;&gt;pr_f34ba163&#45;1cc8&#45;4368&#45;a5ed&#45;ec6244aed521 -->
<g id="edge35" class="edge"><title>BCL2/MCL1/BCL2L1&#45;&gt;pr_f34ba163&#45;1cc8&#45;4368&#45;a5ed&#45;ec6244aed521</title>
<path fill="none" stroke="black" d="M537.149,-443.321C530.606,-433.785 522.763,-422.351 514.897,-410.886"/>
<polygon fill="black" stroke="black" points="517.728,-408.825 509.185,-402.559 511.956,-412.785 517.728,-408.825"/>
</g>
<!-- pr_ba91cec5&#45;d339&#45;4497&#45;9a8c&#45;954d18679877 -->
<g id="node35" class="node"><title>pr_ba91cec5&#45;d339&#45;4497&#45;9a8c&#45;954d18679877</title>
<polygon fill="none" stroke="black" points="604,-634.855 503,-634.855 503,-533.855 604,-533.855 604,-634.855"/>
<text text-anchor="middle" x="553.5" y="-583.155" font-family="Times,serif" font-size="4.00">pr_ba91cec5&#45;d339&#45;4497&#45;9a8c&#45;954d18679877</text>
</g>
<!-- BCL2/MCL1/BCL2L1&#45;&gt;pr_ba91cec5&#45;d339&#45;4497&#45;9a8c&#45;954d18679877 -->
<g id="edge36" class="edge"><title>BCL2/MCL1/BCL2L1&#45;&gt;pr_ba91cec5&#45;d339&#45;4497&#45;9a8c&#45;954d18679877</title>
<path fill="none" stroke="black" d="M559.418,-497.428C559.92,-505.375 560.195,-514.332 560.242,-523.384"/>
<polygon fill="black" stroke="black" points="556.742,-523.583 560.2,-533.598 563.742,-523.612 556.742,-523.583"/>
</g>
<!-- CYCS -->
<g id="node22" class="node"><title>CYCS</title>
<ellipse fill="none" stroke="black" cx="761.5" cy="-904.342" rx="18" ry="18"/>
<text text-anchor="middle" x="761.5" y="-903.142" font-family="Times,serif" font-size="4.00">CYCS</text>
</g>
<!-- pr_87ad20e1&#45;af39&#45;467b&#45;b61f&#45;c6944f0ea3d4 -->
<g id="node23" class="node"><title>pr_87ad20e1&#45;af39&#45;467b&#45;b61f&#45;c6944f0ea3d4</title>
<polygon fill="none" stroke="black" points="810.5,-849.342 712.5,-849.342 712.5,-751.342 810.5,-751.342 810.5,-849.342"/>
<text text-anchor="middle" x="761.5" y="-799.142" font-family="Times,serif" font-size="4.00">pr_87ad20e1&#45;af39&#45;467b&#45;b61f&#45;c6944f0ea3d4</text>
</g>
<!-- CYCS&#45;&gt;pr_87ad20e1&#45;af39&#45;467b&#45;b61f&#45;c6944f0ea3d4 -->
<g id="edge37" class="edge"><title>CYCS&#45;&gt;pr_87ad20e1&#45;af39&#45;467b&#45;b61f&#45;c6944f0ea3d4</title>
<path fill="none" stroke="black" d="M756.385,-886.954C755.504,-879.267 754.979,-869.593 754.81,-859.539"/>
<polygon fill="black" stroke="black" points="758.31,-859.4 754.76,-849.418 751.31,-859.435 758.31,-859.4"/>
</g>
<!-- CYCS&#45;&gt;pr_5f14dd8b&#45;9ac4&#45;4945&#45;9232&#45;c7ee6209b6e1 -->
<g id="edge38" class="edge"><title>CYCS&#45;&gt;pr_5f14dd8b&#45;9ac4&#45;4945&#45;9232&#45;c7ee6209b6e1</title>
<path fill="none" stroke="black" d="M743.921,-899.957C725.789,-896.48 696.684,-890.942 671.5,-886.342 580.931,-869.797 554.859,-879.409 467.5,-850.342 454.946,-846.165 441.992,-840.599 429.798,-834.719"/>
<polygon fill="black" stroke="black" points="431.155,-831.486 420.641,-830.18 428.045,-837.757 431.155,-831.486"/>
</g>
<!-- pr_87ad20e1&#45;af39&#45;467b&#45;b61f&#45;c6944f0ea3d4&#45;&gt;CYCS -->
<g id="edge39" class="edge"><title>pr_87ad20e1&#45;af39&#45;467b&#45;b61f&#45;c6944f0ea3d4&#45;&gt;CYCS</title>
<path fill="none" stroke="black" d="M768.24,-849.418C768.304,-858.914 768.056,-868.546 767.494,-876.991"/>
<polygon fill="black" stroke="black" points="764.007,-876.685 766.615,-886.954 770.98,-877.3 764.007,-876.685"/>
</g>
<!-- MAPK14 -->
<g id="node24" class="node"><title>MAPK14</title>
<ellipse fill="none" stroke="black" cx="851.5" cy="-904.342" rx="18" ry="18"/>
<text text-anchor="middle" x="851.5" y="-903.142" font-family="Times,serif" font-size="4.00">MAPK14</text>
</g>
<!-- MAPK14&#45;&gt;pr_87ad20e1&#45;af39&#45;467b&#45;b61f&#45;c6944f0ea3d4 -->
<g id="edge40" class="edge"><title>MAPK14&#45;&gt;pr_87ad20e1&#45;af39&#45;467b&#45;b61f&#45;c6944f0ea3d4</title>
<path fill="none" stroke="black" d="M839.734,-890.007C832.158,-881.421 821.743,-869.617 810.982,-857.421"/>
<polygon fill="black" stroke="black" points="813.5,-854.985 804.26,-849.803 808.251,-859.617 813.5,-854.985"/>
</g>
<!-- pr_ea1303dd&#45;972c&#45;41c1&#45;8bfd&#45;23abe3296ae5 -->
<g id="node32" class="node"><title>pr_ea1303dd&#45;972c&#45;41c1&#45;8bfd&#45;23abe3296ae5</title>
<polygon fill="none" stroke="black" points="928.5,-850.342 828.5,-850.342 828.5,-750.342 928.5,-750.342 928.5,-850.342"/>
<text text-anchor="middle" x="878.5" y="-799.142" font-family="Times,serif" font-size="4.00">pr_ea1303dd&#45;972c&#45;41c1&#45;8bfd&#45;23abe3296ae5</text>
</g>
<!-- MAPK14&#45;&gt;pr_ea1303dd&#45;972c&#45;41c1&#45;8bfd&#45;23abe3296ae5 -->
<g id="edge41" class="edge"><title>MAPK14&#45;&gt;pr_ea1303dd&#45;972c&#45;41c1&#45;8bfd&#45;23abe3296ae5</title>
<path fill="none" stroke="black" d="M850.863,-886.039C852.007,-878.699 853.91,-869.673 856.222,-860.279"/>
<polygon fill="black" stroke="black" points="859.659,-860.968 858.765,-850.411 852.88,-859.221 859.659,-860.968"/>
</g>
<!-- CASP7 -->
<g id="node25" class="node"><title>CASP7</title>
<ellipse fill="none" stroke="black" cx="197.5" cy="-692.598" rx="18" ry="18"/>
<text text-anchor="middle" x="197.5" y="-691.398" font-family="Times,serif" font-size="4.00">CASP7</text>
</g>
<!-- CASP7&#45;&gt;pr_71668197&#45;f9b7&#45;4311&#45;b7a0&#45;f2af26417c63 -->
<g id="edge42" class="edge"><title>CASP7&#45;&gt;pr_71668197&#45;f9b7&#45;4311&#45;b7a0&#45;f2af26417c63</title>
<path fill="none" stroke="black" d="M202.537,-709.896C203.523,-718.476 204.083,-729.576 204.218,-741.021"/>
<polygon fill="black" stroke="black" points="200.718,-741.115 204.227,-751.112 207.718,-741.108 200.718,-741.115"/>
</g>
<!-- pr_71668197&#45;f9b7&#45;4311&#45;b7a0&#45;f2af26417c63&#45;&gt;CASP7 -->
<g id="edge43" class="edge"><title>pr_71668197&#45;f9b7&#45;4311&#45;b7a0&#45;f2af26417c63&#45;&gt;CASP7</title>
<path fill="none" stroke="black" d="M190.773,-751.112C190.667,-740.463 190.928,-729.561 191.556,-720.151"/>
<polygon fill="black" stroke="black" points="195.069,-720.165 192.463,-709.896 188.096,-719.549 195.069,-720.165"/>
</g>
<!-- pr_c042e8c6&#45;838f&#45;481e&#45;97eb&#45;6c87cd9eac32&#45;&gt;AKT1 -->
<g id="edge44" class="edge"><title>pr_c042e8c6&#45;838f&#45;481e&#45;97eb&#45;6c87cd9eac32&#45;&gt;AKT1</title>
<path fill="none" stroke="black" d="M594.514,-850.381C578.99,-863.853 562.626,-877.507 549.781,-887.576"/>
<polygon fill="black" stroke="black" points="547.305,-885.064 541.503,-893.929 551.567,-890.617 547.305,-885.064"/>
</g>
<!-- M -->
<g id="node28" class="node"><title>M</title>
<ellipse fill="none" stroke="black" cx="644.5" cy="-904.342" rx="18" ry="18"/>
<text text-anchor="middle" x="644.5" y="-903.142" font-family="Times,serif" font-size="4.00">M</text>
</g>
<!-- M&#45;&gt;pr_c042e8c6&#45;838f&#45;481e&#45;97eb&#45;6c87cd9eac32 -->
<g id="edge45" class="edge"><title>M&#45;&gt;pr_c042e8c6&#45;838f&#45;481e&#45;97eb&#45;6c87cd9eac32</title>
<path fill="none" stroke="black" d="M644.5,-886.039C644.5,-878.776 644.5,-869.863 644.5,-860.576"/>
<polygon fill="black" stroke="black" points="648,-860.411 644.5,-850.411 641,-860.411 648,-860.411"/>
</g>
<!-- pr_d0b534ec&#45;0e8b&#45;47f1&#45;9cdd&#45;530477966c39&#45;&gt;TRADD/FADD -->
<g id="edge46" class="edge"><title>pr_d0b534ec&#45;0e8b&#45;47f1&#45;9cdd&#45;530477966c39&#45;&gt;TRADD/FADD</title>
<path fill="none" stroke="black" d="M122.074,-1177.74C120.934,-1169 119.774,-1160.11 118.716,-1152"/>
<polygon fill="black" stroke="black" points="122.157,-1151.32 117.393,-1141.85 115.216,-1152.22 122.157,-1151.32"/>
</g>
<!-- TRADD -->
<g id="node30" class="node"><title>TRADD</title>
<ellipse fill="none" stroke="black" cx="188.5" cy="-1338.41" rx="18" ry="18"/>
<text text-anchor="middle" x="188.5" y="-1337.21" font-family="Times,serif" font-size="4.00">TRADD</text>
</g>
<!-- TRADD&#45;&gt;pr_d0b534ec&#45;0e8b&#45;47f1&#45;9cdd&#45;530477966c39 -->
<g id="edge47" class="edge"><title>TRADD&#45;&gt;pr_d0b534ec&#45;0e8b&#45;47f1&#45;9cdd&#45;530477966c39</title>
<path fill="none" stroke="black" d="M180.157,-1322.33C174.977,-1312.98 167.952,-1300.28 160.753,-1287.28"/>
<polygon fill="black" stroke="black" points="163.667,-1285.32 155.762,-1278.26 157.543,-1288.71 163.667,-1285.32"/>
</g>
<!-- TNF/TNFRSF1A -->
<g id="node31" class="node"><title>TNF/TNFRSF1A</title>
<ellipse fill="none" stroke="black" cx="128.5" cy="-1338.41" rx="24.2908" ry="24.2908"/>
<text text-anchor="middle" x="128.5" y="-1337.21" font-family="Times,serif" font-size="4.00">TNF/TNFRSF1A</text>
</g>
<!-- TNF/TNFRSF1A&#45;&gt;pr_d0b534ec&#45;0e8b&#45;47f1&#45;9cdd&#45;530477966c39 -->
<g id="edge48" class="edge"><title>TNF/TNFRSF1A&#45;&gt;pr_d0b534ec&#45;0e8b&#45;47f1&#45;9cdd&#45;530477966c39</title>
<path fill="none" stroke="black" d="M128.5,-1313.89C128.5,-1306.29 128.5,-1297.49 128.5,-1288.49"/>
<polygon fill="black" stroke="black" points="132,-1288.3 128.5,-1278.3 125,-1288.3 132,-1288.3"/>
</g>
<!-- pr_ea1303dd&#45;972c&#45;41c1&#45;8bfd&#45;23abe3296ae5&#45;&gt;MAPK14 -->
<g id="edge49" class="edge"><title>pr_ea1303dd&#45;972c&#45;41c1&#45;8bfd&#45;23abe3296ae5&#45;&gt;MAPK14</title>
<path fill="none" stroke="black" d="M872.215,-850.572C869.671,-860.334 866.773,-870.183 863.903,-878.685"/>
<polygon fill="black" stroke="black" points="860.538,-877.697 860.439,-888.291 867.123,-880.071 860.538,-877.697"/>
</g>
<!-- Orf3a -->
<g id="node33" class="node"><title>Orf3a</title>
<ellipse fill="none" stroke="black" cx="905.5" cy="-904.342" rx="18" ry="18"/>
<text text-anchor="middle" x="905.5" y="-903.142" font-family="Times,serif" font-size="4.00">Orf3a</text>
</g>
<!-- Orf3a&#45;&gt;pr_ea1303dd&#45;972c&#45;41c1&#45;8bfd&#45;23abe3296ae5 -->
<g id="edge50" class="edge"><title>Orf3a&#45;&gt;pr_ea1303dd&#45;972c&#45;41c1&#45;8bfd&#45;23abe3296ae5</title>
<path fill="none" stroke="black" d="M901.041,-886.498C899.064,-879.029 896.608,-869.751 894.052,-860.094"/>
<polygon fill="black" stroke="black" points="897.419,-859.134 891.476,-850.362 890.652,-860.925 897.419,-859.134"/>
</g>
<!-- pr_f34ba163&#45;1cc8&#45;4368&#45;a5ed&#45;ec6244aed521&#45;&gt;BAD/BBC3/BCL2L11 -->
<g id="edge51" class="edge"><title>pr_f34ba163&#45;1cc8&#45;4368&#45;a5ed&#45;ec6244aed521&#45;&gt;BAD/BBC3/BCL2L11</title>
<path fill="none" stroke="black" d="M468.809,-302.351C468.68,-293.678 468.762,-284.753 469.055,-276.398"/>
<polygon fill="black" stroke="black" points="472.562,-276.337 469.54,-266.183 465.57,-276.006 472.562,-276.337"/>
</g>
<!-- pr_ba91cec5&#45;d339&#45;4497&#45;9a8c&#45;954d18679877&#45;&gt;BCL2/MCL1/BCL2L1 -->
<g id="edge52" class="edge"><title>pr_ba91cec5&#45;d339&#45;4497&#45;9a8c&#45;954d18679877&#45;&gt;BCL2/MCL1/BCL2L1</title>
<path fill="none" stroke="black" d="M546.8,-533.598C546.681,-524.892 546.775,-515.954 547.08,-507.613"/>
<polygon fill="black" stroke="black" points="550.586,-507.588 547.582,-497.428 543.594,-507.244 550.586,-507.588"/>
</g>
<!-- Orf7a -->
<g id="node36" class="node"><title>Orf7a</title>
<ellipse fill="none" stroke="black" cx="580.5" cy="-692.598" rx="18" ry="18"/>
<text text-anchor="middle" x="580.5" y="-691.398" font-family="Times,serif" font-size="4.00">Orf7a</text>
</g>
<!-- Orf7a&#45;&gt;pr_ba91cec5&#45;d339&#45;4497&#45;9a8c&#45;954d18679877 -->
<g id="edge53" class="edge"><title>Orf7a&#45;&gt;pr_ba91cec5&#45;d339&#45;4497&#45;9a8c&#45;954d18679877</title>
<path fill="none" stroke="black" d="M576.281,-674.998C574.148,-666.602 571.414,-655.847 568.587,-644.722"/>
<polygon fill="black" stroke="black" points="571.946,-643.729 566.091,-634.899 565.162,-645.453 571.946,-643.729"/>
</g>
<!-- E -->
<g id="node37" class="node"><title>E</title>
<ellipse fill="none" stroke="black" cx="634.5" cy="-692.598" rx="18" ry="18"/>
<text text-anchor="middle" x="634.5" y="-691.398" font-family="Times,serif" font-size="4.00">E</text>
</g>
<!-- E&#45;&gt;pr_ba91cec5&#45;d339&#45;4497&#45;9a8c&#45;954d18679877 -->
<g id="edge54" class="edge"><title>E&#45;&gt;pr_ba91cec5&#45;d339&#45;4497&#45;9a8c&#45;954d18679877</title>
<path fill="none" stroke="black" d="M623.911,-677.709C616.95,-668.579 607.327,-655.956 597.428,-642.973"/>
<polygon fill="black" stroke="black" points="600.097,-640.701 591.251,-634.87 594.53,-644.945 600.097,-640.701"/>
</g>
<!-- BAD -->
<g id="node38" class="node"><title>BAD</title>
<ellipse fill="none" stroke="black" cx="526.5" cy="-692.598" rx="18" ry="18"/>
<text text-anchor="middle" x="526.5" y="-691.398" font-family="Times,serif" font-size="4.00">BAD</text>
</g>
<!-- BAD&#45;&gt;pr_ba91cec5&#45;d339&#45;4497&#45;9a8c&#45;954d18679877 -->
<g id="edge55" class="edge"><title>BAD&#45;&gt;pr_ba91cec5&#45;d339&#45;4497&#45;9a8c&#45;954d18679877</title>
<path fill="none" stroke="black" d="M530.719,-674.998C532.852,-666.602 535.586,-655.847 538.413,-644.722"/>
<polygon fill="black" stroke="black" points="541.838,-645.453 540.909,-634.899 535.054,-643.729 541.838,-645.453"/>
</g>
<!-- BAD&#45;&gt;pr_9ec39d31&#45;9af2&#45;4e5b&#45;8c25&#45;0a18a1b1e3b9 -->
<g id="edge56" class="edge"><title>BAD&#45;&gt;pr_9ec39d31&#45;9af2&#45;4e5b&#45;8c25&#45;0a18a1b1e3b9</title>
<path fill="none" stroke="black" d="M531.555,-710.055C532.501,-718.361 533.051,-728.999 533.205,-740.016"/>
<polygon fill="black" stroke="black" points="529.706,-740.195 533.235,-750.185 536.705,-740.174 529.706,-740.195"/>
</g>
<!-- TNFRSF1A -->
<g id="node39" class="node"><title>TNFRSF1A</title>
<ellipse fill="none" stroke="black" cx="195.5" cy="-1554.42" rx="19.7452" ry="19.7452"/>
<text text-anchor="middle" x="195.5" y="-1553.22" font-family="Times,serif" font-size="4.00">TNFRSF1A</text>
</g>
<!-- pr_2b6c9321&#45;b6ac&#45;4a24&#45;afa4&#45;0899296ff997 -->
<g id="node40" class="node"><title>pr_2b6c9321&#45;b6ac&#45;4a24&#45;afa4&#45;0899296ff997</title>
<polygon fill="none" stroke="black" points="216.5,-1497.8 118.5,-1497.8 118.5,-1399.8 216.5,-1399.8 216.5,-1497.8"/>
<text text-anchor="middle" x="167.5" y="-1447.6" font-family="Times,serif" font-size="4.00">pr_2b6c9321&#45;b6ac&#45;4a24&#45;afa4&#45;0899296ff997</text>
</g>
<!-- TNFRSF1A&#45;&gt;pr_2b6c9321&#45;b6ac&#45;4a24&#45;afa4&#45;0899296ff997 -->
<g id="edge57" class="edge"><title>TNFRSF1A&#45;&gt;pr_2b6c9321&#45;b6ac&#45;4a24&#45;afa4&#45;0899296ff997</title>
<path fill="none" stroke="black" d="M190.623,-1535.37C188.486,-1527.46 185.846,-1517.7 183.123,-1507.62"/>
<polygon fill="black" stroke="black" points="186.488,-1506.66 180.501,-1497.92 179.731,-1508.48 186.488,-1506.66"/>
</g>
<!-- pr_2b6c9321&#45;b6ac&#45;4a24&#45;afa4&#45;0899296ff997&#45;&gt;TNF/TNFRSF1A -->
<g id="edge58" class="edge"><title>pr_2b6c9321&#45;b6ac&#45;4a24&#45;afa4&#45;0899296ff997&#45;&gt;TNF/TNFRSF1A</title>
<path fill="none" stroke="black" d="M150.167,-1399.63C146.708,-1390.01 143.157,-1380.14 139.957,-1371.25"/>
<polygon fill="black" stroke="black" points="143.195,-1369.91 136.516,-1361.69 136.608,-1372.28 143.195,-1369.91"/>
</g>
<!-- TNF -->
<g id="node41" class="node"><title>TNF</title>
<ellipse fill="none" stroke="black" cx="139.5" cy="-1554.42" rx="18" ry="18"/>
<text text-anchor="middle" x="139.5" y="-1553.22" font-family="Times,serif" font-size="4.00">TNF</text>
</g>
<!-- TNF&#45;&gt;pr_2b6c9321&#45;b6ac&#45;4a24&#45;afa4&#45;0899296ff997 -->
<g id="edge59" class="edge"><title>TNF&#45;&gt;pr_2b6c9321&#45;b6ac&#45;4a24&#45;afa4&#45;0899296ff997</title>
<path fill="none" stroke="black" d="M143.999,-1536.77C146.176,-1528.72 148.935,-1518.51 151.79,-1507.94"/>
<polygon fill="black" stroke="black" points="155.195,-1508.76 154.425,-1498.19 148.437,-1506.93 155.195,-1508.76"/>
</g>
<!-- pr_5f14dd8b&#45;9ac4&#45;4945&#45;9232&#45;c7ee6209b6e1&#45;&gt;Apoptosome -->
<g id="edge60" class="edge"><title>pr_5f14dd8b&#45;9ac4&#45;4945&#45;9232&#45;c7ee6209b6e1&#45;&gt;Apoptosome</title>
<path fill="none" stroke="black" d="M363.992,-750.185C362.83,-741.409 361.65,-732.497 360.581,-724.421"/>
<polygon fill="black" stroke="black" points="364.032,-723.822 359.25,-714.367 357.093,-724.74 364.032,-723.822"/>
</g>
<!-- APAF1 -->
<g id="node43" class="node"><title>APAF1</title>
<ellipse fill="none" stroke="black" cx="370.5" cy="-904.342" rx="18" ry="18"/>
<text text-anchor="middle" x="370.5" y="-903.142" font-family="Times,serif" font-size="4.00">APAF1</text>
</g>
<!-- APAF1&#45;&gt;pr_5f14dd8b&#45;9ac4&#45;4945&#45;9232&#45;c7ee6209b6e1 -->
<g id="edge61" class="edge"><title>APAF1&#45;&gt;pr_5f14dd8b&#45;9ac4&#45;4945&#45;9232&#45;c7ee6209b6e1</title>
<path fill="none" stroke="black" d="M370.5,-886.039C370.5,-878.776 370.5,-869.863 370.5,-860.576"/>
<polygon fill="black" stroke="black" points="374,-860.411 370.5,-850.411 367,-860.411 374,-860.411"/>
</g>
<!-- pr_9ec39d31&#45;9af2&#45;4e5b&#45;8c25&#45;0a18a1b1e3b9&#45;&gt;BAD -->
<g id="edge62" class="edge"><title>pr_9ec39d31&#45;9af2&#45;4e5b&#45;8c25&#45;0a18a1b1e3b9&#45;&gt;BAD</title>
<path fill="none" stroke="black" d="M519.765,-750.185C519.682,-739.796 519.948,-729.214 520.563,-720.056"/>
<polygon fill="black" stroke="black" points="524.053,-720.324 521.445,-710.055 517.08,-719.709 524.053,-720.324"/>
</g>
</g>
</svg>
