<?xml version="1.0" encoding="UTF-8" standalone="no"?>
<!DOCTYPE svg PUBLIC "-//W3C//DTD SVG 1.1//EN"
 "http://www.w3.org/Graphics/SVG/1.1/DTD/svg11.dtd">
<!-- Generated by graphviz version 2.38.0 (20140413.2041)
 -->
<!-- Title: G Pages: 1 -->
<svg width="737pt" height="1343pt"
 viewBox="0.00 0.00 736.50 1343.16" xmlns="http://www.w3.org/2000/svg" xmlns:xlink="http://www.w3.org/1999/xlink">
<g id="graph0" class="graph" transform="scale(1 1) rotate(0) translate(4 1339.16)">
<title>G</title>
<polygon fill="white" stroke="none" points="-4,4 -4,-1339.16 732.5,-1339.16 732.5,4 -4,4"/>
<!-- FASL -->
<g id="node1" class="node"><title>FASL</title>
<ellipse fill="none" stroke="black" cx="203" cy="-1317.16" rx="18" ry="18"/>
<text text-anchor="middle" x="203" y="-1315.96" font-family="Times,serif" font-size="4.00">FASL</text>
</g>
<!-- pr_c200c2dc&#45;1ba0&#45;48c7&#45;8b93&#45;affe74482caa -->
<g id="node2" class="node"><title>pr_c200c2dc&#45;1ba0&#45;48c7&#45;8b93&#45;affe74482caa</title>
<polygon fill="none" stroke="black" points="279.5,-1263.16 180.5,-1263.16 180.5,-1164.16 279.5,-1164.16 279.5,-1263.16"/>
<text text-anchor="middle" x="230" y="-1212.46" font-family="Times,serif" font-size="4.00">pr_c200c2dc&#45;1ba0&#45;48c7&#45;8b93&#45;affe74482caa</text>
</g>
<!-- FASL&#45;&gt;pr_c200c2dc&#45;1ba0&#45;48c7&#45;8b93&#45;affe74482caa -->
<g id="edge1" class="edge"><title>FASL&#45;&gt;pr_c200c2dc&#45;1ba0&#45;48c7&#45;8b93&#45;affe74482caa</title>
<path fill="none" stroke="black" d="M207.459,-1299.4C209.436,-1291.97 211.892,-1282.74 214.448,-1273.13"/>
<polygon fill="black" stroke="black" points="217.836,-1274.01 217.024,-1263.44 211.071,-1272.21 217.836,-1274.01"/>
</g>
<!-- FAS/FASL -->
<g id="node4" class="node"><title>FAS/FASL</title>
<ellipse fill="none" stroke="black" cx="230" cy="-1109.6" rx="18.6233" ry="18.6233"/>
<text text-anchor="middle" x="230" y="-1108.4" font-family="Times,serif" font-size="4.00">FAS/FASL</text>
</g>
<!-- pr_c200c2dc&#45;1ba0&#45;48c7&#45;8b93&#45;affe74482caa&#45;&gt;FAS/FASL -->
<g id="edge2" class="edge"><title>pr_c200c2dc&#45;1ba0&#45;48c7&#45;8b93&#45;affe74482caa&#45;&gt;FAS/FASL</title>
<path fill="none" stroke="black" d="M230,-1164.02C230,-1155.27 230,-1146.42 230,-1138.51"/>
<polygon fill="black" stroke="black" points="233.5,-1138.41 230,-1128.41 226.5,-1138.41 233.5,-1138.41"/>
</g>
<!-- FAS -->
<g id="node3" class="node"><title>FAS</title>
<ellipse fill="none" stroke="black" cx="257" cy="-1317.16" rx="18" ry="18"/>
<text text-anchor="middle" x="257" y="-1315.96" font-family="Times,serif" font-size="4.00">FAS</text>
</g>
<!-- FAS&#45;&gt;pr_c200c2dc&#45;1ba0&#45;48c7&#45;8b93&#45;affe74482caa -->
<g id="edge3" class="edge"><title>FAS&#45;&gt;pr_c200c2dc&#45;1ba0&#45;48c7&#45;8b93&#45;affe74482caa</title>
<path fill="none" stroke="black" d="M252.541,-1299.4C250.564,-1291.97 248.108,-1282.74 245.552,-1273.13"/>
<polygon fill="black" stroke="black" points="248.929,-1272.21 242.976,-1263.44 242.164,-1274.01 248.929,-1272.21"/>
</g>
<!-- pr_e6d747ec&#45;ac19&#45;4d75&#45;9d24&#45;8933dbe5ddbc -->
<g id="node10" class="node"><title>pr_e6d747ec&#45;ac19&#45;4d75&#45;9d24&#45;8933dbe5ddbc</title>
<polygon fill="none" stroke="black" points="280.5,-1055.04 179.5,-1055.04 179.5,-954.04 280.5,-954.04 280.5,-1055.04"/>
<text text-anchor="middle" x="230" y="-1003.34" font-family="Times,serif" font-size="4.00">pr_e6d747ec&#45;ac19&#45;4d75&#45;9d24&#45;8933dbe5ddbc</text>
</g>
<!-- FAS/FASL&#45;&gt;pr_e6d747ec&#45;ac19&#45;4d75&#45;9d24&#45;8933dbe5ddbc -->
<g id="edge4" class="edge"><title>FAS/FASL&#45;&gt;pr_e6d747ec&#45;ac19&#45;4d75&#45;9d24&#45;8933dbe5ddbc</title>
<path fill="none" stroke="black" d="M230,-1090.65C230,-1083.37 230,-1074.49 230,-1065.26"/>
<polygon fill="black" stroke="black" points="233.5,-1065.17 230,-1055.17 226.5,-1065.17 233.5,-1065.17"/>
</g>
<!-- TNFA -->
<g id="node5" class="node"><title>TNFA</title>
<ellipse fill="none" stroke="black" cx="139" cy="-1109.6" rx="18" ry="18"/>
<text text-anchor="middle" x="139" y="-1108.4" font-family="Times,serif" font-size="4.00">TNFA</text>
</g>
<!-- pr_f27e141e&#45;af43&#45;4b3f&#45;bad9&#45;a6dedde62756 -->
<g id="node6" class="node"><title>pr_f27e141e&#45;af43&#45;4b3f&#45;bad9&#45;a6dedde62756</title>
<polygon fill="none" stroke="black" points="161,-1053.54 63,-1053.54 63,-955.54 161,-955.54 161,-1053.54"/>
<text text-anchor="middle" x="112" y="-1003.34" font-family="Times,serif" font-size="4.00">pr_f27e141e&#45;af43&#45;4b3f&#45;bad9&#45;a6dedde62756</text>
</g>
<!-- TNFA&#45;&gt;pr_f27e141e&#45;af43&#45;4b3f&#45;bad9&#45;a6dedde62756 -->
<g id="edge5" class="edge"><title>TNFA&#45;&gt;pr_f27e141e&#45;af43&#45;4b3f&#45;bad9&#45;a6dedde62756</title>
<path fill="none" stroke="black" d="M134.662,-1092.04C132.562,-1084.03 129.902,-1073.87 127.149,-1063.37"/>
<polygon fill="black" stroke="black" points="130.528,-1062.45 124.608,-1053.67 123.757,-1064.23 130.528,-1062.45"/>
</g>
<!-- TNFA/TNFR1 -->
<g id="node8" class="node"><title>TNFA/TNFR1</title>
<ellipse fill="none" stroke="black" cx="152" cy="-896.297" rx="21.9898" ry="21.9898"/>
<text text-anchor="middle" x="152" y="-895.097" font-family="Times,serif" font-size="4.00">TNFA/TNFR1</text>
</g>
<!-- pr_f27e141e&#45;af43&#45;4b3f&#45;bad9&#45;a6dedde62756&#45;&gt;TNFA/TNFR1 -->
<g id="edge6" class="edge"><title>pr_f27e141e&#45;af43&#45;4b3f&#45;bad9&#45;a6dedde62756&#45;&gt;TNFA/TNFR1</title>
<path fill="none" stroke="black" d="M130.127,-955.392C133.852,-945.499 137.664,-935.374 141.041,-926.406"/>
<polygon fill="black" stroke="black" points="144.392,-927.437 144.64,-916.845 137.841,-924.971 144.392,-927.437"/>
</g>
<!-- TNFR1 -->
<g id="node7" class="node"><title>TNFR1</title>
<ellipse fill="none" stroke="black" cx="85" cy="-1109.6" rx="18" ry="18"/>
<text text-anchor="middle" x="85" y="-1108.4" font-family="Times,serif" font-size="4.00">TNFR1</text>
</g>
<!-- TNFR1&#45;&gt;pr_f27e141e&#45;af43&#45;4b3f&#45;bad9&#45;a6dedde62756 -->
<g id="edge7" class="edge"><title>TNFR1&#45;&gt;pr_f27e141e&#45;af43&#45;4b3f&#45;bad9&#45;a6dedde62756</title>
<path fill="none" stroke="black" d="M89.338,-1092.04C91.438,-1084.03 94.098,-1073.87 96.8509,-1063.37"/>
<polygon fill="black" stroke="black" points="100.243,-1064.23 99.3918,-1053.67 93.4717,-1062.45 100.243,-1064.23"/>
</g>
<!-- pr_c1c51058&#45;0cbd&#45;456e&#45;a9d2&#45;2ef713dbb308 -->
<g id="node36" class="node"><title>pr_c1c51058&#45;0cbd&#45;456e&#45;a9d2&#45;2ef713dbb308</title>
<polygon fill="none" stroke="black" points="202,-838.553 102,-838.553 102,-738.553 202,-738.553 202,-838.553"/>
<text text-anchor="middle" x="152" y="-787.353" font-family="Times,serif" font-size="4.00">pr_c1c51058&#45;0cbd&#45;456e&#45;a9d2&#45;2ef713dbb308</text>
</g>
<!-- TNFA/TNFR1&#45;&gt;pr_c1c51058&#45;0cbd&#45;456e&#45;a9d2&#45;2ef713dbb308 -->
<g id="edge8" class="edge"><title>TNFA/TNFR1&#45;&gt;pr_c1c51058&#45;0cbd&#45;456e&#45;a9d2&#45;2ef713dbb308</title>
<path fill="none" stroke="black" d="M152,-874.405C152,-866.971 152,-858.185 152,-849.133"/>
<polygon fill="black" stroke="black" points="155.5,-848.857 152,-838.857 148.5,-848.857 155.5,-848.857"/>
</g>
<!-- FADD -->
<g id="node9" class="node"><title>FADD</title>
<ellipse fill="none" stroke="black" cx="230" cy="-896.297" rx="18" ry="18"/>
<text text-anchor="middle" x="230" y="-895.097" font-family="Times,serif" font-size="4.00">FADD</text>
</g>
<!-- FADD&#45;&gt;pr_e6d747ec&#45;ac19&#45;4d75&#45;9d24&#45;8933dbe5ddbc -->
<g id="edge9" class="edge"><title>FADD&#45;&gt;pr_e6d747ec&#45;ac19&#45;4d75&#45;9d24&#45;8933dbe5ddbc</title>
<path fill="none" stroke="black" d="M235.042,-913.721C235.988,-922.014 236.541,-932.641 236.701,-943.663"/>
<polygon fill="black" stroke="black" points="233.202,-943.853 236.738,-953.84 240.202,-943.828 233.202,-943.853"/>
</g>
<!-- pr_23f8d3bf&#45;b68f&#45;47fd&#45;974a&#45;c30808c44940 -->
<g id="node12" class="node"><title>pr_23f8d3bf&#45;b68f&#45;47fd&#45;974a&#45;c30808c44940</title>
<polygon fill="none" stroke="black" points="216,-618.384 118,-618.384 118,-520.384 216,-520.384 216,-618.384"/>
<text text-anchor="middle" x="167" y="-568.184" font-family="Times,serif" font-size="4.00">pr_23f8d3bf&#45;b68f&#45;47fd&#45;974a&#45;c30808c44940</text>
</g>
<!-- FADD&#45;&gt;pr_23f8d3bf&#45;b68f&#45;47fd&#45;974a&#45;c30808c44940 -->
<g id="edge10" class="edge"><title>FADD&#45;&gt;pr_23f8d3bf&#45;b68f&#45;47fd&#45;974a&#45;c30808c44940</title>
<path fill="none" stroke="black" d="M228.529,-878.278C225.902,-849.407 219.837,-789.045 211,-738.553 204.5,-701.418 201.516,-692.363 192,-655.884 189.678,-646.983 187.085,-637.601 184.473,-628.444"/>
<polygon fill="black" stroke="black" points="187.776,-627.268 181.642,-618.629 181.05,-629.207 187.776,-627.268"/>
</g>
<!-- FADD&#45;&gt;pr_c1c51058&#45;0cbd&#45;456e&#45;a9d2&#45;2ef713dbb308 -->
<g id="edge11" class="edge"><title>FADD&#45;&gt;pr_c1c51058&#45;0cbd&#45;456e&#45;a9d2&#45;2ef713dbb308</title>
<path fill="none" stroke="black" d="M219.481,-881.036C212.863,-872.064 203.84,-859.832 194.546,-847.232"/>
<polygon fill="black" stroke="black" points="197.175,-844.9 188.422,-838.93 191.541,-849.055 197.175,-844.9"/>
</g>
<!-- pr_e6d747ec&#45;ac19&#45;4d75&#45;9d24&#45;8933dbe5ddbc&#45;&gt;FADD -->
<g id="edge12" class="edge"><title>pr_e6d747ec&#45;ac19&#45;4d75&#45;9d24&#45;8933dbe5ddbc&#45;&gt;FADD</title>
<path fill="none" stroke="black" d="M223.262,-953.84C223.187,-943.437 223.457,-932.859 224.074,-923.709"/>
<polygon fill="black" stroke="black" points="227.563,-923.99 224.958,-913.721 220.59,-923.373 227.563,-923.99"/>
</g>
<!-- CASP8 -->
<g id="node11" class="node"><title>CASP8</title>
<ellipse fill="none" stroke="black" cx="167" cy="-461.141" rx="18" ry="18"/>
<text text-anchor="middle" x="167" y="-459.941" font-family="Times,serif" font-size="4.00">CASP8</text>
</g>
<!-- CASP8&#45;&gt;pr_23f8d3bf&#45;b68f&#45;47fd&#45;974a&#45;c30808c44940 -->
<g id="edge13" class="edge"><title>CASP8&#45;&gt;pr_23f8d3bf&#45;b68f&#45;47fd&#45;974a&#45;c30808c44940</title>
<path fill="none" stroke="black" d="M172.049,-478.624C173.035,-487.299 173.593,-498.514 173.721,-510.06"/>
<polygon fill="black" stroke="black" points="170.221,-510.237 173.724,-520.236 177.221,-510.235 170.221,-510.237"/>
</g>
<!-- pr_b03ffef5&#45;dd35&#45;4c74&#45;8de7&#45;860317dbb0bf -->
<g id="node15" class="node"><title>pr_b03ffef5&#45;dd35&#45;4c74&#45;8de7&#45;860317dbb0bf</title>
<polygon fill="none" stroke="black" points="216,-402.397 118,-402.397 118,-304.397 216,-304.397 216,-402.397"/>
<text text-anchor="middle" x="167" y="-352.197" font-family="Times,serif" font-size="4.00">pr_b03ffef5&#45;dd35&#45;4c74&#45;8de7&#45;860317dbb0bf</text>
</g>
<!-- CASP8&#45;&gt;pr_b03ffef5&#45;dd35&#45;4c74&#45;8de7&#45;860317dbb0bf -->
<g id="edge14" class="edge"><title>CASP8&#45;&gt;pr_b03ffef5&#45;dd35&#45;4c74&#45;8de7&#45;860317dbb0bf</title>
<path fill="none" stroke="black" d="M167,-442.679C167,-434.236 167,-423.562 167,-412.58"/>
<polygon fill="black" stroke="black" points="170.5,-412.463 167,-402.463 163.5,-412.463 170.5,-412.463"/>
</g>
<!-- pr_6530007f&#45;3cd5&#45;482a&#45;abda&#45;5a6e7b9a01e2 -->
<g id="node21" class="node"><title>pr_6530007f&#45;3cd5&#45;482a&#45;abda&#45;5a6e7b9a01e2</title>
<polygon fill="none" stroke="black" points="100,-403.397 0,-403.397 0,-303.397 100,-303.397 100,-403.397"/>
<text text-anchor="middle" x="50" y="-352.197" font-family="Times,serif" font-size="4.00">pr_6530007f&#45;3cd5&#45;482a&#45;abda&#45;5a6e7b9a01e2</text>
</g>
<!-- CASP8&#45;&gt;pr_6530007f&#45;3cd5&#45;482a&#45;abda&#45;5a6e7b9a01e2 -->
<g id="edge15" class="edge"><title>CASP8&#45;&gt;pr_6530007f&#45;3cd5&#45;482a&#45;abda&#45;5a6e7b9a01e2</title>
<path fill="none" stroke="black" d="M154.032,-448.42C142.579,-438.069 125.032,-422.21 107.593,-406.449"/>
<polygon fill="black" stroke="black" points="109.909,-403.825 100.144,-399.716 105.216,-409.018 109.909,-403.825"/>
</g>
<!-- pr_ed24c7ed&#45;11e2&#45;4c9b&#45;8794&#45;2d9effdba3ab -->
<g id="node33" class="node"><title>pr_ed24c7ed&#45;11e2&#45;4c9b&#45;8794&#45;2d9effdba3ab</title>
<polygon fill="none" stroke="black" points="333.5,-402.897 234.5,-402.897 234.5,-303.897 333.5,-303.897 333.5,-402.897"/>
<text text-anchor="middle" x="284" y="-352.197" font-family="Times,serif" font-size="4.00">pr_ed24c7ed&#45;11e2&#45;4c9b&#45;8794&#45;2d9effdba3ab</text>
</g>
<!-- CASP8&#45;&gt;pr_ed24c7ed&#45;11e2&#45;4c9b&#45;8794&#45;2d9effdba3ab -->
<g id="edge16" class="edge"><title>CASP8&#45;&gt;pr_ed24c7ed&#45;11e2&#45;4c9b&#45;8794&#45;2d9effdba3ab</title>
<path fill="none" stroke="black" d="M179.968,-448.42C191.525,-437.975 209.287,-421.921 226.883,-406.019"/>
<polygon fill="black" stroke="black" points="229.323,-408.532 234.395,-399.23 224.629,-403.338 229.323,-408.532"/>
</g>
<!-- pr_23f8d3bf&#45;b68f&#45;47fd&#45;974a&#45;c30808c44940&#45;&gt;CASP8 -->
<g id="edge17" class="edge"><title>pr_23f8d3bf&#45;b68f&#45;47fd&#45;974a&#45;c30808c44940&#45;&gt;CASP8</title>
<path fill="none" stroke="black" d="M160.276,-520.236C160.161,-509.386 160.424,-498.256 161.066,-488.679"/>
<polygon fill="black" stroke="black" points="164.56,-488.893 161.951,-478.624 157.587,-488.279 164.56,-488.893"/>
</g>
<!-- TRADD/FADD -->
<g id="node13" class="node"><title>TRADD/FADD</title>
<ellipse fill="none" stroke="black" cx="160" cy="-679.219" rx="23.1702" ry="23.1702"/>
<text text-anchor="middle" x="160" y="-678.019" font-family="Times,serif" font-size="4.00">TRADD/FADD</text>
</g>
<!-- TRADD/FADD&#45;&gt;pr_23f8d3bf&#45;b68f&#45;47fd&#45;974a&#45;c30808c44940 -->
<g id="edge18" class="edge"><title>TRADD/FADD&#45;&gt;pr_23f8d3bf&#45;b68f&#45;47fd&#45;974a&#45;c30808c44940</title>
<path fill="none" stroke="black" d="M161.45,-655.875C161.974,-647.817 162.591,-638.306 163.22,-628.608"/>
<polygon fill="black" stroke="black" points="166.722,-628.692 163.877,-618.487 159.737,-628.239 166.722,-628.692"/>
</g>
<!-- CASP3 -->
<g id="node14" class="node"><title>CASP3</title>
<ellipse fill="none" stroke="black" cx="167" cy="-237.698" rx="18" ry="18"/>
<text text-anchor="middle" x="167" y="-236.498" font-family="Times,serif" font-size="4.00">CASP3</text>
</g>
<!-- CASP3&#45;&gt;pr_b03ffef5&#45;dd35&#45;4c74&#45;8de7&#45;860317dbb0bf -->
<g id="edge19" class="edge"><title>CASP3&#45;&gt;pr_b03ffef5&#45;dd35&#45;4c74&#45;8de7&#45;860317dbb0bf</title>
<path fill="none" stroke="black" d="M171.908,-255.055C173.088,-265.432 173.701,-279.552 173.747,-293.817"/>
<polygon fill="black" stroke="black" points="170.245,-294.156 173.68,-304.179 177.245,-294.201 170.245,-294.156"/>
</g>
<!-- pr_b03ffef5&#45;dd35&#45;4c74&#45;8de7&#45;860317dbb0bf&#45;&gt;CASP3 -->
<g id="edge20" class="edge"><title>pr_b03ffef5&#45;dd35&#45;4c74&#45;8de7&#45;860317dbb0bf&#45;&gt;CASP3</title>
<path fill="none" stroke="black" d="M160.32,-304.179C160.104,-290.877 160.39,-276.931 161.18,-265.343"/>
<polygon fill="black" stroke="black" points="164.696,-265.325 162.092,-255.055 157.723,-264.707 164.696,-265.325"/>
</g>
<!-- CASP9 -->
<g id="node16" class="node"><title>CASP9</title>
<ellipse fill="none" stroke="black" cx="302" cy="-461.141" rx="18" ry="18"/>
<text text-anchor="middle" x="302" y="-459.941" font-family="Times,serif" font-size="4.00">CASP9</text>
</g>
<!-- CASP9&#45;&gt;pr_b03ffef5&#45;dd35&#45;4c74&#45;8de7&#45;860317dbb0bf -->
<g id="edge21" class="edge"><title>CASP9&#45;&gt;pr_b03ffef5&#45;dd35&#45;4c74&#45;8de7&#45;860317dbb0bf</title>
<path fill="none" stroke="black" d="M287.596,-449.961C271.964,-438.813 246.375,-420.272 225,-403.397 224.728,-403.183 224.456,-402.967 224.184,-402.752"/>
<polygon fill="black" stroke="black" points="226.166,-399.855 216.177,-396.324 221.784,-405.314 226.166,-399.855"/>
</g>
<!-- pr_3628c5cc&#45;d76c&#45;4e85&#45;8dfb&#45;60bf73e83786 -->
<g id="node17" class="node"><title>pr_3628c5cc&#45;d76c&#45;4e85&#45;8dfb&#45;60bf73e83786</title>
<polygon fill="none" stroke="black" points="450.5,-402.897 351.5,-402.897 351.5,-303.897 450.5,-303.897 450.5,-402.897"/>
<text text-anchor="middle" x="401" y="-352.197" font-family="Times,serif" font-size="4.00">pr_3628c5cc&#45;d76c&#45;4e85&#45;8dfb&#45;60bf73e83786</text>
</g>
<!-- CASP9&#45;&gt;pr_3628c5cc&#45;d76c&#45;4e85&#45;8dfb&#45;60bf73e83786 -->
<g id="edge22" class="edge"><title>CASP9&#45;&gt;pr_3628c5cc&#45;d76c&#45;4e85&#45;8dfb&#45;60bf73e83786</title>
<path fill="none" stroke="black" d="M310.921,-445.437C318.912,-435.574 331.065,-421.915 343.903,-408.175"/>
<polygon fill="black" stroke="black" points="346.771,-410.234 351.083,-400.557 341.677,-405.433 346.771,-410.234"/>
</g>
<!-- CASP9&#45;&gt;pr_ed24c7ed&#45;11e2&#45;4c9b&#45;8794&#45;2d9effdba3ab -->
<g id="edge23" class="edge"><title>CASP9&#45;&gt;pr_ed24c7ed&#45;11e2&#45;4c9b&#45;8794&#45;2d9effdba3ab</title>
<path fill="none" stroke="black" d="M299.108,-443.151C297.693,-434.837 295.896,-424.282 294.04,-413.376"/>
<polygon fill="black" stroke="black" points="297.456,-412.586 292.327,-403.315 290.555,-413.76 297.456,-412.586"/>
</g>
<!-- pr_3628c5cc&#45;d76c&#45;4e85&#45;8dfb&#45;60bf73e83786&#45;&gt;CASP9 -->
<g id="edge24" class="edge"><title>pr_3628c5cc&#45;d76c&#45;4e85&#45;8dfb&#45;60bf73e83786&#45;&gt;CASP9</title>
<path fill="none" stroke="black" d="M361.995,-403.25C348.878,-417.391 334.752,-431.919 323.436,-442.754"/>
<polygon fill="black" stroke="black" points="321.012,-440.229 316.098,-449.615 325.793,-445.342 321.012,-440.229"/>
</g>
<!-- Apoptosome -->
<g id="node18" class="node"><title>Apoptosome</title>
<ellipse fill="none" stroke="black" cx="430" cy="-461.141" rx="21.9898" ry="21.9898"/>
<text text-anchor="middle" x="430" y="-459.941" font-family="Times,serif" font-size="4.00">Apoptosome</text>
</g>
<!-- Apoptosome&#45;&gt;pr_3628c5cc&#45;d76c&#45;4e85&#45;8dfb&#45;60bf73e83786 -->
<g id="edge25" class="edge"><title>Apoptosome&#45;&gt;pr_3628c5cc&#45;d76c&#45;4e85&#45;8dfb&#45;60bf73e83786</title>
<path fill="none" stroke="black" d="M424.409,-439.752C422.261,-431.92 419.687,-422.535 417.044,-412.898"/>
<polygon fill="black" stroke="black" points="420.411,-411.944 414.391,-403.226 413.661,-413.795 420.411,-411.944"/>
</g>
<!-- AKT -->
<g id="node19" class="node"><title>AKT</title>
<ellipse fill="none" stroke="black" cx="355" cy="-679.219" rx="18" ry="18"/>
<text text-anchor="middle" x="355" y="-678.019" font-family="Times,serif" font-size="4.00">AKT</text>
</g>
<!-- AKT&#45;&gt;pr_3628c5cc&#45;d76c&#45;4e85&#45;8dfb&#45;60bf73e83786 -->
<g id="edge26" class="edge"><title>AKT&#45;&gt;pr_3628c5cc&#45;d76c&#45;4e85&#45;8dfb&#45;60bf73e83786</title>
<path fill="none" stroke="black" d="M357.408,-661.264C363.879,-615.713 381.877,-489.016 392.616,-413.417"/>
<polygon fill="black" stroke="black" points="396.14,-413.496 394.081,-403.103 389.209,-412.511 396.14,-413.496"/>
</g>
<!-- pr_5f93eef7&#45;3ad0&#45;49e7&#45;9060&#45;a819d24eb3f8 -->
<g id="node30" class="node"><title>pr_5f93eef7&#45;3ad0&#45;49e7&#45;9060&#45;a819d24eb3f8</title>
<polygon fill="none" stroke="black" points="493,-618.384 395,-618.384 395,-520.384 493,-520.384 493,-618.384"/>
<text text-anchor="middle" x="444" y="-568.184" font-family="Times,serif" font-size="4.00">pr_5f93eef7&#45;3ad0&#45;49e7&#45;9060&#45;a819d24eb3f8</text>
</g>
<!-- AKT&#45;&gt;pr_5f93eef7&#45;3ad0&#45;49e7&#45;9060&#45;a819d24eb3f8 -->
<g id="edge27" class="edge"><title>AKT&#45;&gt;pr_5f93eef7&#45;3ad0&#45;49e7&#45;9060&#45;a819d24eb3f8</title>
<path fill="none" stroke="black" d="M366.272,-664.561C374.402,-654.711 385.97,-640.695 397.704,-626.477"/>
<polygon fill="black" stroke="black" points="400.554,-628.523 404.22,-618.582 395.155,-624.067 400.554,-628.523"/>
</g>
<!-- pr_3d450bd4&#45;6886&#45;4628&#45;a19e&#45;517561d31471 -->
<g id="node34" class="node"><title>pr_3d450bd4&#45;6886&#45;4628&#45;a19e&#45;517561d31471</title>
<polygon fill="none" stroke="black" points="338.5,-619.884 237.5,-619.884 237.5,-518.884 338.5,-518.884 338.5,-619.884"/>
<text text-anchor="middle" x="288" y="-568.184" font-family="Times,serif" font-size="4.00">pr_3d450bd4&#45;6886&#45;4628&#45;a19e&#45;517561d31471</text>
</g>
<!-- AKT&#45;&gt;pr_3d450bd4&#45;6886&#45;4628&#45;a19e&#45;517561d31471 -->
<g id="edge28" class="edge"><title>AKT&#45;&gt;pr_3d450bd4&#45;6886&#45;4628&#45;a19e&#45;517561d31471</title>
<path fill="none" stroke="black" d="M342.82,-665.849C335.659,-656.503 326.482,-642.931 317.654,-628.94"/>
<polygon fill="black" stroke="black" points="320.477,-626.851 312.224,-620.208 314.533,-630.548 320.477,-626.851"/>
</g>
<!-- BID -->
<g id="node20" class="node"><title>BID</title>
<ellipse fill="none" stroke="black" cx="50" cy="-237.698" rx="18" ry="18"/>
<text text-anchor="middle" x="50" y="-236.498" font-family="Times,serif" font-size="4.00">BID</text>
</g>
<!-- BID&#45;&gt;pr_6530007f&#45;3cd5&#45;482a&#45;abda&#45;5a6e7b9a01e2 -->
<g id="edge29" class="edge"><title>BID&#45;&gt;pr_6530007f&#45;3cd5&#45;482a&#45;abda&#45;5a6e7b9a01e2</title>
<path fill="none" stroke="black" d="M54.9323,-255.268C56.0762,-265.443 56.6802,-279.158 56.7443,-293.07"/>
<polygon fill="black" stroke="black" points="53.2439,-293.172 56.6955,-303.188 60.2438,-293.205 53.2439,-293.172"/>
</g>
<!-- pr_d5bf21d2&#45;dec6&#45;4fec&#45;bac6&#45;085508188a21 -->
<g id="node23" class="node"><title>pr_d5bf21d2&#45;dec6&#45;4fec&#45;bac6&#45;085508188a21</title>
<polygon fill="none" stroke="black" points="278.5,-171.5 179.5,-171.5 179.5,-72.5 278.5,-72.5 278.5,-171.5"/>
<text text-anchor="middle" x="229" y="-120.8" font-family="Times,serif" font-size="4.00">pr_d5bf21d2&#45;dec6&#45;4fec&#45;bac6&#45;085508188a21</text>
</g>
<!-- BID&#45;&gt;pr_d5bf21d2&#45;dec6&#45;4fec&#45;bac6&#45;085508188a21 -->
<g id="edge30" class="edge"><title>BID&#45;&gt;pr_d5bf21d2&#45;dec6&#45;4fec&#45;bac6&#45;085508188a21</title>
<path fill="none" stroke="black" d="M64.9536,-227.2C87.979,-212.575 133.35,-183.756 170.55,-160.126"/>
<polygon fill="black" stroke="black" points="172.76,-162.87 179.324,-154.553 169.007,-156.961 172.76,-162.87"/>
</g>
<!-- pr_6530007f&#45;3cd5&#45;482a&#45;abda&#45;5a6e7b9a01e2&#45;&gt;BID -->
<g id="edge31" class="edge"><title>pr_6530007f&#45;3cd5&#45;482a&#45;abda&#45;5a6e7b9a01e2&#45;&gt;BID</title>
<path fill="none" stroke="black" d="M43.3045,-303.188C43.118,-290.181 43.4103,-276.63 44.1816,-265.326"/>
<polygon fill="black" stroke="black" points="47.6765,-265.537 45.0677,-255.268 40.7035,-264.922 47.6765,-265.537"/>
</g>
<!-- BAX -->
<g id="node22" class="node"><title>BAX</title>
<ellipse fill="none" stroke="black" cx="229" cy="-18" rx="18" ry="18"/>
<text text-anchor="middle" x="229" y="-16.8" font-family="Times,serif" font-size="4.00">BAX</text>
</g>
<!-- BAX&#45;&gt;pr_d5bf21d2&#45;dec6&#45;4fec&#45;bac6&#45;085508188a21 -->
<g id="edge32" class="edge"><title>BAX&#45;&gt;pr_d5bf21d2&#45;dec6&#45;4fec&#45;bac6&#45;085508188a21</title>
<path fill="none" stroke="black" d="M234.113,-35.3739C234.974,-42.8817 235.496,-52.2863 235.677,-62.0907"/>
<polygon fill="black" stroke="black" points="232.179,-62.4125 235.743,-72.3898 239.179,-62.3676 232.179,-62.4125"/>
</g>
<!-- pr_d5bf21d2&#45;dec6&#45;4fec&#45;bac6&#45;085508188a21&#45;&gt;BAX -->
<g id="edge33" class="edge"><title>pr_d5bf21d2&#45;dec6&#45;4fec&#45;bac6&#45;085508188a21&#45;&gt;BAX</title>
<path fill="none" stroke="black" d="M222.257,-72.3898C222.205,-63.1138 222.452,-53.7321 222.998,-45.4758"/>
<polygon fill="black" stroke="black" points="226.497,-45.6422 223.887,-35.3739 219.524,-45.0286 226.497,-45.6422"/>
</g>
<!-- BIM/BAD/PUMA -->
<g id="node24" class="node"><title>BIM/BAD/PUMA</title>
<ellipse fill="none" stroke="black" cx="346" cy="-237.698" rx="25.9724" ry="25.9724"/>
<text text-anchor="middle" x="346" y="-236.498" font-family="Times,serif" font-size="4.00">BIM/BAD/PUMA</text>
</g>
<!-- BIM/BAD/PUMA&#45;&gt;pr_d5bf21d2&#45;dec6&#45;4fec&#45;bac6&#45;085508188a21 -->
<g id="edge34" class="edge"><title>BIM/BAD/PUMA&#45;&gt;pr_d5bf21d2&#45;dec6&#45;4fec&#45;bac6&#45;085508188a21</title>
<path fill="none" stroke="black" d="M327.719,-218.933C316.396,-207.93 301.178,-193.141 286.085,-178.474"/>
<polygon fill="black" stroke="black" points="288.314,-175.76 278.703,-171.301 283.436,-180.78 288.314,-175.76"/>
</g>
<!-- pr_d8b8f8c7&#45;adfd&#45;451e&#45;bf61&#45;5822b2b5991b -->
<g id="node40" class="node"><title>pr_d8b8f8c7&#45;adfd&#45;451e&#45;bf61&#45;5822b2b5991b</title>
<polygon fill="none" stroke="black" points="395,-171 297,-171 297,-73 395,-73 395,-171"/>
<text text-anchor="middle" x="346" y="-120.8" font-family="Times,serif" font-size="4.00">pr_d8b8f8c7&#45;adfd&#45;451e&#45;bf61&#45;5822b2b5991b</text>
</g>
<!-- BIM/BAD/PUMA&#45;&gt;pr_d8b8f8c7&#45;adfd&#45;451e&#45;bf61&#45;5822b2b5991b -->
<g id="edge35" class="edge"><title>BIM/BAD/PUMA&#45;&gt;pr_d8b8f8c7&#45;adfd&#45;451e&#45;bf61&#45;5822b2b5991b</title>
<path fill="none" stroke="black" d="M340.343,-212.307C339.644,-203.115 339.28,-192.22 339.252,-181.256"/>
<polygon fill="black" stroke="black" points="342.752,-181.237 339.32,-171.213 335.752,-181.189 342.752,-181.237"/>
</g>
<!-- BCL2/BCL&#45;XL/MCL1 -->
<g id="node25" class="node"><title>BCL2/BCL&#45;XL/MCL1</title>
<ellipse fill="none" stroke="black" cx="420" cy="-237.698" rx="29.8983" ry="29.8983"/>
<text text-anchor="middle" x="420" y="-236.498" font-family="Times,serif" font-size="4.00">BCL2/BCL&#45;XL/MCL1</text>
</g>
<!-- BCL2/BCL&#45;XL/MCL1&#45;&gt;pr_d5bf21d2&#45;dec6&#45;4fec&#45;bac6&#45;085508188a21 -->
<g id="edge36" class="edge"><title>BCL2/BCL&#45;XL/MCL1&#45;&gt;pr_d5bf21d2&#45;dec6&#45;4fec&#45;bac6&#45;085508188a21</title>
<path fill="none" stroke="black" d="M397.162,-218.345C392.013,-214.653 386.454,-210.993 381,-208 342.143,-186.679 326.214,-194.452 288,-172 287.806,-171.886 287.613,-171.772 287.419,-171.657"/>
<polygon fill="black" stroke="black" points="289.041,-168.54 278.729,-166.108 285.274,-174.44 289.041,-168.54"/>
</g>
<!-- BCL2/BCL&#45;XL/MCL1&#45;&gt;pr_d8b8f8c7&#45;adfd&#45;451e&#45;bf61&#45;5822b2b5991b -->
<g id="edge37" class="edge"><title>BCL2/BCL&#45;XL/MCL1&#45;&gt;pr_d8b8f8c7&#45;adfd&#45;451e&#45;bf61&#45;5822b2b5991b</title>
<path fill="none" stroke="black" d="M404.125,-212.307C397.898,-202.74 390.471,-191.328 383.041,-179.913"/>
<polygon fill="black" stroke="black" points="385.768,-177.685 377.379,-171.213 379.901,-181.504 385.768,-177.685"/>
</g>
<!-- pr_7bd40eae&#45;c92a&#45;4b0f&#45;b72a&#45;d77da9537bd7 -->
<g id="node41" class="node"><title>pr_7bd40eae&#45;c92a&#45;4b0f&#45;b72a&#45;d77da9537bd7</title>
<polygon fill="none" stroke="black" points="513,-172 413,-172 413,-72 513,-72 513,-172"/>
<text text-anchor="middle" x="463" y="-120.8" font-family="Times,serif" font-size="4.00">pr_7bd40eae&#45;c92a&#45;4b0f&#45;b72a&#45;d77da9537bd7</text>
</g>
<!-- BCL2/BCL&#45;XL/MCL1&#45;&gt;pr_7bd40eae&#45;c92a&#45;4b0f&#45;b72a&#45;d77da9537bd7 -->
<g id="edge38" class="edge"><title>BCL2/BCL&#45;XL/MCL1&#45;&gt;pr_7bd40eae&#45;c92a&#45;4b0f&#45;b72a&#45;d77da9537bd7</title>
<path fill="none" stroke="black" d="M424.806,-208.301C427.363,-200.197 430.55,-191.054 434,-181.842"/>
<polygon fill="black" stroke="black" points="437.363,-182.847 437.675,-172.256 430.827,-180.34 437.363,-182.847"/>
</g>
<!-- Cytochrome C -->
<g id="node26" class="node"><title>Cytochrome C</title>
<ellipse fill="none" stroke="black" cx="561" cy="-679.219" rx="23.1702" ry="23.1702"/>
<text text-anchor="middle" x="561" y="-678.019" font-family="Times,serif" font-size="4.00">Cytochrome C</text>
</g>
<!-- pr_5c9af9bd&#45;b674&#45;427d&#45;979d&#45;147aa534098d -->
<g id="node27" class="node"><title>pr_5c9af9bd&#45;b674&#45;427d&#45;979d&#45;147aa534098d</title>
<polygon fill="none" stroke="black" points="611,-619.384 511,-619.384 511,-519.384 611,-519.384 611,-619.384"/>
<text text-anchor="middle" x="561" y="-568.184" font-family="Times,serif" font-size="4.00">pr_5c9af9bd&#45;b674&#45;427d&#45;979d&#45;147aa534098d</text>
</g>
<!-- Cytochrome C&#45;&gt;pr_5c9af9bd&#45;b674&#45;427d&#45;979d&#45;147aa534098d -->
<g id="edge39" class="edge"><title>Cytochrome C&#45;&gt;pr_5c9af9bd&#45;b674&#45;427d&#45;979d&#45;147aa534098d</title>
<path fill="none" stroke="black" d="M555.451,-656.397C554.785,-648.623 554.396,-639.45 554.284,-630.041"/>
<polygon fill="black" stroke="black" points="557.784,-629.79 554.271,-619.794 550.784,-629.799 557.784,-629.79"/>
</g>
<!-- Cytochrome C&#45;&gt;pr_5f93eef7&#45;3ad0&#45;49e7&#45;9060&#45;a819d24eb3f8 -->
<g id="edge40" class="edge"><title>Cytochrome C&#45;&gt;pr_5f93eef7&#45;3ad0&#45;49e7&#45;9060&#45;a819d24eb3f8</title>
<path fill="none" stroke="black" d="M544.237,-662.769C532.725,-652.158 516.714,-637.402 500.863,-622.793"/>
<polygon fill="black" stroke="black" points="502.841,-619.855 493.115,-615.652 498.096,-625.003 502.841,-619.855"/>
</g>
<!-- pr_5c9af9bd&#45;b674&#45;427d&#45;979d&#45;147aa534098d&#45;&gt;Cytochrome C -->
<g id="edge41" class="edge"><title>pr_5c9af9bd&#45;b674&#45;427d&#45;979d&#45;147aa534098d&#45;&gt;Cytochrome C</title>
<path fill="none" stroke="black" d="M567.729,-619.794C567.813,-628.82 567.644,-638.016 567.221,-646.36"/>
<polygon fill="black" stroke="black" points="563.724,-646.185 566.549,-656.397 570.709,-646.653 563.724,-646.185"/>
</g>
<!-- MAPK14 -->
<g id="node28" class="node"><title>MAPK14</title>
<ellipse fill="none" stroke="black" cx="652" cy="-679.219" rx="18" ry="18"/>
<text text-anchor="middle" x="652" y="-678.019" font-family="Times,serif" font-size="4.00">MAPK14</text>
</g>
<!-- MAPK14&#45;&gt;pr_5c9af9bd&#45;b674&#45;427d&#45;979d&#45;147aa534098d -->
<g id="edge42" class="edge"><title>MAPK14&#45;&gt;pr_5c9af9bd&#45;b674&#45;427d&#45;979d&#45;147aa534098d</title>
<path fill="none" stroke="black" d="M640.842,-664.996C632.673,-655.316 620.972,-641.451 609.039,-627.31"/>
<polygon fill="black" stroke="black" points="611.53,-624.835 602.406,-619.45 606.18,-629.35 611.53,-624.835"/>
</g>
<!-- pr_e228c204&#45;40dc&#45;456b&#45;b435&#45;f3889fad79a7 -->
<g id="node38" class="node"><title>pr_e228c204&#45;40dc&#45;456b&#45;b435&#45;f3889fad79a7</title>
<polygon fill="none" stroke="black" points="728.5,-618.884 629.5,-618.884 629.5,-519.884 728.5,-519.884 728.5,-618.884"/>
<text text-anchor="middle" x="679" y="-568.184" font-family="Times,serif" font-size="4.00">pr_e228c204&#45;40dc&#45;456b&#45;b435&#45;f3889fad79a7</text>
</g>
<!-- MAPK14&#45;&gt;pr_e228c204&#45;40dc&#45;456b&#45;b435&#45;f3889fad79a7 -->
<g id="edge43" class="edge"><title>MAPK14&#45;&gt;pr_e228c204&#45;40dc&#45;456b&#45;b435&#45;f3889fad79a7</title>
<path fill="none" stroke="black" d="M651.223,-660.893C652.478,-652.056 654.775,-640.735 657.569,-629.114"/>
<polygon fill="black" stroke="black" points="660.985,-629.88 660.02,-619.329 654.195,-628.179 660.985,-629.88"/>
</g>
<!-- APAF1 -->
<g id="node29" class="node"><title>APAF1</title>
<ellipse fill="none" stroke="black" cx="482" cy="-679.219" rx="18" ry="18"/>
<text text-anchor="middle" x="482" y="-678.019" font-family="Times,serif" font-size="4.00">APAF1</text>
</g>
<!-- APAF1&#45;&gt;pr_5f93eef7&#45;3ad0&#45;49e7&#45;9060&#45;a819d24eb3f8 -->
<g id="edge44" class="edge"><title>APAF1&#45;&gt;pr_5f93eef7&#45;3ad0&#45;49e7&#45;9060&#45;a819d24eb3f8</title>
<path fill="none" stroke="black" d="M476.229,-661.841C472.986,-652.638 468.722,-640.54 464.363,-628.168"/>
<polygon fill="black" stroke="black" points="467.65,-626.966 461.025,-618.698 461.048,-629.293 467.65,-626.966"/>
</g>
<!-- pr_5f93eef7&#45;3ad0&#45;49e7&#45;9060&#45;a819d24eb3f8&#45;&gt;Apoptosome -->
<g id="edge45" class="edge"><title>pr_5f93eef7&#45;3ad0&#45;49e7&#45;9060&#45;a819d24eb3f8&#45;&gt;Apoptosome</title>
<path fill="none" stroke="black" d="M437.655,-520.236C436.421,-510.868 435.159,-501.292 434.025,-492.687"/>
<polygon fill="black" stroke="black" points="437.492,-492.208 432.716,-482.751 430.552,-493.123 437.492,-492.208"/>
</g>
<!-- Pro&#45;casp9 -->
<g id="node31" class="node"><title>Pro&#45;casp9</title>
<ellipse fill="none" stroke="black" cx="427" cy="-679.219" rx="18.6233" ry="18.6233"/>
<text text-anchor="middle" x="427" y="-678.019" font-family="Times,serif" font-size="4.00">Pro&#45;casp9</text>
</g>
<!-- Pro&#45;casp9&#45;&gt;pr_5f93eef7&#45;3ad0&#45;49e7&#45;9060&#45;a819d24eb3f8 -->
<g id="edge46" class="edge"><title>Pro&#45;casp9&#45;&gt;pr_5f93eef7&#45;3ad0&#45;49e7&#45;9060&#45;a819d24eb3f8</title>
<path fill="none" stroke="black" d="M429.807,-660.412C431.208,-651.529 432.99,-640.225 434.814,-628.652"/>
<polygon fill="black" stroke="black" points="438.32,-628.89 436.42,-618.467 431.405,-627.8 438.32,-628.89"/>
</g>
<!-- CASP7 -->
<g id="node32" class="node"><title>CASP7</title>
<ellipse fill="none" stroke="black" cx="284" cy="-237.698" rx="18" ry="18"/>
<text text-anchor="middle" x="284" y="-236.498" font-family="Times,serif" font-size="4.00">CASP7</text>
</g>
<!-- CASP7&#45;&gt;pr_ed24c7ed&#45;11e2&#45;4c9b&#45;8794&#45;2d9effdba3ab -->
<g id="edge47" class="edge"><title>CASP7&#45;&gt;pr_ed24c7ed&#45;11e2&#45;4c9b&#45;8794&#45;2d9effdba3ab</title>
<path fill="none" stroke="black" d="M288.926,-255.216C290.088,-265.523 290.695,-279.477 290.746,-293.592"/>
<polygon fill="black" stroke="black" points="287.245,-293.828 290.686,-303.849 294.245,-293.87 287.245,-293.828"/>
</g>
<!-- pr_ed24c7ed&#45;11e2&#45;4c9b&#45;8794&#45;2d9effdba3ab&#45;&gt;CASP7 -->
<g id="edge48" class="edge"><title>pr_ed24c7ed&#45;11e2&#45;4c9b&#45;8794&#45;2d9effdba3ab&#45;&gt;CASP7</title>
<path fill="none" stroke="black" d="M277.314,-303.849C277.109,-290.676 277.396,-276.895 278.175,-265.418"/>
<polygon fill="black" stroke="black" points="281.683,-265.485 279.074,-255.216 274.71,-264.87 281.683,-265.485"/>
</g>
<!-- pr_3d450bd4&#45;6886&#45;4628&#45;a19e&#45;517561d31471&#45;&gt;AKT -->
<g id="edge49" class="edge"><title>pr_3d450bd4&#45;6886&#45;4628&#45;a19e&#45;517561d31471&#45;&gt;AKT</title>
<path fill="none" stroke="black" d="M325.635,-620.122C332.743,-631.405 339.607,-642.933 344.99,-652.715"/>
<polygon fill="black" stroke="black" points="342.054,-654.648 349.833,-661.841 348.237,-651.367 342.054,-654.648"/>
</g>
<!-- SARS M -->
<g id="node35" class="node"><title>SARS M</title>
<ellipse fill="none" stroke="black" cx="288" cy="-679.219" rx="18" ry="18"/>
<text text-anchor="middle" x="288" y="-678.019" font-family="Times,serif" font-size="4.00">SARS M</text>
</g>
<!-- SARS M&#45;&gt;pr_3d450bd4&#45;6886&#45;4628&#45;a19e&#45;517561d31471 -->
<g id="edge50" class="edge"><title>SARS M&#45;&gt;pr_3d450bd4&#45;6886&#45;4628&#45;a19e&#45;517561d31471</title>
<path fill="none" stroke="black" d="M288,-660.893C288,-652.415 288,-641.651 288,-630.529"/>
<polygon fill="black" stroke="black" points="291.5,-630.269 288,-620.269 284.5,-630.269 291.5,-630.269"/>
</g>
<!-- pr_c1c51058&#45;0cbd&#45;456e&#45;a9d2&#45;2ef713dbb308&#45;&gt;TRADD/FADD -->
<g id="edge51" class="edge"><title>pr_c1c51058&#45;0cbd&#45;456e&#45;a9d2&#45;2ef713dbb308&#45;&gt;TRADD/FADD</title>
<path fill="none" stroke="black" d="M155.672,-738.284C156.318,-729.624 156.975,-720.81 157.575,-712.752"/>
<polygon fill="black" stroke="black" points="161.073,-712.905 158.326,-702.672 154.093,-712.385 161.073,-712.905"/>
</g>
<!-- TRADD -->
<g id="node37" class="node"><title>TRADD</title>
<ellipse fill="none" stroke="black" cx="94" cy="-896.297" rx="18" ry="18"/>
<text text-anchor="middle" x="94" y="-895.097" font-family="Times,serif" font-size="4.00">TRADD</text>
</g>
<!-- TRADD&#45;&gt;pr_c1c51058&#45;0cbd&#45;456e&#45;a9d2&#45;2ef713dbb308 -->
<g id="edge52" class="edge"><title>TRADD&#45;&gt;pr_c1c51058&#45;0cbd&#45;456e&#45;a9d2&#45;2ef713dbb308</title>
<path fill="none" stroke="black" d="M102.31,-880.146C107.149,-871.323 113.593,-859.576 120.232,-847.472"/>
<polygon fill="black" stroke="black" points="123.34,-849.084 125.08,-838.633 117.202,-845.717 123.34,-849.084"/>
</g>
<!-- pr_e228c204&#45;40dc&#45;456b&#45;b435&#45;f3889fad79a7&#45;&gt;MAPK14 -->
<g id="edge53" class="edge"><title>pr_e228c204&#45;40dc&#45;456b&#45;b435&#45;f3889fad79a7&#45;&gt;MAPK14</title>
<path fill="none" stroke="black" d="M673.572,-618.899C670.693,-630.939 667.27,-643.342 663.912,-653.673"/>
<polygon fill="black" stroke="black" points="660.57,-652.63 660.599,-663.225 667.183,-654.924 660.57,-652.63"/>
</g>
<!-- SARS 3a -->
<g id="node39" class="node"><title>SARS 3a</title>
<ellipse fill="none" stroke="black" cx="706" cy="-679.219" rx="18" ry="18"/>
<text text-anchor="middle" x="706" y="-678.019" font-family="Times,serif" font-size="4.00">SARS 3a</text>
</g>
<!-- SARS 3a&#45;&gt;pr_e228c204&#45;40dc&#45;456b&#45;b435&#45;f3889fad79a7 -->
<g id="edge54" class="edge"><title>SARS 3a&#45;&gt;pr_e228c204&#45;40dc&#45;456b&#45;b435&#45;f3889fad79a7</title>
<path fill="none" stroke="black" d="M701.781,-661.369C699.557,-652.484 696.68,-640.996 693.725,-629.192"/>
<polygon fill="black" stroke="black" points="697.06,-628.104 691.236,-619.253 690.27,-629.804 697.06,-628.104"/>
</g>
<!-- pr_d8b8f8c7&#45;adfd&#45;451e&#45;bf61&#45;5822b2b5991b&#45;&gt;BIM/BAD/PUMA -->
<g id="edge55" class="edge"><title>pr_d8b8f8c7&#45;adfd&#45;451e&#45;bf61&#45;5822b2b5991b&#45;&gt;BIM/BAD/PUMA</title>
<path fill="none" stroke="black" d="M352.68,-171.213C352.85,-181.625 352.711,-192.432 352.263,-202.193"/>
<polygon fill="black" stroke="black" points="348.762,-202.116 351.657,-212.307 355.749,-202.535 348.762,-202.116"/>
</g>
<!-- pr_7bd40eae&#45;c92a&#45;4b0f&#45;b72a&#45;d77da9537bd7&#45;&gt;BCL2/BCL&#45;XL/MCL1 -->
<g id="edge56" class="edge"><title>pr_7bd40eae&#45;c92a&#45;4b0f&#45;b72a&#45;d77da9537bd7&#45;&gt;BCL2/BCL&#45;XL/MCL1</title>
<path fill="none" stroke="black" d="M451.02,-172.387C447.275,-182.671 443.104,-193.288 439.031,-202.858"/>
<polygon fill="black" stroke="black" points="435.82,-201.464 435.009,-212.028 442.231,-204.276 435.82,-201.464"/>
</g>
<!-- SARS E_7a -->
<g id="node42" class="node"><title>SARS E_7a</title>
<ellipse fill="none" stroke="black" cx="488" cy="-237.698" rx="20.3062" ry="20.3062"/>
<text text-anchor="middle" x="488" y="-236.498" font-family="Times,serif" font-size="4.00">SARS E_7a</text>
</g>
<!-- SARS E_7a&#45;&gt;pr_7bd40eae&#45;c92a&#45;4b0f&#45;b72a&#45;d77da9537bd7 -->
<g id="edge57" class="edge"><title>SARS E_7a&#45;&gt;pr_7bd40eae&#45;c92a&#45;4b0f&#45;b72a&#45;d77da9537bd7</title>
<path fill="none" stroke="black" d="M483.872,-217.923C481.684,-207.972 478.862,-195.139 476.005,-182.146"/>
<polygon fill="black" stroke="black" points="479.389,-181.239 473.823,-172.224 472.553,-182.742 479.389,-181.239"/>
</g>
</g>
</svg>
