<?xml version="1.0" encoding="UTF-8" standalone="no"?>
<!DOCTYPE svg PUBLIC "-//W3C//DTD SVG 1.1//EN"
 "http://www.w3.org/Graphics/SVG/1.1/DTD/svg11.dtd">
<!-- Generated by graphviz version 2.38.0 (20140413.2041)
 -->
<!-- Title: G Pages: 1 -->
<svg width="938pt" height="1789pt"
 viewBox="0.00 0.00 938.00 1789.05" xmlns="http://www.w3.org/2000/svg" xmlns:xlink="http://www.w3.org/1999/xlink">
<g id="graph0" class="graph" transform="scale(1 1) rotate(0) translate(4 1785.05)">
<title>G</title>
<polygon fill="white" stroke="none" points="-4,4 -4,-1785.05 934,-1785.05 934,4 -4,4"/>
<!-- FASLG -->
<g id="node1" class="node"><title>FASLG</title>
<ellipse fill="none" stroke="black" cx="22.5" cy="-1763.05" rx="18" ry="18"/>
<text text-anchor="middle" x="22.5" y="-1761.85" font-family="Times,serif" font-size="4.00">FASLG</text>
</g>
<!-- pr_39169f05&#45;7373&#45;41e0&#45;8ce3&#45;33406f6563c8 -->
<g id="node2" class="node"><title>pr_39169f05&#45;7373&#45;41e0&#45;8ce3&#45;33406f6563c8</title>
<polygon fill="none" stroke="black" points="99,-1709.05 0,-1709.05 0,-1610.05 99,-1610.05 99,-1709.05"/>
<text text-anchor="middle" x="49.5" y="-1658.35" font-family="Times,serif" font-size="4.00">pr_39169f05&#45;7373&#45;41e0&#45;8ce3&#45;33406f6563c8</text>
</g>
<!-- FASLG&#45;&gt;pr_39169f05&#45;7373&#45;41e0&#45;8ce3&#45;33406f6563c8 -->
<g id="edge1" class="edge"><title>FASLG&#45;&gt;pr_39169f05&#45;7373&#45;41e0&#45;8ce3&#45;33406f6563c8</title>
<path fill="none" stroke="black" d="M26.9585,-1745.28C28.9356,-1737.85 31.3915,-1728.62 33.948,-1719.01"/>
<polygon fill="black" stroke="black" points="37.3355,-1719.89 36.5239,-1709.33 30.5708,-1718.09 37.3355,-1719.89"/>
</g>
<!-- FAS/FASL -->
<g id="node4" class="node"><title>FAS/FASL</title>
<ellipse fill="none" stroke="black" cx="49.5" cy="-1554.42" rx="18.6233" ry="18.6233"/>
<text text-anchor="middle" x="49.5" y="-1553.22" font-family="Times,serif" font-size="4.00">FAS/FASL</text>
</g>
<!-- pr_39169f05&#45;7373&#45;41e0&#45;8ce3&#45;33406f6563c8&#45;&gt;FAS/FASL -->
<g id="edge2" class="edge"><title>pr_39169f05&#45;7373&#45;41e0&#45;8ce3&#45;33406f6563c8&#45;&gt;FAS/FASL</title>
<path fill="none" stroke="black" d="M49.5,-1610C49.5,-1600.85 49.5,-1591.57 49.5,-1583.32"/>
<polygon fill="black" stroke="black" points="53.0001,-1583.17 49.5,-1573.17 46.0001,-1583.17 53.0001,-1583.17"/>
</g>
<!-- FAS -->
<g id="node3" class="node"><title>FAS</title>
<ellipse fill="none" stroke="black" cx="76.5" cy="-1763.05" rx="18" ry="18"/>
<text text-anchor="middle" x="76.5" y="-1761.85" font-family="Times,serif" font-size="4.00">FAS</text>
</g>
<!-- FAS&#45;&gt;pr_39169f05&#45;7373&#45;41e0&#45;8ce3&#45;33406f6563c8 -->
<g id="edge3" class="edge"><title>FAS&#45;&gt;pr_39169f05&#45;7373&#45;41e0&#45;8ce3&#45;33406f6563c8</title>
<path fill="none" stroke="black" d="M72.0415,-1745.28C70.0644,-1737.85 67.6085,-1728.62 65.052,-1719.01"/>
<polygon fill="black" stroke="black" points="68.4292,-1718.09 62.4761,-1709.33 61.6645,-1719.89 68.4292,-1718.09"/>
</g>
<!-- pr_a94e0f04&#45;9ce1&#45;4fa7&#45;bc41&#45;28b0f777ebe2 -->
<g id="node6" class="node"><title>pr_a94e0f04&#45;9ce1&#45;4fa7&#45;bc41&#45;28b0f777ebe2</title>
<polygon fill="none" stroke="black" points="98.5,-1497.8 0.5,-1497.8 0.5,-1399.8 98.5,-1399.8 98.5,-1497.8"/>
<text text-anchor="middle" x="49.5" y="-1447.6" font-family="Times,serif" font-size="4.00">pr_a94e0f04&#45;9ce1&#45;4fa7&#45;bc41&#45;28b0f777ebe2</text>
</g>
<!-- FAS/FASL&#45;&gt;pr_a94e0f04&#45;9ce1&#45;4fa7&#45;bc41&#45;28b0f777ebe2 -->
<g id="edge4" class="edge"><title>FAS/FASL&#45;&gt;pr_a94e0f04&#45;9ce1&#45;4fa7&#45;bc41&#45;28b0f777ebe2</title>
<path fill="none" stroke="black" d="M49.5,-1535.85C49.5,-1527.96 49.5,-1518.17 49.5,-1508.04"/>
<polygon fill="black" stroke="black" points="53.0001,-1507.86 49.5,-1497.86 46.0001,-1507.86 53.0001,-1507.86"/>
</g>
<!-- FADD -->
<g id="node5" class="node"><title>FADD</title>
<ellipse fill="none" stroke="black" cx="49.5" cy="-1338.41" rx="18" ry="18"/>
<text text-anchor="middle" x="49.5" y="-1337.21" font-family="Times,serif" font-size="4.00">FADD</text>
</g>
<!-- FADD&#45;&gt;pr_a94e0f04&#45;9ce1&#45;4fa7&#45;bc41&#45;28b0f777ebe2 -->
<g id="edge5" class="edge"><title>FADD&#45;&gt;pr_a94e0f04&#45;9ce1&#45;4fa7&#45;bc41&#45;28b0f777ebe2</title>
<path fill="none" stroke="black" d="M54.5009,-1355.79C55.5447,-1364.94 56.1213,-1376.96 56.2308,-1389.27"/>
<polygon fill="black" stroke="black" points="52.7303,-1389.62 56.2128,-1399.63 59.7302,-1389.63 52.7303,-1389.62"/>
</g>
<!-- pr_bbbc2e3a&#45;a293&#45;4cf4&#45;a744&#45;1f95394de427 -->
<g id="node8" class="node"><title>pr_bbbc2e3a&#45;a293&#45;4cf4&#45;a744&#45;1f95394de427</title>
<polygon fill="none" stroke="black" points="131,-1059.34 32,-1059.34 32,-960.342 131,-960.342 131,-1059.34"/>
<text text-anchor="middle" x="81.5" y="-1008.64" font-family="Times,serif" font-size="4.00">pr_bbbc2e3a&#45;a293&#45;4cf4&#45;a744&#45;1f95394de427</text>
</g>
<!-- FADD&#45;&gt;pr_bbbc2e3a&#45;a293&#45;4cf4&#45;a744&#45;1f95394de427 -->
<g id="edge6" class="edge"><title>FADD&#45;&gt;pr_bbbc2e3a&#45;a293&#45;4cf4&#45;a744&#45;1f95394de427</title>
<path fill="none" stroke="black" d="M51.1754,-1320.31C55.6891,-1274.25 68.2653,-1145.9 75.7287,-1069.74"/>
<polygon fill="black" stroke="black" points="79.2545,-1069.65 76.7465,-1059.35 72.2878,-1068.96 79.2545,-1069.65"/>
</g>
<!-- pr_2b2ed6db&#45;ab97&#45;4439&#45;a776&#45;7316345fec82 -->
<g id="node29" class="node"><title>pr_2b2ed6db&#45;ab97&#45;4439&#45;a776&#45;7316345fec82</title>
<polygon fill="none" stroke="black" points="177.5,-1278.01 77.5,-1278.01 77.5,-1178.01 177.5,-1178.01 177.5,-1278.01"/>
<text text-anchor="middle" x="127.5" y="-1226.81" font-family="Times,serif" font-size="4.00">pr_2b2ed6db&#45;ab97&#45;4439&#45;a776&#45;7316345fec82</text>
</g>
<!-- FADD&#45;&gt;pr_2b2ed6db&#45;ab97&#45;4439&#45;a776&#45;7316345fec82 -->
<g id="edge7" class="edge"><title>FADD&#45;&gt;pr_2b2ed6db&#45;ab97&#45;4439&#45;a776&#45;7316345fec82</title>
<path fill="none" stroke="black" d="M59.6971,-1323.24C66.6701,-1313.54 76.4186,-1300 86.3534,-1286.19"/>
<polygon fill="black" stroke="black" points="89.2049,-1288.22 92.2048,-1278.06 83.523,-1284.13 89.2049,-1288.22"/>
</g>
<!-- pr_a94e0f04&#45;9ce1&#45;4fa7&#45;bc41&#45;28b0f777ebe2&#45;&gt;FADD -->
<g id="edge8" class="edge"><title>pr_a94e0f04&#45;9ce1&#45;4fa7&#45;bc41&#45;28b0f777ebe2&#45;&gt;FADD</title>
<path fill="none" stroke="black" d="M42.7872,-1399.63C42.6441,-1388.08 42.9139,-1376.17 43.5964,-1366.02"/>
<polygon fill="black" stroke="black" points="47.106,-1366.06 44.4991,-1355.79 40.1331,-1365.45 47.106,-1366.06"/>
</g>
<!-- CASP8 -->
<g id="node7" class="node"><title>CASP8</title>
<ellipse fill="none" stroke="black" cx="81.5" cy="-906.342" rx="18" ry="18"/>
<text text-anchor="middle" x="81.5" y="-905.142" font-family="Times,serif" font-size="4.00">CASP8</text>
</g>
<!-- CASP8&#45;&gt;pr_bbbc2e3a&#45;a293&#45;4cf4&#45;a744&#45;1f95394de427 -->
<g id="edge9" class="edge"><title>CASP8&#45;&gt;pr_bbbc2e3a&#45;a293&#45;4cf4&#45;a744&#45;1f95394de427</title>
<path fill="none" stroke="black" d="M86.6535,-923.989C87.4879,-931.375 87.9952,-940.554 88.1755,-950.121"/>
<polygon fill="black" stroke="black" points="84.6758,-950.197 88.245,-960.173 91.6756,-950.149 84.6758,-950.197"/>
</g>
<!-- pr_d510bee4&#45;676c&#45;4936&#45;917e&#45;ad3a16fa472d -->
<g id="node11" class="node"><title>pr_d510bee4&#45;676c&#45;4936&#45;917e&#45;ad3a16fa472d</title>
<polygon fill="none" stroke="black" points="131.5,-852.342 31.5,-852.342 31.5,-752.342 131.5,-752.342 131.5,-852.342"/>
<text text-anchor="middle" x="81.5" y="-801.142" font-family="Times,serif" font-size="4.00">pr_d510bee4&#45;676c&#45;4936&#45;917e&#45;ad3a16fa472d</text>
</g>
<!-- CASP8&#45;&gt;pr_d510bee4&#45;676c&#45;4936&#45;917e&#45;ad3a16fa472d -->
<g id="edge10" class="edge"><title>CASP8&#45;&gt;pr_d510bee4&#45;676c&#45;4936&#45;917e&#45;ad3a16fa472d</title>
<path fill="none" stroke="black" d="M81.5,-888.039C81.5,-880.776 81.5,-871.863 81.5,-862.576"/>
<polygon fill="black" stroke="black" points="85.0001,-862.411 81.5,-852.411 78.0001,-862.411 85.0001,-862.411"/>
</g>
<!-- pr_46bb08a0&#45;ebb6&#45;43e6&#45;946e&#45;f7d825d02bae -->
<g id="node17" class="node"><title>pr_46bb08a0&#45;ebb6&#45;43e6&#45;946e&#45;f7d825d02bae</title>
<polygon fill="none" stroke="black" points="231.5,-403.958 131.5,-403.958 131.5,-303.958 231.5,-303.958 231.5,-403.958"/>
<text text-anchor="middle" x="181.5" y="-352.758" font-family="Times,serif" font-size="4.00">pr_46bb08a0&#45;ebb6&#45;43e6&#45;946e&#45;f7d825d02bae</text>
</g>
<!-- CASP8&#45;&gt;pr_46bb08a0&#45;ebb6&#45;43e6&#45;946e&#45;f7d825d02bae -->
<g id="edge11" class="edge"><title>CASP8&#45;&gt;pr_46bb08a0&#45;ebb6&#45;43e6&#45;946e&#45;f7d825d02bae</title>
<path fill="none" stroke="black" d="M66.3306,-896.297C52.4082,-887.108 32.4781,-871.518 22.5,-852.342 -9.89067,-790.091 3.5,-765.772 3.5,-695.598 3.5,-695.598 3.5,-695.598 3.5,-585.355 3.5,-505.469 71.3424,-436.407 123.26,-395.252"/>
<polygon fill="black" stroke="black" points="125.698,-397.791 131.443,-388.889 121.401,-392.265 125.698,-397.791"/>
</g>
<!-- pr_b3491de1&#45;84d9&#45;4b32&#45;883e&#45;8a2f5a88ea7b -->
<g id="node26" class="node"><title>pr_b3491de1&#45;84d9&#45;4b32&#45;883e&#45;8a2f5a88ea7b</title>
<polygon fill="none" stroke="black" points="249.5,-852.342 149.5,-852.342 149.5,-752.342 249.5,-752.342 249.5,-852.342"/>
<text text-anchor="middle" x="199.5" y="-801.142" font-family="Times,serif" font-size="4.00">pr_b3491de1&#45;84d9&#45;4b32&#45;883e&#45;8a2f5a88ea7b</text>
</g>
<!-- CASP8&#45;&gt;pr_b3491de1&#45;84d9&#45;4b32&#45;883e&#45;8a2f5a88ea7b -->
<g id="edge12" class="edge"><title>CASP8&#45;&gt;pr_b3491de1&#45;84d9&#45;4b32&#45;883e&#45;8a2f5a88ea7b</title>
<path fill="none" stroke="black" d="M95.0361,-893.641C106.585,-883.658 124.032,-868.577 141.377,-853.583"/>
<polygon fill="black" stroke="black" points="144.042,-855.906 149.318,-846.719 139.464,-850.611 144.042,-855.906"/>
</g>
<!-- pr_bbbc2e3a&#45;a293&#45;4cf4&#45;a744&#45;1f95394de427&#45;&gt;CASP8 -->
<g id="edge13" class="edge"><title>pr_bbbc2e3a&#45;a293&#45;4cf4&#45;a744&#45;1f95394de427&#45;&gt;CASP8</title>
<path fill="none" stroke="black" d="M74.755,-960.173C74.7116,-951.218 74.9487,-942.177 75.4665,-934.167"/>
<polygon fill="black" stroke="black" points="78.9721,-934.253 76.3465,-923.989 71.9981,-933.65 78.9721,-934.253"/>
</g>
<!-- TRADD/FADD -->
<g id="node9" class="node"><title>TRADD/FADD</title>
<ellipse fill="none" stroke="black" cx="113.5" cy="-1118.68" rx="23.1702" ry="23.1702"/>
<text text-anchor="middle" x="113.5" y="-1117.48" font-family="Times,serif" font-size="4.00">TRADD/FADD</text>
</g>
<!-- TRADD/FADD&#45;&gt;pr_bbbc2e3a&#45;a293&#45;4cf4&#45;a744&#45;1f95394de427 -->
<g id="edge14" class="edge"><title>TRADD/FADD&#45;&gt;pr_bbbc2e3a&#45;a293&#45;4cf4&#45;a744&#45;1f95394de427</title>
<path fill="none" stroke="black" d="M107.024,-1096.06C104.641,-1088.1 101.814,-1078.66 98.9254,-1069.02"/>
<polygon fill="black" stroke="black" points="102.252,-1067.93 96.0297,-1059.35 95.5463,-1069.93 102.252,-1067.93"/>
</g>
<!-- CASP3 -->
<g id="node10" class="node"><title>CASP3</title>
<ellipse fill="none" stroke="black" cx="81.5" cy="-694.598" rx="18" ry="18"/>
<text text-anchor="middle" x="81.5" y="-693.398" font-family="Times,serif" font-size="4.00">CASP3</text>
</g>
<!-- CASP3&#45;&gt;pr_d510bee4&#45;676c&#45;4936&#45;917e&#45;ad3a16fa472d -->
<g id="edge15" class="edge"><title>CASP3&#45;&gt;pr_d510bee4&#45;676c&#45;4936&#45;917e&#45;ad3a16fa472d</title>
<path fill="none" stroke="black" d="M86.5551,-712.055C87.5011,-720.361 88.0511,-730.999 88.2051,-742.016"/>
<polygon fill="black" stroke="black" points="84.7055,-742.195 88.2352,-752.185 91.7055,-742.174 84.7055,-742.195"/>
</g>
<!-- pr_d510bee4&#45;676c&#45;4936&#45;917e&#45;ad3a16fa472d&#45;&gt;CASP3 -->
<g id="edge16" class="edge"><title>pr_d510bee4&#45;676c&#45;4936&#45;917e&#45;ad3a16fa472d&#45;&gt;CASP3</title>
<path fill="none" stroke="black" d="M74.7648,-752.185C74.6818,-741.796 74.9477,-731.214 75.5627,-722.056"/>
<polygon fill="black" stroke="black" points="79.0525,-722.324 76.4449,-712.055 72.0796,-721.709 79.0525,-722.324"/>
</g>
<!-- CASP9 -->
<g id="node12" class="node"><title>CASP9</title>
<ellipse fill="none" stroke="black" cx="286.5" cy="-906.342" rx="18" ry="18"/>
<text text-anchor="middle" x="286.5" y="-905.142" font-family="Times,serif" font-size="4.00">CASP9</text>
</g>
<!-- CASP9&#45;&gt;pr_d510bee4&#45;676c&#45;4936&#45;917e&#45;ad3a16fa472d -->
<g id="edge17" class="edge"><title>CASP9&#45;&gt;pr_d510bee4&#45;676c&#45;4936&#45;917e&#45;ad3a16fa472d</title>
<path fill="none" stroke="black" d="M269.025,-901.099C240.751,-893.785 183.776,-877.157 140.5,-852.342 140.406,-852.288 140.312,-852.234 140.218,-852.18"/>
<polygon fill="black" stroke="black" points="141.863,-849.08 131.525,-846.758 138.158,-855.02 141.863,-849.08"/>
</g>
<!-- pr_41922e7e&#45;d055&#45;4528&#45;a0e7&#45;c094171cf7cd -->
<g id="node13" class="node"><title>pr_41922e7e&#45;d055&#45;4528&#45;a0e7&#45;c094171cf7cd</title>
<polygon fill="none" stroke="black" points="372.5,-636.355 272.5,-636.355 272.5,-536.355 372.5,-536.355 372.5,-636.355"/>
<text text-anchor="middle" x="322.5" y="-585.155" font-family="Times,serif" font-size="4.00">pr_41922e7e&#45;d055&#45;4528&#45;a0e7&#45;c094171cf7cd</text>
</g>
<!-- CASP9&#45;&gt;pr_41922e7e&#45;d055&#45;4528&#45;a0e7&#45;c094171cf7cd -->
<g id="edge18" class="edge"><title>CASP9&#45;&gt;pr_41922e7e&#45;d055&#45;4528&#45;a0e7&#45;c094171cf7cd</title>
<path fill="none" stroke="black" d="M285.173,-888.245C286.475,-843.398 299.653,-720.73 310.399,-646.599"/>
<polygon fill="black" stroke="black" points="313.896,-646.878 311.898,-636.474 306.971,-645.853 313.896,-646.878"/>
</g>
<!-- CASP9&#45;&gt;pr_b3491de1&#45;84d9&#45;4b32&#45;883e&#45;8a2f5a88ea7b -->
<g id="edge19" class="edge"><title>CASP9&#45;&gt;pr_b3491de1&#45;84d9&#45;4b32&#45;883e&#45;8a2f5a88ea7b</title>
<path fill="none" stroke="black" d="M275.126,-892.007C268.023,-883.679 258.338,-872.324 248.27,-860.52"/>
<polygon fill="black" stroke="black" points="250.775,-858.063 241.622,-852.726 245.449,-862.606 250.775,-858.063"/>
</g>
<!-- pr_a72d77e6&#45;588d&#45;47f0&#45;ab0b&#45;61c1240f0d55 -->
<g id="node42" class="node"><title>pr_a72d77e6&#45;588d&#45;47f0&#45;ab0b&#45;61c1240f0d55</title>
<polygon fill="none" stroke="black" points="423,-851.842 324,-851.842 324,-752.842 423,-752.842 423,-851.842"/>
<text text-anchor="middle" x="373.5" y="-801.142" font-family="Times,serif" font-size="4.00">pr_a72d77e6&#45;588d&#45;47f0&#45;ab0b&#45;61c1240f0d55</text>
</g>
<!-- CASP9&#45;&gt;pr_a72d77e6&#45;588d&#45;47f0&#45;ab0b&#45;61c1240f0d55 -->
<g id="edge20" class="edge"><title>CASP9&#45;&gt;pr_a72d77e6&#45;588d&#45;47f0&#45;ab0b&#45;61c1240f0d55</title>
<path fill="none" stroke="black" d="M297.874,-892.007C305.053,-883.59 314.869,-872.082 325.051,-860.143"/>
<polygon fill="black" stroke="black" points="327.945,-862.144 331.772,-852.264 322.619,-857.601 327.945,-862.144"/>
</g>
<!-- pr_41922e7e&#45;d055&#45;4528&#45;a0e7&#45;c094171cf7cd&#45;&gt;CASP9 -->
<g id="edge21" class="edge"><title>pr_41922e7e&#45;d055&#45;4528&#45;a0e7&#45;c094171cf7cd&#45;&gt;CASP9</title>
<path fill="none" stroke="black" d="M321.988,-636.375C316.882,-704.441 302.847,-825.222 293.476,-878.649"/>
<polygon fill="black" stroke="black" points="289.995,-878.222 291.61,-888.693 296.878,-879.501 289.995,-878.222"/>
</g>
<!-- Apoptosome -->
<g id="node14" class="node"><title>Apoptosome</title>
<ellipse fill="none" stroke="black" cx="359.5" cy="-694.598" rx="21.9898" ry="21.9898"/>
<text text-anchor="middle" x="359.5" y="-693.398" font-family="Times,serif" font-size="4.00">Apoptosome</text>
</g>
<!-- Apoptosome&#45;&gt;pr_41922e7e&#45;d055&#45;4528&#45;a0e7&#45;c094171cf7cd -->
<g id="edge22" class="edge"><title>Apoptosome&#45;&gt;pr_41922e7e&#45;d055&#45;4528&#45;a0e7&#45;c094171cf7cd</title>
<path fill="none" stroke="black" d="M352.541,-673.615C349.749,-665.597 346.373,-655.904 342.907,-645.951"/>
<polygon fill="black" stroke="black" points="346.166,-644.668 339.572,-636.375 339.555,-646.97 346.166,-644.668"/>
</g>
<!-- AKT1 -->
<g id="node15" class="node"><title>AKT1</title>
<ellipse fill="none" stroke="black" cx="529.5" cy="-906.342" rx="18" ry="18"/>
<text text-anchor="middle" x="529.5" y="-905.142" font-family="Times,serif" font-size="4.00">AKT1</text>
</g>
<!-- AKT1&#45;&gt;pr_41922e7e&#45;d055&#45;4528&#45;a0e7&#45;c094171cf7cd -->
<g id="edge23" class="edge"><title>AKT1&#45;&gt;pr_41922e7e&#45;d055&#45;4528&#45;a0e7&#45;c094171cf7cd</title>
<path fill="none" stroke="black" d="M515.086,-895.508C501.898,-885.863 482.647,-870.057 470.5,-852.342 443.613,-813.129 452.088,-795.665 432.5,-752.342 416.039,-715.934 412.363,-706.298 390.5,-672.855 384.32,-663.4 377.335,-653.718 370.254,-644.425"/>
<polygon fill="black" stroke="black" points="372.912,-642.141 364.025,-636.374 367.376,-646.425 372.912,-642.141"/>
</g>
<!-- pr_7ca88f3f&#45;ed88&#45;4ce9&#45;92d3&#45;8f23c8635219 -->
<g id="node27" class="node"><title>pr_7ca88f3f&#45;ed88&#45;4ce9&#45;92d3&#45;8f23c8635219</title>
<polygon fill="none" stroke="black" points="695.5,-851.342 597.5,-851.342 597.5,-753.342 695.5,-753.342 695.5,-851.342"/>
<text text-anchor="middle" x="646.5" y="-801.142" font-family="Times,serif" font-size="4.00">pr_7ca88f3f&#45;ed88&#45;4ce9&#45;92d3&#45;8f23c8635219</text>
</g>
<!-- AKT1&#45;&gt;pr_7ca88f3f&#45;ed88&#45;4ce9&#45;92d3&#45;8f23c8635219 -->
<g id="edge24" class="edge"><title>AKT1&#45;&gt;pr_7ca88f3f&#45;ed88&#45;4ce9&#45;92d3&#45;8f23c8635219</title>
<path fill="none" stroke="black" d="M540.491,-891.585C552.058,-880.166 570.805,-863.269 589.374,-847.309"/>
<polygon fill="black" stroke="black" points="591.966,-849.699 597.3,-840.545 587.422,-844.374 591.966,-849.699"/>
</g>
<!-- AKT1&#45;&gt;pr_a72d77e6&#45;588d&#45;47f0&#45;ab0b&#45;61c1240f0d55 -->
<g id="edge25" class="edge"><title>AKT1&#45;&gt;pr_a72d77e6&#45;588d&#45;47f0&#45;ab0b&#45;61c1240f0d55</title>
<path fill="none" stroke="black" d="M513.826,-897.126C495.211,-887.185 463.419,-869.623 437.5,-852.342 435.608,-851.08 433.698,-849.781 431.781,-848.455"/>
<polygon fill="black" stroke="black" points="433.539,-845.412 423.354,-842.495 429.497,-851.127 433.539,-845.412"/>
</g>
<!-- pr_8ee61c61&#45;5bd3&#45;45c8&#45;bf7c&#45;e874883de019 -->
<g id="node44" class="node"><title>pr_8ee61c61&#45;5bd3&#45;45c8&#45;bf7c&#45;e874883de019</title>
<polygon fill="none" stroke="black" points="579.5,-852.342 479.5,-852.342 479.5,-752.342 579.5,-752.342 579.5,-852.342"/>
<text text-anchor="middle" x="529.5" y="-801.142" font-family="Times,serif" font-size="4.00">pr_8ee61c61&#45;5bd3&#45;45c8&#45;bf7c&#45;e874883de019</text>
</g>
<!-- AKT1&#45;&gt;pr_8ee61c61&#45;5bd3&#45;45c8&#45;bf7c&#45;e874883de019 -->
<g id="edge26" class="edge"><title>AKT1&#45;&gt;pr_8ee61c61&#45;5bd3&#45;45c8&#45;bf7c&#45;e874883de019</title>
<path fill="none" stroke="black" d="M529.5,-888.039C529.5,-880.776 529.5,-871.863 529.5,-862.576"/>
<polygon fill="black" stroke="black" points="533,-862.411 529.5,-852.411 526,-862.411 533,-862.411"/>
</g>
<!-- BID -->
<g id="node16" class="node"><title>BID</title>
<ellipse fill="none" stroke="black" cx="181.5" cy="-237.229" rx="18" ry="18"/>
<text text-anchor="middle" x="181.5" y="-236.029" font-family="Times,serif" font-size="4.00">BID</text>
</g>
<!-- BID&#45;&gt;pr_46bb08a0&#45;ebb6&#45;43e6&#45;946e&#45;f7d825d02bae -->
<g id="edge27" class="edge"><title>BID&#45;&gt;pr_46bb08a0&#45;ebb6&#45;43e6&#45;946e&#45;f7d825d02bae</title>
<path fill="none" stroke="black" d="M186.414,-254.789C187.576,-265.127 188.186,-279.131 188.245,-293.321"/>
<polygon fill="black" stroke="black" points="184.744,-293.618 188.191,-303.636 191.744,-293.655 184.744,-293.618"/>
</g>
<!-- pr_ef6cf618&#45;91c9&#45;4599&#45;b017&#45;42b8e7ba3699 -->
<g id="node19" class="node"><title>pr_ef6cf618&#45;91c9&#45;4599&#45;b017&#45;42b8e7ba3699</title>
<polygon fill="none" stroke="black" points="527,-171 428,-171 428,-72 527,-72 527,-171"/>
<text text-anchor="middle" x="477.5" y="-120.3" font-family="Times,serif" font-size="4.00">pr_ef6cf618&#45;91c9&#45;4599&#45;b017&#45;42b8e7ba3699</text>
</g>
<!-- BID&#45;&gt;pr_ef6cf618&#45;91c9&#45;4599&#45;b017&#45;42b8e7ba3699 -->
<g id="edge28" class="edge"><title>BID&#45;&gt;pr_ef6cf618&#45;91c9&#45;4599&#45;b017&#45;42b8e7ba3699</title>
<path fill="none" stroke="black" d="M198.262,-229.788C239.903,-213.789 349.651,-171.622 418.506,-145.167"/>
<polygon fill="black" stroke="black" points="419.86,-148.396 427.939,-141.542 417.349,-141.862 419.86,-148.396"/>
</g>
<!-- pr_46bb08a0&#45;ebb6&#45;43e6&#45;946e&#45;f7d825d02bae&#45;&gt;BID -->
<g id="edge29" class="edge"><title>pr_46bb08a0&#45;ebb6&#45;43e6&#45;946e&#45;f7d825d02bae&#45;&gt;BID</title>
<path fill="none" stroke="black" d="M174.809,-303.636C174.613,-290.381 174.905,-276.542 175.687,-265.025"/>
<polygon fill="black" stroke="black" points="179.197,-265.057 176.586,-254.789 172.224,-264.444 179.197,-265.057"/>
</g>
<!-- BAX -->
<g id="node18" class="node"><title>BAX</title>
<ellipse fill="none" stroke="black" cx="477.5" cy="-18" rx="18" ry="18"/>
<text text-anchor="middle" x="477.5" y="-16.8" font-family="Times,serif" font-size="4.00">BAX</text>
</g>
<!-- BAX&#45;&gt;pr_ef6cf618&#45;91c9&#45;4599&#45;b017&#45;42b8e7ba3699 -->
<g id="edge30" class="edge"><title>BAX&#45;&gt;pr_ef6cf618&#45;91c9&#45;4599&#45;b017&#45;42b8e7ba3699</title>
<path fill="none" stroke="black" d="M482.654,-35.647C483.488,-43.0329 483.995,-52.2125 484.175,-61.7797"/>
<polygon fill="black" stroke="black" points="480.676,-61.8555 484.245,-71.831 487.676,-61.807 480.676,-61.8555"/>
</g>
<!-- pr_ef6cf618&#45;91c9&#45;4599&#45;b017&#45;42b8e7ba3699&#45;&gt;BAX -->
<g id="edge31" class="edge"><title>pr_ef6cf618&#45;91c9&#45;4599&#45;b017&#45;42b8e7ba3699&#45;&gt;BAX</title>
<path fill="none" stroke="black" d="M470.755,-71.831C470.712,-62.8766 470.949,-53.8356 471.467,-45.8256"/>
<polygon fill="black" stroke="black" points="474.972,-45.9113 472.346,-35.647 467.998,-45.3084 474.972,-45.9113"/>
</g>
<!-- BAD/BBC3/BCL2L11 -->
<g id="node20" class="node"><title>BAD/BBC3/BCL2L11</title>
<ellipse fill="none" stroke="black" cx="477.5" cy="-237.229" rx="30.4594" ry="30.4594"/>
<text text-anchor="middle" x="477.5" y="-236.029" font-family="Times,serif" font-size="4.00">BAD/BBC3/BCL2L11</text>
</g>
<!-- BAD/BBC3/BCL2L11&#45;&gt;pr_ef6cf618&#45;91c9&#45;4599&#45;b017&#45;42b8e7ba3699 -->
<g id="edge32" class="edge"><title>BAD/BBC3/BCL2L11&#45;&gt;pr_ef6cf618&#45;91c9&#45;4599&#45;b017&#45;42b8e7ba3699</title>
<path fill="none" stroke="black" d="M477.5,-206.941C477.5,-199.003 477.5,-190.119 477.5,-181.176"/>
<polygon fill="black" stroke="black" points="481,-181.1 477.5,-171.1 474,-181.1 481,-181.1"/>
</g>
<!-- pr_6ba26ae6&#45;0408&#45;4162&#45;8660&#45;a726151348a7 -->
<g id="node34" class="node"><title>pr_6ba26ae6&#45;0408&#45;4162&#45;8660&#45;a726151348a7</title>
<polygon fill="none" stroke="black" points="528,-404.458 427,-404.458 427,-303.458 528,-303.458 528,-404.458"/>
<text text-anchor="middle" x="477.5" y="-352.758" font-family="Times,serif" font-size="4.00">pr_6ba26ae6&#45;0408&#45;4162&#45;8660&#45;a726151348a7</text>
</g>
<!-- BAD/BBC3/BCL2L11&#45;&gt;pr_6ba26ae6&#45;0408&#45;4162&#45;8660&#45;a726151348a7 -->
<g id="edge33" class="edge"><title>BAD/BBC3/BCL2L11&#45;&gt;pr_6ba26ae6&#45;0408&#45;4162&#45;8660&#45;a726151348a7</title>
<path fill="none" stroke="black" d="M483.449,-267.131C483.938,-275.107 484.203,-284.066 484.244,-293.108"/>
<polygon fill="black" stroke="black" points="480.744,-293.286 484.196,-303.303 487.743,-293.32 480.744,-293.286"/>
</g>
<!-- BCL2/MCL1/BCL2L1 -->
<g id="node21" class="node"><title>BCL2/MCL1/BCL2L1</title>
<ellipse fill="none" stroke="black" cx="556.5" cy="-470.156" rx="29.8983" ry="29.8983"/>
<text text-anchor="middle" x="556.5" y="-468.956" font-family="Times,serif" font-size="4.00">BCL2/MCL1/BCL2L1</text>
</g>
<!-- BCL2/MCL1/BCL2L1&#45;&gt;pr_ef6cf618&#45;91c9&#45;4599&#45;b017&#45;42b8e7ba3699 -->
<g id="edge34" class="edge"><title>BCL2/MCL1/BCL2L1&#45;&gt;pr_ef6cf618&#45;91c9&#45;4599&#45;b017&#45;42b8e7ba3699</title>
<path fill="none" stroke="black" d="M555.333,-440.472C552.638,-391.434 543.932,-288.85 516.5,-207 513.597,-198.337 510.073,-189.379 506.345,-180.677"/>
<polygon fill="black" stroke="black" points="509.475,-179.102 502.239,-171.363 503.07,-181.925 509.475,-179.102"/>
</g>
<!-- BCL2/MCL1/BCL2L1&#45;&gt;pr_6ba26ae6&#45;0408&#45;4162&#45;8660&#45;a726151348a7 -->
<g id="edge35" class="edge"><title>BCL2/MCL1/BCL2L1&#45;&gt;pr_6ba26ae6&#45;0408&#45;4162&#45;8660&#45;a726151348a7</title>
<path fill="none" stroke="black" d="M539.939,-445.216C533.386,-435.743 525.543,-424.406 517.665,-413.018"/>
<polygon fill="black" stroke="black" points="520.508,-410.976 511.94,-404.743 514.751,-414.958 520.508,-410.976"/>
</g>
<!-- pr_b4d37c97&#45;e199&#45;401e&#45;bdca&#45;523498174967 -->
<g id="node35" class="node"><title>pr_b4d37c97&#45;e199&#45;401e&#45;bdca&#45;523498174967</title>
<polygon fill="none" stroke="black" points="607,-636.855 506,-636.855 506,-535.855 607,-535.855 607,-636.855"/>
<text text-anchor="middle" x="556.5" y="-585.155" font-family="Times,serif" font-size="4.00">pr_b4d37c97&#45;e199&#45;401e&#45;bdca&#45;523498174967</text>
</g>
<!-- BCL2/MCL1/BCL2L1&#45;&gt;pr_b4d37c97&#45;e199&#45;401e&#45;bdca&#45;523498174967 -->
<g id="edge36" class="edge"><title>BCL2/MCL1/BCL2L1&#45;&gt;pr_b4d37c97&#45;e199&#45;401e&#45;bdca&#45;523498174967</title>
<path fill="none" stroke="black" d="M562.418,-499.428C562.92,-507.375 563.195,-516.332 563.242,-525.384"/>
<polygon fill="black" stroke="black" points="559.742,-525.583 563.2,-535.598 566.742,-525.612 559.742,-525.583"/>
</g>
<!-- CYCS -->
<g id="node22" class="node"><title>CYCS</title>
<ellipse fill="none" stroke="black" cx="763.5" cy="-906.342" rx="18" ry="18"/>
<text text-anchor="middle" x="763.5" y="-905.142" font-family="Times,serif" font-size="4.00">CYCS</text>
</g>
<!-- pr_e39c31d6&#45;bfa1&#45;4001&#45;ae29&#45;088e87db1fcc -->
<g id="node23" class="node"><title>pr_e39c31d6&#45;bfa1&#45;4001&#45;ae29&#45;088e87db1fcc</title>
<polygon fill="none" stroke="black" points="813,-851.842 714,-851.842 714,-752.842 813,-752.842 813,-851.842"/>
<text text-anchor="middle" x="763.5" y="-801.142" font-family="Times,serif" font-size="4.00">pr_e39c31d6&#45;bfa1&#45;4001&#45;ae29&#45;088e87db1fcc</text>
</g>
<!-- CYCS&#45;&gt;pr_e39c31d6&#45;bfa1&#45;4001&#45;ae29&#45;088e87db1fcc -->
<g id="edge37" class="edge"><title>CYCS&#45;&gt;pr_e39c31d6&#45;bfa1&#45;4001&#45;ae29&#45;088e87db1fcc</title>
<path fill="none" stroke="black" d="M758.385,-888.954C757.514,-881.351 756.991,-871.806 756.816,-861.871"/>
<polygon fill="black" stroke="black" points="760.316,-861.842 756.757,-851.863 753.316,-861.884 760.316,-861.842"/>
</g>
<!-- CYCS&#45;&gt;pr_a72d77e6&#45;588d&#45;47f0&#45;ab0b&#45;61c1240f0d55 -->
<g id="edge38" class="edge"><title>CYCS&#45;&gt;pr_a72d77e6&#45;588d&#45;47f0&#45;ab0b&#45;61c1240f0d55</title>
<path fill="none" stroke="black" d="M745.92,-901.961C727.787,-898.488 698.682,-892.953 673.5,-888.342 583.369,-871.838 557.431,-881.308 470.5,-852.342 457.805,-848.112 444.7,-842.465 432.385,-836.51"/>
<polygon fill="black" stroke="black" points="433.655,-833.233 423.142,-831.916 430.539,-839.501 433.655,-833.233"/>
</g>
<!-- pr_e39c31d6&#45;bfa1&#45;4001&#45;ae29&#45;088e87db1fcc&#45;&gt;CYCS -->
<g id="edge39" class="edge"><title>pr_e39c31d6&#45;bfa1&#45;4001&#45;ae29&#45;088e87db1fcc&#45;&gt;CYCS</title>
<path fill="none" stroke="black" d="M770.243,-851.863C770.296,-861.155 770.05,-870.556 769.504,-878.83"/>
<polygon fill="black" stroke="black" points="766.004,-878.686 768.615,-888.954 772.977,-879.298 766.004,-878.686"/>
</g>
<!-- MAPK14 -->
<g id="node24" class="node"><title>MAPK14</title>
<ellipse fill="none" stroke="black" cx="853.5" cy="-906.342" rx="18" ry="18"/>
<text text-anchor="middle" x="853.5" y="-905.142" font-family="Times,serif" font-size="4.00">MAPK14</text>
</g>
<!-- MAPK14&#45;&gt;pr_e39c31d6&#45;bfa1&#45;4001&#45;ae29&#45;088e87db1fcc -->
<g id="edge40" class="edge"><title>MAPK14&#45;&gt;pr_e39c31d6&#45;bfa1&#45;4001&#45;ae29&#45;088e87db1fcc</title>
<path fill="none" stroke="black" d="M841.734,-892.007C834.237,-883.51 823.959,-871.862 813.318,-859.802"/>
<polygon fill="black" stroke="black" points="815.908,-857.447 806.667,-852.264 810.659,-862.078 815.908,-857.447"/>
</g>
<!-- pr_019b83bb&#45;164d&#45;4e55&#45;b0ec&#45;058f334c7ebf -->
<g id="node32" class="node"><title>pr_019b83bb&#45;164d&#45;4e55&#45;b0ec&#45;058f334c7ebf</title>
<polygon fill="none" stroke="black" points="930,-851.842 831,-851.842 831,-752.842 930,-752.842 930,-851.842"/>
<text text-anchor="middle" x="880.5" y="-801.142" font-family="Times,serif" font-size="4.00">pr_019b83bb&#45;164d&#45;4e55&#45;b0ec&#45;058f334c7ebf</text>
</g>
<!-- MAPK14&#45;&gt;pr_019b83bb&#45;164d&#45;4e55&#45;b0ec&#45;058f334c7ebf -->
<g id="edge41" class="edge"><title>MAPK14&#45;&gt;pr_019b83bb&#45;164d&#45;4e55&#45;b0ec&#45;058f334c7ebf</title>
<path fill="none" stroke="black" d="M852.863,-888.039C854.033,-880.536 855.995,-871.272 858.376,-861.654"/>
<polygon fill="black" stroke="black" points="861.765,-862.529 860.884,-851.97 854.989,-860.774 861.765,-862.529"/>
</g>
<!-- CASP7 -->
<g id="node25" class="node"><title>CASP7</title>
<ellipse fill="none" stroke="black" cx="199.5" cy="-694.598" rx="18" ry="18"/>
<text text-anchor="middle" x="199.5" y="-693.398" font-family="Times,serif" font-size="4.00">CASP7</text>
</g>
<!-- CASP7&#45;&gt;pr_b3491de1&#45;84d9&#45;4b32&#45;883e&#45;8a2f5a88ea7b -->
<g id="edge42" class="edge"><title>CASP7&#45;&gt;pr_b3491de1&#45;84d9&#45;4b32&#45;883e&#45;8a2f5a88ea7b</title>
<path fill="none" stroke="black" d="M204.555,-712.055C205.501,-720.361 206.051,-730.999 206.205,-742.016"/>
<polygon fill="black" stroke="black" points="202.706,-742.195 206.235,-752.185 209.705,-742.174 202.706,-742.195"/>
</g>
<!-- pr_b3491de1&#45;84d9&#45;4b32&#45;883e&#45;8a2f5a88ea7b&#45;&gt;CASP7 -->
<g id="edge43" class="edge"><title>pr_b3491de1&#45;84d9&#45;4b32&#45;883e&#45;8a2f5a88ea7b&#45;&gt;CASP7</title>
<path fill="none" stroke="black" d="M192.765,-752.185C192.682,-741.796 192.948,-731.214 193.563,-722.056"/>
<polygon fill="black" stroke="black" points="197.053,-722.324 194.445,-712.055 190.08,-721.709 197.053,-722.324"/>
</g>
<!-- pr_7ca88f3f&#45;ed88&#45;4ce9&#45;92d3&#45;8f23c8635219&#45;&gt;AKT1 -->
<g id="edge44" class="edge"><title>pr_7ca88f3f&#45;ed88&#45;4ce9&#45;92d3&#45;8f23c8635219&#45;&gt;AKT1</title>
<path fill="none" stroke="black" d="M598.102,-851.411C582.303,-865.266 565.506,-879.411 552.424,-889.736"/>
<polygon fill="black" stroke="black" points="550.183,-887.044 544.411,-895.929 554.463,-892.583 550.183,-887.044"/>
</g>
<!-- M -->
<g id="node28" class="node"><title>M</title>
<ellipse fill="none" stroke="black" cx="646.5" cy="-906.342" rx="18" ry="18"/>
<text text-anchor="middle" x="646.5" y="-905.142" font-family="Times,serif" font-size="4.00">M</text>
</g>
<!-- M&#45;&gt;pr_7ca88f3f&#45;ed88&#45;4ce9&#45;92d3&#45;8f23c8635219 -->
<g id="edge45" class="edge"><title>M&#45;&gt;pr_7ca88f3f&#45;ed88&#45;4ce9&#45;92d3&#45;8f23c8635219</title>
<path fill="none" stroke="black" d="M646.5,-888.039C646.5,-880.53 646.5,-871.257 646.5,-861.631"/>
<polygon fill="black" stroke="black" points="650,-861.53 646.5,-851.53 643,-861.53 650,-861.53"/>
</g>
<!-- pr_2b2ed6db&#45;ab97&#45;4439&#45;a776&#45;7316345fec82&#45;&gt;TRADD/FADD -->
<g id="edge46" class="edge"><title>pr_2b2ed6db&#45;ab97&#45;4439&#45;a776&#45;7316345fec82&#45;&gt;TRADD/FADD</title>
<path fill="none" stroke="black" d="M121.074,-1177.74C119.934,-1169 118.774,-1160.11 117.716,-1152"/>
<polygon fill="black" stroke="black" points="121.157,-1151.32 116.393,-1141.85 114.216,-1152.22 121.157,-1151.32"/>
</g>
<!-- TRADD -->
<g id="node30" class="node"><title>TRADD</title>
<ellipse fill="none" stroke="black" cx="187.5" cy="-1338.41" rx="18" ry="18"/>
<text text-anchor="middle" x="187.5" y="-1337.21" font-family="Times,serif" font-size="4.00">TRADD</text>
</g>
<!-- TRADD&#45;&gt;pr_2b2ed6db&#45;ab97&#45;4439&#45;a776&#45;7316345fec82 -->
<g id="edge47" class="edge"><title>TRADD&#45;&gt;pr_2b2ed6db&#45;ab97&#45;4439&#45;a776&#45;7316345fec82</title>
<path fill="none" stroke="black" d="M179.157,-1322.33C173.977,-1312.98 166.952,-1300.28 159.753,-1287.28"/>
<polygon fill="black" stroke="black" points="162.667,-1285.32 154.762,-1278.26 156.543,-1288.71 162.667,-1285.32"/>
</g>
<!-- TNF/TNFRSF1A -->
<g id="node31" class="node"><title>TNF/TNFRSF1A</title>
<ellipse fill="none" stroke="black" cx="127.5" cy="-1338.41" rx="24.2908" ry="24.2908"/>
<text text-anchor="middle" x="127.5" y="-1337.21" font-family="Times,serif" font-size="4.00">TNF/TNFRSF1A</text>
</g>
<!-- TNF/TNFRSF1A&#45;&gt;pr_2b2ed6db&#45;ab97&#45;4439&#45;a776&#45;7316345fec82 -->
<g id="edge48" class="edge"><title>TNF/TNFRSF1A&#45;&gt;pr_2b2ed6db&#45;ab97&#45;4439&#45;a776&#45;7316345fec82</title>
<path fill="none" stroke="black" d="M127.5,-1313.89C127.5,-1306.29 127.5,-1297.49 127.5,-1288.49"/>
<polygon fill="black" stroke="black" points="131,-1288.3 127.5,-1278.3 124,-1288.3 131,-1288.3"/>
</g>
<!-- pr_019b83bb&#45;164d&#45;4e55&#45;b0ec&#45;058f334c7ebf&#45;&gt;MAPK14 -->
<g id="edge49" class="edge"><title>pr_019b83bb&#45;164d&#45;4e55&#45;b0ec&#45;058f334c7ebf&#45;&gt;MAPK14</title>
<path fill="none" stroke="black" d="M874.332,-852.12C871.743,-862.094 868.779,-872.182 865.845,-880.854"/>
<polygon fill="black" stroke="black" points="862.542,-879.697 862.439,-890.291 869.126,-882.073 862.542,-879.697"/>
</g>
<!-- Orf3a -->
<g id="node33" class="node"><title>Orf3a</title>
<ellipse fill="none" stroke="black" cx="907.5" cy="-906.342" rx="18" ry="18"/>
<text text-anchor="middle" x="907.5" y="-905.142" font-family="Times,serif" font-size="4.00">Orf3a</text>
</g>
<!-- Orf3a&#45;&gt;pr_019b83bb&#45;164d&#45;4e55&#45;b0ec&#45;058f334c7ebf -->
<g id="edge50" class="edge"><title>Orf3a&#45;&gt;pr_019b83bb&#45;164d&#45;4e55&#45;b0ec&#45;058f334c7ebf</title>
<path fill="none" stroke="black" d="M903.041,-888.498C901.042,-880.945 898.553,-871.54 895.965,-861.764"/>
<polygon fill="black" stroke="black" points="899.301,-860.691 893.359,-851.919 892.534,-862.482 899.301,-860.691"/>
</g>
<!-- pr_6ba26ae6&#45;0408&#45;4162&#45;8660&#45;a726151348a7&#45;&gt;BAD/BBC3/BCL2L11 -->
<g id="edge51" class="edge"><title>pr_6ba26ae6&#45;0408&#45;4162&#45;8660&#45;a726151348a7&#45;&gt;BAD/BBC3/BCL2L11</title>
<path fill="none" stroke="black" d="M470.804,-303.303C470.681,-294.617 470.767,-285.69 471.063,-277.339"/>
<polygon fill="black" stroke="black" points="474.57,-277.287 471.551,-267.131 467.578,-276.953 474.57,-277.287"/>
</g>
<!-- pr_b4d37c97&#45;e199&#45;401e&#45;bdca&#45;523498174967&#45;&gt;BCL2/MCL1/BCL2L1 -->
<g id="edge52" class="edge"><title>pr_b4d37c97&#45;e199&#45;401e&#45;bdca&#45;523498174967&#45;&gt;BCL2/MCL1/BCL2L1</title>
<path fill="none" stroke="black" d="M549.8,-535.598C549.681,-526.892 549.775,-517.954 550.08,-509.613"/>
<polygon fill="black" stroke="black" points="553.586,-509.588 550.582,-499.428 546.594,-509.244 553.586,-509.588"/>
</g>
<!-- Orf7a -->
<g id="node36" class="node"><title>Orf7a</title>
<ellipse fill="none" stroke="black" cx="583.5" cy="-694.598" rx="18" ry="18"/>
<text text-anchor="middle" x="583.5" y="-693.398" font-family="Times,serif" font-size="4.00">Orf7a</text>
</g>
<!-- Orf7a&#45;&gt;pr_b4d37c97&#45;e199&#45;401e&#45;bdca&#45;523498174967 -->
<g id="edge53" class="edge"><title>Orf7a&#45;&gt;pr_b4d37c97&#45;e199&#45;401e&#45;bdca&#45;523498174967</title>
<path fill="none" stroke="black" d="M579.281,-676.998C577.148,-668.602 574.414,-657.847 571.587,-646.722"/>
<polygon fill="black" stroke="black" points="574.946,-645.729 569.091,-636.899 568.162,-647.453 574.946,-645.729"/>
</g>
<!-- E -->
<g id="node37" class="node"><title>E</title>
<ellipse fill="none" stroke="black" cx="637.5" cy="-694.598" rx="18" ry="18"/>
<text text-anchor="middle" x="637.5" y="-693.398" font-family="Times,serif" font-size="4.00">E</text>
</g>
<!-- E&#45;&gt;pr_b4d37c97&#45;e199&#45;401e&#45;bdca&#45;523498174967 -->
<g id="edge54" class="edge"><title>E&#45;&gt;pr_b4d37c97&#45;e199&#45;401e&#45;bdca&#45;523498174967</title>
<path fill="none" stroke="black" d="M626.911,-679.709C619.95,-670.579 610.327,-657.956 600.428,-644.973"/>
<polygon fill="black" stroke="black" points="603.097,-642.701 594.251,-636.87 597.53,-646.945 603.097,-642.701"/>
</g>
<!-- BAD -->
<g id="node38" class="node"><title>BAD</title>
<ellipse fill="none" stroke="black" cx="529.5" cy="-694.598" rx="18" ry="18"/>
<text text-anchor="middle" x="529.5" y="-693.398" font-family="Times,serif" font-size="4.00">BAD</text>
</g>
<!-- BAD&#45;&gt;pr_b4d37c97&#45;e199&#45;401e&#45;bdca&#45;523498174967 -->
<g id="edge55" class="edge"><title>BAD&#45;&gt;pr_b4d37c97&#45;e199&#45;401e&#45;bdca&#45;523498174967</title>
<path fill="none" stroke="black" d="M533.719,-676.998C535.852,-668.602 538.586,-657.847 541.413,-646.722"/>
<polygon fill="black" stroke="black" points="544.838,-647.453 543.909,-636.899 538.054,-645.729 544.838,-647.453"/>
</g>
<!-- BAD&#45;&gt;pr_8ee61c61&#45;5bd3&#45;45c8&#45;bf7c&#45;e874883de019 -->
<g id="edge56" class="edge"><title>BAD&#45;&gt;pr_8ee61c61&#45;5bd3&#45;45c8&#45;bf7c&#45;e874883de019</title>
<path fill="none" stroke="black" d="M534.555,-712.055C535.501,-720.361 536.051,-730.999 536.205,-742.016"/>
<polygon fill="black" stroke="black" points="532.706,-742.195 536.235,-752.185 539.705,-742.174 532.706,-742.195"/>
</g>
<!-- TNFRSF1A -->
<g id="node39" class="node"><title>TNFRSF1A</title>
<ellipse fill="none" stroke="black" cx="194.5" cy="-1554.42" rx="19.7452" ry="19.7452"/>
<text text-anchor="middle" x="194.5" y="-1553.22" font-family="Times,serif" font-size="4.00">TNFRSF1A</text>
</g>
<!-- pr_29d1c7d9&#45;adbc&#45;492a&#45;9c0c&#45;94d1c4ab8cfe -->
<g id="node40" class="node"><title>pr_29d1c7d9&#45;adbc&#45;492a&#45;9c0c&#45;94d1c4ab8cfe</title>
<polygon fill="none" stroke="black" points="216.5,-1498.8 116.5,-1498.8 116.5,-1398.8 216.5,-1398.8 216.5,-1498.8"/>
<text text-anchor="middle" x="166.5" y="-1447.6" font-family="Times,serif" font-size="4.00">pr_29d1c7d9&#45;adbc&#45;492a&#45;9c0c&#45;94d1c4ab8cfe</text>
</g>
<!-- TNFRSF1A&#45;&gt;pr_29d1c7d9&#45;adbc&#45;492a&#45;9c0c&#45;94d1c4ab8cfe -->
<g id="edge57" class="edge"><title>TNFRSF1A&#45;&gt;pr_29d1c7d9&#45;adbc&#45;492a&#45;9c0c&#45;94d1c4ab8cfe</title>
<path fill="none" stroke="black" d="M189.623,-1535.37C187.555,-1527.72 185.016,-1518.32 182.387,-1508.59"/>
<polygon fill="black" stroke="black" points="185.729,-1507.55 179.742,-1498.81 178.971,-1509.37 185.729,-1507.55"/>
</g>
<!-- pr_29d1c7d9&#45;adbc&#45;492a&#45;9c0c&#45;94d1c4ab8cfe&#45;&gt;TNF/TNFRSF1A -->
<g id="edge58" class="edge"><title>pr_29d1c7d9&#45;adbc&#45;492a&#45;9c0c&#45;94d1c4ab8cfe&#45;&gt;TNF/TNFRSF1A</title>
<path fill="none" stroke="black" d="M148.826,-1398.68C145.465,-1389.34 142.031,-1379.79 138.929,-1371.17"/>
<polygon fill="black" stroke="black" points="142.142,-1369.76 135.463,-1361.54 135.555,-1372.13 142.142,-1369.76"/>
</g>
<!-- TNF -->
<g id="node41" class="node"><title>TNF</title>
<ellipse fill="none" stroke="black" cx="138.5" cy="-1554.42" rx="18" ry="18"/>
<text text-anchor="middle" x="138.5" y="-1553.22" font-family="Times,serif" font-size="4.00">TNF</text>
</g>
<!-- TNF&#45;&gt;pr_29d1c7d9&#45;adbc&#45;492a&#45;9c0c&#45;94d1c4ab8cfe -->
<g id="edge59" class="edge"><title>TNF&#45;&gt;pr_29d1c7d9&#45;adbc&#45;492a&#45;9c0c&#45;94d1c4ab8cfe</title>
<path fill="none" stroke="black" d="M142.999,-1536.77C145.107,-1528.97 147.761,-1519.15 150.518,-1508.95"/>
<polygon fill="black" stroke="black" points="153.951,-1509.66 153.18,-1499.09 147.193,-1507.84 153.951,-1509.66"/>
</g>
<!-- pr_a72d77e6&#45;588d&#45;47f0&#45;ab0b&#45;61c1240f0d55&#45;&gt;Apoptosome -->
<g id="edge60" class="edge"><title>pr_a72d77e6&#45;588d&#45;47f0&#45;ab0b&#45;61c1240f0d55&#45;&gt;Apoptosome</title>
<path fill="none" stroke="black" d="M367.074,-752.803C365.881,-743.793 364.666,-734.615 363.568,-726.324"/>
<polygon fill="black" stroke="black" points="367.033,-725.829 362.251,-716.375 360.094,-726.748 367.033,-725.829"/>
</g>
<!-- APAF1 -->
<g id="node43" class="node"><title>APAF1</title>
<ellipse fill="none" stroke="black" cx="373.5" cy="-906.342" rx="18" ry="18"/>
<text text-anchor="middle" x="373.5" y="-905.142" font-family="Times,serif" font-size="4.00">APAF1</text>
</g>
<!-- APAF1&#45;&gt;pr_a72d77e6&#45;588d&#45;47f0&#45;ab0b&#45;61c1240f0d55 -->
<g id="edge61" class="edge"><title>APAF1&#45;&gt;pr_a72d77e6&#45;588d&#45;47f0&#45;ab0b&#45;61c1240f0d55</title>
<path fill="none" stroke="black" d="M373.5,-888.039C373.5,-880.692 373.5,-871.658 373.5,-862.255"/>
<polygon fill="black" stroke="black" points="377,-861.97 373.5,-851.97 370,-861.971 377,-861.97"/>
</g>
<!-- pr_8ee61c61&#45;5bd3&#45;45c8&#45;bf7c&#45;e874883de019&#45;&gt;BAD -->
<g id="edge62" class="edge"><title>pr_8ee61c61&#45;5bd3&#45;45c8&#45;bf7c&#45;e874883de019&#45;&gt;BAD</title>
<path fill="none" stroke="black" d="M522.765,-752.185C522.682,-741.796 522.948,-731.214 523.563,-722.056"/>
<polygon fill="black" stroke="black" points="527.053,-722.324 524.445,-712.055 520.08,-721.709 527.053,-722.324"/>
</g>
</g>
</svg>
