<?xml version="1.0" encoding="UTF-8" standalone="no"?>
<!DOCTYPE svg PUBLIC "-//W3C//DTD SVG 1.1//EN"
 "http://www.w3.org/Graphics/SVG/1.1/DTD/svg11.dtd">
<!-- Generated by graphviz version 2.38.0 (20140413.2041)
 -->
<!-- Title: G Pages: 1 -->
<svg width="541pt" height="920pt"
 viewBox="0.00 0.00 540.97 920.23" xmlns="http://www.w3.org/2000/svg" xmlns:xlink="http://www.w3.org/1999/xlink">
<g id="graph0" class="graph" transform="scale(1 1) rotate(0) translate(4 916.229)">
<title>G</title>
<polygon fill="white" stroke="none" points="-4,4 -4,-916.229 536.973,-916.229 536.973,4 -4,4"/>
<!-- Orf6 -->
<g id="node1" class="node"><title>Orf6</title>
<ellipse fill="none" stroke="black" cx="18" cy="-92.1838" rx="18" ry="18"/>
<text text-anchor="middle" x="18" y="-90.9838" font-family="Times,serif" font-size="4.00">Orf6</text>
</g>
<!-- Apoptosis -->
<g id="node2" class="node"><title>Apoptosis</title>
<ellipse fill="none" stroke="black" cx="207" cy="-19.0919" rx="19.1842" ry="19.1842"/>
<text text-anchor="middle" x="207" y="-17.8919" font-family="Times,serif" font-size="4.00">Apoptosis</text>
</g>
<!-- Orf6&#45;&gt;Apoptosis -->
<g id="edge1" class="edge"><title>Orf6&#45;&gt;Apoptosis</title>
<path fill="none" stroke="black" d="M32.4913,-81.1695C36.4417,-78.6891 40.7944,-76.1745 45,-74.1838 89.9812,-52.8925 145.614,-36.2688 178.597,-27.3439"/>
<polygon fill="black" stroke="black" points="179.703,-30.6717 188.468,-24.7206 177.905,-23.9065 179.703,-30.6717"/>
</g>
<!-- S -->
<g id="node3" class="node"><title>S</title>
<ellipse fill="none" stroke="black" cx="72" cy="-92.1838" rx="18" ry="18"/>
<text text-anchor="middle" x="72" y="-90.9838" font-family="Times,serif" font-size="4.00">S</text>
</g>
<!-- S&#45;&gt;Apoptosis -->
<g id="edge2" class="edge"><title>S&#45;&gt;Apoptosis</title>
<path fill="none" stroke="black" d="M86.697,-81.5669C90.6458,-79.0834 94.9463,-76.4679 99,-74.1838 126.373,-58.7599 158.699,-42.8618 180.804,-32.3277"/>
<polygon fill="black" stroke="black" points="182.357,-35.4652 189.897,-28.0225 179.361,-29.1385 182.357,-35.4652"/>
</g>
<!-- CASP3 -->
<g id="node4" class="node"><title>CASP3</title>
<ellipse fill="none" stroke="black" cx="126" cy="-92.1838" rx="18" ry="18"/>
<text text-anchor="middle" x="126" y="-90.9838" font-family="Times,serif" font-size="4.00">CASP3</text>
</g>
<!-- CASP3&#45;&gt;Apoptosis -->
<g id="edge3" class="edge"><title>CASP3&#45;&gt;Apoptosis</title>
<path fill="none" stroke="black" d="M139.376,-79.4444C151.887,-68.4635 170.79,-51.8728 185.432,-39.0213"/>
<polygon fill="black" stroke="black" points="187.854,-41.5527 193.061,-32.3257 183.237,-36.2916 187.854,-41.5527"/>
</g>
<!-- Orf8a -->
<g id="node5" class="node"><title>Orf8a</title>
<ellipse fill="none" stroke="black" cx="180" cy="-92.1838" rx="18" ry="18"/>
<text text-anchor="middle" x="180" y="-90.9838" font-family="Times,serif" font-size="4.00">Orf8a</text>
</g>
<!-- Orf8a&#45;&gt;Apoptosis -->
<g id="edge4" class="edge"><title>Orf8a&#45;&gt;Apoptosis</title>
<path fill="none" stroke="black" d="M186.127,-75.0519C189.314,-66.6601 193.292,-56.1858 196.918,-46.6386"/>
<polygon fill="black" stroke="black" points="200.242,-47.7424 200.521,-37.1512 193.699,-45.2571 200.242,-47.7424"/>
</g>
<!-- N -->
<g id="node6" class="node"><title>N</title>
<ellipse fill="none" stroke="black" cx="234" cy="-92.1838" rx="18" ry="18"/>
<text text-anchor="middle" x="234" y="-90.9838" font-family="Times,serif" font-size="4.00">N</text>
</g>
<!-- N&#45;&gt;Apoptosis -->
<g id="edge5" class="edge"><title>N&#45;&gt;Apoptosis</title>
<path fill="none" stroke="black" d="M227.873,-75.0519C224.686,-66.6601 220.708,-56.1858 217.082,-46.6386"/>
<polygon fill="black" stroke="black" points="220.301,-45.2571 213.479,-37.1512 213.758,-47.7424 220.301,-45.2571"/>
</g>
<!-- Orf3b -->
<g id="node7" class="node"><title>Orf3b</title>
<ellipse fill="none" stroke="black" cx="288" cy="-92.1838" rx="18" ry="18"/>
<text text-anchor="middle" x="288" y="-90.9838" font-family="Times,serif" font-size="4.00">Orf3b</text>
</g>
<!-- Orf3b&#45;&gt;Apoptosis -->
<g id="edge6" class="edge"><title>Orf3b&#45;&gt;Apoptosis</title>
<path fill="none" stroke="black" d="M274.624,-79.4444C262.113,-68.4635 243.21,-51.8728 228.568,-39.0213"/>
<polygon fill="black" stroke="black" points="230.763,-36.2916 220.939,-32.3257 226.146,-41.5527 230.763,-36.2916"/>
</g>
<!-- Orf9b -->
<g id="node8" class="node"><title>Orf9b</title>
<ellipse fill="none" stroke="black" cx="342" cy="-92.1838" rx="18" ry="18"/>
<text text-anchor="middle" x="342" y="-90.9838" font-family="Times,serif" font-size="4.00">Orf9b</text>
</g>
<!-- Orf9b&#45;&gt;Apoptosis -->
<g id="edge7" class="edge"><title>Orf9b&#45;&gt;Apoptosis</title>
<path fill="none" stroke="black" d="M327.303,-81.5669C323.354,-79.0834 319.054,-76.4679 315,-74.1838 287.627,-58.7599 255.301,-42.8618 233.196,-32.3277"/>
<polygon fill="black" stroke="black" points="234.639,-29.1385 224.103,-28.0225 231.643,-35.4652 234.639,-29.1385"/>
</g>
<!-- CASP7 -->
<g id="node9" class="node"><title>CASP7</title>
<ellipse fill="none" stroke="black" cx="396" cy="-92.1838" rx="18" ry="18"/>
<text text-anchor="middle" x="396" y="-90.9838" font-family="Times,serif" font-size="4.00">CASP7</text>
</g>
<!-- CASP7&#45;&gt;Apoptosis -->
<g id="edge8" class="edge"><title>CASP7&#45;&gt;Apoptosis</title>
<path fill="none" stroke="black" d="M381.509,-81.1695C377.558,-78.6891 373.206,-76.1745 369,-74.1838 324.019,-52.8925 268.386,-36.2688 235.403,-27.3439"/>
<polygon fill="black" stroke="black" points="236.095,-23.9065 225.532,-24.7206 234.297,-30.6717 236.095,-23.9065"/>
</g>
<!-- BAD -->
<g id="node10" class="node"><title>BAD</title>
<ellipse fill="none" stroke="black" cx="376" cy="-656.86" rx="18" ry="18"/>
<text text-anchor="middle" x="376" y="-655.66" font-family="Times,serif" font-size="4.00">BAD</text>
</g>
<!-- BCL2/MCL1/BCL2L1 -->
<g id="node19" class="node"><title>BCL2/MCL1/BCL2L1</title>
<ellipse fill="none" stroke="black" cx="430" cy="-567.827" rx="29.8983" ry="29.8983"/>
<text text-anchor="middle" x="430" y="-566.627" font-family="Times,serif" font-size="4.00">BCL2/MCL1/BCL2L1</text>
</g>
<!-- BAD&#45;&gt;BCL2/MCL1/BCL2L1 -->
<g id="edge9" class="edge"><title>BAD&#45;&gt;BCL2/MCL1/BCL2L1</title>
<path fill="none" stroke="black" d="M385.16,-641.096C391.776,-630.434 400.977,-615.604 409.324,-602.151"/>
<polygon fill="black" stroke="black" points="412.352,-603.91 414.65,-593.567 406.404,-600.219 412.352,-603.91"/>
</g>
<!-- TNF -->
<g id="node11" class="node"><title>TNF</title>
<ellipse fill="none" stroke="black" cx="254" cy="-820.607" rx="18" ry="18"/>
<text text-anchor="middle" x="254" y="-819.407" font-family="Times,serif" font-size="4.00">TNF</text>
</g>
<!-- TNF/TNFRSF1A -->
<g id="node27" class="node"><title>TNF/TNFRSF1A</title>
<ellipse fill="none" stroke="black" cx="257" cy="-740.59" rx="24.2908" ry="24.2908"/>
<text text-anchor="middle" x="257" y="-739.39" font-family="Times,serif" font-size="4.00">TNF/TNFRSF1A</text>
</g>
<!-- TNF&#45;&gt;TNF/TNFRSF1A -->
<g id="edge10" class="edge"><title>TNF&#45;&gt;TNF/TNFRSF1A</title>
<path fill="none" stroke="black" d="M254.666,-802.292C254.972,-794.334 255.346,-784.609 255.704,-775.295"/>
<polygon fill="black" stroke="black" points="259.21,-775.197 256.097,-765.07 252.215,-774.928 259.21,-775.197"/>
</g>
<!-- MAPK14 -->
<g id="node12" class="node"><title>MAPK14</title>
<ellipse fill="none" stroke="black" cx="284" cy="-387.671" rx="18" ry="18"/>
<text text-anchor="middle" x="284" y="-386.471" font-family="Times,serif" font-size="4.00">MAPK14</text>
</g>
<!-- CYCS -->
<g id="node13" class="node"><title>CYCS</title>
<ellipse fill="none" stroke="black" cx="376" cy="-315.671" rx="18" ry="18"/>
<text text-anchor="middle" x="376" y="-314.471" font-family="Times,serif" font-size="4.00">CYCS</text>
</g>
<!-- MAPK14&#45;&gt;CYCS -->
<g id="edge11" class="edge"><title>MAPK14&#45;&gt;CYCS</title>
<path fill="none" stroke="black" d="M297.973,-376.039C312.833,-364.733 336.546,-346.69 353.934,-333.46"/>
<polygon fill="black" stroke="black" points="356.057,-336.243 361.896,-327.402 351.818,-330.672 356.057,-336.243"/>
</g>
<!-- Apoptosome -->
<g id="node34" class="node"><title>Apoptosome</title>
<ellipse fill="none" stroke="black" cx="388" cy="-239.927" rx="21.9898" ry="21.9898"/>
<text text-anchor="middle" x="388" y="-238.727" font-family="Times,serif" font-size="4.00">Apoptosome</text>
</g>
<!-- CYCS&#45;&gt;Apoptosome -->
<g id="edge12" class="edge"><title>CYCS&#45;&gt;Apoptosome</title>
<path fill="none" stroke="black" d="M378.783,-297.567C380.037,-289.861 381.557,-280.518 382.999,-271.662"/>
<polygon fill="black" stroke="black" points="386.482,-272.048 384.633,-261.616 379.573,-270.924 386.482,-272.048"/>
</g>
<!-- FAS/FASL -->
<g id="node14" class="node"><title>FAS/FASL</title>
<ellipse fill="none" stroke="black" cx="197" cy="-820.607" rx="18.6233" ry="18.6233"/>
<text text-anchor="middle" x="197" y="-819.407" font-family="Times,serif" font-size="4.00">FAS/FASL</text>
</g>
<!-- FADD -->
<g id="node20" class="node"><title>FADD</title>
<ellipse fill="none" stroke="black" cx="197" cy="-740.59" rx="18" ry="18"/>
<text text-anchor="middle" x="197" y="-739.39" font-family="Times,serif" font-size="4.00">FADD</text>
</g>
<!-- FAS/FASL&#45;&gt;FADD -->
<g id="edge13" class="edge"><title>FAS/FASL&#45;&gt;FADD</title>
<path fill="none" stroke="black" d="M197,-801.904C197,-792.193 197,-779.941 197,-769.02"/>
<polygon fill="black" stroke="black" points="200.5,-768.687 197,-758.687 193.5,-768.687 200.5,-768.687"/>
</g>
<!-- BAD/BBC3/BCL2L11 -->
<g id="node15" class="node"><title>BAD/BBC3/BCL2L11</title>
<ellipse fill="none" stroke="black" cx="432" cy="-471.9" rx="30.4594" ry="30.4594"/>
<text text-anchor="middle" x="432" y="-470.7" font-family="Times,serif" font-size="4.00">BAD/BBC3/BCL2L11</text>
</g>
<!-- BAX -->
<g id="node22" class="node"><title>BAX</title>
<ellipse fill="none" stroke="black" cx="376" cy="-387.671" rx="18" ry="18"/>
<text text-anchor="middle" x="376" y="-386.471" font-family="Times,serif" font-size="4.00">BAX</text>
</g>
<!-- BAD/BBC3/BCL2L11&#45;&gt;BAX -->
<g id="edge14" class="edge"><title>BAD/BBC3/BCL2L11&#45;&gt;BAX</title>
<path fill="none" stroke="black" d="M415.198,-446.228C407.748,-435.289 399.031,-422.489 391.712,-411.742"/>
<polygon fill="black" stroke="black" points="394.473,-409.578 385.951,-403.283 388.687,-413.518 394.473,-409.578"/>
</g>
<!-- TNFRSF1A -->
<g id="node16" class="node"><title>TNFRSF1A</title>
<ellipse fill="none" stroke="black" cx="310" cy="-820.607" rx="19.7452" ry="19.7452"/>
<text text-anchor="middle" x="310" y="-819.407" font-family="Times,serif" font-size="4.00">TNFRSF1A</text>
</g>
<!-- TNFRSF1A&#45;&gt;TNF/TNFRSF1A -->
<g id="edge15" class="edge"><title>TNFRSF1A&#45;&gt;TNF/TNFRSF1A</title>
<path fill="none" stroke="black" d="M299.275,-803.819C292.622,-794.026 283.884,-781.164 276.08,-769.676"/>
<polygon fill="black" stroke="black" points="278.859,-767.538 270.344,-761.233 273.068,-771.471 278.859,-767.538"/>
</g>
<!-- FASLG -->
<g id="node17" class="node"><title>FASLG</title>
<ellipse fill="none" stroke="black" cx="170" cy="-894.229" rx="18" ry="18"/>
<text text-anchor="middle" x="170" y="-893.029" font-family="Times,serif" font-size="4.00">FASLG</text>
</g>
<!-- FASLG&#45;&gt;FAS/FASL -->
<g id="edge16" class="edge"><title>FASLG&#45;&gt;FAS/FASL</title>
<path fill="none" stroke="black" d="M176.127,-876.977C179.36,-868.4 183.407,-857.664 187.075,-847.934"/>
<polygon fill="black" stroke="black" points="190.458,-848.884 190.71,-838.292 183.908,-846.415 190.458,-848.884"/>
</g>
<!-- TRADD/FADD -->
<g id="node18" class="node"><title>TRADD/FADD</title>
<ellipse fill="none" stroke="black" cx="159" cy="-656.86" rx="23.1702" ry="23.1702"/>
<text text-anchor="middle" x="159" y="-655.66" font-family="Times,serif" font-size="4.00">TRADD/FADD</text>
</g>
<!-- CASP8 -->
<g id="node23" class="node"><title>CASP8</title>
<ellipse fill="none" stroke="black" cx="200" cy="-567.827" rx="18" ry="18"/>
<text text-anchor="middle" x="200" y="-566.627" font-family="Times,serif" font-size="4.00">CASP8</text>
</g>
<!-- TRADD/FADD&#45;&gt;CASP8 -->
<g id="edge17" class="edge"><title>TRADD/FADD&#45;&gt;CASP8</title>
<path fill="none" stroke="black" d="M168.716,-635.234C174.566,-622.817 182.054,-606.923 188.237,-593.798"/>
<polygon fill="black" stroke="black" points="191.566,-594.942 192.662,-584.404 185.234,-591.959 191.566,-594.942"/>
</g>
<!-- BCL2/MCL1/BCL2L1&#45;&gt;BAD/BBC3/BCL2L11 -->
<g id="edge18" class="edge"><title>BCL2/MCL1/BCL2L1&#45;&gt;BAD/BBC3/BCL2L11</title>
<path fill="none" stroke="black" d="M430.616,-537.879C430.788,-529.832 430.977,-520.952 431.159,-512.411"/>
<polygon fill="black" stroke="black" points="434.662,-512.31 431.375,-502.237 427.663,-512.161 434.662,-512.31"/>
</g>
<!-- BCL2/MCL1/BCL2L1&#45;&gt;BAX -->
<g id="edge19" class="edge"><title>BCL2/MCL1/BCL2L1&#45;&gt;BAX</title>
<path fill="none" stroke="black" d="M413.512,-542.967C406.12,-531.174 397.965,-516.43 393,-502.128 383.133,-473.702 378.991,-439.314 377.254,-415.9"/>
<polygon fill="black" stroke="black" points="380.73,-415.424 376.596,-405.669 373.745,-415.873 380.73,-415.424"/>
</g>
<!-- FADD&#45;&gt;TRADD/FADD -->
<g id="edge20" class="edge"><title>FADD&#45;&gt;TRADD/FADD</title>
<path fill="none" stroke="black" d="M189.673,-723.831C184.908,-713.583 178.544,-699.895 172.848,-687.644"/>
<polygon fill="black" stroke="black" points="175.856,-685.813 168.467,-678.22 169.509,-688.764 175.856,-685.813"/>
</g>
<!-- FADD&#45;&gt;CASP8 -->
<g id="edge21" class="edge"><title>FADD&#45;&gt;CASP8</title>
<path fill="none" stroke="black" d="M197.299,-722.592C197.818,-693.005 198.894,-631.802 199.519,-596.18"/>
<polygon fill="black" stroke="black" points="203.022,-596.069 199.698,-586.009 196.023,-595.946 203.022,-596.069"/>
</g>
<!-- Orf7a -->
<g id="node21" class="node"><title>Orf7a</title>
<ellipse fill="none" stroke="black" cx="430" cy="-656.86" rx="18" ry="18"/>
<text text-anchor="middle" x="430" y="-655.66" font-family="Times,serif" font-size="4.00">Orf7a</text>
</g>
<!-- Orf7a&#45;&gt;BCL2/MCL1/BCL2L1 -->
<g id="edge22" class="edge"><title>Orf7a&#45;&gt;BCL2/MCL1/BCL2L1</title>
<path fill="none" stroke="black" d="M430,-638.665C430,-629.805 430,-618.614 430,-607.801"/>
<polygon fill="black" stroke="black" points="433.5,-607.638 430,-597.638 426.5,-607.638 433.5,-607.638"/>
</g>
<!-- BAX&#45;&gt;CYCS -->
<g id="edge23" class="edge"><title>BAX&#45;&gt;CYCS</title>
<path fill="none" stroke="black" d="M376,-369.367C376,-361.654 376,-352.383 376,-343.783"/>
<polygon fill="black" stroke="black" points="379.5,-343.775 376,-333.775 372.5,-343.775 379.5,-343.775"/>
</g>
<!-- CASP8&#45;&gt;CASP3 -->
<g id="edge25" class="edge"><title>CASP8&#45;&gt;CASP3</title>
<path fill="none" stroke="black" d="M192.406,-551.034C178.419,-520.446 150,-450.672 150,-388.671 150,-388.671 150,-388.671 150,-238.927 150,-196.676 140.058,-148.439 132.972,-119.423"/>
<polygon fill="black" stroke="black" points="136.347,-118.494 130.514,-109.65 129.559,-120.201 136.347,-118.494"/>
</g>
<!-- CASP8&#45;&gt;CASP7 -->
<g id="edge24" class="edge"><title>CASP8&#45;&gt;CASP7</title>
<path fill="none" stroke="black" d="M199.036,-549.635C197.34,-517.859 194,-447.78 194,-388.671 194,-388.671 194,-388.671 194,-238.927 194,-228.018 319.55,-143.725 372.689,-108.537"/>
<polygon fill="black" stroke="black" points="374.734,-111.381 381.146,-102.946 370.874,-105.541 374.734,-111.381"/>
</g>
<!-- BID -->
<g id="node29" class="node"><title>BID</title>
<ellipse fill="none" stroke="black" cx="240" cy="-471.9" rx="18" ry="18"/>
<text text-anchor="middle" x="240" y="-470.7" font-family="Times,serif" font-size="4.00">BID</text>
</g>
<!-- CASP8&#45;&gt;BID -->
<g id="edge26" class="edge"><title>CASP8&#45;&gt;BID</title>
<path fill="none" stroke="black" d="M206.785,-550.893C212.934,-536.455 222.099,-514.934 229.245,-498.154"/>
<polygon fill="black" stroke="black" points="232.483,-499.483 233.181,-488.911 226.043,-496.74 232.483,-499.483"/>
</g>
<!-- TRADD -->
<g id="node24" class="node"><title>TRADD</title>
<ellipse fill="none" stroke="black" cx="143" cy="-740.59" rx="18" ry="18"/>
<text text-anchor="middle" x="143" y="-739.39" font-family="Times,serif" font-size="4.00">TRADD</text>
</g>
<!-- TRADD&#45;&gt;TRADD/FADD -->
<g id="edge27" class="edge"><title>TRADD&#45;&gt;TRADD/FADD</title>
<path fill="none" stroke="black" d="M146.315,-722.655C148.165,-713.205 150.532,-701.118 152.718,-689.949"/>
<polygon fill="black" stroke="black" points="156.169,-690.537 154.656,-680.051 149.3,-689.193 156.169,-690.537"/>
</g>
<!-- E -->
<g id="node25" class="node"><title>E</title>
<ellipse fill="none" stroke="black" cx="484" cy="-656.86" rx="18" ry="18"/>
<text text-anchor="middle" x="484" y="-655.66" font-family="Times,serif" font-size="4.00">E</text>
</g>
<!-- E&#45;&gt;BCL2/MCL1/BCL2L1 -->
<g id="edge28" class="edge"><title>E&#45;&gt;BCL2/MCL1/BCL2L1</title>
<path fill="none" stroke="black" d="M474.84,-641.096C468.224,-630.434 459.023,-615.604 450.676,-602.151"/>
<polygon fill="black" stroke="black" points="453.596,-600.219 445.35,-593.567 447.648,-603.91 453.596,-600.219"/>
</g>
<!-- M -->
<g id="node26" class="node"><title>M</title>
<ellipse fill="none" stroke="black" cx="376" cy="-820.607" rx="18" ry="18"/>
<text text-anchor="middle" x="376" y="-819.407" font-family="Times,serif" font-size="4.00">M</text>
</g>
<!-- AKT1 -->
<g id="node30" class="node"><title>AKT1</title>
<ellipse fill="none" stroke="black" cx="376" cy="-740.59" rx="18" ry="18"/>
<text text-anchor="middle" x="376" y="-739.39" font-family="Times,serif" font-size="4.00">AKT1</text>
</g>
<!-- M&#45;&gt;AKT1 -->
<g id="edge29" class="edge"><title>M&#45;&gt;AKT1</title>
<path fill="none" stroke="black" d="M376,-802.292C376,-792.495 376,-780.02 376,-768.931"/>
<polygon fill="black" stroke="black" points="379.5,-768.856 376,-758.856 372.5,-768.856 379.5,-768.856"/>
</g>
<!-- TNF/TNFRSF1A&#45;&gt;TRADD/FADD -->
<g id="edge30" class="edge"><title>TNF/TNFRSF1A&#45;&gt;TRADD/FADD</title>
<path fill="none" stroke="black" d="M238.567,-724.217C223.319,-711.501 201.497,-693.301 184.561,-679.178"/>
<polygon fill="black" stroke="black" points="186.612,-676.33 176.69,-672.613 182.128,-681.706 186.612,-676.33"/>
</g>
<!-- FAS -->
<g id="node28" class="node"><title>FAS</title>
<ellipse fill="none" stroke="black" cx="224" cy="-894.229" rx="18" ry="18"/>
<text text-anchor="middle" x="224" y="-893.029" font-family="Times,serif" font-size="4.00">FAS</text>
</g>
<!-- FAS&#45;&gt;FAS/FASL -->
<g id="edge31" class="edge"><title>FAS&#45;&gt;FAS/FASL</title>
<path fill="none" stroke="black" d="M217.873,-876.977C214.64,-868.4 210.593,-857.664 206.925,-847.934"/>
<polygon fill="black" stroke="black" points="210.092,-846.415 203.29,-838.292 203.542,-848.884 210.092,-846.415"/>
</g>
<!-- BID&#45;&gt;BAX -->
<g id="edge32" class="edge"><title>BID&#45;&gt;BAX</title>
<path fill="none" stroke="black" d="M255.074,-461.786C278.561,-447.585 324.094,-420.055 352.093,-403.126"/>
<polygon fill="black" stroke="black" points="354.112,-405.995 360.858,-397.826 350.49,-400.005 354.112,-405.995"/>
</g>
<!-- AKT1&#45;&gt;BAD -->
<g id="edge35" class="edge"><title>AKT1&#45;&gt;BAD</title>
<path fill="none" stroke="black" d="M376,-722.257C376,-711.457 376,-697.331 376,-685.061"/>
<polygon fill="black" stroke="black" points="379.5,-684.887 376,-674.887 372.5,-684.888 379.5,-684.887"/>
</g>
<!-- CASP9 -->
<g id="node31" class="node"><title>CASP9</title>
<ellipse fill="none" stroke="black" cx="388" cy="-164.184" rx="18" ry="18"/>
<text text-anchor="middle" x="388" y="-162.984" font-family="Times,serif" font-size="4.00">CASP9</text>
</g>
<!-- AKT1&#45;&gt;CASP9 -->
<g id="edge33" class="edge"><title>AKT1&#45;&gt;CASP9</title>
<path fill="none" stroke="black" d="M393.715,-737.198C423.087,-732.236 481.542,-717.943 511,-680.194 541.891,-640.609 530,-619.039 530,-568.827 530,-568.827 530,-568.827 530,-314.671 530,-247.565 453.849,-198.577 413.079,-177.159"/>
<polygon fill="black" stroke="black" points="414.513,-173.961 404.013,-172.544 411.337,-180.2 414.513,-173.961"/>
</g>
<!-- AKT1&#45;&gt;Apoptosome -->
<g id="edge34" class="edge"><title>AKT1&#45;&gt;Apoptosome</title>
<path fill="none" stroke="black" d="M367.766,-724.385C361.731,-712.631 353.786,-695.787 349,-680.194 334.266,-632.193 330,-619.039 330,-568.827 330,-568.827 330,-568.827 330,-386.671 330,-346.224 333.017,-334.826 349,-297.671 353.846,-286.405 361.072,-275.056 367.991,-265.499"/>
<polygon fill="black" stroke="black" points="370.961,-267.373 374.183,-257.28 365.37,-263.161 370.961,-267.373"/>
</g>
<!-- CASP9&#45;&gt;CASP3 -->
<g id="edge37" class="edge"><title>CASP9&#45;&gt;CASP3</title>
<path fill="none" stroke="black" d="M369.981,-161.235C329.754,-156.437 230.113,-142.05 153,-110.184 151.791,-109.684 150.574,-109.132 149.363,-108.541"/>
<polygon fill="black" stroke="black" points="150.796,-105.332 140.363,-103.487 147.369,-111.435 150.796,-105.332"/>
</g>
<!-- CASP9&#45;&gt;CASP7 -->
<g id="edge38" class="edge"><title>CASP9&#45;&gt;CASP7</title>
<path fill="none" stroke="black" d="M389.937,-146.239C390.818,-138.529 391.883,-129.211 392.873,-120.548"/>
<polygon fill="black" stroke="black" points="396.367,-120.792 394.026,-110.459 389.413,-119.997 396.367,-120.792"/>
</g>
<!-- CASP9&#45;&gt;Apoptosome -->
<g id="edge36" class="edge"><title>CASP9&#45;&gt;Apoptosome</title>
<path fill="none" stroke="black" d="M393.697,-181.344C394.611,-189.343 394.93,-199.265 394.654,-208.608"/>
<polygon fill="black" stroke="black" points="391.15,-208.598 394.091,-218.777 398.139,-208.986 391.15,-208.598"/>
</g>
<!-- Orf3a -->
<g id="node32" class="node"><title>Orf3a</title>
<ellipse fill="none" stroke="black" cx="282" cy="-656.86" rx="18" ry="18"/>
<text text-anchor="middle" x="282" y="-655.66" font-family="Times,serif" font-size="4.00">Orf3a</text>
</g>
<!-- Orf3a&#45;&gt;MAPK14 -->
<g id="edge39" class="edge"><title>Orf3a&#45;&gt;MAPK14</title>
<path fill="none" stroke="black" d="M282.128,-638.74C282.466,-593.604 283.383,-471.068 283.795,-416.054"/>
<polygon fill="black" stroke="black" points="287.295,-416.02 283.87,-405.994 280.295,-415.968 287.295,-416.02"/>
</g>
<!-- Orf3a&#45;&gt;CASP8 -->
<g id="edge40" class="edge"><title>Orf3a&#45;&gt;CASP8</title>
<path fill="none" stroke="black" d="M269.901,-643.018C256.501,-628.796 234.721,-605.679 219.032,-589.027"/>
<polygon fill="black" stroke="black" points="221.287,-586.317 211.882,-581.439 216.192,-591.117 221.287,-586.317"/>
</g>
<!-- APAF1 -->
<g id="node33" class="node"><title>APAF1</title>
<ellipse fill="none" stroke="black" cx="430" cy="-315.671" rx="18" ry="18"/>
<text text-anchor="middle" x="430" y="-314.471" font-family="Times,serif" font-size="4.00">APAF1</text>
</g>
<!-- APAF1&#45;&gt;Apoptosome -->
<g id="edge41" class="edge"><title>APAF1&#45;&gt;Apoptosome</title>
<path fill="none" stroke="black" d="M421.501,-299.748C416.347,-290.699 409.614,-278.876 403.536,-268.206"/>
<polygon fill="black" stroke="black" points="406.411,-266.181 398.421,-259.224 400.329,-269.646 406.411,-266.181"/>
</g>
<!-- Apoptosome&#45;&gt;CASP9 -->
<g id="edge42" class="edge"><title>Apoptosome&#45;&gt;CASP9</title>
<path fill="none" stroke="black" d="M381.909,-218.777C381.194,-210.317 381.061,-200.367 381.509,-191.352"/>
<polygon fill="black" stroke="black" points="385.001,-191.59 382.303,-181.344 378.023,-191.036 385.001,-191.59"/>
</g>
</g>
</svg>
