<?xml version="1.0" encoding="UTF-8" standalone="no"?>
<!DOCTYPE svg PUBLIC "-//W3C//DTD SVG 1.1//EN"
 "http://www.w3.org/Graphics/SVG/1.1/DTD/svg11.dtd">
<!-- Generated by graphviz version 2.38.0 (20140413.2041)
 -->
<!-- Title: G Pages: 1 -->
<svg width="937pt" height="1787pt"
 viewBox="0.00 0.00 936.50 1787.05" xmlns="http://www.w3.org/2000/svg" xmlns:xlink="http://www.w3.org/1999/xlink">
<g id="graph0" class="graph" transform="scale(1 1) rotate(0) translate(4 1783.05)">
<title>G</title>
<polygon fill="white" stroke="none" points="-4,4 -4,-1783.05 932.5,-1783.05 932.5,4 -4,4"/>
<!-- FASLG -->
<g id="node1" class="node"><title>FASLG</title>
<ellipse fill="none" stroke="black" cx="22.5" cy="-1761.05" rx="18" ry="18"/>
<text text-anchor="middle" x="22.5" y="-1759.85" font-family="Times,serif" font-size="4.00">FASLG</text>
</g>
<!-- pr_dfb51672&#45;4710&#45;40df&#45;b8cc&#45;64af086a7496 -->
<g id="node2" class="node"><title>pr_dfb51672&#45;4710&#45;40df&#45;b8cc&#45;64af086a7496</title>
<polygon fill="none" stroke="black" points="98.5,-1707.05 0.5,-1707.05 0.5,-1609.05 98.5,-1609.05 98.5,-1707.05"/>
<text text-anchor="middle" x="49.5" y="-1656.85" font-family="Times,serif" font-size="4.00">pr_dfb51672&#45;4710&#45;40df&#45;b8cc&#45;64af086a7496</text>
</g>
<!-- FASLG&#45;&gt;pr_dfb51672&#45;4710&#45;40df&#45;b8cc&#45;64af086a7496 -->
<g id="edge1" class="edge"><title>FASLG&#45;&gt;pr_dfb51672&#45;4710&#45;40df&#45;b8cc&#45;64af086a7496</title>
<path fill="none" stroke="black" d="M26.9585,-1743.37C28.9581,-1735.89 31.4474,-1726.58 34.0352,-1716.9"/>
<polygon fill="black" stroke="black" points="37.4399,-1717.71 36.6412,-1707.15 30.6773,-1715.9 37.4399,-1717.71"/>
</g>
<!-- FAS/FASL -->
<g id="node4" class="node"><title>FAS/FASL</title>
<ellipse fill="none" stroke="black" cx="49.5" cy="-1553.42" rx="18.6233" ry="18.6233"/>
<text text-anchor="middle" x="49.5" y="-1552.22" font-family="Times,serif" font-size="4.00">FAS/FASL</text>
</g>
<!-- pr_dfb51672&#45;4710&#45;40df&#45;b8cc&#45;64af086a7496&#45;&gt;FAS/FASL -->
<g id="edge2" class="edge"><title>pr_dfb51672&#45;4710&#45;40df&#45;b8cc&#45;64af086a7496&#45;&gt;FAS/FASL</title>
<path fill="none" stroke="black" d="M49.5,-1609.04C49.5,-1599.9 49.5,-1590.62 49.5,-1582.36"/>
<polygon fill="black" stroke="black" points="53.0001,-1582.2 49.5,-1572.2 46.0001,-1582.2 53.0001,-1582.2"/>
</g>
<!-- FAS -->
<g id="node3" class="node"><title>FAS</title>
<ellipse fill="none" stroke="black" cx="76.5" cy="-1761.05" rx="18" ry="18"/>
<text text-anchor="middle" x="76.5" y="-1759.85" font-family="Times,serif" font-size="4.00">FAS</text>
</g>
<!-- FAS&#45;&gt;pr_dfb51672&#45;4710&#45;40df&#45;b8cc&#45;64af086a7496 -->
<g id="edge3" class="edge"><title>FAS&#45;&gt;pr_dfb51672&#45;4710&#45;40df&#45;b8cc&#45;64af086a7496</title>
<path fill="none" stroke="black" d="M72.0415,-1743.37C70.0419,-1735.89 67.5526,-1726.58 64.9648,-1716.9"/>
<polygon fill="black" stroke="black" points="68.3227,-1715.9 62.3588,-1707.15 61.5601,-1717.71 68.3227,-1715.9"/>
</g>
<!-- pr_e49ec90a&#45;7912&#45;4145&#45;ad1f&#45;5660d87653fc -->
<g id="node6" class="node"><title>pr_e49ec90a&#45;7912&#45;4145&#45;ad1f&#45;5660d87653fc</title>
<polygon fill="none" stroke="black" points="99,-1496.8 0,-1496.8 0,-1397.8 99,-1397.8 99,-1496.8"/>
<text text-anchor="middle" x="49.5" y="-1446.1" font-family="Times,serif" font-size="4.00">pr_e49ec90a&#45;7912&#45;4145&#45;ad1f&#45;5660d87653fc</text>
</g>
<!-- FAS/FASL&#45;&gt;pr_e49ec90a&#45;7912&#45;4145&#45;ad1f&#45;5660d87653fc -->
<g id="edge4" class="edge"><title>FAS/FASL&#45;&gt;pr_e49ec90a&#45;7912&#45;4145&#45;ad1f&#45;5660d87653fc</title>
<path fill="none" stroke="black" d="M49.5,-1534.76C49.5,-1526.93 49.5,-1517.21 49.5,-1507.16"/>
<polygon fill="black" stroke="black" points="53.0001,-1507.04 49.5,-1497.04 46.0001,-1507.04 53.0001,-1507.04"/>
</g>
<!-- FADD -->
<g id="node5" class="node"><title>FADD</title>
<ellipse fill="none" stroke="black" cx="49.5" cy="-1336.41" rx="18" ry="18"/>
<text text-anchor="middle" x="49.5" y="-1335.21" font-family="Times,serif" font-size="4.00">FADD</text>
</g>
<!-- FADD&#45;&gt;pr_e49ec90a&#45;7912&#45;4145&#45;ad1f&#45;5660d87653fc -->
<g id="edge5" class="edge"><title>FADD&#45;&gt;pr_e49ec90a&#45;7912&#45;4145&#45;ad1f&#45;5660d87653fc</title>
<path fill="none" stroke="black" d="M54.4886,-1353.76C55.5323,-1362.9 56.1121,-1374.9 56.2282,-1387.22"/>
<polygon fill="black" stroke="black" points="52.7279,-1387.58 56.2166,-1397.59 59.7279,-1387.59 52.7279,-1387.58"/>
</g>
<!-- pr_9f424b59&#45;25d3&#45;4610&#45;8d06&#45;6683fc1cd4ad -->
<g id="node8" class="node"><title>pr_9f424b59&#45;25d3&#45;4610&#45;8d06&#45;6683fc1cd4ad</title>
<polygon fill="none" stroke="black" points="131,-1059.34 32,-1059.34 32,-960.342 131,-960.342 131,-1059.34"/>
<text text-anchor="middle" x="81.5" y="-1008.64" font-family="Times,serif" font-size="4.00">pr_9f424b59&#45;25d3&#45;4610&#45;8d06&#45;6683fc1cd4ad</text>
</g>
<!-- FADD&#45;&gt;pr_9f424b59&#45;25d3&#45;4610&#45;8d06&#45;6683fc1cd4ad -->
<g id="edge6" class="edge"><title>FADD&#45;&gt;pr_9f424b59&#45;25d3&#45;4610&#45;8d06&#45;6683fc1cd4ad</title>
<path fill="none" stroke="black" d="M51.1754,-1318.41C55.683,-1272.69 68.2311,-1145.42 75.6982,-1069.69"/>
<polygon fill="black" stroke="black" points="79.2186,-1069.65 76.7167,-1059.36 72.2523,-1068.97 79.2186,-1069.65"/>
</g>
<!-- pr_124fffb7&#45;411b&#45;4b22&#45;884c&#45;d13ecb7ee493 -->
<g id="node29" class="node"><title>pr_124fffb7&#45;411b&#45;4b22&#45;884c&#45;d13ecb7ee493</title>
<polygon fill="none" stroke="black" points="175.5,-1276.01 77.5,-1276.01 77.5,-1178.01 175.5,-1178.01 175.5,-1276.01"/>
<text text-anchor="middle" x="126.5" y="-1225.81" font-family="Times,serif" font-size="4.00">pr_124fffb7&#45;411b&#45;4b22&#45;884c&#45;d13ecb7ee493</text>
</g>
<!-- FADD&#45;&gt;pr_124fffb7&#45;411b&#45;4b22&#45;884c&#45;d13ecb7ee493 -->
<g id="edge7" class="edge"><title>FADD&#45;&gt;pr_124fffb7&#45;411b&#45;4b22&#45;884c&#45;d13ecb7ee493</title>
<path fill="none" stroke="black" d="M59.5664,-1321.37C66.5181,-1311.67 76.2643,-1298.08 86.1723,-1284.26"/>
<polygon fill="black" stroke="black" points="89.0223,-1286.29 92.0047,-1276.12 83.3334,-1282.21 89.0223,-1286.29"/>
</g>
<!-- pr_e49ec90a&#45;7912&#45;4145&#45;ad1f&#45;5660d87653fc&#45;&gt;FADD -->
<g id="edge8" class="edge"><title>pr_e49ec90a&#45;7912&#45;4145&#45;ad1f&#45;5660d87653fc&#45;&gt;FADD</title>
<path fill="none" stroke="black" d="M42.7834,-1397.59C42.6483,-1386.03 42.9231,-1374.12 43.6077,-1363.97"/>
<polygon fill="black" stroke="black" points="47.1162,-1364.03 44.5114,-1353.76 40.1434,-1363.41 47.1162,-1364.03"/>
</g>
<!-- CASP8 -->
<g id="node7" class="node"><title>CASP8</title>
<ellipse fill="none" stroke="black" cx="81.5" cy="-906.342" rx="18" ry="18"/>
<text text-anchor="middle" x="81.5" y="-905.142" font-family="Times,serif" font-size="4.00">CASP8</text>
</g>
<!-- CASP8&#45;&gt;pr_9f424b59&#45;25d3&#45;4610&#45;8d06&#45;6683fc1cd4ad -->
<g id="edge9" class="edge"><title>CASP8&#45;&gt;pr_9f424b59&#45;25d3&#45;4610&#45;8d06&#45;6683fc1cd4ad</title>
<path fill="none" stroke="black" d="M86.6535,-923.989C87.4879,-931.375 87.9952,-940.554 88.1755,-950.121"/>
<polygon fill="black" stroke="black" points="84.6758,-950.197 88.245,-960.173 91.6756,-950.149 84.6758,-950.197"/>
</g>
<!-- pr_ce737854&#45;1330&#45;4ddd&#45;88fe&#45;3572c918e6ed -->
<g id="node11" class="node"><title>pr_ce737854&#45;1330&#45;4ddd&#45;88fe&#45;3572c918e6ed</title>
<polygon fill="none" stroke="black" points="131.5,-852.342 31.5,-852.342 31.5,-752.342 131.5,-752.342 131.5,-852.342"/>
<text text-anchor="middle" x="81.5" y="-801.142" font-family="Times,serif" font-size="4.00">pr_ce737854&#45;1330&#45;4ddd&#45;88fe&#45;3572c918e6ed</text>
</g>
<!-- CASP8&#45;&gt;pr_ce737854&#45;1330&#45;4ddd&#45;88fe&#45;3572c918e6ed -->
<g id="edge10" class="edge"><title>CASP8&#45;&gt;pr_ce737854&#45;1330&#45;4ddd&#45;88fe&#45;3572c918e6ed</title>
<path fill="none" stroke="black" d="M81.5,-888.039C81.5,-880.776 81.5,-871.863 81.5,-862.576"/>
<polygon fill="black" stroke="black" points="85.0001,-862.411 81.5,-852.411 78.0001,-862.411 85.0001,-862.411"/>
</g>
<!-- pr_7ba2e068&#45;a806&#45;4c9e&#45;b8eb&#45;ccd774d37b62 -->
<g id="node17" class="node"><title>pr_7ba2e068&#45;a806&#45;4c9e&#45;b8eb&#45;ccd774d37b62</title>
<polygon fill="none" stroke="black" points="231,-404.458 130,-404.458 130,-303.458 231,-303.458 231,-404.458"/>
<text text-anchor="middle" x="180.5" y="-352.758" font-family="Times,serif" font-size="4.00">pr_7ba2e068&#45;a806&#45;4c9e&#45;b8eb&#45;ccd774d37b62</text>
</g>
<!-- CASP8&#45;&gt;pr_7ba2e068&#45;a806&#45;4c9e&#45;b8eb&#45;ccd774d37b62 -->
<g id="edge11" class="edge"><title>CASP8&#45;&gt;pr_7ba2e068&#45;a806&#45;4c9e&#45;b8eb&#45;ccd774d37b62</title>
<path fill="none" stroke="black" d="M66.3306,-896.297C52.4082,-887.108 32.4781,-871.518 22.5,-852.342 -9.89067,-790.091 3.5,-765.772 3.5,-695.598 3.5,-695.598 3.5,-695.598 3.5,-585.355 3.5,-506.115 70.1533,-437.366 121.656,-396.071"/>
<polygon fill="black" stroke="black" points="124.083,-398.615 129.779,-389.682 119.755,-393.113 124.083,-398.615"/>
</g>
<!-- pr_1c1be98e&#45;f658&#45;4fa8&#45;9a66&#45;eda899c876cb -->
<g id="node26" class="node"><title>pr_1c1be98e&#45;f658&#45;4fa8&#45;9a66&#45;eda899c876cb</title>
<polygon fill="none" stroke="black" points="249,-851.842 150,-851.842 150,-752.842 249,-752.842 249,-851.842"/>
<text text-anchor="middle" x="199.5" y="-801.142" font-family="Times,serif" font-size="4.00">pr_1c1be98e&#45;f658&#45;4fa8&#45;9a66&#45;eda899c876cb</text>
</g>
<!-- CASP8&#45;&gt;pr_1c1be98e&#45;f658&#45;4fa8&#45;9a66&#45;eda899c876cb -->
<g id="edge12" class="edge"><title>CASP8&#45;&gt;pr_1c1be98e&#45;f658&#45;4fa8&#45;9a66&#45;eda899c876cb</title>
<path fill="none" stroke="black" d="M95.0361,-893.641C106.69,-883.567 124.35,-868.302 141.851,-853.174"/>
<polygon fill="black" stroke="black" points="144.582,-855.44 149.858,-846.252 140.004,-850.144 144.582,-855.44"/>
</g>
<!-- pr_9f424b59&#45;25d3&#45;4610&#45;8d06&#45;6683fc1cd4ad&#45;&gt;CASP8 -->
<g id="edge13" class="edge"><title>pr_9f424b59&#45;25d3&#45;4610&#45;8d06&#45;6683fc1cd4ad&#45;&gt;CASP8</title>
<path fill="none" stroke="black" d="M74.755,-960.173C74.7116,-951.218 74.9487,-942.177 75.4665,-934.167"/>
<polygon fill="black" stroke="black" points="78.9721,-934.253 76.3465,-923.989 71.9981,-933.65 78.9721,-934.253"/>
</g>
<!-- TRADD/FADD -->
<g id="node9" class="node"><title>TRADD/FADD</title>
<ellipse fill="none" stroke="black" cx="113.5" cy="-1118.68" rx="23.1702" ry="23.1702"/>
<text text-anchor="middle" x="113.5" y="-1117.48" font-family="Times,serif" font-size="4.00">TRADD/FADD</text>
</g>
<!-- TRADD/FADD&#45;&gt;pr_9f424b59&#45;25d3&#45;4610&#45;8d06&#45;6683fc1cd4ad -->
<g id="edge14" class="edge"><title>TRADD/FADD&#45;&gt;pr_9f424b59&#45;25d3&#45;4610&#45;8d06&#45;6683fc1cd4ad</title>
<path fill="none" stroke="black" d="M107.024,-1096.06C104.641,-1088.1 101.814,-1078.66 98.9254,-1069.02"/>
<polygon fill="black" stroke="black" points="102.252,-1067.93 96.0297,-1059.35 95.5463,-1069.93 102.252,-1067.93"/>
</g>
<!-- CASP3 -->
<g id="node10" class="node"><title>CASP3</title>
<ellipse fill="none" stroke="black" cx="81.5" cy="-694.598" rx="18" ry="18"/>
<text text-anchor="middle" x="81.5" y="-693.398" font-family="Times,serif" font-size="4.00">CASP3</text>
</g>
<!-- CASP3&#45;&gt;pr_ce737854&#45;1330&#45;4ddd&#45;88fe&#45;3572c918e6ed -->
<g id="edge15" class="edge"><title>CASP3&#45;&gt;pr_ce737854&#45;1330&#45;4ddd&#45;88fe&#45;3572c918e6ed</title>
<path fill="none" stroke="black" d="M86.5551,-712.055C87.5011,-720.361 88.0511,-730.999 88.2051,-742.016"/>
<polygon fill="black" stroke="black" points="84.7055,-742.195 88.2352,-752.185 91.7055,-742.174 84.7055,-742.195"/>
</g>
<!-- pr_ce737854&#45;1330&#45;4ddd&#45;88fe&#45;3572c918e6ed&#45;&gt;CASP3 -->
<g id="edge16" class="edge"><title>pr_ce737854&#45;1330&#45;4ddd&#45;88fe&#45;3572c918e6ed&#45;&gt;CASP3</title>
<path fill="none" stroke="black" d="M74.7648,-752.185C74.6818,-741.796 74.9477,-731.214 75.5627,-722.056"/>
<polygon fill="black" stroke="black" points="79.0525,-722.324 76.4449,-712.055 72.0796,-721.709 79.0525,-722.324"/>
</g>
<!-- CASP9 -->
<g id="node12" class="node"><title>CASP9</title>
<ellipse fill="none" stroke="black" cx="286.5" cy="-906.342" rx="18" ry="18"/>
<text text-anchor="middle" x="286.5" y="-905.142" font-family="Times,serif" font-size="4.00">CASP9</text>
</g>
<!-- CASP9&#45;&gt;pr_ce737854&#45;1330&#45;4ddd&#45;88fe&#45;3572c918e6ed -->
<g id="edge17" class="edge"><title>CASP9&#45;&gt;pr_ce737854&#45;1330&#45;4ddd&#45;88fe&#45;3572c918e6ed</title>
<path fill="none" stroke="black" d="M269.025,-901.099C240.751,-893.785 183.776,-877.157 140.5,-852.342 140.406,-852.288 140.312,-852.234 140.218,-852.18"/>
<polygon fill="black" stroke="black" points="141.863,-849.08 131.525,-846.758 138.158,-855.02 141.863,-849.08"/>
</g>
<!-- pr_d18ace14&#45;b250&#45;44d5&#45;9803&#45;0a4b7921b23c -->
<g id="node13" class="node"><title>pr_d18ace14&#45;b250&#45;44d5&#45;9803&#45;0a4b7921b23c</title>
<polygon fill="none" stroke="black" points="373,-636.855 272,-636.855 272,-535.855 373,-535.855 373,-636.855"/>
<text text-anchor="middle" x="322.5" y="-585.155" font-family="Times,serif" font-size="4.00">pr_d18ace14&#45;b250&#45;44d5&#45;9803&#45;0a4b7921b23c</text>
</g>
<!-- CASP9&#45;&gt;pr_d18ace14&#45;b250&#45;44d5&#45;9803&#45;0a4b7921b23c -->
<g id="edge18" class="edge"><title>CASP9&#45;&gt;pr_d18ace14&#45;b250&#45;44d5&#45;9803&#45;0a4b7921b23c</title>
<path fill="none" stroke="black" d="M285.173,-888.245C286.472,-843.521 299.58,-721.403 310.311,-647.211"/>
<polygon fill="black" stroke="black" points="313.809,-647.477 311.808,-637.073 306.884,-646.454 313.809,-647.477"/>
</g>
<!-- CASP9&#45;&gt;pr_1c1be98e&#45;f658&#45;4fa8&#45;9a66&#45;eda899c876cb -->
<g id="edge19" class="edge"><title>CASP9&#45;&gt;pr_1c1be98e&#45;f658&#45;4fa8&#45;9a66&#45;eda899c876cb</title>
<path fill="none" stroke="black" d="M275.126,-892.007C267.947,-883.59 258.131,-872.082 247.949,-860.143"/>
<polygon fill="black" stroke="black" points="250.381,-857.601 241.228,-852.264 245.055,-862.144 250.381,-857.601"/>
</g>
<!-- pr_639bd2d8&#45;3e73&#45;494c&#45;8ff8&#45;6ec40f181fba -->
<g id="node42" class="node"><title>pr_639bd2d8&#45;3e73&#45;494c&#45;8ff8&#45;6ec40f181fba</title>
<polygon fill="none" stroke="black" points="421.5,-851.342 323.5,-851.342 323.5,-753.342 421.5,-753.342 421.5,-851.342"/>
<text text-anchor="middle" x="372.5" y="-801.142" font-family="Times,serif" font-size="4.00">pr_639bd2d8&#45;3e73&#45;494c&#45;8ff8&#45;6ec40f181fba</text>
</g>
<!-- CASP9&#45;&gt;pr_639bd2d8&#45;3e73&#45;494c&#45;8ff8&#45;6ec40f181fba -->
<g id="edge20" class="edge"><title>CASP9&#45;&gt;pr_639bd2d8&#45;3e73&#45;494c&#45;8ff8&#45;6ec40f181fba</title>
<path fill="none" stroke="black" d="M297.743,-892.007C304.914,-883.502 314.747,-871.839 324.926,-859.766"/>
<polygon fill="black" stroke="black" points="327.871,-861.704 331.641,-851.803 322.519,-857.192 327.871,-861.704"/>
</g>
<!-- pr_d18ace14&#45;b250&#45;44d5&#45;9803&#45;0a4b7921b23c&#45;&gt;CASP9 -->
<g id="edge21" class="edge"><title>pr_d18ace14&#45;b250&#45;44d5&#45;9803&#45;0a4b7921b23c&#45;&gt;CASP9</title>
<path fill="none" stroke="black" d="M321.942,-636.975C316.799,-705.162 302.815,-825.424 293.471,-878.679"/>
<polygon fill="black" stroke="black" points="289.996,-878.222 291.61,-888.693 296.878,-879.501 289.996,-878.222"/>
</g>
<!-- Apoptosome -->
<g id="node14" class="node"><title>Apoptosome</title>
<ellipse fill="none" stroke="black" cx="359.5" cy="-694.598" rx="21.9898" ry="21.9898"/>
<text text-anchor="middle" x="359.5" y="-693.398" font-family="Times,serif" font-size="4.00">Apoptosome</text>
</g>
<!-- Apoptosome&#45;&gt;pr_d18ace14&#45;b250&#45;44d5&#45;9803&#45;0a4b7921b23c -->
<g id="edge22" class="edge"><title>Apoptosome&#45;&gt;pr_d18ace14&#45;b250&#45;44d5&#45;9803&#45;0a4b7921b23c</title>
<path fill="none" stroke="black" d="M352.541,-673.615C349.84,-665.86 346.593,-656.538 343.247,-646.929"/>
<polygon fill="black" stroke="black" points="346.479,-645.566 339.884,-637.273 339.868,-647.868 346.479,-645.566"/>
</g>
<!-- AKT1 -->
<g id="node15" class="node"><title>AKT1</title>
<ellipse fill="none" stroke="black" cx="527.5" cy="-906.342" rx="18" ry="18"/>
<text text-anchor="middle" x="527.5" y="-905.142" font-family="Times,serif" font-size="4.00">AKT1</text>
</g>
<!-- AKT1&#45;&gt;pr_d18ace14&#45;b250&#45;44d5&#45;9803&#45;0a4b7921b23c -->
<g id="edge23" class="edge"><title>AKT1&#45;&gt;pr_d18ace14&#45;b250&#45;44d5&#45;9803&#45;0a4b7921b23c</title>
<path fill="none" stroke="black" d="M513.124,-895.244C500.198,-885.529 481.458,-869.778 469.5,-852.342 442.519,-813 449.91,-795.919 430.5,-752.342 414.408,-716.215 411.81,-706.171 390.5,-672.855 384.632,-663.68 377.975,-654.32 371.178,-645.318"/>
<polygon fill="black" stroke="black" points="373.784,-642.965 364.916,-637.168 368.233,-647.231 373.784,-642.965"/>
</g>
<!-- pr_9063c971&#45;7644&#45;4222&#45;9f55&#45;46f0b3eb13b4 -->
<g id="node27" class="node"><title>pr_9063c971&#45;7644&#45;4222&#45;9f55&#45;46f0b3eb13b4</title>
<polygon fill="none" stroke="black" points="694,-851.842 595,-851.842 595,-752.842 694,-752.842 694,-851.842"/>
<text text-anchor="middle" x="644.5" y="-801.142" font-family="Times,serif" font-size="4.00">pr_9063c971&#45;7644&#45;4222&#45;9f55&#45;46f0b3eb13b4</text>
</g>
<!-- AKT1&#45;&gt;pr_9063c971&#45;7644&#45;4222&#45;9f55&#45;46f0b3eb13b4 -->
<g id="edge24" class="edge"><title>AKT1&#45;&gt;pr_9063c971&#45;7644&#45;4222&#45;9f55&#45;46f0b3eb13b4</title>
<path fill="none" stroke="black" d="M538.491,-891.585C549.962,-880.261 568.493,-863.55 586.91,-847.708"/>
<polygon fill="black" stroke="black" points="589.445,-850.146 594.775,-840.99 584.898,-844.824 589.445,-850.146"/>
</g>
<!-- AKT1&#45;&gt;pr_639bd2d8&#45;3e73&#45;494c&#45;8ff8&#45;6ec40f181fba -->
<g id="edge25" class="edge"><title>AKT1&#45;&gt;pr_639bd2d8&#45;3e73&#45;494c&#45;8ff8&#45;6ec40f181fba</title>
<path fill="none" stroke="black" d="M511.803,-897.16C493.166,-887.252 461.353,-869.721 435.5,-852.342 433.631,-851.085 431.746,-849.791 429.854,-848.469"/>
<polygon fill="black" stroke="black" points="431.712,-845.495 421.542,-842.523 427.639,-851.188 431.712,-845.495"/>
</g>
<!-- pr_91f211a2&#45;6bbd&#45;4eef&#45;8a72&#45;687d69b37611 -->
<g id="node44" class="node"><title>pr_91f211a2&#45;6bbd&#45;4eef&#45;8a72&#45;687d69b37611</title>
<polygon fill="none" stroke="black" points="577,-851.842 478,-851.842 478,-752.842 577,-752.842 577,-851.842"/>
<text text-anchor="middle" x="527.5" y="-801.142" font-family="Times,serif" font-size="4.00">pr_91f211a2&#45;6bbd&#45;4eef&#45;8a72&#45;687d69b37611</text>
</g>
<!-- AKT1&#45;&gt;pr_91f211a2&#45;6bbd&#45;4eef&#45;8a72&#45;687d69b37611 -->
<g id="edge26" class="edge"><title>AKT1&#45;&gt;pr_91f211a2&#45;6bbd&#45;4eef&#45;8a72&#45;687d69b37611</title>
<path fill="none" stroke="black" d="M527.5,-888.039C527.5,-880.692 527.5,-871.658 527.5,-862.255"/>
<polygon fill="black" stroke="black" points="531,-861.97 527.5,-851.97 524,-861.971 531,-861.97"/>
</g>
<!-- BID -->
<g id="node16" class="node"><title>BID</title>
<ellipse fill="none" stroke="black" cx="180.5" cy="-237.229" rx="18" ry="18"/>
<text text-anchor="middle" x="180.5" y="-236.029" font-family="Times,serif" font-size="4.00">BID</text>
</g>
<!-- BID&#45;&gt;pr_7ba2e068&#45;a806&#45;4c9e&#45;b8eb&#45;ccd774d37b62 -->
<g id="edge27" class="edge"><title>BID&#45;&gt;pr_7ba2e068&#45;a806&#45;4c9e&#45;b8eb&#45;ccd774d37b62</title>
<path fill="none" stroke="black" d="M185.402,-254.682C186.564,-264.958 187.178,-278.886 187.244,-293.022"/>
<polygon fill="black" stroke="black" points="183.743,-293.287 187.196,-303.303 190.743,-293.32 183.743,-293.287"/>
</g>
<!-- pr_a040f75d&#45;93c4&#45;4292&#45;9899&#45;4e406aaf9580 -->
<g id="node19" class="node"><title>pr_a040f75d&#45;93c4&#45;4292&#45;9899&#45;4e406aaf9580</title>
<polygon fill="none" stroke="black" points="525,-171 426,-171 426,-72 525,-72 525,-171"/>
<text text-anchor="middle" x="475.5" y="-120.3" font-family="Times,serif" font-size="4.00">pr_a040f75d&#45;93c4&#45;4292&#45;9899&#45;4e406aaf9580</text>
</g>
<!-- BID&#45;&gt;pr_a040f75d&#45;93c4&#45;4292&#45;9899&#45;4e406aaf9580 -->
<g id="edge28" class="edge"><title>BID&#45;&gt;pr_a040f75d&#45;93c4&#45;4292&#45;9899&#45;4e406aaf9580</title>
<path fill="none" stroke="black" d="M197.206,-229.788C238.648,-213.812 347.776,-171.74 416.417,-145.278"/>
<polygon fill="black" stroke="black" points="417.75,-148.515 425.822,-141.652 415.232,-141.983 417.75,-148.515"/>
</g>
<!-- pr_7ba2e068&#45;a806&#45;4c9e&#45;b8eb&#45;ccd774d37b62&#45;&gt;BID -->
<g id="edge29" class="edge"><title>pr_7ba2e068&#45;a806&#45;4c9e&#45;b8eb&#45;ccd774d37b62&#45;&gt;BID</title>
<path fill="none" stroke="black" d="M173.804,-303.303C173.617,-290.086 173.914,-276.313 174.698,-264.859"/>
<polygon fill="black" stroke="black" points="178.203,-264.951 175.598,-254.682 171.23,-264.335 178.203,-264.951"/>
</g>
<!-- BAX -->
<g id="node18" class="node"><title>BAX</title>
<ellipse fill="none" stroke="black" cx="475.5" cy="-18" rx="18" ry="18"/>
<text text-anchor="middle" x="475.5" y="-16.8" font-family="Times,serif" font-size="4.00">BAX</text>
</g>
<!-- BAX&#45;&gt;pr_a040f75d&#45;93c4&#45;4292&#45;9899&#45;4e406aaf9580 -->
<g id="edge30" class="edge"><title>BAX&#45;&gt;pr_a040f75d&#45;93c4&#45;4292&#45;9899&#45;4e406aaf9580</title>
<path fill="none" stroke="black" d="M480.654,-35.647C481.488,-43.0329 481.995,-52.2125 482.175,-61.7797"/>
<polygon fill="black" stroke="black" points="478.676,-61.8555 482.245,-71.831 485.676,-61.807 478.676,-61.8555"/>
</g>
<!-- pr_a040f75d&#45;93c4&#45;4292&#45;9899&#45;4e406aaf9580&#45;&gt;BAX -->
<g id="edge31" class="edge"><title>pr_a040f75d&#45;93c4&#45;4292&#45;9899&#45;4e406aaf9580&#45;&gt;BAX</title>
<path fill="none" stroke="black" d="M468.755,-71.831C468.712,-62.8766 468.949,-53.8356 469.467,-45.8256"/>
<polygon fill="black" stroke="black" points="472.972,-45.9113 470.346,-35.647 465.998,-45.3084 472.972,-45.9113"/>
</g>
<!-- BAD/BBC3/BCL2L11 -->
<g id="node20" class="node"><title>BAD/BBC3/BCL2L11</title>
<ellipse fill="none" stroke="black" cx="475.5" cy="-237.229" rx="30.4594" ry="30.4594"/>
<text text-anchor="middle" x="475.5" y="-236.029" font-family="Times,serif" font-size="4.00">BAD/BBC3/BCL2L11</text>
</g>
<!-- BAD/BBC3/BCL2L11&#45;&gt;pr_a040f75d&#45;93c4&#45;4292&#45;9899&#45;4e406aaf9580 -->
<g id="edge32" class="edge"><title>BAD/BBC3/BCL2L11&#45;&gt;pr_a040f75d&#45;93c4&#45;4292&#45;9899&#45;4e406aaf9580</title>
<path fill="none" stroke="black" d="M475.5,-206.941C475.5,-199.003 475.5,-190.119 475.5,-181.176"/>
<polygon fill="black" stroke="black" points="479,-181.1 475.5,-171.1 472,-181.1 479,-181.1"/>
</g>
<!-- pr_bdc12bd1&#45;6bc6&#45;46ac&#45;b008&#45;4e0433dd2c1b -->
<g id="node34" class="node"><title>pr_bdc12bd1&#45;6bc6&#45;46ac&#45;b008&#45;4e0433dd2c1b</title>
<polygon fill="none" stroke="black" points="526,-404.458 425,-404.458 425,-303.458 526,-303.458 526,-404.458"/>
<text text-anchor="middle" x="475.5" y="-352.758" font-family="Times,serif" font-size="4.00">pr_bdc12bd1&#45;6bc6&#45;46ac&#45;b008&#45;4e0433dd2c1b</text>
</g>
<!-- BAD/BBC3/BCL2L11&#45;&gt;pr_bdc12bd1&#45;6bc6&#45;46ac&#45;b008&#45;4e0433dd2c1b -->
<g id="edge33" class="edge"><title>BAD/BBC3/BCL2L11&#45;&gt;pr_bdc12bd1&#45;6bc6&#45;46ac&#45;b008&#45;4e0433dd2c1b</title>
<path fill="none" stroke="black" d="M481.449,-267.131C481.938,-275.107 482.203,-284.066 482.244,-293.108"/>
<polygon fill="black" stroke="black" points="478.744,-293.286 482.196,-303.303 485.743,-293.32 478.744,-293.286"/>
</g>
<!-- BCL2/MCL1/BCL2L1 -->
<g id="node21" class="node"><title>BCL2/MCL1/BCL2L1</title>
<ellipse fill="none" stroke="black" cx="554.5" cy="-470.156" rx="29.8983" ry="29.8983"/>
<text text-anchor="middle" x="554.5" y="-468.956" font-family="Times,serif" font-size="4.00">BCL2/MCL1/BCL2L1</text>
</g>
<!-- BCL2/MCL1/BCL2L1&#45;&gt;pr_a040f75d&#45;93c4&#45;4292&#45;9899&#45;4e406aaf9580 -->
<g id="edge34" class="edge"><title>BCL2/MCL1/BCL2L1&#45;&gt;pr_a040f75d&#45;93c4&#45;4292&#45;9899&#45;4e406aaf9580</title>
<path fill="none" stroke="black" d="M553.333,-440.472C550.638,-391.434 541.932,-288.85 514.5,-207 511.597,-198.337 508.073,-189.379 504.345,-180.677"/>
<polygon fill="black" stroke="black" points="507.475,-179.102 500.239,-171.363 501.07,-181.925 507.475,-179.102"/>
</g>
<!-- BCL2/MCL1/BCL2L1&#45;&gt;pr_bdc12bd1&#45;6bc6&#45;46ac&#45;b008&#45;4e0433dd2c1b -->
<g id="edge35" class="edge"><title>BCL2/MCL1/BCL2L1&#45;&gt;pr_bdc12bd1&#45;6bc6&#45;46ac&#45;b008&#45;4e0433dd2c1b</title>
<path fill="none" stroke="black" d="M537.939,-445.216C531.386,-435.743 523.543,-424.406 515.665,-413.018"/>
<polygon fill="black" stroke="black" points="518.508,-410.976 509.94,-404.743 512.751,-414.958 518.508,-410.976"/>
</g>
<!-- pr_fb5ce0cb&#45;b1de&#45;406f&#45;ba23&#45;c06f669c3a54 -->
<g id="node35" class="node"><title>pr_fb5ce0cb&#45;b1de&#45;406f&#45;ba23&#45;c06f669c3a54</title>
<polygon fill="none" stroke="black" points="603.5,-635.355 505.5,-635.355 505.5,-537.355 603.5,-537.355 603.5,-635.355"/>
<text text-anchor="middle" x="554.5" y="-585.155" font-family="Times,serif" font-size="4.00">pr_fb5ce0cb&#45;b1de&#45;406f&#45;ba23&#45;c06f669c3a54</text>
</g>
<!-- BCL2/MCL1/BCL2L1&#45;&gt;pr_fb5ce0cb&#45;b1de&#45;406f&#45;ba23&#45;c06f669c3a54 -->
<g id="edge36" class="edge"><title>BCL2/MCL1/BCL2L1&#45;&gt;pr_fb5ce0cb&#45;b1de&#45;406f&#45;ba23&#45;c06f669c3a54</title>
<path fill="none" stroke="black" d="M560.412,-499.332C560.951,-507.828 561.23,-517.484 561.249,-527.181"/>
<polygon fill="black" stroke="black" points="557.749,-527.23 561.175,-537.255 564.748,-527.281 557.749,-527.23"/>
</g>
<!-- CYCS -->
<g id="node22" class="node"><title>CYCS</title>
<ellipse fill="none" stroke="black" cx="762.5" cy="-906.342" rx="18" ry="18"/>
<text text-anchor="middle" x="762.5" y="-905.142" font-family="Times,serif" font-size="4.00">CYCS</text>
</g>
<!-- pr_fbd8be86&#45;c6e0&#45;493e&#45;b191&#45;00c50b6e74c6 -->
<g id="node23" class="node"><title>pr_fbd8be86&#45;c6e0&#45;493e&#45;b191&#45;00c50b6e74c6</title>
<polygon fill="none" stroke="black" points="812.5,-852.342 712.5,-852.342 712.5,-752.342 812.5,-752.342 812.5,-852.342"/>
<text text-anchor="middle" x="762.5" y="-801.142" font-family="Times,serif" font-size="4.00">pr_fbd8be86&#45;c6e0&#45;493e&#45;b191&#45;00c50b6e74c6</text>
</g>
<!-- CYCS&#45;&gt;pr_fbd8be86&#45;c6e0&#45;493e&#45;b191&#45;00c50b6e74c6 -->
<g id="edge37" class="edge"><title>CYCS&#45;&gt;pr_fbd8be86&#45;c6e0&#45;493e&#45;b191&#45;00c50b6e74c6</title>
<path fill="none" stroke="black" d="M757.385,-888.954C756.542,-881.598 756.025,-872.422 755.834,-862.835"/>
<polygon fill="black" stroke="black" points="759.333,-862.726 755.753,-852.754 752.333,-862.782 759.333,-862.726"/>
</g>
<!-- CYCS&#45;&gt;pr_639bd2d8&#45;3e73&#45;494c&#45;8ff8&#45;6ec40f181fba -->
<g id="edge38" class="edge"><title>CYCS&#45;&gt;pr_639bd2d8&#45;3e73&#45;494c&#45;8ff8&#45;6ec40f181fba</title>
<path fill="none" stroke="black" d="M744.722,-901.975C726.385,-898.514 696.955,-892.988 671.5,-888.342 581.79,-871.968 556.004,-881.206 469.5,-852.342 456.539,-848.017 443.148,-842.217 430.608,-836.124"/>
<polygon fill="black" stroke="black" points="432.156,-832.985 421.645,-831.652 429.03,-839.248 432.156,-832.985"/>
</g>
<!-- pr_fbd8be86&#45;c6e0&#45;493e&#45;b191&#45;00c50b6e74c6&#45;&gt;CYCS -->
<g id="edge39" class="edge"><title>pr_fbd8be86&#45;c6e0&#45;493e&#45;b191&#45;00c50b6e74c6&#45;&gt;CYCS</title>
<path fill="none" stroke="black" d="M769.247,-852.754C769.28,-861.743 769.033,-870.797 768.506,-878.799"/>
<polygon fill="black" stroke="black" points="765.003,-878.686 767.615,-888.954 771.976,-879.298 765.003,-878.686"/>
</g>
<!-- MAPK14 -->
<g id="node24" class="node"><title>MAPK14</title>
<ellipse fill="none" stroke="black" cx="852.5" cy="-906.342" rx="18" ry="18"/>
<text text-anchor="middle" x="852.5" y="-905.142" font-family="Times,serif" font-size="4.00">MAPK14</text>
</g>
<!-- MAPK14&#45;&gt;pr_fbd8be86&#45;c6e0&#45;493e&#45;b191&#45;00c50b6e74c6 -->
<g id="edge40" class="edge"><title>MAPK14&#45;&gt;pr_fbd8be86&#45;c6e0&#45;493e&#45;b191&#45;00c50b6e74c6</title>
<path fill="none" stroke="black" d="M840.734,-892.007C833.386,-883.679 823.367,-872.324 812.952,-860.52"/>
<polygon fill="black" stroke="black" points="815.315,-857.909 806.075,-852.726 810.067,-862.54 815.315,-857.909"/>
</g>
<!-- pr_2fd08153&#45;88e0&#45;475d&#45;9273&#45;23f44ed2c9f4 -->
<g id="node32" class="node"><title>pr_2fd08153&#45;88e0&#45;475d&#45;9273&#45;23f44ed2c9f4</title>
<polygon fill="none" stroke="black" points="928.5,-851.342 830.5,-851.342 830.5,-753.342 928.5,-753.342 928.5,-851.342"/>
<text text-anchor="middle" x="879.5" y="-801.142" font-family="Times,serif" font-size="4.00">pr_2fd08153&#45;88e0&#45;475d&#45;9273&#45;23f44ed2c9f4</text>
</g>
<!-- MAPK14&#45;&gt;pr_2fd08153&#45;88e0&#45;475d&#45;9273&#45;23f44ed2c9f4 -->
<g id="edge41" class="edge"><title>MAPK14&#45;&gt;pr_2fd08153&#45;88e0&#45;475d&#45;9273&#45;23f44ed2c9f4</title>
<path fill="none" stroke="black" d="M851.863,-888.039C853.046,-880.451 855.039,-871.062 857.458,-861.326"/>
<polygon fill="black" stroke="black" points="860.876,-862.089 860.003,-851.53 854.101,-860.328 860.876,-862.089"/>
</g>
<!-- CASP7 -->
<g id="node25" class="node"><title>CASP7</title>
<ellipse fill="none" stroke="black" cx="199.5" cy="-694.598" rx="18" ry="18"/>
<text text-anchor="middle" x="199.5" y="-693.398" font-family="Times,serif" font-size="4.00">CASP7</text>
</g>
<!-- CASP7&#45;&gt;pr_1c1be98e&#45;f658&#45;4fa8&#45;9a66&#45;eda899c876cb -->
<g id="edge42" class="edge"><title>CASP7&#45;&gt;pr_1c1be98e&#45;f658&#45;4fa8&#45;9a66&#45;eda899c876cb</title>
<path fill="none" stroke="black" d="M204.58,-712.277C205.526,-720.686 206.07,-731.445 206.212,-742.556"/>
<polygon fill="black" stroke="black" points="202.713,-742.809 206.23,-752.803 209.713,-742.797 202.713,-742.809"/>
</g>
<!-- pr_1c1be98e&#45;f658&#45;4fa8&#45;9a66&#45;eda899c876cb&#45;&gt;CASP7 -->
<g id="edge43" class="edge"><title>pr_1c1be98e&#45;f658&#45;4fa8&#45;9a66&#45;eda899c876cb&#45;&gt;CASP7</title>
<path fill="none" stroke="black" d="M192.77,-752.803C192.673,-742.344 192.929,-731.659 193.54,-722.397"/>
<polygon fill="black" stroke="black" points="197.04,-722.543 194.42,-712.277 190.067,-721.936 197.04,-722.543"/>
</g>
<!-- pr_9063c971&#45;7644&#45;4222&#45;9f55&#45;46f0b3eb13b4&#45;&gt;AKT1 -->
<g id="edge44" class="edge"><title>pr_9063c971&#45;7644&#45;4222&#45;9f55&#45;46f0b3eb13b4&#45;&gt;AKT1</title>
<path fill="none" stroke="black" d="M595.549,-851.896C579.879,-865.625 563.283,-879.59 550.341,-889.801"/>
<polygon fill="black" stroke="black" points="548.184,-887.045 542.411,-895.929 552.464,-892.584 548.184,-887.045"/>
</g>
<!-- M -->
<g id="node28" class="node"><title>M</title>
<ellipse fill="none" stroke="black" cx="644.5" cy="-906.342" rx="18" ry="18"/>
<text text-anchor="middle" x="644.5" y="-905.142" font-family="Times,serif" font-size="4.00">M</text>
</g>
<!-- M&#45;&gt;pr_9063c971&#45;7644&#45;4222&#45;9f55&#45;46f0b3eb13b4 -->
<g id="edge45" class="edge"><title>M&#45;&gt;pr_9063c971&#45;7644&#45;4222&#45;9f55&#45;46f0b3eb13b4</title>
<path fill="none" stroke="black" d="M644.5,-888.039C644.5,-880.692 644.5,-871.658 644.5,-862.255"/>
<polygon fill="black" stroke="black" points="648,-861.97 644.5,-851.97 641,-861.971 648,-861.97"/>
</g>
<!-- pr_124fffb7&#45;411b&#45;4b22&#45;884c&#45;d13ecb7ee493&#45;&gt;TRADD/FADD -->
<g id="edge46" class="edge"><title>pr_124fffb7&#45;411b&#45;4b22&#45;884c&#45;d13ecb7ee493&#45;&gt;TRADD/FADD</title>
<path fill="none" stroke="black" d="M120.609,-1177.82C119.544,-1169.11 118.457,-1160.22 117.463,-1152.09"/>
<polygon fill="black" stroke="black" points="120.909,-1151.44 116.221,-1141.94 113.961,-1152.29 120.909,-1151.44"/>
</g>
<!-- TRADD -->
<g id="node30" class="node"><title>TRADD</title>
<ellipse fill="none" stroke="black" cx="186.5" cy="-1336.41" rx="18" ry="18"/>
<text text-anchor="middle" x="186.5" y="-1335.21" font-family="Times,serif" font-size="4.00">TRADD</text>
</g>
<!-- TRADD&#45;&gt;pr_124fffb7&#45;411b&#45;4b22&#45;884c&#45;d13ecb7ee493 -->
<g id="edge47" class="edge"><title>TRADD&#45;&gt;pr_124fffb7&#45;411b&#45;4b22&#45;884c&#45;d13ecb7ee493</title>
<path fill="none" stroke="black" d="M177.903,-1320.02C172.691,-1310.69 165.679,-1298.14 158.513,-1285.31"/>
<polygon fill="black" stroke="black" points="161.48,-1283.45 153.548,-1276.42 155.369,-1286.86 161.48,-1283.45"/>
</g>
<!-- TNF/TNFRSF1A -->
<g id="node31" class="node"><title>TNF/TNFRSF1A</title>
<ellipse fill="none" stroke="black" cx="126.5" cy="-1336.41" rx="24.2908" ry="24.2908"/>
<text text-anchor="middle" x="126.5" y="-1335.21" font-family="Times,serif" font-size="4.00">TNF/TNFRSF1A</text>
</g>
<!-- TNF/TNFRSF1A&#45;&gt;pr_124fffb7&#45;411b&#45;4b22&#45;884c&#45;d13ecb7ee493 -->
<g id="edge48" class="edge"><title>TNF/TNFRSF1A&#45;&gt;pr_124fffb7&#45;411b&#45;4b22&#45;884c&#45;d13ecb7ee493</title>
<path fill="none" stroke="black" d="M126.5,-1311.84C126.5,-1304.21 126.5,-1295.39 126.5,-1286.38"/>
<polygon fill="black" stroke="black" points="130,-1286.2 126.5,-1276.2 123,-1286.2 130,-1286.2"/>
</g>
<!-- pr_2fd08153&#45;88e0&#45;475d&#45;9273&#45;23f44ed2c9f4&#45;&gt;MAPK14 -->
<g id="edge49" class="edge"><title>pr_2fd08153&#45;88e0&#45;475d&#45;9273&#45;23f44ed2c9f4&#45;&gt;MAPK14</title>
<path fill="none" stroke="black" d="M873.45,-851.667C870.844,-861.746 867.849,-871.965 864.883,-880.743"/>
<polygon fill="black" stroke="black" points="861.54,-879.697 861.439,-890.291 868.124,-882.072 861.54,-879.697"/>
</g>
<!-- Orf3a -->
<g id="node33" class="node"><title>Orf3a</title>
<ellipse fill="none" stroke="black" cx="906.5" cy="-906.342" rx="18" ry="18"/>
<text text-anchor="middle" x="906.5" y="-905.142" font-family="Times,serif" font-size="4.00">Orf3a</text>
</g>
<!-- Orf3a&#45;&gt;pr_2fd08153&#45;88e0&#45;475d&#45;9273&#45;23f44ed2c9f4 -->
<g id="edge50" class="edge"><title>Orf3a&#45;&gt;pr_2fd08153&#45;88e0&#45;475d&#45;9273&#45;23f44ed2c9f4</title>
<path fill="none" stroke="black" d="M902.041,-888.498C900.019,-880.86 897.497,-871.329 894.878,-861.435"/>
<polygon fill="black" stroke="black" points="898.184,-860.248 892.241,-851.476 891.417,-862.039 898.184,-860.248"/>
</g>
<!-- pr_bdc12bd1&#45;6bc6&#45;46ac&#45;b008&#45;4e0433dd2c1b&#45;&gt;BAD/BBC3/BCL2L11 -->
<g id="edge51" class="edge"><title>pr_bdc12bd1&#45;6bc6&#45;46ac&#45;b008&#45;4e0433dd2c1b&#45;&gt;BAD/BBC3/BCL2L11</title>
<path fill="none" stroke="black" d="M468.804,-303.303C468.681,-294.617 468.767,-285.69 469.063,-277.339"/>
<polygon fill="black" stroke="black" points="472.57,-277.287 469.551,-267.131 465.578,-276.953 472.57,-277.287"/>
</g>
<!-- pr_fb5ce0cb&#45;b1de&#45;406f&#45;ba23&#45;c06f669c3a54&#45;&gt;BCL2/MCL1/BCL2L1 -->
<g id="edge52" class="edge"><title>pr_fb5ce0cb&#45;b1de&#45;406f&#45;ba23&#45;c06f669c3a54&#45;&gt;BCL2/MCL1/BCL2L1</title>
<path fill="none" stroke="black" d="M547.825,-537.255C547.669,-527.967 547.756,-518.353 548.087,-509.429"/>
<polygon fill="black" stroke="black" points="551.588,-509.493 548.588,-499.332 544.597,-509.147 551.588,-509.493"/>
</g>
<!-- Orf7a -->
<g id="node36" class="node"><title>Orf7a</title>
<ellipse fill="none" stroke="black" cx="581.5" cy="-694.598" rx="18" ry="18"/>
<text text-anchor="middle" x="581.5" y="-693.398" font-family="Times,serif" font-size="4.00">Orf7a</text>
</g>
<!-- Orf7a&#45;&gt;pr_fb5ce0cb&#45;b1de&#45;406f&#45;ba23&#45;c06f669c3a54 -->
<g id="edge53" class="edge"><title>Orf7a&#45;&gt;pr_fb5ce0cb&#45;b1de&#45;406f&#45;ba23&#45;c06f669c3a54</title>
<path fill="none" stroke="black" d="M577.281,-676.998C575.057,-668.243 572.18,-656.924 569.225,-645.295"/>
<polygon fill="black" stroke="black" points="572.591,-644.333 566.736,-635.503 565.807,-646.057 572.591,-644.333"/>
</g>
<!-- E -->
<g id="node37" class="node"><title>E</title>
<ellipse fill="none" stroke="black" cx="635.5" cy="-694.598" rx="18" ry="18"/>
<text text-anchor="middle" x="635.5" y="-693.398" font-family="Times,serif" font-size="4.00">E</text>
</g>
<!-- E&#45;&gt;pr_fb5ce0cb&#45;b1de&#45;406f&#45;ba23&#45;c06f669c3a54 -->
<g id="edge54" class="edge"><title>E&#45;&gt;pr_fb5ce0cb&#45;b1de&#45;406f&#45;ba23&#45;c06f669c3a54</title>
<path fill="none" stroke="black" d="M624.911,-679.709C617.669,-670.211 607.546,-656.932 597.229,-643.4"/>
<polygon fill="black" stroke="black" points="599.999,-641.26 591.153,-635.43 594.432,-645.504 599.999,-641.26"/>
</g>
<!-- BAD -->
<g id="node38" class="node"><title>BAD</title>
<ellipse fill="none" stroke="black" cx="527.5" cy="-694.598" rx="18" ry="18"/>
<text text-anchor="middle" x="527.5" y="-693.398" font-family="Times,serif" font-size="4.00">BAD</text>
</g>
<!-- BAD&#45;&gt;pr_fb5ce0cb&#45;b1de&#45;406f&#45;ba23&#45;c06f669c3a54 -->
<g id="edge55" class="edge"><title>BAD&#45;&gt;pr_fb5ce0cb&#45;b1de&#45;406f&#45;ba23&#45;c06f669c3a54</title>
<path fill="none" stroke="black" d="M531.719,-676.998C533.943,-668.243 536.82,-656.924 539.775,-645.295"/>
<polygon fill="black" stroke="black" points="543.193,-646.057 542.264,-635.503 536.409,-644.333 543.193,-646.057"/>
</g>
<!-- BAD&#45;&gt;pr_91f211a2&#45;6bbd&#45;4eef&#45;8a72&#45;687d69b37611 -->
<g id="edge56" class="edge"><title>BAD&#45;&gt;pr_91f211a2&#45;6bbd&#45;4eef&#45;8a72&#45;687d69b37611</title>
<path fill="none" stroke="black" d="M532.58,-712.277C533.526,-720.686 534.07,-731.445 534.212,-742.556"/>
<polygon fill="black" stroke="black" points="530.713,-742.809 534.23,-752.803 537.713,-742.797 530.713,-742.809"/>
</g>
<!-- TNFRSF1A -->
<g id="node39" class="node"><title>TNFRSF1A</title>
<ellipse fill="none" stroke="black" cx="195.5" cy="-1553.42" rx="19.7452" ry="19.7452"/>
<text text-anchor="middle" x="195.5" y="-1552.22" font-family="Times,serif" font-size="4.00">TNFRSF1A</text>
</g>
<!-- pr_9a34b267&#45;5a0e&#45;455e&#45;90dc&#45;4e64cb7956c8 -->
<g id="node40" class="node"><title>pr_9a34b267&#45;5a0e&#45;455e&#45;90dc&#45;4e64cb7956c8</title>
<polygon fill="none" stroke="black" points="218,-1497.8 117,-1497.8 117,-1396.8 218,-1396.8 218,-1497.8"/>
<text text-anchor="middle" x="167.5" y="-1446.1" font-family="Times,serif" font-size="4.00">pr_9a34b267&#45;5a0e&#45;455e&#45;90dc&#45;4e64cb7956c8</text>
</g>
<!-- TNFRSF1A&#45;&gt;pr_9a34b267&#45;5a0e&#45;455e&#45;90dc&#45;4e64cb7956c8 -->
<g id="edge57" class="edge"><title>TNFRSF1A&#45;&gt;pr_9a34b267&#45;5a0e&#45;455e&#45;90dc&#45;4e64cb7956c8</title>
<path fill="none" stroke="black" d="M190.623,-1534.29C188.578,-1526.68 186.073,-1517.37 183.476,-1507.71"/>
<polygon fill="black" stroke="black" points="186.839,-1506.74 180.862,-1497.99 180.079,-1508.56 186.839,-1506.74"/>
</g>
<!-- pr_9a34b267&#45;5a0e&#45;455e&#45;90dc&#45;4e64cb7956c8&#45;&gt;TNF/TNFRSF1A -->
<g id="edge58" class="edge"><title>pr_9a34b267&#45;5a0e&#45;455e&#45;90dc&#45;4e64cb7956c8&#45;&gt;TNF/TNFRSF1A</title>
<path fill="none" stroke="black" d="M148.8,-1396.63C145.278,-1387.28 141.685,-1377.74 138.44,-1369.12"/>
<polygon fill="black" stroke="black" points="141.616,-1367.62 134.817,-1359.5 135.065,-1370.09 141.616,-1367.62"/>
</g>
<!-- TNF -->
<g id="node41" class="node"><title>TNF</title>
<ellipse fill="none" stroke="black" cx="139.5" cy="-1553.42" rx="18" ry="18"/>
<text text-anchor="middle" x="139.5" y="-1552.22" font-family="Times,serif" font-size="4.00">TNF</text>
</g>
<!-- TNF&#45;&gt;pr_9a34b267&#45;5a0e&#45;455e&#45;90dc&#45;4e64cb7956c8 -->
<g id="edge59" class="edge"><title>TNF&#45;&gt;pr_9a34b267&#45;5a0e&#45;455e&#45;90dc&#45;4e64cb7956c8</title>
<path fill="none" stroke="black" d="M143.999,-1535.69C146.107,-1527.85 148.761,-1517.99 151.518,-1507.73"/>
<polygon fill="black" stroke="black" points="154.963,-1508.4 154.18,-1497.83 148.203,-1506.58 154.963,-1508.4"/>
</g>
<!-- pr_639bd2d8&#45;3e73&#45;494c&#45;8ff8&#45;6ec40f181fba&#45;&gt;Apoptosome -->
<g id="edge60" class="edge"><title>pr_639bd2d8&#45;3e73&#45;494c&#45;8ff8&#45;6ec40f181fba&#45;&gt;Apoptosome</title>
<path fill="none" stroke="black" d="M366.571,-753.112C365.45,-743.996 364.307,-734.696 363.275,-726.304"/>
<polygon fill="black" stroke="black" points="366.732,-725.743 362.038,-716.244 359.785,-726.597 366.732,-725.743"/>
</g>
<!-- APAF1 -->
<g id="node43" class="node"><title>APAF1</title>
<ellipse fill="none" stroke="black" cx="372.5" cy="-906.342" rx="18" ry="18"/>
<text text-anchor="middle" x="372.5" y="-905.142" font-family="Times,serif" font-size="4.00">APAF1</text>
</g>
<!-- APAF1&#45;&gt;pr_639bd2d8&#45;3e73&#45;494c&#45;8ff8&#45;6ec40f181fba -->
<g id="edge61" class="edge"><title>APAF1&#45;&gt;pr_639bd2d8&#45;3e73&#45;494c&#45;8ff8&#45;6ec40f181fba</title>
<path fill="none" stroke="black" d="M372.5,-888.039C372.5,-880.53 372.5,-871.257 372.5,-861.631"/>
<polygon fill="black" stroke="black" points="376,-861.53 372.5,-851.53 369,-861.53 376,-861.53"/>
</g>
<!-- pr_91f211a2&#45;6bbd&#45;4eef&#45;8a72&#45;687d69b37611&#45;&gt;BAD -->
<g id="edge62" class="edge"><title>pr_91f211a2&#45;6bbd&#45;4eef&#45;8a72&#45;687d69b37611&#45;&gt;BAD</title>
<path fill="none" stroke="black" d="M520.77,-752.803C520.673,-742.344 520.929,-731.659 521.54,-722.397"/>
<polygon fill="black" stroke="black" points="525.04,-722.543 522.42,-712.277 518.067,-721.936 525.04,-722.543"/>
</g>
</g>
</svg>
