<?xml version="1.0" encoding="UTF-8" standalone="no"?>
<!DOCTYPE svg PUBLIC "-//W3C//DTD SVG 1.1//EN"
 "http://www.w3.org/Graphics/SVG/1.1/DTD/svg11.dtd">
<!-- Generated by graphviz version 2.38.0 (20140413.2041)
 -->
<!-- Title: G Pages: 1 -->
<svg width="735pt" height="1340pt"
 viewBox="0.00 0.00 735.00 1340.16" xmlns="http://www.w3.org/2000/svg" xmlns:xlink="http://www.w3.org/1999/xlink">
<g id="graph0" class="graph" transform="scale(1 1) rotate(0) translate(4 1336.16)">
<title>G</title>
<polygon fill="white" stroke="none" points="-4,4 -4,-1336.16 731,-1336.16 731,4 -4,4"/>
<!-- FASL -->
<g id="node1" class="node"><title>FASL</title>
<ellipse fill="none" stroke="black" cx="202" cy="-1314.16" rx="18" ry="18"/>
<text text-anchor="middle" x="202" y="-1312.96" font-family="Times,serif" font-size="4.00">FASL</text>
</g>
<!-- pr_41f64583&#45;82de&#45;4f17&#45;b94c&#45;dbf55a174bfd -->
<g id="node2" class="node"><title>pr_41f64583&#45;82de&#45;4f17&#45;b94c&#45;dbf55a174bfd</title>
<polygon fill="none" stroke="black" points="278,-1260.16 180,-1260.16 180,-1162.16 278,-1162.16 278,-1260.16"/>
<text text-anchor="middle" x="229" y="-1209.96" font-family="Times,serif" font-size="4.00">pr_41f64583&#45;82de&#45;4f17&#45;b94c&#45;dbf55a174bfd</text>
</g>
<!-- FASL&#45;&gt;pr_41f64583&#45;82de&#45;4f17&#45;b94c&#45;dbf55a174bfd -->
<g id="edge1" class="edge"><title>FASL&#45;&gt;pr_41f64583&#45;82de&#45;4f17&#45;b94c&#45;dbf55a174bfd</title>
<path fill="none" stroke="black" d="M206.459,-1296.49C208.458,-1289.01 210.947,-1279.69 213.535,-1270.01"/>
<polygon fill="black" stroke="black" points="216.94,-1270.83 216.141,-1260.26 210.177,-1269.02 216.94,-1270.83"/>
</g>
<!-- FAS/FASL -->
<g id="node4" class="node"><title>FAS/FASL</title>
<ellipse fill="none" stroke="black" cx="229" cy="-1107.6" rx="18.6233" ry="18.6233"/>
<text text-anchor="middle" x="229" y="-1106.4" font-family="Times,serif" font-size="4.00">FAS/FASL</text>
</g>
<!-- pr_41f64583&#45;82de&#45;4f17&#45;b94c&#45;dbf55a174bfd&#45;&gt;FAS/FASL -->
<g id="edge2" class="edge"><title>pr_41f64583&#45;82de&#45;4f17&#45;b94c&#45;dbf55a174bfd&#45;&gt;FAS/FASL</title>
<path fill="none" stroke="black" d="M229,-1162.06C229,-1153.32 229,-1144.47 229,-1136.56"/>
<polygon fill="black" stroke="black" points="232.5,-1136.44 229,-1126.44 225.5,-1136.44 232.5,-1136.44"/>
</g>
<!-- FAS -->
<g id="node3" class="node"><title>FAS</title>
<ellipse fill="none" stroke="black" cx="256" cy="-1314.16" rx="18" ry="18"/>
<text text-anchor="middle" x="256" y="-1312.96" font-family="Times,serif" font-size="4.00">FAS</text>
</g>
<!-- FAS&#45;&gt;pr_41f64583&#45;82de&#45;4f17&#45;b94c&#45;dbf55a174bfd -->
<g id="edge3" class="edge"><title>FAS&#45;&gt;pr_41f64583&#45;82de&#45;4f17&#45;b94c&#45;dbf55a174bfd</title>
<path fill="none" stroke="black" d="M251.541,-1296.49C249.542,-1289.01 247.053,-1279.69 244.465,-1270.01"/>
<polygon fill="black" stroke="black" points="247.823,-1269.02 241.859,-1260.26 241.06,-1270.83 247.823,-1269.02"/>
</g>
<!-- pr_b608b060&#45;cb11&#45;4ae0&#45;a5ff&#45;39e5f1b8d25f -->
<g id="node10" class="node"><title>pr_b608b060&#45;cb11&#45;4ae0&#45;a5ff&#45;39e5f1b8d25f</title>
<polygon fill="none" stroke="black" points="278,-1052.54 180,-1052.54 180,-954.54 278,-954.54 278,-1052.54"/>
<text text-anchor="middle" x="229" y="-1002.34" font-family="Times,serif" font-size="4.00">pr_b608b060&#45;cb11&#45;4ae0&#45;a5ff&#45;39e5f1b8d25f</text>
</g>
<!-- FAS/FASL&#45;&gt;pr_b608b060&#45;cb11&#45;4ae0&#45;a5ff&#45;39e5f1b8d25f -->
<g id="edge4" class="edge"><title>FAS/FASL&#45;&gt;pr_b608b060&#45;cb11&#45;4ae0&#45;a5ff&#45;39e5f1b8d25f</title>
<path fill="none" stroke="black" d="M229,-1088.82C229,-1081.44 229,-1072.42 229,-1063.05"/>
<polygon fill="black" stroke="black" points="232.5,-1062.81 229,-1052.81 225.5,-1062.81 232.5,-1062.81"/>
</g>
<!-- TNFA -->
<g id="node5" class="node"><title>TNFA</title>
<ellipse fill="none" stroke="black" cx="139" cy="-1107.6" rx="18" ry="18"/>
<text text-anchor="middle" x="139" y="-1106.4" font-family="Times,serif" font-size="4.00">TNFA</text>
</g>
<!-- pr_3de16eca&#45;9032&#45;4705&#45;a932&#45;685cdf3e1bfd -->
<g id="node6" class="node"><title>pr_3de16eca&#45;9032&#45;4705&#45;a932&#45;685cdf3e1bfd</title>
<polygon fill="none" stroke="black" points="161.5,-1053.04 62.5,-1053.04 62.5,-954.04 161.5,-954.04 161.5,-1053.04"/>
<text text-anchor="middle" x="112" y="-1002.34" font-family="Times,serif" font-size="4.00">pr_3de16eca&#45;9032&#45;4705&#45;a932&#45;685cdf3e1bfd</text>
</g>
<!-- TNFA&#45;&gt;pr_3de16eca&#45;9032&#45;4705&#45;a932&#45;685cdf3e1bfd -->
<g id="edge5" class="edge"><title>TNFA&#45;&gt;pr_3de16eca&#45;9032&#45;4705&#45;a932&#45;685cdf3e1bfd</title>
<path fill="none" stroke="black" d="M134.541,-1089.75C132.542,-1082.19 130.053,-1072.78 127.465,-1063"/>
<polygon fill="black" stroke="black" points="130.8,-1061.92 124.859,-1053.15 124.033,-1063.71 130.8,-1061.92"/>
</g>
<!-- TNFA/TNFR1 -->
<g id="node8" class="node"><title>TNFA/TNFR1</title>
<ellipse fill="none" stroke="black" cx="151" cy="-896.297" rx="21.9898" ry="21.9898"/>
<text text-anchor="middle" x="151" y="-895.097" font-family="Times,serif" font-size="4.00">TNFA/TNFR1</text>
</g>
<!-- pr_3de16eca&#45;9032&#45;4705&#45;a932&#45;685cdf3e1bfd&#45;&gt;TNFA/TNFR1 -->
<g id="edge6" class="edge"><title>pr_3de16eca&#45;9032&#45;4705&#45;a932&#45;685cdf3e1bfd&#45;&gt;TNFA/TNFR1</title>
<path fill="none" stroke="black" d="M130.016,-953.923C133.487,-944.555 137.022,-935.017 140.176,-926.505"/>
<polygon fill="black" stroke="black" points="143.485,-927.649 143.678,-917.056 136.921,-925.217 143.485,-927.649"/>
</g>
<!-- TNFR1 -->
<g id="node7" class="node"><title>TNFR1</title>
<ellipse fill="none" stroke="black" cx="85" cy="-1107.6" rx="18" ry="18"/>
<text text-anchor="middle" x="85" y="-1106.4" font-family="Times,serif" font-size="4.00">TNFR1</text>
</g>
<!-- TNFR1&#45;&gt;pr_3de16eca&#45;9032&#45;4705&#45;a932&#45;685cdf3e1bfd -->
<g id="edge7" class="edge"><title>TNFR1&#45;&gt;pr_3de16eca&#45;9032&#45;4705&#45;a932&#45;685cdf3e1bfd</title>
<path fill="none" stroke="black" d="M89.4585,-1089.75C91.4581,-1082.19 93.9474,-1072.78 96.5352,-1063"/>
<polygon fill="black" stroke="black" points="99.9673,-1063.71 99.1412,-1053.15 93.2001,-1061.92 99.9673,-1063.71"/>
</g>
<!-- pr_499a14c0&#45;dda3&#45;4ebf&#45;96ae&#45;d4ed5f5c72ae -->
<g id="node36" class="node"><title>pr_499a14c0&#45;dda3&#45;4ebf&#45;96ae&#45;d4ed5f5c72ae</title>
<polygon fill="none" stroke="black" points="200.5,-838.553 101.5,-838.553 101.5,-739.553 200.5,-739.553 200.5,-838.553"/>
<text text-anchor="middle" x="151" y="-787.853" font-family="Times,serif" font-size="4.00">pr_499a14c0&#45;dda3&#45;4ebf&#45;96ae&#45;d4ed5f5c72ae</text>
</g>
<!-- TNFA/TNFR1&#45;&gt;pr_499a14c0&#45;dda3&#45;4ebf&#45;96ae&#45;d4ed5f5c72ae -->
<g id="edge8" class="edge"><title>TNFA/TNFR1&#45;&gt;pr_499a14c0&#45;dda3&#45;4ebf&#45;96ae&#45;d4ed5f5c72ae</title>
<path fill="none" stroke="black" d="M151,-874.504C151,-866.937 151,-857.964 151,-848.739"/>
<polygon fill="black" stroke="black" points="154.5,-848.684 151,-838.684 147.5,-848.684 154.5,-848.684"/>
</g>
<!-- FADD -->
<g id="node9" class="node"><title>FADD</title>
<ellipse fill="none" stroke="black" cx="229" cy="-896.297" rx="18" ry="18"/>
<text text-anchor="middle" x="229" y="-895.097" font-family="Times,serif" font-size="4.00">FADD</text>
</g>
<!-- FADD&#45;&gt;pr_b608b060&#45;cb11&#45;4ae0&#45;a5ff&#45;39e5f1b8d25f -->
<g id="edge9" class="edge"><title>FADD&#45;&gt;pr_b608b060&#45;cb11&#45;4ae0&#45;a5ff&#45;39e5f1b8d25f</title>
<path fill="none" stroke="black" d="M234.093,-914.007C235.039,-922.429 235.58,-933.197 235.716,-944.302"/>
<polygon fill="black" stroke="black" points="232.216,-944.542 235.727,-954.538 239.216,-944.534 232.216,-944.542"/>
</g>
<!-- pr_cd715e7b&#45;5a21&#45;4e73&#45;994d&#45;a21b8ced8dfe -->
<g id="node12" class="node"><title>pr_cd715e7b&#45;5a21&#45;4e73&#45;994d&#45;a21b8ced8dfe</title>
<polygon fill="none" stroke="black" points="216,-620.384 116,-620.384 116,-520.384 216,-520.384 216,-620.384"/>
<text text-anchor="middle" x="166" y="-569.184" font-family="Times,serif" font-size="4.00">pr_cd715e7b&#45;5a21&#45;4e73&#45;994d&#45;a21b8ced8dfe</text>
</g>
<!-- FADD&#45;&gt;pr_cd715e7b&#45;5a21&#45;4e73&#45;994d&#45;a21b8ced8dfe -->
<g id="edge10" class="edge"><title>FADD&#45;&gt;pr_cd715e7b&#45;5a21&#45;4e73&#45;994d&#45;a21b8ced8dfe</title>
<path fill="none" stroke="black" d="M227.268,-877.938C224.278,-849.094 217.631,-789.518 209,-739.553 202.599,-702.499 200.282,-693.323 191,-656.884 188.809,-648.282 186.343,-639.239 183.837,-630.385"/>
<polygon fill="black" stroke="black" points="187.124,-629.151 181.002,-620.503 180.395,-631.081 187.124,-629.151"/>
</g>
<!-- FADD&#45;&gt;pr_499a14c0&#45;dda3&#45;4ebf&#45;96ae&#45;d4ed5f5c72ae -->
<g id="edge11" class="edge"><title>FADD&#45;&gt;pr_499a14c0&#45;dda3&#45;4ebf&#45;96ae&#45;d4ed5f5c72ae</title>
<path fill="none" stroke="black" d="M218.481,-881.103C211.795,-872.082 202.654,-859.748 193.258,-847.071"/>
<polygon fill="black" stroke="black" points="195.837,-844.673 187.071,-838.723 190.213,-848.841 195.837,-844.673"/>
</g>
<!-- pr_b608b060&#45;cb11&#45;4ae0&#45;a5ff&#45;39e5f1b8d25f&#45;&gt;FADD -->
<g id="edge12" class="edge"><title>pr_b608b060&#45;cb11&#45;4ae0&#45;a5ff&#45;39e5f1b8d25f&#45;&gt;FADD</title>
<path fill="none" stroke="black" d="M222.273,-954.538C222.168,-944.095 222.42,-933.408 223.029,-924.138"/>
<polygon fill="black" stroke="black" points="226.53,-924.272 223.907,-914.007 219.556,-923.667 226.53,-924.272"/>
</g>
<!-- CASP8 -->
<g id="node11" class="node"><title>CASP8</title>
<ellipse fill="none" stroke="black" cx="166" cy="-462.141" rx="18" ry="18"/>
<text text-anchor="middle" x="166" y="-460.941" font-family="Times,serif" font-size="4.00">CASP8</text>
</g>
<!-- CASP8&#45;&gt;pr_cd715e7b&#45;5a21&#45;4e73&#45;994d&#45;a21b8ced8dfe -->
<g id="edge13" class="edge"><title>CASP8&#45;&gt;pr_cd715e7b&#45;5a21&#45;4e73&#45;994d&#45;a21b8ced8dfe</title>
<path fill="none" stroke="black" d="M171.068,-479.787C172.014,-488.184 172.561,-498.933 172.709,-510.049"/>
<polygon fill="black" stroke="black" points="169.209,-510.313 172.733,-520.305 176.209,-510.297 169.209,-510.313"/>
</g>
<!-- pr_847b17f4&#45;c2af&#45;429f&#45;84f4&#45;5d3f5fff2484 -->
<g id="node15" class="node"><title>pr_847b17f4&#45;c2af&#45;429f&#45;84f4&#45;5d3f5fff2484</title>
<polygon fill="none" stroke="black" points="213.5,-401.897 118.5,-401.897 118.5,-306.897 213.5,-306.897 213.5,-401.897"/>
<text text-anchor="middle" x="166" y="-353.197" font-family="Times,serif" font-size="4.00">pr_847b17f4&#45;c2af&#45;429f&#45;84f4&#45;5d3f5fff2484</text>
</g>
<!-- CASP8&#45;&gt;pr_847b17f4&#45;c2af&#45;429f&#45;84f4&#45;5d3f5fff2484 -->
<g id="edge14" class="edge"><title>CASP8&#45;&gt;pr_847b17f4&#45;c2af&#45;429f&#45;84f4&#45;5d3f5fff2484</title>
<path fill="none" stroke="black" d="M166,-443.679C166,-434.877 166,-423.652 166,-412.18"/>
<polygon fill="black" stroke="black" points="169.5,-412.09 166,-402.09 162.5,-412.09 169.5,-412.09"/>
</g>
<!-- pr_8da0a658&#45;43af&#45;4d5e&#45;b5b8&#45;097158cc6237 -->
<g id="node21" class="node"><title>pr_8da0a658&#45;43af&#45;4d5e&#45;b5b8&#45;097158cc6237</title>
<polygon fill="none" stroke="black" points="100,-404.397 0,-404.397 0,-304.397 100,-304.397 100,-404.397"/>
<text text-anchor="middle" x="50" y="-353.197" font-family="Times,serif" font-size="4.00">pr_8da0a658&#45;43af&#45;4d5e&#45;b5b8&#45;097158cc6237</text>
</g>
<!-- CASP8&#45;&gt;pr_8da0a658&#45;43af&#45;4d5e&#45;b5b8&#45;097158cc6237 -->
<g id="edge15" class="edge"><title>CASP8&#45;&gt;pr_8da0a658&#45;43af&#45;4d5e&#45;b5b8&#45;097158cc6237</title>
<path fill="none" stroke="black" d="M153.143,-449.42C141.991,-439.255 125.013,-423.777 108.031,-408.297"/>
<polygon fill="black" stroke="black" points="109.998,-405.354 100.249,-401.203 105.282,-410.527 109.998,-405.354"/>
</g>
<!-- pr_79a70bf1&#45;e7bc&#45;4114&#45;94fe&#45;279d39c5d829 -->
<g id="node33" class="node"><title>pr_79a70bf1&#45;e7bc&#45;4114&#45;94fe&#45;279d39c5d829</title>
<polygon fill="none" stroke="black" points="330.5,-403.897 231.5,-403.897 231.5,-304.897 330.5,-304.897 330.5,-403.897"/>
<text text-anchor="middle" x="281" y="-353.197" font-family="Times,serif" font-size="4.00">pr_79a70bf1&#45;e7bc&#45;4114&#45;94fe&#45;279d39c5d829</text>
</g>
<!-- CASP8&#45;&gt;pr_79a70bf1&#45;e7bc&#45;4114&#45;94fe&#45;279d39c5d829 -->
<g id="edge16" class="edge"><title>CASP8&#45;&gt;pr_79a70bf1&#45;e7bc&#45;4114&#45;94fe&#45;279d39c5d829</title>
<path fill="none" stroke="black" d="M178.746,-449.42C189.853,-439.208 206.788,-423.635 223.701,-408.084"/>
<polygon fill="black" stroke="black" points="226.457,-410.305 231.449,-400.96 221.719,-405.152 226.457,-410.305"/>
</g>
<!-- pr_cd715e7b&#45;5a21&#45;4e73&#45;994d&#45;a21b8ced8dfe&#45;&gt;CASP8 -->
<g id="edge17" class="edge"><title>pr_cd715e7b&#45;5a21&#45;4e73&#45;994d&#45;a21b8ced8dfe&#45;&gt;CASP8</title>
<path fill="none" stroke="black" d="M159.267,-520.305C159.177,-509.832 159.438,-499.148 160.051,-489.894"/>
<polygon fill="black" stroke="black" points="163.551,-490.053 160.932,-479.787 156.577,-489.445 163.551,-490.053"/>
</g>
<!-- TRADD/FADD -->
<g id="node13" class="node"><title>TRADD/FADD</title>
<ellipse fill="none" stroke="black" cx="159" cy="-680.219" rx="23.1702" ry="23.1702"/>
<text text-anchor="middle" x="159" y="-679.019" font-family="Times,serif" font-size="4.00">TRADD/FADD</text>
</g>
<!-- TRADD/FADD&#45;&gt;pr_cd715e7b&#45;5a21&#45;4e73&#45;994d&#45;a21b8ced8dfe -->
<g id="edge18" class="edge"><title>TRADD/FADD&#45;&gt;pr_cd715e7b&#45;5a21&#45;4e73&#45;994d&#45;a21b8ced8dfe</title>
<path fill="none" stroke="black" d="M160.45,-656.875C160.95,-649.174 161.536,-640.145 162.137,-630.894"/>
<polygon fill="black" stroke="black" points="165.636,-631.027 162.791,-620.821 158.65,-630.574 165.636,-631.027"/>
</g>
<!-- CASP3 -->
<g id="node14" class="node"><title>CASP3</title>
<ellipse fill="none" stroke="black" cx="166" cy="-238.698" rx="18" ry="18"/>
<text text-anchor="middle" x="166" y="-237.498" font-family="Times,serif" font-size="4.00">CASP3</text>
</g>
<!-- CASP3&#45;&gt;pr_847b17f4&#45;c2af&#45;429f&#45;84f4&#45;5d3f5fff2484 -->
<g id="edge19" class="edge"><title>CASP3&#45;&gt;pr_847b17f4&#45;c2af&#45;429f&#45;84f4&#45;5d3f5fff2484</title>
<path fill="none" stroke="black" d="M170.906,-256.037C172.136,-266.843 172.751,-281.714 172.75,-296.581"/>
<polygon fill="black" stroke="black" points="169.248,-296.79 172.651,-306.823 176.248,-296.858 169.248,-296.79"/>
</g>
<!-- pr_847b17f4&#45;c2af&#45;429f&#45;84f4&#45;5d3f5fff2484&#45;&gt;CASP3 -->
<g id="edge20" class="edge"><title>pr_847b17f4&#45;c2af&#45;429f&#45;84f4&#45;5d3f5fff2484&#45;&gt;CASP3</title>
<path fill="none" stroke="black" d="M159.349,-306.823C159.08,-293.019 159.358,-278.379 160.183,-266.305"/>
<polygon fill="black" stroke="black" points="163.696,-266.307 161.094,-256.037 156.724,-265.688 163.696,-266.307"/>
</g>
<!-- CASP9 -->
<g id="node16" class="node"><title>CASP9</title>
<ellipse fill="none" stroke="black" cx="299" cy="-462.141" rx="18" ry="18"/>
<text text-anchor="middle" x="299" y="-460.941" font-family="Times,serif" font-size="4.00">CASP9</text>
</g>
<!-- CASP9&#45;&gt;pr_847b17f4&#45;c2af&#45;429f&#45;84f4&#45;5d3f5fff2484 -->
<g id="edge21" class="edge"><title>CASP9&#45;&gt;pr_847b17f4&#45;c2af&#45;429f&#45;84f4&#45;5d3f5fff2484</title>
<path fill="none" stroke="black" d="M284.539,-451.032C268.859,-439.946 243.228,-421.457 222,-404.397 221.83,-404.26 221.66,-404.124 221.49,-403.986"/>
<polygon fill="black" stroke="black" points="223.689,-401.263 213.736,-397.632 219.252,-406.677 223.689,-401.263"/>
</g>
<!-- pr_f6f5ee6b&#45;9c6d&#45;4ea1&#45;8883&#45;af70e83adff3 -->
<g id="node17" class="node"><title>pr_f6f5ee6b&#45;9c6d&#45;4ea1&#45;8883&#45;af70e83adff3</title>
<polygon fill="none" stroke="black" points="445.5,-402.897 348.5,-402.897 348.5,-305.897 445.5,-305.897 445.5,-402.897"/>
<text text-anchor="middle" x="397" y="-353.197" font-family="Times,serif" font-size="4.00">pr_f6f5ee6b&#45;9c6d&#45;4ea1&#45;8883&#45;af70e83adff3</text>
</g>
<!-- CASP9&#45;&gt;pr_f6f5ee6b&#45;9c6d&#45;4ea1&#45;8883&#45;af70e83adff3 -->
<g id="edge22" class="edge"><title>CASP9&#45;&gt;pr_f6f5ee6b&#45;9c6d&#45;4ea1&#45;8883&#45;af70e83adff3</title>
<path fill="none" stroke="black" d="M308.14,-445.99C316.199,-435.968 328.368,-422.172 341.159,-408.367"/>
<polygon fill="black" stroke="black" points="344.034,-410.416 348.306,-400.721 338.921,-405.636 344.034,-410.416"/>
</g>
<!-- CASP9&#45;&gt;pr_79a70bf1&#45;e7bc&#45;4114&#45;94fe&#45;279d39c5d829 -->
<g id="edge23" class="edge"><title>CASP9&#45;&gt;pr_79a70bf1&#45;e7bc&#45;4114&#45;94fe&#45;279d39c5d829</title>
<path fill="none" stroke="black" d="M296.108,-444.151C294.693,-435.837 292.896,-425.282 291.04,-414.376"/>
<polygon fill="black" stroke="black" points="294.456,-413.586 289.327,-404.315 287.555,-414.76 294.456,-413.586"/>
</g>
<!-- pr_f6f5ee6b&#45;9c6d&#45;4ea1&#45;8883&#45;af70e83adff3&#45;&gt;CASP9 -->
<g id="edge24" class="edge"><title>pr_f6f5ee6b&#45;9c6d&#45;4ea1&#45;8883&#45;af70e83adff3&#45;&gt;CASP9</title>
<path fill="none" stroke="black" d="M359.369,-403.256C346.188,-417.646 331.872,-432.537 320.42,-443.611"/>
<polygon fill="black" stroke="black" points="317.869,-441.206 312.998,-450.615 322.673,-446.297 317.869,-441.206"/>
</g>
<!-- Apoptosome -->
<g id="node18" class="node"><title>Apoptosome</title>
<ellipse fill="none" stroke="black" cx="427" cy="-462.141" rx="21.9898" ry="21.9898"/>
<text text-anchor="middle" x="427" y="-460.941" font-family="Times,serif" font-size="4.00">Apoptosome</text>
</g>
<!-- Apoptosome&#45;&gt;pr_f6f5ee6b&#45;9c6d&#45;4ea1&#45;8883&#45;af70e83adff3 -->
<g id="edge25" class="edge"><title>Apoptosome&#45;&gt;pr_f6f5ee6b&#45;9c6d&#45;4ea1&#45;8883&#45;af70e83adff3</title>
<path fill="none" stroke="black" d="M421.216,-440.752C418.943,-432.74 416.209,-423.103 413.409,-413.233"/>
<polygon fill="black" stroke="black" points="416.698,-412.003 410.601,-403.338 409.963,-413.913 416.698,-412.003"/>
</g>
<!-- AKT -->
<g id="node19" class="node"><title>AKT</title>
<ellipse fill="none" stroke="black" cx="352" cy="-680.219" rx="18" ry="18"/>
<text text-anchor="middle" x="352" y="-679.019" font-family="Times,serif" font-size="4.00">AKT</text>
</g>
<!-- AKT&#45;&gt;pr_f6f5ee6b&#45;9c6d&#45;4ea1&#45;8883&#45;af70e83adff3 -->
<g id="edge26" class="edge"><title>AKT&#45;&gt;pr_f6f5ee6b&#45;9c6d&#45;4ea1&#45;8883&#45;af70e83adff3</title>
<path fill="none" stroke="black" d="M354.356,-662.264C360.721,-616.464 378.485,-488.631 388.97,-413.184"/>
<polygon fill="black" stroke="black" points="392.489,-413.287 390.399,-402.9 385.556,-412.323 392.489,-413.287"/>
</g>
<!-- pr_ac479451&#45;8561&#45;4a48&#45;b08a&#45;652c06459778 -->
<g id="node30" class="node"><title>pr_ac479451&#45;8561&#45;4a48&#45;b08a&#45;652c06459778</title>
<polygon fill="none" stroke="black" points="492.5,-620.884 391.5,-620.884 391.5,-519.884 492.5,-519.884 492.5,-620.884"/>
<text text-anchor="middle" x="442" y="-569.184" font-family="Times,serif" font-size="4.00">pr_ac479451&#45;8561&#45;4a48&#45;b08a&#45;652c06459778</text>
</g>
<!-- AKT&#45;&gt;pr_ac479451&#45;8561&#45;4a48&#45;b08a&#45;652c06459778 -->
<g id="edge27" class="edge"><title>AKT&#45;&gt;pr_ac479451&#45;8561&#45;4a48&#45;b08a&#45;652c06459778</title>
<path fill="none" stroke="black" d="M363.036,-665.996C371.036,-656.411 382.46,-642.723 394.142,-628.726"/>
<polygon fill="black" stroke="black" points="396.918,-630.862 400.638,-620.942 391.544,-626.377 396.918,-630.862"/>
</g>
<!-- pr_f2954afa&#45;0404&#45;4db9&#45;b125&#45;be3bf2b2be73 -->
<g id="node34" class="node"><title>pr_f2954afa&#45;0404&#45;4db9&#45;b125&#45;be3bf2b2be73</title>
<polygon fill="none" stroke="black" points="335,-619.384 237,-619.384 237,-521.384 335,-521.384 335,-619.384"/>
<text text-anchor="middle" x="286" y="-569.184" font-family="Times,serif" font-size="4.00">pr_f2954afa&#45;0404&#45;4db9&#45;b125&#45;be3bf2b2be73</text>
</g>
<!-- AKT&#45;&gt;pr_f2954afa&#45;0404&#45;4db9&#45;b125&#45;be3bf2b2be73 -->
<g id="edge28" class="edge"><title>AKT&#45;&gt;pr_f2954afa&#45;0404&#45;4db9&#45;b125&#45;be3bf2b2be73</title>
<path fill="none" stroke="black" d="M339.935,-666.849C332.583,-657.137 323.098,-642.863 314.092,-628.296"/>
<polygon fill="black" stroke="black" points="317.057,-626.436 308.865,-619.717 311.08,-630.078 317.057,-626.436"/>
</g>
<!-- BID -->
<g id="node20" class="node"><title>BID</title>
<ellipse fill="none" stroke="black" cx="50" cy="-238.698" rx="18" ry="18"/>
<text text-anchor="middle" x="50" y="-237.498" font-family="Times,serif" font-size="4.00">BID</text>
</g>
<!-- BID&#45;&gt;pr_8da0a658&#45;43af&#45;4d5e&#45;b5b8&#45;097158cc6237 -->
<g id="edge29" class="edge"><title>BID&#45;&gt;pr_8da0a658&#45;43af&#45;4d5e&#45;b5b8&#45;097158cc6237</title>
<path fill="none" stroke="black" d="M54.9323,-256.268C56.0762,-266.443 56.6802,-280.158 56.7443,-294.07"/>
<polygon fill="black" stroke="black" points="53.2439,-294.172 56.6955,-304.188 60.2438,-294.205 53.2439,-294.172"/>
</g>
<!-- pr_fbde6cce&#45;9ddd&#45;4bc3&#45;bc77&#45;3813b3a09d16 -->
<g id="node23" class="node"><title>pr_fbde6cce&#45;9ddd&#45;4bc3&#45;bc77&#45;3813b3a09d16</title>
<polygon fill="none" stroke="black" points="274,-172.5 174,-172.5 174,-72.5 274,-72.5 274,-172.5"/>
<text text-anchor="middle" x="224" y="-121.3" font-family="Times,serif" font-size="4.00">pr_fbde6cce&#45;9ddd&#45;4bc3&#45;bc77&#45;3813b3a09d16</text>
</g>
<!-- BID&#45;&gt;pr_fbde6cce&#45;9ddd&#45;4bc3&#45;bc77&#45;3813b3a09d16 -->
<g id="edge30" class="edge"><title>BID&#45;&gt;pr_fbde6cce&#45;9ddd&#45;4bc3&#45;bc77&#45;3813b3a09d16</title>
<path fill="none" stroke="black" d="M64.8351,-227.962C86.8995,-213.481 129.589,-185.464 165.205,-162.088"/>
<polygon fill="black" stroke="black" points="167.181,-164.978 173.621,-156.564 163.34,-159.125 167.181,-164.978"/>
</g>
<!-- pr_8da0a658&#45;43af&#45;4d5e&#45;b5b8&#45;097158cc6237&#45;&gt;BID -->
<g id="edge31" class="edge"><title>pr_8da0a658&#45;43af&#45;4d5e&#45;b5b8&#45;097158cc6237&#45;&gt;BID</title>
<path fill="none" stroke="black" d="M43.3045,-304.188C43.118,-291.181 43.4103,-277.63 44.1816,-266.326"/>
<polygon fill="black" stroke="black" points="47.6765,-266.537 45.0677,-256.268 40.7035,-265.922 47.6765,-266.537"/>
</g>
<!-- BAX -->
<g id="node22" class="node"><title>BAX</title>
<ellipse fill="none" stroke="black" cx="224" cy="-18" rx="18" ry="18"/>
<text text-anchor="middle" x="224" y="-16.8" font-family="Times,serif" font-size="4.00">BAX</text>
</g>
<!-- BAX&#45;&gt;pr_fbde6cce&#45;9ddd&#45;4bc3&#45;bc77&#45;3813b3a09d16 -->
<g id="edge32" class="edge"><title>BAX&#45;&gt;pr_fbde6cce&#45;9ddd&#45;4bc3&#45;bc77&#45;3813b3a09d16</title>
<path fill="none" stroke="black" d="M229.1,-35.3424C229.962,-42.8395 230.486,-52.2359 230.672,-62.0439"/>
<polygon fill="black" stroke="black" points="227.175,-62.3764 230.745,-72.3515 234.174,-62.3271 227.175,-62.3764"/>
</g>
<!-- pr_fbde6cce&#45;9ddd&#45;4bc3&#45;bc77&#45;3813b3a09d16&#45;&gt;BAX -->
<g id="edge33" class="edge"><title>pr_fbde6cce&#45;9ddd&#45;4bc3&#45;bc77&#45;3813b3a09d16&#45;&gt;BAX</title>
<path fill="none" stroke="black" d="M217.255,-72.3515C217.21,-63.0632 217.462,-53.6826 218.009,-45.433"/>
<polygon fill="black" stroke="black" points="221.507,-45.6113 218.9,-35.3424 214.534,-44.996 221.507,-45.6113"/>
</g>
<!-- BIM/BAD/PUMA -->
<g id="node24" class="node"><title>BIM/BAD/PUMA</title>
<ellipse fill="none" stroke="black" cx="343" cy="-238.698" rx="25.9724" ry="25.9724"/>
<text text-anchor="middle" x="343" y="-237.498" font-family="Times,serif" font-size="4.00">BIM/BAD/PUMA</text>
</g>
<!-- BIM/BAD/PUMA&#45;&gt;pr_fbde6cce&#45;9ddd&#45;4bc3&#45;bc77&#45;3813b3a09d16 -->
<g id="edge34" class="edge"><title>BIM/BAD/PUMA&#45;&gt;pr_fbde6cce&#45;9ddd&#45;4bc3&#45;bc77&#45;3813b3a09d16</title>
<path fill="none" stroke="black" d="M324.667,-220.105C313.069,-208.975 297.378,-193.918 281.839,-179.005"/>
<polygon fill="black" stroke="black" points="283.88,-176.113 274.241,-171.714 279.033,-181.163 283.88,-176.113"/>
</g>
<!-- pr_45d1d9e5&#45;400b&#45;49e7&#45;be4c&#45;312b65bd9c50 -->
<g id="node40" class="node"><title>pr_45d1d9e5&#45;400b&#45;49e7&#45;be4c&#45;312b65bd9c50</title>
<polygon fill="none" stroke="black" points="393.5,-173 292.5,-173 292.5,-72 393.5,-72 393.5,-173"/>
<text text-anchor="middle" x="343" y="-121.3" font-family="Times,serif" font-size="4.00">pr_45d1d9e5&#45;400b&#45;49e7&#45;be4c&#45;312b65bd9c50</text>
</g>
<!-- BIM/BAD/PUMA&#45;&gt;pr_45d1d9e5&#45;400b&#45;49e7&#45;be4c&#45;312b65bd9c50 -->
<g id="edge35" class="edge"><title>BIM/BAD/PUMA&#45;&gt;pr_45d1d9e5&#45;400b&#45;49e7&#45;be4c&#45;312b65bd9c50</title>
<path fill="none" stroke="black" d="M337.343,-213.2C336.674,-204.36 336.312,-193.951 336.257,-183.415"/>
<polygon fill="black" stroke="black" points="339.758,-183.335 336.299,-173.32 332.758,-183.306 339.758,-183.335"/>
</g>
<!-- BCL2/BCL&#45;XL/MCL1 -->
<g id="node25" class="node"><title>BCL2/BCL&#45;XL/MCL1</title>
<ellipse fill="none" stroke="black" cx="417" cy="-238.698" rx="29.8983" ry="29.8983"/>
<text text-anchor="middle" x="417" y="-237.498" font-family="Times,serif" font-size="4.00">BCL2/BCL&#45;XL/MCL1</text>
</g>
<!-- BCL2/BCL&#45;XL/MCL1&#45;&gt;pr_fbde6cce&#45;9ddd&#45;4bc3&#45;bc77&#45;3813b3a09d16 -->
<g id="edge36" class="edge"><title>BCL2/BCL&#45;XL/MCL1&#45;&gt;pr_fbde6cce&#45;9ddd&#45;4bc3&#45;bc77&#45;3813b3a09d16</title>
<path fill="none" stroke="black" d="M394.178,-219.316C389.028,-215.625 383.464,-211.973 378,-209 338.339,-187.42 321.954,-195.832 283,-173 282.906,-172.945 282.813,-172.89 282.719,-172.835"/>
<polygon fill="black" stroke="black" points="284.352,-169.726 274.035,-167.315 280.597,-175.633 284.352,-169.726"/>
</g>
<!-- BCL2/BCL&#45;XL/MCL1&#45;&gt;pr_45d1d9e5&#45;400b&#45;49e7&#45;be4c&#45;312b65bd9c50 -->
<g id="edge37" class="edge"><title>BCL2/BCL&#45;XL/MCL1&#45;&gt;pr_45d1d9e5&#45;400b&#45;49e7&#45;be4c&#45;312b65bd9c50</title>
<path fill="none" stroke="black" d="M401.307,-213.48C395.221,-204.089 387.969,-192.897 380.682,-181.652"/>
<polygon fill="black" stroke="black" points="383.497,-179.559 375.121,-173.07 377.622,-183.366 383.497,-179.559"/>
</g>
<!-- pr_d3fc1f2e&#45;1c19&#45;4a89&#45;a757&#45;06a70de17ee6 -->
<g id="node41" class="node"><title>pr_d3fc1f2e&#45;1c19&#45;4a89&#45;a757&#45;06a70de17ee6</title>
<polygon fill="none" stroke="black" points="510.5,-172 411.5,-172 411.5,-73 510.5,-73 510.5,-172"/>
<text text-anchor="middle" x="461" y="-121.3" font-family="Times,serif" font-size="4.00">pr_d3fc1f2e&#45;1c19&#45;4a89&#45;a757&#45;06a70de17ee6</text>
</g>
<!-- BCL2/BCL&#45;XL/MCL1&#45;&gt;pr_d3fc1f2e&#45;1c19&#45;4a89&#45;a757&#45;06a70de17ee6 -->
<g id="edge38" class="edge"><title>BCL2/BCL&#45;XL/MCL1&#45;&gt;pr_d3fc1f2e&#45;1c19&#45;4a89&#45;a757&#45;06a70de17ee6</title>
<path fill="none" stroke="black" d="M422.055,-209.176C424.776,-200.753 428.18,-191.212 431.853,-181.632"/>
<polygon fill="black" stroke="black" points="435.207,-182.667 435.6,-172.079 428.69,-180.111 435.207,-182.667"/>
</g>
<!-- Cytochrome C -->
<g id="node26" class="node"><title>Cytochrome C</title>
<ellipse fill="none" stroke="black" cx="560" cy="-680.219" rx="23.1702" ry="23.1702"/>
<text text-anchor="middle" x="560" y="-679.019" font-family="Times,serif" font-size="4.00">Cytochrome C</text>
</g>
<!-- pr_aa418da8&#45;0406&#45;41f7&#45;8cd9&#45;f3b8bfce3dd9 -->
<g id="node27" class="node"><title>pr_aa418da8&#45;0406&#45;41f7&#45;8cd9&#45;f3b8bfce3dd9</title>
<polygon fill="none" stroke="black" points="609,-619.384 511,-619.384 511,-521.384 609,-521.384 609,-619.384"/>
<text text-anchor="middle" x="560" y="-569.184" font-family="Times,serif" font-size="4.00">pr_aa418da8&#45;0406&#45;41f7&#45;8cd9&#45;f3b8bfce3dd9</text>
</g>
<!-- Cytochrome C&#45;&gt;pr_aa418da8&#45;0406&#45;41f7&#45;8cd9&#45;f3b8bfce3dd9 -->
<g id="edge39" class="edge"><title>Cytochrome C&#45;&gt;pr_aa418da8&#45;0406&#45;41f7&#45;8cd9&#45;f3b8bfce3dd9</title>
<path fill="none" stroke="black" d="M554.451,-657.397C553.755,-649.266 553.361,-639.605 553.27,-629.745"/>
<polygon fill="black" stroke="black" points="556.771,-629.457 553.285,-619.452 549.771,-629.447 556.771,-629.457"/>
</g>
<!-- Cytochrome C&#45;&gt;pr_ac479451&#45;8561&#45;4a48&#45;b08a&#45;652c06459778 -->
<g id="edge40" class="edge"><title>Cytochrome C&#45;&gt;pr_ac479451&#45;8561&#45;4a48&#45;b08a&#45;652c06459778</title>
<path fill="none" stroke="black" d="M543.093,-663.769C531.702,-653.359 515.943,-638.957 500.254,-624.62"/>
<polygon fill="black" stroke="black" points="502.321,-621.767 492.578,-617.604 497.598,-626.934 502.321,-621.767"/>
</g>
<!-- pr_aa418da8&#45;0406&#45;41f7&#45;8cd9&#45;f3b8bfce3dd9&#45;&gt;Cytochrome C -->
<g id="edge41" class="edge"><title>pr_aa418da8&#45;0406&#45;41f7&#45;8cd9&#45;f3b8bfce3dd9&#45;&gt;Cytochrome C</title>
<path fill="none" stroke="black" d="M566.715,-619.452C566.829,-628.877 566.666,-638.542 566.225,-647.279"/>
<polygon fill="black" stroke="black" points="562.723,-647.186 565.549,-657.397 569.708,-647.652 562.723,-647.186"/>
</g>
<!-- MAPK14 -->
<g id="node28" class="node"><title>MAPK14</title>
<ellipse fill="none" stroke="black" cx="650" cy="-680.219" rx="18" ry="18"/>
<text text-anchor="middle" x="650" y="-679.019" font-family="Times,serif" font-size="4.00">MAPK14</text>
</g>
<!-- MAPK14&#45;&gt;pr_aa418da8&#45;0406&#45;41f7&#45;8cd9&#45;f3b8bfce3dd9 -->
<g id="edge42" class="edge"><title>MAPK14&#45;&gt;pr_aa418da8&#45;0406&#45;41f7&#45;8cd9&#45;f3b8bfce3dd9</title>
<path fill="none" stroke="black" d="M638.964,-665.996C630.726,-656.126 618.858,-641.906 606.816,-627.478"/>
<polygon fill="black" stroke="black" points="609.225,-624.902 600.131,-619.467 603.851,-629.387 609.225,-624.902"/>
</g>
<!-- pr_9a527828&#45;f5ae&#45;4be8&#45;aa51&#45;65ccb67253da -->
<g id="node38" class="node"><title>pr_9a527828&#45;f5ae&#45;4be8&#45;aa51&#45;65ccb67253da</title>
<polygon fill="none" stroke="black" points="727,-620.384 627,-620.384 627,-520.384 727,-520.384 727,-620.384"/>
<text text-anchor="middle" x="677" y="-569.184" font-family="Times,serif" font-size="4.00">pr_9a527828&#45;f5ae&#45;4be8&#45;aa51&#45;65ccb67253da</text>
</g>
<!-- MAPK14&#45;&gt;pr_9a527828&#45;f5ae&#45;4be8&#45;aa51&#45;65ccb67253da -->
<g id="edge43" class="edge"><title>MAPK14&#45;&gt;pr_9a527828&#45;f5ae&#45;4be8&#45;aa51&#45;65ccb67253da</title>
<path fill="none" stroke="black" d="M649.223,-661.893C650.452,-653.236 652.682,-642.196 655.398,-630.825"/>
<polygon fill="black" stroke="black" points="658.875,-631.349 657.898,-620.799 652.083,-629.655 658.875,-631.349"/>
</g>
<!-- APAF1 -->
<g id="node29" class="node"><title>APAF1</title>
<ellipse fill="none" stroke="black" cx="480" cy="-680.219" rx="18" ry="18"/>
<text text-anchor="middle" x="480" y="-679.019" font-family="Times,serif" font-size="4.00">APAF1</text>
</g>
<!-- APAF1&#45;&gt;pr_ac479451&#45;8561&#45;4a48&#45;b08a&#45;652c06459778 -->
<g id="edge44" class="edge"><title>APAF1&#45;&gt;pr_ac479451&#45;8561&#45;4a48&#45;b08a&#45;652c06459778</title>
<path fill="none" stroke="black" d="M474.229,-662.841C471.116,-654.008 467.063,-642.506 462.887,-630.656"/>
<polygon fill="black" stroke="black" points="466.152,-629.39 459.527,-621.122 459.55,-631.716 466.152,-629.39"/>
</g>
<!-- pr_ac479451&#45;8561&#45;4a48&#45;b08a&#45;652c06459778&#45;&gt;Apoptosome -->
<g id="edge45" class="edge"><title>pr_ac479451&#45;8561&#45;4a48&#45;b08a&#45;652c06459778&#45;&gt;Apoptosome</title>
<path fill="none" stroke="black" d="M434.983,-519.684C433.743,-510.897 432.484,-501.985 431.345,-493.914"/>
<polygon fill="black" stroke="black" points="434.79,-493.283 429.927,-483.871 427.859,-494.262 434.79,-493.283"/>
</g>
<!-- Pro&#45;casp9 -->
<g id="node31" class="node"><title>Pro&#45;casp9</title>
<ellipse fill="none" stroke="black" cx="425" cy="-680.219" rx="18.6233" ry="18.6233"/>
<text text-anchor="middle" x="425" y="-679.019" font-family="Times,serif" font-size="4.00">Pro&#45;casp9</text>
</g>
<!-- Pro&#45;casp9&#45;&gt;pr_ac479451&#45;8561&#45;4a48&#45;b08a&#45;652c06459778 -->
<g id="edge46" class="edge"><title>Pro&#45;casp9&#45;&gt;pr_ac479451&#45;8561&#45;4a48&#45;b08a&#45;652c06459778</title>
<path fill="none" stroke="black" d="M427.807,-661.412C429.136,-652.985 430.808,-642.379 432.533,-631.432"/>
<polygon fill="black" stroke="black" points="436.025,-631.759 434.125,-621.336 429.111,-630.669 436.025,-631.759"/>
</g>
<!-- CASP7 -->
<g id="node32" class="node"><title>CASP7</title>
<ellipse fill="none" stroke="black" cx="281" cy="-238.698" rx="18" ry="18"/>
<text text-anchor="middle" x="281" y="-237.498" font-family="Times,serif" font-size="4.00">CASP7</text>
</g>
<!-- CASP7&#45;&gt;pr_79a70bf1&#45;e7bc&#45;4114&#45;94fe&#45;279d39c5d829 -->
<g id="edge47" class="edge"><title>CASP7&#45;&gt;pr_79a70bf1&#45;e7bc&#45;4114&#45;94fe&#45;279d39c5d829</title>
<path fill="none" stroke="black" d="M285.926,-256.216C287.088,-266.523 287.695,-280.477 287.746,-294.592"/>
<polygon fill="black" stroke="black" points="284.245,-294.828 287.686,-304.849 291.245,-294.87 284.245,-294.828"/>
</g>
<!-- pr_79a70bf1&#45;e7bc&#45;4114&#45;94fe&#45;279d39c5d829&#45;&gt;CASP7 -->
<g id="edge48" class="edge"><title>pr_79a70bf1&#45;e7bc&#45;4114&#45;94fe&#45;279d39c5d829&#45;&gt;CASP7</title>
<path fill="none" stroke="black" d="M274.314,-304.849C274.109,-291.676 274.396,-277.895 275.175,-266.418"/>
<polygon fill="black" stroke="black" points="278.683,-266.485 276.074,-256.216 271.71,-265.87 278.683,-266.485"/>
</g>
<!-- pr_f2954afa&#45;0404&#45;4db9&#45;b125&#45;be3bf2b2be73&#45;&gt;AKT -->
<g id="edge49" class="edge"><title>pr_f2954afa&#45;0404&#45;4db9&#45;b125&#45;be3bf2b2be73&#45;&gt;AKT</title>
<path fill="none" stroke="black" d="M322.288,-619.698C329.607,-631.433 336.715,-643.526 342.23,-653.721"/>
<polygon fill="black" stroke="black" points="339.258,-655.592 346.985,-662.841 345.465,-652.356 339.258,-655.592"/>
</g>
<!-- SARS M -->
<g id="node35" class="node"><title>SARS M</title>
<ellipse fill="none" stroke="black" cx="286" cy="-680.219" rx="18" ry="18"/>
<text text-anchor="middle" x="286" y="-679.019" font-family="Times,serif" font-size="4.00">SARS M</text>
</g>
<!-- SARS M&#45;&gt;pr_f2954afa&#45;0404&#45;4db9&#45;b125&#45;be3bf2b2be73 -->
<g id="edge50" class="edge"><title>SARS M&#45;&gt;pr_f2954afa&#45;0404&#45;4db9&#45;b125&#45;be3bf2b2be73</title>
<path fill="none" stroke="black" d="M286,-661.893C286,-652.96 286,-641.489 286,-629.736"/>
<polygon fill="black" stroke="black" points="289.5,-629.391 286,-619.391 282.5,-629.391 289.5,-629.391"/>
</g>
<!-- pr_499a14c0&#45;dda3&#45;4ebf&#45;96ae&#45;d4ed5f5c72ae&#45;&gt;TRADD/FADD -->
<g id="edge51" class="edge"><title>pr_499a14c0&#45;dda3&#45;4ebf&#45;96ae&#45;d4ed5f5c72ae&#45;&gt;TRADD/FADD</title>
<path fill="none" stroke="black" d="M154.649,-739.325C155.296,-730.678 155.956,-721.865 156.56,-713.802"/>
<polygon fill="black" stroke="black" points="160.059,-713.947 157.316,-703.713 153.078,-713.424 160.059,-713.947"/>
</g>
<!-- TRADD -->
<g id="node37" class="node"><title>TRADD</title>
<ellipse fill="none" stroke="black" cx="93" cy="-896.297" rx="18" ry="18"/>
<text text-anchor="middle" x="93" y="-895.097" font-family="Times,serif" font-size="4.00">TRADD</text>
</g>
<!-- TRADD&#45;&gt;pr_499a14c0&#45;dda3&#45;4ebf&#45;96ae&#45;d4ed5f5c72ae -->
<g id="edge52" class="edge"><title>TRADD&#45;&gt;pr_499a14c0&#45;dda3&#45;4ebf&#45;96ae&#45;d4ed5f5c72ae</title>
<path fill="none" stroke="black" d="M101.31,-880.218C106.149,-871.436 112.593,-859.745 119.232,-847.698"/>
<polygon fill="black" stroke="black" points="122.319,-849.348 124.08,-838.901 116.188,-845.969 122.319,-849.348"/>
</g>
<!-- pr_9a527828&#45;f5ae&#45;4be8&#45;aa51&#45;65ccb67253da&#45;&gt;MAPK14 -->
<g id="edge53" class="edge"><title>pr_9a527828&#45;f5ae&#45;4be8&#45;aa51&#45;65ccb67253da&#45;&gt;MAPK14</title>
<path fill="none" stroke="black" d="M671.341,-620.863C668.521,-632.556 665.204,-644.53 661.948,-654.564"/>
<polygon fill="black" stroke="black" points="658.567,-653.63 658.599,-664.225 665.181,-655.922 658.567,-653.63"/>
</g>
<!-- SARS 3a -->
<g id="node39" class="node"><title>SARS 3a</title>
<ellipse fill="none" stroke="black" cx="704" cy="-680.219" rx="18" ry="18"/>
<text text-anchor="middle" x="704" y="-679.019" font-family="Times,serif" font-size="4.00">SARS 3a</text>
</g>
<!-- SARS 3a&#45;&gt;pr_9a527828&#45;f5ae&#45;4be8&#45;aa51&#45;65ccb67253da -->
<g id="edge54" class="edge"><title>SARS 3a&#45;&gt;pr_9a527828&#45;f5ae&#45;4be8&#45;aa51&#45;65ccb67253da</title>
<path fill="none" stroke="black" d="M699.781,-662.369C697.58,-653.577 694.74,-642.235 691.817,-630.561"/>
<polygon fill="black" stroke="black" points="695.178,-629.576 689.354,-620.725 688.388,-631.276 695.178,-629.576"/>
</g>
<!-- pr_45d1d9e5&#45;400b&#45;49e7&#45;be4c&#45;312b65bd9c50&#45;&gt;BIM/BAD/PUMA -->
<g id="edge55" class="edge"><title>pr_45d1d9e5&#45;400b&#45;49e7&#45;be4c&#45;312b65bd9c50&#45;&gt;BIM/BAD/PUMA</title>
<path fill="none" stroke="black" d="M349.701,-173.32C349.837,-183.36 349.69,-193.705 349.261,-203.086"/>
<polygon fill="black" stroke="black" points="345.76,-203.009 348.657,-213.2 352.747,-203.427 345.76,-203.009"/>
</g>
<!-- pr_d3fc1f2e&#45;1c19&#45;4a89&#45;a757&#45;06a70de17ee6&#45;&gt;BCL2/BCL&#45;XL/MCL1 -->
<g id="edge56" class="edge"><title>pr_d3fc1f2e&#45;1c19&#45;4a89&#45;a757&#45;06a70de17ee6&#45;&gt;BCL2/BCL&#45;XL/MCL1</title>
<path fill="none" stroke="black" d="M448.93,-172.176C445.034,-182.717 440.675,-193.649 436.422,-203.493"/>
<polygon fill="black" stroke="black" points="433.095,-202.36 432.226,-212.919 439.49,-205.207 433.095,-202.36"/>
</g>
<!-- SARS E_7a -->
<g id="node42" class="node"><title>SARS E_7a</title>
<ellipse fill="none" stroke="black" cx="485" cy="-238.698" rx="20.3062" ry="20.3062"/>
<text text-anchor="middle" x="485" y="-237.498" font-family="Times,serif" font-size="4.00">SARS E_7a</text>
</g>
<!-- SARS E_7a&#45;&gt;pr_d3fc1f2e&#45;1c19&#45;4a89&#45;a757&#45;06a70de17ee6 -->
<g id="edge57" class="edge"><title>SARS E_7a&#45;&gt;pr_d3fc1f2e&#45;1c19&#45;4a89&#45;a757&#45;06a70de17ee6</title>
<path fill="none" stroke="black" d="M481.037,-218.841C478.915,-208.744 476.173,-195.696 473.402,-182.511"/>
<polygon fill="black" stroke="black" points="476.769,-181.514 471.287,-172.448 469.919,-182.954 476.769,-181.514"/>
</g>
</g>
</svg>
