<?xml version="1.0" encoding="UTF-8" standalone="no"?>
<!DOCTYPE svg PUBLIC "-//W3C//DTD SVG 1.1//EN"
 "http://www.w3.org/Graphics/SVG/1.1/DTD/svg11.dtd">
<!-- Generated by graphviz version 2.38.0 (20140413.2041)
 -->
<!-- Title: G Pages: 1 -->
<svg width="874pt" height="1770pt"
 viewBox="0.00 0.00 874.00 1770.01" xmlns="http://www.w3.org/2000/svg" xmlns:xlink="http://www.w3.org/1999/xlink">
<g id="graph0" class="graph" transform="scale(1 1) rotate(0) translate(4 1766.01)">
<title>G</title>
<polygon fill="white" stroke="none" points="-4,4 -4,-1766.01 870,-1766.01 870,4 -4,4"/>
<!-- BID -->
<g id="node1" class="node"><title>BID</title>
<ellipse fill="none" stroke="black" cx="136" cy="-1087.38" rx="18" ry="18"/>
<text text-anchor="middle" x="136" y="-1086.18" font-family="Times,serif" font-size="4.00">BID</text>
</g>
<!-- pr_f9eb9507&#45;64b2&#45;433f&#45;a510&#45;61b1d27494f0 -->
<g id="node2" class="node"><title>pr_f9eb9507&#45;64b2&#45;433f&#45;a510&#45;61b1d27494f0</title>
<polygon fill="none" stroke="black" points="98,-801.487 7.10543e-15,-801.487 7.10543e-15,-703.487 98,-703.487 98,-801.487"/>
<text text-anchor="middle" x="49" y="-751.287" font-family="Times,serif" font-size="4.00">pr_f9eb9507&#45;64b2&#45;433f&#45;a510&#45;61b1d27494f0</text>
</g>
<!-- BID&#45;&gt;pr_f9eb9507&#45;64b2&#45;433f&#45;a510&#45;61b1d27494f0 -->
<g id="edge1" class="edge"><title>BID&#45;&gt;pr_f9eb9507&#45;64b2&#45;433f&#45;a510&#45;61b1d27494f0</title>
<path fill="none" stroke="black" d="M120.016,-1078.82C103.274,-1067.82 79.0771,-1045.98 68,-1021.16 37.9734,-953.876 34.3138,-867.924 38.0347,-811.829"/>
<polygon fill="black" stroke="black" points="41.5354,-811.952 38.8107,-801.714 34.5559,-811.417 41.5354,-811.952"/>
</g>
<!-- pr_8821401c&#45;d78f&#45;4fd6&#45;8f68&#45;e7c1d5383dbe -->
<g id="node37" class="node"><title>pr_8821401c&#45;d78f&#45;4fd6&#45;8f68&#45;e7c1d5383dbe</title>
<polygon fill="none" stroke="black" points="346,-1020.16 248,-1020.16 248,-922.156 346,-922.156 346,-1020.16"/>
<text text-anchor="middle" x="297" y="-969.956" font-family="Times,serif" font-size="4.00">pr_8821401c&#45;d78f&#45;4fd6&#45;8f68&#45;e7c1d5383dbe</text>
</g>
<!-- BID&#45;&gt;pr_8821401c&#45;d78f&#45;4fd6&#45;8f68&#45;e7c1d5383dbe -->
<g id="edge2" class="edge"><title>BID&#45;&gt;pr_8821401c&#45;d78f&#45;4fd6&#45;8f68&#45;e7c1d5383dbe</title>
<path fill="none" stroke="black" d="M150.288,-1076.25C170.21,-1062.11 207.491,-1035.66 239.485,-1012.96"/>
<polygon fill="black" stroke="black" points="241.789,-1015.62 247.919,-1006.98 237.738,-1009.91 241.789,-1015.62"/>
</g>
<!-- pr_8daeb974&#45;00e4&#45;4ba7&#45;aa61&#45;5b9c2f12232d -->
<g id="node45" class="node"><title>pr_8daeb974&#45;00e4&#45;4ba7&#45;aa61&#45;5b9c2f12232d</title>
<polygon fill="none" stroke="black" points="186,-1021.16 86,-1021.16 86,-921.156 186,-921.156 186,-1021.16"/>
<text text-anchor="middle" x="136" y="-969.956" font-family="Times,serif" font-size="4.00">pr_8daeb974&#45;00e4&#45;4ba7&#45;aa61&#45;5b9c2f12232d</text>
</g>
<!-- BID&#45;&gt;pr_8daeb974&#45;00e4&#45;4ba7&#45;aa61&#45;5b9c2f12232d -->
<g id="edge3" class="edge"><title>BID&#45;&gt;pr_8daeb974&#45;00e4&#45;4ba7&#45;aa61&#45;5b9c2f12232d</title>
<path fill="none" stroke="black" d="M131.099,-1070.02C129.932,-1059.74 129.317,-1045.8 129.255,-1031.65"/>
<polygon fill="black" stroke="black" points="132.757,-1031.39 129.308,-1021.37 125.757,-1031.35 132.757,-1031.39"/>
</g>
<!-- pr_f9eb9507&#45;64b2&#45;433f&#45;a510&#45;61b1d27494f0&#45;&gt;BID -->
<g id="edge4" class="edge"><title>pr_f9eb9507&#45;64b2&#45;433f&#45;a510&#45;61b1d27494f0&#45;&gt;BID</title>
<path fill="none" stroke="black" d="M51.7687,-801.714C51.9603,-857.152 54.1045,-949.688 86,-1021.16 93.4833,-1037.92 106.954,-1053.33 118.204,-1064.96"/>
<polygon fill="black" stroke="black" points="116.016,-1067.72 125.536,-1072.37 120.993,-1062.8 116.016,-1067.72"/>
</g>
<!-- CASP8 -->
<g id="node3" class="node"><title>CASP8</title>
<ellipse fill="none" stroke="black" cx="606" cy="-861.822" rx="18" ry="18"/>
<text text-anchor="middle" x="606" y="-860.622" font-family="Times,serif" font-size="4.00">CASP8</text>
</g>
<!-- CASP8&#45;&gt;pr_f9eb9507&#45;64b2&#45;433f&#45;a510&#45;61b1d27494f0 -->
<g id="edge5" class="edge"><title>CASP8&#45;&gt;pr_f9eb9507&#45;64b2&#45;433f&#45;a510&#45;61b1d27494f0</title>
<path fill="none" stroke="black" d="M593.186,-848.925C588.18,-844.944 582.165,-840.907 576,-838.487 437.839,-784.265 390.099,-828.635 244,-802.487 197.949,-794.245 146.67,-781.203 108.258,-770.646"/>
<polygon fill="black" stroke="black" points="108.854,-767.179 98.2822,-767.88 106.984,-773.924 108.854,-767.179"/>
</g>
<!-- pr_e5946803&#45;1f7e&#45;418f&#45;a140&#45;c29226450b88 -->
<g id="node35" class="node"><title>pr_e5946803&#45;1f7e&#45;418f&#45;a140&#45;c29226450b88</title>
<polygon fill="none" stroke="black" points="636.5,-172 537.5,-172 537.5,-73 636.5,-73 636.5,-172"/>
<text text-anchor="middle" x="587" y="-121.3" font-family="Times,serif" font-size="4.00">pr_e5946803&#45;1f7e&#45;418f&#45;a140&#45;c29226450b88</text>
</g>
<!-- CASP8&#45;&gt;pr_e5946803&#45;1f7e&#45;418f&#45;a140&#45;c29226450b88 -->
<g id="edge6" class="edge"><title>CASP8&#45;&gt;pr_e5946803&#45;1f7e&#45;418f&#45;a140&#45;c29226450b88</title>
<path fill="none" stroke="black" d="M606,-843.563C606,-807.514 606,-721.583 606,-649.487 606,-649.487 606,-649.487 606,-329 606,-279.455 600.456,-223.475 595.358,-182.468"/>
<polygon fill="black" stroke="black" points="598.808,-181.856 594.075,-172.378 591.864,-182.739 598.808,-181.856"/>
</g>
<!-- pr_ab1da5f4&#45;9bcc&#45;4cd8&#45;a573&#45;4f50f0d0e61f -->
<g id="node42" class="node"><title>pr_ab1da5f4&#45;9bcc&#45;4cd8&#45;a573&#45;4f50f0d0e61f</title>
<polygon fill="none" stroke="black" points="732,-801.487 634,-801.487 634,-703.487 732,-703.487 732,-801.487"/>
<text text-anchor="middle" x="683" y="-751.287" font-family="Times,serif" font-size="4.00">pr_ab1da5f4&#45;9bcc&#45;4cd8&#45;a573&#45;4f50f0d0e61f</text>
</g>
<!-- CASP8&#45;&gt;pr_ab1da5f4&#45;9bcc&#45;4cd8&#45;a573&#45;4f50f0d0e61f -->
<g id="edge7" class="edge"><title>CASP8&#45;&gt;pr_ab1da5f4&#45;9bcc&#45;4cd8&#45;a573&#45;4f50f0d0e61f</title>
<path fill="none" stroke="black" d="M612.406,-844.984C618.085,-835.513 626.579,-822.842 635.748,-809.956"/>
<polygon fill="black" stroke="black" points="638.843,-811.648 641.848,-801.489 633.163,-807.557 638.843,-811.648"/>
</g>
<!-- pr_99163861&#45;5ea1&#45;4513&#45;ad84&#45;5449e35c7b5c -->
<g id="node44" class="node"><title>pr_99163861&#45;5ea1&#45;4513&#45;ad84&#45;5449e35c7b5c</title>
<polygon fill="none" stroke="black" points="501.5,-173 400.5,-173 400.5,-72 501.5,-72 501.5,-173"/>
<text text-anchor="middle" x="451" y="-121.3" font-family="Times,serif" font-size="4.00">pr_99163861&#45;5ea1&#45;4513&#45;ad84&#45;5449e35c7b5c</text>
</g>
<!-- CASP8&#45;&gt;pr_99163861&#45;5ea1&#45;4513&#45;ad84&#45;5449e35c7b5c -->
<g id="edge8" class="edge"><title>CASP8&#45;&gt;pr_99163861&#45;5ea1&#45;4513&#45;ad84&#45;5449e35c7b5c</title>
<path fill="none" stroke="black" d="M600.954,-844.292C590.617,-808.92 568,-723.112 568,-649.487 568,-649.487 568,-649.487 568,-329 568,-273.808 535.734,-219.911 505.091,-181.17"/>
<polygon fill="black" stroke="black" points="507.601,-178.708 498.588,-173.138 502.16,-183.113 507.601,-178.708"/>
</g>
<!-- CASP9 -->
<g id="node4" class="node"><title>CASP9</title>
<ellipse fill="none" stroke="black" cx="414" cy="-227" rx="18" ry="18"/>
<text text-anchor="middle" x="414" y="-225.8" font-family="Times,serif" font-size="4.00">CASP9</text>
</g>
<!-- pr_a85e7114&#45;8d9f&#45;45da&#45;a2fe&#45;d5630fd5d100 -->
<g id="node5" class="node"><title>pr_a85e7114&#45;8d9f&#45;45da&#45;a2fe&#45;d5630fd5d100</title>
<polygon fill="none" stroke="black" points="463,-379 365,-379 365,-281 463,-281 463,-379"/>
<text text-anchor="middle" x="414" y="-328.8" font-family="Times,serif" font-size="4.00">pr_a85e7114&#45;8d9f&#45;45da&#45;a2fe&#45;d5630fd5d100</text>
</g>
<!-- CASP9&#45;&gt;pr_a85e7114&#45;8d9f&#45;45da&#45;a2fe&#45;d5630fd5d100 -->
<g id="edge9" class="edge"><title>CASP9&#45;&gt;pr_a85e7114&#45;8d9f&#45;45da&#45;a2fe&#45;d5630fd5d100</title>
<path fill="none" stroke="black" d="M419.166,-244.678C420,-252.074 420.505,-261.261 420.68,-270.824"/>
<polygon fill="black" stroke="black" points="417.18,-270.889 420.743,-280.866 424.18,-270.845 417.18,-270.889"/>
</g>
<!-- CASP9&#45;&gt;pr_e5946803&#45;1f7e&#45;418f&#45;a140&#45;c29226450b88 -->
<g id="edge10" class="edge"><title>CASP9&#45;&gt;pr_e5946803&#45;1f7e&#45;418f&#45;a140&#45;c29226450b88</title>
<path fill="none" stroke="black" d="M429.813,-217.689C448.992,-207.512 482.206,-189.581 510,-173 516.099,-169.362 522.415,-165.485 528.686,-161.565"/>
<polygon fill="black" stroke="black" points="530.591,-164.501 537.186,-156.209 526.86,-158.579 530.591,-164.501"/>
</g>
<!-- pr_7ad66384&#45;075d&#45;45fa&#45;944a&#45;d19841a895b5 -->
<g id="node40" class="node"><title>pr_7ad66384&#45;075d&#45;45fa&#45;944a&#45;d19841a895b5</title>
<polygon fill="none" stroke="black" points="364,-594.487 264,-594.487 264,-494.487 364,-494.487 364,-594.487"/>
<text text-anchor="middle" x="314" y="-543.287" font-family="Times,serif" font-size="4.00">pr_7ad66384&#45;075d&#45;45fa&#45;944a&#45;d19841a895b5</text>
</g>
<!-- CASP9&#45;&gt;pr_7ad66384&#45;075d&#45;45fa&#45;944a&#45;d19841a895b5 -->
<g id="edge11" class="edge"><title>CASP9&#45;&gt;pr_7ad66384&#45;075d&#45;45fa&#45;944a&#45;d19841a895b5</title>
<path fill="none" stroke="black" d="M399.036,-237.396C385.511,-246.732 366.205,-262.328 356,-281 321.307,-344.476 313.352,-428.625 312.399,-484.335"/>
<polygon fill="black" stroke="black" points="308.899,-484.36 312.298,-494.395 315.899,-484.431 308.899,-484.36"/>
</g>
<!-- CASP9&#45;&gt;pr_99163861&#45;5ea1&#45;4513&#45;ad84&#45;5449e35c7b5c -->
<g id="edge12" class="edge"><title>CASP9&#45;&gt;pr_99163861&#45;5ea1&#45;4513&#45;ad84&#45;5449e35c7b5c</title>
<path fill="none" stroke="black" d="M419.945,-209.532C422.669,-201.984 426.082,-192.53 429.639,-182.676"/>
<polygon fill="black" stroke="black" points="432.972,-183.749 433.076,-173.155 426.388,-181.372 432.972,-183.749"/>
</g>
<!-- pr_a85e7114&#45;8d9f&#45;45da&#45;a2fe&#45;d5630fd5d100&#45;&gt;CASP9 -->
<g id="edge13" class="edge"><title>pr_a85e7114&#45;8d9f&#45;45da&#45;a2fe&#45;d5630fd5d100&#45;&gt;CASP9</title>
<path fill="none" stroke="black" d="M407.257,-280.866C407.207,-271.924 407.44,-262.883 407.955,-254.867"/>
<polygon fill="black" stroke="black" points="411.462,-254.942 408.834,-244.678 404.488,-254.34 411.462,-254.942"/>
</g>
<!-- Apoptosome -->
<g id="node6" class="node"><title>Apoptosome</title>
<ellipse fill="none" stroke="black" cx="364" cy="-436.744" rx="21.9898" ry="21.9898"/>
<text text-anchor="middle" x="364" y="-435.544" font-family="Times,serif" font-size="4.00">Apoptosome</text>
</g>
<!-- Apoptosome&#45;&gt;pr_a85e7114&#45;8d9f&#45;45da&#45;a2fe&#45;d5630fd5d100 -->
<g id="edge14" class="edge"><title>Apoptosome&#45;&gt;pr_a85e7114&#45;8d9f&#45;45da&#45;a2fe&#45;d5630fd5d100</title>
<path fill="none" stroke="black" d="M373.171,-416.532C377.013,-408.483 381.702,-398.659 386.516,-388.576"/>
<polygon fill="black" stroke="black" points="389.801,-389.818 390.951,-379.286 383.484,-386.802 389.801,-389.818"/>
</g>
<!-- AKT1 -->
<g id="node7" class="node"><title>AKT1</title>
<ellipse fill="none" stroke="black" cx="414" cy="-1744.01" rx="18" ry="18"/>
<text text-anchor="middle" x="414" y="-1742.81" font-family="Times,serif" font-size="4.00">AKT1</text>
</g>
<!-- AKT1&#45;&gt;pr_a85e7114&#45;8d9f&#45;45da&#45;a2fe&#45;d5630fd5d100 -->
<g id="edge15" class="edge"><title>AKT1&#45;&gt;pr_a85e7114&#45;8d9f&#45;45da&#45;a2fe&#45;d5630fd5d100</title>
<path fill="none" stroke="black" d="M414,-1726C414,-1690.88 414,-1607.77 414,-1538.01 414,-1538.01 414,-1538.01 414,-543.487 414,-491.344 414,-432.004 414,-389.311"/>
<polygon fill="black" stroke="black" points="417.5,-389.103 414,-379.103 410.5,-389.103 417.5,-389.103"/>
</g>
<!-- pr_e575f79f&#45;cb07&#45;43a8&#45;94e4&#45;cd720b6a13e4 -->
<g id="node36" class="node"><title>pr_e575f79f&#45;cb07&#45;43a8&#45;94e4&#45;cd720b6a13e4</title>
<polygon fill="none" stroke="black" points="363.5,-1690.01 264.5,-1690.01 264.5,-1591.01 363.5,-1591.01 363.5,-1690.01"/>
<text text-anchor="middle" x="314" y="-1639.31" font-family="Times,serif" font-size="4.00">pr_e575f79f&#45;cb07&#45;43a8&#45;94e4&#45;cd720b6a13e4</text>
</g>
<!-- AKT1&#45;&gt;pr_e575f79f&#45;cb07&#45;43a8&#45;94e4&#45;cd720b6a13e4 -->
<g id="edge16" class="edge"><title>AKT1&#45;&gt;pr_e575f79f&#45;cb07&#45;43a8&#45;94e4&#45;cd720b6a13e4</title>
<path fill="none" stroke="black" d="M401.738,-1730.56C393.28,-1721.98 381.378,-1709.9 369.062,-1697.4"/>
<polygon fill="black" stroke="black" points="371.297,-1694.68 361.785,-1690.01 366.31,-1699.59 371.297,-1694.68"/>
</g>
<!-- pr_1694f2f6&#45;3c44&#45;47bc&#45;ac58&#45;bc0b83efca46 -->
<g id="node38" class="node"><title>pr_1694f2f6&#45;3c44&#45;47bc&#45;ac58&#45;bc0b83efca46</title>
<polygon fill="none" stroke="black" points="540,-1689.51 442,-1689.51 442,-1591.51 540,-1591.51 540,-1689.51"/>
<text text-anchor="middle" x="491" y="-1639.31" font-family="Times,serif" font-size="4.00">pr_1694f2f6&#45;3c44&#45;47bc&#45;ac58&#45;bc0b83efca46</text>
</g>
<!-- AKT1&#45;&gt;pr_1694f2f6&#45;3c44&#45;47bc&#45;ac58&#45;bc0b83efca46 -->
<g id="edge17" class="edge"><title>AKT1&#45;&gt;pr_1694f2f6&#45;3c44&#45;47bc&#45;ac58&#45;bc0b83efca46</title>
<path fill="none" stroke="black" d="M420.969,-1727.15C426.147,-1719.07 433.469,-1708.69 441.459,-1697.97"/>
<polygon fill="black" stroke="black" points="444.443,-1699.82 447.674,-1689.73 438.856,-1695.61 444.443,-1699.82"/>
</g>
<!-- AKT1&#45;&gt;pr_7ad66384&#45;075d&#45;45fa&#45;944a&#45;d19841a895b5 -->
<g id="edge18" class="edge"><title>AKT1&#45;&gt;pr_7ad66384&#45;075d&#45;45fa&#45;944a&#45;d19841a895b5</title>
<path fill="none" stroke="black" d="M395.83,-1742.31C362.874,-1740.04 293.136,-1730.44 255,-1690.01 206.986,-1639.11 214,-1607.98 214,-1538.01 214,-1538.01 214,-1538.01 214,-751.487 214,-697.526 242.113,-642.875 268.526,-603.435"/>
<polygon fill="black" stroke="black" points="271.71,-604.981 274.477,-594.754 265.936,-601.023 271.71,-604.981"/>
</g>
<!-- FADD -->
<g id="node8" class="node"><title>FADD</title>
<ellipse fill="none" stroke="black" cx="751" cy="-1087.38" rx="18" ry="18"/>
<text text-anchor="middle" x="751" y="-1086.18" font-family="Times,serif" font-size="4.00">FADD</text>
</g>
<!-- pr_06027f6e&#45;fb3c&#45;41de&#45;ae85&#45;1a0d3a340d57 -->
<g id="node9" class="node"><title>pr_06027f6e&#45;fb3c&#45;41de&#45;ae85&#45;1a0d3a340d57</title>
<polygon fill="none" stroke="black" points="709.5,-1020.66 610.5,-1020.66 610.5,-921.656 709.5,-921.656 709.5,-1020.66"/>
<text text-anchor="middle" x="660" y="-969.956" font-family="Times,serif" font-size="4.00">pr_06027f6e&#45;fb3c&#45;41de&#45;ae85&#45;1a0d3a340d57</text>
</g>
<!-- FADD&#45;&gt;pr_06027f6e&#45;fb3c&#45;41de&#45;ae85&#45;1a0d3a340d57 -->
<g id="edge19" class="edge"><title>FADD&#45;&gt;pr_06027f6e&#45;fb3c&#45;41de&#45;ae85&#45;1a0d3a340d57</title>
<path fill="none" stroke="black" d="M740.204,-1072.83C731.384,-1061.76 718.28,-1045.31 705.208,-1028.9"/>
<polygon fill="black" stroke="black" points="707.781,-1026.52 698.813,-1020.88 702.306,-1030.88 707.781,-1026.52"/>
</g>
<!-- pr_8713b9b7&#45;639d&#45;4f28&#45;bdc6&#45;01316d10e37a -->
<g id="node13" class="node"><title>pr_8713b9b7&#45;639d&#45;4f28&#45;bdc6&#45;01316d10e37a</title>
<polygon fill="none" stroke="black" points="866,-1021.16 766,-1021.16 766,-921.156 866,-921.156 866,-1021.16"/>
<text text-anchor="middle" x="816" y="-969.956" font-family="Times,serif" font-size="4.00">pr_8713b9b7&#45;639d&#45;4f28&#45;bdc6&#45;01316d10e37a</text>
</g>
<!-- FADD&#45;&gt;pr_8713b9b7&#45;639d&#45;4f28&#45;bdc6&#45;01316d10e37a -->
<g id="edge20" class="edge"><title>FADD&#45;&gt;pr_8713b9b7&#45;639d&#45;4f28&#45;bdc6&#45;01316d10e37a</title>
<path fill="none" stroke="black" d="M755.636,-1069.53C760.488,-1058.94 768.051,-1044.6 776.232,-1030.18"/>
<polygon fill="black" stroke="black" points="779.432,-1031.64 781.387,-1021.23 773.365,-1028.15 779.432,-1031.64"/>
</g>
<!-- FADD&#45;&gt;pr_ab1da5f4&#45;9bcc&#45;4cd8&#45;a573&#45;4f50f0d0e61f -->
<g id="edge21" class="edge"><title>FADD&#45;&gt;pr_ab1da5f4&#45;9bcc&#45;4cd8&#45;a573&#45;4f50f0d0e61f</title>
<path fill="none" stroke="black" d="M748.434,-1069.45C742.222,-1029.19 725.447,-924.677 706,-838.487 704.044,-829.819 701.791,-820.705 699.476,-811.795"/>
<polygon fill="black" stroke="black" points="702.788,-810.629 696.849,-801.856 696.021,-812.418 702.788,-810.629"/>
</g>
<!-- TRADD/FADD -->
<g id="node11" class="node"><title>TRADD/FADD</title>
<ellipse fill="none" stroke="black" cx="674" cy="-861.822" rx="23.1702" ry="23.1702"/>
<text text-anchor="middle" x="674" y="-860.622" font-family="Times,serif" font-size="4.00">TRADD/FADD</text>
</g>
<!-- pr_06027f6e&#45;fb3c&#45;41de&#45;ae85&#45;1a0d3a340d57&#45;&gt;TRADD/FADD -->
<g id="edge22" class="edge"><title>pr_06027f6e&#45;fb3c&#45;41de&#45;ae85&#45;1a0d3a340d57&#45;&gt;TRADD/FADD</title>
<path fill="none" stroke="black" d="M666.345,-921.514C667.515,-912.543 668.709,-903.384 669.796,-895.051"/>
<polygon fill="black" stroke="black" points="673.283,-895.381 671.106,-885.013 666.341,-894.476 673.283,-895.381"/>
</g>
<!-- TRADD -->
<g id="node10" class="node"><title>TRADD</title>
<ellipse fill="none" stroke="black" cx="611" cy="-1087.38" rx="18" ry="18"/>
<text text-anchor="middle" x="611" y="-1086.18" font-family="Times,serif" font-size="4.00">TRADD</text>
</g>
<!-- TRADD&#45;&gt;pr_06027f6e&#45;fb3c&#45;41de&#45;ae85&#45;1a0d3a340d57 -->
<g id="edge23" class="edge"><title>TRADD&#45;&gt;pr_06027f6e&#45;fb3c&#45;41de&#45;ae85&#45;1a0d3a340d57</title>
<path fill="none" stroke="black" d="M617.813,-1070.5C622.408,-1059.79 628.78,-1044.94 635.181,-1030.01"/>
<polygon fill="black" stroke="black" points="638.429,-1031.32 639.155,-1020.75 631.996,-1028.56 638.429,-1031.32"/>
</g>
<!-- TRADD/FADD&#45;&gt;pr_ab1da5f4&#45;9bcc&#45;4cd8&#45;a573&#45;4f50f0d0e61f -->
<g id="edge24" class="edge"><title>TRADD/FADD&#45;&gt;pr_ab1da5f4&#45;9bcc&#45;4cd8&#45;a573&#45;4f50f0d0e61f</title>
<path fill="none" stroke="black" d="M675.887,-838.321C676.545,-830.466 677.318,-821.247 678.107,-811.836"/>
<polygon fill="black" stroke="black" points="681.618,-811.86 678.966,-801.602 674.642,-811.275 681.618,-811.86"/>
</g>
<!-- TNF/TNFRSF1A -->
<g id="node12" class="node"><title>TNF/TNFRSF1A</title>
<ellipse fill="none" stroke="black" cx="671" cy="-1087.38" rx="24.2908" ry="24.2908"/>
<text text-anchor="middle" x="671" y="-1086.18" font-family="Times,serif" font-size="4.00">TNF/TNFRSF1A</text>
</g>
<!-- TNF/TNFRSF1A&#45;&gt;pr_06027f6e&#45;fb3c&#45;41de&#45;ae85&#45;1a0d3a340d57 -->
<g id="edge25" class="edge"><title>TNF/TNFRSF1A&#45;&gt;pr_06027f6e&#45;fb3c&#45;41de&#45;ae85&#45;1a0d3a340d57</title>
<path fill="none" stroke="black" d="M668.747,-1062.99C667.843,-1053.6 666.757,-1042.32 665.661,-1030.95"/>
<polygon fill="black" stroke="black" points="669.144,-1030.59 664.701,-1020.97 662.176,-1031.26 669.144,-1030.59"/>
</g>
<!-- pr_8713b9b7&#45;639d&#45;4f28&#45;bdc6&#45;01316d10e37a&#45;&gt;FADD -->
<g id="edge26" class="edge"><title>pr_8713b9b7&#45;639d&#45;4f28&#45;bdc6&#45;01316d10e37a&#45;&gt;FADD</title>
<path fill="none" stroke="black" d="M794.75,-1021.26C786.27,-1036.56 776.685,-1052.65 768.566,-1065.01"/>
<polygon fill="black" stroke="black" points="765.671,-1063.04 762.95,-1073.28 771.462,-1066.97 765.671,-1063.04"/>
</g>
<!-- FAS/FASL -->
<g id="node14" class="node"><title>FAS/FASL</title>
<ellipse fill="none" stroke="black" cx="816" cy="-1087.38" rx="18.6233" ry="18.6233"/>
<text text-anchor="middle" x="816" y="-1086.18" font-family="Times,serif" font-size="4.00">FAS/FASL</text>
</g>
<!-- FAS/FASL&#45;&gt;pr_8713b9b7&#45;639d&#45;4f28&#45;bdc6&#45;01316d10e37a -->
<g id="edge27" class="edge"><title>FAS/FASL&#45;&gt;pr_8713b9b7&#45;639d&#45;4f28&#45;bdc6&#45;01316d10e37a</title>
<path fill="none" stroke="black" d="M816,-1068.54C816,-1058.44 816,-1045.16 816,-1031.7"/>
<polygon fill="black" stroke="black" points="819.5,-1031.43 816,-1021.43 812.5,-1031.43 819.5,-1031.43"/>
</g>
<!-- BCL2/MCL1/BCL2L1 -->
<g id="node15" class="node"><title>BCL2/MCL1/BCL2L1</title>
<ellipse fill="none" stroke="black" cx="314" cy="-1319.31" rx="29.8983" ry="29.8983"/>
<text text-anchor="middle" x="314" y="-1318.11" font-family="Times,serif" font-size="4.00">BCL2/MCL1/BCL2L1</text>
</g>
<!-- pr_fc72ba26&#45;4f1e&#45;4896&#45;86ea&#45;44ae2f1e6df7 -->
<g id="node16" class="node"><title>pr_fc72ba26&#45;4f1e&#45;4896&#45;86ea&#45;44ae2f1e6df7</title>
<polygon fill="none" stroke="black" points="363,-1483.01 265,-1483.01 265,-1385.01 363,-1385.01 363,-1483.01"/>
<text text-anchor="middle" x="314" y="-1432.81" font-family="Times,serif" font-size="4.00">pr_fc72ba26&#45;4f1e&#45;4896&#45;86ea&#45;44ae2f1e6df7</text>
</g>
<!-- BCL2/MCL1/BCL2L1&#45;&gt;pr_fc72ba26&#45;4f1e&#45;4896&#45;86ea&#45;44ae2f1e6df7 -->
<g id="edge28" class="edge"><title>BCL2/MCL1/BCL2L1&#45;&gt;pr_fc72ba26&#45;4f1e&#45;4896&#45;86ea&#45;44ae2f1e6df7</title>
<path fill="none" stroke="black" d="M319.931,-1348.41C320.439,-1356.44 320.711,-1365.49 320.746,-1374.61"/>
<polygon fill="black" stroke="black" points="317.245,-1374.87 320.686,-1384.89 324.244,-1374.91 317.245,-1374.87"/>
</g>
<!-- pr_9fa73219&#45;5be3&#45;4c87&#45;8489&#45;c797ed26e3ca -->
<g id="node21" class="node"><title>pr_9fa73219&#45;5be3&#45;4c87&#45;8489&#45;c797ed26e3ca</title>
<polygon fill="none" stroke="black" points="383,-1253.61 283,-1253.61 283,-1153.61 383,-1153.61 383,-1253.61"/>
<text text-anchor="middle" x="333" y="-1202.41" font-family="Times,serif" font-size="4.00">pr_9fa73219&#45;5be3&#45;4c87&#45;8489&#45;c797ed26e3ca</text>
</g>
<!-- BCL2/MCL1/BCL2L1&#45;&gt;pr_9fa73219&#45;5be3&#45;4c87&#45;8489&#45;c797ed26e3ca -->
<g id="edge29" class="edge"><title>BCL2/MCL1/BCL2L1&#45;&gt;pr_9fa73219&#45;5be3&#45;4c87&#45;8489&#45;c797ed26e3ca</title>
<path fill="none" stroke="black" d="M318.745,-1289.91C320.085,-1281.9 321.595,-1272.86 323.118,-1263.75"/>
<polygon fill="black" stroke="black" points="326.573,-1264.31 324.769,-1253.87 319.668,-1263.16 326.573,-1264.31"/>
</g>
<!-- BCL2/MCL1/BCL2L1&#45;&gt;pr_8821401c&#45;d78f&#45;4fd6&#45;8f68&#45;e7c1d5383dbe -->
<g id="edge30" class="edge"><title>BCL2/MCL1/BCL2L1&#45;&gt;pr_8821401c&#45;d78f&#45;4fd6&#45;8f68&#45;e7c1d5383dbe</title>
<path fill="none" stroke="black" d="M295.795,-1295.84C287.391,-1284.03 278.332,-1268.86 274,-1253.61 252.666,-1178.54 266.759,-1088 280.468,-1030.25"/>
<polygon fill="black" stroke="black" points="283.947,-1030.76 282.926,-1020.22 277.147,-1029.1 283.947,-1030.76"/>
</g>
<!-- pr_fc72ba26&#45;4f1e&#45;4896&#45;86ea&#45;44ae2f1e6df7&#45;&gt;BCL2/MCL1/BCL2L1 -->
<g id="edge31" class="edge"><title>pr_fc72ba26&#45;4f1e&#45;4896&#45;86ea&#45;44ae2f1e6df7&#45;&gt;BCL2/MCL1/BCL2L1</title>
<path fill="none" stroke="black" d="M307.314,-1384.89C307.175,-1376.04 307.262,-1366.92 307.575,-1358.42"/>
<polygon fill="black" stroke="black" points="311.071,-1358.58 308.069,-1348.41 304.08,-1358.23 311.071,-1358.58"/>
</g>
<!-- Orf7a -->
<g id="node17" class="node"><title>Orf7a</title>
<ellipse fill="none" stroke="black" cx="260" cy="-1537.01" rx="18" ry="18"/>
<text text-anchor="middle" x="260" y="-1535.81" font-family="Times,serif" font-size="4.00">Orf7a</text>
</g>
<!-- Orf7a&#45;&gt;pr_fc72ba26&#45;4f1e&#45;4896&#45;86ea&#45;44ae2f1e6df7 -->
<g id="edge32" class="edge"><title>Orf7a&#45;&gt;pr_fc72ba26&#45;4f1e&#45;4896&#45;86ea&#45;44ae2f1e6df7</title>
<path fill="none" stroke="black" d="M268.201,-1520.67C272.397,-1512.82 277.794,-1502.73 283.402,-1492.24"/>
<polygon fill="black" stroke="black" points="286.512,-1493.85 288.14,-1483.38 280.339,-1490.55 286.512,-1493.85"/>
</g>
<!-- E -->
<g id="node18" class="node"><title>E</title>
<ellipse fill="none" stroke="black" cx="368" cy="-1537.01" rx="18" ry="18"/>
<text text-anchor="middle" x="368" y="-1535.81" font-family="Times,serif" font-size="4.00">E</text>
</g>
<!-- E&#45;&gt;pr_fc72ba26&#45;4f1e&#45;4896&#45;86ea&#45;44ae2f1e6df7 -->
<g id="edge33" class="edge"><title>E&#45;&gt;pr_fc72ba26&#45;4f1e&#45;4896&#45;86ea&#45;44ae2f1e6df7</title>
<path fill="none" stroke="black" d="M359.799,-1520.67C355.603,-1512.82 350.206,-1502.73 344.598,-1492.24"/>
<polygon fill="black" stroke="black" points="347.661,-1490.55 339.86,-1483.38 341.488,-1493.85 347.661,-1490.55"/>
</g>
<!-- BAD -->
<g id="node19" class="node"><title>BAD</title>
<ellipse fill="none" stroke="black" cx="314" cy="-1537.01" rx="18" ry="18"/>
<text text-anchor="middle" x="314" y="-1535.81" font-family="Times,serif" font-size="4.00">BAD</text>
</g>
<!-- BAD&#45;&gt;pr_fc72ba26&#45;4f1e&#45;4896&#45;86ea&#45;44ae2f1e6df7 -->
<g id="edge34" class="edge"><title>BAD&#45;&gt;pr_fc72ba26&#45;4f1e&#45;4896&#45;86ea&#45;44ae2f1e6df7</title>
<path fill="none" stroke="black" d="M314,-1518.88C314,-1511.6 314,-1502.66 314,-1493.35"/>
<polygon fill="black" stroke="black" points="317.5,-1493.16 314,-1483.16 310.5,-1493.16 317.5,-1493.16"/>
</g>
<!-- BAD&#45;&gt;pr_e575f79f&#45;cb07&#45;43a8&#45;94e4&#45;cd720b6a13e4 -->
<g id="edge35" class="edge"><title>BAD&#45;&gt;pr_e575f79f&#45;cb07&#45;43a8&#45;94e4&#45;cd720b6a13e4</title>
<path fill="none" stroke="black" d="M319.154,-1554.66C319.988,-1562.04 320.495,-1571.22 320.675,-1580.79"/>
<polygon fill="black" stroke="black" points="317.176,-1580.87 320.745,-1590.84 324.176,-1580.82 317.176,-1580.87"/>
</g>
<!-- BAD/BBC3/BCL2L11 -->
<g id="node20" class="node"><title>BAD/BBC3/BCL2L11</title>
<ellipse fill="none" stroke="black" cx="333" cy="-1087.38" rx="30.4594" ry="30.4594"/>
<text text-anchor="middle" x="333" y="-1086.18" font-family="Times,serif" font-size="4.00">BAD/BBC3/BCL2L11</text>
</g>
<!-- BAD/BBC3/BCL2L11&#45;&gt;pr_9fa73219&#45;5be3&#45;4c87&#45;8489&#45;c797ed26e3ca -->
<g id="edge36" class="edge"><title>BAD/BBC3/BCL2L11&#45;&gt;pr_9fa73219&#45;5be3&#45;4c87&#45;8489&#45;c797ed26e3ca</title>
<path fill="none" stroke="black" d="M338.96,-1117.34C339.448,-1125.32 339.709,-1134.29 339.746,-1143.32"/>
<polygon fill="black" stroke="black" points="336.245,-1143.49 339.691,-1153.51 343.245,-1143.53 336.245,-1143.49"/>
</g>
<!-- BAD/BBC3/BCL2L11&#45;&gt;pr_8821401c&#45;d78f&#45;4fd6&#45;8f68&#45;e7c1d5383dbe -->
<g id="edge37" class="edge"><title>BAD/BBC3/BCL2L11&#45;&gt;pr_8821401c&#45;d78f&#45;4fd6&#45;8f68&#45;e7c1d5383dbe</title>
<path fill="none" stroke="black" d="M324.193,-1058.44C321.477,-1049.82 318.379,-1039.99 315.27,-1030.13"/>
<polygon fill="black" stroke="black" points="318.515,-1028.78 312.171,-1020.29 311.838,-1030.88 318.515,-1028.78"/>
</g>
<!-- pr_9fa73219&#45;5be3&#45;4c87&#45;8489&#45;c797ed26e3ca&#45;&gt;BAD/BBC3/BCL2L11 -->
<g id="edge38" class="edge"><title>pr_9fa73219&#45;5be3&#45;4c87&#45;8489&#45;c797ed26e3ca&#45;&gt;BAD/BBC3/BCL2L11</title>
<path fill="none" stroke="black" d="M326.309,-1153.51C326.18,-1144.83 326.262,-1135.91 326.555,-1127.55"/>
<polygon fill="black" stroke="black" points="330.062,-1127.49 327.04,-1117.34 323.07,-1127.16 330.062,-1127.49"/>
</g>
<!-- TNFRSF1A -->
<g id="node22" class="node"><title>TNFRSF1A</title>
<ellipse fill="none" stroke="black" cx="652" cy="-1319.31" rx="19.7452" ry="19.7452"/>
<text text-anchor="middle" x="652" y="-1318.11" font-family="Times,serif" font-size="4.00">TNFRSF1A</text>
</g>
<!-- pr_f0479956&#45;be9a&#45;4aa4&#45;a970&#45;67c8394f0f18 -->
<g id="node23" class="node"><title>pr_f0479956&#45;be9a&#45;4aa4&#45;a970&#45;67c8394f0f18</title>
<polygon fill="none" stroke="black" points="720,-1252.61 622,-1252.61 622,-1154.61 720,-1154.61 720,-1252.61"/>
<text text-anchor="middle" x="671" y="-1202.41" font-family="Times,serif" font-size="4.00">pr_f0479956&#45;be9a&#45;4aa4&#45;a970&#45;67c8394f0f18</text>
</g>
<!-- TNFRSF1A&#45;&gt;pr_f0479956&#45;be9a&#45;4aa4&#45;a970&#45;67c8394f0f18 -->
<g id="edge39" class="edge"><title>TNFRSF1A&#45;&gt;pr_f0479956&#45;be9a&#45;4aa4&#45;a970&#45;67c8394f0f18</title>
<path fill="none" stroke="black" d="M655.095,-1299.79C656.788,-1289.66 658.988,-1276.49 661.21,-1263.2"/>
<polygon fill="black" stroke="black" points="664.708,-1263.5 662.905,-1253.06 657.804,-1262.34 664.708,-1263.5"/>
</g>
<!-- pr_f0479956&#45;be9a&#45;4aa4&#45;a970&#45;67c8394f0f18&#45;&gt;TNF/TNFRSF1A -->
<g id="edge40" class="edge"><title>pr_f0479956&#45;be9a&#45;4aa4&#45;a970&#45;67c8394f0f18&#45;&gt;TNF/TNFRSF1A</title>
<path fill="none" stroke="black" d="M671,-1154.5C671,-1143.55 671,-1132.15 671,-1121.95"/>
<polygon fill="black" stroke="black" points="674.5,-1121.84 671,-1111.84 667.5,-1121.84 674.5,-1121.84"/>
</g>
<!-- TNF -->
<g id="node24" class="node"><title>TNF</title>
<ellipse fill="none" stroke="black" cx="708" cy="-1319.31" rx="18" ry="18"/>
<text text-anchor="middle" x="708" y="-1318.11" font-family="Times,serif" font-size="4.00">TNF</text>
</g>
<!-- TNF&#45;&gt;pr_f0479956&#45;be9a&#45;4aa4&#45;a970&#45;67c8394f0f18 -->
<g id="edge41" class="edge"><title>TNF&#45;&gt;pr_f0479956&#45;be9a&#45;4aa4&#45;a970&#45;67c8394f0f18</title>
<path fill="none" stroke="black" d="M702.699,-1302.02C699.257,-1291.44 694.542,-1276.96 689.802,-1262.39"/>
<polygon fill="black" stroke="black" points="693.118,-1261.27 686.696,-1252.85 686.462,-1263.44 693.118,-1261.27"/>
</g>
<!-- CYCS -->
<g id="node25" class="node"><title>CYCS</title>
<ellipse fill="none" stroke="black" cx="303" cy="-648.487" rx="18" ry="18"/>
<text text-anchor="middle" x="303" y="-647.287" font-family="Times,serif" font-size="4.00">CYCS</text>
</g>
<!-- pr_7bc4b1a4&#45;978c&#45;4253&#45;a528&#45;3facd404bc16 -->
<g id="node26" class="node"><title>pr_7bc4b1a4&#45;978c&#45;4253&#45;a528&#45;3facd404bc16</title>
<polygon fill="none" stroke="black" points="353,-802.487 253,-802.487 253,-702.487 353,-702.487 353,-802.487"/>
<text text-anchor="middle" x="303" y="-751.287" font-family="Times,serif" font-size="4.00">pr_7bc4b1a4&#45;978c&#45;4253&#45;a528&#45;3facd404bc16</text>
</g>
<!-- CYCS&#45;&gt;pr_7bc4b1a4&#45;978c&#45;4253&#45;a528&#45;3facd404bc16 -->
<g id="edge42" class="edge"><title>CYCS&#45;&gt;pr_7bc4b1a4&#45;978c&#45;4253&#45;a528&#45;3facd404bc16</title>
<path fill="none" stroke="black" d="M308.141,-666.102C308.975,-673.478 309.485,-682.649 309.671,-692.22"/>
<polygon fill="black" stroke="black" points="306.171,-692.306 309.746,-702.28 313.171,-692.254 306.171,-692.306"/>
</g>
<!-- CYCS&#45;&gt;pr_7ad66384&#45;075d&#45;45fa&#45;944a&#45;d19841a895b5 -->
<g id="edge43" class="edge"><title>CYCS&#45;&gt;pr_7ad66384&#45;075d&#45;45fa&#45;944a&#45;d19841a895b5</title>
<path fill="none" stroke="black" d="M304.866,-630.184C305.649,-622.921 306.61,-614.008 307.612,-604.721"/>
<polygon fill="black" stroke="black" points="311.116,-604.874 308.708,-594.557 304.156,-604.124 311.116,-604.874"/>
</g>
<!-- pr_7bc4b1a4&#45;978c&#45;4253&#45;a528&#45;3facd404bc16&#45;&gt;CYCS -->
<g id="edge44" class="edge"><title>pr_7bc4b1a4&#45;978c&#45;4253&#45;a528&#45;3facd404bc16&#45;&gt;CYCS</title>
<path fill="none" stroke="black" d="M296.254,-702.28C296.217,-693.314 296.458,-684.273 296.978,-676.27"/>
<polygon fill="black" stroke="black" points="300.482,-676.367 297.859,-666.102 293.509,-675.762 300.482,-676.367"/>
</g>
<!-- MAPK14 -->
<g id="node27" class="node"><title>MAPK14</title>
<ellipse fill="none" stroke="black" cx="491" cy="-861.822" rx="18" ry="18"/>
<text text-anchor="middle" x="491" y="-860.622" font-family="Times,serif" font-size="4.00">MAPK14</text>
</g>
<!-- MAPK14&#45;&gt;pr_7bc4b1a4&#45;978c&#45;4253&#45;a528&#45;3facd404bc16 -->
<g id="edge45" class="edge"><title>MAPK14&#45;&gt;pr_7bc4b1a4&#45;978c&#45;4253&#45;a528&#45;3facd404bc16</title>
<path fill="none" stroke="black" d="M475.615,-852.038C451.075,-838.027 401.796,-809.892 362.151,-787.258"/>
<polygon fill="black" stroke="black" points="363.756,-784.144 353.336,-782.225 360.285,-790.223 363.756,-784.144"/>
</g>
<!-- pr_f8787768&#45;f2c5&#45;44ef&#45;9a33&#45;ce6cc0bda86c -->
<g id="node32" class="node"><title>pr_f8787768&#45;f2c5&#45;44ef&#45;9a33&#45;ce6cc0bda86c</title>
<polygon fill="none" stroke="black" points="540,-801.487 442,-801.487 442,-703.487 540,-703.487 540,-801.487"/>
<text text-anchor="middle" x="491" y="-751.287" font-family="Times,serif" font-size="4.00">pr_f8787768&#45;f2c5&#45;44ef&#45;9a33&#45;ce6cc0bda86c</text>
</g>
<!-- MAPK14&#45;&gt;pr_f8787768&#45;f2c5&#45;44ef&#45;9a33&#45;ce6cc0bda86c -->
<g id="edge46" class="edge"><title>MAPK14&#45;&gt;pr_f8787768&#45;f2c5&#45;44ef&#45;9a33&#45;ce6cc0bda86c</title>
<path fill="none" stroke="black" d="M485.991,-844.52C484.96,-835.54 484.387,-823.789 484.272,-811.727"/>
<polygon fill="black" stroke="black" points="487.772,-811.58 484.283,-801.577 480.772,-811.573 487.772,-811.58"/>
</g>
<!-- BAX -->
<g id="node28" class="node"><title>BAX</title>
<ellipse fill="none" stroke="black" cx="297" cy="-861.822" rx="18" ry="18"/>
<text text-anchor="middle" x="297" y="-860.622" font-family="Times,serif" font-size="4.00">BAX</text>
</g>
<!-- BAX&#45;&gt;pr_7bc4b1a4&#45;978c&#45;4253&#45;a528&#45;3facd404bc16 -->
<g id="edge47" class="edge"><title>BAX&#45;&gt;pr_7bc4b1a4&#45;978c&#45;4253&#45;a528&#45;3facd404bc16</title>
<path fill="none" stroke="black" d="M297.964,-843.576C298.441,-835.047 299.048,-824.193 299.673,-812.996"/>
<polygon fill="black" stroke="black" points="303.187,-812.853 300.251,-802.673 296.198,-812.462 303.187,-812.853"/>
</g>
<!-- BAX&#45;&gt;pr_8821401c&#45;d78f&#45;4fd6&#45;8f68&#45;e7c1d5383dbe -->
<g id="edge48" class="edge"><title>BAX&#45;&gt;pr_8821401c&#45;d78f&#45;4fd6&#45;8f68&#45;e7c1d5383dbe</title>
<path fill="none" stroke="black" d="M302.017,-879.193C303.045,-888.183 303.616,-899.936 303.729,-911.994"/>
<polygon fill="black" stroke="black" points="300.229,-912.135 303.717,-922.14 307.229,-912.144 300.229,-912.135"/>
</g>
<!-- FASLG -->
<g id="node29" class="node"><title>FASLG</title>
<ellipse fill="none" stroke="black" cx="780" cy="-1319.31" rx="18" ry="18"/>
<text text-anchor="middle" x="780" y="-1318.11" font-family="Times,serif" font-size="4.00">FASLG</text>
</g>
<!-- pr_cf0fa620&#45;e7a2&#45;4ffe&#45;82f9&#45;9b59614a3b24 -->
<g id="node30" class="node"><title>pr_cf0fa620&#45;e7a2&#45;4ffe&#45;82f9&#45;9b59614a3b24</title>
<polygon fill="none" stroke="black" points="864.5,-1252.11 767.5,-1252.11 767.5,-1155.11 864.5,-1155.11 864.5,-1252.11"/>
<text text-anchor="middle" x="816" y="-1202.41" font-family="Times,serif" font-size="4.00">pr_cf0fa620&#45;e7a2&#45;4ffe&#45;82f9&#45;9b59614a3b24</text>
</g>
<!-- FASLG&#45;&gt;pr_cf0fa620&#45;e7a2&#45;4ffe&#45;82f9&#45;9b59614a3b24 -->
<g id="edge49" class="edge"><title>FASLG&#45;&gt;pr_cf0fa620&#45;e7a2&#45;4ffe&#45;82f9&#45;9b59614a3b24</title>
<path fill="none" stroke="black" d="M785.158,-1302.02C788.539,-1291.34 793.181,-1276.68 797.838,-1261.97"/>
<polygon fill="black" stroke="black" points="801.206,-1262.93 800.888,-1252.34 794.532,-1260.82 801.206,-1262.93"/>
</g>
<!-- pr_cf0fa620&#45;e7a2&#45;4ffe&#45;82f9&#45;9b59614a3b24&#45;&gt;FAS/FASL -->
<g id="edge50" class="edge"><title>pr_cf0fa620&#45;e7a2&#45;4ffe&#45;82f9&#45;9b59614a3b24&#45;&gt;FAS/FASL</title>
<path fill="none" stroke="black" d="M816,-1154.83C816,-1141.77 816,-1128.03 816,-1116.46"/>
<polygon fill="black" stroke="black" points="819.5,-1116.13 816,-1106.13 812.5,-1116.13 819.5,-1116.13"/>
</g>
<!-- FAS -->
<g id="node31" class="node"><title>FAS</title>
<ellipse fill="none" stroke="black" cx="834" cy="-1319.31" rx="18" ry="18"/>
<text text-anchor="middle" x="834" y="-1318.11" font-family="Times,serif" font-size="4.00">FAS</text>
</g>
<!-- FAS&#45;&gt;pr_cf0fa620&#45;e7a2&#45;4ffe&#45;82f9&#45;9b59614a3b24 -->
<g id="edge51" class="edge"><title>FAS&#45;&gt;pr_cf0fa620&#45;e7a2&#45;4ffe&#45;82f9&#45;9b59614a3b24</title>
<path fill="none" stroke="black" d="M831.266,-1301.04C829.62,-1290.65 827.419,-1276.74 825.201,-1262.73"/>
<polygon fill="black" stroke="black" points="828.612,-1261.89 823.591,-1252.56 821.698,-1262.99 828.612,-1261.89"/>
</g>
<!-- pr_f8787768&#45;f2c5&#45;44ef&#45;9a33&#45;ce6cc0bda86c&#45;&gt;MAPK14 -->
<g id="edge52" class="edge"><title>pr_f8787768&#45;f2c5&#45;44ef&#45;9a33&#45;ce6cc0bda86c&#45;&gt;MAPK14</title>
<path fill="none" stroke="black" d="M497.717,-801.577C497.85,-812.896 497.578,-824.551 496.902,-834.496"/>
<polygon fill="black" stroke="black" points="493.41,-834.249 496.009,-844.52 500.382,-834.87 493.41,-834.249"/>
</g>
<!-- Orf3a -->
<g id="node33" class="node"><title>Orf3a</title>
<ellipse fill="none" stroke="black" cx="549" cy="-861.822" rx="18" ry="18"/>
<text text-anchor="middle" x="549" y="-860.622" font-family="Times,serif" font-size="4.00">Orf3a</text>
</g>
<!-- Orf3a&#45;&gt;pr_f8787768&#45;f2c5&#45;44ef&#45;9a33&#45;ce6cc0bda86c -->
<g id="edge53" class="edge"><title>Orf3a&#45;&gt;pr_f8787768&#45;f2c5&#45;44ef&#45;9a33&#45;ce6cc0bda86c</title>
<path fill="none" stroke="black" d="M540.69,-845.443C535.651,-836.118 528.873,-823.574 521.946,-810.755"/>
<polygon fill="black" stroke="black" points="524.979,-809.006 517.146,-801.873 518.821,-812.334 524.979,-809.006"/>
</g>
<!-- Orf3a&#45;&gt;pr_ab1da5f4&#45;9bcc&#45;4cd8&#45;a573&#45;4f50f0d0e61f -->
<g id="edge54" class="edge"><title>Orf3a&#45;&gt;pr_ab1da5f4&#45;9bcc&#45;4cd8&#45;a573&#45;4f50f0d0e61f</title>
<path fill="none" stroke="black" d="M562.836,-849.739C577.855,-837.709 602.822,-817.71 626.119,-799.049"/>
<polygon fill="black" stroke="black" points="628.322,-801.769 633.938,-792.786 623.945,-796.306 628.322,-801.769"/>
</g>
<!-- CASP3 -->
<g id="node34" class="node"><title>CASP3</title>
<ellipse fill="none" stroke="black" cx="587" cy="-18" rx="18" ry="18"/>
<text text-anchor="middle" x="587" y="-16.8" font-family="Times,serif" font-size="4.00">CASP3</text>
</g>
<!-- CASP3&#45;&gt;pr_e5946803&#45;1f7e&#45;418f&#45;a140&#45;c29226450b88 -->
<g id="edge55" class="edge"><title>CASP3&#45;&gt;pr_e5946803&#45;1f7e&#45;418f&#45;a140&#45;c29226450b88</title>
<path fill="none" stroke="black" d="M592.126,-35.5663C592.996,-43.2382 593.517,-52.8638 593.687,-62.8729"/>
<polygon fill="black" stroke="black" points="590.188,-62.9705 593.742,-72.9515 597.188,-62.9328 590.188,-62.9705"/>
</g>
<!-- pr_e5946803&#45;1f7e&#45;418f&#45;a140&#45;c29226450b88&#45;&gt;CASP3 -->
<g id="edge56" class="edge"><title>pr_e5946803&#45;1f7e&#45;418f&#45;a140&#45;c29226450b88&#45;&gt;CASP3</title>
<path fill="none" stroke="black" d="M580.258,-72.9515C580.201,-63.5971 580.443,-54.1224 580.987,-45.7785"/>
<polygon fill="black" stroke="black" points="584.495,-45.8318 581.874,-35.5663 577.521,-45.2257 584.495,-45.8318"/>
</g>
<!-- pr_e575f79f&#45;cb07&#45;43a8&#45;94e4&#45;cd720b6a13e4&#45;&gt;BAD -->
<g id="edge57" class="edge"><title>pr_e575f79f&#45;cb07&#45;43a8&#45;94e4&#45;cd720b6a13e4&#45;&gt;BAD</title>
<path fill="none" stroke="black" d="M307.255,-1590.84C307.212,-1581.89 307.449,-1572.85 307.967,-1564.84"/>
<polygon fill="black" stroke="black" points="311.472,-1564.92 308.846,-1554.66 304.498,-1564.32 311.472,-1564.92"/>
</g>
<!-- pr_8821401c&#45;d78f&#45;4fd6&#45;8f68&#45;e7c1d5383dbe&#45;&gt;BAX -->
<g id="edge58" class="edge"><title>pr_8821401c&#45;d78f&#45;4fd6&#45;8f68&#45;e7c1d5383dbe&#45;&gt;BAX</title>
<path fill="none" stroke="black" d="M290.283,-922.14C290.149,-910.826 290.419,-899.174 291.093,-889.224"/>
<polygon fill="black" stroke="black" points="294.586,-889.463 291.983,-879.193 287.613,-888.844 294.586,-889.463"/>
</g>
<!-- pr_1694f2f6&#45;3c44&#45;47bc&#45;ac58&#45;bc0b83efca46&#45;&gt;AKT1 -->
<g id="edge59" class="edge"><title>pr_1694f2f6&#45;3c44&#45;47bc&#45;ac58&#45;bc0b83efca46&#45;&gt;AKT1</title>
<path fill="none" stroke="black" d="M461.1,-1689.81C452.091,-1701.78 442.443,-1713.93 434.181,-1723.59"/>
<polygon fill="black" stroke="black" points="431.31,-1721.55 427.327,-1731.37 436.563,-1726.18 431.31,-1721.55"/>
</g>
<!-- M -->
<g id="node39" class="node"><title>M</title>
<ellipse fill="none" stroke="black" cx="491" cy="-1744.01" rx="18" ry="18"/>
<text text-anchor="middle" x="491" y="-1742.81" font-family="Times,serif" font-size="4.00">M</text>
</g>
<!-- M&#45;&gt;pr_1694f2f6&#45;3c44&#45;47bc&#45;ac58&#45;bc0b83efca46 -->
<g id="edge60" class="edge"><title>M&#45;&gt;pr_1694f2f6&#45;3c44&#45;47bc&#45;ac58&#45;bc0b83efca46</title>
<path fill="none" stroke="black" d="M491,-1725.79C491,-1718.48 491,-1709.49 491,-1700.14"/>
<polygon fill="black" stroke="black" points="494.5,-1699.9 491,-1689.9 487.5,-1699.9 494.5,-1699.9"/>
</g>
<!-- pr_7ad66384&#45;075d&#45;45fa&#45;944a&#45;d19841a895b5&#45;&gt;Apoptosome -->
<g id="edge61" class="edge"><title>pr_7ad66384&#45;075d&#45;45fa&#45;944a&#45;d19841a895b5&#45;&gt;Apoptosome</title>
<path fill="none" stroke="black" d="M337.243,-494.33C341.839,-484.612 346.513,-474.725 350.643,-465.993"/>
<polygon fill="black" stroke="black" points="353.929,-467.231 355.039,-456.694 347.601,-464.238 353.929,-467.231"/>
</g>
<!-- APAF1 -->
<g id="node41" class="node"><title>APAF1</title>
<ellipse fill="none" stroke="black" cx="357" cy="-648.487" rx="18" ry="18"/>
<text text-anchor="middle" x="357" y="-647.287" font-family="Times,serif" font-size="4.00">APAF1</text>
</g>
<!-- APAF1&#45;&gt;pr_7ad66384&#45;075d&#45;45fa&#45;944a&#45;d19841a895b5 -->
<g id="edge62" class="edge"><title>APAF1&#45;&gt;pr_7ad66384&#45;075d&#45;45fa&#45;944a&#45;d19841a895b5</title>
<path fill="none" stroke="black" d="M350.281,-631.55C347.062,-623.914 342.986,-614.245 338.738,-604.167"/>
<polygon fill="black" stroke="black" points="341.917,-602.699 334.807,-594.844 335.467,-605.418 341.917,-602.699"/>
</g>
<!-- pr_ab1da5f4&#45;9bcc&#45;4cd8&#45;a573&#45;4f50f0d0e61f&#45;&gt;CASP8 -->
<g id="edge63" class="edge"><title>pr_ab1da5f4&#45;9bcc&#45;4cd8&#45;a573&#45;4f50f0d0e61f&#45;&gt;CASP8</title>
<path fill="none" stroke="black" d="M654.944,-801.966C645.158,-815.817 634.433,-830.134 625.452,-841.178"/>
<polygon fill="black" stroke="black" points="622.702,-839.01 618.967,-848.925 628.07,-843.503 622.702,-839.01"/>
</g>
<!-- CASP7 -->
<g id="node43" class="node"><title>CASP7</title>
<ellipse fill="none" stroke="black" cx="451" cy="-18" rx="18" ry="18"/>
<text text-anchor="middle" x="451" y="-16.8" font-family="Times,serif" font-size="4.00">CASP7</text>
</g>
<!-- CASP7&#45;&gt;pr_99163861&#45;5ea1&#45;4513&#45;ad84&#45;5449e35c7b5c -->
<g id="edge64" class="edge"><title>CASP7&#45;&gt;pr_99163861&#45;5ea1&#45;4513&#45;ad84&#45;5449e35c7b5c</title>
<path fill="none" stroke="black" d="M456.128,-35.5823C456.962,-42.9473 457.475,-52.1105 457.665,-61.6841"/>
<polygon fill="black" stroke="black" points="454.166,-61.7801 457.747,-71.7513 461.166,-61.7231 454.166,-61.7801"/>
</g>
<!-- pr_99163861&#45;5ea1&#45;4513&#45;ad84&#45;5449e35c7b5c&#45;&gt;CASP7 -->
<g id="edge65" class="edge"><title>pr_99163861&#45;5ea1&#45;4513&#45;ad84&#45;5449e35c7b5c&#45;&gt;CASP7</title>
<path fill="none" stroke="black" d="M444.253,-71.7513C444.222,-62.7741 444.467,-53.7354 444.989,-45.7383"/>
<polygon fill="black" stroke="black" points="448.493,-45.8479 445.872,-35.5823 441.519,-45.2415 448.493,-45.8479"/>
</g>
<!-- pr_8daeb974&#45;00e4&#45;4ba7&#45;aa61&#45;5b9c2f12232d&#45;&gt;BID -->
<g id="edge66" class="edge"><title>pr_8daeb974&#45;00e4&#45;4ba7&#45;aa61&#45;5b9c2f12232d&#45;&gt;BID</title>
<path fill="none" stroke="black" d="M142.692,-1021.37C142.887,-1034.59 142.591,-1048.38 141.804,-1059.84"/>
<polygon fill="black" stroke="black" points="138.299,-1059.75 140.901,-1070.02 145.271,-1060.37 138.299,-1059.75"/>
</g>
</g>
</svg>
