<?xml version="1.0" encoding="UTF-8" standalone="no"?>
<!DOCTYPE svg PUBLIC "-//W3C//DTD SVG 1.1//EN"
 "http://www.w3.org/Graphics/SVG/1.1/DTD/svg11.dtd">
<!-- Generated by graphviz version 2.38.0 (20140413.2041)
 -->
<!-- Title: G Pages: 1 -->
<svg width="933pt" height="1785pt"
 viewBox="0.00 0.00 933.00 1785.05" xmlns="http://www.w3.org/2000/svg" xmlns:xlink="http://www.w3.org/1999/xlink">
<g id="graph0" class="graph" transform="scale(1 1) rotate(0) translate(4 1781.05)">
<title>G</title>
<polygon fill="white" stroke="none" points="-4,4 -4,-1781.05 929,-1781.05 929,4 -4,4"/>
<!-- FASLG -->
<g id="node1" class="node"><title>FASLG</title>
<ellipse fill="none" stroke="black" cx="23" cy="-1759.05" rx="18" ry="18"/>
<text text-anchor="middle" x="23" y="-1757.85" font-family="Times,serif" font-size="4.00">FASLG</text>
</g>
<!-- pr_5a8f1745&#45;5f9a&#45;49f6&#45;9aad&#45;6f5a246791cd -->
<g id="node2" class="node"><title>pr_5a8f1745&#45;5f9a&#45;49f6&#45;9aad&#45;6f5a246791cd</title>
<polygon fill="none" stroke="black" points="99,-1705.05 1,-1705.05 1,-1607.05 99,-1607.05 99,-1705.05"/>
<text text-anchor="middle" x="50" y="-1654.85" font-family="Times,serif" font-size="4.00">pr_5a8f1745&#45;5f9a&#45;49f6&#45;9aad&#45;6f5a246791cd</text>
</g>
<!-- FASLG&#45;&gt;pr_5a8f1745&#45;5f9a&#45;49f6&#45;9aad&#45;6f5a246791cd -->
<g id="edge1" class="edge"><title>FASLG&#45;&gt;pr_5a8f1745&#45;5f9a&#45;49f6&#45;9aad&#45;6f5a246791cd</title>
<path fill="none" stroke="black" d="M27.4585,-1741.37C29.4581,-1733.89 31.9474,-1724.58 34.5352,-1714.9"/>
<polygon fill="black" stroke="black" points="37.9399,-1715.71 37.1412,-1705.15 31.1773,-1713.9 37.9399,-1715.71"/>
</g>
<!-- FAS/FASL -->
<g id="node4" class="node"><title>FAS/FASL</title>
<ellipse fill="none" stroke="black" cx="50" cy="-1551.42" rx="18.6233" ry="18.6233"/>
<text text-anchor="middle" x="50" y="-1550.22" font-family="Times,serif" font-size="4.00">FAS/FASL</text>
</g>
<!-- pr_5a8f1745&#45;5f9a&#45;49f6&#45;9aad&#45;6f5a246791cd&#45;&gt;FAS/FASL -->
<g id="edge2" class="edge"><title>pr_5a8f1745&#45;5f9a&#45;49f6&#45;9aad&#45;6f5a246791cd&#45;&gt;FAS/FASL</title>
<path fill="none" stroke="black" d="M50,-1607.04C50,-1597.9 50,-1588.62 50,-1580.36"/>
<polygon fill="black" stroke="black" points="53.5001,-1580.2 50,-1570.2 46.5001,-1580.2 53.5001,-1580.2"/>
</g>
<!-- FAS -->
<g id="node3" class="node"><title>FAS</title>
<ellipse fill="none" stroke="black" cx="77" cy="-1759.05" rx="18" ry="18"/>
<text text-anchor="middle" x="77" y="-1757.85" font-family="Times,serif" font-size="4.00">FAS</text>
</g>
<!-- FAS&#45;&gt;pr_5a8f1745&#45;5f9a&#45;49f6&#45;9aad&#45;6f5a246791cd -->
<g id="edge3" class="edge"><title>FAS&#45;&gt;pr_5a8f1745&#45;5f9a&#45;49f6&#45;9aad&#45;6f5a246791cd</title>
<path fill="none" stroke="black" d="M72.5415,-1741.37C70.5419,-1733.89 68.0526,-1724.58 65.4648,-1714.9"/>
<polygon fill="black" stroke="black" points="68.8227,-1713.9 62.8588,-1705.15 62.0601,-1715.71 68.8227,-1713.9"/>
</g>
<!-- pr_4e9ca413&#45;7402&#45;4eb0&#45;b687&#45;b28ee32fad69 -->
<g id="node6" class="node"><title>pr_4e9ca413&#45;7402&#45;4eb0&#45;b687&#45;b28ee32fad69</title>
<polygon fill="none" stroke="black" points="100,-1495.8 0,-1495.8 0,-1395.8 100,-1395.8 100,-1495.8"/>
<text text-anchor="middle" x="50" y="-1444.6" font-family="Times,serif" font-size="4.00">pr_4e9ca413&#45;7402&#45;4eb0&#45;b687&#45;b28ee32fad69</text>
</g>
<!-- FAS/FASL&#45;&gt;pr_4e9ca413&#45;7402&#45;4eb0&#45;b687&#45;b28ee32fad69 -->
<g id="edge4" class="edge"><title>FAS/FASL&#45;&gt;pr_4e9ca413&#45;7402&#45;4eb0&#45;b687&#45;b28ee32fad69</title>
<path fill="none" stroke="black" d="M50,-1532.85C50,-1525.3 50,-1516.01 50,-1506.35"/>
<polygon fill="black" stroke="black" points="53.5001,-1506.2 50,-1496.2 46.5001,-1506.2 53.5001,-1506.2"/>
</g>
<!-- FADD -->
<g id="node5" class="node"><title>FADD</title>
<ellipse fill="none" stroke="black" cx="50" cy="-1335.41" rx="18" ry="18"/>
<text text-anchor="middle" x="50" y="-1334.21" font-family="Times,serif" font-size="4.00">FADD</text>
</g>
<!-- FADD&#45;&gt;pr_4e9ca413&#45;7402&#45;4eb0&#45;b687&#45;b28ee32fad69 -->
<g id="edge5" class="edge"><title>FADD&#45;&gt;pr_4e9ca413&#45;7402&#45;4eb0&#45;b687&#45;b28ee32fad69</title>
<path fill="none" stroke="black" d="M54.9926,-1352.72C56.02,-1361.69 56.597,-1373.43 56.7234,-1385.51"/>
<polygon fill="black" stroke="black" points="53.2233,-1385.68 56.7236,-1395.68 60.2233,-1385.68 53.2233,-1385.68"/>
</g>
<!-- pr_7b011d9d&#45;1def&#45;403a&#45;aaed&#45;b4e16607291d -->
<g id="node8" class="node"><title>pr_7b011d9d&#45;1def&#45;403a&#45;aaed&#45;b4e16607291d</title>
<polygon fill="none" stroke="black" points="132,-1058.34 32,-1058.34 32,-958.342 132,-958.342 132,-1058.34"/>
<text text-anchor="middle" x="82" y="-1007.14" font-family="Times,serif" font-size="4.00">pr_7b011d9d&#45;1def&#45;403a&#45;aaed&#45;b4e16607291d</text>
</g>
<!-- FADD&#45;&gt;pr_7b011d9d&#45;1def&#45;403a&#45;aaed&#45;b4e16607291d -->
<g id="edge6" class="edge"><title>FADD&#45;&gt;pr_7b011d9d&#45;1def&#45;403a&#45;aaed&#45;b4e16607291d</title>
<path fill="none" stroke="black" d="M51.6754,-1317.39C56.1707,-1271.72 68.6628,-1144.82 76.137,-1068.9"/>
<polygon fill="black" stroke="black" points="79.6604,-1068.83 77.157,-1058.54 72.6941,-1068.15 79.6604,-1068.83"/>
</g>
<!-- pr_c5590a3a&#45;3bf0&#45;427f&#45;a74e&#45;c9588ae9f5c2 -->
<g id="node29" class="node"><title>pr_c5590a3a&#45;3bf0&#45;427f&#45;a74e&#45;c9588ae9f5c2</title>
<polygon fill="none" stroke="black" points="176,-1275.01 78,-1275.01 78,-1177.01 176,-1177.01 176,-1275.01"/>
<text text-anchor="middle" x="127" y="-1224.81" font-family="Times,serif" font-size="4.00">pr_c5590a3a&#45;3bf0&#45;427f&#45;a74e&#45;c9588ae9f5c2</text>
</g>
<!-- FADD&#45;&gt;pr_c5590a3a&#45;3bf0&#45;427f&#45;a74e&#45;c9588ae9f5c2 -->
<g id="edge7" class="edge"><title>FADD&#45;&gt;pr_c5590a3a&#45;3bf0&#45;427f&#45;a74e&#45;c9588ae9f5c2</title>
<path fill="none" stroke="black" d="M60.0664,-1320.37C67.0181,-1310.67 76.7643,-1297.08 86.6723,-1283.26"/>
<polygon fill="black" stroke="black" points="89.5223,-1285.29 92.5047,-1275.12 83.8334,-1281.21 89.5223,-1285.29"/>
</g>
<!-- pr_4e9ca413&#45;7402&#45;4eb0&#45;b687&#45;b28ee32fad69&#45;&gt;FADD -->
<g id="edge8" class="edge"><title>pr_4e9ca413&#45;7402&#45;4eb0&#45;b687&#45;b28ee32fad69&#45;&gt;FADD</title>
<path fill="none" stroke="black" d="M43.2764,-1395.68C43.1581,-1384.32 43.4378,-1372.67 44.1157,-1362.73"/>
<polygon fill="black" stroke="black" points="47.6064,-1362.99 45.0074,-1352.72 40.634,-1362.37 47.6064,-1362.99"/>
</g>
<!-- CASP8 -->
<g id="node7" class="node"><title>CASP8</title>
<ellipse fill="none" stroke="black" cx="82" cy="-904.342" rx="18" ry="18"/>
<text text-anchor="middle" x="82" y="-903.142" font-family="Times,serif" font-size="4.00">CASP8</text>
</g>
<!-- CASP8&#45;&gt;pr_7b011d9d&#45;1def&#45;403a&#45;aaed&#45;b4e16607291d -->
<g id="edge9" class="edge"><title>CASP8&#45;&gt;pr_7b011d9d&#45;1def&#45;403a&#45;aaed&#45;b4e16607291d</title>
<path fill="none" stroke="black" d="M87.1407,-921.957C87.9752,-929.332 88.4851,-938.504 88.6706,-948.075"/>
<polygon fill="black" stroke="black" points="85.171,-948.161 88.7463,-958.134 92.1708,-948.108 85.171,-948.161"/>
</g>
<!-- pr_b9fc4829&#45;42ae&#45;4161&#45;9d02&#45;fb078cfc6c8e -->
<g id="node11" class="node"><title>pr_b9fc4829&#45;42ae&#45;4161&#45;9d02&#45;fb078cfc6c8e</title>
<polygon fill="none" stroke="black" points="131,-849.342 33,-849.342 33,-751.342 131,-751.342 131,-849.342"/>
<text text-anchor="middle" x="82" y="-799.142" font-family="Times,serif" font-size="4.00">pr_b9fc4829&#45;42ae&#45;4161&#45;9d02&#45;fb078cfc6c8e</text>
</g>
<!-- CASP8&#45;&gt;pr_b9fc4829&#45;42ae&#45;4161&#45;9d02&#45;fb078cfc6c8e -->
<g id="edge10" class="edge"><title>CASP8&#45;&gt;pr_b9fc4829&#45;42ae&#45;4161&#45;9d02&#45;fb078cfc6c8e</title>
<path fill="none" stroke="black" d="M82,-886.039C82,-878.53 82,-869.257 82,-859.631"/>
<polygon fill="black" stroke="black" points="85.5001,-859.53 82,-849.53 78.5001,-859.53 85.5001,-859.53"/>
</g>
<!-- pr_5efa7c93&#45;e6a3&#45;493b&#45;9e2e&#45;403ea1b10a6b -->
<g id="node17" class="node"><title>pr_5efa7c93&#45;e6a3&#45;493b&#45;9e2e&#45;403ea1b10a6b</title>
<polygon fill="none" stroke="black" points="232,-402.458 132,-402.458 132,-302.458 232,-302.458 232,-402.458"/>
<text text-anchor="middle" x="182" y="-351.258" font-family="Times,serif" font-size="4.00">pr_5efa7c93&#45;e6a3&#45;493b&#45;9e2e&#45;403ea1b10a6b</text>
</g>
<!-- CASP8&#45;&gt;pr_5efa7c93&#45;e6a3&#45;493b&#45;9e2e&#45;403ea1b10a6b -->
<g id="edge11" class="edge"><title>CASP8&#45;&gt;pr_5efa7c93&#45;e6a3&#45;493b&#45;9e2e&#45;403ea1b10a6b</title>
<path fill="none" stroke="black" d="M67.0854,-894.236C53.3974,-885.002 33.804,-869.381 24,-850.342 -8.12563,-787.953 5,-763.772 5,-693.598 5,-693.598 5,-693.598 5,-583.355 5,-503.984 72.0567,-435.223 123.622,-394.081"/>
<polygon fill="black" stroke="black" points="126.035,-396.637 131.752,-387.718 121.72,-391.125 126.035,-396.637"/>
</g>
<!-- pr_1b3b1741&#45;421b&#45;4ea9&#45;a6a3&#45;843af8b57ca6 -->
<g id="node26" class="node"><title>pr_1b3b1741&#45;421b&#45;4ea9&#45;a6a3&#45;843af8b57ca6</title>
<polygon fill="none" stroke="black" points="249,-850.342 149,-850.342 149,-750.342 249,-750.342 249,-850.342"/>
<text text-anchor="middle" x="199" y="-799.142" font-family="Times,serif" font-size="4.00">pr_1b3b1741&#45;421b&#45;4ea9&#45;a6a3&#45;843af8b57ca6</text>
</g>
<!-- CASP8&#45;&gt;pr_1b3b1741&#45;421b&#45;4ea9&#45;a6a3&#45;843af8b57ca6 -->
<g id="edge12" class="edge"><title>CASP8&#45;&gt;pr_1b3b1741&#45;421b&#45;4ea9&#45;a6a3&#45;843af8b57ca6</title>
<path fill="none" stroke="black" d="M95.4214,-891.641C106.821,-881.703 124.014,-866.714 141.136,-851.788"/>
<polygon fill="black" stroke="black" points="143.738,-854.162 148.976,-844.953 139.138,-848.886 143.738,-854.162"/>
</g>
<!-- pr_7b011d9d&#45;1def&#45;403a&#45;aaed&#45;b4e16607291d&#45;&gt;CASP8 -->
<g id="edge13" class="edge"><title>pr_7b011d9d&#45;1def&#45;403a&#45;aaed&#45;b4e16607291d&#45;&gt;CASP8</title>
<path fill="none" stroke="black" d="M75.2537,-958.134C75.2166,-949.168 75.458,-940.128 75.9778,-932.124"/>
<polygon fill="black" stroke="black" points="79.4824,-932.222 76.8593,-921.957 72.5086,-931.617 79.4824,-932.222"/>
</g>
<!-- TRADD/FADD -->
<g id="node9" class="node"><title>TRADD/FADD</title>
<ellipse fill="none" stroke="black" cx="114" cy="-1117.68" rx="23.1702" ry="23.1702"/>
<text text-anchor="middle" x="114" y="-1116.48" font-family="Times,serif" font-size="4.00">TRADD/FADD</text>
</g>
<!-- TRADD/FADD&#45;&gt;pr_7b011d9d&#45;1def&#45;403a&#45;aaed&#45;b4e16607291d -->
<g id="edge14" class="edge"><title>TRADD/FADD&#45;&gt;pr_7b011d9d&#45;1def&#45;403a&#45;aaed&#45;b4e16607291d</title>
<path fill="none" stroke="black" d="M107.601,-1095.21C105.248,-1087.32 102.456,-1077.96 99.5949,-1068.36"/>
<polygon fill="black" stroke="black" points="102.936,-1067.31 96.7246,-1058.73 96.2276,-1069.31 102.936,-1067.31"/>
</g>
<!-- CASP3 -->
<g id="node10" class="node"><title>CASP3</title>
<ellipse fill="none" stroke="black" cx="82" cy="-692.598" rx="18" ry="18"/>
<text text-anchor="middle" x="82" y="-691.398" font-family="Times,serif" font-size="4.00">CASP3</text>
</g>
<!-- CASP3&#45;&gt;pr_b9fc4829&#45;42ae&#45;4161&#45;9d02&#45;fb078cfc6c8e -->
<g id="edge15" class="edge"><title>CASP3&#45;&gt;pr_b9fc4829&#45;42ae&#45;4161&#45;9d02&#45;fb078cfc6c8e</title>
<path fill="none" stroke="black" d="M87.0369,-709.896C88.0229,-718.476 88.5833,-729.576 88.718,-741.021"/>
<polygon fill="black" stroke="black" points="85.218,-741.115 88.7268,-751.112 92.218,-741.108 85.218,-741.115"/>
</g>
<!-- pr_b9fc4829&#45;42ae&#45;4161&#45;9d02&#45;fb078cfc6c8e&#45;&gt;CASP3 -->
<g id="edge16" class="edge"><title>pr_b9fc4829&#45;42ae&#45;4161&#45;9d02&#45;fb078cfc6c8e&#45;&gt;CASP3</title>
<path fill="none" stroke="black" d="M75.2732,-751.112C75.1666,-740.463 75.4276,-729.561 76.0563,-720.151"/>
<polygon fill="black" stroke="black" points="79.5686,-720.165 76.9631,-709.896 72.5958,-719.549 79.5686,-720.165"/>
</g>
<!-- CASP9 -->
<g id="node12" class="node"><title>CASP9</title>
<ellipse fill="none" stroke="black" cx="286" cy="-904.342" rx="18" ry="18"/>
<text text-anchor="middle" x="286" y="-903.142" font-family="Times,serif" font-size="4.00">CASP9</text>
</g>
<!-- CASP9&#45;&gt;pr_b9fc4829&#45;42ae&#45;4161&#45;9d02&#45;fb078cfc6c8e -->
<g id="edge17" class="edge"><title>CASP9&#45;&gt;pr_b9fc4829&#45;42ae&#45;4161&#45;9d02&#45;fb078cfc6c8e</title>
<path fill="none" stroke="black" d="M268.501,-899.141C240.193,-891.886 183.172,-875.339 140,-850.342 139.907,-850.288 139.815,-850.234 139.722,-850.18"/>
<polygon fill="black" stroke="black" points="141.47,-847.144 131.144,-844.769 137.735,-853.065 141.47,-847.144"/>
</g>
<!-- pr_c5967420&#45;95c3&#45;45d2&#45;82bc&#45;6480cd81ac49 -->
<g id="node13" class="node"><title>pr_c5967420&#45;95c3&#45;45d2&#45;82bc&#45;6480cd81ac49</title>
<polygon fill="none" stroke="black" points="372.5,-634.855 271.5,-634.855 271.5,-533.855 372.5,-533.855 372.5,-634.855"/>
<text text-anchor="middle" x="322" y="-583.155" font-family="Times,serif" font-size="4.00">pr_c5967420&#45;95c3&#45;45d2&#45;82bc&#45;6480cd81ac49</text>
</g>
<!-- CASP9&#45;&gt;pr_c5967420&#45;95c3&#45;45d2&#45;82bc&#45;6480cd81ac49 -->
<g id="edge18" class="edge"><title>CASP9&#45;&gt;pr_c5967420&#45;95c3&#45;45d2&#45;82bc&#45;6480cd81ac49</title>
<path fill="none" stroke="black" d="M284.673,-886.245C285.972,-841.521 299.08,-719.403 309.811,-645.211"/>
<polygon fill="black" stroke="black" points="313.309,-645.477 311.308,-635.073 306.384,-644.454 313.309,-645.477"/>
</g>
<!-- CASP9&#45;&gt;pr_1b3b1741&#45;421b&#45;4ea9&#45;a6a3&#45;843af8b57ca6 -->
<g id="edge19" class="edge"><title>CASP9&#45;&gt;pr_1b3b1741&#45;421b&#45;4ea9&#45;a6a3&#45;843af8b57ca6</title>
<path fill="none" stroke="black" d="M274.626,-890.007C267.523,-881.679 257.838,-870.324 247.77,-858.52"/>
<polygon fill="black" stroke="black" points="250.275,-856.063 241.122,-850.726 244.949,-860.606 250.275,-856.063"/>
</g>
<!-- pr_1648854b&#45;65c3&#45;4f6c&#45;978a&#45;009de8b3be07 -->
<g id="node42" class="node"><title>pr_1648854b&#45;65c3&#45;4f6c&#45;978a&#45;009de8b3be07</title>
<polygon fill="none" stroke="black" points="423,-850.342 323,-850.342 323,-750.342 423,-750.342 423,-850.342"/>
<text text-anchor="middle" x="373" y="-799.142" font-family="Times,serif" font-size="4.00">pr_1648854b&#45;65c3&#45;4f6c&#45;978a&#45;009de8b3be07</text>
</g>
<!-- CASP9&#45;&gt;pr_1648854b&#45;65c3&#45;4f6c&#45;978a&#45;009de8b3be07 -->
<g id="edge20" class="edge"><title>CASP9&#45;&gt;pr_1648854b&#45;65c3&#45;4f6c&#45;978a&#45;009de8b3be07</title>
<path fill="none" stroke="black" d="M297.374,-890.007C304.477,-881.679 314.162,-870.324 324.23,-858.52"/>
<polygon fill="black" stroke="black" points="327.051,-860.606 330.878,-850.726 321.725,-856.063 327.051,-860.606"/>
</g>
<!-- pr_c5967420&#45;95c3&#45;45d2&#45;82bc&#45;6480cd81ac49&#45;&gt;CASP9 -->
<g id="edge21" class="edge"><title>pr_c5967420&#45;95c3&#45;45d2&#45;82bc&#45;6480cd81ac49&#45;&gt;CASP9</title>
<path fill="none" stroke="black" d="M321.442,-634.975C316.299,-703.162 302.315,-823.424 292.971,-876.679"/>
<polygon fill="black" stroke="black" points="289.496,-876.222 291.11,-886.693 296.378,-877.501 289.496,-876.222"/>
</g>
<!-- Apoptosome -->
<g id="node14" class="node"><title>Apoptosome</title>
<ellipse fill="none" stroke="black" cx="359" cy="-692.598" rx="21.9898" ry="21.9898"/>
<text text-anchor="middle" x="359" y="-691.398" font-family="Times,serif" font-size="4.00">Apoptosome</text>
</g>
<!-- Apoptosome&#45;&gt;pr_c5967420&#45;95c3&#45;45d2&#45;82bc&#45;6480cd81ac49 -->
<g id="edge22" class="edge"><title>Apoptosome&#45;&gt;pr_c5967420&#45;95c3&#45;45d2&#45;82bc&#45;6480cd81ac49</title>
<path fill="none" stroke="black" d="M352.041,-671.615C349.34,-663.86 346.093,-654.538 342.747,-644.929"/>
<polygon fill="black" stroke="black" points="345.979,-643.566 339.384,-635.273 339.368,-645.868 345.979,-643.566"/>
</g>
<!-- AKT1 -->
<g id="node15" class="node"><title>AKT1</title>
<ellipse fill="none" stroke="black" cx="528" cy="-904.342" rx="18" ry="18"/>
<text text-anchor="middle" x="528" y="-903.142" font-family="Times,serif" font-size="4.00">AKT1</text>
</g>
<!-- AKT1&#45;&gt;pr_c5967420&#45;95c3&#45;45d2&#45;82bc&#45;6480cd81ac49 -->
<g id="edge23" class="edge"><title>AKT1&#45;&gt;pr_c5967420&#45;95c3&#45;45d2&#45;82bc&#45;6480cd81ac49</title>
<path fill="none" stroke="black" d="M513.588,-893.268C500.638,-883.57 481.882,-867.83 470,-850.342 443.28,-811.015 451.588,-793.665 432,-750.342 415.539,-713.934 411.863,-704.298 390,-670.855 384.041,-661.739 377.334,-652.411 370.514,-643.425"/>
<polygon fill="black" stroke="black" points="373.115,-641.066 364.238,-635.284 367.572,-645.34 373.115,-641.066"/>
</g>
<!-- pr_6d663af3&#45;39f3&#45;4e6f&#45;a938&#45;92ffa8ba5b23 -->
<g id="node27" class="node"><title>pr_6d663af3&#45;39f3&#45;4e6f&#45;a938&#45;92ffa8ba5b23</title>
<polygon fill="none" stroke="black" points="691.5,-848.842 594.5,-848.842 594.5,-751.842 691.5,-751.842 691.5,-848.842"/>
<text text-anchor="middle" x="643" y="-799.142" font-family="Times,serif" font-size="4.00">pr_6d663af3&#45;39f3&#45;4e6f&#45;a938&#45;92ffa8ba5b23</text>
</g>
<!-- AKT1&#45;&gt;pr_6d663af3&#45;39f3&#45;4e6f&#45;a938&#45;92ffa8ba5b23 -->
<g id="edge24" class="edge"><title>AKT1&#45;&gt;pr_6d663af3&#45;39f3&#45;4e6f&#45;a938&#45;92ffa8ba5b23</title>
<path fill="none" stroke="black" d="M538.721,-889.585C550.017,-878.214 568.327,-861.41 586.508,-845.508"/>
<polygon fill="black" stroke="black" points="589.016,-847.966 594.272,-838.767 584.426,-842.681 589.016,-847.966"/>
</g>
<!-- AKT1&#45;&gt;pr_1648854b&#45;65c3&#45;4f6c&#45;978a&#45;009de8b3be07 -->
<g id="edge25" class="edge"><title>AKT1&#45;&gt;pr_1648854b&#45;65c3&#45;4f6c&#45;978a&#45;009de8b3be07</title>
<path fill="none" stroke="black" d="M512.507,-895.098C494.104,-885.131 462.667,-867.543 437,-850.342 435.158,-849.107 433.299,-847.838 431.432,-846.543"/>
<polygon fill="black" stroke="black" points="433.407,-843.653 423.224,-840.727 429.36,-849.364 433.407,-843.653"/>
</g>
<!-- pr_e2930d46&#45;f18a&#45;4ca3&#45;8e83&#45;df707f30d353 -->
<g id="node44" class="node"><title>pr_e2930d46&#45;f18a&#45;4ca3&#45;8e83&#45;df707f30d353</title>
<polygon fill="none" stroke="black" points="577,-849.342 479,-849.342 479,-751.342 577,-751.342 577,-849.342"/>
<text text-anchor="middle" x="528" y="-799.142" font-family="Times,serif" font-size="4.00">pr_e2930d46&#45;f18a&#45;4ca3&#45;8e83&#45;df707f30d353</text>
</g>
<!-- AKT1&#45;&gt;pr_e2930d46&#45;f18a&#45;4ca3&#45;8e83&#45;df707f30d353 -->
<g id="edge26" class="edge"><title>AKT1&#45;&gt;pr_e2930d46&#45;f18a&#45;4ca3&#45;8e83&#45;df707f30d353</title>
<path fill="none" stroke="black" d="M528,-886.039C528,-878.53 528,-869.257 528,-859.631"/>
<polygon fill="black" stroke="black" points="531.5,-859.53 528,-849.53 524.5,-859.53 531.5,-859.53"/>
</g>
<!-- BID -->
<g id="node16" class="node"><title>BID</title>
<ellipse fill="none" stroke="black" cx="182" cy="-236.229" rx="18" ry="18"/>
<text text-anchor="middle" x="182" y="-235.029" font-family="Times,serif" font-size="4.00">BID</text>
</g>
<!-- BID&#45;&gt;pr_5efa7c93&#45;e6a3&#45;493b&#45;9e2e&#45;403ea1b10a6b -->
<g id="edge27" class="edge"><title>BID&#45;&gt;pr_5efa7c93&#45;e6a3&#45;493b&#45;9e2e&#45;403ea1b10a6b</title>
<path fill="none" stroke="black" d="M186.914,-253.717C188.076,-264.01 188.686,-277.953 188.745,-292.081"/>
<polygon fill="black" stroke="black" points="185.244,-292.333 188.691,-302.351 192.244,-292.37 185.244,-292.333"/>
</g>
<!-- pr_fe2660ee&#45;78b3&#45;4d61&#45;90e6&#45;dc7f95f59df8 -->
<g id="node19" class="node"><title>pr_fe2660ee&#45;78b3&#45;4d61&#45;90e6&#45;dc7f95f59df8</title>
<polygon fill="none" stroke="black" points="526,-170 428,-170 428,-72 526,-72 526,-170"/>
<text text-anchor="middle" x="477" y="-119.8" font-family="Times,serif" font-size="4.00">pr_fe2660ee&#45;78b3&#45;4d61&#45;90e6&#45;dc7f95f59df8</text>
</g>
<!-- BID&#45;&gt;pr_fe2660ee&#45;78b3&#45;4d61&#45;90e6&#45;dc7f95f59df8 -->
<g id="edge28" class="edge"><title>BID&#45;&gt;pr_fe2660ee&#45;78b3&#45;4d61&#45;90e6&#45;dc7f95f59df8</title>
<path fill="none" stroke="black" d="M198.706,-228.817C240.264,-212.865 349.89,-170.788 418.494,-144.456"/>
<polygon fill="black" stroke="black" points="419.809,-147.7 427.891,-140.849 417.301,-141.165 419.809,-147.7"/>
</g>
<!-- pr_5efa7c93&#45;e6a3&#45;493b&#45;9e2e&#45;403ea1b10a6b&#45;&gt;BID -->
<g id="edge29" class="edge"><title>pr_5efa7c93&#45;e6a3&#45;493b&#45;9e2e&#45;403ea1b10a6b&#45;&gt;BID</title>
<path fill="none" stroke="black" d="M175.309,-302.351C175.113,-289.154 175.405,-275.375 176.187,-263.908"/>
<polygon fill="black" stroke="black" points="179.693,-263.986 177.086,-253.717 172.72,-263.37 179.693,-263.986"/>
</g>
<!-- BAX -->
<g id="node18" class="node"><title>BAX</title>
<ellipse fill="none" stroke="black" cx="477" cy="-18" rx="18" ry="18"/>
<text text-anchor="middle" x="477" y="-16.8" font-family="Times,serif" font-size="4.00">BAX</text>
</g>
<!-- BAX&#45;&gt;pr_fe2660ee&#45;78b3&#45;4d61&#45;90e6&#45;dc7f95f59df8 -->
<g id="edge30" class="edge"><title>BAX&#45;&gt;pr_fe2660ee&#45;78b3&#45;4d61&#45;90e6&#45;dc7f95f59df8</title>
<path fill="none" stroke="black" d="M482.166,-35.6781C483,-43.0739 483.505,-52.2609 483.68,-61.8239"/>
<polygon fill="black" stroke="black" points="480.18,-61.8887 483.743,-71.8664 487.18,-61.8446 480.18,-61.8887"/>
</g>
<!-- pr_fe2660ee&#45;78b3&#45;4d61&#45;90e6&#45;dc7f95f59df8&#45;&gt;BAX -->
<g id="edge31" class="edge"><title>pr_fe2660ee&#45;78b3&#45;4d61&#45;90e6&#45;dc7f95f59df8&#45;&gt;BAX</title>
<path fill="none" stroke="black" d="M470.257,-71.8664C470.207,-62.9242 470.44,-53.8829 470.955,-45.8672"/>
<polygon fill="black" stroke="black" points="474.462,-45.9418 471.834,-35.6781 467.488,-45.3405 474.462,-45.9418"/>
</g>
<!-- BAD/BBC3/BCL2L11 -->
<g id="node20" class="node"><title>BAD/BBC3/BCL2L11</title>
<ellipse fill="none" stroke="black" cx="477" cy="-236.229" rx="30.4594" ry="30.4594"/>
<text text-anchor="middle" x="477" y="-235.029" font-family="Times,serif" font-size="4.00">BAD/BBC3/BCL2L11</text>
</g>
<!-- BAD/BBC3/BCL2L11&#45;&gt;pr_fe2660ee&#45;78b3&#45;4d61&#45;90e6&#45;dc7f95f59df8 -->
<g id="edge32" class="edge"><title>BAD/BBC3/BCL2L11&#45;&gt;pr_fe2660ee&#45;78b3&#45;4d61&#45;90e6&#45;dc7f95f59df8</title>
<path fill="none" stroke="black" d="M477,-205.775C477,-197.957 477,-189.233 477,-180.451"/>
<polygon fill="black" stroke="black" points="480.5,-180.164 477,-170.164 473.5,-180.164 480.5,-180.164"/>
</g>
<!-- pr_3ed90095&#45;77a0&#45;41ff&#45;ada1&#45;8694b9ddd6be -->
<g id="node34" class="node"><title>pr_3ed90095&#45;77a0&#45;41ff&#45;ada1&#45;8694b9ddd6be</title>
<polygon fill="none" stroke="black" points="526.5,-401.958 427.5,-401.958 427.5,-302.958 526.5,-302.958 526.5,-401.958"/>
<text text-anchor="middle" x="477" y="-351.258" font-family="Times,serif" font-size="4.00">pr_3ed90095&#45;77a0&#45;41ff&#45;ada1&#45;8694b9ddd6be</text>
</g>
<!-- BAD/BBC3/BCL2L11&#45;&gt;pr_3ed90095&#45;77a0&#45;41ff&#45;ada1&#45;8694b9ddd6be -->
<g id="edge33" class="edge"><title>BAD/BBC3/BCL2L11&#45;&gt;pr_3ed90095&#45;77a0&#45;41ff&#45;ada1&#45;8694b9ddd6be</title>
<path fill="none" stroke="black" d="M482.951,-266.036C483.453,-274.202 483.719,-283.401 483.747,-292.66"/>
<polygon fill="black" stroke="black" points="480.247,-292.662 483.686,-302.683 487.247,-292.705 480.247,-292.662"/>
</g>
<!-- BCL2/MCL1/BCL2L1 -->
<g id="node21" class="node"><title>BCL2/MCL1/BCL2L1</title>
<ellipse fill="none" stroke="black" cx="555" cy="-468.156" rx="29.8983" ry="29.8983"/>
<text text-anchor="middle" x="555" y="-466.956" font-family="Times,serif" font-size="4.00">BCL2/MCL1/BCL2L1</text>
</g>
<!-- BCL2/MCL1/BCL2L1&#45;&gt;pr_fe2660ee&#45;78b3&#45;4d61&#45;90e6&#45;dc7f95f59df8 -->
<g id="edge34" class="edge"><title>BCL2/MCL1/BCL2L1&#45;&gt;pr_fe2660ee&#45;78b3&#45;4d61&#45;90e6&#45;dc7f95f59df8</title>
<path fill="none" stroke="black" d="M553.897,-438.204C551.327,-389.221 542.93,-287.385 516,-206 513.107,-197.256 509.556,-188.22 505.786,-179.46"/>
<polygon fill="black" stroke="black" points="508.884,-177.812 501.63,-170.089 502.485,-180.649 508.884,-177.812"/>
</g>
<!-- BCL2/MCL1/BCL2L1&#45;&gt;pr_3ed90095&#45;77a0&#45;41ff&#45;ada1&#45;8694b9ddd6be -->
<g id="edge35" class="edge"><title>BCL2/MCL1/BCL2L1&#45;&gt;pr_3ed90095&#45;77a0&#45;41ff&#45;ada1&#45;8694b9ddd6be</title>
<path fill="none" stroke="black" d="M538.649,-443.321C532.034,-433.68 524.09,-422.1 516.138,-410.508"/>
<polygon fill="black" stroke="black" points="518.909,-408.36 510.365,-402.093 513.136,-412.32 518.909,-408.36"/>
</g>
<!-- pr_93001348&#45;9125&#45;4e7f&#45;b982&#45;b208223727de -->
<g id="node35" class="node"><title>pr_93001348&#45;9125&#45;4e7f&#45;b982&#45;b208223727de</title>
<polygon fill="none" stroke="black" points="605,-634.355 505,-634.355 505,-534.355 605,-534.355 605,-634.355"/>
<text text-anchor="middle" x="555" y="-583.155" font-family="Times,serif" font-size="4.00">pr_93001348&#45;9125&#45;4e7f&#45;b982&#45;b208223727de</text>
</g>
<!-- BCL2/MCL1/BCL2L1&#45;&gt;pr_93001348&#45;9125&#45;4e7f&#45;b982&#45;b208223727de -->
<g id="edge36" class="edge"><title>BCL2/MCL1/BCL2L1&#45;&gt;pr_93001348&#45;9125&#45;4e7f&#45;b982&#45;b208223727de</title>
<path fill="none" stroke="black" d="M560.92,-497.458C561.435,-505.629 561.71,-514.866 561.746,-524.176"/>
<polygon fill="black" stroke="black" points="558.246,-524.242 561.691,-534.261 565.246,-524.281 558.246,-524.242"/>
</g>
<!-- CYCS -->
<g id="node22" class="node"><title>CYCS</title>
<ellipse fill="none" stroke="black" cx="758" cy="-904.342" rx="18" ry="18"/>
<text text-anchor="middle" x="758" y="-903.142" font-family="Times,serif" font-size="4.00">CYCS</text>
</g>
<!-- pr_1b2e43a0&#45;cce1&#45;4feb&#45;a0fe&#45;b3a079f73b64 -->
<g id="node23" class="node"><title>pr_1b2e43a0&#45;cce1&#45;4feb&#45;a0fe&#45;b3a079f73b64</title>
<polygon fill="none" stroke="black" points="807,-849.342 709,-849.342 709,-751.342 807,-751.342 807,-849.342"/>
<text text-anchor="middle" x="758" y="-799.142" font-family="Times,serif" font-size="4.00">pr_1b2e43a0&#45;cce1&#45;4feb&#45;a0fe&#45;b3a079f73b64</text>
</g>
<!-- CYCS&#45;&gt;pr_1b2e43a0&#45;cce1&#45;4feb&#45;a0fe&#45;b3a079f73b64 -->
<g id="edge37" class="edge"><title>CYCS&#45;&gt;pr_1b2e43a0&#45;cce1&#45;4feb&#45;a0fe&#45;b3a079f73b64</title>
<path fill="none" stroke="black" d="M752.885,-886.954C752.004,-879.267 751.479,-869.593 751.31,-859.539"/>
<polygon fill="black" stroke="black" points="754.81,-859.4 751.26,-849.418 747.81,-859.435 754.81,-859.4"/>
</g>
<!-- CYCS&#45;&gt;pr_1648854b&#45;65c3&#45;4f6c&#45;978a&#45;009de8b3be07 -->
<g id="edge38" class="edge"><title>CYCS&#45;&gt;pr_1648854b&#45;65c3&#45;4f6c&#45;978a&#45;009de8b3be07</title>
<path fill="none" stroke="black" d="M740.481,-899.889C722.731,-896.407 694.474,-890.908 670,-886.342 581.215,-869.776 555.649,-879.003 470,-850.342 457.453,-846.143 444.502,-840.568 432.309,-834.685"/>
<polygon fill="black" stroke="black" points="433.666,-831.452 423.152,-830.145 430.556,-837.723 433.666,-831.452"/>
</g>
<!-- pr_1b2e43a0&#45;cce1&#45;4feb&#45;a0fe&#45;b3a079f73b64&#45;&gt;CYCS -->
<g id="edge39" class="edge"><title>pr_1b2e43a0&#45;cce1&#45;4feb&#45;a0fe&#45;b3a079f73b64&#45;&gt;CYCS</title>
<path fill="none" stroke="black" d="M764.74,-849.418C764.804,-858.914 764.556,-868.546 763.994,-876.991"/>
<polygon fill="black" stroke="black" points="760.507,-876.685 763.115,-886.954 767.48,-877.3 760.507,-876.685"/>
</g>
<!-- MAPK14 -->
<g id="node24" class="node"><title>MAPK14</title>
<ellipse fill="none" stroke="black" cx="848" cy="-904.342" rx="18" ry="18"/>
<text text-anchor="middle" x="848" y="-903.142" font-family="Times,serif" font-size="4.00">MAPK14</text>
</g>
<!-- MAPK14&#45;&gt;pr_1b2e43a0&#45;cce1&#45;4feb&#45;a0fe&#45;b3a079f73b64 -->
<g id="edge40" class="edge"><title>MAPK14&#45;&gt;pr_1b2e43a0&#45;cce1&#45;4feb&#45;a0fe&#45;b3a079f73b64</title>
<path fill="none" stroke="black" d="M836.234,-890.007C828.658,-881.421 818.243,-869.617 807.482,-857.421"/>
<polygon fill="black" stroke="black" points="810,-854.985 800.76,-849.803 804.751,-859.617 810,-854.985"/>
</g>
<!-- pr_b446b3a3&#45;8827&#45;427d&#45;9b28&#45;5a4fa598052a -->
<g id="node32" class="node"><title>pr_b446b3a3&#45;8827&#45;427d&#45;9b28&#45;5a4fa598052a</title>
<polygon fill="none" stroke="black" points="925,-850.342 825,-850.342 825,-750.342 925,-750.342 925,-850.342"/>
<text text-anchor="middle" x="875" y="-799.142" font-family="Times,serif" font-size="4.00">pr_b446b3a3&#45;8827&#45;427d&#45;9b28&#45;5a4fa598052a</text>
</g>
<!-- MAPK14&#45;&gt;pr_b446b3a3&#45;8827&#45;427d&#45;9b28&#45;5a4fa598052a -->
<g id="edge41" class="edge"><title>MAPK14&#45;&gt;pr_b446b3a3&#45;8827&#45;427d&#45;9b28&#45;5a4fa598052a</title>
<path fill="none" stroke="black" d="M847.363,-886.039C848.507,-878.699 850.41,-869.673 852.722,-860.279"/>
<polygon fill="black" stroke="black" points="856.159,-860.968 855.265,-850.411 849.38,-859.221 856.159,-860.968"/>
</g>
<!-- CASP7 -->
<g id="node25" class="node"><title>CASP7</title>
<ellipse fill="none" stroke="black" cx="199" cy="-692.598" rx="18" ry="18"/>
<text text-anchor="middle" x="199" y="-691.398" font-family="Times,serif" font-size="4.00">CASP7</text>
</g>
<!-- CASP7&#45;&gt;pr_1b3b1741&#45;421b&#45;4ea9&#45;a6a3&#45;843af8b57ca6 -->
<g id="edge42" class="edge"><title>CASP7&#45;&gt;pr_1b3b1741&#45;421b&#45;4ea9&#45;a6a3&#45;843af8b57ca6</title>
<path fill="none" stroke="black" d="M204.055,-710.055C205.001,-718.361 205.551,-728.999 205.705,-740.016"/>
<polygon fill="black" stroke="black" points="202.206,-740.195 205.735,-750.185 209.205,-740.174 202.206,-740.195"/>
</g>
<!-- pr_1b3b1741&#45;421b&#45;4ea9&#45;a6a3&#45;843af8b57ca6&#45;&gt;CASP7 -->
<g id="edge43" class="edge"><title>pr_1b3b1741&#45;421b&#45;4ea9&#45;a6a3&#45;843af8b57ca6&#45;&gt;CASP7</title>
<path fill="none" stroke="black" d="M192.265,-750.185C192.182,-739.796 192.448,-729.214 193.063,-720.056"/>
<polygon fill="black" stroke="black" points="196.553,-720.324 193.945,-710.055 189.58,-719.709 196.553,-720.324"/>
</g>
<!-- pr_6d663af3&#45;39f3&#45;4e6f&#45;a938&#45;92ffa8ba5b23&#45;&gt;AKT1 -->
<g id="edge44" class="edge"><title>pr_6d663af3&#45;39f3&#45;4e6f&#45;a938&#45;92ffa8ba5b23&#45;&gt;AKT1</title>
<path fill="none" stroke="black" d="M596.087,-848.926C580.436,-862.906 563.717,-877.231 550.699,-887.671"/>
<polygon fill="black" stroke="black" points="548.432,-885.001 542.726,-893.929 552.753,-890.508 548.432,-885.001"/>
</g>
<!-- M -->
<g id="node28" class="node"><title>M</title>
<ellipse fill="none" stroke="black" cx="643" cy="-904.342" rx="18" ry="18"/>
<text text-anchor="middle" x="643" y="-903.142" font-family="Times,serif" font-size="4.00">M</text>
</g>
<!-- M&#45;&gt;pr_6d663af3&#45;39f3&#45;4e6f&#45;a938&#45;92ffa8ba5b23 -->
<g id="edge45" class="edge"><title>M&#45;&gt;pr_6d663af3&#45;39f3&#45;4e6f&#45;a938&#45;92ffa8ba5b23</title>
<path fill="none" stroke="black" d="M643,-886.039C643,-878.446 643,-869.049 643,-859.306"/>
<polygon fill="black" stroke="black" points="646.5,-859.089 643,-849.089 639.5,-859.089 646.5,-859.089"/>
</g>
<!-- pr_c5590a3a&#45;3bf0&#45;427f&#45;a74e&#45;c9588ae9f5c2&#45;&gt;TRADD/FADD -->
<g id="edge46" class="edge"><title>pr_c5590a3a&#45;3bf0&#45;427f&#45;a74e&#45;c9588ae9f5c2&#45;&gt;TRADD/FADD</title>
<path fill="none" stroke="black" d="M121.109,-1176.82C120.044,-1168.11 118.957,-1159.22 117.963,-1151.09"/>
<polygon fill="black" stroke="black" points="121.409,-1150.44 116.721,-1140.94 114.461,-1151.29 121.409,-1150.44"/>
</g>
<!-- TRADD -->
<g id="node30" class="node"><title>TRADD</title>
<ellipse fill="none" stroke="black" cx="187" cy="-1335.41" rx="18" ry="18"/>
<text text-anchor="middle" x="187" y="-1334.21" font-family="Times,serif" font-size="4.00">TRADD</text>
</g>
<!-- TRADD&#45;&gt;pr_c5590a3a&#45;3bf0&#45;427f&#45;a74e&#45;c9588ae9f5c2 -->
<g id="edge47" class="edge"><title>TRADD&#45;&gt;pr_c5590a3a&#45;3bf0&#45;427f&#45;a74e&#45;c9588ae9f5c2</title>
<path fill="none" stroke="black" d="M178.403,-1319.02C173.191,-1309.69 166.179,-1297.14 159.013,-1284.31"/>
<polygon fill="black" stroke="black" points="161.98,-1282.45 154.048,-1275.42 155.869,-1285.86 161.98,-1282.45"/>
</g>
<!-- TNF/TNFRSF1A -->
<g id="node31" class="node"><title>TNF/TNFRSF1A</title>
<ellipse fill="none" stroke="black" cx="127" cy="-1335.41" rx="24.2908" ry="24.2908"/>
<text text-anchor="middle" x="127" y="-1334.21" font-family="Times,serif" font-size="4.00">TNF/TNFRSF1A</text>
</g>
<!-- TNF/TNFRSF1A&#45;&gt;pr_c5590a3a&#45;3bf0&#45;427f&#45;a74e&#45;c9588ae9f5c2 -->
<g id="edge48" class="edge"><title>TNF/TNFRSF1A&#45;&gt;pr_c5590a3a&#45;3bf0&#45;427f&#45;a74e&#45;c9588ae9f5c2</title>
<path fill="none" stroke="black" d="M127,-1310.84C127,-1303.21 127,-1294.39 127,-1285.38"/>
<polygon fill="black" stroke="black" points="130.5,-1285.2 127,-1275.2 123.5,-1285.2 130.5,-1285.2"/>
</g>
<!-- pr_b446b3a3&#45;8827&#45;427d&#45;9b28&#45;5a4fa598052a&#45;&gt;MAPK14 -->
<g id="edge49" class="edge"><title>pr_b446b3a3&#45;8827&#45;427d&#45;9b28&#45;5a4fa598052a&#45;&gt;MAPK14</title>
<path fill="none" stroke="black" d="M868.715,-850.572C866.171,-860.334 863.273,-870.183 860.403,-878.685"/>
<polygon fill="black" stroke="black" points="857.038,-877.697 856.939,-888.291 863.623,-880.071 857.038,-877.697"/>
</g>
<!-- Orf3a -->
<g id="node33" class="node"><title>Orf3a</title>
<ellipse fill="none" stroke="black" cx="902" cy="-904.342" rx="18" ry="18"/>
<text text-anchor="middle" x="902" y="-903.142" font-family="Times,serif" font-size="4.00">Orf3a</text>
</g>
<!-- Orf3a&#45;&gt;pr_b446b3a3&#45;8827&#45;427d&#45;9b28&#45;5a4fa598052a -->
<g id="edge50" class="edge"><title>Orf3a&#45;&gt;pr_b446b3a3&#45;8827&#45;427d&#45;9b28&#45;5a4fa598052a</title>
<path fill="none" stroke="black" d="M897.541,-886.498C895.564,-879.029 893.108,-869.751 890.552,-860.094"/>
<polygon fill="black" stroke="black" points="893.919,-859.134 887.976,-850.362 887.152,-860.925 893.919,-859.134"/>
</g>
<!-- pr_3ed90095&#45;77a0&#45;41ff&#45;ada1&#45;8694b9ddd6be&#45;&gt;BAD/BBC3/BCL2L11 -->
<g id="edge51" class="edge"><title>pr_3ed90095&#45;77a0&#45;41ff&#45;ada1&#45;8694b9ddd6be&#45;&gt;BAD/BBC3/BCL2L11</title>
<path fill="none" stroke="black" d="M470.314,-302.683C470.176,-293.802 470.26,-284.647 470.566,-276.1"/>
<polygon fill="black" stroke="black" points="474.065,-276.193 471.049,-266.036 467.073,-275.857 474.065,-276.193"/>
</g>
<!-- pr_93001348&#45;9125&#45;4e7f&#45;b982&#45;b208223727de&#45;&gt;BCL2/MCL1/BCL2L1 -->
<g id="edge52" class="edge"><title>pr_93001348&#45;9125&#45;4e7f&#45;b982&#45;b208223727de&#45;&gt;BCL2/MCL1/BCL2L1</title>
<path fill="none" stroke="black" d="M548.309,-534.261C548.176,-525.322 548.267,-516.115 548.583,-507.542"/>
<polygon fill="black" stroke="black" points="552.083,-507.618 549.08,-497.458 545.092,-507.274 552.083,-507.618"/>
</g>
<!-- Orf7a -->
<g id="node36" class="node"><title>Orf7a</title>
<ellipse fill="none" stroke="black" cx="582" cy="-692.598" rx="18" ry="18"/>
<text text-anchor="middle" x="582" y="-691.398" font-family="Times,serif" font-size="4.00">Orf7a</text>
</g>
<!-- Orf7a&#45;&gt;pr_93001348&#45;9125&#45;4e7f&#45;b982&#45;b208223727de -->
<g id="edge53" class="edge"><title>Orf7a&#45;&gt;pr_93001348&#45;9125&#45;4e7f&#45;b982&#45;b208223727de</title>
<path fill="none" stroke="black" d="M577.781,-674.998C575.625,-666.511 572.856,-655.615 569.996,-644.363"/>
<polygon fill="black" stroke="black" points="573.328,-643.263 567.473,-634.433 566.544,-644.987 573.328,-643.263"/>
</g>
<!-- E -->
<g id="node37" class="node"><title>E</title>
<ellipse fill="none" stroke="black" cx="636" cy="-692.598" rx="18" ry="18"/>
<text text-anchor="middle" x="636" y="-691.398" font-family="Times,serif" font-size="4.00">E</text>
</g>
<!-- E&#45;&gt;pr_93001348&#45;9125&#45;4e7f&#45;b982&#45;b208223727de -->
<g id="edge54" class="edge"><title>E&#45;&gt;pr_93001348&#45;9125&#45;4e7f&#45;b982&#45;b208223727de</title>
<path fill="none" stroke="black" d="M625.411,-677.709C618.379,-668.486 608.63,-655.698 598.625,-642.575"/>
<polygon fill="black" stroke="black" points="601.231,-640.22 592.384,-634.39 595.664,-644.464 601.231,-640.22"/>
</g>
<!-- BAD -->
<g id="node38" class="node"><title>BAD</title>
<ellipse fill="none" stroke="black" cx="528" cy="-692.598" rx="18" ry="18"/>
<text text-anchor="middle" x="528" y="-691.398" font-family="Times,serif" font-size="4.00">BAD</text>
</g>
<!-- BAD&#45;&gt;pr_93001348&#45;9125&#45;4e7f&#45;b982&#45;b208223727de -->
<g id="edge55" class="edge"><title>BAD&#45;&gt;pr_93001348&#45;9125&#45;4e7f&#45;b982&#45;b208223727de</title>
<path fill="none" stroke="black" d="M532.219,-674.998C534.375,-666.511 537.144,-655.615 540.004,-644.363"/>
<polygon fill="black" stroke="black" points="543.456,-644.987 542.527,-634.433 536.672,-643.263 543.456,-644.987"/>
</g>
<!-- BAD&#45;&gt;pr_e2930d46&#45;f18a&#45;4ca3&#45;8e83&#45;df707f30d353 -->
<g id="edge56" class="edge"><title>BAD&#45;&gt;pr_e2930d46&#45;f18a&#45;4ca3&#45;8e83&#45;df707f30d353</title>
<path fill="none" stroke="black" d="M533.037,-709.896C534.023,-718.476 534.583,-729.576 534.718,-741.021"/>
<polygon fill="black" stroke="black" points="531.218,-741.115 534.727,-751.112 538.218,-741.108 531.218,-741.115"/>
</g>
<!-- TNFRSF1A -->
<g id="node39" class="node"><title>TNFRSF1A</title>
<ellipse fill="none" stroke="black" cx="196" cy="-1551.42" rx="19.7452" ry="19.7452"/>
<text text-anchor="middle" x="196" y="-1550.22" font-family="Times,serif" font-size="4.00">TNFRSF1A</text>
</g>
<!-- pr_baba01e5&#45;f7c1&#45;45d9&#45;9306&#45;0b328397446e -->
<g id="node40" class="node"><title>pr_baba01e5&#45;f7c1&#45;45d9&#45;9306&#45;0b328397446e</title>
<polygon fill="none" stroke="black" points="218,-1495.8 118,-1495.8 118,-1395.8 218,-1395.8 218,-1495.8"/>
<text text-anchor="middle" x="168" y="-1444.6" font-family="Times,serif" font-size="4.00">pr_baba01e5&#45;f7c1&#45;45d9&#45;9306&#45;0b328397446e</text>
</g>
<!-- TNFRSF1A&#45;&gt;pr_baba01e5&#45;f7c1&#45;45d9&#45;9306&#45;0b328397446e -->
<g id="edge57" class="edge"><title>TNFRSF1A&#45;&gt;pr_baba01e5&#45;f7c1&#45;45d9&#45;9306&#45;0b328397446e</title>
<path fill="none" stroke="black" d="M191.123,-1532.37C189.055,-1524.72 186.516,-1515.32 183.887,-1505.59"/>
<polygon fill="black" stroke="black" points="187.229,-1504.55 181.242,-1495.81 180.471,-1506.37 187.229,-1504.55"/>
</g>
<!-- pr_baba01e5&#45;f7c1&#45;45d9&#45;9306&#45;0b328397446e&#45;&gt;TNF/TNFRSF1A -->
<g id="edge58" class="edge"><title>pr_baba01e5&#45;f7c1&#45;45d9&#45;9306&#45;0b328397446e&#45;&gt;TNF/TNFRSF1A</title>
<path fill="none" stroke="black" d="M149.419,-1395.68C145.886,-1386.34 142.277,-1376.79 139.015,-1368.17"/>
<polygon fill="black" stroke="black" points="142.183,-1366.65 135.371,-1358.54 135.635,-1369.13 142.183,-1366.65"/>
</g>
<!-- TNF -->
<g id="node41" class="node"><title>TNF</title>
<ellipse fill="none" stroke="black" cx="140" cy="-1551.42" rx="18" ry="18"/>
<text text-anchor="middle" x="140" y="-1550.22" font-family="Times,serif" font-size="4.00">TNF</text>
</g>
<!-- TNF&#45;&gt;pr_baba01e5&#45;f7c1&#45;45d9&#45;9306&#45;0b328397446e -->
<g id="edge59" class="edge"><title>TNF&#45;&gt;pr_baba01e5&#45;f7c1&#45;45d9&#45;9306&#45;0b328397446e</title>
<path fill="none" stroke="black" d="M144.499,-1533.77C146.607,-1525.97 149.261,-1516.15 152.018,-1505.95"/>
<polygon fill="black" stroke="black" points="155.451,-1506.66 154.68,-1496.09 148.693,-1504.84 155.451,-1506.66"/>
</g>
<!-- pr_1648854b&#45;65c3&#45;4f6c&#45;978a&#45;009de8b3be07&#45;&gt;Apoptosome -->
<g id="edge60" class="edge"><title>pr_1648854b&#45;65c3&#45;4f6c&#45;978a&#45;009de8b3be07&#45;&gt;Apoptosome</title>
<path fill="none" stroke="black" d="M366.492,-750.185C365.33,-741.409 364.15,-732.497 363.081,-724.421"/>
<polygon fill="black" stroke="black" points="366.532,-723.822 361.75,-714.367 359.593,-724.74 366.532,-723.822"/>
</g>
<!-- APAF1 -->
<g id="node43" class="node"><title>APAF1</title>
<ellipse fill="none" stroke="black" cx="373" cy="-904.342" rx="18" ry="18"/>
<text text-anchor="middle" x="373" y="-903.142" font-family="Times,serif" font-size="4.00">APAF1</text>
</g>
<!-- APAF1&#45;&gt;pr_1648854b&#45;65c3&#45;4f6c&#45;978a&#45;009de8b3be07 -->
<g id="edge61" class="edge"><title>APAF1&#45;&gt;pr_1648854b&#45;65c3&#45;4f6c&#45;978a&#45;009de8b3be07</title>
<path fill="none" stroke="black" d="M373,-886.039C373,-878.776 373,-869.863 373,-860.576"/>
<polygon fill="black" stroke="black" points="376.5,-860.411 373,-850.411 369.5,-860.411 376.5,-860.411"/>
</g>
<!-- pr_e2930d46&#45;f18a&#45;4ca3&#45;8e83&#45;df707f30d353&#45;&gt;BAD -->
<g id="edge62" class="edge"><title>pr_e2930d46&#45;f18a&#45;4ca3&#45;8e83&#45;df707f30d353&#45;&gt;BAD</title>
<path fill="none" stroke="black" d="M521.273,-751.112C521.167,-740.463 521.428,-729.561 522.056,-720.151"/>
<polygon fill="black" stroke="black" points="525.569,-720.165 522.963,-709.896 518.596,-719.549 525.569,-720.165"/>
</g>
</g>
</svg>
