<?xml version="1.0" encoding="UTF-8" standalone="no"?>
<!DOCTYPE svg PUBLIC "-//W3C//DTD SVG 1.1//EN"
 "http://www.w3.org/Graphics/SVG/1.1/DTD/svg11.dtd">
<!-- Generated by graphviz version 2.38.0 (20140413.2041)
 -->
<!-- Title: G Pages: 1 -->
<svg width="734pt" height="1340pt"
 viewBox="0.00 0.00 733.50 1340.16" xmlns="http://www.w3.org/2000/svg" xmlns:xlink="http://www.w3.org/1999/xlink">
<g id="graph0" class="graph" transform="scale(1 1) rotate(0) translate(4 1336.16)">
<title>G</title>
<polygon fill="white" stroke="none" points="-4,4 -4,-1336.16 729.5,-1336.16 729.5,4 -4,4"/>
<!-- FASL -->
<g id="node1" class="node"><title>FASL</title>
<ellipse fill="none" stroke="black" cx="202" cy="-1314.16" rx="18" ry="18"/>
<text text-anchor="middle" x="202" y="-1312.96" font-family="Times,serif" font-size="4.00">FASL</text>
</g>
<!-- pr_8e969b81&#45;d38d&#45;4578&#45;863d&#45;3ca7b501e17f -->
<g id="node2" class="node"><title>pr_8e969b81&#45;d38d&#45;4578&#45;863d&#45;3ca7b501e17f</title>
<polygon fill="none" stroke="black" points="279,-1260.16 179,-1260.16 179,-1160.16 279,-1160.16 279,-1260.16"/>
<text text-anchor="middle" x="229" y="-1208.96" font-family="Times,serif" font-size="4.00">pr_8e969b81&#45;d38d&#45;4578&#45;863d&#45;3ca7b501e17f</text>
</g>
<!-- FASL&#45;&gt;pr_8e969b81&#45;d38d&#45;4578&#45;863d&#45;3ca7b501e17f -->
<g id="edge1" class="edge"><title>FASL&#45;&gt;pr_8e969b81&#45;d38d&#45;4578&#45;863d&#45;3ca7b501e17f</title>
<path fill="none" stroke="black" d="M206.459,-1296.32C208.436,-1288.85 210.892,-1279.57 213.448,-1269.92"/>
<polygon fill="black" stroke="black" points="216.848,-1270.75 216.024,-1260.18 210.081,-1268.96 216.848,-1270.75"/>
</g>
<!-- FAS/FASL -->
<g id="node4" class="node"><title>FAS/FASL</title>
<ellipse fill="none" stroke="black" cx="229" cy="-1105.6" rx="18.6233" ry="18.6233"/>
<text text-anchor="middle" x="229" y="-1104.4" font-family="Times,serif" font-size="4.00">FAS/FASL</text>
</g>
<!-- pr_8e969b81&#45;d38d&#45;4578&#45;863d&#45;3ca7b501e17f&#45;&gt;FAS/FASL -->
<g id="edge2" class="edge"><title>pr_8e969b81&#45;d38d&#45;4578&#45;863d&#45;3ca7b501e17f&#45;&gt;FAS/FASL</title>
<path fill="none" stroke="black" d="M229,-1159.99C229,-1151.22 229,-1142.37 229,-1134.47"/>
<polygon fill="black" stroke="black" points="232.5,-1134.38 229,-1124.38 225.5,-1134.38 232.5,-1134.38"/>
</g>
<!-- FAS -->
<g id="node3" class="node"><title>FAS</title>
<ellipse fill="none" stroke="black" cx="256" cy="-1314.16" rx="18" ry="18"/>
<text text-anchor="middle" x="256" y="-1312.96" font-family="Times,serif" font-size="4.00">FAS</text>
</g>
<!-- FAS&#45;&gt;pr_8e969b81&#45;d38d&#45;4578&#45;863d&#45;3ca7b501e17f -->
<g id="edge3" class="edge"><title>FAS&#45;&gt;pr_8e969b81&#45;d38d&#45;4578&#45;863d&#45;3ca7b501e17f</title>
<path fill="none" stroke="black" d="M251.541,-1296.32C249.564,-1288.85 247.108,-1279.57 244.552,-1269.92"/>
<polygon fill="black" stroke="black" points="247.919,-1268.96 241.976,-1260.18 241.152,-1270.75 247.919,-1268.96"/>
</g>
<!-- pr_1b76f56b&#45;88f5&#45;44c8&#45;a385&#45;4b34e2dfced8 -->
<g id="node10" class="node"><title>pr_1b76f56b&#45;88f5&#45;44c8&#45;a385&#45;4b34e2dfced8</title>
<polygon fill="none" stroke="black" points="278,-1051.04 180,-1051.04 180,-953.04 278,-953.04 278,-1051.04"/>
<text text-anchor="middle" x="229" y="-1000.84" font-family="Times,serif" font-size="4.00">pr_1b76f56b&#45;88f5&#45;44c8&#45;a385&#45;4b34e2dfced8</text>
</g>
<!-- FAS/FASL&#45;&gt;pr_1b76f56b&#45;88f5&#45;44c8&#45;a385&#45;4b34e2dfced8 -->
<g id="edge4" class="edge"><title>FAS/FASL&#45;&gt;pr_1b76f56b&#45;88f5&#45;44c8&#45;a385&#45;4b34e2dfced8</title>
<path fill="none" stroke="black" d="M229,-1086.91C229,-1079.57 229,-1070.58 229,-1061.26"/>
<polygon fill="black" stroke="black" points="232.5,-1061.07 229,-1051.07 225.5,-1061.07 232.5,-1061.07"/>
</g>
<!-- TNFA -->
<g id="node5" class="node"><title>TNFA</title>
<ellipse fill="none" stroke="black" cx="140" cy="-1105.6" rx="18" ry="18"/>
<text text-anchor="middle" x="140" y="-1104.4" font-family="Times,serif" font-size="4.00">TNFA</text>
</g>
<!-- pr_11f59a1a&#45;129c&#45;48f9&#45;92e9&#45;c17bde8f12d3 -->
<g id="node6" class="node"><title>pr_11f59a1a&#45;129c&#45;48f9&#45;92e9&#45;c17bde8f12d3</title>
<polygon fill="none" stroke="black" points="162,-1051.04 64,-1051.04 64,-953.04 162,-953.04 162,-1051.04"/>
<text text-anchor="middle" x="113" y="-1000.84" font-family="Times,serif" font-size="4.00">pr_11f59a1a&#45;129c&#45;48f9&#45;92e9&#45;c17bde8f12d3</text>
</g>
<!-- TNFA&#45;&gt;pr_11f59a1a&#45;129c&#45;48f9&#45;92e9&#45;c17bde8f12d3 -->
<g id="edge5" class="edge"><title>TNFA&#45;&gt;pr_11f59a1a&#45;129c&#45;48f9&#45;92e9&#45;c17bde8f12d3</title>
<path fill="none" stroke="black" d="M135.541,-1087.83C133.542,-1080.31 131.053,-1070.95 128.465,-1061.21"/>
<polygon fill="black" stroke="black" points="131.811,-1060.17 125.859,-1051.41 125.046,-1061.97 131.811,-1060.17"/>
</g>
<!-- TNFA/TNFR1 -->
<g id="node8" class="node"><title>TNFA/TNFR1</title>
<ellipse fill="none" stroke="black" cx="152" cy="-895.297" rx="21.9898" ry="21.9898"/>
<text text-anchor="middle" x="152" y="-894.097" font-family="Times,serif" font-size="4.00">TNFA/TNFR1</text>
</g>
<!-- pr_11f59a1a&#45;129c&#45;48f9&#45;92e9&#45;c17bde8f12d3&#45;&gt;TNFA/TNFR1 -->
<g id="edge6" class="edge"><title>pr_11f59a1a&#45;129c&#45;48f9&#45;92e9&#45;c17bde8f12d3&#45;&gt;TNFA/TNFR1</title>
<path fill="none" stroke="black" d="M130.902,-952.96C134.414,-943.529 137.995,-933.91 141.186,-925.339"/>
<polygon fill="black" stroke="black" points="144.516,-926.426 144.726,-915.833 137.956,-923.983 144.516,-926.426"/>
</g>
<!-- TNFR1 -->
<g id="node7" class="node"><title>TNFR1</title>
<ellipse fill="none" stroke="black" cx="86" cy="-1105.6" rx="18" ry="18"/>
<text text-anchor="middle" x="86" y="-1104.4" font-family="Times,serif" font-size="4.00">TNFR1</text>
</g>
<!-- TNFR1&#45;&gt;pr_11f59a1a&#45;129c&#45;48f9&#45;92e9&#45;c17bde8f12d3 -->
<g id="edge7" class="edge"><title>TNFR1&#45;&gt;pr_11f59a1a&#45;129c&#45;48f9&#45;92e9&#45;c17bde8f12d3</title>
<path fill="none" stroke="black" d="M90.4585,-1087.83C92.4581,-1080.31 94.9474,-1070.95 97.5352,-1061.21"/>
<polygon fill="black" stroke="black" points="100.954,-1061.97 100.141,-1051.41 94.1894,-1060.17 100.954,-1061.97"/>
</g>
<!-- pr_7e80e09a&#45;cc1c&#45;4f2c&#45;bf39&#45;ef7ad84b83a0 -->
<g id="node36" class="node"><title>pr_7e80e09a&#45;cc1c&#45;4f2c&#45;bf39&#45;ef7ad84b83a0</title>
<polygon fill="none" stroke="black" points="201,-837.553 103,-837.553 103,-739.553 201,-739.553 201,-837.553"/>
<text text-anchor="middle" x="152" y="-787.353" font-family="Times,serif" font-size="4.00">pr_7e80e09a&#45;cc1c&#45;4f2c&#45;bf39&#45;ef7ad84b83a0</text>
</g>
<!-- TNFA/TNFR1&#45;&gt;pr_7e80e09a&#45;cc1c&#45;4f2c&#45;bf39&#45;ef7ad84b83a0 -->
<g id="edge8" class="edge"><title>TNFA/TNFR1&#45;&gt;pr_7e80e09a&#45;cc1c&#45;4f2c&#45;bf39&#45;ef7ad84b83a0</title>
<path fill="none" stroke="black" d="M152,-873.352C152,-865.891 152,-857.08 152,-848.023"/>
<polygon fill="black" stroke="black" points="155.5,-847.75 152,-837.75 148.5,-847.75 155.5,-847.75"/>
</g>
<!-- FADD -->
<g id="node9" class="node"><title>FADD</title>
<ellipse fill="none" stroke="black" cx="229" cy="-895.297" rx="18" ry="18"/>
<text text-anchor="middle" x="229" y="-894.097" font-family="Times,serif" font-size="4.00">FADD</text>
</g>
<!-- FADD&#45;&gt;pr_1b76f56b&#45;88f5&#45;44c8&#45;a385&#45;4b34e2dfced8 -->
<g id="edge9" class="edge"><title>FADD&#45;&gt;pr_1b76f56b&#45;88f5&#45;44c8&#45;a385&#45;4b34e2dfced8</title>
<path fill="none" stroke="black" d="M234.08,-912.818C235.026,-921.148 235.57,-931.805 235.712,-942.811"/>
<polygon fill="black" stroke="black" points="232.212,-942.966 235.73,-952.96 239.212,-942.954 232.212,-942.966"/>
</g>
<!-- pr_4f3bef2f&#45;5898&#45;47d2&#45;a507&#45;b9636fb7c48a -->
<g id="node12" class="node"><title>pr_4f3bef2f&#45;5898&#45;47d2&#45;a507&#45;b9636fb7c48a</title>
<polygon fill="none" stroke="black" points="215,-619.384 117,-619.384 117,-521.384 215,-521.384 215,-619.384"/>
<text text-anchor="middle" x="166" y="-569.184" font-family="Times,serif" font-size="4.00">pr_4f3bef2f&#45;5898&#45;47d2&#45;a507&#45;b9636fb7c48a</text>
</g>
<!-- FADD&#45;&gt;pr_4f3bef2f&#45;5898&#45;47d2&#45;a507&#45;b9636fb7c48a -->
<g id="edge10" class="edge"><title>FADD&#45;&gt;pr_4f3bef2f&#45;5898&#45;47d2&#45;a507&#45;b9636fb7c48a</title>
<path fill="none" stroke="black" d="M227.471,-877.036C224.798,-848.357 218.718,-789.137 210,-739.553 203.472,-702.423 200.516,-693.363 191,-656.884 188.678,-647.983 186.085,-638.601 183.473,-629.444"/>
<polygon fill="black" stroke="black" points="186.776,-628.268 180.642,-619.629 180.05,-630.207 186.776,-628.268"/>
</g>
<!-- FADD&#45;&gt;pr_7e80e09a&#45;cc1c&#45;4f2c&#45;bf39&#45;ef7ad84b83a0 -->
<g id="edge11" class="edge"><title>FADD&#45;&gt;pr_7e80e09a&#45;cc1c&#45;4f2c&#45;bf39&#45;ef7ad84b83a0</title>
<path fill="none" stroke="black" d="M218.615,-880.17C212.015,-871.192 202.991,-858.917 193.717,-846.3"/>
<polygon fill="black" stroke="black" points="196.352,-843.976 187.609,-837.992 190.712,-848.122 196.352,-843.976"/>
</g>
<!-- pr_1b76f56b&#45;88f5&#45;44c8&#45;a385&#45;4b34e2dfced8&#45;&gt;FADD -->
<g id="edge12" class="edge"><title>pr_1b76f56b&#45;88f5&#45;44c8&#45;a385&#45;4b34e2dfced8&#45;&gt;FADD</title>
<path fill="none" stroke="black" d="M222.27,-952.96C222.173,-942.601 222.429,-932.016 223.04,-922.842"/>
<polygon fill="black" stroke="black" points="226.532,-923.085 223.92,-912.818 219.559,-922.473 226.532,-923.085"/>
</g>
<!-- CASP8 -->
<g id="node11" class="node"><title>CASP8</title>
<ellipse fill="none" stroke="black" cx="166" cy="-462.141" rx="18" ry="18"/>
<text text-anchor="middle" x="166" y="-460.941" font-family="Times,serif" font-size="4.00">CASP8</text>
</g>
<!-- CASP8&#45;&gt;pr_4f3bef2f&#45;5898&#45;47d2&#45;a507&#45;b9636fb7c48a -->
<g id="edge13" class="edge"><title>CASP8&#45;&gt;pr_4f3bef2f&#45;5898&#45;47d2&#45;a507&#45;b9636fb7c48a</title>
<path fill="none" stroke="black" d="M171.049,-479.624C172.035,-488.299 172.593,-499.514 172.721,-511.06"/>
<polygon fill="black" stroke="black" points="169.221,-511.237 172.724,-521.236 176.221,-511.235 169.221,-511.237"/>
</g>
<!-- pr_7eda943c&#45;d884&#45;4535&#45;ba3f&#45;bea8f7b37e3b -->
<g id="node15" class="node"><title>pr_7eda943c&#45;d884&#45;4535&#45;ba3f&#45;bea8f7b37e3b</title>
<polygon fill="none" stroke="black" points="215.5,-403.897 116.5,-403.897 116.5,-304.897 215.5,-304.897 215.5,-403.897"/>
<text text-anchor="middle" x="166" y="-353.197" font-family="Times,serif" font-size="4.00">pr_7eda943c&#45;d884&#45;4535&#45;ba3f&#45;bea8f7b37e3b</text>
</g>
<!-- CASP8&#45;&gt;pr_7eda943c&#45;d884&#45;4535&#45;ba3f&#45;bea8f7b37e3b -->
<g id="edge14" class="edge"><title>CASP8&#45;&gt;pr_7eda943c&#45;d884&#45;4535&#45;ba3f&#45;bea8f7b37e3b</title>
<path fill="none" stroke="black" d="M166,-443.679C166,-435.326 166,-424.789 166,-413.931"/>
<polygon fill="black" stroke="black" points="169.5,-413.921 166,-403.921 162.5,-413.921 169.5,-413.921"/>
</g>
<!-- pr_c13cc840&#45;a5c2&#45;4fcb&#45;896f&#45;c039af91c5f0 -->
<g id="node21" class="node"><title>pr_c13cc840&#45;a5c2&#45;4fcb&#45;896f&#45;c039af91c5f0</title>
<polygon fill="none" stroke="black" points="98,-403.397 7.10543e-15,-403.397 7.10543e-15,-305.397 98,-305.397 98,-403.397"/>
<text text-anchor="middle" x="49" y="-353.197" font-family="Times,serif" font-size="4.00">pr_c13cc840&#45;a5c2&#45;4fcb&#45;896f&#45;c039af91c5f0</text>
</g>
<!-- CASP8&#45;&gt;pr_c13cc840&#45;a5c2&#45;4fcb&#45;896f&#45;c039af91c5f0 -->
<g id="edge15" class="edge"><title>CASP8&#45;&gt;pr_c13cc840&#45;a5c2&#45;4fcb&#45;896f&#45;c039af91c5f0</title>
<path fill="none" stroke="black" d="M153.032,-449.42C141.371,-438.881 123.392,-422.632 105.642,-406.589"/>
<polygon fill="black" stroke="black" points="107.833,-403.852 98.0676,-399.744 103.14,-409.046 107.833,-403.852"/>
</g>
<!-- pr_6c24f30b&#45;be19&#45;48b5&#45;830b&#45;0b3689654d45 -->
<g id="node33" class="node"><title>pr_6c24f30b&#45;be19&#45;48b5&#45;830b&#45;0b3689654d45</title>
<polygon fill="none" stroke="black" points="334,-404.397 234,-404.397 234,-304.397 334,-304.397 334,-404.397"/>
<text text-anchor="middle" x="284" y="-353.197" font-family="Times,serif" font-size="4.00">pr_6c24f30b&#45;be19&#45;48b5&#45;830b&#45;0b3689654d45</text>
</g>
<!-- CASP8&#45;&gt;pr_6c24f30b&#45;be19&#45;48b5&#45;830b&#45;0b3689654d45 -->
<g id="edge16" class="edge"><title>CASP8&#45;&gt;pr_6c24f30b&#45;be19&#45;48b5&#45;830b&#45;0b3689654d45</title>
<path fill="none" stroke="black" d="M179.079,-449.42C190.735,-438.975 208.649,-422.921 226.395,-407.019"/>
<polygon fill="black" stroke="black" points="228.859,-409.51 233.971,-400.23 224.188,-404.297 228.859,-409.51"/>
</g>
<!-- pr_4f3bef2f&#45;5898&#45;47d2&#45;a507&#45;b9636fb7c48a&#45;&gt;CASP8 -->
<g id="edge17" class="edge"><title>pr_4f3bef2f&#45;5898&#45;47d2&#45;a507&#45;b9636fb7c48a&#45;&gt;CASP8</title>
<path fill="none" stroke="black" d="M159.276,-521.236C159.161,-510.386 159.424,-499.256 160.066,-489.679"/>
<polygon fill="black" stroke="black" points="163.56,-489.893 160.951,-479.624 156.587,-489.279 163.56,-489.893"/>
</g>
<!-- TRADD/FADD -->
<g id="node13" class="node"><title>TRADD/FADD</title>
<ellipse fill="none" stroke="black" cx="159" cy="-680.219" rx="23.1702" ry="23.1702"/>
<text text-anchor="middle" x="159" y="-679.019" font-family="Times,serif" font-size="4.00">TRADD/FADD</text>
</g>
<!-- TRADD/FADD&#45;&gt;pr_4f3bef2f&#45;5898&#45;47d2&#45;a507&#45;b9636fb7c48a -->
<g id="edge18" class="edge"><title>TRADD/FADD&#45;&gt;pr_4f3bef2f&#45;5898&#45;47d2&#45;a507&#45;b9636fb7c48a</title>
<path fill="none" stroke="black" d="M160.45,-656.875C160.974,-648.817 161.591,-639.306 162.22,-629.608"/>
<polygon fill="black" stroke="black" points="165.722,-629.692 162.877,-619.487 158.737,-629.239 165.722,-629.692"/>
</g>
<!-- CASP3 -->
<g id="node14" class="node"><title>CASP3</title>
<ellipse fill="none" stroke="black" cx="166" cy="-238.698" rx="18" ry="18"/>
<text text-anchor="middle" x="166" y="-237.498" font-family="Times,serif" font-size="4.00">CASP3</text>
</g>
<!-- CASP3&#45;&gt;pr_7eda943c&#45;d884&#45;4535&#45;ba3f&#45;bea8f7b37e3b -->
<g id="edge19" class="edge"><title>CASP3&#45;&gt;pr_7eda943c&#45;d884&#45;4535&#45;ba3f&#45;bea8f7b37e3b</title>
<path fill="none" stroke="black" d="M170.926,-256.216C172.088,-266.523 172.695,-280.477 172.746,-294.592"/>
<polygon fill="black" stroke="black" points="169.245,-294.828 172.686,-304.849 176.245,-294.87 169.245,-294.828"/>
</g>
<!-- pr_7eda943c&#45;d884&#45;4535&#45;ba3f&#45;bea8f7b37e3b&#45;&gt;CASP3 -->
<g id="edge20" class="edge"><title>pr_7eda943c&#45;d884&#45;4535&#45;ba3f&#45;bea8f7b37e3b&#45;&gt;CASP3</title>
<path fill="none" stroke="black" d="M159.314,-304.849C159.109,-291.676 159.396,-277.895 160.175,-266.418"/>
<polygon fill="black" stroke="black" points="163.683,-266.485 161.074,-256.216 156.71,-265.87 163.683,-266.485"/>
</g>
<!-- CASP9 -->
<g id="node16" class="node"><title>CASP9</title>
<ellipse fill="none" stroke="black" cx="301" cy="-462.141" rx="18" ry="18"/>
<text text-anchor="middle" x="301" y="-460.941" font-family="Times,serif" font-size="4.00">CASP9</text>
</g>
<!-- CASP9&#45;&gt;pr_7eda943c&#45;d884&#45;4535&#45;ba3f&#45;bea8f7b37e3b -->
<g id="edge21" class="edge"><title>CASP9&#45;&gt;pr_7eda943c&#45;d884&#45;4535&#45;ba3f&#45;bea8f7b37e3b</title>
<path fill="none" stroke="black" d="M286.828,-450.897C271.438,-439.695 246.214,-421.107 225,-404.397 224.526,-404.024 224.05,-403.648 223.573,-403.271"/>
<polygon fill="black" stroke="black" points="225.743,-400.524 215.745,-397.017 221.374,-405.993 225.743,-400.524"/>
</g>
<!-- pr_338ee00f&#45;5d93&#45;42ce&#45;bd5c&#45;402b6d599b56 -->
<g id="node17" class="node"><title>pr_338ee00f&#45;5d93&#45;42ce&#45;bd5c&#45;402b6d599b56</title>
<polygon fill="none" stroke="black" points="452,-404.397 352,-404.397 352,-304.397 452,-304.397 452,-404.397"/>
<text text-anchor="middle" x="402" y="-353.197" font-family="Times,serif" font-size="4.00">pr_338ee00f&#45;5d93&#45;42ce&#45;bd5c&#45;402b6d599b56</text>
</g>
<!-- CASP9&#45;&gt;pr_338ee00f&#45;5d93&#45;42ce&#45;bd5c&#45;402b6d599b56 -->
<g id="edge22" class="edge"><title>CASP9&#45;&gt;pr_338ee00f&#45;5d93&#45;42ce&#45;bd5c&#45;402b6d599b56</title>
<path fill="none" stroke="black" d="M310.199,-446.437C318.533,-436.386 331.263,-422.393 344.635,-408.389"/>
<polygon fill="black" stroke="black" points="347.252,-410.717 351.666,-401.086 342.209,-405.862 347.252,-410.717"/>
</g>
<!-- CASP9&#45;&gt;pr_6c24f30b&#45;be19&#45;48b5&#45;830b&#45;0b3689654d45 -->
<g id="edge23" class="edge"><title>CASP9&#45;&gt;pr_6c24f30b&#45;be19&#45;48b5&#45;830b&#45;0b3689654d45</title>
<path fill="none" stroke="black" d="M298.269,-444.151C296.946,-435.927 295.272,-425.509 293.538,-414.727"/>
<polygon fill="black" stroke="black" points="296.981,-414.094 291.939,-404.776 290.07,-415.205 296.981,-414.094"/>
</g>
<!-- pr_338ee00f&#45;5d93&#45;42ce&#45;bd5c&#45;402b6d599b56&#45;&gt;CASP9 -->
<g id="edge24" class="edge"><title>pr_338ee00f&#45;5d93&#45;42ce&#45;bd5c&#45;402b6d599b56&#45;&gt;CASP9</title>
<path fill="none" stroke="black" d="M361.6,-404.747C348.32,-418.763 334.088,-433.11 322.689,-443.825"/>
<polygon fill="black" stroke="black" points="320.294,-441.273 315.297,-450.615 325.029,-446.428 320.294,-441.273"/>
</g>
<!-- Apoptosome -->
<g id="node18" class="node"><title>Apoptosome</title>
<ellipse fill="none" stroke="black" cx="428" cy="-462.141" rx="21.9898" ry="21.9898"/>
<text text-anchor="middle" x="428" y="-460.941" font-family="Times,serif" font-size="4.00">Apoptosome</text>
</g>
<!-- Apoptosome&#45;&gt;pr_338ee00f&#45;5d93&#45;42ce&#45;bd5c&#45;402b6d599b56 -->
<g id="edge25" class="edge"><title>Apoptosome&#45;&gt;pr_338ee00f&#45;5d93&#45;42ce&#45;bd5c&#45;402b6d599b56</title>
<path fill="none" stroke="black" d="M422.987,-440.752C421.103,-433.091 418.854,-423.944 416.539,-414.528"/>
<polygon fill="black" stroke="black" points="419.902,-413.545 414.115,-404.67 413.104,-415.216 419.902,-413.545"/>
</g>
<!-- AKT -->
<g id="node19" class="node"><title>AKT</title>
<ellipse fill="none" stroke="black" cx="353" cy="-680.219" rx="18" ry="18"/>
<text text-anchor="middle" x="353" y="-679.019" font-family="Times,serif" font-size="4.00">AKT</text>
</g>
<!-- AKT&#45;&gt;pr_338ee00f&#45;5d93&#45;42ce&#45;bd5c&#45;402b6d599b56 -->
<g id="edge26" class="edge"><title>AKT&#45;&gt;pr_338ee00f&#45;5d93&#45;42ce&#45;bd5c&#45;402b6d599b56</title>
<path fill="none" stroke="black" d="M355.565,-662.264C362.449,-616.775 381.577,-490.362 393.022,-414.727"/>
<polygon fill="black" stroke="black" points="396.549,-414.816 394.584,-404.405 389.627,-413.769 396.549,-414.816"/>
</g>
<!-- pr_f7b96807&#45;ddc8&#45;443a&#45;a738&#45;1266c9e5fecf -->
<g id="node30" class="node"><title>pr_f7b96807&#45;ddc8&#45;443a&#45;a738&#45;1266c9e5fecf</title>
<polygon fill="none" stroke="black" points="491,-619.384 393,-619.384 393,-521.384 491,-521.384 491,-619.384"/>
<text text-anchor="middle" x="442" y="-569.184" font-family="Times,serif" font-size="4.00">pr_f7b96807&#45;ddc8&#45;443a&#45;a738&#45;1266c9e5fecf</text>
</g>
<!-- AKT&#45;&gt;pr_f7b96807&#45;ddc8&#45;443a&#45;a738&#45;1266c9e5fecf -->
<g id="edge27" class="edge"><title>AKT&#45;&gt;pr_f7b96807&#45;ddc8&#45;443a&#45;a738&#45;1266c9e5fecf</title>
<path fill="none" stroke="black" d="M364.272,-665.561C372.402,-655.711 383.97,-641.695 395.704,-627.477"/>
<polygon fill="black" stroke="black" points="398.554,-629.523 402.22,-619.582 393.155,-625.067 398.554,-629.523"/>
</g>
<!-- pr_12597023&#45;7c0c&#45;4093&#45;a43a&#45;31304d252cd7 -->
<g id="node34" class="node"><title>pr_12597023&#45;7c0c&#45;4093&#45;a43a&#45;31304d252cd7</title>
<polygon fill="none" stroke="black" points="336.5,-620.884 235.5,-620.884 235.5,-519.884 336.5,-519.884 336.5,-620.884"/>
<text text-anchor="middle" x="286" y="-569.184" font-family="Times,serif" font-size="4.00">pr_12597023&#45;7c0c&#45;4093&#45;a43a&#45;31304d252cd7</text>
</g>
<!-- AKT&#45;&gt;pr_12597023&#45;7c0c&#45;4093&#45;a43a&#45;31304d252cd7 -->
<g id="edge28" class="edge"><title>AKT&#45;&gt;pr_12597023&#45;7c0c&#45;4093&#45;a43a&#45;31304d252cd7</title>
<path fill="none" stroke="black" d="M340.82,-666.849C333.659,-657.503 324.482,-643.931 315.654,-629.94"/>
<polygon fill="black" stroke="black" points="318.477,-627.851 310.224,-621.208 312.533,-631.548 318.477,-627.851"/>
</g>
<!-- BID -->
<g id="node20" class="node"><title>BID</title>
<ellipse fill="none" stroke="black" cx="49" cy="-238.698" rx="18" ry="18"/>
<text text-anchor="middle" x="49" y="-237.498" font-family="Times,serif" font-size="4.00">BID</text>
</g>
<!-- BID&#45;&gt;pr_c13cc840&#45;a5c2&#45;4fcb&#45;896f&#45;c039af91c5f0 -->
<g id="edge29" class="edge"><title>BID&#45;&gt;pr_c13cc840&#45;a5c2&#45;4fcb&#45;896f&#45;c039af91c5f0</title>
<path fill="none" stroke="black" d="M53.9081,-256.055C55.0883,-266.432 55.7014,-280.552 55.7472,-294.817"/>
<polygon fill="black" stroke="black" points="52.2451,-295.156 55.6804,-305.179 59.2449,-295.201 52.2451,-295.156"/>
</g>
<!-- pr_2e78d667&#45;af3d&#45;4026&#45;b2d3&#45;b480de272702 -->
<g id="node23" class="node"><title>pr_2e78d667&#45;af3d&#45;4026&#45;b2d3&#45;b480de272702</title>
<polygon fill="none" stroke="black" points="277,-172.5 177,-172.5 177,-72.5 277,-72.5 277,-172.5"/>
<text text-anchor="middle" x="227" y="-121.3" font-family="Times,serif" font-size="4.00">pr_2e78d667&#45;af3d&#45;4026&#45;b2d3&#45;b480de272702</text>
</g>
<!-- BID&#45;&gt;pr_2e78d667&#45;af3d&#45;4026&#45;b2d3&#45;b480de272702 -->
<g id="edge30" class="edge"><title>BID&#45;&gt;pr_2e78d667&#45;af3d&#45;4026&#45;b2d3&#45;b480de272702</title>
<path fill="none" stroke="black" d="M63.87,-228.158C86.6122,-213.568 131.275,-184.914 168.126,-161.271"/>
<polygon fill="black" stroke="black" points="170.296,-164.038 176.823,-155.692 166.516,-158.146 170.296,-164.038"/>
</g>
<!-- pr_c13cc840&#45;a5c2&#45;4fcb&#45;896f&#45;c039af91c5f0&#45;&gt;BID -->
<g id="edge31" class="edge"><title>pr_c13cc840&#45;a5c2&#45;4fcb&#45;896f&#45;c039af91c5f0&#45;&gt;BID</title>
<path fill="none" stroke="black" d="M42.3196,-305.179C42.1035,-291.877 42.3905,-277.931 43.1804,-266.343"/>
<polygon fill="black" stroke="black" points="46.6957,-266.325 44.0919,-256.055 39.723,-265.707 46.6957,-266.325"/>
</g>
<!-- BAX -->
<g id="node22" class="node"><title>BAX</title>
<ellipse fill="none" stroke="black" cx="227" cy="-18" rx="18" ry="18"/>
<text text-anchor="middle" x="227" y="-16.8" font-family="Times,serif" font-size="4.00">BAX</text>
</g>
<!-- BAX&#45;&gt;pr_2e78d667&#45;af3d&#45;4026&#45;b2d3&#45;b480de272702 -->
<g id="edge32" class="edge"><title>BAX&#45;&gt;pr_2e78d667&#45;af3d&#45;4026&#45;b2d3&#45;b480de272702</title>
<path fill="none" stroke="black" d="M232.1,-35.3424C232.962,-42.8395 233.486,-52.2359 233.672,-62.0439"/>
<polygon fill="black" stroke="black" points="230.175,-62.3764 233.745,-72.3515 237.174,-62.3271 230.175,-62.3764"/>
</g>
<!-- pr_2e78d667&#45;af3d&#45;4026&#45;b2d3&#45;b480de272702&#45;&gt;BAX -->
<g id="edge33" class="edge"><title>pr_2e78d667&#45;af3d&#45;4026&#45;b2d3&#45;b480de272702&#45;&gt;BAX</title>
<path fill="none" stroke="black" d="M220.255,-72.3515C220.21,-63.0632 220.462,-53.6826 221.009,-45.433"/>
<polygon fill="black" stroke="black" points="224.507,-45.6113 221.9,-35.3424 217.534,-44.996 224.507,-45.6113"/>
</g>
<!-- BIM/BAD/PUMA -->
<g id="node24" class="node"><title>BIM/BAD/PUMA</title>
<ellipse fill="none" stroke="black" cx="346" cy="-238.698" rx="25.9724" ry="25.9724"/>
<text text-anchor="middle" x="346" y="-237.498" font-family="Times,serif" font-size="4.00">BIM/BAD/PUMA</text>
</g>
<!-- BIM/BAD/PUMA&#45;&gt;pr_2e78d667&#45;af3d&#45;4026&#45;b2d3&#45;b480de272702 -->
<g id="edge34" class="edge"><title>BIM/BAD/PUMA&#45;&gt;pr_2e78d667&#45;af3d&#45;4026&#45;b2d3&#45;b480de272702</title>
<path fill="none" stroke="black" d="M327.667,-220.105C316.069,-208.975 300.378,-193.918 284.839,-179.005"/>
<polygon fill="black" stroke="black" points="286.88,-176.113 277.241,-171.714 282.033,-181.163 286.88,-176.113"/>
</g>
<!-- pr_3341a44a&#45;d40d&#45;409a&#45;8608&#45;81968d825a1a -->
<g id="node40" class="node"><title>pr_3341a44a&#45;d40d&#45;409a&#45;8608&#45;81968d825a1a</title>
<polygon fill="none" stroke="black" points="396.5,-173 295.5,-173 295.5,-72 396.5,-72 396.5,-173"/>
<text text-anchor="middle" x="346" y="-121.3" font-family="Times,serif" font-size="4.00">pr_3341a44a&#45;d40d&#45;409a&#45;8608&#45;81968d825a1a</text>
</g>
<!-- BIM/BAD/PUMA&#45;&gt;pr_3341a44a&#45;d40d&#45;409a&#45;8608&#45;81968d825a1a -->
<g id="edge35" class="edge"><title>BIM/BAD/PUMA&#45;&gt;pr_3341a44a&#45;d40d&#45;409a&#45;8608&#45;81968d825a1a</title>
<path fill="none" stroke="black" d="M340.343,-213.2C339.674,-204.36 339.312,-193.951 339.257,-183.415"/>
<polygon fill="black" stroke="black" points="342.758,-183.335 339.299,-173.32 335.758,-183.306 342.758,-183.335"/>
</g>
<!-- BCL2/BCL&#45;XL/MCL1 -->
<g id="node25" class="node"><title>BCL2/BCL&#45;XL/MCL1</title>
<ellipse fill="none" stroke="black" cx="420" cy="-238.698" rx="29.8983" ry="29.8983"/>
<text text-anchor="middle" x="420" y="-237.498" font-family="Times,serif" font-size="4.00">BCL2/BCL&#45;XL/MCL1</text>
</g>
<!-- BCL2/BCL&#45;XL/MCL1&#45;&gt;pr_2e78d667&#45;af3d&#45;4026&#45;b2d3&#45;b480de272702 -->
<g id="edge36" class="edge"><title>BCL2/BCL&#45;XL/MCL1&#45;&gt;pr_2e78d667&#45;af3d&#45;4026&#45;b2d3&#45;b480de272702</title>
<path fill="none" stroke="black" d="M397.178,-219.316C392.028,-215.625 386.464,-211.973 381,-209 341.339,-187.42 324.954,-195.832 286,-173 285.906,-172.945 285.813,-172.89 285.719,-172.835"/>
<polygon fill="black" stroke="black" points="287.352,-169.726 277.035,-167.315 283.597,-175.633 287.352,-169.726"/>
</g>
<!-- BCL2/BCL&#45;XL/MCL1&#45;&gt;pr_3341a44a&#45;d40d&#45;409a&#45;8608&#45;81968d825a1a -->
<g id="edge37" class="edge"><title>BCL2/BCL&#45;XL/MCL1&#45;&gt;pr_3341a44a&#45;d40d&#45;409a&#45;8608&#45;81968d825a1a</title>
<path fill="none" stroke="black" d="M404.307,-213.48C398.221,-204.089 390.969,-192.897 383.682,-181.652"/>
<polygon fill="black" stroke="black" points="386.497,-179.559 378.121,-173.07 380.622,-183.366 386.497,-179.559"/>
</g>
<!-- pr_8814531e&#45;491b&#45;4ce3&#45;9727&#45;4f159f6fc26c -->
<g id="node41" class="node"><title>pr_8814531e&#45;491b&#45;4ce3&#45;9727&#45;4f159f6fc26c</title>
<polygon fill="none" stroke="black" points="513,-171.5 415,-171.5 415,-73.5 513,-73.5 513,-171.5"/>
<text text-anchor="middle" x="464" y="-121.3" font-family="Times,serif" font-size="4.00">pr_8814531e&#45;491b&#45;4ce3&#45;9727&#45;4f159f6fc26c</text>
</g>
<!-- BCL2/BCL&#45;XL/MCL1&#45;&gt;pr_8814531e&#45;491b&#45;4ce3&#45;9727&#45;4f159f6fc26c -->
<g id="edge38" class="edge"><title>BCL2/BCL&#45;XL/MCL1&#45;&gt;pr_8814531e&#45;491b&#45;4ce3&#45;9727&#45;4f159f6fc26c</title>
<path fill="none" stroke="black" d="M425.055,-209.176C427.836,-200.565 431.332,-190.786 435.099,-180.991"/>
<polygon fill="black" stroke="black" points="438.377,-182.22 438.779,-171.633 431.862,-179.658 438.377,-182.22"/>
</g>
<!-- Cytochrome C -->
<g id="node26" class="node"><title>Cytochrome C</title>
<ellipse fill="none" stroke="black" cx="559" cy="-680.219" rx="23.1702" ry="23.1702"/>
<text text-anchor="middle" x="559" y="-679.019" font-family="Times,serif" font-size="4.00">Cytochrome C</text>
</g>
<!-- pr_582a6f5f&#45;221b&#45;4800&#45;80a0&#45;536d0a8c1adc -->
<g id="node27" class="node"><title>pr_582a6f5f&#45;221b&#45;4800&#45;80a0&#45;536d0a8c1adc</title>
<polygon fill="none" stroke="black" points="608.5,-619.884 509.5,-619.884 509.5,-520.884 608.5,-520.884 608.5,-619.884"/>
<text text-anchor="middle" x="559" y="-569.184" font-family="Times,serif" font-size="4.00">pr_582a6f5f&#45;221b&#45;4800&#45;80a0&#45;536d0a8c1adc</text>
</g>
<!-- Cytochrome C&#45;&gt;pr_582a6f5f&#45;221b&#45;4800&#45;80a0&#45;536d0a8c1adc -->
<g id="edge39" class="edge"><title>Cytochrome C&#45;&gt;pr_582a6f5f&#45;221b&#45;4800&#45;80a0&#45;536d0a8c1adc</title>
<path fill="none" stroke="black" d="M553.451,-657.397C552.763,-649.358 552.37,-639.822 552.274,-630.077"/>
<polygon fill="black" stroke="black" points="555.774,-629.902 552.28,-619.899 548.774,-629.897 555.774,-629.902"/>
</g>
<!-- Cytochrome C&#45;&gt;pr_f7b96807&#45;ddc8&#45;443a&#45;a738&#45;1266c9e5fecf -->
<g id="edge40" class="edge"><title>Cytochrome C&#45;&gt;pr_f7b96807&#45;ddc8&#45;443a&#45;a738&#45;1266c9e5fecf</title>
<path fill="none" stroke="black" d="M542.237,-663.769C530.725,-653.158 514.714,-638.402 498.863,-623.793"/>
<polygon fill="black" stroke="black" points="500.841,-620.855 491.115,-616.652 496.096,-626.003 500.841,-620.855"/>
</g>
<!-- pr_582a6f5f&#45;221b&#45;4800&#45;80a0&#45;536d0a8c1adc&#45;&gt;Cytochrome C -->
<g id="edge41" class="edge"><title>pr_582a6f5f&#45;221b&#45;4800&#45;80a0&#45;536d0a8c1adc&#45;&gt;Cytochrome C</title>
<path fill="none" stroke="black" d="M565.72,-619.899C565.824,-629.225 565.657,-638.769 565.219,-647.399"/>
<polygon fill="black" stroke="black" points="561.725,-647.185 564.549,-657.397 568.709,-647.653 561.725,-647.185"/>
</g>
<!-- MAPK14 -->
<g id="node28" class="node"><title>MAPK14</title>
<ellipse fill="none" stroke="black" cx="649" cy="-680.219" rx="18" ry="18"/>
<text text-anchor="middle" x="649" y="-679.019" font-family="Times,serif" font-size="4.00">MAPK14</text>
</g>
<!-- MAPK14&#45;&gt;pr_582a6f5f&#45;221b&#45;4800&#45;80a0&#45;536d0a8c1adc -->
<g id="edge42" class="edge"><title>MAPK14&#45;&gt;pr_582a6f5f&#45;221b&#45;4800&#45;80a0&#45;536d0a8c1adc</title>
<path fill="none" stroke="black" d="M637.964,-665.996C629.806,-656.221 618.086,-642.179 606.164,-627.894"/>
<polygon fill="black" stroke="black" points="608.635,-625.393 599.541,-619.958 603.261,-629.878 608.635,-625.393"/>
</g>
<!-- pr_8f6664d8&#45;71cc&#45;45ee&#45;9296&#45;fd64220d1563 -->
<g id="node38" class="node"><title>pr_8f6664d8&#45;71cc&#45;45ee&#45;9296&#45;fd64220d1563</title>
<polygon fill="none" stroke="black" points="725.5,-619.884 626.5,-619.884 626.5,-520.884 725.5,-520.884 725.5,-619.884"/>
<text text-anchor="middle" x="676" y="-569.184" font-family="Times,serif" font-size="4.00">pr_8f6664d8&#45;71cc&#45;45ee&#45;9296&#45;fd64220d1563</text>
</g>
<!-- MAPK14&#45;&gt;pr_8f6664d8&#45;71cc&#45;45ee&#45;9296&#45;fd64220d1563 -->
<g id="edge43" class="edge"><title>MAPK14&#45;&gt;pr_8f6664d8&#45;71cc&#45;45ee&#45;9296&#45;fd64220d1563</title>
<path fill="none" stroke="black" d="M648.223,-661.893C649.478,-653.056 651.775,-641.735 654.569,-630.114"/>
<polygon fill="black" stroke="black" points="657.985,-630.88 657.02,-620.329 651.195,-629.179 657.985,-630.88"/>
</g>
<!-- APAF1 -->
<g id="node29" class="node"><title>APAF1</title>
<ellipse fill="none" stroke="black" cx="480" cy="-680.219" rx="18" ry="18"/>
<text text-anchor="middle" x="480" y="-679.019" font-family="Times,serif" font-size="4.00">APAF1</text>
</g>
<!-- APAF1&#45;&gt;pr_f7b96807&#45;ddc8&#45;443a&#45;a738&#45;1266c9e5fecf -->
<g id="edge44" class="edge"><title>APAF1&#45;&gt;pr_f7b96807&#45;ddc8&#45;443a&#45;a738&#45;1266c9e5fecf</title>
<path fill="none" stroke="black" d="M474.229,-662.841C470.986,-653.638 466.722,-641.54 462.363,-629.168"/>
<polygon fill="black" stroke="black" points="465.65,-627.966 459.025,-619.698 459.048,-630.293 465.65,-627.966"/>
</g>
<!-- pr_f7b96807&#45;ddc8&#45;443a&#45;a738&#45;1266c9e5fecf&#45;&gt;Apoptosome -->
<g id="edge45" class="edge"><title>pr_f7b96807&#45;ddc8&#45;443a&#45;a738&#45;1266c9e5fecf&#45;&gt;Apoptosome</title>
<path fill="none" stroke="black" d="M435.655,-521.236C434.421,-511.868 433.159,-502.292 432.025,-493.687"/>
<polygon fill="black" stroke="black" points="435.492,-493.208 430.716,-483.751 428.552,-494.123 435.492,-493.208"/>
</g>
<!-- Pro&#45;casp9 -->
<g id="node31" class="node"><title>Pro&#45;casp9</title>
<ellipse fill="none" stroke="black" cx="425" cy="-680.219" rx="18.6233" ry="18.6233"/>
<text text-anchor="middle" x="425" y="-679.019" font-family="Times,serif" font-size="4.00">Pro&#45;casp9</text>
</g>
<!-- Pro&#45;casp9&#45;&gt;pr_f7b96807&#45;ddc8&#45;443a&#45;a738&#45;1266c9e5fecf -->
<g id="edge46" class="edge"><title>Pro&#45;casp9&#45;&gt;pr_f7b96807&#45;ddc8&#45;443a&#45;a738&#45;1266c9e5fecf</title>
<path fill="none" stroke="black" d="M427.807,-661.412C429.208,-652.529 430.99,-641.225 432.814,-629.652"/>
<polygon fill="black" stroke="black" points="436.32,-629.89 434.42,-619.467 429.405,-628.8 436.32,-629.89"/>
</g>
<!-- CASP7 -->
<g id="node32" class="node"><title>CASP7</title>
<ellipse fill="none" stroke="black" cx="284" cy="-238.698" rx="18" ry="18"/>
<text text-anchor="middle" x="284" y="-237.498" font-family="Times,serif" font-size="4.00">CASP7</text>
</g>
<!-- CASP7&#45;&gt;pr_6c24f30b&#45;be19&#45;48b5&#45;830b&#45;0b3689654d45 -->
<g id="edge47" class="edge"><title>CASP7&#45;&gt;pr_6c24f30b&#45;be19&#45;48b5&#45;830b&#45;0b3689654d45</title>
<path fill="none" stroke="black" d="M288.932,-256.268C290.076,-266.443 290.68,-280.158 290.744,-294.07"/>
<polygon fill="black" stroke="black" points="287.244,-294.172 290.696,-304.188 294.244,-294.205 287.244,-294.172"/>
</g>
<!-- pr_6c24f30b&#45;be19&#45;48b5&#45;830b&#45;0b3689654d45&#45;&gt;CASP7 -->
<g id="edge48" class="edge"><title>pr_6c24f30b&#45;be19&#45;48b5&#45;830b&#45;0b3689654d45&#45;&gt;CASP7</title>
<path fill="none" stroke="black" d="M277.304,-304.188C277.118,-291.181 277.41,-277.63 278.182,-266.326"/>
<polygon fill="black" stroke="black" points="281.676,-266.537 279.068,-256.268 274.703,-265.922 281.676,-266.537"/>
</g>
<!-- pr_12597023&#45;7c0c&#45;4093&#45;a43a&#45;31304d252cd7&#45;&gt;AKT -->
<g id="edge49" class="edge"><title>pr_12597023&#45;7c0c&#45;4093&#45;a43a&#45;31304d252cd7&#45;&gt;AKT</title>
<path fill="none" stroke="black" d="M323.635,-621.122C330.743,-632.405 337.607,-643.933 342.99,-653.715"/>
<polygon fill="black" stroke="black" points="340.054,-655.648 347.833,-662.841 346.237,-652.367 340.054,-655.648"/>
</g>
<!-- SARS M -->
<g id="node35" class="node"><title>SARS M</title>
<ellipse fill="none" stroke="black" cx="286" cy="-680.219" rx="18" ry="18"/>
<text text-anchor="middle" x="286" y="-679.019" font-family="Times,serif" font-size="4.00">SARS M</text>
</g>
<!-- SARS M&#45;&gt;pr_12597023&#45;7c0c&#45;4093&#45;a43a&#45;31304d252cd7 -->
<g id="edge50" class="edge"><title>SARS M&#45;&gt;pr_12597023&#45;7c0c&#45;4093&#45;a43a&#45;31304d252cd7</title>
<path fill="none" stroke="black" d="M286,-661.893C286,-653.415 286,-642.651 286,-631.529"/>
<polygon fill="black" stroke="black" points="289.5,-631.269 286,-621.269 282.5,-631.269 289.5,-631.269"/>
</g>
<!-- pr_7e80e09a&#45;cc1c&#45;4f2c&#45;bf39&#45;ef7ad84b83a0&#45;&gt;TRADD/FADD -->
<g id="edge51" class="edge"><title>pr_7e80e09a&#45;cc1c&#45;4f2c&#45;bf39&#45;ef7ad84b83a0&#45;&gt;TRADD/FADD</title>
<path fill="none" stroke="black" d="M155.172,-739.364C155.741,-730.729 156.321,-721.917 156.852,-713.851"/>
<polygon fill="black" stroke="black" points="160.352,-713.961 157.517,-703.753 153.367,-713.502 160.352,-713.961"/>
</g>
<!-- TRADD -->
<g id="node37" class="node"><title>TRADD</title>
<ellipse fill="none" stroke="black" cx="94" cy="-895.297" rx="18" ry="18"/>
<text text-anchor="middle" x="94" y="-894.097" font-family="Times,serif" font-size="4.00">TRADD</text>
</g>
<!-- TRADD&#45;&gt;pr_7e80e09a&#45;cc1c&#45;4f2c&#45;bf39&#45;ef7ad84b83a0 -->
<g id="edge52" class="edge"><title>TRADD&#45;&gt;pr_7e80e09a&#45;cc1c&#45;4f2c&#45;bf39&#45;ef7ad84b83a0</title>
<path fill="none" stroke="black" d="M102.31,-879.289C107.2,-870.459 113.727,-858.671 120.439,-846.55"/>
<polygon fill="black" stroke="black" points="123.556,-848.146 125.338,-837.702 117.432,-844.755 123.556,-848.146"/>
</g>
<!-- pr_8f6664d8&#45;71cc&#45;45ee&#45;9296&#45;fd64220d1563&#45;&gt;MAPK14 -->
<g id="edge53" class="edge"><title>pr_8f6664d8&#45;71cc&#45;45ee&#45;9296&#45;fd64220d1563&#45;&gt;MAPK14</title>
<path fill="none" stroke="black" d="M670.572,-619.899C667.693,-631.939 664.27,-644.342 660.912,-654.673"/>
<polygon fill="black" stroke="black" points="657.57,-653.63 657.599,-664.225 664.183,-655.924 657.57,-653.63"/>
</g>
<!-- SARS 3a -->
<g id="node39" class="node"><title>SARS 3a</title>
<ellipse fill="none" stroke="black" cx="703" cy="-680.219" rx="18" ry="18"/>
<text text-anchor="middle" x="703" y="-679.019" font-family="Times,serif" font-size="4.00">SARS 3a</text>
</g>
<!-- SARS 3a&#45;&gt;pr_8f6664d8&#45;71cc&#45;45ee&#45;9296&#45;fd64220d1563 -->
<g id="edge54" class="edge"><title>SARS 3a&#45;&gt;pr_8f6664d8&#45;71cc&#45;45ee&#45;9296&#45;fd64220d1563</title>
<path fill="none" stroke="black" d="M698.781,-662.369C696.557,-653.484 693.68,-641.996 690.725,-630.192"/>
<polygon fill="black" stroke="black" points="694.06,-629.104 688.236,-620.253 687.27,-630.804 694.06,-629.104"/>
</g>
<!-- pr_3341a44a&#45;d40d&#45;409a&#45;8608&#45;81968d825a1a&#45;&gt;BIM/BAD/PUMA -->
<g id="edge55" class="edge"><title>pr_3341a44a&#45;d40d&#45;409a&#45;8608&#45;81968d825a1a&#45;&gt;BIM/BAD/PUMA</title>
<path fill="none" stroke="black" d="M352.701,-173.32C352.837,-183.36 352.69,-193.705 352.261,-203.086"/>
<polygon fill="black" stroke="black" points="348.76,-203.009 351.657,-213.2 355.747,-203.427 348.76,-203.009"/>
</g>
<!-- pr_8814531e&#45;491b&#45;4ce3&#45;9727&#45;4f159f6fc26c&#45;&gt;BCL2/BCL&#45;XL/MCL1 -->
<g id="edge56" class="edge"><title>pr_8814531e&#45;491b&#45;4ce3&#45;9727&#45;4f159f6fc26c&#45;&gt;BCL2/BCL&#45;XL/MCL1</title>
<path fill="none" stroke="black" d="M452.101,-171.713C448.135,-182.468 443.677,-193.655 439.334,-203.695"/>
<polygon fill="black" stroke="black" points="436.098,-202.36 435.226,-212.919 442.492,-205.208 436.098,-202.36"/>
</g>
<!-- SARS E_7a -->
<g id="node42" class="node"><title>SARS E_7a</title>
<ellipse fill="none" stroke="black" cx="488" cy="-238.698" rx="20.3062" ry="20.3062"/>
<text text-anchor="middle" x="488" y="-237.498" font-family="Times,serif" font-size="4.00">SARS E_7a</text>
</g>
<!-- SARS E_7a&#45;&gt;pr_8814531e&#45;491b&#45;4ce3&#45;9727&#45;4f159f6fc26c -->
<g id="edge57" class="edge"><title>SARS E_7a&#45;&gt;pr_8814531e&#45;491b&#45;4ce3&#45;9727&#45;4f159f6fc26c</title>
<path fill="none" stroke="black" d="M484.037,-218.841C481.894,-208.643 479.118,-195.434 476.319,-182.115"/>
<polygon fill="black" stroke="black" points="479.666,-181.023 474.184,-171.956 472.815,-182.462 479.666,-181.023"/>
</g>
</g>
</svg>
