<?xml version="1.0" encoding="UTF-8" standalone="no"?>
<!DOCTYPE svg PUBLIC "-//W3C//DTD SVG 1.1//EN"
 "http://www.w3.org/Graphics/SVG/1.1/DTD/svg11.dtd">
<!-- Generated by graphviz version 2.38.0 (20140413.2041)
 -->
<!-- Title: G Pages: 1 -->
<svg width="733pt" height="1342pt"
 viewBox="0.00 0.00 732.50 1342.16" xmlns="http://www.w3.org/2000/svg" xmlns:xlink="http://www.w3.org/1999/xlink">
<g id="graph0" class="graph" transform="scale(1 1) rotate(0) translate(4 1338.16)">
<title>G</title>
<polygon fill="white" stroke="none" points="-4,4 -4,-1338.16 728.5,-1338.16 728.5,4 -4,4"/>
<!-- FASL -->
<g id="node1" class="node"><title>FASL</title>
<ellipse fill="none" stroke="black" cx="202" cy="-1316.16" rx="18" ry="18"/>
<text text-anchor="middle" x="202" y="-1314.96" font-family="Times,serif" font-size="4.00">FASL</text>
</g>
<!-- pr_b6896d14&#45;6d6b&#45;40bf&#45;a188&#45;e3be44012c3f -->
<g id="node2" class="node"><title>pr_b6896d14&#45;6d6b&#45;40bf&#45;a188&#45;e3be44012c3f</title>
<polygon fill="none" stroke="black" points="278.5,-1262.16 179.5,-1262.16 179.5,-1163.16 278.5,-1163.16 278.5,-1262.16"/>
<text text-anchor="middle" x="229" y="-1211.46" font-family="Times,serif" font-size="4.00">pr_b6896d14&#45;6d6b&#45;40bf&#45;a188&#45;e3be44012c3f</text>
</g>
<!-- FASL&#45;&gt;pr_b6896d14&#45;6d6b&#45;40bf&#45;a188&#45;e3be44012c3f -->
<g id="edge1" class="edge"><title>FASL&#45;&gt;pr_b6896d14&#45;6d6b&#45;40bf&#45;a188&#45;e3be44012c3f</title>
<path fill="none" stroke="black" d="M206.459,-1298.4C208.436,-1290.97 210.892,-1281.74 213.448,-1272.13"/>
<polygon fill="black" stroke="black" points="216.836,-1273.01 216.024,-1262.44 210.071,-1271.21 216.836,-1273.01"/>
</g>
<!-- FAS/FASL -->
<g id="node4" class="node"><title>FAS/FASL</title>
<ellipse fill="none" stroke="black" cx="229" cy="-1108.6" rx="18.6233" ry="18.6233"/>
<text text-anchor="middle" x="229" y="-1107.4" font-family="Times,serif" font-size="4.00">FAS/FASL</text>
</g>
<!-- pr_b6896d14&#45;6d6b&#45;40bf&#45;a188&#45;e3be44012c3f&#45;&gt;FAS/FASL -->
<g id="edge2" class="edge"><title>pr_b6896d14&#45;6d6b&#45;40bf&#45;a188&#45;e3be44012c3f&#45;&gt;FAS/FASL</title>
<path fill="none" stroke="black" d="M229,-1163.02C229,-1154.27 229,-1145.42 229,-1137.51"/>
<polygon fill="black" stroke="black" points="232.5,-1137.41 229,-1127.41 225.5,-1137.41 232.5,-1137.41"/>
</g>
<!-- FAS -->
<g id="node3" class="node"><title>FAS</title>
<ellipse fill="none" stroke="black" cx="256" cy="-1316.16" rx="18" ry="18"/>
<text text-anchor="middle" x="256" y="-1314.96" font-family="Times,serif" font-size="4.00">FAS</text>
</g>
<!-- FAS&#45;&gt;pr_b6896d14&#45;6d6b&#45;40bf&#45;a188&#45;e3be44012c3f -->
<g id="edge3" class="edge"><title>FAS&#45;&gt;pr_b6896d14&#45;6d6b&#45;40bf&#45;a188&#45;e3be44012c3f</title>
<path fill="none" stroke="black" d="M251.541,-1298.4C249.564,-1290.97 247.108,-1281.74 244.552,-1272.13"/>
<polygon fill="black" stroke="black" points="247.929,-1271.21 241.976,-1262.44 241.164,-1273.01 247.929,-1271.21"/>
</g>
<!-- pr_9a39a951&#45;2495&#45;46a5&#45;a219&#45;c813dcb851ae -->
<g id="node10" class="node"><title>pr_9a39a951&#45;2495&#45;46a5&#45;a219&#45;c813dcb851ae</title>
<polygon fill="none" stroke="black" points="279.5,-1054.04 178.5,-1054.04 178.5,-953.04 279.5,-953.04 279.5,-1054.04"/>
<text text-anchor="middle" x="229" y="-1002.34" font-family="Times,serif" font-size="4.00">pr_9a39a951&#45;2495&#45;46a5&#45;a219&#45;c813dcb851ae</text>
</g>
<!-- FAS/FASL&#45;&gt;pr_9a39a951&#45;2495&#45;46a5&#45;a219&#45;c813dcb851ae -->
<g id="edge4" class="edge"><title>FAS/FASL&#45;&gt;pr_9a39a951&#45;2495&#45;46a5&#45;a219&#45;c813dcb851ae</title>
<path fill="none" stroke="black" d="M229,-1089.65C229,-1082.37 229,-1073.49 229,-1064.26"/>
<polygon fill="black" stroke="black" points="232.5,-1064.17 229,-1054.17 225.5,-1064.17 232.5,-1064.17"/>
</g>
<!-- TNFA -->
<g id="node5" class="node"><title>TNFA</title>
<ellipse fill="none" stroke="black" cx="138" cy="-1108.6" rx="18" ry="18"/>
<text text-anchor="middle" x="138" y="-1107.4" font-family="Times,serif" font-size="4.00">TNFA</text>
</g>
<!-- pr_fd57e92e&#45;d5f8&#45;4b46&#45;bfb9&#45;35d8ad70dae3 -->
<g id="node6" class="node"><title>pr_fd57e92e&#45;d5f8&#45;4b46&#45;bfb9&#45;35d8ad70dae3</title>
<polygon fill="none" stroke="black" points="160,-1052.54 62,-1052.54 62,-954.54 160,-954.54 160,-1052.54"/>
<text text-anchor="middle" x="111" y="-1002.34" font-family="Times,serif" font-size="4.00">pr_fd57e92e&#45;d5f8&#45;4b46&#45;bfb9&#45;35d8ad70dae3</text>
</g>
<!-- TNFA&#45;&gt;pr_fd57e92e&#45;d5f8&#45;4b46&#45;bfb9&#45;35d8ad70dae3 -->
<g id="edge5" class="edge"><title>TNFA&#45;&gt;pr_fd57e92e&#45;d5f8&#45;4b46&#45;bfb9&#45;35d8ad70dae3</title>
<path fill="none" stroke="black" d="M133.662,-1091.04C131.562,-1083.03 128.902,-1072.87 126.149,-1062.37"/>
<polygon fill="black" stroke="black" points="129.528,-1061.45 123.608,-1052.67 122.757,-1063.23 129.528,-1061.45"/>
</g>
<!-- TNFA/TNFR1 -->
<g id="node8" class="node"><title>TNFA/TNFR1</title>
<ellipse fill="none" stroke="black" cx="152" cy="-895.297" rx="21.9898" ry="21.9898"/>
<text text-anchor="middle" x="152" y="-894.097" font-family="Times,serif" font-size="4.00">TNFA/TNFR1</text>
</g>
<!-- pr_fd57e92e&#45;d5f8&#45;4b46&#45;bfb9&#45;35d8ad70dae3&#45;&gt;TNFA/TNFR1 -->
<g id="edge6" class="edge"><title>pr_fd57e92e&#45;d5f8&#45;4b46&#45;bfb9&#45;35d8ad70dae3&#45;&gt;TNFA/TNFR1</title>
<path fill="none" stroke="black" d="M129.581,-954.392C133.398,-944.499 137.306,-934.374 140.767,-925.406"/>
<polygon fill="black" stroke="black" points="144.121,-926.435 144.456,-915.845 137.59,-923.914 144.121,-926.435"/>
</g>
<!-- TNFR1 -->
<g id="node7" class="node"><title>TNFR1</title>
<ellipse fill="none" stroke="black" cx="84" cy="-1108.6" rx="18" ry="18"/>
<text text-anchor="middle" x="84" y="-1107.4" font-family="Times,serif" font-size="4.00">TNFR1</text>
</g>
<!-- TNFR1&#45;&gt;pr_fd57e92e&#45;d5f8&#45;4b46&#45;bfb9&#45;35d8ad70dae3 -->
<g id="edge7" class="edge"><title>TNFR1&#45;&gt;pr_fd57e92e&#45;d5f8&#45;4b46&#45;bfb9&#45;35d8ad70dae3</title>
<path fill="none" stroke="black" d="M88.338,-1091.04C90.438,-1083.03 93.098,-1072.87 95.8509,-1062.37"/>
<polygon fill="black" stroke="black" points="99.2432,-1063.23 98.3918,-1052.67 92.4717,-1061.45 99.2432,-1063.23"/>
</g>
<!-- pr_2a322af8&#45;f96f&#45;459a&#45;ac93&#45;442d249a6401 -->
<g id="node36" class="node"><title>pr_2a322af8&#45;f96f&#45;459a&#45;ac93&#45;442d249a6401</title>
<polygon fill="none" stroke="black" points="201,-837.553 103,-837.553 103,-739.553 201,-739.553 201,-837.553"/>
<text text-anchor="middle" x="152" y="-787.353" font-family="Times,serif" font-size="4.00">pr_2a322af8&#45;f96f&#45;459a&#45;ac93&#45;442d249a6401</text>
</g>
<!-- TNFA/TNFR1&#45;&gt;pr_2a322af8&#45;f96f&#45;459a&#45;ac93&#45;442d249a6401 -->
<g id="edge8" class="edge"><title>TNFA/TNFR1&#45;&gt;pr_2a322af8&#45;f96f&#45;459a&#45;ac93&#45;442d249a6401</title>
<path fill="none" stroke="black" d="M152,-873.352C152,-865.891 152,-857.08 152,-848.023"/>
<polygon fill="black" stroke="black" points="155.5,-847.75 152,-837.75 148.5,-847.75 155.5,-847.75"/>
</g>
<!-- FADD -->
<g id="node9" class="node"><title>FADD</title>
<ellipse fill="none" stroke="black" cx="229" cy="-895.297" rx="18" ry="18"/>
<text text-anchor="middle" x="229" y="-894.097" font-family="Times,serif" font-size="4.00">FADD</text>
</g>
<!-- FADD&#45;&gt;pr_9a39a951&#45;2495&#45;46a5&#45;a219&#45;c813dcb851ae -->
<g id="edge9" class="edge"><title>FADD&#45;&gt;pr_9a39a951&#45;2495&#45;46a5&#45;a219&#45;c813dcb851ae</title>
<path fill="none" stroke="black" d="M234.042,-912.721C234.988,-921.014 235.541,-931.641 235.701,-942.663"/>
<polygon fill="black" stroke="black" points="232.202,-942.853 235.738,-952.84 239.202,-942.828 232.202,-942.853"/>
</g>
<!-- pr_bec229f6&#45;fcef&#45;47ae&#45;8650&#45;ead69278b29e -->
<g id="node12" class="node"><title>pr_bec229f6&#45;fcef&#45;47ae&#45;8650&#45;ead69278b29e</title>
<polygon fill="none" stroke="black" points="216,-619.884 118,-619.884 118,-521.884 216,-521.884 216,-619.884"/>
<text text-anchor="middle" x="167" y="-569.684" font-family="Times,serif" font-size="4.00">pr_bec229f6&#45;fcef&#45;47ae&#45;8650&#45;ead69278b29e</text>
</g>
<!-- FADD&#45;&gt;pr_bec229f6&#45;fcef&#45;47ae&#45;8650&#45;ead69278b29e -->
<g id="edge10" class="edge"><title>FADD&#45;&gt;pr_bec229f6&#45;fcef&#45;47ae&#45;8650&#45;ead69278b29e</title>
<path fill="none" stroke="black" d="M227.406,-877.047C224.641,-848.384 218.432,-789.186 210,-739.553 203.702,-702.482 201.311,-693.316 192,-656.884 189.762,-648.129 187.235,-638.915 184.669,-629.915"/>
<polygon fill="black" stroke="black" points="188.019,-628.9 181.881,-620.264 181.294,-630.843 188.019,-628.9"/>
</g>
<!-- FADD&#45;&gt;pr_2a322af8&#45;f96f&#45;459a&#45;ac93&#45;442d249a6401 -->
<g id="edge11" class="edge"><title>FADD&#45;&gt;pr_2a322af8&#45;f96f&#45;459a&#45;ac93&#45;442d249a6401</title>
<path fill="none" stroke="black" d="M218.615,-880.17C212.015,-871.192 202.991,-858.917 193.717,-846.3"/>
<polygon fill="black" stroke="black" points="196.352,-843.976 187.609,-837.992 190.712,-848.122 196.352,-843.976"/>
</g>
<!-- pr_9a39a951&#45;2495&#45;46a5&#45;a219&#45;c813dcb851ae&#45;&gt;FADD -->
<g id="edge12" class="edge"><title>pr_9a39a951&#45;2495&#45;46a5&#45;a219&#45;c813dcb851ae&#45;&gt;FADD</title>
<path fill="none" stroke="black" d="M222.262,-952.84C222.187,-942.437 222.457,-931.859 223.074,-922.709"/>
<polygon fill="black" stroke="black" points="226.563,-922.99 223.958,-912.721 219.59,-922.373 226.563,-922.99"/>
</g>
<!-- CASP8 -->
<g id="node11" class="node"><title>CASP8</title>
<ellipse fill="none" stroke="black" cx="167" cy="-463.141" rx="18" ry="18"/>
<text text-anchor="middle" x="167" y="-461.941" font-family="Times,serif" font-size="4.00">CASP8</text>
</g>
<!-- CASP8&#45;&gt;pr_bec229f6&#45;fcef&#45;47ae&#45;8650&#45;ead69278b29e -->
<g id="edge13" class="edge"><title>CASP8&#45;&gt;pr_bec229f6&#45;fcef&#45;47ae&#45;8650&#45;ead69278b29e</title>
<path fill="none" stroke="black" d="M172.037,-480.438C173.023,-489.019 173.583,-500.119 173.718,-511.563"/>
<polygon fill="black" stroke="black" points="170.218,-511.657 173.727,-521.654 177.218,-511.651 170.218,-511.657"/>
</g>
<!-- pr_16824da9&#45;16a4&#45;44ea&#45;a176&#45;2adeb079dd7e -->
<g id="node15" class="node"><title>pr_16824da9&#45;16a4&#45;44ea&#45;a176&#45;2adeb079dd7e</title>
<polygon fill="none" stroke="black" points="217.5,-405.397 116.5,-405.397 116.5,-304.397 217.5,-304.397 217.5,-405.397"/>
<text text-anchor="middle" x="167" y="-353.697" font-family="Times,serif" font-size="4.00">pr_16824da9&#45;16a4&#45;44ea&#45;a176&#45;2adeb079dd7e</text>
</g>
<!-- CASP8&#45;&gt;pr_16824da9&#45;16a4&#45;44ea&#45;a176&#45;2adeb079dd7e -->
<g id="edge14" class="edge"><title>CASP8&#45;&gt;pr_16824da9&#45;16a4&#45;44ea&#45;a176&#45;2adeb079dd7e</title>
<path fill="none" stroke="black" d="M167,-445.071C167,-436.892 167,-426.554 167,-415.839"/>
<polygon fill="black" stroke="black" points="170.5,-415.51 167,-405.51 163.5,-415.51 170.5,-415.51"/>
</g>
<!-- pr_b08c8c68&#45;67d5&#45;4021&#45;8a27&#45;cff97f9a646a -->
<g id="node21" class="node"><title>pr_b08c8c68&#45;67d5&#45;4021&#45;8a27&#45;cff97f9a646a</title>
<polygon fill="none" stroke="black" points="98,-403.897 7.10543e-15,-403.897 7.10543e-15,-305.897 98,-305.897 98,-403.897"/>
<text text-anchor="middle" x="49" y="-353.697" font-family="Times,serif" font-size="4.00">pr_b08c8c68&#45;67d5&#45;4021&#45;8a27&#45;cff97f9a646a</text>
</g>
<!-- CASP8&#45;&gt;pr_b08c8c68&#45;67d5&#45;4021&#45;8a27&#45;cff97f9a646a -->
<g id="edge15" class="edge"><title>CASP8&#45;&gt;pr_b08c8c68&#45;67d5&#45;4021&#45;8a27&#45;cff97f9a646a</title>
<path fill="none" stroke="black" d="M153.921,-450.365C142.108,-439.728 123.866,-423.304 105.886,-407.116"/>
<polygon fill="black" stroke="black" points="107.99,-404.3 98.2162,-400.21 103.306,-409.502 107.99,-404.3"/>
</g>
<!-- pr_bec047b6&#45;a753&#45;432e&#45;9cb4&#45;7d2ef9258eab -->
<g id="node33" class="node"><title>pr_bec047b6&#45;a753&#45;432e&#45;9cb4&#45;7d2ef9258eab</title>
<polygon fill="none" stroke="black" points="336,-404.897 236,-404.897 236,-304.897 336,-304.897 336,-404.897"/>
<text text-anchor="middle" x="286" y="-353.697" font-family="Times,serif" font-size="4.00">pr_bec047b6&#45;a753&#45;432e&#45;9cb4&#45;7d2ef9258eab</text>
</g>
<!-- CASP8&#45;&gt;pr_bec047b6&#45;a753&#45;432e&#45;9cb4&#45;7d2ef9258eab -->
<g id="edge16" class="edge"><title>CASP8&#45;&gt;pr_bec047b6&#45;a753&#45;432e&#45;9cb4&#45;7d2ef9258eab</title>
<path fill="none" stroke="black" d="M180.19,-450.365C191.998,-439.823 210.173,-423.595 228.148,-407.547"/>
<polygon fill="black" stroke="black" points="230.692,-409.968 235.82,-400.698 226.03,-404.747 230.692,-409.968"/>
</g>
<!-- pr_bec229f6&#45;fcef&#45;47ae&#45;8650&#45;ead69278b29e&#45;&gt;CASP8 -->
<g id="edge17" class="edge"><title>pr_bec229f6&#45;fcef&#45;47ae&#45;8650&#45;ead69278b29e&#45;&gt;CASP8</title>
<path fill="none" stroke="black" d="M160.273,-521.654C160.167,-511.005 160.428,-500.103 161.056,-490.694"/>
<polygon fill="black" stroke="black" points="164.569,-490.708 161.963,-480.438 157.596,-490.091 164.569,-490.708"/>
</g>
<!-- TRADD/FADD -->
<g id="node13" class="node"><title>TRADD/FADD</title>
<ellipse fill="none" stroke="black" cx="160" cy="-680.219" rx="23.1702" ry="23.1702"/>
<text text-anchor="middle" x="160" y="-679.019" font-family="Times,serif" font-size="4.00">TRADD/FADD</text>
</g>
<!-- TRADD/FADD&#45;&gt;pr_bec229f6&#45;fcef&#45;47ae&#45;8650&#45;ead69278b29e -->
<g id="edge18" class="edge"><title>TRADD/FADD&#45;&gt;pr_bec229f6&#45;fcef&#45;47ae&#45;8650&#45;ead69278b29e</title>
<path fill="none" stroke="black" d="M161.467,-656.718C161.98,-648.863 162.581,-639.644 163.195,-630.233"/>
<polygon fill="black" stroke="black" points="166.704,-630.206 163.862,-619.999 159.719,-629.75 166.704,-630.206"/>
</g>
<!-- CASP3 -->
<g id="node14" class="node"><title>CASP3</title>
<ellipse fill="none" stroke="black" cx="167" cy="-238.698" rx="18" ry="18"/>
<text text-anchor="middle" x="167" y="-237.498" font-family="Times,serif" font-size="4.00">CASP3</text>
</g>
<!-- CASP3&#45;&gt;pr_16824da9&#45;16a4&#45;44ea&#45;a176&#45;2adeb079dd7e -->
<g id="edge19" class="edge"><title>CASP3&#45;&gt;pr_16824da9&#45;16a4&#45;44ea&#45;a176&#45;2adeb079dd7e</title>
<path fill="none" stroke="black" d="M171.92,-256.233C173.064,-266.391 173.671,-280.091 173.743,-294.012"/>
<polygon fill="black" stroke="black" points="170.242,-294.125 173.7,-304.14 177.242,-294.155 170.242,-294.125"/>
</g>
<!-- pr_16824da9&#45;16a4&#45;44ea&#45;a176&#45;2adeb079dd7e&#45;&gt;CASP3 -->
<g id="edge20" class="edge"><title>pr_16824da9&#45;16a4&#45;44ea&#45;a176&#45;2adeb079dd7e&#45;&gt;CASP3</title>
<path fill="none" stroke="black" d="M160.3,-304.14C160.122,-291.113 160.42,-277.568 161.193,-266.277"/>
<polygon fill="black" stroke="black" points="164.687,-266.503 162.08,-256.233 157.714,-265.887 164.687,-266.503"/>
</g>
<!-- CASP9 -->
<g id="node16" class="node"><title>CASP9</title>
<ellipse fill="none" stroke="black" cx="301" cy="-463.141" rx="18" ry="18"/>
<text text-anchor="middle" x="301" y="-461.941" font-family="Times,serif" font-size="4.00">CASP9</text>
</g>
<!-- CASP9&#45;&gt;pr_16824da9&#45;16a4&#45;44ea&#45;a176&#45;2adeb079dd7e -->
<g id="edge21" class="edge"><title>CASP9&#45;&gt;pr_16824da9&#45;16a4&#45;44ea&#45;a176&#45;2adeb079dd7e</title>
<path fill="none" stroke="black" d="M286.974,-451.62C272.005,-440.337 247.652,-421.825 227,-405.397 226.521,-405.016 226.04,-404.633 225.558,-404.248"/>
<polygon fill="black" stroke="black" points="227.624,-401.418 217.635,-397.885 223.24,-406.876 227.624,-401.418"/>
</g>
<!-- pr_0d32b9f4&#45;0923&#45;44c7&#45;88d6&#45;95e495e3e42b -->
<g id="node17" class="node"><title>pr_0d32b9f4&#45;0923&#45;44c7&#45;88d6&#45;95e495e3e42b</title>
<polygon fill="none" stroke="black" points="454,-404.897 354,-404.897 354,-304.897 454,-304.897 454,-404.897"/>
<text text-anchor="middle" x="404" y="-353.697" font-family="Times,serif" font-size="4.00">pr_0d32b9f4&#45;0923&#45;44c7&#45;88d6&#45;95e495e3e42b</text>
</g>
<!-- CASP9&#45;&gt;pr_0d32b9f4&#45;0923&#45;44c7&#45;88d6&#45;95e495e3e42b -->
<g id="edge22" class="edge"><title>CASP9&#45;&gt;pr_0d32b9f4&#45;0923&#45;44c7&#45;88d6&#45;95e495e3e42b</title>
<path fill="none" stroke="black" d="M310.477,-447.368C319.165,-437.074 332.497,-422.668 346.42,-408.328"/>
<polygon fill="black" stroke="black" points="349.239,-410.452 353.733,-400.858 344.237,-405.555 349.239,-410.452"/>
</g>
<!-- CASP9&#45;&gt;pr_bec047b6&#45;a753&#45;432e&#45;9cb4&#45;7d2ef9258eab -->
<g id="edge23" class="edge"><title>CASP9&#45;&gt;pr_bec047b6&#45;a753&#45;432e&#45;9cb4&#45;7d2ef9258eab</title>
<path fill="none" stroke="black" d="M298.59,-445.071C297.411,-436.717 295.913,-426.112 294.366,-415.154"/>
<polygon fill="black" stroke="black" points="297.803,-414.459 292.939,-405.046 290.872,-415.437 297.803,-414.459"/>
</g>
<!-- pr_0d32b9f4&#45;0923&#45;44c7&#45;88d6&#45;95e495e3e42b&#45;&gt;CASP9 -->
<g id="edge24" class="edge"><title>pr_0d32b9f4&#45;0923&#45;44c7&#45;88d6&#45;95e495e3e42b&#45;&gt;CASP9</title>
<path fill="none" stroke="black" d="M363.147,-404.981C349.495,-419.189 334.82,-433.786 323.094,-444.672"/>
<polygon fill="black" stroke="black" points="320.55,-442.253 315.496,-451.565 325.254,-447.438 320.55,-442.253"/>
</g>
<!-- Apoptosome -->
<g id="node18" class="node"><title>Apoptosome</title>
<ellipse fill="none" stroke="black" cx="426" cy="-463.141" rx="21.9898" ry="21.9898"/>
<text text-anchor="middle" x="426" y="-461.941" font-family="Times,serif" font-size="4.00">Apoptosome</text>
</g>
<!-- Apoptosome&#45;&gt;pr_0d32b9f4&#45;0923&#45;44c7&#45;88d6&#45;95e495e3e42b -->
<g id="edge25" class="edge"><title>Apoptosome&#45;&gt;pr_0d32b9f4&#45;0923&#45;44c7&#45;88d6&#45;95e495e3e42b</title>
<path fill="none" stroke="black" d="M421.758,-441.656C420.146,-433.869 418.217,-424.554 416.234,-414.978"/>
<polygon fill="black" stroke="black" points="419.614,-414.039 414.159,-404.956 412.759,-415.458 419.614,-414.039"/>
</g>
<!-- AKT -->
<g id="node19" class="node"><title>AKT</title>
<ellipse fill="none" stroke="black" cx="352" cy="-680.219" rx="18" ry="18"/>
<text text-anchor="middle" x="352" y="-679.019" font-family="Times,serif" font-size="4.00">AKT</text>
</g>
<!-- AKT&#45;&gt;pr_0d32b9f4&#45;0923&#45;44c7&#45;88d6&#45;95e495e3e42b -->
<g id="edge26" class="edge"><title>AKT&#45;&gt;pr_0d32b9f4&#45;0923&#45;44c7&#45;88d6&#45;95e495e3e42b</title>
<path fill="none" stroke="black" d="M354.723,-662.291C362.017,-616.933 382.272,-490.998 394.423,-415.445"/>
<polygon fill="black" stroke="black" points="397.949,-415.561 396.081,-405.132 391.038,-414.45 397.949,-415.561"/>
</g>
<!-- pr_17ff909b&#45;d768&#45;44f6&#45;b170&#45;e652f1968bc4 -->
<g id="node30" class="node"><title>pr_17ff909b&#45;d768&#45;44f6&#45;b170&#45;e652f1968bc4</title>
<polygon fill="none" stroke="black" points="489,-619.884 391,-619.884 391,-521.884 489,-521.884 489,-619.884"/>
<text text-anchor="middle" x="440" y="-569.684" font-family="Times,serif" font-size="4.00">pr_17ff909b&#45;d768&#45;44f6&#45;b170&#45;e652f1968bc4</text>
</g>
<!-- AKT&#45;&gt;pr_17ff909b&#45;d768&#45;44f6&#45;b170&#45;e652f1968bc4 -->
<g id="edge27" class="edge"><title>AKT&#45;&gt;pr_17ff909b&#45;d768&#45;44f6&#45;b170&#45;e652f1968bc4</title>
<path fill="none" stroke="black" d="M363.145,-665.625C371.106,-655.915 382.4,-642.139 393.887,-628.129"/>
<polygon fill="black" stroke="black" points="396.634,-630.298 400.268,-620.345 391.221,-625.86 396.634,-630.298"/>
</g>
<!-- pr_bb28e81b&#45;b557&#45;45ff&#45;8528&#45;0ee398f51834 -->
<g id="node34" class="node"><title>pr_bb28e81b&#45;b557&#45;45ff&#45;8528&#45;0ee398f51834</title>
<polygon fill="none" stroke="black" points="335,-619.884 237,-619.884 237,-521.884 335,-521.884 335,-619.884"/>
<text text-anchor="middle" x="286" y="-569.684" font-family="Times,serif" font-size="4.00">pr_bb28e81b&#45;b557&#45;45ff&#45;8528&#45;0ee398f51834</text>
</g>
<!-- AKT&#45;&gt;pr_bb28e81b&#45;b557&#45;45ff&#45;8528&#45;0ee398f51834 -->
<g id="edge28" class="edge"><title>AKT&#45;&gt;pr_bb28e81b&#45;b557&#45;45ff&#45;8528&#45;0ee398f51834</title>
<path fill="none" stroke="black" d="M339.615,-666.484C332.378,-656.919 323.142,-643.083 314.341,-628.932"/>
<polygon fill="black" stroke="black" points="317.147,-626.814 308.938,-620.116 311.179,-630.471 317.147,-626.814"/>
</g>
<!-- BID -->
<g id="node20" class="node"><title>BID</title>
<ellipse fill="none" stroke="black" cx="49" cy="-238.698" rx="18" ry="18"/>
<text text-anchor="middle" x="49" y="-237.498" font-family="Times,serif" font-size="4.00">BID</text>
</g>
<!-- BID&#45;&gt;pr_b08c8c68&#45;67d5&#45;4021&#45;8a27&#45;cff97f9a646a -->
<g id="edge29" class="edge"><title>BID&#45;&gt;pr_b08c8c68&#45;67d5&#45;4021&#45;8a27&#45;cff97f9a646a</title>
<path fill="none" stroke="black" d="M53.9201,-256.232C55.1121,-266.819 55.7217,-281.253 55.749,-295.776"/>
<polygon fill="black" stroke="black" points="52.2491,-295.772 55.6749,-305.798 59.2489,-295.824 52.2491,-295.772"/>
</g>
<!-- pr_1fc8fdcd&#45;e221&#45;4372&#45;9390&#45;c9f26721c175 -->
<g id="node23" class="node"><title>pr_1fc8fdcd&#45;e221&#45;4372&#45;9390&#45;c9f26721c175</title>
<polygon fill="none" stroke="black" points="280,-171.5 182,-171.5 182,-73.5 280,-73.5 280,-171.5"/>
<text text-anchor="middle" x="231" y="-121.3" font-family="Times,serif" font-size="4.00">pr_1fc8fdcd&#45;e221&#45;4372&#45;9390&#45;c9f26721c175</text>
</g>
<!-- BID&#45;&gt;pr_1fc8fdcd&#45;e221&#45;4372&#45;9390&#45;c9f26721c175 -->
<g id="edge30" class="edge"><title>BID&#45;&gt;pr_1fc8fdcd&#45;e221&#45;4372&#45;9390&#45;c9f26721c175</title>
<path fill="none" stroke="black" d="M63.8938,-228.353C87.5719,-213.496 135.04,-183.711 173.354,-159.671"/>
<polygon fill="black" stroke="black" points="175.265,-162.604 181.876,-154.324 171.545,-156.674 175.265,-162.604"/>
</g>
<!-- pr_b08c8c68&#45;67d5&#45;4021&#45;8a27&#45;cff97f9a646a&#45;&gt;BID -->
<g id="edge31" class="edge"><title>pr_b08c8c68&#45;67d5&#45;4021&#45;8a27&#45;cff97f9a646a&#45;&gt;BID</title>
<path fill="none" stroke="black" d="M42.3251,-305.798C42.0976,-292.263 42.3871,-278.037 43.1938,-266.264"/>
<polygon fill="black" stroke="black" points="46.6863,-266.502 44.0799,-256.232 39.7135,-265.886 46.6863,-266.502"/>
</g>
<!-- BAX -->
<g id="node22" class="node"><title>BAX</title>
<ellipse fill="none" stroke="black" cx="231" cy="-18" rx="18" ry="18"/>
<text text-anchor="middle" x="231" y="-16.8" font-family="Times,serif" font-size="4.00">BAX</text>
</g>
<!-- BAX&#45;&gt;pr_1fc8fdcd&#45;e221&#45;4372&#45;9390&#45;c9f26721c175 -->
<g id="edge32" class="edge"><title>BAX&#45;&gt;pr_1fc8fdcd&#45;e221&#45;4372&#45;9390&#45;c9f26721c175</title>
<path fill="none" stroke="black" d="M236.139,-35.6787C237.009,-43.3986 237.526,-53.0794 237.692,-63.1327"/>
<polygon fill="black" stroke="black" points="234.192,-63.2681 237.74,-73.2514 241.192,-63.2349 234.192,-63.2681"/>
</g>
<!-- pr_1fc8fdcd&#45;e221&#45;4372&#45;9390&#45;c9f26721c175&#45;&gt;BAX -->
<g id="edge33" class="edge"><title>pr_1fc8fdcd&#45;e221&#45;4372&#45;9390&#45;c9f26721c175&#45;&gt;BAX</title>
<path fill="none" stroke="black" d="M224.26,-73.2514C224.195,-63.759 224.44,-54.1287 224.994,-45.6693"/>
<polygon fill="black" stroke="black" points="228.483,-45.944 225.861,-35.6787 221.509,-45.3383 228.483,-45.944"/>
</g>
<!-- BIM/BAD/PUMA -->
<g id="node24" class="node"><title>BIM/BAD/PUMA</title>
<ellipse fill="none" stroke="black" cx="348" cy="-238.698" rx="25.9724" ry="25.9724"/>
<text text-anchor="middle" x="348" y="-237.498" font-family="Times,serif" font-size="4.00">BIM/BAD/PUMA</text>
</g>
<!-- BIM/BAD/PUMA&#45;&gt;pr_1fc8fdcd&#45;e221&#45;4372&#45;9390&#45;c9f26721c175 -->
<g id="edge34" class="edge"><title>BIM/BAD/PUMA&#45;&gt;pr_1fc8fdcd&#45;e221&#45;4372&#45;9390&#45;c9f26721c175</title>
<path fill="none" stroke="black" d="M329.719,-219.855C318.286,-208.696 302.88,-193.659 287.643,-178.787"/>
<polygon fill="black" stroke="black" points="289.796,-175.997 280.195,-171.517 284.906,-181.006 289.796,-175.997"/>
</g>
<!-- pr_64914555&#45;a0ed&#45;4ca1&#45;842b&#45;8dbef6638b47 -->
<g id="node40" class="node"><title>pr_64914555&#45;a0ed&#45;4ca1&#45;842b&#45;8dbef6638b47</title>
<polygon fill="none" stroke="black" points="398,-172.5 298,-172.5 298,-72.5 398,-72.5 398,-172.5"/>
<text text-anchor="middle" x="348" y="-121.3" font-family="Times,serif" font-size="4.00">pr_64914555&#45;a0ed&#45;4ca1&#45;842b&#45;8dbef6638b47</text>
</g>
<!-- BIM/BAD/PUMA&#45;&gt;pr_64914555&#45;a0ed&#45;4ca1&#45;842b&#45;8dbef6638b47 -->
<g id="edge35" class="edge"><title>BIM/BAD/PUMA&#45;&gt;pr_64914555&#45;a0ed&#45;4ca1&#45;842b&#45;8dbef6638b47</title>
<path fill="none" stroke="black" d="M342.343,-213.2C341.666,-204.26 341.304,-193.717 341.256,-183.06"/>
<polygon fill="black" stroke="black" points="344.756,-182.872 341.305,-172.855 337.757,-182.838 344.756,-182.872"/>
</g>
<!-- BCL2/BCL&#45;XL/MCL1 -->
<g id="node25" class="node"><title>BCL2/BCL&#45;XL/MCL1</title>
<ellipse fill="none" stroke="black" cx="422" cy="-238.698" rx="29.8983" ry="29.8983"/>
<text text-anchor="middle" x="422" y="-237.498" font-family="Times,serif" font-size="4.00">BCL2/BCL&#45;XL/MCL1</text>
</g>
<!-- BCL2/BCL&#45;XL/MCL1&#45;&gt;pr_1fc8fdcd&#45;e221&#45;4372&#45;9390&#45;c9f26721c175 -->
<g id="edge36" class="edge"><title>BCL2/BCL&#45;XL/MCL1&#45;&gt;pr_1fc8fdcd&#45;e221&#45;4372&#45;9390&#45;c9f26721c175</title>
<path fill="none" stroke="black" d="M399.17,-219.33C394.021,-215.639 388.459,-211.983 383,-209 343.741,-187.549 327.46,-195.852 289,-173 288.908,-172.945 288.815,-172.89 288.723,-172.835"/>
<polygon fill="black" stroke="black" points="290.462,-169.792 280.161,-167.314 286.669,-175.675 290.462,-169.792"/>
</g>
<!-- BCL2/BCL&#45;XL/MCL1&#45;&gt;pr_64914555&#45;a0ed&#45;4ca1&#45;842b&#45;8dbef6638b47 -->
<g id="edge37" class="edge"><title>BCL2/BCL&#45;XL/MCL1&#45;&gt;pr_64914555&#45;a0ed&#45;4ca1&#45;842b&#45;8dbef6638b47</title>
<path fill="none" stroke="black" d="M406.307,-213.48C400.153,-203.984 392.808,-192.648 385.439,-181.277"/>
<polygon fill="black" stroke="black" points="388.194,-179.092 379.819,-172.604 382.32,-182.899 388.194,-179.092"/>
</g>
<!-- pr_c04e4db2&#45;7083&#45;45c4&#45;b17a&#45;c621ea285a84 -->
<g id="node41" class="node"><title>pr_c04e4db2&#45;7083&#45;45c4&#45;b17a&#45;c621ea285a84</title>
<polygon fill="none" stroke="black" points="517.5,-173 416.5,-173 416.5,-72 517.5,-72 517.5,-173"/>
<text text-anchor="middle" x="467" y="-121.3" font-family="Times,serif" font-size="4.00">pr_c04e4db2&#45;7083&#45;45c4&#45;b17a&#45;c621ea285a84</text>
</g>
<!-- BCL2/BCL&#45;XL/MCL1&#45;&gt;pr_c04e4db2&#45;7083&#45;45c4&#45;b17a&#45;c621ea285a84 -->
<g id="edge38" class="edge"><title>BCL2/BCL&#45;XL/MCL1&#45;&gt;pr_c04e4db2&#45;7083&#45;45c4&#45;b17a&#45;c621ea285a84</title>
<path fill="none" stroke="black" d="M427.305,-209.176C429.973,-201.135 433.272,-192.075 436.835,-182.935"/>
<polygon fill="black" stroke="black" points="440.176,-184.006 440.626,-173.42 433.673,-181.414 440.176,-184.006"/>
</g>
<!-- Cytochrome C -->
<g id="node26" class="node"><title>Cytochrome C</title>
<ellipse fill="none" stroke="black" cx="557" cy="-680.219" rx="23.1702" ry="23.1702"/>
<text text-anchor="middle" x="557" y="-679.019" font-family="Times,serif" font-size="4.00">Cytochrome C</text>
</g>
<!-- pr_fb794cb6&#45;18dd&#45;4652&#45;97b5&#45;2be63e4aedc4 -->
<g id="node27" class="node"><title>pr_fb794cb6&#45;18dd&#45;4652&#45;97b5&#45;2be63e4aedc4</title>
<polygon fill="none" stroke="black" points="607,-620.884 507,-620.884 507,-520.884 607,-520.884 607,-620.884"/>
<text text-anchor="middle" x="557" y="-569.684" font-family="Times,serif" font-size="4.00">pr_fb794cb6&#45;18dd&#45;4652&#45;97b5&#45;2be63e4aedc4</text>
</g>
<!-- Cytochrome C&#45;&gt;pr_fb794cb6&#45;18dd&#45;4652&#45;97b5&#45;2be63e4aedc4 -->
<g id="edge39" class="edge"><title>Cytochrome C&#45;&gt;pr_fb794cb6&#45;18dd&#45;4652&#45;97b5&#45;2be63e4aedc4</title>
<path fill="none" stroke="black" d="M551.451,-657.498C550.785,-649.76 550.396,-640.63 550.284,-631.265"/>
<polygon fill="black" stroke="black" points="553.784,-631.061 550.271,-621.065 546.784,-631.07 553.784,-631.061"/>
</g>
<!-- Cytochrome C&#45;&gt;pr_17ff909b&#45;d768&#45;44f6&#45;b170&#45;e652f1968bc4 -->
<g id="edge40" class="edge"><title>Cytochrome C&#45;&gt;pr_17ff909b&#45;d768&#45;44f6&#45;b170&#45;e652f1968bc4</title>
<path fill="none" stroke="black" d="M540.237,-663.84C528.725,-653.279 512.714,-638.591 496.863,-624.05"/>
<polygon fill="black" stroke="black" points="498.85,-621.123 489.115,-616.942 494.118,-626.281 498.85,-621.123"/>
</g>
<!-- pr_fb794cb6&#45;18dd&#45;4652&#45;97b5&#45;2be63e4aedc4&#45;&gt;Cytochrome C -->
<g id="edge41" class="edge"><title>pr_fb794cb6&#45;18dd&#45;4652&#45;97b5&#45;2be63e4aedc4&#45;&gt;Cytochrome C</title>
<path fill="none" stroke="black" d="M563.729,-621.065C563.813,-630.049 563.644,-639.202 563.221,-647.508"/>
<polygon fill="black" stroke="black" points="559.728,-647.285 562.549,-657.498 566.712,-647.755 559.728,-647.285"/>
</g>
<!-- MAPK14 -->
<g id="node28" class="node"><title>MAPK14</title>
<ellipse fill="none" stroke="black" cx="648" cy="-680.219" rx="18" ry="18"/>
<text text-anchor="middle" x="648" y="-679.019" font-family="Times,serif" font-size="4.00">MAPK14</text>
</g>
<!-- MAPK14&#45;&gt;pr_fb794cb6&#45;18dd&#45;4652&#45;97b5&#45;2be63e4aedc4 -->
<g id="edge42" class="edge"><title>MAPK14&#45;&gt;pr_fb794cb6&#45;18dd&#45;4652&#45;97b5&#45;2be63e4aedc4</title>
<path fill="none" stroke="black" d="M636.842,-666.057C628.753,-656.516 617.202,-642.892 605.39,-628.96"/>
<polygon fill="black" stroke="black" points="607.958,-626.576 598.821,-621.212 602.618,-631.103 607.958,-626.576"/>
</g>
<!-- pr_bf29ca1f&#45;4323&#45;43d3&#45;a12c&#45;ed9a869a5a85 -->
<g id="node38" class="node"><title>pr_bf29ca1f&#45;4323&#45;43d3&#45;a12c&#45;ed9a869a5a85</title>
<polygon fill="none" stroke="black" points="724.5,-620.384 625.5,-620.384 625.5,-521.384 724.5,-521.384 724.5,-620.384"/>
<text text-anchor="middle" x="675" y="-569.684" font-family="Times,serif" font-size="4.00">pr_bf29ca1f&#45;4323&#45;43d3&#45;a12c&#45;ed9a869a5a85</text>
</g>
<!-- MAPK14&#45;&gt;pr_bf29ca1f&#45;4323&#45;43d3&#45;a12c&#45;ed9a869a5a85 -->
<g id="edge43" class="edge"><title>MAPK14&#45;&gt;pr_bf29ca1f&#45;4323&#45;43d3&#45;a12c&#45;ed9a869a5a85</title>
<path fill="none" stroke="black" d="M647.223,-661.973C648.478,-653.177 650.775,-641.909 653.569,-630.342"/>
<polygon fill="black" stroke="black" points="656.974,-631.154 656.02,-620.602 650.185,-629.446 656.974,-631.154"/>
</g>
<!-- APAF1 -->
<g id="node29" class="node"><title>APAF1</title>
<ellipse fill="none" stroke="black" cx="479" cy="-680.219" rx="18" ry="18"/>
<text text-anchor="middle" x="479" y="-679.019" font-family="Times,serif" font-size="4.00">APAF1</text>
</g>
<!-- APAF1&#45;&gt;pr_17ff909b&#45;d768&#45;44f6&#45;b170&#45;e652f1968bc4 -->
<g id="edge44" class="edge"><title>APAF1&#45;&gt;pr_17ff909b&#45;d768&#45;44f6&#45;b170&#45;e652f1968bc4</title>
<path fill="none" stroke="black" d="M473.077,-662.917C469.749,-653.757 465.373,-641.714 460.899,-629.4"/>
<polygon fill="black" stroke="black" points="464.178,-628.177 457.473,-619.974 457.599,-630.568 464.178,-628.177"/>
</g>
<!-- pr_17ff909b&#45;d768&#45;44f6&#45;b170&#45;e652f1968bc4&#45;&gt;Apoptosome -->
<g id="edge45" class="edge"><title>pr_17ff909b&#45;d768&#45;44f6&#45;b170&#45;e652f1968bc4&#45;&gt;Apoptosome</title>
<path fill="none" stroke="black" d="M433.615,-521.654C432.408,-512.539 431.176,-503.238 430.065,-494.847"/>
<polygon fill="black" stroke="black" points="433.516,-494.241 428.733,-484.787 426.576,-495.16 433.516,-494.241"/>
</g>
<!-- Pro&#45;casp9 -->
<g id="node31" class="node"><title>Pro&#45;casp9</title>
<ellipse fill="none" stroke="black" cx="424" cy="-680.219" rx="18.6233" ry="18.6233"/>
<text text-anchor="middle" x="424" y="-679.019" font-family="Times,serif" font-size="4.00">Pro&#45;casp9</text>
</g>
<!-- Pro&#45;casp9&#45;&gt;pr_17ff909b&#45;d768&#45;44f6&#45;b170&#45;e652f1968bc4 -->
<g id="edge46" class="edge"><title>Pro&#45;casp9&#45;&gt;pr_17ff909b&#45;d768&#45;44f6&#45;b170&#45;e652f1968bc4</title>
<path fill="none" stroke="black" d="M426.642,-661.494C427.946,-652.744 429.602,-641.635 431.301,-630.242"/>
<polygon fill="black" stroke="black" points="434.784,-630.615 432.796,-620.209 427.86,-629.583 434.784,-630.615"/>
</g>
<!-- CASP7 -->
<g id="node32" class="node"><title>CASP7</title>
<ellipse fill="none" stroke="black" cx="286" cy="-238.698" rx="18" ry="18"/>
<text text-anchor="middle" x="286" y="-237.498" font-family="Times,serif" font-size="4.00">CASP7</text>
</g>
<!-- CASP7&#45;&gt;pr_bec047b6&#45;a753&#45;432e&#45;9cb4&#45;7d2ef9258eab -->
<g id="edge47" class="edge"><title>CASP7&#45;&gt;pr_bec047b6&#45;a753&#45;432e&#45;9cb4&#45;7d2ef9258eab</title>
<path fill="none" stroke="black" d="M290.914,-256.182C292.076,-266.472 292.686,-280.412 292.745,-294.536"/>
<polygon fill="black" stroke="black" points="289.244,-294.785 292.691,-304.804 296.244,-294.823 289.244,-294.785"/>
</g>
<!-- pr_bec047b6&#45;a753&#45;432e&#45;9cb4&#45;7d2ef9258eab&#45;&gt;CASP7 -->
<g id="edge48" class="edge"><title>pr_bec047b6&#45;a753&#45;432e&#45;9cb4&#45;7d2ef9258eab&#45;&gt;CASP7</title>
<path fill="none" stroke="black" d="M279.309,-304.804C279.113,-291.61 279.405,-277.834 280.187,-266.37"/>
<polygon fill="black" stroke="black" points="283.693,-266.451 281.086,-256.182 276.72,-265.836 283.693,-266.451"/>
</g>
<!-- pr_bb28e81b&#45;b557&#45;45ff&#45;8528&#45;0ee398f51834&#45;&gt;AKT -->
<g id="edge49" class="edge"><title>pr_bb28e81b&#45;b557&#45;45ff&#45;8528&#45;0ee398f51834&#45;&gt;AKT</title>
<path fill="none" stroke="black" d="M322.288,-619.974C329.607,-631.655 336.715,-643.692 342.23,-653.84"/>
<polygon fill="black" stroke="black" points="339.245,-655.683 346.985,-662.917 345.445,-652.434 339.245,-655.683"/>
</g>
<!-- SARS M -->
<g id="node35" class="node"><title>SARS M</title>
<ellipse fill="none" stroke="black" cx="286" cy="-680.219" rx="18" ry="18"/>
<text text-anchor="middle" x="286" y="-679.019" font-family="Times,serif" font-size="4.00">SARS M</text>
</g>
<!-- SARS M&#45;&gt;pr_bb28e81b&#45;b557&#45;45ff&#45;8528&#45;0ee398f51834 -->
<g id="edge50" class="edge"><title>SARS M&#45;&gt;pr_bb28e81b&#45;b557&#45;45ff&#45;8528&#45;0ee398f51834</title>
<path fill="none" stroke="black" d="M286,-661.973C286,-653.173 286,-641.899 286,-630.327"/>
<polygon fill="black" stroke="black" points="289.5,-630.135 286,-620.135 282.5,-630.135 289.5,-630.135"/>
</g>
<!-- pr_2a322af8&#45;f96f&#45;459a&#45;ac93&#45;442d249a6401&#45;&gt;TRADD/FADD -->
<g id="edge51" class="edge"><title>pr_2a322af8&#45;f96f&#45;459a&#45;ac93&#45;442d249a6401&#45;&gt;TRADD/FADD</title>
<path fill="none" stroke="black" d="M155.625,-739.364C156.275,-730.729 156.938,-721.917 157.545,-713.851"/>
<polygon fill="black" stroke="black" points="161.044,-713.988 158.305,-703.753 154.064,-713.462 161.044,-713.988"/>
</g>
<!-- TRADD -->
<g id="node37" class="node"><title>TRADD</title>
<ellipse fill="none" stroke="black" cx="94" cy="-895.297" rx="18" ry="18"/>
<text text-anchor="middle" x="94" y="-894.097" font-family="Times,serif" font-size="4.00">TRADD</text>
</g>
<!-- TRADD&#45;&gt;pr_2a322af8&#45;f96f&#45;459a&#45;ac93&#45;442d249a6401 -->
<g id="edge52" class="edge"><title>TRADD&#45;&gt;pr_2a322af8&#45;f96f&#45;459a&#45;ac93&#45;442d249a6401</title>
<path fill="none" stroke="black" d="M102.31,-879.289C107.2,-870.459 113.727,-858.671 120.439,-846.55"/>
<polygon fill="black" stroke="black" points="123.556,-848.146 125.338,-837.702 117.432,-844.755 123.556,-848.146"/>
</g>
<!-- pr_bf29ca1f&#45;4323&#45;43d3&#45;a12c&#45;ed9a869a5a85&#45;&gt;MAPK14 -->
<g id="edge53" class="edge"><title>pr_bf29ca1f&#45;4323&#45;43d3&#45;a12c&#45;ed9a869a5a85&#45;&gt;MAPK14</title>
<path fill="none" stroke="black" d="M669.457,-620.654C666.622,-632.403 663.273,-644.469 659.983,-654.572"/>
<polygon fill="black" stroke="black" points="656.58,-653.699 656.599,-664.294 663.191,-656 656.58,-653.699"/>
</g>
<!-- SARS 3a -->
<g id="node39" class="node"><title>SARS 3a</title>
<ellipse fill="none" stroke="black" cx="702" cy="-680.219" rx="18" ry="18"/>
<text text-anchor="middle" x="702" y="-679.019" font-family="Times,serif" font-size="4.00">SARS 3a</text>
</g>
<!-- SARS 3a&#45;&gt;pr_bf29ca1f&#45;4323&#45;43d3&#45;a12c&#45;ed9a869a5a85 -->
<g id="edge54" class="edge"><title>SARS 3a&#45;&gt;pr_bf29ca1f&#45;4323&#45;43d3&#45;a12c&#45;ed9a869a5a85</title>
<path fill="none" stroke="black" d="M697.781,-662.448C695.557,-653.603 692.68,-642.168 689.725,-630.419"/>
<polygon fill="black" stroke="black" points="693.07,-629.371 687.236,-620.527 686.281,-631.078 693.07,-629.371"/>
</g>
<!-- pr_64914555&#45;a0ed&#45;4ca1&#45;842b&#45;8dbef6638b47&#45;&gt;BIM/BAD/PUMA -->
<g id="edge55" class="edge"><title>pr_64914555&#45;a0ed&#45;4ca1&#45;842b&#45;8dbef6638b47&#45;&gt;BIM/BAD/PUMA</title>
<path fill="none" stroke="black" d="M354.695,-172.855C354.841,-182.997 354.698,-193.472 354.267,-202.967"/>
<polygon fill="black" stroke="black" points="350.758,-203.01 353.657,-213.2 357.746,-203.426 350.758,-203.01"/>
</g>
<!-- pr_c04e4db2&#45;7083&#45;45c4&#45;b17a&#45;c621ea285a84&#45;&gt;BCL2/BCL&#45;XL/MCL1 -->
<g id="edge56" class="edge"><title>pr_c04e4db2&#45;7083&#45;45c4&#45;b17a&#45;c621ea285a84&#45;&gt;BCL2/BCL&#45;XL/MCL1</title>
<path fill="none" stroke="black" d="M454.069,-173.32C450.126,-183.684 445.753,-194.372 441.502,-203.991"/>
<polygon fill="black" stroke="black" points="438.267,-202.648 437.311,-213.2 444.638,-205.548 438.267,-202.648"/>
</g>
<!-- SARS E_7a -->
<g id="node42" class="node"><title>SARS E_7a</title>
<ellipse fill="none" stroke="black" cx="490" cy="-238.698" rx="20.3062" ry="20.3062"/>
<text text-anchor="middle" x="490" y="-237.498" font-family="Times,serif" font-size="4.00">SARS E_7a</text>
</g>
<!-- SARS E_7a&#45;&gt;pr_c04e4db2&#45;7083&#45;45c4&#45;b17a&#45;c621ea285a84 -->
<g id="edge57" class="edge"><title>SARS E_7a&#45;&gt;pr_c04e4db2&#45;7083&#45;45c4&#45;b17a&#45;c621ea285a84</title>
<path fill="none" stroke="black" d="M486.202,-218.841C484.209,-208.946 481.645,-196.216 479.044,-183.301"/>
<polygon fill="black" stroke="black" points="482.462,-182.545 477.057,-173.433 475.6,-183.928 482.462,-182.545"/>
</g>
</g>
</svg>
