<?xml version="1.0" encoding="UTF-8" standalone="no"?>
<!DOCTYPE svg PUBLIC "-//W3C//DTD SVG 1.1//EN"
 "http://www.w3.org/Graphics/SVG/1.1/DTD/svg11.dtd">
<!-- Generated by graphviz version 2.38.0 (20140413.2041)
 -->
<!-- Title: G Pages: 1 -->
<svg width="936pt" height="1782pt"
 viewBox="0.00 0.00 935.50 1782.05" xmlns="http://www.w3.org/2000/svg" xmlns:xlink="http://www.w3.org/1999/xlink">
<g id="graph0" class="graph" transform="scale(1 1) rotate(0) translate(4 1778.05)">
<title>G</title>
<polygon fill="white" stroke="none" points="-4,4 -4,-1778.05 931.5,-1778.05 931.5,4 -4,4"/>
<!-- FASLG -->
<g id="node1" class="node"><title>FASLG</title>
<ellipse fill="none" stroke="black" cx="23" cy="-1756.05" rx="18" ry="18"/>
<text text-anchor="middle" x="23" y="-1754.85" font-family="Times,serif" font-size="4.00">FASLG</text>
</g>
<!-- pr_b211fe35&#45;b345&#45;4852&#45;9252&#45;62ebe8e67502 -->
<g id="node2" class="node"><title>pr_b211fe35&#45;b345&#45;4852&#45;9252&#45;62ebe8e67502</title>
<polygon fill="none" stroke="black" points="100,-1702.05 0,-1702.05 0,-1602.05 100,-1602.05 100,-1702.05"/>
<text text-anchor="middle" x="50" y="-1650.85" font-family="Times,serif" font-size="4.00">pr_b211fe35&#45;b345&#45;4852&#45;9252&#45;62ebe8e67502</text>
</g>
<!-- FASLG&#45;&gt;pr_b211fe35&#45;b345&#45;4852&#45;9252&#45;62ebe8e67502 -->
<g id="edge1" class="edge"><title>FASLG&#45;&gt;pr_b211fe35&#45;b345&#45;4852&#45;9252&#45;62ebe8e67502</title>
<path fill="none" stroke="black" d="M27.4585,-1738.2C29.4356,-1730.73 31.8915,-1721.46 34.448,-1711.8"/>
<polygon fill="black" stroke="black" points="37.8484,-1712.63 37.0239,-1702.07 31.0815,-1710.84 37.8484,-1712.63"/>
</g>
<!-- FAS/FASL -->
<g id="node4" class="node"><title>FAS/FASL</title>
<ellipse fill="none" stroke="black" cx="50" cy="-1546.42" rx="18.6233" ry="18.6233"/>
<text text-anchor="middle" x="50" y="-1545.22" font-family="Times,serif" font-size="4.00">FAS/FASL</text>
</g>
<!-- pr_b211fe35&#45;b345&#45;4852&#45;9252&#45;62ebe8e67502&#45;&gt;FAS/FASL -->
<g id="edge2" class="edge"><title>pr_b211fe35&#45;b345&#45;4852&#45;9252&#45;62ebe8e67502&#45;&gt;FAS/FASL</title>
<path fill="none" stroke="black" d="M50,-1601.97C50,-1592.8 50,-1583.52 50,-1575.28"/>
<polygon fill="black" stroke="black" points="53.5001,-1575.14 50,-1565.14 46.5001,-1575.14 53.5001,-1575.14"/>
</g>
<!-- FAS -->
<g id="node3" class="node"><title>FAS</title>
<ellipse fill="none" stroke="black" cx="77" cy="-1756.05" rx="18" ry="18"/>
<text text-anchor="middle" x="77" y="-1754.85" font-family="Times,serif" font-size="4.00">FAS</text>
</g>
<!-- FAS&#45;&gt;pr_b211fe35&#45;b345&#45;4852&#45;9252&#45;62ebe8e67502 -->
<g id="edge3" class="edge"><title>FAS&#45;&gt;pr_b211fe35&#45;b345&#45;4852&#45;9252&#45;62ebe8e67502</title>
<path fill="none" stroke="black" d="M72.5415,-1738.2C70.5644,-1730.73 68.1085,-1721.46 65.552,-1711.8"/>
<polygon fill="black" stroke="black" points="68.9185,-1710.84 62.9761,-1702.07 62.1516,-1712.63 68.9185,-1710.84"/>
</g>
<!-- pr_658a46c0&#45;796f&#45;4ebf&#45;9ecd&#45;18d1a8465cc2 -->
<g id="node6" class="node"><title>pr_658a46c0&#45;796f&#45;4ebf&#45;9ecd&#45;18d1a8465cc2</title>
<polygon fill="none" stroke="black" points="99.5,-1490.8 0.5,-1490.8 0.5,-1391.8 99.5,-1391.8 99.5,-1490.8"/>
<text text-anchor="middle" x="50" y="-1440.1" font-family="Times,serif" font-size="4.00">pr_658a46c0&#45;796f&#45;4ebf&#45;9ecd&#45;18d1a8465cc2</text>
</g>
<!-- FAS/FASL&#45;&gt;pr_658a46c0&#45;796f&#45;4ebf&#45;9ecd&#45;18d1a8465cc2 -->
<g id="edge4" class="edge"><title>FAS/FASL&#45;&gt;pr_658a46c0&#45;796f&#45;4ebf&#45;9ecd&#45;18d1a8465cc2</title>
<path fill="none" stroke="black" d="M50,-1527.46C50,-1519.92 50,-1510.69 50,-1501.11"/>
<polygon fill="black" stroke="black" points="53.5001,-1501.07 50,-1491.07 46.5001,-1501.07 53.5001,-1501.07"/>
</g>
<!-- FADD -->
<g id="node5" class="node"><title>FADD</title>
<ellipse fill="none" stroke="black" cx="50" cy="-1331.41" rx="18" ry="18"/>
<text text-anchor="middle" x="50" y="-1330.21" font-family="Times,serif" font-size="4.00">FADD</text>
</g>
<!-- FADD&#45;&gt;pr_658a46c0&#45;796f&#45;4ebf&#45;9ecd&#45;18d1a8465cc2 -->
<g id="edge5" class="edge"><title>FADD&#45;&gt;pr_658a46c0&#45;796f&#45;4ebf&#45;9ecd&#45;18d1a8465cc2</title>
<path fill="none" stroke="black" d="M55.005,-1348.75C56.0325,-1357.74 56.6063,-1369.49 56.7262,-1381.56"/>
<polygon fill="black" stroke="black" points="53.2262,-1381.72 56.7202,-1391.72 60.2262,-1381.72 53.2262,-1381.72"/>
</g>
<!-- pr_8133c3fd&#45;c5aa&#45;4b41&#45;84ec&#45;2a3b28f8284a -->
<g id="node8" class="node"><title>pr_8133c3fd&#45;c5aa&#45;4b41&#45;84ec&#45;2a3b28f8284a</title>
<polygon fill="none" stroke="black" points="131.5,-1055.34 32.5,-1055.34 32.5,-956.342 131.5,-956.342 131.5,-1055.34"/>
<text text-anchor="middle" x="82" y="-1004.64" font-family="Times,serif" font-size="4.00">pr_8133c3fd&#45;c5aa&#45;4b41&#45;84ec&#45;2a3b28f8284a</text>
</g>
<!-- FADD&#45;&gt;pr_8133c3fd&#45;c5aa&#45;4b41&#45;84ec&#45;2a3b28f8284a -->
<g id="edge6" class="edge"><title>FADD&#45;&gt;pr_8133c3fd&#45;c5aa&#45;4b41&#45;84ec&#45;2a3b28f8284a</title>
<path fill="none" stroke="black" d="M51.6754,-1313.47C56.1768,-1267.95 68.6969,-1141.35 76.1676,-1065.82"/>
<polygon fill="black" stroke="black" points="79.6856,-1065.8 77.1869,-1055.51 72.7196,-1065.12 79.6856,-1065.8"/>
</g>
<!-- pr_dfddfdc7&#45;fef4&#45;4bf2&#45;b5ca&#45;91ea2e9bc985 -->
<g id="node29" class="node"><title>pr_dfddfdc7&#45;fef4&#45;4bf2&#45;b5ca&#45;91ea2e9bc985</title>
<polygon fill="none" stroke="black" points="175.5,-1271.01 78.5,-1271.01 78.5,-1174.01 175.5,-1174.01 175.5,-1271.01"/>
<text text-anchor="middle" x="127" y="-1221.31" font-family="Times,serif" font-size="4.00">pr_dfddfdc7&#45;fef4&#45;4bf2&#45;b5ca&#45;91ea2e9bc985</text>
</g>
<!-- FADD&#45;&gt;pr_dfddfdc7&#45;fef4&#45;4bf2&#45;b5ca&#45;91ea2e9bc985 -->
<g id="edge7" class="edge"><title>FADD&#45;&gt;pr_dfddfdc7&#45;fef4&#45;4bf2&#45;b5ca&#45;91ea2e9bc985</title>
<path fill="none" stroke="black" d="M60.0664,-1316.43C66.9532,-1306.87 76.5824,-1293.5 86.3945,-1279.88"/>
<polygon fill="black" stroke="black" points="89.4998,-1281.56 92.5047,-1271.4 83.82,-1277.47 89.4998,-1281.56"/>
</g>
<!-- pr_658a46c0&#45;796f&#45;4ebf&#45;9ecd&#45;18d1a8465cc2&#45;&gt;FADD -->
<g id="edge8" class="edge"><title>pr_658a46c0&#45;796f&#45;4ebf&#45;9ecd&#45;18d1a8465cc2&#45;&gt;FADD</title>
<path fill="none" stroke="black" d="M43.2798,-1391.72C43.1536,-1380.38 43.4285,-1368.73 44.1043,-1358.78"/>
<polygon fill="black" stroke="black" points="47.5962,-1359.02 44.995,-1348.75 40.6237,-1358.41 47.5962,-1359.02"/>
</g>
<!-- CASP8 -->
<g id="node7" class="node"><title>CASP8</title>
<ellipse fill="none" stroke="black" cx="82" cy="-902.342" rx="18" ry="18"/>
<text text-anchor="middle" x="82" y="-901.142" font-family="Times,serif" font-size="4.00">CASP8</text>
</g>
<!-- CASP8&#45;&gt;pr_8133c3fd&#45;c5aa&#45;4b41&#45;84ec&#45;2a3b28f8284a -->
<g id="edge9" class="edge"><title>CASP8&#45;&gt;pr_8133c3fd&#45;c5aa&#45;4b41&#45;84ec&#45;2a3b28f8284a</title>
<path fill="none" stroke="black" d="M87.1535,-919.989C87.9879,-927.375 88.4952,-936.554 88.6755,-946.121"/>
<polygon fill="black" stroke="black" points="85.1758,-946.197 88.745,-956.173 92.1756,-946.149 85.1758,-946.197"/>
</g>
<!-- pr_69fb59ec&#45;66cf&#45;4e7a&#45;9982&#45;cb11cc0255b5 -->
<g id="node11" class="node"><title>pr_69fb59ec&#45;66cf&#45;4e7a&#45;9982&#45;cb11cc0255b5</title>
<polygon fill="none" stroke="black" points="131.5,-847.842 32.5,-847.842 32.5,-748.842 131.5,-748.842 131.5,-847.842"/>
<text text-anchor="middle" x="82" y="-797.142" font-family="Times,serif" font-size="4.00">pr_69fb59ec&#45;66cf&#45;4e7a&#45;9982&#45;cb11cc0255b5</text>
</g>
<!-- CASP8&#45;&gt;pr_69fb59ec&#45;66cf&#45;4e7a&#45;9982&#45;cb11cc0255b5 -->
<g id="edge10" class="edge"><title>CASP8&#45;&gt;pr_69fb59ec&#45;66cf&#45;4e7a&#45;9982&#45;cb11cc0255b5</title>
<path fill="none" stroke="black" d="M82,-884.039C82,-876.692 82,-867.658 82,-858.255"/>
<polygon fill="black" stroke="black" points="85.5001,-857.97 82,-847.97 78.5001,-857.971 85.5001,-857.97"/>
</g>
<!-- pr_d33ab1aa&#45;1132&#45;4b4e&#45;a08d&#45;490f9a57963a -->
<g id="node17" class="node"><title>pr_d33ab1aa&#45;1132&#45;4b4e&#45;a08d&#45;490f9a57963a</title>
<polygon fill="none" stroke="black" points="232,-402.458 132,-402.458 132,-302.458 232,-302.458 232,-402.458"/>
<text text-anchor="middle" x="182" y="-351.258" font-family="Times,serif" font-size="4.00">pr_d33ab1aa&#45;1132&#45;4b4e&#45;a08d&#45;490f9a57963a</text>
</g>
<!-- CASP8&#45;&gt;pr_d33ab1aa&#45;1132&#45;4b4e&#45;a08d&#45;490f9a57963a -->
<g id="edge11" class="edge"><title>CASP8&#45;&gt;pr_d33ab1aa&#45;1132&#45;4b4e&#45;a08d&#45;490f9a57963a</title>
<path fill="none" stroke="black" d="M66.8306,-892.297C52.9082,-883.108 32.9781,-867.518 23,-848.342 -9.39067,-786.091 4,-761.772 4,-691.598 4,-691.598 4,-691.598 4,-582.355 4,-502.794 71.8424,-434.228 123.76,-393.404"/>
<polygon fill="black" stroke="black" points="126.162,-395.972 131.943,-387.093 121.887,-390.429 126.162,-395.972"/>
</g>
<!-- pr_d12579b1&#45;902d&#45;4c5e&#45;bce5&#45;eb1fe6522db0 -->
<g id="node26" class="node"><title>pr_d12579b1&#45;902d&#45;4c5e&#45;bce5&#45;eb1fe6522db0</title>
<polygon fill="none" stroke="black" points="250,-848.342 150,-848.342 150,-748.342 250,-748.342 250,-848.342"/>
<text text-anchor="middle" x="200" y="-797.142" font-family="Times,serif" font-size="4.00">pr_d12579b1&#45;902d&#45;4c5e&#45;bce5&#45;eb1fe6522db0</text>
</g>
<!-- CASP8&#45;&gt;pr_d12579b1&#45;902d&#45;4c5e&#45;bce5&#45;eb1fe6522db0 -->
<g id="edge12" class="edge"><title>CASP8&#45;&gt;pr_d12579b1&#45;902d&#45;4c5e&#45;bce5&#45;eb1fe6522db0</title>
<path fill="none" stroke="black" d="M95.5361,-889.641C107.085,-879.658 124.532,-864.577 141.877,-849.583"/>
<polygon fill="black" stroke="black" points="144.542,-851.906 149.818,-842.719 139.964,-846.611 144.542,-851.906"/>
</g>
<!-- pr_8133c3fd&#45;c5aa&#45;4b41&#45;84ec&#45;2a3b28f8284a&#45;&gt;CASP8 -->
<g id="edge13" class="edge"><title>pr_8133c3fd&#45;c5aa&#45;4b41&#45;84ec&#45;2a3b28f8284a&#45;&gt;CASP8</title>
<path fill="none" stroke="black" d="M75.255,-956.173C75.2116,-947.218 75.4487,-938.177 75.9665,-930.167"/>
<polygon fill="black" stroke="black" points="79.4721,-930.253 76.8465,-919.989 72.4981,-929.65 79.4721,-930.253"/>
</g>
<!-- TRADD/FADD -->
<g id="node9" class="node"><title>TRADD/FADD</title>
<ellipse fill="none" stroke="black" cx="114" cy="-1114.68" rx="23.1702" ry="23.1702"/>
<text text-anchor="middle" x="114" y="-1113.48" font-family="Times,serif" font-size="4.00">TRADD/FADD</text>
</g>
<!-- TRADD/FADD&#45;&gt;pr_8133c3fd&#45;c5aa&#45;4b41&#45;84ec&#45;2a3b28f8284a -->
<g id="edge14" class="edge"><title>TRADD/FADD&#45;&gt;pr_8133c3fd&#45;c5aa&#45;4b41&#45;84ec&#45;2a3b28f8284a</title>
<path fill="none" stroke="black" d="M107.524,-1092.06C105.141,-1084.1 102.314,-1074.66 99.4254,-1065.02"/>
<polygon fill="black" stroke="black" points="102.752,-1063.93 96.5297,-1055.35 96.0463,-1065.93 102.752,-1063.93"/>
</g>
<!-- CASP3 -->
<g id="node10" class="node"><title>CASP3</title>
<ellipse fill="none" stroke="black" cx="82" cy="-690.598" rx="18" ry="18"/>
<text text-anchor="middle" x="82" y="-689.398" font-family="Times,serif" font-size="4.00">CASP3</text>
</g>
<!-- CASP3&#45;&gt;pr_69fb59ec&#45;66cf&#45;4e7a&#45;9982&#45;cb11cc0255b5 -->
<g id="edge15" class="edge"><title>CASP3&#45;&gt;pr_69fb59ec&#45;66cf&#45;4e7a&#45;9982&#45;cb11cc0255b5</title>
<path fill="none" stroke="black" d="M87.0802,-708.277C88.0262,-716.686 88.5702,-727.445 88.7123,-738.556"/>
<polygon fill="black" stroke="black" points="85.2127,-738.809 88.7298,-748.803 92.2126,-738.797 85.2127,-738.809"/>
</g>
<!-- pr_69fb59ec&#45;66cf&#45;4e7a&#45;9982&#45;cb11cc0255b5&#45;&gt;CASP3 -->
<g id="edge16" class="edge"><title>pr_69fb59ec&#45;66cf&#45;4e7a&#45;9982&#45;cb11cc0255b5&#45;&gt;CASP3</title>
<path fill="none" stroke="black" d="M75.2702,-748.803C75.1725,-738.344 75.4291,-727.659 76.04,-718.397"/>
<polygon fill="black" stroke="black" points="79.5404,-718.543 76.9198,-708.277 72.5667,-717.936 79.5404,-718.543"/>
</g>
<!-- CASP9 -->
<g id="node12" class="node"><title>CASP9</title>
<ellipse fill="none" stroke="black" cx="287" cy="-902.342" rx="18" ry="18"/>
<text text-anchor="middle" x="287" y="-901.142" font-family="Times,serif" font-size="4.00">CASP9</text>
</g>
<!-- CASP9&#45;&gt;pr_69fb59ec&#45;66cf&#45;4e7a&#45;9982&#45;cb11cc0255b5 -->
<g id="edge17" class="edge"><title>CASP9&#45;&gt;pr_69fb59ec&#45;66cf&#45;4e7a&#45;9982&#45;cb11cc0255b5</title>
<path fill="none" stroke="black" d="M269.525,-897.099C241.251,-889.785 184.276,-873.157 141,-848.342 140.805,-848.23 140.61,-848.117 140.415,-848.004"/>
<polygon fill="black" stroke="black" points="142.014,-844.876 131.683,-842.529 138.296,-850.806 142.014,-844.876"/>
</g>
<!-- pr_b65f4ad3&#45;a32f&#45;4d7a&#45;9ed6&#45;495d73c79f6b -->
<g id="node13" class="node"><title>pr_b65f4ad3&#45;a32f&#45;4d7a&#45;9ed6&#45;495d73c79f6b</title>
<polygon fill="none" stroke="black" points="372,-632.355 274,-632.355 274,-534.355 372,-534.355 372,-632.355"/>
<text text-anchor="middle" x="323" y="-582.155" font-family="Times,serif" font-size="4.00">pr_b65f4ad3&#45;a32f&#45;4d7a&#45;9ed6&#45;495d73c79f6b</text>
</g>
<!-- CASP9&#45;&gt;pr_b65f4ad3&#45;a32f&#45;4d7a&#45;9ed6&#45;495d73c79f6b -->
<g id="edge18" class="edge"><title>CASP9&#45;&gt;pr_b65f4ad3&#45;a32f&#45;4d7a&#45;9ed6&#45;495d73c79f6b</title>
<path fill="none" stroke="black" d="M285.673,-884.299C286.981,-839.408 300.261,-716.301 311.032,-642.501"/>
<polygon fill="black" stroke="black" points="314.521,-642.835 312.534,-632.428 307.597,-641.803 314.521,-642.835"/>
</g>
<!-- CASP9&#45;&gt;pr_d12579b1&#45;902d&#45;4c5e&#45;bce5&#45;eb1fe6522db0 -->
<g id="edge19" class="edge"><title>CASP9&#45;&gt;pr_d12579b1&#45;902d&#45;4c5e&#45;bce5&#45;eb1fe6522db0</title>
<path fill="none" stroke="black" d="M275.626,-888.007C268.523,-879.679 258.838,-868.324 248.77,-856.52"/>
<polygon fill="black" stroke="black" points="251.275,-854.063 242.122,-848.726 245.949,-858.606 251.275,-854.063"/>
</g>
<!-- pr_01abf2e4&#45;d896&#45;4c68&#45;bf60&#45;13de910effe5 -->
<g id="node42" class="node"><title>pr_01abf2e4&#45;d896&#45;4c68&#45;bf60&#45;13de910effe5</title>
<polygon fill="none" stroke="black" points="422,-847.342 324,-847.342 324,-749.342 422,-749.342 422,-847.342"/>
<text text-anchor="middle" x="373" y="-797.142" font-family="Times,serif" font-size="4.00">pr_01abf2e4&#45;d896&#45;4c68&#45;bf60&#45;13de910effe5</text>
</g>
<!-- CASP9&#45;&gt;pr_01abf2e4&#45;d896&#45;4c68&#45;bf60&#45;13de910effe5 -->
<g id="edge20" class="edge"><title>CASP9&#45;&gt;pr_01abf2e4&#45;d896&#45;4c68&#45;bf60&#45;13de910effe5</title>
<path fill="none" stroke="black" d="M298.243,-888.007C305.414,-879.502 315.247,-867.839 325.426,-855.766"/>
<polygon fill="black" stroke="black" points="328.371,-857.704 332.141,-847.803 323.019,-853.192 328.371,-857.704"/>
</g>
<!-- pr_b65f4ad3&#45;a32f&#45;4d7a&#45;9ed6&#45;495d73c79f6b&#45;&gt;CASP9 -->
<g id="edge21" class="edge"><title>pr_b65f4ad3&#45;a32f&#45;4d7a&#45;9ed6&#45;495d73c79f6b&#45;&gt;CASP9</title>
<path fill="none" stroke="black" d="M322.532,-632.625C317.466,-700.354 303.38,-821.272 293.981,-874.703"/>
<polygon fill="black" stroke="black" points="290.501,-874.273 292.11,-884.745 297.383,-875.556 290.501,-874.273"/>
</g>
<!-- Apoptosome -->
<g id="node14" class="node"><title>Apoptosome</title>
<ellipse fill="none" stroke="black" cx="360" cy="-690.598" rx="21.9898" ry="21.9898"/>
<text text-anchor="middle" x="360" y="-689.398" font-family="Times,serif" font-size="4.00">Apoptosome</text>
</g>
<!-- Apoptosome&#45;&gt;pr_b65f4ad3&#45;a32f&#45;4d7a&#45;9ed6&#45;495d73c79f6b -->
<g id="edge22" class="edge"><title>Apoptosome&#45;&gt;pr_b65f4ad3&#45;a32f&#45;4d7a&#45;9ed6&#45;495d73c79f6b</title>
<path fill="none" stroke="black" d="M353.041,-669.803C350.217,-661.771 346.796,-652.04 343.288,-642.063"/>
<polygon fill="black" stroke="black" points="346.534,-640.743 339.916,-632.47 339.93,-643.064 346.534,-640.743"/>
</g>
<!-- AKT1 -->
<g id="node15" class="node"><title>AKT1</title>
<ellipse fill="none" stroke="black" cx="528" cy="-902.342" rx="18" ry="18"/>
<text text-anchor="middle" x="528" y="-901.142" font-family="Times,serif" font-size="4.00">AKT1</text>
</g>
<!-- AKT1&#45;&gt;pr_b65f4ad3&#45;a32f&#45;4d7a&#45;9ed6&#45;495d73c79f6b -->
<g id="edge23" class="edge"><title>AKT1&#45;&gt;pr_b65f4ad3&#45;a32f&#45;4d7a&#45;9ed6&#45;495d73c79f6b</title>
<path fill="none" stroke="black" d="M513.624,-891.244C500.698,-881.529 481.958,-865.778 470,-848.342 443.019,-809 450.41,-791.919 431,-748.342 414.908,-712.215 412.406,-702.109 391,-668.855 384.93,-659.425 378.004,-649.809 370.949,-640.605"/>
<polygon fill="black" stroke="black" points="373.645,-638.37 364.734,-632.637 368.125,-642.675 373.645,-638.37"/>
</g>
<!-- pr_387246ac&#45;f9fd&#45;4704&#45;9626&#45;6fcec1a34c8e -->
<g id="node27" class="node"><title>pr_387246ac&#45;f9fd&#45;4704&#45;9626&#45;6fcec1a34c8e</title>
<polygon fill="none" stroke="black" points="694,-847.342 596,-847.342 596,-749.342 694,-749.342 694,-847.342"/>
<text text-anchor="middle" x="645" y="-797.142" font-family="Times,serif" font-size="4.00">pr_387246ac&#45;f9fd&#45;4704&#45;9626&#45;6fcec1a34c8e</text>
</g>
<!-- AKT1&#45;&gt;pr_387246ac&#45;f9fd&#45;4704&#45;9626&#45;6fcec1a34c8e -->
<g id="edge24" class="edge"><title>AKT1&#45;&gt;pr_387246ac&#45;f9fd&#45;4704&#45;9626&#45;6fcec1a34c8e</title>
<path fill="none" stroke="black" d="M538.991,-887.585C550.558,-876.166 569.305,-859.269 587.874,-843.309"/>
<polygon fill="black" stroke="black" points="590.466,-845.699 595.8,-836.545 585.922,-840.374 590.466,-845.699"/>
</g>
<!-- AKT1&#45;&gt;pr_01abf2e4&#45;d896&#45;4c68&#45;bf60&#45;13de910effe5 -->
<g id="edge25" class="edge"><title>AKT1&#45;&gt;pr_01abf2e4&#45;d896&#45;4c68&#45;bf60&#45;13de910effe5</title>
<path fill="none" stroke="black" d="M512.303,-893.16C493.666,-883.252 461.853,-865.721 436,-848.342 434.131,-847.085 432.246,-845.791 430.354,-844.469"/>
<polygon fill="black" stroke="black" points="432.212,-841.495 422.042,-838.523 428.139,-847.188 432.212,-841.495"/>
</g>
<!-- pr_e171a92a&#45;e588&#45;4306&#45;af63&#45;79ef48e56c8a -->
<g id="node44" class="node"><title>pr_e171a92a&#45;e588&#45;4306&#45;af63&#45;79ef48e56c8a</title>
<polygon fill="none" stroke="black" points="577.5,-847.842 478.5,-847.842 478.5,-748.842 577.5,-748.842 577.5,-847.842"/>
<text text-anchor="middle" x="528" y="-797.142" font-family="Times,serif" font-size="4.00">pr_e171a92a&#45;e588&#45;4306&#45;af63&#45;79ef48e56c8a</text>
</g>
<!-- AKT1&#45;&gt;pr_e171a92a&#45;e588&#45;4306&#45;af63&#45;79ef48e56c8a -->
<g id="edge26" class="edge"><title>AKT1&#45;&gt;pr_e171a92a&#45;e588&#45;4306&#45;af63&#45;79ef48e56c8a</title>
<path fill="none" stroke="black" d="M528,-884.039C528,-876.692 528,-867.658 528,-858.255"/>
<polygon fill="black" stroke="black" points="531.5,-857.97 528,-847.97 524.5,-857.971 531.5,-857.97"/>
</g>
<!-- BID -->
<g id="node16" class="node"><title>BID</title>
<ellipse fill="none" stroke="black" cx="182" cy="-236.229" rx="18" ry="18"/>
<text text-anchor="middle" x="182" y="-235.029" font-family="Times,serif" font-size="4.00">BID</text>
</g>
<!-- BID&#45;&gt;pr_d33ab1aa&#45;1132&#45;4b4e&#45;a08d&#45;490f9a57963a -->
<g id="edge27" class="edge"><title>BID&#45;&gt;pr_d33ab1aa&#45;1132&#45;4b4e&#45;a08d&#45;490f9a57963a</title>
<path fill="none" stroke="black" d="M186.914,-253.717C188.076,-264.01 188.686,-277.953 188.745,-292.081"/>
<polygon fill="black" stroke="black" points="185.244,-292.333 188.691,-302.351 192.244,-292.37 185.244,-292.333"/>
</g>
<!-- pr_c3e771f8&#45;ad5c&#45;4ad0&#45;bd12&#45;5fd54c4c0eef -->
<g id="node19" class="node"><title>pr_c3e771f8&#45;ad5c&#45;4ad0&#45;bd12&#45;5fd54c4c0eef</title>
<polygon fill="none" stroke="black" points="526,-170 428,-170 428,-72 526,-72 526,-170"/>
<text text-anchor="middle" x="477" y="-119.8" font-family="Times,serif" font-size="4.00">pr_c3e771f8&#45;ad5c&#45;4ad0&#45;bd12&#45;5fd54c4c0eef</text>
</g>
<!-- BID&#45;&gt;pr_c3e771f8&#45;ad5c&#45;4ad0&#45;bd12&#45;5fd54c4c0eef -->
<g id="edge28" class="edge"><title>BID&#45;&gt;pr_c3e771f8&#45;ad5c&#45;4ad0&#45;bd12&#45;5fd54c4c0eef</title>
<path fill="none" stroke="black" d="M198.706,-228.817C240.264,-212.865 349.89,-170.788 418.494,-144.456"/>
<polygon fill="black" stroke="black" points="419.809,-147.7 427.891,-140.849 417.301,-141.165 419.809,-147.7"/>
</g>
<!-- pr_d33ab1aa&#45;1132&#45;4b4e&#45;a08d&#45;490f9a57963a&#45;&gt;BID -->
<g id="edge29" class="edge"><title>pr_d33ab1aa&#45;1132&#45;4b4e&#45;a08d&#45;490f9a57963a&#45;&gt;BID</title>
<path fill="none" stroke="black" d="M175.309,-302.351C175.113,-289.154 175.405,-275.375 176.187,-263.908"/>
<polygon fill="black" stroke="black" points="179.693,-263.986 177.086,-253.717 172.72,-263.37 179.693,-263.986"/>
</g>
<!-- BAX -->
<g id="node18" class="node"><title>BAX</title>
<ellipse fill="none" stroke="black" cx="477" cy="-18" rx="18" ry="18"/>
<text text-anchor="middle" x="477" y="-16.8" font-family="Times,serif" font-size="4.00">BAX</text>
</g>
<!-- BAX&#45;&gt;pr_c3e771f8&#45;ad5c&#45;4ad0&#45;bd12&#45;5fd54c4c0eef -->
<g id="edge30" class="edge"><title>BAX&#45;&gt;pr_c3e771f8&#45;ad5c&#45;4ad0&#45;bd12&#45;5fd54c4c0eef</title>
<path fill="none" stroke="black" d="M482.166,-35.6781C483,-43.0739 483.505,-52.2609 483.68,-61.8239"/>
<polygon fill="black" stroke="black" points="480.18,-61.8887 483.743,-71.8664 487.18,-61.8446 480.18,-61.8887"/>
</g>
<!-- pr_c3e771f8&#45;ad5c&#45;4ad0&#45;bd12&#45;5fd54c4c0eef&#45;&gt;BAX -->
<g id="edge31" class="edge"><title>pr_c3e771f8&#45;ad5c&#45;4ad0&#45;bd12&#45;5fd54c4c0eef&#45;&gt;BAX</title>
<path fill="none" stroke="black" d="M470.257,-71.8664C470.207,-62.9242 470.44,-53.8829 470.955,-45.8672"/>
<polygon fill="black" stroke="black" points="474.462,-45.9418 471.834,-35.6781 467.488,-45.3405 474.462,-45.9418"/>
</g>
<!-- BAD/BBC3/BCL2L11 -->
<g id="node20" class="node"><title>BAD/BBC3/BCL2L11</title>
<ellipse fill="none" stroke="black" cx="477" cy="-236.229" rx="30.4594" ry="30.4594"/>
<text text-anchor="middle" x="477" y="-235.029" font-family="Times,serif" font-size="4.00">BAD/BBC3/BCL2L11</text>
</g>
<!-- BAD/BBC3/BCL2L11&#45;&gt;pr_c3e771f8&#45;ad5c&#45;4ad0&#45;bd12&#45;5fd54c4c0eef -->
<g id="edge32" class="edge"><title>BAD/BBC3/BCL2L11&#45;&gt;pr_c3e771f8&#45;ad5c&#45;4ad0&#45;bd12&#45;5fd54c4c0eef</title>
<path fill="none" stroke="black" d="M477,-205.775C477,-197.957 477,-189.233 477,-180.451"/>
<polygon fill="black" stroke="black" points="480.5,-180.164 477,-170.164 473.5,-180.164 480.5,-180.164"/>
</g>
<!-- pr_23a75e1c&#45;ee04&#45;4ab7&#45;bc63&#45;6fe829d5be15 -->
<g id="node34" class="node"><title>pr_23a75e1c&#45;ee04&#45;4ab7&#45;bc63&#45;6fe829d5be15</title>
<polygon fill="none" stroke="black" points="527,-402.458 427,-402.458 427,-302.458 527,-302.458 527,-402.458"/>
<text text-anchor="middle" x="477" y="-351.258" font-family="Times,serif" font-size="4.00">pr_23a75e1c&#45;ee04&#45;4ab7&#45;bc63&#45;6fe829d5be15</text>
</g>
<!-- BAD/BBC3/BCL2L11&#45;&gt;pr_23a75e1c&#45;ee04&#45;4ab7&#45;bc63&#45;6fe829d5be15 -->
<g id="edge33" class="edge"><title>BAD/BBC3/BCL2L11&#45;&gt;pr_23a75e1c&#45;ee04&#45;4ab7&#45;bc63&#45;6fe829d5be15</title>
<path fill="none" stroke="black" d="M482.96,-266.183C483.448,-274.167 483.709,-283.13 483.746,-292.167"/>
<polygon fill="black" stroke="black" points="480.245,-292.333 483.691,-302.351 487.245,-292.37 480.245,-292.333"/>
</g>
<!-- BCL2/MCL1/BCL2L1 -->
<g id="node21" class="node"><title>BCL2/MCL1/BCL2L1</title>
<ellipse fill="none" stroke="black" cx="555" cy="-468.156" rx="29.8983" ry="29.8983"/>
<text text-anchor="middle" x="555" y="-466.956" font-family="Times,serif" font-size="4.00">BCL2/MCL1/BCL2L1</text>
</g>
<!-- BCL2/MCL1/BCL2L1&#45;&gt;pr_c3e771f8&#45;ad5c&#45;4ad0&#45;bd12&#45;5fd54c4c0eef -->
<g id="edge34" class="edge"><title>BCL2/MCL1/BCL2L1&#45;&gt;pr_c3e771f8&#45;ad5c&#45;4ad0&#45;bd12&#45;5fd54c4c0eef</title>
<path fill="none" stroke="black" d="M553.897,-438.204C551.327,-389.221 542.93,-287.385 516,-206 513.107,-197.256 509.556,-188.22 505.786,-179.46"/>
<polygon fill="black" stroke="black" points="508.884,-177.812 501.63,-170.089 502.485,-180.649 508.884,-177.812"/>
</g>
<!-- BCL2/MCL1/BCL2L1&#45;&gt;pr_23a75e1c&#45;ee04&#45;4ab7&#45;bc63&#45;6fe829d5be15 -->
<g id="edge35" class="edge"><title>BCL2/MCL1/BCL2L1&#45;&gt;pr_23a75e1c&#45;ee04&#45;4ab7&#45;bc63&#45;6fe829d5be15</title>
<path fill="none" stroke="black" d="M538.649,-443.321C532.106,-433.785 524.263,-422.351 516.397,-410.886"/>
<polygon fill="black" stroke="black" points="519.228,-408.825 510.685,-402.559 513.456,-412.785 519.228,-408.825"/>
</g>
<!-- pr_bf1b4ddd&#45;d367&#45;48bc&#45;92de&#45;16abdca8af46 -->
<g id="node35" class="node"><title>pr_bf1b4ddd&#45;d367&#45;48bc&#45;92de&#45;16abdca8af46</title>
<polygon fill="none" stroke="black" points="604.5,-632.855 505.5,-632.855 505.5,-533.855 604.5,-533.855 604.5,-632.855"/>
<text text-anchor="middle" x="555" y="-582.155" font-family="Times,serif" font-size="4.00">pr_bf1b4ddd&#45;d367&#45;48bc&#45;92de&#45;16abdca8af46</text>
</g>
<!-- BCL2/MCL1/BCL2L1&#45;&gt;pr_bf1b4ddd&#45;d367&#45;48bc&#45;92de&#45;16abdca8af46 -->
<g id="edge36" class="edge"><title>BCL2/MCL1/BCL2L1&#45;&gt;pr_bf1b4ddd&#45;d367&#45;48bc&#45;92de&#45;16abdca8af46</title>
<path fill="none" stroke="black" d="M560.94,-497.529C561.439,-505.492 561.707,-514.457 561.745,-523.499"/>
<polygon fill="black" stroke="black" points="558.244,-523.673 561.691,-533.691 565.244,-523.71 558.244,-523.673"/>
</g>
<!-- CYCS -->
<g id="node22" class="node"><title>CYCS</title>
<ellipse fill="none" stroke="black" cx="762" cy="-902.342" rx="18" ry="18"/>
<text text-anchor="middle" x="762" y="-901.142" font-family="Times,serif" font-size="4.00">CYCS</text>
</g>
<!-- pr_1662875b&#45;212a&#45;44cb&#45;9180&#45;99cbe51fdd70 -->
<g id="node23" class="node"><title>pr_1662875b&#45;212a&#45;44cb&#45;9180&#45;99cbe51fdd70</title>
<polygon fill="none" stroke="black" points="812,-848.342 712,-848.342 712,-748.342 812,-748.342 812,-848.342"/>
<text text-anchor="middle" x="762" y="-797.142" font-family="Times,serif" font-size="4.00">pr_1662875b&#45;212a&#45;44cb&#45;9180&#45;99cbe51fdd70</text>
</g>
<!-- CYCS&#45;&gt;pr_1662875b&#45;212a&#45;44cb&#45;9180&#45;99cbe51fdd70 -->
<g id="edge37" class="edge"><title>CYCS&#45;&gt;pr_1662875b&#45;212a&#45;44cb&#45;9180&#45;99cbe51fdd70</title>
<path fill="none" stroke="black" d="M756.885,-884.954C756.042,-877.598 755.525,-868.422 755.334,-858.835"/>
<polygon fill="black" stroke="black" points="758.833,-858.726 755.253,-848.754 751.833,-858.782 758.833,-858.726"/>
</g>
<!-- CYCS&#45;&gt;pr_01abf2e4&#45;d896&#45;4c68&#45;bf60&#45;13de910effe5 -->
<g id="edge38" class="edge"><title>CYCS&#45;&gt;pr_01abf2e4&#45;d896&#45;4c68&#45;bf60&#45;13de910effe5</title>
<path fill="none" stroke="black" d="M744.42,-897.965C726.286,-894.496 697.18,-888.963 672,-884.342 582.306,-867.878 556.504,-877.206 470,-848.342 457.039,-844.017 443.648,-838.217 431.108,-832.124"/>
<polygon fill="black" stroke="black" points="432.656,-828.985 422.145,-827.652 429.53,-835.248 432.656,-828.985"/>
</g>
<!-- pr_1662875b&#45;212a&#45;44cb&#45;9180&#45;99cbe51fdd70&#45;&gt;CYCS -->
<g id="edge39" class="edge"><title>pr_1662875b&#45;212a&#45;44cb&#45;9180&#45;99cbe51fdd70&#45;&gt;CYCS</title>
<path fill="none" stroke="black" d="M768.747,-848.754C768.78,-857.743 768.533,-866.797 768.006,-874.799"/>
<polygon fill="black" stroke="black" points="764.503,-874.686 767.115,-884.954 771.476,-875.298 764.503,-874.686"/>
</g>
<!-- MAPK14 -->
<g id="node24" class="node"><title>MAPK14</title>
<ellipse fill="none" stroke="black" cx="852" cy="-902.342" rx="18" ry="18"/>
<text text-anchor="middle" x="852" y="-901.142" font-family="Times,serif" font-size="4.00">MAPK14</text>
</g>
<!-- MAPK14&#45;&gt;pr_1662875b&#45;212a&#45;44cb&#45;9180&#45;99cbe51fdd70 -->
<g id="edge40" class="edge"><title>MAPK14&#45;&gt;pr_1662875b&#45;212a&#45;44cb&#45;9180&#45;99cbe51fdd70</title>
<path fill="none" stroke="black" d="M840.234,-888.007C832.886,-879.679 822.867,-868.324 812.452,-856.52"/>
<polygon fill="black" stroke="black" points="814.815,-853.909 805.575,-848.726 809.567,-858.54 814.815,-853.909"/>
</g>
<!-- pr_0635eab9&#45;a7bf&#45;4fa1&#45;badc&#45;7f9fb8576f25 -->
<g id="node32" class="node"><title>pr_0635eab9&#45;a7bf&#45;4fa1&#45;badc&#45;7f9fb8576f25</title>
<polygon fill="none" stroke="black" points="927.5,-846.842 830.5,-846.842 830.5,-749.842 927.5,-749.842 927.5,-846.842"/>
<text text-anchor="middle" x="879" y="-797.142" font-family="Times,serif" font-size="4.00">pr_0635eab9&#45;a7bf&#45;4fa1&#45;badc&#45;7f9fb8576f25</text>
</g>
<!-- MAPK14&#45;&gt;pr_0635eab9&#45;a7bf&#45;4fa1&#45;badc&#45;7f9fb8576f25 -->
<g id="edge41" class="edge"><title>MAPK14&#45;&gt;pr_0635eab9&#45;a7bf&#45;4fa1&#45;badc&#45;7f9fb8576f25</title>
<path fill="none" stroke="black" d="M851.363,-884.039C852.559,-876.366 854.584,-866.85 857.039,-856.998"/>
<polygon fill="black" stroke="black" points="860.487,-857.649 859.623,-847.089 853.713,-855.883 860.487,-857.649"/>
</g>
<!-- CASP7 -->
<g id="node25" class="node"><title>CASP7</title>
<ellipse fill="none" stroke="black" cx="200" cy="-690.598" rx="18" ry="18"/>
<text text-anchor="middle" x="200" y="-689.398" font-family="Times,serif" font-size="4.00">CASP7</text>
</g>
<!-- CASP7&#45;&gt;pr_d12579b1&#45;902d&#45;4c5e&#45;bce5&#45;eb1fe6522db0 -->
<g id="edge42" class="edge"><title>CASP7&#45;&gt;pr_d12579b1&#45;902d&#45;4c5e&#45;bce5&#45;eb1fe6522db0</title>
<path fill="none" stroke="black" d="M205.055,-708.055C206.001,-716.361 206.551,-726.999 206.705,-738.016"/>
<polygon fill="black" stroke="black" points="203.206,-738.195 206.735,-748.185 210.205,-738.174 203.206,-738.195"/>
</g>
<!-- pr_d12579b1&#45;902d&#45;4c5e&#45;bce5&#45;eb1fe6522db0&#45;&gt;CASP7 -->
<g id="edge43" class="edge"><title>pr_d12579b1&#45;902d&#45;4c5e&#45;bce5&#45;eb1fe6522db0&#45;&gt;CASP7</title>
<path fill="none" stroke="black" d="M193.265,-748.185C193.182,-737.796 193.448,-727.214 194.063,-718.056"/>
<polygon fill="black" stroke="black" points="197.553,-718.324 194.945,-708.055 190.58,-717.709 197.553,-718.324"/>
</g>
<!-- pr_387246ac&#45;f9fd&#45;4704&#45;9626&#45;6fcec1a34c8e&#45;&gt;AKT1 -->
<g id="edge44" class="edge"><title>pr_387246ac&#45;f9fd&#45;4704&#45;9626&#45;6fcec1a34c8e&#45;&gt;AKT1</title>
<path fill="none" stroke="black" d="M596.602,-847.411C580.803,-861.266 564.006,-875.411 550.924,-885.736"/>
<polygon fill="black" stroke="black" points="548.683,-883.044 542.911,-891.929 552.963,-888.583 548.683,-883.044"/>
</g>
<!-- M -->
<g id="node28" class="node"><title>M</title>
<ellipse fill="none" stroke="black" cx="645" cy="-902.342" rx="18" ry="18"/>
<text text-anchor="middle" x="645" y="-901.142" font-family="Times,serif" font-size="4.00">M</text>
</g>
<!-- M&#45;&gt;pr_387246ac&#45;f9fd&#45;4704&#45;9626&#45;6fcec1a34c8e -->
<g id="edge45" class="edge"><title>M&#45;&gt;pr_387246ac&#45;f9fd&#45;4704&#45;9626&#45;6fcec1a34c8e</title>
<path fill="none" stroke="black" d="M645,-884.039C645,-876.53 645,-867.257 645,-857.631"/>
<polygon fill="black" stroke="black" points="648.5,-857.53 645,-847.53 641.5,-857.53 648.5,-857.53"/>
</g>
<!-- pr_dfddfdc7&#45;fef4&#45;4bf2&#45;b5ca&#45;91ea2e9bc985&#45;&gt;TRADD/FADD -->
<g id="edge46" class="edge"><title>pr_dfddfdc7&#45;fef4&#45;4bf2&#45;b5ca&#45;91ea2e9bc985&#45;&gt;TRADD/FADD</title>
<path fill="none" stroke="black" d="M121.147,-1173.86C120.078,-1165.16 118.986,-1156.27 117.988,-1148.14"/>
<polygon fill="black" stroke="black" points="121.432,-1147.47 116.739,-1137.97 114.484,-1148.33 121.432,-1147.47"/>
</g>
<!-- TRADD -->
<g id="node30" class="node"><title>TRADD</title>
<ellipse fill="none" stroke="black" cx="187" cy="-1331.41" rx="18" ry="18"/>
<text text-anchor="middle" x="187" y="-1330.21" font-family="Times,serif" font-size="4.00">TRADD</text>
</g>
<!-- TRADD&#45;&gt;pr_dfddfdc7&#45;fef4&#45;4bf2&#45;b5ca&#45;91ea2e9bc985 -->
<g id="edge47" class="edge"><title>TRADD&#45;&gt;pr_dfddfdc7&#45;fef4&#45;4bf2&#45;b5ca&#45;91ea2e9bc985</title>
<path fill="none" stroke="black" d="M178.403,-1315.09C173.138,-1305.71 166.037,-1293.06 158.796,-1280.16"/>
<polygon fill="black" stroke="black" points="161.728,-1278.23 153.781,-1271.22 155.624,-1281.66 161.728,-1278.23"/>
</g>
<!-- TNF/TNFRSF1A -->
<g id="node31" class="node"><title>TNF/TNFRSF1A</title>
<ellipse fill="none" stroke="black" cx="127" cy="-1331.41" rx="24.2908" ry="24.2908"/>
<text text-anchor="middle" x="127" y="-1330.21" font-family="Times,serif" font-size="4.00">TNF/TNFRSF1A</text>
</g>
<!-- TNF/TNFRSF1A&#45;&gt;pr_dfddfdc7&#45;fef4&#45;4bf2&#45;b5ca&#45;91ea2e9bc985 -->
<g id="edge48" class="edge"><title>TNF/TNFRSF1A&#45;&gt;pr_dfddfdc7&#45;fef4&#45;4bf2&#45;b5ca&#45;91ea2e9bc985</title>
<path fill="none" stroke="black" d="M127,-1306.95C127,-1299.27 127,-1290.37 127,-1281.3"/>
<polygon fill="black" stroke="black" points="130.5,-1281.04 127,-1271.04 123.5,-1281.04 130.5,-1281.04"/>
</g>
<!-- pr_0635eab9&#45;a7bf&#45;4fa1&#45;badc&#45;7f9fb8576f25&#45;&gt;MAPK14 -->
<g id="edge49" class="edge"><title>pr_0635eab9&#45;a7bf&#45;4fa1&#45;badc&#45;7f9fb8576f25&#45;&gt;MAPK14</title>
<path fill="none" stroke="black" d="M873.066,-847.215C870.444,-857.398 867.418,-867.748 864.42,-876.632"/>
<polygon fill="black" stroke="black" points="861.037,-875.697 860.939,-886.291 867.622,-878.07 861.037,-875.697"/>
</g>
<!-- Orf3a -->
<g id="node33" class="node"><title>Orf3a</title>
<ellipse fill="none" stroke="black" cx="906" cy="-902.342" rx="18" ry="18"/>
<text text-anchor="middle" x="906" y="-901.142" font-family="Times,serif" font-size="4.00">Orf3a</text>
</g>
<!-- Orf3a&#45;&gt;pr_0635eab9&#45;a7bf&#45;4fa1&#45;badc&#45;7f9fb8576f25 -->
<g id="edge50" class="edge"><title>Orf3a&#45;&gt;pr_0635eab9&#45;a7bf&#45;4fa1&#45;badc&#45;7f9fb8576f25</title>
<path fill="none" stroke="black" d="M901.541,-884.498C899.476,-876.694 896.887,-866.915 894.207,-856.792"/>
<polygon fill="black" stroke="black" points="897.567,-855.805 891.624,-847.033 890.8,-857.596 897.567,-855.805"/>
</g>
<!-- pr_23a75e1c&#45;ee04&#45;4ab7&#45;bc63&#45;6fe829d5be15&#45;&gt;BAD/BBC3/BCL2L11 -->
<g id="edge51" class="edge"><title>pr_23a75e1c&#45;ee04&#45;4ab7&#45;bc63&#45;6fe829d5be15&#45;&gt;BAD/BBC3/BCL2L11</title>
<path fill="none" stroke="black" d="M470.309,-302.351C470.18,-293.678 470.262,-284.753 470.555,-276.398"/>
<polygon fill="black" stroke="black" points="474.062,-276.337 471.04,-266.183 467.07,-276.006 474.062,-276.337"/>
</g>
<!-- pr_bf1b4ddd&#45;d367&#45;48bc&#45;92de&#45;16abdca8af46&#45;&gt;BCL2/MCL1/BCL2L1 -->
<g id="edge52" class="edge"><title>pr_bf1b4ddd&#45;d367&#45;48bc&#45;92de&#45;16abdca8af46&#45;&gt;BCL2/MCL1/BCL2L1</title>
<path fill="none" stroke="black" d="M548.309,-533.691C548.179,-525.012 548.264,-516.078 548.564,-507.729"/>
<polygon fill="black" stroke="black" points="552.07,-507.687 549.06,-497.529 545.078,-507.347 552.07,-507.687"/>
</g>
<!-- Orf7a -->
<g id="node36" class="node"><title>Orf7a</title>
<ellipse fill="none" stroke="black" cx="582" cy="-690.598" rx="18" ry="18"/>
<text text-anchor="middle" x="582" y="-689.398" font-family="Times,serif" font-size="4.00">Orf7a</text>
</g>
<!-- Orf7a&#45;&gt;pr_bf1b4ddd&#45;d367&#45;48bc&#45;92de&#45;16abdca8af46 -->
<g id="edge53" class="edge"><title>Orf7a&#45;&gt;pr_bf1b4ddd&#45;d367&#45;48bc&#45;92de&#45;16abdca8af46</title>
<path fill="none" stroke="black" d="M577.662,-672.689C575.539,-664.414 572.844,-653.909 570.059,-643.054"/>
<polygon fill="black" stroke="black" points="573.366,-641.858 567.49,-633.041 566.585,-643.597 573.366,-641.858"/>
</g>
<!-- E -->
<g id="node37" class="node"><title>E</title>
<ellipse fill="none" stroke="black" cx="636" cy="-690.598" rx="18" ry="18"/>
<text text-anchor="middle" x="636" y="-689.398" font-family="Times,serif" font-size="4.00">E</text>
</g>
<!-- E&#45;&gt;pr_bf1b4ddd&#45;d367&#45;48bc&#45;92de&#45;16abdca8af46 -->
<g id="edge54" class="edge"><title>E&#45;&gt;pr_bf1b4ddd&#45;d367&#45;48bc&#45;92de&#45;16abdca8af46</title>
<path fill="none" stroke="black" d="M625.411,-675.839C618.379,-666.703 608.63,-654.036 598.625,-641.037"/>
<polygon fill="black" stroke="black" points="601.257,-638.718 592.384,-632.928 595.71,-642.988 601.257,-638.718"/>
</g>
<!-- BAD -->
<g id="node38" class="node"><title>BAD</title>
<ellipse fill="none" stroke="black" cx="528" cy="-690.598" rx="18" ry="18"/>
<text text-anchor="middle" x="528" y="-689.398" font-family="Times,serif" font-size="4.00">BAD</text>
</g>
<!-- BAD&#45;&gt;pr_bf1b4ddd&#45;d367&#45;48bc&#45;92de&#45;16abdca8af46 -->
<g id="edge55" class="edge"><title>BAD&#45;&gt;pr_bf1b4ddd&#45;d367&#45;48bc&#45;92de&#45;16abdca8af46</title>
<path fill="none" stroke="black" d="M532.338,-672.689C534.461,-664.414 537.156,-653.909 539.941,-643.054"/>
<polygon fill="black" stroke="black" points="543.415,-643.597 542.51,-633.041 536.634,-641.858 543.415,-643.597"/>
</g>
<!-- BAD&#45;&gt;pr_e171a92a&#45;e588&#45;4306&#45;af63&#45;79ef48e56c8a -->
<g id="edge56" class="edge"><title>BAD&#45;&gt;pr_e171a92a&#45;e588&#45;4306&#45;af63&#45;79ef48e56c8a</title>
<path fill="none" stroke="black" d="M533.08,-708.277C534.026,-716.686 534.57,-727.445 534.712,-738.556"/>
<polygon fill="black" stroke="black" points="531.213,-738.809 534.73,-748.803 538.213,-738.797 531.213,-738.809"/>
</g>
<!-- TNFRSF1A -->
<g id="node39" class="node"><title>TNFRSF1A</title>
<ellipse fill="none" stroke="black" cx="194" cy="-1546.42" rx="19.7452" ry="19.7452"/>
<text text-anchor="middle" x="194" y="-1545.22" font-family="Times,serif" font-size="4.00">TNFRSF1A</text>
</g>
<!-- pr_4d0882f0&#45;2f81&#45;43f4&#45;b858&#45;f57ad7c936f7 -->
<g id="node40" class="node"><title>pr_4d0882f0&#45;2f81&#45;43f4&#45;b858&#45;f57ad7c936f7</title>
<polygon fill="none" stroke="black" points="214.5,-1489.8 117.5,-1489.8 117.5,-1392.8 214.5,-1392.8 214.5,-1489.8"/>
<text text-anchor="middle" x="166" y="-1440.1" font-family="Times,serif" font-size="4.00">pr_4d0882f0&#45;2f81&#45;43f4&#45;b858&#45;f57ad7c936f7</text>
</g>
<!-- TNFRSF1A&#45;&gt;pr_4d0882f0&#45;2f81&#45;43f4&#45;b858&#45;f57ad7c936f7 -->
<g id="edge57" class="edge"><title>TNFRSF1A&#45;&gt;pr_4d0882f0&#45;2f81&#45;43f4&#45;b858&#45;f57ad7c936f7</title>
<path fill="none" stroke="black" d="M188.994,-1526.99C186.894,-1519.25 184.326,-1509.79 181.677,-1500.04"/>
<polygon fill="black" stroke="black" points="185.013,-1498.97 179.014,-1490.23 178.257,-1500.8 185.013,-1498.97"/>
</g>
<!-- pr_4d0882f0&#45;2f81&#45;43f4&#45;b858&#45;f57ad7c936f7&#45;&gt;TNF/TNFRSF1A -->
<g id="edge58" class="edge"><title>pr_4d0882f0&#45;2f81&#45;43f4&#45;b858&#45;f57ad7c936f7&#45;&gt;TNF/TNFRSF1A</title>
<path fill="none" stroke="black" d="M148.781,-1392.66C145.311,-1383.06 141.744,-1373.2 138.527,-1364.3"/>
<polygon fill="black" stroke="black" points="141.759,-1362.94 135.068,-1354.73 135.175,-1365.32 141.759,-1362.94"/>
</g>
<!-- TNF -->
<g id="node41" class="node"><title>TNF</title>
<ellipse fill="none" stroke="black" cx="138" cy="-1546.42" rx="18" ry="18"/>
<text text-anchor="middle" x="138" y="-1545.22" font-family="Times,serif" font-size="4.00">TNF</text>
</g>
<!-- TNF&#45;&gt;pr_4d0882f0&#45;2f81&#45;43f4&#45;b858&#45;f57ad7c936f7 -->
<g id="edge59" class="edge"><title>TNF&#45;&gt;pr_4d0882f0&#45;2f81&#45;43f4&#45;b858&#45;f57ad7c936f7</title>
<path fill="none" stroke="black" d="M142.499,-1528.85C144.7,-1520.75 147.495,-1510.45 150.383,-1499.82"/>
<polygon fill="black" stroke="black" points="153.804,-1500.57 153.047,-1490.01 147.049,-1498.74 153.804,-1500.57"/>
</g>
<!-- pr_01abf2e4&#45;d896&#45;4c68&#45;bf60&#45;13de910effe5&#45;&gt;Apoptosome -->
<g id="edge60" class="edge"><title>pr_01abf2e4&#45;d896&#45;4c68&#45;bf60&#45;13de910effe5&#45;&gt;Apoptosome</title>
<path fill="none" stroke="black" d="M367.071,-749.112C365.95,-739.996 364.807,-730.696 363.775,-722.304"/>
<polygon fill="black" stroke="black" points="367.232,-721.743 362.538,-712.244 360.285,-722.597 367.232,-721.743"/>
</g>
<!-- APAF1 -->
<g id="node43" class="node"><title>APAF1</title>
<ellipse fill="none" stroke="black" cx="373" cy="-902.342" rx="18" ry="18"/>
<text text-anchor="middle" x="373" y="-901.142" font-family="Times,serif" font-size="4.00">APAF1</text>
</g>
<!-- APAF1&#45;&gt;pr_01abf2e4&#45;d896&#45;4c68&#45;bf60&#45;13de910effe5 -->
<g id="edge61" class="edge"><title>APAF1&#45;&gt;pr_01abf2e4&#45;d896&#45;4c68&#45;bf60&#45;13de910effe5</title>
<path fill="none" stroke="black" d="M373,-884.039C373,-876.53 373,-867.257 373,-857.631"/>
<polygon fill="black" stroke="black" points="376.5,-857.53 373,-847.53 369.5,-857.53 376.5,-857.53"/>
</g>
<!-- pr_e171a92a&#45;e588&#45;4306&#45;af63&#45;79ef48e56c8a&#45;&gt;BAD -->
<g id="edge62" class="edge"><title>pr_e171a92a&#45;e588&#45;4306&#45;af63&#45;79ef48e56c8a&#45;&gt;BAD</title>
<path fill="none" stroke="black" d="M521.27,-748.803C521.173,-738.344 521.429,-727.659 522.04,-718.397"/>
<polygon fill="black" stroke="black" points="525.54,-718.543 522.92,-708.277 518.567,-717.936 525.54,-718.543"/>
</g>
</g>
</svg>
