<?xml version="1.0" encoding="UTF-8" standalone="no"?>
<!DOCTYPE svg PUBLIC "-//W3C//DTD SVG 1.1//EN"
 "http://www.w3.org/Graphics/SVG/1.1/DTD/svg11.dtd">
<!-- Generated by graphviz version 2.38.0 (20140413.2041)
 -->
<!-- Title: G Pages: 1 -->
<svg width="1248pt" height="907pt"
 viewBox="0.00 0.00 1248.31 906.75" xmlns="http://www.w3.org/2000/svg" xmlns:xlink="http://www.w3.org/1999/xlink">
<g id="graph0" class="graph" transform="scale(1 1) rotate(0) translate(4 902.753)">
<title>G</title>
<polygon fill="white" stroke="none" points="-4,4 -4,-902.753 1244.31,-902.753 1244.31,4 -4,4"/>
<!-- TICAM1_TRAF3_TRAF6 -->
<g id="node1" class="node"><title>TICAM1_TRAF3_TRAF6</title>
<ellipse fill="none" stroke="black" cx="127" cy="-575.439" rx="32.7614" ry="32.7614"/>
<text text-anchor="middle" x="127" y="-574.239" font-family="Times,serif" font-size="4.00">TICAM1_TRAF3_TRAF6</text>
</g>
<!-- MAP3K7 -->
<g id="node2" class="node"><title>MAP3K7</title>
<ellipse fill="none" stroke="black" cx="127" cy="-475.269" rx="18" ry="18"/>
<text text-anchor="middle" x="127" y="-474.069" font-family="Times,serif" font-size="4.00">MAP3K7</text>
</g>
<!-- TICAM1_TRAF3_TRAF6&#45;&gt;MAP3K7 -->
<g id="edge1" class="edge"><title>TICAM1_TRAF3_TRAF6&#45;&gt;MAP3K7</title>
<path fill="none" stroke="black" d="M127,-542.294C127,-529.793 127,-515.621 127,-503.62"/>
<polygon fill="black" stroke="black" points="130.5,-503.32 127,-493.32 123.5,-503.32 130.5,-503.32"/>
</g>
<!-- TANK_TRAF3_IKBKE -->
<g id="node59" class="node"><title>TANK_TRAF3_IKBKE</title>
<ellipse fill="none" stroke="black" cx="737" cy="-475.269" rx="31.0804" ry="31.0804"/>
<text text-anchor="middle" x="737" y="-474.069" font-family="Times,serif" font-size="4.00">TANK_TRAF3_IKBKE</text>
</g>
<!-- TICAM1_TRAF3_TRAF6&#45;&gt;TANK_TRAF3_IKBKE -->
<g id="edge2" class="edge"><title>TICAM1_TRAF3_TRAF6&#45;&gt;TANK_TRAF3_IKBKE</title>
<path fill="none" stroke="black" d="M159.366,-569.23C262.31,-552.663 582.101,-501.198 696.111,-482.849"/>
<polygon fill="black" stroke="black" points="696.857,-486.274 706.174,-481.23 695.745,-479.363 696.857,-486.274"/>
</g>
<!-- MAP2K4 -->
<g id="node25" class="node"><title>MAP2K4</title>
<ellipse fill="none" stroke="black" cx="126" cy="-389.979" rx="18" ry="18"/>
<text text-anchor="middle" x="126" y="-388.779" font-family="Times,serif" font-size="4.00">MAP2K4</text>
</g>
<!-- MAP3K7&#45;&gt;MAP2K4 -->
<g id="edge6" class="edge"><title>MAP3K7&#45;&gt;MAP2K4</title>
<path fill="none" stroke="black" d="M126.793,-457.011C126.659,-445.844 126.481,-431.064 126.328,-418.318"/>
<polygon fill="black" stroke="black" points="129.827,-418.172 126.207,-408.215 122.827,-418.256 129.827,-418.172"/>
</g>
<!-- MAP2K7 -->
<g id="node48" class="node"><title>MAP2K7</title>
<ellipse fill="none" stroke="black" cx="180" cy="-389.979" rx="18" ry="18"/>
<text text-anchor="middle" x="180" y="-388.779" font-family="Times,serif" font-size="4.00">MAP2K7</text>
</g>
<!-- MAP3K7&#45;&gt;MAP2K7 -->
<g id="edge4" class="edge"><title>MAP3K7&#45;&gt;MAP2K7</title>
<path fill="none" stroke="black" d="M136.232,-459.761C144.239,-447.179 155.97,-428.742 165.273,-414.123"/>
<polygon fill="black" stroke="black" points="168.28,-415.916 170.696,-405.601 162.375,-412.158 168.28,-415.916"/>
</g>
<!-- MAP2K6 -->
<g id="node54" class="node"><title>MAP2K6</title>
<ellipse fill="none" stroke="black" cx="18" cy="-389.979" rx="18" ry="18"/>
<text text-anchor="middle" x="18" y="-388.779" font-family="Times,serif" font-size="4.00">MAP2K6</text>
</g>
<!-- MAP3K7&#45;&gt;MAP2K6 -->
<g id="edge5" class="edge"><title>MAP3K7&#45;&gt;MAP2K6</title>
<path fill="none" stroke="black" d="M112.75,-463.38C94.2065,-449.211 61.6165,-424.308 39.9164,-407.726"/>
<polygon fill="black" stroke="black" points="41.9796,-404.898 31.9087,-401.607 37.7295,-410.46 41.9796,-404.898"/>
</g>
<!-- MAP2K3 -->
<g id="node56" class="node"><title>MAP2K3</title>
<ellipse fill="none" stroke="black" cx="72" cy="-389.979" rx="18" ry="18"/>
<text text-anchor="middle" x="72" y="-388.779" font-family="Times,serif" font-size="4.00">MAP2K3</text>
</g>
<!-- MAP3K7&#45;&gt;MAP2K3 -->
<g id="edge3" class="edge"><title>MAP3K7&#45;&gt;MAP2K3</title>
<path fill="none" stroke="black" d="M117.42,-459.761C109.06,-447.101 96.7868,-428.516 87.1054,-413.854"/>
<polygon fill="black" stroke="black" points="89.9016,-411.737 81.4705,-405.321 84.0603,-415.595 89.9016,-411.737"/>
</g>
<!-- IRF7 -->
<g id="node3" class="node"><title>IRF7</title>
<ellipse fill="none" stroke="black" cx="791" cy="-313.175" rx="18" ry="18"/>
<text text-anchor="middle" x="791" y="-311.975" font-family="Times,serif" font-size="4.00">IRF7</text>
</g>
<!-- transcription of IFN inducible genes -->
<g id="node4" class="node"><title>transcription of IFN inducible genes</title>
<ellipse fill="none" stroke="black" cx="737" cy="-48.7904" rx="46.2779" ry="46.2779"/>
<text text-anchor="middle" x="737" y="-47.5904" font-family="Times,serif" font-size="4.00">transcription of IFN inducible genes</text>
</g>
<!-- IRF7&#45;&gt;transcription of IFN inducible genes -->
<g id="edge7" class="edge"><title>IRF7&#45;&gt;transcription of IFN inducible genes</title>
<path fill="none" stroke="black" d="M787.54,-295.363C779.75,-257.512 760.553,-164.234 748.188,-104.152"/>
<polygon fill="black" stroke="black" points="751.558,-103.165 746.114,-94.0755 744.702,-104.576 751.558,-103.165"/>
</g>
<!-- AP1 -->
<g id="node5" class="node"><title>AP1</title>
<ellipse fill="none" stroke="black" cx="153" cy="-229.976" rx="18" ry="18"/>
<text text-anchor="middle" x="153" y="-228.776" font-family="Times,serif" font-size="4.00">AP1</text>
</g>
<!-- transcription of proinflammatory genes -->
<g id="node6" class="node"><title>transcription of proinflammatory genes</title>
<ellipse fill="none" stroke="black" cx="227" cy="-48.7904" rx="48.5816" ry="48.5816"/>
<text text-anchor="middle" x="227" y="-47.5904" font-family="Times,serif" font-size="4.00">transcription of proinflammatory genes</text>
</g>
<!-- AP1&#45;&gt;transcription of proinflammatory genes -->
<g id="edge8" class="edge"><title>AP1&#45;&gt;transcription of proinflammatory genes</title>
<path fill="none" stroke="black" d="M159.567,-213.074C169.611,-188.755 189.253,-141.192 204.759,-103.645"/>
<polygon fill="black" stroke="black" points="208.022,-104.914 208.604,-94.3353 201.552,-102.242 208.022,-104.914"/>
</g>
<!-- NFKB -->
<g id="node7" class="node"><title>NFKB</title>
<ellipse fill="none" stroke="black" cx="266" cy="-151.581" rx="18" ry="18"/>
<text text-anchor="middle" x="266" y="-150.381" font-family="Times,serif" font-size="4.00">NFKB</text>
</g>
<!-- NFKB&#45;&gt;transcription of IFN inducible genes -->
<g id="edge10" class="edge"><title>NFKB&#45;&gt;transcription of IFN inducible genes</title>
<path fill="none" stroke="black" d="M283.314,-145.878C296.594,-142.33 315.403,-137.433 332,-133.581 456.336,-104.723 603.284,-75.5397 681.485,-60.3979"/>
<polygon fill="black" stroke="black" points="682.44,-63.7783 691.594,-58.4446 681.112,-56.9054 682.44,-63.7783"/>
</g>
<!-- NFKB&#45;&gt;transcription of proinflammatory genes -->
<g id="edge9" class="edge"><title>NFKB&#45;&gt;transcription of proinflammatory genes</title>
<path fill="none" stroke="black" d="M259.734,-134.387C256.471,-125.953 252.271,-115.099 247.975,-103.997"/>
<polygon fill="black" stroke="black" points="251.235,-102.724 244.362,-94.6612 244.707,-105.25 251.235,-102.724"/>
</g>
<!-- IRF3 -->
<g id="node8" class="node"><title>IRF3</title>
<ellipse fill="none" stroke="black" cx="737" cy="-313.175" rx="18" ry="18"/>
<text text-anchor="middle" x="737" y="-311.975" font-family="Times,serif" font-size="4.00">IRF3</text>
</g>
<!-- IRF3&#45;&gt;transcription of IFN inducible genes -->
<g id="edge11" class="edge"><title>IRF3&#45;&gt;transcription of IFN inducible genes</title>
<path fill="none" stroke="black" d="M737,-294.959C737,-257.076 737,-165.105 737,-105.205"/>
<polygon fill="black" stroke="black" points="740.5,-105.148 737,-95.148 733.5,-105.148 740.5,-105.148"/>
</g>
<!-- TRADD -->
<g id="node9" class="node"><title>TRADD</title>
<ellipse fill="none" stroke="black" cx="592" cy="-668.715" rx="18" ry="18"/>
<text text-anchor="middle" x="592" y="-667.515" font-family="Times,serif" font-size="4.00">TRADD</text>
</g>
<!-- MAVS_TRADD -->
<g id="node46" class="node"><title>MAVS_TRADD</title>
<ellipse fill="none" stroke="black" cx="576" cy="-575.439" rx="23.7305" ry="23.7305"/>
<text text-anchor="middle" x="576" y="-574.239" font-family="Times,serif" font-size="4.00">MAVS_TRADD</text>
</g>
<!-- TRADD&#45;&gt;MAVS_TRADD -->
<g id="edge12" class="edge"><title>TRADD&#45;&gt;MAVS_TRADD</title>
<path fill="none" stroke="black" d="M588.991,-650.546C586.956,-638.942 584.205,-623.248 581.759,-609.29"/>
<polygon fill="black" stroke="black" points="585.138,-608.296 579.964,-599.051 578.243,-609.505 585.138,-608.296"/>
</g>
<!-- TRAF2 -->
<g id="node10" class="node"><title>TRAF2</title>
<ellipse fill="none" stroke="black" cx="430" cy="-668.715" rx="18" ry="18"/>
<text text-anchor="middle" x="430" y="-667.515" font-family="Times,serif" font-size="4.00">TRAF2</text>
</g>
<!-- MAVS_TRAF -->
<g id="node52" class="node"><title>MAVS_TRAF</title>
<ellipse fill="none" stroke="black" cx="493" cy="-575.439" rx="21.9898" ry="21.9898"/>
<text text-anchor="middle" x="493" y="-574.239" font-family="Times,serif" font-size="4.00">MAVS_TRAF</text>
</g>
<!-- TRAF2&#45;&gt;MAVS_TRAF -->
<g id="edge13" class="edge"><title>TRAF2&#45;&gt;MAVS_TRAF</title>
<path fill="none" stroke="black" d="M439.844,-653.453C449.333,-639.704 463.904,-618.593 475.393,-601.949"/>
<polygon fill="black" stroke="black" points="478.276,-603.933 481.076,-593.714 472.515,-599.956 478.276,-603.933"/>
</g>
<!-- MYD88_IRAK_TRAF -->
<g id="node11" class="node"><title>MYD88_IRAK_TRAF</title>
<ellipse fill="none" stroke="black" cx="956" cy="-575.439" rx="29.8983" ry="29.8983"/>
<text text-anchor="middle" x="956" y="-574.239" font-family="Times,serif" font-size="4.00">MYD88_IRAK_TRAF</text>
</g>
<!-- MYD88_IRAK_TRAF&#45;&gt;IRF7 -->
<g id="edge14" class="edge"><title>MYD88_IRAK_TRAF&#45;&gt;IRF7</title>
<path fill="none" stroke="black" d="M957.288,-545.634C957.671,-503.099 952.407,-423.028 912,-371.979 888.681,-342.52 846.677,-327.231 818.813,-319.954"/>
<polygon fill="black" stroke="black" points="819.438,-316.505 808.894,-317.545 817.785,-323.307 819.438,-316.505"/>
</g>
<!-- ITCH -->
<g id="node12" class="node"><title>ITCH</title>
<ellipse fill="none" stroke="black" cx="1124" cy="-755.626" rx="18" ry="18"/>
<text text-anchor="middle" x="1124" y="-754.426" font-family="Times,serif" font-size="4.00">ITCH</text>
</g>
<!-- EIF2AK2_dsRNA -->
<g id="node13" class="node"><title>EIF2AK2_dsRNA</title>
<ellipse fill="none" stroke="black" cx="171" cy="-755.626" rx="26.533" ry="26.533"/>
<text text-anchor="middle" x="171" y="-754.426" font-family="Times,serif" font-size="4.00">EIF2AK2_dsRNA</text>
</g>
<!-- EIF2AK2_dsRNA&#45;&gt;MAP2K6 -->
<g id="edge15" class="edge"><title>EIF2AK2_dsRNA&#45;&gt;MAP2K6</title>
<path fill="none" stroke="black" d="M156.226,-733.169C137.607,-705.379 105.562,-654.96 85,-608.319 55.842,-542.179 34.1243,-459.493 24.1161,-417.746"/>
<polygon fill="black" stroke="black" points="27.4752,-416.741 21.7715,-407.812 20.6624,-418.349 27.4752,-416.741"/>
</g>
<!-- EIF2AK2 -->
<g id="node14" class="node"><title>EIF2AK2</title>
<ellipse fill="none" stroke="black" cx="171" cy="-858.448" rx="18.0625" ry="18.0625"/>
<text text-anchor="middle" x="171" y="-857.248" font-family="Times,serif" font-size="4.00">EIF2AK2</text>
</g>
<!-- EIF2AK2&#45;&gt;EIF2AK2_dsRNA -->
<g id="edge16" class="edge"><title>EIF2AK2&#45;&gt;EIF2AK2_dsRNA</title>
<path fill="none" stroke="black" d="M171,-840.345C171,-827.256 171,-808.746 171,-792.457"/>
<polygon fill="black" stroke="black" points="174.5,-792.153 171,-782.153 167.5,-792.153 174.5,-792.153"/>
</g>
<!-- Nsp3 -->
<g id="node15" class="node"><title>Nsp3</title>
<ellipse fill="none" stroke="black" cx="676" cy="-858.448" rx="18" ry="18"/>
<text text-anchor="middle" x="676" y="-857.248" font-family="Times,serif" font-size="4.00">Nsp3</text>
</g>
<!-- Nsp3&#45;&gt;IRF3 -->
<g id="edge17" class="edge"><title>Nsp3&#45;&gt;IRF3</title>
<path fill="none" stroke="black" d="M688.181,-845.109C720.837,-811.049 809.962,-711.393 841,-608.319 858.751,-549.371 829.889,-391.01 818,-371.979 802.717,-347.517 787.245,-353.058 764,-335.979 762.185,-334.646 760.325,-333.237 758.471,-331.804"/>
<polygon fill="black" stroke="black" points="760.554,-328.989 750.545,-325.515 756.203,-334.472 760.554,-328.989"/>
</g>
<!-- DDX58_dsRNA -->
<g id="node18" class="node"><title>DDX58_dsRNA</title>
<ellipse fill="none" stroke="black" cx="316" cy="-668.715" rx="24.2908" ry="24.2908"/>
<text text-anchor="middle" x="316" y="-667.515" font-family="Times,serif" font-size="4.00">DDX58_dsRNA</text>
</g>
<!-- Nsp3&#45;&gt;DDX58_dsRNA -->
<g id="edge19" class="edge"><title>Nsp3&#45;&gt;DDX58_dsRNA</title>
<path fill="none" stroke="black" d="M664.158,-844.718C650.633,-830.003 628.044,-804.886 610,-782.143 591.978,-759.427 596.651,-744.378 572,-729.11 486.651,-676.245 441.917,-731.128 349,-693.11 346.94,-692.267 344.885,-691.274 342.864,-690.182"/>
<polygon fill="black" stroke="black" points="344.671,-687.184 334.323,-684.909 340.993,-693.14 344.671,-687.184"/>
</g>
<!-- IFIH1_dsRNA -->
<g id="node28" class="node"><title>IFIH1_dsRNA</title>
<ellipse fill="none" stroke="black" cx="540" cy="-755.626" rx="22.6101" ry="22.6101"/>
<text text-anchor="middle" x="540" y="-754.426" font-family="Times,serif" font-size="4.00">IFIH1_dsRNA</text>
</g>
<!-- Nsp3&#45;&gt;IFIH1_dsRNA -->
<g id="edge18" class="edge"><title>Nsp3&#45;&gt;IFIH1_dsRNA</title>
<path fill="none" stroke="black" d="M661.958,-847.038C639.447,-830.35 594.919,-797.34 566.348,-776.159"/>
<polygon fill="black" stroke="black" points="568.153,-773.14 558.036,-769.997 563.985,-778.764 568.153,-773.14"/>
</g>
<!-- IKBKE -->
<g id="node38" class="node"><title>IKBKE</title>
<ellipse fill="none" stroke="black" cx="791" cy="-389.979" rx="18" ry="18"/>
<text text-anchor="middle" x="791" y="-388.779" font-family="Times,serif" font-size="4.00">IKBKE</text>
</g>
<!-- Nsp3&#45;&gt;IKBKE -->
<g id="edge21" class="edge"><title>Nsp3&#45;&gt;IKBKE</title>
<path fill="none" stroke="black" d="M692.329,-850.433C737.36,-829.865 860,-765.096 860,-669.715 860,-669.715 860,-669.715 860,-574.439 860,-513.474 826.207,-447.988 805.919,-414.167"/>
<polygon fill="black" stroke="black" points="808.81,-412.187 800.594,-405.497 802.845,-415.85 808.81,-412.187"/>
</g>
<!-- Nsp3&#45;&gt;TANK_TRAF3_IKBKE -->
<g id="edge22" class="edge"><title>Nsp3&#45;&gt;TANK_TRAF3_IKBKE</title>
<path fill="none" stroke="black" d="M679.264,-840.725C682.203,-825.483 686.573,-802.333 690,-782.143 706.158,-686.953 722.791,-574.676 731.271,-516.21"/>
<polygon fill="black" stroke="black" points="734.74,-516.675 732.708,-506.277 727.812,-515.672 734.74,-516.675"/>
</g>
<!-- TRAF6 -->
<g id="node61" class="node"><title>TRAF6</title>
<ellipse fill="none" stroke="black" cx="376" cy="-668.715" rx="18" ry="18"/>
<text text-anchor="middle" x="376" y="-667.515" font-family="Times,serif" font-size="4.00">TRAF6</text>
</g>
<!-- Nsp3&#45;&gt;TRAF6 -->
<g id="edge20" class="edge"><title>Nsp3&#45;&gt;TRAF6</title>
<path fill="none" stroke="black" d="M672.427,-840.552C665.565,-812.55 647.747,-756.863 610,-729.11 534.766,-673.794 487.363,-733.145 403,-693.11 400.598,-691.97 398.242,-690.555 395.986,-688.99"/>
<polygon fill="black" stroke="black" points="397.869,-686.013 387.884,-682.471 393.481,-691.467 397.869,-686.013"/>
</g>
<!-- IKK Complex -->
<g id="node16" class="node"><title>IKK Complex</title>
<ellipse fill="none" stroke="black" cx="418" cy="-313.175" rx="22.6101" ry="22.6101"/>
<text text-anchor="middle" x="418" y="-311.975" font-family="Times,serif" font-size="4.00">IKK Complex</text>
</g>
<!-- NFKB_NFKBIA -->
<g id="node21" class="node"><title>NFKB_NFKBIA</title>
<ellipse fill="none" stroke="black" cx="359" cy="-229.976" rx="24.2908" ry="24.2908"/>
<text text-anchor="middle" x="359" y="-228.776" font-family="Times,serif" font-size="4.00">NFKB_NFKBIA</text>
</g>
<!-- IKK Complex&#45;&gt;NFKB_NFKBIA -->
<g id="edge23" class="edge"><title>IKK Complex&#45;&gt;NFKB_NFKBIA</title>
<path fill="none" stroke="black" d="M404.906,-294.155C397.257,-283.627 387.45,-270.13 378.866,-258.316"/>
<polygon fill="black" stroke="black" points="381.589,-256.11 372.879,-250.078 375.926,-260.225 381.589,-256.11"/>
</g>
<!-- TLR7 -->
<g id="node17" class="node"><title>TLR7</title>
<ellipse fill="none" stroke="black" cx="1068" cy="-858.448" rx="18" ry="18"/>
<text text-anchor="middle" x="1068" y="-857.248" font-family="Times,serif" font-size="4.00">TLR7</text>
</g>
<!-- TLR7_ssRNA -->
<g id="node60" class="node"><title>TLR7_ssRNA</title>
<ellipse fill="none" stroke="black" cx="1045" cy="-755.626" rx="22.05" ry="22.05"/>
<text text-anchor="middle" x="1045" y="-754.426" font-family="Times,serif" font-size="4.00">TLR7_ssRNA</text>
</g>
<!-- TLR7&#45;&gt;TLR7_ssRNA -->
<g id="edge24" class="edge"><title>TLR7&#45;&gt;TLR7_ssRNA</title>
<path fill="none" stroke="black" d="M1064.2,-840.799C1060.9,-826.305 1056.02,-804.921 1052.01,-787.333"/>
<polygon fill="black" stroke="black" points="1055.4,-786.468 1049.76,-777.497 1048.57,-788.025 1055.4,-786.468"/>
</g>
<!-- DDX58 -->
<g id="node19" class="node"><title>DDX58</title>
<ellipse fill="none" stroke="black" cx="386" cy="-755.626" rx="18" ry="18"/>
<text text-anchor="middle" x="386" y="-754.426" font-family="Times,serif" font-size="4.00">DDX58</text>
</g>
<!-- DDX58_dsRNA&#45;&gt;DDX58 -->
<g id="edge25" class="edge"><title>DDX58_dsRNA&#45;&gt;DDX58</title>
<path fill="none" stroke="black" d="M334.11,-685.19C346.199,-697.969 361.582,-716.315 372.6,-730.941"/>
<polygon fill="black" stroke="black" points="369.8,-733.042 378.525,-739.052 375.453,-728.913 369.8,-733.042"/>
</g>
<!-- DDX58&#45;&gt;DDX58_dsRNA -->
<g id="edge26" class="edge"><title>DDX58&#45;&gt;DDX58_dsRNA</title>
<path fill="none" stroke="black" d="M372.117,-743.526C360.93,-732.222 345.518,-714.22 333.553,-698.824"/>
<polygon fill="black" stroke="black" points="336.143,-696.448 327.31,-690.598 330.568,-700.68 336.143,-696.448"/>
</g>
<!-- MAVS -->
<g id="node29" class="node"><title>MAVS</title>
<ellipse fill="none" stroke="black" cx="538" cy="-668.715" rx="18" ry="18"/>
<text text-anchor="middle" x="538" y="-667.515" font-family="Times,serif" font-size="4.00">MAVS</text>
</g>
<!-- DDX58&#45;&gt;MAVS -->
<g id="edge27" class="edge"><title>DDX58&#45;&gt;MAVS</title>
<path fill="none" stroke="black" d="M402.506,-748.111C427.137,-738.04 474.517,-717.308 511,-693.11 513.171,-691.67 515.356,-690.073 517.493,-688.409"/>
<polygon fill="black" stroke="black" points="519.919,-690.943 525.358,-681.85 515.436,-685.566 519.919,-690.943"/>
</g>
<!-- TRAF3 -->
<g id="node20" class="node"><title>TRAF3</title>
<ellipse fill="none" stroke="black" cx="760" cy="-575.439" rx="18" ry="18"/>
<text text-anchor="middle" x="760" y="-574.239" font-family="Times,serif" font-size="4.00">TRAF3</text>
</g>
<!-- TRAF3&#45;&gt;TANK_TRAF3_IKBKE -->
<g id="edge28" class="edge"><title>TRAF3&#45;&gt;TANK_TRAF3_IKBKE</title>
<path fill="none" stroke="black" d="M756.098,-557.786C753.412,-546.318 749.724,-530.577 746.304,-515.983"/>
<polygon fill="black" stroke="black" points="749.685,-515.067 743.996,-506.129 742.869,-516.664 749.685,-515.067"/>
</g>
<!-- NFKB_NFKBIA&#45;&gt;NFKB -->
<g id="edge30" class="edge"><title>NFKB_NFKBIA&#45;&gt;NFKB</title>
<path fill="none" stroke="black" d="M340.626,-213.883C325.3,-201.293 303.443,-183.339 287.343,-170.113"/>
<polygon fill="black" stroke="black" points="289.463,-167.325 279.514,-163.682 285.019,-172.734 289.463,-167.325"/>
</g>
<!-- NFKBIA -->
<g id="node27" class="node"><title>NFKBIA</title>
<ellipse fill="none" stroke="black" cx="359" cy="-151.581" rx="18" ry="18"/>
<text text-anchor="middle" x="359" y="-150.381" font-family="Times,serif" font-size="4.00">NFKBIA</text>
</g>
<!-- NFKB_NFKBIA&#45;&gt;NFKBIA -->
<g id="edge29" class="edge"><title>NFKB_NFKBIA&#45;&gt;NFKBIA</title>
<path fill="none" stroke="black" d="M352.755,-206.055C352.163,-197.556 352.092,-187.849 352.541,-179.059"/>
<polygon fill="black" stroke="black" points="356.042,-179.181 353.347,-168.934 349.064,-178.625 356.042,-179.181"/>
</g>
<!-- MAPK14 -->
<g id="node22" class="node"><title>MAPK14</title>
<ellipse fill="none" stroke="black" cx="72" cy="-313.175" rx="18" ry="18"/>
<text text-anchor="middle" x="72" y="-311.975" font-family="Times,serif" font-size="4.00">MAPK14</text>
</g>
<!-- MAPK14&#45;&gt;AP1 -->
<g id="edge31" class="edge"><title>MAPK14&#45;&gt;AP1</title>
<path fill="none" stroke="black" d="M84.3022,-299.843C97.2666,-286.846 117.884,-266.178 133.154,-250.871"/>
<polygon fill="black" stroke="black" points="135.998,-252.976 140.582,-243.424 131.042,-248.032 135.998,-252.976"/>
</g>
<!-- dsRNA -->
<g id="node23" class="node"><title>dsRNA</title>
<ellipse fill="none" stroke="black" cx="238" cy="-858.448" rx="18" ry="18"/>
<text text-anchor="middle" x="238" y="-857.248" font-family="Times,serif" font-size="4.00">dsRNA</text>
</g>
<!-- dsRNA&#45;&gt;EIF2AK2_dsRNA -->
<g id="edge35" class="edge"><title>dsRNA&#45;&gt;EIF2AK2_dsRNA</title>
<path fill="none" stroke="black" d="M228.401,-843.003C218.655,-828.337 203.278,-805.198 190.891,-786.558"/>
<polygon fill="black" stroke="black" points="193.715,-784.484 185.265,-778.093 187.885,-788.359 193.715,-784.484"/>
</g>
<!-- dsRNA&#45;&gt;DDX58_dsRNA -->
<g id="edge32" class="edge"><title>dsRNA&#45;&gt;DDX58_dsRNA</title>
<path fill="none" stroke="black" d="M244.65,-841.442C257.549,-810.396 286.173,-741.503 302.983,-701.045"/>
<polygon fill="black" stroke="black" points="306.279,-702.232 306.884,-691.655 299.815,-699.547 306.279,-702.232"/>
</g>
<!-- dsRNA&#45;&gt;IFIH1_dsRNA -->
<g id="edge33" class="edge"><title>dsRNA&#45;&gt;IFIH1_dsRNA</title>
<path fill="none" stroke="black" d="M248.814,-843.857C256.383,-835.24 267.218,-824.547 279,-818.143 299.099,-807.218 442.199,-776.804 507.57,-763.269"/>
<polygon fill="black" stroke="black" points="508.644,-766.621 517.73,-761.172 507.229,-759.766 508.644,-766.621"/>
</g>
<!-- TLR3_dsRNA -->
<g id="node51" class="node"><title>TLR3_dsRNA</title>
<ellipse fill="none" stroke="black" cx="62" cy="-755.626" rx="22.05" ry="22.05"/>
<text text-anchor="middle" x="62" y="-754.426" font-family="Times,serif" font-size="4.00">TLR3_dsRNA</text>
</g>
<!-- dsRNA&#45;&gt;TLR3_dsRNA -->
<g id="edge34" class="edge"><title>dsRNA&#45;&gt;TLR3_dsRNA</title>
<path fill="none" stroke="black" d="M226.738,-844.2C219.217,-835.94 208.762,-825.517 198,-818.143 164.535,-795.213 121.143,-777.324 92.4787,-766.884"/>
<polygon fill="black" stroke="black" points="93.5889,-763.564 82.9942,-763.506 91.2403,-770.158 93.5889,-763.564"/>
</g>
<!-- ubiquitin&#45;proteasome complex -->
<g id="node24" class="node"><title>ubiquitin&#45;proteasome complex</title>
<ellipse fill="none" stroke="black" cx="1200" cy="-858.448" rx="40.1111" ry="40.1111"/>
<text text-anchor="middle" x="1200" y="-857.248" font-family="Times,serif" font-size="4.00">ubiquitin&#45;proteasome complex</text>
</g>
<!-- JNK -->
<g id="node50" class="node"><title>JNK</title>
<ellipse fill="none" stroke="black" cx="153" cy="-313.175" rx="18" ry="18"/>
<text text-anchor="middle" x="153" y="-311.975" font-family="Times,serif" font-size="4.00">JNK</text>
</g>
<!-- MAP2K4&#45;&gt;JNK -->
<g id="edge36" class="edge"><title>MAP2K4&#45;&gt;JNK</title>
<path fill="none" stroke="black" d="M131.859,-372.748C135.326,-363.142 139.796,-350.757 143.732,-339.852"/>
<polygon fill="black" stroke="black" points="147.05,-340.969 147.153,-330.375 140.466,-338.593 147.05,-340.969"/>
</g>
<!-- CHUK -->
<g id="node26" class="node"><title>CHUK</title>
<ellipse fill="none" stroke="black" cx="310" cy="-389.979" rx="18" ry="18"/>
<text text-anchor="middle" x="310" y="-388.779" font-family="Times,serif" font-size="4.00">CHUK</text>
</g>
<!-- CHUK&#45;&gt;IKK Complex -->
<g id="edge37" class="edge"><title>CHUK&#45;&gt;IKK Complex</title>
<path fill="none" stroke="black" d="M324.565,-378.891C341.67,-367.044 370.38,-347.158 391.471,-332.55"/>
<polygon fill="black" stroke="black" points="393.476,-335.419 399.704,-326.848 389.491,-329.664 393.476,-335.419"/>
</g>
<!-- NFKBIA&#45;&gt;NFKB_NFKBIA -->
<g id="edge38" class="edge"><title>NFKBIA&#45;&gt;NFKB_NFKBIA</title>
<path fill="none" stroke="black" d="M364.653,-168.934C365.545,-176.797 365.893,-186.519 365.697,-195.833"/>
<polygon fill="black" stroke="black" points="362.19,-195.91 365.245,-206.055 369.184,-196.219 362.19,-195.91"/>
</g>
<!-- IFIH1_dsRNA&#45;&gt;MAVS -->
<g id="edge39" class="edge"><title>IFIH1_dsRNA&#45;&gt;MAVS</title>
<path fill="none" stroke="black" d="M539.485,-732.759C539.228,-721.849 538.915,-708.546 538.642,-696.976"/>
<polygon fill="black" stroke="black" points="542.141,-696.872 538.406,-686.957 535.143,-697.037 542.141,-696.872"/>
</g>
<!-- MAVS&#45;&gt;MAVS_TRADD -->
<g id="edge41" class="edge"><title>MAVS&#45;&gt;MAVS_TRADD</title>
<path fill="none" stroke="black" d="M544.619,-651.816C549.747,-639.497 557.007,-622.059 563.253,-607.058"/>
<polygon fill="black" stroke="black" points="566.565,-608.207 567.178,-597.63 560.103,-605.517 566.565,-608.207"/>
</g>
<!-- MAVS&#45;&gt;MAVS_TRAF -->
<g id="edge40" class="edge"><title>MAVS&#45;&gt;MAVS_TRAF</title>
<path fill="none" stroke="black" d="M530.366,-652.231C523.929,-639.174 514.553,-620.156 506.804,-604.437"/>
<polygon fill="black" stroke="black" points="509.791,-602.581 502.229,-595.159 503.512,-605.676 509.791,-602.581"/>
</g>
<!-- MYD88 -->
<g id="node30" class="node"><title>MYD88</title>
<ellipse fill="none" stroke="black" cx="1014" cy="-668.715" rx="18" ry="18"/>
<text text-anchor="middle" x="1014" y="-667.515" font-family="Times,serif" font-size="4.00">MYD88</text>
</g>
<!-- MYD88&#45;&gt;MYD88_IRAK_TRAF -->
<g id="edge42" class="edge"><title>MYD88&#45;&gt;MYD88_IRAK_TRAF</title>
<path fill="none" stroke="black" d="M1004.68,-653.05C997.24,-641.339 986.524,-624.476 977.04,-609.55"/>
<polygon fill="black" stroke="black" points="979.95,-607.603 971.632,-601.04 974.042,-611.357 979.95,-607.603"/>
</g>
<!-- TICAM1 -->
<g id="node31" class="node"><title>TICAM1</title>
<ellipse fill="none" stroke="black" cx="20" cy="-668.715" rx="18" ry="18"/>
<text text-anchor="middle" x="20" y="-667.515" font-family="Times,serif" font-size="4.00">TICAM1</text>
</g>
<!-- TICAM1&#45;&gt;TICAM1_TRAF3_TRAF6 -->
<g id="edge43" class="edge"><title>TICAM1&#45;&gt;TICAM1_TRAF3_TRAF6</title>
<path fill="none" stroke="black" d="M33.5516,-656.154C48.7429,-643.196 73.9181,-621.72 94.3128,-604.323"/>
<polygon fill="black" stroke="black" points="96.8108,-606.792 102.147,-597.639 92.2679,-601.466 96.8108,-606.792"/>
</g>
<!-- RELA -->
<g id="node32" class="node"><title>RELA</title>
<ellipse fill="none" stroke="black" cx="305" cy="-313.175" rx="18" ry="18"/>
<text text-anchor="middle" x="305" y="-311.975" font-family="Times,serif" font-size="4.00">RELA</text>
</g>
<!-- RELA&#45;&gt;NFKB_NFKBIA -->
<g id="edge44" class="edge"><title>RELA&#45;&gt;NFKB_NFKBIA</title>
<path fill="none" stroke="black" d="M314.654,-297.658C321.704,-287.058 331.489,-272.344 340.074,-259.434"/>
<polygon fill="black" stroke="black" points="343.155,-261.122 345.778,-250.857 337.326,-257.246 343.155,-261.122"/>
</g>
<!-- IFIH1 -->
<g id="node33" class="node"><title>IFIH1</title>
<ellipse fill="none" stroke="black" cx="540" cy="-858.448" rx="18" ry="18"/>
<text text-anchor="middle" x="540" y="-857.248" font-family="Times,serif" font-size="4.00">IFIH1</text>
</g>
<!-- IFIH1&#45;&gt;IFIH1_dsRNA -->
<g id="edge45" class="edge"><title>IFIH1&#45;&gt;IFIH1_dsRNA</title>
<path fill="none" stroke="black" d="M540,-840.345C540,-826.294 540,-805.995 540,-788.904"/>
<polygon fill="black" stroke="black" points="543.5,-788.762 540,-778.762 536.5,-788.762 543.5,-788.762"/>
</g>
<!-- TLR3 -->
<g id="node34" class="node"><title>TLR3</title>
<ellipse fill="none" stroke="black" cx="62" cy="-858.448" rx="18" ry="18"/>
<text text-anchor="middle" x="62" y="-857.248" font-family="Times,serif" font-size="4.00">TLR3</text>
</g>
<!-- TLR3&#45;&gt;TLR3_dsRNA -->
<g id="edge46" class="edge"><title>TLR3&#45;&gt;TLR3_dsRNA</title>
<path fill="none" stroke="black" d="M62,-840.345C62,-826.108 62,-805.456 62,-788.227"/>
<polygon fill="black" stroke="black" points="65.5001,-788.029 62,-778.029 58.5001,-788.029 65.5001,-788.029"/>
</g>
<!-- TLR8_ssRNA -->
<g id="node35" class="node"><title>TLR8_ssRNA</title>
<ellipse fill="none" stroke="black" cx="982" cy="-755.626" rx="22.05" ry="22.05"/>
<text text-anchor="middle" x="982" y="-754.426" font-family="Times,serif" font-size="4.00">TLR8_ssRNA</text>
</g>
<!-- TLR8_ssRNA&#45;&gt;MYD88 -->
<g id="edge47" class="edge"><title>TLR8_ssRNA&#45;&gt;MYD88</title>
<path fill="none" stroke="black" d="M989.584,-734.503C994.017,-722.739 999.656,-707.777 1004.4,-695.196"/>
<polygon fill="black" stroke="black" points="1007.72,-696.315 1007.97,-685.723 1001.17,-693.846 1007.72,-696.315"/>
</g>
<!-- RIPK1_FADD -->
<g id="node36" class="node"><title>RIPK1_FADD</title>
<ellipse fill="none" stroke="black" cx="418" cy="-475.269" rx="22.05" ry="22.05"/>
<text text-anchor="middle" x="418" y="-474.069" font-family="Times,serif" font-size="4.00">RIPK1_FADD</text>
</g>
<!-- CASP8 -->
<g id="node43" class="node"><title>CASP8</title>
<ellipse fill="none" stroke="black" cx="418" cy="-389.979" rx="18" ry="18"/>
<text text-anchor="middle" x="418" y="-388.779" font-family="Times,serif" font-size="4.00">CASP8</text>
</g>
<!-- RIPK1_FADD&#45;&gt;CASP8 -->
<g id="edge48" class="edge"><title>RIPK1_FADD&#45;&gt;CASP8</title>
<path fill="none" stroke="black" d="M418,-452.82C418,-442.3 418,-429.512 418,-418.301"/>
<polygon fill="black" stroke="black" points="421.5,-418.161 418,-408.161 414.5,-418.161 421.5,-418.161"/>
</g>
<!-- CASP10 -->
<g id="node63" class="node"><title>CASP10</title>
<ellipse fill="none" stroke="black" cx="364" cy="-389.979" rx="18" ry="18"/>
<text text-anchor="middle" x="364" y="-388.779" font-family="Times,serif" font-size="4.00">CASP10</text>
</g>
<!-- RIPK1_FADD&#45;&gt;CASP10 -->
<g id="edge49" class="edge"><title>RIPK1_FADD&#45;&gt;CASP10</title>
<path fill="none" stroke="black" d="M406.283,-456.196C398.268,-443.835 387.575,-427.341 378.947,-414.034"/>
<polygon fill="black" stroke="black" points="381.74,-411.907 373.363,-405.421 375.866,-415.715 381.74,-411.907"/>
</g>
<!-- IRAK1 -->
<g id="node37" class="node"><title>IRAK1</title>
<ellipse fill="none" stroke="black" cx="906" cy="-668.715" rx="18" ry="18"/>
<text text-anchor="middle" x="906" y="-667.515" font-family="Times,serif" font-size="4.00">IRAK1</text>
</g>
<!-- IRAK1&#45;&gt;MYD88_IRAK_TRAF -->
<g id="edge50" class="edge"><title>IRAK1&#45;&gt;MYD88_IRAK_TRAF</title>
<path fill="none" stroke="black" d="M914.256,-652.642C920.445,-641.344 929.168,-625.422 937.04,-611.05"/>
<polygon fill="black" stroke="black" points="940.321,-612.346 942.056,-601.895 934.182,-608.983 940.321,-612.346"/>
</g>
<!-- IKBKE&#45;&gt;IRF7 -->
<g id="edge52" class="edge"><title>IKBKE&#45;&gt;IRF7</title>
<path fill="none" stroke="black" d="M791,-371.63C791,-362.755 791,-351.742 791,-341.739"/>
<polygon fill="black" stroke="black" points="794.5,-341.431 791,-331.431 787.5,-341.431 794.5,-341.431"/>
</g>
<!-- IKBKE&#45;&gt;TANK_TRAF3_IKBKE -->
<g id="edge51" class="edge"><title>IKBKE&#45;&gt;TANK_TRAF3_IKBKE</title>
<path fill="none" stroke="black" d="M785.868,-407.373C780.399,-417.614 771.987,-431.13 763.607,-443.33"/>
<polygon fill="black" stroke="black" points="760.743,-441.318 757.847,-451.51 766.466,-445.349 760.743,-441.318"/>
</g>
<!-- M -->
<g id="node39" class="node"><title>M</title>
<ellipse fill="none" stroke="black" cx="467" cy="-858.448" rx="18" ry="18"/>
<text text-anchor="middle" x="467" y="-857.248" font-family="Times,serif" font-size="4.00">M</text>
</g>
<!-- M&#45;&gt;IKK Complex -->
<g id="edge53" class="edge"><title>M&#45;&gt;IKK Complex</title>
<path fill="none" stroke="black" d="M453.381,-846.183C442.802,-837.774 427.532,-826.365 413,-818.143 377.293,-797.939 358.655,-809.409 328,-782.143 285.038,-743.93 264,-727.211 264,-669.715 264,-669.715 264,-669.715 264,-474.269 264,-428.029 252.891,-407.073 283,-371.979 314.577,-335.176 342.703,-357.82 386,-335.979 387.801,-335.071 389.619,-334.076 391.425,-333.028"/>
<polygon fill="black" stroke="black" points="393.63,-335.776 400.231,-327.488 389.903,-329.851 393.63,-335.776"/>
</g>
<!-- M&#45;&gt;DDX58_dsRNA -->
<g id="edge55" class="edge"><title>M&#45;&gt;DDX58_dsRNA</title>
<path fill="none" stroke="black" d="M452.903,-846.943C442.073,-838.932 426.699,-827.689 413,-818.143 389.335,-801.652 377.003,-804.679 359,-782.143 340.397,-758.856 329.176,-726.62 322.885,-702.634"/>
<polygon fill="black" stroke="black" points="326.279,-701.779 320.484,-692.91 319.483,-703.457 326.279,-701.779"/>
</g>
<!-- M&#45;&gt;IFIH1_dsRNA -->
<g id="edge54" class="edge"><title>M&#45;&gt;IFIH1_dsRNA</title>
<path fill="none" stroke="black" d="M477.15,-843.429C488.48,-827.781 507.063,-802.116 521.091,-782.742"/>
<polygon fill="black" stroke="black" points="523.951,-784.76 526.981,-774.608 518.281,-780.655 523.951,-784.76"/>
</g>
<!-- M&#45;&gt;TANK_TRAF3_IKBKE -->
<g id="edge56" class="edge"><title>M&#45;&gt;TANK_TRAF3_IKBKE</title>
<path fill="none" stroke="black" d="M479.831,-845.518C488.815,-837.41 501.265,-826.653 513,-818.143 537.867,-800.108 548.374,-801.775 572,-782.143 612.916,-748.144 624.067,-738.384 652,-693.11 671.038,-662.252 705.116,-568.213 723.819,-514.658"/>
<polygon fill="black" stroke="black" points="727.146,-515.748 727.126,-505.153 720.534,-513.448 727.146,-515.748"/>
</g>
<!-- TANK -->
<g id="node40" class="node"><title>TANK</title>
<ellipse fill="none" stroke="black" cx="814" cy="-575.439" rx="18" ry="18"/>
<text text-anchor="middle" x="814" y="-574.239" font-family="Times,serif" font-size="4.00">TANK</text>
</g>
<!-- TANK&#45;&gt;TANK_TRAF3_IKBKE -->
<g id="edge57" class="edge"><title>TANK&#45;&gt;TANK_TRAF3_IKBKE</title>
<path fill="none" stroke="black" d="M803.293,-560.789C792.686,-547.265 776.052,-526.058 762.101,-508.27"/>
<polygon fill="black" stroke="black" points="764.836,-506.087 755.91,-500.378 759.328,-510.407 764.836,-506.087"/>
</g>
<!-- ssRNA -->
<g id="node41" class="node"><title>ssRNA</title>
<ellipse fill="none" stroke="black" cx="1014" cy="-858.448" rx="18" ry="18"/>
<text text-anchor="middle" x="1014" y="-857.248" font-family="Times,serif" font-size="4.00">ssRNA</text>
</g>
<!-- ssRNA&#45;&gt;TLR8_ssRNA -->
<g id="edge58" class="edge"><title>ssRNA&#45;&gt;TLR8_ssRNA</title>
<path fill="none" stroke="black" d="M1008.72,-840.799C1004.09,-826.212 997.241,-804.644 991.638,-786.993"/>
<polygon fill="black" stroke="black" points="994.871,-785.608 988.509,-777.135 988.199,-787.726 994.871,-785.608"/>
</g>
<!-- ssRNA&#45;&gt;TLR7_ssRNA -->
<g id="edge59" class="edge"><title>ssRNA&#45;&gt;TLR7_ssRNA</title>
<path fill="none" stroke="black" d="M1019.12,-840.799C1023.6,-826.212 1030.24,-804.644 1035.66,-786.993"/>
<polygon fill="black" stroke="black" points="1039.1,-787.722 1038.69,-777.135 1032.41,-785.665 1039.1,-787.722"/>
</g>
<!-- Orf9 -->
<g id="node42" class="node"><title>Orf9</title>
<ellipse fill="none" stroke="black" cx="1124" cy="-858.448" rx="18" ry="18"/>
<text text-anchor="middle" x="1124" y="-857.248" font-family="Times,serif" font-size="4.00">Orf9</text>
</g>
<!-- Orf9&#45;&gt;ITCH -->
<g id="edge60" class="edge"><title>Orf9&#45;&gt;ITCH</title>
<path fill="none" stroke="black" d="M1124,-840.345C1124,-824.919 1124,-801.962 1124,-783.987"/>
<polygon fill="black" stroke="black" points="1127.5,-783.813 1124,-773.813 1120.5,-783.813 1127.5,-783.813"/>
</g>
<!-- CASP8&#45;&gt;IKK Complex -->
<g id="edge61" class="edge"><title>CASP8&#45;&gt;IKK Complex</title>
<path fill="none" stroke="black" d="M418,-371.63C418,-363.999 418,-354.786 418,-345.995"/>
<polygon fill="black" stroke="black" points="421.5,-345.988 418,-335.988 414.5,-345.988 421.5,-345.988"/>
</g>
<!-- TRAF5 -->
<g id="node44" class="node"><title>TRAF5</title>
<ellipse fill="none" stroke="black" cx="484" cy="-668.715" rx="18" ry="18"/>
<text text-anchor="middle" x="484" y="-667.515" font-family="Times,serif" font-size="4.00">TRAF5</text>
</g>
<!-- TRAF5&#45;&gt;MAVS_TRAF -->
<g id="edge62" class="edge"><title>TRAF5&#45;&gt;MAVS_TRAF</title>
<path fill="none" stroke="black" d="M485.693,-650.546C486.889,-638.412 488.527,-621.808 489.948,-607.391"/>
<polygon fill="black" stroke="black" points="493.437,-607.671 490.936,-597.376 486.471,-606.984 493.437,-607.671"/>
</g>
<!-- N -->
<g id="node45" class="node"><title>N</title>
<ellipse fill="none" stroke="black" cx="386" cy="-858.448" rx="18" ry="18"/>
<text text-anchor="middle" x="386" y="-857.248" font-family="Times,serif" font-size="4.00">N</text>
</g>
<!-- N&#45;&gt;NFKB -->
<g id="edge64" class="edge"><title>N&#45;&gt;NFKB</title>
<path fill="none" stroke="black" d="M372.298,-846.754C361.739,-838.645 346.68,-827.361 333,-818.143 307.526,-800.976 294.098,-805.374 274,-782.143 238.452,-741.054 226,-724.046 226,-669.715 226,-669.715 226,-669.715 226,-312.175 226,-263.672 243.599,-209.297 255.45,-178.179"/>
<polygon fill="black" stroke="black" points="258.829,-179.148 259.215,-168.56 252.31,-176.596 258.829,-179.148"/>
</g>
<!-- N&#45;&gt;DDX58 -->
<g id="edge65" class="edge"><title>N&#45;&gt;DDX58</title>
<path fill="none" stroke="black" d="M386,-840.345C386,-824.919 386,-801.962 386,-783.987"/>
<polygon fill="black" stroke="black" points="389.5,-783.813 386,-773.813 382.5,-783.813 389.5,-783.813"/>
</g>
<!-- N&#45;&gt;NFKBIA -->
<g id="edge63" class="edge"><title>N&#45;&gt;NFKBIA</title>
<path fill="none" stroke="black" d="M395.993,-842.881C414.86,-816.443 458.32,-760.407 508,-729.11 551.881,-701.466 585.221,-732.464 619,-693.11 653.218,-653.244 638,-628.976 638,-576.439 638,-576.439 638,-576.439 638,-312.175 638,-197.262 457.466,-163.954 386.845,-155.32"/>
<polygon fill="black" stroke="black" points="387.211,-151.839 376.877,-154.178 386.414,-158.794 387.211,-151.839"/>
</g>
<!-- MAVS_TRADD&#45;&gt;RIPK1_FADD -->
<g id="edge66" class="edge"><title>MAVS_TRADD&#45;&gt;RIPK1_FADD</title>
<path fill="none" stroke="black" d="M555.989,-562.006C528.025,-544.631 477.152,-513.022 445.602,-493.419"/>
<polygon fill="black" stroke="black" points="447.206,-490.295 436.865,-487.99 443.512,-496.241 447.206,-490.295"/>
</g>
<!-- MAVS_TRADD&#45;&gt;TANK_TRAF3_IKBKE -->
<g id="edge67" class="edge"><title>MAVS_TRADD&#45;&gt;TANK_TRAF3_IKBKE</title>
<path fill="none" stroke="black" d="M596.065,-562.204C622.494,-546.089 669.402,-517.487 701.798,-497.733"/>
<polygon fill="black" stroke="black" points="703.806,-500.608 710.522,-492.414 700.162,-494.632 703.806,-500.608"/>
</g>
<!-- TLR8 -->
<g id="node47" class="node"><title>TLR8</title>
<ellipse fill="none" stroke="black" cx="960" cy="-858.448" rx="18" ry="18"/>
<text text-anchor="middle" x="960" y="-857.248" font-family="Times,serif" font-size="4.00">TLR8</text>
</g>
<!-- TLR8&#45;&gt;TLR8_ssRNA -->
<g id="edge68" class="edge"><title>TLR8&#45;&gt;TLR8_ssRNA</title>
<path fill="none" stroke="black" d="M963.633,-840.799C966.795,-826.305 971.462,-804.921 975.3,-787.333"/>
<polygon fill="black" stroke="black" points="978.733,-788.014 977.446,-777.497 971.894,-786.521 978.733,-788.014"/>
</g>
<!-- MAP2K7&#45;&gt;JNK -->
<g id="edge69" class="edge"><title>MAP2K7&#45;&gt;JNK</title>
<path fill="none" stroke="black" d="M174.141,-372.748C170.674,-363.142 166.204,-350.757 162.268,-339.852"/>
<polygon fill="black" stroke="black" points="165.534,-338.593 158.847,-330.375 158.95,-340.969 165.534,-338.593"/>
</g>
<!-- NFKB1 -->
<g id="node49" class="node"><title>NFKB1</title>
<ellipse fill="none" stroke="black" cx="359" cy="-313.175" rx="18" ry="18"/>
<text text-anchor="middle" x="359" y="-311.975" font-family="Times,serif" font-size="4.00">NFKB1</text>
</g>
<!-- NFKB1&#45;&gt;NFKB_NFKBIA -->
<g id="edge70" class="edge"><title>NFKB1&#45;&gt;NFKB_NFKBIA</title>
<path fill="none" stroke="black" d="M359,-294.955C359,-286.156 359,-275.136 359,-264.732"/>
<polygon fill="black" stroke="black" points="362.5,-264.639 359,-254.639 355.5,-264.639 362.5,-264.639"/>
</g>
<!-- JNK&#45;&gt;AP1 -->
<g id="edge71" class="edge"><title>JNK&#45;&gt;AP1</title>
<path fill="none" stroke="black" d="M153,-294.955C153,-284.297 153,-270.379 153,-258.246"/>
<polygon fill="black" stroke="black" points="156.5,-258.171 153,-248.171 149.5,-258.171 156.5,-258.171"/>
</g>
<!-- TLR3_dsRNA&#45;&gt;TICAM1 -->
<g id="edge72" class="edge"><title>TLR3_dsRNA&#45;&gt;TICAM1</title>
<path fill="none" stroke="black" d="M52.4695,-735.358C46.4907,-723.271 38.7227,-707.566 32.2838,-694.549"/>
<polygon fill="black" stroke="black" points="35.2415,-692.634 27.6706,-685.222 28.9671,-695.738 35.2415,-692.634"/>
</g>
<!-- MAVS_TRAF&#45;&gt;TRAF6 -->
<g id="edge73" class="edge"><title>MAVS_TRAF&#45;&gt;TRAF6</title>
<path fill="none" stroke="black" d="M482.29,-594.479C477.341,-599.136 471.555,-604.04 466,-608.319 443.15,-625.922 434.945,-626.84 412,-644.319 408.133,-647.265 404.103,-650.6 400.114,-653.81"/>
<polygon fill="black" stroke="black" points="397.812,-651.166 392.05,-660.057 402.098,-656.7 397.812,-651.166"/>
</g>
<!-- IRAK4 -->
<g id="node53" class="node"><title>IRAK4</title>
<ellipse fill="none" stroke="black" cx="960" cy="-668.715" rx="18" ry="18"/>
<text text-anchor="middle" x="960" y="-667.515" font-family="Times,serif" font-size="4.00">IRAK4</text>
</g>
<!-- IRAK4&#45;&gt;MYD88_IRAK_TRAF -->
<g id="edge74" class="edge"><title>IRAK4&#45;&gt;MYD88_IRAK_TRAF</title>
<path fill="none" stroke="black" d="M959.248,-650.546C958.813,-640.621 958.247,-627.706 957.709,-615.443"/>
<polygon fill="black" stroke="black" points="961.203,-615.213 957.268,-605.376 954.209,-615.52 961.203,-615.213"/>
</g>
<!-- MAP2K6&#45;&gt;MAPK14 -->
<g id="edge75" class="edge"><title>MAP2K6&#45;&gt;MAPK14</title>
<path fill="none" stroke="black" d="M28.157,-374.909C36.0011,-364.043 47.0032,-348.802 56.0235,-336.307"/>
<polygon fill="black" stroke="black" points="58.8732,-338.339 61.8886,-328.182 53.1976,-334.242 58.8732,-338.339"/>
</g>
<!-- Nsp15 -->
<g id="node55" class="node"><title>Nsp15</title>
<ellipse fill="none" stroke="black" cx="306" cy="-858.448" rx="18" ry="18"/>
<text text-anchor="middle" x="306" y="-857.248" font-family="Times,serif" font-size="4.00">Nsp15</text>
</g>
<!-- Nsp15&#45;&gt;EIF2AK2_dsRNA -->
<g id="edge76" class="edge"><title>Nsp15&#45;&gt;EIF2AK2_dsRNA</title>
<path fill="none" stroke="black" d="M293.986,-844.78C286.09,-836.751 275.341,-826.367 265,-818.143 253.883,-809.301 224.983,-790.604 202.137,-776.13"/>
<polygon fill="black" stroke="black" points="203.739,-773.003 193.415,-770.623 200.002,-778.921 203.739,-773.003"/>
</g>
<!-- Nsp15&#45;&gt;IFIH1_dsRNA -->
<g id="edge77" class="edge"><title>Nsp15&#45;&gt;IFIH1_dsRNA</title>
<path fill="none" stroke="black" d="M319.168,-845.859C329.447,-837.281 344.39,-825.802 359,-818.143 408.438,-792.225 471.04,-773.81 508.171,-764.226"/>
<polygon fill="black" stroke="black" points="509.099,-767.602 517.936,-761.759 507.383,-760.815 509.099,-767.602"/>
</g>
<!-- MAP2K3&#45;&gt;MAPK14 -->
<g id="edge78" class="edge"><title>MAP2K3&#45;&gt;MAPK14</title>
<path fill="none" stroke="black" d="M72,-371.63C72,-362.755 72,-351.742 72,-341.739"/>
<polygon fill="black" stroke="black" points="75.5001,-341.431 72,-331.431 68.5001,-341.431 75.5001,-341.431"/>
</g>
<!-- IKBKB -->
<g id="node57" class="node"><title>IKBKB</title>
<ellipse fill="none" stroke="black" cx="472" cy="-389.979" rx="18" ry="18"/>
<text text-anchor="middle" x="472" y="-388.779" font-family="Times,serif" font-size="4.00">IKBKB</text>
</g>
<!-- IKBKB&#45;&gt;IKK Complex -->
<g id="edge79" class="edge"><title>IKBKB&#45;&gt;IKK Complex</title>
<path fill="none" stroke="black" d="M461.843,-374.909C454.812,-365.169 445.243,-351.914 436.839,-340.273"/>
<polygon fill="black" stroke="black" points="439.669,-338.213 430.978,-332.154 433.994,-342.31 439.669,-338.213"/>
</g>
<!-- IKBKG -->
<g id="node58" class="node"><title>IKBKG</title>
<ellipse fill="none" stroke="black" cx="526" cy="-389.979" rx="18" ry="18"/>
<text text-anchor="middle" x="526" y="-388.779" font-family="Times,serif" font-size="4.00">IKBKG</text>
</g>
<!-- IKBKG&#45;&gt;IKK Complex -->
<g id="edge80" class="edge"><title>IKBKG&#45;&gt;IKK Complex</title>
<path fill="none" stroke="black" d="M511.435,-378.891C494.33,-367.044 465.62,-347.158 444.529,-332.55"/>
<polygon fill="black" stroke="black" points="446.509,-329.664 436.296,-326.848 442.524,-335.419 446.509,-329.664"/>
</g>
<!-- TANK_TRAF3_IKBKE&#45;&gt;IKBKE -->
<g id="edge82" class="edge"><title>TANK_TRAF3_IKBKE&#45;&gt;IKBKE</title>
<path fill="none" stroke="black" d="M748.855,-446.071C755.742,-434.568 764.38,-421.531 772.134,-411.028"/>
<polygon fill="black" stroke="black" points="775.067,-412.954 778.38,-402.891 769.515,-408.692 775.067,-412.954"/>
</g>
<!-- TBK1 -->
<g id="node62" class="node"><title>TBK1</title>
<ellipse fill="none" stroke="black" cx="737" cy="-389.979" rx="18" ry="18"/>
<text text-anchor="middle" x="737" y="-388.779" font-family="Times,serif" font-size="4.00">TBK1</text>
</g>
<!-- TANK_TRAF3_IKBKE&#45;&gt;TBK1 -->
<g id="edge81" class="edge"><title>TANK_TRAF3_IKBKE&#45;&gt;TBK1</title>
<path fill="none" stroke="black" d="M737,-443.728C737,-435.464 737,-426.571 737,-418.484"/>
<polygon fill="black" stroke="black" points="740.5,-418.44 737,-408.44 733.5,-418.44 740.5,-418.44"/>
</g>
<!-- TLR7_ssRNA&#45;&gt;MYD88 -->
<g id="edge83" class="edge"><title>TLR7_ssRNA&#45;&gt;MYD88</title>
<path fill="none" stroke="black" d="M1037.65,-734.503C1033.39,-722.817 1027.97,-707.974 1023.39,-695.445"/>
<polygon fill="black" stroke="black" points="1026.66,-694.19 1019.94,-685.997 1020.09,-696.591 1026.66,-694.19"/>
</g>
<!-- TRAF6&#45;&gt;TICAM1_TRAF3_TRAF6 -->
<g id="edge85" class="edge"><title>TRAF6&#45;&gt;TICAM1_TRAF3_TRAF6</title>
<path fill="none" stroke="black" d="M364.07,-655.054C359.685,-651.068 354.451,-647.009 349,-644.319 277.793,-609.178 247.155,-639.202 174,-608.319 169.799,-606.546 165.582,-604.373 161.491,-602.002"/>
<polygon fill="black" stroke="black" points="163.132,-598.9 152.795,-596.575 159.426,-604.839 163.132,-598.9"/>
</g>
<!-- TRAF6&#45;&gt;MAP3K7 -->
<g id="edge88" class="edge"><title>TRAF6&#45;&gt;MAP3K7</title>
<path fill="none" stroke="black" d="M362.964,-656.115C358.58,-652.295 353.626,-648.068 349,-644.319 277.62,-586.482 189.868,-521.899 149.395,-492.464"/>
<polygon fill="black" stroke="black" points="151.423,-489.612 141.274,-486.569 147.31,-495.276 151.423,-489.612"/>
</g>
<!-- TRAF6&#45;&gt;MYD88_IRAK_TRAF -->
<g id="edge87" class="edge"><title>TRAF6&#45;&gt;MYD88_IRAK_TRAF</title>
<path fill="none" stroke="black" d="M387.756,-654.672C392.127,-650.656 397.397,-646.675 403,-644.319 583.056,-568.617 648.702,-642.561 841,-608.319 867.179,-603.658 896.013,-595.657 918.26,-588.838"/>
<polygon fill="black" stroke="black" points="919.482,-592.123 927.985,-585.803 917.397,-585.441 919.482,-592.123"/>
</g>
<!-- TRAF6&#45;&gt;IKK Complex -->
<g id="edge84" class="edge"><title>TRAF6&#45;&gt;IKK Complex</title>
<path fill="none" stroke="black" d="M385.954,-653.23C423.149,-599.092 551.9,-411.548 553,-407.979 557.714,-392.69 561.81,-385.335 553,-371.979 530.486,-337.849 483.201,-323.796 451.015,-318.059"/>
<polygon fill="black" stroke="black" points="451.164,-314.539 440.737,-316.416 450.058,-321.451 451.164,-314.539"/>
</g>
<!-- TRAF6&#45;&gt;MAVS_TRAF -->
<g id="edge86" class="edge"><title>TRAF6&#45;&gt;MAVS_TRAF</title>
<path fill="none" stroke="black" d="M384.037,-652.53C387.167,-649.724 390.645,-646.875 394,-644.319 416.945,-626.84 425.15,-625.922 448,-608.319 454.002,-603.696 460.272,-598.344 466.268,-593.361"/>
<polygon fill="black" stroke="black" points="468.668,-595.921 474.222,-586.899 464.254,-590.488 468.668,-595.921"/>
</g>
<!-- TBK1&#45;&gt;IRF3 -->
<g id="edge89" class="edge"><title>TBK1&#45;&gt;IRF3</title>
<path fill="none" stroke="black" d="M737,-371.63C737,-362.755 737,-351.742 737,-341.739"/>
<polygon fill="black" stroke="black" points="740.5,-341.431 737,-331.431 733.5,-341.431 740.5,-341.431"/>
</g>
<!-- CASP10&#45;&gt;IKK Complex -->
<g id="edge90" class="edge"><title>CASP10&#45;&gt;IKK Complex</title>
<path fill="none" stroke="black" d="M374.157,-374.909C381.188,-365.169 390.757,-351.914 399.161,-340.273"/>
<polygon fill="black" stroke="black" points="402.006,-342.31 405.022,-332.154 396.331,-338.213 402.006,-342.31"/>
</g>
</g>
</svg>
