<?xml version="1.0" encoding="UTF-8" standalone="no"?>
<!DOCTYPE svg PUBLIC "-//W3C//DTD SVG 1.1//EN"
 "http://www.w3.org/Graphics/SVG/1.1/DTD/svg11.dtd">
<!-- Generated by graphviz version 2.38.0 (20140413.2041)
 -->
<!-- Title: G Pages: 1 -->
<svg width="1854pt" height="500pt"
 viewBox="0.00 0.00 1854.00 500.31" xmlns="http://www.w3.org/2000/svg" xmlns:xlink="http://www.w3.org/1999/xlink">
<g id="graph0" class="graph" transform="scale(1 1) rotate(0) translate(4 496.307)">
<title>G</title>
<polygon fill="white" stroke="none" points="-4,4 -4,-496.307 1850,-496.307 1850,4 -4,4"/>
<!-- CDK9 -->
<g id="node1" class="node"><title>CDK9</title>
<ellipse fill="none" stroke="black" cx="18" cy="-474.307" rx="18" ry="18"/>
<text text-anchor="middle" x="18" y="-473.107" font-family="Times,serif" font-size="4.00">CDK9</text>
</g>
<!-- pr_7adb5054&#45;e478&#45;43b2&#45;b076&#45;f7396222d852 -->
<g id="node2" class="node"><title>pr_7adb5054&#45;e478&#45;43b2&#45;b076&#45;f7396222d852</title>
<polygon fill="none" stroke="black" points="146,-419.807 46,-419.807 46,-319.807 146,-319.807 146,-419.807"/>
<text text-anchor="middle" x="96" y="-368.607" font-family="Times,serif" font-size="4.00">pr_7adb5054&#45;e478&#45;43b2&#45;b076&#45;f7396222d852</text>
</g>
<!-- CDK9&#45;&gt;pr_7adb5054&#45;e478&#45;43b2&#45;b076&#45;f7396222d852 -->
<g id="edge1" class="edge"><title>CDK9&#45;&gt;pr_7adb5054&#45;e478&#45;43b2&#45;b076&#45;f7396222d852</title>
<path fill="none" stroke="black" d="M25.125,-457.291C30.3253,-449.215 37.6447,-438.876 45.6361,-428.176"/>
<polygon fill="black" stroke="black" points="48.6132,-430.042 51.8543,-419.955 43.0303,-425.82 48.6132,-430.042"/>
</g>
<!-- pr_f697ff0f&#45;75dc&#45;4fe6&#45;874b&#45;426459153e68 -->
<g id="node45" class="node"><title>pr_f697ff0f&#45;75dc&#45;4fe6&#45;874b&#45;426459153e68</title>
<polygon fill="none" stroke="black" points="251.5,-170.5 154.5,-170.5 154.5,-73.5 251.5,-73.5 251.5,-170.5"/>
<text text-anchor="middle" x="203" y="-120.8" font-family="Times,serif" font-size="4.00">pr_f697ff0f&#45;75dc&#45;4fe6&#45;874b&#45;426459153e68</text>
</g>
<!-- CDK9&#45;&gt;pr_f697ff0f&#45;75dc&#45;4fe6&#45;874b&#45;426459153e68 -->
<g id="edge2" class="edge"><title>CDK9&#45;&gt;pr_f697ff0f&#45;75dc&#45;4fe6&#45;874b&#45;426459153e68</title>
<path fill="none" stroke="black" d="M17.0134,-456.304C15.9706,-427.01 16.7034,-365.707 37,-319.307 61.9861,-262.186 109.129,-208.954 146.81,-172.373"/>
<polygon fill="black" stroke="black" points="149.411,-174.728 154.211,-165.283 144.568,-169.674 149.411,-174.728"/>
</g>
<!-- pr_7adb5054&#45;e478&#45;43b2&#45;b076&#45;f7396222d852&#45;&gt;CDK9 -->
<g id="edge3" class="edge"><title>pr_7adb5054&#45;e478&#45;43b2&#45;b076&#45;f7396222d852&#45;&gt;CDK9</title>
<path fill="none" stroke="black" d="M65.2662,-420.058C56.2155,-432.024 46.563,-444.135 38.2978,-453.777"/>
<polygon fill="black" stroke="black" points="35.4322,-451.734 31.4415,-461.549 40.6816,-456.365 35.4322,-451.734"/>
</g>
<!-- BRD4 -->
<g id="node3" class="node"><title>BRD4</title>
<ellipse fill="none" stroke="black" cx="504" cy="-474.307" rx="18" ry="18"/>
<text text-anchor="middle" x="504" y="-473.107" font-family="Times,serif" font-size="4.00">BRD4</text>
</g>
<!-- BRD4&#45;&gt;pr_7adb5054&#45;e478&#45;43b2&#45;b076&#45;f7396222d852 -->
<g id="edge4" class="edge"><title>BRD4&#45;&gt;pr_7adb5054&#45;e478&#45;43b2&#45;b076&#45;f7396222d852</title>
<path fill="none" stroke="black" d="M490.018,-462.922C485.995,-460.383 481.478,-457.931 477,-456.307 364.436,-415.476 325.344,-452.457 210,-420.307 191.849,-415.248 172.816,-407.88 155.615,-400.367"/>
<polygon fill="black" stroke="black" points="156.822,-397.074 146.264,-396.193 153.968,-403.465 156.822,-397.074"/>
</g>
<!-- pr_2a69fc0e&#45;34c8&#45;4d8c&#45;8674&#45;4553cfa7dcab -->
<g id="node5" class="node"><title>pr_2a69fc0e&#45;34c8&#45;4d8c&#45;8674&#45;4553cfa7dcab</title>
<polygon fill="none" stroke="black" points="436.5,-419.307 337.5,-419.307 337.5,-320.307 436.5,-320.307 436.5,-419.307"/>
<text text-anchor="middle" x="387" y="-368.607" font-family="Times,serif" font-size="4.00">pr_2a69fc0e&#45;34c8&#45;4d8c&#45;8674&#45;4553cfa7dcab</text>
</g>
<!-- BRD4&#45;&gt;pr_2a69fc0e&#45;34c8&#45;4d8c&#45;8674&#45;4553cfa7dcab -->
<g id="edge5" class="edge"><title>BRD4&#45;&gt;pr_2a69fc0e&#45;34c8&#45;4d8c&#45;8674&#45;4553cfa7dcab</title>
<path fill="none" stroke="black" d="M490.579,-461.549C479.127,-451.517 461.828,-436.362 444.63,-421.295"/>
<polygon fill="black" stroke="black" points="446.585,-418.354 436.756,-414.397 441.972,-423.619 446.585,-418.354"/>
</g>
<!-- pr_3d371344&#45;5f09&#45;416b&#45;9504&#45;28aedd3f4017 -->
<g id="node7" class="node"><title>pr_3d371344&#45;5f09&#45;416b&#45;9504&#45;28aedd3f4017</title>
<polygon fill="none" stroke="black" points="670.5,-419.307 571.5,-419.307 571.5,-320.307 670.5,-320.307 670.5,-419.307"/>
<text text-anchor="middle" x="621" y="-368.607" font-family="Times,serif" font-size="4.00">pr_3d371344&#45;5f09&#45;416b&#45;9504&#45;28aedd3f4017</text>
</g>
<!-- BRD4&#45;&gt;pr_3d371344&#45;5f09&#45;416b&#45;9504&#45;28aedd3f4017 -->
<g id="edge6" class="edge"><title>BRD4&#45;&gt;pr_3d371344&#45;5f09&#45;416b&#45;9504&#45;28aedd3f4017</title>
<path fill="none" stroke="black" d="M517.421,-461.549C528.873,-451.517 546.172,-436.362 563.37,-421.295"/>
<polygon fill="black" stroke="black" points="566.028,-423.619 571.244,-414.397 561.415,-418.354 566.028,-423.619"/>
</g>
<!-- pr_9e2b50a5&#45;9062&#45;4ecf&#45;9e0f&#45;dc41906e938d -->
<g id="node9" class="node"><title>pr_9e2b50a5&#45;9062&#45;4ecf&#45;9e0f&#45;dc41906e938d</title>
<polygon fill="none" stroke="black" points="553.5,-419.307 454.5,-419.307 454.5,-320.307 553.5,-320.307 553.5,-419.307"/>
<text text-anchor="middle" x="504" y="-368.607" font-family="Times,serif" font-size="4.00">pr_9e2b50a5&#45;9062&#45;4ecf&#45;9e0f&#45;dc41906e938d</text>
</g>
<!-- BRD4&#45;&gt;pr_9e2b50a5&#45;9062&#45;4ecf&#45;9e0f&#45;dc41906e938d -->
<g id="edge7" class="edge"><title>BRD4&#45;&gt;pr_9e2b50a5&#45;9062&#45;4ecf&#45;9e0f&#45;dc41906e938d</title>
<path fill="none" stroke="black" d="M498.885,-456.838C498.014,-449.199 497.491,-439.607 497.316,-429.623"/>
<polygon fill="black" stroke="black" points="500.816,-429.546 497.257,-419.566 493.816,-429.587 500.816,-429.546"/>
</g>
<!-- CCNT1 -->
<g id="node4" class="node"><title>CCNT1</title>
<ellipse fill="none" stroke="black" cx="387" cy="-245.653" rx="18" ry="18"/>
<text text-anchor="middle" x="387" y="-244.453" font-family="Times,serif" font-size="4.00">CCNT1</text>
</g>
<!-- CCNT1&#45;&gt;pr_2a69fc0e&#45;34c8&#45;4d8c&#45;8674&#45;4553cfa7dcab -->
<g id="edge8" class="edge"><title>CCNT1&#45;&gt;pr_2a69fc0e&#45;34c8&#45;4d8c&#45;8674&#45;4553cfa7dcab</title>
<path fill="none" stroke="black" d="M391.795,-263.183C393.161,-275.422 393.811,-292.893 393.745,-310.111"/>
<polygon fill="black" stroke="black" points="390.245,-310.136 393.624,-320.178 397.244,-310.221 390.245,-310.136"/>
</g>
<!-- CCNT1&#45;&gt;pr_f697ff0f&#45;75dc&#45;4fe6&#45;874b&#45;426459153e68 -->
<g id="edge9" class="edge"><title>CCNT1&#45;&gt;pr_f697ff0f&#45;75dc&#45;4fe6&#45;874b&#45;426459153e68</title>
<path fill="none" stroke="black" d="M372.254,-234.904C348.231,-219.021 299.408,-186.741 260.347,-160.915"/>
<polygon fill="black" stroke="black" points="261.938,-157.772 251.666,-155.176 258.078,-163.611 261.938,-157.772"/>
</g>
<!-- pr_2a69fc0e&#45;34c8&#45;4d8c&#45;8674&#45;4553cfa7dcab&#45;&gt;CCNT1 -->
<g id="edge10" class="edge"><title>pr_2a69fc0e&#45;34c8&#45;4d8c&#45;8674&#45;4553cfa7dcab&#45;&gt;CCNT1</title>
<path fill="none" stroke="black" d="M380.376,-320.178C380.049,-304.218 380.359,-287.074 381.308,-273.359"/>
<polygon fill="black" stroke="black" points="384.813,-273.452 382.205,-263.183 377.84,-272.837 384.813,-273.452"/>
</g>
<!-- histone -->
<g id="node6" class="node"><title>histone</title>
<ellipse fill="none" stroke="black" cx="621" cy="-245.653" rx="18" ry="18"/>
<text text-anchor="middle" x="621" y="-244.453" font-family="Times,serif" font-size="4.00">histone</text>
</g>
<!-- histone&#45;&gt;pr_3d371344&#45;5f09&#45;416b&#45;9504&#45;28aedd3f4017 -->
<g id="edge11" class="edge"><title>histone&#45;&gt;pr_3d371344&#45;5f09&#45;416b&#45;9504&#45;28aedd3f4017</title>
<path fill="none" stroke="black" d="M625.795,-263.183C627.161,-275.422 627.811,-292.893 627.745,-310.111"/>
<polygon fill="black" stroke="black" points="624.245,-310.136 627.624,-320.178 631.244,-310.221 624.245,-310.136"/>
</g>
<!-- pr_3d371344&#45;5f09&#45;416b&#45;9504&#45;28aedd3f4017&#45;&gt;histone -->
<g id="edge12" class="edge"><title>pr_3d371344&#45;5f09&#45;416b&#45;9504&#45;28aedd3f4017&#45;&gt;histone</title>
<path fill="none" stroke="black" d="M614.376,-320.178C614.049,-304.218 614.359,-287.074 615.308,-273.359"/>
<polygon fill="black" stroke="black" points="618.813,-273.452 616.205,-263.183 611.84,-272.837 618.813,-273.452"/>
</g>
<!-- BRD2 -->
<g id="node8" class="node"><title>BRD2</title>
<ellipse fill="none" stroke="black" cx="771" cy="-474.307" rx="18" ry="18"/>
<text text-anchor="middle" x="771" y="-473.107" font-family="Times,serif" font-size="4.00">BRD2</text>
</g>
<!-- BRD2&#45;&gt;pr_3d371344&#45;5f09&#45;416b&#45;9504&#45;28aedd3f4017 -->
<g id="edge13" class="edge"><title>BRD2&#45;&gt;pr_3d371344&#45;5f09&#45;416b&#45;9504&#45;28aedd3f4017</title>
<path fill="none" stroke="black" d="M755.372,-465.261C736.839,-455.482 705.277,-438.076 680,-420.307 679.617,-420.038 679.234,-419.767 678.85,-419.494"/>
<polygon fill="black" stroke="black" points="680.879,-416.641 670.749,-413.536 676.731,-422.281 680.879,-416.641"/>
</g>
<!-- pr_1cae8bd5&#45;f2bf&#45;46b4&#45;9d95&#45;e0ac57f1612c -->
<g id="node20" class="node"><title>pr_1cae8bd5&#45;f2bf&#45;46b4&#45;9d95&#45;e0ac57f1612c</title>
<polygon fill="none" stroke="black" points="905,-418.807 807,-418.807 807,-320.807 905,-320.807 905,-418.807"/>
<text text-anchor="middle" x="856" y="-368.607" font-family="Times,serif" font-size="4.00">pr_1cae8bd5&#45;f2bf&#45;46b4&#45;9d95&#45;e0ac57f1612c</text>
</g>
<!-- BRD2&#45;&gt;pr_1cae8bd5&#45;f2bf&#45;46b4&#45;9d95&#45;e0ac57f1612c -->
<g id="edge14" class="edge"><title>BRD2&#45;&gt;pr_1cae8bd5&#45;f2bf&#45;46b4&#45;9d95&#45;e0ac57f1612c</title>
<path fill="none" stroke="black" d="M778.9,-457.739C784.902,-449.276 793.487,-438.235 802.781,-426.875"/>
<polygon fill="black" stroke="black" points="805.629,-428.924 809.306,-418.988 800.235,-424.462 805.629,-428.924"/>
</g>
<!-- pr_07684051&#45;b558&#45;45ac&#45;bcc4&#45;23e5fd2bd9cd -->
<g id="node23" class="node"><title>pr_07684051&#45;b558&#45;45ac&#45;bcc4&#45;23e5fd2bd9cd</title>
<polygon fill="none" stroke="black" points="789,-419.807 689,-419.807 689,-319.807 789,-319.807 789,-419.807"/>
<text text-anchor="middle" x="739" y="-368.607" font-family="Times,serif" font-size="4.00">pr_07684051&#45;b558&#45;45ac&#45;bcc4&#45;23e5fd2bd9cd</text>
</g>
<!-- BRD2&#45;&gt;pr_07684051&#45;b558&#45;45ac&#45;bcc4&#45;23e5fd2bd9cd -->
<g id="edge15" class="edge"><title>BRD2&#45;&gt;pr_07684051&#45;b558&#45;45ac&#45;bcc4&#45;23e5fd2bd9cd</title>
<path fill="none" stroke="black" d="M765.859,-456.838C763.475,-449.205 760.484,-439.622 757.37,-429.647"/>
<polygon fill="black" stroke="black" points="760.683,-428.517 754.362,-420.014 754.001,-430.603 760.683,-428.517"/>
</g>
<!-- pr_9e2b50a5&#45;9062&#45;4ecf&#45;9e0f&#45;dc41906e938d&#45;&gt;BRD4 -->
<g id="edge16" class="edge"><title>pr_9e2b50a5&#45;9062&#45;4ecf&#45;9e0f&#45;dc41906e938d&#45;&gt;BRD4</title>
<path fill="none" stroke="black" d="M510.743,-419.566C510.796,-428.903 510.55,-438.351 510.004,-446.666"/>
<polygon fill="black" stroke="black" points="506.499,-446.572 509.115,-456.838 513.473,-447.181 506.499,-446.572"/>
</g>
<!-- E -->
<g id="node10" class="node"><title>E</title>
<ellipse fill="none" stroke="black" cx="973" cy="-474.307" rx="18" ry="18"/>
<text text-anchor="middle" x="973" y="-473.107" font-family="Times,serif" font-size="4.00">E</text>
</g>
<!-- E&#45;&gt;pr_9e2b50a5&#45;9062&#45;4ecf&#45;9e0f&#45;dc41906e938d -->
<g id="edge17" class="edge"><title>E&#45;&gt;pr_9e2b50a5&#45;9062&#45;4ecf&#45;9e0f&#45;dc41906e938d</title>
<path fill="none" stroke="black" d="M955.476,-469.593C937.387,-465.855 908.317,-460.112 883,-456.307 744.222,-435.448 695.888,-475.537 563.031,-420.142"/>
<polygon fill="black" stroke="black" points="564.308,-416.881 553.737,-416.17 561.558,-423.318 564.308,-416.881"/>
</g>
<!-- E&#45;&gt;pr_1cae8bd5&#45;f2bf&#45;46b4&#45;9d95&#45;e0ac57f1612c -->
<g id="edge18" class="edge"><title>E&#45;&gt;pr_1cae8bd5&#45;f2bf&#45;46b4&#45;9d95&#45;e0ac57f1612c</title>
<path fill="none" stroke="black" d="M959.579,-461.549C948.023,-451.425 930.513,-436.086 913.161,-420.884"/>
<polygon fill="black" stroke="black" points="915.049,-417.885 905.221,-413.928 910.437,-423.15 915.049,-417.885"/>
</g>
<!-- pr_136c973d&#45;77df&#45;4268&#45;b3b9&#45;ee093c9f3615 -->
<g id="node24" class="node"><title>pr_136c973d&#45;77df&#45;4268&#45;b3b9&#45;ee093c9f3615</title>
<polygon fill="none" stroke="black" points="1140.5,-419.307 1041.5,-419.307 1041.5,-320.307 1140.5,-320.307 1140.5,-419.307"/>
<text text-anchor="middle" x="1091" y="-368.607" font-family="Times,serif" font-size="4.00">pr_136c973d&#45;77df&#45;4268&#45;b3b9&#45;ee093c9f3615</text>
</g>
<!-- E&#45;&gt;pr_136c973d&#45;77df&#45;4268&#45;b3b9&#45;ee093c9f3615 -->
<g id="edge19" class="edge"><title>E&#45;&gt;pr_136c973d&#45;77df&#45;4268&#45;b3b9&#45;ee093c9f3615</title>
<path fill="none" stroke="black" d="M986.536,-461.549C998.19,-451.425 1015.85,-436.086 1033.35,-420.884"/>
<polygon fill="black" stroke="black" points="1036.1,-423.128 1041.36,-413.928 1031.51,-417.844 1036.1,-423.128"/>
</g>
<!-- pr_d1211090&#45;0702&#45;4b2a&#45;a72f&#45;7c42c6543ec7 -->
<g id="node34" class="node"><title>pr_d1211090&#45;0702&#45;4b2a&#45;a72f&#45;7c42c6543ec7</title>
<polygon fill="none" stroke="black" points="1023,-419.807 923,-419.807 923,-319.807 1023,-319.807 1023,-419.807"/>
<text text-anchor="middle" x="973" y="-368.607" font-family="Times,serif" font-size="4.00">pr_d1211090&#45;0702&#45;4b2a&#45;a72f&#45;7c42c6543ec7</text>
</g>
<!-- E&#45;&gt;pr_d1211090&#45;0702&#45;4b2a&#45;a72f&#45;7c42c6543ec7 -->
<g id="edge20" class="edge"><title>E&#45;&gt;pr_d1211090&#45;0702&#45;4b2a&#45;a72f&#45;7c42c6543ec7</title>
<path fill="none" stroke="black" d="M973,-455.919C973,-448.621 973,-439.664 973,-430.331"/>
<polygon fill="black" stroke="black" points="976.5,-430.117 973,-420.117 969.5,-430.117 976.5,-430.117"/>
</g>
<!-- pr_11e8c704&#45;aac1&#45;4be8&#45;997a&#45;f60c63f45d73 -->
<g id="node38" class="node"><title>pr_11e8c704&#45;aac1&#45;4be8&#45;997a&#45;f60c63f45d73</title>
<polygon fill="none" stroke="black" points="1729.5,-419.307 1630.5,-419.307 1630.5,-320.307 1729.5,-320.307 1729.5,-419.307"/>
<text text-anchor="middle" x="1680" y="-368.607" font-family="Times,serif" font-size="4.00">pr_11e8c704&#45;aac1&#45;4be8&#45;997a&#45;f60c63f45d73</text>
</g>
<!-- E&#45;&gt;pr_11e8c704&#45;aac1&#45;4be8&#45;997a&#45;f60c63f45d73 -->
<g id="edge21" class="edge"><title>E&#45;&gt;pr_11e8c704&#45;aac1&#45;4be8&#45;997a&#45;f60c63f45d73</title>
<path fill="none" stroke="black" d="M991.008,-471.834C1095.66,-463.274 1621,-420.307 1621,-420.307 1621.1,-420.266 1621.2,-420.224 1621.3,-420.182"/>
<polygon fill="black" stroke="black" points="1623.05,-423.223 1630.49,-415.68 1619.97,-416.938 1623.05,-423.223"/>
</g>
<!-- H4C14 -->
<g id="node11" class="node"><title>H4C14</title>
<ellipse fill="none" stroke="black" cx="342" cy="-474.307" rx="18" ry="18"/>
<text text-anchor="middle" x="342" y="-473.107" font-family="Times,serif" font-size="4.00">H4C14</text>
</g>
<!-- pr_b322c2d1&#45;1b7f&#45;4eec&#45;adea&#45;50cc8233cd2b -->
<g id="node12" class="node"><title>pr_b322c2d1&#45;1b7f&#45;4eec&#45;adea&#45;50cc8233cd2b</title>
<polygon fill="none" stroke="black" points="319,-419.807 219,-419.807 219,-319.807 319,-319.807 319,-419.807"/>
<text text-anchor="middle" x="269" y="-368.607" font-family="Times,serif" font-size="4.00">pr_b322c2d1&#45;1b7f&#45;4eec&#45;adea&#45;50cc8233cd2b</text>
</g>
<!-- H4C14&#45;&gt;pr_b322c2d1&#45;1b7f&#45;4eec&#45;adea&#45;50cc8233cd2b -->
<g id="edge22" class="edge"><title>H4C14&#45;&gt;pr_b322c2d1&#45;1b7f&#45;4eec&#45;adea&#45;50cc8233cd2b</title>
<path fill="none" stroke="black" d="M331.85,-459.055C325.986,-450.822 318.18,-439.861 310.068,-428.47"/>
<polygon fill="black" stroke="black" points="312.782,-426.249 304.13,-420.134 307.08,-430.309 312.782,-426.249"/>
</g>
<!-- pr_b322c2d1&#45;1b7f&#45;4eec&#45;adea&#45;50cc8233cd2b&#45;&gt;histone -->
<g id="edge23" class="edge"><title>pr_b322c2d1&#45;1b7f&#45;4eec&#45;adea&#45;50cc8233cd2b&#45;&gt;histone</title>
<path fill="none" stroke="black" d="M319.144,-324.333C322.061,-322.514 325.021,-320.822 328,-319.307 418.025,-273.513 538.56,-255.493 592.646,-249.382"/>
<polygon fill="black" stroke="black" points="593.28,-252.834 602.847,-248.284 592.53,-245.875 593.28,-252.834"/>
</g>
<!-- H4&#45;16 -->
<g id="node13" class="node"><title>H4&#45;16</title>
<ellipse fill="none" stroke="black" cx="396" cy="-474.307" rx="18" ry="18"/>
<text text-anchor="middle" x="396" y="-473.107" font-family="Times,serif" font-size="4.00">H4&#45;16</text>
</g>
<!-- H4&#45;16&#45;&gt;pr_b322c2d1&#45;1b7f&#45;4eec&#45;adea&#45;50cc8233cd2b -->
<g id="edge24" class="edge"><title>H4&#45;16&#45;&gt;pr_b322c2d1&#45;1b7f&#45;4eec&#45;adea&#45;50cc8233cd2b</title>
<path fill="none" stroke="black" d="M382.08,-462.691C368.254,-452.093 346.504,-435.273 328,-420.307 327.636,-420.013 327.271,-419.717 326.905,-419.421"/>
<polygon fill="black" stroke="black" points="329.07,-416.67 319.11,-413.058 324.644,-422.093 329.07,-416.67"/>
</g>
<!-- H4C1 -->
<g id="node14" class="node"><title>H4C1</title>
<ellipse fill="none" stroke="black" cx="450" cy="-474.307" rx="18" ry="18"/>
<text text-anchor="middle" x="450" y="-473.107" font-family="Times,serif" font-size="4.00">H4C1</text>
</g>
<!-- H4C1&#45;&gt;pr_b322c2d1&#45;1b7f&#45;4eec&#45;adea&#45;50cc8233cd2b -->
<g id="edge25" class="edge"><title>H4C1&#45;&gt;pr_b322c2d1&#45;1b7f&#45;4eec&#45;adea&#45;50cc8233cd2b</title>
<path fill="none" stroke="black" d="M435.454,-463.406C431.504,-460.925 427.165,-458.381 423,-456.307 382.583,-436.178 366.954,-443.138 328,-420.307 327.906,-420.252 327.813,-420.197 327.719,-420.142"/>
<polygon fill="black" stroke="black" points="329.352,-417.033 319.035,-414.622 325.597,-422.94 329.352,-417.033"/>
</g>
<!-- H3C15 -->
<g id="node15" class="node"><title>H3C15</title>
<ellipse fill="none" stroke="black" cx="72" cy="-474.307" rx="18" ry="18"/>
<text text-anchor="middle" x="72" y="-473.107" font-family="Times,serif" font-size="4.00">H3C15</text>
</g>
<!-- H3C15&#45;&gt;pr_b322c2d1&#45;1b7f&#45;4eec&#45;adea&#45;50cc8233cd2b -->
<g id="edge26" class="edge"><title>H3C15&#45;&gt;pr_b322c2d1&#45;1b7f&#45;4eec&#45;adea&#45;50cc8233cd2b</title>
<path fill="none" stroke="black" d="M86.6996,-463.695C90.6484,-461.211 94.9482,-458.594 99,-456.307 135.157,-435.894 176.787,-414.916 209.801,-398.848"/>
<polygon fill="black" stroke="black" points="211.401,-401.962 218.872,-394.451 208.347,-395.663 211.401,-401.962"/>
</g>
<!-- H3C1 -->
<g id="node16" class="node"><title>H3C1</title>
<ellipse fill="none" stroke="black" cx="126" cy="-474.307" rx="18" ry="18"/>
<text text-anchor="middle" x="126" y="-473.107" font-family="Times,serif" font-size="4.00">H3C1</text>
</g>
<!-- H3C1&#45;&gt;pr_b322c2d1&#45;1b7f&#45;4eec&#45;adea&#45;50cc8233cd2b -->
<g id="edge27" class="edge"><title>H3C1&#45;&gt;pr_b322c2d1&#45;1b7f&#45;4eec&#45;adea&#45;50cc8233cd2b</title>
<path fill="none" stroke="black" d="M140.234,-463.104C156.681,-451.316 184.793,-431.165 210.562,-412.694"/>
<polygon fill="black" stroke="black" points="212.74,-415.439 218.829,-406.769 208.662,-409.75 212.74,-415.439"/>
</g>
<!-- H4C9 -->
<g id="node17" class="node"><title>H4C9</title>
<ellipse fill="none" stroke="black" cx="180" cy="-474.307" rx="18" ry="18"/>
<text text-anchor="middle" x="180" y="-473.107" font-family="Times,serif" font-size="4.00">H4C9</text>
</g>
<!-- H4C9&#45;&gt;pr_b322c2d1&#45;1b7f&#45;4eec&#45;adea&#45;50cc8233cd2b -->
<g id="edge28" class="edge"><title>H4C9&#45;&gt;pr_b322c2d1&#45;1b7f&#45;4eec&#45;adea&#45;50cc8233cd2b</title>
<path fill="none" stroke="black" d="M191.635,-459.907C199.049,-451.368 209.212,-439.663 219.735,-427.544"/>
<polygon fill="black" stroke="black" points="222.399,-429.815 226.313,-419.969 217.113,-425.226 222.399,-429.815"/>
</g>
<!-- H2BC21 -->
<g id="node18" class="node"><title>H2BC21</title>
<ellipse fill="none" stroke="black" cx="234" cy="-474.307" rx="18" ry="18"/>
<text text-anchor="middle" x="234" y="-473.107" font-family="Times,serif" font-size="4.00">H2BC21</text>
</g>
<!-- H2BC21&#45;&gt;pr_b322c2d1&#45;1b7f&#45;4eec&#45;adea&#45;50cc8233cd2b -->
<g id="edge29" class="edge"><title>H2BC21&#45;&gt;pr_b322c2d1&#45;1b7f&#45;4eec&#45;adea&#45;50cc8233cd2b</title>
<path fill="none" stroke="black" d="M239.623,-456.838C242.23,-449.205 245.502,-439.622 248.908,-429.647"/>
<polygon fill="black" stroke="black" points="252.278,-430.608 252.198,-420.014 245.654,-428.346 252.278,-430.608"/>
</g>
<!-- H2A -->
<g id="node19" class="node"><title>H2A</title>
<ellipse fill="none" stroke="black" cx="288" cy="-474.307" rx="18" ry="18"/>
<text text-anchor="middle" x="288" y="-473.107" font-family="Times,serif" font-size="4.00">H2A</text>
</g>
<!-- H2A&#45;&gt;pr_b322c2d1&#45;1b7f&#45;4eec&#45;adea&#45;50cc8233cd2b -->
<g id="edge30" class="edge"><title>H2A&#45;&gt;pr_b322c2d1&#45;1b7f&#45;4eec&#45;adea&#45;50cc8233cd2b</title>
<path fill="none" stroke="black" d="M284.863,-456.381C283.486,-448.954 281.779,-439.746 280,-430.15"/>
<polygon fill="black" stroke="black" points="283.395,-429.262 278.131,-420.068 276.513,-430.538 283.395,-429.262"/>
</g>
<!-- pr_1cae8bd5&#45;f2bf&#45;46b4&#45;9d95&#45;e0ac57f1612c&#45;&gt;BRD2 -->
<g id="edge31" class="edge"><title>pr_1cae8bd5&#45;f2bf&#45;46b4&#45;9d95&#45;e0ac57f1612c&#45;&gt;BRD2</title>
<path fill="none" stroke="black" d="M822.867,-418.887C812.331,-431.705 801.009,-444.788 791.576,-454.913"/>
<polygon fill="black" stroke="black" points="788.855,-452.694 784.467,-462.338 793.911,-457.536 788.855,-452.694"/>
</g>
<!-- JQ&#45;1 -->
<g id="node21" class="node"><title>JQ&#45;1</title>
<ellipse fill="none" stroke="black" cx="856" cy="-474.307" rx="18" ry="18"/>
<text text-anchor="middle" x="856" y="-473.107" font-family="Times,serif" font-size="4.00">JQ&#45;1</text>
</g>
<!-- JQ&#45;1&#45;&gt;pr_1cae8bd5&#45;f2bf&#45;46b4&#45;9d95&#45;e0ac57f1612c -->
<g id="edge32" class="edge"><title>JQ&#45;1&#45;&gt;pr_1cae8bd5&#45;f2bf&#45;46b4&#45;9d95&#45;e0ac57f1612c</title>
<path fill="none" stroke="black" d="M856,-455.919C856,-448.374 856,-439.055 856,-429.382"/>
<polygon fill="black" stroke="black" points="859.5,-429.231 856,-419.231 852.5,-429.231 859.5,-429.231"/>
</g>
<!-- TBP -->
<g id="node22" class="node"><title>TBP</title>
<ellipse fill="none" stroke="black" cx="739" cy="-245.653" rx="18" ry="18"/>
<text text-anchor="middle" x="739" y="-244.453" font-family="Times,serif" font-size="4.00">TBP</text>
</g>
<!-- TBP&#45;&gt;pr_07684051&#45;b558&#45;45ac&#45;bcc4&#45;23e5fd2bd9cd -->
<g id="edge33" class="edge"><title>TBP&#45;&gt;pr_07684051&#45;b558&#45;45ac&#45;bcc4&#45;23e5fd2bd9cd</title>
<path fill="none" stroke="black" d="M743.804,-263.264C745.136,-275.248 745.784,-292.218 745.749,-309.055"/>
<polygon fill="black" stroke="black" points="742.244,-309.438 745.638,-319.474 749.244,-309.512 742.244,-309.438"/>
</g>
<!-- pr_07684051&#45;b558&#45;45ac&#45;bcc4&#45;23e5fd2bd9cd&#45;&gt;TBP -->
<g id="edge34" class="edge"><title>pr_07684051&#45;b558&#45;45ac&#45;bcc4&#45;23e5fd2bd9cd&#45;&gt;TBP</title>
<path fill="none" stroke="black" d="M732.362,-319.474C732.057,-303.696 732.374,-286.83 733.311,-273.307"/>
<polygon fill="black" stroke="black" points="736.805,-273.532 734.196,-263.264 729.832,-272.918 736.805,-273.532"/>
</g>
<!-- E&#45;PALS1 -->
<g id="node26" class="node"><title>E&#45;PALS1</title>
<ellipse fill="none" stroke="black" cx="1091" cy="-245.653" rx="18" ry="18"/>
<text text-anchor="middle" x="1091" y="-244.453" font-family="Times,serif" font-size="4.00">E&#45;PALS1</text>
</g>
<!-- pr_136c973d&#45;77df&#45;4268&#45;b3b9&#45;ee093c9f3615&#45;&gt;E&#45;PALS1 -->
<g id="edge35" class="edge"><title>pr_136c973d&#45;77df&#45;4268&#45;b3b9&#45;ee093c9f3615&#45;&gt;E&#45;PALS1</title>
<path fill="none" stroke="black" d="M1091,-320.178C1091,-304.428 1091,-287.525 1091,-273.902"/>
<polygon fill="black" stroke="black" points="1094.5,-273.765 1091,-263.765 1087.5,-273.765 1094.5,-273.765"/>
</g>
<!-- MPP5 -->
<g id="node25" class="node"><title>MPP5</title>
<ellipse fill="none" stroke="black" cx="1208" cy="-474.307" rx="18" ry="18"/>
<text text-anchor="middle" x="1208" y="-473.107" font-family="Times,serif" font-size="4.00">MPP5</text>
</g>
<!-- MPP5&#45;&gt;pr_136c973d&#45;77df&#45;4268&#45;b3b9&#45;ee093c9f3615 -->
<g id="edge36" class="edge"><title>MPP5&#45;&gt;pr_136c973d&#45;77df&#45;4268&#45;b3b9&#45;ee093c9f3615</title>
<path fill="none" stroke="black" d="M1194.58,-461.549C1183.13,-451.517 1165.83,-436.362 1148.63,-421.295"/>
<polygon fill="black" stroke="black" points="1150.58,-418.354 1140.76,-414.397 1145.97,-423.619 1150.58,-418.354"/>
</g>
<!-- pr_547ffc76&#45;05bf&#45;4c83&#45;8255&#45;02c2b2a81cb4 -->
<g id="node28" class="node"><title>pr_547ffc76&#45;05bf&#45;4c83&#45;8255&#45;02c2b2a81cb4</title>
<polygon fill="none" stroke="black" points="1257,-418.807 1159,-418.807 1159,-320.807 1257,-320.807 1257,-418.807"/>
<text text-anchor="middle" x="1208" y="-368.607" font-family="Times,serif" font-size="4.00">pr_547ffc76&#45;05bf&#45;4c83&#45;8255&#45;02c2b2a81cb4</text>
</g>
<!-- MPP5&#45;&gt;pr_547ffc76&#45;05bf&#45;4c83&#45;8255&#45;02c2b2a81cb4 -->
<g id="edge37" class="edge"><title>MPP5&#45;&gt;pr_547ffc76&#45;05bf&#45;4c83&#45;8255&#45;02c2b2a81cb4</title>
<path fill="none" stroke="black" d="M1202.89,-456.838C1202,-449.114 1201.48,-439.393 1201.31,-429.29"/>
<polygon fill="black" stroke="black" points="1204.81,-429.101 1201.26,-419.119 1197.81,-429.136 1204.81,-429.101"/>
</g>
<!-- pr_e6ed3bcf&#45;18bb&#45;4512&#45;a72a&#45;62af42a21a08 -->
<g id="node47" class="node"><title>pr_e6ed3bcf&#45;18bb&#45;4512&#45;a72a&#45;62af42a21a08</title>
<polygon fill="none" stroke="black" points="1374.5,-419.307 1275.5,-419.307 1275.5,-320.307 1374.5,-320.307 1374.5,-419.307"/>
<text text-anchor="middle" x="1325" y="-368.607" font-family="Times,serif" font-size="4.00">pr_e6ed3bcf&#45;18bb&#45;4512&#45;a72a&#45;62af42a21a08</text>
</g>
<!-- MPP5&#45;&gt;pr_e6ed3bcf&#45;18bb&#45;4512&#45;a72a&#45;62af42a21a08 -->
<g id="edge38" class="edge"><title>MPP5&#45;&gt;pr_e6ed3bcf&#45;18bb&#45;4512&#45;a72a&#45;62af42a21a08</title>
<path fill="none" stroke="black" d="M1221.42,-461.549C1232.87,-451.517 1250.17,-436.362 1267.37,-421.295"/>
<polygon fill="black" stroke="black" points="1270.03,-423.619 1275.24,-414.397 1265.42,-418.354 1270.03,-423.619"/>
</g>
<!-- pr_1c5743b3&#45;1694&#45;4fc7&#45;ac96&#45;b29d1c95b367 -->
<g id="node27" class="node"><title>pr_1c5743b3&#45;1694&#45;4fc7&#45;ac96&#45;b29d1c95b367</title>
<polygon fill="none" stroke="black" points="1141,-172 1041,-172 1041,-72 1141,-72 1141,-172"/>
<text text-anchor="middle" x="1091" y="-120.8" font-family="Times,serif" font-size="4.00">pr_1c5743b3&#45;1694&#45;4fc7&#45;ac96&#45;b29d1c95b367</text>
</g>
<!-- E&#45;PALS1&#45;&gt;pr_1c5743b3&#45;1694&#45;4fc7&#45;ac96&#45;b29d1c95b367 -->
<g id="edge39" class="edge"><title>E&#45;PALS1&#45;&gt;pr_1c5743b3&#45;1694&#45;4fc7&#45;ac96&#45;b29d1c95b367</title>
<path fill="none" stroke="black" d="M1091,-227.481C1091,-215.549 1091,-198.879 1091,-182.354"/>
<polygon fill="black" stroke="black" points="1094.5,-182.128 1091,-172.128 1087.5,-182.128 1094.5,-182.128"/>
</g>
<!-- pr_547ffc76&#45;05bf&#45;4c83&#45;8255&#45;02c2b2a81cb4&#45;&gt;MPP5 -->
<g id="edge40" class="edge"><title>pr_547ffc76&#45;05bf&#45;4c83&#45;8255&#45;02c2b2a81cb4&#45;&gt;MPP5</title>
<path fill="none" stroke="black" d="M1214.74,-419.119C1214.8,-428.662 1214.56,-438.341 1213.99,-446.827"/>
<polygon fill="black" stroke="black" points="1210.5,-446.571 1213.11,-456.838 1217.48,-447.183 1210.5,-446.571"/>
</g>
<!-- CRB3 -->
<g id="node29" class="node"><title>CRB3</title>
<ellipse fill="none" stroke="black" cx="1443" cy="-474.307" rx="18" ry="18"/>
<text text-anchor="middle" x="1443" y="-473.107" font-family="Times,serif" font-size="4.00">CRB3</text>
</g>
<!-- pr_460ce294&#45;2c3d&#45;4b38&#45;9c75&#45;a6e8bb0a46ed -->
<g id="node30" class="node"><title>pr_460ce294&#45;2c3d&#45;4b38&#45;9c75&#45;a6e8bb0a46ed</title>
<polygon fill="none" stroke="black" points="1493.5,-420.307 1392.5,-420.307 1392.5,-319.307 1493.5,-319.307 1493.5,-420.307"/>
<text text-anchor="middle" x="1443" y="-368.607" font-family="Times,serif" font-size="4.00">pr_460ce294&#45;2c3d&#45;4b38&#45;9c75&#45;a6e8bb0a46ed</text>
</g>
<!-- CRB3&#45;&gt;pr_460ce294&#45;2c3d&#45;4b38&#45;9c75&#45;a6e8bb0a46ed -->
<g id="edge41" class="edge"><title>CRB3&#45;&gt;pr_460ce294&#45;2c3d&#45;4b38&#45;9c75&#45;a6e8bb0a46ed</title>
<path fill="none" stroke="black" d="M1437.89,-456.838C1437.04,-449.446 1436.52,-440.226 1436.33,-430.592"/>
<polygon fill="black" stroke="black" points="1439.83,-430.433 1436.25,-420.462 1432.83,-430.489 1439.83,-430.433"/>
</g>
<!-- CRB3&#45;&gt;pr_e6ed3bcf&#45;18bb&#45;4512&#45;a72a&#45;62af42a21a08 -->
<g id="edge42" class="edge"><title>CRB3&#45;&gt;pr_e6ed3bcf&#45;18bb&#45;4512&#45;a72a&#45;62af42a21a08</title>
<path fill="none" stroke="black" d="M1429.46,-461.549C1417.81,-451.425 1400.15,-436.086 1382.65,-420.884"/>
<polygon fill="black" stroke="black" points="1384.49,-417.844 1374.64,-413.928 1379.9,-423.128 1384.49,-417.844"/>
</g>
<!-- pr_460ce294&#45;2c3d&#45;4b38&#45;9c75&#45;a6e8bb0a46ed&#45;&gt;CRB3 -->
<g id="edge43" class="edge"><title>pr_460ce294&#45;2c3d&#45;4b38&#45;9c75&#45;a6e8bb0a46ed&#45;&gt;CRB3</title>
<path fill="none" stroke="black" d="M1449.75,-420.462C1449.78,-429.494 1449.53,-438.593 1449.01,-446.634"/>
<polygon fill="black" stroke="black" points="1445.5,-446.572 1448.11,-456.838 1452.47,-447.181 1445.5,-446.572"/>
</g>
<!-- PATJ -->
<g id="node31" class="node"><title>PATJ</title>
<ellipse fill="none" stroke="black" cx="1562" cy="-474.307" rx="18" ry="18"/>
<text text-anchor="middle" x="1562" y="-473.107" font-family="Times,serif" font-size="4.00">PATJ</text>
</g>
<!-- pr_b4022e7c&#45;6c0d&#45;4812&#45;937f&#45;0a5a8dcd7183 -->
<g id="node32" class="node"><title>pr_b4022e7c&#45;6c0d&#45;4812&#45;937f&#45;0a5a8dcd7183</title>
<polygon fill="none" stroke="black" points="1612,-419.807 1512,-419.807 1512,-319.807 1612,-319.807 1612,-419.807"/>
<text text-anchor="middle" x="1562" y="-368.607" font-family="Times,serif" font-size="4.00">pr_b4022e7c&#45;6c0d&#45;4812&#45;937f&#45;0a5a8dcd7183</text>
</g>
<!-- PATJ&#45;&gt;pr_b4022e7c&#45;6c0d&#45;4812&#45;937f&#45;0a5a8dcd7183 -->
<g id="edge44" class="edge"><title>PATJ&#45;&gt;pr_b4022e7c&#45;6c0d&#45;4812&#45;937f&#45;0a5a8dcd7183</title>
<path fill="none" stroke="black" d="M1556.89,-456.838C1556.03,-449.362 1555.51,-440.016 1555.33,-430.264"/>
<polygon fill="black" stroke="black" points="1558.83,-429.989 1555.25,-420.014 1551.83,-430.039 1558.83,-429.989"/>
</g>
<!-- PATJ&#45;&gt;pr_e6ed3bcf&#45;18bb&#45;4512&#45;a72a&#45;62af42a21a08 -->
<g id="edge45" class="edge"><title>PATJ&#45;&gt;pr_e6ed3bcf&#45;18bb&#45;4512&#45;a72a&#45;62af42a21a08</title>
<path fill="none" stroke="black" d="M1544.29,-470.59C1512.59,-465.223 1444.48,-451.369 1383.61,-420.092"/>
<polygon fill="black" stroke="black" points="1385.16,-416.952 1374.69,-415.35 1381.87,-423.133 1385.16,-416.952"/>
</g>
<!-- pr_b4022e7c&#45;6c0d&#45;4812&#45;937f&#45;0a5a8dcd7183&#45;&gt;PATJ -->
<g id="edge46" class="edge"><title>pr_b4022e7c&#45;6c0d&#45;4812&#45;937f&#45;0a5a8dcd7183&#45;&gt;PATJ</title>
<path fill="none" stroke="black" d="M1568.75,-420.014C1568.79,-429.251 1568.54,-438.576 1568,-446.787"/>
<polygon fill="black" stroke="black" points="1564.5,-446.571 1567.11,-456.838 1571.48,-447.183 1564.5,-446.571"/>
</g>
<!-- ATP1A_ATP1B_FXYDs -->
<g id="node33" class="node"><title>ATP1A_ATP1B_FXYDs</title>
<ellipse fill="none" stroke="black" cx="973" cy="-245.653" rx="31.0804" ry="31.0804"/>
<text text-anchor="middle" x="973" y="-244.453" font-family="Times,serif" font-size="4.00">ATP1A_ATP1B_FXYDs</text>
</g>
<!-- ATP1A_ATP1B_FXYDs&#45;&gt;pr_d1211090&#45;0702&#45;4b2a&#45;a72f&#45;7c42c6543ec7 -->
<g id="edge47" class="edge"><title>ATP1A_ATP1B_FXYDs&#45;&gt;pr_d1211090&#45;0702&#45;4b2a&#45;a72f&#45;7c42c6543ec7</title>
<path fill="none" stroke="black" d="M978.894,-276.479C979.495,-286.483 979.78,-298.018 979.748,-309.471"/>
<polygon fill="black" stroke="black" points="976.248,-309.437 979.638,-319.474 983.247,-309.514 976.248,-309.437"/>
</g>
<!-- pr_b8e75bae&#45;c0ef&#45;41e7&#45;8e77&#45;79a7da60c6f8 -->
<g id="node42" class="node"><title>pr_b8e75bae&#45;c0ef&#45;41e7&#45;8e77&#45;79a7da60c6f8</title>
<polygon fill="none" stroke="black" points="1022.5,-171.5 923.5,-171.5 923.5,-72.5 1022.5,-72.5 1022.5,-171.5"/>
<text text-anchor="middle" x="973" y="-120.8" font-family="Times,serif" font-size="4.00">pr_b8e75bae&#45;c0ef&#45;41e7&#45;8e77&#45;79a7da60c6f8</text>
</g>
<!-- ATP1A_ATP1B_FXYDs&#45;&gt;pr_b8e75bae&#45;c0ef&#45;41e7&#45;8e77&#45;79a7da60c6f8 -->
<g id="edge48" class="edge"><title>ATP1A_ATP1B_FXYDs&#45;&gt;pr_b8e75bae&#45;c0ef&#45;41e7&#45;8e77&#45;79a7da60c6f8</title>
<path fill="none" stroke="black" d="M973,-214.269C973,-204.462 973,-193.233 973,-182.083"/>
<polygon fill="black" stroke="black" points="976.5,-181.907 973,-171.907 969.5,-181.907 976.5,-181.907"/>
</g>
<!-- pr_20695b6f&#45;9cb4&#45;4c28&#45;8315&#45;85dab141aa9b -->
<g id="node44" class="node"><title>pr_20695b6f&#45;9cb4&#45;4c28&#45;8315&#45;85dab141aa9b</title>
<polygon fill="none" stroke="black" points="905,-172 805,-172 805,-72 905,-72 905,-172"/>
<text text-anchor="middle" x="855" y="-120.8" font-family="Times,serif" font-size="4.00">pr_20695b6f&#45;9cb4&#45;4c28&#45;8315&#45;85dab141aa9b</text>
</g>
<!-- ATP1A_ATP1B_FXYDs&#45;&gt;pr_20695b6f&#45;9cb4&#45;4c28&#45;8315&#45;85dab141aa9b -->
<g id="edge49" class="edge"><title>ATP1A_ATP1B_FXYDs&#45;&gt;pr_20695b6f&#45;9cb4&#45;4c28&#45;8315&#45;85dab141aa9b</title>
<path fill="none" stroke="black" d="M951.631,-222.623C939.874,-210.501 924.694,-194.852 909.865,-179.564"/>
<polygon fill="black" stroke="black" points="912.105,-176.846 902.63,-172.104 907.08,-181.719 912.105,-176.846"/>
</g>
<!-- pr_d1211090&#45;0702&#45;4b2a&#45;a72f&#45;7c42c6543ec7&#45;&gt;ATP1A_ATP1B_FXYDs -->
<g id="edge50" class="edge"><title>pr_d1211090&#45;0702&#45;4b2a&#45;a72f&#45;7c42c6543ec7&#45;&gt;ATP1A_ATP1B_FXYDs</title>
<path fill="none" stroke="black" d="M966.362,-319.474C966.151,-308.549 966.238,-297.103 966.622,-286.605"/>
<polygon fill="black" stroke="black" points="970.125,-286.635 967.106,-276.479 963.133,-286.301 970.125,-286.635"/>
</g>
<!-- ASIC1 -->
<g id="node35" class="node"><title>ASIC1</title>
<ellipse fill="none" stroke="black" cx="1770" cy="-474.307" rx="18" ry="18"/>
<text text-anchor="middle" x="1770" y="-473.107" font-family="Times,serif" font-size="4.00">ASIC1</text>
</g>
<!-- pr_bef11dc9&#45;45ae&#45;49f3&#45;9e6c&#45;a42b0f9daf65 -->
<g id="node36" class="node"><title>pr_bef11dc9&#45;45ae&#45;49f3&#45;9e6c&#45;a42b0f9daf65</title>
<polygon fill="none" stroke="black" points="1846,-418.807 1748,-418.807 1748,-320.807 1846,-320.807 1846,-418.807"/>
<text text-anchor="middle" x="1797" y="-368.607" font-family="Times,serif" font-size="4.00">pr_bef11dc9&#45;45ae&#45;49f3&#45;9e6c&#45;a42b0f9daf65</text>
</g>
<!-- ASIC1&#45;&gt;pr_bef11dc9&#45;45ae&#45;49f3&#45;9e6c&#45;a42b0f9daf65 -->
<g id="edge51" class="edge"><title>ASIC1&#45;&gt;pr_bef11dc9&#45;45ae&#45;49f3&#45;9e6c&#45;a42b0f9daf65</title>
<path fill="none" stroke="black" d="M1769.36,-455.919C1770.55,-448.294 1772.54,-438.859 1774.96,-429.076"/>
<polygon fill="black" stroke="black" points="1778.39,-429.789 1777.5,-419.231 1771.61,-428.036 1778.39,-429.789"/>
</g>
<!-- ASIC1&#45;&gt;pr_11e8c704&#45;aac1&#45;4be8&#45;997a&#45;f60c63f45d73 -->
<g id="edge52" class="edge"><title>ASIC1&#45;&gt;pr_11e8c704&#45;aac1&#45;4be8&#45;997a&#45;f60c63f45d73</title>
<path fill="none" stroke="black" d="M1758.6,-460.325C1751,-451.671 1740.43,-439.634 1729.51,-427.189"/>
<polygon fill="black" stroke="black" points="1731.91,-424.619 1722.68,-419.414 1726.65,-429.238 1731.91,-424.619"/>
</g>
<!-- pr_bef11dc9&#45;45ae&#45;49f3&#45;9e6c&#45;a42b0f9daf65&#45;&gt;ASIC1 -->
<g id="edge53" class="edge"><title>pr_bef11dc9&#45;45ae&#45;49f3&#45;9e6c&#45;a42b0f9daf65&#45;&gt;ASIC1</title>
<path fill="none" stroke="black" d="M1791.07,-418.915C1788.42,-429.259 1785.35,-439.774 1782.32,-448.767"/>
<polygon fill="black" stroke="black" points="1779.03,-447.588 1778.94,-458.183 1785.61,-449.955 1779.03,-447.588"/>
</g>
<!-- H+ -->
<g id="node37" class="node"><title>H+</title>
<ellipse fill="none" stroke="black" cx="1824" cy="-474.307" rx="18" ry="18"/>
<text text-anchor="middle" x="1824" y="-473.107" font-family="Times,serif" font-size="4.00">H+</text>
</g>
<!-- H+&#45;&gt;pr_bef11dc9&#45;45ae&#45;49f3&#45;9e6c&#45;a42b0f9daf65 -->
<g id="edge54" class="edge"><title>H+&#45;&gt;pr_bef11dc9&#45;45ae&#45;49f3&#45;9e6c&#45;a42b0f9daf65</title>
<path fill="none" stroke="black" d="M1819.54,-456.381C1817.5,-448.625 1814.94,-438.928 1812.3,-428.874"/>
<polygon fill="black" stroke="black" points="1815.67,-427.956 1809.74,-419.177 1808.9,-429.739 1815.67,-427.956"/>
</g>
<!-- ASIC1 trimer_H+_STOML3 -->
<g id="node40" class="node"><title>ASIC1 trimer_H+_STOML3</title>
<ellipse fill="none" stroke="black" cx="1680" cy="-245.653" rx="36.125" ry="36.125"/>
<text text-anchor="middle" x="1680" y="-244.453" font-family="Times,serif" font-size="4.00">ASIC1 trimer_H+_STOML3</text>
</g>
<!-- pr_11e8c704&#45;aac1&#45;4be8&#45;997a&#45;f60c63f45d73&#45;&gt;ASIC1 trimer_H+_STOML3 -->
<g id="edge55" class="edge"><title>pr_11e8c704&#45;aac1&#45;4be8&#45;997a&#45;f60c63f45d73&#45;&gt;ASIC1 trimer_H+_STOML3</title>
<path fill="none" stroke="black" d="M1680,-320.178C1680,-310.896 1680,-301.215 1680,-292.04"/>
<polygon fill="black" stroke="black" points="1683.5,-291.944 1680,-281.944 1676.5,-291.944 1683.5,-291.944"/>
</g>
<!-- STOML3 -->
<g id="node39" class="node"><title>STOML3</title>
<ellipse fill="none" stroke="black" cx="1680" cy="-474.307" rx="18" ry="18"/>
<text text-anchor="middle" x="1680" y="-473.107" font-family="Times,serif" font-size="4.00">STOML3</text>
</g>
<!-- STOML3&#45;&gt;pr_11e8c704&#45;aac1&#45;4be8&#45;997a&#45;f60c63f45d73 -->
<g id="edge56" class="edge"><title>STOML3&#45;&gt;pr_11e8c704&#45;aac1&#45;4be8&#45;997a&#45;f60c63f45d73</title>
<path fill="none" stroke="black" d="M1680,-455.919C1680,-448.458 1680,-439.264 1680,-429.707"/>
<polygon fill="black" stroke="black" points="1683.5,-429.674 1680,-419.674 1676.5,-429.674 1683.5,-429.674"/>
</g>
<!-- K+ -->
<g id="node41" class="node"><title>K+</title>
<ellipse fill="none" stroke="black" cx="973" cy="-18" rx="18" ry="18"/>
<text text-anchor="middle" x="973" y="-16.8" font-family="Times,serif" font-size="4.00">K+</text>
</g>
<!-- K+&#45;&gt;pr_b8e75bae&#45;c0ef&#45;41e7&#45;8e77&#45;79a7da60c6f8 -->
<g id="edge57" class="edge"><title>K+&#45;&gt;pr_b8e75bae&#45;c0ef&#45;41e7&#45;8e77&#45;79a7da60c6f8</title>
<path fill="none" stroke="black" d="M978.113,-35.3739C978.974,-42.8817 979.496,-52.2863 979.677,-62.0907"/>
<polygon fill="black" stroke="black" points="976.179,-62.4125 979.743,-72.3898 983.179,-62.3676 976.179,-62.4125"/>
</g>
<!-- pr_b8e75bae&#45;c0ef&#45;41e7&#45;8e77&#45;79a7da60c6f8&#45;&gt;K+ -->
<g id="edge58" class="edge"><title>pr_b8e75bae&#45;c0ef&#45;41e7&#45;8e77&#45;79a7da60c6f8&#45;&gt;K+</title>
<path fill="none" stroke="black" d="M966.257,-72.3898C966.205,-63.1138 966.452,-53.7321 966.998,-45.4758"/>
<polygon fill="black" stroke="black" points="970.497,-45.6422 967.887,-35.3739 963.524,-45.0286 970.497,-45.6422"/>
</g>
<!-- Na+ -->
<g id="node43" class="node"><title>Na+</title>
<ellipse fill="none" stroke="black" cx="855" cy="-18" rx="18" ry="18"/>
<text text-anchor="middle" x="855" y="-16.8" font-family="Times,serif" font-size="4.00">Na+</text>
</g>
<!-- Na+&#45;&gt;pr_20695b6f&#45;9cb4&#45;4c28&#45;8315&#45;85dab141aa9b -->
<g id="edge59" class="edge"><title>Na+&#45;&gt;pr_20695b6f&#45;9cb4&#45;4c28&#45;8315&#45;85dab141aa9b</title>
<path fill="none" stroke="black" d="M860.141,-35.6151C860.975,-42.9907 861.485,-52.1624 861.671,-61.7331"/>
<polygon fill="black" stroke="black" points="858.171,-61.8193 861.746,-71.7926 865.171,-61.7665 858.171,-61.8193"/>
</g>
<!-- pr_20695b6f&#45;9cb4&#45;4c28&#45;8315&#45;85dab141aa9b&#45;&gt;Na+ -->
<g id="edge60" class="edge"><title>pr_20695b6f&#45;9cb4&#45;4c28&#45;8315&#45;85dab141aa9b&#45;&gt;Na+</title>
<path fill="none" stroke="black" d="M848.254,-71.7926C848.217,-62.8265 848.458,-53.7864 848.978,-45.7826"/>
<polygon fill="black" stroke="black" points="852.482,-45.88 849.859,-35.6151 845.509,-45.2754 852.482,-45.88"/>
</g>
<!-- P&#45;TEFb -->
<g id="node46" class="node"><title>P&#45;TEFb</title>
<ellipse fill="none" stroke="black" cx="203" cy="-18" rx="18" ry="18"/>
<text text-anchor="middle" x="203" y="-16.8" font-family="Times,serif" font-size="4.00">P&#45;TEFb</text>
</g>
<!-- pr_f697ff0f&#45;75dc&#45;4fe6&#45;874b&#45;426459153e68&#45;&gt;P&#45;TEFb -->
<g id="edge61" class="edge"><title>pr_f697ff0f&#45;75dc&#45;4fe6&#45;874b&#45;426459153e68&#45;&gt;P&#45;TEFb</title>
<path fill="none" stroke="black" d="M203,-73.2851C203,-64.056 203,-54.6828 203,-46.3813"/>
<polygon fill="black" stroke="black" points="206.5,-46.1875 203,-36.1876 199.5,-46.1876 206.5,-46.1875"/>
</g>
<!-- CRB3_PALS1_PATJ complex -->
<g id="node48" class="node"><title>CRB3_PALS1_PATJ complex</title>
<ellipse fill="none" stroke="black" cx="1325" cy="-245.653" rx="37.8075" ry="37.8075"/>
<text text-anchor="middle" x="1325" y="-244.453" font-family="Times,serif" font-size="4.00">CRB3_PALS1_PATJ complex</text>
</g>
<!-- pr_e6ed3bcf&#45;18bb&#45;4512&#45;a72a&#45;62af42a21a08&#45;&gt;CRB3_PALS1_PATJ complex -->
<g id="edge62" class="edge"><title>pr_e6ed3bcf&#45;18bb&#45;4512&#45;a72a&#45;62af42a21a08&#45;&gt;CRB3_PALS1_PATJ complex</title>
<path fill="none" stroke="black" d="M1325,-320.178C1325,-311.379 1325,-302.22 1325,-293.474"/>
<polygon fill="black" stroke="black" points="1328.5,-293.443 1325,-283.443 1321.5,-293.443 1328.5,-293.443"/>
</g>
</g>
</svg>
