<?xml version="1.0" encoding="UTF-8" standalone="no"?>
<!DOCTYPE svg PUBLIC "-//W3C//DTD SVG 1.1//EN"
 "http://www.w3.org/Graphics/SVG/1.1/DTD/svg11.dtd">
<!-- Generated by graphviz version 2.38.0 (20140413.2041)
 -->
<!-- Title: G Pages: 1 -->
<svg width="1855pt" height="500pt"
 viewBox="0.00 0.00 1854.50 500.31" xmlns="http://www.w3.org/2000/svg" xmlns:xlink="http://www.w3.org/1999/xlink">
<g id="graph0" class="graph" transform="scale(1 1) rotate(0) translate(4 496.307)">
<title>G</title>
<polygon fill="white" stroke="none" points="-4,4 -4,-496.307 1850.5,-496.307 1850.5,4 -4,4"/>
<!-- CDK9 -->
<g id="node1" class="node"><title>CDK9</title>
<ellipse fill="none" stroke="black" cx="18" cy="-474.307" rx="18" ry="18"/>
<text text-anchor="middle" x="18" y="-473.107" font-family="Times,serif" font-size="4.00">CDK9</text>
</g>
<!-- pr_80d5f870&#45;3e5b&#45;419c&#45;97bf&#45;970a16a260df -->
<g id="node2" class="node"><title>pr_80d5f870&#45;3e5b&#45;419c&#45;97bf&#45;970a16a260df</title>
<polygon fill="none" stroke="black" points="144,-418.807 46,-418.807 46,-320.807 144,-320.807 144,-418.807"/>
<text text-anchor="middle" x="95" y="-368.607" font-family="Times,serif" font-size="4.00">pr_80d5f870&#45;3e5b&#45;419c&#45;97bf&#45;970a16a260df</text>
</g>
<!-- CDK9&#45;&gt;pr_80d5f870&#45;3e5b&#45;419c&#45;97bf&#45;970a16a260df -->
<g id="edge1" class="edge"><title>CDK9&#45;&gt;pr_80d5f870&#45;3e5b&#45;419c&#45;97bf&#45;970a16a260df</title>
<path fill="none" stroke="black" d="M24.9688,-457.291C30.2554,-448.955 37.7765,-438.207 45.9608,-427.14"/>
<polygon fill="black" stroke="black" points="48.8225,-429.158 52.015,-419.055 43.2194,-424.962 48.8225,-429.158"/>
</g>
<!-- pr_0455f064&#45;74ac&#45;4a66&#45;b28c&#45;fd63ceeb9751 -->
<g id="node45" class="node"><title>pr_0455f064&#45;74ac&#45;4a66&#45;b28c&#45;fd63ceeb9751</title>
<polygon fill="none" stroke="black" points="252.5,-171.5 153.5,-171.5 153.5,-72.5 252.5,-72.5 252.5,-171.5"/>
<text text-anchor="middle" x="203" y="-120.8" font-family="Times,serif" font-size="4.00">pr_0455f064&#45;74ac&#45;4a66&#45;b28c&#45;fd63ceeb9751</text>
</g>
<!-- CDK9&#45;&gt;pr_0455f064&#45;74ac&#45;4a66&#45;b28c&#45;fd63ceeb9751 -->
<g id="edge2" class="edge"><title>CDK9&#45;&gt;pr_0455f064&#45;74ac&#45;4a66&#45;b28c&#45;fd63ceeb9751</title>
<path fill="none" stroke="black" d="M17.0134,-456.304C15.9706,-427.01 16.7034,-365.707 37,-319.307 61.8184,-262.57 108.497,-209.668 146.05,-173.112"/>
<polygon fill="black" stroke="black" points="148.643,-175.474 153.43,-166.022 143.794,-170.426 148.643,-175.474"/>
</g>
<!-- pr_80d5f870&#45;3e5b&#45;419c&#45;97bf&#45;970a16a260df&#45;&gt;CDK9 -->
<g id="edge3" class="edge"><title>pr_80d5f870&#45;3e5b&#45;419c&#45;97bf&#45;970a16a260df&#45;&gt;CDK9</title>
<path fill="none" stroke="black" d="M65.4526,-419.112C56.2783,-431.435 46.4111,-443.986 38.0012,-453.902"/>
<polygon fill="black" stroke="black" points="35.2656,-451.713 31.3268,-461.549 40.5394,-456.316 35.2656,-451.713"/>
</g>
<!-- BRD4 -->
<g id="node3" class="node"><title>BRD4</title>
<ellipse fill="none" stroke="black" cx="504" cy="-474.307" rx="18" ry="18"/>
<text text-anchor="middle" x="504" y="-473.107" font-family="Times,serif" font-size="4.00">BRD4</text>
</g>
<!-- BRD4&#45;&gt;pr_80d5f870&#45;3e5b&#45;419c&#45;97bf&#45;970a16a260df -->
<g id="edge4" class="edge"><title>BRD4&#45;&gt;pr_80d5f870&#45;3e5b&#45;419c&#45;97bf&#45;970a16a260df</title>
<path fill="none" stroke="black" d="M490.016,-462.928C485.993,-460.389 481.477,-457.936 477,-456.307 366.133,-415.965 327.857,-451.22 214,-420.307 193.772,-414.815 172.414,-406.714 153.462,-398.65"/>
<polygon fill="black" stroke="black" points="154.646,-395.348 144.079,-394.578 151.859,-401.77 154.646,-395.348"/>
</g>
<!-- pr_dd6b0b7d&#45;0b84&#45;421f&#45;b385&#45;a65ed6ef69fa -->
<g id="node5" class="node"><title>pr_dd6b0b7d&#45;0b84&#45;421f&#45;b385&#45;a65ed6ef69fa</title>
<polygon fill="none" stroke="black" points="437,-418.807 339,-418.807 339,-320.807 437,-320.807 437,-418.807"/>
<text text-anchor="middle" x="388" y="-368.607" font-family="Times,serif" font-size="4.00">pr_dd6b0b7d&#45;0b84&#45;421f&#45;b385&#45;a65ed6ef69fa</text>
</g>
<!-- BRD4&#45;&gt;pr_dd6b0b7d&#45;0b84&#45;421f&#45;b385&#45;a65ed6ef69fa -->
<g id="edge5" class="edge"><title>BRD4&#45;&gt;pr_dd6b0b7d&#45;0b84&#45;421f&#45;b385&#45;a65ed6ef69fa</title>
<path fill="none" stroke="black" d="M490.693,-461.549C479.288,-451.471 462.033,-436.224 444.905,-421.089"/>
<polygon fill="black" stroke="black" points="446.877,-418.161 437.066,-414.162 442.242,-423.407 446.877,-418.161"/>
</g>
<!-- pr_0098ce9c&#45;e170&#45;4fec&#45;8687&#45;5a01bb7ea787 -->
<g id="node7" class="node"><title>pr_0098ce9c&#45;e170&#45;4fec&#45;8687&#45;5a01bb7ea787</title>
<polygon fill="none" stroke="black" points="671,-419.807 571,-419.807 571,-319.807 671,-319.807 671,-419.807"/>
<text text-anchor="middle" x="621" y="-368.607" font-family="Times,serif" font-size="4.00">pr_0098ce9c&#45;e170&#45;4fec&#45;8687&#45;5a01bb7ea787</text>
</g>
<!-- BRD4&#45;&gt;pr_0098ce9c&#45;e170&#45;4fec&#45;8687&#45;5a01bb7ea787 -->
<g id="edge6" class="edge"><title>BRD4&#45;&gt;pr_0098ce9c&#45;e170&#45;4fec&#45;8687&#45;5a01bb7ea787</title>
<path fill="none" stroke="black" d="M517.421,-461.549C528.821,-451.562 546.014,-436.499 563.136,-421.5"/>
<polygon fill="black" stroke="black" points="565.76,-423.854 570.976,-414.632 561.148,-418.589 565.76,-423.854"/>
</g>
<!-- pr_fb89c643&#45;1a3f&#45;4f75&#45;8aa4&#45;ae81e967ba9c -->
<g id="node9" class="node"><title>pr_fb89c643&#45;1a3f&#45;4f75&#45;8aa4&#45;ae81e967ba9c</title>
<polygon fill="none" stroke="black" points="553,-418.807 455,-418.807 455,-320.807 553,-320.807 553,-418.807"/>
<text text-anchor="middle" x="504" y="-368.607" font-family="Times,serif" font-size="4.00">pr_fb89c643&#45;1a3f&#45;4f75&#45;8aa4&#45;ae81e967ba9c</text>
</g>
<!-- BRD4&#45;&gt;pr_fb89c643&#45;1a3f&#45;4f75&#45;8aa4&#45;ae81e967ba9c -->
<g id="edge7" class="edge"><title>BRD4&#45;&gt;pr_fb89c643&#45;1a3f&#45;4f75&#45;8aa4&#45;ae81e967ba9c</title>
<path fill="none" stroke="black" d="M498.885,-456.838C498.004,-449.114 497.479,-439.393 497.31,-429.29"/>
<polygon fill="black" stroke="black" points="500.809,-429.101 497.26,-419.119 493.809,-429.136 500.809,-429.101"/>
</g>
<!-- CCNT1 -->
<g id="node4" class="node"><title>CCNT1</title>
<ellipse fill="none" stroke="black" cx="388" cy="-245.653" rx="18" ry="18"/>
<text text-anchor="middle" x="388" y="-244.453" font-family="Times,serif" font-size="4.00">CCNT1</text>
</g>
<!-- CCNT1&#45;&gt;pr_dd6b0b7d&#45;0b84&#45;421f&#45;b385&#45;a65ed6ef69fa -->
<g id="edge8" class="edge"><title>CCNT1&#45;&gt;pr_dd6b0b7d&#45;0b84&#45;421f&#45;b385&#45;a65ed6ef69fa</title>
<path fill="none" stroke="black" d="M392.806,-263.287C394.173,-275.597 394.819,-293.16 394.744,-310.433"/>
<polygon fill="black" stroke="black" points="391.243,-310.485 394.617,-320.529 398.243,-310.574 391.243,-310.485"/>
</g>
<!-- CCNT1&#45;&gt;pr_0455f064&#45;74ac&#45;4a66&#45;b28c&#45;fd63ceeb9751 -->
<g id="edge9" class="edge"><title>CCNT1&#45;&gt;pr_0455f064&#45;74ac&#45;4a66&#45;b28c&#45;fd63ceeb9751</title>
<path fill="none" stroke="black" d="M373.173,-234.904C349.18,-219.126 300.579,-187.167 261.437,-161.428"/>
<polygon fill="black" stroke="black" points="263.012,-158.274 252.733,-155.704 259.166,-164.123 263.012,-158.274"/>
</g>
<!-- pr_dd6b0b7d&#45;0b84&#45;421f&#45;b385&#45;a65ed6ef69fa&#45;&gt;CCNT1 -->
<g id="edge10" class="edge"><title>pr_dd6b0b7d&#45;0b84&#45;421f&#45;b385&#45;a65ed6ef69fa&#45;&gt;CCNT1</title>
<path fill="none" stroke="black" d="M381.383,-320.529C381.045,-304.532 381.35,-287.309 382.297,-273.52"/>
<polygon fill="black" stroke="black" points="385.807,-273.554 383.194,-263.287 378.834,-272.943 385.807,-273.554"/>
</g>
<!-- histone -->
<g id="node6" class="node"><title>histone</title>
<ellipse fill="none" stroke="black" cx="621" cy="-245.653" rx="18" ry="18"/>
<text text-anchor="middle" x="621" y="-244.453" font-family="Times,serif" font-size="4.00">histone</text>
</g>
<!-- histone&#45;&gt;pr_0098ce9c&#45;e170&#45;4fec&#45;8687&#45;5a01bb7ea787 -->
<g id="edge11" class="edge"><title>histone&#45;&gt;pr_0098ce9c&#45;e170&#45;4fec&#45;8687&#45;5a01bb7ea787</title>
<path fill="none" stroke="black" d="M625.804,-263.264C627.136,-275.248 627.784,-292.218 627.749,-309.055"/>
<polygon fill="black" stroke="black" points="624.244,-309.438 627.638,-319.474 631.244,-309.512 624.244,-309.438"/>
</g>
<!-- pr_0098ce9c&#45;e170&#45;4fec&#45;8687&#45;5a01bb7ea787&#45;&gt;histone -->
<g id="edge12" class="edge"><title>pr_0098ce9c&#45;e170&#45;4fec&#45;8687&#45;5a01bb7ea787&#45;&gt;histone</title>
<path fill="none" stroke="black" d="M614.362,-319.474C614.057,-303.696 614.374,-286.83 615.311,-273.307"/>
<polygon fill="black" stroke="black" points="618.805,-273.532 616.196,-263.264 611.832,-272.918 618.805,-273.532"/>
</g>
<!-- BRD2 -->
<g id="node8" class="node"><title>BRD2</title>
<ellipse fill="none" stroke="black" cx="771" cy="-474.307" rx="18" ry="18"/>
<text text-anchor="middle" x="771" y="-473.107" font-family="Times,serif" font-size="4.00">BRD2</text>
</g>
<!-- BRD2&#45;&gt;pr_0098ce9c&#45;e170&#45;4fec&#45;8687&#45;5a01bb7ea787 -->
<g id="edge13" class="edge"><title>BRD2&#45;&gt;pr_0098ce9c&#45;e170&#45;4fec&#45;8687&#45;5a01bb7ea787</title>
<path fill="none" stroke="black" d="M755.372,-465.261C736.839,-455.482 705.277,-438.076 680,-420.307 679.723,-420.112 679.446,-419.917 679.169,-419.72"/>
<polygon fill="black" stroke="black" points="681.213,-416.879 671.08,-413.787 677.073,-422.524 681.213,-416.879"/>
</g>
<!-- pr_4be4841f&#45;1cd3&#45;426d&#45;b39d&#45;e3199caa5a42 -->
<g id="node20" class="node"><title>pr_4be4841f&#45;1cd3&#45;426d&#45;b39d&#45;e3199caa5a42</title>
<polygon fill="none" stroke="black" points="907,-419.807 807,-419.807 807,-319.807 907,-319.807 907,-419.807"/>
<text text-anchor="middle" x="857" y="-368.607" font-family="Times,serif" font-size="4.00">pr_4be4841f&#45;1cd3&#45;426d&#45;b39d&#45;e3199caa5a42</text>
</g>
<!-- BRD2&#45;&gt;pr_4be4841f&#45;1cd3&#45;426d&#45;b39d&#45;e3199caa5a42 -->
<g id="edge14" class="edge"><title>BRD2&#45;&gt;pr_4be4841f&#45;1cd3&#45;426d&#45;b39d&#45;e3199caa5a42</title>
<path fill="none" stroke="black" d="M779.052,-457.739C785.006,-449.458 793.456,-438.708 802.628,-427.607"/>
<polygon fill="black" stroke="black" points="805.348,-429.811 809.072,-419.892 799.975,-425.324 805.348,-429.811"/>
</g>
<!-- pr_79235f2d&#45;23e2&#45;418d&#45;b0e5&#45;14c5a9359cc5 -->
<g id="node23" class="node"><title>pr_79235f2d&#45;23e2&#45;418d&#45;b0e5&#45;14c5a9359cc5</title>
<polygon fill="none" stroke="black" points="789,-419.807 689,-419.807 689,-319.807 789,-319.807 789,-419.807"/>
<text text-anchor="middle" x="739" y="-368.607" font-family="Times,serif" font-size="4.00">pr_79235f2d&#45;23e2&#45;418d&#45;b0e5&#45;14c5a9359cc5</text>
</g>
<!-- BRD2&#45;&gt;pr_79235f2d&#45;23e2&#45;418d&#45;b0e5&#45;14c5a9359cc5 -->
<g id="edge15" class="edge"><title>BRD2&#45;&gt;pr_79235f2d&#45;23e2&#45;418d&#45;b0e5&#45;14c5a9359cc5</title>
<path fill="none" stroke="black" d="M765.859,-456.838C763.475,-449.205 760.484,-439.622 757.37,-429.647"/>
<polygon fill="black" stroke="black" points="760.683,-428.517 754.362,-420.014 754.001,-430.603 760.683,-428.517"/>
</g>
<!-- pr_fb89c643&#45;1a3f&#45;4f75&#45;8aa4&#45;ae81e967ba9c&#45;&gt;BRD4 -->
<g id="edge16" class="edge"><title>pr_fb89c643&#45;1a3f&#45;4f75&#45;8aa4&#45;ae81e967ba9c&#45;&gt;BRD4</title>
<path fill="none" stroke="black" d="M510.74,-419.119C510.804,-428.662 510.556,-438.341 509.994,-446.827"/>
<polygon fill="black" stroke="black" points="506.503,-446.571 509.115,-456.838 513.476,-447.183 506.503,-446.571"/>
</g>
<!-- E -->
<g id="node10" class="node"><title>E</title>
<ellipse fill="none" stroke="black" cx="975" cy="-474.307" rx="18" ry="18"/>
<text text-anchor="middle" x="975" y="-473.107" font-family="Times,serif" font-size="4.00">E</text>
</g>
<!-- E&#45;&gt;pr_fb89c643&#45;1a3f&#45;4f75&#45;8aa4&#45;ae81e967ba9c -->
<g id="edge17" class="edge"><title>E&#45;&gt;pr_fb89c643&#45;1a3f&#45;4f75&#45;8aa4&#45;ae81e967ba9c</title>
<path fill="none" stroke="black" d="M957.279,-469.598C938.987,-465.863 909.593,-460.123 884,-456.307 741.572,-435.071 694.13,-477.564 562,-420.307 561.905,-420.266 561.81,-420.224 561.715,-420.183"/>
<polygon fill="black" stroke="black" points="563.532,-417.18 553.031,-415.769 560.36,-423.42 563.532,-417.18"/>
</g>
<!-- E&#45;&gt;pr_4be4841f&#45;1cd3&#45;426d&#45;b39d&#45;e3199caa5a42 -->
<g id="edge18" class="edge"><title>E&#45;&gt;pr_4be4841f&#45;1cd3&#45;426d&#45;b39d&#45;e3199caa5a42</title>
<path fill="none" stroke="black" d="M961.464,-461.549C949.915,-451.517 932.468,-436.362 915.123,-421.295"/>
<polygon fill="black" stroke="black" points="917.026,-418.312 907.182,-414.397 912.436,-423.597 917.026,-418.312"/>
</g>
<!-- pr_68cb7f74&#45;1a33&#45;4bb6&#45;90bc&#45;c705b4b591b1 -->
<g id="node24" class="node"><title>pr_68cb7f74&#45;1a33&#45;4bb6&#45;90bc&#45;c705b4b591b1</title>
<polygon fill="none" stroke="black" points="1143,-419.807 1043,-419.807 1043,-319.807 1143,-319.807 1143,-419.807"/>
<text text-anchor="middle" x="1093" y="-368.607" font-family="Times,serif" font-size="4.00">pr_68cb7f74&#45;1a33&#45;4bb6&#45;90bc&#45;c705b4b591b1</text>
</g>
<!-- E&#45;&gt;pr_68cb7f74&#45;1a33&#45;4bb6&#45;90bc&#45;c705b4b591b1 -->
<g id="edge19" class="edge"><title>E&#45;&gt;pr_68cb7f74&#45;1a33&#45;4bb6&#45;90bc&#45;c705b4b591b1</title>
<path fill="none" stroke="black" d="M988.536,-461.549C1000.09,-451.517 1017.53,-436.362 1034.88,-421.295"/>
<polygon fill="black" stroke="black" points="1037.56,-423.597 1042.82,-414.397 1032.97,-418.312 1037.56,-423.597"/>
</g>
<!-- pr_882af468&#45;4c8c&#45;4d43&#45;bde0&#45;3d873c8fee33 -->
<g id="node34" class="node"><title>pr_882af468&#45;4c8c&#45;4d43&#45;bde0&#45;3d873c8fee33</title>
<polygon fill="none" stroke="black" points="1024.5,-419.307 925.5,-419.307 925.5,-320.307 1024.5,-320.307 1024.5,-419.307"/>
<text text-anchor="middle" x="975" y="-368.607" font-family="Times,serif" font-size="4.00">pr_882af468&#45;4c8c&#45;4d43&#45;bde0&#45;3d873c8fee33</text>
</g>
<!-- E&#45;&gt;pr_882af468&#45;4c8c&#45;4d43&#45;bde0&#45;3d873c8fee33 -->
<g id="edge20" class="edge"><title>E&#45;&gt;pr_882af468&#45;4c8c&#45;4d43&#45;bde0&#45;3d873c8fee33</title>
<path fill="none" stroke="black" d="M975,-455.919C975,-448.458 975,-439.264 975,-429.707"/>
<polygon fill="black" stroke="black" points="978.5,-429.674 975,-419.674 971.5,-429.674 978.5,-429.674"/>
</g>
<!-- pr_6b9bb7d1&#45;d24c&#45;44e7&#45;a593&#45;140118319d99 -->
<g id="node38" class="node"><title>pr_6b9bb7d1&#45;d24c&#45;44e7&#45;a593&#45;140118319d99</title>
<polygon fill="none" stroke="black" points="1729.5,-420.307 1628.5,-420.307 1628.5,-319.307 1729.5,-319.307 1729.5,-420.307"/>
<text text-anchor="middle" x="1679" y="-368.607" font-family="Times,serif" font-size="4.00">pr_6b9bb7d1&#45;d24c&#45;44e7&#45;a593&#45;140118319d99</text>
</g>
<!-- E&#45;&gt;pr_6b9bb7d1&#45;d24c&#45;44e7&#45;a593&#45;140118319d99 -->
<g id="edge21" class="edge"><title>E&#45;&gt;pr_6b9bb7d1&#45;d24c&#45;44e7&#45;a593&#45;140118319d99</title>
<path fill="none" stroke="black" d="M992.896,-471.845C1089.19,-463.981 1543.86,-426.836 1618.24,-417.86"/>
<polygon fill="black" stroke="black" points="1619.07,-421.273 1628.41,-416.274 1617.99,-414.356 1619.07,-421.273"/>
</g>
<!-- H4C14 -->
<g id="node11" class="node"><title>H4C14</title>
<ellipse fill="none" stroke="black" cx="342" cy="-474.307" rx="18" ry="18"/>
<text text-anchor="middle" x="342" y="-473.107" font-family="Times,serif" font-size="4.00">H4C14</text>
</g>
<!-- pr_4bc42cfe&#45;16fb&#45;42a4&#45;9d87&#45;b9ea7d172f21 -->
<g id="node12" class="node"><title>pr_4bc42cfe&#45;16fb&#45;42a4&#45;9d87&#45;b9ea7d172f21</title>
<polygon fill="none" stroke="black" points="321,-418.807 223,-418.807 223,-320.807 321,-320.807 321,-418.807"/>
<text text-anchor="middle" x="272" y="-368.607" font-family="Times,serif" font-size="4.00">pr_4bc42cfe&#45;16fb&#45;42a4&#45;9d87&#45;b9ea7d172f21</text>
</g>
<!-- H4C14&#45;&gt;pr_4bc42cfe&#45;16fb&#45;42a4&#45;9d87&#45;b9ea7d172f21 -->
<g id="edge22" class="edge"><title>H4C14&#45;&gt;pr_4bc42cfe&#45;16fb&#45;42a4&#45;9d87&#45;b9ea7d172f21</title>
<path fill="none" stroke="black" d="M332.267,-459.055C326.523,-450.644 318.836,-439.388 310.878,-427.735"/>
<polygon fill="black" stroke="black" points="313.589,-425.499 305.059,-419.215 307.808,-429.447 313.589,-425.499"/>
</g>
<!-- pr_4bc42cfe&#45;16fb&#45;42a4&#45;9d87&#45;b9ea7d172f21&#45;&gt;histone -->
<g id="edge23" class="edge"><title>pr_4bc42cfe&#45;16fb&#45;42a4&#45;9d87&#45;b9ea7d172f21&#45;&gt;histone</title>
<path fill="none" stroke="black" d="M321.262,-324.332C324.137,-322.514 327.058,-320.822 330,-319.307 419.217,-273.36 539.027,-255.417 592.805,-249.354"/>
<polygon fill="black" stroke="black" points="593.378,-252.813 602.947,-248.265 592.631,-245.853 593.378,-252.813"/>
</g>
<!-- H4&#45;16 -->
<g id="node13" class="node"><title>H4&#45;16</title>
<ellipse fill="none" stroke="black" cx="396" cy="-474.307" rx="18" ry="18"/>
<text text-anchor="middle" x="396" y="-473.107" font-family="Times,serif" font-size="4.00">H4&#45;16</text>
</g>
<!-- H4&#45;16&#45;&gt;pr_4bc42cfe&#45;16fb&#45;42a4&#45;9d87&#45;b9ea7d172f21 -->
<g id="edge24" class="edge"><title>H4&#45;16&#45;&gt;pr_4bc42cfe&#45;16fb&#45;42a4&#45;9d87&#45;b9ea7d172f21</title>
<path fill="none" stroke="black" d="M382.252,-462.463C368.834,-451.832 347.885,-435.114 330,-420.307 329.732,-420.085 329.464,-419.863 329.195,-419.64"/>
<polygon fill="black" stroke="black" points="331.197,-416.752 321.276,-413.035 326.714,-422.128 331.197,-416.752"/>
</g>
<!-- H4C1 -->
<g id="node14" class="node"><title>H4C1</title>
<ellipse fill="none" stroke="black" cx="450" cy="-474.307" rx="18" ry="18"/>
<text text-anchor="middle" x="450" y="-473.107" font-family="Times,serif" font-size="4.00">H4C1</text>
</g>
<!-- H4C1&#45;&gt;pr_4bc42cfe&#45;16fb&#45;42a4&#45;9d87&#45;b9ea7d172f21 -->
<g id="edge25" class="edge"><title>H4C1&#45;&gt;pr_4bc42cfe&#45;16fb&#45;42a4&#45;9d87&#45;b9ea7d172f21</title>
<path fill="none" stroke="black" d="M435.444,-463.426C431.494,-460.944 427.158,-458.396 423,-456.307 383.396,-436.407 368.063,-443.015 330,-420.307 329.908,-420.252 329.815,-420.197 329.723,-420.141"/>
<polygon fill="black" stroke="black" points="331.467,-417.101 321.169,-414.609 327.665,-422.978 331.467,-417.101"/>
</g>
<!-- H3C15 -->
<g id="node15" class="node"><title>H3C15</title>
<ellipse fill="none" stroke="black" cx="72" cy="-474.307" rx="18" ry="18"/>
<text text-anchor="middle" x="72" y="-473.107" font-family="Times,serif" font-size="4.00">H3C15</text>
</g>
<!-- H3C15&#45;&gt;pr_4bc42cfe&#45;16fb&#45;42a4&#45;9d87&#45;b9ea7d172f21 -->
<g id="edge26" class="edge"><title>H3C15&#45;&gt;pr_4bc42cfe&#45;16fb&#45;42a4&#45;9d87&#45;b9ea7d172f21</title>
<path fill="none" stroke="black" d="M86.6888,-463.675C90.6377,-461.192 94.9402,-458.58 99,-456.307 136.407,-435.36 179.645,-413.99 213.537,-397.855"/>
<polygon fill="black" stroke="black" points="215.299,-400.893 222.836,-393.447 212.301,-394.567 215.299,-400.893"/>
</g>
<!-- H3C1 -->
<g id="node16" class="node"><title>H3C1</title>
<ellipse fill="none" stroke="black" cx="126" cy="-474.307" rx="18" ry="18"/>
<text text-anchor="middle" x="126" y="-473.107" font-family="Times,serif" font-size="4.00">H3C1</text>
</g>
<!-- H3C1&#45;&gt;pr_4bc42cfe&#45;16fb&#45;42a4&#45;9d87&#45;b9ea7d172f21 -->
<g id="edge27" class="edge"><title>H3C1&#45;&gt;pr_4bc42cfe&#45;16fb&#45;42a4&#45;9d87&#45;b9ea7d172f21</title>
<path fill="none" stroke="black" d="M140.265,-463.292C157.497,-451.194 187.547,-430.098 214.599,-411.106"/>
<polygon fill="black" stroke="black" points="216.707,-413.902 222.88,-405.292 212.685,-408.173 216.707,-413.902"/>
</g>
<!-- H4C9 -->
<g id="node17" class="node"><title>H4C9</title>
<ellipse fill="none" stroke="black" cx="180" cy="-474.307" rx="18" ry="18"/>
<text text-anchor="middle" x="180" y="-473.107" font-family="Times,serif" font-size="4.00">H4C9</text>
</g>
<!-- H4C9&#45;&gt;pr_4bc42cfe&#45;16fb&#45;42a4&#45;9d87&#45;b9ea7d172f21 -->
<g id="edge28" class="edge"><title>H4C9&#45;&gt;pr_4bc42cfe&#45;16fb&#45;42a4&#45;9d87&#45;b9ea7d172f21</title>
<path fill="none" stroke="black" d="M191.652,-460.325C199.574,-451.499 210.654,-439.155 222.059,-426.447"/>
<polygon fill="black" stroke="black" points="224.716,-428.728 228.791,-418.948 219.506,-424.052 224.716,-428.728"/>
</g>
<!-- H2BC21 -->
<g id="node18" class="node"><title>H2BC21</title>
<ellipse fill="none" stroke="black" cx="234" cy="-474.307" rx="18" ry="18"/>
<text text-anchor="middle" x="234" y="-473.107" font-family="Times,serif" font-size="4.00">H2BC21</text>
</g>
<!-- H2BC21&#45;&gt;pr_4bc42cfe&#45;16fb&#45;42a4&#45;9d87&#45;b9ea7d172f21 -->
<g id="edge29" class="edge"><title>H2BC21&#45;&gt;pr_4bc42cfe&#45;16fb&#45;42a4&#45;9d87&#45;b9ea7d172f21</title>
<path fill="none" stroke="black" d="M239.938,-457.291C242.878,-449.359 246.628,-439.245 250.519,-428.75"/>
<polygon fill="black" stroke="black" points="253.918,-429.649 254.113,-419.055 247.355,-427.215 253.918,-429.649"/>
</g>
<!-- H2A -->
<g id="node19" class="node"><title>H2A</title>
<ellipse fill="none" stroke="black" cx="288" cy="-474.307" rx="18" ry="18"/>
<text text-anchor="middle" x="288" y="-473.107" font-family="Times,serif" font-size="4.00">H2A</text>
</g>
<!-- H2A&#45;&gt;pr_4bc42cfe&#45;16fb&#45;42a4&#45;9d87&#45;b9ea7d172f21 -->
<g id="edge30" class="edge"><title>H2A&#45;&gt;pr_4bc42cfe&#45;16fb&#45;42a4&#45;9d87&#45;b9ea7d172f21</title>
<path fill="none" stroke="black" d="M285.358,-456.381C284.16,-448.705 282.665,-439.127 281.113,-429.185"/>
<polygon fill="black" stroke="black" points="284.551,-428.518 279.551,-419.177 277.635,-429.597 284.551,-428.518"/>
</g>
<!-- pr_4be4841f&#45;1cd3&#45;426d&#45;b39d&#45;e3199caa5a42&#45;&gt;BRD2 -->
<g id="edge31" class="edge"><title>pr_4be4841f&#45;1cd3&#45;426d&#45;b39d&#45;e3199caa5a42&#45;&gt;BRD2</title>
<path fill="none" stroke="black" d="M822.602,-419.843C812.113,-432.42 800.931,-445.176 791.606,-455.072"/>
<polygon fill="black" stroke="black" points="789.014,-452.718 784.574,-462.338 794.044,-457.586 789.014,-452.718"/>
</g>
<!-- JQ&#45;1 -->
<g id="node21" class="node"><title>JQ&#45;1</title>
<ellipse fill="none" stroke="black" cx="857" cy="-474.307" rx="18" ry="18"/>
<text text-anchor="middle" x="857" y="-473.107" font-family="Times,serif" font-size="4.00">JQ&#45;1</text>
</g>
<!-- JQ&#45;1&#45;&gt;pr_4be4841f&#45;1cd3&#45;426d&#45;b39d&#45;e3199caa5a42 -->
<g id="edge32" class="edge"><title>JQ&#45;1&#45;&gt;pr_4be4841f&#45;1cd3&#45;426d&#45;b39d&#45;e3199caa5a42</title>
<path fill="none" stroke="black" d="M857,-455.919C857,-448.621 857,-439.664 857,-430.331"/>
<polygon fill="black" stroke="black" points="860.5,-430.117 857,-420.117 853.5,-430.117 860.5,-430.117"/>
</g>
<!-- TBP -->
<g id="node22" class="node"><title>TBP</title>
<ellipse fill="none" stroke="black" cx="739" cy="-245.653" rx="18" ry="18"/>
<text text-anchor="middle" x="739" y="-244.453" font-family="Times,serif" font-size="4.00">TBP</text>
</g>
<!-- TBP&#45;&gt;pr_79235f2d&#45;23e2&#45;418d&#45;b0e5&#45;14c5a9359cc5 -->
<g id="edge33" class="edge"><title>TBP&#45;&gt;pr_79235f2d&#45;23e2&#45;418d&#45;b0e5&#45;14c5a9359cc5</title>
<path fill="none" stroke="black" d="M743.804,-263.264C745.136,-275.248 745.784,-292.218 745.749,-309.055"/>
<polygon fill="black" stroke="black" points="742.244,-309.438 745.638,-319.474 749.244,-309.512 742.244,-309.438"/>
</g>
<!-- pr_79235f2d&#45;23e2&#45;418d&#45;b0e5&#45;14c5a9359cc5&#45;&gt;TBP -->
<g id="edge34" class="edge"><title>pr_79235f2d&#45;23e2&#45;418d&#45;b0e5&#45;14c5a9359cc5&#45;&gt;TBP</title>
<path fill="none" stroke="black" d="M732.362,-319.474C732.057,-303.696 732.374,-286.83 733.311,-273.307"/>
<polygon fill="black" stroke="black" points="736.805,-273.532 734.196,-263.264 729.832,-272.918 736.805,-273.532"/>
</g>
<!-- E&#45;PALS1 -->
<g id="node26" class="node"><title>E&#45;PALS1</title>
<ellipse fill="none" stroke="black" cx="1093" cy="-245.653" rx="18" ry="18"/>
<text text-anchor="middle" x="1093" y="-244.453" font-family="Times,serif" font-size="4.00">E&#45;PALS1</text>
</g>
<!-- pr_68cb7f74&#45;1a33&#45;4bb6&#45;90bc&#45;c705b4b591b1&#45;&gt;E&#45;PALS1 -->
<g id="edge35" class="edge"><title>pr_68cb7f74&#45;1a33&#45;4bb6&#45;90bc&#45;c705b4b591b1&#45;&gt;E&#45;PALS1</title>
<path fill="none" stroke="black" d="M1093,-319.474C1093,-303.905 1093,-287.277 1093,-273.846"/>
<polygon fill="black" stroke="black" points="1096.5,-273.842 1093,-263.843 1089.5,-273.843 1096.5,-273.842"/>
</g>
<!-- MPP5 -->
<g id="node25" class="node"><title>MPP5</title>
<ellipse fill="none" stroke="black" cx="1210" cy="-474.307" rx="18" ry="18"/>
<text text-anchor="middle" x="1210" y="-473.107" font-family="Times,serif" font-size="4.00">MPP5</text>
</g>
<!-- MPP5&#45;&gt;pr_68cb7f74&#45;1a33&#45;4bb6&#45;90bc&#45;c705b4b591b1 -->
<g id="edge36" class="edge"><title>MPP5&#45;&gt;pr_68cb7f74&#45;1a33&#45;4bb6&#45;90bc&#45;c705b4b591b1</title>
<path fill="none" stroke="black" d="M1196.58,-461.549C1185.18,-451.562 1167.99,-436.499 1150.86,-421.5"/>
<polygon fill="black" stroke="black" points="1152.85,-418.589 1143.02,-414.632 1148.24,-423.854 1152.85,-418.589"/>
</g>
<!-- pr_7770d4fd&#45;bbe4&#45;4f46&#45;b2ee&#45;4cf70cb50184 -->
<g id="node28" class="node"><title>pr_7770d4fd&#45;bbe4&#45;4f46&#45;b2ee&#45;4cf70cb50184</title>
<polygon fill="none" stroke="black" points="1259,-418.807 1161,-418.807 1161,-320.807 1259,-320.807 1259,-418.807"/>
<text text-anchor="middle" x="1210" y="-368.607" font-family="Times,serif" font-size="4.00">pr_7770d4fd&#45;bbe4&#45;4f46&#45;b2ee&#45;4cf70cb50184</text>
</g>
<!-- MPP5&#45;&gt;pr_7770d4fd&#45;bbe4&#45;4f46&#45;b2ee&#45;4cf70cb50184 -->
<g id="edge37" class="edge"><title>MPP5&#45;&gt;pr_7770d4fd&#45;bbe4&#45;4f46&#45;b2ee&#45;4cf70cb50184</title>
<path fill="none" stroke="black" d="M1204.89,-456.838C1204,-449.114 1203.48,-439.393 1203.31,-429.29"/>
<polygon fill="black" stroke="black" points="1206.81,-429.101 1203.26,-419.119 1199.81,-429.136 1206.81,-429.101"/>
</g>
<!-- pr_67b15472&#45;bfc0&#45;4387&#45;91df&#45;6ad4b0362f61 -->
<g id="node47" class="node"><title>pr_67b15472&#45;bfc0&#45;4387&#45;91df&#45;6ad4b0362f61</title>
<polygon fill="none" stroke="black" points="1375,-418.807 1277,-418.807 1277,-320.807 1375,-320.807 1375,-418.807"/>
<text text-anchor="middle" x="1326" y="-368.607" font-family="Times,serif" font-size="4.00">pr_67b15472&#45;bfc0&#45;4387&#45;91df&#45;6ad4b0362f61</text>
</g>
<!-- MPP5&#45;&gt;pr_67b15472&#45;bfc0&#45;4387&#45;91df&#45;6ad4b0362f61 -->
<g id="edge38" class="edge"><title>MPP5&#45;&gt;pr_67b15472&#45;bfc0&#45;4387&#45;91df&#45;6ad4b0362f61</title>
<path fill="none" stroke="black" d="M1223.31,-461.549C1234.71,-451.471 1251.97,-436.224 1269.1,-421.089"/>
<polygon fill="black" stroke="black" points="1271.76,-423.407 1276.93,-414.162 1267.12,-418.161 1271.76,-423.407"/>
</g>
<!-- pr_1d35240b&#45;0eb9&#45;4345&#45;867f&#45;88a923f4daef -->
<g id="node27" class="node"><title>pr_1d35240b&#45;0eb9&#45;4345&#45;867f&#45;88a923f4daef</title>
<polygon fill="none" stroke="black" points="1142,-171 1044,-171 1044,-73 1142,-73 1142,-171"/>
<text text-anchor="middle" x="1093" y="-120.8" font-family="Times,serif" font-size="4.00">pr_1d35240b&#45;0eb9&#45;4345&#45;867f&#45;88a923f4daef</text>
</g>
<!-- E&#45;PALS1&#45;&gt;pr_1d35240b&#45;0eb9&#45;4345&#45;867f&#45;88a923f4daef -->
<g id="edge39" class="edge"><title>E&#45;PALS1&#45;&gt;pr_1d35240b&#45;0eb9&#45;4345&#45;867f&#45;88a923f4daef</title>
<path fill="none" stroke="black" d="M1093,-227.481C1093,-215.332 1093,-198.271 1093,-181.453"/>
<polygon fill="black" stroke="black" points="1096.5,-181.059 1093,-171.059 1089.5,-181.059 1096.5,-181.059"/>
</g>
<!-- pr_7770d4fd&#45;bbe4&#45;4f46&#45;b2ee&#45;4cf70cb50184&#45;&gt;MPP5 -->
<g id="edge40" class="edge"><title>pr_7770d4fd&#45;bbe4&#45;4f46&#45;b2ee&#45;4cf70cb50184&#45;&gt;MPP5</title>
<path fill="none" stroke="black" d="M1216.74,-419.119C1216.8,-428.662 1216.56,-438.341 1215.99,-446.827"/>
<polygon fill="black" stroke="black" points="1212.5,-446.571 1215.11,-456.838 1219.48,-447.183 1212.5,-446.571"/>
</g>
<!-- CRB3 -->
<g id="node29" class="node"><title>CRB3</title>
<ellipse fill="none" stroke="black" cx="1442" cy="-474.307" rx="18" ry="18"/>
<text text-anchor="middle" x="1442" y="-473.107" font-family="Times,serif" font-size="4.00">CRB3</text>
</g>
<!-- pr_c2df6d18&#45;ab10&#45;475a&#45;b90f&#45;fd004a05ce84 -->
<g id="node30" class="node"><title>pr_c2df6d18&#45;ab10&#45;475a&#45;b90f&#45;fd004a05ce84</title>
<polygon fill="none" stroke="black" points="1491,-418.807 1393,-418.807 1393,-320.807 1491,-320.807 1491,-418.807"/>
<text text-anchor="middle" x="1442" y="-368.607" font-family="Times,serif" font-size="4.00">pr_c2df6d18&#45;ab10&#45;475a&#45;b90f&#45;fd004a05ce84</text>
</g>
<!-- CRB3&#45;&gt;pr_c2df6d18&#45;ab10&#45;475a&#45;b90f&#45;fd004a05ce84 -->
<g id="edge41" class="edge"><title>CRB3&#45;&gt;pr_c2df6d18&#45;ab10&#45;475a&#45;b90f&#45;fd004a05ce84</title>
<path fill="none" stroke="black" d="M1436.89,-456.838C1436,-449.114 1435.48,-439.393 1435.31,-429.29"/>
<polygon fill="black" stroke="black" points="1438.81,-429.101 1435.26,-419.119 1431.81,-429.136 1438.81,-429.101"/>
</g>
<!-- CRB3&#45;&gt;pr_67b15472&#45;bfc0&#45;4387&#45;91df&#45;6ad4b0362f61 -->
<g id="edge42" class="edge"><title>CRB3&#45;&gt;pr_67b15472&#45;bfc0&#45;4387&#45;91df&#45;6ad4b0362f61</title>
<path fill="none" stroke="black" d="M1428.69,-461.549C1417.29,-451.471 1400.03,-436.224 1382.9,-421.089"/>
<polygon fill="black" stroke="black" points="1384.88,-418.161 1375.07,-414.162 1380.24,-423.407 1384.88,-418.161"/>
</g>
<!-- pr_c2df6d18&#45;ab10&#45;475a&#45;b90f&#45;fd004a05ce84&#45;&gt;CRB3 -->
<g id="edge43" class="edge"><title>pr_c2df6d18&#45;ab10&#45;475a&#45;b90f&#45;fd004a05ce84&#45;&gt;CRB3</title>
<path fill="none" stroke="black" d="M1448.74,-419.119C1448.8,-428.662 1448.56,-438.341 1447.99,-446.827"/>
<polygon fill="black" stroke="black" points="1444.5,-446.571 1447.11,-456.838 1451.48,-447.183 1444.5,-446.571"/>
</g>
<!-- PATJ -->
<g id="node31" class="node"><title>PATJ</title>
<ellipse fill="none" stroke="black" cx="1560" cy="-474.307" rx="18" ry="18"/>
<text text-anchor="middle" x="1560" y="-473.107" font-family="Times,serif" font-size="4.00">PATJ</text>
</g>
<!-- pr_4db94d55&#45;7b68&#45;41c0&#45;9322&#45;9ab2ad63278b -->
<g id="node32" class="node"><title>pr_4db94d55&#45;7b68&#45;41c0&#45;9322&#45;9ab2ad63278b</title>
<polygon fill="none" stroke="black" points="1610.5,-420.307 1509.5,-420.307 1509.5,-319.307 1610.5,-319.307 1610.5,-420.307"/>
<text text-anchor="middle" x="1560" y="-368.607" font-family="Times,serif" font-size="4.00">pr_4db94d55&#45;7b68&#45;41c0&#45;9322&#45;9ab2ad63278b</text>
</g>
<!-- PATJ&#45;&gt;pr_4db94d55&#45;7b68&#45;41c0&#45;9322&#45;9ab2ad63278b -->
<g id="edge44" class="edge"><title>PATJ&#45;&gt;pr_4db94d55&#45;7b68&#45;41c0&#45;9322&#45;9ab2ad63278b</title>
<path fill="none" stroke="black" d="M1554.89,-456.838C1554.04,-449.446 1553.52,-440.226 1553.33,-430.592"/>
<polygon fill="black" stroke="black" points="1556.83,-430.433 1553.25,-420.462 1549.83,-430.489 1556.83,-430.433"/>
</g>
<!-- PATJ&#45;&gt;pr_67b15472&#45;bfc0&#45;4387&#45;91df&#45;6ad4b0362f61 -->
<g id="edge45" class="edge"><title>PATJ&#45;&gt;pr_67b15472&#45;bfc0&#45;4387&#45;91df&#45;6ad4b0362f61</title>
<path fill="none" stroke="black" d="M1542.33,-470.483C1509.52,-464.714 1437.64,-449.577 1384,-420.307 1383.91,-420.255 1383.81,-420.204 1383.72,-420.152"/>
<polygon fill="black" stroke="black" points="1385.38,-417.066 1375.01,-414.887 1381.76,-423.056 1385.38,-417.066"/>
</g>
<!-- pr_4db94d55&#45;7b68&#45;41c0&#45;9322&#45;9ab2ad63278b&#45;&gt;PATJ -->
<g id="edge46" class="edge"><title>pr_4db94d55&#45;7b68&#45;41c0&#45;9322&#45;9ab2ad63278b&#45;&gt;PATJ</title>
<path fill="none" stroke="black" d="M1566.75,-420.462C1566.78,-429.494 1566.53,-438.593 1566.01,-446.634"/>
<polygon fill="black" stroke="black" points="1562.5,-446.572 1565.11,-456.838 1569.47,-447.181 1562.5,-446.572"/>
</g>
<!-- ATP1A_ATP1B_FXYDs -->
<g id="node33" class="node"><title>ATP1A_ATP1B_FXYDs</title>
<ellipse fill="none" stroke="black" cx="975" cy="-245.653" rx="31.0804" ry="31.0804"/>
<text text-anchor="middle" x="975" y="-244.453" font-family="Times,serif" font-size="4.00">ATP1A_ATP1B_FXYDs</text>
</g>
<!-- ATP1A_ATP1B_FXYDs&#45;&gt;pr_882af468&#45;4c8c&#45;4d43&#45;bde0&#45;3d873c8fee33 -->
<g id="edge47" class="edge"><title>ATP1A_ATP1B_FXYDs&#45;&gt;pr_882af468&#45;4c8c&#45;4d43&#45;bde0&#45;3d873c8fee33</title>
<path fill="none" stroke="black" d="M980.894,-276.481C981.505,-286.645 981.789,-298.391 981.746,-310.025"/>
<polygon fill="black" stroke="black" points="978.244,-310.136 981.624,-320.178 985.244,-310.22 978.244,-310.136"/>
</g>
<!-- pr_05bb336b&#45;9e3a&#45;4bfc&#45;9343&#45;f39ca74efee1 -->
<g id="node42" class="node"><title>pr_05bb336b&#45;9e3a&#45;4bfc&#45;9343&#45;f39ca74efee1</title>
<polygon fill="none" stroke="black" points="1025,-171 927,-171 927,-73 1025,-73 1025,-171"/>
<text text-anchor="middle" x="976" y="-120.8" font-family="Times,serif" font-size="4.00">pr_05bb336b&#45;9e3a&#45;4bfc&#45;9343&#45;f39ca74efee1</text>
</g>
<!-- ATP1A_ATP1B_FXYDs&#45;&gt;pr_05bb336b&#45;9e3a&#45;4bfc&#45;9343&#45;f39ca74efee1 -->
<g id="edge48" class="edge"><title>ATP1A_ATP1B_FXYDs&#45;&gt;pr_05bb336b&#45;9e3a&#45;4bfc&#45;9343&#45;f39ca74efee1</title>
<path fill="none" stroke="black" d="M975.25,-214.269C975.331,-204.355 975.425,-192.987 975.517,-181.715"/>
<polygon fill="black" stroke="black" points="979.019,-181.464 975.602,-171.436 972.02,-181.407 979.019,-181.464"/>
</g>
<!-- pr_fbb73815&#45;3357&#45;40c2&#45;a7ea&#45;65a31ecc53b1 -->
<g id="node44" class="node"><title>pr_fbb73815&#45;3357&#45;40c2&#45;a7ea&#45;65a31ecc53b1</title>
<polygon fill="none" stroke="black" points="909,-172 809,-172 809,-72 909,-72 909,-172"/>
<text text-anchor="middle" x="859" y="-120.8" font-family="Times,serif" font-size="4.00">pr_fbb73815&#45;3357&#45;40c2&#45;a7ea&#45;65a31ecc53b1</text>
</g>
<!-- ATP1A_ATP1B_FXYDs&#45;&gt;pr_fbb73815&#45;3357&#45;40c2&#45;a7ea&#45;65a31ecc53b1 -->
<g id="edge49" class="edge"><title>ATP1A_ATP1B_FXYDs&#45;&gt;pr_fbb73815&#45;3357&#45;40c2&#45;a7ea&#45;65a31ecc53b1</title>
<path fill="none" stroke="black" d="M953.724,-222.34C942.201,-210.256 927.393,-194.726 912.925,-179.553"/>
<polygon fill="black" stroke="black" points="915.3,-176.972 905.866,-172.15 910.233,-181.802 915.3,-176.972"/>
</g>
<!-- pr_882af468&#45;4c8c&#45;4d43&#45;bde0&#45;3d873c8fee33&#45;&gt;ATP1A_ATP1B_FXYDs -->
<g id="edge50" class="edge"><title>pr_882af468&#45;4c8c&#45;4d43&#45;bde0&#45;3d873c8fee33&#45;&gt;ATP1A_ATP1B_FXYDs</title>
<path fill="none" stroke="black" d="M968.376,-320.178C968.149,-309.1 968.229,-297.452 968.616,-286.776"/>
<polygon fill="black" stroke="black" points="972.127,-286.636 969.106,-276.481 965.135,-286.303 972.127,-286.636"/>
</g>
<!-- ASIC1 -->
<g id="node35" class="node"><title>ASIC1</title>
<ellipse fill="none" stroke="black" cx="1770" cy="-474.307" rx="18" ry="18"/>
<text text-anchor="middle" x="1770" y="-473.107" font-family="Times,serif" font-size="4.00">ASIC1</text>
</g>
<!-- pr_b90b7e1a&#45;c00f&#45;4e84&#45;8084&#45;76efb8e73652 -->
<g id="node36" class="node"><title>pr_b90b7e1a&#45;c00f&#45;4e84&#45;8084&#45;76efb8e73652</title>
<polygon fill="none" stroke="black" points="1846.5,-419.307 1747.5,-419.307 1747.5,-320.307 1846.5,-320.307 1846.5,-419.307"/>
<text text-anchor="middle" x="1797" y="-368.607" font-family="Times,serif" font-size="4.00">pr_b90b7e1a&#45;c00f&#45;4e84&#45;8084&#45;76efb8e73652</text>
</g>
<!-- ASIC1&#45;&gt;pr_b90b7e1a&#45;c00f&#45;4e84&#45;8084&#45;76efb8e73652 -->
<g id="edge51" class="edge"><title>ASIC1&#45;&gt;pr_b90b7e1a&#45;c00f&#45;4e84&#45;8084&#45;76efb8e73652</title>
<path fill="none" stroke="black" d="M1769.36,-455.919C1770.53,-448.38 1772.49,-439.071 1774.88,-429.406"/>
<polygon fill="black" stroke="black" points="1778.28,-430.231 1777.38,-419.674 1771.5,-428.484 1778.28,-430.231"/>
</g>
<!-- ASIC1&#45;&gt;pr_6b9bb7d1&#45;d24c&#45;44e7&#45;a593&#45;140118319d99 -->
<g id="edge52" class="edge"><title>ASIC1&#45;&gt;pr_6b9bb7d1&#45;d24c&#45;44e7&#45;a593&#45;140118319d99</title>
<path fill="none" stroke="black" d="M1758.47,-460.325C1750.95,-451.849 1740.54,-440.128 1729.74,-427.958"/>
<polygon fill="black" stroke="black" points="1732.24,-425.501 1722.98,-420.347 1727,-430.149 1732.24,-425.501"/>
</g>
<!-- pr_b90b7e1a&#45;c00f&#45;4e84&#45;8084&#45;76efb8e73652&#45;&gt;ASIC1 -->
<g id="edge53" class="edge"><title>pr_b90b7e1a&#45;c00f&#45;4e84&#45;8084&#45;76efb8e73652&#45;&gt;ASIC1</title>
<path fill="none" stroke="black" d="M1790.95,-419.369C1788.34,-429.498 1785.35,-439.767 1782.38,-448.588"/>
<polygon fill="black" stroke="black" points="1779.02,-447.588 1778.94,-458.183 1785.61,-449.953 1779.02,-447.588"/>
</g>
<!-- H+ -->
<g id="node37" class="node"><title>H+</title>
<ellipse fill="none" stroke="black" cx="1824" cy="-474.307" rx="18" ry="18"/>
<text text-anchor="middle" x="1824" y="-473.107" font-family="Times,serif" font-size="4.00">H+</text>
</g>
<!-- H+&#45;&gt;pr_b90b7e1a&#45;c00f&#45;4e84&#45;8084&#45;76efb8e73652 -->
<g id="edge54" class="edge"><title>H+&#45;&gt;pr_b90b7e1a&#45;c00f&#45;4e84&#45;8084&#45;76efb8e73652</title>
<path fill="none" stroke="black" d="M1819.54,-456.381C1817.54,-448.79 1815.05,-439.34 1812.46,-429.516"/>
<polygon fill="black" stroke="black" points="1815.79,-428.401 1809.86,-419.622 1809.02,-430.184 1815.79,-428.401"/>
</g>
<!-- ASIC1 trimer_H+_STOML3 -->
<g id="node40" class="node"><title>ASIC1 trimer_H+_STOML3</title>
<ellipse fill="none" stroke="black" cx="1679" cy="-245.653" rx="36.125" ry="36.125"/>
<text text-anchor="middle" x="1679" y="-244.453" font-family="Times,serif" font-size="4.00">ASIC1 trimer_H+_STOML3</text>
</g>
<!-- pr_6b9bb7d1&#45;d24c&#45;44e7&#45;a593&#45;140118319d99&#45;&gt;ASIC1 trimer_H+_STOML3 -->
<g id="edge55" class="edge"><title>pr_6b9bb7d1&#45;d24c&#45;44e7&#45;a593&#45;140118319d99&#45;&gt;ASIC1 trimer_H+_STOML3</title>
<path fill="none" stroke="black" d="M1679,-319.122C1679,-310.197 1679,-300.935 1679,-292.136"/>
<polygon fill="black" stroke="black" points="1682.5,-292.067 1679,-282.067 1675.5,-292.067 1682.5,-292.067"/>
</g>
<!-- STOML3 -->
<g id="node39" class="node"><title>STOML3</title>
<ellipse fill="none" stroke="black" cx="1679" cy="-474.307" rx="18" ry="18"/>
<text text-anchor="middle" x="1679" y="-473.107" font-family="Times,serif" font-size="4.00">STOML3</text>
</g>
<!-- STOML3&#45;&gt;pr_6b9bb7d1&#45;d24c&#45;44e7&#45;a593&#45;140118319d99 -->
<g id="edge56" class="edge"><title>STOML3&#45;&gt;pr_6b9bb7d1&#45;d24c&#45;44e7&#45;a593&#45;140118319d99</title>
<path fill="none" stroke="black" d="M1679,-455.919C1679,-448.705 1679,-439.87 1679,-430.653"/>
<polygon fill="black" stroke="black" points="1682.5,-430.56 1679,-420.56 1675.5,-430.56 1682.5,-430.56"/>
</g>
<!-- K+ -->
<g id="node41" class="node"><title>K+</title>
<ellipse fill="none" stroke="black" cx="976" cy="-18" rx="18" ry="18"/>
<text text-anchor="middle" x="976" y="-16.8" font-family="Times,serif" font-size="4.00">K+</text>
</g>
<!-- K+&#45;&gt;pr_05bb336b&#45;9e3a&#45;4bfc&#45;9343&#45;f39ca74efee1 -->
<g id="edge57" class="edge"><title>K+&#45;&gt;pr_05bb336b&#45;9e3a&#45;4bfc&#45;9343&#45;f39ca74efee1</title>
<path fill="none" stroke="black" d="M981.139,-35.5973C982.009,-43.2796 982.526,-52.9131 982.692,-62.9174"/>
<polygon fill="black" stroke="black" points="979.192,-63.0036 982.74,-72.9868 986.192,-62.9702 979.192,-63.0036"/>
</g>
<!-- pr_05bb336b&#45;9e3a&#45;4bfc&#45;9343&#45;f39ca74efee1&#45;&gt;K+ -->
<g id="edge58" class="edge"><title>pr_05bb336b&#45;9e3a&#45;4bfc&#45;9343&#45;f39ca74efee1&#45;&gt;K+</title>
<path fill="none" stroke="black" d="M969.26,-72.9868C969.196,-63.6456 969.434,-54.1703 969.975,-45.8202"/>
<polygon fill="black" stroke="black" points="973.485,-45.8622 970.861,-35.5973 966.511,-45.2577 973.485,-45.8622"/>
</g>
<!-- Na+ -->
<g id="node43" class="node"><title>Na+</title>
<ellipse fill="none" stroke="black" cx="859" cy="-18" rx="18" ry="18"/>
<text text-anchor="middle" x="859" y="-16.8" font-family="Times,serif" font-size="4.00">Na+</text>
</g>
<!-- Na+&#45;&gt;pr_fbb73815&#45;3357&#45;40c2&#45;a7ea&#45;65a31ecc53b1 -->
<g id="edge59" class="edge"><title>Na+&#45;&gt;pr_fbb73815&#45;3357&#45;40c2&#45;a7ea&#45;65a31ecc53b1</title>
<path fill="none" stroke="black" d="M864.141,-35.6151C864.975,-42.9907 865.485,-52.1624 865.671,-61.7331"/>
<polygon fill="black" stroke="black" points="862.171,-61.8193 865.746,-71.7926 869.171,-61.7665 862.171,-61.8193"/>
</g>
<!-- pr_fbb73815&#45;3357&#45;40c2&#45;a7ea&#45;65a31ecc53b1&#45;&gt;Na+ -->
<g id="edge60" class="edge"><title>pr_fbb73815&#45;3357&#45;40c2&#45;a7ea&#45;65a31ecc53b1&#45;&gt;Na+</title>
<path fill="none" stroke="black" d="M852.254,-71.7926C852.217,-62.8265 852.458,-53.7864 852.978,-45.7826"/>
<polygon fill="black" stroke="black" points="856.482,-45.88 853.859,-35.6151 849.509,-45.2754 856.482,-45.88"/>
</g>
<!-- P&#45;TEFb -->
<g id="node46" class="node"><title>P&#45;TEFb</title>
<ellipse fill="none" stroke="black" cx="203" cy="-18" rx="18" ry="18"/>
<text text-anchor="middle" x="203" y="-16.8" font-family="Times,serif" font-size="4.00">P&#45;TEFb</text>
</g>
<!-- pr_0455f064&#45;74ac&#45;4a66&#45;b28c&#45;fd63ceeb9751&#45;&gt;P&#45;TEFb -->
<g id="edge61" class="edge"><title>pr_0455f064&#45;74ac&#45;4a66&#45;b28c&#45;fd63ceeb9751&#45;&gt;P&#45;TEFb</title>
<path fill="none" stroke="black" d="M203,-72.3898C203,-63.5002 203,-54.5136 203,-46.5134"/>
<polygon fill="black" stroke="black" points="206.5,-46.3173 203,-36.3173 199.5,-46.3174 206.5,-46.3173"/>
</g>
<!-- CRB3_PALS1_PATJ complex -->
<g id="node48" class="node"><title>CRB3_PALS1_PATJ complex</title>
<ellipse fill="none" stroke="black" cx="1326" cy="-245.653" rx="37.8075" ry="37.8075"/>
<text text-anchor="middle" x="1326" y="-244.453" font-family="Times,serif" font-size="4.00">CRB3_PALS1_PATJ complex</text>
</g>
<!-- pr_67b15472&#45;bfc0&#45;4387&#45;91df&#45;6ad4b0362f61&#45;&gt;CRB3_PALS1_PATJ complex -->
<g id="edge62" class="edge"><title>pr_67b15472&#45;bfc0&#45;4387&#45;91df&#45;6ad4b0362f61&#45;&gt;CRB3_PALS1_PATJ complex</title>
<path fill="none" stroke="black" d="M1326,-320.529C1326,-311.709 1326,-302.517 1326,-293.733"/>
<polygon fill="black" stroke="black" points="1329.5,-293.656 1326,-283.656 1322.5,-293.656 1329.5,-293.656"/>
</g>
</g>
</svg>
