<?xml version="1.0" encoding="UTF-8" standalone="no"?>
<!DOCTYPE svg PUBLIC "-//W3C//DTD SVG 1.1//EN"
 "http://www.w3.org/Graphics/SVG/1.1/DTD/svg11.dtd">
<!-- Generated by graphviz version 2.38.0 (20140413.2041)
 -->
<!-- Title: G Pages: 1 -->
<svg width="950pt" height="253pt"
 viewBox="0.00 0.00 950.00 253.00" xmlns="http://www.w3.org/2000/svg" xmlns:xlink="http://www.w3.org/1999/xlink">
<g id="graph0" class="graph" transform="scale(1 1) rotate(0) translate(4 249)">
<title>G</title>
<polygon fill="white" stroke="none" points="-4,4 -4,-249 946,-249 946,4 -4,4"/>
<!-- CDK9 -->
<g id="node1" class="node"><title>CDK9</title>
<ellipse fill="none" stroke="black" cx="158.5" cy="-227" rx="18" ry="18"/>
<text text-anchor="middle" x="158.5" y="-225.8" font-family="Times,serif" font-size="4.00">CDK9</text>
</g>
<!-- pr_bd5f2450&#45;c44c&#45;4697&#45;8de9&#45;05a931030493 -->
<g id="node2" class="node"><title>pr_bd5f2450&#45;c44c&#45;4697&#45;8de9&#45;05a931030493</title>
<polygon fill="none" stroke="black" points="219.5,-172.5 119.5,-172.5 119.5,-72.5 219.5,-72.5 219.5,-172.5"/>
<text text-anchor="middle" x="169.5" y="-121.3" font-family="Times,serif" font-size="4.00">pr_bd5f2450&#45;c44c&#45;4697&#45;8de9&#45;05a931030493</text>
</g>
<!-- CDK9&#45;&gt;pr_bd5f2450&#45;c44c&#45;4697&#45;8de9&#45;05a931030493 -->
<g id="edge1" class="edge"><title>CDK9&#45;&gt;pr_bd5f2450&#45;c44c&#45;4697&#45;8de9&#45;05a931030493</title>
<path fill="none" stroke="black" d="M155.15,-209.074C155.122,-201.647 155.607,-192.439 156.457,-182.843"/>
<polygon fill="black" stroke="black" points="159.953,-183.06 157.468,-172.761 152.987,-182.362 159.953,-183.06"/>
</g>
<!-- pr_bd5f2450&#45;c44c&#45;4697&#45;8de9&#45;05a931030493&#45;&gt;CDK9 -->
<g id="edge2" class="edge"><title>pr_bd5f2450&#45;c44c&#45;4697&#45;8de9&#45;05a931030493&#45;&gt;CDK9</title>
<path fill="none" stroke="black" d="M170.97,-172.648C169.997,-182.143 168.704,-191.734 167.232,-200.114"/>
<polygon fill="black" stroke="black" points="163.786,-199.496 165.281,-209.984 170.654,-200.853 163.786,-199.496"/>
</g>
<!-- BRD4 -->
<g id="node3" class="node"><title>BRD4</title>
<ellipse fill="none" stroke="black" cx="482.5" cy="-227" rx="18" ry="18"/>
<text text-anchor="middle" x="482.5" y="-225.8" font-family="Times,serif" font-size="4.00">BRD4</text>
</g>
<!-- BRD4&#45;&gt;pr_bd5f2450&#45;c44c&#45;4697&#45;8de9&#45;05a931030493 -->
<g id="edge3" class="edge"><title>BRD4&#45;&gt;pr_bd5f2450&#45;c44c&#45;4697&#45;8de9&#45;05a931030493</title>
<path fill="none" stroke="black" d="M468.193,-215.556C464.241,-213.079 459.842,-210.673 455.5,-209 369.184,-175.732 337.036,-205.691 250.5,-173 243.237,-170.256 235.904,-166.846 228.773,-163.108"/>
<polygon fill="black" stroke="black" points="230.32,-159.964 219.869,-158.222 226.953,-166.101 230.32,-159.964"/>
</g>
<!-- pr_7c91f2af&#45;487c&#45;4f38&#45;86e5&#45;1f7aa04a0217 -->
<g id="node5" class="node"><title>pr_7c91f2af&#45;487c&#45;4f38&#45;86e5&#45;1f7aa04a0217</title>
<polygon fill="none" stroke="black" points="711.5,-171.5 613.5,-171.5 613.5,-73.5 711.5,-73.5 711.5,-171.5"/>
<text text-anchor="middle" x="662.5" y="-121.3" font-family="Times,serif" font-size="4.00">pr_7c91f2af&#45;487c&#45;4f38&#45;86e5&#45;1f7aa04a0217</text>
</g>
<!-- BRD4&#45;&gt;pr_7c91f2af&#45;487c&#45;4f38&#45;86e5&#45;1f7aa04a0217 -->
<g id="edge4" class="edge"><title>BRD4&#45;&gt;pr_7c91f2af&#45;487c&#45;4f38&#45;86e5&#45;1f7aa04a0217</title>
<path fill="none" stroke="black" d="M499.456,-220.442C523.761,-212.082 569.437,-194.893 604.5,-173 604.591,-172.943 604.682,-172.886 604.774,-172.829"/>
<polygon fill="black" stroke="black" points="606.881,-175.63 613.243,-167.158 602.986,-169.813 606.881,-175.63"/>
</g>
<!-- pr_1256d5dc&#45;5be5&#45;4d81&#45;92ee&#45;bdaa1365216f -->
<g id="node7" class="node"><title>pr_1256d5dc&#45;5be5&#45;4d81&#45;92ee&#45;bdaa1365216f</title>
<polygon fill="none" stroke="black" points="595.5,-172.5 495.5,-172.5 495.5,-72.5 595.5,-72.5 595.5,-172.5"/>
<text text-anchor="middle" x="545.5" y="-121.3" font-family="Times,serif" font-size="4.00">pr_1256d5dc&#45;5be5&#45;4d81&#45;92ee&#45;bdaa1365216f</text>
</g>
<!-- BRD4&#45;&gt;pr_1256d5dc&#45;5be5&#45;4d81&#45;92ee&#45;bdaa1365216f -->
<g id="edge5" class="edge"><title>BRD4&#45;&gt;pr_1256d5dc&#45;5be5&#45;4d81&#45;92ee&#45;bdaa1365216f</title>
<path fill="none" stroke="black" d="M491.526,-211.314C496.515,-203.198 503.073,-192.528 509.892,-181.433"/>
<polygon fill="black" stroke="black" points="512.881,-183.254 515.136,-172.902 506.918,-179.588 512.881,-183.254"/>
</g>
<!-- pr_23e7b863&#45;d96e&#45;428c&#45;a187&#45;0dc1609933dd -->
<g id="node9" class="node"><title>pr_23e7b863&#45;d96e&#45;428c&#45;a187&#45;0dc1609933dd</title>
<polygon fill="none" stroke="black" points="477,-173 376,-173 376,-72 477,-72 477,-173"/>
<text text-anchor="middle" x="426.5" y="-121.3" font-family="Times,serif" font-size="4.00">pr_23e7b863&#45;d96e&#45;428c&#45;a187&#45;0dc1609933dd</text>
</g>
<!-- BRD4&#45;&gt;pr_23e7b863&#45;d96e&#45;428c&#45;a187&#45;0dc1609933dd -->
<g id="edge6" class="edge"><title>BRD4&#45;&gt;pr_23e7b863&#45;d96e&#45;428c&#45;a187&#45;0dc1609933dd</title>
<path fill="none" stroke="black" d="M470.734,-213.018C465.131,-204.862 458.361,-193.702 451.786,-182.027"/>
<polygon fill="black" stroke="black" points="454.72,-180.099 446.819,-173.04 448.594,-183.485 454.72,-180.099"/>
</g>
<!-- CCNT1 -->
<g id="node4" class="node"><title>CCNT1</title>
<ellipse fill="none" stroke="black" cx="662.5" cy="-18" rx="18" ry="18"/>
<text text-anchor="middle" x="662.5" y="-16.8" font-family="Times,serif" font-size="4.00">CCNT1</text>
</g>
<!-- CCNT1&#45;&gt;pr_7c91f2af&#45;487c&#45;4f38&#45;86e5&#45;1f7aa04a0217 -->
<g id="edge7" class="edge"><title>CCNT1&#45;&gt;pr_7c91f2af&#45;487c&#45;4f38&#45;86e5&#45;1f7aa04a0217</title>
<path fill="none" stroke="black" d="M667.639,-35.6787C668.509,-43.3986 669.026,-53.0794 669.192,-63.1327"/>
<polygon fill="black" stroke="black" points="665.692,-63.2681 669.24,-73.2514 672.692,-63.2349 665.692,-63.2681"/>
</g>
<!-- pr_7c91f2af&#45;487c&#45;4f38&#45;86e5&#45;1f7aa04a0217&#45;&gt;CCNT1 -->
<g id="edge8" class="edge"><title>pr_7c91f2af&#45;487c&#45;4f38&#45;86e5&#45;1f7aa04a0217&#45;&gt;CCNT1</title>
<path fill="none" stroke="black" d="M655.76,-73.2514C655.695,-63.759 655.94,-54.1287 656.494,-45.6693"/>
<polygon fill="black" stroke="black" points="659.983,-45.944 657.361,-35.6787 653.009,-45.3383 659.983,-45.944"/>
</g>
<!-- histone -->
<g id="node6" class="node"><title>histone</title>
<ellipse fill="none" stroke="black" cx="426.5" cy="-18" rx="18" ry="18"/>
<text text-anchor="middle" x="426.5" y="-16.8" font-family="Times,serif" font-size="4.00">histone</text>
</g>
<!-- histone&#45;&gt;pr_1256d5dc&#45;5be5&#45;4d81&#45;92ee&#45;bdaa1365216f -->
<g id="edge9" class="edge"><title>histone&#45;&gt;pr_1256d5dc&#45;5be5&#45;4d81&#45;92ee&#45;bdaa1365216f</title>
<path fill="none" stroke="black" d="M441.483,-28.3757C453.329,-37.201 470.451,-51.1945 487.419,-65.6788"/>
<polygon fill="black" stroke="black" points="485.319,-68.489 495.185,-72.3515 489.881,-63.1797 485.319,-68.489"/>
</g>
<!-- pr_1256d5dc&#45;5be5&#45;4d81&#45;92ee&#45;bdaa1365216f&#45;&gt;histone -->
<g id="edge10" class="edge"><title>pr_1256d5dc&#45;5be5&#45;4d81&#45;92ee&#45;bdaa1365216f&#45;&gt;histone</title>
<path fill="none" stroke="black" d="M495.332,-83.9148C477.432,-68.9176 458.399,-52.2362 444.815,-39.5392"/>
<polygon fill="black" stroke="black" points="447.151,-36.9303 437.497,-32.5666 442.323,-41.9985 447.151,-36.9303"/>
</g>
<!-- BRD2 -->
<g id="node8" class="node"><title>BRD2</title>
<ellipse fill="none" stroke="black" cx="777.5" cy="-227" rx="18" ry="18"/>
<text text-anchor="middle" x="777.5" y="-225.8" font-family="Times,serif" font-size="4.00">BRD2</text>
</g>
<!-- BRD2&#45;&gt;pr_1256d5dc&#45;5be5&#45;4d81&#45;92ee&#45;bdaa1365216f -->
<g id="edge11" class="edge"><title>BRD2&#45;&gt;pr_1256d5dc&#45;5be5&#45;4d81&#45;92ee&#45;bdaa1365216f</title>
<path fill="none" stroke="black" d="M759.901,-223.024C727.573,-217.047 657.22,-201.642 604.5,-173 604.408,-172.95 604.316,-172.9 604.225,-172.85"/>
<polygon fill="black" stroke="black" points="606.126,-169.909 595.747,-167.778 602.532,-175.916 606.126,-169.909"/>
</g>
<!-- pr_6f5f7c6f&#45;d62a&#45;47ff&#45;a44a&#45;f6af353fe3a7 -->
<g id="node17" class="node"><title>pr_6f5f7c6f&#45;d62a&#45;47ff&#45;a44a&#45;f6af353fe3a7</title>
<polygon fill="none" stroke="black" points="825,-170 730,-170 730,-75 825,-75 825,-170"/>
<text text-anchor="middle" x="777.5" y="-121.3" font-family="Times,serif" font-size="4.00">pr_6f5f7c6f&#45;d62a&#45;47ff&#45;a44a&#45;f6af353fe3a7</text>
</g>
<!-- BRD2&#45;&gt;pr_6f5f7c6f&#45;d62a&#45;47ff&#45;a44a&#45;f6af353fe3a7 -->
<g id="edge12" class="edge"><title>BRD2&#45;&gt;pr_6f5f7c6f&#45;d62a&#45;47ff&#45;a44a&#45;f6af353fe3a7</title>
<path fill="none" stroke="black" d="M772.385,-209.532C771.456,-201.383 770.923,-191.014 770.786,-180.318"/>
<polygon fill="black" stroke="black" points="774.285,-180.021 770.776,-170.024 767.285,-180.027 774.285,-180.021"/>
</g>
<!-- pr_3ac8fc8e&#45;2685&#45;4ce2&#45;987d&#45;5c5c65566fe6 -->
<g id="node20" class="node"><title>pr_3ac8fc8e&#45;2685&#45;4ce2&#45;987d&#45;5c5c65566fe6</title>
<polygon fill="none" stroke="black" points="942,-172 843,-172 843,-73 942,-73 942,-172"/>
<text text-anchor="middle" x="892.5" y="-121.3" font-family="Times,serif" font-size="4.00">pr_3ac8fc8e&#45;2685&#45;4ce2&#45;987d&#45;5c5c65566fe6</text>
</g>
<!-- BRD2&#45;&gt;pr_3ac8fc8e&#45;2685&#45;4ce2&#45;987d&#45;5c5c65566fe6 -->
<g id="edge13" class="edge"><title>BRD2&#45;&gt;pr_3ac8fc8e&#45;2685&#45;4ce2&#45;987d&#45;5c5c65566fe6</title>
<path fill="none" stroke="black" d="M790.692,-214.242C801.794,-204.347 818.488,-189.467 835.164,-174.604"/>
<polygon fill="black" stroke="black" points="837.668,-177.061 842.804,-167.794 833.01,-171.835 837.668,-177.061"/>
</g>
<!-- pr_23e7b863&#45;d96e&#45;428c&#45;a187&#45;0dc1609933dd&#45;&gt;BRD4 -->
<g id="edge14" class="edge"><title>pr_23e7b863&#45;d96e&#45;428c&#45;a187&#45;0dc1609933dd&#45;&gt;BRD4</title>
<path fill="none" stroke="black" d="M460.404,-173.207C465.455,-182.393 470.253,-191.645 474.152,-199.782"/>
<polygon fill="black" stroke="black" points="471.065,-201.447 478.419,-209.074 477.427,-198.526 471.065,-201.447"/>
</g>
<!-- E -->
<g id="node10" class="node"><title>E</title>
<ellipse fill="none" stroke="black" cx="630.5" cy="-227" rx="18" ry="18"/>
<text text-anchor="middle" x="630.5" y="-225.8" font-family="Times,serif" font-size="4.00">E</text>
</g>
<!-- E&#45;&gt;pr_23e7b863&#45;d96e&#45;428c&#45;a187&#45;0dc1609933dd -->
<g id="edge15" class="edge"><title>E&#45;&gt;pr_23e7b863&#45;d96e&#45;428c&#45;a187&#45;0dc1609933dd</title>
<path fill="none" stroke="black" d="M613.277,-221.694C585.408,-214.291 529.239,-197.541 486.5,-173 486.204,-172.83 485.907,-172.658 485.611,-172.485"/>
<polygon fill="black" stroke="black" points="487.378,-169.462 477.048,-167.106 483.654,-175.389 487.378,-169.462"/>
</g>
<!-- E&#45;&gt;pr_6f5f7c6f&#45;d62a&#45;47ff&#45;a44a&#45;f6af353fe3a7 -->
<g id="edge16" class="edge"><title>E&#45;&gt;pr_6f5f7c6f&#45;d62a&#45;47ff&#45;a44a&#45;f6af353fe3a7</title>
<path fill="none" stroke="black" d="M646.327,-217.824C664.739,-208.056 695.771,-190.791 720.5,-173 720.886,-172.723 721.272,-172.443 721.658,-172.162"/>
<polygon fill="black" stroke="black" points="723.94,-174.825 729.806,-166.002 719.719,-169.24 723.94,-174.825"/>
</g>
<!-- H4C14 -->
<g id="node11" class="node"><title>H4C14</title>
<ellipse fill="none" stroke="black" cx="374.5" cy="-227" rx="18" ry="18"/>
<text text-anchor="middle" x="374.5" y="-225.8" font-family="Times,serif" font-size="4.00">H4C14</text>
</g>
<!-- pr_6f82b473&#45;c5ad&#45;4f7b&#45;96a3&#45;14429ff9aac1 -->
<g id="node12" class="node"><title>pr_6f82b473&#45;c5ad&#45;4f7b&#45;96a3&#45;14429ff9aac1</title>
<polygon fill="none" stroke="black" points="357.5,-171.5 259.5,-171.5 259.5,-73.5 357.5,-73.5 357.5,-171.5"/>
<text text-anchor="middle" x="308.5" y="-121.3" font-family="Times,serif" font-size="4.00">pr_6f82b473&#45;c5ad&#45;4f7b&#45;96a3&#45;14429ff9aac1</text>
</g>
<!-- H4C14&#45;&gt;pr_6f82b473&#45;c5ad&#45;4f7b&#45;96a3&#45;14429ff9aac1 -->
<g id="edge17" class="edge"><title>H4C14&#45;&gt;pr_6f82b473&#45;c5ad&#45;4f7b&#45;96a3&#45;14429ff9aac1</title>
<path fill="none" stroke="black" d="M365.044,-211.314C359.594,-202.851 352.357,-191.612 344.886,-180.009"/>
<polygon fill="black" stroke="black" points="347.784,-178.044 339.427,-171.531 341.898,-181.833 347.784,-178.044"/>
</g>
<!-- pr_6f82b473&#45;c5ad&#45;4f7b&#45;96a3&#45;14429ff9aac1&#45;&gt;histone -->
<g id="edge18" class="edge"><title>pr_6f82b473&#45;c5ad&#45;4f7b&#45;96a3&#45;14429ff9aac1&#45;&gt;histone</title>
<path fill="none" stroke="black" d="M357.517,-78.9212C374.298,-64.3453 392.187,-48.8056 405.543,-37.2045"/>
<polygon fill="black" stroke="black" points="407.968,-39.7342 413.222,-30.534 403.377,-34.4495 407.968,-39.7342"/>
</g>
<!-- H4&#45;16 -->
<g id="node13" class="node"><title>H4&#45;16</title>
<ellipse fill="none" stroke="black" cx="428.5" cy="-227" rx="18" ry="18"/>
<text text-anchor="middle" x="428.5" y="-225.8" font-family="Times,serif" font-size="4.00">H4&#45;16</text>
</g>
<!-- H4&#45;16&#45;&gt;pr_6f82b473&#45;c5ad&#45;4f7b&#45;96a3&#45;14429ff9aac1 -->
<g id="edge19" class="edge"><title>H4&#45;16&#45;&gt;pr_6f82b473&#45;c5ad&#45;4f7b&#45;96a3&#45;14429ff9aac1</title>
<path fill="none" stroke="black" d="M415.199,-214.639C403.025,-204.24 384.139,-188.108 365.619,-172.289"/>
<polygon fill="black" stroke="black" points="367.602,-169.38 357.725,-165.547 363.056,-174.703 367.602,-169.38"/>
</g>
<!-- H4C1 -->
<g id="node14" class="node"><title>H4C1</title>
<ellipse fill="none" stroke="black" cx="212.5" cy="-227" rx="18" ry="18"/>
<text text-anchor="middle" x="212.5" y="-225.8" font-family="Times,serif" font-size="4.00">H4C1</text>
</g>
<!-- H4C1&#45;&gt;pr_6f82b473&#45;c5ad&#45;4f7b&#45;96a3&#45;14429ff9aac1 -->
<g id="edge20" class="edge"><title>H4C1&#45;&gt;pr_6f82b473&#45;c5ad&#45;4f7b&#45;96a3&#45;14429ff9aac1</title>
<path fill="none" stroke="black" d="M224.658,-213.018C232.925,-204.192 244.487,-191.848 256.388,-179.141"/>
<polygon fill="black" stroke="black" points="259.131,-181.332 263.412,-171.641 254.022,-176.547 259.131,-181.332"/>
</g>
<!-- H3C15 -->
<g id="node15" class="node"><title>H3C15</title>
<ellipse fill="none" stroke="black" cx="266.5" cy="-227" rx="18" ry="18"/>
<text text-anchor="middle" x="266.5" y="-225.8" font-family="Times,serif" font-size="4.00">H3C15</text>
</g>
<!-- H3C15&#45;&gt;pr_6f82b473&#45;c5ad&#45;4f7b&#45;96a3&#45;14429ff9aac1 -->
<g id="edge21" class="edge"><title>H3C15&#45;&gt;pr_6f82b473&#45;c5ad&#45;4f7b&#45;96a3&#45;14429ff9aac1</title>
<path fill="none" stroke="black" d="M273.062,-209.984C276.346,-201.971 280.542,-191.731 284.889,-181.121"/>
<polygon fill="black" stroke="black" points="288.177,-182.329 288.73,-171.749 281.7,-179.675 288.177,-182.329"/>
</g>
<!-- H3C1 -->
<g id="node16" class="node"><title>H3C1</title>
<ellipse fill="none" stroke="black" cx="320.5" cy="-227" rx="18" ry="18"/>
<text text-anchor="middle" x="320.5" y="-225.8" font-family="Times,serif" font-size="4.00">H3C1</text>
</g>
<!-- H3C1&#45;&gt;pr_6f82b473&#45;c5ad&#45;4f7b&#45;96a3&#45;14429ff9aac1 -->
<g id="edge22" class="edge"><title>H3C1&#45;&gt;pr_6f82b473&#45;c5ad&#45;4f7b&#45;96a3&#45;14429ff9aac1</title>
<path fill="none" stroke="black" d="M318.518,-209.074C317.62,-201.398 316.498,-191.82 315.334,-181.878"/>
<polygon fill="black" stroke="black" points="318.802,-181.396 314.163,-171.87 311.849,-182.21 318.802,-181.396"/>
</g>
<!-- pr_6f5f7c6f&#45;d62a&#45;47ff&#45;a44a&#45;f6af353fe3a7&#45;&gt;BRD2 -->
<g id="edge23" class="edge"><title>pr_6f5f7c6f&#45;d62a&#45;47ff&#45;a44a&#45;f6af353fe3a7&#45;&gt;BRD2</title>
<path fill="none" stroke="black" d="M784.224,-170.024C784.333,-180.074 784.094,-190.368 783.505,-199.343"/>
<polygon fill="black" stroke="black" points="779.999,-199.265 782.615,-209.532 786.972,-199.874 779.999,-199.265"/>
</g>
<!-- JQ1 -->
<g id="node18" class="node"><title>JQ1</title>
<ellipse fill="none" stroke="black" cx="831.5" cy="-227" rx="18" ry="18"/>
<text text-anchor="middle" x="831.5" y="-225.8" font-family="Times,serif" font-size="4.00">JQ1</text>
</g>
<!-- JQ1&#45;&gt;pr_6f5f7c6f&#45;d62a&#45;47ff&#45;a44a&#45;f6af353fe3a7 -->
<g id="edge24" class="edge"><title>JQ1&#45;&gt;pr_6f5f7c6f&#45;d62a&#45;47ff&#45;a44a&#45;f6af353fe3a7</title>
<path fill="none" stroke="black" d="M823.299,-210.432C818.829,-201.948 812.994,-190.873 806.994,-179.484"/>
<polygon fill="black" stroke="black" points="809.927,-177.542 802.169,-170.326 803.734,-180.804 809.927,-177.542"/>
</g>
<!-- TBP -->
<g id="node19" class="node"><title>TBP</title>
<ellipse fill="none" stroke="black" cx="892.5" cy="-18" rx="18" ry="18"/>
<text text-anchor="middle" x="892.5" y="-16.8" font-family="Times,serif" font-size="4.00">TBP</text>
</g>
<!-- TBP&#45;&gt;pr_3ac8fc8e&#45;2685&#45;4ce2&#45;987d&#45;5c5c65566fe6 -->
<g id="edge25" class="edge"><title>TBP&#45;&gt;pr_3ac8fc8e&#45;2685&#45;4ce2&#45;987d&#45;5c5c65566fe6</title>
<path fill="none" stroke="black" d="M897.626,-35.5663C898.496,-43.2382 899.017,-52.8638 899.187,-62.8729"/>
<polygon fill="black" stroke="black" points="895.688,-62.9705 899.242,-72.9515 902.688,-62.9328 895.688,-62.9705"/>
</g>
<!-- pr_3ac8fc8e&#45;2685&#45;4ce2&#45;987d&#45;5c5c65566fe6&#45;&gt;TBP -->
<g id="edge26" class="edge"><title>pr_3ac8fc8e&#45;2685&#45;4ce2&#45;987d&#45;5c5c65566fe6&#45;&gt;TBP</title>
<path fill="none" stroke="black" d="M885.758,-72.9515C885.701,-63.5971 885.943,-54.1224 886.487,-45.7785"/>
<polygon fill="black" stroke="black" points="889.995,-45.8318 887.374,-35.5663 883.021,-45.2257 889.995,-45.8318"/>
</g>
<!-- H4C9 -->
<g id="node21" class="node"><title>H4C9</title>
<ellipse fill="none" stroke="black" cx="23.5" cy="-227" rx="18" ry="18"/>
<text text-anchor="middle" x="23.5" y="-225.8" font-family="Times,serif" font-size="4.00">H4C9</text>
</g>
<!-- pr_5109d0dd&#45;6125&#45;4789&#45;9d1a&#45;d7bd3027aab5 -->
<g id="node22" class="node"><title>pr_5109d0dd&#45;6125&#45;4789&#45;9d1a&#45;d7bd3027aab5</title>
<polygon fill="none" stroke="black" points="101,-173 0,-173 0,-72 101,-72 101,-173"/>
<text text-anchor="middle" x="50.5" y="-121.3" font-family="Times,serif" font-size="4.00">pr_5109d0dd&#45;6125&#45;4789&#45;9d1a&#45;d7bd3027aab5</text>
</g>
<!-- H4C9&#45;&gt;pr_5109d0dd&#45;6125&#45;4789&#45;9d1a&#45;d7bd3027aab5 -->
<g id="edge27" class="edge"><title>H4C9&#45;&gt;pr_5109d0dd&#45;6125&#45;4789&#45;9d1a&#45;d7bd3027aab5</title>
<path fill="none" stroke="black" d="M27.9585,-209.074C29.8928,-201.731 32.2854,-192.648 34.782,-183.17"/>
<polygon fill="black" stroke="black" points="38.2438,-183.768 37.4066,-173.207 31.4747,-181.985 38.2438,-183.768"/>
</g>
<!-- pr_5109d0dd&#45;6125&#45;4789&#45;9d1a&#45;d7bd3027aab5&#45;&gt;histone -->
<g id="edge28" class="edge"><title>pr_5109d0dd&#45;6125&#45;4789&#45;9d1a&#45;d7bd3027aab5&#45;&gt;histone</title>
<path fill="none" stroke="black" d="M101.034,-76.9568C104.141,-75.129 107.306,-73.4572 110.5,-72 209.395,-26.8853 341.429,-19.7635 398.391,-18.9197"/>
<polygon fill="black" stroke="black" points="398.473,-22.4192 408.44,-18.8263 398.408,-15.4195 398.473,-22.4192"/>
</g>
<!-- H2BC21 -->
<g id="node23" class="node"><title>H2BC21</title>
<ellipse fill="none" stroke="black" cx="77.5" cy="-227" rx="18" ry="18"/>
<text text-anchor="middle" x="77.5" y="-225.8" font-family="Times,serif" font-size="4.00">H2BC21</text>
</g>
<!-- H2BC21&#45;&gt;pr_5109d0dd&#45;6125&#45;4789&#45;9d1a&#45;d7bd3027aab5 -->
<g id="edge29" class="edge"><title>H2BC21&#45;&gt;pr_5109d0dd&#45;6125&#45;4789&#45;9d1a&#45;d7bd3027aab5</title>
<path fill="none" stroke="black" d="M73.0415,-209.074C71.1072,-201.731 68.7146,-192.648 66.218,-183.17"/>
<polygon fill="black" stroke="black" points="69.5253,-181.985 63.5934,-173.207 62.7562,-183.768 69.5253,-181.985"/>
</g>
</g>
</svg>
