<?xml version="1.0" encoding="UTF-8" standalone="no"?>
<!DOCTYPE svg PUBLIC "-//W3C//DTD SVG 1.1//EN"
 "http://www.w3.org/Graphics/SVG/1.1/DTD/svg11.dtd">
<!-- Generated by graphviz version 2.38.0 (20140413.2041)
 -->
<!-- Title: G Pages: 1 -->
<svg width="953pt" height="253pt"
 viewBox="0.00 0.00 952.50 253.00" xmlns="http://www.w3.org/2000/svg" xmlns:xlink="http://www.w3.org/1999/xlink">
<g id="graph0" class="graph" transform="scale(1 1) rotate(0) translate(4 249)">
<title>G</title>
<polygon fill="white" stroke="none" points="-4,4 -4,-249 948.5,-249 948.5,4 -4,4"/>
<!-- CDK9 -->
<g id="node1" class="node"><title>CDK9</title>
<ellipse fill="none" stroke="black" cx="157" cy="-227" rx="18" ry="18"/>
<text text-anchor="middle" x="157" y="-225.8" font-family="Times,serif" font-size="4.00">CDK9</text>
</g>
<!-- pr_85fe4bd8&#45;4e61&#45;47d8&#45;bba8&#45;b14661a036c9 -->
<g id="node2" class="node"><title>pr_85fe4bd8&#45;4e61&#45;47d8&#45;bba8&#45;b14661a036c9</title>
<polygon fill="none" stroke="black" points="218,-172.5 118,-172.5 118,-72.5 218,-72.5 218,-172.5"/>
<text text-anchor="middle" x="168" y="-121.3" font-family="Times,serif" font-size="4.00">pr_85fe4bd8&#45;4e61&#45;47d8&#45;bba8&#45;b14661a036c9</text>
</g>
<!-- CDK9&#45;&gt;pr_85fe4bd8&#45;4e61&#45;47d8&#45;bba8&#45;b14661a036c9 -->
<g id="edge1" class="edge"><title>CDK9&#45;&gt;pr_85fe4bd8&#45;4e61&#45;47d8&#45;bba8&#45;b14661a036c9</title>
<path fill="none" stroke="black" d="M153.65,-209.074C153.622,-201.647 154.107,-192.439 154.957,-182.843"/>
<polygon fill="black" stroke="black" points="158.453,-183.06 155.968,-172.761 151.487,-182.362 158.453,-183.06"/>
</g>
<!-- pr_85fe4bd8&#45;4e61&#45;47d8&#45;bba8&#45;b14661a036c9&#45;&gt;CDK9 -->
<g id="edge2" class="edge"><title>pr_85fe4bd8&#45;4e61&#45;47d8&#45;bba8&#45;b14661a036c9&#45;&gt;CDK9</title>
<path fill="none" stroke="black" d="M169.47,-172.648C168.497,-182.143 167.204,-191.734 165.732,-200.114"/>
<polygon fill="black" stroke="black" points="162.286,-199.496 163.781,-209.984 169.154,-200.853 162.286,-199.496"/>
</g>
<!-- BRD4 -->
<g id="node3" class="node"><title>BRD4</title>
<ellipse fill="none" stroke="black" cx="481" cy="-227" rx="18" ry="18"/>
<text text-anchor="middle" x="481" y="-225.8" font-family="Times,serif" font-size="4.00">BRD4</text>
</g>
<!-- BRD4&#45;&gt;pr_85fe4bd8&#45;4e61&#45;47d8&#45;bba8&#45;b14661a036c9 -->
<g id="edge3" class="edge"><title>BRD4&#45;&gt;pr_85fe4bd8&#45;4e61&#45;47d8&#45;bba8&#45;b14661a036c9</title>
<path fill="none" stroke="black" d="M466.693,-215.556C462.741,-213.079 458.342,-210.673 454,-209 367.684,-175.732 335.536,-205.691 249,-173 241.737,-170.256 234.404,-166.846 227.273,-163.108"/>
<polygon fill="black" stroke="black" points="228.82,-159.964 218.369,-158.222 225.453,-166.101 228.82,-159.964"/>
</g>
<!-- pr_a6a9499a&#45;63f4&#45;44dc&#45;8f2d&#45;6716346ed917 -->
<g id="node5" class="node"><title>pr_a6a9499a&#45;63f4&#45;44dc&#45;8f2d&#45;6716346ed917</title>
<polygon fill="none" stroke="black" points="708.5,-172 609.5,-172 609.5,-73 708.5,-73 708.5,-172"/>
<text text-anchor="middle" x="659" y="-121.3" font-family="Times,serif" font-size="4.00">pr_a6a9499a&#45;63f4&#45;44dc&#45;8f2d&#45;6716346ed917</text>
</g>
<!-- BRD4&#45;&gt;pr_a6a9499a&#45;63f4&#45;44dc&#45;8f2d&#45;6716346ed917 -->
<g id="edge4" class="edge"><title>BRD4&#45;&gt;pr_a6a9499a&#45;63f4&#45;44dc&#45;8f2d&#45;6716346ed917</title>
<path fill="none" stroke="black" d="M497.902,-220.179C521.665,-211.624 565.861,-194.334 600,-173 600.287,-172.821 600.574,-172.64 600.861,-172.458"/>
<polygon fill="black" stroke="black" points="602.829,-175.353 609.18,-166.872 598.927,-169.541 602.829,-175.353"/>
</g>
<!-- pr_727d1861&#45;3fac&#45;415f&#45;9a38&#45;44c147925d11 -->
<g id="node7" class="node"><title>pr_727d1861&#45;3fac&#45;415f&#45;9a38&#45;44c147925d11</title>
<polygon fill="none" stroke="black" points="591.5,-172 492.5,-172 492.5,-73 591.5,-73 591.5,-172"/>
<text text-anchor="middle" x="542" y="-121.3" font-family="Times,serif" font-size="4.00">pr_727d1861&#45;3fac&#45;415f&#45;9a38&#45;44c147925d11</text>
</g>
<!-- BRD4&#45;&gt;pr_727d1861&#45;3fac&#45;415f&#45;9a38&#45;44c147925d11 -->
<g id="edge5" class="edge"><title>BRD4&#45;&gt;pr_727d1861&#45;3fac&#45;415f&#45;9a38&#45;44c147925d11</title>
<path fill="none" stroke="black" d="M490.001,-210.876C494.865,-202.703 501.213,-192.036 507.795,-180.976"/>
<polygon fill="black" stroke="black" points="510.993,-182.446 513.099,-172.063 504.978,-178.866 510.993,-182.446"/>
</g>
<!-- pr_351d4c28&#45;369f&#45;497e&#45;bd92&#45;2aa21fdf9ad0 -->
<g id="node9" class="node"><title>pr_351d4c28&#45;369f&#45;497e&#45;bd92&#45;2aa21fdf9ad0</title>
<polygon fill="none" stroke="black" points="474,-171.5 376,-171.5 376,-73.5 474,-73.5 474,-171.5"/>
<text text-anchor="middle" x="425" y="-121.3" font-family="Times,serif" font-size="4.00">pr_351d4c28&#45;369f&#45;497e&#45;bd92&#45;2aa21fdf9ad0</text>
</g>
<!-- BRD4&#45;&gt;pr_351d4c28&#45;369f&#45;497e&#45;bd92&#45;2aa21fdf9ad0 -->
<g id="edge6" class="edge"><title>BRD4&#45;&gt;pr_351d4c28&#45;369f&#45;497e&#45;bd92&#45;2aa21fdf9ad0</title>
<path fill="none" stroke="black" d="M469.234,-213.018C463.397,-204.522 456.295,-192.766 449.465,-180.564"/>
<polygon fill="black" stroke="black" points="452.445,-178.72 444.562,-171.641 446.31,-182.09 452.445,-178.72"/>
</g>
<!-- CCNT1 -->
<g id="node4" class="node"><title>CCNT1</title>
<ellipse fill="none" stroke="black" cx="659" cy="-18" rx="18" ry="18"/>
<text text-anchor="middle" x="659" y="-16.8" font-family="Times,serif" font-size="4.00">CCNT1</text>
</g>
<!-- CCNT1&#45;&gt;pr_a6a9499a&#45;63f4&#45;44dc&#45;8f2d&#45;6716346ed917 -->
<g id="edge7" class="edge"><title>CCNT1&#45;&gt;pr_a6a9499a&#45;63f4&#45;44dc&#45;8f2d&#45;6716346ed917</title>
<path fill="none" stroke="black" d="M664.126,-35.5663C664.996,-43.2382 665.517,-52.8638 665.687,-62.8729"/>
<polygon fill="black" stroke="black" points="662.188,-62.9705 665.742,-72.9515 669.188,-62.9328 662.188,-62.9705"/>
</g>
<!-- pr_a6a9499a&#45;63f4&#45;44dc&#45;8f2d&#45;6716346ed917&#45;&gt;CCNT1 -->
<g id="edge8" class="edge"><title>pr_a6a9499a&#45;63f4&#45;44dc&#45;8f2d&#45;6716346ed917&#45;&gt;CCNT1</title>
<path fill="none" stroke="black" d="M652.258,-72.9515C652.201,-63.5971 652.443,-54.1224 652.987,-45.7785"/>
<polygon fill="black" stroke="black" points="656.495,-45.8318 653.874,-35.5663 649.521,-45.2257 656.495,-45.8318"/>
</g>
<!-- histone -->
<g id="node6" class="node"><title>histone</title>
<ellipse fill="none" stroke="black" cx="425" cy="-18" rx="18" ry="18"/>
<text text-anchor="middle" x="425" y="-16.8" font-family="Times,serif" font-size="4.00">histone</text>
</g>
<!-- histone&#45;&gt;pr_727d1861&#45;3fac&#45;415f&#45;9a38&#45;44c147925d11 -->
<g id="edge9" class="edge"><title>histone&#45;&gt;pr_727d1861&#45;3fac&#45;415f&#45;9a38&#45;44c147925d11</title>
<path fill="none" stroke="black" d="M439.976,-28.5086C451.79,-37.453 468.832,-51.6207 485.639,-66.2269"/>
<polygon fill="black" stroke="black" points="483.495,-69.001 493.325,-72.9515 488.104,-63.7327 483.495,-69.001"/>
</g>
<!-- pr_727d1861&#45;3fac&#45;415f&#45;9a38&#45;44c147925d11&#45;&gt;histone -->
<g id="edge10" class="edge"><title>pr_727d1861&#45;3fac&#45;415f&#45;9a38&#45;44c147925d11&#45;&gt;histone</title>
<path fill="none" stroke="black" d="M492.225,-83.624C474.936,-68.8893 456.63,-52.5689 443.415,-40.0155"/>
<polygon fill="black" stroke="black" points="445.517,-37.1789 435.9,-32.7338 440.646,-42.2061 445.517,-37.1789"/>
</g>
<!-- BRD2 -->
<g id="node8" class="node"><title>BRD2</title>
<ellipse fill="none" stroke="black" cx="776" cy="-227" rx="18" ry="18"/>
<text text-anchor="middle" x="776" y="-225.8" font-family="Times,serif" font-size="4.00">BRD2</text>
</g>
<!-- BRD2&#45;&gt;pr_727d1861&#45;3fac&#45;415f&#45;9a38&#45;44c147925d11 -->
<g id="edge11" class="edge"><title>BRD2&#45;&gt;pr_727d1861&#45;3fac&#45;415f&#45;9a38&#45;44c147925d11</title>
<path fill="none" stroke="black" d="M758.328,-223.176C727.118,-217.689 660.569,-203.726 600.834,-172.908"/>
<polygon fill="black" stroke="black" points="602.164,-169.65 591.695,-168.027 598.867,-175.825 602.164,-169.65"/>
</g>
<!-- pr_9bab198f&#45;fdf7&#45;4cda&#45;a225&#45;c68f366ed140 -->
<g id="node17" class="node"><title>pr_9bab198f&#45;fdf7&#45;4cda&#45;a225&#45;c68f366ed140</title>
<polygon fill="none" stroke="black" points="825,-171.5 727,-171.5 727,-73.5 825,-73.5 825,-171.5"/>
<text text-anchor="middle" x="776" y="-121.3" font-family="Times,serif" font-size="4.00">pr_9bab198f&#45;fdf7&#45;4cda&#45;a225&#45;c68f366ed140</text>
</g>
<!-- BRD2&#45;&gt;pr_9bab198f&#45;fdf7&#45;4cda&#45;a225&#45;c68f366ed140 -->
<g id="edge12" class="edge"><title>BRD2&#45;&gt;pr_9bab198f&#45;fdf7&#45;4cda&#45;a225&#45;c68f366ed140</title>
<path fill="none" stroke="black" d="M770.885,-209.532C770.004,-201.807 769.479,-192.086 769.31,-181.983"/>
<polygon fill="black" stroke="black" points="772.809,-181.794 769.26,-171.812 765.809,-181.829 772.809,-181.794"/>
</g>
<!-- pr_c189d523&#45;7423&#45;4b5b&#45;8508&#45;2c1d61e700ae -->
<g id="node20" class="node"><title>pr_c189d523&#45;7423&#45;4b5b&#45;8508&#45;2c1d61e700ae</title>
<polygon fill="none" stroke="black" points="944.5,-173 843.5,-173 843.5,-72 944.5,-72 944.5,-173"/>
<text text-anchor="middle" x="894" y="-121.3" font-family="Times,serif" font-size="4.00">pr_c189d523&#45;7423&#45;4b5b&#45;8508&#45;2c1d61e700ae</text>
</g>
<!-- BRD2&#45;&gt;pr_c189d523&#45;7423&#45;4b5b&#45;8508&#45;2c1d61e700ae -->
<g id="edge13" class="edge"><title>BRD2&#45;&gt;pr_c189d523&#45;7423&#45;4b5b&#45;8508&#45;2c1d61e700ae</title>
<path fill="none" stroke="black" d="M789.536,-214.242C800.98,-204.301 818.215,-189.33 835.404,-174.399"/>
<polygon fill="black" stroke="black" points="838.024,-176.76 843.278,-167.559 833.433,-171.475 838.024,-176.76"/>
</g>
<!-- pr_351d4c28&#45;369f&#45;497e&#45;bd92&#45;2aa21fdf9ad0&#45;&gt;BRD4 -->
<g id="edge14" class="edge"><title>pr_351d4c28&#45;369f&#45;497e&#45;bd92&#45;2aa21fdf9ad0&#45;&gt;BRD4</title>
<path fill="none" stroke="black" d="M458.167,-171.87C463.474,-181.468 468.539,-191.201 472.621,-199.717"/>
<polygon fill="black" stroke="black" points="469.565,-201.448 476.919,-209.074 475.926,-198.526 469.565,-201.448"/>
</g>
<!-- E -->
<g id="node10" class="node"><title>E</title>
<ellipse fill="none" stroke="black" cx="629" cy="-227" rx="18" ry="18"/>
<text text-anchor="middle" x="629" y="-225.8" font-family="Times,serif" font-size="4.00">E</text>
</g>
<!-- E&#45;&gt;pr_351d4c28&#45;369f&#45;497e&#45;bd92&#45;2aa21fdf9ad0 -->
<g id="edge15" class="edge"><title>E&#45;&gt;pr_351d4c28&#45;369f&#45;497e&#45;bd92&#45;2aa21fdf9ad0</title>
<path fill="none" stroke="black" d="M611.486,-221.824C583.158,-214.604 526.109,-198.105 483,-173 482.907,-172.946 482.814,-172.892 482.721,-172.837"/>
<polygon fill="black" stroke="black" points="484.442,-169.784 474.124,-167.377 480.689,-175.693 484.442,-169.784"/>
</g>
<!-- E&#45;&gt;pr_9bab198f&#45;fdf7&#45;4cda&#45;a225&#45;c68f366ed140 -->
<g id="edge16" class="edge"><title>E&#45;&gt;pr_9bab198f&#45;fdf7&#45;4cda&#45;a225&#45;c68f366ed140</title>
<path fill="none" stroke="black" d="M644.724,-217.512C662.698,-207.588 692.761,-190.307 717,-173 717.612,-172.563 718.226,-172.121 718.841,-171.675"/>
<polygon fill="black" stroke="black" points="720.96,-174.461 726.873,-165.67 716.768,-168.855 720.96,-174.461"/>
</g>
<!-- H4C14 -->
<g id="node11" class="node"><title>H4C14</title>
<ellipse fill="none" stroke="black" cx="373" cy="-227" rx="18" ry="18"/>
<text text-anchor="middle" x="373" y="-225.8" font-family="Times,serif" font-size="4.00">H4C14</text>
</g>
<!-- pr_9e70e316&#45;de96&#45;487b&#45;b763&#45;f8fc723bed02 -->
<g id="node12" class="node"><title>pr_9e70e316&#45;de96&#45;487b&#45;b763&#45;f8fc723bed02</title>
<polygon fill="none" stroke="black" points="357.5,-172 258.5,-172 258.5,-73 357.5,-73 357.5,-172"/>
<text text-anchor="middle" x="308" y="-121.3" font-family="Times,serif" font-size="4.00">pr_9e70e316&#45;de96&#45;487b&#45;b763&#45;f8fc723bed02</text>
</g>
<!-- H4C14&#45;&gt;pr_9e70e316&#45;de96&#45;487b&#45;b763&#45;f8fc723bed02 -->
<g id="edge17" class="edge"><title>H4C14&#45;&gt;pr_9e70e316&#45;de96&#45;487b&#45;b763&#45;f8fc723bed02</title>
<path fill="none" stroke="black" d="M363.687,-211.314C358.484,-203.109 351.627,-192.296 344.509,-181.072"/>
<polygon fill="black" stroke="black" points="347.349,-179.015 339.038,-172.445 341.438,-182.764 347.349,-179.015"/>
</g>
<!-- pr_9e70e316&#45;de96&#45;487b&#45;b763&#45;f8fc723bed02&#45;&gt;histone -->
<g id="edge18" class="edge"><title>pr_9e70e316&#45;de96&#45;487b&#45;b763&#45;f8fc723bed02&#45;&gt;histone</title>
<path fill="none" stroke="black" d="M357.619,-78.0308C373.865,-63.7974 391.048,-48.7443 403.995,-37.4015"/>
<polygon fill="black" stroke="black" points="406.624,-39.7516 411.84,-30.5293 402.011,-34.4863 406.624,-39.7516"/>
</g>
<!-- H4&#45;16 -->
<g id="node13" class="node"><title>H4&#45;16</title>
<ellipse fill="none" stroke="black" cx="427" cy="-227" rx="18" ry="18"/>
<text text-anchor="middle" x="427" y="-225.8" font-family="Times,serif" font-size="4.00">H4&#45;16</text>
</g>
<!-- H4&#45;16&#45;&gt;pr_9e70e316&#45;de96&#45;487b&#45;b763&#45;f8fc723bed02 -->
<g id="edge19" class="edge"><title>H4&#45;16&#45;&gt;pr_9e70e316&#45;de96&#45;487b&#45;b763&#45;f8fc723bed02</title>
<path fill="none" stroke="black" d="M413.81,-214.639C401.897,-204.377 383.5,-188.532 365.368,-172.914"/>
<polygon fill="black" stroke="black" points="367.494,-170.126 357.633,-166.251 362.926,-175.43 367.494,-170.126"/>
</g>
<!-- H4C1 -->
<g id="node14" class="node"><title>H4C1</title>
<ellipse fill="none" stroke="black" cx="211" cy="-227" rx="18" ry="18"/>
<text text-anchor="middle" x="211" y="-225.8" font-family="Times,serif" font-size="4.00">H4C1</text>
</g>
<!-- H4C1&#45;&gt;pr_9e70e316&#45;de96&#45;487b&#45;b763&#45;f8fc723bed02 -->
<g id="edge20" class="edge"><title>H4C1&#45;&gt;pr_9e70e316&#45;de96&#45;487b&#45;b763&#45;f8fc723bed02</title>
<path fill="none" stroke="black" d="M222.894,-213.431C231.183,-204.673 242.882,-192.31 254.96,-179.548"/>
<polygon fill="black" stroke="black" points="257.761,-181.68 262.092,-172.011 252.676,-176.869 257.761,-181.68"/>
</g>
<!-- H3C15 -->
<g id="node15" class="node"><title>H3C15</title>
<ellipse fill="none" stroke="black" cx="265" cy="-227" rx="18" ry="18"/>
<text text-anchor="middle" x="265" y="-225.8" font-family="Times,serif" font-size="4.00">H3C15</text>
</g>
<!-- H3C15&#45;&gt;pr_9e70e316&#45;de96&#45;487b&#45;b763&#45;f8fc723bed02 -->
<g id="edge21" class="edge"><title>H3C15&#45;&gt;pr_9e70e316&#45;de96&#45;487b&#45;b763&#45;f8fc723bed02</title>
<path fill="none" stroke="black" d="M271.719,-209.984C275.044,-202.059 279.283,-191.954 283.682,-181.467"/>
<polygon fill="black" stroke="black" points="286.929,-182.774 287.57,-172.198 280.474,-180.066 286.929,-182.774"/>
</g>
<!-- H3C1 -->
<g id="node16" class="node"><title>H3C1</title>
<ellipse fill="none" stroke="black" cx="319" cy="-227" rx="18" ry="18"/>
<text text-anchor="middle" x="319" y="-225.8" font-family="Times,serif" font-size="4.00">H3C1</text>
</g>
<!-- H3C1&#45;&gt;pr_9e70e316&#45;de96&#45;487b&#45;b763&#45;f8fc723bed02 -->
<g id="edge22" class="edge"><title>H3C1&#45;&gt;pr_9e70e316&#45;de96&#45;487b&#45;b763&#45;f8fc723bed02</title>
<path fill="none" stroke="black" d="M317.184,-209.074C316.377,-201.562 315.376,-192.23 314.333,-182.516"/>
<polygon fill="black" stroke="black" points="317.786,-181.885 313.239,-172.316 310.826,-182.632 317.786,-181.885"/>
</g>
<!-- pr_9bab198f&#45;fdf7&#45;4cda&#45;a225&#45;c68f366ed140&#45;&gt;BRD2 -->
<g id="edge23" class="edge"><title>pr_9bab198f&#45;fdf7&#45;4cda&#45;a225&#45;c68f366ed140&#45;&gt;BRD2</title>
<path fill="none" stroke="black" d="M782.74,-171.812C782.804,-181.355 782.556,-191.034 781.994,-199.52"/>
<polygon fill="black" stroke="black" points="778.503,-199.264 781.115,-209.532 785.476,-199.876 778.503,-199.264"/>
</g>
<!-- JQ1 -->
<g id="node18" class="node"><title>JQ1</title>
<ellipse fill="none" stroke="black" cx="830" cy="-227" rx="18" ry="18"/>
<text text-anchor="middle" x="830" y="-225.8" font-family="Times,serif" font-size="4.00">JQ1</text>
</g>
<!-- JQ1&#45;&gt;pr_9bab198f&#45;fdf7&#45;4cda&#45;a225&#45;c68f366ed140 -->
<g id="edge24" class="edge"><title>JQ1&#45;&gt;pr_9bab198f&#45;fdf7&#45;4cda&#45;a225&#45;c68f366ed140</title>
<path fill="none" stroke="black" d="M821.799,-210.432C817.468,-202.213 811.857,-191.563 806.056,-180.55"/>
<polygon fill="black" stroke="black" points="809.141,-178.897 801.383,-171.681 802.947,-182.159 809.141,-178.897"/>
</g>
<!-- TBP -->
<g id="node19" class="node"><title>TBP</title>
<ellipse fill="none" stroke="black" cx="894" cy="-18" rx="18" ry="18"/>
<text text-anchor="middle" x="894" y="-16.8" font-family="Times,serif" font-size="4.00">TBP</text>
</g>
<!-- TBP&#45;&gt;pr_c189d523&#45;7423&#45;4b5b&#45;8508&#45;2c1d61e700ae -->
<g id="edge25" class="edge"><title>TBP&#45;&gt;pr_c189d523&#45;7423&#45;4b5b&#45;8508&#45;2c1d61e700ae</title>
<path fill="none" stroke="black" d="M899.128,-35.5823C899.962,-42.9473 900.475,-52.1105 900.665,-61.6841"/>
<polygon fill="black" stroke="black" points="897.166,-61.7801 900.747,-71.7513 904.166,-61.7231 897.166,-61.7801"/>
</g>
<!-- pr_c189d523&#45;7423&#45;4b5b&#45;8508&#45;2c1d61e700ae&#45;&gt;TBP -->
<g id="edge26" class="edge"><title>pr_c189d523&#45;7423&#45;4b5b&#45;8508&#45;2c1d61e700ae&#45;&gt;TBP</title>
<path fill="none" stroke="black" d="M887.253,-71.7513C887.222,-62.7741 887.467,-53.7354 887.989,-45.7383"/>
<polygon fill="black" stroke="black" points="891.493,-45.8479 888.872,-35.5823 884.519,-45.2415 891.493,-45.8479"/>
</g>
<!-- H4C9 -->
<g id="node21" class="node"><title>H4C9</title>
<ellipse fill="none" stroke="black" cx="23" cy="-227" rx="18" ry="18"/>
<text text-anchor="middle" x="23" y="-225.8" font-family="Times,serif" font-size="4.00">H4C9</text>
</g>
<!-- pr_dd03a23d&#45;7239&#45;48c5&#45;9d7b&#45;e69b8455f8a8 -->
<g id="node22" class="node"><title>pr_dd03a23d&#45;7239&#45;48c5&#45;9d7b&#45;e69b8455f8a8</title>
<polygon fill="none" stroke="black" points="100,-172.5 0,-172.5 0,-72.5 100,-72.5 100,-172.5"/>
<text text-anchor="middle" x="50" y="-121.3" font-family="Times,serif" font-size="4.00">pr_dd03a23d&#45;7239&#45;48c5&#45;9d7b&#45;e69b8455f8a8</text>
</g>
<!-- H4C9&#45;&gt;pr_dd03a23d&#45;7239&#45;48c5&#45;9d7b&#45;e69b8455f8a8 -->
<g id="edge27" class="edge"><title>H4C9&#45;&gt;pr_dd03a23d&#45;7239&#45;48c5&#45;9d7b&#45;e69b8455f8a8</title>
<path fill="none" stroke="black" d="M27.4585,-209.074C29.4356,-201.569 31.8915,-192.245 34.448,-182.54"/>
<polygon fill="black" stroke="black" points="37.8612,-183.323 37.0239,-172.761 31.0921,-181.54 37.8612,-183.323"/>
</g>
<!-- pr_dd03a23d&#45;7239&#45;48c5&#45;9d7b&#45;e69b8455f8a8&#45;&gt;histone -->
<g id="edge28" class="edge"><title>pr_dd03a23d&#45;7239&#45;48c5&#45;9d7b&#45;e69b8455f8a8&#45;&gt;histone</title>
<path fill="none" stroke="black" d="M100.007,-76.7435C102.959,-74.9984 105.965,-73.3999 109,-72 207.708,-26.4771 339.84,-19.5703 396.86,-18.8511"/>
<polygon fill="black" stroke="black" points="396.944,-22.3507 406.919,-18.7804 396.895,-15.3508 396.944,-22.3507"/>
</g>
<!-- H2BC21 -->
<g id="node23" class="node"><title>H2BC21</title>
<ellipse fill="none" stroke="black" cx="77" cy="-227" rx="18" ry="18"/>
<text text-anchor="middle" x="77" y="-225.8" font-family="Times,serif" font-size="4.00">H2BC21</text>
</g>
<!-- H2BC21&#45;&gt;pr_dd03a23d&#45;7239&#45;48c5&#45;9d7b&#45;e69b8455f8a8 -->
<g id="edge29" class="edge"><title>H2BC21&#45;&gt;pr_dd03a23d&#45;7239&#45;48c5&#45;9d7b&#45;e69b8455f8a8</title>
<path fill="none" stroke="black" d="M72.5415,-209.074C70.5644,-201.569 68.1085,-192.245 65.552,-182.54"/>
<polygon fill="black" stroke="black" points="68.9079,-181.54 62.9761,-172.761 62.1388,-183.323 68.9079,-181.54"/>
</g>
</g>
</svg>
