<?xml version="1.0" encoding="UTF-8" standalone="no"?>
<!DOCTYPE svg PUBLIC "-//W3C//DTD SVG 1.1//EN"
 "http://www.w3.org/Graphics/SVG/1.1/DTD/svg11.dtd">
<!-- Generated by graphviz version 2.38.0 (20140413.2041)
 -->
<!-- Title: G Pages: 1 -->
<svg width="953pt" height="253pt"
 viewBox="0.00 0.00 952.50 253.00" xmlns="http://www.w3.org/2000/svg" xmlns:xlink="http://www.w3.org/1999/xlink">
<g id="graph0" class="graph" transform="scale(1 1) rotate(0) translate(4 249)">
<title>G</title>
<polygon fill="white" stroke="none" points="-4,4 -4,-249 948.5,-249 948.5,4 -4,4"/>
<!-- CDK9 -->
<g id="node1" class="node"><title>CDK9</title>
<ellipse fill="none" stroke="black" cx="155.5" cy="-227" rx="18" ry="18"/>
<text text-anchor="middle" x="155.5" y="-225.8" font-family="Times,serif" font-size="4.00">CDK9</text>
</g>
<!-- pr_402552b6&#45;9a46&#45;4582&#45;bc4f&#45;4553ddf55cdb -->
<g id="node2" class="node"><title>pr_402552b6&#45;9a46&#45;4582&#45;bc4f&#45;4553ddf55cdb</title>
<polygon fill="none" stroke="black" points="216,-172 117,-172 117,-73 216,-73 216,-172"/>
<text text-anchor="middle" x="166.5" y="-121.3" font-family="Times,serif" font-size="4.00">pr_402552b6&#45;9a46&#45;4582&#45;bc4f&#45;4553ddf55cdb</text>
</g>
<!-- CDK9&#45;&gt;pr_402552b6&#45;9a46&#45;4582&#45;bc4f&#45;4553ddf55cdb -->
<g id="edge1" class="edge"><title>CDK9&#45;&gt;pr_402552b6&#45;9a46&#45;4582&#45;bc4f&#45;4553ddf55cdb</title>
<path fill="none" stroke="black" d="M152.15,-209.074C152.121,-201.562 152.618,-192.23 153.486,-182.516"/>
<polygon fill="black" stroke="black" points="156.993,-182.617 154.518,-172.316 150.029,-181.912 156.993,-182.617"/>
</g>
<!-- pr_402552b6&#45;9a46&#45;4582&#45;bc4f&#45;4553ddf55cdb&#45;&gt;CDK9 -->
<g id="edge2" class="edge"><title>pr_402552b6&#45;9a46&#45;4582&#45;bc4f&#45;4553ddf55cdb&#45;&gt;CDK9</title>
<path fill="none" stroke="black" d="M168.016,-172.198C167.043,-181.795 165.74,-191.511 164.253,-199.996"/>
<polygon fill="black" stroke="black" points="160.784,-199.496 162.281,-209.984 167.651,-200.851 160.784,-199.496"/>
</g>
<!-- BRD4 -->
<g id="node3" class="node"><title>BRD4</title>
<ellipse fill="none" stroke="black" cx="479.5" cy="-227" rx="18" ry="18"/>
<text text-anchor="middle" x="479.5" y="-225.8" font-family="Times,serif" font-size="4.00">BRD4</text>
</g>
<!-- BRD4&#45;&gt;pr_402552b6&#45;9a46&#45;4582&#45;bc4f&#45;4553ddf55cdb -->
<g id="edge3" class="edge"><title>BRD4&#45;&gt;pr_402552b6&#45;9a46&#45;4582&#45;bc4f&#45;4553ddf55cdb</title>
<path fill="none" stroke="black" d="M465.193,-215.556C461.241,-213.079 456.842,-210.673 452.5,-209 366.184,-175.732 334.036,-205.691 247.5,-173 240.129,-170.215 232.685,-166.744 225.454,-162.94"/>
<polygon fill="black" stroke="black" points="226.877,-159.728 216.429,-157.97 223.5,-165.86 226.877,-159.728"/>
</g>
<!-- pr_53068cd3&#45;4a87&#45;48d7&#45;9ed1&#45;b47f48724e89 -->
<g id="node5" class="node"><title>pr_53068cd3&#45;4a87&#45;48d7&#45;9ed1&#45;b47f48724e89</title>
<polygon fill="none" stroke="black" points="710.5,-172.5 610.5,-172.5 610.5,-72.5 710.5,-72.5 710.5,-172.5"/>
<text text-anchor="middle" x="660.5" y="-121.3" font-family="Times,serif" font-size="4.00">pr_53068cd3&#45;4a87&#45;48d7&#45;9ed1&#45;b47f48724e89</text>
</g>
<!-- BRD4&#45;&gt;pr_53068cd3&#45;4a87&#45;48d7&#45;9ed1&#45;b47f48724e89 -->
<g id="edge4" class="edge"><title>BRD4&#45;&gt;pr_53068cd3&#45;4a87&#45;48d7&#45;9ed1&#45;b47f48724e89</title>
<path fill="none" stroke="black" d="M496.431,-220.402C520.706,-211.993 566.345,-194.745 601.5,-173 601.592,-172.943 601.685,-172.886 601.777,-172.828"/>
<polygon fill="black" stroke="black" points="603.956,-175.583 610.361,-167.144 600.091,-169.747 603.956,-175.583"/>
</g>
<!-- pr_9d7563ed&#45;b8d9&#45;4fa2&#45;8c85&#45;c3d56dc41625 -->
<g id="node7" class="node"><title>pr_9d7563ed&#45;b8d9&#45;4fa2&#45;8c85&#45;c3d56dc41625</title>
<polygon fill="none" stroke="black" points="592.5,-172.5 492.5,-172.5 492.5,-72.5 592.5,-72.5 592.5,-172.5"/>
<text text-anchor="middle" x="542.5" y="-121.3" font-family="Times,serif" font-size="4.00">pr_9d7563ed&#45;b8d9&#45;4fa2&#45;8c85&#45;c3d56dc41625</text>
</g>
<!-- BRD4&#45;&gt;pr_9d7563ed&#45;b8d9&#45;4fa2&#45;8c85&#45;c3d56dc41625 -->
<g id="edge5" class="edge"><title>BRD4&#45;&gt;pr_9d7563ed&#45;b8d9&#45;4fa2&#45;8c85&#45;c3d56dc41625</title>
<path fill="none" stroke="black" d="M488.526,-211.314C493.515,-203.198 500.073,-192.528 506.892,-181.433"/>
<polygon fill="black" stroke="black" points="509.881,-183.254 512.136,-172.902 503.918,-179.588 509.881,-183.254"/>
</g>
<!-- pr_374ac877&#45;e9cd&#45;4d00&#45;a90d&#45;b21814c09adb -->
<g id="node9" class="node"><title>pr_374ac877&#45;e9cd&#45;4d00&#45;a90d&#45;b21814c09adb</title>
<polygon fill="none" stroke="black" points="474,-173 373,-173 373,-72 474,-72 474,-173"/>
<text text-anchor="middle" x="423.5" y="-121.3" font-family="Times,serif" font-size="4.00">pr_374ac877&#45;e9cd&#45;4d00&#45;a90d&#45;b21814c09adb</text>
</g>
<!-- BRD4&#45;&gt;pr_374ac877&#45;e9cd&#45;4d00&#45;a90d&#45;b21814c09adb -->
<g id="edge6" class="edge"><title>BRD4&#45;&gt;pr_374ac877&#45;e9cd&#45;4d00&#45;a90d&#45;b21814c09adb</title>
<path fill="none" stroke="black" d="M467.734,-213.018C462.131,-204.862 455.361,-193.702 448.786,-182.027"/>
<polygon fill="black" stroke="black" points="451.72,-180.099 443.819,-173.04 445.594,-183.485 451.72,-180.099"/>
</g>
<!-- CCNT1 -->
<g id="node4" class="node"><title>CCNT1</title>
<ellipse fill="none" stroke="black" cx="660.5" cy="-18" rx="18" ry="18"/>
<text text-anchor="middle" x="660.5" y="-16.8" font-family="Times,serif" font-size="4.00">CCNT1</text>
</g>
<!-- CCNT1&#45;&gt;pr_53068cd3&#45;4a87&#45;48d7&#45;9ed1&#45;b47f48724e89 -->
<g id="edge7" class="edge"><title>CCNT1&#45;&gt;pr_53068cd3&#45;4a87&#45;48d7&#45;9ed1&#45;b47f48724e89</title>
<path fill="none" stroke="black" d="M665.6,-35.3424C666.462,-42.8395 666.986,-52.2359 667.172,-62.0439"/>
<polygon fill="black" stroke="black" points="663.675,-62.3764 667.245,-72.3515 670.674,-62.3271 663.675,-62.3764"/>
</g>
<!-- pr_53068cd3&#45;4a87&#45;48d7&#45;9ed1&#45;b47f48724e89&#45;&gt;CCNT1 -->
<g id="edge8" class="edge"><title>pr_53068cd3&#45;4a87&#45;48d7&#45;9ed1&#45;b47f48724e89&#45;&gt;CCNT1</title>
<path fill="none" stroke="black" d="M653.755,-72.3515C653.71,-63.0632 653.962,-53.6826 654.509,-45.433"/>
<polygon fill="black" stroke="black" points="658.007,-45.6113 655.4,-35.3424 651.034,-44.996 658.007,-45.6113"/>
</g>
<!-- histone -->
<g id="node6" class="node"><title>histone</title>
<ellipse fill="none" stroke="black" cx="423.5" cy="-18" rx="18" ry="18"/>
<text text-anchor="middle" x="423.5" y="-16.8" font-family="Times,serif" font-size="4.00">histone</text>
</g>
<!-- histone&#45;&gt;pr_9d7563ed&#45;b8d9&#45;4fa2&#45;8c85&#45;c3d56dc41625 -->
<g id="edge9" class="edge"><title>histone&#45;&gt;pr_9d7563ed&#45;b8d9&#45;4fa2&#45;8c85&#45;c3d56dc41625</title>
<path fill="none" stroke="black" d="M438.483,-28.3757C450.329,-37.201 467.451,-51.1945 484.419,-65.6788"/>
<polygon fill="black" stroke="black" points="482.319,-68.489 492.185,-72.3515 486.881,-63.1797 482.319,-68.489"/>
</g>
<!-- pr_9d7563ed&#45;b8d9&#45;4fa2&#45;8c85&#45;c3d56dc41625&#45;&gt;histone -->
<g id="edge10" class="edge"><title>pr_9d7563ed&#45;b8d9&#45;4fa2&#45;8c85&#45;c3d56dc41625&#45;&gt;histone</title>
<path fill="none" stroke="black" d="M492.332,-83.9148C474.432,-68.9176 455.399,-52.2362 441.815,-39.5392"/>
<polygon fill="black" stroke="black" points="444.151,-36.9303 434.497,-32.5666 439.323,-41.9985 444.151,-36.9303"/>
</g>
<!-- BRD2 -->
<g id="node8" class="node"><title>BRD2</title>
<ellipse fill="none" stroke="black" cx="777.5" cy="-227" rx="18" ry="18"/>
<text text-anchor="middle" x="777.5" y="-225.8" font-family="Times,serif" font-size="4.00">BRD2</text>
</g>
<!-- BRD2&#45;&gt;pr_9d7563ed&#45;b8d9&#45;4fa2&#45;8c85&#45;c3d56dc41625 -->
<g id="edge11" class="edge"><title>BRD2&#45;&gt;pr_9d7563ed&#45;b8d9&#45;4fa2&#45;8c85&#45;c3d56dc41625</title>
<path fill="none" stroke="black" d="M759.852,-223.133C727.078,-217.293 655.266,-202.044 601.5,-173 601.408,-172.95 601.316,-172.901 601.224,-172.851"/>
<polygon fill="black" stroke="black" points="603.12,-169.906 592.738,-167.795 599.538,-175.92 603.12,-169.906"/>
</g>
<!-- pr_f06fde02&#45;8c25&#45;40e8&#45;9c7c&#45;f504c0efe0cf -->
<g id="node17" class="node"><title>pr_f06fde02&#45;8c25&#45;40e8&#45;9c7c&#45;f504c0efe0cf</title>
<polygon fill="none" stroke="black" points="826,-171 729,-171 729,-74 826,-74 826,-171"/>
<text text-anchor="middle" x="777.5" y="-121.3" font-family="Times,serif" font-size="4.00">pr_f06fde02&#45;8c25&#45;40e8&#45;9c7c&#45;f504c0efe0cf</text>
</g>
<!-- BRD2&#45;&gt;pr_f06fde02&#45;8c25&#45;40e8&#45;9c7c&#45;f504c0efe0cf -->
<g id="edge12" class="edge"><title>BRD2&#45;&gt;pr_f06fde02&#45;8c25&#45;40e8&#45;9c7c&#45;f504c0efe0cf</title>
<path fill="none" stroke="black" d="M772.385,-209.532C771.494,-201.722 770.968,-191.872 770.805,-181.65"/>
<polygon fill="black" stroke="black" points="774.304,-181.35 770.763,-171.365 767.304,-181.379 774.304,-181.35"/>
</g>
<!-- pr_b023922b&#45;e009&#45;4ce3&#45;af00&#45;ab8e9d0c5723 -->
<g id="node20" class="node"><title>pr_b023922b&#45;e009&#45;4ce3&#45;af00&#45;ab8e9d0c5723</title>
<polygon fill="none" stroke="black" points="944.5,-172.5 844.5,-172.5 844.5,-72.5 944.5,-72.5 944.5,-172.5"/>
<text text-anchor="middle" x="894.5" y="-121.3" font-family="Times,serif" font-size="4.00">pr_b023922b&#45;e009&#45;4ce3&#45;af00&#45;ab8e9d0c5723</text>
</g>
<!-- BRD2&#45;&gt;pr_b023922b&#45;e009&#45;4ce3&#45;af00&#45;ab8e9d0c5723 -->
<g id="edge13" class="edge"><title>BRD2&#45;&gt;pr_b023922b&#45;e009&#45;4ce3&#45;af00&#45;ab8e9d0c5723</title>
<path fill="none" stroke="black" d="M790.921,-214.242C802.321,-204.255 819.514,-189.193 836.636,-174.193"/>
<polygon fill="black" stroke="black" points="839.26,-176.547 844.476,-167.325 834.648,-171.282 839.26,-176.547"/>
</g>
<!-- pr_374ac877&#45;e9cd&#45;4d00&#45;a90d&#45;b21814c09adb&#45;&gt;BRD4 -->
<g id="edge14" class="edge"><title>pr_374ac877&#45;e9cd&#45;4d00&#45;a90d&#45;b21814c09adb&#45;&gt;BRD4</title>
<path fill="none" stroke="black" d="M457.404,-173.207C462.455,-182.393 467.253,-191.645 471.152,-199.782"/>
<polygon fill="black" stroke="black" points="468.065,-201.447 475.419,-209.074 474.427,-198.526 468.065,-201.447"/>
</g>
<!-- E -->
<g id="node10" class="node"><title>E</title>
<ellipse fill="none" stroke="black" cx="628.5" cy="-227" rx="18" ry="18"/>
<text text-anchor="middle" x="628.5" y="-225.8" font-family="Times,serif" font-size="4.00">E</text>
</g>
<!-- E&#45;&gt;pr_374ac877&#45;e9cd&#45;4d00&#45;a90d&#45;b21814c09adb -->
<g id="edge15" class="edge"><title>E&#45;&gt;pr_374ac877&#45;e9cd&#45;4d00&#45;a90d&#45;b21814c09adb</title>
<path fill="none" stroke="black" d="M611.156,-221.718C583.091,-214.347 526.528,-197.643 483.5,-173 483.203,-172.83 482.907,-172.659 482.61,-172.486"/>
<polygon fill="black" stroke="black" points="484.375,-169.461 474.043,-167.114 480.656,-175.392 484.375,-169.461"/>
</g>
<!-- E&#45;&gt;pr_f06fde02&#45;8c25&#45;40e8&#45;9c7c&#45;f504c0efe0cf -->
<g id="edge16" class="edge"><title>E&#45;&gt;pr_f06fde02&#45;8c25&#45;40e8&#45;9c7c&#45;f504c0efe0cf</title>
<path fill="none" stroke="black" d="M644.154,-217.991C662.712,-208.248 694.298,-190.876 719.5,-173 719.891,-172.722 720.283,-172.443 720.676,-172.161"/>
<polygon fill="black" stroke="black" points="723.02,-174.779 728.95,-165.999 718.839,-169.165 723.02,-174.779"/>
</g>
<!-- H4C14 -->
<g id="node11" class="node"><title>H4C14</title>
<ellipse fill="none" stroke="black" cx="371.5" cy="-227" rx="18" ry="18"/>
<text text-anchor="middle" x="371.5" y="-225.8" font-family="Times,serif" font-size="4.00">H4C14</text>
</g>
<!-- pr_1fae190b&#45;8438&#45;410d&#45;96fe&#45;4914f91f2e3d -->
<g id="node12" class="node"><title>pr_1fae190b&#45;8438&#45;410d&#45;96fe&#45;4914f91f2e3d</title>
<polygon fill="none" stroke="black" points="354.5,-171.5 256.5,-171.5 256.5,-73.5 354.5,-73.5 354.5,-171.5"/>
<text text-anchor="middle" x="305.5" y="-121.3" font-family="Times,serif" font-size="4.00">pr_1fae190b&#45;8438&#45;410d&#45;96fe&#45;4914f91f2e3d</text>
</g>
<!-- H4C14&#45;&gt;pr_1fae190b&#45;8438&#45;410d&#45;96fe&#45;4914f91f2e3d -->
<g id="edge17" class="edge"><title>H4C14&#45;&gt;pr_1fae190b&#45;8438&#45;410d&#45;96fe&#45;4914f91f2e3d</title>
<path fill="none" stroke="black" d="M362.044,-211.314C356.594,-202.851 349.357,-191.612 341.886,-180.009"/>
<polygon fill="black" stroke="black" points="344.784,-178.044 336.427,-171.531 338.898,-181.833 344.784,-178.044"/>
</g>
<!-- pr_1fae190b&#45;8438&#45;410d&#45;96fe&#45;4914f91f2e3d&#45;&gt;histone -->
<g id="edge18" class="edge"><title>pr_1fae190b&#45;8438&#45;410d&#45;96fe&#45;4914f91f2e3d&#45;&gt;histone</title>
<path fill="none" stroke="black" d="M354.517,-78.9212C371.298,-64.3453 389.187,-48.8056 402.543,-37.2045"/>
<polygon fill="black" stroke="black" points="404.968,-39.7342 410.222,-30.534 400.377,-34.4495 404.968,-39.7342"/>
</g>
<!-- H4&#45;16 -->
<g id="node13" class="node"><title>H4&#45;16</title>
<ellipse fill="none" stroke="black" cx="425.5" cy="-227" rx="18" ry="18"/>
<text text-anchor="middle" x="425.5" y="-225.8" font-family="Times,serif" font-size="4.00">H4&#45;16</text>
</g>
<!-- H4&#45;16&#45;&gt;pr_1fae190b&#45;8438&#45;410d&#45;96fe&#45;4914f91f2e3d -->
<g id="edge19" class="edge"><title>H4&#45;16&#45;&gt;pr_1fae190b&#45;8438&#45;410d&#45;96fe&#45;4914f91f2e3d</title>
<path fill="none" stroke="black" d="M412.199,-214.639C400.025,-204.24 381.139,-188.108 362.619,-172.289"/>
<polygon fill="black" stroke="black" points="364.602,-169.38 354.725,-165.547 360.056,-174.703 364.602,-169.38"/>
</g>
<!-- H4C1 -->
<g id="node14" class="node"><title>H4C1</title>
<ellipse fill="none" stroke="black" cx="209.5" cy="-227" rx="18" ry="18"/>
<text text-anchor="middle" x="209.5" y="-225.8" font-family="Times,serif" font-size="4.00">H4C1</text>
</g>
<!-- H4C1&#45;&gt;pr_1fae190b&#45;8438&#45;410d&#45;96fe&#45;4914f91f2e3d -->
<g id="edge20" class="edge"><title>H4C1&#45;&gt;pr_1fae190b&#45;8438&#45;410d&#45;96fe&#45;4914f91f2e3d</title>
<path fill="none" stroke="black" d="M221.658,-213.018C229.925,-204.192 241.487,-191.848 253.388,-179.141"/>
<polygon fill="black" stroke="black" points="256.131,-181.332 260.412,-171.641 251.022,-176.547 256.131,-181.332"/>
</g>
<!-- H3C15 -->
<g id="node15" class="node"><title>H3C15</title>
<ellipse fill="none" stroke="black" cx="263.5" cy="-227" rx="18" ry="18"/>
<text text-anchor="middle" x="263.5" y="-225.8" font-family="Times,serif" font-size="4.00">H3C15</text>
</g>
<!-- H3C15&#45;&gt;pr_1fae190b&#45;8438&#45;410d&#45;96fe&#45;4914f91f2e3d -->
<g id="edge21" class="edge"><title>H3C15&#45;&gt;pr_1fae190b&#45;8438&#45;410d&#45;96fe&#45;4914f91f2e3d</title>
<path fill="none" stroke="black" d="M270.062,-209.984C273.346,-201.971 277.542,-191.731 281.889,-181.121"/>
<polygon fill="black" stroke="black" points="285.177,-182.329 285.73,-171.749 278.7,-179.675 285.177,-182.329"/>
</g>
<!-- H3C1 -->
<g id="node16" class="node"><title>H3C1</title>
<ellipse fill="none" stroke="black" cx="317.5" cy="-227" rx="18" ry="18"/>
<text text-anchor="middle" x="317.5" y="-225.8" font-family="Times,serif" font-size="4.00">H3C1</text>
</g>
<!-- H3C1&#45;&gt;pr_1fae190b&#45;8438&#45;410d&#45;96fe&#45;4914f91f2e3d -->
<g id="edge22" class="edge"><title>H3C1&#45;&gt;pr_1fae190b&#45;8438&#45;410d&#45;96fe&#45;4914f91f2e3d</title>
<path fill="none" stroke="black" d="M315.518,-209.074C314.62,-201.398 313.498,-191.82 312.334,-181.878"/>
<polygon fill="black" stroke="black" points="315.802,-181.396 311.163,-171.87 308.849,-182.21 315.802,-181.396"/>
</g>
<!-- pr_f06fde02&#45;8c25&#45;40e8&#45;9c7c&#45;f504c0efe0cf&#45;&gt;BRD2 -->
<g id="edge23" class="edge"><title>pr_f06fde02&#45;8c25&#45;40e8&#45;9c7c&#45;f504c0efe0cf&#45;&gt;BRD2</title>
<path fill="none" stroke="black" d="M784.237,-171.365C784.312,-181.008 784.067,-190.812 783.502,-199.402"/>
<polygon fill="black" stroke="black" points="780,-199.264 782.615,-209.532 786.974,-199.875 780,-199.264"/>
</g>
<!-- JQ1 -->
<g id="node18" class="node"><title>JQ1</title>
<ellipse fill="none" stroke="black" cx="831.5" cy="-227" rx="18" ry="18"/>
<text text-anchor="middle" x="831.5" y="-225.8" font-family="Times,serif" font-size="4.00">JQ1</text>
</g>
<!-- JQ1&#45;&gt;pr_f06fde02&#45;8c25&#45;40e8&#45;9c7c&#45;f504c0efe0cf -->
<g id="edge24" class="edge"><title>JQ1&#45;&gt;pr_f06fde02&#45;8c25&#45;40e8&#45;9c7c&#45;f504c0efe0cf</title>
<path fill="none" stroke="black" d="M823.299,-210.432C818.922,-202.125 813.237,-191.333 807.369,-180.195"/>
<polygon fill="black" stroke="black" points="810.403,-178.445 802.645,-171.229 804.209,-181.707 810.403,-178.445"/>
</g>
<!-- TBP -->
<g id="node19" class="node"><title>TBP</title>
<ellipse fill="none" stroke="black" cx="894.5" cy="-18" rx="18" ry="18"/>
<text text-anchor="middle" x="894.5" y="-16.8" font-family="Times,serif" font-size="4.00">TBP</text>
</g>
<!-- TBP&#45;&gt;pr_b023922b&#45;e009&#45;4ce3&#45;af00&#45;ab8e9d0c5723 -->
<g id="edge25" class="edge"><title>TBP&#45;&gt;pr_b023922b&#45;e009&#45;4ce3&#45;af00&#45;ab8e9d0c5723</title>
<path fill="none" stroke="black" d="M899.6,-35.3424C900.462,-42.8395 900.986,-52.2359 901.172,-62.0439"/>
<polygon fill="black" stroke="black" points="897.675,-62.3764 901.245,-72.3515 904.674,-62.3271 897.675,-62.3764"/>
</g>
<!-- pr_b023922b&#45;e009&#45;4ce3&#45;af00&#45;ab8e9d0c5723&#45;&gt;TBP -->
<g id="edge26" class="edge"><title>pr_b023922b&#45;e009&#45;4ce3&#45;af00&#45;ab8e9d0c5723&#45;&gt;TBP</title>
<path fill="none" stroke="black" d="M887.755,-72.3515C887.71,-63.0632 887.962,-53.6826 888.509,-45.433"/>
<polygon fill="black" stroke="black" points="892.007,-45.6113 889.4,-35.3424 885.034,-44.996 892.007,-45.6113"/>
</g>
<!-- H4C9 -->
<g id="node21" class="node"><title>H4C9</title>
<ellipse fill="none" stroke="black" cx="22.5" cy="-227" rx="18" ry="18"/>
<text text-anchor="middle" x="22.5" y="-225.8" font-family="Times,serif" font-size="4.00">H4C9</text>
</g>
<!-- pr_3ab2618f&#45;748f&#45;4ec9&#45;a1c0&#45;e4557108a5b9 -->
<g id="node22" class="node"><title>pr_3ab2618f&#45;748f&#45;4ec9&#45;a1c0&#45;e4557108a5b9</title>
<polygon fill="none" stroke="black" points="99,-172 0,-172 0,-73 99,-73 99,-172"/>
<text text-anchor="middle" x="49.5" y="-121.3" font-family="Times,serif" font-size="4.00">pr_3ab2618f&#45;748f&#45;4ec9&#45;a1c0&#45;e4557108a5b9</text>
</g>
<!-- H4C9&#45;&gt;pr_3ab2618f&#45;748f&#45;4ec9&#45;a1c0&#45;e4557108a5b9 -->
<g id="edge27" class="edge"><title>H4C9&#45;&gt;pr_3ab2618f&#45;748f&#45;4ec9&#45;a1c0&#45;e4557108a5b9</title>
<path fill="none" stroke="black" d="M26.9585,-209.074C28.9581,-201.483 31.4474,-192.033 34.0352,-182.209"/>
<polygon fill="black" stroke="black" points="37.4785,-182.877 36.6412,-172.316 30.7094,-181.094 37.4785,-182.877"/>
</g>
<!-- pr_3ab2618f&#45;748f&#45;4ec9&#45;a1c0&#45;e4557108a5b9&#45;&gt;histone -->
<g id="edge28" class="edge"><title>pr_3ab2618f&#45;748f&#45;4ec9&#45;a1c0&#45;e4557108a5b9&#45;&gt;histone</title>
<path fill="none" stroke="black" d="M99.3219,-76.3247C102.009,-74.7419 104.741,-73.2868 107.5,-72 206.015,-26.0615 338.249,-19.3736 395.327,-18.7812"/>
<polygon fill="black" stroke="black" points="395.414,-22.2809 405.398,-18.7338 395.381,-15.281 395.414,-22.2809"/>
</g>
<!-- H2BC21 -->
<g id="node23" class="node"><title>H2BC21</title>
<ellipse fill="none" stroke="black" cx="76.5" cy="-227" rx="18" ry="18"/>
<text text-anchor="middle" x="76.5" y="-225.8" font-family="Times,serif" font-size="4.00">H2BC21</text>
</g>
<!-- H2BC21&#45;&gt;pr_3ab2618f&#45;748f&#45;4ec9&#45;a1c0&#45;e4557108a5b9 -->
<g id="edge29" class="edge"><title>H2BC21&#45;&gt;pr_3ab2618f&#45;748f&#45;4ec9&#45;a1c0&#45;e4557108a5b9</title>
<path fill="none" stroke="black" d="M72.0415,-209.074C70.0419,-201.483 67.5526,-192.033 64.9648,-182.209"/>
<polygon fill="black" stroke="black" points="68.2906,-181.094 62.3588,-172.316 61.5215,-182.877 68.2906,-181.094"/>
</g>
</g>
</svg>
