<?xml version="1.0" encoding="UTF-8" standalone="no"?>
<!DOCTYPE svg PUBLIC "-//W3C//DTD SVG 1.1//EN"
 "http://www.w3.org/Graphics/SVG/1.1/DTD/svg11.dtd">
<!-- Generated by graphviz version 2.38.0 (20140413.2041)
 -->
<!-- Title: G Pages: 1 -->
<svg width="950pt" height="252pt"
 viewBox="0.00 0.00 950.00 252.00" xmlns="http://www.w3.org/2000/svg" xmlns:xlink="http://www.w3.org/1999/xlink">
<g id="graph0" class="graph" transform="scale(1 1) rotate(0) translate(4 248)">
<title>G</title>
<polygon fill="white" stroke="none" points="-4,4 -4,-248 946,-248 946,4 -4,4"/>
<!-- CDK9 -->
<g id="node1" class="node"><title>CDK9</title>
<ellipse fill="none" stroke="black" cx="157" cy="-226" rx="18" ry="18"/>
<text text-anchor="middle" x="157" y="-224.8" font-family="Times,serif" font-size="4.00">CDK9</text>
</g>
<!-- pr_e983e931&#45;bdd7&#45;4cd0&#45;b015&#45;2a3f0ac838bd -->
<g id="node2" class="node"><title>pr_e983e931&#45;bdd7&#45;4cd0&#45;b015&#45;2a3f0ac838bd</title>
<polygon fill="none" stroke="black" points="218,-172 118,-172 118,-72 218,-72 218,-172"/>
<text text-anchor="middle" x="168" y="-120.8" font-family="Times,serif" font-size="4.00">pr_e983e931&#45;bdd7&#45;4cd0&#45;b015&#45;2a3f0ac838bd</text>
</g>
<!-- CDK9&#45;&gt;pr_e983e931&#45;bdd7&#45;4cd0&#45;b015&#45;2a3f0ac838bd -->
<g id="edge1" class="edge"><title>CDK9&#45;&gt;pr_e983e931&#45;bdd7&#45;4cd0&#45;b015&#45;2a3f0ac838bd</title>
<path fill="none" stroke="black" d="M153.65,-208.157C153.622,-200.766 154.107,-191.603 154.957,-182.054"/>
<polygon fill="black" stroke="black" points="158.448,-182.321 155.968,-172.021 151.483,-181.619 158.448,-182.321"/>
</g>
<!-- pr_e983e931&#45;bdd7&#45;4cd0&#45;b015&#45;2a3f0ac838bd&#45;&gt;CDK9 -->
<g id="edge2" class="edge"><title>pr_e983e931&#45;bdd7&#45;4cd0&#45;b015&#45;2a3f0ac838bd&#45;&gt;CDK9</title>
<path fill="none" stroke="black" d="M169.424,-172.357C168.462,-181.599 167.197,-190.913 165.76,-199.083"/>
<polygon fill="black" stroke="black" points="162.293,-198.573 163.781,-209.062 169.159,-199.934 162.293,-198.573"/>
</g>
<!-- BRD4 -->
<g id="node3" class="node"><title>BRD4</title>
<ellipse fill="none" stroke="black" cx="481" cy="-226" rx="18" ry="18"/>
<text text-anchor="middle" x="481" y="-224.8" font-family="Times,serif" font-size="4.00">BRD4</text>
</g>
<!-- BRD4&#45;&gt;pr_e983e931&#45;bdd7&#45;4cd0&#45;b015&#45;2a3f0ac838bd -->
<g id="edge3" class="edge"><title>BRD4&#45;&gt;pr_e983e931&#45;bdd7&#45;4cd0&#45;b015&#45;2a3f0ac838bd</title>
<path fill="none" stroke="black" d="M466.693,-214.556C462.741,-212.079 458.342,-209.673 454,-208 367.684,-174.732 335.61,-204.495 249,-172 241.751,-169.28 234.427,-165.902 227.301,-162.2"/>
<polygon fill="black" stroke="black" points="228.858,-159.063 218.401,-157.363 225.515,-165.213 228.858,-159.063"/>
</g>
<!-- pr_7305a16f&#45;bcac&#45;4bd1&#45;bd50&#45;ebf24f0a0bc7 -->
<g id="node5" class="node"><title>pr_7305a16f&#45;bcac&#45;4bd1&#45;bd50&#45;ebf24f0a0bc7</title>
<polygon fill="none" stroke="black" points="710,-171 612,-171 612,-73 710,-73 710,-171"/>
<text text-anchor="middle" x="661" y="-120.8" font-family="Times,serif" font-size="4.00">pr_7305a16f&#45;bcac&#45;4bd1&#45;bd50&#45;ebf24f0a0bc7</text>
</g>
<!-- BRD4&#45;&gt;pr_7305a16f&#45;bcac&#45;4bd1&#45;bd50&#45;ebf24f0a0bc7 -->
<g id="edge4" class="edge"><title>BRD4&#45;&gt;pr_7305a16f&#45;bcac&#45;4bd1&#45;bd50&#45;ebf24f0a0bc7</title>
<path fill="none" stroke="black" d="M497.941,-219.418C522.228,-211.029 567.883,-193.805 603,-172 603.091,-171.944 603.182,-171.887 603.273,-171.83"/>
<polygon fill="black" stroke="black" points="605.336,-174.661 611.724,-166.208 601.459,-168.833 605.336,-174.661"/>
</g>
<!-- pr_a30d4d04&#45;e6a1&#45;4650&#45;80f4&#45;a59e6c681c66 -->
<g id="node7" class="node"><title>pr_a30d4d04&#45;e6a1&#45;4650&#45;80f4&#45;a59e6c681c66</title>
<polygon fill="none" stroke="black" points="594,-172 494,-172 494,-72 594,-72 594,-172"/>
<text text-anchor="middle" x="544" y="-120.8" font-family="Times,serif" font-size="4.00">pr_a30d4d04&#45;e6a1&#45;4650&#45;80f4&#45;a59e6c681c66</text>
</g>
<!-- BRD4&#45;&gt;pr_a30d4d04&#45;e6a1&#45;4650&#45;80f4&#45;a59e6c681c66 -->
<g id="edge5" class="edge"><title>BRD4&#45;&gt;pr_a30d4d04&#45;e6a1&#45;4650&#45;80f4&#45;a59e6c681c66</title>
<path fill="none" stroke="black" d="M490.026,-210.386C494.966,-202.388 501.445,-191.899 508.192,-180.975"/>
<polygon fill="black" stroke="black" points="511.359,-182.508 513.636,-172.161 505.403,-178.829 511.359,-182.508"/>
</g>
<!-- pr_765eaf0e&#45;d1e8&#45;419e&#45;b464&#45;83c1cd831787 -->
<g id="node9" class="node"><title>pr_765eaf0e&#45;d1e8&#45;419e&#45;b464&#45;83c1cd831787</title>
<polygon fill="none" stroke="black" points="476,-172 376,-172 376,-72 476,-72 476,-172"/>
<text text-anchor="middle" x="426" y="-120.8" font-family="Times,serif" font-size="4.00">pr_765eaf0e&#45;d1e8&#45;419e&#45;b464&#45;83c1cd831787</text>
</g>
<!-- BRD4&#45;&gt;pr_765eaf0e&#45;d1e8&#45;419e&#45;b464&#45;83c1cd831787 -->
<g id="edge6" class="edge"><title>BRD4&#45;&gt;pr_765eaf0e&#45;d1e8&#45;419e&#45;b464&#45;83c1cd831787</title>
<path fill="none" stroke="black" d="M469.361,-212.082C463.837,-203.965 457.176,-192.859 450.715,-181.241"/>
<polygon fill="black" stroke="black" points="453.698,-179.4 445.836,-172.298 447.553,-182.753 453.698,-179.4"/>
</g>
<!-- CCNT1 -->
<g id="node4" class="node"><title>CCNT1</title>
<ellipse fill="none" stroke="black" cx="661" cy="-18" rx="18" ry="18"/>
<text text-anchor="middle" x="661" y="-16.8" font-family="Times,serif" font-size="4.00">CCNT1</text>
</g>
<!-- CCNT1&#45;&gt;pr_7305a16f&#45;bcac&#45;4bd1&#45;bd50&#45;ebf24f0a0bc7 -->
<g id="edge7" class="edge"><title>CCNT1&#45;&gt;pr_7305a16f&#45;bcac&#45;4bd1&#45;bd50&#45;ebf24f0a0bc7</title>
<path fill="none" stroke="black" d="M666.139,-35.5973C667.009,-43.2796 667.526,-52.9131 667.692,-62.9174"/>
<polygon fill="black" stroke="black" points="664.192,-63.0036 667.74,-72.9868 671.192,-62.9702 664.192,-63.0036"/>
</g>
<!-- pr_7305a16f&#45;bcac&#45;4bd1&#45;bd50&#45;ebf24f0a0bc7&#45;&gt;CCNT1 -->
<g id="edge8" class="edge"><title>pr_7305a16f&#45;bcac&#45;4bd1&#45;bd50&#45;ebf24f0a0bc7&#45;&gt;CCNT1</title>
<path fill="none" stroke="black" d="M654.26,-72.9868C654.196,-63.6456 654.434,-54.1703 654.975,-45.8202"/>
<polygon fill="black" stroke="black" points="658.485,-45.8622 655.861,-35.5973 651.511,-45.2577 658.485,-45.8622"/>
</g>
<!-- histone -->
<g id="node6" class="node"><title>histone</title>
<ellipse fill="none" stroke="black" cx="426" cy="-18" rx="18" ry="18"/>
<text text-anchor="middle" x="426" y="-16.8" font-family="Times,serif" font-size="4.00">histone</text>
</g>
<!-- histone&#45;&gt;pr_a30d4d04&#45;e6a1&#45;4650&#45;80f4&#45;a59e6c681c66 -->
<g id="edge9" class="edge"><title>histone&#45;&gt;pr_a30d4d04&#45;e6a1&#45;4650&#45;80f4&#45;a59e6c681c66</title>
<path fill="none" stroke="black" d="M441.052,-28.4501C452.743,-37.1915 469.531,-50.9536 486.193,-65.2191"/>
<polygon fill="black" stroke="black" points="483.96,-67.9155 493.82,-71.7926 488.53,-62.613 483.96,-67.9155"/>
</g>
<!-- pr_a30d4d04&#45;e6a1&#45;4650&#45;80f4&#45;a59e6c681c66&#45;&gt;histone -->
<g id="edge10" class="edge"><title>pr_a30d4d04&#45;e6a1&#45;4650&#45;80f4&#45;a59e6c681c66&#45;&gt;histone</title>
<path fill="none" stroke="black" d="M493.855,-83.3088C476.311,-68.552 457.72,-52.1969 444.364,-39.6732"/>
<polygon fill="black" stroke="black" points="446.427,-36.8024 436.781,-32.4191 441.588,-41.8608 446.427,-36.8024"/>
</g>
<!-- BRD2 -->
<g id="node8" class="node"><title>BRD2</title>
<ellipse fill="none" stroke="black" cx="777" cy="-226" rx="18" ry="18"/>
<text text-anchor="middle" x="777" y="-224.8" font-family="Times,serif" font-size="4.00">BRD2</text>
</g>
<!-- BRD2&#45;&gt;pr_a30d4d04&#45;e6a1&#45;4650&#45;80f4&#45;a59e6c681c66 -->
<g id="edge11" class="edge"><title>BRD2&#45;&gt;pr_a30d4d04&#45;e6a1&#45;4650&#45;80f4&#45;a59e6c681c66</title>
<path fill="none" stroke="black" d="M759.312,-222.02C726.82,-216.035 656.094,-200.618 603,-172 602.908,-171.951 602.817,-171.901 602.725,-171.851"/>
<polygon fill="black" stroke="black" points="604.651,-168.924 594.264,-166.831 601.079,-174.944 604.651,-168.924"/>
</g>
<!-- pr_4101a71f&#45;089a&#45;469d&#45;9ffd&#45;d728b769e8a9 -->
<g id="node17" class="node"><title>pr_4101a71f&#45;089a&#45;469d&#45;9ffd&#45;d728b769e8a9</title>
<polygon fill="none" stroke="black" points="826,-171 728,-171 728,-73 826,-73 826,-171"/>
<text text-anchor="middle" x="777" y="-120.8" font-family="Times,serif" font-size="4.00">pr_4101a71f&#45;089a&#45;469d&#45;9ffd&#45;d728b769e8a9</text>
</g>
<!-- BRD2&#45;&gt;pr_4101a71f&#45;089a&#45;469d&#45;9ffd&#45;d728b769e8a9 -->
<g id="edge12" class="edge"><title>BRD2&#45;&gt;pr_4101a71f&#45;089a&#45;469d&#45;9ffd&#45;d728b769e8a9</title>
<path fill="none" stroke="black" d="M771.885,-208.612C771.004,-200.925 770.479,-191.252 770.31,-181.198"/>
<polygon fill="black" stroke="black" points="773.81,-181.059 770.26,-171.076 766.81,-181.093 773.81,-181.059"/>
</g>
<!-- pr_4f7ad91e&#45;9bfb&#45;4a2b&#45;956f&#45;1a3da6400bd5 -->
<g id="node20" class="node"><title>pr_4f7ad91e&#45;9bfb&#45;4a2b&#45;956f&#45;1a3da6400bd5</title>
<polygon fill="none" stroke="black" points="942,-171 844,-171 844,-73 942,-73 942,-171"/>
<text text-anchor="middle" x="893" y="-120.8" font-family="Times,serif" font-size="4.00">pr_4f7ad91e&#45;9bfb&#45;4a2b&#45;956f&#45;1a3da6400bd5</text>
</g>
<!-- BRD2&#45;&gt;pr_4f7ad91e&#45;9bfb&#45;4a2b&#45;956f&#45;1a3da6400bd5 -->
<g id="edge13" class="edge"><title>BRD2&#45;&gt;pr_4f7ad91e&#45;9bfb&#45;4a2b&#45;956f&#45;1a3da6400bd5</title>
<path fill="none" stroke="black" d="M790.307,-213.299C801.712,-203.271 818.967,-188.098 836.095,-173.037"/>
<polygon fill="black" stroke="black" points="838.736,-175.376 843.934,-166.144 834.113,-170.119 838.736,-175.376"/>
</g>
<!-- pr_765eaf0e&#45;d1e8&#45;419e&#45;b464&#45;83c1cd831787&#45;&gt;BRD4 -->
<g id="edge14" class="edge"><title>pr_765eaf0e&#45;d1e8&#45;419e&#45;b464&#45;83c1cd831787&#45;&gt;BRD4</title>
<path fill="none" stroke="black" d="M459.178,-172.021C464.205,-181.265 468.983,-190.596 472.855,-198.796"/>
<polygon fill="black" stroke="black" points="469.777,-200.485 477.084,-208.157 476.156,-197.603 469.777,-200.485"/>
</g>
<!-- E -->
<g id="node10" class="node"><title>E</title>
<ellipse fill="none" stroke="black" cx="629" cy="-226" rx="18" ry="18"/>
<text text-anchor="middle" x="629" y="-224.8" font-family="Times,serif" font-size="4.00">E</text>
</g>
<!-- E&#45;&gt;pr_765eaf0e&#45;d1e8&#45;419e&#45;b464&#45;83c1cd831787 -->
<g id="edge15" class="edge"><title>E&#45;&gt;pr_765eaf0e&#45;d1e8&#45;419e&#45;b464&#45;83c1cd831787</title>
<path fill="none" stroke="black" d="M611.768,-220.71C583.886,-213.329 527.698,-196.61 485,-172 484.906,-171.946 484.813,-171.892 484.719,-171.837"/>
<polygon fill="black" stroke="black" points="486.368,-168.741 476.035,-166.4 482.653,-174.674 486.368,-168.741"/>
</g>
<!-- E&#45;&gt;pr_4101a71f&#45;089a&#45;469d&#45;9ffd&#45;d728b769e8a9 -->
<g id="edge16" class="edge"><title>E&#45;&gt;pr_4101a71f&#45;089a&#45;469d&#45;9ffd&#45;d728b769e8a9</title>
<path fill="none" stroke="black" d="M644.784,-216.764C663.156,-206.94 694.151,-189.622 719,-172 719.181,-171.871 719.363,-171.742 719.545,-171.613"/>
<polygon fill="black" stroke="black" points="721.805,-174.294 727.769,-165.537 717.646,-168.664 721.805,-174.294"/>
</g>
<!-- H4C14 -->
<g id="node11" class="node"><title>H4C14</title>
<ellipse fill="none" stroke="black" cx="373" cy="-226" rx="18" ry="18"/>
<text text-anchor="middle" x="373" y="-224.8" font-family="Times,serif" font-size="4.00">H4C14</text>
</g>
<!-- pr_b0be0f10&#45;ca32&#45;40d7&#45;8129&#45;4a2d36cc40d5 -->
<g id="node12" class="node"><title>pr_b0be0f10&#45;ca32&#45;40d7&#45;8129&#45;4a2d36cc40d5</title>
<polygon fill="none" stroke="black" points="358,-172 258,-172 258,-72 358,-72 358,-172"/>
<text text-anchor="middle" x="308" y="-120.8" font-family="Times,serif" font-size="4.00">pr_b0be0f10&#45;ca32&#45;40d7&#45;8129&#45;4a2d36cc40d5</text>
</g>
<!-- H4C14&#45;&gt;pr_b0be0f10&#45;ca32&#45;40d7&#45;8129&#45;4a2d36cc40d5 -->
<g id="edge17" class="edge"><title>H4C14&#45;&gt;pr_b0be0f10&#45;ca32&#45;40d7&#45;8129&#45;4a2d36cc40d5</title>
<path fill="none" stroke="black" d="M363.687,-210.386C358.54,-202.309 351.774,-191.691 344.738,-180.651"/>
<polygon fill="black" stroke="black" points="347.654,-178.713 339.328,-172.161 341.75,-182.475 347.654,-178.713"/>
</g>
<!-- pr_b0be0f10&#45;ca32&#45;40d7&#45;8129&#45;4a2d36cc40d5&#45;&gt;histone -->
<g id="edge18" class="edge"><title>pr_b0be0f10&#45;ca32&#45;40d7&#45;8129&#45;4a2d36cc40d5&#45;&gt;histone</title>
<path fill="none" stroke="black" d="M358.043,-77.7428C374.428,-63.5789 391.758,-48.5993 404.816,-37.3118"/>
<polygon fill="black" stroke="black" points="407.451,-39.6606 412.727,-30.4731 402.873,-34.3648 407.451,-39.6606"/>
</g>
<!-- H4&#45;16 -->
<g id="node13" class="node"><title>H4&#45;16</title>
<ellipse fill="none" stroke="black" cx="427" cy="-226" rx="18" ry="18"/>
<text text-anchor="middle" x="427" y="-224.8" font-family="Times,serif" font-size="4.00">H4&#45;16</text>
</g>
<!-- H4&#45;16&#45;&gt;pr_b0be0f10&#45;ca32&#45;40d7&#45;8129&#45;4a2d36cc40d5 -->
<g id="edge19" class="edge"><title>H4&#45;16&#45;&gt;pr_b0be0f10&#45;ca32&#45;40d7&#45;8129&#45;4a2d36cc40d5</title>
<path fill="none" stroke="black" d="M413.81,-213.694C402.002,-203.574 383.827,-187.994 365.852,-172.587"/>
<polygon fill="black" stroke="black" points="368.05,-169.862 358.18,-166.011 363.495,-175.177 368.05,-169.862"/>
</g>
<!-- H4C1 -->
<g id="node14" class="node"><title>H4C1</title>
<ellipse fill="none" stroke="black" cx="211" cy="-226" rx="18" ry="18"/>
<text text-anchor="middle" x="211" y="-224.8" font-family="Times,serif" font-size="4.00">H4C1</text>
</g>
<!-- H4C1&#45;&gt;pr_b0be0f10&#45;ca32&#45;40d7&#45;8129&#45;4a2d36cc40d5 -->
<g id="edge20" class="edge"><title>H4C1&#45;&gt;pr_b0be0f10&#45;ca32&#45;40d7&#45;8129&#45;4a2d36cc40d5</title>
<path fill="none" stroke="black" d="M223.285,-212.082C231.306,-203.647 242.398,-191.983 253.916,-179.872"/>
<polygon fill="black" stroke="black" points="256.763,-181.957 261.118,-172.298 251.691,-177.133 256.763,-181.957"/>
</g>
<!-- H3C15 -->
<g id="node15" class="node"><title>H3C15</title>
<ellipse fill="none" stroke="black" cx="265" cy="-226" rx="18" ry="18"/>
<text text-anchor="middle" x="265" y="-224.8" font-family="Times,serif" font-size="4.00">H3C15</text>
</g>
<!-- H3C15&#45;&gt;pr_b0be0f10&#45;ca32&#45;40d7&#45;8129&#45;4a2d36cc40d5 -->
<g id="edge21" class="edge"><title>H3C15&#45;&gt;pr_b0be0f10&#45;ca32&#45;40d7&#45;8129&#45;4a2d36cc40d5</title>
<path fill="none" stroke="black" d="M271.719,-209.062C274.938,-201.427 279.014,-191.758 283.262,-181.68"/>
<polygon fill="black" stroke="black" points="286.533,-182.931 287.193,-172.357 280.083,-180.212 286.533,-182.931"/>
</g>
<!-- H3C1 -->
<g id="node16" class="node"><title>H3C1</title>
<ellipse fill="none" stroke="black" cx="319" cy="-226" rx="18" ry="18"/>
<text text-anchor="middle" x="319" y="-224.8" font-family="Times,serif" font-size="4.00">H3C1</text>
</g>
<!-- H3C1&#45;&gt;pr_b0be0f10&#45;ca32&#45;40d7&#45;8129&#45;4a2d36cc40d5 -->
<g id="edge22" class="edge"><title>H3C1&#45;&gt;pr_b0be0f10&#45;ca32&#45;40d7&#45;8129&#45;4a2d36cc40d5</title>
<path fill="none" stroke="black" d="M317.134,-207.697C316.351,-200.434 315.39,-191.521 314.388,-182.234"/>
<polygon fill="black" stroke="black" points="317.844,-181.637 313.292,-172.07 310.884,-182.387 317.844,-181.637"/>
</g>
<!-- pr_4101a71f&#45;089a&#45;469d&#45;9ffd&#45;d728b769e8a9&#45;&gt;BRD2 -->
<g id="edge23" class="edge"><title>pr_4101a71f&#45;089a&#45;469d&#45;9ffd&#45;d728b769e8a9&#45;&gt;BRD2</title>
<path fill="none" stroke="black" d="M783.74,-171.076C783.804,-180.573 783.556,-190.205 782.994,-198.65"/>
<polygon fill="black" stroke="black" points="779.507,-198.343 782.115,-208.612 786.48,-198.958 779.507,-198.343"/>
</g>
<!-- JQ1 -->
<g id="node18" class="node"><title>JQ1</title>
<ellipse fill="none" stroke="black" cx="831" cy="-226" rx="18" ry="18"/>
<text text-anchor="middle" x="831" y="-224.8" font-family="Times,serif" font-size="4.00">JQ1</text>
</g>
<!-- JQ1&#45;&gt;pr_4101a71f&#45;089a&#45;469d&#45;9ffd&#45;d728b769e8a9 -->
<g id="edge24" class="edge"><title>JQ1&#45;&gt;pr_4101a71f&#45;089a&#45;469d&#45;9ffd&#45;d728b769e8a9</title>
<path fill="none" stroke="black" d="M822.799,-209.508C818.557,-201.497 813.087,-191.165 807.413,-180.447"/>
<polygon fill="black" stroke="black" points="810.393,-178.596 802.621,-171.396 804.207,-181.871 810.393,-178.596"/>
</g>
<!-- TBP -->
<g id="node19" class="node"><title>TBP</title>
<ellipse fill="none" stroke="black" cx="893" cy="-18" rx="18" ry="18"/>
<text text-anchor="middle" x="893" y="-16.8" font-family="Times,serif" font-size="4.00">TBP</text>
</g>
<!-- TBP&#45;&gt;pr_4f7ad91e&#45;9bfb&#45;4a2b&#45;956f&#45;1a3da6400bd5 -->
<g id="edge25" class="edge"><title>TBP&#45;&gt;pr_4f7ad91e&#45;9bfb&#45;4a2b&#45;956f&#45;1a3da6400bd5</title>
<path fill="none" stroke="black" d="M898.139,-35.5973C899.009,-43.2796 899.526,-52.9131 899.692,-62.9174"/>
<polygon fill="black" stroke="black" points="896.192,-63.0036 899.74,-72.9868 903.192,-62.9702 896.192,-63.0036"/>
</g>
<!-- pr_4f7ad91e&#45;9bfb&#45;4a2b&#45;956f&#45;1a3da6400bd5&#45;&gt;TBP -->
<g id="edge26" class="edge"><title>pr_4f7ad91e&#45;9bfb&#45;4a2b&#45;956f&#45;1a3da6400bd5&#45;&gt;TBP</title>
<path fill="none" stroke="black" d="M886.26,-72.9868C886.196,-63.6456 886.434,-54.1703 886.975,-45.8202"/>
<polygon fill="black" stroke="black" points="890.485,-45.8622 887.861,-35.5973 883.511,-45.2577 890.485,-45.8622"/>
</g>
<!-- H4C9 -->
<g id="node21" class="node"><title>H4C9</title>
<ellipse fill="none" stroke="black" cx="23" cy="-226" rx="18" ry="18"/>
<text text-anchor="middle" x="23" y="-224.8" font-family="Times,serif" font-size="4.00">H4C9</text>
</g>
<!-- pr_5d8fcb01&#45;a2b9&#45;478d&#45;94ae&#45;1e5814447334 -->
<g id="node22" class="node"><title>pr_5d8fcb01&#45;a2b9&#45;478d&#45;94ae&#45;1e5814447334</title>
<polygon fill="none" stroke="black" points="100,-172 0,-172 0,-72 100,-72 100,-172"/>
<text text-anchor="middle" x="50" y="-120.8" font-family="Times,serif" font-size="4.00">pr_5d8fcb01&#45;a2b9&#45;478d&#45;94ae&#45;1e5814447334</text>
</g>
<!-- H4C9&#45;&gt;pr_5d8fcb01&#45;a2b9&#45;478d&#45;94ae&#45;1e5814447334 -->
<g id="edge27" class="edge"><title>H4C9&#45;&gt;pr_5d8fcb01&#45;a2b9&#45;478d&#45;94ae&#45;1e5814447334</title>
<path fill="none" stroke="black" d="M27.4585,-208.157C29.4356,-200.688 31.8915,-191.41 34.448,-181.752"/>
<polygon fill="black" stroke="black" points="37.8484,-182.583 37.0239,-172.021 31.0815,-180.792 37.8484,-182.583"/>
</g>
<!-- pr_5d8fcb01&#45;a2b9&#45;478d&#45;94ae&#45;1e5814447334&#45;&gt;histone -->
<g id="edge28" class="edge"><title>pr_5d8fcb01&#45;a2b9&#45;478d&#45;94ae&#45;1e5814447334&#45;&gt;histone</title>
<path fill="none" stroke="black" d="M100.029,-76.6955C102.975,-74.9681 105.973,-73.3857 109,-72 208.137,-26.6099 340.626,-19.6332 397.79,-18.8734"/>
<polygon fill="black" stroke="black" points="397.903,-22.3727 407.875,-18.7953 397.849,-15.3729 397.903,-22.3727"/>
</g>
<!-- H2BC21 -->
<g id="node23" class="node"><title>H2BC21</title>
<ellipse fill="none" stroke="black" cx="77" cy="-226" rx="18" ry="18"/>
<text text-anchor="middle" x="77" y="-224.8" font-family="Times,serif" font-size="4.00">H2BC21</text>
</g>
<!-- H2BC21&#45;&gt;pr_5d8fcb01&#45;a2b9&#45;478d&#45;94ae&#45;1e5814447334 -->
<g id="edge29" class="edge"><title>H2BC21&#45;&gt;pr_5d8fcb01&#45;a2b9&#45;478d&#45;94ae&#45;1e5814447334</title>
<path fill="none" stroke="black" d="M72.5415,-208.157C70.5644,-200.688 68.1085,-191.41 65.552,-181.752"/>
<polygon fill="black" stroke="black" points="68.9185,-180.792 62.9761,-172.021 62.1516,-182.583 68.9185,-180.792"/>
</g>
</g>
</svg>
