<?xml version="1.0" encoding="UTF-8" standalone="no"?>
<!DOCTYPE svg PUBLIC "-//W3C//DTD SVG 1.1//EN"
 "http://www.w3.org/Graphics/SVG/1.1/DTD/svg11.dtd">
<!-- Generated by graphviz version 2.38.0 (20140413.2041)
 -->
<!-- Title: G Pages: 1 -->
<svg width="946pt" height="252pt"
 viewBox="0.00 0.00 946.00 252.00" xmlns="http://www.w3.org/2000/svg" xmlns:xlink="http://www.w3.org/1999/xlink">
<g id="graph0" class="graph" transform="scale(1 1) rotate(0) translate(4 248)">
<title>G</title>
<polygon fill="white" stroke="none" points="-4,4 -4,-248 942,-248 942,4 -4,4"/>
<!-- CDK9 -->
<g id="node1" class="node"><title>CDK9</title>
<ellipse fill="none" stroke="black" cx="155.5" cy="-226" rx="18" ry="18"/>
<text text-anchor="middle" x="155.5" y="-224.8" font-family="Times,serif" font-size="4.00">CDK9</text>
</g>
<!-- pr_4f910ece&#45;9df3&#45;456c&#45;b57c&#45;dc5a87b7f0d1 -->
<g id="node2" class="node"><title>pr_4f910ece&#45;9df3&#45;456c&#45;b57c&#45;dc5a87b7f0d1</title>
<polygon fill="none" stroke="black" points="215.5,-171 117.5,-171 117.5,-73 215.5,-73 215.5,-171"/>
<text text-anchor="middle" x="166.5" y="-120.8" font-family="Times,serif" font-size="4.00">pr_4f910ece&#45;9df3&#45;456c&#45;b57c&#45;dc5a87b7f0d1</text>
</g>
<!-- CDK9&#45;&gt;pr_4f910ece&#45;9df3&#45;456c&#45;b57c&#45;dc5a87b7f0d1 -->
<g id="edge1" class="edge"><title>CDK9&#45;&gt;pr_4f910ece&#45;9df3&#45;456c&#45;b57c&#45;dc5a87b7f0d1</title>
<path fill="none" stroke="black" d="M152.15,-208.157C152.121,-200.518 152.64,-190.987 153.543,-181.093"/>
<polygon fill="black" stroke="black" points="157.026,-181.44 154.569,-171.134 150.063,-180.723 157.026,-181.44"/>
</g>
<!-- pr_4f910ece&#45;9df3&#45;456c&#45;b57c&#45;dc5a87b7f0d1&#45;&gt;CDK9 -->
<g id="edge2" class="edge"><title>pr_4f910ece&#45;9df3&#45;456c&#45;b57c&#45;dc5a87b7f0d1&#45;&gt;CDK9</title>
<path fill="none" stroke="black" d="M168.062,-171.013C167.088,-180.664 165.775,-190.457 164.273,-199.005"/>
<polygon fill="black" stroke="black" points="160.791,-198.573 162.281,-209.062 167.658,-199.933 160.791,-198.573"/>
</g>
<!-- BRD4 -->
<g id="node3" class="node"><title>BRD4</title>
<ellipse fill="none" stroke="black" cx="479.5" cy="-226" rx="18" ry="18"/>
<text text-anchor="middle" x="479.5" y="-224.8" font-family="Times,serif" font-size="4.00">BRD4</text>
</g>
<!-- BRD4&#45;&gt;pr_4f910ece&#45;9df3&#45;456c&#45;b57c&#45;dc5a87b7f0d1 -->
<g id="edge3" class="edge"><title>BRD4&#45;&gt;pr_4f910ece&#45;9df3&#45;456c&#45;b57c&#45;dc5a87b7f0d1</title>
<path fill="none" stroke="black" d="M465.193,-214.556C461.241,-212.079 456.842,-209.673 452.5,-208 366.184,-174.732 334.11,-204.495 247.5,-172 239.758,-169.095 231.93,-165.44 224.35,-161.44"/>
<polygon fill="black" stroke="black" points="226.032,-158.371 215.585,-156.612 222.655,-164.503 226.032,-158.371"/>
</g>
<!-- pr_045d848d&#45;689a&#45;43d4&#45;b346&#45;cabf5bcb432e -->
<g id="node5" class="node"><title>pr_045d848d&#45;689a&#45;43d4&#45;b346&#45;cabf5bcb432e</title>
<polygon fill="none" stroke="black" points="704.5,-172 604.5,-172 604.5,-72 704.5,-72 704.5,-172"/>
<text text-anchor="middle" x="654.5" y="-120.8" font-family="Times,serif" font-size="4.00">pr_045d848d&#45;689a&#45;43d4&#45;b346&#45;cabf5bcb432e</text>
</g>
<!-- BRD4&#45;&gt;pr_045d848d&#45;689a&#45;43d4&#45;b346&#45;cabf5bcb432e -->
<g id="edge4" class="edge"><title>BRD4&#45;&gt;pr_045d848d&#45;689a&#45;43d4&#45;b346&#45;cabf5bcb432e</title>
<path fill="none" stroke="black" d="M496.341,-218.929C519.564,-210.201 562.313,-192.845 595.5,-172 595.592,-171.942 595.683,-171.885 595.775,-171.827"/>
<polygon fill="black" stroke="black" points="597.933,-174.595 604.301,-166.127 594.042,-168.775 597.933,-174.595"/>
</g>
<!-- pr_48035f84&#45;797c&#45;448a&#45;87f9&#45;3b65fd31b72a -->
<g id="node7" class="node"><title>pr_48035f84&#45;797c&#45;448a&#45;87f9&#45;3b65fd31b72a</title>
<polygon fill="none" stroke="black" points="586.5,-171 488.5,-171 488.5,-73 586.5,-73 586.5,-171"/>
<text text-anchor="middle" x="537.5" y="-120.8" font-family="Times,serif" font-size="4.00">pr_48035f84&#45;797c&#45;448a&#45;87f9&#45;3b65fd31b72a</text>
</g>
<!-- BRD4&#45;&gt;pr_48035f84&#45;797c&#45;448a&#45;87f9&#45;3b65fd31b72a -->
<g id="edge5" class="edge"><title>BRD4&#45;&gt;pr_48035f84&#45;797c&#45;448a&#45;87f9&#45;3b65fd31b72a</title>
<path fill="none" stroke="black" d="M488.058,-209.95C492.683,-201.816 498.719,-191.201 504.977,-180.196"/>
<polygon fill="black" stroke="black" points="508.12,-181.749 510.021,-171.326 502.035,-178.288 508.12,-181.749"/>
</g>
<!-- pr_ef4185d4&#45;110f&#45;4605&#45;b9cf&#45;73f97ad923bd -->
<g id="node9" class="node"><title>pr_ef4185d4&#45;110f&#45;4605&#45;b9cf&#45;73f97ad923bd</title>
<polygon fill="none" stroke="black" points="470.5,-171 372.5,-171 372.5,-73 470.5,-73 470.5,-171"/>
<text text-anchor="middle" x="421.5" y="-120.8" font-family="Times,serif" font-size="4.00">pr_ef4185d4&#45;110f&#45;4605&#45;b9cf&#45;73f97ad923bd</text>
</g>
<!-- BRD4&#45;&gt;pr_ef4185d4&#45;110f&#45;4605&#45;b9cf&#45;73f97ad923bd -->
<g id="edge6" class="edge"><title>BRD4&#45;&gt;pr_ef4185d4&#45;110f&#45;4605&#45;b9cf&#45;73f97ad923bd</title>
<path fill="none" stroke="black" d="M467.481,-212.082C461.539,-203.713 454.296,-192.166 447.295,-180.157"/>
<polygon fill="black" stroke="black" points="450.269,-178.308 442.262,-171.37 444.195,-181.787 450.269,-178.308"/>
</g>
<!-- CCNT1 -->
<g id="node4" class="node"><title>CCNT1</title>
<ellipse fill="none" stroke="black" cx="654.5" cy="-18" rx="18" ry="18"/>
<text text-anchor="middle" x="654.5" y="-16.8" font-family="Times,serif" font-size="4.00">CCNT1</text>
</g>
<!-- CCNT1&#45;&gt;pr_045d848d&#45;689a&#45;43d4&#45;b346&#45;cabf5bcb432e -->
<g id="edge7" class="edge"><title>CCNT1&#45;&gt;pr_045d848d&#45;689a&#45;43d4&#45;b346&#45;cabf5bcb432e</title>
<path fill="none" stroke="black" d="M659.641,-35.6151C660.475,-42.9907 660.985,-52.1624 661.171,-61.7331"/>
<polygon fill="black" stroke="black" points="657.671,-61.8193 661.246,-71.7926 664.671,-61.7665 657.671,-61.8193"/>
</g>
<!-- pr_045d848d&#45;689a&#45;43d4&#45;b346&#45;cabf5bcb432e&#45;&gt;CCNT1 -->
<g id="edge8" class="edge"><title>pr_045d848d&#45;689a&#45;43d4&#45;b346&#45;cabf5bcb432e&#45;&gt;CCNT1</title>
<path fill="none" stroke="black" d="M647.754,-71.7926C647.717,-62.8265 647.958,-53.7864 648.478,-45.7826"/>
<polygon fill="black" stroke="black" points="651.982,-45.88 649.359,-35.6151 645.009,-45.2754 651.982,-45.88"/>
</g>
<!-- histone -->
<g id="node6" class="node"><title>histone</title>
<ellipse fill="none" stroke="black" cx="421.5" cy="-18" rx="18" ry="18"/>
<text text-anchor="middle" x="421.5" y="-16.8" font-family="Times,serif" font-size="4.00">histone</text>
</g>
<!-- histone&#45;&gt;pr_48035f84&#45;797c&#45;448a&#45;87f9&#45;3b65fd31b72a -->
<g id="edge9" class="edge"><title>histone&#45;&gt;pr_48035f84&#45;797c&#45;448a&#45;87f9&#45;3b65fd31b72a</title>
<path fill="none" stroke="black" d="M436.471,-28.5286C448.268,-37.4888 465.267,-51.6743 481.991,-66.2694"/>
<polygon fill="black" stroke="black" points="479.814,-69.0155 489.636,-72.9868 484.434,-63.7569 479.814,-69.0155"/>
</g>
<!-- pr_48035f84&#45;797c&#45;448a&#45;87f9&#45;3b65fd31b72a&#45;&gt;histone -->
<g id="edge10" class="edge"><title>pr_48035f84&#45;797c&#45;448a&#45;87f9&#45;3b65fd31b72a&#45;&gt;histone</title>
<path fill="none" stroke="black" d="M488.433,-83.5982C471.244,-68.9077 453.007,-52.5934 439.839,-40.0353"/>
<polygon fill="black" stroke="black" points="441.958,-37.2137 432.349,-32.7495 437.076,-42.2313 441.958,-37.2137"/>
</g>
<!-- BRD2 -->
<g id="node8" class="node"><title>BRD2</title>
<ellipse fill="none" stroke="black" cx="771.5" cy="-226" rx="18" ry="18"/>
<text text-anchor="middle" x="771.5" y="-224.8" font-family="Times,serif" font-size="4.00">BRD2</text>
</g>
<!-- BRD2&#45;&gt;pr_48035f84&#45;797c&#45;448a&#45;87f9&#45;3b65fd31b72a -->
<g id="edge11" class="edge"><title>BRD2&#45;&gt;pr_48035f84&#45;797c&#45;448a&#45;87f9&#45;3b65fd31b72a</title>
<path fill="none" stroke="black" d="M753.842,-222.151C721.053,-216.339 649.216,-201.136 595.5,-172 595.406,-171.949 595.312,-171.898 595.218,-171.846"/>
<polygon fill="black" stroke="black" points="596.906,-168.778 586.531,-166.629 593.302,-174.779 596.906,-168.778"/>
</g>
<!-- pr_611b1d41&#45;9c00&#45;4a17&#45;80a9&#45;1fcc57e5e5ff -->
<g id="node17" class="node"><title>pr_611b1d41&#45;9c00&#45;4a17&#45;80a9&#45;1fcc57e5e5ff</title>
<polygon fill="none" stroke="black" points="820.5,-171 722.5,-171 722.5,-73 820.5,-73 820.5,-171"/>
<text text-anchor="middle" x="771.5" y="-120.8" font-family="Times,serif" font-size="4.00">pr_611b1d41&#45;9c00&#45;4a17&#45;80a9&#45;1fcc57e5e5ff</text>
</g>
<!-- BRD2&#45;&gt;pr_611b1d41&#45;9c00&#45;4a17&#45;80a9&#45;1fcc57e5e5ff -->
<g id="edge12" class="edge"><title>BRD2&#45;&gt;pr_611b1d41&#45;9c00&#45;4a17&#45;80a9&#45;1fcc57e5e5ff</title>
<path fill="none" stroke="black" d="M766.385,-208.612C765.504,-200.925 764.979,-191.252 764.81,-181.198"/>
<polygon fill="black" stroke="black" points="768.31,-181.059 764.76,-171.076 761.31,-181.093 768.31,-181.059"/>
</g>
<!-- pr_8d53a29f&#45;4ea3&#45;4f96&#45;9135&#45;3b76093d72ab -->
<g id="node20" class="node"><title>pr_8d53a29f&#45;4ea3&#45;4f96&#45;9135&#45;3b76093d72ab</title>
<polygon fill="none" stroke="black" points="938,-171.5 839,-171.5 839,-72.5 938,-72.5 938,-171.5"/>
<text text-anchor="middle" x="888.5" y="-120.8" font-family="Times,serif" font-size="4.00">pr_8d53a29f&#45;4ea3&#45;4f96&#45;9135&#45;3b76093d72ab</text>
</g>
<!-- BRD2&#45;&gt;pr_8d53a29f&#45;4ea3&#45;4f96&#45;9135&#45;3b76093d72ab -->
<g id="edge13" class="edge"><title>BRD2&#45;&gt;pr_8d53a29f&#45;4ea3&#45;4f96&#45;9135&#45;3b76093d72ab</title>
<path fill="none" stroke="black" d="M784.921,-213.299C796.373,-203.316 813.672,-188.235 830.87,-173.242"/>
<polygon fill="black" stroke="black" points="833.506,-175.587 838.744,-166.377 828.906,-170.311 833.506,-175.587"/>
</g>
<!-- pr_ef4185d4&#45;110f&#45;4605&#45;b9cf&#45;73f97ad923bd&#45;&gt;BRD4 -->
<g id="edge14" class="edge"><title>pr_ef4185d4&#45;110f&#45;4605&#45;b9cf&#45;73f97ad923bd&#45;&gt;BRD4</title>
<path fill="none" stroke="black" d="M455.611,-171.134C461.165,-180.789 466.474,-190.582 470.747,-199.121"/>
<polygon fill="black" stroke="black" points="467.603,-200.66 475.089,-208.157 473.912,-197.627 467.603,-200.66"/>
</g>
<!-- E -->
<g id="node10" class="node"><title>E</title>
<ellipse fill="none" stroke="black" cx="625.5" cy="-226" rx="18" ry="18"/>
<text text-anchor="middle" x="625.5" y="-224.8" font-family="Times,serif" font-size="4.00">E</text>
</g>
<!-- E&#45;&gt;pr_ef4185d4&#45;110f&#45;4605&#45;b9cf&#45;73f97ad923bd -->
<g id="edge15" class="edge"><title>E&#45;&gt;pr_ef4185d4&#45;110f&#45;4605&#45;b9cf&#45;73f97ad923bd</title>
<path fill="none" stroke="black" d="M608.001,-220.799C579.693,-213.544 522.672,-196.997 479.5,-172 479.407,-171.946 479.315,-171.893 479.222,-171.839"/>
<polygon fill="black" stroke="black" points="480.97,-168.803 470.644,-166.428 477.235,-174.723 480.97,-168.803"/>
</g>
<!-- E&#45;&gt;pr_611b1d41&#45;9c00&#45;4a17&#45;80a9&#45;1fcc57e5e5ff -->
<g id="edge16" class="edge"><title>E&#45;&gt;pr_611b1d41&#45;9c00&#45;4a17&#45;80a9&#45;1fcc57e5e5ff</title>
<path fill="none" stroke="black" d="M641.235,-216.527C659.218,-206.617 689.29,-189.349 713.5,-172 713.681,-171.87 713.862,-171.74 714.043,-171.61"/>
<polygon fill="black" stroke="black" points="716.314,-174.283 722.244,-165.503 712.133,-168.668 716.314,-174.283"/>
</g>
<!-- H4C14 -->
<g id="node11" class="node"><title>H4C14</title>
<ellipse fill="none" stroke="black" cx="371.5" cy="-226" rx="18" ry="18"/>
<text text-anchor="middle" x="371.5" y="-224.8" font-family="Times,serif" font-size="4.00">H4C14</text>
</g>
<!-- pr_406182f4&#45;5e77&#45;4a19&#45;acc3&#45;cf726cf49b39 -->
<g id="node12" class="node"><title>pr_406182f4&#45;5e77&#45;4a19&#45;acc3&#45;cf726cf49b39</title>
<polygon fill="none" stroke="black" points="354.5,-171 256.5,-171 256.5,-73 354.5,-73 354.5,-171"/>
<text text-anchor="middle" x="305.5" y="-120.8" font-family="Times,serif" font-size="4.00">pr_406182f4&#45;5e77&#45;4a19&#45;acc3&#45;cf726cf49b39</text>
</g>
<!-- H4C14&#45;&gt;pr_406182f4&#45;5e77&#45;4a19&#45;acc3&#45;cf726cf49b39 -->
<g id="edge17" class="edge"><title>H4C14&#45;&gt;pr_406182f4&#45;5e77&#45;4a19&#45;acc3&#45;cf726cf49b39</title>
<path fill="none" stroke="black" d="M362.044,-210.386C356.704,-202.133 349.648,-191.229 342.337,-179.93"/>
<polygon fill="black" stroke="black" points="345.092,-177.745 336.721,-171.251 339.215,-181.548 345.092,-177.745"/>
</g>
<!-- pr_406182f4&#45;5e77&#45;4a19&#45;acc3&#45;cf726cf49b39&#45;&gt;histone -->
<g id="edge18" class="edge"><title>pr_406182f4&#45;5e77&#45;4a19&#45;acc3&#45;cf726cf49b39&#45;&gt;histone</title>
<path fill="none" stroke="black" d="M354.694,-77.7428C370.802,-63.5789 387.838,-48.5993 400.675,-37.3118"/>
<polygon fill="black" stroke="black" points="403.254,-39.7049 408.452,-30.4731 398.631,-34.4481 403.254,-39.7049"/>
</g>
<!-- H4&#45;16 -->
<g id="node13" class="node"><title>H4&#45;16</title>
<ellipse fill="none" stroke="black" cx="425.5" cy="-226" rx="18" ry="18"/>
<text text-anchor="middle" x="425.5" y="-224.8" font-family="Times,serif" font-size="4.00">H4&#45;16</text>
</g>
<!-- H4&#45;16&#45;&gt;pr_406182f4&#45;5e77&#45;4a19&#45;acc3&#45;cf726cf49b39 -->
<g id="edge19" class="edge"><title>H4&#45;16&#45;&gt;pr_406182f4&#45;5e77&#45;4a19&#45;acc3&#45;cf726cf49b39</title>
<path fill="none" stroke="black" d="M412.199,-213.694C400.025,-203.347 381.139,-187.293 362.619,-171.551"/>
<polygon fill="black" stroke="black" points="364.611,-168.651 354.725,-164.841 360.078,-173.985 364.611,-168.651"/>
</g>
<!-- H4C1 -->
<g id="node14" class="node"><title>H4C1</title>
<ellipse fill="none" stroke="black" cx="209.5" cy="-226" rx="18" ry="18"/>
<text text-anchor="middle" x="209.5" y="-224.8" font-family="Times,serif" font-size="4.00">H4C1</text>
</g>
<!-- H4C1&#45;&gt;pr_406182f4&#45;5e77&#45;4a19&#45;acc3&#45;cf726cf49b39 -->
<g id="edge20" class="edge"><title>H4C1&#45;&gt;pr_406182f4&#45;5e77&#45;4a19&#45;acc3&#45;cf726cf49b39</title>
<path fill="none" stroke="black" d="M221.658,-212.082C229.841,-203.388 241.251,-191.265 253.024,-178.756"/>
<polygon fill="black" stroke="black" points="255.67,-181.051 259.975,-171.37 250.573,-176.253 255.67,-181.051"/>
</g>
<!-- H3C15 -->
<g id="node15" class="node"><title>H3C15</title>
<ellipse fill="none" stroke="black" cx="263.5" cy="-226" rx="18" ry="18"/>
<text text-anchor="middle" x="263.5" y="-224.8" font-family="Times,serif" font-size="4.00">H3C15</text>
</g>
<!-- H3C15&#45;&gt;pr_406182f4&#45;5e77&#45;4a19&#45;acc3&#45;cf726cf49b39 -->
<g id="edge21" class="edge"><title>H3C15&#45;&gt;pr_406182f4&#45;5e77&#45;4a19&#45;acc3&#45;cf726cf49b39</title>
<path fill="none" stroke="black" d="M270.062,-209.062C273.346,-201.089 277.542,-190.899 281.889,-180.34"/>
<polygon fill="black" stroke="black" points="285.159,-181.593 285.73,-171.013 278.686,-178.927 285.159,-181.593"/>
</g>
<!-- H3C1 -->
<g id="node16" class="node"><title>H3C1</title>
<ellipse fill="none" stroke="black" cx="317.5" cy="-226" rx="18" ry="18"/>
<text text-anchor="middle" x="317.5" y="-224.8" font-family="Times,serif" font-size="4.00">H3C1</text>
</g>
<!-- H3C1&#45;&gt;pr_406182f4&#45;5e77&#45;4a19&#45;acc3&#45;cf726cf49b39 -->
<g id="edge22" class="edge"><title>H3C1&#45;&gt;pr_406182f4&#45;5e77&#45;4a19&#45;acc3&#45;cf726cf49b39</title>
<path fill="none" stroke="black" d="M315.464,-207.697C314.581,-200.188 313.49,-190.915 312.358,-181.289"/>
<polygon fill="black" stroke="black" points="315.814,-180.711 311.169,-171.188 308.862,-181.529 315.814,-180.711"/>
</g>
<!-- pr_611b1d41&#45;9c00&#45;4a17&#45;80a9&#45;1fcc57e5e5ff&#45;&gt;BRD2 -->
<g id="edge23" class="edge"><title>pr_611b1d41&#45;9c00&#45;4a17&#45;80a9&#45;1fcc57e5e5ff&#45;&gt;BRD2</title>
<path fill="none" stroke="black" d="M778.24,-171.076C778.304,-180.573 778.056,-190.205 777.494,-198.65"/>
<polygon fill="black" stroke="black" points="774.007,-198.343 776.615,-208.612 780.98,-198.958 774.007,-198.343"/>
</g>
<!-- JQ1 -->
<g id="node18" class="node"><title>JQ1</title>
<ellipse fill="none" stroke="black" cx="825.5" cy="-226" rx="18" ry="18"/>
<text text-anchor="middle" x="825.5" y="-224.8" font-family="Times,serif" font-size="4.00">JQ1</text>
</g>
<!-- JQ1&#45;&gt;pr_611b1d41&#45;9c00&#45;4a17&#45;80a9&#45;1fcc57e5e5ff -->
<g id="edge24" class="edge"><title>JQ1&#45;&gt;pr_611b1d41&#45;9c00&#45;4a17&#45;80a9&#45;1fcc57e5e5ff</title>
<path fill="none" stroke="black" d="M817.299,-209.508C813.057,-201.497 807.587,-191.165 801.913,-180.447"/>
<polygon fill="black" stroke="black" points="804.893,-178.596 797.121,-171.396 798.707,-181.871 804.893,-178.596"/>
</g>
<!-- TBP -->
<g id="node19" class="node"><title>TBP</title>
<ellipse fill="none" stroke="black" cx="888.5" cy="-18" rx="18" ry="18"/>
<text text-anchor="middle" x="888.5" y="-16.8" font-family="Times,serif" font-size="4.00">TBP</text>
</g>
<!-- TBP&#45;&gt;pr_8d53a29f&#45;4ea3&#45;4f96&#45;9135&#45;3b76093d72ab -->
<g id="edge25" class="edge"><title>TBP&#45;&gt;pr_8d53a29f&#45;4ea3&#45;4f96&#45;9135&#45;3b76093d72ab</title>
<path fill="none" stroke="black" d="M893.613,-35.3739C894.474,-42.8817 894.996,-52.2863 895.177,-62.0907"/>
<polygon fill="black" stroke="black" points="891.679,-62.4125 895.243,-72.3898 898.679,-62.3676 891.679,-62.4125"/>
</g>
<!-- pr_8d53a29f&#45;4ea3&#45;4f96&#45;9135&#45;3b76093d72ab&#45;&gt;TBP -->
<g id="edge26" class="edge"><title>pr_8d53a29f&#45;4ea3&#45;4f96&#45;9135&#45;3b76093d72ab&#45;&gt;TBP</title>
<path fill="none" stroke="black" d="M881.757,-72.3898C881.705,-63.1138 881.952,-53.7321 882.498,-45.4758"/>
<polygon fill="black" stroke="black" points="885.997,-45.6422 883.387,-35.3739 879.024,-45.0286 885.997,-45.6422"/>
</g>
<!-- H4C9 -->
<g id="node21" class="node"><title>H4C9</title>
<ellipse fill="none" stroke="black" cx="22.5" cy="-226" rx="18" ry="18"/>
<text text-anchor="middle" x="22.5" y="-224.8" font-family="Times,serif" font-size="4.00">H4C9</text>
</g>
<!-- pr_34e3185d&#45;3adc&#45;49f3&#45;a5d8&#45;cace349f3e32 -->
<g id="node22" class="node"><title>pr_34e3185d&#45;3adc&#45;49f3&#45;a5d8&#45;cace349f3e32</title>
<polygon fill="none" stroke="black" points="99,-171.5 0,-171.5 0,-72.5 99,-72.5 99,-171.5"/>
<text text-anchor="middle" x="49.5" y="-120.8" font-family="Times,serif" font-size="4.00">pr_34e3185d&#45;3adc&#45;49f3&#45;a5d8&#45;cace349f3e32</text>
</g>
<!-- H4C9&#45;&gt;pr_34e3185d&#45;3adc&#45;49f3&#45;a5d8&#45;cace349f3e32 -->
<g id="edge27" class="edge"><title>H4C9&#45;&gt;pr_34e3185d&#45;3adc&#45;49f3&#45;a5d8&#45;cace349f3e32</title>
<path fill="none" stroke="black" d="M26.9585,-208.157C28.9581,-200.603 31.4474,-191.199 34.0352,-181.423"/>
<polygon fill="black" stroke="black" points="37.4657,-182.14 36.6412,-171.578 30.6988,-180.349 37.4657,-182.14"/>
</g>
<!-- pr_34e3185d&#45;3adc&#45;49f3&#45;a5d8&#45;cace349f3e32&#45;&gt;histone -->
<g id="edge28" class="edge"><title>pr_34e3185d&#45;3adc&#45;49f3&#45;a5d8&#45;cace349f3e32&#45;&gt;histone</title>
<path fill="none" stroke="black" d="M99.1792,-76.9114C102.238,-75.1009 105.354,-73.4444 108.5,-72 206.138,-27.1733 336.568,-19.8836 393.236,-18.9565"/>
<polygon fill="black" stroke="black" points="393.283,-22.4563 403.245,-18.8482 393.207,-15.4567 393.283,-22.4563"/>
</g>
<!-- H2BC21 -->
<g id="node23" class="node"><title>H2BC21</title>
<ellipse fill="none" stroke="black" cx="76.5" cy="-226" rx="18" ry="18"/>
<text text-anchor="middle" x="76.5" y="-224.8" font-family="Times,serif" font-size="4.00">H2BC21</text>
</g>
<!-- H2BC21&#45;&gt;pr_34e3185d&#45;3adc&#45;49f3&#45;a5d8&#45;cace349f3e32 -->
<g id="edge29" class="edge"><title>H2BC21&#45;&gt;pr_34e3185d&#45;3adc&#45;49f3&#45;a5d8&#45;cace349f3e32</title>
<path fill="none" stroke="black" d="M72.0415,-208.157C70.0419,-200.603 67.5526,-191.199 64.9648,-181.423"/>
<polygon fill="black" stroke="black" points="68.3012,-180.349 62.3588,-171.578 61.5343,-182.14 68.3012,-180.349"/>
</g>
</g>
</svg>
