<?xml version="1.0" encoding="UTF-8" standalone="no"?>
<!DOCTYPE svg PUBLIC "-//W3C//DTD SVG 1.1//EN"
 "http://www.w3.org/Graphics/SVG/1.1/DTD/svg11.dtd">
<!-- Generated by graphviz version 2.38.0 (20140413.2041)
 -->
<!-- Title: G Pages: 1 -->
<svg width="2084pt" height="1596pt"
 viewBox="0.00 0.00 2083.80 1596.37" xmlns="http://www.w3.org/2000/svg" xmlns:xlink="http://www.w3.org/1999/xlink">
<g id="graph0" class="graph" transform="scale(1 1) rotate(0) translate(4 1592.37)">
<title>G</title>
<polygon fill="white" stroke="none" points="-4,4 -4,-1592.37 2079.8,-1592.37 2079.8,4 -4,4"/>
<!-- Lipid Peroxide -->
<g id="node1" class="node"><title>Lipid Peroxide</title>
<ellipse fill="none" stroke="black" cx="204.803" cy="-995.834" rx="23.1702" ry="23.1702"/>
<text text-anchor="middle" x="204.803" y="-994.634" font-family="Times,serif" font-size="4.00">Lipid Peroxide</text>
</g>
<!-- Ferroptosis -->
<g id="node2" class="node"><title>Ferroptosis</title>
<ellipse fill="none" stroke="black" cx="209.803" cy="-914.226" rx="20.3063" ry="20.3062"/>
<text text-anchor="middle" x="209.803" y="-913.026" font-family="Times,serif" font-size="4.00">Ferroptosis</text>
</g>
<!-- Lipid Peroxide&#45;&gt;Ferroptosis -->
<g id="edge1" class="edge"><title>Lipid Peroxide&#45;&gt;Ferroptosis</title>
<path fill="none" stroke="black" d="M206.223,-972.234C206.762,-963.644 207.385,-953.73 207.958,-944.603"/>
<polygon fill="black" stroke="black" points="211.466,-944.576 208.6,-934.376 204.48,-944.137 211.466,-944.576"/>
</g>
<!-- Lipid alcohol -->
<g id="node59" class="node"><title>Lipid alcohol</title>
<ellipse fill="none" stroke="black" cx="149.803" cy="-914.226" rx="22.05" ry="22.05"/>
<text text-anchor="middle" x="149.803" y="-913.026" font-family="Times,serif" font-size="4.00">Lipid alcohol</text>
</g>
<!-- Lipid Peroxide&#45;&gt;Lipid alcohol -->
<g id="edge2" class="edge"><title>Lipid Peroxide&#45;&gt;Lipid alcohol</title>
<path fill="none" stroke="black" d="M191.769,-975.968C184.63,-965.636 175.674,-952.672 167.871,-941.377"/>
<polygon fill="black" stroke="black" points="170.741,-939.374 162.177,-933.136 164.982,-943.353 170.741,-939.374"/>
</g>
<!-- BLVRA -->
<g id="node3" class="node"><title>BLVRA</title>
<ellipse fill="none" stroke="black" cx="293.803" cy="-1185.57" rx="18" ry="18"/>
<text text-anchor="middle" x="293.803" y="-1184.37" font-family="Times,serif" font-size="4.00">BLVRA</text>
</g>
<!-- BLVRA_Zn2+ -->
<g id="node52" class="node"><title>BLVRA_Zn2+</title>
<ellipse fill="none" stroke="black" cx="307.803" cy="-914.226" rx="22.05" ry="22.05"/>
<text text-anchor="middle" x="307.803" y="-913.026" font-family="Times,serif" font-size="4.00">BLVRA_Zn2+</text>
</g>
<!-- BLVRA&#45;&gt;BLVRA_Zn2+ -->
<g id="edge3" class="edge"><title>BLVRA&#45;&gt;BLVRA_Zn2+</title>
<path fill="none" stroke="black" d="M294.7,-1167.31C297.008,-1122.91 303.176,-1004.24 306.152,-946.989"/>
<polygon fill="black" stroke="black" points="309.662,-946.889 306.686,-936.721 302.671,-946.525 309.662,-946.889"/>
</g>
<!-- H2O -->
<g id="node4" class="node"><title>H2O</title>
<ellipse fill="none" stroke="black" cx="1292.8" cy="-1091.76" rx="18" ry="18"/>
<text text-anchor="middle" x="1292.8" y="-1090.56" font-family="Times,serif" font-size="4.00">H2O</text>
</g>
<!-- Pi -->
<g id="node8" class="node"><title>Pi</title>
<ellipse fill="none" stroke="black" cx="1061.8" cy="-914.226" rx="18" ry="18"/>
<text text-anchor="middle" x="1061.8" y="-913.026" font-family="Times,serif" font-size="4.00">Pi</text>
</g>
<!-- H2O&#45;&gt;Pi -->
<g id="edge6" class="edge"><title>H2O&#45;&gt;Pi</title>
<path fill="none" stroke="black" d="M1283.08,-1076.22C1278.26,-1069.48 1272.12,-1061.57 1265.8,-1055.17 1209.67,-998.279 1127.36,-950.154 1086.58,-928.109"/>
<polygon fill="black" stroke="black" points="1088.08,-924.942 1077.61,-923.319 1084.78,-931.117 1088.08,-924.942"/>
</g>
<!-- ADP -->
<g id="node10" class="node"><title>ADP</title>
<ellipse fill="none" stroke="black" cx="969.803" cy="-914.226" rx="18" ry="18"/>
<text text-anchor="middle" x="969.803" y="-913.026" font-family="Times,serif" font-size="4.00">ADP</text>
</g>
<!-- H2O&#45;&gt;ADP -->
<g id="edge4" class="edge"><title>H2O&#45;&gt;ADP</title>
<path fill="none" stroke="black" d="M1284.2,-1075.55C1279.54,-1068.5 1273.23,-1060.52 1265.8,-1055.17 1225.44,-1026.07 1199.67,-1048.94 1159.8,-1019.17 1139.45,-1003.97 1146.99,-987.925 1126.8,-972.5 1116.1,-964.321 1038.32,-937.873 996.405,-923.963"/>
<polygon fill="black" stroke="black" points="997.419,-920.612 986.826,-920.795 995.221,-927.258 997.419,-920.612"/>
</g>
<!-- Heme -->
<g id="node13" class="node"><title>Heme</title>
<ellipse fill="none" stroke="black" cx="1099.8" cy="-995.834" rx="18" ry="18"/>
<text text-anchor="middle" x="1099.8" y="-994.634" font-family="Times,serif" font-size="4.00">Heme</text>
</g>
<!-- H2O&#45;&gt;Heme -->
<g id="edge5" class="edge"><title>H2O&#45;&gt;Heme</title>
<path fill="none" stroke="black" d="M1279.48,-1079.53C1273.25,-1071.59 1265.94,-1061.32 1256.8,-1055.17 1205.63,-1020.75 1178.7,-1045.21 1122.8,-1019.17 1121.2,-1018.42 1119.59,-1017.59 1118,-1016.71"/>
<polygon fill="black" stroke="black" points="1119.65,-1013.61 1109.33,-1011.21 1115.9,-1019.52 1119.65,-1013.61"/>
</g>
<!-- HMBL -->
<g id="node66" class="node"><title>HMBL</title>
<ellipse fill="none" stroke="black" cx="1474.8" cy="-759.525" rx="18" ry="18"/>
<text text-anchor="middle" x="1474.8" y="-758.325" font-family="Times,serif" font-size="4.00">HMBL</text>
</g>
<!-- H2O&#45;&gt;HMBL -->
<g id="edge8" class="edge"><title>H2O&#45;&gt;HMBL</title>
<path fill="none" stroke="black" d="M1300.79,-1075.54C1312.9,-1052.75 1336.91,-1008.56 1359.8,-972.5 1383.31,-935.475 1388.53,-925.477 1416.8,-891.952 1431.39,-874.655 1441.84,-875.744 1452.8,-855.952 1464.54,-834.774 1470.02,-807.629 1472.58,-787.708"/>
<polygon fill="black" stroke="black" points="1476.06,-788.072 1473.7,-777.745 1469.11,-787.293 1476.06,-788.072"/>
</g>
<!-- NH4+ -->
<g id="node87" class="node"><title>NH4+</title>
<ellipse fill="none" stroke="black" cx="1420.8" cy="-759.525" rx="18" ry="18"/>
<text text-anchor="middle" x="1420.8" y="-758.325" font-family="Times,serif" font-size="4.00">NH4+</text>
</g>
<!-- H2O&#45;&gt;NH4+ -->
<g id="edge7" class="edge"><title>H2O&#45;&gt;NH4+</title>
<path fill="none" stroke="black" d="M1295.99,-1073.64C1300.56,-1050.39 1309.74,-1007.7 1321.8,-972.5 1346.9,-899.3 1358.93,-883.101 1392.8,-813.525 1397.47,-803.942 1402.88,-793.543 1407.7,-784.516"/>
<polygon fill="black" stroke="black" points="1410.79,-786.16 1412.45,-775.696 1404.63,-782.843 1410.79,-786.16"/>
</g>
<!-- Fe2+ -->
<g id="node5" class="node"><title>Fe2+</title>
<ellipse fill="none" stroke="black" cx="475.803" cy="-1185.57" rx="18" ry="18"/>
<text text-anchor="middle" x="475.803" y="-1184.37" font-family="Times,serif" font-size="4.00">Fe2+</text>
</g>
<!-- Fe2+&#45;&gt;H2O -->
<g id="edge10" class="edge"><title>Fe2+&#45;&gt;H2O</title>
<path fill="none" stroke="black" d="M492.524,-1178.55C506.55,-1173.8 527.213,-1167.46 545.803,-1164.35 624.808,-1151.16 1194.97,-1165.76 1265.8,-1128.35 1271.03,-1125.59 1275.54,-1121.32 1279.3,-1116.68"/>
<polygon fill="black" stroke="black" points="1282.38,-1118.38 1285.23,-1108.18 1276.64,-1114.37 1282.38,-1118.38"/>
</g>
<!-- H+ -->
<g id="node7" class="node"><title>H+</title>
<ellipse fill="none" stroke="black" cx="1206.8" cy="-398.402" rx="18" ry="18"/>
<text text-anchor="middle" x="1206.8" y="-397.202" font-family="Times,serif" font-size="4.00">H+</text>
</g>
<!-- Fe2+&#45;&gt;H+ -->
<g id="edge14" class="edge"><title>Fe2+&#45;&gt;H+</title>
<path fill="none" stroke="black" d="M482.216,-1168.32C507.331,-1105.09 599.927,-875.895 646.803,-813.525 787.756,-625.985 828.647,-569.733 1031.8,-452.402 1079.51,-424.85 1142.96,-410.296 1178.88,-403.78"/>
<polygon fill="black" stroke="black" points="1179.84,-407.166 1189.1,-402.01 1178.65,-400.269 1179.84,-407.166"/>
</g>
<!-- Fe2+&#45;&gt;Heme -->
<g id="edge13" class="edge"><title>Fe2+&#45;&gt;Heme</title>
<path fill="none" stroke="black" d="M493.677,-1183.12C587.063,-1176.07 1013.25,-1145.02 1035.8,-1128.35 1069.81,-1103.22 1082.92,-1053.05 1090.56,-1022.46"/>
<polygon fill="black" stroke="black" points="1094.01,-1023.08 1093.06,-1012.53 1087.22,-1021.37 1094.01,-1023.08"/>
</g>
<!-- Fe(3+)O(OH) -->
<g id="node24" class="node"><title>Fe(3+)O(OH)</title>
<ellipse fill="none" stroke="black" cx="634.803" cy="-322.659" rx="21.9898" ry="21.9898"/>
<text text-anchor="middle" x="634.803" y="-321.459" font-family="Times,serif" font-size="4.00">Fe(3+)O(OH)</text>
</g>
<!-- Fe2+&#45;&gt;Fe(3+)O(OH) -->
<g id="edge12" class="edge"><title>Fe2+&#45;&gt;Fe(3+)O(OH)</title>
<path fill="none" stroke="black" d="M478.087,-1167.37C481.439,-1142.54 488.029,-1095.24 494.803,-1055.17 540.91,-782.388 607.737,-454.611 628.445,-354.3"/>
<polygon fill="black" stroke="black" points="631.925,-354.756 630.522,-344.255 625.07,-353.339 631.925,-354.756"/>
</g>
<!-- Fe3+ -->
<g id="node55" class="node"><title>Fe3+</title>
<ellipse fill="none" stroke="black" cx="441.803" cy="-322.659" rx="18" ry="18"/>
<text text-anchor="middle" x="441.803" y="-321.459" font-family="Times,serif" font-size="4.00">Fe3+</text>
</g>
<!-- Fe2+&#45;&gt;Fe3+ -->
<g id="edge11" class="edge"><title>Fe2+&#45;&gt;Fe3+</title>
<path fill="none" stroke="black" d="M457.996,-1182.57C377.968,-1172.76 57.6706,-1130.09 55.8031,-1128.35 12.0131,-1087.68 27.8031,-1056.6 27.8031,-996.834 27.8031,-996.834 27.8031,-996.834 27.8031,-469.402 27.8031,-388.087 320.505,-339.697 413.769,-327.019"/>
<polygon fill="black" stroke="black" points="414.424,-330.463 423.879,-325.681 413.506,-323.523 414.424,-330.463"/>
</g>
<!-- Reactive Oxygen Species -->
<g id="node58" class="node"><title>Reactive Oxygen Species</title>
<ellipse fill="none" stroke="black" cx="200.803" cy="-1091.76" rx="35.0036" ry="35.0036"/>
<text text-anchor="middle" x="200.803" y="-1090.56" font-family="Times,serif" font-size="4.00">Reactive Oxygen Species</text>
</g>
<!-- Fe2+&#45;&gt;Reactive Oxygen Species -->
<g id="edge9" class="edge"><title>Fe2+&#45;&gt;Reactive Oxygen Species</title>
<path fill="none" stroke="black" d="M459.015,-1178.96C416.927,-1164.91 305.874,-1127.84 243.995,-1107.18"/>
<polygon fill="black" stroke="black" points="244.732,-1103.74 234.138,-1103.89 242.515,-1110.38 244.732,-1103.74"/>
</g>
<!-- FTL -->
<g id="node6" class="node"><title>FTL</title>
<ellipse fill="none" stroke="black" cx="247.803" cy="-1384.85" rx="18" ry="18"/>
<text text-anchor="middle" x="247.803" y="-1383.65" font-family="Times,serif" font-size="4.00">FTL</text>
</g>
<!-- Ferritin -->
<g id="node53" class="node"><title>Ferritin</title>
<ellipse fill="none" stroke="black" cx="209.803" cy="-1278.84" rx="18" ry="18"/>
<text text-anchor="middle" x="209.803" y="-1277.64" font-family="Times,serif" font-size="4.00">Ferritin</text>
</g>
<!-- FTL&#45;&gt;Ferritin -->
<g id="edge15" class="edge"><title>FTL&#45;&gt;Ferritin</title>
<path fill="none" stroke="black" d="M241.866,-1367.6C235.786,-1350.96 226.249,-1324.85 219.155,-1305.44"/>
<polygon fill="black" stroke="black" points="222.418,-1304.17 215.699,-1295.98 215.843,-1306.57 222.418,-1304.17"/>
</g>
<!-- H+&#45;&gt;H2O -->
<g id="edge17" class="edge"><title>H+&#45;&gt;H2O</title>
<path fill="none" stroke="black" d="M1207.05,-416.453C1207.55,-446.01 1208.88,-508.666 1211.8,-561.525 1214.89,-617.173 1221.8,-630.792 1221.8,-686.525 1221.8,-760.525 1221.8,-760.525 1221.8,-760.525 1221.8,-876.219 1263.97,-1009.72 1283.31,-1064.87"/>
<polygon fill="black" stroke="black" points="1280.1,-1066.29 1286.75,-1074.53 1286.69,-1063.94 1280.1,-1066.29"/>
</g>
<!-- H+&#45;&gt;Fe(3+)O(OH) -->
<g id="edge16" class="edge"><title>H+&#45;&gt;Fe(3+)O(OH)</title>
<path fill="none" stroke="black" d="M1189.06,-395.114C1107.93,-384.655 771.798,-341.32 666.495,-327.745"/>
<polygon fill="black" stroke="black" points="666.847,-324.261 656.482,-326.454 665.952,-331.204 666.847,-324.261"/>
</g>
<!-- dALA -->
<g id="node32" class="node"><title>dALA</title>
<ellipse fill="none" stroke="black" cx="1649.8" cy="-914.226" rx="18" ry="18"/>
<text text-anchor="middle" x="1649.8" y="-913.026" font-family="Times,serif" font-size="4.00">dALA</text>
</g>
<!-- H+&#45;&gt;dALA -->
<g id="edge21" class="edge"><title>H+&#45;&gt;dALA</title>
<path fill="none" stroke="black" d="M1219.39,-411.285C1256.85,-453.173 1368.64,-597.264 1472.8,-705.525 1522.32,-756.994 1545.1,-759.49 1591.8,-813.525 1611.93,-836.817 1631.13,-866.399 1642.04,-887.271"/>
<polygon fill="black" stroke="black" points="1639.02,-889.051 1646.58,-896.474 1645.3,-885.956 1639.02,-889.051"/>
</g>
<!-- H+&#45;&gt;Fe3+ -->
<g id="edge18" class="edge"><title>H+&#45;&gt;Fe3+</title>
<path fill="none" stroke="black" d="M1188.52,-396.062C1115.06,-390.618 834.191,-369.267 603.803,-344.402 556.693,-339.318 502.058,-332.032 469.795,-327.586"/>
<polygon fill="black" stroke="black" points="470.141,-324.1 459.755,-326.194 469.18,-331.034 470.141,-324.1"/>
</g>
<!-- CoA&#45;SH -->
<g id="node67" class="node"><title>CoA&#45;SH</title>
<ellipse fill="none" stroke="black" cx="1942.8" cy="-322.659" rx="18" ry="18"/>
<text text-anchor="middle" x="1942.8" y="-321.459" font-family="Times,serif" font-size="4.00">CoA&#45;SH</text>
</g>
<!-- H+&#45;&gt;CoA&#45;SH -->
<g id="edge20" class="edge"><title>H+&#45;&gt;CoA&#45;SH</title>
<path fill="none" stroke="black" d="M1224.99,-395.783C1294.54,-389.565 1550.36,-366.46 1760.8,-344.402 1815.41,-338.679 1879.13,-331.241 1914.85,-327.004"/>
<polygon fill="black" stroke="black" points="1915.47,-330.455 1924.99,-325.798 1914.65,-323.504 1915.47,-330.455"/>
</g>
<!-- CO2 -->
<g id="node81" class="node"><title>CO2</title>
<ellipse fill="none" stroke="black" cx="1733.8" cy="-322.659" rx="18" ry="18"/>
<text text-anchor="middle" x="1733.8" y="-321.459" font-family="Times,serif" font-size="4.00">CO2</text>
</g>
<!-- H+&#45;&gt;CO2 -->
<g id="edge19" class="edge"><title>H+&#45;&gt;CO2</title>
<path fill="none" stroke="black" d="M1224.64,-394.906C1302.29,-384.041 1611.19,-340.816 1705.99,-327.551"/>
<polygon fill="black" stroke="black" points="1706.55,-331.006 1715.97,-326.154 1705.58,-324.074 1706.55,-331.006"/>
</g>
<!-- PBG -->
<g id="node9" class="node"><title>PBG</title>
<ellipse fill="none" stroke="black" cx="1555.8" cy="-834.739" rx="18" ry="18"/>
<text text-anchor="middle" x="1555.8" y="-833.539" font-family="Times,serif" font-size="4.00">PBG</text>
</g>
<!-- PBG&#45;&gt;HMBL -->
<g id="edge23" class="edge"><title>PBG&#45;&gt;HMBL</title>
<path fill="none" stroke="black" d="M1542.79,-821.976C1530.04,-810.448 1510.4,-792.697 1495.5,-779.232"/>
<polygon fill="black" stroke="black" points="1497.55,-776.368 1487.78,-772.259 1492.86,-781.561 1497.55,-776.368"/>
</g>
<!-- PBG&#45;&gt;NH4+ -->
<g id="edge22" class="edge"><title>PBG&#45;&gt;NH4+</title>
<path fill="none" stroke="black" d="M1539.84,-825.946C1518.58,-815.444 1479.89,-795.935 1447.8,-777.525 1446.67,-776.874 1445.51,-776.198 1444.35,-775.508"/>
<polygon fill="black" stroke="black" points="1445.88,-772.34 1435.52,-770.1 1442.22,-778.309 1445.88,-772.34"/>
</g>
<!-- TFRC_TF -->
<g id="node11" class="node"><title>TFRC_TF</title>
<ellipse fill="none" stroke="black" cx="422.803" cy="-94.3363" rx="18.0625" ry="18.0625"/>
<text text-anchor="middle" x="422.803" y="-93.1363" font-family="Times,serif" font-size="4.00">TFRC_TF</text>
</g>
<!-- TFRC -->
<g id="node36" class="node"><title>TFRC</title>
<ellipse fill="none" stroke="black" cx="394.803" cy="-20.1525" rx="18" ry="18"/>
<text text-anchor="middle" x="394.803" y="-18.9525" font-family="Times,serif" font-size="4.00">TFRC</text>
</g>
<!-- TFRC_TF&#45;&gt;TFRC -->
<g id="edge25" class="edge"><title>TFRC_TF&#45;&gt;TFRC</title>
<path fill="none" stroke="black" d="M416.589,-77.3164C413.109,-68.3448 408.688,-56.9471 404.739,-46.767"/>
<polygon fill="black" stroke="black" points="407.879,-45.1851 401,-37.1277 401.353,-47.7166 407.879,-45.1851"/>
</g>
<!-- Transferrin -->
<g id="node48" class="node"><title>Transferrin</title>
<ellipse fill="none" stroke="black" cx="459.803" cy="-20.1525" rx="20.3062" ry="20.3062"/>
<text text-anchor="middle" x="459.803" y="-18.9525" font-family="Times,serif" font-size="4.00">Transferrin</text>
</g>
<!-- TFRC_TF&#45;&gt;Transferrin -->
<g id="edge24" class="edge"><title>TFRC_TF&#45;&gt;Transferrin</title>
<path fill="none" stroke="black" d="M430.65,-78.028C435.197,-69.1562 441.048,-57.7428 446.313,-47.4714"/>
<polygon fill="black" stroke="black" points="449.482,-48.9609 450.929,-38.4653 443.253,-45.7678 449.482,-48.9609"/>
</g>
<!-- BACH1 -->
<g id="node12" class="node"><title>BACH1</title>
<ellipse fill="none" stroke="black" cx="1064.8" cy="-1482.9" rx="18" ry="18"/>
<text text-anchor="middle" x="1064.8" y="-1481.7" font-family="Times,serif" font-size="4.00">BACH1</text>
</g>
<!-- BACH1/Maf -->
<g id="node23" class="node"><title>BACH1/Maf</title>
<ellipse fill="none" stroke="black" cx="1064.8" cy="-1384.85" rx="21.4286" ry="21.4286"/>
<text text-anchor="middle" x="1064.8" y="-1383.65" font-family="Times,serif" font-size="4.00">BACH1/Maf</text>
</g>
<!-- BACH1&#45;&gt;BACH1/Maf -->
<g id="edge26" class="edge"><title>BACH1&#45;&gt;BACH1/Maf</title>
<path fill="none" stroke="black" d="M1064.8,-1464.72C1064.8,-1451.4 1064.8,-1432.57 1064.8,-1416.65"/>
<polygon fill="black" stroke="black" points="1068.3,-1416.2 1064.8,-1406.2 1061.3,-1416.2 1068.3,-1416.2"/>
</g>
<!-- Heme&#45;&gt;H2O -->
<g id="edge30" class="edge"><title>Heme&#45;&gt;H2O</title>
<path fill="none" stroke="black" d="M1116.12,-1004.18C1123.69,-1009.04 1132.33,-1015.22 1140.8,-1019.17 1196.7,-1045.21 1223.63,-1020.75 1274.8,-1055.17 1278.82,-1057.87 1282.49,-1061.37 1285.6,-1065.12"/>
<polygon fill="black" stroke="black" points="1282.86,-1067.32 1291.46,-1073.52 1288.6,-1063.31 1282.86,-1067.32"/>
</g>
<!-- Heme&#45;&gt;Fe2+ -->
<g id="edge32" class="edge"><title>Heme&#45;&gt;Fe2+</title>
<path fill="none" stroke="black" d="M1103.58,-1013.89C1103.34,-1042.73 1091.22,-1100.69 1053.8,-1128.35 1031.59,-1144.77 617.84,-1175.14 504.3,-1182.78"/>
<polygon fill="black" stroke="black" points="503.727,-1179.31 493.981,-1183.47 504.192,-1186.3 503.727,-1179.31"/>
</g>
<!-- Heme&#45;&gt;Pi -->
<g id="edge36" class="edge"><title>Heme&#45;&gt;Pi</title>
<path fill="none" stroke="black" d="M1092.3,-979.106C1086.99,-967.984 1079.76,-952.846 1073.68,-940.098"/>
<polygon fill="black" stroke="black" points="1076.76,-938.438 1069.3,-930.921 1070.44,-941.453 1076.76,-938.438"/>
</g>
<!-- Heme&#45;&gt;ADP -->
<g id="edge35" class="edge"><title>Heme&#45;&gt;ADP</title>
<path fill="none" stroke="black" d="M1084.89,-985.702C1062.58,-972.038 1020.29,-946.14 993.652,-929.83"/>
<polygon fill="black" stroke="black" points="995.298,-926.734 984.942,-924.497 991.642,-932.704 995.298,-926.734"/>
</g>
<!-- CO -->
<g id="node28" class="node"><title>CO</title>
<ellipse fill="none" stroke="black" cx="1443.8" cy="-914.226" rx="18" ry="18"/>
<text text-anchor="middle" x="1443.8" y="-913.026" font-family="Times,serif" font-size="4.00">CO</text>
</g>
<!-- Heme&#45;&gt;CO -->
<g id="edge31" class="edge"><title>Heme&#45;&gt;CO</title>
<path fill="none" stroke="black" d="M1117.56,-991.599C1161.35,-983.499 1277.97,-961.217 1373.8,-936.5 1388.26,-932.77 1404.21,-927.979 1417.22,-923.888"/>
<polygon fill="black" stroke="black" points="1418.48,-927.161 1426.94,-920.791 1416.35,-920.491 1418.48,-927.161"/>
</g>
<!-- Heme&#45;&gt;dALA -->
<g id="edge29" class="edge"><title>Heme&#45;&gt;dALA</title>
<path fill="none" stroke="black" d="M1117.48,-992.276C1197.23,-980.732 1523.89,-933.451 1621.88,-919.267"/>
<polygon fill="black" stroke="black" points="1622.52,-922.711 1631.92,-917.815 1621.52,-915.783 1622.52,-922.711"/>
</g>
<!-- Biliverdin -->
<g id="node34" class="node"><title>Biliverdin</title>
<ellipse fill="none" stroke="black" cx="673.803" cy="-914.226" rx="19.1842" ry="19.1842"/>
<text text-anchor="middle" x="673.803" y="-913.026" font-family="Times,serif" font-size="4.00">Biliverdin</text>
</g>
<!-- Heme&#45;&gt;Biliverdin -->
<g id="edge34" class="edge"><title>Heme&#45;&gt;Biliverdin</title>
<path fill="none" stroke="black" d="M1082.31,-991.565C1016.68,-979.3 784.697,-935.949 702.742,-920.634"/>
<polygon fill="black" stroke="black" points="703.112,-917.142 692.639,-918.746 701.826,-924.023 703.112,-917.142"/>
</g>
<!-- NADP+ -->
<g id="node56" class="node"><title>NADP+</title>
<ellipse fill="none" stroke="black" cx="673.803" cy="-834.739" rx="18" ry="18"/>
<text text-anchor="middle" x="673.803" y="-833.539" font-family="Times,serif" font-size="4.00">NADP+</text>
</g>
<!-- Heme&#45;&gt;NADP+ -->
<g id="edge33" class="edge"><title>Heme&#45;&gt;NADP+</title>
<path fill="none" stroke="black" d="M1103.64,-978.001C1107.74,-955.204 1110.97,-914.748 1088.8,-891.952 1035.15,-836.768 786.391,-834.413 701.941,-835.249"/>
<polygon fill="black" stroke="black" points="701.769,-831.751 691.813,-835.373 701.855,-838.75 701.769,-831.751"/>
</g>
<!-- Heme&#45;&gt;CoA&#45;SH -->
<g id="edge28" class="edge"><title>Heme&#45;&gt;CoA&#45;SH</title>
<path fill="none" stroke="black" d="M1117.18,-990.628C1153.01,-981.802 1237.56,-960.195 1306.8,-936.5 1356.71,-919.421 1366.4,-907.498 1416.8,-891.952 1619.21,-829.521 1847.8,-900.346 1847.8,-688.525 1847.8,-688.525 1847.8,-688.525 1847.8,-541.964 1847.8,-464.667 1898.5,-383.807 1925.82,-345.837"/>
<polygon fill="black" stroke="black" points="1928.81,-347.688 1931.91,-337.556 1923.16,-343.543 1928.81,-347.688"/>
</g>
<!-- Heme&#45;&gt;CO2 -->
<g id="edge27" class="edge"><title>Heme&#45;&gt;CO2</title>
<path fill="none" stroke="black" d="M1116.05,-987.563C1155.21,-970.141 1258.08,-925.004 1345.8,-891.952 1392.76,-874.261 1406.92,-876.267 1452.8,-855.952 1488.18,-840.289 1494.13,-830.672 1528.8,-813.525 1564.85,-795.703 1584.3,-806.853 1611.8,-777.525 1687.27,-697.065 1695.8,-654.278 1695.8,-543.964 1695.8,-543.964 1695.8,-543.964 1695.8,-469.402 1695.8,-426.086 1711.71,-377.801 1722.95,-349.117"/>
<polygon fill="black" stroke="black" points="1726.34,-350.064 1726.83,-339.481 1719.85,-347.445 1726.34,-350.064"/>
</g>
<!-- MAF -->
<g id="node14" class="node"><title>MAF</title>
<ellipse fill="none" stroke="black" cx="989.803" cy="-1482.9" rx="18" ry="18"/>
<text text-anchor="middle" x="989.803" y="-1481.7" font-family="Times,serif" font-size="4.00">MAF</text>
</g>
<!-- MAF&#45;&gt;BACH1/Maf -->
<g id="edge38" class="edge"><title>MAF&#45;&gt;BACH1/Maf</title>
<path fill="none" stroke="black" d="M1000.55,-1468.13C1012.35,-1453.02 1031.53,-1428.46 1045.87,-1410.1"/>
<polygon fill="black" stroke="black" points="1048.67,-1412.19 1052.07,-1402.15 1043.16,-1407.88 1048.67,-1412.19"/>
</g>
<!-- Nrf2/Maf -->
<g id="node39" class="node"><title>Nrf2/Maf</title>
<ellipse fill="none" stroke="black" cx="969.803" cy="-1384.85" rx="18.0625" ry="18.0625"/>
<text text-anchor="middle" x="969.803" y="-1383.65" font-family="Times,serif" font-size="4.00">Nrf2/Maf</text>
</g>
<!-- MAF&#45;&gt;Nrf2/Maf -->
<g id="edge37" class="edge"><title>MAF&#45;&gt;Nrf2/Maf</title>
<path fill="none" stroke="black" d="M986.319,-1465.16C983.298,-1450.65 978.871,-1429.39 975.36,-1412.54"/>
<polygon fill="black" stroke="black" points="978.779,-1411.78 973.314,-1402.71 971.926,-1413.21 978.779,-1411.78"/>
</g>
<!-- Ubiquitin Ligase Complex -->
<g id="node15" class="node"><title>Ubiquitin Ligase Complex</title>
<ellipse fill="none" stroke="black" cx="1234.8" cy="-1278.84" rx="36.125" ry="36.125"/>
<text text-anchor="middle" x="1234.8" y="-1277.64" font-family="Times,serif" font-size="4.00">Ubiquitin Ligase Complex</text>
</g>
<!-- NRF2 -->
<g id="node78" class="node"><title>NRF2</title>
<ellipse fill="none" stroke="black" cx="754.803" cy="-1482.9" rx="18" ry="18"/>
<text text-anchor="middle" x="754.803" y="-1481.7" font-family="Times,serif" font-size="4.00">NRF2</text>
</g>
<!-- Ubiquitin Ligase Complex&#45;&gt;NRF2 -->
<g id="edge39" class="edge"><title>Ubiquitin Ligase Complex&#45;&gt;NRF2</title>
<path fill="none" stroke="black" d="M1207.97,-1303.75C1202.26,-1307.95 1196.06,-1311.92 1189.8,-1314.91 1125.97,-1345.35 1091.35,-1308.42 1034.8,-1350.91 1007.16,-1371.67 1024.16,-1397.65 996.803,-1418.79 932.117,-1468.76 831.695,-1479.36 783.08,-1481.47"/>
<polygon fill="black" stroke="black" points="782.851,-1477.98 772.977,-1481.82 783.091,-1484.98 782.851,-1477.98"/>
</g>
<!-- ABCG2 -->
<g id="node16" class="node"><title>ABCG2</title>
<ellipse fill="none" stroke="black" cx="963.803" cy="-1091.76" rx="18" ry="18"/>
<text text-anchor="middle" x="963.803" y="-1090.56" font-family="Times,serif" font-size="4.00">ABCG2</text>
</g>
<!-- ABCG2&#45;&gt;Pi -->
<g id="edge42" class="edge"><title>ABCG2&#45;&gt;Pi</title>
<path fill="none" stroke="black" d="M972.159,-1075.8C989.112,-1045.43 1027.69,-976.336 1048.27,-939.465"/>
<polygon fill="black" stroke="black" points="1051.51,-940.841 1053.33,-930.403 1045.4,-937.428 1051.51,-940.841"/>
</g>
<!-- ABCG2&#45;&gt;ADP -->
<g id="edge40" class="edge"><title>ABCG2&#45;&gt;ADP</title>
<path fill="none" stroke="black" d="M964.389,-1073.61C965.429,-1043.2 967.603,-979.578 968.857,-942.898"/>
<polygon fill="black" stroke="black" points="972.371,-942.56 969.214,-932.446 965.375,-942.321 972.371,-942.56"/>
</g>
<!-- ABCG2&#45;&gt;Heme -->
<g id="edge41" class="edge"><title>ABCG2&#45;&gt;Heme</title>
<path fill="none" stroke="black" d="M972.676,-1075.9C977.392,-1068.93 983.684,-1060.92 990.803,-1055.17 1020.19,-1031.43 1035.08,-1038.05 1067.8,-1019.17 1070.95,-1017.35 1074.18,-1015.32 1077.33,-1013.24"/>
<polygon fill="black" stroke="black" points="1079.57,-1015.94 1085.81,-1007.38 1075.59,-1010.18 1079.57,-1015.94"/>
</g>
<!-- SLC11A2 -->
<g id="node17" class="node"><title>SLC11A2</title>
<ellipse fill="none" stroke="black" cx="689.803" cy="-1278.84" rx="18.0625" ry="18.0625"/>
<text text-anchor="middle" x="689.803" y="-1277.64" font-family="Times,serif" font-size="4.00">SLC11A2</text>
</g>
<!-- SLC11A2&#45;&gt;Fe2+ -->
<g id="edge43" class="edge"><title>SLC11A2&#45;&gt;Fe2+</title>
<path fill="none" stroke="black" d="M681.372,-1262.54C676.761,-1255.52 670.429,-1247.68 662.803,-1242.78 603.315,-1204.53 573.058,-1234.05 507.803,-1206.78 504.711,-1205.49 501.581,-1203.91 498.551,-1202.21"/>
<polygon fill="black" stroke="black" points="500.252,-1199.15 489.897,-1196.91 496.595,-1205.11 500.252,-1199.15"/>
</g>
<!-- Pb2+ -->
<g id="node18" class="node"><title>Pb2+</title>
<ellipse fill="none" stroke="black" cx="1238.8" cy="-1091.76" rx="18" ry="18"/>
<text text-anchor="middle" x="1238.8" y="-1090.56" font-family="Times,serif" font-size="4.00">Pb2+</text>
</g>
<!-- Pb2+&#45;&gt;H+ -->
<g id="edge44" class="edge"><title>Pb2+&#45;&gt;H+</title>
<path fill="none" stroke="black" d="M1232.26,-1074.6C1211.09,-1020.77 1145.8,-842.268 1145.8,-688.525 1145.8,-688.525 1145.8,-688.525 1145.8,-541.964 1145.8,-496.493 1172.36,-448.964 1190.43,-421.888"/>
<polygon fill="black" stroke="black" points="1193.4,-423.745 1196.18,-413.522 1187.63,-419.779 1193.4,-423.745"/>
</g>
<!-- Pb2+&#45;&gt;Heme -->
<g id="edge45" class="edge"><title>Pb2+&#45;&gt;Heme</title>
<path fill="none" stroke="black" d="M1229.97,-1075.85C1225.26,-1068.88 1218.96,-1060.87 1211.8,-1055.17 1181.3,-1030.89 1165.71,-1038.41 1131.8,-1019.17 1128.64,-1017.38 1125.4,-1015.35 1122.25,-1013.28"/>
<polygon fill="black" stroke="black" points="1123.99,-1010.22 1113.77,-1007.43 1120.02,-1015.99 1123.99,-1010.22"/>
</g>
<!-- NCOA4 -->
<g id="node19" class="node"><title>NCOA4</title>
<ellipse fill="none" stroke="black" cx="1121.8" cy="-1567.69" rx="18" ry="18"/>
<text text-anchor="middle" x="1121.8" y="-1566.49" font-family="Times,serif" font-size="4.00">NCOA4</text>
</g>
<!-- CUL3_RBX1 -->
<g id="node20" class="node"><title>CUL3_RBX1</title>
<ellipse fill="none" stroke="black" cx="1137.8" cy="-1482.9" rx="21.9898" ry="21.9898"/>
<text text-anchor="middle" x="1137.8" y="-1481.7" font-family="Times,serif" font-size="4.00">CUL3_RBX1</text>
</g>
<!-- Neddylated CUL3_RBX1 -->
<g id="node75" class="node"><title>Neddylated CUL3_RBX1</title>
<ellipse fill="none" stroke="black" cx="1137.8" cy="-1384.85" rx="33.8824" ry="33.8824"/>
<text text-anchor="middle" x="1137.8" y="-1383.65" font-family="Times,serif" font-size="4.00">Neddylated CUL3_RBX1</text>
</g>
<!-- CUL3_RBX1&#45;&gt;Neddylated CUL3_RBX1 -->
<g id="edge46" class="edge"><title>CUL3_RBX1&#45;&gt;Neddylated CUL3_RBX1</title>
<path fill="none" stroke="black" d="M1137.8,-1461.05C1137.8,-1451.68 1137.8,-1440.24 1137.8,-1429.14"/>
<polygon fill="black" stroke="black" points="1141.3,-1429.11 1137.8,-1419.11 1134.3,-1429.11 1141.3,-1429.11"/>
</g>
<!-- HMOX1 -->
<g id="node21" class="node"><title>HMOX1</title>
<ellipse fill="none" stroke="black" cx="956.803" cy="-1278.84" rx="18" ry="18"/>
<text text-anchor="middle" x="956.803" y="-1277.64" font-family="Times,serif" font-size="4.00">HMOX1</text>
</g>
<!-- HMOX1&#45;&gt;H2O -->
<g id="edge47" class="edge"><title>HMOX1&#45;&gt;H2O</title>
<path fill="none" stroke="black" d="M973.43,-1271.02C1030.26,-1247.52 1216.01,-1169.13 1265.8,-1128.35 1270.23,-1124.73 1274.34,-1120.24 1277.96,-1115.68"/>
<polygon fill="black" stroke="black" points="1280.81,-1117.72 1283.9,-1107.58 1275.16,-1113.58 1280.81,-1117.72"/>
</g>
<!-- HMOX1&#45;&gt;Fe2+ -->
<g id="edge49" class="edge"><title>HMOX1&#45;&gt;Fe2+</title>
<path fill="none" stroke="black" d="M940.261,-1271.66C918.934,-1263.91 880.57,-1250.67 846.803,-1242.78 720.532,-1213.29 566.329,-1195.67 503.969,-1189.3"/>
<polygon fill="black" stroke="black" points="504.056,-1185.79 493.756,-1188.27 503.355,-1192.75 504.056,-1185.79"/>
</g>
<!-- HMOX1&#45;&gt;CO -->
<g id="edge48" class="edge"><title>HMOX1&#45;&gt;CO</title>
<path fill="none" stroke="black" d="M974.165,-1273.78C1045.2,-1256.84 1312.66,-1189.85 1370.8,-1128.35 1420.82,-1075.45 1436.7,-986.793 1441.64,-942.352"/>
<polygon fill="black" stroke="black" points="1445.13,-942.606 1442.65,-932.305 1438.16,-941.904 1445.13,-942.606"/>
</g>
<!-- HMOX1&#45;&gt;Biliverdin -->
<g id="edge51" class="edge"><title>HMOX1&#45;&gt;Biliverdin</title>
<path fill="none" stroke="black" d="M939.769,-1272C918.247,-1264.7 880.004,-1252.07 846.803,-1242.78 781.195,-1224.42 742.104,-1258.54 697.803,-1206.78 664.485,-1167.86 668.778,-1009.18 672.092,-943.695"/>
<polygon fill="black" stroke="black" points="675.59,-943.835 672.63,-933.662 668.6,-943.46 675.59,-943.835"/>
</g>
<!-- HMOX1&#45;&gt;NADP+ -->
<g id="edge50" class="edge"><title>HMOX1&#45;&gt;NADP+</title>
<path fill="none" stroke="black" d="M939.417,-1273.37C909.756,-1264.95 848.987,-1244.13 811.803,-1206.78 763.146,-1157.91 736.024,-977.908 701.803,-891.952 697.569,-881.316 692.097,-869.948 687.116,-860.238"/>
<polygon fill="black" stroke="black" points="690.105,-858.401 682.362,-851.169 683.905,-861.651 690.105,-858.401"/>
</g>
<!-- MCOLN1 -->
<g id="node22" class="node"><title>MCOLN1</title>
<ellipse fill="none" stroke="black" cx="459.803" cy="-1278.84" rx="18.0625" ry="18.0625"/>
<text text-anchor="middle" x="459.803" y="-1277.64" font-family="Times,serif" font-size="4.00">MCOLN1</text>
</g>
<!-- MCOLN1&#45;&gt;Fe2+ -->
<g id="edge52" class="edge"><title>MCOLN1&#45;&gt;Fe2+</title>
<path fill="none" stroke="black" d="M462.813,-1260.67C465.151,-1247.33 468.438,-1228.58 471.12,-1213.28"/>
<polygon fill="black" stroke="black" points="474.582,-1213.8 472.861,-1203.35 467.687,-1212.6 474.582,-1213.8"/>
</g>
<!-- BACH1/Maf&#45;&gt;HMOX1 -->
<g id="edge53" class="edge"><title>BACH1/Maf&#45;&gt;HMOX1</title>
<path fill="none" stroke="black" d="M1049.79,-1369.39C1030.77,-1351.07 997.945,-1319.46 976.816,-1299.12"/>
<polygon fill="black" stroke="black" points="978.975,-1296.34 969.344,-1291.92 974.119,-1301.38 978.975,-1296.34"/>
</g>
<!-- FTH1 -->
<g id="node25" class="node"><title>FTH1</title>
<ellipse fill="none" stroke="black" cx="193.803" cy="-1384.85" rx="18" ry="18"/>
<text text-anchor="middle" x="193.803" y="-1383.65" font-family="Times,serif" font-size="4.00">FTH1</text>
</g>
<!-- FTH1&#45;&gt;Ferritin -->
<g id="edge54" class="edge"><title>FTH1&#45;&gt;Ferritin</title>
<path fill="none" stroke="black" d="M196.445,-1366.67C198.95,-1350.39 202.751,-1325.68 205.659,-1306.78"/>
<polygon fill="black" stroke="black" points="209.149,-1307.11 207.21,-1296.7 202.23,-1306.05 209.149,-1307.11"/>
</g>
<!-- e&#45; -->
<g id="node26" class="node"><title>e&#45;</title>
<ellipse fill="none" stroke="black" cx="513.803" cy="-1278.84" rx="18" ry="18"/>
<text text-anchor="middle" x="513.803" y="-1277.64" font-family="Times,serif" font-size="4.00">e&#45;</text>
</g>
<!-- e&#45;&#45;&gt;Fe2+ -->
<g id="edge55" class="edge"><title>e&#45;&#45;&gt;Fe2+</title>
<path fill="none" stroke="black" d="M507.184,-1261.94C501.443,-1248.16 493.032,-1227.95 486.362,-1211.93"/>
<polygon fill="black" stroke="black" points="489.549,-1210.48 482.474,-1202.59 483.086,-1213.17 489.549,-1210.48"/>
</g>
<!-- ATP -->
<g id="node27" class="node"><title>ATP</title>
<ellipse fill="none" stroke="black" cx="909.803" cy="-1091.76" rx="18" ry="18"/>
<text text-anchor="middle" x="909.803" y="-1090.56" font-family="Times,serif" font-size="4.00">ATP</text>
</g>
<!-- ATP&#45;&gt;Pi -->
<g id="edge58" class="edge"><title>ATP&#45;&gt;Pi</title>
<path fill="none" stroke="black" d="M920.286,-1076.88C925.274,-1070.29 931.33,-1062.31 936.803,-1055.17 965.067,-1018.29 969.546,-1006.88 1000.8,-972.5 1013.35,-958.701 1028.65,-944.339 1040.79,-933.448"/>
<polygon fill="black" stroke="black" points="1043.45,-935.765 1048.62,-926.513 1038.81,-930.526 1043.45,-935.765"/>
</g>
<!-- ATP&#45;&gt;ADP -->
<g id="edge56" class="edge"><title>ATP&#45;&gt;ADP</title>
<path fill="none" stroke="black" d="M909.404,-1073.6C909.45,-1049.93 911.699,-1006.35 925.803,-972.5 931.511,-958.8 941.346,-945.526 950.272,-935.211"/>
<polygon fill="black" stroke="black" points="953.025,-937.386 957.14,-927.623 947.835,-932.689 953.025,-937.386"/>
</g>
<!-- ATP&#45;&gt;Heme -->
<g id="edge57" class="edge"><title>ATP&#45;&gt;Heme</title>
<path fill="none" stroke="black" d="M918.448,-1075.6C923.11,-1068.57 929.423,-1060.58 936.803,-1055.17 978.537,-1024.56 1037.87,-1008.74 1072.25,-1001.66"/>
<polygon fill="black" stroke="black" points="1072.93,-1005.09 1082.07,-999.733 1071.58,-998.221 1072.93,-1005.09"/>
</g>
<!-- H2O2 -->
<g id="node29" class="node"><title>H2O2</title>
<ellipse fill="none" stroke="black" cx="1497.8" cy="-470.402" rx="18" ry="18"/>
<text text-anchor="middle" x="1497.8" y="-469.202" font-family="Times,serif" font-size="4.00">H2O2</text>
</g>
<!-- HMBS_DIPY -->
<g id="node30" class="node"><title>HMBS_DIPY</title>
<ellipse fill="none" stroke="black" cx="1422.8" cy="-834.739" rx="21.4286" ry="21.4286"/>
<text text-anchor="middle" x="1422.8" y="-833.539" font-family="Times,serif" font-size="4.00">HMBS_DIPY</text>
</g>
<!-- HMBS_DIPY&#45;&gt;HMBL -->
<g id="edge60" class="edge"><title>HMBS_DIPY&#45;&gt;HMBL</title>
<path fill="none" stroke="black" d="M1434.86,-816.758C1441.97,-806.759 1451.04,-793.985 1458.74,-783.14"/>
<polygon fill="black" stroke="black" points="1461.62,-785.126 1464.56,-774.946 1455.92,-781.072 1461.62,-785.126"/>
</g>
<!-- HMBS_DIPY&#45;&gt;NH4+ -->
<g id="edge59" class="edge"><title>HMBS_DIPY&#45;&gt;NH4+</title>
<path fill="none" stroke="black" d="M1422.25,-813.345C1422.03,-805.491 1421.78,-796.389 1421.55,-787.977"/>
<polygon fill="black" stroke="black" points="1425.05,-787.736 1421.28,-777.835 1418.05,-787.927 1425.05,-787.736"/>
</g>
<!-- STEAP3 -->
<g id="node31" class="node"><title>STEAP3</title>
<ellipse fill="none" stroke="black" cx="567.803" cy="-1278.84" rx="18" ry="18"/>
<text text-anchor="middle" x="567.803" y="-1277.64" font-family="Times,serif" font-size="4.00">STEAP3</text>
</g>
<!-- STEAP3&#45;&gt;Fe2+ -->
<g id="edge61" class="edge"><title>STEAP3&#45;&gt;Fe2+</title>
<path fill="none" stroke="black" d="M557.901,-1263.67C553.041,-1257.07 546.923,-1249.26 540.803,-1242.78 527.44,-1228.64 510.821,-1214.31 497.732,-1203.66"/>
<polygon fill="black" stroke="black" points="499.703,-1200.76 489.711,-1197.24 495.326,-1206.22 499.703,-1200.76"/>
</g>
<!-- dALA&#45;&gt;H2O -->
<g id="edge63" class="edge"><title>dALA&#45;&gt;H2O</title>
<path fill="none" stroke="black" d="M1633.78,-923.104C1577.22,-950.914 1386.64,-1044.62 1317.84,-1078.45"/>
<polygon fill="black" stroke="black" points="1316.03,-1075.44 1308.6,-1082.99 1319.12,-1081.72 1316.03,-1075.44"/>
</g>
<!-- dALA&#45;&gt;H+ -->
<g id="edge62" class="edge"><title>dALA&#45;&gt;H+</title>
<path fill="none" stroke="black" d="M1637.18,-900.892C1622.53,-881.361 1598.9,-842.556 1573.8,-813.525 1527.1,-759.49 1504.32,-756.994 1454.8,-705.525 1359.07,-606.02 1256.88,-476.248 1220.35,-423.382"/>
<polygon fill="black" stroke="black" points="1223.18,-421.323 1214.68,-415 1217.38,-425.245 1223.18,-421.323"/>
</g>
<!-- dALA&#45;&gt;PBG -->
<g id="edge64" class="edge"><title>dALA&#45;&gt;PBG</title>
<path fill="none" stroke="black" d="M1636.34,-902.124C1620.84,-889.35 1595.2,-868.211 1577.01,-853.222"/>
<polygon fill="black" stroke="black" points="1579.19,-850.48 1569.25,-846.82 1574.74,-855.882 1579.19,-850.48"/>
</g>
<!-- FLVCR1&#45;2 -->
<g id="node33" class="node"><title>FLVCR1&#45;2</title>
<ellipse fill="none" stroke="black" cx="1128.8" cy="-1091.76" rx="18.6233" ry="18.6233"/>
<text text-anchor="middle" x="1128.8" y="-1090.56" font-family="Times,serif" font-size="4.00">FLVCR1&#45;2</text>
</g>
<!-- FLVCR1&#45;2&#45;&gt;Heme -->
<g id="edge65" class="edge"><title>FLVCR1&#45;2&#45;&gt;Heme</title>
<path fill="none" stroke="black" d="M1123.48,-1073.53C1119.14,-1059.46 1112.92,-1039.33 1107.95,-1023.22"/>
<polygon fill="black" stroke="black" points="1111.19,-1021.85 1104.89,-1013.32 1104.5,-1023.91 1111.19,-1021.85"/>
</g>
<!-- Biliverdin&#45;&gt;NADP+ -->
<g id="edge66" class="edge"><title>Biliverdin&#45;&gt;NADP+</title>
<path fill="none" stroke="black" d="M673.803,-894.862C673.803,-885.33 673.803,-873.496 673.803,-862.926"/>
<polygon fill="black" stroke="black" points="677.303,-862.908 673.803,-852.908 670.303,-862.909 677.303,-862.908"/>
</g>
<!-- Bilirubin -->
<g id="node86" class="node"><title>Bilirubin</title>
<ellipse fill="none" stroke="black" cx="307.803" cy="-834.739" rx="18.0625" ry="18.0625"/>
<text text-anchor="middle" x="307.803" y="-833.539" font-family="Times,serif" font-size="4.00">Bilirubin</text>
</g>
<!-- Biliverdin&#45;&gt;Bilirubin -->
<g id="edge67" class="edge"><title>Biliverdin&#45;&gt;Bilirubin</title>
<path fill="none" stroke="black" d="M654.553,-913.099C601.387,-912.106 448.911,-904.87 334.803,-855.952 332.946,-855.156 331.1,-854.207 329.294,-853.162"/>
<polygon fill="black" stroke="black" points="330.996,-850.088 320.752,-847.383 327.074,-855.885 330.996,-850.088"/>
</g>
<!-- FECH -->
<g id="node35" class="node"><title>FECH</title>
<ellipse fill="none" stroke="black" cx="1017.8" cy="-1091.76" rx="18" ry="18"/>
<text text-anchor="middle" x="1017.8" y="-1090.56" font-family="Times,serif" font-size="4.00">FECH</text>
</g>
<!-- FECH&#45;&gt;H+ -->
<g id="edge68" class="edge"><title>FECH&#45;&gt;H+</title>
<path fill="none" stroke="black" d="M1017.47,-1073.32C1016.9,-1041.78 1015.8,-973.132 1015.8,-915.226 1015.8,-915.226 1015.8,-915.226 1015.8,-541.964 1015.8,-461.277 1126.62,-420.795 1179.44,-406.084"/>
<polygon fill="black" stroke="black" points="1180.42,-409.445 1189.18,-403.481 1178.61,-402.682 1180.42,-409.445"/>
</g>
<!-- FECH&#45;&gt;Heme -->
<g id="edge69" class="edge"><title>FECH&#45;&gt;Heme</title>
<path fill="none" stroke="black" d="M1029.2,-1077.7C1042.71,-1062.23 1065.4,-1036.24 1081.41,-1017.91"/>
<polygon fill="black" stroke="black" points="1084.29,-1019.92 1088.23,-1010.09 1079.02,-1015.32 1084.29,-1019.92"/>
</g>
<!-- TFRC_holoTF -->
<g id="node70" class="node"><title>TFRC_holoTF</title>
<ellipse fill="none" stroke="black" cx="418.803" cy="-170.641" rx="22.05" ry="22.05"/>
<text text-anchor="middle" x="418.803" y="-169.441" font-family="Times,serif" font-size="4.00">TFRC_holoTF</text>
</g>
<!-- TFRC&#45;&gt;TFRC_holoTF -->
<g id="edge70" class="edge"><title>TFRC&#45;&gt;TFRC_holoTF</title>
<path fill="none" stroke="black" d="M393.134,-38.1571C391.75,-56.6241 390.734,-86.8944 395.803,-112.368 397.738,-122.092 401.279,-132.269 405.012,-141.301"/>
<polygon fill="black" stroke="black" points="401.856,-142.819 409.072,-150.577 408.269,-140.013 401.856,-142.819"/>
</g>
<!-- SUCC&#45;CoA -->
<g id="node37" class="node"><title>SUCC&#45;CoA</title>
<ellipse fill="none" stroke="black" cx="1781.8" cy="-995.834" rx="20.3063" ry="20.3062"/>
<text text-anchor="middle" x="1781.8" y="-994.634" font-family="Times,serif" font-size="4.00">SUCC&#45;CoA</text>
</g>
<!-- SUCC&#45;CoA&#45;&gt;dALA -->
<g id="edge73" class="edge"><title>SUCC&#45;CoA&#45;&gt;dALA</title>
<path fill="none" stroke="black" d="M1764.82,-984.59C1741.65,-970.615 1700.01,-945.506 1673.7,-929.638"/>
<polygon fill="black" stroke="black" points="1675.46,-926.611 1665.09,-924.444 1671.84,-932.606 1675.46,-926.611"/>
</g>
<!-- SUCC&#45;CoA&#45;&gt;CoA&#45;SH -->
<g id="edge72" class="edge"><title>SUCC&#45;CoA&#45;&gt;CoA&#45;SH</title>
<path fill="none" stroke="black" d="M1797.15,-982.624C1826.08,-958.112 1885.8,-899.756 1885.8,-835.739 1885.8,-835.739 1885.8,-835.739 1885.8,-541.964 1885.8,-469.923 1915.22,-388.721 1931.79,-348.703"/>
<polygon fill="black" stroke="black" points="1935.03,-350.02 1935.7,-339.446 1928.58,-347.297 1935.03,-350.02"/>
</g>
<!-- SUCC&#45;CoA&#45;&gt;CO2 -->
<g id="edge71" class="edge"><title>SUCC&#45;CoA&#45;&gt;CO2</title>
<path fill="none" stroke="black" d="M1779.83,-975.757C1776.91,-945.921 1771.8,-886.384 1771.8,-835.739 1771.8,-835.739 1771.8,-835.739 1771.8,-469.402 1771.8,-426.086 1755.89,-377.801 1744.66,-349.117"/>
<polygon fill="black" stroke="black" points="1747.76,-347.445 1740.77,-339.481 1741.27,-350.064 1747.76,-347.445"/>
</g>
<!-- GPX4 -->
<g id="node38" class="node"><title>GPX4</title>
<ellipse fill="none" stroke="black" cx="145.803" cy="-995.834" rx="18" ry="18"/>
<text text-anchor="middle" x="145.803" y="-994.634" font-family="Times,serif" font-size="4.00">GPX4</text>
</g>
<!-- GPX4&#45;&gt;Lipid alcohol -->
<g id="edge74" class="edge"><title>GPX4&#45;&gt;Lipid alcohol</title>
<path fill="none" stroke="black" d="M146.671,-977.56C147.123,-968.574 147.689,-957.304 148.215,-946.827"/>
<polygon fill="black" stroke="black" points="151.716,-946.891 148.723,-936.728 144.725,-946.54 151.716,-946.891"/>
</g>
<!-- Nrf2/Maf&#45;&gt;HMOX1 -->
<g id="edge75" class="edge"><title>Nrf2/Maf&#45;&gt;HMOX1</title>
<path fill="none" stroke="black" d="M967.656,-1366.67C965.633,-1350.49 962.569,-1325.98 960.212,-1307.12"/>
<polygon fill="black" stroke="black" points="963.666,-1306.53 958.953,-1297.04 956.72,-1307.4 963.666,-1306.53"/>
</g>
<!-- NADPH -->
<g id="node40" class="node"><title>NADPH</title>
<ellipse fill="none" stroke="black" cx="819.803" cy="-1278.84" rx="18" ry="18"/>
<text text-anchor="middle" x="819.803" y="-1277.64" font-family="Times,serif" font-size="4.00">NADPH</text>
</g>
<!-- NADPH&#45;&gt;H2O -->
<g id="edge76" class="edge"><title>NADPH&#45;&gt;H2O</title>
<path fill="none" stroke="black" d="M818.759,-1260.86C818.23,-1235.52 821.419,-1188.23 849.803,-1164.35 920.812,-1104.62 1184.55,-1173.17 1265.8,-1128.35 1270.9,-1125.54 1275.32,-1121.33 1279.04,-1116.77"/>
<polygon fill="black" stroke="black" points="1282.02,-1118.6 1284.94,-1108.42 1276.31,-1114.56 1282.02,-1118.6"/>
</g>
<!-- NADPH&#45;&gt;Fe2+ -->
<g id="edge78" class="edge"><title>NADPH&#45;&gt;Fe2+</title>
<path fill="none" stroke="black" d="M811.724,-1262.7C807.125,-1255.54 800.698,-1247.54 792.803,-1242.78 712.083,-1194.11 676.574,-1223.45 583.803,-1206.78 556.374,-1201.85 525.079,-1195.97 503.263,-1191.82"/>
<polygon fill="black" stroke="black" points="503.851,-1188.37 493.373,-1189.94 502.541,-1195.25 503.851,-1188.37"/>
</g>
<!-- NADPH&#45;&gt;CO -->
<g id="edge77" class="edge"><title>NADPH&#45;&gt;CO</title>
<path fill="none" stroke="black" d="M836.913,-1272.25C858.513,-1265.23 896.837,-1252.87 929.803,-1242.78 951.395,-1236.17 1302.03,-1142.28 1319.8,-1128.35 1336.66,-1115.15 1402.89,-992.435 1431.04,-939.425"/>
<polygon fill="black" stroke="black" points="1434.24,-940.856 1435.83,-930.381 1428.06,-937.579 1434.24,-940.856"/>
</g>
<!-- NADPH&#45;&gt;Biliverdin -->
<g id="edge80" class="edge"><title>NADPH&#45;&gt;Biliverdin</title>
<path fill="none" stroke="black" d="M811.294,-1262.66C806.664,-1255.66 800.339,-1247.82 792.803,-1242.78 741.899,-1208.74 697.021,-1255.41 659.803,-1206.78 598.917,-1127.22 640.418,-996.668 662.481,-941.327"/>
<polygon fill="black" stroke="black" points="665.791,-942.478 666.345,-931.898 659.314,-939.823 665.791,-942.478"/>
</g>
<!-- NADPH&#45;&gt;NADP+ -->
<g id="edge79" class="edge"><title>NADPH&#45;&gt;NADP+</title>
<path fill="none" stroke="black" d="M811.381,-1262.52C806.772,-1255.5 800.439,-1247.67 792.803,-1242.78 732.141,-1203.96 687.964,-1255.37 634.803,-1206.78 595.479,-1170.84 597.803,-1146.04 597.803,-1092.76 597.803,-1092.76 597.803,-1092.76 597.803,-994.834 597.803,-941.064 633.586,-886.178 656.046,-857.024"/>
<polygon fill="black" stroke="black" points="658.801,-859.182 662.26,-849.168 653.311,-854.839 658.801,-859.182"/>
</g>
<!-- NADPH&#45;&gt;Bilirubin -->
<g id="edge81" class="edge"><title>NADPH&#45;&gt;Bilirubin</title>
<path fill="none" stroke="black" d="M811.921,-1262.35C807.372,-1255.11 800.931,-1247.13 792.803,-1242.78 689.507,-1187.49 381.978,-1228.27 266.803,-1206.78 151.077,-1185.19 83.6434,-1223.12 13.8031,-1128.35 -29.0961,-1070.14 42.2695,-912.845 64.8031,-891.952 96.0505,-862.98 222.881,-845.33 279.855,-838.717"/>
<polygon fill="black" stroke="black" points="280.412,-842.177 289.956,-837.576 279.626,-835.221 280.412,-842.177"/>
</g>
<!-- Gly -->
<g id="node41" class="node"><title>Gly</title>
<ellipse fill="none" stroke="black" cx="1837.8" cy="-995.834" rx="18" ry="18"/>
<text text-anchor="middle" x="1837.8" y="-994.634" font-family="Times,serif" font-size="4.00">Gly</text>
</g>
<!-- Gly&#45;&gt;dALA -->
<g id="edge84" class="edge"><title>Gly&#45;&gt;dALA</title>
<path fill="none" stroke="black" d="M1825.02,-982.714C1820.74,-979.085 1815.78,-975.323 1810.8,-972.5 1766.81,-947.516 1709.98,-930.402 1676.94,-921.759"/>
<polygon fill="black" stroke="black" points="1677.65,-918.329 1667.1,-919.252 1675.92,-925.112 1677.65,-918.329"/>
</g>
<!-- Gly&#45;&gt;CoA&#45;SH -->
<g id="edge83" class="edge"><title>Gly&#45;&gt;CoA&#45;SH</title>
<path fill="none" stroke="black" d="M1852.42,-985.01C1866.7,-974.635 1887.95,-956.964 1899.8,-936.5 1922.87,-896.66 1923.8,-881.774 1923.8,-835.739 1923.8,-835.739 1923.8,-835.739 1923.8,-541.964 1923.8,-485.813 1933.18,-472.363 1937.8,-416.402 1939.62,-394.371 1940.93,-369.339 1941.75,-350.838"/>
<polygon fill="black" stroke="black" points="1945.25,-350.911 1942.17,-340.772 1938.25,-350.615 1945.25,-350.911"/>
</g>
<!-- Gly&#45;&gt;CO2 -->
<g id="edge82" class="edge"><title>Gly&#45;&gt;CO2</title>
<path fill="none" stroke="black" d="M1832.93,-978.282C1824.9,-949.55 1809.8,-888.464 1809.8,-835.739 1809.8,-835.739 1809.8,-835.739 1809.8,-469.402 1809.8,-420.221 1775.36,-371.203 1752.84,-344.42"/>
<polygon fill="black" stroke="black" points="1755.21,-341.801 1746.01,-336.534 1749.92,-346.384 1755.21,-341.801"/>
</g>
<!-- NRF2_KEAP1 -->
<g id="node42" class="node"><title>NRF2_KEAP1</title>
<ellipse fill="none" stroke="black" cx="1320.8" cy="-1384.85" rx="22.6101" ry="22.6101"/>
<text text-anchor="middle" x="1320.8" y="-1383.65" font-family="Times,serif" font-size="4.00">NRF2_KEAP1</text>
</g>
<!-- NRF2_KEAP1&#45;&gt;Ubiquitin Ligase Complex -->
<g id="edge85" class="edge"><title>NRF2_KEAP1&#45;&gt;Ubiquitin Ligase Complex</title>
<path fill="none" stroke="black" d="M1306.6,-1366.67C1295.02,-1352.66 1278.27,-1332.41 1263.87,-1314.99"/>
<polygon fill="black" stroke="black" points="1266.51,-1312.7 1257.44,-1307.22 1261.12,-1317.16 1266.51,-1312.7"/>
</g>
<!-- Panhematin -->
<g id="node43" class="node"><title>Panhematin</title>
<ellipse fill="none" stroke="black" cx="1961.8" cy="-995.834" rx="20.8674" ry="20.8674"/>
<text text-anchor="middle" x="1961.8" y="-994.634" font-family="Times,serif" font-size="4.00">Panhematin</text>
</g>
<!-- Panhematin&#45;&gt;dALA -->
<g id="edge88" class="edge"><title>Panhematin&#45;&gt;dALA</title>
<path fill="none" stroke="black" d="M1941.81,-989.733C1887.78,-975.946 1738.74,-937.92 1677.07,-922.183"/>
<polygon fill="black" stroke="black" points="1677.84,-918.766 1667.28,-919.685 1676.1,-925.549 1677.84,-918.766"/>
</g>
<!-- Panhematin&#45;&gt;CoA&#45;SH -->
<g id="edge87" class="edge"><title>Panhematin&#45;&gt;CoA&#45;SH</title>
<path fill="none" stroke="black" d="M1969.31,-976.079C1980.39,-946.675 1999.8,-887.706 1999.8,-835.739 1999.8,-835.739 1999.8,-835.739 1999.8,-614.525 1999.8,-509.925 2008.16,-479.873 1975.8,-380.402 1971.92,-368.454 1965.26,-356.273 1958.93,-346.276"/>
<polygon fill="black" stroke="black" points="1961.75,-344.185 1953.31,-337.777 1955.91,-348.048 1961.75,-344.185"/>
</g>
<!-- Panhematin&#45;&gt;CO2 -->
<g id="edge86" class="edge"><title>Panhematin&#45;&gt;CO2</title>
<path fill="none" stroke="black" d="M1961.8,-974.742C1961.8,-944.562 1961.8,-885.732 1961.8,-835.739 1961.8,-835.739 1961.8,-835.739 1961.8,-541.964 1961.8,-431.36 1820.09,-359.466 1760.11,-333.991"/>
<polygon fill="black" stroke="black" points="1761.15,-330.63 1750.57,-330.037 1758.47,-337.098 1761.15,-330.63"/>
</g>
<!-- ABCC1 -->
<g id="node44" class="node"><title>ABCC1</title>
<ellipse fill="none" stroke="black" cx="91.8031" cy="-914.226" rx="18" ry="18"/>
<text text-anchor="middle" x="91.8031" y="-913.026" font-family="Times,serif" font-size="4.00">ABCC1</text>
</g>
<!-- ABCC1&#45;&gt;Bilirubin -->
<g id="edge89" class="edge"><title>ABCC1&#45;&gt;Bilirubin</title>
<path fill="none" stroke="black" d="M104.847,-901.33C109.071,-897.937 113.929,-894.478 118.803,-891.952 172.329,-864.207 241.658,-848.032 279.714,-840.639"/>
<polygon fill="black" stroke="black" points="280.841,-843.988 290.024,-838.703 279.55,-837.108 280.841,-843.988"/>
</g>
<!-- COPRO3 -->
<g id="node45" class="node"><title>COPRO3</title>
<ellipse fill="none" stroke="black" cx="1505.8" cy="-615.525" rx="18" ry="18"/>
<text text-anchor="middle" x="1505.8" y="-614.325" font-family="Times,serif" font-size="4.00">COPRO3</text>
</g>
<!-- COPRO3&#45;&gt;H2O2 -->
<g id="edge91" class="edge"><title>COPRO3&#45;&gt;H2O2</title>
<path fill="none" stroke="black" d="M1504.85,-597.545C1503.5,-573.252 1500.98,-528.296 1499.35,-499.134"/>
<polygon fill="black" stroke="black" points="1502.83,-498.596 1498.78,-488.807 1495.84,-498.986 1502.83,-498.596"/>
</g>
<!-- PPGEN9 -->
<g id="node65" class="node"><title>PPGEN9</title>
<ellipse fill="none" stroke="black" cx="1403.8" cy="-542.964" rx="18" ry="18"/>
<text text-anchor="middle" x="1403.8" y="-541.764" font-family="Times,serif" font-size="4.00">PPGEN9</text>
</g>
<!-- COPRO3&#45;&gt;PPGEN9 -->
<g id="edge92" class="edge"><title>COPRO3&#45;&gt;PPGEN9</title>
<path fill="none" stroke="black" d="M1491.19,-604.416C1474.37,-592.783 1446.55,-573.534 1426.82,-559.885"/>
<polygon fill="black" stroke="black" points="1428.61,-556.866 1418.39,-554.055 1424.62,-562.622 1428.61,-556.866"/>
</g>
<!-- COPRO3&#45;&gt;CO2 -->
<g id="edge90" class="edge"><title>COPRO3&#45;&gt;CO2</title>
<path fill="none" stroke="black" d="M1513.51,-599.016C1533.63,-559.527 1590.88,-453.169 1658.8,-380.402 1674.08,-364.039 1694.5,-348.928 1710.18,-338.421"/>
<polygon fill="black" stroke="black" points="1712.33,-341.195 1718.79,-332.792 1708.5,-335.336 1712.33,-341.195"/>
</g>
<!-- PPO_FAD -->
<g id="node46" class="node"><title>PPO_FAD</title>
<ellipse fill="none" stroke="black" cx="1458.8" cy="-542.964" rx="18.6233" ry="18.6233"/>
<text text-anchor="middle" x="1458.8" y="-541.764" font-family="Times,serif" font-size="4.00">PPO_FAD</text>
</g>
<!-- PPO_FAD&#45;&gt;H2O2 -->
<g id="edge93" class="edge"><title>PPO_FAD&#45;&gt;H2O2</title>
<path fill="none" stroke="black" d="M1467.46,-526.304C1472.48,-517.227 1478.9,-505.609 1484.54,-495.4"/>
<polygon fill="black" stroke="black" points="1487.67,-496.979 1489.44,-486.534 1481.54,-493.593 1487.67,-496.979"/>
</g>
<!-- PRIN9 -->
<g id="node64" class="node"><title>PRIN9</title>
<ellipse fill="none" stroke="black" cx="1365.8" cy="-470.402" rx="18" ry="18"/>
<text text-anchor="middle" x="1365.8" y="-469.202" font-family="Times,serif" font-size="4.00">PRIN9</text>
</g>
<!-- PPO_FAD&#45;&gt;PRIN9 -->
<g id="edge94" class="edge"><title>PPO_FAD&#45;&gt;PRIN9</title>
<path fill="none" stroke="black" d="M1444.27,-530.939C1429.17,-519.48 1405.35,-501.405 1387.91,-488.175"/>
<polygon fill="black" stroke="black" points="1390.01,-485.375 1379.93,-482.119 1385.78,-490.952 1390.01,-485.375"/>
</g>
<!-- PKC -->
<g id="node47" class="node"><title>PKC</title>
<ellipse fill="none" stroke="black" cx="754.803" cy="-1567.69" rx="18" ry="18"/>
<text text-anchor="middle" x="754.803" y="-1566.49" font-family="Times,serif" font-size="4.00">PKC</text>
</g>
<!-- PKC&#45;&gt;NRF2 -->
<g id="edge95" class="edge"><title>PKC&#45;&gt;NRF2</title>
<path fill="none" stroke="black" d="M754.803,-1549.53C754.803,-1538.43 754.803,-1523.74 754.803,-1511.07"/>
<polygon fill="black" stroke="black" points="758.303,-1511.03 754.803,-1501.03 751.303,-1511.03 758.303,-1511.03"/>
</g>
<!-- holoTF -->
<g id="node62" class="node"><title>holoTF</title>
<ellipse fill="none" stroke="black" cx="464.803" cy="-246.915" rx="18" ry="18"/>
<text text-anchor="middle" x="464.803" y="-245.715" font-family="Times,serif" font-size="4.00">holoTF</text>
</g>
<!-- Transferrin&#45;&gt;holoTF -->
<g id="edge96" class="edge"><title>Transferrin&#45;&gt;holoTF</title>
<path fill="none" stroke="black" d="M460.231,-40.3696C461.119,-80.2963 463.166,-172.338 464.193,-218.488"/>
<polygon fill="black" stroke="black" points="460.697,-218.732 464.419,-228.652 467.696,-218.576 460.697,-218.732"/>
</g>
<!-- ALB -->
<g id="node49" class="node"><title>ALB</title>
<ellipse fill="none" stroke="black" cx="361.803" cy="-834.739" rx="18" ry="18"/>
<text text-anchor="middle" x="361.803" y="-833.539" font-family="Times,serif" font-size="4.00">ALB</text>
</g>
<!-- ALB/BIL -->
<g id="node69" class="node"><title>ALB/BIL</title>
<ellipse fill="none" stroke="black" cx="334.803" cy="-759.525" rx="18" ry="18"/>
<text text-anchor="middle" x="334.803" y="-758.325" font-family="Times,serif" font-size="4.00">ALB/BIL</text>
</g>
<!-- ALB&#45;&gt;ALB/BIL -->
<g id="edge97" class="edge"><title>ALB&#45;&gt;ALB/BIL</title>
<path fill="none" stroke="black" d="M355.811,-817.49C352.42,-808.296 348.103,-796.589 344.265,-786.183"/>
<polygon fill="black" stroke="black" points="347.522,-784.9 340.779,-776.728 340.955,-787.322 347.522,-784.9"/>
</g>
<!-- UROD -->
<g id="node50" class="node"><title>UROD</title>
<ellipse fill="none" stroke="black" cx="1544.8" cy="-687.525" rx="18" ry="18"/>
<text text-anchor="middle" x="1544.8" y="-686.325" font-family="Times,serif" font-size="4.00">UROD</text>
</g>
<!-- UROD&#45;&gt;COPRO3 -->
<g id="edge98" class="edge"><title>UROD&#45;&gt;COPRO3</title>
<path fill="none" stroke="black" d="M1536.34,-671.336C1531.33,-662.347 1524.88,-650.758 1519.19,-640.553"/>
<polygon fill="black" stroke="black" points="1522.17,-638.717 1514.25,-631.685 1516.06,-642.124 1522.17,-638.717"/>
</g>
<!-- CPOX -->
<g id="node51" class="node"><title>CPOX</title>
<ellipse fill="none" stroke="black" cx="1581.8" cy="-615.525" rx="18" ry="18"/>
<text text-anchor="middle" x="1581.8" y="-614.325" font-family="Times,serif" font-size="4.00">CPOX</text>
</g>
<!-- CPOX&#45;&gt;H2O2 -->
<g id="edge100" class="edge"><title>CPOX&#45;&gt;H2O2</title>
<path fill="none" stroke="black" d="M1573.13,-599.748C1558.61,-575 1529.24,-524.967 1511.77,-495.206"/>
<polygon fill="black" stroke="black" points="1514.64,-493.167 1506.55,-486.314 1508.6,-496.71 1514.64,-493.167"/>
</g>
<!-- CPOX&#45;&gt;PPGEN9 -->
<g id="edge101" class="edge"><title>CPOX&#45;&gt;PPGEN9</title>
<path fill="none" stroke="black" d="M1564.9,-608.652C1526.15,-595.177 1433.95,-563.074 1430.8,-561.525 1429.45,-560.862 1428.09,-560.145 1426.73,-559.391"/>
<polygon fill="black" stroke="black" points="1428.37,-556.29 1418,-554.103 1424.74,-562.277 1428.37,-556.29"/>
</g>
<!-- CPOX&#45;&gt;CO2 -->
<g id="edge99" class="edge"><title>CPOX&#45;&gt;CO2</title>
<path fill="none" stroke="black" d="M1586.72,-597.979C1598.96,-558.334 1633.3,-455.622 1681.8,-380.402 1690.78,-366.486 1703.25,-352.746 1713.73,-342.273"/>
<polygon fill="black" stroke="black" points="1716.2,-344.75 1720.93,-335.269 1711.32,-339.733 1716.2,-344.75"/>
</g>
<!-- BLVRA_Zn2+&#45;&gt;NADP+ -->
<g id="edge102" class="edge"><title>BLVRA_Zn2+&#45;&gt;NADP+</title>
<path fill="none" stroke="black" d="M324.747,-899.659C329.118,-896.718 333.961,-893.907 338.803,-891.952 446.391,-848.499 586.486,-838.634 645.567,-836.395"/>
<polygon fill="black" stroke="black" points="645.753,-839.891 655.63,-836.06 645.519,-832.895 645.753,-839.891"/>
</g>
<!-- BLVRA_Zn2+&#45;&gt;Bilirubin -->
<g id="edge103" class="edge"><title>BLVRA_Zn2+&#45;&gt;Bilirubin</title>
<path fill="none" stroke="black" d="M307.803,-891.641C307.803,-882.791 307.803,-872.445 307.803,-863.075"/>
<polygon fill="black" stroke="black" points="311.303,-863.044 307.803,-853.044 304.303,-863.044 311.303,-863.044"/>
</g>
<!-- Ferritin&#45;&gt;Fe(3+)O(OH) -->
<g id="edge104" class="edge"><title>Ferritin&#45;&gt;Fe(3+)O(OH)</title>
<path fill="none" stroke="black" d="M214.207,-1261.36C221.412,-1233.93 235.817,-1177.11 244.803,-1128.35 264.021,-1024.08 208.729,-973.238 276.803,-891.952 310.373,-851.866 347.875,-888.489 388.803,-855.952 427.474,-825.209 445.803,-809.927 445.803,-760.525 445.803,-760.525 445.803,-760.525 445.803,-614.525 445.803,-495.299 558.839,-386.521 610.078,-343.337"/>
<polygon fill="black" stroke="black" points="612.566,-345.821 618.031,-336.744 608.098,-340.432 612.566,-345.821"/>
</g>
<!-- URO3 -->
<g id="node54" class="node"><title>URO3</title>
<ellipse fill="none" stroke="black" cx="1490.8" cy="-687.525" rx="18" ry="18"/>
<text text-anchor="middle" x="1490.8" y="-686.325" font-family="Times,serif" font-size="4.00">URO3</text>
</g>
<!-- URO3&#45;&gt;COPRO3 -->
<g id="edge105" class="edge"><title>URO3&#45;&gt;COPRO3</title>
<path fill="none" stroke="black" d="M1494.43,-669.58C1496.13,-661.67 1498.19,-652.065 1500.08,-643.213"/>
<polygon fill="black" stroke="black" points="1503.53,-643.826 1502.21,-633.314 1496.69,-642.359 1503.53,-643.826"/>
</g>
<!-- Fe3+&#45;&gt;Fe2+ -->
<g id="edge107" class="edge"><title>Fe3+&#45;&gt;Fe2+</title>
<path fill="none" stroke="black" d="M424.111,-326.496C346.949,-338.318 45.8031,-386.923 45.8031,-469.402 45.8031,-996.834 45.8031,-996.834 45.8031,-996.834 45.8031,-1056.6 30.0131,-1087.68 73.8031,-1128.35 75.5541,-1129.98 357.237,-1167.59 448.069,-1180.37"/>
<polygon fill="black" stroke="black" points="447.776,-1183.86 458.168,-1181.8 448.758,-1176.93 447.776,-1183.86"/>
</g>
<!-- Fe3+&#45;&gt;holoTF -->
<g id="edge106" class="edge"><title>Fe3+&#45;&gt;holoTF</title>
<path fill="none" stroke="black" d="M446.908,-305.293C449.766,-296.127 453.398,-284.483 456.642,-274.083"/>
<polygon fill="black" stroke="black" points="460.077,-274.824 459.713,-264.236 453.394,-272.74 460.077,-274.824"/>
</g>
<!-- KEAP1 -->
<g id="node57" class="node"><title>KEAP1</title>
<ellipse fill="none" stroke="black" cx="1288.8" cy="-1482.9" rx="18" ry="18"/>
<text text-anchor="middle" x="1288.8" y="-1481.7" font-family="Times,serif" font-size="4.00">KEAP1</text>
</g>
<!-- KEAP1&#45;&gt;NRF2_KEAP1 -->
<g id="edge108" class="edge"><title>KEAP1&#45;&gt;NRF2_KEAP1</title>
<path fill="none" stroke="black" d="M1294.23,-1465.6C1298.72,-1452.13 1305.22,-1432.62 1310.67,-1416.27"/>
<polygon fill="black" stroke="black" points="1314.05,-1417.18 1313.89,-1406.58 1307.41,-1414.97 1314.05,-1417.18"/>
</g>
<!-- Reactive Oxygen Species&#45;&gt;Lipid Peroxide -->
<g id="edge109" class="edge"><title>Reactive Oxygen Species&#45;&gt;Lipid Peroxide</title>
<path fill="none" stroke="black" d="M202.258,-1056.59C202.633,-1047.79 203.036,-1038.34 203.407,-1029.61"/>
<polygon fill="black" stroke="black" points="206.913,-1029.55 203.842,-1019.41 199.919,-1029.25 206.913,-1029.55"/>
</g>
<!-- SLC40A1_CP_Cu2+ -->
<g id="node60" class="node"><title>SLC40A1_CP_Cu2+</title>
<ellipse fill="none" stroke="black" cx="754.803" cy="-1278.84" rx="28.7763" ry="28.7763"/>
<text text-anchor="middle" x="754.803" y="-1277.64" font-family="Times,serif" font-size="4.00">SLC40A1_CP_Cu2+</text>
</g>
<!-- SLC40A1_CP_Cu2+&#45;&gt;H2O -->
<g id="edge111" class="edge"><title>SLC40A1_CP_Cu2+&#45;&gt;H2O</title>
<path fill="none" stroke="black" d="M762.561,-1251.13C771.899,-1224.24 790.383,-1184.02 821.803,-1164.35 905.715,-1111.84 1179,-1175.93 1265.8,-1128.35 1270.99,-1125.51 1275.48,-1121.2 1279.23,-1116.56"/>
<polygon fill="black" stroke="black" points="1282.31,-1118.27 1285.18,-1108.07 1276.57,-1114.25 1282.31,-1118.27"/>
</g>
<!-- SLC40A1_CP_Cu2+&#45;&gt;Fe2+ -->
<g id="edge110" class="edge"><title>SLC40A1_CP_Cu2+&#45;&gt;Fe2+</title>
<path fill="none" stroke="black" d="M736.341,-1256.87C730.593,-1251.51 723.889,-1246.27 716.803,-1242.78 632.256,-1201.11 595.784,-1240.6 507.803,-1206.78 504.675,-1205.58 501.523,-1204.05 498.481,-1202.38"/>
<polygon fill="black" stroke="black" points="500.18,-1199.32 489.819,-1197.1 496.536,-1205.29 500.18,-1199.32"/>
</g>
<!-- SLC40A1_CP_Cu2+&#45;&gt;Fe3+ -->
<g id="edge112" class="edge"><title>SLC40A1_CP_Cu2+&#45;&gt;Fe3+</title>
<path fill="none" stroke="black" d="M733.975,-1258.59C690.761,-1218.63 595.23,-1130.23 593.803,-1128.35 529.339,-1043.46 483.803,-1021.82 483.803,-915.226 483.803,-915.226 483.803,-915.226 483.803,-614.525 483.803,-516.163 459.984,-400.992 448.221,-350.113"/>
<polygon fill="black" stroke="black" points="451.601,-349.195 445.907,-340.26 444.786,-350.796 451.601,-349.195"/>
</g>
<!-- SLC40A1 -->
<g id="node61" class="node"><title>SLC40A1</title>
<ellipse fill="none" stroke="black" cx="754.803" cy="-1384.85" rx="18.0625" ry="18.0625"/>
<text text-anchor="middle" x="754.803" y="-1383.65" font-family="Times,serif" font-size="4.00">SLC40A1</text>
</g>
<!-- SLC40A1&#45;&gt;SLC40A1_CP_Cu2+ -->
<g id="edge113" class="edge"><title>SLC40A1&#45;&gt;SLC40A1_CP_Cu2+</title>
<path fill="none" stroke="black" d="M754.803,-1366.67C754.803,-1353.39 754.803,-1334.5 754.803,-1317.72"/>
<polygon fill="black" stroke="black" points="758.303,-1317.62 754.803,-1307.62 751.303,-1317.62 758.303,-1317.62"/>
</g>
<!-- holoTF&#45;&gt;TFRC_holoTF -->
<g id="edge114" class="edge"><title>holoTF&#45;&gt;TFRC_holoTF</title>
<path fill="none" stroke="black" d="M455.715,-231.241C449.987,-221.993 442.416,-209.768 435.622,-198.798"/>
<polygon fill="black" stroke="black" points="438.396,-196.63 430.155,-189.971 432.445,-200.316 438.396,-196.63"/>
</g>
<!-- E2 -->
<g id="node63" class="node"><title>E2</title>
<ellipse fill="none" stroke="black" cx="1207.8" cy="-1384.85" rx="18" ry="18"/>
<text text-anchor="middle" x="1207.8" y="-1383.65" font-family="Times,serif" font-size="4.00">E2</text>
</g>
<!-- E2&#45;&gt;Ubiquitin Ligase Complex -->
<g id="edge115" class="edge"><title>E2&#45;&gt;Ubiquitin Ligase Complex</title>
<path fill="none" stroke="black" d="M1212.14,-1367.14C1215.17,-1355.46 1219.37,-1339.27 1223.34,-1324.02"/>
<polygon fill="black" stroke="black" points="1226.76,-1324.74 1225.89,-1314.18 1219.99,-1322.98 1226.76,-1324.74"/>
</g>
<!-- PRIN9&#45;&gt;H+ -->
<g id="edge116" class="edge"><title>PRIN9&#45;&gt;H+</title>
<path fill="none" stroke="black" d="M1350.33,-460.807C1345.13,-458.021 1339.26,-454.985 1333.8,-452.402 1299.48,-436.168 1258.84,-419.667 1232.94,-409.485"/>
<polygon fill="black" stroke="black" points="1234.05,-406.159 1223.46,-405.78 1231.5,-412.679 1234.05,-406.159"/>
</g>
<!-- PRIN9&#45;&gt;Heme -->
<g id="edge117" class="edge"><title>PRIN9&#45;&gt;Heme</title>
<path fill="none" stroke="black" d="M1356.39,-485.971C1330.8,-525.9 1258.47,-640.819 1207.8,-741.525 1166.95,-822.72 1127.21,-923.026 1109.46,-969.274"/>
<polygon fill="black" stroke="black" points="1106.12,-968.217 1105.82,-978.808 1112.66,-970.714 1106.12,-968.217"/>
</g>
<!-- PPGEN9&#45;&gt;H2O2 -->
<g id="edge118" class="edge"><title>PPGEN9&#45;&gt;H2O2</title>
<path fill="none" stroke="black" d="M1418.08,-531.247C1433.35,-519.783 1457.77,-501.451 1475.57,-488.094"/>
<polygon fill="black" stroke="black" points="1477.8,-490.791 1483.7,-481.989 1473.6,-485.193 1477.8,-490.791"/>
</g>
<!-- PPGEN9&#45;&gt;PRIN9 -->
<g id="edge119" class="edge"><title>PPGEN9&#45;&gt;PRIN9</title>
<path fill="none" stroke="black" d="M1395.56,-526.653C1390.68,-517.591 1384.39,-505.909 1378.85,-495.623"/>
<polygon fill="black" stroke="black" points="1381.86,-493.828 1374.03,-486.683 1375.69,-497.147 1381.86,-493.828"/>
</g>
<!-- HMBL&#45;&gt;URO3 -->
<g id="edge120" class="edge"><title>HMBL&#45;&gt;URO3</title>
<path fill="none" stroke="black" d="M1478.68,-741.58C1480.48,-733.67 1482.68,-724.065 1484.7,-715.213"/>
<polygon fill="black" stroke="black" points="1488.15,-715.843 1486.97,-705.314 1481.33,-714.283 1488.15,-715.843"/>
</g>
<!-- Poly&#45;unsaturated fatty acid -->
<g id="node68" class="node"><title>Poly&#45;unsaturated fatty acid</title>
<ellipse fill="none" stroke="black" cx="110.803" cy="-1091.76" rx="36.6858" ry="36.6858"/>
<text text-anchor="middle" x="110.803" y="-1090.56" font-family="Times,serif" font-size="4.00">Poly&#45;unsaturated fatty acid</text>
</g>
<!-- Poly&#45;unsaturated fatty acid&#45;&gt;Lipid Peroxide -->
<g id="edge121" class="edge"><title>Poly&#45;unsaturated fatty acid&#45;&gt;Lipid Peroxide</title>
<path fill="none" stroke="black" d="M136.489,-1065.1C150.524,-1051.07 167.775,-1033.83 181.431,-1020.19"/>
<polygon fill="black" stroke="black" points="184.004,-1022.57 188.604,-1013.02 179.056,-1017.61 184.004,-1022.57"/>
</g>
<!-- TFRC_holoTF&#45;&gt;TFRC_TF -->
<g id="edge122" class="edge"><title>TFRC_holoTF&#45;&gt;TFRC_TF</title>
<path fill="none" stroke="black" d="M419.96,-148.149C420.388,-140.193 420.88,-131.064 421.332,-122.658"/>
<polygon fill="black" stroke="black" points="424.834,-122.715 421.877,-112.541 417.844,-122.338 424.834,-122.715"/>
</g>
<!-- TFRC_holoTF&#45;&gt;Fe3+ -->
<g id="edge123" class="edge"><title>TFRC_holoTF&#45;&gt;Fe3+</title>
<path fill="none" stroke="black" d="M422.051,-192.825C426.152,-219.577 433.213,-265.63 437.688,-294.818"/>
<polygon fill="black" stroke="black" points="434.234,-295.387 439.209,-304.742 441.153,-294.327 434.234,-295.387"/>
</g>
<!-- miRNA&#45;155 -->
<g id="node71" class="node"><title>miRNA&#45;155</title>
<ellipse fill="none" stroke="black" cx="1064.8" cy="-1567.69" rx="20.8674" ry="20.8674"/>
<text text-anchor="middle" x="1064.8" y="-1566.49" font-family="Times,serif" font-size="4.00">miRNA&#45;155</text>
</g>
<!-- miRNA&#45;155&#45;&gt;BACH1 -->
<g id="edge124" class="edge"><title>miRNA&#45;155&#45;&gt;BACH1</title>
<path fill="none" stroke="black" d="M1064.8,-1546.64C1064.8,-1535.95 1064.8,-1522.63 1064.8,-1511.01"/>
<polygon fill="black" stroke="black" points="1068.3,-1510.96 1064.8,-1500.96 1061.3,-1510.96 1068.3,-1510.96"/>
</g>
<!-- ALAS1_ALAS2 -->
<g id="node72" class="node"><title>ALAS1_ALAS2</title>
<ellipse fill="none" stroke="black" cx="2037.8" cy="-995.834" rx="23.1702" ry="23.1702"/>
<text text-anchor="middle" x="2037.8" y="-994.634" font-family="Times,serif" font-size="4.00">ALAS1_ALAS2</text>
</g>
<!-- ALAS1_ALAS2&#45;&gt;dALA -->
<g id="edge127" class="edge"><title>ALAS1_ALAS2&#45;&gt;dALA</title>
<path fill="none" stroke="black" d="M2017.71,-983.532C2009.84,-979.519 2000.6,-975.307 1991.8,-972.5 1878.96,-936.482 1737.55,-921.997 1678.15,-917.221"/>
<polygon fill="black" stroke="black" points="1678.27,-913.721 1668.03,-916.44 1677.73,-920.7 1678.27,-913.721"/>
</g>
<!-- ALAS1_ALAS2&#45;&gt;CoA&#45;SH -->
<g id="edge126" class="edge"><title>ALAS1_ALAS2&#45;&gt;CoA&#45;SH</title>
<path fill="none" stroke="black" d="M2046.14,-973.857C2057.33,-943.779 2075.8,-886.429 2075.8,-835.739 2075.8,-835.739 2075.8,-835.739 2075.8,-469.402 2075.8,-405.929 2006.12,-357.985 1967.63,-336.344"/>
<polygon fill="black" stroke="black" points="1969.04,-333.124 1958.58,-331.416 1965.69,-339.272 1969.04,-333.124"/>
</g>
<!-- ALAS1_ALAS2&#45;&gt;CO2 -->
<g id="edge125" class="edge"><title>ALAS1_ALAS2&#45;&gt;CO2</title>
<path fill="none" stroke="black" d="M2037.8,-972.439C2037.8,-941.643 2037.8,-884.489 2037.8,-835.739 2037.8,-835.739 2037.8,-835.739 2037.8,-614.525 2037.8,-490.222 1988.57,-448.842 1884.8,-380.402 1845.53,-354.497 1792.77,-338.154 1761.14,-329.98"/>
<polygon fill="black" stroke="black" points="1761.82,-326.544 1751.27,-327.519 1760.13,-333.335 1761.82,-326.544"/>
</g>
<!-- Orf9c -->
<g id="node73" class="node"><title>Orf9c</title>
<ellipse fill="none" stroke="black" cx="91.8031" cy="-995.834" rx="18" ry="18"/>
<text text-anchor="middle" x="91.8031" y="-994.634" font-family="Times,serif" font-size="4.00">Orf9c</text>
</g>
<!-- Orf9c&#45;&gt;ABCC1 -->
<g id="edge128" class="edge"><title>Orf9c&#45;&gt;ABCC1</title>
<path fill="none" stroke="black" d="M91.8031,-977.56C91.8031,-967.337 91.8031,-954.157 91.8031,-942.551"/>
<polygon fill="black" stroke="black" points="95.3032,-942.466 91.8031,-932.466 88.3032,-942.466 95.3032,-942.466"/>
</g>
<!-- ALAD_Zn2+ -->
<g id="node74" class="node"><title>ALAD_Zn2+</title>
<ellipse fill="none" stroke="black" cx="1514.8" cy="-1185.57" rx="21.4286" ry="21.4286"/>
<text text-anchor="middle" x="1514.8" y="-1184.37" font-family="Times,serif" font-size="4.00">ALAD_Zn2+</text>
</g>
<!-- ALAD_Zn2+&#45;&gt;H2O -->
<g id="edge130" class="edge"><title>ALAD_Zn2+&#45;&gt;H2O</title>
<path fill="none" stroke="black" d="M1495.49,-1176.58C1455.48,-1160.03 1363.51,-1122 1318.52,-1103.4"/>
<polygon fill="black" stroke="black" points="1319.75,-1100.12 1309.17,-1099.53 1317.07,-1106.58 1319.75,-1100.12"/>
</g>
<!-- ALAD_Zn2+&#45;&gt;H+ -->
<g id="edge129" class="edge"><title>ALAD_Zn2+&#45;&gt;H+</title>
<path fill="none" stroke="black" d="M1518.47,-1164.49C1526.77,-1112.32 1541.13,-971.03 1470.8,-891.952 1430.39,-846.513 1389.91,-888.908 1338.8,-855.952 1292.53,-826.112 1259.8,-815.585 1259.8,-760.525 1259.8,-760.525 1259.8,-760.525 1259.8,-686.525 1259.8,-588.802 1229.75,-475.431 1214.9,-425.401"/>
<polygon fill="black" stroke="black" points="1218.22,-424.279 1211.98,-415.715 1211.52,-426.3 1218.22,-424.279"/>
</g>
<!-- ALAD_Zn2+&#45;&gt;PBG -->
<g id="edge131" class="edge"><title>ALAD_Zn2+&#45;&gt;PBG</title>
<path fill="none" stroke="black" d="M1524.9,-1166.43C1530.35,-1155.7 1536.6,-1141.64 1539.8,-1128.35 1562.79,-1033 1560.23,-915.315 1557.56,-863.01"/>
<polygon fill="black" stroke="black" points="1561.05,-862.664 1557,-852.873 1554.06,-863.051 1561.05,-862.664"/>
</g>
<!-- Neddylated CUL3_RBX1&#45;&gt;Ubiquitin Ligase Complex -->
<g id="edge132" class="edge"><title>Neddylated CUL3_RBX1&#45;&gt;Ubiquitin Ligase Complex</title>
<path fill="none" stroke="black" d="M1160.55,-1359.46C1173.32,-1345.76 1189.47,-1328.45 1203.43,-1313.48"/>
<polygon fill="black" stroke="black" points="1206.25,-1315.59 1210.51,-1305.89 1201.13,-1310.82 1206.25,-1315.59"/>
</g>
<!-- FLVCR1&#45;1 -->
<g id="node76" class="node"><title>FLVCR1&#45;1</title>
<ellipse fill="none" stroke="black" cx="1183.8" cy="-1091.76" rx="18.6233" ry="18.6233"/>
<text text-anchor="middle" x="1183.8" y="-1090.56" font-family="Times,serif" font-size="4.00">FLVCR1&#45;1</text>
</g>
<!-- FLVCR1&#45;1&#45;&gt;Heme -->
<g id="edge133" class="edge"><title>FLVCR1&#45;1&#45;&gt;Heme</title>
<path fill="none" stroke="black" d="M1173.43,-1076.24C1168.56,-1069.66 1162.58,-1061.87 1156.8,-1055.17 1145.09,-1041.57 1131,-1027.14 1119.76,-1016.03"/>
<polygon fill="black" stroke="black" points="1122.09,-1013.42 1112.5,-1008.92 1117.2,-1018.42 1122.09,-1013.42"/>
</g>
<!-- UROS -->
<g id="node77" class="node"><title>UROS</title>
<ellipse fill="none" stroke="black" cx="1584.8" cy="-759.525" rx="18" ry="18"/>
<text text-anchor="middle" x="1584.8" y="-758.325" font-family="Times,serif" font-size="4.00">UROS</text>
</g>
<!-- UROS&#45;&gt;URO3 -->
<g id="edge134" class="edge"><title>UROS&#45;&gt;URO3</title>
<path fill="none" stroke="black" d="M1570.53,-747.894C1555.26,-736.522 1530.83,-718.335 1513.04,-705.084"/>
<polygon fill="black" stroke="black" points="1515.02,-702.193 1504.91,-699.028 1510.84,-707.807 1515.02,-702.193"/>
</g>
<!-- NRF2&#45;&gt;BLVRA -->
<g id="edge137" class="edge"><title>NRF2&#45;&gt;BLVRA</title>
<path fill="none" stroke="black" d="M736.591,-1482.1C661.446,-1482.54 376.674,-1480.09 317.803,-1418.79 264.167,-1362.94 277.22,-1261.11 287.296,-1213.04"/>
<polygon fill="black" stroke="black" points="290.753,-1213.62 289.501,-1203.1 283.919,-1212.1 290.753,-1213.62"/>
</g>
<!-- NRF2&#45;&gt;FTL -->
<g id="edge138" class="edge"><title>NRF2&#45;&gt;FTL</title>
<path fill="none" stroke="black" d="M736.777,-1481.07C660.26,-1477.34 362.484,-1460.37 279.803,-1418.79 274.236,-1415.99 269.086,-1411.83 264.616,-1407.4"/>
<polygon fill="black" stroke="black" points="267.101,-1404.93 257.784,-1399.88 261.921,-1409.64 267.101,-1404.93"/>
</g>
<!-- NRF2&#45;&gt;FTH1 -->
<g id="edge135" class="edge"><title>NRF2&#45;&gt;FTH1</title>
<path fill="none" stroke="black" d="M736.713,-1481.55C654.094,-1479.7 312.718,-1469.11 220.803,-1418.79 216.336,-1416.34 212.318,-1412.83 208.831,-1409"/>
<polygon fill="black" stroke="black" points="211.397,-1406.6 202.445,-1400.93 205.908,-1410.94 211.397,-1406.6"/>
</g>
<!-- NRF2&#45;&gt;FECH -->
<g id="edge142" class="edge"><title>NRF2&#45;&gt;FECH</title>
<path fill="none" stroke="black" d="M764.475,-1467.58C804.023,-1409.07 953.635,-1187.7 1002.36,-1115.61"/>
<polygon fill="black" stroke="black" points="1005.34,-1117.45 1008.04,-1107.2 999.543,-1113.53 1005.34,-1117.45"/>
</g>
<!-- NRF2&#45;&gt;Nrf2/Maf -->
<g id="edge140" class="edge"><title>NRF2&#45;&gt;Nrf2/Maf</title>
<path fill="none" stroke="black" d="M772.597,-1479.3C807.8,-1473.49 887.688,-1456.82 942.803,-1418.79 946.923,-1415.94 950.751,-1412.3 954.155,-1408.48"/>
<polygon fill="black" stroke="black" points="956.963,-1410.58 960.501,-1400.59 951.507,-1406.19 956.963,-1410.58"/>
</g>
<!-- NRF2&#45;&gt;NRF2_KEAP1 -->
<g id="edge136" class="edge"><title>NRF2&#45;&gt;NRF2_KEAP1</title>
<path fill="none" stroke="black" d="M772.595,-1479.46C808.519,-1474.56 892.3,-1463.27 962.803,-1454.79 1107.53,-1437.37 1157.86,-1482.84 1288.8,-1418.79 1292.94,-1416.76 1296.85,-1413.97 1300.41,-1410.86"/>
<polygon fill="black" stroke="black" points="1302.97,-1413.25 1307.62,-1403.73 1298.05,-1408.28 1302.97,-1413.25"/>
</g>
<!-- NRF2&#45;&gt;SLC40A1 -->
<g id="edge141" class="edge"><title>NRF2&#45;&gt;SLC40A1</title>
<path fill="none" stroke="black" d="M754.803,-1464.72C754.803,-1450.47 754.803,-1429.93 754.803,-1413.38"/>
<polygon fill="black" stroke="black" points="758.303,-1413.19 754.803,-1403.19 751.303,-1413.19 758.303,-1413.19"/>
</g>
<!-- BLVRB -->
<g id="node83" class="node"><title>BLVRB</title>
<ellipse fill="none" stroke="black" cx="365.803" cy="-914.226" rx="18" ry="18"/>
<text text-anchor="middle" x="365.803" y="-913.026" font-family="Times,serif" font-size="4.00">BLVRB</text>
</g>
<!-- NRF2&#45;&gt;BLVRB -->
<g id="edge139" class="edge"><title>NRF2&#45;&gt;BLVRB</title>
<path fill="none" stroke="black" d="M736.82,-1481.04C671.071,-1476.83 442.773,-1452.44 350.803,-1314.91 310.067,-1253.99 346.702,-1021.82 360.815,-942.206"/>
<polygon fill="black" stroke="black" points="364.322,-942.48 362.647,-932.019 357.433,-941.242 364.322,-942.48"/>
</g>
<!-- SLC40A1_HEPH_Cu2+ -->
<g id="node79" class="node"><title>SLC40A1_HEPH_Cu2+</title>
<ellipse fill="none" stroke="black" cx="391.803" cy="-1278.84" rx="31.6406" ry="31.6406"/>
<text text-anchor="middle" x="391.803" y="-1277.64" font-family="Times,serif" font-size="4.00">SLC40A1_HEPH_Cu2+</text>
</g>
<!-- SLC40A1_HEPH_Cu2+&#45;&gt;H2O -->
<g id="edge143" class="edge"><title>SLC40A1_HEPH_Cu2+&#45;&gt;H2O</title>
<path fill="none" stroke="black" d="M398.024,-1247.46C405.273,-1220.62 420.118,-1182.93 448.803,-1164.35 601.341,-1065.57 1104.85,-1212.75 1265.8,-1128.35 1271.04,-1125.61 1275.55,-1121.34 1279.31,-1116.7"/>
<polygon fill="black" stroke="black" points="1282.39,-1118.4 1285.24,-1108.2 1276.65,-1114.39 1282.39,-1118.4"/>
</g>
<!-- SLC40A1_HEPH_Cu2+&#45;&gt;Fe2+ -->
<g id="edge145" class="edge"><title>SLC40A1_HEPH_Cu2+&#45;&gt;Fe2+</title>
<path fill="none" stroke="black" d="M413,-1254.81C426.488,-1240.15 443.807,-1221.33 456.84,-1207.17"/>
<polygon fill="black" stroke="black" points="459.761,-1209.17 463.957,-1199.44 454.61,-1204.43 459.761,-1209.17"/>
</g>
<!-- SLC40A1_HEPH_Cu2+&#45;&gt;Fe3+ -->
<g id="edge144" class="edge"><title>SLC40A1_HEPH_Cu2+&#45;&gt;Fe3+</title>
<path fill="none" stroke="black" d="M393.425,-1246.95C397.493,-1166.73 407.803,-945.178 407.803,-760.525 407.803,-760.525 407.803,-760.525 407.803,-469.402 407.803,-426.361 422.04,-377.996 432.089,-349.22"/>
<polygon fill="black" stroke="black" points="435.475,-350.145 435.567,-339.551 428.888,-347.775 435.475,-350.145"/>
</g>
<!-- Dimethly fumarate -->
<g id="node80" class="node"><title>Dimethly fumarate</title>
<ellipse fill="none" stroke="black" cx="1352.8" cy="-1482.9" rx="28.2154" ry="28.2154"/>
<text text-anchor="middle" x="1352.8" y="-1481.7" font-family="Times,serif" font-size="4.00">Dimethly fumarate</text>
</g>
<!-- Dimethly fumarate&#45;&gt;NRF2_KEAP1 -->
<g id="edge146" class="edge"><title>Dimethly fumarate&#45;&gt;NRF2_KEAP1</title>
<path fill="none" stroke="black" d="M1344.14,-1455.9C1340.08,-1443.72 1335.22,-1429.11 1330.98,-1416.4"/>
<polygon fill="black" stroke="black" points="1334.23,-1415.07 1327.75,-1406.69 1327.59,-1417.29 1334.23,-1415.07"/>
</g>
<!-- O2 -->
<g id="node82" class="node"><title>O2</title>
<ellipse fill="none" stroke="black" cx="1162.8" cy="-1278.84" rx="18" ry="18"/>
<text text-anchor="middle" x="1162.8" y="-1277.64" font-family="Times,serif" font-size="4.00">O2</text>
</g>
<!-- O2&#45;&gt;H2O -->
<g id="edge147" class="edge"><title>O2&#45;&gt;H2O</title>
<path fill="none" stroke="black" d="M1172.79,-1263.63C1195.19,-1231.73 1249.62,-1154.24 1276.8,-1115.54"/>
<polygon fill="black" stroke="black" points="1279.9,-1117.22 1282.78,-1107.03 1274.17,-1113.2 1279.9,-1117.22"/>
</g>
<!-- O2&#45;&gt;Fe2+ -->
<g id="edge149" class="edge"><title>O2&#45;&gt;Fe2+</title>
<path fill="none" stroke="black" d="M1145.36,-1273.92C1113.44,-1266.86 1043.43,-1251.9 983.803,-1242.78 801.972,-1214.96 581.508,-1195.34 504.215,-1188.88"/>
<polygon fill="black" stroke="black" points="504.127,-1185.36 493.872,-1188.02 503.549,-1192.33 504.127,-1185.36"/>
</g>
<!-- O2&#45;&gt;Fe(3+)O(OH) -->
<g id="edge152" class="edge"><title>O2&#45;&gt;Fe(3+)O(OH)</title>
<path fill="none" stroke="black" d="M1146.61,-1270.1C1089.78,-1242.79 901.825,-1151.42 882.803,-1128.35 830.562,-1065.02 679.033,-493.179 642.701,-354.062"/>
<polygon fill="black" stroke="black" points="646.01,-352.88 640.099,-344.086 639.236,-354.646 646.01,-352.88"/>
</g>
<!-- O2&#45;&gt;CO -->
<g id="edge148" class="edge"><title>O2&#45;&gt;CO</title>
<path fill="none" stroke="black" d="M1170.84,-1262.64C1175.43,-1255.46 1181.86,-1247.47 1189.8,-1242.78 1281.19,-1188.87 1354.22,-1285.1 1425.8,-1206.78 1493.63,-1132.58 1467.21,-998.484 1451.83,-941.735"/>
<polygon fill="black" stroke="black" points="1455.1,-940.441 1449.02,-931.764 1448.36,-942.338 1455.1,-940.441"/>
</g>
<!-- O2&#45;&gt;H2O2 -->
<g id="edge154" class="edge"><title>O2&#45;&gt;H2O2</title>
<path fill="none" stroke="black" d="M1170.72,-1262.41C1175.28,-1255.18 1181.71,-1247.2 1189.8,-1242.78 1353.42,-1153.34 1444.14,-1296.13 1607.8,-1206.78 1663.99,-1176.11 1695.8,-1156.77 1695.8,-1092.76 1695.8,-1092.76 1695.8,-1092.76 1695.8,-913.226 1695.8,-767.684 1673.01,-728.139 1608.8,-597.525 1586.86,-552.883 1544.89,-511.747 1519.32,-489.258"/>
<polygon fill="black" stroke="black" points="1521.49,-486.514 1511.64,-482.631 1516.92,-491.814 1521.49,-486.514"/>
</g>
<!-- O2&#45;&gt;Biliverdin -->
<g id="edge151" class="edge"><title>O2&#45;&gt;Biliverdin</title>
<path fill="none" stroke="black" d="M1145.1,-1274.37C1074.32,-1260.46 815.196,-1209.41 811.803,-1206.78 766.649,-1171.76 705.786,-1007.29 682.957,-942.015"/>
<polygon fill="black" stroke="black" points="686.214,-940.725 679.628,-932.426 679.601,-943.021 686.214,-940.725"/>
</g>
<!-- O2&#45;&gt;Fe3+ -->
<g id="edge155" class="edge"><title>O2&#45;&gt;Fe3+</title>
<path fill="none" stroke="black" d="M1145.22,-1274.5C1091.89,-1264.18 932.792,-1232 886.803,-1206.78 842.018,-1182.22 830.215,-1171.45 802.803,-1128.35 783.068,-1097.33 714.919,-847.479 700.803,-813.525 659.368,-713.861 640.073,-693.038 589.803,-597.525 540.939,-504.684 481.079,-395.166 454.997,-347.65"/>
<polygon fill="black" stroke="black" points="457.984,-345.818 450.103,-338.738 451.849,-349.188 457.984,-345.818"/>
</g>
<!-- O2&#45;&gt;NADP+ -->
<g id="edge150" class="edge"><title>O2&#45;&gt;NADP+</title>
<path fill="none" stroke="black" d="M1145.03,-1274.39C1092.19,-1263.23 934.438,-1223.13 849.803,-1128.35 810.151,-1083.95 757.824,-940.802 723.803,-891.952 714.762,-878.97 703.083,-865.688 693.286,-855.297"/>
<polygon fill="black" stroke="black" points="695.691,-852.748 686.237,-847.967 690.646,-857.6 695.691,-852.748"/>
</g>
<!-- O2&#45;&gt;PRIN9 -->
<g id="edge153" class="edge"><title>O2&#45;&gt;PRIN9</title>
<path fill="none" stroke="black" d="M1170.75,-1262.47C1175.31,-1255.25 1181.75,-1247.26 1189.8,-1242.78 1259.09,-1204.22 1491.64,-1265.61 1544.8,-1206.78 1592.11,-1154.44 1557.51,-937.702 1503.8,-891.952 1456.53,-851.685 1408.09,-904.042 1368.8,-855.952 1281.62,-749.232 1333.07,-564.619 1356.28,-497.093"/>
<polygon fill="black" stroke="black" points="1359.59,-498.241 1359.61,-487.646 1352.98,-495.914 1359.59,-498.241"/>
</g>
<!-- O2&#45;&gt;PPGEN9 -->
<g id="edge156" class="edge"><title>O2&#45;&gt;PPGEN9</title>
<path fill="none" stroke="black" d="M1170.73,-1262.44C1175.29,-1255.21 1181.73,-1247.23 1189.8,-1242.78 1265.65,-1201 1519.47,-1270.78 1577.8,-1206.78 1672.68,-1102.7 1650.08,-982.009 1541.8,-891.952 1489.42,-848.388 1439.99,-905.092 1392.8,-855.952 1362.85,-824.76 1373.8,-803.77 1373.8,-760.525 1373.8,-760.525 1373.8,-760.525 1373.8,-686.525 1373.8,-645.078 1386.1,-598.276 1394.94,-569.959"/>
<polygon fill="black" stroke="black" points="1398.29,-570.999 1398.02,-560.408 1391.62,-568.854 1398.29,-570.999"/>
</g>
<!-- O2&#45;&gt;CO2 -->
<g id="edge157" class="edge"><title>O2&#45;&gt;CO2</title>
<path fill="none" stroke="black" d="M1170.7,-1262.39C1175.26,-1255.15 1181.69,-1247.17 1189.8,-1242.78 1371.72,-1144.34 1474.12,-1309.23 1653.8,-1206.78 1707.58,-1176.12 1733.8,-1154.67 1733.8,-1092.76 1733.8,-1092.76 1733.8,-1092.76 1733.8,-469.402 1733.8,-428.119 1733.8,-380.259 1733.8,-350.973"/>
<polygon fill="black" stroke="black" points="1737.3,-350.711 1733.8,-340.711 1730.3,-350.711 1737.3,-350.711"/>
</g>
<!-- BLVRB&#45;&gt;NADP+ -->
<g id="edge158" class="edge"><title>BLVRB&#45;&gt;NADP+</title>
<path fill="none" stroke="black" d="M383.245,-908.838C434.492,-895.945 584.872,-858.112 646.74,-842.547"/>
<polygon fill="black" stroke="black" points="647.709,-845.913 656.552,-840.079 646.001,-839.124 647.709,-845.913"/>
</g>
<!-- BLVRB&#45;&gt;Bilirubin -->
<g id="edge159" class="edge"><title>BLVRB&#45;&gt;Bilirubin</title>
<path fill="none" stroke="black" d="M355.434,-899.373C346.827,-887.874 334.424,-871.303 324.432,-857.954"/>
<polygon fill="black" stroke="black" points="327.073,-855.641 318.278,-849.733 321.469,-859.836 327.073,-855.641"/>
</g>
<!-- CAND1 -->
<g id="node84" class="node"><title>CAND1</title>
<ellipse fill="none" stroke="black" cx="1261.8" cy="-1384.85" rx="18" ry="18"/>
<text text-anchor="middle" x="1261.8" y="-1383.65" font-family="Times,serif" font-size="4.00">CAND1</text>
</g>
<!-- CAND1&#45;&gt;Ubiquitin Ligase Complex -->
<g id="edge160" class="edge"><title>CAND1&#45;&gt;Ubiquitin Ligase Complex</title>
<path fill="none" stroke="black" d="M1257.47,-1367.14C1254.43,-1355.46 1250.23,-1339.27 1246.27,-1324.02"/>
<polygon fill="black" stroke="black" points="1249.62,-1322.98 1243.72,-1314.18 1242.84,-1324.74 1249.62,-1322.98"/>
</g>
<!-- CYBRD1_Heme -->
<g id="node85" class="node"><title>CYBRD1_Heme</title>
<ellipse fill="none" stroke="black" cx="628.803" cy="-1278.84" rx="24.8513" ry="24.8512"/>
<text text-anchor="middle" x="628.803" y="-1277.64" font-family="Times,serif" font-size="4.00">CYBRD1_Heme</text>
</g>
<!-- CYBRD1_Heme&#45;&gt;Fe2+ -->
<g id="edge161" class="edge"><title>CYBRD1_Heme&#45;&gt;Fe2+</title>
<path fill="none" stroke="black" d="M613.11,-1258.87C607.732,-1253.18 601.397,-1247.26 594.803,-1242.78 560.185,-1219.27 544.962,-1226.02 507.803,-1206.78 504.977,-1205.32 502.074,-1203.68 499.226,-1202"/>
<polygon fill="black" stroke="black" points="500.813,-1198.86 490.469,-1196.57 497.126,-1204.81 500.813,-1198.86"/>
</g>
<!-- Bilirubin&#45;&gt;ALB/BIL -->
<g id="edge162" class="edge"><title>Bilirubin&#45;&gt;ALB/BIL</title>
<path fill="none" stroke="black" d="M313.795,-817.49C317.186,-808.296 321.503,-796.589 325.341,-786.183"/>
<polygon fill="black" stroke="black" points="328.651,-787.322 328.828,-776.728 322.084,-784.9 328.651,-787.322"/>
</g>
<!-- Orf3a -->
<g id="node88" class="node"><title>Orf3a</title>
<ellipse fill="none" stroke="black" cx="915.803" cy="-1384.85" rx="18" ry="18"/>
<text text-anchor="middle" x="915.803" y="-1383.65" font-family="Times,serif" font-size="4.00">Orf3a</text>
</g>
<!-- Orf3a&#45;&gt;HMOX1 -->
<g id="edge163" class="edge"><title>Orf3a&#45;&gt;HMOX1</title>
<path fill="none" stroke="black" d="M922.209,-1367.6C928.769,-1350.96 939.059,-1324.85 946.713,-1305.44"/>
<polygon fill="black" stroke="black" points="950.03,-1306.57 950.442,-1295.98 943.518,-1304 950.03,-1306.57"/>
</g>
</g>
</svg>
