<?xml version="1.0" encoding="UTF-8" standalone="no"?>
<!DOCTYPE svg PUBLIC "-//W3C//DTD SVG 1.1//EN"
 "http://www.w3.org/Graphics/SVG/1.1/DTD/svg11.dtd">
<!-- Generated by graphviz version 2.38.0 (20140413.2041)
 -->
<!-- Title: G Pages: 1 -->
<svg width="1859pt" height="1451pt"
 viewBox="0.00 0.00 1859.07 1451.31" xmlns="http://www.w3.org/2000/svg" xmlns:xlink="http://www.w3.org/1999/xlink">
<g id="graph0" class="graph" transform="scale(1 1) rotate(0) translate(4 1447.31)">
<title>G</title>
<polygon fill="white" stroke="none" points="-4,4 -4,-1447.31 1855.07,-1447.31 1855.07,4 -4,4"/>
<!-- Lipid Peroxide -->
<g id="node1" class="node"><title>Lipid Peroxide</title>
<ellipse fill="none" stroke="black" cx="381.107" cy="-856.077" rx="23.1702" ry="23.1702"/>
<text text-anchor="middle" x="381.107" y="-854.877" font-family="Times,serif" font-size="4.00">Lipid Peroxide</text>
</g>
<!-- Ferroptosis -->
<g id="node2" class="node"><title>Ferroptosis</title>
<ellipse fill="none" stroke="black" cx="382.107" cy="-774.468" rx="20.3062" ry="20.3062"/>
<text text-anchor="middle" x="382.107" y="-773.268" font-family="Times,serif" font-size="4.00">Ferroptosis</text>
</g>
<!-- Lipid Peroxide&#45;&gt;Ferroptosis -->
<g id="edge1" class="edge"><title>Lipid Peroxide&#45;&gt;Ferroptosis</title>
<path fill="none" stroke="black" d="M381.391,-832.477C381.498,-823.953 381.622,-814.125 381.736,-805.056"/>
<polygon fill="black" stroke="black" points="385.238,-804.925 381.864,-794.882 378.238,-804.837 385.238,-804.925"/>
</g>
<!-- Lipid alcohol -->
<g id="node51" class="node"><title>Lipid alcohol</title>
<ellipse fill="none" stroke="black" cx="322.107" cy="-774.468" rx="22.05" ry="22.05"/>
<text text-anchor="middle" x="322.107" y="-773.268" font-family="Times,serif" font-size="4.00">Lipid alcohol</text>
</g>
<!-- Lipid Peroxide&#45;&gt;Lipid alcohol -->
<g id="edge2" class="edge"><title>Lipid Peroxide&#45;&gt;Lipid alcohol</title>
<path fill="none" stroke="black" d="M367.423,-836.613C359.534,-825.968 349.503,-812.433 340.884,-800.804"/>
<polygon fill="black" stroke="black" points="343.676,-798.692 334.91,-792.742 338.052,-802.86 343.676,-798.692"/>
</g>
<!-- Heme -->
<g id="node3" class="node"><title>Heme</title>
<ellipse fill="none" stroke="black" cx="1527.11" cy="-952.004" rx="18" ry="18"/>
<text text-anchor="middle" x="1527.11" y="-950.804" font-family="Times,serif" font-size="4.00">Heme</text>
</g>
<!-- NADP+ -->
<g id="node22" class="node"><title>NADP+</title>
<ellipse fill="none" stroke="black" cx="1263.11" cy="-774.468" rx="18" ry="18"/>
<text text-anchor="middle" x="1263.11" y="-773.268" font-family="Times,serif" font-size="4.00">NADP+</text>
</g>
<!-- Heme&#45;&gt;NADP+ -->
<g id="edge11" class="edge"><title>Heme&#45;&gt;NADP+</title>
<path fill="none" stroke="black" d="M1515.22,-937.698C1487.95,-907.197 1423.01,-834.693 1420.11,-832.742 1398.28,-818.068 1328.63,-795.453 1289.83,-783.504"/>
<polygon fill="black" stroke="black" points="1290.82,-780.145 1280.23,-780.57 1288.77,-786.839 1290.82,-780.145"/>
</g>
<!-- H2O -->
<g id="node24" class="node"><title>H2O</title>
<ellipse fill="none" stroke="black" cx="1015.11" cy="-856.077" rx="18" ry="18"/>
<text text-anchor="middle" x="1015.11" y="-854.877" font-family="Times,serif" font-size="4.00">H2O</text>
</g>
<!-- Heme&#45;&gt;H2O -->
<g id="edge8" class="edge"><title>Heme&#45;&gt;H2O</title>
<path fill="none" stroke="black" d="M1509.7,-947.314C1481.41,-940.15 1425.28,-924.285 1377.11,-915.411 1242.44,-890.601 1204.62,-909.835 1071.11,-879.411 1060.57,-877.011 1049.36,-873.514 1039.66,-869.997"/>
<polygon fill="black" stroke="black" points="1040.79,-866.681 1030.2,-866.37 1038.28,-873.217 1040.79,-866.681"/>
</g>
<!-- CO -->
<g id="node31" class="node"><title>CO</title>
<ellipse fill="none" stroke="black" cx="1393.11" cy="-856.077" rx="18" ry="18"/>
<text text-anchor="middle" x="1393.11" y="-854.877" font-family="Times,serif" font-size="4.00">CO</text>
</g>
<!-- Heme&#45;&gt;CO -->
<g id="edge12" class="edge"><title>Heme&#45;&gt;CO</title>
<path fill="none" stroke="black" d="M1516.58,-937.045C1510.78,-929.974 1503.14,-921.601 1495.11,-915.411 1467.4,-894.052 1455.07,-897.463 1425.11,-879.411 1422,-877.537 1418.78,-875.467 1415.65,-873.367"/>
<polygon fill="black" stroke="black" points="1417.39,-870.314 1407.17,-867.503 1413.4,-876.07 1417.39,-870.314"/>
</g>
<!-- Pi -->
<g id="node32" class="node"><title>Pi</title>
<ellipse fill="none" stroke="black" cx="1790.11" cy="-774.468" rx="18" ry="18"/>
<text text-anchor="middle" x="1790.11" y="-773.268" font-family="Times,serif" font-size="4.00">Pi</text>
</g>
<!-- Heme&#45;&gt;Pi -->
<g id="edge6" class="edge"><title>Heme&#45;&gt;Pi</title>
<path fill="none" stroke="black" d="M1542.07,-941.668C1563.64,-928.152 1604.69,-902.25 1639.11,-879.411 1685.01,-848.954 1737.87,-812.164 1767.3,-791.529"/>
<polygon fill="black" stroke="black" points="1769.47,-794.28 1775.64,-785.669 1765.45,-788.551 1769.47,-794.28"/>
</g>
<!-- Fe2+ -->
<g id="node39" class="node"><title>Fe2+</title>
<ellipse fill="none" stroke="black" cx="430.107" cy="-1043.16" rx="18" ry="18"/>
<text text-anchor="middle" x="430.107" y="-1041.96" font-family="Times,serif" font-size="4.00">Fe2+</text>
</g>
<!-- Heme&#45;&gt;Fe2+ -->
<g id="edge9" class="edge"><title>Heme&#45;&gt;Fe2+</title>
<path fill="none" stroke="black" d="M1510.79,-960.161C1485.79,-968.546 1437.54,-982.114 1395.11,-988.597 1028.57,-1044.6 574.994,-1043.67 458.367,-1042.51"/>
<polygon fill="black" stroke="black" points="458.184,-1039.01 448.146,-1042.4 458.108,-1046.01 458.184,-1039.01"/>
</g>
<!-- dALA -->
<g id="node42" class="node"><title>dALA</title>
<ellipse fill="none" stroke="black" cx="1202.11" cy="-322.659" rx="18" ry="18"/>
<text text-anchor="middle" x="1202.11" y="-321.459" font-family="Times,serif" font-size="4.00">dALA</text>
</g>
<!-- Heme&#45;&gt;dALA -->
<g id="edge3" class="edge"><title>Heme&#45;&gt;dALA</title>
<path fill="none" stroke="black" d="M1529.44,-933.998C1532.14,-910.874 1535.47,-868.318 1529.11,-832.742 1510.08,-726.408 1428.67,-455.583 1351.11,-380.402 1346.48,-375.92 1269.8,-347.953 1228.3,-333.025"/>
<polygon fill="black" stroke="black" points="1229.41,-329.704 1218.81,-329.619 1227.04,-336.292 1229.41,-329.704"/>
</g>
<!-- ADP -->
<g id="node55" class="node"><title>ADP</title>
<ellipse fill="none" stroke="black" cx="1687.11" cy="-774.468" rx="18" ry="18"/>
<text text-anchor="middle" x="1687.11" y="-773.268" font-family="Times,serif" font-size="4.00">ADP</text>
</g>
<!-- Heme&#45;&gt;ADP -->
<g id="edge7" class="edge"><title>Heme&#45;&gt;ADP</title>
<path fill="none" stroke="black" d="M1540.69,-939.708C1556.75,-926.088 1583.98,-902.181 1605.11,-879.411 1629.84,-852.757 1655.32,-819.351 1671.18,-797.717"/>
<polygon fill="black" stroke="black" points="1674.11,-799.64 1677.16,-789.493 1668.45,-795.523 1674.11,-799.64"/>
</g>
<!-- CO2 -->
<g id="node56" class="node"><title>CO2</title>
<ellipse fill="none" stroke="black" cx="1118.11" cy="-322.659" rx="18" ry="18"/>
<text text-anchor="middle" x="1118.11" y="-321.459" font-family="Times,serif" font-size="4.00">CO2</text>
</g>
<!-- Heme&#45;&gt;CO2 -->
<g id="edge5" class="edge"><title>Heme&#45;&gt;CO2</title>
<path fill="none" stroke="black" d="M1523.48,-934.225C1517.95,-910.631 1506.15,-866.735 1488.11,-832.742 1381.37,-631.582 1299.99,-617.499 1175.11,-427.071 1158.05,-401.056 1141.18,-369.544 1130.28,-348.194"/>
<polygon fill="black" stroke="black" points="1133.34,-346.501 1125.71,-339.156 1127.1,-349.66 1133.34,-346.501"/>
</g>
<!-- Biliverdin -->
<g id="node58" class="node"><title>Biliverdin</title>
<ellipse fill="none" stroke="black" cx="1162.11" cy="-856.077" rx="19.1842" ry="19.1842"/>
<text text-anchor="middle" x="1162.11" y="-854.877" font-family="Times,serif" font-size="4.00">Biliverdin</text>
</g>
<!-- Heme&#45;&gt;Biliverdin -->
<g id="edge10" class="edge"><title>Heme&#45;&gt;Biliverdin</title>
<path fill="none" stroke="black" d="M1509.83,-946.253C1483.33,-939.054 1431,-925.19 1386.11,-915.411 1299.57,-896.562 1270.71,-916.13 1190.11,-879.411 1187.99,-878.448 1185.9,-877.29 1183.86,-876.014"/>
<polygon fill="black" stroke="black" points="1185.6,-872.948 1175.45,-869.911 1181.49,-878.615 1185.6,-872.948"/>
</g>
<!-- CoA&#45;SH -->
<g id="node64" class="node"><title>CoA&#45;SH</title>
<ellipse fill="none" stroke="black" cx="1289.11" cy="-322.659" rx="18" ry="18"/>
<text text-anchor="middle" x="1289.11" y="-321.459" font-family="Times,serif" font-size="4.00">CoA&#45;SH</text>
</g>
<!-- Heme&#45;&gt;CoA&#45;SH -->
<g id="edge4" class="edge"><title>Heme&#45;&gt;CoA&#45;SH</title>
<path fill="none" stroke="black" d="M1536.82,-936.521C1545.84,-922.468 1559.06,-900.266 1567.11,-879.411 1584.17,-835.177 1591.11,-822.881 1591.11,-775.468 1591.11,-775.468 1591.11,-775.468 1591.11,-480.071 1591.11,-357.386 1392.16,-330.815 1317.21,-325.158"/>
<polygon fill="black" stroke="black" points="1317.31,-321.657 1307.09,-324.466 1316.83,-328.64 1317.31,-321.657"/>
</g>
<!-- Dimethly fumarate -->
<g id="node4" class="node"><title>Dimethly fumarate</title>
<ellipse fill="none" stroke="black" cx="28.1075" cy="-1337.83" rx="28.2154" ry="28.2154"/>
<text text-anchor="middle" x="28.1075" y="-1336.63" font-family="Times,serif" font-size="4.00">Dimethly fumarate</text>
</g>
<!-- NRF2_KEAP1 -->
<g id="node16" class="node"><title>NRF2_KEAP1</title>
<ellipse fill="none" stroke="black" cx="60.1075" cy="-1239.79" rx="22.6101" ry="22.6101"/>
<text text-anchor="middle" x="60.1075" y="-1238.59" font-family="Times,serif" font-size="4.00">NRF2_KEAP1</text>
</g>
<!-- Dimethly fumarate&#45;&gt;NRF2_KEAP1 -->
<g id="edge13" class="edge"><title>Dimethly fumarate&#45;&gt;NRF2_KEAP1</title>
<path fill="none" stroke="black" d="M36.7672,-1310.84C40.8274,-1298.66 45.6929,-1284.05 49.9282,-1271.34"/>
<polygon fill="black" stroke="black" points="53.3221,-1272.23 53.1624,-1261.63 46.681,-1270.01 53.3221,-1272.23"/>
</g>
<!-- Reactive Oxygen Species -->
<g id="node5" class="node"><title>Reactive Oxygen Species</title>
<ellipse fill="none" stroke="black" cx="321.107" cy="-952.004" rx="35.0036" ry="35.0036"/>
<text text-anchor="middle" x="321.107" y="-950.804" font-family="Times,serif" font-size="4.00">Reactive Oxygen Species</text>
</g>
<!-- Reactive Oxygen Species&#45;&gt;Lipid Peroxide -->
<g id="edge14" class="edge"><title>Reactive Oxygen Species&#45;&gt;Lipid Peroxide</title>
<path fill="none" stroke="black" d="M339.599,-922.056C347.172,-910.201 355.898,-896.541 363.389,-884.813"/>
<polygon fill="black" stroke="black" points="366.404,-886.596 368.838,-876.284 360.505,-882.828 366.404,-886.596"/>
</g>
<!-- Gly -->
<g id="node6" class="node"><title>Gly</title>
<ellipse fill="none" stroke="black" cx="1202.11" cy="-403.737" rx="18" ry="18"/>
<text text-anchor="middle" x="1202.11" y="-402.537" font-family="Times,serif" font-size="4.00">Gly</text>
</g>
<!-- Gly&#45;&gt;dALA -->
<g id="edge17" class="edge"><title>Gly&#45;&gt;dALA</title>
<path fill="none" stroke="black" d="M1202.11,-385.578C1202.11,-375.423 1202.11,-362.331 1202.11,-350.802"/>
<polygon fill="black" stroke="black" points="1205.61,-350.784 1202.11,-340.784 1198.61,-350.784 1205.61,-350.784"/>
</g>
<!-- Gly&#45;&gt;CO2 -->
<g id="edge16" class="edge"><title>Gly&#45;&gt;CO2</title>
<path fill="none" stroke="black" d="M1189.35,-390.727C1175.83,-377.996 1154.28,-357.707 1138.41,-342.775"/>
<polygon fill="black" stroke="black" points="1140.39,-339.829 1130.71,-335.523 1135.59,-344.926 1140.39,-339.829"/>
</g>
<!-- Gly&#45;&gt;CoA&#45;SH -->
<g id="edge15" class="edge"><title>Gly&#45;&gt;CoA&#45;SH</title>
<path fill="none" stroke="black" d="M1214.94,-391.069C1229.08,-378.22 1252.01,-357.382 1268.63,-342.272"/>
<polygon fill="black" stroke="black" points="1271.17,-344.691 1276.22,-335.375 1266.46,-339.511 1271.17,-344.691"/>
</g>
<!-- BACH1/Maf -->
<g id="node7" class="node"><title>BACH1/Maf</title>
<ellipse fill="none" stroke="black" cx="1577.11" cy="-1239.79" rx="21.4286" ry="21.4286"/>
<text text-anchor="middle" x="1577.11" y="-1238.59" font-family="Times,serif" font-size="4.00">BACH1/Maf</text>
</g>
<!-- HMOX1 -->
<g id="node85" class="node"><title>HMOX1</title>
<ellipse fill="none" stroke="black" cx="1428.11" cy="-1133.78" rx="18" ry="18"/>
<text text-anchor="middle" x="1428.11" y="-1132.58" font-family="Times,serif" font-size="4.00">HMOX1</text>
</g>
<!-- BACH1/Maf&#45;&gt;HMOX1 -->
<g id="edge18" class="edge"><title>BACH1/Maf&#45;&gt;HMOX1</title>
<path fill="none" stroke="black" d="M1564.23,-1222.79C1559.22,-1217.08 1553.22,-1210.84 1547.11,-1205.84 1517.34,-1181.51 1478.37,-1159.87 1453.28,-1147.04"/>
<polygon fill="black" stroke="black" points="1454.59,-1143.78 1444.08,-1142.41 1451.44,-1150.03 1454.59,-1143.78"/>
</g>
<!-- CPOX -->
<g id="node8" class="node"><title>CPOX</title>
<ellipse fill="none" stroke="black" cx="674.107" cy="-626.194" rx="18" ry="18"/>
<text text-anchor="middle" x="674.107" y="-624.994" font-family="Times,serif" font-size="4.00">CPOX</text>
</g>
<!-- PPGEN9 -->
<g id="node10" class="node"><title>PPGEN9</title>
<ellipse fill="none" stroke="black" cx="598.107" cy="-553.633" rx="18" ry="18"/>
<text text-anchor="middle" x="598.107" y="-552.433" font-family="Times,serif" font-size="4.00">PPGEN9</text>
</g>
<!-- CPOX&#45;&gt;PPGEN9 -->
<g id="edge21" class="edge"><title>CPOX&#45;&gt;PPGEN9</title>
<path fill="none" stroke="black" d="M661.215,-613.225C649.462,-602.312 631.908,-586.015 618.295,-573.376"/>
<polygon fill="black" stroke="black" points="620.519,-570.665 610.809,-566.426 615.756,-575.795 620.519,-570.665"/>
</g>
<!-- CPOX&#45;&gt;CO2 -->
<g id="edge19" class="edge"><title>CPOX&#45;&gt;CO2</title>
<path fill="none" stroke="black" d="M676.924,-608.226C683.366,-574.986 702.386,-501.222 749.107,-463.071 856.385,-375.472 1024.46,-339.272 1090.32,-327.931"/>
<polygon fill="black" stroke="black" points="1091.05,-331.358 1100.34,-326.264 1089.9,-324.453 1091.05,-331.358"/>
</g>
<!-- H2O2 -->
<g id="node59" class="node"><title>H2O2</title>
<ellipse fill="none" stroke="black" cx="598.107" cy="-481.071" rx="18" ry="18"/>
<text text-anchor="middle" x="598.107" y="-479.871" font-family="Times,serif" font-size="4.00">H2O2</text>
</g>
<!-- CPOX&#45;&gt;H2O2 -->
<g id="edge20" class="edge"><title>CPOX&#45;&gt;H2O2</title>
<path fill="none" stroke="black" d="M665.974,-609.878C652.775,-585.021 626.588,-535.706 610.883,-506.131"/>
<polygon fill="black" stroke="black" points="613.964,-504.468 606.182,-497.278 607.781,-507.751 613.964,-504.468"/>
</g>
<!-- Pb2+ -->
<g id="node9" class="node"><title>Pb2+</title>
<ellipse fill="none" stroke="black" cx="1146.11" cy="-1043.16" rx="18" ry="18"/>
<text text-anchor="middle" x="1146.11" y="-1041.96" font-family="Times,serif" font-size="4.00">Pb2+</text>
</g>
<!-- Pb2+&#45;&gt;Heme -->
<g id="edge22" class="edge"><title>Pb2+&#45;&gt;Heme</title>
<path fill="none" stroke="black" d="M1163.85,-1039.47C1207.6,-1032.65 1324.02,-1013.49 1419.11,-988.597 1447.47,-981.173 1479.26,-970.387 1500.97,-962.636"/>
<polygon fill="black" stroke="black" points="1502.25,-965.895 1510.46,-959.208 1499.87,-959.311 1502.25,-965.895"/>
</g>
<!-- H+ -->
<g id="node15" class="node"><title>H+</title>
<ellipse fill="none" stroke="black" cx="1072.11" cy="-403.737" rx="18" ry="18"/>
<text text-anchor="middle" x="1072.11" y="-402.537" font-family="Times,serif" font-size="4.00">H+</text>
</g>
<!-- Pb2+&#45;&gt;H+ -->
<g id="edge23" class="edge"><title>Pb2+&#45;&gt;H+</title>
<path fill="none" stroke="black" d="M1130.98,-1032.68C1097.49,-1010.68 1017.71,-952.397 988.107,-879.411 980.312,-860.19 987.302,-853.468 988.107,-832.742 991.666,-741.18 1004.11,-718.825 1004.11,-627.194 1004.11,-627.194 1004.11,-627.194 1004.11,-552.633 1004.11,-503.927 1034.93,-453.769 1055.07,-426.19"/>
<polygon fill="black" stroke="black" points="1057.97,-428.156 1061.18,-418.059 1052.38,-423.95 1057.97,-428.156"/>
</g>
<!-- PRIN9 -->
<g id="node28" class="node"><title>PRIN9</title>
<ellipse fill="none" stroke="black" cx="776.107" cy="-481.071" rx="18" ry="18"/>
<text text-anchor="middle" x="776.107" y="-479.871" font-family="Times,serif" font-size="4.00">PRIN9</text>
</g>
<!-- PPGEN9&#45;&gt;PRIN9 -->
<g id="edge24" class="edge"><title>PPGEN9&#45;&gt;PRIN9</title>
<path fill="none" stroke="black" d="M614.534,-546.121C645.53,-533.834 712.863,-507.142 750.078,-492.39"/>
<polygon fill="black" stroke="black" points="751.714,-495.506 759.72,-488.567 749.134,-488.999 751.714,-495.506"/>
</g>
<!-- PPGEN9&#45;&gt;H2O2 -->
<g id="edge25" class="edge"><title>PPGEN9&#45;&gt;H2O2</title>
<path fill="none" stroke="black" d="M598.107,-535.552C598.107,-527.781 598.107,-518.387 598.107,-509.655"/>
<polygon fill="black" stroke="black" points="601.608,-509.485 598.107,-499.485 594.608,-509.485 601.608,-509.485"/>
</g>
<!-- Orf3a -->
<g id="node11" class="node"><title>Orf3a</title>
<ellipse fill="none" stroke="black" cx="1428.11" cy="-1239.79" rx="18" ry="18"/>
<text text-anchor="middle" x="1428.11" y="-1238.59" font-family="Times,serif" font-size="4.00">Orf3a</text>
</g>
<!-- Orf3a&#45;&gt;HMOX1 -->
<g id="edge26" class="edge"><title>Orf3a&#45;&gt;HMOX1</title>
<path fill="none" stroke="black" d="M1428.11,-1221.61C1428.11,-1205.43 1428.11,-1180.91 1428.11,-1162.06"/>
<polygon fill="black" stroke="black" points="1431.61,-1161.98 1428.11,-1151.98 1424.61,-1161.98 1431.61,-1161.98"/>
</g>
<!-- FLVCR1&#45;2 -->
<g id="node12" class="node"><title>FLVCR1&#45;2</title>
<ellipse fill="none" stroke="black" cx="1582.11" cy="-1043.16" rx="18.6233" ry="18.6233"/>
<text text-anchor="middle" x="1582.11" y="-1041.96" font-family="Times,serif" font-size="4.00">FLVCR1&#45;2</text>
</g>
<!-- FLVCR1&#45;2&#45;&gt;Heme -->
<g id="edge27" class="edge"><title>FLVCR1&#45;2&#45;&gt;Heme</title>
<path fill="none" stroke="black" d="M1572.78,-1027.03C1564.22,-1013.16 1551.42,-992.406 1541.54,-976.398"/>
<polygon fill="black" stroke="black" points="1544.35,-974.282 1536.12,-967.609 1538.39,-977.958 1544.35,-974.282"/>
</g>
<!-- STEAP3 -->
<g id="node13" class="node"><title>STEAP3</title>
<ellipse fill="none" stroke="black" cx="172.107" cy="-1133.78" rx="18" ry="18"/>
<text text-anchor="middle" x="172.107" y="-1132.58" font-family="Times,serif" font-size="4.00">STEAP3</text>
</g>
<!-- STEAP3&#45;&gt;Fe2+ -->
<g id="edge28" class="edge"><title>STEAP3&#45;&gt;Fe2+</title>
<path fill="none" stroke="black" d="M180.538,-1117.47C185.149,-1110.45 191.481,-1102.62 199.107,-1097.72 263.392,-1056.41 355.899,-1046.84 401.905,-1044.71"/>
<polygon fill="black" stroke="black" points="402.174,-1048.2 412.034,-1044.33 401.909,-1041.21 402.174,-1048.2"/>
</g>
<!-- KEAP1 -->
<g id="node14" class="node"><title>KEAP1</title>
<ellipse fill="none" stroke="black" cx="92.1075" cy="-1337.83" rx="18" ry="18"/>
<text text-anchor="middle" x="92.1075" y="-1336.63" font-family="Times,serif" font-size="4.00">KEAP1</text>
</g>
<!-- KEAP1&#45;&gt;NRF2_KEAP1 -->
<g id="edge29" class="edge"><title>KEAP1&#45;&gt;NRF2_KEAP1</title>
<path fill="none" stroke="black" d="M86.6791,-1320.54C82.19,-1307.07 75.6913,-1287.56 70.2446,-1271.21"/>
<polygon fill="black" stroke="black" points="73.498,-1269.9 67.0165,-1261.52 66.8569,-1272.12 73.498,-1269.9"/>
</g>
<!-- H+&#45;&gt;H2O -->
<g id="edge33" class="edge"><title>H+&#45;&gt;H2O</title>
<path fill="none" stroke="black" d="M1073.65,-422.025C1075.97,-449.616 1080.11,-505.319 1080.11,-552.633 1080.11,-627.194 1080.11,-627.194 1080.11,-627.194 1080.11,-703.589 1045.91,-789.054 1027.12,-830.238"/>
<polygon fill="black" stroke="black" points="1023.86,-828.948 1022.82,-839.492 1030.21,-831.901 1023.86,-828.948"/>
</g>
<!-- H+&#45;&gt;dALA -->
<g id="edge30" class="edge"><title>H+&#45;&gt;dALA</title>
<path fill="none" stroke="black" d="M1085.58,-391.575C1107.31,-376.874 1149.6,-351.113 1176.95,-335.895"/>
<polygon fill="black" stroke="black" points="1178.84,-338.851 1185.94,-330.988 1175.48,-332.707 1178.84,-338.851"/>
</g>
<!-- Fe3+ -->
<g id="node47" class="node"><title>Fe3+</title>
<ellipse fill="none" stroke="black" cx="216.107" cy="-322.659" rx="18" ry="18"/>
<text text-anchor="middle" x="216.107" y="-321.459" font-family="Times,serif" font-size="4.00">Fe3+</text>
</g>
<!-- H+&#45;&gt;Fe3+ -->
<g id="edge34" class="edge"><title>H+&#45;&gt;Fe3+</title>
<path fill="none" stroke="black" d="M1054.23,-401.085C945.991,-391.086 378.556,-338.666 244.507,-326.282"/>
<polygon fill="black" stroke="black" points="244.528,-322.77 234.249,-325.335 243.884,-329.74 244.528,-322.77"/>
</g>
<!-- Fe(3+)O(OH) -->
<g id="node49" class="node"><title>Fe(3+)O(OH)</title>
<ellipse fill="none" stroke="black" cx="123.107" cy="-322.659" rx="21.9898" ry="21.9898"/>
<text text-anchor="middle" x="123.107" y="-321.459" font-family="Times,serif" font-size="4.00">Fe(3+)O(OH)</text>
</g>
<!-- H+&#45;&gt;Fe(3+)O(OH) -->
<g id="edge35" class="edge"><title>H+&#45;&gt;Fe(3+)O(OH)</title>
<path fill="none" stroke="black" d="M1053.84,-402.124C943.385,-398.329 363.706,-377.121 189.107,-344.402 177.086,-342.15 164.186,-338.407 153.008,-334.716"/>
<polygon fill="black" stroke="black" points="153.896,-331.321 143.301,-331.385 151.624,-337.942 153.896,-331.321"/>
</g>
<!-- H+&#45;&gt;CO2 -->
<g id="edge32" class="edge"><title>H+&#45;&gt;CO2</title>
<path fill="none" stroke="black" d="M1080.76,-387.863C1087.38,-376.486 1096.63,-360.574 1104.28,-347.437"/>
<polygon fill="black" stroke="black" points="1107.49,-348.87 1109.49,-338.466 1101.44,-345.35 1107.49,-348.87"/>
</g>
<!-- H+&#45;&gt;CoA&#45;SH -->
<g id="edge31" class="edge"><title>H+&#45;&gt;CoA&#45;SH</title>
<path fill="none" stroke="black" d="M1088.77,-396.663C1126.33,-382.978 1217.79,-349.648 1262.97,-333.184"/>
<polygon fill="black" stroke="black" points="1264.19,-336.466 1272.38,-329.753 1261.79,-329.889 1264.19,-336.466"/>
</g>
<!-- Ubiquitin Ligase Complex -->
<g id="node65" class="node"><title>Ubiquitin Ligase Complex</title>
<ellipse fill="none" stroke="black" cx="244.107" cy="-1133.78" rx="36.125" ry="36.125"/>
<text text-anchor="middle" x="244.107" y="-1132.58" font-family="Times,serif" font-size="4.00">Ubiquitin Ligase Complex</text>
</g>
<!-- NRF2_KEAP1&#45;&gt;Ubiquitin Ligase Complex -->
<g id="edge36" class="edge"><title>NRF2_KEAP1&#45;&gt;Ubiquitin Ligase Complex</title>
<path fill="none" stroke="black" d="M74.0748,-1221.39C79.2577,-1215.81 85.4966,-1210.01 92.1075,-1205.84 134.559,-1179.1 154.913,-1193.6 199.107,-1169.84 202.352,-1168.1 205.603,-1166.12 208.79,-1164.02"/>
<polygon fill="black" stroke="black" points="210.87,-1166.83 217.032,-1158.22 206.84,-1161.11 210.87,-1166.83"/>
</g>
<!-- NADPH -->
<g id="node17" class="node"><title>NADPH</title>
<ellipse fill="none" stroke="black" cx="1146.11" cy="-1133.78" rx="18" ry="18"/>
<text text-anchor="middle" x="1146.11" y="-1132.58" font-family="Times,serif" font-size="4.00">NADPH</text>
</g>
<!-- NADPH&#45;&gt;NADP+ -->
<g id="edge40" class="edge"><title>NADPH&#45;&gt;NADP+</title>
<path fill="none" stroke="black" d="M1155.83,-1118.27C1164.97,-1104.22 1178.61,-1082.12 1188.11,-1061.72 1224.35,-983.869 1233.24,-963.187 1252.11,-879.411 1257.88,-853.783 1260.64,-823.901 1261.95,-802.772"/>
<polygon fill="black" stroke="black" points="1265.46,-802.767 1262.51,-792.589 1258.47,-802.381 1265.46,-802.767"/>
</g>
<!-- NADPH&#45;&gt;H2O -->
<g id="edge37" class="edge"><title>NADPH&#45;&gt;H2O</title>
<path fill="none" stroke="black" d="M1133.51,-1120.76C1120.15,-1107.42 1099.21,-1084.73 1086.11,-1061.72 1052.29,-1002.32 1030.7,-924.109 1021.03,-883.741"/>
<polygon fill="black" stroke="black" points="1024.4,-882.806 1018.72,-873.866 1017.59,-884.4 1024.4,-882.806"/>
</g>
<!-- NADPH&#45;&gt;CO -->
<g id="edge41" class="edge"><title>NADPH&#45;&gt;CO</title>
<path fill="none" stroke="black" d="M1163.75,-1129.83C1214.52,-1120.27 1361,-1085 1419.11,-988.597 1439.42,-954.895 1421.56,-908.345 1407.09,-880.617"/>
<polygon fill="black" stroke="black" points="1410.06,-878.738 1402.18,-871.645 1403.91,-882.098 1410.06,-878.738"/>
</g>
<!-- Bilirubin -->
<g id="node37" class="node"><title>Bilirubin</title>
<ellipse fill="none" stroke="black" cx="1209.11" cy="-774.468" rx="18.0625" ry="18.0625"/>
<text text-anchor="middle" x="1209.11" y="-773.268" font-family="Times,serif" font-size="4.00">Bilirubin</text>
</g>
<!-- NADPH&#45;&gt;Bilirubin -->
<g id="edge42" class="edge"><title>NADPH&#45;&gt;Bilirubin</title>
<path fill="none" stroke="black" d="M1139.5,-1116.92C1117.02,-1061.88 1046.76,-879.874 1080.11,-832.742 1107.87,-793.497 1140,-819.93 1182.11,-796.742 1184.06,-795.666 1186.02,-794.451 1187.94,-793.16"/>
<polygon fill="black" stroke="black" points="1190.02,-795.973 1195.98,-787.214 1185.86,-790.345 1190.02,-795.973"/>
</g>
<!-- NADPH&#45;&gt;Fe2+ -->
<g id="edge38" class="edge"><title>NADPH&#45;&gt;Fe2+</title>
<path fill="none" stroke="black" d="M1128.05,-1130.55C1031.51,-1118.6 576.313,-1062.26 458.173,-1047.63"/>
<polygon fill="black" stroke="black" points="458.47,-1044.14 448.116,-1046.39 457.61,-1051.09 458.47,-1044.14"/>
</g>
<!-- NADPH&#45;&gt;Biliverdin -->
<g id="edge39" class="edge"><title>NADPH&#45;&gt;Biliverdin</title>
<path fill="none" stroke="black" d="M1153.8,-1117.45C1160.41,-1103.37 1169.44,-1081.71 1173.11,-1061.72 1176.09,-1045.49 1175.34,-1040.94 1173.11,-1024.6 1170.86,-1008.14 1165.41,-1005.04 1163.11,-988.597 1158.18,-953.419 1158.87,-912.427 1160.17,-885.679"/>
<polygon fill="black" stroke="black" points="1163.68,-885.663 1160.73,-875.486 1156.69,-885.279 1163.68,-885.663"/>
</g>
<!-- SLC11A2 -->
<g id="node18" class="node"><title>SLC11A2</title>
<ellipse fill="none" stroke="black" cx="392.107" cy="-1133.78" rx="18.0625" ry="18.0625"/>
<text text-anchor="middle" x="392.107" y="-1132.58" font-family="Times,serif" font-size="4.00">SLC11A2</text>
</g>
<!-- SLC11A2&#45;&gt;Fe2+ -->
<g id="edge43" class="edge"><title>SLC11A2&#45;&gt;Fe2+</title>
<path fill="none" stroke="black" d="M398.901,-1116.94C404.575,-1103.71 412.767,-1084.6 419.335,-1069.28"/>
<polygon fill="black" stroke="black" points="422.649,-1070.44 423.373,-1059.87 416.215,-1067.68 422.649,-1070.44"/>
</g>
<!-- ALB/BIL -->
<g id="node19" class="node"><title>ALB/BIL</title>
<ellipse fill="none" stroke="black" cx="1200.11" cy="-698.194" rx="18" ry="18"/>
<text text-anchor="middle" x="1200.11" y="-696.994" font-family="Times,serif" font-size="4.00">ALB/BIL</text>
</g>
<!-- FECH -->
<g id="node20" class="node"><title>FECH</title>
<ellipse fill="none" stroke="black" cx="1729.11" cy="-1043.16" rx="18" ry="18"/>
<text text-anchor="middle" x="1729.11" y="-1041.96" font-family="Times,serif" font-size="4.00">FECH</text>
</g>
<!-- FECH&#45;&gt;Heme -->
<g id="edge44" class="edge"><title>FECH&#45;&gt;Heme</title>
<path fill="none" stroke="black" d="M1714.84,-1032.16C1710.81,-1029.54 1706.37,-1026.83 1702.11,-1024.6 1651.29,-997.98 1588.31,-974.342 1553.45,-962.018"/>
<polygon fill="black" stroke="black" points="1554.58,-958.706 1543.98,-958.707 1552.27,-965.313 1554.58,-958.706"/>
</g>
<!-- FECH&#45;&gt;H+ -->
<g id="edge45" class="edge"><title>FECH&#45;&gt;H+</title>
<path fill="none" stroke="black" d="M1740.32,-1028.97C1775.46,-985.975 1877.59,-847.147 1817.11,-752.194 1730.96,-616.961 1222.08,-451.437 1098.93,-412.984"/>
<polygon fill="black" stroke="black" points="1099.75,-409.575 1089.17,-409.949 1097.68,-416.259 1099.75,-409.575"/>
</g>
<!-- miRNA&#45;155 -->
<g id="node21" class="node"><title>miRNA&#45;155</title>
<ellipse fill="none" stroke="black" cx="1577.11" cy="-1422.62" rx="20.8674" ry="20.8674"/>
<text text-anchor="middle" x="1577.11" y="-1421.42" font-family="Times,serif" font-size="4.00">miRNA&#45;155</text>
</g>
<!-- BACH1 -->
<g id="node67" class="node"><title>BACH1</title>
<ellipse fill="none" stroke="black" cx="1577.11" cy="-1337.83" rx="18" ry="18"/>
<text text-anchor="middle" x="1577.11" y="-1336.63" font-family="Times,serif" font-size="4.00">BACH1</text>
</g>
<!-- miRNA&#45;155&#45;&gt;BACH1 -->
<g id="edge46" class="edge"><title>miRNA&#45;155&#45;&gt;BACH1</title>
<path fill="none" stroke="black" d="M1577.11,-1401.58C1577.11,-1390.88 1577.11,-1377.57 1577.11,-1365.95"/>
<polygon fill="black" stroke="black" points="1580.61,-1365.89 1577.11,-1355.89 1573.61,-1365.89 1580.61,-1365.89"/>
</g>
<!-- TFRC -->
<g id="node23" class="node"><title>TFRC</title>
<ellipse fill="none" stroke="black" cx="272.107" cy="-20.1525" rx="18" ry="18"/>
<text text-anchor="middle" x="272.107" y="-18.9525" font-family="Times,serif" font-size="4.00">TFRC</text>
</g>
<!-- TFRC_holoTF -->
<g id="node81" class="node"><title>TFRC_holoTF</title>
<ellipse fill="none" stroke="black" cx="239.107" cy="-170.641" rx="22.05" ry="22.05"/>
<text text-anchor="middle" x="239.107" y="-169.441" font-family="Times,serif" font-size="4.00">TFRC_holoTF</text>
</g>
<!-- TFRC&#45;&gt;TFRC_holoTF -->
<g id="edge47" class="edge"><title>TFRC&#45;&gt;TFRC_holoTF</title>
<path fill="none" stroke="black" d="M271.622,-38.2075C270.776,-56.7176 268.458,-87.0246 262.107,-112.368 259.717,-121.909 256.083,-131.972 252.405,-140.955"/>
<polygon fill="black" stroke="black" points="249.164,-139.633 248.454,-150.204 255.601,-142.383 249.164,-139.633"/>
</g>
<!-- H2O&#45;&gt;Heme -->
<g id="edge49" class="edge"><title>H2O&#45;&gt;Heme</title>
<path fill="none" stroke="black" d="M1032.4,-861.601C1047.68,-866.731 1069.56,-874.958 1089.11,-879.411 1222.62,-909.835 1260.44,-890.601 1395.11,-915.411 1432.37,-922.276 1474.4,-933.325 1500.99,-941.292"/>
<polygon fill="black" stroke="black" points="1500.13,-944.689 1510.72,-944.285 1502.19,-937.998 1500.13,-944.689"/>
</g>
<!-- HMBL -->
<g id="node27" class="node"><title>HMBL</title>
<ellipse fill="none" stroke="black" cx="854.107" cy="-774.468" rx="18" ry="18"/>
<text text-anchor="middle" x="854.107" y="-773.268" font-family="Times,serif" font-size="4.00">HMBL</text>
</g>
<!-- H2O&#45;&gt;HMBL -->
<g id="edge52" class="edge"><title>H2O&#45;&gt;HMBL</title>
<path fill="none" stroke="black" d="M999.377,-847.299C971.435,-833.482 912.929,-804.554 879.314,-787.932"/>
<polygon fill="black" stroke="black" points="880.656,-784.691 870.14,-783.396 877.553,-790.966 880.656,-784.691"/>
</g>
<!-- H2O&#45;&gt;Pi -->
<g id="edge48" class="edge"><title>H2O&#45;&gt;Pi</title>
<path fill="none" stroke="black" d="M1031.33,-848.108C1044.27,-842.891 1063.01,-836.098 1080.11,-832.742 1357.05,-778.375 1435.7,-843.051 1714.11,-796.742 1730.75,-793.974 1748.96,-788.948 1763.38,-784.476"/>
<polygon fill="black" stroke="black" points="1764.68,-787.736 1773.14,-781.358 1762.55,-781.069 1764.68,-787.736"/>
</g>
<!-- H2O&#45;&gt;ADP -->
<g id="edge50" class="edge"><title>H2O&#45;&gt;ADP</title>
<path fill="none" stroke="black" d="M1031.36,-848.285C1044.33,-843.165 1063.08,-836.417 1080.11,-832.742 1299.39,-785.424 1571.62,-777.199 1658.84,-775.769"/>
<polygon fill="black" stroke="black" points="1659.05,-779.266 1668.99,-775.62 1658.94,-772.267 1659.05,-779.266"/>
</g>
<!-- NH4+ -->
<g id="node76" class="node"><title>NH4+</title>
<ellipse fill="none" stroke="black" cx="928.107" cy="-170.641" rx="18" ry="18"/>
<text text-anchor="middle" x="928.107" y="-169.441" font-family="Times,serif" font-size="4.00">NH4+</text>
</g>
<!-- H2O&#45;&gt;NH4+ -->
<g id="edge51" class="edge"><title>H2O&#45;&gt;NH4+</title>
<path fill="none" stroke="black" d="M1005.46,-840.873C982.813,-806.082 928.107,-713.161 928.107,-627.194 928.107,-627.194 928.107,-627.194 928.107,-321.659 928.107,-278.746 928.107,-228.929 928.107,-198.871"/>
<polygon fill="black" stroke="black" points="931.608,-198.74 928.107,-188.74 924.608,-198.74 931.608,-198.74"/>
</g>
<!-- Transferrin -->
<g id="node25" class="node"><title>Transferrin</title>
<ellipse fill="none" stroke="black" cx="207.107" cy="-20.1525" rx="20.3063" ry="20.3062"/>
<text text-anchor="middle" x="207.107" y="-18.9525" font-family="Times,serif" font-size="4.00">Transferrin</text>
</g>
<!-- holoTF -->
<g id="node34" class="node"><title>holoTF</title>
<ellipse fill="none" stroke="black" cx="193.107" cy="-246.915" rx="18" ry="18"/>
<text text-anchor="middle" x="193.107" y="-245.715" font-family="Times,serif" font-size="4.00">holoTF</text>
</g>
<!-- Transferrin&#45;&gt;holoTF -->
<g id="edge53" class="edge"><title>Transferrin&#45;&gt;holoTF</title>
<path fill="none" stroke="black" d="M205.911,-40.3696C203.424,-80.2963 197.69,-172.338 194.816,-218.488"/>
<polygon fill="black" stroke="black" points="191.311,-218.453 194.183,-228.652 198.298,-218.889 191.311,-218.453"/>
</g>
<!-- SUCC&#45;CoA -->
<g id="node26" class="node"><title>SUCC&#45;CoA</title>
<ellipse fill="none" stroke="black" cx="1258.11" cy="-403.737" rx="20.3063" ry="20.3062"/>
<text text-anchor="middle" x="1258.11" y="-402.537" font-family="Times,serif" font-size="4.00">SUCC&#45;CoA</text>
</g>
<!-- SUCC&#45;CoA&#45;&gt;dALA -->
<g id="edge56" class="edge"><title>SUCC&#45;CoA&#45;&gt;dALA</title>
<path fill="none" stroke="black" d="M1246.78,-386.734C1238.52,-375.074 1227.22,-359.119 1218.05,-346.174"/>
<polygon fill="black" stroke="black" points="1220.74,-343.92 1212.11,-337.782 1215.03,-347.966 1220.74,-343.92"/>
</g>
<!-- SUCC&#45;CoA&#45;&gt;CO2 -->
<g id="edge55" class="edge"><title>SUCC&#45;CoA&#45;&gt;CO2</title>
<path fill="none" stroke="black" d="M1242.84,-390.138C1238.51,-386.806 1233.72,-383.326 1229.11,-380.402 1200.95,-362.573 1166.5,-345.661 1143.52,-335.014"/>
<polygon fill="black" stroke="black" points="1144.97,-331.83 1134.42,-330.85 1142.06,-338.195 1144.97,-331.83"/>
</g>
<!-- SUCC&#45;CoA&#45;&gt;CoA&#45;SH -->
<g id="edge54" class="edge"><title>SUCC&#45;CoA&#45;&gt;CoA&#45;SH</title>
<path fill="none" stroke="black" d="M1265.14,-384.793C1269.26,-374.29 1274.53,-360.854 1279.07,-349.255"/>
<polygon fill="black" stroke="black" points="1282.45,-350.242 1282.84,-339.654 1275.93,-347.687 1282.45,-350.242"/>
</g>
<!-- URO3 -->
<g id="node69" class="node"><title>URO3</title>
<ellipse fill="none" stroke="black" cx="686.107" cy="-698.194" rx="18" ry="18"/>
<text text-anchor="middle" x="686.107" y="-696.994" font-family="Times,serif" font-size="4.00">URO3</text>
</g>
<!-- HMBL&#45;&gt;URO3 -->
<g id="edge57" class="edge"><title>HMBL&#45;&gt;URO3</title>
<path fill="none" stroke="black" d="M837.999,-766.347C808.847,-753.458 747.111,-726.164 711.982,-710.634"/>
<polygon fill="black" stroke="black" points="712.975,-707.246 702.414,-706.404 710.145,-713.648 712.975,-707.246"/>
</g>
<!-- PRIN9&#45;&gt;Heme -->
<g id="edge58" class="edge"><title>PRIN9&#45;&gt;Heme</title>
<path fill="none" stroke="black" d="M793.396,-486.442C877.575,-508.539 1248.88,-615.549 1456.11,-832.742 1482.67,-860.581 1503.86,-900.06 1515.95,-925.602"/>
<polygon fill="black" stroke="black" points="1512.91,-927.364 1520.28,-934.977 1519.27,-924.43 1512.91,-927.364"/>
</g>
<!-- PRIN9&#45;&gt;H+ -->
<g id="edge59" class="edge"><title>PRIN9&#45;&gt;H+</title>
<path fill="none" stroke="black" d="M793.301,-475.695C842.654,-463.135 985.052,-426.893 1045,-411.636"/>
<polygon fill="black" stroke="black" points="1046.04,-414.983 1054.87,-409.125 1044.31,-408.2 1046.04,-414.983"/>
</g>
<!-- UROD -->
<g id="node29" class="node"><title>UROD</title>
<ellipse fill="none" stroke="black" cx="567.107" cy="-698.194" rx="18" ry="18"/>
<text text-anchor="middle" x="567.107" y="-696.994" font-family="Times,serif" font-size="4.00">UROD</text>
</g>
<!-- COPRO3 -->
<g id="node44" class="node"><title>COPRO3</title>
<ellipse fill="none" stroke="black" cx="567.107" cy="-626.194" rx="18" ry="18"/>
<text text-anchor="middle" x="567.107" y="-624.994" font-family="Times,serif" font-size="4.00">COPRO3</text>
</g>
<!-- UROD&#45;&gt;COPRO3 -->
<g id="edge60" class="edge"><title>UROD&#45;&gt;COPRO3</title>
<path fill="none" stroke="black" d="M567.107,-679.891C567.107,-672.177 567.107,-662.907 567.107,-654.307"/>
<polygon fill="black" stroke="black" points="570.608,-654.299 567.107,-644.299 563.608,-654.299 570.608,-654.299"/>
</g>
<!-- ATP -->
<g id="node30" class="node"><title>ATP</title>
<ellipse fill="none" stroke="black" cx="1783.11" cy="-1043.16" rx="18" ry="18"/>
<text text-anchor="middle" x="1783.11" y="-1041.96" font-family="Times,serif" font-size="4.00">ATP</text>
</g>
<!-- ATP&#45;&gt;Heme -->
<g id="edge62" class="edge"><title>ATP&#45;&gt;Heme</title>
<path fill="none" stroke="black" d="M1768.96,-1031.92C1764.93,-1029.3 1760.46,-1026.64 1756.11,-1024.6 1686.64,-991.908 1598.51,-969.18 1554.59,-959.013"/>
<polygon fill="black" stroke="black" points="1555.19,-955.56 1544.66,-956.756 1553.63,-962.386 1555.19,-955.56"/>
</g>
<!-- ATP&#45;&gt;Pi -->
<g id="edge61" class="edge"><title>ATP&#45;&gt;Pi</title>
<path fill="none" stroke="black" d="M1797.65,-1031.73C1809.72,-1022.09 1826.02,-1006.59 1833.11,-988.597 1858.51,-924.155 1855.03,-898.451 1833.11,-832.742 1828.45,-818.782 1818.91,-805.488 1809.99,-795.228"/>
<polygon fill="black" stroke="black" points="1812.42,-792.698 1803.08,-787.695 1807.26,-797.43 1812.42,-792.698"/>
</g>
<!-- ATP&#45;&gt;ADP -->
<g id="edge63" class="edge"><title>ATP&#45;&gt;ADP</title>
<path fill="none" stroke="black" d="M1777.25,-1025.88C1761.11,-981.043 1715.92,-855.504 1696.34,-801.123"/>
<polygon fill="black" stroke="black" points="1699.57,-799.76 1692.89,-791.536 1692.99,-802.131 1699.57,-799.76"/>
</g>
<!-- HMBS_DIPY -->
<g id="node33" class="node"><title>HMBS_DIPY</title>
<ellipse fill="none" stroke="black" cx="715.107" cy="-856.077" rx="21.4286" ry="21.4286"/>
<text text-anchor="middle" x="715.107" y="-854.877" font-family="Times,serif" font-size="4.00">HMBS_DIPY</text>
</g>
<!-- HMBS_DIPY&#45;&gt;HMBL -->
<g id="edge64" class="edge"><title>HMBS_DIPY&#45;&gt;HMBL</title>
<path fill="none" stroke="black" d="M732.335,-843.58C737.929,-839.983 744.213,-836.084 750.107,-832.742 781.23,-815.095 791.152,-814.68 822.107,-796.742 825.051,-795.036 828.092,-793.166 831.075,-791.264"/>
<polygon fill="black" stroke="black" points="833.259,-794.017 839.691,-785.598 829.413,-788.168 833.259,-794.017"/>
</g>
<!-- HMBS_DIPY&#45;&gt;NH4+ -->
<g id="edge65" class="edge"><title>HMBS_DIPY&#45;&gt;NH4+</title>
<path fill="none" stroke="black" d="M722.228,-835.972C726.399,-824.618 731.697,-809.908 736.107,-796.742 748.014,-761.2 750.057,-752.012 761.107,-716.194 822.502,-517.201 895.9,-277.091 920.005,-198.177"/>
<polygon fill="black" stroke="black" points="923.499,-198.719 923.072,-188.132 916.804,-196.674 923.499,-198.719"/>
</g>
<!-- holoTF&#45;&gt;TFRC_holoTF -->
<g id="edge66" class="edge"><title>holoTF&#45;&gt;TFRC_holoTF</title>
<path fill="none" stroke="black" d="M202.196,-231.241C207.923,-221.993 215.494,-209.768 222.289,-198.798"/>
<polygon fill="black" stroke="black" points="225.465,-200.316 227.755,-189.971 219.514,-196.63 225.465,-200.316"/>
</g>
<!-- BLVRA -->
<g id="node35" class="node"><title>BLVRA</title>
<ellipse fill="none" stroke="black" cx="1299.11" cy="-952.004" rx="18" ry="18"/>
<text text-anchor="middle" x="1299.11" y="-950.804" font-family="Times,serif" font-size="4.00">BLVRA</text>
</g>
<!-- BLVRA_Zn2+ -->
<g id="node60" class="node"><title>BLVRA_Zn2+</title>
<ellipse fill="none" stroke="black" cx="1221.11" cy="-856.077" rx="22.05" ry="22.05"/>
<text text-anchor="middle" x="1221.11" y="-854.877" font-family="Times,serif" font-size="4.00">BLVRA_Zn2+</text>
</g>
<!-- BLVRA&#45;&gt;BLVRA_Zn2+ -->
<g id="edge67" class="edge"><title>BLVRA&#45;&gt;BLVRA_Zn2+</title>
<path fill="none" stroke="black" d="M1287.93,-937.547C1275.8,-922.942 1256.19,-899.318 1241.34,-881.436"/>
<polygon fill="black" stroke="black" points="1243.97,-879.134 1234.89,-873.676 1238.59,-883.606 1243.97,-879.134"/>
</g>
<!-- PPO_FAD -->
<g id="node36" class="node"><title>PPO_FAD</title>
<ellipse fill="none" stroke="black" cx="729.107" cy="-553.633" rx="18.6233" ry="18.6233"/>
<text text-anchor="middle" x="729.107" y="-552.433" font-family="Times,serif" font-size="4.00">PPO_FAD</text>
</g>
<!-- PPO_FAD&#45;&gt;PRIN9 -->
<g id="edge68" class="edge"><title>PPO_FAD&#45;&gt;PRIN9</title>
<path fill="none" stroke="black" d="M739.075,-537.669C745.39,-528.187 753.684,-515.736 760.821,-505.021"/>
<polygon fill="black" stroke="black" points="763.845,-506.795 766.476,-496.531 758.019,-502.914 763.845,-506.795"/>
</g>
<!-- PPO_FAD&#45;&gt;H2O2 -->
<g id="edge69" class="edge"><title>PPO_FAD&#45;&gt;H2O2</title>
<path fill="none" stroke="black" d="M713.044,-543.981C690.53,-531.854 649.385,-509.692 622.918,-495.435"/>
<polygon fill="black" stroke="black" points="624.357,-492.235 613.893,-490.574 621.037,-498.398 624.357,-492.235"/>
</g>
<!-- Bilirubin&#45;&gt;ALB/BIL -->
<g id="edge70" class="edge"><title>Bilirubin&#45;&gt;ALB/BIL</title>
<path fill="none" stroke="black" d="M1207.02,-756.242C1205.95,-747.43 1204.63,-736.495 1203.42,-726.563"/>
<polygon fill="black" stroke="black" points="1206.86,-725.834 1202.18,-716.328 1199.91,-726.676 1206.86,-725.834"/>
</g>
<!-- CYBRD1_Heme -->
<g id="node38" class="node"><title>CYBRD1_Heme</title>
<ellipse fill="none" stroke="black" cx="453.107" cy="-1133.78" rx="24.8512" ry="24.8512"/>
<text text-anchor="middle" x="453.107" y="-1132.58" font-family="Times,serif" font-size="4.00">CYBRD1_Heme</text>
</g>
<!-- CYBRD1_Heme&#45;&gt;Fe2+ -->
<g id="edge71" class="edge"><title>CYBRD1_Heme&#45;&gt;Fe2+</title>
<path fill="none" stroke="black" d="M447.065,-1109.5C443.966,-1097.56 440.179,-1082.97 436.971,-1070.6"/>
<polygon fill="black" stroke="black" points="440.339,-1069.65 434.44,-1060.85 433.564,-1071.41 440.339,-1069.65"/>
</g>
<!-- Fe2+&#45;&gt;Heme -->
<g id="edge77" class="edge"><title>Fe2+&#45;&gt;Heme</title>
<path fill="none" stroke="black" d="M448.308,-1042.46C545,-1043.64 1005.73,-1045.34 1377.11,-988.597 1420.42,-981.979 1469.8,-967.978 1499.93,-959.644"/>
<polygon fill="black" stroke="black" points="1501.02,-962.974 1509.74,-956.954 1499.17,-956.223 1501.02,-962.974"/>
</g>
<!-- Fe2+&#45;&gt;Reactive Oxygen Species -->
<g id="edge75" class="edge"><title>Fe2+&#45;&gt;Reactive Oxygen Species</title>
<path fill="none" stroke="black" d="M416.303,-1030.87C401.131,-1018.46 376.183,-998.052 355.633,-981.244"/>
<polygon fill="black" stroke="black" points="357.672,-978.389 347.715,-974.767 353.24,-983.808 357.672,-978.389"/>
</g>
<!-- Fe2+&#45;&gt;H+ -->
<g id="edge76" class="edge"><title>Fe2+&#45;&gt;H+</title>
<path fill="none" stroke="black" d="M412.1,-1042.76C374.725,-1042.94 288.523,-1037.69 244.107,-988.597 204.242,-944.536 220.107,-916.495 220.107,-857.077 220.107,-857.077 220.107,-857.077 220.107,-697.194 220.107,-509.675 395.091,-527.737 571.107,-463.071 659.274,-430.68 951.501,-411.611 1043.87,-406.283"/>
<polygon fill="black" stroke="black" points="1044.33,-409.763 1054.11,-405.702 1043.93,-402.774 1044.33,-409.763"/>
</g>
<!-- Fe2+&#45;&gt;H2O -->
<g id="edge73" class="edge"><title>Fe2+&#45;&gt;H2O</title>
<path fill="none" stroke="black" d="M448.086,-1040.75C510.54,-1035.65 717.519,-1016.94 777.107,-988.597 820.922,-967.758 816.625,-940.574 858.107,-915.411 900.282,-889.828 955.503,-872.535 987.961,-863.779"/>
<polygon fill="black" stroke="black" points="988.869,-867.159 997.653,-861.237 987.093,-860.389 988.869,-867.159"/>
</g>
<!-- Fe2+&#45;&gt;Fe3+ -->
<g id="edge74" class="edge"><title>Fe2+&#45;&gt;Fe3+</title>
<path fill="none" stroke="black" d="M412.179,-1040.5C363.795,-1035.14 234.027,-1016.96 204.107,-988.597 159.77,-946.56 164.107,-918.174 164.107,-857.077 164.107,-857.077 164.107,-857.077 164.107,-480.071 164.107,-430.772 184.214,-375.758 199.807,-345.896"/>
<polygon fill="black" stroke="black" points="202.883,-347.566 204.679,-337.124 196.764,-344.166 202.883,-347.566"/>
</g>
<!-- Fe2+&#45;&gt;Fe(3+)O(OH) -->
<g id="edge72" class="edge"><title>Fe2+&#45;&gt;Fe(3+)O(OH)</title>
<path fill="none" stroke="black" d="M412.235,-1040.29C360.344,-1034.59 210.833,-1016.12 171.107,-988.597 114.291,-949.234 88.1075,-926.197 88.1075,-857.077 88.1075,-857.077 88.1075,-857.077 88.1075,-480.071 88.1075,-435.071 102.075,-384.507 112.363,-353.366"/>
<polygon fill="black" stroke="black" points="115.782,-354.181 115.685,-343.586 109.154,-351.929 115.782,-354.181"/>
</g>
<!-- ALB -->
<g id="node40" class="node"><title>ALB</title>
<ellipse fill="none" stroke="black" cx="1155.11" cy="-774.468" rx="18" ry="18"/>
<text text-anchor="middle" x="1155.11" y="-773.268" font-family="Times,serif" font-size="4.00">ALB</text>
</g>
<!-- ALB&#45;&gt;ALB/BIL -->
<g id="edge78" class="edge"><title>ALB&#45;&gt;ALB/BIL</title>
<path fill="none" stroke="black" d="M1164,-758.794C1170.18,-748.586 1178.56,-734.752 1185.7,-722.981"/>
<polygon fill="black" stroke="black" points="1188.89,-724.459 1191.08,-714.092 1182.91,-720.831 1188.89,-724.459"/>
</g>
<!-- SLC40A1_CP_Cu2+ -->
<g id="node41" class="node"><title>SLC40A1_CP_Cu2+</title>
<ellipse fill="none" stroke="black" cx="327.107" cy="-1133.78" rx="28.7763" ry="28.7763"/>
<text text-anchor="middle" x="327.107" y="-1132.58" font-family="Times,serif" font-size="4.00">SLC40A1_CP_Cu2+</text>
</g>
<!-- SLC40A1_CP_Cu2+&#45;&gt;H2O -->
<g id="edge81" class="edge"><title>SLC40A1_CP_Cu2+&#45;&gt;H2O</title>
<path fill="none" stroke="black" d="M338.998,-1107.39C351.666,-1082.93 373.913,-1046.5 403.107,-1024.6 523.316,-934.42 578.002,-954.479 723.107,-915.411 818.878,-889.626 935.102,-869.726 987.334,-861.372"/>
<polygon fill="black" stroke="black" points="988.148,-864.787 997.478,-859.767 987.053,-857.873 988.148,-864.787"/>
</g>
<!-- SLC40A1_CP_Cu2+&#45;&gt;Fe2+ -->
<g id="edge79" class="edge"><title>SLC40A1_CP_Cu2+&#45;&gt;Fe2+</title>
<path fill="none" stroke="black" d="M347.823,-1113.28C353.38,-1108.15 359.425,-1102.68 365.107,-1097.72 379.39,-1085.26 395.872,-1071.69 408.665,-1061.32"/>
<polygon fill="black" stroke="black" points="410.894,-1064.02 416.479,-1055.02 406.498,-1058.58 410.894,-1064.02"/>
</g>
<!-- SLC40A1_CP_Cu2+&#45;&gt;Fe3+ -->
<g id="edge80" class="edge"><title>SLC40A1_CP_Cu2+&#45;&gt;Fe3+</title>
<path fill="none" stroke="black" d="M306.267,-1113.42C300.711,-1108.29 294.698,-1102.78 289.107,-1097.72 217.283,-1032.71 126.107,-1049.88 126.107,-953.004 126.107,-953.004 126.107,-953.004 126.107,-480.071 126.107,-424.468 169.365,-370.784 195.901,-343.083"/>
<polygon fill="black" stroke="black" points="198.687,-345.242 203.213,-335.663 193.701,-340.329 198.687,-345.242"/>
</g>
<!-- dALA&#45;&gt;H+ -->
<g id="edge84" class="edge"><title>dALA&#45;&gt;H+</title>
<path fill="none" stroke="black" d="M1188.41,-334.968C1166.6,-349.709 1124.43,-375.39 1097.18,-390.551"/>
<polygon fill="black" stroke="black" points="1095.32,-387.577 1088.22,-395.439 1098.67,-393.722 1095.32,-387.577"/>
</g>
<!-- dALA&#45;&gt;H2O -->
<g id="edge83" class="edge"><title>dALA&#45;&gt;H2O</title>
<path fill="none" stroke="black" d="M1193.68,-338.635C1187.71,-349.83 1179.93,-365.679 1175.11,-380.402 1161.08,-423.261 1156.11,-434.976 1156.11,-480.071 1156.11,-554.633 1156.11,-554.633 1156.11,-554.633 1156.11,-669.744 1122.39,-697.476 1064.11,-796.742 1056,-810.557 1044.59,-824.359 1034.83,-835.066"/>
<polygon fill="black" stroke="black" points="1032.05,-832.912 1027.76,-842.6 1037.15,-837.701 1032.05,-832.912"/>
</g>
<!-- PBG -->
<g id="node70" class="node"><title>PBG</title>
<ellipse fill="none" stroke="black" cx="1088.11" cy="-246.915" rx="18" ry="18"/>
<text text-anchor="middle" x="1088.11" y="-245.715" font-family="Times,serif" font-size="4.00">PBG</text>
</g>
<!-- dALA&#45;&gt;PBG -->
<g id="edge82" class="edge"><title>dALA&#45;&gt;PBG</title>
<path fill="none" stroke="black" d="M1187.2,-312.018C1168,-299.597 1134.4,-277.859 1111.71,-263.181"/>
<polygon fill="black" stroke="black" points="1113.31,-260.051 1103.01,-257.558 1109.51,-265.929 1113.31,-260.051"/>
</g>
<!-- SLC40A1_HEPH_Cu2+ -->
<g id="node43" class="node"><title>SLC40A1_HEPH_Cu2+</title>
<ellipse fill="none" stroke="black" cx="636.107" cy="-1133.78" rx="31.6406" ry="31.6406"/>
<text text-anchor="middle" x="636.107" y="-1132.58" font-family="Times,serif" font-size="4.00">SLC40A1_HEPH_Cu2+</text>
</g>
<!-- SLC40A1_HEPH_Cu2+&#45;&gt;H2O -->
<g id="edge86" class="edge"><title>SLC40A1_HEPH_Cu2+&#45;&gt;H2O</title>
<path fill="none" stroke="black" d="M659.641,-1112C665.278,-1107.21 671.338,-1102.2 677.107,-1097.72 743.64,-1046.04 770.869,-1046.46 832.107,-988.597 862.275,-960.094 857.542,-941.14 890.107,-915.411 920.134,-891.689 961.376,-874.854 988.135,-865.55"/>
<polygon fill="black" stroke="black" points="989.602,-868.749 997.965,-862.245 987.371,-862.114 989.602,-868.749"/>
</g>
<!-- SLC40A1_HEPH_Cu2+&#45;&gt;Fe2+ -->
<g id="edge87" class="edge"><title>SLC40A1_HEPH_Cu2+&#45;&gt;Fe2+</title>
<path fill="none" stroke="black" d="M614.011,-1110.81C608.221,-1105.96 601.733,-1101.22 595.107,-1097.72 540.958,-1069.12 518.906,-1084.61 462.107,-1061.72 459.407,-1060.63 456.646,-1059.37 453.932,-1058.03"/>
<polygon fill="black" stroke="black" points="455.521,-1054.91 445.047,-1053.32 452.242,-1061.09 455.521,-1054.91"/>
</g>
<!-- SLC40A1_HEPH_Cu2+&#45;&gt;Fe3+ -->
<g id="edge85" class="edge"><title>SLC40A1_HEPH_Cu2+&#45;&gt;Fe3+</title>
<path fill="none" stroke="black" d="M613.323,-1110.9C607.654,-1106.15 601.393,-1101.44 595.107,-1097.72 556.261,-1074.7 538.9,-1084.83 500.107,-1061.72 478.416,-1048.8 479.789,-1035.69 457.107,-1024.6 383.816,-988.759 333.22,-1047.82 277.107,-988.597 236.487,-945.724 258.107,-916.137 258.107,-857.077 258.107,-857.077 258.107,-857.077 258.107,-480.071 258.107,-432.328 239.629,-379.104 227.185,-348.676"/>
<polygon fill="black" stroke="black" points="230.334,-347.134 223.232,-339.272 223.881,-349.847 230.334,-347.134"/>
</g>
<!-- COPRO3&#45;&gt;PPGEN9 -->
<g id="edge90" class="edge"><title>COPRO3&#45;&gt;PPGEN9</title>
<path fill="none" stroke="black" d="M573.987,-609.535C577.787,-600.886 582.599,-589.932 586.925,-580.087"/>
<polygon fill="black" stroke="black" points="590.214,-581.301 591.032,-570.738 583.805,-578.486 590.214,-581.301"/>
</g>
<!-- COPRO3&#45;&gt;CO2 -->
<g id="edge88" class="edge"><title>COPRO3&#45;&gt;CO2</title>
<path fill="none" stroke="black" d="M561.702,-608.784C552.305,-576.853 537.033,-505.76 571.107,-463.071 637.764,-379.565 987.729,-337.169 1090.01,-326.436"/>
<polygon fill="black" stroke="black" points="1090.59,-329.894 1100.18,-325.388 1089.87,-322.931 1090.59,-329.894"/>
</g>
<!-- COPRO3&#45;&gt;H2O2 -->
<g id="edge89" class="edge"><title>COPRO3&#45;&gt;H2O2</title>
<path fill="none" stroke="black" d="M565.731,-607.928C564.758,-589.544 564.6,-559.757 571.107,-535.071 573.804,-524.844 578.664,-514.317 583.526,-505.367"/>
<polygon fill="black" stroke="black" points="586.563,-507.105 588.502,-496.689 580.491,-503.623 586.563,-507.105"/>
</g>
<!-- SLC40A1 -->
<g id="node45" class="node"><title>SLC40A1</title>
<ellipse fill="none" stroke="black" cx="459.107" cy="-1239.79" rx="18.0625" ry="18.0625"/>
<text text-anchor="middle" x="459.107" y="-1238.59" font-family="Times,serif" font-size="4.00">SLC40A1</text>
</g>
<!-- SLC40A1&#45;&gt;SLC40A1_CP_Cu2+ -->
<g id="edge91" class="edge"><title>SLC40A1&#45;&gt;SLC40A1_CP_Cu2+</title>
<path fill="none" stroke="black" d="M449.409,-1224.57C444.682,-1218.32 438.616,-1211.2 432.107,-1205.84 406.007,-1184.36 392.637,-1189.46 365.107,-1169.84 361.473,-1167.25 357.817,-1164.35 354.285,-1161.35"/>
<polygon fill="black" stroke="black" points="356.608,-1158.73 346.806,-1154.71 351.96,-1163.96 356.608,-1158.73"/>
</g>
<!-- Orf9c -->
<g id="node46" class="node"><title>Orf9c</title>
<ellipse fill="none" stroke="black" cx="750.107" cy="-952.004" rx="18" ry="18"/>
<text text-anchor="middle" x="750.107" y="-950.804" font-family="Times,serif" font-size="4.00">Orf9c</text>
</g>
<!-- ABCC1 -->
<g id="node82" class="node"><title>ABCC1</title>
<ellipse fill="none" stroke="black" cx="810.107" cy="-856.077" rx="18" ry="18"/>
<text text-anchor="middle" x="810.107" y="-854.877" font-family="Times,serif" font-size="4.00">ABCC1</text>
</g>
<!-- Orf9c&#45;&gt;ABCC1 -->
<g id="edge92" class="edge"><title>Orf9c&#45;&gt;ABCC1</title>
<path fill="none" stroke="black" d="M759.482,-936.328C769.081,-921.301 784.14,-897.728 795.342,-880.192"/>
<polygon fill="black" stroke="black" points="798.365,-881.961 800.798,-871.65 792.465,-878.193 798.365,-881.961"/>
</g>
<!-- Fe3+&#45;&gt;holoTF -->
<g id="edge94" class="edge"><title>Fe3+&#45;&gt;holoTF</title>
<path fill="none" stroke="black" d="M211.003,-305.293C208.144,-296.127 204.513,-284.483 201.269,-274.083"/>
<polygon fill="black" stroke="black" points="204.516,-272.74 198.198,-264.236 197.834,-274.824 204.516,-272.74"/>
</g>
<!-- Fe3+&#45;&gt;Fe2+ -->
<g id="edge93" class="edge"><title>Fe3+&#45;&gt;Fe2+</title>
<path fill="none" stroke="black" d="M213.769,-340.598C204.807,-368.856 182.107,-427.689 182.107,-480.071 182.107,-857.077 182.107,-857.077 182.107,-857.077 182.107,-918.174 177.77,-946.56 222.107,-988.597 248.397,-1013.52 351.777,-1030.58 402.315,-1037.99"/>
<polygon fill="black" stroke="black" points="401.853,-1041.46 412.25,-1039.42 402.852,-1034.53 401.853,-1041.46"/>
</g>
<!-- GPX4 -->
<g id="node48" class="node"><title>GPX4</title>
<ellipse fill="none" stroke="black" cx="322.107" cy="-856.077" rx="18" ry="18"/>
<text text-anchor="middle" x="322.107" y="-854.877" font-family="Times,serif" font-size="4.00">GPX4</text>
</g>
<!-- GPX4&#45;&gt;Lipid alcohol -->
<g id="edge95" class="edge"><title>GPX4&#45;&gt;Lipid alcohol</title>
<path fill="none" stroke="black" d="M322.107,-837.803C322.107,-828.817 322.107,-817.547 322.107,-807.07"/>
<polygon fill="black" stroke="black" points="325.608,-806.971 322.107,-796.971 318.608,-806.971 325.608,-806.971"/>
</g>
<!-- BLVRB -->
<g id="node50" class="node"><title>BLVRB</title>
<ellipse fill="none" stroke="black" cx="1107.11" cy="-856.077" rx="18" ry="18"/>
<text text-anchor="middle" x="1107.11" y="-854.877" font-family="Times,serif" font-size="4.00">BLVRB</text>
</g>
<!-- BLVRB&#45;&gt;NADP+ -->
<g id="edge97" class="edge"><title>BLVRB&#45;&gt;NADP+</title>
<path fill="none" stroke="black" d="M1119.88,-842.949C1124.17,-839.319 1129.13,-835.56 1134.11,-832.742 1175.94,-809.056 1194,-819.93 1236.11,-796.742 1238.06,-795.666 1240.02,-794.451 1241.94,-793.16"/>
<polygon fill="black" stroke="black" points="1244.02,-795.973 1249.98,-787.214 1239.86,-790.345 1244.02,-795.973"/>
</g>
<!-- BLVRB&#45;&gt;Bilirubin -->
<g id="edge96" class="edge"><title>BLVRB&#45;&gt;Bilirubin</title>
<path fill="none" stroke="black" d="M1120.46,-843.816C1124.78,-840.232 1129.62,-836.281 1134.11,-832.742 1155.05,-816.239 1160.97,-812.995 1182.11,-796.742 1183.88,-795.383 1185.7,-793.967 1187.53,-792.54"/>
<polygon fill="black" stroke="black" points="1189.71,-795.28 1195.42,-786.354 1185.39,-789.772 1189.71,-795.28"/>
</g>
<!-- NCOA4 -->
<g id="node52" class="node"><title>NCOA4</title>
<ellipse fill="none" stroke="black" cx="1634.11" cy="-1422.62" rx="18" ry="18"/>
<text text-anchor="middle" x="1634.11" y="-1421.42" font-family="Times,serif" font-size="4.00">NCOA4</text>
</g>
<!-- MCOLN1 -->
<g id="node53" class="node"><title>MCOLN1</title>
<ellipse fill="none" stroke="black" cx="514.107" cy="-1133.78" rx="18.0625" ry="18.0625"/>
<text text-anchor="middle" x="514.107" y="-1132.58" font-family="Times,serif" font-size="4.00">MCOLN1</text>
</g>
<!-- MCOLN1&#45;&gt;Fe2+ -->
<g id="edge98" class="edge"><title>MCOLN1&#45;&gt;Fe2+</title>
<path fill="none" stroke="black" d="M504.085,-1118.72C499.198,-1112.14 493.093,-1104.32 487.107,-1097.72 475.806,-1085.25 462.09,-1072.3 450.944,-1062.26"/>
<polygon fill="black" stroke="black" points="453.153,-1059.54 443.355,-1055.51 448.501,-1064.77 453.153,-1059.54"/>
</g>
<!-- Ferritin -->
<g id="node54" class="node"><title>Ferritin</title>
<ellipse fill="none" stroke="black" cx="118.107" cy="-1133.78" rx="18" ry="18"/>
<text text-anchor="middle" x="118.107" y="-1132.58" font-family="Times,serif" font-size="4.00">Ferritin</text>
</g>
<!-- Ferritin&#45;&gt;Fe(3+)O(OH) -->
<g id="edge99" class="edge"><title>Ferritin&#45;&gt;Fe(3+)O(OH)</title>
<path fill="none" stroke="black" d="M108.365,-1118.11C89.5621,-1088.32 50.1075,-1018.07 50.1075,-953.004 50.1075,-953.004 50.1075,-953.004 50.1075,-480.071 50.1075,-429.341 82.0303,-377.306 103.656,-347.876"/>
<polygon fill="black" stroke="black" points="106.487,-349.935 109.718,-339.845 100.9,-345.718 106.487,-349.935"/>
</g>
<!-- ALAD_Zn2+ -->
<g id="node57" class="node"><title>ALAD_Zn2+</title>
<ellipse fill="none" stroke="black" cx="1356.11" cy="-952.004" rx="21.4286" ry="21.4286"/>
<text text-anchor="middle" x="1356.11" y="-950.804" font-family="Times,serif" font-size="4.00">ALAD_Zn2+</text>
</g>
<!-- ALAD_Zn2+&#45;&gt;H+ -->
<g id="edge102" class="edge"><title>ALAD_Zn2+&#45;&gt;H+</title>
<path fill="none" stroke="black" d="M1349.77,-931.48C1334.01,-883.04 1294.08,-760.624 1290.11,-752.194 1228.56,-621.613 1127.79,-479.967 1088.51,-426.658"/>
<polygon fill="black" stroke="black" points="1091.3,-424.548 1082.54,-418.594 1085.68,-428.713 1091.3,-424.548"/>
</g>
<!-- ALAD_Zn2+&#45;&gt;H2O -->
<g id="edge101" class="edge"><title>ALAD_Zn2+&#45;&gt;H2O</title>
<path fill="none" stroke="black" d="M1345.27,-933.327C1340.26,-926.654 1333.73,-919.656 1326.11,-915.411 1229.56,-861.673 1187.49,-905.477 1080.11,-879.411 1067.1,-876.255 1053.02,-871.577 1041.3,-867.318"/>
<polygon fill="black" stroke="black" points="1042.28,-863.949 1031.69,-863.73 1039.83,-870.507 1042.28,-863.949"/>
</g>
<!-- ALAD_Zn2+&#45;&gt;PBG -->
<g id="edge100" class="edge"><title>ALAD_Zn2+&#45;&gt;PBG</title>
<path fill="none" stroke="black" d="M1357.11,-930.411C1358.44,-906.75 1361.2,-866.801 1366.11,-832.742 1395.25,-630.435 1549.97,-558.181 1449.11,-380.402 1381.27,-260.826 1188.98,-247.897 1116.35,-247.414"/>
<polygon fill="black" stroke="black" points="1116.14,-243.914 1106.14,-247.426 1116.15,-250.914 1116.14,-243.914"/>
</g>
<!-- Biliverdin&#45;&gt;NADP+ -->
<g id="edge104" class="edge"><title>Biliverdin&#45;&gt;NADP+</title>
<path fill="none" stroke="black" d="M1176.62,-843.459C1180.95,-840.002 1185.72,-836.212 1190.11,-832.742 1210.48,-816.648 1215.69,-812.776 1236.11,-796.742 1237.86,-795.365 1239.68,-793.936 1241.5,-792.5"/>
<polygon fill="black" stroke="black" points="1243.69,-795.236 1249.38,-786.3 1239.36,-789.736 1243.69,-795.236"/>
</g>
<!-- Biliverdin&#45;&gt;Bilirubin -->
<g id="edge103" class="edge"><title>Biliverdin&#45;&gt;Bilirubin</title>
<path fill="none" stroke="black" d="M1171.39,-839.349C1178.15,-827.899 1187.43,-812.193 1195.08,-799.22"/>
<polygon fill="black" stroke="black" points="1198.25,-800.747 1200.32,-790.356 1192.22,-797.188 1198.25,-800.747"/>
</g>
<!-- BLVRA_Zn2+&#45;&gt;NADP+ -->
<g id="edge106" class="edge"><title>BLVRA_Zn2+&#45;&gt;NADP+</title>
<path fill="none" stroke="black" d="M1231.27,-835.806C1236.96,-825.021 1244.12,-811.466 1250.2,-799.938"/>
<polygon fill="black" stroke="black" points="1253.43,-801.313 1255,-790.835 1247.24,-798.047 1253.43,-801.313"/>
</g>
<!-- BLVRA_Zn2+&#45;&gt;Bilirubin -->
<g id="edge105" class="edge"><title>BLVRA_Zn2+&#45;&gt;Bilirubin</title>
<path fill="none" stroke="black" d="M1217.89,-833.743C1216.45,-824.172 1214.73,-812.77 1213.2,-802.6"/>
<polygon fill="black" stroke="black" points="1216.64,-801.943 1211.69,-792.577 1209.72,-802.987 1216.64,-801.943"/>
</g>
<!-- O2 -->
<g id="node61" class="node"><title>O2</title>
<ellipse fill="none" stroke="black" cx="704.107" cy="-1133.78" rx="18" ry="18"/>
<text text-anchor="middle" x="704.107" y="-1132.58" font-family="Times,serif" font-size="4.00">O2</text>
</g>
<!-- O2&#45;&gt;PPGEN9 -->
<g id="edge113" class="edge"><title>O2&#45;&gt;PPGEN9</title>
<path fill="none" stroke="black" d="M693.589,-1119.05C679.226,-1100.21 654.925,-1067.95 652.107,-1061.72 631.728,-1016.63 628.107,-1002.49 628.107,-953.004 628.107,-953.004 628.107,-953.004 628.107,-697.194 628.107,-655.747 615.814,-608.945 606.966,-580.629"/>
<polygon fill="black" stroke="black" points="610.288,-579.523 603.892,-571.077 603.624,-581.668 610.288,-579.523"/>
</g>
<!-- O2&#45;&gt;NADP+ -->
<g id="edge116" class="edge"><title>O2&#45;&gt;NADP+</title>
<path fill="none" stroke="black" d="M712.392,-1117.75C741.766,-1066.19 846.802,-896.261 988.107,-832.742 1089.69,-787.078 1133.77,-840.703 1236.11,-796.742 1238.2,-795.843 1240.27,-794.738 1242.28,-793.51"/>
<polygon fill="black" stroke="black" points="1244.46,-796.254 1250.55,-787.584 1240.38,-790.564 1244.46,-796.254"/>
</g>
<!-- O2&#45;&gt;H2O -->
<g id="edge110" class="edge"><title>O2&#45;&gt;H2O</title>
<path fill="none" stroke="black" d="M721.53,-1127.81C750.688,-1118.77 809.924,-1097.21 848.107,-1061.72 903.353,-1010.37 883.302,-971.162 934.107,-915.411 950.555,-897.363 973.436,-881.51 990.686,-870.903"/>
<polygon fill="black" stroke="black" points="992.823,-873.703 999.613,-865.57 989.233,-867.694 992.823,-873.703"/>
</g>
<!-- O2&#45;&gt;PRIN9 -->
<g id="edge107" class="edge"><title>O2&#45;&gt;PRIN9</title>
<path fill="none" stroke="black" d="M700.035,-1116.25C696.703,-1101.92 692.21,-1080.59 690.107,-1061.72 681.131,-981.162 686.219,-960.46 685.107,-879.411 684.823,-858.671 678.376,-852.361 685.107,-832.742 691.686,-813.57 704.67,-815.172 713.107,-796.742 758.548,-697.484 771.336,-565.83 774.835,-509.516"/>
<polygon fill="black" stroke="black" points="778.343,-509.473 775.418,-499.29 771.354,-509.075 778.343,-509.473"/>
</g>
<!-- O2&#45;&gt;CO -->
<g id="edge117" class="edge"><title>O2&#45;&gt;CO</title>
<path fill="none" stroke="black" d="M721.33,-1127.49C777.813,-1110.3 962.775,-1055.4 1119.11,-1024.6 1177.85,-1013.02 1345.52,-1032.61 1386.11,-988.597 1411.93,-960.602 1407.11,-913.368 1400.6,-883.775"/>
<polygon fill="black" stroke="black" points="1403.92,-882.638 1398.17,-873.74 1397.12,-884.282 1403.92,-882.638"/>
</g>
<!-- O2&#45;&gt;Fe2+ -->
<g id="edge114" class="edge"><title>O2&#45;&gt;Fe2+</title>
<path fill="none" stroke="black" d="M695.735,-1117.38C691.138,-1110.34 684.8,-1102.52 677.107,-1097.72 608.991,-1055.24 578.393,-1079.49 500.107,-1061.72 485.839,-1058.48 470.021,-1054.54 457.037,-1051.22"/>
<polygon fill="black" stroke="black" points="457.873,-1047.82 447.316,-1048.71 456.123,-1054.6 457.873,-1047.82"/>
</g>
<!-- O2&#45;&gt;Fe3+ -->
<g id="edge111" class="edge"><title>O2&#45;&gt;Fe3+</title>
<path fill="none" stroke="black" d="M695.622,-1117.56C690.998,-1110.56 684.671,-1102.72 677.107,-1097.72 623.868,-1062.53 586.152,-1103.72 538.107,-1061.72 536.184,-1060.04 261.385,-382.615 260.107,-380.402 252.732,-367.624 242.771,-354.532 234.192,-344.148"/>
<polygon fill="black" stroke="black" points="236.815,-341.83 227.684,-336.458 231.472,-346.353 236.815,-341.83"/>
</g>
<!-- O2&#45;&gt;Fe(3+)O(OH) -->
<g id="edge109" class="edge"><title>O2&#45;&gt;Fe(3+)O(OH)</title>
<path fill="none" stroke="black" d="M694.827,-1117.95C690.102,-1111.2 683.92,-1103.47 677.107,-1097.72 650.969,-1075.67 633.822,-1085.35 609.107,-1061.72 581.859,-1035.66 583.934,-1021.82 566.107,-988.597 460.086,-791.021 477.503,-716.036 345.107,-535.071 285.595,-453.727 192.647,-377.041 148.298,-342.635"/>
<polygon fill="black" stroke="black" points="150.16,-339.652 140.1,-336.328 145.892,-345.2 150.16,-339.652"/>
</g>
<!-- O2&#45;&gt;CO2 -->
<g id="edge112" class="edge"><title>O2&#45;&gt;CO2</title>
<path fill="none" stroke="black" d="M702.59,-1115.76C699.879,-1078.21 696.727,-986.03 723.107,-915.411 727.079,-904.779 774.055,-839.588 783.107,-832.742 820.117,-804.753 846.501,-827.653 881.107,-796.742 943.974,-740.588 966.107,-711.488 966.107,-627.194 966.107,-627.194 966.107,-627.194 966.107,-480.071 966.107,-408.258 1049.53,-357.002 1092.77,-335.259"/>
<polygon fill="black" stroke="black" points="1094.39,-338.366 1101.84,-330.836 1091.32,-332.075 1094.39,-338.366"/>
</g>
<!-- O2&#45;&gt;Biliverdin -->
<g id="edge115" class="edge"><title>O2&#45;&gt;Biliverdin</title>
<path fill="none" stroke="black" d="M721.005,-1127.34C752.791,-1116.8 823.225,-1091.94 878.107,-1061.72 982.603,-1004.19 1093.82,-914.574 1140.01,-875.896"/>
<polygon fill="black" stroke="black" points="1142.47,-878.404 1147.87,-869.286 1137.96,-873.048 1142.47,-878.404"/>
</g>
<!-- O2&#45;&gt;H2O2 -->
<g id="edge108" class="edge"><title>O2&#45;&gt;H2O2</title>
<path fill="none" stroke="black" d="M694.252,-1118.56C689.402,-1111.95 683.279,-1104.15 677.107,-1097.72 659.846,-1079.74 647.551,-1082.71 634.107,-1061.72 548.266,-927.707 561.182,-873.941 540.107,-716.194 529.369,-635.818 527.241,-608.284 562.107,-535.071 567.254,-524.265 574.435,-513.178 581.03,-503.957"/>
<polygon fill="black" stroke="black" points="583.961,-505.88 587.089,-495.757 578.331,-501.72 583.961,-505.88"/>
</g>
<!-- MAF -->
<g id="node62" class="node"><title>MAF</title>
<ellipse fill="none" stroke="black" cx="1521.11" cy="-1337.83" rx="18" ry="18"/>
<text text-anchor="middle" x="1521.11" y="-1336.63" font-family="Times,serif" font-size="4.00">MAF</text>
</g>
<!-- MAF&#45;&gt;BACH1/Maf -->
<g id="edge119" class="edge"><title>MAF&#45;&gt;BACH1/Maf</title>
<path fill="none" stroke="black" d="M1529.86,-1321.83C1538.34,-1307.27 1551.41,-1284.87 1561.65,-1267.3"/>
<polygon fill="black" stroke="black" points="1564.69,-1269.03 1566.71,-1258.63 1558.65,-1265.5 1564.69,-1269.03"/>
</g>
<!-- Nrf2/Maf -->
<g id="node73" class="node"><title>Nrf2/Maf</title>
<ellipse fill="none" stroke="black" cx="1520.11" cy="-1239.79" rx="18.0625" ry="18.0625"/>
<text text-anchor="middle" x="1520.11" y="-1238.59" font-family="Times,serif" font-size="4.00">Nrf2/Maf</text>
</g>
<!-- MAF&#45;&gt;Nrf2/Maf -->
<g id="edge118" class="edge"><title>MAF&#45;&gt;Nrf2/Maf</title>
<path fill="none" stroke="black" d="M1520.93,-1319.66C1520.78,-1305.41 1520.57,-1284.87 1520.39,-1268.32"/>
<polygon fill="black" stroke="black" points="1523.89,-1268.1 1520.29,-1258.13 1516.89,-1268.17 1523.89,-1268.1"/>
</g>
<!-- CAND1 -->
<g id="node63" class="node"><title>CAND1</title>
<ellipse fill="none" stroke="black" cx="313.107" cy="-1239.79" rx="18" ry="18"/>
<text text-anchor="middle" x="313.107" y="-1238.59" font-family="Times,serif" font-size="4.00">CAND1</text>
</g>
<!-- CAND1&#45;&gt;Ubiquitin Ligase Complex -->
<g id="edge120" class="edge"><title>CAND1&#45;&gt;Ubiquitin Ligase Complex</title>
<path fill="none" stroke="black" d="M303.513,-1224.32C294.73,-1211.09 281.336,-1190.9 269.488,-1173.04"/>
<polygon fill="black" stroke="black" points="272.267,-1170.9 263.822,-1164.5 266.434,-1174.77 272.267,-1170.9"/>
</g>
<!-- NRF2 -->
<g id="node74" class="node"><title>NRF2</title>
<ellipse fill="none" stroke="black" cx="459.107" cy="-1337.83" rx="18" ry="18"/>
<text text-anchor="middle" x="459.107" y="-1336.63" font-family="Times,serif" font-size="4.00">NRF2</text>
</g>
<!-- Ubiquitin Ligase Complex&#45;&gt;NRF2 -->
<g id="edge121" class="edge"><title>Ubiquitin Ligase Complex&#45;&gt;NRF2</title>
<path fill="none" stroke="black" d="M272.036,-1156.87C277.652,-1161.22 283.54,-1165.71 289.107,-1169.84 311.39,-1186.38 321.539,-1185.23 340.107,-1205.84 363.248,-1231.53 355.58,-1247.5 378.107,-1273.73 394.724,-1293.07 418.065,-1310.51 435.425,-1322.12"/>
<polygon fill="black" stroke="black" points="433.604,-1325.11 443.891,-1327.64 437.428,-1319.25 433.604,-1325.11"/>
</g>
<!-- UROS -->
<g id="node66" class="node"><title>UROS</title>
<ellipse fill="none" stroke="black" cx="686.107" cy="-774.468" rx="18" ry="18"/>
<text text-anchor="middle" x="686.107" y="-773.268" font-family="Times,serif" font-size="4.00">UROS</text>
</g>
<!-- UROS&#45;&gt;URO3 -->
<g id="edge122" class="edge"><title>UROS&#45;&gt;URO3</title>
<path fill="none" stroke="black" d="M686.107,-756.242C686.107,-747.43 686.107,-736.495 686.107,-726.563"/>
<polygon fill="black" stroke="black" points="689.608,-726.328 686.107,-716.328 682.608,-726.328 689.608,-726.328"/>
</g>
<!-- BACH1&#45;&gt;BACH1/Maf -->
<g id="edge123" class="edge"><title>BACH1&#45;&gt;BACH1/Maf</title>
<path fill="none" stroke="black" d="M1577.11,-1319.66C1577.11,-1306.34 1577.11,-1287.51 1577.11,-1271.59"/>
<polygon fill="black" stroke="black" points="1580.61,-1271.14 1577.11,-1261.14 1573.61,-1271.14 1580.61,-1271.14"/>
</g>
<!-- CUL3_RBX1 -->
<g id="node68" class="node"><title>CUL3_RBX1</title>
<ellipse fill="none" stroke="black" cx="243.107" cy="-1337.83" rx="21.9898" ry="21.9898"/>
<text text-anchor="middle" x="243.107" y="-1336.63" font-family="Times,serif" font-size="4.00">CUL3_RBX1</text>
</g>
<!-- Neddylated CUL3_RBX1 -->
<g id="node72" class="node"><title>Neddylated CUL3_RBX1</title>
<ellipse fill="none" stroke="black" cx="243.107" cy="-1239.79" rx="33.8824" ry="33.8824"/>
<text text-anchor="middle" x="243.107" y="-1238.59" font-family="Times,serif" font-size="4.00">Neddylated CUL3_RBX1</text>
</g>
<!-- CUL3_RBX1&#45;&gt;Neddylated CUL3_RBX1 -->
<g id="edge124" class="edge"><title>CUL3_RBX1&#45;&gt;Neddylated CUL3_RBX1</title>
<path fill="none" stroke="black" d="M243.107,-1315.99C243.107,-1306.62 243.107,-1295.18 243.107,-1284.08"/>
<polygon fill="black" stroke="black" points="246.608,-1284.05 243.107,-1274.05 239.608,-1284.05 246.608,-1284.05"/>
</g>
<!-- URO3&#45;&gt;COPRO3 -->
<g id="edge125" class="edge"><title>URO3&#45;&gt;COPRO3</title>
<path fill="none" stroke="black" d="M671.036,-688.329C650.939,-676.507 615.13,-655.443 591.248,-641.395"/>
<polygon fill="black" stroke="black" points="592.826,-638.263 582.432,-636.209 589.277,-644.296 592.826,-638.263"/>
</g>
<!-- PBG&#45;&gt;HMBL -->
<g id="edge126" class="edge"><title>PBG&#45;&gt;HMBL</title>
<path fill="none" stroke="black" d="M1072.57,-256.18C1025.89,-282.257 890.107,-367.769 890.107,-480.071 890.107,-627.194 890.107,-627.194 890.107,-627.194 890.107,-670.518 875.033,-719.022 864.394,-747.861"/>
<polygon fill="black" stroke="black" points="860.992,-746.959 860.71,-757.55 867.535,-749.447 860.992,-746.959"/>
</g>
<!-- PBG&#45;&gt;NH4+ -->
<g id="edge127" class="edge"><title>PBG&#45;&gt;NH4+</title>
<path fill="none" stroke="black" d="M1072.18,-238.522C1044.41,-225.631 986.917,-198.941 953.565,-183.459"/>
<polygon fill="black" stroke="black" points="954.99,-180.262 944.446,-179.226 952.042,-186.611 954.99,-180.262"/>
</g>
<!-- e&#45; -->
<g id="node71" class="node"><title>e&#45;</title>
<ellipse fill="none" stroke="black" cx="568.107" cy="-1133.78" rx="18" ry="18"/>
<text text-anchor="middle" x="568.107" y="-1132.58" font-family="Times,serif" font-size="4.00">e&#45;</text>
</g>
<!-- e&#45;&#45;&gt;Fe2+ -->
<g id="edge128" class="edge"><title>e&#45;&#45;&gt;Fe2+</title>
<path fill="none" stroke="black" d="M559.218,-1118.12C554.499,-1111.25 548.207,-1103.36 541.107,-1097.72 510.89,-1073.73 496.6,-1079.01 462.107,-1061.72 459.643,-1060.48 457.092,-1059.16 454.556,-1057.82"/>
<polygon fill="black" stroke="black" points="456.069,-1054.66 445.609,-1052.97 452.733,-1060.81 456.069,-1054.66"/>
</g>
<!-- Neddylated CUL3_RBX1&#45;&gt;Ubiquitin Ligase Complex -->
<g id="edge129" class="edge"><title>Neddylated CUL3_RBX1&#45;&gt;Ubiquitin Ligase Complex</title>
<path fill="none" stroke="black" d="M243.427,-1205.59C243.504,-1197.56 243.588,-1188.84 243.669,-1180.35"/>
<polygon fill="black" stroke="black" points="247.171,-1180.21 243.767,-1170.17 240.171,-1180.14 247.171,-1180.21"/>
</g>
<!-- Nrf2/Maf&#45;&gt;HMOX1 -->
<g id="edge130" class="edge"><title>Nrf2/Maf&#45;&gt;HMOX1</title>
<path fill="none" stroke="black" d="M1508.46,-1225.61C1492.83,-1207.95 1464.93,-1176.41 1446.47,-1155.54"/>
<polygon fill="black" stroke="black" points="1448.91,-1153.02 1439.66,-1147.85 1443.67,-1157.66 1448.91,-1153.02"/>
</g>
<!-- NRF2&#45;&gt;NRF2_KEAP1 -->
<g id="edge134" class="edge"><title>NRF2&#45;&gt;NRF2_KEAP1</title>
<path fill="none" stroke="black" d="M441.289,-1334.09C369.936,-1323.04 107.907,-1282.05 92.1075,-1273.73 88.0298,-1271.58 84.1619,-1268.72 80.6169,-1265.58"/>
<polygon fill="black" stroke="black" points="82.979,-1262.99 73.4163,-1258.43 78.0473,-1267.96 82.979,-1262.99"/>
</g>
<!-- NRF2&#45;&gt;FECH -->
<g id="edge133" class="edge"><title>NRF2&#45;&gt;FECH</title>
<path fill="none" stroke="black" d="M477.184,-1336.72C604.941,-1335.77 1369.15,-1327.84 1455.11,-1273.73 1484.37,-1255.31 1469.79,-1231.37 1493.11,-1205.84 1501.69,-1196.45 1647.91,-1098.39 1705.79,-1059.72"/>
<polygon fill="black" stroke="black" points="1707.91,-1062.51 1714.29,-1054.04 1704.03,-1056.69 1707.91,-1062.51"/>
</g>
<!-- NRF2&#45;&gt;BLVRA -->
<g id="edge137" class="edge"><title>NRF2&#45;&gt;BLVRA</title>
<path fill="none" stroke="black" d="M477.101,-1335.76C559.328,-1330.69 899.637,-1307.97 1000.11,-1273.73 1085,-1244.8 1110.15,-1233.72 1173.11,-1169.84 1230.53,-1111.59 1271.53,-1022.06 1289.29,-978.528"/>
<polygon fill="black" stroke="black" points="1292.54,-979.814 1293.01,-969.23 1286.04,-977.212 1292.54,-979.814"/>
</g>
<!-- NRF2&#45;&gt;SLC40A1 -->
<g id="edge135" class="edge"><title>NRF2&#45;&gt;SLC40A1</title>
<path fill="none" stroke="black" d="M459.107,-1319.66C459.107,-1305.41 459.107,-1284.87 459.107,-1268.32"/>
<polygon fill="black" stroke="black" points="462.608,-1268.13 459.107,-1258.13 455.608,-1268.13 462.608,-1268.13"/>
</g>
<!-- NRF2&#45;&gt;BLVRB -->
<g id="edge131" class="edge"><title>NRF2&#45;&gt;BLVRB</title>
<path fill="none" stroke="black" d="M474.426,-1328.04C516.264,-1303.88 635.72,-1234.04 731.107,-1169.84 798.392,-1124.56 815.132,-1112.83 878.107,-1061.72 958.116,-996.79 1047.83,-913.271 1087,-876.23"/>
<polygon fill="black" stroke="black" points="1089.72,-878.474 1094.57,-869.055 1084.9,-873.394 1089.72,-878.474"/>
</g>
<!-- NRF2&#45;&gt;Nrf2/Maf -->
<g id="edge136" class="edge"><title>NRF2&#45;&gt;Nrf2/Maf</title>
<path fill="none" stroke="black" d="M477.228,-1336.51C607.001,-1334.07 1392.65,-1317.57 1488.11,-1273.73 1493.77,-1271.13 1498.96,-1267.04 1503.43,-1262.63"/>
<polygon fill="black" stroke="black" points="1506.14,-1264.84 1510.25,-1255.08 1500.95,-1260.15 1506.14,-1264.84"/>
</g>
<!-- FTL -->
<g id="node78" class="node"><title>FTL</title>
<ellipse fill="none" stroke="black" cx="119.107" cy="-1239.79" rx="18" ry="18"/>
<text text-anchor="middle" x="119.107" y="-1238.59" font-family="Times,serif" font-size="4.00">FTL</text>
</g>
<!-- NRF2&#45;&gt;FTL -->
<g id="edge132" class="edge"><title>NRF2&#45;&gt;FTL</title>
<path fill="none" stroke="black" d="M441.322,-1333.97C378.856,-1323.79 171.877,-1289.23 146.107,-1273.73 141.743,-1271.1 137.773,-1267.5 134.301,-1263.65"/>
<polygon fill="black" stroke="black" points="136.866,-1261.25 127.906,-1255.6 131.385,-1265.61 136.866,-1261.25"/>
</g>
<!-- FTH1 -->
<g id="node88" class="node"><title>FTH1</title>
<ellipse fill="none" stroke="black" cx="173.107" cy="-1239.79" rx="18" ry="18"/>
<text text-anchor="middle" x="173.107" y="-1238.59" font-family="Times,serif" font-size="4.00">FTH1</text>
</g>
<!-- NRF2&#45;&gt;FTH1 -->
<g id="edge138" class="edge"><title>NRF2&#45;&gt;FTH1</title>
<path fill="none" stroke="black" d="M440.955,-1336.29C396.466,-1334.18 279.823,-1323.88 200.107,-1273.73 195.797,-1271.01 191.851,-1267.38 188.386,-1263.51"/>
<polygon fill="black" stroke="black" points="190.952,-1261.11 181.986,-1255.47 185.475,-1265.47 190.952,-1261.11"/>
</g>
<!-- ALAS1_ALAS2 -->
<g id="node75" class="node"><title>ALAS1_ALAS2</title>
<ellipse fill="none" stroke="black" cx="1319.11" cy="-403.737" rx="23.1702" ry="23.1702"/>
<text text-anchor="middle" x="1319.11" y="-402.537" font-family="Times,serif" font-size="4.00">ALAS1_ALAS2</text>
</g>
<!-- ALAS1_ALAS2&#45;&gt;dALA -->
<g id="edge141" class="edge"><title>ALAS1_ALAS2&#45;&gt;dALA</title>
<path fill="none" stroke="black" d="M1300.2,-389.445C1295.91,-386.453 1291.36,-383.305 1287.11,-380.402 1266.46,-366.307 1242.79,-350.537 1225.68,-339.207"/>
<polygon fill="black" stroke="black" points="1227.18,-336.004 1216.91,-333.407 1223.32,-341.843 1227.18,-336.004"/>
</g>
<!-- ALAS1_ALAS2&#45;&gt;CO2 -->
<g id="edge140" class="edge"><title>ALAS1_ALAS2&#45;&gt;CO2</title>
<path fill="none" stroke="black" d="M1301.08,-388.763C1296.66,-385.739 1291.84,-382.749 1287.11,-380.402 1240.26,-357.182 1224.57,-361.346 1175.11,-344.402 1165.05,-340.958 1154.06,-337.005 1144.44,-333.48"/>
<polygon fill="black" stroke="black" points="1145.6,-330.176 1135.01,-330 1143.18,-336.744 1145.6,-330.176"/>
</g>
<!-- ALAS1_ALAS2&#45;&gt;CoA&#45;SH -->
<g id="edge139" class="edge"><title>ALAS1_ALAS2&#45;&gt;CoA&#45;SH</title>
<path fill="none" stroke="black" d="M1311.07,-381.545C1307.28,-371.56 1302.73,-359.57 1298.76,-349.098"/>
<polygon fill="black" stroke="black" points="1301.99,-347.746 1295.17,-339.638 1295.44,-350.229 1301.99,-347.746"/>
</g>
<!-- Poly&#45;unsaturated fatty acid -->
<g id="node77" class="node"><title>Poly&#45;unsaturated fatty acid</title>
<ellipse fill="none" stroke="black" cx="411.107" cy="-952.004" rx="36.6858" ry="36.6858"/>
<text text-anchor="middle" x="411.107" y="-950.804" font-family="Times,serif" font-size="4.00">Poly&#45;unsaturated fatty acid</text>
</g>
<!-- Poly&#45;unsaturated fatty acid&#45;&gt;Lipid Peroxide -->
<g id="edge142" class="edge"><title>Poly&#45;unsaturated fatty acid&#45;&gt;Lipid Peroxide</title>
<path fill="none" stroke="black" d="M400.192,-916.828C397.19,-907.429 393.952,-897.291 391.01,-888.081"/>
<polygon fill="black" stroke="black" points="394.337,-886.993 387.96,-878.532 387.669,-889.123 394.337,-886.993"/>
</g>
<!-- FTL&#45;&gt;Ferritin -->
<g id="edge143" class="edge"><title>FTL&#45;&gt;Ferritin</title>
<path fill="none" stroke="black" d="M118.942,-1221.61C118.787,-1205.43 118.551,-1180.91 118.37,-1162.06"/>
<polygon fill="black" stroke="black" points="121.869,-1161.95 118.273,-1151.98 114.869,-1162.02 121.869,-1161.95"/>
</g>
<!-- PKC -->
<g id="node79" class="node"><title>PKC</title>
<ellipse fill="none" stroke="black" cx="459.107" cy="-1422.62" rx="18" ry="18"/>
<text text-anchor="middle" x="459.107" y="-1421.42" font-family="Times,serif" font-size="4.00">PKC</text>
</g>
<!-- PKC&#45;&gt;NRF2 -->
<g id="edge144" class="edge"><title>PKC&#45;&gt;NRF2</title>
<path fill="none" stroke="black" d="M459.107,-1404.47C459.107,-1393.37 459.107,-1378.68 459.107,-1366.01"/>
<polygon fill="black" stroke="black" points="462.608,-1365.97 459.107,-1355.97 455.608,-1365.97 462.608,-1365.97"/>
</g>
<!-- E2 -->
<g id="node80" class="node"><title>E2</title>
<ellipse fill="none" stroke="black" cx="405.107" cy="-1239.79" rx="18" ry="18"/>
<text text-anchor="middle" x="405.107" y="-1238.59" font-family="Times,serif" font-size="4.00">E2</text>
</g>
<!-- E2&#45;&gt;Ubiquitin Ligase Complex -->
<g id="edge145" class="edge"><title>E2&#45;&gt;Ubiquitin Ligase Complex</title>
<path fill="none" stroke="black" d="M394.284,-1225.36C388.515,-1218.84 380.991,-1211.27 373.107,-1205.84 339.639,-1182.83 324.083,-1190.5 289.107,-1169.84 285.936,-1167.97 282.736,-1165.9 279.584,-1163.74"/>
<polygon fill="black" stroke="black" points="281.557,-1160.84 271.4,-1157.83 277.462,-1166.52 281.557,-1160.84"/>
</g>
<!-- TFRC_holoTF&#45;&gt;Fe3+ -->
<g id="edge146" class="edge"><title>TFRC_holoTF&#45;&gt;Fe3+</title>
<path fill="none" stroke="black" d="M235.86,-192.825C231.758,-219.577 224.698,-265.63 220.223,-294.818"/>
<polygon fill="black" stroke="black" points="216.757,-294.327 218.701,-304.742 223.676,-295.387 216.757,-294.327"/>
</g>
<!-- TFRC_TF -->
<g id="node87" class="node"><title>TFRC_TF</title>
<ellipse fill="none" stroke="black" cx="235.107" cy="-94.3363" rx="18.0625" ry="18.0625"/>
<text text-anchor="middle" x="235.107" y="-93.1363" font-family="Times,serif" font-size="4.00">TFRC_TF</text>
</g>
<!-- TFRC_holoTF&#45;&gt;TFRC_TF -->
<g id="edge147" class="edge"><title>TFRC_holoTF&#45;&gt;TFRC_TF</title>
<path fill="none" stroke="black" d="M237.951,-148.149C237.522,-140.193 237.031,-131.064 236.578,-122.658"/>
<polygon fill="black" stroke="black" points="240.066,-122.338 236.034,-112.541 233.076,-122.715 240.066,-122.338"/>
</g>
<!-- ABCC1&#45;&gt;Bilirubin -->
<g id="edge148" class="edge"><title>ABCC1&#45;&gt;Bilirubin</title>
<path fill="none" stroke="black" d="M823.263,-843.647C828.737,-839.516 835.38,-835.255 842.107,-832.742 984.46,-779.579 1041.36,-854.009 1182.11,-796.742 1184.22,-795.883 1186.3,-794.807 1188.31,-793.598"/>
<polygon fill="black" stroke="black" points="1190.48,-796.354 1196.6,-787.704 1186.42,-790.65 1190.48,-796.354"/>
</g>
<!-- Panhematin -->
<g id="node83" class="node"><title>Panhematin</title>
<ellipse fill="none" stroke="black" cx="1419.11" cy="-403.737" rx="20.8674" ry="20.8674"/>
<text text-anchor="middle" x="1419.11" y="-402.537" font-family="Times,serif" font-size="4.00">Panhematin</text>
</g>
<!-- Panhematin&#45;&gt;dALA -->
<g id="edge151" class="edge"><title>Panhematin&#45;&gt;dALA</title>
<path fill="none" stroke="black" d="M1402.56,-390.831C1396.9,-387.129 1390.4,-383.271 1384.11,-380.402 1332.66,-356.966 1315.95,-361.643 1262.11,-344.402 1251.09,-340.873 1239.01,-336.749 1228.6,-333.112"/>
<polygon fill="black" stroke="black" points="1229.44,-329.698 1218.85,-329.678 1227.12,-336.301 1229.44,-329.698"/>
</g>
<!-- Panhematin&#45;&gt;CO2 -->
<g id="edge150" class="edge"><title>Panhematin&#45;&gt;CO2</title>
<path fill="none" stroke="black" d="M1399.94,-395.783C1386.41,-391.039 1367.8,-384.835 1351.11,-380.402 1273.94,-359.911 1251.94,-366.113 1175.11,-344.402 1164.88,-341.512 1153.85,-337.676 1144.25,-334.089"/>
<polygon fill="black" stroke="black" points="1145.44,-330.798 1134.85,-330.492 1142.94,-337.336 1145.44,-330.798"/>
</g>
<!-- Panhematin&#45;&gt;CoA&#45;SH -->
<g id="edge149" class="edge"><title>Panhematin&#45;&gt;CoA&#45;SH</title>
<path fill="none" stroke="black" d="M1402.08,-391.73C1396.39,-388.088 1390,-384.038 1384.11,-380.402 1360.09,-365.569 1332.34,-349.067 1313.06,-337.701"/>
<polygon fill="black" stroke="black" points="1314.72,-334.618 1304.33,-332.563 1311.17,-340.651 1314.72,-334.618"/>
</g>
<!-- ABCG2 -->
<g id="node84" class="node"><title>ABCG2</title>
<ellipse fill="none" stroke="black" cx="1675.11" cy="-1043.16" rx="18" ry="18"/>
<text text-anchor="middle" x="1675.11" y="-1041.96" font-family="Times,serif" font-size="4.00">ABCG2</text>
</g>
<!-- ABCG2&#45;&gt;Heme -->
<g id="edge153" class="edge"><title>ABCG2&#45;&gt;Heme</title>
<path fill="none" stroke="black" d="M1660.1,-1033.12C1634.39,-1017.63 1581.73,-985.91 1550.95,-967.367"/>
<polygon fill="black" stroke="black" points="1552.52,-964.229 1542.15,-962.067 1548.91,-970.225 1552.52,-964.229"/>
</g>
<!-- ABCG2&#45;&gt;Pi -->
<g id="edge152" class="edge"><title>ABCG2&#45;&gt;Pi</title>
<path fill="none" stroke="black" d="M1681.96,-1026.27C1701.21,-981.62 1755.94,-854.71 1779.31,-800.508"/>
<polygon fill="black" stroke="black" points="1782.55,-801.838 1783.29,-791.269 1776.12,-799.066 1782.55,-801.838"/>
</g>
<!-- ABCG2&#45;&gt;ADP -->
<g id="edge154" class="edge"><title>ABCG2&#45;&gt;ADP</title>
<path fill="none" stroke="black" d="M1675.88,-1025.07C1677.9,-980.019 1683.41,-857.712 1685.88,-802.8"/>
<polygon fill="black" stroke="black" points="1689.38,-802.907 1686.33,-792.76 1682.38,-802.592 1689.38,-802.907"/>
</g>
<!-- HMOX1&#45;&gt;NADP+ -->
<g id="edge158" class="edge"><title>HMOX1&#45;&gt;NADP+</title>
<path fill="none" stroke="black" d="M1445.1,-1127.36C1488.41,-1113.37 1600.25,-1076.14 1610.11,-1061.72 1619.41,-1048.1 1613.98,-1040.63 1610.11,-1024.6 1584.44,-918.311 1552.34,-884.645 1456.11,-832.742 1401.42,-803.246 1329.61,-787.096 1290.83,-779.98"/>
<polygon fill="black" stroke="black" points="1291.27,-776.503 1280.81,-778.209 1290.05,-783.397 1291.27,-776.503"/>
</g>
<!-- HMOX1&#45;&gt;H2O -->
<g id="edge155" class="edge"><title>HMOX1&#45;&gt;H2O</title>
<path fill="none" stroke="black" d="M1412.28,-1124.55C1388.09,-1111.82 1340.68,-1086.25 1302.11,-1061.72 1200.02,-996.794 1084.45,-910.104 1037.1,-873.983"/>
<polygon fill="black" stroke="black" points="1039.14,-871.138 1029.07,-867.844 1034.89,-876.699 1039.14,-871.138"/>
</g>
<!-- HMOX1&#45;&gt;CO -->
<g id="edge159" class="edge"><title>HMOX1&#45;&gt;CO</title>
<path fill="none" stroke="black" d="M1435.67,-1117.2C1452.43,-1080.31 1488.83,-985.472 1457.11,-915.411 1447.11,-893.32 1433.92,-895.863 1416.11,-879.411 1415.14,-878.519 1414.16,-877.601 1413.17,-876.671"/>
<polygon fill="black" stroke="black" points="1415.3,-873.864 1405.65,-869.48 1410.46,-878.922 1415.3,-873.864"/>
</g>
<!-- HMOX1&#45;&gt;Fe2+ -->
<g id="edge156" class="edge"><title>HMOX1&#45;&gt;Fe2+</title>
<path fill="none" stroke="black" d="M1410.22,-1129.92C1368.69,-1123.35 1262.44,-1107.07 1173.11,-1097.72 895.088,-1068.62 556.873,-1050.48 458.307,-1045.53"/>
<polygon fill="black" stroke="black" points="458.41,-1042.03 448.248,-1045.03 458.062,-1049.02 458.41,-1042.03"/>
</g>
<!-- HMOX1&#45;&gt;Biliverdin -->
<g id="edge157" class="edge"><title>HMOX1&#45;&gt;Biliverdin</title>
<path fill="none" stroke="black" d="M1413.89,-1122.01C1384.8,-1099.51 1317.45,-1044.9 1272.11,-988.597 1248.45,-959.214 1253.2,-944.439 1229.11,-915.411 1221.94,-906.771 1201.24,-889.086 1184.73,-875.441"/>
<polygon fill="black" stroke="black" points="1186.53,-872.383 1176.58,-868.744 1182.08,-877.794 1186.53,-872.383"/>
</g>
<!-- FLVCR1&#45;1 -->
<g id="node86" class="node"><title>FLVCR1&#45;1</title>
<ellipse fill="none" stroke="black" cx="1527.11" cy="-1043.16" rx="18.6233" ry="18.6233"/>
<text text-anchor="middle" x="1527.11" y="-1041.96" font-family="Times,serif" font-size="4.00">FLVCR1&#45;1</text>
</g>
<!-- FLVCR1&#45;1&#45;&gt;Heme -->
<g id="edge160" class="edge"><title>FLVCR1&#45;1&#45;&gt;Heme</title>
<path fill="none" stroke="black" d="M1527.11,-1024.54C1527.11,-1012.01 1527.11,-994.915 1527.11,-980.581"/>
<polygon fill="black" stroke="black" points="1530.61,-980.278 1527.11,-970.278 1523.61,-980.278 1530.61,-980.278"/>
</g>
<!-- TFRC_TF&#45;&gt;TFRC -->
<g id="edge161" class="edge"><title>TFRC_TF&#45;&gt;TFRC</title>
<path fill="none" stroke="black" d="M242.954,-78.028C247.811,-68.5535 254.153,-56.1804 259.681,-45.3952"/>
<polygon fill="black" stroke="black" points="262.825,-46.9344 264.272,-36.4388 256.596,-43.7413 262.825,-46.9344"/>
</g>
<!-- TFRC_TF&#45;&gt;Transferrin -->
<g id="edge162" class="edge"><title>TFRC_TF&#45;&gt;Transferrin</title>
<path fill="none" stroke="black" d="M228.893,-77.3164C225.641,-68.9315 221.566,-58.4274 217.824,-48.7787"/>
<polygon fill="black" stroke="black" points="220.971,-47.2155 214.092,-39.1581 214.445,-49.7471 220.971,-47.2155"/>
</g>
<!-- FTH1&#45;&gt;Ferritin -->
<g id="edge163" class="edge"><title>FTH1&#45;&gt;Ferritin</title>
<path fill="none" stroke="black" d="M164.992,-1223.44C156.056,-1206.54 141.563,-1179.14 131.054,-1159.26"/>
<polygon fill="black" stroke="black" points="134.025,-1157.4 126.256,-1150.19 127.837,-1160.67 134.025,-1157.4"/>
</g>
</g>
</svg>
