<?xml version="1.0" encoding="UTF-8" standalone="no"?>
<!DOCTYPE svg PUBLIC "-//W3C//DTD SVG 1.1//EN"
 "http://www.w3.org/Graphics/SVG/1.1/DTD/svg11.dtd">
<!-- Generated by graphviz version 2.38.0 (20140413.2041)
 -->
<!-- Title: G Pages: 1 -->
<svg width="2140pt" height="1538pt"
 viewBox="0.00 0.00 2140.28 1538.34" xmlns="http://www.w3.org/2000/svg" xmlns:xlink="http://www.w3.org/1999/xlink">
<g id="graph0" class="graph" transform="scale(1 1) rotate(0) translate(4 1534.34)">
<title>G</title>
<polygon fill="white" stroke="none" points="-4,4 -4,-1534.34 2136.28,-1534.34 2136.28,4 -4,4"/>
<!-- Lipid Peroxide -->
<g id="node1" class="node"><title>Lipid Peroxide</title>
<ellipse fill="none" stroke="black" cx="132.28" cy="-937.81" rx="23.1702" ry="23.1702"/>
<text text-anchor="middle" x="132.28" y="-936.61" font-family="Times,serif" font-size="4.00">Lipid Peroxide</text>
</g>
<!-- Ferroptosis -->
<g id="node2" class="node"><title>Ferroptosis</title>
<ellipse fill="none" stroke="black" cx="127.28" cy="-856.202" rx="20.3063" ry="20.3062"/>
<text text-anchor="middle" x="127.28" y="-855.002" font-family="Times,serif" font-size="4.00">Ferroptosis</text>
</g>
<!-- Lipid Peroxide&#45;&gt;Ferroptosis -->
<g id="edge1" class="edge"><title>Lipid Peroxide&#45;&gt;Ferroptosis</title>
<path fill="none" stroke="black" d="M130.861,-914.21C130.321,-905.62 129.698,-895.706 129.125,-886.579"/>
<polygon fill="black" stroke="black" points="132.603,-886.113 128.483,-876.352 125.617,-886.552 132.603,-886.113"/>
</g>
<!-- Lipid alcohol -->
<g id="node75" class="node"><title>Lipid alcohol</title>
<ellipse fill="none" stroke="black" cx="187.28" cy="-856.202" rx="22.05" ry="22.05"/>
<text text-anchor="middle" x="187.28" y="-855.002" font-family="Times,serif" font-size="4.00">Lipid alcohol</text>
</g>
<!-- Lipid Peroxide&#45;&gt;Lipid alcohol -->
<g id="edge2" class="edge"><title>Lipid Peroxide&#45;&gt;Lipid alcohol</title>
<path fill="none" stroke="black" d="M145.314,-917.944C152.453,-907.612 161.409,-894.648 169.212,-883.353"/>
<polygon fill="black" stroke="black" points="172.101,-885.329 174.906,-875.112 166.342,-881.35 172.101,-885.329"/>
</g>
<!-- Ferritin -->
<g id="node3" class="node"><title>Ferritin</title>
<ellipse fill="none" stroke="black" cx="252.28" cy="-1220.82" rx="18" ry="18"/>
<text text-anchor="middle" x="252.28" y="-1219.62" font-family="Times,serif" font-size="4.00">Ferritin</text>
</g>
<!-- Fe(3+)O(OH) -->
<g id="node27" class="node"><title>Fe(3+)O(OH)</title>
<ellipse fill="none" stroke="black" cx="60.28" cy="-322.659" rx="21.9898" ry="21.9898"/>
<text text-anchor="middle" x="60.28" y="-321.459" font-family="Times,serif" font-size="4.00">Fe(3+)O(OH)</text>
</g>
<!-- Ferritin&#45;&gt;Fe(3+)O(OH) -->
<g id="edge3" class="edge"><title>Ferritin&#45;&gt;Fe(3+)O(OH)</title>
<path fill="none" stroke="black" d="M244.182,-1204.71C239.578,-1197.56 233.153,-1189.55 225.28,-1184.76 148.898,-1138.22 91.3926,-1211.12 27.28,-1148.76 -9.83997,-1112.65 3.27999,-1086.52 3.27999,-1034.74 3.27999,-1034.74 3.27999,-1034.74 3.27999,-473.739 3.27999,-430.906 11.0267,-420.031 27.28,-380.402 31.4963,-370.122 37.2878,-359.442 42.8429,-350.157"/>
<polygon fill="black" stroke="black" points="45.9724,-351.751 48.2523,-341.404 40.0178,-348.071 45.9724,-351.751"/>
</g>
<!-- HMBS_DIPY -->
<g id="node4" class="node"><title>HMBS_DIPY</title>
<ellipse fill="none" stroke="black" cx="1436.28" cy="-1033.74" rx="21.4286" ry="21.4286"/>
<text text-anchor="middle" x="1436.28" y="-1032.54" font-family="Times,serif" font-size="4.00">HMBS_DIPY</text>
</g>
<!-- HMBL -->
<g id="node6" class="node"><title>HMBL</title>
<ellipse fill="none" stroke="black" cx="1439.28" cy="-937.81" rx="18" ry="18"/>
<text text-anchor="middle" x="1439.28" y="-936.61" font-family="Times,serif" font-size="4.00">HMBL</text>
</g>
<!-- HMBS_DIPY&#45;&gt;HMBL -->
<g id="edge5" class="edge"><title>HMBS_DIPY&#45;&gt;HMBL</title>
<path fill="none" stroke="black" d="M1436.93,-1012.36C1437.36,-998.81 1437.94,-980.865 1438.41,-966.092"/>
<polygon fill="black" stroke="black" points="1441.91,-966.11 1438.73,-956.004 1434.91,-965.887 1441.91,-966.11"/>
</g>
<!-- NH4+ -->
<g id="node39" class="node"><title>NH4+</title>
<ellipse fill="none" stroke="black" cx="1455.28" cy="-322.659" rx="18" ry="18"/>
<text text-anchor="middle" x="1455.28" y="-321.459" font-family="Times,serif" font-size="4.00">NH4+</text>
</g>
<!-- HMBS_DIPY&#45;&gt;NH4+ -->
<g id="edge4" class="edge"><title>HMBS_DIPY&#45;&gt;NH4+</title>
<path fill="none" stroke="black" d="M1450.26,-1017.1C1474.85,-987.904 1523.28,-922.166 1523.28,-857.202 1523.28,-857.202 1523.28,-857.202 1523.28,-473.739 1523.28,-424.438 1492.46,-373.496 1472.32,-345.469"/>
<polygon fill="black" stroke="black" points="1474.97,-343.164 1466.21,-337.205 1469.34,-347.326 1474.97,-343.164"/>
</g>
<!-- FECH -->
<g id="node5" class="node"><title>FECH</title>
<ellipse fill="none" stroke="black" cx="917.28" cy="-634.243" rx="18" ry="18"/>
<text text-anchor="middle" x="917.28" y="-633.043" font-family="Times,serif" font-size="4.00">FECH</text>
</g>
<!-- Heme -->
<g id="node57" class="node"><title>Heme</title>
<ellipse fill="none" stroke="black" cx="1165.28" cy="-556.347" rx="18" ry="18"/>
<text text-anchor="middle" x="1165.28" y="-555.147" font-family="Times,serif" font-size="4.00">Heme</text>
</g>
<!-- FECH&#45;&gt;Heme -->
<g id="edge7" class="edge"><title>FECH&#45;&gt;Heme</title>
<path fill="none" stroke="black" d="M934.517,-628.485C967.057,-619.439 1039.71,-598.941 1100.28,-579.682 1113.03,-575.627 1127.09,-570.838 1138.85,-566.737"/>
<polygon fill="black" stroke="black" points="1140.24,-569.96 1148.52,-563.346 1137.92,-563.355 1140.24,-569.96"/>
</g>
<!-- H+ -->
<g id="node87" class="node"><title>H+</title>
<ellipse fill="none" stroke="black" cx="670.28" cy="-398.434" rx="18" ry="18"/>
<text text-anchor="middle" x="670.28" y="-397.234" font-family="Times,serif" font-size="4.00">H+</text>
</g>
<!-- FECH&#45;&gt;H+ -->
<g id="edge6" class="edge"><title>FECH&#45;&gt;H+</title>
<path fill="none" stroke="black" d="M900.535,-627.426C878.462,-619.2 839.168,-602.578 811.28,-579.682 754.806,-533.316 706.703,-460.54 684.09,-423.231"/>
<polygon fill="black" stroke="black" points="687.035,-421.337 678.901,-414.548 681.026,-424.927 687.035,-421.337"/>
</g>
<!-- URO3 -->
<g id="node7" class="node"><title>URO3</title>
<ellipse fill="none" stroke="black" cx="843.28" cy="-856.202" rx="18" ry="18"/>
<text text-anchor="middle" x="843.28" y="-855.002" font-family="Times,serif" font-size="4.00">URO3</text>
</g>
<!-- HMBL&#45;&gt;URO3 -->
<g id="edge8" class="edge"><title>HMBL&#45;&gt;URO3</title>
<path fill="none" stroke="black" d="M1421.44,-934.427C1336.7,-923.109 974.606,-874.743 871.047,-860.91"/>
<polygon fill="black" stroke="black" points="871.423,-857.43 861.048,-859.575 870.496,-864.368 871.423,-857.43"/>
</g>
<!-- COPRO3 -->
<g id="node33" class="node"><title>COPRO3</title>
<ellipse fill="none" stroke="black" cx="789.28" cy="-779.928" rx="18" ry="18"/>
<text text-anchor="middle" x="789.28" y="-778.728" font-family="Times,serif" font-size="4.00">COPRO3</text>
</g>
<!-- URO3&#45;&gt;COPRO3 -->
<g id="edge9" class="edge"><title>URO3&#45;&gt;COPRO3</title>
<path fill="none" stroke="black" d="M833.123,-841.231C825.354,-830.546 814.488,-815.6 805.517,-803.261"/>
<polygon fill="black" stroke="black" points="808.103,-800.866 799.391,-794.835 802.441,-804.982 808.103,-800.866"/>
</g>
<!-- Reactive Oxygen Species -->
<g id="node8" class="node"><title>Reactive Oxygen Species</title>
<ellipse fill="none" stroke="black" cx="338.28" cy="-1033.74" rx="35.0036" ry="35.0036"/>
<text text-anchor="middle" x="338.28" y="-1032.54" font-family="Times,serif" font-size="4.00">Reactive Oxygen Species</text>
</g>
<!-- Reactive Oxygen Species&#45;&gt;Lipid Peroxide -->
<g id="edge10" class="edge"><title>Reactive Oxygen Species&#45;&gt;Lipid Peroxide</title>
<path fill="none" stroke="black" d="M305.232,-1021.59C269.483,-1008.98 211.297,-986.821 164.28,-961.145 162.541,-960.195 160.781,-959.17 159.029,-958.101"/>
<polygon fill="black" stroke="black" points="160.741,-955.039 150.451,-952.514 156.921,-960.905 160.741,-955.039"/>
</g>
<!-- BACH1 -->
<g id="node9" class="node"><title>BACH1</title>
<ellipse fill="none" stroke="black" cx="2057.28" cy="-1424.87" rx="18" ry="18"/>
<text text-anchor="middle" x="2057.28" y="-1423.67" font-family="Times,serif" font-size="4.00">BACH1</text>
</g>
<!-- BACH1/Maf -->
<g id="node38" class="node"><title>BACH1/Maf</title>
<ellipse fill="none" stroke="black" cx="2057.28" cy="-1326.82" rx="21.4286" ry="21.4286"/>
<text text-anchor="middle" x="2057.28" y="-1325.62" font-family="Times,serif" font-size="4.00">BACH1/Maf</text>
</g>
<!-- BACH1&#45;&gt;BACH1/Maf -->
<g id="edge11" class="edge"><title>BACH1&#45;&gt;BACH1/Maf</title>
<path fill="none" stroke="black" d="M2057.28,-1406.7C2057.28,-1393.37 2057.28,-1374.55 2057.28,-1358.63"/>
<polygon fill="black" stroke="black" points="2060.78,-1358.18 2057.28,-1348.18 2053.78,-1358.18 2060.78,-1358.18"/>
</g>
<!-- KEAP1 -->
<g id="node10" class="node"><title>KEAP1</title>
<ellipse fill="none" stroke="black" cx="189.28" cy="-1424.87" rx="18" ry="18"/>
<text text-anchor="middle" x="189.28" y="-1423.67" font-family="Times,serif" font-size="4.00">KEAP1</text>
</g>
<!-- NRF2_KEAP1 -->
<g id="node71" class="node"><title>NRF2_KEAP1</title>
<ellipse fill="none" stroke="black" cx="180.28" cy="-1326.82" rx="22.6101" ry="22.6101"/>
<text text-anchor="middle" x="180.28" y="-1325.62" font-family="Times,serif" font-size="4.00">NRF2_KEAP1</text>
</g>
<!-- KEAP1&#45;&gt;NRF2_KEAP1 -->
<g id="edge12" class="edge"><title>KEAP1&#45;&gt;NRF2_KEAP1</title>
<path fill="none" stroke="black" d="M187.671,-1406.7C186.455,-1393.72 184.751,-1375.53 183.285,-1359.89"/>
<polygon fill="black" stroke="black" points="186.735,-1359.19 182.317,-1349.56 179.766,-1359.85 186.735,-1359.19"/>
</g>
<!-- Orf3a -->
<g id="node11" class="node"><title>Orf3a</title>
<ellipse fill="none" stroke="black" cx="1751.28" cy="-1326.82" rx="18" ry="18"/>
<text text-anchor="middle" x="1751.28" y="-1325.62" font-family="Times,serif" font-size="4.00">Orf3a</text>
</g>
<!-- HMOX1 -->
<g id="node28" class="node"><title>HMOX1</title>
<ellipse fill="none" stroke="black" cx="1751.28" cy="-1220.82" rx="18" ry="18"/>
<text text-anchor="middle" x="1751.28" y="-1219.62" font-family="Times,serif" font-size="4.00">HMOX1</text>
</g>
<!-- Orf3a&#45;&gt;HMOX1 -->
<g id="edge13" class="edge"><title>Orf3a&#45;&gt;HMOX1</title>
<path fill="none" stroke="black" d="M1751.28,-1308.65C1751.28,-1292.46 1751.28,-1267.95 1751.28,-1249.09"/>
<polygon fill="black" stroke="black" points="1754.78,-1249.02 1751.28,-1239.02 1747.78,-1249.02 1754.78,-1249.02"/>
</g>
<!-- ABCC1 -->
<g id="node12" class="node"><title>ABCC1</title>
<ellipse fill="none" stroke="black" cx="2101.28" cy="-474.739" rx="18" ry="18"/>
<text text-anchor="middle" x="2101.28" y="-473.539" font-family="Times,serif" font-size="4.00">ABCC1</text>
</g>
<!-- Bilirubin -->
<g id="node83" class="node"><title>Bilirubin</title>
<ellipse fill="none" stroke="black" cx="2005.28" cy="-398.434" rx="18.0625" ry="18.0625"/>
<text text-anchor="middle" x="2005.28" y="-397.234" font-family="Times,serif" font-size="4.00">Bilirubin</text>
</g>
<!-- ABCC1&#45;&gt;Bilirubin -->
<g id="edge14" class="edge"><title>ABCC1&#45;&gt;Bilirubin</title>
<path fill="none" stroke="black" d="M2087.53,-463.093C2071.79,-450.913 2045.81,-430.803 2027.26,-416.445"/>
<polygon fill="black" stroke="black" points="2029.37,-413.655 2019.32,-410.302 2025.09,-419.19 2029.37,-413.655"/>
</g>
<!-- PPGEN9 -->
<g id="node13" class="node"><title>PPGEN9</title>
<ellipse fill="none" stroke="black" cx="735.28" cy="-707.366" rx="18" ry="18"/>
<text text-anchor="middle" x="735.28" y="-706.166" font-family="Times,serif" font-size="4.00">PPGEN9</text>
</g>
<!-- PRIN9 -->
<g id="node74" class="node"><title>PRIN9</title>
<ellipse fill="none" stroke="black" cx="825.28" cy="-634.243" rx="18" ry="18"/>
<text text-anchor="middle" x="825.28" y="-633.043" font-family="Times,serif" font-size="4.00">PRIN9</text>
</g>
<!-- PPGEN9&#45;&gt;PRIN9 -->
<g id="edge16" class="edge"><title>PPGEN9&#45;&gt;PRIN9</title>
<path fill="none" stroke="black" d="M748.949,-695.564C763.354,-684.181 786.262,-666.077 803.228,-652.67"/>
<polygon fill="black" stroke="black" points="805.807,-655.093 811.482,-646.147 801.466,-649.601 805.807,-655.093"/>
</g>
<!-- H2O2 -->
<g id="node81" class="node"><title>H2O2</title>
<ellipse fill="none" stroke="black" cx="717.28" cy="-634.243" rx="18" ry="18"/>
<text text-anchor="middle" x="717.28" y="-633.043" font-family="Times,serif" font-size="4.00">H2O2</text>
</g>
<!-- PPGEN9&#45;&gt;H2O2 -->
<g id="edge15" class="edge"><title>PPGEN9&#45;&gt;H2O2</title>
<path fill="none" stroke="black" d="M731.014,-689.511C728.929,-681.274 726.371,-671.164 724.03,-661.912"/>
<polygon fill="black" stroke="black" points="727.362,-660.813 721.515,-651.977 720.576,-662.53 727.362,-660.813"/>
</g>
<!-- FTH1 -->
<g id="node14" class="node"><title>FTH1</title>
<ellipse fill="none" stroke="black" cx="430.28" cy="-1326.82" rx="18" ry="18"/>
<text text-anchor="middle" x="430.28" y="-1325.62" font-family="Times,serif" font-size="4.00">FTH1</text>
</g>
<!-- FTH1&#45;&gt;Ferritin -->
<g id="edge17" class="edge"><title>FTH1&#45;&gt;Ferritin</title>
<path fill="none" stroke="black" d="M417.854,-1313.5C410.378,-1306.65 400.378,-1298.41 390.28,-1292.88 344.798,-1267.96 321.667,-1286.77 279.28,-1256.88 274.765,-1253.7 270.656,-1249.54 267.081,-1245.2"/>
<polygon fill="black" stroke="black" points="269.662,-1242.8 260.9,-1236.85 264.036,-1246.97 269.662,-1242.8"/>
</g>
<!-- CO -->
<g id="node15" class="node"><title>CO</title>
<ellipse fill="none" stroke="black" cx="1641.28" cy="-474.739" rx="18" ry="18"/>
<text text-anchor="middle" x="1641.28" y="-473.539" font-family="Times,serif" font-size="4.00">CO</text>
</g>
<!-- Poly&#45;unsaturated fatty acid -->
<g id="node16" class="node"><title>Poly&#45;unsaturated fatty acid</title>
<ellipse fill="none" stroke="black" cx="144.28" cy="-1033.74" rx="36.6858" ry="36.6858"/>
<text text-anchor="middle" x="144.28" y="-1032.54" font-family="Times,serif" font-size="4.00">Poly&#45;unsaturated fatty acid</text>
</g>
<!-- Poly&#45;unsaturated fatty acid&#45;&gt;Lipid Peroxide -->
<g id="edge18" class="edge"><title>Poly&#45;unsaturated fatty acid&#45;&gt;Lipid Peroxide</title>
<path fill="none" stroke="black" d="M139.743,-997.227C138.651,-988.68 137.49,-979.593 136.418,-971.197"/>
<polygon fill="black" stroke="black" points="139.857,-970.499 135.118,-961.023 132.913,-971.386 139.857,-970.499"/>
</g>
<!-- Nrf2/Maf -->
<g id="node17" class="node"><title>Nrf2/Maf</title>
<ellipse fill="none" stroke="black" cx="1962.28" cy="-1326.82" rx="18.0625" ry="18.0625"/>
<text text-anchor="middle" x="1962.28" y="-1325.62" font-family="Times,serif" font-size="4.00">Nrf2/Maf</text>
</g>
<!-- Nrf2/Maf&#45;&gt;HMOX1 -->
<g id="edge19" class="edge"><title>Nrf2/Maf&#45;&gt;HMOX1</title>
<path fill="none" stroke="black" d="M1946.07,-1318.4C1919.15,-1306.02 1863.6,-1280.18 1817.28,-1256.88 1803.33,-1249.87 1787.92,-1241.7 1775.49,-1235.01"/>
<polygon fill="black" stroke="black" points="1777.11,-1231.91 1766.65,-1230.23 1773.78,-1238.07 1777.11,-1231.91"/>
</g>
<!-- ALB -->
<g id="node18" class="node"><title>ALB</title>
<ellipse fill="none" stroke="black" cx="1951.28" cy="-398.434" rx="18" ry="18"/>
<text text-anchor="middle" x="1951.28" y="-397.234" font-family="Times,serif" font-size="4.00">ALB</text>
</g>
<!-- ALB/BIL -->
<g id="node47" class="node"><title>ALB/BIL</title>
<ellipse fill="none" stroke="black" cx="1978.28" cy="-322.659" rx="18" ry="18"/>
<text text-anchor="middle" x="1978.28" y="-321.459" font-family="Times,serif" font-size="4.00">ALB/BIL</text>
</g>
<!-- ALB&#45;&gt;ALB/BIL -->
<g id="edge20" class="edge"><title>ALB&#45;&gt;ALB/BIL</title>
<path fill="none" stroke="black" d="M1957.27,-381.061C1960.69,-371.731 1965.04,-359.835 1968.9,-349.295"/>
<polygon fill="black" stroke="black" points="1972.25,-350.326 1972.4,-339.732 1965.67,-347.92 1972.25,-350.326"/>
</g>
<!-- SLC11A2 -->
<g id="node19" class="node"><title>SLC11A2</title>
<ellipse fill="none" stroke="black" cx="510.28" cy="-1220.82" rx="18.0625" ry="18.0625"/>
<text text-anchor="middle" x="510.28" y="-1219.62" font-family="Times,serif" font-size="4.00">SLC11A2</text>
</g>
<!-- Fe2+ -->
<g id="node46" class="node"><title>Fe2+</title>
<ellipse fill="none" stroke="black" cx="449.28" cy="-1127.54" rx="18" ry="18"/>
<text text-anchor="middle" x="449.28" y="-1126.34" font-family="Times,serif" font-size="4.00">Fe2+</text>
</g>
<!-- SLC11A2&#45;&gt;Fe2+ -->
<g id="edge21" class="edge"><title>SLC11A2&#45;&gt;Fe2+</title>
<path fill="none" stroke="black" d="M500.479,-1205.15C490.818,-1190.7 475.91,-1168.39 464.667,-1151.57"/>
<polygon fill="black" stroke="black" points="467.322,-1149.24 458.855,-1142.87 461.502,-1153.13 467.322,-1149.24"/>
</g>
<!-- Orf9c -->
<g id="node20" class="node"><title>Orf9c</title>
<ellipse fill="none" stroke="black" cx="2101.28" cy="-556.347" rx="18" ry="18"/>
<text text-anchor="middle" x="2101.28" y="-555.147" font-family="Times,serif" font-size="4.00">Orf9c</text>
</g>
<!-- Orf9c&#45;&gt;ABCC1 -->
<g id="edge22" class="edge"><title>Orf9c&#45;&gt;ABCC1</title>
<path fill="none" stroke="black" d="M2101.28,-538.073C2101.28,-527.85 2101.28,-514.67 2101.28,-503.064"/>
<polygon fill="black" stroke="black" points="2104.78,-502.979 2101.28,-492.979 2097.78,-502.979 2104.78,-502.979"/>
</g>
<!-- H2O -->
<g id="node21" class="node"><title>H2O</title>
<ellipse fill="none" stroke="black" cx="1104.28" cy="-1033.74" rx="18" ry="18"/>
<text text-anchor="middle" x="1104.28" y="-1032.54" font-family="Times,serif" font-size="4.00">H2O</text>
</g>
<!-- H2O&#45;&gt;HMBL -->
<g id="edge24" class="edge"><title>H2O&#45;&gt;HMBL</title>
<path fill="none" stroke="black" d="M1122.11,-1030.89C1170.07,-1025.45 1305.15,-1006.84 1407.28,-961.145 1410.6,-959.661 1413.93,-957.819 1417.12,-955.833"/>
<polygon fill="black" stroke="black" points="1419.34,-958.559 1425.63,-950.038 1415.4,-952.772 1419.34,-958.559"/>
</g>
<!-- ADP -->
<g id="node25" class="node"><title>ADP</title>
<ellipse fill="none" stroke="black" cx="1337.28" cy="-474.739" rx="18" ry="18"/>
<text text-anchor="middle" x="1337.28" y="-473.539" font-family="Times,serif" font-size="4.00">ADP</text>
</g>
<!-- H2O&#45;&gt;ADP -->
<g id="edge27" class="edge"><title>H2O&#45;&gt;ADP</title>
<path fill="none" stroke="black" d="M1116.64,-1020.45C1160.31,-976.018 1307.05,-817.64 1352.28,-652.805 1366.56,-600.768 1354.32,-537.183 1345.14,-502.12"/>
<polygon fill="black" stroke="black" points="1348.44,-500.918 1342.42,-492.199 1341.69,-502.768 1348.44,-500.918"/>
</g>
<!-- H2O&#45;&gt;NH4+ -->
<g id="edge23" class="edge"><title>H2O&#45;&gt;NH4+</title>
<path fill="none" stroke="black" d="M1119.4,-1023.52C1180.95,-984.75 1409.28,-827.912 1409.28,-635.243 1409.28,-635.243 1409.28,-635.243 1409.28,-473.739 1409.28,-431.405 1414.86,-420.554 1428.28,-380.402 1431.96,-369.382 1437.25,-357.711 1442.18,-347.837"/>
<polygon fill="black" stroke="black" points="1445.44,-349.146 1446.91,-338.653 1439.22,-345.942 1445.44,-349.146"/>
</g>
<!-- Pi -->
<g id="node49" class="node"><title>Pi</title>
<ellipse fill="none" stroke="black" cx="1283.28" cy="-474.739" rx="18" ry="18"/>
<text text-anchor="middle" x="1283.28" y="-473.539" font-family="Times,serif" font-size="4.00">Pi</text>
</g>
<!-- H2O&#45;&gt;Pi -->
<g id="edge26" class="edge"><title>H2O&#45;&gt;Pi</title>
<path fill="none" stroke="black" d="M1093.57,-1019.08C1072.42,-990.672 1027.28,-922.427 1027.28,-857.202 1027.28,-857.202 1027.28,-857.202 1027.28,-778.928 1027.28,-706.368 986.637,-677.095 1025.28,-615.682 1044.97,-584.387 1071.24,-602.569 1100.28,-579.682 1121.29,-563.124 1116.7,-548.81 1138.28,-533.012 1174.62,-506.416 1224.97,-490.198 1255.77,-482.103"/>
<polygon fill="black" stroke="black" points="1256.96,-485.414 1265.8,-479.574 1255.24,-478.626 1256.96,-485.414"/>
</g>
<!-- H2O&#45;&gt;Heme -->
<g id="edge25" class="edge"><title>H2O&#45;&gt;Heme</title>
<path fill="none" stroke="black" d="M1108.21,-1015.87C1120.43,-985.233 1151.28,-917.979 1151.28,-857.202 1151.28,-857.202 1151.28,-857.202 1151.28,-706.366 1151.28,-663.254 1153.4,-613.165 1157.35,-583.425"/>
<polygon fill="black" stroke="black" points="1160.83,-583.856 1158.89,-573.439 1153.91,-582.788 1160.83,-583.856"/>
</g>
<!-- SLC40A1 -->
<g id="node22" class="node"><title>SLC40A1</title>
<ellipse fill="none" stroke="black" cx="575.28" cy="-1326.82" rx="18.0625" ry="18.0625"/>
<text text-anchor="middle" x="575.28" y="-1325.62" font-family="Times,serif" font-size="4.00">SLC40A1</text>
</g>
<!-- SLC40A1_CP_Cu2+ -->
<g id="node53" class="node"><title>SLC40A1_CP_Cu2+</title>
<ellipse fill="none" stroke="black" cx="575.28" cy="-1220.82" rx="28.7763" ry="28.7763"/>
<text text-anchor="middle" x="575.28" y="-1219.62" font-family="Times,serif" font-size="4.00">SLC40A1_CP_Cu2+</text>
</g>
<!-- SLC40A1&#45;&gt;SLC40A1_CP_Cu2+ -->
<g id="edge28" class="edge"><title>SLC40A1&#45;&gt;SLC40A1_CP_Cu2+</title>
<path fill="none" stroke="black" d="M575.28,-1308.65C575.28,-1295.37 575.28,-1276.47 575.28,-1259.7"/>
<polygon fill="black" stroke="black" points="578.78,-1259.6 575.28,-1249.6 571.78,-1259.6 578.78,-1259.6"/>
</g>
<!-- STEAP3 -->
<g id="node23" class="node"><title>STEAP3</title>
<ellipse fill="none" stroke="black" cx="640.28" cy="-1220.82" rx="18" ry="18"/>
<text text-anchor="middle" x="640.28" y="-1219.62" font-family="Times,serif" font-size="4.00">STEAP3</text>
</g>
<!-- STEAP3&#45;&gt;Fe2+ -->
<g id="edge29" class="edge"><title>STEAP3&#45;&gt;Fe2+</title>
<path fill="none" stroke="black" d="M631.766,-1204.64C627.136,-1197.65 620.811,-1189.8 613.28,-1184.76 562.765,-1150.9 536.932,-1173.26 481.28,-1148.76 478.213,-1147.41 475.098,-1145.79 472.076,-1144.07"/>
<polygon fill="black" stroke="black" points="473.78,-1141.01 463.429,-1138.75 470.114,-1146.97 473.78,-1141.01"/>
</g>
<!-- ALAD_Zn2+ -->
<g id="node24" class="node"><title>ALAD_Zn2+</title>
<ellipse fill="none" stroke="black" cx="1055.28" cy="-1127.54" rx="21.4286" ry="21.4286"/>
<text text-anchor="middle" x="1055.28" y="-1126.34" font-family="Times,serif" font-size="4.00">ALAD_Zn2+</text>
</g>
<!-- ALAD_Zn2+&#45;&gt;H2O -->
<g id="edge31" class="edge"><title>ALAD_Zn2+&#45;&gt;H2O</title>
<path fill="none" stroke="black" d="M1064.96,-1108.41C1072.49,-1094.3 1083.01,-1074.59 1091.28,-1059.1"/>
<polygon fill="black" stroke="black" points="1094.46,-1060.57 1096.08,-1050.1 1088.29,-1057.27 1094.46,-1060.57"/>
</g>
<!-- PBG -->
<g id="node59" class="node"><title>PBG</title>
<ellipse fill="none" stroke="black" cx="1455.28" cy="-398.434" rx="18" ry="18"/>
<text text-anchor="middle" x="1455.28" y="-397.234" font-family="Times,serif" font-size="4.00">PBG</text>
</g>
<!-- ALAD_Zn2+&#45;&gt;PBG -->
<g id="edge32" class="edge"><title>ALAD_Zn2+&#45;&gt;PBG</title>
<path fill="none" stroke="black" d="M1076.6,-1126.86C1152.89,-1127.5 1410.69,-1125.5 1466.28,-1070.33 1508.2,-1028.73 1485.28,-997.87 1485.28,-938.81 1485.28,-938.81 1485.28,-938.81 1485.28,-555.347 1485.28,-509.237 1472.47,-456.816 1463.59,-426.019"/>
<polygon fill="black" stroke="black" points="1466.84,-424.666 1460.64,-416.074 1460.13,-426.656 1466.84,-424.666"/>
</g>
<!-- ALAD_Zn2+&#45;&gt;H+ -->
<g id="edge30" class="edge"><title>ALAD_Zn2+&#45;&gt;H+</title>
<path fill="none" stroke="black" d="M1034.35,-1123.12C941.96,-1107.44 575.28,-1038.92 575.28,-938.81 575.28,-938.81 575.28,-938.81 575.28,-555.347 575.28,-498.559 621.807,-444.895 649.74,-417.794"/>
<polygon fill="black" stroke="black" points="652.201,-420.284 657.071,-410.875 647.396,-415.193 652.201,-420.284"/>
</g>
<!-- NADPH -->
<g id="node26" class="node"><title>NADPH</title>
<ellipse fill="none" stroke="black" cx="1844.28" cy="-1220.82" rx="18" ry="18"/>
<text text-anchor="middle" x="1844.28" y="-1219.62" font-family="Times,serif" font-size="4.00">NADPH</text>
</g>
<!-- NADPH&#45;&gt;CO -->
<g id="edge35" class="edge"><title>NADPH&#45;&gt;CO</title>
<path fill="none" stroke="black" d="M1840.61,-1202.99C1818.91,-1103.81 1707.53,-597.869 1679.28,-533.012 1673.9,-520.659 1665.87,-508.06 1658.58,-497.835"/>
<polygon fill="black" stroke="black" points="1661.2,-495.493 1652.45,-489.528 1655.57,-499.651 1661.2,-495.493"/>
</g>
<!-- NADPH&#45;&gt;H2O -->
<g id="edge37" class="edge"><title>NADPH&#45;&gt;H2O</title>
<path fill="none" stroke="black" d="M1829.34,-1210.43C1816.29,-1202.6 1796.62,-1191.64 1778.28,-1184.76 1537.24,-1094.35 1226.32,-1050.06 1132.37,-1038.13"/>
<polygon fill="black" stroke="black" points="1132.6,-1034.63 1122.25,-1036.86 1131.74,-1041.57 1132.6,-1034.63"/>
</g>
<!-- Biliverdin -->
<g id="node45" class="node"><title>Biliverdin</title>
<ellipse fill="none" stroke="black" cx="1851.28" cy="-474.739" rx="19.1842" ry="19.1842"/>
<text text-anchor="middle" x="1851.28" y="-473.539" font-family="Times,serif" font-size="4.00">Biliverdin</text>
</g>
<!-- NADPH&#45;&gt;Biliverdin -->
<g id="edge36" class="edge"><title>NADPH&#45;&gt;Biliverdin</title>
<path fill="none" stroke="black" d="M1853.08,-1204.77C1860.96,-1190.71 1872.32,-1168.9 1879.28,-1148.76 1896.19,-1099.81 1903.28,-1086.52 1903.28,-1034.74 1903.28,-1034.74 1903.28,-1034.74 1903.28,-633.243 1903.28,-584.393 1880.45,-531.122 1865.04,-500.74"/>
<polygon fill="black" stroke="black" points="1868.06,-498.966 1860.34,-491.715 1861.85,-502.2 1868.06,-498.966"/>
</g>
<!-- NADPH&#45;&gt;Fe2+ -->
<g id="edge34" class="edge"><title>NADPH&#45;&gt;Fe2+</title>
<path fill="none" stroke="black" d="M1829.88,-1209.72C1817.01,-1201.32 1797.31,-1189.93 1778.28,-1184.76 1745.76,-1175.92 667.208,-1136.45 477.599,-1129.57"/>
<polygon fill="black" stroke="black" points="477.696,-1126.07 467.575,-1129.2 477.442,-1133.06 477.696,-1126.07"/>
</g>
<!-- NADP+ -->
<g id="node52" class="node"><title>NADP+</title>
<ellipse fill="none" stroke="black" cx="1789.28" cy="-398.434" rx="18" ry="18"/>
<text text-anchor="middle" x="1789.28" y="-397.234" font-family="Times,serif" font-size="4.00">NADP+</text>
</g>
<!-- NADPH&#45;&gt;NADP+ -->
<g id="edge33" class="edge"><title>NADPH&#45;&gt;NADP+</title>
<path fill="none" stroke="black" d="M1843.53,-1202.49C1842.49,-1180.21 1840.38,-1140.34 1837.28,-1106.33 1821.12,-928.91 1789.28,-886.521 1789.28,-708.366 1789.28,-708.366 1789.28,-708.366 1789.28,-555.347 1789.28,-510.31 1789.28,-457.955 1789.28,-426.819"/>
<polygon fill="black" stroke="black" points="1792.78,-426.737 1789.28,-416.737 1785.78,-426.737 1792.78,-426.737"/>
</g>
<!-- NADPH&#45;&gt;Bilirubin -->
<g id="edge38" class="edge"><title>NADPH&#45;&gt;Bilirubin</title>
<path fill="none" stroke="black" d="M1857.48,-1208.14C1903.67,-1165.91 2055.28,-1015.26 2055.28,-857.202 2055.28,-857.202 2055.28,-857.202 2055.28,-555.347 2055.28,-508.848 2052.48,-496.051 2036.28,-452.465 2032.38,-441.968 2026.46,-431.161 2020.84,-422.064"/>
<polygon fill="black" stroke="black" points="2023.76,-420.127 2015.4,-413.611 2017.87,-423.914 2023.76,-420.127"/>
</g>
<!-- HMOX1&#45;&gt;CO -->
<g id="edge41" class="edge"><title>HMOX1&#45;&gt;CO</title>
<path fill="none" stroke="black" d="M1741.03,-1205.76C1720.29,-1175.88 1675.28,-1103.17 1675.28,-1034.74 1675.28,-1034.74 1675.28,-1034.74 1675.28,-633.243 1675.28,-585.993 1660.48,-532.528 1650.41,-501.618"/>
<polygon fill="black" stroke="black" points="1653.7,-500.413 1647.2,-492.042 1647.06,-502.636 1653.7,-500.413"/>
</g>
<!-- HMOX1&#45;&gt;H2O -->
<g id="edge43" class="edge"><title>HMOX1&#45;&gt;H2O</title>
<path fill="none" stroke="black" d="M1733.97,-1214.87C1645.1,-1189.44 1239.9,-1073.53 1131.19,-1042.44"/>
<polygon fill="black" stroke="black" points="1131.92,-1039 1121.34,-1039.62 1129.99,-1045.73 1131.92,-1039"/>
</g>
<!-- HMOX1&#45;&gt;Biliverdin -->
<g id="edge42" class="edge"><title>HMOX1&#45;&gt;Biliverdin</title>
<path fill="none" stroke="black" d="M1761.6,-1205.72C1789.66,-1165.95 1865.28,-1048.58 1865.28,-938.81 1865.28,-938.81 1865.28,-938.81 1865.28,-633.243 1865.28,-588.058 1859.49,-535.867 1855.36,-504.358"/>
<polygon fill="black" stroke="black" points="1858.78,-503.563 1853.98,-494.12 1851.85,-504.498 1858.78,-503.563"/>
</g>
<!-- HMOX1&#45;&gt;Fe2+ -->
<g id="edge40" class="edge"><title>HMOX1&#45;&gt;Fe2+</title>
<path fill="none" stroke="black" d="M1733.37,-1218.56C1591.71,-1208.63 653.04,-1142.83 477.523,-1130.52"/>
<polygon fill="black" stroke="black" points="477.737,-1127.03 467.517,-1129.82 477.248,-1134.01 477.737,-1127.03"/>
</g>
<!-- HMOX1&#45;&gt;NADP+ -->
<g id="edge39" class="edge"><title>HMOX1&#45;&gt;NADP+</title>
<path fill="none" stroke="black" d="M1751.28,-1202.6C1751.28,-1132.23 1751.28,-859.533 1751.28,-635.243 1751.28,-635.243 1751.28,-635.243 1751.28,-555.347 1751.28,-508.289 1767.82,-455.455 1779.08,-424.952"/>
<polygon fill="black" stroke="black" points="1782.39,-426.096 1782.66,-415.505 1775.84,-423.614 1782.39,-426.096"/>
</g>
<!-- Dimethly fumarate -->
<g id="node29" class="node"><title>Dimethly fumarate</title>
<ellipse fill="none" stroke="black" cx="125.28" cy="-1424.87" rx="28.2154" ry="28.2154"/>
<text text-anchor="middle" x="125.28" y="-1423.67" font-family="Times,serif" font-size="4.00">Dimethly fumarate</text>
</g>
<!-- Dimethly fumarate&#45;&gt;NRF2_KEAP1 -->
<g id="edge44" class="edge"><title>Dimethly fumarate&#45;&gt;NRF2_KEAP1</title>
<path fill="none" stroke="black" d="M138.876,-1400.13C146.547,-1386.73 156.178,-1369.91 164.221,-1355.87"/>
<polygon fill="black" stroke="black" points="167.308,-1357.52 169.24,-1347.1 161.233,-1354.04 167.308,-1357.52"/>
</g>
<!-- Panhematin -->
<g id="node30" class="node"><title>Panhematin</title>
<ellipse fill="none" stroke="black" cx="841.28" cy="-556.347" rx="20.8674" ry="20.8674"/>
<text text-anchor="middle" x="841.28" y="-555.147" font-family="Times,serif" font-size="4.00">Panhematin</text>
</g>
<!-- CoA&#45;SH -->
<g id="node36" class="node"><title>CoA&#45;SH</title>
<ellipse fill="none" stroke="black" cx="1052.28" cy="-322.659" rx="18" ry="18"/>
<text text-anchor="middle" x="1052.28" y="-321.459" font-family="Times,serif" font-size="4.00">CoA&#45;SH</text>
</g>
<!-- Panhematin&#45;&gt;CoA&#45;SH -->
<g id="edge45" class="edge"><title>Panhematin&#45;&gt;CoA&#45;SH</title>
<path fill="none" stroke="black" d="M849.649,-537.307C866.133,-503.274 905.64,-428.683 956.28,-380.402 977.086,-360.565 1006.05,-344.65 1026.71,-334.781"/>
<polygon fill="black" stroke="black" points="1028.24,-337.933 1035.84,-330.556 1025.29,-331.581 1028.24,-337.933"/>
</g>
<!-- dALA -->
<g id="node48" class="node"><title>dALA</title>
<ellipse fill="none" stroke="black" cx="963.28" cy="-474.739" rx="18" ry="18"/>
<text text-anchor="middle" x="963.28" y="-473.539" font-family="Times,serif" font-size="4.00">dALA</text>
</g>
<!-- Panhematin&#45;&gt;dALA -->
<g id="edge46" class="edge"><title>Panhematin&#45;&gt;dALA</title>
<path fill="none" stroke="black" d="M858.244,-544.278C879.492,-530.413 916.005,-506.587 939.894,-490.998"/>
<polygon fill="black" stroke="black" points="941.912,-493.861 948.374,-485.465 938.086,-487.999 941.912,-493.861"/>
</g>
<!-- CO2 -->
<g id="node77" class="node"><title>CO2</title>
<ellipse fill="none" stroke="black" cx="803.28" cy="-322.659" rx="18" ry="18"/>
<text text-anchor="middle" x="803.28" y="-321.459" font-family="Times,serif" font-size="4.00">CO2</text>
</g>
<!-- Panhematin&#45;&gt;CO2 -->
<g id="edge47" class="edge"><title>Panhematin&#45;&gt;CO2</title>
<path fill="none" stroke="black" d="M836.202,-536.269C833.307,-524.924 829.772,-510.215 827.28,-497.012 817.618,-445.826 810.134,-385.449 806.243,-351.149"/>
<polygon fill="black" stroke="black" points="809.695,-350.524 805.108,-340.973 802.738,-351.3 809.695,-350.524"/>
</g>
<!-- BLVRA_Zn2+ -->
<g id="node31" class="node"><title>BLVRA_Zn2+</title>
<ellipse fill="none" stroke="black" cx="2005.28" cy="-474.739" rx="22.05" ry="22.05"/>
<text text-anchor="middle" x="2005.28" y="-473.539" font-family="Times,serif" font-size="4.00">BLVRA_Zn2+</text>
</g>
<!-- BLVRA_Zn2+&#45;&gt;NADP+ -->
<g id="edge48" class="edge"><title>BLVRA_Zn2+&#45;&gt;NADP+</title>
<path fill="none" stroke="black" d="M1987.84,-460.333C1983.56,-457.457 1978.89,-454.635 1974.28,-452.465 1921.32,-427.515 1854.2,-411.876 1817.11,-404.491"/>
<polygon fill="black" stroke="black" points="1817.52,-401.007 1807.04,-402.544 1816.19,-407.879 1817.52,-401.007"/>
</g>
<!-- BLVRA_Zn2+&#45;&gt;Bilirubin -->
<g id="edge49" class="edge"><title>BLVRA_Zn2+&#45;&gt;Bilirubin</title>
<path fill="none" stroke="black" d="M2005.28,-452.247C2005.28,-444.29 2005.28,-435.161 2005.28,-426.756"/>
<polygon fill="black" stroke="black" points="2008.78,-426.638 2005.28,-416.638 2001.78,-426.638 2008.78,-426.638"/>
</g>
<!-- NRF2 -->
<g id="node32" class="node"><title>NRF2</title>
<ellipse fill="none" stroke="black" cx="575.28" cy="-1424.87" rx="18" ry="18"/>
<text text-anchor="middle" x="575.28" y="-1423.67" font-family="Times,serif" font-size="4.00">NRF2</text>
</g>
<!-- NRF2&#45;&gt;FECH -->
<g id="edge55" class="edge"><title>NRF2&#45;&gt;FECH</title>
<path fill="none" stroke="black" d="M593.415,-1422.83C668.523,-1417.46 951.28,-1386.33 951.28,-1221.82 951.28,-1221.82 951.28,-1221.82 951.28,-778.928 951.28,-736.692 937.196,-689.303 927.157,-660.89"/>
<polygon fill="black" stroke="black" points="930.385,-659.525 923.675,-651.326 923.807,-661.92 930.385,-659.525"/>
</g>
<!-- NRF2&#45;&gt;FTH1 -->
<g id="edge53" class="edge"><title>NRF2&#45;&gt;FTH1</title>
<path fill="none" stroke="black" d="M560.579,-1414.13C535.393,-1397.45 483.799,-1363.27 453.639,-1343.3"/>
<polygon fill="black" stroke="black" points="455.29,-1340.19 445.02,-1337.59 451.424,-1346.03 455.29,-1340.19"/>
</g>
<!-- NRF2&#45;&gt;Nrf2/Maf -->
<g id="edge51" class="edge"><title>NRF2&#45;&gt;Nrf2/Maf</title>
<path fill="none" stroke="black" d="M593.489,-1423.83C745.617,-1423.38 1802.79,-1418.19 1930.28,-1360.76 1935.96,-1358.2 1941.16,-1354.14 1945.63,-1349.72"/>
<polygon fill="black" stroke="black" points="1948.35,-1351.94 1952.45,-1342.17 1943.15,-1347.25 1948.35,-1351.94"/>
</g>
<!-- NRF2&#45;&gt;SLC40A1 -->
<g id="edge50" class="edge"><title>NRF2&#45;&gt;SLC40A1</title>
<path fill="none" stroke="black" d="M575.28,-1406.7C575.28,-1392.45 575.28,-1371.91 575.28,-1355.36"/>
<polygon fill="black" stroke="black" points="578.78,-1355.17 575.28,-1345.17 571.78,-1355.17 578.78,-1355.17"/>
</g>
<!-- BLVRA -->
<g id="node60" class="node"><title>BLVRA</title>
<ellipse fill="none" stroke="black" cx="2025.28" cy="-1127.54" rx="18" ry="18"/>
<text text-anchor="middle" x="2025.28" y="-1126.34" font-family="Times,serif" font-size="4.00">BLVRA</text>
</g>
<!-- NRF2&#45;&gt;BLVRA -->
<g id="edge52" class="edge"><title>NRF2&#45;&gt;BLVRA</title>
<path fill="none" stroke="black" d="M593.435,-1423.71C754.534,-1422.22 1934.73,-1409.66 1989.28,-1360.76 2019.18,-1333.96 2024.38,-1211.04 2025.19,-1155.69"/>
<polygon fill="black" stroke="black" points="2028.69,-1155.61 2025.3,-1145.57 2021.69,-1155.53 2028.69,-1155.61"/>
</g>
<!-- NRF2&#45;&gt;NRF2_KEAP1 -->
<g id="edge54" class="edge"><title>NRF2&#45;&gt;NRF2_KEAP1</title>
<path fill="none" stroke="black" d="M557.031,-1424.54C501.637,-1425.81 331.902,-1423.96 212.28,-1360.76 208.204,-1358.61 204.337,-1355.75 200.793,-1352.61"/>
<polygon fill="black" stroke="black" points="203.155,-1350.02 193.593,-1345.46 198.223,-1354.99 203.155,-1350.02"/>
</g>
<!-- BLVRB -->
<g id="node86" class="node"><title>BLVRB</title>
<ellipse fill="none" stroke="black" cx="1947.28" cy="-474.739" rx="18" ry="18"/>
<text text-anchor="middle" x="1947.28" y="-473.539" font-family="Times,serif" font-size="4.00">BLVRB</text>
</g>
<!-- NRF2&#45;&gt;BLVRB -->
<g id="edge57" class="edge"><title>NRF2&#45;&gt;BLVRB</title>
<path fill="none" stroke="black" d="M593.666,-1423.75C736.548,-1422.74 1666.87,-1414.1 1778.28,-1360.76 1931.82,-1287.26 1979.28,-1204.96 1979.28,-1034.74 1979.28,-1034.74 1979.28,-1034.74 1979.28,-633.243 1979.28,-586.113 1965.35,-532.609 1955.87,-501.66"/>
<polygon fill="black" stroke="black" points="1959.19,-500.559 1952.85,-492.07 1952.52,-502.66 1959.19,-500.559"/>
</g>
<!-- FTL -->
<g id="node88" class="node"><title>FTL</title>
<ellipse fill="none" stroke="black" cx="509.28" cy="-1326.82" rx="18" ry="18"/>
<text text-anchor="middle" x="509.28" y="-1325.62" font-family="Times,serif" font-size="4.00">FTL</text>
</g>
<!-- NRF2&#45;&gt;FTL -->
<g id="edge56" class="edge"><title>NRF2&#45;&gt;FTL</title>
<path fill="none" stroke="black" d="M565.541,-1409.7C554.818,-1394.09 537.426,-1368.78 524.815,-1350.43"/>
<polygon fill="black" stroke="black" points="527.606,-1348.31 519.058,-1342.05 521.837,-1352.28 527.606,-1348.31"/>
</g>
<!-- COPRO3&#45;&gt;PPGEN9 -->
<g id="edge58" class="edge"><title>COPRO3&#45;&gt;PPGEN9</title>
<path fill="none" stroke="black" d="M778.611,-764.987C771.067,-755.129 760.799,-741.711 752.151,-730.412"/>
<polygon fill="black" stroke="black" points="754.783,-728.092 745.926,-722.278 749.224,-732.346 754.783,-728.092"/>
</g>
<!-- COPRO3&#45;&gt;CO2 -->
<g id="edge60" class="edge"><title>COPRO3&#45;&gt;CO2</title>
<path fill="none" stroke="black" d="M805.512,-771.486C821.763,-763.034 845.813,-747.554 856.28,-725.928 863.468,-711.077 856.731,-705.298 856.28,-688.805 855.391,-656.269 866.509,-644.954 852.28,-615.682 841.679,-593.872 821.625,-601.614 811.28,-579.682 775.123,-503.027 788.368,-398.608 797.498,-350.25"/>
<polygon fill="black" stroke="black" points="800.964,-350.766 799.475,-340.276 794.097,-349.405 800.964,-350.766"/>
</g>
<!-- COPRO3&#45;&gt;H2O2 -->
<g id="edge59" class="edge"><title>COPRO3&#45;&gt;H2O2</title>
<path fill="none" stroke="black" d="M786.323,-761.851C782.596,-743.105 775.08,-712.521 762.28,-688.805 755.61,-676.447 745.786,-664.326 737.016,-654.748"/>
<polygon fill="black" stroke="black" points="739.416,-652.192 729.991,-647.352 734.341,-657.013 739.416,-652.192"/>
</g>
<!-- e&#45; -->
<g id="node34" class="node"><title>e&#45;</title>
<ellipse fill="none" stroke="black" cx="694.28" cy="-1220.82" rx="18" ry="18"/>
<text text-anchor="middle" x="694.28" y="-1219.62" font-family="Times,serif" font-size="4.00">e&#45;</text>
</g>
<!-- e&#45;&#45;&gt;Fe2+ -->
<g id="edge61" class="edge"><title>e&#45;&#45;&gt;Fe2+</title>
<path fill="none" stroke="black" d="M686.159,-1204.75C681.549,-1197.6 675.126,-1189.6 667.28,-1184.76 595.624,-1140.54 559.559,-1179.78 481.28,-1148.76 478.164,-1147.52 475.02,-1145.98 471.982,-1144.29"/>
<polygon fill="black" stroke="black" points="473.682,-1141.23 463.323,-1139.01 470.033,-1147.21 473.682,-1141.23"/>
</g>
<!-- ALAS1_ALAS2 -->
<g id="node35" class="node"><title>ALAS1_ALAS2</title>
<ellipse fill="none" stroke="black" cx="1068.28" cy="-556.347" rx="23.1702" ry="23.1702"/>
<text text-anchor="middle" x="1068.28" y="-555.147" font-family="Times,serif" font-size="4.00">ALAS1_ALAS2</text>
</g>
<!-- ALAS1_ALAS2&#45;&gt;CoA&#45;SH -->
<g id="edge62" class="edge"><title>ALAS1_ALAS2&#45;&gt;CoA&#45;SH</title>
<path fill="none" stroke="black" d="M1084.16,-538.872C1112.69,-507.186 1167,-435.969 1137.28,-380.402 1124.91,-357.275 1098.49,-341.938 1078.36,-333.105"/>
<polygon fill="black" stroke="black" points="1079.66,-329.853 1069.08,-329.285 1077,-336.327 1079.66,-329.853"/>
</g>
<!-- ALAS1_ALAS2&#45;&gt;dALA -->
<g id="edge63" class="edge"><title>ALAS1_ALAS2&#45;&gt;dALA</title>
<path fill="none" stroke="black" d="M1049.99,-541.48C1032.06,-527.882 1004.68,-507.131 985.505,-492.589"/>
<polygon fill="black" stroke="black" points="987.415,-489.645 977.332,-486.392 983.186,-495.223 987.415,-489.645"/>
</g>
<!-- ALAS1_ALAS2&#45;&gt;CO2 -->
<g id="edge64" class="edge"><title>ALAS1_ALAS2&#45;&gt;CO2</title>
<path fill="none" stroke="black" d="M1060.39,-534.156C1045.44,-497.027 1009.37,-420.37 953.28,-380.402 915.183,-353.258 862.485,-337.303 830.759,-329.541"/>
<polygon fill="black" stroke="black" points="831.391,-326.094 820.856,-327.219 829.792,-332.909 831.391,-326.094"/>
</g>
<!-- Ubiquitin Ligase Complex -->
<g id="node37" class="node"><title>Ubiquitin Ligase Complex</title>
<ellipse fill="none" stroke="black" cx="180.28" cy="-1220.82" rx="36.125" ry="36.125"/>
<text text-anchor="middle" x="180.28" y="-1219.62" font-family="Times,serif" font-size="4.00">Ubiquitin Ligase Complex</text>
</g>
<!-- Ubiquitin Ligase Complex&#45;&gt;NRF2 -->
<g id="edge65" class="edge"><title>Ubiquitin Ligase Complex&#45;&gt;NRF2</title>
<path fill="none" stroke="black" d="M207.724,-1244.62C213.38,-1248.91 219.406,-1253.2 225.28,-1256.88 255.929,-1276.1 272.042,-1267.98 298.28,-1292.88 323.358,-1316.68 308.951,-1339.58 336.28,-1360.76 399.982,-1410.13 498.839,-1421.03 546.992,-1423.33"/>
<polygon fill="black" stroke="black" points="546.882,-1426.83 557.01,-1423.72 547.153,-1419.84 546.882,-1426.83"/>
</g>
<!-- BACH1/Maf&#45;&gt;HMOX1 -->
<g id="edge66" class="edge"><title>BACH1/Maf&#45;&gt;HMOX1</title>
<path fill="none" stroke="black" d="M2039.04,-1315.47C2025.64,-1308.24 2006.79,-1298.85 1989.28,-1292.88 1915.36,-1267.67 1890.72,-1283.47 1817.28,-1256.88 1802.6,-1251.57 1787.14,-1243.5 1774.87,-1236.45"/>
<polygon fill="black" stroke="black" points="1776.57,-1233.39 1766.18,-1231.31 1773.01,-1239.41 1776.57,-1233.39"/>
</g>
<!-- CUL3_RBX1 -->
<g id="node40" class="node"><title>CUL3_RBX1</title>
<ellipse fill="none" stroke="black" cx="255.28" cy="-1424.87" rx="21.9898" ry="21.9898"/>
<text text-anchor="middle" x="255.28" y="-1423.67" font-family="Times,serif" font-size="4.00">CUL3_RBX1</text>
</g>
<!-- Neddylated CUL3_RBX1 -->
<g id="node84" class="node"><title>Neddylated CUL3_RBX1</title>
<ellipse fill="none" stroke="black" cx="255.28" cy="-1326.82" rx="33.8824" ry="33.8824"/>
<text text-anchor="middle" x="255.28" y="-1325.62" font-family="Times,serif" font-size="4.00">Neddylated CUL3_RBX1</text>
</g>
<!-- CUL3_RBX1&#45;&gt;Neddylated CUL3_RBX1 -->
<g id="edge67" class="edge"><title>CUL3_RBX1&#45;&gt;Neddylated CUL3_RBX1</title>
<path fill="none" stroke="black" d="M255.28,-1403.03C255.28,-1393.65 255.28,-1382.21 255.28,-1371.11"/>
<polygon fill="black" stroke="black" points="258.78,-1371.09 255.28,-1361.09 251.78,-1371.09 258.78,-1371.09"/>
</g>
<!-- ATP -->
<g id="node41" class="node"><title>ATP</title>
<ellipse fill="none" stroke="black" cx="1271.28" cy="-634.243" rx="18" ry="18"/>
<text text-anchor="middle" x="1271.28" y="-633.043" font-family="Times,serif" font-size="4.00">ATP</text>
</g>
<!-- ATP&#45;&gt;ADP -->
<g id="edge69" class="edge"><title>ATP&#45;&gt;ADP</title>
<path fill="none" stroke="black" d="M1277.97,-617.274C1289.44,-589.916 1312.92,-533.873 1326.65,-501.112"/>
<polygon fill="black" stroke="black" points="1329.93,-502.326 1330.57,-491.75 1323.48,-499.62 1329.93,-502.326"/>
</g>
<!-- ATP&#45;&gt;Pi -->
<g id="edge68" class="edge"><title>ATP&#45;&gt;Pi</title>
<path fill="none" stroke="black" d="M1261.4,-619.005C1254.83,-608.629 1246.78,-593.948 1243.28,-579.682 1238.33,-559.538 1237.05,-552.798 1243.28,-533.012 1247.55,-519.455 1256.29,-506.308 1264.51,-496.037"/>
<polygon fill="black" stroke="black" points="1267.41,-498.035 1271.19,-488.14 1262.06,-493.515 1267.41,-498.035"/>
</g>
<!-- ATP&#45;&gt;Heme -->
<g id="edge70" class="edge"><title>ATP&#45;&gt;Heme</title>
<path fill="none" stroke="black" d="M1256.98,-623.007C1239.28,-610.333 1208.91,-588.589 1188.01,-573.618"/>
<polygon fill="black" stroke="black" points="1189.86,-570.639 1179.69,-567.663 1185.78,-576.33 1189.86,-570.639"/>
</g>
<!-- PPO_FAD -->
<g id="node42" class="node"><title>PPO_FAD</title>
<ellipse fill="none" stroke="black" cx="828.28" cy="-707.366" rx="18.6233" ry="18.6233"/>
<text text-anchor="middle" x="828.28" y="-706.166" font-family="Times,serif" font-size="4.00">PPO_FAD</text>
</g>
<!-- PPO_FAD&#45;&gt;PRIN9 -->
<g id="edge72" class="edge"><title>PPO_FAD&#45;&gt;PRIN9</title>
<path fill="none" stroke="black" d="M827.538,-688.785C827.208,-680.948 826.811,-671.529 826.442,-662.791"/>
<polygon fill="black" stroke="black" points="829.931,-662.465 826.013,-652.622 822.938,-662.761 829.931,-662.465"/>
</g>
<!-- PPO_FAD&#45;&gt;H2O2 -->
<g id="edge71" class="edge"><title>PPO_FAD&#45;&gt;H2O2</title>
<path fill="none" stroke="black" d="M812.771,-696.536C795.894,-685.825 768.127,-668.163 744.28,-652.805 743.169,-652.089 742.034,-651.357 740.887,-650.615"/>
<polygon fill="black" stroke="black" points="742.413,-647.434 732.119,-644.929 738.604,-653.307 742.413,-647.434"/>
</g>
<!-- Gly -->
<g id="node43" class="node"><title>Gly</title>
<ellipse fill="none" stroke="black" cx="1009.28" cy="-556.347" rx="18" ry="18"/>
<text text-anchor="middle" x="1009.28" y="-555.147" font-family="Times,serif" font-size="4.00">Gly</text>
</g>
<!-- Gly&#45;&gt;CoA&#45;SH -->
<g id="edge73" class="edge"><title>Gly&#45;&gt;CoA&#45;SH</title>
<path fill="none" stroke="black" d="M1013.57,-538.82C1016.52,-527.178 1020.39,-511.199 1023.28,-497.012 1033.71,-445.747 1043.17,-385.396 1048.29,-351.123"/>
<polygon fill="black" stroke="black" points="1051.79,-351.36 1049.8,-340.956 1044.87,-350.336 1051.79,-351.36"/>
</g>
<!-- Gly&#45;&gt;dALA -->
<g id="edge74" class="edge"><title>Gly&#45;&gt;dALA</title>
<path fill="none" stroke="black" d="M1000.63,-540.373C994.01,-528.92 984.754,-512.901 977.112,-499.676"/>
<polygon fill="black" stroke="black" points="979.927,-497.553 971.893,-490.645 973.866,-501.055 979.927,-497.553"/>
</g>
<!-- Gly&#45;&gt;CO2 -->
<g id="edge75" class="edge"><title>Gly&#45;&gt;CO2</title>
<path fill="none" stroke="black" d="M1009.97,-538.231C1010.04,-516.547 1007.37,-478.833 990.28,-452.465 950.661,-391.345 870.821,-351.354 829.456,-333.831"/>
<polygon fill="black" stroke="black" points="830.633,-330.53 820.053,-329.955 827.965,-337.002 830.633,-330.53"/>
</g>
<!-- GPX4 -->
<g id="node44" class="node"><title>GPX4</title>
<ellipse fill="none" stroke="black" cx="191.28" cy="-937.81" rx="18" ry="18"/>
<text text-anchor="middle" x="191.28" y="-936.61" font-family="Times,serif" font-size="4.00">GPX4</text>
</g>
<!-- GPX4&#45;&gt;Lipid alcohol -->
<g id="edge76" class="edge"><title>GPX4&#45;&gt;Lipid alcohol</title>
<path fill="none" stroke="black" d="M190.412,-919.536C189.961,-910.55 189.394,-899.28 188.868,-888.803"/>
<polygon fill="black" stroke="black" points="192.358,-888.516 188.36,-878.704 185.367,-888.867 192.358,-888.516"/>
</g>
<!-- Biliverdin&#45;&gt;NADP+ -->
<g id="edge77" class="edge"><title>Biliverdin&#45;&gt;NADP+</title>
<path fill="none" stroke="black" d="M1839.33,-459.412C1830.18,-448.447 1817.41,-433.152 1807.07,-420.751"/>
<polygon fill="black" stroke="black" points="1809.46,-418.154 1800.36,-412.718 1804.08,-422.638 1809.46,-418.154"/>
</g>
<!-- Biliverdin&#45;&gt;Bilirubin -->
<g id="edge78" class="edge"><title>Biliverdin&#45;&gt;Bilirubin</title>
<path fill="none" stroke="black" d="M1868.9,-466.705C1893.77,-456.576 1940.36,-436.848 1978.28,-416.465 1979.43,-415.845 1980.6,-415.194 1981.78,-414.524"/>
<polygon fill="black" stroke="black" points="1983.89,-417.34 1990.65,-409.182 1980.27,-411.344 1983.89,-417.34"/>
</g>
<!-- Fe2+&#45;&gt;Reactive Oxygen Species -->
<g id="edge83" class="edge"><title>Fe2+&#45;&gt;Reactive Oxygen Species</title>
<path fill="none" stroke="black" d="M435.669,-1115.29C420.167,-1102.46 394.239,-1081.02 373.033,-1063.48"/>
<polygon fill="black" stroke="black" points="375.104,-1060.65 365.168,-1056.98 370.643,-1066.05 375.104,-1060.65"/>
</g>
<!-- Fe2+&#45;&gt;H2O -->
<g id="edge81" class="edge"><title>Fe2+&#45;&gt;H2O</title>
<path fill="none" stroke="black" d="M467.132,-1124.22C524.79,-1116.69 711.23,-1092.21 865.28,-1070.33 941.828,-1059.46 1032.03,-1045.79 1076.55,-1038.99"/>
<polygon fill="black" stroke="black" points="1077.25,-1042.43 1086.6,-1037.45 1076.19,-1035.51 1077.25,-1042.43"/>
</g>
<!-- Fe2+&#45;&gt;Fe(3+)O(OH) -->
<g id="edge84" class="edge"><title>Fe2+&#45;&gt;Fe(3+)O(OH)</title>
<path fill="none" stroke="black" d="M431.047,-1126.36C365.809,-1125.29 145.372,-1118.15 98.28,-1070.33 56.8395,-1028.25 79.28,-997.87 79.28,-938.81 79.28,-938.81 79.28,-938.81 79.28,-473.739 79.28,-432.155 72.0121,-384.6 66.4664,-354.367"/>
<polygon fill="black" stroke="black" points="69.8856,-353.611 64.5914,-344.434 63.007,-354.909 69.8856,-353.611"/>
</g>
<!-- Fe2+&#45;&gt;Heme -->
<g id="edge79" class="edge"><title>Fe2+&#45;&gt;Heme</title>
<path fill="none" stroke="black" d="M466.767,-1122.56C567.345,-1100.79 1065.28,-992.192 1065.28,-857.202 1065.28,-857.202 1065.28,-857.202 1065.28,-778.928 1065.28,-706.368 1031.87,-679.012 1067.28,-615.682 1081.9,-589.53 1099.32,-596.26 1124.28,-579.682 1129.27,-576.368 1134.63,-572.679 1139.88,-569.27"/>
<polygon fill="black" stroke="black" points="1141.87,-572.154 1148.52,-563.911 1138.18,-566.204 1141.87,-572.154"/>
</g>
<!-- Fe3+ -->
<g id="node58" class="node"><title>Fe3+</title>
<ellipse fill="none" stroke="black" cx="376.28" cy="-322.659" rx="18" ry="18"/>
<text text-anchor="middle" x="376.28" y="-321.459" font-family="Times,serif" font-size="4.00">Fe3+</text>
</g>
<!-- Fe2+&#45;&gt;Fe3+ -->
<g id="edge82" class="edge"><title>Fe2+&#45;&gt;Fe3+</title>
<path fill="none" stroke="black" d="M441.924,-1110.97C420.948,-1050.41 367.28,-824.521 367.28,-635.243 367.28,-635.243 367.28,-635.243 367.28,-473.739 367.28,-430.344 367.28,-379.891 369.758,-349.931"/>
<polygon fill="black" stroke="black" points="373.251,-350.176 370.788,-339.871 366.288,-349.463 373.251,-350.176"/>
</g>
<!-- Fe2+&#45;&gt;H+ -->
<g id="edge80" class="edge"><title>Fe2+&#45;&gt;H+</title>
<path fill="none" stroke="black" d="M448.231,-1109.27C445.788,-1063.86 441.024,-937.491 456.28,-833.928 481.908,-659.961 448.902,-587.715 561.28,-452.465 582.227,-427.255 618.032,-413.091 642.862,-405.863"/>
<polygon fill="black" stroke="black" points="644.022,-409.175 652.757,-403.179 642.189,-402.42 644.022,-409.175"/>
</g>
<!-- dALA&#45;&gt;H2O -->
<g id="edge86" class="edge"><title>dALA&#45;&gt;H2O</title>
<path fill="none" stroke="black" d="M965.773,-492.79C972.281,-538.832 989.28,-669.569 989.28,-778.928 989.28,-857.202 989.28,-857.202 989.28,-857.202 989.28,-904.614 987.872,-921.115 1013.28,-961.145 1029.63,-986.901 1058.57,-1007.28 1079.43,-1019.6"/>
<polygon fill="black" stroke="black" points="1077.95,-1022.79 1088.38,-1024.69 1081.41,-1016.7 1077.95,-1022.79"/>
</g>
<!-- dALA&#45;&gt;PBG -->
<g id="edge87" class="edge"><title>dALA&#45;&gt;PBG</title>
<path fill="none" stroke="black" d="M981.081,-471.05C1054.92,-459.899 1337.4,-417.236 1427.5,-403.63"/>
<polygon fill="black" stroke="black" points="1428.14,-407.073 1437.5,-402.118 1427.09,-400.151 1428.14,-407.073"/>
</g>
<!-- dALA&#45;&gt;H+ -->
<g id="edge85" class="edge"><title>dALA&#45;&gt;H+</title>
<path fill="none" stroke="black" d="M945.602,-470.054C895.927,-458.562 756.078,-423.198 696.978,-407.308"/>
<polygon fill="black" stroke="black" points="697.81,-403.907 687.243,-404.666 695.977,-410.663 697.81,-403.907"/>
</g>
<!-- PKC -->
<g id="node50" class="node"><title>PKC</title>
<ellipse fill="none" stroke="black" cx="575.28" cy="-1509.66" rx="18" ry="18"/>
<text text-anchor="middle" x="575.28" y="-1508.46" font-family="Times,serif" font-size="4.00">PKC</text>
</g>
<!-- PKC&#45;&gt;NRF2 -->
<g id="edge88" class="edge"><title>PKC&#45;&gt;NRF2</title>
<path fill="none" stroke="black" d="M575.28,-1491.51C575.28,-1480.41 575.28,-1465.71 575.28,-1453.05"/>
<polygon fill="black" stroke="black" points="578.78,-1453 575.28,-1443 571.78,-1453 578.78,-1453"/>
</g>
<!-- TFRC_holoTF -->
<g id="node51" class="node"><title>TFRC_holoTF</title>
<ellipse fill="none" stroke="black" cx="353.28" cy="-170.641" rx="22.05" ry="22.05"/>
<text text-anchor="middle" x="353.28" y="-169.441" font-family="Times,serif" font-size="4.00">TFRC_holoTF</text>
</g>
<!-- TFRC_holoTF&#45;&gt;Fe3+ -->
<g id="edge90" class="edge"><title>TFRC_holoTF&#45;&gt;Fe3+</title>
<path fill="none" stroke="black" d="M356.528,-192.825C360.629,-219.577 367.69,-265.63 372.165,-294.818"/>
<polygon fill="black" stroke="black" points="368.711,-295.387 373.686,-304.742 375.63,-294.327 368.711,-295.387"/>
</g>
<!-- TFRC_TF -->
<g id="node68" class="node"><title>TFRC_TF</title>
<ellipse fill="none" stroke="black" cx="357.28" cy="-94.3363" rx="18.0625" ry="18.0625"/>
<text text-anchor="middle" x="357.28" y="-93.1363" font-family="Times,serif" font-size="4.00">TFRC_TF</text>
</g>
<!-- TFRC_holoTF&#45;&gt;TFRC_TF -->
<g id="edge89" class="edge"><title>TFRC_holoTF&#45;&gt;TFRC_TF</title>
<path fill="none" stroke="black" d="M354.437,-148.149C354.865,-140.193 355.357,-131.064 355.809,-122.658"/>
<polygon fill="black" stroke="black" points="359.311,-122.715 356.354,-112.541 352.321,-122.338 359.311,-122.715"/>
</g>
<!-- SLC40A1_CP_Cu2+&#45;&gt;H2O -->
<g id="edge92" class="edge"><title>SLC40A1_CP_Cu2+&#45;&gt;H2O</title>
<path fill="none" stroke="black" d="M594.437,-1199.05C600.098,-1193.82 606.584,-1188.6 613.28,-1184.76 774.251,-1092.4 998.166,-1051.04 1076.16,-1038.81"/>
<polygon fill="black" stroke="black" points="1076.82,-1042.25 1086.18,-1037.28 1075.76,-1035.34 1076.82,-1042.25"/>
</g>
<!-- SLC40A1_CP_Cu2+&#45;&gt;Fe2+ -->
<g id="edge91" class="edge"><title>SLC40A1_CP_Cu2+&#45;&gt;Fe2+</title>
<path fill="none" stroke="black" d="M555.352,-1200.2C549.688,-1194.97 543.394,-1189.47 537.28,-1184.76 534.291,-1182.45 497.946,-1159.35 472.91,-1143.49"/>
<polygon fill="black" stroke="black" points="474.602,-1140.42 464.281,-1138.03 470.857,-1146.34 474.602,-1140.42"/>
</g>
<!-- SLC40A1_CP_Cu2+&#45;&gt;Fe3+ -->
<g id="edge93" class="edge"><title>SLC40A1_CP_Cu2+&#45;&gt;Fe3+</title>
<path fill="none" stroke="black" d="M556.105,-1199.08C550.444,-1193.85 543.963,-1188.62 537.28,-1184.76 490.917,-1157.95 471.038,-1170.91 422.28,-1148.76 361.54,-1121.15 340.036,-1118.89 294.28,-1070.33 281.982,-1057.28 275.28,-1052.67 275.28,-1034.74 275.28,-1034.74 275.28,-1034.74 275.28,-473.739 275.28,-417.472 324.746,-366.456 354.442,-340.899"/>
<polygon fill="black" stroke="black" points="356.81,-343.482 362.236,-334.383 352.32,-338.112 356.81,-343.482"/>
</g>
<!-- ABCG2 -->
<g id="node54" class="node"><title>ABCG2</title>
<ellipse fill="none" stroke="black" cx="1325.28" cy="-634.243" rx="18" ry="18"/>
<text text-anchor="middle" x="1325.28" y="-633.043" font-family="Times,serif" font-size="4.00">ABCG2</text>
</g>
<!-- ABCG2&#45;&gt;ADP -->
<g id="edge95" class="edge"><title>ABCG2&#45;&gt;ADP</title>
<path fill="none" stroke="black" d="M1326.59,-616.088C1328.66,-588.867 1332.72,-535.544 1335.2,-503.033"/>
<polygon fill="black" stroke="black" points="1338.7,-503.11 1335.97,-492.873 1331.72,-502.578 1338.7,-503.11"/>
</g>
<!-- ABCG2&#45;&gt;Pi -->
<g id="edge94" class="edge"><title>ABCG2&#45;&gt;Pi</title>
<path fill="none" stroke="black" d="M1320.86,-616.685C1313.6,-589.46 1299.09,-535.01 1290.37,-502.332"/>
<polygon fill="black" stroke="black" points="1293.72,-501.309 1287.76,-492.549 1286.96,-503.113 1293.72,-501.309"/>
</g>
<!-- ABCG2&#45;&gt;Heme -->
<g id="edge96" class="edge"><title>ABCG2&#45;&gt;Heme</title>
<path fill="none" stroke="black" d="M1310.97,-623.318C1306.95,-620.697 1302.51,-617.966 1298.28,-615.682 1262.47,-596.352 1218.96,-578.211 1191.68,-567.441"/>
<polygon fill="black" stroke="black" points="1192.66,-564.066 1182.07,-563.688 1190.11,-570.586 1192.66,-564.066"/>
</g>
<!-- E2 -->
<g id="node55" class="node"><title>E2</title>
<ellipse fill="none" stroke="black" cx="121.28" cy="-1326.82" rx="18" ry="18"/>
<text text-anchor="middle" x="121.28" y="-1325.62" font-family="Times,serif" font-size="4.00">E2</text>
</g>
<!-- E2&#45;&gt;Ubiquitin Ligase Complex -->
<g id="edge97" class="edge"><title>E2&#45;&gt;Ubiquitin Ligase Complex</title>
<path fill="none" stroke="black" d="M129.733,-1310.92C137.059,-1298.01 147.999,-1278.72 157.829,-1261.39"/>
<polygon fill="black" stroke="black" points="160.954,-1262.98 162.844,-1252.56 154.865,-1259.53 160.954,-1262.98"/>
</g>
<!-- FLVCR1&#45;2 -->
<g id="node56" class="node"><title>FLVCR1&#45;2</title>
<ellipse fill="none" stroke="black" cx="1216.28" cy="-634.243" rx="18.6233" ry="18.6233"/>
<text text-anchor="middle" x="1216.28" y="-633.043" font-family="Times,serif" font-size="4.00">FLVCR1&#45;2</text>
</g>
<!-- FLVCR1&#45;2&#45;&gt;Heme -->
<g id="edge98" class="edge"><title>FLVCR1&#45;2&#45;&gt;Heme</title>
<path fill="none" stroke="black" d="M1206.2,-618.248C1198.92,-607.403 1188.94,-592.55 1180.65,-580.227"/>
<polygon fill="black" stroke="black" points="1183.47,-578.144 1174.99,-571.796 1177.66,-582.048 1183.47,-578.144"/>
</g>
<!-- Heme&#45;&gt;CO -->
<g id="edge104" class="edge"><title>Heme&#45;&gt;CO</title>
<path fill="none" stroke="black" d="M1183.07,-552.372C1255.17,-540.314 1525.93,-495.03 1613.66,-480.358"/>
<polygon fill="black" stroke="black" points="1614.37,-483.788 1623.65,-478.687 1613.21,-476.884 1614.37,-483.788"/>
</g>
<!-- Heme&#45;&gt;H2O -->
<g id="edge106" class="edge"><title>Heme&#45;&gt;H2O</title>
<path fill="none" stroke="black" d="M1169.91,-573.88C1171.92,-601.369 1169.28,-658.218 1169.28,-706.366 1169.28,-857.202 1169.28,-857.202 1169.28,-857.202 1169.28,-915.139 1141.25,-978.961 1121.66,-1011.34"/>
<polygon fill="black" stroke="black" points="1118.58,-1009.66 1116.14,-1019.97 1124.48,-1013.43 1118.58,-1009.66"/>
</g>
<!-- Heme&#45;&gt;ADP -->
<g id="edge108" class="edge"><title>Heme&#45;&gt;ADP</title>
<path fill="none" stroke="black" d="M1182.53,-550.18C1210.46,-541.431 1266.84,-522.169 1310.28,-497.012 1312.21,-495.895 1314.15,-494.65 1316.06,-493.339"/>
<polygon fill="black" stroke="black" points="1318.16,-496.14 1324.08,-487.357 1313.98,-490.529 1318.16,-496.14"/>
</g>
<!-- Heme&#45;&gt;CoA&#45;SH -->
<g id="edge99" class="edge"><title>Heme&#45;&gt;CoA&#45;SH</title>
<path fill="none" stroke="black" d="M1169.42,-538.578C1176.6,-505.447 1187.77,-430.477 1156.28,-380.402 1139.23,-353.284 1104.43,-338.159 1079.79,-330.473"/>
<polygon fill="black" stroke="black" points="1080.51,-327.038 1069.93,-327.62 1078.57,-333.762 1080.51,-327.038"/>
</g>
<!-- Heme&#45;&gt;Biliverdin -->
<g id="edge105" class="edge"><title>Heme&#45;&gt;Biliverdin</title>
<path fill="none" stroke="black" d="M1183.1,-553.282C1248.07,-545.754 1478.35,-519.066 1668.28,-497.012 1722.55,-490.711 1785.88,-483.346 1822.01,-479.144"/>
<polygon fill="black" stroke="black" points="1822.78,-482.577 1832.31,-477.945 1821.97,-475.624 1822.78,-482.577"/>
</g>
<!-- Heme&#45;&gt;Fe2+ -->
<g id="edge103" class="edge"><title>Heme&#45;&gt;Fe2+</title>
<path fill="none" stroke="black" d="M1154.55,-571.192C1150.65,-574.035 1146.34,-576.983 1142.28,-579.682 1117.32,-596.26 1099.9,-589.53 1085.28,-615.682 1049.87,-679.012 1083.28,-706.368 1083.28,-778.928 1083.28,-857.202 1083.28,-857.202 1083.28,-857.202 1083.28,-990.245 599.61,-1097.65 477.112,-1121.56"/>
<polygon fill="black" stroke="black" points="476.191,-1118.18 467.031,-1123.5 477.511,-1125.05 476.191,-1118.18"/>
</g>
<!-- Heme&#45;&gt;dALA -->
<g id="edge100" class="edge"><title>Heme&#45;&gt;dALA</title>
<path fill="none" stroke="black" d="M1148.75,-548.832C1113.59,-534.978 1031.19,-502.503 989.065,-485.901"/>
<polygon fill="black" stroke="black" points="990.343,-482.642 979.756,-482.232 987.776,-489.155 990.343,-482.642"/>
</g>
<!-- Heme&#45;&gt;Pi -->
<g id="edge107" class="edge"><title>Heme&#45;&gt;Pi</title>
<path fill="none" stroke="black" d="M1179.75,-545.585C1199.83,-532.037 1236.37,-507.387 1260.23,-491.29"/>
<polygon fill="black" stroke="black" points="1262.36,-494.074 1268.69,-485.58 1258.45,-488.271 1262.36,-494.074"/>
</g>
<!-- Heme&#45;&gt;NADP+ -->
<g id="edge102" class="edge"><title>Heme&#45;&gt;NADP+</title>
<path fill="none" stroke="black" d="M1176.22,-541.919C1198.06,-515.267 1245.88,-457.787 1256.28,-452.465 1301.51,-429.327 1657.87,-407.051 1761.25,-401.023"/>
<polygon fill="black" stroke="black" points="1761.47,-404.516 1771.26,-400.445 1761.07,-397.528 1761.47,-404.516"/>
</g>
<!-- Heme&#45;&gt;CO2 -->
<g id="edge101" class="edge"><title>Heme&#45;&gt;CO2</title>
<path fill="none" stroke="black" d="M1154.89,-541.265C1129.82,-508.245 1062.44,-425.248 987.28,-380.402 936.852,-350.315 868.995,-334.801 831.371,-328.027"/>
<polygon fill="black" stroke="black" points="831.608,-324.517 821.159,-326.271 830.421,-331.415 831.608,-324.517"/>
</g>
<!-- Fe3+&#45;&gt;Fe2+ -->
<g id="edge109" class="edge"><title>Fe3+&#45;&gt;Fe2+</title>
<path fill="none" stroke="black" d="M381.772,-339.871C385.28,-367.393 385.28,-425.015 385.28,-473.739 385.28,-635.243 385.28,-635.243 385.28,-635.243 385.28,-814.005 433.15,-1025.42 446.582,-1099.38"/>
<polygon fill="black" stroke="black" points="443.141,-1100.02 448.304,-1109.28 450.037,-1098.82 443.141,-1100.02"/>
</g>
<!-- holoTF -->
<g id="node66" class="node"><title>holoTF</title>
<ellipse fill="none" stroke="black" cx="399.28" cy="-246.915" rx="18" ry="18"/>
<text text-anchor="middle" x="399.28" y="-245.715" font-family="Times,serif" font-size="4.00">holoTF</text>
</g>
<!-- Fe3+&#45;&gt;holoTF -->
<g id="edge110" class="edge"><title>Fe3+&#45;&gt;holoTF</title>
<path fill="none" stroke="black" d="M381.384,-305.293C384.243,-296.127 387.875,-284.483 391.118,-274.083"/>
<polygon fill="black" stroke="black" points="394.554,-274.824 394.19,-264.236 387.871,-272.74 394.554,-274.824"/>
</g>
<!-- PBG&#45;&gt;HMBL -->
<g id="edge112" class="edge"><title>PBG&#45;&gt;HMBL</title>
<path fill="none" stroke="black" d="M1453.81,-416.723C1451.5,-445.472 1447.28,-504.934 1447.28,-555.347 1447.28,-780.928 1447.28,-780.928 1447.28,-780.928 1447.28,-826.015 1443.9,-878.342 1441.53,-909.452"/>
<polygon fill="black" stroke="black" points="1438.04,-909.282 1440.75,-919.524 1445.02,-909.828 1438.04,-909.282"/>
</g>
<!-- PBG&#45;&gt;NH4+ -->
<g id="edge111" class="edge"><title>PBG&#45;&gt;NH4+</title>
<path fill="none" stroke="black" d="M1455.28,-380.323C1455.28,-371.57 1455.28,-360.708 1455.28,-350.843"/>
<polygon fill="black" stroke="black" points="1458.78,-350.677 1455.28,-340.677 1451.78,-350.677 1458.78,-350.677"/>
</g>
<!-- BLVRA&#45;&gt;BLVRA_Zn2+ -->
<g id="edge113" class="edge"><title>BLVRA&#45;&gt;BLVRA_Zn2+</title>
<path fill="none" stroke="black" d="M2024.06,-1109.47C2021.83,-1076.5 2017.28,-1001.77 2017.28,-938.81 2017.28,-938.81 2017.28,-938.81 2017.28,-633.243 2017.28,-589.386 2012.6,-538.859 2009.08,-507.11"/>
<polygon fill="black" stroke="black" points="2012.55,-506.639 2007.94,-497.099 2005.6,-507.431 2012.55,-506.639"/>
</g>
<!-- MAF -->
<g id="node61" class="node"><title>MAF</title>
<ellipse fill="none" stroke="black" cx="1982.28" cy="-1424.87" rx="18" ry="18"/>
<text text-anchor="middle" x="1982.28" y="-1423.67" font-family="Times,serif" font-size="4.00">MAF</text>
</g>
<!-- MAF&#45;&gt;Nrf2/Maf -->
<g id="edge115" class="edge"><title>MAF&#45;&gt;Nrf2/Maf</title>
<path fill="none" stroke="black" d="M1978.8,-1407.14C1975.77,-1392.63 1971.35,-1371.37 1967.84,-1354.51"/>
<polygon fill="black" stroke="black" points="1971.26,-1353.76 1965.79,-1344.68 1964.4,-1355.19 1971.26,-1353.76"/>
</g>
<!-- MAF&#45;&gt;BACH1/Maf -->
<g id="edge114" class="edge"><title>MAF&#45;&gt;BACH1/Maf</title>
<path fill="none" stroke="black" d="M1993.03,-1410.11C2004.83,-1395 2024.01,-1370.43 2038.34,-1352.07"/>
<polygon fill="black" stroke="black" points="2041.15,-1354.17 2044.55,-1344.13 2035.63,-1349.86 2041.15,-1354.17"/>
</g>
<!-- Transferrin -->
<g id="node62" class="node"><title>Transferrin</title>
<ellipse fill="none" stroke="black" cx="394.28" cy="-20.1525" rx="20.3062" ry="20.3062"/>
<text text-anchor="middle" x="394.28" y="-18.9525" font-family="Times,serif" font-size="4.00">Transferrin</text>
</g>
<!-- Transferrin&#45;&gt;holoTF -->
<g id="edge116" class="edge"><title>Transferrin&#45;&gt;holoTF</title>
<path fill="none" stroke="black" d="M394.707,-40.3696C395.596,-80.2963 397.643,-172.338 398.67,-218.488"/>
<polygon fill="black" stroke="black" points="395.174,-218.732 398.896,-228.652 402.173,-218.576 395.174,-218.732"/>
</g>
<!-- TFRC -->
<g id="node63" class="node"><title>TFRC</title>
<ellipse fill="none" stroke="black" cx="329.28" cy="-20.1525" rx="18" ry="18"/>
<text text-anchor="middle" x="329.28" y="-18.9525" font-family="Times,serif" font-size="4.00">TFRC</text>
</g>
<!-- TFRC&#45;&gt;TFRC_holoTF -->
<g id="edge117" class="edge"><title>TFRC&#45;&gt;TFRC_holoTF</title>
<path fill="none" stroke="black" d="M327.611,-38.1571C326.227,-56.6241 325.211,-86.8944 330.28,-112.368 332.215,-122.092 335.756,-132.269 339.489,-141.301"/>
<polygon fill="black" stroke="black" points="336.333,-142.819 343.549,-150.577 342.746,-140.013 336.333,-142.819"/>
</g>
<!-- MCOLN1 -->
<g id="node64" class="node"><title>MCOLN1</title>
<ellipse fill="none" stroke="black" cx="388.28" cy="-1220.82" rx="18.0625" ry="18.0625"/>
<text text-anchor="middle" x="388.28" y="-1219.62" font-family="Times,serif" font-size="4.00">MCOLN1</text>
</g>
<!-- MCOLN1&#45;&gt;Fe2+ -->
<g id="edge118" class="edge"><title>MCOLN1&#45;&gt;Fe2+</title>
<path fill="none" stroke="black" d="M398.081,-1205.15C407.742,-1190.7 422.65,-1168.39 433.893,-1151.57"/>
<polygon fill="black" stroke="black" points="437.058,-1153.13 439.705,-1142.87 431.238,-1149.24 437.058,-1153.13"/>
</g>
<!-- SLC40A1_HEPH_Cu2+ -->
<g id="node65" class="node"><title>SLC40A1_HEPH_Cu2+</title>
<ellipse fill="none" stroke="black" cx="320.28" cy="-1220.82" rx="31.6406" ry="31.6406"/>
<text text-anchor="middle" x="320.28" y="-1219.62" font-family="Times,serif" font-size="4.00">SLC40A1_HEPH_Cu2+</text>
</g>
<!-- SLC40A1_HEPH_Cu2+&#45;&gt;H2O -->
<g id="edge120" class="edge"><title>SLC40A1_HEPH_Cu2+&#45;&gt;H2O</title>
<path fill="none" stroke="black" d="M335.974,-1193.04C353.358,-1166.1 384.049,-1125.83 422.28,-1106.33 539.416,-1046.59 962.184,-1036.64 1075.93,-1035.04"/>
<polygon fill="black" stroke="black" points="1076.29,-1038.53 1086.24,-1034.9 1076.2,-1031.53 1076.29,-1038.53"/>
</g>
<!-- SLC40A1_HEPH_Cu2+&#45;&gt;Fe2+ -->
<g id="edge119" class="edge"><title>SLC40A1_HEPH_Cu2+&#45;&gt;Fe2+</title>
<path fill="none" stroke="black" d="M343.669,-1198.85C349.313,-1194.06 355.411,-1189.11 361.28,-1184.76 382.114,-1169.31 407.145,-1153.57 425.175,-1142.69"/>
<polygon fill="black" stroke="black" points="427.119,-1145.61 433.907,-1137.47 423.527,-1139.6 427.119,-1145.61"/>
</g>
<!-- SLC40A1_HEPH_Cu2+&#45;&gt;Fe3+ -->
<g id="edge121" class="edge"><title>SLC40A1_HEPH_Cu2+&#45;&gt;Fe3+</title>
<path fill="none" stroke="black" d="M297.478,-1198.15C284.961,-1185 270.211,-1167.24 261.28,-1148.76 238.746,-1102.13 237.28,-1086.52 237.28,-1034.74 237.28,-1034.74 237.28,-1034.74 237.28,-473.739 237.28,-430.906 234.279,-413.652 261.28,-380.402 283.582,-352.939 322.507,-337.707 348.825,-330.103"/>
<polygon fill="black" stroke="black" points="349.831,-333.457 358.571,-327.467 348.004,-326.699 349.831,-333.457"/>
</g>
<!-- holoTF&#45;&gt;TFRC_holoTF -->
<g id="edge122" class="edge"><title>holoTF&#45;&gt;TFRC_holoTF</title>
<path fill="none" stroke="black" d="M390.192,-231.241C384.464,-221.993 376.893,-209.768 370.099,-198.798"/>
<polygon fill="black" stroke="black" points="372.873,-196.63 364.632,-189.971 366.922,-200.316 372.873,-196.63"/>
</g>
<!-- CPOX -->
<g id="node67" class="node"><title>CPOX</title>
<ellipse fill="none" stroke="black" cx="697.28" cy="-779.928" rx="18" ry="18"/>
<text text-anchor="middle" x="697.28" y="-778.728" font-family="Times,serif" font-size="4.00">CPOX</text>
</g>
<!-- CPOX&#45;&gt;PPGEN9 -->
<g id="edge123" class="edge"><title>CPOX&#45;&gt;PPGEN9</title>
<path fill="none" stroke="black" d="M705.525,-763.617C710.405,-754.555 716.697,-742.873 722.236,-732.586"/>
<polygon fill="black" stroke="black" points="725.391,-734.111 727.051,-723.647 719.228,-730.792 725.391,-734.111"/>
</g>
<!-- CPOX&#45;&gt;CO2 -->
<g id="edge125" class="edge"><title>CPOX&#45;&gt;CO2</title>
<path fill="none" stroke="black" d="M680.46,-773.092C639.38,-757.651 537.28,-711.592 537.28,-635.243 537.28,-635.243 537.28,-635.243 537.28,-473.739 537.28,-365.275 707.116,-334.324 775.373,-326.265"/>
<polygon fill="black" stroke="black" points="775.857,-329.733 785.414,-325.159 775.091,-322.775 775.857,-329.733"/>
</g>
<!-- CPOX&#45;&gt;H2O2 -->
<g id="edge124" class="edge"><title>CPOX&#45;&gt;H2O2</title>
<path fill="none" stroke="black" d="M699.121,-761.955C701.142,-743.816 704.594,-714.232 708.28,-688.805 709.536,-680.144 711.064,-670.723 712.502,-662.231"/>
<polygon fill="black" stroke="black" points="715.999,-662.548 714.248,-652.099 709.1,-661.359 715.999,-662.548"/>
</g>
<!-- TFRC_TF&#45;&gt;Transferrin -->
<g id="edge127" class="edge"><title>TFRC_TF&#45;&gt;Transferrin</title>
<path fill="none" stroke="black" d="M365.127,-78.028C369.674,-69.1562 375.525,-57.7428 380.789,-47.4714"/>
<polygon fill="black" stroke="black" points="383.959,-48.9609 385.406,-38.4653 377.73,-45.7678 383.959,-48.9609"/>
</g>
<!-- TFRC_TF&#45;&gt;TFRC -->
<g id="edge126" class="edge"><title>TFRC_TF&#45;&gt;TFRC</title>
<path fill="none" stroke="black" d="M351.066,-77.3164C347.586,-68.3448 343.165,-56.9471 339.216,-46.767"/>
<polygon fill="black" stroke="black" points="342.356,-45.1851 335.477,-37.1277 335.83,-47.7166 342.356,-45.1851"/>
</g>
<!-- UROD -->
<g id="node69" class="node"><title>UROD</title>
<ellipse fill="none" stroke="black" cx="789.28" cy="-856.202" rx="18" ry="18"/>
<text text-anchor="middle" x="789.28" y="-855.002" font-family="Times,serif" font-size="4.00">UROD</text>
</g>
<!-- UROD&#45;&gt;COPRO3 -->
<g id="edge128" class="edge"><title>UROD&#45;&gt;COPRO3</title>
<path fill="none" stroke="black" d="M789.28,-837.975C789.28,-829.163 789.28,-818.228 789.28,-808.296"/>
<polygon fill="black" stroke="black" points="792.78,-808.061 789.28,-798.061 785.78,-808.061 792.78,-808.061"/>
</g>
<!-- miRNA&#45;155 -->
<g id="node70" class="node"><title>miRNA&#45;155</title>
<ellipse fill="none" stroke="black" cx="2057.28" cy="-1509.66" rx="20.8674" ry="20.8674"/>
<text text-anchor="middle" x="2057.28" y="-1508.46" font-family="Times,serif" font-size="4.00">miRNA&#45;155</text>
</g>
<!-- miRNA&#45;155&#45;&gt;BACH1 -->
<g id="edge129" class="edge"><title>miRNA&#45;155&#45;&gt;BACH1</title>
<path fill="none" stroke="black" d="M2057.28,-1488.62C2057.28,-1477.92 2057.28,-1464.6 2057.28,-1452.99"/>
<polygon fill="black" stroke="black" points="2060.78,-1452.93 2057.28,-1442.93 2053.78,-1452.93 2060.78,-1452.93"/>
</g>
<!-- NRF2_KEAP1&#45;&gt;Ubiquitin Ligase Complex -->
<g id="edge130" class="edge"><title>NRF2_KEAP1&#45;&gt;Ubiquitin Ligase Complex</title>
<path fill="none" stroke="black" d="M180.28,-1303.77C180.28,-1293.04 180.28,-1279.73 180.28,-1266.98"/>
<polygon fill="black" stroke="black" points="183.78,-1266.94 180.28,-1256.94 176.78,-1266.94 183.78,-1266.94"/>
</g>
<!-- CYBRD1_Heme -->
<g id="node72" class="node"><title>CYBRD1_Heme</title>
<ellipse fill="none" stroke="black" cx="449.28" cy="-1220.82" rx="24.8512" ry="24.8512"/>
<text text-anchor="middle" x="449.28" y="-1219.62" font-family="Times,serif" font-size="4.00">CYBRD1_Heme</text>
</g>
<!-- CYBRD1_Heme&#45;&gt;Fe2+ -->
<g id="edge131" class="edge"><title>CYBRD1_Heme&#45;&gt;Fe2+</title>
<path fill="none" stroke="black" d="M449.28,-1195.84C449.28,-1183.54 449.28,-1168.51 449.28,-1155.78"/>
<polygon fill="black" stroke="black" points="452.78,-1155.73 449.28,-1145.73 445.78,-1155.74 452.78,-1155.73"/>
</g>
<!-- Pb2+ -->
<g id="node73" class="node"><title>Pb2+</title>
<ellipse fill="none" stroke="black" cx="771.28" cy="-634.243" rx="18" ry="18"/>
<text text-anchor="middle" x="771.28" y="-633.043" font-family="Times,serif" font-size="4.00">Pb2+</text>
</g>
<!-- Pb2+&#45;&gt;Heme -->
<g id="edge133" class="edge"><title>Pb2+&#45;&gt;Heme</title>
<path fill="none" stroke="black" d="M785.205,-622.463C789.228,-619.839 793.759,-617.32 798.28,-615.682 925.365,-569.628 968.509,-609.814 1100.28,-579.682 1113.42,-576.678 1127.61,-571.978 1139.37,-567.664"/>
<polygon fill="black" stroke="black" points="1140.88,-570.835 1149,-564.023 1138.41,-564.288 1140.88,-570.835"/>
</g>
<!-- Pb2+&#45;&gt;H+ -->
<g id="edge132" class="edge"><title>Pb2+&#45;&gt;H+</title>
<path fill="none" stroke="black" d="M756.586,-623.322C752.637,-620.756 748.336,-618.051 744.28,-615.682 714.415,-598.232 693.619,-609.009 675.28,-579.682 645.672,-532.331 654.9,-463.447 663.216,-426.032"/>
<polygon fill="black" stroke="black" points="666.712,-426.461 665.614,-415.923 659.901,-424.845 666.712,-426.461"/>
</g>
<!-- PRIN9&#45;&gt;Heme -->
<g id="edge135" class="edge"><title>PRIN9&#45;&gt;Heme</title>
<path fill="none" stroke="black" d="M842.279,-628.18C855.33,-624.407 873.841,-619.303 890.28,-615.682 982.758,-595.31 1008.54,-603.144 1100.28,-579.682 1113.24,-576.366 1127.32,-571.669 1139.05,-567.437"/>
<polygon fill="black" stroke="black" points="1140.5,-570.633 1148.67,-563.885 1138.08,-564.067 1140.5,-570.633"/>
</g>
<!-- PRIN9&#45;&gt;H+ -->
<g id="edge134" class="edge"><title>PRIN9&#45;&gt;H+</title>
<path fill="none" stroke="black" d="M810.991,-623.282C806.966,-620.662 802.526,-617.939 798.28,-615.682 762.055,-596.422 739.778,-611.003 713.28,-579.682 693.844,-556.708 679.852,-471.056 673.726,-426.6"/>
<polygon fill="black" stroke="black" points="677.17,-425.948 672.373,-416.502 670.232,-426.878 677.17,-425.948"/>
</g>
<!-- O2 -->
<g id="node76" class="node"><title>O2</title>
<ellipse fill="none" stroke="black" cx="748.28" cy="-1220.82" rx="18" ry="18"/>
<text text-anchor="middle" x="748.28" y="-1219.62" font-family="Times,serif" font-size="4.00">O2</text>
</g>
<!-- O2&#45;&gt;PPGEN9 -->
<g id="edge145" class="edge"><title>O2&#45;&gt;PPGEN9</title>
<path fill="none" stroke="black" d="M747.51,-1202.73C746.107,-1170.09 743.28,-1096.61 743.28,-1034.74 743.28,-1034.74 743.28,-1034.74 743.28,-855.202 743.28,-813.548 740.03,-765.345 737.673,-735.861"/>
<polygon fill="black" stroke="black" points="741.132,-735.209 736.822,-725.53 734.155,-735.784 741.132,-735.209"/>
</g>
<!-- O2&#45;&gt;CO -->
<g id="edge143" class="edge"><title>O2&#45;&gt;CO</title>
<path fill="none" stroke="black" d="M766.553,-1219.43C879.245,-1216.85 1476.93,-1200.79 1537.28,-1148.76 1561.45,-1127.92 1599.28,-1016.51 1599.28,-857.202 1599.28,-857.202 1599.28,-857.202 1599.28,-633.243 1599.28,-585.188 1617.76,-531.586 1630.2,-500.939"/>
<polygon fill="black" stroke="black" points="1633.53,-502.043 1634.16,-491.466 1627.07,-499.347 1633.53,-502.043"/>
</g>
<!-- O2&#45;&gt;H2O -->
<g id="edge136" class="edge"><title>O2&#45;&gt;H2O</title>
<path fill="none" stroke="black" d="M766.236,-1218.64C829.463,-1214.09 1040.4,-1195.6 1085.28,-1148.76 1107.27,-1125.81 1109.32,-1087.62 1107.69,-1061.82"/>
<polygon fill="black" stroke="black" points="1111.16,-1061.27 1106.81,-1051.61 1104.18,-1061.87 1111.16,-1061.27"/>
</g>
<!-- O2&#45;&gt;Fe(3+)O(OH) -->
<g id="edge138" class="edge"><title>O2&#45;&gt;Fe(3+)O(OH)</title>
<path fill="none" stroke="black" d="M740.301,-1204.51C735.727,-1197.3 729.294,-1189.32 721.28,-1184.76 604.938,-1118.57 554.217,-1171.3 422.28,-1148.76 263.861,-1121.69 205.324,-1155.89 69.28,-1070.33 52.2424,-1059.61 41.28,-1054.86 41.28,-1034.74 41.28,-1034.74 41.28,-1034.74 41.28,-473.739 41.28,-432.155 48.5479,-384.6 54.0936,-354.367"/>
<polygon fill="black" stroke="black" points="57.5529,-354.909 55.9686,-344.434 50.6744,-353.611 57.5529,-354.909"/>
</g>
<!-- O2&#45;&gt;Biliverdin -->
<g id="edge144" class="edge"><title>O2&#45;&gt;Biliverdin</title>
<path fill="none" stroke="black" d="M766.24,-1219.23C879.68,-1215.38 1494.31,-1192.59 1564.28,-1148.76 1757.48,-1027.73 1827.28,-936.342 1827.28,-708.366 1827.28,-708.366 1827.28,-708.366 1827.28,-633.243 1827.28,-587.269 1837.4,-534.599 1844.49,-503.307"/>
<polygon fill="black" stroke="black" points="1847.91,-504.089 1846.77,-493.556 1841.09,-502.501 1847.91,-504.089"/>
</g>
<!-- O2&#45;&gt;Fe2+ -->
<g id="edge142" class="edge"><title>O2&#45;&gt;Fe2+</title>
<path fill="none" stroke="black" d="M740.244,-1204.6C735.656,-1197.43 729.227,-1189.43 721.28,-1184.76 628.312,-1130.07 582.372,-1186.36 481.28,-1148.76 478.139,-1147.59 474.98,-1146.08 471.934,-1144.42"/>
<polygon fill="black" stroke="black" points="473.63,-1141.36 463.268,-1139.15 469.992,-1147.34 473.63,-1141.36"/>
</g>
<!-- O2&#45;&gt;NADP+ -->
<g id="edge141" class="edge"><title>O2&#45;&gt;NADP+</title>
<path fill="none" stroke="black" d="M766.28,-1218.64C868.996,-1211.58 1380.41,-1171.69 1493.28,-1070.33 1567.26,-1003.9 1561.28,-956.63 1561.28,-857.202 1561.28,-857.202 1561.28,-857.202 1561.28,-555.347 1561.28,-503.911 1574.76,-485.391 1614.28,-452.465 1657.12,-416.767 1723.57,-405.09 1761.05,-401.277"/>
<polygon fill="black" stroke="black" points="1761.61,-404.741 1771.25,-400.362 1760.98,-397.769 1761.61,-404.741"/>
</g>
<!-- O2&#45;&gt;Fe3+ -->
<g id="edge137" class="edge"><title>O2&#45;&gt;Fe3+</title>
<path fill="none" stroke="black" d="M739.495,-1205.02C734.801,-1198.12 728.5,-1190.24 721.28,-1184.76 687.298,-1158.95 665.085,-1176.04 632.28,-1148.76 600.499,-1122.32 599.665,-1107.83 582.28,-1070.33 481.895,-853.773 423.28,-796.04 423.28,-557.347 423.28,-557.347 423.28,-557.347 423.28,-473.739 423.28,-427.622 402.82,-377.027 388.898,-347.938"/>
<polygon fill="black" stroke="black" points="392.023,-346.362 384.467,-338.936 385.743,-349.453 392.023,-346.362"/>
</g>
<!-- O2&#45;&gt;PRIN9 -->
<g id="edge140" class="edge"><title>O2&#45;&gt;PRIN9</title>
<path fill="none" stroke="black" d="M763.103,-1210.39C799.304,-1186.08 889.28,-1117.34 889.28,-1034.74 889.28,-1034.74 889.28,-1034.74 889.28,-936.81 889.28,-825.614 892.152,-794.056 856.28,-688.805 852.641,-678.127 846.772,-667.197 841.114,-658.019"/>
<polygon fill="black" stroke="black" points="843.98,-656.005 835.618,-649.499 838.098,-659.8 843.98,-656.005"/>
</g>
<!-- O2&#45;&gt;CO2 -->
<g id="edge146" class="edge"><title>O2&#45;&gt;CO2</title>
<path fill="none" stroke="black" d="M738.859,-1205.15C734.104,-1198.44 727.936,-1190.68 721.28,-1184.76 698.055,-1164.08 682.501,-1171.49 661.28,-1148.76 634.58,-1120.15 638.318,-1105.55 621.28,-1070.33 598.039,-1022.28 589.466,-1011.32 571.28,-961.145 539.591,-873.707 461.28,-650.35 461.28,-557.347 461.28,-557.347 461.28,-557.347 461.28,-473.739 461.28,-337.219 692.616,-323.743 774.764,-323.261"/>
<polygon fill="black" stroke="black" points="774.891,-326.761 784.893,-323.265 774.894,-319.761 774.891,-326.761"/>
</g>
<!-- O2&#45;&gt;H2O2 -->
<g id="edge139" class="edge"><title>O2&#45;&gt;H2O2</title>
<path fill="none" stroke="black" d="M737.911,-1206.06C706.299,-1164.06 613.28,-1040.02 613.28,-1034.74 613.28,-1034.74 613.28,-1034.74 613.28,-855.202 613.28,-775.817 669.328,-694.446 699.133,-656.788"/>
<polygon fill="black" stroke="black" points="702.189,-658.574 705.753,-648.597 696.745,-654.174 702.189,-658.574"/>
</g>
<!-- NCOA4 -->
<g id="node78" class="node"><title>NCOA4</title>
<ellipse fill="none" stroke="black" cx="2114.28" cy="-1509.66" rx="18" ry="18"/>
<text text-anchor="middle" x="2114.28" y="-1508.46" font-family="Times,serif" font-size="4.00">NCOA4</text>
</g>
<!-- CAND1 -->
<g id="node79" class="node"><title>CAND1</title>
<ellipse fill="none" stroke="black" cx="363.28" cy="-1326.82" rx="18" ry="18"/>
<text text-anchor="middle" x="363.28" y="-1325.62" font-family="Times,serif" font-size="4.00">CAND1</text>
</g>
<!-- CAND1&#45;&gt;Ubiquitin Ligase Complex -->
<g id="edge147" class="edge"><title>CAND1&#45;&gt;Ubiquitin Ligase Complex</title>
<path fill="none" stroke="black" d="M352.63,-1312.14C346.904,-1305.55 339.368,-1297.99 331.28,-1292.88 289.222,-1266.3 269.07,-1280.5 225.28,-1256.88 222.038,-1255.13 218.789,-1253.15 215.603,-1251.04"/>
<polygon fill="black" stroke="black" points="217.553,-1248.14 207.363,-1245.24 213.521,-1253.86 217.553,-1248.14"/>
</g>
<!-- UROS -->
<g id="node80" class="node"><title>UROS</title>
<ellipse fill="none" stroke="black" cx="843.28" cy="-937.81" rx="18" ry="18"/>
<text text-anchor="middle" x="843.28" y="-936.61" font-family="Times,serif" font-size="4.00">UROS</text>
</g>
<!-- UROS&#45;&gt;URO3 -->
<g id="edge148" class="edge"><title>UROS&#45;&gt;URO3</title>
<path fill="none" stroke="black" d="M843.28,-919.536C843.28,-909.313 843.28,-896.133 843.28,-884.527"/>
<polygon fill="black" stroke="black" points="846.78,-884.442 843.28,-874.442 839.78,-884.442 846.78,-884.442"/>
</g>
<!-- FLVCR1&#45;1 -->
<g id="node82" class="node"><title>FLVCR1&#45;1</title>
<ellipse fill="none" stroke="black" cx="1104.28" cy="-634.243" rx="18.6233" ry="18.6233"/>
<text text-anchor="middle" x="1104.28" y="-633.043" font-family="Times,serif" font-size="4.00">FLVCR1&#45;1</text>
</g>
<!-- FLVCR1&#45;1&#45;&gt;Heme -->
<g id="edge149" class="edge"><title>FLVCR1&#45;1&#45;&gt;Heme</title>
<path fill="none" stroke="black" d="M1115.47,-619.323C1124.55,-608.019 1137.52,-591.883 1147.95,-578.91"/>
<polygon fill="black" stroke="black" points="1150.83,-580.911 1154.37,-570.924 1145.38,-576.526 1150.83,-580.911"/>
</g>
<!-- Bilirubin&#45;&gt;ALB/BIL -->
<g id="edge150" class="edge"><title>Bilirubin&#45;&gt;ALB/BIL</title>
<path fill="none" stroke="black" d="M1999.29,-381.061C1995.87,-371.731 1991.52,-359.835 1987.66,-349.295"/>
<polygon fill="black" stroke="black" points="1990.89,-347.92 1984.16,-339.732 1984.31,-350.326 1990.89,-347.92"/>
</g>
<!-- Neddylated CUL3_RBX1&#45;&gt;Ubiquitin Ligase Complex -->
<g id="edge151" class="edge"><title>Neddylated CUL3_RBX1&#45;&gt;Ubiquitin Ligase Complex</title>
<path fill="none" stroke="black" d="M235.77,-1298.77C227.012,-1286.62 216.537,-1272.1 207.06,-1258.96"/>
<polygon fill="black" stroke="black" points="209.692,-1256.62 201.004,-1250.56 204.015,-1260.72 209.692,-1256.62"/>
</g>
<!-- SUCC&#45;CoA -->
<g id="node85" class="node"><title>SUCC&#45;CoA</title>
<ellipse fill="none" stroke="black" cx="915.28" cy="-556.347" rx="20.3062" ry="20.3062"/>
<text text-anchor="middle" x="915.28" y="-555.147" font-family="Times,serif" font-size="4.00">SUCC&#45;CoA</text>
</g>
<!-- SUCC&#45;CoA&#45;&gt;CoA&#45;SH -->
<g id="edge152" class="edge"><title>SUCC&#45;CoA&#45;&gt;CoA&#45;SH</title>
<path fill="none" stroke="black" d="M916.188,-536.158C917.866,-514.721 922.649,-479.483 936.28,-452.465 959.642,-406.158 1004.12,-363.821 1030.7,-341.097"/>
<polygon fill="black" stroke="black" points="1033.24,-343.537 1038.65,-334.428 1028.74,-338.174 1033.24,-343.537"/>
</g>
<!-- SUCC&#45;CoA&#45;&gt;dALA -->
<g id="edge153" class="edge"><title>SUCC&#45;CoA&#45;&gt;dALA</title>
<path fill="none" stroke="black" d="M925.46,-538.464C932.369,-527.005 941.596,-511.702 949.206,-499.08"/>
<polygon fill="black" stroke="black" points="952.24,-500.827 954.406,-490.456 946.245,-497.213 952.24,-500.827"/>
</g>
<!-- SUCC&#45;CoA&#45;&gt;CO2 -->
<g id="edge154" class="edge"><title>SUCC&#45;CoA&#45;&gt;CO2</title>
<path fill="none" stroke="black" d="M906.862,-537.933C887.152,-497.159 837.958,-395.395 815.189,-348.294"/>
<polygon fill="black" stroke="black" points="818.255,-346.594 810.751,-339.114 811.953,-349.641 818.255,-346.594"/>
</g>
<!-- BLVRB&#45;&gt;NADP+ -->
<g id="edge155" class="edge"><title>BLVRB&#45;&gt;NADP+</title>
<path fill="none" stroke="black" d="M1931.26,-466.205C1903.82,-453.298 1847.6,-426.859 1814.73,-411.404"/>
<polygon fill="black" stroke="black" points="1815.88,-408.076 1805.34,-406.987 1812.9,-414.41 1815.88,-408.076"/>
</g>
<!-- BLVRB&#45;&gt;Bilirubin -->
<g id="edge156" class="edge"><title>BLVRB&#45;&gt;Bilirubin</title>
<path fill="none" stroke="black" d="M1957.92,-460.11C1966.37,-449.285 1978.35,-433.933 1988.15,-421.381"/>
<polygon fill="black" stroke="black" points="1991.12,-423.264 1994.51,-413.227 1985.6,-418.957 1991.12,-423.264"/>
</g>
<!-- H+&#45;&gt;H2O -->
<g id="edge157" class="edge"><title>H+&#45;&gt;H2O</title>
<path fill="none" stroke="black" d="M660.868,-414.26C644.678,-441.228 613.28,-500.588 613.28,-555.347 613.28,-635.243 613.28,-635.243 613.28,-635.243 613.28,-805.889 670.12,-873.068 816.28,-961.145 901.532,-1012.52 1022.13,-1027.13 1076.17,-1031.2"/>
<polygon fill="black" stroke="black" points="1076.15,-1034.71 1086.36,-1031.9 1076.63,-1027.72 1076.15,-1034.71"/>
</g>
<!-- H+&#45;&gt;Fe(3+)O(OH) -->
<g id="edge159" class="edge"><title>H+&#45;&gt;Fe(3+)O(OH)</title>
<path fill="none" stroke="black" d="M652.354,-395.266C567.127,-384.958 202.466,-340.855 92.0714,-327.504"/>
<polygon fill="black" stroke="black" points="92.2565,-324.001 81.9086,-326.275 91.416,-330.95 92.2565,-324.001"/>
</g>
<!-- H+&#45;&gt;CoA&#45;SH -->
<g id="edge160" class="edge"><title>H+&#45;&gt;CoA&#45;SH</title>
<path fill="none" stroke="black" d="M687.939,-394.023C748.916,-382.247 950.926,-343.233 1024.86,-328.954"/>
<polygon fill="black" stroke="black" points="1025.65,-332.366 1034.81,-327.033 1024.33,-325.493 1025.65,-332.366"/>
</g>
<!-- H+&#45;&gt;dALA -->
<g id="edge161" class="edge"><title>H+&#45;&gt;dALA</title>
<path fill="none" stroke="black" d="M687.83,-403.089C737.398,-414.551 877.466,-449.969 936.604,-465.87"/>
<polygon fill="black" stroke="black" points="935.777,-469.272 946.344,-468.514 937.61,-462.516 935.777,-469.272"/>
</g>
<!-- H+&#45;&gt;Fe3+ -->
<g id="edge158" class="edge"><title>H+&#45;&gt;Fe3+</title>
<path fill="none" stroke="black" d="M652.769,-393.04C603.44,-380.661 463.056,-345.434 403.512,-330.492"/>
<polygon fill="black" stroke="black" points="404.25,-327.069 393.699,-328.03 402.546,-333.858 404.25,-327.069"/>
</g>
<!-- H+&#45;&gt;CO2 -->
<g id="edge162" class="edge"><title>H+&#45;&gt;CO2</title>
<path fill="none" stroke="black" d="M685.797,-388.826C708.722,-376.11 751.849,-352.188 778.988,-337.133"/>
<polygon fill="black" stroke="black" points="780.815,-340.123 787.862,-332.211 777.419,-334.001 780.815,-340.123"/>
</g>
<!-- FTL&#45;&gt;Ferritin -->
<g id="edge163" class="edge"><title>FTL&#45;&gt;Ferritin</title>
<path fill="none" stroke="black" d="M495.477,-1315.1C485.413,-1307.79 471.162,-1298.46 457.28,-1292.88 382.388,-1262.78 347.79,-1299.55 279.28,-1256.88 274.591,-1253.96 270.406,-1249.91 266.811,-1245.61"/>
<polygon fill="black" stroke="black" points="269.393,-1243.21 260.65,-1237.22 263.752,-1247.35 269.393,-1243.21"/>
</g>
</g>
</svg>
