<?xml version="1.0" encoding="UTF-8" standalone="no"?>
<!DOCTYPE svg PUBLIC "-//W3C//DTD SVG 1.1//EN"
 "http://www.w3.org/Graphics/SVG/1.1/DTD/svg11.dtd">
<!-- Generated by graphviz version 2.38.0 (20140413.2041)
 -->
<!-- Title: G Pages: 1 -->
<svg width="1055pt" height="811pt"
 viewBox="0.00 0.00 1055.00 811.42" xmlns="http://www.w3.org/2000/svg" xmlns:xlink="http://www.w3.org/1999/xlink">
<g id="graph0" class="graph" transform="scale(1 1) rotate(0) translate(4 807.418)">
<title>G</title>
<polygon fill="white" stroke="none" points="-4,4 -4,-807.418 1051,-807.418 1051,4 -4,4"/>
<!-- SOCS1 -->
<g id="node1" class="node"><title>SOCS1</title>
<ellipse fill="none" stroke="black" cx="18" cy="-185.428" rx="18" ry="18"/>
<text text-anchor="middle" x="18" y="-184.228" font-family="Times,serif" font-size="4.00">SOCS1</text>
</g>
<!-- receptor complex -->
<g id="node15" class="node"><title>receptor complex</title>
<ellipse fill="none" stroke="black" cx="71" cy="-98.5165" rx="26.533" ry="26.533"/>
<text text-anchor="middle" x="71" y="-97.3165" font-family="Times,serif" font-size="4.00">receptor complex</text>
</g>
<!-- SOCS1&#45;&gt;receptor complex -->
<g id="edge1" class="edge"><title>SOCS1&#45;&gt;receptor complex</title>
<path fill="none" stroke="black" d="M27.2319,-169.638C34.0439,-158.724 43.5524,-143.49 51.9671,-130.009"/>
<polygon fill="black" stroke="black" points="54.9736,-131.803 57.2995,-121.466 49.0354,-128.096 54.9736,-131.803"/>
</g>
<!-- 80S ribosome -->
<g id="node2" class="node"><title>80S ribosome</title>
<ellipse fill="none" stroke="black" cx="608" cy="-457.831" rx="22.6101" ry="22.6101"/>
<text text-anchor="middle" x="608" y="-456.631" font-family="Times,serif" font-size="4.00">80S ribosome</text>
</g>
<!-- antiviral proteins -->
<g id="node8" class="node"><title>antiviral proteins</title>
<ellipse fill="none" stroke="black" cx="607" cy="-351.827" rx="26.533" ry="26.533"/>
<text text-anchor="middle" x="607" y="-350.627" font-family="Times,serif" font-size="4.00">antiviral proteins</text>
</g>
<!-- 80S ribosome&#45;&gt;antiviral proteins -->
<g id="edge3" class="edge"><title>80S ribosome&#45;&gt;antiviral proteins</title>
<path fill="none" stroke="black" d="M607.788,-434.774C607.659,-421.403 607.492,-404.024 607.345,-388.713"/>
<polygon fill="black" stroke="black" points="610.843,-388.485 607.247,-378.519 603.843,-388.552 610.843,-388.485"/>
</g>
<!-- IFNs -->
<g id="node29" class="node"><title>IFNs</title>
<ellipse fill="none" stroke="black" cx="543" cy="-351.827" rx="18" ry="18"/>
<text text-anchor="middle" x="543" y="-350.627" font-family="Times,serif" font-size="4.00">IFNs</text>
</g>
<!-- 80S ribosome&#45;&gt;IFNs -->
<g id="edge2" class="edge"><title>80S ribosome&#45;&gt;IFNs</title>
<path fill="none" stroke="black" d="M596.078,-437.755C585.23,-420.397 569.185,-394.725 557.578,-376.153"/>
<polygon fill="black" stroke="black" points="560.389,-374.047 552.121,-367.422 554.453,-377.757 560.389,-374.047"/>
</g>
<!-- inhibited 80S ribosome -->
<g id="node43" class="node"><title>inhibited 80S ribosome</title>
<ellipse fill="none" stroke="black" cx="755" cy="-351.827" rx="32.7614" ry="32.7614"/>
<text text-anchor="middle" x="755" y="-350.627" font-family="Times,serif" font-size="4.00">inhibited 80S ribosome</text>
</g>
<!-- 80S ribosome&#45;&gt;inhibited 80S ribosome -->
<g id="edge4" class="edge"><title>80S ribosome&#45;&gt;inhibited 80S ribosome</title>
<path fill="none" stroke="black" d="M626.32,-443.869C649.717,-427.315 690.693,-398.324 720.126,-377.501"/>
<polygon fill="black" stroke="black" points="722.335,-380.225 728.477,-371.593 718.292,-374.511 722.335,-380.225"/>
</g>
<!-- RNA -->
<g id="node3" class="node"><title>RNA</title>
<ellipse fill="none" stroke="black" cx="339" cy="-784.327" rx="18" ry="18"/>
<text text-anchor="middle" x="339" y="-783.127" font-family="Times,serif" font-size="4.00">RNA</text>
</g>
<!-- dsRNA -->
<g id="node42" class="node"><title>dsRNA</title>
<ellipse fill="none" stroke="black" cx="339" cy="-689.99" rx="18" ry="18"/>
<text text-anchor="middle" x="339" y="-688.79" font-family="Times,serif" font-size="4.00">dsRNA</text>
</g>
<!-- RNA&#45;&gt;dsRNA -->
<g id="edge5" class="edge"><title>RNA&#45;&gt;dsRNA</title>
<path fill="none" stroke="black" d="M339,-765.959C339,-752.546 339,-733.733 339,-718.309"/>
<polygon fill="black" stroke="black" points="342.5,-718.28 339,-708.28 335.5,-718.28 342.5,-718.28"/>
</g>
<!-- TBK1 -->
<g id="node4" class="node"><title>TBK1</title>
<ellipse fill="none" stroke="black" cx="18" cy="-572.85" rx="18" ry="18"/>
<text text-anchor="middle" x="18" y="-571.65" font-family="Times,serif" font-size="4.00">TBK1</text>
</g>
<!-- IKK&#45;TBK1 -->
<g id="node41" class="node"><title>IKK&#45;TBK1</title>
<ellipse fill="none" stroke="black" cx="72" cy="-457.831" rx="19.1842" ry="19.1842"/>
<text text-anchor="middle" x="72" y="-456.631" font-family="Times,serif" font-size="4.00">IKK&#45;TBK1</text>
</g>
<!-- TBK1&#45;&gt;IKK&#45;TBK1 -->
<g id="edge6" class="edge"><title>TBK1&#45;&gt;IKK&#45;TBK1</title>
<path fill="none" stroke="black" d="M25.5085,-556.135C34.344,-537.643 49.1422,-506.671 59.669,-484.639"/>
<polygon fill="black" stroke="black" points="62.8753,-486.046 64.0285,-475.514 56.5592,-483.029 62.8753,-486.046"/>
</g>
<!-- ISGs -->
<g id="node5" class="node"><title>ISGs</title>
<ellipse fill="none" stroke="black" cx="542" cy="-457.831" rx="18" ry="18"/>
<text text-anchor="middle" x="542" y="-456.631" font-family="Times,serif" font-size="4.00">ISGs</text>
</g>
<!-- ISGs&#45;&gt;antiviral proteins -->
<g id="edge8" class="edge"><title>ISGs&#45;&gt;antiviral proteins</title>
<path fill="none" stroke="black" d="M551.313,-441.929C560.768,-426.801 575.686,-402.931 587.703,-383.704"/>
<polygon fill="black" stroke="black" points="590.829,-385.306 593.16,-374.971 584.893,-381.596 590.829,-385.306"/>
</g>
<!-- ISGs&#45;&gt;IFNs -->
<g id="edge7" class="edge"><title>ISGs&#45;&gt;IFNs</title>
<path fill="none" stroke="black" d="M542.165,-439.656C542.321,-423.472 542.556,-398.959 542.738,-380.101"/>
<polygon fill="black" stroke="black" points="546.238,-380.06 542.835,-370.027 539.239,-379.992 546.238,-380.06"/>
</g>
<!-- M&#45;protein_ membrane&#45;bound -->
<g id="node6" class="node"><title>M&#45;protein_ membrane&#45;bound</title>
<ellipse fill="none" stroke="black" cx="258" cy="-572.85" rx="38.3684" ry="38.3684"/>
<text text-anchor="middle" x="258" y="-571.65" font-family="Times,serif" font-size="4.00">M&#45;protein_ membrane&#45;bound</text>
</g>
<!-- RIG&#45;1 M&#45;Protein -->
<g id="node45" class="node"><title>RIG&#45;1 M&#45;Protein</title>
<ellipse fill="none" stroke="black" cx="256" cy="-457.831" rx="25.4118" ry="25.4118"/>
<text text-anchor="middle" x="256" y="-456.631" font-family="Times,serif" font-size="4.00">RIG&#45;1 M&#45;Protein</text>
</g>
<!-- M&#45;protein_ membrane&#45;bound&#45;&gt;RIG&#45;1 M&#45;Protein -->
<g id="edge9" class="edge"><title>M&#45;protein_ membrane&#45;bound&#45;&gt;RIG&#45;1 M&#45;Protein</title>
<path fill="none" stroke="black" d="M257.34,-534.53C257.107,-521.369 256.846,-506.632 256.617,-493.684"/>
<polygon fill="black" stroke="black" points="260.11,-493.237 256.433,-483.301 253.111,-493.361 260.11,-493.237"/>
</g>
<!-- viral RNA+N&#45;methyl&#45;Guanine -->
<g id="node7" class="node"><title>viral RNA+N&#45;methyl&#45;Guanine</title>
<ellipse fill="none" stroke="black" cx="948" cy="-689.99" rx="39.4904" ry="39.4904"/>
<text text-anchor="middle" x="948" y="-688.79" font-family="Times,serif" font-size="4.00">viral RNA+N&#45;methyl&#45;Guanine</text>
</g>
<!-- 5&#39;cap&#45;viral&#45;RNA -->
<g id="node17" class="node"><title>5&#39;cap&#45;viral&#45;RNA</title>
<ellipse fill="none" stroke="black" cx="911" cy="-572.85" rx="24.8513" ry="24.8513"/>
<text text-anchor="middle" x="911" y="-571.65" font-family="Times,serif" font-size="4.00">5&#39;cap&#45;viral&#45;RNA</text>
</g>
<!-- viral RNA+N&#45;methyl&#45;Guanine&#45;&gt;5&#39;cap&#45;viral&#45;RNA -->
<g id="edge10" class="edge"><title>viral RNA+N&#45;methyl&#45;Guanine&#45;&gt;5&#39;cap&#45;viral&#45;RNA</title>
<path fill="none" stroke="black" d="M936.191,-652.242C931.494,-637.626 926.132,-620.939 921.566,-606.729"/>
<polygon fill="black" stroke="black" points="924.794,-605.334 918.402,-596.884 918.129,-607.475 924.794,-605.334"/>
</g>
<!-- STAT3 -->
<g id="node9" class="node"><title>STAT3</title>
<ellipse fill="none" stroke="black" cx="776" cy="-689.99" rx="18" ry="18"/>
<text text-anchor="middle" x="776" y="-688.79" font-family="Times,serif" font-size="4.00">STAT3</text>
</g>
<!-- Inhibited ISGF3 precursor? -->
<g id="node35" class="node"><title>Inhibited ISGF3 precursor?</title>
<ellipse fill="none" stroke="black" cx="776" cy="-572.85" rx="36.125" ry="36.125"/>
<text text-anchor="middle" x="776" y="-571.65" font-family="Times,serif" font-size="4.00">Inhibited ISGF3 precursor?</text>
</g>
<!-- STAT3&#45;&gt;Inhibited ISGF3 precursor? -->
<g id="edge11" class="edge"><title>STAT3&#45;&gt;Inhibited ISGF3 precursor?</title>
<path fill="none" stroke="black" d="M776,-671.503C776,-657.66 776,-637.679 776,-619.393"/>
<polygon fill="black" stroke="black" points="779.5,-619.171 776,-609.171 772.5,-619.171 779.5,-619.171"/>
</g>
<!-- viral RNA -->
<g id="node10" class="node"><title>viral RNA</title>
<ellipse fill="none" stroke="black" cx="920" cy="-784.327" rx="19.1842" ry="19.1842"/>
<text text-anchor="middle" x="920" y="-783.127" font-family="Times,serif" font-size="4.00">viral RNA</text>
</g>
<!-- viral RNA&#45;&gt;viral RNA+N&#45;methyl&#45;Guanine -->
<g id="edge12" class="edge"><title>viral RNA&#45;&gt;viral RNA+N&#45;methyl&#45;Guanine</title>
<path fill="none" stroke="black" d="M925.267,-765.959C927.74,-757.803 930.818,-747.652 933.903,-737.479"/>
<polygon fill="black" stroke="black" points="937.29,-738.37 936.843,-727.785 930.591,-736.339 937.29,-738.37"/>
</g>
<!-- IFN&#45;sensitive&#45;response&#45;element -->
<g id="node11" class="node"><title>IFN&#45;sensitive&#45;response&#45;element</title>
<ellipse fill="none" stroke="black" cx="462" cy="-572.85" rx="41.7924" ry="41.7924"/>
<text text-anchor="middle" x="462" y="-571.65" font-family="Times,serif" font-size="4.00">IFN&#45;sensitive&#45;response&#45;element</text>
</g>
<!-- IFN&#45;sensitive&#45;response&#45;element&#45;&gt;ISGs -->
<g id="edge13" class="edge"><title>IFN&#45;sensitive&#45;response&#45;element&#45;&gt;ISGs</title>
<path fill="none" stroke="black" d="M485.786,-538.246C498.766,-519.909 514.487,-497.699 526,-481.434"/>
<polygon fill="black" stroke="black" points="528.998,-483.256 531.919,-473.072 523.285,-479.212 528.998,-483.256"/>
</g>
<!-- IRF1 -->
<g id="node12" class="node"><title>IRF1</title>
<ellipse fill="none" stroke="black" cx="187" cy="-264.385" rx="18" ry="18"/>
<text text-anchor="middle" x="187" y="-263.185" font-family="Times,serif" font-size="4.00">IRF1</text>
</g>
<!-- IFN&#45;III -->
<g id="node20" class="node"><title>IFN&#45;III</title>
<ellipse fill="none" stroke="black" cx="134" cy="-98.5165" rx="18" ry="18"/>
<text text-anchor="middle" x="134" y="-97.3165" font-family="Times,serif" font-size="4.00">IFN&#45;III</text>
</g>
<!-- IRF1&#45;&gt;IFN&#45;III -->
<g id="edge14" class="edge"><title>IRF1&#45;&gt;IFN&#45;III</title>
<path fill="none" stroke="black" d="M184.974,-246.332C182.19,-225.694 176.313,-190.095 166,-161.033 161.345,-147.915 154.367,-134.098 148.114,-122.889"/>
<polygon fill="black" stroke="black" points="151.115,-121.087 143.099,-114.159 145.045,-124.574 151.115,-121.087"/>
</g>
<!-- ISGF3 precursor -->
<g id="node13" class="node"><title>ISGF3 precursor</title>
<ellipse fill="none" stroke="black" cx="658" cy="-689.99" rx="24.8513" ry="24.8513"/>
<text text-anchor="middle" x="658" y="-688.79" font-family="Times,serif" font-size="4.00">ISGF3 precursor</text>
</g>
<!-- ISGF3 -->
<g id="node18" class="node"><title>ISGF3</title>
<ellipse fill="none" stroke="black" cx="540" cy="-572.85" rx="18" ry="18"/>
<text text-anchor="middle" x="540" y="-571.65" font-family="Times,serif" font-size="4.00">ISGF3</text>
</g>
<!-- ISGF3 precursor&#45;&gt;ISGF3 -->
<g id="edge15" class="edge"><title>ISGF3 precursor&#45;&gt;ISGF3</title>
<path fill="none" stroke="black" d="M637.701,-675.187C618.204,-661.325 588.603,-638.645 567,-614.746 562.357,-609.61 557.938,-603.607 554.069,-597.807"/>
<polygon fill="black" stroke="black" points="556.803,-595.582 548.49,-589.014 550.892,-599.333 556.803,-595.582"/>
</g>
<!-- ISGF3 precursor&#45;&gt;Inhibited ISGF3 precursor? -->
<g id="edge16" class="edge"><title>ISGF3 precursor&#45;&gt;Inhibited ISGF3 precursor?</title>
<path fill="none" stroke="black" d="M675.411,-672.001C693.267,-654.578 721.461,-627.067 743.463,-605.598"/>
<polygon fill="black" stroke="black" points="745.95,-608.061 750.663,-598.572 741.062,-603.051 745.95,-608.061"/>
</g>
<!-- Riplet / TRIM25 -->
<g id="node14" class="node"><title>Riplet / TRIM25</title>
<ellipse fill="none" stroke="black" cx="154" cy="-689.99" rx="25.4118" ry="25.4118"/>
<text text-anchor="middle" x="154" y="-688.79" font-family="Times,serif" font-size="4.00">Riplet / TRIM25</text>
</g>
<!-- RIG&#45;I -->
<g id="node30" class="node"><title>RIG&#45;I</title>
<ellipse fill="none" stroke="black" cx="184" cy="-572.85" rx="18" ry="18"/>
<text text-anchor="middle" x="184" y="-571.65" font-family="Times,serif" font-size="4.00">RIG&#45;I</text>
</g>
<!-- Riplet / TRIM25&#45;&gt;RIG&#45;I -->
<g id="edge17" class="edge"><title>Riplet / TRIM25&#45;&gt;RIG&#45;I</title>
<path fill="none" stroke="black" d="M160.216,-665.133C165.133,-646.261 171.995,-619.926 177.085,-600.39"/>
<polygon fill="black" stroke="black" points="180.502,-601.157 179.636,-590.598 173.728,-599.392 180.502,-601.157"/>
</g>
<!-- IFNL -->
<g id="node36" class="node"><title>IFNL</title>
<ellipse fill="none" stroke="black" cx="71" cy="-18" rx="18" ry="18"/>
<text text-anchor="middle" x="71" y="-16.8" font-family="Times,serif" font-size="4.00">IFNL</text>
</g>
<!-- receptor complex&#45;&gt;IFNL -->
<g id="edge18" class="edge"><title>receptor complex&#45;&gt;IFNL</title>
<path fill="none" stroke="black" d="M64.6719,-72.6734C64.1408,-63.9855 64.1111,-54.2039 64.583,-45.394"/>
<polygon fill="black" stroke="black" points="68.0842,-45.5197 65.4073,-35.2687 61.1073,-44.9517 68.0842,-45.5197"/>
</g>
<!-- IKK -->
<g id="node16" class="node"><title>IKK</title>
<ellipse fill="none" stroke="black" cx="72" cy="-572.85" rx="18" ry="18"/>
<text text-anchor="middle" x="72" y="-571.65" font-family="Times,serif" font-size="4.00">IKK</text>
</g>
<!-- IKK&#45;&gt;IKK&#45;TBK1 -->
<g id="edge19" class="edge"><title>IKK&#45;&gt;IKK&#45;TBK1</title>
<path fill="none" stroke="black" d="M72,-554.685C72,-536.829 72,-508.57 72,-487.353"/>
<polygon fill="black" stroke="black" points="75.5001,-487.286 72,-477.286 68.5001,-487.286 75.5001,-487.286"/>
</g>
<!-- ISGF3&#45;&gt;ISGs -->
<g id="edge20" class="edge"><title>ISGF3&#45;&gt;ISGs</title>
<path fill="none" stroke="black" d="M540.304,-554.685C540.625,-536.512 541.138,-507.563 541.515,-486.23"/>
<polygon fill="black" stroke="black" points="545.016,-486.218 541.693,-476.157 538.017,-486.094 545.016,-486.218"/>
</g>
<!-- STAT1 -->
<g id="node19" class="node"><title>STAT1</title>
<ellipse fill="none" stroke="black" cx="631" cy="-784.327" rx="18" ry="18"/>
<text text-anchor="middle" x="631" y="-783.127" font-family="Times,serif" font-size="4.00">STAT1</text>
</g>
<!-- STAT1&#45;&gt;ISGF3 precursor -->
<g id="edge21" class="edge"><title>STAT1&#45;&gt;ISGF3 precursor</title>
<path fill="none" stroke="black" d="M635.827,-766.819C639.302,-754.933 644.108,-738.5 648.357,-723.969"/>
<polygon fill="black" stroke="black" points="651.739,-724.873 651.186,-714.292 645.02,-722.908 651.739,-724.873"/>
</g>
<!-- IFN&#45;III&#45;&gt;IFNL -->
<g id="edge22" class="edge"><title>IFN&#45;III&#45;&gt;IFNL</title>
<path fill="none" stroke="black" d="M123.026,-83.84C113.45,-71.9057 99.3922,-54.385 88.3026,-40.5641"/>
<polygon fill="black" stroke="black" points="90.8362,-38.1291 81.848,-32.5198 85.3764,-42.5099 90.8362,-38.1291"/>
</g>
<!-- RIG&#45;I&#45;MAVS -->
<g id="node21" class="node"><title>RIG&#45;I&#45;MAVS</title>
<ellipse fill="none" stroke="black" cx="160" cy="-351.827" rx="21.9898" ry="21.9898"/>
<text text-anchor="middle" x="160" y="-350.627" font-family="Times,serif" font-size="4.00">RIG&#45;I&#45;MAVS</text>
</g>
<!-- RIG&#45;I&#45;MAVS&#45;&gt;IRF1 -->
<g id="edge23" class="edge"><title>RIG&#45;I&#45;MAVS&#45;&gt;IRF1</title>
<path fill="none" stroke="black" d="M166.399,-330.578C170.078,-318.935 174.741,-304.179 178.7,-291.651"/>
<polygon fill="black" stroke="black" points="182.147,-292.359 181.823,-281.769 175.472,-290.25 182.147,-292.359"/>
</g>
<!-- IRF3 -->
<g id="node33" class="node"><title>IRF3</title>
<ellipse fill="none" stroke="black" cx="133" cy="-264.385" rx="18" ry="18"/>
<text text-anchor="middle" x="133" y="-263.185" font-family="Times,serif" font-size="4.00">IRF3</text>
</g>
<!-- RIG&#45;I&#45;MAVS&#45;&gt;IRF3 -->
<g id="edge24" class="edge"><title>RIG&#45;I&#45;MAVS&#45;&gt;IRF3</title>
<path fill="none" stroke="black" d="M153.601,-330.578C149.922,-318.935 145.259,-304.179 141.3,-291.651"/>
<polygon fill="black" stroke="black" points="144.528,-290.25 138.177,-281.769 137.853,-292.359 144.528,-290.25"/>
</g>
<!-- SOCS3 -->
<g id="node22" class="node"><title>SOCS3</title>
<ellipse fill="none" stroke="black" cx="72" cy="-185.428" rx="18" ry="18"/>
<text text-anchor="middle" x="72" y="-184.228" font-family="Times,serif" font-size="4.00">SOCS3</text>
</g>
<!-- SOCS3&#45;&gt;receptor complex -->
<g id="edge25" class="edge"><title>SOCS3&#45;&gt;receptor complex</title>
<path fill="none" stroke="black" d="M71.7976,-167.245C71.6895,-158.064 71.5522,-146.404 71.4221,-135.357"/>
<polygon fill="black" stroke="black" points="74.9184,-135.012 71.3008,-125.054 67.9189,-135.095 74.9184,-135.012"/>
</g>
<!-- inhibited ribosomal 40S SU -->
<g id="node23" class="node"><title>inhibited ribosomal 40S SU</title>
<ellipse fill="none" stroke="black" cx="713" cy="-457.831" rx="37.2466" ry="37.2466"/>
<text text-anchor="middle" x="713" y="-456.631" font-family="Times,serif" font-size="4.00">inhibited ribosomal 40S SU</text>
</g>
<!-- PLPro -->
<g id="node24" class="node"><title>PLPro</title>
<ellipse fill="none" stroke="black" cx="215" cy="-689.99" rx="18" ry="18"/>
<text text-anchor="middle" x="215" y="-688.79" font-family="Times,serif" font-size="4.00">PLPro</text>
</g>
<!-- PLPro&#45;&gt;RIG&#45;I -->
<g id="edge26" class="edge"><title>PLPro&#45;&gt;RIG&#45;I</title>
<path fill="none" stroke="black" d="M210.558,-672.493C205.471,-653.598 197.067,-622.384 191.076,-600.13"/>
<polygon fill="black" stroke="black" points="194.413,-599.062 188.433,-590.316 187.654,-600.882 194.413,-599.062"/>
</g>
<!-- p38&#45;NFkB -->
<g id="node25" class="node"><title>p38&#45;NFkB</title>
<ellipse fill="none" stroke="black" cx="78" cy="-264.385" rx="18.6233" ry="18.6233"/>
<text text-anchor="middle" x="78" y="-263.185" font-family="Times,serif" font-size="4.00">p38&#45;NFkB</text>
</g>
<!-- p38&#45;NFkB&#45;IRF3 -->
<g id="node37" class="node"><title>p38&#45;NFkB&#45;IRF3</title>
<ellipse fill="none" stroke="black" cx="133" cy="-185.428" rx="24.2908" ry="24.2908"/>
<text text-anchor="middle" x="133" y="-184.228" font-family="Times,serif" font-size="4.00">p38&#45;NFkB&#45;IRF3</text>
</g>
<!-- p38&#45;NFkB&#45;&gt;p38&#45;NFkB&#45;IRF3 -->
<g id="edge27" class="edge"><title>p38&#45;NFkB&#45;&gt;p38&#45;NFkB&#45;IRF3</title>
<path fill="none" stroke="black" d="M88.3451,-248.91C95.3562,-239.1 104.844,-225.824 113.272,-214.032"/>
<polygon fill="black" stroke="black" points="116.203,-215.95 119.17,-205.779 110.508,-211.88 116.203,-215.95"/>
</g>
<!-- ribosomal 40S subunit -->
<g id="node26" class="node"><title>ribosomal 40S subunit</title>
<ellipse fill="none" stroke="black" cx="690" cy="-572.85" rx="31.6406" ry="31.6406"/>
<text text-anchor="middle" x="690" y="-571.65" font-family="Times,serif" font-size="4.00">ribosomal 40S subunit</text>
</g>
<!-- ribosomal 40S subunit&#45;&gt;80S ribosome -->
<g id="edge29" class="edge"><title>ribosomal 40S subunit&#45;&gt;80S ribosome</title>
<path fill="none" stroke="black" d="M671.598,-546.486C658.309,-528.17 640.414,-503.506 626.991,-485.006"/>
<polygon fill="black" stroke="black" points="629.692,-482.769 620.987,-476.73 624.026,-486.879 629.692,-482.769"/>
</g>
<!-- ribosomal 40S subunit&#45;&gt;inhibited ribosomal 40S SU -->
<g id="edge28" class="edge"><title>ribosomal 40S subunit&#45;&gt;inhibited ribosomal 40S SU</title>
<path fill="none" stroke="black" d="M696.164,-541.563C698.494,-530.109 701.201,-516.808 703.754,-504.265"/>
<polygon fill="black" stroke="black" points="707.193,-504.916 705.758,-494.418 700.334,-503.52 707.193,-504.916"/>
</g>
<!-- viral nsp1 -->
<g id="node27" class="node"><title>viral nsp1</title>
<ellipse fill="none" stroke="black" cx="849" cy="-572.85" rx="19.1842" ry="19.1842"/>
<text text-anchor="middle" x="849" y="-571.65" font-family="Times,serif" font-size="4.00">viral nsp1</text>
</g>
<!-- viral nsp1&#45;&gt;inhibited ribosomal 40S SU -->
<g id="edge30" class="edge"><title>viral nsp1&#45;&gt;inhibited ribosomal 40S SU</title>
<path fill="none" stroke="black" d="M839.907,-555.633C834.955,-547.652 828.343,-538.213 821,-530.954 801.357,-511.537 775.784,-494.188 754.453,-481.374"/>
<polygon fill="black" stroke="black" points="755.995,-478.22 745.601,-476.167 752.446,-484.254 755.995,-478.22"/>
</g>
<!-- viral nsp1&#45;&gt;inhibited 80S ribosome -->
<g id="edge31" class="edge"><title>viral nsp1&#45;&gt;inhibited 80S ribosome</title>
<path fill="none" stroke="black" d="M841.78,-555.027C826.868,-520.281 792.33,-439.807 771.603,-391.513"/>
<polygon fill="black" stroke="black" points="774.812,-390.116 767.652,-382.307 768.38,-392.876 774.812,-390.116"/>
</g>
<!-- dsRNA_vesicle -->
<g id="node28" class="node"><title>dsRNA_vesicle</title>
<ellipse fill="none" stroke="black" cx="339" cy="-572.85" rx="24.8512" ry="24.8513"/>
<text text-anchor="middle" x="339" y="-571.65" font-family="Times,serif" font-size="4.00">dsRNA_vesicle</text>
</g>
<!-- dsRNA_vesicle&#45;&gt;dsRNA -->
<g id="edge32" class="edge"><title>dsRNA_vesicle&#45;&gt;dsRNA</title>
<path fill="none" stroke="black" d="M344.577,-597.511C346.065,-616.38 346.137,-642.8 344.793,-662.398"/>
<polygon fill="black" stroke="black" points="341.295,-662.224 343.901,-672.493 348.268,-662.84 341.295,-662.224"/>
</g>
<!-- RIG&#45;I&#45;mitoMAVS -->
<g id="node44" class="node"><title>RIG&#45;I&#45;mitoMAVS</title>
<ellipse fill="none" stroke="black" cx="160" cy="-457.831" rx="26.533" ry="26.533"/>
<text text-anchor="middle" x="160" y="-456.631" font-family="Times,serif" font-size="4.00">RIG&#45;I&#45;mitoMAVS</text>
</g>
<!-- RIG&#45;I&#45;&gt;RIG&#45;I&#45;mitoMAVS -->
<g id="edge34" class="edge"><title>RIG&#45;I&#45;&gt;RIG&#45;I&#45;mitoMAVS</title>
<path fill="none" stroke="black" d="M180.459,-555.173C177.045,-539.1 171.774,-514.278 167.438,-493.855"/>
<polygon fill="black" stroke="black" points="170.834,-492.999 165.333,-483.944 163.987,-494.453 170.834,-492.999"/>
</g>
<!-- RIG&#45;I&#45;&gt;RIG&#45;1 M&#45;Protein -->
<g id="edge33" class="edge"><title>RIG&#45;I&#45;&gt;RIG&#45;1 M&#45;Protein</title>
<path fill="none" stroke="black" d="M193.413,-557.074C204.468,-539.72 223.083,-510.501 237.144,-488.428"/>
<polygon fill="black" stroke="black" points="240.244,-490.076 242.666,-479.762 234.341,-486.315 240.244,-490.076"/>
</g>
<!-- nsp14 -->
<g id="node31" class="node"><title>nsp14</title>
<ellipse fill="none" stroke="black" cx="975" cy="-784.327" rx="18" ry="18"/>
<text text-anchor="middle" x="975" y="-783.127" font-family="Times,serif" font-size="4.00">nsp14</text>
</g>
<!-- nsp14&#45;&gt;viral RNA+N&#45;methyl&#45;Guanine -->
<g id="edge35" class="edge"><title>nsp14&#45;&gt;viral RNA+N&#45;methyl&#45;Guanine</title>
<path fill="none" stroke="black" d="M970.173,-766.819C967.782,-758.642 964.762,-748.313 961.726,-737.932"/>
<polygon fill="black" stroke="black" points="964.997,-736.647 958.831,-728.031 958.279,-738.612 964.997,-736.647"/>
</g>
<!-- IRF9 -->
<g id="node32" class="node"><title>IRF9</title>
<ellipse fill="none" stroke="black" cx="540" cy="-689.99" rx="18" ry="18"/>
<text text-anchor="middle" x="540" y="-688.79" font-family="Times,serif" font-size="4.00">IRF9</text>
</g>
<!-- IRF9&#45;&gt;ISGF3 -->
<g id="edge36" class="edge"><title>IRF9&#45;&gt;ISGF3</title>
<path fill="none" stroke="black" d="M540,-671.503C540,-652.882 540,-623.154 540,-601.385"/>
<polygon fill="black" stroke="black" points="543.5,-601.124 540,-591.124 536.5,-601.124 543.5,-601.124"/>
</g>
<!-- IRF3&#45;&gt;p38&#45;NFkB&#45;IRF3 -->
<g id="edge37" class="edge"><title>IRF3&#45;&gt;p38&#45;NFkB&#45;IRF3</title>
<path fill="none" stroke="black" d="M133,-246.306C133,-238.52 133,-229.02 133,-219.901"/>
<polygon fill="black" stroke="black" points="136.5,-219.88 133,-209.88 129.5,-219.88 136.5,-219.88"/>
</g>
<!-- nsp16 -->
<g id="node34" class="node"><title>nsp16</title>
<ellipse fill="none" stroke="black" cx="873" cy="-689.99" rx="18" ry="18"/>
<text text-anchor="middle" x="873" y="-688.79" font-family="Times,serif" font-size="4.00">nsp16</text>
</g>
<!-- nsp16&#45;&gt;5&#39;cap&#45;viral&#45;RNA -->
<g id="edge38" class="edge"><title>nsp16&#45;&gt;5&#39;cap&#45;viral&#45;RNA</title>
<path fill="none" stroke="black" d="M878.444,-672.493C884.114,-655.315 893.143,-627.958 900.255,-606.406"/>
<polygon fill="black" stroke="black" points="903.659,-607.26 903.47,-596.667 897.012,-605.066 903.659,-607.26"/>
</g>
<!-- IFNL&#45;&gt;receptor complex -->
<g id="edge39" class="edge"><title>IFNL&#45;&gt;receptor complex</title>
<path fill="none" stroke="black" d="M76.5927,-35.2687C77.5014,-43.2 77.875,-53.0643 77.7134,-62.585"/>
<polygon fill="black" stroke="black" points="74.2124,-62.5471 77.3281,-72.6734 81.2073,-62.8143 74.2124,-62.5471"/>
</g>
<!-- p38&#45;NFkB&#45;IRF3&#45;&gt;IFN&#45;III -->
<g id="edge40" class="edge"><title>p38&#45;NFkB&#45;IRF3&#45;&gt;IFN&#45;III</title>
<path fill="none" stroke="black" d="M133.279,-160.776C133.403,-150.25 133.549,-137.791 133.678,-126.867"/>
<polygon fill="black" stroke="black" points="137.181,-126.624 133.799,-116.583 130.181,-126.541 137.181,-126.624"/>
</g>
<!-- mitoMAVS -->
<g id="node38" class="node"><title>mitoMAVS</title>
<ellipse fill="none" stroke="black" cx="128" cy="-572.85" rx="20.3063" ry="20.3062"/>
<text text-anchor="middle" x="128" y="-571.65" font-family="Times,serif" font-size="4.00">mitoMAVS</text>
</g>
<!-- mitoMAVS&#45;&gt;RIG&#45;I&#45;mitoMAVS -->
<g id="edge41" class="edge"><title>mitoMAVS&#45;&gt;RIG&#45;I&#45;mitoMAVS</title>
<path fill="none" stroke="black" d="M133.284,-553.187C137.88,-536.956 144.658,-513.017 150.237,-493.313"/>
<polygon fill="black" stroke="black" points="153.67,-494.034 153.027,-483.459 146.935,-492.127 153.67,-494.034"/>
</g>
<!-- STAT2 -->
<g id="node39" class="node"><title>STAT2</title>
<ellipse fill="none" stroke="black" cx="685" cy="-784.327" rx="18" ry="18"/>
<text text-anchor="middle" x="685" y="-783.127" font-family="Times,serif" font-size="4.00">STAT2</text>
</g>
<!-- STAT2&#45;&gt;ISGF3 precursor -->
<g id="edge42" class="edge"><title>STAT2&#45;&gt;ISGF3 precursor</title>
<path fill="none" stroke="black" d="M680.173,-766.819C676.698,-754.933 671.892,-738.5 667.643,-723.969"/>
<polygon fill="black" stroke="black" points="670.98,-722.908 664.814,-714.292 664.261,-724.873 670.98,-722.908"/>
</g>
<!-- ribosomal 60S subunit -->
<g id="node40" class="node"><title>ribosomal 60S subunit</title>
<ellipse fill="none" stroke="black" cx="608" cy="-572.85" rx="31.6406" ry="31.6406"/>
<text text-anchor="middle" x="608" y="-571.65" font-family="Times,serif" font-size="4.00">ribosomal 60S subunit</text>
</g>
<!-- ribosomal 60S subunit&#45;&gt;80S ribosome -->
<g id="edge43" class="edge"><title>ribosomal 60S subunit&#45;&gt;80S ribosome</title>
<path fill="none" stroke="black" d="M608,-540.967C608,-525.461 608,-506.689 608,-491.007"/>
<polygon fill="black" stroke="black" points="611.5,-490.722 608,-480.722 604.5,-490.722 611.5,-490.722"/>
</g>
<!-- IKK&#45;TBK1&#45;&gt;RIG&#45;I&#45;MAVS -->
<g id="edge44" class="edge"><title>IKK&#45;TBK1&#45;&gt;RIG&#45;I&#45;MAVS</title>
<path fill="none" stroke="black" d="M83.8681,-442.804C98.1983,-425.868 122.527,-397.115 139.823,-376.673"/>
<polygon fill="black" stroke="black" points="142.512,-378.913 146.3,-369.019 137.169,-374.392 142.512,-378.913"/>
</g>
<!-- dsRNA&#45;&gt;RIG&#45;I&#45;MAVS -->
<g id="edge46" class="edge"><title>dsRNA&#45;&gt;RIG&#45;I&#45;MAVS</title>
<path fill="none" stroke="black" d="M348.035,-674.301C356.395,-659.783 368.227,-636.631 373,-614.746 380.935,-578.36 384.809,-566.273 373,-530.954 353.552,-472.787 336.777,-460.375 290,-420.707 259.561,-394.895 217.659,-375.243 189.743,-363.885"/>
<polygon fill="black" stroke="black" points="190.725,-360.509 180.139,-360.08 188.146,-367.017 190.725,-360.509"/>
</g>
<!-- dsRNA&#45;&gt;dsRNA_vesicle -->
<g id="edge45" class="edge"><title>dsRNA&#45;&gt;dsRNA_vesicle</title>
<path fill="none" stroke="black" d="M334.099,-672.493C332.196,-655.607 331.762,-628.883 332.797,-607.508"/>
<polygon fill="black" stroke="black" points="336.291,-607.71 333.423,-597.511 329.304,-607.272 336.291,-607.71"/>
</g>
<!-- dsRNA&#45;&gt;RIG&#45;I -->
<g id="edge47" class="edge"><title>dsRNA&#45;&gt;RIG&#45;I</title>
<path fill="none" stroke="black" d="M322.478,-682.374C296.463,-671.35 245.378,-647.189 211,-614.746 205.762,-609.802 201.035,-603.656 197.055,-597.644"/>
<polygon fill="black" stroke="black" points="200.009,-595.765 191.785,-589.085 194.048,-599.435 200.009,-595.765"/>
</g>
<!-- RIG&#45;I&#45;mitoMAVS&#45;&gt;RIG&#45;I&#45;MAVS -->
<g id="edge48" class="edge"><title>RIG&#45;I&#45;mitoMAVS&#45;&gt;RIG&#45;I&#45;MAVS</title>
<path fill="none" stroke="black" d="M160,-431.122C160,-416.891 160,-399.095 160,-384.067"/>
<polygon fill="black" stroke="black" points="163.5,-383.704 160,-373.704 156.5,-383.704 163.5,-383.704"/>
</g>
<!-- MDA5 -->
<g id="node46" class="node"><title>MDA5</title>
<ellipse fill="none" stroke="black" cx="1029" cy="-784.327" rx="18" ry="18"/>
<text text-anchor="middle" x="1029" y="-783.127" font-family="Times,serif" font-size="4.00">MDA5</text>
</g>
</g>
</svg>
