<?xml version="1.0" encoding="UTF-8" standalone="no"?>
<!DOCTYPE svg PUBLIC "-//W3C//DTD SVG 1.1//EN"
 "http://www.w3.org/Graphics/SVG/1.1/DTD/svg11.dtd">
<!-- Generated by graphviz version 2.38.0 (20140413.2041)
 -->
<!-- Title: G Pages: 1 -->
<svg width="1147pt" height="875pt"
 viewBox="0.00 0.00 1147.00 874.93" xmlns="http://www.w3.org/2000/svg" xmlns:xlink="http://www.w3.org/1999/xlink">
<g id="graph0" class="graph" transform="scale(1 1) rotate(0) translate(4 870.933)">
<title>G</title>
<polygon fill="white" stroke="none" points="-4,4 -4,-870.933 1143,-870.933 1143,4 -4,4"/>
<!-- p38&#45;NFkB -->
<g id="node1" class="node"><title>p38&#45;NFkB</title>
<ellipse fill="none" stroke="black" cx="383" cy="-255.9" rx="18.6233" ry="18.6233"/>
<text text-anchor="middle" x="383" y="-254.7" font-family="Times,serif" font-size="4.00">p38&#45;NFkB</text>
</g>
<!-- IFN&#45;III -->
<g id="node26" class="node"><title>IFN&#45;III</title>
<ellipse fill="none" stroke="black" cx="355" cy="-183.338" rx="18" ry="18"/>
<text text-anchor="middle" x="355" y="-182.138" font-family="Times,serif" font-size="4.00">IFN&#45;III</text>
</g>
<!-- p38&#45;NFkB&#45;&gt;IFN&#45;III -->
<g id="edge1" class="edge"><title>p38&#45;NFkB&#45;&gt;IFN&#45;III</title>
<path fill="none" stroke="black" d="M376.364,-238.178C373.004,-229.708 368.851,-219.245 365.104,-209.801"/>
<polygon fill="black" stroke="black" points="368.337,-208.458 361.395,-200.454 361.83,-211.04 368.337,-208.458"/>
</g>
<!-- M -->
<g id="node2" class="node"><title>M</title>
<ellipse fill="none" stroke="black" cx="18" cy="-753.505" rx="18" ry="18"/>
<text text-anchor="middle" x="18" y="-752.305" font-family="Times,serif" font-size="4.00">M</text>
</g>
<!-- RIG&#45;1 M&#45;Protein -->
<g id="node15" class="node"><title>RIG&#45;1 M&#45;Protein</title>
<ellipse fill="none" stroke="black" cx="45" cy="-636.364" rx="25.4118" ry="25.4118"/>
<text text-anchor="middle" x="45" y="-635.164" font-family="Times,serif" font-size="4.00">RIG&#45;1 M&#45;Protein</text>
</g>
<!-- M&#45;&gt;RIG&#45;1 M&#45;Protein -->
<g id="edge2" class="edge"><title>M&#45;&gt;RIG&#45;1 M&#45;Protein</title>
<path fill="none" stroke="black" d="M21.9839,-735.516C25.9423,-718.635 32.1214,-692.285 37.0809,-671.135"/>
<polygon fill="black" stroke="black" points="40.527,-671.77 39.4025,-661.235 33.7118,-670.172 40.527,-671.77"/>
</g>
<!-- IRF9 -->
<g id="node3" class="node"><title>IRF9</title>
<ellipse fill="none" stroke="black" cx="609" cy="-753.505" rx="18" ry="18"/>
<text text-anchor="middle" x="609" y="-752.305" font-family="Times,serif" font-size="4.00">IRF9</text>
</g>
<!-- ISGF3 -->
<g id="node28" class="node"><title>ISGF3</title>
<ellipse fill="none" stroke="black" cx="609" cy="-636.364" rx="18" ry="18"/>
<text text-anchor="middle" x="609" y="-635.164" font-family="Times,serif" font-size="4.00">ISGF3</text>
</g>
<!-- IRF9&#45;&gt;ISGF3 -->
<g id="edge3" class="edge"><title>IRF9&#45;&gt;ISGF3</title>
<path fill="none" stroke="black" d="M609,-735.018C609,-716.397 609,-686.669 609,-664.899"/>
<polygon fill="black" stroke="black" points="612.5,-664.639 609,-654.639 605.5,-664.639 612.5,-664.639"/>
</g>
<!-- STAT1 -->
<g id="node4" class="node"><title>STAT1</title>
<ellipse fill="none" stroke="black" cx="727" cy="-847.841" rx="18" ry="18"/>
<text text-anchor="middle" x="727" y="-846.641" font-family="Times,serif" font-size="4.00">STAT1</text>
</g>
<!-- ISGF3 precursor -->
<g id="node5" class="node"><title>ISGF3 precursor</title>
<ellipse fill="none" stroke="black" cx="754" cy="-753.505" rx="24.8513" ry="24.8513"/>
<text text-anchor="middle" x="754" y="-752.305" font-family="Times,serif" font-size="4.00">ISGF3 precursor</text>
</g>
<!-- STAT1&#45;&gt;ISGF3 precursor -->
<g id="edge4" class="edge"><title>STAT1&#45;&gt;ISGF3 precursor</title>
<path fill="none" stroke="black" d="M731.827,-830.333C735.302,-818.448 740.108,-802.014 744.357,-787.484"/>
<polygon fill="black" stroke="black" points="747.739,-788.388 747.186,-777.807 741.02,-786.423 747.739,-788.388"/>
</g>
<!-- Inhibited ISGF3 precursor -->
<g id="node14" class="node"><title>Inhibited ISGF3 precursor</title>
<ellipse fill="none" stroke="black" cx="898" cy="-636.364" rx="35.0036" ry="35.0036"/>
<text text-anchor="middle" x="898" y="-635.164" font-family="Times,serif" font-size="4.00">Inhibited ISGF3 precursor</text>
</g>
<!-- ISGF3 precursor&#45;&gt;Inhibited ISGF3 precursor -->
<g id="edge6" class="edge"><title>ISGF3 precursor&#45;&gt;Inhibited ISGF3 precursor</title>
<path fill="none" stroke="black" d="M774.035,-738.617C794.582,-724.147 827.234,-700.521 854,-678.26 857.909,-675.01 861.925,-671.514 865.865,-667.984"/>
<polygon fill="black" stroke="black" points="868.265,-670.532 873.301,-661.211 863.551,-665.357 868.265,-670.532"/>
</g>
<!-- ISGF3 precursor&#45;&gt;ISGF3 -->
<g id="edge5" class="edge"><title>ISGF3 precursor&#45;&gt;ISGF3</title>
<path fill="none" stroke="black" d="M731.607,-742.073C706.305,-729.51 664.893,-706.527 636,-678.26 631.051,-673.419 626.52,-667.523 622.642,-661.733"/>
<polygon fill="black" stroke="black" points="625.383,-659.514 617.118,-652.886 619.446,-663.222 625.383,-659.514"/>
</g>
<!-- ISGs -->
<g id="node6" class="node"><title>ISGs</title>
<ellipse fill="none" stroke="black" cx="611" cy="-521.345" rx="18" ry="18"/>
<text text-anchor="middle" x="611" y="-520.145" font-family="Times,serif" font-size="4.00">ISGs</text>
</g>
<!-- IFNs -->
<g id="node20" class="node"><title>IFNs</title>
<ellipse fill="none" stroke="black" cx="676" cy="-415.342" rx="18" ry="18"/>
<text text-anchor="middle" x="676" y="-414.142" font-family="Times,serif" font-size="4.00">IFNs</text>
</g>
<!-- ISGs&#45;&gt;IFNs -->
<g id="edge7" class="edge"><title>ISGs&#45;&gt;IFNs</title>
<path fill="none" stroke="black" d="M620.313,-505.444C631.028,-488.299 648.761,-459.926 661.334,-439.808"/>
<polygon fill="black" stroke="black" points="664.372,-441.55 666.704,-431.215 658.436,-437.84 664.372,-441.55"/>
</g>
<!-- antiviral proteins -->
<g id="node38" class="node"><title>antiviral proteins</title>
<ellipse fill="none" stroke="black" cx="612" cy="-415.342" rx="26.533" ry="26.533"/>
<text text-anchor="middle" x="612" y="-414.142" font-family="Times,serif" font-size="4.00">antiviral proteins</text>
</g>
<!-- ISGs&#45;&gt;antiviral proteins -->
<g id="edge8" class="edge"><title>ISGs&#45;&gt;antiviral proteins</title>
<path fill="none" stroke="black" d="M611.165,-503.171C611.297,-489.411 611.488,-469.629 611.653,-452.422"/>
<polygon fill="black" stroke="black" points="615.156,-452.15 611.752,-442.117 608.156,-452.083 615.156,-452.15"/>
</g>
<!-- receptor complex -->
<g id="node7" class="node"><title>receptor complex</title>
<ellipse fill="none" stroke="black" cx="327" cy="-26.5165" rx="26.533" ry="26.533"/>
<text text-anchor="middle" x="327" y="-25.3165" font-family="Times,serif" font-size="4.00">receptor complex</text>
</g>
<!-- Ifn lambda -->
<g id="node46" class="node"><title>Ifn lambda</title>
<ellipse fill="none" stroke="black" cx="355" cy="-109.186" rx="20.3062" ry="20.3063"/>
<text text-anchor="middle" x="355" y="-107.986" font-family="Times,serif" font-size="4.00">Ifn lambda</text>
</g>
<!-- receptor complex&#45;&gt;Ifn lambda -->
<g id="edge9" class="edge"><title>receptor complex&#45;&gt;Ifn lambda</title>
<path fill="none" stroke="black" d="M340.684,-49.4232C344.549,-58.5156 348.404,-69.1995 351.369,-78.9461"/>
<polygon fill="black" stroke="black" points="348.023,-79.979 354.1,-88.6578 354.762,-78.0837 348.023,-79.979"/>
</g>
<!-- nsp16 -->
<g id="node8" class="node"><title>nsp16</title>
<ellipse fill="none" stroke="black" cx="964" cy="-753.505" rx="18" ry="18"/>
<text text-anchor="middle" x="964" y="-752.305" font-family="Times,serif" font-size="4.00">nsp16</text>
</g>
<!-- 5&#39;cap&#45;viral&#45;RNA -->
<g id="node22" class="node"><title>5&#39;cap&#45;viral&#45;RNA</title>
<ellipse fill="none" stroke="black" cx="1007" cy="-636.364" rx="24.8512" ry="24.8513"/>
<text text-anchor="middle" x="1007" y="-635.164" font-family="Times,serif" font-size="4.00">5&#39;cap&#45;viral&#45;RNA</text>
</g>
<!-- nsp16&#45;&gt;5&#39;cap&#45;viral&#45;RNA -->
<g id="edge10" class="edge"><title>nsp16&#45;&gt;5&#39;cap&#45;viral&#45;RNA</title>
<path fill="none" stroke="black" d="M969.979,-736.495C976.423,-719.241 986.849,-691.321 994.998,-669.502"/>
<polygon fill="black" stroke="black" points="998.339,-670.559 998.559,-659.967 991.782,-668.11 998.339,-670.559"/>
</g>
<!-- Riplet_TRIM25 -->
<g id="node9" class="node"><title>Riplet_TRIM25</title>
<ellipse fill="none" stroke="black" cx="132" cy="-753.505" rx="24.2908" ry="24.2908"/>
<text text-anchor="middle" x="132" y="-752.305" font-family="Times,serif" font-size="4.00">Riplet_TRIM25</text>
</g>
<!-- RIG&#45;I_dsRNA -->
<g id="node10" class="node"><title>RIG&#45;I_dsRNA</title>
<ellipse fill="none" stroke="black" cx="180" cy="-636.364" rx="22.6101" ry="22.6101"/>
<text text-anchor="middle" x="180" y="-635.164" font-family="Times,serif" font-size="4.00">RIG&#45;I_dsRNA</text>
</g>
<!-- Riplet_TRIM25&#45;&gt;RIG&#45;I_dsRNA -->
<g id="edge11" class="edge"><title>Riplet_TRIM25&#45;&gt;RIG&#45;I_dsRNA</title>
<path fill="none" stroke="black" d="M141.141,-730.577C148.634,-712.604 159.312,-686.989 167.58,-667.158"/>
<polygon fill="black" stroke="black" points="170.919,-668.243 171.536,-657.667 164.458,-665.55 170.919,-668.243"/>
</g>
<!-- RIG&#45;I&#45;mitoMAVS -->
<g id="node29" class="node"><title>RIG&#45;I&#45;mitoMAVS</title>
<ellipse fill="none" stroke="black" cx="298" cy="-521.345" rx="26.533" ry="26.533"/>
<text text-anchor="middle" x="298" y="-520.145" font-family="Times,serif" font-size="4.00">RIG&#45;I&#45;mitoMAVS</text>
</g>
<!-- RIG&#45;I_dsRNA&#45;&gt;RIG&#45;I&#45;mitoMAVS -->
<g id="edge12" class="edge"><title>RIG&#45;I_dsRNA&#45;&gt;RIG&#45;I&#45;mitoMAVS</title>
<path fill="none" stroke="black" d="M192.934,-617.182C198.48,-609.841 205.233,-601.469 212,-594.468 229.691,-576.167 251.719,-557.765 269.052,-544.129"/>
<polygon fill="black" stroke="black" points="271.397,-546.74 277.144,-537.839 267.101,-541.213 271.397,-546.74"/>
</g>
<!-- SOCS3 -->
<g id="node11" class="node"><title>SOCS3</title>
<ellipse fill="none" stroke="black" cx="245" cy="-109.186" rx="18" ry="18"/>
<text text-anchor="middle" x="245" y="-107.986" font-family="Times,serif" font-size="4.00">SOCS3</text>
</g>
<!-- SOCS3&#45;&gt;receptor complex -->
<g id="edge13" class="edge"><title>SOCS3&#45;&gt;receptor complex</title>
<path fill="none" stroke="black" d="M257.454,-95.9337C268.976,-84.5986 286.469,-67.3892 301.028,-53.0665"/>
<polygon fill="black" stroke="black" points="303.653,-55.3943 308.327,-45.8862 298.744,-50.4042 303.653,-55.3943"/>
</g>
<!-- RIG&#45;I -->
<g id="node12" class="node"><title>RIG&#45;I</title>
<ellipse fill="none" stroke="black" cx="72" cy="-753.505" rx="18" ry="18"/>
<text text-anchor="middle" x="72" y="-752.305" font-family="Times,serif" font-size="4.00">RIG&#45;I</text>
</g>
<!-- RIG&#45;I&#45;&gt;RIG&#45;I_dsRNA -->
<g id="edge14" class="edge"><title>RIG&#45;I&#45;&gt;RIG&#45;I_dsRNA</title>
<path fill="none" stroke="black" d="M81.3622,-737.838C86.2886,-730.502 92.62,-721.637 99,-714.26 116.441,-694.095 138.514,-673.408 155.211,-658.577"/>
<polygon fill="black" stroke="black" points="157.729,-661.024 162.933,-651.795 153.11,-655.765 157.729,-661.024"/>
</g>
<!-- RIG&#45;I&#45;&gt;RIG&#45;1 M&#45;Protein -->
<g id="edge15" class="edge"><title>RIG&#45;I&#45;&gt;RIG&#45;1 M&#45;Protein</title>
<path fill="none" stroke="black" d="M68.0161,-735.516C64.0577,-718.635 57.8786,-692.285 52.9191,-671.135"/>
<polygon fill="black" stroke="black" points="56.2882,-670.172 50.5975,-661.235 49.473,-671.77 56.2882,-670.172"/>
</g>
<!-- TBK1 -->
<g id="node13" class="node"><title>TBK1</title>
<ellipse fill="none" stroke="black" cx="399" cy="-636.364" rx="18" ry="18"/>
<text text-anchor="middle" x="399" y="-635.164" font-family="Times,serif" font-size="4.00">TBK1</text>
</g>
<!-- IKK&#45;TBK1 -->
<g id="node40" class="node"><title>IKK&#45;TBK1</title>
<ellipse fill="none" stroke="black" cx="400" cy="-521.345" rx="19.1842" ry="19.1842"/>
<text text-anchor="middle" x="400" y="-520.145" font-family="Times,serif" font-size="4.00">IKK&#45;TBK1</text>
</g>
<!-- TBK1&#45;&gt;IKK&#45;TBK1 -->
<g id="edge16" class="edge"><title>TBK1&#45;&gt;IKK&#45;TBK1</title>
<path fill="none" stroke="black" d="M399.152,-618.199C399.31,-600.344 399.56,-572.085 399.748,-550.867"/>
<polygon fill="black" stroke="black" points="403.248,-550.831 399.837,-540.801 396.248,-550.769 403.248,-550.831"/>
</g>
<!-- 80S ribosome -->
<g id="node16" class="node"><title>80S ribosome</title>
<ellipse fill="none" stroke="black" cx="677" cy="-521.345" rx="22.6101" ry="22.6101"/>
<text text-anchor="middle" x="677" y="-520.145" font-family="Times,serif" font-size="4.00">80S ribosome</text>
</g>
<!-- inhibited 80S ribosome -->
<g id="node19" class="node"><title>inhibited 80S ribosome</title>
<ellipse fill="none" stroke="black" cx="786" cy="-415.342" rx="32.7614" ry="32.7614"/>
<text text-anchor="middle" x="786" y="-414.142" font-family="Times,serif" font-size="4.00">inhibited 80S ribosome</text>
</g>
<!-- 80S ribosome&#45;&gt;inhibited 80S ribosome -->
<g id="edge17" class="edge"><title>80S ribosome&#45;&gt;inhibited 80S ribosome</title>
<path fill="none" stroke="black" d="M692.786,-504.815C699.325,-498.412 707.004,-490.934 714,-484.222 727.243,-471.517 741.972,-457.595 754.639,-445.684"/>
<polygon fill="black" stroke="black" points="757.335,-447.953 762.229,-438.556 752.543,-442.851 757.335,-447.953"/>
</g>
<!-- 80S ribosome&#45;&gt;IFNs -->
<g id="edge18" class="edge"><title>80S ribosome&#45;&gt;IFNs</title>
<path fill="none" stroke="black" d="M676.788,-498.289C676.636,-482.441 676.429,-460.964 676.266,-443.973"/>
<polygon fill="black" stroke="black" points="679.762,-443.525 676.166,-433.559 672.762,-443.593 679.762,-443.525"/>
</g>
<!-- 80S ribosome&#45;&gt;antiviral proteins -->
<g id="edge19" class="edge"><title>80S ribosome&#45;&gt;antiviral proteins</title>
<path fill="none" stroke="black" d="M665.078,-501.269C655.59,-486.088 642.127,-464.547 631.135,-446.959"/>
<polygon fill="black" stroke="black" points="633.914,-444.801 625.646,-438.176 627.978,-448.511 633.914,-444.801"/>
</g>
<!-- MAVS -->
<g id="node17" class="node"><title>MAVS</title>
<ellipse fill="none" stroke="black" cx="307" cy="-636.364" rx="18" ry="18"/>
<text text-anchor="middle" x="307" y="-635.164" font-family="Times,serif" font-size="4.00">MAVS</text>
</g>
<!-- MAVS&#45;&gt;RIG&#45;I&#45;mitoMAVS -->
<g id="edge20" class="edge"><title>MAVS&#45;&gt;RIG&#45;I&#45;mitoMAVS</title>
<path fill="none" stroke="black" d="M305.633,-618.199C304.368,-602.318 302.448,-578.208 300.851,-558.141"/>
<polygon fill="black" stroke="black" points="304.332,-557.772 300.049,-548.082 297.354,-558.328 304.332,-557.772"/>
</g>
<!-- viral RNA+N&#45;methyl&#45;Guanine -->
<g id="node18" class="node"><title>viral RNA+N&#45;methyl&#45;Guanine</title>
<ellipse fill="none" stroke="black" cx="1039" cy="-753.505" rx="39.4904" ry="39.4904"/>
<text text-anchor="middle" x="1039" y="-752.305" font-family="Times,serif" font-size="4.00">viral RNA+N&#45;methyl&#45;Guanine</text>
</g>
<!-- viral RNA+N&#45;methyl&#45;Guanine&#45;&gt;5&#39;cap&#45;viral&#45;RNA -->
<g id="edge21" class="edge"><title>viral RNA+N&#45;methyl&#45;Guanine&#45;&gt;5&#39;cap&#45;viral&#45;RNA</title>
<path fill="none" stroke="black" d="M1028.7,-715.44C1024.67,-700.945 1020.09,-684.456 1016.17,-670.377"/>
<polygon fill="black" stroke="black" points="1019.51,-669.313 1013.46,-660.615 1012.77,-671.187 1019.51,-669.313"/>
</g>
<!-- IFIH1 -->
<g id="node21" class="node"><title>IFIH1</title>
<ellipse fill="none" stroke="black" cx="1121" cy="-847.841" rx="18" ry="18"/>
<text text-anchor="middle" x="1121" y="-846.641" font-family="Times,serif" font-size="4.00">IFIH1</text>
</g>
<!-- IFN&#45;sensitive&#45;response&#45;element -->
<g id="node23" class="node"><title>IFN&#45;sensitive&#45;response&#45;element</title>
<ellipse fill="none" stroke="black" cx="531" cy="-636.364" rx="41.7924" ry="41.7924"/>
<text text-anchor="middle" x="531" y="-635.164" font-family="Times,serif" font-size="4.00">IFN&#45;sensitive&#45;response&#45;element</text>
</g>
<!-- IFN&#45;sensitive&#45;response&#45;element&#45;&gt;ISGs -->
<g id="edge22" class="edge"><title>IFN&#45;sensitive&#45;response&#45;element&#45;&gt;ISGs</title>
<path fill="none" stroke="black" d="M554.786,-601.761C567.766,-583.424 583.487,-561.213 595,-544.949"/>
<polygon fill="black" stroke="black" points="597.998,-546.771 600.919,-536.587 592.285,-542.727 597.998,-546.771"/>
</g>
<!-- IRF1 -->
<g id="node24" class="node"><title>IRF1</title>
<ellipse fill="none" stroke="black" cx="328" cy="-255.9" rx="18" ry="18"/>
<text text-anchor="middle" x="328" y="-254.7" font-family="Times,serif" font-size="4.00">IRF1</text>
</g>
<!-- IRF1&#45;&gt;IFN&#45;III -->
<g id="edge23" class="edge"><title>IRF1&#45;&gt;IFN&#45;III</title>
<path fill="none" stroke="black" d="M334.127,-238.888C337.406,-230.317 341.523,-219.558 345.232,-209.865"/>
<polygon fill="black" stroke="black" points="348.593,-210.877 348.898,-200.286 342.055,-208.375 348.593,-210.877"/>
</g>
<!-- RIG&#45;I&#45;MAVS -->
<g id="node25" class="node"><title>RIG&#45;I&#45;MAVS</title>
<ellipse fill="none" stroke="black" cx="353" cy="-415.342" rx="21.9898" ry="21.9898"/>
<text text-anchor="middle" x="353" y="-414.142" font-family="Times,serif" font-size="4.00">RIG&#45;I&#45;MAVS</text>
</g>
<!-- RIG&#45;I&#45;MAVS&#45;&gt;IRF1 -->
<g id="edge24" class="edge"><title>RIG&#45;I&#45;MAVS&#45;&gt;IRF1</title>
<path fill="none" stroke="black" d="M349.732,-393.759C345.28,-365.724 337.299,-315.461 332.347,-284.273"/>
<polygon fill="black" stroke="black" points="335.757,-283.432 330.732,-274.105 328.844,-284.53 335.757,-283.432"/>
</g>
<!-- IRF3 -->
<g id="node37" class="node"><title>IRF3</title>
<ellipse fill="none" stroke="black" cx="380" cy="-328.461" rx="18" ry="18"/>
<text text-anchor="middle" x="380" y="-327.261" font-family="Times,serif" font-size="4.00">IRF3</text>
</g>
<!-- RIG&#45;I&#45;MAVS&#45;&gt;IRF3 -->
<g id="edge25" class="edge"><title>RIG&#45;I&#45;MAVS&#45;&gt;IRF3</title>
<path fill="none" stroke="black" d="M359.399,-394.226C363.078,-382.66 367.741,-368 371.7,-355.555"/>
<polygon fill="black" stroke="black" points="375.127,-356.328 374.823,-345.738 368.456,-354.206 375.127,-356.328"/>
</g>
<!-- IFN&#45;III&#45;&gt;Ifn lambda -->
<g id="edge26" class="edge"><title>IFN&#45;III&#45;&gt;Ifn lambda</title>
<path fill="none" stroke="black" d="M355,-165.239C355,-157.595 355,-148.363 355,-139.661"/>
<polygon fill="black" stroke="black" points="358.5,-139.451 355,-129.451 351.5,-139.452 358.5,-139.451"/>
</g>
<!-- RNA -->
<g id="node27" class="node"><title>RNA</title>
<ellipse fill="none" stroke="black" cx="246" cy="-847.841" rx="18" ry="18"/>
<text text-anchor="middle" x="246" y="-846.641" font-family="Times,serif" font-size="4.00">RNA</text>
</g>
<!-- dsRNA -->
<g id="node33" class="node"><title>dsRNA</title>
<ellipse fill="none" stroke="black" cx="246" cy="-753.505" rx="18" ry="18"/>
<text text-anchor="middle" x="246" y="-752.305" font-family="Times,serif" font-size="4.00">dsRNA</text>
</g>
<!-- RNA&#45;&gt;dsRNA -->
<g id="edge27" class="edge"><title>RNA&#45;&gt;dsRNA</title>
<path fill="none" stroke="black" d="M246,-829.473C246,-816.061 246,-797.248 246,-781.824"/>
<polygon fill="black" stroke="black" points="249.5,-781.795 246,-771.795 242.5,-781.795 249.5,-781.795"/>
</g>
<!-- ISGF3&#45;&gt;ISGs -->
<g id="edge28" class="edge"><title>ISGF3&#45;&gt;ISGs</title>
<path fill="none" stroke="black" d="M609.304,-618.199C609.625,-600.027 610.138,-571.078 610.515,-549.744"/>
<polygon fill="black" stroke="black" points="614.016,-549.732 610.693,-539.672 607.017,-549.608 614.016,-549.732"/>
</g>
<!-- RIG&#45;I&#45;mitoMAVS&#45;&gt;RIG&#45;I&#45;MAVS -->
<g id="edge29" class="edge"><title>RIG&#45;I&#45;mitoMAVS&#45;&gt;RIG&#45;I&#45;MAVS</title>
<path fill="none" stroke="black" d="M310.07,-497.521C318.37,-481.826 329.443,-460.887 338.264,-444.207"/>
<polygon fill="black" stroke="black" points="341.579,-445.426 343.16,-434.949 335.391,-442.153 341.579,-445.426"/>
</g>
<!-- inhibited ribosomal 40S SU -->
<g id="node30" class="node"><title>inhibited ribosomal 40S SU</title>
<ellipse fill="none" stroke="black" cx="760" cy="-521.345" rx="37.2466" ry="37.2466"/>
<text text-anchor="middle" x="760" y="-520.145" font-family="Times,serif" font-size="4.00">inhibited ribosomal 40S SU</text>
</g>
<!-- SOCS1 -->
<g id="node31" class="node"><title>SOCS1</title>
<ellipse fill="none" stroke="black" cx="299" cy="-109.186" rx="18" ry="18"/>
<text text-anchor="middle" x="299" y="-107.986" font-family="Times,serif" font-size="4.00">SOCS1</text>
</g>
<!-- SOCS1&#45;&gt;receptor complex -->
<g id="edge30" class="edge"><title>SOCS1&#45;&gt;receptor complex</title>
<path fill="none" stroke="black" d="M304.666,-91.861C307.725,-83.0489 311.618,-71.8329 315.294,-61.2418"/>
<polygon fill="black" stroke="black" points="318.606,-62.3728 318.579,-51.778 311.993,-60.0774 318.606,-62.3728"/>
</g>
<!-- Nsp1 -->
<g id="node32" class="node"><title>Nsp1</title>
<ellipse fill="none" stroke="black" cx="827" cy="-636.364" rx="18" ry="18"/>
<text text-anchor="middle" x="827" y="-635.164" font-family="Times,serif" font-size="4.00">Nsp1</text>
</g>
<!-- Nsp1&#45;&gt;inhibited 80S ribosome -->
<g id="edge32" class="edge"><title>Nsp1&#45;&gt;inhibited 80S ribosome</title>
<path fill="none" stroke="black" d="M825.433,-617.991C822.695,-589.729 816.327,-532.132 806,-484.222 804.063,-475.234 801.549,-465.701 798.961,-456.708"/>
<polygon fill="black" stroke="black" points="802.235,-455.435 796.035,-446.843 795.524,-457.426 802.235,-455.435"/>
</g>
<!-- Nsp1&#45;&gt;inhibited ribosomal 40S SU -->
<g id="edge31" class="edge"><title>Nsp1&#45;&gt;inhibited ribosomal 40S SU</title>
<path fill="none" stroke="black" d="M818.241,-620.589C809.528,-605.891 795.769,-582.682 783.812,-562.512"/>
<polygon fill="black" stroke="black" points="786.754,-560.612 778.644,-553.795 780.733,-564.181 786.754,-560.612"/>
</g>
<!-- dsRNA&#45;&gt;RIG&#45;I_dsRNA -->
<g id="edge34" class="edge"><title>dsRNA&#45;&gt;RIG&#45;I_dsRNA</title>
<path fill="none" stroke="black" d="M237.372,-737.452C226.93,-719.237 209.134,-688.189 196.124,-665.494"/>
<polygon fill="black" stroke="black" points="199.061,-663.58 191.052,-656.644 192.988,-667.061 199.061,-663.58"/>
</g>
<!-- dsRNA&#45;&gt;RIG&#45;I&#45;MAVS -->
<g id="edge33" class="edge"><title>dsRNA&#45;&gt;RIG&#45;I&#45;MAVS</title>
<path fill="none" stroke="black" d="M261.731,-744.469C282.425,-732.944 318.03,-709.607 334,-678.26 372.644,-602.409 365.024,-497.87 358.069,-446.842"/>
<polygon fill="black" stroke="black" points="361.511,-446.189 356.612,-436.795 354.584,-447.194 361.511,-446.189"/>
</g>
<!-- dsRNA_vesicle -->
<g id="node43" class="node"><title>dsRNA_vesicle</title>
<ellipse fill="none" stroke="black" cx="246" cy="-636.364" rx="24.8512" ry="24.8513"/>
<text text-anchor="middle" x="246" y="-635.164" font-family="Times,serif" font-size="4.00">dsRNA_vesicle</text>
</g>
<!-- dsRNA&#45;&gt;dsRNA_vesicle -->
<g id="edge35" class="edge"><title>dsRNA&#45;&gt;dsRNA_vesicle</title>
<path fill="none" stroke="black" d="M241.099,-736.008C239.196,-719.122 238.762,-692.398 239.797,-671.023"/>
<polygon fill="black" stroke="black" points="243.291,-671.225 240.423,-661.025 236.304,-670.787 243.291,-671.225"/>
</g>
<!-- PLPro -->
<g id="node34" class="node"><title>PLPro</title>
<ellipse fill="none" stroke="black" cx="192" cy="-753.505" rx="18" ry="18"/>
<text text-anchor="middle" x="192" y="-752.305" font-family="Times,serif" font-size="4.00">PLPro</text>
</g>
<!-- PLPro&#45;&gt;RIG&#45;I_dsRNA -->
<g id="edge36" class="edge"><title>PLPro&#45;&gt;RIG&#45;I_dsRNA</title>
<path fill="none" stroke="black" d="M190.229,-735.516C188.414,-718.098 185.548,-690.597 183.311,-669.131"/>
<polygon fill="black" stroke="black" points="186.788,-668.732 182.27,-659.148 179.826,-669.457 186.788,-668.732"/>
</g>
<!-- STAT3 -->
<g id="node35" class="node"><title>STAT3</title>
<ellipse fill="none" stroke="black" cx="898" cy="-753.505" rx="18" ry="18"/>
<text text-anchor="middle" x="898" y="-752.305" font-family="Times,serif" font-size="4.00">STAT3</text>
</g>
<!-- STAT3&#45;&gt;Inhibited ISGF3 precursor -->
<g id="edge37" class="edge"><title>STAT3&#45;&gt;Inhibited ISGF3 precursor</title>
<path fill="none" stroke="black" d="M898,-735.018C898,-720.898 898,-700.393 898,-681.813"/>
<polygon fill="black" stroke="black" points="901.5,-681.742 898,-671.742 894.5,-681.742 901.5,-681.742"/>
</g>
<!-- ribosomal 40S subunit -->
<g id="node36" class="node"><title>ribosomal 40S subunit</title>
<ellipse fill="none" stroke="black" cx="759" cy="-636.364" rx="31.6406" ry="31.6406"/>
<text text-anchor="middle" x="759" y="-635.164" font-family="Times,serif" font-size="4.00">ribosomal 40S subunit</text>
</g>
<!-- ribosomal 40S subunit&#45;&gt;80S ribosome -->
<g id="edge39" class="edge"><title>ribosomal 40S subunit&#45;&gt;80S ribosome</title>
<path fill="none" stroke="black" d="M740.598,-610.001C727.309,-591.685 709.414,-567.02 695.991,-548.521"/>
<polygon fill="black" stroke="black" points="698.692,-546.283 689.987,-540.245 693.026,-550.394 698.692,-546.283"/>
</g>
<!-- ribosomal 40S subunit&#45;&gt;inhibited ribosomal 40S SU -->
<g id="edge38" class="edge"><title>ribosomal 40S subunit&#45;&gt;inhibited ribosomal 40S SU</title>
<path fill="none" stroke="black" d="M759.273,-604.481C759.37,-593.563 759.481,-581.025 759.586,-569.086"/>
<polygon fill="black" stroke="black" points="763.089,-568.836 759.677,-558.805 756.089,-568.774 763.089,-568.836"/>
</g>
<!-- IRF3&#45;&gt;p38&#45;NFkB -->
<g id="edge40" class="edge"><title>IRF3&#45;&gt;p38&#45;NFkB</title>
<path fill="none" stroke="black" d="M380.726,-310.38C381.052,-302.725 381.444,-293.496 381.811,-284.875"/>
<polygon fill="black" stroke="black" points="385.311,-284.948 382.239,-274.808 378.317,-284.65 385.311,-284.948"/>
</g>
<!-- ribosomal 60S subunit -->
<g id="node39" class="node"><title>ribosomal 60S subunit</title>
<ellipse fill="none" stroke="black" cx="677" cy="-636.364" rx="31.6406" ry="31.6406"/>
<text text-anchor="middle" x="677" y="-635.164" font-family="Times,serif" font-size="4.00">ribosomal 60S subunit</text>
</g>
<!-- ribosomal 60S subunit&#45;&gt;80S ribosome -->
<g id="edge41" class="edge"><title>ribosomal 60S subunit&#45;&gt;80S ribosome</title>
<path fill="none" stroke="black" d="M677,-604.481C677,-588.975 677,-570.203 677,-554.522"/>
<polygon fill="black" stroke="black" points="680.5,-554.237 677,-544.237 673.5,-554.237 680.5,-554.237"/>
</g>
<!-- IKK&#45;TBK1&#45;&gt;RIG&#45;I&#45;MAVS -->
<g id="edge42" class="edge"><title>IKK&#45;TBK1&#45;&gt;RIG&#45;I&#45;MAVS</title>
<path fill="none" stroke="black" d="M392.449,-503.635C385.289,-487.793 374.39,-463.675 365.861,-444.802"/>
<polygon fill="black" stroke="black" points="368.957,-443.153 361.65,-435.482 362.578,-446.036 368.957,-443.153"/>
</g>
<!-- nsp14 -->
<g id="node41" class="node"><title>nsp14</title>
<ellipse fill="none" stroke="black" cx="1011" cy="-847.841" rx="18" ry="18"/>
<text text-anchor="middle" x="1011" y="-846.641" font-family="Times,serif" font-size="4.00">nsp14</text>
</g>
<!-- nsp14&#45;&gt;viral RNA+N&#45;methyl&#45;Guanine -->
<g id="edge43" class="edge"><title>nsp14&#45;&gt;viral RNA+N&#45;methyl&#45;Guanine</title>
<path fill="none" stroke="black" d="M1016.01,-830.333C1018.53,-821.993 1021.74,-811.413 1024.95,-800.823"/>
<polygon fill="black" stroke="black" points="1028.33,-801.744 1027.89,-791.158 1021.63,-799.712 1028.33,-801.744"/>
</g>
<!-- IKK -->
<g id="node42" class="node"><title>IKK</title>
<ellipse fill="none" stroke="black" cx="453" cy="-636.364" rx="18" ry="18"/>
<text text-anchor="middle" x="453" y="-635.164" font-family="Times,serif" font-size="4.00">IKK</text>
</g>
<!-- IKK&#45;&gt;IKK&#45;TBK1 -->
<g id="edge44" class="edge"><title>IKK&#45;&gt;IKK&#45;TBK1</title>
<path fill="none" stroke="black" d="M445.631,-619.65C436.959,-601.157 422.434,-570.185 412.103,-548.153"/>
<polygon fill="black" stroke="black" points="415.239,-546.597 407.824,-539.029 408.901,-549.569 415.239,-546.597"/>
</g>
<!-- dsRNA_vesicle&#45;&gt;dsRNA -->
<g id="edge45" class="edge"><title>dsRNA_vesicle&#45;&gt;dsRNA</title>
<path fill="none" stroke="black" d="M251.577,-661.025C253.065,-679.894 253.137,-706.314 251.793,-725.913"/>
<polygon fill="black" stroke="black" points="248.295,-725.739 250.901,-736.008 255.268,-726.355 248.295,-725.739"/>
</g>
<!-- STAT2 -->
<g id="node44" class="node"><title>STAT2</title>
<ellipse fill="none" stroke="black" cx="781" cy="-847.841" rx="18" ry="18"/>
<text text-anchor="middle" x="781" y="-846.641" font-family="Times,serif" font-size="4.00">STAT2</text>
</g>
<!-- STAT2&#45;&gt;ISGF3 precursor -->
<g id="edge46" class="edge"><title>STAT2&#45;&gt;ISGF3 precursor</title>
<path fill="none" stroke="black" d="M776.173,-830.333C772.698,-818.448 767.892,-802.014 763.643,-787.484"/>
<polygon fill="black" stroke="black" points="766.98,-786.423 760.814,-777.807 760.261,-788.388 766.98,-786.423"/>
</g>
<!-- viral RNA -->
<g id="node45" class="node"><title>viral RNA</title>
<ellipse fill="none" stroke="black" cx="1066" cy="-847.841" rx="19.1842" ry="19.1842"/>
<text text-anchor="middle" x="1066" y="-846.641" font-family="Times,serif" font-size="4.00">viral RNA</text>
</g>
<!-- viral RNA&#45;&gt;viral RNA+N&#45;methyl&#45;Guanine -->
<g id="edge47" class="edge"><title>viral RNA&#45;&gt;viral RNA+N&#45;methyl&#45;Guanine</title>
<path fill="none" stroke="black" d="M1060.79,-829.038C1058.45,-821.02 1055.56,-811.138 1052.66,-801.223"/>
<polygon fill="black" stroke="black" points="1055.94,-799.979 1049.78,-791.364 1049.23,-801.944 1055.94,-799.979"/>
</g>
<!-- Ifn lambda&#45;&gt;receptor complex -->
<g id="edge48" class="edge"><title>Ifn lambda&#45;&gt;receptor complex</title>
<path fill="none" stroke="black" d="M343.964,-92.2479C340.019,-83.7576 335.872,-72.9571 332.486,-62.6224"/>
<polygon fill="black" stroke="black" points="335.794,-61.4731 329.504,-52.9473 329.105,-63.5346 335.794,-61.4731"/>
</g>
</g>
</svg>
