<?xml version="1.0" encoding="UTF-8" standalone="no"?>
<!DOCTYPE svg PUBLIC "-//W3C//DTD SVG 1.1//EN"
 "http://www.w3.org/Graphics/SVG/1.1/DTD/svg11.dtd">
<!-- Generated by graphviz version 2.38.0 (20140413.2041)
 -->
<!-- Title: G Pages: 1 -->
<svg width="996pt" height="883pt"
 viewBox="0.00 0.00 996.09 883.42" xmlns="http://www.w3.org/2000/svg" xmlns:xlink="http://www.w3.org/1999/xlink">
<g id="graph0" class="graph" transform="scale(1 1) rotate(0) translate(4 879.418)">
<title>G</title>
<polygon fill="white" stroke="none" points="-4,4 -4,-879.418 992.092,-879.418 992.092,4 -4,4"/>
<!-- nsp16 -->
<g id="node1" class="node"><title>nsp16</title>
<ellipse fill="none" stroke="black" cx="18" cy="-761.99" rx="18" ry="18"/>
<text text-anchor="middle" x="18" y="-760.79" font-family="Times,serif" font-size="4.00">nsp16</text>
</g>
<!-- 5&#39;cap&#45;viral&#45;RNA -->
<g id="node37" class="node"><title>5&#39;cap&#45;viral&#45;RNA</title>
<ellipse fill="none" stroke="black" cx="48" cy="-644.85" rx="24.8512" ry="24.8513"/>
<text text-anchor="middle" x="48" y="-643.65" font-family="Times,serif" font-size="4.00">5&#39;cap&#45;viral&#45;RNA</text>
</g>
<!-- nsp16&#45;&gt;5&#39;cap&#45;viral&#45;RNA -->
<g id="edge1" class="edge"><title>nsp16&#45;&gt;5&#39;cap&#45;viral&#45;RNA</title>
<path fill="none" stroke="black" d="M22.2983,-744.493C26.746,-727.423 33.8131,-700.299 39.412,-678.811"/>
<polygon fill="black" stroke="black" points="42.8109,-679.647 41.9454,-669.087 36.0371,-677.882 42.8109,-679.647"/>
</g>
<!-- M&#45;protein_ membrane&#45;bound -->
<g id="node2" class="node"><title>M&#45;protein_ membrane&#45;bound</title>
<ellipse fill="none" stroke="black" cx="264" cy="-644.85" rx="38.3684" ry="38.3684"/>
<text text-anchor="middle" x="264" y="-643.65" font-family="Times,serif" font-size="4.00">M&#45;protein_ membrane&#45;bound</text>
</g>
<!-- RIG&#45;1 M&#45;Protein -->
<g id="node20" class="node"><title>RIG&#45;1 M&#45;Protein</title>
<ellipse fill="none" stroke="black" cx="290" cy="-529.831" rx="25.4118" ry="25.4118"/>
<text text-anchor="middle" x="290" y="-528.631" font-family="Times,serif" font-size="4.00">RIG&#45;1 M&#45;Protein</text>
</g>
<!-- M&#45;protein_ membrane&#45;bound&#45;&gt;RIG&#45;1 M&#45;Protein -->
<g id="edge2" class="edge"><title>M&#45;protein_ membrane&#45;bound&#45;&gt;RIG&#45;1 M&#45;Protein</title>
<path fill="none" stroke="black" d="M272.37,-607.468C275.516,-593.789 279.079,-578.301 282.175,-564.847"/>
<polygon fill="black" stroke="black" points="285.605,-565.548 284.436,-555.017 278.783,-563.978 285.605,-565.548"/>
</g>
<!-- STAT2 -->
<g id="node3" class="node"><title>STAT2</title>
<ellipse fill="none" stroke="black" cx="636" cy="-856.327" rx="18" ry="18"/>
<text text-anchor="middle" x="636" y="-855.127" font-family="Times,serif" font-size="4.00">STAT2</text>
</g>
<!-- ISGF3 precursor -->
<g id="node43" class="node"><title>ISGF3 precursor</title>
<ellipse fill="none" stroke="black" cx="663" cy="-761.99" rx="24.8513" ry="24.8513"/>
<text text-anchor="middle" x="663" y="-760.79" font-family="Times,serif" font-size="4.00">ISGF3 precursor</text>
</g>
<!-- STAT2&#45;&gt;ISGF3 precursor -->
<g id="edge3" class="edge"><title>STAT2&#45;&gt;ISGF3 precursor</title>
<path fill="none" stroke="black" d="M640.827,-838.819C644.302,-826.933 649.108,-810.5 653.357,-795.969"/>
<polygon fill="black" stroke="black" points="656.739,-796.873 656.186,-786.292 650.02,-794.908 656.739,-796.873"/>
</g>
<!-- IRF9 -->
<g id="node4" class="node"><title>IRF9</title>
<ellipse fill="none" stroke="black" cx="750" cy="-761.99" rx="18" ry="18"/>
<text text-anchor="middle" x="750" y="-760.79" font-family="Times,serif" font-size="4.00">IRF9</text>
</g>
<!-- ISGF3 -->
<g id="node23" class="node"><title>ISGF3</title>
<ellipse fill="none" stroke="black" cx="750" cy="-644.85" rx="18" ry="18"/>
<text text-anchor="middle" x="750" y="-643.65" font-family="Times,serif" font-size="4.00">ISGF3</text>
</g>
<!-- IRF9&#45;&gt;ISGF3 -->
<g id="edge4" class="edge"><title>IRF9&#45;&gt;ISGF3</title>
<path fill="none" stroke="black" d="M750,-743.503C750,-724.882 750,-695.154 750,-673.385"/>
<polygon fill="black" stroke="black" points="753.5,-673.124 750,-663.124 746.5,-673.124 753.5,-673.124"/>
</g>
<!-- p38&#45;NFkB&#45;IRF3 -->
<g id="node5" class="node"><title>p38&#45;NFkB&#45;IRF3</title>
<ellipse fill="none" stroke="black" cx="353" cy="-257.428" rx="24.2908" ry="24.2908"/>
<text text-anchor="middle" x="353" y="-256.228" font-family="Times,serif" font-size="4.00">p38&#45;NFkB&#45;IRF3</text>
</g>
<!-- IFN&#45;III -->
<g id="node9" class="node"><title>IFN&#45;III</title>
<ellipse fill="none" stroke="black" cx="383" cy="-179.033" rx="18" ry="18"/>
<text text-anchor="middle" x="383" y="-177.833" font-family="Times,serif" font-size="4.00">IFN&#45;III</text>
</g>
<!-- p38&#45;NFkB&#45;IRF3&#45;&gt;IFN&#45;III -->
<g id="edge5" class="edge"><title>p38&#45;NFkB&#45;IRF3&#45;&gt;IFN&#45;III</title>
<path fill="none" stroke="black" d="M361.677,-234.332C365.185,-225.4 369.257,-215.03 372.897,-205.761"/>
<polygon fill="black" stroke="black" points="376.232,-206.842 376.63,-196.255 369.717,-204.284 376.232,-206.842"/>
</g>
<!-- MDA5 -->
<g id="node6" class="node"><title>MDA5</title>
<ellipse fill="none" stroke="black" cx="744" cy="-856.327" rx="18" ry="18"/>
<text text-anchor="middle" x="744" y="-855.127" font-family="Times,serif" font-size="4.00">MDA5</text>
</g>
<!-- IFN&#45;sensitive&#45;response&#45;element -->
<g id="node7" class="node"><title>IFN&#45;sensitive&#45;response&#45;element</title>
<ellipse fill="none" stroke="black" cx="672" cy="-644.85" rx="41.7924" ry="41.7924"/>
<text text-anchor="middle" x="672" y="-643.65" font-family="Times,serif" font-size="4.00">IFN&#45;sensitive&#45;response&#45;element</text>
</g>
<!-- ISGs -->
<g id="node8" class="node"><title>ISGs</title>
<ellipse fill="none" stroke="black" cx="752" cy="-529.831" rx="18" ry="18"/>
<text text-anchor="middle" x="752" y="-528.631" font-family="Times,serif" font-size="4.00">ISGs</text>
</g>
<!-- IFN&#45;sensitive&#45;response&#45;element&#45;&gt;ISGs -->
<g id="edge6" class="edge"><title>IFN&#45;sensitive&#45;response&#45;element&#45;&gt;ISGs</title>
<path fill="none" stroke="black" d="M695.786,-610.246C708.766,-591.909 724.487,-569.699 736,-553.434"/>
<polygon fill="black" stroke="black" points="738.998,-555.256 741.919,-545.072 733.285,-551.212 738.998,-555.256"/>
</g>
<!-- antiviral proteins -->
<g id="node17" class="node"><title>antiviral proteins</title>
<ellipse fill="none" stroke="black" cx="817" cy="-423.827" rx="26.533" ry="26.533"/>
<text text-anchor="middle" x="817" y="-422.627" font-family="Times,serif" font-size="4.00">antiviral proteins</text>
</g>
<!-- ISGs&#45;&gt;antiviral proteins -->
<g id="edge8" class="edge"><title>ISGs&#45;&gt;antiviral proteins</title>
<path fill="none" stroke="black" d="M761.313,-513.929C770.768,-498.801 785.686,-474.931 797.703,-455.704"/>
<polygon fill="black" stroke="black" points="800.829,-457.306 803.16,-446.971 794.893,-453.596 800.829,-457.306"/>
</g>
<!-- IFNs -->
<g id="node25" class="node"><title>IFNs</title>
<ellipse fill="none" stroke="black" cx="753" cy="-423.827" rx="18" ry="18"/>
<text text-anchor="middle" x="753" y="-422.627" font-family="Times,serif" font-size="4.00">IFNs</text>
</g>
<!-- ISGs&#45;&gt;IFNs -->
<g id="edge7" class="edge"><title>ISGs&#45;&gt;IFNs</title>
<path fill="none" stroke="black" d="M752.165,-511.656C752.321,-495.472 752.556,-470.959 752.738,-452.101"/>
<polygon fill="black" stroke="black" points="756.238,-452.06 752.835,-442.027 749.239,-451.992 756.238,-452.06"/>
</g>
<!-- IFNL -->
<g id="node21" class="node"><title>IFNL</title>
<ellipse fill="none" stroke="black" cx="383" cy="-107.033" rx="18" ry="18"/>
<text text-anchor="middle" x="383" y="-105.833" font-family="Times,serif" font-size="4.00">IFNL</text>
</g>
<!-- IFN&#45;III&#45;&gt;IFNL -->
<g id="edge9" class="edge"><title>IFN&#45;III&#45;&gt;IFNL</title>
<path fill="none" stroke="black" d="M383,-160.73C383,-153.016 383,-143.745 383,-135.145"/>
<polygon fill="black" stroke="black" points="386.5,-135.137 383,-125.137 379.5,-135.137 386.5,-135.137"/>
</g>
<!-- mitoMAVS -->
<g id="node10" class="node"><title>mitoMAVS</title>
<ellipse fill="none" stroke="black" cx="394" cy="-644.85" rx="20.3062" ry="20.3062"/>
<text text-anchor="middle" x="394" y="-643.65" font-family="Times,serif" font-size="4.00">mitoMAVS</text>
</g>
<!-- RIG&#45;I&#45;mitoMAVS -->
<g id="node34" class="node"><title>RIG&#45;I&#45;mitoMAVS</title>
<ellipse fill="none" stroke="black" cx="362" cy="-529.831" rx="26.533" ry="26.533"/>
<text text-anchor="middle" x="362" y="-528.631" font-family="Times,serif" font-size="4.00">RIG&#45;I&#45;mitoMAVS</text>
</g>
<!-- mitoMAVS&#45;&gt;RIG&#45;I&#45;mitoMAVS -->
<g id="edge10" class="edge"><title>mitoMAVS&#45;&gt;RIG&#45;I&#45;mitoMAVS</title>
<path fill="none" stroke="black" d="M388.716,-625.187C384.12,-608.956 377.342,-585.017 371.763,-565.313"/>
<polygon fill="black" stroke="black" points="375.065,-564.127 368.973,-555.459 368.33,-566.034 375.065,-564.127"/>
</g>
<!-- ribosomal 60S subunit -->
<g id="node11" class="node"><title>ribosomal 60S subunit</title>
<ellipse fill="none" stroke="black" cx="818" cy="-644.85" rx="31.6406" ry="31.6406"/>
<text text-anchor="middle" x="818" y="-643.65" font-family="Times,serif" font-size="4.00">ribosomal 60S subunit</text>
</g>
<!-- 80S ribosome -->
<g id="node35" class="node"><title>80S ribosome</title>
<ellipse fill="none" stroke="black" cx="818" cy="-529.831" rx="22.6101" ry="22.6101"/>
<text text-anchor="middle" x="818" y="-528.631" font-family="Times,serif" font-size="4.00">80S ribosome</text>
</g>
<!-- ribosomal 60S subunit&#45;&gt;80S ribosome -->
<g id="edge11" class="edge"><title>ribosomal 60S subunit&#45;&gt;80S ribosome</title>
<path fill="none" stroke="black" d="M818,-612.967C818,-597.461 818,-578.689 818,-563.007"/>
<polygon fill="black" stroke="black" points="821.5,-562.722 818,-552.722 814.5,-562.722 821.5,-562.722"/>
</g>
<!-- dsRNA -->
<g id="node12" class="node"><title>dsRNA</title>
<ellipse fill="none" stroke="black" cx="183" cy="-761.99" rx="18" ry="18"/>
<text text-anchor="middle" x="183" y="-760.79" font-family="Times,serif" font-size="4.00">dsRNA</text>
</g>
<!-- RIG&#45;I&#45;MAVS -->
<g id="node26" class="node"><title>RIG&#45;I&#45;MAVS</title>
<ellipse fill="none" stroke="black" cx="362" cy="-423.827" rx="21.9898" ry="21.9898"/>
<text text-anchor="middle" x="362" y="-422.627" font-family="Times,serif" font-size="4.00">RIG&#45;I&#45;MAVS</text>
</g>
<!-- dsRNA&#45;&gt;RIG&#45;I&#45;MAVS -->
<g id="edge14" class="edge"><title>dsRNA&#45;&gt;RIG&#45;I&#45;MAVS</title>
<path fill="none" stroke="black" d="M173.965,-746.301C165.605,-731.783 153.773,-708.631 149,-686.746 141.065,-650.36 135.006,-637.465 149,-602.954 183.219,-518.564 282.919,-461.726 332.828,-437.73"/>
<polygon fill="black" stroke="black" points="334.548,-440.789 342.112,-433.37 331.573,-434.452 334.548,-440.789"/>
</g>
<!-- dsRNA_vesicle -->
<g id="node39" class="node"><title>dsRNA_vesicle</title>
<ellipse fill="none" stroke="black" cx="183" cy="-644.85" rx="24.8512" ry="24.8513"/>
<text text-anchor="middle" x="183" y="-643.65" font-family="Times,serif" font-size="4.00">dsRNA_vesicle</text>
</g>
<!-- dsRNA&#45;&gt;dsRNA_vesicle -->
<g id="edge13" class="edge"><title>dsRNA&#45;&gt;dsRNA_vesicle</title>
<path fill="none" stroke="black" d="M178.099,-744.493C176.196,-727.607 175.762,-700.883 176.797,-679.508"/>
<polygon fill="black" stroke="black" points="180.291,-679.71 177.423,-669.511 173.304,-679.272 180.291,-679.71"/>
</g>
<!-- RIG&#45;I -->
<g id="node42" class="node"><title>RIG&#45;I</title>
<ellipse fill="none" stroke="black" cx="338" cy="-644.85" rx="18" ry="18"/>
<text text-anchor="middle" x="338" y="-643.65" font-family="Times,serif" font-size="4.00">RIG&#45;I</text>
</g>
<!-- dsRNA&#45;&gt;RIG&#45;I -->
<g id="edge12" class="edge"><title>dsRNA&#45;&gt;RIG&#45;I</title>
<path fill="none" stroke="black" d="M199.522,-754.374C225.537,-743.35 276.622,-719.189 311,-686.746 316.238,-681.802 320.965,-675.656 324.945,-669.644"/>
<polygon fill="black" stroke="black" points="327.952,-671.435 330.215,-661.085 321.991,-667.765 327.952,-671.435"/>
</g>
<!-- Inhibited ISGF3 precursor? -->
<g id="node13" class="node"><title>Inhibited ISGF3 precursor?</title>
<ellipse fill="none" stroke="black" cx="576" cy="-644.85" rx="36.125" ry="36.125"/>
<text text-anchor="middle" x="576" y="-643.65" font-family="Times,serif" font-size="4.00">Inhibited ISGF3 precursor?</text>
</g>
<!-- TBK1 -->
<g id="node14" class="node"><title>TBK1</title>
<ellipse fill="none" stroke="black" cx="450" cy="-644.85" rx="18" ry="18"/>
<text text-anchor="middle" x="450" y="-643.65" font-family="Times,serif" font-size="4.00">TBK1</text>
</g>
<!-- IKK&#45;TBK1 -->
<g id="node22" class="node"><title>IKK&#45;TBK1</title>
<ellipse fill="none" stroke="black" cx="450" cy="-529.831" rx="19.1842" ry="19.1842"/>
<text text-anchor="middle" x="450" y="-528.631" font-family="Times,serif" font-size="4.00">IKK&#45;TBK1</text>
</g>
<!-- TBK1&#45;&gt;IKK&#45;TBK1 -->
<g id="edge15" class="edge"><title>TBK1&#45;&gt;IKK&#45;TBK1</title>
<path fill="none" stroke="black" d="M450,-626.685C450,-608.829 450,-580.57 450,-559.353"/>
<polygon fill="black" stroke="black" points="453.5,-559.286 450,-549.286 446.5,-559.286 453.5,-559.286"/>
</g>
<!-- inhibited 80S ribosome -->
<g id="node15" class="node"><title>inhibited 80S ribosome</title>
<ellipse fill="none" stroke="black" cx="931" cy="-423.827" rx="32.7614" ry="32.7614"/>
<text text-anchor="middle" x="931" y="-422.627" font-family="Times,serif" font-size="4.00">inhibited 80S ribosome</text>
</g>
<!-- IKK -->
<g id="node16" class="node"><title>IKK</title>
<ellipse fill="none" stroke="black" cx="504" cy="-644.85" rx="18" ry="18"/>
<text text-anchor="middle" x="504" y="-643.65" font-family="Times,serif" font-size="4.00">IKK</text>
</g>
<!-- IKK&#45;&gt;IKK&#45;TBK1 -->
<g id="edge16" class="edge"><title>IKK&#45;&gt;IKK&#45;TBK1</title>
<path fill="none" stroke="black" d="M496.492,-628.135C487.656,-609.643 472.858,-578.671 462.331,-556.639"/>
<polygon fill="black" stroke="black" points="465.441,-555.029 457.972,-547.514 459.125,-558.046 465.441,-555.029"/>
</g>
<!-- p38&#45;NFkB -->
<g id="node18" class="node"><title>p38&#45;NFkB</title>
<ellipse fill="none" stroke="black" cx="366" cy="-336.385" rx="18.6233" ry="18.6233"/>
<text text-anchor="middle" x="366" y="-335.185" font-family="Times,serif" font-size="4.00">p38&#45;NFkB</text>
</g>
<!-- p38&#45;NFkB&#45;&gt;p38&#45;NFkB&#45;IRF3 -->
<g id="edge17" class="edge"><title>p38&#45;NFkB&#45;&gt;p38&#45;NFkB&#45;IRF3</title>
<path fill="none" stroke="black" d="M363.05,-317.922C361.733,-310.125 360.135,-300.667 358.605,-291.608"/>
<polygon fill="black" stroke="black" points="362.041,-290.937 356.924,-281.66 355.139,-292.103 362.041,-290.937"/>
</g>
<!-- IRF1 -->
<g id="node19" class="node"><title>IRF1</title>
<ellipse fill="none" stroke="black" cx="413" cy="-257.428" rx="18" ry="18"/>
<text text-anchor="middle" x="413" y="-256.228" font-family="Times,serif" font-size="4.00">IRF1</text>
</g>
<!-- IRF1&#45;&gt;IFN&#45;III -->
<g id="edge18" class="edge"><title>IRF1&#45;&gt;IFN&#45;III</title>
<path fill="none" stroke="black" d="M406.638,-240.227C402.674,-230.132 397.488,-216.927 392.985,-205.459"/>
<polygon fill="black" stroke="black" points="396.163,-203.978 389.25,-195.949 389.648,-206.537 396.163,-203.978"/>
</g>
<!-- receptor complex -->
<g id="node45" class="node"><title>receptor complex</title>
<ellipse fill="none" stroke="black" cx="356" cy="-26.5165" rx="26.533" ry="26.533"/>
<text text-anchor="middle" x="356" y="-25.3165" font-family="Times,serif" font-size="4.00">receptor complex</text>
</g>
<!-- IFNL&#45;&gt;receptor complex -->
<g id="edge19" class="edge"><title>IFNL&#45;&gt;receptor complex</title>
<path fill="none" stroke="black" d="M372.857,-91.9958C368.958,-83.8397 364.819,-73.1649 361.432,-62.8544"/>
<polygon fill="black" stroke="black" points="364.738,-61.6994 358.447,-53.1748 358.049,-63.7622 364.738,-61.6994"/>
</g>
<!-- IKK&#45;TBK1&#45;&gt;RIG&#45;I&#45;MAVS -->
<g id="edge20" class="edge"><title>IKK&#45;TBK1&#45;&gt;RIG&#45;I&#45;MAVS</title>
<path fill="none" stroke="black" d="M438.132,-514.804C423.802,-497.868 399.473,-469.115 382.177,-448.673"/>
<polygon fill="black" stroke="black" points="384.831,-446.392 375.7,-441.019 379.488,-450.913 384.831,-446.392"/>
</g>
<!-- ISGF3&#45;&gt;ISGs -->
<g id="edge21" class="edge"><title>ISGF3&#45;&gt;ISGs</title>
<path fill="none" stroke="black" d="M750.304,-626.685C750.625,-608.512 751.138,-579.563 751.515,-558.23"/>
<polygon fill="black" stroke="black" points="755.016,-558.218 751.693,-548.157 748.017,-558.094 755.016,-558.218"/>
</g>
<!-- viral RNA -->
<g id="node24" class="node"><title>viral RNA</title>
<ellipse fill="none" stroke="black" cx="64" cy="-856.327" rx="19.1842" ry="19.1842"/>
<text text-anchor="middle" x="64" y="-855.127" font-family="Times,serif" font-size="4.00">viral RNA</text>
</g>
<!-- viral RNA+N&#45;methyl&#45;Guanine -->
<g id="node40" class="node"><title>viral RNA+N&#45;methyl&#45;Guanine</title>
<ellipse fill="none" stroke="black" cx="93" cy="-761.99" rx="39.4904" ry="39.4904"/>
<text text-anchor="middle" x="93" y="-760.79" font-family="Times,serif" font-size="4.00">viral RNA+N&#45;methyl&#45;Guanine</text>
</g>
<!-- viral RNA&#45;&gt;viral RNA+N&#45;methyl&#45;Guanine -->
<g id="edge22" class="edge"><title>viral RNA&#45;&gt;viral RNA+N&#45;methyl&#45;Guanine</title>
<path fill="none" stroke="black" d="M69.4547,-837.959C72.016,-829.803 75.2043,-819.652 78.3992,-809.479"/>
<polygon fill="black" stroke="black" points="81.7868,-810.374 81.444,-799.785 75.1084,-808.276 81.7868,-810.374"/>
</g>
<!-- RIG&#45;I&#45;MAVS&#45;&gt;IRF1 -->
<g id="edge23" class="edge"><title>RIG&#45;I&#45;MAVS&#45;&gt;IRF1</title>
<path fill="none" stroke="black" d="M372.25,-404.32C379.27,-390.952 388.307,-372.275 394,-354.946 401.511,-332.085 406.51,-305.149 409.487,-285.55"/>
<polygon fill="black" stroke="black" points="412.974,-285.886 410.935,-275.489 406.046,-284.888 412.974,-285.886"/>
</g>
<!-- IRF3 -->
<g id="node44" class="node"><title>IRF3</title>
<ellipse fill="none" stroke="black" cx="311" cy="-336.385" rx="18" ry="18"/>
<text text-anchor="middle" x="311" y="-335.185" font-family="Times,serif" font-size="4.00">IRF3</text>
</g>
<!-- RIG&#45;I&#45;MAVS&#45;&gt;IRF3 -->
<g id="edge24" class="edge"><title>RIG&#45;I&#45;MAVS&#45;&gt;IRF3</title>
<path fill="none" stroke="black" d="M351.184,-404.707C343.629,-392.05 333.466,-375.023 325.251,-361.26"/>
<polygon fill="black" stroke="black" points="328.062,-359.14 319.931,-352.347 322.051,-362.728 328.062,-359.14"/>
</g>
<!-- nsp14 -->
<g id="node27" class="node"><title>nsp14</title>
<ellipse fill="none" stroke="black" cx="119" cy="-856.327" rx="18" ry="18"/>
<text text-anchor="middle" x="119" y="-855.127" font-family="Times,serif" font-size="4.00">nsp14</text>
</g>
<!-- nsp14&#45;&gt;viral RNA+N&#45;methyl&#45;Guanine -->
<g id="edge25" class="edge"><title>nsp14&#45;&gt;viral RNA+N&#45;methyl&#45;Guanine</title>
<path fill="none" stroke="black" d="M114.352,-838.819C112.049,-830.642 109.141,-820.313 106.218,-809.932"/>
<polygon fill="black" stroke="black" points="109.51,-808.709 103.43,-800.031 102.772,-810.606 109.51,-808.709"/>
</g>
<!-- inhibited ribosomal 40S SU -->
<g id="node28" class="node"><title>inhibited ribosomal 40S SU</title>
<ellipse fill="none" stroke="black" cx="901" cy="-529.831" rx="37.2466" ry="37.2466"/>
<text text-anchor="middle" x="901" y="-528.631" font-family="Times,serif" font-size="4.00">inhibited ribosomal 40S SU</text>
</g>
<!-- SOCS3 -->
<g id="node29" class="node"><title>SOCS3</title>
<ellipse fill="none" stroke="black" cx="275" cy="-107.033" rx="18" ry="18"/>
<text text-anchor="middle" x="275" y="-105.833" font-family="Times,serif" font-size="4.00">SOCS3</text>
</g>
<!-- SOCS3&#45;&gt;receptor complex -->
<g id="edge26" class="edge"><title>SOCS3&#45;&gt;receptor complex</title>
<path fill="none" stroke="black" d="M287.656,-93.7648C298.919,-82.8474 315.75,-66.5326 329.89,-52.8256"/>
<polygon fill="black" stroke="black" points="332.673,-55.0031 337.417,-45.5298 327.801,-49.9768 332.673,-55.0031"/>
</g>
<!-- PLPro -->
<g id="node30" class="node"><title>PLPro</title>
<ellipse fill="none" stroke="black" cx="308" cy="-761.99" rx="18" ry="18"/>
<text text-anchor="middle" x="308" y="-760.79" font-family="Times,serif" font-size="4.00">PLPro</text>
</g>
<!-- PLPro&#45;&gt;RIG&#45;I -->
<g id="edge27" class="edge"><title>PLPro&#45;&gt;RIG&#45;I</title>
<path fill="none" stroke="black" d="M312.298,-744.493C317.194,-725.705 325.262,-694.739 331.053,-672.511"/>
<polygon fill="black" stroke="black" points="334.478,-673.25 333.612,-662.69 327.704,-671.485 334.478,-673.25"/>
</g>
<!-- viral nsp1 -->
<g id="node31" class="node"><title>viral nsp1</title>
<ellipse fill="none" stroke="black" cx="969" cy="-644.85" rx="19.1842" ry="19.1842"/>
<text text-anchor="middle" x="969" y="-643.65" font-family="Times,serif" font-size="4.00">viral nsp1</text>
</g>
<!-- viral nsp1&#45;&gt;inhibited 80S ribosome -->
<g id="edge28" class="edge"><title>viral nsp1&#45;&gt;inhibited 80S ribosome</title>
<path fill="none" stroke="black" d="M966.866,-625.618C963.415,-597.128 956.07,-540.377 947,-492.707 945.323,-483.893 943.276,-474.493 941.214,-465.585"/>
<polygon fill="black" stroke="black" points="944.606,-464.721 938.898,-455.795 937.794,-466.332 944.606,-464.721"/>
</g>
<!-- viral nsp1&#45;&gt;inhibited ribosomal 40S SU -->
<g id="edge29" class="edge"><title>viral nsp1&#45;&gt;inhibited ribosomal 40S SU</title>
<path fill="none" stroke="black" d="M959.545,-628.135C950.684,-613.407 937.06,-590.764 925.184,-571.026"/>
<polygon fill="black" stroke="black" points="928.029,-568.964 919.874,-562.2 922.031,-572.573 928.029,-568.964"/>
</g>
<!-- ribosomal 40S subunit -->
<g id="node32" class="node"><title>ribosomal 40S subunit</title>
<ellipse fill="none" stroke="black" cx="900" cy="-644.85" rx="31.6406" ry="31.6406"/>
<text text-anchor="middle" x="900" y="-643.65" font-family="Times,serif" font-size="4.00">ribosomal 40S subunit</text>
</g>
<!-- ribosomal 40S subunit&#45;&gt;inhibited ribosomal 40S SU -->
<g id="edge30" class="edge"><title>ribosomal 40S subunit&#45;&gt;inhibited ribosomal 40S SU</title>
<path fill="none" stroke="black" d="M900.273,-612.967C900.37,-602.048 900.481,-589.51 900.586,-577.572"/>
<polygon fill="black" stroke="black" points="904.089,-577.321 900.677,-567.291 897.089,-577.259 904.089,-577.321"/>
</g>
<!-- ribosomal 40S subunit&#45;&gt;80S ribosome -->
<g id="edge31" class="edge"><title>ribosomal 40S subunit&#45;&gt;80S ribosome</title>
<path fill="none" stroke="black" d="M881.598,-618.486C868.309,-600.17 850.414,-575.506 836.991,-557.006"/>
<polygon fill="black" stroke="black" points="839.692,-554.769 830.987,-548.73 834.026,-558.879 839.692,-554.769"/>
</g>
<!-- STAT1 -->
<g id="node33" class="node"><title>STAT1</title>
<ellipse fill="none" stroke="black" cx="690" cy="-856.327" rx="18" ry="18"/>
<text text-anchor="middle" x="690" y="-855.127" font-family="Times,serif" font-size="4.00">STAT1</text>
</g>
<!-- STAT1&#45;&gt;ISGF3 precursor -->
<g id="edge32" class="edge"><title>STAT1&#45;&gt;ISGF3 precursor</title>
<path fill="none" stroke="black" d="M685.173,-838.819C681.698,-826.933 676.892,-810.5 672.643,-795.969"/>
<polygon fill="black" stroke="black" points="675.98,-794.908 669.814,-786.292 669.261,-796.873 675.98,-794.908"/>
</g>
<!-- RIG&#45;I&#45;mitoMAVS&#45;&gt;RIG&#45;I&#45;MAVS -->
<g id="edge33" class="edge"><title>RIG&#45;I&#45;mitoMAVS&#45;&gt;RIG&#45;I&#45;MAVS</title>
<path fill="none" stroke="black" d="M362,-503.122C362,-488.891 362,-471.095 362,-456.067"/>
<polygon fill="black" stroke="black" points="365.5,-455.704 362,-445.704 358.5,-455.704 365.5,-455.704"/>
</g>
<!-- 80S ribosome&#45;&gt;inhibited 80S ribosome -->
<g id="edge34" class="edge"><title>80S ribosome&#45;&gt;inhibited 80S ribosome</title>
<path fill="none" stroke="black" d="M833.696,-513.205C840.222,-506.788 847.914,-499.325 855,-492.707 869.159,-479.485 885.111,-465.153 898.732,-453.082"/>
<polygon fill="black" stroke="black" points="901.275,-455.505 906.451,-446.26 896.64,-450.26 901.275,-455.505"/>
</g>
<!-- 80S ribosome&#45;&gt;antiviral proteins -->
<g id="edge36" class="edge"><title>80S ribosome&#45;&gt;antiviral proteins</title>
<path fill="none" stroke="black" d="M817.788,-506.774C817.659,-493.403 817.492,-476.024 817.345,-460.713"/>
<polygon fill="black" stroke="black" points="820.843,-460.485 817.247,-450.519 813.843,-460.552 820.843,-460.485"/>
</g>
<!-- 80S ribosome&#45;&gt;IFNs -->
<g id="edge35" class="edge"><title>80S ribosome&#45;&gt;IFNs</title>
<path fill="none" stroke="black" d="M806.078,-509.755C795.23,-492.397 779.185,-466.725 767.578,-448.153"/>
<polygon fill="black" stroke="black" points="770.389,-446.047 762.121,-439.422 764.453,-449.757 770.389,-446.047"/>
</g>
<!-- Riplet / TRIM25 -->
<g id="node36" class="node"><title>Riplet / TRIM25</title>
<ellipse fill="none" stroke="black" cx="369" cy="-761.99" rx="25.4118" ry="25.4118"/>
<text text-anchor="middle" x="369" y="-760.79" font-family="Times,serif" font-size="4.00">Riplet / TRIM25</text>
</g>
<!-- Riplet / TRIM25&#45;&gt;RIG&#45;I -->
<g id="edge37" class="edge"><title>Riplet / TRIM25&#45;&gt;RIG&#45;I</title>
<path fill="none" stroke="black" d="M362.577,-737.133C357.496,-718.261 350.405,-691.926 345.145,-672.39"/>
<polygon fill="black" stroke="black" points="348.489,-671.344 342.509,-662.598 341.729,-673.164 348.489,-671.344"/>
</g>
<!-- SOCS1 -->
<g id="node38" class="node"><title>SOCS1</title>
<ellipse fill="none" stroke="black" cx="329" cy="-107.033" rx="18" ry="18"/>
<text text-anchor="middle" x="329" y="-105.833" font-family="Times,serif" font-size="4.00">SOCS1</text>
</g>
<!-- SOCS1&#45;&gt;receptor complex -->
<g id="edge38" class="edge"><title>SOCS1&#45;&gt;receptor complex</title>
<path fill="none" stroke="black" d="M334.594,-89.7643C337.421,-81.5444 340.962,-71.2482 344.345,-61.4101"/>
<polygon fill="black" stroke="black" points="347.701,-62.4132 347.643,-51.8186 341.081,-60.1369 347.701,-62.4132"/>
</g>
<!-- dsRNA_vesicle&#45;&gt;dsRNA -->
<g id="edge39" class="edge"><title>dsRNA_vesicle&#45;&gt;dsRNA</title>
<path fill="none" stroke="black" d="M188.577,-669.511C190.065,-688.38 190.137,-714.8 188.793,-734.398"/>
<polygon fill="black" stroke="black" points="185.295,-734.224 187.901,-744.493 192.268,-734.84 185.295,-734.224"/>
</g>
<!-- viral RNA+N&#45;methyl&#45;Guanine&#45;&gt;5&#39;cap&#45;viral&#45;RNA -->
<g id="edge40" class="edge"><title>viral RNA+N&#45;methyl&#45;Guanine&#45;&gt;5&#39;cap&#45;viral&#45;RNA</title>
<path fill="none" stroke="black" d="M79.0084,-725.19C73.0969,-710.064 66.2664,-692.587 60.5233,-677.893"/>
<polygon fill="black" stroke="black" points="63.6457,-676.267 56.7457,-668.227 57.126,-678.815 63.6457,-676.267"/>
</g>
<!-- STAT3 -->
<g id="node41" class="node"><title>STAT3</title>
<ellipse fill="none" stroke="black" cx="576" cy="-761.99" rx="18" ry="18"/>
<text text-anchor="middle" x="576" y="-760.79" font-family="Times,serif" font-size="4.00">STAT3</text>
</g>
<!-- STAT3&#45;&gt;Inhibited ISGF3 precursor? -->
<g id="edge41" class="edge"><title>STAT3&#45;&gt;Inhibited ISGF3 precursor?</title>
<path fill="none" stroke="black" d="M576,-743.503C576,-729.66 576,-709.679 576,-691.393"/>
<polygon fill="black" stroke="black" points="579.5,-691.171 576,-681.171 572.5,-691.171 579.5,-691.171"/>
</g>
<!-- RIG&#45;I&#45;&gt;RIG&#45;1 M&#45;Protein -->
<g id="edge43" class="edge"><title>RIG&#45;I&#45;&gt;RIG&#45;1 M&#45;Protein</title>
<path fill="none" stroke="black" d="M331.123,-627.657C323.974,-610.825 312.597,-584.036 303.619,-562.898"/>
<polygon fill="black" stroke="black" points="306.818,-561.476 299.687,-553.64 300.375,-564.213 306.818,-561.476"/>
</g>
<!-- RIG&#45;I&#45;&gt;RIG&#45;I&#45;mitoMAVS -->
<g id="edge42" class="edge"><title>RIG&#45;I&#45;&gt;RIG&#45;I&#45;mitoMAVS</title>
<path fill="none" stroke="black" d="M341.541,-627.173C344.955,-611.1 350.226,-586.278 354.562,-565.855"/>
<polygon fill="black" stroke="black" points="358.013,-566.453 356.667,-555.944 351.166,-564.999 358.013,-566.453"/>
</g>
<!-- ISGF3 precursor&#45;&gt;Inhibited ISGF3 precursor? -->
<g id="edge45" class="edge"><title>ISGF3 precursor&#45;&gt;Inhibited ISGF3 precursor?</title>
<path fill="none" stroke="black" d="M648.438,-741.718C636.248,-725.586 618.51,-702.109 603.638,-682.427"/>
<polygon fill="black" stroke="black" points="606.285,-680.125 597.464,-674.256 600.7,-684.345 606.285,-680.125"/>
</g>
<!-- ISGF3 precursor&#45;&gt;ISGF3 -->
<g id="edge44" class="edge"><title>ISGF3 precursor&#45;&gt;ISGF3</title>
<path fill="none" stroke="black" d="M678.801,-742.463C691.207,-727.676 708.714,-706.274 723,-686.746 727.088,-681.158 731.305,-674.991 735.156,-669.176"/>
<polygon fill="black" stroke="black" points="738.306,-670.753 740.836,-660.465 732.442,-666.93 738.306,-670.753"/>
</g>
<!-- IRF3&#45;&gt;p38&#45;NFkB&#45;IRF3 -->
<g id="edge46" class="edge"><title>IRF3&#45;&gt;p38&#45;NFkB&#45;IRF3</title>
<path fill="none" stroke="black" d="M319.298,-320.181C324.303,-311.009 330.851,-299.012 336.842,-288.034"/>
<polygon fill="black" stroke="black" points="339.98,-289.591 341.698,-279.137 333.835,-286.238 339.98,-289.591"/>
</g>
<!-- receptor complex&#45;&gt;IFNL -->
<g id="edge47" class="edge"><title>receptor complex&#45;&gt;IFNL</title>
<path fill="none" stroke="black" d="M369.609,-49.3046C373.488,-58.51 377.318,-69.3253 380.163,-79.03"/>
<polygon fill="black" stroke="black" points="376.862,-80.2351 382.82,-88.9961 383.626,-78.432 376.862,-80.2351"/>
</g>
<!-- RNA -->
<g id="node46" class="node"><title>RNA</title>
<ellipse fill="none" stroke="black" cx="183" cy="-856.327" rx="18" ry="18"/>
<text text-anchor="middle" x="183" y="-855.127" font-family="Times,serif" font-size="4.00">RNA</text>
</g>
<!-- RNA&#45;&gt;dsRNA -->
<g id="edge48" class="edge"><title>RNA&#45;&gt;dsRNA</title>
<path fill="none" stroke="black" d="M183,-837.959C183,-824.546 183,-805.733 183,-790.309"/>
<polygon fill="black" stroke="black" points="186.5,-790.28 183,-780.28 179.5,-790.28 186.5,-790.28"/>
</g>
</g>
</svg>
