<?xml version="1.0" encoding="UTF-8" standalone="no"?>
<!DOCTYPE svg PUBLIC "-//W3C//DTD SVG 1.1//EN"
 "http://www.w3.org/Graphics/SVG/1.1/DTD/svg11.dtd">
<!-- Generated by graphviz version 2.38.0 (20140413.2041)
 -->
<!-- Title: G Pages: 1 -->
<svg width="1048pt" height="875pt"
 viewBox="0.00 0.00 1048.09 874.93" xmlns="http://www.w3.org/2000/svg" xmlns:xlink="http://www.w3.org/1999/xlink">
<g id="graph0" class="graph" transform="scale(1 1) rotate(0) translate(4 870.933)">
<title>G</title>
<polygon fill="white" stroke="none" points="-4,4 -4,-870.933 1044.09,-870.933 1044.09,4 -4,4"/>
<!-- STAT1 -->
<g id="node1" class="node"><title>STAT1</title>
<ellipse fill="none" stroke="black" cx="95.0018" cy="-847.841" rx="18" ry="18"/>
<text text-anchor="middle" x="95.0018" y="-846.641" font-family="Times,serif" font-size="4.00">STAT1</text>
</g>
<!-- ISGF3 precursor -->
<g id="node35" class="node"><title>ISGF3 precursor</title>
<ellipse fill="none" stroke="black" cx="122.002" cy="-753.505" rx="24.8512" ry="24.8513"/>
<text text-anchor="middle" x="122.002" y="-752.305" font-family="Times,serif" font-size="4.00">ISGF3 precursor</text>
</g>
<!-- STAT1&#45;&gt;ISGF3 precursor -->
<g id="edge1" class="edge"><title>STAT1&#45;&gt;ISGF3 precursor</title>
<path fill="none" stroke="black" d="M99.8288,-830.333C103.304,-818.448 108.11,-802.014 112.359,-787.484"/>
<polygon fill="black" stroke="black" points="115.741,-788.388 115.188,-777.807 109.022,-786.423 115.741,-788.388"/>
</g>
<!-- RIG&#45;I&#45;MAVS -->
<g id="node2" class="node"><title>RIG&#45;I&#45;MAVS</title>
<ellipse fill="none" stroke="black" cx="795.002" cy="-415.342" rx="21.9898" ry="21.9898"/>
<text text-anchor="middle" x="795.002" y="-414.142" font-family="Times,serif" font-size="4.00">RIG&#45;I&#45;MAVS</text>
</g>
<!-- IRF1 -->
<g id="node8" class="node"><title>IRF1</title>
<ellipse fill="none" stroke="black" cx="766.002" cy="-255.9" rx="18" ry="18"/>
<text text-anchor="middle" x="766.002" y="-254.7" font-family="Times,serif" font-size="4.00">IRF1</text>
</g>
<!-- RIG&#45;I&#45;MAVS&#45;&gt;IRF1 -->
<g id="edge2" class="edge"><title>RIG&#45;I&#45;MAVS&#45;&gt;IRF1</title>
<path fill="none" stroke="black" d="M791.211,-393.759C786.019,-365.575 776.69,-314.926 770.952,-283.777"/>
<polygon fill="black" stroke="black" points="774.339,-282.842 769.086,-273.642 767.455,-284.11 774.339,-282.842"/>
</g>
<!-- IRF3 -->
<g id="node31" class="node"><title>IRF3</title>
<ellipse fill="none" stroke="black" cx="818.002" cy="-328.461" rx="18" ry="18"/>
<text text-anchor="middle" x="818.002" y="-327.261" font-family="Times,serif" font-size="4.00">IRF3</text>
</g>
<!-- RIG&#45;I&#45;MAVS&#45;&gt;IRF3 -->
<g id="edge3" class="edge"><title>RIG&#45;I&#45;MAVS&#45;&gt;IRF3</title>
<path fill="none" stroke="black" d="M800.452,-394.226C803.566,-382.736 807.506,-368.194 810.864,-355.802"/>
<polygon fill="black" stroke="black" points="814.28,-356.58 813.517,-346.013 807.523,-354.749 814.28,-356.58"/>
</g>
<!-- antiviral proteins -->
<g id="node3" class="node"><title>antiviral proteins</title>
<ellipse fill="none" stroke="black" cx="274.002" cy="-415.342" rx="26.533" ry="26.533"/>
<text text-anchor="middle" x="274.002" y="-414.142" font-family="Times,serif" font-size="4.00">antiviral proteins</text>
</g>
<!-- ISGs -->
<g id="node4" class="node"><title>ISGs</title>
<ellipse fill="none" stroke="black" cx="209.002" cy="-521.345" rx="18" ry="18"/>
<text text-anchor="middle" x="209.002" y="-520.145" font-family="Times,serif" font-size="4.00">ISGs</text>
</g>
<!-- ISGs&#45;&gt;antiviral proteins -->
<g id="edge5" class="edge"><title>ISGs&#45;&gt;antiviral proteins</title>
<path fill="none" stroke="black" d="M218.315,-505.444C227.77,-490.316 242.688,-466.446 254.704,-447.218"/>
<polygon fill="black" stroke="black" points="257.83,-448.821 260.162,-438.486 251.894,-445.111 257.83,-448.821"/>
</g>
<!-- IFNs -->
<g id="node23" class="node"><title>IFNs</title>
<ellipse fill="none" stroke="black" cx="210.002" cy="-415.342" rx="18" ry="18"/>
<text text-anchor="middle" x="210.002" y="-414.142" font-family="Times,serif" font-size="4.00">IFNs</text>
</g>
<!-- ISGs&#45;&gt;IFNs -->
<g id="edge4" class="edge"><title>ISGs&#45;&gt;IFNs</title>
<path fill="none" stroke="black" d="M209.167,-503.171C209.323,-486.987 209.558,-462.474 209.74,-443.616"/>
<polygon fill="black" stroke="black" points="213.24,-443.574 209.836,-433.541 206.24,-443.507 213.24,-443.574"/>
</g>
<!-- p38&#45;NFkB -->
<g id="node5" class="node"><title>p38&#45;NFkB</title>
<ellipse fill="none" stroke="black" cx="821.002" cy="-255.9" rx="18.6233" ry="18.6233"/>
<text text-anchor="middle" x="821.002" y="-254.7" font-family="Times,serif" font-size="4.00">p38&#45;NFkB</text>
</g>
<!-- IFN&#45;III -->
<g id="node40" class="node"><title>IFN&#45;III</title>
<ellipse fill="none" stroke="black" cx="793.002" cy="-183.338" rx="18" ry="18"/>
<text text-anchor="middle" x="793.002" y="-182.138" font-family="Times,serif" font-size="4.00">IFN&#45;III</text>
</g>
<!-- p38&#45;NFkB&#45;&gt;IFN&#45;III -->
<g id="edge6" class="edge"><title>p38&#45;NFkB&#45;&gt;IFN&#45;III</title>
<path fill="none" stroke="black" d="M814.366,-238.178C811.005,-229.708 806.853,-219.245 803.106,-209.801"/>
<polygon fill="black" stroke="black" points="806.339,-208.458 799.397,-200.454 799.832,-211.04 806.339,-208.458"/>
</g>
<!-- IFIH1 -->
<g id="node6" class="node"><title>IFIH1</title>
<ellipse fill="none" stroke="black" cx="808.002" cy="-847.841" rx="18" ry="18"/>
<text text-anchor="middle" x="808.002" y="-846.641" font-family="Times,serif" font-size="4.00">IFIH1</text>
</g>
<!-- dsRNA_vesicle -->
<g id="node7" class="node"><title>dsRNA_vesicle</title>
<ellipse fill="none" stroke="black" cx="688.002" cy="-636.364" rx="24.8513" ry="24.8513"/>
<text text-anchor="middle" x="688.002" y="-635.164" font-family="Times,serif" font-size="4.00">dsRNA_vesicle</text>
</g>
<!-- dsRNA -->
<g id="node26" class="node"><title>dsRNA</title>
<ellipse fill="none" stroke="black" cx="688.002" cy="-753.505" rx="18" ry="18"/>
<text text-anchor="middle" x="688.002" y="-752.305" font-family="Times,serif" font-size="4.00">dsRNA</text>
</g>
<!-- dsRNA_vesicle&#45;&gt;dsRNA -->
<g id="edge7" class="edge"><title>dsRNA_vesicle&#45;&gt;dsRNA</title>
<path fill="none" stroke="black" d="M693.579,-661.025C695.067,-679.894 695.139,-706.314 693.795,-725.913"/>
<polygon fill="black" stroke="black" points="690.297,-725.739 692.902,-736.008 697.269,-726.355 690.297,-725.739"/>
</g>
<!-- IRF1&#45;&gt;IFN&#45;III -->
<g id="edge8" class="edge"><title>IRF1&#45;&gt;IFN&#45;III</title>
<path fill="none" stroke="black" d="M772.129,-238.888C775.408,-230.317 779.525,-219.558 783.234,-209.865"/>
<polygon fill="black" stroke="black" points="786.594,-210.877 786.899,-200.286 780.057,-208.375 786.594,-210.877"/>
</g>
<!-- 80S ribosome -->
<g id="node9" class="node"><title>80S ribosome</title>
<ellipse fill="none" stroke="black" cx="276.002" cy="-521.345" rx="22.6101" ry="22.6101"/>
<text text-anchor="middle" x="276.002" y="-520.145" font-family="Times,serif" font-size="4.00">80S ribosome</text>
</g>
<!-- 80S ribosome&#45;&gt;antiviral proteins -->
<g id="edge10" class="edge"><title>80S ribosome&#45;&gt;antiviral proteins</title>
<path fill="none" stroke="black" d="M275.583,-498.543C275.326,-485.185 274.991,-467.76 274.695,-452.392"/>
<polygon fill="black" stroke="black" points="278.19,-452.088 274.498,-442.157 271.191,-452.222 278.19,-452.088"/>
</g>
<!-- 80S ribosome&#45;&gt;IFNs -->
<g id="edge9" class="edge"><title>80S ribosome&#45;&gt;IFNs</title>
<path fill="none" stroke="black" d="M264.202,-501.751C253.177,-484.378 236.678,-458.378 224.781,-439.63"/>
<polygon fill="black" stroke="black" points="227.667,-437.647 219.354,-431.079 221.757,-441.398 227.667,-437.647"/>
</g>
<!-- inhibited 80S ribosome -->
<g id="node30" class="node"><title>inhibited 80S ribosome</title>
<ellipse fill="none" stroke="black" cx="388.002" cy="-415.342" rx="32.7614" ry="32.7614"/>
<text text-anchor="middle" x="388.002" y="-414.142" font-family="Times,serif" font-size="4.00">inhibited 80S ribosome</text>
</g>
<!-- 80S ribosome&#45;&gt;inhibited 80S ribosome -->
<g id="edge11" class="edge"><title>80S ribosome&#45;&gt;inhibited 80S ribosome</title>
<path fill="none" stroke="black" d="M291.719,-504.744C298.249,-498.33 305.938,-490.863 313.002,-484.222 327.014,-471.05 342.762,-456.726 356.197,-444.646"/>
<polygon fill="black" stroke="black" points="358.702,-447.101 363.809,-437.818 354.028,-441.89 358.702,-447.101"/>
</g>
<!-- IFN&#45;sensitive&#45;response&#45;element -->
<g id="node10" class="node"><title>IFN&#45;sensitive&#45;response&#45;element</title>
<ellipse fill="none" stroke="black" cx="130.002" cy="-636.364" rx="41.7924" ry="41.7924"/>
<text text-anchor="middle" x="130.002" y="-635.164" font-family="Times,serif" font-size="4.00">IFN&#45;sensitive&#45;response&#45;element</text>
</g>
<!-- IFN&#45;sensitive&#45;response&#45;element&#45;&gt;ISGs -->
<g id="edge12" class="edge"><title>IFN&#45;sensitive&#45;response&#45;element&#45;&gt;ISGs</title>
<path fill="none" stroke="black" d="M153.704,-601.455C166.513,-583.131 181.974,-561.012 193.287,-544.827"/>
<polygon fill="black" stroke="black" points="196.242,-546.709 199.103,-536.507 190.505,-542.698 196.242,-546.709"/>
</g>
<!-- M -->
<g id="node11" class="node"><title>M</title>
<ellipse fill="none" stroke="black" cx="460.002" cy="-753.505" rx="18" ry="18"/>
<text text-anchor="middle" x="460.002" y="-752.305" font-family="Times,serif" font-size="4.00">M</text>
</g>
<!-- RIG&#45;1 M&#45;Protein -->
<g id="node38" class="node"><title>RIG&#45;1 M&#45;Protein</title>
<ellipse fill="none" stroke="black" cx="487.002" cy="-636.364" rx="25.4118" ry="25.4118"/>
<text text-anchor="middle" x="487.002" y="-635.164" font-family="Times,serif" font-size="4.00">RIG&#45;1 M&#45;Protein</text>
</g>
<!-- M&#45;&gt;RIG&#45;1 M&#45;Protein -->
<g id="edge13" class="edge"><title>M&#45;&gt;RIG&#45;1 M&#45;Protein</title>
<path fill="none" stroke="black" d="M463.986,-735.516C467.944,-718.635 474.123,-692.285 479.083,-671.135"/>
<polygon fill="black" stroke="black" points="482.529,-671.77 481.404,-661.235 475.714,-670.172 482.529,-671.77"/>
</g>
<!-- RIG&#45;I_dsRNA -->
<g id="node12" class="node"><title>RIG&#45;I_dsRNA</title>
<ellipse fill="none" stroke="black" cx="622.002" cy="-636.364" rx="22.6101" ry="22.6101"/>
<text text-anchor="middle" x="622.002" y="-635.164" font-family="Times,serif" font-size="4.00">RIG&#45;I_dsRNA</text>
</g>
<!-- RIG&#45;I&#45;mitoMAVS -->
<g id="node16" class="node"><title>RIG&#45;I&#45;mitoMAVS</title>
<ellipse fill="none" stroke="black" cx="740.002" cy="-521.345" rx="26.533" ry="26.533"/>
<text text-anchor="middle" x="740.002" y="-520.145" font-family="Times,serif" font-size="4.00">RIG&#45;I&#45;mitoMAVS</text>
</g>
<!-- RIG&#45;I_dsRNA&#45;&gt;RIG&#45;I&#45;mitoMAVS -->
<g id="edge14" class="edge"><title>RIG&#45;I_dsRNA&#45;&gt;RIG&#45;I&#45;mitoMAVS</title>
<path fill="none" stroke="black" d="M634.936,-617.182C640.482,-609.841 647.235,-601.469 654.002,-594.468 671.693,-576.167 693.721,-557.765 711.054,-544.129"/>
<polygon fill="black" stroke="black" points="713.398,-546.74 719.146,-537.839 709.103,-541.213 713.398,-546.74"/>
</g>
<!-- RIG&#45;I -->
<g id="node13" class="node"><title>RIG&#45;I</title>
<ellipse fill="none" stroke="black" cx="514.002" cy="-753.505" rx="18" ry="18"/>
<text text-anchor="middle" x="514.002" y="-752.305" font-family="Times,serif" font-size="4.00">RIG&#45;I</text>
</g>
<!-- RIG&#45;I&#45;&gt;RIG&#45;I_dsRNA -->
<g id="edge16" class="edge"><title>RIG&#45;I&#45;&gt;RIG&#45;I_dsRNA</title>
<path fill="none" stroke="black" d="M523.364,-737.838C528.29,-730.502 534.622,-721.637 541.002,-714.26 558.442,-694.095 580.515,-673.408 597.213,-658.577"/>
<polygon fill="black" stroke="black" points="599.731,-661.024 604.935,-651.795 595.112,-655.765 599.731,-661.024"/>
</g>
<!-- RIG&#45;I&#45;&gt;RIG&#45;1 M&#45;Protein -->
<g id="edge15" class="edge"><title>RIG&#45;I&#45;&gt;RIG&#45;1 M&#45;Protein</title>
<path fill="none" stroke="black" d="M510.018,-735.516C506.06,-718.635 499.88,-692.285 494.921,-671.135"/>
<polygon fill="black" stroke="black" points="498.29,-670.172 492.599,-661.235 491.475,-671.77 498.29,-670.172"/>
</g>
<!-- IKK -->
<g id="node14" class="node"><title>IKK</title>
<ellipse fill="none" stroke="black" cx="842.002" cy="-636.364" rx="18" ry="18"/>
<text text-anchor="middle" x="842.002" y="-635.164" font-family="Times,serif" font-size="4.00">IKK</text>
</g>
<!-- IKK&#45;TBK1 -->
<g id="node44" class="node"><title>IKK&#45;TBK1</title>
<ellipse fill="none" stroke="black" cx="842.002" cy="-521.345" rx="19.1842" ry="19.1842"/>
<text text-anchor="middle" x="842.002" y="-520.145" font-family="Times,serif" font-size="4.00">IKK&#45;TBK1</text>
</g>
<!-- IKK&#45;&gt;IKK&#45;TBK1 -->
<g id="edge17" class="edge"><title>IKK&#45;&gt;IKK&#45;TBK1</title>
<path fill="none" stroke="black" d="M842.002,-618.199C842.002,-600.344 842.002,-572.085 842.002,-550.867"/>
<polygon fill="black" stroke="black" points="845.502,-550.801 842.002,-540.801 838.502,-550.801 845.502,-550.801"/>
</g>
<!-- PLPro -->
<g id="node15" class="node"><title>PLPro</title>
<ellipse fill="none" stroke="black" cx="568.002" cy="-753.505" rx="18" ry="18"/>
<text text-anchor="middle" x="568.002" y="-752.305" font-family="Times,serif" font-size="4.00">PLPro</text>
</g>
<!-- PLPro&#45;&gt;RIG&#45;I_dsRNA -->
<g id="edge18" class="edge"><title>PLPro&#45;&gt;RIG&#45;I_dsRNA</title>
<path fill="none" stroke="black" d="M575.284,-736.977C583.748,-718.93 597.896,-688.764 608.409,-666.347"/>
<polygon fill="black" stroke="black" points="611.588,-667.812 612.665,-657.273 605.25,-664.84 611.588,-667.812"/>
</g>
<!-- RIG&#45;I&#45;mitoMAVS&#45;&gt;RIG&#45;I&#45;MAVS -->
<g id="edge19" class="edge"><title>RIG&#45;I&#45;mitoMAVS&#45;&gt;RIG&#45;I&#45;MAVS</title>
<path fill="none" stroke="black" d="M752.072,-497.521C760.372,-481.826 771.445,-460.887 780.266,-444.207"/>
<polygon fill="black" stroke="black" points="783.581,-445.426 785.161,-434.949 777.393,-442.153 783.581,-445.426"/>
</g>
<!-- Ifn lambda -->
<g id="node17" class="node"><title>Ifn lambda</title>
<ellipse fill="none" stroke="black" cx="793.002" cy="-109.186" rx="20.3062" ry="20.3063"/>
<text text-anchor="middle" x="793.002" y="-107.986" font-family="Times,serif" font-size="4.00">Ifn lambda</text>
</g>
<!-- receptor complex -->
<g id="node18" class="node"><title>receptor complex</title>
<ellipse fill="none" stroke="black" cx="765.002" cy="-26.5165" rx="26.533" ry="26.533"/>
<text text-anchor="middle" x="765.002" y="-25.3165" font-family="Times,serif" font-size="4.00">receptor complex</text>
</g>
<!-- Ifn lambda&#45;&gt;receptor complex -->
<g id="edge20" class="edge"><title>Ifn lambda&#45;&gt;receptor complex</title>
<path fill="none" stroke="black" d="M781.966,-92.2479C778.021,-83.7576 773.873,-72.9571 770.488,-62.6224"/>
<polygon fill="black" stroke="black" points="773.796,-61.4731 767.506,-52.9473 767.106,-63.5346 773.796,-61.4731"/>
</g>
<!-- receptor complex&#45;&gt;Ifn lambda -->
<g id="edge21" class="edge"><title>receptor complex&#45;&gt;Ifn lambda</title>
<path fill="none" stroke="black" d="M778.686,-49.4232C782.551,-58.5156 786.405,-69.1995 789.371,-78.9461"/>
<polygon fill="black" stroke="black" points="786.025,-79.979 792.102,-88.6578 792.764,-78.0837 786.025,-79.979"/>
</g>
<!-- Riplet_TRIM25 -->
<g id="node19" class="node"><title>Riplet_TRIM25</title>
<ellipse fill="none" stroke="black" cx="628.002" cy="-753.505" rx="24.2908" ry="24.2908"/>
<text text-anchor="middle" x="628.002" y="-752.305" font-family="Times,serif" font-size="4.00">Riplet_TRIM25</text>
</g>
<!-- Riplet_TRIM25&#45;&gt;RIG&#45;I_dsRNA -->
<g id="edge22" class="edge"><title>Riplet_TRIM25&#45;&gt;RIG&#45;I_dsRNA</title>
<path fill="none" stroke="black" d="M626.773,-728.927C625.881,-711.797 624.662,-688.413 623.68,-669.564"/>
<polygon fill="black" stroke="black" points="627.163,-669.155 623.148,-659.351 620.173,-669.519 627.163,-669.155"/>
</g>
<!-- SOCS1 -->
<g id="node20" class="node"><title>SOCS1</title>
<ellipse fill="none" stroke="black" cx="683.002" cy="-109.186" rx="18" ry="18"/>
<text text-anchor="middle" x="683.002" y="-107.986" font-family="Times,serif" font-size="4.00">SOCS1</text>
</g>
<!-- SOCS1&#45;&gt;receptor complex -->
<g id="edge23" class="edge"><title>SOCS1&#45;&gt;receptor complex</title>
<path fill="none" stroke="black" d="M695.456,-95.9337C706.978,-84.5986 724.471,-67.3892 739.03,-53.0665"/>
<polygon fill="black" stroke="black" points="741.655,-55.3943 746.329,-45.8862 736.746,-50.4042 741.655,-55.3943"/>
</g>
<!-- STAT2 -->
<g id="node21" class="node"><title>STAT2</title>
<ellipse fill="none" stroke="black" cx="149.002" cy="-847.841" rx="18" ry="18"/>
<text text-anchor="middle" x="149.002" y="-846.641" font-family="Times,serif" font-size="4.00">STAT2</text>
</g>
<!-- STAT2&#45;&gt;ISGF3 precursor -->
<g id="edge24" class="edge"><title>STAT2&#45;&gt;ISGF3 precursor</title>
<path fill="none" stroke="black" d="M144.175,-830.333C140.699,-818.448 135.894,-802.014 131.645,-787.484"/>
<polygon fill="black" stroke="black" points="134.982,-786.423 128.816,-777.807 128.263,-788.388 134.982,-786.423"/>
</g>
<!-- ribosomal 40S subunit -->
<g id="node22" class="node"><title>ribosomal 40S subunit</title>
<ellipse fill="none" stroke="black" cx="358.002" cy="-636.364" rx="31.6406" ry="31.6406"/>
<text text-anchor="middle" x="358.002" y="-635.164" font-family="Times,serif" font-size="4.00">ribosomal 40S subunit</text>
</g>
<!-- ribosomal 40S subunit&#45;&gt;80S ribosome -->
<g id="edge25" class="edge"><title>ribosomal 40S subunit&#45;&gt;80S ribosome</title>
<path fill="none" stroke="black" d="M339.599,-610.001C326.31,-591.685 308.415,-567.02 294.993,-548.521"/>
<polygon fill="black" stroke="black" points="297.694,-546.283 288.989,-540.245 292.028,-550.394 297.694,-546.283"/>
</g>
<!-- inhibited ribosomal 40S SU -->
<g id="node28" class="node"><title>inhibited ribosomal 40S SU</title>
<ellipse fill="none" stroke="black" cx="359.002" cy="-521.345" rx="37.2466" ry="37.2466"/>
<text text-anchor="middle" x="359.002" y="-520.145" font-family="Times,serif" font-size="4.00">inhibited ribosomal 40S SU</text>
</g>
<!-- ribosomal 40S subunit&#45;&gt;inhibited ribosomal 40S SU -->
<g id="edge26" class="edge"><title>ribosomal 40S subunit&#45;&gt;inhibited ribosomal 40S SU</title>
<path fill="none" stroke="black" d="M358.275,-604.481C358.372,-593.563 358.483,-581.025 358.588,-569.086"/>
<polygon fill="black" stroke="black" points="362.09,-568.836 358.679,-558.805 355.091,-568.774 362.09,-568.836"/>
</g>
<!-- 5&#39;cap&#45;viral&#45;RNA -->
<g id="node24" class="node"><title>5&#39;cap&#45;viral&#45;RNA</title>
<ellipse fill="none" stroke="black" cx="957.002" cy="-636.364" rx="24.8513" ry="24.8513"/>
<text text-anchor="middle" x="957.002" y="-635.164" font-family="Times,serif" font-size="4.00">5&#39;cap&#45;viral&#45;RNA</text>
</g>
<!-- nsp14 -->
<g id="node25" class="node"><title>nsp14</title>
<ellipse fill="none" stroke="black" cx="966.002" cy="-847.841" rx="18" ry="18"/>
<text text-anchor="middle" x="966.002" y="-846.641" font-family="Times,serif" font-size="4.00">nsp14</text>
</g>
<!-- viral RNA+N&#45;methyl&#45;Guanine -->
<g id="node46" class="node"><title>viral RNA+N&#45;methyl&#45;Guanine</title>
<ellipse fill="none" stroke="black" cx="994.002" cy="-753.505" rx="39.4904" ry="39.4904"/>
<text text-anchor="middle" x="994.002" y="-752.305" font-family="Times,serif" font-size="4.00">viral RNA+N&#45;methyl&#45;Guanine</text>
</g>
<!-- nsp14&#45;&gt;viral RNA+N&#45;methyl&#45;Guanine -->
<g id="edge27" class="edge"><title>nsp14&#45;&gt;viral RNA+N&#45;methyl&#45;Guanine</title>
<path fill="none" stroke="black" d="M971.008,-830.333C973.537,-821.993 976.745,-811.413 979.956,-800.823"/>
<polygon fill="black" stroke="black" points="983.334,-801.744 982.887,-791.158 976.636,-799.712 983.334,-801.744"/>
</g>
<!-- dsRNA&#45;&gt;RIG&#45;I&#45;MAVS -->
<g id="edge29" class="edge"><title>dsRNA&#45;&gt;RIG&#45;I&#45;MAVS</title>
<path fill="none" stroke="black" d="M703.733,-744.469C724.427,-732.944 760.032,-709.607 776.002,-678.26 814.646,-602.409 807.026,-497.87 800.071,-446.842"/>
<polygon fill="black" stroke="black" points="803.513,-446.189 798.614,-436.795 796.586,-447.194 803.513,-446.189"/>
</g>
<!-- dsRNA&#45;&gt;dsRNA_vesicle -->
<g id="edge28" class="edge"><title>dsRNA&#45;&gt;dsRNA_vesicle</title>
<path fill="none" stroke="black" d="M683.101,-736.008C681.198,-719.122 680.764,-692.398 681.798,-671.023"/>
<polygon fill="black" stroke="black" points="685.293,-671.225 682.424,-661.025 678.306,-670.787 685.293,-671.225"/>
</g>
<!-- dsRNA&#45;&gt;RIG&#45;I_dsRNA -->
<g id="edge30" class="edge"><title>dsRNA&#45;&gt;RIG&#45;I_dsRNA</title>
<path fill="none" stroke="black" d="M679.373,-737.452C668.932,-719.237 651.135,-688.189 638.126,-665.494"/>
<polygon fill="black" stroke="black" points="641.063,-663.58 633.053,-656.644 634.99,-667.061 641.063,-663.58"/>
</g>
<!-- Nsp1 -->
<g id="node27" class="node"><title>Nsp1</title>
<ellipse fill="none" stroke="black" cx="426.002" cy="-636.364" rx="18" ry="18"/>
<text text-anchor="middle" x="426.002" y="-635.164" font-family="Times,serif" font-size="4.00">Nsp1</text>
</g>
<!-- Nsp1&#45;&gt;inhibited ribosomal 40S SU -->
<g id="edge32" class="edge"><title>Nsp1&#45;&gt;inhibited ribosomal 40S SU</title>
<path fill="none" stroke="black" d="M417.243,-620.589C408.529,-605.891 394.77,-582.682 382.813,-562.512"/>
<polygon fill="black" stroke="black" points="385.756,-560.612 377.646,-553.795 379.734,-564.181 385.756,-560.612"/>
</g>
<!-- Nsp1&#45;&gt;inhibited 80S ribosome -->
<g id="edge31" class="edge"><title>Nsp1&#45;&gt;inhibited 80S ribosome</title>
<path fill="none" stroke="black" d="M424.207,-618.038C421.149,-589.841 414.341,-532.334 405.002,-484.222 403.286,-475.384 401.139,-465.974 398.954,-457.064"/>
<polygon fill="black" stroke="black" points="402.326,-456.119 396.493,-447.274 395.537,-457.826 402.326,-456.119"/>
</g>
<!-- viral RNA -->
<g id="node29" class="node"><title>viral RNA</title>
<ellipse fill="none" stroke="black" cx="1021" cy="-847.841" rx="19.1842" ry="19.1842"/>
<text text-anchor="middle" x="1021" y="-846.641" font-family="Times,serif" font-size="4.00">viral RNA</text>
</g>
<!-- viral RNA&#45;&gt;viral RNA+N&#45;methyl&#45;Guanine -->
<g id="edge33" class="edge"><title>viral RNA&#45;&gt;viral RNA+N&#45;methyl&#45;Guanine</title>
<path fill="none" stroke="black" d="M1015.8,-829.038C1013.45,-821.02 1010.56,-811.138 1007.66,-801.223"/>
<polygon fill="black" stroke="black" points="1010.95,-799.979 1004.78,-791.364 1004.23,-801.944 1010.95,-799.979"/>
</g>
<!-- IRF3&#45;&gt;p38&#45;NFkB -->
<g id="edge34" class="edge"><title>IRF3&#45;&gt;p38&#45;NFkB</title>
<path fill="none" stroke="black" d="M818.728,-310.38C819.053,-302.725 819.446,-293.496 819.812,-284.875"/>
<polygon fill="black" stroke="black" points="823.312,-284.948 820.24,-274.808 816.319,-284.65 823.312,-284.948"/>
</g>
<!-- ribosomal 60S subunit -->
<g id="node32" class="node"><title>ribosomal 60S subunit</title>
<ellipse fill="none" stroke="black" cx="276.002" cy="-636.364" rx="31.6406" ry="31.6406"/>
<text text-anchor="middle" x="276.002" y="-635.164" font-family="Times,serif" font-size="4.00">ribosomal 60S subunit</text>
</g>
<!-- ribosomal 60S subunit&#45;&gt;80S ribosome -->
<g id="edge35" class="edge"><title>ribosomal 60S subunit&#45;&gt;80S ribosome</title>
<path fill="none" stroke="black" d="M276.002,-604.481C276.002,-588.975 276.002,-570.203 276.002,-554.522"/>
<polygon fill="black" stroke="black" points="279.502,-554.237 276.002,-544.237 272.502,-554.237 279.502,-554.237"/>
</g>
<!-- MAVS -->
<g id="node33" class="node"><title>MAVS</title>
<ellipse fill="none" stroke="black" cx="749.002" cy="-636.364" rx="18" ry="18"/>
<text text-anchor="middle" x="749.002" y="-635.164" font-family="Times,serif" font-size="4.00">MAVS</text>
</g>
<!-- MAVS&#45;&gt;RIG&#45;I&#45;mitoMAVS -->
<g id="edge36" class="edge"><title>MAVS&#45;&gt;RIG&#45;I&#45;mitoMAVS</title>
<path fill="none" stroke="black" d="M747.635,-618.199C746.37,-602.318 744.45,-578.208 742.852,-558.141"/>
<polygon fill="black" stroke="black" points="746.334,-557.772 742.051,-548.082 739.356,-558.328 746.334,-557.772"/>
</g>
<!-- RNA -->
<g id="node34" class="node"><title>RNA</title>
<ellipse fill="none" stroke="black" cx="688.002" cy="-847.841" rx="18" ry="18"/>
<text text-anchor="middle" x="688.002" y="-846.641" font-family="Times,serif" font-size="4.00">RNA</text>
</g>
<!-- RNA&#45;&gt;dsRNA -->
<g id="edge37" class="edge"><title>RNA&#45;&gt;dsRNA</title>
<path fill="none" stroke="black" d="M688.002,-829.473C688.002,-816.061 688.002,-797.248 688.002,-781.824"/>
<polygon fill="black" stroke="black" points="691.502,-781.795 688.002,-771.795 684.502,-781.795 691.502,-781.795"/>
</g>
<!-- Inhibited ISGF3 precursor -->
<g id="node37" class="node"><title>Inhibited ISGF3 precursor</title>
<ellipse fill="none" stroke="black" cx="35.0018" cy="-636.364" rx="35.0036" ry="35.0036"/>
<text text-anchor="middle" x="35.0018" y="-635.164" font-family="Times,serif" font-size="4.00">Inhibited ISGF3 precursor</text>
</g>
<!-- ISGF3 precursor&#45;&gt;Inhibited ISGF3 precursor -->
<g id="edge38" class="edge"><title>ISGF3 precursor&#45;&gt;Inhibited ISGF3 precursor</title>
<path fill="none" stroke="black" d="M107.44,-733.233C95.0807,-716.876 77.0177,-692.971 62.0213,-673.124"/>
<polygon fill="black" stroke="black" points="64.6287,-670.769 55.8076,-664.9 59.0437,-674.989 64.6287,-670.769"/>
</g>
<!-- ISGF3 -->
<g id="node39" class="node"><title>ISGF3</title>
<ellipse fill="none" stroke="black" cx="208.002" cy="-636.364" rx="18" ry="18"/>
<text text-anchor="middle" x="208.002" y="-635.164" font-family="Times,serif" font-size="4.00">ISGF3</text>
</g>
<!-- ISGF3 precursor&#45;&gt;ISGF3 -->
<g id="edge39" class="edge"><title>ISGF3 precursor&#45;&gt;ISGF3</title>
<path fill="none" stroke="black" d="M137.503,-733.939C149.683,-719.131 166.889,-697.719 181.002,-678.26 185.067,-672.656 189.275,-666.483 193.126,-660.668"/>
<polygon fill="black" stroke="black" points="196.275,-662.246 198.81,-651.959 190.413,-658.42 196.275,-662.246"/>
</g>
<!-- STAT3 -->
<g id="node36" class="node"><title>STAT3</title>
<ellipse fill="none" stroke="black" cx="35.0018" cy="-753.505" rx="18" ry="18"/>
<text text-anchor="middle" x="35.0018" y="-752.305" font-family="Times,serif" font-size="4.00">STAT3</text>
</g>
<!-- STAT3&#45;&gt;Inhibited ISGF3 precursor -->
<g id="edge40" class="edge"><title>STAT3&#45;&gt;Inhibited ISGF3 precursor</title>
<path fill="none" stroke="black" d="M35.0018,-735.018C35.0018,-720.898 35.0018,-700.393 35.0018,-681.813"/>
<polygon fill="black" stroke="black" points="38.5019,-681.742 35.0018,-671.742 31.5019,-681.742 38.5019,-681.742"/>
</g>
<!-- ISGF3&#45;&gt;ISGs -->
<g id="edge41" class="edge"><title>ISGF3&#45;&gt;ISGs</title>
<path fill="none" stroke="black" d="M208.154,-618.199C208.314,-600.027 208.571,-571.078 208.759,-549.744"/>
<polygon fill="black" stroke="black" points="212.26,-549.703 208.848,-539.672 205.26,-549.641 212.26,-549.703"/>
</g>
<!-- IFN&#45;III&#45;&gt;Ifn lambda -->
<g id="edge42" class="edge"><title>IFN&#45;III&#45;&gt;Ifn lambda</title>
<path fill="none" stroke="black" d="M793.002,-165.239C793.002,-157.595 793.002,-148.363 793.002,-139.661"/>
<polygon fill="black" stroke="black" points="796.502,-139.451 793.002,-129.451 789.502,-139.452 796.502,-139.451"/>
</g>
<!-- IRF9 -->
<g id="node41" class="node"><title>IRF9</title>
<ellipse fill="none" stroke="black" cx="208.002" cy="-753.505" rx="18" ry="18"/>
<text text-anchor="middle" x="208.002" y="-752.305" font-family="Times,serif" font-size="4.00">IRF9</text>
</g>
<!-- IRF9&#45;&gt;ISGF3 -->
<g id="edge43" class="edge"><title>IRF9&#45;&gt;ISGF3</title>
<path fill="none" stroke="black" d="M208.002,-735.018C208.002,-716.397 208.002,-686.669 208.002,-664.899"/>
<polygon fill="black" stroke="black" points="211.502,-664.639 208.002,-654.639 204.502,-664.639 211.502,-664.639"/>
</g>
<!-- SOCS3 -->
<g id="node42" class="node"><title>SOCS3</title>
<ellipse fill="none" stroke="black" cx="737.002" cy="-109.186" rx="18" ry="18"/>
<text text-anchor="middle" x="737.002" y="-107.986" font-family="Times,serif" font-size="4.00">SOCS3</text>
</g>
<!-- SOCS3&#45;&gt;receptor complex -->
<g id="edge44" class="edge"><title>SOCS3&#45;&gt;receptor complex</title>
<path fill="none" stroke="black" d="M742.668,-91.861C745.727,-83.0489 749.62,-71.8329 753.296,-61.2418"/>
<polygon fill="black" stroke="black" points="756.608,-62.3728 756.581,-51.778 749.995,-60.0774 756.608,-62.3728"/>
</g>
<!-- nsp16 -->
<g id="node43" class="node"><title>nsp16</title>
<ellipse fill="none" stroke="black" cx="919.002" cy="-753.505" rx="18" ry="18"/>
<text text-anchor="middle" x="919.002" y="-752.305" font-family="Times,serif" font-size="4.00">nsp16</text>
</g>
<!-- nsp16&#45;&gt;5&#39;cap&#45;viral&#45;RNA -->
<g id="edge45" class="edge"><title>nsp16&#45;&gt;5&#39;cap&#45;viral&#45;RNA</title>
<path fill="none" stroke="black" d="M924.446,-736.008C930.116,-718.83 939.144,-691.472 946.257,-669.92"/>
<polygon fill="black" stroke="black" points="949.661,-670.774 949.472,-660.181 943.014,-668.581 949.661,-670.774"/>
</g>
<!-- IKK&#45;TBK1&#45;&gt;RIG&#45;I&#45;MAVS -->
<g id="edge46" class="edge"><title>IKK&#45;TBK1&#45;&gt;RIG&#45;I&#45;MAVS</title>
<path fill="none" stroke="black" d="M834.45,-503.635C827.291,-487.793 816.392,-463.675 807.863,-444.802"/>
<polygon fill="black" stroke="black" points="810.959,-443.153 803.651,-435.482 804.58,-446.036 810.959,-443.153"/>
</g>
<!-- TBK1 -->
<g id="node45" class="node"><title>TBK1</title>
<ellipse fill="none" stroke="black" cx="896.002" cy="-636.364" rx="18" ry="18"/>
<text text-anchor="middle" x="896.002" y="-635.164" font-family="Times,serif" font-size="4.00">TBK1</text>
</g>
<!-- TBK1&#45;&gt;IKK&#45;TBK1 -->
<g id="edge47" class="edge"><title>TBK1&#45;&gt;IKK&#45;TBK1</title>
<path fill="none" stroke="black" d="M888.493,-619.65C879.658,-601.157 864.86,-570.185 854.333,-548.153"/>
<polygon fill="black" stroke="black" points="857.443,-546.543 849.973,-539.029 851.126,-549.561 857.443,-546.543"/>
</g>
<!-- viral RNA+N&#45;methyl&#45;Guanine&#45;&gt;5&#39;cap&#45;viral&#45;RNA -->
<g id="edge48" class="edge"><title>viral RNA+N&#45;methyl&#45;Guanine&#45;&gt;5&#39;cap&#45;viral&#45;RNA</title>
<path fill="none" stroke="black" d="M982.193,-715.757C977.496,-701.14 972.134,-684.454 967.567,-670.244"/>
<polygon fill="black" stroke="black" points="970.795,-668.849 964.404,-660.399 964.131,-670.99 970.795,-668.849"/>
</g>
</g>
</svg>
