<?xml version="1.0" encoding="UTF-8" standalone="no"?>
<!DOCTYPE svg PUBLIC "-//W3C//DTD SVG 1.1//EN"
 "http://www.w3.org/Graphics/SVG/1.1/DTD/svg11.dtd">
<!-- Generated by graphviz version 2.38.0 (20140413.2041)
 -->
<!-- Title: G Pages: 1 -->
<svg width="993pt" height="875pt"
 viewBox="0.00 0.00 993.46 874.93" xmlns="http://www.w3.org/2000/svg" xmlns:xlink="http://www.w3.org/1999/xlink">
<g id="graph0" class="graph" transform="scale(1 1) rotate(0) translate(4 870.933)">
<title>G</title>
<polygon fill="white" stroke="none" points="-4,4 -4,-870.933 989.456,-870.933 989.456,4 -4,4"/>
<!-- RIG&#45;I -->
<g id="node1" class="node"><title>RIG&#45;I</title>
<ellipse fill="none" stroke="black" cx="92.4558" cy="-753.505" rx="18" ry="18"/>
<text text-anchor="middle" x="92.4558" y="-752.305" font-family="Times,serif" font-size="4.00">RIG&#45;I</text>
</g>
<!-- RIG&#45;I_dsRNA -->
<g id="node8" class="node"><title>RIG&#45;I_dsRNA</title>
<ellipse fill="none" stroke="black" cx="199.456" cy="-636.364" rx="22.6101" ry="22.6101"/>
<text text-anchor="middle" x="199.456" y="-635.164" font-family="Times,serif" font-size="4.00">RIG&#45;I_dsRNA</text>
</g>
<!-- RIG&#45;I&#45;&gt;RIG&#45;I_dsRNA -->
<g id="edge1" class="edge"><title>RIG&#45;I&#45;&gt;RIG&#45;I_dsRNA</title>
<path fill="none" stroke="black" d="M105.422,-740.623C120.779,-726.338 146.872,-701.391 167.456,-678.26 171.602,-673.601 175.845,-668.473 179.829,-663.47"/>
<polygon fill="black" stroke="black" points="182.833,-665.31 186.226,-655.273 177.315,-661.003 182.833,-665.31"/>
</g>
<!-- RIG&#45;1 M&#45;Protein -->
<g id="node30" class="node"><title>RIG&#45;1 M&#45;Protein</title>
<ellipse fill="none" stroke="black" cx="25.4558" cy="-636.364" rx="25.4118" ry="25.4118"/>
<text text-anchor="middle" x="25.4558" y="-635.164" font-family="Times,serif" font-size="4.00">RIG&#45;1 M&#45;Protein</text>
</g>
<!-- RIG&#45;I&#45;&gt;RIG&#45;1 M&#45;Protein -->
<g id="edge2" class="edge"><title>RIG&#45;I&#45;&gt;RIG&#45;1 M&#45;Protein</title>
<path fill="none" stroke="black" d="M83.6968,-737.452C73.4088,-719.772 56.0871,-690.005 43.002,-667.518"/>
<polygon fill="black" stroke="black" points="45.9189,-665.571 37.8643,-658.689 39.8687,-669.092 45.9189,-665.571"/>
</g>
<!-- ISGF3 -->
<g id="node2" class="node"><title>ISGF3</title>
<ellipse fill="none" stroke="black" cx="418.456" cy="-636.364" rx="18" ry="18"/>
<text text-anchor="middle" x="418.456" y="-635.164" font-family="Times,serif" font-size="4.00">ISGF3</text>
</g>
<!-- ISGs -->
<g id="node11" class="node"><title>ISGs</title>
<ellipse fill="none" stroke="black" cx="510.456" cy="-521.345" rx="18" ry="18"/>
<text text-anchor="middle" x="510.456" y="-520.145" font-family="Times,serif" font-size="4.00">ISGs</text>
</g>
<!-- ISGF3&#45;&gt;ISGs -->
<g id="edge3" class="edge"><title>ISGF3&#45;&gt;ISGs</title>
<path fill="none" stroke="black" d="M427.439,-620.613C432.464,-612.668 439,-602.812 445.456,-594.468 459.816,-575.908 477.781,-556.205 491.183,-542.091"/>
<polygon fill="black" stroke="black" points="493.713,-544.509 498.107,-534.868 488.66,-539.665 493.713,-544.509"/>
</g>
<!-- nsp14 -->
<g id="node3" class="node"><title>nsp14</title>
<ellipse fill="none" stroke="black" cx="857.456" cy="-847.841" rx="18" ry="18"/>
<text text-anchor="middle" x="857.456" y="-846.641" font-family="Times,serif" font-size="4.00">nsp14</text>
</g>
<!-- viral RNA+N&#45;methyl&#45;Guanine -->
<g id="node9" class="node"><title>viral RNA+N&#45;methyl&#45;Guanine</title>
<ellipse fill="none" stroke="black" cx="885.456" cy="-753.505" rx="39.4904" ry="39.4904"/>
<text text-anchor="middle" x="885.456" y="-752.305" font-family="Times,serif" font-size="4.00">viral RNA+N&#45;methyl&#45;Guanine</text>
</g>
<!-- nsp14&#45;&gt;viral RNA+N&#45;methyl&#45;Guanine -->
<g id="edge4" class="edge"><title>nsp14&#45;&gt;viral RNA+N&#45;methyl&#45;Guanine</title>
<path fill="none" stroke="black" d="M862.462,-830.333C864.991,-821.993 868.199,-811.413 871.41,-800.823"/>
<polygon fill="black" stroke="black" points="874.789,-801.744 874.341,-791.158 868.09,-799.712 874.789,-801.744"/>
</g>
<!-- STAT2 -->
<g id="node4" class="node"><title>STAT2</title>
<ellipse fill="none" stroke="black" cx="587.456" cy="-847.841" rx="18" ry="18"/>
<text text-anchor="middle" x="587.456" y="-846.641" font-family="Times,serif" font-size="4.00">STAT2</text>
</g>
<!-- ISGF3 precursor -->
<g id="node26" class="node"><title>ISGF3 precursor</title>
<ellipse fill="none" stroke="black" cx="614.456" cy="-753.505" rx="24.8513" ry="24.8513"/>
<text text-anchor="middle" x="614.456" y="-752.305" font-family="Times,serif" font-size="4.00">ISGF3 precursor</text>
</g>
<!-- STAT2&#45;&gt;ISGF3 precursor -->
<g id="edge5" class="edge"><title>STAT2&#45;&gt;ISGF3 precursor</title>
<path fill="none" stroke="black" d="M592.283,-830.333C595.758,-818.448 600.564,-802.014 604.813,-787.484"/>
<polygon fill="black" stroke="black" points="608.195,-788.388 607.642,-777.807 601.476,-786.423 608.195,-788.388"/>
</g>
<!-- Nsp1 -->
<g id="node5" class="node"><title>Nsp1</title>
<ellipse fill="none" stroke="black" cx="738.456" cy="-636.364" rx="18" ry="18"/>
<text text-anchor="middle" x="738.456" y="-635.164" font-family="Times,serif" font-size="4.00">Nsp1</text>
</g>
<!-- inhibited ribosomal 40S SU -->
<g id="node22" class="node"><title>inhibited ribosomal 40S SU</title>
<ellipse fill="none" stroke="black" cx="671.456" cy="-521.345" rx="37.2466" ry="37.2466"/>
<text text-anchor="middle" x="671.456" y="-520.145" font-family="Times,serif" font-size="4.00">inhibited ribosomal 40S SU</text>
</g>
<!-- Nsp1&#45;&gt;inhibited ribosomal 40S SU -->
<g id="edge6" class="edge"><title>Nsp1&#45;&gt;inhibited ribosomal 40S SU</title>
<path fill="none" stroke="black" d="M729.697,-620.589C720.983,-605.891 707.225,-582.682 695.267,-562.512"/>
<polygon fill="black" stroke="black" points="698.21,-560.612 690.1,-553.795 692.188,-564.181 698.21,-560.612"/>
</g>
<!-- inhibited 80S ribosome -->
<g id="node25" class="node"><title>inhibited 80S ribosome</title>
<ellipse fill="none" stroke="black" cx="701.456" cy="-415.342" rx="32.7614" ry="32.7614"/>
<text text-anchor="middle" x="701.456" y="-414.142" font-family="Times,serif" font-size="4.00">inhibited 80S ribosome</text>
</g>
<!-- Nsp1&#45;&gt;inhibited 80S ribosome -->
<g id="edge7" class="edge"><title>Nsp1&#45;&gt;inhibited 80S ribosome</title>
<path fill="none" stroke="black" d="M736.584,-618.053C733.417,-589.876 726.46,-532.398 717.456,-484.222 715.807,-475.402 713.772,-466 711.713,-457.092"/>
<polygon fill="black" stroke="black" points="715.105,-456.227 709.397,-447.302 708.293,-457.839 715.105,-456.227"/>
</g>
<!-- RIG&#45;I&#45;MAVS -->
<g id="node6" class="node"><title>RIG&#45;I&#45;MAVS</title>
<ellipse fill="none" stroke="black" cx="227.456" cy="-415.342" rx="21.9898" ry="21.9898"/>
<text text-anchor="middle" x="227.456" y="-414.142" font-family="Times,serif" font-size="4.00">RIG&#45;I&#45;MAVS</text>
</g>
<!-- IRF1 -->
<g id="node10" class="node"><title>IRF1</title>
<ellipse fill="none" stroke="black" cx="202.456" cy="-255.9" rx="18" ry="18"/>
<text text-anchor="middle" x="202.456" y="-254.7" font-family="Times,serif" font-size="4.00">IRF1</text>
</g>
<!-- RIG&#45;I&#45;MAVS&#45;&gt;IRF1 -->
<g id="edge9" class="edge"><title>RIG&#45;I&#45;MAVS&#45;&gt;IRF1</title>
<path fill="none" stroke="black" d="M224.188,-393.759C219.736,-365.724 211.755,-315.461 206.802,-284.273"/>
<polygon fill="black" stroke="black" points="210.213,-283.432 205.188,-274.105 203.299,-284.53 210.213,-283.432"/>
</g>
<!-- IRF3 -->
<g id="node32" class="node"><title>IRF3</title>
<ellipse fill="none" stroke="black" cx="254.456" cy="-328.461" rx="18" ry="18"/>
<text text-anchor="middle" x="254.456" y="-327.261" font-family="Times,serif" font-size="4.00">IRF3</text>
</g>
<!-- RIG&#45;I&#45;MAVS&#45;&gt;IRF3 -->
<g id="edge8" class="edge"><title>RIG&#45;I&#45;MAVS&#45;&gt;IRF3</title>
<path fill="none" stroke="black" d="M233.854,-394.226C237.534,-382.66 242.197,-368 246.156,-355.555"/>
<polygon fill="black" stroke="black" points="249.582,-356.328 249.278,-345.738 242.912,-354.206 249.582,-356.328"/>
</g>
<!-- 5&#39;cap&#45;viral&#45;RNA -->
<g id="node7" class="node"><title>5&#39;cap&#45;viral&#45;RNA</title>
<ellipse fill="none" stroke="black" cx="923.456" cy="-636.364" rx="24.8513" ry="24.8513"/>
<text text-anchor="middle" x="923.456" y="-635.164" font-family="Times,serif" font-size="4.00">5&#39;cap&#45;viral&#45;RNA</text>
</g>
<!-- RIG&#45;I&#45;mitoMAVS -->
<g id="node39" class="node"><title>RIG&#45;I&#45;mitoMAVS</title>
<ellipse fill="none" stroke="black" cx="227.456" cy="-521.345" rx="26.533" ry="26.533"/>
<text text-anchor="middle" x="227.456" y="-520.145" font-family="Times,serif" font-size="4.00">RIG&#45;I&#45;mitoMAVS</text>
</g>
<!-- RIG&#45;I_dsRNA&#45;&gt;RIG&#45;I&#45;mitoMAVS -->
<g id="edge10" class="edge"><title>RIG&#45;I_dsRNA&#45;&gt;RIG&#45;I&#45;mitoMAVS</title>
<path fill="none" stroke="black" d="M204.722,-614.106C208.679,-598.137 214.185,-575.913 218.787,-557.336"/>
<polygon fill="black" stroke="black" points="222.228,-558.002 221.235,-547.454 215.433,-556.319 222.228,-558.002"/>
</g>
<!-- viral RNA+N&#45;methyl&#45;Guanine&#45;&gt;5&#39;cap&#45;viral&#45;RNA -->
<g id="edge11" class="edge"><title>viral RNA+N&#45;methyl&#45;Guanine&#45;&gt;5&#39;cap&#45;viral&#45;RNA</title>
<path fill="none" stroke="black" d="M897.479,-716.074C902.391,-701.192 908.024,-684.122 912.787,-669.691"/>
<polygon fill="black" stroke="black" points="916.115,-670.774 915.926,-660.181 909.468,-668.581 916.115,-670.774"/>
</g>
<!-- IFN&#45;III -->
<g id="node23" class="node"><title>IFN&#45;III</title>
<ellipse fill="none" stroke="black" cx="229.456" cy="-183.338" rx="18" ry="18"/>
<text text-anchor="middle" x="229.456" y="-182.138" font-family="Times,serif" font-size="4.00">IFN&#45;III</text>
</g>
<!-- IRF1&#45;&gt;IFN&#45;III -->
<g id="edge12" class="edge"><title>IRF1&#45;&gt;IFN&#45;III</title>
<path fill="none" stroke="black" d="M208.583,-238.888C211.862,-230.317 215.979,-219.558 219.688,-209.865"/>
<polygon fill="black" stroke="black" points="223.048,-210.877 223.353,-200.286 216.511,-208.375 223.048,-210.877"/>
</g>
<!-- antiviral proteins -->
<g id="node17" class="node"><title>antiviral proteins</title>
<ellipse fill="none" stroke="black" cx="584.456" cy="-415.342" rx="26.533" ry="26.533"/>
<text text-anchor="middle" x="584.456" y="-414.142" font-family="Times,serif" font-size="4.00">antiviral proteins</text>
</g>
<!-- ISGs&#45;&gt;antiviral proteins -->
<g id="edge13" class="edge"><title>ISGs&#45;&gt;antiviral proteins</title>
<path fill="none" stroke="black" d="M520.436,-506.319C531.433,-490.863 549.432,-465.567 563.548,-445.726"/>
<polygon fill="black" stroke="black" points="566.58,-447.503 569.525,-437.326 560.876,-443.445 566.58,-447.503"/>
</g>
<!-- IFNs -->
<g id="node27" class="node"><title>IFNs</title>
<ellipse fill="none" stroke="black" cx="514.456" cy="-415.342" rx="18" ry="18"/>
<text text-anchor="middle" x="514.456" y="-414.142" font-family="Times,serif" font-size="4.00">IFNs</text>
</g>
<!-- ISGs&#45;&gt;IFNs -->
<g id="edge14" class="edge"><title>ISGs&#45;&gt;IFNs</title>
<path fill="none" stroke="black" d="M511.116,-503.171C511.739,-486.987 512.682,-462.474 513.407,-443.616"/>
<polygon fill="black" stroke="black" points="516.907,-443.668 513.794,-433.541 509.913,-443.399 516.907,-443.668"/>
</g>
<!-- STAT3 -->
<g id="node12" class="node"><title>STAT3</title>
<ellipse fill="none" stroke="black" cx="809.456" cy="-753.505" rx="18" ry="18"/>
<text text-anchor="middle" x="809.456" y="-752.305" font-family="Times,serif" font-size="4.00">STAT3</text>
</g>
<!-- Inhibited ISGF3 precursor -->
<g id="node14" class="node"><title>Inhibited ISGF3 precursor</title>
<ellipse fill="none" stroke="black" cx="809.456" cy="-636.364" rx="35.0036" ry="35.0036"/>
<text text-anchor="middle" x="809.456" y="-635.164" font-family="Times,serif" font-size="4.00">Inhibited ISGF3 precursor</text>
</g>
<!-- STAT3&#45;&gt;Inhibited ISGF3 precursor -->
<g id="edge15" class="edge"><title>STAT3&#45;&gt;Inhibited ISGF3 precursor</title>
<path fill="none" stroke="black" d="M809.456,-735.018C809.456,-720.898 809.456,-700.393 809.456,-681.813"/>
<polygon fill="black" stroke="black" points="812.956,-681.742 809.456,-671.742 805.956,-681.742 812.956,-681.742"/>
</g>
<!-- M -->
<g id="node13" class="node"><title>M</title>
<ellipse fill="none" stroke="black" cx="25.4558" cy="-753.505" rx="18" ry="18"/>
<text text-anchor="middle" x="25.4558" y="-752.305" font-family="Times,serif" font-size="4.00">M</text>
</g>
<!-- M&#45;&gt;RIG&#45;1 M&#45;Protein -->
<g id="edge16" class="edge"><title>M&#45;&gt;RIG&#45;1 M&#45;Protein</title>
<path fill="none" stroke="black" d="M25.4558,-735.018C25.4558,-718.334 25.4558,-692.735 25.4558,-671.931"/>
<polygon fill="black" stroke="black" points="28.9559,-671.864 25.4558,-661.864 21.9559,-671.864 28.9559,-671.864"/>
</g>
<!-- IRF9 -->
<g id="node15" class="node"><title>IRF9</title>
<ellipse fill="none" stroke="black" cx="418.456" cy="-753.505" rx="18" ry="18"/>
<text text-anchor="middle" x="418.456" y="-752.305" font-family="Times,serif" font-size="4.00">IRF9</text>
</g>
<!-- IRF9&#45;&gt;ISGF3 -->
<g id="edge17" class="edge"><title>IRF9&#45;&gt;ISGF3</title>
<path fill="none" stroke="black" d="M418.456,-735.018C418.456,-716.397 418.456,-686.669 418.456,-664.899"/>
<polygon fill="black" stroke="black" points="421.956,-664.639 418.456,-654.639 414.956,-664.639 421.956,-664.639"/>
</g>
<!-- TBK1 -->
<g id="node16" class="node"><title>TBK1</title>
<ellipse fill="none" stroke="black" cx="86.4558" cy="-636.364" rx="18" ry="18"/>
<text text-anchor="middle" x="86.4558" y="-635.164" font-family="Times,serif" font-size="4.00">TBK1</text>
</g>
<!-- IKK&#45;TBK1 -->
<g id="node19" class="node"><title>IKK&#45;TBK1</title>
<ellipse fill="none" stroke="black" cx="140.456" cy="-521.345" rx="19.1842" ry="19.1842"/>
<text text-anchor="middle" x="140.456" y="-520.145" font-family="Times,serif" font-size="4.00">IKK&#45;TBK1</text>
</g>
<!-- TBK1&#45;&gt;IKK&#45;TBK1 -->
<g id="edge18" class="edge"><title>TBK1&#45;&gt;IKK&#45;TBK1</title>
<path fill="none" stroke="black" d="M93.9643,-619.65C102.8,-601.157 117.598,-570.185 128.125,-548.153"/>
<polygon fill="black" stroke="black" points="131.331,-549.561 132.484,-539.029 125.015,-546.543 131.331,-549.561"/>
</g>
<!-- nsp16 -->
<g id="node18" class="node"><title>nsp16</title>
<ellipse fill="none" stroke="black" cx="960.456" cy="-753.505" rx="18" ry="18"/>
<text text-anchor="middle" x="960.456" y="-752.305" font-family="Times,serif" font-size="4.00">nsp16</text>
</g>
<!-- nsp16&#45;&gt;5&#39;cap&#45;viral&#45;RNA -->
<g id="edge19" class="edge"><title>nsp16&#45;&gt;5&#39;cap&#45;viral&#45;RNA</title>
<path fill="none" stroke="black" d="M955.155,-736.008C949.669,-718.938 940.953,-691.814 934.048,-670.325"/>
<polygon fill="black" stroke="black" points="937.315,-669.052 930.923,-660.602 930.65,-671.193 937.315,-669.052"/>
</g>
<!-- IKK&#45;TBK1&#45;&gt;RIG&#45;I&#45;MAVS -->
<g id="edge20" class="edge"><title>IKK&#45;TBK1&#45;&gt;RIG&#45;I&#45;MAVS</title>
<path fill="none" stroke="black" d="M152.553,-505.884C166.669,-489.009 190.233,-460.839 207.164,-440.599"/>
<polygon fill="black" stroke="black" points="210.011,-442.651 213.742,-432.735 204.642,-438.16 210.011,-442.651"/>
</g>
<!-- SOCS3 -->
<g id="node20" class="node"><title>SOCS3</title>
<ellipse fill="none" stroke="black" cx="285.456" cy="-109.186" rx="18" ry="18"/>
<text text-anchor="middle" x="285.456" y="-107.986" font-family="Times,serif" font-size="4.00">SOCS3</text>
</g>
<!-- receptor complex -->
<g id="node31" class="node"><title>receptor complex</title>
<ellipse fill="none" stroke="black" cx="257.456" cy="-26.5165" rx="26.533" ry="26.533"/>
<text text-anchor="middle" x="257.456" y="-25.3165" font-family="Times,serif" font-size="4.00">receptor complex</text>
</g>
<!-- SOCS3&#45;&gt;receptor complex -->
<g id="edge21" class="edge"><title>SOCS3&#45;&gt;receptor complex</title>
<path fill="none" stroke="black" d="M279.79,-91.861C276.731,-83.0489 272.838,-71.8329 269.162,-61.2418"/>
<polygon fill="black" stroke="black" points="272.463,-60.0774 265.877,-51.778 265.85,-62.3728 272.463,-60.0774"/>
</g>
<!-- STAT1 -->
<g id="node21" class="node"><title>STAT1</title>
<ellipse fill="none" stroke="black" cx="641.456" cy="-847.841" rx="18" ry="18"/>
<text text-anchor="middle" x="641.456" y="-846.641" font-family="Times,serif" font-size="4.00">STAT1</text>
</g>
<!-- STAT1&#45;&gt;ISGF3 precursor -->
<g id="edge22" class="edge"><title>STAT1&#45;&gt;ISGF3 precursor</title>
<path fill="none" stroke="black" d="M636.629,-830.333C633.153,-818.448 628.348,-802.014 624.099,-787.484"/>
<polygon fill="black" stroke="black" points="627.436,-786.423 621.27,-777.807 620.717,-788.388 627.436,-786.423"/>
</g>
<!-- Ifn lambda -->
<g id="node35" class="node"><title>Ifn lambda</title>
<ellipse fill="none" stroke="black" cx="229.456" cy="-109.186" rx="20.3063" ry="20.3063"/>
<text text-anchor="middle" x="229.456" y="-107.986" font-family="Times,serif" font-size="4.00">Ifn lambda</text>
</g>
<!-- IFN&#45;III&#45;&gt;Ifn lambda -->
<g id="edge23" class="edge"><title>IFN&#45;III&#45;&gt;Ifn lambda</title>
<path fill="none" stroke="black" d="M229.456,-165.239C229.456,-157.595 229.456,-148.363 229.456,-139.661"/>
<polygon fill="black" stroke="black" points="232.956,-139.451 229.456,-129.451 225.956,-139.452 232.956,-139.451"/>
</g>
<!-- dsRNA_vesicle -->
<g id="node24" class="node"><title>dsRNA_vesicle</title>
<ellipse fill="none" stroke="black" cx="357.456" cy="-636.364" rx="24.8512" ry="24.8513"/>
<text text-anchor="middle" x="357.456" y="-635.164" font-family="Times,serif" font-size="4.00">dsRNA_vesicle</text>
</g>
<!-- dsRNA -->
<g id="node38" class="node"><title>dsRNA</title>
<ellipse fill="none" stroke="black" cx="330.456" cy="-753.505" rx="18" ry="18"/>
<text text-anchor="middle" x="330.456" y="-752.305" font-family="Times,serif" font-size="4.00">dsRNA</text>
</g>
<!-- dsRNA_vesicle&#45;&gt;dsRNA -->
<g id="edge24" class="edge"><title>dsRNA_vesicle&#45;&gt;dsRNA</title>
<path fill="none" stroke="black" d="M357.384,-661.668C354.315,-681.089 347.97,-708.197 341.926,-727.738"/>
<polygon fill="black" stroke="black" points="338.53,-726.859 338.717,-737.452 345.177,-729.055 338.53,-726.859"/>
</g>
<!-- ISGF3 precursor&#45;&gt;ISGF3 -->
<g id="edge26" class="edge"><title>ISGF3 precursor&#45;&gt;ISGF3</title>
<path fill="none" stroke="black" d="M590.275,-746.592C555.189,-737.046 489.553,-715.448 445.456,-678.26 439.95,-673.617 435.133,-667.573 431.151,-661.562"/>
<polygon fill="black" stroke="black" points="434.107,-659.685 425.933,-652.945 428.12,-663.312 434.107,-659.685"/>
</g>
<!-- ISGF3 precursor&#45;&gt;Inhibited ISGF3 precursor -->
<g id="edge25" class="edge"><title>ISGF3 precursor&#45;&gt;Inhibited ISGF3 precursor</title>
<path fill="none" stroke="black" d="M637.594,-743.616C668.247,-731.299 723.347,-707.249 765.456,-678.26 769.644,-675.378 773.832,-672.11 777.869,-668.708"/>
<polygon fill="black" stroke="black" points="780.216,-671.304 785.405,-662.067 775.589,-666.052 780.216,-671.304"/>
</g>
<!-- Riplet_TRIM25 -->
<g id="node28" class="node"><title>Riplet_TRIM25</title>
<ellipse fill="none" stroke="black" cx="177.456" cy="-753.505" rx="24.2908" ry="24.2908"/>
<text text-anchor="middle" x="177.456" y="-752.305" font-family="Times,serif" font-size="4.00">Riplet_TRIM25</text>
</g>
<!-- Riplet_TRIM25&#45;&gt;RIG&#45;I_dsRNA -->
<g id="edge27" class="edge"><title>Riplet_TRIM25&#45;&gt;RIG&#45;I_dsRNA</title>
<path fill="none" stroke="black" d="M181.855,-729.481C185.156,-712.205 189.715,-688.342 193.367,-669.233"/>
<polygon fill="black" stroke="black" points="196.849,-669.657 195.288,-659.178 189.973,-668.343 196.849,-669.657"/>
</g>
<!-- ribosomal 40S subunit -->
<g id="node29" class="node"><title>ribosomal 40S subunit</title>
<ellipse fill="none" stroke="black" cx="670.456" cy="-636.364" rx="31.6406" ry="31.6406"/>
<text text-anchor="middle" x="670.456" y="-635.164" font-family="Times,serif" font-size="4.00">ribosomal 40S subunit</text>
</g>
<!-- ribosomal 40S subunit&#45;&gt;inhibited ribosomal 40S SU -->
<g id="edge28" class="edge"><title>ribosomal 40S subunit&#45;&gt;inhibited ribosomal 40S SU</title>
<path fill="none" stroke="black" d="M670.729,-604.481C670.826,-593.563 670.937,-581.025 671.042,-569.086"/>
<polygon fill="black" stroke="black" points="674.545,-568.836 671.133,-558.805 667.545,-568.774 674.545,-568.836"/>
</g>
<!-- 80S ribosome -->
<g id="node43" class="node"><title>80S ribosome</title>
<ellipse fill="none" stroke="black" cx="588.456" cy="-521.345" rx="22.6101" ry="22.6101"/>
<text text-anchor="middle" x="588.456" y="-520.145" font-family="Times,serif" font-size="4.00">80S ribosome</text>
</g>
<!-- ribosomal 40S subunit&#45;&gt;80S ribosome -->
<g id="edge29" class="edge"><title>ribosomal 40S subunit&#45;&gt;80S ribosome</title>
<path fill="none" stroke="black" d="M652.053,-610.001C638.765,-591.685 620.87,-567.02 607.447,-548.521"/>
<polygon fill="black" stroke="black" points="610.148,-546.283 601.443,-540.245 604.482,-550.394 610.148,-546.283"/>
</g>
<!-- receptor complex&#45;&gt;Ifn lambda -->
<g id="edge30" class="edge"><title>receptor complex&#45;&gt;Ifn lambda</title>
<path fill="none" stroke="black" d="M254.951,-52.9473C252.208,-62.4996 248.44,-73.3497 244.55,-82.8897"/>
<polygon fill="black" stroke="black" points="241.26,-81.681 240.491,-92.2479 247.682,-84.4664 241.26,-81.681"/>
</g>
<!-- p38&#45;NFkB -->
<g id="node45" class="node"><title>p38&#45;NFkB</title>
<ellipse fill="none" stroke="black" cx="257.456" cy="-255.9" rx="18.6233" ry="18.6233"/>
<text text-anchor="middle" x="257.456" y="-254.7" font-family="Times,serif" font-size="4.00">p38&#45;NFkB</text>
</g>
<!-- IRF3&#45;&gt;p38&#45;NFkB -->
<g id="edge31" class="edge"><title>IRF3&#45;&gt;p38&#45;NFkB</title>
<path fill="none" stroke="black" d="M255.182,-310.38C255.508,-302.725 255.9,-293.496 256.266,-284.875"/>
<polygon fill="black" stroke="black" points="259.766,-284.948 256.694,-274.808 252.773,-284.65 259.766,-284.948"/>
</g>
<!-- RNA -->
<g id="node33" class="node"><title>RNA</title>
<ellipse fill="none" stroke="black" cx="330.456" cy="-847.841" rx="18" ry="18"/>
<text text-anchor="middle" x="330.456" y="-846.641" font-family="Times,serif" font-size="4.00">RNA</text>
</g>
<!-- RNA&#45;&gt;dsRNA -->
<g id="edge32" class="edge"><title>RNA&#45;&gt;dsRNA</title>
<path fill="none" stroke="black" d="M330.456,-829.473C330.456,-816.061 330.456,-797.248 330.456,-781.824"/>
<polygon fill="black" stroke="black" points="333.956,-781.795 330.456,-771.795 326.956,-781.795 333.956,-781.795"/>
</g>
<!-- ribosomal 60S subunit -->
<g id="node34" class="node"><title>ribosomal 60S subunit</title>
<ellipse fill="none" stroke="black" cx="588.456" cy="-636.364" rx="31.6406" ry="31.6406"/>
<text text-anchor="middle" x="588.456" y="-635.164" font-family="Times,serif" font-size="4.00">ribosomal 60S subunit</text>
</g>
<!-- ribosomal 60S subunit&#45;&gt;80S ribosome -->
<g id="edge33" class="edge"><title>ribosomal 60S subunit&#45;&gt;80S ribosome</title>
<path fill="none" stroke="black" d="M588.456,-604.481C588.456,-588.975 588.456,-570.203 588.456,-554.522"/>
<polygon fill="black" stroke="black" points="591.956,-554.237 588.456,-544.237 584.956,-554.237 591.956,-554.237"/>
</g>
<!-- Ifn lambda&#45;&gt;receptor complex -->
<g id="edge34" class="edge"><title>Ifn lambda&#45;&gt;receptor complex</title>
<path fill="none" stroke="black" d="M230.356,-88.6578C232.645,-79.6824 236.178,-68.8141 240.022,-58.7447"/>
<polygon fill="black" stroke="black" points="243.287,-60.0069 243.772,-49.4232 236.792,-57.3943 243.287,-60.0069"/>
</g>
<!-- viral RNA -->
<g id="node36" class="node"><title>viral RNA</title>
<ellipse fill="none" stroke="black" cx="912.456" cy="-847.841" rx="19.1842" ry="19.1842"/>
<text text-anchor="middle" x="912.456" y="-846.641" font-family="Times,serif" font-size="4.00">viral RNA</text>
</g>
<!-- viral RNA&#45;&gt;viral RNA+N&#45;methyl&#45;Guanine -->
<g id="edge35" class="edge"><title>viral RNA&#45;&gt;viral RNA+N&#45;methyl&#45;Guanine</title>
<path fill="none" stroke="black" d="M907.25,-829.038C904.905,-821.02 902.016,-811.138 899.117,-801.223"/>
<polygon fill="black" stroke="black" points="902.4,-799.979 896.234,-791.364 895.681,-801.944 902.4,-799.979"/>
</g>
<!-- IFIH1 -->
<g id="node37" class="node"><title>IFIH1</title>
<ellipse fill="none" stroke="black" cx="967.456" cy="-847.841" rx="18" ry="18"/>
<text text-anchor="middle" x="967.456" y="-846.641" font-family="Times,serif" font-size="4.00">IFIH1</text>
</g>
<!-- dsRNA&#45;&gt;RIG&#45;I&#45;MAVS -->
<g id="edge38" class="edge"><title>dsRNA&#45;&gt;RIG&#45;I&#45;MAVS</title>
<path fill="none" stroke="black" d="M327.68,-735.43C320.353,-692.302 298.607,-575.888 263.456,-484.222 258.051,-470.128 250.391,-455.231 243.525,-442.995"/>
<polygon fill="black" stroke="black" points="246.496,-441.141 238.48,-434.214 240.427,-444.628 246.496,-441.141"/>
</g>
<!-- dsRNA&#45;&gt;RIG&#45;I_dsRNA -->
<g id="edge36" class="edge"><title>dsRNA&#45;&gt;RIG&#45;I_dsRNA</title>
<path fill="none" stroke="black" d="M315.407,-743.037C295.13,-729.891 258.465,-704.722 231.456,-678.26 227,-673.895 222.616,-668.903 218.589,-663.94"/>
<polygon fill="black" stroke="black" points="221.106,-661.475 212.202,-655.734 215.582,-665.775 221.106,-661.475"/>
</g>
<!-- dsRNA&#45;&gt;dsRNA_vesicle -->
<g id="edge37" class="edge"><title>dsRNA&#45;&gt;dsRNA_vesicle</title>
<path fill="none" stroke="black" d="M329.484,-735.516C331.666,-718.019 337.776,-690.347 343.984,-668.838"/>
<polygon fill="black" stroke="black" points="347.37,-669.734 346.925,-659.148 340.671,-667.701 347.37,-669.734"/>
</g>
<!-- RIG&#45;I&#45;mitoMAVS&#45;&gt;RIG&#45;I&#45;MAVS -->
<g id="edge39" class="edge"><title>RIG&#45;I&#45;mitoMAVS&#45;&gt;RIG&#45;I&#45;MAVS</title>
<path fill="none" stroke="black" d="M227.456,-494.636C227.456,-480.406 227.456,-462.61 227.456,-447.581"/>
<polygon fill="black" stroke="black" points="230.956,-447.218 227.456,-437.218 223.956,-447.218 230.956,-447.218"/>
</g>
<!-- IKK -->
<g id="node40" class="node"><title>IKK</title>
<ellipse fill="none" stroke="black" cx="140.456" cy="-636.364" rx="18" ry="18"/>
<text text-anchor="middle" x="140.456" y="-635.164" font-family="Times,serif" font-size="4.00">IKK</text>
</g>
<!-- IKK&#45;&gt;IKK&#45;TBK1 -->
<g id="edge40" class="edge"><title>IKK&#45;&gt;IKK&#45;TBK1</title>
<path fill="none" stroke="black" d="M140.456,-618.199C140.456,-600.344 140.456,-572.085 140.456,-550.867"/>
<polygon fill="black" stroke="black" points="143.956,-550.801 140.456,-540.801 136.956,-550.801 143.956,-550.801"/>
</g>
<!-- PLPro -->
<g id="node41" class="node"><title>PLPro</title>
<ellipse fill="none" stroke="black" cx="237.456" cy="-753.505" rx="18" ry="18"/>
<text text-anchor="middle" x="237.456" y="-752.305" font-family="Times,serif" font-size="4.00">PLPro</text>
</g>
<!-- PLPro&#45;&gt;RIG&#45;I_dsRNA -->
<g id="edge41" class="edge"><title>PLPro&#45;&gt;RIG&#45;I_dsRNA</title>
<path fill="none" stroke="black" d="M232.011,-736.008C226.139,-718.213 216.66,-689.494 209.442,-667.622"/>
<polygon fill="black" stroke="black" points="212.763,-666.517 206.305,-658.118 206.115,-668.711 212.763,-666.517"/>
</g>
<!-- IFN&#45;sensitive&#45;response&#45;element -->
<g id="node42" class="node"><title>IFN&#45;sensitive&#45;response&#45;element</title>
<ellipse fill="none" stroke="black" cx="496.456" cy="-636.364" rx="41.7924" ry="41.7924"/>
<text text-anchor="middle" x="496.456" y="-635.164" font-family="Times,serif" font-size="4.00">IFN&#45;sensitive&#45;response&#45;element</text>
</g>
<!-- IFN&#45;sensitive&#45;response&#45;element&#45;&gt;ISGs -->
<g id="edge42" class="edge"><title>IFN&#45;sensitive&#45;response&#45;element&#45;&gt;ISGs</title>
<path fill="none" stroke="black" d="M501.51,-594.562C503.364,-579.595 505.416,-563.03 507.087,-549.545"/>
<polygon fill="black" stroke="black" points="510.577,-549.834 508.333,-539.48 503.63,-548.974 510.577,-549.834"/>
</g>
<!-- 80S ribosome&#45;&gt;antiviral proteins -->
<g id="edge43" class="edge"><title>80S ribosome&#45;&gt;antiviral proteins</title>
<path fill="none" stroke="black" d="M587.617,-498.543C587.104,-485.185 586.433,-467.76 585.842,-452.392"/>
<polygon fill="black" stroke="black" points="589.331,-452.015 585.449,-442.157 582.336,-452.284 589.331,-452.015"/>
</g>
<!-- 80S ribosome&#45;&gt;inhibited 80S ribosome -->
<g id="edge45" class="edge"><title>80S ribosome&#45;&gt;inhibited 80S ribosome</title>
<path fill="none" stroke="black" d="M604.151,-504.72C610.677,-498.303 618.37,-490.84 625.456,-484.222 639.615,-470.999 655.567,-456.668 669.188,-444.596"/>
<polygon fill="black" stroke="black" points="671.731,-447.02 676.906,-437.775 667.095,-441.774 671.731,-447.02"/>
</g>
<!-- 80S ribosome&#45;&gt;IFNs -->
<g id="edge44" class="edge"><title>80S ribosome&#45;&gt;IFNs</title>
<path fill="none" stroke="black" d="M575.566,-502.229C563.054,-484.645 544.028,-457.904 530.533,-438.937"/>
<polygon fill="black" stroke="black" points="533.234,-436.697 524.585,-430.578 527.531,-440.755 533.234,-436.697"/>
</g>
<!-- MAVS -->
<g id="node44" class="node"><title>MAVS</title>
<ellipse fill="none" stroke="black" cx="258.456" cy="-636.364" rx="18" ry="18"/>
<text text-anchor="middle" x="258.456" y="-635.164" font-family="Times,serif" font-size="4.00">MAVS</text>
</g>
<!-- MAVS&#45;&gt;RIG&#45;I&#45;mitoMAVS -->
<g id="edge46" class="edge"><title>MAVS&#45;&gt;RIG&#45;I&#45;mitoMAVS</title>
<path fill="none" stroke="black" d="M253.882,-618.688C249.424,-602.436 242.513,-577.239 236.876,-556.689"/>
<polygon fill="black" stroke="black" points="240.248,-555.752 234.228,-547.034 233.498,-557.604 240.248,-555.752"/>
</g>
<!-- p38&#45;NFkB&#45;&gt;IFN&#45;III -->
<g id="edge47" class="edge"><title>p38&#45;NFkB&#45;&gt;IFN&#45;III</title>
<path fill="none" stroke="black" d="M250.82,-238.178C247.46,-229.708 243.307,-219.245 239.56,-209.801"/>
<polygon fill="black" stroke="black" points="242.793,-208.458 235.851,-200.454 236.286,-211.04 242.793,-208.458"/>
</g>
<!-- SOCS1 -->
<g id="node46" class="node"><title>SOCS1</title>
<ellipse fill="none" stroke="black" cx="339.456" cy="-109.186" rx="18" ry="18"/>
<text text-anchor="middle" x="339.456" y="-107.986" font-family="Times,serif" font-size="4.00">SOCS1</text>
</g>
<!-- SOCS1&#45;&gt;receptor complex -->
<g id="edge48" class="edge"><title>SOCS1&#45;&gt;receptor complex</title>
<path fill="none" stroke="black" d="M327.002,-95.9337C315.48,-84.5986 297.986,-67.3892 283.427,-53.0665"/>
<polygon fill="black" stroke="black" points="285.712,-50.4042 276.129,-45.8862 280.803,-55.3943 285.712,-50.4042"/>
</g>
</g>
</svg>
