<?xml version="1.0" encoding="UTF-8" standalone="no"?>
<!DOCTYPE svg PUBLIC "-//W3C//DTD SVG 1.1//EN"
 "http://www.w3.org/Graphics/SVG/1.1/DTD/svg11.dtd">
<!-- Generated by graphviz version 2.38.0 (20140413.2041)
 -->
<!-- Title: G Pages: 1 -->
<svg width="1025pt" height="883pt"
 viewBox="0.00 0.00 1025.00 883.42" xmlns="http://www.w3.org/2000/svg" xmlns:xlink="http://www.w3.org/1999/xlink">
<g id="graph0" class="graph" transform="scale(1 1) rotate(0) translate(4 879.418)">
<title>G</title>
<polygon fill="white" stroke="none" points="-4,4 -4,-879.418 1021,-879.418 1021,4 -4,4"/>
<!-- antiviral proteins -->
<g id="node1" class="node"><title>antiviral proteins</title>
<ellipse fill="none" stroke="black" cx="174" cy="-423.827" rx="26.533" ry="26.533"/>
<text text-anchor="middle" x="174" y="-422.627" font-family="Times,serif" font-size="4.00">antiviral proteins</text>
</g>
<!-- dsRNA -->
<g id="node2" class="node"><title>dsRNA</title>
<ellipse fill="none" stroke="black" cx="814" cy="-761.99" rx="18" ry="18"/>
<text text-anchor="middle" x="814" y="-760.79" font-family="Times,serif" font-size="4.00">dsRNA</text>
</g>
<!-- RIG&#45;I&#45;MAVS -->
<g id="node13" class="node"><title>RIG&#45;I&#45;MAVS</title>
<ellipse fill="none" stroke="black" cx="716" cy="-423.827" rx="21.9898" ry="21.9898"/>
<text text-anchor="middle" x="716" y="-422.627" font-family="Times,serif" font-size="4.00">RIG&#45;I&#45;MAVS</text>
</g>
<!-- dsRNA&#45;&gt;RIG&#45;I&#45;MAVS -->
<g id="edge2" class="edge"><title>dsRNA&#45;&gt;RIG&#45;I&#45;MAVS</title>
<path fill="none" stroke="black" d="M810.437,-744.119C801.249,-701.461 775.267,-586.048 744,-492.707 739.603,-479.581 733.898,-465.376 728.786,-453.37"/>
<polygon fill="black" stroke="black" points="731.859,-451.659 724.673,-443.874 725.436,-454.441 731.859,-451.659"/>
</g>
<!-- RIG&#45;I -->
<g id="node22" class="node"><title>RIG&#45;I</title>
<ellipse fill="none" stroke="black" cx="542" cy="-644.85" rx="18" ry="18"/>
<text text-anchor="middle" x="542" y="-643.65" font-family="Times,serif" font-size="4.00">RIG&#45;I</text>
</g>
<!-- dsRNA&#45;&gt;RIG&#45;I -->
<g id="edge3" class="edge"><title>dsRNA&#45;&gt;RIG&#45;I</title>
<path fill="none" stroke="black" d="M796.145,-759.696C753.004,-755.763 641.327,-740.682 569,-686.746 563.226,-682.44 558.319,-676.51 554.335,-670.501"/>
<polygon fill="black" stroke="black" points="557.291,-668.622 549.168,-661.819 551.275,-672.202 557.291,-668.622"/>
</g>
<!-- dsRNA_vesicle -->
<g id="node32" class="node"><title>dsRNA_vesicle</title>
<ellipse fill="none" stroke="black" cx="843" cy="-644.85" rx="24.8513" ry="24.8513"/>
<text text-anchor="middle" x="843" y="-643.65" font-family="Times,serif" font-size="4.00">dsRNA_vesicle</text>
</g>
<!-- dsRNA&#45;&gt;dsRNA_vesicle -->
<g id="edge1" class="edge"><title>dsRNA&#45;&gt;dsRNA_vesicle</title>
<path fill="none" stroke="black" d="M813.324,-744.001C815.809,-726.504 822.4,-698.832 828.981,-677.324"/>
<polygon fill="black" stroke="black" points="832.368,-678.225 832.091,-667.634 825.703,-676.086 832.368,-678.225"/>
</g>
<!-- Riplet / TRIM25 -->
<g id="node3" class="node"><title>Riplet / TRIM25</title>
<ellipse fill="none" stroke="black" cx="511" cy="-761.99" rx="25.4118" ry="25.4118"/>
<text text-anchor="middle" x="511" y="-760.79" font-family="Times,serif" font-size="4.00">Riplet / TRIM25</text>
</g>
<!-- Riplet / TRIM25&#45;&gt;RIG&#45;I -->
<g id="edge4" class="edge"><title>Riplet / TRIM25&#45;&gt;RIG&#45;I</title>
<path fill="none" stroke="black" d="M517.423,-737.133C522.504,-718.261 529.595,-691.926 534.855,-672.39"/>
<polygon fill="black" stroke="black" points="538.271,-673.164 537.491,-662.598 531.511,-671.344 538.271,-673.164"/>
</g>
<!-- receptor complex -->
<g id="node4" class="node"><title>receptor complex</title>
<ellipse fill="none" stroke="black" cx="682" cy="-26.5165" rx="26.533" ry="26.533"/>
<text text-anchor="middle" x="682" y="-25.3165" font-family="Times,serif" font-size="4.00">receptor complex</text>
</g>
<!-- IFNL -->
<g id="node33" class="node"><title>IFNL</title>
<ellipse fill="none" stroke="black" cx="709" cy="-107.033" rx="18" ry="18"/>
<text text-anchor="middle" x="709" y="-105.833" font-family="Times,serif" font-size="4.00">IFNL</text>
</g>
<!-- receptor complex&#45;&gt;IFNL -->
<g id="edge5" class="edge"><title>receptor complex&#45;&gt;IFNL</title>
<path fill="none" stroke="black" d="M695.609,-49.3046C699.488,-58.51 703.318,-69.3253 706.163,-79.03"/>
<polygon fill="black" stroke="black" points="702.862,-80.2351 708.82,-88.9961 709.626,-78.432 702.862,-80.2351"/>
</g>
<!-- mitoMAVS -->
<g id="node5" class="node"><title>mitoMAVS</title>
<ellipse fill="none" stroke="black" cx="486" cy="-644.85" rx="20.3062" ry="20.3062"/>
<text text-anchor="middle" x="486" y="-643.65" font-family="Times,serif" font-size="4.00">mitoMAVS</text>
</g>
<!-- RIG&#45;I&#45;mitoMAVS -->
<g id="node7" class="node"><title>RIG&#45;I&#45;mitoMAVS</title>
<ellipse fill="none" stroke="black" cx="542" cy="-529.831" rx="26.533" ry="26.533"/>
<text text-anchor="middle" x="542" y="-528.631" font-family="Times,serif" font-size="4.00">RIG&#45;I&#45;mitoMAVS</text>
</g>
<!-- mitoMAVS&#45;&gt;RIG&#45;I&#45;mitoMAVS -->
<g id="edge6" class="edge"><title>mitoMAVS&#45;&gt;RIG&#45;I&#45;mitoMAVS</title>
<path fill="none" stroke="black" d="M494.75,-626.19C503.126,-609.285 515.957,-583.39 526.136,-562.848"/>
<polygon fill="black" stroke="black" points="529.296,-564.352 530.6,-553.838 523.024,-561.244 529.296,-564.352"/>
</g>
<!-- ISGs -->
<g id="node6" class="node"><title>ISGs</title>
<ellipse fill="none" stroke="black" cx="100" cy="-529.831" rx="18" ry="18"/>
<text text-anchor="middle" x="100" y="-528.631" font-family="Times,serif" font-size="4.00">ISGs</text>
</g>
<!-- ISGs&#45;&gt;antiviral proteins -->
<g id="edge8" class="edge"><title>ISGs&#45;&gt;antiviral proteins</title>
<path fill="none" stroke="black" d="M109.98,-514.804C120.977,-499.348 138.976,-474.052 153.093,-454.211"/>
<polygon fill="black" stroke="black" points="156.124,-455.988 159.07,-445.811 150.42,-451.93 156.124,-455.988"/>
</g>
<!-- IFNs -->
<g id="node35" class="node"><title>IFNs</title>
<ellipse fill="none" stroke="black" cx="107" cy="-423.827" rx="18" ry="18"/>
<text text-anchor="middle" x="107" y="-422.627" font-family="Times,serif" font-size="4.00">IFNs</text>
</g>
<!-- ISGs&#45;&gt;IFNs -->
<g id="edge7" class="edge"><title>ISGs&#45;&gt;IFNs</title>
<path fill="none" stroke="black" d="M101.156,-511.656C102.245,-495.472 103.895,-470.959 105.164,-452.101"/>
<polygon fill="black" stroke="black" points="108.663,-452.239 105.842,-442.027 101.679,-451.769 108.663,-452.239"/>
</g>
<!-- RIG&#45;I&#45;mitoMAVS&#45;&gt;RIG&#45;I&#45;MAVS -->
<g id="edge9" class="edge"><title>RIG&#45;I&#45;mitoMAVS&#45;&gt;RIG&#45;I&#45;MAVS</title>
<path fill="none" stroke="black" d="M559.976,-509.643C566.01,-503.795 572.994,-497.62 580,-492.707 614.21,-468.72 658.127,-448.439 686.657,-436.454"/>
<polygon fill="black" stroke="black" points="688.158,-439.621 696.065,-432.569 685.486,-433.151 688.158,-439.621"/>
</g>
<!-- 5&#39;cap&#45;viral&#45;RNA -->
<g id="node8" class="node"><title>5&#39;cap&#45;viral&#45;RNA</title>
<ellipse fill="none" stroke="black" cx="943" cy="-644.85" rx="24.8513" ry="24.8513"/>
<text text-anchor="middle" x="943" y="-643.65" font-family="Times,serif" font-size="4.00">5&#39;cap&#45;viral&#45;RNA</text>
</g>
<!-- TBK1 -->
<g id="node9" class="node"><title>TBK1</title>
<ellipse fill="none" stroke="black" cx="690" cy="-644.85" rx="18" ry="18"/>
<text text-anchor="middle" x="690" y="-643.65" font-family="Times,serif" font-size="4.00">TBK1</text>
</g>
<!-- IKK&#45;TBK1 -->
<g id="node43" class="node"><title>IKK&#45;TBK1</title>
<ellipse fill="none" stroke="black" cx="716" cy="-529.831" rx="19.1842" ry="19.1842"/>
<text text-anchor="middle" x="716" y="-528.631" font-family="Times,serif" font-size="4.00">IKK&#45;TBK1</text>
</g>
<!-- TBK1&#45;&gt;IKK&#45;TBK1 -->
<g id="edge10" class="edge"><title>TBK1&#45;&gt;IKK&#45;TBK1</title>
<path fill="none" stroke="black" d="M693.836,-627.173C697.988,-609.127 704.677,-580.052 709.621,-558.557"/>
<polygon fill="black" stroke="black" points="713.059,-559.226 711.89,-548.696 706.237,-557.657 713.059,-559.226"/>
</g>
<!-- inhibited ribosomal 40S SU -->
<g id="node10" class="node"><title>inhibited ribosomal 40S SU</title>
<ellipse fill="none" stroke="black" cx="271" cy="-529.831" rx="37.2466" ry="37.2466"/>
<text text-anchor="middle" x="271" y="-528.631" font-family="Times,serif" font-size="4.00">inhibited ribosomal 40S SU</text>
</g>
<!-- SOCS3 -->
<g id="node11" class="node"><title>SOCS3</title>
<ellipse fill="none" stroke="black" cx="601" cy="-107.033" rx="18" ry="18"/>
<text text-anchor="middle" x="601" y="-105.833" font-family="Times,serif" font-size="4.00">SOCS3</text>
</g>
<!-- SOCS3&#45;&gt;receptor complex -->
<g id="edge11" class="edge"><title>SOCS3&#45;&gt;receptor complex</title>
<path fill="none" stroke="black" d="M613.656,-93.7648C624.919,-82.8474 641.75,-66.5326 655.89,-52.8256"/>
<polygon fill="black" stroke="black" points="658.673,-55.0031 663.417,-45.5298 653.801,-49.9768 658.673,-55.0031"/>
</g>
<!-- PLPro -->
<g id="node12" class="node"><title>PLPro</title>
<ellipse fill="none" stroke="black" cx="572" cy="-761.99" rx="18" ry="18"/>
<text text-anchor="middle" x="572" y="-760.79" font-family="Times,serif" font-size="4.00">PLPro</text>
</g>
<!-- PLPro&#45;&gt;RIG&#45;I -->
<g id="edge12" class="edge"><title>PLPro&#45;&gt;RIG&#45;I</title>
<path fill="none" stroke="black" d="M567.702,-744.493C562.806,-725.705 554.738,-694.739 548.947,-672.511"/>
<polygon fill="black" stroke="black" points="552.296,-671.485 546.388,-662.69 545.522,-673.25 552.296,-671.485"/>
</g>
<!-- IRF1 -->
<g id="node17" class="node"><title>IRF1</title>
<ellipse fill="none" stroke="black" cx="739" cy="-257.428" rx="18" ry="18"/>
<text text-anchor="middle" x="739" y="-256.228" font-family="Times,serif" font-size="4.00">IRF1</text>
</g>
<!-- RIG&#45;I&#45;MAVS&#45;&gt;IRF1 -->
<g id="edge14" class="edge"><title>RIG&#45;I&#45;MAVS&#45;&gt;IRF1</title>
<path fill="none" stroke="black" d="M718.913,-402.006C723.04,-372.508 730.594,-318.509 735.171,-285.801"/>
<polygon fill="black" stroke="black" points="738.68,-285.979 736.599,-275.59 731.747,-285.009 738.68,-285.979"/>
</g>
<!-- IRF3 -->
<g id="node21" class="node"><title>IRF3</title>
<ellipse fill="none" stroke="black" cx="693" cy="-336.385" rx="18" ry="18"/>
<text text-anchor="middle" x="693" y="-335.185" font-family="Times,serif" font-size="4.00">IRF3</text>
</g>
<!-- RIG&#45;I&#45;MAVS&#45;&gt;IRF3 -->
<g id="edge13" class="edge"><title>RIG&#45;I&#45;MAVS&#45;&gt;IRF3</title>
<path fill="none" stroke="black" d="M710.549,-402.578C707.436,-391.012 703.495,-376.374 700.138,-363.9"/>
<polygon fill="black" stroke="black" points="703.464,-362.792 697.485,-354.046 696.705,-364.612 703.464,-362.792"/>
</g>
<!-- ISGF3 precursor -->
<g id="node14" class="node"><title>ISGF3 precursor</title>
<ellipse fill="none" stroke="black" cx="215" cy="-761.99" rx="24.8512" ry="24.8513"/>
<text text-anchor="middle" x="215" y="-760.79" font-family="Times,serif" font-size="4.00">ISGF3 precursor</text>
</g>
<!-- ISGF3 -->
<g id="node26" class="node"><title>ISGF3</title>
<ellipse fill="none" stroke="black" cx="18" cy="-644.85" rx="18" ry="18"/>
<text text-anchor="middle" x="18" y="-643.65" font-family="Times,serif" font-size="4.00">ISGF3</text>
</g>
<!-- ISGF3 precursor&#45;&gt;ISGF3 -->
<g id="edge15" class="edge"><title>ISGF3 precursor&#45;&gt;ISGF3</title>
<path fill="none" stroke="black" d="M190.969,-755.192C155.749,-745.732 89.4793,-724.174 45,-686.746 39.4891,-682.109 34.6704,-676.066 30.6887,-670.055"/>
<polygon fill="black" stroke="black" points="33.6444,-668.179 25.4709,-661.437 27.6565,-671.804 33.6444,-668.179"/>
</g>
<!-- Inhibited ISGF3 precursor? -->
<g id="node38" class="node"><title>Inhibited ISGF3 precursor?</title>
<ellipse fill="none" stroke="black" cx="412" cy="-644.85" rx="36.125" ry="36.125"/>
<text text-anchor="middle" x="412" y="-643.65" font-family="Times,serif" font-size="4.00">Inhibited ISGF3 precursor?</text>
</g>
<!-- ISGF3 precursor&#45;&gt;Inhibited ISGF3 precursor? -->
<g id="edge16" class="edge"><title>ISGF3 precursor&#45;&gt;Inhibited ISGF3 precursor?</title>
<path fill="none" stroke="black" d="M237.984,-752.166C268.738,-739.835 324.345,-715.679 367,-686.746 371.046,-684.001 375.101,-680.911 379.029,-677.691"/>
<polygon fill="black" stroke="black" points="381.559,-680.132 386.871,-670.966 377.001,-674.819 381.559,-680.132"/>
</g>
<!-- p38&#45;NFkB&#45;IRF3 -->
<g id="node15" class="node"><title>p38&#45;NFkB&#45;IRF3</title>
<ellipse fill="none" stroke="black" cx="679" cy="-257.428" rx="24.2908" ry="24.2908"/>
<text text-anchor="middle" x="679" y="-256.228" font-family="Times,serif" font-size="4.00">p38&#45;NFkB&#45;IRF3</text>
</g>
<!-- IFN&#45;III -->
<g id="node23" class="node"><title>IFN&#45;III</title>
<ellipse fill="none" stroke="black" cx="709" cy="-179.033" rx="18" ry="18"/>
<text text-anchor="middle" x="709" y="-177.833" font-family="Times,serif" font-size="4.00">IFN&#45;III</text>
</g>
<!-- p38&#45;NFkB&#45;IRF3&#45;&gt;IFN&#45;III -->
<g id="edge17" class="edge"><title>p38&#45;NFkB&#45;IRF3&#45;&gt;IFN&#45;III</title>
<path fill="none" stroke="black" d="M687.677,-234.332C691.185,-225.4 695.257,-215.03 698.897,-205.761"/>
<polygon fill="black" stroke="black" points="702.232,-206.842 702.63,-196.255 695.717,-204.284 702.232,-206.842"/>
</g>
<!-- viral RNA -->
<g id="node16" class="node"><title>viral RNA</title>
<ellipse fill="none" stroke="black" cx="890" cy="-856.327" rx="19.1842" ry="19.1842"/>
<text text-anchor="middle" x="890" y="-855.127" font-family="Times,serif" font-size="4.00">viral RNA</text>
</g>
<!-- viral RNA+N&#45;methyl&#45;Guanine -->
<g id="node20" class="node"><title>viral RNA+N&#45;methyl&#45;Guanine</title>
<ellipse fill="none" stroke="black" cx="919" cy="-761.99" rx="39.4904" ry="39.4904"/>
<text text-anchor="middle" x="919" y="-760.79" font-family="Times,serif" font-size="4.00">viral RNA+N&#45;methyl&#45;Guanine</text>
</g>
<!-- viral RNA&#45;&gt;viral RNA+N&#45;methyl&#45;Guanine -->
<g id="edge18" class="edge"><title>viral RNA&#45;&gt;viral RNA+N&#45;methyl&#45;Guanine</title>
<path fill="none" stroke="black" d="M895.455,-837.959C898.016,-829.803 901.204,-819.652 904.399,-809.479"/>
<polygon fill="black" stroke="black" points="907.787,-810.374 907.444,-799.785 901.108,-808.276 907.787,-810.374"/>
</g>
<!-- IRF1&#45;&gt;IFN&#45;III -->
<g id="edge19" class="edge"><title>IRF1&#45;&gt;IFN&#45;III</title>
<path fill="none" stroke="black" d="M732.638,-240.227C728.674,-230.132 723.488,-216.927 718.985,-205.459"/>
<polygon fill="black" stroke="black" points="722.163,-203.978 715.25,-195.949 715.648,-206.537 722.163,-203.978"/>
</g>
<!-- STAT2 -->
<g id="node18" class="node"><title>STAT2</title>
<ellipse fill="none" stroke="black" cx="188" cy="-856.327" rx="18" ry="18"/>
<text text-anchor="middle" x="188" y="-855.127" font-family="Times,serif" font-size="4.00">STAT2</text>
</g>
<!-- STAT2&#45;&gt;ISGF3 precursor -->
<g id="edge20" class="edge"><title>STAT2&#45;&gt;ISGF3 precursor</title>
<path fill="none" stroke="black" d="M192.827,-838.819C196.302,-826.933 201.108,-810.5 205.357,-795.969"/>
<polygon fill="black" stroke="black" points="208.739,-796.873 208.186,-786.292 202.02,-794.908 208.739,-796.873"/>
</g>
<!-- RIG&#45;1 M&#45;Protein -->
<g id="node19" class="node"><title>RIG&#45;1 M&#45;Protein</title>
<ellipse fill="none" stroke="black" cx="614" cy="-529.831" rx="25.4118" ry="25.4118"/>
<text text-anchor="middle" x="614" y="-528.631" font-family="Times,serif" font-size="4.00">RIG&#45;1 M&#45;Protein</text>
</g>
<!-- viral RNA+N&#45;methyl&#45;Guanine&#45;&gt;5&#39;cap&#45;viral&#45;RNA -->
<g id="edge21" class="edge"><title>viral RNA+N&#45;methyl&#45;Guanine&#45;&gt;5&#39;cap&#45;viral&#45;RNA</title>
<path fill="none" stroke="black" d="M926.858,-723.289C929.8,-709.178 933.12,-693.251 935.98,-679.527"/>
<polygon fill="black" stroke="black" points="939.45,-680.032 938.064,-669.528 932.597,-678.603 939.45,-680.032"/>
</g>
<!-- IRF3&#45;&gt;p38&#45;NFkB&#45;IRF3 -->
<g id="edge22" class="edge"><title>IRF3&#45;&gt;p38&#45;NFkB&#45;IRF3</title>
<path fill="none" stroke="black" d="M689.893,-318.306C688.465,-310.455 686.72,-300.863 685.048,-291.675"/>
<polygon fill="black" stroke="black" points="688.447,-290.802 683.214,-281.589 681.56,-292.054 688.447,-290.802"/>
</g>
<!-- RIG&#45;I&#45;&gt;RIG&#45;I&#45;mitoMAVS -->
<g id="edge23" class="edge"><title>RIG&#45;I&#45;&gt;RIG&#45;I&#45;mitoMAVS</title>
<path fill="none" stroke="black" d="M542,-626.685C542,-610.804 542,-586.693 542,-566.627"/>
<polygon fill="black" stroke="black" points="545.5,-566.567 542,-556.567 538.5,-566.567 545.5,-566.567"/>
</g>
<!-- RIG&#45;I&#45;&gt;RIG&#45;1 M&#45;Protein -->
<g id="edge24" class="edge"><title>RIG&#45;I&#45;&gt;RIG&#45;1 M&#45;Protein</title>
<path fill="none" stroke="black" d="M551.413,-629.074C562.468,-611.72 581.083,-582.501 595.144,-560.428"/>
<polygon fill="black" stroke="black" points="598.244,-562.076 600.666,-551.762 592.341,-558.315 598.244,-562.076"/>
</g>
<!-- IFN&#45;III&#45;&gt;IFNL -->
<g id="edge25" class="edge"><title>IFN&#45;III&#45;&gt;IFNL</title>
<path fill="none" stroke="black" d="M709,-160.73C709,-153.016 709,-143.745 709,-135.145"/>
<polygon fill="black" stroke="black" points="712.5,-135.137 709,-125.137 705.5,-135.137 712.5,-135.137"/>
</g>
<!-- nsp14 -->
<g id="node24" class="node"><title>nsp14</title>
<ellipse fill="none" stroke="black" cx="945" cy="-856.327" rx="18" ry="18"/>
<text text-anchor="middle" x="945" y="-855.127" font-family="Times,serif" font-size="4.00">nsp14</text>
</g>
<!-- nsp14&#45;&gt;viral RNA+N&#45;methyl&#45;Guanine -->
<g id="edge26" class="edge"><title>nsp14&#45;&gt;viral RNA+N&#45;methyl&#45;Guanine</title>
<path fill="none" stroke="black" d="M940.352,-838.819C938.049,-830.642 935.141,-820.313 932.218,-809.932"/>
<polygon fill="black" stroke="black" points="935.51,-808.709 929.43,-800.031 928.772,-810.606 935.51,-808.709"/>
</g>
<!-- p38&#45;NFkB -->
<g id="node25" class="node"><title>p38&#45;NFkB</title>
<ellipse fill="none" stroke="black" cx="638" cy="-336.385" rx="18.6233" ry="18.6233"/>
<text text-anchor="middle" x="638" y="-335.185" font-family="Times,serif" font-size="4.00">p38&#45;NFkB</text>
</g>
<!-- p38&#45;NFkB&#45;&gt;p38&#45;NFkB&#45;IRF3 -->
<g id="edge27" class="edge"><title>p38&#45;NFkB&#45;&gt;p38&#45;NFkB&#45;IRF3</title>
<path fill="none" stroke="black" d="M646.495,-319.439C651.285,-310.45 657.424,-298.927 663.074,-288.321"/>
<polygon fill="black" stroke="black" points="666.255,-289.795 667.868,-279.324 660.077,-286.503 666.255,-289.795"/>
</g>
<!-- ISGF3&#45;&gt;ISGs -->
<g id="edge28" class="edge"><title>ISGF3&#45;&gt;ISGs</title>
<path fill="none" stroke="black" d="M27.2605,-629.304C32.366,-621.419 38.8916,-611.555 45,-602.954 57.2317,-585.73 71.7479,-566.751 82.795,-552.587"/>
<polygon fill="black" stroke="black" points="85.7594,-554.479 89.1737,-544.449 80.2501,-550.161 85.7594,-554.479"/>
</g>
<!-- SOCS1 -->
<g id="node27" class="node"><title>SOCS1</title>
<ellipse fill="none" stroke="black" cx="655" cy="-107.033" rx="18" ry="18"/>
<text text-anchor="middle" x="655" y="-105.833" font-family="Times,serif" font-size="4.00">SOCS1</text>
</g>
<!-- SOCS1&#45;&gt;receptor complex -->
<g id="edge29" class="edge"><title>SOCS1&#45;&gt;receptor complex</title>
<path fill="none" stroke="black" d="M660.594,-89.7643C663.421,-81.5444 666.962,-71.2482 670.345,-61.4101"/>
<polygon fill="black" stroke="black" points="673.701,-62.4132 673.643,-51.8186 667.081,-60.1369 673.701,-62.4132"/>
</g>
<!-- STAT1 -->
<g id="node28" class="node"><title>STAT1</title>
<ellipse fill="none" stroke="black" cx="242" cy="-856.327" rx="18" ry="18"/>
<text text-anchor="middle" x="242" y="-855.127" font-family="Times,serif" font-size="4.00">STAT1</text>
</g>
<!-- STAT1&#45;&gt;ISGF3 precursor -->
<g id="edge30" class="edge"><title>STAT1&#45;&gt;ISGF3 precursor</title>
<path fill="none" stroke="black" d="M237.173,-838.819C233.698,-826.933 228.892,-810.5 224.643,-795.969"/>
<polygon fill="black" stroke="black" points="227.98,-794.908 221.814,-786.292 221.261,-796.873 227.98,-794.908"/>
</g>
<!-- ribosomal 40S subunit -->
<g id="node29" class="node"><title>ribosomal 40S subunit</title>
<ellipse fill="none" stroke="black" cx="270" cy="-644.85" rx="31.6406" ry="31.6406"/>
<text text-anchor="middle" x="270" y="-643.65" font-family="Times,serif" font-size="4.00">ribosomal 40S subunit</text>
</g>
<!-- ribosomal 40S subunit&#45;&gt;inhibited ribosomal 40S SU -->
<g id="edge32" class="edge"><title>ribosomal 40S subunit&#45;&gt;inhibited ribosomal 40S SU</title>
<path fill="none" stroke="black" d="M270.273,-612.967C270.37,-602.048 270.481,-589.51 270.586,-577.572"/>
<polygon fill="black" stroke="black" points="274.089,-577.321 270.677,-567.291 267.089,-577.259 274.089,-577.321"/>
</g>
<!-- 80S ribosome -->
<g id="node36" class="node"><title>80S ribosome</title>
<ellipse fill="none" stroke="black" cx="188" cy="-529.831" rx="22.6101" ry="22.6101"/>
<text text-anchor="middle" x="188" y="-528.631" font-family="Times,serif" font-size="4.00">80S ribosome</text>
</g>
<!-- ribosomal 40S subunit&#45;&gt;80S ribosome -->
<g id="edge31" class="edge"><title>ribosomal 40S subunit&#45;&gt;80S ribosome</title>
<path fill="none" stroke="black" d="M251.598,-618.486C238.309,-600.17 220.414,-575.506 206.991,-557.006"/>
<polygon fill="black" stroke="black" points="209.692,-554.769 200.987,-548.73 204.026,-558.879 209.692,-554.769"/>
</g>
<!-- MDA5 -->
<g id="node30" class="node"><title>MDA5</title>
<ellipse fill="none" stroke="black" cx="999" cy="-856.327" rx="18" ry="18"/>
<text text-anchor="middle" x="999" y="-855.127" font-family="Times,serif" font-size="4.00">MDA5</text>
</g>
<!-- M&#45;protein_ membrane&#45;bound -->
<g id="node31" class="node"><title>M&#45;protein_ membrane&#45;bound</title>
<ellipse fill="none" stroke="black" cx="616" cy="-644.85" rx="38.3684" ry="38.3684"/>
<text text-anchor="middle" x="616" y="-643.65" font-family="Times,serif" font-size="4.00">M&#45;protein_ membrane&#45;bound</text>
</g>
<!-- M&#45;protein_ membrane&#45;bound&#45;&gt;RIG&#45;1 M&#45;Protein -->
<g id="edge33" class="edge"><title>M&#45;protein_ membrane&#45;bound&#45;&gt;RIG&#45;1 M&#45;Protein</title>
<path fill="none" stroke="black" d="M615.34,-606.53C615.107,-593.369 614.846,-578.632 614.617,-565.684"/>
<polygon fill="black" stroke="black" points="618.11,-565.237 614.433,-555.301 611.111,-565.361 618.11,-565.237"/>
</g>
<!-- dsRNA_vesicle&#45;&gt;dsRNA -->
<g id="edge34" class="edge"><title>dsRNA_vesicle&#45;&gt;dsRNA</title>
<path fill="none" stroke="black" d="M842.506,-670.154C839.084,-689.663 832.221,-716.933 825.812,-736.493"/>
<polygon fill="black" stroke="black" points="822.506,-735.343 822.523,-745.938 829.117,-737.645 822.506,-735.343"/>
</g>
<!-- IFNL&#45;&gt;receptor complex -->
<g id="edge35" class="edge"><title>IFNL&#45;&gt;receptor complex</title>
<path fill="none" stroke="black" d="M698.857,-91.9958C694.958,-83.8397 690.819,-73.1649 687.432,-62.8544"/>
<polygon fill="black" stroke="black" points="690.738,-61.6994 684.447,-53.1748 684.049,-63.7622 690.738,-61.6994"/>
</g>
<!-- ribosomal 60S subunit -->
<g id="node34" class="node"><title>ribosomal 60S subunit</title>
<ellipse fill="none" stroke="black" cx="188" cy="-644.85" rx="31.6406" ry="31.6406"/>
<text text-anchor="middle" x="188" y="-643.65" font-family="Times,serif" font-size="4.00">ribosomal 60S subunit</text>
</g>
<!-- ribosomal 60S subunit&#45;&gt;80S ribosome -->
<g id="edge36" class="edge"><title>ribosomal 60S subunit&#45;&gt;80S ribosome</title>
<path fill="none" stroke="black" d="M188,-612.967C188,-597.461 188,-578.689 188,-563.007"/>
<polygon fill="black" stroke="black" points="191.5,-562.722 188,-552.722 184.5,-562.722 191.5,-562.722"/>
</g>
<!-- 80S ribosome&#45;&gt;antiviral proteins -->
<g id="edge39" class="edge"><title>80S ribosome&#45;&gt;antiviral proteins</title>
<path fill="none" stroke="black" d="M185.065,-507.028C183.254,-493.574 180.887,-475.992 178.808,-460.544"/>
<polygon fill="black" stroke="black" points="182.227,-459.71 177.424,-450.266 175.29,-460.644 182.227,-459.71"/>
</g>
<!-- 80S ribosome&#45;&gt;IFNs -->
<g id="edge37" class="edge"><title>80S ribosome&#45;&gt;IFNs</title>
<path fill="none" stroke="black" d="M174.259,-511.188C160.341,-493.316 138.79,-465.646 123.85,-446.462"/>
<polygon fill="black" stroke="black" points="126.603,-444.301 117.697,-438.562 121.081,-448.603 126.603,-444.301"/>
</g>
<!-- inhibited 80S ribosome -->
<g id="node37" class="node"><title>inhibited 80S ribosome</title>
<ellipse fill="none" stroke="black" cx="295" cy="-423.827" rx="32.7614" ry="32.7614"/>
<text text-anchor="middle" x="295" y="-422.627" font-family="Times,serif" font-size="4.00">inhibited 80S ribosome</text>
</g>
<!-- 80S ribosome&#45;&gt;inhibited 80S ribosome -->
<g id="edge38" class="edge"><title>80S ribosome&#45;&gt;inhibited 80S ribosome</title>
<path fill="none" stroke="black" d="M203.833,-513.35C210.38,-506.954 218.051,-499.469 225,-492.707 237.861,-480.194 252.073,-466.405 264.312,-454.543"/>
<polygon fill="black" stroke="black" points="266.902,-456.907 271.648,-447.434 262.03,-451.879 266.902,-456.907"/>
</g>
<!-- viral nsp1 -->
<g id="node39" class="node"><title>viral nsp1</title>
<ellipse fill="none" stroke="black" cx="339" cy="-644.85" rx="19.1842" ry="19.1842"/>
<text text-anchor="middle" x="339" y="-643.65" font-family="Times,serif" font-size="4.00">viral nsp1</text>
</g>
<!-- viral nsp1&#45;&gt;inhibited ribosomal 40S SU -->
<g id="edge41" class="edge"><title>viral nsp1&#45;&gt;inhibited ribosomal 40S SU</title>
<path fill="none" stroke="black" d="M329.545,-628.135C320.684,-613.407 307.06,-590.764 295.184,-571.026"/>
<polygon fill="black" stroke="black" points="298.029,-568.964 289.874,-562.2 292.031,-572.573 298.029,-568.964"/>
</g>
<!-- viral nsp1&#45;&gt;inhibited 80S ribosome -->
<g id="edge40" class="edge"><title>viral nsp1&#45;&gt;inhibited 80S ribosome</title>
<path fill="none" stroke="black" d="M337.34,-625.517C334.524,-596.894 328.014,-539.966 317,-492.707 314.852,-483.493 312.028,-473.735 309.122,-464.577"/>
<polygon fill="black" stroke="black" points="312.402,-463.346 305.965,-454.931 305.749,-465.523 312.402,-463.346"/>
</g>
<!-- STAT3 -->
<g id="node40" class="node"><title>STAT3</title>
<ellipse fill="none" stroke="black" cx="412" cy="-761.99" rx="18" ry="18"/>
<text text-anchor="middle" x="412" y="-760.79" font-family="Times,serif" font-size="4.00">STAT3</text>
</g>
<!-- STAT3&#45;&gt;Inhibited ISGF3 precursor? -->
<g id="edge42" class="edge"><title>STAT3&#45;&gt;Inhibited ISGF3 precursor?</title>
<path fill="none" stroke="black" d="M412,-743.503C412,-729.66 412,-709.679 412,-691.393"/>
<polygon fill="black" stroke="black" points="415.5,-691.171 412,-681.171 408.5,-691.171 415.5,-691.171"/>
</g>
<!-- IFN&#45;sensitive&#45;response&#45;element -->
<g id="node41" class="node"><title>IFN&#45;sensitive&#45;response&#45;element</title>
<ellipse fill="none" stroke="black" cx="96" cy="-644.85" rx="41.7924" ry="41.7924"/>
<text text-anchor="middle" x="96" y="-643.65" font-family="Times,serif" font-size="4.00">IFN&#45;sensitive&#45;response&#45;element</text>
</g>
<!-- IFN&#45;sensitive&#45;response&#45;element&#45;&gt;ISGs -->
<g id="edge43" class="edge"><title>IFN&#45;sensitive&#45;response&#45;element&#45;&gt;ISGs</title>
<path fill="none" stroke="black" d="M97.4554,-602.727C97.9842,-587.787 98.5679,-571.293 99.0428,-557.876"/>
<polygon fill="black" stroke="black" points="102.541,-557.981 99.3972,-547.863 95.5456,-557.733 102.541,-557.981"/>
</g>
<!-- IKK -->
<g id="node42" class="node"><title>IKK</title>
<ellipse fill="none" stroke="black" cx="744" cy="-644.85" rx="18" ry="18"/>
<text text-anchor="middle" x="744" y="-643.65" font-family="Times,serif" font-size="4.00">IKK</text>
</g>
<!-- IKK&#45;&gt;IKK&#45;TBK1 -->
<g id="edge44" class="edge"><title>IKK&#45;&gt;IKK&#45;TBK1</title>
<path fill="none" stroke="black" d="M739.869,-627.173C735.398,-609.127 728.194,-580.052 722.869,-558.557"/>
<polygon fill="black" stroke="black" points="726.228,-557.561 720.426,-548.696 719.434,-559.244 726.228,-557.561"/>
</g>
<!-- IKK&#45;TBK1&#45;&gt;RIG&#45;I&#45;MAVS -->
<g id="edge45" class="edge"><title>IKK&#45;TBK1&#45;&gt;RIG&#45;I&#45;MAVS</title>
<path fill="none" stroke="black" d="M716,-510.714C716,-495.536 716,-473.534 716,-455.6"/>
<polygon fill="black" stroke="black" points="719.5,-455.592 716,-445.592 712.5,-455.593 719.5,-455.592"/>
</g>
<!-- RNA -->
<g id="node44" class="node"><title>RNA</title>
<ellipse fill="none" stroke="black" cx="814" cy="-856.327" rx="18" ry="18"/>
<text text-anchor="middle" x="814" y="-855.127" font-family="Times,serif" font-size="4.00">RNA</text>
</g>
<!-- RNA&#45;&gt;dsRNA -->
<g id="edge46" class="edge"><title>RNA&#45;&gt;dsRNA</title>
<path fill="none" stroke="black" d="M814,-837.959C814,-824.546 814,-805.733 814,-790.309"/>
<polygon fill="black" stroke="black" points="817.5,-790.28 814,-780.28 810.5,-790.28 817.5,-790.28"/>
</g>
<!-- IRF9 -->
<g id="node45" class="node"><title>IRF9</title>
<ellipse fill="none" stroke="black" cx="18" cy="-761.99" rx="18" ry="18"/>
<text text-anchor="middle" x="18" y="-760.79" font-family="Times,serif" font-size="4.00">IRF9</text>
</g>
<!-- IRF9&#45;&gt;ISGF3 -->
<g id="edge47" class="edge"><title>IRF9&#45;&gt;ISGF3</title>
<path fill="none" stroke="black" d="M18,-743.503C18,-724.882 18,-695.154 18,-673.385"/>
<polygon fill="black" stroke="black" points="21.5001,-673.124 18,-663.124 14.5001,-673.124 21.5001,-673.124"/>
</g>
<!-- nsp16 -->
<g id="node46" class="node"><title>nsp16</title>
<ellipse fill="none" stroke="black" cx="994" cy="-761.99" rx="18" ry="18"/>
<text text-anchor="middle" x="994" y="-760.79" font-family="Times,serif" font-size="4.00">nsp16</text>
</g>
<!-- nsp16&#45;&gt;5&#39;cap&#45;viral&#45;RNA -->
<g id="edge48" class="edge"><title>nsp16&#45;&gt;5&#39;cap&#45;viral&#45;RNA</title>
<path fill="none" stroke="black" d="M986.909,-744.98C979.184,-727.541 966.633,-699.206 956.924,-677.286"/>
<polygon fill="black" stroke="black" points="960.076,-675.759 952.826,-668.033 953.676,-678.594 960.076,-675.759"/>
</g>
</g>
</svg>
