<?xml version="1.0" encoding="UTF-8" standalone="no"?>
<!DOCTYPE svg PUBLIC "-//W3C//DTD SVG 1.1//EN"
 "http://www.w3.org/Graphics/SVG/1.1/DTD/svg11.dtd">
<!-- Generated by graphviz version 2.38.0 (20140413.2041)
 -->
<!-- Title: G Pages: 1 -->
<svg width="971pt" height="803pt"
 viewBox="0.00 0.00 971.00 802.93" xmlns="http://www.w3.org/2000/svg" xmlns:xlink="http://www.w3.org/1999/xlink">
<g id="graph0" class="graph" transform="scale(1 1) rotate(0) translate(4 798.933)">
<title>G</title>
<polygon fill="white" stroke="none" points="-4,4 -4,-798.933 967,-798.933 967,4 -4,4"/>
<!-- ISGF3 precursor -->
<g id="node1" class="node"><title>ISGF3 precursor</title>
<ellipse fill="none" stroke="black" cx="214" cy="-681.505" rx="24.8512" ry="24.8513"/>
<text text-anchor="middle" x="214" y="-680.305" font-family="Times,serif" font-size="4.00">ISGF3 precursor</text>
</g>
<!-- ISGF3 -->
<g id="node5" class="node"><title>ISGF3</title>
<ellipse fill="none" stroke="black" cx="18" cy="-564.364" rx="18" ry="18"/>
<text text-anchor="middle" x="18" y="-563.164" font-family="Times,serif" font-size="4.00">ISGF3</text>
</g>
<!-- ISGF3 precursor&#45;&gt;ISGF3 -->
<g id="edge2" class="edge"><title>ISGF3 precursor&#45;&gt;ISGF3</title>
<path fill="none" stroke="black" d="M189.819,-674.592C154.733,-665.046 89.0968,-643.448 45,-606.26 39.4941,-601.617 34.6771,-595.573 30.6955,-589.562"/>
<polygon fill="black" stroke="black" points="33.6511,-587.685 25.4767,-580.945 27.6638,-591.312 33.6511,-587.685"/>
</g>
<!-- Inhibited ISGF3 precursor -->
<g id="node7" class="node"><title>Inhibited ISGF3 precursor</title>
<ellipse fill="none" stroke="black" cx="409" cy="-564.364" rx="35.0036" ry="35.0036"/>
<text text-anchor="middle" x="409" y="-563.164" font-family="Times,serif" font-size="4.00">Inhibited ISGF3 precursor</text>
</g>
<!-- ISGF3 precursor&#45;&gt;Inhibited ISGF3 precursor -->
<g id="edge1" class="edge"><title>ISGF3 precursor&#45;&gt;Inhibited ISGF3 precursor</title>
<path fill="none" stroke="black" d="M237.138,-671.616C267.791,-659.299 322.891,-635.249 365,-606.26 369.188,-603.378 373.376,-600.11 377.413,-596.708"/>
<polygon fill="black" stroke="black" points="379.761,-599.304 384.95,-590.067 375.133,-594.052 379.761,-599.304"/>
</g>
<!-- inhibited 80S ribosome -->
<g id="node2" class="node"><title>inhibited 80S ribosome</title>
<ellipse fill="none" stroke="black" cx="293" cy="-343.342" rx="32.7614" ry="32.7614"/>
<text text-anchor="middle" x="293" y="-342.142" font-family="Times,serif" font-size="4.00">inhibited 80S ribosome</text>
</g>
<!-- nsp14 -->
<g id="node3" class="node"><title>nsp14</title>
<ellipse fill="none" stroke="black" cx="459" cy="-775.841" rx="18" ry="18"/>
<text text-anchor="middle" x="459" y="-774.641" font-family="Times,serif" font-size="4.00">nsp14</text>
</g>
<!-- viral RNA+N&#45;methyl&#45;Guanine -->
<g id="node18" class="node"><title>viral RNA+N&#45;methyl&#45;Guanine</title>
<ellipse fill="none" stroke="black" cx="486" cy="-681.505" rx="39.4904" ry="39.4904"/>
<text text-anchor="middle" x="486" y="-680.305" font-family="Times,serif" font-size="4.00">viral RNA+N&#45;methyl&#45;Guanine</text>
</g>
<!-- nsp14&#45;&gt;viral RNA+N&#45;methyl&#45;Guanine -->
<g id="edge3" class="edge"><title>nsp14&#45;&gt;viral RNA+N&#45;methyl&#45;Guanine</title>
<path fill="none" stroke="black" d="M463.827,-758.333C466.218,-750.157 469.238,-739.828 472.274,-729.447"/>
<polygon fill="black" stroke="black" points="475.721,-730.127 475.169,-719.546 469.003,-728.162 475.721,-730.127"/>
</g>
<!-- SOCS3 -->
<g id="node4" class="node"><title>SOCS3</title>
<ellipse fill="none" stroke="black" cx="588" cy="-183.9" rx="18" ry="18"/>
<text text-anchor="middle" x="588" y="-182.7" font-family="Times,serif" font-size="4.00">SOCS3</text>
</g>
<!-- receptor complex -->
<g id="node11" class="node"><title>receptor complex</title>
<ellipse fill="none" stroke="black" cx="640" cy="-102.822" rx="26.533" ry="26.533"/>
<text text-anchor="middle" x="640" y="-101.622" font-family="Times,serif" font-size="4.00">receptor complex</text>
</g>
<!-- SOCS3&#45;&gt;receptor complex -->
<g id="edge4" class="edge"><title>SOCS3&#45;&gt;receptor complex</title>
<path fill="none" stroke="black" d="M597.538,-168.396C603.908,-158.708 612.518,-145.614 620.32,-133.75"/>
<polygon fill="black" stroke="black" points="623.244,-135.673 625.814,-125.394 617.396,-131.826 623.244,-135.673"/>
</g>
<!-- ISGs -->
<g id="node28" class="node"><title>ISGs</title>
<ellipse fill="none" stroke="black" cx="100" cy="-449.345" rx="18" ry="18"/>
<text text-anchor="middle" x="100" y="-448.145" font-family="Times,serif" font-size="4.00">ISGs</text>
</g>
<!-- ISGF3&#45;&gt;ISGs -->
<g id="edge5" class="edge"><title>ISGF3&#45;&gt;ISGs</title>
<path fill="none" stroke="black" d="M27.2605,-548.819C32.366,-540.934 38.8916,-531.07 45,-522.468 57.2317,-505.244 71.7479,-486.266 82.795,-472.102"/>
<polygon fill="black" stroke="black" points="85.7594,-473.993 89.1737,-463.964 80.2501,-469.675 85.7594,-473.993"/>
</g>
<!-- RIG&#45;I -->
<g id="node6" class="node"><title>RIG&#45;I</title>
<ellipse fill="none" stroke="black" cx="717" cy="-681.505" rx="18" ry="18"/>
<text text-anchor="middle" x="717" y="-680.305" font-family="Times,serif" font-size="4.00">RIG&#45;I</text>
</g>
<!-- RIG&#45;1 M&#45;Protein -->
<g id="node16" class="node"><title>RIG&#45;1 M&#45;Protein</title>
<ellipse fill="none" stroke="black" cx="717" cy="-564.364" rx="25.4118" ry="25.4118"/>
<text text-anchor="middle" x="717" y="-563.164" font-family="Times,serif" font-size="4.00">RIG&#45;1 M&#45;Protein</text>
</g>
<!-- RIG&#45;I&#45;&gt;RIG&#45;1 M&#45;Protein -->
<g id="edge7" class="edge"><title>RIG&#45;I&#45;&gt;RIG&#45;1 M&#45;Protein</title>
<path fill="none" stroke="black" d="M717,-663.018C717,-646.334 717,-620.735 717,-599.931"/>
<polygon fill="black" stroke="black" points="720.5,-599.864 717,-589.864 713.5,-599.864 720.5,-599.864"/>
</g>
<!-- RIG&#45;I_dsRNA -->
<g id="node35" class="node"><title>RIG&#45;I_dsRNA</title>
<ellipse fill="none" stroke="black" cx="783" cy="-564.364" rx="22.6101" ry="22.6101"/>
<text text-anchor="middle" x="783" y="-563.164" font-family="Times,serif" font-size="4.00">RIG&#45;I_dsRNA</text>
</g>
<!-- RIG&#45;I&#45;&gt;RIG&#45;I_dsRNA -->
<g id="edge6" class="edge"><title>RIG&#45;I&#45;&gt;RIG&#45;I_dsRNA</title>
<path fill="none" stroke="black" d="M725.628,-665.452C736.07,-647.237 753.866,-616.189 766.876,-593.494"/>
<polygon fill="black" stroke="black" points="770.012,-595.061 771.948,-584.644 763.939,-591.58 770.012,-595.061"/>
</g>
<!-- IKK&#45;TBK1 -->
<g id="node8" class="node"><title>IKK&#45;TBK1</title>
<ellipse fill="none" stroke="black" cx="602" cy="-449.345" rx="19.1842" ry="19.1842"/>
<text text-anchor="middle" x="602" y="-448.145" font-family="Times,serif" font-size="4.00">IKK&#45;TBK1</text>
</g>
<!-- RIG&#45;I&#45;MAVS -->
<g id="node19" class="node"><title>RIG&#45;I&#45;MAVS</title>
<ellipse fill="none" stroke="black" cx="724" cy="-343.342" rx="21.9898" ry="21.9898"/>
<text text-anchor="middle" x="724" y="-342.142" font-family="Times,serif" font-size="4.00">RIG&#45;I&#45;MAVS</text>
</g>
<!-- IKK&#45;TBK1&#45;&gt;RIG&#45;I&#45;MAVS -->
<g id="edge8" class="edge"><title>IKK&#45;TBK1&#45;&gt;RIG&#45;I&#45;MAVS</title>
<path fill="none" stroke="black" d="M616.474,-436.006C637.002,-418.506 674.838,-386.252 699.71,-365.049"/>
<polygon fill="black" stroke="black" points="702.265,-367.47 707.604,-358.319 697.723,-362.143 702.265,-367.47"/>
</g>
<!-- IFIH1 -->
<g id="node9" class="node"><title>IFIH1</title>
<ellipse fill="none" stroke="black" cx="945" cy="-775.841" rx="18" ry="18"/>
<text text-anchor="middle" x="945" y="-774.641" font-family="Times,serif" font-size="4.00">IFIH1</text>
</g>
<!-- nsp16 -->
<g id="node10" class="node"><title>nsp16</title>
<ellipse fill="none" stroke="black" cx="561" cy="-681.505" rx="18" ry="18"/>
<text text-anchor="middle" x="561" y="-680.305" font-family="Times,serif" font-size="4.00">nsp16</text>
</g>
<!-- 5&#39;cap&#45;viral&#45;RNA -->
<g id="node23" class="node"><title>5&#39;cap&#45;viral&#45;RNA</title>
<ellipse fill="none" stroke="black" cx="487" cy="-564.364" rx="24.8512" ry="24.8513"/>
<text text-anchor="middle" x="487" y="-563.164" font-family="Times,serif" font-size="4.00">5&#39;cap&#45;viral&#45;RNA</text>
</g>
<!-- nsp16&#45;&gt;5&#39;cap&#45;viral&#45;RNA -->
<g id="edge9" class="edge"><title>nsp16&#45;&gt;5&#39;cap&#45;viral&#45;RNA</title>
<path fill="none" stroke="black" d="M551.628,-665.922C540.092,-647.973 520.231,-617.07 505.563,-594.247"/>
<polygon fill="black" stroke="black" points="508.379,-592.155 500.028,-585.635 502.49,-595.939 508.379,-592.155"/>
</g>
<!-- Ifn lambda -->
<g id="node40" class="node"><title>Ifn lambda</title>
<ellipse fill="none" stroke="black" cx="640" cy="-20.1525" rx="20.3062" ry="20.3062"/>
<text text-anchor="middle" x="640" y="-18.9525" font-family="Times,serif" font-size="4.00">Ifn lambda</text>
</g>
<!-- receptor complex&#45;&gt;Ifn lambda -->
<g id="edge10" class="edge"><title>receptor complex&#45;&gt;Ifn lambda</title>
<path fill="none" stroke="black" d="M633.699,-76.7396C633.172,-68.1904 633.109,-58.569 633.51,-49.7639"/>
<polygon fill="black" stroke="black" points="637.018,-49.7767 634.229,-39.5554 630.035,-49.2846 637.018,-49.7767"/>
</g>
<!-- dsRNA_vesicle -->
<g id="node12" class="node"><title>dsRNA_vesicle</title>
<ellipse fill="none" stroke="black" cx="870" cy="-564.364" rx="24.8513" ry="24.8513"/>
<text text-anchor="middle" x="870" y="-563.164" font-family="Times,serif" font-size="4.00">dsRNA_vesicle</text>
</g>
<!-- dsRNA -->
<g id="node13" class="node"><title>dsRNA</title>
<ellipse fill="none" stroke="black" cx="891" cy="-681.505" rx="18" ry="18"/>
<text text-anchor="middle" x="891" y="-680.305" font-family="Times,serif" font-size="4.00">dsRNA</text>
</g>
<!-- dsRNA_vesicle&#45;&gt;dsRNA -->
<g id="edge11" class="edge"><title>dsRNA_vesicle&#45;&gt;dsRNA</title>
<path fill="none" stroke="black" d="M879.506,-587.56C884.527,-606.365 889.578,-633.392 891.891,-653.459"/>
<polygon fill="black" stroke="black" points="888.417,-653.896 892.857,-663.516 895.385,-653.227 888.417,-653.896"/>
</g>
<!-- dsRNA&#45;&gt;dsRNA_vesicle -->
<g id="edge14" class="edge"><title>dsRNA&#45;&gt;dsRNA_vesicle</title>
<path fill="none" stroke="black" d="M883.379,-664.977C878.359,-648.307 872.952,-621.298 870.014,-599.606"/>
<polygon fill="black" stroke="black" points="873.461,-598.959 868.783,-589.453 866.512,-599.802 873.461,-598.959"/>
</g>
<!-- dsRNA&#45;&gt;RIG&#45;I&#45;MAVS -->
<g id="edge13" class="edge"><title>dsRNA&#45;&gt;RIG&#45;I&#45;MAVS</title>
<path fill="none" stroke="black" d="M897.005,-664.499C907.046,-635.083 924.249,-570.995 904,-522.468 872.769,-447.624 793.087,-388.154 750.994,-360.762"/>
<polygon fill="black" stroke="black" points="752.682,-357.687 742.37,-355.257 748.916,-363.588 752.682,-357.687"/>
</g>
<!-- dsRNA&#45;&gt;RIG&#45;I_dsRNA -->
<g id="edge12" class="edge"><title>dsRNA&#45;&gt;RIG&#45;I_dsRNA</title>
<path fill="none" stroke="black" d="M881.638,-665.838C876.711,-658.502 870.38,-649.637 864,-642.26 846.559,-622.095 824.486,-601.408 807.789,-586.577"/>
<polygon fill="black" stroke="black" points="809.89,-583.765 800.067,-579.795 805.271,-589.024 809.89,-583.765"/>
</g>
<!-- RNA -->
<g id="node14" class="node"><title>RNA</title>
<ellipse fill="none" stroke="black" cx="891" cy="-775.841" rx="18" ry="18"/>
<text text-anchor="middle" x="891" y="-774.641" font-family="Times,serif" font-size="4.00">RNA</text>
</g>
<!-- RNA&#45;&gt;dsRNA -->
<g id="edge15" class="edge"><title>RNA&#45;&gt;dsRNA</title>
<path fill="none" stroke="black" d="M891,-757.473C891,-744.061 891,-725.248 891,-709.824"/>
<polygon fill="black" stroke="black" points="894.5,-709.795 891,-699.795 887.5,-709.795 894.5,-709.795"/>
</g>
<!-- STAT3 -->
<g id="node15" class="node"><title>STAT3</title>
<ellipse fill="none" stroke="black" cx="409" cy="-681.505" rx="18" ry="18"/>
<text text-anchor="middle" x="409" y="-680.305" font-family="Times,serif" font-size="4.00">STAT3</text>
</g>
<!-- STAT3&#45;&gt;Inhibited ISGF3 precursor -->
<g id="edge16" class="edge"><title>STAT3&#45;&gt;Inhibited ISGF3 precursor</title>
<path fill="none" stroke="black" d="M409,-663.018C409,-648.898 409,-628.393 409,-609.813"/>
<polygon fill="black" stroke="black" points="412.5,-609.742 409,-599.742 405.5,-609.742 412.5,-609.742"/>
</g>
<!-- Riplet_TRIM25 -->
<g id="node17" class="node"><title>Riplet_TRIM25</title>
<ellipse fill="none" stroke="black" cx="777" cy="-681.505" rx="24.2908" ry="24.2908"/>
<text text-anchor="middle" x="777" y="-680.305" font-family="Times,serif" font-size="4.00">Riplet_TRIM25</text>
</g>
<!-- Riplet_TRIM25&#45;&gt;RIG&#45;I_dsRNA -->
<g id="edge17" class="edge"><title>Riplet_TRIM25&#45;&gt;RIG&#45;I_dsRNA</title>
<path fill="none" stroke="black" d="M778.229,-656.927C779.121,-639.797 780.34,-616.413 781.322,-597.564"/>
<polygon fill="black" stroke="black" points="784.829,-597.519 781.854,-587.351 777.839,-597.155 784.829,-597.519"/>
</g>
<!-- viral RNA+N&#45;methyl&#45;Guanine&#45;&gt;5&#39;cap&#45;viral&#45;RNA -->
<g id="edge18" class="edge"><title>viral RNA+N&#45;methyl&#45;Guanine&#45;&gt;5&#39;cap&#45;viral&#45;RNA</title>
<path fill="none" stroke="black" d="M486.333,-642.165C486.452,-628.434 486.586,-613.054 486.702,-599.685"/>
<polygon fill="black" stroke="black" points="490.204,-599.494 486.791,-589.464 483.204,-599.434 490.204,-599.494"/>
</g>
<!-- IRF3 -->
<g id="node21" class="node"><title>IRF3</title>
<ellipse fill="none" stroke="black" cx="697" cy="-256.461" rx="18" ry="18"/>
<text text-anchor="middle" x="697" y="-255.261" font-family="Times,serif" font-size="4.00">IRF3</text>
</g>
<!-- RIG&#45;I&#45;MAVS&#45;&gt;IRF3 -->
<g id="edge20" class="edge"><title>RIG&#45;I&#45;MAVS&#45;&gt;IRF3</title>
<path fill="none" stroke="black" d="M717.601,-322.226C713.922,-310.66 709.259,-296 705.3,-283.555"/>
<polygon fill="black" stroke="black" points="708.544,-282.206 702.177,-273.738 701.873,-284.328 708.544,-282.206"/>
</g>
<!-- IRF1 -->
<g id="node22" class="node"><title>IRF1</title>
<ellipse fill="none" stroke="black" cx="751" cy="-256.461" rx="18" ry="18"/>
<text text-anchor="middle" x="751" y="-255.261" font-family="Times,serif" font-size="4.00">IRF1</text>
</g>
<!-- RIG&#45;I&#45;MAVS&#45;&gt;IRF1 -->
<g id="edge19" class="edge"><title>RIG&#45;I&#45;MAVS&#45;&gt;IRF1</title>
<path fill="none" stroke="black" d="M730.399,-322.226C734.078,-310.66 738.741,-296 742.7,-283.555"/>
<polygon fill="black" stroke="black" points="746.127,-284.328 745.823,-273.738 739.456,-282.206 746.127,-284.328"/>
</g>
<!-- viral RNA -->
<g id="node20" class="node"><title>viral RNA</title>
<ellipse fill="none" stroke="black" cx="514" cy="-775.841" rx="19.1842" ry="19.1842"/>
<text text-anchor="middle" x="514" y="-774.641" font-family="Times,serif" font-size="4.00">viral RNA</text>
</g>
<!-- viral RNA&#45;&gt;viral RNA+N&#45;methyl&#45;Guanine -->
<g id="edge21" class="edge"><title>viral RNA&#45;&gt;viral RNA+N&#45;methyl&#45;Guanine</title>
<path fill="none" stroke="black" d="M508.733,-757.473C506.26,-749.318 503.182,-739.166 500.097,-728.994"/>
<polygon fill="black" stroke="black" points="503.409,-727.853 497.157,-719.299 496.71,-729.885 503.409,-727.853"/>
</g>
<!-- p38&#45;NFkB -->
<g id="node37" class="node"><title>p38&#45;NFkB</title>
<ellipse fill="none" stroke="black" cx="699" cy="-183.9" rx="18.6233" ry="18.6233"/>
<text text-anchor="middle" x="699" y="-182.7" font-family="Times,serif" font-size="4.00">p38&#45;NFkB</text>
</g>
<!-- IRF3&#45;&gt;p38&#45;NFkB -->
<g id="edge22" class="edge"><title>IRF3&#45;&gt;p38&#45;NFkB</title>
<path fill="none" stroke="black" d="M697.484,-238.38C697.701,-230.725 697.963,-221.496 698.207,-212.875"/>
<polygon fill="black" stroke="black" points="701.708,-212.903 698.492,-202.808 694.71,-212.705 701.708,-212.903"/>
</g>
<!-- IFN&#45;III -->
<g id="node25" class="node"><title>IFN&#45;III</title>
<ellipse fill="none" stroke="black" cx="703" cy="-102.822" rx="18" ry="18"/>
<text text-anchor="middle" x="703" y="-101.622" font-family="Times,serif" font-size="4.00">IFN&#45;III</text>
</g>
<!-- IRF1&#45;&gt;IFN&#45;III -->
<g id="edge23" class="edge"><title>IRF1&#45;&gt;IFN&#45;III</title>
<path fill="none" stroke="black" d="M747.128,-238.687C742.783,-220.465 735.255,-190.577 727,-165.338 723.043,-153.242 718.005,-140.068 713.567,-129.026"/>
<polygon fill="black" stroke="black" points="716.73,-127.512 709.709,-119.577 710.249,-130.158 716.73,-127.512"/>
</g>
<!-- STAT1 -->
<g id="node24" class="node"><title>STAT1</title>
<ellipse fill="none" stroke="black" cx="187" cy="-775.841" rx="18" ry="18"/>
<text text-anchor="middle" x="187" y="-774.641" font-family="Times,serif" font-size="4.00">STAT1</text>
</g>
<!-- STAT1&#45;&gt;ISGF3 precursor -->
<g id="edge24" class="edge"><title>STAT1&#45;&gt;ISGF3 precursor</title>
<path fill="none" stroke="black" d="M191.827,-758.333C195.302,-746.448 200.108,-730.014 204.357,-715.484"/>
<polygon fill="black" stroke="black" points="207.739,-716.388 207.186,-705.807 201.02,-714.423 207.739,-716.388"/>
</g>
<!-- IFN&#45;III&#45;&gt;Ifn lambda -->
<g id="edge25" class="edge"><title>IFN&#45;III&#45;&gt;Ifn lambda</title>
<path fill="none" stroke="black" d="M692.313,-88.1372C683.068,-76.2995 669.494,-58.9183 658.49,-44.8279"/>
<polygon fill="black" stroke="black" points="660.945,-42.2858 652.032,-36.5588 655.428,-46.5944 660.945,-42.2858"/>
</g>
<!-- IRF9 -->
<g id="node26" class="node"><title>IRF9</title>
<ellipse fill="none" stroke="black" cx="18" cy="-681.505" rx="18" ry="18"/>
<text text-anchor="middle" x="18" y="-680.305" font-family="Times,serif" font-size="4.00">IRF9</text>
</g>
<!-- IRF9&#45;&gt;ISGF3 -->
<g id="edge26" class="edge"><title>IRF9&#45;&gt;ISGF3</title>
<path fill="none" stroke="black" d="M18,-663.018C18,-644.397 18,-614.669 18,-592.899"/>
<polygon fill="black" stroke="black" points="21.5001,-592.639 18,-582.639 14.5001,-592.639 21.5001,-592.639"/>
</g>
<!-- Nsp1 -->
<g id="node27" class="node"><title>Nsp1</title>
<ellipse fill="none" stroke="black" cx="338" cy="-564.364" rx="18" ry="18"/>
<text text-anchor="middle" x="338" y="-563.164" font-family="Times,serif" font-size="4.00">Nsp1</text>
</g>
<!-- Nsp1&#45;&gt;inhibited 80S ribosome -->
<g id="edge28" class="edge"><title>Nsp1&#45;&gt;inhibited 80S ribosome</title>
<path fill="none" stroke="black" d="M336.764,-546.381C334.464,-518.191 328.663,-460.097 317,-412.222 314.694,-402.758 311.569,-392.765 308.335,-383.443"/>
<polygon fill="black" stroke="black" points="311.627,-382.254 304.957,-374.022 305.038,-384.616 311.627,-382.254"/>
</g>
<!-- inhibited ribosomal 40S SU -->
<g id="node41" class="node"><title>inhibited ribosomal 40S SU</title>
<ellipse fill="none" stroke="black" cx="271" cy="-449.345" rx="37.2466" ry="37.2466"/>
<text text-anchor="middle" x="271" y="-448.145" font-family="Times,serif" font-size="4.00">inhibited ribosomal 40S SU</text>
</g>
<!-- Nsp1&#45;&gt;inhibited ribosomal 40S SU -->
<g id="edge27" class="edge"><title>Nsp1&#45;&gt;inhibited ribosomal 40S SU</title>
<path fill="none" stroke="black" d="M329.241,-548.589C320.528,-533.891 306.769,-510.682 294.812,-490.512"/>
<polygon fill="black" stroke="black" points="297.754,-488.612 289.644,-481.795 291.733,-492.181 297.754,-488.612"/>
</g>
<!-- IFNs -->
<g id="node36" class="node"><title>IFNs</title>
<ellipse fill="none" stroke="black" cx="184" cy="-343.342" rx="18" ry="18"/>
<text text-anchor="middle" x="184" y="-342.142" font-family="Times,serif" font-size="4.00">IFNs</text>
</g>
<!-- ISGs&#45;&gt;IFNs -->
<g id="edge30" class="edge"><title>ISGs&#45;&gt;IFNs</title>
<path fill="none" stroke="black" d="M110.982,-434.749C125.131,-417.23 149.891,-386.573 166.611,-365.871"/>
<polygon fill="black" stroke="black" points="169.455,-367.92 173.016,-357.942 164.01,-363.522 169.455,-367.92"/>
</g>
<!-- antiviral proteins -->
<g id="node44" class="node"><title>antiviral proteins</title>
<ellipse fill="none" stroke="black" cx="107" cy="-343.342" rx="26.533" ry="26.533"/>
<text text-anchor="middle" x="107" y="-342.142" font-family="Times,serif" font-size="4.00">antiviral proteins</text>
</g>
<!-- ISGs&#45;&gt;antiviral proteins -->
<g id="edge29" class="edge"><title>ISGs&#45;&gt;antiviral proteins</title>
<path fill="none" stroke="black" d="M101.156,-431.171C102.082,-417.411 103.413,-397.629 104.572,-380.422"/>
<polygon fill="black" stroke="black" points="108.086,-380.33 105.265,-370.117 101.101,-379.86 108.086,-380.33"/>
</g>
<!-- ribosomal 40S subunit -->
<g id="node29" class="node"><title>ribosomal 40S subunit</title>
<ellipse fill="none" stroke="black" cx="270" cy="-564.364" rx="31.6406" ry="31.6406"/>
<text text-anchor="middle" x="270" y="-563.164" font-family="Times,serif" font-size="4.00">ribosomal 40S subunit</text>
</g>
<!-- 80S ribosome -->
<g id="node34" class="node"><title>80S ribosome</title>
<ellipse fill="none" stroke="black" cx="188" cy="-449.345" rx="22.6101" ry="22.6101"/>
<text text-anchor="middle" x="188" y="-448.145" font-family="Times,serif" font-size="4.00">80S ribosome</text>
</g>
<!-- ribosomal 40S subunit&#45;&gt;80S ribosome -->
<g id="edge31" class="edge"><title>ribosomal 40S subunit&#45;&gt;80S ribosome</title>
<path fill="none" stroke="black" d="M251.598,-538.001C238.309,-519.685 220.414,-495.02 206.991,-476.521"/>
<polygon fill="black" stroke="black" points="209.692,-474.283 200.987,-468.245 204.026,-478.394 209.692,-474.283"/>
</g>
<!-- ribosomal 40S subunit&#45;&gt;inhibited ribosomal 40S SU -->
<g id="edge32" class="edge"><title>ribosomal 40S subunit&#45;&gt;inhibited ribosomal 40S SU</title>
<path fill="none" stroke="black" d="M270.273,-532.481C270.37,-521.563 270.481,-509.025 270.586,-497.086"/>
<polygon fill="black" stroke="black" points="274.089,-496.836 270.677,-486.805 267.089,-496.774 274.089,-496.836"/>
</g>
<!-- STAT2 -->
<g id="node30" class="node"><title>STAT2</title>
<ellipse fill="none" stroke="black" cx="241" cy="-775.841" rx="18" ry="18"/>
<text text-anchor="middle" x="241" y="-774.641" font-family="Times,serif" font-size="4.00">STAT2</text>
</g>
<!-- STAT2&#45;&gt;ISGF3 precursor -->
<g id="edge33" class="edge"><title>STAT2&#45;&gt;ISGF3 precursor</title>
<path fill="none" stroke="black" d="M236.173,-758.333C232.698,-746.448 227.892,-730.014 223.643,-715.484"/>
<polygon fill="black" stroke="black" points="226.98,-714.423 220.814,-705.807 220.261,-716.388 226.98,-714.423"/>
</g>
<!-- ribosomal 60S subunit -->
<g id="node31" class="node"><title>ribosomal 60S subunit</title>
<ellipse fill="none" stroke="black" cx="188" cy="-564.364" rx="31.6406" ry="31.6406"/>
<text text-anchor="middle" x="188" y="-563.164" font-family="Times,serif" font-size="4.00">ribosomal 60S subunit</text>
</g>
<!-- ribosomal 60S subunit&#45;&gt;80S ribosome -->
<g id="edge34" class="edge"><title>ribosomal 60S subunit&#45;&gt;80S ribosome</title>
<path fill="none" stroke="black" d="M188,-532.481C188,-516.975 188,-498.203 188,-482.522"/>
<polygon fill="black" stroke="black" points="191.5,-482.237 188,-472.237 184.5,-482.237 191.5,-482.237"/>
</g>
<!-- IFN&#45;sensitive&#45;response&#45;element -->
<g id="node32" class="node"><title>IFN&#45;sensitive&#45;response&#45;element</title>
<ellipse fill="none" stroke="black" cx="96" cy="-564.364" rx="41.7924" ry="41.7924"/>
<text text-anchor="middle" x="96" y="-563.164" font-family="Times,serif" font-size="4.00">IFN&#45;sensitive&#45;response&#45;element</text>
</g>
<!-- IFN&#45;sensitive&#45;response&#45;element&#45;&gt;ISGs -->
<g id="edge35" class="edge"><title>IFN&#45;sensitive&#45;response&#45;element&#45;&gt;ISGs</title>
<path fill="none" stroke="black" d="M97.4554,-522.242C97.9842,-507.302 98.5679,-490.808 99.0428,-477.39"/>
<polygon fill="black" stroke="black" points="102.541,-477.496 99.3972,-467.378 95.5456,-477.248 102.541,-477.496"/>
</g>
<!-- SOCS1 -->
<g id="node33" class="node"><title>SOCS1</title>
<ellipse fill="none" stroke="black" cx="642" cy="-183.9" rx="18" ry="18"/>
<text text-anchor="middle" x="642" y="-182.7" font-family="Times,serif" font-size="4.00">SOCS1</text>
</g>
<!-- SOCS1&#45;&gt;receptor complex -->
<g id="edge36" class="edge"><title>SOCS1&#45;&gt;receptor complex</title>
<path fill="none" stroke="black" d="M641.566,-165.741C641.371,-158.018 641.132,-148.596 640.901,-139.456"/>
<polygon fill="black" stroke="black" points="644.398,-139.269 640.646,-129.361 637.4,-139.447 644.398,-139.269"/>
</g>
<!-- 80S ribosome&#45;&gt;inhibited 80S ribosome -->
<g id="edge38" class="edge"><title>80S ribosome&#45;&gt;inhibited 80S ribosome</title>
<path fill="none" stroke="black" d="M203.947,-432.549C219.445,-417.198 243.38,-393.491 262.534,-374.519"/>
<polygon fill="black" stroke="black" points="265.236,-376.768 269.878,-367.244 260.31,-371.795 265.236,-376.768"/>
</g>
<!-- 80S ribosome&#45;&gt;IFNs -->
<g id="edge39" class="edge"><title>80S ribosome&#45;&gt;IFNs</title>
<path fill="none" stroke="black" d="M187.161,-426.543C186.553,-410.711 185.724,-389.166 185.068,-372.104"/>
<polygon fill="black" stroke="black" points="188.547,-371.503 184.666,-361.645 181.552,-371.772 188.547,-371.503"/>
</g>
<!-- 80S ribosome&#45;&gt;antiviral proteins -->
<g id="edge37" class="edge"><title>80S ribosome&#45;&gt;antiviral proteins</title>
<path fill="none" stroke="black" d="M174.259,-430.702C161.969,-414.922 143.728,-391.5 129.341,-373.028"/>
<polygon fill="black" stroke="black" points="131.944,-370.673 123.038,-364.934 126.421,-374.974 131.944,-370.673"/>
</g>
<!-- RIG&#45;I&#45;mitoMAVS -->
<g id="node39" class="node"><title>RIG&#45;I&#45;mitoMAVS</title>
<ellipse fill="none" stroke="black" cx="724" cy="-449.345" rx="26.533" ry="26.533"/>
<text text-anchor="middle" x="724" y="-448.145" font-family="Times,serif" font-size="4.00">RIG&#45;I&#45;mitoMAVS</text>
</g>
<!-- RIG&#45;I_dsRNA&#45;&gt;RIG&#45;I&#45;mitoMAVS -->
<g id="edge40" class="edge"><title>RIG&#45;I_dsRNA&#45;&gt;RIG&#45;I&#45;mitoMAVS</title>
<path fill="none" stroke="black" d="M772.858,-543.936C764.04,-527.046 751.092,-502.243 740.741,-482.413"/>
<polygon fill="black" stroke="black" points="743.775,-480.663 736.045,-473.418 737.57,-483.902 743.775,-480.663"/>
</g>
<!-- p38&#45;NFkB&#45;&gt;IFN&#45;III -->
<g id="edge41" class="edge"><title>p38&#45;NFkB&#45;&gt;IFN&#45;III</title>
<path fill="none" stroke="black" d="M699.888,-165.35C700.394,-155.35 701.039,-142.599 701.61,-131.3"/>
<polygon fill="black" stroke="black" points="705.119,-131.215 702.129,-121.05 698.128,-130.861 705.119,-131.215"/>
</g>
<!-- PLPro -->
<g id="node38" class="node"><title>PLPro</title>
<ellipse fill="none" stroke="black" cx="837" cy="-681.505" rx="18" ry="18"/>
<text text-anchor="middle" x="837" y="-680.305" font-family="Times,serif" font-size="4.00">PLPro</text>
</g>
<!-- PLPro&#45;&gt;RIG&#45;I_dsRNA -->
<g id="edge42" class="edge"><title>PLPro&#45;&gt;RIG&#45;I_dsRNA</title>
<path fill="none" stroke="black" d="M829.717,-664.977C821.254,-646.93 807.106,-616.764 796.593,-594.347"/>
<polygon fill="black" stroke="black" points="799.752,-592.84 792.337,-585.273 793.414,-595.812 799.752,-592.84"/>
</g>
<!-- RIG&#45;I&#45;mitoMAVS&#45;&gt;RIG&#45;I&#45;MAVS -->
<g id="edge43" class="edge"><title>RIG&#45;I&#45;mitoMAVS&#45;&gt;RIG&#45;I&#45;MAVS</title>
<path fill="none" stroke="black" d="M724,-422.636C724,-408.406 724,-390.61 724,-375.581"/>
<polygon fill="black" stroke="black" points="727.5,-375.218 724,-365.218 720.5,-375.218 727.5,-375.218"/>
</g>
<!-- Ifn lambda&#45;&gt;receptor complex -->
<g id="edge44" class="edge"><title>Ifn lambda&#45;&gt;receptor complex</title>
<path fill="none" stroke="black" d="M645.771,-39.5554C646.566,-47.5566 646.877,-57.2122 646.703,-66.5067"/>
<polygon fill="black" stroke="black" points="643.197,-66.6099 646.301,-76.7396 650.191,-66.8847 643.197,-66.6099"/>
</g>
<!-- M -->
<g id="node42" class="node"><title>M</title>
<ellipse fill="none" stroke="black" cx="663" cy="-681.505" rx="18" ry="18"/>
<text text-anchor="middle" x="663" y="-680.305" font-family="Times,serif" font-size="4.00">M</text>
</g>
<!-- M&#45;&gt;RIG&#45;1 M&#45;Protein -->
<g id="edge45" class="edge"><title>M&#45;&gt;RIG&#45;1 M&#45;Protein</title>
<path fill="none" stroke="black" d="M670.283,-664.977C678.408,-647.652 691.771,-619.159 702.128,-597.074"/>
<polygon fill="black" stroke="black" points="705.425,-598.288 706.502,-587.748 699.087,-595.316 705.425,-598.288"/>
</g>
<!-- IKK -->
<g id="node43" class="node"><title>IKK</title>
<ellipse fill="none" stroke="black" cx="548" cy="-564.364" rx="18" ry="18"/>
<text text-anchor="middle" x="548" y="-563.164" font-family="Times,serif" font-size="4.00">IKK</text>
</g>
<!-- IKK&#45;&gt;IKK&#45;TBK1 -->
<g id="edge46" class="edge"><title>IKK&#45;&gt;IKK&#45;TBK1</title>
<path fill="none" stroke="black" d="M555.508,-547.65C564.344,-529.157 579.142,-498.185 589.669,-476.153"/>
<polygon fill="black" stroke="black" points="592.875,-477.561 594.028,-467.029 586.559,-474.543 592.875,-477.561"/>
</g>
<!-- MAVS -->
<g id="node45" class="node"><title>MAVS</title>
<ellipse fill="none" stroke="black" cx="656" cy="-564.364" rx="18" ry="18"/>
<text text-anchor="middle" x="656" y="-563.164" font-family="Times,serif" font-size="4.00">MAVS</text>
</g>
<!-- MAVS&#45;&gt;RIG&#45;I&#45;mitoMAVS -->
<g id="edge47" class="edge"><title>MAVS&#45;&gt;RIG&#45;I&#45;mitoMAVS</title>
<path fill="none" stroke="black" d="M664.89,-548.589C675.141,-531.55 692.275,-503.074 705.463,-481.154"/>
<polygon fill="black" stroke="black" points="708.505,-482.887 710.662,-472.514 702.507,-479.278 708.505,-482.887"/>
</g>
<!-- TBK1 -->
<g id="node46" class="node"><title>TBK1</title>
<ellipse fill="none" stroke="black" cx="602" cy="-564.364" rx="18" ry="18"/>
<text text-anchor="middle" x="602" y="-563.164" font-family="Times,serif" font-size="4.00">TBK1</text>
</g>
<!-- TBK1&#45;&gt;IKK&#45;TBK1 -->
<g id="edge48" class="edge"><title>TBK1&#45;&gt;IKK&#45;TBK1</title>
<path fill="none" stroke="black" d="M602,-546.199C602,-528.344 602,-500.085 602,-478.867"/>
<polygon fill="black" stroke="black" points="605.5,-478.801 602,-468.801 598.5,-478.801 605.5,-478.801"/>
</g>
</g>
</svg>
