<?xml version="1.0" encoding="UTF-8" standalone="no"?>
<!DOCTYPE svg PUBLIC "-//W3C//DTD SVG 1.1//EN"
 "http://www.w3.org/Graphics/SVG/1.1/DTD/svg11.dtd">
<!-- Generated by graphviz version 2.38.0 (20140413.2041)
 -->
<!-- Title: G Pages: 1 -->
<svg width="423pt" height="1769pt"
 viewBox="0.00 0.00 423.00 1769.07" xmlns="http://www.w3.org/2000/svg" xmlns:xlink="http://www.w3.org/1999/xlink">
<g id="graph0" class="graph" transform="scale(1 1) rotate(0) translate(4 1765.07)">
<title>G</title>
<polygon fill="white" stroke="none" points="-4,4 -4,-1765.07 419,-1765.07 419,4 -4,4"/>
<!-- Angiotensin II -->
<g id="node1" class="node"><title>Angiotensin II</title>
<ellipse fill="none" stroke="black" cx="300" cy="-1730.32" rx="23.1702" ry="23.1702"/>
<text text-anchor="middle" x="300" y="-1729.12" font-family="Times,serif" font-size="4.00">Angiotensin II</text>
</g>
<!-- pr_ba3c7f08&#45;338b&#45;45f3&#45;a0dc&#45;16d26457f801 -->
<g id="node2" class="node"><title>pr_ba3c7f08&#45;338b&#45;45f3&#45;a0dc&#45;16d26457f801</title>
<polygon fill="none" stroke="black" points="273,-1662.06 175,-1662.06 175,-1564.06 273,-1564.06 273,-1662.06"/>
<text text-anchor="middle" x="224" y="-1611.86" font-family="Times,serif" font-size="4.00">pr_ba3c7f08&#45;338b&#45;45f3&#45;a0dc&#45;16d26457f801</text>
</g>
<!-- Angiotensin II&#45;&gt;pr_ba3c7f08&#45;338b&#45;45f3&#45;a0dc&#45;16d26457f801 -->
<g id="edge1" class="edge"><title>Angiotensin II&#45;&gt;pr_ba3c7f08&#45;338b&#45;45f3&#45;a0dc&#45;16d26457f801</title>
<path fill="none" stroke="black" d="M287.45,-1710.28C280.26,-1699.38 270.821,-1685.06 261.429,-1670.82"/>
<polygon fill="black" stroke="black" points="264.348,-1668.89 255.921,-1662.47 258.504,-1672.74 264.348,-1668.89"/>
</g>
<!-- pr_3404d670&#45;272d&#45;4266&#45;bd68&#45;7685565e81cb -->
<g id="node15" class="node"><title>pr_3404d670&#45;272d&#45;4266&#45;bd68&#45;7685565e81cb</title>
<polygon fill="none" stroke="black" points="392.5,-1663.56 291.5,-1663.56 291.5,-1562.56 392.5,-1562.56 392.5,-1663.56"/>
<text text-anchor="middle" x="342" y="-1611.86" font-family="Times,serif" font-size="4.00">pr_3404d670&#45;272d&#45;4266&#45;bd68&#45;7685565e81cb</text>
</g>
<!-- Angiotensin II&#45;&gt;pr_3404d670&#45;272d&#45;4266&#45;bd68&#45;7685565e81cb -->
<g id="edge2" class="edge"><title>Angiotensin II&#45;&gt;pr_3404d670&#45;272d&#45;4266&#45;bd68&#45;7685565e81cb</title>
<path fill="none" stroke="black" d="M307.703,-1708.18C311.327,-1698.23 315.847,-1685.83 320.405,-1673.32"/>
<polygon fill="black" stroke="black" points="323.748,-1674.37 323.883,-1663.77 317.171,-1671.97 323.748,-1674.37"/>
</g>
<!-- ACE2 -->
<g id="node3" class="node"><title>ACE2</title>
<ellipse fill="none" stroke="black" cx="199" cy="-1730.32" rx="18" ry="18"/>
<text text-anchor="middle" x="199" y="-1729.12" font-family="Times,serif" font-size="4.00">ACE2</text>
</g>
<!-- ACE2&#45;&gt;pr_ba3c7f08&#45;338b&#45;45f3&#45;a0dc&#45;16d26457f801 -->
<g id="edge3" class="edge"><title>ACE2&#45;&gt;pr_ba3c7f08&#45;338b&#45;45f3&#45;a0dc&#45;16d26457f801</title>
<path fill="none" stroke="black" d="M202.689,-1712.31C205.017,-1701.57 208.176,-1687.01 211.347,-1672.39"/>
<polygon fill="black" stroke="black" points="214.836,-1672.82 213.535,-1662.3 207.995,-1671.33 214.836,-1672.82"/>
</g>
<!-- pr_66dc14d4&#45;f3db&#45;481e&#45;80d8&#45;fc2af6483c82 -->
<g id="node4" class="node"><title>pr_66dc14d4&#45;f3db&#45;481e&#45;80d8&#45;fc2af6483c82</title>
<polygon fill="none" stroke="black" points="157,-1662.06 59,-1662.06 59,-1564.06 157,-1564.06 157,-1662.06"/>
<text text-anchor="middle" x="108" y="-1611.86" font-family="Times,serif" font-size="4.00">pr_66dc14d4&#45;f3db&#45;481e&#45;80d8&#45;fc2af6483c82</text>
</g>
<!-- ACE2&#45;&gt;pr_66dc14d4&#45;f3db&#45;481e&#45;80d8&#45;fc2af6483c82 -->
<g id="edge4" class="edge"><title>ACE2&#45;&gt;pr_66dc14d4&#45;f3db&#45;481e&#45;80d8&#45;fc2af6483c82</title>
<path fill="none" stroke="black" d="M188.204,-1715.64C179.222,-1704.27 165.798,-1687.26 152.489,-1670.41"/>
<polygon fill="black" stroke="black" points="154.928,-1667.85 145.985,-1662.17 149.434,-1672.18 154.928,-1667.85"/>
</g>
<!-- SARS&#45;CoV&#45;2_ACE2 -->
<g id="node5" class="node"><title>SARS&#45;CoV&#45;2_ACE2</title>
<ellipse fill="none" stroke="black" cx="134" cy="-1497.92" rx="28.7763" ry="28.7763"/>
<text text-anchor="middle" x="134" y="-1496.72" font-family="Times,serif" font-size="4.00">SARS&#45;CoV&#45;2_ACE2</text>
</g>
<!-- pr_66dc14d4&#45;f3db&#45;481e&#45;80d8&#45;fc2af6483c82&#45;&gt;SARS&#45;CoV&#45;2_ACE2 -->
<g id="edge5" class="edge"><title>pr_66dc14d4&#45;f3db&#45;481e&#45;80d8&#45;fc2af6483c82&#45;&gt;SARS&#45;CoV&#45;2_ACE2</title>
<path fill="none" stroke="black" d="M119.102,-1563.75C121.225,-1554.51 123.417,-1544.97 125.445,-1536.15"/>
<polygon fill="black" stroke="black" points="128.907,-1536.71 127.736,-1526.18 122.085,-1535.14 128.907,-1536.71"/>
</g>
<!-- pr_98728e6e&#45;9939&#45;4dc9&#45;b300&#45;82c7f4df9ac2 -->
<g id="node7" class="node"><title>pr_98728e6e&#45;9939&#45;4dc9&#45;b300&#45;82c7f4df9ac2</title>
<polygon fill="none" stroke="black" points="255.5,-1433.28 156.5,-1433.28 156.5,-1334.28 255.5,-1334.28 255.5,-1433.28"/>
<text text-anchor="middle" x="206" y="-1382.58" font-family="Times,serif" font-size="4.00">pr_98728e6e&#45;9939&#45;4dc9&#45;b300&#45;82c7f4df9ac2</text>
</g>
<!-- SARS&#45;CoV&#45;2_ACE2&#45;&gt;pr_98728e6e&#45;9939&#45;4dc9&#45;b300&#45;82c7f4df9ac2 -->
<g id="edge6" class="edge"><title>SARS&#45;CoV&#45;2_ACE2&#45;&gt;pr_98728e6e&#45;9939&#45;4dc9&#45;b300&#45;82c7f4df9ac2</title>
<path fill="none" stroke="black" d="M144.737,-1471.19C149.757,-1462.4 155.992,-1452.19 162.56,-1441.93"/>
<polygon fill="black" stroke="black" points="165.633,-1443.62 168.135,-1433.33 159.759,-1439.81 165.633,-1443.62"/>
</g>
<!-- pr_a013df5d&#45;fb8e&#45;47ec&#45;bc1f&#45;c17ac757a296 -->
<g id="node10" class="node"><title>pr_a013df5d&#45;fb8e&#45;47ec&#45;bc1f&#45;c17ac757a296</title>
<polygon fill="none" stroke="black" points="177,-804.913 79,-804.913 79,-706.913 177,-706.913 177,-804.913"/>
<text text-anchor="middle" x="128" y="-754.713" font-family="Times,serif" font-size="4.00">pr_a013df5d&#45;fb8e&#45;47ec&#45;bc1f&#45;c17ac757a296</text>
</g>
<!-- SARS&#45;CoV&#45;2_ACE2&#45;&gt;pr_a013df5d&#45;fb8e&#45;47ec&#45;bc1f&#45;c17ac757a296 -->
<g id="edge7" class="edge"><title>SARS&#45;CoV&#45;2_ACE2&#45;&gt;pr_a013df5d&#45;fb8e&#45;47ec&#45;bc1f&#45;c17ac757a296</title>
<path fill="none" stroke="black" d="M132.728,-1469.01C130.966,-1427.91 128,-1348.67 128,-1281.25 128,-1281.25 128,-1281.25 128,-962.913 128,-913.129 128,-856.577 128,-815.337"/>
<polygon fill="black" stroke="black" points="131.5,-815.196 128,-805.196 124.5,-815.196 131.5,-815.196"/>
</g>
<!-- SARS&#45;CoV&#45;2 proteins -->
<g id="node6" class="node"><title>SARS&#45;CoV&#45;2 proteins</title>
<ellipse fill="none" stroke="black" cx="108" cy="-1730.32" rx="30.5202" ry="30.5202"/>
<text text-anchor="middle" x="108" y="-1729.12" font-family="Times,serif" font-size="4.00">SARS&#45;CoV&#45;2 proteins</text>
</g>
<!-- SARS&#45;CoV&#45;2 proteins&#45;&gt;pr_66dc14d4&#45;f3db&#45;481e&#45;80d8&#45;fc2af6483c82 -->
<g id="edge8" class="edge"><title>SARS&#45;CoV&#45;2 proteins&#45;&gt;pr_66dc14d4&#45;f3db&#45;481e&#45;80d8&#45;fc2af6483c82</title>
<path fill="none" stroke="black" d="M108,-1699.33C108,-1691.01 108,-1681.67 108,-1672.31"/>
<polygon fill="black" stroke="black" points="111.5,-1672.19 108,-1662.19 104.5,-1672.19 111.5,-1672.19"/>
</g>
<!-- pr_98728e6e&#45;9939&#45;4dc9&#45;b300&#45;82c7f4df9ac2&#45;&gt;SARS&#45;CoV&#45;2_ACE2 -->
<g id="edge9" class="edge"><title>pr_98728e6e&#45;9939&#45;4dc9&#45;b300&#45;82c7f4df9ac2&#45;&gt;SARS&#45;CoV&#45;2_ACE2</title>
<path fill="none" stroke="black" d="M181.468,-1433.42C174.132,-1445.11 166.117,-1457.23 158.759,-1467.71"/>
<polygon fill="black" stroke="black" points="155.738,-1465.92 152.762,-1476.09 161.43,-1470 155.738,-1465.92"/>
</g>
<!-- TMPRSS2 -->
<g id="node8" class="node"><title>TMPRSS2</title>
<ellipse fill="none" stroke="black" cx="206" cy="-1497.92" rx="18.6233" ry="18.6233"/>
<text text-anchor="middle" x="206" y="-1496.72" font-family="Times,serif" font-size="4.00">TMPRSS2</text>
</g>
<!-- TMPRSS2&#45;&gt;pr_98728e6e&#45;9939&#45;4dc9&#45;b300&#45;82c7f4df9ac2 -->
<g id="edge10" class="edge"><title>TMPRSS2&#45;&gt;pr_98728e6e&#45;9939&#45;4dc9&#45;b300&#45;82c7f4df9ac2</title>
<path fill="none" stroke="black" d="M206,-1479.15C206,-1469.4 206,-1456.7 206,-1443.79"/>
<polygon fill="black" stroke="black" points="209.5,-1443.44 206,-1433.44 202.5,-1443.44 209.5,-1443.44"/>
</g>
<!-- NFKB1 -->
<g id="node9" class="node"><title>NFKB1</title>
<ellipse fill="none" stroke="black" cx="225" cy="-859.913" rx="18" ry="18"/>
<text text-anchor="middle" x="225" y="-858.713" font-family="Times,serif" font-size="4.00">NFKB1</text>
</g>
<!-- NFKB1&#45;&gt;pr_a013df5d&#45;fb8e&#45;47ec&#45;bc1f&#45;c17ac757a296 -->
<g id="edge11" class="edge"><title>NFKB1&#45;&gt;pr_a013df5d&#45;fb8e&#45;47ec&#45;bc1f&#45;c17ac757a296</title>
<path fill="none" stroke="black" d="M210.677,-848.382C200.797,-839.54 187.274,-826.168 173.999,-812.358"/>
<polygon fill="black" stroke="black" points="176.533,-809.943 167.1,-805.118 171.465,-814.772 176.533,-809.943"/>
</g>
<!-- pr_66c0cddb&#45;4789&#45;4d3d&#45;b647&#45;4ae97cbdb8af -->
<g id="node11" class="node"><title>pr_66c0cddb&#45;4789&#45;4d3d&#45;b647&#45;4ae97cbdb8af</title>
<polygon fill="none" stroke="black" points="275,-1013.91 175,-1013.91 175,-913.913 275,-913.913 275,-1013.91"/>
<text text-anchor="middle" x="225" y="-962.713" font-family="Times,serif" font-size="4.00">pr_66c0cddb&#45;4789&#45;4d3d&#45;b647&#45;4ae97cbdb8af</text>
</g>
<!-- NFKB1&#45;&gt;pr_66c0cddb&#45;4789&#45;4d3d&#45;b647&#45;4ae97cbdb8af -->
<g id="edge12" class="edge"><title>NFKB1&#45;&gt;pr_66c0cddb&#45;4789&#45;4d3d&#45;b647&#45;4ae97cbdb8af</title>
<path fill="none" stroke="black" d="M230.141,-877.529C230.975,-884.904 231.485,-894.076 231.671,-903.647"/>
<polygon fill="black" stroke="black" points="228.171,-903.733 231.746,-913.706 235.171,-903.68 228.171,-903.733"/>
</g>
<!-- pr_1a8215cd&#45;dc02&#45;42d1&#45;a3ef&#45;e71e62c02334 -->
<g id="node32" class="node"><title>pr_1a8215cd&#45;dc02&#45;42d1&#45;a3ef&#45;e71e62c02334</title>
<polygon fill="none" stroke="black" points="295,-805.913 195,-805.913 195,-705.913 295,-705.913 295,-805.913"/>
<text text-anchor="middle" x="245" y="-754.713" font-family="Times,serif" font-size="4.00">pr_1a8215cd&#45;dc02&#45;42d1&#45;a3ef&#45;e71e62c02334</text>
</g>
<!-- NFKB1&#45;&gt;pr_1a8215cd&#45;dc02&#45;42d1&#45;a3ef&#45;e71e62c02334 -->
<g id="edge13" class="edge"><title>NFKB1&#45;&gt;pr_1a8215cd&#45;dc02&#45;42d1&#45;a3ef&#45;e71e62c02334</title>
<path fill="none" stroke="black" d="M228.303,-842.07C229.752,-834.679 231.548,-825.516 233.421,-815.967"/>
<polygon fill="black" stroke="black" points="236.898,-816.421 235.388,-805.934 230.029,-815.074 236.898,-816.421"/>
</g>
<!-- pr_a013df5d&#45;fb8e&#45;47ec&#45;bc1f&#45;c17ac757a296&#45;&gt;NFKB1 -->
<g id="edge14" class="edge"><title>pr_a013df5d&#45;fb8e&#45;47ec&#45;bc1f&#45;c17ac757a296&#45;&gt;NFKB1</title>
<path fill="none" stroke="black" d="M177.138,-801.536C188.852,-813.664 200.514,-826.281 209.461,-836.585"/>
<polygon fill="black" stroke="black" points="206.866,-838.936 216.003,-844.299 212.204,-834.409 206.866,-838.936"/>
</g>
<!-- pr_66c0cddb&#45;4789&#45;4d3d&#45;b647&#45;4ae97cbdb8af&#45;&gt;NFKB1 -->
<g id="edge15" class="edge"><title>pr_66c0cddb&#45;4789&#45;4d3d&#45;b647&#45;4ae97cbdb8af&#45;&gt;NFKB1</title>
<path fill="none" stroke="black" d="M218.254,-913.706C218.217,-904.74 218.458,-895.7 218.978,-887.696"/>
<polygon fill="black" stroke="black" points="222.482,-887.794 219.859,-877.529 215.509,-887.189 222.482,-887.794"/>
</g>
<!-- EGF_EGFR -->
<g id="node12" class="node"><title>EGF_EGFR</title>
<ellipse fill="none" stroke="black" cx="312" cy="-1070.07" rx="20.3062" ry="20.3063"/>
<text text-anchor="middle" x="312" y="-1068.87" font-family="Times,serif" font-size="4.00">EGF_EGFR</text>
</g>
<!-- EGF_EGFR&#45;&gt;pr_66c0cddb&#45;4789&#45;4d3d&#45;b647&#45;4ae97cbdb8af -->
<g id="edge16" class="edge"><title>EGF_EGFR&#45;&gt;pr_66c0cddb&#45;4789&#45;4d3d&#45;b647&#45;4ae97cbdb8af</title>
<path fill="none" stroke="black" d="M299.535,-1054.14C292.289,-1045.47 282.646,-1033.92 272.707,-1022.03"/>
<polygon fill="black" stroke="black" points="275.252,-1019.61 266.155,-1014.18 269.88,-1024.1 275.252,-1019.61"/>
</g>
<!-- TNF -->
<g id="node13" class="node"><title>TNF</title>
<ellipse fill="none" stroke="black" cx="225" cy="-1070.07" rx="18" ry="18"/>
<text text-anchor="middle" x="225" y="-1068.87" font-family="Times,serif" font-size="4.00">TNF</text>
</g>
<!-- TNF&#45;&gt;pr_66c0cddb&#45;4789&#45;4d3d&#45;b647&#45;4ae97cbdb8af -->
<g id="edge17" class="edge"><title>TNF&#45;&gt;pr_66c0cddb&#45;4789&#45;4d3d&#45;b647&#45;4ae97cbdb8af</title>
<path fill="none" stroke="black" d="M225,-1051.87C225,-1044.07 225,-1034.34 225,-1024.23"/>
<polygon fill="black" stroke="black" points="228.5,-1024.06 225,-1014.06 221.5,-1024.06 228.5,-1024.06"/>
</g>
<!-- pr_93bfde05&#45;281c&#45;4eea&#45;b533&#45;dd808e51a3a6 -->
<g id="node23" class="node"><title>pr_93bfde05&#45;281c&#45;4eea&#45;b533&#45;dd808e51a3a6</title>
<polygon fill="none" stroke="black" points="275,-1226.22 175,-1226.22 175,-1126.22 275,-1126.22 275,-1226.22"/>
<text text-anchor="middle" x="225" y="-1175.02" font-family="Times,serif" font-size="4.00">pr_93bfde05&#45;281c&#45;4eea&#45;b533&#45;dd808e51a3a6</text>
</g>
<!-- TNF&#45;&gt;pr_93bfde05&#45;281c&#45;4eea&#45;b533&#45;dd808e51a3a6 -->
<g id="edge18" class="edge"><title>TNF&#45;&gt;pr_93bfde05&#45;281c&#45;4eea&#45;b533&#45;dd808e51a3a6</title>
<path fill="none" stroke="black" d="M230.085,-1087.53C230.992,-1095.5 231.529,-1105.59 231.694,-1116.08"/>
<polygon fill="black" stroke="black" points="228.195,-1116.21 231.74,-1126.19 235.195,-1116.18 228.195,-1116.21"/>
</g>
<!-- AGTR1 -->
<g id="node14" class="node"><title>AGTR1</title>
<ellipse fill="none" stroke="black" cx="342" cy="-1497.92" rx="18" ry="18"/>
<text text-anchor="middle" x="342" y="-1496.72" font-family="Times,serif" font-size="4.00">AGTR1</text>
</g>
<!-- AGTR1&#45;&gt;pr_3404d670&#45;272d&#45;4266&#45;bd68&#45;7685565e81cb -->
<g id="edge19" class="edge"><title>AGTR1&#45;&gt;pr_3404d670&#45;272d&#45;4266&#45;bd68&#45;7685565e81cb</title>
<path fill="none" stroke="black" d="M346.938,-1515.46C348.053,-1525.35 348.653,-1538.6 348.739,-1552.11"/>
<polygon fill="black" stroke="black" points="345.238,-1552.42 348.705,-1562.43 352.238,-1552.44 345.238,-1552.42"/>
</g>
<!-- pr_cc256f61&#45;c920&#45;40c1&#45;a6d3&#45;df81739e2f30 -->
<g id="node17" class="node"><title>pr_cc256f61&#45;c920&#45;40c1&#45;a6d3&#45;df81739e2f30</title>
<polygon fill="none" stroke="black" points="372,-1432.78 274,-1432.78 274,-1334.78 372,-1334.78 372,-1432.78"/>
<text text-anchor="middle" x="323" y="-1382.58" font-family="Times,serif" font-size="4.00">pr_cc256f61&#45;c920&#45;40c1&#45;a6d3&#45;df81739e2f30</text>
</g>
<!-- AGTR1&#45;&gt;pr_cc256f61&#45;c920&#45;40c1&#45;a6d3&#45;df81739e2f30 -->
<g id="edge20" class="edge"><title>AGTR1&#45;&gt;pr_cc256f61&#45;c920&#45;40c1&#45;a6d3&#45;df81739e2f30</title>
<path fill="none" stroke="black" d="M339.114,-1479.89C337.427,-1469.93 335.186,-1456.7 332.914,-1443.29"/>
<polygon fill="black" stroke="black" points="336.301,-1442.33 331.179,-1433.05 329.399,-1443.5 336.301,-1442.33"/>
</g>
<!-- pr_3404d670&#45;272d&#45;4266&#45;bd68&#45;7685565e81cb&#45;&gt;AGTR1 -->
<g id="edge21" class="edge"><title>pr_3404d670&#45;272d&#45;4266&#45;bd68&#45;7685565e81cb&#45;&gt;AGTR1</title>
<path fill="none" stroke="black" d="M335.295,-1562.43C335.129,-1549.79 335.419,-1536.67 336.165,-1525.66"/>
<polygon fill="black" stroke="black" points="339.673,-1525.72 337.062,-1515.46 332.7,-1525.11 339.673,-1525.72"/>
</g>
<!-- ADAM17 -->
<g id="node16" class="node"><title>ADAM17</title>
<ellipse fill="none" stroke="black" cx="289" cy="-1280.25" rx="18.0625" ry="18.0625"/>
<text text-anchor="middle" x="289" y="-1279.05" font-family="Times,serif" font-size="4.00">ADAM17</text>
</g>
<!-- ADAM17&#45;&gt;pr_cc256f61&#45;c920&#45;40c1&#45;a6d3&#45;df81739e2f30 -->
<g id="edge22" class="edge"><title>ADAM17&#45;&gt;pr_cc256f61&#45;c920&#45;40c1&#45;a6d3&#45;df81739e2f30</title>
<path fill="none" stroke="black" d="M298.787,-1295.83C302.468,-1303.79 306.558,-1314.22 310.373,-1325.08"/>
<polygon fill="black" stroke="black" points="307.106,-1326.35 313.638,-1334.69 313.734,-1324.1 307.106,-1326.35"/>
</g>
<!-- pr_303148b1&#45;dfdd&#45;4d21&#45;aea0&#45;a0e96923a899 -->
<g id="node19" class="node"><title>pr_303148b1&#45;dfdd&#45;4d21&#45;aea0&#45;a0e96923a899</title>
<polygon fill="none" stroke="black" points="100,-1226.22 0,-1226.22 0,-1126.22 100,-1126.22 100,-1226.22"/>
<text text-anchor="middle" x="50" y="-1175.02" font-family="Times,serif" font-size="4.00">pr_303148b1&#45;dfdd&#45;4d21&#45;aea0&#45;a0e96923a899</text>
</g>
<!-- ADAM17&#45;&gt;pr_303148b1&#45;dfdd&#45;4d21&#45;aea0&#45;a0e96923a899 -->
<g id="edge23" class="edge"><title>ADAM17&#45;&gt;pr_303148b1&#45;dfdd&#45;4d21&#45;aea0&#45;a0e96923a899</title>
<path fill="none" stroke="black" d="M272.573,-1272.24C239.542,-1258.14 163.638,-1225.73 109.672,-1202.69"/>
<polygon fill="black" stroke="black" points="110.774,-1199.36 100.202,-1198.65 108.025,-1205.8 110.774,-1199.36"/>
</g>
<!-- pr_3a543c28&#45;48e1&#45;4524&#45;9928&#45;76c917f17fde -->
<g id="node21" class="node"><title>pr_3a543c28&#45;48e1&#45;4524&#45;9928&#45;76c917f17fde</title>
<polygon fill="none" stroke="black" points="392.5,-1225.72 293.5,-1225.72 293.5,-1126.72 392.5,-1126.72 392.5,-1225.72"/>
<text text-anchor="middle" x="343" y="-1175.02" font-family="Times,serif" font-size="4.00">pr_3a543c28&#45;48e1&#45;4524&#45;9928&#45;76c917f17fde</text>
</g>
<!-- ADAM17&#45;&gt;pr_3a543c28&#45;48e1&#45;4524&#45;9928&#45;76c917f17fde -->
<g id="edge24" class="edge"><title>ADAM17&#45;&gt;pr_3a543c28&#45;48e1&#45;4524&#45;9928&#45;76c917f17fde</title>
<path fill="none" stroke="black" d="M297.201,-1263.75C301.397,-1255.83 306.794,-1245.63 312.402,-1235.03"/>
<polygon fill="black" stroke="black" points="315.556,-1236.55 317.14,-1226.08 309.369,-1233.28 315.556,-1236.55"/>
</g>
<!-- ADAM17&#45;&gt;pr_93bfde05&#45;281c&#45;4eea&#45;b533&#45;dd808e51a3a6 -->
<g id="edge25" class="edge"><title>ADAM17&#45;&gt;pr_93bfde05&#45;281c&#45;4eea&#45;b533&#45;dd808e51a3a6</title>
<path fill="none" stroke="black" d="M279.83,-1264.63C274.762,-1256.55 268.1,-1245.93 261.173,-1234.89"/>
<polygon fill="black" stroke="black" points="264.125,-1233.01 255.846,-1226.39 258.195,-1236.73 264.125,-1233.01"/>
</g>
<!-- pr_cc256f61&#45;c920&#45;40c1&#45;a6d3&#45;df81739e2f30&#45;&gt;ADAM17 -->
<g id="edge26" class="edge"><title>pr_cc256f61&#45;c920&#45;40c1&#45;a6d3&#45;df81739e2f30&#45;&gt;ADAM17</title>
<path fill="none" stroke="black" d="M300.154,-1334.69C297.091,-1325.71 294.272,-1316.62 292.076,-1308.54"/>
<polygon fill="black" stroke="black" points="295.411,-1307.45 289.58,-1298.6 288.622,-1309.16 295.411,-1307.45"/>
</g>
<!-- IL6R -->
<g id="node18" class="node"><title>IL6R</title>
<ellipse fill="none" stroke="black" cx="50" cy="-1070.07" rx="18" ry="18"/>
<text text-anchor="middle" x="50" y="-1068.87" font-family="Times,serif" font-size="4.00">IL6R</text>
</g>
<!-- IL6R&#45;&gt;pr_303148b1&#45;dfdd&#45;4d21&#45;aea0&#45;a0e96923a899 -->
<g id="edge27" class="edge"><title>IL6R&#45;&gt;pr_303148b1&#45;dfdd&#45;4d21&#45;aea0&#45;a0e96923a899</title>
<path fill="none" stroke="black" d="M55.0847,-1087.53C55.9922,-1095.5 56.5288,-1105.59 56.6945,-1116.08"/>
<polygon fill="black" stroke="black" points="53.1949,-1116.21 56.7397,-1126.19 60.1949,-1116.18 53.1949,-1116.21"/>
</g>
<!-- pr_c7bd65de&#45;8e0b&#45;4471&#45;bf59&#45;ae529e3130ed -->
<g id="node24" class="node"><title>pr_c7bd65de&#45;8e0b&#45;4471&#45;bf59&#45;ae529e3130ed</title>
<polygon fill="none" stroke="black" points="240,-597.913 140,-597.913 140,-497.913 240,-497.913 240,-597.913"/>
<text text-anchor="middle" x="190" y="-546.713" font-family="Times,serif" font-size="4.00">pr_c7bd65de&#45;8e0b&#45;4471&#45;bf59&#45;ae529e3130ed</text>
</g>
<!-- IL6R&#45;&gt;pr_c7bd65de&#45;8e0b&#45;4471&#45;bf59&#45;ae529e3130ed -->
<g id="edge28" class="edge"><title>IL6R&#45;&gt;pr_c7bd65de&#45;8e0b&#45;4471&#45;bf59&#45;ae529e3130ed</title>
<path fill="none" stroke="black" d="M50.139,-1051.8C50.4138,-1016.13 51,-931.744 51,-860.913 51,-860.913 51,-860.913 51,-754.913 51,-693.433 94.069,-636.569 132.259,-598.231"/>
<polygon fill="black" stroke="black" points="135.131,-600.317 139.818,-590.815 130.229,-595.32 135.131,-600.317"/>
</g>
<!-- pr_303148b1&#45;dfdd&#45;4d21&#45;aea0&#45;a0e96923a899&#45;&gt;IL6R -->
<g id="edge29" class="edge"><title>pr_303148b1&#45;dfdd&#45;4d21&#45;aea0&#45;a0e96923a899&#45;&gt;IL6R</title>
<path fill="none" stroke="black" d="M43.2603,-1126.19C43.1941,-1116.4 43.4472,-1106.46 44.0195,-1097.77"/>
<polygon fill="black" stroke="black" points="47.5301,-1097.8 44.9153,-1087.53 40.5568,-1097.19 47.5301,-1097.8"/>
</g>
<!-- EGFR -->
<g id="node20" class="node"><title>EGFR</title>
<ellipse fill="none" stroke="black" cx="397" cy="-1280.25" rx="18" ry="18"/>
<text text-anchor="middle" x="397" y="-1279.05" font-family="Times,serif" font-size="4.00">EGFR</text>
</g>
<!-- EGFR&#45;&gt;pr_3a543c28&#45;48e1&#45;4524&#45;9928&#45;76c917f17fde -->
<g id="edge30" class="edge"><title>EGFR&#45;&gt;pr_3a543c28&#45;48e1&#45;4524&#45;9928&#45;76c917f17fde</title>
<path fill="none" stroke="black" d="M388.799,-1263.75C384.603,-1255.83 379.206,-1245.63 373.598,-1235.03"/>
<polygon fill="black" stroke="black" points="376.631,-1233.28 368.86,-1226.08 370.444,-1236.55 376.631,-1233.28"/>
</g>
<!-- pr_3a543c28&#45;48e1&#45;4524&#45;9928&#45;76c917f17fde&#45;&gt;EGF_EGFR -->
<g id="edge31" class="edge"><title>pr_3a543c28&#45;48e1&#45;4524&#45;9928&#45;76c917f17fde&#45;&gt;EGF_EGFR</title>
<path fill="none" stroke="black" d="M328.498,-1126.5C325.72,-1117.16 322.899,-1107.68 320.394,-1099.27"/>
<polygon fill="black" stroke="black" points="323.726,-1098.19 317.519,-1089.61 317.017,-1100.19 323.726,-1098.19"/>
</g>
<!-- EGF -->
<g id="node22" class="node"><title>EGF</title>
<ellipse fill="none" stroke="black" cx="343" cy="-1280.25" rx="18" ry="18"/>
<text text-anchor="middle" x="343" y="-1279.05" font-family="Times,serif" font-size="4.00">EGF</text>
</g>
<!-- EGF&#45;&gt;pr_3a543c28&#45;48e1&#45;4524&#45;9928&#45;76c917f17fde -->
<g id="edge32" class="edge"><title>EGF&#45;&gt;pr_3a543c28&#45;48e1&#45;4524&#45;9928&#45;76c917f17fde</title>
<path fill="none" stroke="black" d="M343,-1261.94C343,-1254.59 343,-1245.56 343,-1236.15"/>
<polygon fill="black" stroke="black" points="346.5,-1235.86 343,-1225.86 339.5,-1235.86 346.5,-1235.86"/>
</g>
<!-- pr_93bfde05&#45;281c&#45;4eea&#45;b533&#45;dd808e51a3a6&#45;&gt;TNF -->
<g id="edge33" class="edge"><title>pr_93bfde05&#45;281c&#45;4eea&#45;b533&#45;dd808e51a3a6&#45;&gt;TNF</title>
<path fill="none" stroke="black" d="M218.26,-1126.19C218.194,-1116.4 218.447,-1106.46 219.02,-1097.77"/>
<polygon fill="black" stroke="black" points="222.53,-1097.8 219.915,-1087.53 215.557,-1097.19 222.53,-1097.8"/>
</g>
<!-- IL6_IL6R -->
<g id="node25" class="node"><title>IL6_IL6R</title>
<ellipse fill="none" stroke="black" cx="190" cy="-443.882" rx="18.0625" ry="18.0625"/>
<text text-anchor="middle" x="190" y="-442.682" font-family="Times,serif" font-size="4.00">IL6_IL6R</text>
</g>
<!-- pr_c7bd65de&#45;8e0b&#45;4471&#45;bf59&#45;ae529e3130ed&#45;&gt;IL6_IL6R -->
<g id="edge34" class="edge"><title>pr_c7bd65de&#45;8e0b&#45;4471&#45;bf59&#45;ae529e3130ed&#45;&gt;IL6_IL6R</title>
<path fill="none" stroke="black" d="M190,-497.691C190,-488.862 190,-479.962 190,-472.049"/>
<polygon fill="black" stroke="black" points="193.5,-471.971 190,-461.971 186.5,-471.971 193.5,-471.971"/>
</g>
<!-- pr_f8a31eb7&#45;9764&#45;4ffe&#45;b7cb&#45;52ecf24374fd -->
<g id="node27" class="node"><title>pr_f8a31eb7&#45;9764&#45;4ffe&#45;b7cb&#45;52ecf24374fd</title>
<polygon fill="none" stroke="black" points="238.5,-389.851 141.5,-389.851 141.5,-292.851 238.5,-292.851 238.5,-389.851"/>
<text text-anchor="middle" x="190" y="-340.151" font-family="Times,serif" font-size="4.00">pr_f8a31eb7&#45;9764&#45;4ffe&#45;b7cb&#45;52ecf24374fd</text>
</g>
<!-- IL6_IL6R&#45;&gt;pr_f8a31eb7&#45;9764&#45;4ffe&#45;b7cb&#45;52ecf24374fd -->
<g id="edge35" class="edge"><title>IL6_IL6R&#45;&gt;pr_f8a31eb7&#45;9764&#45;4ffe&#45;b7cb&#45;52ecf24374fd</title>
<path fill="none" stroke="black" d="M190,-425.828C190,-418.588 190,-409.683 190,-400.416"/>
<polygon fill="black" stroke="black" points="193.5,-400.28 190,-390.28 186.5,-400.28 193.5,-400.28"/>
</g>
<!-- IL6 -->
<g id="node26" class="node"><title>IL6</title>
<ellipse fill="none" stroke="black" cx="222" cy="-651.913" rx="18" ry="18"/>
<text text-anchor="middle" x="222" y="-650.713" font-family="Times,serif" font-size="4.00">IL6</text>
</g>
<!-- IL6&#45;&gt;pr_c7bd65de&#45;8e0b&#45;4471&#45;bf59&#45;ae529e3130ed -->
<g id="edge36" class="edge"><title>IL6&#45;&gt;pr_c7bd65de&#45;8e0b&#45;4471&#45;bf59&#45;ae529e3130ed</title>
<path fill="none" stroke="black" d="M216.859,-634.525C214.527,-627.092 211.612,-617.801 208.57,-608.104"/>
<polygon fill="black" stroke="black" points="211.835,-606.82 205.502,-598.326 205.156,-608.915 211.835,-606.82"/>
</g>
<!-- IL6&#45;&gt;pr_1a8215cd&#45;dc02&#45;42d1&#45;a3ef&#45;e71e62c02334 -->
<g id="edge37" class="edge"><title>IL6&#45;&gt;pr_1a8215cd&#45;dc02&#45;42d1&#45;a3ef&#45;e71e62c02334</title>
<path fill="none" stroke="black" d="M230.415,-668.153C233.073,-675.788 235.845,-685.577 238.347,-695.812"/>
<polygon fill="black" stroke="black" points="234.974,-696.76 240.651,-705.706 241.792,-695.173 234.974,-696.76"/>
</g>
<!-- IL6_IL6R_IL6ST -->
<g id="node28" class="node"><title>IL6_IL6R_IL6ST</title>
<ellipse fill="none" stroke="black" cx="190" cy="-231.926" rx="24.8512" ry="24.8512"/>
<text text-anchor="middle" x="190" y="-230.726" font-family="Times,serif" font-size="4.00">IL6_IL6R_IL6ST</text>
</g>
<!-- pr_f8a31eb7&#45;9764&#45;4ffe&#45;b7cb&#45;52ecf24374fd&#45;&gt;IL6_IL6R_IL6ST -->
<g id="edge38" class="edge"><title>pr_f8a31eb7&#45;9764&#45;4ffe&#45;b7cb&#45;52ecf24374fd&#45;&gt;IL6_IL6R_IL6ST</title>
<path fill="none" stroke="black" d="M190,-292.607C190,-284.035 190,-275.258 190,-267.163"/>
<polygon fill="black" stroke="black" points="193.5,-266.99 190,-256.99 186.5,-266.99 193.5,-266.99"/>
</g>
<!-- pr_f8785da2&#45;ed7c&#45;4c22&#45;9220&#45;36d7f1264e2b -->
<g id="node31" class="node"><title>pr_f8785da2&#45;ed7c&#45;4c22&#45;9220&#45;36d7f1264e2b</title>
<polygon fill="none" stroke="black" points="239.5,-171 140.5,-171 140.5,-72 239.5,-72 239.5,-171"/>
<text text-anchor="middle" x="190" y="-120.3" font-family="Times,serif" font-size="4.00">pr_f8785da2&#45;ed7c&#45;4c22&#45;9220&#45;36d7f1264e2b</text>
</g>
<!-- IL6_IL6R_IL6ST&#45;&gt;pr_f8785da2&#45;ed7c&#45;4c22&#45;9220&#45;36d7f1264e2b -->
<g id="edge39" class="edge"><title>IL6_IL6R_IL6ST&#45;&gt;pr_f8785da2&#45;ed7c&#45;4c22&#45;9220&#45;36d7f1264e2b</title>
<path fill="none" stroke="black" d="M190,-206.862C190,-199.247 190,-190.468 190,-181.513"/>
<polygon fill="black" stroke="black" points="193.5,-181.38 190,-171.38 186.5,-181.38 193.5,-181.38"/>
</g>
<!-- IL6ST -->
<g id="node29" class="node"><title>IL6ST</title>
<ellipse fill="none" stroke="black" cx="136" cy="-443.882" rx="18" ry="18"/>
<text text-anchor="middle" x="136" y="-442.682" font-family="Times,serif" font-size="4.00">IL6ST</text>
</g>
<!-- IL6ST&#45;&gt;pr_f8a31eb7&#45;9764&#45;4ffe&#45;b7cb&#45;52ecf24374fd -->
<g id="edge40" class="edge"><title>IL6ST&#45;&gt;pr_f8a31eb7&#45;9764&#45;4ffe&#45;b7cb&#45;52ecf24374fd</title>
<path fill="none" stroke="black" d="M144.201,-427.614C148.443,-419.718 153.913,-409.535 159.587,-398.971"/>
<polygon fill="black" stroke="black" points="162.73,-400.516 164.379,-390.05 156.563,-397.203 162.73,-400.516"/>
</g>
<!-- STAT3 -->
<g id="node30" class="node"><title>STAT3</title>
<ellipse fill="none" stroke="black" cx="190" cy="-18" rx="18" ry="18"/>
<text text-anchor="middle" x="190" y="-16.8" font-family="Times,serif" font-size="4.00">STAT3</text>
</g>
<!-- STAT3&#45;&gt;pr_f8785da2&#45;ed7c&#45;4c22&#45;9220&#45;36d7f1264e2b -->
<g id="edge41" class="edge"><title>STAT3&#45;&gt;pr_f8785da2&#45;ed7c&#45;4c22&#45;9220&#45;36d7f1264e2b</title>
<path fill="none" stroke="black" d="M195.154,-35.647C195.988,-43.0329 196.495,-52.2125 196.675,-61.7797"/>
<polygon fill="black" stroke="black" points="193.176,-61.8555 196.745,-71.831 200.176,-61.807 193.176,-61.8555"/>
</g>
<!-- STAT3&#45;&gt;pr_1a8215cd&#45;dc02&#45;42d1&#45;a3ef&#45;e71e62c02334 -->
<g id="edge42" class="edge"><title>STAT3&#45;&gt;pr_1a8215cd&#45;dc02&#45;42d1&#45;a3ef&#45;e71e62c02334</title>
<path fill="none" stroke="black" d="M205.176,-28.0408C219.104,-37.2276 239.038,-52.8151 249,-72 281.783,-135.132 268,-159.789 268,-230.926 268,-548.913 268,-548.913 268,-548.913 268,-598.51 261.334,-654.41 255.179,-695.452"/>
<polygon fill="black" stroke="black" points="251.686,-695.138 253.63,-705.554 258.605,-696.2 251.686,-695.138"/>
</g>
<!-- pr_f8785da2&#45;ed7c&#45;4c22&#45;9220&#45;36d7f1264e2b&#45;&gt;STAT3 -->
<g id="edge43" class="edge"><title>pr_f8785da2&#45;ed7c&#45;4c22&#45;9220&#45;36d7f1264e2b&#45;&gt;STAT3</title>
<path fill="none" stroke="black" d="M183.255,-71.831C183.212,-62.8766 183.449,-53.8356 183.967,-45.8256"/>
<polygon fill="black" stroke="black" points="187.472,-45.9113 184.846,-35.647 180.498,-45.3084 187.472,-45.9113"/>
</g>
<!-- pr_1a8215cd&#45;dc02&#45;42d1&#45;a3ef&#45;e71e62c02334&#45;&gt;IL6 -->
<g id="edge44" class="edge"><title>pr_1a8215cd&#45;dc02&#45;42d1&#45;a3ef&#45;e71e62c02334&#45;&gt;IL6</title>
<path fill="none" stroke="black" d="M227.158,-705.706C225.131,-696.88 223.358,-687.982 222.078,-680.072"/>
<polygon fill="black" stroke="black" points="225.519,-679.411 220.659,-669.997 218.588,-680.387 225.519,-679.411"/>
</g>
</g>
</svg>
