<?xml version="1.0" encoding="UTF-8" standalone="no"?>
<!DOCTYPE svg PUBLIC "-//W3C//DTD SVG 1.1//EN"
 "http://www.w3.org/Graphics/SVG/1.1/DTD/svg11.dtd">
<!-- Generated by graphviz version 2.38.0 (20140413.2041)
 -->
<!-- Title: G Pages: 1 -->
<svg width="1139pt" height="749pt"
 viewBox="0.00 0.00 1138.52 748.71" xmlns="http://www.w3.org/2000/svg" xmlns:xlink="http://www.w3.org/1999/xlink">
<g id="graph0" class="graph" transform="scale(1 1) rotate(0) translate(4 744.715)">
<title>G</title>
<polygon fill="white" stroke="none" points="-4,4 -4,-744.715 1134.52,-744.715 1134.52,4 -4,4"/>
<!-- OAS3 -->
<g id="node1" class="node"><title>OAS3</title>
<ellipse fill="none" stroke="black" cx="89.5165" cy="-529.768" rx="18" ry="18"/>
<text text-anchor="middle" x="89.5165" y="-528.568" font-family="Times,serif" font-size="4.00">OAS3</text>
</g>
<!-- Innate immunity -->
<g id="node2" class="node"><title>Innate immunity</title>
<ellipse fill="none" stroke="black" cx="143.517" cy="-441.265" rx="25.9724" ry="25.9724"/>
<text text-anchor="middle" x="143.517" y="-440.065" font-family="Times,serif" font-size="4.00">Innate immunity</text>
</g>
<!-- OAS3&#45;&gt;Innate immunity -->
<g id="edge1" class="edge"><title>OAS3&#45;&gt;Innate immunity</title>
<path fill="none" stroke="black" d="M98.6769,-514.094C105.736,-502.785 115.741,-486.759 124.51,-472.712"/>
<polygon fill="black" stroke="black" points="127.723,-474.174 130.05,-463.837 121.785,-470.467 127.723,-474.174"/>
</g>
<!-- OAS2 -->
<g id="node3" class="node"><title>OAS2</title>
<ellipse fill="none" stroke="black" cx="143.517" cy="-529.768" rx="18" ry="18"/>
<text text-anchor="middle" x="143.517" y="-528.568" font-family="Times,serif" font-size="4.00">OAS2</text>
</g>
<!-- OAS2&#45;&gt;Innate immunity -->
<g id="edge2" class="edge"><title>OAS2&#45;&gt;Innate immunity</title>
<path fill="none" stroke="black" d="M143.517,-511.678C143.517,-501.929 143.517,-489.339 143.517,-477.564"/>
<polygon fill="black" stroke="black" points="147.017,-477.518 143.517,-467.518 140.017,-477.518 147.017,-477.518"/>
</g>
<!-- OAS1 -->
<g id="node4" class="node"><title>OAS1</title>
<ellipse fill="none" stroke="black" cx="197.517" cy="-529.768" rx="18" ry="18"/>
<text text-anchor="middle" x="197.517" y="-528.568" font-family="Times,serif" font-size="4.00">OAS1</text>
</g>
<!-- OAS1&#45;&gt;Innate immunity -->
<g id="edge3" class="edge"><title>OAS1&#45;&gt;Innate immunity</title>
<path fill="none" stroke="black" d="M188.356,-514.094C181.297,-502.785 171.292,-486.759 162.523,-472.712"/>
<polygon fill="black" stroke="black" points="165.248,-470.467 156.983,-463.837 159.31,-474.174 165.248,-470.467"/>
</g>
<!-- EIF2AK -->
<g id="node5" class="node"><title>EIF2AK</title>
<ellipse fill="none" stroke="black" cx="251.517" cy="-529.768" rx="18" ry="18"/>
<text text-anchor="middle" x="251.517" y="-528.568" font-family="Times,serif" font-size="4.00">EIF2AK</text>
</g>
<!-- EIF2AK&#45;&gt;Innate immunity -->
<g id="edge4" class="edge"><title>EIF2AK&#45;&gt;Innate immunity</title>
<path fill="none" stroke="black" d="M239.147,-516.526C234.642,-512.216 229.444,-507.413 224.517,-503.252 207.836,-489.165 188.305,-474.413 172.601,-462.946"/>
<polygon fill="black" stroke="black" points="174.464,-459.974 164.313,-456.939 170.356,-465.642 174.464,-459.974"/>
</g>
<!-- SARS nsp3 (SUD) -->
<g id="node6" class="node"><title>SARS nsp3 (SUD)</title>
<ellipse fill="none" stroke="black" cx="26.5165" cy="-529.768" rx="26.533" ry="26.533"/>
<text text-anchor="middle" x="26.5165" y="-528.568" font-family="Times,serif" font-size="4.00">SARS nsp3 (SUD)</text>
</g>
<!-- SARS nsp3 (SUD)&#45;&gt;Innate immunity -->
<g id="edge5" class="edge"><title>SARS nsp3 (SUD)&#45;&gt;Innate immunity</title>
<path fill="none" stroke="black" d="M47.4338,-513.303C66.1512,-499.465 93.7702,-479.045 114.599,-463.645"/>
<polygon fill="black" stroke="black" points="116.82,-466.356 122.78,-457.596 112.659,-460.727 116.82,-466.356"/>
</g>
<!-- IFNB1 -->
<g id="node7" class="node"><title>IFNB1</title>
<ellipse fill="none" stroke="black" cx="808.517" cy="-722.153" rx="18" ry="18"/>
<text text-anchor="middle" x="808.517" y="-720.953" font-family="Times,serif" font-size="4.00">IFNB1</text>
</g>
<!-- IFNB1_IFNAR -->
<g id="node34" class="node"><title>IFNB1_IFNAR</title>
<ellipse fill="none" stroke="black" cx="808.517" cy="-629.938" rx="23.1702" ry="23.1702"/>
<text text-anchor="middle" x="808.517" y="-628.738" font-family="Times,serif" font-size="4.00">IFNB1_IFNAR</text>
</g>
<!-- IFNB1&#45;&gt;IFNB1_IFNAR -->
<g id="edge6" class="edge"><title>IFNB1&#45;&gt;IFNB1_IFNAR</title>
<path fill="none" stroke="black" d="M808.517,-703.759C808.517,-692.334 808.517,-677.037 808.517,-663.413"/>
<polygon fill="black" stroke="black" points="812.017,-663.412 808.517,-653.412 805.017,-663.412 812.017,-663.412"/>
</g>
<!-- SARS 9b -->
<g id="node8" class="node"><title>SARS 9b</title>
<ellipse fill="none" stroke="black" cx="343.517" cy="-529.768" rx="18" ry="18"/>
<text text-anchor="middle" x="343.517" y="-528.568" font-family="Times,serif" font-size="4.00">SARS 9b</text>
</g>
<!-- MAVS -->
<g id="node40" class="node"><title>MAVS</title>
<ellipse fill="none" stroke="black" cx="366.517" cy="-441.265" rx="18" ry="18"/>
<text text-anchor="middle" x="366.517" y="-440.065" font-family="Times,serif" font-size="4.00">MAVS</text>
</g>
<!-- SARS 9b&#45;&gt;MAVS -->
<g id="edge7" class="edge"><title>SARS 9b&#45;&gt;MAVS</title>
<path fill="none" stroke="black" d="M347.951,-512.089C351.228,-499.764 355.756,-482.737 359.519,-468.583"/>
<polygon fill="black" stroke="black" points="362.908,-469.456 362.095,-458.893 356.143,-467.658 362.908,-469.456"/>
</g>
<!-- TRAF6 -->
<g id="node9" class="node"><title>TRAF6</title>
<ellipse fill="none" stroke="black" cx="435.517" cy="-361.279" rx="18" ry="18"/>
<text text-anchor="middle" x="435.517" y="-360.079" font-family="Times,serif" font-size="4.00">TRAF6</text>
</g>
<!-- IKK -->
<g id="node33" class="node"><title>IKK</title>
<ellipse fill="none" stroke="black" cx="325.517" cy="-268.035" rx="18" ry="18"/>
<text text-anchor="middle" x="325.517" y="-266.835" font-family="Times,serif" font-size="4.00">IKK</text>
</g>
<!-- TRAF6&#45;&gt;IKK -->
<g id="edge9" class="edge"><title>TRAF6&#45;&gt;IKK</title>
<path fill="none" stroke="black" d="M419.566,-352.5C401.85,-343.343 373.045,-326.876 352.517,-307.279 347.997,-302.965 343.757,-297.793 340.036,-292.668"/>
<polygon fill="black" stroke="black" points="342.826,-290.545 334.307,-284.245 337.038,-294.482 342.826,-290.545"/>
</g>
<!-- MAP3K7 -->
<g id="node60" class="node"><title>MAP3K7</title>
<ellipse fill="none" stroke="black" cx="571.517" cy="-268.035" rx="18" ry="18"/>
<text text-anchor="middle" x="571.517" y="-266.835" font-family="Times,serif" font-size="4.00">MAP3K7</text>
</g>
<!-- TRAF6&#45;&gt;MAP3K7 -->
<g id="edge8" class="edge"><title>TRAF6&#45;&gt;MAP3K7</title>
<path fill="none" stroke="black" d="M450.137,-350.522C454.086,-348.04 458.406,-345.46 462.517,-343.279 497.676,-324.624 513.69,-332.457 544.517,-307.279 549.436,-303.261 553.869,-298.132 557.653,-292.944"/>
<polygon fill="black" stroke="black" points="560.75,-294.608 563.38,-284.345 554.924,-290.727 560.75,-294.608"/>
</g>
<!-- JAK1 -->
<g id="node10" class="node"><title>JAK1</title>
<ellipse fill="none" stroke="black" cx="867.517" cy="-629.938" rx="18" ry="18"/>
<text text-anchor="middle" x="867.517" y="-628.738" font-family="Times,serif" font-size="4.00">JAK1</text>
</g>
<!-- JAK1_TYK2 -->
<g id="node45" class="node"><title>JAK1_TYK2</title>
<ellipse fill="none" stroke="black" cx="894.517" cy="-529.768" rx="20.3062" ry="20.3062"/>
<text text-anchor="middle" x="894.517" y="-528.568" font-family="Times,serif" font-size="4.00">JAK1_TYK2</text>
</g>
<!-- JAK1&#45;&gt;JAK1_TYK2 -->
<g id="edge10" class="edge"><title>JAK1&#45;&gt;JAK1_TYK2</title>
<path fill="none" stroke="black" d="M872.097,-612.285C876.059,-597.879 881.876,-576.727 886.592,-559.58"/>
<polygon fill="black" stroke="black" points="890.083,-560.087 889.36,-549.517 883.333,-558.23 890.083,-560.087"/>
</g>
<!-- IFNAR -->
<g id="node11" class="node"><title>IFNAR</title>
<ellipse fill="none" stroke="black" cx="894.517" cy="-722.153" rx="18" ry="18"/>
<text text-anchor="middle" x="894.517" y="-720.953" font-family="Times,serif" font-size="4.00">IFNAR</text>
</g>
<!-- IFNAR&#45;&gt;IFNB1_IFNAR -->
<g id="edge11" class="edge"><title>IFNAR&#45;&gt;IFNB1_IFNAR</title>
<path fill="none" stroke="black" d="M881.821,-709.063C870.712,-698.366 854.25,-682.228 840.517,-667.591 837.084,-663.934 833.523,-660.001 830.077,-656.118"/>
<polygon fill="black" stroke="black" points="832.466,-653.534 823.244,-648.32 827.202,-658.148 832.466,-653.534"/>
</g>
<!-- IFNA1_IFNAR -->
<g id="node50" class="node"><title>IFNA1_IFNAR</title>
<ellipse fill="none" stroke="black" cx="980.517" cy="-629.938" rx="23.1702" ry="23.1702"/>
<text text-anchor="middle" x="980.517" y="-628.738" font-family="Times,serif" font-size="4.00">IFNA1_IFNAR</text>
</g>
<!-- IFNAR&#45;&gt;IFNA1_IFNAR -->
<g id="edge12" class="edge"><title>IFNAR&#45;&gt;IFNA1_IFNAR</title>
<path fill="none" stroke="black" d="M907.212,-709.063C918.321,-698.366 934.783,-682.228 948.517,-667.591 951.949,-663.934 955.51,-660.001 958.956,-656.118"/>
<polygon fill="black" stroke="black" points="961.831,-658.148 965.79,-648.32 956.567,-653.534 961.831,-658.148"/>
</g>
<!-- SARS p6 -->
<g id="node12" class="node"><title>SARS p6</title>
<ellipse fill="none" stroke="black" cx="950.517" cy="-529.768" rx="18" ry="18"/>
<text text-anchor="middle" x="950.517" y="-528.568" font-family="Times,serif" font-size="4.00">SARS p6</text>
</g>
<!-- STAT1/2_IRF9 -->
<g id="node37" class="node"><title>STAT1/2_IRF9</title>
<ellipse fill="none" stroke="black" cx="1004.52" cy="-441.265" rx="23.1702" ry="23.1702"/>
<text text-anchor="middle" x="1004.52" y="-440.065" font-family="Times,serif" font-size="4.00">STAT1/2_IRF9</text>
</g>
<!-- SARS p6&#45;&gt;STAT1/2_IRF9 -->
<g id="edge13" class="edge"><title>SARS p6&#45;&gt;STAT1/2_IRF9</title>
<path fill="none" stroke="black" d="M959.677,-514.094C967.153,-502.119 977.931,-484.853 987.046,-470.251"/>
<polygon fill="black" stroke="black" points="990.136,-471.91 992.463,-461.574 984.198,-468.203 990.136,-471.91"/>
</g>
<!-- NFKBIA -->
<g id="node13" class="node"><title>NFKBIA</title>
<ellipse fill="none" stroke="black" cx="325.517" cy="-90" rx="18" ry="18"/>
<text text-anchor="middle" x="325.517" y="-88.8" font-family="Times,serif" font-size="4.00">NFKBIA</text>
</g>
<!-- NFKB_NFKBIA -->
<g id="node56" class="node"><title>NFKB_NFKBIA</title>
<ellipse fill="none" stroke="black" cx="325.517" cy="-168.395" rx="24.2908" ry="24.2908"/>
<text text-anchor="middle" x="325.517" y="-167.195" font-family="Times,serif" font-size="4.00">NFKB_NFKBIA</text>
</g>
<!-- NFKBIA&#45;&gt;NFKB_NFKBIA -->
<g id="edge14" class="edge"><title>NFKBIA&#45;&gt;NFKB_NFKBIA</title>
<path fill="none" stroke="black" d="M331.17,-107.354C332.061,-115.216 332.409,-124.938 332.214,-134.252"/>
<polygon fill="black" stroke="black" points="328.707,-134.329 331.762,-144.474 335.7,-134.638 328.707,-134.329"/>
</g>
<!-- p50_p65 -->
<g id="node14" class="node"><title>p50_p65</title>
<ellipse fill="none" stroke="black" cx="623.517" cy="-18" rx="18" ry="18"/>
<text text-anchor="middle" x="623.517" y="-16.8" font-family="Times,serif" font-size="4.00">p50_p65</text>
</g>
<!-- MAPK14 -->
<g id="node15" class="node"><title>MAPK14</title>
<ellipse fill="none" stroke="black" cx="841.517" cy="-268.035" rx="18" ry="18"/>
<text text-anchor="middle" x="841.517" y="-266.835" font-family="Times,serif" font-size="4.00">MAPK14</text>
</g>
<!-- MAPK8/14 -->
<g id="node19" class="node"><title>MAPK8/14</title>
<ellipse fill="none" stroke="black" cx="757.517" cy="-168.395" rx="19.7452" ry="19.7452"/>
<text text-anchor="middle" x="757.517" y="-167.195" font-family="Times,serif" font-size="4.00">MAPK8/14</text>
</g>
<!-- MAPK14&#45;&gt;MAPK8/14 -->
<g id="edge15" class="edge"><title>MAPK14&#45;&gt;MAPK8/14</title>
<path fill="none" stroke="black" d="M830.334,-253.521C824.223,-246.174 816.497,-236.946 809.517,-228.79 798.903,-216.39 786.911,-202.673 777.119,-191.548"/>
<polygon fill="black" stroke="black" points="779.669,-189.147 770.43,-183.961 774.418,-193.777 779.669,-189.147"/>
</g>
<!-- JUN -->
<g id="node16" class="node"><title>JUN</title>
<ellipse fill="none" stroke="black" cx="813.517" cy="-168.395" rx="18" ry="18"/>
<text text-anchor="middle" x="813.517" y="-167.195" font-family="Times,serif" font-size="4.00">JUN</text>
</g>
<!-- AP&#45;1 -->
<g id="node39" class="node"><title>AP&#45;1</title>
<ellipse fill="none" stroke="black" cx="813.517" cy="-90" rx="18" ry="18"/>
<text text-anchor="middle" x="813.517" y="-88.8" font-family="Times,serif" font-size="4.00">AP&#45;1</text>
</g>
<!-- JUN&#45;&gt;AP&#45;1 -->
<g id="edge16" class="edge"><title>JUN&#45;&gt;AP&#45;1</title>
<path fill="none" stroke="black" d="M813.517,-150.06C813.517,-140.617 813.517,-128.72 813.517,-118.083"/>
<polygon fill="black" stroke="black" points="817.017,-118.003 813.517,-108.003 810.017,-118.004 817.017,-118.003"/>
</g>
<!-- nsp 15 (SARS_ 229E_ MHV) -->
<g id="node17" class="node"><title>nsp 15 (SARS_ 229E_ MHV)</title>
<ellipse fill="none" stroke="black" cx="197.517" cy="-629.938" rx="37.8075" ry="37.8075"/>
<text text-anchor="middle" x="197.517" y="-628.738" font-family="Times,serif" font-size="4.00">nsp 15 (SARS_ 229E_ MHV)</text>
</g>
<!-- nsp 15 (SARS_ 229E_ MHV)&#45;&gt;OAS3 -->
<g id="edge18" class="edge"><title>nsp 15 (SARS_ 229E_ MHV)&#45;&gt;OAS3</title>
<path fill="none" stroke="black" d="M169.614,-604.232C153.923,-590.259 134.027,-572.407 116.517,-556.285 114.292,-554.237 111.978,-552.083 109.68,-549.932"/>
<polygon fill="black" stroke="black" points="111.768,-547.09 102.09,-542.779 106.967,-552.185 111.768,-547.09"/>
</g>
<!-- nsp 15 (SARS_ 229E_ MHV)&#45;&gt;OAS2 -->
<g id="edge17" class="edge"><title>nsp 15 (SARS_ 229E_ MHV)&#45;&gt;OAS2</title>
<path fill="none" stroke="black" d="M179.685,-596.521C172.194,-582.903 163.635,-567.342 156.723,-554.778"/>
<polygon fill="black" stroke="black" points="159.691,-552.911 151.805,-545.836 153.558,-556.285 159.691,-552.911"/>
</g>
<!-- nsp 15 (SARS_ 229E_ MHV)&#45;&gt;OAS1 -->
<g id="edge20" class="edge"><title>nsp 15 (SARS_ 229E_ MHV)&#45;&gt;OAS1</title>
<path fill="none" stroke="black" d="M197.517,-592.104C197.517,-580.878 197.517,-568.739 197.517,-558.246"/>
<polygon fill="black" stroke="black" points="201.017,-558.015 197.517,-548.015 194.017,-558.015 201.017,-558.015"/>
</g>
<!-- nsp 15 (SARS_ 229E_ MHV)&#45;&gt;EIF2AK -->
<g id="edge21" class="edge"><title>nsp 15 (SARS_ 229E_ MHV)&#45;&gt;EIF2AK</title>
<path fill="none" stroke="black" d="M215.348,-596.521C222.839,-582.903 231.398,-567.342 238.31,-554.778"/>
<polygon fill="black" stroke="black" points="241.475,-556.285 243.228,-545.836 235.342,-552.911 241.475,-556.285"/>
</g>
<!-- RIG1_MDA5 -->
<g id="node63" class="node"><title>RIG1_MDA5</title>
<ellipse fill="none" stroke="black" cx="401.517" cy="-529.768" rx="21.9898" ry="21.9898"/>
<text text-anchor="middle" x="401.517" y="-528.568" font-family="Times,serif" font-size="4.00">RIG1_MDA5</text>
</g>
<!-- nsp 15 (SARS_ 229E_ MHV)&#45;&gt;RIG1_MDA5 -->
<g id="edge19" class="edge"><title>nsp 15 (SARS_ 229E_ MHV)&#45;&gt;RIG1_MDA5</title>
<path fill="none" stroke="black" d="M227.106,-606.51C234.785,-601.356 243.233,-596.236 251.517,-592.285 301.39,-568.497 321.794,-582.349 370.517,-556.285 373.11,-554.897 375.69,-553.274 378.191,-551.531"/>
<polygon fill="black" stroke="black" points="380.495,-554.175 386.295,-545.308 376.232,-548.623 380.495,-554.175"/>
</g>
<!-- TYK2 -->
<g id="node18" class="node"><title>TYK2</title>
<ellipse fill="none" stroke="black" cx="921.517" cy="-629.938" rx="18" ry="18"/>
<text text-anchor="middle" x="921.517" y="-628.738" font-family="Times,serif" font-size="4.00">TYK2</text>
</g>
<!-- TYK2&#45;&gt;JAK1_TYK2 -->
<g id="edge22" class="edge"><title>TYK2&#45;&gt;JAK1_TYK2</title>
<path fill="none" stroke="black" d="M916.936,-612.285C912.974,-597.879 907.157,-576.727 902.441,-559.58"/>
<polygon fill="black" stroke="black" points="905.7,-558.23 899.673,-549.517 898.95,-560.087 905.7,-558.23"/>
</g>
<!-- MAPK8/14&#45;&gt;AP&#45;1 -->
<g id="edge23" class="edge"><title>MAPK8/14&#45;&gt;AP&#45;1</title>
<path fill="none" stroke="black" d="M768.849,-151.935C777.055,-140.741 788.263,-125.451 797.399,-112.987"/>
<polygon fill="black" stroke="black" points="800.241,-115.03 803.331,-104.896 794.596,-110.892 800.241,-115.03"/>
</g>
<!-- SARS E -->
<g id="node20" class="node"><title>SARS E</title>
<ellipse fill="none" stroke="black" cx="867.517" cy="-168.395" rx="18" ry="18"/>
<text text-anchor="middle" x="867.517" y="-167.195" font-family="Times,serif" font-size="4.00">SARS E</text>
</g>
<!-- SARS E&#45;&gt;AP&#45;1 -->
<g id="edge24" class="edge"><title>SARS E&#45;&gt;AP&#45;1</title>
<path fill="none" stroke="black" d="M857.36,-153.026C849.466,-141.858 838.374,-126.166 829.322,-113.36"/>
<polygon fill="black" stroke="black" points="832.076,-111.193 823.446,-105.047 826.36,-115.233 832.076,-111.193"/>
</g>
<!-- IKBKE -->
<g id="node21" class="node"><title>IKBKE</title>
<ellipse fill="none" stroke="black" cx="489.517" cy="-361.279" rx="18" ry="18"/>
<text text-anchor="middle" x="489.517" y="-360.079" font-family="Times,serif" font-size="4.00">IKBKE</text>
</g>
<!-- TAB1_IKBKE -->
<g id="node58" class="node"><title>TAB1_IKBKE</title>
<ellipse fill="none" stroke="black" cx="630.517" cy="-268.035" rx="22.6101" ry="22.6101"/>
<text text-anchor="middle" x="630.517" y="-266.835" font-family="Times,serif" font-size="4.00">TAB1_IKBKE</text>
</g>
<!-- IKBKE&#45;&gt;TAB1_IKBKE -->
<g id="edge25" class="edge"><title>IKBKE&#45;&gt;TAB1_IKBKE</title>
<path fill="none" stroke="black" d="M504.137,-350.522C508.086,-348.04 512.406,-345.46 516.517,-343.279 551.676,-324.624 566.684,-331.172 598.517,-307.279 603.104,-303.836 607.46,-299.614 611.397,-295.246"/>
<polygon fill="black" stroke="black" points="614.259,-297.28 617.991,-287.365 608.89,-292.788 614.259,-297.28"/>
</g>
<!-- TLR_PAMP -->
<g id="node22" class="node"><title>TLR_PAMP</title>
<ellipse fill="none" stroke="black" cx="464.517" cy="-529.768" rx="20.3062" ry="20.3062"/>
<text text-anchor="middle" x="464.517" y="-528.568" font-family="Times,serif" font-size="4.00">TLR_PAMP</text>
</g>
<!-- MYD88_TCAM1 -->
<g id="node28" class="node"><title>MYD88_TCAM1</title>
<ellipse fill="none" stroke="black" cx="464.517" cy="-441.265" rx="24.8512" ry="24.8512"/>
<text text-anchor="middle" x="464.517" y="-440.065" font-family="Times,serif" font-size="4.00">MYD88_TCAM1</text>
</g>
<!-- TLR_PAMP&#45;&gt;MYD88_TCAM1 -->
<g id="edge26" class="edge"><title>TLR_PAMP&#45;&gt;MYD88_TCAM1</title>
<path fill="none" stroke="black" d="M464.517,-509.57C464.517,-499.815 464.517,-487.665 464.517,-476.384"/>
<polygon fill="black" stroke="black" points="468.017,-476.361 464.517,-466.361 461.017,-476.361 468.017,-476.361"/>
</g>
<!-- Viral RNA -->
<g id="node23" class="node"><title>Viral RNA</title>
<ellipse fill="none" stroke="black" cx="504.517" cy="-629.938" rx="19.7452" ry="19.7452"/>
<text text-anchor="middle" x="504.517" y="-628.738" font-family="Times,serif" font-size="4.00">Viral RNA</text>
</g>
<!-- Viral RNA&#45;&gt;RIG1_MDA5 -->
<g id="edge27" class="edge"><title>Viral RNA&#45;&gt;RIG1_MDA5</title>
<path fill="none" stroke="black" d="M493.338,-613.366C488.209,-606.617 481.865,-598.788 475.517,-592.285 460.494,-576.894 441.867,-561.426 427.06,-549.851"/>
<polygon fill="black" stroke="black" points="428.896,-546.847 418.839,-543.515 424.623,-552.392 428.896,-546.847"/>
</g>
<!-- TLR7 -->
<g id="node24" class="node"><title>TLR7</title>
<ellipse fill="none" stroke="black" cx="614.517" cy="-629.938" rx="18" ry="18"/>
<text text-anchor="middle" x="614.517" y="-628.738" font-family="Times,serif" font-size="4.00">TLR7</text>
</g>
<!-- TLR7&#45;&gt;TLR_PAMP -->
<g id="edge28" class="edge"><title>TLR7&#45;&gt;TLR_PAMP</title>
<path fill="none" stroke="black" d="M606.141,-613.76C601.466,-606.443 595.062,-598.031 587.517,-592.285 551.925,-565.181 531.803,-579.426 493.517,-556.285 491.041,-554.789 488.577,-553.073 486.191,-551.253"/>
<polygon fill="black" stroke="black" points="488.399,-548.538 478.472,-544.837 483.925,-553.921 488.399,-548.538"/>
</g>
<!-- MERS PLPro -->
<g id="node25" class="node"><title>MERS PLPro</title>
<ellipse fill="none" stroke="black" cx="336.517" cy="-629.938" rx="21.9898" ry="21.9898"/>
<text text-anchor="middle" x="336.517" y="-628.738" font-family="Times,serif" font-size="4.00">MERS PLPro</text>
</g>
<!-- MERS PLPro&#45;&gt;RIG1_MDA5 -->
<g id="edge29" class="edge"><title>MERS PLPro&#45;&gt;RIG1_MDA5</title>
<path fill="none" stroke="black" d="M348.137,-611.387C358.15,-596.265 372.748,-574.217 384.148,-556.999"/>
<polygon fill="black" stroke="black" points="387.175,-558.768 389.777,-548.498 381.338,-554.904 387.175,-558.768"/>
</g>
<!-- MERS PLPRo -->
<g id="node26" class="node"><title>MERS PLPRo</title>
<ellipse fill="none" stroke="black" cx="170.517" cy="-268.035" rx="22.05" ry="22.05"/>
<text text-anchor="middle" x="170.517" y="-266.835" font-family="Times,serif" font-size="4.00">MERS PLPRo</text>
</g>
<!-- MERS PLPRo&#45;&gt;NFKB_NFKBIA -->
<g id="edge30" class="edge"><title>MERS PLPRo&#45;&gt;NFKB_NFKBIA</title>
<path fill="none" stroke="black" d="M182.841,-249.23C188.294,-242.242 195.141,-234.537 202.517,-228.79 230.215,-207.206 267.025,-190.719 293.138,-180.654"/>
<polygon fill="black" stroke="black" points="294.446,-183.902 302.581,-177.114 291.988,-177.347 294.446,-183.902"/>
</g>
<!-- TAB1 -->
<g id="node27" class="node"><title>TAB1</title>
<ellipse fill="none" stroke="black" cx="635.517" cy="-361.279" rx="18" ry="18"/>
<text text-anchor="middle" x="635.517" y="-360.079" font-family="Times,serif" font-size="4.00">TAB1</text>
</g>
<!-- TAB1&#45;&gt;MAPK8/14 -->
<g id="edge31" class="edge"><title>TAB1&#45;&gt;MAPK8/14</title>
<path fill="none" stroke="black" d="M644.887,-345.618C665.74,-312.991 716.162,-234.1 741.874,-193.87"/>
<polygon fill="black" stroke="black" points="744.824,-195.753 747.26,-185.443 738.926,-191.984 744.824,-195.753"/>
</g>
<!-- TAB1&#45;&gt;TAB1_IKBKE -->
<g id="edge32" class="edge"><title>TAB1&#45;&gt;TAB1_IKBKE</title>
<path fill="none" stroke="black" d="M634.576,-343.117C633.931,-331.352 633.056,-315.382 632.284,-301.282"/>
<polygon fill="black" stroke="black" points="635.76,-300.758 631.718,-290.964 628.771,-301.141 635.76,-300.758"/>
</g>
<!-- MYD88_TCAM1&#45;&gt;TRAF6 -->
<g id="edge33" class="edge"><title>MYD88_TCAM1&#45;&gt;TRAF6</title>
<path fill="none" stroke="black" d="M456.129,-417.709C452.652,-408.36 448.602,-397.469 445.017,-387.827"/>
<polygon fill="black" stroke="black" points="448.258,-386.502 441.492,-378.349 441.697,-388.942 448.258,-386.502"/>
</g>
<!-- TRAF3 -->
<g id="node32" class="node"><title>TRAF3</title>
<ellipse fill="none" stroke="black" cx="543.517" cy="-361.279" rx="18" ry="18"/>
<text text-anchor="middle" x="543.517" y="-360.079" font-family="Times,serif" font-size="4.00">TRAF3</text>
</g>
<!-- MYD88_TCAM1&#45;&gt;TRAF3 -->
<g id="edge35" class="edge"><title>MYD88_TCAM1&#45;&gt;TRAF3</title>
<path fill="none" stroke="black" d="M482.049,-422.958C494.396,-410.769 510.943,-394.435 523.758,-381.785"/>
<polygon fill="black" stroke="black" points="526.526,-383.97 531.184,-374.454 521.608,-378.988 526.526,-383.97"/>
</g>
<!-- RALBP1 -->
<g id="node61" class="node"><title>RALBP1</title>
<ellipse fill="none" stroke="black" cx="343.517" cy="-361.279" rx="18" ry="18"/>
<text text-anchor="middle" x="343.517" y="-360.079" font-family="Times,serif" font-size="4.00">RALBP1</text>
</g>
<!-- MYD88_TCAM1&#45;&gt;RALBP1 -->
<g id="edge34" class="edge"><title>MYD88_TCAM1&#45;&gt;RALBP1</title>
<path fill="none" stroke="black" d="M443.991,-427.036C422.657,-413.286 389.32,-391.8 366.962,-377.39"/>
<polygon fill="black" stroke="black" points="368.708,-374.352 358.407,-371.876 364.916,-380.235 368.708,-374.352"/>
</g>
<!-- STAT2 -->
<g id="node29" class="node"><title>STAT2</title>
<ellipse fill="none" stroke="black" cx="1004.52" cy="-529.768" rx="18" ry="18"/>
<text text-anchor="middle" x="1004.52" y="-528.568" font-family="Times,serif" font-size="4.00">STAT2</text>
</g>
<!-- STAT2&#45;&gt;STAT1/2_IRF9 -->
<g id="edge36" class="edge"><title>STAT2&#45;&gt;STAT1/2_IRF9</title>
<path fill="none" stroke="black" d="M1004.52,-511.678C1004.52,-501.215 1004.52,-487.48 1004.52,-474.992"/>
<polygon fill="black" stroke="black" points="1008.02,-474.894 1004.52,-464.894 1001.02,-474.894 1008.02,-474.894"/>
</g>
<!-- TCAM1 -->
<g id="node30" class="node"><title>TCAM1</title>
<ellipse fill="none" stroke="black" cx="520.517" cy="-529.768" rx="18" ry="18"/>
<text text-anchor="middle" x="520.517" y="-528.568" font-family="Times,serif" font-size="4.00">TCAM1</text>
</g>
<!-- TCAM1&#45;&gt;MYD88_TCAM1 -->
<g id="edge37" class="edge"><title>TCAM1&#45;&gt;MYD88_TCAM1</title>
<path fill="none" stroke="black" d="M511.017,-514.094C503.419,-502.358 492.533,-485.542 483.203,-471.13"/>
<polygon fill="black" stroke="black" points="486.011,-469.027 477.638,-462.534 480.135,-472.831 486.011,-469.027"/>
</g>
<!-- MERS 4a -->
<g id="node31" class="node"><title>MERS 4a</title>
<ellipse fill="none" stroke="black" cx="504.517" cy="-722.153" rx="18.6233" ry="18.6233"/>
<text text-anchor="middle" x="504.517" y="-720.953" font-family="Times,serif" font-size="4.00">MERS 4a</text>
</g>
<!-- MERS 4a&#45;&gt;Viral RNA -->
<g id="edge38" class="edge"><title>MERS 4a&#45;&gt;Viral RNA</title>
<path fill="none" stroke="black" d="M504.517,-703.329C504.517,-690.972 504.517,-674.238 504.517,-659.971"/>
<polygon fill="black" stroke="black" points="508.017,-659.656 504.517,-649.656 501.017,-659.656 508.017,-659.656"/>
</g>
<!-- TRAF3&#45;&gt;TAB1_IKBKE -->
<g id="edge39" class="edge"><title>TRAF3&#45;&gt;TAB1_IKBKE</title>
<path fill="none" stroke="black" d="M556.568,-348.445C567.96,-337.943 584.773,-322.023 598.517,-307.279 602.354,-303.163 606.305,-298.672 610.066,-294.261"/>
<polygon fill="black" stroke="black" points="612.823,-296.42 616.562,-286.507 607.457,-291.924 612.823,-296.42"/>
</g>
<!-- IKK&#45;&gt;NFKB_NFKBIA -->
<g id="edge40" class="edge"><title>IKK&#45;&gt;NFKB_NFKBIA</title>
<path fill="none" stroke="black" d="M325.517,-250.027C325.517,-237.242 325.517,-219.301 325.517,-203.588"/>
<polygon fill="black" stroke="black" points="329.017,-203.156 325.517,-193.156 322.017,-203.156 329.017,-203.156"/>
</g>
<!-- IFNB1_IFNAR&#45;&gt;JAK1_TYK2 -->
<g id="edge41" class="edge"><title>IFNB1_IFNAR&#45;&gt;JAK1_TYK2</title>
<path fill="none" stroke="black" d="M823.484,-611.774C828.852,-605.624 834.952,-598.641 840.517,-592.285 851.925,-579.253 864.71,-564.687 874.975,-553.001"/>
<polygon fill="black" stroke="black" points="877.66,-555.248 881.631,-545.425 872.401,-550.627 877.66,-555.248"/>
</g>
<!-- SARS PLPro -->
<g id="node35" class="node"><title>SARS PLPro</title>
<ellipse fill="none" stroke="black" cx="589.517" cy="-441.265" rx="20.8674" ry="20.8674"/>
<text text-anchor="middle" x="589.517" y="-440.065" font-family="Times,serif" font-size="4.00">SARS PLPro</text>
</g>
<!-- SARS PLPro&#45;&gt;TRAF6 -->
<g id="edge42" class="edge"><title>SARS PLPro&#45;&gt;TRAF6</title>
<path fill="none" stroke="black" d="M575.253,-426.197C570.787,-422.3 565.672,-418.311 560.517,-415.279 520.519,-391.757 504.157,-399.753 462.517,-379.279 461.342,-378.702 460.155,-378.086 458.966,-377.444"/>
<polygon fill="black" stroke="black" points="460.444,-374.253 450.049,-372.209 456.9,-380.29 460.444,-374.253"/>
</g>
<!-- SARS PLPro&#45;&gt;TRAF3 -->
<g id="edge45" class="edge"><title>SARS PLPro&#45;&gt;TRAF3</title>
<path fill="none" stroke="black" d="M579.308,-422.958C572.917,-412.123 564.594,-398.013 557.582,-386.126"/>
<polygon fill="black" stroke="black" points="560.398,-384.01 552.302,-377.175 554.368,-387.566 560.398,-384.01"/>
</g>
<!-- IRF3 -->
<g id="node42" class="node"><title>IRF3</title>
<ellipse fill="none" stroke="black" cx="630.517" cy="-168.395" rx="18" ry="18"/>
<text text-anchor="middle" x="630.517" y="-167.195" font-family="Times,serif" font-size="4.00">IRF3</text>
</g>
<!-- SARS PLPro&#45;&gt;IRF3 -->
<g id="edge43" class="edge"><title>SARS PLPro&#45;&gt;IRF3</title>
<path fill="none" stroke="black" d="M609.483,-435.346C634.699,-427.94 677.021,-411.258 695.517,-379.279 729.002,-321.381 722.496,-289.991 695.517,-228.79 687.142,-209.794 669.359,-194.236 654.507,-183.816"/>
<polygon fill="black" stroke="black" points="656.017,-180.617 645.749,-178.006 652.148,-186.451 656.017,-180.617"/>
</g>
<!-- SARS PLPro&#45;&gt;TAB1_IKBKE -->
<g id="edge44" class="edge"><title>SARS PLPro&#45;&gt;TAB1_IKBKE</title>
<path fill="none" stroke="black" d="M592.767,-420.826C596.185,-401.16 601.971,-369.94 608.517,-343.279 612.067,-328.818 616.664,-312.971 620.737,-299.646"/>
<polygon fill="black" stroke="black" points="624.105,-300.6 623.723,-290.012 617.419,-298.527 624.105,-300.6"/>
</g>
<!-- IFIH1 -->
<g id="node36" class="node"><title>IFIH1</title>
<ellipse fill="none" stroke="black" cx="394.517" cy="-629.938" rx="18" ry="18"/>
<text text-anchor="middle" x="394.517" y="-628.738" font-family="Times,serif" font-size="4.00">IFIH1</text>
</g>
<!-- IFIH1&#45;&gt;RIG1_MDA5 -->
<g id="edge46" class="edge"><title>IFIH1&#45;&gt;RIG1_MDA5</title>
<path fill="none" stroke="black" d="M395.736,-611.838C396.713,-598.139 398.109,-578.552 399.285,-562.063"/>
<polygon fill="black" stroke="black" points="402.799,-561.991 400.019,-551.768 395.817,-561.493 402.799,-561.991"/>
</g>
<!-- ISRE -->
<g id="node44" class="node"><title>ISRE</title>
<ellipse fill="none" stroke="black" cx="1004.52" cy="-361.279" rx="18" ry="18"/>
<text text-anchor="middle" x="1004.52" y="-360.079" font-family="Times,serif" font-size="4.00">ISRE</text>
</g>
<!-- STAT1/2_IRF9&#45;&gt;ISRE -->
<g id="edge47" class="edge"><title>STAT1/2_IRF9&#45;&gt;ISRE</title>
<path fill="none" stroke="black" d="M1004.52,-417.709C1004.52,-408.914 1004.52,-398.754 1004.52,-389.554"/>
<polygon fill="black" stroke="black" points="1008.02,-389.333 1004.52,-379.333 1001.02,-389.333 1008.02,-389.333"/>
</g>
<!-- IFNA1 -->
<g id="node38" class="node"><title>IFNA1</title>
<ellipse fill="none" stroke="black" cx="980.517" cy="-722.153" rx="18" ry="18"/>
<text text-anchor="middle" x="980.517" y="-720.953" font-family="Times,serif" font-size="4.00">IFNA1</text>
</g>
<!-- IFNA1&#45;&gt;IFNA1_IFNAR -->
<g id="edge48" class="edge"><title>IFNA1&#45;&gt;IFNA1_IFNAR</title>
<path fill="none" stroke="black" d="M980.517,-703.759C980.517,-692.334 980.517,-677.037 980.517,-663.413"/>
<polygon fill="black" stroke="black" points="984.017,-663.412 980.517,-653.412 977.017,-663.412 984.017,-663.412"/>
</g>
<!-- MAVS&#45;&gt;TAB1_IKBKE -->
<g id="edge50" class="edge"><title>MAVS&#45;&gt;TAB1_IKBKE</title>
<path fill="none" stroke="black" d="M368.939,-423.305C373.022,-401.294 383.441,-363.337 408.517,-343.279 475.632,-289.592 524.39,-350.777 598.517,-307.279 603.557,-304.322 608.163,-300.265 612.215,-295.894"/>
<polygon fill="black" stroke="black" points="615.191,-297.789 618.883,-287.858 609.804,-293.319 615.191,-297.789"/>
</g>
<!-- MAVS&#45;&gt;RALBP1 -->
<g id="edge49" class="edge"><title>MAVS&#45;&gt;RALBP1</title>
<path fill="none" stroke="black" d="M361.639,-423.727C358.62,-413.49 354.677,-400.123 351.241,-388.471"/>
<polygon fill="black" stroke="black" points="354.573,-387.396 348.387,-378.794 347.859,-389.376 354.573,-387.396"/>
</g>
<!-- MERS 5 -->
<g id="node41" class="node"><title>MERS 5</title>
<ellipse fill="none" stroke="black" cx="443.517" cy="-268.035" rx="18" ry="18"/>
<text text-anchor="middle" x="443.517" y="-266.835" font-family="Times,serif" font-size="4.00">MERS 5</text>
</g>
<!-- MERS 5&#45;&gt;IRF3 -->
<g id="edge51" class="edge"><title>MERS 5&#45;&gt;IRF3</title>
<path fill="none" stroke="black" d="M451.505,-251.539C456.157,-243.806 462.657,-234.837 470.517,-228.79 510.567,-197.978 568.264,-181.859 602.321,-174.532"/>
<polygon fill="black" stroke="black" points="603.398,-177.884 612.495,-172.454 601.997,-171.026 603.398,-177.884"/>
</g>
<!-- SARS 3b_ 8b_ 8ab -->
<g id="node43" class="node"><title>SARS 3b_ 8b_ 8ab</title>
<ellipse fill="none" stroke="black" cx="507.517" cy="-268.035" rx="27.6545" ry="27.6545"/>
<text text-anchor="middle" x="507.517" y="-266.835" font-family="Times,serif" font-size="4.00">SARS 3b_ 8b_ 8ab</text>
</g>
<!-- SARS 3b_ 8b_ 8ab&#45;&gt;IRF3 -->
<g id="edge52" class="edge"><title>SARS 3b_ 8b_ 8ab&#45;&gt;IRF3</title>
<path fill="none" stroke="black" d="M525.633,-246.825C531.431,-240.771 538.033,-234.286 544.517,-228.79 564.436,-211.904 589.138,-195.233 606.95,-183.872"/>
<polygon fill="black" stroke="black" points="608.977,-186.731 615.575,-178.441 605.248,-180.808 608.977,-186.731"/>
</g>
<!-- JAK1_TYK2&#45;&gt;STAT1/2_IRF9 -->
<g id="edge53" class="edge"><title>JAK1_TYK2&#45;&gt;STAT1/2_IRF9</title>
<path fill="none" stroke="black" d="M909.082,-515.566C913.642,-511.539 918.733,-507.148 923.517,-503.252 941.136,-488.902 961.583,-473.516 977.526,-461.788"/>
<polygon fill="black" stroke="black" points="979.87,-464.41 985.872,-455.679 975.736,-458.761 979.87,-464.41"/>
</g>
<!-- MERS 4a_ 4b -->
<g id="node46" class="node"><title>MERS 4a_ 4b</title>
<ellipse fill="none" stroke="black" cx="384.517" cy="-268.035" rx="22.6101" ry="22.6101"/>
<text text-anchor="middle" x="384.517" y="-266.835" font-family="Times,serif" font-size="4.00">MERS 4a_ 4b</text>
</g>
<!-- MERS 4a_ 4b&#45;&gt;IRF3 -->
<g id="edge55" class="edge"><title>MERS 4a_ 4b&#45;&gt;IRF3</title>
<path fill="none" stroke="black" d="M396.656,-248.151C401.99,-241.172 408.802,-233.761 416.517,-228.79 475.677,-190.67 559.268,-176.714 602.375,-171.844"/>
<polygon fill="black" stroke="black" points="602.841,-175.314 612.422,-170.792 602.112,-168.352 602.841,-175.314"/>
</g>
<!-- MERS 4a_ 4b&#45;&gt;NFKB_NFKBIA -->
<g id="edge54" class="edge"><title>MERS 4a_ 4b&#45;&gt;NFKB_NFKBIA</title>
<path fill="none" stroke="black" d="M373.141,-248.209C364.687,-234.219 352.992,-214.864 343.306,-198.836"/>
<polygon fill="black" stroke="black" points="346.043,-196.597 337.876,-189.849 340.052,-200.218 346.043,-196.597"/>
</g>
<!-- SARS N -->
<g id="node47" class="node"><title>SARS N</title>
<ellipse fill="none" stroke="black" cx="717.517" cy="-629.938" rx="18" ry="18"/>
<text text-anchor="middle" x="717.517" y="-628.738" font-family="Times,serif" font-size="4.00">SARS N</text>
</g>
<!-- SARS N&#45;&gt;IRF3 -->
<g id="edge56" class="edge"><title>SARS N&#45;&gt;IRF3</title>
<path fill="none" stroke="black" d="M728.036,-614.788C749.327,-584.703 795.517,-511.459 795.517,-442.265 795.517,-442.265 795.517,-442.265 795.517,-360.279 795.517,-293.002 766.519,-277.883 720.517,-228.79 701.705,-208.716 674.834,-192.116 655.355,-181.618"/>
<polygon fill="black" stroke="black" points="656.938,-178.496 646.454,-176.965 653.695,-184.699 656.938,-178.496"/>
</g>
<!-- SARS N&#45;&gt;RIG1_MDA5 -->
<g id="edge57" class="edge"><title>SARS N&#45;&gt;RIG1_MDA5</title>
<path fill="none" stroke="black" d="M702.318,-620.052C687.336,-611.673 663.55,-599.371 641.517,-592.285 553.038,-563.826 520.815,-593.197 435.517,-556.285 432.062,-554.79 428.635,-552.878 425.361,-550.774"/>
<polygon fill="black" stroke="black" points="427.313,-547.868 417.139,-544.914 423.25,-553.568 427.313,-547.868"/>
</g>
<!-- MYD88 -->
<g id="node48" class="node"><title>MYD88</title>
<ellipse fill="none" stroke="black" cx="574.517" cy="-529.768" rx="18" ry="18"/>
<text text-anchor="middle" x="574.517" y="-528.568" font-family="Times,serif" font-size="4.00">MYD88</text>
</g>
<!-- MYD88&#45;&gt;MYD88_TCAM1 -->
<g id="edge58" class="edge"><title>MYD88&#45;&gt;MYD88_TCAM1</title>
<path fill="none" stroke="black" d="M562.174,-516.494C557.672,-512.181 552.468,-507.384 547.517,-503.252 547.183,-502.973 516.572,-480.489 492.625,-462.904"/>
<polygon fill="black" stroke="black" points="494.626,-460.03 484.494,-456.933 490.482,-465.672 494.626,-460.03"/>
</g>
<!-- DDX58 -->
<g id="node49" class="node"><title>DDX58</title>
<ellipse fill="none" stroke="black" cx="448.517" cy="-629.938" rx="18" ry="18"/>
<text text-anchor="middle" x="448.517" y="-628.738" font-family="Times,serif" font-size="4.00">DDX58</text>
</g>
<!-- DDX58&#45;&gt;RIG1_MDA5 -->
<g id="edge59" class="edge"><title>DDX58&#45;&gt;RIG1_MDA5</title>
<path fill="none" stroke="black" d="M440.965,-613.165C434.003,-598.623 423.504,-576.694 415.087,-559.114"/>
<polygon fill="black" stroke="black" points="418.136,-557.377 410.661,-549.869 411.823,-560.4 418.136,-557.377"/>
</g>
<!-- IFNA1_IFNAR&#45;&gt;JAK1_TYK2 -->
<g id="edge60" class="edge"><title>IFNA1_IFNAR&#45;&gt;JAK1_TYK2</title>
<path fill="none" stroke="black" d="M965.549,-611.774C960.181,-605.624 954.081,-598.641 948.517,-592.285 937.108,-579.253 924.323,-564.687 914.058,-553.001"/>
<polygon fill="black" stroke="black" points="916.632,-550.627 907.402,-545.425 911.373,-555.248 916.632,-550.627"/>
</g>
<!-- SARS nsp1_ S_ E_ N_ 3a_ 7a -->
<g id="node51" class="node"><title>SARS nsp1_ S_ E_ N_ 3a_ 7a</title>
<ellipse fill="none" stroke="black" cx="250.517" cy="-268.035" rx="39.4904" ry="39.4904"/>
<text text-anchor="middle" x="250.517" y="-266.835" font-family="Times,serif" font-size="4.00">SARS nsp1_ S_ E_ N_ 3a_ 7a</text>
</g>
<!-- SARS nsp1_ S_ E_ N_ 3a_ 7a&#45;&gt;NFKB_NFKBIA -->
<g id="edge61" class="edge"><title>SARS nsp1_ S_ E_ N_ 3a_ 7a&#45;&gt;NFKB_NFKBIA</title>
<path fill="none" stroke="black" d="M274.041,-236.409C283.884,-223.595 295.226,-208.829 304.754,-196.425"/>
<polygon fill="black" stroke="black" points="307.704,-198.33 311.02,-188.267 302.153,-194.066 307.704,-198.33"/>
</g>
<!-- SARS M -->
<g id="node52" class="node"><title>SARS M</title>
<ellipse fill="none" stroke="black" cx="278.517" cy="-629.938" rx="18" ry="18"/>
<text text-anchor="middle" x="278.517" y="-628.738" font-family="Times,serif" font-size="4.00">SARS M</text>
</g>
<!-- SARS M&#45;&gt;IKK -->
<g id="edge63" class="edge"><title>SARS M&#45;&gt;IKK</title>
<path fill="none" stroke="black" d="M280.72,-612.062C288.212,-554.693 312.744,-366.843 321.968,-296.211"/>
<polygon fill="black" stroke="black" points="325.438,-296.662 323.263,-286.293 318.497,-295.756 325.438,-296.662"/>
</g>
<!-- SARS M&#45;&gt;RIG1_MDA5 -->
<g id="edge62" class="edge"><title>SARS M&#45;&gt;RIG1_MDA5</title>
<path fill="none" stroke="black" d="M287.248,-614.195C292.014,-606.989 298.391,-598.544 305.517,-592.285 330.325,-570.488 343.209,-574.856 370.517,-556.285 372.894,-554.668 375.31,-552.909 377.691,-551.097"/>
<polygon fill="black" stroke="black" points="379.892,-553.819 385.541,-544.855 375.535,-548.34 379.892,-553.819"/>
</g>
<!-- RELA -->
<g id="node53" class="node"><title>RELA</title>
<ellipse fill="none" stroke="black" cx="867.517" cy="-90" rx="18" ry="18"/>
<text text-anchor="middle" x="867.517" y="-88.8" font-family="Times,serif" font-size="4.00">RELA</text>
</g>
<!-- RELA&#45;&gt;p50_p65 -->
<g id="edge64" class="edge"><title>RELA&#45;&gt;p50_p65</title>
<path fill="none" stroke="black" d="M853.132,-78.7479C849.181,-76.2694 844.801,-73.8151 840.517,-72 775.64,-44.5142 693.551,-29.3469 651.358,-22.8572"/>
<polygon fill="black" stroke="black" points="651.691,-19.3682 641.284,-21.3573 650.66,-26.2919 651.691,-19.3682"/>
</g>
<!-- MAPK8 -->
<g id="node54" class="node"><title>MAPK8</title>
<ellipse fill="none" stroke="black" cx="895.517" cy="-268.035" rx="18" ry="18"/>
<text text-anchor="middle" x="895.517" y="-266.835" font-family="Times,serif" font-size="4.00">MAPK8</text>
</g>
<!-- MAPK8&#45;&gt;MAPK8/14 -->
<g id="edge65" class="edge"><title>MAPK8&#45;&gt;MAPK8/14</title>
<path fill="none" stroke="black" d="M887.38,-251.725C882.688,-244.043 876.196,-235.063 868.517,-228.79 837.69,-203.613 820.526,-213.467 786.517,-192.79 784.292,-191.438 782.05,-189.932 779.851,-188.355"/>
<polygon fill="black" stroke="black" points="781.771,-185.416 771.711,-182.091 777.502,-190.964 781.771,-185.416"/>
</g>
<!-- PAMP -->
<g id="node55" class="node"><title>PAMP</title>
<ellipse fill="none" stroke="black" cx="560.517" cy="-629.938" rx="18" ry="18"/>
<text text-anchor="middle" x="560.517" y="-628.738" font-family="Times,serif" font-size="4.00">PAMP</text>
</g>
<!-- PAMP&#45;&gt;TLR_PAMP -->
<g id="edge66" class="edge"><title>PAMP&#45;&gt;TLR_PAMP</title>
<path fill="none" stroke="black" d="M550.912,-614.479C546.024,-607.506 539.797,-599.179 533.517,-592.285 531.403,-589.964 506.104,-567.506 486.747,-550.389"/>
<polygon fill="black" stroke="black" points="488.971,-547.684 479.16,-543.685 484.336,-552.93 488.971,-547.684"/>
</g>
<!-- NFKB_NFKBIA&#45;&gt;NFKBIA -->
<g id="edge67" class="edge"><title>NFKB_NFKBIA&#45;&gt;NFKBIA</title>
<path fill="none" stroke="black" d="M319.271,-144.474C318.679,-135.975 318.608,-126.268 319.057,-117.478"/>
<polygon fill="black" stroke="black" points="322.558,-117.6 319.863,-107.354 315.581,-117.044 322.558,-117.6"/>
</g>
<!-- NFKB1 -->
<g id="node65" class="node"><title>NFKB1</title>
<ellipse fill="none" stroke="black" cx="379.517" cy="-90" rx="18" ry="18"/>
<text text-anchor="middle" x="379.517" y="-88.8" font-family="Times,serif" font-size="4.00">NFKB1</text>
</g>
<!-- NFKB_NFKBIA&#45;&gt;NFKB1 -->
<g id="edge68" class="edge"><title>NFKB_NFKBIA&#45;&gt;NFKB1</title>
<path fill="none" stroke="black" d="M334.691,-145.708C341.622,-134.708 351.05,-121.448 359.572,-110.736"/>
<polygon fill="black" stroke="black" points="362.472,-112.722 366.148,-102.785 357.078,-108.261 362.472,-112.722"/>
</g>
<!-- FOS -->
<g id="node57" class="node"><title>FOS</title>
<ellipse fill="none" stroke="black" cx="921.517" cy="-168.395" rx="18" ry="18"/>
<text text-anchor="middle" x="921.517" y="-167.195" font-family="Times,serif" font-size="4.00">FOS</text>
</g>
<!-- FOS&#45;&gt;AP&#45;1 -->
<g id="edge69" class="edge"><title>FOS&#45;&gt;AP&#45;1</title>
<path fill="none" stroke="black" d="M908.628,-155.607C904.253,-151.775 899.269,-147.588 894.517,-144 884.223,-136.229 857.154,-118.723 837.127,-105.95"/>
<polygon fill="black" stroke="black" points="838.822,-102.88 828.506,-100.466 835.065,-108.787 838.822,-102.88"/>
</g>
<!-- TAB1_IKBKE&#45;&gt;IRF3 -->
<g id="edge70" class="edge"><title>TAB1_IKBKE&#45;&gt;IRF3</title>
<path fill="none" stroke="black" d="M630.517,-244.879C630.517,-230.662 630.517,-212.094 630.517,-196.931"/>
<polygon fill="black" stroke="black" points="634.017,-196.604 630.517,-186.604 627.017,-196.604 634.017,-196.604"/>
</g>
<!-- PLpro (nsp3) -->
<g id="node59" class="node"><title>PLpro (nsp3)</title>
<ellipse fill="none" stroke="black" cx="529.517" cy="-441.265" rx="21.9898" ry="21.9898"/>
<text text-anchor="middle" x="529.517" y="-440.065" font-family="Times,serif" font-size="4.00">PLpro (nsp3)</text>
</g>
<!-- PLpro (nsp3)&#45;&gt;TRAF6 -->
<g id="edge71" class="edge"><title>PLpro (nsp3)&#45;&gt;TRAF6</title>
<path fill="none" stroke="black" d="M513.143,-426.681C497.502,-413.705 473.847,-394.08 456.762,-379.905"/>
<polygon fill="black" stroke="black" points="458.897,-377.129 448.966,-373.437 454.427,-382.516 458.897,-377.129"/>
</g>
<!-- PLpro (nsp3)&#45;&gt;IKBKE -->
<g id="edge73" class="edge"><title>PLpro (nsp3)&#45;&gt;IKBKE</title>
<path fill="none" stroke="black" d="M519.834,-421.387C514.505,-410.997 507.83,-397.984 502.101,-386.814"/>
<polygon fill="black" stroke="black" points="505.045,-384.886 497.367,-377.585 498.817,-388.08 505.045,-384.886"/>
</g>
<!-- PLpro (nsp3)&#45;&gt;TRAF3 -->
<g id="edge74" class="edge"><title>PLpro (nsp3)&#45;&gt;TRAF3</title>
<path fill="none" stroke="black" d="M533.195,-419.775C534.878,-410.397 536.896,-399.16 538.699,-389.118"/>
<polygon fill="black" stroke="black" points="542.154,-389.674 540.477,-379.213 535.265,-388.437 542.154,-389.674"/>
</g>
<!-- PLpro (nsp3)&#45;&gt;IRF3 -->
<g id="edge72" class="edge"><title>PLpro (nsp3)&#45;&gt;IRF3</title>
<path fill="none" stroke="black" d="M544.924,-425.645C549.394,-421.915 554.444,-418.152 559.517,-415.279 601.711,-391.38 634.448,-418.823 662.517,-379.279 701.23,-324.738 678.875,-293.643 662.517,-228.79 659.282,-215.966 652.674,-202.898 646.299,-192.298"/>
<polygon fill="black" stroke="black" points="649.153,-190.263 640.847,-183.685 643.239,-194.007 649.153,-190.263"/>
</g>
<!-- MAP3K7&#45;&gt;MAPK8/14 -->
<g id="edge75" class="edge"><title>MAP3K7&#45;&gt;MAPK8/14</title>
<path fill="none" stroke="black" d="M579.51,-251.545C584.164,-243.814 590.664,-234.845 598.517,-228.79 637.79,-198.512 694.138,-182.375 728.142,-174.872"/>
<polygon fill="black" stroke="black" points="729.277,-178.21 738.346,-172.732 727.841,-171.359 729.277,-178.21"/>
</g>
<!-- RALBP1&#45;&gt;IKK -->
<g id="edge76" class="edge"><title>RALBP1&#45;&gt;IKK</title>
<path fill="none" stroke="black" d="M340.215,-343.544C337.593,-330.251 333.874,-311.4 330.833,-295.985"/>
<polygon fill="black" stroke="black" points="334.227,-295.107 328.858,-285.973 327.36,-296.462 334.227,-295.107"/>
</g>
<!-- STAT1 -->
<g id="node62" class="node"><title>STAT1</title>
<ellipse fill="none" stroke="black" cx="1058.52" cy="-529.768" rx="18" ry="18"/>
<text text-anchor="middle" x="1058.52" y="-528.568" font-family="Times,serif" font-size="4.00">STAT1</text>
</g>
<!-- STAT1&#45;&gt;STAT1/2_IRF9 -->
<g id="edge77" class="edge"><title>STAT1&#45;&gt;STAT1/2_IRF9</title>
<path fill="none" stroke="black" d="M1049.36,-514.094C1041.88,-502.119 1031.1,-484.853 1021.99,-470.251"/>
<polygon fill="black" stroke="black" points="1024.83,-468.203 1016.57,-461.574 1018.9,-471.91 1024.83,-468.203"/>
</g>
<!-- RIG1_MDA5&#45;&gt;MAVS -->
<g id="edge78" class="edge"><title>RIG1_MDA5&#45;&gt;MAVS</title>
<path fill="none" stroke="black" d="M393.574,-509.139C388.624,-496.905 382.202,-481.033 376.857,-467.822"/>
<polygon fill="black" stroke="black" points="380.017,-466.3 373.022,-458.343 373.528,-468.925 380.017,-466.3"/>
</g>
<!-- IRF9 -->
<g id="node64" class="node"><title>IRF9</title>
<ellipse fill="none" stroke="black" cx="1112.52" cy="-529.768" rx="18" ry="18"/>
<text text-anchor="middle" x="1112.52" y="-528.568" font-family="Times,serif" font-size="4.00">IRF9</text>
</g>
<!-- IRF9&#45;&gt;STAT1/2_IRF9 -->
<g id="edge79" class="edge"><title>IRF9&#45;&gt;STAT1/2_IRF9</title>
<path fill="none" stroke="black" d="M1100.15,-516.526C1095.64,-512.216 1090.44,-507.413 1085.52,-503.252 1068.15,-488.59 1047.71,-473.207 1031.7,-461.559"/>
<polygon fill="black" stroke="black" points="1033.47,-458.518 1023.31,-455.5 1029.37,-464.193 1033.47,-458.518"/>
</g>
<!-- NFKB1&#45;&gt;p50_p65 -->
<g id="edge81" class="edge"><title>NFKB1&#45;&gt;p50_p65</title>
<path fill="none" stroke="black" d="M396.674,-84.0777C438.5,-72.0786 545.977,-41.245 596.504,-26.7494"/>
<polygon fill="black" stroke="black" points="597.731,-30.0388 606.378,-23.9168 595.8,-23.3102 597.731,-30.0388"/>
</g>
<!-- NFKB1&#45;&gt;NFKB_NFKBIA -->
<g id="edge80" class="edge"><title>NFKB1&#45;&gt;NFKB_NFKBIA</title>
<path fill="none" stroke="black" d="M373.653,-107.282C367.534,-117.603 358.195,-131.15 349.278,-142.771"/>
<polygon fill="black" stroke="black" points="346.371,-140.804 342.912,-150.819 351.861,-145.147 346.371,-140.804"/>
</g>
</g>
</svg>
