<?xml version="1.0" encoding="UTF-8" standalone="no"?>
<!DOCTYPE svg PUBLIC "-//W3C//DTD SVG 1.1//EN"
 "http://www.w3.org/Graphics/SVG/1.1/DTD/svg11.dtd">
<!-- Generated by graphviz version 2.38.0 (20140413.2041)
 -->
<!-- Title: G Pages: 1 -->
<svg width="1086pt" height="749pt"
 viewBox="0.00 0.00 1086.00 748.71" xmlns="http://www.w3.org/2000/svg" xmlns:xlink="http://www.w3.org/1999/xlink">
<g id="graph0" class="graph" transform="scale(1 1) rotate(0) translate(4 744.715)">
<title>G</title>
<polygon fill="white" stroke="none" points="-4,4 -4,-744.715 1082,-744.715 1082,4 -4,4"/>
<!-- OAS3 -->
<g id="node1" class="node"><title>OAS3</title>
<ellipse fill="none" stroke="black" cx="144" cy="-529.768" rx="18" ry="18"/>
<text text-anchor="middle" x="144" y="-528.568" font-family="Times,serif" font-size="4.00">OAS3</text>
</g>
<!-- Innate immunity -->
<g id="node2" class="node"><title>Innate immunity</title>
<ellipse fill="none" stroke="black" cx="144" cy="-441.265" rx="25.9724" ry="25.9724"/>
<text text-anchor="middle" x="144" y="-440.065" font-family="Times,serif" font-size="4.00">Innate immunity</text>
</g>
<!-- OAS3&#45;&gt;Innate immunity -->
<g id="edge1" class="edge"><title>OAS3&#45;&gt;Innate immunity</title>
<path fill="none" stroke="black" d="M144,-511.678C144,-501.929 144,-489.339 144,-477.564"/>
<polygon fill="black" stroke="black" points="147.5,-477.518 144,-467.518 140.5,-477.518 147.5,-477.518"/>
</g>
<!-- OAS2 -->
<g id="node3" class="node"><title>OAS2</title>
<ellipse fill="none" stroke="black" cx="198" cy="-529.768" rx="18" ry="18"/>
<text text-anchor="middle" x="198" y="-528.568" font-family="Times,serif" font-size="4.00">OAS2</text>
</g>
<!-- OAS2&#45;&gt;Innate immunity -->
<g id="edge2" class="edge"><title>OAS2&#45;&gt;Innate immunity</title>
<path fill="none" stroke="black" d="M188.84,-514.094C181.78,-502.785 171.775,-486.759 163.007,-472.712"/>
<polygon fill="black" stroke="black" points="165.731,-470.467 157.467,-463.837 159.793,-474.174 165.731,-470.467"/>
</g>
<!-- OAS1 -->
<g id="node4" class="node"><title>OAS1</title>
<ellipse fill="none" stroke="black" cx="252" cy="-529.768" rx="18" ry="18"/>
<text text-anchor="middle" x="252" y="-528.568" font-family="Times,serif" font-size="4.00">OAS1</text>
</g>
<!-- OAS1&#45;&gt;Innate immunity -->
<g id="edge3" class="edge"><title>OAS1&#45;&gt;Innate immunity</title>
<path fill="none" stroke="black" d="M239.63,-516.526C235.125,-512.216 229.928,-507.413 225,-503.252 208.319,-489.165 188.788,-474.413 173.084,-462.946"/>
<polygon fill="black" stroke="black" points="174.947,-459.974 164.796,-456.939 170.839,-465.642 174.947,-459.974"/>
</g>
<!-- EIF2AK -->
<g id="node5" class="node"><title>EIF2AK</title>
<ellipse fill="none" stroke="black" cx="18" cy="-529.768" rx="18" ry="18"/>
<text text-anchor="middle" x="18" y="-528.568" font-family="Times,serif" font-size="4.00">EIF2AK</text>
</g>
<!-- EIF2AK&#45;&gt;Innate immunity -->
<g id="edge4" class="edge"><title>EIF2AK&#45;&gt;Innate immunity</title>
<path fill="none" stroke="black" d="M30.1595,-516.265C34.6447,-511.931 39.8837,-507.179 45,-503.252 66.5246,-486.73 92.7386,-470.745 112.784,-459.288"/>
<polygon fill="black" stroke="black" points="114.532,-462.32 121.52,-454.357 111.091,-456.224 114.532,-462.32"/>
</g>
<!-- SARS nsp3 (SUD) -->
<g id="node6" class="node"><title>SARS nsp3 (SUD)</title>
<ellipse fill="none" stroke="black" cx="81" cy="-529.768" rx="26.533" ry="26.533"/>
<text text-anchor="middle" x="81" y="-528.568" font-family="Times,serif" font-size="4.00">SARS nsp3 (SUD)</text>
</g>
<!-- SARS nsp3 (SUD)&#45;&gt;Innate immunity -->
<g id="edge5" class="edge"><title>SARS nsp3 (SUD)&#45;&gt;Innate immunity</title>
<path fill="none" stroke="black" d="M96.2505,-507.828C104.28,-496.804 114.249,-483.116 122.997,-471.103"/>
<polygon fill="black" stroke="black" points="126.049,-472.858 129.107,-462.714 120.391,-468.737 126.049,-472.858"/>
</g>
<!-- STAT1 -->
<g id="node7" class="node"><title>STAT1</title>
<ellipse fill="none" stroke="black" cx="840" cy="-529.768" rx="18" ry="18"/>
<text text-anchor="middle" x="840" y="-528.568" font-family="Times,serif" font-size="4.00">STAT1</text>
</g>
<!-- STAT1/2_IRF9 -->
<g id="node11" class="node"><title>STAT1/2_IRF9</title>
<ellipse fill="none" stroke="black" cx="950" cy="-441.265" rx="23.1702" ry="23.1702"/>
<text text-anchor="middle" x="950" y="-440.065" font-family="Times,serif" font-size="4.00">STAT1/2_IRF9</text>
</g>
<!-- STAT1&#45;&gt;STAT1/2_IRF9 -->
<g id="edge6" class="edge"><title>STAT1&#45;&gt;STAT1/2_IRF9</title>
<path fill="none" stroke="black" d="M852.343,-516.494C856.845,-512.181 862.048,-507.384 867,-503.252 884.839,-488.365 905.952,-472.879 922.42,-461.237"/>
<polygon fill="black" stroke="black" points="924.861,-463.799 931.04,-455.193 920.843,-458.068 924.861,-463.799"/>
</g>
<!-- STAT2 -->
<g id="node8" class="node"><title>STAT2</title>
<ellipse fill="none" stroke="black" cx="894" cy="-529.768" rx="18" ry="18"/>
<text text-anchor="middle" x="894" y="-528.568" font-family="Times,serif" font-size="4.00">STAT2</text>
</g>
<!-- STAT2&#45;&gt;STAT1/2_IRF9 -->
<g id="edge7" class="edge"><title>STAT2&#45;&gt;STAT1/2_IRF9</title>
<path fill="none" stroke="black" d="M903.5,-514.094C911.304,-502.039 922.579,-484.623 932.072,-469.959"/>
<polygon fill="black" stroke="black" points="935.209,-471.554 937.705,-461.257 929.333,-467.75 935.209,-471.554"/>
</g>
<!-- RALBP1 -->
<g id="node9" class="node"><title>RALBP1</title>
<ellipse fill="none" stroke="black" cx="385" cy="-361.279" rx="18" ry="18"/>
<text text-anchor="middle" x="385" y="-360.079" font-family="Times,serif" font-size="4.00">RALBP1</text>
</g>
<!-- IKK -->
<g id="node27" class="node"><title>IKK</title>
<ellipse fill="none" stroke="black" cx="298" cy="-268.035" rx="18" ry="18"/>
<text text-anchor="middle" x="298" y="-266.835" font-family="Times,serif" font-size="4.00">IKK</text>
</g>
<!-- RALBP1&#45;&gt;IKK -->
<g id="edge8" class="edge"><title>RALBP1&#45;&gt;IKK</title>
<path fill="none" stroke="black" d="M370.82,-349.332C358.1,-339.157 339.29,-323.215 325,-307.279 320.829,-302.627 316.728,-297.321 313.031,-292.172"/>
<polygon fill="black" stroke="black" points="315.813,-290.04 307.251,-283.799 310.052,-294.017 315.813,-290.04"/>
</g>
<!-- IFNB1 -->
<g id="node10" class="node"><title>IFNB1</title>
<ellipse fill="none" stroke="black" cx="913" cy="-722.153" rx="18" ry="18"/>
<text text-anchor="middle" x="913" y="-720.953" font-family="Times,serif" font-size="4.00">IFNB1</text>
</g>
<!-- IFNB1_IFNAR -->
<g id="node28" class="node"><title>IFNB1_IFNAR</title>
<ellipse fill="none" stroke="black" cx="935" cy="-629.938" rx="23.1702" ry="23.1702"/>
<text text-anchor="middle" x="935" y="-628.738" font-family="Times,serif" font-size="4.00">IFNB1_IFNAR</text>
</g>
<!-- IFNB1&#45;&gt;IFNB1_IFNAR -->
<g id="edge9" class="edge"><title>IFNB1&#45;&gt;IFNB1_IFNAR</title>
<path fill="none" stroke="black" d="M917.035,-704.606C919.89,-692.899 923.808,-676.833 927.257,-662.691"/>
<polygon fill="black" stroke="black" points="930.694,-663.368 929.663,-652.823 923.893,-661.709 930.694,-663.368"/>
</g>
<!-- ISRE -->
<g id="node56" class="node"><title>ISRE</title>
<ellipse fill="none" stroke="black" cx="950" cy="-361.279" rx="18" ry="18"/>
<text text-anchor="middle" x="950" y="-360.079" font-family="Times,serif" font-size="4.00">ISRE</text>
</g>
<!-- STAT1/2_IRF9&#45;&gt;ISRE -->
<g id="edge10" class="edge"><title>STAT1/2_IRF9&#45;&gt;ISRE</title>
<path fill="none" stroke="black" d="M950,-417.709C950,-408.914 950,-398.754 950,-389.554"/>
<polygon fill="black" stroke="black" points="953.5,-389.333 950,-379.333 946.5,-389.333 953.5,-389.333"/>
</g>
<!-- MAPK8/14 -->
<g id="node12" class="node"><title>MAPK8/14</title>
<ellipse fill="none" stroke="black" cx="803" cy="-168.395" rx="19.7452" ry="19.7452"/>
<text text-anchor="middle" x="803" y="-167.195" font-family="Times,serif" font-size="4.00">MAPK8/14</text>
</g>
<!-- AP&#45;1 -->
<g id="node26" class="node"><title>AP&#45;1</title>
<ellipse fill="none" stroke="black" cx="886" cy="-90" rx="18" ry="18"/>
<text text-anchor="middle" x="886" y="-88.8" font-family="Times,serif" font-size="4.00">AP&#45;1</text>
</g>
<!-- MAPK8/14&#45;&gt;AP&#45;1 -->
<g id="edge11" class="edge"><title>MAPK8/14&#45;&gt;AP&#45;1</title>
<path fill="none" stroke="black" d="M817.08,-154.436C830.471,-142.11 850.756,-123.439 865.856,-109.541"/>
<polygon fill="black" stroke="black" points="868.228,-112.114 873.216,-102.767 863.488,-106.964 868.228,-112.114"/>
</g>
<!-- MERS PLPRo -->
<g id="node13" class="node"><title>MERS PLPRo</title>
<ellipse fill="none" stroke="black" cx="240" cy="-268.035" rx="22.05" ry="22.05"/>
<text text-anchor="middle" x="240" y="-266.835" font-family="Times,serif" font-size="4.00">MERS PLPRo</text>
</g>
<!-- NFKB_NFKBIA -->
<g id="node54" class="node"><title>NFKB_NFKBIA</title>
<ellipse fill="none" stroke="black" cx="269" cy="-168.395" rx="24.2908" ry="24.2908"/>
<text text-anchor="middle" x="269" y="-167.195" font-family="Times,serif" font-size="4.00">NFKB_NFKBIA</text>
</g>
<!-- MERS PLPRo&#45;&gt;NFKB_NFKBIA -->
<g id="edge12" class="edge"><title>MERS PLPRo&#45;&gt;NFKB_NFKBIA</title>
<path fill="none" stroke="black" d="M246.15,-246.328C249.987,-233.411 255.006,-216.51 259.363,-201.841"/>
<polygon fill="black" stroke="black" points="262.759,-202.701 262.251,-192.118 256.049,-200.708 262.759,-202.701"/>
</g>
<!-- IRF3 -->
<g id="node14" class="node"><title>IRF3</title>
<ellipse fill="none" stroke="black" cx="587" cy="-168.395" rx="18" ry="18"/>
<text text-anchor="middle" x="587" y="-167.195" font-family="Times,serif" font-size="4.00">IRF3</text>
</g>
<!-- MAPK14 -->
<g id="node15" class="node"><title>MAPK14</title>
<ellipse fill="none" stroke="black" cx="776" cy="-268.035" rx="18" ry="18"/>
<text text-anchor="middle" x="776" y="-266.835" font-family="Times,serif" font-size="4.00">MAPK14</text>
</g>
<!-- MAPK14&#45;&gt;MAPK8/14 -->
<g id="edge13" class="edge"><title>MAPK14&#45;&gt;MAPK8/14</title>
<path fill="none" stroke="black" d="M780.58,-250.472C784.567,-236.053 790.433,-214.841 795.165,-197.73"/>
<polygon fill="black" stroke="black" points="798.645,-198.274 797.937,-187.703 791.899,-196.409 798.645,-198.274"/>
</g>
<!-- JAK1_TYK2 -->
<g id="node16" class="node"><title>JAK1_TYK2</title>
<ellipse fill="none" stroke="black" cx="950" cy="-529.768" rx="20.3062" ry="20.3062"/>
<text text-anchor="middle" x="950" y="-528.568" font-family="Times,serif" font-size="4.00">JAK1_TYK2</text>
</g>
<!-- JAK1_TYK2&#45;&gt;STAT1/2_IRF9 -->
<g id="edge14" class="edge"><title>JAK1_TYK2&#45;&gt;STAT1/2_IRF9</title>
<path fill="none" stroke="black" d="M950,-509.57C950,-499.433 950,-486.712 950,-475.066"/>
<polygon fill="black" stroke="black" points="953.5,-474.778 950,-464.778 946.5,-474.778 953.5,-474.778"/>
</g>
<!-- NFKBIA -->
<g id="node17" class="node"><title>NFKBIA</title>
<ellipse fill="none" stroke="black" cx="215" cy="-90" rx="18" ry="18"/>
<text text-anchor="middle" x="215" y="-88.8" font-family="Times,serif" font-size="4.00">NFKBIA</text>
</g>
<!-- NFKBIA&#45;&gt;NFKB_NFKBIA -->
<g id="edge15" class="edge"><title>NFKBIA&#45;&gt;NFKB_NFKBIA</title>
<path fill="none" stroke="black" d="M228.369,-102.785C236.319,-111.967 246.155,-125.139 254.271,-137.197"/>
<polygon fill="black" stroke="black" points="251.429,-139.246 259.825,-145.708 257.291,-135.42 251.429,-139.246"/>
</g>
<!-- PLpro (nsp3) -->
<g id="node18" class="node"><title>PLpro (nsp3)</title>
<ellipse fill="none" stroke="black" cx="531" cy="-441.265" rx="21.9898" ry="21.9898"/>
<text text-anchor="middle" x="531" y="-440.065" font-family="Times,serif" font-size="4.00">PLpro (nsp3)</text>
</g>
<!-- PLpro (nsp3)&#45;&gt;IRF3 -->
<g id="edge18" class="edge"><title>PLpro (nsp3)&#45;&gt;IRF3</title>
<path fill="none" stroke="black" d="M520.443,-421.845C508.463,-401.633 487.747,-368.688 466,-343.279 450.661,-325.358 436.461,-328.888 427,-307.279 413.009,-275.324 407.083,-257.429 427,-228.79 456.794,-185.949 521.319,-173.943 558.687,-170.622"/>
<polygon fill="black" stroke="black" points="559.184,-174.095 568.9,-169.87 558.67,-167.113 559.184,-174.095"/>
</g>
<!-- IKBKE -->
<g id="node29" class="node"><title>IKBKE</title>
<ellipse fill="none" stroke="black" cx="585" cy="-361.279" rx="18" ry="18"/>
<text text-anchor="middle" x="585" y="-360.079" font-family="Times,serif" font-size="4.00">IKBKE</text>
</g>
<!-- PLpro (nsp3)&#45;&gt;IKBKE -->
<g id="edge19" class="edge"><title>PLpro (nsp3)&#45;&gt;IKBKE</title>
<path fill="none" stroke="black" d="M542.984,-422.958C550.785,-411.692 561.038,-396.884 569.463,-384.717"/>
<polygon fill="black" stroke="black" points="572.398,-386.627 575.213,-376.413 566.643,-382.642 572.398,-386.627"/>
</g>
<!-- TRAF6 -->
<g id="node38" class="node"><title>TRAF6</title>
<ellipse fill="none" stroke="black" cx="439" cy="-361.279" rx="18" ry="18"/>
<text text-anchor="middle" x="439" y="-360.079" font-family="Times,serif" font-size="4.00">TRAF6</text>
</g>
<!-- PLpro (nsp3)&#45;&gt;TRAF6 -->
<g id="edge16" class="edge"><title>PLpro (nsp3)&#45;&gt;TRAF6</title>
<path fill="none" stroke="black" d="M514.552,-426.323C499.412,-413.489 476.865,-394.376 460.342,-380.37"/>
<polygon fill="black" stroke="black" points="462.214,-377.369 452.322,-373.572 457.687,-382.708 462.214,-377.369"/>
</g>
<!-- TRAF3 -->
<g id="node57" class="node"><title>TRAF3</title>
<ellipse fill="none" stroke="black" cx="531" cy="-361.279" rx="18" ry="18"/>
<text text-anchor="middle" x="531" y="-360.079" font-family="Times,serif" font-size="4.00">TRAF3</text>
</g>
<!-- PLpro (nsp3)&#45;&gt;TRAF3 -->
<g id="edge17" class="edge"><title>PLpro (nsp3)&#45;&gt;TRAF3</title>
<path fill="none" stroke="black" d="M531,-419.367C531,-410.155 531,-399.213 531,-389.385"/>
<polygon fill="black" stroke="black" points="534.5,-389.293 531,-379.293 527.5,-389.293 534.5,-389.293"/>
</g>
<!-- TCAM1 -->
<g id="node19" class="node"><title>TCAM1</title>
<ellipse fill="none" stroke="black" cx="466" cy="-529.768" rx="18" ry="18"/>
<text text-anchor="middle" x="466" y="-528.568" font-family="Times,serif" font-size="4.00">TCAM1</text>
</g>
<!-- MYD88_TCAM1 -->
<g id="node42" class="node"><title>MYD88_TCAM1</title>
<ellipse fill="none" stroke="black" cx="466" cy="-441.265" rx="24.8512" ry="24.8512"/>
<text text-anchor="middle" x="466" y="-440.065" font-family="Times,serif" font-size="4.00">MYD88_TCAM1</text>
</g>
<!-- TCAM1&#45;&gt;MYD88_TCAM1 -->
<g id="edge20" class="edge"><title>TCAM1&#45;&gt;MYD88_TCAM1</title>
<path fill="none" stroke="black" d="M466,-511.678C466,-501.624 466,-488.55 466,-476.463"/>
<polygon fill="black" stroke="black" points="469.5,-476.196 466,-466.196 462.5,-476.196 469.5,-476.196"/>
</g>
<!-- JAK1 -->
<g id="node20" class="node"><title>JAK1</title>
<ellipse fill="none" stroke="black" cx="876" cy="-629.938" rx="18" ry="18"/>
<text text-anchor="middle" x="876" y="-628.738" font-family="Times,serif" font-size="4.00">JAK1</text>
</g>
<!-- JAK1&#45;&gt;JAK1_TYK2 -->
<g id="edge21" class="edge"><title>JAK1&#45;&gt;JAK1_TYK2</title>
<path fill="none" stroke="black" d="M886.2,-614.971C891.229,-608.115 897.403,-599.745 903,-592.285 912.448,-579.691 923.091,-565.742 931.856,-554.315"/>
<polygon fill="black" stroke="black" points="934.826,-556.195 938.143,-546.133 929.275,-551.93 934.826,-556.195"/>
</g>
<!-- TLR7 -->
<g id="node21" class="node"><title>TLR7</title>
<ellipse fill="none" stroke="black" cx="793" cy="-629.938" rx="18" ry="18"/>
<text text-anchor="middle" x="793" y="-628.738" font-family="Times,serif" font-size="4.00">TLR7</text>
</g>
<!-- TLR_PAMP -->
<g id="node36" class="node"><title>TLR_PAMP</title>
<ellipse fill="none" stroke="black" cx="778" cy="-529.768" rx="20.3062" ry="20.3062"/>
<text text-anchor="middle" x="778" y="-528.568" font-family="Times,serif" font-size="4.00">TLR_PAMP</text>
</g>
<!-- TLR7&#45;&gt;TLR_PAMP -->
<g id="edge22" class="edge"><title>TLR7&#45;&gt;TLR_PAMP</title>
<path fill="none" stroke="black" d="M790.387,-611.838C788.205,-597.553 785.044,-576.868 782.461,-559.967"/>
<polygon fill="black" stroke="black" points="785.913,-559.381 780.942,-550.024 778.993,-560.438 785.913,-559.381"/>
</g>
<!-- MERS 4a_ 4b -->
<g id="node22" class="node"><title>MERS 4a_ 4b</title>
<ellipse fill="none" stroke="black" cx="357" cy="-268.035" rx="22.6101" ry="22.6101"/>
<text text-anchor="middle" x="357" y="-266.835" font-family="Times,serif" font-size="4.00">MERS 4a_ 4b</text>
</g>
<!-- MERS 4a_ 4b&#45;&gt;IRF3 -->
<g id="edge23" class="edge"><title>MERS 4a_ 4b&#45;&gt;IRF3</title>
<path fill="none" stroke="black" d="M370.579,-249.481C376.996,-242.197 385.18,-234.201 394,-228.79 447.378,-196.046 520.23,-180.08 559.392,-173.419"/>
<polygon fill="black" stroke="black" points="559.963,-176.873 569.274,-171.816 558.842,-169.963 559.963,-176.873"/>
</g>
<!-- MERS 4a_ 4b&#45;&gt;NFKB_NFKBIA -->
<g id="edge24" class="edge"><title>MERS 4a_ 4b&#45;&gt;NFKB_NFKBIA</title>
<path fill="none" stroke="black" d="M342.877,-249.716C337.382,-243.095 330.98,-235.521 325,-228.79 314.623,-217.11 302.799,-204.475 292.698,-193.874"/>
<polygon fill="black" stroke="black" points="295.136,-191.359 285.693,-186.556 290.08,-196.2 295.136,-191.359"/>
</g>
<!-- SARS 9b -->
<g id="node23" class="node"><title>SARS 9b</title>
<ellipse fill="none" stroke="black" cx="412" cy="-529.768" rx="18" ry="18"/>
<text text-anchor="middle" x="412" y="-528.568" font-family="Times,serif" font-size="4.00">SARS 9b</text>
</g>
<!-- MAVS -->
<g id="node45" class="node"><title>MAVS</title>
<ellipse fill="none" stroke="black" cx="369" cy="-441.265" rx="18" ry="18"/>
<text text-anchor="middle" x="369" y="-440.065" font-family="Times,serif" font-size="4.00">MAVS</text>
</g>
<!-- SARS 9b&#45;&gt;MAVS -->
<g id="edge25" class="edge"><title>SARS 9b&#45;&gt;MAVS</title>
<path fill="none" stroke="black" d="M404.312,-513.303C397.892,-500.387 388.622,-481.738 381.19,-466.789"/>
<polygon fill="black" stroke="black" points="384.206,-464.993 376.621,-457.596 377.938,-468.109 384.206,-464.993"/>
</g>
<!-- MAPK8 -->
<g id="node24" class="node"><title>MAPK8</title>
<ellipse fill="none" stroke="black" cx="830" cy="-268.035" rx="18" ry="18"/>
<text text-anchor="middle" x="830" y="-266.835" font-family="Times,serif" font-size="4.00">MAPK8</text>
</g>
<!-- MAPK8&#45;&gt;MAPK8/14 -->
<g id="edge26" class="edge"><title>MAPK8&#45;&gt;MAPK8/14</title>
<path fill="none" stroke="black" d="M825.42,-250.472C821.433,-236.053 815.567,-214.841 810.835,-197.73"/>
<polygon fill="black" stroke="black" points="814.101,-196.409 808.063,-187.703 807.355,-198.274 814.101,-196.409"/>
</g>
<!-- MERS 4a -->
<g id="node25" class="node"><title>MERS 4a</title>
<ellipse fill="none" stroke="black" cx="341" cy="-722.153" rx="18.6233" ry="18.6233"/>
<text text-anchor="middle" x="341" y="-720.953" font-family="Times,serif" font-size="4.00">MERS 4a</text>
</g>
<!-- Viral RNA -->
<g id="node53" class="node"><title>Viral RNA</title>
<ellipse fill="none" stroke="black" cx="341" cy="-629.938" rx="19.7452" ry="19.7452"/>
<text text-anchor="middle" x="341" y="-628.738" font-family="Times,serif" font-size="4.00">Viral RNA</text>
</g>
<!-- MERS 4a&#45;&gt;Viral RNA -->
<g id="edge27" class="edge"><title>MERS 4a&#45;&gt;Viral RNA</title>
<path fill="none" stroke="black" d="M341,-703.329C341,-690.972 341,-674.238 341,-659.971"/>
<polygon fill="black" stroke="black" points="344.5,-659.656 341,-649.656 337.5,-659.656 344.5,-659.656"/>
</g>
<!-- IKK&#45;&gt;NFKB_NFKBIA -->
<g id="edge28" class="edge"><title>IKK&#45;&gt;NFKB_NFKBIA</title>
<path fill="none" stroke="black" d="M293.081,-250.472C289.119,-237.135 283.432,-217.985 278.578,-201.644"/>
<polygon fill="black" stroke="black" points="281.89,-200.5 275.687,-191.911 275.179,-202.493 281.89,-200.5"/>
</g>
<!-- IFNB1_IFNAR&#45;&gt;JAK1_TYK2 -->
<g id="edge29" class="edge"><title>IFNB1_IFNAR&#45;&gt;JAK1_TYK2</title>
<path fill="none" stroke="black" d="M938.404,-606.662C940.504,-592.914 943.223,-575.119 945.5,-560.216"/>
<polygon fill="black" stroke="black" points="949.015,-560.389 947.065,-549.975 942.095,-559.331 949.015,-560.389"/>
</g>
<!-- TAB1_IKBKE -->
<g id="node58" class="node"><title>TAB1_IKBKE</title>
<ellipse fill="none" stroke="black" cx="587" cy="-268.035" rx="22.6101" ry="22.6101"/>
<text text-anchor="middle" x="587" y="-266.835" font-family="Times,serif" font-size="4.00">TAB1_IKBKE</text>
</g>
<!-- IKBKE&#45;&gt;TAB1_IKBKE -->
<g id="edge30" class="edge"><title>IKBKE&#45;&gt;TAB1_IKBKE</title>
<path fill="none" stroke="black" d="M585.376,-343.117C585.634,-331.352 585.984,-315.382 586.293,-301.282"/>
<polygon fill="black" stroke="black" points="589.799,-301.039 586.519,-290.964 582.801,-300.885 589.799,-301.039"/>
</g>
<!-- PAMP -->
<g id="node30" class="node"><title>PAMP</title>
<ellipse fill="none" stroke="black" cx="739" cy="-629.938" rx="18" ry="18"/>
<text text-anchor="middle" x="739" y="-628.738" font-family="Times,serif" font-size="4.00">PAMP</text>
</g>
<!-- PAMP&#45;&gt;TLR_PAMP -->
<g id="edge31" class="edge"><title>PAMP&#45;&gt;TLR_PAMP</title>
<path fill="none" stroke="black" d="M745.44,-612.727C751.3,-597.977 760.071,-575.898 767.034,-558.371"/>
<polygon fill="black" stroke="black" points="770.45,-559.253 770.889,-548.667 763.945,-556.668 770.45,-559.253"/>
</g>
<!-- RELA -->
<g id="node31" class="node"><title>RELA</title>
<ellipse fill="none" stroke="black" cx="269" cy="-90" rx="18" ry="18"/>
<text text-anchor="middle" x="269" y="-88.8" font-family="Times,serif" font-size="4.00">RELA</text>
</g>
<!-- p50_p65 -->
<g id="node64" class="node"><title>p50_p65</title>
<ellipse fill="none" stroke="black" cx="296" cy="-18" rx="18" ry="18"/>
<text text-anchor="middle" x="296" y="-16.8" font-family="Times,serif" font-size="4.00">p50_p65</text>
</g>
<!-- RELA&#45;&gt;p50_p65 -->
<g id="edge32" class="edge"><title>RELA&#45;&gt;p50_p65</title>
<path fill="none" stroke="black" d="M275.262,-72.7646C278.5,-64.3715 282.525,-53.9344 286.166,-44.4952"/>
<polygon fill="black" stroke="black" points="289.438,-45.7369 289.772,-35.1473 282.907,-43.2178 289.438,-45.7369"/>
</g>
<!-- IRF9 -->
<g id="node32" class="node"><title>IRF9</title>
<ellipse fill="none" stroke="black" cx="1006" cy="-529.768" rx="18" ry="18"/>
<text text-anchor="middle" x="1006" y="-528.568" font-family="Times,serif" font-size="4.00">IRF9</text>
</g>
<!-- IRF9&#45;&gt;STAT1/2_IRF9 -->
<g id="edge33" class="edge"><title>IRF9&#45;&gt;STAT1/2_IRF9</title>
<path fill="none" stroke="black" d="M996.5,-514.094C988.696,-502.039 977.421,-484.623 967.928,-469.959"/>
<polygon fill="black" stroke="black" points="970.667,-467.75 962.295,-461.257 964.791,-471.554 970.667,-467.75"/>
</g>
<!-- SARS 3b_ 8b_ 8ab -->
<g id="node33" class="node"><title>SARS 3b_ 8b_ 8ab</title>
<ellipse fill="none" stroke="black" cx="464" cy="-268.035" rx="27.6545" ry="27.6545"/>
<text text-anchor="middle" x="464" y="-266.835" font-family="Times,serif" font-size="4.00">SARS 3b_ 8b_ 8ab</text>
</g>
<!-- SARS 3b_ 8b_ 8ab&#45;&gt;IRF3 -->
<g id="edge34" class="edge"><title>SARS 3b_ 8b_ 8ab&#45;&gt;IRF3</title>
<path fill="none" stroke="black" d="M482.117,-246.825C487.915,-240.771 494.517,-234.286 501,-228.79 520.919,-211.904 545.621,-195.233 563.433,-183.872"/>
<polygon fill="black" stroke="black" points="565.461,-186.731 572.058,-178.441 561.731,-180.808 565.461,-186.731"/>
</g>
<!-- RIG1_MDA5 -->
<g id="node34" class="node"><title>RIG1_MDA5</title>
<ellipse fill="none" stroke="black" cx="354" cy="-529.768" rx="21.9898" ry="21.9898"/>
<text text-anchor="middle" x="354" y="-528.568" font-family="Times,serif" font-size="4.00">RIG1_MDA5</text>
</g>
<!-- RIG1_MDA5&#45;&gt;MAVS -->
<g id="edge35" class="edge"><title>RIG1_MDA5&#45;&gt;MAVS</title>
<path fill="none" stroke="black" d="M357.555,-508.268C359.585,-496.559 362.155,-481.739 364.345,-469.11"/>
<polygon fill="black" stroke="black" points="367.815,-469.584 366.075,-459.133 360.918,-468.388 367.815,-469.584"/>
</g>
<!-- SARS p6 -->
<g id="node35" class="node"><title>SARS p6</title>
<ellipse fill="none" stroke="black" cx="1060" cy="-529.768" rx="18" ry="18"/>
<text text-anchor="middle" x="1060" y="-528.568" font-family="Times,serif" font-size="4.00">SARS p6</text>
</g>
<!-- SARS p6&#45;&gt;STAT1/2_IRF9 -->
<g id="edge36" class="edge"><title>SARS p6&#45;&gt;STAT1/2_IRF9</title>
<path fill="none" stroke="black" d="M1047.66,-516.494C1043.15,-512.181 1037.95,-507.384 1033,-503.252 1015.16,-488.365 994.048,-472.879 977.58,-461.237"/>
<polygon fill="black" stroke="black" points="979.157,-458.068 968.96,-455.193 975.139,-463.799 979.157,-458.068"/>
</g>
<!-- TLR_PAMP&#45;&gt;MYD88_TCAM1 -->
<g id="edge37" class="edge"><title>TLR_PAMP&#45;&gt;MYD88_TCAM1</title>
<path fill="none" stroke="black" d="M757.9,-527.184C710.856,-522.88 590.712,-508.39 500,-467.252 497.665,-466.193 495.333,-464.956 493.047,-463.611"/>
<polygon fill="black" stroke="black" points="494.826,-460.592 484.546,-458.024 490.981,-466.441 494.826,-460.592"/>
</g>
<!-- SARS N -->
<g id="node37" class="node"><title>SARS N</title>
<ellipse fill="none" stroke="black" cx="633" cy="-629.938" rx="18" ry="18"/>
<text text-anchor="middle" x="633" y="-628.738" font-family="Times,serif" font-size="4.00">SARS N</text>
</g>
<!-- SARS N&#45;&gt;IRF3 -->
<g id="edge39" class="edge"><title>SARS N&#45;&gt;IRF3</title>
<path fill="none" stroke="black" d="M645.285,-616.105C671.386,-587.43 730,-514.945 730,-442.265 730,-442.265 730,-442.265 730,-360.279 730,-299.57 730.565,-276.482 693,-228.79 672.67,-202.98 637.842,-186.591 613.682,-177.712"/>
<polygon fill="black" stroke="black" points="614.649,-174.343 604.054,-174.362 612.348,-180.954 614.649,-174.343"/>
</g>
<!-- SARS N&#45;&gt;RIG1_MDA5 -->
<g id="edge38" class="edge"><title>SARS N&#45;&gt;RIG1_MDA5</title>
<path fill="none" stroke="black" d="M616.612,-621.726C598.052,-613.752 566.772,-600.897 539,-592.285 471.865,-571.464 448.009,-587.437 385,-556.285 382.364,-554.981 379.755,-553.415 377.235,-551.707"/>
<polygon fill="black" stroke="black" points="379.186,-548.794 369.106,-545.534 374.953,-554.369 379.186,-548.794"/>
</g>
<!-- TRAF6&#45;&gt;IKK -->
<g id="edge41" class="edge"><title>TRAF6&#45;&gt;IKK</title>
<path fill="none" stroke="black" d="M424.411,-350.463C420.461,-347.981 416.133,-345.416 412,-343.279 374.827,-324.062 357.691,-333.403 325,-307.279 320.038,-303.314 315.589,-298.205 311.802,-293.02"/>
<polygon fill="black" stroke="black" points="314.531,-290.804 306.081,-284.413 308.702,-294.678 314.531,-290.804"/>
</g>
<!-- MAP3K7 -->
<g id="node41" class="node"><title>MAP3K7</title>
<ellipse fill="none" stroke="black" cx="528" cy="-268.035" rx="18" ry="18"/>
<text text-anchor="middle" x="528" y="-266.835" font-family="Times,serif" font-size="4.00">MAP3K7</text>
</g>
<!-- TRAF6&#45;&gt;MAP3K7 -->
<g id="edge40" class="edge"><title>TRAF6&#45;&gt;MAP3K7</title>
<path fill="none" stroke="black" d="M453.178,-349.81C466.351,-339.715 486.119,-323.606 501,-307.279 505.209,-302.661 509.325,-297.368 513.024,-292.222"/>
<polygon fill="black" stroke="black" points="516.005,-294.064 518.799,-283.844 510.242,-290.091 516.005,-294.064"/>
</g>
<!-- SARS PLPro -->
<g id="node39" class="node"><title>SARS PLPro</title>
<ellipse fill="none" stroke="black" cx="611" cy="-441.265" rx="20.8674" ry="20.8674"/>
<text text-anchor="middle" x="611" y="-440.065" font-family="Times,serif" font-size="4.00">SARS PLPro</text>
</g>
<!-- SARS PLPro&#45;&gt;IRF3 -->
<g id="edge45" class="edge"><title>SARS PLPro&#45;&gt;IRF3</title>
<path fill="none" stroke="black" d="M623.303,-424.606C650.131,-388.419 708.729,-296.889 673,-228.79 660.466,-204.902 633.485,-188.728 613.065,-179.364"/>
<polygon fill="black" stroke="black" points="614.228,-176.054 603.659,-175.311 611.457,-182.483 614.228,-176.054"/>
</g>
<!-- SARS PLPro&#45;&gt;TRAF6 -->
<g id="edge43" class="edge"><title>SARS PLPro&#45;&gt;TRAF6</title>
<path fill="none" stroke="black" d="M592.987,-430.728C583.786,-425.946 572.371,-420.152 562,-415.279 528.891,-399.724 490.022,-383.271 464.978,-372.899"/>
<polygon fill="black" stroke="black" points="466.044,-369.552 455.465,-368.976 463.376,-376.024 466.044,-369.552"/>
</g>
<!-- SARS PLPro&#45;&gt;TRAF3 -->
<g id="edge44" class="edge"><title>SARS PLPro&#45;&gt;TRAF3</title>
<path fill="none" stroke="black" d="M596.698,-426.323C583.956,-413.902 565.182,-395.601 550.963,-381.74"/>
<polygon fill="black" stroke="black" points="553.203,-379.035 543.599,-374.561 548.317,-384.048 553.203,-379.035"/>
</g>
<!-- SARS PLPro&#45;&gt;TAB1_IKBKE -->
<g id="edge42" class="edge"><title>SARS PLPro&#45;&gt;TAB1_IKBKE</title>
<path fill="none" stroke="black" d="M611.406,-420.491C611.631,-408.556 611.887,-393.045 612,-379.279 612.131,-363.28 614.587,-359.069 612,-343.279 609.547,-328.305 604.484,-312.283 599.552,-298.969"/>
<polygon fill="black" stroke="black" points="602.716,-297.447 595.851,-289.378 596.186,-299.967 602.716,-297.447"/>
</g>
<!-- TAB1 -->
<g id="node40" class="node"><title>TAB1</title>
<ellipse fill="none" stroke="black" cx="826" cy="-361.279" rx="18" ry="18"/>
<text text-anchor="middle" x="826" y="-360.079" font-family="Times,serif" font-size="4.00">TAB1</text>
</g>
<!-- TAB1&#45;&gt;MAPK8/14 -->
<g id="edge47" class="edge"><title>TAB1&#45;&gt;MAPK8/14</title>
<path fill="none" stroke="black" d="M836.922,-346.367C844.191,-336.184 853.097,-321.683 857,-307.279 866.124,-273.61 869.58,-261.327 857,-228.79 850.752,-212.631 837.839,-198.16 826.207,-187.548"/>
<polygon fill="black" stroke="black" points="828.309,-184.739 818.456,-180.845 823.73,-190.034 828.309,-184.739"/>
</g>
<!-- TAB1&#45;&gt;TAB1_IKBKE -->
<g id="edge46" class="edge"><title>TAB1&#45;&gt;TAB1_IKBKE</title>
<path fill="none" stroke="black" d="M807.935,-359.34C770.079,-356.625 680.826,-346.244 619,-307.279 614.056,-304.163 609.495,-300.032 605.458,-295.637"/>
<polygon fill="black" stroke="black" points="607.869,-293.062 598.788,-287.604 602.483,-297.533 607.869,-293.062"/>
</g>
<!-- MAP3K7&#45;&gt;MAPK8/14 -->
<g id="edge48" class="edge"><title>MAP3K7&#45;&gt;MAPK8/14</title>
<path fill="none" stroke="black" d="M535.478,-251.526C540.062,-243.594 546.657,-234.444 555,-228.79 623.29,-182.513 723.551,-172.136 773.066,-169.916"/>
<polygon fill="black" stroke="black" points="773.248,-173.411 783.113,-169.547 772.992,-166.416 773.248,-173.411"/>
</g>
<!-- MYD88_TCAM1&#45;&gt;RALBP1 -->
<g id="edge51" class="edge"><title>MYD88_TCAM1&#45;&gt;RALBP1</title>
<path fill="none" stroke="black" d="M448.424,-423.344C435.667,-411.061 418.384,-394.421 405.081,-381.613"/>
<polygon fill="black" stroke="black" points="407.405,-378.992 397.773,-374.577 402.55,-384.034 407.405,-378.992"/>
</g>
<!-- MYD88_TCAM1&#45;&gt;TRAF6 -->
<g id="edge49" class="edge"><title>MYD88_TCAM1&#45;&gt;TRAF6</title>
<path fill="none" stroke="black" d="M458.045,-417.289C454.892,-408.182 451.251,-397.665 448.002,-388.281"/>
<polygon fill="black" stroke="black" points="451.252,-386.968 444.672,-378.663 444.637,-389.258 451.252,-386.968"/>
</g>
<!-- MYD88_TCAM1&#45;&gt;TRAF3 -->
<g id="edge50" class="edge"><title>MYD88_TCAM1&#45;&gt;TRAF3</title>
<path fill="none" stroke="black" d="M481.735,-421.387C491.168,-410.07 503.195,-395.639 513.005,-383.869"/>
<polygon fill="black" stroke="black" points="515.973,-385.775 519.687,-375.852 510.596,-381.293 515.973,-385.775"/>
</g>
<!-- IFIH1 -->
<g id="node43" class="node"><title>IFIH1</title>
<ellipse fill="none" stroke="black" cx="458" cy="-629.938" rx="18" ry="18"/>
<text text-anchor="middle" x="458" y="-628.738" font-family="Times,serif" font-size="4.00">IFIH1</text>
</g>
<!-- IFIH1&#45;&gt;RIG1_MDA5 -->
<g id="edge52" class="edge"><title>IFIH1&#45;&gt;RIG1_MDA5</title>
<path fill="none" stroke="black" d="M448.586,-614.3C443.742,-607.285 437.498,-598.975 431,-592.285 412.912,-573.662 405.246,-572.535 385,-556.285 382.758,-554.485 380.433,-552.602 378.111,-550.711"/>
<polygon fill="black" stroke="black" points="380.302,-547.981 370.349,-544.351 375.866,-553.396 380.302,-547.981"/>
</g>
<!-- DDX58 -->
<g id="node44" class="node"><title>DDX58</title>
<ellipse fill="none" stroke="black" cx="512" cy="-629.938" rx="18" ry="18"/>
<text text-anchor="middle" x="512" y="-628.738" font-family="Times,serif" font-size="4.00">DDX58</text>
</g>
<!-- DDX58&#45;&gt;RIG1_MDA5 -->
<g id="edge53" class="edge"><title>DDX58&#45;&gt;RIG1_MDA5</title>
<path fill="none" stroke="black" d="M503.673,-613.696C499.011,-606.362 492.603,-597.954 485,-592.285 447.132,-564.047 426.06,-579.637 385,-556.285 382.501,-554.863 380.002,-553.237 377.568,-551.51"/>
<polygon fill="black" stroke="black" points="379.696,-548.731 369.64,-545.394 375.42,-554.273 379.696,-548.731"/>
</g>
<!-- MAVS&#45;&gt;RALBP1 -->
<g id="edge55" class="edge"><title>MAVS&#45;&gt;RALBP1</title>
<path fill="none" stroke="black" d="M372.472,-423.344C374.526,-413.328 377.175,-400.417 379.508,-389.048"/>
<polygon fill="black" stroke="black" points="382.954,-389.667 381.535,-379.168 376.097,-388.261 382.954,-389.667"/>
</g>
<!-- MAVS&#45;&gt;TAB1_IKBKE -->
<g id="edge54" class="edge"><title>MAVS&#45;&gt;TAB1_IKBKE</title>
<path fill="none" stroke="black" d="M361.016,-424.839C351.403,-403.861 338.792,-366.316 358,-343.279 415,-274.92 478.089,-352.075 555,-307.279 560.05,-304.338 564.661,-300.289 568.714,-295.921"/>
<polygon fill="black" stroke="black" points="571.691,-297.815 575.382,-287.884 566.303,-293.346 571.691,-297.815"/>
</g>
<!-- JUN -->
<g id="node46" class="node"><title>JUN</title>
<ellipse fill="none" stroke="black" cx="859" cy="-168.395" rx="18" ry="18"/>
<text text-anchor="middle" x="859" y="-167.195" font-family="Times,serif" font-size="4.00">JUN</text>
</g>
<!-- JUN&#45;&gt;AP&#45;1 -->
<g id="edge56" class="edge"><title>JUN&#45;&gt;AP&#45;1</title>
<path fill="none" stroke="black" d="M864.726,-151.194C868.27,-141.166 872.898,-128.072 876.932,-116.657"/>
<polygon fill="black" stroke="black" points="880.25,-117.773 880.282,-107.178 873.65,-115.44 880.25,-117.773"/>
</g>
<!-- IFNA1_IFNAR -->
<g id="node47" class="node"><title>IFNA1_IFNAR</title>
<ellipse fill="none" stroke="black" cx="1000" cy="-629.938" rx="23.1702" ry="23.1702"/>
<text text-anchor="middle" x="1000" y="-628.738" font-family="Times,serif" font-size="4.00">IFNA1_IFNAR</text>
</g>
<!-- IFNA1_IFNAR&#45;&gt;JAK1_TYK2 -->
<g id="edge57" class="edge"><title>IFNA1_IFNAR&#45;&gt;JAK1_TYK2</title>
<path fill="none" stroke="black" d="M989.64,-608.597C982.036,-593.668 971.643,-573.261 963.406,-557.089"/>
<polygon fill="black" stroke="black" points="966.5,-555.452 958.843,-548.13 960.262,-558.629 966.5,-555.452"/>
</g>
<!-- nsp 15 (SARS_ 229E_ MHV) -->
<g id="node48" class="node"><title>nsp 15 (SARS_ 229E_ MHV)</title>
<ellipse fill="none" stroke="black" cx="198" cy="-629.938" rx="37.8075" ry="37.8075"/>
<text text-anchor="middle" x="198" y="-628.738" font-family="Times,serif" font-size="4.00">nsp 15 (SARS_ 229E_ MHV)</text>
</g>
<!-- nsp 15 (SARS_ 229E_ MHV)&#45;&gt;OAS3 -->
<g id="edge60" class="edge"><title>nsp 15 (SARS_ 229E_ MHV)&#45;&gt;OAS3</title>
<path fill="none" stroke="black" d="M180.169,-596.521C172.678,-582.903 164.118,-567.342 157.207,-554.778"/>
<polygon fill="black" stroke="black" points="160.175,-552.911 152.288,-545.836 154.041,-556.285 160.175,-552.911"/>
</g>
<!-- nsp 15 (SARS_ 229E_ MHV)&#45;&gt;OAS2 -->
<g id="edge62" class="edge"><title>nsp 15 (SARS_ 229E_ MHV)&#45;&gt;OAS2</title>
<path fill="none" stroke="black" d="M198,-592.104C198,-580.878 198,-568.739 198,-558.246"/>
<polygon fill="black" stroke="black" points="201.5,-558.015 198,-548.015 194.5,-558.015 201.5,-558.015"/>
</g>
<!-- nsp 15 (SARS_ 229E_ MHV)&#45;&gt;OAS1 -->
<g id="edge59" class="edge"><title>nsp 15 (SARS_ 229E_ MHV)&#45;&gt;OAS1</title>
<path fill="none" stroke="black" d="M215.831,-596.521C223.322,-582.903 231.882,-567.342 238.793,-554.778"/>
<polygon fill="black" stroke="black" points="241.959,-556.285 243.712,-545.836 235.825,-552.911 241.959,-556.285"/>
</g>
<!-- nsp 15 (SARS_ 229E_ MHV)&#45;&gt;EIF2AK -->
<g id="edge58" class="edge"><title>nsp 15 (SARS_ 229E_ MHV)&#45;&gt;EIF2AK</title>
<path fill="none" stroke="black" d="M162.909,-615.957C130.766,-603.233 82.6109,-582.029 45,-556.285 42.5052,-554.577 40.0188,-552.639 37.6214,-550.613"/>
<polygon fill="black" stroke="black" points="39.6741,-547.747 29.9301,-543.587 34.9532,-552.916 39.6741,-547.747"/>
</g>
<!-- nsp 15 (SARS_ 229E_ MHV)&#45;&gt;RIG1_MDA5 -->
<g id="edge61" class="edge"><title>nsp 15 (SARS_ 229E_ MHV)&#45;&gt;RIG1_MDA5</title>
<path fill="none" stroke="black" d="M229.569,-609.072C258.205,-591.051 299.968,-564.77 327.064,-547.719"/>
<polygon fill="black" stroke="black" points="329.051,-550.603 335.651,-542.315 325.323,-544.679 329.051,-550.603"/>
</g>
<!-- MYD88 -->
<g id="node49" class="node"><title>MYD88</title>
<ellipse fill="none" stroke="black" cx="520" cy="-529.768" rx="18" ry="18"/>
<text text-anchor="middle" x="520" y="-528.568" font-family="Times,serif" font-size="4.00">MYD88</text>
</g>
<!-- MYD88&#45;&gt;MYD88_TCAM1 -->
<g id="edge63" class="edge"><title>MYD88&#45;&gt;MYD88_TCAM1</title>
<path fill="none" stroke="black" d="M510.84,-514.094C503.563,-502.438 493.158,-485.77 484.203,-471.424"/>
<polygon fill="black" stroke="black" points="487.12,-469.487 478.855,-462.858 481.182,-473.194 487.12,-469.487"/>
</g>
<!-- SARS E -->
<g id="node50" class="node"><title>SARS E</title>
<ellipse fill="none" stroke="black" cx="913" cy="-168.395" rx="18" ry="18"/>
<text text-anchor="middle" x="913" y="-167.195" font-family="Times,serif" font-size="4.00">SARS E</text>
</g>
<!-- SARS E&#45;&gt;AP&#45;1 -->
<g id="edge64" class="edge"><title>SARS E&#45;&gt;AP&#45;1</title>
<path fill="none" stroke="black" d="M907.274,-151.194C903.73,-141.166 899.102,-128.072 895.068,-116.657"/>
<polygon fill="black" stroke="black" points="898.35,-115.44 891.718,-107.178 891.75,-117.773 898.35,-115.44"/>
</g>
<!-- IFNAR -->
<g id="node51" class="node"><title>IFNAR</title>
<ellipse fill="none" stroke="black" cx="967" cy="-722.153" rx="18" ry="18"/>
<text text-anchor="middle" x="967" y="-720.953" font-family="Times,serif" font-size="4.00">IFNAR</text>
</g>
<!-- IFNAR&#45;&gt;IFNB1_IFNAR -->
<g id="edge65" class="edge"><title>IFNAR&#45;&gt;IFNB1_IFNAR</title>
<path fill="none" stroke="black" d="M961.279,-705.024C957.043,-693.082 951.14,-676.441 946.002,-661.955"/>
<polygon fill="black" stroke="black" points="949.239,-660.61 942.597,-652.355 942.641,-662.95 949.239,-660.61"/>
</g>
<!-- IFNAR&#45;&gt;IFNA1_IFNAR -->
<g id="edge66" class="edge"><title>IFNAR&#45;&gt;IFNA1_IFNAR</title>
<path fill="none" stroke="black" d="M972.9,-705.024C977.298,-693 983.439,-676.212 988.764,-661.656"/>
<polygon fill="black" stroke="black" points="992.139,-662.616 992.288,-652.022 985.565,-660.211 992.139,-662.616"/>
</g>
<!-- IFNA1 -->
<g id="node52" class="node"><title>IFNA1</title>
<ellipse fill="none" stroke="black" cx="1021" cy="-722.153" rx="18" ry="18"/>
<text text-anchor="middle" x="1021" y="-720.953" font-family="Times,serif" font-size="4.00">IFNA1</text>
</g>
<!-- IFNA1&#45;&gt;IFNA1_IFNAR -->
<g id="edge67" class="edge"><title>IFNA1&#45;&gt;IFNA1_IFNAR</title>
<path fill="none" stroke="black" d="M1017.05,-704.184C1014.33,-692.52 1010.65,-676.675 1007.39,-662.706"/>
<polygon fill="black" stroke="black" points="1010.8,-661.899 1005.12,-652.953 1003.98,-663.486 1010.8,-661.899"/>
</g>
<!-- Viral RNA&#45;&gt;RIG1_MDA5 -->
<g id="edge68" class="edge"><title>Viral RNA&#45;&gt;RIG1_MDA5</title>
<path fill="none" stroke="black" d="M343.507,-610.01C345.322,-596.298 347.817,-577.461 349.918,-561.593"/>
<polygon fill="black" stroke="black" points="353.388,-562.05 351.231,-551.678 346.449,-561.131 353.388,-562.05"/>
</g>
<!-- NFKB_NFKBIA&#45;&gt;NFKBIA -->
<g id="edge70" class="edge"><title>NFKB_NFKBIA&#45;&gt;NFKBIA</title>
<path fill="none" stroke="black" d="M251.604,-150.819C243.272,-140.638 233.684,-127.403 226.274,-115.971"/>
<polygon fill="black" stroke="black" points="229.121,-113.921 220.864,-107.282 223.178,-117.621 229.121,-113.921"/>
</g>
<!-- NFKB1 -->
<g id="node63" class="node"><title>NFKB1</title>
<ellipse fill="none" stroke="black" cx="323" cy="-90" rx="18" ry="18"/>
<text text-anchor="middle" x="323" y="-88.8" font-family="Times,serif" font-size="4.00">NFKB1</text>
</g>
<!-- NFKB_NFKBIA&#45;&gt;NFKB1 -->
<g id="edge69" class="edge"><title>NFKB_NFKBIA&#45;&gt;NFKB1</title>
<path fill="none" stroke="black" d="M278.175,-145.708C285.106,-134.708 294.533,-121.448 303.055,-110.736"/>
<polygon fill="black" stroke="black" points="305.955,-112.722 309.631,-102.785 300.561,-108.261 305.955,-112.722"/>
</g>
<!-- SARS nsp1_ S_ E_ N_ 3a_ 7a -->
<g id="node55" class="node"><title>SARS nsp1_ S_ E_ N_ 3a_ 7a</title>
<ellipse fill="none" stroke="black" cx="160" cy="-268.035" rx="39.4904" ry="39.4904"/>
<text text-anchor="middle" x="160" y="-266.835" font-family="Times,serif" font-size="4.00">SARS nsp1_ S_ E_ N_ 3a_ 7a</text>
</g>
<!-- SARS nsp1_ S_ E_ N_ 3a_ 7a&#45;&gt;NFKB_NFKBIA -->
<g id="edge71" class="edge"><title>SARS nsp1_ S_ E_ N_ 3a_ 7a&#45;&gt;NFKB_NFKBIA</title>
<path fill="none" stroke="black" d="M188.924,-241.126C205.943,-225.88 227.265,-206.78 243.628,-192.123"/>
<polygon fill="black" stroke="black" points="246.108,-194.601 251.221,-185.321 241.437,-189.387 246.108,-194.601"/>
</g>
<!-- TRAF3&#45;&gt;TAB1_IKBKE -->
<g id="edge72" class="edge"><title>TRAF3&#45;&gt;TAB1_IKBKE</title>
<path fill="none" stroke="black" d="M539.997,-345.619C548.136,-332.358 560.332,-312.487 570.26,-296.31"/>
<polygon fill="black" stroke="black" points="573.255,-298.122 575.503,-287.768 567.289,-294.46 573.255,-298.122"/>
</g>
<!-- TAB1_IKBKE&#45;&gt;IRF3 -->
<g id="edge73" class="edge"><title>TAB1_IKBKE&#45;&gt;IRF3</title>
<path fill="none" stroke="black" d="M587,-244.879C587,-230.662 587,-212.094 587,-196.931"/>
<polygon fill="black" stroke="black" points="590.5,-196.604 587,-186.604 583.5,-196.604 590.5,-196.604"/>
</g>
<!-- MERS 5 -->
<g id="node59" class="node"><title>MERS 5</title>
<ellipse fill="none" stroke="black" cx="646" cy="-268.035" rx="18" ry="18"/>
<text text-anchor="middle" x="646" y="-266.835" font-family="Times,serif" font-size="4.00">MERS 5</text>
</g>
<!-- MERS 5&#45;&gt;IRF3 -->
<g id="edge74" class="edge"><title>MERS 5&#45;&gt;IRF3</title>
<path fill="none" stroke="black" d="M637.039,-252.205C627.553,-236.506 612.44,-211.497 601.303,-193.066"/>
<polygon fill="black" stroke="black" points="604.213,-191.113 596.045,-184.364 598.221,-194.733 604.213,-191.113"/>
</g>
<!-- TYK2 -->
<g id="node60" class="node"><title>TYK2</title>
<ellipse fill="none" stroke="black" cx="1059" cy="-629.938" rx="18" ry="18"/>
<text text-anchor="middle" x="1059" y="-628.738" font-family="Times,serif" font-size="4.00">TYK2</text>
</g>
<!-- TYK2&#45;&gt;JAK1_TYK2 -->
<g id="edge75" class="edge"><title>TYK2&#45;&gt;JAK1_TYK2</title>
<path fill="none" stroke="black" d="M1049.78,-614.106C1044.98,-607.045 1038.72,-598.752 1032,-592.285 1011.48,-572.538 1001.51,-573.724 979,-556.285 976.714,-554.513 974.375,-552.615 972.066,-550.682"/>
<polygon fill="black" stroke="black" points="974.31,-547.995 964.451,-544.115 969.738,-553.296 974.31,-547.995"/>
</g>
<!-- FOS -->
<g id="node61" class="node"><title>FOS</title>
<ellipse fill="none" stroke="black" cx="967" cy="-168.395" rx="18" ry="18"/>
<text text-anchor="middle" x="967" y="-167.195" font-family="Times,serif" font-size="4.00">FOS</text>
</g>
<!-- FOS&#45;&gt;AP&#45;1 -->
<g id="edge76" class="edge"><title>FOS&#45;&gt;AP&#45;1</title>
<path fill="none" stroke="black" d="M954.344,-155.458C941.461,-143.308 921.294,-124.287 906.2,-110.051"/>
<polygon fill="black" stroke="black" points="908.511,-107.42 898.835,-103.105 903.708,-112.513 908.511,-107.42"/>
</g>
<!-- MERS PLPro -->
<g id="node62" class="node"><title>MERS PLPro</title>
<ellipse fill="none" stroke="black" cx="400" cy="-629.938" rx="21.9898" ry="21.9898"/>
<text text-anchor="middle" x="400" y="-628.738" font-family="Times,serif" font-size="4.00">MERS PLPro</text>
</g>
<!-- MERS PLPro&#45;&gt;RIG1_MDA5 -->
<g id="edge77" class="edge"><title>MERS PLPro&#45;&gt;RIG1_MDA5</title>
<path fill="none" stroke="black" d="M391.131,-610.01C384.322,-595.478 374.815,-575.189 367.125,-558.779"/>
<polygon fill="black" stroke="black" points="370.254,-557.208 362.842,-549.638 363.916,-560.178 370.254,-557.208"/>
</g>
<!-- NFKB1&#45;&gt;NFKB_NFKBIA -->
<g id="edge79" class="edge"><title>NFKB1&#45;&gt;NFKB_NFKBIA</title>
<path fill="none" stroke="black" d="M317.136,-107.282C311.017,-117.603 301.678,-131.15 292.762,-142.771"/>
<polygon fill="black" stroke="black" points="289.855,-140.804 286.396,-150.819 295.345,-145.147 289.855,-140.804"/>
</g>
<!-- NFKB1&#45;&gt;p50_p65 -->
<g id="edge78" class="edge"><title>NFKB1&#45;&gt;p50_p65</title>
<path fill="none" stroke="black" d="M316.738,-72.7646C313.5,-64.3715 309.475,-53.9344 305.834,-44.4952"/>
<polygon fill="black" stroke="black" points="309.093,-43.2178 302.228,-35.1473 302.562,-45.7369 309.093,-43.2178"/>
</g>
<!-- SARS M -->
<g id="node65" class="node"><title>SARS M</title>
<ellipse fill="none" stroke="black" cx="285" cy="-629.938" rx="18" ry="18"/>
<text text-anchor="middle" x="285" y="-628.738" font-family="Times,serif" font-size="4.00">SARS M</text>
</g>
<!-- SARS M&#45;&gt;IKK -->
<g id="edge80" class="edge"><title>SARS M&#45;&gt;IKK</title>
<path fill="none" stroke="black" d="M285.627,-611.579C287.716,-553.734 294.454,-367.212 297.007,-296.531"/>
<polygon fill="black" stroke="black" points="300.516,-296.339 297.379,-286.219 293.52,-296.087 300.516,-296.339"/>
</g>
<!-- SARS M&#45;&gt;RIG1_MDA5 -->
<g id="edge81" class="edge"><title>SARS M&#45;&gt;RIG1_MDA5</title>
<path fill="none" stroke="black" d="M294.886,-614.873C305.566,-599.677 322.813,-575.139 335.928,-556.48"/>
<polygon fill="black" stroke="black" points="338.919,-558.312 341.806,-548.118 333.192,-554.286 338.919,-558.312"/>
</g>
</g>
</svg>
