<?xml version="1.0" encoding="UTF-8" standalone="no"?>
<!DOCTYPE svg PUBLIC "-//W3C//DTD SVG 1.1//EN"
 "http://www.w3.org/Graphics/SVG/1.1/DTD/svg11.dtd">
<!-- Generated by graphviz version 2.38.0 (20140413.2041)
 -->
<!-- Title: G Pages: 1 -->
<svg width="577pt" height="902pt"
 viewBox="0.00 0.00 577.00 901.64" xmlns="http://www.w3.org/2000/svg" xmlns:xlink="http://www.w3.org/1999/xlink">
<g id="graph0" class="graph" transform="scale(1 1) rotate(0) translate(4 897.641)">
<title>G</title>
<polygon fill="white" stroke="none" points="-4,4 -4,-897.641 573,-897.641 573,4 -4,4"/>
<!-- MAP2K7 -->
<g id="node1" class="node"><title>MAP2K7</title>
<ellipse fill="none" stroke="black" cx="94.5" cy="-862.882" rx="18" ry="18"/>
<text text-anchor="middle" x="94.5" y="-861.682" font-family="Times,serif" font-size="4.00">MAP2K7</text>
</g>
<!-- pr_f0d2496f&#45;3430&#45;400a&#45;8cc9&#45;054375694a4d -->
<g id="node2" class="node"><title>pr_f0d2496f&#45;3430&#45;400a&#45;8cc9&#45;054375694a4d</title>
<polygon fill="none" stroke="black" points="144,-796.123 45,-796.123 45,-697.123 144,-697.123 144,-796.123"/>
<text text-anchor="middle" x="94.5" y="-745.423" font-family="Times,serif" font-size="4.00">pr_f0d2496f&#45;3430&#45;400a&#45;8cc9&#45;054375694a4d</text>
</g>
<!-- MAP2K7&#45;&gt;pr_f0d2496f&#45;3430&#45;400a&#45;8cc9&#45;054375694a4d -->
<g id="edge1" class="edge"><title>MAP2K7&#45;&gt;pr_f0d2496f&#45;3430&#45;400a&#45;8cc9&#45;054375694a4d</title>
<path fill="none" stroke="black" d="M89.5994,-845.512C88.4207,-835.134 87.8054,-821.012 87.7536,-806.725"/>
<polygon fill="black" stroke="black" points="91.2557,-806.365 87.8154,-796.345 84.2558,-806.324 91.2557,-806.365"/>
</g>
<!-- pr_bcefe1ab&#45;9c50&#45;4895&#45;a2a1&#45;29e499b5595a -->
<g id="node20" class="node"><title>pr_bcefe1ab&#45;9c50&#45;4895&#45;a2a1&#45;29e499b5595a</title>
<polygon fill="none" stroke="black" points="366.5,-381 266.5,-381 266.5,-281 366.5,-281 366.5,-381"/>
<text text-anchor="middle" x="316.5" y="-329.8" font-family="Times,serif" font-size="4.00">pr_bcefe1ab&#45;9c50&#45;4895&#45;a2a1&#45;29e499b5595a</text>
</g>
<!-- MAP2K7&#45;&gt;pr_bcefe1ab&#45;9c50&#45;4895&#45;a2a1&#45;29e499b5595a -->
<g id="edge2" class="edge"><title>MAP2K7&#45;&gt;pr_bcefe1ab&#45;9c50&#45;4895&#45;a2a1&#45;29e499b5595a</title>
<path fill="none" stroke="black" d="M80.6451,-850.941C66.6935,-839.061 45.8038,-818.734 35.5,-796.123 7.16556,-733.946 16.5,-711.89 16.5,-643.562 16.5,-643.562 16.5,-643.562 16.5,-537.5 16.5,-422.306 168.91,-366.924 256.465,-344.612"/>
<polygon fill="black" stroke="black" points="257.422,-347.981 266.287,-342.178 255.738,-341.186 257.422,-347.981"/>
</g>
<!-- pr_f0d2496f&#45;3430&#45;400a&#45;8cc9&#45;054375694a4d&#45;&gt;MAP2K7 -->
<g id="edge3" class="edge"><title>pr_f0d2496f&#45;3430&#45;400a&#45;8cc9&#45;054375694a4d&#45;&gt;MAP2K7</title>
<path fill="none" stroke="black" d="M101.185,-796.345C101.393,-809.676 101.102,-823.631 100.312,-835.222"/>
<polygon fill="black" stroke="black" points="96.7963,-835.242 99.4006,-845.512 103.769,-835.859 96.7963,-835.242"/>
</g>
<!-- MLK1/2/3 -->
<g id="node3" class="node"><title>MLK1/2/3</title>
<ellipse fill="none" stroke="black" cx="211.5" cy="-862.882" rx="18.6233" ry="18.6233"/>
<text text-anchor="middle" x="211.5" y="-861.682" font-family="Times,serif" font-size="4.00">MLK1/2/3</text>
</g>
<!-- MLK1/2/3&#45;&gt;pr_f0d2496f&#45;3430&#45;400a&#45;8cc9&#45;054375694a4d -->
<g id="edge4" class="edge"><title>MLK1/2/3&#45;&gt;pr_f0d2496f&#45;3430&#45;400a&#45;8cc9&#45;054375694a4d</title>
<path fill="none" stroke="black" d="M198.532,-849.218C186.975,-837.931 169.213,-820.585 151.617,-803.402"/>
<polygon fill="black" stroke="black" points="153.705,-800.549 144.105,-796.066 148.814,-805.557 153.705,-800.549"/>
</g>
<!-- pr_af3042a4&#45;0e88&#45;4e6b&#45;a8a7&#45;147c49f8b630 -->
<g id="node5" class="node"><title>pr_af3042a4&#45;0e88&#45;4e6b&#45;a8a7&#45;147c49f8b630</title>
<polygon fill="none" stroke="black" points="261,-796.123 162,-796.123 162,-697.123 261,-697.123 261,-796.123"/>
<text text-anchor="middle" x="211.5" y="-745.423" font-family="Times,serif" font-size="4.00">pr_af3042a4&#45;0e88&#45;4e6b&#45;a8a7&#45;147c49f8b630</text>
</g>
<!-- MLK1/2/3&#45;&gt;pr_af3042a4&#45;0e88&#45;4e6b&#45;a8a7&#45;147c49f8b630 -->
<g id="edge5" class="edge"><title>MLK1/2/3&#45;&gt;pr_af3042a4&#45;0e88&#45;4e6b&#45;a8a7&#45;147c49f8b630</title>
<path fill="none" stroke="black" d="M206.491,-844.529C205.375,-834.18 204.796,-820.375 204.753,-806.436"/>
<polygon fill="black" stroke="black" points="208.253,-806.331 204.816,-796.31 201.253,-806.288 208.253,-806.331"/>
</g>
<!-- SARS&#45;CoV&#45;1 proteins -->
<g id="node4" class="node"><title>SARS&#45;CoV&#45;1 proteins</title>
<ellipse fill="none" stroke="black" cx="283.5" cy="-862.882" rx="30.5202" ry="30.5202"/>
<text text-anchor="middle" x="283.5" y="-861.682" font-family="Times,serif" font-size="4.00">SARS&#45;CoV&#45;1 proteins</text>
</g>
<!-- SARS&#45;CoV&#45;1 proteins&#45;&gt;pr_f0d2496f&#45;3430&#45;400a&#45;8cc9&#45;054375694a4d -->
<g id="edge6" class="edge"><title>SARS&#45;CoV&#45;1 proteins&#45;&gt;pr_f0d2496f&#45;3430&#45;400a&#45;8cc9&#45;054375694a4d</title>
<path fill="none" stroke="black" d="M258.918,-843.981C252.731,-839.835 245.997,-835.618 239.5,-832.123 202.647,-812.3 188.297,-817.795 152.5,-796.123 152.412,-796.07 152.325,-796.017 152.237,-795.963"/>
<polygon fill="black" stroke="black" points="154.385,-793.185 144.092,-790.675 150.573,-799.056 154.385,-793.185"/>
</g>
<!-- SARS&#45;CoV&#45;1 proteins&#45;&gt;pr_af3042a4&#45;0e88&#45;4e6b&#45;a8a7&#45;147c49f8b630 -->
<g id="edge7" class="edge"><title>SARS&#45;CoV&#45;1 proteins&#45;&gt;pr_af3042a4&#45;0e88&#45;4e6b&#45;a8a7&#45;147c49f8b630</title>
<path fill="none" stroke="black" d="M267.521,-836.524C261.578,-827.094 254.569,-815.97 247.556,-804.842"/>
<polygon fill="black" stroke="black" points="250.503,-802.953 242.211,-796.359 244.581,-806.685 250.503,-802.953"/>
</g>
<!-- pr_78fabda1&#45;edec&#45;4c00&#45;aeea&#45;c0f985658c75 -->
<g id="node17" class="node"><title>pr_78fabda1&#45;edec&#45;4c00&#45;aeea&#45;c0f985658c75</title>
<polygon fill="none" stroke="black" points="417,-796.123 318,-796.123 318,-697.123 417,-697.123 417,-796.123"/>
<text text-anchor="middle" x="367.5" y="-745.423" font-family="Times,serif" font-size="4.00">pr_78fabda1&#45;edec&#45;4c00&#45;aeea&#45;c0f985658c75</text>
</g>
<!-- SARS&#45;CoV&#45;1 proteins&#45;&gt;pr_78fabda1&#45;edec&#45;4c00&#45;aeea&#45;c0f985658c75 -->
<g id="edge8" class="edge"><title>SARS&#45;CoV&#45;1 proteins&#45;&gt;pr_78fabda1&#45;edec&#45;4c00&#45;aeea&#45;c0f985658c75</title>
<path fill="none" stroke="black" d="M301.314,-837.651C308.514,-827.857 317.152,-816.108 325.775,-804.379"/>
<polygon fill="black" stroke="black" points="328.621,-806.417 331.724,-796.286 322.981,-802.27 328.621,-806.417"/>
</g>
<!-- pr_14fac67a&#45;e8da&#45;4436&#45;ae13&#45;dee3d65a2fe7 -->
<g id="node19" class="node"><title>pr_14fac67a&#45;e8da&#45;4436&#45;ae13&#45;dee3d65a2fe7</title>
<polygon fill="none" stroke="black" points="339,-588 240,-588 240,-489 339,-489 339,-588"/>
<text text-anchor="middle" x="289.5" y="-537.3" font-family="Times,serif" font-size="4.00">pr_14fac67a&#45;e8da&#45;4436&#45;ae13&#45;dee3d65a2fe7</text>
</g>
<!-- SARS&#45;CoV&#45;1 proteins&#45;&gt;pr_14fac67a&#45;e8da&#45;4436&#45;ae13&#45;dee3d65a2fe7 -->
<g id="edge9" class="edge"><title>SARS&#45;CoV&#45;1 proteins&#45;&gt;pr_14fac67a&#45;e8da&#45;4436&#45;ae13&#45;dee3d65a2fe7</title>
<path fill="none" stroke="black" d="M284.059,-831.843C285.048,-778.69 287.124,-667.19 288.406,-598.29"/>
<polygon fill="black" stroke="black" points="291.91,-598.093 288.597,-588.029 284.911,-597.962 291.91,-598.093"/>
</g>
<!-- pr_af3042a4&#45;0e88&#45;4e6b&#45;a8a7&#45;147c49f8b630&#45;&gt;MLK1/2/3 -->
<g id="edge10" class="edge"><title>pr_af3042a4&#45;0e88&#45;4e6b&#45;a8a7&#45;147c49f8b630&#45;&gt;MLK1/2/3</title>
<path fill="none" stroke="black" d="M218.184,-796.31C218.389,-809.314 218.117,-822.914 217.371,-834.336"/>
<polygon fill="black" stroke="black" points="213.864,-834.269 216.509,-844.529 220.839,-834.859 213.864,-834.269"/>
</g>
<!-- ATF2 -->
<g id="node6" class="node"><title>ATF2</title>
<ellipse fill="none" stroke="black" cx="49.5" cy="-18" rx="18" ry="18"/>
<text text-anchor="middle" x="49.5" y="-16.8" font-family="Times,serif" font-size="4.00">ATF2</text>
</g>
<!-- pr_b9194210&#45;3a3a&#45;476b&#45;8608&#45;c70b2f2fe596 -->
<g id="node7" class="node"><title>pr_b9194210&#45;3a3a&#45;476b&#45;8608&#45;c70b2f2fe596</title>
<polygon fill="none" stroke="black" points="99,-172 0,-172 0,-73 99,-73 99,-172"/>
<text text-anchor="middle" x="49.5" y="-121.3" font-family="Times,serif" font-size="4.00">pr_b9194210&#45;3a3a&#45;476b&#45;8608&#45;c70b2f2fe596</text>
</g>
<!-- ATF2&#45;&gt;pr_b9194210&#45;3a3a&#45;476b&#45;8608&#45;c70b2f2fe596 -->
<g id="edge11" class="edge"><title>ATF2&#45;&gt;pr_b9194210&#45;3a3a&#45;476b&#45;8608&#45;c70b2f2fe596</title>
<path fill="none" stroke="black" d="M54.626,-35.5663C55.4962,-43.2382 56.0167,-52.8638 56.1875,-62.8729"/>
<polygon fill="black" stroke="black" points="52.6878,-62.9705 56.2417,-72.9515 59.6877,-62.9328 52.6878,-62.9705"/>
</g>
<!-- pr_b9194210&#45;3a3a&#45;476b&#45;8608&#45;c70b2f2fe596&#45;&gt;ATF2 -->
<g id="edge12" class="edge"><title>pr_b9194210&#45;3a3a&#45;476b&#45;8608&#45;c70b2f2fe596&#45;&gt;ATF2</title>
<path fill="none" stroke="black" d="M42.7583,-72.9515C42.7005,-63.5971 42.9433,-54.1224 43.4866,-45.7785"/>
<polygon fill="black" stroke="black" points="46.9951,-45.8318 44.374,-35.5663 40.0214,-45.2257 46.9951,-45.8318"/>
</g>
<!-- JNK -->
<g id="node8" class="node"><title>JNK</title>
<ellipse fill="none" stroke="black" cx="316.5" cy="-227" rx="18" ry="18"/>
<text text-anchor="middle" x="316.5" y="-225.8" font-family="Times,serif" font-size="4.00">JNK</text>
</g>
<!-- JNK&#45;&gt;pr_b9194210&#45;3a3a&#45;476b&#45;8608&#45;c70b2f2fe596 -->
<g id="edge13" class="edge"><title>JNK&#45;&gt;pr_b9194210&#45;3a3a&#45;476b&#45;8608&#45;c70b2f2fe596</title>
<path fill="none" stroke="black" d="M298.574,-224.156C261.338,-219.757 173.66,-206.409 108.5,-173 108.403,-172.95 108.307,-172.901 108.21,-172.851"/>
<polygon fill="black" stroke="black" points="109.721,-169.682 99.3069,-167.731 106.231,-175.75 109.721,-169.682"/>
</g>
<!-- pr_5dbe661b&#45;eb25&#45;4266&#45;b360&#45;a42fdf2bf8af -->
<g id="node10" class="node"><title>pr_5dbe661b&#45;eb25&#45;4266&#45;b360&#45;a42fdf2bf8af</title>
<polygon fill="none" stroke="black" points="215.5,-171.5 117.5,-171.5 117.5,-73.5 215.5,-73.5 215.5,-171.5"/>
<text text-anchor="middle" x="166.5" y="-121.3" font-family="Times,serif" font-size="4.00">pr_5dbe661b&#45;eb25&#45;4266&#45;b360&#45;a42fdf2bf8af</text>
</g>
<!-- JNK&#45;&gt;pr_5dbe661b&#45;eb25&#45;4266&#45;b360&#45;a42fdf2bf8af -->
<g id="edge14" class="edge"><title>JNK&#45;&gt;pr_5dbe661b&#45;eb25&#45;4266&#45;b360&#45;a42fdf2bf8af</title>
<path fill="none" stroke="black" d="M300.664,-218.021C281.893,-208.307 249.952,-190.962 224.5,-173 224.317,-172.871 224.135,-172.742 223.952,-172.612"/>
<polygon fill="black" stroke="black" points="225.815,-169.637 215.69,-166.517 221.659,-175.27 225.815,-169.637"/>
</g>
<!-- pr_76833d4a&#45;9899&#45;445e&#45;b0e2&#45;a58b47190613 -->
<g id="node12" class="node"><title>pr_76833d4a&#45;9899&#45;445e&#45;b0e2&#45;a58b47190613</title>
<polygon fill="none" stroke="black" points="335,-173 234,-173 234,-72 335,-72 335,-173"/>
<text text-anchor="middle" x="284.5" y="-121.3" font-family="Times,serif" font-size="4.00">pr_76833d4a&#45;9899&#45;445e&#45;b0e2&#45;a58b47190613</text>
</g>
<!-- JNK&#45;&gt;pr_76833d4a&#45;9899&#45;445e&#45;b0e2&#45;a58b47190613 -->
<g id="edge15" class="edge"><title>JNK&#45;&gt;pr_76833d4a&#45;9899&#45;445e&#45;b0e2&#45;a58b47190613</title>
<path fill="none" stroke="black" d="M311.359,-209.532C309.027,-202.062 306.112,-192.725 303.07,-182.981"/>
<polygon fill="black" stroke="black" points="306.323,-181.657 300.002,-173.155 299.641,-183.744 306.323,-181.657"/>
</g>
<!-- pr_398c39d8&#45;a36a&#45;4669&#45;af1f&#45;77010d63be73 -->
<g id="node14" class="node"><title>pr_398c39d8&#45;a36a&#45;4669&#45;af1f&#45;77010d63be73</title>
<polygon fill="none" stroke="black" points="569,-172 470,-172 470,-73 569,-73 569,-172"/>
<text text-anchor="middle" x="519.5" y="-121.3" font-family="Times,serif" font-size="4.00">pr_398c39d8&#45;a36a&#45;4669&#45;af1f&#45;77010d63be73</text>
</g>
<!-- JNK&#45;&gt;pr_398c39d8&#45;a36a&#45;4669&#45;af1f&#45;77010d63be73 -->
<g id="edge16" class="edge"><title>JNK&#45;&gt;pr_398c39d8&#45;a36a&#45;4669&#45;af1f&#45;77010d63be73</title>
<path fill="none" stroke="black" d="M333.431,-220.651C363.762,-210.943 426.792,-190.178 460.894,-172.67"/>
<polygon fill="black" stroke="black" points="462.618,-175.715 469.694,-167.829 459.245,-169.582 462.618,-175.715"/>
</g>
<!-- JNK&#45;&gt;pr_bcefe1ab&#45;9c50&#45;4895&#45;a2a1&#45;29e499b5595a -->
<g id="edge17" class="edge"><title>JNK&#45;&gt;pr_bcefe1ab&#45;9c50&#45;4895&#45;a2a1&#45;29e499b5595a</title>
<path fill="none" stroke="black" d="M321.641,-244.615C322.475,-251.991 322.985,-261.162 323.171,-270.733"/>
<polygon fill="black" stroke="black" points="319.671,-270.819 323.246,-280.793 326.671,-270.767 319.671,-270.819"/>
</g>
<!-- pr_1aa812de&#45;f5a5&#45;40df&#45;8cc4&#45;996d1273e480 -->
<g id="node23" class="node"><title>pr_1aa812de&#45;f5a5&#45;40df&#45;8cc4&#45;996d1273e480</title>
<polygon fill="none" stroke="black" points="452,-172 353,-172 353,-73 452,-73 452,-172"/>
<text text-anchor="middle" x="402.5" y="-121.3" font-family="Times,serif" font-size="4.00">pr_1aa812de&#45;f5a5&#45;40df&#45;8cc4&#45;996d1273e480</text>
</g>
<!-- JNK&#45;&gt;pr_1aa812de&#45;f5a5&#45;40df&#45;8cc4&#45;996d1273e480 -->
<g id="edge18" class="edge"><title>JNK&#45;&gt;pr_1aa812de&#45;f5a5&#45;40df&#45;8cc4&#45;996d1273e480</title>
<path fill="none" stroke="black" d="M324.552,-210.432C330.571,-202.06 339.142,-191.165 348.431,-179.934"/>
<polygon fill="black" stroke="black" points="351.225,-182.05 354.954,-172.133 345.854,-177.56 351.225,-182.05"/>
</g>
<!-- TP53 -->
<g id="node9" class="node"><title>TP53</title>
<ellipse fill="none" stroke="black" cx="166.5" cy="-18" rx="18" ry="18"/>
<text text-anchor="middle" x="166.5" y="-16.8" font-family="Times,serif" font-size="4.00">TP53</text>
</g>
<!-- TP53&#45;&gt;pr_5dbe661b&#45;eb25&#45;4266&#45;b360&#45;a42fdf2bf8af -->
<g id="edge19" class="edge"><title>TP53&#45;&gt;pr_5dbe661b&#45;eb25&#45;4266&#45;b360&#45;a42fdf2bf8af</title>
<path fill="none" stroke="black" d="M171.639,-35.6787C172.509,-43.3986 173.026,-53.0794 173.192,-63.1327"/>
<polygon fill="black" stroke="black" points="169.692,-63.2681 173.24,-73.2514 176.692,-63.2349 169.692,-63.2681"/>
</g>
<!-- pr_5dbe661b&#45;eb25&#45;4266&#45;b360&#45;a42fdf2bf8af&#45;&gt;TP53 -->
<g id="edge20" class="edge"><title>pr_5dbe661b&#45;eb25&#45;4266&#45;b360&#45;a42fdf2bf8af&#45;&gt;TP53</title>
<path fill="none" stroke="black" d="M159.76,-73.2514C159.695,-63.759 159.94,-54.1287 160.494,-45.6693"/>
<polygon fill="black" stroke="black" points="163.983,-45.944 161.361,-35.6787 157.009,-45.3383 163.983,-45.944"/>
</g>
<!-- BCL2 -->
<g id="node11" class="node"><title>BCL2</title>
<ellipse fill="none" stroke="black" cx="284.5" cy="-18" rx="18" ry="18"/>
<text text-anchor="middle" x="284.5" y="-16.8" font-family="Times,serif" font-size="4.00">BCL2</text>
</g>
<!-- BCL2&#45;&gt;pr_76833d4a&#45;9899&#45;445e&#45;b0e2&#45;a58b47190613 -->
<g id="edge21" class="edge"><title>BCL2&#45;&gt;pr_76833d4a&#45;9899&#45;445e&#45;b0e2&#45;a58b47190613</title>
<path fill="none" stroke="black" d="M289.628,-35.5823C290.462,-42.9473 290.975,-52.1105 291.165,-61.6841"/>
<polygon fill="black" stroke="black" points="287.666,-61.7801 291.247,-71.7513 294.666,-61.7231 287.666,-61.7801"/>
</g>
<!-- pr_76833d4a&#45;9899&#45;445e&#45;b0e2&#45;a58b47190613&#45;&gt;BCL2 -->
<g id="edge22" class="edge"><title>pr_76833d4a&#45;9899&#45;445e&#45;b0e2&#45;a58b47190613&#45;&gt;BCL2</title>
<path fill="none" stroke="black" d="M277.753,-71.7513C277.722,-62.7741 277.967,-53.7354 278.489,-45.7383"/>
<polygon fill="black" stroke="black" points="281.993,-45.8479 279.372,-35.5823 275.019,-45.2415 281.993,-45.8479"/>
</g>
<!-- AP&#45;1 -->
<g id="node13" class="node"><title>AP&#45;1</title>
<ellipse fill="none" stroke="black" cx="519.5" cy="-18" rx="18" ry="18"/>
<text text-anchor="middle" x="519.5" y="-16.8" font-family="Times,serif" font-size="4.00">AP&#45;1</text>
</g>
<!-- AP&#45;1&#45;&gt;pr_398c39d8&#45;a36a&#45;4669&#45;af1f&#45;77010d63be73 -->
<g id="edge23" class="edge"><title>AP&#45;1&#45;&gt;pr_398c39d8&#45;a36a&#45;4669&#45;af1f&#45;77010d63be73</title>
<path fill="none" stroke="black" d="M524.626,-35.5663C525.496,-43.2382 526.017,-52.8638 526.187,-62.8729"/>
<polygon fill="black" stroke="black" points="522.688,-62.9705 526.242,-72.9515 529.688,-62.9328 522.688,-62.9705"/>
</g>
<!-- pr_398c39d8&#45;a36a&#45;4669&#45;af1f&#45;77010d63be73&#45;&gt;AP&#45;1 -->
<g id="edge24" class="edge"><title>pr_398c39d8&#45;a36a&#45;4669&#45;af1f&#45;77010d63be73&#45;&gt;AP&#45;1</title>
<path fill="none" stroke="black" d="M512.758,-72.9515C512.701,-63.5971 512.943,-54.1224 513.487,-45.7785"/>
<polygon fill="black" stroke="black" points="516.995,-45.8318 514.374,-35.5663 510.021,-45.2257 516.995,-45.8318"/>
</g>
<!-- 3b -->
<g id="node15" class="node"><title>3b</title>
<ellipse fill="none" stroke="black" cx="519.5" cy="-227" rx="18" ry="18"/>
<text text-anchor="middle" x="519.5" y="-225.8" font-family="Times,serif" font-size="4.00">3b</text>
</g>
<!-- 3b&#45;&gt;pr_398c39d8&#45;a36a&#45;4669&#45;af1f&#45;77010d63be73 -->
<g id="edge25" class="edge"><title>3b&#45;&gt;pr_398c39d8&#45;a36a&#45;4669&#45;af1f&#45;77010d63be73</title>
<path fill="none" stroke="black" d="M519.5,-208.612C519.5,-201.151 519.5,-191.958 519.5,-182.401"/>
<polygon fill="black" stroke="black" points="523,-182.367 519.5,-172.367 516,-182.367 523,-182.367"/>
</g>
<!-- MEKK1/4 -->
<g id="node16" class="node"><title>MEKK1/4</title>
<ellipse fill="none" stroke="black" cx="367.5" cy="-642.562" rx="18.6233" ry="18.6233"/>
<text text-anchor="middle" x="367.5" y="-641.362" font-family="Times,serif" font-size="4.00">MEKK1/4</text>
</g>
<!-- MEKK1/4&#45;&gt;pr_78fabda1&#45;edec&#45;4c00&#45;aeea&#45;c0f985658c75 -->
<g id="edge26" class="edge"><title>MEKK1/4&#45;&gt;pr_78fabda1&#45;edec&#45;4c00&#45;aeea&#45;c0f985658c75</title>
<path fill="none" stroke="black" d="M372.666,-660.415C373.5,-667.889 374.005,-677.172 374.18,-686.836"/>
<polygon fill="black" stroke="black" points="370.681,-687.006 374.243,-696.984 377.681,-686.962 370.681,-687.006"/>
</g>
<!-- MEKK1/4&#45;&gt;pr_14fac67a&#45;e8da&#45;4436&#45;ae13&#45;dee3d65a2fe7 -->
<g id="edge27" class="edge"><title>MEKK1/4&#45;&gt;pr_14fac67a&#45;e8da&#45;4436&#45;ae13&#45;dee3d65a2fe7</title>
<path fill="none" stroke="black" d="M356.654,-627.37C350.26,-619.004 341.704,-607.808 332.845,-596.217"/>
<polygon fill="black" stroke="black" points="335.54,-593.978 326.687,-588.158 329.978,-598.229 335.54,-593.978"/>
</g>
<!-- pr_78fabda1&#45;edec&#45;4c00&#45;aeea&#45;c0f985658c75&#45;&gt;MEKK1/4 -->
<g id="edge28" class="edge"><title>pr_78fabda1&#45;edec&#45;4c00&#45;aeea&#45;c0f985658c75&#45;&gt;MEKK1/4</title>
<path fill="none" stroke="black" d="M360.757,-696.984C360.706,-687.845 360.945,-678.603 361.473,-670.435"/>
<polygon fill="black" stroke="black" points="364.965,-670.678 362.334,-660.415 357.991,-670.079 364.965,-670.678"/>
</g>
<!-- MAP2K4 -->
<g id="node18" class="node"><title>MAP2K4</title>
<ellipse fill="none" stroke="black" cx="289.5" cy="-435" rx="18" ry="18"/>
<text text-anchor="middle" x="289.5" y="-433.8" font-family="Times,serif" font-size="4.00">MAP2K4</text>
</g>
<!-- MAP2K4&#45;&gt;pr_14fac67a&#45;e8da&#45;4436&#45;ae13&#45;dee3d65a2fe7 -->
<g id="edge29" class="edge"><title>MAP2K4&#45;&gt;pr_14fac67a&#45;e8da&#45;4436&#45;ae13&#45;dee3d65a2fe7</title>
<path fill="none" stroke="black" d="M294.654,-452.647C295.488,-460.033 295.995,-469.213 296.175,-478.78"/>
<polygon fill="black" stroke="black" points="292.676,-478.855 296.245,-488.831 299.676,-478.807 292.676,-478.855"/>
</g>
<!-- MAP2K4&#45;&gt;pr_bcefe1ab&#45;9c50&#45;4895&#45;a2a1&#45;29e499b5595a -->
<g id="edge30" class="edge"><title>MAP2K4&#45;&gt;pr_bcefe1ab&#45;9c50&#45;4895&#45;a2a1&#45;29e499b5595a</title>
<path fill="none" stroke="black" d="M293.959,-417.157C295.936,-409.688 298.392,-400.41 300.948,-390.752"/>
<polygon fill="black" stroke="black" points="304.348,-391.583 303.524,-381.021 297.581,-389.792 304.348,-391.583"/>
</g>
<!-- pr_14fac67a&#45;e8da&#45;4436&#45;ae13&#45;dee3d65a2fe7&#45;&gt;MAP2K4 -->
<g id="edge31" class="edge"><title>pr_14fac67a&#45;e8da&#45;4436&#45;ae13&#45;dee3d65a2fe7&#45;&gt;MAP2K4</title>
<path fill="none" stroke="black" d="M282.755,-488.831C282.712,-479.877 282.949,-470.836 283.467,-462.826"/>
<polygon fill="black" stroke="black" points="286.972,-462.911 284.346,-452.647 279.998,-462.308 286.972,-462.911"/>
</g>
<!-- pr_bcefe1ab&#45;9c50&#45;4895&#45;a2a1&#45;29e499b5595a&#45;&gt;JNK -->
<g id="edge32" class="edge"><title>pr_bcefe1ab&#45;9c50&#45;4895&#45;a2a1&#45;29e499b5595a&#45;&gt;JNK</title>
<path fill="none" stroke="black" d="M309.754,-280.793C309.717,-271.826 309.958,-262.786 310.478,-254.783"/>
<polygon fill="black" stroke="black" points="313.982,-254.88 311.359,-244.615 307.009,-254.275 313.982,-254.88"/>
</g>
<!-- 7a -->
<g id="node21" class="node"><title>7a</title>
<ellipse fill="none" stroke="black" cx="343.5" cy="-435" rx="18" ry="18"/>
<text text-anchor="middle" x="343.5" y="-433.8" font-family="Times,serif" font-size="4.00">7a</text>
</g>
<!-- 7a&#45;&gt;pr_bcefe1ab&#45;9c50&#45;4895&#45;a2a1&#45;29e499b5595a -->
<g id="edge33" class="edge"><title>7a&#45;&gt;pr_bcefe1ab&#45;9c50&#45;4895&#45;a2a1&#45;29e499b5595a</title>
<path fill="none" stroke="black" d="M339.041,-417.157C337.064,-409.688 334.608,-400.41 332.052,-390.752"/>
<polygon fill="black" stroke="black" points="335.419,-389.792 329.476,-381.021 328.652,-391.583 335.419,-389.792"/>
</g>
<!-- 3a -->
<g id="node22" class="node"><title>3a</title>
<ellipse fill="none" stroke="black" cx="397.5" cy="-435" rx="18" ry="18"/>
<text text-anchor="middle" x="397.5" y="-433.8" font-family="Times,serif" font-size="4.00">3a</text>
</g>
<!-- 3a&#45;&gt;pr_bcefe1ab&#45;9c50&#45;4895&#45;a2a1&#45;29e499b5595a -->
<g id="edge34" class="edge"><title>3a&#45;&gt;pr_bcefe1ab&#45;9c50&#45;4895&#45;a2a1&#45;29e499b5595a</title>
<path fill="none" stroke="black" d="M386.576,-420.244C379.98,-411.938 371.082,-400.733 361.844,-389.099"/>
<polygon fill="black" stroke="black" points="364.377,-386.661 355.417,-381.007 358.895,-391.014 364.377,-386.661"/>
</g>
<!-- pr_1aa812de&#45;f5a5&#45;40df&#45;8cc4&#45;996d1273e480&#45;&gt;JNK -->
<g id="edge35" class="edge"><title>pr_1aa812de&#45;f5a5&#45;40df&#45;8cc4&#45;996d1273e480&#45;&gt;JNK</title>
<path fill="none" stroke="black" d="M368.5,-172.058C357.925,-184.756 346.609,-197.675 337.181,-207.686"/>
<polygon fill="black" stroke="black" points="334.512,-205.41 330.074,-215.031 339.543,-210.278 334.512,-205.41"/>
</g>
<!-- S -->
<g id="node24" class="node"><title>S</title>
<ellipse fill="none" stroke="black" cx="402.5" cy="-227" rx="18" ry="18"/>
<text text-anchor="middle" x="402.5" y="-225.8" font-family="Times,serif" font-size="4.00">S</text>
</g>
<!-- S&#45;&gt;pr_1aa812de&#45;f5a5&#45;40df&#45;8cc4&#45;996d1273e480 -->
<g id="edge36" class="edge"><title>S&#45;&gt;pr_1aa812de&#45;f5a5&#45;40df&#45;8cc4&#45;996d1273e480</title>
<path fill="none" stroke="black" d="M402.5,-208.612C402.5,-201.151 402.5,-191.958 402.5,-182.401"/>
<polygon fill="black" stroke="black" points="406,-182.367 402.5,-172.367 399,-182.367 406,-182.367"/>
</g>
</g>
</svg>
