<?xml version="1.0" encoding="UTF-8" standalone="no"?>
<!DOCTYPE svg PUBLIC "-//W3C//DTD SVG 1.1//EN"
 "http://www.w3.org/Graphics/SVG/1.1/DTD/svg11.dtd">
<!-- Generated by graphviz version 2.38.0 (20140413.2041)
 -->
<!-- Title: G Pages: 1 -->
<svg width="577pt" height="900pt"
 viewBox="0.00 0.00 576.50 899.64" xmlns="http://www.w3.org/2000/svg" xmlns:xlink="http://www.w3.org/1999/xlink">
<g id="graph0" class="graph" transform="scale(1 1) rotate(0) translate(4 895.641)">
<title>G</title>
<polygon fill="white" stroke="none" points="-4,4 -4,-895.641 572.5,-895.641 572.5,4 -4,4"/>
<!-- MAP2K7 -->
<g id="node1" class="node"><title>MAP2K7</title>
<ellipse fill="none" stroke="black" cx="95.5" cy="-860.882" rx="18" ry="18"/>
<text text-anchor="middle" x="95.5" y="-859.682" font-family="Times,serif" font-size="4.00">MAP2K7</text>
</g>
<!-- pr_9905cea1&#45;7bca&#45;41ea&#45;95ff&#45;29498e0c4f7a -->
<g id="node2" class="node"><title>pr_9905cea1&#45;7bca&#45;41ea&#45;95ff&#45;29498e0c4f7a</title>
<polygon fill="none" stroke="black" points="144.5,-793.623 46.5,-793.623 46.5,-695.623 144.5,-695.623 144.5,-793.623"/>
<text text-anchor="middle" x="95.5" y="-743.423" font-family="Times,serif" font-size="4.00">pr_9905cea1&#45;7bca&#45;41ea&#45;95ff&#45;29498e0c4f7a</text>
</g>
<!-- MAP2K7&#45;&gt;pr_9905cea1&#45;7bca&#45;41ea&#45;95ff&#45;29498e0c4f7a -->
<g id="edge1" class="edge"><title>MAP2K7&#45;&gt;pr_9905cea1&#45;7bca&#45;41ea&#45;95ff&#45;29498e0c4f7a</title>
<path fill="none" stroke="black" d="M90.5994,-843.512C89.3979,-832.933 88.7818,-818.464 88.7512,-803.895"/>
<polygon fill="black" stroke="black" points="92.2514,-803.865 88.8236,-793.84 85.2516,-803.814 92.2514,-803.865"/>
</g>
<!-- pr_3b3e8e26&#45;0f9d&#45;49c7&#45;8816&#45;79b9f9207993 -->
<g id="node20" class="node"><title>pr_3b3e8e26&#45;0f9d&#45;49c7&#45;8816&#45;79b9f9207993</title>
<polygon fill="none" stroke="black" points="367,-380 268,-380 268,-281 367,-281 367,-380"/>
<text text-anchor="middle" x="317.5" y="-329.3" font-family="Times,serif" font-size="4.00">pr_3b3e8e26&#45;0f9d&#45;49c7&#45;8816&#45;79b9f9207993</text>
</g>
<!-- MAP2K7&#45;&gt;pr_3b3e8e26&#45;0f9d&#45;49c7&#45;8816&#45;79b9f9207993 -->
<g id="edge2" class="edge"><title>MAP2K7&#45;&gt;pr_3b3e8e26&#45;0f9d&#45;49c7&#45;8816&#45;79b9f9207993</title>
<path fill="none" stroke="black" d="M81.8807,-848.889C68.1661,-836.968 47.6309,-816.607 37.5,-794.123 9.42973,-731.826 18.5,-709.89 18.5,-641.562 18.5,-641.562 18.5,-641.562 18.5,-536 18.5,-421.095 170.803,-366.039 258.01,-343.933"/>
<polygon fill="black" stroke="black" points="258.919,-347.314 267.791,-341.523 257.244,-340.518 258.919,-347.314"/>
</g>
<!-- pr_9905cea1&#45;7bca&#45;41ea&#45;95ff&#45;29498e0c4f7a&#45;&gt;MAP2K7 -->
<g id="edge3" class="edge"><title>pr_9905cea1&#45;7bca&#45;41ea&#45;95ff&#45;29498e0c4f7a&#45;&gt;MAP2K7</title>
<path fill="none" stroke="black" d="M102.176,-793.84C102.402,-807.421 102.108,-821.691 101.294,-833.477"/>
<polygon fill="black" stroke="black" points="97.8015,-833.241 100.401,-843.512 104.774,-833.862 97.8015,-833.241"/>
</g>
<!-- MLK1/2/3 -->
<g id="node3" class="node"><title>MLK1/2/3</title>
<ellipse fill="none" stroke="black" cx="212.5" cy="-860.882" rx="18.6233" ry="18.6233"/>
<text text-anchor="middle" x="212.5" y="-859.682" font-family="Times,serif" font-size="4.00">MLK1/2/3</text>
</g>
<!-- MLK1/2/3&#45;&gt;pr_9905cea1&#45;7bca&#45;41ea&#45;95ff&#45;29498e0c4f7a -->
<g id="edge4" class="edge"><title>MLK1/2/3&#45;&gt;pr_9905cea1&#45;7bca&#45;41ea&#45;95ff&#45;29498e0c4f7a</title>
<path fill="none" stroke="black" d="M199.532,-847.218C187.871,-835.83 169.892,-818.272 152.142,-800.938"/>
<polygon fill="black" stroke="black" points="154.167,-798.024 144.568,-793.541 149.277,-803.032 154.167,-798.024"/>
</g>
<!-- pr_3237aa06&#45;14fe&#45;4145&#45;a8ae&#45;f858e8dd7942 -->
<g id="node5" class="node"><title>pr_3237aa06&#45;14fe&#45;4145&#45;a8ae&#45;f858e8dd7942</title>
<polygon fill="none" stroke="black" points="262,-794.123 163,-794.123 163,-695.123 262,-695.123 262,-794.123"/>
<text text-anchor="middle" x="212.5" y="-743.423" font-family="Times,serif" font-size="4.00">pr_3237aa06&#45;14fe&#45;4145&#45;a8ae&#45;f858e8dd7942</text>
</g>
<!-- MLK1/2/3&#45;&gt;pr_3237aa06&#45;14fe&#45;4145&#45;a8ae&#45;f858e8dd7942 -->
<g id="edge5" class="edge"><title>MLK1/2/3&#45;&gt;pr_3237aa06&#45;14fe&#45;4145&#45;a8ae&#45;f858e8dd7942</title>
<path fill="none" stroke="black" d="M207.491,-842.529C206.375,-832.18 205.796,-818.375 205.753,-804.436"/>
<polygon fill="black" stroke="black" points="209.253,-804.331 205.816,-794.31 202.253,-804.288 209.253,-804.331"/>
</g>
<!-- SARS&#45;CoV&#45;1 proteins -->
<g id="node4" class="node"><title>SARS&#45;CoV&#45;1 proteins</title>
<ellipse fill="none" stroke="black" cx="284.5" cy="-860.882" rx="30.5202" ry="30.5202"/>
<text text-anchor="middle" x="284.5" y="-859.682" font-family="Times,serif" font-size="4.00">SARS&#45;CoV&#45;1 proteins</text>
</g>
<!-- SARS&#45;CoV&#45;1 proteins&#45;&gt;pr_9905cea1&#45;7bca&#45;41ea&#45;95ff&#45;29498e0c4f7a -->
<g id="edge6" class="edge"><title>SARS&#45;CoV&#45;1 proteins&#45;&gt;pr_9905cea1&#45;7bca&#45;41ea&#45;95ff&#45;29498e0c4f7a</title>
<path fill="none" stroke="black" d="M259.918,-841.981C253.731,-837.835 246.997,-833.618 240.5,-830.123 203.647,-810.3 189.297,-815.795 153.5,-794.123 153.409,-794.068 153.318,-794.013 153.226,-793.957"/>
<polygon fill="black" stroke="black" points="155.047,-790.966 144.757,-788.444 151.228,-796.833 155.047,-790.966"/>
</g>
<!-- SARS&#45;CoV&#45;1 proteins&#45;&gt;pr_3237aa06&#45;14fe&#45;4145&#45;a8ae&#45;f858e8dd7942 -->
<g id="edge7" class="edge"><title>SARS&#45;CoV&#45;1 proteins&#45;&gt;pr_3237aa06&#45;14fe&#45;4145&#45;a8ae&#45;f858e8dd7942</title>
<path fill="none" stroke="black" d="M268.521,-834.524C262.578,-825.094 255.569,-813.97 248.556,-802.842"/>
<polygon fill="black" stroke="black" points="251.503,-800.953 243.211,-794.359 245.581,-804.685 251.503,-800.953"/>
</g>
<!-- pr_55e996e3&#45;b64d&#45;4cea&#45;8ee5&#45;bf085f69db8b -->
<g id="node17" class="node"><title>pr_55e996e3&#45;b64d&#45;4cea&#45;8ee5&#45;bf085f69db8b</title>
<polygon fill="none" stroke="black" points="418,-794.123 319,-794.123 319,-695.123 418,-695.123 418,-794.123"/>
<text text-anchor="middle" x="368.5" y="-743.423" font-family="Times,serif" font-size="4.00">pr_55e996e3&#45;b64d&#45;4cea&#45;8ee5&#45;bf085f69db8b</text>
</g>
<!-- SARS&#45;CoV&#45;1 proteins&#45;&gt;pr_55e996e3&#45;b64d&#45;4cea&#45;8ee5&#45;bf085f69db8b -->
<g id="edge8" class="edge"><title>SARS&#45;CoV&#45;1 proteins&#45;&gt;pr_55e996e3&#45;b64d&#45;4cea&#45;8ee5&#45;bf085f69db8b</title>
<path fill="none" stroke="black" d="M302.314,-835.651C309.514,-825.857 318.152,-814.108 326.775,-802.379"/>
<polygon fill="black" stroke="black" points="329.621,-804.417 332.724,-794.286 323.981,-800.27 329.621,-804.417"/>
</g>
<!-- pr_fc305c2a&#45;1dc4&#45;4f3d&#45;9c7d&#45;17bd7a8f6475 -->
<g id="node19" class="node"><title>pr_fc305c2a&#45;1dc4&#45;4f3d&#45;9c7d&#45;17bd7a8f6475</title>
<polygon fill="none" stroke="black" points="339.5,-586 241.5,-586 241.5,-488 339.5,-488 339.5,-586"/>
<text text-anchor="middle" x="290.5" y="-535.8" font-family="Times,serif" font-size="4.00">pr_fc305c2a&#45;1dc4&#45;4f3d&#45;9c7d&#45;17bd7a8f6475</text>
</g>
<!-- SARS&#45;CoV&#45;1 proteins&#45;&gt;pr_fc305c2a&#45;1dc4&#45;4f3d&#45;9c7d&#45;17bd7a8f6475 -->
<g id="edge9" class="edge"><title>SARS&#45;CoV&#45;1 proteins&#45;&gt;pr_fc305c2a&#45;1dc4&#45;4f3d&#45;9c7d&#45;17bd7a8f6475</title>
<path fill="none" stroke="black" d="M285.059,-829.889C286.05,-776.745 288.129,-665.18 289.411,-596.41"/>
<polygon fill="black" stroke="black" points="292.915,-596.235 289.602,-586.171 285.916,-596.104 292.915,-596.235"/>
</g>
<!-- pr_3237aa06&#45;14fe&#45;4145&#45;a8ae&#45;f858e8dd7942&#45;&gt;MLK1/2/3 -->
<g id="edge10" class="edge"><title>pr_3237aa06&#45;14fe&#45;4145&#45;a8ae&#45;f858e8dd7942&#45;&gt;MLK1/2/3</title>
<path fill="none" stroke="black" d="M219.184,-794.31C219.389,-807.314 219.117,-820.914 218.371,-832.336"/>
<polygon fill="black" stroke="black" points="214.864,-832.269 217.509,-842.529 221.839,-832.859 214.864,-832.269"/>
</g>
<!-- ATF2 -->
<g id="node6" class="node"><title>ATF2</title>
<ellipse fill="none" stroke="black" cx="49.5" cy="-18" rx="18" ry="18"/>
<text text-anchor="middle" x="49.5" y="-16.8" font-family="Times,serif" font-size="4.00">ATF2</text>
</g>
<!-- pr_20061cce&#45;5988&#45;4c89&#45;a9f9&#45;aa48ab67cf8b -->
<g id="node7" class="node"><title>pr_20061cce&#45;5988&#45;4c89&#45;a9f9&#45;aa48ab67cf8b</title>
<polygon fill="none" stroke="black" points="99,-172 0,-172 0,-73 99,-73 99,-172"/>
<text text-anchor="middle" x="49.5" y="-121.3" font-family="Times,serif" font-size="4.00">pr_20061cce&#45;5988&#45;4c89&#45;a9f9&#45;aa48ab67cf8b</text>
</g>
<!-- ATF2&#45;&gt;pr_20061cce&#45;5988&#45;4c89&#45;a9f9&#45;aa48ab67cf8b -->
<g id="edge11" class="edge"><title>ATF2&#45;&gt;pr_20061cce&#45;5988&#45;4c89&#45;a9f9&#45;aa48ab67cf8b</title>
<path fill="none" stroke="black" d="M54.626,-35.5663C55.4962,-43.2382 56.0167,-52.8638 56.1875,-62.8729"/>
<polygon fill="black" stroke="black" points="52.6878,-62.9705 56.2417,-72.9515 59.6877,-62.9328 52.6878,-62.9705"/>
</g>
<!-- pr_20061cce&#45;5988&#45;4c89&#45;a9f9&#45;aa48ab67cf8b&#45;&gt;ATF2 -->
<g id="edge12" class="edge"><title>pr_20061cce&#45;5988&#45;4c89&#45;a9f9&#45;aa48ab67cf8b&#45;&gt;ATF2</title>
<path fill="none" stroke="black" d="M42.7583,-72.9515C42.7005,-63.5971 42.9433,-54.1224 43.4866,-45.7785"/>
<polygon fill="black" stroke="black" points="46.9951,-45.8318 44.374,-35.5663 40.0214,-45.2257 46.9951,-45.8318"/>
</g>
<!-- JNK -->
<g id="node8" class="node"><title>JNK</title>
<ellipse fill="none" stroke="black" cx="317.5" cy="-227" rx="18" ry="18"/>
<text text-anchor="middle" x="317.5" y="-225.8" font-family="Times,serif" font-size="4.00">JNK</text>
</g>
<!-- JNK&#45;&gt;pr_20061cce&#45;5988&#45;4c89&#45;a9f9&#45;aa48ab67cf8b -->
<g id="edge13" class="edge"><title>JNK&#45;&gt;pr_20061cce&#45;5988&#45;4c89&#45;a9f9&#45;aa48ab67cf8b</title>
<path fill="none" stroke="black" d="M299.665,-224.27C263.729,-220.23 180.516,-208.056 108.311,-172.831"/>
<polygon fill="black" stroke="black" points="109.615,-169.568 99.1115,-168.183 106.459,-175.817 109.615,-169.568"/>
</g>
<!-- pr_c00908a2&#45;7946&#45;4e42&#45;a0bc&#45;64453e94be9e -->
<g id="node10" class="node"><title>pr_c00908a2&#45;7946&#45;4e42&#45;a0bc&#45;64453e94be9e</title>
<polygon fill="none" stroke="black" points="218,-173 117,-173 117,-72 218,-72 218,-173"/>
<text text-anchor="middle" x="167.5" y="-121.3" font-family="Times,serif" font-size="4.00">pr_c00908a2&#45;7946&#45;4e42&#45;a0bc&#45;64453e94be9e</text>
</g>
<!-- JNK&#45;&gt;pr_c00908a2&#45;7946&#45;4e42&#45;a0bc&#45;64453e94be9e -->
<g id="edge14" class="edge"><title>JNK&#45;&gt;pr_c00908a2&#45;7946&#45;4e42&#45;a0bc&#45;64453e94be9e</title>
<path fill="none" stroke="black" d="M301.752,-217.713C283.414,-207.84 252.452,-190.477 227.5,-173 227.113,-172.729 226.725,-172.456 226.337,-172.181"/>
<polygon fill="black" stroke="black" points="228.274,-169.262 218.134,-166.191 224.146,-174.915 228.274,-169.262"/>
</g>
<!-- pr_b75b394d&#45;6c7c&#45;48aa&#45;b257&#45;b2047d8c0f5c -->
<g id="node12" class="node"><title>pr_b75b394d&#45;6c7c&#45;48aa&#45;b257&#45;b2047d8c0f5c</title>
<polygon fill="none" stroke="black" points="336.5,-172.5 236.5,-172.5 236.5,-72.5 336.5,-72.5 336.5,-172.5"/>
<text text-anchor="middle" x="286.5" y="-121.3" font-family="Times,serif" font-size="4.00">pr_b75b394d&#45;6c7c&#45;48aa&#45;b257&#45;b2047d8c0f5c</text>
</g>
<!-- JNK&#45;&gt;pr_b75b394d&#45;6c7c&#45;48aa&#45;b257&#45;b2047d8c0f5c -->
<g id="edge15" class="edge"><title>JNK&#45;&gt;pr_b75b394d&#45;6c7c&#45;48aa&#45;b257&#45;b2047d8c0f5c</title>
<path fill="none" stroke="black" d="M312.519,-209.532C310.211,-201.898 307.312,-192.315 304.296,-182.34"/>
<polygon fill="black" stroke="black" points="307.627,-181.266 301.382,-172.707 300.927,-183.292 307.627,-181.266"/>
</g>
<!-- pr_219530a7&#45;dbaf&#45;4404&#45;b815&#45;7f3fdb53ad53 -->
<g id="node14" class="node"><title>pr_219530a7&#45;dbaf&#45;4404&#45;b815&#45;7f3fdb53ad53</title>
<polygon fill="none" stroke="black" points="568.5,-171.5 470.5,-171.5 470.5,-73.5 568.5,-73.5 568.5,-171.5"/>
<text text-anchor="middle" x="519.5" y="-121.3" font-family="Times,serif" font-size="4.00">pr_219530a7&#45;dbaf&#45;4404&#45;b815&#45;7f3fdb53ad53</text>
</g>
<!-- JNK&#45;&gt;pr_219530a7&#45;dbaf&#45;4404&#45;b815&#45;7f3fdb53ad53 -->
<g id="edge16" class="edge"><title>JNK&#45;&gt;pr_219530a7&#45;dbaf&#45;4404&#45;b815&#45;7f3fdb53ad53</title>
<path fill="none" stroke="black" d="M334.568,-220.559C367.634,-209.882 439.142,-186.087 461.5,-173 461.593,-172.946 461.686,-172.891 461.778,-172.837"/>
<polygon fill="black" stroke="black" points="463.816,-175.689 470.366,-167.361 460.053,-169.786 463.816,-175.689"/>
</g>
<!-- JNK&#45;&gt;pr_3b3e8e26&#45;0f9d&#45;49c7&#45;8816&#45;79b9f9207993 -->
<g id="edge17" class="edge"><title>JNK&#45;&gt;pr_3b3e8e26&#45;0f9d&#45;49c7&#45;8816&#45;79b9f9207993</title>
<path fill="none" stroke="black" d="M322.654,-244.647C323.488,-252.033 323.995,-261.213 324.175,-270.78"/>
<polygon fill="black" stroke="black" points="320.676,-270.855 324.245,-280.831 327.676,-270.807 320.676,-270.855"/>
</g>
<!-- pr_20293cf2&#45;4b59&#45;4d70&#45;9bbf&#45;7fa4a832a600 -->
<g id="node23" class="node"><title>pr_20293cf2&#45;4b59&#45;4d70&#45;9bbf&#45;7fa4a832a600</title>
<polygon fill="none" stroke="black" points="452.5,-171.5 354.5,-171.5 354.5,-73.5 452.5,-73.5 452.5,-171.5"/>
<text text-anchor="middle" x="403.5" y="-121.3" font-family="Times,serif" font-size="4.00">pr_20293cf2&#45;4b59&#45;4d70&#45;9bbf&#45;7fa4a832a600</text>
</g>
<!-- JNK&#45;&gt;pr_20293cf2&#45;4b59&#45;4d70&#45;9bbf&#45;7fa4a832a600 -->
<g id="edge18" class="edge"><title>JNK&#45;&gt;pr_20293cf2&#45;4b59&#45;4d70&#45;9bbf&#45;7fa4a832a600</title>
<path fill="none" stroke="black" d="M325.552,-210.432C331.636,-201.969 340.329,-190.928 349.734,-179.568"/>
<polygon fill="black" stroke="black" points="352.601,-181.595 356.336,-171.681 347.234,-177.102 352.601,-181.595"/>
</g>
<!-- TP53 -->
<g id="node9" class="node"><title>TP53</title>
<ellipse fill="none" stroke="black" cx="167.5" cy="-18" rx="18" ry="18"/>
<text text-anchor="middle" x="167.5" y="-16.8" font-family="Times,serif" font-size="4.00">TP53</text>
</g>
<!-- TP53&#45;&gt;pr_c00908a2&#45;7946&#45;4e42&#45;a0bc&#45;64453e94be9e -->
<g id="edge19" class="edge"><title>TP53&#45;&gt;pr_c00908a2&#45;7946&#45;4e42&#45;a0bc&#45;64453e94be9e</title>
<path fill="none" stroke="black" d="M172.628,-35.5823C173.462,-42.9473 173.975,-52.1105 174.165,-61.6841"/>
<polygon fill="black" stroke="black" points="170.666,-61.7801 174.247,-71.7513 177.666,-61.7231 170.666,-61.7801"/>
</g>
<!-- pr_c00908a2&#45;7946&#45;4e42&#45;a0bc&#45;64453e94be9e&#45;&gt;TP53 -->
<g id="edge20" class="edge"><title>pr_c00908a2&#45;7946&#45;4e42&#45;a0bc&#45;64453e94be9e&#45;&gt;TP53</title>
<path fill="none" stroke="black" d="M160.753,-71.7513C160.722,-62.7741 160.967,-53.7354 161.489,-45.7383"/>
<polygon fill="black" stroke="black" points="164.993,-45.8479 162.372,-35.5823 158.019,-45.2415 164.993,-45.8479"/>
</g>
<!-- BCL2 -->
<g id="node11" class="node"><title>BCL2</title>
<ellipse fill="none" stroke="black" cx="286.5" cy="-18" rx="18" ry="18"/>
<text text-anchor="middle" x="286.5" y="-16.8" font-family="Times,serif" font-size="4.00">BCL2</text>
</g>
<!-- BCL2&#45;&gt;pr_b75b394d&#45;6c7c&#45;48aa&#45;b257&#45;b2047d8c0f5c -->
<g id="edge21" class="edge"><title>BCL2&#45;&gt;pr_b75b394d&#45;6c7c&#45;48aa&#45;b257&#45;b2047d8c0f5c</title>
<path fill="none" stroke="black" d="M291.6,-35.3424C292.462,-42.8395 292.986,-52.2359 293.172,-62.0439"/>
<polygon fill="black" stroke="black" points="289.675,-62.3764 293.245,-72.3515 296.674,-62.3271 289.675,-62.3764"/>
</g>
<!-- pr_b75b394d&#45;6c7c&#45;48aa&#45;b257&#45;b2047d8c0f5c&#45;&gt;BCL2 -->
<g id="edge22" class="edge"><title>pr_b75b394d&#45;6c7c&#45;48aa&#45;b257&#45;b2047d8c0f5c&#45;&gt;BCL2</title>
<path fill="none" stroke="black" d="M279.755,-72.3515C279.71,-63.0632 279.962,-53.6826 280.509,-45.433"/>
<polygon fill="black" stroke="black" points="284.007,-45.6113 281.4,-35.3424 277.034,-44.996 284.007,-45.6113"/>
</g>
<!-- AP&#45;1 -->
<g id="node13" class="node"><title>AP&#45;1</title>
<ellipse fill="none" stroke="black" cx="519.5" cy="-18" rx="18" ry="18"/>
<text text-anchor="middle" x="519.5" y="-16.8" font-family="Times,serif" font-size="4.00">AP&#45;1</text>
</g>
<!-- AP&#45;1&#45;&gt;pr_219530a7&#45;dbaf&#45;4404&#45;b815&#45;7f3fdb53ad53 -->
<g id="edge23" class="edge"><title>AP&#45;1&#45;&gt;pr_219530a7&#45;dbaf&#45;4404&#45;b815&#45;7f3fdb53ad53</title>
<path fill="none" stroke="black" d="M524.639,-35.6787C525.509,-43.3986 526.026,-53.0794 526.192,-63.1327"/>
<polygon fill="black" stroke="black" points="522.692,-63.2681 526.24,-73.2514 529.692,-63.2349 522.692,-63.2681"/>
</g>
<!-- pr_219530a7&#45;dbaf&#45;4404&#45;b815&#45;7f3fdb53ad53&#45;&gt;AP&#45;1 -->
<g id="edge24" class="edge"><title>pr_219530a7&#45;dbaf&#45;4404&#45;b815&#45;7f3fdb53ad53&#45;&gt;AP&#45;1</title>
<path fill="none" stroke="black" d="M512.76,-73.2514C512.695,-63.759 512.94,-54.1287 513.494,-45.6693"/>
<polygon fill="black" stroke="black" points="516.983,-45.944 514.361,-35.6787 510.009,-45.3383 516.983,-45.944"/>
</g>
<!-- 3b -->
<g id="node15" class="node"><title>3b</title>
<ellipse fill="none" stroke="black" cx="519.5" cy="-227" rx="18" ry="18"/>
<text text-anchor="middle" x="519.5" y="-225.8" font-family="Times,serif" font-size="4.00">3b</text>
</g>
<!-- 3b&#45;&gt;pr_219530a7&#45;dbaf&#45;4404&#45;b815&#45;7f3fdb53ad53 -->
<g id="edge25" class="edge"><title>3b&#45;&gt;pr_219530a7&#45;dbaf&#45;4404&#45;b815&#45;7f3fdb53ad53</title>
<path fill="none" stroke="black" d="M519.5,-208.612C519.5,-201.067 519.5,-191.748 519.5,-182.075"/>
<polygon fill="black" stroke="black" points="523,-181.924 519.5,-171.924 516,-181.924 523,-181.924"/>
</g>
<!-- MEKK1/4 -->
<g id="node16" class="node"><title>MEKK1/4</title>
<ellipse fill="none" stroke="black" cx="368.5" cy="-640.562" rx="18.6233" ry="18.6233"/>
<text text-anchor="middle" x="368.5" y="-639.362" font-family="Times,serif" font-size="4.00">MEKK1/4</text>
</g>
<!-- MEKK1/4&#45;&gt;pr_55e996e3&#45;b64d&#45;4cea&#45;8ee5&#45;bf085f69db8b -->
<g id="edge26" class="edge"><title>MEKK1/4&#45;&gt;pr_55e996e3&#45;b64d&#45;4cea&#45;8ee5&#45;bf085f69db8b</title>
<path fill="none" stroke="black" d="M373.666,-658.415C374.5,-665.889 375.005,-675.172 375.18,-684.836"/>
<polygon fill="black" stroke="black" points="371.681,-685.006 375.243,-694.984 378.681,-684.962 371.681,-685.006"/>
</g>
<!-- MEKK1/4&#45;&gt;pr_fc305c2a&#45;1dc4&#45;4f3d&#45;9c7d&#45;17bd7a8f6475 -->
<g id="edge27" class="edge"><title>MEKK1/4&#45;&gt;pr_fc305c2a&#45;1dc4&#45;4f3d&#45;9c7d&#45;17bd7a8f6475</title>
<path fill="none" stroke="black" d="M357.654,-625.44C351.26,-617.114 342.704,-605.974 333.845,-594.439"/>
<polygon fill="black" stroke="black" points="336.554,-592.219 327.687,-586.42 331.002,-596.483 336.554,-592.219"/>
</g>
<!-- pr_55e996e3&#45;b64d&#45;4cea&#45;8ee5&#45;bf085f69db8b&#45;&gt;MEKK1/4 -->
<g id="edge28" class="edge"><title>pr_55e996e3&#45;b64d&#45;4cea&#45;8ee5&#45;bf085f69db8b&#45;&gt;MEKK1/4</title>
<path fill="none" stroke="black" d="M361.757,-694.984C361.706,-685.845 361.945,-676.603 362.473,-668.435"/>
<polygon fill="black" stroke="black" points="365.965,-668.678 363.334,-658.415 358.991,-668.079 365.965,-668.678"/>
</g>
<!-- MAP2K4 -->
<g id="node18" class="node"><title>MAP2K4</title>
<ellipse fill="none" stroke="black" cx="290.5" cy="-434" rx="18" ry="18"/>
<text text-anchor="middle" x="290.5" y="-432.8" font-family="Times,serif" font-size="4.00">MAP2K4</text>
</g>
<!-- MAP2K4&#45;&gt;pr_fc305c2a&#45;1dc4&#45;4f3d&#45;9c7d&#45;17bd7a8f6475 -->
<g id="edge29" class="edge"><title>MAP2K4&#45;&gt;pr_fc305c2a&#45;1dc4&#45;4f3d&#45;9c7d&#45;17bd7a8f6475</title>
<path fill="none" stroke="black" d="M295.666,-451.678C296.5,-459.074 297.005,-468.261 297.18,-477.824"/>
<polygon fill="black" stroke="black" points="293.68,-477.889 297.243,-487.866 300.68,-477.845 293.68,-477.889"/>
</g>
<!-- MAP2K4&#45;&gt;pr_3b3e8e26&#45;0f9d&#45;49c7&#45;8816&#45;79b9f9207993 -->
<g id="edge30" class="edge"><title>MAP2K4&#45;&gt;pr_3b3e8e26&#45;0f9d&#45;49c7&#45;8816&#45;79b9f9207993</title>
<path fill="none" stroke="black" d="M294.959,-416.239C296.936,-408.807 299.392,-399.574 301.948,-389.964"/>
<polygon fill="black" stroke="black" points="305.336,-390.844 304.524,-380.28 298.571,-389.045 305.336,-390.844"/>
</g>
<!-- pr_fc305c2a&#45;1dc4&#45;4f3d&#45;9c7d&#45;17bd7a8f6475&#45;&gt;MAP2K4 -->
<g id="edge31" class="edge"><title>pr_fc305c2a&#45;1dc4&#45;4f3d&#45;9c7d&#45;17bd7a8f6475&#45;&gt;MAP2K4</title>
<path fill="none" stroke="black" d="M283.757,-487.866C283.707,-478.924 283.94,-469.883 284.455,-461.867"/>
<polygon fill="black" stroke="black" points="287.962,-461.942 285.334,-451.678 280.988,-461.34 287.962,-461.942"/>
</g>
<!-- pr_3b3e8e26&#45;0f9d&#45;49c7&#45;8816&#45;79b9f9207993&#45;&gt;JNK -->
<g id="edge32" class="edge"><title>pr_3b3e8e26&#45;0f9d&#45;49c7&#45;8816&#45;79b9f9207993&#45;&gt;JNK</title>
<path fill="none" stroke="black" d="M310.755,-280.831C310.712,-271.877 310.949,-262.836 311.467,-254.826"/>
<polygon fill="black" stroke="black" points="314.972,-254.911 312.346,-244.647 307.998,-254.308 314.972,-254.911"/>
</g>
<!-- 7a -->
<g id="node21" class="node"><title>7a</title>
<ellipse fill="none" stroke="black" cx="344.5" cy="-434" rx="18" ry="18"/>
<text text-anchor="middle" x="344.5" y="-432.8" font-family="Times,serif" font-size="4.00">7a</text>
</g>
<!-- 7a&#45;&gt;pr_3b3e8e26&#45;0f9d&#45;49c7&#45;8816&#45;79b9f9207993 -->
<g id="edge33" class="edge"><title>7a&#45;&gt;pr_3b3e8e26&#45;0f9d&#45;49c7&#45;8816&#45;79b9f9207993</title>
<path fill="none" stroke="black" d="M340.041,-416.239C338.064,-408.807 335.608,-399.574 333.052,-389.964"/>
<polygon fill="black" stroke="black" points="336.429,-389.045 330.476,-380.28 329.664,-390.844 336.429,-389.045"/>
</g>
<!-- 3a -->
<g id="node22" class="node"><title>3a</title>
<ellipse fill="none" stroke="black" cx="398.5" cy="-434" rx="18" ry="18"/>
<text text-anchor="middle" x="398.5" y="-432.8" font-family="Times,serif" font-size="4.00">3a</text>
</g>
<!-- 3a&#45;&gt;pr_3b3e8e26&#45;0f9d&#45;49c7&#45;8816&#45;79b9f9207993 -->
<g id="edge34" class="edge"><title>3a&#45;&gt;pr_3b3e8e26&#45;0f9d&#45;49c7&#45;8816&#45;79b9f9207993</title>
<path fill="none" stroke="black" d="M387.576,-419.311C380.98,-411.046 372.082,-399.896 362.844,-388.319"/>
<polygon fill="black" stroke="black" points="365.39,-385.9 356.417,-380.266 359.919,-390.266 365.39,-385.9"/>
</g>
<!-- pr_20293cf2&#45;4b59&#45;4d70&#45;9bbf&#45;7fa4a832a600&#45;&gt;JNK -->
<g id="edge35" class="edge"><title>pr_20293cf2&#45;4b59&#45;4d70&#45;9bbf&#45;7fa4a832a600&#45;&gt;JNK</title>
<path fill="none" stroke="black" d="M369.898,-171.58C359.237,-184.398 347.788,-197.481 338.256,-207.606"/>
<polygon fill="black" stroke="black" points="335.511,-205.41 331.074,-215.031 340.542,-210.277 335.511,-205.41"/>
</g>
<!-- S -->
<g id="node24" class="node"><title>S</title>
<ellipse fill="none" stroke="black" cx="403.5" cy="-227" rx="18" ry="18"/>
<text text-anchor="middle" x="403.5" y="-225.8" font-family="Times,serif" font-size="4.00">S</text>
</g>
<!-- S&#45;&gt;pr_20293cf2&#45;4b59&#45;4d70&#45;9bbf&#45;7fa4a832a600 -->
<g id="edge36" class="edge"><title>S&#45;&gt;pr_20293cf2&#45;4b59&#45;4d70&#45;9bbf&#45;7fa4a832a600</title>
<path fill="none" stroke="black" d="M403.5,-208.612C403.5,-201.067 403.5,-191.748 403.5,-182.075"/>
<polygon fill="black" stroke="black" points="407,-181.924 403.5,-171.924 400,-181.924 407,-181.924"/>
</g>
</g>
</svg>
