<?xml version="1.0" encoding="UTF-8" standalone="no"?>
<!DOCTYPE svg PUBLIC "-//W3C//DTD SVG 1.1//EN"
 "http://www.w3.org/Graphics/SVG/1.1/DTD/svg11.dtd">
<!-- Generated by graphviz version 2.38.0 (20140413.2041)
 -->
<!-- Title: G Pages: 1 -->
<svg width="579pt" height="905pt"
 viewBox="0.00 0.00 578.50 905.01" xmlns="http://www.w3.org/2000/svg" xmlns:xlink="http://www.w3.org/1999/xlink">
<g id="graph0" class="graph" transform="scale(1 1) rotate(0) translate(4 901.009)">
<title>G</title>
<polygon fill="white" stroke="none" points="-4,4 -4,-901.009 574.5,-901.009 574.5,4 -4,4"/>
<!-- MAP2K7 -->
<g id="node1" class="node"><title>MAP2K7</title>
<ellipse fill="none" stroke="black" cx="94.5" cy="-866.25" rx="18" ry="18"/>
<text text-anchor="middle" x="94.5" y="-865.05" font-family="Times,serif" font-size="4.00">MAP2K7</text>
</g>
<!-- pr_6a272198&#45;4ade&#45;4536&#45;9996&#45;e1e81d0165ea -->
<g id="node2" class="node"><title>pr_6a272198&#45;4ade&#45;4536&#45;9996&#45;e1e81d0165ea</title>
<polygon fill="none" stroke="black" points="145,-799.491 44,-799.491 44,-698.491 145,-698.491 145,-799.491"/>
<text text-anchor="middle" x="94.5" y="-747.791" font-family="Times,serif" font-size="4.00">pr_6a272198&#45;4ade&#45;4536&#45;9996&#45;e1e81d0165ea</text>
</g>
<!-- MAP2K7&#45;&gt;pr_6a272198&#45;4ade&#45;4536&#45;9996&#45;e1e81d0165ea -->
<g id="edge1" class="edge"><title>MAP2K7&#45;&gt;pr_6a272198&#45;4ade&#45;4536&#45;9996&#45;e1e81d0165ea</title>
<path fill="none" stroke="black" d="M89.5994,-848.736C88.432,-838.368 87.8173,-824.294 87.7552,-810.024"/>
<polygon fill="black" stroke="black" points="91.257,-809.666 87.8077,-799.648 84.2571,-809.63 91.257,-809.666"/>
</g>
<!-- pr_721a8a69&#45;f84c&#45;4d70&#45;9485&#45;8436d6df1f3c -->
<g id="node20" class="node"><title>pr_721a8a69&#45;f84c&#45;4d70&#45;9485&#45;8436d6df1f3c</title>
<polygon fill="none" stroke="black" points="365.5,-380.184 267.5,-380.184 267.5,-282.184 365.5,-282.184 365.5,-380.184"/>
<text text-anchor="middle" x="316.5" y="-329.984" font-family="Times,serif" font-size="4.00">pr_721a8a69&#45;f84c&#45;4d70&#45;9485&#45;8436d6df1f3c</text>
</g>
<!-- MAP2K7&#45;&gt;pr_721a8a69&#45;f84c&#45;4d70&#45;9485&#45;8436d6df1f3c -->
<g id="edge2" class="edge"><title>MAP2K7&#45;&gt;pr_721a8a69&#45;f84c&#45;4d70&#45;9485&#45;8436d6df1f3c</title>
<path fill="none" stroke="black" d="M80.6646,-854.581C66.4708,-842.779 45.0237,-822.378 34.5,-799.491 5.58659,-736.608 15.5,-714.14 15.5,-644.929 15.5,-644.929 15.5,-644.929 15.5,-538.868 15.5,-422.59 170.036,-366.831 257.65,-344.562"/>
<polygon fill="black" stroke="black" points="258.601,-347.932 267.469,-342.135 256.922,-341.137 258.601,-347.932"/>
</g>
<!-- pr_6a272198&#45;4ade&#45;4536&#45;9996&#45;e1e81d0165ea&#45;&gt;MAP2K7 -->
<g id="edge3" class="edge"><title>pr_6a272198&#45;4ade&#45;4536&#45;9996&#45;e1e81d0165ea&#45;&gt;MAP2K7</title>
<path fill="none" stroke="black" d="M101.192,-799.648C101.387,-812.983 101.091,-826.898 100.304,-838.463"/>
<polygon fill="black" stroke="black" points="96.7906,-838.468 99.4006,-848.736 103.764,-839.081 96.7906,-838.468"/>
</g>
<!-- MLK1/2/3 -->
<g id="node3" class="node"><title>MLK1/2/3</title>
<ellipse fill="none" stroke="black" cx="212.5" cy="-866.25" rx="18.6233" ry="18.6233"/>
<text text-anchor="middle" x="212.5" y="-865.05" font-family="Times,serif" font-size="4.00">MLK1/2/3</text>
</g>
<!-- MLK1/2/3&#45;&gt;pr_6a272198&#45;4ade&#45;4536&#45;9996&#45;e1e81d0165ea -->
<g id="edge4" class="edge"><title>MLK1/2/3&#45;&gt;pr_6a272198&#45;4ade&#45;4536&#45;9996&#45;e1e81d0165ea</title>
<path fill="none" stroke="black" d="M199.421,-852.475C187.87,-841.192 170.173,-823.906 152.585,-806.727"/>
<polygon fill="black" stroke="black" points="154.672,-803.872 145.072,-799.388 149.78,-808.879 154.672,-803.872"/>
</g>
<!-- pr_e676bd57&#45;2f08&#45;49f0&#45;aebc&#45;4f5f55a10e62 -->
<g id="node5" class="node"><title>pr_e676bd57&#45;2f08&#45;49f0&#45;aebc&#45;4f5f55a10e62</title>
<polygon fill="none" stroke="black" points="261.5,-797.991 163.5,-797.991 163.5,-699.991 261.5,-699.991 261.5,-797.991"/>
<text text-anchor="middle" x="212.5" y="-747.791" font-family="Times,serif" font-size="4.00">pr_e676bd57&#45;2f08&#45;49f0&#45;aebc&#45;4f5f55a10e62</text>
</g>
<!-- MLK1/2/3&#45;&gt;pr_e676bd57&#45;2f08&#45;49f0&#45;aebc&#45;4f5f55a10e62 -->
<g id="edge5" class="edge"><title>MLK1/2/3&#45;&gt;pr_e676bd57&#45;2f08&#45;49f0&#45;aebc&#45;4f5f55a10e62</title>
<path fill="none" stroke="black" d="M207.545,-848.243C206.367,-837.508 205.769,-822.946 205.75,-808.323"/>
<polygon fill="black" stroke="black" points="209.251,-808.264 205.83,-798.237 202.251,-808.209 209.251,-808.264"/>
</g>
<!-- SARS&#45;CoV&#45;1 proteins -->
<g id="node4" class="node"><title>SARS&#45;CoV&#45;1 proteins</title>
<ellipse fill="none" stroke="black" cx="284.5" cy="-866.25" rx="30.5202" ry="30.5202"/>
<text text-anchor="middle" x="284.5" y="-865.05" font-family="Times,serif" font-size="4.00">SARS&#45;CoV&#45;1 proteins</text>
</g>
<!-- SARS&#45;CoV&#45;1 proteins&#45;&gt;pr_6a272198&#45;4ade&#45;4536&#45;9996&#45;e1e81d0165ea -->
<g id="edge6" class="edge"><title>SARS&#45;CoV&#45;1 proteins&#45;&gt;pr_6a272198&#45;4ade&#45;4536&#45;9996&#45;e1e81d0165ea</title>
<path fill="none" stroke="black" d="M259.908,-847.367C253.721,-843.221 246.99,-838.999 240.5,-835.491 204.049,-815.787 189.973,-820.905 154.5,-799.491 154.207,-799.314 153.915,-799.136 153.622,-798.957"/>
<polygon fill="black" stroke="black" points="155.434,-795.96 145.145,-793.431 151.612,-801.824 155.434,-795.96"/>
</g>
<!-- SARS&#45;CoV&#45;1 proteins&#45;&gt;pr_e676bd57&#45;2f08&#45;49f0&#45;aebc&#45;4f5f55a10e62 -->
<g id="edge7" class="edge"><title>SARS&#45;CoV&#45;1 proteins&#45;&gt;pr_e676bd57&#45;2f08&#45;49f0&#45;aebc&#45;4f5f55a10e62</title>
<path fill="none" stroke="black" d="M268.521,-839.67C262.446,-829.946 255.257,-818.436 248.089,-806.962"/>
<polygon fill="black" stroke="black" points="250.897,-804.851 242.63,-798.224 244.96,-808.559 250.897,-804.851"/>
</g>
<!-- pr_96ccbe7d&#45;0931&#45;4b00&#45;96d7&#45;c2e9ad693cba -->
<g id="node17" class="node"><title>pr_96ccbe7d&#45;0931&#45;4b00&#45;96d7&#45;c2e9ad693cba</title>
<polygon fill="none" stroke="black" points="419,-799.491 318,-799.491 318,-698.491 419,-698.491 419,-799.491"/>
<text text-anchor="middle" x="368.5" y="-747.791" font-family="Times,serif" font-size="4.00">pr_96ccbe7d&#45;0931&#45;4b00&#45;96d7&#45;c2e9ad693cba</text>
</g>
<!-- SARS&#45;CoV&#45;1 proteins&#45;&gt;pr_96ccbe7d&#45;0931&#45;4b00&#45;96d7&#45;c2e9ad693cba -->
<g id="edge8" class="edge"><title>SARS&#45;CoV&#45;1 proteins&#45;&gt;pr_96ccbe7d&#45;0931&#45;4b00&#45;96d7&#45;c2e9ad693cba</title>
<path fill="none" stroke="black" d="M302.314,-840.806C309.367,-831.129 317.801,-819.557 326.248,-807.966"/>
<polygon fill="black" stroke="black" points="329.32,-809.693 332.381,-799.55 323.663,-805.57 329.32,-809.693"/>
</g>
<!-- pr_98ba0f82&#45;9015&#45;4d02&#45;bfb3&#45;c35302535094 -->
<g id="node19" class="node"><title>pr_98ba0f82&#45;9015&#45;4d02&#45;bfb3&#45;c35302535094</title>
<polygon fill="none" stroke="black" points="339,-589.368 240,-589.368 240,-490.368 339,-490.368 339,-589.368"/>
<text text-anchor="middle" x="289.5" y="-538.668" font-family="Times,serif" font-size="4.00">pr_98ba0f82&#45;9015&#45;4d02&#45;bfb3&#45;c35302535094</text>
</g>
<!-- SARS&#45;CoV&#45;1 proteins&#45;&gt;pr_98ba0f82&#45;9015&#45;4d02&#45;bfb3&#45;c35302535094 -->
<g id="edge9" class="edge"><title>SARS&#45;CoV&#45;1 proteins&#45;&gt;pr_98ba0f82&#45;9015&#45;4d02&#45;bfb3&#45;c35302535094</title>
<path fill="none" stroke="black" d="M284.961,-835.314C285.785,-781.906 287.52,-669.297 288.591,-599.857"/>
<polygon fill="black" stroke="black" points="292.095,-599.571 288.75,-589.519 285.096,-599.463 292.095,-599.571"/>
</g>
<!-- pr_e676bd57&#45;2f08&#45;49f0&#45;aebc&#45;4f5f55a10e62&#45;&gt;MLK1/2/3 -->
<g id="edge10" class="edge"><title>pr_e676bd57&#45;2f08&#45;49f0&#45;aebc&#45;4f5f55a10e62&#45;&gt;MLK1/2/3</title>
<path fill="none" stroke="black" d="M219.17,-798.237C219.404,-811.853 219.124,-826.187 218.33,-838.088"/>
<polygon fill="black" stroke="black" points="214.826,-837.979 217.455,-848.243 221.8,-838.58 214.826,-837.979"/>
</g>
<!-- ATF2 -->
<g id="node6" class="node"><title>ATF2</title>
<ellipse fill="none" stroke="black" cx="49.5" cy="-18" rx="18" ry="18"/>
<text text-anchor="middle" x="49.5" y="-16.8" font-family="Times,serif" font-size="4.00">ATF2</text>
</g>
<!-- pr_2ae7db56&#45;0e05&#45;456b&#45;9e24&#45;385afd0d1fcc -->
<g id="node7" class="node"><title>pr_2ae7db56&#45;0e05&#45;456b&#45;9e24&#45;385afd0d1fcc</title>
<polygon fill="none" stroke="black" points="99,-171.5 0,-171.5 0,-72.5 99,-72.5 99,-171.5"/>
<text text-anchor="middle" x="49.5" y="-120.8" font-family="Times,serif" font-size="4.00">pr_2ae7db56&#45;0e05&#45;456b&#45;9e24&#45;385afd0d1fcc</text>
</g>
<!-- ATF2&#45;&gt;pr_2ae7db56&#45;0e05&#45;456b&#45;9e24&#45;385afd0d1fcc -->
<g id="edge11" class="edge"><title>ATF2&#45;&gt;pr_2ae7db56&#45;0e05&#45;456b&#45;9e24&#45;385afd0d1fcc</title>
<path fill="none" stroke="black" d="M54.6132,-35.3739C55.4745,-42.8817 55.9958,-52.2863 56.1773,-62.0907"/>
<polygon fill="black" stroke="black" points="52.6792,-62.4125 56.2434,-72.3898 59.6791,-62.3676 52.6792,-62.4125"/>
</g>
<!-- pr_2ae7db56&#45;0e05&#45;456b&#45;9e24&#45;385afd0d1fcc&#45;&gt;ATF2 -->
<g id="edge12" class="edge"><title>pr_2ae7db56&#45;0e05&#45;456b&#45;9e24&#45;385afd0d1fcc&#45;&gt;ATF2</title>
<path fill="none" stroke="black" d="M42.7566,-72.3898C42.7054,-63.1138 42.9525,-53.7321 43.4979,-45.4758"/>
<polygon fill="black" stroke="black" points="46.9967,-45.6422 44.3868,-35.3739 40.0237,-45.0286 46.9967,-45.6422"/>
</g>
<!-- JNK -->
<g id="node8" class="node"><title>JNK</title>
<ellipse fill="none" stroke="black" cx="316.5" cy="-227.092" rx="18" ry="18"/>
<text text-anchor="middle" x="316.5" y="-225.892" font-family="Times,serif" font-size="4.00">JNK</text>
</g>
<!-- JNK&#45;&gt;pr_2ae7db56&#45;0e05&#45;456b&#45;9e24&#45;385afd0d1fcc -->
<g id="edge13" class="edge"><title>JNK&#45;&gt;pr_2ae7db56&#45;0e05&#45;456b&#45;9e24&#45;385afd0d1fcc</title>
<path fill="none" stroke="black" d="M298.479,-224.168C262.581,-219.786 180.059,-206.951 108.288,-171.836"/>
<polygon fill="black" stroke="black" points="109.646,-168.601 99.1429,-167.207 106.485,-174.846 109.646,-168.601"/>
</g>
<!-- pr_d2c0ed9e&#45;64fd&#45;4be3&#45;b26f&#45;1218bc2e3062 -->
<g id="node10" class="node"><title>pr_d2c0ed9e&#45;64fd&#45;4be3&#45;b26f&#45;1218bc2e3062</title>
<polygon fill="none" stroke="black" points="216,-171.5 117,-171.5 117,-72.5 216,-72.5 216,-171.5"/>
<text text-anchor="middle" x="166.5" y="-120.8" font-family="Times,serif" font-size="4.00">pr_d2c0ed9e&#45;64fd&#45;4be3&#45;b26f&#45;1218bc2e3062</text>
</g>
<!-- JNK&#45;&gt;pr_d2c0ed9e&#45;64fd&#45;4be3&#45;b26f&#45;1218bc2e3062 -->
<g id="edge14" class="edge"><title>JNK&#45;&gt;pr_d2c0ed9e&#45;64fd&#45;4be3&#45;b26f&#45;1218bc2e3062</title>
<path fill="none" stroke="black" d="M300.906,-217.803C282.405,-207.749 250.875,-189.913 225.5,-172 225.119,-171.731 224.738,-171.461 224.356,-171.188"/>
<polygon fill="black" stroke="black" points="226.418,-168.36 216.289,-165.253 222.27,-173.999 226.418,-168.36"/>
</g>
<!-- pr_41fd2dca&#45;0746&#45;46b7&#45;9e51&#45;8c003dd33052 -->
<g id="node12" class="node"><title>pr_41fd2dca&#45;0746&#45;46b7&#45;9e51&#45;8c003dd33052</title>
<polygon fill="none" stroke="black" points="334.5,-172 234.5,-172 234.5,-72 334.5,-72 334.5,-172"/>
<text text-anchor="middle" x="284.5" y="-120.8" font-family="Times,serif" font-size="4.00">pr_41fd2dca&#45;0746&#45;46b7&#45;9e51&#45;8c003dd33052</text>
</g>
<!-- JNK&#45;&gt;pr_41fd2dca&#45;0746&#45;46b7&#45;9e51&#45;8c003dd33052 -->
<g id="edge15" class="edge"><title>JNK&#45;&gt;pr_41fd2dca&#45;0746&#45;46b7&#45;9e51&#45;8c003dd33052</title>
<path fill="none" stroke="black" d="M311.359,-209.528C308.949,-201.765 305.916,-191.996 302.765,-181.842"/>
<polygon fill="black" stroke="black" points="306.03,-180.554 299.722,-172.041 299.344,-182.629 306.03,-180.554"/>
</g>
<!-- pr_74c1b317&#45;d477&#45;416c&#45;a97f&#45;46dea43c0cc2 -->
<g id="node14" class="node"><title>pr_74c1b317&#45;d477&#45;416c&#45;a97f&#45;46dea43c0cc2</title>
<polygon fill="none" stroke="black" points="570.5,-172 470.5,-172 470.5,-72 570.5,-72 570.5,-172"/>
<text text-anchor="middle" x="520.5" y="-120.8" font-family="Times,serif" font-size="4.00">pr_74c1b317&#45;d477&#45;416c&#45;a97f&#45;46dea43c0cc2</text>
</g>
<!-- JNK&#45;&gt;pr_74c1b317&#45;d477&#45;416c&#45;a97f&#45;46dea43c0cc2 -->
<g id="edge16" class="edge"><title>JNK&#45;&gt;pr_74c1b317&#45;d477&#45;416c&#45;a97f&#45;46dea43c0cc2</title>
<path fill="none" stroke="black" d="M333.414,-220.579C366.566,-209.643 438.832,-185.131 461.5,-172 461.594,-171.946 461.687,-171.891 461.781,-171.837"/>
<polygon fill="black" stroke="black" points="463.852,-174.669 470.456,-166.384 460.127,-168.742 463.852,-174.669"/>
</g>
<!-- JNK&#45;&gt;pr_721a8a69&#45;f84c&#45;4d70&#45;9485&#45;8436d6df1f3c -->
<g id="edge17" class="edge"><title>JNK&#45;&gt;pr_721a8a69&#45;f84c&#45;4d70&#45;9485&#45;8436d6df1f3c</title>
<path fill="none" stroke="black" d="M321.639,-244.704C322.509,-252.393 323.026,-262.036 323.192,-272.049"/>
<polygon fill="black" stroke="black" points="319.692,-272.144 323.24,-282.127 326.692,-272.111 319.692,-272.144"/>
</g>
<!-- pr_af424aeb&#45;aabc&#45;4d10&#45;8120&#45;fa1c9607cc7b -->
<g id="node23" class="node"><title>pr_af424aeb&#45;aabc&#45;4d10&#45;8120&#45;fa1c9607cc7b</title>
<polygon fill="none" stroke="black" points="452,-171.5 353,-171.5 353,-72.5 452,-72.5 452,-171.5"/>
<text text-anchor="middle" x="402.5" y="-120.8" font-family="Times,serif" font-size="4.00">pr_af424aeb&#45;aabc&#45;4d10&#45;8120&#45;fa1c9607cc7b</text>
</g>
<!-- JNK&#45;&gt;pr_af424aeb&#45;aabc&#45;4d10&#45;8120&#45;fa1c9607cc7b -->
<g id="edge18" class="edge"><title>JNK&#45;&gt;pr_af424aeb&#45;aabc&#45;4d10&#45;8120&#45;fa1c9607cc7b</title>
<path fill="none" stroke="black" d="M324.552,-210.434C330.571,-202.013 339.142,-191.056 348.431,-179.76"/>
<polygon fill="black" stroke="black" points="351.253,-181.841 354.954,-171.914 345.87,-177.366 351.253,-181.841"/>
</g>
<!-- TP53 -->
<g id="node9" class="node"><title>TP53</title>
<ellipse fill="none" stroke="black" cx="166.5" cy="-18" rx="18" ry="18"/>
<text text-anchor="middle" x="166.5" y="-16.8" font-family="Times,serif" font-size="4.00">TP53</text>
</g>
<!-- TP53&#45;&gt;pr_d2c0ed9e&#45;64fd&#45;4be3&#45;b26f&#45;1218bc2e3062 -->
<g id="edge19" class="edge"><title>TP53&#45;&gt;pr_d2c0ed9e&#45;64fd&#45;4be3&#45;b26f&#45;1218bc2e3062</title>
<path fill="none" stroke="black" d="M171.613,-35.3739C172.474,-42.8817 172.996,-52.2863 173.177,-62.0907"/>
<polygon fill="black" stroke="black" points="169.679,-62.4125 173.243,-72.3898 176.679,-62.3676 169.679,-62.4125"/>
</g>
<!-- pr_d2c0ed9e&#45;64fd&#45;4be3&#45;b26f&#45;1218bc2e3062&#45;&gt;TP53 -->
<g id="edge20" class="edge"><title>pr_d2c0ed9e&#45;64fd&#45;4be3&#45;b26f&#45;1218bc2e3062&#45;&gt;TP53</title>
<path fill="none" stroke="black" d="M159.757,-72.3898C159.705,-63.1138 159.952,-53.7321 160.498,-45.4758"/>
<polygon fill="black" stroke="black" points="163.997,-45.6422 161.387,-35.3739 157.024,-45.0286 163.997,-45.6422"/>
</g>
<!-- BCL2 -->
<g id="node11" class="node"><title>BCL2</title>
<ellipse fill="none" stroke="black" cx="284.5" cy="-18" rx="18" ry="18"/>
<text text-anchor="middle" x="284.5" y="-16.8" font-family="Times,serif" font-size="4.00">BCL2</text>
</g>
<!-- BCL2&#45;&gt;pr_41fd2dca&#45;0746&#45;46b7&#45;9e51&#45;8c003dd33052 -->
<g id="edge21" class="edge"><title>BCL2&#45;&gt;pr_41fd2dca&#45;0746&#45;46b7&#45;9e51&#45;8c003dd33052</title>
<path fill="none" stroke="black" d="M289.641,-35.6151C290.475,-42.9907 290.985,-52.1624 291.171,-61.7331"/>
<polygon fill="black" stroke="black" points="287.671,-61.8193 291.246,-71.7926 294.671,-61.7665 287.671,-61.8193"/>
</g>
<!-- pr_41fd2dca&#45;0746&#45;46b7&#45;9e51&#45;8c003dd33052&#45;&gt;BCL2 -->
<g id="edge22" class="edge"><title>pr_41fd2dca&#45;0746&#45;46b7&#45;9e51&#45;8c003dd33052&#45;&gt;BCL2</title>
<path fill="none" stroke="black" d="M277.754,-71.7926C277.717,-62.8265 277.958,-53.7864 278.478,-45.7826"/>
<polygon fill="black" stroke="black" points="281.982,-45.88 279.359,-35.6151 275.009,-45.2754 281.982,-45.88"/>
</g>
<!-- AP&#45;1 -->
<g id="node13" class="node"><title>AP&#45;1</title>
<ellipse fill="none" stroke="black" cx="520.5" cy="-18" rx="18" ry="18"/>
<text text-anchor="middle" x="520.5" y="-16.8" font-family="Times,serif" font-size="4.00">AP&#45;1</text>
</g>
<!-- AP&#45;1&#45;&gt;pr_74c1b317&#45;d477&#45;416c&#45;a97f&#45;46dea43c0cc2 -->
<g id="edge23" class="edge"><title>AP&#45;1&#45;&gt;pr_74c1b317&#45;d477&#45;416c&#45;a97f&#45;46dea43c0cc2</title>
<path fill="none" stroke="black" d="M525.641,-35.6151C526.475,-42.9907 526.985,-52.1624 527.171,-61.7331"/>
<polygon fill="black" stroke="black" points="523.671,-61.8193 527.246,-71.7926 530.671,-61.7665 523.671,-61.8193"/>
</g>
<!-- pr_74c1b317&#45;d477&#45;416c&#45;a97f&#45;46dea43c0cc2&#45;&gt;AP&#45;1 -->
<g id="edge24" class="edge"><title>pr_74c1b317&#45;d477&#45;416c&#45;a97f&#45;46dea43c0cc2&#45;&gt;AP&#45;1</title>
<path fill="none" stroke="black" d="M513.754,-71.7926C513.717,-62.8265 513.958,-53.7864 514.478,-45.7826"/>
<polygon fill="black" stroke="black" points="517.982,-45.88 515.359,-35.6151 511.009,-45.2754 517.982,-45.88"/>
</g>
<!-- 3b protein -->
<g id="node15" class="node"><title>3b protein</title>
<ellipse fill="none" stroke="black" cx="520.5" cy="-227.092" rx="19.1842" ry="19.1842"/>
<text text-anchor="middle" x="520.5" y="-225.892" font-family="Times,serif" font-size="4.00">3b protein</text>
</g>
<!-- 3b protein&#45;&gt;pr_74c1b317&#45;d477&#45;416c&#45;a97f&#45;46dea43c0cc2 -->
<g id="edge25" class="edge"><title>3b protein&#45;&gt;pr_74c1b317&#45;d477&#45;416c&#45;a97f&#45;46dea43c0cc2</title>
<path fill="none" stroke="black" d="M520.5,-207.661C520.5,-200.346 520.5,-191.487 520.5,-182.292"/>
<polygon fill="black" stroke="black" points="524,-182.239 520.5,-172.239 517,-182.239 524,-182.239"/>
</g>
<!-- MEKK1/4 -->
<g id="node16" class="node"><title>MEKK1/4</title>
<ellipse fill="none" stroke="black" cx="368.5" cy="-643.929" rx="18.6233" ry="18.6233"/>
<text text-anchor="middle" x="368.5" y="-642.729" font-family="Times,serif" font-size="4.00">MEKK1/4</text>
</g>
<!-- MEKK1/4&#45;&gt;pr_96ccbe7d&#45;0931&#45;4b00&#45;96d7&#45;c2e9ad693cba -->
<g id="edge26" class="edge"><title>MEKK1/4&#45;&gt;pr_96ccbe7d&#45;0931&#45;4b00&#45;96d7&#45;c2e9ad693cba</title>
<path fill="none" stroke="black" d="M373.693,-662.19C374.501,-669.601 374.994,-678.741 375.174,-688.264"/>
<polygon fill="black" stroke="black" points="371.674,-688.297 375.246,-698.271 378.673,-688.246 371.674,-688.297"/>
</g>
<!-- MEKK1/4&#45;&gt;pr_98ba0f82&#45;9015&#45;4d02&#45;bfb3&#45;c35302535094 -->
<g id="edge27" class="edge"><title>MEKK1/4&#45;&gt;pr_98ba0f82&#45;9015&#45;4d02&#45;bfb3&#45;c35302535094</title>
<path fill="none" stroke="black" d="M357.515,-628.738C351.039,-620.371 342.374,-609.176 333.401,-597.584"/>
<polygon fill="black" stroke="black" points="336.052,-595.291 327.163,-589.526 330.517,-599.576 336.052,-595.291"/>
</g>
<!-- pr_96ccbe7d&#45;0931&#45;4b00&#45;96d7&#45;c2e9ad693cba&#45;&gt;MEKK1/4 -->
<g id="edge28" class="edge"><title>pr_96ccbe7d&#45;0931&#45;4b00&#45;96d7&#45;c2e9ad693cba&#45;&gt;MEKK1/4</title>
<path fill="none" stroke="black" d="M361.754,-698.271C361.717,-689.353 361.951,-680.363 362.454,-672.37"/>
<polygon fill="black" stroke="black" points="365.959,-672.448 363.307,-662.19 358.984,-671.863 365.959,-672.448"/>
</g>
<!-- MAP2K4 -->
<g id="node18" class="node"><title>MAP2K4</title>
<ellipse fill="none" stroke="black" cx="289.5" cy="-435.276" rx="18" ry="18"/>
<text text-anchor="middle" x="289.5" y="-434.076" font-family="Times,serif" font-size="4.00">MAP2K4</text>
</g>
<!-- MAP2K4&#45;&gt;pr_98ba0f82&#45;9015&#45;4d02&#45;bfb3&#45;c35302535094 -->
<g id="edge29" class="edge"><title>MAP2K4&#45;&gt;pr_98ba0f82&#45;9015&#45;4d02&#45;bfb3&#45;c35302535094</title>
<path fill="none" stroke="black" d="M294.626,-452.857C295.496,-460.536 296.017,-470.17 296.187,-480.188"/>
<polygon fill="black" stroke="black" points="292.688,-480.295 296.242,-490.276 299.688,-480.257 292.688,-480.295"/>
</g>
<!-- MAP2K4&#45;&gt;pr_721a8a69&#45;f84c&#45;4d70&#45;9485&#45;8436d6df1f3c -->
<g id="edge30" class="edge"><title>MAP2K4&#45;&gt;pr_721a8a69&#45;f84c&#45;4d70&#45;9485&#45;8436d6df1f3c</title>
<path fill="none" stroke="black" d="M293.959,-417.417C295.981,-409.772 298.503,-400.232 301.122,-390.329"/>
<polygon fill="black" stroke="black" points="304.585,-390.924 303.759,-380.362 297.818,-389.134 304.585,-390.924"/>
</g>
<!-- pr_98ba0f82&#45;9015&#45;4d02&#45;bfb3&#45;c35302535094&#45;&gt;MAP2K4 -->
<g id="edge31" class="edge"><title>pr_98ba0f82&#45;9015&#45;4d02&#45;bfb3&#45;c35302535094&#45;&gt;MAP2K4</title>
<path fill="none" stroke="black" d="M282.758,-490.276C282.701,-480.913 282.943,-471.43 283.487,-463.078"/>
<polygon fill="black" stroke="black" points="286.996,-463.122 284.374,-452.857 280.022,-462.517 286.996,-463.122"/>
</g>
<!-- pr_721a8a69&#45;f84c&#45;4d70&#45;9485&#45;8436d6df1f3c&#45;&gt;JNK -->
<g id="edge32" class="edge"><title>pr_721a8a69&#45;f84c&#45;4d70&#45;9485&#45;8436d6df1f3c&#45;&gt;JNK</title>
<path fill="none" stroke="black" d="M309.76,-282.127C309.696,-272.778 309.934,-263.294 310.475,-254.936"/>
<polygon fill="black" stroke="black" points="313.986,-254.969 311.361,-244.704 307.012,-254.365 313.986,-254.969"/>
</g>
<!-- 7a protein -->
<g id="node21" class="node"><title>7a protein</title>
<ellipse fill="none" stroke="black" cx="344.5" cy="-435.276" rx="19.1842" ry="19.1842"/>
<text text-anchor="middle" x="344.5" y="-434.076" font-family="Times,serif" font-size="4.00">7a protein</text>
</g>
<!-- 7a protein&#45;&gt;pr_721a8a69&#45;f84c&#45;4d70&#45;9485&#45;8436d6df1f3c -->
<g id="edge33" class="edge"><title>7a protein&#45;&gt;pr_721a8a69&#45;f84c&#45;4d70&#45;9485&#45;8436d6df1f3c</title>
<path fill="none" stroke="black" d="M339.623,-416.493C337.555,-408.952 335.016,-399.695 332.387,-390.109"/>
<polygon fill="black" stroke="black" points="335.762,-389.182 329.742,-380.464 329.011,-391.034 335.762,-389.182"/>
</g>
<!-- 3a protein -->
<g id="node22" class="node"><title>3a protein</title>
<ellipse fill="none" stroke="black" cx="400.5" cy="-435.276" rx="19.1842" ry="19.1842"/>
<text text-anchor="middle" x="400.5" y="-434.076" font-family="Times,serif" font-size="4.00">3a protein</text>
</g>
<!-- 3a protein&#45;&gt;pr_721a8a69&#45;f84c&#45;4d70&#45;9485&#45;8436d6df1f3c -->
<g id="edge34" class="edge"><title>3a protein&#45;&gt;pr_721a8a69&#45;f84c&#45;4d70&#45;9485&#45;8436d6df1f3c</title>
<path fill="none" stroke="black" d="M388.82,-420.08C381.794,-411.541 372.344,-400.055 362.597,-388.209"/>
<polygon fill="black" stroke="black" points="365.227,-385.897 356.171,-380.399 359.822,-390.345 365.227,-385.897"/>
</g>
<!-- pr_af424aeb&#45;aabc&#45;4d10&#45;8120&#45;fa1c9607cc7b&#45;&gt;JNK -->
<g id="edge35" class="edge"><title>pr_af424aeb&#45;aabc&#45;4d10&#45;8120&#45;fa1c9607cc7b&#45;&gt;JNK</title>
<path fill="none" stroke="black" d="M368.5,-171.838C357.925,-184.61 346.609,-197.604 337.181,-207.672"/>
<polygon fill="black" stroke="black" points="334.485,-205.426 330.074,-215.059 339.529,-210.279 334.485,-205.426"/>
</g>
<!-- S protein -->
<g id="node24" class="node"><title>S protein</title>
<ellipse fill="none" stroke="black" cx="402.5" cy="-227.092" rx="18.0625" ry="18.0625"/>
<text text-anchor="middle" x="402.5" y="-225.892" font-family="Times,serif" font-size="4.00">S protein</text>
</g>
<!-- S protein&#45;&gt;pr_af424aeb&#45;aabc&#45;4d10&#45;8120&#45;fa1c9607cc7b -->
<g id="edge36" class="edge"><title>S protein&#45;&gt;pr_af424aeb&#45;aabc&#45;4d10&#45;8120&#45;fa1c9607cc7b</title>
<path fill="none" stroke="black" d="M402.5,-208.604C402.5,-201.015 402.5,-191.642 402.5,-181.913"/>
<polygon fill="black" stroke="black" points="406,-181.704 402.5,-171.704 399,-181.704 406,-181.704"/>
</g>
</g>
</svg>
