<?xml version="1.0" encoding="UTF-8" standalone="no"?>
<!DOCTYPE svg PUBLIC "-//W3C//DTD SVG 1.1//EN"
 "http://www.w3.org/Graphics/SVG/1.1/DTD/svg11.dtd">
<!-- Generated by graphviz version 2.38.0 (20140413.2041)
 -->
<!-- Title: G Pages: 1 -->
<svg width="574pt" height="903pt"
 viewBox="0.00 0.00 574.00 903.01" xmlns="http://www.w3.org/2000/svg" xmlns:xlink="http://www.w3.org/1999/xlink">
<g id="graph0" class="graph" transform="scale(1 1) rotate(0) translate(4 899.009)">
<title>G</title>
<polygon fill="white" stroke="none" points="-4,4 -4,-899.009 570,-899.009 570,4 -4,4"/>
<!-- MAP2K7 -->
<g id="node1" class="node"><title>MAP2K7</title>
<ellipse fill="none" stroke="black" cx="94" cy="-864.25" rx="18" ry="18"/>
<text text-anchor="middle" x="94" y="-863.05" font-family="Times,serif" font-size="4.00">MAP2K7</text>
</g>
<!-- pr_908c2c9b&#45;3d6e&#45;473d&#45;9f7f&#45;018a6380b831 -->
<g id="node2" class="node"><title>pr_908c2c9b&#45;3d6e&#45;473d&#45;9f7f&#45;018a6380b831</title>
<polygon fill="none" stroke="black" points="143.5,-797.491 44.5,-797.491 44.5,-698.491 143.5,-698.491 143.5,-797.491"/>
<text text-anchor="middle" x="94" y="-746.791" font-family="Times,serif" font-size="4.00">pr_908c2c9b&#45;3d6e&#45;473d&#45;9f7f&#45;018a6380b831</text>
</g>
<!-- MAP2K7&#45;&gt;pr_908c2c9b&#45;3d6e&#45;473d&#45;9f7f&#45;018a6380b831 -->
<g id="edge1" class="edge"><title>MAP2K7&#45;&gt;pr_908c2c9b&#45;3d6e&#45;473d&#45;9f7f&#45;018a6380b831</title>
<path fill="none" stroke="black" d="M89.0994,-846.879C87.9207,-836.501 87.3054,-822.38 87.2536,-808.093"/>
<polygon fill="black" stroke="black" points="90.7557,-807.733 87.3154,-797.712 83.7558,-807.691 90.7557,-807.733"/>
</g>
<!-- pr_20e067fa&#45;53b5&#45;43fe&#45;9d77&#45;b317a1a826fd -->
<g id="node20" class="node"><title>pr_20e067fa&#45;53b5&#45;43fe&#45;9d77&#45;b317a1a826fd</title>
<polygon fill="none" stroke="black" points="364,-380.184 266,-380.184 266,-282.184 364,-282.184 364,-380.184"/>
<text text-anchor="middle" x="315" y="-329.984" font-family="Times,serif" font-size="4.00">pr_20e067fa&#45;53b5&#45;43fe&#45;9d77&#45;b317a1a826fd</text>
</g>
<!-- MAP2K7&#45;&gt;pr_20e067fa&#45;53b5&#45;43fe&#45;9d77&#45;b317a1a826fd -->
<g id="edge2" class="edge"><title>MAP2K7&#45;&gt;pr_20e067fa&#45;53b5&#45;43fe&#45;9d77&#45;b317a1a826fd</title>
<path fill="none" stroke="black" d="M80.1451,-852.308C66.1935,-840.429 45.3038,-820.101 35,-797.491 6.66556,-735.313 16,-713.258 16,-644.929 16,-644.929 16,-644.929 16,-538.868 16,-423.266 169.107,-367.275 256.198,-344.777"/>
<polygon fill="black" stroke="black" points="257.116,-348.155 265.961,-342.324 255.41,-341.366 257.116,-348.155"/>
</g>
<!-- pr_908c2c9b&#45;3d6e&#45;473d&#45;9f7f&#45;018a6380b831&#45;&gt;MAP2K7 -->
<g id="edge3" class="edge"><title>pr_908c2c9b&#45;3d6e&#45;473d&#45;9f7f&#45;018a6380b831&#45;&gt;MAP2K7</title>
<path fill="none" stroke="black" d="M100.685,-797.712C100.893,-811.043 100.602,-824.999 99.8117,-836.589"/>
<polygon fill="black" stroke="black" points="96.2963,-836.609 98.9006,-846.879 103.269,-837.227 96.2963,-836.609"/>
</g>
<!-- MLK1/2/3 -->
<g id="node3" class="node"><title>MLK1/2/3</title>
<ellipse fill="none" stroke="black" cx="211" cy="-864.25" rx="18.6233" ry="18.6233"/>
<text text-anchor="middle" x="211" y="-863.05" font-family="Times,serif" font-size="4.00">MLK1/2/3</text>
</g>
<!-- MLK1/2/3&#45;&gt;pr_908c2c9b&#45;3d6e&#45;473d&#45;9f7f&#45;018a6380b831 -->
<g id="edge4" class="edge"><title>MLK1/2/3&#45;&gt;pr_908c2c9b&#45;3d6e&#45;473d&#45;9f7f&#45;018a6380b831</title>
<path fill="none" stroke="black" d="M198.032,-850.585C186.475,-839.299 168.713,-821.953 151.117,-804.77"/>
<polygon fill="black" stroke="black" points="153.205,-801.917 143.605,-797.434 148.314,-806.925 153.205,-801.917"/>
</g>
<!-- pr_fe1c8498&#45;4799&#45;43ae&#45;adad&#45;28636fec252f -->
<g id="node5" class="node"><title>pr_fe1c8498&#45;4799&#45;43ae&#45;adad&#45;28636fec252f</title>
<polygon fill="none" stroke="black" points="260,-796.991 162,-796.991 162,-698.991 260,-698.991 260,-796.991"/>
<text text-anchor="middle" x="211" y="-746.791" font-family="Times,serif" font-size="4.00">pr_fe1c8498&#45;4799&#45;43ae&#45;adad&#45;28636fec252f</text>
</g>
<!-- MLK1/2/3&#45;&gt;pr_fe1c8498&#45;4799&#45;43ae&#45;adad&#45;28636fec252f -->
<g id="edge5" class="edge"><title>MLK1/2/3&#45;&gt;pr_fe1c8498&#45;4799&#45;43ae&#45;adad&#45;28636fec252f</title>
<path fill="none" stroke="black" d="M205.991,-845.896C204.864,-835.447 204.285,-821.474 204.251,-807.397"/>
<polygon fill="black" stroke="black" points="207.753,-807.202 204.324,-797.178 200.753,-807.153 207.753,-807.202"/>
</g>
<!-- SARS&#45;CoV&#45;1 proteins -->
<g id="node4" class="node"><title>SARS&#45;CoV&#45;1 proteins</title>
<ellipse fill="none" stroke="black" cx="283" cy="-864.25" rx="30.5202" ry="30.5202"/>
<text text-anchor="middle" x="283" y="-863.05" font-family="Times,serif" font-size="4.00">SARS&#45;CoV&#45;1 proteins</text>
</g>
<!-- SARS&#45;CoV&#45;1 proteins&#45;&gt;pr_908c2c9b&#45;3d6e&#45;473d&#45;9f7f&#45;018a6380b831 -->
<g id="edge6" class="edge"><title>SARS&#45;CoV&#45;1 proteins&#45;&gt;pr_908c2c9b&#45;3d6e&#45;473d&#45;9f7f&#45;018a6380b831</title>
<path fill="none" stroke="black" d="M258.408,-845.367C252.221,-841.221 245.49,-836.999 239,-833.491 202.549,-813.787 188.492,-818.874 153,-797.491 152.808,-797.375 152.617,-797.259 152.425,-797.142"/>
<polygon fill="black" stroke="black" points="154.102,-794.058 143.808,-791.551 150.291,-799.93 154.102,-794.058"/>
</g>
<!-- SARS&#45;CoV&#45;1 proteins&#45;&gt;pr_fe1c8498&#45;4799&#45;43ae&#45;adad&#45;28636fec252f -->
<g id="edge7" class="edge"><title>SARS&#45;CoV&#45;1 proteins&#45;&gt;pr_fe1c8498&#45;4799&#45;43ae&#45;adad&#45;28636fec252f</title>
<path fill="none" stroke="black" d="M267.021,-837.892C261.012,-828.357 253.913,-817.09 246.822,-805.838"/>
<polygon fill="black" stroke="black" points="249.713,-803.86 241.42,-797.266 243.791,-807.592 249.713,-803.86"/>
</g>
<!-- pr_78b6f3fb&#45;a98b&#45;417a&#45;953e&#45;30a0663c8164 -->
<g id="node17" class="node"><title>pr_78b6f3fb&#45;a98b&#45;417a&#45;953e&#45;30a0663c8164</title>
<polygon fill="none" stroke="black" points="415.5,-797.491 316.5,-797.491 316.5,-698.491 415.5,-698.491 415.5,-797.491"/>
<text text-anchor="middle" x="366" y="-746.791" font-family="Times,serif" font-size="4.00">pr_78b6f3fb&#45;a98b&#45;417a&#45;953e&#45;30a0663c8164</text>
</g>
<!-- SARS&#45;CoV&#45;1 proteins&#45;&gt;pr_78b6f3fb&#45;a98b&#45;417a&#45;953e&#45;30a0663c8164 -->
<g id="edge8" class="edge"><title>SARS&#45;CoV&#45;1 proteins&#45;&gt;pr_78b6f3fb&#45;a98b&#45;417a&#45;953e&#45;30a0663c8164</title>
<path fill="none" stroke="black" d="M300.602,-839.018C307.716,-829.225 316.252,-817.475 324.772,-805.746"/>
<polygon fill="black" stroke="black" points="327.605,-807.802 330.65,-797.654 321.941,-803.688 327.605,-807.802"/>
</g>
<!-- pr_635184b0&#45;0c96&#45;4012&#45;85f8&#45;094d7a137cf8 -->
<g id="node19" class="node"><title>pr_635184b0&#45;0c96&#45;4012&#45;85f8&#45;094d7a137cf8</title>
<polygon fill="none" stroke="black" points="337.5,-589.368 238.5,-589.368 238.5,-490.368 337.5,-490.368 337.5,-589.368"/>
<text text-anchor="middle" x="288" y="-538.668" font-family="Times,serif" font-size="4.00">pr_635184b0&#45;0c96&#45;4012&#45;85f8&#45;094d7a137cf8</text>
</g>
<!-- SARS&#45;CoV&#45;1 proteins&#45;&gt;pr_635184b0&#45;0c96&#45;4012&#45;85f8&#45;094d7a137cf8 -->
<g id="edge9" class="edge"><title>SARS&#45;CoV&#45;1 proteins&#45;&gt;pr_635184b0&#45;0c96&#45;4012&#45;85f8&#45;094d7a137cf8</title>
<path fill="none" stroke="black" d="M283.466,-833.21C284.29,-780.058 286.02,-668.557 287.088,-599.657"/>
<polygon fill="black" stroke="black" points="290.592,-599.45 287.247,-589.397 283.593,-599.341 290.592,-599.45"/>
</g>
<!-- pr_fe1c8498&#45;4799&#45;43ae&#45;adad&#45;28636fec252f&#45;&gt;MLK1/2/3 -->
<g id="edge10" class="edge"><title>pr_fe1c8498&#45;4799&#45;43ae&#45;adad&#45;28636fec252f&#45;&gt;MLK1/2/3</title>
<path fill="none" stroke="black" d="M217.676,-797.178C217.895,-810.292 217.629,-824.051 216.878,-835.597"/>
<polygon fill="black" stroke="black" points="213.362,-835.638 216.009,-845.896 220.337,-836.226 213.362,-835.638"/>
</g>
<!-- ATF2 -->
<g id="node6" class="node"><title>ATF2</title>
<ellipse fill="none" stroke="black" cx="49" cy="-18" rx="18" ry="18"/>
<text text-anchor="middle" x="49" y="-16.8" font-family="Times,serif" font-size="4.00">ATF2</text>
</g>
<!-- pr_57c4037e&#45;3ced&#45;45cd&#45;afbe&#45;af4cc5261f44 -->
<g id="node7" class="node"><title>pr_57c4037e&#45;3ced&#45;45cd&#45;afbe&#45;af4cc5261f44</title>
<polygon fill="none" stroke="black" points="98,-171 7.10543e-15,-171 7.10543e-15,-73 98,-73 98,-171"/>
<text text-anchor="middle" x="49" y="-120.8" font-family="Times,serif" font-size="4.00">pr_57c4037e&#45;3ced&#45;45cd&#45;afbe&#45;af4cc5261f44</text>
</g>
<!-- ATF2&#45;&gt;pr_57c4037e&#45;3ced&#45;45cd&#45;afbe&#45;af4cc5261f44 -->
<g id="edge11" class="edge"><title>ATF2&#45;&gt;pr_57c4037e&#45;3ced&#45;45cd&#45;afbe&#45;af4cc5261f44</title>
<path fill="none" stroke="black" d="M54.1387,-35.5973C55.0087,-43.2796 55.5265,-52.9131 55.6918,-62.9174"/>
<polygon fill="black" stroke="black" points="52.1921,-63.0036 55.7397,-72.9868 59.192,-62.9702 52.1921,-63.0036"/>
</g>
<!-- pr_57c4037e&#45;3ced&#45;45cd&#45;afbe&#45;af4cc5261f44&#45;&gt;ATF2 -->
<g id="edge12" class="edge"><title>pr_57c4037e&#45;3ced&#45;45cd&#45;afbe&#45;af4cc5261f44&#45;&gt;ATF2</title>
<path fill="none" stroke="black" d="M42.2603,-72.9868C42.1958,-63.6456 42.4342,-54.1703 42.9754,-45.8202"/>
<polygon fill="black" stroke="black" points="46.4848,-45.8622 43.8613,-35.5973 39.5109,-45.2577 46.4848,-45.8622"/>
</g>
<!-- JNK -->
<g id="node8" class="node"><title>JNK</title>
<ellipse fill="none" stroke="black" cx="315" cy="-227.092" rx="18" ry="18"/>
<text text-anchor="middle" x="315" y="-225.892" font-family="Times,serif" font-size="4.00">JNK</text>
</g>
<!-- JNK&#45;&gt;pr_57c4037e&#45;3ced&#45;45cd&#45;afbe&#45;af4cc5261f44 -->
<g id="edge13" class="edge"><title>JNK&#45;&gt;pr_57c4037e&#45;3ced&#45;45cd&#45;afbe&#45;af4cc5261f44</title>
<path fill="none" stroke="black" d="M297.065,-224.149C259.811,-219.546 172.102,-205.724 107,-172 106.909,-171.953 106.817,-171.905 106.726,-171.857"/>
<polygon fill="black" stroke="black" points="108.71,-168.962 98.301,-166.987 105.207,-175.022 108.71,-168.962"/>
</g>
<!-- pr_922fbd5d&#45;2997&#45;46c8&#45;baaa&#45;0177caa42a8e -->
<g id="node10" class="node"><title>pr_922fbd5d&#45;2997&#45;46c8&#45;baaa&#45;0177caa42a8e</title>
<polygon fill="none" stroke="black" points="216,-172 116,-172 116,-72 216,-72 216,-172"/>
<text text-anchor="middle" x="166" y="-120.8" font-family="Times,serif" font-size="4.00">pr_922fbd5d&#45;2997&#45;46c8&#45;baaa&#45;0177caa42a8e</text>
</g>
<!-- JNK&#45;&gt;pr_922fbd5d&#45;2997&#45;46c8&#45;baaa&#45;0177caa42a8e -->
<g id="edge14" class="edge"><title>JNK&#45;&gt;pr_922fbd5d&#45;2997&#45;46c8&#45;baaa&#45;0177caa42a8e</title>
<path fill="none" stroke="black" d="M299.587,-217.774C281.3,-207.691 250.126,-189.829 225,-172 224.817,-171.87 224.633,-171.74 224.45,-171.609"/>
<polygon fill="black" stroke="black" points="226.26,-168.595 216.131,-165.486 222.11,-174.232 226.26,-168.595"/>
</g>
<!-- pr_7455578f&#45;35c4&#45;40d9&#45;b155&#45;3fb4007419ce -->
<g id="node12" class="node"><title>pr_7455578f&#45;35c4&#45;40d9&#45;b155&#45;3fb4007419ce</title>
<polygon fill="none" stroke="black" points="333.5,-171.5 234.5,-171.5 234.5,-72.5 333.5,-72.5 333.5,-171.5"/>
<text text-anchor="middle" x="284" y="-120.8" font-family="Times,serif" font-size="4.00">pr_7455578f&#45;35c4&#45;40d9&#45;b155&#45;3fb4007419ce</text>
</g>
<!-- JNK&#45;&gt;pr_7455578f&#45;35c4&#45;40d9&#45;b155&#45;3fb4007419ce -->
<g id="edge15" class="edge"><title>JNK&#45;&gt;pr_7455578f&#45;35c4&#45;40d9&#45;b155&#45;3fb4007419ce</title>
<path fill="none" stroke="black" d="M310.019,-209.528C307.634,-201.597 304.62,-191.574 301.496,-181.185"/>
<polygon fill="black" stroke="black" points="304.843,-180.159 298.611,-171.591 298.139,-182.175 304.843,-180.159"/>
</g>
<!-- pr_a3afa20b&#45;ddf7&#45;40bf&#45;a901&#45;41aea520adb5 -->
<g id="node14" class="node"><title>pr_a3afa20b&#45;ddf7&#45;40bf&#45;a901&#45;41aea520adb5</title>
<polygon fill="none" stroke="black" points="566,-171 468,-171 468,-73 566,-73 566,-171"/>
<text text-anchor="middle" x="517" y="-120.8" font-family="Times,serif" font-size="4.00">pr_a3afa20b&#45;ddf7&#45;40bf&#45;a901&#45;41aea520adb5</text>
</g>
<!-- JNK&#45;&gt;pr_a3afa20b&#45;ddf7&#45;40bf&#45;a901&#45;41aea520adb5 -->
<g id="edge16" class="edge"><title>JNK&#45;&gt;pr_a3afa20b&#45;ddf7&#45;40bf&#45;a901&#45;41aea520adb5</title>
<path fill="none" stroke="black" d="M331.806,-220.586C364.745,-209.662 436.54,-185.172 459,-172 459.092,-171.946 459.185,-171.891 459.277,-171.837"/>
<polygon fill="black" stroke="black" points="461.278,-174.712 467.832,-166.388 457.518,-168.808 461.278,-174.712"/>
</g>
<!-- JNK&#45;&gt;pr_20e067fa&#45;53b5&#45;43fe&#45;9d77&#45;b317a1a826fd -->
<g id="edge17" class="edge"><title>JNK&#45;&gt;pr_20e067fa&#45;53b5&#45;43fe&#45;9d77&#45;b317a1a826fd</title>
<path fill="none" stroke="black" d="M320.139,-244.704C321.009,-252.393 321.526,-262.036 321.692,-272.049"/>
<polygon fill="black" stroke="black" points="318.192,-272.144 321.74,-282.127 325.192,-272.111 318.192,-272.144"/>
</g>
<!-- pr_6faad41e&#45;906e&#45;498d&#45;bf3f&#45;24717ef25828 -->
<g id="node23" class="node"><title>pr_6faad41e&#45;906e&#45;498d&#45;bf3f&#45;24717ef25828</title>
<polygon fill="none" stroke="black" points="450,-171 352,-171 352,-73 450,-73 450,-171"/>
<text text-anchor="middle" x="401" y="-120.8" font-family="Times,serif" font-size="4.00">pr_6faad41e&#45;906e&#45;498d&#45;bf3f&#45;24717ef25828</text>
</g>
<!-- JNK&#45;&gt;pr_6faad41e&#45;906e&#45;498d&#45;bf3f&#45;24717ef25828 -->
<g id="edge18" class="edge"><title>JNK&#45;&gt;pr_6faad41e&#45;906e&#45;498d&#45;bf3f&#45;24717ef25828</title>
<path fill="none" stroke="black" d="M323.052,-210.434C329.261,-201.748 338.186,-190.361 347.813,-178.69"/>
<polygon fill="black" stroke="black" points="350.504,-180.927 354.219,-171.004 345.127,-176.445 350.504,-180.927"/>
</g>
<!-- TP53 -->
<g id="node9" class="node"><title>TP53</title>
<ellipse fill="none" stroke="black" cx="166" cy="-18" rx="18" ry="18"/>
<text text-anchor="middle" x="166" y="-16.8" font-family="Times,serif" font-size="4.00">TP53</text>
</g>
<!-- TP53&#45;&gt;pr_922fbd5d&#45;2997&#45;46c8&#45;baaa&#45;0177caa42a8e -->
<g id="edge19" class="edge"><title>TP53&#45;&gt;pr_922fbd5d&#45;2997&#45;46c8&#45;baaa&#45;0177caa42a8e</title>
<path fill="none" stroke="black" d="M171.141,-35.6151C171.975,-42.9907 172.485,-52.1624 172.671,-61.7331"/>
<polygon fill="black" stroke="black" points="169.171,-61.8193 172.746,-71.7926 176.171,-61.7665 169.171,-61.8193"/>
</g>
<!-- pr_922fbd5d&#45;2997&#45;46c8&#45;baaa&#45;0177caa42a8e&#45;&gt;TP53 -->
<g id="edge20" class="edge"><title>pr_922fbd5d&#45;2997&#45;46c8&#45;baaa&#45;0177caa42a8e&#45;&gt;TP53</title>
<path fill="none" stroke="black" d="M159.254,-71.7926C159.217,-62.8265 159.458,-53.7864 159.978,-45.7826"/>
<polygon fill="black" stroke="black" points="163.482,-45.88 160.859,-35.6151 156.509,-45.2754 163.482,-45.88"/>
</g>
<!-- BCL2 -->
<g id="node11" class="node"><title>BCL2</title>
<ellipse fill="none" stroke="black" cx="284" cy="-18" rx="18" ry="18"/>
<text text-anchor="middle" x="284" y="-16.8" font-family="Times,serif" font-size="4.00">BCL2</text>
</g>
<!-- BCL2&#45;&gt;pr_7455578f&#45;35c4&#45;40d9&#45;b155&#45;3fb4007419ce -->
<g id="edge21" class="edge"><title>BCL2&#45;&gt;pr_7455578f&#45;35c4&#45;40d9&#45;b155&#45;3fb4007419ce</title>
<path fill="none" stroke="black" d="M289.113,-35.3739C289.974,-42.8817 290.496,-52.2863 290.677,-62.0907"/>
<polygon fill="black" stroke="black" points="287.179,-62.4125 290.743,-72.3898 294.179,-62.3676 287.179,-62.4125"/>
</g>
<!-- pr_7455578f&#45;35c4&#45;40d9&#45;b155&#45;3fb4007419ce&#45;&gt;BCL2 -->
<g id="edge22" class="edge"><title>pr_7455578f&#45;35c4&#45;40d9&#45;b155&#45;3fb4007419ce&#45;&gt;BCL2</title>
<path fill="none" stroke="black" d="M277.257,-72.3898C277.205,-63.1138 277.452,-53.7321 277.998,-45.4758"/>
<polygon fill="black" stroke="black" points="281.497,-45.6422 278.887,-35.3739 274.524,-45.0286 281.497,-45.6422"/>
</g>
<!-- AP&#45;1 -->
<g id="node13" class="node"><title>AP&#45;1</title>
<ellipse fill="none" stroke="black" cx="517" cy="-18" rx="18" ry="18"/>
<text text-anchor="middle" x="517" y="-16.8" font-family="Times,serif" font-size="4.00">AP&#45;1</text>
</g>
<!-- AP&#45;1&#45;&gt;pr_a3afa20b&#45;ddf7&#45;40bf&#45;a901&#45;41aea520adb5 -->
<g id="edge23" class="edge"><title>AP&#45;1&#45;&gt;pr_a3afa20b&#45;ddf7&#45;40bf&#45;a901&#45;41aea520adb5</title>
<path fill="none" stroke="black" d="M522.139,-35.5973C523.009,-43.2796 523.526,-52.9131 523.692,-62.9174"/>
<polygon fill="black" stroke="black" points="520.192,-63.0036 523.74,-72.9868 527.192,-62.9702 520.192,-63.0036"/>
</g>
<!-- pr_a3afa20b&#45;ddf7&#45;40bf&#45;a901&#45;41aea520adb5&#45;&gt;AP&#45;1 -->
<g id="edge24" class="edge"><title>pr_a3afa20b&#45;ddf7&#45;40bf&#45;a901&#45;41aea520adb5&#45;&gt;AP&#45;1</title>
<path fill="none" stroke="black" d="M510.26,-72.9868C510.196,-63.6456 510.434,-54.1703 510.975,-45.8202"/>
<polygon fill="black" stroke="black" points="514.485,-45.8622 511.861,-35.5973 507.511,-45.2577 514.485,-45.8622"/>
</g>
<!-- 3b protein -->
<g id="node15" class="node"><title>3b protein</title>
<ellipse fill="none" stroke="black" cx="517" cy="-227.092" rx="19.1842" ry="19.1842"/>
<text text-anchor="middle" x="517" y="-225.892" font-family="Times,serif" font-size="4.00">3b protein</text>
</g>
<!-- 3b protein&#45;&gt;pr_a3afa20b&#45;ddf7&#45;40bf&#45;a901&#45;41aea520adb5 -->
<g id="edge25" class="edge"><title>3b protein&#45;&gt;pr_a3afa20b&#45;ddf7&#45;40bf&#45;a901&#45;41aea520adb5</title>
<path fill="none" stroke="black" d="M517,-207.661C517,-200.176 517,-191.074 517,-181.65"/>
<polygon fill="black" stroke="black" points="520.5,-181.358 517,-171.358 513.5,-181.358 520.5,-181.358"/>
</g>
<!-- MEKK1/4 -->
<g id="node16" class="node"><title>MEKK1/4</title>
<ellipse fill="none" stroke="black" cx="366" cy="-643.929" rx="18.6233" ry="18.6233"/>
<text text-anchor="middle" x="366" y="-642.729" font-family="Times,serif" font-size="4.00">MEKK1/4</text>
</g>
<!-- MEKK1/4&#45;&gt;pr_78b6f3fb&#45;a98b&#45;417a&#45;953e&#45;30a0663c8164 -->
<g id="edge26" class="edge"><title>MEKK1/4&#45;&gt;pr_78b6f3fb&#45;a98b&#45;417a&#45;953e&#45;30a0663c8164</title>
<path fill="none" stroke="black" d="M371.166,-661.782C372,-669.256 372.505,-678.54 372.68,-688.203"/>
<polygon fill="black" stroke="black" points="369.181,-688.373 372.743,-698.351 376.181,-688.33 369.181,-688.373"/>
</g>
<!-- MEKK1/4&#45;&gt;pr_635184b0&#45;0c96&#45;4012&#45;85f8&#45;094d7a137cf8 -->
<g id="edge27" class="edge"><title>MEKK1/4&#45;&gt;pr_635184b0&#45;0c96&#45;4012&#45;85f8&#45;094d7a137cf8</title>
<path fill="none" stroke="black" d="M355.154,-628.738C348.76,-620.371 340.204,-609.176 331.345,-597.584"/>
<polygon fill="black" stroke="black" points="334.04,-595.346 325.187,-589.526 328.478,-599.596 334.04,-595.346"/>
</g>
<!-- pr_78b6f3fb&#45;a98b&#45;417a&#45;953e&#45;30a0663c8164&#45;&gt;MEKK1/4 -->
<g id="edge28" class="edge"><title>pr_78b6f3fb&#45;a98b&#45;417a&#45;953e&#45;30a0663c8164&#45;&gt;MEKK1/4</title>
<path fill="none" stroke="black" d="M359.257,-698.351C359.206,-689.212 359.445,-679.971 359.973,-671.803"/>
<polygon fill="black" stroke="black" points="363.465,-672.045 360.834,-661.782 356.491,-671.446 363.465,-672.045"/>
</g>
<!-- MAP2K4 -->
<g id="node18" class="node"><title>MAP2K4</title>
<ellipse fill="none" stroke="black" cx="288" cy="-435.276" rx="18" ry="18"/>
<text text-anchor="middle" x="288" y="-434.076" font-family="Times,serif" font-size="4.00">MAP2K4</text>
</g>
<!-- MAP2K4&#45;&gt;pr_635184b0&#45;0c96&#45;4012&#45;85f8&#45;094d7a137cf8 -->
<g id="edge29" class="edge"><title>MAP2K4&#45;&gt;pr_635184b0&#45;0c96&#45;4012&#45;85f8&#45;094d7a137cf8</title>
<path fill="none" stroke="black" d="M293.126,-452.857C293.996,-460.536 294.517,-470.17 294.687,-480.188"/>
<polygon fill="black" stroke="black" points="291.188,-480.295 294.742,-490.276 298.188,-480.257 291.188,-480.295"/>
</g>
<!-- MAP2K4&#45;&gt;pr_20e067fa&#45;53b5&#45;43fe&#45;9d77&#45;b317a1a826fd -->
<g id="edge30" class="edge"><title>MAP2K4&#45;&gt;pr_20e067fa&#45;53b5&#45;43fe&#45;9d77&#45;b317a1a826fd</title>
<path fill="none" stroke="black" d="M292.459,-417.417C294.481,-409.772 297.003,-400.232 299.622,-390.329"/>
<polygon fill="black" stroke="black" points="303.085,-390.924 302.259,-380.362 296.318,-389.134 303.085,-390.924"/>
</g>
<!-- pr_635184b0&#45;0c96&#45;4012&#45;85f8&#45;094d7a137cf8&#45;&gt;MAP2K4 -->
<g id="edge31" class="edge"><title>pr_635184b0&#45;0c96&#45;4012&#45;85f8&#45;094d7a137cf8&#45;&gt;MAP2K4</title>
<path fill="none" stroke="black" d="M281.258,-490.276C281.201,-480.913 281.443,-471.43 281.987,-463.078"/>
<polygon fill="black" stroke="black" points="285.496,-463.122 282.874,-452.857 278.522,-462.517 285.496,-463.122"/>
</g>
<!-- pr_20e067fa&#45;53b5&#45;43fe&#45;9d77&#45;b317a1a826fd&#45;&gt;JNK -->
<g id="edge32" class="edge"><title>pr_20e067fa&#45;53b5&#45;43fe&#45;9d77&#45;b317a1a826fd&#45;&gt;JNK</title>
<path fill="none" stroke="black" d="M308.26,-282.127C308.196,-272.778 308.434,-263.294 308.975,-254.936"/>
<polygon fill="black" stroke="black" points="312.486,-254.969 309.861,-244.704 305.512,-254.365 312.486,-254.969"/>
</g>
<!-- 7a protein -->
<g id="node21" class="node"><title>7a protein</title>
<ellipse fill="none" stroke="black" cx="343" cy="-435.276" rx="19.1842" ry="19.1842"/>
<text text-anchor="middle" x="343" y="-434.076" font-family="Times,serif" font-size="4.00">7a protein</text>
</g>
<!-- 7a protein&#45;&gt;pr_20e067fa&#45;53b5&#45;43fe&#45;9d77&#45;b317a1a826fd -->
<g id="edge33" class="edge"><title>7a protein&#45;&gt;pr_20e067fa&#45;53b5&#45;43fe&#45;9d77&#45;b317a1a826fd</title>
<path fill="none" stroke="black" d="M338.123,-416.493C336.055,-408.952 333.516,-399.695 330.887,-390.109"/>
<polygon fill="black" stroke="black" points="334.262,-389.182 328.242,-380.464 327.511,-391.034 334.262,-389.182"/>
</g>
<!-- 3a protein -->
<g id="node22" class="node"><title>3a protein</title>
<ellipse fill="none" stroke="black" cx="399" cy="-435.276" rx="19.1842" ry="19.1842"/>
<text text-anchor="middle" x="399" y="-434.076" font-family="Times,serif" font-size="4.00">3a protein</text>
</g>
<!-- 3a protein&#45;&gt;pr_20e067fa&#45;53b5&#45;43fe&#45;9d77&#45;b317a1a826fd -->
<g id="edge34" class="edge"><title>3a protein&#45;&gt;pr_20e067fa&#45;53b5&#45;43fe&#45;9d77&#45;b317a1a826fd</title>
<path fill="none" stroke="black" d="M387.32,-420.08C380.294,-411.541 370.844,-400.055 361.097,-388.209"/>
<polygon fill="black" stroke="black" points="363.727,-385.897 354.671,-380.399 358.322,-390.345 363.727,-385.897"/>
</g>
<!-- pr_6faad41e&#45;906e&#45;498d&#45;bf3f&#45;24717ef25828&#45;&gt;JNK -->
<g id="edge35" class="edge"><title>pr_6faad41e&#45;906e&#45;498d&#45;bf3f&#45;24717ef25828&#45;&gt;JNK</title>
<path fill="none" stroke="black" d="M367.398,-171.358C356.737,-184.249 345.288,-197.408 335.756,-207.592"/>
<polygon fill="black" stroke="black" points="332.983,-205.426 328.574,-215.059 338.028,-210.278 332.983,-205.426"/>
</g>
<!-- S protein -->
<g id="node24" class="node"><title>S protein</title>
<ellipse fill="none" stroke="black" cx="401" cy="-227.092" rx="18.0625" ry="18.0625"/>
<text text-anchor="middle" x="401" y="-225.892" font-family="Times,serif" font-size="4.00">S protein</text>
</g>
<!-- S protein&#45;&gt;pr_6faad41e&#45;906e&#45;498d&#45;bf3f&#45;24717ef25828 -->
<g id="edge36" class="edge"><title>S protein&#45;&gt;pr_6faad41e&#45;906e&#45;498d&#45;bf3f&#45;24717ef25828</title>
<path fill="none" stroke="black" d="M401,-208.604C401,-200.848 401,-191.231 401,-181.274"/>
<polygon fill="black" stroke="black" points="404.5,-181.259 401,-171.259 397.5,-181.259 404.5,-181.259"/>
</g>
</g>
</svg>
