<?xml version="1.0" encoding="UTF-8" standalone="no"?>
<!DOCTYPE svg PUBLIC "-//W3C//DTD SVG 1.1//EN"
 "http://www.w3.org/Graphics/SVG/1.1/DTD/svg11.dtd">
<!-- Generated by graphviz version 2.38.0 (20140413.2041)
 -->
<!-- Title: G Pages: 1 -->
<svg width="578pt" height="908pt"
 viewBox="0.00 0.00 578.00 908.01" xmlns="http://www.w3.org/2000/svg" xmlns:xlink="http://www.w3.org/1999/xlink">
<g id="graph0" class="graph" transform="scale(1 1) rotate(0) translate(4 904.009)">
<title>G</title>
<polygon fill="white" stroke="none" points="-4,4 -4,-904.009 574,-904.009 574,4 -4,4"/>
<!-- MAP2K7 -->
<g id="node1" class="node"><title>MAP2K7</title>
<ellipse fill="none" stroke="black" cx="90.5" cy="-869.25" rx="18" ry="18"/>
<text text-anchor="middle" x="90.5" y="-868.05" font-family="Times,serif" font-size="4.00">MAP2K7</text>
</g>
<!-- pr_35f16b09&#45;9284&#45;4ece&#45;bcaa&#45;5ccdc2568b12 -->
<g id="node2" class="node"><title>pr_35f16b09&#45;9284&#45;4ece&#45;bcaa&#45;5ccdc2568b12</title>
<polygon fill="none" stroke="black" points="140.5,-801.991 40.5,-801.991 40.5,-701.991 140.5,-701.991 140.5,-801.991"/>
<text text-anchor="middle" x="90.5" y="-750.791" font-family="Times,serif" font-size="4.00">pr_35f16b09&#45;9284&#45;4ece&#45;bcaa&#45;5ccdc2568b12</text>
</g>
<!-- MAP2K7&#45;&gt;pr_35f16b09&#45;9284&#45;4ece&#45;bcaa&#45;5ccdc2568b12 -->
<g id="edge1" class="edge"><title>MAP2K7&#45;&gt;pr_35f16b09&#45;9284&#45;4ece&#45;bcaa&#45;5ccdc2568b12</title>
<path fill="none" stroke="black" d="M85.5994,-851.736C84.4093,-841.166 83.7935,-826.745 83.7522,-812.19"/>
<polygon fill="black" stroke="black" points="87.2524,-812.16 83.8154,-802.139 80.2525,-812.116 87.2524,-812.16"/>
</g>
<!-- pr_85399a2d&#45;f5b2&#45;4452&#45;a6bf&#45;12e094b69623 -->
<g id="node20" class="node"><title>pr_85399a2d&#45;f5b2&#45;4452&#45;a6bf&#45;12e094b69623</title>
<polygon fill="none" stroke="black" points="365,-382.184 266,-382.184 266,-283.184 365,-283.184 365,-382.184"/>
<text text-anchor="middle" x="315.5" y="-331.484" font-family="Times,serif" font-size="4.00">pr_85399a2d&#45;f5b2&#45;4452&#45;a6bf&#45;12e094b69623</text>
</g>
<!-- MAP2K7&#45;&gt;pr_85399a2d&#45;f5b2&#45;4452&#45;a6bf&#45;12e094b69623 -->
<g id="edge2" class="edge"><title>MAP2K7&#45;&gt;pr_85399a2d&#45;f5b2&#45;4452&#45;a6bf&#45;12e094b69623</title>
<path fill="none" stroke="black" d="M76.6379,-857.311C62.6803,-845.435 41.7858,-825.109 31.5,-802.491 2.84974,-739.488 12.5,-717.14 12.5,-647.929 12.5,-647.929 12.5,-647.929 12.5,-541.368 12.5,-424.538 167.655,-368.565 255.912,-346.176"/>
<polygon fill="black" stroke="black" points="256.934,-349.528 265.805,-343.735 255.258,-342.732 256.934,-349.528"/>
</g>
<!-- pr_35f16b09&#45;9284&#45;4ece&#45;bcaa&#45;5ccdc2568b12&#45;&gt;MAP2K7 -->
<g id="edge3" class="edge"><title>pr_35f16b09&#45;9284&#45;4ece&#45;bcaa&#45;5ccdc2568b12&#45;&gt;MAP2K7</title>
<path fill="none" stroke="black" d="M97.1846,-802.139C97.3955,-815.725 97.0963,-829.954 96.2871,-841.717"/>
<polygon fill="black" stroke="black" points="92.7957,-841.466 95.4006,-851.736 99.7684,-842.083 92.7957,-841.466"/>
</g>
<!-- MLK1/2/3 -->
<g id="node3" class="node"><title>MLK1/2/3</title>
<ellipse fill="none" stroke="black" cx="209.5" cy="-869.25" rx="18.6233" ry="18.6233"/>
<text text-anchor="middle" x="209.5" y="-868.05" font-family="Times,serif" font-size="4.00">MLK1/2/3</text>
</g>
<!-- MLK1/2/3&#45;&gt;pr_35f16b09&#45;9284&#45;4ece&#45;bcaa&#45;5ccdc2568b12 -->
<g id="edge4" class="edge"><title>MLK1/2/3&#45;&gt;pr_35f16b09&#45;9284&#45;4ece&#45;bcaa&#45;5ccdc2568b12</title>
<path fill="none" stroke="black" d="M196.31,-855.475C184.397,-843.936 166.002,-826.119 147.87,-808.558"/>
<polygon fill="black" stroke="black" points="150.298,-806.036 140.68,-801.593 145.428,-811.064 150.298,-806.036"/>
</g>
<!-- pr_ebce88e4&#45;b292&#45;4de4&#45;aed4&#45;e7094e405e1a -->
<g id="node5" class="node"><title>pr_ebce88e4&#45;b292&#45;4de4&#45;aed4&#45;e7094e405e1a</title>
<polygon fill="none" stroke="black" points="260,-802.491 159,-802.491 159,-701.491 260,-701.491 260,-802.491"/>
<text text-anchor="middle" x="209.5" y="-750.791" font-family="Times,serif" font-size="4.00">pr_ebce88e4&#45;b292&#45;4de4&#45;aed4&#45;e7094e405e1a</text>
</g>
<!-- MLK1/2/3&#45;&gt;pr_ebce88e4&#45;b292&#45;4de4&#45;aed4&#45;e7094e405e1a -->
<g id="edge5" class="edge"><title>MLK1/2/3&#45;&gt;pr_ebce88e4&#45;b292&#45;4de4&#45;aed4&#45;e7094e405e1a</title>
<path fill="none" stroke="black" d="M204.545,-851.243C203.406,-840.863 202.809,-826.905 202.754,-812.774"/>
<polygon fill="black" stroke="black" points="206.256,-812.522 202.81,-802.503 199.256,-812.484 206.256,-812.522"/>
</g>
<!-- SARS&#45;CoV&#45;1 proteins -->
<g id="node4" class="node"><title>SARS&#45;CoV&#45;1 proteins</title>
<ellipse fill="none" stroke="black" cx="282.5" cy="-869.25" rx="30.5202" ry="30.5202"/>
<text text-anchor="middle" x="282.5" y="-868.05" font-family="Times,serif" font-size="4.00">SARS&#45;CoV&#45;1 proteins</text>
</g>
<!-- SARS&#45;CoV&#45;1 proteins&#45;&gt;pr_35f16b09&#45;9284&#45;4ece&#45;bcaa&#45;5ccdc2568b12 -->
<g id="edge6" class="edge"><title>SARS&#45;CoV&#45;1 proteins&#45;&gt;pr_35f16b09&#45;9284&#45;4ece&#45;bcaa&#45;5ccdc2568b12</title>
<path fill="none" stroke="black" d="M257.804,-850.669C251.347,-846.423 244.29,-842.08 237.5,-838.491 200.142,-818.741 185.675,-824.332 149.5,-802.491 149.407,-802.434 149.314,-802.378 149.221,-802.322"/>
<polygon fill="black" stroke="black" points="150.883,-799.228 140.591,-796.711 147.068,-805.096 150.883,-799.228"/>
</g>
<!-- SARS&#45;CoV&#45;1 proteins&#45;&gt;pr_ebce88e4&#45;b292&#45;4de4&#45;aed4&#45;e7094e405e1a -->
<g id="edge7" class="edge"><title>SARS&#45;CoV&#45;1 proteins&#45;&gt;pr_ebce88e4&#45;b292&#45;4de4&#45;aed4&#45;e7094e405e1a</title>
<path fill="none" stroke="black" d="M266.48,-842.956C260.527,-833.556 253.499,-822.46 246.449,-811.328"/>
<polygon fill="black" stroke="black" points="249.378,-809.412 241.07,-802.837 243.464,-813.158 249.378,-809.412"/>
</g>
<!-- pr_7190155e&#45;a4ad&#45;438b&#45;a674&#45;a1972ff899ef -->
<g id="node17" class="node"><title>pr_7190155e&#45;a4ad&#45;438b&#45;a674&#45;a1972ff899ef</title>
<polygon fill="none" stroke="black" points="414.5,-800.991 316.5,-800.991 316.5,-702.991 414.5,-702.991 414.5,-800.991"/>
<text text-anchor="middle" x="365.5" y="-750.791" font-family="Times,serif" font-size="4.00">pr_7190155e&#45;a4ad&#45;438b&#45;a674&#45;a1972ff899ef</text>
</g>
<!-- SARS&#45;CoV&#45;1 proteins&#45;&gt;pr_7190155e&#45;a4ad&#45;438b&#45;a674&#45;a1972ff899ef -->
<g id="edge8" class="edge"><title>SARS&#45;CoV&#45;1 proteins&#45;&gt;pr_7190155e&#45;a4ad&#45;438b&#45;a674&#45;a1972ff899ef</title>
<path fill="none" stroke="black" d="M300.102,-843.806C307.371,-833.712 316.123,-821.558 324.827,-809.471"/>
<polygon fill="black" stroke="black" points="327.823,-811.301 330.826,-801.141 322.143,-807.21 327.823,-811.301"/>
</g>
<!-- pr_ce433c07&#45;d319&#45;4d41&#45;a5ef&#45;99d0cb18238d -->
<g id="node19" class="node"><title>pr_ce433c07&#45;d319&#45;4d41&#45;a5ef&#45;99d0cb18238d</title>
<polygon fill="none" stroke="black" points="338.5,-592.368 238.5,-592.368 238.5,-492.368 338.5,-492.368 338.5,-592.368"/>
<text text-anchor="middle" x="288.5" y="-541.168" font-family="Times,serif" font-size="4.00">pr_ce433c07&#45;d319&#45;4d41&#45;a5ef&#45;99d0cb18238d</text>
</g>
<!-- SARS&#45;CoV&#45;1 proteins&#45;&gt;pr_ce433c07&#45;d319&#45;4d41&#45;a5ef&#45;99d0cb18238d -->
<g id="edge9" class="edge"><title>SARS&#45;CoV&#45;1 proteins&#45;&gt;pr_ce433c07&#45;d319&#45;4d41&#45;a5ef&#45;99d0cb18238d</title>
<path fill="none" stroke="black" d="M283.054,-838.268C284.04,-784.852 286.119,-672.31 287.403,-602.74"/>
<polygon fill="black" stroke="black" points="290.909,-602.442 287.595,-592.379 283.911,-602.313 290.909,-602.442"/>
</g>
<!-- pr_ebce88e4&#45;b292&#45;4de4&#45;aed4&#45;e7094e405e1a&#45;&gt;MLK1/2/3 -->
<g id="edge10" class="edge"><title>pr_ebce88e4&#45;b292&#45;4de4&#45;aed4&#45;e7094e405e1a&#45;&gt;MLK1/2/3</title>
<path fill="none" stroke="black" d="M216.19,-802.503C216.386,-815.701 216.101,-829.478 215.336,-840.991"/>
<polygon fill="black" stroke="black" points="211.824,-840.98 214.455,-851.243 218.799,-841.579 211.824,-840.98"/>
</g>
<!-- ATF2 -->
<g id="node6" class="node"><title>ATF2</title>
<ellipse fill="none" stroke="black" cx="49.5" cy="-18" rx="18" ry="18"/>
<text text-anchor="middle" x="49.5" y="-16.8" font-family="Times,serif" font-size="4.00">ATF2</text>
</g>
<!-- pr_8a97eb7e&#45;3f4f&#45;42ca&#45;b0a3&#45;0363ec1c984a -->
<g id="node7" class="node"><title>pr_8a97eb7e&#45;3f4f&#45;42ca&#45;b0a3&#45;0363ec1c984a</title>
<polygon fill="none" stroke="black" points="99,-172 0,-172 0,-73 99,-73 99,-172"/>
<text text-anchor="middle" x="49.5" y="-121.3" font-family="Times,serif" font-size="4.00">pr_8a97eb7e&#45;3f4f&#45;42ca&#45;b0a3&#45;0363ec1c984a</text>
</g>
<!-- ATF2&#45;&gt;pr_8a97eb7e&#45;3f4f&#45;42ca&#45;b0a3&#45;0363ec1c984a -->
<g id="edge11" class="edge"><title>ATF2&#45;&gt;pr_8a97eb7e&#45;3f4f&#45;42ca&#45;b0a3&#45;0363ec1c984a</title>
<path fill="none" stroke="black" d="M54.626,-35.5663C55.4962,-43.2382 56.0167,-52.8638 56.1875,-62.8729"/>
<polygon fill="black" stroke="black" points="52.6878,-62.9705 56.2417,-72.9515 59.6877,-62.9328 52.6878,-62.9705"/>
</g>
<!-- pr_8a97eb7e&#45;3f4f&#45;42ca&#45;b0a3&#45;0363ec1c984a&#45;&gt;ATF2 -->
<g id="edge12" class="edge"><title>pr_8a97eb7e&#45;3f4f&#45;42ca&#45;b0a3&#45;0363ec1c984a&#45;&gt;ATF2</title>
<path fill="none" stroke="black" d="M42.7583,-72.9515C42.7005,-63.5971 42.9433,-54.1224 43.4866,-45.7785"/>
<polygon fill="black" stroke="black" points="46.9951,-45.8318 44.374,-35.5663 40.0214,-45.2257 46.9951,-45.8318"/>
</g>
<!-- JNK -->
<g id="node8" class="node"><title>JNK</title>
<ellipse fill="none" stroke="black" cx="315.5" cy="-228.092" rx="18" ry="18"/>
<text text-anchor="middle" x="315.5" y="-226.892" font-family="Times,serif" font-size="4.00">JNK</text>
</g>
<!-- JNK&#45;&gt;pr_8a97eb7e&#45;3f4f&#45;42ca&#45;b0a3&#45;0363ec1c984a -->
<g id="edge13" class="edge"><title>JNK&#45;&gt;pr_8a97eb7e&#45;3f4f&#45;42ca&#45;b0a3&#45;0363ec1c984a</title>
<path fill="none" stroke="black" d="M297.661,-225.113C260.603,-220.442 173.347,-206.499 108.5,-173 108.403,-172.95 108.307,-172.9 108.211,-172.85"/>
<polygon fill="black" stroke="black" points="109.728,-169.684 99.3187,-167.708 106.224,-175.744 109.728,-169.684"/>
</g>
<!-- pr_f08f1654&#45;1343&#45;46ba&#45;9f08&#45;532437fec0b3 -->
<g id="node10" class="node"><title>pr_f08f1654&#45;1343&#45;46ba&#45;9f08&#45;532437fec0b3</title>
<polygon fill="none" stroke="black" points="215.5,-171.5 117.5,-171.5 117.5,-73.5 215.5,-73.5 215.5,-171.5"/>
<text text-anchor="middle" x="166.5" y="-121.3" font-family="Times,serif" font-size="4.00">pr_f08f1654&#45;1343&#45;46ba&#45;9f08&#45;532437fec0b3</text>
</g>
<!-- JNK&#45;&gt;pr_f08f1654&#45;1343&#45;46ba&#45;9f08&#45;532437fec0b3 -->
<g id="edge14" class="edge"><title>JNK&#45;&gt;pr_f08f1654&#45;1343&#45;46ba&#45;9f08&#45;532437fec0b3</title>
<path fill="none" stroke="black" d="M299.864,-218.862C281.323,-208.864 249.754,-191.083 224.5,-173 224.318,-172.87 224.137,-172.739 223.955,-172.609"/>
<polygon fill="black" stroke="black" points="225.833,-169.643 215.724,-166.469 221.647,-175.254 225.833,-169.643"/>
</g>
<!-- pr_b109c9e4&#45;9ac9&#45;4923&#45;9951&#45;f7ee8e462c05 -->
<g id="node12" class="node"><title>pr_b109c9e4&#45;9ac9&#45;4923&#45;9951&#45;f7ee8e462c05</title>
<polygon fill="none" stroke="black" points="333.5,-172.5 233.5,-172.5 233.5,-72.5 333.5,-72.5 333.5,-172.5"/>
<text text-anchor="middle" x="283.5" y="-121.3" font-family="Times,serif" font-size="4.00">pr_b109c9e4&#45;9ac9&#45;4923&#45;9951&#45;f7ee8e462c05</text>
</g>
<!-- JNK&#45;&gt;pr_b109c9e4&#45;9ac9&#45;4923&#45;9951&#45;f7ee8e462c05 -->
<g id="edge15" class="edge"><title>JNK&#45;&gt;pr_b109c9e4&#45;9ac9&#45;4923&#45;9951&#45;f7ee8e462c05</title>
<path fill="none" stroke="black" d="M310.359,-210.448C307.949,-202.647 304.916,-192.83 301.765,-182.627"/>
<polygon fill="black" stroke="black" points="305.018,-181.3 298.722,-172.779 298.33,-183.366 305.018,-181.3"/>
</g>
<!-- pr_0730e51e&#45;cd8a&#45;47e3&#45;a694&#45;b8927506a951 -->
<g id="node14" class="node"><title>pr_0730e51e&#45;cd8a&#45;47e3&#45;a694&#45;b8927506a951</title>
<polygon fill="none" stroke="black" points="570,-173 469,-173 469,-72 570,-72 570,-173"/>
<text text-anchor="middle" x="519.5" y="-121.3" font-family="Times,serif" font-size="4.00">pr_0730e51e&#45;cd8a&#45;47e3&#45;a694&#45;b8927506a951</text>
</g>
<!-- JNK&#45;&gt;pr_0730e51e&#45;cd8a&#45;47e3&#45;a694&#45;b8927506a951 -->
<g id="edge16" class="edge"><title>JNK&#45;&gt;pr_0730e51e&#45;cd8a&#45;47e3&#45;a694&#45;b8927506a951</title>
<path fill="none" stroke="black" d="M332.419,-221.588C362.732,-211.608 425.73,-190.296 459.952,-172.66"/>
<polygon fill="black" stroke="black" points="461.717,-175.684 468.79,-167.796 458.341,-169.551 461.717,-175.684"/>
</g>
<!-- JNK&#45;&gt;pr_85399a2d&#45;f5b2&#45;4452&#45;a6bf&#45;12e094b69623 -->
<g id="edge17" class="edge"><title>JNK&#45;&gt;pr_85399a2d&#45;f5b2&#45;4452&#45;a6bf&#45;12e094b69623</title>
<path fill="none" stroke="black" d="M320.626,-245.673C321.496,-253.352 322.017,-262.986 322.187,-273.004"/>
<polygon fill="black" stroke="black" points="318.688,-273.111 322.242,-283.092 325.688,-273.073 318.688,-273.111"/>
</g>
<!-- pr_2079030b&#45;de02&#45;4367&#45;aa5f&#45;d7fe27ab8c89 -->
<g id="node23" class="node"><title>pr_2079030b&#45;de02&#45;4367&#45;aa5f&#45;d7fe27ab8c89</title>
<polygon fill="none" stroke="black" points="451,-172 352,-172 352,-73 451,-73 451,-172"/>
<text text-anchor="middle" x="401.5" y="-121.3" font-family="Times,serif" font-size="4.00">pr_2079030b&#45;de02&#45;4367&#45;aa5f&#45;d7fe27ab8c89</text>
</g>
<!-- JNK&#45;&gt;pr_2079030b&#45;de02&#45;4367&#45;aa5f&#45;d7fe27ab8c89 -->
<g id="edge18" class="edge"><title>JNK&#45;&gt;pr_2079030b&#45;de02&#45;4367&#45;aa5f&#45;d7fe27ab8c89</title>
<path fill="none" stroke="black" d="M323.234,-211.807C329.381,-203.127 338.306,-191.664 347.966,-179.883"/>
<polygon fill="black" stroke="black" points="350.712,-182.054 354.397,-172.121 345.322,-177.588 350.712,-182.054"/>
</g>
<!-- TP53 -->
<g id="node9" class="node"><title>TP53</title>
<ellipse fill="none" stroke="black" cx="166.5" cy="-18" rx="18" ry="18"/>
<text text-anchor="middle" x="166.5" y="-16.8" font-family="Times,serif" font-size="4.00">TP53</text>
</g>
<!-- TP53&#45;&gt;pr_f08f1654&#45;1343&#45;46ba&#45;9f08&#45;532437fec0b3 -->
<g id="edge19" class="edge"><title>TP53&#45;&gt;pr_f08f1654&#45;1343&#45;46ba&#45;9f08&#45;532437fec0b3</title>
<path fill="none" stroke="black" d="M171.639,-35.6787C172.509,-43.3986 173.026,-53.0794 173.192,-63.1327"/>
<polygon fill="black" stroke="black" points="169.692,-63.2681 173.24,-73.2514 176.692,-63.2349 169.692,-63.2681"/>
</g>
<!-- pr_f08f1654&#45;1343&#45;46ba&#45;9f08&#45;532437fec0b3&#45;&gt;TP53 -->
<g id="edge20" class="edge"><title>pr_f08f1654&#45;1343&#45;46ba&#45;9f08&#45;532437fec0b3&#45;&gt;TP53</title>
<path fill="none" stroke="black" d="M159.76,-73.2514C159.695,-63.759 159.94,-54.1287 160.494,-45.6693"/>
<polygon fill="black" stroke="black" points="163.983,-45.944 161.361,-35.6787 157.009,-45.3383 163.983,-45.944"/>
</g>
<!-- BCL2 -->
<g id="node11" class="node"><title>BCL2</title>
<ellipse fill="none" stroke="black" cx="283.5" cy="-18" rx="18" ry="18"/>
<text text-anchor="middle" x="283.5" y="-16.8" font-family="Times,serif" font-size="4.00">BCL2</text>
</g>
<!-- BCL2&#45;&gt;pr_b109c9e4&#45;9ac9&#45;4923&#45;9951&#45;f7ee8e462c05 -->
<g id="edge21" class="edge"><title>BCL2&#45;&gt;pr_b109c9e4&#45;9ac9&#45;4923&#45;9951&#45;f7ee8e462c05</title>
<path fill="none" stroke="black" d="M288.6,-35.3424C289.462,-42.8395 289.986,-52.2359 290.172,-62.0439"/>
<polygon fill="black" stroke="black" points="286.675,-62.3764 290.245,-72.3515 293.674,-62.3271 286.675,-62.3764"/>
</g>
<!-- pr_b109c9e4&#45;9ac9&#45;4923&#45;9951&#45;f7ee8e462c05&#45;&gt;BCL2 -->
<g id="edge22" class="edge"><title>pr_b109c9e4&#45;9ac9&#45;4923&#45;9951&#45;f7ee8e462c05&#45;&gt;BCL2</title>
<path fill="none" stroke="black" d="M276.755,-72.3515C276.71,-63.0632 276.962,-53.6826 277.509,-45.433"/>
<polygon fill="black" stroke="black" points="281.007,-45.6113 278.4,-35.3424 274.034,-44.996 281.007,-45.6113"/>
</g>
<!-- AP&#45;1 -->
<g id="node13" class="node"><title>AP&#45;1</title>
<ellipse fill="none" stroke="black" cx="519.5" cy="-18" rx="18" ry="18"/>
<text text-anchor="middle" x="519.5" y="-16.8" font-family="Times,serif" font-size="4.00">AP&#45;1</text>
</g>
<!-- AP&#45;1&#45;&gt;pr_0730e51e&#45;cd8a&#45;47e3&#45;a694&#45;b8927506a951 -->
<g id="edge23" class="edge"><title>AP&#45;1&#45;&gt;pr_0730e51e&#45;cd8a&#45;47e3&#45;a694&#45;b8927506a951</title>
<path fill="none" stroke="black" d="M524.628,-35.5823C525.462,-42.9473 525.975,-52.1105 526.165,-61.6841"/>
<polygon fill="black" stroke="black" points="522.666,-61.7801 526.247,-71.7513 529.666,-61.7231 522.666,-61.7801"/>
</g>
<!-- pr_0730e51e&#45;cd8a&#45;47e3&#45;a694&#45;b8927506a951&#45;&gt;AP&#45;1 -->
<g id="edge24" class="edge"><title>pr_0730e51e&#45;cd8a&#45;47e3&#45;a694&#45;b8927506a951&#45;&gt;AP&#45;1</title>
<path fill="none" stroke="black" d="M512.753,-71.7513C512.722,-62.7741 512.967,-53.7354 513.489,-45.7383"/>
<polygon fill="black" stroke="black" points="516.993,-45.8479 514.372,-35.5823 510.019,-45.2415 516.993,-45.8479"/>
</g>
<!-- 3b protein -->
<g id="node15" class="node"><title>3b protein</title>
<ellipse fill="none" stroke="black" cx="519.5" cy="-228.092" rx="19.1842" ry="19.1842"/>
<text text-anchor="middle" x="519.5" y="-226.892" font-family="Times,serif" font-size="4.00">3b protein</text>
</g>
<!-- 3b protein&#45;&gt;pr_0730e51e&#45;cd8a&#45;47e3&#45;a694&#45;b8927506a951 -->
<g id="edge25" class="edge"><title>3b protein&#45;&gt;pr_0730e51e&#45;cd8a&#45;47e3&#45;a694&#45;b8927506a951</title>
<path fill="none" stroke="black" d="M519.5,-208.572C519.5,-201.384 519.5,-192.713 519.5,-183.693"/>
<polygon fill="black" stroke="black" points="523,-183.421 519.5,-173.421 516,-183.421 523,-183.421"/>
</g>
<!-- MEKK1/4 -->
<g id="node16" class="node"><title>MEKK1/4</title>
<ellipse fill="none" stroke="black" cx="365.5" cy="-646.929" rx="18.6233" ry="18.6233"/>
<text text-anchor="middle" x="365.5" y="-645.729" font-family="Times,serif" font-size="4.00">MEKK1/4</text>
</g>
<!-- MEKK1/4&#45;&gt;pr_7190155e&#45;a4ad&#45;438b&#45;a674&#45;a1972ff899ef -->
<g id="edge26" class="edge"><title>MEKK1/4&#45;&gt;pr_7190155e&#45;a4ad&#45;438b&#45;a674&#45;a1972ff899ef</title>
<path fill="none" stroke="black" d="M370.651,-664.812C371.521,-672.623 372.036,-682.412 372.196,-692.565"/>
<polygon fill="black" stroke="black" points="368.697,-692.793 372.238,-702.779 375.697,-692.765 368.697,-692.793"/>
</g>
<!-- MEKK1/4&#45;&gt;pr_ce433c07&#45;d319&#45;4d41&#45;a5ef&#45;99d0cb18238d -->
<g id="edge27" class="edge"><title>MEKK1/4&#45;&gt;pr_ce433c07&#45;d319&#45;4d41&#45;a5ef&#45;99d0cb18238d</title>
<path fill="none" stroke="black" d="M354.793,-631.668C348.549,-623.35 340.214,-612.25 331.569,-600.734"/>
<polygon fill="black" stroke="black" points="334.358,-598.619 325.555,-592.724 328.76,-602.822 334.358,-598.619"/>
</g>
<!-- pr_7190155e&#45;a4ad&#45;438b&#45;a674&#45;a1972ff899ef&#45;&gt;MEKK1/4 -->
<g id="edge28" class="edge"><title>pr_7190155e&#45;a4ad&#45;438b&#45;a674&#45;a1972ff899ef&#45;&gt;MEKK1/4</title>
<path fill="none" stroke="black" d="M358.762,-702.779C358.69,-693.202 358.93,-683.471 359.483,-674.917"/>
<polygon fill="black" stroke="black" points="362.982,-675.075 360.349,-664.812 356.007,-674.477 362.982,-675.075"/>
</g>
<!-- MAP2K4 -->
<g id="node18" class="node"><title>MAP2K4</title>
<ellipse fill="none" stroke="black" cx="288.5" cy="-437.276" rx="18" ry="18"/>
<text text-anchor="middle" x="288.5" y="-436.076" font-family="Times,serif" font-size="4.00">MAP2K4</text>
</g>
<!-- MAP2K4&#45;&gt;pr_ce433c07&#45;d319&#45;4d41&#45;a5ef&#45;99d0cb18238d -->
<g id="edge29" class="edge"><title>MAP2K4&#45;&gt;pr_ce433c07&#45;d319&#45;4d41&#45;a5ef&#45;99d0cb18238d</title>
<path fill="none" stroke="black" d="M293.613,-454.825C294.484,-462.493 295.007,-472.119 295.183,-482.141"/>
<polygon fill="black" stroke="black" points="291.683,-482.258 295.243,-492.237 298.683,-482.216 291.683,-482.258"/>
</g>
<!-- MAP2K4&#45;&gt;pr_85399a2d&#45;f5b2&#45;4452&#45;a6bf&#45;12e094b69623 -->
<g id="edge30" class="edge"><title>MAP2K4&#45;&gt;pr_85399a2d&#45;f5b2&#45;4452&#45;a6bf&#45;12e094b69623</title>
<path fill="none" stroke="black" d="M292.838,-419.792C294.871,-412.066 297.43,-402.345 300.089,-392.24"/>
<polygon fill="black" stroke="black" points="303.496,-393.048 302.656,-382.487 296.726,-391.267 303.496,-393.048"/>
</g>
<!-- pr_ce433c07&#45;d319&#45;4d41&#45;a5ef&#45;99d0cb18238d&#45;&gt;MAP2K4 -->
<g id="edge31" class="edge"><title>pr_ce433c07&#45;d319&#45;4d41&#45;a5ef&#45;99d0cb18238d&#45;&gt;MAP2K4</title>
<path fill="none" stroke="black" d="M281.757,-492.237C281.705,-482.862 281.952,-473.38 282.498,-465.035"/>
<polygon fill="black" stroke="black" points="286.006,-465.091 283.387,-454.825 279.033,-464.484 286.006,-465.091"/>
</g>
<!-- pr_85399a2d&#45;f5b2&#45;4452&#45;a6bf&#45;12e094b69623&#45;&gt;JNK -->
<g id="edge32" class="edge"><title>pr_85399a2d&#45;f5b2&#45;4452&#45;a6bf&#45;12e094b69623&#45;&gt;JNK</title>
<path fill="none" stroke="black" d="M308.758,-283.092C308.701,-273.729 308.943,-264.246 309.487,-255.894"/>
<polygon fill="black" stroke="black" points="312.996,-255.938 310.374,-245.673 306.022,-255.333 312.996,-255.938"/>
</g>
<!-- 7a protein -->
<g id="node21" class="node"><title>7a protein</title>
<ellipse fill="none" stroke="black" cx="343.5" cy="-437.276" rx="19.1842" ry="19.1842"/>
<text text-anchor="middle" x="343.5" y="-436.076" font-family="Times,serif" font-size="4.00">7a protein</text>
</g>
<!-- 7a protein&#45;&gt;pr_85399a2d&#45;f5b2&#45;4452&#45;a6bf&#45;12e094b69623 -->
<g id="edge33" class="edge"><title>7a protein&#45;&gt;pr_85399a2d&#45;f5b2&#45;4452&#45;a6bf&#45;12e094b69623</title>
<path fill="none" stroke="black" d="M338.623,-418.406C336.555,-410.828 334.016,-401.526 331.387,-391.893"/>
<polygon fill="black" stroke="black" points="334.751,-390.926 328.742,-382.201 327.998,-392.769 334.751,-390.926"/>
</g>
<!-- 3a protein -->
<g id="node22" class="node"><title>3a protein</title>
<ellipse fill="none" stroke="black" cx="399.5" cy="-437.276" rx="19.1842" ry="19.1842"/>
<text text-anchor="middle" x="399.5" y="-436.076" font-family="Times,serif" font-size="4.00">3a protein</text>
</g>
<!-- 3a protein&#45;&gt;pr_85399a2d&#45;f5b2&#45;4452&#45;a6bf&#45;12e094b69623 -->
<g id="edge34" class="edge"><title>3a protein&#45;&gt;pr_85399a2d&#45;f5b2&#45;4452&#45;a6bf&#45;12e094b69623</title>
<path fill="none" stroke="black" d="M387.82,-422.011C380.868,-413.52 371.543,-402.13 361.904,-390.359"/>
<polygon fill="black" stroke="black" points="364.591,-388.115 355.547,-382.595 359.174,-392.549 364.591,-388.115"/>
</g>
<!-- pr_2079030b&#45;de02&#45;4367&#45;aa5f&#45;d7fe27ab8c89&#45;&gt;JNK -->
<g id="edge35" class="edge"><title>pr_2079030b&#45;de02&#45;4367&#45;aa5f&#45;d7fe27ab8c89&#45;&gt;JNK</title>
<path fill="none" stroke="black" d="M367.898,-172.092C357.237,-185.047 345.788,-198.269 336.256,-208.502"/>
<polygon fill="black" stroke="black" points="333.46,-206.361 329.074,-216.006 338.517,-211.202 333.46,-206.361"/>
</g>
<!-- S protein -->
<g id="node24" class="node"><title>S protein</title>
<ellipse fill="none" stroke="black" cx="401.5" cy="-228.092" rx="18.0625" ry="18.0625"/>
<text text-anchor="middle" x="401.5" y="-226.892" font-family="Times,serif" font-size="4.00">S protein</text>
</g>
<!-- S protein&#45;&gt;pr_2079030b&#45;de02&#45;4367&#45;aa5f&#45;d7fe27ab8c89 -->
<g id="edge36" class="edge"><title>S protein&#45;&gt;pr_2079030b&#45;de02&#45;4367&#45;aa5f&#45;d7fe27ab8c89</title>
<path fill="none" stroke="black" d="M401.5,-209.986C401.5,-202.228 401.5,-192.548 401.5,-182.5"/>
<polygon fill="black" stroke="black" points="405,-182.386 401.5,-172.386 398,-182.386 405,-182.386"/>
</g>
</g>
</svg>
