<?xml version="1.0" encoding="UTF-8" standalone="no"?>
<!DOCTYPE svg PUBLIC "-//W3C//DTD SVG 1.1//EN"
 "http://www.w3.org/Graphics/SVG/1.1/DTD/svg11.dtd">
<!-- Generated by graphviz version 2.38.0 (20140413.2041)
 -->
<!-- Title: G Pages: 1 -->
<svg width="578pt" height="906pt"
 viewBox="0.00 0.00 577.50 906.01" xmlns="http://www.w3.org/2000/svg" xmlns:xlink="http://www.w3.org/1999/xlink">
<g id="graph0" class="graph" transform="scale(1 1) rotate(0) translate(4 902.009)">
<title>G</title>
<polygon fill="white" stroke="none" points="-4,4 -4,-902.009 573.5,-902.009 573.5,4 -4,4"/>
<!-- MAP2K7 -->
<g id="node1" class="node"><title>MAP2K7</title>
<ellipse fill="none" stroke="black" cx="95.5" cy="-867.25" rx="18" ry="18"/>
<text text-anchor="middle" x="95.5" y="-866.05" font-family="Times,serif" font-size="4.00">MAP2K7</text>
</g>
<!-- pr_3178df76&#45;1d15&#45;4810&#45;837b&#45;848c3c99e129 -->
<g id="node2" class="node"><title>pr_3178df76&#45;1d15&#45;4810&#45;837b&#45;848c3c99e129</title>
<polygon fill="none" stroke="black" points="145.5,-800.491 45.5,-800.491 45.5,-700.491 145.5,-700.491 145.5,-800.491"/>
<text text-anchor="middle" x="95.5" y="-749.291" font-family="Times,serif" font-size="4.00">pr_3178df76&#45;1d15&#45;4810&#45;837b&#45;848c3c99e129</text>
</g>
<!-- MAP2K7&#45;&gt;pr_3178df76&#45;1d15&#45;4810&#45;837b&#45;848c3c99e129 -->
<g id="edge1" class="edge"><title>MAP2K7&#45;&gt;pr_3178df76&#45;1d15&#45;4810&#45;837b&#45;848c3c99e129</title>
<path fill="none" stroke="black" d="M90.5994,-849.808C89.4263,-839.434 88.8113,-825.336 88.7544,-811.058"/>
<polygon fill="black" stroke="black" points="92.2563,-810.698 88.8115,-800.679 85.2564,-810.66 92.2563,-810.698"/>
</g>
<!-- pr_6b6076ef&#45;e4fc&#45;434e&#45;9522&#45;253e1ebd78bd -->
<g id="node20" class="node"><title>pr_6b6076ef&#45;e4fc&#45;434e&#45;9522&#45;253e1ebd78bd</title>
<polygon fill="none" stroke="black" points="366,-382.184 267,-382.184 267,-283.184 366,-283.184 366,-382.184"/>
<text text-anchor="middle" x="316.5" y="-331.484" font-family="Times,serif" font-size="4.00">pr_6b6076ef&#45;e4fc&#45;434e&#45;9522&#45;253e1ebd78bd</text>
</g>
<!-- MAP2K7&#45;&gt;pr_6b6076ef&#45;e4fc&#45;434e&#45;9522&#45;253e1ebd78bd -->
<g id="edge2" class="edge"><title>MAP2K7&#45;&gt;pr_6b6076ef&#45;e4fc&#45;434e&#45;9522&#45;253e1ebd78bd</title>
<path fill="none" stroke="black" d="M81.6415,-855.31C67.6868,-843.432 46.7947,-823.105 36.5,-800.491 8.00766,-737.901 17.5,-715.699 17.5,-646.929 17.5,-646.929 17.5,-646.929 17.5,-540.868 17.5,-425.48 169.803,-369.264 257.01,-346.532"/>
<polygon fill="black" stroke="black" points="257.958,-349.903 266.791,-344.052 256.237,-343.118 257.958,-349.903"/>
</g>
<!-- pr_3178df76&#45;1d15&#45;4810&#45;837b&#45;848c3c99e129&#45;&gt;MAP2K7 -->
<g id="edge3" class="edge"><title>pr_3178df76&#45;1d15&#45;4810&#45;837b&#45;848c3c99e129&#45;&gt;MAP2K7</title>
<path fill="none" stroke="black" d="M102.188,-800.679C102.39,-814.012 102.097,-827.948 101.308,-839.526"/>
<polygon fill="black" stroke="black" points="97.7935,-839.539 100.401,-849.808 104.766,-840.154 97.7935,-839.539"/>
</g>
<!-- MLK1/2/3 -->
<g id="node3" class="node"><title>MLK1/2/3</title>
<ellipse fill="none" stroke="black" cx="212.5" cy="-867.25" rx="18.6233" ry="18.6233"/>
<text text-anchor="middle" x="212.5" y="-866.05" font-family="Times,serif" font-size="4.00">MLK1/2/3</text>
</g>
<!-- MLK1/2/3&#45;&gt;pr_3178df76&#45;1d15&#45;4810&#45;837b&#45;848c3c99e129 -->
<g id="edge4" class="edge"><title>MLK1/2/3&#45;&gt;pr_3178df76&#45;1d15&#45;4810&#45;837b&#45;848c3c99e129</title>
<path fill="none" stroke="black" d="M199.532,-853.53C188.079,-842.296 170.532,-825.086 153.093,-807.98"/>
<polygon fill="black" stroke="black" points="155.234,-805.178 145.644,-800.674 150.332,-810.175 155.234,-805.178"/>
</g>
<!-- pr_8daa3e83&#45;ff68&#45;43cf&#45;a572&#45;fa24a94c5139 -->
<g id="node5" class="node"><title>pr_8daa3e83&#45;ff68&#45;43cf&#45;a572&#45;fa24a94c5139</title>
<polygon fill="none" stroke="black" points="261.5,-799.491 163.5,-799.491 163.5,-701.491 261.5,-701.491 261.5,-799.491"/>
<text text-anchor="middle" x="212.5" y="-749.291" font-family="Times,serif" font-size="4.00">pr_8daa3e83&#45;ff68&#45;43cf&#45;a572&#45;fa24a94c5139</text>
</g>
<!-- MLK1/2/3&#45;&gt;pr_8daa3e83&#45;ff68&#45;43cf&#45;a572&#45;fa24a94c5139 -->
<g id="edge5" class="edge"><title>MLK1/2/3&#45;&gt;pr_8daa3e83&#45;ff68&#45;43cf&#45;a572&#45;fa24a94c5139</title>
<path fill="none" stroke="black" d="M207.545,-849.317C206.367,-838.628 205.769,-824.129 205.75,-809.57"/>
<polygon fill="black" stroke="black" points="209.251,-809.555 205.83,-799.528 202.251,-809.5 209.251,-809.555"/>
</g>
<!-- SARS&#45;CoV&#45;1 proteins -->
<g id="node4" class="node"><title>SARS&#45;CoV&#45;1 proteins</title>
<ellipse fill="none" stroke="black" cx="284.5" cy="-867.25" rx="30.5202" ry="30.5202"/>
<text text-anchor="middle" x="284.5" y="-866.05" font-family="Times,serif" font-size="4.00">SARS&#45;CoV&#45;1 proteins</text>
</g>
<!-- SARS&#45;CoV&#45;1 proteins&#45;&gt;pr_3178df76&#45;1d15&#45;4810&#45;837b&#45;848c3c99e129 -->
<g id="edge6" class="edge"><title>SARS&#45;CoV&#45;1 proteins&#45;&gt;pr_3178df76&#45;1d15&#45;4810&#45;837b&#45;848c3c99e129</title>
<path fill="none" stroke="black" d="M259.908,-848.367C253.721,-844.221 246.99,-839.999 240.5,-836.491 204.049,-816.787 189.938,-821.963 154.5,-800.491 154.407,-800.435 154.315,-800.378 154.222,-800.322"/>
<polygon fill="black" stroke="black" points="155.919,-797.251 145.628,-794.733 152.103,-803.119 155.919,-797.251"/>
</g>
<!-- SARS&#45;CoV&#45;1 proteins&#45;&gt;pr_8daa3e83&#45;ff68&#45;43cf&#45;a572&#45;fa24a94c5139 -->
<g id="edge7" class="edge"><title>SARS&#45;CoV&#45;1 proteins&#45;&gt;pr_8daa3e83&#45;ff68&#45;43cf&#45;a572&#45;fa24a94c5139</title>
<path fill="none" stroke="black" d="M268.521,-840.781C262.446,-831.099 255.257,-819.639 248.089,-808.215"/>
<polygon fill="black" stroke="black" points="250.91,-806.125 242.63,-799.515 244.98,-809.846 250.91,-806.125"/>
</g>
<!-- pr_a0d6c58f&#45;7b7f&#45;4ff5&#45;a0b7&#45;71900e6e4648 -->
<g id="node17" class="node"><title>pr_a0d6c58f&#45;7b7f&#45;4ff5&#45;a0b7&#45;71900e6e4648</title>
<polygon fill="none" stroke="black" points="415.5,-799.491 317.5,-799.491 317.5,-701.491 415.5,-701.491 415.5,-799.491"/>
<text text-anchor="middle" x="366.5" y="-749.291" font-family="Times,serif" font-size="4.00">pr_a0d6c58f&#45;7b7f&#45;4ff5&#45;a0b7&#45;71900e6e4648</text>
</g>
<!-- SARS&#45;CoV&#45;1 proteins&#45;&gt;pr_a0d6c58f&#45;7b7f&#45;4ff5&#45;a0b7&#45;71900e6e4648 -->
<g id="edge8" class="edge"><title>SARS&#45;CoV&#45;1 proteins&#45;&gt;pr_a0d6c58f&#45;7b7f&#45;4ff5&#45;a0b7&#45;71900e6e4648</title>
<path fill="none" stroke="black" d="M302.091,-841.631C309.203,-831.678 317.728,-819.747 326.212,-807.874"/>
<polygon fill="black" stroke="black" points="329.095,-809.859 332.062,-799.687 323.4,-805.789 329.095,-809.859"/>
</g>
<!-- pr_f0c7f551&#45;4480&#45;4767&#45;95a3&#45;713d135913d9 -->
<g id="node19" class="node"><title>pr_f0c7f551&#45;4480&#45;4767&#45;95a3&#45;713d135913d9</title>
<polygon fill="none" stroke="black" points="339,-591.368 240,-591.368 240,-492.368 339,-492.368 339,-591.368"/>
<text text-anchor="middle" x="289.5" y="-540.668" font-family="Times,serif" font-size="4.00">pr_f0c7f551&#45;4480&#45;4767&#45;95a3&#45;713d135913d9</text>
</g>
<!-- SARS&#45;CoV&#45;1 proteins&#45;&gt;pr_f0c7f551&#45;4480&#45;4767&#45;95a3&#45;713d135913d9 -->
<g id="edge9" class="edge"><title>SARS&#45;CoV&#45;1 proteins&#45;&gt;pr_f0c7f551&#45;4480&#45;4767&#45;95a3&#45;713d135913d9</title>
<path fill="none" stroke="black" d="M284.961,-836.406C285.785,-783.163 287.52,-670.901 288.591,-601.676"/>
<polygon fill="black" stroke="black" points="292.095,-601.422 288.75,-591.369 285.096,-601.313 292.095,-601.422"/>
</g>
<!-- pr_8daa3e83&#45;ff68&#45;43cf&#45;a572&#45;fa24a94c5139&#45;&gt;MLK1/2/3 -->
<g id="edge10" class="edge"><title>pr_8daa3e83&#45;ff68&#45;43cf&#45;a572&#45;fa24a94c5139&#45;&gt;MLK1/2/3</title>
<path fill="none" stroke="black" d="M219.17,-799.528C219.404,-813.085 219.124,-827.356 218.33,-839.206"/>
<polygon fill="black" stroke="black" points="214.83,-839.052 217.455,-849.317 221.804,-839.655 214.83,-839.052"/>
</g>
<!-- ATF2 -->
<g id="node6" class="node"><title>ATF2</title>
<ellipse fill="none" stroke="black" cx="49.5" cy="-18" rx="18" ry="18"/>
<text text-anchor="middle" x="49.5" y="-16.8" font-family="Times,serif" font-size="4.00">ATF2</text>
</g>
<!-- pr_a1244655&#45;abde&#45;4548&#45;bf05&#45;2da759064efd -->
<g id="node7" class="node"><title>pr_a1244655&#45;abde&#45;4548&#45;bf05&#45;2da759064efd</title>
<polygon fill="none" stroke="black" points="99,-172 0,-172 0,-73 99,-73 99,-172"/>
<text text-anchor="middle" x="49.5" y="-121.3" font-family="Times,serif" font-size="4.00">pr_a1244655&#45;abde&#45;4548&#45;bf05&#45;2da759064efd</text>
</g>
<!-- ATF2&#45;&gt;pr_a1244655&#45;abde&#45;4548&#45;bf05&#45;2da759064efd -->
<g id="edge11" class="edge"><title>ATF2&#45;&gt;pr_a1244655&#45;abde&#45;4548&#45;bf05&#45;2da759064efd</title>
<path fill="none" stroke="black" d="M54.626,-35.5663C55.4962,-43.2382 56.0167,-52.8638 56.1875,-62.8729"/>
<polygon fill="black" stroke="black" points="52.6878,-62.9705 56.2417,-72.9515 59.6877,-62.9328 52.6878,-62.9705"/>
</g>
<!-- pr_a1244655&#45;abde&#45;4548&#45;bf05&#45;2da759064efd&#45;&gt;ATF2 -->
<g id="edge12" class="edge"><title>pr_a1244655&#45;abde&#45;4548&#45;bf05&#45;2da759064efd&#45;&gt;ATF2</title>
<path fill="none" stroke="black" d="M42.7583,-72.9515C42.7005,-63.5971 42.9433,-54.1224 43.4866,-45.7785"/>
<polygon fill="black" stroke="black" points="46.9951,-45.8318 44.374,-35.5663 40.0214,-45.2257 46.9951,-45.8318"/>
</g>
<!-- JNK -->
<g id="node8" class="node"><title>JNK</title>
<ellipse fill="none" stroke="black" cx="316.5" cy="-228.092" rx="18" ry="18"/>
<text text-anchor="middle" x="316.5" y="-226.892" font-family="Times,serif" font-size="4.00">JNK</text>
</g>
<!-- JNK&#45;&gt;pr_a1244655&#45;abde&#45;4548&#45;bf05&#45;2da759064efd -->
<g id="edge13" class="edge"><title>JNK&#45;&gt;pr_a1244655&#45;abde&#45;4548&#45;bf05&#45;2da759064efd</title>
<path fill="none" stroke="black" d="M298.465,-225.194C262.543,-220.86 179.978,-208.108 108.26,-172.816"/>
<polygon fill="black" stroke="black" points="109.622,-169.581 99.1224,-168.162 106.445,-175.819 109.622,-169.581"/>
</g>
<!-- pr_6050d92f&#45;ab33&#45;472b&#45;b377&#45;30286cd6bf60 -->
<g id="node10" class="node"><title>pr_6050d92f&#45;ab33&#45;472b&#45;b377&#45;30286cd6bf60</title>
<polygon fill="none" stroke="black" points="216,-172 117,-172 117,-73 216,-73 216,-172"/>
<text text-anchor="middle" x="166.5" y="-121.3" font-family="Times,serif" font-size="4.00">pr_6050d92f&#45;ab33&#45;472b&#45;b377&#45;30286cd6bf60</text>
</g>
<!-- JNK&#45;&gt;pr_6050d92f&#45;ab33&#45;472b&#45;b377&#45;30286cd6bf60 -->
<g id="edge14" class="edge"><title>JNK&#45;&gt;pr_6050d92f&#45;ab33&#45;472b&#45;b377&#45;30286cd6bf60</title>
<path fill="none" stroke="black" d="M300.682,-218.891C281.928,-208.923 250.003,-191.169 224.5,-173 224.412,-172.938 224.325,-172.875 224.237,-172.812"/>
<polygon fill="black" stroke="black" points="226.156,-169.879 216.038,-166.736 221.988,-175.502 226.156,-169.879"/>
</g>
<!-- pr_e2980602&#45;07c4&#45;41ed&#45;8493&#45;a144bada3654 -->
<g id="node12" class="node"><title>pr_e2980602&#45;07c4&#45;41ed&#45;8493&#45;a144bada3654</title>
<polygon fill="none" stroke="black" points="335,-173 234,-173 234,-72 335,-72 335,-173"/>
<text text-anchor="middle" x="284.5" y="-121.3" font-family="Times,serif" font-size="4.00">pr_e2980602&#45;07c4&#45;41ed&#45;8493&#45;a144bada3654</text>
</g>
<!-- JNK&#45;&gt;pr_e2980602&#45;07c4&#45;41ed&#45;8493&#45;a144bada3654 -->
<g id="edge15" class="edge"><title>JNK&#45;&gt;pr_e2980602&#45;07c4&#45;41ed&#45;8493&#45;a144bada3654</title>
<path fill="none" stroke="black" d="M311.359,-210.448C308.975,-202.733 305.984,-193.048 302.87,-182.967"/>
<polygon fill="black" stroke="black" points="306.158,-181.753 299.862,-173.231 299.47,-183.819 306.158,-181.753"/>
</g>
<!-- pr_d25126fb&#45;96d1&#45;49d6&#45;bbac&#45;52a9ff84b194 -->
<g id="node14" class="node"><title>pr_d25126fb&#45;96d1&#45;49d6&#45;bbac&#45;52a9ff84b194</title>
<polygon fill="none" stroke="black" points="569.5,-171.5 471.5,-171.5 471.5,-73.5 569.5,-73.5 569.5,-171.5"/>
<text text-anchor="middle" x="520.5" y="-121.3" font-family="Times,serif" font-size="4.00">pr_d25126fb&#45;96d1&#45;49d6&#45;bbac&#45;52a9ff84b194</text>
</g>
<!-- JNK&#45;&gt;pr_d25126fb&#45;96d1&#45;49d6&#45;bbac&#45;52a9ff84b194 -->
<g id="edge16" class="edge"><title>JNK&#45;&gt;pr_d25126fb&#45;96d1&#45;49d6&#45;bbac&#45;52a9ff84b194</title>
<path fill="none" stroke="black" d="M333.546,-221.614C366.956,-210.741 439.769,-186.338 462.5,-173 462.593,-172.946 462.686,-172.891 462.778,-172.836"/>
<polygon fill="black" stroke="black" points="464.818,-175.686 471.362,-167.354 461.05,-169.787 464.818,-175.686"/>
</g>
<!-- JNK&#45;&gt;pr_6b6076ef&#45;e4fc&#45;434e&#45;9522&#45;253e1ebd78bd -->
<g id="edge17" class="edge"><title>JNK&#45;&gt;pr_6b6076ef&#45;e4fc&#45;434e&#45;9522&#45;253e1ebd78bd</title>
<path fill="none" stroke="black" d="M321.626,-245.673C322.496,-253.352 323.017,-262.986 323.187,-273.004"/>
<polygon fill="black" stroke="black" points="319.688,-273.111 323.242,-283.092 326.688,-273.073 319.688,-273.111"/>
</g>
<!-- pr_a12a7061&#45;fb4e&#45;46a3&#45;ad28&#45;676d99360142 -->
<g id="node23" class="node"><title>pr_a12a7061&#45;fb4e&#45;46a3&#45;ad28&#45;676d99360142</title>
<polygon fill="none" stroke="black" points="453.5,-172.5 353.5,-172.5 353.5,-72.5 453.5,-72.5 453.5,-172.5"/>
<text text-anchor="middle" x="403.5" y="-121.3" font-family="Times,serif" font-size="4.00">pr_a12a7061&#45;fb4e&#45;46a3&#45;ad28&#45;676d99360142</text>
</g>
<!-- JNK&#45;&gt;pr_a12a7061&#45;fb4e&#45;46a3&#45;ad28&#45;676d99360142 -->
<g id="edge18" class="edge"><title>JNK&#45;&gt;pr_a12a7061&#45;fb4e&#45;46a3&#45;ad28&#45;676d99360142</title>
<path fill="none" stroke="black" d="M324.382,-211.807C330.546,-203.219 339.456,-191.908 349.11,-180.259"/>
<polygon fill="black" stroke="black" points="351.803,-182.494 355.539,-172.58 346.436,-178 351.803,-182.494"/>
</g>
<!-- TP53 -->
<g id="node9" class="node"><title>TP53</title>
<ellipse fill="none" stroke="black" cx="166.5" cy="-18" rx="18" ry="18"/>
<text text-anchor="middle" x="166.5" y="-16.8" font-family="Times,serif" font-size="4.00">TP53</text>
</g>
<!-- TP53&#45;&gt;pr_6050d92f&#45;ab33&#45;472b&#45;b377&#45;30286cd6bf60 -->
<g id="edge19" class="edge"><title>TP53&#45;&gt;pr_6050d92f&#45;ab33&#45;472b&#45;b377&#45;30286cd6bf60</title>
<path fill="none" stroke="black" d="M171.626,-35.5663C172.496,-43.2382 173.017,-52.8638 173.187,-62.8729"/>
<polygon fill="black" stroke="black" points="169.688,-62.9705 173.242,-72.9515 176.688,-62.9328 169.688,-62.9705"/>
</g>
<!-- pr_6050d92f&#45;ab33&#45;472b&#45;b377&#45;30286cd6bf60&#45;&gt;TP53 -->
<g id="edge20" class="edge"><title>pr_6050d92f&#45;ab33&#45;472b&#45;b377&#45;30286cd6bf60&#45;&gt;TP53</title>
<path fill="none" stroke="black" d="M159.758,-72.9515C159.701,-63.5971 159.943,-54.1224 160.487,-45.7785"/>
<polygon fill="black" stroke="black" points="163.995,-45.8318 161.374,-35.5663 157.021,-45.2257 163.995,-45.8318"/>
</g>
<!-- BCL2 -->
<g id="node11" class="node"><title>BCL2</title>
<ellipse fill="none" stroke="black" cx="284.5" cy="-18" rx="18" ry="18"/>
<text text-anchor="middle" x="284.5" y="-16.8" font-family="Times,serif" font-size="4.00">BCL2</text>
</g>
<!-- BCL2&#45;&gt;pr_e2980602&#45;07c4&#45;41ed&#45;8493&#45;a144bada3654 -->
<g id="edge21" class="edge"><title>BCL2&#45;&gt;pr_e2980602&#45;07c4&#45;41ed&#45;8493&#45;a144bada3654</title>
<path fill="none" stroke="black" d="M289.628,-35.5823C290.462,-42.9473 290.975,-52.1105 291.165,-61.6841"/>
<polygon fill="black" stroke="black" points="287.666,-61.7801 291.247,-71.7513 294.666,-61.7231 287.666,-61.7801"/>
</g>
<!-- pr_e2980602&#45;07c4&#45;41ed&#45;8493&#45;a144bada3654&#45;&gt;BCL2 -->
<g id="edge22" class="edge"><title>pr_e2980602&#45;07c4&#45;41ed&#45;8493&#45;a144bada3654&#45;&gt;BCL2</title>
<path fill="none" stroke="black" d="M277.753,-71.7513C277.722,-62.7741 277.967,-53.7354 278.489,-45.7383"/>
<polygon fill="black" stroke="black" points="281.993,-45.8479 279.372,-35.5823 275.019,-45.2415 281.993,-45.8479"/>
</g>
<!-- AP&#45;1 -->
<g id="node13" class="node"><title>AP&#45;1</title>
<ellipse fill="none" stroke="black" cx="520.5" cy="-18" rx="18" ry="18"/>
<text text-anchor="middle" x="520.5" y="-16.8" font-family="Times,serif" font-size="4.00">AP&#45;1</text>
</g>
<!-- AP&#45;1&#45;&gt;pr_d25126fb&#45;96d1&#45;49d6&#45;bbac&#45;52a9ff84b194 -->
<g id="edge23" class="edge"><title>AP&#45;1&#45;&gt;pr_d25126fb&#45;96d1&#45;49d6&#45;bbac&#45;52a9ff84b194</title>
<path fill="none" stroke="black" d="M525.639,-35.6787C526.509,-43.3986 527.026,-53.0794 527.192,-63.1327"/>
<polygon fill="black" stroke="black" points="523.692,-63.2681 527.24,-73.2514 530.692,-63.2349 523.692,-63.2681"/>
</g>
<!-- pr_d25126fb&#45;96d1&#45;49d6&#45;bbac&#45;52a9ff84b194&#45;&gt;AP&#45;1 -->
<g id="edge24" class="edge"><title>pr_d25126fb&#45;96d1&#45;49d6&#45;bbac&#45;52a9ff84b194&#45;&gt;AP&#45;1</title>
<path fill="none" stroke="black" d="M513.76,-73.2514C513.695,-63.759 513.94,-54.1287 514.494,-45.6693"/>
<polygon fill="black" stroke="black" points="517.983,-45.944 515.361,-35.6787 511.009,-45.3383 517.983,-45.944"/>
</g>
<!-- 3b protein -->
<g id="node15" class="node"><title>3b protein</title>
<ellipse fill="none" stroke="black" cx="520.5" cy="-228.092" rx="19.1842" ry="19.1842"/>
<text text-anchor="middle" x="520.5" y="-226.892" font-family="Times,serif" font-size="4.00">3b protein</text>
</g>
<!-- 3b protein&#45;&gt;pr_d25126fb&#45;96d1&#45;49d6&#45;bbac&#45;52a9ff84b194 -->
<g id="edge25" class="edge"><title>3b protein&#45;&gt;pr_d25126fb&#45;96d1&#45;49d6&#45;bbac&#45;52a9ff84b194</title>
<path fill="none" stroke="black" d="M520.5,-208.572C520.5,-200.883 520.5,-191.499 520.5,-181.805"/>
<polygon fill="black" stroke="black" points="524,-181.65 520.5,-171.65 517,-181.65 524,-181.65"/>
</g>
<!-- MEKK1/4 -->
<g id="node16" class="node"><title>MEKK1/4</title>
<ellipse fill="none" stroke="black" cx="366.5" cy="-645.929" rx="18.6233" ry="18.6233"/>
<text text-anchor="middle" x="366.5" y="-644.729" font-family="Times,serif" font-size="4.00">MEKK1/4</text>
</g>
<!-- MEKK1/4&#45;&gt;pr_a0d6c58f&#45;7b7f&#45;4ff5&#45;a0b7&#45;71900e6e4648 -->
<g id="edge26" class="edge"><title>MEKK1/4&#45;&gt;pr_a0d6c58f&#45;7b7f&#45;4ff5&#45;a0b7&#45;71900e6e4648</title>
<path fill="none" stroke="black" d="M371.692,-664.096C372.525,-671.7 373.025,-681.136 373.189,-690.934"/>
<polygon fill="black" stroke="black" points="369.691,-691.23 373.24,-701.213 376.69,-691.196 369.691,-691.23"/>
</g>
<!-- MEKK1/4&#45;&gt;pr_f0c7f551&#45;4480&#45;4767&#45;95a3&#45;713d135913d9 -->
<g id="edge27" class="edge"><title>MEKK1/4&#45;&gt;pr_f0c7f551&#45;4480&#45;4767&#45;95a3&#45;713d135913d9</title>
<path fill="none" stroke="black" d="M355.793,-630.738C349.481,-622.371 341.035,-611.176 332.29,-599.584"/>
<polygon fill="black" stroke="black" points="335.027,-597.401 326.21,-591.526 329.439,-601.617 335.027,-597.401"/>
</g>
<!-- pr_a0d6c58f&#45;7b7f&#45;4ff5&#45;a0b7&#45;71900e6e4648&#45;&gt;MEKK1/4 -->
<g id="edge28" class="edge"><title>pr_a0d6c58f&#45;7b7f&#45;4ff5&#45;a0b7&#45;71900e6e4648&#45;&gt;MEKK1/4</title>
<path fill="none" stroke="black" d="M359.76,-701.213C359.697,-691.965 359.927,-682.586 360.451,-674.285"/>
<polygon fill="black" stroke="black" points="363.957,-674.354 361.308,-664.096 356.982,-673.767 363.957,-674.354"/>
</g>
<!-- MAP2K4 -->
<g id="node18" class="node"><title>MAP2K4</title>
<ellipse fill="none" stroke="black" cx="289.5" cy="-437.276" rx="18" ry="18"/>
<text text-anchor="middle" x="289.5" y="-436.076" font-family="Times,serif" font-size="4.00">MAP2K4</text>
</g>
<!-- MAP2K4&#45;&gt;pr_f0c7f551&#45;4480&#45;4767&#45;95a3&#45;713d135913d9 -->
<g id="edge29" class="edge"><title>MAP2K4&#45;&gt;pr_f0c7f551&#45;4480&#45;4767&#45;95a3&#45;713d135913d9</title>
<path fill="none" stroke="black" d="M294.626,-454.857C295.496,-462.536 296.017,-472.17 296.187,-482.188"/>
<polygon fill="black" stroke="black" points="292.688,-482.295 296.242,-492.276 299.688,-482.257 292.688,-482.295"/>
</g>
<!-- MAP2K4&#45;&gt;pr_6b6076ef&#45;e4fc&#45;434e&#45;9522&#45;253e1ebd78bd -->
<g id="edge30" class="edge"><title>MAP2K4&#45;&gt;pr_6b6076ef&#45;e4fc&#45;434e&#45;9522&#45;253e1ebd78bd</title>
<path fill="none" stroke="black" d="M293.838,-419.792C295.871,-412.066 298.43,-402.345 301.089,-392.24"/>
<polygon fill="black" stroke="black" points="304.496,-393.048 303.656,-382.487 297.726,-391.267 304.496,-393.048"/>
</g>
<!-- pr_f0c7f551&#45;4480&#45;4767&#45;95a3&#45;713d135913d9&#45;&gt;MAP2K4 -->
<g id="edge31" class="edge"><title>pr_f0c7f551&#45;4480&#45;4767&#45;95a3&#45;713d135913d9&#45;&gt;MAP2K4</title>
<path fill="none" stroke="black" d="M282.758,-492.276C282.701,-482.913 282.943,-473.43 283.487,-465.078"/>
<polygon fill="black" stroke="black" points="286.996,-465.122 284.374,-454.857 280.022,-464.517 286.996,-465.122"/>
</g>
<!-- pr_6b6076ef&#45;e4fc&#45;434e&#45;9522&#45;253e1ebd78bd&#45;&gt;JNK -->
<g id="edge32" class="edge"><title>pr_6b6076ef&#45;e4fc&#45;434e&#45;9522&#45;253e1ebd78bd&#45;&gt;JNK</title>
<path fill="none" stroke="black" d="M309.758,-283.092C309.701,-273.729 309.943,-264.246 310.487,-255.894"/>
<polygon fill="black" stroke="black" points="313.996,-255.938 311.374,-245.673 307.022,-255.333 313.996,-255.938"/>
</g>
<!-- 7a protein -->
<g id="node21" class="node"><title>7a protein</title>
<ellipse fill="none" stroke="black" cx="344.5" cy="-437.276" rx="19.1842" ry="19.1842"/>
<text text-anchor="middle" x="344.5" y="-436.076" font-family="Times,serif" font-size="4.00">7a protein</text>
</g>
<!-- 7a protein&#45;&gt;pr_6b6076ef&#45;e4fc&#45;434e&#45;9522&#45;253e1ebd78bd -->
<g id="edge33" class="edge"><title>7a protein&#45;&gt;pr_6b6076ef&#45;e4fc&#45;434e&#45;9522&#45;253e1ebd78bd</title>
<path fill="none" stroke="black" d="M339.623,-418.406C337.555,-410.828 335.016,-401.526 332.387,-391.893"/>
<polygon fill="black" stroke="black" points="335.751,-390.926 329.742,-382.201 328.998,-392.769 335.751,-390.926"/>
</g>
<!-- 3a protein -->
<g id="node22" class="node"><title>3a protein</title>
<ellipse fill="none" stroke="black" cx="400.5" cy="-437.276" rx="19.1842" ry="19.1842"/>
<text text-anchor="middle" x="400.5" y="-436.076" font-family="Times,serif" font-size="4.00">3a protein</text>
</g>
<!-- 3a protein&#45;&gt;pr_6b6076ef&#45;e4fc&#45;434e&#45;9522&#45;253e1ebd78bd -->
<g id="edge34" class="edge"><title>3a protein&#45;&gt;pr_6b6076ef&#45;e4fc&#45;434e&#45;9522&#45;253e1ebd78bd</title>
<path fill="none" stroke="black" d="M388.82,-422.011C381.868,-413.52 372.543,-402.13 362.904,-390.359"/>
<polygon fill="black" stroke="black" points="365.591,-388.115 356.547,-382.595 360.174,-392.549 365.591,-388.115"/>
</g>
<!-- pr_a12a7061&#45;fb4e&#45;46a3&#45;ad28&#45;676d99360142&#45;&gt;JNK -->
<g id="edge35" class="edge"><title>pr_a12a7061&#45;fb4e&#45;46a3&#45;ad28&#45;676d99360142&#45;&gt;JNK</title>
<path fill="none" stroke="black" d="M369.027,-172.575C358.327,-185.409 346.886,-198.465 337.359,-208.583"/>
<polygon fill="black" stroke="black" points="334.617,-206.384 330.181,-216.006 339.649,-211.25 334.617,-206.384"/>
</g>
<!-- S protein -->
<g id="node24" class="node"><title>S protein</title>
<ellipse fill="none" stroke="black" cx="403.5" cy="-228.092" rx="18.0625" ry="18.0625"/>
<text text-anchor="middle" x="403.5" y="-226.892" font-family="Times,serif" font-size="4.00">S protein</text>
</g>
<!-- S protein&#45;&gt;pr_a12a7061&#45;fb4e&#45;46a3&#45;ad28&#45;676d99360142 -->
<g id="edge36" class="edge"><title>S protein&#45;&gt;pr_a12a7061&#45;fb4e&#45;46a3&#45;ad28&#45;676d99360142</title>
<path fill="none" stroke="black" d="M403.5,-209.986C403.5,-202.394 403.5,-192.962 403.5,-183.145"/>
<polygon fill="black" stroke="black" points="407,-182.836 403.5,-172.836 400,-182.836 407,-182.836"/>
</g>
</g>
</svg>
