<?xml version="1.0" encoding="UTF-8" standalone="no"?>
<!DOCTYPE svg PUBLIC "-//W3C//DTD SVG 1.1//EN"
 "http://www.w3.org/Graphics/SVG/1.1/DTD/svg11.dtd">
<!-- Generated by graphviz version 2.38.0 (20140413.2041)
 -->
<!-- Title: G Pages: 1 -->
<svg width="574pt" height="903pt"
 viewBox="0.00 0.00 573.50 902.64" xmlns="http://www.w3.org/2000/svg" xmlns:xlink="http://www.w3.org/1999/xlink">
<g id="graph0" class="graph" transform="scale(1 1) rotate(0) translate(4 898.641)">
<title>G</title>
<polygon fill="white" stroke="none" points="-4,4 -4,-898.641 569.5,-898.641 569.5,4 -4,4"/>
<!-- MAP2K7 -->
<g id="node1" class="node"><title>MAP2K7</title>
<ellipse fill="none" stroke="black" cx="94" cy="-863.882" rx="18" ry="18"/>
<text text-anchor="middle" x="94" y="-862.682" font-family="Times,serif" font-size="4.00">MAP2K7</text>
</g>
<!-- pr_40329155&#45;ff41&#45;45da&#45;a2dd&#45;6dfdb8371cc4 -->
<g id="node2" class="node"><title>pr_40329155&#45;ff41&#45;45da&#45;a2dd&#45;6dfdb8371cc4</title>
<polygon fill="none" stroke="black" points="143,-795.623 45,-795.623 45,-697.623 143,-697.623 143,-795.623"/>
<text text-anchor="middle" x="94" y="-745.423" font-family="Times,serif" font-size="4.00">pr_40329155&#45;ff41&#45;45da&#45;a2dd&#45;6dfdb8371cc4</text>
</g>
<!-- MAP2K7&#45;&gt;pr_40329155&#45;ff41&#45;45da&#45;a2dd&#45;6dfdb8371cc4 -->
<g id="edge1" class="edge"><title>MAP2K7&#45;&gt;pr_40329155&#45;ff41&#45;45da&#45;a2dd&#45;6dfdb8371cc4</title>
<path fill="none" stroke="black" d="M89.0994,-846.368C87.8865,-835.596 87.2702,-820.824 87.2505,-805.987"/>
<polygon fill="black" stroke="black" points="90.7521,-805.781 87.3322,-795.753 83.7524,-805.725 90.7521,-805.781"/>
</g>
<!-- pr_11e1f772&#45;2c2d&#45;4952&#45;ba97&#45;0ea8dcd847d9 -->
<g id="node20" class="node"><title>pr_11e1f772&#45;2c2d&#45;4952&#45;ba97&#45;0ea8dcd847d9</title>
<polygon fill="none" stroke="black" points="366,-380 266,-380 266,-280 366,-280 366,-380"/>
<text text-anchor="middle" x="316" y="-328.8" font-family="Times,serif" font-size="4.00">pr_11e1f772&#45;2c2d&#45;4952&#45;ba97&#45;0ea8dcd847d9</text>
</g>
<!-- MAP2K7&#45;&gt;pr_11e1f772&#45;2c2d&#45;4952&#45;ba97&#45;0ea8dcd847d9 -->
<g id="edge2" class="edge"><title>MAP2K7&#45;&gt;pr_11e1f772&#45;2c2d&#45;4952&#45;ba97&#45;0ea8dcd847d9</title>
<path fill="none" stroke="black" d="M80.3735,-851.892C66.653,-839.974 46.1131,-819.615 36,-797.123 7.61741,-733.999 17,-711.773 17,-642.562 17,-642.562 17,-642.562 17,-536.5 17,-421.567 168.902,-366.074 256.165,-343.677"/>
<polygon fill="black" stroke="black" points="257.1,-347.051 265.954,-341.233 255.404,-340.259 257.1,-347.051"/>
</g>
<!-- pr_40329155&#45;ff41&#45;45da&#45;a2dd&#45;6dfdb8371cc4&#45;&gt;MAP2K7 -->
<g id="edge3" class="edge"><title>pr_40329155&#45;ff41&#45;45da&#45;a2dd&#45;6dfdb8371cc4&#45;&gt;MAP2K7</title>
<path fill="none" stroke="black" d="M100.668,-795.753C100.909,-809.565 100.62,-824.125 99.8013,-836.142"/>
<polygon fill="black" stroke="black" points="96.2916,-836.1 98.9006,-846.368 103.265,-836.714 96.2916,-836.1"/>
</g>
<!-- MLK1/2/3 -->
<g id="node3" class="node"><title>MLK1/2/3</title>
<ellipse fill="none" stroke="black" cx="211" cy="-863.882" rx="18.6233" ry="18.6233"/>
<text text-anchor="middle" x="211" y="-862.682" font-family="Times,serif" font-size="4.00">MLK1/2/3</text>
</g>
<!-- MLK1/2/3&#45;&gt;pr_40329155&#45;ff41&#45;45da&#45;a2dd&#45;6dfdb8371cc4 -->
<g id="edge4" class="edge"><title>MLK1/2/3&#45;&gt;pr_40329155&#45;ff41&#45;45da&#45;a2dd&#45;6dfdb8371cc4</title>
<path fill="none" stroke="black" d="M198.032,-850.107C186.214,-838.465 167.908,-820.431 149.927,-802.718"/>
<polygon fill="black" stroke="black" points="152.379,-800.221 142.799,-795.696 147.467,-805.207 152.379,-800.221"/>
</g>
<!-- pr_39ab6aa9&#45;0814&#45;4af6&#45;a623&#45;4d9788172684 -->
<g id="node5" class="node"><title>pr_39ab6aa9&#45;0814&#45;4af6&#45;a623&#45;4d9788172684</title>
<polygon fill="none" stroke="black" points="261,-796.623 161,-796.623 161,-696.623 261,-696.623 261,-796.623"/>
<text text-anchor="middle" x="211" y="-745.423" font-family="Times,serif" font-size="4.00">pr_39ab6aa9&#45;0814&#45;4af6&#45;a623&#45;4d9788172684</text>
</g>
<!-- MLK1/2/3&#45;&gt;pr_39ab6aa9&#45;0814&#45;4af6&#45;a623&#45;4d9788172684 -->
<g id="edge5" class="edge"><title>MLK1/2/3&#45;&gt;pr_39ab6aa9&#45;0814&#45;4af6&#45;a623&#45;4d9788172684</title>
<path fill="none" stroke="black" d="M206.045,-845.875C204.895,-835.394 204.298,-821.266 204.253,-806.995"/>
<polygon fill="black" stroke="black" points="207.755,-806.65 204.318,-796.629 200.755,-806.607 207.755,-806.65"/>
</g>
<!-- SARS&#45;CoV&#45;1 proteins -->
<g id="node4" class="node"><title>SARS&#45;CoV&#45;1 proteins</title>
<ellipse fill="none" stroke="black" cx="283" cy="-863.882" rx="30.5202" ry="30.5202"/>
<text text-anchor="middle" x="283" y="-862.682" font-family="Times,serif" font-size="4.00">SARS&#45;CoV&#45;1 proteins</text>
</g>
<!-- SARS&#45;CoV&#45;1 proteins&#45;&gt;pr_40329155&#45;ff41&#45;45da&#45;a2dd&#45;6dfdb8371cc4 -->
<g id="edge6" class="edge"><title>SARS&#45;CoV&#45;1 proteins&#45;&gt;pr_40329155&#45;ff41&#45;45da&#45;a2dd&#45;6dfdb8371cc4</title>
<path fill="none" stroke="black" d="M258.418,-844.981C252.231,-840.835 245.497,-836.618 239,-833.123 202.147,-813.3 187.688,-818.975 152,-797.123 151.908,-797.067 151.817,-797.011 151.725,-796.954"/>
<polygon fill="black" stroke="black" points="153.493,-793.928 143.219,-791.343 149.639,-799.771 153.493,-793.928"/>
</g>
<!-- SARS&#45;CoV&#45;1 proteins&#45;&gt;pr_39ab6aa9&#45;0814&#45;4af6&#45;a623&#45;4d9788172684 -->
<g id="edge7" class="edge"><title>SARS&#45;CoV&#45;1 proteins&#45;&gt;pr_39ab6aa9&#45;0814&#45;4af6&#45;a623&#45;4d9788172684</title>
<path fill="none" stroke="black" d="M267.021,-837.303C261.078,-827.79 254.069,-816.568 247.056,-805.343"/>
<polygon fill="black" stroke="black" points="249.977,-803.412 241.711,-796.785 244.04,-807.121 249.977,-803.412"/>
</g>
<!-- pr_7189dda3&#45;1bc5&#45;4e59&#45;bc35&#45;b84469688389 -->
<g id="node17" class="node"><title>pr_7189dda3&#45;1bc5&#45;4e59&#45;bc35&#45;b84469688389</title>
<polygon fill="none" stroke="black" points="418.5,-797.123 317.5,-797.123 317.5,-696.123 418.5,-696.123 418.5,-797.123"/>
<text text-anchor="middle" x="368" y="-745.423" font-family="Times,serif" font-size="4.00">pr_7189dda3&#45;1bc5&#45;4e59&#45;bc35&#45;b84469688389</text>
</g>
<!-- SARS&#45;CoV&#45;1 proteins&#45;&gt;pr_7189dda3&#45;1bc5&#45;4e59&#45;bc35&#45;b84469688389 -->
<g id="edge8" class="edge"><title>SARS&#45;CoV&#45;1 proteins&#45;&gt;pr_7189dda3&#45;1bc5&#45;4e59&#45;bc35&#45;b84469688389</title>
<path fill="none" stroke="black" d="M300.819,-838.72C308.018,-828.959 316.662,-817.237 325.317,-805.501"/>
<polygon fill="black" stroke="black" points="328.174,-807.524 331.292,-797.399 322.54,-803.369 328.174,-807.524"/>
</g>
<!-- pr_ea500f00&#45;e97b&#45;4c5c&#45;b263&#45;af8e116bb8e5 -->
<g id="node19" class="node"><title>pr_ea500f00&#45;e97b&#45;4c5c&#45;b263&#45;af8e116bb8e5</title>
<polygon fill="none" stroke="black" points="338.5,-587 239.5,-587 239.5,-488 338.5,-488 338.5,-587"/>
<text text-anchor="middle" x="289" y="-536.3" font-family="Times,serif" font-size="4.00">pr_ea500f00&#45;e97b&#45;4c5c&#45;b263&#45;af8e116bb8e5</text>
</g>
<!-- SARS&#45;CoV&#45;1 proteins&#45;&gt;pr_ea500f00&#45;e97b&#45;4c5c&#45;b263&#45;af8e116bb8e5 -->
<g id="edge9" class="edge"><title>SARS&#45;CoV&#45;1 proteins&#45;&gt;pr_ea500f00&#45;e97b&#45;4c5c&#45;b263&#45;af8e116bb8e5</title>
<path fill="none" stroke="black" d="M283.554,-832.947C284.542,-779.538 286.624,-666.93 287.909,-597.49"/>
<polygon fill="black" stroke="black" points="291.414,-597.214 288.1,-587.151 284.416,-597.085 291.414,-597.214"/>
</g>
<!-- pr_39ab6aa9&#45;0814&#45;4af6&#45;a623&#45;4d9788172684&#45;&gt;MLK1/2/3 -->
<g id="edge10" class="edge"><title>pr_39ab6aa9&#45;0814&#45;4af6&#45;a623&#45;4d9788172684&#45;&gt;MLK1/2/3</title>
<path fill="none" stroke="black" d="M217.682,-796.629C217.895,-810.076 217.607,-824.165 216.819,-835.876"/>
<polygon fill="black" stroke="black" points="213.329,-835.611 215.955,-845.875 220.303,-836.214 213.329,-835.611"/>
</g>
<!-- ATF2 -->
<g id="node6" class="node"><title>ATF2</title>
<ellipse fill="none" stroke="black" cx="50" cy="-18" rx="18" ry="18"/>
<text text-anchor="middle" x="50" y="-16.8" font-family="Times,serif" font-size="4.00">ATF2</text>
</g>
<!-- pr_27eb01a0&#45;9527&#45;44cf&#45;9ac4&#45;417ec1668622 -->
<g id="node7" class="node"><title>pr_27eb01a0&#45;9527&#45;44cf&#45;9ac4&#45;417ec1668622</title>
<polygon fill="none" stroke="black" points="100,-172 0,-172 0,-72 100,-72 100,-172"/>
<text text-anchor="middle" x="50" y="-120.8" font-family="Times,serif" font-size="4.00">pr_27eb01a0&#45;9527&#45;44cf&#45;9ac4&#45;417ec1668622</text>
</g>
<!-- ATF2&#45;&gt;pr_27eb01a0&#45;9527&#45;44cf&#45;9ac4&#45;417ec1668622 -->
<g id="edge11" class="edge"><title>ATF2&#45;&gt;pr_27eb01a0&#45;9527&#45;44cf&#45;9ac4&#45;417ec1668622</title>
<path fill="none" stroke="black" d="M55.1407,-35.6151C55.9752,-42.9907 56.4851,-52.1624 56.6706,-61.7331"/>
<polygon fill="black" stroke="black" points="53.171,-61.8193 56.7463,-71.7926 60.1708,-61.7665 53.171,-61.8193"/>
</g>
<!-- pr_27eb01a0&#45;9527&#45;44cf&#45;9ac4&#45;417ec1668622&#45;&gt;ATF2 -->
<g id="edge12" class="edge"><title>pr_27eb01a0&#45;9527&#45;44cf&#45;9ac4&#45;417ec1668622&#45;&gt;ATF2</title>
<path fill="none" stroke="black" d="M43.2537,-71.7926C43.2166,-62.8265 43.458,-53.7864 43.9778,-45.7826"/>
<polygon fill="black" stroke="black" points="47.4824,-45.88 44.8593,-35.6151 40.5086,-45.2754 47.4824,-45.88"/>
</g>
<!-- JNK -->
<g id="node8" class="node"><title>JNK</title>
<ellipse fill="none" stroke="black" cx="316" cy="-226" rx="18" ry="18"/>
<text text-anchor="middle" x="316" y="-224.8" font-family="Times,serif" font-size="4.00">JNK</text>
</g>
<!-- JNK&#45;&gt;pr_27eb01a0&#45;9527&#45;44cf&#45;9ac4&#45;417ec1668622 -->
<g id="edge13" class="edge"><title>JNK&#45;&gt;pr_27eb01a0&#45;9527&#45;44cf&#45;9ac4&#45;417ec1668622</title>
<path fill="none" stroke="black" d="M298.174,-223.111C261.142,-218.629 173.929,-205.134 109,-172 108.907,-171.953 108.815,-171.905 108.722,-171.858"/>
<polygon fill="black" stroke="black" points="110.601,-168.9 100.179,-166.993 107.138,-174.983 110.601,-168.9"/>
</g>
<!-- pr_27dd7ef7&#45;74a2&#45;47a4&#45;88ed&#45;9d309d2cf50f -->
<g id="node10" class="node"><title>pr_27dd7ef7&#45;74a2&#45;47a4&#45;88ed&#45;9d309d2cf50f</title>
<polygon fill="none" stroke="black" points="216,-171 118,-171 118,-73 216,-73 216,-171"/>
<text text-anchor="middle" x="167" y="-120.8" font-family="Times,serif" font-size="4.00">pr_27dd7ef7&#45;74a2&#45;47a4&#45;88ed&#45;9d309d2cf50f</text>
</g>
<!-- JNK&#45;&gt;pr_27dd7ef7&#45;74a2&#45;47a4&#45;88ed&#45;9d309d2cf50f -->
<g id="edge14" class="edge"><title>JNK&#45;&gt;pr_27dd7ef7&#45;74a2&#45;47a4&#45;88ed&#45;9d309d2cf50f</title>
<path fill="none" stroke="black" d="M300.361,-216.969C281.818,-207.205 250.247,-189.813 225,-172 224.818,-171.872 224.636,-171.743 224.454,-171.614"/>
<polygon fill="black" stroke="black" points="226.348,-168.662 216.219,-165.554 222.199,-174.3 226.348,-168.662"/>
</g>
<!-- pr_d8577aee&#45;8808&#45;463c&#45;b199&#45;97c60fd980cc -->
<g id="node12" class="node"><title>pr_d8577aee&#45;8808&#45;463c&#45;b199&#45;97c60fd980cc</title>
<polygon fill="none" stroke="black" points="334,-172 234,-172 234,-72 334,-72 334,-172"/>
<text text-anchor="middle" x="284" y="-120.8" font-family="Times,serif" font-size="4.00">pr_d8577aee&#45;8808&#45;463c&#45;b199&#45;97c60fd980cc</text>
</g>
<!-- JNK&#45;&gt;pr_d8577aee&#45;8808&#45;463c&#45;b199&#45;97c60fd980cc -->
<g id="edge15" class="edge"><title>JNK&#45;&gt;pr_d8577aee&#45;8808&#45;463c&#45;b199&#45;97c60fd980cc</title>
<path fill="none" stroke="black" d="M310.859,-208.612C308.527,-201.178 305.612,-191.887 302.57,-182.191"/>
<polygon fill="black" stroke="black" points="305.835,-180.906 299.502,-172.413 299.156,-183.002 305.835,-180.906"/>
</g>
<!-- pr_55f270ce&#45;bf8f&#45;4fb3&#45;9d3f&#45;c8388f751f35 -->
<g id="node14" class="node"><title>pr_55f270ce&#45;bf8f&#45;4fb3&#45;9d3f&#45;c8388f751f35</title>
<polygon fill="none" stroke="black" points="565.5,-169.5 470.5,-169.5 470.5,-74.5 565.5,-74.5 565.5,-169.5"/>
<text text-anchor="middle" x="518" y="-120.8" font-family="Times,serif" font-size="4.00">pr_55f270ce&#45;bf8f&#45;4fb3&#45;9d3f&#45;c8388f751f35</text>
</g>
<!-- JNK&#45;&gt;pr_55f270ce&#45;bf8f&#45;4fb3&#45;9d3f&#45;c8388f751f35 -->
<g id="edge16" class="edge"><title>JNK&#45;&gt;pr_55f270ce&#45;bf8f&#45;4fb3&#45;9d3f&#45;c8388f751f35</title>
<path fill="none" stroke="black" d="M332.935,-219.658C366.125,-209.05 438.456,-185.216 461,-172 461.296,-171.827 461.591,-171.652 461.886,-171.476"/>
<polygon fill="black" stroke="black" points="463.9,-174.341 470.398,-165.972 460.1,-168.463 463.9,-174.341"/>
</g>
<!-- JNK&#45;&gt;pr_11e1f772&#45;2c2d&#45;4952&#45;ba97&#45;0ea8dcd847d9 -->
<g id="edge17" class="edge"><title>JNK&#45;&gt;pr_11e1f772&#45;2c2d&#45;4952&#45;ba97&#45;0ea8dcd847d9</title>
<path fill="none" stroke="black" d="M321.141,-243.615C321.975,-250.991 322.485,-260.162 322.671,-269.733"/>
<polygon fill="black" stroke="black" points="319.171,-269.819 322.746,-279.793 326.171,-269.767 319.171,-269.819"/>
</g>
<!-- pr_44ce258a&#45;c01a&#45;406a&#45;bba6&#45;71199bc2f725 -->
<g id="node23" class="node"><title>pr_44ce258a&#45;c01a&#45;406a&#45;bba6&#45;71199bc2f725</title>
<polygon fill="none" stroke="black" points="452,-172 352,-172 352,-72 452,-72 452,-172"/>
<text text-anchor="middle" x="402" y="-120.8" font-family="Times,serif" font-size="4.00">pr_44ce258a&#45;c01a&#45;406a&#45;bba6&#45;71199bc2f725</text>
</g>
<!-- JNK&#45;&gt;pr_44ce258a&#45;c01a&#45;406a&#45;bba6&#45;71199bc2f725 -->
<g id="edge18" class="edge"><title>JNK&#45;&gt;pr_44ce258a&#45;c01a&#45;406a&#45;bba6&#45;71199bc2f725</title>
<path fill="none" stroke="black" d="M324.052,-209.508C329.883,-201.436 338.111,-191.008 347.065,-180.202"/>
<polygon fill="black" stroke="black" points="349.95,-182.209 353.69,-172.296 344.585,-177.713 349.95,-182.209"/>
</g>
<!-- TP53 -->
<g id="node9" class="node"><title>TP53</title>
<ellipse fill="none" stroke="black" cx="167" cy="-18" rx="18" ry="18"/>
<text text-anchor="middle" x="167" y="-16.8" font-family="Times,serif" font-size="4.00">TP53</text>
</g>
<!-- TP53&#45;&gt;pr_27dd7ef7&#45;74a2&#45;47a4&#45;88ed&#45;9d309d2cf50f -->
<g id="edge19" class="edge"><title>TP53&#45;&gt;pr_27dd7ef7&#45;74a2&#45;47a4&#45;88ed&#45;9d309d2cf50f</title>
<path fill="none" stroke="black" d="M172.139,-35.5973C173.009,-43.2796 173.526,-52.9131 173.692,-62.9174"/>
<polygon fill="black" stroke="black" points="170.192,-63.0036 173.74,-72.9868 177.192,-62.9702 170.192,-63.0036"/>
</g>
<!-- pr_27dd7ef7&#45;74a2&#45;47a4&#45;88ed&#45;9d309d2cf50f&#45;&gt;TP53 -->
<g id="edge20" class="edge"><title>pr_27dd7ef7&#45;74a2&#45;47a4&#45;88ed&#45;9d309d2cf50f&#45;&gt;TP53</title>
<path fill="none" stroke="black" d="M160.26,-72.9868C160.196,-63.6456 160.434,-54.1703 160.975,-45.8202"/>
<polygon fill="black" stroke="black" points="164.485,-45.8622 161.861,-35.5973 157.511,-45.2577 164.485,-45.8622"/>
</g>
<!-- BCL2 -->
<g id="node11" class="node"><title>BCL2</title>
<ellipse fill="none" stroke="black" cx="284" cy="-18" rx="18" ry="18"/>
<text text-anchor="middle" x="284" y="-16.8" font-family="Times,serif" font-size="4.00">BCL2</text>
</g>
<!-- BCL2&#45;&gt;pr_d8577aee&#45;8808&#45;463c&#45;b199&#45;97c60fd980cc -->
<g id="edge21" class="edge"><title>BCL2&#45;&gt;pr_d8577aee&#45;8808&#45;463c&#45;b199&#45;97c60fd980cc</title>
<path fill="none" stroke="black" d="M289.141,-35.6151C289.975,-42.9907 290.485,-52.1624 290.671,-61.7331"/>
<polygon fill="black" stroke="black" points="287.171,-61.8193 290.746,-71.7926 294.171,-61.7665 287.171,-61.8193"/>
</g>
<!-- pr_d8577aee&#45;8808&#45;463c&#45;b199&#45;97c60fd980cc&#45;&gt;BCL2 -->
<g id="edge22" class="edge"><title>pr_d8577aee&#45;8808&#45;463c&#45;b199&#45;97c60fd980cc&#45;&gt;BCL2</title>
<path fill="none" stroke="black" d="M277.254,-71.7926C277.217,-62.8265 277.458,-53.7864 277.978,-45.7826"/>
<polygon fill="black" stroke="black" points="281.482,-45.88 278.859,-35.6151 274.509,-45.2754 281.482,-45.88"/>
</g>
<!-- AP&#45;1 -->
<g id="node13" class="node"><title>AP&#45;1</title>
<ellipse fill="none" stroke="black" cx="518" cy="-18" rx="18" ry="18"/>
<text text-anchor="middle" x="518" y="-16.8" font-family="Times,serif" font-size="4.00">AP&#45;1</text>
</g>
<!-- AP&#45;1&#45;&gt;pr_55f270ce&#45;bf8f&#45;4fb3&#45;9d3f&#45;c8388f751f35 -->
<g id="edge23" class="edge"><title>AP&#45;1&#45;&gt;pr_55f270ce&#45;bf8f&#45;4fb3&#45;9d3f&#45;c8388f751f35</title>
<path fill="none" stroke="black" d="M523.148,-35.6756C524.054,-43.7193 524.576,-53.8889 524.713,-64.3797"/>
<polygon fill="black" stroke="black" points="521.213,-64.482 524.727,-74.4773 528.213,-64.4726 521.213,-64.482"/>
</g>
<!-- pr_55f270ce&#45;bf8f&#45;4fb3&#45;9d3f&#45;c8388f751f35&#45;&gt;AP&#45;1 -->
<g id="edge24" class="edge"><title>pr_55f270ce&#45;bf8f&#45;4fb3&#45;9d3f&#45;c8388f751f35&#45;&gt;AP&#45;1</title>
<path fill="none" stroke="black" d="M511.273,-74.4773C511.171,-64.6158 511.407,-54.5294 511.983,-45.708"/>
<polygon fill="black" stroke="black" points="515.476,-45.9405 512.852,-35.6756 508.502,-45.3358 515.476,-45.9405"/>
</g>
<!-- 3b -->
<g id="node15" class="node"><title>3b</title>
<ellipse fill="none" stroke="black" cx="518" cy="-226" rx="18" ry="18"/>
<text text-anchor="middle" x="518" y="-224.8" font-family="Times,serif" font-size="4.00">3b</text>
</g>
<!-- 3b&#45;&gt;pr_55f270ce&#45;bf8f&#45;4fb3&#45;9d3f&#45;c8388f751f35 -->
<g id="edge25" class="edge"><title>3b&#45;&gt;pr_55f270ce&#45;bf8f&#45;4fb3&#45;9d3f&#45;c8388f751f35</title>
<path fill="none" stroke="black" d="M518,-207.697C518,-199.853 518,-190.085 518,-179.999"/>
<polygon fill="black" stroke="black" points="521.5,-179.867 518,-169.867 514.5,-179.867 521.5,-179.867"/>
</g>
<!-- MEKK1/4 -->
<g id="node16" class="node"><title>MEKK1/4</title>
<ellipse fill="none" stroke="black" cx="368" cy="-641.562" rx="18.6233" ry="18.6233"/>
<text text-anchor="middle" x="368" y="-640.362" font-family="Times,serif" font-size="4.00">MEKK1/4</text>
</g>
<!-- MEKK1/4&#45;&gt;pr_7189dda3&#45;1bc5&#45;4e59&#45;bc35&#45;b84469688389 -->
<g id="edge26" class="edge"><title>MEKK1/4&#45;&gt;pr_7189dda3&#45;1bc5&#45;4e59&#45;bc35&#45;b84469688389</title>
<path fill="none" stroke="black" d="M373.193,-659.823C374.001,-667.233 374.494,-676.373 374.674,-685.897"/>
<polygon fill="black" stroke="black" points="371.174,-685.929 374.746,-695.904 378.173,-685.878 371.174,-685.929"/>
</g>
<!-- MEKK1/4&#45;&gt;pr_ea500f00&#45;e97b&#45;4c5c&#45;b263&#45;af8e116bb8e5 -->
<g id="edge27" class="edge"><title>MEKK1/4&#45;&gt;pr_ea500f00&#45;e97b&#45;4c5c&#45;b263&#45;af8e116bb8e5</title>
<path fill="none" stroke="black" d="M357.015,-626.37C350.539,-618.004 341.874,-606.808 332.901,-595.217"/>
<polygon fill="black" stroke="black" points="335.552,-592.924 326.663,-587.158 330.017,-597.208 335.552,-592.924"/>
</g>
<!-- pr_7189dda3&#45;1bc5&#45;4e59&#45;bc35&#45;b84469688389&#45;&gt;MEKK1/4 -->
<g id="edge28" class="edge"><title>pr_7189dda3&#45;1bc5&#45;4e59&#45;bc35&#45;b84469688389&#45;&gt;MEKK1/4</title>
<path fill="none" stroke="black" d="M361.254,-695.904C361.217,-686.986 361.451,-677.995 361.954,-670.003"/>
<polygon fill="black" stroke="black" points="365.459,-670.08 362.807,-659.823 358.484,-669.495 365.459,-670.08"/>
</g>
<!-- MAP2K4 -->
<g id="node18" class="node"><title>MAP2K4</title>
<ellipse fill="none" stroke="black" cx="289" cy="-434" rx="18" ry="18"/>
<text text-anchor="middle" x="289" y="-432.8" font-family="Times,serif" font-size="4.00">MAP2K4</text>
</g>
<!-- MAP2K4&#45;&gt;pr_ea500f00&#45;e97b&#45;4c5c&#45;b263&#45;af8e116bb8e5 -->
<g id="edge29" class="edge"><title>MAP2K4&#45;&gt;pr_ea500f00&#45;e97b&#45;4c5c&#45;b263&#45;af8e116bb8e5</title>
<path fill="none" stroke="black" d="M294.154,-451.647C294.988,-459.033 295.495,-468.213 295.675,-477.78"/>
<polygon fill="black" stroke="black" points="292.176,-477.855 295.745,-487.831 299.176,-477.807 292.176,-477.855"/>
</g>
<!-- MAP2K4&#45;&gt;pr_11e1f772&#45;2c2d&#45;4952&#45;ba97&#45;0ea8dcd847d9 -->
<g id="edge30" class="edge"><title>MAP2K4&#45;&gt;pr_11e1f772&#45;2c2d&#45;4952&#45;ba97&#45;0ea8dcd847d9</title>
<path fill="none" stroke="black" d="M293.459,-416.157C295.436,-408.688 297.892,-399.41 300.448,-389.752"/>
<polygon fill="black" stroke="black" points="303.848,-390.583 303.024,-380.021 297.081,-388.792 303.848,-390.583"/>
</g>
<!-- pr_ea500f00&#45;e97b&#45;4c5c&#45;b263&#45;af8e116bb8e5&#45;&gt;MAP2K4 -->
<g id="edge31" class="edge"><title>pr_ea500f00&#45;e97b&#45;4c5c&#45;b263&#45;af8e116bb8e5&#45;&gt;MAP2K4</title>
<path fill="none" stroke="black" d="M282.255,-487.831C282.212,-478.877 282.449,-469.836 282.967,-461.826"/>
<polygon fill="black" stroke="black" points="286.472,-461.911 283.846,-451.647 279.498,-461.308 286.472,-461.911"/>
</g>
<!-- pr_11e1f772&#45;2c2d&#45;4952&#45;ba97&#45;0ea8dcd847d9&#45;&gt;JNK -->
<g id="edge32" class="edge"><title>pr_11e1f772&#45;2c2d&#45;4952&#45;ba97&#45;0ea8dcd847d9&#45;&gt;JNK</title>
<path fill="none" stroke="black" d="M309.254,-279.793C309.217,-270.826 309.458,-261.786 309.978,-253.783"/>
<polygon fill="black" stroke="black" points="313.482,-253.88 310.859,-243.615 306.509,-253.275 313.482,-253.88"/>
</g>
<!-- 7a -->
<g id="node21" class="node"><title>7a</title>
<ellipse fill="none" stroke="black" cx="343" cy="-434" rx="18" ry="18"/>
<text text-anchor="middle" x="343" y="-432.8" font-family="Times,serif" font-size="4.00">7a</text>
</g>
<!-- 7a&#45;&gt;pr_11e1f772&#45;2c2d&#45;4952&#45;ba97&#45;0ea8dcd847d9 -->
<g id="edge33" class="edge"><title>7a&#45;&gt;pr_11e1f772&#45;2c2d&#45;4952&#45;ba97&#45;0ea8dcd847d9</title>
<path fill="none" stroke="black" d="M338.541,-416.157C336.564,-408.688 334.108,-399.41 331.552,-389.752"/>
<polygon fill="black" stroke="black" points="334.919,-388.792 328.976,-380.021 328.152,-390.583 334.919,-388.792"/>
</g>
<!-- 3a -->
<g id="node22" class="node"><title>3a</title>
<ellipse fill="none" stroke="black" cx="397" cy="-434" rx="18" ry="18"/>
<text text-anchor="middle" x="397" y="-432.8" font-family="Times,serif" font-size="4.00">3a</text>
</g>
<!-- 3a&#45;&gt;pr_11e1f772&#45;2c2d&#45;4952&#45;ba97&#45;0ea8dcd847d9 -->
<g id="edge34" class="edge"><title>3a&#45;&gt;pr_11e1f772&#45;2c2d&#45;4952&#45;ba97&#45;0ea8dcd847d9</title>
<path fill="none" stroke="black" d="M386.076,-419.244C379.48,-410.938 370.582,-399.733 361.344,-388.099"/>
<polygon fill="black" stroke="black" points="363.877,-385.661 354.917,-380.007 358.395,-390.014 363.877,-385.661"/>
</g>
<!-- pr_44ce258a&#45;c01a&#45;406a&#45;bba6&#45;71199bc2f725&#45;&gt;JNK -->
<g id="edge35" class="edge"><title>pr_44ce258a&#45;c01a&#45;406a&#45;bba6&#45;71199bc2f725&#45;&gt;JNK</title>
<path fill="none" stroke="black" d="M367.203,-172.273C356.905,-184.545 345.972,-196.951 336.806,-206.643"/>
<polygon fill="black" stroke="black" points="334.034,-204.474 329.574,-214.084 339.053,-209.352 334.034,-204.474"/>
</g>
<!-- S -->
<g id="node24" class="node"><title>S</title>
<ellipse fill="none" stroke="black" cx="402" cy="-226" rx="18" ry="18"/>
<text text-anchor="middle" x="402" y="-224.8" font-family="Times,serif" font-size="4.00">S</text>
</g>
<!-- S&#45;&gt;pr_44ce258a&#45;c01a&#45;406a&#45;bba6&#45;71199bc2f725 -->
<g id="edge36" class="edge"><title>S&#45;&gt;pr_44ce258a&#45;c01a&#45;406a&#45;bba6&#45;71199bc2f725</title>
<path fill="none" stroke="black" d="M402,-207.697C402,-200.434 402,-191.521 402,-182.234"/>
<polygon fill="black" stroke="black" points="405.5,-182.07 402,-172.07 398.5,-182.07 405.5,-182.07"/>
</g>
</g>
</svg>
