<?xml version="1.0" encoding="UTF-8" standalone="no"?>
<!DOCTYPE svg PUBLIC "-//W3C//DTD SVG 1.1//EN"
 "http://www.w3.org/Graphics/SVG/1.1/DTD/svg11.dtd">
<!-- Generated by graphviz version 2.38.0 (20140413.2041)
 -->
<!-- Title: G Pages: 1 -->
<svg width="459pt" height="1212pt"
 viewBox="0.00 0.00 458.50 1211.89" xmlns="http://www.w3.org/2000/svg" xmlns:xlink="http://www.w3.org/1999/xlink">
<g id="graph0" class="graph" transform="scale(1 1) rotate(0) translate(4 1207.89)">
<title>G</title>
<polygon fill="white" stroke="none" points="-4,4 -4,-1207.89 454.5,-1207.89 454.5,4 -4,4"/>
<!-- MEKK1/4 -->
<g id="node1" class="node"><title>MEKK1/4</title>
<ellipse fill="none" stroke="black" cx="71" cy="-910.261" rx="18.6233" ry="18.6233"/>
<text text-anchor="middle" x="71" y="-909.061" font-family="Times,serif" font-size="4.00">MEKK1/4</text>
</g>
<!-- pr_e85f17ee&#45;a11d&#45;4775&#45;984b&#45;c80e7e360884 -->
<g id="node2" class="node"><title>pr_e85f17ee&#45;a11d&#45;4775&#45;984b&#45;c80e7e360884</title>
<polygon fill="none" stroke="black" points="121,-824.761 21,-824.761 21,-724.761 121,-724.761 121,-824.761"/>
<text text-anchor="middle" x="71" y="-773.561" font-family="Times,serif" font-size="4.00">pr_e85f17ee&#45;a11d&#45;4775&#45;984b&#45;c80e7e360884</text>
</g>
<!-- MEKK1/4&#45;&gt;pr_e85f17ee&#45;a11d&#45;4775&#45;984b&#45;c80e7e360884 -->
<g id="edge1" class="edge"><title>MEKK1/4&#45;&gt;pr_e85f17ee&#45;a11d&#45;4775&#45;984b&#45;c80e7e360884</title>
<path fill="none" stroke="black" d="M71,-891.533C71,-877.032 71,-855.65 71,-835.196"/>
<polygon fill="black" stroke="black" points="74.5001,-834.946 71,-824.946 67.5001,-834.946 74.5001,-834.946"/>
</g>
<!-- MAP2K4 -->
<g id="node3" class="node"><title>MAP2K4</title>
<ellipse fill="none" stroke="black" cx="90" cy="-670.761" rx="18" ry="18"/>
<text text-anchor="middle" x="90" y="-669.561" font-family="Times,serif" font-size="4.00">MAP2K4</text>
</g>
<!-- pr_e85f17ee&#45;a11d&#45;4775&#45;984b&#45;c80e7e360884&#45;&gt;MAP2K4 -->
<g id="edge2" class="edge"><title>pr_e85f17ee&#45;a11d&#45;4775&#45;984b&#45;c80e7e360884&#45;&gt;MAP2K4</title>
<path fill="none" stroke="black" d="M80.1661,-724.554C81.8101,-715.728 83.4676,-706.83 84.9411,-698.919"/>
<polygon fill="black" stroke="black" points="88.4273,-699.316 86.8178,-688.844 81.5457,-698.034 88.4273,-699.316"/>
</g>
<!-- pr_ae6b8704&#45;e22b&#45;4b3a&#45;af80&#45;41fdfdbf25b1 -->
<g id="node7" class="node"><title>pr_ae6b8704&#45;e22b&#45;4b3a&#45;af80&#45;41fdfdbf25b1</title>
<polygon fill="none" stroke="black" points="158,-615.761 60,-615.761 60,-517.761 158,-517.761 158,-615.761"/>
<text text-anchor="middle" x="109" y="-565.561" font-family="Times,serif" font-size="4.00">pr_ae6b8704&#45;e22b&#45;4b3a&#45;af80&#45;41fdfdbf25b1</text>
</g>
<!-- MAP2K4&#45;&gt;pr_ae6b8704&#45;e22b&#45;4b3a&#45;af80&#45;41fdfdbf25b1 -->
<g id="edge3" class="edge"><title>MAP2K4&#45;&gt;pr_ae6b8704&#45;e22b&#45;4b3a&#45;af80&#45;41fdfdbf25b1</title>
<path fill="none" stroke="black" d="M93.1375,-652.918C94.5604,-645.279 96.3357,-635.748 98.1788,-625.854"/>
<polygon fill="black" stroke="black" points="101.643,-626.367 100.034,-615.895 94.7616,-625.085 101.643,-626.367"/>
</g>
<!-- MLK1/2/3 -->
<g id="node4" class="node"><title>MLK1/2/3</title>
<ellipse fill="none" stroke="black" cx="179" cy="-910.261" rx="18.6233" ry="18.6233"/>
<text text-anchor="middle" x="179" y="-909.061" font-family="Times,serif" font-size="4.00">MLK1/2/3</text>
</g>
<!-- pr_f466dff2&#45;84d4&#45;4e98&#45;bba1&#45;50d7fd3d515f -->
<g id="node5" class="node"><title>pr_f466dff2&#45;84d4&#45;4e98&#45;bba1&#45;50d7fd3d515f</title>
<polygon fill="none" stroke="black" points="236.5,-823.261 139.5,-823.261 139.5,-726.261 236.5,-726.261 236.5,-823.261"/>
<text text-anchor="middle" x="188" y="-773.561" font-family="Times,serif" font-size="4.00">pr_f466dff2&#45;84d4&#45;4e98&#45;bba1&#45;50d7fd3d515f</text>
</g>
<!-- MLK1/2/3&#45;&gt;pr_f466dff2&#45;84d4&#45;4e98&#45;bba1&#45;50d7fd3d515f -->
<g id="edge4" class="edge"><title>MLK1/2/3&#45;&gt;pr_f466dff2&#45;84d4&#45;4e98&#45;bba1&#45;50d7fd3d515f</title>
<path fill="none" stroke="black" d="M180.195,-891.533C181.198,-876.661 182.688,-854.552 184.099,-833.629"/>
<polygon fill="black" stroke="black" points="187.602,-833.702 184.782,-823.489 180.618,-833.231 187.602,-833.702"/>
</g>
<!-- MAP2K7 -->
<g id="node6" class="node"><title>MAP2K7</title>
<ellipse fill="none" stroke="black" cx="226" cy="-670.761" rx="18" ry="18"/>
<text text-anchor="middle" x="226" y="-669.561" font-family="Times,serif" font-size="4.00">MAP2K7</text>
</g>
<!-- pr_f466dff2&#45;84d4&#45;4e98&#45;bba1&#45;50d7fd3d515f&#45;&gt;MAP2K7 -->
<g id="edge5" class="edge"><title>pr_f466dff2&#45;84d4&#45;4e98&#45;bba1&#45;50d7fd3d515f&#45;&gt;MAP2K7</title>
<path fill="none" stroke="black" d="M205.776,-726.046C209.441,-716.208 213.168,-706.206 216.406,-697.513"/>
<polygon fill="black" stroke="black" points="219.74,-698.59 219.951,-687.997 213.18,-696.146 219.74,-698.59"/>
</g>
<!-- pr_d7e92127&#45;b68a&#45;4468&#45;9bd2&#45;dc38172f7473 -->
<g id="node9" class="node"><title>pr_d7e92127&#45;b68a&#45;4468&#45;9bd2&#45;dc38172f7473</title>
<polygon fill="none" stroke="black" points="276,-616.761 176,-616.761 176,-516.761 276,-516.761 276,-616.761"/>
<text text-anchor="middle" x="226" y="-565.561" font-family="Times,serif" font-size="4.00">pr_d7e92127&#45;b68a&#45;4468&#45;9bd2&#45;dc38172f7473</text>
</g>
<!-- MAP2K7&#45;&gt;pr_d7e92127&#45;b68a&#45;4468&#45;9bd2&#45;dc38172f7473 -->
<g id="edge6" class="edge"><title>MAP2K7&#45;&gt;pr_d7e92127&#45;b68a&#45;4468&#45;9bd2&#45;dc38172f7473</title>
<path fill="none" stroke="black" d="M226,-652.458C226,-645.195 226,-636.282 226,-626.995"/>
<polygon fill="black" stroke="black" points="229.5,-626.831 226,-616.831 222.5,-626.831 229.5,-626.831"/>
</g>
<!-- JNK -->
<g id="node8" class="node"><title>JNK</title>
<ellipse fill="none" stroke="black" cx="226" cy="-462.761" rx="18" ry="18"/>
<text text-anchor="middle" x="226" y="-461.561" font-family="Times,serif" font-size="4.00">JNK</text>
</g>
<!-- pr_ae6b8704&#45;e22b&#45;4b3a&#45;af80&#45;41fdfdbf25b1&#45;&gt;JNK -->
<g id="edge7" class="edge"><title>pr_ae6b8704&#45;e22b&#45;4b3a&#45;af80&#45;41fdfdbf25b1&#45;&gt;JNK</title>
<path fill="none" stroke="black" d="M158.279,-522.799C174.571,-508.597 191.84,-493.541 204.863,-482.188"/>
<polygon fill="black" stroke="black" points="207.516,-484.519 212.754,-475.309 202.916,-479.242 207.516,-484.519"/>
</g>
<!-- pr_fc6db3c8&#45;b776&#45;458e&#45;8d0e&#45;ca723871e48b -->
<g id="node10" class="node"><title>pr_fc6db3c8&#45;b776&#45;458e&#45;8d0e&#45;ca723871e48b</title>
<polygon fill="none" stroke="black" points="100,-408.761 0,-408.761 0,-308.761 100,-308.761 100,-408.761"/>
<text text-anchor="middle" x="50" y="-357.561" font-family="Times,serif" font-size="4.00">pr_fc6db3c8&#45;b776&#45;458e&#45;8d0e&#45;ca723871e48b</text>
</g>
<!-- JNK&#45;&gt;pr_fc6db3c8&#45;b776&#45;458e&#45;8d0e&#45;ca723871e48b -->
<g id="edge8" class="edge"><title>JNK&#45;&gt;pr_fc6db3c8&#45;b776&#45;458e&#45;8d0e&#45;ca723871e48b</title>
<path fill="none" stroke="black" d="M209.009,-455.717C185.581,-447.021 142.458,-429.7 109,-408.761 108.908,-408.704 108.817,-408.646 108.725,-408.588"/>
<polygon fill="black" stroke="black" points="110.454,-405.534 100.192,-402.9 106.571,-411.359 110.454,-405.534"/>
</g>
<!-- pr_31862f45&#45;d900&#45;48e6&#45;adb9&#45;6a9c3cb0a852 -->
<g id="node12" class="node"><title>pr_31862f45&#45;d900&#45;48e6&#45;adb9&#45;6a9c3cb0a852</title>
<polygon fill="none" stroke="black" points="218,-408.761 118,-408.761 118,-308.761 218,-308.761 218,-408.761"/>
<text text-anchor="middle" x="168" y="-357.561" font-family="Times,serif" font-size="4.00">pr_31862f45&#45;d900&#45;48e6&#45;adb9&#45;6a9c3cb0a852</text>
</g>
<!-- JNK&#45;&gt;pr_31862f45&#45;d900&#45;48e6&#45;adb9&#45;6a9c3cb0a852 -->
<g id="edge9" class="edge"><title>JNK&#45;&gt;pr_31862f45&#45;d900&#45;48e6&#45;adb9&#45;6a9c3cb0a852</title>
<path fill="none" stroke="black" d="M217.442,-446.71C212.961,-438.831 207.156,-428.622 201.108,-417.985"/>
<polygon fill="black" stroke="black" points="203.98,-415.954 195.994,-408.992 197.894,-419.415 203.98,-415.954"/>
</g>
<!-- pr_48924f82&#45;c3ee&#45;4ef7&#45;b3ed&#45;aeef0de185dd -->
<g id="node16" class="node"><title>pr_48924f82&#45;c3ee&#45;4ef7&#45;b3ed&#45;aeef0de185dd</title>
<polygon fill="none" stroke="black" points="334,-407.761 236,-407.761 236,-309.761 334,-309.761 334,-407.761"/>
<text text-anchor="middle" x="285" y="-357.561" font-family="Times,serif" font-size="4.00">pr_48924f82&#45;c3ee&#45;4ef7&#45;b3ed&#45;aeef0de185dd</text>
</g>
<!-- JNK&#45;&gt;pr_48924f82&#45;c3ee&#45;4ef7&#45;b3ed&#45;aeef0de185dd -->
<g id="edge10" class="edge"><title>JNK&#45;&gt;pr_48924f82&#45;c3ee&#45;4ef7&#45;b3ed&#45;aeef0de185dd</title>
<path fill="none" stroke="black" d="M234.706,-446.71C239.41,-438.577 245.55,-427.962 251.916,-416.957"/>
<polygon fill="black" stroke="black" points="255.07,-418.495 257.047,-408.087 249.01,-414.99 255.07,-418.495"/>
</g>
<!-- pr_2fb61c3c&#45;e437&#45;4447&#45;afac&#45;bdeee54fb266 -->
<g id="node18" class="node"><title>pr_2fb61c3c&#45;e437&#45;4447&#45;afac&#45;bdeee54fb266</title>
<polygon fill="none" stroke="black" points="450,-407.761 352,-407.761 352,-309.761 450,-309.761 450,-407.761"/>
<text text-anchor="middle" x="401" y="-357.561" font-family="Times,serif" font-size="4.00">pr_2fb61c3c&#45;e437&#45;4447&#45;afac&#45;bdeee54fb266</text>
</g>
<!-- JNK&#45;&gt;pr_2fb61c3c&#45;e437&#45;4447&#45;afac&#45;bdeee54fb266 -->
<g id="edge11" class="edge"><title>JNK&#45;&gt;pr_2fb61c3c&#45;e437&#45;4447&#45;afac&#45;bdeee54fb266</title>
<path fill="none" stroke="black" d="M243.016,-455.757C266.474,-447.107 309.631,-429.841 343,-408.761 343.091,-408.704 343.181,-408.646 343.272,-408.589"/>
<polygon fill="black" stroke="black" points="345.354,-411.406 351.69,-402.915 341.441,-405.602 345.354,-411.406"/>
</g>
<!-- pr_d7e92127&#45;b68a&#45;4468&#45;9bd2&#45;dc38172f7473&#45;&gt;JNK -->
<g id="edge12" class="edge"><title>pr_d7e92127&#45;b68a&#45;4468&#45;9bd2&#45;dc38172f7473&#45;&gt;JNK</title>
<path fill="none" stroke="black" d="M226,-516.554C226,-507.728 226,-498.83 226,-490.919"/>
<polygon fill="black" stroke="black" points="229.5,-490.844 226,-480.844 222.5,-490.844 229.5,-490.844"/>
</g>
<!-- BCL2 -->
<g id="node11" class="node"><title>BCL2</title>
<ellipse fill="none" stroke="black" cx="50" cy="-254.761" rx="18" ry="18"/>
<text text-anchor="middle" x="50" y="-253.561" font-family="Times,serif" font-size="4.00">BCL2</text>
</g>
<!-- pr_fc6db3c8&#45;b776&#45;458e&#45;8d0e&#45;ca723871e48b&#45;&gt;BCL2 -->
<g id="edge13" class="edge"><title>pr_fc6db3c8&#45;b776&#45;458e&#45;8d0e&#45;ca723871e48b&#45;&gt;BCL2</title>
<path fill="none" stroke="black" d="M50,-308.554C50,-299.728 50,-290.83 50,-282.919"/>
<polygon fill="black" stroke="black" points="53.5001,-282.844 50,-272.844 46.5001,-282.844 53.5001,-282.844"/>
</g>
<!-- AP&#45;1 -->
<g id="node13" class="node"><title>AP&#45;1</title>
<ellipse fill="none" stroke="black" cx="168" cy="-254.761" rx="18" ry="18"/>
<text text-anchor="middle" x="168" y="-253.561" font-family="Times,serif" font-size="4.00">AP&#45;1</text>
</g>
<!-- pr_31862f45&#45;d900&#45;48e6&#45;adb9&#45;6a9c3cb0a852&#45;&gt;AP&#45;1 -->
<g id="edge14" class="edge"><title>pr_31862f45&#45;d900&#45;48e6&#45;adb9&#45;6a9c3cb0a852&#45;&gt;AP&#45;1</title>
<path fill="none" stroke="black" d="M168,-308.554C168,-299.728 168,-290.83 168,-282.919"/>
<polygon fill="black" stroke="black" points="171.5,-282.844 168,-272.844 164.5,-282.844 171.5,-282.844"/>
</g>
<!-- SARS S_ N_ 3a_ 3b_ 6_ 7a -->
<g id="node14" class="node"><title>SARS S_ N_ 3a_ 3b_ 6_ 7a</title>
<ellipse fill="none" stroke="black" cx="265" cy="-1167.82" rx="36.125" ry="36.125"/>
<text text-anchor="middle" x="265" y="-1166.62" font-family="Times,serif" font-size="4.00">SARS S_ N_ 3a_ 3b_ 6_ 7a</text>
</g>
<!-- pr_6637f2d7&#45;7bfc&#45;4fee&#45;8a37&#45;53ad5b3e8788 -->
<g id="node15" class="node"><title>pr_6637f2d7&#45;7bfc&#45;4fee&#45;8a37&#45;53ad5b3e8788</title>
<polygon fill="none" stroke="black" points="233,-1094.76 135,-1094.76 135,-996.761 233,-996.761 233,-1094.76"/>
<text text-anchor="middle" x="184" y="-1044.56" font-family="Times,serif" font-size="4.00">pr_6637f2d7&#45;7bfc&#45;4fee&#45;8a37&#45;53ad5b3e8788</text>
</g>
<!-- SARS S_ N_ 3a_ 3b_ 6_ 7a&#45;&gt;pr_6637f2d7&#45;7bfc&#45;4fee&#45;8a37&#45;53ad5b3e8788 -->
<g id="edge15" class="edge"><title>SARS S_ N_ 3a_ 3b_ 6_ 7a&#45;&gt;pr_6637f2d7&#45;7bfc&#45;4fee&#45;8a37&#45;53ad5b3e8788</title>
<path fill="none" stroke="black" d="M245.185,-1137.45C238.251,-1127.17 230.21,-1115.26 222.283,-1103.51"/>
<polygon fill="black" stroke="black" points="225.043,-1101.34 216.548,-1095.01 219.24,-1105.25 225.043,-1101.34"/>
</g>
<!-- pr_59780f94&#45;1a06&#45;497d&#45;9ecc&#45;c06af8ac3963 -->
<g id="node22" class="node"><title>pr_59780f94&#45;1a06&#45;497d&#45;9ecc&#45;c06af8ac3963</title>
<polygon fill="none" stroke="black" points="314.5,-959.761 215.5,-959.761 215.5,-860.761 314.5,-860.761 314.5,-959.761"/>
<text text-anchor="middle" x="265" y="-909.061" font-family="Times,serif" font-size="4.00">pr_59780f94&#45;1a06&#45;497d&#45;9ecc&#45;c06af8ac3963</text>
</g>
<!-- SARS S_ N_ 3a_ 3b_ 6_ 7a&#45;&gt;pr_59780f94&#45;1a06&#45;497d&#45;9ecc&#45;c06af8ac3963 -->
<g id="edge16" class="edge"><title>SARS S_ N_ 3a_ 3b_ 6_ 7a&#45;&gt;pr_59780f94&#45;1a06&#45;497d&#45;9ecc&#45;c06af8ac3963</title>
<path fill="none" stroke="black" d="M265,-1131.56C265,-1089.92 265,-1020.05 265,-970.157"/>
<polygon fill="black" stroke="black" points="268.5,-970.146 265,-960.146 261.5,-970.146 268.5,-970.146"/>
</g>
<!-- pr_73a7c545&#45;9db1&#45;4d61&#45;8175&#45;49596e94caf2 -->
<g id="node23" class="node"><title>pr_73a7c545&#45;9db1&#45;4d61&#45;8175&#45;49596e94caf2</title>
<polygon fill="none" stroke="black" points="393,-1095.76 293,-1095.76 293,-995.761 393,-995.761 393,-1095.76"/>
<text text-anchor="middle" x="343" y="-1044.56" font-family="Times,serif" font-size="4.00">pr_73a7c545&#45;9db1&#45;4d61&#45;8175&#45;49596e94caf2</text>
</g>
<!-- SARS S_ N_ 3a_ 3b_ 6_ 7a&#45;&gt;pr_73a7c545&#45;9db1&#45;4d61&#45;8175&#45;49596e94caf2 -->
<g id="edge17" class="edge"><title>SARS S_ N_ 3a_ 3b_ 6_ 7a&#45;&gt;pr_73a7c545&#45;9db1&#45;4d61&#45;8175&#45;49596e94caf2</title>
<path fill="none" stroke="black" d="M284.281,-1137.15C290.68,-1127.3 298.04,-1115.97 305.338,-1104.73"/>
<polygon fill="black" stroke="black" points="308.376,-1106.48 310.889,-1096.19 302.506,-1102.67 308.376,-1106.48"/>
</g>
<!-- pr_6637f2d7&#45;7bfc&#45;4fee&#45;8a37&#45;53ad5b3e8788&#45;&gt;MLK1/2/3 -->
<g id="edge18" class="edge"><title>pr_6637f2d7&#45;7bfc&#45;4fee&#45;8a37&#45;53ad5b3e8788&#45;&gt;MLK1/2/3</title>
<path fill="none" stroke="black" d="M182.195,-996.564C181.47,-977.204 180.66,-955.582 180.037,-938.951"/>
<polygon fill="black" stroke="black" points="183.529,-938.679 179.658,-928.817 176.534,-938.941 183.529,-938.679"/>
</g>
<!-- ATF2 -->
<g id="node17" class="node"><title>ATF2</title>
<ellipse fill="none" stroke="black" cx="285" cy="-254.761" rx="18" ry="18"/>
<text text-anchor="middle" x="285" y="-253.561" font-family="Times,serif" font-size="4.00">ATF2</text>
</g>
<!-- pr_48924f82&#45;c3ee&#45;4ef7&#45;b3ed&#45;aeef0de185dd&#45;&gt;ATF2 -->
<g id="edge19" class="edge"><title>pr_48924f82&#45;c3ee&#45;4ef7&#45;b3ed&#45;aeef0de185dd&#45;&gt;ATF2</title>
<path fill="none" stroke="black" d="M285,-309.748C285,-300.55 285,-291.223 285,-282.967"/>
<polygon fill="black" stroke="black" points="288.5,-282.833 285,-272.833 281.5,-282.833 288.5,-282.833"/>
</g>
<!-- TP53 -->
<g id="node19" class="node"><title>TP53</title>
<ellipse fill="none" stroke="black" cx="401" cy="-254.761" rx="18" ry="18"/>
<text text-anchor="middle" x="401" y="-253.561" font-family="Times,serif" font-size="4.00">TP53</text>
</g>
<!-- pr_2fb61c3c&#45;e437&#45;4447&#45;afac&#45;bdeee54fb266&#45;&gt;TP53 -->
<g id="edge20" class="edge"><title>pr_2fb61c3c&#45;e437&#45;4447&#45;afac&#45;bdeee54fb266&#45;&gt;TP53</title>
<path fill="none" stroke="black" d="M401,-309.748C401,-300.55 401,-291.223 401,-282.967"/>
<polygon fill="black" stroke="black" points="404.5,-282.833 401,-272.833 397.5,-282.833 404.5,-282.833"/>
</g>
<!-- pr_25d5f7eb&#45;eb20&#45;4612&#45;8afc&#45;a5b951cec134 -->
<g id="node20" class="node"><title>pr_25d5f7eb&#45;eb20&#45;4612&#45;8afc&#45;a5b951cec134</title>
<polygon fill="none" stroke="black" points="450.5,-200.761 351.5,-200.761 351.5,-101.761 450.5,-101.761 450.5,-200.761"/>
<text text-anchor="middle" x="401" y="-150.061" font-family="Times,serif" font-size="4.00">pr_25d5f7eb&#45;eb20&#45;4612&#45;8afc&#45;a5b951cec134</text>
</g>
<!-- TP53&#45;&gt;pr_25d5f7eb&#45;eb20&#45;4612&#45;8afc&#45;a5b951cec134 -->
<g id="edge21" class="edge"><title>TP53&#45;&gt;pr_25d5f7eb&#45;eb20&#45;4612&#45;8afc&#45;a5b951cec134</title>
<path fill="none" stroke="black" d="M401,-236.543C401,-229.316 401,-220.446 401,-211.204"/>
<polygon fill="black" stroke="black" points="404.5,-211.09 401,-201.09 397.5,-211.09 404.5,-211.09"/>
</g>
<!-- TP53 signaling pathway -->
<g id="node21" class="node"><title>TP53 signaling pathway</title>
<ellipse fill="none" stroke="black" cx="401" cy="-32.8805" rx="32.7614" ry="32.7614"/>
<text text-anchor="middle" x="401" y="-31.6805" font-family="Times,serif" font-size="4.00">TP53 signaling pathway</text>
</g>
<!-- pr_25d5f7eb&#45;eb20&#45;4612&#45;8afc&#45;a5b951cec134&#45;&gt;TP53 signaling pathway -->
<g id="edge22" class="edge"><title>pr_25d5f7eb&#45;eb20&#45;4612&#45;8afc&#45;a5b951cec134&#45;&gt;TP53 signaling pathway</title>
<path fill="none" stroke="black" d="M401,-101.579C401,-93.083 401,-84.3086 401,-76.0074"/>
<polygon fill="black" stroke="black" points="404.5,-75.8021 401,-65.8022 397.5,-75.8022 404.5,-75.8021"/>
</g>
<!-- pr_59780f94&#45;1a06&#45;497d&#45;9ecc&#45;c06af8ac3963&#45;&gt;MAP2K7 -->
<g id="edge23" class="edge"><title>pr_59780f94&#45;1a06&#45;497d&#45;9ecc&#45;c06af8ac3963&#45;&gt;MAP2K7</title>
<path fill="none" stroke="black" d="M262.863,-860.571C260.464,-823.067 255.437,-770.132 245,-724.761 242.89,-715.586 239.678,-705.813 236.492,-697.191"/>
<polygon fill="black" stroke="black" points="239.696,-695.772 232.832,-687.702 233.165,-698.291 239.696,-695.772"/>
</g>
<!-- pr_73a7c545&#45;9db1&#45;4d61&#45;8175&#45;49596e94caf2&#45;&gt;JNK -->
<g id="edge24" class="edge"><title>pr_73a7c545&#45;9db1&#45;4d61&#45;8175&#45;49596e94caf2&#45;&gt;JNK</title>
<path fill="none" stroke="black" d="M343,-995.675C343,-941.75 343,-852.585 343,-775.761 343,-775.761 343,-775.761 343,-669.761 343,-597.039 326.1,-576.755 285,-516.761 275.137,-502.363 260.577,-489.23 248.389,-479.639"/>
<polygon fill="black" stroke="black" points="250.5,-476.847 240.418,-473.593 246.27,-482.424 250.5,-476.847"/>
</g>
</g>
</svg>
