<?xml version="1.0" encoding="UTF-8" standalone="no"?>
<!DOCTYPE svg PUBLIC "-//W3C//DTD SVG 1.1//EN"
 "http://www.w3.org/Graphics/SVG/1.1/DTD/svg11.dtd">
<!-- Generated by graphviz version 2.38.0 (20140413.2041)
 -->
<!-- Title: G Pages: 1 -->
<svg width="573pt" height="903pt"
 viewBox="0.00 0.00 573.00 903.01" xmlns="http://www.w3.org/2000/svg" xmlns:xlink="http://www.w3.org/1999/xlink">
<g id="graph0" class="graph" transform="scale(1 1) rotate(0) translate(4 899.009)">
<title>G</title>
<polygon fill="white" stroke="none" points="-4,4 -4,-899.009 569,-899.009 569,4 -4,4"/>
<!-- MAP2K7 -->
<g id="node1" class="node"><title>MAP2K7</title>
<ellipse fill="none" stroke="black" cx="94" cy="-864.25" rx="18" ry="18"/>
<text text-anchor="middle" x="94" y="-863.05" font-family="Times,serif" font-size="4.00">MAP2K7</text>
</g>
<!-- pr_ec9d8c51&#45;f7be&#45;4ee4&#45;8095&#45;69f70a3c3c76 -->
<g id="node2" class="node"><title>pr_ec9d8c51&#45;f7be&#45;4ee4&#45;8095&#45;69f70a3c3c76</title>
<polygon fill="none" stroke="black" points="143.5,-796.991 44.5,-796.991 44.5,-697.991 143.5,-697.991 143.5,-796.991"/>
<text text-anchor="middle" x="94" y="-746.291" font-family="Times,serif" font-size="4.00">pr_ec9d8c51&#45;f7be&#45;4ee4&#45;8095&#45;69f70a3c3c76</text>
</g>
<!-- MAP2K7&#45;&gt;pr_ec9d8c51&#45;f7be&#45;4ee4&#45;8095&#45;69f70a3c3c76 -->
<g id="edge1" class="edge"><title>MAP2K7&#45;&gt;pr_ec9d8c51&#45;f7be&#45;4ee4&#45;8095&#45;69f70a3c3c76</title>
<path fill="none" stroke="black" d="M89.0994,-846.808C87.9036,-836.233 87.2877,-821.787 87.2517,-807.226"/>
<polygon fill="black" stroke="black" points="90.7519,-807.195 87.3194,-797.172 83.752,-807.148 90.7519,-807.195"/>
</g>
<!-- pr_f0c8a0c4&#45;889f&#45;4248&#45;aa73&#45;da85a21383c9 -->
<g id="node20" class="node"><title>pr_f0c8a0c4&#45;889f&#45;4248&#45;aa73&#45;da85a21383c9</title>
<polygon fill="none" stroke="black" points="363.5,-380.184 264.5,-380.184 264.5,-281.184 363.5,-281.184 363.5,-380.184"/>
<text text-anchor="middle" x="314" y="-329.484" font-family="Times,serif" font-size="4.00">pr_f0c8a0c4&#45;889f&#45;4248&#45;aa73&#45;da85a21383c9</text>
</g>
<!-- MAP2K7&#45;&gt;pr_f0c8a0c4&#45;889f&#45;4248&#45;aa73&#45;da85a21383c9 -->
<g id="edge2" class="edge"><title>MAP2K7&#45;&gt;pr_f0c8a0c4&#45;889f&#45;4248&#45;aa73&#45;da85a21383c9</title>
<path fill="none" stroke="black" d="M80.1415,-852.31C66.1868,-840.432 45.2947,-820.105 35,-797.491 6.50766,-734.901 16,-712.699 16,-643.929 16,-643.929 16,-643.929 16,-538.368 16,-423.331 167.794,-367.219 254.709,-344.519"/>
<polygon fill="black" stroke="black" points="255.627,-347.897 264.457,-342.042 253.903,-341.113 255.627,-347.897"/>
</g>
<!-- pr_ec9d8c51&#45;f7be&#45;4ee4&#45;8095&#45;69f70a3c3c76&#45;&gt;MAP2K7 -->
<g id="edge3" class="edge"><title>pr_ec9d8c51&#45;f7be&#45;4ee4&#45;8095&#45;69f70a3c3c76&#45;&gt;MAP2K7</title>
<path fill="none" stroke="black" d="M100.681,-797.172C100.899,-810.756 100.602,-825.006 99.7907,-836.78"/>
<polygon fill="black" stroke="black" points="96.2986,-836.537 98.9006,-846.808 103.271,-837.156 96.2986,-836.537"/>
</g>
<!-- MLK1/2/3 -->
<g id="node3" class="node"><title>MLK1/2/3</title>
<ellipse fill="none" stroke="black" cx="210" cy="-864.25" rx="18.6233" ry="18.6233"/>
<text text-anchor="middle" x="210" y="-863.05" font-family="Times,serif" font-size="4.00">MLK1/2/3</text>
</g>
<!-- MLK1/2/3&#45;&gt;pr_ec9d8c51&#45;f7be&#45;4ee4&#45;8095&#45;69f70a3c3c76 -->
<g id="edge4" class="edge"><title>MLK1/2/3&#45;&gt;pr_ec9d8c51&#45;f7be&#45;4ee4&#45;8095&#45;69f70a3c3c76</title>
<path fill="none" stroke="black" d="M197.143,-850.53C185.684,-839.194 168.074,-821.772 150.629,-804.514"/>
<polygon fill="black" stroke="black" points="152.752,-801.691 143.181,-797.146 147.829,-806.667 152.752,-801.691"/>
</g>
<!-- pr_49b62507&#45;4e5f&#45;408f&#45;b274&#45;fa51f54850f4 -->
<g id="node5" class="node"><title>pr_49b62507&#45;4e5f&#45;408f&#45;b274&#45;fa51f54850f4</title>
<polygon fill="none" stroke="black" points="258.5,-795.991 161.5,-795.991 161.5,-698.991 258.5,-698.991 258.5,-795.991"/>
<text text-anchor="middle" x="210" y="-746.291" font-family="Times,serif" font-size="4.00">pr_49b62507&#45;4e5f&#45;408f&#45;b274&#45;fa51f54850f4</text>
</g>
<!-- MLK1/2/3&#45;&gt;pr_49b62507&#45;4e5f&#45;408f&#45;b274&#45;fa51f54850f4 -->
<g id="edge5" class="edge"><title>MLK1/2/3&#45;&gt;pr_49b62507&#45;4e5f&#45;408f&#45;b274&#45;fa51f54850f4</title>
<path fill="none" stroke="black" d="M205.045,-846.317C203.856,-835.527 203.258,-820.854 203.25,-806.156"/>
<polygon fill="black" stroke="black" points="206.751,-806.055 203.339,-796.024 199.751,-805.993 206.751,-806.055"/>
</g>
<!-- SARS&#45;CoV&#45;1 proteins -->
<g id="node4" class="node"><title>SARS&#45;CoV&#45;1 proteins</title>
<ellipse fill="none" stroke="black" cx="282" cy="-864.25" rx="30.5202" ry="30.5202"/>
<text text-anchor="middle" x="282" y="-863.05" font-family="Times,serif" font-size="4.00">SARS&#45;CoV&#45;1 proteins</text>
</g>
<!-- SARS&#45;CoV&#45;1 proteins&#45;&gt;pr_ec9d8c51&#45;f7be&#45;4ee4&#45;8095&#45;69f70a3c3c76 -->
<g id="edge6" class="edge"><title>SARS&#45;CoV&#45;1 proteins&#45;&gt;pr_ec9d8c51&#45;f7be&#45;4ee4&#45;8095&#45;69f70a3c3c76</title>
<path fill="none" stroke="black" d="M257.408,-845.367C251.221,-841.221 244.49,-836.999 238,-833.491 201.549,-813.787 187.348,-819.112 152,-797.491 151.912,-797.437 151.824,-797.383 151.736,-797.329"/>
<polygon fill="black" stroke="black" points="153.863,-794.538 143.582,-791.98 150.023,-800.391 153.863,-794.538"/>
</g>
<!-- SARS&#45;CoV&#45;1 proteins&#45;&gt;pr_49b62507&#45;4e5f&#45;408f&#45;b274&#45;fa51f54850f4 -->
<g id="edge7" class="edge"><title>SARS&#45;CoV&#45;1 proteins&#45;&gt;pr_49b62507&#45;4e5f&#45;408f&#45;b274&#45;fa51f54850f4</title>
<path fill="none" stroke="black" d="M266.021,-837.781C259.88,-827.994 252.6,-816.39 245.355,-804.842"/>
<polygon fill="black" stroke="black" points="248.12,-802.664 239.841,-796.053 242.191,-806.384 248.12,-802.664"/>
</g>
<!-- pr_09dc4394&#45;3e6f&#45;48d3&#45;9361&#45;12bb31759039 -->
<g id="node17" class="node"><title>pr_09dc4394&#45;3e6f&#45;48d3&#45;9361&#45;12bb31759039</title>
<polygon fill="none" stroke="black" points="415,-797.491 315,-797.491 315,-697.491 415,-697.491 415,-797.491"/>
<text text-anchor="middle" x="365" y="-746.291" font-family="Times,serif" font-size="4.00">pr_09dc4394&#45;3e6f&#45;48d3&#45;9361&#45;12bb31759039</text>
</g>
<!-- SARS&#45;CoV&#45;1 proteins&#45;&gt;pr_09dc4394&#45;3e6f&#45;48d3&#45;9361&#45;12bb31759039 -->
<g id="edge8" class="edge"><title>SARS&#45;CoV&#45;1 proteins&#45;&gt;pr_09dc4394&#45;3e6f&#45;48d3&#45;9361&#45;12bb31759039</title>
<path fill="none" stroke="black" d="M299.602,-838.912C306.571,-829.277 314.904,-817.755 323.251,-806.215"/>
<polygon fill="black" stroke="black" points="326.287,-807.989 329.311,-797.835 320.615,-803.887 326.287,-807.989"/>
</g>
<!-- pr_f1f615bc&#45;1029&#45;41c3&#45;ad4f&#45;eb14558a253d -->
<g id="node19" class="node"><title>pr_f1f615bc&#45;1029&#45;41c3&#45;ad4f&#45;eb14558a253d</title>
<polygon fill="none" stroke="black" points="336,-588.368 238,-588.368 238,-490.368 336,-490.368 336,-588.368"/>
<text text-anchor="middle" x="287" y="-538.168" font-family="Times,serif" font-size="4.00">pr_f1f615bc&#45;1029&#45;41c3&#45;ad4f&#45;eb14558a253d</text>
</g>
<!-- SARS&#45;CoV&#45;1 proteins&#45;&gt;pr_f1f615bc&#45;1029&#45;41c3&#45;ad4f&#45;eb14558a253d -->
<g id="edge9" class="edge"><title>SARS&#45;CoV&#45;1 proteins&#45;&gt;pr_f1f615bc&#45;1029&#45;41c3&#45;ad4f&#45;eb14558a253d</title>
<path fill="none" stroke="black" d="M282.461,-833.453C283.286,-780.217 285.025,-667.89 286.095,-598.795"/>
<polygon fill="black" stroke="black" points="289.599,-598.563 286.254,-588.51 282.6,-598.455 289.599,-598.563"/>
</g>
<!-- pr_49b62507&#45;4e5f&#45;408f&#45;b274&#45;fa51f54850f4&#45;&gt;MLK1/2/3 -->
<g id="edge10" class="edge"><title>pr_49b62507&#45;4e5f&#45;408f&#45;b274&#45;fa51f54850f4&#45;&gt;MLK1/2/3</title>
<path fill="none" stroke="black" d="M216.661,-796.024C216.91,-809.691 216.636,-824.127 215.837,-836.102"/>
<polygon fill="black" stroke="black" points="212.328,-836.053 214.955,-846.317 219.302,-836.655 212.328,-836.053"/>
</g>
<!-- ATF2 -->
<g id="node6" class="node"><title>ATF2</title>
<ellipse fill="none" stroke="black" cx="49" cy="-18" rx="18" ry="18"/>
<text text-anchor="middle" x="49" y="-16.8" font-family="Times,serif" font-size="4.00">ATF2</text>
</g>
<!-- pr_9ec6f4e8&#45;09f3&#45;4dc5&#45;954a&#45;f1032eb21465 -->
<g id="node7" class="node"><title>pr_9ec6f4e8&#45;09f3&#45;4dc5&#45;954a&#45;f1032eb21465</title>
<polygon fill="none" stroke="black" points="98,-170.5 7.10543e-15,-170.5 7.10543e-15,-72.5 98,-72.5 98,-170.5"/>
<text text-anchor="middle" x="49" y="-120.3" font-family="Times,serif" font-size="4.00">pr_9ec6f4e8&#45;09f3&#45;4dc5&#45;954a&#45;f1032eb21465</text>
</g>
<!-- ATF2&#45;&gt;pr_9ec6f4e8&#45;09f3&#45;4dc5&#45;954a&#45;f1032eb21465 -->
<g id="edge11" class="edge"><title>ATF2&#45;&gt;pr_9ec6f4e8&#45;09f3&#45;4dc5&#45;954a&#45;f1032eb21465</title>
<path fill="none" stroke="black" d="M54.126,-35.4047C54.9871,-42.9226 55.5058,-52.3351 55.682,-62.1352"/>
<polygon fill="black" stroke="black" points="52.1836,-62.4457 55.7417,-72.4252 59.1835,-62.405 52.1836,-62.4457"/>
</g>
<!-- pr_9ec6f4e8&#45;09f3&#45;4dc5&#45;954a&#45;f1032eb21465&#45;&gt;ATF2 -->
<g id="edge12" class="edge"><title>pr_9ec6f4e8&#45;09f3&#45;4dc5&#45;954a&#45;f1032eb21465&#45;&gt;ATF2</title>
<path fill="none" stroke="black" d="M42.2583,-72.4252C42.2005,-63.162 42.4433,-53.7797 42.9866,-45.5172"/>
<polygon fill="black" stroke="black" points="46.4864,-45.6724 43.874,-35.4047 39.5132,-45.0604 46.4864,-45.6724"/>
</g>
<!-- JNK -->
<g id="node8" class="node"><title>JNK</title>
<ellipse fill="none" stroke="black" cx="314" cy="-226.092" rx="18" ry="18"/>
<text text-anchor="middle" x="314" y="-224.892" font-family="Times,serif" font-size="4.00">JNK</text>
</g>
<!-- JNK&#45;&gt;pr_9ec6f4e8&#45;09f3&#45;4dc5&#45;954a&#45;f1032eb21465 -->
<g id="edge13" class="edge"><title>JNK&#45;&gt;pr_9ec6f4e8&#45;09f3&#45;4dc5&#45;954a&#45;f1032eb21465</title>
<path fill="none" stroke="black" d="M296.165,-223.104C260.635,-218.609 178.946,-205.577 107.439,-170.634"/>
<polygon fill="black" stroke="black" points="108.828,-167.415 98.3241,-166.03 105.672,-173.663 108.828,-167.415"/>
</g>
<!-- pr_c8976a1a&#45;6050&#45;47ab&#45;894a&#45;811f54a8caf6 -->
<g id="node10" class="node"><title>pr_c8976a1a&#45;6050&#45;47ab&#45;894a&#45;811f54a8caf6</title>
<polygon fill="none" stroke="black" points="215.5,-171 116.5,-171 116.5,-72 215.5,-72 215.5,-171"/>
<text text-anchor="middle" x="166" y="-120.3" font-family="Times,serif" font-size="4.00">pr_c8976a1a&#45;6050&#45;47ab&#45;894a&#45;811f54a8caf6</text>
</g>
<!-- JNK&#45;&gt;pr_c8976a1a&#45;6050&#45;47ab&#45;894a&#45;811f54a8caf6 -->
<g id="edge14" class="edge"><title>JNK&#45;&gt;pr_c8976a1a&#45;6050&#45;47ab&#45;894a&#45;811f54a8caf6</title>
<path fill="none" stroke="black" d="M298.577,-216.788C280.28,-206.72 249.096,-188.871 224,-171 223.913,-170.938 223.826,-170.876 223.739,-170.814"/>
<polygon fill="black" stroke="black" points="225.72,-167.926 215.595,-164.807 221.565,-173.56 225.72,-167.926"/>
</g>
<!-- pr_7d249dd4&#45;b558&#45;4f03&#45;8c0b&#45;f28b38e16c81 -->
<g id="node12" class="node"><title>pr_7d249dd4&#45;b558&#45;4f03&#45;8c0b&#45;f28b38e16c81</title>
<polygon fill="none" stroke="black" points="332.5,-171 233.5,-171 233.5,-72 332.5,-72 332.5,-171"/>
<text text-anchor="middle" x="283" y="-120.3" font-family="Times,serif" font-size="4.00">pr_7d249dd4&#45;b558&#45;4f03&#45;8c0b&#45;f28b38e16c81</text>
</g>
<!-- JNK&#45;&gt;pr_7d249dd4&#45;b558&#45;4f03&#45;8c0b&#45;f28b38e16c81 -->
<g id="edge15" class="edge"><title>JNK&#45;&gt;pr_7d249dd4&#45;b558&#45;4f03&#45;8c0b&#45;f28b38e16c81</title>
<path fill="none" stroke="black" d="M309.019,-208.609C306.685,-200.882 303.747,-191.161 300.694,-181.056"/>
<polygon fill="black" stroke="black" points="303.99,-179.863 297.747,-171.303 297.289,-181.888 303.99,-179.863"/>
</g>
<!-- pr_db99e9bf&#45;6404&#45;46a6&#45;a20c&#45;12c54f923afc -->
<g id="node14" class="node"><title>pr_db99e9bf&#45;6404&#45;46a6&#45;a20c&#45;12c54f923afc</title>
<polygon fill="none" stroke="black" points="565,-170.5 467,-170.5 467,-72.5 565,-72.5 565,-170.5"/>
<text text-anchor="middle" x="516" y="-120.3" font-family="Times,serif" font-size="4.00">pr_db99e9bf&#45;6404&#45;46a6&#45;a20c&#45;12c54f923afc</text>
</g>
<!-- JNK&#45;&gt;pr_db99e9bf&#45;6404&#45;46a6&#45;a20c&#45;12c54f923afc -->
<g id="edge16" class="edge"><title>JNK&#45;&gt;pr_db99e9bf&#45;6404&#45;46a6&#45;a20c&#45;12c54f923afc</title>
<path fill="none" stroke="black" d="M330.8,-219.576C363.729,-208.635 435.506,-184.115 458,-171 458.092,-170.946 458.184,-170.892 458.276,-170.838"/>
<polygon fill="black" stroke="black" points="460.233,-173.742 466.813,-165.438 456.49,-167.827 460.233,-173.742"/>
</g>
<!-- JNK&#45;&gt;pr_f0c8a0c4&#45;889f&#45;4248&#45;aa73&#45;da85a21383c9 -->
<g id="edge17" class="edge"><title>JNK&#45;&gt;pr_f0c8a0c4&#45;889f&#45;4248&#45;aa73&#45;da85a21383c9</title>
<path fill="none" stroke="black" d="M319.126,-243.673C319.996,-251.352 320.517,-260.986 320.687,-271.004"/>
<polygon fill="black" stroke="black" points="317.188,-271.111 320.742,-281.092 324.188,-271.073 317.188,-271.111"/>
</g>
<!-- pr_8f6a9cab&#45;32f1&#45;4878&#45;b4d5&#45;9f7beed24253 -->
<g id="node23" class="node"><title>pr_8f6a9cab&#45;32f1&#45;4878&#45;b4d5&#45;9f7beed24253</title>
<polygon fill="none" stroke="black" points="449,-170.5 351,-170.5 351,-72.5 449,-72.5 449,-170.5"/>
<text text-anchor="middle" x="400" y="-120.3" font-family="Times,serif" font-size="4.00">pr_8f6a9cab&#45;32f1&#45;4878&#45;b4d5&#45;9f7beed24253</text>
</g>
<!-- JNK&#45;&gt;pr_8f6a9cab&#45;32f1&#45;4878&#45;b4d5&#45;9f7beed24253 -->
<g id="edge18" class="edge"><title>JNK&#45;&gt;pr_8f6a9cab&#45;32f1&#45;4878&#45;b4d5&#45;9f7beed24253</title>
<path fill="none" stroke="black" d="M322.052,-209.51C328.136,-201.039 336.829,-189.988 346.234,-178.618"/>
<polygon fill="black" stroke="black" points="349.106,-180.64 352.836,-170.724 343.736,-176.15 349.106,-180.64"/>
</g>
<!-- TP53 -->
<g id="node9" class="node"><title>TP53</title>
<ellipse fill="none" stroke="black" cx="166" cy="-18" rx="18" ry="18"/>
<text text-anchor="middle" x="166" y="-16.8" font-family="Times,serif" font-size="4.00">TP53</text>
</g>
<!-- TP53&#45;&gt;pr_c8976a1a&#45;6050&#45;47ab&#45;894a&#45;811f54a8caf6 -->
<g id="edge19" class="edge"><title>TP53&#45;&gt;pr_c8976a1a&#45;6050&#45;47ab&#45;894a&#45;811f54a8caf6</title>
<path fill="none" stroke="black" d="M171.154,-35.647C171.988,-43.0329 172.495,-52.2125 172.675,-61.7797"/>
<polygon fill="black" stroke="black" points="169.176,-61.8555 172.745,-71.831 176.176,-61.807 169.176,-61.8555"/>
</g>
<!-- pr_c8976a1a&#45;6050&#45;47ab&#45;894a&#45;811f54a8caf6&#45;&gt;TP53 -->
<g id="edge20" class="edge"><title>pr_c8976a1a&#45;6050&#45;47ab&#45;894a&#45;811f54a8caf6&#45;&gt;TP53</title>
<path fill="none" stroke="black" d="M159.255,-71.831C159.212,-62.8766 159.449,-53.8356 159.967,-45.8256"/>
<polygon fill="black" stroke="black" points="163.472,-45.9113 160.846,-35.647 156.498,-45.3084 163.472,-45.9113"/>
</g>
<!-- BCL2 -->
<g id="node11" class="node"><title>BCL2</title>
<ellipse fill="none" stroke="black" cx="283" cy="-18" rx="18" ry="18"/>
<text text-anchor="middle" x="283" y="-16.8" font-family="Times,serif" font-size="4.00">BCL2</text>
</g>
<!-- BCL2&#45;&gt;pr_7d249dd4&#45;b558&#45;4f03&#45;8c0b&#45;f28b38e16c81 -->
<g id="edge21" class="edge"><title>BCL2&#45;&gt;pr_7d249dd4&#45;b558&#45;4f03&#45;8c0b&#45;f28b38e16c81</title>
<path fill="none" stroke="black" d="M288.154,-35.647C288.988,-43.0329 289.495,-52.2125 289.675,-61.7797"/>
<polygon fill="black" stroke="black" points="286.176,-61.8555 289.745,-71.831 293.176,-61.807 286.176,-61.8555"/>
</g>
<!-- pr_7d249dd4&#45;b558&#45;4f03&#45;8c0b&#45;f28b38e16c81&#45;&gt;BCL2 -->
<g id="edge22" class="edge"><title>pr_7d249dd4&#45;b558&#45;4f03&#45;8c0b&#45;f28b38e16c81&#45;&gt;BCL2</title>
<path fill="none" stroke="black" d="M276.255,-71.831C276.212,-62.8766 276.449,-53.8356 276.967,-45.8256"/>
<polygon fill="black" stroke="black" points="280.472,-45.9113 277.846,-35.647 273.498,-45.3084 280.472,-45.9113"/>
</g>
<!-- AP&#45;1 -->
<g id="node13" class="node"><title>AP&#45;1</title>
<ellipse fill="none" stroke="black" cx="516" cy="-18" rx="18" ry="18"/>
<text text-anchor="middle" x="516" y="-16.8" font-family="Times,serif" font-size="4.00">AP&#45;1</text>
</g>
<!-- AP&#45;1&#45;&gt;pr_db99e9bf&#45;6404&#45;46a6&#45;a20c&#45;12c54f923afc -->
<g id="edge23" class="edge"><title>AP&#45;1&#45;&gt;pr_db99e9bf&#45;6404&#45;46a6&#45;a20c&#45;12c54f923afc</title>
<path fill="none" stroke="black" d="M521.126,-35.4047C521.987,-42.9226 522.506,-52.3351 522.682,-62.1352"/>
<polygon fill="black" stroke="black" points="519.184,-62.4457 522.742,-72.4252 526.184,-62.405 519.184,-62.4457"/>
</g>
<!-- pr_db99e9bf&#45;6404&#45;46a6&#45;a20c&#45;12c54f923afc&#45;&gt;AP&#45;1 -->
<g id="edge24" class="edge"><title>pr_db99e9bf&#45;6404&#45;46a6&#45;a20c&#45;12c54f923afc&#45;&gt;AP&#45;1</title>
<path fill="none" stroke="black" d="M509.258,-72.4252C509.201,-63.162 509.443,-53.7797 509.987,-45.5172"/>
<polygon fill="black" stroke="black" points="513.486,-45.6724 510.874,-35.4047 506.513,-45.0604 513.486,-45.6724"/>
</g>
<!-- 3b protein -->
<g id="node15" class="node"><title>3b protein</title>
<ellipse fill="none" stroke="black" cx="516" cy="-226.092" rx="19.1842" ry="19.1842"/>
<text text-anchor="middle" x="516" y="-224.892" font-family="Times,serif" font-size="4.00">3b protein</text>
</g>
<!-- 3b protein&#45;&gt;pr_db99e9bf&#45;6404&#45;46a6&#45;a20c&#45;12c54f923afc -->
<g id="edge25" class="edge"><title>3b protein&#45;&gt;pr_db99e9bf&#45;6404&#45;46a6&#45;a20c&#45;12c54f923afc</title>
<path fill="none" stroke="black" d="M516,-206.751C516,-199.301 516,-190.244 516,-180.865"/>
<polygon fill="black" stroke="black" points="519.5,-180.623 516,-170.623 512.5,-180.623 519.5,-180.623"/>
</g>
<!-- MEKK1/4 -->
<g id="node16" class="node"><title>MEKK1/4</title>
<ellipse fill="none" stroke="black" cx="365" cy="-642.929" rx="18.6233" ry="18.6233"/>
<text text-anchor="middle" x="365" y="-641.729" font-family="Times,serif" font-size="4.00">MEKK1/4</text>
</g>
<!-- MEKK1/4&#45;&gt;pr_09dc4394&#45;3e6f&#45;48d3&#45;9361&#45;12bb31759039 -->
<g id="edge26" class="edge"><title>MEKK1/4&#45;&gt;pr_09dc4394&#45;3e6f&#45;48d3&#45;9361&#45;12bb31759039</title>
<path fill="none" stroke="black" d="M370.206,-661.224C371.005,-668.567 371.494,-677.601 371.673,-687.013"/>
<polygon fill="black" stroke="black" points="368.175,-687.337 371.745,-697.313 375.175,-687.288 368.175,-687.337"/>
</g>
<!-- MEKK1/4&#45;&gt;pr_f1f615bc&#45;1029&#45;41c3&#45;ad4f&#45;eb14558a253d -->
<g id="edge27" class="edge"><title>MEKK1/4&#45;&gt;pr_f1f615bc&#45;1029&#45;41c3&#45;ad4f&#45;eb14558a253d</title>
<path fill="none" stroke="black" d="M354.154,-627.807C347.76,-619.482 339.204,-608.341 330.345,-596.806"/>
<polygon fill="black" stroke="black" points="333.054,-594.586 324.187,-588.787 327.502,-598.85 333.054,-594.586"/>
</g>
<!-- pr_09dc4394&#45;3e6f&#45;48d3&#45;9361&#45;12bb31759039&#45;&gt;MEKK1/4 -->
<g id="edge28" class="edge"><title>pr_09dc4394&#45;3e6f&#45;48d3&#45;9361&#45;12bb31759039&#45;&gt;MEKK1/4</title>
<path fill="none" stroke="black" d="M358.255,-697.313C358.212,-688.406 358.441,-679.414 358.942,-671.415"/>
<polygon fill="black" stroke="black" points="362.449,-671.481 359.794,-661.224 355.473,-670.898 362.449,-671.481"/>
</g>
<!-- MAP2K4 -->
<g id="node18" class="node"><title>MAP2K4</title>
<ellipse fill="none" stroke="black" cx="287" cy="-435.276" rx="18" ry="18"/>
<text text-anchor="middle" x="287" y="-434.076" font-family="Times,serif" font-size="4.00">MAP2K4</text>
</g>
<!-- MAP2K4&#45;&gt;pr_f1f615bc&#45;1029&#45;41c3&#45;ad4f&#45;eb14558a253d -->
<g id="edge29" class="edge"><title>MAP2K4&#45;&gt;pr_f1f615bc&#45;1029&#45;41c3&#45;ad4f&#45;eb14558a253d</title>
<path fill="none" stroke="black" d="M292.139,-452.888C293.009,-460.577 293.526,-470.219 293.692,-480.233"/>
<polygon fill="black" stroke="black" points="290.192,-480.328 293.74,-490.311 297.192,-480.294 290.192,-480.328"/>
</g>
<!-- MAP2K4&#45;&gt;pr_f0c8a0c4&#45;889f&#45;4248&#45;aa73&#45;da85a21383c9 -->
<g id="edge30" class="edge"><title>MAP2K4&#45;&gt;pr_f0c8a0c4&#45;889f&#45;4248&#45;aa73&#45;da85a21383c9</title>
<path fill="none" stroke="black" d="M291.338,-417.792C293.371,-410.066 295.93,-400.345 298.589,-390.24"/>
<polygon fill="black" stroke="black" points="301.996,-391.048 301.156,-380.487 295.226,-389.267 301.996,-391.048"/>
</g>
<!-- pr_f1f615bc&#45;1029&#45;41c3&#45;ad4f&#45;eb14558a253d&#45;&gt;MAP2K4 -->
<g id="edge31" class="edge"><title>pr_f1f615bc&#45;1029&#45;41c3&#45;ad4f&#45;eb14558a253d&#45;&gt;MAP2K4</title>
<path fill="none" stroke="black" d="M280.26,-490.311C280.196,-480.961 280.434,-471.478 280.975,-463.12"/>
<polygon fill="black" stroke="black" points="284.486,-463.153 281.861,-452.888 277.512,-462.549 284.486,-463.153"/>
</g>
<!-- pr_f0c8a0c4&#45;889f&#45;4248&#45;aa73&#45;da85a21383c9&#45;&gt;JNK -->
<g id="edge32" class="edge"><title>pr_f0c8a0c4&#45;889f&#45;4248&#45;aa73&#45;da85a21383c9&#45;&gt;JNK</title>
<path fill="none" stroke="black" d="M307.258,-281.092C307.201,-271.729 307.443,-262.246 307.987,-253.894"/>
<polygon fill="black" stroke="black" points="311.496,-253.938 308.874,-243.673 304.522,-253.333 311.496,-253.938"/>
</g>
<!-- 7a protein -->
<g id="node21" class="node"><title>7a protein</title>
<ellipse fill="none" stroke="black" cx="342" cy="-435.276" rx="19.1842" ry="19.1842"/>
<text text-anchor="middle" x="342" y="-434.076" font-family="Times,serif" font-size="4.00">7a protein</text>
</g>
<!-- 7a protein&#45;&gt;pr_f0c8a0c4&#45;889f&#45;4248&#45;aa73&#45;da85a21383c9 -->
<g id="edge33" class="edge"><title>7a protein&#45;&gt;pr_f0c8a0c4&#45;889f&#45;4248&#45;aa73&#45;da85a21383c9</title>
<path fill="none" stroke="black" d="M337.123,-416.406C335.055,-408.828 332.516,-399.526 329.887,-389.893"/>
<polygon fill="black" stroke="black" points="333.251,-388.926 327.242,-380.201 326.498,-390.769 333.251,-388.926"/>
</g>
<!-- 3a protein -->
<g id="node22" class="node"><title>3a protein</title>
<ellipse fill="none" stroke="black" cx="398" cy="-435.276" rx="19.1842" ry="19.1842"/>
<text text-anchor="middle" x="398" y="-434.076" font-family="Times,serif" font-size="4.00">3a protein</text>
</g>
<!-- 3a protein&#45;&gt;pr_f0c8a0c4&#45;889f&#45;4248&#45;aa73&#45;da85a21383c9 -->
<g id="edge34" class="edge"><title>3a protein&#45;&gt;pr_f0c8a0c4&#45;889f&#45;4248&#45;aa73&#45;da85a21383c9</title>
<path fill="none" stroke="black" d="M386.32,-420.011C379.368,-411.52 370.043,-400.13 360.404,-388.359"/>
<polygon fill="black" stroke="black" points="363.091,-386.115 354.047,-380.595 357.674,-390.549 363.091,-386.115"/>
</g>
<!-- pr_8f6a9cab&#45;32f1&#45;4878&#45;b4d5&#45;9f7beed24253&#45;&gt;JNK -->
<g id="edge35" class="edge"><title>pr_8f6a9cab&#45;32f1&#45;4878&#45;b4d5&#45;9f7beed24253&#45;&gt;JNK</title>
<path fill="none" stroke="black" d="M366.398,-170.623C355.737,-183.452 344.288,-196.547 334.756,-206.682"/>
<polygon fill="black" stroke="black" points="332.007,-204.49 327.574,-214.113 337.04,-209.354 332.007,-204.49"/>
</g>
<!-- S protein -->
<g id="node24" class="node"><title>S protein</title>
<ellipse fill="none" stroke="black" cx="400" cy="-226.092" rx="18.0625" ry="18.0625"/>
<text text-anchor="middle" x="400" y="-224.892" font-family="Times,serif" font-size="4.00">S protein</text>
</g>
<!-- S protein&#45;&gt;pr_8f6a9cab&#45;32f1&#45;4878&#45;b4d5&#45;9f7beed24253 -->
<g id="edge36" class="edge"><title>S protein&#45;&gt;pr_8f6a9cab&#45;32f1&#45;4878&#45;b4d5&#45;9f7beed24253</title>
<path fill="none" stroke="black" d="M400,-207.689C400,-200.051 400,-190.6 400,-180.801"/>
<polygon fill="black" stroke="black" points="403.5,-180.525 400,-170.525 396.5,-180.525 403.5,-180.525"/>
</g>
</g>
</svg>
