<?xml version="1.0" encoding="UTF-8" standalone="no"?>
<!DOCTYPE svg PUBLIC "-//W3C//DTD SVG 1.1//EN"
 "http://www.w3.org/Graphics/SVG/1.1/DTD/svg11.dtd">
<!-- Generated by graphviz version 2.38.0 (20140413.2041)
 -->
<!-- Title: G Pages: 1 -->
<svg width="460pt" height="1211pt"
 viewBox="0.00 0.00 460.00 1210.89" xmlns="http://www.w3.org/2000/svg" xmlns:xlink="http://www.w3.org/1999/xlink">
<g id="graph0" class="graph" transform="scale(1 1) rotate(0) translate(4 1206.89)">
<title>G</title>
<polygon fill="white" stroke="none" points="-4,4 -4,-1206.89 456,-1206.89 456,4 -4,4"/>
<!-- MEKK1/4 -->
<g id="node1" class="node"><title>MEKK1/4</title>
<ellipse fill="none" stroke="black" cx="67.5" cy="-910.761" rx="18.6233" ry="18.6233"/>
<text text-anchor="middle" x="67.5" y="-909.561" font-family="Times,serif" font-size="4.00">MEKK1/4</text>
</g>
<!-- pr_365d01de&#45;ea47&#45;4787&#45;9174&#45;32d484197681 -->
<g id="node2" class="node"><title>pr_365d01de&#45;ea47&#45;4787&#45;9174&#45;32d484197681</title>
<polygon fill="none" stroke="black" points="118,-825.761 17,-825.761 17,-724.761 118,-724.761 118,-825.761"/>
<text text-anchor="middle" x="67.5" y="-774.061" font-family="Times,serif" font-size="4.00">pr_365d01de&#45;ea47&#45;4787&#45;9174&#45;32d484197681</text>
</g>
<!-- MEKK1/4&#45;&gt;pr_365d01de&#45;ea47&#45;4787&#45;9174&#45;32d484197681 -->
<g id="edge1" class="edge"><title>MEKK1/4&#45;&gt;pr_365d01de&#45;ea47&#45;4787&#45;9174&#45;32d484197681</title>
<path fill="none" stroke="black" d="M67.5,-892.033C67.5,-877.653 67.5,-856.508 67.5,-836.21"/>
<polygon fill="black" stroke="black" points="71.0001,-836.031 67.5,-826.031 64.0001,-836.031 71.0001,-836.031"/>
</g>
<!-- MAP2K4 -->
<g id="node3" class="node"><title>MAP2K4</title>
<ellipse fill="none" stroke="black" cx="87.5" cy="-670.761" rx="18" ry="18"/>
<text text-anchor="middle" x="87.5" y="-669.561" font-family="Times,serif" font-size="4.00">MAP2K4</text>
</g>
<!-- pr_365d01de&#45;ea47&#45;4787&#45;9174&#45;32d484197681&#45;&gt;MAP2K4 -->
<g id="edge2" class="edge"><title>pr_365d01de&#45;ea47&#45;4787&#45;9174&#45;32d484197681&#45;&gt;MAP2K4</title>
<path fill="none" stroke="black" d="M77.2071,-724.512C78.9313,-715.675 80.6673,-706.779 82.2095,-698.875"/>
<polygon fill="black" stroke="black" points="85.6932,-699.296 84.1732,-688.811 78.8228,-697.955 85.6932,-699.296"/>
</g>
<!-- pr_325af341&#45;75e8&#45;4549&#45;9568&#45;c4dd6aa4f81e -->
<g id="node7" class="node"><title>pr_325af341&#45;75e8&#45;4549&#45;9568&#45;c4dd6aa4f81e</title>
<polygon fill="none" stroke="black" points="157,-616.761 58,-616.761 58,-517.761 157,-517.761 157,-616.761"/>
<text text-anchor="middle" x="107.5" y="-566.061" font-family="Times,serif" font-size="4.00">pr_325af341&#45;75e8&#45;4549&#45;9568&#45;c4dd6aa4f81e</text>
</g>
<!-- MAP2K4&#45;&gt;pr_325af341&#45;75e8&#45;4549&#45;9568&#45;c4dd6aa4f81e -->
<g id="edge3" class="edge"><title>MAP2K4&#45;&gt;pr_325af341&#45;75e8&#45;4549&#45;9568&#45;c4dd6aa4f81e</title>
<path fill="none" stroke="black" d="M90.8026,-653C92.2519,-645.645 94.0485,-636.528 95.9208,-627.025"/>
<polygon fill="black" stroke="black" points="99.3887,-627.529 97.8881,-617.041 92.5208,-626.176 99.3887,-627.529"/>
</g>
<!-- MLK1/2/3 -->
<g id="node4" class="node"><title>MLK1/2/3</title>
<ellipse fill="none" stroke="black" cx="177.5" cy="-910.761" rx="18.6233" ry="18.6233"/>
<text text-anchor="middle" x="177.5" y="-909.561" font-family="Times,serif" font-size="4.00">MLK1/2/3</text>
</g>
<!-- pr_7378f663&#45;eda9&#45;477d&#45;ac10&#45;caaa74d9fab1 -->
<g id="node5" class="node"><title>pr_7378f663&#45;eda9&#45;477d&#45;ac10&#45;caaa74d9fab1</title>
<polygon fill="none" stroke="black" points="235,-824.761 136,-824.761 136,-725.761 235,-725.761 235,-824.761"/>
<text text-anchor="middle" x="185.5" y="-774.061" font-family="Times,serif" font-size="4.00">pr_7378f663&#45;eda9&#45;477d&#45;ac10&#45;caaa74d9fab1</text>
</g>
<!-- MLK1/2/3&#45;&gt;pr_7378f663&#45;eda9&#45;477d&#45;ac10&#45;caaa74d9fab1 -->
<g id="edge4" class="edge"><title>MLK1/2/3&#45;&gt;pr_7378f663&#45;eda9&#45;477d&#45;ac10&#45;caaa74d9fab1</title>
<path fill="none" stroke="black" d="M178.562,-892.033C179.443,-877.344 180.746,-855.594 181.986,-834.901"/>
<polygon fill="black" stroke="black" points="185.483,-835.054 182.588,-824.862 178.496,-834.635 185.483,-835.054"/>
</g>
<!-- MAP2K7 -->
<g id="node6" class="node"><title>MAP2K7</title>
<ellipse fill="none" stroke="black" cx="224.5" cy="-670.761" rx="18" ry="18"/>
<text text-anchor="middle" x="224.5" y="-669.561" font-family="Times,serif" font-size="4.00">MAP2K7</text>
</g>
<!-- pr_7378f663&#45;eda9&#45;477d&#45;ac10&#45;caaa74d9fab1&#45;&gt;MAP2K7 -->
<g id="edge5" class="edge"><title>pr_7378f663&#45;eda9&#45;477d&#45;ac10&#45;caaa74d9fab1&#45;&gt;MAP2K7</title>
<path fill="none" stroke="black" d="M203.972,-725.712C207.708,-715.894 211.494,-705.943 214.78,-697.306"/>
<polygon fill="black" stroke="black" points="218.09,-698.449 218.375,-687.858 211.548,-695.959 218.09,-698.449"/>
</g>
<!-- pr_60e5cd89&#45;32ef&#45;4691&#45;8e02&#45;30ff8d103fd1 -->
<g id="node9" class="node"><title>pr_60e5cd89&#45;32ef&#45;4691&#45;8e02&#45;30ff8d103fd1</title>
<polygon fill="none" stroke="black" points="273.5,-616.261 175.5,-616.261 175.5,-518.261 273.5,-518.261 273.5,-616.261"/>
<text text-anchor="middle" x="224.5" y="-566.061" font-family="Times,serif" font-size="4.00">pr_60e5cd89&#45;32ef&#45;4691&#45;8e02&#45;30ff8d103fd1</text>
</g>
<!-- MAP2K7&#45;&gt;pr_60e5cd89&#45;32ef&#45;4691&#45;8e02&#45;30ff8d103fd1 -->
<g id="edge6" class="edge"><title>MAP2K7&#45;&gt;pr_60e5cd89&#45;32ef&#45;4691&#45;8e02&#45;30ff8d103fd1</title>
<path fill="none" stroke="black" d="M224.5,-652.543C224.5,-645.233 224.5,-636.242 224.5,-626.886"/>
<polygon fill="black" stroke="black" points="228,-626.651 224.5,-616.651 221,-626.651 228,-626.651"/>
</g>
<!-- JNK -->
<g id="node8" class="node"><title>JNK</title>
<ellipse fill="none" stroke="black" cx="224.5" cy="-463.761" rx="18" ry="18"/>
<text text-anchor="middle" x="224.5" y="-462.561" font-family="Times,serif" font-size="4.00">JNK</text>
</g>
<!-- pr_325af341&#45;75e8&#45;4549&#45;9568&#45;c4dd6aa4f81e&#45;&gt;JNK -->
<g id="edge7" class="edge"><title>pr_325af341&#45;75e8&#45;4549&#45;9568&#45;c4dd6aa4f81e&#45;&gt;JNK</title>
<path fill="none" stroke="black" d="M157.119,-523.216C173.365,-509.121 190.548,-494.215 203.495,-482.983"/>
<polygon fill="black" stroke="black" points="206.08,-485.375 211.34,-476.178 201.492,-480.087 206.08,-485.375"/>
</g>
<!-- pr_2e6e4fb3&#45;8ae3&#45;4f46&#45;b55b&#45;c6537bd94605 -->
<g id="node10" class="node"><title>pr_2e6e4fb3&#45;8ae3&#45;4f46&#45;b55b&#45;c6537bd94605</title>
<polygon fill="none" stroke="black" points="99,-408.761 0,-408.761 0,-309.761 99,-309.761 99,-408.761"/>
<text text-anchor="middle" x="49.5" y="-358.061" font-family="Times,serif" font-size="4.00">pr_2e6e4fb3&#45;8ae3&#45;4f46&#45;b55b&#45;c6537bd94605</text>
</g>
<!-- JNK&#45;&gt;pr_2e6e4fb3&#45;8ae3&#45;4f46&#45;b55b&#45;c6537bd94605 -->
<g id="edge8" class="edge"><title>JNK&#45;&gt;pr_2e6e4fb3&#45;8ae3&#45;4f46&#45;b55b&#45;c6537bd94605</title>
<path fill="none" stroke="black" d="M207.644,-456.713C184.403,-448.013 141.635,-430.688 108.5,-409.761 108.104,-409.511 107.708,-409.259 107.312,-409.004"/>
<polygon fill="black" stroke="black" points="109.242,-406.084 99.0047,-403.357 105.307,-411.873 109.242,-406.084"/>
</g>
<!-- pr_75ab2042&#45;65cc&#45;44e1&#45;93f1&#45;f3613984425f -->
<g id="node12" class="node"><title>pr_75ab2042&#45;65cc&#45;44e1&#45;93f1&#45;f3613984425f</title>
<polygon fill="none" stroke="black" points="215.5,-408.261 117.5,-408.261 117.5,-310.261 215.5,-310.261 215.5,-408.261"/>
<text text-anchor="middle" x="166.5" y="-358.061" font-family="Times,serif" font-size="4.00">pr_75ab2042&#45;65cc&#45;44e1&#45;93f1&#45;f3613984425f</text>
</g>
<!-- JNK&#45;&gt;pr_75ab2042&#45;65cc&#45;44e1&#45;93f1&#45;f3613984425f -->
<g id="edge9" class="edge"><title>JNK&#45;&gt;pr_75ab2042&#45;65cc&#45;44e1&#45;93f1&#45;f3613984425f</title>
<path fill="none" stroke="black" d="M215.942,-447.637C211.267,-439.376 205.151,-428.567 198.821,-417.38"/>
<polygon fill="black" stroke="black" points="201.693,-415.349 193.722,-408.369 195.601,-418.796 201.693,-415.349"/>
</g>
<!-- pr_4201fde2&#45;db6e&#45;49f5&#45;98cb&#45;5c8eada38dd4 -->
<g id="node16" class="node"><title>pr_4201fde2&#45;db6e&#45;49f5&#45;98cb&#45;5c8eada38dd4</title>
<polygon fill="none" stroke="black" points="333,-408.761 234,-408.761 234,-309.761 333,-309.761 333,-408.761"/>
<text text-anchor="middle" x="283.5" y="-358.061" font-family="Times,serif" font-size="4.00">pr_4201fde2&#45;db6e&#45;49f5&#45;98cb&#45;5c8eada38dd4</text>
</g>
<!-- JNK&#45;&gt;pr_4201fde2&#45;db6e&#45;49f5&#45;98cb&#45;5c8eada38dd4 -->
<g id="edge10" class="edge"><title>JNK&#45;&gt;pr_4201fde2&#45;db6e&#45;49f5&#45;98cb&#45;5c8eada38dd4</title>
<path fill="none" stroke="black" d="M233.206,-447.637C237.91,-439.464 244.05,-428.797 250.416,-417.737"/>
<polygon fill="black" stroke="black" points="253.592,-419.236 255.547,-408.823 247.525,-415.744 253.592,-419.236"/>
</g>
<!-- pr_57ad0277&#45;e225&#45;4a92&#45;b96e&#45;e6c965e6ae0a -->
<g id="node18" class="node"><title>pr_57ad0277&#45;e225&#45;4a92&#45;b96e&#45;e6c965e6ae0a</title>
<polygon fill="none" stroke="black" points="452,-409.761 351,-409.761 351,-308.761 452,-308.761 452,-409.761"/>
<text text-anchor="middle" x="401.5" y="-358.061" font-family="Times,serif" font-size="4.00">pr_57ad0277&#45;e225&#45;4a92&#45;b96e&#45;e6c965e6ae0a</text>
</g>
<!-- JNK&#45;&gt;pr_57ad0277&#45;e225&#45;4a92&#45;b96e&#45;e6c965e6ae0a -->
<g id="edge11" class="edge"><title>JNK&#45;&gt;pr_57ad0277&#45;e225&#45;4a92&#45;b96e&#45;e6c965e6ae0a</title>
<path fill="none" stroke="black" d="M241.481,-456.701C264.898,-447.987 308.008,-430.645 341.5,-409.761 341.79,-409.58 342.08,-409.398 342.371,-409.215"/>
<polygon fill="black" stroke="black" points="344.415,-412.058 350.788,-403.594 340.528,-406.236 344.415,-412.058"/>
</g>
<!-- pr_60e5cd89&#45;32ef&#45;4691&#45;8e02&#45;30ff8d103fd1&#45;&gt;JNK -->
<g id="edge12" class="edge"><title>pr_60e5cd89&#45;32ef&#45;4691&#45;8e02&#45;30ff8d103fd1&#45;&gt;JNK</title>
<path fill="none" stroke="black" d="M224.5,-518.186C224.5,-509.309 224.5,-500.322 224.5,-492.317"/>
<polygon fill="black" stroke="black" points="228,-492.11 224.5,-482.11 221,-492.11 228,-492.11"/>
</g>
<!-- BCL2 -->
<g id="node11" class="node"><title>BCL2</title>
<ellipse fill="none" stroke="black" cx="49.5" cy="-254.761" rx="18" ry="18"/>
<text text-anchor="middle" x="49.5" y="-253.561" font-family="Times,serif" font-size="4.00">BCL2</text>
</g>
<!-- pr_2e6e4fb3&#45;8ae3&#45;4f46&#45;b55b&#45;c6537bd94605&#45;&gt;BCL2 -->
<g id="edge13" class="edge"><title>pr_2e6e4fb3&#45;8ae3&#45;4f46&#45;b55b&#45;c6537bd94605&#45;&gt;BCL2</title>
<path fill="none" stroke="black" d="M49.5,-309.712C49.5,-300.502 49.5,-291.175 49.5,-282.925"/>
<polygon fill="black" stroke="black" points="53.0001,-282.802 49.5,-272.802 46.0001,-282.802 53.0001,-282.802"/>
</g>
<!-- AP&#45;1 -->
<g id="node13" class="node"><title>AP&#45;1</title>
<ellipse fill="none" stroke="black" cx="166.5" cy="-254.761" rx="18" ry="18"/>
<text text-anchor="middle" x="166.5" y="-253.561" font-family="Times,serif" font-size="4.00">AP&#45;1</text>
</g>
<!-- pr_75ab2042&#45;65cc&#45;44e1&#45;93f1&#45;f3613984425f&#45;&gt;AP&#45;1 -->
<g id="edge14" class="edge"><title>pr_75ab2042&#45;65cc&#45;44e1&#45;93f1&#45;f3613984425f&#45;&gt;AP&#45;1</title>
<path fill="none" stroke="black" d="M166.5,-310.012C166.5,-300.77 166.5,-291.397 166.5,-283.101"/>
<polygon fill="black" stroke="black" points="170,-282.917 166.5,-272.917 163,-282.917 170,-282.917"/>
</g>
<!-- SARS S_ N_ 3a_ 3b_ 6_ 7a -->
<g id="node14" class="node"><title>SARS S_ N_ 3a_ 3b_ 6_ 7a</title>
<ellipse fill="none" stroke="black" cx="262.5" cy="-1166.82" rx="36.125" ry="36.125"/>
<text text-anchor="middle" x="262.5" y="-1165.62" font-family="Times,serif" font-size="4.00">SARS S_ N_ 3a_ 3b_ 6_ 7a</text>
</g>
<!-- pr_700bae9c&#45;d4e2&#45;4d04&#45;b31f&#45;3c00fafc78bd -->
<g id="node15" class="node"><title>pr_700bae9c&#45;d4e2&#45;4d04&#45;b31f&#45;3c00fafc78bd</title>
<polygon fill="none" stroke="black" points="230.5,-1094.26 132.5,-1094.26 132.5,-996.261 230.5,-996.261 230.5,-1094.26"/>
<text text-anchor="middle" x="181.5" y="-1044.06" font-family="Times,serif" font-size="4.00">pr_700bae9c&#45;d4e2&#45;4d04&#45;b31f&#45;3c00fafc78bd</text>
</g>
<!-- SARS S_ N_ 3a_ 3b_ 6_ 7a&#45;&gt;pr_700bae9c&#45;d4e2&#45;4d04&#45;b31f&#45;3c00fafc78bd -->
<g id="edge15" class="edge"><title>SARS S_ N_ 3a_ 3b_ 6_ 7a&#45;&gt;pr_700bae9c&#45;d4e2&#45;4d04&#45;b31f&#45;3c00fafc78bd</title>
<path fill="none" stroke="black" d="M242.685,-1136.58C235.751,-1126.34 227.71,-1114.47 219.783,-1102.77"/>
<polygon fill="black" stroke="black" points="222.555,-1100.62 214.048,-1094.3 216.759,-1104.55 222.555,-1100.62"/>
</g>
<!-- pr_b043b668&#45;5881&#45;42ec&#45;98b8&#45;422fbcf6f8f0 -->
<g id="node22" class="node"><title>pr_b043b668&#45;5881&#45;42ec&#45;98b8&#45;422fbcf6f8f0</title>
<polygon fill="none" stroke="black" points="312.5,-959.761 214.5,-959.761 214.5,-861.761 312.5,-861.761 312.5,-959.761"/>
<text text-anchor="middle" x="263.5" y="-909.561" font-family="Times,serif" font-size="4.00">pr_b043b668&#45;5881&#45;42ec&#45;98b8&#45;422fbcf6f8f0</text>
</g>
<!-- SARS S_ N_ 3a_ 3b_ 6_ 7a&#45;&gt;pr_b043b668&#45;5881&#45;42ec&#45;98b8&#45;422fbcf6f8f0 -->
<g id="edge16" class="edge"><title>SARS S_ N_ 3a_ 3b_ 6_ 7a&#45;&gt;pr_b043b668&#45;5881&#45;42ec&#45;98b8&#45;422fbcf6f8f0</title>
<path fill="none" stroke="black" d="M262.639,-1130.5C262.802,-1089 263.076,-1019.55 263.271,-970.036"/>
<polygon fill="black" stroke="black" points="266.771,-969.804 263.311,-959.791 259.772,-969.777 266.771,-969.804"/>
</g>
<!-- pr_eff57851&#45;5b31&#45;4e5b&#45;b1bd&#45;b55885a78e76 -->
<g id="node23" class="node"><title>pr_eff57851&#45;5b31&#45;4e5b&#45;b1bd&#45;b55885a78e76</title>
<polygon fill="none" stroke="black" points="390,-1094.76 291,-1094.76 291,-995.761 390,-995.761 390,-1094.76"/>
<text text-anchor="middle" x="340.5" y="-1044.06" font-family="Times,serif" font-size="4.00">pr_eff57851&#45;5b31&#45;4e5b&#45;b1bd&#45;b55885a78e76</text>
</g>
<!-- SARS S_ N_ 3a_ 3b_ 6_ 7a&#45;&gt;pr_eff57851&#45;5b31&#45;4e5b&#45;b1bd&#45;b55885a78e76 -->
<g id="edge17" class="edge"><title>SARS S_ N_ 3a_ 3b_ 6_ 7a&#45;&gt;pr_eff57851&#45;5b31&#45;4e5b&#45;b1bd&#45;b55885a78e76</title>
<path fill="none" stroke="black" d="M281.781,-1136.27C288.252,-1126.35 295.706,-1114.92 303.084,-1103.61"/>
<polygon fill="black" stroke="black" points="306.161,-1105.3 308.694,-1095.02 300.298,-1101.48 306.161,-1105.3"/>
</g>
<!-- pr_700bae9c&#45;d4e2&#45;4d04&#45;b31f&#45;3c00fafc78bd&#45;&gt;MLK1/2/3 -->
<g id="edge18" class="edge"><title>pr_700bae9c&#45;d4e2&#45;4d04&#45;b31f&#45;3c00fafc78bd&#45;&gt;MLK1/2/3</title>
<path fill="none" stroke="black" d="M180.045,-996.051C179.475,-977.173 178.841,-956.18 178.348,-939.867"/>
<polygon fill="black" stroke="black" points="181.833,-939.294 178.033,-929.404 174.836,-939.505 181.833,-939.294"/>
</g>
<!-- ATF2 -->
<g id="node17" class="node"><title>ATF2</title>
<ellipse fill="none" stroke="black" cx="283.5" cy="-254.761" rx="18" ry="18"/>
<text text-anchor="middle" x="283.5" y="-253.561" font-family="Times,serif" font-size="4.00">ATF2</text>
</g>
<!-- pr_4201fde2&#45;db6e&#45;49f5&#45;98cb&#45;5c8eada38dd4&#45;&gt;ATF2 -->
<g id="edge19" class="edge"><title>pr_4201fde2&#45;db6e&#45;49f5&#45;98cb&#45;5c8eada38dd4&#45;&gt;ATF2</title>
<path fill="none" stroke="black" d="M283.5,-309.712C283.5,-300.502 283.5,-291.175 283.5,-282.925"/>
<polygon fill="black" stroke="black" points="287,-282.802 283.5,-272.802 280,-282.802 287,-282.802"/>
</g>
<!-- TP53 -->
<g id="node19" class="node"><title>TP53</title>
<ellipse fill="none" stroke="black" cx="401.5" cy="-254.761" rx="18" ry="18"/>
<text text-anchor="middle" x="401.5" y="-253.561" font-family="Times,serif" font-size="4.00">TP53</text>
</g>
<!-- pr_57ad0277&#45;e225&#45;4a92&#45;b96e&#45;e6c965e6ae0a&#45;&gt;TP53 -->
<g id="edge20" class="edge"><title>pr_57ad0277&#45;e225&#45;4a92&#45;b96e&#45;e6c965e6ae0a&#45;&gt;TP53</title>
<path fill="none" stroke="black" d="M401.5,-308.512C401.5,-299.675 401.5,-290.779 401.5,-282.875"/>
<polygon fill="black" stroke="black" points="405,-282.811 401.5,-272.811 398,-282.811 405,-282.811"/>
</g>
<!-- pr_f42f71d9&#45;bccc&#45;4384&#45;bcda&#45;24e7b0ea983e -->
<g id="node20" class="node"><title>pr_f42f71d9&#45;bccc&#45;4384&#45;bcda&#45;24e7b0ea983e</title>
<polygon fill="none" stroke="black" points="451,-200.761 352,-200.761 352,-101.761 451,-101.761 451,-200.761"/>
<text text-anchor="middle" x="401.5" y="-150.061" font-family="Times,serif" font-size="4.00">pr_f42f71d9&#45;bccc&#45;4384&#45;bcda&#45;24e7b0ea983e</text>
</g>
<!-- TP53&#45;&gt;pr_f42f71d9&#45;bccc&#45;4384&#45;bcda&#45;24e7b0ea983e -->
<g id="edge21" class="edge"><title>TP53&#45;&gt;pr_f42f71d9&#45;bccc&#45;4384&#45;bcda&#45;24e7b0ea983e</title>
<path fill="none" stroke="black" d="M401.5,-236.543C401.5,-229.316 401.5,-220.446 401.5,-211.204"/>
<polygon fill="black" stroke="black" points="405,-211.09 401.5,-201.09 398,-211.09 405,-211.09"/>
</g>
<!-- TP53 signaling pathway -->
<g id="node21" class="node"><title>TP53 signaling pathway</title>
<ellipse fill="none" stroke="black" cx="401.5" cy="-32.8805" rx="32.7614" ry="32.7614"/>
<text text-anchor="middle" x="401.5" y="-31.6805" font-family="Times,serif" font-size="4.00">TP53 signaling pathway</text>
</g>
<!-- pr_f42f71d9&#45;bccc&#45;4384&#45;bcda&#45;24e7b0ea983e&#45;&gt;TP53 signaling pathway -->
<g id="edge22" class="edge"><title>pr_f42f71d9&#45;bccc&#45;4384&#45;bcda&#45;24e7b0ea983e&#45;&gt;TP53 signaling pathway</title>
<path fill="none" stroke="black" d="M401.5,-101.579C401.5,-93.083 401.5,-84.3086 401.5,-76.0074"/>
<polygon fill="black" stroke="black" points="405,-75.8021 401.5,-65.8022 398,-75.8022 405,-75.8021"/>
</g>
<!-- pr_b043b668&#45;5881&#45;42ec&#45;98b8&#45;422fbcf6f8f0&#45;&gt;MAP2K7 -->
<g id="edge23" class="edge"><title>pr_b043b668&#45;5881&#45;42ec&#45;98b8&#45;422fbcf6f8f0&#45;&gt;MAP2K7</title>
<path fill="none" stroke="black" d="M261.424,-861.717C259.052,-824.068 254.031,-770.57 243.5,-724.761 241.391,-715.586 238.179,-705.813 234.994,-697.19"/>
<polygon fill="black" stroke="black" points="238.198,-695.772 231.333,-687.702 231.667,-698.291 238.198,-695.772"/>
</g>
<!-- pr_eff57851&#45;5b31&#45;4e5b&#45;b1bd&#45;b55885a78e76&#45;&gt;JNK -->
<g id="edge24" class="edge"><title>pr_eff57851&#45;5b31&#45;4e5b&#45;b1bd&#45;b55885a78e76&#45;&gt;JNK</title>
<path fill="none" stroke="black" d="M340.5,-995.357C340.5,-941.633 340.5,-852.799 340.5,-776.261 340.5,-776.261 340.5,-776.261 340.5,-669.761 340.5,-597.454 323.176,-577.541 282.5,-517.761 272.929,-503.695 258.917,-490.754 247.062,-481.181"/>
<polygon fill="black" stroke="black" points="248.949,-478.215 238.906,-474.838 244.651,-483.74 248.949,-478.215"/>
</g>
</g>
</svg>
