<?xml version="1.0" encoding="UTF-8" standalone="no"?>
<!DOCTYPE svg PUBLIC "-//W3C//DTD SVG 1.1//EN"
 "http://www.w3.org/Graphics/SVG/1.1/DTD/svg11.dtd">
<!-- Generated by graphviz version 2.38.0 (20140413.2041)
 -->
<!-- Title: G Pages: 1 -->
<svg width="462pt" height="1212pt"
 viewBox="0.00 0.00 462.00 1211.89" xmlns="http://www.w3.org/2000/svg" xmlns:xlink="http://www.w3.org/1999/xlink">
<g id="graph0" class="graph" transform="scale(1 1) rotate(0) translate(4 1207.89)">
<title>G</title>
<polygon fill="white" stroke="none" points="-4,4 -4,-1207.89 458,-1207.89 458,4 -4,4"/>
<!-- MEKK1/4 -->
<g id="node1" class="node"><title>MEKK1/4</title>
<ellipse fill="none" stroke="black" cx="73.5" cy="-909.761" rx="18.6233" ry="18.6233"/>
<text text-anchor="middle" x="73.5" y="-908.561" font-family="Times,serif" font-size="4.00">MEKK1/4</text>
</g>
<!-- pr_b93410cf&#45;5380&#45;4a83&#45;b75b&#45;6a135c65a1dc -->
<g id="node2" class="node"><title>pr_b93410cf&#45;5380&#45;4a83&#45;b75b&#45;6a135c65a1dc</title>
<polygon fill="none" stroke="black" points="123.5,-824.761 23.5,-824.761 23.5,-724.761 123.5,-724.761 123.5,-824.761"/>
<text text-anchor="middle" x="73.5" y="-773.561" font-family="Times,serif" font-size="4.00">pr_b93410cf&#45;5380&#45;4a83&#45;b75b&#45;6a135c65a1dc</text>
</g>
<!-- MEKK1/4&#45;&gt;pr_b93410cf&#45;5380&#45;4a83&#45;b75b&#45;6a135c65a1dc -->
<g id="edge1" class="edge"><title>MEKK1/4&#45;&gt;pr_b93410cf&#45;5380&#45;4a83&#45;b75b&#45;6a135c65a1dc</title>
<path fill="none" stroke="black" d="M73.5,-891.1C73.5,-876.652 73.5,-855.351 73.5,-834.974"/>
<polygon fill="black" stroke="black" points="77.0001,-834.762 73.5,-824.762 70.0001,-834.762 77.0001,-834.762"/>
</g>
<!-- MAP2K4 -->
<g id="node3" class="node"><title>MAP2K4</title>
<ellipse fill="none" stroke="black" cx="91.5" cy="-670.761" rx="18" ry="18"/>
<text text-anchor="middle" x="91.5" y="-669.561" font-family="Times,serif" font-size="4.00">MAP2K4</text>
</g>
<!-- pr_b93410cf&#45;5380&#45;4a83&#45;b75b&#45;6a135c65a1dc&#45;&gt;MAP2K4 -->
<g id="edge2" class="edge"><title>pr_b93410cf&#45;5380&#45;4a83&#45;b75b&#45;6a135c65a1dc&#45;&gt;MAP2K4</title>
<path fill="none" stroke="black" d="M82.1837,-724.554C83.7412,-715.728 85.3114,-706.83 86.7073,-698.919"/>
<polygon fill="black" stroke="black" points="90.1941,-699.3 88.4853,-688.844 83.3006,-698.084 90.1941,-699.3"/>
</g>
<!-- pr_8fa9363f&#45;9ffe&#45;4895&#45;bc75&#45;16fbfe7cc951 -->
<g id="node7" class="node"><title>pr_8fa9363f&#45;9ffe&#45;4895&#45;bc75&#45;16fbfe7cc951</title>
<polygon fill="none" stroke="black" points="158.5,-615.261 62.5,-615.261 62.5,-519.261 158.5,-519.261 158.5,-615.261"/>
<text text-anchor="middle" x="110.5" y="-566.061" font-family="Times,serif" font-size="4.00">pr_8fa9363f&#45;9ffe&#45;4895&#45;bc75&#45;16fbfe7cc951</text>
</g>
<!-- MAP2K4&#45;&gt;pr_8fa9363f&#45;9ffe&#45;4895&#45;bc75&#45;16fbfe7cc951 -->
<g id="edge3" class="edge"><title>MAP2K4&#45;&gt;pr_8fa9363f&#45;9ffe&#45;4895&#45;bc75&#45;16fbfe7cc951</title>
<path fill="none" stroke="black" d="M94.6375,-653C96.092,-645.23 97.9148,-635.492 99.8017,-625.412"/>
<polygon fill="black" stroke="black" points="103.299,-625.752 101.699,-615.278 96.4184,-624.464 103.299,-625.752"/>
</g>
<!-- MLK1/2/3 -->
<g id="node4" class="node"><title>MLK1/2/3</title>
<ellipse fill="none" stroke="black" cx="179.5" cy="-909.761" rx="18.6233" ry="18.6233"/>
<text text-anchor="middle" x="179.5" y="-908.561" font-family="Times,serif" font-size="4.00">MLK1/2/3</text>
</g>
<!-- pr_448c03f4&#45;ef74&#45;43ca&#45;b105&#45;f5cf04f87caf -->
<g id="node5" class="node"><title>pr_448c03f4&#45;ef74&#45;43ca&#45;b105&#45;f5cf04f87caf</title>
<polygon fill="none" stroke="black" points="237.5,-822.761 141.5,-822.761 141.5,-726.761 237.5,-726.761 237.5,-822.761"/>
<text text-anchor="middle" x="189.5" y="-773.561" font-family="Times,serif" font-size="4.00">pr_448c03f4&#45;ef74&#45;43ca&#45;b105&#45;f5cf04f87caf</text>
</g>
<!-- MLK1/2/3&#45;&gt;pr_448c03f4&#45;ef74&#45;43ca&#45;b105&#45;f5cf04f87caf -->
<g id="edge4" class="edge"><title>MLK1/2/3&#45;&gt;pr_448c03f4&#45;ef74&#45;43ca&#45;b105&#45;f5cf04f87caf</title>
<path fill="none" stroke="black" d="M180.828,-891.1C181.947,-876.222 183.612,-854.076 185.185,-833.156"/>
<polygon fill="black" stroke="black" points="188.687,-833.255 185.947,-823.021 181.707,-832.731 188.687,-833.255"/>
</g>
<!-- MAP2K7 -->
<g id="node6" class="node"><title>MAP2K7</title>
<ellipse fill="none" stroke="black" cx="226.5" cy="-670.761" rx="18" ry="18"/>
<text text-anchor="middle" x="226.5" y="-669.561" font-family="Times,serif" font-size="4.00">MAP2K7</text>
</g>
<!-- pr_448c03f4&#45;ef74&#45;43ca&#45;b105&#45;f5cf04f87caf&#45;&gt;MAP2K7 -->
<g id="edge5" class="edge"><title>pr_448c03f4&#45;ef74&#45;43ca&#45;b105&#45;f5cf04f87caf&#45;&gt;MAP2K7</title>
<path fill="none" stroke="black" d="M206.592,-726.642C210.185,-716.738 213.849,-706.637 217.038,-697.845"/>
<polygon fill="black" stroke="black" points="220.411,-698.81 220.531,-688.216 213.831,-696.423 220.411,-698.81"/>
</g>
<!-- pr_acc3b426&#45;5561&#45;40b8&#45;989d&#45;d7c8571fdfb6 -->
<g id="node9" class="node"><title>pr_acc3b426&#45;5561&#45;40b8&#45;989d&#45;d7c8571fdfb6</title>
<polygon fill="none" stroke="black" points="276,-616.761 177,-616.761 177,-517.761 276,-517.761 276,-616.761"/>
<text text-anchor="middle" x="226.5" y="-566.061" font-family="Times,serif" font-size="4.00">pr_acc3b426&#45;5561&#45;40b8&#45;989d&#45;d7c8571fdfb6</text>
</g>
<!-- MAP2K7&#45;&gt;pr_acc3b426&#45;5561&#45;40b8&#45;989d&#45;d7c8571fdfb6 -->
<g id="edge6" class="edge"><title>MAP2K7&#45;&gt;pr_acc3b426&#45;5561&#45;40b8&#45;989d&#45;d7c8571fdfb6</title>
<path fill="none" stroke="black" d="M226.5,-652.543C226.5,-645.316 226.5,-636.446 226.5,-627.204"/>
<polygon fill="black" stroke="black" points="230,-627.09 226.5,-617.09 223,-627.09 230,-627.09"/>
</g>
<!-- JNK -->
<g id="node8" class="node"><title>JNK</title>
<ellipse fill="none" stroke="black" cx="226.5" cy="-463.761" rx="18" ry="18"/>
<text text-anchor="middle" x="226.5" y="-462.561" font-family="Times,serif" font-size="4.00">JNK</text>
</g>
<!-- pr_8fa9363f&#45;9ffe&#45;4895&#45;bc75&#45;16fbfe7cc951&#45;&gt;JNK -->
<g id="edge7" class="edge"><title>pr_8fa9363f&#45;9ffe&#45;4895&#45;bc75&#45;16fbfe7cc951&#45;&gt;JNK</title>
<path fill="none" stroke="black" d="M158.687,-524.098C175.182,-509.664 192.769,-494.276 205.898,-482.788"/>
<polygon fill="black" stroke="black" points="208.226,-485.402 213.447,-476.182 203.616,-480.133 208.226,-485.402"/>
</g>
<!-- pr_6db0c8fb&#45;c009&#45;41f2&#45;91e5&#45;4e6b831a5800 -->
<g id="node10" class="node"><title>pr_6db0c8fb&#45;c009&#45;41f2&#45;91e5&#45;4e6b831a5800</title>
<polygon fill="none" stroke="black" points="99,-408.761 0,-408.761 0,-309.761 99,-309.761 99,-408.761"/>
<text text-anchor="middle" x="49.5" y="-358.061" font-family="Times,serif" font-size="4.00">pr_6db0c8fb&#45;c009&#45;41f2&#45;91e5&#45;4e6b831a5800</text>
</g>
<!-- JNK&#45;&gt;pr_6db0c8fb&#45;c009&#45;41f2&#45;91e5&#45;4e6b831a5800 -->
<g id="edge8" class="edge"><title>JNK&#45;&gt;pr_6db0c8fb&#45;c009&#45;41f2&#45;91e5&#45;4e6b831a5800</title>
<path fill="none" stroke="black" d="M209.744,-456.913C186.186,-448.326 142.366,-430.998 108.5,-409.761 108.213,-409.581 107.926,-409.4 107.64,-409.218"/>
<polygon fill="black" stroke="black" points="109.577,-406.303 99.3276,-403.621 105.668,-412.11 109.577,-406.303"/>
</g>
<!-- pr_4e949db9&#45;5fe0&#45;4a1d&#45;b685&#45;2ba6b785a26b -->
<g id="node12" class="node"><title>pr_4e949db9&#45;5fe0&#45;4a1d&#45;b685&#45;2ba6b785a26b</title>
<polygon fill="none" stroke="black" points="217.5,-409.261 117.5,-409.261 117.5,-309.261 217.5,-309.261 217.5,-409.261"/>
<text text-anchor="middle" x="167.5" y="-358.061" font-family="Times,serif" font-size="4.00">pr_4e949db9&#45;5fe0&#45;4a1d&#45;b685&#45;2ba6b785a26b</text>
</g>
<!-- JNK&#45;&gt;pr_4e949db9&#45;5fe0&#45;4a1d&#45;b685&#45;2ba6b785a26b -->
<g id="edge9" class="edge"><title>JNK&#45;&gt;pr_4e949db9&#45;5fe0&#45;4a1d&#45;b685&#45;2ba6b785a26b</title>
<path fill="none" stroke="black" d="M217.794,-447.637C213.14,-439.552 207.082,-429.026 200.789,-418.094"/>
<polygon fill="black" stroke="black" points="203.737,-416.199 195.715,-409.278 197.67,-419.691 203.737,-416.199"/>
</g>
<!-- pr_ee50f6d5&#45;2786&#45;4eb2&#45;985d&#45;1ebf9a50b2dd -->
<g id="node16" class="node"><title>pr_ee50f6d5&#45;2786&#45;4eb2&#45;985d&#45;1ebf9a50b2dd</title>
<polygon fill="none" stroke="black" points="335,-408.761 236,-408.761 236,-309.761 335,-309.761 335,-408.761"/>
<text text-anchor="middle" x="285.5" y="-358.061" font-family="Times,serif" font-size="4.00">pr_ee50f6d5&#45;2786&#45;4eb2&#45;985d&#45;1ebf9a50b2dd</text>
</g>
<!-- JNK&#45;&gt;pr_ee50f6d5&#45;2786&#45;4eb2&#45;985d&#45;1ebf9a50b2dd -->
<g id="edge10" class="edge"><title>JNK&#45;&gt;pr_ee50f6d5&#45;2786&#45;4eb2&#45;985d&#45;1ebf9a50b2dd</title>
<path fill="none" stroke="black" d="M235.206,-447.637C239.91,-439.464 246.05,-428.797 252.416,-417.737"/>
<polygon fill="black" stroke="black" points="255.592,-419.236 257.547,-408.823 249.525,-415.744 255.592,-419.236"/>
</g>
<!-- pr_326dcd00&#45;37d0&#45;48dd&#45;a032&#45;b7268551ea8b -->
<g id="node18" class="node"><title>pr_326dcd00&#45;37d0&#45;48dd&#45;a032&#45;b7268551ea8b</title>
<polygon fill="none" stroke="black" points="454,-409.761 353,-409.761 353,-308.761 454,-308.761 454,-409.761"/>
<text text-anchor="middle" x="403.5" y="-358.061" font-family="Times,serif" font-size="4.00">pr_326dcd00&#45;37d0&#45;48dd&#45;a032&#45;b7268551ea8b</text>
</g>
<!-- JNK&#45;&gt;pr_326dcd00&#45;37d0&#45;48dd&#45;a032&#45;b7268551ea8b -->
<g id="edge11" class="edge"><title>JNK&#45;&gt;pr_326dcd00&#45;37d0&#45;48dd&#45;a032&#45;b7268551ea8b</title>
<path fill="none" stroke="black" d="M243.481,-456.701C266.898,-447.987 310.008,-430.645 343.5,-409.761 343.79,-409.58 344.08,-409.398 344.371,-409.215"/>
<polygon fill="black" stroke="black" points="346.415,-412.058 352.788,-403.594 342.528,-406.236 346.415,-412.058"/>
</g>
<!-- pr_acc3b426&#45;5561&#45;40b8&#45;989d&#45;d7c8571fdfb6&#45;&gt;JNK -->
<g id="edge12" class="edge"><title>pr_acc3b426&#45;5561&#45;40b8&#45;989d&#45;d7c8571fdfb6&#45;&gt;JNK</title>
<path fill="none" stroke="black" d="M226.5,-517.592C226.5,-508.777 226.5,-499.879 226.5,-491.963"/>
<polygon fill="black" stroke="black" points="230,-491.877 226.5,-481.877 223,-491.877 230,-491.877"/>
</g>
<!-- BCL2 -->
<g id="node11" class="node"><title>BCL2</title>
<ellipse fill="none" stroke="black" cx="49.5" cy="-254.761" rx="18" ry="18"/>
<text text-anchor="middle" x="49.5" y="-253.561" font-family="Times,serif" font-size="4.00">BCL2</text>
</g>
<!-- pr_6db0c8fb&#45;c009&#45;41f2&#45;91e5&#45;4e6b831a5800&#45;&gt;BCL2 -->
<g id="edge13" class="edge"><title>pr_6db0c8fb&#45;c009&#45;41f2&#45;91e5&#45;4e6b831a5800&#45;&gt;BCL2</title>
<path fill="none" stroke="black" d="M49.5,-309.712C49.5,-300.502 49.5,-291.175 49.5,-282.925"/>
<polygon fill="black" stroke="black" points="53.0001,-282.802 49.5,-272.802 46.0001,-282.802 53.0001,-282.802"/>
</g>
<!-- AP&#45;1 -->
<g id="node13" class="node"><title>AP&#45;1</title>
<ellipse fill="none" stroke="black" cx="167.5" cy="-254.761" rx="18" ry="18"/>
<text text-anchor="middle" x="167.5" y="-253.561" font-family="Times,serif" font-size="4.00">AP&#45;1</text>
</g>
<!-- pr_4e949db9&#45;5fe0&#45;4a1d&#45;b685&#45;2ba6b785a26b&#45;&gt;AP&#45;1 -->
<g id="edge14" class="edge"><title>pr_4e949db9&#45;5fe0&#45;4a1d&#45;b685&#45;2ba6b785a26b&#45;&gt;AP&#45;1</title>
<path fill="none" stroke="black" d="M167.5,-309.112C167.5,-300.211 167.5,-291.225 167.5,-283.231"/>
<polygon fill="black" stroke="black" points="171,-283.045 167.5,-273.045 164,-283.045 171,-283.045"/>
</g>
<!-- SARS S_ N_ 3a_ 3b_ 6_ 7a -->
<g id="node14" class="node"><title>SARS S_ N_ 3a_ 3b_ 6_ 7a</title>
<ellipse fill="none" stroke="black" cx="264.5" cy="-1167.82" rx="36.125" ry="36.125"/>
<text text-anchor="middle" x="264.5" y="-1166.62" font-family="Times,serif" font-size="4.00">SARS S_ N_ 3a_ 3b_ 6_ 7a</text>
</g>
<!-- pr_0cde38ba&#45;735c&#45;46e5&#45;bea9&#45;e4d52bd6dd74 -->
<g id="node15" class="node"><title>pr_0cde38ba&#45;735c&#45;46e5&#45;bea9&#45;e4d52bd6dd74</title>
<polygon fill="none" stroke="black" points="233,-1095.76 132,-1095.76 132,-994.761 233,-994.761 233,-1095.76"/>
<text text-anchor="middle" x="182.5" y="-1044.06" font-family="Times,serif" font-size="4.00">pr_0cde38ba&#45;735c&#45;46e5&#45;bea9&#45;e4d52bd6dd74</text>
</g>
<!-- SARS S_ N_ 3a_ 3b_ 6_ 7a&#45;&gt;pr_0cde38ba&#45;735c&#45;46e5&#45;bea9&#45;e4d52bd6dd74 -->
<g id="edge15" class="edge"><title>SARS S_ N_ 3a_ 3b_ 6_ 7a&#45;&gt;pr_0cde38ba&#45;735c&#45;46e5&#45;bea9&#45;e4d52bd6dd74</title>
<path fill="none" stroke="black" d="M244.65,-1137.64C237.785,-1127.54 229.83,-1115.85 221.951,-1104.26"/>
<polygon fill="black" stroke="black" points="224.763,-1102.17 216.245,-1095.87 218.974,-1106.11 224.763,-1102.17"/>
</g>
<!-- pr_c304ae14&#45;8f45&#45;43f3&#45;8bb5&#45;3c8dfef10770 -->
<g id="node22" class="node"><title>pr_c304ae14&#45;8f45&#45;43f3&#45;8bb5&#45;3c8dfef10770</title>
<polygon fill="none" stroke="black" points="314.5,-958.761 216.5,-958.761 216.5,-860.761 314.5,-860.761 314.5,-958.761"/>
<text text-anchor="middle" x="265.5" y="-908.561" font-family="Times,serif" font-size="4.00">pr_c304ae14&#45;8f45&#45;43f3&#45;8bb5&#45;3c8dfef10770</text>
</g>
<!-- SARS S_ N_ 3a_ 3b_ 6_ 7a&#45;&gt;pr_c304ae14&#45;8f45&#45;43f3&#45;8bb5&#45;3c8dfef10770 -->
<g id="edge16" class="edge"><title>SARS S_ N_ 3a_ 3b_ 6_ 7a&#45;&gt;pr_c304ae14&#45;8f45&#45;43f3&#45;8bb5&#45;3c8dfef10770</title>
<path fill="none" stroke="black" d="M264.637,-1131.76C264.801,-1089.85 265.077,-1019.13 265.273,-968.98"/>
<polygon fill="black" stroke="black" points="268.773,-968.939 265.312,-958.925 261.773,-968.912 268.773,-968.939"/>
</g>
<!-- pr_402516af&#45;7688&#45;4510&#45;b756&#45;4ce3450720a2 -->
<g id="node23" class="node"><title>pr_402516af&#45;7688&#45;4510&#45;b756&#45;4ce3450720a2</title>
<polygon fill="none" stroke="black" points="392.5,-1095.26 292.5,-1095.26 292.5,-995.261 392.5,-995.261 392.5,-1095.26"/>
<text text-anchor="middle" x="342.5" y="-1044.06" font-family="Times,serif" font-size="4.00">pr_402516af&#45;7688&#45;4510&#45;b756&#45;4ce3450720a2</text>
</g>
<!-- SARS S_ N_ 3a_ 3b_ 6_ 7a&#45;&gt;pr_402516af&#45;7688&#45;4510&#45;b756&#45;4ce3450720a2 -->
<g id="edge17" class="edge"><title>SARS S_ N_ 3a_ 3b_ 6_ 7a&#45;&gt;pr_402516af&#45;7688&#45;4510&#45;b756&#45;4ce3450720a2</title>
<path fill="none" stroke="black" d="M283.781,-1137.02C290.252,-1127.02 297.706,-1115.5 305.084,-1104.09"/>
<polygon fill="black" stroke="black" points="308.2,-1105.72 310.694,-1095.42 302.323,-1101.92 308.2,-1105.72"/>
</g>
<!-- pr_0cde38ba&#45;735c&#45;46e5&#45;bea9&#45;e4d52bd6dd74&#45;&gt;MLK1/2/3 -->
<g id="edge18" class="edge"><title>pr_0cde38ba&#45;735c&#45;46e5&#45;bea9&#45;e4d52bd6dd74&#45;&gt;MLK1/2/3</title>
<path fill="none" stroke="black" d="M181.383,-994.55C180.961,-975.758 180.495,-955.034 180.132,-938.898"/>
<polygon fill="black" stroke="black" points="183.623,-938.459 179.9,-928.54 176.625,-938.617 183.623,-938.459"/>
</g>
<!-- ATF2 -->
<g id="node17" class="node"><title>ATF2</title>
<ellipse fill="none" stroke="black" cx="285.5" cy="-254.761" rx="18" ry="18"/>
<text text-anchor="middle" x="285.5" y="-253.561" font-family="Times,serif" font-size="4.00">ATF2</text>
</g>
<!-- pr_ee50f6d5&#45;2786&#45;4eb2&#45;985d&#45;1ebf9a50b2dd&#45;&gt;ATF2 -->
<g id="edge19" class="edge"><title>pr_ee50f6d5&#45;2786&#45;4eb2&#45;985d&#45;1ebf9a50b2dd&#45;&gt;ATF2</title>
<path fill="none" stroke="black" d="M285.5,-309.712C285.5,-300.502 285.5,-291.175 285.5,-282.925"/>
<polygon fill="black" stroke="black" points="289,-282.802 285.5,-272.802 282,-282.802 289,-282.802"/>
</g>
<!-- TP53 -->
<g id="node19" class="node"><title>TP53</title>
<ellipse fill="none" stroke="black" cx="403.5" cy="-254.761" rx="18" ry="18"/>
<text text-anchor="middle" x="403.5" y="-253.561" font-family="Times,serif" font-size="4.00">TP53</text>
</g>
<!-- pr_326dcd00&#45;37d0&#45;48dd&#45;a032&#45;b7268551ea8b&#45;&gt;TP53 -->
<g id="edge20" class="edge"><title>pr_326dcd00&#45;37d0&#45;48dd&#45;a032&#45;b7268551ea8b&#45;&gt;TP53</title>
<path fill="none" stroke="black" d="M403.5,-308.512C403.5,-299.675 403.5,-290.779 403.5,-282.875"/>
<polygon fill="black" stroke="black" points="407,-282.811 403.5,-272.811 400,-282.811 407,-282.811"/>
</g>
<!-- pr_3b92f94e&#45;769e&#45;4f4c&#45;8636&#45;d73d090d5a76 -->
<g id="node20" class="node"><title>pr_3b92f94e&#45;769e&#45;4f4c&#45;8636&#45;d73d090d5a76</title>
<polygon fill="none" stroke="black" points="453,-200.761 354,-200.761 354,-101.761 453,-101.761 453,-200.761"/>
<text text-anchor="middle" x="403.5" y="-150.061" font-family="Times,serif" font-size="4.00">pr_3b92f94e&#45;769e&#45;4f4c&#45;8636&#45;d73d090d5a76</text>
</g>
<!-- TP53&#45;&gt;pr_3b92f94e&#45;769e&#45;4f4c&#45;8636&#45;d73d090d5a76 -->
<g id="edge21" class="edge"><title>TP53&#45;&gt;pr_3b92f94e&#45;769e&#45;4f4c&#45;8636&#45;d73d090d5a76</title>
<path fill="none" stroke="black" d="M403.5,-236.543C403.5,-229.316 403.5,-220.446 403.5,-211.204"/>
<polygon fill="black" stroke="black" points="407,-211.09 403.5,-201.09 400,-211.09 407,-211.09"/>
</g>
<!-- TP53 signaling pathway -->
<g id="node21" class="node"><title>TP53 signaling pathway</title>
<ellipse fill="none" stroke="black" cx="403.5" cy="-32.8805" rx="32.7614" ry="32.7614"/>
<text text-anchor="middle" x="403.5" y="-31.6805" font-family="Times,serif" font-size="4.00">TP53 signaling pathway</text>
</g>
<!-- pr_3b92f94e&#45;769e&#45;4f4c&#45;8636&#45;d73d090d5a76&#45;&gt;TP53 signaling pathway -->
<g id="edge22" class="edge"><title>pr_3b92f94e&#45;769e&#45;4f4c&#45;8636&#45;d73d090d5a76&#45;&gt;TP53 signaling pathway</title>
<path fill="none" stroke="black" d="M403.5,-101.579C403.5,-93.083 403.5,-84.3086 403.5,-76.0074"/>
<polygon fill="black" stroke="black" points="407,-75.8021 403.5,-65.8022 400,-75.8022 407,-75.8021"/>
</g>
<!-- pr_c304ae14&#45;8f45&#45;43f3&#45;8bb5&#45;3c8dfef10770&#45;&gt;MAP2K7 -->
<g id="edge23" class="edge"><title>pr_c304ae14&#45;8f45&#45;43f3&#45;8bb5&#45;3c8dfef10770&#45;&gt;MAP2K7</title>
<path fill="none" stroke="black" d="M263.917,-860.542C261.875,-823.092 257.201,-770.081 246.5,-724.761 244.323,-715.542 240.954,-705.758 237.597,-697.139"/>
<polygon fill="black" stroke="black" points="240.749,-695.6 233.734,-687.66 234.267,-698.242 240.749,-695.6"/>
</g>
<!-- pr_402516af&#45;7688&#45;4510&#45;b756&#45;4ce3450720a2&#45;&gt;JNK -->
<g id="edge24" class="edge"><title>pr_402516af&#45;7688&#45;4510&#45;b756&#45;4ce3450720a2&#45;&gt;JNK</title>
<path fill="none" stroke="black" d="M342.5,-994.774C342.5,-940.9 342.5,-852.209 342.5,-775.761 342.5,-775.761 342.5,-775.761 342.5,-669.761 342.5,-597.454 325.176,-577.541 284.5,-517.761 274.929,-503.695 260.917,-490.754 249.062,-481.181"/>
<polygon fill="black" stroke="black" points="250.949,-478.215 240.906,-474.838 246.651,-483.74 250.949,-478.215"/>
</g>
</g>
</svg>
