<?xml version="1.0" encoding="UTF-8" standalone="no"?>
<!DOCTYPE svg PUBLIC "-//W3C//DTD SVG 1.1//EN"
 "http://www.w3.org/Graphics/SVG/1.1/DTD/svg11.dtd">
<!-- Generated by graphviz version 2.38.0 (20140413.2041)
 -->
<!-- Title: G Pages: 1 -->
<svg width="581pt" height="909pt"
 viewBox="0.00 0.00 581.00 909.01" xmlns="http://www.w3.org/2000/svg" xmlns:xlink="http://www.w3.org/1999/xlink">
<g id="graph0" class="graph" transform="scale(1 1) rotate(0) translate(4 905.009)">
<title>G</title>
<polygon fill="white" stroke="none" points="-4,4 -4,-905.009 577,-905.009 577,4 -4,4"/>
<!-- MAP2K7 -->
<g id="node1" class="node"><title>MAP2K7</title>
<ellipse fill="none" stroke="black" cx="95.5" cy="-870.25" rx="18" ry="18"/>
<text text-anchor="middle" x="95.5" y="-869.05" font-family="Times,serif" font-size="4.00">MAP2K7</text>
</g>
<!-- pr_ab818304&#45;c179&#45;46da&#45;8056&#45;b18edd359dd2 -->
<g id="node2" class="node"><title>pr_ab818304&#45;c179&#45;46da&#45;8056&#45;b18edd359dd2</title>
<polygon fill="none" stroke="black" points="146,-803.491 45,-803.491 45,-702.491 146,-702.491 146,-803.491"/>
<text text-anchor="middle" x="95.5" y="-751.791" font-family="Times,serif" font-size="4.00">pr_ab818304&#45;c179&#45;46da&#45;8056&#45;b18edd359dd2</text>
</g>
<!-- MAP2K7&#45;&gt;pr_ab818304&#45;c179&#45;46da&#45;8056&#45;b18edd359dd2 -->
<g id="edge1" class="edge"><title>MAP2K7&#45;&gt;pr_ab818304&#45;c179&#45;46da&#45;8056&#45;b18edd359dd2</title>
<path fill="none" stroke="black" d="M90.5994,-852.736C89.432,-842.368 88.8173,-828.294 88.7552,-814.024"/>
<polygon fill="black" stroke="black" points="92.257,-813.666 88.8077,-803.648 85.2571,-813.63 92.257,-813.666"/>
</g>
<!-- pr_97398542&#45;c92d&#45;442c&#45;a8f5&#45;11d3cb0d6957 -->
<g id="node20" class="node"><title>pr_97398542&#45;c92d&#45;442c&#45;a8f5&#45;11d3cb0d6957</title>
<polygon fill="none" stroke="black" points="368.5,-383.184 268.5,-383.184 268.5,-283.184 368.5,-283.184 368.5,-383.184"/>
<text text-anchor="middle" x="318.5" y="-331.984" font-family="Times,serif" font-size="4.00">pr_97398542&#45;c92d&#45;442c&#45;a8f5&#45;11d3cb0d6957</text>
</g>
<!-- MAP2K7&#45;&gt;pr_97398542&#45;c92d&#45;442c&#45;a8f5&#45;11d3cb0d6957 -->
<g id="edge2" class="edge"><title>MAP2K7&#45;&gt;pr_97398542&#45;c92d&#45;442c&#45;a8f5&#45;11d3cb0d6957</title>
<path fill="none" stroke="black" d="M81.6646,-858.581C67.4708,-846.779 46.0237,-826.378 35.5,-803.491 6.58659,-740.608 16.5,-718.14 16.5,-648.929 16.5,-648.929 16.5,-648.929 16.5,-542.368 16.5,-426.017 170.331,-369.703 258.413,-346.994"/>
<polygon fill="black" stroke="black" points="259.444,-350.345 268.292,-344.517 257.741,-343.555 259.444,-350.345"/>
</g>
<!-- pr_ab818304&#45;c179&#45;46da&#45;8056&#45;b18edd359dd2&#45;&gt;MAP2K7 -->
<g id="edge3" class="edge"><title>pr_ab818304&#45;c179&#45;46da&#45;8056&#45;b18edd359dd2&#45;&gt;MAP2K7</title>
<path fill="none" stroke="black" d="M102.192,-803.648C102.387,-816.983 102.091,-830.898 101.304,-842.463"/>
<polygon fill="black" stroke="black" points="97.7906,-842.468 100.401,-852.736 104.764,-843.081 97.7906,-842.468"/>
</g>
<!-- MLK1/2/3 -->
<g id="node3" class="node"><title>MLK1/2/3</title>
<ellipse fill="none" stroke="black" cx="213.5" cy="-870.25" rx="18.6233" ry="18.6233"/>
<text text-anchor="middle" x="213.5" y="-869.05" font-family="Times,serif" font-size="4.00">MLK1/2/3</text>
</g>
<!-- MLK1/2/3&#45;&gt;pr_ab818304&#45;c179&#45;46da&#45;8056&#45;b18edd359dd2 -->
<g id="edge4" class="edge"><title>MLK1/2/3&#45;&gt;pr_ab818304&#45;c179&#45;46da&#45;8056&#45;b18edd359dd2</title>
<path fill="none" stroke="black" d="M200.421,-856.475C188.87,-845.192 171.173,-827.906 153.585,-810.727"/>
<polygon fill="black" stroke="black" points="155.672,-807.872 146.072,-803.388 150.78,-812.879 155.672,-807.872"/>
</g>
<!-- pr_73e4b6af&#45;2cad&#45;4b1d&#45;8db1&#45;f0bc63a34917 -->
<g id="node5" class="node"><title>pr_73e4b6af&#45;2cad&#45;4b1d&#45;8db1&#45;f0bc63a34917</title>
<polygon fill="none" stroke="black" points="263,-802.491 164,-802.491 164,-703.491 263,-703.491 263,-802.491"/>
<text text-anchor="middle" x="213.5" y="-751.791" font-family="Times,serif" font-size="4.00">pr_73e4b6af&#45;2cad&#45;4b1d&#45;8db1&#45;f0bc63a34917</text>
</g>
<!-- MLK1/2/3&#45;&gt;pr_73e4b6af&#45;2cad&#45;4b1d&#45;8db1&#45;f0bc63a34917 -->
<g id="edge5" class="edge"><title>MLK1/2/3&#45;&gt;pr_73e4b6af&#45;2cad&#45;4b1d&#45;8db1&#45;f0bc63a34917</title>
<path fill="none" stroke="black" d="M208.545,-852.243C207.389,-841.712 206.792,-827.498 206.752,-813.157"/>
<polygon fill="black" stroke="black" points="210.255,-812.766 206.822,-802.743 203.255,-812.719 210.255,-812.766"/>
</g>
<!-- SARS&#45;CoV&#45;1 proteins -->
<g id="node4" class="node"><title>SARS&#45;CoV&#45;1 proteins</title>
<ellipse fill="none" stroke="black" cx="285.5" cy="-870.25" rx="30.5202" ry="30.5202"/>
<text text-anchor="middle" x="285.5" y="-869.05" font-family="Times,serif" font-size="4.00">SARS&#45;CoV&#45;1 proteins</text>
</g>
<!-- SARS&#45;CoV&#45;1 proteins&#45;&gt;pr_ab818304&#45;c179&#45;46da&#45;8056&#45;b18edd359dd2 -->
<g id="edge6" class="edge"><title>SARS&#45;CoV&#45;1 proteins&#45;&gt;pr_ab818304&#45;c179&#45;46da&#45;8056&#45;b18edd359dd2</title>
<path fill="none" stroke="black" d="M260.918,-851.348C254.731,-847.202 247.997,-842.986 241.5,-839.491 207.238,-821.061 192.411,-824.54 155.141,-803.405"/>
<polygon fill="black" stroke="black" points="156.671,-800.243 146.281,-798.167 153.108,-806.269 156.671,-800.243"/>
</g>
<!-- SARS&#45;CoV&#45;1 proteins&#45;&gt;pr_73e4b6af&#45;2cad&#45;4b1d&#45;8db1&#45;f0bc63a34917 -->
<g id="edge7" class="edge"><title>SARS&#45;CoV&#45;1 proteins&#45;&gt;pr_73e4b6af&#45;2cad&#45;4b1d&#45;8db1&#45;f0bc63a34917</title>
<path fill="none" stroke="black" d="M269.521,-843.67C263.512,-834.051 256.413,-822.686 249.322,-811.336"/>
<polygon fill="black" stroke="black" points="252.187,-809.315 243.92,-802.688 246.25,-813.024 252.187,-809.315"/>
</g>
<!-- pr_32f3f265&#45;fa28&#45;4222&#45;aa28&#45;2ba7c2e3ea46 -->
<g id="node17" class="node"><title>pr_32f3f265&#45;fa28&#45;4222&#45;aa28&#45;2ba7c2e3ea46</title>
<polygon fill="none" stroke="black" points="417.5,-801.991 319.5,-801.991 319.5,-703.991 417.5,-703.991 417.5,-801.991"/>
<text text-anchor="middle" x="368.5" y="-751.791" font-family="Times,serif" font-size="4.00">pr_32f3f265&#45;fa28&#45;4222&#45;aa28&#45;2ba7c2e3ea46</text>
</g>
<!-- SARS&#45;CoV&#45;1 proteins&#45;&gt;pr_32f3f265&#45;fa28&#45;4222&#45;aa28&#45;2ba7c2e3ea46 -->
<g id="edge8" class="edge"><title>SARS&#45;CoV&#45;1 proteins&#45;&gt;pr_32f3f265&#45;fa28&#45;4222&#45;aa28&#45;2ba7c2e3ea46</title>
<path fill="none" stroke="black" d="M303.102,-844.806C310.371,-834.712 319.123,-822.558 327.827,-810.471"/>
<polygon fill="black" stroke="black" points="330.823,-812.301 333.826,-802.141 325.143,-808.21 330.823,-812.301"/>
</g>
<!-- pr_769c0f57&#45;894c&#45;405d&#45;999b&#45;da6715b4a621 -->
<g id="node19" class="node"><title>pr_769c0f57&#45;894c&#45;405d&#45;999b&#45;da6715b4a621</title>
<polygon fill="none" stroke="black" points="341.5,-593.368 241.5,-593.368 241.5,-493.368 341.5,-493.368 341.5,-593.368"/>
<text text-anchor="middle" x="291.5" y="-542.168" font-family="Times,serif" font-size="4.00">pr_769c0f57&#45;894c&#45;405d&#45;999b&#45;da6715b4a621</text>
</g>
<!-- SARS&#45;CoV&#45;1 proteins&#45;&gt;pr_769c0f57&#45;894c&#45;405d&#45;999b&#45;da6715b4a621 -->
<g id="edge9" class="edge"><title>SARS&#45;CoV&#45;1 proteins&#45;&gt;pr_769c0f57&#45;894c&#45;405d&#45;999b&#45;da6715b4a621</title>
<path fill="none" stroke="black" d="M286.054,-839.268C287.04,-785.852 289.119,-673.31 290.403,-603.74"/>
<polygon fill="black" stroke="black" points="293.909,-603.442 290.595,-593.379 286.911,-603.313 293.909,-603.442"/>
</g>
<!-- pr_73e4b6af&#45;2cad&#45;4b1d&#45;8db1&#45;f0bc63a34917&#45;&gt;MLK1/2/3 -->
<g id="edge10" class="edge"><title>pr_73e4b6af&#45;2cad&#45;4b1d&#45;8db1&#45;f0bc63a34917&#45;&gt;MLK1/2/3</title>
<path fill="none" stroke="black" d="M220.178,-802.743C220.398,-816.247 220.113,-830.417 219.323,-842.191"/>
<polygon fill="black" stroke="black" points="215.828,-841.979 218.455,-852.243 222.802,-842.581 215.828,-841.979"/>
</g>
<!-- ATF2 -->
<g id="node6" class="node"><title>ATF2</title>
<ellipse fill="none" stroke="black" cx="49.5" cy="-18" rx="18" ry="18"/>
<text text-anchor="middle" x="49.5" y="-16.8" font-family="Times,serif" font-size="4.00">ATF2</text>
</g>
<!-- pr_10acf875&#45;bd6b&#45;4026&#45;85c9&#45;98777aeef3a5 -->
<g id="node7" class="node"><title>pr_10acf875&#45;bd6b&#45;4026&#45;85c9&#45;98777aeef3a5</title>
<polygon fill="none" stroke="black" points="99,-172 0,-172 0,-73 99,-73 99,-172"/>
<text text-anchor="middle" x="49.5" y="-121.3" font-family="Times,serif" font-size="4.00">pr_10acf875&#45;bd6b&#45;4026&#45;85c9&#45;98777aeef3a5</text>
</g>
<!-- ATF2&#45;&gt;pr_10acf875&#45;bd6b&#45;4026&#45;85c9&#45;98777aeef3a5 -->
<g id="edge11" class="edge"><title>ATF2&#45;&gt;pr_10acf875&#45;bd6b&#45;4026&#45;85c9&#45;98777aeef3a5</title>
<path fill="none" stroke="black" d="M54.626,-35.5663C55.4962,-43.2382 56.0167,-52.8638 56.1875,-62.8729"/>
<polygon fill="black" stroke="black" points="52.6878,-62.9705 56.2417,-72.9515 59.6877,-62.9328 52.6878,-62.9705"/>
</g>
<!-- pr_10acf875&#45;bd6b&#45;4026&#45;85c9&#45;98777aeef3a5&#45;&gt;ATF2 -->
<g id="edge12" class="edge"><title>pr_10acf875&#45;bd6b&#45;4026&#45;85c9&#45;98777aeef3a5&#45;&gt;ATF2</title>
<path fill="none" stroke="black" d="M42.7583,-72.9515C42.7005,-63.5971 42.9433,-54.1224 43.4866,-45.7785"/>
<polygon fill="black" stroke="black" points="46.9951,-45.8318 44.374,-35.5663 40.0214,-45.2257 46.9951,-45.8318"/>
</g>
<!-- JNK -->
<g id="node8" class="node"><title>JNK</title>
<ellipse fill="none" stroke="black" cx="318.5" cy="-228.092" rx="18" ry="18"/>
<text text-anchor="middle" x="318.5" y="-226.892" font-family="Times,serif" font-size="4.00">JNK</text>
</g>
<!-- JNK&#45;&gt;pr_10acf875&#45;bd6b&#45;4026&#45;85c9&#45;98777aeef3a5 -->
<g id="edge13" class="edge"><title>JNK&#45;&gt;pr_10acf875&#45;bd6b&#45;4026&#45;85c9&#45;98777aeef3a5</title>
<path fill="none" stroke="black" d="M300.688,-225.203C263.258,-220.669 174.454,-206.925 108.5,-173 108.403,-172.95 108.307,-172.9 108.21,-172.85"/>
<polygon fill="black" stroke="black" points="109.724,-169.683 99.3119,-167.721 106.228,-175.748 109.724,-169.683"/>
</g>
<!-- pr_048a5b94&#45;541b&#45;41f0&#45;89d8&#45;d43d6eb3ba48 -->
<g id="node10" class="node"><title>pr_048a5b94&#45;541b&#45;41f0&#45;89d8&#45;d43d6eb3ba48</title>
<polygon fill="none" stroke="black" points="217.5,-172.5 117.5,-172.5 117.5,-72.5 217.5,-72.5 217.5,-172.5"/>
<text text-anchor="middle" x="167.5" y="-121.3" font-family="Times,serif" font-size="4.00">pr_048a5b94&#45;541b&#45;41f0&#45;89d8&#45;d43d6eb3ba48</text>
</g>
<!-- JNK&#45;&gt;pr_048a5b94&#45;541b&#45;41f0&#45;89d8&#45;d43d6eb3ba48 -->
<g id="edge14" class="edge"><title>JNK&#45;&gt;pr_048a5b94&#45;541b&#45;41f0&#45;89d8&#45;d43d6eb3ba48</title>
<path fill="none" stroke="black" d="M302.708,-218.854C283.98,-208.849 252.079,-191.061 226.5,-173 226.224,-172.805 225.947,-172.609 225.67,-172.411"/>
<polygon fill="black" stroke="black" points="227.719,-169.574 217.59,-166.466 223.57,-175.212 227.719,-169.574"/>
</g>
<!-- pr_4978e351&#45;1263&#45;4b69&#45;80c7&#45;7dea8a075092 -->
<g id="node12" class="node"><title>pr_4978e351&#45;1263&#45;4b69&#45;80c7&#45;7dea8a075092</title>
<polygon fill="none" stroke="black" points="337,-173 236,-173 236,-72 337,-72 337,-173"/>
<text text-anchor="middle" x="286.5" y="-121.3" font-family="Times,serif" font-size="4.00">pr_4978e351&#45;1263&#45;4b69&#45;80c7&#45;7dea8a075092</text>
</g>
<!-- JNK&#45;&gt;pr_4978e351&#45;1263&#45;4b69&#45;80c7&#45;7dea8a075092 -->
<g id="edge15" class="edge"><title>JNK&#45;&gt;pr_4978e351&#45;1263&#45;4b69&#45;80c7&#45;7dea8a075092</title>
<path fill="none" stroke="black" d="M313.359,-210.448C310.975,-202.733 307.984,-193.048 304.87,-182.967"/>
<polygon fill="black" stroke="black" points="308.158,-181.753 301.862,-173.231 301.47,-183.819 308.158,-181.753"/>
</g>
<!-- pr_0297ae5a&#45;e5c4&#45;4a9b&#45;9c6d&#45;b12fdc4c9c8f -->
<g id="node14" class="node"><title>pr_0297ae5a&#45;e5c4&#45;4a9b&#45;9c6d&#45;b12fdc4c9c8f</title>
<polygon fill="none" stroke="black" points="573,-172 474,-172 474,-73 573,-73 573,-172"/>
<text text-anchor="middle" x="523.5" y="-121.3" font-family="Times,serif" font-size="4.00">pr_0297ae5a&#45;e5c4&#45;4a9b&#45;9c6d&#45;b12fdc4c9c8f</text>
</g>
<!-- JNK&#45;&gt;pr_0297ae5a&#45;e5c4&#45;4a9b&#45;9c6d&#45;b12fdc4c9c8f -->
<g id="edge16" class="edge"><title>JNK&#45;&gt;pr_0297ae5a&#45;e5c4&#45;4a9b&#45;9c6d&#45;b12fdc4c9c8f</title>
<path fill="none" stroke="black" d="M335.537,-221.597C368.929,-210.696 441.713,-186.242 464.5,-173 464.793,-172.83 465.085,-172.658 465.378,-172.485"/>
<polygon fill="black" stroke="black" points="467.266,-175.432 473.823,-167.11 463.508,-169.527 467.266,-175.432"/>
</g>
<!-- JNK&#45;&gt;pr_97398542&#45;c92d&#45;442c&#45;a8f5&#45;11d3cb0d6957 -->
<g id="edge17" class="edge"><title>JNK&#45;&gt;pr_97398542&#45;c92d&#45;442c&#45;a8f5&#45;11d3cb0d6957</title>
<path fill="none" stroke="black" d="M323.613,-245.641C324.484,-253.309 325.007,-262.935 325.183,-272.957"/>
<polygon fill="black" stroke="black" points="321.683,-273.074 325.243,-283.053 328.683,-273.032 321.683,-273.074"/>
</g>
<!-- pr_facbadce&#45;73c3&#45;488c&#45;8765&#45;ded39963c2c5 -->
<g id="node23" class="node"><title>pr_facbadce&#45;73c3&#45;488c&#45;8765&#45;ded39963c2c5</title>
<polygon fill="none" stroke="black" points="455.5,-172.5 355.5,-172.5 355.5,-72.5 455.5,-72.5 455.5,-172.5"/>
<text text-anchor="middle" x="405.5" y="-121.3" font-family="Times,serif" font-size="4.00">pr_facbadce&#45;73c3&#45;488c&#45;8765&#45;ded39963c2c5</text>
</g>
<!-- JNK&#45;&gt;pr_facbadce&#45;73c3&#45;488c&#45;8765&#45;ded39963c2c5 -->
<g id="edge18" class="edge"><title>JNK&#45;&gt;pr_facbadce&#45;73c3&#45;488c&#45;8765&#45;ded39963c2c5</title>
<path fill="none" stroke="black" d="M326.382,-211.807C332.546,-203.219 341.456,-191.908 351.11,-180.259"/>
<polygon fill="black" stroke="black" points="353.803,-182.494 357.539,-172.58 348.436,-178 353.803,-182.494"/>
</g>
<!-- TP53 -->
<g id="node9" class="node"><title>TP53</title>
<ellipse fill="none" stroke="black" cx="167.5" cy="-18" rx="18" ry="18"/>
<text text-anchor="middle" x="167.5" y="-16.8" font-family="Times,serif" font-size="4.00">TP53</text>
</g>
<!-- TP53&#45;&gt;pr_048a5b94&#45;541b&#45;41f0&#45;89d8&#45;d43d6eb3ba48 -->
<g id="edge19" class="edge"><title>TP53&#45;&gt;pr_048a5b94&#45;541b&#45;41f0&#45;89d8&#45;d43d6eb3ba48</title>
<path fill="none" stroke="black" d="M172.6,-35.3424C173.462,-42.8395 173.986,-52.2359 174.172,-62.0439"/>
<polygon fill="black" stroke="black" points="170.675,-62.3764 174.245,-72.3515 177.674,-62.3271 170.675,-62.3764"/>
</g>
<!-- pr_048a5b94&#45;541b&#45;41f0&#45;89d8&#45;d43d6eb3ba48&#45;&gt;TP53 -->
<g id="edge20" class="edge"><title>pr_048a5b94&#45;541b&#45;41f0&#45;89d8&#45;d43d6eb3ba48&#45;&gt;TP53</title>
<path fill="none" stroke="black" d="M160.755,-72.3515C160.71,-63.0632 160.962,-53.6826 161.509,-45.433"/>
<polygon fill="black" stroke="black" points="165.007,-45.6113 162.4,-35.3424 158.034,-44.996 165.007,-45.6113"/>
</g>
<!-- BCL2 -->
<g id="node11" class="node"><title>BCL2</title>
<ellipse fill="none" stroke="black" cx="286.5" cy="-18" rx="18" ry="18"/>
<text text-anchor="middle" x="286.5" y="-16.8" font-family="Times,serif" font-size="4.00">BCL2</text>
</g>
<!-- BCL2&#45;&gt;pr_4978e351&#45;1263&#45;4b69&#45;80c7&#45;7dea8a075092 -->
<g id="edge21" class="edge"><title>BCL2&#45;&gt;pr_4978e351&#45;1263&#45;4b69&#45;80c7&#45;7dea8a075092</title>
<path fill="none" stroke="black" d="M291.628,-35.5823C292.462,-42.9473 292.975,-52.1105 293.165,-61.6841"/>
<polygon fill="black" stroke="black" points="289.666,-61.7801 293.247,-71.7513 296.666,-61.7231 289.666,-61.7801"/>
</g>
<!-- pr_4978e351&#45;1263&#45;4b69&#45;80c7&#45;7dea8a075092&#45;&gt;BCL2 -->
<g id="edge22" class="edge"><title>pr_4978e351&#45;1263&#45;4b69&#45;80c7&#45;7dea8a075092&#45;&gt;BCL2</title>
<path fill="none" stroke="black" d="M279.753,-71.7513C279.722,-62.7741 279.967,-53.7354 280.489,-45.7383"/>
<polygon fill="black" stroke="black" points="283.993,-45.8479 281.372,-35.5823 277.019,-45.2415 283.993,-45.8479"/>
</g>
<!-- AP&#45;1 -->
<g id="node13" class="node"><title>AP&#45;1</title>
<ellipse fill="none" stroke="black" cx="523.5" cy="-18" rx="18" ry="18"/>
<text text-anchor="middle" x="523.5" y="-16.8" font-family="Times,serif" font-size="4.00">AP&#45;1</text>
</g>
<!-- AP&#45;1&#45;&gt;pr_0297ae5a&#45;e5c4&#45;4a9b&#45;9c6d&#45;b12fdc4c9c8f -->
<g id="edge23" class="edge"><title>AP&#45;1&#45;&gt;pr_0297ae5a&#45;e5c4&#45;4a9b&#45;9c6d&#45;b12fdc4c9c8f</title>
<path fill="none" stroke="black" d="M528.626,-35.5663C529.496,-43.2382 530.017,-52.8638 530.187,-62.8729"/>
<polygon fill="black" stroke="black" points="526.688,-62.9705 530.242,-72.9515 533.688,-62.9328 526.688,-62.9705"/>
</g>
<!-- pr_0297ae5a&#45;e5c4&#45;4a9b&#45;9c6d&#45;b12fdc4c9c8f&#45;&gt;AP&#45;1 -->
<g id="edge24" class="edge"><title>pr_0297ae5a&#45;e5c4&#45;4a9b&#45;9c6d&#45;b12fdc4c9c8f&#45;&gt;AP&#45;1</title>
<path fill="none" stroke="black" d="M516.758,-72.9515C516.701,-63.5971 516.943,-54.1224 517.487,-45.7785"/>
<polygon fill="black" stroke="black" points="520.995,-45.8318 518.374,-35.5663 514.021,-45.2257 520.995,-45.8318"/>
</g>
<!-- 3b protein -->
<g id="node15" class="node"><title>3b protein</title>
<ellipse fill="none" stroke="black" cx="523.5" cy="-228.092" rx="19.1842" ry="19.1842"/>
<text text-anchor="middle" x="523.5" y="-226.892" font-family="Times,serif" font-size="4.00">3b protein</text>
</g>
<!-- 3b protein&#45;&gt;pr_0297ae5a&#45;e5c4&#45;4a9b&#45;9c6d&#45;b12fdc4c9c8f -->
<g id="edge25" class="edge"><title>3b protein&#45;&gt;pr_0297ae5a&#45;e5c4&#45;4a9b&#45;9c6d&#45;b12fdc4c9c8f</title>
<path fill="none" stroke="black" d="M523.5,-208.572C523.5,-200.97 523.5,-191.709 523.5,-182.132"/>
<polygon fill="black" stroke="black" points="527,-182.092 523.5,-172.092 520,-182.092 527,-182.092"/>
</g>
<!-- MEKK1/4 -->
<g id="node16" class="node"><title>MEKK1/4</title>
<ellipse fill="none" stroke="black" cx="368.5" cy="-647.929" rx="18.6233" ry="18.6233"/>
<text text-anchor="middle" x="368.5" y="-646.729" font-family="Times,serif" font-size="4.00">MEKK1/4</text>
</g>
<!-- MEKK1/4&#45;&gt;pr_32f3f265&#45;fa28&#45;4222&#45;aa28&#45;2ba7c2e3ea46 -->
<g id="edge26" class="edge"><title>MEKK1/4&#45;&gt;pr_32f3f265&#45;fa28&#45;4222&#45;aa28&#45;2ba7c2e3ea46</title>
<path fill="none" stroke="black" d="M373.651,-665.812C374.521,-673.623 375.036,-683.412 375.196,-693.565"/>
<polygon fill="black" stroke="black" points="371.697,-693.793 375.238,-703.779 378.697,-693.765 371.697,-693.793"/>
</g>
<!-- MEKK1/4&#45;&gt;pr_769c0f57&#45;894c&#45;405d&#45;999b&#45;da6715b4a621 -->
<g id="edge27" class="edge"><title>MEKK1/4&#45;&gt;pr_769c0f57&#45;894c&#45;405d&#45;999b&#45;da6715b4a621</title>
<path fill="none" stroke="black" d="M357.793,-632.668C351.549,-624.35 343.214,-613.25 334.569,-601.734"/>
<polygon fill="black" stroke="black" points="337.358,-599.619 328.555,-593.724 331.76,-603.822 337.358,-599.619"/>
</g>
<!-- pr_32f3f265&#45;fa28&#45;4222&#45;aa28&#45;2ba7c2e3ea46&#45;&gt;MEKK1/4 -->
<g id="edge28" class="edge"><title>pr_32f3f265&#45;fa28&#45;4222&#45;aa28&#45;2ba7c2e3ea46&#45;&gt;MEKK1/4</title>
<path fill="none" stroke="black" d="M361.762,-703.779C361.69,-694.202 361.93,-684.471 362.483,-675.917"/>
<polygon fill="black" stroke="black" points="365.982,-676.075 363.349,-665.812 359.007,-675.477 365.982,-676.075"/>
</g>
<!-- MAP2K4 -->
<g id="node18" class="node"><title>MAP2K4</title>
<ellipse fill="none" stroke="black" cx="291.5" cy="-438.276" rx="18" ry="18"/>
<text text-anchor="middle" x="291.5" y="-437.076" font-family="Times,serif" font-size="4.00">MAP2K4</text>
</g>
<!-- MAP2K4&#45;&gt;pr_769c0f57&#45;894c&#45;405d&#45;999b&#45;da6715b4a621 -->
<g id="edge29" class="edge"><title>MAP2K4&#45;&gt;pr_769c0f57&#45;894c&#45;405d&#45;999b&#45;da6715b4a621</title>
<path fill="none" stroke="black" d="M296.613,-455.825C297.484,-463.493 298.007,-473.119 298.183,-483.141"/>
<polygon fill="black" stroke="black" points="294.683,-483.258 298.243,-493.237 301.683,-483.216 294.683,-483.258"/>
</g>
<!-- MAP2K4&#45;&gt;pr_97398542&#45;c92d&#45;442c&#45;a8f5&#45;11d3cb0d6957 -->
<g id="edge30" class="edge"><title>MAP2K4&#45;&gt;pr_97398542&#45;c92d&#45;442c&#45;a8f5&#45;11d3cb0d6957</title>
<path fill="none" stroke="black" d="M295.838,-420.712C297.871,-412.948 300.43,-403.18 303.089,-393.025"/>
<polygon fill="black" stroke="black" points="306.508,-393.785 305.656,-383.225 299.737,-392.012 306.508,-393.785"/>
</g>
<!-- pr_769c0f57&#45;894c&#45;405d&#45;999b&#45;da6715b4a621&#45;&gt;MAP2K4 -->
<g id="edge31" class="edge"><title>pr_769c0f57&#45;894c&#45;405d&#45;999b&#45;da6715b4a621&#45;&gt;MAP2K4</title>
<path fill="none" stroke="black" d="M284.757,-493.237C284.705,-483.862 284.952,-474.38 285.498,-466.035"/>
<polygon fill="black" stroke="black" points="289.006,-466.091 286.387,-455.825 282.033,-465.484 289.006,-466.091"/>
</g>
<!-- pr_97398542&#45;c92d&#45;442c&#45;a8f5&#45;11d3cb0d6957&#45;&gt;JNK -->
<g id="edge32" class="edge"><title>pr_97398542&#45;c92d&#45;442c&#45;a8f5&#45;11d3cb0d6957&#45;&gt;JNK</title>
<path fill="none" stroke="black" d="M311.757,-283.053C311.705,-273.678 311.952,-264.196 312.498,-255.851"/>
<polygon fill="black" stroke="black" points="316.006,-255.907 313.387,-245.641 309.033,-255.3 316.006,-255.907"/>
</g>
<!-- 7a protein -->
<g id="node21" class="node"><title>7a protein</title>
<ellipse fill="none" stroke="black" cx="346.5" cy="-438.276" rx="19.1842" ry="19.1842"/>
<text text-anchor="middle" x="346.5" y="-437.076" font-family="Times,serif" font-size="4.00">7a protein</text>
</g>
<!-- 7a protein&#45;&gt;pr_97398542&#45;c92d&#45;442c&#45;a8f5&#45;11d3cb0d6957 -->
<g id="edge33" class="edge"><title>7a protein&#45;&gt;pr_97398542&#45;c92d&#45;442c&#45;a8f5&#45;11d3cb0d6957</title>
<path fill="none" stroke="black" d="M341.623,-419.318C339.599,-411.868 337.126,-402.761 334.557,-393.305"/>
<polygon fill="black" stroke="black" points="337.861,-392.113 331.862,-383.38 331.105,-393.948 337.861,-392.113"/>
</g>
<!-- 3a protein -->
<g id="node22" class="node"><title>3a protein</title>
<ellipse fill="none" stroke="black" cx="402.5" cy="-438.276" rx="19.1842" ry="19.1842"/>
<text text-anchor="middle" x="402.5" y="-437.076" font-family="Times,serif" font-size="4.00">3a protein</text>
</g>
<!-- 3a protein&#45;&gt;pr_97398542&#45;c92d&#45;442c&#45;a8f5&#45;11d3cb0d6957 -->
<g id="edge34" class="edge"><title>3a protein&#45;&gt;pr_97398542&#45;c92d&#45;442c&#45;a8f5&#45;11d3cb0d6957</title>
<path fill="none" stroke="black" d="M390.82,-422.941C383.868,-414.409 374.543,-402.964 364.904,-391.135"/>
<polygon fill="black" stroke="black" points="367.577,-388.875 358.547,-383.333 362.151,-393.296 367.577,-388.875"/>
</g>
<!-- pr_facbadce&#45;73c3&#45;488c&#45;8765&#45;ded39963c2c5&#45;&gt;JNK -->
<g id="edge35" class="edge"><title>pr_facbadce&#45;73c3&#45;488c&#45;8765&#45;ded39963c2c5&#45;&gt;JNK</title>
<path fill="none" stroke="black" d="M371.027,-172.575C360.327,-185.409 348.886,-198.465 339.359,-208.583"/>
<polygon fill="black" stroke="black" points="336.617,-206.384 332.181,-216.006 341.649,-211.25 336.617,-206.384"/>
</g>
<!-- S protein -->
<g id="node24" class="node"><title>S protein</title>
<ellipse fill="none" stroke="black" cx="405.5" cy="-228.092" rx="18.0625" ry="18.0625"/>
<text text-anchor="middle" x="405.5" y="-226.892" font-family="Times,serif" font-size="4.00">S protein</text>
</g>
<!-- S protein&#45;&gt;pr_facbadce&#45;73c3&#45;488c&#45;8765&#45;ded39963c2c5 -->
<g id="edge36" class="edge"><title>S protein&#45;&gt;pr_facbadce&#45;73c3&#45;488c&#45;8765&#45;ded39963c2c5</title>
<path fill="none" stroke="black" d="M405.5,-209.986C405.5,-202.394 405.5,-192.962 405.5,-183.145"/>
<polygon fill="black" stroke="black" points="409,-182.836 405.5,-172.836 402,-182.836 409,-182.836"/>
</g>
</g>
</svg>
