<?xml version="1.0" encoding="UTF-8" standalone="no"?>
<!DOCTYPE svg PUBLIC "-//W3C//DTD SVG 1.1//EN"
 "http://www.w3.org/Graphics/SVG/1.1/DTD/svg11.dtd">
<!-- Generated by graphviz version 2.38.0 (20140413.2041)
 -->
<!-- Title: G Pages: 1 -->
<svg width="1471pt" height="391pt"
 viewBox="0.00 0.00 1470.85 390.71" xmlns="http://www.w3.org/2000/svg" xmlns:xlink="http://www.w3.org/1999/xlink">
<g id="graph0" class="graph" transform="scale(1 1) rotate(0) translate(4 386.711)">
<title>G</title>
<polygon fill="white" stroke="none" points="-4,4 -4,-386.711 1466.85,-386.711 1466.85,4 -4,4"/>
<!-- Nsp3_Nsp4_Nsp6 -->
<g id="node1" class="node"><title>Nsp3_Nsp4_Nsp6</title>
<ellipse fill="none" stroke="black" cx="507.562" cy="-148.43" rx="26.533" ry="26.533"/>
<text text-anchor="middle" x="507.562" y="-147.23" font-family="Times,serif" font-size="4.00">Nsp3_Nsp4_Nsp6</text>
</g>
<!-- Plasma membrane organization -->
<g id="node2" class="node"><title>Plasma membrane organization</title>
<ellipse fill="none" stroke="black" cx="507.562" cy="-41.3657" rx="41.2319" ry="41.2319"/>
<text text-anchor="middle" x="507.562" y="-40.1657" font-family="Times,serif" font-size="4.00">Plasma membrane organization</text>
</g>
<!-- Nsp3_Nsp4_Nsp6&#45;&gt;Plasma membrane organization -->
<g id="edge1" class="edge"><title>Nsp3_Nsp4_Nsp6&#45;&gt;Plasma membrane organization</title>
<path fill="none" stroke="black" d="M507.562,-121.728C507.562,-113.071 507.562,-103.086 507.562,-93.1815"/>
<polygon fill="black" stroke="black" points="511.062,-92.9487 507.562,-82.9487 504.062,-92.9488 511.062,-92.9487"/>
</g>
<!-- Bafilomycin A1 -->
<g id="node3" class="node"><title>Bafilomycin A1</title>
<ellipse fill="none" stroke="black" cx="1303.56" cy="-351.422" rx="24.8512" ry="24.8512"/>
<text text-anchor="middle" x="1303.56" y="-350.222" font-family="Times,serif" font-size="4.00">Bafilomycin A1</text>
</g>
<!-- ATP6AP1_Bafilomycin A1 -->
<g id="node46" class="node"><title>ATP6AP1_Bafilomycin A1</title>
<ellipse fill="none" stroke="black" cx="1303.56" cy="-249.13" rx="35.0036" ry="35.0036"/>
<text text-anchor="middle" x="1303.56" y="-247.93" font-family="Times,serif" font-size="4.00">ATP6AP1_Bafilomycin A1</text>
</g>
<!-- Bafilomycin A1&#45;&gt;ATP6AP1_Bafilomycin A1 -->
<g id="edge2" class="edge"><title>Bafilomycin A1&#45;&gt;ATP6AP1_Bafilomycin A1</title>
<path fill="none" stroke="black" d="M1303.56,-326.399C1303.56,-316.826 1303.56,-305.49 1303.56,-294.526"/>
<polygon fill="black" stroke="black" points="1307.06,-294.197 1303.56,-284.197 1300.06,-294.197 1307.06,-294.197"/>
</g>
<!-- Nsp4 -->
<g id="node4" class="node"><title>Nsp4</title>
<ellipse fill="none" stroke="black" cx="181.562" cy="-249.13" rx="18" ry="18"/>
<text text-anchor="middle" x="181.562" y="-247.93" font-family="Times,serif" font-size="4.00">Nsp4</text>
</g>
<!-- Nsp4&#45;&gt;Nsp3_Nsp4_Nsp6 -->
<g id="edge4" class="edge"><title>Nsp4&#45;&gt;Nsp3_Nsp4_Nsp6</title>
<path fill="none" stroke="black" d="M189.998,-233.141C194.61,-226.3 200.942,-218.717 208.562,-214.128 283.311,-169.114 316.492,-197.546 401.562,-178.128 425.254,-172.721 451.632,-165.583 472.147,-159.779"/>
<polygon fill="black" stroke="black" points="473.347,-163.077 482.002,-156.967 471.426,-156.346 473.347,-163.077"/>
</g>
<!-- Nsp4_DNAJC11 -->
<g id="node22" class="node"><title>Nsp4_DNAJC11</title>
<ellipse fill="none" stroke="black" cx="32.5616" cy="-148.43" rx="24.8512" ry="24.8512"/>
<text text-anchor="middle" x="32.5616" y="-147.23" font-family="Times,serif" font-size="4.00">Nsp4_DNAJC11</text>
</g>
<!-- Nsp4&#45;&gt;Nsp4_DNAJC11 -->
<g id="edge8" class="edge"><title>Nsp4&#45;&gt;Nsp4_DNAJC11</title>
<path fill="none" stroke="black" d="M172.423,-233.481C167.73,-226.883 161.533,-219.407 154.562,-214.128 121.526,-189.116 104.213,-199.245 68.5616,-178.128 65.3465,-176.224 62.1051,-174.058 58.9542,-171.79"/>
<polygon fill="black" stroke="black" points="60.9803,-168.934 50.9054,-165.655 56.737,-174.501 60.9803,-168.934"/>
</g>
<!-- Nsp4_ALG11 -->
<g id="node26" class="node"><title>Nsp4_ALG11</title>
<ellipse fill="none" stroke="black" cx="99.5616" cy="-148.43" rx="21.9898" ry="21.9898"/>
<text text-anchor="middle" x="99.5616" y="-147.23" font-family="Times,serif" font-size="4.00">Nsp4_ALG11</text>
</g>
<!-- Nsp4&#45;&gt;Nsp4_ALG11 -->
<g id="edge7" class="edge"><title>Nsp4&#45;&gt;Nsp4_ALG11</title>
<path fill="none" stroke="black" d="M170.891,-234.48C165.968,-228.237 160.017,-220.768 154.562,-214.128 143.383,-200.524 130.663,-185.531 120.274,-173.406"/>
<polygon fill="black" stroke="black" points="122.672,-170.827 113.501,-165.523 117.362,-175.389 122.672,-170.827"/>
</g>
<!-- Nsp4_IDE -->
<g id="node30" class="node"><title>Nsp4_IDE</title>
<ellipse fill="none" stroke="black" cx="159.562" cy="-148.43" rx="19.1842" ry="19.1842"/>
<text text-anchor="middle" x="159.562" y="-147.23" font-family="Times,serif" font-size="4.00">Nsp4_IDE</text>
</g>
<!-- Nsp4&#45;&gt;Nsp4_IDE -->
<g id="edge3" class="edge"><title>Nsp4&#45;&gt;Nsp4_IDE</title>
<path fill="none" stroke="black" d="M177.83,-231.387C174.54,-216.63 169.682,-194.832 165.802,-177.426"/>
<polygon fill="black" stroke="black" points="169.127,-176.256 163.535,-167.257 162.295,-177.779 169.127,-176.256"/>
</g>
<!-- TIM complex_Nsp4 -->
<g id="node47" class="node"><title>TIM complex_Nsp4</title>
<ellipse fill="none" stroke="black" cx="225.562" cy="-148.43" rx="28.7763" ry="28.7763"/>
<text text-anchor="middle" x="225.562" y="-147.23" font-family="Times,serif" font-size="4.00">TIM complex_Nsp4</text>
</g>
<!-- Nsp4&#45;&gt;TIM complex_Nsp4 -->
<g id="edge5" class="edge"><title>Nsp4&#45;&gt;TIM complex_Nsp4</title>
<path fill="none" stroke="black" d="M188.631,-232.272C194.398,-219.335 202.757,-200.584 210.065,-184.193"/>
<polygon fill="black" stroke="black" points="213.343,-185.434 214.218,-174.876 206.949,-182.584 213.343,-185.434"/>
</g>
<!-- Nsp4_NUP210 -->
<g id="node48" class="node"><title>Nsp4_NUP210</title>
<ellipse fill="none" stroke="black" cx="295.562" cy="-148.43" rx="23.1702" ry="23.1702"/>
<text text-anchor="middle" x="295.562" y="-147.23" font-family="Times,serif" font-size="4.00">Nsp4_NUP210</text>
</g>
<!-- Nsp4&#45;&gt;Nsp4_NUP210 -->
<g id="edge6" class="edge"><title>Nsp4&#45;&gt;Nsp4_NUP210</title>
<path fill="none" stroke="black" d="M191.408,-233.697C196.165,-227.296 202.214,-219.92 208.562,-214.128 230.144,-194.437 240.398,-195.932 263.562,-178.128 266.165,-176.127 268.819,-173.967 271.429,-171.76"/>
<polygon fill="black" stroke="black" points="273.805,-174.331 279.033,-165.116 269.199,-169.06 273.805,-174.331"/>
</g>
<!-- Nsp6 (&#45;) -->
<g id="node5" class="node"><title>Nsp6 (&#45;)</title>
<ellipse fill="none" stroke="black" cx="972.562" cy="-249.13" rx="18" ry="18"/>
<text text-anchor="middle" x="972.562" y="-247.93" font-family="Times,serif" font-size="4.00">Nsp6 (&#45;)</text>
</g>
<!-- Nsp6 (+) -->
<g id="node17" class="node"><title>Nsp6 (+)</title>
<ellipse fill="none" stroke="black" cx="918.562" cy="-351.422" rx="18.0625" ry="18.0625"/>
<text text-anchor="middle" x="918.562" y="-350.222" font-family="Times,serif" font-size="4.00">Nsp6 (+)</text>
</g>
<!-- Nsp6 (&#45;)&#45;&gt;Nsp6 (+) -->
<g id="edge9" class="edge"><title>Nsp6 (&#45;)&#45;&gt;Nsp6 (+)</title>
<path fill="none" stroke="black" d="M968.712,-266.924C961.452,-283.95 947.386,-310.362 935.8,-328.911"/>
<polygon fill="black" stroke="black" points="932.858,-327.016 930.352,-337.31 938.731,-330.825 932.858,-327.016"/>
</g>
<!-- Nsp3 (&#45;) -->
<g id="node6" class="node"><title>Nsp3 (&#45;)</title>
<ellipse fill="none" stroke="black" cx="461.562" cy="-249.13" rx="18" ry="18"/>
<text text-anchor="middle" x="461.562" y="-247.93" font-family="Times,serif" font-size="4.00">Nsp3 (&#45;)</text>
</g>
<!-- Nsp3 (+) -->
<g id="node24" class="node"><title>Nsp3 (+)</title>
<ellipse fill="none" stroke="black" cx="461.562" cy="-351.422" rx="18.0625" ry="18.0625"/>
<text text-anchor="middle" x="461.562" y="-350.222" font-family="Times,serif" font-size="4.00">Nsp3 (+)</text>
</g>
<!-- Nsp3 (&#45;)&#45;&gt;Nsp3 (+) -->
<g id="edge10" class="edge"><title>Nsp3 (&#45;)&#45;&gt;Nsp3 (+)</title>
<path fill="none" stroke="black" d="M466.731,-266.716C468.493,-282.258 468.782,-305.75 467.596,-323.895"/>
<polygon fill="black" stroke="black" points="464.109,-323.594 466.728,-333.86 471.083,-324.202 464.109,-323.594"/>
</g>
<!-- Selinexor -->
<g id="node7" class="node"><title>Selinexor</title>
<ellipse fill="none" stroke="black" cx="406.562" cy="-249.13" rx="18.6233" ry="18.6233"/>
<text text-anchor="middle" x="406.562" y="-247.93" font-family="Times,serif" font-size="4.00">Selinexor</text>
</g>
<!-- NUP210_Selinexor -->
<g id="node27" class="node"><title>NUP210_Selinexor</title>
<ellipse fill="none" stroke="black" cx="364.562" cy="-148.43" rx="27.6545" ry="27.6545"/>
<text text-anchor="middle" x="364.562" y="-147.23" font-family="Times,serif" font-size="4.00">NUP210_Selinexor</text>
</g>
<!-- Selinexor&#45;&gt;NUP210_Selinexor -->
<g id="edge11" class="edge"><title>Selinexor&#45;&gt;NUP210_Selinexor</title>
<path fill="none" stroke="black" d="M399.626,-231.832C394.056,-218.742 386.042,-199.909 379.081,-183.552"/>
<polygon fill="black" stroke="black" points="382.267,-182.1 375.131,-174.269 375.826,-184.841 382.267,-182.1"/>
</g>
<!-- Orf9c -->
<g id="node8" class="node"><title>Orf9c</title>
<ellipse fill="none" stroke="black" cx="576.562" cy="-249.13" rx="18" ry="18"/>
<text text-anchor="middle" x="576.562" y="-247.93" font-family="Times,serif" font-size="4.00">Orf9c</text>
</g>
<!-- SLC6A15_Orf9c -->
<g id="node28" class="node"><title>SLC6A15_Orf9c</title>
<ellipse fill="none" stroke="black" cx="576.562" cy="-148.43" rx="24.8513" ry="24.8512"/>
<text text-anchor="middle" x="576.562" y="-147.23" font-family="Times,serif" font-size="4.00">SLC6A15_Orf9c</text>
</g>
<!-- Orf9c&#45;&gt;SLC6A15_Orf9c -->
<g id="edge12" class="edge"><title>Orf9c&#45;&gt;SLC6A15_Orf9c</title>
<path fill="none" stroke="black" d="M576.562,-230.938C576.562,-217.89 576.562,-199.529 576.562,-183.536"/>
<polygon fill="black" stroke="black" points="580.062,-183.449 576.562,-173.449 573.062,-183.449 580.062,-183.449"/>
</g>
<!-- ATP6AP1 -->
<g id="node9" class="node"><title>ATP6AP1</title>
<ellipse fill="none" stroke="black" cx="1364.56" cy="-351.422" rx="18.0625" ry="18.0625"/>
<text text-anchor="middle" x="1364.56" y="-350.222" font-family="Times,serif" font-size="4.00">ATP6AP1</text>
</g>
<!-- V&#45;ATPase -->
<g id="node43" class="node"><title>V&#45;ATPase</title>
<ellipse fill="none" stroke="black" cx="1375.56" cy="-249.13" rx="18.6233" ry="18.6233"/>
<text text-anchor="middle" x="1375.56" y="-247.93" font-family="Times,serif" font-size="4.00">V&#45;ATPase</text>
</g>
<!-- ATP6AP1&#45;&gt;V&#45;ATPase -->
<g id="edge14" class="edge"><title>ATP6AP1&#45;&gt;V&#45;ATPase</title>
<path fill="none" stroke="black" d="M1366.43,-333.408C1368.09,-318.25 1370.55,-295.78 1372.5,-278"/>
<polygon fill="black" stroke="black" points="1376,-278.225 1373.61,-267.903 1369.04,-277.462 1376,-278.225"/>
</g>
<!-- ATP6AP1&#45;&gt;ATP6AP1_Bafilomycin A1 -->
<g id="edge13" class="edge"><title>ATP6AP1&#45;&gt;ATP6AP1_Bafilomycin A1</title>
<path fill="none" stroke="black" d="M1355.56,-335.623C1348.01,-323.21 1336.88,-304.918 1326.86,-288.436"/>
<polygon fill="black" stroke="black" points="1329.62,-286.239 1321.43,-279.514 1323.64,-289.876 1329.62,-286.239"/>
</g>
<!-- TOM complex -->
<g id="node10" class="node"><title>TOM complex</title>
<ellipse fill="none" stroke="black" cx="181.562" cy="-351.422" rx="23.1702" ry="23.1702"/>
<text text-anchor="middle" x="181.562" y="-350.222" font-family="Times,serif" font-size="4.00">TOM complex</text>
</g>
<!-- TOM complex&#45;&gt;Nsp4 -->
<g id="edge15" class="edge"><title>TOM complex&#45;&gt;Nsp4</title>
<path fill="none" stroke="black" d="M181.562,-327.664C181.562,-312.732 181.562,-293.125 181.562,-277.365"/>
<polygon fill="black" stroke="black" points="185.062,-277.173 181.562,-267.173 178.062,-277.173 185.062,-277.173"/>
</g>
<!-- F1 -->
<g id="node11" class="node"><title>F1</title>
<ellipse fill="none" stroke="black" cx="972.562" cy="-351.422" rx="18" ry="18"/>
<text text-anchor="middle" x="972.562" y="-350.222" font-family="Times,serif" font-size="4.00">F1</text>
</g>
<!-- F&#45;ATPase -->
<g id="node25" class="node"><title>F&#45;ATPase</title>
<ellipse fill="none" stroke="black" cx="1027.56" cy="-249.13" rx="18.6233" ry="18.6233"/>
<text text-anchor="middle" x="1027.56" y="-247.93" font-family="Times,serif" font-size="4.00">F&#45;ATPase</text>
</g>
<!-- F1&#45;&gt;F&#45;ATPase -->
<g id="edge16" class="edge"><title>F1&#45;&gt;F&#45;ATPase</title>
<path fill="none" stroke="black" d="M980.915,-335.189C989.707,-319.157 1003.68,-293.673 1014.05,-274.775"/>
<polygon fill="black" stroke="black" points="1017.21,-276.288 1018.95,-265.837 1011.07,-272.922 1017.21,-276.288"/>
</g>
<!-- P1 -->
<g id="node12" class="node"><title>P1</title>
<ellipse fill="none" stroke="black" cx="1188.56" cy="-351.422" rx="18" ry="18"/>
<text text-anchor="middle" x="1188.56" y="-350.222" font-family="Times,serif" font-size="4.00">P1</text>
</g>
<!-- P&#45;ATPase -->
<g id="node23" class="node"><title>P&#45;ATPase</title>
<ellipse fill="none" stroke="black" cx="1161.56" cy="-249.13" rx="18.6233" ry="18.6233"/>
<text text-anchor="middle" x="1161.56" y="-247.93" font-family="Times,serif" font-size="4.00">P&#45;ATPase</text>
</g>
<!-- P1&#45;&gt;P&#45;ATPase -->
<g id="edge17" class="edge"><title>P1&#45;&gt;P&#45;ATPase</title>
<path fill="none" stroke="black" d="M1184.1,-333.86C1179.95,-318.441 1173.69,-295.181 1168.82,-277.087"/>
<polygon fill="black" stroke="black" points="1172.19,-276.135 1166.21,-267.389 1165.43,-277.955 1172.19,-276.135"/>
</g>
<!-- P0 -->
<g id="node13" class="node"><title>P0</title>
<ellipse fill="none" stroke="black" cx="1242.56" cy="-351.422" rx="18" ry="18"/>
<text text-anchor="middle" x="1242.56" y="-350.222" font-family="Times,serif" font-size="4.00">P0</text>
</g>
<!-- P0&#45;&gt;P&#45;ATPase -->
<g id="edge18" class="edge"><title>P0&#45;&gt;P&#45;ATPase</title>
<path fill="none" stroke="black" d="M1231.64,-336.896C1218.19,-320.241 1195.16,-291.735 1179.2,-271.964"/>
<polygon fill="black" stroke="black" points="1181.84,-269.666 1172.83,-264.085 1176.39,-274.064 1181.84,-269.666"/>
</g>
<!-- NUP210 -->
<g id="node14" class="node"><title>NUP210</title>
<ellipse fill="none" stroke="black" cx="351.562" cy="-249.13" rx="18" ry="18"/>
<text text-anchor="middle" x="351.562" y="-247.93" font-family="Times,serif" font-size="4.00">NUP210</text>
</g>
<!-- NUP210&#45;&gt;NUP210_Selinexor -->
<g id="edge20" class="edge"><title>NUP210&#45;&gt;NUP210_Selinexor</title>
<path fill="none" stroke="black" d="M353.826,-230.938C355.445,-218.642 357.686,-201.629 359.702,-186.325"/>
<polygon fill="black" stroke="black" points="363.215,-186.454 361.051,-176.083 356.275,-185.54 363.215,-186.454"/>
</g>
<!-- NUP210&#45;&gt;Nsp4_NUP210 -->
<g id="edge19" class="edge"><title>NUP210&#45;&gt;Nsp4_NUP210</title>
<path fill="none" stroke="black" d="M343.056,-233.14C334.771,-218.536 321.964,-195.964 311.736,-177.937"/>
<polygon fill="black" stroke="black" points="314.639,-175.961 306.66,-168.991 308.551,-179.416 314.639,-175.961"/>
</g>
<!-- Nsp3 -->
<g id="node15" class="node"><title>Nsp3</title>
<ellipse fill="none" stroke="black" cx="515.562" cy="-249.13" rx="18" ry="18"/>
<text text-anchor="middle" x="515.562" y="-247.93" font-family="Times,serif" font-size="4.00">Nsp3</text>
</g>
<!-- Nsp3&#45;&gt;Nsp3_Nsp4_Nsp6 -->
<g id="edge21" class="edge"><title>Nsp3&#45;&gt;Nsp3_Nsp4_Nsp6</title>
<path fill="none" stroke="black" d="M514.168,-230.938C513.15,-218.373 511.732,-200.882 510.471,-185.323"/>
<polygon fill="black" stroke="black" points="513.926,-184.629 509.63,-174.944 506.949,-185.194 513.926,-184.629"/>
</g>
<!-- SIGMAR1 -->
<g id="node16" class="node"><title>SIGMAR1</title>
<ellipse fill="none" stroke="black" cx="863.562" cy="-249.13" rx="18.6233" ry="18.6233"/>
<text text-anchor="middle" x="863.562" y="-247.93" font-family="Times,serif" font-size="4.00">SIGMAR1</text>
</g>
<!-- Nsp6_SIGMAR1 -->
<g id="node36" class="node"><title>Nsp6_SIGMAR1</title>
<ellipse fill="none" stroke="black" cx="919.562" cy="-148.43" rx="24.8513" ry="24.8512"/>
<text text-anchor="middle" x="919.562" y="-147.23" font-family="Times,serif" font-size="4.00">Nsp6_SIGMAR1</text>
</g>
<!-- SIGMAR1&#45;&gt;Nsp6_SIGMAR1 -->
<g id="edge23" class="edge"><title>SIGMAR1&#45;&gt;Nsp6_SIGMAR1</title>
<path fill="none" stroke="black" d="M872.312,-232.708C880.38,-218.488 892.581,-196.983 902.564,-179.389"/>
<polygon fill="black" stroke="black" points="905.657,-181.028 907.548,-170.604 899.569,-177.574 905.657,-181.028"/>
</g>
<!-- SIGMAR1_Drugs -->
<g id="node50" class="node"><title>SIGMAR1_Drugs</title>
<ellipse fill="none" stroke="black" cx="850.562" cy="-148.43" rx="25.9724" ry="25.9724"/>
<text text-anchor="middle" x="850.562" y="-147.23" font-family="Times,serif" font-size="4.00">SIGMAR1_Drugs</text>
</g>
<!-- SIGMAR1&#45;&gt;SIGMAR1_Drugs -->
<g id="edge22" class="edge"><title>SIGMAR1&#45;&gt;SIGMAR1_Drugs</title>
<path fill="none" stroke="black" d="M861.237,-230.485C859.564,-217.78 857.25,-200.214 855.205,-184.682"/>
<polygon fill="black" stroke="black" points="858.618,-183.796 853.842,-174.338 851.678,-184.71 858.618,-183.796"/>
</g>
<!-- Nsp6 (+)&#45;&gt;Nsp6 (&#45;) -->
<g id="edge24" class="edge"><title>Nsp6 (+)&#45;&gt;Nsp6 (&#45;)</title>
<path fill="none" stroke="black" d="M922.505,-333.408C929.785,-316.389 943.764,-290.152 955.295,-271.684"/>
<polygon fill="black" stroke="black" points="958.377,-273.365 960.886,-263.071 952.506,-269.554 958.377,-273.365"/>
</g>
<!-- Nsp6 -->
<g id="node32" class="node"><title>Nsp6</title>
<ellipse fill="none" stroke="black" cx="918.562" cy="-249.13" rx="18" ry="18"/>
<text text-anchor="middle" x="918.562" y="-247.93" font-family="Times,serif" font-size="4.00">Nsp6</text>
</g>
<!-- Nsp6 (+)&#45;&gt;Nsp6 -->
<g id="edge25" class="edge"><title>Nsp6 (+)&#45;&gt;Nsp6</title>
<path fill="none" stroke="black" d="M918.562,-332.952C918.562,-317.708 918.562,-295.328 918.562,-277.675"/>
<polygon fill="black" stroke="black" points="922.062,-277.399 918.562,-267.399 915.062,-277.399 922.062,-277.399"/>
</g>
<!-- F0 -->
<g id="node18" class="node"><title>F0</title>
<ellipse fill="none" stroke="black" cx="1026.56" cy="-351.422" rx="18" ry="18"/>
<text text-anchor="middle" x="1026.56" y="-350.222" font-family="Times,serif" font-size="4.00">F0</text>
</g>
<!-- F0&#45;&gt;F&#45;ATPase -->
<g id="edge26" class="edge"><title>F0&#45;&gt;F&#45;ATPase</title>
<path fill="none" stroke="black" d="M1026.73,-333.408C1026.88,-318.25 1027.11,-295.78 1027.28,-278"/>
<polygon fill="black" stroke="black" points="1030.78,-277.938 1027.38,-267.903 1023.78,-277.868 1030.78,-277.938"/>
</g>
<!-- SLC6A15_Nsp6 -->
<g id="node19" class="node"><title>SLC6A15_Nsp6</title>
<ellipse fill="none" stroke="black" cx="782.562" cy="-148.43" rx="24.2908" ry="24.2908"/>
<text text-anchor="middle" x="782.562" y="-147.23" font-family="Times,serif" font-size="4.00">SLC6A15_Nsp6</text>
</g>
<!-- ALG11 -->
<g id="node20" class="node"><title>ALG11</title>
<ellipse fill="none" stroke="black" cx="73.5616" cy="-249.13" rx="18" ry="18"/>
<text text-anchor="middle" x="73.5616" y="-247.93" font-family="Times,serif" font-size="4.00">ALG11</text>
</g>
<!-- ALG11&#45;&gt;Nsp4_ALG11 -->
<g id="edge27" class="edge"><title>ALG11&#45;&gt;Nsp4_ALG11</title>
<path fill="none" stroke="black" d="M77.9721,-231.387C81.6915,-217.268 87.1087,-196.703 91.5862,-179.706"/>
<polygon fill="black" stroke="black" points="95.0661,-180.235 94.229,-169.673 88.297,-178.452 95.0661,-180.235"/>
</g>
<!-- DNAJC11 -->
<g id="node21" class="node"><title>DNAJC11</title>
<ellipse fill="none" stroke="black" cx="18.5616" cy="-249.13" rx="18.6233" ry="18.6233"/>
<text text-anchor="middle" x="18.5616" y="-247.93" font-family="Times,serif" font-size="4.00">DNAJC11</text>
</g>
<!-- DNAJC11&#45;&gt;Nsp4_DNAJC11 -->
<g id="edge28" class="edge"><title>DNAJC11&#45;&gt;Nsp4_DNAJC11</title>
<path fill="none" stroke="black" d="M21.0645,-230.485C22.9226,-217.385 25.5138,-199.117 27.766,-183.239"/>
<polygon fill="black" stroke="black" points="31.2468,-183.621 29.1859,-173.228 24.3162,-182.638 31.2468,-183.621"/>
</g>
<!-- P&#45;ATPase_Nsp6 -->
<g id="node41" class="node"><title>P&#45;ATPase_Nsp6</title>
<ellipse fill="none" stroke="black" cx="1118.56" cy="-148.43" rx="24.8512" ry="24.8512"/>
<text text-anchor="middle" x="1118.56" y="-147.23" font-family="Times,serif" font-size="4.00">P&#45;ATPase_Nsp6</text>
</g>
<!-- P&#45;ATPase&#45;&gt;P&#45;ATPase_Nsp6 -->
<g id="edge29" class="edge"><title>P&#45;ATPase&#45;&gt;P&#45;ATPase_Nsp6</title>
<path fill="none" stroke="black" d="M1154.46,-231.832C1148.48,-218.101 1139.74,-198.052 1132.39,-181.168"/>
<polygon fill="black" stroke="black" points="1135.45,-179.435 1128.25,-171.665 1129.03,-182.231 1135.45,-179.435"/>
</g>
<!-- Nsp3 (+)&#45;&gt;Nsp3 (&#45;) -->
<g id="edge30" class="edge"><title>Nsp3 (+)&#45;&gt;Nsp3 (&#45;)</title>
<path fill="none" stroke="black" d="M456.395,-333.86C454.631,-318.327 454.341,-294.836 455.525,-276.685"/>
<polygon fill="black" stroke="black" points="459.012,-276.982 456.392,-266.716 452.039,-276.375 459.012,-276.982"/>
</g>
<!-- Nsp3 (+)&#45;&gt;Nsp3 -->
<g id="edge31" class="edge"><title>Nsp3 (+)&#45;&gt;Nsp3</title>
<path fill="none" stroke="black" d="M469.763,-335.189C478.446,-319.064 492.277,-293.375 502.47,-274.444"/>
<polygon fill="black" stroke="black" points="505.624,-275.97 507.283,-265.506 499.46,-272.651 505.624,-275.97"/>
</g>
<!-- F&#45;ATPase_Nsp6 -->
<g id="node34" class="node"><title>F&#45;ATPase_Nsp6</title>
<ellipse fill="none" stroke="black" cx="1007.56" cy="-148.43" rx="24.8512" ry="24.8512"/>
<text text-anchor="middle" x="1007.56" y="-147.23" font-family="Times,serif" font-size="4.00">F&#45;ATPase_Nsp6</text>
</g>
<!-- F&#45;ATPase&#45;&gt;F&#45;ATPase_Nsp6 -->
<g id="edge32" class="edge"><title>F&#45;ATPase&#45;&gt;F&#45;ATPase_Nsp6</title>
<path fill="none" stroke="black" d="M1023.99,-230.485C1021.33,-217.385 1017.63,-199.117 1014.41,-183.239"/>
<polygon fill="black" stroke="black" points="1017.8,-182.334 1012.38,-173.228 1010.94,-183.724 1017.8,-182.334"/>
</g>
<!-- Several drugs -->
<g id="node29" class="node"><title>Several drugs</title>
<ellipse fill="none" stroke="black" cx="804.562" cy="-249.13" rx="22.6101" ry="22.6101"/>
<text text-anchor="middle" x="804.562" y="-247.93" font-family="Times,serif" font-size="4.00">Several drugs</text>
</g>
<!-- Several drugs&#45;&gt;SIGMAR1_Drugs -->
<g id="edge33" class="edge"><title>Several drugs&#45;&gt;SIGMAR1_Drugs</title>
<path fill="none" stroke="black" d="M813.87,-228.157C820.088,-214.816 828.405,-196.971 835.548,-181.644"/>
<polygon fill="black" stroke="black" points="838.763,-183.032 839.815,-172.489 832.418,-180.074 838.763,-183.032"/>
</g>
<!-- Nsp4 (+) -->
<g id="node31" class="node"><title>Nsp4 (+)</title>
<ellipse fill="none" stroke="black" cx="297.562" cy="-351.422" rx="18.0625" ry="18.0625"/>
<text text-anchor="middle" x="297.562" y="-350.222" font-family="Times,serif" font-size="4.00">Nsp4 (+)</text>
</g>
<!-- Nsp4 (+)&#45;&gt;Nsp4 -->
<g id="edge35" class="edge"><title>Nsp4 (+)&#45;&gt;Nsp4</title>
<path fill="none" stroke="black" d="M282.465,-340.935C263.979,-328.938 232.215,-307.065 208.562,-284.132 204.898,-280.58 201.285,-276.53 197.951,-272.493"/>
<polygon fill="black" stroke="black" points="200.508,-270.082 191.573,-264.388 195.007,-274.411 200.508,-270.082"/>
</g>
<!-- Nsp4 (&#45;) -->
<g id="node53" class="node"><title>Nsp4 (&#45;)</title>
<ellipse fill="none" stroke="black" cx="297.562" cy="-249.13" rx="18" ry="18"/>
<text text-anchor="middle" x="297.562" y="-247.93" font-family="Times,serif" font-size="4.00">Nsp4 (&#45;)</text>
</g>
<!-- Nsp4 (+)&#45;&gt;Nsp4 (&#45;) -->
<g id="edge34" class="edge"><title>Nsp4 (+)&#45;&gt;Nsp4 (&#45;)</title>
<path fill="none" stroke="black" d="M292.395,-333.86C290.631,-318.327 290.341,-294.836 291.525,-276.685"/>
<polygon fill="black" stroke="black" points="295.012,-276.982 292.392,-266.716 288.039,-276.375 295.012,-276.982"/>
</g>
<!-- Nsp6&#45;&gt;Nsp3_Nsp4_Nsp6 -->
<g id="edge38" class="edge"><title>Nsp6&#45;&gt;Nsp3_Nsp4_Nsp6</title>
<path fill="none" stroke="black" d="M910.283,-232.867C905.708,-225.96 899.362,-218.402 891.562,-214.128 754.809,-139.201 686.501,-238.103 542.562,-178.128 539.681,-176.928 536.851,-175.409 534.126,-173.7"/>
<polygon fill="black" stroke="black" points="536.008,-170.742 525.846,-167.747 531.922,-176.426 536.008,-170.742"/>
</g>
<!-- Nsp6&#45;&gt;SLC6A15_Nsp6 -->
<g id="edge41" class="edge"><title>Nsp6&#45;&gt;SLC6A15_Nsp6</title>
<path fill="none" stroke="black" d="M909.313,-233.624C904.595,-227.056 898.41,-219.565 891.562,-214.128 862.29,-190.889 846.844,-198.583 815.562,-178.128 812.829,-176.342 810.083,-174.346 807.406,-172.261"/>
<polygon fill="black" stroke="black" points="809.599,-169.533 799.661,-165.861 805.141,-174.929 809.599,-169.533"/>
</g>
<!-- Nsp6&#45;&gt;F&#45;ATPase_Nsp6 -->
<g id="edge36" class="edge"><title>Nsp6&#45;&gt;F&#45;ATPase_Nsp6</title>
<path fill="none" stroke="black" d="M929.052,-234.327C933.939,-228.053 939.911,-220.602 945.562,-214.128 957.478,-200.476 971.387,-185.852 983.007,-173.968"/>
<polygon fill="black" stroke="black" points="985.748,-176.174 990.269,-166.592 980.76,-171.263 985.748,-176.174"/>
</g>
<!-- Nsp6&#45;&gt;Nsp6_SIGMAR1 -->
<g id="edge37" class="edge"><title>Nsp6&#45;&gt;Nsp6_SIGMAR1</title>
<path fill="none" stroke="black" d="M918.736,-230.938C918.868,-217.89 919.054,-199.529 919.216,-183.536"/>
<polygon fill="black" stroke="black" points="922.717,-183.484 919.318,-173.449 915.717,-183.413 922.717,-183.484"/>
</g>
<!-- Nsp6&#45;&gt;P&#45;ATPase_Nsp6 -->
<g id="edge40" class="edge"><title>Nsp6&#45;&gt;P&#45;ATPase_Nsp6</title>
<path fill="none" stroke="black" d="M927.61,-233.36C932.283,-226.735 938.49,-219.271 945.562,-214.128 945.936,-213.856 1035.81,-180.303 1085.85,-161.631"/>
<polygon fill="black" stroke="black" points="1087.15,-164.884 1095.29,-158.109 1084.7,-158.326 1087.15,-164.884"/>
</g>
<!-- V&#45;ATPase_Nsp6 -->
<g id="node51" class="node"><title>V&#45;ATPase_Nsp6</title>
<ellipse fill="none" stroke="black" cx="1281.56" cy="-148.43" rx="24.8512" ry="24.8512"/>
<text text-anchor="middle" x="1281.56" y="-147.23" font-family="Times,serif" font-size="4.00">V&#45;ATPase_Nsp6</text>
</g>
<!-- Nsp6&#45;&gt;V&#45;ATPase_Nsp6 -->
<g id="edge39" class="edge"><title>Nsp6&#45;&gt;V&#45;ATPase_Nsp6</title>
<path fill="none" stroke="black" d="M926.973,-233.101C931.58,-226.249 937.914,-218.67 945.562,-214.128 1025.85,-166.444 1060.96,-196.273 1152.56,-178.128 1184.8,-171.742 1221.36,-163.516 1247.3,-157.509"/>
<polygon fill="black" stroke="black" points="1248.44,-160.839 1257.38,-155.164 1246.85,-154.021 1248.44,-160.839"/>
</g>
<!-- SLC6A15 -->
<g id="node33" class="node"><title>SLC6A15</title>
<ellipse fill="none" stroke="black" cx="689.562" cy="-249.13" rx="18.0625" ry="18.0625"/>
<text text-anchor="middle" x="689.562" y="-247.93" font-family="Times,serif" font-size="4.00">SLC6A15</text>
</g>
<!-- SLC6A15&#45;&gt;SLC6A15_Nsp6 -->
<g id="edge43" class="edge"><title>SLC6A15&#45;&gt;SLC6A15_Nsp6</title>
<path fill="none" stroke="black" d="M699.959,-234.245C704.827,-227.954 710.81,-220.513 716.562,-214.128 729.457,-199.813 744.776,-184.692 757.407,-172.672"/>
<polygon fill="black" stroke="black" points="760.007,-175.031 764.88,-165.623 755.204,-169.939 760.007,-175.031"/>
</g>
<!-- SLC6A15&#45;&gt;SLC6A15_Orf9c -->
<g id="edge42" class="edge"><title>SLC6A15&#45;&gt;SLC6A15_Orf9c</title>
<path fill="none" stroke="black" d="M679.645,-233.773C674.874,-227.387 668.834,-220.002 662.562,-214.128 642.045,-194.915 632.883,-195.213 610.562,-178.128 607.985,-176.157 605.339,-174.059 602.716,-171.931"/>
<polygon fill="black" stroke="black" points="604.939,-169.227 595.004,-165.546 600.475,-174.619 604.939,-169.227"/>
</g>
<!-- SLC6A15_Loratadine -->
<g id="node37" class="node"><title>SLC6A15_Loratadine</title>
<ellipse fill="none" stroke="black" cx="649.562" cy="-148.43" rx="29.8983" ry="29.8983"/>
<text text-anchor="middle" x="649.562" y="-147.23" font-family="Times,serif" font-size="4.00">SLC6A15_Loratadine</text>
</g>
<!-- SLC6A15&#45;&gt;SLC6A15_Loratadine -->
<g id="edge44" class="edge"><title>SLC6A15&#45;&gt;SLC6A15_Loratadine</title>
<path fill="none" stroke="black" d="M683.135,-232.272C678.087,-219.817 670.856,-201.973 664.396,-186.034"/>
<polygon fill="black" stroke="black" points="667.5,-184.374 660.5,-176.421 661.012,-187.003 667.5,-184.374"/>
</g>
<!-- SLC6A15_M -->
<g id="node38" class="node"><title>SLC6A15_M</title>
<ellipse fill="none" stroke="black" cx="718.562" cy="-148.43" rx="21.4286" ry="21.4286"/>
<text text-anchor="middle" x="718.562" y="-147.23" font-family="Times,serif" font-size="4.00">SLC6A15_M</text>
</g>
<!-- SLC6A15&#45;&gt;SLC6A15_M -->
<g id="edge45" class="edge"><title>SLC6A15&#45;&gt;SLC6A15_M</title>
<path fill="none" stroke="black" d="M694.481,-231.387C698.683,-217.086 704.828,-196.171 709.859,-179.05"/>
<polygon fill="black" stroke="black" points="713.359,-179.553 712.82,-168.972 706.642,-177.58 713.359,-179.553"/>
</g>
<!-- IDE -->
<g id="node35" class="node"><title>IDE</title>
<ellipse fill="none" stroke="black" cx="127.562" cy="-249.13" rx="18" ry="18"/>
<text text-anchor="middle" x="127.562" y="-247.93" font-family="Times,serif" font-size="4.00">IDE</text>
</g>
<!-- IDE&#45;&gt;Nsp4_IDE -->
<g id="edge46" class="edge"><title>IDE&#45;&gt;Nsp4_IDE</title>
<path fill="none" stroke="black" d="M132.846,-231.832C137.713,-216.819 145.029,-194.254 150.775,-176.531"/>
<polygon fill="black" stroke="black" points="154.192,-177.341 153.946,-166.749 147.533,-175.182 154.192,-177.341"/>
</g>
<!-- V&#45;type proton ATPase -->
<g id="node39" class="node"><title>V&#45;type proton ATPase</title>
<ellipse fill="none" stroke="black" cx="1431.56" cy="-351.422" rx="31.0804" ry="31.0804"/>
<text text-anchor="middle" x="1431.56" y="-350.222" font-family="Times,serif" font-size="4.00">V&#45;type proton ATPase</text>
</g>
<!-- V&#45;type proton ATPase&#45;&gt;V&#45;ATPase -->
<g id="edge48" class="edge"><title>V&#45;type proton ATPase&#45;&gt;V&#45;ATPase</title>
<path fill="none" stroke="black" d="M1416.7,-323.809C1408.2,-308.576 1397.6,-289.595 1389.29,-274.715"/>
<polygon fill="black" stroke="black" points="1392.14,-272.633 1384.2,-265.608 1386.02,-276.046 1392.14,-272.633"/>
</g>
<!-- H+ -->
<g id="node44" class="node"><title>H+</title>
<ellipse fill="none" stroke="black" cx="1431.56" cy="-249.13" rx="18" ry="18"/>
<text text-anchor="middle" x="1431.56" y="-247.93" font-family="Times,serif" font-size="4.00">H+</text>
</g>
<!-- V&#45;type proton ATPase&#45;&gt;H+ -->
<g id="edge47" class="edge"><title>V&#45;type proton ATPase&#45;&gt;H+</title>
<path fill="none" stroke="black" d="M1431.56,-320.059C1431.56,-306.546 1431.56,-290.751 1431.56,-277.595"/>
<polygon fill="black" stroke="black" points="1435.06,-277.273 1431.56,-267.273 1428.06,-277.273 1435.06,-277.273"/>
</g>
<!-- Loratadine -->
<g id="node40" class="node"><title>Loratadine</title>
<ellipse fill="none" stroke="black" cx="633.562" cy="-249.13" rx="19.7452" ry="19.7452"/>
<text text-anchor="middle" x="633.562" y="-247.93" font-family="Times,serif" font-size="4.00">Loratadine</text>
</g>
<!-- Loratadine&#45;&gt;SLC6A15_Loratadine -->
<g id="edge49" class="edge"><title>Loratadine&#45;&gt;SLC6A15_Loratadine</title>
<path fill="none" stroke="black" d="M636.571,-229.565C638.465,-217.882 640.98,-202.366 643.293,-188.101"/>
<polygon fill="black" stroke="black" points="646.784,-188.438 644.929,-178.007 639.874,-187.318 646.784,-188.438"/>
</g>
<!-- M -->
<g id="node42" class="node"><title>M</title>
<ellipse fill="none" stroke="black" cx="743.562" cy="-249.13" rx="18" ry="18"/>
<text text-anchor="middle" x="743.562" y="-247.93" font-family="Times,serif" font-size="4.00">M</text>
</g>
<!-- M&#45;&gt;SLC6A15_M -->
<g id="edge50" class="edge"><title>M&#45;&gt;SLC6A15_M</title>
<path fill="none" stroke="black" d="M739.321,-231.387C735.721,-217.177 730.468,-196.437 726.147,-179.377"/>
<polygon fill="black" stroke="black" points="729.448,-178.156 723.6,-169.322 722.663,-179.875 729.448,-178.156"/>
</g>
<!-- V&#45;ATPase&#45;&gt;V&#45;ATPase_Nsp6 -->
<g id="edge51" class="edge"><title>V&#45;ATPase&#45;&gt;V&#45;ATPase_Nsp6</title>
<path fill="none" stroke="black" d="M1364.44,-233.95C1359.43,-227.738 1353.35,-220.441 1347.56,-214.128 1334.63,-200.026 1319.42,-185.023 1306.87,-173.019"/>
<polygon fill="black" stroke="black" points="1309.1,-170.312 1299.44,-165.967 1304.28,-175.389 1309.1,-170.312"/>
</g>
<!-- ATP5MG -->
<g id="node45" class="node"><title>ATP5MG</title>
<ellipse fill="none" stroke="black" cx="1080.56" cy="-351.422" rx="18" ry="18"/>
<text text-anchor="middle" x="1080.56" y="-350.222" font-family="Times,serif" font-size="4.00">ATP5MG</text>
</g>
<!-- ATP5MG&#45;&gt;F&#45;ATPase -->
<g id="edge52" class="edge"><title>ATP5MG&#45;&gt;F&#45;ATPase</title>
<path fill="none" stroke="black" d="M1072.51,-335.189C1064.04,-319.157 1050.57,-293.673 1040.59,-274.775"/>
<polygon fill="black" stroke="black" points="1043.63,-273.043 1035.86,-265.837 1037.44,-276.314 1043.63,-273.043"/>
</g>
<!-- ATP13A3 -->
<g id="node49" class="node"><title>ATP13A3</title>
<ellipse fill="none" stroke="black" cx="1134.56" cy="-351.422" rx="18.0625" ry="18.0625"/>
<text text-anchor="middle" x="1134.56" y="-350.222" font-family="Times,serif" font-size="4.00">ATP13A3</text>
</g>
<!-- ATP13A3&#45;&gt;P&#45;ATPase -->
<g id="edge53" class="edge"><title>ATP13A3&#45;&gt;P&#45;ATPase</title>
<path fill="none" stroke="black" d="M1139.02,-333.86C1143.17,-318.441 1149.43,-295.181 1154.3,-277.087"/>
<polygon fill="black" stroke="black" points="1157.7,-277.955 1156.92,-267.389 1150.94,-276.135 1157.7,-277.955"/>
</g>
<!-- TIM complex -->
<g id="node52" class="node"><title>TIM complex</title>
<ellipse fill="none" stroke="black" cx="239.562" cy="-249.13" rx="22.05" ry="22.05"/>
<text text-anchor="middle" x="239.562" y="-247.93" font-family="Times,serif" font-size="4.00">TIM complex</text>
</g>
<!-- TIM complex&#45;&gt;TIM complex_Nsp4 -->
<g id="edge54" class="edge"><title>TIM complex&#45;&gt;TIM complex_Nsp4</title>
<path fill="none" stroke="black" d="M236.524,-226.714C234.87,-215.057 232.777,-200.301 230.864,-186.813"/>
<polygon fill="black" stroke="black" points="234.316,-186.228 229.447,-176.819 227.386,-187.212 234.316,-186.228"/>
</g>
<!-- Nsp4 (&#45;)&#45;&gt;Nsp4 (+) -->
<g id="edge55" class="edge"><title>Nsp4 (&#45;)&#45;&gt;Nsp4 (+)</title>
<path fill="none" stroke="black" d="M302.731,-266.716C304.493,-282.258 304.782,-305.75 303.596,-323.895"/>
<polygon fill="black" stroke="black" points="300.109,-323.594 302.728,-333.86 307.083,-324.202 300.109,-323.594"/>
</g>
</g>
</svg>
