<?xml version="1.0" encoding="UTF-8" standalone="no"?>
<!DOCTYPE svg PUBLIC "-//W3C//DTD SVG 1.1//EN"
 "http://www.w3.org/Graphics/SVG/1.1/DTD/svg11.dtd">
<!-- Generated by graphviz version 2.38.0 (20140413.2041)
 -->
<!-- Title: G Pages: 1 -->
<svg width="1358pt" height="391pt"
 viewBox="0.00 0.00 1358.26 390.71" xmlns="http://www.w3.org/2000/svg" xmlns:xlink="http://www.w3.org/1999/xlink">
<g id="graph0" class="graph" transform="scale(1 1) rotate(0) translate(4 386.711)">
<title>G</title>
<polygon fill="white" stroke="none" points="-4,4 -4,-386.711 1354.26,-386.711 1354.26,4 -4,4"/>
<!-- Nsp3_Nsp4_Nsp6 -->
<g id="node1" class="node"><title>Nsp3_Nsp4_Nsp6</title>
<ellipse fill="none" stroke="black" cx="839.562" cy="-148.43" rx="26.533" ry="26.533"/>
<text text-anchor="middle" x="839.562" y="-147.23" font-family="Times,serif" font-size="4.00">Nsp3_Nsp4_Nsp6</text>
</g>
<!-- Plasma membrane organization -->
<g id="node2" class="node"><title>Plasma membrane organization</title>
<ellipse fill="none" stroke="black" cx="839.562" cy="-41.3657" rx="41.2319" ry="41.2319"/>
<text text-anchor="middle" x="839.562" y="-40.1657" font-family="Times,serif" font-size="4.00">Plasma membrane organization</text>
</g>
<!-- Nsp3_Nsp4_Nsp6&#45;&gt;Plasma membrane organization -->
<g id="edge1" class="edge"><title>Nsp3_Nsp4_Nsp6&#45;&gt;Plasma membrane organization</title>
<path fill="none" stroke="black" d="M839.562,-121.728C839.562,-113.071 839.562,-103.086 839.562,-93.1815"/>
<polygon fill="black" stroke="black" points="843.062,-92.9487 839.562,-82.9487 836.062,-92.9488 843.062,-92.9487"/>
</g>
<!-- Orf9c -->
<g id="node3" class="node"><title>Orf9c</title>
<ellipse fill="none" stroke="black" cx="1160.56" cy="-249.13" rx="18" ry="18"/>
<text text-anchor="middle" x="1160.56" y="-247.93" font-family="Times,serif" font-size="4.00">Orf9c</text>
</g>
<!-- SLC6A15_Orf9c -->
<g id="node11" class="node"><title>SLC6A15_Orf9c</title>
<ellipse fill="none" stroke="black" cx="1164.56" cy="-148.43" rx="24.8512" ry="24.8512"/>
<text text-anchor="middle" x="1164.56" y="-147.23" font-family="Times,serif" font-size="4.00">SLC6A15_Orf9c</text>
</g>
<!-- Orf9c&#45;&gt;SLC6A15_Orf9c -->
<g id="edge2" class="edge"><title>Orf9c&#45;&gt;SLC6A15_Orf9c</title>
<path fill="none" stroke="black" d="M1161.26,-230.938C1161.79,-217.89 1162.53,-199.529 1163.18,-183.536"/>
<polygon fill="black" stroke="black" points="1166.68,-183.582 1163.59,-173.449 1159.69,-183.299 1166.68,-183.582"/>
</g>
<!-- ATP5MG -->
<g id="node4" class="node"><title>ATP5MG</title>
<ellipse fill="none" stroke="black" cx="717.562" cy="-351.422" rx="18" ry="18"/>
<text text-anchor="middle" x="717.562" y="-350.222" font-family="Times,serif" font-size="4.00">ATP5MG</text>
</g>
<!-- F&#45;ATPase -->
<g id="node38" class="node"><title>F&#45;ATPase</title>
<ellipse fill="none" stroke="black" cx="770.562" cy="-249.13" rx="18.6233" ry="18.6233"/>
<text text-anchor="middle" x="770.562" y="-247.93" font-family="Times,serif" font-size="4.00">F&#45;ATPase</text>
</g>
<!-- ATP5MG&#45;&gt;F&#45;ATPase -->
<g id="edge3" class="edge"><title>ATP5MG&#45;&gt;F&#45;ATPase</title>
<path fill="none" stroke="black" d="M725.611,-335.189C734.083,-319.157 747.551,-293.673 757.538,-274.775"/>
<polygon fill="black" stroke="black" points="760.683,-276.314 762.261,-265.837 754.494,-273.043 760.683,-276.314"/>
</g>
<!-- Nsp4 -->
<g id="node5" class="node"><title>Nsp4</title>
<ellipse fill="none" stroke="black" cx="181.562" cy="-249.13" rx="18" ry="18"/>
<text text-anchor="middle" x="181.562" y="-247.93" font-family="Times,serif" font-size="4.00">Nsp4</text>
</g>
<!-- Nsp4&#45;&gt;Nsp3_Nsp4_Nsp6 -->
<g id="edge5" class="edge"><title>Nsp4&#45;&gt;Nsp3_Nsp4_Nsp6</title>
<path fill="none" stroke="black" d="M189.763,-232.722C194.319,-225.781 200.672,-218.236 208.562,-214.128 326.253,-152.856 681.027,-226.55 804.562,-178.128 807.467,-176.989 810.314,-175.513 813.05,-173.831"/>
<polygon fill="black" stroke="black" points="815.233,-176.574 821.348,-167.922 811.172,-170.872 815.233,-176.574"/>
</g>
<!-- Nsp4_DNAJC11 -->
<g id="node19" class="node"><title>Nsp4_DNAJC11</title>
<ellipse fill="none" stroke="black" cx="38.5616" cy="-148.43" rx="24.8512" ry="24.8512"/>
<text text-anchor="middle" x="38.5616" y="-147.23" font-family="Times,serif" font-size="4.00">Nsp4_DNAJC11</text>
</g>
<!-- Nsp4&#45;&gt;Nsp4_DNAJC11 -->
<g id="edge8" class="edge"><title>Nsp4&#45;&gt;Nsp4_DNAJC11</title>
<path fill="none" stroke="black" d="M172.36,-233.563C167.653,-226.983 161.462,-219.498 154.562,-214.128 123.79,-190.184 107.843,-198.439 74.5616,-178.128 71.3719,-176.182 68.1467,-173.989 65.0052,-171.705"/>
<polygon fill="black" stroke="black" points="67.0354,-168.852 56.9672,-165.553 62.7805,-174.41 67.0354,-168.852"/>
</g>
<!-- Nsp4_IDE -->
<g id="node39" class="node"><title>Nsp4_IDE</title>
<ellipse fill="none" stroke="black" cx="102.562" cy="-148.43" rx="19.1842" ry="19.1842"/>
<text text-anchor="middle" x="102.562" y="-147.23" font-family="Times,serif" font-size="4.00">Nsp4_IDE</text>
</g>
<!-- Nsp4&#45;&gt;Nsp4_IDE -->
<g id="edge6" class="edge"><title>Nsp4&#45;&gt;Nsp4_IDE</title>
<path fill="none" stroke="black" d="M170.806,-234.548C165.866,-228.319 159.925,-220.842 154.562,-214.128 143.307,-200.041 130.632,-184.268 120.613,-171.823"/>
<polygon fill="black" stroke="black" points="123.15,-169.393 114.152,-163.801 117.698,-173.784 123.15,-169.393"/>
</g>
<!-- Nsp4_ALG11 -->
<g id="node45" class="node"><title>Nsp4_ALG11</title>
<ellipse fill="none" stroke="black" cx="162.562" cy="-148.43" rx="21.9898" ry="21.9898"/>
<text text-anchor="middle" x="162.562" y="-147.23" font-family="Times,serif" font-size="4.00">Nsp4_ALG11</text>
</g>
<!-- Nsp4&#45;&gt;Nsp4_ALG11 -->
<g id="edge7" class="edge"><title>Nsp4&#45;&gt;Nsp4_ALG11</title>
<path fill="none" stroke="black" d="M178.338,-231.387C175.638,-217.359 171.713,-196.968 168.453,-180.035"/>
<polygon fill="black" stroke="black" points="171.854,-179.185 166.527,-170.027 164.98,-180.508 171.854,-179.185"/>
</g>
<!-- Nsp4_NUP210 -->
<g id="node49" class="node"><title>Nsp4_NUP210</title>
<ellipse fill="none" stroke="black" cx="301.562" cy="-148.43" rx="23.1702" ry="23.1702"/>
<text text-anchor="middle" x="301.562" y="-147.23" font-family="Times,serif" font-size="4.00">Nsp4_NUP210</text>
</g>
<!-- Nsp4&#45;&gt;Nsp4_NUP210 -->
<g id="edge4" class="edge"><title>Nsp4&#45;&gt;Nsp4_NUP210</title>
<path fill="none" stroke="black" d="M191.286,-233.56C196.018,-227.131 202.081,-219.771 208.562,-214.128 232.303,-193.456 244.164,-196.729 269.562,-178.128 272.211,-176.188 274.894,-174.068 277.523,-171.885"/>
<polygon fill="black" stroke="black" points="279.887,-174.468 285.151,-165.273 275.302,-169.178 279.887,-174.468"/>
</g>
<!-- TIM complex_Nsp4 -->
<g id="node50" class="node"><title>TIM complex_Nsp4</title>
<ellipse fill="none" stroke="black" cx="231.562" cy="-148.43" rx="28.7763" ry="28.7763"/>
<text text-anchor="middle" x="231.562" y="-147.23" font-family="Times,serif" font-size="4.00">TIM complex_Nsp4</text>
</g>
<!-- Nsp4&#45;&gt;TIM complex_Nsp4 -->
<g id="edge9" class="edge"><title>Nsp4&#45;&gt;TIM complex_Nsp4</title>
<path fill="none" stroke="black" d="M189.374,-232.708C196.048,-219.533 205.89,-200.106 214.389,-183.328"/>
<polygon fill="black" stroke="black" points="217.548,-184.839 218.944,-174.336 211.303,-181.675 217.548,-184.839"/>
</g>
<!-- TIM complex -->
<g id="node6" class="node"><title>TIM complex</title>
<ellipse fill="none" stroke="black" cx="293.562" cy="-249.13" rx="22.05" ry="22.05"/>
<text text-anchor="middle" x="293.562" y="-247.93" font-family="Times,serif" font-size="4.00">TIM complex</text>
</g>
<!-- TIM complex&#45;&gt;TIM complex_Nsp4 -->
<g id="edge10" class="edge"><title>TIM complex&#45;&gt;TIM complex_Nsp4</title>
<path fill="none" stroke="black" d="M281.9,-229.565C273.435,-216.09 261.767,-197.516 251.796,-181.643"/>
<polygon fill="black" stroke="black" points="254.746,-179.758 246.463,-173.152 248.818,-183.481 254.746,-179.758"/>
</g>
<!-- ATP6AP1 -->
<g id="node7" class="node"><title>ATP6AP1</title>
<ellipse fill="none" stroke="black" cx="583.562" cy="-351.422" rx="18.0625" ry="18.0625"/>
<text text-anchor="middle" x="583.562" y="-350.222" font-family="Times,serif" font-size="4.00">ATP6AP1</text>
</g>
<!-- V&#45;ATPase -->
<g id="node16" class="node"><title>V&#45;ATPase</title>
<ellipse fill="none" stroke="black" cx="639.562" cy="-249.13" rx="18.6233" ry="18.6233"/>
<text text-anchor="middle" x="639.562" y="-247.93" font-family="Times,serif" font-size="4.00">V&#45;ATPase</text>
</g>
<!-- ATP6AP1&#45;&gt;V&#45;ATPase -->
<g id="edge11" class="edge"><title>ATP6AP1&#45;&gt;V&#45;ATPase</title>
<path fill="none" stroke="black" d="M592.067,-335.189C601.019,-319.157 615.248,-293.673 625.801,-274.775"/>
<polygon fill="black" stroke="black" points="628.972,-276.274 630.791,-265.837 622.86,-272.862 628.972,-276.274"/>
</g>
<!-- ATP6AP1_Bafilomycin A1 -->
<g id="node23" class="node"><title>ATP6AP1_Bafilomycin A1</title>
<ellipse fill="none" stroke="black" cx="545.562" cy="-249.13" rx="35.0036" ry="35.0036"/>
<text text-anchor="middle" x="545.562" y="-247.93" font-family="Times,serif" font-size="4.00">ATP6AP1_Bafilomycin A1</text>
</g>
<!-- ATP6AP1&#45;&gt;ATP6AP1_Bafilomycin A1 -->
<g id="edge12" class="edge"><title>ATP6AP1&#45;&gt;ATP6AP1_Bafilomycin A1</title>
<path fill="none" stroke="black" d="M577.456,-334.308C573.085,-322.771 566.989,-306.683 561.297,-291.659"/>
<polygon fill="black" stroke="black" points="564.453,-290.11 557.636,-281.999 557.907,-292.59 564.453,-290.11"/>
</g>
<!-- P&#45;ATPase_Nsp6 -->
<g id="node8" class="node"><title>P&#45;ATPase_Nsp6</title>
<ellipse fill="none" stroke="black" cx="534.562" cy="-148.43" rx="24.8513" ry="24.8512"/>
<text text-anchor="middle" x="534.562" y="-147.23" font-family="Times,serif" font-size="4.00">P&#45;ATPase_Nsp6</text>
</g>
<!-- F1 -->
<g id="node9" class="node"><title>F1</title>
<ellipse fill="none" stroke="black" cx="771.562" cy="-351.422" rx="18" ry="18"/>
<text text-anchor="middle" x="771.562" y="-350.222" font-family="Times,serif" font-size="4.00">F1</text>
</g>
<!-- F1&#45;&gt;F&#45;ATPase -->
<g id="edge13" class="edge"><title>F1&#45;&gt;F&#45;ATPase</title>
<path fill="none" stroke="black" d="M771.392,-333.408C771.241,-318.25 771.017,-295.78 770.839,-278"/>
<polygon fill="black" stroke="black" points="774.338,-277.868 770.739,-267.903 767.339,-277.938 774.338,-277.868"/>
</g>
<!-- Nsp6 -->
<g id="node10" class="node"><title>Nsp6</title>
<ellipse fill="none" stroke="black" cx="825.562" cy="-249.13" rx="18" ry="18"/>
<text text-anchor="middle" x="825.562" y="-247.93" font-family="Times,serif" font-size="4.00">Nsp6</text>
</g>
<!-- Nsp6&#45;&gt;Nsp3_Nsp4_Nsp6 -->
<g id="edge19" class="edge"><title>Nsp6&#45;&gt;Nsp3_Nsp4_Nsp6</title>
<path fill="none" stroke="black" d="M828,-230.938C829.8,-218.252 832.311,-200.545 834.534,-184.874"/>
<polygon fill="black" stroke="black" points="838.003,-185.336 835.943,-174.944 831.073,-184.353 838.003,-185.336"/>
</g>
<!-- Nsp6&#45;&gt;P&#45;ATPase_Nsp6 -->
<g id="edge15" class="edge"><title>Nsp6&#45;&gt;P&#45;ATPase_Nsp6</title>
<path fill="none" stroke="black" d="M817.069,-233.234C812.443,-226.414 806.116,-218.823 798.562,-214.128 734.071,-174.055 705.129,-196.912 631.562,-178.128 610.313,-172.703 586.714,-165.742 568.113,-160.034"/>
<polygon fill="black" stroke="black" points="568.928,-156.623 558.34,-157.01 566.859,-163.31 568.928,-156.623"/>
</g>
<!-- V&#45;ATPase_Nsp6 -->
<g id="node17" class="node"><title>V&#45;ATPase_Nsp6</title>
<ellipse fill="none" stroke="black" cx="665.562" cy="-148.43" rx="24.8513" ry="24.8512"/>
<text text-anchor="middle" x="665.562" y="-147.23" font-family="Times,serif" font-size="4.00">V&#45;ATPase_Nsp6</text>
</g>
<!-- Nsp6&#45;&gt;V&#45;ATPase_Nsp6 -->
<g id="edge14" class="edge"><title>Nsp6&#45;&gt;V&#45;ATPase_Nsp6</title>
<path fill="none" stroke="black" d="M816.287,-233.655C811.564,-227.095 805.381,-219.601 798.562,-214.128 782.02,-200.855 731.446,-177.772 697.649,-163.066"/>
<polygon fill="black" stroke="black" points="698.747,-159.728 688.179,-158.974 695.97,-166.154 698.747,-159.728"/>
</g>
<!-- Nsp6_SIGMAR1 -->
<g id="node24" class="node"><title>Nsp6_SIGMAR1</title>
<ellipse fill="none" stroke="black" cx="918.562" cy="-148.43" rx="24.8513" ry="24.8512"/>
<text text-anchor="middle" x="918.562" y="-147.23" font-family="Times,serif" font-size="4.00">Nsp6_SIGMAR1</text>
</g>
<!-- Nsp6&#45;&gt;Nsp6_SIGMAR1 -->
<g id="edge16" class="edge"><title>Nsp6&#45;&gt;Nsp6_SIGMAR1</title>
<path fill="none" stroke="black" d="M835.959,-234.245C840.827,-227.954 846.81,-220.513 852.562,-214.128 865.368,-199.911 880.564,-184.901 893.146,-172.921"/>
<polygon fill="black" stroke="black" points="895.727,-175.297 900.597,-165.887 890.922,-170.207 895.727,-175.297"/>
</g>
<!-- F&#45;ATPase_Nsp6 -->
<g id="node30" class="node"><title>F&#45;ATPase_Nsp6</title>
<ellipse fill="none" stroke="black" cx="770.562" cy="-148.43" rx="24.8513" ry="24.8512"/>
<text text-anchor="middle" x="770.562" y="-147.23" font-family="Times,serif" font-size="4.00">F&#45;ATPase_Nsp6</text>
</g>
<!-- Nsp6&#45;&gt;F&#45;ATPase_Nsp6 -->
<g id="edge17" class="edge"><title>Nsp6&#45;&gt;F&#45;ATPase_Nsp6</title>
<path fill="none" stroke="black" d="M817.208,-233.14C809.326,-218.996 797.279,-197.376 787.402,-179.651"/>
<polygon fill="black" stroke="black" points="790.393,-177.829 782.468,-170.797 784.279,-181.236 790.393,-177.829"/>
</g>
<!-- SLC6A15_Nsp6 -->
<g id="node43" class="node"><title>SLC6A15_Nsp6</title>
<ellipse fill="none" stroke="black" cx="1009.56" cy="-148.43" rx="24.2908" ry="24.2908"/>
<text text-anchor="middle" x="1009.56" y="-147.23" font-family="Times,serif" font-size="4.00">SLC6A15_Nsp6</text>
</g>
<!-- Nsp6&#45;&gt;SLC6A15_Nsp6 -->
<g id="edge18" class="edge"><title>Nsp6&#45;&gt;SLC6A15_Nsp6</title>
<path fill="none" stroke="black" d="M834.581,-233.321C839.249,-226.687 845.458,-219.228 852.562,-214.128 890.935,-186.582 909.165,-196.784 952.562,-178.128 961.457,-174.305 970.921,-169.747 979.53,-165.403"/>
<polygon fill="black" stroke="black" points="981.168,-168.496 988.468,-160.816 977.973,-162.268 981.168,-168.496"/>
</g>
<!-- IDE -->
<g id="node12" class="node"><title>IDE</title>
<ellipse fill="none" stroke="black" cx="73.5616" cy="-249.13" rx="18" ry="18"/>
<text text-anchor="middle" x="73.5616" y="-247.93" font-family="Times,serif" font-size="4.00">IDE</text>
</g>
<!-- IDE&#45;&gt;Nsp4_IDE -->
<g id="edge20" class="edge"><title>IDE&#45;&gt;Nsp4_IDE</title>
<path fill="none" stroke="black" d="M78.481,-231.387C82.8848,-216.399 89.4227,-194.148 94.5753,-176.611"/>
<polygon fill="black" stroke="black" points="97.9613,-177.502 97.4223,-166.921 91.2452,-175.529 97.9613,-177.502"/>
</g>
<!-- SLC6A15 -->
<g id="node13" class="node"><title>SLC6A15</title>
<ellipse fill="none" stroke="black" cx="1214.56" cy="-249.13" rx="18.0625" ry="18.0625"/>
<text text-anchor="middle" x="1214.56" y="-247.93" font-family="Times,serif" font-size="4.00">SLC6A15</text>
</g>
<!-- SLC6A15&#45;&gt;SLC6A15_Orf9c -->
<g id="edge23" class="edge"><title>SLC6A15&#45;&gt;SLC6A15_Orf9c</title>
<path fill="none" stroke="black" d="M1206.75,-232.708C1199.66,-218.71 1188.99,-197.653 1180.16,-180.215"/>
<polygon fill="black" stroke="black" points="1183.11,-178.307 1175.47,-170.968 1176.87,-181.471 1183.11,-178.307"/>
</g>
<!-- SLC6A15_M -->
<g id="node31" class="node"><title>SLC6A15_M</title>
<ellipse fill="none" stroke="black" cx="1243.56" cy="-148.43" rx="21.4286" ry="21.4286"/>
<text text-anchor="middle" x="1243.56" y="-147.23" font-family="Times,serif" font-size="4.00">SLC6A15_M</text>
</g>
<!-- SLC6A15&#45;&gt;SLC6A15_M -->
<g id="edge21" class="edge"><title>SLC6A15&#45;&gt;SLC6A15_M</title>
<path fill="none" stroke="black" d="M1219.48,-231.387C1223.68,-217.086 1229.83,-196.171 1234.86,-179.05"/>
<polygon fill="black" stroke="black" points="1238.36,-179.553 1237.82,-168.972 1231.64,-177.58 1238.36,-179.553"/>
</g>
<!-- SLC6A15&#45;&gt;SLC6A15_Nsp6 -->
<g id="edge22" class="edge"><title>SLC6A15&#45;&gt;SLC6A15_Nsp6</title>
<path fill="none" stroke="black" d="M1205.72,-233.058C1201.09,-226.367 1194.87,-218.935 1187.56,-214.128 1136.41,-180.466 1110.58,-202.877 1054.56,-178.128 1048.91,-175.634 1043.16,-172.493 1037.73,-169.213"/>
<polygon fill="black" stroke="black" points="1039.31,-166.066 1028.99,-163.649 1035.55,-171.971 1039.31,-166.066"/>
</g>
<!-- SLC6A15_Loratadine -->
<g id="node48" class="node"><title>SLC6A15_Loratadine</title>
<ellipse fill="none" stroke="black" cx="1320.56" cy="-148.43" rx="29.8983" ry="29.8983"/>
<text text-anchor="middle" x="1320.56" y="-147.23" font-family="Times,serif" font-size="4.00">SLC6A15_Loratadine</text>
</g>
<!-- SLC6A15&#45;&gt;SLC6A15_Loratadine -->
<g id="edge24" class="edge"><title>SLC6A15&#45;&gt;SLC6A15_Loratadine</title>
<path fill="none" stroke="black" d="M1224.7,-234.002C1229.52,-227.663 1235.53,-220.25 1241.56,-214.128 1256.15,-199.316 1273.95,-184.497 1288.96,-172.786"/>
<polygon fill="black" stroke="black" points="1291.19,-175.491 1296.98,-166.619 1286.92,-169.944 1291.19,-175.491"/>
</g>
<!-- V&#45;type proton ATPase -->
<g id="node14" class="node"><title>V&#45;type proton ATPase</title>
<ellipse fill="none" stroke="black" cx="650.562" cy="-351.422" rx="31.0804" ry="31.0804"/>
<text text-anchor="middle" x="650.562" y="-350.222" font-family="Times,serif" font-size="4.00">V&#45;type proton ATPase</text>
</g>
<!-- V&#45;type proton ATPase&#45;&gt;V&#45;ATPase -->
<g id="edge26" class="edge"><title>V&#45;type proton ATPase&#45;&gt;V&#45;ATPase</title>
<path fill="none" stroke="black" d="M647.231,-320.059C645.769,-306.726 644.063,-291.172 642.632,-278.123"/>
<polygon fill="black" stroke="black" points="646.075,-277.413 641.506,-267.855 639.117,-278.177 646.075,-277.413"/>
</g>
<!-- H+ -->
<g id="node35" class="node"><title>H+</title>
<ellipse fill="none" stroke="black" cx="694.562" cy="-249.13" rx="18" ry="18"/>
<text text-anchor="middle" x="694.562" y="-247.93" font-family="Times,serif" font-size="4.00">H+</text>
</g>
<!-- V&#45;type proton ATPase&#45;&gt;H+ -->
<g id="edge25" class="edge"><title>V&#45;type proton ATPase&#45;&gt;H+</title>
<path fill="none" stroke="black" d="M662.818,-322.485C669.305,-307.698 677.209,-289.682 683.507,-275.327"/>
<polygon fill="black" stroke="black" points="686.761,-276.622 687.574,-266.058 680.351,-273.809 686.761,-276.622"/>
</g>
<!-- Bafilomycin A1 -->
<g id="node15" class="node"><title>Bafilomycin A1</title>
<ellipse fill="none" stroke="black" cx="522.562" cy="-351.422" rx="24.8513" ry="24.8512"/>
<text text-anchor="middle" x="522.562" y="-350.222" font-family="Times,serif" font-size="4.00">Bafilomycin A1</text>
</g>
<!-- Bafilomycin A1&#45;&gt;ATP6AP1_Bafilomycin A1 -->
<g id="edge27" class="edge"><title>Bafilomycin A1&#45;&gt;ATP6AP1_Bafilomycin A1</title>
<path fill="none" stroke="black" d="M527.954,-326.908C530.254,-316.877 533.014,-304.844 535.659,-293.312"/>
<polygon fill="black" stroke="black" points="539.115,-293.898 537.939,-283.369 532.292,-292.334 539.115,-293.898"/>
</g>
<!-- V&#45;ATPase&#45;&gt;V&#45;ATPase_Nsp6 -->
<g id="edge28" class="edge"><title>V&#45;ATPase&#45;&gt;V&#45;ATPase_Nsp6</title>
<path fill="none" stroke="black" d="M644.09,-230.938C647.609,-217.582 652.593,-198.661 656.874,-182.411"/>
<polygon fill="black" stroke="black" points="660.266,-183.273 659.429,-172.711 653.497,-181.49 660.266,-183.273"/>
</g>
<!-- Loratadine -->
<g id="node18" class="node"><title>Loratadine</title>
<ellipse fill="none" stroke="black" cx="1324.56" cy="-249.13" rx="19.7452" ry="19.7452"/>
<text text-anchor="middle" x="1324.56" y="-247.93" font-family="Times,serif" font-size="4.00">Loratadine</text>
</g>
<!-- Loratadine&#45;&gt;SLC6A15_Loratadine -->
<g id="edge29" class="edge"><title>Loratadine&#45;&gt;SLC6A15_Loratadine</title>
<path fill="none" stroke="black" d="M1323.79,-229.1C1323.32,-217.583 1322.71,-202.469 1322.15,-188.504"/>
<polygon fill="black" stroke="black" points="1325.63,-187.977 1321.72,-178.127 1318.63,-188.261 1325.63,-187.977"/>
</g>
<!-- M -->
<g id="node20" class="node"><title>M</title>
<ellipse fill="none" stroke="black" cx="1268.56" cy="-249.13" rx="18" ry="18"/>
<text text-anchor="middle" x="1268.56" y="-247.93" font-family="Times,serif" font-size="4.00">M</text>
</g>
<!-- M&#45;&gt;SLC6A15_M -->
<g id="edge30" class="edge"><title>M&#45;&gt;SLC6A15_M</title>
<path fill="none" stroke="black" d="M1264.32,-231.387C1260.72,-217.177 1255.47,-196.437 1251.15,-179.377"/>
<polygon fill="black" stroke="black" points="1254.45,-178.156 1248.6,-169.322 1247.66,-179.875 1254.45,-178.156"/>
</g>
<!-- Nsp3 -->
<g id="node21" class="node"><title>Nsp3</title>
<ellipse fill="none" stroke="black" cx="933.562" cy="-249.13" rx="18" ry="18"/>
<text text-anchor="middle" x="933.562" y="-247.93" font-family="Times,serif" font-size="4.00">Nsp3</text>
</g>
<!-- Nsp3&#45;&gt;Nsp3_Nsp4_Nsp6 -->
<g id="edge31" class="edge"><title>Nsp3&#45;&gt;Nsp3_Nsp4_Nsp6</title>
<path fill="none" stroke="black" d="M923.186,-234.225C918.323,-227.93 912.337,-220.492 906.562,-214.128 893.962,-200.246 879.033,-185.668 866.469,-173.872"/>
<polygon fill="black" stroke="black" points="868.699,-171.166 858.993,-166.918 863.931,-176.292 868.699,-171.166"/>
</g>
<!-- Nsp4 (&#45;) -->
<g id="node22" class="node"><title>Nsp4 (&#45;)</title>
<ellipse fill="none" stroke="black" cx="235.562" cy="-249.13" rx="18" ry="18"/>
<text text-anchor="middle" x="235.562" y="-247.93" font-family="Times,serif" font-size="4.00">Nsp4 (&#45;)</text>
</g>
<!-- Nsp4 (+) -->
<g id="node33" class="node"><title>Nsp4 (+)</title>
<ellipse fill="none" stroke="black" cx="235.562" cy="-351.422" rx="18.0625" ry="18.0625"/>
<text text-anchor="middle" x="235.562" y="-350.222" font-family="Times,serif" font-size="4.00">Nsp4 (+)</text>
</g>
<!-- Nsp4 (&#45;)&#45;&gt;Nsp4 (+) -->
<g id="edge32" class="edge"><title>Nsp4 (&#45;)&#45;&gt;Nsp4 (+)</title>
<path fill="none" stroke="black" d="M240.731,-266.716C242.493,-282.258 242.782,-305.75 241.596,-323.895"/>
<polygon fill="black" stroke="black" points="238.109,-323.594 240.728,-333.86 245.083,-324.202 238.109,-323.594"/>
</g>
<!-- NUP210 -->
<g id="node25" class="node"><title>NUP210</title>
<ellipse fill="none" stroke="black" cx="351.562" cy="-249.13" rx="18" ry="18"/>
<text text-anchor="middle" x="351.562" y="-247.93" font-family="Times,serif" font-size="4.00">NUP210</text>
</g>
<!-- NUP210_Selinexor -->
<g id="node28" class="node"><title>NUP210_Selinexor</title>
<ellipse fill="none" stroke="black" cx="370.562" cy="-148.43" rx="27.6545" ry="27.6545"/>
<text text-anchor="middle" x="370.562" y="-147.23" font-family="Times,serif" font-size="4.00">NUP210_Selinexor</text>
</g>
<!-- NUP210&#45;&gt;NUP210_Selinexor -->
<g id="edge33" class="edge"><title>NUP210&#45;&gt;NUP210_Selinexor</title>
<path fill="none" stroke="black" d="M354.785,-231.387C357.199,-218.845 360.593,-201.216 363.614,-185.52"/>
<polygon fill="black" stroke="black" points="367.078,-186.039 365.532,-175.558 360.205,-184.716 367.078,-186.039"/>
</g>
<!-- NUP210&#45;&gt;Nsp4_NUP210 -->
<g id="edge34" class="edge"><title>NUP210&#45;&gt;Nsp4_NUP210</title>
<path fill="none" stroke="black" d="M343.749,-232.708C336.472,-218.344 325.43,-196.547 316.468,-178.855"/>
<polygon fill="black" stroke="black" points="319.381,-176.861 311.74,-169.522 313.137,-180.025 319.381,-176.861"/>
</g>
<!-- Nsp3 (+) -->
<g id="node26" class="node"><title>Nsp3 (+)</title>
<ellipse fill="none" stroke="black" cx="987.562" cy="-351.422" rx="18.0625" ry="18.0625"/>
<text text-anchor="middle" x="987.562" y="-350.222" font-family="Times,serif" font-size="4.00">Nsp3 (+)</text>
</g>
<!-- Nsp3 (+)&#45;&gt;Nsp3 -->
<g id="edge35" class="edge"><title>Nsp3 (+)&#45;&gt;Nsp3</title>
<path fill="none" stroke="black" d="M979.36,-335.189C970.677,-319.064 956.846,-293.375 946.653,-274.444"/>
<polygon fill="black" stroke="black" points="949.663,-272.651 941.84,-265.506 943.499,-275.97 949.663,-272.651"/>
</g>
<!-- Nsp3 (&#45;) -->
<g id="node41" class="node"><title>Nsp3 (&#45;)</title>
<ellipse fill="none" stroke="black" cx="987.562" cy="-249.13" rx="18" ry="18"/>
<text text-anchor="middle" x="987.562" y="-247.93" font-family="Times,serif" font-size="4.00">Nsp3 (&#45;)</text>
</g>
<!-- Nsp3 (+)&#45;&gt;Nsp3 (&#45;) -->
<g id="edge36" class="edge"><title>Nsp3 (+)&#45;&gt;Nsp3 (&#45;)</title>
<path fill="none" stroke="black" d="M982.395,-333.86C980.631,-318.327 980.341,-294.836 981.525,-276.685"/>
<polygon fill="black" stroke="black" points="985.012,-276.982 982.392,-266.716 978.039,-276.375 985.012,-276.982"/>
</g>
<!-- SIGMAR1_Drugs -->
<g id="node27" class="node"><title>SIGMAR1_Drugs</title>
<ellipse fill="none" stroke="black" cx="1089.56" cy="-148.43" rx="25.9724" ry="25.9724"/>
<text text-anchor="middle" x="1089.56" y="-147.23" font-family="Times,serif" font-size="4.00">SIGMAR1_Drugs</text>
</g>
<!-- P1 -->
<g id="node29" class="node"><title>P1</title>
<ellipse fill="none" stroke="black" cx="353.562" cy="-351.422" rx="18" ry="18"/>
<text text-anchor="middle" x="353.562" y="-350.222" font-family="Times,serif" font-size="4.00">P1</text>
</g>
<!-- P&#45;ATPase -->
<g id="node52" class="node"><title>P&#45;ATPase</title>
<ellipse fill="none" stroke="black" cx="461.562" cy="-249.13" rx="18.6233" ry="18.6233"/>
<text text-anchor="middle" x="461.562" y="-247.93" font-family="Times,serif" font-size="4.00">P&#45;ATPase</text>
</g>
<!-- P1&#45;&gt;P&#45;ATPase -->
<g id="edge37" class="edge"><title>P1&#45;&gt;P&#45;ATPase</title>
<path fill="none" stroke="black" d="M364.442,-336.76C369.116,-331.293 374.819,-325.122 380.562,-320.132 402.335,-301.213 413.336,-303.663 434.562,-284.132 438.25,-280.738 441.844,-276.813 445.144,-272.861"/>
<polygon fill="black" stroke="black" points="447.997,-274.896 451.441,-264.876 442.501,-270.562 447.997,-274.896"/>
</g>
<!-- Nsp6 (+) -->
<g id="node32" class="node"><title>Nsp6 (+)</title>
<ellipse fill="none" stroke="black" cx="879.562" cy="-351.422" rx="18.0625" ry="18.0625"/>
<text text-anchor="middle" x="879.562" y="-350.222" font-family="Times,serif" font-size="4.00">Nsp6 (+)</text>
</g>
<!-- Nsp6 (+)&#45;&gt;Nsp6 -->
<g id="edge39" class="edge"><title>Nsp6 (+)&#45;&gt;Nsp6</title>
<path fill="none" stroke="black" d="M871.36,-335.189C862.677,-319.064 848.846,-293.375 838.653,-274.444"/>
<polygon fill="black" stroke="black" points="841.663,-272.651 833.84,-265.506 835.499,-275.97 841.663,-272.651"/>
</g>
<!-- Nsp6 (&#45;) -->
<g id="node36" class="node"><title>Nsp6 (&#45;)</title>
<ellipse fill="none" stroke="black" cx="879.562" cy="-249.13" rx="18" ry="18"/>
<text text-anchor="middle" x="879.562" y="-247.93" font-family="Times,serif" font-size="4.00">Nsp6 (&#45;)</text>
</g>
<!-- Nsp6 (+)&#45;&gt;Nsp6 (&#45;) -->
<g id="edge38" class="edge"><title>Nsp6 (+)&#45;&gt;Nsp6 (&#45;)</title>
<path fill="none" stroke="black" d="M874.395,-333.86C872.631,-318.327 872.341,-294.836 873.525,-276.685"/>
<polygon fill="black" stroke="black" points="877.012,-276.982 874.392,-266.716 870.039,-276.375 877.012,-276.982"/>
</g>
<!-- Nsp4 (+)&#45;&gt;Nsp4 -->
<g id="edge40" class="edge"><title>Nsp4 (+)&#45;&gt;Nsp4</title>
<path fill="none" stroke="black" d="M227.36,-335.189C218.677,-319.064 204.846,-293.375 194.653,-274.444"/>
<polygon fill="black" stroke="black" points="197.663,-272.651 189.84,-265.506 191.499,-275.97 197.663,-272.651"/>
</g>
<!-- Nsp4 (+)&#45;&gt;Nsp4 (&#45;) -->
<g id="edge41" class="edge"><title>Nsp4 (+)&#45;&gt;Nsp4 (&#45;)</title>
<path fill="none" stroke="black" d="M230.395,-333.86C228.631,-318.327 228.341,-294.836 229.525,-276.685"/>
<polygon fill="black" stroke="black" points="233.012,-276.982 230.392,-266.716 226.039,-276.375 233.012,-276.982"/>
</g>
<!-- DNAJC11 -->
<g id="node34" class="node"><title>DNAJC11</title>
<ellipse fill="none" stroke="black" cx="18.5616" cy="-249.13" rx="18.6233" ry="18.6233"/>
<text text-anchor="middle" x="18.5616" y="-247.93" font-family="Times,serif" font-size="4.00">DNAJC11</text>
</g>
<!-- DNAJC11&#45;&gt;Nsp4_DNAJC11 -->
<g id="edge42" class="edge"><title>DNAJC11&#45;&gt;Nsp4_DNAJC11</title>
<path fill="none" stroke="black" d="M22.1372,-230.485C24.7916,-217.385 28.4934,-199.117 31.7108,-183.239"/>
<polygon fill="black" stroke="black" points="35.1835,-183.724 33.7392,-173.228 28.3229,-182.334 35.1835,-183.724"/>
</g>
<!-- Nsp6 (&#45;)&#45;&gt;Nsp6 (+) -->
<g id="edge43" class="edge"><title>Nsp6 (&#45;)&#45;&gt;Nsp6 (+)</title>
<path fill="none" stroke="black" d="M884.731,-266.716C886.493,-282.258 886.782,-305.75 885.596,-323.895"/>
<polygon fill="black" stroke="black" points="882.109,-323.594 884.728,-333.86 889.083,-324.202 882.109,-323.594"/>
</g>
<!-- TOM complex -->
<g id="node37" class="node"><title>TOM complex</title>
<ellipse fill="none" stroke="black" cx="176.562" cy="-351.422" rx="23.1702" ry="23.1702"/>
<text text-anchor="middle" x="176.562" y="-350.222" font-family="Times,serif" font-size="4.00">TOM complex</text>
</g>
<!-- TOM complex&#45;&gt;Nsp4 -->
<g id="edge44" class="edge"><title>TOM complex&#45;&gt;Nsp4</title>
<path fill="none" stroke="black" d="M177.696,-327.664C178.441,-312.732 179.418,-293.125 180.204,-277.365"/>
<polygon fill="black" stroke="black" points="183.71,-277.335 180.712,-267.173 176.718,-276.987 183.71,-277.335"/>
</g>
<!-- F&#45;ATPase&#45;&gt;F&#45;ATPase_Nsp6 -->
<g id="edge45" class="edge"><title>F&#45;ATPase&#45;&gt;F&#45;ATPase_Nsp6</title>
<path fill="none" stroke="black" d="M770.562,-230.485C770.562,-217.6 770.562,-199.714 770.562,-184.022"/>
<polygon fill="black" stroke="black" points="774.062,-183.596 770.562,-173.596 767.062,-183.597 774.062,-183.596"/>
</g>
<!-- Several drugs -->
<g id="node40" class="node"><title>Several drugs</title>
<ellipse fill="none" stroke="black" cx="1101.56" cy="-249.13" rx="22.6101" ry="22.6101"/>
<text text-anchor="middle" x="1101.56" y="-247.93" font-family="Times,serif" font-size="4.00">Several drugs</text>
</g>
<!-- Several drugs&#45;&gt;SIGMAR1_Drugs -->
<g id="edge46" class="edge"><title>Several drugs&#45;&gt;SIGMAR1_Drugs</title>
<path fill="none" stroke="black" d="M1098.9,-226.225C1097.41,-214.006 1095.53,-198.495 1093.84,-184.617"/>
<polygon fill="black" stroke="black" points="1097.28,-183.908 1092.6,-174.404 1090.33,-184.753 1097.28,-183.908"/>
</g>
<!-- Nsp3 (&#45;)&#45;&gt;Nsp3 (+) -->
<g id="edge47" class="edge"><title>Nsp3 (&#45;)&#45;&gt;Nsp3 (+)</title>
<path fill="none" stroke="black" d="M992.731,-266.716C994.493,-282.258 994.782,-305.75 993.596,-323.895"/>
<polygon fill="black" stroke="black" points="990.109,-323.594 992.728,-333.86 997.083,-324.202 990.109,-323.594"/>
</g>
<!-- F0 -->
<g id="node42" class="node"><title>F0</title>
<ellipse fill="none" stroke="black" cx="825.562" cy="-351.422" rx="18" ry="18"/>
<text text-anchor="middle" x="825.562" y="-350.222" font-family="Times,serif" font-size="4.00">F0</text>
</g>
<!-- F0&#45;&gt;F&#45;ATPase -->
<g id="edge48" class="edge"><title>F0&#45;&gt;F&#45;ATPase</title>
<path fill="none" stroke="black" d="M817.208,-335.189C808.416,-319.157 794.441,-293.673 784.077,-274.775"/>
<polygon fill="black" stroke="black" points="787.052,-272.922 779.175,-265.837 780.915,-276.288 787.052,-272.922"/>
</g>
<!-- ALG11 -->
<g id="node44" class="node"><title>ALG11</title>
<ellipse fill="none" stroke="black" cx="127.562" cy="-249.13" rx="18" ry="18"/>
<text text-anchor="middle" x="127.562" y="-247.93" font-family="Times,serif" font-size="4.00">ALG11</text>
</g>
<!-- ALG11&#45;&gt;Nsp4_ALG11 -->
<g id="edge49" class="edge"><title>ALG11&#45;&gt;Nsp4_ALG11</title>
<path fill="none" stroke="black" d="M133.341,-231.832C138.437,-217.46 145.988,-196.167 152.137,-178.826"/>
<polygon fill="black" stroke="black" points="155.523,-179.75 155.567,-169.155 148.926,-177.41 155.523,-179.75"/>
</g>
<!-- ATP13A3 -->
<g id="node46" class="node"><title>ATP13A3</title>
<ellipse fill="none" stroke="black" cx="407.562" cy="-351.422" rx="18.0625" ry="18.0625"/>
<text text-anchor="middle" x="407.562" y="-350.222" font-family="Times,serif" font-size="4.00">ATP13A3</text>
</g>
<!-- ATP13A3&#45;&gt;P&#45;ATPase -->
<g id="edge50" class="edge"><title>ATP13A3&#45;&gt;P&#45;ATPase</title>
<path fill="none" stroke="black" d="M415.763,-335.189C424.395,-319.157 438.117,-293.673 448.292,-274.775"/>
<polygon fill="black" stroke="black" points="451.445,-276.301 453.105,-265.837 445.282,-272.982 451.445,-276.301"/>
</g>
<!-- P0 -->
<g id="node47" class="node"><title>P0</title>
<ellipse fill="none" stroke="black" cx="461.562" cy="-351.422" rx="18" ry="18"/>
<text text-anchor="middle" x="461.562" y="-350.222" font-family="Times,serif" font-size="4.00">P0</text>
</g>
<!-- P0&#45;&gt;P&#45;ATPase -->
<g id="edge51" class="edge"><title>P0&#45;&gt;P&#45;ATPase</title>
<path fill="none" stroke="black" d="M461.562,-333.408C461.562,-318.25 461.562,-295.78 461.562,-278"/>
<polygon fill="black" stroke="black" points="465.062,-277.903 461.562,-267.903 458.062,-277.903 465.062,-277.903"/>
</g>
<!-- Selinexor -->
<g id="node51" class="node"><title>Selinexor</title>
<ellipse fill="none" stroke="black" cx="406.562" cy="-249.13" rx="18.6233" ry="18.6233"/>
<text text-anchor="middle" x="406.562" y="-247.93" font-family="Times,serif" font-size="4.00">Selinexor</text>
</g>
<!-- Selinexor&#45;&gt;NUP210_Selinexor -->
<g id="edge52" class="edge"><title>Selinexor&#45;&gt;NUP210_Selinexor</title>
<path fill="none" stroke="black" d="M400.455,-231.387C395.77,-218.543 389.14,-200.365 383.313,-184.391"/>
<polygon fill="black" stroke="black" points="386.529,-182.993 379.814,-174.798 379.953,-185.392 386.529,-182.993"/>
</g>
<!-- P&#45;ATPase&#45;&gt;P&#45;ATPase_Nsp6 -->
<g id="edge53" class="edge"><title>P&#45;ATPase&#45;&gt;P&#45;ATPase_Nsp6</title>
<path fill="none" stroke="black" d="M472.333,-233.567C483.171,-218.912 500.168,-195.932 513.661,-177.688"/>
<polygon fill="black" stroke="black" points="516.829,-179.291 519.962,-169.17 511.201,-175.129 516.829,-179.291"/>
</g>
<!-- SIGMAR1 -->
<g id="node53" class="node"><title>SIGMAR1</title>
<ellipse fill="none" stroke="black" cx="1042.56" cy="-249.13" rx="18.6233" ry="18.6233"/>
<text text-anchor="middle" x="1042.56" y="-247.93" font-family="Times,serif" font-size="4.00">SIGMAR1</text>
</g>
<!-- SIGMAR1&#45;&gt;Nsp6_SIGMAR1 -->
<g id="edge55" class="edge"><title>SIGMAR1&#45;&gt;Nsp6_SIGMAR1</title>
<path fill="none" stroke="black" d="M1031.97,-233.425C1027.05,-227.115 1020.9,-219.887 1014.56,-214.128 994.308,-195.729 968.444,-178.601 948.666,-166.596"/>
<polygon fill="black" stroke="black" points="950.43,-163.573 940.049,-161.454 946.844,-169.584 950.43,-163.573"/>
</g>
<!-- SIGMAR1&#45;&gt;SIGMAR1_Drugs -->
<g id="edge54" class="edge"><title>SIGMAR1&#45;&gt;SIGMAR1_Drugs</title>
<path fill="none" stroke="black" d="M1050.32,-231.832C1056.77,-218.284 1066.15,-198.585 1074.13,-181.845"/>
<polygon fill="black" stroke="black" points="1077.48,-182.933 1078.62,-172.4 1071.16,-179.923 1077.48,-182.933"/>
</g>
</g>
</svg>
