<?xml version="1.0" encoding="UTF-8" standalone="no"?>
<!DOCTYPE svg PUBLIC "-//W3C//DTD SVG 1.1//EN"
 "http://www.w3.org/Graphics/SVG/1.1/DTD/svg11.dtd">
<!-- Generated by graphviz version 2.38.0 (20140413.2041)
 -->
<!-- Title: G Pages: 1 -->
<svg width="1297pt" height="391pt"
 viewBox="0.00 0.00 1297.28 390.71" xmlns="http://www.w3.org/2000/svg" xmlns:xlink="http://www.w3.org/1999/xlink">
<g id="graph0" class="graph" transform="scale(1 1) rotate(0) translate(4 386.711)">
<title>G</title>
<polygon fill="white" stroke="none" points="-4,4 -4,-386.711 1293.28,-386.711 1293.28,4 -4,4"/>
<!-- Nsp3_Nsp4_Nsp6 -->
<g id="node1" class="node"><title>Nsp3_Nsp4_Nsp6</title>
<ellipse fill="none" stroke="black" cx="516.577" cy="-148.43" rx="26.533" ry="26.533"/>
<text text-anchor="middle" x="516.577" y="-147.23" font-family="Times,serif" font-size="4.00">Nsp3_Nsp4_Nsp6</text>
</g>
<!-- Plasma membrane organization -->
<g id="node2" class="node"><title>Plasma membrane organization</title>
<ellipse fill="none" stroke="black" cx="516.577" cy="-41.3657" rx="41.2319" ry="41.2319"/>
<text text-anchor="middle" x="516.577" y="-40.1657" font-family="Times,serif" font-size="4.00">Plasma membrane organization</text>
</g>
<!-- Nsp3_Nsp4_Nsp6&#45;&gt;Plasma membrane organization -->
<g id="edge1" class="edge"><title>Nsp3_Nsp4_Nsp6&#45;&gt;Plasma membrane organization</title>
<path fill="none" stroke="black" d="M516.577,-121.728C516.577,-113.071 516.577,-103.086 516.577,-93.1815"/>
<polygon fill="black" stroke="black" points="520.077,-92.9487 516.577,-82.9487 513.077,-92.9488 520.077,-92.9487"/>
</g>
<!-- F0 -->
<g id="node3" class="node"><title>F0</title>
<ellipse fill="none" stroke="black" cx="635.577" cy="-351.422" rx="18" ry="18"/>
<text text-anchor="middle" x="635.577" y="-350.222" font-family="Times,serif" font-size="4.00">F0</text>
</g>
<!-- F&#45;ATPase -->
<g id="node22" class="node"><title>F&#45;ATPase</title>
<ellipse fill="none" stroke="black" cx="689.577" cy="-249.13" rx="18.6233" ry="18.6233"/>
<text text-anchor="middle" x="689.577" y="-247.93" font-family="Times,serif" font-size="4.00">F&#45;ATPase</text>
</g>
<!-- F0&#45;&gt;F&#45;ATPase -->
<g id="edge2" class="edge"><title>F0&#45;&gt;F&#45;ATPase</title>
<path fill="none" stroke="black" d="M643.779,-335.189C652.411,-319.157 666.132,-293.673 676.308,-274.775"/>
<polygon fill="black" stroke="black" points="679.461,-276.301 681.12,-265.837 673.298,-272.982 679.461,-276.301"/>
</g>
<!-- Nsp4 -->
<g id="node4" class="node"><title>Nsp4</title>
<ellipse fill="none" stroke="black" cx="290.577" cy="-249.13" rx="18" ry="18"/>
<text text-anchor="middle" x="290.577" y="-247.93" font-family="Times,serif" font-size="4.00">Nsp4</text>
</g>
<!-- Nsp4&#45;&gt;Nsp3_Nsp4_Nsp6 -->
<g id="edge7" class="edge"><title>Nsp4&#45;&gt;Nsp3_Nsp4_Nsp6</title>
<path fill="none" stroke="black" d="M299.491,-233.169C304.135,-226.503 310.356,-219.059 317.577,-214.128 362.508,-183.45 382.892,-195.118 434.577,-178.128 450.294,-172.962 467.596,-166.955 482.24,-161.775"/>
<polygon fill="black" stroke="black" points="483.651,-164.988 491.901,-158.342 481.307,-158.392 483.651,-164.988"/>
</g>
<!-- Nsp4_IDE -->
<g id="node5" class="node"><title>Nsp4_IDE</title>
<ellipse fill="none" stroke="black" cx="177.577" cy="-148.43" rx="19.1842" ry="19.1842"/>
<text text-anchor="middle" x="177.577" y="-147.23" font-family="Times,serif" font-size="4.00">Nsp4_IDE</text>
</g>
<!-- Nsp4&#45;&gt;Nsp4_IDE -->
<g id="edge4" class="edge"><title>Nsp4&#45;&gt;Nsp4_IDE</title>
<path fill="none" stroke="black" d="M280.708,-233.722C275.946,-227.326 269.901,-219.947 263.577,-214.128 242.351,-194.597 232.372,-195.803 209.577,-178.128 205.895,-175.273 202.105,-172.104 198.48,-168.943"/>
<polygon fill="black" stroke="black" points="200.694,-166.228 190.91,-162.163 196.024,-171.442 200.694,-166.228"/>
</g>
<!-- Nsp4_NUP210 -->
<g id="node9" class="node"><title>Nsp4_NUP210</title>
<ellipse fill="none" stroke="black" cx="110.577" cy="-148.43" rx="23.1702" ry="23.1702"/>
<text text-anchor="middle" x="110.577" y="-147.23" font-family="Times,serif" font-size="4.00">Nsp4_NUP210</text>
</g>
<!-- Nsp4&#45;&gt;Nsp4_NUP210 -->
<g id="edge5" class="edge"><title>Nsp4&#45;&gt;Nsp4_NUP210</title>
<path fill="none" stroke="black" d="M281.647,-233.193C276.999,-226.532 270.78,-219.086 263.577,-214.128 219.808,-184.006 196.946,-202.198 149.577,-178.128 145.127,-175.867 140.644,-173.111 136.381,-170.212"/>
<polygon fill="black" stroke="black" points="138.179,-167.193 128.025,-164.17 134.078,-172.865 138.179,-167.193"/>
</g>
<!-- Nsp4_ALG11 -->
<g id="node13" class="node"><title>Nsp4_ALG11</title>
<ellipse fill="none" stroke="black" cx="240.577" cy="-148.43" rx="21.9898" ry="21.9898"/>
<text text-anchor="middle" x="240.577" y="-147.23" font-family="Times,serif" font-size="4.00">Nsp4_ALG11</text>
</g>
<!-- Nsp4&#45;&gt;Nsp4_ALG11 -->
<g id="edge6" class="edge"><title>Nsp4&#45;&gt;Nsp4_ALG11</title>
<path fill="none" stroke="black" d="M282.765,-232.708C275.303,-217.978 263.881,-195.431 254.803,-177.511"/>
<polygon fill="black" stroke="black" points="257.682,-175.45 250.041,-168.111 251.437,-178.613 257.682,-175.45"/>
</g>
<!-- Nsp4_DNAJC11 -->
<g id="node17" class="node"><title>Nsp4_DNAJC11</title>
<ellipse fill="none" stroke="black" cx="309.577" cy="-148.43" rx="24.8512" ry="24.8512"/>
<text text-anchor="middle" x="309.577" y="-147.23" font-family="Times,serif" font-size="4.00">Nsp4_DNAJC11</text>
</g>
<!-- Nsp4&#45;&gt;Nsp4_DNAJC11 -->
<g id="edge8" class="edge"><title>Nsp4&#45;&gt;Nsp4_DNAJC11</title>
<path fill="none" stroke="black" d="M293.8,-231.387C296.319,-218.303 299.903,-199.685 303.019,-183.499"/>
<polygon fill="black" stroke="black" points="306.529,-183.778 304.983,-173.297 299.655,-182.455 306.529,-183.778"/>
</g>
<!-- TIM complex_Nsp4 -->
<g id="node26" class="node"><title>TIM complex_Nsp4</title>
<ellipse fill="none" stroke="black" cx="396.577" cy="-148.43" rx="28.7763" ry="28.7763"/>
<text text-anchor="middle" x="396.577" y="-147.23" font-family="Times,serif" font-size="4.00">TIM complex_Nsp4</text>
</g>
<!-- Nsp4&#45;&gt;TIM complex_Nsp4 -->
<g id="edge3" class="edge"><title>Nsp4&#45;&gt;TIM complex_Nsp4</title>
<path fill="none" stroke="black" d="M300.717,-234.002C305.533,-227.663 311.547,-220.25 317.577,-214.128 332.378,-199.103 350.483,-184.07 365.626,-172.282"/>
<polygon fill="black" stroke="black" points="367.893,-174.953 373.693,-166.087 363.63,-169.401 367.893,-174.953"/>
</g>
<!-- P&#45;ATPase -->
<g id="node6" class="node"><title>P&#45;ATPase</title>
<ellipse fill="none" stroke="black" cx="996.577" cy="-249.13" rx="18.6233" ry="18.6233"/>
<text text-anchor="middle" x="996.577" y="-247.93" font-family="Times,serif" font-size="4.00">P&#45;ATPase</text>
</g>
<!-- P&#45;ATPase_Nsp6 -->
<g id="node49" class="node"><title>P&#45;ATPase_Nsp6</title>
<ellipse fill="none" stroke="black" cx="928.577" cy="-148.43" rx="24.8513" ry="24.8512"/>
<text text-anchor="middle" x="928.577" y="-147.23" font-family="Times,serif" font-size="4.00">P&#45;ATPase_Nsp6</text>
</g>
<!-- P&#45;ATPase&#45;&gt;P&#45;ATPase_Nsp6 -->
<g id="edge9" class="edge"><title>P&#45;ATPase&#45;&gt;P&#45;ATPase_Nsp6</title>
<path fill="none" stroke="black" d="M986.249,-233.14C976.16,-218.495 960.549,-195.836 948.112,-177.784"/>
<polygon fill="black" stroke="black" points="950.855,-175.597 942.3,-169.348 945.091,-179.568 950.855,-175.597"/>
</g>
<!-- Nsp3 -->
<g id="node7" class="node"><title>Nsp3</title>
<ellipse fill="none" stroke="black" cx="516.577" cy="-249.13" rx="18" ry="18"/>
<text text-anchor="middle" x="516.577" y="-247.93" font-family="Times,serif" font-size="4.00">Nsp3</text>
</g>
<!-- Nsp3&#45;&gt;Nsp3_Nsp4_Nsp6 -->
<g id="edge10" class="edge"><title>Nsp3&#45;&gt;Nsp3_Nsp4_Nsp6</title>
<path fill="none" stroke="black" d="M516.577,-230.938C516.577,-218.463 516.577,-201.131 516.577,-185.656"/>
<polygon fill="black" stroke="black" points="520.077,-185.322 516.577,-175.322 513.077,-185.322 520.077,-185.322"/>
</g>
<!-- V&#45;ATPase_Nsp6 -->
<g id="node8" class="node"><title>V&#45;ATPase_Nsp6</title>
<ellipse fill="none" stroke="black" cx="835.577" cy="-148.43" rx="24.8513" ry="24.8512"/>
<text text-anchor="middle" x="835.577" y="-147.23" font-family="Times,serif" font-size="4.00">V&#45;ATPase_Nsp6</text>
</g>
<!-- ATP13A3 -->
<g id="node10" class="node"><title>ATP13A3</title>
<ellipse fill="none" stroke="black" cx="979.577" cy="-351.422" rx="18.0625" ry="18.0625"/>
<text text-anchor="middle" x="979.577" y="-350.222" font-family="Times,serif" font-size="4.00">ATP13A3</text>
</g>
<!-- ATP13A3&#45;&gt;P&#45;ATPase -->
<g id="edge11" class="edge"><title>ATP13A3&#45;&gt;P&#45;ATPase</title>
<path fill="none" stroke="black" d="M982.461,-333.408C985.046,-318.157 988.886,-295.504 991.909,-277.673"/>
<polygon fill="black" stroke="black" points="995.402,-278.008 993.622,-267.564 988.5,-276.838 995.402,-278.008"/>
</g>
<!-- SIGMAR1 -->
<g id="node11" class="node"><title>SIGMAR1</title>
<ellipse fill="none" stroke="black" cx="634.577" cy="-249.13" rx="18.6233" ry="18.6233"/>
<text text-anchor="middle" x="634.577" y="-247.93" font-family="Times,serif" font-size="4.00">SIGMAR1</text>
</g>
<!-- SIGMAR1_Drugs -->
<g id="node25" class="node"><title>SIGMAR1_Drugs</title>
<ellipse fill="none" stroke="black" cx="590.577" cy="-148.43" rx="25.9724" ry="25.9724"/>
<text text-anchor="middle" x="590.577" y="-147.23" font-family="Times,serif" font-size="4.00">SIGMAR1_Drugs</text>
</g>
<!-- SIGMAR1&#45;&gt;SIGMAR1_Drugs -->
<g id="edge13" class="edge"><title>SIGMAR1&#45;&gt;SIGMAR1_Drugs</title>
<path fill="none" stroke="black" d="M627.311,-231.832C621.272,-218.284 612.49,-198.585 605.028,-181.845"/>
<polygon fill="black" stroke="black" points="608.085,-180.108 600.817,-172.4 601.692,-182.958 608.085,-180.108"/>
</g>
<!-- Nsp6_SIGMAR1 -->
<g id="node33" class="node"><title>Nsp6_SIGMAR1</title>
<ellipse fill="none" stroke="black" cx="664.577" cy="-148.43" rx="24.8513" ry="24.8512"/>
<text text-anchor="middle" x="664.577" y="-147.23" font-family="Times,serif" font-size="4.00">Nsp6_SIGMAR1</text>
</g>
<!-- SIGMAR1&#45;&gt;Nsp6_SIGMAR1 -->
<g id="edge12" class="edge"><title>SIGMAR1&#45;&gt;Nsp6_SIGMAR1</title>
<path fill="none" stroke="black" d="M639.803,-230.938C643.862,-217.582 649.613,-198.661 654.553,-182.411"/>
<polygon fill="black" stroke="black" points="657.941,-183.297 657.501,-172.711 651.244,-181.261 657.941,-183.297"/>
</g>
<!-- ATP6AP1_Bafilomycin A1 -->
<g id="node12" class="node"><title>ATP6AP1_Bafilomycin A1</title>
<ellipse fill="none" stroke="black" cx="869.577" cy="-249.13" rx="35.0036" ry="35.0036"/>
<text text-anchor="middle" x="869.577" y="-247.93" font-family="Times,serif" font-size="4.00">ATP6AP1_Bafilomycin A1</text>
</g>
<!-- SLC6A15_M -->
<g id="node14" class="node"><title>SLC6A15_M</title>
<ellipse fill="none" stroke="black" cx="1077.58" cy="-148.43" rx="21.4286" ry="21.4286"/>
<text text-anchor="middle" x="1077.58" y="-147.23" font-family="Times,serif" font-size="4.00">SLC6A15_M</text>
</g>
<!-- P1 -->
<g id="node15" class="node"><title>P1</title>
<ellipse fill="none" stroke="black" cx="1033.58" cy="-351.422" rx="18" ry="18"/>
<text text-anchor="middle" x="1033.58" y="-350.222" font-family="Times,serif" font-size="4.00">P1</text>
</g>
<!-- P1&#45;&gt;P&#45;ATPase -->
<g id="edge14" class="edge"><title>P1&#45;&gt;P&#45;ATPase</title>
<path fill="none" stroke="black" d="M1027.63,-334.308C1021.88,-318.704 1013.05,-294.775 1006.27,-276.413"/>
<polygon fill="black" stroke="black" points="1009.5,-275.043 1002.75,-266.873 1002.93,-277.466 1009.5,-275.043"/>
</g>
<!-- ATP5MG -->
<g id="node16" class="node"><title>ATP5MG</title>
<ellipse fill="none" stroke="black" cx="689.577" cy="-351.422" rx="18" ry="18"/>
<text text-anchor="middle" x="689.577" y="-350.222" font-family="Times,serif" font-size="4.00">ATP5MG</text>
</g>
<!-- ATP5MG&#45;&gt;F&#45;ATPase -->
<g id="edge15" class="edge"><title>ATP5MG&#45;&gt;F&#45;ATPase</title>
<path fill="none" stroke="black" d="M689.577,-333.408C689.577,-318.25 689.577,-295.78 689.577,-278"/>
<polygon fill="black" stroke="black" points="693.077,-277.903 689.577,-267.903 686.077,-277.903 693.077,-277.903"/>
</g>
<!-- DNAJC11 -->
<g id="node18" class="node"><title>DNAJC11</title>
<ellipse fill="none" stroke="black" cx="345.577" cy="-249.13" rx="18.6233" ry="18.6233"/>
<text text-anchor="middle" x="345.577" y="-247.93" font-family="Times,serif" font-size="4.00">DNAJC11</text>
</g>
<!-- DNAJC11&#45;&gt;Nsp4_DNAJC11 -->
<g id="edge16" class="edge"><title>DNAJC11&#45;&gt;Nsp4_DNAJC11</title>
<path fill="none" stroke="black" d="M339.47,-231.387C334.553,-217.905 327.492,-198.547 321.468,-182.03"/>
<polygon fill="black" stroke="black" points="324.593,-180.385 317.879,-172.19 318.017,-182.784 324.593,-180.385"/>
</g>
<!-- Nsp6 (+) -->
<g id="node19" class="node"><title>Nsp6 (+)</title>
<ellipse fill="none" stroke="black" cx="798.577" cy="-351.422" rx="18.0625" ry="18.0625"/>
<text text-anchor="middle" x="798.577" y="-350.222" font-family="Times,serif" font-size="4.00">Nsp6 (+)</text>
</g>
<!-- Nsp6 -->
<g id="node24" class="node"><title>Nsp6</title>
<ellipse fill="none" stroke="black" cx="744.577" cy="-249.13" rx="18" ry="18"/>
<text text-anchor="middle" x="744.577" y="-247.93" font-family="Times,serif" font-size="4.00">Nsp6</text>
</g>
<!-- Nsp6 (+)&#45;&gt;Nsp6 -->
<g id="edge17" class="edge"><title>Nsp6 (+)&#45;&gt;Nsp6</title>
<path fill="none" stroke="black" d="M790.376,-335.189C781.693,-319.064 767.862,-293.375 757.668,-274.444"/>
<polygon fill="black" stroke="black" points="760.678,-272.651 752.856,-265.506 754.515,-275.97 760.678,-272.651"/>
</g>
<!-- Nsp6 (&#45;) -->
<g id="node43" class="node"><title>Nsp6 (&#45;)</title>
<ellipse fill="none" stroke="black" cx="798.577" cy="-249.13" rx="18" ry="18"/>
<text text-anchor="middle" x="798.577" y="-247.93" font-family="Times,serif" font-size="4.00">Nsp6 (&#45;)</text>
</g>
<!-- Nsp6 (+)&#45;&gt;Nsp6 (&#45;) -->
<g id="edge18" class="edge"><title>Nsp6 (+)&#45;&gt;Nsp6 (&#45;)</title>
<path fill="none" stroke="black" d="M793.411,-333.86C791.646,-318.327 791.356,-294.836 792.54,-276.685"/>
<polygon fill="black" stroke="black" points="796.028,-276.982 793.408,-266.716 789.054,-276.375 796.028,-276.982"/>
</g>
<!-- V&#45;type proton ATPase -->
<g id="node20" class="node"><title>V&#45;type proton ATPase</title>
<ellipse fill="none" stroke="black" cx="1100.58" cy="-351.422" rx="31.0804" ry="31.0804"/>
<text text-anchor="middle" x="1100.58" y="-350.222" font-family="Times,serif" font-size="4.00">V&#45;type proton ATPase</text>
</g>
<!-- V&#45;ATPase -->
<g id="node28" class="node"><title>V&#45;ATPase</title>
<ellipse fill="none" stroke="black" cx="941.577" cy="-249.13" rx="18.6233" ry="18.6233"/>
<text text-anchor="middle" x="941.577" y="-247.93" font-family="Times,serif" font-size="4.00">V&#45;ATPase</text>
</g>
<!-- V&#45;type proton ATPase&#45;&gt;V&#45;ATPase -->
<g id="edge19" class="edge"><title>V&#45;type proton ATPase&#45;&gt;V&#45;ATPase</title>
<path fill="none" stroke="black" d="M1076.77,-330.722C1071.61,-326.934 1066.05,-323.197 1060.58,-320.132 1022.27,-298.676 1003.89,-310.224 968.577,-284.132 964.474,-281.1 960.652,-277.294 957.251,-273.336"/>
<polygon fill="black" stroke="black" points="959.813,-270.93 950.904,-265.196 954.293,-275.234 959.813,-270.93"/>
</g>
<!-- H+ -->
<g id="node38" class="node"><title>H+</title>
<ellipse fill="none" stroke="black" cx="1105.58" cy="-249.13" rx="18" ry="18"/>
<text text-anchor="middle" x="1105.58" y="-247.93" font-family="Times,serif" font-size="4.00">H+</text>
</g>
<!-- V&#45;type proton ATPase&#45;&gt;H+ -->
<g id="edge20" class="edge"><title>V&#45;type proton ATPase&#45;&gt;H+</title>
<path fill="none" stroke="black" d="M1102.09,-320.059C1102.76,-306.546 1103.55,-290.751 1104.21,-277.595"/>
<polygon fill="black" stroke="black" points="1107.72,-277.435 1104.72,-267.273 1100.73,-277.086 1107.72,-277.435"/>
</g>
<!-- NUP210 -->
<g id="node21" class="node"><title>NUP210</title>
<ellipse fill="none" stroke="black" cx="74.5772" cy="-249.13" rx="18" ry="18"/>
<text text-anchor="middle" x="74.5772" y="-247.93" font-family="Times,serif" font-size="4.00">NUP210</text>
</g>
<!-- NUP210&#45;&gt;Nsp4_NUP210 -->
<g id="edge22" class="edge"><title>NUP210&#45;&gt;Nsp4_NUP210</title>
<path fill="none" stroke="black" d="M80.5218,-231.832C85.6303,-217.826 93.1362,-197.247 99.369,-180.159"/>
<polygon fill="black" stroke="black" points="102.725,-181.171 102.864,-170.577 96.1492,-178.772 102.725,-181.171"/>
</g>
<!-- NUP210_Selinexor -->
<g id="node32" class="node"><title>NUP210_Selinexor</title>
<ellipse fill="none" stroke="black" cx="27.5772" cy="-148.43" rx="27.6545" ry="27.6545"/>
<text text-anchor="middle" x="27.5772" y="-147.23" font-family="Times,serif" font-size="4.00">NUP210_Selinexor</text>
</g>
<!-- NUP210&#45;&gt;NUP210_Selinexor -->
<g id="edge21" class="edge"><title>NUP210&#45;&gt;NUP210_Selinexor</title>
<path fill="none" stroke="black" d="M67.0258,-232.272C60.7352,-219.062 51.5578,-199.79 43.6376,-183.157"/>
<polygon fill="black" stroke="black" points="46.6103,-181.259 39.1509,-173.735 40.2902,-184.268 46.6103,-181.259"/>
</g>
<!-- F&#45;ATPase_Nsp6 -->
<g id="node48" class="node"><title>F&#45;ATPase_Nsp6</title>
<ellipse fill="none" stroke="black" cx="734.577" cy="-148.43" rx="24.8513" ry="24.8512"/>
<text text-anchor="middle" x="734.577" y="-147.23" font-family="Times,serif" font-size="4.00">F&#45;ATPase_Nsp6</text>
</g>
<!-- F&#45;ATPase&#45;&gt;F&#45;ATPase_Nsp6 -->
<g id="edge23" class="edge"><title>F&#45;ATPase&#45;&gt;F&#45;ATPase_Nsp6</title>
<path fill="none" stroke="black" d="M697.008,-231.832C703.31,-218.009 712.531,-197.784 720.261,-180.831"/>
<polygon fill="black" stroke="black" points="723.642,-181.851 724.606,-171.3 717.273,-178.947 723.642,-181.851"/>
</g>
<!-- ATP6AP1 -->
<g id="node23" class="node"><title>ATP6AP1</title>
<ellipse fill="none" stroke="black" cx="925.577" cy="-351.422" rx="18.0625" ry="18.0625"/>
<text text-anchor="middle" x="925.577" y="-350.222" font-family="Times,serif" font-size="4.00">ATP6AP1</text>
</g>
<!-- ATP6AP1&#45;&gt;ATP6AP1_Bafilomycin A1 -->
<g id="edge25" class="edge"><title>ATP6AP1&#45;&gt;ATP6AP1_Bafilomycin A1</title>
<path fill="none" stroke="black" d="M917.072,-335.189C910.205,-322.891 900.232,-305.03 891.195,-288.847"/>
<polygon fill="black" stroke="black" points="894.228,-287.099 886.297,-280.074 888.117,-290.512 894.228,-287.099"/>
</g>
<!-- ATP6AP1&#45;&gt;V&#45;ATPase -->
<g id="edge24" class="edge"><title>ATP6AP1&#45;&gt;V&#45;ATPase</title>
<path fill="none" stroke="black" d="M928.291,-333.408C930.725,-318.157 934.338,-295.504 937.183,-277.673"/>
<polygon fill="black" stroke="black" points="940.677,-277.99 938.796,-267.564 933.764,-276.888 940.677,-277.99"/>
</g>
<!-- Nsp6&#45;&gt;Nsp3_Nsp4_Nsp6 -->
<g id="edge31" class="edge"><title>Nsp6&#45;&gt;Nsp3_Nsp4_Nsp6</title>
<path fill="none" stroke="black" d="M736.071,-233.255C731.443,-226.44 725.117,-218.847 717.577,-214.128 655.054,-175.002 622.725,-208.642 555.577,-178.128 551.894,-176.455 548.217,-174.396 544.675,-172.156"/>
<polygon fill="black" stroke="black" points="546.44,-169.122 536.219,-166.332 542.469,-174.887 546.44,-169.122"/>
</g>
<!-- Nsp6&#45;&gt;V&#45;ATPase_Nsp6 -->
<g id="edge28" class="edge"><title>Nsp6&#45;&gt;V&#45;ATPase_Nsp6</title>
<path fill="none" stroke="black" d="M755.02,-234.285C759.897,-228.003 765.875,-220.557 771.577,-214.128 783.992,-200.131 798.616,-185.239 810.749,-173.275"/>
<polygon fill="black" stroke="black" points="813.24,-175.735 817.939,-166.239 808.344,-170.731 813.24,-175.735"/>
</g>
<!-- Nsp6&#45;&gt;Nsp6_SIGMAR1 -->
<g id="edge29" class="edge"><title>Nsp6&#45;&gt;Nsp6_SIGMAR1</title>
<path fill="none" stroke="black" d="M733.851,-234.525C728.916,-228.291 722.972,-220.817 717.577,-214.128 707.454,-201.578 696.141,-187.742 686.575,-176.097"/>
<polygon fill="black" stroke="black" points="689.015,-173.554 679.96,-168.055 683.609,-178.001 689.015,-173.554"/>
</g>
<!-- SLC6A15_Nsp6 -->
<g id="node46" class="node"><title>SLC6A15_Nsp6</title>
<ellipse fill="none" stroke="black" cx="1007.58" cy="-148.43" rx="24.2908" ry="24.2908"/>
<text text-anchor="middle" x="1007.58" y="-147.23" font-family="Times,serif" font-size="4.00">SLC6A15_Nsp6</text>
</g>
<!-- Nsp6&#45;&gt;SLC6A15_Nsp6 -->
<g id="edge30" class="edge"><title>Nsp6&#45;&gt;SLC6A15_Nsp6</title>
<path fill="none" stroke="black" d="M753.017,-233.148C757.63,-226.307 763.962,-218.724 771.577,-214.128 845.536,-169.494 882.26,-209.929 962.577,-178.128 968.317,-175.856 974.117,-172.822 979.558,-169.578"/>
<polygon fill="black" stroke="black" points="981.741,-172.337 988.299,-164.016 977.983,-166.431 981.741,-172.337"/>
</g>
<!-- Nsp6&#45;&gt;F&#45;ATPase_Nsp6 -->
<g id="edge27" class="edge"><title>Nsp6&#45;&gt;F&#45;ATPase_Nsp6</title>
<path fill="none" stroke="black" d="M742.835,-230.938C741.513,-217.89 739.653,-199.529 738.033,-183.536"/>
<polygon fill="black" stroke="black" points="741.501,-183.045 737.011,-173.449 734.537,-183.75 741.501,-183.045"/>
</g>
<!-- Nsp6&#45;&gt;P&#45;ATPase_Nsp6 -->
<g id="edge26" class="edge"><title>Nsp6&#45;&gt;P&#45;ATPase_Nsp6</title>
<path fill="none" stroke="black" d="M753.612,-233.341C758.283,-226.712 764.491,-219.251 771.577,-214.128 809.184,-186.947 826.882,-196.3 869.577,-178.128 878.834,-174.189 888.726,-169.552 897.713,-165.167"/>
<polygon fill="black" stroke="black" points="899.274,-168.3 906.687,-160.729 896.171,-162.025 899.274,-168.3"/>
</g>
<!-- P0 -->
<g id="node27" class="node"><title>P0</title>
<ellipse fill="none" stroke="black" cx="1167.58" cy="-351.422" rx="18" ry="18"/>
<text text-anchor="middle" x="1167.58" y="-350.222" font-family="Times,serif" font-size="4.00">P0</text>
</g>
<!-- P0&#45;&gt;P&#45;ATPase -->
<g id="edge32" class="edge"><title>P0&#45;&gt;P&#45;ATPase</title>
<path fill="none" stroke="black" d="M1157.61,-336.195C1152.99,-330.508 1147.09,-324.326 1140.58,-320.132 1095.18,-290.919 1069.39,-314.228 1024.58,-284.132 1020.17,-281.17 1016.09,-277.312 1012.49,-273.262"/>
<polygon fill="black" stroke="black" points="1015.18,-271.024 1006.18,-265.423 1009.72,-275.41 1015.18,-271.024"/>
</g>
<!-- V&#45;ATPase&#45;&gt;V&#45;ATPase_Nsp6 -->
<g id="edge33" class="edge"><title>V&#45;ATPase&#45;&gt;V&#45;ATPase_Nsp6</title>
<path fill="none" stroke="black" d="M930.704,-233.717C925.738,-227.462 919.623,-220.195 913.577,-214.128 897.965,-198.46 878.875,-182.578 863.489,-170.47"/>
<polygon fill="black" stroke="black" points="865.411,-167.531 855.368,-164.158 861.115,-173.058 865.411,-167.531"/>
</g>
<!-- TOM complex -->
<g id="node29" class="node"><title>TOM complex</title>
<ellipse fill="none" stroke="black" cx="290.577" cy="-351.422" rx="23.1702" ry="23.1702"/>
<text text-anchor="middle" x="290.577" y="-350.222" font-family="Times,serif" font-size="4.00">TOM complex</text>
</g>
<!-- TOM complex&#45;&gt;Nsp4 -->
<g id="edge34" class="edge"><title>TOM complex&#45;&gt;Nsp4</title>
<path fill="none" stroke="black" d="M290.577,-327.664C290.577,-312.732 290.577,-293.125 290.577,-277.365"/>
<polygon fill="black" stroke="black" points="294.077,-277.173 290.577,-267.173 287.077,-277.173 294.077,-277.173"/>
</g>
<!-- Nsp4 (+) -->
<g id="node30" class="node"><title>Nsp4 (+)</title>
<ellipse fill="none" stroke="black" cx="182.577" cy="-351.422" rx="18.0625" ry="18.0625"/>
<text text-anchor="middle" x="182.577" y="-350.222" font-family="Times,serif" font-size="4.00">Nsp4 (+)</text>
</g>
<!-- Nsp4 (+)&#45;&gt;Nsp4 -->
<g id="edge36" class="edge"><title>Nsp4 (+)&#45;&gt;Nsp4</title>
<path fill="none" stroke="black" d="M196.815,-340.236C213.627,-327.889 242.023,-306.007 263.577,-284.132 267.158,-280.498 270.733,-276.408 274.055,-272.358"/>
<polygon fill="black" stroke="black" points="276.997,-274.28 280.438,-264.259 271.499,-269.947 276.997,-274.28"/>
</g>
<!-- Nsp4 (&#45;) -->
<g id="node47" class="node"><title>Nsp4 (&#45;)</title>
<ellipse fill="none" stroke="black" cx="182.577" cy="-249.13" rx="18" ry="18"/>
<text text-anchor="middle" x="182.577" y="-247.93" font-family="Times,serif" font-size="4.00">Nsp4 (&#45;)</text>
</g>
<!-- Nsp4 (+)&#45;&gt;Nsp4 (&#45;) -->
<g id="edge35" class="edge"><title>Nsp4 (+)&#45;&gt;Nsp4 (&#45;)</title>
<path fill="none" stroke="black" d="M177.411,-333.86C175.646,-318.327 175.356,-294.836 176.54,-276.685"/>
<polygon fill="black" stroke="black" points="180.028,-276.982 177.408,-266.716 173.054,-276.375 180.028,-276.982"/>
</g>
<!-- Selinexor -->
<g id="node31" class="node"><title>Selinexor</title>
<ellipse fill="none" stroke="black" cx="19.5772" cy="-249.13" rx="18.6233" ry="18.6233"/>
<text text-anchor="middle" x="19.5772" y="-247.93" font-family="Times,serif" font-size="4.00">Selinexor</text>
</g>
<!-- Selinexor&#45;&gt;NUP210_Selinexor -->
<g id="edge37" class="edge"><title>Selinexor&#45;&gt;NUP210_Selinexor</title>
<path fill="none" stroke="black" d="M21.0074,-230.485C22.0006,-218.23 23.3605,-201.454 24.5854,-186.341"/>
<polygon fill="black" stroke="black" points="28.0862,-186.471 25.4057,-176.221 21.1091,-185.906 28.0862,-186.471"/>
</g>
<!-- Nsp3 (&#45;) -->
<g id="node34" class="node"><title>Nsp3 (&#45;)</title>
<ellipse fill="none" stroke="black" cx="462.577" cy="-249.13" rx="18" ry="18"/>
<text text-anchor="middle" x="462.577" y="-247.93" font-family="Times,serif" font-size="4.00">Nsp3 (&#45;)</text>
</g>
<!-- Nsp3 (+) -->
<g id="node39" class="node"><title>Nsp3 (+)</title>
<ellipse fill="none" stroke="black" cx="462.577" cy="-351.422" rx="18.0625" ry="18.0625"/>
<text text-anchor="middle" x="462.577" y="-350.222" font-family="Times,serif" font-size="4.00">Nsp3 (+)</text>
</g>
<!-- Nsp3 (&#45;)&#45;&gt;Nsp3 (+) -->
<g id="edge38" class="edge"><title>Nsp3 (&#45;)&#45;&gt;Nsp3 (+)</title>
<path fill="none" stroke="black" d="M467.746,-266.716C469.509,-282.258 469.798,-305.75 468.612,-323.895"/>
<polygon fill="black" stroke="black" points="465.125,-323.594 467.743,-333.86 472.099,-324.202 465.125,-323.594"/>
</g>
<!-- M -->
<g id="node35" class="node"><title>M</title>
<ellipse fill="none" stroke="black" cx="1051.58" cy="-249.13" rx="18" ry="18"/>
<text text-anchor="middle" x="1051.58" y="-247.93" font-family="Times,serif" font-size="4.00">M</text>
</g>
<!-- M&#45;&gt;SLC6A15_M -->
<g id="edge39" class="edge"><title>M&#45;&gt;SLC6A15_M</title>
<path fill="none" stroke="black" d="M1055.99,-231.387C1059.73,-217.177 1065.19,-196.437 1069.69,-179.377"/>
<polygon fill="black" stroke="black" points="1073.17,-179.884 1072.34,-169.322 1066.41,-178.1 1073.17,-179.884"/>
</g>
<!-- IDE -->
<g id="node36" class="node"><title>IDE</title>
<ellipse fill="none" stroke="black" cx="128.577" cy="-249.13" rx="18" ry="18"/>
<text text-anchor="middle" x="128.577" y="-247.93" font-family="Times,serif" font-size="4.00">IDE</text>
</g>
<!-- IDE&#45;&gt;Nsp4_IDE -->
<g id="edge40" class="edge"><title>IDE&#45;&gt;Nsp4_IDE</title>
<path fill="none" stroke="black" d="M136.233,-232.708C143.935,-217.195 155.94,-193.013 165.034,-174.696"/>
<polygon fill="black" stroke="black" points="168.174,-176.242 169.486,-165.728 161.904,-173.129 168.174,-176.242"/>
</g>
<!-- Several drugs -->
<g id="node37" class="node"><title>Several drugs</title>
<ellipse fill="none" stroke="black" cx="575.577" cy="-249.13" rx="22.6101" ry="22.6101"/>
<text text-anchor="middle" x="575.577" y="-247.93" font-family="Times,serif" font-size="4.00">Several drugs</text>
</g>
<!-- Several drugs&#45;&gt;SIGMAR1_Drugs -->
<g id="edge41" class="edge"><title>Several drugs&#45;&gt;SIGMAR1_Drugs</title>
<path fill="none" stroke="black" d="M578.906,-226.225C580.763,-214.006 583.12,-198.495 585.23,-184.617"/>
<polygon fill="black" stroke="black" points="588.739,-184.816 586.782,-174.404 581.819,-183.765 588.739,-184.816"/>
</g>
<!-- Nsp3 (+)&#45;&gt;Nsp3 -->
<g id="edge42" class="edge"><title>Nsp3 (+)&#45;&gt;Nsp3</title>
<path fill="none" stroke="black" d="M470.779,-335.189C479.461,-319.064 493.293,-293.375 503.486,-274.444"/>
<polygon fill="black" stroke="black" points="506.639,-275.97 508.299,-265.506 500.476,-272.651 506.639,-275.97"/>
</g>
<!-- Nsp3 (+)&#45;&gt;Nsp3 (&#45;) -->
<g id="edge43" class="edge"><title>Nsp3 (+)&#45;&gt;Nsp3 (&#45;)</title>
<path fill="none" stroke="black" d="M457.411,-333.86C455.646,-318.327 455.356,-294.836 456.54,-276.685"/>
<polygon fill="black" stroke="black" points="460.028,-276.982 457.408,-266.716 453.054,-276.375 460.028,-276.982"/>
</g>
<!-- F1 -->
<g id="node40" class="node"><title>F1</title>
<ellipse fill="none" stroke="black" cx="743.577" cy="-351.422" rx="18" ry="18"/>
<text text-anchor="middle" x="743.577" y="-350.222" font-family="Times,serif" font-size="4.00">F1</text>
</g>
<!-- F1&#45;&gt;F&#45;ATPase -->
<g id="edge44" class="edge"><title>F1&#45;&gt;F&#45;ATPase</title>
<path fill="none" stroke="black" d="M735.376,-335.189C726.744,-319.157 713.022,-293.673 702.846,-274.775"/>
<polygon fill="black" stroke="black" points="705.857,-272.982 698.034,-265.837 699.693,-276.301 705.857,-272.982"/>
</g>
<!-- SLC6A15_Orf9c -->
<g id="node41" class="node"><title>SLC6A15_Orf9c</title>
<ellipse fill="none" stroke="black" cx="1168.58" cy="-148.43" rx="24.8512" ry="24.8512"/>
<text text-anchor="middle" x="1168.58" y="-147.23" font-family="Times,serif" font-size="4.00">SLC6A15_Orf9c</text>
</g>
<!-- TIM complex -->
<g id="node42" class="node"><title>TIM complex</title>
<ellipse fill="none" stroke="black" cx="404.577" cy="-249.13" rx="22.05" ry="22.05"/>
<text text-anchor="middle" x="404.577" y="-247.93" font-family="Times,serif" font-size="4.00">TIM complex</text>
</g>
<!-- TIM complex&#45;&gt;TIM complex_Nsp4 -->
<g id="edge45" class="edge"><title>TIM complex&#45;&gt;TIM complex_Nsp4</title>
<path fill="none" stroke="black" d="M402.841,-226.714C401.913,-215.261 400.742,-200.816 399.665,-187.522"/>
<polygon fill="black" stroke="black" points="403.123,-186.871 398.827,-177.186 396.146,-187.436 403.123,-186.871"/>
</g>
<!-- Nsp6 (&#45;)&#45;&gt;Nsp6 (+) -->
<g id="edge46" class="edge"><title>Nsp6 (&#45;)&#45;&gt;Nsp6 (+)</title>
<path fill="none" stroke="black" d="M803.746,-266.716C805.509,-282.258 805.798,-305.75 804.612,-323.895"/>
<polygon fill="black" stroke="black" points="801.125,-323.594 803.743,-333.86 808.099,-324.202 801.125,-323.594"/>
</g>
<!-- Loratadine -->
<g id="node44" class="node"><title>Loratadine</title>
<ellipse fill="none" stroke="black" cx="1269.58" cy="-249.13" rx="19.7452" ry="19.7452"/>
<text text-anchor="middle" x="1269.58" y="-247.93" font-family="Times,serif" font-size="4.00">Loratadine</text>
</g>
<!-- SLC6A15_Loratadine -->
<g id="node45" class="node"><title>SLC6A15_Loratadine</title>
<ellipse fill="none" stroke="black" cx="1259.58" cy="-148.43" rx="29.8983" ry="29.8983"/>
<text text-anchor="middle" x="1259.58" y="-147.23" font-family="Times,serif" font-size="4.00">SLC6A15_Loratadine</text>
</g>
<!-- Loratadine&#45;&gt;SLC6A15_Loratadine -->
<g id="edge47" class="edge"><title>Loratadine&#45;&gt;SLC6A15_Loratadine</title>
<path fill="none" stroke="black" d="M1267.7,-229.565C1266.51,-217.882 1264.94,-202.366 1263.5,-188.101"/>
<polygon fill="black" stroke="black" points="1266.96,-187.603 1262.47,-178.007 1260,-188.309 1266.96,-187.603"/>
</g>
<!-- Nsp4 (&#45;)&#45;&gt;Nsp4 (+) -->
<g id="edge48" class="edge"><title>Nsp4 (&#45;)&#45;&gt;Nsp4 (+)</title>
<path fill="none" stroke="black" d="M187.746,-266.716C189.509,-282.258 189.798,-305.75 188.612,-323.895"/>
<polygon fill="black" stroke="black" points="185.125,-323.594 187.743,-333.86 192.099,-324.202 185.125,-323.594"/>
</g>
<!-- SLC6A15 -->
<g id="node50" class="node"><title>SLC6A15</title>
<ellipse fill="none" stroke="black" cx="1159.58" cy="-249.13" rx="18.0625" ry="18.0625"/>
<text text-anchor="middle" x="1159.58" y="-247.93" font-family="Times,serif" font-size="4.00">SLC6A15</text>
</g>
<!-- SLC6A15&#45;&gt;SLC6A15_M -->
<g id="edge50" class="edge"><title>SLC6A15&#45;&gt;SLC6A15_M</title>
<path fill="none" stroke="black" d="M1148.91,-234.48C1143.98,-228.237 1138.03,-220.768 1132.58,-214.128 1121.25,-200.339 1108.33,-185.123 1097.87,-172.913"/>
<polygon fill="black" stroke="black" points="1100.23,-170.298 1091.06,-164.995 1094.92,-174.86 1100.23,-170.298"/>
</g>
<!-- SLC6A15&#45;&gt;SLC6A15_Orf9c -->
<g id="edge52" class="edge"><title>SLC6A15&#45;&gt;SLC6A15_Orf9c</title>
<path fill="none" stroke="black" d="M1161.14,-230.938C1162.33,-217.89 1164.01,-199.529 1165.47,-183.536"/>
<polygon fill="black" stroke="black" points="1168.96,-183.725 1166.39,-173.449 1161.99,-183.089 1168.96,-183.725"/>
</g>
<!-- SLC6A15&#45;&gt;SLC6A15_Loratadine -->
<g id="edge49" class="edge"><title>SLC6A15&#45;&gt;SLC6A15_Loratadine</title>
<path fill="none" stroke="black" d="M1169.83,-234.109C1174.67,-227.792 1180.67,-220.367 1186.58,-214.128 1199.82,-200.152 1215.7,-185.829 1229.26,-174.225"/>
<polygon fill="black" stroke="black" points="1231.56,-176.859 1236.94,-167.729 1227.04,-171.515 1231.56,-176.859"/>
</g>
<!-- SLC6A15&#45;&gt;SLC6A15_Nsp6 -->
<g id="edge51" class="edge"><title>SLC6A15&#45;&gt;SLC6A15_Nsp6</title>
<path fill="none" stroke="black" d="M1150.43,-233.494C1145.73,-226.899 1139.54,-219.421 1132.58,-214.128 1099.92,-189.295 1083.35,-198.21 1047.58,-178.128 1043.33,-175.744 1038.99,-172.998 1034.81,-170.171"/>
<polygon fill="black" stroke="black" points="1036.73,-167.24 1026.54,-164.342 1032.7,-172.963 1036.73,-167.24"/>
</g>
<!-- Orf9c -->
<g id="node51" class="node"><title>Orf9c</title>
<ellipse fill="none" stroke="black" cx="1213.58" cy="-249.13" rx="18" ry="18"/>
<text text-anchor="middle" x="1213.58" y="-247.93" font-family="Times,serif" font-size="4.00">Orf9c</text>
</g>
<!-- Orf9c&#45;&gt;SLC6A15_Orf9c -->
<g id="edge53" class="edge"><title>Orf9c&#45;&gt;SLC6A15_Orf9c</title>
<path fill="none" stroke="black" d="M1206.35,-232.272C1200.02,-218.387 1190.63,-197.804 1182.8,-180.628"/>
<polygon fill="black" stroke="black" points="1185.97,-179.148 1178.64,-171.502 1179.6,-182.052 1185.97,-179.148"/>
</g>
<!-- ALG11 -->
<g id="node52" class="node"><title>ALG11</title>
<ellipse fill="none" stroke="black" cx="236.577" cy="-249.13" rx="18" ry="18"/>
<text text-anchor="middle" x="236.577" y="-247.93" font-family="Times,serif" font-size="4.00">ALG11</text>
</g>
<!-- ALG11&#45;&gt;Nsp4_ALG11 -->
<g id="edge54" class="edge"><title>ALG11&#45;&gt;Nsp4_ALG11</title>
<path fill="none" stroke="black" d="M237.274,-230.938C237.836,-217.074 238.641,-197.213 239.315,-180.567"/>
<polygon fill="black" stroke="black" points="242.828,-180.322 239.736,-170.188 235.834,-180.039 242.828,-180.322"/>
</g>
<!-- Bafilomycin A1 -->
<g id="node53" class="node"><title>Bafilomycin A1</title>
<ellipse fill="none" stroke="black" cx="864.577" cy="-351.422" rx="24.8513" ry="24.8512"/>
<text text-anchor="middle" x="864.577" y="-350.222" font-family="Times,serif" font-size="4.00">Bafilomycin A1</text>
</g>
<!-- Bafilomycin A1&#45;&gt;ATP6AP1_Bafilomycin A1 -->
<g id="edge55" class="edge"><title>Bafilomycin A1&#45;&gt;ATP6AP1_Bafilomycin A1</title>
<path fill="none" stroke="black" d="M865.775,-326.399C866.257,-316.727 866.829,-305.256 867.381,-294.187"/>
<polygon fill="black" stroke="black" points="870.876,-294.359 867.879,-284.197 863.885,-294.01 870.876,-294.359"/>
</g>
</g>
</svg>
