<?xml version="1.0" encoding="UTF-8" standalone="no"?>
<!DOCTYPE svg PUBLIC "-//W3C//DTD SVG 1.1//EN"
 "http://www.w3.org/Graphics/SVG/1.1/DTD/svg11.dtd">
<!-- Generated by graphviz version 2.38.0 (20140413.2041)
 -->
<!-- Title: G Pages: 1 -->
<svg width="1311pt" height="391pt"
 viewBox="0.00 0.00 1310.70 390.71" xmlns="http://www.w3.org/2000/svg" xmlns:xlink="http://www.w3.org/1999/xlink">
<g id="graph0" class="graph" transform="scale(1 1) rotate(0) translate(4 386.711)">
<title>G</title>
<polygon fill="white" stroke="none" points="-4,4 -4,-386.711 1306.7,-386.711 1306.7,4 -4,4"/>
<!-- Nsp3_Nsp4_Nsp6 -->
<g id="node1" class="node"><title>Nsp3_Nsp4_Nsp6</title>
<ellipse fill="none" stroke="black" cx="895" cy="-148.43" rx="26.533" ry="26.533"/>
<text text-anchor="middle" x="895" y="-147.23" font-family="Times,serif" font-size="4.00">Nsp3_Nsp4_Nsp6</text>
</g>
<!-- Plasma membrane organization -->
<g id="node2" class="node"><title>Plasma membrane organization</title>
<ellipse fill="none" stroke="black" cx="895" cy="-41.3657" rx="41.2319" ry="41.2319"/>
<text text-anchor="middle" x="895" y="-40.1657" font-family="Times,serif" font-size="4.00">Plasma membrane organization</text>
</g>
<!-- Nsp3_Nsp4_Nsp6&#45;&gt;Plasma membrane organization -->
<g id="edge1" class="edge"><title>Nsp3_Nsp4_Nsp6&#45;&gt;Plasma membrane organization</title>
<path fill="none" stroke="black" d="M895,-121.728C895,-113.071 895,-103.086 895,-93.1815"/>
<polygon fill="black" stroke="black" points="898.5,-92.9487 895,-82.9487 891.5,-92.9488 898.5,-92.9487"/>
</g>
<!-- Nsp4_ALG11 -->
<g id="node3" class="node"><title>Nsp4_ALG11</title>
<ellipse fill="none" stroke="black" cx="29" cy="-148.43" rx="21.9898" ry="21.9898"/>
<text text-anchor="middle" x="29" y="-147.23" font-family="Times,serif" font-size="4.00">Nsp4_ALG11</text>
</g>
<!-- Nsp3 (&#45;) -->
<g id="node4" class="node"><title>Nsp3 (&#45;)</title>
<ellipse fill="none" stroke="black" cx="1003" cy="-249.13" rx="18" ry="18"/>
<text text-anchor="middle" x="1003" y="-247.93" font-family="Times,serif" font-size="4.00">Nsp3 (&#45;)</text>
</g>
<!-- Nsp3 (+) -->
<g id="node42" class="node"><title>Nsp3 (+)</title>
<ellipse fill="none" stroke="black" cx="976" cy="-351.422" rx="18.0625" ry="18.0625"/>
<text text-anchor="middle" x="976" y="-350.222" font-family="Times,serif" font-size="4.00">Nsp3 (+)</text>
</g>
<!-- Nsp3 (&#45;)&#45;&gt;Nsp3 (+) -->
<g id="edge2" class="edge"><title>Nsp3 (&#45;)&#45;&gt;Nsp3 (+)</title>
<path fill="none" stroke="black" d="M1003.6,-267.346C1001.02,-283.506 994.686,-307.844 988.461,-326.006"/>
<polygon fill="black" stroke="black" points="985.092,-325.029 984.939,-335.623 991.665,-327.437 985.092,-325.029"/>
</g>
<!-- ATP6AP1_Bafilomycin A1 -->
<g id="node5" class="node"><title>ATP6AP1_Bafilomycin A1</title>
<ellipse fill="none" stroke="black" cx="597" cy="-249.13" rx="35.0036" ry="35.0036"/>
<text text-anchor="middle" x="597" y="-247.93" font-family="Times,serif" font-size="4.00">ATP6AP1_Bafilomycin A1</text>
</g>
<!-- Nsp4_IDE -->
<g id="node6" class="node"><title>Nsp4_IDE</title>
<ellipse fill="none" stroke="black" cx="100" cy="-148.43" rx="19.1842" ry="19.1842"/>
<text text-anchor="middle" x="100" y="-147.23" font-family="Times,serif" font-size="4.00">Nsp4_IDE</text>
</g>
<!-- Nsp4 -->
<g id="node7" class="node"><title>Nsp4</title>
<ellipse fill="none" stroke="black" cx="236" cy="-249.13" rx="18" ry="18"/>
<text text-anchor="middle" x="236" y="-247.93" font-family="Times,serif" font-size="4.00">Nsp4</text>
</g>
<!-- Nsp4&#45;&gt;Nsp3_Nsp4_Nsp6 -->
<g id="edge8" class="edge"><title>Nsp4&#45;&gt;Nsp3_Nsp4_Nsp6</title>
<path fill="none" stroke="black" d="M244.205,-232.729C248.762,-225.789 255.115,-218.244 263,-214.128 376.895,-154.69 716.239,-212.596 840,-178.128 848.188,-175.848 856.554,-172.247 864.21,-168.355"/>
<polygon fill="black" stroke="black" points="866.002,-171.365 873.138,-163.534 862.676,-165.206 866.002,-171.365"/>
</g>
<!-- Nsp4&#45;&gt;Nsp4_ALG11 -->
<g id="edge3" class="edge"><title>Nsp4&#45;&gt;Nsp4_ALG11</title>
<path fill="none" stroke="black" d="M227.177,-233.034C222.552,-226.337 216.322,-218.908 209,-214.128 156.282,-179.716 129.414,-203.957 72,-178.128 65.9839,-175.422 59.8779,-171.904 54.2293,-168.264"/>
<polygon fill="black" stroke="black" points="56.0467,-165.267 45.8085,-162.541 52.1122,-171.057 56.0467,-165.267"/>
</g>
<!-- Nsp4&#45;&gt;Nsp4_IDE -->
<g id="edge4" class="edge"><title>Nsp4&#45;&gt;Nsp4_IDE</title>
<path fill="none" stroke="black" d="M226.739,-233.639C222.018,-227.076 215.834,-219.583 209,-214.128 180.101,-191.064 165.043,-198.214 134,-178.128 129.764,-175.388 125.477,-172.178 121.44,-168.916"/>
<polygon fill="black" stroke="black" points="123.496,-166.071 113.601,-162.282 118.974,-171.414 123.496,-166.071"/>
</g>
<!-- Nsp4_NUP210 -->
<g id="node16" class="node"><title>Nsp4_NUP210</title>
<ellipse fill="none" stroke="black" cx="320" cy="-148.43" rx="23.1702" ry="23.1702"/>
<text text-anchor="middle" x="320" y="-147.23" font-family="Times,serif" font-size="4.00">Nsp4_NUP210</text>
</g>
<!-- Nsp4&#45;&gt;Nsp4_NUP210 -->
<g id="edge5" class="edge"><title>Nsp4&#45;&gt;Nsp4_NUP210</title>
<path fill="none" stroke="black" d="M246.616,-234.435C251.529,-228.183 257.486,-220.719 263,-214.128 274.347,-200.566 287.358,-185.744 298.082,-173.713"/>
<polygon fill="black" stroke="black" points="300.699,-176.038 304.759,-166.252 295.482,-171.37 300.699,-176.038"/>
</g>
<!-- Nsp4_DNAJC11 -->
<g id="node29" class="node"><title>Nsp4_DNAJC11</title>
<ellipse fill="none" stroke="black" cx="168" cy="-148.43" rx="24.8512" ry="24.8512"/>
<text text-anchor="middle" x="168" y="-147.23" font-family="Times,serif" font-size="4.00">Nsp4_DNAJC11</text>
</g>
<!-- Nsp4&#45;&gt;Nsp4_DNAJC11 -->
<g id="edge7" class="edge"><title>Nsp4&#45;&gt;Nsp4_DNAJC11</title>
<path fill="none" stroke="black" d="M226.257,-233.989C216.176,-219.356 200.157,-196.105 187.466,-177.685"/>
<polygon fill="black" stroke="black" points="190.279,-175.599 181.724,-169.35 184.515,-179.57 190.279,-175.599"/>
</g>
<!-- TIM complex_Nsp4 -->
<g id="node36" class="node"><title>TIM complex_Nsp4</title>
<ellipse fill="none" stroke="black" cx="243" cy="-148.43" rx="28.7763" ry="28.7763"/>
<text text-anchor="middle" x="243" y="-147.23" font-family="Times,serif" font-size="4.00">TIM complex_Nsp4</text>
</g>
<!-- Nsp4&#45;&gt;TIM complex_Nsp4 -->
<g id="edge6" class="edge"><title>Nsp4&#45;&gt;TIM complex_Nsp4</title>
<path fill="none" stroke="black" d="M237.219,-230.938C238.072,-218.911 239.245,-202.372 240.312,-187.333"/>
<polygon fill="black" stroke="black" points="243.812,-187.458 241.028,-177.235 236.829,-186.963 243.812,-187.458"/>
</g>
<!-- ATP6AP1 -->
<g id="node8" class="node"><title>ATP6AP1</title>
<ellipse fill="none" stroke="black" cx="599" cy="-351.422" rx="18.0625" ry="18.0625"/>
<text text-anchor="middle" x="599" y="-350.222" font-family="Times,serif" font-size="4.00">ATP6AP1</text>
</g>
<!-- ATP6AP1&#45;&gt;ATP6AP1_Bafilomycin A1 -->
<g id="edge9" class="edge"><title>ATP6AP1&#45;&gt;ATP6AP1_Bafilomycin A1</title>
<path fill="none" stroke="black" d="M598.652,-332.952C598.439,-322.308 598.158,-308.186 597.887,-294.622"/>
<polygon fill="black" stroke="black" points="601.383,-294.354 597.684,-284.426 594.384,-294.493 601.383,-294.354"/>
</g>
<!-- V&#45;ATPase -->
<g id="node17" class="node"><title>V&#45;ATPase</title>
<ellipse fill="none" stroke="black" cx="669" cy="-249.13" rx="18.6233" ry="18.6233"/>
<text text-anchor="middle" x="669" y="-247.93" font-family="Times,serif" font-size="4.00">V&#45;ATPase</text>
</g>
<!-- ATP6AP1&#45;&gt;V&#45;ATPase -->
<g id="edge10" class="edge"><title>ATP6AP1&#45;&gt;V&#45;ATPase</title>
<path fill="none" stroke="black" d="M609.029,-336.052C620.503,-319.613 639.448,-292.47 652.975,-273.09"/>
<polygon fill="black" stroke="black" points="655.908,-275.002 658.762,-264.799 650.168,-270.996 655.908,-275.002"/>
</g>
<!-- NUP210 -->
<g id="node9" class="node"><title>NUP210</title>
<ellipse fill="none" stroke="black" cx="352" cy="-249.13" rx="18" ry="18"/>
<text text-anchor="middle" x="352" y="-247.93" font-family="Times,serif" font-size="4.00">NUP210</text>
</g>
<!-- NUP210&#45;&gt;Nsp4_NUP210 -->
<g id="edge11" class="edge"><title>NUP210&#45;&gt;Nsp4_NUP210</title>
<path fill="none" stroke="black" d="M346.716,-231.832C342.205,-217.918 335.59,-197.516 330.072,-180.495"/>
<polygon fill="black" stroke="black" points="333.387,-179.371 326.973,-170.938 326.728,-181.53 333.387,-179.371"/>
</g>
<!-- NUP210_Selinexor -->
<g id="node26" class="node"><title>NUP210_Selinexor</title>
<ellipse fill="none" stroke="black" cx="398" cy="-148.43" rx="27.6545" ry="27.6545"/>
<text text-anchor="middle" x="398" y="-147.23" font-family="Times,serif" font-size="4.00">NUP210_Selinexor</text>
</g>
<!-- NUP210&#45;&gt;NUP210_Selinexor -->
<g id="edge12" class="edge"><title>NUP210&#45;&gt;NUP210_Selinexor</title>
<path fill="none" stroke="black" d="M359.391,-232.272C365.547,-219.062 374.53,-199.79 382.281,-183.157"/>
<polygon fill="black" stroke="black" points="385.621,-184.277 386.673,-173.735 379.276,-181.32 385.621,-184.277"/>
</g>
<!-- Orf9c -->
<g id="node10" class="node"><title>Orf9c</title>
<ellipse fill="none" stroke="black" cx="1221" cy="-249.13" rx="18" ry="18"/>
<text text-anchor="middle" x="1221" y="-247.93" font-family="Times,serif" font-size="4.00">Orf9c</text>
</g>
<!-- SLC6A15_Orf9c -->
<g id="node38" class="node"><title>SLC6A15_Orf9c</title>
<ellipse fill="none" stroke="black" cx="1193" cy="-148.43" rx="24.8512" ry="24.8512"/>
<text text-anchor="middle" x="1193" y="-147.23" font-family="Times,serif" font-size="4.00">SLC6A15_Orf9c</text>
</g>
<!-- Orf9c&#45;&gt;SLC6A15_Orf9c -->
<g id="edge13" class="edge"><title>Orf9c&#45;&gt;SLC6A15_Orf9c</title>
<path fill="none" stroke="black" d="M1216.25,-231.387C1212.45,-217.996 1207.01,-198.809 1202.34,-182.365"/>
<polygon fill="black" stroke="black" points="1205.66,-181.222 1199.56,-172.557 1198.92,-183.133 1205.66,-181.222"/>
</g>
<!-- DNAJC11 -->
<g id="node11" class="node"><title>DNAJC11</title>
<ellipse fill="none" stroke="black" cx="127" cy="-249.13" rx="18.6233" ry="18.6233"/>
<text text-anchor="middle" x="127" y="-247.93" font-family="Times,serif" font-size="4.00">DNAJC11</text>
</g>
<!-- DNAJC11&#45;&gt;Nsp4_DNAJC11 -->
<g id="edge14" class="edge"><title>DNAJC11&#45;&gt;Nsp4_DNAJC11</title>
<path fill="none" stroke="black" d="M133.77,-231.832C139.474,-218.101 147.803,-198.052 154.816,-181.168"/>
<polygon fill="black" stroke="black" points="158.16,-182.242 158.764,-171.665 151.695,-179.557 158.16,-182.242"/>
</g>
<!-- Bafilomycin A1 -->
<g id="node12" class="node"><title>Bafilomycin A1</title>
<ellipse fill="none" stroke="black" cx="538" cy="-351.422" rx="24.8513" ry="24.8512"/>
<text text-anchor="middle" x="538" y="-350.222" font-family="Times,serif" font-size="4.00">Bafilomycin A1</text>
</g>
<!-- Bafilomycin A1&#45;&gt;ATP6AP1_Bafilomycin A1 -->
<g id="edge15" class="edge"><title>Bafilomycin A1&#45;&gt;ATP6AP1_Bafilomycin A1</title>
<path fill="none" stroke="black" d="M550.225,-329.641C557.202,-317.781 566.17,-302.536 574.384,-288.574"/>
<polygon fill="black" stroke="black" points="577.591,-290.026 579.645,-279.632 571.557,-286.476 577.591,-290.026"/>
</g>
<!-- ATP5MG -->
<g id="node13" class="node"><title>ATP5MG</title>
<ellipse fill="none" stroke="black" cx="1138" cy="-351.422" rx="18" ry="18"/>
<text text-anchor="middle" x="1138" y="-350.222" font-family="Times,serif" font-size="4.00">ATP5MG</text>
</g>
<!-- F&#45;ATPase -->
<g id="node45" class="node"><title>F&#45;ATPase</title>
<ellipse fill="none" stroke="black" cx="1058" cy="-249.13" rx="18.6233" ry="18.6233"/>
<text text-anchor="middle" x="1058" y="-247.93" font-family="Times,serif" font-size="4.00">F&#45;ATPase</text>
</g>
<!-- ATP5MG&#45;&gt;F&#45;ATPase -->
<g id="edge16" class="edge"><title>ATP5MG&#45;&gt;F&#45;ATPase</title>
<path fill="none" stroke="black" d="M1127.21,-336.896C1113.93,-320.241 1091.19,-291.735 1075.42,-271.964"/>
<polygon fill="black" stroke="black" points="1078.1,-269.72 1069.13,-264.085 1072.63,-274.085 1078.1,-269.72"/>
</g>
<!-- Selinexor -->
<g id="node14" class="node"><title>Selinexor</title>
<ellipse fill="none" stroke="black" cx="407" cy="-249.13" rx="18.6233" ry="18.6233"/>
<text text-anchor="middle" x="407" y="-247.93" font-family="Times,serif" font-size="4.00">Selinexor</text>
</g>
<!-- Selinexor&#45;&gt;NUP210_Selinexor -->
<g id="edge17" class="edge"><title>Selinexor&#45;&gt;NUP210_Selinexor</title>
<path fill="none" stroke="black" d="M405.391,-230.485C404.274,-218.23 402.744,-201.454 401.366,-186.341"/>
<polygon fill="black" stroke="black" points="404.837,-185.862 400.443,-176.221 397.866,-186.498 404.837,-185.862"/>
</g>
<!-- Nsp4 (+) -->
<g id="node15" class="node"><title>Nsp4 (+)</title>
<ellipse fill="none" stroke="black" cx="182" cy="-351.422" rx="18.0625" ry="18.0625"/>
<text text-anchor="middle" x="182" y="-350.222" font-family="Times,serif" font-size="4.00">Nsp4 (+)</text>
</g>
<!-- Nsp4 (+)&#45;&gt;Nsp4 -->
<g id="edge18" class="edge"><title>Nsp4 (+)&#45;&gt;Nsp4</title>
<path fill="none" stroke="black" d="M190.201,-335.189C198.884,-319.064 212.716,-293.375 222.909,-274.444"/>
<polygon fill="black" stroke="black" points="226.062,-275.97 227.721,-265.506 219.899,-272.651 226.062,-275.97"/>
</g>
<!-- Nsp4 (&#45;) -->
<g id="node20" class="node"><title>Nsp4 (&#45;)</title>
<ellipse fill="none" stroke="black" cx="182" cy="-249.13" rx="18" ry="18"/>
<text text-anchor="middle" x="182" y="-247.93" font-family="Times,serif" font-size="4.00">Nsp4 (&#45;)</text>
</g>
<!-- Nsp4 (+)&#45;&gt;Nsp4 (&#45;) -->
<g id="edge19" class="edge"><title>Nsp4 (+)&#45;&gt;Nsp4 (&#45;)</title>
<path fill="none" stroke="black" d="M176.834,-333.86C175.069,-318.327 174.779,-294.836 175.963,-276.685"/>
<polygon fill="black" stroke="black" points="179.451,-276.982 176.831,-266.716 172.477,-276.375 179.451,-276.982"/>
</g>
<!-- V&#45;ATPase_Nsp6 -->
<g id="node25" class="node"><title>V&#45;ATPase_Nsp6</title>
<ellipse fill="none" stroke="black" cx="702" cy="-148.43" rx="24.8513" ry="24.8512"/>
<text text-anchor="middle" x="702" y="-147.23" font-family="Times,serif" font-size="4.00">V&#45;ATPase_Nsp6</text>
</g>
<!-- V&#45;ATPase&#45;&gt;V&#45;ATPase_Nsp6 -->
<g id="edge20" class="edge"><title>V&#45;ATPase&#45;&gt;V&#45;ATPase_Nsp6</title>
<path fill="none" stroke="black" d="M674.598,-231.387C679.106,-217.905 685.578,-198.547 691.1,-182.03"/>
<polygon fill="black" stroke="black" points="694.539,-182.784 694.39,-172.19 687.9,-180.564 694.539,-182.784"/>
</g>
<!-- Several drugs -->
<g id="node18" class="node"><title>Several drugs</title>
<ellipse fill="none" stroke="black" cx="466" cy="-249.13" rx="22.6101" ry="22.6101"/>
<text text-anchor="middle" x="466" y="-247.93" font-family="Times,serif" font-size="4.00">Several drugs</text>
</g>
<!-- SIGMAR1_Drugs -->
<g id="node28" class="node"><title>SIGMAR1_Drugs</title>
<ellipse fill="none" stroke="black" cx="475" cy="-148.43" rx="25.9724" ry="25.9724"/>
<text text-anchor="middle" x="475" y="-147.23" font-family="Times,serif" font-size="4.00">SIGMAR1_Drugs</text>
</g>
<!-- Several drugs&#45;&gt;SIGMAR1_Drugs -->
<g id="edge21" class="edge"><title>Several drugs&#45;&gt;SIGMAR1_Drugs</title>
<path fill="none" stroke="black" d="M467.997,-226.225C469.112,-214.006 470.526,-198.495 471.791,-184.617"/>
<polygon fill="black" stroke="black" points="475.3,-184.681 472.723,-174.404 468.329,-184.045 475.3,-184.681"/>
</g>
<!-- Nsp6 -->
<g id="node19" class="node"><title>Nsp6</title>
<ellipse fill="none" stroke="black" cx="895" cy="-249.13" rx="18" ry="18"/>
<text text-anchor="middle" x="895" y="-247.93" font-family="Times,serif" font-size="4.00">Nsp6</text>
</g>
<!-- Nsp6&#45;&gt;Nsp3_Nsp4_Nsp6 -->
<g id="edge26" class="edge"><title>Nsp6&#45;&gt;Nsp3_Nsp4_Nsp6</title>
<path fill="none" stroke="black" d="M895,-230.938C895,-218.463 895,-201.131 895,-185.656"/>
<polygon fill="black" stroke="black" points="898.5,-185.322 895,-175.322 891.5,-185.322 898.5,-185.322"/>
</g>
<!-- Nsp6_SIGMAR1 -->
<g id="node24" class="node"><title>Nsp6_SIGMAR1</title>
<ellipse fill="none" stroke="black" cx="601" cy="-148.43" rx="24.8513" ry="24.8512"/>
<text text-anchor="middle" x="601" y="-147.23" font-family="Times,serif" font-size="4.00">Nsp6_SIGMAR1</text>
</g>
<!-- Nsp6&#45;&gt;Nsp6_SIGMAR1 -->
<g id="edge23" class="edge"><title>Nsp6&#45;&gt;Nsp6_SIGMAR1</title>
<path fill="none" stroke="black" d="M886.576,-233.12C881.967,-226.274 875.634,-218.693 868,-214.128 790.482,-167.779 754.51,-204.075 668,-178.128 656.094,-174.558 643.461,-169.502 632.411,-164.627"/>
<polygon fill="black" stroke="black" points="633.719,-161.377 623.167,-160.43 630.826,-167.751 633.719,-161.377"/>
</g>
<!-- Nsp6&#45;&gt;V&#45;ATPase_Nsp6 -->
<g id="edge24" class="edge"><title>Nsp6&#45;&gt;V&#45;ATPase_Nsp6</title>
<path fill="none" stroke="black" d="M885.95,-233.363C881.276,-226.738 875.069,-219.274 868,-214.128 831.159,-187.311 814.419,-194.773 772,-178.128 759.582,-173.256 746,-167.732 734.131,-162.842"/>
<polygon fill="black" stroke="black" points="735.207,-159.499 724.628,-158.91 732.531,-165.967 735.207,-159.499"/>
</g>
<!-- P&#45;ATPase_Nsp6 -->
<g id="node34" class="node"><title>P&#45;ATPase_Nsp6</title>
<ellipse fill="none" stroke="black" cx="806" cy="-148.43" rx="24.8513" ry="24.8512"/>
<text text-anchor="middle" x="806" y="-147.23" font-family="Times,serif" font-size="4.00">P&#45;ATPase_Nsp6</text>
</g>
<!-- Nsp6&#45;&gt;P&#45;ATPase_Nsp6 -->
<g id="edge27" class="edge"><title>Nsp6&#45;&gt;P&#45;ATPase_Nsp6</title>
<path fill="none" stroke="black" d="M884.51,-234.327C879.623,-228.053 873.651,-220.602 868,-214.128 856.083,-200.476 842.175,-185.852 830.554,-173.968"/>
<polygon fill="black" stroke="black" points="832.802,-171.263 823.292,-166.592 827.814,-176.174 832.802,-171.263"/>
</g>
<!-- SLC6A15_Nsp6 -->
<g id="node37" class="node"><title>SLC6A15_Nsp6</title>
<ellipse fill="none" stroke="black" cx="1048" cy="-148.43" rx="24.2908" ry="24.2908"/>
<text text-anchor="middle" x="1048" y="-147.23" font-family="Times,serif" font-size="4.00">SLC6A15_Nsp6</text>
</g>
<!-- Nsp6&#45;&gt;SLC6A15_Nsp6 -->
<g id="edge25" class="edge"><title>Nsp6&#45;&gt;SLC6A15_Nsp6</title>
<path fill="none" stroke="black" d="M904.158,-233.508C908.856,-226.915 915.051,-219.436 922,-214.128 954.279,-189.474 970.397,-197.678 1006,-178.128 1010.72,-175.538 1015.57,-172.555 1020.22,-169.513"/>
<polygon fill="black" stroke="black" points="1022.52,-172.181 1028.84,-163.677 1018.6,-166.385 1022.52,-172.181"/>
</g>
<!-- F&#45;ATPase_Nsp6 -->
<g id="node51" class="node"><title>F&#45;ATPase_Nsp6</title>
<ellipse fill="none" stroke="black" cx="972" cy="-148.43" rx="24.8513" ry="24.8512"/>
<text text-anchor="middle" x="972" y="-147.23" font-family="Times,serif" font-size="4.00">F&#45;ATPase_Nsp6</text>
</g>
<!-- Nsp6&#45;&gt;F&#45;ATPase_Nsp6 -->
<g id="edge22" class="edge"><title>Nsp6&#45;&gt;F&#45;ATPase_Nsp6</title>
<path fill="none" stroke="black" d="M905.707,-234.406C917.297,-219.549 936.085,-195.467 950.705,-176.726"/>
<polygon fill="black" stroke="black" points="953.493,-178.842 956.885,-168.805 947.974,-174.537 953.493,-178.842"/>
</g>
<!-- Nsp4 (&#45;)&#45;&gt;Nsp4 (+) -->
<g id="edge28" class="edge"><title>Nsp4 (&#45;)&#45;&gt;Nsp4 (+)</title>
<path fill="none" stroke="black" d="M187.169,-266.716C188.932,-282.258 189.22,-305.75 188.035,-323.895"/>
<polygon fill="black" stroke="black" points="184.548,-323.594 187.166,-333.86 191.521,-324.202 184.548,-323.594"/>
</g>
<!-- TIM complex -->
<g id="node21" class="node"><title>TIM complex</title>
<ellipse fill="none" stroke="black" cx="294" cy="-249.13" rx="22.05" ry="22.05"/>
<text text-anchor="middle" x="294" y="-247.93" font-family="Times,serif" font-size="4.00">TIM complex</text>
</g>
<!-- TIM complex&#45;&gt;TIM complex_Nsp4 -->
<g id="edge29" class="edge"><title>TIM complex&#45;&gt;TIM complex_Nsp4</title>
<path fill="none" stroke="black" d="M284.167,-229.1C277.503,-216.203 268.509,-198.797 260.627,-183.544"/>
<polygon fill="black" stroke="black" points="263.594,-181.661 255.894,-174.384 257.375,-184.875 263.594,-181.661"/>
</g>
<!-- Nsp6 (+) -->
<g id="node22" class="node"><title>Nsp6 (+)</title>
<ellipse fill="none" stroke="black" cx="895" cy="-351.422" rx="18.0625" ry="18.0625"/>
<text text-anchor="middle" x="895" y="-350.222" font-family="Times,serif" font-size="4.00">Nsp6 (+)</text>
</g>
<!-- Nsp6 (+)&#45;&gt;Nsp6 -->
<g id="edge30" class="edge"><title>Nsp6 (+)&#45;&gt;Nsp6</title>
<path fill="none" stroke="black" d="M895,-332.952C895,-317.708 895,-295.328 895,-277.675"/>
<polygon fill="black" stroke="black" points="898.5,-277.399 895,-267.399 891.5,-277.399 898.5,-277.399"/>
</g>
<!-- Nsp6 (&#45;) -->
<g id="node50" class="node"><title>Nsp6 (&#45;)</title>
<ellipse fill="none" stroke="black" cx="841" cy="-249.13" rx="18" ry="18"/>
<text text-anchor="middle" x="841" y="-247.93" font-family="Times,serif" font-size="4.00">Nsp6 (&#45;)</text>
</g>
<!-- Nsp6 (+)&#45;&gt;Nsp6 (&#45;) -->
<g id="edge31" class="edge"><title>Nsp6 (+)&#45;&gt;Nsp6 (&#45;)</title>
<path fill="none" stroke="black" d="M883.209,-337.31C872.731,-321.867 858.29,-295.835 849.046,-276.229"/>
<polygon fill="black" stroke="black" points="852.151,-274.601 844.85,-266.924 845.77,-277.479 852.151,-274.601"/>
</g>
<!-- F0 -->
<g id="node23" class="node"><title>F0</title>
<ellipse fill="none" stroke="black" cx="1030" cy="-351.422" rx="18" ry="18"/>
<text text-anchor="middle" x="1030" y="-350.222" font-family="Times,serif" font-size="4.00">F0</text>
</g>
<!-- F0&#45;&gt;F&#45;ATPase -->
<g id="edge32" class="edge"><title>F0&#45;&gt;F&#45;ATPase</title>
<path fill="none" stroke="black" d="M1034.62,-333.86C1038.93,-318.441 1045.42,-295.181 1050.47,-277.087"/>
<polygon fill="black" stroke="black" points="1053.86,-277.962 1053.18,-267.389 1047.12,-276.079 1053.86,-277.962"/>
</g>
<!-- IDE -->
<g id="node27" class="node"><title>IDE</title>
<ellipse fill="none" stroke="black" cx="72" cy="-249.13" rx="18" ry="18"/>
<text text-anchor="middle" x="72" y="-247.93" font-family="Times,serif" font-size="4.00">IDE</text>
</g>
<!-- IDE&#45;&gt;Nsp4_IDE -->
<g id="edge33" class="edge"><title>IDE&#45;&gt;Nsp4_IDE</title>
<path fill="none" stroke="black" d="M76.7498,-231.387C81.0018,-216.399 87.3142,-194.148 92.2891,-176.611"/>
<polygon fill="black" stroke="black" points="95.6759,-177.497 95.038,-166.921 88.9416,-175.586 95.6759,-177.497"/>
</g>
<!-- P1 -->
<g id="node30" class="node"><title>P1</title>
<ellipse fill="none" stroke="black" cx="841" cy="-351.422" rx="18" ry="18"/>
<text text-anchor="middle" x="841" y="-350.222" font-family="Times,serif" font-size="4.00">P1</text>
</g>
<!-- P&#45;ATPase -->
<g id="node43" class="node"><title>P&#45;ATPase</title>
<ellipse fill="none" stroke="black" cx="786" cy="-249.13" rx="18.6233" ry="18.6233"/>
<text text-anchor="middle" x="786" y="-247.93" font-family="Times,serif" font-size="4.00">P&#45;ATPase</text>
</g>
<!-- P1&#45;&gt;P&#45;ATPase -->
<g id="edge34" class="edge"><title>P1&#45;&gt;P&#45;ATPase</title>
<path fill="none" stroke="black" d="M832.647,-335.189C823.855,-319.157 809.879,-293.673 799.515,-274.775"/>
<polygon fill="black" stroke="black" points="802.491,-272.922 794.614,-265.837 796.353,-276.288 802.491,-272.922"/>
</g>
<!-- Nsp3 -->
<g id="node31" class="node"><title>Nsp3</title>
<ellipse fill="none" stroke="black" cx="949" cy="-249.13" rx="18" ry="18"/>
<text text-anchor="middle" x="949" y="-247.93" font-family="Times,serif" font-size="4.00">Nsp3</text>
</g>
<!-- Nsp3&#45;&gt;Nsp3_Nsp4_Nsp6 -->
<g id="edge35" class="edge"><title>Nsp3&#45;&gt;Nsp3_Nsp4_Nsp6</title>
<path fill="none" stroke="black" d="M940.562,-232.708C933.054,-218.984 921.833,-198.476 912.406,-181.245"/>
<polygon fill="black" stroke="black" points="915.259,-179.167 907.389,-172.074 909.118,-182.527 915.259,-179.167"/>
</g>
<!-- Loratadine -->
<g id="node32" class="node"><title>Loratadine</title>
<ellipse fill="none" stroke="black" cx="1277" cy="-249.13" rx="19.7452" ry="19.7452"/>
<text text-anchor="middle" x="1277" y="-247.93" font-family="Times,serif" font-size="4.00">Loratadine</text>
</g>
<!-- SLC6A15_Loratadine -->
<g id="node48" class="node"><title>SLC6A15_Loratadine</title>
<ellipse fill="none" stroke="black" cx="1273" cy="-148.43" rx="29.8983" ry="29.8983"/>
<text text-anchor="middle" x="1273" y="-147.23" font-family="Times,serif" font-size="4.00">SLC6A15_Loratadine</text>
</g>
<!-- Loratadine&#45;&gt;SLC6A15_Loratadine -->
<g id="edge36" class="edge"><title>Loratadine&#45;&gt;SLC6A15_Loratadine</title>
<path fill="none" stroke="black" d="M1276.23,-229.1C1275.76,-217.583 1275.15,-202.469 1274.58,-188.504"/>
<polygon fill="black" stroke="black" points="1278.07,-187.977 1274.16,-178.127 1271.07,-188.261 1278.07,-187.977"/>
</g>
<!-- P0 -->
<g id="node33" class="node"><title>P0</title>
<ellipse fill="none" stroke="black" cx="733" cy="-351.422" rx="18" ry="18"/>
<text text-anchor="middle" x="733" y="-350.222" font-family="Times,serif" font-size="4.00">P0</text>
</g>
<!-- P0&#45;&gt;P&#45;ATPase -->
<g id="edge37" class="edge"><title>P0&#45;&gt;P&#45;ATPase</title>
<path fill="none" stroke="black" d="M741.05,-335.189C749.522,-319.157 762.989,-293.673 772.976,-274.775"/>
<polygon fill="black" stroke="black" points="776.122,-276.314 777.7,-265.837 769.933,-273.043 776.122,-276.314"/>
</g>
<!-- SLC6A15_M -->
<g id="node35" class="node"><title>SLC6A15_M</title>
<ellipse fill="none" stroke="black" cx="1116" cy="-148.43" rx="21.4286" ry="21.4286"/>
<text text-anchor="middle" x="1116" y="-147.23" font-family="Times,serif" font-size="4.00">SLC6A15_M</text>
</g>
<!-- TOM complex -->
<g id="node39" class="node"><title>TOM complex</title>
<ellipse fill="none" stroke="black" cx="241" cy="-351.422" rx="23.1702" ry="23.1702"/>
<text text-anchor="middle" x="241" y="-350.222" font-family="Times,serif" font-size="4.00">TOM complex</text>
</g>
<!-- TOM complex&#45;&gt;Nsp4 -->
<g id="edge38" class="edge"><title>TOM complex&#45;&gt;Nsp4</title>
<path fill="none" stroke="black" d="M239.865,-327.664C239.121,-312.732 238.144,-293.125 237.358,-277.365"/>
<polygon fill="black" stroke="black" points="240.843,-276.987 236.85,-267.173 233.852,-277.335 240.843,-276.987"/>
</g>
<!-- H+ -->
<g id="node40" class="node"><title>H+</title>
<ellipse fill="none" stroke="black" cx="724" cy="-249.13" rx="18" ry="18"/>
<text text-anchor="middle" x="724" y="-247.93" font-family="Times,serif" font-size="4.00">H+</text>
</g>
<!-- M -->
<g id="node41" class="node"><title>M</title>
<ellipse fill="none" stroke="black" cx="1113" cy="-249.13" rx="18" ry="18"/>
<text text-anchor="middle" x="1113" y="-247.93" font-family="Times,serif" font-size="4.00">M</text>
</g>
<!-- M&#45;&gt;SLC6A15_M -->
<g id="edge39" class="edge"><title>M&#45;&gt;SLC6A15_M</title>
<path fill="none" stroke="black" d="M1113.52,-230.938C1113.95,-216.984 1114.56,-196.953 1115.06,-180.241"/>
<polygon fill="black" stroke="black" points="1118.57,-179.938 1115.38,-169.836 1111.58,-179.725 1118.57,-179.938"/>
</g>
<!-- Nsp3 (+)&#45;&gt;Nsp3 (&#45;) -->
<g id="edge41" class="edge"><title>Nsp3 (+)&#45;&gt;Nsp3 (&#45;)</title>
<path fill="none" stroke="black" d="M975.436,-332.952C978.053,-316.738 984.389,-292.452 990.6,-274.366"/>
<polygon fill="black" stroke="black" points="993.954,-275.388 994.114,-264.794 987.382,-272.975 993.954,-275.388"/>
</g>
<!-- Nsp3 (+)&#45;&gt;Nsp3 -->
<g id="edge40" class="edge"><title>Nsp3 (+)&#45;&gt;Nsp3</title>
<path fill="none" stroke="black" d="M971.541,-333.86C967.34,-318.254 960.976,-294.616 956.081,-276.431"/>
<polygon fill="black" stroke="black" points="959.444,-275.462 953.465,-266.716 952.685,-277.282 959.444,-275.462"/>
</g>
<!-- P&#45;ATPase&#45;&gt;P&#45;ATPase_Nsp6 -->
<g id="edge42" class="edge"><title>P&#45;ATPase&#45;&gt;P&#45;ATPase_Nsp6</title>
<path fill="none" stroke="black" d="M789.576,-230.485C792.23,-217.385 795.932,-199.117 799.149,-183.239"/>
<polygon fill="black" stroke="black" points="802.622,-183.724 801.178,-173.228 795.761,-182.334 802.622,-183.724"/>
</g>
<!-- F1 -->
<g id="node44" class="node"><title>F1</title>
<ellipse fill="none" stroke="black" cx="1084" cy="-351.422" rx="18" ry="18"/>
<text text-anchor="middle" x="1084" y="-350.222" font-family="Times,serif" font-size="4.00">F1</text>
</g>
<!-- F1&#45;&gt;F&#45;ATPase -->
<g id="edge43" class="edge"><title>F1&#45;&gt;F&#45;ATPase</title>
<path fill="none" stroke="black" d="M1079.71,-333.86C1075.71,-318.441 1069.68,-295.181 1064.99,-277.087"/>
<polygon fill="black" stroke="black" points="1068.37,-276.19 1062.47,-267.389 1061.6,-277.947 1068.37,-276.19"/>
</g>
<!-- F&#45;ATPase&#45;&gt;F&#45;ATPase_Nsp6 -->
<g id="edge44" class="edge"><title>F&#45;ATPase&#45;&gt;F&#45;ATPase_Nsp6</title>
<path fill="none" stroke="black" d="M1046.69,-234.124C1041.64,-227.944 1035.58,-220.624 1030,-214.128 1018.82,-201.114 1006.12,-186.892 995.464,-175.104"/>
<polygon fill="black" stroke="black" points="997.766,-172.433 988.456,-167.377 992.581,-177.136 997.766,-172.433"/>
</g>
<!-- ALG11 -->
<g id="node46" class="node"><title>ALG11</title>
<ellipse fill="none" stroke="black" cx="18" cy="-249.13" rx="18" ry="18"/>
<text text-anchor="middle" x="18" y="-247.93" font-family="Times,serif" font-size="4.00">ALG11</text>
</g>
<!-- ALG11&#45;&gt;Nsp4_ALG11 -->
<g id="edge45" class="edge"><title>ALG11&#45;&gt;Nsp4_ALG11</title>
<path fill="none" stroke="black" d="M19.9161,-230.938C21.4612,-217.074 23.6747,-197.213 25.5298,-180.567"/>
<polygon fill="black" stroke="black" points="29.0572,-180.515 26.6865,-170.188 22.1003,-179.739 29.0572,-180.515"/>
</g>
<!-- ATP13A3 -->
<g id="node47" class="node"><title>ATP13A3</title>
<ellipse fill="none" stroke="black" cx="787" cy="-351.422" rx="18.0625" ry="18.0625"/>
<text text-anchor="middle" x="787" y="-350.222" font-family="Times,serif" font-size="4.00">ATP13A3</text>
</g>
<!-- ATP13A3&#45;&gt;P&#45;ATPase -->
<g id="edge46" class="edge"><title>ATP13A3&#45;&gt;P&#45;ATPase</title>
<path fill="none" stroke="black" d="M786.826,-332.952C786.675,-317.801 786.453,-295.601 786.278,-277.998"/>
<polygon fill="black" stroke="black" points="789.775,-277.701 786.176,-267.736 782.776,-277.77 789.775,-277.701"/>
</g>
<!-- SLC6A15 -->
<g id="node49" class="node"><title>SLC6A15</title>
<ellipse fill="none" stroke="black" cx="1167" cy="-249.13" rx="18.0625" ry="18.0625"/>
<text text-anchor="middle" x="1167" y="-247.93" font-family="Times,serif" font-size="4.00">SLC6A15</text>
</g>
<!-- SLC6A15&#45;&gt;SLC6A15_M -->
<g id="edge50" class="edge"><title>SLC6A15&#45;&gt;SLC6A15_M</title>
<path fill="none" stroke="black" d="M1159.03,-232.708C1151.3,-217.749 1139.41,-194.729 1130.08,-176.68"/>
<polygon fill="black" stroke="black" points="1133.17,-175.041 1125.47,-167.763 1126.95,-178.254 1133.17,-175.041"/>
</g>
<!-- SLC6A15&#45;&gt;SLC6A15_Nsp6 -->
<g id="edge47" class="edge"><title>SLC6A15&#45;&gt;SLC6A15_Nsp6</title>
<path fill="none" stroke="black" d="M1157.13,-233.722C1152.37,-227.326 1146.32,-219.947 1140,-214.128 1118.77,-194.597 1109.52,-194.827 1086,-178.128 1082.51,-175.652 1078.88,-173.003 1075.31,-170.354"/>
<polygon fill="black" stroke="black" points="1077.27,-167.451 1067.17,-164.252 1073.07,-173.051 1077.27,-167.451"/>
</g>
<!-- SLC6A15&#45;&gt;SLC6A15_Orf9c -->
<g id="edge49" class="edge"><title>SLC6A15&#45;&gt;SLC6A15_Orf9c</title>
<path fill="none" stroke="black" d="M1171.41,-231.387C1174.91,-218.088 1179.92,-199.069 1184.24,-182.701"/>
<polygon fill="black" stroke="black" points="1187.65,-183.488 1186.81,-172.926 1180.88,-181.705 1187.65,-183.488"/>
</g>
<!-- SLC6A15&#45;&gt;SLC6A15_Loratadine -->
<g id="edge48" class="edge"><title>SLC6A15&#45;&gt;SLC6A15_Loratadine</title>
<path fill="none" stroke="black" d="M1177.14,-234.002C1181.96,-227.663 1187.97,-220.25 1194,-214.128 1208.59,-199.316 1226.39,-184.497 1241.4,-172.786"/>
<polygon fill="black" stroke="black" points="1243.62,-175.491 1249.42,-166.619 1239.36,-169.944 1243.62,-175.491"/>
</g>
<!-- Nsp6 (&#45;)&#45;&gt;Nsp6 (+) -->
<g id="edge51" class="edge"><title>Nsp6 (&#45;)&#45;&gt;Nsp6 (+)</title>
<path fill="none" stroke="black" d="M852.675,-263.071C863.118,-278.429 877.554,-304.425 886.837,-324.075"/>
<polygon fill="black" stroke="black" points="883.748,-325.738 891.057,-333.408 890.126,-322.855 883.748,-325.738"/>
</g>
<!-- SIGMAR1 -->
<g id="node52" class="node"><title>SIGMAR1</title>
<ellipse fill="none" stroke="black" cx="525" cy="-249.13" rx="18.6233" ry="18.6233"/>
<text text-anchor="middle" x="525" y="-247.93" font-family="Times,serif" font-size="4.00">SIGMAR1</text>
</g>
<!-- SIGMAR1&#45;&gt;Nsp6_SIGMAR1 -->
<g id="edge52" class="edge"><title>SIGMAR1&#45;&gt;Nsp6_SIGMAR1</title>
<path fill="none" stroke="black" d="M535.889,-233.989C547.35,-219.105 565.676,-195.304 579.971,-176.741"/>
<polygon fill="black" stroke="black" points="582.888,-178.689 586.215,-168.631 577.341,-174.418 582.888,-178.689"/>
</g>
<!-- SIGMAR1&#45;&gt;SIGMAR1_Drugs -->
<g id="edge53" class="edge"><title>SIGMAR1&#45;&gt;SIGMAR1_Drugs</title>
<path fill="none" stroke="black" d="M516.967,-232.272C509.979,-218.479 499.643,-198.076 490.978,-180.97"/>
<polygon fill="black" stroke="black" points="494.009,-179.208 486.367,-171.869 487.764,-182.371 494.009,-179.208"/>
</g>
<!-- V&#45;type proton ATPase -->
<g id="node53" class="node"><title>V&#45;type proton ATPase</title>
<ellipse fill="none" stroke="black" cx="666" cy="-351.422" rx="31.0804" ry="31.0804"/>
<text text-anchor="middle" x="666" y="-350.222" font-family="Times,serif" font-size="4.00">V&#45;type proton ATPase</text>
</g>
<!-- V&#45;type proton ATPase&#45;&gt;V&#45;ATPase -->
<g id="edge55" class="edge"><title>V&#45;type proton ATPase&#45;&gt;V&#45;ATPase</title>
<path fill="none" stroke="black" d="M666.908,-320.059C667.307,-306.726 667.772,-291.172 668.163,-278.123"/>
<polygon fill="black" stroke="black" points="671.669,-277.955 668.47,-267.855 664.672,-277.745 671.669,-277.955"/>
</g>
<!-- V&#45;type proton ATPase&#45;&gt;H+ -->
<g id="edge54" class="edge"><title>V&#45;type proton ATPase&#45;&gt;H+</title>
<path fill="none" stroke="black" d="M681.239,-324.071C690.244,-308.499 701.554,-288.942 710.281,-273.853"/>
<polygon fill="black" stroke="black" points="713.36,-275.52 715.336,-265.111 707.3,-272.015 713.36,-275.52"/>
</g>
</g>
</svg>
