<?xml version="1.0" encoding="UTF-8" standalone="no"?>
<!DOCTYPE svg PUBLIC "-//W3C//DTD SVG 1.1//EN"
 "http://www.w3.org/Graphics/SVG/1.1/DTD/svg11.dtd">
<!-- Generated by graphviz version 2.38.0 (20140413.2041)
 -->
<!-- Title: G Pages: 1 -->
<svg width="1304pt" height="391pt"
 viewBox="0.00 0.00 1304.20 390.71" xmlns="http://www.w3.org/2000/svg" xmlns:xlink="http://www.w3.org/1999/xlink">
<g id="graph0" class="graph" transform="scale(1 1) rotate(0) translate(4 386.711)">
<title>G</title>
<polygon fill="white" stroke="none" points="-4,4 -4,-386.711 1300.2,-386.711 1300.2,4 -4,4"/>
<!-- Nsp3_Nsp4_Nsp6 -->
<g id="node1" class="node"><title>Nsp3_Nsp4_Nsp6</title>
<ellipse fill="none" stroke="black" cx="827.622" cy="-148.43" rx="26.533" ry="26.533"/>
<text text-anchor="middle" x="827.622" y="-147.23" font-family="Times,serif" font-size="4.00">Nsp3_Nsp4_Nsp6</text>
</g>
<!-- Plasma membrane organization -->
<g id="node2" class="node"><title>Plasma membrane organization</title>
<ellipse fill="none" stroke="black" cx="827.622" cy="-41.3657" rx="41.2319" ry="41.2319"/>
<text text-anchor="middle" x="827.622" y="-40.1657" font-family="Times,serif" font-size="4.00">Plasma membrane organization</text>
</g>
<!-- Nsp3_Nsp4_Nsp6&#45;&gt;Plasma membrane organization -->
<g id="edge1" class="edge"><title>Nsp3_Nsp4_Nsp6&#45;&gt;Plasma membrane organization</title>
<path fill="none" stroke="black" d="M827.622,-121.728C827.622,-113.071 827.622,-103.086 827.622,-93.1815"/>
<polygon fill="black" stroke="black" points="831.122,-92.9487 827.622,-82.9487 824.122,-92.9488 831.122,-92.9487"/>
</g>
<!-- Nsp4_DNAJC11 -->
<g id="node3" class="node"><title>Nsp4_DNAJC11</title>
<ellipse fill="none" stroke="black" cx="912.622" cy="-148.43" rx="24.8513" ry="24.8512"/>
<text text-anchor="middle" x="912.622" y="-147.23" font-family="Times,serif" font-size="4.00">Nsp4_DNAJC11</text>
</g>
<!-- P&#45;ATPase_Nsp6 -->
<g id="node4" class="node"><title>P&#45;ATPase_Nsp6</title>
<ellipse fill="none" stroke="black" cx="384.622" cy="-148.43" rx="24.8512" ry="24.8512"/>
<text text-anchor="middle" x="384.622" y="-147.23" font-family="Times,serif" font-size="4.00">P&#45;ATPase_Nsp6</text>
</g>
<!-- SLC6A15_Nsp6 -->
<g id="node5" class="node"><title>SLC6A15_Nsp6</title>
<ellipse fill="none" stroke="black" cx="314.622" cy="-148.43" rx="24.2908" ry="24.2908"/>
<text text-anchor="middle" x="314.622" y="-147.23" font-family="Times,serif" font-size="4.00">SLC6A15_Nsp6</text>
</g>
<!-- TOM complex -->
<g id="node6" class="node"><title>TOM complex</title>
<ellipse fill="none" stroke="black" cx="986.622" cy="-351.422" rx="23.1702" ry="23.1702"/>
<text text-anchor="middle" x="986.622" y="-350.222" font-family="Times,serif" font-size="4.00">TOM complex</text>
</g>
<!-- Nsp4 -->
<g id="node29" class="node"><title>Nsp4</title>
<ellipse fill="none" stroke="black" cx="991.622" cy="-249.13" rx="18" ry="18"/>
<text text-anchor="middle" x="991.622" y="-247.93" font-family="Times,serif" font-size="4.00">Nsp4</text>
</g>
<!-- TOM complex&#45;&gt;Nsp4 -->
<g id="edge2" class="edge"><title>TOM complex&#45;&gt;Nsp4</title>
<path fill="none" stroke="black" d="M987.757,-327.664C988.501,-312.732 989.479,-293.125 990.264,-277.365"/>
<polygon fill="black" stroke="black" points="993.77,-277.335 990.773,-267.173 986.779,-276.987 993.77,-277.335"/>
</g>
<!-- Nsp4_IDE -->
<g id="node7" class="node"><title>Nsp4_IDE</title>
<ellipse fill="none" stroke="black" cx="982.622" cy="-148.43" rx="19.1842" ry="19.1842"/>
<text text-anchor="middle" x="982.622" y="-147.23" font-family="Times,serif" font-size="4.00">Nsp4_IDE</text>
</g>
<!-- V&#45;ATPase_Nsp6 -->
<g id="node8" class="node"><title>V&#45;ATPase_Nsp6</title>
<ellipse fill="none" stroke="black" cx="453.622" cy="-148.43" rx="24.8512" ry="24.8512"/>
<text text-anchor="middle" x="453.622" y="-147.23" font-family="Times,serif" font-size="4.00">V&#45;ATPase_Nsp6</text>
</g>
<!-- ATP6AP1 -->
<g id="node9" class="node"><title>ATP6AP1</title>
<ellipse fill="none" stroke="black" cx="315.622" cy="-351.422" rx="18.0625" ry="18.0625"/>
<text text-anchor="middle" x="315.622" y="-350.222" font-family="Times,serif" font-size="4.00">ATP6AP1</text>
</g>
<!-- V&#45;ATPase -->
<g id="node20" class="node"><title>V&#45;ATPase</title>
<ellipse fill="none" stroke="black" cx="381.622" cy="-249.13" rx="18.6233" ry="18.6233"/>
<text text-anchor="middle" x="381.622" y="-247.93" font-family="Times,serif" font-size="4.00">V&#45;ATPase</text>
</g>
<!-- ATP6AP1&#45;&gt;V&#45;ATPase -->
<g id="edge3" class="edge"><title>ATP6AP1&#45;&gt;V&#45;ATPase</title>
<path fill="none" stroke="black" d="M325.078,-336.052C335.787,-319.78 353.396,-293.022 366.121,-273.685"/>
<polygon fill="black" stroke="black" points="369.179,-275.405 371.752,-265.128 363.331,-271.557 369.179,-275.405"/>
</g>
<!-- ATP6AP1_Bafilomycin A1 -->
<g id="node49" class="node"><title>ATP6AP1_Bafilomycin A1</title>
<ellipse fill="none" stroke="black" cx="146.622" cy="-249.13" rx="35.0036" ry="35.0036"/>
<text text-anchor="middle" x="146.622" y="-247.93" font-family="Times,serif" font-size="4.00">ATP6AP1_Bafilomycin A1</text>
</g>
<!-- ATP6AP1&#45;&gt;ATP6AP1_Bafilomycin A1 -->
<g id="edge4" class="edge"><title>ATP6AP1&#45;&gt;ATP6AP1_Bafilomycin A1</title>
<path fill="none" stroke="black" d="M305.545,-336.356C300.915,-330.696 295.029,-324.491 288.622,-320.132 250.257,-294.032 231.232,-306.581 190.622,-284.132 187.573,-282.446 184.508,-280.56 181.494,-278.563"/>
<polygon fill="black" stroke="black" points="183.378,-275.609 173.186,-272.718 179.351,-281.335 183.378,-275.609"/>
</g>
<!-- F&#45;ATPase_Nsp6 -->
<g id="node10" class="node"><title>F&#45;ATPase_Nsp6</title>
<ellipse fill="none" stroke="black" cx="522.622" cy="-148.43" rx="24.8513" ry="24.8512"/>
<text text-anchor="middle" x="522.622" y="-147.23" font-family="Times,serif" font-size="4.00">F&#45;ATPase_Nsp6</text>
</g>
<!-- Nsp4 (+) -->
<g id="node11" class="node"><title>Nsp4 (+)</title>
<ellipse fill="none" stroke="black" cx="719.622" cy="-351.422" rx="18.0625" ry="18.0625"/>
<text text-anchor="middle" x="719.622" y="-350.222" font-family="Times,serif" font-size="4.00">Nsp4 (+)</text>
</g>
<!-- Nsp4 (&#45;) -->
<g id="node18" class="node"><title>Nsp4 (&#45;)</title>
<ellipse fill="none" stroke="black" cx="654.622" cy="-249.13" rx="18" ry="18"/>
<text text-anchor="middle" x="654.622" y="-247.93" font-family="Times,serif" font-size="4.00">Nsp4 (&#45;)</text>
</g>
<!-- Nsp4 (+)&#45;&gt;Nsp4 (&#45;) -->
<g id="edge6" class="edge"><title>Nsp4 (+)&#45;&gt;Nsp4 (&#45;)</title>
<path fill="none" stroke="black" d="M707.038,-338.124C694.676,-322.591 676.656,-295.474 665.071,-275.436"/>
<polygon fill="black" stroke="black" points="668.027,-273.551 660.099,-266.523 661.914,-276.961 668.027,-273.551"/>
</g>
<!-- Nsp4 (+)&#45;&gt;Nsp4 -->
<g id="edge5" class="edge"><title>Nsp4 (+)&#45;&gt;Nsp4</title>
<path fill="none" stroke="black" d="M737.801,-349.348C780.711,-346.046 890.265,-333.057 964.622,-284.132 969.073,-281.203 973.125,-277.299 976.658,-273.182"/>
<polygon fill="black" stroke="black" points="979.471,-275.266 982.783,-265.203 973.918,-271.004 979.471,-275.266"/>
</g>
<!-- P&#45;ATPase -->
<g id="node12" class="node"><title>P&#45;ATPase</title>
<ellipse fill="none" stroke="black" cx="326.622" cy="-249.13" rx="18.6233" ry="18.6233"/>
<text text-anchor="middle" x="326.622" y="-247.93" font-family="Times,serif" font-size="4.00">P&#45;ATPase</text>
</g>
<!-- P&#45;ATPase&#45;&gt;P&#45;ATPase_Nsp6 -->
<g id="edge7" class="edge"><title>P&#45;ATPase&#45;&gt;P&#45;ATPase_Nsp6</title>
<path fill="none" stroke="black" d="M335.685,-232.708C344.095,-218.396 356.842,-196.704 367.218,-179.046"/>
<polygon fill="black" stroke="black" points="370.344,-180.636 372.393,-170.241 364.309,-177.09 370.344,-180.636"/>
</g>
<!-- SLC6A15_Loratadine -->
<g id="node13" class="node"><title>SLC6A15_Loratadine</title>
<ellipse fill="none" stroke="black" cx="51.6222" cy="-148.43" rx="29.8983" ry="29.8983"/>
<text text-anchor="middle" x="51.6222" y="-147.23" font-family="Times,serif" font-size="4.00">SLC6A15_Loratadine</text>
</g>
<!-- F&#45;ATPase -->
<g id="node14" class="node"><title>F&#45;ATPase</title>
<ellipse fill="none" stroke="black" cx="599.622" cy="-249.13" rx="18.6233" ry="18.6233"/>
<text text-anchor="middle" x="599.622" y="-247.93" font-family="Times,serif" font-size="4.00">F&#45;ATPase</text>
</g>
<!-- F&#45;ATPase&#45;&gt;F&#45;ATPase_Nsp6 -->
<g id="edge8" class="edge"><title>F&#45;ATPase&#45;&gt;F&#45;ATPase_Nsp6</title>
<path fill="none" stroke="black" d="M588.59,-233.989C576.978,-219.105 558.411,-195.304 543.928,-176.741"/>
<polygon fill="black" stroke="black" points="546.512,-174.362 537.601,-168.631 540.993,-178.668 546.512,-174.362"/>
</g>
<!-- Nsp6_SIGMAR1 -->
<g id="node15" class="node"><title>Nsp6_SIGMAR1</title>
<ellipse fill="none" stroke="black" cx="622.622" cy="-148.43" rx="24.8513" ry="24.8512"/>
<text text-anchor="middle" x="622.622" y="-147.23" font-family="Times,serif" font-size="4.00">Nsp6_SIGMAR1</text>
</g>
<!-- ATP5MG -->
<g id="node16" class="node"><title>ATP5MG</title>
<ellipse fill="none" stroke="black" cx="665.622" cy="-351.422" rx="18" ry="18"/>
<text text-anchor="middle" x="665.622" y="-350.222" font-family="Times,serif" font-size="4.00">ATP5MG</text>
</g>
<!-- ATP5MG&#45;&gt;F&#45;ATPase -->
<g id="edge9" class="edge"><title>ATP5MG&#45;&gt;F&#45;ATPase</title>
<path fill="none" stroke="black" d="M656.166,-336.052C645.458,-319.78 627.849,-293.022 615.123,-273.685"/>
<polygon fill="black" stroke="black" points="617.913,-271.557 609.492,-265.128 612.066,-275.405 617.913,-271.557"/>
</g>
<!-- Nsp4_ALG11 -->
<g id="node17" class="node"><title>Nsp4_ALG11</title>
<ellipse fill="none" stroke="black" cx="1052.62" cy="-148.43" rx="21.9898" ry="21.9898"/>
<text text-anchor="middle" x="1052.62" y="-147.23" font-family="Times,serif" font-size="4.00">Nsp4_ALG11</text>
</g>
<!-- Nsp4 (&#45;)&#45;&gt;Nsp4 (+) -->
<g id="edge10" class="edge"><title>Nsp4 (&#45;)&#45;&gt;Nsp4 (+)</title>
<path fill="none" stroke="black" d="M667.099,-262.293C679.424,-277.755 697.44,-304.847 709.062,-324.924"/>
<polygon fill="black" stroke="black" points="706.122,-326.837 714.055,-333.86 712.233,-323.423 706.122,-326.837"/>
</g>
<!-- TIM complex_Nsp4 -->
<g id="node19" class="node"><title>TIM complex_Nsp4</title>
<ellipse fill="none" stroke="black" cx="1125.62" cy="-148.43" rx="28.7763" ry="28.7763"/>
<text text-anchor="middle" x="1125.62" y="-147.23" font-family="Times,serif" font-size="4.00">TIM complex_Nsp4</text>
</g>
<!-- V&#45;ATPase&#45;&gt;V&#45;ATPase_Nsp6 -->
<g id="edge11" class="edge"><title>V&#45;ATPase&#45;&gt;V&#45;ATPase_Nsp6</title>
<path fill="none" stroke="black" d="M392.246,-233.567C402.936,-218.912 419.7,-195.932 433.008,-177.688"/>
<polygon fill="black" stroke="black" points="436.156,-179.312 439.222,-169.17 430.501,-175.186 436.156,-179.312"/>
</g>
<!-- IDE -->
<g id="node21" class="node"><title>IDE</title>
<ellipse fill="none" stroke="black" cx="937.622" cy="-249.13" rx="18" ry="18"/>
<text text-anchor="middle" x="937.622" y="-247.93" font-family="Times,serif" font-size="4.00">IDE</text>
</g>
<!-- IDE&#45;&gt;Nsp4_IDE -->
<g id="edge12" class="edge"><title>IDE&#45;&gt;Nsp4_IDE</title>
<path fill="none" stroke="black" d="M944.852,-232.272C951.812,-217.008 962.462,-193.648 970.681,-175.621"/>
<polygon fill="black" stroke="black" points="973.994,-176.79 974.958,-166.24 967.625,-173.886 973.994,-176.79"/>
</g>
<!-- TIM complex -->
<g id="node22" class="node"><title>TIM complex</title>
<ellipse fill="none" stroke="black" cx="1157.62" cy="-249.13" rx="22.05" ry="22.05"/>
<text text-anchor="middle" x="1157.62" y="-247.93" font-family="Times,serif" font-size="4.00">TIM complex</text>
</g>
<!-- TIM complex&#45;&gt;TIM complex_Nsp4 -->
<g id="edge13" class="edge"><title>TIM complex&#45;&gt;TIM complex_Nsp4</title>
<path fill="none" stroke="black" d="M1150.99,-227.679C1147.04,-215.476 1141.9,-199.632 1137.28,-185.396"/>
<polygon fill="black" stroke="black" points="1140.61,-184.295 1134.19,-175.862 1133.95,-186.454 1140.61,-184.295"/>
</g>
<!-- SIGMAR1_Drugs -->
<g id="node23" class="node"><title>SIGMAR1_Drugs</title>
<ellipse fill="none" stroke="black" cx="732.622" cy="-148.43" rx="25.9724" ry="25.9724"/>
<text text-anchor="middle" x="732.622" y="-147.23" font-family="Times,serif" font-size="4.00">SIGMAR1_Drugs</text>
</g>
<!-- P0 -->
<g id="node24" class="node"><title>P0</title>
<ellipse fill="none" stroke="black" cx="369.622" cy="-351.422" rx="18" ry="18"/>
<text text-anchor="middle" x="369.622" y="-350.222" font-family="Times,serif" font-size="4.00">P0</text>
</g>
<!-- P0&#45;&gt;P&#45;ATPase -->
<g id="edge14" class="edge"><title>P0&#45;&gt;P&#45;ATPase</title>
<path fill="none" stroke="black" d="M362.714,-334.308C355.952,-318.538 345.545,-294.264 337.64,-275.828"/>
<polygon fill="black" stroke="black" points="340.814,-274.349 333.657,-266.537 334.38,-277.107 340.814,-274.349"/>
</g>
<!-- Nsp6 (&#45;) -->
<g id="node25" class="node"><title>Nsp6 (&#45;)</title>
<ellipse fill="none" stroke="black" cx="544.622" cy="-249.13" rx="18" ry="18"/>
<text text-anchor="middle" x="544.622" y="-247.93" font-family="Times,serif" font-size="4.00">Nsp6 (&#45;)</text>
</g>
<!-- Nsp6 (+) -->
<g id="node32" class="node"><title>Nsp6 (+)</title>
<ellipse fill="none" stroke="black" cx="503.622" cy="-351.422" rx="18.0625" ry="18.0625"/>
<text text-anchor="middle" x="503.622" y="-350.222" font-family="Times,serif" font-size="4.00">Nsp6 (+)</text>
</g>
<!-- Nsp6 (&#45;)&#45;&gt;Nsp6 (+) -->
<g id="edge15" class="edge"><title>Nsp6 (&#45;)&#45;&gt;Nsp6 (+)</title>
<path fill="none" stroke="black" d="M542.833,-267.314C537.876,-283.88 527.765,-309.062 518.833,-327.365"/>
<polygon fill="black" stroke="black" points="515.61,-325.98 514.168,-336.476 521.841,-329.17 515.61,-325.98"/>
</g>
<!-- Selinexor -->
<g id="node26" class="node"><title>Selinexor</title>
<ellipse fill="none" stroke="black" cx="1270.62" cy="-249.13" rx="18.6233" ry="18.6233"/>
<text text-anchor="middle" x="1270.62" y="-247.93" font-family="Times,serif" font-size="4.00">Selinexor</text>
</g>
<!-- NUP210_Selinexor -->
<g id="node31" class="node"><title>NUP210_Selinexor</title>
<ellipse fill="none" stroke="black" cx="1268.62" cy="-148.43" rx="27.6545" ry="27.6545"/>
<text text-anchor="middle" x="1268.62" y="-147.23" font-family="Times,serif" font-size="4.00">NUP210_Selinexor</text>
</g>
<!-- Selinexor&#45;&gt;NUP210_Selinexor -->
<g id="edge16" class="edge"><title>Selinexor&#45;&gt;NUP210_Selinexor</title>
<path fill="none" stroke="black" d="M1270.26,-230.485C1270.02,-218.23 1269.68,-201.454 1269.37,-186.341"/>
<polygon fill="black" stroke="black" points="1272.87,-186.148 1269.17,-176.221 1265.87,-186.29 1272.87,-186.148"/>
</g>
<!-- SLC6A15 -->
<g id="node27" class="node"><title>SLC6A15</title>
<ellipse fill="none" stroke="black" cx="217.622" cy="-249.13" rx="18.0625" ry="18.0625"/>
<text text-anchor="middle" x="217.622" y="-247.93" font-family="Times,serif" font-size="4.00">SLC6A15</text>
</g>
<!-- SLC6A15&#45;&gt;SLC6A15_Nsp6 -->
<g id="edge19" class="edge"><title>SLC6A15&#45;&gt;SLC6A15_Nsp6</title>
<path fill="none" stroke="black" d="M227.934,-234.166C232.784,-227.86 238.778,-220.428 244.622,-214.128 258.453,-199.221 275.134,-183.717 288.743,-171.625"/>
<polygon fill="black" stroke="black" points="291.158,-174.162 296.356,-164.93 286.536,-168.906 291.158,-174.162"/>
</g>
<!-- SLC6A15&#45;&gt;SLC6A15_Loratadine -->
<g id="edge18" class="edge"><title>SLC6A15&#45;&gt;SLC6A15_Loratadine</title>
<path fill="none" stroke="black" d="M208.39,-233.603C203.676,-227.031 197.489,-219.542 190.622,-214.128 181.951,-207.292 126.12,-182.135 87.909,-165.28"/>
<polygon fill="black" stroke="black" points="89.1763,-162.014 78.6135,-161.19 86.3571,-168.421 89.1763,-162.014"/>
</g>
<!-- SLC6A15_Orf9c -->
<g id="node42" class="node"><title>SLC6A15_Orf9c</title>
<ellipse fill="none" stroke="black" cx="154.622" cy="-148.43" rx="24.8512" ry="24.8512"/>
<text text-anchor="middle" x="154.622" y="-147.23" font-family="Times,serif" font-size="4.00">SLC6A15_Orf9c</text>
</g>
<!-- SLC6A15&#45;&gt;SLC6A15_Orf9c -->
<g id="edge17" class="edge"><title>SLC6A15&#45;&gt;SLC6A15_Orf9c</title>
<path fill="none" stroke="black" d="M208.326,-233.567C199.09,-219.097 184.672,-196.509 173.1,-178.379"/>
<polygon fill="black" stroke="black" points="176.014,-176.438 167.683,-169.892 170.113,-180.204 176.014,-176.438"/>
</g>
<!-- SLC6A15_M -->
<g id="node43" class="node"><title>SLC6A15_M</title>
<ellipse fill="none" stroke="black" cx="233.622" cy="-148.43" rx="21.4286" ry="21.4286"/>
<text text-anchor="middle" x="233.622" y="-147.23" font-family="Times,serif" font-size="4.00">SLC6A15_M</text>
</g>
<!-- SLC6A15&#45;&gt;SLC6A15_M -->
<g id="edge20" class="edge"><title>SLC6A15&#45;&gt;SLC6A15_M</title>
<path fill="none" stroke="black" d="M220.409,-230.938C222.708,-216.759 226.023,-196.307 228.758,-179.438"/>
<polygon fill="black" stroke="black" points="232.226,-179.916 230.371,-169.485 225.316,-178.796 232.226,-179.916"/>
</g>
<!-- Nsp6 -->
<g id="node28" class="node"><title>Nsp6</title>
<ellipse fill="none" stroke="black" cx="490.622" cy="-249.13" rx="18" ry="18"/>
<text text-anchor="middle" x="490.622" y="-247.93" font-family="Times,serif" font-size="4.00">Nsp6</text>
</g>
<!-- Nsp6&#45;&gt;Nsp3_Nsp4_Nsp6 -->
<g id="edge22" class="edge"><title>Nsp6&#45;&gt;Nsp3_Nsp4_Nsp6</title>
<path fill="none" stroke="black" d="M498.977,-233.003C503.57,-226.129 509.909,-218.558 517.622,-214.128 614.966,-158.219 660.201,-210.721 767.622,-178.128 777.035,-175.273 786.827,-171.139 795.704,-166.896"/>
<polygon fill="black" stroke="black" points="797.529,-169.897 804.916,-162.302 794.405,-163.632 797.529,-169.897"/>
</g>
<!-- Nsp6&#45;&gt;P&#45;ATPase_Nsp6 -->
<g id="edge23" class="edge"><title>Nsp6&#45;&gt;P&#45;ATPase_Nsp6</title>
<path fill="none" stroke="black" d="M480.484,-234.001C475.668,-227.661 469.654,-220.249 463.622,-214.128 445.887,-196.132 439.169,-194.139 419.622,-178.128 416.927,-175.921 414.115,-173.616 411.308,-171.316"/>
<polygon fill="black" stroke="black" points="413.463,-168.557 403.51,-164.923 409.025,-173.97 413.463,-168.557"/>
</g>
<!-- Nsp6&#45;&gt;SLC6A15_Nsp6 -->
<g id="edge25" class="edge"><title>Nsp6&#45;&gt;SLC6A15_Nsp6</title>
<path fill="none" stroke="black" d="M481.686,-233.202C477.037,-226.542 470.819,-219.095 463.622,-214.128 420.24,-184.191 397.112,-202.968 350.622,-178.128 347.252,-176.327 343.884,-174.198 340.637,-171.926"/>
<polygon fill="black" stroke="black" points="342.488,-168.939 332.399,-165.705 338.27,-174.525 342.488,-168.939"/>
</g>
<!-- Nsp6&#45;&gt;V&#45;ATPase_Nsp6 -->
<g id="edge21" class="edge"><title>Nsp6&#45;&gt;V&#45;ATPase_Nsp6</title>
<path fill="none" stroke="black" d="M484.512,-231.832C479.399,-218.192 471.949,-198.319 465.647,-181.506"/>
<polygon fill="black" stroke="black" points="468.882,-180.166 462.095,-172.031 462.328,-182.624 468.882,-180.166"/>
</g>
<!-- Nsp6&#45;&gt;F&#45;ATPase_Nsp6 -->
<g id="edge26" class="edge"><title>Nsp6&#45;&gt;F&#45;ATPase_Nsp6</title>
<path fill="none" stroke="black" d="M495.906,-231.832C500.258,-218.411 506.566,-198.953 511.96,-182.315"/>
<polygon fill="black" stroke="black" points="515.42,-182.992 515.175,-172.4 508.762,-180.833 515.42,-182.992"/>
</g>
<!-- Nsp6&#45;&gt;Nsp6_SIGMAR1 -->
<g id="edge24" class="edge"><title>Nsp6&#45;&gt;Nsp6_SIGMAR1</title>
<path fill="none" stroke="black" d="M500.396,-233.617C505.139,-227.2 511.196,-219.833 517.622,-214.128 540.041,-194.229 569.342,-176.745 591.292,-164.986"/>
<polygon fill="black" stroke="black" points="592.98,-168.053 600.208,-160.306 589.727,-161.854 592.98,-168.053"/>
</g>
<!-- Nsp4&#45;&gt;Nsp3_Nsp4_Nsp6 -->
<g id="edge29" class="edge"><title>Nsp4&#45;&gt;Nsp3_Nsp4_Nsp6</title>
<path fill="none" stroke="black" d="M982.484,-233.481C977.791,-226.883 971.593,-219.407 964.622,-214.128 931.587,-189.116 915.852,-196.319 878.622,-178.128 872.244,-175.012 865.548,-171.459 859.183,-167.939"/>
<polygon fill="black" stroke="black" points="860.6,-164.72 850.17,-162.862 857.164,-170.819 860.6,-164.72"/>
</g>
<!-- Nsp4&#45;&gt;Nsp4_DNAJC11 -->
<g id="edge27" class="edge"><title>Nsp4&#45;&gt;Nsp4_DNAJC11</title>
<path fill="none" stroke="black" d="M980.867,-234.548C975.927,-228.319 969.986,-220.842 964.622,-214.128 954.706,-201.716 943.688,-187.996 934.355,-176.397"/>
<polygon fill="black" stroke="black" points="936.894,-173.969 927.897,-168.374 931.441,-178.359 936.894,-173.969"/>
</g>
<!-- Nsp4&#45;&gt;Nsp4_IDE -->
<g id="edge28" class="edge"><title>Nsp4&#45;&gt;Nsp4_IDE</title>
<path fill="none" stroke="black" d="M990.055,-230.938C988.72,-216.302 986.776,-194.981 985.211,-177.817"/>
<polygon fill="black" stroke="black" points="988.688,-177.404 984.294,-167.763 981.717,-178.04 988.688,-177.404"/>
</g>
<!-- Nsp4&#45;&gt;Nsp4_ALG11 -->
<g id="edge30" class="edge"><title>Nsp4&#45;&gt;Nsp4_ALG11</title>
<path fill="none" stroke="black" d="M1000.89,-233.14C1010.28,-217.939 1025.01,-194.104 1036.36,-175.748"/>
<polygon fill="black" stroke="black" points="1039.34,-177.586 1041.62,-167.24 1033.38,-173.906 1039.34,-177.586"/>
</g>
<!-- Nsp4&#45;&gt;TIM complex_Nsp4 -->
<g id="edge32" class="edge"><title>Nsp4&#45;&gt;TIM complex_Nsp4</title>
<path fill="none" stroke="black" d="M1001.28,-233.478C1005.99,-227.032 1012.06,-219.682 1018.62,-214.128 1043.82,-192.785 1055.51,-195.463 1083.62,-178.128 1086.99,-176.05 1090.47,-173.819 1093.92,-171.552"/>
<polygon fill="black" stroke="black" points="1095.97,-174.388 1102.33,-165.913 1092.08,-168.573 1095.97,-174.388"/>
</g>
<!-- Nsp4_NUP210 -->
<g id="node34" class="node"><title>Nsp4_NUP210</title>
<ellipse fill="none" stroke="black" cx="1198.62" cy="-148.43" rx="23.1702" ry="23.1702"/>
<text text-anchor="middle" x="1198.62" y="-147.23" font-family="Times,serif" font-size="4.00">Nsp4_NUP210</text>
</g>
<!-- Nsp4&#45;&gt;Nsp4_NUP210 -->
<g id="edge31" class="edge"><title>Nsp4&#45;&gt;Nsp4_NUP210</title>
<path fill="none" stroke="black" d="M1000.42,-232.989C1005.03,-226.283 1011.27,-218.858 1018.62,-214.128 1074.47,-178.212 1104.27,-207.909 1163.62,-178.128 1167.23,-176.317 1170.8,-174.076 1174.21,-171.65"/>
<polygon fill="black" stroke="black" points="1176.51,-174.292 1182.24,-165.382 1172.21,-168.772 1176.51,-174.292"/>
</g>
<!-- F1 -->
<g id="node30" class="node"><title>F1</title>
<ellipse fill="none" stroke="black" cx="557.622" cy="-351.422" rx="18" ry="18"/>
<text text-anchor="middle" x="557.622" y="-350.222" font-family="Times,serif" font-size="4.00">F1</text>
</g>
<!-- F1&#45;&gt;F&#45;ATPase -->
<g id="edge33" class="edge"><title>F1&#45;&gt;F&#45;ATPase</title>
<path fill="none" stroke="black" d="M564.37,-334.308C570.975,-318.538 581.14,-294.264 588.86,-275.828"/>
<polygon fill="black" stroke="black" points="592.117,-277.113 592.751,-266.537 585.66,-274.409 592.117,-277.113"/>
</g>
<!-- Nsp6 (+)&#45;&gt;Nsp6 (&#45;) -->
<g id="edge35" class="edge"><title>Nsp6 (+)&#45;&gt;Nsp6 (&#45;)</title>
<path fill="none" stroke="black" d="M505.36,-333.408C510.304,-316.828 520.47,-291.501 529.439,-273.131"/>
<polygon fill="black" stroke="black" points="532.677,-274.487 534.122,-263.991 526.447,-271.295 532.677,-274.487"/>
</g>
<!-- Nsp6 (+)&#45;&gt;Nsp6 -->
<g id="edge34" class="edge"><title>Nsp6 (+)&#45;&gt;Nsp6</title>
<path fill="none" stroke="black" d="M501.417,-333.408C499.428,-318.064 496.468,-295.227 494.15,-277.347"/>
<polygon fill="black" stroke="black" points="497.595,-276.694 492.838,-267.227 490.653,-277.594 497.595,-276.694"/>
</g>
<!-- DNAJC11 -->
<g id="node33" class="node"><title>DNAJC11</title>
<ellipse fill="none" stroke="black" cx="882.622" cy="-249.13" rx="18.6233" ry="18.6233"/>
<text text-anchor="middle" x="882.622" y="-247.93" font-family="Times,serif" font-size="4.00">DNAJC11</text>
</g>
<!-- DNAJC11&#45;&gt;Nsp4_DNAJC11 -->
<g id="edge36" class="edge"><title>DNAJC11&#45;&gt;Nsp4_DNAJC11</title>
<path fill="none" stroke="black" d="M887.848,-230.938C891.907,-217.582 897.658,-198.661 902.598,-182.411"/>
<polygon fill="black" stroke="black" points="905.986,-183.297 905.546,-172.711 899.289,-181.261 905.986,-183.297"/>
</g>
<!-- H+ -->
<g id="node35" class="node"><title>H+</title>
<ellipse fill="none" stroke="black" cx="436.622" cy="-249.13" rx="18" ry="18"/>
<text text-anchor="middle" x="436.622" y="-247.93" font-family="Times,serif" font-size="4.00">H+</text>
</g>
<!-- ALG11 -->
<g id="node36" class="node"><title>ALG11</title>
<ellipse fill="none" stroke="black" cx="1099.62" cy="-249.13" rx="18" ry="18"/>
<text text-anchor="middle" x="1099.62" y="-247.93" font-family="Times,serif" font-size="4.00">ALG11</text>
</g>
<!-- ALG11&#45;&gt;Nsp4_ALG11 -->
<g id="edge37" class="edge"><title>ALG11&#45;&gt;Nsp4_ALG11</title>
<path fill="none" stroke="black" d="M1092.07,-232.272C1085.06,-217.559 1074.48,-195.326 1066.03,-177.596"/>
<polygon fill="black" stroke="black" points="1069.06,-175.809 1061.6,-168.285 1062.74,-178.819 1069.06,-175.809"/>
</g>
<!-- Loratadine -->
<g id="node37" class="node"><title>Loratadine</title>
<ellipse fill="none" stroke="black" cx="19.6222" cy="-249.13" rx="19.7452" ry="19.7452"/>
<text text-anchor="middle" x="19.6222" y="-247.93" font-family="Times,serif" font-size="4.00">Loratadine</text>
</g>
<!-- Loratadine&#45;&gt;SLC6A15_Loratadine -->
<g id="edge38" class="edge"><title>Loratadine&#45;&gt;SLC6A15_Loratadine</title>
<path fill="none" stroke="black" d="M25.4915,-230.027C29.3911,-217.999 34.6546,-201.765 39.4357,-187.018"/>
<polygon fill="black" stroke="black" points="42.8911,-187.708 42.6459,-177.116 36.2324,-185.549 42.8911,-187.708"/>
</g>
<!-- V&#45;type proton ATPase -->
<g id="node38" class="node"><title>V&#45;type proton ATPase</title>
<ellipse fill="none" stroke="black" cx="436.622" cy="-351.422" rx="31.0804" ry="31.0804"/>
<text text-anchor="middle" x="436.622" y="-350.222" font-family="Times,serif" font-size="4.00">V&#45;type proton ATPase</text>
</g>
<!-- V&#45;type proton ATPase&#45;&gt;V&#45;ATPase -->
<g id="edge39" class="edge"><title>V&#45;type proton ATPase&#45;&gt;V&#45;ATPase</title>
<path fill="none" stroke="black" d="M421.883,-323.545C413.583,-308.41 403.289,-289.64 395.188,-274.868"/>
<polygon fill="black" stroke="black" points="398.102,-272.901 390.224,-265.816 391.964,-276.267 398.102,-272.901"/>
</g>
<!-- V&#45;type proton ATPase&#45;&gt;H+ -->
<g id="edge40" class="edge"><title>V&#45;type proton ATPase&#45;&gt;H+</title>
<path fill="none" stroke="black" d="M436.622,-320.059C436.622,-306.546 436.622,-290.751 436.622,-277.595"/>
<polygon fill="black" stroke="black" points="440.122,-277.273 436.622,-267.273 433.122,-277.273 440.122,-277.273"/>
</g>
<!-- Nsp3 (+) -->
<g id="node39" class="node"><title>Nsp3 (+)</title>
<ellipse fill="none" stroke="black" cx="1045.62" cy="-351.422" rx="18.0625" ry="18.0625"/>
<text text-anchor="middle" x="1045.62" y="-350.222" font-family="Times,serif" font-size="4.00">Nsp3 (+)</text>
</g>
<!-- Nsp3 (&#45;) -->
<g id="node50" class="node"><title>Nsp3 (&#45;)</title>
<ellipse fill="none" stroke="black" cx="1045.62" cy="-249.13" rx="18" ry="18"/>
<text text-anchor="middle" x="1045.62" y="-247.93" font-family="Times,serif" font-size="4.00">Nsp3 (&#45;)</text>
</g>
<!-- Nsp3 (+)&#45;&gt;Nsp3 (&#45;) -->
<g id="edge41" class="edge"><title>Nsp3 (+)&#45;&gt;Nsp3 (&#45;)</title>
<path fill="none" stroke="black" d="M1040.46,-333.86C1038.69,-318.327 1038.4,-294.836 1039.59,-276.685"/>
<polygon fill="black" stroke="black" points="1043.07,-276.982 1040.45,-266.716 1036.1,-276.375 1043.07,-276.982"/>
</g>
<!-- Nsp3 -->
<g id="node51" class="node"><title>Nsp3</title>
<ellipse fill="none" stroke="black" cx="827.622" cy="-249.13" rx="18" ry="18"/>
<text text-anchor="middle" x="827.622" y="-247.93" font-family="Times,serif" font-size="4.00">Nsp3</text>
</g>
<!-- Nsp3 (+)&#45;&gt;Nsp3 -->
<g id="edge42" class="edge"><title>Nsp3 (+)&#45;&gt;Nsp3</title>
<path fill="none" stroke="black" d="M1035.82,-335.922C1031.24,-330.188 1025.31,-324.046 1018.62,-320.132 954.214,-282.444 917.932,-323.637 854.622,-284.132 850.024,-281.263 845.879,-277.323 842.294,-273.14"/>
<polygon fill="black" stroke="black" points="844.959,-270.861 836.123,-265.014 839.384,-275.095 844.959,-270.861"/>
</g>
<!-- M -->
<g id="node40" class="node"><title>M</title>
<ellipse fill="none" stroke="black" cx="271.622" cy="-249.13" rx="18" ry="18"/>
<text text-anchor="middle" x="271.622" y="-247.93" font-family="Times,serif" font-size="4.00">M</text>
</g>
<!-- M&#45;&gt;SLC6A15_M -->
<g id="edge43" class="edge"><title>M&#45;&gt;SLC6A15_M</title>
<path fill="none" stroke="black" d="M265.347,-231.832C259.744,-217.277 251.407,-195.623 244.685,-178.165"/>
<polygon fill="black" stroke="black" points="247.807,-176.531 240.948,-168.457 241.274,-179.047 247.807,-176.531"/>
</g>
<!-- Orf9c -->
<g id="node41" class="node"><title>Orf9c</title>
<ellipse fill="none" stroke="black" cx="75.6222" cy="-249.13" rx="18" ry="18"/>
<text text-anchor="middle" x="75.6222" y="-247.93" font-family="Times,serif" font-size="4.00">Orf9c</text>
</g>
<!-- Orf9c&#45;&gt;SLC6A15_Orf9c -->
<g id="edge44" class="edge"><title>Orf9c&#45;&gt;SLC6A15_Orf9c</title>
<path fill="none" stroke="black" d="M86.3775,-234.548C91.3178,-228.319 97.2587,-220.842 102.622,-214.128 112.538,-201.716 123.557,-187.996 132.89,-176.397"/>
<polygon fill="black" stroke="black" points="135.804,-178.359 139.348,-168.374 130.351,-173.969 135.804,-178.359"/>
</g>
<!-- Bafilomycin A1 -->
<g id="node44" class="node"><title>Bafilomycin A1</title>
<ellipse fill="none" stroke="black" cx="146.622" cy="-351.422" rx="24.8512" ry="24.8512"/>
<text text-anchor="middle" x="146.622" y="-350.222" font-family="Times,serif" font-size="4.00">Bafilomycin A1</text>
</g>
<!-- Bafilomycin A1&#45;&gt;ATP6AP1_Bafilomycin A1 -->
<g id="edge45" class="edge"><title>Bafilomycin A1&#45;&gt;ATP6AP1_Bafilomycin A1</title>
<path fill="none" stroke="black" d="M146.622,-326.399C146.622,-316.826 146.622,-305.49 146.622,-294.526"/>
<polygon fill="black" stroke="black" points="150.122,-294.197 146.622,-284.197 143.122,-294.197 150.122,-294.197"/>
</g>
<!-- Several drugs -->
<g id="node45" class="node"><title>Several drugs</title>
<ellipse fill="none" stroke="black" cx="768.622" cy="-249.13" rx="22.6101" ry="22.6101"/>
<text text-anchor="middle" x="768.622" y="-247.93" font-family="Times,serif" font-size="4.00">Several drugs</text>
</g>
<!-- Several drugs&#45;&gt;SIGMAR1_Drugs -->
<g id="edge46" class="edge"><title>Several drugs&#45;&gt;SIGMAR1_Drugs</title>
<path fill="none" stroke="black" d="M760.988,-227.198C756.292,-214.325 750.169,-197.538 744.814,-182.856"/>
<polygon fill="black" stroke="black" points="747.971,-181.298 741.257,-173.103 741.395,-183.696 747.971,-181.298"/>
</g>
<!-- P1 -->
<g id="node46" class="node"><title>P1</title>
<ellipse fill="none" stroke="black" cx="207.622" cy="-351.422" rx="18" ry="18"/>
<text text-anchor="middle" x="207.622" y="-350.222" font-family="Times,serif" font-size="4.00">P1</text>
</g>
<!-- P1&#45;&gt;P&#45;ATPase -->
<g id="edge47" class="edge"><title>P1&#45;&gt;P&#45;ATPase</title>
<path fill="none" stroke="black" d="M218.317,-336.538C222.963,-331.038 228.695,-324.902 234.622,-320.132 260.049,-299.673 273.601,-305.085 298.622,-284.132 302.695,-280.721 306.619,-276.658 310.176,-272.547"/>
<polygon fill="black" stroke="black" points="312.924,-274.715 316.504,-264.743 307.487,-270.306 312.924,-274.715"/>
</g>
<!-- F0 -->
<g id="node47" class="node"><title>F0</title>
<ellipse fill="none" stroke="black" cx="611.622" cy="-351.422" rx="18" ry="18"/>
<text text-anchor="middle" x="611.622" y="-350.222" font-family="Times,serif" font-size="4.00">F0</text>
</g>
<!-- F0&#45;&gt;F&#45;ATPase -->
<g id="edge48" class="edge"><title>F0&#45;&gt;F&#45;ATPase</title>
<path fill="none" stroke="black" d="M609.587,-333.408C607.773,-318.25 605.084,-295.78 602.957,-278"/>
<polygon fill="black" stroke="black" points="606.412,-277.417 601.749,-267.903 599.462,-278.248 606.412,-277.417"/>
</g>
<!-- ATP13A3 -->
<g id="node48" class="node"><title>ATP13A3</title>
<ellipse fill="none" stroke="black" cx="261.622" cy="-351.422" rx="18.0625" ry="18.0625"/>
<text text-anchor="middle" x="261.622" y="-350.222" font-family="Times,serif" font-size="4.00">ATP13A3</text>
</g>
<!-- ATP13A3&#45;&gt;P&#45;ATPase -->
<g id="edge49" class="edge"><title>ATP13A3&#45;&gt;P&#45;ATPase</title>
<path fill="none" stroke="black" d="M271.213,-335.623C281.761,-319.348 298.86,-292.965 311.277,-273.808"/>
<polygon fill="black" stroke="black" points="314.277,-275.613 316.779,-265.318 308.403,-271.806 314.277,-275.613"/>
</g>
<!-- Nsp3 (&#45;)&#45;&gt;Nsp3 (+) -->
<g id="edge50" class="edge"><title>Nsp3 (&#45;)&#45;&gt;Nsp3 (+)</title>
<path fill="none" stroke="black" d="M1050.79,-266.716C1052.55,-282.258 1052.84,-305.75 1051.66,-323.895"/>
<polygon fill="black" stroke="black" points="1048.17,-323.594 1050.79,-333.86 1055.14,-324.202 1048.17,-323.594"/>
</g>
<!-- Nsp3&#45;&gt;Nsp3_Nsp4_Nsp6 -->
<g id="edge51" class="edge"><title>Nsp3&#45;&gt;Nsp3_Nsp4_Nsp6</title>
<path fill="none" stroke="black" d="M827.622,-230.938C827.622,-218.463 827.622,-201.131 827.622,-185.656"/>
<polygon fill="black" stroke="black" points="831.122,-185.322 827.622,-175.322 824.122,-185.322 831.122,-185.322"/>
</g>
<!-- NUP210 -->
<g id="node52" class="node"><title>NUP210</title>
<ellipse fill="none" stroke="black" cx="1215.62" cy="-249.13" rx="18" ry="18"/>
<text text-anchor="middle" x="1215.62" y="-247.93" font-family="Times,serif" font-size="4.00">NUP210</text>
</g>
<!-- NUP210&#45;&gt;NUP210_Selinexor -->
<g id="edge52" class="edge"><title>NUP210&#45;&gt;NUP210_Selinexor</title>
<path fill="none" stroke="black" d="M1223.9,-232.708C1231.13,-219.259 1241.85,-199.293 1250.98,-182.283"/>
<polygon fill="black" stroke="black" points="1254.21,-183.663 1255.86,-173.197 1248.05,-180.351 1254.21,-183.663"/>
</g>
<!-- NUP210&#45;&gt;Nsp4_NUP210 -->
<g id="edge53" class="edge"><title>NUP210&#45;&gt;Nsp4_NUP210</title>
<path fill="none" stroke="black" d="M1212.66,-230.938C1210.34,-217.437 1207.03,-198.247 1204.21,-181.879"/>
<polygon fill="black" stroke="black" points="1207.59,-180.879 1202.44,-171.619 1200.69,-182.068 1207.59,-180.879"/>
</g>
<!-- SIGMAR1 -->
<g id="node53" class="node"><title>SIGMAR1</title>
<ellipse fill="none" stroke="black" cx="709.622" cy="-249.13" rx="18.6233" ry="18.6233"/>
<text text-anchor="middle" x="709.622" y="-247.93" font-family="Times,serif" font-size="4.00">SIGMAR1</text>
</g>
<!-- SIGMAR1&#45;&gt;Nsp6_SIGMAR1 -->
<g id="edge54" class="edge"><title>SIGMAR1&#45;&gt;Nsp6_SIGMAR1</title>
<path fill="none" stroke="black" d="M698.336,-234.102C693.292,-227.918 687.232,-220.6 681.622,-214.128 670.188,-200.936 657.139,-186.56 646.225,-174.716"/>
<polygon fill="black" stroke="black" points="648.76,-172.302 639.4,-167.337 643.621,-177.055 648.76,-172.302"/>
</g>
<!-- SIGMAR1&#45;&gt;SIGMAR1_Drugs -->
<g id="edge55" class="edge"><title>SIGMAR1&#45;&gt;SIGMAR1_Drugs</title>
<path fill="none" stroke="black" d="M713.629,-230.938C716.648,-217.98 720.888,-199.784 724.597,-183.87"/>
<polygon fill="black" stroke="black" points="728.078,-184.353 726.939,-173.82 721.26,-182.765 728.078,-184.353"/>
</g>
</g>
</svg>
