<?xml version="1.0" encoding="UTF-8" standalone="no"?>
<!DOCTYPE svg PUBLIC "-//W3C//DTD SVG 1.1//EN"
 "http://www.w3.org/Graphics/SVG/1.1/DTD/svg11.dtd">
<!-- Generated by graphviz version 2.38.0 (20140413.2041)
 -->
<!-- Title: G Pages: 1 -->
<svg width="1961pt" height="367pt"
 viewBox="0.00 0.00 1961.00 367.25" xmlns="http://www.w3.org/2000/svg" xmlns:xlink="http://www.w3.org/1999/xlink">
<g id="graph0" class="graph" transform="scale(1 1) rotate(0) translate(4 363.252)">
<title>G</title>
<polygon fill="white" stroke="none" points="-4,4 -4,-363.252 1957,-363.252 1957,4 -4,4"/>
<!-- GTF2F2 -->
<g id="node1" class="node"><title>GTF2F2</title>
<ellipse fill="none" stroke="black" cx="288" cy="-192.385" rx="18" ry="18"/>
<text text-anchor="middle" x="288" y="-191.185" font-family="Times,serif" font-size="4.00">GTF2F2</text>
</g>
<!-- gtfrnapoly -->
<g id="node4" class="node"><title>gtfrnapoly</title>
<ellipse fill="none" stroke="black" cx="153" cy="-106.534" rx="19.1842" ry="19.1842"/>
<text text-anchor="middle" x="153" y="-105.334" font-family="Times,serif" font-size="4.00">gtfrnapoly</text>
</g>
<!-- GTF2F2&#45;&gt;gtfrnapoly -->
<g id="edge2" class="edge"><title>GTF2F2&#45;&gt;gtfrnapoly</title>
<path fill="none" stroke="black" d="M274.234,-180.275C270.063,-177.055 265.415,-173.61 261,-170.641 233.563,-152.193 200.561,-133.367 178.318,-121.138"/>
<polygon fill="black" stroke="black" points="179.947,-118.039 169.492,-116.321 176.593,-124.183 179.947,-118.039"/>
</g>
<!-- TAT&#45;HIV -->
<g id="node17" class="node"><title>TAT&#45;HIV</title>
<ellipse fill="none" stroke="black" cx="313" cy="-106.534" rx="18" ry="18"/>
<text text-anchor="middle" x="313" y="-105.334" font-family="Times,serif" font-size="4.00">TAT&#45;HIV</text>
</g>
<!-- GTF2F2&#45;&gt;TAT&#45;HIV -->
<g id="edge1" class="edge"><title>GTF2F2&#45;&gt;TAT&#45;HIV</title>
<path fill="none" stroke="black" d="M292.939,-174.819C296.432,-163.104 301.186,-147.159 305.189,-133.732"/>
<polygon fill="black" stroke="black" points="308.568,-134.649 308.071,-124.066 301.86,-132.649 308.568,-134.649"/>
</g>
<!-- gtf2f2comp -->
<g id="node45" class="node"><title>gtf2f2comp</title>
<ellipse fill="none" stroke="black" cx="451" cy="-106.534" rx="20.3062" ry="20.3062"/>
<text text-anchor="middle" x="451" y="-105.334" font-family="Times,serif" font-size="4.00">gtf2f2comp</text>
</g>
<!-- GTF2F2&#45;&gt;gtf2f2comp -->
<g id="edge3" class="edge"><title>GTF2F2&#45;&gt;gtf2f2comp</title>
<path fill="none" stroke="black" d="M301.137,-179.903C305.364,-176.599 310.201,-173.2 315,-170.641 359.275,-147.036 378.916,-160.357 422,-134.641 424.841,-132.946 427.635,-130.933 430.302,-128.782"/>
<polygon fill="black" stroke="black" points="432.682,-131.349 437.833,-122.091 428.033,-126.116 432.682,-131.349"/>
</g>
<!-- mibcomp -->
<g id="node2" class="node"><title>mibcomp</title>
<ellipse fill="none" stroke="black" cx="568" cy="-106.534" rx="18.6233" ry="18.6233"/>
<text text-anchor="middle" x="568" y="-105.334" font-family="Times,serif" font-size="4.00">mibcomp</text>
</g>
<!-- Nuclear Pore comp -->
<g id="node3" class="node"><title>Nuclear Pore comp</title>
<ellipse fill="none" stroke="black" cx="690" cy="-106.534" rx="28.2154" ry="28.2154"/>
<text text-anchor="middle" x="690" y="-105.334" font-family="Times,serif" font-size="4.00">Nuclear Pore comp</text>
</g>
<!-- MAT2A -->
<g id="node5" class="node"><title>MAT2A</title>
<ellipse fill="none" stroke="black" cx="1368" cy="-192.385" rx="18" ry="18"/>
<text text-anchor="middle" x="1368" y="-191.185" font-family="Times,serif" font-size="4.00">MAT2A</text>
</g>
<!-- MAT -->
<g id="node62" class="node"><title>MAT</title>
<ellipse fill="none" stroke="black" cx="1422" cy="-106.534" rx="18" ry="18"/>
<text text-anchor="middle" x="1422" y="-105.334" font-family="Times,serif" font-size="4.00">MAT</text>
</g>
<!-- MAT2A&#45;&gt;MAT -->
<g id="edge4" class="edge"><title>MAT2A&#45;&gt;MAT</title>
<path fill="none" stroke="black" d="M1377.41,-176.779C1385.61,-164.034 1397.66,-145.323 1407.17,-130.563"/>
<polygon fill="black" stroke="black" points="1410.23,-132.275 1412.7,-121.972 1404.34,-128.485 1410.23,-132.275"/>
</g>
<!-- UBQLN4 -->
<g id="node6" class="node"><title>UBQLN4</title>
<ellipse fill="none" stroke="black" cx="1476" cy="-106.534" rx="18" ry="18"/>
<text text-anchor="middle" x="1476" y="-105.334" font-family="Times,serif" font-size="4.00">UBQLN4</text>
</g>
<!-- EDN1&#45;homo -->
<g id="node64" class="node"><title>EDN1&#45;homo</title>
<ellipse fill="none" stroke="black" cx="1368" cy="-21.2132" rx="21.4286" ry="21.4286"/>
<text text-anchor="middle" x="1368" y="-20.0132" font-family="Times,serif" font-size="4.00">EDN1&#45;homo</text>
</g>
<!-- UBQLN4&#45;&gt;EDN1&#45;homo -->
<g id="edge5" class="edge"><title>UBQLN4&#45;&gt;EDN1&#45;homo</title>
<path fill="none" stroke="black" d="M1464.08,-92.629C1459.54,-87.9625 1454.19,-82.7757 1449,-78.4264 1431.61,-63.8704 1410.53,-49.3269 1394.24,-38.6805"/>
<polygon fill="black" stroke="black" points="1396.03,-35.6717 1385.73,-33.1914 1392.23,-41.5538 1396.03,-35.6717"/>
</g>
<!-- NspComp -->
<g id="node7" class="node"><title>NspComp</title>
<ellipse fill="none" stroke="black" cx="755" cy="-106.534" rx="18.6233" ry="18.6233"/>
<text text-anchor="middle" x="755" y="-105.334" font-family="Times,serif" font-size="4.00">NspComp</text>
</g>
<!-- TAT -->
<g id="node8" class="node"><title>TAT</title>
<ellipse fill="none" stroke="black" cx="342" cy="-192.385" rx="18" ry="18"/>
<text text-anchor="middle" x="342" y="-191.185" font-family="Times,serif" font-size="4.00">TAT</text>
</g>
<!-- TAT&#45;&gt;TAT&#45;HIV -->
<g id="edge6" class="edge"><title>TAT&#45;&gt;TAT&#45;HIV</title>
<path fill="none" stroke="black" d="M336.409,-175.218C332.316,-163.386 326.679,-147.085 321.961,-133.445"/>
<polygon fill="black" stroke="black" points="325.151,-131.958 318.574,-123.652 318.535,-134.246 325.151,-131.958"/>
</g>
<!-- EIF4H -->
<g id="node9" class="node"><title>EIF4H</title>
<ellipse fill="none" stroke="black" cx="914" cy="-192.385" rx="18" ry="18"/>
<text text-anchor="middle" x="914" y="-191.185" font-family="Times,serif" font-size="4.00">EIF4H</text>
</g>
<!-- eifcomp -->
<g id="node49" class="node"><title>eifcomp</title>
<ellipse fill="none" stroke="black" cx="873" cy="-106.534" rx="18" ry="18"/>
<text text-anchor="middle" x="873" y="-105.334" font-family="Times,serif" font-size="4.00">eifcomp</text>
</g>
<!-- EIF4H&#45;&gt;eifcomp -->
<g id="edge7" class="edge"><title>EIF4H&#45;&gt;eifcomp</title>
<path fill="none" stroke="black" d="M906.48,-176.005C900.507,-163.79 892.036,-146.466 885.11,-132.301"/>
<polygon fill="black" stroke="black" points="888.148,-130.546 880.611,-123.1 881.86,-133.621 888.148,-130.546"/>
</g>
<!-- AIFM1 -->
<g id="node10" class="node"><title>AIFM1</title>
<ellipse fill="none" stroke="black" cx="510" cy="-192.385" rx="18" ry="18"/>
<text text-anchor="middle" x="510" y="-191.185" font-family="Times,serif" font-size="4.00">AIFM1</text>
</g>
<!-- SPARTcomp -->
<g id="node63" class="node"><title>SPARTcomp</title>
<ellipse fill="none" stroke="black" cx="510" cy="-106.534" rx="21.4286" ry="21.4286"/>
<text text-anchor="middle" x="510" y="-105.334" font-family="Times,serif" font-size="4.00">SPARTcomp</text>
</g>
<!-- AIFM1&#45;&gt;SPARTcomp -->
<g id="edge8" class="edge"><title>AIFM1&#45;&gt;SPARTcomp</title>
<path fill="none" stroke="black" d="M510,-174.011C510,-163.623 510,-150.129 510,-138.016"/>
<polygon fill="black" stroke="black" points="513.5,-137.839 510,-127.839 506.5,-137.839 513.5,-137.839"/>
</g>
<!-- POLR2A -->
<g id="node11" class="node"><title>POLR2A</title>
<ellipse fill="none" stroke="black" cx="180" cy="-192.385" rx="18" ry="18"/>
<text text-anchor="middle" x="180" y="-191.185" font-family="Times,serif" font-size="4.00">POLR2A</text>
</g>
<!-- POLR2A&#45;&gt;gtfrnapoly -->
<g id="edge9" class="edge"><title>POLR2A&#45;&gt;gtfrnapoly</title>
<path fill="none" stroke="black" d="M174.666,-174.819C170.967,-163.333 165.959,-147.779 161.689,-134.519"/>
<polygon fill="black" stroke="black" points="164.999,-133.378 158.602,-124.932 158.336,-135.523 164.999,-133.378"/>
</g>
<!-- spartcomp -->
<g id="node12" class="node"><title>spartcomp</title>
<ellipse fill="none" stroke="black" cx="624" cy="-106.534" rx="19.7452" ry="19.7452"/>
<text text-anchor="middle" x="624" y="-105.334" font-family="Times,serif" font-size="4.00">spartcomp</text>
</g>
<!-- MIB1 -->
<g id="node13" class="node"><title>MIB1</title>
<ellipse fill="none" stroke="black" cx="452" cy="-192.385" rx="18" ry="18"/>
<text text-anchor="middle" x="452" y="-191.185" font-family="Times,serif" font-size="4.00">MIB1</text>
</g>
<!-- MIB1&#45;&gt;mibcomp -->
<g id="edge10" class="edge"><title>MIB1&#45;&gt;mibcomp</title>
<path fill="none" stroke="black" d="M466.457,-181.597C471.653,-178.109 477.571,-174.171 483,-170.641 508.12,-154.308 516.445,-153.16 540,-134.641 542.713,-132.509 545.456,-130.15 548.11,-127.74"/>
<polygon fill="black" stroke="black" points="550.853,-129.96 555.683,-120.53 546.027,-124.89 550.853,-129.96"/>
</g>
<!-- MIBcomp -->
<g id="node52" class="node"><title>MIBcomp</title>
<ellipse fill="none" stroke="black" cx="394" cy="-106.534" rx="18.6233" ry="18.6233"/>
<text text-anchor="middle" x="394" y="-105.334" font-family="Times,serif" font-size="4.00">MIBcomp</text>
</g>
<!-- MIB1&#45;&gt;MIBcomp -->
<g id="edge11" class="edge"><title>MIB1&#45;&gt;MIBcomp</title>
<path fill="none" stroke="black" d="M442.161,-177.161C433.353,-164.428 420.278,-145.524 409.973,-130.626"/>
<polygon fill="black" stroke="black" points="412.846,-128.627 404.278,-122.393 407.089,-132.609 412.846,-128.627"/>
</g>
<!-- Nuclear Pore -->
<g id="node14" class="node"><title>Nuclear Pore</title>
<ellipse fill="none" stroke="black" cx="690" cy="-192.385" rx="21.9898" ry="21.9898"/>
<text text-anchor="middle" x="690" y="-191.185" font-family="Times,serif" font-size="4.00">Nuclear Pore</text>
</g>
<!-- Nuclear Pore&#45;&gt;Nuclear Pore comp -->
<g id="edge12" class="edge"><title>Nuclear Pore&#45;&gt;Nuclear Pore comp</title>
<path fill="none" stroke="black" d="M690,-170.226C690,-162.484 690,-153.479 690,-144.75"/>
<polygon fill="black" stroke="black" points="693.5,-144.722 690,-134.722 686.5,-144.722 693.5,-144.722"/>
</g>
<!-- POLR2B -->
<g id="node15" class="node"><title>POLR2B</title>
<ellipse fill="none" stroke="black" cx="234" cy="-192.385" rx="18" ry="18"/>
<text text-anchor="middle" x="234" y="-191.185" font-family="Times,serif" font-size="4.00">POLR2B</text>
</g>
<!-- POLR2B&#45;&gt;gtfrnapoly -->
<g id="edge13" class="edge"><title>POLR2B&#45;&gt;gtfrnapoly</title>
<path fill="none" stroke="black" d="M221.698,-178.65C208.767,-165.263 188.221,-143.995 172.964,-128.2"/>
<polygon fill="black" stroke="black" points="175.42,-125.706 165.955,-120.945 170.386,-130.569 175.42,-125.706"/>
</g>
<!-- DLL1 -->
<g id="node16" class="node"><title>DLL1</title>
<ellipse fill="none" stroke="black" cx="396" cy="-192.385" rx="18" ry="18"/>
<text text-anchor="middle" x="396" y="-191.185" font-family="Times,serif" font-size="4.00">DLL1</text>
</g>
<!-- DLL1&#45;&gt;MIBcomp -->
<g id="edge14" class="edge"><title>DLL1&#45;&gt;MIBcomp</title>
<path fill="none" stroke="black" d="M395.586,-174.011C395.319,-162.843 394.967,-148.086 394.663,-135.314"/>
<polygon fill="black" stroke="black" points="398.158,-135.088 394.421,-125.174 391.16,-135.255 398.158,-135.088"/>
</g>
<!-- NEK7 -->
<g id="node18" class="node"><title>NEK7</title>
<ellipse fill="none" stroke="black" cx="1881" cy="-192.385" rx="18" ry="18"/>
<text text-anchor="middle" x="1881" y="-191.185" font-family="Times,serif" font-size="4.00">NEK7</text>
</g>
<!-- NEKs -->
<g id="node20" class="node"><title>NEKs</title>
<ellipse fill="none" stroke="black" cx="1908" cy="-106.534" rx="18" ry="18"/>
<text text-anchor="middle" x="1908" y="-105.334" font-family="Times,serif" font-size="4.00">NEKs</text>
</g>
<!-- NEK7&#45;&gt;NEKs -->
<g id="edge15" class="edge"><title>NEK7&#45;&gt;NEKs</title>
<path fill="none" stroke="black" d="M1886.33,-174.819C1890.13,-163.028 1895.31,-146.952 1899.65,-133.47"/>
<polygon fill="black" stroke="black" points="1903.04,-134.372 1902.77,-123.78 1896.37,-132.226 1903.04,-134.372"/>
</g>
<!-- dcafznf -->
<g id="node19" class="node"><title>dcafznf</title>
<ellipse fill="none" stroke="black" cx="1206" cy="-106.534" rx="18" ry="18"/>
<text text-anchor="middle" x="1206" y="-105.334" font-family="Times,serif" font-size="4.00">dcafznf</text>
</g>
<!-- NEK6 -->
<g id="node21" class="node"><title>NEK6</title>
<ellipse fill="none" stroke="black" cx="1935" cy="-192.385" rx="18" ry="18"/>
<text text-anchor="middle" x="1935" y="-191.185" font-family="Times,serif" font-size="4.00">NEK6</text>
</g>
<!-- NEK6&#45;&gt;NEKs -->
<g id="edge16" class="edge"><title>NEK6&#45;&gt;NEKs</title>
<path fill="none" stroke="black" d="M1929.67,-174.819C1925.87,-163.028 1920.69,-146.952 1916.35,-133.47"/>
<polygon fill="black" stroke="black" points="1919.63,-132.226 1913.23,-123.78 1912.96,-134.372 1919.63,-132.226"/>
</g>
<!-- COPS7A -->
<g id="node22" class="node"><title>COPS7A</title>
<ellipse fill="none" stroke="black" cx="1584" cy="-106.534" rx="18" ry="18"/>
<text text-anchor="middle" x="1584" y="-105.334" font-family="Times,serif" font-size="4.00">COPS7A</text>
</g>
<!-- COPS -->
<g id="node55" class="node"><title>COPS</title>
<ellipse fill="none" stroke="black" cx="1692" cy="-21.2132" rx="18" ry="18"/>
<text text-anchor="middle" x="1692" y="-20.0132" font-family="Times,serif" font-size="4.00">COPS</text>
</g>
<!-- COPS7A&#45;&gt;COPS -->
<g id="edge17" class="edge"><title>COPS7A&#45;&gt;COPS</title>
<path fill="none" stroke="black" d="M1595.92,-92.629C1600.46,-87.9625 1605.81,-82.7757 1611,-78.4264 1629.38,-63.036 1651.9,-47.6595 1668.52,-36.8887"/>
<polygon fill="black" stroke="black" points="1670.55,-39.7461 1677.08,-31.4079 1666.77,-33.85 1670.55,-39.7461"/>
</g>
<!-- mat2bcomp -->
<g id="node23" class="node"><title>mat2bcomp</title>
<ellipse fill="none" stroke="black" cx="984" cy="-106.534" rx="20.8674" ry="20.8674"/>
<text text-anchor="middle" x="984" y="-105.334" font-family="Times,serif" font-size="4.00">mat2bcomp</text>
</g>
<!-- znfcomp -->
<g id="node24" class="node"><title>znfcomp</title>
<ellipse fill="none" stroke="black" cx="927" cy="-106.534" rx="18" ry="18"/>
<text text-anchor="middle" x="927" y="-105.334" font-family="Times,serif" font-size="4.00">znfcomp</text>
</g>
<!-- Fibrillincomp -->
<g id="node25" class="node"><title>Fibrillincomp</title>
<ellipse fill="none" stroke="black" cx="814" cy="-106.534" rx="22.6101" ry="22.6101"/>
<text text-anchor="middle" x="814" y="-105.334" font-family="Times,serif" font-size="4.00">Fibrillincomp</text>
</g>
<!-- DCAF7 -->
<g id="node26" class="node"><title>DCAF7</title>
<ellipse fill="none" stroke="black" cx="1206" cy="-192.385" rx="18" ry="18"/>
<text text-anchor="middle" x="1206" y="-191.185" font-family="Times,serif" font-size="4.00">DCAF7</text>
</g>
<!-- DCAF7&#45;&gt;dcafznf -->
<g id="edge18" class="edge"><title>DCAF7&#45;&gt;dcafznf</title>
<path fill="none" stroke="black" d="M1206,-174.011C1206,-162.693 1206,-147.69 1206,-134.801"/>
<polygon fill="black" stroke="black" points="1209.5,-134.599 1206,-124.599 1202.5,-134.599 1209.5,-134.599"/>
</g>
<!-- dcafcomp -->
<g id="node35" class="node"><title>dcafcomp</title>
<ellipse fill="none" stroke="black" cx="1041" cy="-106.534" rx="18.6233" ry="18.6233"/>
<text text-anchor="middle" x="1041" y="-105.334" font-family="Times,serif" font-size="4.00">dcafcomp</text>
</g>
<!-- DCAF7&#45;&gt;dcafcomp -->
<g id="edge19" class="edge"><title>DCAF7&#45;&gt;dcafcomp</title>
<path fill="none" stroke="black" d="M1192.88,-179.879C1188.65,-176.573 1183.81,-173.18 1179,-170.641 1133.51,-146.628 1113.05,-161.21 1069,-134.641 1065.95,-132.803 1062.98,-130.577 1060.17,-128.198"/>
<polygon fill="black" stroke="black" points="1062.48,-125.57 1052.79,-121.291 1057.7,-130.68 1062.48,-125.57"/>
</g>
<!-- EDN1 -->
<g id="node46" class="node"><title>EDN1</title>
<ellipse fill="none" stroke="black" cx="1260" cy="-106.534" rx="18" ry="18"/>
<text text-anchor="middle" x="1260" y="-105.334" font-family="Times,serif" font-size="4.00">EDN1</text>
</g>
<!-- DCAF7&#45;&gt;EDN1 -->
<g id="edge20" class="edge"><title>DCAF7&#45;&gt;EDN1</title>
<path fill="none" stroke="black" d="M1215.41,-176.779C1223.61,-164.034 1235.66,-145.323 1245.17,-130.563"/>
<polygon fill="black" stroke="black" points="1248.23,-132.275 1250.7,-121.972 1242.34,-128.485 1248.23,-132.275"/>
</g>
<!-- EDNRA -->
<g id="node27" class="node"><title>EDNRA</title>
<ellipse fill="none" stroke="black" cx="1314" cy="-106.534" rx="18" ry="18"/>
<text text-anchor="middle" x="1314" y="-105.334" font-family="Times,serif" font-size="4.00">EDNRA</text>
</g>
<!-- EDNRA&#45;&gt;EDN1&#45;homo -->
<g id="edge21" class="edge"><title>EDNRA&#45;&gt;EDN1&#45;homo</title>
<path fill="none" stroke="black" d="M1323.41,-91.0205C1331.04,-79.2405 1342,-62.3312 1351.14,-48.2235"/>
<polygon fill="black" stroke="black" points="1354.33,-49.7347 1356.84,-39.4394 1348.46,-45.9276 1354.33,-49.7347"/>
</g>
<!-- nek9comp -->
<g id="node28" class="node"><title>nek9comp</title>
<ellipse fill="none" stroke="black" cx="1097" cy="-106.534" rx="19.1842" ry="19.1842"/>
<text text-anchor="middle" x="1097" y="-105.334" font-family="Times,serif" font-size="4.00">nek9comp</text>
</g>
<!-- COPS6 -->
<g id="node29" class="node"><title>COPS6</title>
<ellipse fill="none" stroke="black" cx="1530" cy="-106.534" rx="18" ry="18"/>
<text text-anchor="middle" x="1530" y="-105.334" font-family="Times,serif" font-size="4.00">COPS6</text>
</g>
<!-- COPS6&#45;&gt;COPS -->
<g id="edge22" class="edge"><title>COPS6&#45;&gt;COPS</title>
<path fill="none" stroke="black" d="M1541.19,-92.2835C1545.73,-87.4708 1551.26,-82.2753 1557,-78.4264 1591.36,-55.3715 1636.69,-38.8877 1665.09,-29.9528"/>
<polygon fill="black" stroke="black" points="1666.2,-33.2745 1674.74,-27.0044 1664.15,-26.5802 1666.2,-33.2745"/>
</g>
<!-- COPS6&#45;&gt;EDN1&#45;homo -->
<g id="edge23" class="edge"><title>COPS6&#45;&gt;EDN1&#45;homo</title>
<path fill="none" stroke="black" d="M1518.81,-92.2835C1514.27,-87.4708 1508.74,-82.2753 1503,-78.4264 1469.95,-56.2534 1426.76,-40.1583 1398.24,-31.0112"/>
<polygon fill="black" stroke="black" points="1399.03,-27.5913 1388.44,-27.9572 1396.95,-34.2743 1399.03,-27.5913"/>
</g>
<!-- NEC1 -->
<g id="node30" class="node"><title>NEC1</title>
<ellipse fill="none" stroke="black" cx="1152" cy="-106.534" rx="18" ry="18"/>
<text text-anchor="middle" x="1152" y="-105.334" font-family="Times,serif" font-size="4.00">NEC1</text>
</g>
<!-- Nsp9 -->
<g id="node31" class="node"><title>Nsp9</title>
<ellipse fill="none" stroke="black" cx="806" cy="-192.385" rx="18" ry="18"/>
<text text-anchor="middle" x="806" y="-191.185" font-family="Times,serif" font-size="4.00">Nsp9</text>
</g>
<!-- Nsp9&#45;&gt;mibcomp -->
<g id="edge34" class="edge"><title>Nsp9&#45;&gt;mibcomp</title>
<path fill="none" stroke="black" d="M793.057,-179.509C788.837,-176.188 783.956,-172.88 779,-170.641 703.056,-136.348 668.512,-173.88 595,-134.641 592.011,-133.046 589.142,-131.011 586.463,-128.774"/>
<polygon fill="black" stroke="black" points="588.713,-126.082 579.068,-121.697 583.873,-131.14 588.713,-126.082"/>
</g>
<!-- Nsp9&#45;&gt;Nuclear Pore comp -->
<g id="edge27" class="edge"><title>Nsp9&#45;&gt;Nuclear Pore comp</title>
<path fill="none" stroke="black" d="M792.086,-180.486C787.911,-177.272 783.298,-173.777 779,-170.641 756.292,-154.074 749.895,-150.949 727,-134.641 724.9,-133.146 722.74,-131.595 720.567,-130.027"/>
<polygon fill="black" stroke="black" points="722.382,-127.019 712.235,-123.972 718.267,-132.682 722.382,-127.019"/>
</g>
<!-- Nsp9&#45;&gt;NspComp -->
<g id="edge29" class="edge"><title>Nsp9&#45;&gt;NspComp</title>
<path fill="none" stroke="black" d="M796.882,-176.394C789.314,-163.951 778.408,-146.02 769.622,-131.574"/>
<polygon fill="black" stroke="black" points="772.398,-129.403 764.211,-122.678 766.417,-133.04 772.398,-129.403"/>
</g>
<!-- Nsp9&#45;&gt;spartcomp -->
<g id="edge32" class="edge"><title>Nsp9&#45;&gt;spartcomp</title>
<path fill="none" stroke="black" d="M792.934,-179.766C788.71,-176.456 783.857,-173.088 779,-170.641 726.987,-144.436 703.687,-163.327 653,-134.641 649.907,-132.891 646.884,-130.746 644.028,-128.437"/>
<polygon fill="black" stroke="black" points="646.281,-125.756 636.5,-121.683 641.606,-130.966 646.281,-125.756"/>
</g>
<!-- Nsp9&#45;&gt;mat2bcomp -->
<g id="edge31" class="edge"><title>Nsp9&#45;&gt;mat2bcomp</title>
<path fill="none" stroke="black" d="M819.082,-179.798C823.307,-176.489 828.157,-173.115 833,-170.641 882.969,-145.124 905.087,-162.129 954,-134.641 956.937,-132.991 959.828,-131.006 962.586,-128.871"/>
<polygon fill="black" stroke="black" points="965.06,-131.36 970.377,-122.196 960.505,-126.044 965.06,-131.36"/>
</g>
<!-- Nsp9&#45;&gt;znfcomp -->
<g id="edge28" class="edge"><title>Nsp9&#45;&gt;znfcomp</title>
<path fill="none" stroke="black" d="M819.423,-180.389C823.662,-177.104 828.433,-173.595 833,-170.641 861.385,-152.284 872.89,-154.835 900,-134.641 902.77,-132.578 905.529,-130.235 908.166,-127.81"/>
<polygon fill="black" stroke="black" points="910.932,-129.998 915.607,-120.491 906.023,-125.008 910.932,-129.998"/>
</g>
<!-- Nsp9&#45;&gt;Fibrillincomp -->
<g id="edge26" class="edge"><title>Nsp9&#45;&gt;Fibrillincomp</title>
<path fill="none" stroke="black" d="M807.619,-174.416C808.579,-164.349 809.828,-151.263 810.966,-139.339"/>
<polygon fill="black" stroke="black" points="814.461,-139.551 811.927,-129.264 807.493,-138.886 814.461,-139.551"/>
</g>
<!-- Nsp9&#45;&gt;nek9comp -->
<g id="edge25" class="edge"><title>Nsp9&#45;&gt;nek9comp</title>
<path fill="none" stroke="black" d="M818.887,-179.38C823.104,-176.055 827.998,-172.775 833,-170.641 930.592,-129.007 973.94,-181.773 1069,-134.641 1072.19,-133.061 1075.25,-130.985 1078.1,-128.685"/>
<polygon fill="black" stroke="black" points="1080.54,-131.193 1085.51,-121.832 1075.79,-126.054 1080.54,-131.193"/>
</g>
<!-- Nsp9&#45;&gt;dcafcomp -->
<g id="edge33" class="edge"><title>Nsp9&#45;&gt;dcafcomp</title>
<path fill="none" stroke="black" d="M818.947,-179.518C823.167,-176.198 828.047,-172.887 833,-170.641 907.699,-136.769 941.703,-173.377 1014,-134.641 1016.99,-133.042 1019.85,-131.003 1022.53,-128.765"/>
<polygon fill="black" stroke="black" points="1025.12,-131.13 1029.93,-121.687 1020.28,-126.073 1025.12,-131.13"/>
</g>
<!-- Nsp9&#45;&gt;gtf2f2comp -->
<g id="edge30" class="edge"><title>Nsp9&#45;&gt;gtf2f2comp</title>
<path fill="none" stroke="black" d="M793.428,-179.5C789.151,-176.095 784.145,-172.741 779,-170.641 655.073,-120.068 601.341,-191.138 480,-134.641 476.939,-133.216 473.987,-131.343 471.215,-129.246"/>
<polygon fill="black" stroke="black" points="473.339,-126.455 463.507,-122.508 468.732,-131.725 473.339,-126.455"/>
</g>
<!-- Nsp9&#45;&gt;eifcomp -->
<g id="edge24" class="edge"><title>Nsp9&#45;&gt;eifcomp</title>
<path fill="none" stroke="black" d="M816.765,-177.913C827.252,-164.788 843.367,-144.62 855.662,-129.233"/>
<polygon fill="black" stroke="black" points="858.531,-131.248 862.039,-121.251 853.063,-126.879 858.531,-131.248"/>
</g>
<!-- ZNF503 -->
<g id="node32" class="node"><title>ZNF503</title>
<ellipse fill="none" stroke="black" cx="1035" cy="-192.385" rx="18" ry="18"/>
<text text-anchor="middle" x="1035" y="-191.185" font-family="Times,serif" font-size="4.00">ZNF503</text>
</g>
<!-- ZNF503&#45;&gt;dcafznf -->
<g id="edge35" class="edge"><title>ZNF503&#45;&gt;dcafznf</title>
<path fill="none" stroke="black" d="M1052.5,-187.012C1080.75,-179.418 1137.46,-161.942 1179,-134.641 1181.89,-132.745 1184.71,-130.5 1187.39,-128.127"/>
<polygon fill="black" stroke="black" points="1190.14,-130.332 1194.85,-120.843 1185.25,-125.322 1190.14,-130.332"/>
</g>
<!-- ZNF503&#45;&gt;znfcomp -->
<g id="edge36" class="edge"><title>ZNF503&#45;&gt;znfcomp</title>
<path fill="none" stroke="black" d="M1020.09,-182.078C1003.4,-171.399 975.813,-152.986 954,-134.641 951.407,-132.461 948.776,-130.074 946.225,-127.648"/>
<polygon fill="black" stroke="black" points="948.497,-124.973 938.927,-120.426 943.573,-129.948 948.497,-124.973"/>
</g>
<!-- NUP62 -->
<g id="node33" class="node"><title>NUP62</title>
<ellipse fill="none" stroke="black" cx="555" cy="-341.252" rx="18" ry="18"/>
<text text-anchor="middle" x="555" y="-340.052" font-family="Times,serif" font-size="4.00">NUP62</text>
</g>
<!-- nup1 -->
<g id="node47" class="node"><title>nup1</title>
<ellipse fill="none" stroke="black" cx="636" cy="-268.69" rx="18" ry="18"/>
<text text-anchor="middle" x="636" y="-267.49" font-family="Times,serif" font-size="4.00">nup1</text>
</g>
<!-- NUP62&#45;&gt;nup1 -->
<g id="edge37" class="edge"><title>NUP62&#45;&gt;nup1</title>
<path fill="none" stroke="black" d="M568.376,-328.6C581.114,-317.503 600.479,-300.633 615.227,-287.786"/>
<polygon fill="black" stroke="black" points="617.632,-290.333 622.873,-281.125 613.034,-285.054 617.632,-290.333"/>
</g>
<!-- COPS5 -->
<g id="node34" class="node"><title>COPS5</title>
<ellipse fill="none" stroke="black" cx="1638" cy="-106.534" rx="18" ry="18"/>
<text text-anchor="middle" x="1638" y="-105.334" font-family="Times,serif" font-size="4.00">COPS5</text>
</g>
<!-- COPS5&#45;&gt;COPS -->
<g id="edge38" class="edge"><title>COPS5&#45;&gt;COPS</title>
<path fill="none" stroke="black" d="M1647.41,-91.0205C1655.56,-78.4333 1667.52,-59.9898 1677,-45.3655"/>
<polygon fill="black" stroke="black" points="1680.02,-47.1351 1682.52,-36.8398 1674.14,-43.328 1680.02,-47.1351"/>
</g>
<!-- POLR2E -->
<g id="node36" class="node"><title>POLR2E</title>
<ellipse fill="none" stroke="black" cx="18" cy="-192.385" rx="18" ry="18"/>
<text text-anchor="middle" x="18" y="-191.185" font-family="Times,serif" font-size="4.00">POLR2E</text>
</g>
<!-- POLR2E&#45;&gt;gtfrnapoly -->
<g id="edge39" class="edge"><title>POLR2E&#45;&gt;gtfrnapoly</title>
<path fill="none" stroke="black" d="M31.7661,-180.275C35.9374,-177.055 40.5851,-173.61 45,-170.641 72.4375,-152.193 105.439,-133.367 127.682,-121.138"/>
<polygon fill="black" stroke="black" points="129.407,-124.183 136.508,-116.321 126.053,-118.039 129.407,-124.183"/>
</g>
<!-- COPS8 -->
<g id="node37" class="node"><title>COPS8</title>
<ellipse fill="none" stroke="black" cx="1692" cy="-106.534" rx="18" ry="18"/>
<text text-anchor="middle" x="1692" y="-105.334" font-family="Times,serif" font-size="4.00">COPS8</text>
</g>
<!-- COPS8&#45;&gt;COPS -->
<g id="edge40" class="edge"><title>COPS8&#45;&gt;COPS</title>
<path fill="none" stroke="black" d="M1692,-88.2698C1692,-77.098 1692,-62.3123 1692,-49.5623"/>
<polygon fill="black" stroke="black" points="1695.5,-49.4552 1692,-39.4552 1688.5,-49.4552 1695.5,-49.4552"/>
</g>
<!-- LOXL1 -->
<g id="node38" class="node"><title>LOXL1</title>
<ellipse fill="none" stroke="black" cx="825" cy="-341.252" rx="18" ry="18"/>
<text text-anchor="middle" x="825" y="-340.052" font-family="Times,serif" font-size="4.00">LOXL1</text>
</g>
<!-- LOXcomp -->
<g id="node40" class="node"><title>LOXcomp</title>
<ellipse fill="none" stroke="black" cx="825" cy="-268.69" rx="18.6233" ry="18.6233"/>
<text text-anchor="middle" x="825" y="-267.49" font-family="Times,serif" font-size="4.00">LOXcomp</text>
</g>
<!-- LOXL1&#45;&gt;LOXcomp -->
<g id="edge41" class="edge"><title>LOXL1&#45;&gt;LOXcomp</title>
<path fill="none" stroke="black" d="M825,-323.171C825,-315.515 825,-306.286 825,-297.665"/>
<polygon fill="black" stroke="black" points="828.5,-297.598 825,-287.598 821.5,-297.598 828.5,-297.598"/>
</g>
<!-- NEK9 -->
<g id="node39" class="node"><title>NEK9</title>
<ellipse fill="none" stroke="black" cx="1422" cy="-192.385" rx="18" ry="18"/>
<text text-anchor="middle" x="1422" y="-191.185" font-family="Times,serif" font-size="4.00">NEK9</text>
</g>
<!-- NEK9&#45;&gt;NEKs -->
<g id="edge42" class="edge"><title>NEK9&#45;&gt;NEKs</title>
<path fill="none" stroke="black" d="M1434.53,-179.386C1438.8,-175.975 1443.82,-172.646 1449,-170.641 1628.69,-101.129 1706.3,-215.879 1881,-134.641 1884.29,-133.111 1887.41,-130.998 1890.28,-128.621"/>
<polygon fill="black" stroke="black" points="1892.89,-130.964 1897.63,-121.49 1888.01,-125.939 1892.89,-130.964"/>
</g>
<!-- NEK9&#45;&gt;nek9comp -->
<g id="edge43" class="edge"><title>NEK9&#45;&gt;nek9comp</title>
<path fill="none" stroke="black" d="M1409.14,-179.322C1404.92,-175.994 1400.02,-172.728 1395,-170.641 1283.21,-124.187 1233.96,-187.395 1125,-134.641 1121.8,-133.091 1118.73,-131.033 1115.87,-128.742"/>
<polygon fill="black" stroke="black" points="1118.18,-126.111 1108.46,-121.896 1113.43,-131.253 1118.18,-126.111"/>
</g>
<!-- SPART -->
<g id="node41" class="node"><title>SPART</title>
<ellipse fill="none" stroke="black" cx="594" cy="-192.385" rx="18" ry="18"/>
<text text-anchor="middle" x="594" y="-191.185" font-family="Times,serif" font-size="4.00">SPART</text>
</g>
<!-- SPART&#45;&gt;spartcomp -->
<g id="edge45" class="edge"><title>SPART&#45;&gt;spartcomp</title>
<path fill="none" stroke="black" d="M599.784,-175.218C603.855,-163.841 609.403,-148.332 614.162,-135.03"/>
<polygon fill="black" stroke="black" points="617.537,-135.988 617.61,-125.394 610.946,-133.63 617.537,-135.988"/>
</g>
<!-- SPART&#45;&gt;SPARTcomp -->
<g id="edge44" class="edge"><title>SPART&#45;&gt;SPARTcomp</title>
<path fill="none" stroke="black" d="M581.606,-179.012C568.585,-166.015 547.84,-145.307 532.023,-129.518"/>
<polygon fill="black" stroke="black" points="534.26,-126.805 524.71,-122.218 529.314,-131.759 534.26,-126.805"/>
</g>
<!-- NUP58 -->
<g id="node42" class="node"><title>NUP58</title>
<ellipse fill="none" stroke="black" cx="609" cy="-341.252" rx="18" ry="18"/>
<text text-anchor="middle" x="609" y="-340.052" font-family="Times,serif" font-size="4.00">NUP58</text>
</g>
<!-- NUP58&#45;&gt;nup1 -->
<g id="edge46" class="edge"><title>NUP58&#45;&gt;nup1</title>
<path fill="none" stroke="black" d="M615.127,-324.24C618.406,-315.669 622.523,-304.91 626.232,-295.217"/>
<polygon fill="black" stroke="black" points="629.593,-296.229 629.898,-285.638 623.055,-293.727 629.593,-296.229"/>
</g>
<!-- BAG6 -->
<g id="node43" class="node"><title>BAG6</title>
<ellipse fill="none" stroke="black" cx="1368" cy="-106.534" rx="18" ry="18"/>
<text text-anchor="middle" x="1368" y="-105.334" font-family="Times,serif" font-size="4.00">BAG6</text>
</g>
<!-- BAG6&#45;&gt;EDN1&#45;homo -->
<g id="edge47" class="edge"><title>BAG6&#45;&gt;EDN1&#45;homo</title>
<path fill="none" stroke="black" d="M1368,-88.2698C1368,-78.0208 1368,-64.7302 1368,-52.7603"/>
<polygon fill="black" stroke="black" points="1371.5,-52.6907 1368,-42.6908 1364.5,-52.6908 1371.5,-52.6907"/>
</g>
<!-- Vpr -->
<g id="node44" class="node"><title>Vpr</title>
<ellipse fill="none" stroke="black" cx="1746" cy="-106.534" rx="18" ry="18"/>
<text text-anchor="middle" x="1746" y="-105.334" font-family="Times,serif" font-size="4.00">Vpr</text>
</g>
<!-- Vpr&#45;&gt;COPS -->
<g id="edge48" class="edge"><title>Vpr&#45;&gt;COPS</title>
<path fill="none" stroke="black" d="M1736.59,-91.0205C1728.44,-78.4333 1716.48,-59.9898 1707,-45.3655"/>
<polygon fill="black" stroke="black" points="1709.86,-43.328 1701.48,-36.8398 1703.98,-47.1351 1709.86,-43.328"/>
</g>
<!-- EDN1&#45;&gt;EDN1&#45;homo -->
<g id="edge49" class="edge"><title>EDN1&#45;&gt;EDN1&#45;homo</title>
<path fill="none" stroke="black" d="M1271.92,-92.629C1276.46,-87.9625 1281.81,-82.7757 1287,-78.4264 1304.39,-63.8704 1325.47,-49.3269 1341.76,-38.6805"/>
<polygon fill="black" stroke="black" points="1343.77,-41.5538 1350.27,-33.1914 1339.97,-35.6717 1343.77,-41.5538"/>
</g>
<!-- nup1&#45;&gt;Nuclear Pore -->
<g id="edge50" class="edge"><title>nup1&#45;&gt;Nuclear Pore</title>
<path fill="none" stroke="black" d="M646.157,-253.714C653.336,-243.836 663.159,-230.318 671.688,-218.582"/>
<polygon fill="black" stroke="black" points="674.566,-220.576 677.613,-210.429 668.903,-216.461 674.566,-220.576"/>
</g>
<!-- MAT1A -->
<g id="node48" class="node"><title>MAT1A</title>
<ellipse fill="none" stroke="black" cx="1476" cy="-192.385" rx="18" ry="18"/>
<text text-anchor="middle" x="1476" y="-191.185" font-family="Times,serif" font-size="4.00">MAT1A</text>
</g>
<!-- MAT1A&#45;&gt;MAT -->
<g id="edge51" class="edge"><title>MAT1A&#45;&gt;MAT</title>
<path fill="none" stroke="black" d="M1466.59,-176.779C1458.39,-164.034 1446.34,-145.323 1436.83,-130.563"/>
<polygon fill="black" stroke="black" points="1439.66,-128.485 1431.3,-121.972 1433.77,-132.275 1439.66,-128.485"/>
</g>
<!-- COPS4 -->
<g id="node50" class="node"><title>COPS4</title>
<ellipse fill="none" stroke="black" cx="1800" cy="-106.534" rx="18" ry="18"/>
<text text-anchor="middle" x="1800" y="-105.334" font-family="Times,serif" font-size="4.00">COPS4</text>
</g>
<!-- COPS4&#45;&gt;COPS -->
<g id="edge52" class="edge"><title>COPS4&#45;&gt;COPS</title>
<path fill="none" stroke="black" d="M1788.08,-92.629C1783.54,-87.9625 1778.19,-82.7757 1773,-78.4264 1754.62,-63.036 1732.1,-47.6595 1715.48,-36.8887"/>
<polygon fill="black" stroke="black" points="1717.23,-33.85 1706.92,-31.4079 1713.45,-39.7461 1717.23,-33.85"/>
</g>
<!-- nup2 -->
<g id="node51" class="node"><title>nup2</title>
<ellipse fill="none" stroke="black" cx="717" cy="-268.69" rx="18" ry="18"/>
<text text-anchor="middle" x="717" y="-267.49" font-family="Times,serif" font-size="4.00">nup2</text>
</g>
<!-- nup2&#45;&gt;Nuclear Pore -->
<g id="edge53" class="edge"><title>nup2&#45;&gt;Nuclear Pore</title>
<path fill="none" stroke="black" d="M711.141,-251.567C708.071,-243.116 704.213,-232.5 700.637,-222.657"/>
<polygon fill="black" stroke="black" points="703.898,-221.385 697.193,-213.181 697.319,-223.776 703.898,-221.385"/>
</g>
<!-- NUP214 -->
<g id="node53" class="node"><title>NUP214</title>
<ellipse fill="none" stroke="black" cx="771" cy="-341.252" rx="18" ry="18"/>
<text text-anchor="middle" x="771" y="-340.052" font-family="Times,serif" font-size="4.00">NUP214</text>
</g>
<!-- NUP214&#45;&gt;nup2 -->
<g id="edge54" class="edge"><title>NUP214&#45;&gt;nup2</title>
<path fill="none" stroke="black" d="M760.331,-326.311C752.787,-316.453 742.519,-303.035 733.871,-291.736"/>
<polygon fill="black" stroke="black" points="736.503,-289.416 727.646,-283.602 730.944,-293.67 736.503,-289.416"/>
</g>
<!-- Fibrillin -->
<g id="node54" class="node"><title>Fibrillin</title>
<ellipse fill="none" stroke="black" cx="860" cy="-192.385" rx="18" ry="18"/>
<text text-anchor="middle" x="860" y="-191.185" font-family="Times,serif" font-size="4.00">Fibrillin</text>
</g>
<!-- Fibrillin&#45;&gt;Fibrillincomp -->
<g id="edge55" class="edge"><title>Fibrillin&#45;&gt;Fibrillincomp</title>
<path fill="none" stroke="black" d="M851.563,-176.005C845.409,-164.788 836.893,-149.265 829.525,-135.834"/>
<polygon fill="black" stroke="black" points="832.529,-134.033 824.651,-126.949 826.392,-137.4 832.529,-134.033"/>
</g>
<!-- POLR2G -->
<g id="node56" class="node"><title>POLR2G</title>
<ellipse fill="none" stroke="black" cx="72" cy="-192.385" rx="18" ry="18"/>
<text text-anchor="middle" x="72" y="-191.185" font-family="Times,serif" font-size="4.00">POLR2G</text>
</g>
<!-- POLR2G&#45;&gt;gtfrnapoly -->
<g id="edge56" class="edge"><title>POLR2G&#45;&gt;gtfrnapoly</title>
<path fill="none" stroke="black" d="M84.3022,-178.65C97.2334,-165.263 117.779,-143.995 133.036,-128.2"/>
<polygon fill="black" stroke="black" points="135.614,-130.569 140.045,-120.945 130.58,-125.706 135.614,-130.569"/>
</g>
<!-- Nsp8 -->
<g id="node57" class="node"><title>Nsp8</title>
<ellipse fill="none" stroke="black" cx="752" cy="-192.385" rx="18" ry="18"/>
<text text-anchor="middle" x="752" y="-191.185" font-family="Times,serif" font-size="4.00">Nsp8</text>
</g>
<!-- Nsp8&#45;&gt;NspComp -->
<g id="edge57" class="edge"><title>Nsp8&#45;&gt;NspComp</title>
<path fill="none" stroke="black" d="M752.622,-174.011C753.021,-162.843 753.549,-148.086 754.006,-135.314"/>
<polygon fill="black" stroke="black" points="757.509,-135.293 754.369,-125.174 750.513,-135.043 757.509,-135.293"/>
</g>
<!-- GTF2B -->
<g id="node58" class="node"><title>GTF2B</title>
<ellipse fill="none" stroke="black" cx="126" cy="-192.385" rx="18" ry="18"/>
<text text-anchor="middle" x="126" y="-191.185" font-family="Times,serif" font-size="4.00">GTF2B</text>
</g>
<!-- GTF2B&#45;&gt;gtfrnapoly -->
<g id="edge58" class="edge"><title>GTF2B&#45;&gt;gtfrnapoly</title>
<path fill="none" stroke="black" d="M131.334,-174.819C135.033,-163.333 140.041,-147.779 144.311,-134.519"/>
<polygon fill="black" stroke="black" points="147.664,-135.523 147.398,-124.932 141.001,-133.378 147.664,-135.523"/>
</g>
<!-- NUP54 -->
<g id="node59" class="node"><title>NUP54</title>
<ellipse fill="none" stroke="black" cx="663" cy="-341.252" rx="18" ry="18"/>
<text text-anchor="middle" x="663" y="-340.052" font-family="Times,serif" font-size="4.00">NUP54</text>
</g>
<!-- NUP54&#45;&gt;nup1 -->
<g id="edge59" class="edge"><title>NUP54&#45;&gt;nup1</title>
<path fill="none" stroke="black" d="M656.873,-324.24C653.594,-315.669 649.477,-304.91 645.768,-295.217"/>
<polygon fill="black" stroke="black" points="648.945,-293.727 642.102,-285.638 642.407,-296.229 648.945,-293.727"/>
</g>
<!-- COPS2 -->
<g id="node60" class="node"><title>COPS2</title>
<ellipse fill="none" stroke="black" cx="1854" cy="-106.534" rx="18" ry="18"/>
<text text-anchor="middle" x="1854" y="-105.334" font-family="Times,serif" font-size="4.00">COPS2</text>
</g>
<!-- COPS2&#45;&gt;COPS -->
<g id="edge60" class="edge"><title>COPS2&#45;&gt;COPS</title>
<path fill="none" stroke="black" d="M1842.81,-92.2835C1838.27,-87.4708 1832.74,-82.2753 1827,-78.4264 1792.64,-55.3715 1747.31,-38.8877 1718.91,-29.9528"/>
<polygon fill="black" stroke="black" points="1719.85,-26.5802 1709.26,-27.0044 1717.8,-33.2745 1719.85,-26.5802"/>
</g>
<!-- MAT2B -->
<g id="node61" class="node"><title>MAT2B</title>
<ellipse fill="none" stroke="black" cx="1152" cy="-192.385" rx="18" ry="18"/>
<text text-anchor="middle" x="1152" y="-191.185" font-family="Times,serif" font-size="4.00">MAT2B</text>
</g>
<!-- MAT2B&#45;&gt;mat2bcomp -->
<g id="edge61" class="edge"><title>MAT2B&#45;&gt;mat2bcomp</title>
<path fill="none" stroke="black" d="M1134.78,-186.582C1107.53,-178.505 1053.39,-160.507 1013,-134.641 1010.44,-133.004 1007.91,-131.127 1005.46,-129.141"/>
<polygon fill="black" stroke="black" points="1007.39,-126.177 997.588,-122.164 1002.75,-131.416 1007.39,-126.177"/>
</g>
<!-- MAT2B&#45;&gt;NEC1 -->
<g id="edge63" class="edge"><title>MAT2B&#45;&gt;NEC1</title>
<path fill="none" stroke="black" d="M1152,-174.011C1152,-162.693 1152,-147.69 1152,-134.801"/>
<polygon fill="black" stroke="black" points="1155.5,-134.599 1152,-124.599 1148.5,-134.599 1155.5,-134.599"/>
</g>
<!-- MAT2B&#45;&gt;MAT -->
<g id="edge62" class="edge"><title>MAT2B&#45;&gt;MAT</title>
<path fill="none" stroke="black" d="M1164.9,-179.423C1169.12,-176.099 1174.01,-172.81 1179,-170.641 1268.25,-131.836 1308.51,-179.261 1395,-134.641 1398.23,-132.977 1401.31,-130.788 1404.15,-128.373"/>
<polygon fill="black" stroke="black" points="1406.78,-130.706 1411.5,-121.223 1401.89,-125.691 1406.78,-130.706"/>
</g>
<!-- NUP88 -->
<g id="node65" class="node"><title>NUP88</title>
<ellipse fill="none" stroke="black" cx="717" cy="-341.252" rx="18" ry="18"/>
<text text-anchor="middle" x="717" y="-340.052" font-family="Times,serif" font-size="4.00">NUP88</text>
</g>
<!-- NUP88&#45;&gt;nup2 -->
<g id="edge64" class="edge"><title>NUP88&#45;&gt;nup2</title>
<path fill="none" stroke="black" d="M717,-323.171C717,-315.399 717,-306.006 717,-297.274"/>
<polygon fill="black" stroke="black" points="720.5,-297.104 717,-287.104 713.5,-297.104 720.5,-297.104"/>
</g>
</g>
</svg>
