<?xml version="1.0" encoding="UTF-8" standalone="no"?>
<!DOCTYPE svg PUBLIC "-//W3C//DTD SVG 1.1//EN"
 "http://www.w3.org/Graphics/SVG/1.1/DTD/svg11.dtd">
<!-- Generated by graphviz version 2.38.0 (20140413.2041)
 -->
<!-- Title: G Pages: 1 -->
<svg width="1024pt" height="1693pt"
 viewBox="0.00 0.00 1023.61 1693.45" xmlns="http://www.w3.org/2000/svg" xmlns:xlink="http://www.w3.org/1999/xlink">
<g id="graph0" class="graph" transform="scale(1 1) rotate(0) translate(4 1689.45)">
<title>G</title>
<polygon fill="white" stroke="none" points="-4,4 -4,-1689.45 1019.61,-1689.45 1019.61,4 -4,4"/>
<!-- CSN5 -->
<g id="node1" class="node"><title>CSN5</title>
<ellipse fill="none" stroke="black" cx="207" cy="-1661.59" rx="18" ry="18"/>
<text text-anchor="middle" x="207" y="-1660.39" font-family="Times,serif" font-size="4.00">CSN5</text>
</g>
<!-- Cul2 ubiquitin ligase -->
<g id="node29" class="node"><title>Cul2 ubiquitin ligase</title>
<ellipse fill="none" stroke="black" cx="414" cy="-1570.96" rx="30.5202" ry="30.5202"/>
<text text-anchor="middle" x="414" y="-1569.76" font-family="Times,serif" font-size="4.00">Cul2 ubiquitin ligase</text>
</g>
<!-- CSN5&#45;&gt;Cul2 ubiquitin ligase -->
<g id="edge2" class="edge"><title>CSN5&#45;&gt;Cul2 ubiquitin ligase</title>
<path fill="none" stroke="black" d="M219.482,-1648.43C223.83,-1644.64 228.902,-1640.68 234,-1637.72 279.092,-1611.51 336.455,-1592.74 374.153,-1582.13"/>
<polygon fill="black" stroke="black" points="375.525,-1585.38 384.237,-1579.35 373.667,-1578.63 375.525,-1585.38"/>
</g>
<!-- Cul2 ubiquitin ligase_Orf10 -->
<g id="node41" class="node"><title>Cul2 ubiquitin ligase_Orf10</title>
<ellipse fill="none" stroke="black" cx="86" cy="-109.653" rx="37.8075" ry="37.8075"/>
<text text-anchor="middle" x="86" y="-108.453" font-family="Times,serif" font-size="4.00">Cul2 ubiquitin ligase_Orf10</text>
</g>
<!-- CSN5&#45;&gt;Cul2 ubiquitin ligase_Orf10 -->
<g id="edge1" class="edge"><title>CSN5&#45;&gt;Cul2 ubiquitin ligase_Orf10</title>
<path fill="none" stroke="black" d="M190.41,-1654.32C141.29,-1634.59 0,-1568.7 0,-1463.84 0,-1463.84 0,-1463.84 0,-349.298 0,-276.014 36.3377,-197.168 61.7724,-150.955"/>
<polygon fill="black" stroke="black" points="64.866,-152.594 66.6999,-142.159 58.759,-149.173 64.866,-152.594"/>
</g>
<!-- UBA3 -->
<g id="node2" class="node"><title>UBA3</title>
<ellipse fill="none" stroke="black" cx="836" cy="-1357.36" rx="18" ry="18"/>
<text text-anchor="middle" x="836" y="-1356.16" font-family="Times,serif" font-size="4.00">UBA3</text>
</g>
<!-- NAE -->
<g id="node27" class="node"><title>NAE</title>
<ellipse fill="none" stroke="black" cx="772" cy="-1462.84" rx="18" ry="18"/>
<text text-anchor="middle" x="772" y="-1461.64" font-family="Times,serif" font-size="4.00">NAE</text>
</g>
<!-- UBA3&#45;&gt;NAE -->
<g id="edge3" class="edge"><title>UBA3&#45;&gt;NAE</title>
<path fill="none" stroke="black" d="M830.868,-1374.92C821.817,-1392.84 804.261,-1421.46 790.483,-1440.92"/>
<polygon fill="black" stroke="black" points="787.543,-1439.01 784.462,-1449.15 793.192,-1443.15 787.543,-1439.01"/>
</g>
<!-- CUL2 -->
<g id="node3" class="node"><title>CUL2</title>
<ellipse fill="none" stroke="black" cx="890" cy="-1357.36" rx="18" ry="18"/>
<text text-anchor="middle" x="890" y="-1356.16" font-family="Times,serif" font-size="4.00">CUL2</text>
</g>
<!-- Rbx1_Cul2 -->
<g id="node13" class="node"><title>Rbx1_Cul2</title>
<ellipse fill="none" stroke="black" cx="890" cy="-1462.84" rx="20.3062" ry="20.3063"/>
<text text-anchor="middle" x="890" y="-1461.64" font-family="Times,serif" font-size="4.00">Rbx1_Cul2</text>
</g>
<!-- CUL2&#45;&gt;Rbx1_Cul2 -->
<g id="edge4" class="edge"><title>CUL2&#45;&gt;Rbx1_Cul2</title>
<path fill="none" stroke="black" d="M895.077,-1374.66C896.881,-1390.33 897.226,-1414.34 896.112,-1433.2"/>
<polygon fill="black" stroke="black" points="892.61,-1433.09 895.316,-1443.34 899.589,-1433.64 892.61,-1433.09"/>
</g>
<!-- UBE2M -->
<g id="node4" class="node"><title>UBE2M</title>
<ellipse fill="none" stroke="black" cx="400" cy="-1357.36" rx="18" ry="18"/>
<text text-anchor="middle" x="400" y="-1356.16" font-family="Times,serif" font-size="4.00">UBE2M</text>
</g>
<!-- UBE2M_NEDD8 -->
<g id="node40" class="node"><title>UBE2M_NEDD8</title>
<ellipse fill="none" stroke="black" cx="446" cy="-1267.8" rx="25.4118" ry="25.4118"/>
<text text-anchor="middle" x="446" y="-1266.6" font-family="Times,serif" font-size="4.00">UBE2M_NEDD8</text>
</g>
<!-- UBE2M&#45;&gt;UBE2M_NEDD8 -->
<g id="edge5" class="edge"><title>UBE2M&#45;&gt;UBE2M_NEDD8</title>
<path fill="none" stroke="black" d="M403.411,-1339.48C408.408,-1327.41 416.789,-1310.9 424.911,-1296.86"/>
<polygon fill="black" stroke="black" points="428.04,-1298.45 430.172,-1288.07 422.034,-1294.85 428.04,-1298.45"/>
</g>
<!-- ELOB_ELOC -->
<g id="node5" class="node"><title>ELOB_ELOC</title>
<ellipse fill="none" stroke="black" cx="588" cy="-1357.36" rx="21.9898" ry="21.9898"/>
<text text-anchor="middle" x="588" y="-1356.16" font-family="Times,serif" font-size="4.00">ELOB_ELOC</text>
</g>
<!-- ELOB -->
<g id="node24" class="node"><title>ELOB</title>
<ellipse fill="none" stroke="black" cx="631" cy="-1267.8" rx="18" ry="18"/>
<text text-anchor="middle" x="631" y="-1266.6" font-family="Times,serif" font-size="4.00">ELOB</text>
</g>
<!-- ELOB_ELOC&#45;&gt;ELOB -->
<g id="edge6" class="edge"><title>ELOB_ELOC&#45;&gt;ELOB</title>
<path fill="none" stroke="black" d="M592.35,-1335.61C597.826,-1322.05 606.479,-1304.37 614.363,-1290.61"/>
<polygon fill="black" stroke="black" points="617.504,-1292.17 619.65,-1281.8 611.502,-1288.57 617.504,-1292.17"/>
</g>
<!-- ELOC -->
<g id="node31" class="node"><title>ELOC</title>
<ellipse fill="none" stroke="black" cx="577" cy="-1267.8" rx="18" ry="18"/>
<text text-anchor="middle" x="577" y="-1266.6" font-family="Times,serif" font-size="4.00">ELOC</text>
</g>
<!-- ELOB_ELOC&#45;&gt;ELOC -->
<g id="edge7" class="edge"><title>ELOB_ELOC&#45;&gt;ELOC</title>
<path fill="none" stroke="black" d="M579.839,-1336.93C577.158,-1324.76 574.982,-1308.92 574.088,-1295.58"/>
<polygon fill="black" stroke="black" points="577.583,-1295.37 573.661,-1285.52 570.589,-1295.66 577.583,-1295.37"/>
</g>
<!-- Zyg11B_EloBC -->
<g id="node38" class="node"><title>Zyg11B_EloBC</title>
<ellipse fill="none" stroke="black" cx="536" cy="-1462.84" rx="24.2908" ry="24.2908"/>
<text text-anchor="middle" x="536" y="-1461.64" font-family="Times,serif" font-size="4.00">Zyg11B_EloBC</text>
</g>
<!-- ELOB_ELOC&#45;&gt;Zyg11B_EloBC -->
<g id="edge8" class="edge"><title>ELOB_ELOC&#45;&gt;Zyg11B_EloBC</title>
<path fill="none" stroke="black" d="M583.3,-1378.64C576.797,-1394.5 565.818,-1416.72 555.939,-1434.2"/>
<polygon fill="black" stroke="black" points="552.907,-1432.45 550.902,-1442.86 558.957,-1435.98 552.907,-1432.45"/>
</g>
<!-- ubit_traget -->
<g id="node6" class="node"><title>ubit_traget</title>
<ellipse fill="none" stroke="black" cx="233" cy="-350.298" rx="20.3063" ry="20.3062"/>
<text text-anchor="middle" x="233" y="-349.098" font-family="Times,serif" font-size="4.00">ubit_traget</text>
</g>
<!-- Cul2 ubiquitin ligase_substrate -->
<g id="node17" class="node"><title>Cul2 ubiquitin ligase_substrate</title>
<ellipse fill="none" stroke="black" cx="345" cy="-1462.84" rx="41.2319" ry="41.2319"/>
<text text-anchor="middle" x="345" y="-1461.64" font-family="Times,serif" font-size="4.00">Cul2 ubiquitin ligase_substrate</text>
</g>
<!-- ubit_traget&#45;&gt;Cul2 ubiquitin ligase_substrate -->
<g id="edge9" class="edge"><title>ubit_traget&#45;&gt;Cul2 ubiquitin ligase_substrate</title>
<path fill="none" stroke="black" d="M237.578,-370.023C242,-414.568 242,-530.356 242,-627.066 242,-1268.8 242,-1268.8 242,-1268.8 242,-1328.24 282.214,-1385.75 312.513,-1422.31"/>
<polygon fill="black" stroke="black" points="310.074,-1424.85 319.195,-1430.24 315.426,-1420.34 310.074,-1424.85"/>
</g>
<!-- Cul2 ubiquitin ligase_Orf10_substrate -->
<g id="node44" class="node"><title>Cul2 ubiquitin ligase_Orf10_substrate</title>
<ellipse fill="none" stroke="black" cx="233" cy="-231.567" rx="48.0213" ry="48.0213"/>
<text text-anchor="middle" x="233" y="-230.367" font-family="Times,serif" font-size="4.00">Cul2 ubiquitin ligase_Orf10_substrate</text>
</g>
<!-- ubit_traget&#45;&gt;Cul2 ubiquitin ligase_Orf10_substrate -->
<g id="edge10" class="edge"><title>ubit_traget&#45;&gt;Cul2 ubiquitin ligase_Orf10_substrate</title>
<path fill="none" stroke="black" d="M227.885,-330.543C226.763,-319.338 226.218,-304.443 226.251,-289.658"/>
<polygon fill="black" stroke="black" points="229.753,-289.525 226.367,-279.486 222.754,-289.446 229.753,-289.525"/>
</g>
<!-- Cul2 ubiquitin ligase_N8_Orf10_substrate -->
<g id="node7" class="node"><title>Cul2 ubiquitin ligase_N8_Orf10_substrate</title>
<ellipse fill="none" stroke="black" cx="644" cy="-1154.37" rx="51.9447" ry="51.9447"/>
<text text-anchor="middle" x="644" y="-1153.17" font-family="Times,serif" font-size="4.00">Cul2 ubiquitin ligase_N8_Orf10_substrate</text>
</g>
<!-- Cul2 ubiquitin ligase_N8_Orf10_0E2_substrate -->
<g id="node28" class="node"><title>Cul2 ubiquitin ligase_N8_Orf10_0E2_substrate</title>
<ellipse fill="none" stroke="black" cx="644" cy="-1009.12" rx="57.0522" ry="57.0522"/>
<text text-anchor="middle" x="644" y="-1007.92" font-family="Times,serif" font-size="4.00">Cul2 ubiquitin ligase_N8_Orf10_0E2_substrate</text>
</g>
<!-- Cul2 ubiquitin ligase_N8_Orf10_substrate&#45;&gt;Cul2 ubiquitin ligase_N8_Orf10_0E2_substrate -->
<g id="edge12" class="edge"><title>Cul2 ubiquitin ligase_N8_Orf10_substrate&#45;&gt;Cul2 ubiquitin ligase_N8_Orf10_0E2_substrate</title>
<path fill="none" stroke="black" d="M637.507,-1102.46C637.292,-1094.03 637.212,-1085.17 637.267,-1076.42"/>
<polygon fill="black" stroke="black" points="640.769,-1076.27 637.393,-1066.22 633.769,-1076.18 640.769,-1076.27"/>
</g>
<!-- Cul2 ubiquitin ligase_N8_Orf10_E2&#45;Ub_substrate -->
<g id="node39" class="node"><title>Cul2 ubiquitin ligase_N8_Orf10_E2&#45;Ub_substrate</title>
<ellipse fill="none" stroke="black" cx="738" cy="-783.921" rx="59.8547" ry="59.8547"/>
<text text-anchor="middle" x="738" y="-782.721" font-family="Times,serif" font-size="4.00">Cul2 ubiquitin ligase_N8_Orf10_E2&#45;Ub_substrate</text>
</g>
<!-- Cul2 ubiquitin ligase_N8_Orf10_substrate&#45;&gt;Cul2 ubiquitin ligase_N8_Orf10_E2&#45;Ub_substrate -->
<g id="edge11" class="edge"><title>Cul2 ubiquitin ligase_N8_Orf10_substrate&#45;&gt;Cul2 ubiquitin ligase_N8_Orf10_E2&#45;Ub_substrate</title>
<path fill="none" stroke="black" d="M674.126,-1112.01C684.31,-1098.43 694.627,-1082.63 701,-1066.4 727.964,-997.727 732.924,-912.719 734.238,-854.197"/>
<polygon fill="black" stroke="black" points="737.742,-854.019 734.439,-843.952 730.743,-853.881 737.742,-854.019"/>
</g>
<!-- Ub -->
<g id="node8" class="node"><title>Ub</title>
<ellipse fill="none" stroke="black" cx="956" cy="-897.848" rx="18" ry="18"/>
<text text-anchor="middle" x="956" y="-896.648" font-family="Times,serif" font-size="4.00">Ub</text>
</g>
<!-- AMP -->
<g id="node16" class="node"><title>AMP</title>
<ellipse fill="none" stroke="black" cx="868" cy="-628.066" rx="18" ry="18"/>
<text text-anchor="middle" x="868" y="-626.866" font-family="Times,serif" font-size="4.00">AMP</text>
</g>
<!-- Ub&#45;&gt;AMP -->
<g id="edge13" class="edge"><title>Ub&#45;&gt;AMP</title>
<path fill="none" stroke="black" d="M950.628,-880.501C935.869,-835.589 894.606,-710.027 876.593,-655.216"/>
<polygon fill="black" stroke="black" points="879.861,-653.948 873.414,-645.541 873.211,-656.134 879.861,-653.948"/>
</g>
<!-- PPi -->
<g id="node32" class="node"><title>PPi</title>
<ellipse fill="none" stroke="black" cx="922" cy="-628.066" rx="18" ry="18"/>
<text text-anchor="middle" x="922" y="-626.866" font-family="Times,serif" font-size="4.00">PPi</text>
</g>
<!-- Ub&#45;&gt;PPi -->
<g id="edge15" class="edge"><title>Ub&#45;&gt;PPi</title>
<path fill="none" stroke="black" d="M961.533,-880.359C964.711,-870.008 968.382,-856.306 970,-843.848 976.859,-791.023 982.356,-775.81 970,-723.994 963.734,-697.715 948.956,-670.473 937.439,-651.949"/>
<polygon fill="black" stroke="black" points="940.277,-649.889 931.939,-643.353 934.381,-653.663 940.277,-649.889"/>
</g>
<!-- E1 -->
<g id="node36" class="node"><title>E1</title>
<ellipse fill="none" stroke="black" cx="872" cy="-783.921" rx="18" ry="18"/>
<text text-anchor="middle" x="872" y="-782.721" font-family="Times,serif" font-size="4.00">E1</text>
</g>
<!-- Ub&#45;&gt;E1 -->
<g id="edge14" class="edge"><title>Ub&#45;&gt;E1</title>
<path fill="none" stroke="black" d="M945.361,-882.673C931.097,-863.666 905.62,-829.719 888.763,-807.257"/>
<polygon fill="black" stroke="black" points="891.354,-804.879 882.552,-798.982 885.755,-809.081 891.354,-804.879"/>
</g>
<!-- Cul2 ubiquitin ligase_N8_Orf10_substrate&#45;Ub -->
<g id="node9" class="node"><title>Cul2 ubiquitin ligase_N8_Orf10_substrate&#45;Ub</title>
<ellipse fill="none" stroke="black" cx="140" cy="-476.455" rx="55.8699" ry="55.8699"/>
<text text-anchor="middle" x="140" y="-475.255" font-family="Times,serif" font-size="4.00">Cul2 ubiquitin ligase_N8_Orf10_substrate&#45;Ub</text>
</g>
<!-- Cul2 ubiquitin ligase_N8_Orf10_substrate&#45;Ub&#45;&gt;ubit_traget -->
<g id="edge16" class="edge"><title>Cul2 ubiquitin ligase_N8_Orf10_substrate&#45;Ub&#45;&gt;ubit_traget</title>
<path fill="none" stroke="black" d="M173.05,-431.332C187.235,-412.396 203.246,-391.02 215.151,-375.127"/>
<polygon fill="black" stroke="black" points="218.111,-377.013 221.305,-366.911 212.509,-372.816 218.111,-377.013"/>
</g>
<!-- Cul2 ubiquitin ligase_N8_Orf10 -->
<g id="node22" class="node"><title>Cul2 ubiquitin ligase_N8_Orf10</title>
<ellipse fill="none" stroke="black" cx="125" cy="-231.567" rx="41.2319" ry="41.2319"/>
<text text-anchor="middle" x="125" y="-230.367" font-family="Times,serif" font-size="4.00">Cul2 ubiquitin ligase_N8_Orf10</text>
</g>
<!-- Cul2 ubiquitin ligase_N8_Orf10_substrate&#45;Ub&#45;&gt;Cul2 ubiquitin ligase_N8_Orf10 -->
<g id="edge17" class="edge"><title>Cul2 ubiquitin ligase_N8_Orf10_substrate&#45;Ub&#45;&gt;Cul2 ubiquitin ligase_N8_Orf10</title>
<path fill="none" stroke="black" d="M136.615,-420.643C134.071,-379.455 130.613,-323.457 128.133,-283.295"/>
<polygon fill="black" stroke="black" points="131.618,-282.952 127.509,-273.187 124.632,-283.383 131.618,-282.952"/>
</g>
<!-- Pevonedistat -->
<g id="node10" class="node"><title>Pevonedistat</title>
<ellipse fill="none" stroke="black" cx="772" cy="-1267.8" rx="21.9898" ry="21.9898"/>
<text text-anchor="middle" x="772" y="-1266.6" font-family="Times,serif" font-size="4.00">Pevonedistat</text>
</g>
<!-- NAE_Pevonedistat -->
<g id="node37" class="node"><title>NAE_Pevonedistat</title>
<ellipse fill="none" stroke="black" cx="772" cy="-1357.36" rx="28.2154" ry="28.2154"/>
<text text-anchor="middle" x="772" y="-1356.16" font-family="Times,serif" font-size="4.00">NAE_Pevonedistat</text>
</g>
<!-- Pevonedistat&#45;&gt;NAE_Pevonedistat -->
<g id="edge18" class="edge"><title>Pevonedistat&#45;&gt;NAE_Pevonedistat</title>
<path fill="none" stroke="black" d="M777.79,-1288.99C778.608,-1298.04 778.903,-1309.01 778.676,-1319.45"/>
<polygon fill="black" stroke="black" points="775.172,-1319.49 778.274,-1329.62 782.166,-1319.76 775.172,-1319.49"/>
</g>
<!-- Orf10 -->
<g id="node11" class="node"><title>Orf10</title>
<ellipse fill="none" stroke="black" cx="86" cy="-18" rx="18" ry="18"/>
<text text-anchor="middle" x="86" y="-16.8" font-family="Times,serif" font-size="4.00">Orf10</text>
</g>
<!-- Orf10&#45;&gt;Cul2 ubiquitin ligase_Orf10 -->
<g id="edge19" class="edge"><title>Orf10&#45;&gt;Cul2 ubiquitin ligase_Orf10</title>
<path fill="none" stroke="black" d="M91.3637,-35.4406C92.2447,-43.1349 92.7058,-52.7251 92.747,-62.4038"/>
<polygon fill="black" stroke="black" points="89.2468,-62.4089 92.6378,-72.4464 96.2464,-62.485 89.2468,-62.4089"/>
</g>
<!-- E2 -->
<g id="node12" class="node"><title>E2</title>
<ellipse fill="none" stroke="black" cx="644" cy="-897.848" rx="18" ry="18"/>
<text text-anchor="middle" x="644" y="-896.648" font-family="Times,serif" font-size="4.00">E2</text>
</g>
<!-- Cul2 ubiquitin ligase_N8_E2_substrate -->
<g id="node19" class="node"><title>Cul2 ubiquitin ligase_N8_E2_substrate</title>
<ellipse fill="none" stroke="black" cx="449" cy="-783.921" rx="49.142" ry="49.142"/>
<text text-anchor="middle" x="449" y="-782.721" font-family="Times,serif" font-size="4.00">Cul2 ubiquitin ligase_N8_E2_substrate</text>
</g>
<!-- E2&#45;&gt;Cul2 ubiquitin ligase_N8_E2_substrate -->
<g id="edge24" class="edge"><title>E2&#45;&gt;Cul2 ubiquitin ligase_N8_E2_substrate</title>
<path fill="none" stroke="black" d="M626.429,-893.906C597.297,-887.612 539.564,-871.153 498,-843.848 493.004,-840.566 488.099,-836.793 483.426,-832.775"/>
<polygon fill="black" stroke="black" points="485.553,-829.978 475.806,-825.826 480.836,-835.15 485.553,-829.978"/>
</g>
<!-- E2&#45;&gt;Cul2 ubiquitin ligase_N8_Orf10_0E2_substrate -->
<g id="edge21" class="edge"><title>E2&#45;&gt;Cul2 ubiquitin ligase_N8_Orf10_0E2_substrate</title>
<path fill="none" stroke="black" d="M649.009,-915.445C649.853,-922.929 650.39,-932.303 650.62,-942.194"/>
<polygon fill="black" stroke="black" points="647.121,-942.251 650.748,-952.206 654.12,-942.162 647.121,-942.251"/>
</g>
<!-- Cul2 ubiquitin ligase_N8_E2&#45;Ub_substrate -->
<g id="node34" class="node"><title>Cul2 ubiquitin ligase_N8_E2&#45;Ub_substrate</title>
<ellipse fill="none" stroke="black" cx="569" cy="-783.921" rx="53.066" ry="53.066"/>
<text text-anchor="middle" x="569" y="-782.721" font-family="Times,serif" font-size="4.00">Cul2 ubiquitin ligase_N8_E2&#45;Ub_substrate</text>
</g>
<!-- E2&#45;&gt;Cul2 ubiquitin ligase_N8_E2&#45;Ub_substrate -->
<g id="edge23" class="edge"><title>E2&#45;&gt;Cul2 ubiquitin ligase_N8_E2&#45;Ub_substrate</title>
<path fill="none" stroke="black" d="M631.255,-884.443C622.303,-873.44 610.22,-856.56 599.029,-839.808"/>
<polygon fill="black" stroke="black" points="601.708,-837.512 593.28,-831.091 595.864,-841.366 601.708,-837.512"/>
</g>
<!-- E2&#45;&gt;E1 -->
<g id="edge20" class="edge"><title>E2&#45;&gt;E1</title>
<path fill="none" stroke="black" d="M661.438,-892.485C691.273,-885.661 752.177,-870.415 798,-843.848 817.277,-832.672 835.748,-815.027 849.719,-801.955"/>
<polygon fill="black" stroke="black" points="852.421,-804.224 857.397,-794.871 847.674,-799.08 852.421,-804.224"/>
</g>
<!-- E2&#45;&gt;Cul2 ubiquitin ligase_N8_Orf10_E2&#45;Ub_substrate -->
<g id="edge22" class="edge"><title>E2&#45;&gt;Cul2 ubiquitin ligase_N8_Orf10_E2&#45;Ub_substrate</title>
<path fill="none" stroke="black" d="M652.225,-881.285C660.936,-869.201 674.981,-851.734 689.242,-834.981"/>
<polygon fill="black" stroke="black" points="691.93,-837.222 695.791,-827.356 686.62,-832.662 691.93,-837.222"/>
</g>
<!-- Rbx1_Cul2&#45;&gt;CUL2 -->
<g id="edge27" class="edge"><title>Rbx1_Cul2&#45;&gt;CUL2</title>
<path fill="none" stroke="black" d="M884.684,-1443.34C883.022,-1427.01 882.805,-1403.02 884.033,-1384.7"/>
<polygon fill="black" stroke="black" points="887.526,-1384.93 884.923,-1374.66 880.553,-1384.31 887.526,-1384.93"/>
</g>
<!-- Rbx1_Cul2&#45;&gt;Cul2 ubiquitin ligase -->
<g id="edge25" class="edge"><title>Rbx1_Cul2&#45;&gt;Cul2 ubiquitin ligase</title>
<path fill="none" stroke="black" d="M874.406,-1475.94C857.998,-1484.97 831.99,-1496.96 808,-1504.2 682.715,-1542.04 527.502,-1560.2 454.846,-1566.85"/>
<polygon fill="black" stroke="black" points="454.39,-1563.38 444.739,-1567.75 455.009,-1570.35 454.39,-1563.38"/>
</g>
<!-- RBX1 -->
<g id="node35" class="node"><title>RBX1</title>
<ellipse fill="none" stroke="black" cx="944" cy="-1357.36" rx="18" ry="18"/>
<text text-anchor="middle" x="944" y="-1356.16" font-family="Times,serif" font-size="4.00">RBX1</text>
</g>
<!-- Rbx1_Cul2&#45;&gt;RBX1 -->
<g id="edge26" class="edge"><title>Rbx1_Cul2&#45;&gt;RBX1</title>
<path fill="none" stroke="black" d="M894.54,-1442.86C902.051,-1425.09 915.812,-1398.56 927.107,-1379.99"/>
<polygon fill="black" stroke="black" points="930.194,-1381.65 932.579,-1371.33 924.277,-1377.91 930.194,-1381.65"/>
</g>
<!-- Cul2 ubiquitin ligase_N8_E2_substrate&#45;Ub -->
<g id="node14" class="node"><title>Cul2 ubiquitin ligase_N8_E2_substrate&#45;Ub</title>
<ellipse fill="none" stroke="black" cx="588" cy="-628.066" rx="53.066" ry="53.066"/>
<text text-anchor="middle" x="588" y="-626.866" font-family="Times,serif" font-size="4.00">Cul2 ubiquitin ligase_N8_E2_substrate&#45;Ub</text>
</g>
<!-- Cul2 ubiquitin ligase_N8_E2_substrate&#45;Ub&#45;&gt;E2 -->
<g id="edge28" class="edge"><title>Cul2 ubiquitin ligase_N8_E2_substrate&#45;Ub&#45;&gt;E2</title>
<path fill="none" stroke="black" d="M612.806,-675.202C619.873,-690.341 626.789,-707.516 631,-723.994 643.842,-774.246 645.285,-835.18 644.857,-869.637"/>
<polygon fill="black" stroke="black" points="641.353,-869.783 644.664,-879.847 648.352,-869.915 641.353,-869.783"/>
</g>
<!-- Cul2 ubiquitin ligase_N8_substrate&#45;Ub -->
<g id="node23" class="node"><title>Cul2 ubiquitin ligase_N8_substrate&#45;Ub</title>
<ellipse fill="none" stroke="black" cx="588" cy="-476.455" rx="48.5816" ry="48.5816"/>
<text text-anchor="middle" x="588" y="-475.255" font-family="Times,serif" font-size="4.00">Cul2 ubiquitin ligase_N8_substrate&#45;Ub</text>
</g>
<!-- Cul2 ubiquitin ligase_N8_E2_substrate&#45;Ub&#45;&gt;Cul2 ubiquitin ligase_N8_substrate&#45;Ub -->
<g id="edge29" class="edge"><title>Cul2 ubiquitin ligase_N8_E2_substrate&#45;Ub&#45;&gt;Cul2 ubiquitin ligase_N8_substrate&#45;Ub</title>
<path fill="none" stroke="black" d="M588,-574.739C588,-562.106 588,-548.53 588,-535.646"/>
<polygon fill="black" stroke="black" points="591.5,-535.494 588,-525.494 584.5,-535.494 591.5,-535.494"/>
</g>
<!-- ZYG11B -->
<g id="node15" class="node"><title>ZYG11B</title>
<ellipse fill="none" stroke="black" cx="530" cy="-1357.36" rx="18" ry="18"/>
<text text-anchor="middle" x="530" y="-1356.16" font-family="Times,serif" font-size="4.00">ZYG11B</text>
</g>
<!-- ZYG11B&#45;&gt;Zyg11B_EloBC -->
<g id="edge30" class="edge"><title>ZYG11B&#45;&gt;Zyg11B_EloBC</title>
<path fill="none" stroke="black" d="M535.983,-1374.44C538.493,-1388.81 540.177,-1410.34 540.421,-1428.44"/>
<polygon fill="black" stroke="black" points="536.921,-1428.61 540.394,-1438.62 543.921,-1428.62 536.921,-1428.61"/>
</g>
<!-- Cul2 ubiquitin ligase_substrate&#45;&gt;UBE2M -->
<g id="edge31" class="edge"><title>Cul2 ubiquitin ligase_substrate&#45;&gt;UBE2M</title>
<path fill="none" stroke="black" d="M364.082,-1425.94C371.647,-1411.7 380.154,-1395.7 386.989,-1382.84"/>
<polygon fill="black" stroke="black" points="390.243,-1384.18 391.846,-1373.7 384.062,-1380.89 390.243,-1384.18"/>
</g>
<!-- Cul2 ubiquitin ligase_substrate&#45;&gt;ubit_traget -->
<g id="edge33" class="edge"><title>Cul2 ubiquitin ligase_substrate&#45;&gt;ubit_traget</title>
<path fill="none" stroke="black" d="M312.641,-1436.75C276.637,-1402.29 224,-1336.8 224,-1268.8 224,-1268.8 224,-1268.8 224,-627.066 224,-536.967 224,-430.309 227.575,-380.128"/>
<polygon fill="black" stroke="black" points="231.075,-380.28 228.422,-370.023 224.099,-379.696 231.075,-380.28"/>
</g>
<!-- Cul2 ubiquitin ligase_substrate&#45;&gt;Cul2 ubiquitin ligase_N8_E2_substrate -->
<g id="edge35" class="edge"><title>Cul2 ubiquitin ligase_substrate&#45;&gt;Cul2 ubiquitin ligase_N8_E2_substrate</title>
<path fill="none" stroke="black" d="M322.384,-1428.17C303.405,-1390.31 280,-1326.55 280,-1268.8 280,-1268.8 280,-1268.8 280,-1008.12 280,-927.732 349.41,-856.411 399.369,-817.087"/>
<polygon fill="black" stroke="black" points="401.723,-819.692 407.516,-810.821 397.456,-814.143 401.723,-819.692"/>
</g>
<!-- Cul2 ubiquitin ligase_substrate&#45;&gt;Cul2 ubiquitin ligase -->
<g id="edge34" class="edge"><title>Cul2 ubiquitin ligase_substrate&#45;&gt;Cul2 ubiquitin ligase</title>
<path fill="none" stroke="black" d="M371.509,-1495.05C379.981,-1507.12 389.091,-1521.01 396.759,-1533.53"/>
<polygon fill="black" stroke="black" points="393.909,-1535.58 402.057,-1542.36 399.911,-1531.98 393.909,-1535.58"/>
</g>
<!-- Cul2 ubiquitin ligase_substrate&#45;&gt;Cul2 ubiquitin ligase_N8_E2&#45;Ub_substrate -->
<g id="edge32" class="edge"><title>Cul2 ubiquitin ligase_substrate&#45;&gt;Cul2 ubiquitin ligase_N8_E2&#45;Ub_substrate</title>
<path fill="none" stroke="black" d="M344.354,-1421.45C348.007,-1395 355.319,-1359.81 364,-1329.26 415.748,-1147.16 497.537,-938.146 540.676,-840.551"/>
<polygon fill="black" stroke="black" points="543.98,-841.736 544.854,-831.177 537.586,-838.886 543.98,-841.736"/>
</g>
<!-- Cul2 ubiquitin ligase_N8 -->
<g id="node18" class="node"><title>Cul2 ubiquitin ligase_N8</title>
<ellipse fill="none" stroke="black" cx="810" cy="-350.298" rx="34.4429" ry="34.4429"/>
<text text-anchor="middle" x="810" y="-349.098" font-family="Times,serif" font-size="4.00">Cul2 ubiquitin ligase_N8</text>
</g>
<!-- Cul2 ubiquitin ligase_N8&#45;&gt;Cul2 ubiquitin ligase -->
<g id="edge36" class="edge"><title>Cul2 ubiquitin ligase_N8&#45;&gt;Cul2 ubiquitin ligase</title>
<path fill="none" stroke="black" d="M831.101,-377.721C861.468,-417.004 917.315,-494.148 949,-568.139 1010.12,-710.877 1044.82,-773.41 983,-915.848 911.855,-1079.78 860.278,-1117.89 705,-1206.34 643.548,-1241.35 606.231,-1199.45 550,-1242.34 457.085,-1313.22 427.191,-1459.03 417.942,-1529.74"/>
<polygon fill="black" stroke="black" points="414.425,-1529.67 416.675,-1540.02 421.372,-1530.52 414.425,-1529.67"/>
</g>
<!-- Cul2 ubiquitin ligase_N8_E2_substrate&#45;&gt;E2 -->
<g id="edge38" class="edge"><title>Cul2 ubiquitin ligase_N8_E2_substrate&#45;&gt;E2</title>
<path fill="none" stroke="black" d="M485.213,-817.866C494.598,-827.157 505.082,-836.676 516,-843.848 548.319,-865.08 590.415,-879.754 617.498,-888.19"/>
<polygon fill="black" stroke="black" points="616.505,-891.546 627.091,-891.119 618.549,-884.851 616.505,-891.546"/>
</g>
<!-- Cul2 ubiquitin ligase_N8_E2_substrate&#45;&gt;Cul2 ubiquitin ligase_substrate -->
<g id="edge37" class="edge"><title>Cul2 ubiquitin ligase_N8_E2_substrate&#45;&gt;Cul2 ubiquitin ligase_substrate</title>
<path fill="none" stroke="black" d="M412.135,-817.167C367.317,-856.507 298,-927.786 298,-1008.12 298,-1268.8 298,-1268.8 298,-1268.8 298,-1319.41 315.975,-1374.64 329.921,-1413"/>
<polygon fill="black" stroke="black" points="326.812,-1414.69 333.548,-1422.87 333.383,-1412.27 326.812,-1414.69"/>
</g>
<!-- DUB -->
<g id="node20" class="node"><title>DUB</title>
<ellipse fill="none" stroke="black" cx="288" cy="-476.455" rx="18" ry="18"/>
<text text-anchor="middle" x="288" y="-475.255" font-family="Times,serif" font-size="4.00">DUB</text>
</g>
<!-- DUB&#45;&gt;ubit_traget -->
<g id="edge39" class="edge"><title>DUB&#45;&gt;ubit_traget</title>
<path fill="none" stroke="black" d="M281.034,-459.73C271.95,-439.223 255.919,-403.036 244.893,-378.145"/>
<polygon fill="black" stroke="black" points="248.045,-376.619 240.794,-368.893 241.645,-379.454 248.045,-376.619"/>
</g>
<!-- ATP -->
<g id="node21" class="node"><title>ATP</title>
<ellipse fill="none" stroke="black" cx="872" cy="-897.848" rx="18" ry="18"/>
<text text-anchor="middle" x="872" y="-896.648" font-family="Times,serif" font-size="4.00">ATP</text>
</g>
<!-- ATP&#45;&gt;AMP -->
<g id="edge40" class="edge"><title>ATP&#45;&gt;AMP</title>
<path fill="none" stroke="black" d="M862.199,-882.28C855.912,-872.024 848.326,-857.705 845,-843.848 828.976,-777.092 847.631,-695.979 859.561,-655.178"/>
<polygon fill="black" stroke="black" points="862.951,-656.061 862.496,-645.476 856.25,-654.034 862.951,-656.061"/>
</g>
<!-- ATP&#45;&gt;PPi -->
<g id="edge42" class="edge"><title>ATP&#45;&gt;PPi</title>
<path fill="none" stroke="black" d="M881.333,-882.154C887.411,-871.842 894.94,-857.508 899,-843.848 918.421,-778.511 921.858,-697.683 922.219,-656.296"/>
<polygon fill="black" stroke="black" points="925.719,-656.196 922.251,-646.185 918.719,-656.174 925.719,-656.196"/>
</g>
<!-- ATP&#45;&gt;E1 -->
<g id="edge41" class="edge"><title>ATP&#45;&gt;E1</title>
<path fill="none" stroke="black" d="M872,-879.36C872,-861.454 872,-833.362 872,-812.466"/>
<polygon fill="black" stroke="black" points="875.5,-812.287 872,-802.287 868.5,-812.287 875.5,-812.287"/>
</g>
<!-- Cul2 ubiquitin ligase_N8_Orf10&#45;&gt;Cul2 ubiquitin ligase_Orf10 -->
<g id="edge43" class="edge"><title>Cul2 ubiquitin ligase_N8_Orf10&#45;&gt;Cul2 ubiquitin ligase_Orf10</title>
<path fill="none" stroke="black" d="M112.445,-191.965C108.688,-180.412 104.534,-167.641 100.654,-155.711"/>
<polygon fill="black" stroke="black" points="103.895,-154.359 97.4739,-145.932 97.2385,-156.525 103.895,-154.359"/>
</g>
<!-- Cul2 ubiquitin ligase_N8_substrate&#45;Ub&#45;&gt;ubit_traget -->
<g id="edge45" class="edge"><title>Cul2 ubiquitin ligase_N8_substrate&#45;Ub&#45;&gt;ubit_traget</title>
<path fill="none" stroke="black" d="M541.954,-459.351C467.468,-433.3 322.721,-382.677 261.471,-361.256"/>
<polygon fill="black" stroke="black" points="262.304,-357.839 251.709,-357.842 259.993,-364.447 262.304,-357.839"/>
</g>
<!-- Cul2 ubiquitin ligase_N8_substrate&#45;Ub&#45;&gt;Cul2 ubiquitin ligase_N8 -->
<g id="edge44" class="edge"><title>Cul2 ubiquitin ligase_N8_substrate&#45;Ub&#45;&gt;Cul2 ubiquitin ligase_N8</title>
<path fill="none" stroke="black" d="M630.279,-451.809C670.926,-429.077 731.842,-395.009 771.258,-372.965"/>
<polygon fill="black" stroke="black" points="773.283,-375.843 780.302,-367.907 769.866,-369.734 773.283,-375.843"/>
</g>
<!-- ELOB&#45;&gt;ELOB_ELOC -->
<g id="edge46" class="edge"><title>ELOB&#45;&gt;ELOB_ELOC</title>
<path fill="none" stroke="black" d="M628.125,-1285.79C623.247,-1298.61 614.75,-1316.4 606.691,-1330.92"/>
<polygon fill="black" stroke="black" points="603.475,-1329.48 601.499,-1339.89 609.535,-1332.99 603.475,-1329.48"/>
</g>
<!-- Cul2 ubiquitin ligase_N8_Orf10_E2_substrate&#45;Ub -->
<g id="node25" class="node"><title>Cul2 ubiquitin ligase_N8_Orf10_E2_substrate&#45;Ub</title>
<ellipse fill="none" stroke="black" cx="738" cy="-628.066" rx="59.8547" ry="59.8547"/>
<text text-anchor="middle" x="738" y="-626.866" font-family="Times,serif" font-size="4.00">Cul2 ubiquitin ligase_N8_Orf10_E2_substrate&#45;Ub</text>
</g>
<!-- NAE1 -->
<g id="node26" class="node"><title>NAE1</title>
<ellipse fill="none" stroke="black" cx="708" cy="-1357.36" rx="18" ry="18"/>
<text text-anchor="middle" x="708" y="-1356.16" font-family="Times,serif" font-size="4.00">NAE1</text>
</g>
<!-- NAE1&#45;&gt;NAE -->
<g id="edge47" class="edge"><title>NAE1&#45;&gt;NAE</title>
<path fill="none" stroke="black" d="M720.214,-1370.73C732.527,-1386.83 750.637,-1415.38 762.085,-1436.24"/>
<polygon fill="black" stroke="black" points="759.062,-1438.01 766.832,-1445.21 765.249,-1434.74 759.062,-1438.01"/>
</g>
<!-- NAE&#45;&gt;UBA3 -->
<g id="edge50" class="edge"><title>NAE&#45;&gt;UBA3</title>
<path fill="none" stroke="black" d="M777.168,-1445.21C786.284,-1427.18 803.969,-1398.37 817.766,-1378.93"/>
<polygon fill="black" stroke="black" points="820.69,-1380.86 823.786,-1370.73 815.047,-1376.72 820.69,-1380.86"/>
</g>
<!-- NAE&#45;&gt;NAE1 -->
<g id="edge51" class="edge"><title>NAE&#45;&gt;NAE1</title>
<path fill="none" stroke="black" d="M759.538,-1449.15C747.205,-1432.96 729.213,-1404.56 717.845,-1383.83"/>
<polygon fill="black" stroke="black" points="720.899,-1382.12 713.132,-1374.92 714.711,-1385.39 720.899,-1382.12"/>
</g>
<!-- NAE&#45;&gt;NAE_Pevonedistat -->
<g id="edge48" class="edge"><title>NAE&#45;&gt;NAE_Pevonedistat</title>
<path fill="none" stroke="black" d="M766.885,-1445.21C765.367,-1431.78 764.906,-1412.36 765.502,-1395.29"/>
<polygon fill="black" stroke="black" points="769.011,-1395.2 766.01,-1385.04 762.019,-1394.85 769.011,-1395.2"/>
</g>
<!-- NAE_NEDD8 -->
<g id="node42" class="node"><title>NAE_NEDD8</title>
<ellipse fill="none" stroke="black" cx="650" cy="-1357.36" rx="22.05" ry="22.05"/>
<text text-anchor="middle" x="650" y="-1356.16" font-family="Times,serif" font-size="4.00">NAE_NEDD8</text>
</g>
<!-- NAE&#45;&gt;NAE_NEDD8 -->
<g id="edge49" class="edge"><title>NAE&#45;&gt;NAE_NEDD8</title>
<path fill="none" stroke="black" d="M758.36,-1450.54C740.499,-1435.71 708.254,-1408.82 681,-1385.47 678.76,-1383.55 676.438,-1381.55 674.117,-1379.54"/>
<polygon fill="black" stroke="black" points="676.195,-1376.71 666.356,-1372.78 671.597,-1381.98 676.195,-1376.71"/>
</g>
<!-- Cul2 ubiquitin ligase_N8_Orf10_0E2_substrate&#45;&gt;Cul2 ubiquitin ligase_N8_Orf10_substrate -->
<g id="edge52" class="edge"><title>Cul2 ubiquitin ligase_N8_Orf10_0E2_substrate&#45;&gt;Cul2 ubiquitin ligase_N8_Orf10_substrate</title>
<path fill="none" stroke="black" d="M650.607,-1066.22C650.767,-1074.81 650.793,-1083.71 650.683,-1092.4"/>
<polygon fill="black" stroke="black" points="647.183,-1092.4 650.493,-1102.46 654.181,-1092.53 647.183,-1092.4"/>
</g>
<!-- Cul2 ubiquitin ligase_N8_Orf10_0E2_substrate&#45;&gt;E2 -->
<g id="edge53" class="edge"><title>Cul2 ubiquitin ligase_N8_Orf10_0E2_substrate&#45;&gt;E2</title>
<path fill="none" stroke="black" d="M637.252,-952.206C637.276,-942.859 637.563,-933.562 638.114,-925.41"/>
<polygon fill="black" stroke="black" points="641.601,-925.713 638.991,-915.445 634.628,-925.1 641.601,-925.713"/>
</g>
<!-- Cul2 ubiquitin ligase&#45;&gt;Rbx1_Cul2 -->
<g id="edge56" class="edge"><title>Cul2 ubiquitin ligase&#45;&gt;Rbx1_Cul2</title>
<path fill="none" stroke="black" d="M444.568,-1566.85C509.515,-1560.2 664.72,-1542.04 790,-1504.2 815.024,-1496.64 842.244,-1483.93 862.186,-1474.78"/>
<polygon fill="black" stroke="black" points="863.692,-1477.94 871.35,-1470.62 860.797,-1471.57 863.692,-1477.94"/>
</g>
<!-- Cul2 ubiquitin ligase&#45;&gt;Cul2 ubiquitin ligase_substrate -->
<g id="edge54" class="edge"><title>Cul2 ubiquitin ligase&#45;&gt;Cul2 ubiquitin ligase_substrate</title>
<path fill="none" stroke="black" d="M393.731,-1547.46C385.539,-1536.28 376.136,-1522.35 367.738,-1509.09"/>
<polygon fill="black" stroke="black" points="370.648,-1507.14 362.387,-1500.51 364.708,-1510.85 370.648,-1507.14"/>
</g>
<!-- Cul2 ubiquitin ligase&#45;&gt;Zyg11B_EloBC -->
<g id="edge55" class="edge"><title>Cul2 ubiquitin ligase&#45;&gt;Zyg11B_EloBC</title>
<path fill="none" stroke="black" d="M435.358,-1548.78C450.82,-1536.37 471.629,-1520.06 489,-1504.2 495.642,-1498.14 502.497,-1491.12 508.964,-1484.66"/>
<polygon fill="black" stroke="black" points="511.658,-1486.92 516.34,-1477.42 506.753,-1481.93 511.658,-1486.92"/>
</g>
<!-- Cul2 ubiquitin ligase&#45;&gt;Cul2 ubiquitin ligase_Orf10 -->
<g id="edge57" class="edge"><title>Cul2 ubiquitin ligase&#45;&gt;Cul2 ubiquitin ligase_Orf10</title>
<path fill="none" stroke="black" d="M383.234,-1567.39C293.259,-1557.67 38,-1515.39 38,-1358.36 38,-1358.36 38,-1358.36 38,-349.298 38,-280.318 54.0667,-201.574 67.9551,-154.017"/>
<polygon fill="black" stroke="black" points="71.3319,-154.942 70.8792,-144.357 64.6321,-152.914 71.3319,-154.942"/>
</g>
<!-- NEDD8 -->
<g id="node30" class="node"><title>NEDD8</title>
<ellipse fill="none" stroke="black" cx="650" cy="-1462.84" rx="18" ry="18"/>
<text text-anchor="middle" x="650" y="-1461.64" font-family="Times,serif" font-size="4.00">NEDD8</text>
</g>
<!-- NEDD8&#45;&gt;NAE_NEDD8 -->
<g id="edge58" class="edge"><title>NEDD8&#45;&gt;NAE_NEDD8</title>
<path fill="none" stroke="black" d="M650,-1444.75C650,-1429.88 650,-1407.93 650,-1389.88"/>
<polygon fill="black" stroke="black" points="653.5,-1389.78 650,-1379.78 646.5,-1389.78 653.5,-1389.78"/>
</g>
<!-- ELOC&#45;&gt;ELOB_ELOC -->
<g id="edge59" class="edge"><title>ELOC&#45;&gt;ELOB_ELOC</title>
<path fill="none" stroke="black" d="M584.287,-1284.47C587.083,-1295.85 589.452,-1311.61 590.603,-1325.48"/>
<polygon fill="black" stroke="black" points="587.119,-1325.85 591.233,-1335.61 594.106,-1325.41 587.119,-1325.85"/>
</g>
<!-- Orf10 (+)ss sgmRNA -->
<g id="node33" class="node"><title>Orf10 (+)ss sgmRNA</title>
<ellipse fill="none" stroke="black" cx="172" cy="-109.653" rx="30.5202" ry="30.5202"/>
<text text-anchor="middle" x="172" y="-108.453" font-family="Times,serif" font-size="4.00">Orf10 (+)ss sgmRNA</text>
</g>
<!-- Orf10 (+)ss sgmRNA&#45;&gt;Orf10 -->
<g id="edge60" class="edge"><title>Orf10 (+)ss sgmRNA&#45;&gt;Orf10</title>
<path fill="none" stroke="black" d="M151.182,-86.9508C137.173,-72.3466 118.838,-53.233 105.184,-38.9985"/>
<polygon fill="black" stroke="black" points="107.585,-36.4458 98.1365,-31.652 102.533,-41.2915 107.585,-36.4458"/>
</g>
<!-- Cul2 ubiquitin ligase_N8_E2&#45;Ub_substrate&#45;&gt;E2 -->
<g id="edge63" class="edge"><title>Cul2 ubiquitin ligase_N8_E2&#45;Ub_substrate&#45;&gt;E2</title>
<path fill="none" stroke="black" d="M602.747,-825.554C613.646,-841.105 624.946,-858.367 633.076,-872.01"/>
<polygon fill="black" stroke="black" points="630.126,-873.9 638.155,-880.812 636.189,-870.401 630.126,-873.9"/>
</g>
<!-- Cul2 ubiquitin ligase_N8_E2&#45;Ub_substrate&#45;&gt;Cul2 ubiquitin ligase_N8_E2_substrate&#45;Ub -->
<g id="edge61" class="edge"><title>Cul2 ubiquitin ligase_N8_E2&#45;Ub_substrate&#45;&gt;Cul2 ubiquitin ligase_N8_E2_substrate&#45;Ub</title>
<path fill="none" stroke="black" d="M575.38,-731.262C576.977,-718.323 578.708,-704.311 580.36,-690.931"/>
<polygon fill="black" stroke="black" points="583.853,-691.205 581.605,-680.851 576.906,-690.347 583.853,-691.205"/>
</g>
<!-- Cul2 ubiquitin ligase_N8_E2&#45;Ub_substrate&#45;&gt;Cul2 ubiquitin ligase_substrate -->
<g id="edge62" class="edge"><title>Cul2 ubiquitin ligase_N8_E2&#45;Ub_substrate&#45;&gt;Cul2 ubiquitin ligase_substrate</title>
<path fill="none" stroke="black" d="M553.598,-834.82C518.826,-929.76 434.784,-1143.51 382,-1329.26 374.109,-1357.02 367.349,-1388.63 361.458,-1414.02"/>
<polygon fill="black" stroke="black" points="358.046,-1413.24 359.158,-1423.78 364.859,-1414.85 358.046,-1413.24"/>
</g>
<!-- RBX1&#45;&gt;Rbx1_Cul2 -->
<g id="edge64" class="edge"><title>RBX1&#45;&gt;Rbx1_Cul2</title>
<path fill="none" stroke="black" d="M940.343,-1375.22C933.282,-1392.43 919.477,-1419.27 907.922,-1438.51"/>
<polygon fill="black" stroke="black" points="904.945,-1436.67 902.637,-1447.01 910.889,-1440.37 904.945,-1436.67"/>
</g>
<!-- E1&#45;&gt;E2 -->
<g id="edge65" class="edge"><title>E1&#45;&gt;E2</title>
<path fill="none" stroke="black" d="M865.361,-800.707C854.937,-813.884 835.898,-832.312 816,-843.848 769.573,-870.765 707.666,-886.06 671.983,-892.75"/>
<polygon fill="black" stroke="black" points="671.034,-889.364 661.797,-894.553 672.254,-896.256 671.034,-889.364"/>
</g>
<!-- E1&#45;&gt;AMP -->
<g id="edge67" class="edge"><title>E1&#45;&gt;AMP</title>
<path fill="none" stroke="black" d="M871.557,-765.868C870.869,-739.413 869.538,-688.235 868.714,-656.527"/>
<polygon fill="black" stroke="black" points="872.204,-656.101 868.445,-646.196 865.207,-656.283 872.204,-656.101"/>
</g>
<!-- E1&#45;&gt;PPi -->
<g id="edge66" class="edge"><title>E1&#45;&gt;PPi</title>
<path fill="none" stroke="black" d="M877.351,-766.456C886.035,-739.735 903.263,-686.722 913.595,-654.93"/>
<polygon fill="black" stroke="black" points="916.925,-656.005 916.688,-645.413 910.268,-653.842 916.925,-656.005"/>
</g>
<!-- NAE_Pevonedistat&#45;&gt;Pevonedistat -->
<g id="edge68" class="edge"><title>NAE_Pevonedistat&#45;&gt;Pevonedistat</title>
<path fill="none" stroke="black" d="M765.726,-1329.62C765.162,-1320.01 765.099,-1309.11 765.537,-1299.22"/>
<polygon fill="black" stroke="black" points="769.046,-1299.2 766.21,-1288.99 762.061,-1298.74 769.046,-1299.2"/>
</g>
<!-- NAE_Pevonedistat&#45;&gt;NAE -->
<g id="edge69" class="edge"><title>NAE_Pevonedistat&#45;&gt;NAE</title>
<path fill="none" stroke="black" d="M777.99,-1385.04C778.996,-1400.33 779.003,-1419.47 778.013,-1434.82"/>
<polygon fill="black" stroke="black" points="774.488,-1434.95 777.115,-1445.21 781.462,-1435.55 774.488,-1434.95"/>
</g>
<!-- Zyg11B_EloBC&#45;&gt;ELOB_ELOC -->
<g id="edge72" class="edge"><title>Zyg11B_EloBC&#45;&gt;ELOB_ELOC</title>
<path fill="none" stroke="black" d="M541.82,-1438.87C548.737,-1422.5 559.744,-1400.48 569.421,-1383.61"/>
<polygon fill="black" stroke="black" points="572.534,-1385.22 574.625,-1374.83 566.513,-1381.65 572.534,-1385.22"/>
</g>
<!-- Zyg11B_EloBC&#45;&gt;ZYG11B -->
<g id="edge71" class="edge"><title>Zyg11B_EloBC&#45;&gt;ZYG11B</title>
<path fill="none" stroke="black" d="M529.02,-1439.38C526.788,-1423.49 525.439,-1402.1 525.555,-1385.28"/>
<polygon fill="black" stroke="black" points="529.062,-1385.1 525.848,-1375 522.064,-1384.9 529.062,-1385.1"/>
</g>
<!-- Zyg11B_EloBC&#45;&gt;Cul2 ubiquitin ligase -->
<g id="edge70" class="edge"><title>Zyg11B_EloBC&#45;&gt;Cul2 ubiquitin ligase</title>
<path fill="none" stroke="black" d="M525.466,-1485.38C519.993,-1491.64 513.397,-1498.36 507,-1504.2 489.133,-1520.51 467.629,-1537.3 449.656,-1549.83"/>
<polygon fill="black" stroke="black" points="447.447,-1547.1 441.148,-1555.62 451.385,-1552.89 447.447,-1547.1"/>
</g>
<!-- Cul2 ubiquitin ligase_N8_Orf10_E2&#45;Ub_substrate&#45;&gt;Cul2 ubiquitin ligase_N8_Orf10_substrate -->
<g id="edge74" class="edge"><title>Cul2 ubiquitin ligase_N8_Orf10_E2&#45;Ub_substrate&#45;&gt;Cul2 ubiquitin ligase_N8_Orf10_substrate</title>
<path fill="none" stroke="black" d="M748.059,-843.127C751.476,-901.593 747.717,-993.261 719,-1066.4 712.514,-1082.92 701.944,-1098.99 690.706,-1112.73"/>
<polygon fill="black" stroke="black" points="687.871,-1110.66 684.037,-1120.53 693.193,-1115.2 687.871,-1110.66"/>
</g>
<!-- Cul2 ubiquitin ligase_N8_Orf10_E2&#45;Ub_substrate&#45;&gt;E2 -->
<g id="edge75" class="edge"><title>Cul2 ubiquitin ligase_N8_Orf10_E2&#45;Ub_substrate&#45;&gt;E2</title>
<path fill="none" stroke="black" d="M703.916,-833.48C690.797,-849.372 676.26,-866.075 664.712,-878.341"/>
<polygon fill="black" stroke="black" points="662.028,-876.082 657.6,-885.707 667.064,-880.944 662.028,-876.082"/>
</g>
<!-- Cul2 ubiquitin ligase_N8_Orf10_E2&#45;Ub_substrate&#45;&gt;Cul2 ubiquitin ligase_N8_Orf10_E2_substrate&#45;Ub -->
<g id="edge73" class="edge"><title>Cul2 ubiquitin ligase_N8_Orf10_E2&#45;Ub_substrate&#45;&gt;Cul2 ubiquitin ligase_N8_Orf10_E2_substrate&#45;Ub</title>
<path fill="none" stroke="black" d="M738,-723.877C738,-715.563 738,-706.954 738,-698.468"/>
<polygon fill="black" stroke="black" points="741.5,-698.207 738,-688.207 734.5,-698.207 741.5,-698.207"/>
</g>
<!-- UBE2M_NEDD8&#45;&gt;UBE2M -->
<g id="edge77" class="edge"><title>UBE2M_NEDD8&#45;&gt;UBE2M</title>
<path fill="none" stroke="black" d="M439.541,-1292.68C433.563,-1305.85 424.983,-1322.07 417.21,-1334.84"/>
<polygon fill="black" stroke="black" points="414.155,-1333.13 411.743,-1343.44 420.062,-1336.88 414.155,-1333.13"/>
</g>
<!-- UBE2M_NEDD8&#45;&gt;Cul2 ubiquitin ligase_N8_Orf10_substrate -->
<g id="edge78" class="edge"><title>UBE2M_NEDD8&#45;&gt;Cul2 ubiquitin ligase_N8_Orf10_substrate</title>
<path fill="none" stroke="black" d="M467.946,-1254.45C497.151,-1238.01 549.771,-1208.4 589.901,-1185.82"/>
<polygon fill="black" stroke="black" points="591.778,-1188.78 598.776,-1180.82 588.345,-1182.68 591.778,-1188.78"/>
</g>
<!-- UBE2M_NEDD8&#45;&gt;Cul2 ubiquitin ligase_substrate -->
<g id="edge76" class="edge"><title>UBE2M_NEDD8&#45;&gt;Cul2 ubiquitin ligase_substrate</title>
<path fill="none" stroke="black" d="M446.522,-1293.5C446.038,-1318.18 442.488,-1356.52 427,-1385.47 417.311,-1403.58 401.664,-1419.75 386.622,-1432.49"/>
<polygon fill="black" stroke="black" points="384.383,-1429.8 378.846,-1438.83 388.807,-1435.22 384.383,-1429.8"/>
</g>
<!-- Cul2 ubiquitin ligase_Orf10&#45;&gt;Orf10 -->
<g id="edge81" class="edge"><title>Cul2 ubiquitin ligase_Orf10&#45;&gt;Orf10</title>
<path fill="none" stroke="black" d="M79.3622,-72.4464C79.1247,-63.4254 79.2642,-53.9204 79.7806,-45.4681"/>
<polygon fill="black" stroke="black" points="83.2733,-45.702 80.6363,-35.4406 76.2987,-45.1067 83.2733,-45.702"/>
</g>
<!-- Cul2 ubiquitin ligase_Orf10&#45;&gt;Cul2 ubiquitin ligase -->
<g id="edge80" class="edge"><title>Cul2 ubiquitin ligase_Orf10&#45;&gt;Cul2 ubiquitin ligase</title>
<path fill="none" stroke="black" d="M82.5057,-147.145C73.7077,-193.702 56,-276.881 56,-349.298 56,-1358.36 56,-1358.36 56,-1358.36 56,-1505.28 279.465,-1551.76 373.371,-1565.08"/>
<polygon fill="black" stroke="black" points="372.986,-1568.56 383.367,-1566.45 373.932,-1561.63 372.986,-1568.56"/>
</g>
<!-- Cul2 ubiquitin ligase_Orf10&#45;&gt;Cul2 ubiquitin ligase_Orf10_substrate -->
<g id="edge79" class="edge"><title>Cul2 ubiquitin ligase_Orf10&#45;&gt;Cul2 ubiquitin ligase_Orf10_substrate</title>
<path fill="none" stroke="black" d="M116.906,-131.566C138.403,-147.902 167.192,-171.081 190.771,-190.903"/>
<polygon fill="black" stroke="black" points="188.654,-193.697 198.55,-197.483 193.175,-188.352 188.654,-193.697"/>
</g>
<!-- NAE_NEDD8&#45;&gt;UBE2M_NEDD8 -->
<g id="edge82" class="edge"><title>NAE_NEDD8&#45;&gt;UBE2M_NEDD8</title>
<path fill="none" stroke="black" d="M634.814,-1341.04C630.042,-1336.81 624.56,-1332.49 619,-1329.26 574.458,-1303.32 517.008,-1286 480.825,-1276.77"/>
<polygon fill="black" stroke="black" points="481.313,-1273.29 470.765,-1274.28 479.628,-1280.08 481.313,-1273.29"/>
</g>
<!-- 26S&#45;proteasom -->
<g id="node43" class="node"><title>26S&#45;proteasom</title>
<ellipse fill="none" stroke="black" cx="267" cy="-1661.59" rx="23.7305" ry="23.7305"/>
<text text-anchor="middle" x="267" y="-1660.39" font-family="Times,serif" font-size="4.00">26S&#45;proteasom</text>
</g>
<!-- Cul2 ubiquitin ligase_Orf10_substrate&#45;&gt;UBE2M -->
<g id="edge86" class="edge"><title>Cul2 ubiquitin ligase_Orf10_substrate&#45;&gt;UBE2M</title>
<path fill="none" stroke="black" d="M260.599,-271.739C290.503,-318.105 334,-398.732 334,-475.455 334,-629.066 334,-629.066 334,-629.066 334,-903.748 381.27,-1234.4 395.801,-1329.56"/>
<polygon fill="black" stroke="black" points="392.35,-1330.15 397.331,-1339.5 399.269,-1329.08 392.35,-1330.15"/>
</g>
<!-- Cul2 ubiquitin ligase_Orf10_substrate&#45;&gt;ubit_traget -->
<g id="edge83" class="edge"><title>Cul2 ubiquitin ligase_Orf10_substrate&#45;&gt;ubit_traget</title>
<path fill="none" stroke="black" d="M239.633,-279.486C239.919,-293.32 239.681,-308.047 238.919,-320.391"/>
<polygon fill="black" stroke="black" points="235.415,-320.298 238.115,-330.543 242.394,-320.851 235.415,-320.298"/>
</g>
<!-- Cul2 ubiquitin ligase_Orf10_substrate&#45;&gt;Cul2 ubiquitin ligase_N8_Orf10_substrate -->
<g id="edge85" class="edge"><title>Cul2 ubiquitin ligase_Orf10_substrate&#45;&gt;Cul2 ubiquitin ligase_N8_Orf10_substrate</title>
<path fill="none" stroke="black" d="M276.472,-253.004C301.494,-267.088 331.214,-288.243 348,-315.827 385.296,-377.113 372,-403.712 372,-475.455 372,-629.066 372,-629.066 372,-629.066 372,-724.898 354.855,-755.095 391,-843.848 436.596,-955.808 537.267,-1058.7 596.96,-1113.04"/>
<polygon fill="black" stroke="black" points="594.975,-1115.96 604.744,-1120.06 599.663,-1110.76 594.975,-1115.96"/>
</g>
<!-- Cul2 ubiquitin ligase_Orf10_substrate&#45;&gt;Cul2 ubiquitin ligase_Orf10 -->
<g id="edge84" class="edge"><title>Cul2 ubiquitin ligase_Orf10_substrate&#45;&gt;Cul2 ubiquitin ligase_Orf10</title>
<path fill="none" stroke="black" d="M193.494,-203.056C170.574,-185.32 142.083,-162.164 120.135,-143.47"/>
<polygon fill="black" stroke="black" points="122.236,-140.66 112.368,-136.802 117.676,-145.971 122.236,-140.66"/>
</g>
</g>
</svg>
