<?xml version="1.0" encoding="UTF-8" standalone="no"?>
<!DOCTYPE svg PUBLIC "-//W3C//DTD SVG 1.1//EN"
 "http://www.w3.org/Graphics/SVG/1.1/DTD/svg11.dtd">
<!-- Generated by graphviz version 2.38.0 (20140413.2041)
 -->
<!-- Title: G Pages: 1 -->
<svg width="987pt" height="1603pt"
 viewBox="0.00 0.00 987.03 1603.48" xmlns="http://www.w3.org/2000/svg" xmlns:xlink="http://www.w3.org/1999/xlink">
<g id="graph0" class="graph" transform="scale(1 1) rotate(0) translate(4 1599.48)">
<title>G</title>
<polygon fill="white" stroke="none" points="-4,4 -4,-1599.48 983.035,-1599.48 983.035,4 -4,4"/>
<!-- Cul2 ubiquitin ligase_N8_E2&#45;Ub_substrate -->
<g id="node1" class="node"><title>Cul2 ubiquitin ligase_N8_E2&#45;Ub_substrate</title>
<ellipse fill="none" stroke="black" cx="359.927" cy="-1542.45" rx="53.066" ry="53.066"/>
<text text-anchor="middle" x="359.927" y="-1541.25" font-family="Times,serif" font-size="4.00">Cul2 ubiquitin ligase_N8_E2&#45;Ub_substrate</text>
</g>
<!-- E2 -->
<g id="node15" class="node"><title>E2</title>
<ellipse fill="none" stroke="black" cx="252.927" cy="-1293.35" rx="18" ry="18"/>
<text text-anchor="middle" x="252.927" y="-1292.15" font-family="Times,serif" font-size="4.00">E2</text>
</g>
<!-- Cul2 ubiquitin ligase_N8_E2&#45;Ub_substrate&#45;&gt;E2 -->
<g id="edge2" class="edge"><title>Cul2 ubiquitin ligase_N8_E2&#45;Ub_substrate&#45;&gt;E2</title>
<path fill="none" stroke="black" d="M321.768,-1505.05C309.774,-1489.81 297.531,-1471.47 288.927,-1453.42 267.965,-1409.42 255.013,-1353.81 251.294,-1321.34"/>
<polygon fill="black" stroke="black" points="254.77,-1320.92 250.388,-1311.27 247.798,-1321.54 254.77,-1320.92"/>
</g>
<!-- Cul2 ubiquitin ligase_N8_E2_substrate&#45;Ub -->
<g id="node24" class="node"><title>Cul2 ubiquitin ligase_N8_E2_substrate&#45;Ub</title>
<ellipse fill="none" stroke="black" cx="359.927" cy="-1400.38" rx="53.066" ry="53.066"/>
<text text-anchor="middle" x="359.927" y="-1399.18" font-family="Times,serif" font-size="4.00">Cul2 ubiquitin ligase_N8_E2_substrate&#45;Ub</text>
</g>
<!-- Cul2 ubiquitin ligase_N8_E2&#45;Ub_substrate&#45;&gt;Cul2 ubiquitin ligase_N8_E2_substrate&#45;Ub -->
<g id="edge1" class="edge"><title>Cul2 ubiquitin ligase_N8_E2&#45;Ub_substrate&#45;&gt;Cul2 ubiquitin ligase_N8_E2_substrate&#45;Ub</title>
<path fill="none" stroke="black" d="M359.927,-1489.29C359.927,-1481 359.927,-1472.35 359.927,-1463.84"/>
<polygon fill="black" stroke="black" points="363.427,-1463.58 359.927,-1453.58 356.427,-1463.58 363.427,-1463.58"/>
</g>
<!-- Cul2 ubiquitin ligase_substrate -->
<g id="node37" class="node"><title>Cul2 ubiquitin ligase_substrate</title>
<ellipse fill="none" stroke="black" cx="454.927" cy="-1049.02" rx="41.2319" ry="41.2319"/>
<text text-anchor="middle" x="454.927" y="-1047.82" font-family="Times,serif" font-size="4.00">Cul2 ubiquitin ligase_substrate</text>
</g>
<!-- Cul2 ubiquitin ligase_N8_E2&#45;Ub_substrate&#45;&gt;Cul2 ubiquitin ligase_substrate -->
<g id="edge3" class="edge"><title>Cul2 ubiquitin ligase_N8_E2&#45;Ub_substrate&#45;&gt;Cul2 ubiquitin ligase_substrate</title>
<path fill="none" stroke="black" d="M388.8,-1497.91C398.039,-1484.46 407.26,-1469.06 412.927,-1453.42 456.682,-1332.65 454.777,-1178.68 453.386,-1100.49"/>
<polygon fill="black" stroke="black" points="456.884,-1100.37 453.205,-1090.43 449.885,-1100.49 456.884,-1100.37"/>
</g>
<!-- Cul2 ubiquitin ligase_Orf10_substrate -->
<g id="node2" class="node"><title>Cul2 ubiquitin ligase_Orf10_substrate</title>
<ellipse fill="none" stroke="black" cx="403.927" cy="-679.041" rx="48.0213" ry="48.0213"/>
<text text-anchor="middle" x="403.927" y="-677.841" font-family="Times,serif" font-size="4.00">Cul2 ubiquitin ligase_Orf10_substrate</text>
</g>
<!-- Cul2 ubiquitin ligase_Orf10 -->
<g id="node14" class="node"><title>Cul2 ubiquitin ligase_Orf10</title>
<ellipse fill="none" stroke="black" cx="388.927" cy="-800.954" rx="37.8075" ry="37.8075"/>
<text text-anchor="middle" x="388.927" y="-799.754" font-family="Times,serif" font-size="4.00">Cul2 ubiquitin ligase_Orf10</text>
</g>
<!-- Cul2 ubiquitin ligase_Orf10_substrate&#45;&gt;Cul2 ubiquitin ligase_Orf10 -->
<g id="edge5" class="edge"><title>Cul2 ubiquitin ligase_Orf10_substrate&#45;&gt;Cul2 ubiquitin ligase_Orf10</title>
<path fill="none" stroke="black" d="M404.602,-727.563C403.68,-736.446 402.505,-745.71 401.18,-754.528"/>
<polygon fill="black" stroke="black" points="397.689,-754.197 399.563,-764.625 404.601,-755.304 397.689,-754.197"/>
</g>
<!-- UBE2M -->
<g id="node16" class="node"><title>UBE2M</title>
<ellipse fill="none" stroke="black" cx="525.927" cy="-566.673" rx="18" ry="18"/>
<text text-anchor="middle" x="525.927" y="-565.473" font-family="Times,serif" font-size="4.00">UBE2M</text>
</g>
<!-- Cul2 ubiquitin ligase_Orf10_substrate&#45;&gt;UBE2M -->
<g id="edge6" class="edge"><title>Cul2 ubiquitin ligase_Orf10_substrate&#45;&gt;UBE2M</title>
<path fill="none" stroke="black" d="M439.215,-646.118C460.696,-626.684 487.385,-602.54 505.437,-586.21"/>
<polygon fill="black" stroke="black" points="508.005,-588.606 513.073,-579.302 503.309,-583.415 508.005,-588.606"/>
</g>
<!-- ubit_traget -->
<g id="node26" class="node"><title>ubit_traget</title>
<ellipse fill="none" stroke="black" cx="619.927" cy="-566.673" rx="20.3062" ry="20.3062"/>
<text text-anchor="middle" x="619.927" y="-565.473" font-family="Times,serif" font-size="4.00">ubit_traget</text>
</g>
<!-- Cul2 ubiquitin ligase_Orf10_substrate&#45;&gt;ubit_traget -->
<g id="edge4" class="edge"><title>Cul2 ubiquitin ligase_Orf10_substrate&#45;&gt;ubit_traget</title>
<path fill="none" stroke="black" d="M435.248,-642.065C440.62,-637.988 446.279,-634.11 451.927,-630.781 489.753,-608.485 503.131,-611.015 543.927,-594.781 559.368,-588.636 576.764,-581.594 591.206,-576.228"/>
<polygon fill="black" stroke="black" points="592.454,-579.499 600.672,-572.812 590.078,-572.914 592.454,-579.499"/>
</g>
<!-- Cul2 ubiquitin ligase_N8_Orf10_substrate -->
<g id="node29" class="node"><title>Cul2 ubiquitin ligase_N8_Orf10_substrate</title>
<ellipse fill="none" stroke="black" cx="127.927" cy="-363.682" rx="51.9447" ry="51.9447"/>
<text text-anchor="middle" x="127.927" y="-362.482" font-family="Times,serif" font-size="4.00">Cul2 ubiquitin ligase_N8_Orf10_substrate</text>
</g>
<!-- Cul2 ubiquitin ligase_Orf10_substrate&#45;&gt;Cul2 ubiquitin ligase_N8_Orf10_substrate -->
<g id="edge7" class="edge"><title>Cul2 ubiquitin ligase_Orf10_substrate&#45;&gt;Cul2 ubiquitin ligase_N8_Orf10_substrate</title>
<path fill="none" stroke="black" d="M374.229,-640.851C351.336,-612.472 318.667,-572.595 288.927,-538.566 249.789,-493.781 203.511,-444.126 170.639,-409.383"/>
<polygon fill="black" stroke="black" points="172.839,-406.615 163.42,-401.764 167.758,-411.43 172.839,-406.615"/>
</g>
<!-- 26S&#45;proteasom -->
<g id="node3" class="node"><title>26S&#45;proteasom</title>
<ellipse fill="none" stroke="black" cx="454.927" cy="-1542.45" rx="23.7305" ry="23.7305"/>
<text text-anchor="middle" x="454.927" y="-1541.25" font-family="Times,serif" font-size="4.00">26S&#45;proteasom</text>
</g>
<!-- E1 -->
<g id="node4" class="node"><title>E1</title>
<ellipse fill="none" stroke="black" cx="727.927" cy="-1190.03" rx="18" ry="18"/>
<text text-anchor="middle" x="727.927" y="-1188.83" font-family="Times,serif" font-size="4.00">E1</text>
</g>
<!-- E1&#45;&gt;E2 -->
<g id="edge10" class="edge"><title>E1&#45;&gt;E2</title>
<path fill="none" stroke="black" d="M710.533,-1195.37C638.95,-1211.7 368.328,-1269.44 280.503,-1287.15"/>
<polygon fill="black" stroke="black" points="279.616,-1283.76 270.496,-1289.15 280.988,-1290.62 279.616,-1283.76"/>
</g>
<!-- AMP -->
<g id="node32" class="node"><title>AMP</title>
<ellipse fill="none" stroke="black" cx="803.927" cy="-1049.02" rx="18" ry="18"/>
<text text-anchor="middle" x="803.927" y="-1047.82" font-family="Times,serif" font-size="4.00">AMP</text>
</g>
<!-- E1&#45;&gt;AMP -->
<g id="edge8" class="edge"><title>E1&#45;&gt;AMP</title>
<path fill="none" stroke="black" d="M736.205,-1173.89C749.34,-1149.87 775.069,-1102.81 790.757,-1074.11"/>
<polygon fill="black" stroke="black" points="793.933,-1075.6 795.659,-1065.15 787.791,-1072.24 793.933,-1075.6"/>
</g>
<!-- PPi -->
<g id="node38" class="node"><title>PPi</title>
<ellipse fill="none" stroke="black" cx="857.927" cy="-1049.02" rx="18" ry="18"/>
<text text-anchor="middle" x="857.927" y="-1047.82" font-family="Times,serif" font-size="4.00">PPi</text>
</g>
<!-- E1&#45;&gt;PPi -->
<g id="edge9" class="edge"><title>E1&#45;&gt;PPi</title>
<path fill="none" stroke="black" d="M742.926,-1179.76C764.635,-1165.73 805.04,-1137.27 830.927,-1104.71 837.846,-1096.01 843.631,-1085.24 848.049,-1075.57"/>
<polygon fill="black" stroke="black" points="851.265,-1076.95 852.002,-1066.39 844.835,-1074.19 851.265,-1076.95"/>
</g>
<!-- NEDD8 -->
<g id="node5" class="node"><title>NEDD8</title>
<ellipse fill="none" stroke="black" cx="803.927" cy="-679.041" rx="18" ry="18"/>
<text text-anchor="middle" x="803.927" y="-677.841" font-family="Times,serif" font-size="4.00">NEDD8</text>
</g>
<!-- NAE_NEDD8 -->
<g id="node44" class="node"><title>NAE_NEDD8</title>
<ellipse fill="none" stroke="black" cx="774.927" cy="-566.673" rx="22.05" ry="22.05"/>
<text text-anchor="middle" x="774.927" y="-565.473" font-family="Times,serif" font-size="4.00">NAE_NEDD8</text>
</g>
<!-- NEDD8&#45;&gt;NAE_NEDD8 -->
<g id="edge11" class="edge"><title>NEDD8&#45;&gt;NAE_NEDD8</title>
<path fill="none" stroke="black" d="M799.523,-661.278C795.131,-644.564 788.286,-618.514 782.931,-598.135"/>
<polygon fill="black" stroke="black" points="786.29,-597.146 780.364,-588.364 779.52,-598.925 786.29,-597.146"/>
</g>
<!-- RBX1 -->
<g id="node6" class="node"><title>RBX1</title>
<ellipse fill="none" stroke="black" cx="149.927" cy="-679.041" rx="18" ry="18"/>
<text text-anchor="middle" x="149.927" y="-677.841" font-family="Times,serif" font-size="4.00">RBX1</text>
</g>
<!-- Rbx1_Cul2 -->
<g id="node23" class="node"><title>Rbx1_Cul2</title>
<ellipse fill="none" stroke="black" cx="203.927" cy="-800.954" rx="20.3063" ry="20.3062"/>
<text text-anchor="middle" x="203.927" y="-799.754" font-family="Times,serif" font-size="4.00">Rbx1_Cul2</text>
</g>
<!-- RBX1&#45;&gt;Rbx1_Cul2 -->
<g id="edge12" class="edge"><title>RBX1&#45;&gt;Rbx1_Cul2</title>
<path fill="none" stroke="black" d="M160.578,-693.73C171.519,-712.558 187.436,-746.895 196.931,-771.434"/>
<polygon fill="black" stroke="black" points="193.702,-772.794 200.46,-780.953 200.265,-770.36 193.702,-772.794"/>
</g>
<!-- ELOB_ELOC -->
<g id="node7" class="node"><title>ELOB_ELOC</title>
<ellipse fill="none" stroke="black" cx="261.927" cy="-679.041" rx="21.9898" ry="21.9898"/>
<text text-anchor="middle" x="261.927" y="-677.841" font-family="Times,serif" font-size="4.00">ELOB_ELOC</text>
</g>
<!-- ELOB -->
<g id="node25" class="node"><title>ELOB</title>
<ellipse fill="none" stroke="black" cx="207.927" cy="-566.673" rx="18" ry="18"/>
<text text-anchor="middle" x="207.927" y="-565.473" font-family="Times,serif" font-size="4.00">ELOB</text>
</g>
<!-- ELOB_ELOC&#45;&gt;ELOB -->
<g id="edge13" class="edge"><title>ELOB_ELOC&#45;&gt;ELOB</title>
<path fill="none" stroke="black" d="M248.717,-661.278C238.005,-643.451 223.802,-615.004 215.017,-594.144"/>
<polygon fill="black" stroke="black" points="218.156,-592.567 211.179,-584.593 211.66,-595.177 218.156,-592.567"/>
</g>
<!-- ELOC -->
<g id="node30" class="node"><title>ELOC</title>
<ellipse fill="none" stroke="black" cx="261.927" cy="-566.673" rx="18" ry="18"/>
<text text-anchor="middle" x="261.927" y="-565.473" font-family="Times,serif" font-size="4.00">ELOC</text>
</g>
<!-- ELOB_ELOC&#45;&gt;ELOC -->
<g id="edge14" class="edge"><title>ELOB_ELOC&#45;&gt;ELOC</title>
<path fill="none" stroke="black" d="M256.563,-657.798C254.903,-639.945 254.734,-613.805 256.057,-594.268"/>
<polygon fill="black" stroke="black" points="259.554,-594.457 256.946,-584.189 252.581,-593.843 259.554,-594.457"/>
</g>
<!-- Zyg11B_EloBC -->
<g id="node39" class="node"><title>Zyg11B_EloBC</title>
<ellipse fill="none" stroke="black" cx="308.927" cy="-800.954" rx="24.2908" ry="24.2908"/>
<text text-anchor="middle" x="308.927" y="-799.754" font-family="Times,serif" font-size="4.00">Zyg11B_EloBC</text>
</g>
<!-- ELOB_ELOC&#45;&gt;Zyg11B_EloBC -->
<g id="edge15" class="edge"><title>ELOB_ELOC&#45;&gt;Zyg11B_EloBC</title>
<path fill="none" stroke="black" d="M273.727,-697.551C282.746,-715.649 294.383,-744.339 302.027,-766.753"/>
<polygon fill="black" stroke="black" points="298.797,-768.134 305.235,-776.549 305.449,-765.956 298.797,-768.134"/>
</g>
<!-- Pevonedistat -->
<g id="node8" class="node"><title>Pevonedistat</title>
<ellipse fill="none" stroke="black" cx="950.927" cy="-477.11" rx="21.9898" ry="21.9898"/>
<text text-anchor="middle" x="950.927" y="-475.91" font-family="Times,serif" font-size="4.00">Pevonedistat</text>
</g>
<!-- NAE_Pevonedistat -->
<g id="node34" class="node"><title>NAE_Pevonedistat</title>
<ellipse fill="none" stroke="black" cx="950.927" cy="-566.673" rx="28.2154" ry="28.2154"/>
<text text-anchor="middle" x="950.927" y="-565.473" font-family="Times,serif" font-size="4.00">NAE_Pevonedistat</text>
</g>
<!-- Pevonedistat&#45;&gt;NAE_Pevonedistat -->
<g id="edge16" class="edge"><title>Pevonedistat&#45;&gt;NAE_Pevonedistat</title>
<path fill="none" stroke="black" d="M956.718,-498.302C957.535,-507.353 957.831,-518.323 957.603,-528.758"/>
<polygon fill="black" stroke="black" points="954.099,-528.795 957.201,-538.925 961.093,-529.071 954.099,-528.795"/>
</g>
<!-- CSN5 -->
<g id="node9" class="node"><title>CSN5</title>
<ellipse fill="none" stroke="black" cx="377.927" cy="-1049.02" rx="18" ry="18"/>
<text text-anchor="middle" x="377.927" y="-1047.82" font-family="Times,serif" font-size="4.00">CSN5</text>
</g>
<!-- CSN5&#45;&gt;Cul2 ubiquitin ligase_Orf10 -->
<g id="edge18" class="edge"><title>CSN5&#45;&gt;Cul2 ubiquitin ligase_Orf10</title>
<path fill="none" stroke="black" d="M378.701,-1030.72C380.368,-993.414 384.351,-904.316 386.826,-848.969"/>
<polygon fill="black" stroke="black" points="390.334,-848.857 387.284,-838.711 383.341,-848.545 390.334,-848.857"/>
</g>
<!-- Cul2 ubiquitin ligase -->
<g id="node41" class="node"><title>Cul2 ubiquitin ligase</title>
<ellipse fill="none" stroke="black" cx="312.927" cy="-915.973" rx="30.5202" ry="30.5202"/>
<text text-anchor="middle" x="312.927" y="-914.773" font-family="Times,serif" font-size="4.00">Cul2 ubiquitin ligase</text>
</g>
<!-- CSN5&#45;&gt;Cul2 ubiquitin ligase -->
<g id="edge17" class="edge"><title>CSN5&#45;&gt;Cul2 ubiquitin ligase</title>
<path fill="none" stroke="black" d="M370.142,-1032.22C364.755,-1021.3 357.416,-1006.43 350.927,-993.339 344.365,-980.1 337.145,-965.58 330.778,-952.788"/>
<polygon fill="black" stroke="black" points="333.904,-951.214 326.313,-943.823 327.638,-954.334 333.904,-951.214"/>
</g>
<!-- Cul2 ubiquitin ligase_N8_substrate&#45;Ub -->
<g id="node10" class="node"><title>Cul2 ubiquitin ligase_N8_substrate&#45;Ub</title>
<ellipse fill="none" stroke="black" cx="368.927" cy="-1190.03" rx="48.5816" ry="48.5816"/>
<text text-anchor="middle" x="368.927" y="-1188.83" font-family="Times,serif" font-size="4.00">Cul2 ubiquitin ligase_N8_substrate&#45;Ub</text>
</g>
<!-- Cul2 ubiquitin ligase_N8 -->
<g id="node22" class="node"><title>Cul2 ubiquitin ligase_N8</title>
<ellipse fill="none" stroke="black" cx="307.927" cy="-1049.02" rx="34.4429" ry="34.4429"/>
<text text-anchor="middle" x="307.927" y="-1047.82" font-family="Times,serif" font-size="4.00">Cul2 ubiquitin ligase_N8</text>
</g>
<!-- Cul2 ubiquitin ligase_N8_substrate&#45;Ub&#45;&gt;Cul2 ubiquitin ligase_N8 -->
<g id="edge20" class="edge"><title>Cul2 ubiquitin ligase_N8_substrate&#45;Ub&#45;&gt;Cul2 ubiquitin ligase_N8</title>
<path fill="none" stroke="black" d="M349.627,-1145.05C341.91,-1127.46 333.084,-1107.35 325.544,-1090.17"/>
<polygon fill="black" stroke="black" points="328.727,-1088.71 321.503,-1080.96 322.317,-1091.52 328.727,-1088.71"/>
</g>
<!-- Cul2 ubiquitin ligase_N8_substrate&#45;Ub&#45;&gt;ubit_traget -->
<g id="edge19" class="edge"><title>Cul2 ubiquitin ligase_N8_substrate&#45;Ub&#45;&gt;ubit_traget</title>
<path fill="none" stroke="black" d="M417.802,-1189.1C485.927,-1186.6 609.531,-1172.23 684.927,-1104.71 751.617,-1044.98 757.927,-1006.5 757.927,-916.973 757.927,-916.973 757.927,-916.973 757.927,-799.954 757.927,-724.293 781.493,-693.332 738.927,-630.781 718.071,-600.131 677.411,-583.241 649.472,-574.823"/>
<polygon fill="black" stroke="black" points="650.39,-571.445 639.815,-572.094 648.487,-578.181 650.39,-571.445"/>
</g>
<!-- Orf10 (+)ss sgmRNA -->
<g id="node11" class="node"><title>Orf10 (+)ss sgmRNA</title>
<ellipse fill="none" stroke="black" cx="474.927" cy="-800.954" rx="30.5202" ry="30.5202"/>
<text text-anchor="middle" x="474.927" y="-799.754" font-family="Times,serif" font-size="4.00">Orf10 (+)ss sgmRNA</text>
</g>
<!-- Orf10 -->
<g id="node20" class="node"><title>Orf10</title>
<ellipse fill="none" stroke="black" cx="487.927" cy="-679.041" rx="18" ry="18"/>
<text text-anchor="middle" x="487.927" y="-677.841" font-family="Times,serif" font-size="4.00">Orf10</text>
</g>
<!-- Orf10 (+)ss sgmRNA&#45;&gt;Orf10 -->
<g id="edge21" class="edge"><title>Orf10 (+)ss sgmRNA&#45;&gt;Orf10</title>
<path fill="none" stroke="black" d="M478.141,-770.313C480.237,-750.974 482.953,-725.927 484.991,-707.123"/>
<polygon fill="black" stroke="black" points="488.476,-707.449 486.075,-697.13 481.517,-706.694 488.476,-707.449"/>
</g>
<!-- Ub -->
<g id="node12" class="node"><title>Ub</title>
<ellipse fill="none" stroke="black" cx="819.927" cy="-1293.35" rx="18" ry="18"/>
<text text-anchor="middle" x="819.927" y="-1292.15" font-family="Times,serif" font-size="4.00">Ub</text>
</g>
<!-- Ub&#45;&gt;E1 -->
<g id="edge22" class="edge"><title>Ub&#45;&gt;E1</title>
<path fill="none" stroke="black" d="M808.275,-1279.52C792.738,-1262.41 765.054,-1231.92 746.59,-1211.58"/>
<polygon fill="black" stroke="black" points="749.089,-1209.13 739.775,-1204.08 743.906,-1213.83 749.089,-1209.13"/>
</g>
<!-- Ub&#45;&gt;AMP -->
<g id="edge24" class="edge"><title>Ub&#45;&gt;AMP</title>
<path fill="none" stroke="black" d="M818.802,-1275.31C816.065,-1233.86 809.041,-1127.48 805.719,-1077.17"/>
<polygon fill="black" stroke="black" points="809.202,-1076.79 805.051,-1067.04 802.218,-1077.25 809.202,-1076.79"/>
</g>
<!-- Ub&#45;&gt;PPi -->
<g id="edge23" class="edge"><title>Ub&#45;&gt;PPi</title>
<path fill="none" stroke="black" d="M833.604,-1280.9C844.15,-1271.11 857.917,-1256 863.927,-1239.35 883.796,-1184.31 873.146,-1114.32 864.804,-1076.75"/>
<polygon fill="black" stroke="black" points="868.119,-1075.55 862.432,-1066.62 861.303,-1077.15 868.119,-1075.55"/>
</g>
<!-- Cul2 ubiquitin ligase_N8_Orf10_E2_substrate&#45;Ub -->
<g id="node13" class="node"><title>Cul2 ubiquitin ligase_N8_Orf10_E2_substrate&#45;Ub</title>
<ellipse fill="none" stroke="black" cx="59.9273" cy="-59.9273" rx="59.8547" ry="59.8547"/>
<text text-anchor="middle" x="59.9273" y="-58.7273" font-family="Times,serif" font-size="4.00">Cul2 ubiquitin ligase_N8_Orf10_E2_substrate&#45;Ub</text>
</g>
<!-- Cul2 ubiquitin ligase_Orf10&#45;&gt;Cul2 ubiquitin ligase_Orf10_substrate -->
<g id="edge27" class="edge"><title>Cul2 ubiquitin ligase_Orf10&#45;&gt;Cul2 ubiquitin ligase_Orf10_substrate</title>
<path fill="none" stroke="black" d="M387.236,-763.325C387.951,-754.625 388.982,-745.148 390.216,-735.809"/>
<polygon fill="black" stroke="black" points="393.701,-736.161 391.629,-725.77 386.769,-735.185 393.701,-736.161"/>
</g>
<!-- Cul2 ubiquitin ligase_Orf10&#45;&gt;Orf10 -->
<g id="edge26" class="edge"><title>Cul2 ubiquitin ligase_Orf10&#45;&gt;Orf10</title>
<path fill="none" stroke="black" d="M412.65,-771.189C425.15,-758.453 440.106,-742.852 451.927,-727.301 458.294,-718.926 464.229,-708.897 469.644,-700.237"/>
<polygon fill="black" stroke="black" points="472.589,-702.129 475.096,-691.835 466.717,-698.319 472.589,-702.129"/>
</g>
<!-- Cul2 ubiquitin ligase_Orf10&#45;&gt;Cul2 ubiquitin ligase -->
<g id="edge25" class="edge"><title>Cul2 ubiquitin ligase_Orf10&#45;&gt;Cul2 ubiquitin ligase</title>
<path fill="none" stroke="black" d="M372.67,-835.383C362.941,-850.971 350.505,-869.387 339.432,-884.576"/>
<polygon fill="black" stroke="black" points="336.593,-882.528 333.446,-892.644 342.215,-886.698 336.593,-882.528"/>
</g>
<!-- E2&#45;&gt;Cul2 ubiquitin ligase_N8_E2&#45;Ub_substrate -->
<g id="edge32" class="edge"><title>E2&#45;&gt;Cul2 ubiquitin ligase_N8_E2&#45;Ub_substrate</title>
<path fill="none" stroke="black" d="M260.718,-1309.88C269.764,-1339.07 283.225,-1403.67 306.927,-1453.42 312.566,-1465.25 319.768,-1477.21 327.068,-1488.33"/>
<polygon fill="black" stroke="black" points="324.173,-1490.3 332.645,-1496.66 329.989,-1486.4 324.173,-1490.3"/>
</g>
<!-- E2&#45;&gt;E1 -->
<g id="edge30" class="edge"><title>E2&#45;&gt;E1</title>
<path fill="none" stroke="black" d="M270.384,-1288C342.03,-1271.65 612.301,-1213.98 700.229,-1196.25"/>
<polygon fill="black" stroke="black" points="701.132,-1199.64 710.252,-1194.25 699.76,-1192.78 701.132,-1199.64"/>
</g>
<!-- Cul2 ubiquitin ligase_N8_Orf10_E2&#45;Ub_substrate -->
<g id="node17" class="node"><title>Cul2 ubiquitin ligase_N8_Orf10_E2&#45;Ub_substrate</title>
<ellipse fill="none" stroke="black" cx="59.9273" cy="-215.782" rx="59.8547" ry="59.8547"/>
<text text-anchor="middle" x="59.9273" y="-214.582" font-family="Times,serif" font-size="4.00">Cul2 ubiquitin ligase_N8_Orf10_E2&#45;Ub_substrate</text>
</g>
<!-- E2&#45;&gt;Cul2 ubiquitin ligase_N8_Orf10_E2&#45;Ub_substrate -->
<g id="edge29" class="edge"><title>E2&#45;&gt;Cul2 ubiquitin ligase_N8_Orf10_E2&#45;Ub_substrate</title>
<path fill="none" stroke="black" d="M235.007,-1290.67C204.592,-1286.6 144.192,-1273.87 108.927,-1239.35 43.776,-1175.57 29.9273,-1141.2 29.9273,-1050.02 29.9273,-1050.02 29.9273,-1050.02 29.9273,-476.11 29.9273,-410.79 36.6282,-336.517 44.0818,-284.249"/>
<polygon fill="black" stroke="black" points="47.5823,-284.502 45.5808,-274.098 40.6574,-283.479 47.5823,-284.502"/>
</g>
<!-- Cul2 ubiquitin ligase_N8_Orf10_0E2_substrate -->
<g id="node36" class="node"><title>Cul2 ubiquitin ligase_N8_Orf10_0E2_substrate</title>
<ellipse fill="none" stroke="black" cx="205.927" cy="-215.782" rx="57.0522" ry="57.0522"/>
<text text-anchor="middle" x="205.927" y="-214.582" font-family="Times,serif" font-size="4.00">Cul2 ubiquitin ligase_N8_Orf10_0E2_substrate</text>
</g>
<!-- E2&#45;&gt;Cul2 ubiquitin ligase_N8_Orf10_0E2_substrate -->
<g id="edge28" class="edge"><title>E2&#45;&gt;Cul2 ubiquitin ligase_N8_Orf10_0E2_substrate</title>
<path fill="none" stroke="black" d="M237.53,-1283.4C195.821,-1254.17 85.9273,-1157.25 85.9273,-1050.02 85.9273,-1050.02 85.9273,-1050.02 85.9273,-799.954 85.9273,-624.119 146.464,-588.276 179.927,-415.654 188.433,-371.778 192.683,-321.634 195.958,-282.675"/>
<polygon fill="black" stroke="black" points="199.462,-282.769 196.814,-272.51 192.487,-282.181 199.462,-282.769"/>
</g>
<!-- Cul2 ubiquitin ligase_N8_E2_substrate -->
<g id="node42" class="node"><title>Cul2 ubiquitin ligase_N8_E2_substrate</title>
<ellipse fill="none" stroke="black" cx="252.927" cy="-1190.03" rx="49.142" ry="49.142"/>
<text text-anchor="middle" x="252.927" y="-1188.83" font-family="Times,serif" font-size="4.00">Cul2 ubiquitin ligase_N8_E2_substrate</text>
</g>
<!-- E2&#45;&gt;Cul2 ubiquitin ligase_N8_E2_substrate -->
<g id="edge31" class="edge"><title>E2&#45;&gt;Cul2 ubiquitin ligase_N8_E2_substrate</title>
<path fill="none" stroke="black" d="M247.812,-1276.07C246.95,-1268.6 246.429,-1259.23 246.249,-1249.48"/>
<polygon fill="black" stroke="black" points="249.747,-1249.21 246.184,-1239.23 242.747,-1249.25 249.747,-1249.21"/>
</g>
<!-- UBE2M_NEDD8 -->
<g id="node21" class="node"><title>UBE2M_NEDD8</title>
<ellipse fill="none" stroke="black" cx="525.927" cy="-477.11" rx="25.4118" ry="25.4118"/>
<text text-anchor="middle" x="525.927" y="-475.91" font-family="Times,serif" font-size="4.00">UBE2M_NEDD8</text>
</g>
<!-- UBE2M&#45;&gt;UBE2M_NEDD8 -->
<g id="edge33" class="edge"><title>UBE2M&#45;&gt;UBE2M_NEDD8</title>
<path fill="none" stroke="black" d="M520.516,-549.203C519.331,-538.83 518.933,-525.052 519.321,-512.389"/>
<polygon fill="black" stroke="black" points="522.831,-512.274 519.831,-502.113 515.839,-511.927 522.831,-512.274"/>
</g>
<!-- Cul2 ubiquitin ligase_N8_Orf10_E2&#45;Ub_substrate&#45;&gt;Cul2 ubiquitin ligase_N8_Orf10_E2_substrate&#45;Ub -->
<g id="edge36" class="edge"><title>Cul2 ubiquitin ligase_N8_Orf10_E2&#45;Ub_substrate&#45;&gt;Cul2 ubiquitin ligase_N8_Orf10_E2_substrate&#45;Ub</title>
<path fill="none" stroke="black" d="M59.9273,-155.738C59.9273,-147.424 59.9273,-138.815 59.9273,-130.329"/>
<polygon fill="black" stroke="black" points="63.4274,-130.068 59.9273,-120.068 56.4274,-130.068 63.4274,-130.068"/>
</g>
<!-- Cul2 ubiquitin ligase_N8_Orf10_E2&#45;Ub_substrate&#45;&gt;E2 -->
<g id="edge34" class="edge"><title>Cul2 ubiquitin ligase_N8_Orf10_E2&#45;Ub_substrate&#45;&gt;E2</title>
<path fill="none" stroke="black" d="M59.5026,-275.894C55.3794,-328.385 47.9273,-407.226 47.9273,-476.11 47.9273,-1050.02 47.9273,-1050.02 47.9273,-1050.02 47.9273,-1141.2 61.776,-1175.57 126.927,-1239.35 154.368,-1266.21 197.028,-1279.88 225.131,-1286.54"/>
<polygon fill="black" stroke="black" points="224.606,-1290.01 235.127,-1288.76 226.125,-1283.17 224.606,-1290.01"/>
</g>
<!-- Cul2 ubiquitin ligase_N8_Orf10_E2&#45;Ub_substrate&#45;&gt;Cul2 ubiquitin ligase_N8_Orf10_substrate -->
<g id="edge35" class="edge"><title>Cul2 ubiquitin ligase_N8_Orf10_E2&#45;Ub_substrate&#45;&gt;Cul2 ubiquitin ligase_N8_Orf10_substrate</title>
<path fill="none" stroke="black" d="M90.1031,-267.65C96.0165,-279.659 102.075,-292.549 107.589,-304.841"/>
<polygon fill="black" stroke="black" points="104.439,-306.372 111.688,-314.099 110.84,-303.538 104.439,-306.372"/>
</g>
<!-- NAE1 -->
<g id="node18" class="node"><title>NAE1</title>
<ellipse fill="none" stroke="black" cx="832.927" cy="-566.673" rx="18" ry="18"/>
<text text-anchor="middle" x="832.927" y="-565.473" font-family="Times,serif" font-size="4.00">NAE1</text>
</g>
<!-- NAE -->
<g id="node28" class="node"><title>NAE</title>
<ellipse fill="none" stroke="black" cx="886.927" cy="-679.041" rx="18" ry="18"/>
<text text-anchor="middle" x="886.927" y="-677.841" font-family="Times,serif" font-size="4.00">NAE</text>
</g>
<!-- NAE1&#45;&gt;NAE -->
<g id="edge37" class="edge"><title>NAE1&#45;&gt;NAE</title>
<path fill="none" stroke="black" d="M844.105,-581.113C855.02,-598.599 870.573,-629.536 879.917,-651.76"/>
<polygon fill="black" stroke="black" points="876.764,-653.3 883.735,-661.278 883.261,-650.694 876.764,-653.3"/>
</g>
<!-- UBA3 -->
<g id="node19" class="node"><title>UBA3</title>
<ellipse fill="none" stroke="black" cx="886.927" cy="-566.673" rx="18" ry="18"/>
<text text-anchor="middle" x="886.927" y="-565.473" font-family="Times,serif" font-size="4.00">UBA3</text>
</g>
<!-- UBA3&#45;&gt;NAE -->
<g id="edge38" class="edge"><title>UBA3&#45;&gt;NAE</title>
<path fill="none" stroke="black" d="M891.914,-584.232C893.91,-601.918 894.211,-630.223 892.819,-651.121"/>
<polygon fill="black" stroke="black" points="889.315,-651.013 891.937,-661.278 896.289,-651.619 889.315,-651.013"/>
</g>
<!-- Orf10&#45;&gt;Cul2 ubiquitin ligase_Orf10 -->
<g id="edge39" class="edge"><title>Orf10&#45;&gt;Cul2 ubiquitin ligase_Orf10</title>
<path fill="none" stroke="black" d="M487.428,-697.338C483.574,-706.593 477.018,-717.972 469.927,-727.301 457.686,-743.404 442.084,-759.561 427.743,-772.535"/>
<polygon fill="black" stroke="black" points="425.137,-770.166 419.934,-779.396 429.757,-775.425 425.137,-770.166"/>
</g>
<!-- UBE2M_NEDD8&#45;&gt;UBE2M -->
<g id="edge41" class="edge"><title>UBE2M_NEDD8&#45;&gt;UBE2M</title>
<path fill="none" stroke="black" d="M532.024,-502.113C532.835,-513.564 532.891,-527.301 532.192,-539.07"/>
<polygon fill="black" stroke="black" points="528.691,-538.945 531.339,-549.203 535.666,-539.532 528.691,-538.945"/>
</g>
<!-- UBE2M_NEDD8&#45;&gt;Cul2 ubiquitin ligase_N8_Orf10_substrate -->
<g id="edge42" class="edge"><title>UBE2M_NEDD8&#45;&gt;Cul2 ubiquitin ligase_N8_Orf10_substrate</title>
<path fill="none" stroke="black" d="M501.63,-469.307C440.057,-452.069 276.494,-406.276 187.548,-381.374"/>
<polygon fill="black" stroke="black" points="188.443,-377.99 177.869,-378.664 186.555,-384.73 188.443,-377.99"/>
</g>
<!-- UBE2M_NEDD8&#45;&gt;Cul2 ubiquitin ligase_substrate -->
<g id="edge40" class="edge"><title>UBE2M_NEDD8&#45;&gt;Cul2 ubiquitin ligase_substrate</title>
<path fill="none" stroke="black" d="M538.01,-499.801C543.629,-511.017 549.76,-525.14 552.927,-538.566 562.347,-578.492 556.038,-589.767 556.927,-630.781 558.934,-723.367 589.94,-759.418 541.927,-838.608 527.543,-862.332 506.142,-851.406 490.927,-874.608 466.961,-911.156 458.51,-960.578 455.734,-997.312"/>
<polygon fill="black" stroke="black" points="452.239,-997.112 455.093,-1007.32 459.225,-997.56 452.239,-997.112"/>
</g>
<!-- Cul2 ubiquitin ligase_N8&#45;&gt;Cul2 ubiquitin ligase -->
<g id="edge43" class="edge"><title>Cul2 ubiquitin ligase_N8&#45;&gt;Cul2 ubiquitin ligase</title>
<path fill="none" stroke="black" d="M309.215,-1014.27C309.881,-996.823 310.698,-975.403 311.396,-957.108"/>
<polygon fill="black" stroke="black" points="314.897,-957.157 311.78,-947.031 307.902,-956.89 314.897,-957.157"/>
</g>
<!-- Rbx1_Cul2&#45;&gt;RBX1 -->
<g id="edge45" class="edge"><title>Rbx1_Cul2&#45;&gt;RBX1</title>
<path fill="none" stroke="black" d="M192.136,-784.277C180.915,-764.502 165.148,-730.206 156.087,-706.378"/>
<polygon fill="black" stroke="black" points="159.343,-705.091 152.647,-696.88 152.761,-707.474 159.343,-705.091"/>
</g>
<!-- CUL2 -->
<g id="node27" class="node"><title>CUL2</title>
<ellipse fill="none" stroke="black" cx="203.927" cy="-679.041" rx="18" ry="18"/>
<text text-anchor="middle" x="203.927" y="-677.841" font-family="Times,serif" font-size="4.00">CUL2</text>
</g>
<!-- Rbx1_Cul2&#45;&gt;CUL2 -->
<g id="edge44" class="edge"><title>Rbx1_Cul2&#45;&gt;CUL2</title>
<path fill="none" stroke="black" d="M198.865,-781.218C196.862,-761.201 196.642,-729.305 198.205,-706.681"/>
<polygon fill="black" stroke="black" points="201.692,-706.982 199.082,-696.714 194.719,-706.369 201.692,-706.982"/>
</g>
<!-- Rbx1_Cul2&#45;&gt;Cul2 ubiquitin ligase -->
<g id="edge46" class="edge"><title>Rbx1_Cul2&#45;&gt;Cul2 ubiquitin ligase</title>
<path fill="none" stroke="black" d="M219.576,-813.702C237.713,-829.985 267.289,-860.022 288.396,-883.171"/>
<polygon fill="black" stroke="black" points="285.909,-885.639 295.201,-890.728 291.11,-880.955 285.909,-885.639"/>
</g>
<!-- Cul2 ubiquitin ligase_N8_E2_substrate&#45;Ub&#45;&gt;Cul2 ubiquitin ligase_N8_substrate&#45;Ub -->
<g id="edge47" class="edge"><title>Cul2 ubiquitin ligase_N8_E2_substrate&#45;Ub&#45;&gt;Cul2 ubiquitin ligase_N8_substrate&#45;Ub</title>
<path fill="none" stroke="black" d="M362.175,-1347.34C363.466,-1317.46 365.091,-1279.85 366.422,-1249.02"/>
<polygon fill="black" stroke="black" points="369.927,-1248.98 366.862,-1238.84 362.934,-1248.68 369.927,-1248.98"/>
</g>
<!-- Cul2 ubiquitin ligase_N8_E2_substrate&#45;Ub&#45;&gt;E2 -->
<g id="edge48" class="edge"><title>Cul2 ubiquitin ligase_N8_E2_substrate&#45;Ub&#45;&gt;E2</title>
<path fill="none" stroke="black" d="M322.504,-1362.65C305.724,-1346.18 286.618,-1327.42 272.678,-1313.74"/>
<polygon fill="black" stroke="black" points="275.101,-1311.21 265.513,-1306.7 270.197,-1316.21 275.101,-1311.21"/>
</g>
<!-- ELOB&#45;&gt;ELOB_ELOC -->
<g id="edge49" class="edge"><title>ELOB&#45;&gt;ELOB_ELOC</title>
<path fill="none" stroke="black" d="M219.107,-581.116C229.425,-597.646 243.887,-626.196 253.331,-648.042"/>
<polygon fill="black" stroke="black" points="250.211,-649.653 257.285,-657.54 256.673,-646.963 250.211,-649.653"/>
</g>
<!-- ubit_traget&#45;&gt;Cul2 ubiquitin ligase_Orf10_substrate -->
<g id="edge50" class="edge"><title>ubit_traget&#45;&gt;Cul2 ubiquitin ligase_Orf10_substrate</title>
<path fill="none" stroke="black" d="M602.916,-577.911C591.254,-583.014 575.801,-589.26 561.927,-594.781 521.131,-611.015 507.753,-608.485 469.927,-630.781 463.532,-634.55 457.121,-639.024 450.924,-643.693"/>
<polygon fill="black" stroke="black" points="448.382,-641.236 442.628,-650.132 452.674,-646.765 448.382,-641.236"/>
</g>
<!-- ubit_traget&#45;&gt;Cul2 ubiquitin ligase_substrate -->
<g id="edge51" class="edge"><title>ubit_traget&#45;&gt;Cul2 ubiquitin ligase_substrate</title>
<path fill="none" stroke="black" d="M627.495,-585.574C644.211,-643.908 673.128,-831.973 599.927,-957.339 588.634,-976.681 539.563,-1006.65 501.485,-1026.78"/>
<polygon fill="black" stroke="black" points="499.818,-1023.7 492.564,-1031.43 503.05,-1029.91 499.818,-1023.7"/>
</g>
<!-- CUL2&#45;&gt;Rbx1_Cul2 -->
<g id="edge52" class="edge"><title>CUL2&#45;&gt;Rbx1_Cul2</title>
<path fill="none" stroke="black" d="M208.772,-696.714C210.91,-715.957 211.249,-747.937 209.788,-771.213"/>
<polygon fill="black" stroke="black" points="206.296,-770.971 208.99,-781.218 213.274,-771.528 206.296,-770.971"/>
</g>
<!-- NAE&#45;&gt;NAE1 -->
<g id="edge56" class="edge"><title>NAE&#45;&gt;NAE1</title>
<path fill="none" stroke="black" d="M875.692,-664.507C864.799,-647.037 849.322,-616.25 839.988,-594.075"/>
<polygon fill="black" stroke="black" points="843.146,-592.545 836.17,-584.571 836.65,-595.155 843.146,-592.545"/>
</g>
<!-- NAE&#45;&gt;UBA3 -->
<g id="edge55" class="edge"><title>NAE&#45;&gt;UBA3</title>
<path fill="none" stroke="black" d="M881.918,-661.278C879.935,-643.511 879.646,-615.194 881.052,-594.353"/>
<polygon fill="black" stroke="black" points="884.552,-594.5 881.941,-584.232 877.579,-593.887 884.552,-594.5"/>
</g>
<!-- NAE&#45;&gt;NAE_Pevonedistat -->
<g id="edge54" class="edge"><title>NAE&#45;&gt;NAE_Pevonedistat</title>
<path fill="none" stroke="black" d="M891.638,-661.278C899.594,-644.288 914.694,-617.651 927.795,-597.13"/>
<polygon fill="black" stroke="black" points="930.727,-599.042 933.262,-588.755 924.865,-595.216 930.727,-599.042"/>
</g>
<!-- NAE&#45;&gt;NAE_NEDD8 -->
<g id="edge53" class="edge"><title>NAE&#45;&gt;NAE_NEDD8</title>
<path fill="none" stroke="black" d="M874.513,-665.808C856.092,-647.655 821.204,-613.275 798.005,-590.414"/>
<polygon fill="black" stroke="black" points="800.205,-587.669 790.626,-583.143 795.292,-592.655 800.205,-587.669"/>
</g>
<!-- Cul2 ubiquitin ligase_N8_Orf10_substrate&#45;&gt;Cul2 ubiquitin ligase_N8_Orf10_E2&#45;Ub_substrate -->
<g id="edge58" class="edge"><title>Cul2 ubiquitin ligase_N8_Orf10_substrate&#45;&gt;Cul2 ubiquitin ligase_N8_Orf10_E2&#45;Ub_substrate</title>
<path fill="none" stroke="black" d="M101.28,-318.907C95.4647,-307.335 89.3676,-294.591 83.6739,-282.145"/>
<polygon fill="black" stroke="black" points="86.7176,-280.381 79.4098,-272.71 80.3387,-283.264 86.7176,-280.381"/>
</g>
<!-- Cul2 ubiquitin ligase_N8_Orf10_substrate&#45;&gt;Cul2 ubiquitin ligase_N8_Orf10_0E2_substrate -->
<g id="edge57" class="edge"><title>Cul2 ubiquitin ligase_N8_Orf10_substrate&#45;&gt;Cul2 ubiquitin ligase_N8_Orf10_0E2_substrate</title>
<path fill="none" stroke="black" d="M147.088,-314.909C153.823,-301.547 161.582,-286.9 169.231,-273.094"/>
<polygon fill="black" stroke="black" points="172.399,-274.6 174.229,-264.164 166.291,-271.18 172.399,-274.6"/>
</g>
<!-- ELOC&#45;&gt;ELOB_ELOC -->
<g id="edge59" class="edge"><title>ELOC&#45;&gt;ELOB_ELOC</title>
<path fill="none" stroke="black" d="M266.909,-584.189C268.802,-600.922 269.175,-627.191 268.029,-647.687"/>
<polygon fill="black" stroke="black" points="264.528,-647.569 267.291,-657.798 271.51,-648.079 264.528,-647.569"/>
</g>
<!-- Cul2 ubiquitin ligase_N8_Orf10 -->
<g id="node31" class="node"><title>Cul2 ubiquitin ligase_N8_Orf10</title>
<ellipse fill="none" stroke="black" cx="540.927" cy="-915.973" rx="41.2319" ry="41.2319"/>
<text text-anchor="middle" x="540.927" y="-914.773" font-family="Times,serif" font-size="4.00">Cul2 ubiquitin ligase_N8_Orf10</text>
</g>
<!-- Cul2 ubiquitin ligase_N8_Orf10&#45;&gt;Cul2 ubiquitin ligase_Orf10 -->
<g id="edge60" class="edge"><title>Cul2 ubiquitin ligase_N8_Orf10&#45;&gt;Cul2 ubiquitin ligase_Orf10</title>
<path fill="none" stroke="black" d="M507.205,-891.308C486.224,-876.43 458.788,-856.692 434.927,-838.608 431.987,-836.379 428.961,-834.05 425.932,-831.693"/>
<polygon fill="black" stroke="black" points="427.989,-828.858 417.961,-825.437 423.667,-834.364 427.989,-828.858"/>
</g>
<!-- DUB -->
<g id="node33" class="node"><title>DUB</title>
<ellipse fill="none" stroke="black" cx="711.927" cy="-679.041" rx="18" ry="18"/>
<text text-anchor="middle" x="711.927" y="-677.841" font-family="Times,serif" font-size="4.00">DUB</text>
</g>
<!-- DUB&#45;&gt;ubit_traget -->
<g id="edge61" class="edge"><title>DUB&#45;&gt;ubit_traget</title>
<path fill="none" stroke="black" d="M702.724,-663.118C696.63,-653.588 688.252,-641.124 679.927,-630.781 668.109,-616.096 653.569,-600.745 641.763,-588.861"/>
<polygon fill="black" stroke="black" points="644.014,-586.163 634.455,-581.593 639.078,-591.126 644.014,-586.163"/>
</g>
<!-- NAE_Pevonedistat&#45;&gt;Pevonedistat -->
<g id="edge62" class="edge"><title>NAE_Pevonedistat&#45;&gt;Pevonedistat</title>
<path fill="none" stroke="black" d="M944.654,-538.925C944.089,-529.322 944.026,-518.424 944.465,-508.532"/>
<polygon fill="black" stroke="black" points="947.974,-508.51 945.137,-498.302 940.989,-508.051 947.974,-508.51"/>
</g>
<!-- NAE_Pevonedistat&#45;&gt;NAE -->
<g id="edge63" class="edge"><title>NAE_Pevonedistat&#45;&gt;NAE</title>
<path fill="none" stroke="black" d="M941.747,-593.541C931.945,-612.773 916.791,-638.699 904.738,-656.741"/>
<polygon fill="black" stroke="black" points="901.573,-655.165 898.763,-665.38 907.33,-659.147 901.573,-655.165"/>
</g>
<!-- Cul2 ubiquitin ligase_N8_Orf10_substrate&#45;Ub -->
<g id="node35" class="node"><title>Cul2 ubiquitin ligase_N8_Orf10_substrate&#45;Ub</title>
<ellipse fill="none" stroke="black" cx="619.927" cy="-1049.02" rx="55.8699" ry="55.8699"/>
<text text-anchor="middle" x="619.927" y="-1047.82" font-family="Times,serif" font-size="4.00">Cul2 ubiquitin ligase_N8_Orf10_substrate&#45;Ub</text>
</g>
<!-- Cul2 ubiquitin ligase_N8_Orf10_substrate&#45;Ub&#45;&gt;ubit_traget -->
<g id="edge64" class="edge"><title>Cul2 ubiquitin ligase_N8_Orf10_substrate&#45;Ub&#45;&gt;ubit_traget</title>
<path fill="none" stroke="black" d="M634.981,-995.183C637.866,-982.865 640.446,-969.725 641.927,-957.339 659.158,-813.228 666.156,-773.881 641.927,-630.781 639.881,-618.693 635.776,-605.834 631.661,-594.899"/>
<polygon fill="black" stroke="black" points="634.867,-593.488 627.937,-585.474 628.357,-596.061 634.867,-593.488"/>
</g>
<!-- Cul2 ubiquitin ligase_N8_Orf10_substrate&#45;Ub&#45;&gt;Cul2 ubiquitin ligase_N8_Orf10 -->
<g id="edge65" class="edge"><title>Cul2 ubiquitin ligase_N8_Orf10_substrate&#45;Ub&#45;&gt;Cul2 ubiquitin ligase_N8_Orf10</title>
<path fill="none" stroke="black" d="M591.406,-1000.71C583.506,-987.606 574.97,-973.445 567.204,-960.563"/>
<polygon fill="black" stroke="black" points="570.128,-958.635 561.968,-951.877 564.133,-962.248 570.128,-958.635"/>
</g>
<!-- Cul2 ubiquitin ligase_N8_Orf10_0E2_substrate&#45;&gt;E2 -->
<g id="edge66" class="edge"><title>Cul2 ubiquitin ligase_N8_Orf10_0E2_substrate&#45;&gt;E2</title>
<path fill="none" stroke="black" d="M211.834,-272.939C211.379,-313.015 207.16,-368.027 197.927,-415.654 164.464,-588.276 103.927,-624.119 103.927,-799.954 103.927,-1050.02 103.927,-1050.02 103.927,-1050.02 103.927,-1146.55 192.976,-1234.72 233.562,-1272.68"/>
<polygon fill="black" stroke="black" points="231.286,-1275.34 240.992,-1279.59 236.053,-1270.21 231.286,-1275.34"/>
</g>
<!-- Cul2 ubiquitin ligase_N8_Orf10_0E2_substrate&#45;&gt;Cul2 ubiquitin ligase_N8_Orf10_substrate -->
<g id="edge67" class="edge"><title>Cul2 ubiquitin ligase_N8_Orf10_0E2_substrate&#45;&gt;Cul2 ubiquitin ligase_N8_Orf10_substrate</title>
<path fill="none" stroke="black" d="M184.509,-269.006C177.499,-282.751 169.571,-297.566 161.895,-311.268"/>
<polygon fill="black" stroke="black" points="158.782,-309.663 156.899,-320.089 164.873,-313.113 158.782,-309.663"/>
</g>
<!-- Cul2 ubiquitin ligase_substrate&#45;&gt;Cul2 ubiquitin ligase_N8_E2&#45;Ub_substrate -->
<g id="edge72" class="edge"><title>Cul2 ubiquitin ligase_substrate&#45;&gt;Cul2 ubiquitin ligase_N8_E2&#45;Ub_substrate</title>
<path fill="none" stroke="black" d="M463.626,-1089.56C472.48,-1163.51 476.826,-1326.74 430.927,-1453.42 425.179,-1469.28 415.776,-1484.9 405.616,-1498.48"/>
<polygon fill="black" stroke="black" points="402.626,-1496.62 399.218,-1506.65 408.138,-1500.94 402.626,-1496.62"/>
</g>
<!-- Cul2 ubiquitin ligase_substrate&#45;&gt;UBE2M -->
<g id="edge68" class="edge"><title>Cul2 ubiquitin ligase_substrate&#45;&gt;UBE2M</title>
<path fill="none" stroke="black" d="M445.464,-1008.41C438.847,-971.344 434.824,-915.68 457.927,-874.608 472.617,-848.493 499.935,-864.55 514.927,-838.608 560.449,-759.839 543.511,-645.597 532.473,-594.327"/>
<polygon fill="black" stroke="black" points="535.844,-593.365 530.232,-584.378 529.015,-594.903 535.844,-593.365"/>
</g>
<!-- Cul2 ubiquitin ligase_substrate&#45;&gt;ubit_traget -->
<g id="edge70" class="edge"><title>Cul2 ubiquitin ligase_substrate&#45;&gt;ubit_traget</title>
<path fill="none" stroke="black" d="M489.223,-1025.88C523.013,-1005.76 570.802,-976.393 581.927,-957.339 650.761,-839.452 629.298,-666.122 621.336,-597.357"/>
<polygon fill="black" stroke="black" points="624.793,-596.785 620.19,-587.243 617.838,-597.574 624.793,-596.785"/>
</g>
<!-- Cul2 ubiquitin ligase_substrate&#45;&gt;Cul2 ubiquitin ligase -->
<g id="edge71" class="edge"><title>Cul2 ubiquitin ligase_substrate&#45;&gt;Cul2 ubiquitin ligase</title>
<path fill="none" stroke="black" d="M423.765,-1021.74C414.905,-1012.5 405.239,-1002.22 395.927,-993.339 378.496,-976.723 357.969,-959.483 341.57,-945.598"/>
<polygon fill="black" stroke="black" points="343.771,-942.875 333.883,-939.068 339.239,-948.21 343.771,-942.875"/>
</g>
<!-- Cul2 ubiquitin ligase_substrate&#45;&gt;Cul2 ubiquitin ligase_N8_E2_substrate -->
<g id="edge69" class="edge"><title>Cul2 ubiquitin ligase_substrate&#45;&gt;Cul2 ubiquitin ligase_N8_E2_substrate</title>
<path fill="none" stroke="black" d="M435.495,-1085.8C429.09,-1092.7 421.689,-1099.42 413.927,-1104.71 376.952,-1129.89 358.523,-1118.09 319.927,-1140.71 313.329,-1144.58 306.724,-1149.19 300.353,-1154.01"/>
<polygon fill="black" stroke="black" points="298.163,-1151.28 292.426,-1160.19 302.466,-1156.8 298.163,-1151.28"/>
</g>
<!-- Zyg11B_EloBC&#45;&gt;ELOB_ELOC -->
<g id="edge74" class="edge"><title>Zyg11B_EloBC&#45;&gt;ELOB_ELOC</title>
<path fill="none" stroke="black" d="M296,-780.153C286.772,-761.202 275.196,-732.346 267.893,-710.475"/>
<polygon fill="black" stroke="black" points="271.142,-709.141 264.771,-700.676 264.472,-711.266 271.142,-709.141"/>
</g>
<!-- Zyg11B_EloBC&#45;&gt;Cul2 ubiquitin ligase -->
<g id="edge75" class="edge"><title>Zyg11B_EloBC&#45;&gt;Cul2 ubiquitin ligase</title>
<path fill="none" stroke="black" d="M315.281,-824.786C316.982,-839.289 317.969,-858.452 318,-875.382"/>
<polygon fill="black" stroke="black" points="314.498,-875.538 317.893,-885.574 321.498,-875.611 314.498,-875.538"/>
</g>
<!-- ZYG11B -->
<g id="node43" class="node"><title>ZYG11B</title>
<ellipse fill="none" stroke="black" cx="319.927" cy="-679.041" rx="18" ry="18"/>
<text text-anchor="middle" x="319.927" y="-677.841" font-family="Times,serif" font-size="4.00">ZYG11B</text>
</g>
<!-- Zyg11B_EloBC&#45;&gt;ZYG11B -->
<g id="edge73" class="edge"><title>Zyg11B_EloBC&#45;&gt;ZYG11B</title>
<path fill="none" stroke="black" d="M305.593,-776.549C305.828,-756.258 308.455,-726.935 311.881,-705.944"/>
<polygon fill="black" stroke="black" points="315.325,-706.568 313.678,-696.102 308.439,-705.31 315.325,-706.568"/>
</g>
<!-- ATP -->
<g id="node40" class="node"><title>ATP</title>
<ellipse fill="none" stroke="black" cx="765.927" cy="-1293.35" rx="18" ry="18"/>
<text text-anchor="middle" x="765.927" y="-1292.15" font-family="Times,serif" font-size="4.00">ATP</text>
</g>
<!-- ATP&#45;&gt;E1 -->
<g id="edge76" class="edge"><title>ATP&#45;&gt;E1</title>
<path fill="none" stroke="black" d="M759.822,-1276.07C753.811,-1260.04 744.54,-1235.32 737.54,-1216.66"/>
<polygon fill="black" stroke="black" points="740.806,-1215.4 734.018,-1207.27 734.252,-1217.86 740.806,-1215.4"/>
</g>
<!-- ATP&#45;&gt;AMP -->
<g id="edge78" class="edge"><title>ATP&#45;&gt;AMP</title>
<path fill="none" stroke="black" d="M768.599,-1275.31C775.1,-1233.86 791.781,-1127.48 799.671,-1077.17"/>
<polygon fill="black" stroke="black" points="803.167,-1077.47 801.258,-1067.04 796.251,-1076.38 803.167,-1077.47"/>
</g>
<!-- ATP&#45;&gt;PPi -->
<g id="edge77" class="edge"><title>ATP&#45;&gt;PPi</title>
<path fill="none" stroke="black" d="M775.502,-1277.96C782.135,-1267.55 790.836,-1252.97 796.927,-1239.35 821.945,-1183.4 841.593,-1114.03 851.292,-1076.74"/>
<polygon fill="black" stroke="black" points="854.779,-1077.23 853.869,-1066.68 847.998,-1075.5 854.779,-1077.23"/>
</g>
<!-- Cul2 ubiquitin ligase&#45;&gt;Cul2 ubiquitin ligase_Orf10 -->
<g id="edge82" class="edge"><title>Cul2 ubiquitin ligase&#45;&gt;Cul2 ubiquitin ligase_Orf10</title>
<path fill="none" stroke="black" d="M325.447,-887.614C334.492,-872.705 346.871,-854.068 358.356,-837.988"/>
<polygon fill="black" stroke="black" points="361.223,-839.997 364.258,-829.846 355.556,-835.889 361.223,-839.997"/>
</g>
<!-- Cul2 ubiquitin ligase&#45;&gt;Rbx1_Cul2 -->
<g id="edge80" class="edge"><title>Cul2 ubiquitin ligase&#45;&gt;Rbx1_Cul2</title>
<path fill="none" stroke="black" d="M289.22,-895.801C268.778,-876.564 240.005,-846.879 221.528,-826.058"/>
<polygon fill="black" stroke="black" points="223.963,-823.525 214.757,-818.281 218.683,-828.121 223.963,-823.525"/>
</g>
<!-- Cul2 ubiquitin ligase&#45;&gt;Cul2 ubiquitin ligase_substrate -->
<g id="edge79" class="edge"><title>Cul2 ubiquitin ligase&#45;&gt;Cul2 ubiquitin ligase_substrate</title>
<path fill="none" stroke="black" d="M339.499,-932.03C360.707,-946.924 390.188,-970.71 413.927,-993.339 418.163,-997.376 422.471,-1001.71 426.643,-1006.09"/>
<polygon fill="black" stroke="black" points="424.135,-1008.54 433.498,-1013.5 429.272,-1003.78 424.135,-1008.54"/>
</g>
<!-- Cul2 ubiquitin ligase&#45;&gt;Zyg11B_EloBC -->
<g id="edge81" class="edge"><title>Cul2 ubiquitin ligase&#45;&gt;Zyg11B_EloBC</title>
<path fill="none" stroke="black" d="M305.909,-885.868C304.42,-870.309 303.668,-851.093 303.893,-834.977"/>
<polygon fill="black" stroke="black" points="307.394,-835.001 304.184,-824.904 300.397,-834.799 307.394,-835.001"/>
</g>
<!-- Cul2 ubiquitin ligase_N8_E2_substrate&#45;&gt;E2 -->
<g id="edge83" class="edge"><title>Cul2 ubiquitin ligase_N8_E2_substrate&#45;&gt;E2</title>
<path fill="none" stroke="black" d="M259.67,-1239.23C259.723,-1248.46 259.477,-1257.8 258.932,-1266.01"/>
<polygon fill="black" stroke="black" points="255.437,-1265.8 258.042,-1276.07 262.41,-1266.42 255.437,-1265.8"/>
</g>
<!-- Cul2 ubiquitin ligase_N8_E2_substrate&#45;&gt;Cul2 ubiquitin ligase_substrate -->
<g id="edge84" class="edge"><title>Cul2 ubiquitin ligase_N8_E2_substrate&#45;&gt;Cul2 ubiquitin ligase_substrate</title>
<path fill="none" stroke="black" d="M284.917,-1152.2C290.39,-1148.04 296.161,-1144.09 301.927,-1140.71 340.523,-1118.09 358.952,-1129.89 395.927,-1104.71 403.735,-1099.39 411.178,-1092.62 418.035,-1085.68"/>
<polygon fill="black" stroke="black" points="420.866,-1087.78 425.236,-1078.13 415.801,-1082.95 420.866,-1087.78"/>
</g>
<!-- ZYG11B&#45;&gt;Zyg11B_EloBC -->
<g id="edge85" class="edge"><title>ZYG11B&#45;&gt;Zyg11B_EloBC</title>
<path fill="none" stroke="black" d="M323.244,-696.786C323.591,-715.091 321.264,-744.859 317.946,-767.725"/>
<polygon fill="black" stroke="black" points="314.477,-767.254 316.358,-777.68 321.39,-768.356 314.477,-767.254"/>
</g>
<!-- NAE_NEDD8&#45;&gt;UBE2M_NEDD8 -->
<g id="edge86" class="edge"><title>NAE_NEDD8&#45;&gt;UBE2M_NEDD8</title>
<path fill="none" stroke="black" d="M754.126,-558.358C710.972,-543.182 611.394,-508.165 559.207,-489.813"/>
<polygon fill="black" stroke="black" points="560.329,-486.498 549.735,-486.482 558.007,-493.101 560.329,-486.498"/>
</g>
</g>
</svg>
