<?xml version="1.0" encoding="UTF-8" standalone="no"?>
<!DOCTYPE svg PUBLIC "-//W3C//DTD SVG 1.1//EN"
 "http://www.w3.org/Graphics/SVG/1.1/DTD/svg11.dtd">
<!-- Generated by graphviz version 2.38.0 (20140413.2041)
 -->
<!-- Title: G Pages: 1 -->
<svg width="998pt" height="1743pt"
 viewBox="0.00 0.00 997.90 1743.43" xmlns="http://www.w3.org/2000/svg" xmlns:xlink="http://www.w3.org/1999/xlink">
<g id="graph0" class="graph" transform="scale(1 1) rotate(0) translate(4 1739.43)">
<title>G</title>
<polygon fill="white" stroke="none" points="-4,4 -4,-1739.43 993.898,-1739.43 993.898,4 -4,4"/>
<!-- Cul2 ubiquitin ligase_Orf10_substrate -->
<g id="node1" class="node"><title>Cul2 ubiquitin ligase_Orf10_substrate</title>
<ellipse fill="none" stroke="black" cx="492.79" cy="-1687.17" rx="48.0213" ry="48.0213"/>
<text text-anchor="middle" x="492.79" y="-1685.97" font-family="Times,serif" font-size="4.00">Cul2 ubiquitin ligase_Orf10_substrate</text>
</g>
<!-- Cul2 ubiquitin ligase_N8_Orf10_substrate -->
<g id="node17" class="node"><title>Cul2 ubiquitin ligase_N8_Orf10_substrate</title>
<ellipse fill="none" stroke="black" cx="450.79" cy="-1550.93" rx="51.9447" ry="51.9447"/>
<text text-anchor="middle" x="450.79" y="-1549.73" font-family="Times,serif" font-size="4.00">Cul2 ubiquitin ligase_N8_Orf10_substrate</text>
</g>
<!-- Cul2 ubiquitin ligase_Orf10_substrate&#45;&gt;Cul2 ubiquitin ligase_N8_Orf10_substrate -->
<g id="edge4" class="edge"><title>Cul2 ubiquitin ligase_Orf10_substrate&#45;&gt;Cul2 ubiquitin ligase_N8_Orf10_substrate</title>
<path fill="none" stroke="black" d="M478.571,-1640.72C475.541,-1631.04 472.301,-1620.68 469.141,-1610.58"/>
<polygon fill="black" stroke="black" points="472.473,-1609.51 466.146,-1601.01 465.792,-1611.6 472.473,-1609.51"/>
</g>
<!-- UBE2M -->
<g id="node25" class="node"><title>UBE2M</title>
<ellipse fill="none" stroke="black" cx="474.79" cy="-828.937" rx="18" ry="18"/>
<text text-anchor="middle" x="474.79" y="-827.737" font-family="Times,serif" font-size="4.00">UBE2M</text>
</g>
<!-- Cul2 ubiquitin ligase_Orf10_substrate&#45;&gt;UBE2M -->
<g id="edge3" class="edge"><title>Cul2 ubiquitin ligase_Orf10_substrate&#45;&gt;UBE2M</title>
<path fill="none" stroke="black" d="M504.201,-1640.07C516.94,-1584.47 535.79,-1488.02 535.79,-1404.03 535.79,-1404.03 535.79,-1404.03 535.79,-1246.18 535.79,-1097.43 497.183,-921.915 481.397,-856.365"/>
<polygon fill="black" stroke="black" points="484.752,-855.35 478.983,-846.463 477.951,-857.008 484.752,-855.35"/>
</g>
<!-- ubit_traget -->
<g id="node27" class="node"><title>ubit_traget</title>
<ellipse fill="none" stroke="black" cx="243.79" cy="-415.997" rx="20.3062" ry="20.3062"/>
<text text-anchor="middle" x="243.79" y="-414.797" font-family="Times,serif" font-size="4.00">ubit_traget</text>
</g>
<!-- Cul2 ubiquitin ligase_Orf10_substrate&#45;&gt;ubit_traget -->
<g id="edge2" class="edge"><title>Cul2 ubiquitin ligase_Orf10_substrate&#45;&gt;ubit_traget</title>
<path fill="none" stroke="black" d="M445.605,-1676.53C340.878,-1651.09 98.7904,-1572.25 98.7904,-1404.03 98.7904,-1404.03 98.7904,-1404.03 98.7904,-827.937 98.7904,-740.777 100.81,-717.035 126.79,-633.838 150.234,-558.763 197.059,-477.66 224.103,-439.398"/>
<polygon fill="black" stroke="black" points="227.131,-441.186 230.203,-431.047 221.478,-437.057 227.131,-441.186"/>
</g>
<!-- Cul2 ubiquitin ligase_Orf10 -->
<g id="node32" class="node"><title>Cul2 ubiquitin ligase_Orf10</title>
<ellipse fill="none" stroke="black" cx="499.79" cy="-189.141" rx="37.8075" ry="37.8075"/>
<text text-anchor="middle" x="499.79" y="-187.941" font-family="Times,serif" font-size="4.00">Cul2 ubiquitin ligase_Orf10</text>
</g>
<!-- Cul2 ubiquitin ligase_Orf10_substrate&#45;&gt;Cul2 ubiquitin ligase_Orf10 -->
<g id="edge1" class="edge"><title>Cul2 ubiquitin ligase_Orf10_substrate&#45;&gt;Cul2 ubiquitin ligase_Orf10</title>
<path fill="none" stroke="black" d="M526.364,-1652.26C602.274,-1581.17 779.79,-1421.63 779.79,-1404.03 779.79,-1404.03 779.79,-1404.03 779.79,-414.997 779.79,-278.393 644.211,-311.183 536.79,-226.794 535.586,-225.848 534.365,-224.887 533.135,-223.915"/>
<polygon fill="black" stroke="black" points="534.974,-220.906 524.971,-217.415 530.614,-226.382 534.974,-220.906"/>
</g>
<!-- E1 -->
<g id="node2" class="node"><title>E1</title>
<ellipse fill="none" stroke="black" cx="619.79" cy="-1093.98" rx="18" ry="18"/>
<text text-anchor="middle" x="619.79" y="-1092.78" font-family="Times,serif" font-size="4.00">E1</text>
</g>
<!-- PPi -->
<g id="node3" class="node"><title>PPi</title>
<ellipse fill="none" stroke="black" cx="620.79" cy="-959.335" rx="18" ry="18"/>
<text text-anchor="middle" x="620.79" y="-958.135" font-family="Times,serif" font-size="4.00">PPi</text>
</g>
<!-- E1&#45;&gt;PPi -->
<g id="edge6" class="edge"><title>E1&#45;&gt;PPi</title>
<path fill="none" stroke="black" d="M619.919,-1075.91C620.088,-1053.52 620.386,-1013.99 620.586,-987.477"/>
<polygon fill="black" stroke="black" points="624.087,-987.365 620.662,-977.339 617.087,-987.312 624.087,-987.365"/>
</g>
<!-- E2 -->
<g id="node18" class="node"><title>E2</title>
<ellipse fill="none" stroke="black" cx="257.79" cy="-1247.18" rx="18" ry="18"/>
<text text-anchor="middle" x="257.79" y="-1245.98" font-family="Times,serif" font-size="4.00">E2</text>
</g>
<!-- E1&#45;&gt;E2 -->
<g id="edge7" class="edge"><title>E1&#45;&gt;E2</title>
<path fill="none" stroke="black" d="M604.972,-1104.89C580.585,-1117.34 531.592,-1138.58 487.79,-1151.25 403.551,-1175.62 362.943,-1133.33 293.79,-1187.25 282.727,-1195.88 276.036,-1210.08 271.043,-1222.38"/>
<polygon fill="black" stroke="black" points="267.782,-1221.11 267.351,-1231.69 274.29,-1223.69 267.782,-1221.11"/>
</g>
<!-- AMP -->
<g id="node21" class="node"><title>AMP</title>
<ellipse fill="none" stroke="black" cx="674.79" cy="-959.335" rx="18" ry="18"/>
<text text-anchor="middle" x="674.79" y="-958.135" font-family="Times,serif" font-size="4.00">AMP</text>
</g>
<!-- E1&#45;&gt;AMP -->
<g id="edge5" class="edge"><title>E1&#45;&gt;AMP</title>
<path fill="none" stroke="black" d="M626.425,-1076.98C635.798,-1054.37 653.019,-1012.84 664.18,-985.923"/>
<polygon fill="black" stroke="black" points="667.535,-986.97 668.133,-976.392 661.069,-984.289 667.535,-986.97"/>
</g>
<!-- ZYG11B -->
<g id="node4" class="node"><title>ZYG11B</title>
<ellipse fill="none" stroke="black" cx="268.79" cy="-93.7435" rx="18" ry="18"/>
<text text-anchor="middle" x="268.79" y="-92.5435" font-family="Times,serif" font-size="4.00">ZYG11B</text>
</g>
<!-- Zyg11B_EloBC -->
<g id="node15" class="node"><title>Zyg11B_EloBC</title>
<ellipse fill="none" stroke="black" cx="324.79" cy="-189.141" rx="24.2908" ry="24.2908"/>
<text text-anchor="middle" x="324.79" y="-187.941" font-family="Times,serif" font-size="4.00">Zyg11B_EloBC</text>
</g>
<!-- ZYG11B&#45;&gt;Zyg11B_EloBC -->
<g id="edge8" class="edge"><title>ZYG11B&#45;&gt;Zyg11B_EloBC</title>
<path fill="none" stroke="black" d="M280.973,-107.128C290.351,-119.662 302.836,-139.556 312.243,-156.492"/>
<polygon fill="black" stroke="black" points="309.288,-158.388 317.113,-165.532 315.451,-155.068 309.288,-158.388"/>
</g>
<!-- Cul2 ubiquitin ligase_N8_Orf10_E2&#45;Ub_substrate -->
<g id="node5" class="node"><title>Cul2 ubiquitin ligase_N8_Orf10_E2&#45;Ub_substrate</title>
<ellipse fill="none" stroke="black" cx="353.79" cy="-1403.03" rx="59.8547" ry="59.8547"/>
<text text-anchor="middle" x="353.79" y="-1401.83" font-family="Times,serif" font-size="4.00">Cul2 ubiquitin ligase_N8_Orf10_E2&#45;Ub_substrate</text>
</g>
<!-- Cul2 ubiquitin ligase_N8_Orf10_E2_substrate&#45;Ub -->
<g id="node10" class="node"><title>Cul2 ubiquitin ligase_N8_Orf10_E2_substrate&#45;Ub</title>
<ellipse fill="none" stroke="black" cx="353.79" cy="-1247.18" rx="59.8547" ry="59.8547"/>
<text text-anchor="middle" x="353.79" y="-1245.98" font-family="Times,serif" font-size="4.00">Cul2 ubiquitin ligase_N8_Orf10_E2_substrate&#45;Ub</text>
</g>
<!-- Cul2 ubiquitin ligase_N8_Orf10_E2&#45;Ub_substrate&#45;&gt;Cul2 ubiquitin ligase_N8_Orf10_E2_substrate&#45;Ub -->
<g id="edge9" class="edge"><title>Cul2 ubiquitin ligase_N8_Orf10_E2&#45;Ub_substrate&#45;&gt;Cul2 ubiquitin ligase_N8_Orf10_E2_substrate&#45;Ub</title>
<path fill="none" stroke="black" d="M353.79,-1342.99C353.79,-1334.68 353.79,-1326.07 353.79,-1317.58"/>
<polygon fill="black" stroke="black" points="357.29,-1317.32 353.79,-1307.32 350.29,-1317.32 357.29,-1317.32"/>
</g>
<!-- Cul2 ubiquitin ligase_N8_Orf10_E2&#45;Ub_substrate&#45;&gt;Cul2 ubiquitin ligase_N8_Orf10_substrate -->
<g id="edge11" class="edge"><title>Cul2 ubiquitin ligase_N8_Orf10_E2&#45;Ub_substrate&#45;&gt;Cul2 ubiquitin ligase_N8_Orf10_substrate</title>
<path fill="none" stroke="black" d="M390.934,-1450.38C401.034,-1464.86 411.808,-1480.96 421.42,-1495.92"/>
<polygon fill="black" stroke="black" points="418.608,-1498.02 426.932,-1504.57 424.513,-1494.26 418.608,-1498.02"/>
</g>
<!-- Cul2 ubiquitin ligase_N8_Orf10_E2&#45;Ub_substrate&#45;&gt;E2 -->
<g id="edge10" class="edge"><title>Cul2 ubiquitin ligase_N8_Orf10_E2&#45;Ub_substrate&#45;&gt;E2</title>
<path fill="none" stroke="black" d="M311.88,-1359.78C299.364,-1343.76 286.28,-1325.05 275.79,-1307.11 269.869,-1296.98 264.293,-1285.33 260.37,-1275.07"/>
<polygon fill="black" stroke="black" points="263.605,-1273.72 257.048,-1265.39 256.984,-1275.99 263.605,-1273.72"/>
</g>
<!-- NAE -->
<g id="node6" class="node"><title>NAE</title>
<ellipse fill="none" stroke="black" cx="897.79" cy="-959.335" rx="18" ry="18"/>
<text text-anchor="middle" x="897.79" y="-958.135" font-family="Times,serif" font-size="4.00">NAE</text>
</g>
<!-- NAE_Pevonedistat -->
<g id="node20" class="node"><title>NAE_Pevonedistat</title>
<ellipse fill="none" stroke="black" cx="961.79" cy="-828.937" rx="28.2154" ry="28.2154"/>
<text text-anchor="middle" x="961.79" y="-827.737" font-family="Times,serif" font-size="4.00">NAE_Pevonedistat</text>
</g>
<!-- NAE&#45;&gt;NAE_Pevonedistat -->
<g id="edge15" class="edge"><title>NAE&#45;&gt;NAE_Pevonedistat</title>
<path fill="none" stroke="black" d="M901.426,-941.55C909.34,-921.208 926.246,-886.516 940.319,-861.198"/>
<polygon fill="black" stroke="black" points="943.456,-862.762 945.354,-852.339 937.37,-859.304 943.456,-862.762"/>
</g>
<!-- NAE_NEDD8 -->
<g id="node29" class="node"><title>NAE_NEDD8</title>
<ellipse fill="none" stroke="black" cx="570.79" cy="-828.937" rx="22.05" ry="22.05"/>
<text text-anchor="middle" x="570.79" y="-827.737" font-family="Times,serif" font-size="4.00">NAE_NEDD8</text>
</g>
<!-- NAE&#45;&gt;NAE_NEDD8 -->
<g id="edge12" class="edge"><title>NAE&#45;&gt;NAE_NEDD8</title>
<path fill="none" stroke="black" d="M881.125,-951.792C829.008,-931.327 668.581,-868.335 601.146,-841.856"/>
<polygon fill="black" stroke="black" points="602.11,-838.475 591.523,-838.077 599.552,-844.99 602.11,-838.475"/>
</g>
<!-- UBA3 -->
<g id="node33" class="node"><title>UBA3</title>
<ellipse fill="none" stroke="black" cx="843.79" cy="-828.937" rx="18" ry="18"/>
<text text-anchor="middle" x="843.79" y="-827.737" font-family="Times,serif" font-size="4.00">UBA3</text>
</g>
<!-- NAE&#45;&gt;UBA3 -->
<g id="edge14" class="edge"><title>NAE&#45;&gt;UBA3</title>
<path fill="none" stroke="black" d="M887.373,-944.104C875.924,-923.122 858.867,-883.506 849.516,-856.911"/>
<polygon fill="black" stroke="black" points="852.721,-855.457 846.231,-847.082 846.082,-857.676 852.721,-855.457"/>
</g>
<!-- NAE1 -->
<g id="node36" class="node"><title>NAE1</title>
<ellipse fill="none" stroke="black" cx="897.79" cy="-828.937" rx="18" ry="18"/>
<text text-anchor="middle" x="897.79" y="-827.737" font-family="Times,serif" font-size="4.00">NAE1</text>
</g>
<!-- NAE&#45;&gt;NAE1 -->
<g id="edge13" class="edge"><title>NAE&#45;&gt;NAE1</title>
<path fill="none" stroke="black" d="M893.088,-941.812C890.697,-920.24 890.4,-882.214 892.197,-856.553"/>
<polygon fill="black" stroke="black" points="895.7,-856.666 893.095,-846.396 888.728,-856.049 895.7,-856.666"/>
</g>
<!-- CUL2 -->
<g id="node7" class="node"><title>CUL2</title>
<ellipse fill="none" stroke="black" cx="385.79" cy="-93.7435" rx="18" ry="18"/>
<text text-anchor="middle" x="385.79" y="-92.5435" font-family="Times,serif" font-size="4.00">CUL2</text>
</g>
<!-- Rbx1_Cul2 -->
<g id="node22" class="node"><title>Rbx1_Cul2</title>
<ellipse fill="none" stroke="black" cx="387.79" cy="-189.141" rx="20.3062" ry="20.3063"/>
<text text-anchor="middle" x="387.79" y="-187.941" font-family="Times,serif" font-size="4.00">Rbx1_Cul2</text>
</g>
<!-- CUL2&#45;&gt;Rbx1_Cul2 -->
<g id="edge16" class="edge"><title>CUL2&#45;&gt;Rbx1_Cul2</title>
<path fill="none" stroke="black" d="M391.42,-111.119C393.219,-124.305 393.967,-143.173 393.475,-158.933"/>
<polygon fill="black" stroke="black" points="389.963,-159.071 392.934,-169.24 396.954,-159.437 389.963,-159.071"/>
</g>
<!-- Cul2 ubiquitin ligase_N8_E2_substrate&#45;Ub -->
<g id="node8" class="node"><title>Cul2 ubiquitin ligase_N8_E2_substrate&#45;Ub</title>
<ellipse fill="none" stroke="black" cx="197.79" cy="-686.871" rx="53.066" ry="53.066"/>
<text text-anchor="middle" x="197.79" y="-685.671" font-family="Times,serif" font-size="4.00">Cul2 ubiquitin ligase_N8_E2_substrate&#45;Ub</text>
</g>
<!-- Cul2 ubiquitin ligase_N8_E2_substrate&#45;Ub&#45;&gt;E2 -->
<g id="edge18" class="edge"><title>Cul2 ubiquitin ligase_N8_E2_substrate&#45;Ub&#45;&gt;E2</title>
<path fill="none" stroke="black" d="M181.741,-737.675C178.446,-750.035 175.472,-763.343 173.79,-775.904 151.497,-942.434 172.73,-989.673 218.79,-1151.25 225.82,-1175.91 237.271,-1202.85 245.951,-1221.7"/>
<polygon fill="black" stroke="black" points="242.788,-1223.2 250.199,-1230.77 249.127,-1220.23 242.788,-1223.2"/>
</g>
<!-- Cul2 ubiquitin ligase_N8_substrate&#45;Ub -->
<g id="node41" class="node"><title>Cul2 ubiquitin ligase_N8_substrate&#45;Ub</title>
<ellipse fill="none" stroke="black" cx="48.7904" cy="-542.153" rx="48.5816" ry="48.5816"/>
<text text-anchor="middle" x="48.7904" y="-540.953" font-family="Times,serif" font-size="4.00">Cul2 ubiquitin ligase_N8_substrate&#45;Ub</text>
</g>
<!-- Cul2 ubiquitin ligase_N8_E2_substrate&#45;Ub&#45;&gt;Cul2 ubiquitin ligase_N8_substrate&#45;Ub -->
<g id="edge17" class="edge"><title>Cul2 ubiquitin ligase_N8_E2_substrate&#45;Ub&#45;&gt;Cul2 ubiquitin ligase_N8_substrate&#45;Ub</title>
<path fill="none" stroke="black" d="M159.806,-649.488C138.827,-629.394 112.717,-604.384 91.0891,-583.668"/>
<polygon fill="black" stroke="black" points="93.2847,-580.925 83.6419,-576.535 88.4426,-585.98 93.2847,-580.925"/>
</g>
<!-- UBE2M_NEDD8 -->
<g id="node9" class="node"><title>UBE2M_NEDD8</title>
<ellipse fill="none" stroke="black" cx="474.79" cy="-686.871" rx="25.4118" ry="25.4118"/>
<text text-anchor="middle" x="474.79" y="-685.671" font-family="Times,serif" font-size="4.00">UBE2M_NEDD8</text>
</g>
<!-- UBE2M_NEDD8&#45;&gt;Cul2 ubiquitin ligase_N8_Orf10_substrate -->
<g id="edge21" class="edge"><title>UBE2M_NEDD8&#45;&gt;Cul2 ubiquitin ligase_N8_Orf10_substrate</title>
<path fill="none" stroke="black" d="M483.947,-710.971C490.374,-728.477 498.401,-753.296 501.79,-775.904 508.779,-822.523 503.33,-834.854 501.79,-881.97 493.341,-1140.6 491.386,-1205.67 463.79,-1462.96 462.868,-1471.56 461.716,-1480.62 460.483,-1489.51"/>
<polygon fill="black" stroke="black" points="457.014,-1489.04 459.063,-1499.44 463.944,-1490.03 457.014,-1489.04"/>
</g>
<!-- UBE2M_NEDD8&#45;&gt;UBE2M -->
<g id="edge19" class="edge"><title>UBE2M_NEDD8&#45;&gt;UBE2M</title>
<path fill="none" stroke="black" d="M480.034,-711.964C481.974,-736.782 482.04,-775.374 480.234,-801.14"/>
<polygon fill="black" stroke="black" points="476.728,-801.053 479.345,-811.319 483.702,-801.662 476.728,-801.053"/>
</g>
<!-- Cul2 ubiquitin ligase_substrate -->
<g id="node40" class="node"><title>Cul2 ubiquitin ligase_substrate</title>
<ellipse fill="none" stroke="black" cx="325.79" cy="-959.335" rx="41.2319" ry="41.2319"/>
<text text-anchor="middle" x="325.79" y="-958.135" font-family="Times,serif" font-size="4.00">Cul2 ubiquitin ligase_substrate</text>
</g>
<!-- UBE2M_NEDD8&#45;&gt;Cul2 ubiquitin ligase_substrate -->
<g id="edge20" class="edge"><title>UBE2M_NEDD8&#45;&gt;Cul2 ubiquitin ligase_substrate</title>
<path fill="none" stroke="black" d="M467.783,-711.377C454.132,-756.371 423.665,-852.795 404.79,-881.97 394.212,-898.321 379.506,-913.776 365.648,-926.449"/>
<polygon fill="black" stroke="black" points="363.213,-923.93 358.067,-933.191 367.866,-929.16 363.213,-923.93"/>
</g>
<!-- ELOB_ELOC -->
<g id="node11" class="node"><title>ELOB_ELOC</title>
<ellipse fill="none" stroke="black" cx="326.79" cy="-93.7435" rx="21.9898" ry="21.9898"/>
<text text-anchor="middle" x="326.79" y="-92.5435" font-family="Times,serif" font-size="4.00">ELOB_ELOC</text>
</g>
<!-- ELOB_ELOC&#45;&gt;Zyg11B_EloBC -->
<g id="edge22" class="edge"><title>ELOB_ELOC&#45;&gt;Zyg11B_EloBC</title>
<path fill="none" stroke="black" d="M332.029,-114.919C332.855,-126.671 332.802,-141.776 331.978,-155.211"/>
<polygon fill="black" stroke="black" points="328.461,-155.285 331.153,-165.532 335.438,-155.842 328.461,-155.285"/>
</g>
<!-- ELOB -->
<g id="node38" class="node"><title>ELOB</title>
<ellipse fill="none" stroke="black" cx="299.79" cy="-18" rx="18" ry="18"/>
<text text-anchor="middle" x="299.79" y="-16.8" font-family="Times,serif" font-size="4.00">ELOB</text>
</g>
<!-- ELOB_ELOC&#45;&gt;ELOB -->
<g id="edge23" class="edge"><title>ELOB_ELOC&#45;&gt;ELOB</title>
<path fill="none" stroke="black" d="M314.727,-75.6399C310.548,-66.7979 306.282,-55.8026 303.1,-45.8586"/>
<polygon fill="black" stroke="black" points="306.388,-44.6306 300.228,-36.0108 299.668,-46.5909 306.388,-44.6306"/>
</g>
<!-- ELOC -->
<g id="node42" class="node"><title>ELOC</title>
<ellipse fill="none" stroke="black" cx="353.79" cy="-18" rx="18" ry="18"/>
<text text-anchor="middle" x="353.79" y="-16.8" font-family="Times,serif" font-size="4.00">ELOC</text>
</g>
<!-- ELOB_ELOC&#45;&gt;ELOC -->
<g id="edge24" class="edge"><title>ELOB_ELOC&#45;&gt;ELOC</title>
<path fill="none" stroke="black" d="M328.3,-71.8089C330.946,-62.5806 334.873,-51.7031 338.965,-42.2259"/>
<polygon fill="black" stroke="black" points="342.219,-43.5296 343.243,-32.9844 335.866,-40.589 342.219,-43.5296"/>
</g>
<!-- Cul2 ubiquitin ligase_N8_Orf10_substrate&#45;Ub -->
<g id="node12" class="node"><title>Cul2 ubiquitin ligase_N8_Orf10_substrate&#45;Ub</title>
<ellipse fill="none" stroke="black" cx="483.79" cy="-542.153" rx="55.8699" ry="55.8699"/>
<text text-anchor="middle" x="483.79" y="-540.953" font-family="Times,serif" font-size="4.00">Cul2 ubiquitin ligase_N8_Orf10_substrate&#45;Ub</text>
</g>
<!-- Cul2 ubiquitin ligase_N8_Orf10_substrate&#45;Ub&#45;&gt;ubit_traget -->
<g id="edge25" class="edge"><title>Cul2 ubiquitin ligase_N8_Orf10_substrate&#45;Ub&#45;&gt;ubit_traget</title>
<path fill="none" stroke="black" d="M434.644,-515.729C385.085,-490.091 310.407,-451.459 270.758,-430.948"/>
<polygon fill="black" stroke="black" points="271.959,-427.628 261.469,-426.142 268.742,-433.846 271.959,-427.628"/>
</g>
<!-- Cul2 ubiquitin ligase_N8_Orf10 -->
<g id="node43" class="node"><title>Cul2 ubiquitin ligase_N8_Orf10</title>
<ellipse fill="none" stroke="black" cx="509.79" cy="-304.16" rx="41.2319" ry="41.2319"/>
<text text-anchor="middle" x="509.79" y="-302.96" font-family="Times,serif" font-size="4.00">Cul2 ubiquitin ligase_N8_Orf10</text>
</g>
<!-- Cul2 ubiquitin ligase_N8_Orf10_substrate&#45;Ub&#45;&gt;Cul2 ubiquitin ligase_N8_Orf10 -->
<g id="edge26" class="edge"><title>Cul2 ubiquitin ligase_N8_Orf10_substrate&#45;Ub&#45;&gt;Cul2 ubiquitin ligase_N8_Orf10</title>
<path fill="none" stroke="black" d="M489.788,-486.715C494.152,-447.104 500.017,-393.872 504.267,-355.298"/>
<polygon fill="black" stroke="black" points="507.749,-355.651 505.365,-345.328 500.791,-354.885 507.749,-355.651"/>
</g>
<!-- ATP -->
<g id="node13" class="node"><title>ATP</title>
<ellipse fill="none" stroke="black" cx="703.79" cy="-1247.18" rx="18" ry="18"/>
<text text-anchor="middle" x="703.79" y="-1245.98" font-family="Times,serif" font-size="4.00">ATP</text>
</g>
<!-- ATP&#45;&gt;E1 -->
<g id="edge28" class="edge"><title>ATP&#45;&gt;E1</title>
<path fill="none" stroke="black" d="M695.429,-1231.13C680.837,-1204.86 650.613,-1150.46 633.11,-1118.95"/>
<polygon fill="black" stroke="black" points="636.034,-1117.01 628.118,-1109.97 629.915,-1120.41 636.034,-1117.01"/>
</g>
<!-- ATP&#45;&gt;PPi -->
<g id="edge27" class="edge"><title>ATP&#45;&gt;PPi</title>
<path fill="none" stroke="black" d="M699.633,-1229.51C690.67,-1193.91 668.569,-1107.88 646.79,-1036.7 641.597,-1019.73 635.172,-1000.84 630.009,-986.097"/>
<polygon fill="black" stroke="black" points="633.295,-984.891 626.667,-976.626 626.694,-987.22 633.295,-984.891"/>
</g>
<!-- ATP&#45;&gt;AMP -->
<g id="edge29" class="edge"><title>ATP&#45;&gt;AMP</title>
<path fill="none" stroke="black" d="M708.439,-1229.54C717.709,-1193.64 736.093,-1106.51 717.79,-1036.7 712.614,-1016.96 701.054,-996.934 691.222,-982.347"/>
<polygon fill="black" stroke="black" points="693.997,-980.207 685.397,-974.019 688.26,-984.219 693.997,-980.207"/>
</g>
<!-- Ub -->
<g id="node14" class="node"><title>Ub</title>
<ellipse fill="none" stroke="black" cx="619.79" cy="-1247.18" rx="18" ry="18"/>
<text text-anchor="middle" x="619.79" y="-1245.98" font-family="Times,serif" font-size="4.00">Ub</text>
</g>
<!-- Ub&#45;&gt;E1 -->
<g id="edge31" class="edge"><title>Ub&#45;&gt;E1</title>
<path fill="none" stroke="black" d="M619.79,-1229.13C619.79,-1203.15 619.79,-1153.41 619.79,-1122.34"/>
<polygon fill="black" stroke="black" points="623.29,-1122.2 619.79,-1112.2 616.29,-1122.2 623.29,-1122.2"/>
</g>
<!-- Ub&#45;&gt;PPi -->
<g id="edge30" class="edge"><title>Ub&#45;&gt;PPi</title>
<path fill="none" stroke="black" d="M613.702,-1230.01C607.028,-1211.35 596.742,-1179.59 592.79,-1151.25 585.759,-1100.83 583.89,-1086.83 592.79,-1036.7 595.939,-1018.97 602.902,-999.944 609.096,-985.321"/>
<polygon fill="black" stroke="black" points="612.387,-986.534 613.206,-975.971 605.978,-983.718 612.387,-986.534"/>
</g>
<!-- Ub&#45;&gt;AMP -->
<g id="edge32" class="edge"><title>Ub&#45;&gt;AMP</title>
<path fill="none" stroke="black" d="M625.135,-1229.88C631.126,-1211.1 640.787,-1179.23 646.79,-1151.25 659.2,-1093.42 667.811,-1024.54 671.96,-987.365"/>
<polygon fill="black" stroke="black" points="675.451,-987.646 673.058,-977.325 668.492,-986.885 675.451,-987.646"/>
</g>
<!-- Zyg11B_EloBC&#45;&gt;ZYG11B -->
<g id="edge34" class="edge"><title>Zyg11B_EloBC&#45;&gt;ZYG11B</title>
<path fill="none" stroke="black" d="M308.846,-170.573C298.889,-156.483 286.674,-136.501 278.173,-120.586"/>
<polygon fill="black" stroke="black" points="281.087,-118.597 273.413,-111.291 274.856,-121.788 281.087,-118.597"/>
</g>
<!-- Zyg11B_EloBC&#45;&gt;ELOB_ELOC -->
<g id="edge33" class="edge"><title>Zyg11B_EloBC&#45;&gt;ELOB_ELOC</title>
<path fill="none" stroke="black" d="M319.369,-165.054C318.688,-152.863 318.867,-137.76 319.802,-124.679"/>
<polygon fill="black" stroke="black" points="323.287,-124.994 320.711,-114.717 316.316,-124.357 323.287,-124.994"/>
</g>
<!-- Cul2 ubiquitin ligase -->
<g id="node31" class="node"><title>Cul2 ubiquitin ligase</title>
<ellipse fill="none" stroke="black" cx="381.79" cy="-304.16" rx="30.5202" ry="30.5202"/>
<text text-anchor="middle" x="381.79" y="-302.96" font-family="Times,serif" font-size="4.00">Cul2 ubiquitin ligase</text>
</g>
<!-- Zyg11B_EloBC&#45;&gt;Cul2 ubiquitin ligase -->
<g id="edge35" class="edge"><title>Zyg11B_EloBC&#45;&gt;Cul2 ubiquitin ligase</title>
<path fill="none" stroke="black" d="M339.468,-208.967C348.683,-224.217 360.18,-246.194 369.008,-265.085"/>
<polygon fill="black" stroke="black" points="365.897,-266.7 373.23,-274.348 372.267,-263.797 365.897,-266.7"/>
</g>
<!-- Cul2 ubiquitin ligase_N8 -->
<g id="node16" class="node"><title>Cul2 ubiquitin ligase_N8</title>
<ellipse fill="none" stroke="black" cx="109.79" cy="-415.997" rx="34.4429" ry="34.4429"/>
<text text-anchor="middle" x="109.79" y="-414.797" font-family="Times,serif" font-size="4.00">Cul2 ubiquitin ligase_N8</text>
</g>
<!-- Cul2 ubiquitin ligase_N8&#45;&gt;Cul2 ubiquitin ligase -->
<g id="edge36" class="edge"><title>Cul2 ubiquitin ligase_N8&#45;&gt;Cul2 ubiquitin ligase</title>
<path fill="none" stroke="black" d="M141.525,-402.182C191.921,-381.832 290.054,-342.204 344.003,-320.419"/>
<polygon fill="black" stroke="black" points="345.579,-323.557 353.541,-316.567 342.958,-317.066 345.579,-323.557"/>
</g>
<!-- Cul2 ubiquitin ligase_N8_Orf10_substrate&#45;&gt;Cul2 ubiquitin ligase_N8_Orf10_E2&#45;Ub_substrate -->
<g id="edge37" class="edge"><title>Cul2 ubiquitin ligase_N8_Orf10_substrate&#45;&gt;Cul2 ubiquitin ligase_N8_Orf10_E2&#45;Ub_substrate</title>
<path fill="none" stroke="black" d="M418.194,-1510.07C408.271,-1496.04 397.38,-1479.95 387.399,-1464.61"/>
<polygon fill="black" stroke="black" points="390.323,-1462.68 381.959,-1456.18 384.441,-1466.48 390.323,-1462.68"/>
</g>
<!-- Cul2 ubiquitin ligase_N8_Orf10_0E2_substrate -->
<g id="node28" class="node"><title>Cul2 ubiquitin ligase_N8_Orf10_0E2_substrate</title>
<ellipse fill="none" stroke="black" cx="412.79" cy="-1093.98" rx="57.0522" ry="57.0522"/>
<text text-anchor="middle" x="412.79" y="-1092.78" font-family="Times,serif" font-size="4.00">Cul2 ubiquitin ligase_N8_Orf10_0E2_substrate</text>
</g>
<!-- Cul2 ubiquitin ligase_N8_Orf10_substrate&#45;&gt;Cul2 ubiquitin ligase_N8_Orf10_0E2_substrate -->
<g id="edge38" class="edge"><title>Cul2 ubiquitin ligase_N8_Orf10_substrate&#45;&gt;Cul2 ubiquitin ligase_N8_Orf10_0E2_substrate</title>
<path fill="none" stroke="black" d="M441.394,-1499.73C433.575,-1429.69 424.13,-1298.71 413.79,-1187.25 413.02,-1178.95 412.153,-1170.23 411.333,-1161.61"/>
<polygon fill="black" stroke="black" points="414.81,-1161.19 410.402,-1151.56 407.839,-1161.84 414.81,-1161.19"/>
</g>
<!-- E2&#45;&gt;E1 -->
<g id="edge41" class="edge"><title>E2&#45;&gt;E1</title>
<path fill="none" stroke="black" d="M253.808,-1229.58C255.498,-1216.08 262.479,-1197.63 275.79,-1187.25 344.943,-1133.33 385.551,-1175.62 469.79,-1151.25 514.147,-1138.42 563.829,-1116.8 593.657,-1104.42"/>
<polygon fill="black" stroke="black" points="595.048,-1107.64 602.976,-1100.61 592.395,-1101.16 595.048,-1107.64"/>
</g>
<!-- E2&#45;&gt;Cul2 ubiquitin ligase_N8_Orf10_E2&#45;Ub_substrate -->
<g id="edge40" class="edge"><title>E2&#45;&gt;Cul2 ubiquitin ligase_N8_Orf10_E2&#45;Ub_substrate</title>
<path fill="none" stroke="black" d="M269.839,-1261.19C276.842,-1273.39 284.93,-1291.95 293.79,-1307.11 300.824,-1319.14 309.025,-1331.52 317.096,-1343.2"/>
<polygon fill="black" stroke="black" points="314.34,-1345.36 322.931,-1351.56 320.082,-1341.36 314.34,-1345.36"/>
</g>
<!-- E2&#45;&gt;Cul2 ubiquitin ligase_N8_Orf10_0E2_substrate -->
<g id="edge43" class="edge"><title>E2&#45;&gt;Cul2 ubiquitin ligase_N8_Orf10_0E2_substrate</title>
<path fill="none" stroke="black" d="M255.144,-1229.12C257.753,-1216.43 264.94,-1199.29 275.79,-1187.25 296.869,-1163.87 311.094,-1169.44 336.79,-1151.25 344.075,-1146.1 351.545,-1140.34 358.84,-1134.54"/>
<polygon fill="black" stroke="black" points="361.068,-1137.24 366.67,-1128.25 356.683,-1131.78 361.068,-1137.24"/>
</g>
<!-- Cul2 ubiquitin ligase_N8_E2&#45;Ub_substrate -->
<g id="node30" class="node"><title>Cul2 ubiquitin ligase_N8_E2&#45;Ub_substrate</title>
<ellipse fill="none" stroke="black" cx="235.79" cy="-828.937" rx="53.066" ry="53.066"/>
<text text-anchor="middle" x="235.79" y="-827.737" font-family="Times,serif" font-size="4.00">Cul2 ubiquitin ligase_N8_E2&#45;Ub_substrate</text>
</g>
<!-- E2&#45;&gt;Cul2 ubiquitin ligase_N8_E2&#45;Ub_substrate -->
<g id="edge39" class="edge"><title>E2&#45;&gt;Cul2 ubiquitin ligase_N8_E2&#45;Ub_substrate</title>
<path fill="none" stroke="black" d="M246.487,-1232.93C236.726,-1214.83 225.113,-1181.18 220.79,-1151.25 207.79,-1061.23 213.781,-955.553 222.172,-890.671"/>
<polygon fill="black" stroke="black" points="225.659,-890.997 223.536,-880.617 218.723,-890.056 225.659,-890.997"/>
</g>
<!-- Cul2 ubiquitin ligase_N8_E2_substrate -->
<g id="node44" class="node"><title>Cul2 ubiquitin ligase_N8_E2_substrate</title>
<ellipse fill="none" stroke="black" cx="287.79" cy="-1093.98" rx="49.142" ry="49.142"/>
<text text-anchor="middle" x="287.79" y="-1092.78" font-family="Times,serif" font-size="4.00">Cul2 ubiquitin ligase_N8_E2_substrate</text>
</g>
<!-- E2&#45;&gt;Cul2 ubiquitin ligase_N8_E2_substrate -->
<g id="edge42" class="edge"><title>E2&#45;&gt;Cul2 ubiquitin ligase_N8_E2_substrate</title>
<path fill="none" stroke="black" d="M256.71,-1229.13C258.481,-1210.21 264.041,-1178.7 270.138,-1150.96"/>
<polygon fill="black" stroke="black" points="273.611,-1151.47 272.403,-1140.95 266.784,-1149.93 273.611,-1151.47"/>
</g>
<!-- Orf10 (+)ss sgmRNA -->
<g id="node19" class="node"><title>Orf10 (+)ss sgmRNA</title>
<ellipse fill="none" stroke="black" cx="585.79" cy="-189.141" rx="30.5202" ry="30.5202"/>
<text text-anchor="middle" x="585.79" y="-187.941" font-family="Times,serif" font-size="4.00">Orf10 (+)ss sgmRNA</text>
</g>
<!-- Orf10 -->
<g id="node39" class="node"><title>Orf10</title>
<ellipse fill="none" stroke="black" cx="499.79" cy="-93.7435" rx="18" ry="18"/>
<text text-anchor="middle" x="499.79" y="-92.5435" font-family="Times,serif" font-size="4.00">Orf10</text>
</g>
<!-- Orf10 (+)ss sgmRNA&#45;&gt;Orf10 -->
<g id="edge44" class="edge"><title>Orf10 (+)ss sgmRNA&#45;&gt;Orf10</title>
<path fill="none" stroke="black" d="M565.41,-166.007C551.244,-150.623 532.5,-130.267 518.674,-115.251"/>
<polygon fill="black" stroke="black" points="520.907,-112.509 511.558,-107.523 515.757,-117.251 520.907,-112.509"/>
</g>
<!-- NAE_Pevonedistat&#45;&gt;NAE -->
<g id="edge46" class="edge"><title>NAE_Pevonedistat&#45;&gt;NAE</title>
<path fill="none" stroke="black" d="M954.147,-856.483C944.104,-879.936 927.14,-913.758 914.252,-935.89"/>
<polygon fill="black" stroke="black" points="911.17,-934.222 909.01,-944.595 917.167,-937.834 911.17,-934.222"/>
</g>
<!-- Pevonedistat -->
<g id="node26" class="node"><title>Pevonedistat</title>
<ellipse fill="none" stroke="black" cx="961.79" cy="-686.871" rx="21.9898" ry="21.9898"/>
<text text-anchor="middle" x="961.79" y="-685.671" font-family="Times,serif" font-size="4.00">Pevonedistat</text>
</g>
<!-- NAE_Pevonedistat&#45;&gt;Pevonedistat -->
<g id="edge45" class="edge"><title>NAE_Pevonedistat&#45;&gt;Pevonedistat</title>
<path fill="none" stroke="black" d="M956.356,-801.262C954.69,-777.615 954.606,-743.097 956.106,-718.364"/>
<polygon fill="black" stroke="black" points="959.618,-718.327 956.875,-708.094 952.638,-717.804 959.618,-718.327"/>
</g>
<!-- Rbx1_Cul2&#45;&gt;CUL2 -->
<g id="edge47" class="edge"><title>Rbx1_Cul2&#45;&gt;CUL2</title>
<path fill="none" stroke="black" d="M381.891,-169.688C380.192,-155.866 379.565,-136.756 380.202,-121.293"/>
<polygon fill="black" stroke="black" points="383.696,-121.484 380.847,-111.28 376.711,-121.034 383.696,-121.484"/>
</g>
<!-- Rbx1_Cul2&#45;&gt;Cul2 ubiquitin ligase -->
<g id="edge49" class="edge"><title>Rbx1_Cul2&#45;&gt;Cul2 ubiquitin ligase</title>
<path fill="none" stroke="black" d="M391.969,-208.869C392.678,-223.837 391.965,-245.333 390.326,-264.02"/>
<polygon fill="black" stroke="black" points="386.835,-263.756 389.324,-274.054 393.801,-264.452 386.835,-263.756"/>
</g>
<!-- RBX1 -->
<g id="node35" class="node"><title>RBX1</title>
<ellipse fill="none" stroke="black" cx="439.79" cy="-93.7435" rx="18" ry="18"/>
<text text-anchor="middle" x="439.79" y="-92.5435" font-family="Times,serif" font-size="4.00">RBX1</text>
</g>
<!-- Rbx1_Cul2&#45;&gt;RBX1 -->
<g id="edge48" class="edge"><title>Rbx1_Cul2&#45;&gt;RBX1</title>
<path fill="none" stroke="black" d="M392.765,-169.24C399.823,-153.823 411.872,-132.051 422.174,-116.024"/>
<polygon fill="black" stroke="black" points="425.331,-117.599 427.987,-107.342 419.515,-113.705 425.331,-117.599"/>
</g>
<!-- NEDD8 -->
<g id="node23" class="node"><title>NEDD8</title>
<ellipse fill="none" stroke="black" cx="566.79" cy="-959.335" rx="18" ry="18"/>
<text text-anchor="middle" x="566.79" y="-958.135" font-family="Times,serif" font-size="4.00">NEDD8</text>
</g>
<!-- NEDD8&#45;&gt;NAE_NEDD8 -->
<g id="edge50" class="edge"><title>NEDD8&#45;&gt;NAE_NEDD8</title>
<path fill="none" stroke="black" d="M567.322,-941.285C567.954,-920.991 569.022,-886.687 569.807,-861.506"/>
<polygon fill="black" stroke="black" points="573.31,-861.444 570.124,-851.34 566.314,-861.226 573.31,-861.444"/>
</g>
<!-- CSN5 -->
<g id="node24" class="node"><title>CSN5</title>
<ellipse fill="none" stroke="black" cx="438.79" cy="-415.997" rx="18" ry="18"/>
<text text-anchor="middle" x="438.79" y="-414.797" font-family="Times,serif" font-size="4.00">CSN5</text>
</g>
<!-- CSN5&#45;&gt;Cul2 ubiquitin ligase -->
<g id="edge52" class="edge"><title>CSN5&#45;&gt;Cul2 ubiquitin ligase</title>
<path fill="none" stroke="black" d="M430.865,-399.724C422.995,-384.56 410.644,-360.761 400.302,-340.832"/>
<polygon fill="black" stroke="black" points="403.279,-338.968 395.566,-331.704 397.065,-342.193 403.279,-338.968"/>
</g>
<!-- CSN5&#45;&gt;Cul2 ubiquitin ligase_Orf10 -->
<g id="edge51" class="edge"><title>CSN5&#45;&gt;Cul2 ubiquitin ligase_Orf10</title>
<path fill="none" stroke="black" d="M439.139,-397.644C440.165,-368.895 444.174,-309.887 459.79,-262.794 463.471,-251.695 468.842,-240.326 474.46,-229.976"/>
<polygon fill="black" stroke="black" points="477.56,-231.604 479.424,-221.175 471.463,-228.165 477.56,-231.604"/>
</g>
<!-- UBE2M&#45;&gt;UBE2M_NEDD8 -->
<g id="edge53" class="edge"><title>UBE2M&#45;&gt;UBE2M_NEDD8</title>
<path fill="none" stroke="black" d="M470.236,-811.319C467.863,-789.472 467.413,-750.551 468.888,-722.238"/>
<polygon fill="black" stroke="black" points="472.4,-722.167 469.547,-711.964 465.414,-721.719 472.4,-722.167"/>
</g>
<!-- Pevonedistat&#45;&gt;NAE_Pevonedistat -->
<g id="edge54" class="edge"><title>Pevonedistat&#45;&gt;NAE_Pevonedistat</title>
<path fill="none" stroke="black" d="M966.705,-708.094C968.7,-729.766 969.068,-764.628 967.812,-791.178"/>
<polygon fill="black" stroke="black" points="964.312,-791.075 967.225,-801.262 971.3,-791.482 964.312,-791.075"/>
</g>
<!-- ubit_traget&#45;&gt;Cul2 ubiquitin ligase_Orf10_substrate -->
<g id="edge56" class="edge"><title>ubit_traget&#45;&gt;Cul2 ubiquitin ligase_Orf10_substrate</title>
<path fill="none" stroke="black" d="M237.217,-435.288C218.593,-471.587 169.111,-555.956 144.79,-633.838 118.81,-717.035 116.79,-740.777 116.79,-827.937 116.79,-1404.03 116.79,-1404.03 116.79,-1404.03 116.79,-1562.38 331.296,-1641.53 436.337,-1671.49"/>
<polygon fill="black" stroke="black" points="435.577,-1674.91 446.15,-1674.24 437.464,-1668.17 435.577,-1674.91"/>
</g>
<!-- ubit_traget&#45;&gt;Cul2 ubiquitin ligase_substrate -->
<g id="edge55" class="edge"><title>ubit_traget&#45;&gt;Cul2 ubiquitin ligase_substrate</title>
<path fill="none" stroke="black" d="M257.349,-431.021C265.734,-444.813 274.864,-466.626 279.79,-486.468 317.126,-636.845 329.283,-820.628 329.554,-907.806"/>
<polygon fill="black" stroke="black" points="326.053,-907.941 329.528,-917.949 333.053,-907.958 326.053,-907.941"/>
</g>
<!-- Cul2 ubiquitin ligase_N8_Orf10_0E2_substrate&#45;&gt;Cul2 ubiquitin ligase_N8_Orf10_substrate -->
<g id="edge58" class="edge"><title>Cul2 ubiquitin ligase_N8_Orf10_0E2_substrate&#45;&gt;Cul2 ubiquitin ligase_N8_Orf10_substrate</title>
<path fill="none" stroke="black" d="M427.756,-1149.6C429.318,-1161.97 430.659,-1175.06 431.79,-1187.25 441.604,-1293.04 450.611,-1416.41 453.08,-1488.57"/>
<polygon fill="black" stroke="black" points="449.59,-1488.95 453.396,-1498.84 456.586,-1488.74 449.59,-1488.95"/>
</g>
<!-- Cul2 ubiquitin ligase_N8_Orf10_0E2_substrate&#45;&gt;E2 -->
<g id="edge57" class="edge"><title>Cul2 ubiquitin ligase_N8_Orf10_0E2_substrate&#45;&gt;E2</title>
<path fill="none" stroke="black" d="M374.168,-1136.54C367.831,-1141.66 361.238,-1146.69 354.79,-1151.25 329.094,-1169.44 314.869,-1163.87 293.79,-1187.25 284.607,-1197.44 278.048,-1211.28 272.725,-1222.99"/>
<polygon fill="black" stroke="black" points="269.491,-1221.65 268.514,-1232.2 275.856,-1224.56 269.491,-1221.65"/>
</g>
<!-- NAE_NEDD8&#45;&gt;UBE2M_NEDD8 -->
<g id="edge59" class="edge"><title>NAE_NEDD8&#45;&gt;UBE2M_NEDD8</title>
<path fill="none" stroke="black" d="M558.632,-810.197C542.516,-786.683 513.875,-744.896 494.61,-716.788"/>
<polygon fill="black" stroke="black" points="497.253,-714.453 488.713,-708.184 491.479,-718.411 497.253,-714.453"/>
</g>
<!-- Cul2 ubiquitin ligase_N8_E2&#45;Ub_substrate&#45;&gt;Cul2 ubiquitin ligase_N8_E2_substrate&#45;Ub -->
<g id="edge62" class="edge"><title>Cul2 ubiquitin ligase_N8_E2&#45;Ub_substrate&#45;&gt;Cul2 ubiquitin ligase_N8_E2_substrate&#45;Ub</title>
<path fill="none" stroke="black" d="M222.071,-777.37C219.489,-767.849 216.764,-757.807 214.111,-748.027"/>
<polygon fill="black" stroke="black" points="217.485,-747.098 211.489,-738.363 210.73,-748.931 217.485,-747.098"/>
</g>
<!-- Cul2 ubiquitin ligase_N8_E2&#45;Ub_substrate&#45;&gt;E2 -->
<g id="edge60" class="edge"><title>Cul2 ubiquitin ligase_N8_E2&#45;Ub_substrate&#45;&gt;E2</title>
<path fill="none" stroke="black" d="M236.021,-882.013C232.37,-945.834 225.194,-1057.1 238.79,-1151.25 242.173,-1174.68 250.021,-1200.37 255.148,-1219.12"/>
<polygon fill="black" stroke="black" points="251.821,-1220.23 257.735,-1229.02 258.593,-1218.46 251.821,-1220.23"/>
</g>
<!-- Cul2 ubiquitin ligase_N8_E2&#45;Ub_substrate&#45;&gt;Cul2 ubiquitin ligase_substrate -->
<g id="edge61" class="edge"><title>Cul2 ubiquitin ligase_N8_E2&#45;Ub_substrate&#45;&gt;Cul2 ubiquitin ligase_substrate</title>
<path fill="none" stroke="black" d="M270.053,-869.829C280.311,-883.696 291.331,-899.339 300.883,-913.575"/>
<polygon fill="black" stroke="black" points="298.177,-915.827 306.62,-922.228 304.011,-911.959 298.177,-915.827"/>
</g>
<!-- Cul2 ubiquitin ligase&#45;&gt;Zyg11B_EloBC -->
<g id="edge65" class="edge"><title>Cul2 ubiquitin ligase&#45;&gt;Zyg11B_EloBC</title>
<path fill="none" stroke="black" d="M363.905,-278.914C354.37,-262.496 343.16,-240.614 335.024,-222.684"/>
<polygon fill="black" stroke="black" points="338.079,-220.935 330.851,-213.188 331.671,-223.751 338.079,-220.935"/>
</g>
<!-- Cul2 ubiquitin ligase&#45;&gt;Rbx1_Cul2 -->
<g id="edge64" class="edge"><title>Cul2 ubiquitin ligase&#45;&gt;Rbx1_Cul2</title>
<path fill="none" stroke="black" d="M377.344,-273.465C377.251,-256.619 378.383,-235.634 380.292,-218.938"/>
<polygon fill="black" stroke="black" points="383.808,-219.046 381.653,-208.673 376.869,-218.126 383.808,-219.046"/>
</g>
<!-- Cul2 ubiquitin ligase&#45;&gt;Cul2 ubiquitin ligase_Orf10 -->
<g id="edge66" class="edge"><title>Cul2 ubiquitin ligase&#45;&gt;Cul2 ubiquitin ligase_Orf10</title>
<path fill="none" stroke="black" d="M400.647,-279.742C417.347,-262.428 441.958,-238.714 462.547,-220.032"/>
<polygon fill="black" stroke="black" points="465.117,-222.428 470.217,-213.141 460.439,-217.221 465.117,-222.428"/>
</g>
<!-- Cul2 ubiquitin ligase&#45;&gt;Cul2 ubiquitin ligase_substrate -->
<g id="edge63" class="edge"><title>Cul2 ubiquitin ligase&#45;&gt;Cul2 ubiquitin ligase_substrate</title>
<path fill="none" stroke="black" d="M387.583,-334.593C390.79,-379.248 390.79,-466.791 390.79,-541.153 390.79,-687.871 390.79,-687.871 390.79,-687.871 390.79,-768.223 366.796,-859.267 347.696,-912.578"/>
<polygon fill="black" stroke="black" points="344.367,-911.488 344.193,-922.082 350.935,-913.909 344.367,-911.488"/>
</g>
<!-- Cul2 ubiquitin ligase_Orf10&#45;&gt;Cul2 ubiquitin ligase_Orf10_substrate -->
<g id="edge69" class="edge"><title>Cul2 ubiquitin ligase_Orf10&#45;&gt;Cul2 ubiquitin ligase_Orf10_substrate</title>
<path fill="none" stroke="black" d="M531.974,-209.038C539.559,-214.763 547.483,-221.053 554.79,-226.794 662.211,-311.183 797.79,-278.393 797.79,-414.997 797.79,-1404.03 797.79,-1404.03 797.79,-1404.03 797.79,-1421.46 623.626,-1578.16 538.427,-1650.21"/>
<polygon fill="black" stroke="black" points="536.11,-1647.59 530.715,-1656.71 540.619,-1652.94 536.11,-1647.59"/>
</g>
<!-- Cul2 ubiquitin ligase_Orf10&#45;&gt;Cul2 ubiquitin ligase -->
<g id="edge67" class="edge"><title>Cul2 ubiquitin ligase_Orf10&#45;&gt;Cul2 ubiquitin ligase</title>
<path fill="none" stroke="black" d="M475.789,-218.84C457.741,-237.209 433.022,-260.8 413.387,-278.356"/>
<polygon fill="black" stroke="black" points="411.041,-275.758 405.864,-285.001 415.676,-281.004 411.041,-275.758"/>
</g>
<!-- Cul2 ubiquitin ligase_Orf10&#45;&gt;Orf10 -->
<g id="edge68" class="edge"><title>Cul2 ubiquitin ligase_Orf10&#45;&gt;Orf10</title>
<path fill="none" stroke="black" d="M493.197,-152.031C492.888,-141.737 493.037,-130.719 493.644,-121.123"/>
<polygon fill="black" stroke="black" points="497.144,-121.273 494.524,-111.007 490.17,-120.666 497.144,-121.273"/>
</g>
<!-- UBA3&#45;&gt;NAE -->
<g id="edge70" class="edge"><title>UBA3&#45;&gt;NAE</title>
<path fill="none" stroke="black" d="M854.063,-843.903C865.572,-864.923 882.852,-905.066 892.21,-931.775"/>
<polygon fill="black" stroke="black" points="888.897,-932.905 895.38,-941.285 895.538,-930.691 888.897,-932.905"/>
</g>
<!-- 26S&#45;proteasom -->
<g id="node34" class="node"><title>26S&#45;proteasom</title>
<ellipse fill="none" stroke="black" cx="582.79" cy="-1687.17" rx="23.7305" ry="23.7305"/>
<text text-anchor="middle" x="582.79" y="-1685.97" font-family="Times,serif" font-size="4.00">26S&#45;proteasom</text>
</g>
<!-- RBX1&#45;&gt;Rbx1_Cul2 -->
<g id="edge71" class="edge"><title>RBX1&#45;&gt;Rbx1_Cul2</title>
<path fill="none" stroke="black" d="M435.81,-111.441C429.191,-126.35 417.153,-148.334 406.627,-164.949"/>
<polygon fill="black" stroke="black" points="403.543,-163.268 400.978,-173.547 409.394,-167.111 403.543,-163.268"/>
</g>
<!-- NAE1&#45;&gt;NAE -->
<g id="edge72" class="edge"><title>NAE1&#45;&gt;NAE</title>
<path fill="none" stroke="black" d="M902.486,-846.396C904.881,-867.936 905.182,-905.958 903.389,-931.644"/>
<polygon fill="black" stroke="black" points="899.885,-931.544 902.493,-941.812 906.857,-932.158 899.885,-931.544"/>
</g>
<!-- DUB -->
<g id="node37" class="node"><title>DUB</title>
<ellipse fill="none" stroke="black" cx="243.79" cy="-542.153" rx="18" ry="18"/>
<text text-anchor="middle" x="243.79" y="-540.953" font-family="Times,serif" font-size="4.00">DUB</text>
</g>
<!-- DUB&#45;&gt;ubit_traget -->
<g id="edge73" class="edge"><title>DUB&#45;&gt;ubit_traget</title>
<path fill="none" stroke="black" d="M243.79,-524.15C243.79,-504.133 243.79,-470.551 243.79,-446.311"/>
<polygon fill="black" stroke="black" points="247.29,-446.238 243.79,-436.238 240.29,-446.238 247.29,-446.238"/>
</g>
<!-- ELOB&#45;&gt;ELOB_ELOC -->
<g id="edge74" class="edge"><title>ELOB&#45;&gt;ELOB_ELOC</title>
<path fill="none" stroke="black" d="M310.337,-32.9844C314.453,-41.2064 318.796,-51.9401 322.214,-62.0386"/>
<polygon fill="black" stroke="black" points="318.946,-63.3161 325.281,-71.8089 325.625,-61.2196 318.946,-63.3161"/>
</g>
<!-- Orf10&#45;&gt;Cul2 ubiquitin ligase_Orf10 -->
<g id="edge75" class="edge"><title>Orf10&#45;&gt;Cul2 ubiquitin ligase_Orf10</title>
<path fill="none" stroke="black" d="M505.057,-111.007C506.06,-119.671 506.555,-130.811 506.54,-141.915"/>
<polygon fill="black" stroke="black" points="503.039,-141.978 506.384,-152.031 510.038,-142.086 503.039,-141.978"/>
</g>
<!-- Cul2 ubiquitin ligase_substrate&#45;&gt;UBE2M -->
<g id="edge77" class="edge"><title>Cul2 ubiquitin ligase_substrate&#45;&gt;UBE2M</title>
<path fill="none" stroke="black" d="M362.566,-939.906C387.267,-926.273 419.441,-905.955 442.79,-881.97 450.558,-873.991 457.337,-863.803 462.631,-854.562"/>
<polygon fill="black" stroke="black" points="465.719,-856.211 467.413,-845.752 459.566,-852.871 465.719,-856.211"/>
</g>
<!-- Cul2 ubiquitin ligase_substrate&#45;&gt;ubit_traget -->
<g id="edge80" class="edge"><title>Cul2 ubiquitin ligase_substrate&#45;&gt;ubit_traget</title>
<path fill="none" stroke="black" d="M319.573,-918.265C312.26,-836.117 300.693,-643.158 261.79,-486.468 258.404,-472.83 253.033,-458.262 248.656,-446.007"/>
<polygon fill="black" stroke="black" points="251.878,-444.616 245.279,-436.327 245.269,-446.922 251.878,-444.616"/>
</g>
<!-- Cul2 ubiquitin ligase_substrate&#45;&gt;Cul2 ubiquitin ligase_N8_E2&#45;Ub_substrate -->
<g id="edge76" class="edge"><title>Cul2 ubiquitin ligase_substrate&#45;&gt;Cul2 ubiquitin ligase_N8_E2&#45;Ub_substrate</title>
<path fill="none" stroke="black" d="M298.622,-927.907C288.722,-914.888 277.501,-899.28 267.277,-884.388"/>
<polygon fill="black" stroke="black" points="269.907,-882.03 261.39,-875.728 264.118,-885.966 269.907,-882.03"/>
</g>
<!-- Cul2 ubiquitin ligase_substrate&#45;&gt;Cul2 ubiquitin ligase -->
<g id="edge79" class="edge"><title>Cul2 ubiquitin ligase_substrate&#45;&gt;Cul2 ubiquitin ligase</title>
<path fill="none" stroke="black" d="M333.172,-918.545C346.92,-866.27 372.79,-771.306 372.79,-687.871 372.79,-687.871 372.79,-687.871 372.79,-541.153 372.79,-472.019 372.79,-391.493 375.368,-344.629"/>
<polygon fill="black" stroke="black" points="378.864,-344.792 375.998,-334.593 371.878,-344.354 378.864,-344.792"/>
</g>
<!-- Cul2 ubiquitin ligase_substrate&#45;&gt;Cul2 ubiquitin ligase_N8_E2_substrate -->
<g id="edge78" class="edge"><title>Cul2 ubiquitin ligase_substrate&#45;&gt;Cul2 ubiquitin ligase_N8_E2_substrate</title>
<path fill="none" stroke="black" d="M320.54,-1000.52C317.561,-1012.57 313.843,-1026 309.958,-1038.8"/>
<polygon fill="black" stroke="black" points="306.589,-1037.85 306.965,-1048.44 313.274,-1039.93 306.589,-1037.85"/>
</g>
<!-- Cul2 ubiquitin ligase_N8_substrate&#45;Ub&#45;&gt;Cul2 ubiquitin ligase_N8 -->
<g id="edge82" class="edge"><title>Cul2 ubiquitin ligase_N8_substrate&#45;Ub&#45;&gt;Cul2 ubiquitin ligase_N8</title>
<path fill="none" stroke="black" d="M69.954,-498.078C76.5442,-484.664 83.778,-469.941 90.2518,-456.765"/>
<polygon fill="black" stroke="black" points="93.5429,-458.003 94.8113,-447.484 87.2603,-454.916 93.5429,-458.003"/>
</g>
<!-- Cul2 ubiquitin ligase_N8_substrate&#45;Ub&#45;&gt;ubit_traget -->
<g id="edge81" class="edge"><title>Cul2 ubiquitin ligase_N8_substrate&#45;Ub&#45;&gt;ubit_traget</title>
<path fill="none" stroke="black" d="M83.9487,-508.138C92.7296,-500.605 102.345,-492.926 111.79,-486.468 145.872,-463.169 188.696,-441.947 216.157,-429.251"/>
<polygon fill="black" stroke="black" points="217.89,-432.307 225.534,-424.971 214.984,-425.939 217.89,-432.307"/>
</g>
<!-- ELOC&#45;&gt;ELOB_ELOC -->
<g id="edge83" class="edge"><title>ELOC&#45;&gt;ELOB_ELOC</title>
<path fill="none" stroke="black" d="M353.353,-36.0108C351.02,-45.0236 347.13,-56.2929 342.932,-66.4076"/>
<polygon fill="black" stroke="black" points="339.693,-65.0784 338.853,-75.6399 346.096,-67.907 339.693,-65.0784"/>
</g>
<!-- Cul2 ubiquitin ligase_N8_Orf10&#45;&gt;Cul2 ubiquitin ligase_Orf10 -->
<g id="edge84" class="edge"><title>Cul2 ubiquitin ligase_N8_Orf10&#45;&gt;Cul2 ubiquitin ligase_Orf10</title>
<path fill="none" stroke="black" d="M506.208,-262.676C505.475,-254.391 504.698,-245.604 503.947,-237.113"/>
<polygon fill="black" stroke="black" points="507.416,-236.609 503.048,-226.957 500.443,-237.226 507.416,-236.609"/>
</g>
<!-- Cul2 ubiquitin ligase_N8_E2_substrate&#45;&gt;E2 -->
<g id="edge85" class="edge"><title>Cul2 ubiquitin ligase_N8_E2_substrate&#45;&gt;E2</title>
<path fill="none" stroke="black" d="M284.558,-1143.23C280.252,-1168.98 273.791,-1199.63 268.037,-1220.75"/>
<polygon fill="black" stroke="black" points="264.613,-1219.99 265.195,-1230.57 271.337,-1221.94 264.613,-1219.99"/>
</g>
<!-- Cul2 ubiquitin ligase_N8_E2_substrate&#45;&gt;Cul2 ubiquitin ligase_substrate -->
<g id="edge86" class="edge"><title>Cul2 ubiquitin ligase_N8_E2_substrate&#45;&gt;Cul2 ubiquitin ligase_substrate</title>
<path fill="none" stroke="black" d="M294.997,-1045.09C298.225,-1032.68 302.061,-1019.33 305.949,-1006.98"/>
<polygon fill="black" stroke="black" points="309.323,-1007.92 309.067,-997.328 302.662,-1005.77 309.323,-1007.92"/>
</g>
</g>
</svg>
