<?xml version="1.0" encoding="UTF-8" standalone="no"?>
<!DOCTYPE svg PUBLIC "-//W3C//DTD SVG 1.1//EN"
 "http://www.w3.org/Graphics/SVG/1.1/DTD/svg11.dtd">
<!-- Generated by graphviz version 2.38.0 (20140413.2041)
 -->
<!-- Title: G Pages: 1 -->
<svg width="987pt" height="1767pt"
 viewBox="0.00 0.00 987.00 1766.57" xmlns="http://www.w3.org/2000/svg" xmlns:xlink="http://www.w3.org/1999/xlink">
<g id="graph0" class="graph" transform="scale(1 1) rotate(0) translate(4 1762.57)">
<title>G</title>
<polygon fill="white" stroke="none" points="-4,4 -4,-1762.57 983,-1762.57 983,4 -4,4"/>
<!-- Cul2 -->
<g id="node1" class="node"><title>Cul2</title>
<ellipse fill="none" stroke="black" cx="96" cy="-1734.71" rx="18" ry="18"/>
<text text-anchor="middle" x="96" y="-1733.51" font-family="Times,serif" font-size="4.00">Cul2</text>
</g>
<!-- Rbx1_Cul2 -->
<g id="node9" class="node"><title>Rbx1_Cul2</title>
<ellipse fill="none" stroke="black" cx="96" cy="-1654.69" rx="20.3063" ry="20.3063"/>
<text text-anchor="middle" x="96" y="-1653.49" font-family="Times,serif" font-size="4.00">Rbx1_Cul2</text>
</g>
<!-- Cul2&#45;&gt;Rbx1_Cul2 -->
<g id="edge1" class="edge"><title>Cul2&#45;&gt;Rbx1_Cul2</title>
<path fill="none" stroke="black" d="M90.4073,-1717.54C89.2997,-1707.94 88.9872,-1695.48 89.4695,-1684.26"/>
<polygon fill="black" stroke="black" points="92.9793,-1684.24 90.1756,-1674.02 85.9959,-1683.76 92.9793,-1684.24"/>
</g>
<!-- Zyg11B -->
<g id="node2" class="node"><title>Zyg11B</title>
<ellipse fill="none" stroke="black" cx="18" cy="-1354.18" rx="18" ry="18"/>
<text text-anchor="middle" x="18" y="-1352.98" font-family="Times,serif" font-size="4.00">Zyg11B</text>
</g>
<!-- Zyg11B_EloBC -->
<g id="node30" class="node"><title>Zyg11B_EloBC</title>
<ellipse fill="none" stroke="black" cx="69" cy="-1459.65" rx="24.2908" ry="24.2908"/>
<text text-anchor="middle" x="69" y="-1458.45" font-family="Times,serif" font-size="4.00">Zyg11B_EloBC</text>
</g>
<!-- Zyg11B&#45;&gt;Zyg11B_EloBC -->
<g id="edge2" class="edge"><title>Zyg11B&#45;&gt;Zyg11B_EloBC</title>
<path fill="none" stroke="black" d="M29.3215,-1368.59C38.4673,-1383.11 50.6841,-1406.82 59.347,-1426.26"/>
<polygon fill="black" stroke="black" points="56.2351,-1427.89 63.4015,-1435.69 62.6655,-1425.12 56.2351,-1427.89"/>
</g>
<!-- DUB -->
<g id="node3" class="node"><title>DUB</title>
<ellipse fill="none" stroke="black" cx="446" cy="-476.455" rx="18" ry="18"/>
<text text-anchor="middle" x="446" y="-475.255" font-family="Times,serif" font-size="4.00">DUB</text>
</g>
<!-- substrate -->
<g id="node24" class="node"><title>substrate</title>
<ellipse fill="none" stroke="black" cx="456" cy="-350.298" rx="18.6233" ry="18.6233"/>
<text text-anchor="middle" x="456" y="-349.098" font-family="Times,serif" font-size="4.00">substrate</text>
</g>
<!-- DUB&#45;&gt;substrate -->
<g id="edge3" class="edge"><title>DUB&#45;&gt;substrate</title>
<path fill="none" stroke="black" d="M447.369,-458.451C449.019,-437.972 451.812,-403.292 453.773,-378.946"/>
<polygon fill="black" stroke="black" points="457.268,-379.145 454.583,-368.896 450.291,-378.583 457.268,-379.145"/>
</g>
<!-- Cul2 ubiquitin ligase_Orf10_substrate -->
<g id="node4" class="node"><title>Cul2 ubiquitin ligase_Orf10_substrate</title>
<ellipse fill="none" stroke="black" cx="456" cy="-231.567" rx="48.0213" ry="48.0213"/>
<text text-anchor="middle" x="456" y="-230.367" font-family="Times,serif" font-size="4.00">Cul2 ubiquitin ligase_Orf10_substrate</text>
</g>
<!-- Cul2 ubiquitin ligase_N8_Orf10_substrate -->
<g id="node5" class="node"><title>Cul2 ubiquitin ligase_N8_Orf10_substrate</title>
<ellipse fill="none" stroke="black" cx="490" cy="-1154.37" rx="51.9447" ry="51.9447"/>
<text text-anchor="middle" x="490" y="-1153.17" font-family="Times,serif" font-size="4.00">Cul2 ubiquitin ligase_N8_Orf10_substrate</text>
</g>
<!-- Cul2 ubiquitin ligase_Orf10_substrate&#45;&gt;Cul2 ubiquitin ligase_N8_Orf10_substrate -->
<g id="edge4" class="edge"><title>Cul2 ubiquitin ligase_Orf10_substrate&#45;&gt;Cul2 ubiquitin ligase_N8_Orf10_substrate</title>
<path fill="none" stroke="black" d="M409.099,-243.574C368.856,-255.253 311.84,-277.454 276,-315.827 224.159,-371.332 215,-399.505 215,-475.455 215,-629.066 215,-629.066 215,-629.066 215,-724.898 197.598,-755.2 234,-843.848 280.232,-956.438 382.418,-1059.38 442.773,-1113.49"/>
<polygon fill="black" stroke="black" points="440.48,-1116.14 450.279,-1120.17 445.13,-1110.91 440.48,-1116.14"/>
</g>
<!-- Ubc12 -->
<g id="node11" class="node"><title>Ubc12</title>
<ellipse fill="none" stroke="black" cx="490" cy="-1354.18" rx="18" ry="18"/>
<text text-anchor="middle" x="490" y="-1352.98" font-family="Times,serif" font-size="4.00">Ubc12</text>
</g>
<!-- Cul2 ubiquitin ligase_Orf10_substrate&#45;&gt;Ubc12 -->
<g id="edge5" class="edge"><title>Cul2 ubiquitin ligase_Orf10_substrate&#45;&gt;Ubc12</title>
<path fill="none" stroke="black" d="M493.919,-261.696C547.601,-303.87 641.231,-381.203 659,-420.77 745.703,-613.831 669,-685.211 669,-896.848 669,-1155.37 669,-1155.37 669,-1155.37 669,-1246.12 564.14,-1313.83 514.936,-1340.61"/>
<polygon fill="black" stroke="black" points="513.077,-1337.64 505.885,-1345.42 516.359,-1343.82 513.077,-1337.64"/>
</g>
<!-- Cul2 ubiquitin ligase_Orf10 -->
<g id="node12" class="node"><title>Cul2 ubiquitin ligase_Orf10</title>
<ellipse fill="none" stroke="black" cx="456" cy="-109.653" rx="37.8075" ry="37.8075"/>
<text text-anchor="middle" x="456" y="-108.453" font-family="Times,serif" font-size="4.00">Cul2 ubiquitin ligase_Orf10</text>
</g>
<!-- Cul2 ubiquitin ligase_Orf10_substrate&#45;&gt;Cul2 ubiquitin ligase_Orf10 -->
<g id="edge7" class="edge"><title>Cul2 ubiquitin ligase_Orf10_substrate&#45;&gt;Cul2 ubiquitin ligase_Orf10</title>
<path fill="none" stroke="black" d="M449.391,-183.518C449.197,-174.746 449.203,-165.588 449.411,-156.842"/>
<polygon fill="black" stroke="black" points="452.91,-156.925 449.747,-146.813 445.914,-156.69 452.91,-156.925"/>
</g>
<!-- Cul2 ubiquitin ligase_Orf10_substrate&#45;&gt;substrate -->
<g id="edge6" class="edge"><title>Cul2 ubiquitin ligase_Orf10_substrate&#45;&gt;substrate</title>
<path fill="none" stroke="black" d="M462.631,-279.387C462.931,-293.762 462.664,-309.11 461.832,-321.753"/>
<polygon fill="black" stroke="black" points="458.314,-321.814 460.955,-332.074 465.289,-322.406 458.314,-321.814"/>
</g>
<!-- Cul2 ubiquitin ligase_N8_Orf10_0E2_substrate -->
<g id="node26" class="node"><title>Cul2 ubiquitin ligase_N8_Orf10_0E2_substrate</title>
<ellipse fill="none" stroke="black" cx="490" cy="-1009.12" rx="57.0522" ry="57.0522"/>
<text text-anchor="middle" x="490" y="-1007.92" font-family="Times,serif" font-size="4.00">Cul2 ubiquitin ligase_N8_Orf10_0E2_substrate</text>
</g>
<!-- Cul2 ubiquitin ligase_N8_Orf10_substrate&#45;&gt;Cul2 ubiquitin ligase_N8_Orf10_0E2_substrate -->
<g id="edge8" class="edge"><title>Cul2 ubiquitin ligase_N8_Orf10_substrate&#45;&gt;Cul2 ubiquitin ligase_N8_Orf10_0E2_substrate</title>
<path fill="none" stroke="black" d="M483.507,-1102.46C483.292,-1094.03 483.212,-1085.17 483.267,-1076.42"/>
<polygon fill="black" stroke="black" points="486.769,-1076.27 483.393,-1066.22 479.769,-1076.18 486.769,-1076.27"/>
</g>
<!-- Cul2 ubiquitin ligase_N8_Orf10_E2&#45;Ub_substrate -->
<g id="node34" class="node"><title>Cul2 ubiquitin ligase_N8_Orf10_E2&#45;Ub_substrate</title>
<ellipse fill="none" stroke="black" cx="581" cy="-783.921" rx="59.8547" ry="59.8547"/>
<text text-anchor="middle" x="581" y="-782.721" font-family="Times,serif" font-size="4.00">Cul2 ubiquitin ligase_N8_Orf10_E2&#45;Ub_substrate</text>
</g>
<!-- Cul2 ubiquitin ligase_N8_Orf10_substrate&#45;&gt;Cul2 ubiquitin ligase_N8_Orf10_E2&#45;Ub_substrate -->
<g id="edge9" class="edge"><title>Cul2 ubiquitin ligase_N8_Orf10_substrate&#45;&gt;Cul2 ubiquitin ligase_N8_Orf10_E2&#45;Ub_substrate</title>
<path fill="none" stroke="black" d="M520.231,-1112.05C530.42,-1098.47 540.712,-1082.67 547,-1066.4 573.574,-997.654 577.568,-912.659 578.151,-854.16"/>
<polygon fill="black" stroke="black" points="581.653,-853.943 578.224,-843.919 574.653,-853.894 581.653,-853.943"/>
</g>
<!-- NAE_NEDD8 -->
<g id="node6" class="node"><title>NAE_NEDD8</title>
<ellipse fill="none" stroke="black" cx="775" cy="-1354.18" rx="22.05" ry="22.05"/>
<text text-anchor="middle" x="775" y="-1352.98" font-family="Times,serif" font-size="4.00">NAE_NEDD8</text>
</g>
<!-- Ubc12_NEDD8 -->
<g id="node22" class="node"><title>Ubc12_NEDD8</title>
<ellipse fill="none" stroke="black" cx="490" cy="-1266.21" rx="23.7305" ry="23.7305"/>
<text text-anchor="middle" x="490" y="-1265.01" font-family="Times,serif" font-size="4.00">Ubc12_NEDD8</text>
</g>
<!-- NAE_NEDD8&#45;&gt;Ubc12_NEDD8 -->
<g id="edge10" class="edge"><title>NAE_NEDD8&#45;&gt;Ubc12_NEDD8</title>
<path fill="none" stroke="black" d="M753.579,-1346.72C704.12,-1331.8 581.705,-1294.87 522.756,-1277.09"/>
<polygon fill="black" stroke="black" points="523.439,-1273.64 512.854,-1274.1 521.417,-1280.34 523.439,-1273.64"/>
</g>
<!-- Cul2 ubiquitin ligase_substrate -->
<g id="node7" class="node"><title>Cul2 ubiquitin ligase_substrate</title>
<ellipse fill="none" stroke="black" cx="358" cy="-1459.65" rx="41.2319" ry="41.2319"/>
<text text-anchor="middle" x="358" y="-1458.45" font-family="Times,serif" font-size="4.00">Cul2 ubiquitin ligase_substrate</text>
</g>
<!-- Cul2 ubiquitin ligase_substrate&#45;&gt;Ubc12 -->
<g id="edge12" class="edge"><title>Cul2 ubiquitin ligase_substrate&#45;&gt;Ubc12</title>
<path fill="none" stroke="black" d="M390.291,-1433.34C414.441,-1414.41 446.821,-1389.03 468.037,-1372.4"/>
<polygon fill="black" stroke="black" points="470.408,-1374.99 476.119,-1366.06 466.09,-1369.48 470.408,-1374.99"/>
</g>
<!-- Cul2 ubiquitin ligase_N8_E2&#45;Ub_substrate -->
<g id="node13" class="node"><title>Cul2 ubiquitin ligase_N8_E2&#45;Ub_substrate</title>
<ellipse fill="none" stroke="black" cx="412" cy="-783.921" rx="53.066" ry="53.066"/>
<text text-anchor="middle" x="412" y="-782.721" font-family="Times,serif" font-size="4.00">Cul2 ubiquitin ligase_N8_E2&#45;Ub_substrate</text>
</g>
<!-- Cul2 ubiquitin ligase_substrate&#45;&gt;Cul2 ubiquitin ligase_N8_E2&#45;Ub_substrate -->
<g id="edge15" class="edge"><title>Cul2 ubiquitin ligase_substrate&#45;&gt;Cul2 ubiquitin ligase_N8_E2&#45;Ub_substrate</title>
<path fill="none" stroke="black" d="M351.096,-1418.69C349,-1379.96 349,-1319.56 349,-1267.21 349,-1267.21 349,-1267.21 349,-1153.37 349,-1043.15 372.948,-916.334 391.606,-843.902"/>
<polygon fill="black" stroke="black" points="395.038,-844.612 394.2,-834.05 388.269,-842.829 395.038,-844.612"/>
</g>
<!-- Cul2 ubiquitin ligase_substrate&#45;&gt;substrate -->
<g id="edge14" class="edge"><title>Cul2 ubiquitin ligase_substrate&#45;&gt;substrate</title>
<path fill="none" stroke="black" d="M399.265,-1455.19C491.759,-1445.16 707,-1407.12 707,-1267.21 707,-1267.21 707,-1267.21 707,-896.848 707,-742.364 696.394,-683.815 594,-568.139 569.758,-540.753 544.953,-558.879 520,-532.139 498.455,-509.051 469.547,-423.586 458.929,-378.911"/>
<polygon fill="black" stroke="black" points="462.316,-378.016 456.741,-369.006 455.481,-379.526 462.316,-378.016"/>
</g>
<!-- Cul2 ubiquitin ligase -->
<g id="node29" class="node"><title>Cul2 ubiquitin ligase</title>
<ellipse fill="none" stroke="black" cx="130" cy="-1567.78" rx="30.5202" ry="30.5202"/>
<text text-anchor="middle" x="130" y="-1566.58" font-family="Times,serif" font-size="4.00">Cul2 ubiquitin ligase</text>
</g>
<!-- Cul2 ubiquitin ligase_substrate&#45;&gt;Cul2 ubiquitin ligase -->
<g id="edge13" class="edge"><title>Cul2 ubiquitin ligase_substrate&#45;&gt;Cul2 ubiquitin ligase</title>
<path fill="none" stroke="black" d="M321.649,-1480.07C279.403,-1500.66 210.276,-1532.77 167.531,-1551.59"/>
<polygon fill="black" stroke="black" points="166.068,-1548.41 158.308,-1555.62 168.873,-1554.82 166.068,-1548.41"/>
</g>
<!-- Cul2 ubiquitin ligase_N8_E2_substrate -->
<g id="node31" class="node"><title>Cul2 ubiquitin ligase_N8_E2_substrate</title>
<ellipse fill="none" stroke="black" cx="292" cy="-783.921" rx="49.142" ry="49.142"/>
<text text-anchor="middle" x="292" y="-782.721" font-family="Times,serif" font-size="4.00">Cul2 ubiquitin ligase_N8_E2_substrate</text>
</g>
<!-- Cul2 ubiquitin ligase_substrate&#45;&gt;Cul2 ubiquitin ligase_N8_E2_substrate -->
<g id="edge11" class="edge"><title>Cul2 ubiquitin ligase_substrate&#45;&gt;Cul2 ubiquitin ligase_N8_E2_substrate</title>
<path fill="none" stroke="black" d="M332.916,-1426.28C310.919,-1389.12 283,-1325.75 283,-1267.21 283,-1267.21 283,-1267.21 283,-1008.12 283,-952.042 283,-888.033 284.626,-842.985"/>
<polygon fill="black" stroke="black" points="288.13,-842.948 285.037,-832.815 281.136,-842.666 288.13,-842.948"/>
</g>
<!-- NEDD8 -->
<g id="node8" class="node"><title>NEDD8</title>
<ellipse fill="none" stroke="black" cx="775" cy="-1459.65" rx="18" ry="18"/>
<text text-anchor="middle" x="775" y="-1458.45" font-family="Times,serif" font-size="4.00">NEDD8</text>
</g>
<!-- NEDD8&#45;&gt;NAE_NEDD8 -->
<g id="edge16" class="edge"><title>NEDD8&#45;&gt;NAE_NEDD8</title>
<path fill="none" stroke="black" d="M775,-1441.57C775,-1426.69 775,-1404.75 775,-1386.7"/>
<polygon fill="black" stroke="black" points="778.5,-1386.6 775,-1376.6 771.5,-1386.6 778.5,-1386.6"/>
</g>
<!-- Rbx1_Cul2&#45;&gt;Cul2 -->
<g id="edge17" class="edge"><title>Rbx1_Cul2&#45;&gt;Cul2</title>
<path fill="none" stroke="black" d="M101.824,-1674.02C102.805,-1683.92 103.006,-1696.32 102.429,-1707.25"/>
<polygon fill="black" stroke="black" points="98.9145,-1707.29 101.593,-1717.54 105.892,-1707.86 98.9145,-1707.29"/>
</g>
<!-- Rbx1 -->
<g id="node14" class="node"><title>Rbx1</title>
<ellipse fill="none" stroke="black" cx="63" cy="-1567.78" rx="18" ry="18"/>
<text text-anchor="middle" x="63" y="-1566.58" font-family="Times,serif" font-size="4.00">Rbx1</text>
</g>
<!-- Rbx1_Cul2&#45;&gt;Rbx1 -->
<g id="edge18" class="edge"><title>Rbx1_Cul2&#45;&gt;Rbx1</title>
<path fill="none" stroke="black" d="M84.3815,-1637.72C78.4107,-1625.93 71.7564,-1609.6 67.1624,-1595.79"/>
<polygon fill="black" stroke="black" points="70.3862,-1594.37 64.0964,-1585.84 63.6966,-1596.43 70.3862,-1594.37"/>
</g>
<!-- Rbx1_Cul2&#45;&gt;Cul2 ubiquitin ligase -->
<g id="edge19" class="edge"><title>Rbx1_Cul2&#45;&gt;Cul2 ubiquitin ligase</title>
<path fill="none" stroke="black" d="M97.9543,-1634.42C100.745,-1625.28 104.937,-1614.07 109.439,-1603.52"/>
<polygon fill="black" stroke="black" points="112.766,-1604.65 113.629,-1594.09 106.369,-1601.81 112.766,-1604.65"/>
</g>
<!-- Pevonedistat -->
<g id="node10" class="node"><title>Pevonedistat</title>
<ellipse fill="none" stroke="black" cx="897" cy="-1266.21" rx="21.9898" ry="21.9898"/>
<text text-anchor="middle" x="897" y="-1265.01" font-family="Times,serif" font-size="4.00">Pevonedistat</text>
</g>
<!-- NAE_Pevonedistat -->
<g id="node17" class="node"><title>NAE_Pevonedistat</title>
<ellipse fill="none" stroke="black" cx="897" cy="-1354.18" rx="28.2154" ry="28.2154"/>
<text text-anchor="middle" x="897" y="-1352.98" font-family="Times,serif" font-size="4.00">NAE_Pevonedistat</text>
</g>
<!-- Pevonedistat&#45;&gt;NAE_Pevonedistat -->
<g id="edge20" class="edge"><title>Pevonedistat&#45;&gt;NAE_Pevonedistat</title>
<path fill="none" stroke="black" d="M902.82,-1287.37C903.6,-1296.02 903.889,-1306.41 903.688,-1316.35"/>
<polygon fill="black" stroke="black" points="900.187,-1316.32 903.301,-1326.45 907.181,-1316.59 900.187,-1316.32"/>
</g>
<!-- Ubc12&#45;&gt;Ubc12_NEDD8 -->
<g id="edge21" class="edge"><title>Ubc12&#45;&gt;Ubc12_NEDD8</title>
<path fill="none" stroke="black" d="M484.589,-1337.01C483.369,-1326.52 482.983,-1312.49 483.43,-1299.76"/>
<polygon fill="black" stroke="black" points="486.941,-1299.65 484.002,-1289.47 479.952,-1299.26 486.941,-1299.65"/>
</g>
<!-- Cul2 ubiquitin ligase_Orf10&#45;&gt;Cul2 ubiquitin ligase_Orf10_substrate -->
<g id="edge22" class="edge"><title>Cul2 ubiquitin ligase_Orf10&#45;&gt;Cul2 ubiquitin ligase_Orf10_substrate</title>
<path fill="none" stroke="black" d="M462.253,-146.813C462.622,-155.203 462.786,-164.335 462.744,-173.383"/>
<polygon fill="black" stroke="black" points="459.242,-173.472 462.609,-183.518 466.242,-173.565 459.242,-173.472"/>
</g>
<!-- Orf10 -->
<g id="node21" class="node"><title>Orf10</title>
<ellipse fill="none" stroke="black" cx="456" cy="-18" rx="18" ry="18"/>
<text text-anchor="middle" x="456" y="-16.8" font-family="Times,serif" font-size="4.00">Orf10</text>
</g>
<!-- Cul2 ubiquitin ligase_Orf10&#45;&gt;Orf10 -->
<g id="edge24" class="edge"><title>Cul2 ubiquitin ligase_Orf10&#45;&gt;Orf10</title>
<path fill="none" stroke="black" d="M449.362,-72.4464C449.125,-63.4254 449.264,-53.9204 449.781,-45.4681"/>
<polygon fill="black" stroke="black" points="453.273,-45.702 450.636,-35.4406 446.299,-45.1067 453.273,-45.702"/>
</g>
<!-- Cul2 ubiquitin ligase_Orf10&#45;&gt;Cul2 ubiquitin ligase -->
<g id="edge23" class="edge"><title>Cul2 ubiquitin ligase_Orf10&#45;&gt;Cul2 ubiquitin ligase</title>
<path fill="none" stroke="black" d="M419.799,-120.033C336.485,-142.769 139,-209.542 139,-349.298 139,-1355.18 139,-1355.18 139,-1355.18 139,-1415.12 139,-1484.62 136.669,-1527.14"/>
<polygon fill="black" stroke="black" points="133.162,-1527.14 136.025,-1537.34 140.148,-1527.58 133.162,-1527.14"/>
</g>
<!-- Cul2 ubiquitin ligase_N8_E2&#45;Ub_substrate&#45;&gt;Cul2 ubiquitin ligase_substrate -->
<g id="edge26" class="edge"><title>Cul2 ubiquitin ligase_N8_E2&#45;Ub_substrate&#45;&gt;Cul2 ubiquitin ligase_substrate</title>
<path fill="none" stroke="black" d="M405.606,-836.739C392.596,-907.732 367,-1039.43 367,-1153.37 367,-1267.21 367,-1267.21 367,-1267.21 367,-1315.06 367,-1369.64 365.399,-1408.24"/>
<polygon fill="black" stroke="black" points="361.882,-1408.53 364.904,-1418.69 368.874,-1408.86 361.882,-1408.53"/>
</g>
<!-- E2 -->
<g id="node23" class="node"><title>E2</title>
<ellipse fill="none" stroke="black" cx="490" cy="-897.848" rx="18" ry="18"/>
<text text-anchor="middle" x="490" y="-896.648" font-family="Times,serif" font-size="4.00">E2</text>
</g>
<!-- Cul2 ubiquitin ligase_N8_E2&#45;Ub_substrate&#45;&gt;E2 -->
<g id="edge25" class="edge"><title>Cul2 ubiquitin ligase_N8_E2&#45;Ub_substrate&#45;&gt;E2</title>
<path fill="none" stroke="black" d="M446.135,-824.592C457.62,-840.33 469.647,-857.951 478.312,-871.851"/>
<polygon fill="black" stroke="black" points="475.558,-874.063 483.725,-880.812 481.55,-870.443 475.558,-874.063"/>
</g>
<!-- Cul2 ubiquitin ligase_N8_E2_substrate&#45;Ub -->
<g id="node36" class="node"><title>Cul2 ubiquitin ligase_N8_E2_substrate&#45;Ub</title>
<ellipse fill="none" stroke="black" cx="403" cy="-628.066" rx="53.066" ry="53.066"/>
<text text-anchor="middle" x="403" y="-626.866" font-family="Times,serif" font-size="4.00">Cul2 ubiquitin ligase_N8_E2_substrate&#45;Ub</text>
</g>
<!-- Cul2 ubiquitin ligase_N8_E2&#45;Ub_substrate&#45;&gt;Cul2 ubiquitin ligase_N8_E2_substrate&#45;Ub -->
<g id="edge27" class="edge"><title>Cul2 ubiquitin ligase_N8_E2&#45;Ub_substrate&#45;&gt;Cul2 ubiquitin ligase_N8_E2_substrate&#45;Ub</title>
<path fill="none" stroke="black" d="M408.953,-730.833C408.213,-718.176 407.413,-704.514 406.648,-691.435"/>
<polygon fill="black" stroke="black" points="410.122,-690.879 406.044,-681.101 403.134,-691.288 410.122,-690.879"/>
</g>
<!-- Rbx1&#45;&gt;Rbx1_Cul2 -->
<g id="edge28" class="edge"><title>Rbx1&#45;&gt;Rbx1_Cul2</title>
<path fill="none" stroke="black" d="M73.5526,-1582.68C79.4908,-1594.02 86.294,-1610.41 91.1349,-1624.59"/>
<polygon fill="black" stroke="black" points="87.8977,-1625.96 94.2726,-1634.42 94.5663,-1623.83 87.8977,-1625.96"/>
</g>
<!-- Cul2 ubiquitin ligase_N8_Orf10_E2_substrate&#45;Ub -->
<g id="node15" class="node"><title>Cul2 ubiquitin ligase_N8_Orf10_E2_substrate&#45;Ub</title>
<ellipse fill="none" stroke="black" cx="534" cy="-628.066" rx="59.8547" ry="59.8547"/>
<text text-anchor="middle" x="534" y="-626.866" font-family="Times,serif" font-size="4.00">Cul2 ubiquitin ligase_N8_Orf10_E2_substrate&#45;Ub</text>
</g>
<!-- Cul2 ubiquitin ligase_N8_Orf10_substrate&#45;Ub -->
<g id="node16" class="node"><title>Cul2 ubiquitin ligase_N8_Orf10_substrate&#45;Ub</title>
<ellipse fill="none" stroke="black" cx="594" cy="-476.455" rx="55.8699" ry="55.8699"/>
<text text-anchor="middle" x="594" y="-475.255" font-family="Times,serif" font-size="4.00">Cul2 ubiquitin ligase_N8_Orf10_substrate&#45;Ub</text>
</g>
<!-- Cul2 ubiquitin ligase_N8_Orf10 -->
<g id="node20" class="node"><title>Cul2 ubiquitin ligase_N8_Orf10</title>
<ellipse fill="none" stroke="black" cx="569" cy="-231.567" rx="41.2319" ry="41.2319"/>
<text text-anchor="middle" x="569" y="-230.367" font-family="Times,serif" font-size="4.00">Cul2 ubiquitin ligase_N8_Orf10</text>
</g>
<!-- Cul2 ubiquitin ligase_N8_Orf10_substrate&#45;Ub&#45;&gt;Cul2 ubiquitin ligase_N8_Orf10 -->
<g id="edge29" class="edge"><title>Cul2 ubiquitin ligase_N8_Orf10_substrate&#45;Ub&#45;&gt;Cul2 ubiquitin ligase_N8_Orf10</title>
<path fill="none" stroke="black" d="M588.39,-420.946C584.138,-379.644 578.341,-323.322 574.195,-283.044"/>
<polygon fill="black" stroke="black" points="577.658,-282.499 573.152,-272.91 570.695,-283.216 577.658,-282.499"/>
</g>
<!-- Cul2 ubiquitin ligase_N8_Orf10_substrate&#45;Ub&#45;&gt;substrate -->
<g id="edge30" class="edge"><title>Cul2 ubiquitin ligase_N8_Orf10_substrate&#45;Ub&#45;&gt;substrate</title>
<path fill="none" stroke="black" d="M552.969,-438.54C527.97,-416.049 497.075,-388.253 476.972,-370.167"/>
<polygon fill="black" stroke="black" points="479.096,-367.37 469.321,-363.283 474.414,-372.573 479.096,-367.37"/>
</g>
<!-- NAE_Pevonedistat&#45;&gt;Pevonedistat -->
<g id="edge31" class="edge"><title>NAE_Pevonedistat&#45;&gt;Pevonedistat</title>
<path fill="none" stroke="black" d="M890.699,-1326.45C890.169,-1317.28 890.108,-1306.96 890.518,-1297.53"/>
<polygon fill="black" stroke="black" points="894.022,-1297.57 891.18,-1287.37 887.037,-1297.12 894.022,-1297.57"/>
</g>
<!-- NAE -->
<g id="node28" class="node"><title>NAE</title>
<ellipse fill="none" stroke="black" cx="897" cy="-1459.65" rx="18" ry="18"/>
<text text-anchor="middle" x="897" y="-1458.45" font-family="Times,serif" font-size="4.00">NAE</text>
</g>
<!-- NAE_Pevonedistat&#45;&gt;NAE -->
<g id="edge32" class="edge"><title>NAE_Pevonedistat&#45;&gt;NAE</title>
<path fill="none" stroke="black" d="M902.99,-1381.86C903.996,-1397.15 904.003,-1416.29 903.013,-1431.63"/>
<polygon fill="black" stroke="black" points="899.488,-1431.77 902.115,-1442.03 906.462,-1432.37 899.488,-1431.77"/>
</g>
<!-- NAE1 -->
<g id="node18" class="node"><title>NAE1</title>
<ellipse fill="none" stroke="black" cx="961" cy="-1354.18" rx="18" ry="18"/>
<text text-anchor="middle" x="961" y="-1352.98" font-family="Times,serif" font-size="4.00">NAE1</text>
</g>
<!-- NAE1&#45;&gt;NAE -->
<g id="edge33" class="edge"><title>NAE1&#45;&gt;NAE</title>
<path fill="none" stroke="black" d="M955.868,-1371.73C946.817,-1389.65 929.261,-1418.28 915.483,-1437.74"/>
<polygon fill="black" stroke="black" points="912.543,-1435.83 909.462,-1445.97 918.192,-1439.96 912.543,-1435.83"/>
</g>
<!-- CSN5 -->
<g id="node19" class="node"><title>CSN5</title>
<ellipse fill="none" stroke="black" cx="150" cy="-1734.71" rx="18" ry="18"/>
<text text-anchor="middle" x="150" y="-1733.51" font-family="Times,serif" font-size="4.00">CSN5</text>
</g>
<!-- Cul2 ubiquitin ligase_N8_Orf10&#45;&gt;Cul2 ubiquitin ligase_Orf10 -->
<g id="edge34" class="edge"><title>Cul2 ubiquitin ligase_N8_Orf10&#45;&gt;Cul2 ubiquitin ligase_Orf10</title>
<path fill="none" stroke="black" d="M541.067,-200.925C525.169,-184.055 505.176,-162.839 488.568,-145.214"/>
<polygon fill="black" stroke="black" points="491.084,-142.781 481.679,-137.903 485.99,-147.582 491.084,-142.781"/>
</g>
<!-- Orf10&#45;&gt;Cul2 ubiquitin ligase_Orf10 -->
<g id="edge35" class="edge"><title>Orf10&#45;&gt;Cul2 ubiquitin ligase_Orf10</title>
<path fill="none" stroke="black" d="M461.364,-35.4406C462.245,-43.1349 462.706,-52.7251 462.747,-62.4038"/>
<polygon fill="black" stroke="black" points="459.247,-62.4089 462.638,-72.4464 466.246,-62.485 459.247,-62.4089"/>
</g>
<!-- Ubc12_NEDD8&#45;&gt;Cul2 ubiquitin ligase_N8_Orf10_substrate -->
<g id="edge38" class="edge"><title>Ubc12_NEDD8&#45;&gt;Cul2 ubiquitin ligase_N8_Orf10_substrate</title>
<path fill="none" stroke="black" d="M490,-1242.18C490,-1234.6 490,-1225.77 490,-1216.7"/>
<polygon fill="black" stroke="black" points="493.5,-1216.42 490,-1206.42 486.5,-1216.42 493.5,-1216.42"/>
</g>
<!-- Ubc12_NEDD8&#45;&gt;Cul2 ubiquitin ligase_substrate -->
<g id="edge37" class="edge"><title>Ubc12_NEDD8&#45;&gt;Cul2 ubiquitin ligase_substrate</title>
<path fill="none" stroke="black" d="M476.778,-1286.39C455.944,-1316.6 414.979,-1376.02 387.046,-1416.53"/>
<polygon fill="black" stroke="black" points="384.09,-1414.65 381.295,-1424.87 389.853,-1418.62 384.09,-1414.65"/>
</g>
<!-- Ubc12_NEDD8&#45;&gt;Ubc12 -->
<g id="edge36" class="edge"><title>Ubc12_NEDD8&#45;&gt;Ubc12</title>
<path fill="none" stroke="black" d="M495.998,-1289.47C496.894,-1300.86 496.989,-1314.81 496.284,-1326.74"/>
<polygon fill="black" stroke="black" points="492.771,-1326.75 495.411,-1337.01 499.746,-1327.34 492.771,-1326.75"/>
</g>
<!-- E2&#45;&gt;Cul2 ubiquitin ligase_N8_E2&#45;Ub_substrate -->
<g id="edge41" class="edge"><title>E2&#45;&gt;Cul2 ubiquitin ligase_N8_E2&#45;Ub_substrate</title>
<path fill="none" stroke="black" d="M477.282,-884.87C467.87,-873.723 454.927,-856.287 442.995,-839.079"/>
<polygon fill="black" stroke="black" points="445.778,-836.949 437.238,-830.678 440.004,-840.906 445.778,-836.949"/>
</g>
<!-- E2&#45;&gt;Cul2 ubiquitin ligase_N8_Orf10_0E2_substrate -->
<g id="edge39" class="edge"><title>E2&#45;&gt;Cul2 ubiquitin ligase_N8_Orf10_0E2_substrate</title>
<path fill="none" stroke="black" d="M495.009,-915.445C495.853,-922.929 496.39,-932.303 496.62,-942.194"/>
<polygon fill="black" stroke="black" points="493.121,-942.251 496.748,-952.206 500.12,-942.162 493.121,-942.251"/>
</g>
<!-- E2&#45;&gt;Cul2 ubiquitin ligase_N8_E2_substrate -->
<g id="edge43" class="edge"><title>E2&#45;&gt;Cul2 ubiquitin ligase_N8_E2_substrate</title>
<path fill="none" stroke="black" d="M472.151,-893.968C442.463,-887.787 383.457,-871.52 341,-843.848 335.791,-840.454 330.685,-836.521 325.839,-832.329"/>
<polygon fill="black" stroke="black" points="328.198,-829.744 318.46,-825.569 323.469,-834.905 328.198,-829.744"/>
</g>
<!-- E2&#45;&gt;Cul2 ubiquitin ligase_N8_Orf10_E2&#45;Ub_substrate -->
<g id="edge42" class="edge"><title>E2&#45;&gt;Cul2 ubiquitin ligase_N8_Orf10_E2&#45;Ub_substrate</title>
<path fill="none" stroke="black" d="M497.808,-881.285C506.048,-869.413 519.297,-852.345 532.856,-835.864"/>
<polygon fill="black" stroke="black" points="535.82,-837.774 539.517,-827.845 530.435,-833.301 535.82,-837.774"/>
</g>
<!-- E1 -->
<g id="node40" class="node"><title>E1</title>
<ellipse fill="none" stroke="black" cx="771" cy="-783.921" rx="18" ry="18"/>
<text text-anchor="middle" x="771" y="-782.721" font-family="Times,serif" font-size="4.00">E1</text>
</g>
<!-- E2&#45;&gt;E1 -->
<g id="edge40" class="edge"><title>E2&#45;&gt;E1</title>
<path fill="none" stroke="black" d="M506.576,-890.4C534.905,-881.235 593.027,-863.374 641,-843.848 677.653,-828.93 718.768,-807.96 745.005,-795.474"/>
<polygon fill="black" stroke="black" points="746.714,-798.539 754.292,-791.135 743.75,-792.197 746.714,-798.539"/>
</g>
<!-- substrate&#45;&gt;Cul2 ubiquitin ligase_Orf10_substrate -->
<g id="edge44" class="edge"><title>substrate&#45;&gt;Cul2 ubiquitin ligase_Orf10_substrate</title>
<path fill="none" stroke="black" d="M451.045,-332.074C449.811,-320.681 449.213,-305.032 449.252,-289.517"/>
<polygon fill="black" stroke="black" points="452.753,-289.426 449.369,-279.387 445.753,-289.345 452.753,-289.426"/>
</g>
<!-- substrate&#45;&gt;Cul2 ubiquitin ligase_substrate -->
<g id="edge45" class="edge"><title>substrate&#45;&gt;Cul2 ubiquitin ligase_substrate</title>
<path fill="none" stroke="black" d="M464.975,-366.664C481.596,-405.574 514.265,-506.705 538,-532.139 562.953,-558.879 587.758,-540.753 612,-568.139 714.394,-683.815 725,-742.364 725,-896.848 725,-1267.21 725,-1267.21 725,-1267.21 725,-1406.9 510.424,-1445.04 409.342,-1455.15"/>
<polygon fill="black" stroke="black" points="408.969,-1451.67 399.342,-1456.09 409.627,-1458.63 408.969,-1451.67"/>
</g>
<!-- Cul2 ubiquitin ligase_N8 -->
<g id="node25" class="node"><title>Cul2 ubiquitin ligase_N8</title>
<ellipse fill="none" stroke="black" cx="319" cy="-350.298" rx="34.4429" ry="34.4429"/>
<text text-anchor="middle" x="319" y="-349.098" font-family="Times,serif" font-size="4.00">Cul2 ubiquitin ligase_N8</text>
</g>
<!-- Cul2 ubiquitin ligase_N8&#45;&gt;Cul2 ubiquitin ligase -->
<g id="edge46" class="edge"><title>Cul2 ubiquitin ligase_N8&#45;&gt;Cul2 ubiquitin ligase</title>
<path fill="none" stroke="black" d="M295.869,-376.072C255.632,-421.866 177,-524.481 177,-627.066 177,-1355.18 177,-1355.18 177,-1355.18 177,-1420.87 169.238,-1437.37 153,-1501.02 150.629,-1510.32 147.519,-1520.16 144.356,-1529.33"/>
<polygon fill="black" stroke="black" points="140.989,-1528.35 140.936,-1538.95 147.584,-1530.7 140.989,-1528.35"/>
</g>
<!-- Cul2 ubiquitin ligase_N8_Orf10_0E2_substrate&#45;&gt;Cul2 ubiquitin ligase_N8_Orf10_substrate -->
<g id="edge47" class="edge"><title>Cul2 ubiquitin ligase_N8_Orf10_0E2_substrate&#45;&gt;Cul2 ubiquitin ligase_N8_Orf10_substrate</title>
<path fill="none" stroke="black" d="M496.607,-1066.22C496.767,-1074.81 496.793,-1083.71 496.683,-1092.4"/>
<polygon fill="black" stroke="black" points="493.183,-1092.4 496.493,-1102.46 500.181,-1092.53 493.183,-1092.4"/>
</g>
<!-- Cul2 ubiquitin ligase_N8_Orf10_0E2_substrate&#45;&gt;E2 -->
<g id="edge48" class="edge"><title>Cul2 ubiquitin ligase_N8_Orf10_0E2_substrate&#45;&gt;E2</title>
<path fill="none" stroke="black" d="M483.252,-952.206C483.276,-942.859 483.563,-933.562 484.114,-925.41"/>
<polygon fill="black" stroke="black" points="487.601,-925.713 484.991,-915.445 480.628,-925.1 487.601,-925.713"/>
</g>
<!-- Cul2 ubiquitin ligase_N8_substrate&#45;Ub -->
<g id="node27" class="node"><title>Cul2 ubiquitin ligase_N8_substrate&#45;Ub</title>
<ellipse fill="none" stroke="black" cx="361" cy="-476.455" rx="48.5816" ry="48.5816"/>
<text text-anchor="middle" x="361" y="-475.255" font-family="Times,serif" font-size="4.00">Cul2 ubiquitin ligase_N8_substrate&#45;Ub</text>
</g>
<!-- Cul2 ubiquitin ligase_N8_substrate&#45;Ub&#45;&gt;substrate -->
<g id="edge50" class="edge"><title>Cul2 ubiquitin ligase_N8_substrate&#45;Ub&#45;&gt;substrate</title>
<path fill="none" stroke="black" d="M390.278,-437.191C406.208,-416.372 425.36,-391.342 438.869,-373.687"/>
<polygon fill="black" stroke="black" points="441.711,-375.733 445.008,-365.664 436.152,-371.479 441.711,-375.733"/>
</g>
<!-- Cul2 ubiquitin ligase_N8_substrate&#45;Ub&#45;&gt;Cul2 ubiquitin ligase_N8 -->
<g id="edge49" class="edge"><title>Cul2 ubiquitin ligase_N8_substrate&#45;Ub&#45;&gt;Cul2 ubiquitin ligase_N8</title>
<path fill="none" stroke="black" d="M345.599,-429.928C341.502,-417.817 337.098,-404.799 333.076,-392.909"/>
<polygon fill="black" stroke="black" points="336.322,-391.582 329.802,-383.231 329.691,-393.826 336.322,-391.582"/>
</g>
<!-- NAE&#45;&gt;NAE_NEDD8 -->
<g id="edge51" class="edge"><title>NAE&#45;&gt;NAE_NEDD8</title>
<path fill="none" stroke="black" d="M883.36,-1447.36C865.499,-1432.52 833.254,-1405.64 806,-1382.29 803.76,-1380.37 801.438,-1378.37 799.117,-1376.35"/>
<polygon fill="black" stroke="black" points="801.195,-1373.52 791.356,-1369.59 796.597,-1378.8 801.195,-1373.52"/>
</g>
<!-- NAE&#45;&gt;NAE_Pevonedistat -->
<g id="edge52" class="edge"><title>NAE&#45;&gt;NAE_Pevonedistat</title>
<path fill="none" stroke="black" d="M891.885,-1442.03C890.367,-1428.59 889.906,-1409.18 890.502,-1392.11"/>
<polygon fill="black" stroke="black" points="894.011,-1392.02 891.01,-1381.86 887.019,-1391.67 894.011,-1392.02"/>
</g>
<!-- NAE&#45;&gt;NAE1 -->
<g id="edge53" class="edge"><title>NAE&#45;&gt;NAE1</title>
<path fill="none" stroke="black" d="M902.168,-1442.03C911.284,-1424 928.969,-1395.19 942.766,-1375.75"/>
<polygon fill="black" stroke="black" points="945.69,-1377.68 948.786,-1367.54 940.047,-1373.53 945.69,-1377.68"/>
</g>
<!-- UBA3 -->
<g id="node33" class="node"><title>UBA3</title>
<ellipse fill="none" stroke="black" cx="833" cy="-1354.18" rx="18" ry="18"/>
<text text-anchor="middle" x="833" y="-1352.98" font-family="Times,serif" font-size="4.00">UBA3</text>
</g>
<!-- NAE&#45;&gt;UBA3 -->
<g id="edge54" class="edge"><title>NAE&#45;&gt;UBA3</title>
<path fill="none" stroke="black" d="M884.538,-1445.97C872.205,-1429.77 854.213,-1401.38 842.845,-1380.65"/>
<polygon fill="black" stroke="black" points="845.899,-1378.94 838.132,-1371.73 839.711,-1382.21 845.899,-1378.94"/>
</g>
<!-- Cul2 ubiquitin ligase&#45;&gt;Cul2 ubiquitin ligase_substrate -->
<g id="edge55" class="edge"><title>Cul2 ubiquitin ligase&#45;&gt;Cul2 ubiquitin ligase_substrate</title>
<path fill="none" stroke="black" d="M156.857,-1552.02C194.69,-1533.32 263.898,-1501.02 310.492,-1480.26"/>
<polygon fill="black" stroke="black" points="312.058,-1483.4 319.782,-1476.15 309.221,-1477 312.058,-1483.4"/>
</g>
<!-- Cul2 ubiquitin ligase&#45;&gt;Rbx1_Cul2 -->
<g id="edge57" class="edge"><title>Cul2 ubiquitin ligase&#45;&gt;Rbx1_Cul2</title>
<path fill="none" stroke="black" d="M124.628,-1598.34C121.063,-1608.38 116.525,-1619.49 112.035,-1629.1"/>
<polygon fill="black" stroke="black" points="108.873,-1627.6 107.6,-1638.12 115.154,-1630.69 108.873,-1627.6"/>
</g>
<!-- Cul2 ubiquitin ligase&#45;&gt;Cul2 ubiquitin ligase_Orf10 -->
<g id="edge56" class="edge"><title>Cul2 ubiquitin ligase&#45;&gt;Cul2 ubiquitin ligase_Orf10</title>
<path fill="none" stroke="black" d="M123.975,-1537.34C121,-1496.47 121,-1420.2 121,-1355.18 121,-1355.18 121,-1355.18 121,-349.298 121,-210.028 317.113,-143.235 409.323,-120.272"/>
<polygon fill="black" stroke="black" points="410.343,-123.626 419.24,-117.872 408.697,-116.822 410.343,-123.626"/>
</g>
<!-- Cul2 ubiquitin ligase&#45;&gt;Zyg11B_EloBC -->
<g id="edge58" class="edge"><title>Cul2 ubiquitin ligase&#45;&gt;Zyg11B_EloBC</title>
<path fill="none" stroke="black" d="M110.914,-1543.49C101.106,-1528.49 89.6109,-1508.81 81.0018,-1492.39"/>
<polygon fill="black" stroke="black" points="83.9585,-1490.48 76.301,-1483.16 77.721,-1493.66 83.9585,-1490.48"/>
</g>
<!-- Zyg11B_EloBC&#45;&gt;Zyg11B -->
<g id="edge59" class="edge"><title>Zyg11B_EloBC&#45;&gt;Zyg11B</title>
<path fill="none" stroke="black" d="M54.2817,-1439.68C44.6052,-1423.33 32.6992,-1399.58 24.9707,-1381.42"/>
<polygon fill="black" stroke="black" points="28.1478,-1379.94 21.1476,-1371.99 21.6604,-1382.57 28.1478,-1379.94"/>
</g>
<!-- Zyg11B_EloBC&#45;&gt;Cul2 ubiquitin ligase -->
<g id="edge61" class="edge"><title>Zyg11B_EloBC&#45;&gt;Cul2 ubiquitin ligase</title>
<path fill="none" stroke="black" d="M84.5234,-1478.6C93.941,-1492.45 105.662,-1512.1 114.964,-1529.34"/>
<polygon fill="black" stroke="black" points="112.095,-1531.4 119.854,-1538.62 118.287,-1528.14 112.095,-1531.4"/>
</g>
<!-- EloBC -->
<g id="node38" class="node"><title>EloBC</title>
<ellipse fill="none" stroke="black" cx="72" cy="-1354.18" rx="18" ry="18"/>
<text text-anchor="middle" x="72" y="-1352.98" font-family="Times,serif" font-size="4.00">EloBC</text>
</g>
<!-- Zyg11B_EloBC&#45;&gt;EloBC -->
<g id="edge60" class="edge"><title>Zyg11B_EloBC&#45;&gt;EloBC</title>
<path fill="none" stroke="black" d="M63.9458,-1435.69C63.1256,-1419.67 63.6636,-1398.25 65.2669,-1381.54"/>
<polygon fill="black" stroke="black" points="68.7748,-1381.68 66.4708,-1371.34 61.823,-1380.86 68.7748,-1381.68"/>
</g>
<!-- Cul2 ubiquitin ligase_N8_E2_substrate&#45;&gt;Cul2 ubiquitin ligase_substrate -->
<g id="edge63" class="edge"><title>Cul2 ubiquitin ligase_N8_E2_substrate&#45;&gt;Cul2 ubiquitin ligase_substrate</title>
<path fill="none" stroke="black" d="M298.963,-832.815C301,-878.013 301,-947.673 301,-1008.12 301,-1267.21 301,-1267.21 301,-1267.21 301,-1318.58 322.501,-1373.68 339.286,-1411.51"/>
<polygon fill="black" stroke="black" points="336.144,-1413.06 343.436,-1420.75 342.529,-1410.19 336.144,-1413.06"/>
</g>
<!-- Cul2 ubiquitin ligase_N8_E2_substrate&#45;&gt;E2 -->
<g id="edge62" class="edge"><title>Cul2 ubiquitin ligase_N8_E2_substrate&#45;&gt;E2</title>
<path fill="none" stroke="black" d="M328.181,-817.915C337.564,-827.208 348.056,-836.716 359,-843.848 392.207,-865.491 435.538,-880.158 463.24,-888.478"/>
<polygon fill="black" stroke="black" points="462.457,-891.896 473.038,-891.358 464.431,-885.18 462.457,-891.896"/>
</g>
<!-- ATP -->
<g id="node32" class="node"><title>ATP</title>
<ellipse fill="none" stroke="black" cx="809" cy="-897.848" rx="18" ry="18"/>
<text text-anchor="middle" x="809" y="-896.648" font-family="Times,serif" font-size="4.00">ATP</text>
</g>
<!-- ATP&#45;&gt;E1 -->
<g id="edge65" class="edge"><title>ATP&#45;&gt;E1</title>
<path fill="none" stroke="black" d="M803.393,-880.333C797.183,-862.043 787.09,-832.314 779.82,-810.899"/>
<polygon fill="black" stroke="black" points="783.036,-809.484 776.506,-801.14 776.407,-811.735 783.036,-809.484"/>
</g>
<!-- PPi -->
<g id="node42" class="node"><title>PPi</title>
<ellipse fill="none" stroke="black" cx="893" cy="-628.066" rx="18" ry="18"/>
<text text-anchor="middle" x="893" y="-626.866" font-family="Times,serif" font-size="4.00">PPi</text>
</g>
<!-- ATP&#45;&gt;PPi -->
<g id="edge66" class="edge"><title>ATP&#45;&gt;PPi</title>
<path fill="none" stroke="black" d="M814.242,-880.622C817.62,-870.137 822.095,-856.194 826,-843.848 847.513,-775.843 872.425,-695.574 884.941,-655.137"/>
<polygon fill="black" stroke="black" points="888.305,-656.105 887.917,-645.517 881.618,-654.036 888.305,-656.105"/>
</g>
<!-- AMP -->
<g id="node43" class="node"><title>AMP</title>
<ellipse fill="none" stroke="black" cx="817" cy="-628.066" rx="18" ry="18"/>
<text text-anchor="middle" x="817" y="-626.866" font-family="Times,serif" font-size="4.00">AMP</text>
</g>
<!-- ATP&#45;&gt;AMP -->
<g id="edge64" class="edge"><title>ATP&#45;&gt;AMP</title>
<path fill="none" stroke="black" d="M809.513,-879.69C810.867,-834.346 814.55,-711.058 816.192,-656.116"/>
<polygon fill="black" stroke="black" points="819.691,-656.182 816.492,-646.082 812.695,-655.973 819.691,-656.182"/>
</g>
<!-- UBA3&#45;&gt;NAE -->
<g id="edge67" class="edge"><title>UBA3&#45;&gt;NAE</title>
<path fill="none" stroke="black" d="M845.214,-1367.54C857.527,-1383.65 875.637,-1412.2 887.085,-1433.06"/>
<polygon fill="black" stroke="black" points="884.062,-1434.83 891.832,-1442.03 890.249,-1431.55 884.062,-1434.83"/>
</g>
<!-- Cul2 ubiquitin ligase_N8_Orf10_E2&#45;Ub_substrate&#45;&gt;Cul2 ubiquitin ligase_N8_Orf10_substrate -->
<g id="edge69" class="edge"><title>Cul2 ubiquitin ligase_N8_Orf10_E2&#45;Ub_substrate&#45;&gt;Cul2 ubiquitin ligase_N8_Orf10_substrate</title>
<path fill="none" stroke="black" d="M591.833,-843.095C595.992,-901.535 593.302,-993.183 565,-1066.4 558.601,-1082.95 548.055,-1099.03 536.811,-1112.77"/>
<polygon fill="black" stroke="black" points="533.977,-1110.7 530.136,-1120.57 539.296,-1115.25 533.977,-1110.7"/>
</g>
<!-- Cul2 ubiquitin ligase_N8_Orf10_E2&#45;Ub_substrate&#45;&gt;Cul2 ubiquitin ligase_N8_Orf10_E2_substrate&#45;Ub -->
<g id="edge68" class="edge"><title>Cul2 ubiquitin ligase_N8_Orf10_E2&#45;Ub_substrate&#45;&gt;Cul2 ubiquitin ligase_N8_Orf10_E2_substrate&#45;Ub</title>
<path fill="none" stroke="black" d="M563.766,-726.505C560.669,-716.366 557.415,-705.715 554.242,-695.328"/>
<polygon fill="black" stroke="black" points="557.501,-694.017 551.232,-685.476 550.806,-696.062 557.501,-694.017"/>
</g>
<!-- Cul2 ubiquitin ligase_N8_Orf10_E2&#45;Ub_substrate&#45;&gt;E2 -->
<g id="edge70" class="edge"><title>Cul2 ubiquitin ligase_N8_Orf10_E2&#45;Ub_substrate&#45;&gt;E2</title>
<path fill="none" stroke="black" d="M547.799,-834.004C535.19,-849.77 521.256,-866.276 510.15,-878.413"/>
<polygon fill="black" stroke="black" points="507.595,-876.021 503.302,-885.707 512.698,-880.813 507.595,-876.021"/>
</g>
<!-- Ub -->
<g id="node35" class="node"><title>Ub</title>
<ellipse fill="none" stroke="black" cx="863" cy="-897.848" rx="18" ry="18"/>
<text text-anchor="middle" x="863" y="-896.648" font-family="Times,serif" font-size="4.00">Ub</text>
</g>
<!-- Ub&#45;&gt;E1 -->
<g id="edge72" class="edge"><title>Ub&#45;&gt;E1</title>
<path fill="none" stroke="black" d="M851.719,-883.124C835.977,-863.972 807.265,-829.041 788.669,-806.418"/>
<polygon fill="black" stroke="black" points="791.14,-803.911 782.086,-798.408 785.732,-808.356 791.14,-803.911"/>
</g>
<!-- Ub&#45;&gt;PPi -->
<g id="edge73" class="edge"><title>Ub&#45;&gt;PPi</title>
<path fill="none" stroke="black" d="M876.677,-885.398C887.223,-875.609 900.99,-860.496 907,-843.848 930.344,-779.182 912.903,-696.528 901.243,-655.142"/>
<polygon fill="black" stroke="black" points="904.532,-653.923 898.36,-645.312 897.815,-655.893 904.532,-653.923"/>
</g>
<!-- Ub&#45;&gt;AMP -->
<g id="edge71" class="edge"><title>Ub&#45;&gt;AMP</title>
<path fill="none" stroke="black" d="M860.053,-879.69C852.263,-834.346 831.085,-711.058 821.647,-656.116"/>
<polygon fill="black" stroke="black" points="825.066,-655.345 819.923,-646.082 818.167,-656.53 825.066,-655.345"/>
</g>
<!-- Cul2 ubiquitin ligase_N8_E2_substrate&#45;Ub&#45;&gt;E2 -->
<g id="edge74" class="edge"><title>Cul2 ubiquitin ligase_N8_E2_substrate&#45;Ub&#45;&gt;E2</title>
<path fill="none" stroke="black" d="M439.123,-667.219C452.393,-683.486 466.094,-703.441 474,-723.994 492.698,-772.599 493.444,-834.343 491.954,-869.344"/>
<polygon fill="black" stroke="black" points="488.438,-869.548 491.411,-879.717 495.429,-869.914 488.438,-869.548"/>
</g>
<!-- Cul2 ubiquitin ligase_N8_E2_substrate&#45;Ub&#45;&gt;Cul2 ubiquitin ligase_N8_substrate&#45;Ub -->
<g id="edge75" class="edge"><title>Cul2 ubiquitin ligase_N8_E2_substrate&#45;Ub&#45;&gt;Cul2 ubiquitin ligase_N8_substrate&#45;Ub</title>
<path fill="none" stroke="black" d="M388.898,-576.832C384.987,-562.899 380.716,-547.687 376.719,-533.448"/>
<polygon fill="black" stroke="black" points="380.075,-532.455 374.003,-523.773 373.336,-534.347 380.075,-532.455"/>
</g>
<!-- EloB -->
<g id="node37" class="node"><title>EloB</title>
<ellipse fill="none" stroke="black" cx="20" cy="-1266.21" rx="18" ry="18"/>
<text text-anchor="middle" x="20" y="-1265.01" font-family="Times,serif" font-size="4.00">EloB</text>
</g>
<!-- EloB&#45;&gt;EloBC -->
<g id="edge76" class="edge"><title>EloB&#45;&gt;EloBC</title>
<path fill="none" stroke="black" d="M32.3768,-1279.56C41.7601,-1291.98 54.0172,-1311.51 62.6121,-1327.33"/>
<polygon fill="black" stroke="black" points="59.7154,-1329.35 67.4319,-1336.61 65.927,-1326.12 59.7154,-1329.35"/>
</g>
<!-- EloBC&#45;&gt;Zyg11B_EloBC -->
<g id="edge77" class="edge"><title>EloBC&#45;&gt;Zyg11B_EloBC</title>
<path fill="none" stroke="black" d="M76.6269,-1371.74C77.8537,-1386.26 77.637,-1407.82 76.2836,-1425.83"/>
<polygon fill="black" stroke="black" points="72.7839,-1425.67 75.3577,-1435.95 79.7548,-1426.31 72.7839,-1425.67"/>
</g>
<!-- EloBC&#45;&gt;EloB -->
<g id="edge79" class="edge"><title>EloBC&#45;&gt;EloB</title>
<path fill="none" stroke="black" d="M59.6491,-1340.86C50.2917,-1328.48 38.067,-1309.02 29.4683,-1293.21"/>
<polygon fill="black" stroke="black" points="32.3622,-1291.19 24.641,-1283.93 26.1527,-1294.42 32.3622,-1291.19"/>
</g>
<!-- EloC -->
<g id="node39" class="node"><title>EloC</title>
<ellipse fill="none" stroke="black" cx="74" cy="-1266.21" rx="18" ry="18"/>
<text text-anchor="middle" x="74" y="-1265.01" font-family="Times,serif" font-size="4.00">EloC</text>
</g>
<!-- EloBC&#45;&gt;EloC -->
<g id="edge78" class="edge"><title>EloBC&#45;&gt;EloC</title>
<path fill="none" stroke="black" d="M66.9276,-1336.61C65.8286,-1324.4 65.9479,-1307.55 67.1123,-1293.51"/>
<polygon fill="black" stroke="black" points="70.6051,-1293.76 68.2036,-1283.44 63.6459,-1293.01 70.6051,-1293.76"/>
</g>
<!-- EloC&#45;&gt;EloBC -->
<g id="edge80" class="edge"><title>EloC&#45;&gt;EloBC</title>
<path fill="none" stroke="black" d="M79.0555,-1283.6C80.173,-1295.83 80.0579,-1312.79 78.8865,-1326.9"/>
<polygon fill="black" stroke="black" points="75.3885,-1326.69 77.7876,-1337.01 82.3475,-1327.45 75.3885,-1326.69"/>
</g>
<!-- E1&#45;&gt;E2 -->
<g id="edge81" class="edge"><title>E1&#45;&gt;E2</title>
<path fill="none" stroke="black" d="M757.281,-795.777C736.107,-808.297 695.358,-829.05 659,-843.848 610.367,-863.643 551.302,-881.727 517.224,-890.774"/>
<polygon fill="black" stroke="black" points="516.299,-887.398 507.489,-893.283 518.046,-894.176 516.299,-887.398"/>
</g>
<!-- E1&#45;&gt;PPi -->
<g id="edge83" class="edge"><title>E1&#45;&gt;PPi</title>
<path fill="none" stroke="black" d="M781.827,-769.268C803.026,-742.533 850.164,-683.088 875.721,-650.857"/>
<polygon fill="black" stroke="black" points="878.551,-652.921 882.022,-642.911 873.066,-648.572 878.551,-652.921"/>
</g>
<!-- E1&#45;&gt;AMP -->
<g id="edge82" class="edge"><title>E1&#45;&gt;AMP</title>
<path fill="none" stroke="black" d="M775.923,-766.456C783.877,-739.851 799.625,-687.181 809.144,-655.344"/>
<polygon fill="black" stroke="black" points="812.601,-655.997 812.113,-645.413 805.895,-653.992 812.601,-655.997"/>
</g>
<!-- 26S&#45;proteasom -->
<g id="node41" class="node"><title>26S&#45;proteasom</title>
<ellipse fill="none" stroke="black" cx="210" cy="-1734.71" rx="23.7305" ry="23.7305"/>
<text text-anchor="middle" x="210" y="-1733.51" font-family="Times,serif" font-size="4.00">26S&#45;proteasom</text>
</g>
</g>
</svg>
