<?xml version="1.0" encoding="UTF-8" standalone="no"?>
<!DOCTYPE svg PUBLIC "-//W3C//DTD SVG 1.1//EN"
 "http://www.w3.org/Graphics/SVG/1.1/DTD/svg11.dtd">
<!-- Generated by graphviz version 2.38.0 (20140413.2041)
 -->
<!-- Title: G Pages: 1 -->
<svg width="780pt" height="2071pt"
 viewBox="0.00 0.00 780.00 2070.98" xmlns="http://www.w3.org/2000/svg" xmlns:xlink="http://www.w3.org/1999/xlink">
<g id="graph0" class="graph" transform="scale(1 1) rotate(0) translate(4 2066.98)">
<title>G</title>
<polygon fill="white" stroke="none" points="-4,4 -4,-2066.98 776,-2066.98 776,4 -4,4"/>
<!-- Cul2 ubiquitin ligase_N8_Orf10_substrate&#45;Ub -->
<g id="node1" class="node"><title>Cul2 ubiquitin ligase_N8_Orf10_substrate&#45;Ub</title>
<ellipse fill="none" stroke="black" cx="210" cy="-2007.3" rx="55.8699" ry="55.8699"/>
<text text-anchor="middle" x="210" y="-2006.1" font-family="Times,serif" font-size="4.00">Cul2 ubiquitin ligase_N8_Orf10_substrate&#45;Ub</text>
</g>
<!-- Cul2 ubiquitin ligase_N8_Orf10 -->
<g id="node8" class="node"><title>Cul2 ubiquitin ligase_N8_Orf10</title>
<ellipse fill="none" stroke="black" cx="253" cy="-1874.25" rx="41.2319" ry="41.2319"/>
<text text-anchor="middle" x="253" y="-1873.05" font-family="Times,serif" font-size="4.00">Cul2 ubiquitin ligase_N8_Orf10</text>
</g>
<!-- Cul2 ubiquitin ligase_N8_Orf10_substrate&#45;Ub&#45;&gt;Cul2 ubiquitin ligase_N8_Orf10 -->
<g id="edge2" class="edge"><title>Cul2 ubiquitin ligase_N8_Orf10_substrate&#45;Ub&#45;&gt;Cul2 ubiquitin ligase_N8_Orf10</title>
<path fill="none" stroke="black" d="M227.118,-1954.13C230.421,-1944.06 233.867,-1933.56 237.127,-1923.62"/>
<polygon fill="black" stroke="black" points="240.522,-1924.5 240.314,-1913.91 233.871,-1922.32 240.522,-1924.5"/>
</g>
<!-- substrate -->
<g id="node18" class="node"><title>substrate</title>
<ellipse fill="none" stroke="black" cx="307" cy="-1017.14" rx="18.6233" ry="18.6233"/>
<text text-anchor="middle" x="307" y="-1015.94" font-family="Times,serif" font-size="4.00">substrate</text>
</g>
<!-- Cul2 ubiquitin ligase_N8_Orf10_substrate&#45;Ub&#45;&gt;substrate -->
<g id="edge1" class="edge"><title>Cul2 ubiquitin ligase_N8_Orf10_substrate&#45;Ub&#45;&gt;substrate</title>
<path fill="none" stroke="black" d="M195.663,-1953.46C183.496,-1903.93 168,-1827.62 168,-1760.23 168,-1760.23 168,-1760.23 168,-1415.29 168,-1267.47 144.915,-1211.86 225,-1087.61 239.768,-1064.7 264.386,-1045.31 282.801,-1032.89"/>
<polygon fill="black" stroke="black" points="284.808,-1035.76 291.273,-1027.37 280.985,-1029.9 284.808,-1035.76"/>
</g>
<!-- PPi -->
<g id="node2" class="node"><title>PPi</title>
<ellipse fill="none" stroke="black" cx="475" cy="-59.9273" rx="18" ry="18"/>
<text text-anchor="middle" x="475" y="-58.7273" font-family="Times,serif" font-size="4.00">PPi</text>
</g>
<!-- Rbx1_Cul2 -->
<g id="node3" class="node"><title>Rbx1_Cul2</title>
<ellipse fill="none" stroke="black" cx="594" cy="-1546.69" rx="20.3062" ry="20.3063"/>
<text text-anchor="middle" x="594" y="-1545.49" font-family="Times,serif" font-size="4.00">Rbx1_Cul2</text>
</g>
<!-- Cul2 ubiquitin ligase -->
<g id="node5" class="node"><title>Cul2 ubiquitin ligase</title>
<ellipse fill="none" stroke="black" cx="546" cy="-1654.82" rx="30.5202" ry="30.5202"/>
<text text-anchor="middle" x="546" y="-1653.62" font-family="Times,serif" font-size="4.00">Cul2 ubiquitin ligase</text>
</g>
<!-- Rbx1_Cul2&#45;&gt;Cul2 ubiquitin ligase -->
<g id="edge5" class="edge"><title>Rbx1_Cul2&#45;&gt;Cul2 ubiquitin ligase</title>
<path fill="none" stroke="black" d="M590.693,-1566.78C585.506,-1581.45 576.512,-1602.09 567.836,-1619.59"/>
<polygon fill="black" stroke="black" points="564.497,-1618.44 563.074,-1628.93 570.734,-1621.61 564.497,-1618.44"/>
</g>
<!-- Rbx1 -->
<g id="node7" class="node"><title>Rbx1</title>
<ellipse fill="none" stroke="black" cx="646" cy="-1416.29" rx="18" ry="18"/>
<text text-anchor="middle" x="646" y="-1415.09" font-family="Times,serif" font-size="4.00">Rbx1</text>
</g>
<!-- Rbx1_Cul2&#45;&gt;Rbx1 -->
<g id="edge4" class="edge"><title>Rbx1_Cul2&#45;&gt;Rbx1</title>
<path fill="none" stroke="black" d="M596.802,-1526.47C603.874,-1503.49 619.316,-1465.08 631.276,-1440.48"/>
<polygon fill="black" stroke="black" points="634.437,-1441.98 635.827,-1431.48 628.19,-1438.82 634.437,-1441.98"/>
</g>
<!-- Cul2 -->
<g id="node26" class="node"><title>Cul2</title>
<ellipse fill="none" stroke="black" cx="592" cy="-1416.29" rx="18" ry="18"/>
<text text-anchor="middle" x="592" y="-1415.09" font-family="Times,serif" font-size="4.00">Cul2</text>
</g>
<!-- Rbx1_Cul2&#45;&gt;Cul2 -->
<g id="edge3" class="edge"><title>Rbx1_Cul2&#45;&gt;Cul2</title>
<path fill="none" stroke="black" d="M588.781,-1527.02C586.265,-1505.21 585.474,-1468.95 586.809,-1444.13"/>
<polygon fill="black" stroke="black" points="590.315,-1444.17 587.543,-1433.94 583.333,-1443.67 590.315,-1444.17"/>
</g>
<!-- Cul2 ubiquitin ligase_N8 -->
<g id="node4" class="node"><title>Cul2 ubiquitin ligase_N8</title>
<ellipse fill="none" stroke="black" cx="446" cy="-1017.14" rx="34.4429" ry="34.4429"/>
<text text-anchor="middle" x="446" y="-1015.94" font-family="Times,serif" font-size="4.00">Cul2 ubiquitin ligase_N8</text>
</g>
<!-- Cul2 ubiquitin ligase_N8&#45;&gt;Cul2 ubiquitin ligase -->
<g id="edge6" class="edge"><title>Cul2 ubiquitin ligase_N8&#45;&gt;Cul2 ubiquitin ligase</title>
<path fill="none" stroke="black" d="M465.045,-1046.18C494.059,-1091.71 546,-1185.47 546,-1273.23 546,-1417.29 546,-1417.29 546,-1417.29 546,-1486.39 546,-1566.84 546,-1613.87"/>
<polygon fill="black" stroke="black" points="542.5,-1613.95 546,-1623.95 549.5,-1613.95 542.5,-1613.95"/>
</g>
<!-- Cul2 ubiquitin ligase&#45;&gt;Rbx1_Cul2 -->
<g id="edge7" class="edge"><title>Cul2 ubiquitin ligase&#45;&gt;Rbx1_Cul2</title>
<path fill="none" stroke="black" d="M553.025,-1624.82C559.506,-1608.35 568.825,-1587.96 577.078,-1572.28"/>
<polygon fill="black" stroke="black" points="580.314,-1573.66 582.043,-1563.21 574.173,-1570.3 580.314,-1573.66"/>
</g>
<!-- Cul2 ubiquitin ligase_Orf10 -->
<g id="node6" class="node"><title>Cul2 ubiquitin ligase_Orf10</title>
<ellipse fill="none" stroke="black" cx="270" cy="-1759.23" rx="37.8075" ry="37.8075"/>
<text text-anchor="middle" x="270" y="-1758.03" font-family="Times,serif" font-size="4.00">Cul2 ubiquitin ligase_Orf10</text>
</g>
<!-- Cul2 ubiquitin ligase&#45;&gt;Cul2 ubiquitin ligase_Orf10 -->
<g id="edge10" class="edge"><title>Cul2 ubiquitin ligase&#45;&gt;Cul2 ubiquitin ligase_Orf10</title>
<path fill="none" stroke="black" d="M517.835,-1667.96C469.924,-1686.77 372.615,-1722.93 315.145,-1743.31"/>
<polygon fill="black" stroke="black" points="313.853,-1740.05 305.588,-1746.68 316.182,-1746.65 313.853,-1740.05"/>
</g>
<!-- Zyg11B_EloBC -->
<g id="node21" class="node"><title>Zyg11B_EloBC</title>
<ellipse fill="none" stroke="black" cx="700" cy="-1546.69" rx="24.2908" ry="24.2908"/>
<text text-anchor="middle" x="700" y="-1545.49" font-family="Times,serif" font-size="4.00">Zyg11B_EloBC</text>
</g>
<!-- Cul2 ubiquitin ligase&#45;&gt;Zyg11B_EloBC -->
<g id="edge8" class="edge"><title>Cul2 ubiquitin ligase&#45;&gt;Zyg11B_EloBC</title>
<path fill="none" stroke="black" d="M569.217,-1634.1C596.171,-1614.22 640.352,-1583.83 669.901,-1564.9"/>
<polygon fill="black" stroke="black" points="671.989,-1567.72 678.566,-1559.41 668.245,-1561.8 671.989,-1567.72"/>
</g>
<!-- Cul2 ubiquitin ligase_substrate -->
<g id="node40" class="node"><title>Cul2 ubiquitin ligase_substrate</title>
<ellipse fill="none" stroke="black" cx="339" cy="-1546.69" rx="41.2319" ry="41.2319"/>
<text text-anchor="middle" x="339" y="-1545.49" font-family="Times,serif" font-size="4.00">Cul2 ubiquitin ligase_substrate</text>
</g>
<!-- Cul2 ubiquitin ligase&#45;&gt;Cul2 ubiquitin ligase_substrate -->
<g id="edge9" class="edge"><title>Cul2 ubiquitin ligase&#45;&gt;Cul2 ubiquitin ligase_substrate</title>
<path fill="none" stroke="black" d="M517.761,-1641.64C483.038,-1625.09 424.023,-1595.07 383.291,-1573.41"/>
<polygon fill="black" stroke="black" points="384.851,-1570.28 374.382,-1568.65 381.552,-1576.45 384.851,-1570.28"/>
</g>
<!-- Cul2 ubiquitin ligase_Orf10&#45;&gt;Cul2 ubiquitin ligase -->
<g id="edge12" class="edge"><title>Cul2 ubiquitin ligase_Orf10&#45;&gt;Cul2 ubiquitin ligase</title>
<path fill="none" stroke="black" d="M304.364,-1743.66C356.019,-1723.55 453.034,-1687.58 507.174,-1668.5"/>
<polygon fill="black" stroke="black" points="508.482,-1671.75 516.764,-1665.15 506.169,-1665.15 508.482,-1671.75"/>
</g>
<!-- Cul2 ubiquitin ligase_Orf10_substrate -->
<g id="node13" class="node"><title>Cul2 ubiquitin ligase_Orf10_substrate</title>
<ellipse fill="none" stroke="black" cx="307" cy="-898.41" rx="48.0213" ry="48.0213"/>
<text text-anchor="middle" x="307" y="-897.21" font-family="Times,serif" font-size="4.00">Cul2 ubiquitin ligase_Orf10_substrate</text>
</g>
<!-- Cul2 ubiquitin ligase_Orf10&#45;&gt;Cul2 ubiquitin ligase_Orf10_substrate -->
<g id="edge13" class="edge"><title>Cul2 ubiquitin ligase_Orf10&#45;&gt;Cul2 ubiquitin ligase_Orf10_substrate</title>
<path fill="none" stroke="black" d="M244.98,-1730.69C182.663,-1651.73 30.8108,-1417.61 89,-1221.19 122.773,-1107.19 211.048,-995.737 264.459,-938.694"/>
<polygon fill="black" stroke="black" points="267.089,-941.007 271.434,-931.344 262.012,-936.188 267.089,-941.007"/>
</g>
<!-- Orf10 -->
<g id="node14" class="node"><title>Orf10</title>
<ellipse fill="none" stroke="black" cx="270" cy="-1654.82" rx="18" ry="18"/>
<text text-anchor="middle" x="270" y="-1653.62" font-family="Times,serif" font-size="4.00">Orf10</text>
</g>
<!-- Cul2 ubiquitin ligase_Orf10&#45;&gt;Orf10 -->
<g id="edge11" class="edge"><title>Cul2 ubiquitin ligase_Orf10&#45;&gt;Orf10</title>
<path fill="none" stroke="black" d="M263.518,-1722.12C263.042,-1709.07 263.2,-1694.58 263.992,-1682.49"/>
<polygon fill="black" stroke="black" points="267.511,-1682.43 264.898,-1672.16 260.537,-1681.82 267.511,-1682.43"/>
</g>
<!-- Rbx1&#45;&gt;Rbx1_Cul2 -->
<g id="edge14" class="edge"><title>Rbx1&#45;&gt;Rbx1_Cul2</title>
<path fill="none" stroke="black" d="M643.863,-1434.32C637.3,-1456.42 621.844,-1495.18 609.624,-1520.64"/>
<polygon fill="black" stroke="black" points="606.445,-1519.18 605.125,-1529.69 612.712,-1522.29 606.445,-1519.18"/>
</g>
<!-- Cul2 ubiquitin ligase_N8_Orf10&#45;&gt;Cul2 ubiquitin ligase_Orf10 -->
<g id="edge15" class="edge"><title>Cul2 ubiquitin ligase_N8_Orf10&#45;&gt;Cul2 ubiquitin ligase_Orf10</title>
<path fill="none" stroke="black" d="M259.041,-1833.08C260.331,-1824.51 261.703,-1815.39 263.025,-1806.6"/>
<polygon fill="black" stroke="black" points="266.518,-1806.91 264.544,-1796.5 259.596,-1805.87 266.518,-1806.91"/>
</g>
<!-- EloB -->
<g id="node9" class="node"><title>EloB</title>
<ellipse fill="none" stroke="black" cx="673" cy="-1274.23" rx="18" ry="18"/>
<text text-anchor="middle" x="673" y="-1273.03" font-family="Times,serif" font-size="4.00">EloB</text>
</g>
<!-- EloBC -->
<g id="node17" class="node"><title>EloBC</title>
<ellipse fill="none" stroke="black" cx="700" cy="-1416.29" rx="18" ry="18"/>
<text text-anchor="middle" x="700" y="-1415.09" font-family="Times,serif" font-size="4.00">EloBC</text>
</g>
<!-- EloB&#45;&gt;EloBC -->
<g id="edge16" class="edge"><title>EloB&#45;&gt;EloBC</title>
<path fill="none" stroke="black" d="M680.446,-1290.82C687.642,-1314.26 696.597,-1358.9 700.2,-1387.86"/>
<polygon fill="black" stroke="black" points="696.753,-1388.55 701.304,-1398.12 703.713,-1387.8 696.753,-1388.55"/>
</g>
<!-- Cul2 ubiquitin ligase_N8_substrate&#45;Ub -->
<g id="node10" class="node"><title>Cul2 ubiquitin ligase_N8_substrate&#45;Ub</title>
<ellipse fill="none" stroke="black" cx="393" cy="-1136.4" rx="48.5816" ry="48.5816"/>
<text text-anchor="middle" x="393" y="-1135.2" font-family="Times,serif" font-size="4.00">Cul2 ubiquitin ligase_N8_substrate&#45;Ub</text>
</g>
<!-- Cul2 ubiquitin ligase_N8_substrate&#45;Ub&#45;&gt;Cul2 ubiquitin ligase_N8 -->
<g id="edge18" class="edge"><title>Cul2 ubiquitin ligase_N8_substrate&#45;Ub&#45;&gt;Cul2 ubiquitin ligase_N8</title>
<path fill="none" stroke="black" d="M412.735,-1091.74C417.698,-1080.76 422.999,-1069.03 427.878,-1058.24"/>
<polygon fill="black" stroke="black" points="431.109,-1059.59 432.038,-1049.03 424.73,-1056.7 431.109,-1059.59"/>
</g>
<!-- Cul2 ubiquitin ligase_N8_substrate&#45;Ub&#45;&gt;substrate -->
<g id="edge17" class="edge"><title>Cul2 ubiquitin ligase_N8_substrate&#45;Ub&#45;&gt;substrate</title>
<path fill="none" stroke="black" d="M364.602,-1096.68C350.979,-1078.11 335.138,-1056.51 323.52,-1040.67"/>
<polygon fill="black" stroke="black" points="326.277,-1038.51 317.541,-1032.51 320.632,-1042.65 326.277,-1038.51"/>
</g>
<!-- ATP -->
<g id="node11" class="node"><title>ATP</title>
<ellipse fill="none" stroke="black" cx="456" cy="-329.709" rx="18" ry="18"/>
<text text-anchor="middle" x="456" y="-328.509" font-family="Times,serif" font-size="4.00">ATP</text>
</g>
<!-- ATP&#45;&gt;PPi -->
<g id="edge20" class="edge"><title>ATP&#45;&gt;PPi</title>
<path fill="none" stroke="black" d="M467.287,-315.344C475.079,-305.196 484.769,-290.508 489,-275.709 507.803,-209.937 492.555,-128.4 482.34,-87.2789"/>
<polygon fill="black" stroke="black" points="485.703,-86.3026 479.813,-77.496 478.926,-88.0536 485.703,-86.3026"/>
</g>
<!-- E1 -->
<g id="node27" class="node"><title>E1</title>
<ellipse fill="none" stroke="black" cx="353" cy="-215.782" rx="18" ry="18"/>
<text text-anchor="middle" x="353" y="-214.582" font-family="Times,serif" font-size="4.00">E1</text>
</g>
<!-- ATP&#45;&gt;E1 -->
<g id="edge19" class="edge"><title>ATP&#45;&gt;E1</title>
<path fill="none" stroke="black" d="M444.185,-315.87C426.506,-296.659 392.998,-260.247 371.895,-237.315"/>
<polygon fill="black" stroke="black" points="374.342,-234.805 364.995,-229.816 369.191,-239.545 374.342,-234.805"/>
</g>
<!-- AMP -->
<g id="node28" class="node"><title>AMP</title>
<ellipse fill="none" stroke="black" cx="399" cy="-59.9273" rx="18" ry="18"/>
<text text-anchor="middle" x="399" y="-58.7273" font-family="Times,serif" font-size="4.00">AMP</text>
</g>
<!-- ATP&#45;&gt;AMP -->
<g id="edge21" class="edge"><title>ATP&#45;&gt;AMP</title>
<path fill="none" stroke="black" d="M452.434,-311.958C442.838,-266.874 416.399,-142.667 404.698,-87.6984"/>
<polygon fill="black" stroke="black" points="408.07,-86.7241 402.564,-77.6719 401.223,-88.1815 408.07,-86.7241"/>
</g>
<!-- Ub -->
<g id="node12" class="node"><title>Ub</title>
<ellipse fill="none" stroke="black" cx="402" cy="-329.709" rx="18" ry="18"/>
<text text-anchor="middle" x="402" y="-328.509" font-family="Times,serif" font-size="4.00">Ub</text>
</g>
<!-- Ub&#45;&gt;PPi -->
<g id="edge23" class="edge"><title>Ub&#45;&gt;PPi</title>
<path fill="none" stroke="black" d="M406.566,-311.958C418.883,-266.78 452.858,-142.149 467.795,-87.3558"/>
<polygon fill="black" stroke="black" points="471.182,-88.2404 470.435,-77.6719 464.428,-86.3993 471.182,-88.2404"/>
</g>
<!-- Ub&#45;&gt;E1 -->
<g id="edge22" class="edge"><title>Ub&#45;&gt;E1</title>
<path fill="none" stroke="black" d="M394.979,-312.673C386.902,-294.221 373.534,-263.687 364.056,-242.036"/>
<polygon fill="black" stroke="black" points="367.224,-240.546 360.007,-232.789 360.812,-243.353 367.224,-240.546"/>
</g>
<!-- Ub&#45;&gt;AMP -->
<g id="edge24" class="edge"><title>Ub&#45;&gt;AMP</title>
<path fill="none" stroke="black" d="M401.808,-311.551C401.3,-266.207 399.919,-142.919 399.303,-87.9766"/>
<polygon fill="black" stroke="black" points="402.803,-87.9028 399.191,-77.9427 395.803,-87.9813 402.803,-87.9028"/>
</g>
<!-- Cul2 ubiquitin ligase_Orf10_substrate&#45;&gt;Cul2 ubiquitin ligase_Orf10 -->
<g id="edge28" class="edge"><title>Cul2 ubiquitin ligase_Orf10_substrate&#45;&gt;Cul2 ubiquitin ligase_Orf10</title>
<path fill="none" stroke="black" d="M277.553,-937.254C230.549,-993.847 141.059,-1106.23 107,-1221.19 51.5607,-1408.33 186.78,-1629.69 245.076,-1718.48"/>
<polygon fill="black" stroke="black" points="242.205,-1720.48 250.634,-1726.9 248.047,-1716.63 242.205,-1720.48"/>
</g>
<!-- Cul2 ubiquitin ligase_Orf10_substrate&#45;&gt;substrate -->
<g id="edge27" class="edge"><title>Cul2 ubiquitin ligase_Orf10_substrate&#45;&gt;substrate</title>
<path fill="none" stroke="black" d="M313.631,-946.23C313.931,-960.605 313.664,-975.953 312.832,-988.596"/>
<polygon fill="black" stroke="black" points="309.314,-988.657 311.955,-998.917 316.289,-989.249 309.314,-988.657"/>
</g>
<!-- Cul2 ubiquitin ligase_N8_Orf10_substrate -->
<g id="node22" class="node"><title>Cul2 ubiquitin ligase_N8_Orf10_substrate</title>
<ellipse fill="none" stroke="black" cx="327" cy="-586.233" rx="51.9447" ry="51.9447"/>
<text text-anchor="middle" x="327" y="-585.033" font-family="Times,serif" font-size="4.00">Cul2 ubiquitin ligase_N8_Orf10_substrate</text>
</g>
<!-- Cul2 ubiquitin ligase_Orf10_substrate&#45;&gt;Cul2 ubiquitin ligase_N8_Orf10_substrate -->
<g id="edge25" class="edge"><title>Cul2 ubiquitin ligase_Orf10_substrate&#45;&gt;Cul2 ubiquitin ligase_N8_Orf10_substrate</title>
<path fill="none" stroke="black" d="M310.059,-849.963C313.538,-796.011 319.228,-707.765 323.042,-648.614"/>
<polygon fill="black" stroke="black" points="326.557,-648.492 323.708,-638.287 319.572,-648.041 326.557,-648.492"/>
</g>
<!-- Ubc12 -->
<g id="node24" class="node"><title>Ubc12</title>
<ellipse fill="none" stroke="black" cx="384" cy="-786.042" rx="18" ry="18"/>
<text text-anchor="middle" x="384" y="-784.842" font-family="Times,serif" font-size="4.00">Ubc12</text>
</g>
<!-- Cul2 ubiquitin ligase_Orf10_substrate&#45;&gt;Ubc12 -->
<g id="edge26" class="edge"><title>Cul2 ubiquitin ligase_Orf10_substrate&#45;&gt;Ubc12</title>
<path fill="none" stroke="black" d="M334.147,-858.498C345.513,-842.207 358.329,-823.838 368.12,-809.804"/>
<polygon fill="black" stroke="black" points="371.22,-811.477 374.072,-801.273 365.479,-807.472 371.22,-811.477"/>
</g>
<!-- Orf10&#45;&gt;Cul2 ubiquitin ligase_Orf10 -->
<g id="edge29" class="edge"><title>Orf10&#45;&gt;Cul2 ubiquitin ligase_Orf10</title>
<path fill="none" stroke="black" d="M275.102,-1672.16C276.343,-1682.96 276.883,-1697.69 276.723,-1711.92"/>
<polygon fill="black" stroke="black" points="273.219,-1712.04 276.482,-1722.12 280.217,-1712.21 273.219,-1712.04"/>
</g>
<!-- NAE_Pevonedistat -->
<g id="node15" class="node"><title>NAE_Pevonedistat</title>
<ellipse fill="none" stroke="black" cx="626" cy="-786.042" rx="28.2154" ry="28.2154"/>
<text text-anchor="middle" x="626" y="-784.842" font-family="Times,serif" font-size="4.00">NAE_Pevonedistat</text>
</g>
<!-- Pevonedistat -->
<g id="node34" class="node"><title>Pevonedistat</title>
<ellipse fill="none" stroke="black" cx="626" cy="-698.07" rx="21.9898" ry="21.9898"/>
<text text-anchor="middle" x="626" y="-696.87" font-family="Times,serif" font-size="4.00">Pevonedistat</text>
</g>
<!-- NAE_Pevonedistat&#45;&gt;Pevonedistat -->
<g id="edge31" class="edge"><title>NAE_Pevonedistat&#45;&gt;Pevonedistat</title>
<path fill="none" stroke="black" d="M619.699,-758.311C619.169,-749.143 619.108,-738.818 619.518,-729.386"/>
<polygon fill="black" stroke="black" points="623.022,-729.433 620.18,-719.227 616.037,-728.978 623.022,-729.433"/>
</g>
<!-- NAE -->
<g id="node41" class="node"><title>NAE</title>
<ellipse fill="none" stroke="black" cx="690" cy="-898.41" rx="18" ry="18"/>
<text text-anchor="middle" x="690" y="-897.21" font-family="Times,serif" font-size="4.00">NAE</text>
</g>
<!-- NAE_Pevonedistat&#45;&gt;NAE -->
<g id="edge30" class="edge"><title>NAE_Pevonedistat&#45;&gt;NAE</title>
<path fill="none" stroke="black" d="M643.666,-808.125C655.735,-826.165 670.961,-852.203 680.803,-871.51"/>
<polygon fill="black" stroke="black" points="677.74,-873.213 685.289,-880.647 684.024,-870.128 677.74,-873.213"/>
</g>
<!-- NEDD8 -->
<g id="node16" class="node"><title>NEDD8</title>
<ellipse fill="none" stroke="black" cx="558" cy="-898.41" rx="18" ry="18"/>
<text text-anchor="middle" x="558" y="-897.21" font-family="Times,serif" font-size="4.00">NEDD8</text>
</g>
<!-- NAE_NEDD8 -->
<g id="node30" class="node"><title>NAE_NEDD8</title>
<ellipse fill="none" stroke="black" cx="558" cy="-786.042" rx="22.05" ry="22.05"/>
<text text-anchor="middle" x="558" y="-784.842" font-family="Times,serif" font-size="4.00">NAE_NEDD8</text>
</g>
<!-- NEDD8&#45;&gt;NAE_NEDD8 -->
<g id="edge32" class="edge"><title>NEDD8&#45;&gt;NAE_NEDD8</title>
<path fill="none" stroke="black" d="M558,-880.165C558,-863.72 558,-838.563 558,-818.54"/>
<polygon fill="black" stroke="black" points="561.5,-818.322 558,-808.322 554.5,-818.322 561.5,-818.322"/>
</g>
<!-- EloBC&#45;&gt;EloB -->
<g id="edge34" class="edge"><title>EloBC&#45;&gt;EloB</title>
<path fill="none" stroke="black" d="M692.575,-1399.77C685.391,-1376.4 676.445,-1331.84 672.824,-1302.85"/>
<polygon fill="black" stroke="black" points="676.268,-1302.14 671.711,-1292.57 669.308,-1302.89 676.268,-1302.14"/>
</g>
<!-- EloBC&#45;&gt;Zyg11B_EloBC -->
<g id="edge35" class="edge"><title>EloBC&#45;&gt;Zyg11B_EloBC</title>
<path fill="none" stroke="black" d="M704.714,-1433.92C706.899,-1453.74 707.325,-1487.32 705.994,-1512.52"/>
<polygon fill="black" stroke="black" points="702.486,-1512.53 705.316,-1522.74 709.47,-1512.99 702.486,-1512.53"/>
</g>
<!-- EloC -->
<g id="node42" class="node"><title>EloC</title>
<ellipse fill="none" stroke="black" cx="727" cy="-1274.23" rx="18" ry="18"/>
<text text-anchor="middle" x="727" y="-1273.03" font-family="Times,serif" font-size="4.00">EloC</text>
</g>
<!-- EloBC&#45;&gt;EloC -->
<g id="edge33" class="edge"><title>EloBC&#45;&gt;EloC</title>
<path fill="none" stroke="black" d="M698.696,-1398.12C700.816,-1373.76 709.195,-1329.02 716.725,-1300.76"/>
<polygon fill="black" stroke="black" points="720.184,-1301.39 719.554,-1290.82 713.451,-1299.48 720.184,-1301.39"/>
</g>
<!-- substrate&#45;&gt;Cul2 ubiquitin ligase_Orf10_substrate -->
<g id="edge37" class="edge"><title>substrate&#45;&gt;Cul2 ubiquitin ligase_Orf10_substrate</title>
<path fill="none" stroke="black" d="M302.045,-998.917C300.811,-987.524 300.213,-971.875 300.252,-956.36"/>
<polygon fill="black" stroke="black" points="303.753,-956.269 300.369,-946.23 296.753,-956.188 303.753,-956.269"/>
</g>
<!-- substrate&#45;&gt;Cul2 ubiquitin ligase_substrate -->
<g id="edge36" class="edge"><title>substrate&#45;&gt;Cul2 ubiquitin ligase_substrate</title>
<path fill="none" stroke="black" d="M310.665,-1035.46C319.929,-1106.94 337.048,-1380.53 340.106,-1494.93"/>
<polygon fill="black" stroke="black" points="336.612,-1495.26 340.35,-1505.17 343.611,-1495.09 336.612,-1495.26"/>
</g>
<!-- Ubc12_NEDD8 -->
<g id="node19" class="node"><title>Ubc12_NEDD8</title>
<ellipse fill="none" stroke="black" cx="384" cy="-698.07" rx="23.7305" ry="23.7305"/>
<text text-anchor="middle" x="384" y="-696.87" font-family="Times,serif" font-size="4.00">Ubc12_NEDD8</text>
</g>
<!-- Ubc12_NEDD8&#45;&gt;Cul2 ubiquitin ligase_N8_Orf10_substrate -->
<g id="edge40" class="edge"><title>Ubc12_NEDD8&#45;&gt;Cul2 ubiquitin ligase_N8_Orf10_substrate</title>
<path fill="none" stroke="black" d="M373.412,-676.668C368.283,-666.783 361.851,-654.39 355.425,-642.006"/>
<polygon fill="black" stroke="black" points="358.478,-640.291 350.765,-633.027 352.265,-643.515 358.478,-640.291"/>
</g>
<!-- Ubc12_NEDD8&#45;&gt;Ubc12 -->
<g id="edge39" class="edge"><title>Ubc12_NEDD8&#45;&gt;Ubc12</title>
<path fill="none" stroke="black" d="M389.998,-721.332C390.894,-732.725 390.989,-746.67 390.284,-758.606"/>
<polygon fill="black" stroke="black" points="386.771,-758.611 389.411,-768.872 393.746,-759.204 386.771,-758.611"/>
</g>
<!-- Ubc12_NEDD8&#45;&gt;Cul2 ubiquitin ligase_substrate -->
<g id="edge38" class="edge"><title>Ubc12_NEDD8&#45;&gt;Cul2 ubiquitin ligase_substrate</title>
<path fill="none" stroke="black" d="M402.031,-714.235C436.422,-744.969 508,-818.424 508,-897.41 508,-1275.23 508,-1275.23 508,-1275.23 508,-1373.18 427.286,-1464.92 377.418,-1512.25"/>
<polygon fill="black" stroke="black" points="374.915,-1509.8 369.997,-1519.18 379.694,-1514.91 374.915,-1509.8"/>
</g>
<!-- 26S&#45;proteasom -->
<g id="node20" class="node"><title>26S&#45;proteasom</title>
<ellipse fill="none" stroke="black" cx="308" cy="-2007.3" rx="23.7305" ry="23.7305"/>
<text text-anchor="middle" x="308" y="-2006.1" font-family="Times,serif" font-size="4.00">26S&#45;proteasom</text>
</g>
<!-- Zyg11B_EloBC&#45;&gt;Cul2 ubiquitin ligase -->
<g id="edge43" class="edge"><title>Zyg11B_EloBC&#45;&gt;Cul2 ubiquitin ligase</title>
<path fill="none" stroke="black" d="M681.853,-1563.63C657.032,-1582.24 612.479,-1613.05 581.088,-1633.39"/>
<polygon fill="black" stroke="black" points="579.136,-1630.49 572.611,-1638.84 582.917,-1636.38 579.136,-1630.49"/>
</g>
<!-- Zyg11B_EloBC&#45;&gt;EloBC -->
<g id="edge42" class="edge"><title>Zyg11B_EloBC&#45;&gt;EloBC</title>
<path fill="none" stroke="black" d="M694.684,-1522.74C692.875,-1500.69 692.778,-1467.4 694.391,-1444.14"/>
<polygon fill="black" stroke="black" points="697.899,-1444.19 695.286,-1433.92 690.926,-1443.58 697.899,-1444.19"/>
</g>
<!-- Zyg11B -->
<g id="node39" class="node"><title>Zyg11B</title>
<ellipse fill="none" stroke="black" cx="754" cy="-1416.29" rx="18" ry="18"/>
<text text-anchor="middle" x="754" y="-1415.09" font-family="Times,serif" font-size="4.00">Zyg11B</text>
</g>
<!-- Zyg11B_EloBC&#45;&gt;Zyg11B -->
<g id="edge41" class="edge"><title>Zyg11B_EloBC&#45;&gt;Zyg11B</title>
<path fill="none" stroke="black" d="M704.439,-1522.44C712.341,-1499.17 727.313,-1463.58 738.968,-1440.37"/>
<polygon fill="black" stroke="black" points="742.202,-1441.74 743.729,-1431.25 735.997,-1438.5 742.202,-1441.74"/>
</g>
<!-- Cul2 ubiquitin ligase_N8_Orf10_0E2_substrate -->
<g id="node23" class="node"><title>Cul2 ubiquitin ligase_N8_Orf10_0E2_substrate</title>
<ellipse fill="none" stroke="black" cx="253" cy="-440.985" rx="57.0522" ry="57.0522"/>
<text text-anchor="middle" x="253" y="-439.785" font-family="Times,serif" font-size="4.00">Cul2 ubiquitin ligase_N8_Orf10_0E2_substrate</text>
</g>
<!-- Cul2 ubiquitin ligase_N8_Orf10_substrate&#45;&gt;Cul2 ubiquitin ligase_N8_Orf10_0E2_substrate -->
<g id="edge44" class="edge"><title>Cul2 ubiquitin ligase_N8_Orf10_substrate&#45;&gt;Cul2 ubiquitin ligase_N8_Orf10_0E2_substrate</title>
<path fill="none" stroke="black" d="M298.552,-542.254C291.869,-530.184 284.813,-516.816 278.279,-503.879"/>
<polygon fill="black" stroke="black" points="281.225,-501.943 273.626,-494.559 274.962,-505.07 281.225,-501.943"/>
</g>
<!-- Cul2 ubiquitin ligase_N8_Orf10_E2&#45;Ub_substrate -->
<g id="node32" class="node"><title>Cul2 ubiquitin ligase_N8_Orf10_E2&#45;Ub_substrate</title>
<ellipse fill="none" stroke="black" cx="255" cy="-215.782" rx="59.8547" ry="59.8547"/>
<text text-anchor="middle" x="255" y="-214.582" font-family="Times,serif" font-size="4.00">Cul2 ubiquitin ligase_N8_Orf10_E2&#45;Ub_substrate</text>
</g>
<!-- Cul2 ubiquitin ligase_N8_Orf10_substrate&#45;&gt;Cul2 ubiquitin ligase_N8_Orf10_E2&#45;Ub_substrate -->
<g id="edge45" class="edge"><title>Cul2 ubiquitin ligase_N8_Orf10_substrate&#45;&gt;Cul2 ubiquitin ligase_N8_Orf10_E2&#45;Ub_substrate</title>
<path fill="none" stroke="black" d="M322.229,-534.161C321.47,-493.089 320.372,-434.124 310,-383.709 302.917,-349.282 289.577,-312.649 277.681,-282.498"/>
<polygon fill="black" stroke="black" points="280.829,-280.943 273.879,-272.947 274.326,-283.532 280.829,-280.943"/>
</g>
<!-- Cul2 ubiquitin ligase_N8_Orf10_0E2_substrate&#45;&gt;Cul2 ubiquitin ligase_N8_Orf10_substrate -->
<g id="edge47" class="edge"><title>Cul2 ubiquitin ligase_N8_Orf10_0E2_substrate&#45;&gt;Cul2 ubiquitin ligase_N8_Orf10_substrate</title>
<path fill="none" stroke="black" d="M283.931,-489.476C290.729,-501.907 297.793,-515.437 304.214,-528.305"/>
<polygon fill="black" stroke="black" points="301.202,-530.111 308.763,-537.533 307.481,-527.016 301.202,-530.111"/>
</g>
<!-- E2 -->
<g id="node33" class="node"><title>E2</title>
<ellipse fill="none" stroke="black" cx="253" cy="-329.709" rx="18" ry="18"/>
<text text-anchor="middle" x="253" y="-328.509" font-family="Times,serif" font-size="4.00">E2</text>
</g>
<!-- Cul2 ubiquitin ligase_N8_Orf10_0E2_substrate&#45;&gt;E2 -->
<g id="edge46" class="edge"><title>Cul2 ubiquitin ligase_N8_Orf10_0E2_substrate&#45;&gt;E2</title>
<path fill="none" stroke="black" d="M246.252,-384.067C246.276,-374.72 246.563,-365.423 247.114,-357.271"/>
<polygon fill="black" stroke="black" points="250.601,-357.574 247.991,-347.306 243.628,-356.961 250.601,-357.574"/>
</g>
<!-- Ubc12&#45;&gt;Ubc12_NEDD8 -->
<g id="edge48" class="edge"><title>Ubc12&#45;&gt;Ubc12_NEDD8</title>
<path fill="none" stroke="black" d="M378.589,-768.872C377.369,-758.383 376.983,-744.349 377.43,-731.616"/>
<polygon fill="black" stroke="black" points="380.941,-731.511 378.002,-721.332 373.952,-731.123 380.941,-731.511"/>
</g>
<!-- Cul2 ubiquitin ligase_N8_E2_substrate&#45;Ub -->
<g id="node25" class="node"><title>Cul2 ubiquitin ligase_N8_E2_substrate&#45;Ub</title>
<ellipse fill="none" stroke="black" cx="249" cy="-1274.23" rx="53.066" ry="53.066"/>
<text text-anchor="middle" x="249" y="-1273.03" font-family="Times,serif" font-size="4.00">Cul2 ubiquitin ligase_N8_E2_substrate&#45;Ub</text>
</g>
<!-- Cul2 ubiquitin ligase_N8_E2_substrate&#45;Ub&#45;&gt;Cul2 ubiquitin ligase_N8_substrate&#45;Ub -->
<g id="edge50" class="edge"><title>Cul2 ubiquitin ligase_N8_E2_substrate&#45;Ub&#45;&gt;Cul2 ubiquitin ligase_N8_substrate&#45;Ub</title>
<path fill="none" stroke="black" d="M287.211,-1237.19C306.569,-1218.93 330.14,-1196.69 350.116,-1177.85"/>
<polygon fill="black" stroke="black" points="352.706,-1180.22 357.579,-1170.81 347.903,-1175.13 352.706,-1180.22"/>
</g>
<!-- Cul2 ubiquitin ligase_N8_E2_substrate&#45;Ub&#45;&gt;E2 -->
<g id="edge49" class="edge"><title>Cul2 ubiquitin ligase_N8_E2_substrate&#45;Ub&#45;&gt;E2</title>
<path fill="none" stroke="black" d="M224.697,-1226.68C200.838,-1176.58 168,-1093.88 168,-1018.14 168,-1018.14 168,-1018.14 168,-585.233 168,-495.27 144.335,-462.912 187,-383.709 196.292,-366.459 213.807,-352.801 228.46,-343.673"/>
<polygon fill="black" stroke="black" points="230.269,-346.669 237.115,-338.583 226.72,-340.636 230.269,-346.669"/>
</g>
<!-- Cul2&#45;&gt;Rbx1_Cul2 -->
<g id="edge51" class="edge"><title>Cul2&#45;&gt;Rbx1_Cul2</title>
<path fill="none" stroke="black" d="M596.976,-1433.94C599.611,-1454.91 600.521,-1491.28 599.295,-1516.82"/>
<polygon fill="black" stroke="black" points="595.787,-1516.82 598.637,-1527.02 602.773,-1517.27 595.787,-1516.82"/>
</g>
<!-- E1&#45;&gt;PPi -->
<g id="edge53" class="edge"><title>E1&#45;&gt;PPi</title>
<path fill="none" stroke="black" d="M363.827,-201.128C385.026,-174.394 432.164,-114.949 457.721,-82.7174"/>
<polygon fill="black" stroke="black" points="460.551,-84.7816 464.022,-74.7714 455.066,-80.4323 460.551,-84.7816"/>
</g>
<!-- E1&#45;&gt;AMP -->
<g id="edge54" class="edge"><title>E1&#45;&gt;AMP</title>
<path fill="none" stroke="black" d="M357.923,-198.317C365.877,-171.712 381.625,-119.042 391.144,-87.2045"/>
<polygon fill="black" stroke="black" points="394.601,-87.8576 394.113,-77.274 387.895,-85.8524 394.601,-87.8576"/>
</g>
<!-- E1&#45;&gt;E2 -->
<g id="edge52" class="edge"><title>E1&#45;&gt;E2</title>
<path fill="none" stroke="black" d="M354.56,-233.761C351.25,-246.252 343.422,-263.17 333,-275.709 318.234,-293.476 296.356,-308.638 278.977,-318.136"/>
<polygon fill="black" stroke="black" points="277.16,-315.134 269.858,-322.811 280.353,-321.364 277.16,-315.134"/>
</g>
<!-- Cul2 ubiquitin ligase_N8_E2_substrate -->
<g id="node29" class="node"><title>Cul2 ubiquitin ligase_N8_E2_substrate</title>
<ellipse fill="none" stroke="black" cx="68" cy="-215.782" rx="49.142" ry="49.142"/>
<text text-anchor="middle" x="68" y="-214.582" font-family="Times,serif" font-size="4.00">Cul2 ubiquitin ligase_N8_E2_substrate</text>
</g>
<!-- Cul2 ubiquitin ligase_N8_E2_substrate&#45;&gt;E2 -->
<g id="edge56" class="edge"><title>Cul2 ubiquitin ligase_N8_E2_substrate&#45;&gt;E2</title>
<path fill="none" stroke="black" d="M111.562,-239.764C148.989,-261.347 201.272,-293.106 230.759,-312.259"/>
<polygon fill="black" stroke="black" points="228.859,-315.199 239.136,-317.773 232.707,-309.352 228.859,-315.199"/>
</g>
<!-- Cul2 ubiquitin ligase_N8_E2_substrate&#45;&gt;Cul2 ubiquitin ligase_substrate -->
<g id="edge55" class="edge"><title>Cul2 ubiquitin ligase_N8_E2_substrate&#45;&gt;Cul2 ubiquitin ligase_substrate</title>
<path fill="none" stroke="black" d="M54.9887,-263.726C39.9089,-308.252 18,-377.458 18,-439.985 18,-1275.23 18,-1275.23 18,-1275.23 18,-1416.24 200.475,-1497.09 290.344,-1529.28"/>
<polygon fill="black" stroke="black" points="289.451,-1532.68 300.046,-1532.69 291.776,-1526.07 289.451,-1532.68"/>
</g>
<!-- NAE_NEDD8&#45;&gt;Ubc12_NEDD8 -->
<g id="edge57" class="edge"><title>NAE_NEDD8&#45;&gt;Ubc12_NEDD8</title>
<path fill="none" stroke="black" d="M541.373,-771.197C535.469,-766.645 528.637,-761.773 522,-757.935 487.308,-737.873 444.468,-720.663 415.807,-710.124"/>
<polygon fill="black" stroke="black" points="416.891,-706.794 406.296,-706.68 414.507,-713.376 416.891,-706.794"/>
</g>
<!-- DUB -->
<g id="node31" class="node"><title>DUB</title>
<ellipse fill="none" stroke="black" cx="252" cy="-1136.4" rx="18" ry="18"/>
<text text-anchor="middle" x="252" y="-1135.2" font-family="Times,serif" font-size="4.00">DUB</text>
</g>
<!-- DUB&#45;&gt;substrate -->
<g id="edge58" class="edge"><title>DUB&#45;&gt;substrate</title>
<path fill="none" stroke="black" d="M259.418,-1119.59C268.551,-1100.12 284.184,-1066.79 295.026,-1043.67"/>
<polygon fill="black" stroke="black" points="298.269,-1045 299.347,-1034.46 291.932,-1042.03 298.269,-1045"/>
</g>
<!-- Cul2 ubiquitin ligase_N8_Orf10_E2&#45;Ub_substrate&#45;&gt;Cul2 ubiquitin ligase_N8_Orf10_substrate -->
<g id="edge60" class="edge"><title>Cul2 ubiquitin ligase_N8_Orf10_E2&#45;Ub_substrate&#45;&gt;Cul2 ubiquitin ligase_N8_Orf10_substrate</title>
<path fill="none" stroke="black" d="M286.751,-266.626C302.477,-299.146 319.619,-342.972 328,-383.709 337.606,-430.403 339.257,-484.43 337.344,-524.783"/>
<polygon fill="black" stroke="black" points="333.837,-524.815 336.766,-534.996 340.826,-525.21 333.837,-524.815"/>
</g>
<!-- Cul2 ubiquitin ligase_N8_Orf10_E2&#45;Ub_substrate&#45;&gt;E2 -->
<g id="edge59" class="edge"><title>Cul2 ubiquitin ligase_N8_Orf10_E2&#45;Ub_substrate&#45;&gt;E2</title>
<path fill="none" stroke="black" d="M260.687,-275.772C260.469,-284.986 260.008,-294.089 259.323,-302.081"/>
<polygon fill="black" stroke="black" points="255.824,-301.881 258.25,-312.194 262.785,-302.619 255.824,-301.881"/>
</g>
<!-- Cul2 ubiquitin ligase_N8_Orf10_E2_substrate&#45;Ub -->
<g id="node37" class="node"><title>Cul2 ubiquitin ligase_N8_Orf10_E2_substrate&#45;Ub</title>
<ellipse fill="none" stroke="black" cx="255" cy="-59.9273" rx="59.8547" ry="59.8547"/>
<text text-anchor="middle" x="255" y="-58.7273" font-family="Times,serif" font-size="4.00">Cul2 ubiquitin ligase_N8_Orf10_E2_substrate&#45;Ub</text>
</g>
<!-- Cul2 ubiquitin ligase_N8_Orf10_E2&#45;Ub_substrate&#45;&gt;Cul2 ubiquitin ligase_N8_Orf10_E2_substrate&#45;Ub -->
<g id="edge61" class="edge"><title>Cul2 ubiquitin ligase_N8_Orf10_E2&#45;Ub_substrate&#45;&gt;Cul2 ubiquitin ligase_N8_Orf10_E2_substrate&#45;Ub</title>
<path fill="none" stroke="black" d="M255,-155.738C255,-147.424 255,-138.815 255,-130.329"/>
<polygon fill="black" stroke="black" points="258.5,-130.068 255,-120.068 251.5,-130.068 258.5,-130.068"/>
</g>
<!-- E2&#45;&gt;Cul2 ubiquitin ligase_N8_Orf10_0E2_substrate -->
<g id="edge64" class="edge"><title>E2&#45;&gt;Cul2 ubiquitin ligase_N8_Orf10_0E2_substrate</title>
<path fill="none" stroke="black" d="M258.009,-347.306C258.853,-354.79 259.39,-364.164 259.62,-374.055"/>
<polygon fill="black" stroke="black" points="256.121,-374.112 259.748,-384.067 263.12,-374.023 256.121,-374.112"/>
</g>
<!-- E2&#45;&gt;E1 -->
<g id="edge66" class="edge"><title>E2&#45;&gt;E1</title>
<path fill="none" stroke="black" d="M266.064,-317.132C279.859,-307.587 300.744,-292.862 315,-275.709 323.996,-264.885 331.059,-250.799 336.971,-239.113"/>
<polygon fill="black" stroke="black" points="340.205,-240.477 341.683,-229.986 333.985,-237.266 340.205,-240.477"/>
</g>
<!-- E2&#45;&gt;Cul2 ubiquitin ligase_N8_E2_substrate -->
<g id="edge63" class="edge"><title>E2&#45;&gt;Cul2 ubiquitin ligase_N8_E2_substrate</title>
<path fill="none" stroke="black" d="M236.979,-321.192C210.32,-306.853 156.488,-274.815 116.651,-249.984"/>
<polygon fill="black" stroke="black" points="118.456,-246.985 108.123,-244.644 114.741,-252.918 118.456,-246.985"/>
</g>
<!-- E2&#45;&gt;Cul2 ubiquitin ligase_N8_Orf10_E2&#45;Ub_substrate -->
<g id="edge65" class="edge"><title>E2&#45;&gt;Cul2 ubiquitin ligase_N8_Orf10_E2&#45;Ub_substrate</title>
<path fill="none" stroke="black" d="M248.34,-312.194C247.629,-304.714 247.25,-295.322 247.179,-285.368"/>
<polygon fill="black" stroke="black" points="250.68,-285.287 247.211,-275.276 243.68,-285.265 250.68,-285.287"/>
</g>
<!-- Cul2 ubiquitin ligase_N8_E2&#45;Ub_substrate -->
<g id="node36" class="node"><title>Cul2 ubiquitin ligase_N8_E2&#45;Ub_substrate</title>
<ellipse fill="none" stroke="black" cx="249" cy="-1416.29" rx="53.066" ry="53.066"/>
<text text-anchor="middle" x="249" y="-1415.09" font-family="Times,serif" font-size="4.00">Cul2 ubiquitin ligase_N8_E2&#45;Ub_substrate</text>
</g>
<!-- E2&#45;&gt;Cul2 ubiquitin ligase_N8_E2&#45;Ub_substrate -->
<g id="edge62" class="edge"><title>E2&#45;&gt;Cul2 ubiquitin ligase_N8_E2&#45;Ub_substrate</title>
<path fill="none" stroke="black" d="M236.419,-337.4C216.494,-344.949 184.381,-359.453 167,-383.709 113.96,-457.731 130,-494.17 130,-585.233 130,-1137.4 130,-1137.4 130,-1137.4 130,-1221.93 179.464,-1308.76 214.733,-1362.36"/>
<polygon fill="black" stroke="black" points="212.026,-1364.61 220.48,-1370.99 217.854,-1360.73 212.026,-1364.61"/>
</g>
<!-- Pevonedistat&#45;&gt;NAE_Pevonedistat -->
<g id="edge67" class="edge"><title>Pevonedistat&#45;&gt;NAE_Pevonedistat</title>
<path fill="none" stroke="black" d="M631.82,-719.227C632.6,-727.877 632.889,-738.266 632.688,-748.206"/>
<polygon fill="black" stroke="black" points="629.187,-748.185 632.301,-758.311 636.181,-748.453 629.187,-748.185"/>
</g>
<!-- CSN5 -->
<g id="node35" class="node"><title>CSN5</title>
<ellipse fill="none" stroke="black" cx="368" cy="-2007.3" rx="18" ry="18"/>
<text text-anchor="middle" x="368" y="-2006.1" font-family="Times,serif" font-size="4.00">CSN5</text>
</g>
<!-- Cul2 ubiquitin ligase_N8_E2&#45;Ub_substrate&#45;&gt;Cul2 ubiquitin ligase_N8_E2_substrate&#45;Ub -->
<g id="edge68" class="edge"><title>Cul2 ubiquitin ligase_N8_E2&#45;Ub_substrate&#45;&gt;Cul2 ubiquitin ligase_N8_E2_substrate&#45;Ub</title>
<path fill="none" stroke="black" d="M249,-1363.14C249,-1354.84 249,-1346.19 249,-1337.69"/>
<polygon fill="black" stroke="black" points="252.5,-1337.43 249,-1327.43 245.5,-1337.43 252.5,-1337.43"/>
</g>
<!-- Cul2 ubiquitin ligase_N8_E2&#45;Ub_substrate&#45;&gt;E2 -->
<g id="edge70" class="edge"><title>Cul2 ubiquitin ligase_N8_E2&#45;Ub_substrate&#45;&gt;E2</title>
<path fill="none" stroke="black" d="M212.541,-1377.35C171.814,-1326.08 112,-1230.36 112,-1137.4 112,-1137.4 112,-1137.4 112,-585.233 112,-494.17 95.9598,-457.731 149,-383.709 167.096,-358.455 201.162,-343.773 225.59,-336.503"/>
<polygon fill="black" stroke="black" points="226.666,-339.837 235.394,-333.832 224.826,-333.084 226.666,-339.837"/>
</g>
<!-- Cul2 ubiquitin ligase_N8_E2&#45;Ub_substrate&#45;&gt;Cul2 ubiquitin ligase_substrate -->
<g id="edge69" class="edge"><title>Cul2 ubiquitin ligase_N8_E2&#45;Ub_substrate&#45;&gt;Cul2 ubiquitin ligase_substrate</title>
<path fill="none" stroke="black" d="M283.262,-1457.18C293.52,-1471.05 304.541,-1486.7 314.092,-1500.93"/>
<polygon fill="black" stroke="black" points="311.387,-1503.18 319.83,-1509.58 317.221,-1499.31 311.387,-1503.18"/>
</g>
<!-- NAE1 -->
<g id="node38" class="node"><title>NAE1</title>
<ellipse fill="none" stroke="black" cx="690" cy="-786.042" rx="18" ry="18"/>
<text text-anchor="middle" x="690" y="-784.842" font-family="Times,serif" font-size="4.00">NAE1</text>
</g>
<!-- NAE1&#45;&gt;NAE -->
<g id="edge71" class="edge"><title>NAE1&#45;&gt;NAE</title>
<path fill="none" stroke="black" d="M694.986,-803.601C696.982,-821.287 697.284,-849.592 695.892,-870.49"/>
<polygon fill="black" stroke="black" points="692.388,-870.382 695.009,-880.647 699.362,-870.988 692.388,-870.382"/>
</g>
<!-- Zyg11B&#45;&gt;Zyg11B_EloBC -->
<g id="edge72" class="edge"><title>Zyg11B&#45;&gt;Zyg11B_EloBC</title>
<path fill="none" stroke="black" d="M751.564,-1434.42C744.981,-1455.45 730.176,-1491.43 717.91,-1516.77"/>
<polygon fill="black" stroke="black" points="714.683,-1515.4 713.355,-1525.91 720.948,-1518.52 714.683,-1515.4"/>
</g>
<!-- Cul2 ubiquitin ligase_substrate&#45;&gt;Cul2 ubiquitin ligase -->
<g id="edge74" class="edge"><title>Cul2 ubiquitin ligase_substrate&#45;&gt;Cul2 ubiquitin ligase</title>
<path fill="none" stroke="black" d="M376.645,-1564.39C414.955,-1582.96 473.65,-1612.98 510.986,-1633.05"/>
<polygon fill="black" stroke="black" points="509.532,-1636.25 519.992,-1637.93 512.864,-1630.09 509.532,-1636.25"/>
</g>
<!-- Cul2 ubiquitin ligase_substrate&#45;&gt;substrate -->
<g id="edge73" class="edge"><title>Cul2 ubiquitin ligase_substrate&#45;&gt;substrate</title>
<path fill="none" stroke="black" d="M332.778,-1505.61C322.449,-1403.22 306.299,-1134 305.455,-1046.24"/>
<polygon fill="black" stroke="black" points="308.955,-1046 305.432,-1036 301.955,-1046.01 308.955,-1046"/>
</g>
<!-- Cul2 ubiquitin ligase_substrate&#45;&gt;Ubc12 -->
<g id="edge75" class="edge"><title>Cul2 ubiquitin ligase_substrate&#45;&gt;Ubc12</title>
<path fill="none" stroke="black" d="M354.805,-1508.17C381.051,-1443.6 432.562,-1306.69 451,-1185.19 457.507,-1142.32 470.395,-1126.4 451,-1087.61 439.074,-1063.76 415.773,-1075.02 403,-1051.61 360.668,-974.031 371.128,-864.079 379.018,-813.893"/>
<polygon fill="black" stroke="black" points="382.501,-814.287 380.691,-803.848 375.596,-813.137 382.501,-814.287"/>
</g>
<!-- Cul2 ubiquitin ligase_substrate&#45;&gt;Cul2 ubiquitin ligase_N8_E2_substrate -->
<g id="edge76" class="edge"><title>Cul2 ubiquitin ligase_substrate&#45;&gt;Cul2 ubiquitin ligase_N8_E2_substrate</title>
<path fill="none" stroke="black" d="M298.908,-1535.35C209.04,-1508.16 0,-1426.16 0,-1275.23 0,-1275.23 0,-1275.23 0,-439.985 0,-379.492 20.5068,-312.747 39.185,-268.148"/>
<polygon fill="black" stroke="black" points="42.5134,-269.268 43.2582,-258.699 36.0853,-266.497 42.5134,-269.268"/>
</g>
<!-- Cul2 ubiquitin ligase_substrate&#45;&gt;Cul2 ubiquitin ligase_N8_E2&#45;Ub_substrate -->
<g id="edge77" class="edge"><title>Cul2 ubiquitin ligase_substrate&#45;&gt;Cul2 ubiquitin ligase_N8_E2&#45;Ub_substrate</title>
<path fill="none" stroke="black" d="M311.831,-1515.26C301.932,-1502.24 290.711,-1486.64 280.487,-1471.74"/>
<polygon fill="black" stroke="black" points="283.116,-1469.39 274.6,-1463.08 277.327,-1473.32 283.116,-1469.39"/>
</g>
<!-- NAE&#45;&gt;NAE_Pevonedistat -->
<g id="edge79" class="edge"><title>NAE&#45;&gt;NAE_Pevonedistat</title>
<path fill="none" stroke="black" d="M678.164,-884.749C667.204,-869.558 651.456,-843.458 639.97,-822.053"/>
<polygon fill="black" stroke="black" points="642.921,-820.144 635.18,-812.91 636.72,-823.392 642.921,-820.144"/>
</g>
<!-- NAE&#45;&gt;NAE_NEDD8 -->
<g id="edge78" class="edge"><title>NAE&#45;&gt;NAE_NEDD8</title>
<path fill="none" stroke="black" d="M676.5,-886.489C657.033,-870.694 620.007,-840.478 589,-814.15 586.752,-812.241 584.423,-810.244 582.099,-808.236"/>
<polygon fill="black" stroke="black" points="584.175,-805.403 574.333,-801.482 579.582,-810.685 584.175,-805.403"/>
</g>
<!-- NAE&#45;&gt;NAE1 -->
<g id="edge81" class="edge"><title>NAE&#45;&gt;NAE1</title>
<path fill="none" stroke="black" d="M684.991,-880.647C683.008,-862.88 682.719,-834.563 684.124,-813.722"/>
<polygon fill="black" stroke="black" points="687.625,-813.869 685.014,-803.601 680.652,-813.256 687.625,-813.869"/>
</g>
<!-- UBA3 -->
<g id="node43" class="node"><title>UBA3</title>
<ellipse fill="none" stroke="black" cx="744" cy="-786.042" rx="18" ry="18"/>
<text text-anchor="middle" x="744" y="-784.842" font-family="Times,serif" font-size="4.00">UBA3</text>
</g>
<!-- NAE&#45;&gt;UBA3 -->
<g id="edge80" class="edge"><title>NAE&#45;&gt;UBA3</title>
<path fill="none" stroke="black" d="M693.192,-880.647C700.414,-861.527 715.574,-830.189 727.683,-809.099"/>
<polygon fill="black" stroke="black" points="730.706,-810.864 732.822,-800.482 724.694,-807.278 730.706,-810.864"/>
</g>
<!-- EloC&#45;&gt;EloBC -->
<g id="edge82" class="edge"><title>EloC&#45;&gt;EloBC</title>
<path fill="none" stroke="black" d="M728.289,-1292.57C726.143,-1316.99 717.769,-1361.67 710.25,-1389.85"/>
<polygon fill="black" stroke="black" points="706.799,-1389.19 707.425,-1399.77 713.531,-1391.11 706.799,-1389.19"/>
</g>
<!-- UBA3&#45;&gt;NAE -->
<g id="edge83" class="edge"><title>UBA3&#45;&gt;NAE</title>
<path fill="none" stroke="black" d="M740.757,-803.94C733.524,-823.049 718.435,-854.236 706.362,-875.275"/>
<polygon fill="black" stroke="black" points="703.349,-873.495 701.236,-883.877 709.362,-877.078 703.349,-873.495"/>
</g>
</g>
</svg>
