<?xml version="1.0" encoding="UTF-8" standalone="no"?>
<!DOCTYPE svg PUBLIC "-//W3C//DTD SVG 1.1//EN"
 "http://www.w3.org/Graphics/SVG/1.1/DTD/svg11.dtd">
<!-- Generated by graphviz version 2.38.0 (20140413.2041)
 -->
<!-- Title: G Pages: 1 -->
<svg width="764pt" height="1985pt"
 viewBox="0.00 0.00 763.55 1985.01" xmlns="http://www.w3.org/2000/svg" xmlns:xlink="http://www.w3.org/1999/xlink">
<g id="graph0" class="graph" transform="scale(1 1) rotate(0) translate(4 1981.01)">
<title>G</title>
<polygon fill="white" stroke="none" points="-4,4 -4,-1981.01 759.549,-1981.01 759.549,4 -4,4"/>
<!-- UBA3 -->
<g id="node1" class="node"><title>UBA3</title>
<ellipse fill="none" stroke="black" cx="144" cy="-1953.14" rx="18" ry="18"/>
<text text-anchor="middle" x="144" y="-1951.94" font-family="Times,serif" font-size="4.00">UBA3</text>
</g>
<!-- NAE -->
<g id="node12" class="node"><title>NAE</title>
<ellipse fill="none" stroke="black" cx="144" cy="-1875.28" rx="18" ry="18"/>
<text text-anchor="middle" x="144" y="-1874.08" font-family="Times,serif" font-size="4.00">NAE</text>
</g>
<!-- UBA3&#45;&gt;NAE -->
<g id="edge1" class="edge"><title>UBA3&#45;&gt;NAE</title>
<path fill="none" stroke="black" d="M138.322,-1935.68C137.231,-1925.97 136.973,-1913.46 137.548,-1902.43"/>
<polygon fill="black" stroke="black" points="141.038,-1902.7 138.355,-1892.45 134.061,-1902.13 141.038,-1902.7"/>
</g>
<!-- NEDD8 -->
<g id="node2" class="node"><title>NEDD8</title>
<ellipse fill="none" stroke="black" cx="76" cy="-1875.28" rx="18" ry="18"/>
<text text-anchor="middle" x="76" y="-1874.08" font-family="Times,serif" font-size="4.00">NEDD8</text>
</g>
<!-- NAE_NEDD8 -->
<g id="node27" class="node"><title>NAE_NEDD8</title>
<ellipse fill="none" stroke="black" cx="76" cy="-1793.17" rx="22.05" ry="22.05"/>
<text text-anchor="middle" x="76" y="-1791.97" font-family="Times,serif" font-size="4.00">NAE_NEDD8</text>
</g>
<!-- NEDD8&#45;&gt;NAE_NEDD8 -->
<g id="edge2" class="edge"><title>NEDD8&#45;&gt;NAE_NEDD8</title>
<path fill="none" stroke="black" d="M76,-1856.9C76,-1847.78 76,-1836.34 76,-1825.73"/>
<polygon fill="black" stroke="black" points="79.5001,-1825.51 76,-1815.51 72.5001,-1825.51 79.5001,-1825.51"/>
</g>
<!-- Cul2 ubiquitin ligase_N8 -->
<g id="node3" class="node"><title>Cul2 ubiquitin ligase_N8</title>
<ellipse fill="none" stroke="black" cx="270" cy="-494.548" rx="34.4429" ry="34.4429"/>
<text text-anchor="middle" x="270" y="-493.348" font-family="Times,serif" font-size="4.00">Cul2 ubiquitin ligase_N8</text>
</g>
<!-- Cul2 ubiquitin ligase -->
<g id="node9" class="node"><title>Cul2 ubiquitin ligase</title>
<ellipse fill="none" stroke="black" cx="218" cy="-361.498" rx="30.5202" ry="30.5202"/>
<text text-anchor="middle" x="218" y="-360.298" font-family="Times,serif" font-size="4.00">Cul2 ubiquitin ligase</text>
</g>
<!-- Cul2 ubiquitin ligase_N8&#45;&gt;Cul2 ubiquitin ligase -->
<g id="edge3" class="edge"><title>Cul2 ubiquitin ligase_N8&#45;&gt;Cul2 ubiquitin ligase</title>
<path fill="none" stroke="black" d="M257.545,-462.158C250.142,-443.502 240.707,-419.724 232.91,-400.073"/>
<polygon fill="black" stroke="black" points="236.057,-398.515 229.115,-390.511 229.55,-401.097 236.057,-398.515"/>
</g>
<!-- Cul2 ubiquitin ligase_N8_E2_substrate&#45;Ub -->
<g id="node4" class="node"><title>Cul2 ubiquitin ligase_N8_E2_substrate&#45;Ub</title>
<ellipse fill="none" stroke="black" cx="525" cy="-772.847" rx="53.066" ry="53.066"/>
<text text-anchor="middle" x="525" y="-771.647" font-family="Times,serif" font-size="4.00">Cul2 ubiquitin ligase_N8_E2_substrate&#45;Ub</text>
</g>
<!-- Cul2 ubiquitin ligase_N8_substrate&#45;Ub -->
<g id="node6" class="node"><title>Cul2 ubiquitin ligase_N8_substrate&#45;Ub</title>
<ellipse fill="none" stroke="black" cx="525" cy="-635.023" rx="48.5816" ry="48.5816"/>
<text text-anchor="middle" x="525" y="-633.823" font-family="Times,serif" font-size="4.00">Cul2 ubiquitin ligase_N8_substrate&#45;Ub</text>
</g>
<!-- Cul2 ubiquitin ligase_N8_E2_substrate&#45;Ub&#45;&gt;Cul2 ubiquitin ligase_N8_substrate&#45;Ub -->
<g id="edge4" class="edge"><title>Cul2 ubiquitin ligase_N8_E2_substrate&#45;Ub&#45;&gt;Cul2 ubiquitin ligase_N8_substrate&#45;Ub</title>
<path fill="none" stroke="black" d="M525,-719.722C525,-711.425 525,-702.795 525,-694.366"/>
<polygon fill="black" stroke="black" points="528.5,-694.22 525,-684.22 521.5,-694.22 528.5,-694.22"/>
</g>
<!-- E2 -->
<g id="node34" class="node"><title>E2</title>
<ellipse fill="none" stroke="black" cx="399" cy="-1333.65" rx="18" ry="18"/>
<text text-anchor="middle" x="399" y="-1332.45" font-family="Times,serif" font-size="4.00">E2</text>
</g>
<!-- Cul2 ubiquitin ligase_N8_E2_substrate&#45;Ub&#45;&gt;E2 -->
<g id="edge5" class="edge"><title>Cul2 ubiquitin ligase_N8_E2_substrate&#45;Ub&#45;&gt;E2</title>
<path fill="none" stroke="black" d="M539.828,-824.189C542.803,-836.416 545.48,-849.527 547,-861.88 569.84,-1047.48 605.204,-1127.14 497,-1279.65 480.015,-1303.6 448.729,-1317.78 426.066,-1325.36"/>
<polygon fill="black" stroke="black" points="424.848,-1322.07 416.342,-1328.39 426.931,-1328.75 424.848,-1322.07"/>
</g>
<!-- ATP -->
<g id="node5" class="node"><title>ATP</title>
<ellipse fill="none" stroke="black" cx="650" cy="-1333.65" rx="18" ry="18"/>
<text text-anchor="middle" x="650" y="-1332.45" font-family="Times,serif" font-size="4.00">ATP</text>
</g>
<!-- AMP -->
<g id="node15" class="node"><title>AMP</title>
<ellipse fill="none" stroke="black" cx="646" cy="-1063.87" rx="18" ry="18"/>
<text text-anchor="middle" x="646" y="-1062.67" font-family="Times,serif" font-size="4.00">AMP</text>
</g>
<!-- ATP&#45;&gt;AMP -->
<g id="edge7" class="edge"><title>ATP&#45;&gt;AMP</title>
<path fill="none" stroke="black" d="M640.199,-1318.09C633.912,-1307.83 626.326,-1293.51 623,-1279.65 606.976,-1212.9 625.631,-1131.79 637.561,-1090.98"/>
<polygon fill="black" stroke="black" points="640.951,-1091.87 640.496,-1081.28 634.25,-1089.84 640.951,-1091.87"/>
</g>
<!-- E1 -->
<g id="node20" class="node"><title>E1</title>
<ellipse fill="none" stroke="black" cx="650" cy="-1219.73" rx="18" ry="18"/>
<text text-anchor="middle" x="650" y="-1218.53" font-family="Times,serif" font-size="4.00">E1</text>
</g>
<!-- ATP&#45;&gt;E1 -->
<g id="edge6" class="edge"><title>ATP&#45;&gt;E1</title>
<path fill="none" stroke="black" d="M650,-1315.17C650,-1297.26 650,-1269.17 650,-1248.27"/>
<polygon fill="black" stroke="black" points="653.5,-1248.09 650,-1238.09 646.5,-1248.09 653.5,-1248.09"/>
</g>
<!-- PPi -->
<g id="node42" class="node"><title>PPi</title>
<ellipse fill="none" stroke="black" cx="700" cy="-1063.87" rx="18" ry="18"/>
<text text-anchor="middle" x="700" y="-1062.67" font-family="Times,serif" font-size="4.00">PPi</text>
</g>
<!-- ATP&#45;&gt;PPi -->
<g id="edge8" class="edge"><title>ATP&#45;&gt;PPi</title>
<path fill="none" stroke="black" d="M659.333,-1317.96C665.411,-1307.65 672.94,-1293.31 677,-1279.65 696.421,-1214.32 699.858,-1133.49 700.219,-1092.1"/>
<polygon fill="black" stroke="black" points="703.719,-1092 700.251,-1081.99 696.719,-1091.98 703.719,-1092"/>
</g>
<!-- Cul2 ubiquitin ligase_N8_substrate&#45;Ub&#45;&gt;Cul2 ubiquitin ligase_N8 -->
<g id="edge10" class="edge"><title>Cul2 ubiquitin ligase_N8_substrate&#45;Ub&#45;&gt;Cul2 ubiquitin ligase_N8</title>
<path fill="none" stroke="black" d="M477.626,-623.014C432.143,-610.757 363.139,-587.597 313,-550.233 306.327,-545.26 300.131,-539.002 294.638,-532.512"/>
<polygon fill="black" stroke="black" points="297.034,-529.9 288.075,-524.245 291.552,-534.253 297.034,-529.9"/>
</g>
<!-- ubit_traget -->
<g id="node24" class="node"><title>ubit_traget</title>
<ellipse fill="none" stroke="black" cx="495" cy="-20.1525" rx="20.3062" ry="20.3062"/>
<text text-anchor="middle" x="495" y="-18.9525" font-family="Times,serif" font-size="4.00">ubit_traget</text>
</g>
<!-- Cul2 ubiquitin ligase_N8_substrate&#45;Ub&#45;&gt;ubit_traget -->
<g id="edge9" class="edge"><title>Cul2 ubiquitin ligase_N8_substrate&#45;Ub&#45;&gt;ubit_traget</title>
<path fill="none" stroke="black" d="M544.157,-589.877C548.994,-577.27 553.736,-563.381 557,-550.233 577.256,-468.648 580,-446.559 580,-362.498 580,-362.498 580,-362.498 580,-245.479 580,-168.008 571.891,-145.969 538,-76.3051 532.249,-64.483 523.67,-52.7946 515.684,-43.2419"/>
<polygon fill="black" stroke="black" points="518.108,-40.696 508.905,-35.4471 512.826,-45.2896 518.108,-40.696"/>
</g>
<!-- Ub -->
<g id="node7" class="node"><title>Ub</title>
<ellipse fill="none" stroke="black" cx="734" cy="-1333.65" rx="18" ry="18"/>
<text text-anchor="middle" x="734" y="-1332.45" font-family="Times,serif" font-size="4.00">Ub</text>
</g>
<!-- Ub&#45;&gt;AMP -->
<g id="edge12" class="edge"><title>Ub&#45;&gt;AMP</title>
<path fill="none" stroke="black" d="M728.628,-1316.31C713.869,-1271.4 672.606,-1145.83 654.593,-1091.02"/>
<polygon fill="black" stroke="black" points="657.861,-1089.75 651.414,-1081.35 651.211,-1091.94 657.861,-1089.75"/>
</g>
<!-- Ub&#45;&gt;E1 -->
<g id="edge11" class="edge"><title>Ub&#45;&gt;E1</title>
<path fill="none" stroke="black" d="M723.361,-1318.48C709.097,-1299.47 683.62,-1265.53 666.763,-1243.06"/>
<polygon fill="black" stroke="black" points="669.354,-1240.69 660.552,-1234.79 663.755,-1244.89 669.354,-1240.69"/>
</g>
<!-- Ub&#45;&gt;PPi -->
<g id="edge13" class="edge"><title>Ub&#45;&gt;PPi</title>
<path fill="none" stroke="black" d="M739.533,-1316.17C742.711,-1305.81 746.382,-1292.11 748,-1279.65 754.859,-1226.83 760.356,-1211.62 748,-1159.8 741.734,-1133.52 726.956,-1106.28 715.439,-1087.76"/>
<polygon fill="black" stroke="black" points="718.277,-1085.7 709.939,-1079.16 712.381,-1089.47 718.277,-1085.7"/>
</g>
<!-- Zyg11B_EloBC -->
<g id="node8" class="node"><title>Zyg11B_EloBC</title>
<ellipse fill="none" stroke="black" cx="155" cy="-246.479" rx="24.2908" ry="24.2908"/>
<text text-anchor="middle" x="155" y="-245.279" font-family="Times,serif" font-size="4.00">Zyg11B_EloBC</text>
</g>
<!-- Zyg11B_EloBC&#45;&gt;Cul2 ubiquitin ligase -->
<g id="edge16" class="edge"><title>Zyg11B_EloBC&#45;&gt;Cul2 ubiquitin ligase</title>
<path fill="none" stroke="black" d="M170.357,-265.819C180.557,-281.276 193.581,-303.887 203.567,-323.136"/>
<polygon fill="black" stroke="black" points="200.554,-324.934 208.199,-332.27 206.797,-321.768 200.554,-324.934"/>
</g>
<!-- ELOB_ELOC -->
<g id="node19" class="node"><title>ELOB_ELOC</title>
<ellipse fill="none" stroke="black" cx="106" cy="-124.565" rx="21.9898" ry="21.9898"/>
<text text-anchor="middle" x="106" y="-123.365" font-family="Times,serif" font-size="4.00">ELOB_ELOC</text>
</g>
<!-- Zyg11B_EloBC&#45;&gt;ELOB_ELOC -->
<g id="edge14" class="edge"><title>Zyg11B_EloBC&#45;&gt;ELOB_ELOC</title>
<path fill="none" stroke="black" d="M141.742,-225.677C132.155,-206.641 120.032,-177.609 112.37,-155.703"/>
<polygon fill="black" stroke="black" points="115.682,-154.572 109.188,-146.2 109.044,-156.794 115.682,-154.572"/>
</g>
<!-- ZYG11B -->
<g id="node40" class="node"><title>ZYG11B</title>
<ellipse fill="none" stroke="black" cx="164" cy="-124.565" rx="18" ry="18"/>
<text text-anchor="middle" x="164" y="-123.365" font-family="Times,serif" font-size="4.00">ZYG11B</text>
</g>
<!-- Zyg11B_EloBC&#45;&gt;ZYG11B -->
<g id="edge15" class="edge"><title>Zyg11B_EloBC&#45;&gt;ZYG11B</title>
<path fill="none" stroke="black" d="M151.277,-222.358C151.152,-202.097 153.287,-172.673 156.368,-151.592"/>
<polygon fill="black" stroke="black" points="159.824,-152.143 158.004,-141.706 152.918,-151 159.824,-152.143"/>
</g>
<!-- Cul2 ubiquitin ligase&#45;&gt;Zyg11B_EloBC -->
<g id="edge18" class="edge"><title>Cul2 ubiquitin ligase&#45;&gt;Zyg11B_EloBC</title>
<path fill="none" stroke="black" d="M199.179,-336.805C188.522,-320.049 175.725,-297.401 166.497,-279.103"/>
<polygon fill="black" stroke="black" points="169.572,-277.423 162.027,-269.985 163.287,-280.505 169.572,-277.423"/>
</g>
<!-- Cul2 ubiquitin ligase_Orf10 -->
<g id="node32" class="node"><title>Cul2 ubiquitin ligase_Orf10</title>
<ellipse fill="none" stroke="black" cx="341" cy="-246.479" rx="37.8075" ry="37.8075"/>
<text text-anchor="middle" x="341" y="-245.279" font-family="Times,serif" font-size="4.00">Cul2 ubiquitin ligase_Orf10</text>
</g>
<!-- Cul2 ubiquitin ligase&#45;&gt;Cul2 ubiquitin ligase_Orf10 -->
<g id="edge20" class="edge"><title>Cul2 ubiquitin ligase&#45;&gt;Cul2 ubiquitin ligase_Orf10</title>
<path fill="none" stroke="black" d="M237.617,-337.354C255.352,-319.754 281.69,-295.426 303.411,-276.519"/>
<polygon fill="black" stroke="black" points="305.891,-279.002 311.179,-269.821 301.32,-273.7 305.891,-279.002"/>
</g>
<!-- Rbx1_Cul2 -->
<g id="node35" class="node"><title>Rbx1_Cul2</title>
<ellipse fill="none" stroke="black" cx="218" cy="-246.479" rx="20.3063" ry="20.3062"/>
<text text-anchor="middle" x="218" y="-245.279" font-family="Times,serif" font-size="4.00">Rbx1_Cul2</text>
</g>
<!-- Cul2 ubiquitin ligase&#45;&gt;Rbx1_Cul2 -->
<g id="edge17" class="edge"><title>Cul2 ubiquitin ligase&#45;&gt;Rbx1_Cul2</title>
<path fill="none" stroke="black" d="M211.994,-331.098C210.993,-314.252 211.002,-293.192 212.022,-276.422"/>
<polygon fill="black" stroke="black" points="215.538,-276.354 212.837,-266.109 208.56,-275.802 215.538,-276.354"/>
</g>
<!-- Cul2 ubiquitin ligase_substrate -->
<g id="node41" class="node"><title>Cul2 ubiquitin ligase_substrate</title>
<ellipse fill="none" stroke="black" cx="395" cy="-1063.87" rx="41.2319" ry="41.2319"/>
<text text-anchor="middle" x="395" y="-1062.67" font-family="Times,serif" font-size="4.00">Cul2 ubiquitin ligase_substrate</text>
</g>
<!-- Cul2 ubiquitin ligase&#45;&gt;Cul2 ubiquitin ligase_substrate -->
<g id="edge19" class="edge"><title>Cul2 ubiquitin ligase&#45;&gt;Cul2 ubiquitin ligase_substrate</title>
<path fill="none" stroke="black" d="M220.063,-392.585C218.03,-442.62 208,-546.129 208,-634.023 208,-773.847 208,-773.847 208,-773.847 208,-881.328 301.994,-978.553 356.811,-1028.18"/>
<polygon fill="black" stroke="black" points="354.814,-1031.09 364.599,-1035.16 359.483,-1025.88 354.814,-1031.09"/>
</g>
<!-- Cul2 ubiquitin ligase_N8_Orf10_0E2_substrate -->
<g id="node10" class="node"><title>Cul2 ubiquitin ligase_N8_Orf10_0E2_substrate</title>
<ellipse fill="none" stroke="black" cx="237" cy="-1444.93" rx="57.0522" ry="57.0522"/>
<text text-anchor="middle" x="237" y="-1443.73" font-family="Times,serif" font-size="4.00">Cul2 ubiquitin ligase_N8_Orf10_0E2_substrate</text>
</g>
<!-- Cul2 ubiquitin ligase_N8_Orf10_substrate -->
<g id="node25" class="node"><title>Cul2 ubiquitin ligase_N8_Orf10_substrate</title>
<ellipse fill="none" stroke="black" cx="143" cy="-1590.18" rx="51.9447" ry="51.9447"/>
<text text-anchor="middle" x="143" y="-1588.98" font-family="Times,serif" font-size="4.00">Cul2 ubiquitin ligase_N8_Orf10_substrate</text>
</g>
<!-- Cul2 ubiquitin ligase_N8_Orf10_0E2_substrate&#45;&gt;Cul2 ubiquitin ligase_N8_Orf10_substrate -->
<g id="edge21" class="edge"><title>Cul2 ubiquitin ligase_N8_Orf10_0E2_substrate&#45;&gt;Cul2 ubiquitin ligase_N8_Orf10_substrate</title>
<path fill="none" stroke="black" d="M210.714,-1495.84C201.515,-1510.46 191.035,-1526.41 181.088,-1540.92"/>
<polygon fill="black" stroke="black" points="178.118,-1539.06 175.308,-1549.28 183.875,-1543.04 178.118,-1539.06"/>
</g>
<!-- Cul2 ubiquitin ligase_N8_Orf10_0E2_substrate&#45;&gt;E2 -->
<g id="edge22" class="edge"><title>Cul2 ubiquitin ligase_N8_Orf10_0E2_substrate&#45;&gt;E2</title>
<path fill="none" stroke="black" d="M281.93,-1409.35C311.92,-1388.51 350.109,-1363.14 374.655,-1347.97"/>
<polygon fill="black" stroke="black" points="376.62,-1350.87 383.349,-1342.69 372.986,-1344.89 376.62,-1350.87"/>
</g>
<!-- CUL2 -->
<g id="node11" class="node"><title>CUL2</title>
<ellipse fill="none" stroke="black" cx="218" cy="-124.565" rx="18" ry="18"/>
<text text-anchor="middle" x="218" y="-123.365" font-family="Times,serif" font-size="4.00">CUL2</text>
</g>
<!-- CUL2&#45;&gt;Rbx1_Cul2 -->
<g id="edge23" class="edge"><title>CUL2&#45;&gt;Rbx1_Cul2</title>
<path fill="none" stroke="black" d="M222.845,-142.239C224.983,-161.482 225.321,-193.461 223.86,-216.737"/>
<polygon fill="black" stroke="black" points="220.369,-216.495 223.062,-226.742 227.346,-217.052 220.369,-216.495"/>
</g>
<!-- NAE&#45;&gt;UBA3 -->
<g id="edge24" class="edge"><title>NAE&#45;&gt;UBA3</title>
<path fill="none" stroke="black" d="M149.645,-1892.45C150.753,-1902.1 151.028,-1914.59 150.469,-1925.65"/>
<polygon fill="black" stroke="black" points="146.976,-1925.44 149.678,-1935.68 153.954,-1925.99 146.976,-1925.44"/>
</g>
<!-- NAE&#45;&gt;NAE_NEDD8 -->
<g id="edge26" class="edge"><title>NAE&#45;&gt;NAE_NEDD8</title>
<path fill="none" stroke="black" d="M132.771,-1861.05C122.996,-1849.53 108.573,-1832.54 96.7105,-1818.57"/>
<polygon fill="black" stroke="black" points="99.2165,-1816.11 90.0768,-1810.75 93.8799,-1820.64 99.2165,-1816.11"/>
</g>
<!-- NAE_Pevonedistat -->
<g id="node29" class="node"><title>NAE_Pevonedistat</title>
<ellipse fill="none" stroke="black" cx="144" cy="-1793.17" rx="28.2154" ry="28.2154"/>
<text text-anchor="middle" x="144" y="-1791.97" font-family="Times,serif" font-size="4.00">NAE_Pevonedistat</text>
</g>
<!-- NAE&#45;&gt;NAE_Pevonedistat -->
<g id="edge27" class="edge"><title>NAE&#45;&gt;NAE_Pevonedistat</title>
<path fill="none" stroke="black" d="M138.451,-1858.07C137.545,-1850.21 137.152,-1840.43 137.271,-1830.9"/>
<polygon fill="black" stroke="black" points="140.773,-1830.87 137.601,-1820.76 133.777,-1830.65 140.773,-1830.87"/>
</g>
<!-- NAE1 -->
<g id="node31" class="node"><title>NAE1</title>
<ellipse fill="none" stroke="black" cx="208" cy="-1793.17" rx="18" ry="18"/>
<text text-anchor="middle" x="208" y="-1791.97" font-family="Times,serif" font-size="4.00">NAE1</text>
</g>
<!-- NAE&#45;&gt;NAE1 -->
<g id="edge25" class="edge"><title>NAE&#45;&gt;NAE1</title>
<path fill="none" stroke="black" d="M151.141,-1858.45C160.064,-1845.34 174.87,-1826.68 187.276,-1812.84"/>
<polygon fill="black" stroke="black" points="190.01,-1815.04 194.241,-1805.32 184.876,-1810.28 190.01,-1815.04"/>
</g>
<!-- ELOC -->
<g id="node13" class="node"><title>ELOC</title>
<ellipse fill="none" stroke="black" cx="85" cy="-20.1525" rx="18" ry="18"/>
<text text-anchor="middle" x="85" y="-18.9525" font-family="Times,serif" font-size="4.00">ELOC</text>
</g>
<!-- ELOC&#45;&gt;ELOB_ELOC -->
<g id="edge28" class="edge"><title>ELOC&#45;&gt;ELOB_ELOC</title>
<path fill="none" stroke="black" d="M93.1354,-36.5124C97.9772,-51.3327 103.086,-74.1914 105.934,-92.7665"/>
<polygon fill="black" stroke="black" points="102.488,-93.4011 107.299,-102.84 109.424,-92.4609 102.488,-93.4011"/>
</g>
<!-- Orf10 -->
<g id="node14" class="node"><title>Orf10</title>
<ellipse fill="none" stroke="black" cx="440" cy="-124.565" rx="18" ry="18"/>
<text text-anchor="middle" x="440" y="-123.365" font-family="Times,serif" font-size="4.00">Orf10</text>
</g>
<!-- Orf10&#45;&gt;Cul2 ubiquitin ligase_Orf10 -->
<g id="edge29" class="edge"><title>Orf10&#45;&gt;Cul2 ubiquitin ligase_Orf10</title>
<path fill="none" stroke="black" d="M439.5,-142.862C435.647,-152.117 429.091,-163.497 422,-172.825 409.759,-188.928 394.157,-205.085 379.815,-218.06"/>
<polygon fill="black" stroke="black" points="377.209,-215.69 372.007,-224.92 381.829,-220.949 377.209,-215.69"/>
</g>
<!-- 26S&#45;proteasom -->
<g id="node16" class="node"><title>26S&#45;proteasom</title>
<ellipse fill="none" stroke="black" cx="204" cy="-1953.14" rx="23.7305" ry="23.7305"/>
<text text-anchor="middle" x="204" y="-1951.94" font-family="Times,serif" font-size="4.00">26S&#45;proteasom</text>
</g>
<!-- Pevonedistat -->
<g id="node17" class="node"><title>Pevonedistat</title>
<ellipse fill="none" stroke="black" cx="144" cy="-1703.61" rx="21.9898" ry="21.9898"/>
<text text-anchor="middle" x="144" y="-1702.41" font-family="Times,serif" font-size="4.00">Pevonedistat</text>
</g>
<!-- Pevonedistat&#45;&gt;NAE_Pevonedistat -->
<g id="edge30" class="edge"><title>Pevonedistat&#45;&gt;NAE_Pevonedistat</title>
<path fill="none" stroke="black" d="M149.79,-1724.8C150.608,-1733.85 150.903,-1744.82 150.676,-1755.26"/>
<polygon fill="black" stroke="black" points="147.172,-1755.29 150.274,-1765.42 154.166,-1755.57 147.172,-1755.29"/>
</g>
<!-- Cul2 ubiquitin ligase_Orf10_substrate -->
<g id="node18" class="node"><title>Cul2 ubiquitin ligase_Orf10_substrate</title>
<ellipse fill="none" stroke="black" cx="356" cy="-124.565" rx="48.0213" ry="48.0213"/>
<text text-anchor="middle" x="356" y="-123.365" font-family="Times,serif" font-size="4.00">Cul2 ubiquitin ligase_Orf10_substrate</text>
</g>
<!-- Cul2 ubiquitin ligase_Orf10_substrate&#45;&gt;ubit_traget -->
<g id="edge32" class="edge"><title>Cul2 ubiquitin ligase_Orf10_substrate&#45;&gt;ubit_traget</title>
<path fill="none" stroke="black" d="M388.395,-88.4875C393.542,-84.3034 398.853,-80.1547 404,-76.3051 424.568,-60.9216 449.123,-44.6692 467.767,-33.8251"/>
<polygon fill="black" stroke="black" points="469.663,-36.7746 476.663,-28.8221 466.231,-30.6733 469.663,-36.7746"/>
</g>
<!-- Cul2 ubiquitin ligase_Orf10_substrate&#45;&gt;Cul2 ubiquitin ligase_N8_Orf10_substrate -->
<g id="edge33" class="edge"><title>Cul2 ubiquitin ligase_Orf10_substrate&#45;&gt;Cul2 ubiquitin ligase_N8_Orf10_substrate</title>
<path fill="none" stroke="black" d="M326.937,-163.223C316.313,-177.341 304.365,-193.643 294,-208.825 271.755,-241.409 275.952,-257.33 247,-284.132 221.617,-307.63 198.511,-292.28 178,-320.132 57.0086,-484.433 96,-567.803 96,-771.847 96,-1334.65 96,-1334.65 96,-1334.65 96,-1402.48 112.339,-1478.8 125.749,-1530.03"/>
<polygon fill="black" stroke="black" points="122.43,-1531.17 128.387,-1539.93 129.194,-1529.37 122.43,-1531.17"/>
</g>
<!-- Cul2 ubiquitin ligase_Orf10_substrate&#45;&gt;Cul2 ubiquitin ligase_Orf10 -->
<g id="edge31" class="edge"><title>Cul2 ubiquitin ligase_Orf10_substrate&#45;&gt;Cul2 ubiquitin ligase_Orf10</title>
<path fill="none" stroke="black" d="M356.675,-173.087C355.753,-181.97 354.578,-191.234 353.253,-200.052"/>
<polygon fill="black" stroke="black" points="349.761,-199.721 351.635,-210.149 356.673,-200.829 349.761,-199.721"/>
</g>
<!-- UBE2M -->
<g id="node43" class="node"><title>UBE2M</title>
<ellipse fill="none" stroke="black" cx="20" cy="-20.1525" rx="18" ry="18"/>
<text text-anchor="middle" x="20" y="-18.9525" font-family="Times,serif" font-size="4.00">UBE2M</text>
</g>
<!-- Cul2 ubiquitin ligase_Orf10_substrate&#45;&gt;UBE2M -->
<g id="edge34" class="edge"><title>Cul2 ubiquitin ligase_Orf10_substrate&#45;&gt;UBE2M</title>
<path fill="none" stroke="black" d="M321.841,-90.3074C314.743,-84.8779 306.981,-79.8716 299,-76.3051 200.125,-32.1186 161.217,-73.0918 58,-40.3051 53.4409,-38.8569 48.757,-36.916 44.3032,-34.8244"/>
<polygon fill="black" stroke="black" points="45.5603,-31.5376 35.0584,-30.1372 42.3948,-37.781 45.5603,-31.5376"/>
</g>
<!-- ELOB_ELOC&#45;&gt;Zyg11B_EloBC -->
<g id="edge35" class="edge"><title>ELOB_ELOC&#45;&gt;Zyg11B_EloBC</title>
<path fill="none" stroke="black" d="M117.946,-142.794C127.36,-161.017 139.68,-190.204 147.737,-212.811"/>
<polygon fill="black" stroke="black" points="144.456,-214.034 151.01,-222.358 151.078,-211.763 144.456,-214.034"/>
</g>
<!-- ELOB_ELOC&#45;&gt;ELOC -->
<g id="edge36" class="edge"><title>ELOB_ELOC&#45;&gt;ELOC</title>
<path fill="none" stroke="black" d="M96.7842,-104.781C91.9441,-88.9259 87.0257,-66.0257 84.5134,-48.1962"/>
<polygon fill="black" stroke="black" points="87.9707,-47.6306 83.3065,-38.1178 81.0204,-48.463 87.9707,-47.6306"/>
</g>
<!-- ELOB -->
<g id="node28" class="node"><title>ELOB</title>
<ellipse fill="none" stroke="black" cx="139" cy="-20.1525" rx="18" ry="18"/>
<text text-anchor="middle" x="139" y="-18.9525" font-family="Times,serif" font-size="4.00">ELOB</text>
</g>
<!-- ELOB_ELOC&#45;&gt;ELOB -->
<g id="edge37" class="edge"><title>ELOB_ELOC&#45;&gt;ELOB</title>
<path fill="none" stroke="black" d="M107.129,-102.84C111.006,-86.1307 118.496,-62.6124 125.468,-45.099"/>
<polygon fill="black" stroke="black" points="128.822,-46.1524 129.483,-35.5781 122.372,-43.4327 128.822,-46.1524"/>
</g>
<!-- E1&#45;&gt;AMP -->
<g id="edge40" class="edge"><title>E1&#45;&gt;AMP</title>
<path fill="none" stroke="black" d="M649.557,-1201.67C648.869,-1175.22 647.538,-1124.04 646.714,-1092.33"/>
<polygon fill="black" stroke="black" points="650.204,-1091.91 646.445,-1082 643.207,-1092.09 650.204,-1091.91"/>
</g>
<!-- E1&#45;&gt;E2 -->
<g id="edge38" class="edge"><title>E1&#45;&gt;E2</title>
<path fill="none" stroke="black" d="M642.38,-1236.35C630.967,-1249.61 610.279,-1268.24 589,-1279.65 535.854,-1308.16 465.49,-1323.08 426.842,-1329.21"/>
<polygon fill="black" stroke="black" points="426.195,-1325.77 416.823,-1330.71 427.231,-1332.69 426.195,-1325.77"/>
</g>
<!-- E1&#45;&gt;PPi -->
<g id="edge39" class="edge"><title>E1&#45;&gt;PPi</title>
<path fill="none" stroke="black" d="M655.351,-1202.26C664.035,-1175.54 681.263,-1122.53 691.595,-1090.74"/>
<polygon fill="black" stroke="black" points="694.925,-1091.81 694.688,-1081.22 688.268,-1089.65 694.925,-1091.81"/>
</g>
<!-- Cul2 ubiquitin ligase_N8_Orf10_substrate&#45;Ub -->
<g id="node21" class="node"><title>Cul2 ubiquitin ligase_N8_Orf10_substrate&#45;Ub</title>
<ellipse fill="none" stroke="black" cx="492" cy="-494.548" rx="55.8699" ry="55.8699"/>
<text text-anchor="middle" x="492" y="-493.348" font-family="Times,serif" font-size="4.00">Cul2 ubiquitin ligase_N8_Orf10_substrate&#45;Ub</text>
</g>
<!-- Cul2 ubiquitin ligase_N8_Orf10_substrate&#45;Ub&#45;&gt;ubit_traget -->
<g id="edge41" class="edge"><title>Cul2 ubiquitin ligase_N8_Orf10_substrate&#45;Ub&#45;&gt;ubit_traget</title>
<path fill="none" stroke="black" d="M512.716,-442.515C516.972,-429.774 520.818,-415.994 523,-402.864 533.026,-342.536 540.136,-181.292 518,-76.3051 515.957,-66.6139 512.239,-56.4807 508.379,-47.5828"/>
<polygon fill="black" stroke="black" points="511.56,-46.1216 504.208,-38.492 505.197,-49.0406 511.56,-46.1216"/>
</g>
<!-- Cul2 ubiquitin ligase_N8_Orf10 -->
<g id="node30" class="node"><title>Cul2 ubiquitin ligase_N8_Orf10</title>
<ellipse fill="none" stroke="black" cx="473" cy="-361.498" rx="41.2319" ry="41.2319"/>
<text text-anchor="middle" x="473" y="-360.298" font-family="Times,serif" font-size="4.00">Cul2 ubiquitin ligase_N8_Orf10</text>
</g>
<!-- Cul2 ubiquitin ligase_N8_Orf10_substrate&#45;Ub&#45;&gt;Cul2 ubiquitin ligase_N8_Orf10 -->
<g id="edge42" class="edge"><title>Cul2 ubiquitin ligase_N8_Orf10_substrate&#45;Ub&#45;&gt;Cul2 ubiquitin ligase_N8_Orf10</title>
<path fill="none" stroke="black" d="M484.107,-439.11C482.832,-430.315 481.517,-421.245 480.258,-412.56"/>
<polygon fill="black" stroke="black" points="483.71,-411.975 478.811,-402.581 476.782,-412.98 483.71,-411.975"/>
</g>
<!-- Cul2 ubiquitin ligase_N8_Orf10_E2_substrate&#45;Ub -->
<g id="node22" class="node"><title>Cul2 ubiquitin ligase_N8_Orf10_E2_substrate&#45;Ub</title>
<ellipse fill="none" stroke="black" cx="209" cy="-1063.87" rx="59.8547" ry="59.8547"/>
<text text-anchor="middle" x="209" y="-1062.67" font-family="Times,serif" font-size="4.00">Cul2 ubiquitin ligase_N8_Orf10_E2_substrate&#45;Ub</text>
</g>
<!-- Cul2 ubiquitin ligase_N8_E2_substrate -->
<g id="node23" class="node"><title>Cul2 ubiquitin ligase_N8_E2_substrate</title>
<ellipse fill="none" stroke="black" cx="399" cy="-1219.73" rx="49.142" ry="49.142"/>
<text text-anchor="middle" x="399" y="-1218.53" font-family="Times,serif" font-size="4.00">Cul2 ubiquitin ligase_N8_E2_substrate</text>
</g>
<!-- Cul2 ubiquitin ligase_N8_E2_substrate&#45;&gt;E2 -->
<g id="edge44" class="edge"><title>Cul2 ubiquitin ligase_N8_E2_substrate&#45;&gt;E2</title>
<path fill="none" stroke="black" d="M405.69,-1268.81C405.884,-1281.49 405.607,-1294.73 404.86,-1305.84"/>
<polygon fill="black" stroke="black" points="401.343,-1305.87 403.955,-1316.14 408.317,-1306.48 401.343,-1305.87"/>
</g>
<!-- Cul2 ubiquitin ligase_N8_E2_substrate&#45;&gt;Cul2 ubiquitin ligase_substrate -->
<g id="edge43" class="edge"><title>Cul2 ubiquitin ligase_N8_E2_substrate&#45;&gt;Cul2 ubiquitin ligase_substrate</title>
<path fill="none" stroke="black" d="M391.455,-1170.89C390.427,-1153.27 389.88,-1133.25 389.93,-1115.4"/>
<polygon fill="black" stroke="black" points="393.432,-1115.21 390.03,-1105.17 386.432,-1115.14 393.432,-1115.21"/>
</g>
<!-- ubit_traget&#45;&gt;Cul2 ubiquitin ligase_Orf10_substrate -->
<g id="edge45" class="edge"><title>ubit_traget&#45;&gt;Cul2 ubiquitin ligase_Orf10_substrate</title>
<path fill="none" stroke="black" d="M480.72,-34.8638C465.583,-45.6904 441.922,-61.4053 422,-76.3051 416.126,-80.6985 410.038,-85.4814 404.025,-90.2619"/>
<polygon fill="black" stroke="black" points="401.534,-87.7714 395.898,-96.7424 405.898,-93.2445 401.534,-87.7714"/>
</g>
<!-- ubit_traget&#45;&gt;Cul2 ubiquitin ligase_substrate -->
<g id="edge46" class="edge"><title>ubit_traget&#45;&gt;Cul2 ubiquitin ligase_substrate</title>
<path fill="none" stroke="black" d="M501.963,-39.0969C511.875,-83.6637 520.541,-201.735 476,-284.132 463.985,-306.359 444.611,-298.237 432,-320.132 393.033,-387.784 404,-415.476 404,-493.548 404,-773.847 404,-773.847 404,-773.847 404,-857.458 404,-954.675 401.518,-1012.36"/>
<polygon fill="black" stroke="black" points="398.007,-1012.51 401.025,-1022.66 404.999,-1012.84 398.007,-1012.51"/>
</g>
<!-- Cul2 ubiquitin ligase_N8_Orf10_substrate&#45;&gt;Cul2 ubiquitin ligase_N8_Orf10_0E2_substrate -->
<g id="edge47" class="edge"><title>Cul2 ubiquitin ligase_N8_Orf10_substrate&#45;&gt;Cul2 ubiquitin ligase_N8_Orf10_0E2_substrate</title>
<path fill="none" stroke="black" d="M166.659,-1543.46C175.533,-1529.22 185.845,-1513.41 195.815,-1498.73"/>
<polygon fill="black" stroke="black" points="198.868,-1500.47 201.632,-1490.24 193.093,-1496.51 198.868,-1500.47"/>
</g>
<!-- Cul2 ubiquitin ligase_N8_Orf10_E2&#45;Ub_substrate -->
<g id="node44" class="node"><title>Cul2 ubiquitin ligase_N8_Orf10_E2&#45;Ub_substrate</title>
<ellipse fill="none" stroke="black" cx="209" cy="-1219.73" rx="59.8547" ry="59.8547"/>
<text text-anchor="middle" x="209" y="-1218.53" font-family="Times,serif" font-size="4.00">Cul2 ubiquitin ligase_N8_Orf10_E2&#45;Ub_substrate</text>
</g>
<!-- Cul2 ubiquitin ligase_N8_Orf10_substrate&#45;&gt;Cul2 ubiquitin ligase_N8_Orf10_E2&#45;Ub_substrate -->
<g id="edge48" class="edge"><title>Cul2 ubiquitin ligase_N8_Orf10_substrate&#45;&gt;Cul2 ubiquitin ligase_N8_Orf10_E2&#45;Ub_substrate</title>
<path fill="none" stroke="black" d="M141.561,-1538.05C144.864,-1497.2 152.688,-1438.56 162,-1387.65 168.202,-1353.75 176.581,-1316.32 184.73,-1285.5"/>
<polygon fill="black" stroke="black" points="188.137,-1286.31 187.364,-1275.75 181.379,-1284.49 188.137,-1286.31"/>
</g>
<!-- UBE2M_NEDD8 -->
<g id="node26" class="node"><title>UBE2M_NEDD8</title>
<ellipse fill="none" stroke="black" cx="76" cy="-1703.61" rx="25.4118" ry="25.4118"/>
<text text-anchor="middle" x="76" y="-1702.41" font-family="Times,serif" font-size="4.00">UBE2M_NEDD8</text>
</g>
<!-- UBE2M_NEDD8&#45;&gt;Cul2 ubiquitin ligase_N8_Orf10_substrate -->
<g id="edge51" class="edge"><title>UBE2M_NEDD8&#45;&gt;Cul2 ubiquitin ligase_N8_Orf10_substrate</title>
<path fill="none" stroke="black" d="M88.7599,-1681.39C95.1758,-1670.72 103.265,-1657.26 111.224,-1644.02"/>
<polygon fill="black" stroke="black" points="114.263,-1645.76 116.417,-1635.39 108.264,-1642.16 114.263,-1645.76"/>
</g>
<!-- UBE2M_NEDD8&#45;&gt;Cul2 ubiquitin ligase_substrate -->
<g id="edge50" class="edge"><title>UBE2M_NEDD8&#45;&gt;Cul2 ubiquitin ligase_substrate</title>
<path fill="none" stroke="black" d="M96.283,-1688.11C101.592,-1684.63 107.401,-1681.07 113,-1678.15 151.572,-1658.05 169.798,-1669.02 204,-1642.15 284.022,-1579.28 322,-1547.69 322,-1445.93 322,-1445.93 322,-1445.93 322,-1332.65 322,-1255.37 317.177,-1233.32 341,-1159.8 346.917,-1141.54 356.601,-1122.87 366.146,-1106.98"/>
<polygon fill="black" stroke="black" points="369.134,-1108.8 371.41,-1098.45 363.178,-1105.12 369.134,-1108.8"/>
</g>
<!-- UBE2M_NEDD8&#45;&gt;UBE2M -->
<g id="edge49" class="edge"><title>UBE2M_NEDD8&#45;&gt;UBE2M</title>
<path fill="none" stroke="black" d="M61.8946,-1682.12C39.4748,-1639.23 0,-1536.43 0,-1445.93 0,-1445.93 0,-1445.93 0,-245.479 0,-173.56 5.7101,-88.8262 12.2682,-47.0768"/>
<polygon fill="black" stroke="black" points="15.7225,-47.6413 13.9969,-37.188 8.82711,-46.4359 15.7225,-47.6413"/>
</g>
<!-- NAE_NEDD8&#45;&gt;UBE2M_NEDD8 -->
<g id="edge52" class="edge"><title>NAE_NEDD8&#45;&gt;UBE2M_NEDD8</title>
<path fill="none" stroke="black" d="M76,-1770.53C76,-1761.11 76,-1749.83 76,-1739.29"/>
<polygon fill="black" stroke="black" points="79.5001,-1739.09 76,-1729.09 72.5001,-1739.09 79.5001,-1739.09"/>
</g>
<!-- ELOB&#45;&gt;ELOB_ELOC -->
<g id="edge53" class="edge"><title>ELOB&#45;&gt;ELOB_ELOC</title>
<path fill="none" stroke="black" d="M138.636,-38.4458C135.254,-54.2984 127.884,-78.0298 120.789,-96.4109"/>
<polygon fill="black" stroke="black" points="117.526,-95.1437 117.015,-105.726 124.014,-97.7721 117.526,-95.1437"/>
</g>
<!-- NAE_Pevonedistat&#45;&gt;NAE -->
<g id="edge54" class="edge"><title>NAE_Pevonedistat&#45;&gt;NAE</title>
<path fill="none" stroke="black" d="M150.399,-1820.76C150.873,-1829.54 150.867,-1839.28 150.38,-1848.03"/>
<polygon fill="black" stroke="black" points="146.886,-1847.81 149.549,-1858.07 153.862,-1848.39 146.886,-1847.81"/>
</g>
<!-- NAE_Pevonedistat&#45;&gt;Pevonedistat -->
<g id="edge55" class="edge"><title>NAE_Pevonedistat&#45;&gt;Pevonedistat</title>
<path fill="none" stroke="black" d="M137.726,-1765.42C137.162,-1755.82 137.099,-1744.92 137.537,-1735.03"/>
<polygon fill="black" stroke="black" points="141.046,-1735.01 138.21,-1724.8 134.061,-1734.55 141.046,-1735.01"/>
</g>
<!-- Cul2 ubiquitin ligase_N8_Orf10&#45;&gt;Cul2 ubiquitin ligase_Orf10 -->
<g id="edge56" class="edge"><title>Cul2 ubiquitin ligase_N8_Orf10&#45;&gt;Cul2 ubiquitin ligase_Orf10</title>
<path fill="none" stroke="black" d="M442.052,-334C422.678,-317.411 397.626,-295.962 377.314,-278.571"/>
<polygon fill="black" stroke="black" points="379.372,-275.726 369.5,-271.88 374.82,-281.043 379.372,-275.726"/>
</g>
<!-- NAE1&#45;&gt;NAE -->
<g id="edge57" class="edge"><title>NAE1&#45;&gt;NAE</title>
<path fill="none" stroke="black" d="M200.928,-1809.9C192.013,-1823.01 177.163,-1841.73 164.725,-1855.61"/>
<polygon fill="black" stroke="black" points="161.976,-1853.43 157.744,-1863.14 167.109,-1858.18 161.976,-1853.43"/>
</g>
<!-- Cul2 ubiquitin ligase_Orf10&#45;&gt;Cul2 ubiquitin ligase -->
<g id="edge60" class="edge"><title>Cul2 ubiquitin ligase_Orf10&#45;&gt;Cul2 ubiquitin ligase</title>
<path fill="none" stroke="black" d="M316.491,-275.435C297.425,-294.046 270.989,-318.261 250.23,-336.093"/>
<polygon fill="black" stroke="black" points="247.936,-333.449 242.578,-342.59 252.467,-338.785 247.936,-333.449"/>
</g>
<!-- Cul2 ubiquitin ligase_Orf10&#45;&gt;Orf10 -->
<g id="edge59" class="edge"><title>Cul2 ubiquitin ligase_Orf10&#45;&gt;Orf10</title>
<path fill="none" stroke="black" d="M364.723,-216.714C377.223,-203.977 392.179,-188.376 404,-172.825 410.366,-164.45 416.302,-154.422 421.717,-145.762"/>
<polygon fill="black" stroke="black" points="424.662,-147.653 427.169,-137.359 418.79,-143.843 424.662,-147.653"/>
</g>
<!-- Cul2 ubiquitin ligase_Orf10&#45;&gt;Cul2 ubiquitin ligase_Orf10_substrate -->
<g id="edge58" class="edge"><title>Cul2 ubiquitin ligase_Orf10&#45;&gt;Cul2 ubiquitin ligase_Orf10_substrate</title>
<path fill="none" stroke="black" d="M339.308,-208.849C340.023,-200.149 341.055,-190.673 342.289,-181.333"/>
<polygon fill="black" stroke="black" points="345.774,-181.685 343.701,-171.295 338.842,-180.709 345.774,-181.685"/>
</g>
<!-- Cul2 ubiquitin ligase_N8_E2&#45;Ub_substrate -->
<g id="node33" class="node"><title>Cul2 ubiquitin ligase_N8_E2&#45;Ub_substrate</title>
<ellipse fill="none" stroke="black" cx="485" cy="-914.913" rx="53.066" ry="53.066"/>
<text text-anchor="middle" x="485" y="-913.713" font-family="Times,serif" font-size="4.00">Cul2 ubiquitin ligase_N8_E2&#45;Ub_substrate</text>
</g>
<!-- Cul2 ubiquitin ligase_N8_E2&#45;Ub_substrate&#45;&gt;Cul2 ubiquitin ligase_N8_E2_substrate&#45;Ub -->
<g id="edge61" class="edge"><title>Cul2 ubiquitin ligase_N8_E2&#45;Ub_substrate&#45;&gt;Cul2 ubiquitin ligase_N8_E2_substrate&#45;Ub</title>
<path fill="none" stroke="black" d="M499.328,-863.741C502.085,-854.086 504.999,-843.882 507.836,-833.95"/>
<polygon fill="black" stroke="black" points="511.257,-834.715 510.638,-824.138 504.526,-832.793 511.257,-834.715"/>
</g>
<!-- Cul2 ubiquitin ligase_N8_E2&#45;Ub_substrate&#45;&gt;E2 -->
<g id="edge62" class="edge"><title>Cul2 ubiquitin ligase_N8_E2&#45;Ub_substrate&#45;&gt;E2</title>
<path fill="none" stroke="black" d="M498.238,-966.568C509.542,-1039.75 515.821,-1177.46 466,-1279.65 457.337,-1297.42 439.895,-1312.06 424.757,-1321.42"/>
<polygon fill="black" stroke="black" points="422.698,-1318.56 415.728,-1326.54 426.153,-1324.65 422.698,-1318.56"/>
</g>
<!-- Cul2 ubiquitin ligase_N8_E2&#45;Ub_substrate&#45;&gt;Cul2 ubiquitin ligase_substrate -->
<g id="edge63" class="edge"><title>Cul2 ubiquitin ligase_N8_E2&#45;Ub_substrate&#45;&gt;Cul2 ubiquitin ligase_substrate</title>
<path fill="none" stroke="black" d="M462.457,-963.093C451.385,-982.157 437.963,-1003.94 425.966,-1022.28"/>
<polygon fill="black" stroke="black" points="422.808,-1020.71 420.207,-1030.98 428.645,-1024.58 422.808,-1020.71"/>
</g>
<!-- E2&#45;&gt;Cul2 ubiquitin ligase_N8_Orf10_0E2_substrate -->
<g id="edge66" class="edge"><title>E2&#45;&gt;Cul2 ubiquitin ligase_N8_Orf10_0E2_substrate</title>
<path fill="none" stroke="black" d="M385.864,-1346.48C365.965,-1361.41 327.559,-1387.75 294.69,-1409.29"/>
<polygon fill="black" stroke="black" points="292.494,-1406.54 286.028,-1414.93 296.317,-1412.4 292.494,-1406.54"/>
</g>
<!-- E2&#45;&gt;E1 -->
<g id="edge64" class="edge"><title>E2&#45;&gt;E1</title>
<path fill="none" stroke="black" d="M416.431,-1329.04C448.775,-1322.81 518.34,-1307.9 571,-1279.65 591.907,-1268.44 612.244,-1250.26 627.347,-1237.05"/>
<polygon fill="black" stroke="black" points="629.884,-1239.48 635.17,-1230.3 625.312,-1234.18 629.884,-1239.48"/>
</g>
<!-- E2&#45;&gt;Cul2 ubiquitin ligase_N8_E2_substrate -->
<g id="edge68" class="edge"><title>E2&#45;&gt;Cul2 ubiquitin ligase_N8_E2_substrate</title>
<path fill="none" stroke="black" d="M394.045,-1316.14C392.917,-1306.16 392.321,-1292.77 392.256,-1279.18"/>
<polygon fill="black" stroke="black" points="395.758,-1278.83 392.31,-1268.81 388.758,-1278.79 395.758,-1278.83"/>
</g>
<!-- E2&#45;&gt;Cul2 ubiquitin ligase_N8_E2&#45;Ub_substrate -->
<g id="edge67" class="edge"><title>E2&#45;&gt;Cul2 ubiquitin ligase_N8_E2&#45;Ub_substrate</title>
<path fill="none" stroke="black" d="M411.251,-1320.44C423.07,-1311.06 439.631,-1296.82 448,-1279.65 495.252,-1182.73 492.04,-1053.86 487.233,-978.392"/>
<polygon fill="black" stroke="black" points="490.705,-977.852 486.549,-968.106 483.72,-978.316 490.705,-977.852"/>
</g>
<!-- E2&#45;&gt;Cul2 ubiquitin ligase_N8_Orf10_E2&#45;Ub_substrate -->
<g id="edge65" class="edge"><title>E2&#45;&gt;Cul2 ubiquitin ligase_N8_Orf10_E2&#45;Ub_substrate</title>
<path fill="none" stroke="black" d="M382.974,-1325.31C357.568,-1311.99 307.382,-1282.99 267.363,-1258.9"/>
<polygon fill="black" stroke="black" points="269.1,-1255.86 258.731,-1253.69 265.48,-1261.85 269.1,-1255.86"/>
</g>
<!-- Rbx1_Cul2&#45;&gt;Cul2 ubiquitin ligase -->
<g id="edge71" class="edge"><title>Rbx1_Cul2&#45;&gt;Cul2 ubiquitin ligase</title>
<path fill="none" stroke="black" d="M223.163,-266.109C224.667,-281.005 225.102,-302.41 224.468,-321.072"/>
<polygon fill="black" stroke="black" points="220.97,-320.948 224.006,-331.098 227.963,-321.27 220.97,-320.948"/>
</g>
<!-- Rbx1_Cul2&#45;&gt;CUL2 -->
<g id="edge69" class="edge"><title>Rbx1_Cul2&#45;&gt;CUL2</title>
<path fill="none" stroke="black" d="M212.938,-226.742C210.934,-206.726 210.715,-174.83 212.278,-152.206"/>
<polygon fill="black" stroke="black" points="215.765,-152.507 213.155,-142.239 208.792,-151.893 215.765,-152.507"/>
</g>
<!-- RBX1 -->
<g id="node38" class="node"><title>RBX1</title>
<ellipse fill="none" stroke="black" cx="272" cy="-124.565" rx="18" ry="18"/>
<text text-anchor="middle" x="272" y="-123.365" font-family="Times,serif" font-size="4.00">RBX1</text>
</g>
<!-- Rbx1_Cul2&#45;&gt;RBX1 -->
<g id="edge70" class="edge"><title>Rbx1_Cul2&#45;&gt;RBX1</title>
<path fill="none" stroke="black" d="M221.468,-226.478C228.943,-205.213 244.34,-170.782 256.412,-148.156"/>
<polygon fill="black" stroke="black" points="259.56,-149.698 261.35,-139.255 253.438,-146.302 259.56,-149.698"/>
</g>
<!-- Orf10 (+)ss sgmRNA -->
<g id="node36" class="node"><title>Orf10 (+)ss sgmRNA</title>
<ellipse fill="none" stroke="black" cx="427" cy="-246.479" rx="30.5202" ry="30.5202"/>
<text text-anchor="middle" x="427" y="-245.279" font-family="Times,serif" font-size="4.00">Orf10 (+)ss sgmRNA</text>
</g>
<!-- Orf10 (+)ss sgmRNA&#45;&gt;Orf10 -->
<g id="edge72" class="edge"><title>Orf10 (+)ss sgmRNA&#45;&gt;Orf10</title>
<path fill="none" stroke="black" d="M430.213,-215.837C432.31,-196.499 435.025,-171.451 437.064,-152.647"/>
<polygon fill="black" stroke="black" points="440.549,-152.973 438.147,-142.654 433.59,-152.219 440.549,-152.973"/>
</g>
<!-- DUB -->
<g id="node37" class="node"><title>DUB</title>
<ellipse fill="none" stroke="black" cx="626" cy="-124.565" rx="18" ry="18"/>
<text text-anchor="middle" x="626" y="-123.365" font-family="Times,serif" font-size="4.00">DUB</text>
</g>
<!-- DUB&#45;&gt;ubit_traget -->
<g id="edge73" class="edge"><title>DUB&#45;&gt;ubit_traget</title>
<path fill="none" stroke="black" d="M618.046,-108.15C612.344,-98.1799 603.934,-85.411 594,-76.3051 573.091,-57.1386 544.335,-42.0682 523.201,-32.559"/>
<polygon fill="black" stroke="black" points="524.361,-29.2468 513.795,-28.4653 521.567,-35.6653 524.361,-29.2468"/>
</g>
<!-- RBX1&#45;&gt;Rbx1_Cul2 -->
<g id="edge74" class="edge"><title>RBX1&#45;&gt;Rbx1_Cul2</title>
<path fill="none" stroke="black" d="M269.28,-142.404C262.334,-162.822 247,-197.404 234.681,-220.824"/>
<polygon fill="black" stroke="black" points="231.5,-219.346 229.791,-229.802 237.648,-222.694 231.5,-219.346"/>
</g>
<!-- CSN5 -->
<g id="node39" class="node"><title>CSN5</title>
<ellipse fill="none" stroke="black" cx="340" cy="-494.548" rx="18" ry="18"/>
<text text-anchor="middle" x="340" y="-493.348" font-family="Times,serif" font-size="4.00">CSN5</text>
</g>
<!-- CSN5&#45;&gt;Cul2 ubiquitin ligase -->
<g id="edge75" class="edge"><title>CSN5&#45;&gt;Cul2 ubiquitin ligase</title>
<path fill="none" stroke="black" d="M334.107,-477.161C329.482,-465.696 322.277,-450.425 313,-438.864 295.927,-417.585 271.957,-398.371 252.366,-384.538"/>
<polygon fill="black" stroke="black" points="254.212,-381.559 243.993,-378.762 250.237,-387.321 254.212,-381.559"/>
</g>
<!-- CSN5&#45;&gt;Cul2 ubiquitin ligase_Orf10 -->
<g id="edge76" class="edge"><title>CSN5&#45;&gt;Cul2 ubiquitin ligase_Orf10</title>
<path fill="none" stroke="black" d="M340.07,-476.245C340.222,-438.939 340.584,-349.84 340.809,-294.493"/>
<polygon fill="black" stroke="black" points="344.31,-294.25 340.851,-284.236 337.31,-294.221 344.31,-294.25"/>
</g>
<!-- ZYG11B&#45;&gt;Zyg11B_EloBC -->
<g id="edge77" class="edge"><title>ZYG11B&#45;&gt;Zyg11B_EloBC</title>
<path fill="none" stroke="black" d="M167.593,-142.229C168.251,-160.45 166.437,-190.1 163.518,-212.962"/>
<polygon fill="black" stroke="black" points="160.044,-212.531 162.104,-222.924 166.975,-213.515 160.044,-212.531"/>
</g>
<!-- Cul2 ubiquitin ligase_substrate&#45;&gt;Cul2 ubiquitin ligase -->
<g id="edge78" class="edge"><title>Cul2 ubiquitin ligase_substrate&#45;&gt;Cul2 ubiquitin ligase</title>
<path fill="none" stroke="black" d="M360.543,-1040.58C301.979,-996.257 190,-891.162 190,-773.847 190,-773.847 190,-773.847 190,-634.023 190,-550.736 199.006,-453.428 207.554,-400.884"/>
<polygon fill="black" stroke="black" points="211.01,-401.438 209.255,-390.989 204.111,-400.252 211.01,-401.438"/>
</g>
<!-- Cul2 ubiquitin ligase_substrate&#45;&gt;Cul2 ubiquitin ligase_N8_E2_substrate -->
<g id="edge80" class="edge"><title>Cul2 ubiquitin ligase_substrate&#45;&gt;Cul2 ubiquitin ligase_N8_E2_substrate</title>
<path fill="none" stroke="black" d="M402.033,-1104.71C403.219,-1121.66 403.933,-1141.76 404.055,-1160.34"/>
<polygon fill="black" stroke="black" points="400.555,-1160.47 404.06,-1170.47 407.555,-1160.47 400.555,-1160.47"/>
</g>
<!-- Cul2 ubiquitin ligase_substrate&#45;&gt;ubit_traget -->
<g id="edge79" class="edge"><title>Cul2 ubiquitin ligase_substrate&#45;&gt;ubit_traget</title>
<path fill="none" stroke="black" d="M388.975,-1022.66C386,-966.829 386,-862.662 386,-773.847 386,-773.847 386,-773.847 386,-493.548 386,-415.476 375.033,-387.784 414,-320.132 426.611,-298.237 445.985,-306.359 458,-284.132 499.089,-208.12 494.899,-101.749 493.371,-50.7312"/>
<polygon fill="black" stroke="black" points="496.862,-50.3321 493.097,-40.4288 489.864,-50.5184 496.862,-50.3321"/>
</g>
<!-- Cul2 ubiquitin ligase_substrate&#45;&gt;Cul2 ubiquitin ligase_N8_E2&#45;Ub_substrate -->
<g id="edge81" class="edge"><title>Cul2 ubiquitin ligase_substrate&#45;&gt;Cul2 ubiquitin ligase_N8_E2&#45;Ub_substrate</title>
<path fill="none" stroke="black" d="M411.758,-1025.79C421.964,-1007.72 435.276,-985.713 447.789,-966.157"/>
<polygon fill="black" stroke="black" points="450.794,-967.956 453.279,-957.657 444.914,-964.158 450.794,-967.956"/>
</g>
<!-- Cul2 ubiquitin ligase_substrate&#45;&gt;UBE2M -->
<g id="edge82" class="edge"><title>Cul2 ubiquitin ligase_substrate&#45;&gt;UBE2M</title>
<path fill="none" stroke="black" d="M358.294,-1044.42C307.314,-1018.64 220.748,-974.278 216,-967.946 -26.7306,-644.2 115.904,-472.145 32,-76.3051 30.043,-67.0724 27.86,-56.9804 25.8981,-47.9825"/>
<polygon fill="black" stroke="black" points="29.2793,-47.0604 23.7233,-38.0392 22.4409,-48.5562 29.2793,-47.0604"/>
</g>
<!-- UBE2M&#45;&gt;UBE2M_NEDD8 -->
<g id="edge83" class="edge"><title>UBE2M&#45;&gt;UBE2M_NEDD8</title>
<path fill="none" stroke="black" d="M23.3794,-38.0231C24.6469,-75.3727 18,-167.884 18,-245.479 18,-1445.93 18,-1445.93 18,-1445.93 18,-1528.05 50.507,-1620.31 67.1941,-1668.73"/>
<polygon fill="black" stroke="black" points="63.9471,-1670.05 70.4974,-1678.38 70.5697,-1667.79 63.9471,-1670.05"/>
</g>
<!-- Cul2 ubiquitin ligase_N8_Orf10_E2&#45;Ub_substrate&#45;&gt;Cul2 ubiquitin ligase_N8_Orf10_E2_substrate&#45;Ub -->
<g id="edge86" class="edge"><title>Cul2 ubiquitin ligase_N8_Orf10_E2&#45;Ub_substrate&#45;&gt;Cul2 ubiquitin ligase_N8_Orf10_E2_substrate&#45;Ub</title>
<path fill="none" stroke="black" d="M209,-1159.68C209,-1151.37 209,-1142.76 209,-1134.27"/>
<polygon fill="black" stroke="black" points="212.5,-1134.01 209,-1124.01 205.5,-1134.01 212.5,-1134.01"/>
</g>
<!-- Cul2 ubiquitin ligase_N8_Orf10_E2&#45;Ub_substrate&#45;&gt;Cul2 ubiquitin ligase_N8_Orf10_substrate -->
<g id="edge84" class="edge"><title>Cul2 ubiquitin ligase_N8_Orf10_E2&#45;Ub_substrate&#45;&gt;Cul2 ubiquitin ligase_N8_Orf10_substrate</title>
<path fill="none" stroke="black" d="M202.297,-1279.57C195.682,-1311.43 186.606,-1351.55 180,-1387.65 171.298,-1435.22 163.896,-1489.54 157.515,-1529.79"/>
<polygon fill="black" stroke="black" points="154.053,-1529.28 155.915,-1539.71 160.964,-1530.4 154.053,-1529.28"/>
</g>
<!-- Cul2 ubiquitin ligase_N8_Orf10_E2&#45;Ub_substrate&#45;&gt;E2 -->
<g id="edge85" class="edge"><title>Cul2 ubiquitin ligase_N8_Orf10_E2&#45;Ub_substrate&#45;&gt;E2</title>
<path fill="none" stroke="black" d="M261.761,-1248.33C299.383,-1269.68 348.006,-1298.51 376.22,-1316.33"/>
<polygon fill="black" stroke="black" points="374.651,-1319.48 384.961,-1321.92 378.425,-1313.58 374.651,-1319.48"/>
</g>
</g>
</svg>
