<?xml version="1.0" encoding="UTF-8" standalone="no"?>
<!DOCTYPE svg PUBLIC "-//W3C//DTD SVG 1.1//EN"
 "http://www.w3.org/Graphics/SVG/1.1/DTD/svg11.dtd">
<!-- Generated by graphviz version 2.38.0 (20140413.2041)
 -->
<!-- Title: G Pages: 1 -->
<svg width="802pt" height="1403pt"
 viewBox="0.00 0.00 801.53 1403.14" xmlns="http://www.w3.org/2000/svg" xmlns:xlink="http://www.w3.org/1999/xlink">
<g id="graph0" class="graph" transform="scale(1 1) rotate(0) translate(4 1399.14)">
<title>G</title>
<polygon fill="white" stroke="none" points="-4,4 -4,-1399.14 797.534,-1399.14 797.534,4 -4,4"/>
<!-- Cul2 ubiquitin ligase_N8_E2_substrate&#45;Ub -->
<g id="node1" class="node"><title>Cul2 ubiquitin ligase_N8_E2_substrate&#45;Ub</title>
<ellipse fill="none" stroke="black" cx="374.685" cy="-1342.11" rx="53.066" ry="53.066"/>
<text text-anchor="middle" x="374.685" y="-1340.91" font-family="Times,serif" font-size="4.00">Cul2 ubiquitin ligase_N8_E2_substrate&#45;Ub</text>
</g>
<!-- E2 -->
<g id="node32" class="node"><title>E2</title>
<ellipse fill="none" stroke="black" cx="535.685" cy="-1235.08" rx="18" ry="18"/>
<text text-anchor="middle" x="535.685" y="-1233.88" font-family="Times,serif" font-size="4.00">E2</text>
</g>
<!-- Cul2 ubiquitin ligase_N8_E2_substrate&#45;Ub&#45;&gt;E2 -->
<g id="edge1" class="edge"><title>Cul2 ubiquitin ligase_N8_E2_substrate&#45;Ub&#45;&gt;E2</title>
<path fill="none" stroke="black" d="M414.09,-1305.98C421.399,-1300.07 429.12,-1294.19 436.685,-1289.08 460.551,-1272.93 489.862,-1257.76 510.373,-1247.82"/>
<polygon fill="black" stroke="black" points="512.156,-1250.85 519.673,-1243.38 509.141,-1244.53 512.156,-1250.85"/>
</g>
<!-- Cul2 ubiquitin ligase_N8_substrate&#45;Ub -->
<g id="node33" class="node"><title>Cul2 ubiquitin ligase_N8_substrate&#45;Ub</title>
<ellipse fill="none" stroke="black" cx="197.685" cy="-983.325" rx="48.5816" ry="48.5816"/>
<text text-anchor="middle" x="197.685" y="-982.125" font-family="Times,serif" font-size="4.00">Cul2 ubiquitin ligase_N8_substrate&#45;Ub</text>
</g>
<!-- Cul2 ubiquitin ligase_N8_E2_substrate&#45;Ub&#45;&gt;Cul2 ubiquitin ligase_N8_substrate&#45;Ub -->
<g id="edge2" class="edge"><title>Cul2 ubiquitin ligase_N8_E2_substrate&#45;Ub&#45;&gt;Cul2 ubiquitin ligase_N8_substrate&#45;Ub</title>
<path fill="none" stroke="black" d="M351.363,-1294.1C318.257,-1227.37 257.846,-1105.59 223.452,-1036.27"/>
<polygon fill="black" stroke="black" points="226.561,-1034.66 218.982,-1027.25 220.29,-1037.77 226.561,-1034.66"/>
</g>
<!-- DUB -->
<g id="node2" class="node"><title>DUB</title>
<ellipse fill="none" stroke="black" cx="282.685" cy="-983.325" rx="18" ry="18"/>
<text text-anchor="middle" x="282.685" y="-982.125" font-family="Times,serif" font-size="4.00">DUB</text>
</g>
<!-- substrate -->
<g id="node18" class="node"><title>substrate</title>
<ellipse fill="none" stroke="black" cx="202.685" cy="-842.32" rx="18.6233" ry="18.6233"/>
<text text-anchor="middle" x="202.685" y="-841.12" font-family="Times,serif" font-size="4.00">substrate</text>
</g>
<!-- DUB&#45;&gt;substrate -->
<g id="edge3" class="edge"><title>DUB&#45;&gt;substrate</title>
<path fill="none" stroke="black" d="M275.534,-966.786C270.316,-955.72 262.92,-940.578 255.685,-927.641 243.936,-906.631 229.291,-883.535 218.375,-866.835"/>
<polygon fill="black" stroke="black" points="221.158,-864.698 212.736,-858.27 215.311,-868.547 221.158,-864.698"/>
</g>
<!-- Cul2 ubiquitin ligase_N8_E2&#45;Ub_substrate -->
<g id="node3" class="node"><title>Cul2 ubiquitin ligase_N8_E2&#45;Ub_substrate</title>
<ellipse fill="none" stroke="black" cx="374.685" cy="-1128.04" rx="53.066" ry="53.066"/>
<text text-anchor="middle" x="374.685" y="-1126.84" font-family="Times,serif" font-size="4.00">Cul2 ubiquitin ligase_N8_E2&#45;Ub_substrate</text>
</g>
<!-- Cul2 ubiquitin ligase_N8_E2&#45;Ub_substrate&#45;&gt;Cul2 ubiquitin ligase_N8_E2_substrate&#45;Ub -->
<g id="edge4" class="edge"><title>Cul2 ubiquitin ligase_N8_E2&#45;Ub_substrate&#45;&gt;Cul2 ubiquitin ligase_N8_E2_substrate&#45;Ub</title>
<path fill="none" stroke="black" d="M374.685,-1181.36C374.685,-1210.81 374.685,-1247.76 374.685,-1278.71"/>
<polygon fill="black" stroke="black" points="371.185,-1278.96 374.685,-1288.96 378.185,-1278.96 371.185,-1278.96"/>
</g>
<!-- Cul2 ubiquitin ligase_substrate -->
<g id="node28" class="node"><title>Cul2 ubiquitin ligase_substrate</title>
<ellipse fill="none" stroke="black" cx="368.685" cy="-983.325" rx="41.2319" ry="41.2319"/>
<text text-anchor="middle" x="368.685" y="-982.125" font-family="Times,serif" font-size="4.00">Cul2 ubiquitin ligase_substrate</text>
</g>
<!-- Cul2 ubiquitin ligase_N8_E2&#45;Ub_substrate&#45;&gt;Cul2 ubiquitin ligase_substrate -->
<g id="edge6" class="edge"><title>Cul2 ubiquitin ligase_N8_E2&#45;Ub_substrate&#45;&gt;Cul2 ubiquitin ligase_substrate</title>
<path fill="none" stroke="black" d="M366.006,-1075.52C365.125,-1062.29 364.536,-1048.07 364.322,-1034.89"/>
<polygon fill="black" stroke="black" points="367.819,-1034.55 364.233,-1024.58 360.819,-1034.61 367.819,-1034.55"/>
</g>
<!-- Cul2 ubiquitin ligase_N8_E2&#45;Ub_substrate&#45;&gt;E2 -->
<g id="edge5" class="edge"><title>Cul2 ubiquitin ligase_N8_E2&#45;Ub_substrate&#45;&gt;E2</title>
<path fill="none" stroke="black" d="M420.192,-1155.73C432.361,-1164.02 445.467,-1173.07 457.685,-1181.08 476.606,-1193.47 498.336,-1206.71 514.224,-1216.86"/>
<polygon fill="black" stroke="black" points="512.543,-1219.94 522.838,-1222.44 516.352,-1214.06 512.543,-1219.94"/>
</g>
<!-- AMP -->
<g id="node4" class="node"><title>AMP</title>
<ellipse fill="none" stroke="black" cx="692.685" cy="-983.325" rx="18" ry="18"/>
<text text-anchor="middle" x="692.685" y="-982.125" font-family="Times,serif" font-size="4.00">AMP</text>
</g>
<!-- Cul2 ubiquitin ligase_Orf10_substrate -->
<g id="node5" class="node"><title>Cul2 ubiquitin ligase_Orf10_substrate</title>
<ellipse fill="none" stroke="black" cx="202.685" cy="-708.739" rx="48.0213" ry="48.0213"/>
<text text-anchor="middle" x="202.685" y="-707.539" font-family="Times,serif" font-size="4.00">Cul2 ubiquitin ligase_Orf10_substrate</text>
</g>
<!-- Cul2 ubiquitin ligase_N8_Orf10_substrate -->
<g id="node8" class="node"><title>Cul2 ubiquitin ligase_N8_Orf10_substrate</title>
<ellipse fill="none" stroke="black" cx="502.685" cy="-363.682" rx="51.9447" ry="51.9447"/>
<text text-anchor="middle" x="502.685" y="-362.482" font-family="Times,serif" font-size="4.00">Cul2 ubiquitin ligase_N8_Orf10_substrate</text>
</g>
<!-- Cul2 ubiquitin ligase_Orf10_substrate&#45;&gt;Cul2 ubiquitin ligase_N8_Orf10_substrate -->
<g id="edge8" class="edge"><title>Cul2 ubiquitin ligase_Orf10_substrate&#45;&gt;Cul2 ubiquitin ligase_N8_Orf10_substrate</title>
<path fill="none" stroke="black" d="M227.968,-667.546C262.082,-614.92 326.374,-521.198 393.685,-451.654 411.437,-433.312 433.056,-415.326 452.346,-400.513"/>
<polygon fill="black" stroke="black" points="454.598,-403.198 460.452,-394.368 450.369,-397.62 454.598,-403.198"/>
</g>
<!-- Cul2 ubiquitin ligase_Orf10_substrate&#45;&gt;substrate -->
<g id="edge9" class="edge"><title>Cul2 ubiquitin ligase_Orf10_substrate&#45;&gt;substrate</title>
<path fill="none" stroke="black" d="M209.182,-756.688C209.711,-775.916 209.409,-797.488 208.278,-814.04"/>
<polygon fill="black" stroke="black" points="204.782,-813.856 207.416,-824.118 211.756,-814.453 204.782,-813.856"/>
</g>
<!-- Cul2 ubiquitin ligase_Orf10 -->
<g id="node29" class="node"><title>Cul2 ubiquitin ligase_Orf10</title>
<ellipse fill="none" stroke="black" cx="174.685" cy="-586.826" rx="37.8075" ry="37.8075"/>
<text text-anchor="middle" x="174.685" y="-585.626" font-family="Times,serif" font-size="4.00">Cul2 ubiquitin ligase_Orf10</text>
</g>
<!-- Cul2 ubiquitin ligase_Orf10_substrate&#45;&gt;Cul2 ubiquitin ligase_Orf10 -->
<g id="edge10" class="edge"><title>Cul2 ubiquitin ligase_Orf10_substrate&#45;&gt;Cul2 ubiquitin ligase_Orf10</title>
<path fill="none" stroke="black" d="M185.797,-663.428C183.344,-654.021 180.998,-644.062 178.997,-634.568"/>
<polygon fill="black" stroke="black" points="182.374,-633.61 176.972,-624.496 175.512,-634.99 182.374,-633.61"/>
</g>
<!-- Ubc12 -->
<g id="node41" class="node"><title>Ubc12</title>
<ellipse fill="none" stroke="black" cx="380.685" cy="-586.826" rx="18" ry="18"/>
<text text-anchor="middle" x="380.685" y="-585.626" font-family="Times,serif" font-size="4.00">Ubc12</text>
</g>
<!-- Cul2 ubiquitin ligase_Orf10_substrate&#45;&gt;Ubc12 -->
<g id="edge7" class="edge"><title>Cul2 ubiquitin ligase_Orf10_substrate&#45;&gt;Ubc12</title>
<path fill="none" stroke="black" d="M246.299,-687.718C276.657,-672.661 317.179,-650.253 348.685,-624.479 354.005,-620.126 359.176,-614.837 363.756,-609.647"/>
<polygon fill="black" stroke="black" points="366.659,-611.633 370.401,-601.721 361.294,-607.135 366.659,-611.633"/>
</g>
<!-- Cul2 ubiquitin ligase_N8_Orf10_substrate&#45;Ub -->
<g id="node6" class="node"><title>Cul2 ubiquitin ligase_N8_Orf10_substrate&#45;Ub</title>
<ellipse fill="none" stroke="black" cx="55.6847" cy="-983.325" rx="55.8699" ry="55.8699"/>
<text text-anchor="middle" x="55.6847" y="-982.125" font-family="Times,serif" font-size="4.00">Cul2 ubiquitin ligase_N8_Orf10_substrate&#45;Ub</text>
</g>
<!-- Cul2 ubiquitin ligase_N8_Orf10_substrate&#45;Ub&#45;&gt;substrate -->
<g id="edge12" class="edge"><title>Cul2 ubiquitin ligase_N8_Orf10_substrate&#45;Ub&#45;&gt;substrate</title>
<path fill="none" stroke="black" d="M95.8531,-944.341C123.714,-917.995 159.682,-883.983 181.962,-862.916"/>
<polygon fill="black" stroke="black" points="184.649,-865.192 189.51,-855.778 179.839,-860.106 184.649,-865.192"/>
</g>
<!-- Cul2 ubiquitin ligase_N8_Orf10 -->
<g id="node38" class="node"><title>Cul2 ubiquitin ligase_N8_Orf10</title>
<ellipse fill="none" stroke="black" cx="45.6847" cy="-842.32" rx="41.2319" ry="41.2319"/>
<text text-anchor="middle" x="45.6847" y="-841.12" font-family="Times,serif" font-size="4.00">Cul2 ubiquitin ligase_N8_Orf10</text>
</g>
<!-- Cul2 ubiquitin ligase_N8_Orf10_substrate&#45;Ub&#45;&gt;Cul2 ubiquitin ligase_N8_Orf10 -->
<g id="edge11" class="edge"><title>Cul2 ubiquitin ligase_N8_Orf10_substrate&#45;Ub&#45;&gt;Cul2 ubiquitin ligase_N8_Orf10</title>
<path fill="none" stroke="black" d="M51.7324,-927.387C50.9381,-916.345 50.1068,-904.79 49.3237,-893.905"/>
<polygon fill="black" stroke="black" points="52.7991,-893.436 48.5905,-883.713 45.8172,-893.938 52.7991,-893.436"/>
</g>
<!-- Ub -->
<g id="node7" class="node"><title>Ub</title>
<ellipse fill="none" stroke="black" cx="738.685" cy="-1235.08" rx="18" ry="18"/>
<text text-anchor="middle" x="738.685" y="-1233.88" font-family="Times,serif" font-size="4.00">Ub</text>
</g>
<!-- Ub&#45;&gt;AMP -->
<g id="edge13" class="edge"><title>Ub&#45;&gt;AMP</title>
<path fill="none" stroke="black" d="M735.595,-1217.3C727.79,-1174.93 707.226,-1063.28 697.682,-1011.46"/>
<polygon fill="black" stroke="black" points="701.075,-1010.56 695.821,-1001.36 694.191,-1011.82 701.075,-1010.56"/>
</g>
<!-- PPi -->
<g id="node26" class="node"><title>PPi</title>
<ellipse fill="none" stroke="black" cx="768.685" cy="-983.325" rx="18" ry="18"/>
<text text-anchor="middle" x="768.685" y="-982.125" font-family="Times,serif" font-size="4.00">PPi</text>
</g>
<!-- Ub&#45;&gt;PPi -->
<g id="edge15" class="edge"><title>Ub&#45;&gt;PPi</title>
<path fill="none" stroke="black" d="M752.362,-1222.63C762.908,-1212.84 776.675,-1197.72 782.685,-1181.08 803.676,-1122.93 788.1,-1048.95 777.091,-1010.38"/>
<polygon fill="black" stroke="black" points="780.352,-1009.07 774.141,-1000.49 773.644,-1011.07 780.352,-1009.07"/>
</g>
<!-- E1 -->
<g id="node31" class="node"><title>E1</title>
<ellipse fill="none" stroke="black" cx="646.685" cy="-1128.04" rx="18" ry="18"/>
<text text-anchor="middle" x="646.685" y="-1126.84" font-family="Times,serif" font-size="4.00">E1</text>
</g>
<!-- Ub&#45;&gt;E1 -->
<g id="edge14" class="edge"><title>Ub&#45;&gt;E1</title>
<path fill="none" stroke="black" d="M727.033,-1220.77C711.41,-1202.94 683.507,-1171.08 665.044,-1150"/>
<polygon fill="black" stroke="black" points="667.464,-1147.45 658.242,-1142.24 662.198,-1152.07 667.464,-1147.45"/>
</g>
<!-- Cul2 ubiquitin ligase_N8_Orf10_0E2_substrate -->
<g id="node10" class="node"><title>Cul2 ubiquitin ligase_N8_Orf10_0E2_substrate</title>
<ellipse fill="none" stroke="black" cx="586.685" cy="-215.782" rx="57.0522" ry="57.0522"/>
<text text-anchor="middle" x="586.685" y="-214.582" font-family="Times,serif" font-size="4.00">Cul2 ubiquitin ligase_N8_Orf10_0E2_substrate</text>
</g>
<!-- Cul2 ubiquitin ligase_N8_Orf10_substrate&#45;&gt;Cul2 ubiquitin ligase_N8_Orf10_0E2_substrate -->
<g id="edge17" class="edge"><title>Cul2 ubiquitin ligase_N8_Orf10_substrate&#45;&gt;Cul2 ubiquitin ligase_N8_Orf10_0E2_substrate</title>
<path fill="none" stroke="black" d="M523.371,-315.715C530.952,-301.78 539.741,-286.39 548.334,-271.983"/>
<polygon fill="black" stroke="black" points="551.486,-273.534 553.647,-263.162 545.489,-269.922 551.486,-273.534"/>
</g>
<!-- Cul2 ubiquitin ligase_N8_Orf10_E2&#45;Ub_substrate -->
<g id="node22" class="node"><title>Cul2 ubiquitin ligase_N8_Orf10_E2&#45;Ub_substrate</title>
<ellipse fill="none" stroke="black" cx="446.685" cy="-215.782" rx="59.8547" ry="59.8547"/>
<text text-anchor="middle" x="446.685" y="-214.582" font-family="Times,serif" font-size="4.00">Cul2 ubiquitin ligase_N8_Orf10_E2&#45;Ub_substrate</text>
</g>
<!-- Cul2 ubiquitin ligase_N8_Orf10_substrate&#45;&gt;Cul2 ubiquitin ligase_N8_Orf10_E2&#45;Ub_substrate -->
<g id="edge16" class="edge"><title>Cul2 ubiquitin ligase_N8_Orf10_substrate&#45;&gt;Cul2 ubiquitin ligase_N8_Orf10_E2&#45;Ub_substrate</title>
<path fill="none" stroke="black" d="M478.972,-317.318C474.493,-306.6 469.879,-294.951 465.567,-283.507"/>
<polygon fill="black" stroke="black" points="468.788,-282.124 462.026,-273.968 462.225,-284.561 468.788,-282.124"/>
</g>
<!-- ATP -->
<g id="node9" class="node"><title>ATP</title>
<ellipse fill="none" stroke="black" cx="684.685" cy="-1235.08" rx="18" ry="18"/>
<text text-anchor="middle" x="684.685" y="-1233.88" font-family="Times,serif" font-size="4.00">ATP</text>
</g>
<!-- ATP&#45;&gt;AMP -->
<g id="edge18" class="edge"><title>ATP&#45;&gt;AMP</title>
<path fill="none" stroke="black" d="M685.235,-1216.91C686.599,-1174.31 690.149,-1063.49 691.807,-1011.72"/>
<polygon fill="black" stroke="black" points="695.309,-1011.72 692.131,-1001.61 688.312,-1011.49 695.309,-1011.72"/>
</g>
<!-- ATP&#45;&gt;PPi -->
<g id="edge20" class="edge"><title>ATP&#45;&gt;PPi</title>
<path fill="none" stroke="black" d="M690.215,-1217.84C693.784,-1207.36 698.52,-1193.41 702.685,-1181.08 723.328,-1119.92 747.402,-1048 759.994,-1010.33"/>
<polygon fill="black" stroke="black" points="763.378,-1011.25 763.229,-1000.66 756.74,-1009.03 763.378,-1011.25"/>
</g>
<!-- ATP&#45;&gt;E1 -->
<g id="edge19" class="edge"><title>ATP&#45;&gt;E1</title>
<path fill="none" stroke="black" d="M678.747,-1217.66C672.668,-1200.86 663.131,-1174.5 656.036,-1154.89"/>
<polygon fill="black" stroke="black" points="659.274,-1153.55 652.58,-1145.34 652.691,-1155.93 659.274,-1153.55"/>
</g>
<!-- Cul2 ubiquitin ligase_N8_Orf10_0E2_substrate&#45;&gt;Cul2 ubiquitin ligase_N8_Orf10_substrate -->
<g id="edge21" class="edge"><title>Cul2 ubiquitin ligase_N8_Orf10_0E2_substrate&#45;&gt;Cul2 ubiquitin ligase_N8_Orf10_substrate</title>
<path fill="none" stroke="black" d="M563.566,-268.194C555.709,-282.477 546.781,-297.97 538.207,-312.198"/>
<polygon fill="black" stroke="black" points="535.137,-310.511 532.926,-320.873 541.116,-314.151 535.137,-310.511"/>
</g>
<!-- Cul2 ubiquitin ligase_N8_Orf10_0E2_substrate&#45;&gt;E2 -->
<g id="edge22" class="edge"><title>Cul2 ubiquitin ligase_N8_Orf10_0E2_substrate&#45;&gt;E2</title>
<path fill="none" stroke="black" d="M595.274,-272.533C598.804,-326.083 600.685,-409.27 600.685,-481.413 600.685,-984.325 600.685,-984.325 600.685,-984.325 600.685,-1072.99 592.853,-1096.06 567.685,-1181.08 564.362,-1192.3 559.289,-1204.31 553.899,-1214.05"/>
<polygon fill="black" stroke="black" points="550.905,-1212.23 548.682,-1222.59 556.88,-1215.88 550.905,-1212.23"/>
</g>
<!-- Ubc12_NEDD8 -->
<g id="node11" class="node"><title>Ubc12_NEDD8</title>
<ellipse fill="none" stroke="black" cx="426.685" cy="-482.413" rx="23.7305" ry="23.7305"/>
<text text-anchor="middle" x="426.685" y="-481.213" font-family="Times,serif" font-size="4.00">Ubc12_NEDD8</text>
</g>
<!-- Ubc12_NEDD8&#45;&gt;Cul2 ubiquitin ligase_N8_Orf10_substrate -->
<g id="edge24" class="edge"><title>Ubc12_NEDD8&#45;&gt;Cul2 ubiquitin ligase_N8_Orf10_substrate</title>
<path fill="none" stroke="black" d="M439.405,-461.875C447.61,-449.273 458.691,-432.253 469.288,-415.976"/>
<polygon fill="black" stroke="black" points="472.245,-417.85 474.768,-407.56 466.378,-414.031 472.245,-417.85"/>
</g>
<!-- Ubc12_NEDD8&#45;&gt;Cul2 ubiquitin ligase_substrate -->
<g id="edge25" class="edge"><title>Ubc12_NEDD8&#45;&gt;Cul2 ubiquitin ligase_substrate</title>
<path fill="none" stroke="black" d="M424.041,-506.157C415.262,-581.67 386.94,-825.293 374.564,-931.752"/>
<polygon fill="black" stroke="black" points="371.06,-931.582 373.382,-941.92 378.013,-932.391 371.06,-931.582"/>
</g>
<!-- Ubc12_NEDD8&#45;&gt;Ubc12 -->
<g id="edge23" class="edge"><title>Ubc12_NEDD8&#45;&gt;Ubc12</title>
<path fill="none" stroke="black" d="M422.248,-506.001C416.048,-522.868 405.743,-545.837 396.767,-562.807"/>
<polygon fill="black" stroke="black" points="393.452,-561.569 391.677,-572.014 399.579,-564.956 393.452,-561.569"/>
</g>
<!-- Rbx1 -->
<g id="node12" class="node"><title>Rbx1</title>
<ellipse fill="none" stroke="black" cx="143.685" cy="-215.782" rx="18" ry="18"/>
<text text-anchor="middle" x="143.685" y="-214.582" font-family="Times,serif" font-size="4.00">Rbx1</text>
</g>
<!-- Rbx1_Cul2 -->
<g id="node23" class="node"><title>Rbx1_Cul2</title>
<ellipse fill="none" stroke="black" cx="194.685" cy="-363.682" rx="20.3063" ry="20.3062"/>
<text text-anchor="middle" x="194.685" y="-362.482" font-family="Times,serif" font-size="4.00">Rbx1_Cul2</text>
</g>
<!-- Rbx1&#45;&gt;Rbx1_Cul2 -->
<g id="edge26" class="edge"><title>Rbx1&#45;&gt;Rbx1_Cul2</title>
<path fill="none" stroke="black" d="M153.074,-231.452C164.253,-255.327 181.337,-303.015 190.112,-333.854"/>
<polygon fill="black" stroke="black" points="186.76,-334.868 192.749,-343.608 193.517,-333.041 186.76,-334.868"/>
</g>
<!-- Cul2 ubiquitin ligase_N8_E2_substrate -->
<g id="node13" class="node"><title>Cul2 ubiquitin ligase_N8_E2_substrate</title>
<ellipse fill="none" stroke="black" cx="449.685" cy="-842.32" rx="49.142" ry="49.142"/>
<text text-anchor="middle" x="449.685" y="-841.12" font-family="Times,serif" font-size="4.00">Cul2 ubiquitin ligase_N8_E2_substrate</text>
</g>
<!-- Cul2 ubiquitin ligase_N8_E2_substrate&#45;&gt;Cul2 ubiquitin ligase_substrate -->
<g id="edge28" class="edge"><title>Cul2 ubiquitin ligase_N8_E2_substrate&#45;&gt;Cul2 ubiquitin ligase_substrate</title>
<path fill="none" stroke="black" d="M430.106,-887.808C420.7,-904.943 409.31,-924.418 398.86,-941.219"/>
<polygon fill="black" stroke="black" points="395.864,-939.408 393.496,-949.735 401.787,-943.139 395.864,-939.408"/>
</g>
<!-- Cul2 ubiquitin ligase_N8_E2_substrate&#45;&gt;E2 -->
<g id="edge27" class="edge"><title>Cul2 ubiquitin ligase_N8_E2_substrate&#45;&gt;E2</title>
<path fill="none" stroke="black" d="M461.085,-890.559C472.4,-956.609 490.707,-1079.83 521.685,-1181.08 524.355,-1189.8 528.033,-1199.02 531.261,-1207.28"/>
<polygon fill="black" stroke="black" points="528.049,-1208.68 534.877,-1216.78 534.591,-1206.19 528.049,-1208.68"/>
</g>
<!-- NAE_Pevonedistat -->
<g id="node14" class="node"><title>NAE_Pevonedistat</title>
<ellipse fill="none" stroke="black" cx="764.685" cy="-586.826" rx="28.2154" ry="28.2154"/>
<text text-anchor="middle" x="764.685" y="-585.626" font-family="Times,serif" font-size="4.00">NAE_Pevonedistat</text>
</g>
<!-- NAE -->
<g id="node21" class="node"><title>NAE</title>
<ellipse fill="none" stroke="black" cx="700.685" cy="-708.739" rx="18" ry="18"/>
<text text-anchor="middle" x="700.685" y="-707.539" font-family="Times,serif" font-size="4.00">NAE</text>
</g>
<!-- NAE_Pevonedistat&#45;&gt;NAE -->
<g id="edge29" class="edge"><title>NAE_Pevonedistat&#45;&gt;NAE</title>
<path fill="none" stroke="black" d="M756.498,-613.797C746.542,-635.326 730.285,-665.584 717.699,-685.887"/>
<polygon fill="black" stroke="black" points="714.662,-684.141 712.211,-694.448 720.555,-687.919 714.662,-684.141"/>
</g>
<!-- Pevonedistat -->
<g id="node27" class="node"><title>Pevonedistat</title>
<ellipse fill="none" stroke="black" cx="764.685" cy="-482.413" rx="21.9898" ry="21.9898"/>
<text text-anchor="middle" x="764.685" y="-481.213" font-family="Times,serif" font-size="4.00">Pevonedistat</text>
</g>
<!-- NAE_Pevonedistat&#45;&gt;Pevonedistat -->
<g id="edge30" class="edge"><title>NAE_Pevonedistat&#45;&gt;Pevonedistat</title>
<path fill="none" stroke="black" d="M758.679,-559.185C757.774,-545.395 757.694,-528.489 758.439,-514.148"/>
<polygon fill="black" stroke="black" points="761.958,-513.996 759.169,-503.775 754.975,-513.504 761.958,-513.996"/>
</g>
<!-- Cul2 ubiquitin ligase_N8 -->
<g id="node15" class="node"><title>Cul2 ubiquitin ligase_N8</title>
<ellipse fill="none" stroke="black" cx="101.685" cy="-708.739" rx="34.4429" ry="34.4429"/>
<text text-anchor="middle" x="101.685" y="-707.539" font-family="Times,serif" font-size="4.00">Cul2 ubiquitin ligase_N8</text>
</g>
<!-- Cul2 ubiquitin ligase -->
<g id="node30" class="node"><title>Cul2 ubiquitin ligase</title>
<ellipse fill="none" stroke="black" cx="241.685" cy="-482.413" rx="30.5202" ry="30.5202"/>
<text text-anchor="middle" x="241.685" y="-481.213" font-family="Times,serif" font-size="4.00">Cul2 ubiquitin ligase</text>
</g>
<!-- Cul2 ubiquitin ligase_N8&#45;&gt;Cul2 ubiquitin ligase -->
<g id="edge31" class="edge"><title>Cul2 ubiquitin ligase_N8&#45;&gt;Cul2 ubiquitin ligase</title>
<path fill="none" stroke="black" d="M122.923,-681.411C129.687,-674.047 137.543,-666.437 145.685,-660.479 175.847,-638.407 199.525,-654.577 221.685,-624.479 243.002,-595.524 246.559,-553.969 245.652,-523.459"/>
<polygon fill="black" stroke="black" points="249.134,-522.991 245.167,-513.167 242.142,-523.32 249.134,-522.991"/>
</g>
<!-- Zyg11B -->
<g id="node16" class="node"><title>Zyg11B</title>
<ellipse fill="none" stroke="black" cx="253.685" cy="-215.782" rx="18" ry="18"/>
<text text-anchor="middle" x="253.685" y="-214.582" font-family="Times,serif" font-size="4.00">Zyg11B</text>
</g>
<!-- Zyg11B_EloBC -->
<g id="node43" class="node"><title>Zyg11B_EloBC</title>
<ellipse fill="none" stroke="black" cx="257.685" cy="-363.682" rx="24.2908" ry="24.2908"/>
<text text-anchor="middle" x="257.685" y="-362.482" font-family="Times,serif" font-size="4.00">Zyg11B_EloBC</text>
</g>
<!-- Zyg11B&#45;&gt;Zyg11B_EloBC -->
<g id="edge32" class="edge"><title>Zyg11B&#45;&gt;Zyg11B_EloBC</title>
<path fill="none" stroke="black" d="M258.627,-233.438C261.773,-256.753 263.374,-299.615 262.538,-329.562"/>
<polygon fill="black" stroke="black" points="259.041,-329.432 262.14,-339.563 266.035,-329.711 259.041,-329.432"/>
</g>
<!-- NAE1 -->
<g id="node17" class="node"><title>NAE1</title>
<ellipse fill="none" stroke="black" cx="646.685" cy="-586.826" rx="18" ry="18"/>
<text text-anchor="middle" x="646.685" y="-585.626" font-family="Times,serif" font-size="4.00">NAE1</text>
</g>
<!-- NAE1&#45;&gt;NAE -->
<g id="edge33" class="edge"><title>NAE1&#45;&gt;NAE</title>
<path fill="none" stroke="black" d="M657.433,-601.685C668.694,-621.104 685.161,-656.785 694.509,-681.359"/>
<polygon fill="black" stroke="black" points="691.237,-682.604 697.935,-690.813 697.818,-680.219 691.237,-682.604"/>
</g>
<!-- substrate&#45;&gt;Cul2 ubiquitin ligase_Orf10_substrate -->
<g id="edge34" class="edge"><title>substrate&#45;&gt;Cul2 ubiquitin ligase_Orf10_substrate</title>
<path fill="none" stroke="black" d="M197.953,-824.118C196.388,-809.451 195.733,-787.505 195.988,-766.746"/>
<polygon fill="black" stroke="black" points="199.489,-766.756 196.187,-756.688 192.49,-766.617 199.489,-766.756"/>
</g>
<!-- substrate&#45;&gt;Cul2 ubiquitin ligase_substrate -->
<g id="edge35" class="edge"><title>substrate&#45;&gt;Cul2 ubiquitin ligase_substrate</title>
<path fill="none" stroke="black" d="M218.772,-852.254C248.841,-872.341 309.652,-919.917 318.685,-927.641 324.377,-932.508 330.273,-937.735 335.956,-942.959"/>
<polygon fill="black" stroke="black" points="333.838,-945.771 343.533,-950.045 338.619,-940.658 333.838,-945.771"/>
</g>
<!-- Orf10 -->
<g id="node19" class="node"><title>Orf10</title>
<ellipse fill="none" stroke="black" cx="174.685" cy="-482.413" rx="18" ry="18"/>
<text text-anchor="middle" x="174.685" y="-481.213" font-family="Times,serif" font-size="4.00">Orf10</text>
</g>
<!-- Orf10&#45;&gt;Cul2 ubiquitin ligase_Orf10 -->
<g id="edge36" class="edge"><title>Orf10&#45;&gt;Cul2 ubiquitin ligase_Orf10</title>
<path fill="none" stroke="black" d="M179.787,-499.757C181.027,-510.554 181.567,-525.288 181.407,-539.514"/>
<polygon fill="black" stroke="black" points="177.903,-539.639 181.167,-549.719 184.901,-539.804 177.903,-539.639"/>
</g>
<!-- Cul2 ubiquitin ligase_N8_Orf10_E2_substrate&#45;Ub -->
<g id="node20" class="node"><title>Cul2 ubiquitin ligase_N8_Orf10_E2_substrate&#45;Ub</title>
<ellipse fill="none" stroke="black" cx="446.685" cy="-59.9273" rx="59.8547" ry="59.8547"/>
<text text-anchor="middle" x="446.685" y="-58.7273" font-family="Times,serif" font-size="4.00">Cul2 ubiquitin ligase_N8_Orf10_E2_substrate&#45;Ub</text>
</g>
<!-- NAE&#45;&gt;NAE_Pevonedistat -->
<g id="edge38" class="edge"><title>NAE&#45;&gt;NAE_Pevonedistat</title>
<path fill="none" stroke="black" d="M704.739,-691.066C712.662,-672.318 728.746,-641.48 742.408,-618.38"/>
<polygon fill="black" stroke="black" points="745.515,-620.005 747.695,-609.637 739.525,-616.382 745.515,-620.005"/>
</g>
<!-- NAE&#45;&gt;NAE1 -->
<g id="edge40" class="edge"><title>NAE&#45;&gt;NAE1</title>
<path fill="none" stroke="black" d="M689.996,-693.983C678.756,-674.627 662.292,-638.969 652.918,-614.356"/>
<polygon fill="black" stroke="black" points="656.181,-613.088 649.479,-604.883 649.601,-615.477 656.181,-613.088"/>
</g>
<!-- NAE_NEDD8 -->
<g id="node39" class="node"><title>NAE_NEDD8</title>
<ellipse fill="none" stroke="black" cx="476.685" cy="-586.826" rx="22.05" ry="22.05"/>
<text text-anchor="middle" x="476.685" y="-585.626" font-family="Times,serif" font-size="4.00">NAE_NEDD8</text>
</g>
<!-- NAE&#45;&gt;NAE_NEDD8 -->
<g id="edge37" class="edge"><title>NAE&#45;&gt;NAE_NEDD8</title>
<path fill="none" stroke="black" d="M684.933,-699.307C647.496,-679.266 552.763,-628.552 505.057,-603.014"/>
<polygon fill="black" stroke="black" points="506.642,-599.893 496.174,-598.259 503.338,-606.064 506.642,-599.893"/>
</g>
<!-- UBA3 -->
<g id="node40" class="node"><title>UBA3</title>
<ellipse fill="none" stroke="black" cx="700.685" cy="-586.826" rx="18" ry="18"/>
<text text-anchor="middle" x="700.685" y="-585.626" font-family="Times,serif" font-size="4.00">UBA3</text>
</g>
<!-- NAE&#45;&gt;UBA3 -->
<g id="edge39" class="edge"><title>NAE&#45;&gt;UBA3</title>
<path fill="none" stroke="black" d="M695.84,-691.066C693.632,-671.199 693.343,-637.755 694.972,-614.33"/>
<polygon fill="black" stroke="black" points="698.459,-614.627 695.855,-604.357 691.487,-614.01 698.459,-614.627"/>
</g>
<!-- Cul2 ubiquitin ligase_N8_Orf10_E2&#45;Ub_substrate&#45;&gt;Cul2 ubiquitin ligase_N8_Orf10_substrate -->
<g id="edge42" class="edge"><title>Cul2 ubiquitin ligase_N8_Orf10_E2&#45;Ub_substrate&#45;&gt;Cul2 ubiquitin ligase_N8_Orf10_substrate</title>
<path fill="none" stroke="black" d="M473.473,-269.598C477.924,-280.518 482.41,-292.092 486.512,-303.23"/>
<polygon fill="black" stroke="black" points="483.311,-304.669 490.008,-312.879 489.892,-302.285 483.311,-304.669"/>
</g>
<!-- Cul2 ubiquitin ligase_N8_Orf10_E2&#45;Ub_substrate&#45;&gt;Cul2 ubiquitin ligase_N8_Orf10_E2_substrate&#45;Ub -->
<g id="edge41" class="edge"><title>Cul2 ubiquitin ligase_N8_Orf10_E2&#45;Ub_substrate&#45;&gt;Cul2 ubiquitin ligase_N8_Orf10_E2_substrate&#45;Ub</title>
<path fill="none" stroke="black" d="M446.685,-155.738C446.685,-147.424 446.685,-138.815 446.685,-130.329"/>
<polygon fill="black" stroke="black" points="450.185,-130.068 446.685,-120.068 443.185,-130.068 450.185,-130.068"/>
</g>
<!-- Cul2 ubiquitin ligase_N8_Orf10_E2&#45;Ub_substrate&#45;&gt;E2 -->
<g id="edge43" class="edge"><title>Cul2 ubiquitin ligase_N8_Orf10_E2&#45;Ub_substrate&#45;&gt;E2</title>
<path fill="none" stroke="black" d="M445.021,-275.896C442.01,-315.886 439.814,-369.604 450.685,-415.654 454.795,-433.064 460.735,-435.629 468.685,-451.654 490.153,-494.929 501.668,-503.258 516.685,-549.172 538.931,-617.191 544.685,-636.175 544.685,-707.739 544.685,-984.325 544.685,-984.325 544.685,-984.325 544.685,-1065.61 544.685,-1161.78 541.15,-1207.44"/>
<polygon fill="black" stroke="black" points="537.664,-1207.14 540.23,-1217.42 544.634,-1207.78 537.664,-1207.14"/>
</g>
<!-- Rbx1_Cul2&#45;&gt;Rbx1 -->
<g id="edge45" class="edge"><title>Rbx1_Cul2&#45;&gt;Rbx1</title>
<path fill="none" stroke="black" d="M184.47,-346.229C173.047,-321.296 156.099,-273.677 147.709,-243.665"/>
<polygon fill="black" stroke="black" points="151.055,-242.627 145.122,-233.85 144.286,-244.412 151.055,-242.627"/>
</g>
<!-- Rbx1_Cul2&#45;&gt;Cul2 ubiquitin ligase -->
<g id="edge44" class="edge"><title>Rbx1_Cul2&#45;&gt;Cul2 ubiquitin ligase</title>
<path fill="none" stroke="black" d="M205.843,-380.485C214.042,-396.269 224.6,-421.153 232.335,-442.263"/>
<polygon fill="black" stroke="black" points="229.133,-443.704 235.777,-451.957 235.729,-441.362 229.133,-443.704"/>
</g>
<!-- Cul2 -->
<g id="node36" class="node"><title>Cul2</title>
<ellipse fill="none" stroke="black" cx="197.685" cy="-215.782" rx="18" ry="18"/>
<text text-anchor="middle" x="197.685" y="-214.582" font-family="Times,serif" font-size="4.00">Cul2</text>
</g>
<!-- Rbx1_Cul2&#45;&gt;Cul2 -->
<g id="edge46" class="edge"><title>Rbx1_Cul2&#45;&gt;Cul2</title>
<path fill="none" stroke="black" d="M190.368,-343.906C188.404,-318.383 189.126,-272.59 191.775,-243.493"/>
<polygon fill="black" stroke="black" points="195.288,-243.554 192.883,-233.236 188.329,-242.802 195.288,-243.554"/>
</g>
<!-- 26S&#45;proteasom -->
<g id="node24" class="node"><title>26S&#45;proteasom</title>
<ellipse fill="none" stroke="black" cx="469.685" cy="-1342.11" rx="23.7305" ry="23.7305"/>
<text text-anchor="middle" x="469.685" y="-1340.91" font-family="Times,serif" font-size="4.00">26S&#45;proteasom</text>
</g>
<!-- CSN5 -->
<g id="node25" class="node"><title>CSN5</title>
<ellipse fill="none" stroke="black" cx="529.685" cy="-1342.11" rx="18" ry="18"/>
<text text-anchor="middle" x="529.685" y="-1340.91" font-family="Times,serif" font-size="4.00">CSN5</text>
</g>
<!-- Pevonedistat&#45;&gt;NAE_Pevonedistat -->
<g id="edge47" class="edge"><title>Pevonedistat&#45;&gt;NAE_Pevonedistat</title>
<path fill="none" stroke="black" d="M770.2,-503.775C771.388,-516.688 771.719,-533.772 771.192,-549.007"/>
<polygon fill="black" stroke="black" points="767.687,-549.025 770.691,-559.185 774.679,-549.37 767.687,-549.025"/>
</g>
<!-- Cul2 ubiquitin ligase_substrate&#45;&gt;Cul2 ubiquitin ligase_N8_E2&#45;Ub_substrate -->
<g id="edge48" class="edge"><title>Cul2 ubiquitin ligase_substrate&#45;&gt;Cul2 ubiquitin ligase_N8_E2&#45;Ub_substrate</title>
<path fill="none" stroke="black" d="M376.502,-1024.35C377.555,-1036.9 378.339,-1051.06 378.767,-1064.76"/>
<polygon fill="black" stroke="black" points="375.277,-1065.2 379.024,-1075.11 382.275,-1065.03 375.277,-1065.2"/>
</g>
<!-- Cul2 ubiquitin ligase_substrate&#45;&gt;Cul2 ubiquitin ligase_N8_E2_substrate -->
<g id="edge51" class="edge"><title>Cul2 ubiquitin ligase_substrate&#45;&gt;Cul2 ubiquitin ligase_N8_E2_substrate</title>
<path fill="none" stroke="black" d="M384.53,-944.708C393.357,-928.276 404.575,-908.807 415.245,-891.344"/>
<polygon fill="black" stroke="black" points="418.479,-892.769 420.76,-882.422 412.525,-889.089 418.479,-892.769"/>
</g>
<!-- Cul2 ubiquitin ligase_substrate&#45;&gt;substrate -->
<g id="edge50" class="edge"><title>Cul2 ubiquitin ligase_substrate&#45;&gt;substrate</title>
<path fill="none" stroke="black" d="M335.497,-958.455C324.441,-948.707 312.149,-937.443 300.685,-927.641 293.069,-921.128 248.646,-886.287 222.096,-863.477"/>
<polygon fill="black" stroke="black" points="224.323,-860.775 214.491,-856.829 219.716,-866.045 224.323,-860.775"/>
</g>
<!-- Cul2 ubiquitin ligase_substrate&#45;&gt;Cul2 ubiquitin ligase -->
<g id="edge49" class="edge"><title>Cul2 ubiquitin ligase_substrate&#45;&gt;Cul2 ubiquitin ligase</title>
<path fill="none" stroke="black" d="M355.122,-944.005C327.676,-851.523 267.916,-616.83 247.907,-523.033"/>
<polygon fill="black" stroke="black" points="251.302,-522.165 245.829,-513.093 244.45,-523.598 251.302,-522.165"/>
</g>
<!-- Cul2 ubiquitin ligase_substrate&#45;&gt;Ubc12 -->
<g id="edge52" class="edge"><title>Cul2 ubiquitin ligase_substrate&#45;&gt;Ubc12</title>
<path fill="none" stroke="black" d="M363.304,-942.226C361.444,-926.486 359.597,-908.247 358.685,-891.641 356.278,-847.866 356.344,-836.777 358.685,-792.999 362.111,-728.909 371.516,-654.037 376.854,-614.863"/>
<polygon fill="black" stroke="black" points="380.343,-615.184 378.243,-604.799 373.409,-614.227 380.343,-615.184"/>
</g>
<!-- Cul2 ubiquitin ligase_Orf10&#45;&gt;Cul2 ubiquitin ligase_Orf10_substrate -->
<g id="edge53" class="edge"><title>Cul2 ubiquitin ligase_Orf10&#45;&gt;Cul2 ubiquitin ligase_Orf10_substrate</title>
<path fill="none" stroke="black" d="M188.808,-621.937C191.31,-630.801 193.792,-640.597 196.018,-650.305"/>
<polygon fill="black" stroke="black" points="192.662,-651.336 198.235,-660.346 199.497,-649.827 192.662,-651.336"/>
</g>
<!-- Cul2 ubiquitin ligase_Orf10&#45;&gt;Orf10 -->
<g id="edge54" class="edge"><title>Cul2 ubiquitin ligase_Orf10&#45;&gt;Orf10</title>
<path fill="none" stroke="black" d="M168.203,-549.719C167.727,-536.668 167.885,-522.18 168.677,-510.084"/>
<polygon fill="black" stroke="black" points="172.195,-510.025 169.582,-499.757 165.222,-509.413 172.195,-510.025"/>
</g>
<!-- Cul2 ubiquitin ligase_Orf10&#45;&gt;Cul2 ubiquitin ligase -->
<g id="edge55" class="edge"><title>Cul2 ubiquitin ligase_Orf10&#45;&gt;Cul2 ubiquitin ligase</title>
<path fill="none" stroke="black" d="M190.244,-552.292C197.754,-539.993 206.859,-526.144 215.361,-514.107"/>
<polygon fill="black" stroke="black" points="218.405,-515.869 221.413,-505.71 212.726,-511.776 218.405,-515.869"/>
</g>
<!-- Cul2 ubiquitin ligase&#45;&gt;Rbx1_Cul2 -->
<g id="edge58" class="edge"><title>Cul2 ubiquitin ligase&#45;&gt;Rbx1_Cul2</title>
<path fill="none" stroke="black" d="M225.671,-455.796C216.922,-437.364 206.837,-412.489 200.336,-393.388"/>
<polygon fill="black" stroke="black" points="203.616,-392.155 197.207,-383.719 196.956,-394.311 203.616,-392.155"/>
</g>
<!-- Cul2 ubiquitin ligase&#45;&gt;Cul2 ubiquitin ligase_substrate -->
<g id="edge56" class="edge"><title>Cul2 ubiquitin ligase&#45;&gt;Cul2 ubiquitin ligase_substrate</title>
<path fill="none" stroke="black" d="M252.202,-511.625C277.132,-592.971 337.461,-828.77 360.236,-932.435"/>
<polygon fill="black" stroke="black" points="356.844,-933.309 362.384,-942.34 363.686,-931.826 356.844,-933.309"/>
</g>
<!-- Cul2 ubiquitin ligase&#45;&gt;Cul2 ubiquitin ligase_Orf10 -->
<g id="edge59" class="edge"><title>Cul2 ubiquitin ligase&#45;&gt;Cul2 ubiquitin ligase_Orf10</title>
<path fill="none" stroke="black" d="M229.698,-511.009C222.717,-522.8 213.747,-536.729 205.041,-549.353"/>
<polygon fill="black" stroke="black" points="201.964,-547.645 199.084,-557.841 207.693,-551.666 201.964,-547.645"/>
</g>
<!-- Cul2 ubiquitin ligase&#45;&gt;Zyg11B_EloBC -->
<g id="edge57" class="edge"><title>Cul2 ubiquitin ligase&#45;&gt;Zyg11B_EloBC</title>
<path fill="none" stroke="black" d="M239.793,-451.655C241.099,-434.873 243.931,-413.9 247.188,-396.754"/>
<polygon fill="black" stroke="black" points="250.681,-397.144 249.262,-386.644 243.824,-395.737 250.681,-397.144"/>
</g>
<!-- E1&#45;&gt;AMP -->
<g id="edge61" class="edge"><title>E1&#45;&gt;AMP</title>
<path fill="none" stroke="black" d="M651.961,-1110.67C659.857,-1086.18 674.821,-1039.75 684.246,-1010.51"/>
<polygon fill="black" stroke="black" points="687.591,-1011.54 687.328,-1000.95 680.929,-1009.39 687.591,-1011.54"/>
</g>
<!-- E1&#45;&gt;PPi -->
<g id="edge62" class="edge"><title>E1&#45;&gt;PPi</title>
<path fill="none" stroke="black" d="M657.943,-1113.87C679.188,-1089.02 725.337,-1035.03 750.844,-1005.2"/>
<polygon fill="black" stroke="black" points="753.616,-1007.34 757.453,-997.464 748.295,-1002.79 753.616,-1007.34"/>
</g>
<!-- E1&#45;&gt;E2 -->
<g id="edge60" class="edge"><title>E1&#45;&gt;E2</title>
<path fill="none" stroke="black" d="M646.228,-1146.25C641.839,-1157.05 633.533,-1170.83 623.685,-1181.08 605.963,-1199.51 580.778,-1215.04 561.65,-1224.43"/>
<polygon fill="black" stroke="black" points="560.143,-1221.27 552.538,-1228.64 563.083,-1227.62 560.143,-1221.27"/>
</g>
<!-- E2&#45;&gt;Cul2 ubiquitin ligase_N8_E2&#45;Ub_substrate -->
<g id="edge65" class="edge"><title>E2&#45;&gt;Cul2 ubiquitin ligase_N8_E2&#45;Ub_substrate</title>
<path fill="none" stroke="black" d="M519.062,-1227.77C499.223,-1218.06 466.61,-1198.72 439.685,-1181.08 434.036,-1177.37 428.197,-1173.45 422.434,-1169.48"/>
<polygon fill="black" stroke="black" points="424.28,-1166.5 414.075,-1163.65 420.276,-1172.24 424.28,-1166.5"/>
</g>
<!-- E2&#45;&gt;Cul2 ubiquitin ligase_N8_Orf10_0E2_substrate -->
<g id="edge67" class="edge"><title>E2&#45;&gt;Cul2 ubiquitin ligase_N8_Orf10_0E2_substrate</title>
<path fill="none" stroke="black" d="M536.576,-1216.81C540.29,-1206.64 546.04,-1193.39 549.685,-1181.08 574.853,-1096.06 582.685,-1072.99 582.685,-984.325 582.685,-984.325 582.685,-984.325 582.685,-481.413 582.685,-413.854 581.035,-336.61 581.336,-283.089"/>
<polygon fill="black" stroke="black" points="584.836,-283.074 581.42,-273.045 577.837,-283.016 584.836,-283.074"/>
</g>
<!-- E2&#45;&gt;Cul2 ubiquitin ligase_N8_E2_substrate -->
<g id="edge64" class="edge"><title>E2&#45;&gt;Cul2 ubiquitin ligase_N8_E2_substrate</title>
<path fill="none" stroke="black" d="M522.474,-1222.16C515.417,-1211.61 508.145,-1195.66 503.685,-1181.08 474.386,-1085.32 456.421,-969.898 450.063,-901.787"/>
<polygon fill="black" stroke="black" points="453.537,-901.336 449.176,-891.681 446.564,-901.949 453.537,-901.336"/>
</g>
<!-- E2&#45;&gt;Cul2 ubiquitin ligase_N8_Orf10_E2&#45;Ub_substrate -->
<g id="edge66" class="edge"><title>E2&#45;&gt;Cul2 ubiquitin ligase_N8_Orf10_E2&#45;Ub_substrate</title>
<path fill="none" stroke="black" d="M531.139,-1217.42C526.685,-1177.29 526.685,-1072.13 526.685,-984.325 526.685,-984.325 526.685,-984.325 526.685,-707.739 526.685,-636.175 520.931,-617.191 498.685,-549.172 483.668,-503.258 472.153,-494.929 450.685,-451.654 442.735,-435.629 436.795,-433.064 432.685,-415.654 422.523,-372.61 423.779,-322.867 428.699,-283.897"/>
<polygon fill="black" stroke="black" points="432.203,-284.105 430.1,-273.721 425.268,-283.15 432.203,-284.105"/>
</g>
<!-- E2&#45;&gt;E1 -->
<g id="edge63" class="edge"><title>E2&#45;&gt;E1</title>
<path fill="none" stroke="black" d="M549.388,-1223.34C564.667,-1213.86 588.631,-1198.82 605.685,-1181.08 614.462,-1171.94 622.015,-1160.01 628.489,-1149.87"/>
<polygon fill="black" stroke="black" points="631.612,-1151.49 634.136,-1141.2 625.746,-1147.67 631.612,-1151.49"/>
</g>
<!-- Cul2 ubiquitin ligase_N8_substrate&#45;Ub&#45;&gt;Cul2 ubiquitin ligase_N8 -->
<g id="edge69" class="edge"><title>Cul2 ubiquitin ligase_N8_substrate&#45;Ub&#45;&gt;Cul2 ubiquitin ligase_N8</title>
<path fill="none" stroke="black" d="M181.724,-937.007C163.48,-885.204 133.871,-801.13 116.237,-751.06"/>
<polygon fill="black" stroke="black" points="119.5,-749.789 112.877,-741.519 112.898,-752.114 119.5,-749.789"/>
</g>
<!-- Cul2 ubiquitin ligase_N8_substrate&#45;Ub&#45;&gt;substrate -->
<g id="edge68" class="edge"><title>Cul2 ubiquitin ligase_N8_substrate&#45;Ub&#45;&gt;substrate</title>
<path fill="none" stroke="black" d="M199.405,-934.487C200.167,-913.316 201.036,-889.166 201.688,-871.042"/>
<polygon fill="black" stroke="black" points="205.191,-870.996 202.053,-860.877 198.196,-870.744 205.191,-870.996"/>
</g>
<!-- EloC -->
<g id="node34" class="node"><title>EloC</title>
<ellipse fill="none" stroke="black" cx="334.685" cy="-59.9273" rx="18" ry="18"/>
<text text-anchor="middle" x="334.685" y="-58.7273" font-family="Times,serif" font-size="4.00">EloC</text>
</g>
<!-- EloBC -->
<g id="node42" class="node"><title>EloBC</title>
<ellipse fill="none" stroke="black" cx="307.685" cy="-215.782" rx="18" ry="18"/>
<text text-anchor="middle" x="307.685" y="-214.582" font-family="Times,serif" font-size="4.00">EloBC</text>
</g>
<!-- EloC&#45;&gt;EloBC -->
<g id="edge70" class="edge"><title>EloC&#45;&gt;EloBC</title>
<path fill="none" stroke="black" d="M336.125,-77.9687C334.205,-105.001 325.172,-157.87 317.308,-189.383"/>
<polygon fill="black" stroke="black" points="313.889,-188.619 314.698,-199.183 320.653,-190.42 313.889,-188.619"/>
</g>
<!-- EloB -->
<g id="node35" class="node"><title>EloB</title>
<ellipse fill="none" stroke="black" cx="280.685" cy="-59.9273" rx="18" ry="18"/>
<text text-anchor="middle" x="280.685" y="-58.7273" font-family="Times,serif" font-size="4.00">EloB</text>
</g>
<!-- EloB&#45;&gt;EloBC -->
<g id="edge71" class="edge"><title>EloB&#45;&gt;EloBC</title>
<path fill="none" stroke="black" d="M287.739,-76.6694C295.227,-102.802 304.798,-155.445 308.214,-187.656"/>
<polygon fill="black" stroke="black" points="304.738,-188.085 309.125,-197.729 311.71,-187.454 304.738,-188.085"/>
</g>
<!-- Cul2&#45;&gt;Rbx1_Cul2 -->
<g id="edge72" class="edge"><title>Cul2&#45;&gt;Rbx1_Cul2</title>
<path fill="none" stroke="black" d="M201.848,-233.677C203.946,-258.137 203.343,-303.753 200.797,-333.665"/>
<polygon fill="black" stroke="black" points="197.286,-333.608 199.773,-343.906 204.251,-334.304 197.286,-333.608"/>
</g>
<!-- NEDD8 -->
<g id="node37" class="node"><title>NEDD8</title>
<ellipse fill="none" stroke="black" cx="476.685" cy="-708.739" rx="18" ry="18"/>
<text text-anchor="middle" x="476.685" y="-707.539" font-family="Times,serif" font-size="4.00">NEDD8</text>
</g>
<!-- NEDD8&#45;&gt;NAE_NEDD8 -->
<g id="edge73" class="edge"><title>NEDD8&#45;&gt;NAE_NEDD8</title>
<path fill="none" stroke="black" d="M476.685,-690.558C476.685,-672.109 476.685,-642.385 476.685,-619.645"/>
<polygon fill="black" stroke="black" points="480.185,-619.439 476.685,-609.439 473.185,-619.439 480.185,-619.439"/>
</g>
<!-- Cul2 ubiquitin ligase_N8_Orf10&#45;&gt;Cul2 ubiquitin ligase_Orf10 -->
<g id="edge74" class="edge"><title>Cul2 ubiquitin ligase_N8_Orf10&#45;&gt;Cul2 ubiquitin ligase_Orf10</title>
<path fill="none" stroke="black" d="M38.7151,-801.211C34.1136,-762.368 32.9695,-703.232 58.6847,-660.479 74.6496,-633.936 104.43,-615.587 129.819,-603.969"/>
<polygon fill="black" stroke="black" points="131.524,-607.044 139.296,-599.843 128.73,-600.626 131.524,-607.044"/>
</g>
<!-- NAE_NEDD8&#45;&gt;Ubc12_NEDD8 -->
<g id="edge75" class="edge"><title>NAE_NEDD8&#45;&gt;Ubc12_NEDD8</title>
<path fill="none" stroke="black" d="M467.28,-566.563C459.976,-551.603 449.716,-530.586 441.338,-513.426"/>
<polygon fill="black" stroke="black" points="444.44,-511.803 436.908,-504.352 438.15,-514.874 444.44,-511.803"/>
</g>
<!-- UBA3&#45;&gt;NAE -->
<g id="edge76" class="edge"><title>UBA3&#45;&gt;NAE</title>
<path fill="none" stroke="black" d="M705.514,-604.357C707.73,-624.16 708.029,-657.595 706.409,-681.067"/>
<polygon fill="black" stroke="black" points="702.919,-680.797 705.53,-691.066 709.892,-681.411 702.919,-680.797"/>
</g>
<!-- Ubc12&#45;&gt;Ubc12_NEDD8 -->
<g id="edge77" class="edge"><title>Ubc12&#45;&gt;Ubc12_NEDD8</title>
<path fill="none" stroke="black" d="M383.114,-568.914C388.436,-553.167 398.807,-529.413 408.261,-510.935"/>
<polygon fill="black" stroke="black" points="411.36,-512.561 412.945,-502.085 405.173,-509.286 411.36,-512.561"/>
</g>
<!-- EloBC&#45;&gt;EloC -->
<g id="edge78" class="edge"><title>EloBC&#45;&gt;EloC</title>
<path fill="none" stroke="black" d="M306.245,-197.729C308.164,-170.737 317.169,-118.007 325.023,-86.4803"/>
<polygon fill="black" stroke="black" points="328.445,-87.2329 327.631,-76.6694 321.679,-85.4349 328.445,-87.2329"/>
</g>
<!-- EloBC&#45;&gt;EloB -->
<g id="edge79" class="edge"><title>EloBC&#45;&gt;EloB</title>
<path fill="none" stroke="black" d="M300.672,-199.183C293.178,-173.101 283.579,-120.329 280.156,-88.0586"/>
<polygon fill="black" stroke="black" points="283.63,-87.613 279.244,-77.9687 276.658,-88.2432 283.63,-87.613"/>
</g>
<!-- EloBC&#45;&gt;Zyg11B_EloBC -->
<g id="edge80" class="edge"><title>EloBC&#45;&gt;Zyg11B_EloBC</title>
<path fill="none" stroke="black" d="M306.309,-234.082C300.524,-258.351 285.614,-302.86 273.572,-332.613"/>
<polygon fill="black" stroke="black" points="270.239,-331.511 269.615,-342.087 276.699,-334.208 270.239,-331.511"/>
</g>
<!-- Zyg11B_EloBC&#45;&gt;Zyg11B -->
<g id="edge83" class="edge"><title>Zyg11B_EloBC&#45;&gt;Zyg11B</title>
<path fill="none" stroke="black" d="M251.997,-339.885C249.142,-313.848 247.872,-271.289 249.049,-243.659"/>
<polygon fill="black" stroke="black" points="252.552,-243.708 249.65,-233.518 245.565,-243.294 252.552,-243.708"/>
</g>
<!-- Zyg11B_EloBC&#45;&gt;Cul2 ubiquitin ligase -->
<g id="edge81" class="edge"><title>Zyg11B_EloBC&#45;&gt;Cul2 ubiquitin ligase</title>
<path fill="none" stroke="black" d="M260.015,-387.971C259.122,-403.728 256.505,-424.908 253.315,-443.119"/>
<polygon fill="black" stroke="black" points="249.836,-442.682 251.436,-453.156 256.717,-443.971 249.836,-442.682"/>
</g>
<!-- Zyg11B_EloBC&#45;&gt;EloBC -->
<g id="edge82" class="edge"><title>Zyg11B_EloBC&#45;&gt;EloBC</title>
<path fill="none" stroke="black" d="M260.603,-339.24C267.724,-312.122 282.933,-267.721 294.424,-240.49"/>
<polygon fill="black" stroke="black" points="297.644,-241.861 298.467,-231.298 291.237,-239.043 297.644,-241.861"/>
</g>
</g>
</svg>
