<?xml version="1.0" encoding="UTF-8" standalone="no"?>
<!DOCTYPE svg PUBLIC "-//W3C//DTD SVG 1.1//EN"
 "http://www.w3.org/Graphics/SVG/1.1/DTD/svg11.dtd">
<!-- Generated by graphviz version 2.38.0 (20140413.2041)
 -->
<!-- Title: G Pages: 1 -->
<svg width="1060pt" height="1809pt"
 viewBox="0.00 0.00 1060.00 1809.25" xmlns="http://www.w3.org/2000/svg" xmlns:xlink="http://www.w3.org/1999/xlink">
<g id="graph0" class="graph" transform="scale(1 1) rotate(0) translate(4 1805.25)">
<title>G</title>
<polygon fill="white" stroke="none" points="-4,4 -4,-1805.25 1056,-1805.25 1056,4 -4,4"/>
<!-- ELOB_ELOC -->
<g id="node1" class="node"><title>ELOB_ELOC</title>
<ellipse fill="none" stroke="black" cx="176" cy="-1777.38" rx="21.9898" ry="21.9898"/>
<text text-anchor="middle" x="176" y="-1776.18" font-family="Times,serif" font-size="4.00">ELOB_ELOC</text>
</g>
<!-- ELOB -->
<g id="node2" class="node"><title>ELOB</title>
<ellipse fill="none" stroke="black" cx="176" cy="-1661.84" rx="18" ry="18"/>
<text text-anchor="middle" x="176" y="-1660.64" font-family="Times,serif" font-size="4.00">ELOB</text>
</g>
<!-- ELOB_ELOC&#45;&gt;ELOB -->
<g id="edge3" class="edge"><title>ELOB_ELOC&#45;&gt;ELOB</title>
<path fill="none" stroke="black" d="M170.684,-1756.08C168.958,-1737.48 168.79,-1709.82 170.18,-1689.46"/>
<polygon fill="black" stroke="black" points="173.685,-1689.55 171.08,-1679.28 166.712,-1688.93 173.685,-1689.55"/>
</g>
<!-- ELOC -->
<g id="node37" class="node"><title>ELOC</title>
<ellipse fill="none" stroke="black" cx="230" cy="-1661.84" rx="18" ry="18"/>
<text text-anchor="middle" x="230" y="-1660.64" font-family="Times,serif" font-size="4.00">ELOC</text>
</g>
<!-- ELOB_ELOC&#45;&gt;ELOC -->
<g id="edge2" class="edge"><title>ELOB_ELOC&#45;&gt;ELOC</title>
<path fill="none" stroke="black" d="M180.439,-1755.82C188.1,-1735.87 202.407,-1705.68 213.893,-1685.15"/>
<polygon fill="black" stroke="black" points="216.939,-1686.88 218.938,-1676.47 210.887,-1683.36 216.939,-1686.88"/>
</g>
<!-- Zyg11B_EloBC -->
<g id="node41" class="node"><title>Zyg11B_EloBC</title>
<ellipse fill="none" stroke="black" cx="116" cy="-1661.84" rx="24.2908" ry="24.2908"/>
<text text-anchor="middle" x="116" y="-1660.64" font-family="Times,serif" font-size="4.00">Zyg11B_EloBC</text>
</g>
<!-- ELOB_ELOC&#45;&gt;Zyg11B_EloBC -->
<g id="edge1" class="edge"><title>ELOB_ELOC&#45;&gt;Zyg11B_EloBC</title>
<path fill="none" stroke="black" d="M162.503,-1760.12C151.634,-1743.21 136.995,-1716.29 126.87,-1695.05"/>
<polygon fill="black" stroke="black" points="129.942,-1693.36 122.566,-1685.75 123.589,-1696.3 129.942,-1693.36"/>
</g>
<!-- ELOB&#45;&gt;ELOB_ELOC -->
<g id="edge4" class="edge"><title>ELOB&#45;&gt;ELOB_ELOC</title>
<path fill="none" stroke="black" d="M180.92,-1679.28C182.888,-1696.65 183.268,-1724.45 182.063,-1745.86"/>
<polygon fill="black" stroke="black" points="178.554,-1745.86 181.316,-1756.08 185.535,-1746.37 178.554,-1745.86"/>
</g>
<!-- UBE2M_NEDD8 -->
<g id="node3" class="node"><title>UBE2M_NEDD8</title>
<ellipse fill="none" stroke="black" cx="586" cy="-291.557" rx="25.4118" ry="25.4118"/>
<text text-anchor="middle" x="586" y="-290.357" font-family="Times,serif" font-size="4.00">UBE2M_NEDD8</text>
</g>
<!-- Cul2 ubiquitin ligase_N8_Orf10_substrate -->
<g id="node17" class="node"><title>Cul2 ubiquitin ligase_N8_Orf10_substrate</title>
<ellipse fill="none" stroke="black" cx="364" cy="-1155.62" rx="51.9447" ry="51.9447"/>
<text text-anchor="middle" x="364" y="-1154.42" font-family="Times,serif" font-size="4.00">Cul2 ubiquitin ligase_N8_Orf10_substrate</text>
</g>
<!-- UBE2M_NEDD8&#45;&gt;Cul2 ubiquitin ligase_N8_Orf10_substrate -->
<g id="edge7" class="edge"><title>UBE2M_NEDD8&#45;&gt;Cul2 ubiquitin ligase_N8_Orf10_substrate</title>
<path fill="none" stroke="black" d="M595.157,-315.657C601.583,-333.163 609.611,-357.982 613,-380.59 619.989,-427.209 615.976,-439.609 613,-486.656 600.976,-676.744 622.376,-732.178 559,-911.793 531.93,-988.512 515.474,-1005.48 463,-1067.65 448.29,-1085.08 430.024,-1102.12 413.202,-1116.43"/>
<polygon fill="black" stroke="black" points="410.503,-1114.13 405.083,-1123.23 414.997,-1119.5 410.503,-1114.13"/>
</g>
<!-- UBE2M -->
<g id="node28" class="node"><title>UBE2M</title>
<ellipse fill="none" stroke="black" cx="586" cy="-433.623" rx="18" ry="18"/>
<text text-anchor="middle" x="586" y="-432.423" font-family="Times,serif" font-size="4.00">UBE2M</text>
</g>
<!-- UBE2M_NEDD8&#45;&gt;UBE2M -->
<g id="edge5" class="edge"><title>UBE2M_NEDD8&#45;&gt;UBE2M</title>
<path fill="none" stroke="black" d="M591.243,-316.65C593.183,-341.468 593.25,-380.06 591.443,-405.826"/>
<polygon fill="black" stroke="black" points="587.938,-405.739 590.555,-416.005 594.911,-406.348 587.938,-405.739"/>
</g>
<!-- Cul2 ubiquitin ligase_substrate -->
<g id="node36" class="node"><title>Cul2 ubiquitin ligase_substrate</title>
<ellipse fill="none" stroke="black" cx="392" cy="-564.021" rx="41.2319" ry="41.2319"/>
<text text-anchor="middle" x="392" y="-562.821" font-family="Times,serif" font-size="4.00">Cul2 ubiquitin ligase_substrate</text>
</g>
<!-- UBE2M_NEDD8&#45;&gt;Cul2 ubiquitin ligase_substrate -->
<g id="edge6" class="edge"><title>UBE2M_NEDD8&#45;&gt;Cul2 ubiquitin ligase_substrate</title>
<path fill="none" stroke="black" d="M568.316,-309.919C555.956,-321.206 538.576,-335.466 521,-344.59 470.067,-371.029 432.086,-335.178 397,-380.59 367.981,-418.149 371.212,-474.221 378.886,-514.278"/>
<polygon fill="black" stroke="black" points="375.464,-515.011 380.916,-524.096 382.319,-513.594 375.464,-515.011"/>
</g>
<!-- DUB -->
<g id="node4" class="node"><title>DUB</title>
<ellipse fill="none" stroke="black" cx="247" cy="-153.733" rx="18" ry="18"/>
<text text-anchor="middle" x="247" y="-152.533" font-family="Times,serif" font-size="4.00">DUB</text>
</g>
<!-- ubit_traget -->
<g id="node34" class="node"><title>ubit_traget</title>
<ellipse fill="none" stroke="black" cx="247" cy="-34.4715" rx="20.3062" ry="20.3062"/>
<text text-anchor="middle" x="247" y="-33.2715" font-family="Times,serif" font-size="4.00">ubit_traget</text>
</g>
<!-- DUB&#45;&gt;ubit_traget -->
<g id="edge8" class="edge"><title>DUB&#45;&gt;ubit_traget</title>
<path fill="none" stroke="black" d="M247,-135.682C247,-117.232 247,-87.4628 247,-65.1561"/>
<polygon fill="black" stroke="black" points="250.5,-64.8872 247,-54.8873 243.5,-64.8873 250.5,-64.8872"/>
</g>
<!-- Orf10 -->
<g id="node5" class="node"><title>Orf10</title>
<ellipse fill="none" stroke="black" cx="359" cy="-1291.85" rx="18" ry="18"/>
<text text-anchor="middle" x="359" y="-1290.65" font-family="Times,serif" font-size="4.00">Orf10</text>
</g>
<!-- Cul2 ubiquitin ligase_Orf10 -->
<g id="node35" class="node"><title>Cul2 ubiquitin ligase_Orf10</title>
<ellipse fill="none" stroke="black" cx="275" cy="-1413.77" rx="37.8075" ry="37.8075"/>
<text text-anchor="middle" x="275" y="-1412.57" font-family="Times,serif" font-size="4.00">Cul2 ubiquitin ligase_Orf10</text>
</g>
<!-- Orf10&#45;&gt;Cul2 ubiquitin ligase_Orf10 -->
<g id="edge9" class="edge"><title>Orf10&#45;&gt;Cul2 ubiquitin ligase_Orf10</title>
<path fill="none" stroke="black" d="M358.061,-1309.84C354.079,-1319 347.54,-1330.39 341,-1340.11 331.751,-1353.86 320.679,-1368.35 310.171,-1380.74"/>
<polygon fill="black" stroke="black" points="307.298,-1378.71 303.372,-1388.55 312.578,-1383.31 307.298,-1378.71"/>
</g>
<!-- UBA3 -->
<g id="node6" class="node"><title>UBA3</title>
<ellipse fill="none" stroke="black" cx="1034" cy="-433.623" rx="18" ry="18"/>
<text text-anchor="middle" x="1034" y="-432.423" font-family="Times,serif" font-size="4.00">UBA3</text>
</g>
<!-- NAE -->
<g id="node9" class="node"><title>NAE</title>
<ellipse fill="none" stroke="black" cx="980" cy="-564.021" rx="18" ry="18"/>
<text text-anchor="middle" x="980" y="-562.821" font-family="Times,serif" font-size="4.00">NAE</text>
</g>
<!-- UBA3&#45;&gt;NAE -->
<g id="edge10" class="edge"><title>UBA3&#45;&gt;NAE</title>
<path fill="none" stroke="black" d="M1031.56,-451.768C1024.46,-474.449 1007.8,-514.505 995.074,-539.859"/>
<polygon fill="black" stroke="black" points="991.937,-538.305 990.418,-548.79 998.144,-541.541 991.937,-538.305"/>
</g>
<!-- Orf10 (+)ss sgmRNA -->
<g id="node7" class="node"><title>Orf10 (+)ss sgmRNA</title>
<ellipse fill="none" stroke="black" cx="361" cy="-1413.77" rx="30.5202" ry="30.5202"/>
<text text-anchor="middle" x="361" y="-1412.57" font-family="Times,serif" font-size="4.00">Orf10 (+)ss sgmRNA</text>
</g>
<!-- Orf10 (+)ss sgmRNA&#45;&gt;Orf10 -->
<g id="edge11" class="edge"><title>Orf10 (+)ss sgmRNA&#45;&gt;Orf10</title>
<path fill="none" stroke="black" d="M360.5,-1382.82C360.179,-1363.56 359.766,-1338.75 359.454,-1320.06"/>
<polygon fill="black" stroke="black" points="362.95,-1319.79 359.284,-1309.85 355.951,-1319.91 362.95,-1319.79"/>
</g>
<!-- Cul2 ubiquitin ligase_N8_E2_substrate -->
<g id="node8" class="node"><title>Cul2 ubiquitin ligase_N8_E2_substrate</title>
<ellipse fill="none" stroke="black" cx="407" cy="-698.663" rx="49.142" ry="49.142"/>
<text text-anchor="middle" x="407" y="-697.463" font-family="Times,serif" font-size="4.00">Cul2 ubiquitin ligase_N8_E2_substrate</text>
</g>
<!-- Cul2 ubiquitin ligase_N8_E2_substrate&#45;&gt;Cul2 ubiquitin ligase_substrate -->
<g id="edge12" class="edge"><title>Cul2 ubiquitin ligase_N8_E2_substrate&#45;&gt;Cul2 ubiquitin ligase_substrate</title>
<path fill="none" stroke="black" d="M395.177,-650.525C393.589,-639.237 392.192,-627.138 391.151,-615.697"/>
<polygon fill="black" stroke="black" points="394.613,-615.095 390.299,-605.418 387.637,-615.672 394.613,-615.095"/>
</g>
<!-- E2 -->
<g id="node38" class="node"><title>E2</title>
<ellipse fill="none" stroke="black" cx="394" cy="-851.866" rx="18" ry="18"/>
<text text-anchor="middle" x="394" y="-850.666" font-family="Times,serif" font-size="4.00">E2</text>
</g>
<!-- Cul2 ubiquitin ligase_N8_E2_substrate&#45;&gt;E2 -->
<g id="edge13" class="edge"><title>Cul2 ubiquitin ligase_N8_E2_substrate&#45;&gt;E2</title>
<path fill="none" stroke="black" d="M409.178,-748.187C407.779,-773.541 404.834,-803.577 401.521,-824.591"/>
<polygon fill="black" stroke="black" points="398.031,-824.232 399.762,-834.684 404.927,-825.434 398.031,-824.232"/>
</g>
<!-- NAE&#45;&gt;UBA3 -->
<g id="edge17" class="edge"><title>NAE&#45;&gt;UBA3</title>
<path fill="none" stroke="black" d="M982.411,-545.971C989.521,-523.227 1006.3,-482.888 1019.06,-457.513"/>
<polygon fill="black" stroke="black" points="1022.2,-459.073 1023.73,-448.589 1015.99,-455.83 1022.2,-459.073"/>
</g>
<!-- NAE_NEDD8 -->
<g id="node27" class="node"><title>NAE_NEDD8</title>
<ellipse fill="none" stroke="black" cx="682" cy="-433.623" rx="22.05" ry="22.05"/>
<text text-anchor="middle" x="682" y="-432.423" font-family="Times,serif" font-size="4.00">NAE_NEDD8</text>
</g>
<!-- NAE&#45;&gt;NAE_NEDD8 -->
<g id="edge15" class="edge"><title>NAE&#45;&gt;NAE_NEDD8</title>
<path fill="none" stroke="black" d="M963.554,-555.935C915.257,-535.126 773.358,-473.986 711.45,-447.312"/>
<polygon fill="black" stroke="black" points="712.796,-444.081 702.227,-443.338 710.026,-450.509 712.796,-444.081"/>
</g>
<!-- NAE_Pevonedistat -->
<g id="node30" class="node"><title>NAE_Pevonedistat</title>
<ellipse fill="none" stroke="black" cx="916" cy="-433.623" rx="28.2154" ry="28.2154"/>
<text text-anchor="middle" x="916" y="-432.423" font-family="Times,serif" font-size="4.00">NAE_Pevonedistat</text>
</g>
<!-- NAE&#45;&gt;NAE_Pevonedistat -->
<g id="edge14" class="edge"><title>NAE&#45;&gt;NAE_Pevonedistat</title>
<path fill="none" stroke="black" d="M968.781,-549.281C957.075,-530.612 939.521,-496.566 927.712,-470.407"/>
<polygon fill="black" stroke="black" points="930.877,-468.909 923.643,-461.169 924.471,-471.731 930.877,-468.909"/>
</g>
<!-- NAE1 -->
<g id="node40" class="node"><title>NAE1</title>
<ellipse fill="none" stroke="black" cx="980" cy="-433.623" rx="18" ry="18"/>
<text text-anchor="middle" x="980" y="-432.423" font-family="Times,serif" font-size="4.00">NAE1</text>
</g>
<!-- NAE&#45;&gt;NAE1 -->
<g id="edge16" class="edge"><title>NAE&#45;&gt;NAE1</title>
<path fill="none" stroke="black" d="M975.298,-546.498C972.907,-524.926 972.61,-486.9 974.406,-461.239"/>
<polygon fill="black" stroke="black" points="977.91,-461.352 975.305,-451.082 970.937,-460.735 977.91,-461.352"/>
</g>
<!-- CSN5 -->
<g id="node10" class="node"><title>CSN5</title>
<ellipse fill="none" stroke="black" cx="284" cy="-1661.84" rx="18" ry="18"/>
<text text-anchor="middle" x="284" y="-1660.64" font-family="Times,serif" font-size="4.00">CSN5</text>
</g>
<!-- Cul2 ubiquitin ligase -->
<g id="node19" class="node"><title>Cul2 ubiquitin ligase</title>
<ellipse fill="none" stroke="black" cx="187" cy="-1528.79" rx="30.5202" ry="30.5202"/>
<text text-anchor="middle" x="187" y="-1527.59" font-family="Times,serif" font-size="4.00">Cul2 ubiquitin ligase</text>
</g>
<!-- CSN5&#45;&gt;Cul2 ubiquitin ligase -->
<g id="edge18" class="edge"><title>CSN5&#45;&gt;Cul2 ubiquitin ligase</title>
<path fill="none" stroke="black" d="M277.551,-1644.86C272.663,-1633.59 265.373,-1618.38 257,-1606.15 245.171,-1588.87 229.621,-1571.51 216.182,-1557.72"/>
<polygon fill="black" stroke="black" points="218.498,-1555.08 208.971,-1550.45 213.527,-1560.01 218.498,-1555.08"/>
</g>
<!-- CSN5&#45;&gt;Cul2 ubiquitin ligase_Orf10 -->
<g id="edge19" class="edge"><title>CSN5&#45;&gt;Cul2 ubiquitin ligase_Orf10</title>
<path fill="none" stroke="black" d="M283.367,-1643.53C282.003,-1606.23 278.744,-1517.13 276.72,-1461.78"/>
<polygon fill="black" stroke="black" points="280.208,-1461.39 276.344,-1451.52 273.212,-1461.64 280.208,-1461.39"/>
</g>
<!-- CUL2 -->
<g id="node11" class="node"><title>CUL2</title>
<ellipse fill="none" stroke="black" cx="132" cy="-1291.85" rx="18" ry="18"/>
<text text-anchor="middle" x="132" y="-1290.65" font-family="Times,serif" font-size="4.00">CUL2</text>
</g>
<!-- Rbx1_Cul2 -->
<g id="node32" class="node"><title>Rbx1_Cul2</title>
<ellipse fill="none" stroke="black" cx="131" cy="-1413.77" rx="20.3063" ry="20.3063"/>
<text text-anchor="middle" x="131" y="-1412.57" font-family="Times,serif" font-size="4.00">Rbx1_Cul2</text>
</g>
<!-- CUL2&#45;&gt;Rbx1_Cul2 -->
<g id="edge20" class="edge"><title>CUL2&#45;&gt;Rbx1_Cul2</title>
<path fill="none" stroke="black" d="M136.714,-1309.6C138.691,-1328.93 138.753,-1361.03 137.08,-1384.3"/>
<polygon fill="black" stroke="black" points="133.591,-1384.02 136.19,-1394.29 140.564,-1384.64 133.591,-1384.02"/>
</g>
<!-- Cul2 ubiquitin ligase_N8_Orf10 -->
<g id="node12" class="node"><title>Cul2 ubiquitin ligase_N8_Orf10</title>
<ellipse fill="none" stroke="black" cx="466" cy="-1528.79" rx="41.2319" ry="41.2319"/>
<text text-anchor="middle" x="466" y="-1527.59" font-family="Times,serif" font-size="4.00">Cul2 ubiquitin ligase_N8_Orf10</text>
</g>
<!-- Cul2 ubiquitin ligase_N8_Orf10&#45;&gt;Cul2 ubiquitin ligase_Orf10 -->
<g id="edge21" class="edge"><title>Cul2 ubiquitin ligase_N8_Orf10&#45;&gt;Cul2 ubiquitin ligase_Orf10</title>
<path fill="none" stroke="black" d="M428.566,-1510.48C398.625,-1496.08 356.012,-1474.3 321,-1451.42 317.912,-1449.4 314.779,-1447.22 311.676,-1444.97"/>
<polygon fill="black" stroke="black" points="313.68,-1442.1 303.583,-1438.89 309.476,-1447.69 313.68,-1442.1"/>
</g>
<!-- Ub -->
<g id="node13" class="node"><title>Ub</title>
<ellipse fill="none" stroke="black" cx="700" cy="-851.866" rx="18" ry="18"/>
<text text-anchor="middle" x="700" y="-850.666" font-family="Times,serif" font-size="4.00">Ub</text>
</g>
<!-- AMP -->
<g id="node23" class="node"><title>AMP</title>
<ellipse fill="none" stroke="black" cx="732" cy="-564.021" rx="18" ry="18"/>
<text text-anchor="middle" x="732" y="-562.821" font-family="Times,serif" font-size="4.00">AMP</text>
</g>
<!-- Ub&#45;&gt;AMP -->
<g id="edge22" class="edge"><title>Ub&#45;&gt;AMP</title>
<path fill="none" stroke="black" d="M701.906,-833.841C707.253,-786.079 722.429,-650.519 728.955,-592.222"/>
<polygon fill="black" stroke="black" points="732.47,-592.284 730.104,-581.957 725.513,-591.506 732.47,-592.284"/>
</g>
<!-- PPi -->
<g id="node26" class="node"><title>PPi</title>
<ellipse fill="none" stroke="black" cx="786" cy="-564.021" rx="18" ry="18"/>
<text text-anchor="middle" x="786" y="-562.821" font-family="Times,serif" font-size="4.00">PPi</text>
</g>
<!-- Ub&#45;&gt;PPi -->
<g id="edge23" class="edge"><title>Ub&#45;&gt;PPi</title>
<path fill="none" stroke="black" d="M705.552,-834.458C711.896,-815.579 722.497,-783.615 731,-755.938 748.932,-697.569 768.364,-628.633 778.646,-591.654"/>
<polygon fill="black" stroke="black" points="782.113,-592.251 781.414,-581.679 775.368,-590.379 782.113,-592.251"/>
</g>
<!-- E1 -->
<g id="node44" class="node"><title>E1</title>
<ellipse fill="none" stroke="black" cx="662" cy="-698.663" rx="18" ry="18"/>
<text text-anchor="middle" x="662" y="-697.463" font-family="Times,serif" font-size="4.00">E1</text>
</g>
<!-- Ub&#45;&gt;E1 -->
<g id="edge24" class="edge"><title>Ub&#45;&gt;E1</title>
<path fill="none" stroke="black" d="M695.788,-834.107C689.226,-807.994 676.503,-757.372 668.68,-726.243"/>
<polygon fill="black" stroke="black" points="672.063,-725.342 666.231,-716.497 665.274,-727.048 672.063,-725.342"/>
</g>
<!-- Cul2 ubiquitin ligase_N8_E2&#45;Ub_substrate -->
<g id="node14" class="node"><title>Cul2 ubiquitin ligase_N8_E2&#45;Ub_substrate</title>
<ellipse fill="none" stroke="black" cx="459" cy="-433.623" rx="53.066" ry="53.066"/>
<text text-anchor="middle" x="459" y="-432.423" font-family="Times,serif" font-size="4.00">Cul2 ubiquitin ligase_N8_E2&#45;Ub_substrate</text>
</g>
<!-- Cul2 ubiquitin ligase_N8_E2_substrate&#45;Ub -->
<g id="node22" class="node"><title>Cul2 ubiquitin ligase_N8_E2_substrate&#45;Ub</title>
<ellipse fill="none" stroke="black" cx="459" cy="-291.557" rx="53.066" ry="53.066"/>
<text text-anchor="middle" x="459" y="-290.357" font-family="Times,serif" font-size="4.00">Cul2 ubiquitin ligase_N8_E2_substrate&#45;Ub</text>
</g>
<!-- Cul2 ubiquitin ligase_N8_E2&#45;Ub_substrate&#45;&gt;Cul2 ubiquitin ligase_N8_E2_substrate&#45;Ub -->
<g id="edge27" class="edge"><title>Cul2 ubiquitin ligase_N8_E2&#45;Ub_substrate&#45;&gt;Cul2 ubiquitin ligase_N8_E2_substrate&#45;Ub</title>
<path fill="none" stroke="black" d="M459,-380.467C459,-372.173 459,-363.52 459,-355.018"/>
<polygon fill="black" stroke="black" points="462.5,-354.756 459,-344.756 455.5,-354.756 462.5,-354.756"/>
</g>
<!-- Cul2 ubiquitin ligase_N8_E2&#45;Ub_substrate&#45;&gt;Cul2 ubiquitin ligase_substrate -->
<g id="edge25" class="edge"><title>Cul2 ubiquitin ligase_N8_E2&#45;Ub_substrate&#45;&gt;Cul2 ubiquitin ligase_substrate</title>
<path fill="none" stroke="black" d="M440.155,-483.332C434.019,-495.643 427.111,-508.763 420.457,-520.728"/>
<polygon fill="black" stroke="black" points="417.305,-519.193 415.434,-529.621 423.4,-522.635 417.305,-519.193"/>
</g>
<!-- Cul2 ubiquitin ligase_N8_E2&#45;Ub_substrate&#45;&gt;E2 -->
<g id="edge26" class="edge"><title>Cul2 ubiquitin ligase_N8_E2&#45;Ub_substrate&#45;&gt;E2</title>
<path fill="none" stroke="black" d="M478.707,-482.871C497.393,-548.269 516.111,-667.075 474,-755.938 463.18,-778.771 445.439,-771.937 430,-791.938 421.62,-802.795 415.099,-816.67 409.596,-828.229"/>
<polygon fill="black" stroke="black" points="406.422,-826.754 405.194,-837.277 412.717,-829.816 406.422,-826.754"/>
</g>
<!-- 26S&#45;proteasom -->
<g id="node15" class="node"><title>26S&#45;proteasom</title>
<ellipse fill="none" stroke="black" cx="240" cy="-1777.38" rx="23.7305" ry="23.7305"/>
<text text-anchor="middle" x="240" y="-1776.18" font-family="Times,serif" font-size="4.00">26S&#45;proteasom</text>
</g>
<!-- Cul2 ubiquitin ligase_N8_Orf10_E2_substrate&#45;Ub -->
<g id="node16" class="node"><title>Cul2 ubiquitin ligase_N8_Orf10_E2_substrate&#45;Ub</title>
<ellipse fill="none" stroke="black" cx="490" cy="-851.866" rx="59.8547" ry="59.8547"/>
<text text-anchor="middle" x="490" y="-850.666" font-family="Times,serif" font-size="4.00">Cul2 ubiquitin ligase_N8_Orf10_E2_substrate&#45;Ub</text>
</g>
<!-- Cul2 ubiquitin ligase_N8_Orf10_E2&#45;Ub_substrate -->
<g id="node25" class="node"><title>Cul2 ubiquitin ligase_N8_Orf10_E2&#45;Ub_substrate</title>
<ellipse fill="none" stroke="black" cx="394" cy="-1007.72" rx="59.8547" ry="59.8547"/>
<text text-anchor="middle" x="394" y="-1006.52" font-family="Times,serif" font-size="4.00">Cul2 ubiquitin ligase_N8_Orf10_E2&#45;Ub_substrate</text>
</g>
<!-- Cul2 ubiquitin ligase_N8_Orf10_substrate&#45;&gt;Cul2 ubiquitin ligase_N8_Orf10_E2&#45;Ub_substrate -->
<g id="edge28" class="edge"><title>Cul2 ubiquitin ligase_N8_Orf10_substrate&#45;&gt;Cul2 ubiquitin ligase_N8_Orf10_E2&#45;Ub_substrate</title>
<path fill="none" stroke="black" d="M368.021,-1103.59C369.685,-1094.32 371.614,-1084.53 373.668,-1074.9"/>
<polygon fill="black" stroke="black" points="377.127,-1075.46 375.849,-1064.95 370.29,-1073.97 377.127,-1075.46"/>
</g>
<!-- Cul2 ubiquitin ligase_N8_Orf10_0E2_substrate -->
<g id="node31" class="node"><title>Cul2 ubiquitin ligase_N8_Orf10_0E2_substrate</title>
<ellipse fill="none" stroke="black" cx="282" cy="-698.663" rx="57.0522" ry="57.0522"/>
<text text-anchor="middle" x="282" y="-697.463" font-family="Times,serif" font-size="4.00">Cul2 ubiquitin ligase_N8_Orf10_0E2_substrate</text>
</g>
<!-- Cul2 ubiquitin ligase_N8_Orf10_substrate&#45;&gt;Cul2 ubiquitin ligase_N8_Orf10_0E2_substrate -->
<g id="edge29" class="edge"><title>Cul2 ubiquitin ligase_N8_Orf10_substrate&#45;&gt;Cul2 ubiquitin ligase_N8_Orf10_0E2_substrate</title>
<path fill="none" stroke="black" d="M333.761,-1113.11C326.761,-1099.02 320.221,-1082.96 316,-1067.65 287.64,-964.747 277.979,-840.627 277.143,-766.036"/>
<polygon fill="black" stroke="black" points="280.641,-765.825 277.082,-755.846 273.642,-765.867 280.641,-765.825"/>
</g>
<!-- Pevonedistat -->
<g id="node18" class="node"><title>Pevonedistat</title>
<ellipse fill="none" stroke="black" cx="916" cy="-291.557" rx="21.9898" ry="21.9898"/>
<text text-anchor="middle" x="916" y="-290.357" font-family="Times,serif" font-size="4.00">Pevonedistat</text>
</g>
<!-- Pevonedistat&#45;&gt;NAE_Pevonedistat -->
<g id="edge30" class="edge"><title>Pevonedistat&#45;&gt;NAE_Pevonedistat</title>
<path fill="none" stroke="black" d="M920.915,-312.78C922.909,-334.452 923.278,-369.314 922.021,-395.864"/>
<polygon fill="black" stroke="black" points="918.521,-395.761 921.435,-405.948 925.51,-396.168 918.521,-395.761"/>
</g>
<!-- Cul2 ubiquitin ligase&#45;&gt;Rbx1_Cul2 -->
<g id="edge33" class="edge"><title>Cul2 ubiquitin ligase&#45;&gt;Rbx1_Cul2</title>
<path fill="none" stroke="black" d="M169.329,-1503.54C159.204,-1485.84 147.188,-1461.78 139.131,-1443.17"/>
<polygon fill="black" stroke="black" points="142.278,-1441.63 135.204,-1433.74 135.815,-1444.32 142.278,-1441.63"/>
</g>
<!-- Cul2 ubiquitin ligase&#45;&gt;Cul2 ubiquitin ligase_Orf10 -->
<g id="edge32" class="edge"><title>Cul2 ubiquitin ligase&#45;&gt;Cul2 ubiquitin ligase_Orf10</title>
<path fill="none" stroke="black" d="M201.609,-1501.57C212.657,-1485.99 228.027,-1466.05 241.908,-1449.21"/>
<polygon fill="black" stroke="black" points="244.853,-1451.15 248.578,-1441.23 239.481,-1446.66 244.853,-1451.15"/>
</g>
<!-- Cul2 ubiquitin ligase&#45;&gt;Cul2 ubiquitin ligase_substrate -->
<g id="edge31" class="edge"><title>Cul2 ubiquitin ligase&#45;&gt;Cul2 ubiquitin ligase_substrate</title>
<path fill="none" stroke="black" d="M181.412,-1498.48C178.497,-1454.03 179,-1366.88 179,-1292.85 179,-1292.85 179,-1292.85 179,-850.866 179,-756.936 150.369,-716.325 207,-641.387 238.605,-599.565 297.869,-580.303 340.93,-571.669"/>
<polygon fill="black" stroke="black" points="341.767,-575.073 350.952,-569.791 340.478,-568.193 341.767,-575.073"/>
</g>
<!-- Cul2 ubiquitin ligase&#45;&gt;Zyg11B_EloBC -->
<g id="edge34" class="edge"><title>Cul2 ubiquitin ligase&#45;&gt;Zyg11B_EloBC</title>
<path fill="none" stroke="black" d="M177.232,-1558.31C166.537,-1580.73 149.696,-1611.75 136.239,-1633.79"/>
<polygon fill="black" stroke="black" points="133.228,-1632 130.895,-1642.34 139.163,-1635.71 133.228,-1632"/>
</g>
<!-- NEDD8 -->
<g id="node20" class="node"><title>NEDD8</title>
<ellipse fill="none" stroke="black" cx="678" cy="-564.021" rx="18" ry="18"/>
<text text-anchor="middle" x="678" y="-562.821" font-family="Times,serif" font-size="4.00">NEDD8</text>
</g>
<!-- NEDD8&#45;&gt;NAE_NEDD8 -->
<g id="edge35" class="edge"><title>NEDD8&#45;&gt;NAE_NEDD8</title>
<path fill="none" stroke="black" d="M678.531,-545.971C679.163,-525.677 680.232,-491.373 681.017,-466.192"/>
<polygon fill="black" stroke="black" points="684.52,-466.13 681.333,-456.026 677.523,-465.912 684.52,-466.13"/>
</g>
<!-- Cul2 ubiquitin ligase_Orf10_substrate -->
<g id="node21" class="node"><title>Cul2 ubiquitin ligase_Orf10_substrate</title>
<ellipse fill="none" stroke="black" cx="275" cy="-1291.85" rx="48.0213" ry="48.0213"/>
<text text-anchor="middle" x="275" y="-1290.65" font-family="Times,serif" font-size="4.00">Cul2 ubiquitin ligase_Orf10_substrate</text>
</g>
<!-- Cul2 ubiquitin ligase_Orf10_substrate&#45;&gt;Cul2 ubiquitin ligase_N8_Orf10_substrate -->
<g id="edge36" class="edge"><title>Cul2 ubiquitin ligase_Orf10_substrate&#45;&gt;Cul2 ubiquitin ligase_N8_Orf10_substrate</title>
<path fill="none" stroke="black" d="M301.222,-1251.3C310.139,-1237.86 320.241,-1222.62 329.694,-1208.36"/>
<polygon fill="black" stroke="black" points="332.871,-1209.9 335.48,-1199.63 327.037,-1206.03 332.871,-1209.9"/>
</g>
<!-- Cul2 ubiquitin ligase_Orf10_substrate&#45;&gt;UBE2M -->
<g id="edge37" class="edge"><title>Cul2 ubiquitin ligase_Orf10_substrate&#45;&gt;UBE2M</title>
<path fill="none" stroke="black" d="M310.185,-1258.74C317.128,-1253.27 324.572,-1247.95 332,-1243.59 370.224,-1221.16 388.108,-1232.16 425,-1207.59 527.005,-1139.67 616,-1131.27 616,-1008.72 616,-1008.72 616,-1008.72 616,-850.866 616,-703.652 597.101,-527.907 589.303,-461.662"/>
<polygon fill="black" stroke="black" points="592.768,-461.156 588.11,-451.64 585.817,-461.984 592.768,-461.156"/>
</g>
<!-- Cul2 ubiquitin ligase_Orf10_substrate&#45;&gt;ubit_traget -->
<g id="edge38" class="edge"><title>Cul2 ubiquitin ligase_Orf10_substrate&#45;&gt;ubit_traget</title>
<path fill="none" stroke="black" d="M258.973,-1246.15C233.046,-1154.78 184.7,-939.758 168,-755.938 149.4,-551.196 185.016,-218.296 211,-104.943 214.676,-88.907 221.36,-71.6639 228.261,-58.368"/>
<polygon fill="black" stroke="black" points="231.422,-59.8878 233.283,-49.4579 225.324,-56.4504 231.422,-59.8878"/>
</g>
<!-- Cul2 ubiquitin ligase_Orf10_substrate&#45;&gt;Cul2 ubiquitin ligase_Orf10 -->
<g id="edge39" class="edge"><title>Cul2 ubiquitin ligase_Orf10_substrate&#45;&gt;Cul2 ubiquitin ligase_Orf10</title>
<path fill="none" stroke="black" d="M281.604,-1339.68C281.802,-1348.46 281.799,-1357.64 281.593,-1366.41"/>
<polygon fill="black" stroke="black" points="278.093,-1366.35 281.26,-1376.46 285.089,-1366.58 278.093,-1366.35"/>
</g>
<!-- Cul2 ubiquitin ligase_N8_E2_substrate&#45;Ub&#45;&gt;E2 -->
<g id="edge40" class="edge"><title>Cul2 ubiquitin ligase_N8_E2_substrate&#45;Ub&#45;&gt;E2</title>
<path fill="none" stroke="black" d="M494.048,-331.369C504.872,-345.785 515.411,-362.947 521,-380.59 571.46,-539.87 595.788,-619.04 500,-755.938 477.88,-787.553 448.312,-764.683 421,-791.938 412.035,-800.885 405.734,-813.354 401.488,-824.52"/>
<polygon fill="black" stroke="black" points="398.078,-823.675 398.148,-834.269 404.7,-825.943 398.078,-823.675"/>
</g>
<!-- Cul2 ubiquitin ligase_N8_substrate&#45;Ub -->
<g id="node43" class="node"><title>Cul2 ubiquitin ligase_N8_substrate&#45;Ub</title>
<ellipse fill="none" stroke="black" cx="77" cy="-153.733" rx="48.5816" ry="48.5816"/>
<text text-anchor="middle" x="77" y="-152.533" font-family="Times,serif" font-size="4.00">Cul2 ubiquitin ligase_N8_substrate&#45;Ub</text>
</g>
<!-- Cul2 ubiquitin ligase_N8_E2_substrate&#45;Ub&#45;&gt;Cul2 ubiquitin ligase_N8_substrate&#45;Ub -->
<g id="edge41" class="edge"><title>Cul2 ubiquitin ligase_N8_E2_substrate&#45;Ub&#45;&gt;Cul2 ubiquitin ligase_N8_substrate&#45;Ub</title>
<path fill="none" stroke="black" d="M409.06,-272.8C337.641,-247.406 206.77,-200.874 132.436,-174.444"/>
<polygon fill="black" stroke="black" points="133.37,-171.062 122.776,-171.009 131.025,-177.657 133.37,-171.062"/>
</g>
<!-- RBX1 -->
<g id="node24" class="node"><title>RBX1</title>
<ellipse fill="none" stroke="black" cx="78" cy="-1291.85" rx="18" ry="18"/>
<text text-anchor="middle" x="78" y="-1290.65" font-family="Times,serif" font-size="4.00">RBX1</text>
</g>
<!-- RBX1&#45;&gt;Rbx1_Cul2 -->
<g id="edge42" class="edge"><title>RBX1&#45;&gt;Rbx1_Cul2</title>
<path fill="none" stroke="black" d="M88.5361,-1306.54C99.3208,-1325.37 114.951,-1359.71 124.241,-1384.25"/>
<polygon fill="black" stroke="black" points="120.993,-1385.56 127.691,-1393.77 127.574,-1383.17 120.993,-1385.56"/>
</g>
<!-- Cul2 ubiquitin ligase_N8_Orf10_E2&#45;Ub_substrate&#45;&gt;Cul2 ubiquitin ligase_N8_Orf10_E2_substrate&#45;Ub -->
<g id="edge45" class="edge"><title>Cul2 ubiquitin ligase_N8_Orf10_E2&#45;Ub_substrate&#45;&gt;Cul2 ubiquitin ligase_N8_Orf10_E2_substrate&#45;Ub</title>
<path fill="none" stroke="black" d="M425.434,-956.343C434.348,-942.057 444.13,-926.379 453.325,-911.643"/>
<polygon fill="black" stroke="black" points="456.335,-913.431 458.659,-903.094 450.396,-909.725 456.335,-913.431"/>
</g>
<!-- Cul2 ubiquitin ligase_N8_Orf10_E2&#45;Ub_substrate&#45;&gt;Cul2 ubiquitin ligase_N8_Orf10_substrate -->
<g id="edge43" class="edge"><title>Cul2 ubiquitin ligase_N8_Orf10_E2&#45;Ub_substrate&#45;&gt;Cul2 ubiquitin ligase_N8_Orf10_substrate</title>
<path fill="none" stroke="black" d="M388.552,-1067.48C386.774,-1076.88 384.773,-1086.61 382.686,-1096"/>
<polygon fill="black" stroke="black" points="379.208,-1095.51 380.393,-1106.04 386.033,-1097.07 379.208,-1095.51"/>
</g>
<!-- Cul2 ubiquitin ligase_N8_Orf10_E2&#45;Ub_substrate&#45;&gt;E2 -->
<g id="edge44" class="edge"><title>Cul2 ubiquitin ligase_N8_Orf10_E2&#45;Ub_substrate&#45;&gt;E2</title>
<path fill="none" stroke="black" d="M387.423,-948.116C386.97,-924.548 387.406,-898.543 388.733,-879.669"/>
<polygon fill="black" stroke="black" points="392.242,-879.716 389.617,-869.452 385.268,-879.113 392.242,-879.716"/>
</g>
<!-- NAE_NEDD8&#45;&gt;UBE2M_NEDD8 -->
<g id="edge46" class="edge"><title>NAE_NEDD8&#45;&gt;UBE2M_NEDD8</title>
<path fill="none" stroke="black" d="M669.842,-414.883C653.725,-391.369 625.084,-349.582 605.82,-321.474"/>
<polygon fill="black" stroke="black" points="608.463,-319.139 599.922,-312.87 602.689,-323.097 608.463,-319.139"/>
</g>
<!-- UBE2M&#45;&gt;UBE2M_NEDD8 -->
<g id="edge47" class="edge"><title>UBE2M&#45;&gt;UBE2M_NEDD8</title>
<path fill="none" stroke="black" d="M581.445,-416.005C579.072,-394.158 578.623,-355.237 580.098,-326.924"/>
<polygon fill="black" stroke="black" points="583.609,-326.853 580.757,-316.65 576.624,-326.405 583.609,-326.853"/>
</g>
<!-- Cul2 ubiquitin ligase_N8_Orf10_substrate&#45;Ub -->
<g id="node29" class="node"><title>Cul2 ubiquitin ligase_N8_Orf10_substrate&#45;Ub</title>
<ellipse fill="none" stroke="black" cx="583" cy="-1661.84" rx="55.8699" ry="55.8699"/>
<text text-anchor="middle" x="583" y="-1660.64" font-family="Times,serif" font-size="4.00">Cul2 ubiquitin ligase_N8_Orf10_substrate&#45;Ub</text>
</g>
<!-- Cul2 ubiquitin ligase_N8_Orf10_substrate&#45;Ub&#45;&gt;Cul2 ubiquitin ligase_N8_Orf10 -->
<g id="edge49" class="edge"><title>Cul2 ubiquitin ligase_N8_Orf10_substrate&#45;Ub&#45;&gt;Cul2 ubiquitin ligase_N8_Orf10</title>
<path fill="none" stroke="black" d="M546.301,-1619.73C531.558,-1603.22 514.658,-1584.29 500.178,-1568.07"/>
<polygon fill="black" stroke="black" points="502.554,-1565.47 493.284,-1560.35 497.333,-1570.14 502.554,-1565.47"/>
</g>
<!-- Cul2 ubiquitin ligase_N8_Orf10_substrate&#45;Ub&#45;&gt;ubit_traget -->
<g id="edge48" class="edge"><title>Cul2 ubiquitin ligase_N8_Orf10_substrate&#45;Ub&#45;&gt;ubit_traget</title>
<path fill="none" stroke="black" d="M635.102,-1642.01C715.342,-1609.28 860,-1533.77 860,-1414.77 860,-1414.77 860,-1414.77 860,-290.557 860,-162.719 399.822,-64.9137 276.889,-41.0665"/>
<polygon fill="black" stroke="black" points="277.182,-37.5589 266.701,-39.1106 275.862,-44.4334 277.182,-37.5589"/>
</g>
<!-- NAE_Pevonedistat&#45;&gt;NAE -->
<g id="edge51" class="edge"><title>NAE_Pevonedistat&#45;&gt;NAE</title>
<path fill="none" stroke="black" d="M932.436,-457.025C945.404,-479.285 962.507,-513.405 972.533,-536.888"/>
<polygon fill="black" stroke="black" points="969.333,-538.31 976.364,-546.236 975.811,-535.655 969.333,-538.31"/>
</g>
<!-- NAE_Pevonedistat&#45;&gt;Pevonedistat -->
<g id="edge50" class="edge"><title>NAE_Pevonedistat&#45;&gt;Pevonedistat</title>
<path fill="none" stroke="black" d="M910.565,-405.948C908.899,-382.301 908.816,-347.783 910.315,-323.05"/>
<polygon fill="black" stroke="black" points="913.828,-323.013 911.085,-312.78 906.847,-322.49 913.828,-323.013"/>
</g>
<!-- Cul2 ubiquitin ligase_N8_Orf10_0E2_substrate&#45;&gt;Cul2 ubiquitin ligase_N8_Orf10_substrate -->
<g id="edge52" class="edge"><title>Cul2 ubiquitin ligase_N8_Orf10_0E2_substrate&#45;&gt;Cul2 ubiquitin ligase_N8_Orf10_substrate</title>
<path fill="none" stroke="black" d="M289.43,-755.531C295.085,-828.527 304.263,-959.752 334,-1067.65 336.638,-1077.22 340.182,-1087.08 343.946,-1096.57"/>
<polygon fill="black" stroke="black" points="340.74,-1097.98 347.758,-1105.92 347.221,-1095.34 340.74,-1097.98"/>
</g>
<!-- Cul2 ubiquitin ligase_N8_Orf10_0E2_substrate&#45;&gt;E2 -->
<g id="edge53" class="edge"><title>Cul2 ubiquitin ligase_N8_Orf10_0E2_substrate&#45;&gt;E2</title>
<path fill="none" stroke="black" d="M319.502,-742.012C340.795,-769.299 366.014,-803.803 381.115,-826.564"/>
<polygon fill="black" stroke="black" points="378.369,-828.764 386.743,-835.254 384.244,-824.958 378.369,-828.764"/>
</g>
<!-- Rbx1_Cul2&#45;&gt;CUL2 -->
<g id="edge54" class="edge"><title>Rbx1_Cul2&#45;&gt;CUL2</title>
<path fill="none" stroke="black" d="M126.094,-1394.03C124.258,-1374.01 124.304,-1342.12 126.056,-1319.49"/>
<polygon fill="black" stroke="black" points="129.541,-1319.82 127.016,-1309.53 122.573,-1319.14 129.541,-1319.82"/>
</g>
<!-- Rbx1_Cul2&#45;&gt;Cul2 ubiquitin ligase -->
<g id="edge56" class="edge"><title>Rbx1_Cul2&#45;&gt;Cul2 ubiquitin ligase</title>
<path fill="none" stroke="black" d="M143.327,-1429.99C152.705,-1445.19 165.137,-1469.18 174.501,-1489.59"/>
<polygon fill="black" stroke="black" points="171.418,-1491.27 178.694,-1498.97 177.808,-1488.42 171.418,-1491.27"/>
</g>
<!-- Rbx1_Cul2&#45;&gt;RBX1 -->
<g id="edge55" class="edge"><title>Rbx1_Cul2&#45;&gt;RBX1</title>
<path fill="none" stroke="black" d="M119.34,-1397.09C108.283,-1377.31 92.802,-1343.02 83.9399,-1319.19"/>
<polygon fill="black" stroke="black" points="87.2145,-1317.95 80.5794,-1309.69 80.6153,-1320.29 87.2145,-1317.95"/>
</g>
<!-- Cul2 ubiquitin ligase_N8 -->
<g id="node33" class="node"><title>Cul2 ubiquitin ligase_N8</title>
<ellipse fill="none" stroke="black" cx="39" cy="-34.4715" rx="34.4429" ry="34.4429"/>
<text text-anchor="middle" x="39" y="-33.2715" font-family="Times,serif" font-size="4.00">Cul2 ubiquitin ligase_N8</text>
</g>
<!-- Cul2 ubiquitin ligase_N8&#45;&gt;Cul2 ubiquitin ligase -->
<g id="edge57" class="edge"><title>Cul2 ubiquitin ligase_N8&#45;&gt;Cul2 ubiquitin ligase</title>
<path fill="none" stroke="black" d="M28.5316,-67.3475C25.0296,-79.0586 21.4085,-92.4974 19,-104.943 3.24438,-186.358 0,-207.631 0,-290.557 0,-1292.85 0,-1292.85 0,-1292.85 0,-1400.17 63.1335,-1415.74 143,-1487.42 147.547,-1491.5 152.332,-1495.84 157.005,-1500.11"/>
<polygon fill="black" stroke="black" points="154.963,-1502.98 164.702,-1507.16 159.691,-1497.82 154.963,-1502.98"/>
</g>
<!-- ubit_traget&#45;&gt;Cul2 ubiquitin ligase_Orf10_substrate -->
<g id="edge58" class="edge"><title>ubit_traget&#45;&gt;Cul2 ubiquitin ligase_Orf10_substrate</title>
<path fill="none" stroke="black" d="M245.314,-54.7546C240.633,-68.4366 233.019,-87.4112 229,-104.943 203.016,-218.296 167.4,-551.196 186,-755.938 202.005,-932.113 247.079,-1136.95 266.568,-1234.12"/>
<polygon fill="black" stroke="black" points="263.155,-1234.9 268.539,-1244.02 270.021,-1233.53 263.155,-1234.9"/>
</g>
<!-- ubit_traget&#45;&gt;Cul2 ubiquitin ligase_substrate -->
<g id="edge59" class="edge"><title>ubit_traget&#45;&gt;Cul2 ubiquitin ligase_substrate</title>
<path fill="none" stroke="black" d="M260.147,-49.9202C268.073,-63.8428 276.831,-85.5866 283,-104.943 336.121,-271.616 333.447,-317.758 379,-486.656 381.297,-495.173 383.819,-504.199 386.17,-512.949"/>
<polygon fill="black" stroke="black" points="382.799,-513.89 388.731,-522.668 389.568,-512.107 382.799,-513.89"/>
</g>
<!-- Cul2 ubiquitin ligase_Orf10&#45;&gt;Orf10 -->
<g id="edge62" class="edge"><title>Cul2 ubiquitin ligase_Orf10&#45;&gt;Orf10</title>
<path fill="none" stroke="black" d="M293.453,-1380.61C302.756,-1368.25 313.783,-1353.81 323,-1340.11 328.872,-1331.38 334.743,-1321.31 340.243,-1312.71"/>
<polygon fill="black" stroke="black" points="343.154,-1314.65 345.826,-1304.4 337.344,-1310.75 343.154,-1314.65"/>
</g>
<!-- Cul2 ubiquitin ligase_Orf10&#45;&gt;Cul2 ubiquitin ligase -->
<g id="edge61" class="edge"><title>Cul2 ubiquitin ligase_Orf10&#45;&gt;Cul2 ubiquitin ligase</title>
<path fill="none" stroke="black" d="M256.238,-1446.76C244.336,-1463.14 228.867,-1482.94 215.502,-1498.86"/>
<polygon fill="black" stroke="black" points="212.56,-1496.91 208.734,-1506.79 217.886,-1501.45 212.56,-1496.91"/>
</g>
<!-- Cul2 ubiquitin ligase_Orf10&#45;&gt;Cul2 ubiquitin ligase_Orf10_substrate -->
<g id="edge60" class="edge"><title>Cul2 ubiquitin ligase_Orf10&#45;&gt;Cul2 ubiquitin ligase_Orf10_substrate</title>
<path fill="none" stroke="black" d="M268.74,-1376.46C268.373,-1368.05 268.212,-1358.89 268.257,-1349.83"/>
<polygon fill="black" stroke="black" points="271.759,-1349.73 268.396,-1339.68 264.76,-1349.63 271.759,-1349.73"/>
</g>
<!-- Cul2 ubiquitin ligase_substrate&#45;&gt;Cul2 ubiquitin ligase_N8_E2_substrate -->
<g id="edge63" class="edge"><title>Cul2 ubiquitin ligase_substrate&#45;&gt;Cul2 ubiquitin ligase_N8_E2_substrate</title>
<path fill="none" stroke="black" d="M402.637,-604.112C404.319,-614.997 405.849,-627.066 407.057,-638.817"/>
<polygon fill="black" stroke="black" points="403.597,-639.403 408.032,-649.025 410.565,-638.738 403.597,-639.403"/>
</g>
<!-- Cul2 ubiquitin ligase_substrate&#45;&gt;Cul2 ubiquitin ligase_N8_E2&#45;Ub_substrate -->
<g id="edge67" class="edge"><title>Cul2 ubiquitin ligase_substrate&#45;&gt;Cul2 ubiquitin ligase_N8_E2&#45;Ub_substrate</title>
<path fill="none" stroke="black" d="M405.69,-524.845C411.34,-513.067 418.079,-499.883 424.856,-487.307"/>
<polygon fill="black" stroke="black" points="428.061,-488.741 429.782,-478.287 421.917,-485.386 428.061,-488.741"/>
</g>
<!-- Cul2 ubiquitin ligase_substrate&#45;&gt;Cul2 ubiquitin ligase -->
<g id="edge65" class="edge"><title>Cul2 ubiquitin ligase_substrate&#45;&gt;Cul2 ubiquitin ligase</title>
<path fill="none" stroke="black" d="M351.453,-572.415C312.59,-581.394 255.725,-600.73 225,-641.387 168.369,-716.325 197,-756.936 197,-850.866 197,-1292.85 197,-1292.85 197,-1292.85 197,-1361.68 196.566,-1441.84 193.692,-1488.49"/>
<polygon fill="black" stroke="black" points="190.2,-1488.27 192.997,-1498.48 197.183,-1488.75 190.2,-1488.27"/>
</g>
<!-- Cul2 ubiquitin ligase_substrate&#45;&gt;UBE2M -->
<g id="edge64" class="edge"><title>Cul2 ubiquitin ligase_substrate&#45;&gt;UBE2M</title>
<path fill="none" stroke="black" d="M428.153,-543.423C454.489,-528.717 490.705,-507.595 521,-486.656 536.072,-476.238 552.153,-463.381 564.55,-453.054"/>
<polygon fill="black" stroke="black" points="567.092,-455.489 572.486,-446.37 562.582,-450.135 567.092,-455.489"/>
</g>
<!-- Cul2 ubiquitin ligase_substrate&#45;&gt;ubit_traget -->
<g id="edge66" class="edge"><title>Cul2 ubiquitin ligase_substrate&#45;&gt;ubit_traget</title>
<path fill="none" stroke="black" d="M372.86,-526.965C368.653,-514.252 364.557,-499.844 361,-486.656 315.447,-317.758 318.121,-271.616 265,-104.943 260.702,-91.4582 255.148,-76.8148 250.898,-64.4643"/>
<polygon fill="black" stroke="black" points="254.138,-63.1122 247.691,-54.7049 247.488,-65.2978 254.138,-63.1122"/>
</g>
<!-- ELOC&#45;&gt;ELOB_ELOC -->
<g id="edge68" class="edge"><title>ELOC&#45;&gt;ELOB_ELOC</title>
<path fill="none" stroke="black" d="M226.962,-1679.66C220.102,-1698.47 205.77,-1729.15 193.854,-1750.91"/>
<polygon fill="black" stroke="black" points="190.799,-1749.2 188.923,-1759.63 196.893,-1752.65 190.799,-1749.2"/>
</g>
<!-- E2&#45;&gt;Cul2 ubiquitin ligase_N8_E2_substrate -->
<g id="edge70" class="edge"><title>E2&#45;&gt;Cul2 ubiquitin ligase_N8_E2_substrate</title>
<path fill="none" stroke="black" d="M391.008,-834.107C390.633,-815.549 392.579,-784.611 395.489,-757.089"/>
<polygon fill="black" stroke="black" points="398.969,-757.46 396.602,-747.133 392.013,-756.682 398.969,-757.46"/>
</g>
<!-- E2&#45;&gt;Cul2 ubiquitin ligase_N8_E2&#45;Ub_substrate -->
<g id="edge73" class="edge"><title>E2&#45;&gt;Cul2 ubiquitin ligase_N8_E2&#45;Ub_substrate</title>
<path fill="none" stroke="black" d="M392.021,-833.742C394.997,-821.335 402.236,-804.588 412,-791.938 427.439,-771.937 445.18,-778.771 456,-755.938 495.373,-672.853 481.57,-563.591 469.137,-496.281"/>
<polygon fill="black" stroke="black" points="472.538,-495.431 467.24,-486.256 465.66,-496.732 472.538,-495.431"/>
</g>
<!-- E2&#45;&gt;Cul2 ubiquitin ligase_N8_Orf10_E2&#45;Ub_substrate -->
<g id="edge71" class="edge"><title>E2&#45;&gt;Cul2 ubiquitin ligase_N8_Orf10_E2&#45;Ub_substrate</title>
<path fill="none" stroke="black" d="M398.383,-869.452C400.153,-886.04 400.93,-912.674 400.715,-938.087"/>
<polygon fill="black" stroke="black" points="397.215,-938.068 400.577,-948.116 404.214,-938.165 397.215,-938.068"/>
</g>
<!-- E2&#45;&gt;Cul2 ubiquitin ligase_N8_Orf10_0E2_substrate -->
<g id="edge72" class="edge"><title>E2&#45;&gt;Cul2 ubiquitin ligase_N8_Orf10_0E2_substrate</title>
<path fill="none" stroke="black" d="M381.369,-839.001C365.781,-821.247 339.22,-786.61 317.404,-756.313"/>
<polygon fill="black" stroke="black" points="320.053,-754 311.39,-747.901 314.359,-758.071 320.053,-754"/>
</g>
<!-- E2&#45;&gt;E1 -->
<g id="edge69" class="edge"><title>E2&#45;&gt;E1</title>
<path fill="none" stroke="black" d="M390.315,-833.999C392.253,-820.716 399.291,-802.703 412,-791.938 458.729,-752.359 487.958,-778.217 545,-755.938 577.541,-743.229 613.068,-723.481 636.59,-711.076"/>
<polygon fill="black" stroke="black" points="638.327,-714.118 645.589,-706.404 635.101,-707.905 638.327,-714.118"/>
</g>
<!-- ZYG11B -->
<g id="node39" class="node"><title>ZYG11B</title>
<ellipse fill="none" stroke="black" cx="116" cy="-1528.79" rx="18" ry="18"/>
<text text-anchor="middle" x="116" y="-1527.59" font-family="Times,serif" font-size="4.00">ZYG11B</text>
</g>
<!-- ZYG11B&#45;&gt;Zyg11B_EloBC -->
<g id="edge74" class="edge"><title>ZYG11B&#45;&gt;Zyg11B_EloBC</title>
<path fill="none" stroke="black" d="M120.69,-1546.53C122.921,-1566.96 123.34,-1601.98 121.946,-1627.88"/>
<polygon fill="black" stroke="black" points="118.444,-1627.8 121.267,-1638.01 125.428,-1628.26 118.444,-1627.8"/>
</g>
<!-- NAE1&#45;&gt;NAE -->
<g id="edge75" class="edge"><title>NAE1&#45;&gt;NAE</title>
<path fill="none" stroke="black" d="M984.695,-451.082C987.09,-472.622 987.392,-510.644 985.599,-536.33"/>
<polygon fill="black" stroke="black" points="982.094,-536.23 984.702,-546.498 989.067,-536.844 982.094,-536.23"/>
</g>
<!-- Zyg11B_EloBC&#45;&gt;ELOB_ELOC -->
<g id="edge78" class="edge"><title>Zyg11B_EloBC&#45;&gt;ELOB_ELOC</title>
<path fill="none" stroke="black" d="M130.992,-1681.45C142.147,-1699.18 156.676,-1726.14 166.376,-1746.8"/>
<polygon fill="black" stroke="black" points="163.27,-1748.42 170.589,-1756.08 169.644,-1745.53 163.27,-1748.42"/>
</g>
<!-- Zyg11B_EloBC&#45;&gt;Cul2 ubiquitin ligase -->
<g id="edge76" class="edge"><title>Zyg11B_EloBC&#45;&gt;Cul2 ubiquitin ligase</title>
<path fill="none" stroke="black" d="M122.963,-1638.31C132.537,-1617.41 149.287,-1586.07 163.381,-1562.44"/>
<polygon fill="black" stroke="black" points="166.431,-1564.16 168.632,-1553.79 160.449,-1560.52 166.431,-1564.16"/>
</g>
<!-- Zyg11B_EloBC&#45;&gt;ZYG11B -->
<g id="edge77" class="edge"><title>Zyg11B_EloBC&#45;&gt;ZYG11B</title>
<path fill="none" stroke="black" d="M110.733,-1638.01C108.865,-1615.37 108.762,-1580.68 110.423,-1556.71"/>
<polygon fill="black" stroke="black" points="113.929,-1556.8 111.31,-1546.53 106.955,-1556.19 113.929,-1556.8"/>
</g>
<!-- ATP -->
<g id="node42" class="node"><title>ATP</title>
<ellipse fill="none" stroke="black" cx="754" cy="-851.866" rx="18" ry="18"/>
<text text-anchor="middle" x="754" y="-850.666" font-family="Times,serif" font-size="4.00">ATP</text>
</g>
<!-- ATP&#45;&gt;AMP -->
<g id="edge79" class="edge"><title>ATP&#45;&gt;AMP</title>
<path fill="none" stroke="black" d="M752.69,-833.841C749.022,-786.192 738.63,-651.159 734.125,-592.636"/>
<polygon fill="black" stroke="black" points="737.588,-592.02 733.331,-582.318 730.609,-592.558 737.588,-592.02"/>
</g>
<!-- ATP&#45;&gt;PPi -->
<g id="edge80" class="edge"><title>ATP&#45;&gt;PPi</title>
<path fill="none" stroke="black" d="M763.309,-836.134C774.13,-818.06 791.351,-786.094 798,-755.938 810.691,-698.378 800.018,-628.867 792.276,-591.641"/>
<polygon fill="black" stroke="black" points="795.639,-590.631 790.094,-581.603 788.798,-592.118 795.639,-590.631"/>
</g>
<!-- ATP&#45;&gt;E1 -->
<g id="edge81" class="edge"><title>ATP&#45;&gt;E1</title>
<path fill="none" stroke="black" d="M747.655,-834.965C742.609,-822.877 735.075,-805.988 727,-791.938 712.482,-766.68 692.904,-739.638 679.04,-721.402"/>
<polygon fill="black" stroke="black" points="681.609,-719 672.74,-713.204 676.058,-723.266 681.609,-719"/>
</g>
<!-- Cul2 ubiquitin ligase_N8_substrate&#45;Ub&#45;&gt;Cul2 ubiquitin ligase_N8 -->
<g id="edge83" class="edge"><title>Cul2 ubiquitin ligase_N8_substrate&#45;Ub&#45;&gt;Cul2 ubiquitin ligase_N8</title>
<path fill="none" stroke="black" d="M62.1994,-107.061C59.0133,-97.2291 55.6613,-86.8854 52.5266,-77.2123"/>
<polygon fill="black" stroke="black" points="55.767,-75.8582 49.3546,-67.4242 49.108,-78.0162 55.767,-75.8582"/>
</g>
<!-- Cul2 ubiquitin ligase_N8_substrate&#45;Ub&#45;&gt;ubit_traget -->
<g id="edge82" class="edge"><title>Cul2 ubiquitin ligase_N8_substrate&#45;Ub&#45;&gt;ubit_traget</title>
<path fill="none" stroke="black" d="M115.318,-122.963C123.39,-116.891 131.912,-110.625 140,-104.943 167.275,-85.7815 199.462,-65.1393 221.358,-51.3799"/>
<polygon fill="black" stroke="black" points="223.448,-54.2009 230.068,-45.9288 219.734,-48.2672 223.448,-54.2009"/>
</g>
<!-- E1&#45;&gt;AMP -->
<g id="edge85" class="edge"><title>E1&#45;&gt;AMP</title>
<path fill="none" stroke="black" d="M670.03,-682.447C682.044,-659.681 704.817,-616.53 719.158,-589.355"/>
<polygon fill="black" stroke="black" points="722.276,-590.946 723.848,-580.468 716.085,-587.679 722.276,-590.946"/>
</g>
<!-- E1&#45;&gt;PPi -->
<g id="edge86" class="edge"><title>E1&#45;&gt;PPi</title>
<path fill="none" stroke="black" d="M675.445,-686.555C695.043,-670.007 732.049,-637.388 759,-605.387 763.42,-600.139 767.758,-594.149 771.619,-588.419"/>
<polygon fill="black" stroke="black" points="774.724,-590.064 777.239,-579.772 768.855,-586.25 774.724,-590.064"/>
</g>
<!-- E1&#45;&gt;E2 -->
<g id="edge84" class="edge"><title>E1&#45;&gt;E2</title>
<path fill="none" stroke="black" d="M648.983,-711.583C630.108,-724.014 595.101,-743.401 563,-755.938 505.958,-778.217 476.729,-752.359 430,-791.938 419.4,-800.916 412.745,-814.937 407.686,-827.049"/>
<polygon fill="black" stroke="black" points="404.316,-826.043 403.76,-836.623 410.793,-828.699 404.316,-826.043"/>
</g>
</g>
</svg>
