<?xml version="1.0" encoding="UTF-8" standalone="no"?>
<!DOCTYPE svg PUBLIC "-//W3C//DTD SVG 1.1//EN"
 "http://www.w3.org/Graphics/SVG/1.1/DTD/svg11.dtd">
<!-- Generated by graphviz version 2.38.0 (20140413.2041)
 -->
<!-- Title: G Pages: 1 -->
<svg width="828pt" height="1550pt"
 viewBox="0.00 0.00 828.00 1549.51" xmlns="http://www.w3.org/2000/svg" xmlns:xlink="http://www.w3.org/1999/xlink">
<g id="graph0" class="graph" transform="scale(1 1) rotate(0) translate(4 1545.51)">
<title>G</title>
<polygon fill="white" stroke="none" points="-4,4 -4,-1545.51 824,-1545.51 824,4 -4,4"/>
<!-- ELOB_ELOC -->
<g id="node1" class="node"><title>ELOB_ELOC</title>
<ellipse fill="none" stroke="black" cx="451" cy="-1517.65" rx="21.9898" ry="21.9898"/>
<text text-anchor="middle" x="451" y="-1516.45" font-family="Times,serif" font-size="4.00">ELOB_ELOC</text>
</g>
<!-- ELOC -->
<g id="node6" class="node"><title>ELOC</title>
<ellipse fill="none" stroke="black" cx="206" cy="-1402.1" rx="18" ry="18"/>
<text text-anchor="middle" x="206" y="-1400.9" font-family="Times,serif" font-size="4.00">ELOC</text>
</g>
<!-- ELOB_ELOC&#45;&gt;ELOC -->
<g id="edge1" class="edge"><title>ELOB_ELOC&#45;&gt;ELOC</title>
<path fill="none" stroke="black" d="M429.252,-1516.6C385.044,-1515.61 285.026,-1507.94 224,-1457.78 215.227,-1450.57 209.066,-1439.81 205.53,-1429.73"/>
<polygon fill="black" stroke="black" points="208.892,-1428.75 202.869,-1420.04 202.142,-1430.61 208.892,-1428.75"/>
</g>
<!-- Zyg11B_EloBC -->
<g id="node13" class="node"><title>Zyg11B_EloBC</title>
<ellipse fill="none" stroke="black" cx="451" cy="-1402.1" rx="24.2908" ry="24.2908"/>
<text text-anchor="middle" x="451" y="-1400.9" font-family="Times,serif" font-size="4.00">Zyg11B_EloBC</text>
</g>
<!-- ELOB_ELOC&#45;&gt;Zyg11B_EloBC -->
<g id="edge3" class="edge"><title>ELOB_ELOC&#45;&gt;Zyg11B_EloBC</title>
<path fill="none" stroke="black" d="M445.684,-1496.35C444.129,-1479.59 443.839,-1455.47 444.813,-1435.96"/>
<polygon fill="black" stroke="black" points="448.307,-1436.16 445.461,-1425.96 441.322,-1435.71 448.307,-1436.16"/>
</g>
<!-- ELOB -->
<g id="node32" class="node"><title>ELOB</title>
<ellipse fill="none" stroke="black" cx="511" cy="-1402.1" rx="18" ry="18"/>
<text text-anchor="middle" x="511" y="-1400.9" font-family="Times,serif" font-size="4.00">ELOB</text>
</g>
<!-- ELOB_ELOC&#45;&gt;ELOB -->
<g id="edge2" class="edge"><title>ELOB_ELOC&#45;&gt;ELOB</title>
<path fill="none" stroke="black" d="M454.896,-1496.09C460.276,-1484.85 468.23,-1470.64 475,-1457.78 480.818,-1446.74 487.004,-1434.27 492.864,-1424.03"/>
<polygon fill="black" stroke="black" points="495.932,-1425.72 498.135,-1415.35 489.95,-1422.08 495.932,-1425.72"/>
</g>
<!-- NEDD8 -->
<g id="node2" class="node"><title>NEDD8</title>
<ellipse fill="none" stroke="black" cx="616" cy="-292.617" rx="18" ry="18"/>
<text text-anchor="middle" x="616" y="-291.417" font-family="Times,serif" font-size="4.00">NEDD8</text>
</g>
<!-- NAE_NEDD8 -->
<g id="node35" class="node"><title>NAE_NEDD8</title>
<ellipse fill="none" stroke="black" cx="616" cy="-154.264" rx="22.05" ry="22.05"/>
<text text-anchor="middle" x="616" y="-153.064" font-family="Times,serif" font-size="4.00">NAE_NEDD8</text>
</g>
<!-- NEDD8&#45;&gt;NAE_NEDD8 -->
<g id="edge4" class="edge"><title>NEDD8&#45;&gt;NAE_NEDD8</title>
<path fill="none" stroke="black" d="M616,-274.348C616,-252.459 616,-214.303 616,-187.08"/>
<polygon fill="black" stroke="black" points="619.5,-186.881 616,-176.881 612.5,-186.881 619.5,-186.881"/>
</g>
<!-- Cul2 ubiquitin ligase_N8_Orf10 -->
<g id="node3" class="node"><title>Cul2 ubiquitin ligase_N8_Orf10</title>
<ellipse fill="none" stroke="black" cx="298" cy="-1269.05" rx="41.2319" ry="41.2319"/>
<text text-anchor="middle" x="298" y="-1267.85" font-family="Times,serif" font-size="4.00">Cul2 ubiquitin ligase_N8_Orf10</text>
</g>
<!-- Cul2 ubiquitin ligase_Orf10 -->
<g id="node4" class="node"><title>Cul2 ubiquitin ligase_Orf10</title>
<ellipse fill="none" stroke="black" cx="297" cy="-1154.03" rx="37.8075" ry="37.8075"/>
<text text-anchor="middle" x="297" y="-1152.83" font-family="Times,serif" font-size="4.00">Cul2 ubiquitin ligase_Orf10</text>
</g>
<!-- Cul2 ubiquitin ligase_N8_Orf10&#45;&gt;Cul2 ubiquitin ligase_Orf10 -->
<g id="edge5" class="edge"><title>Cul2 ubiquitin ligase_N8_Orf10&#45;&gt;Cul2 ubiquitin ligase_Orf10</title>
<path fill="none" stroke="black" d="M297.642,-1227.56C297.568,-1219.28 297.491,-1210.49 297.416,-1202"/>
<polygon fill="black" stroke="black" points="300.914,-1201.81 297.326,-1191.85 293.914,-1201.88 300.914,-1201.81"/>
</g>
<!-- Cul2 ubiquitin ligase -->
<g id="node15" class="node"><title>Cul2 ubiquitin ligase</title>
<ellipse fill="none" stroke="black" cx="451" cy="-1269.05" rx="30.5202" ry="30.5202"/>
<text text-anchor="middle" x="451" y="-1267.85" font-family="Times,serif" font-size="4.00">Cul2 ubiquitin ligase</text>
</g>
<!-- Cul2 ubiquitin ligase_Orf10&#45;&gt;Cul2 ubiquitin ligase -->
<g id="edge7" class="edge"><title>Cul2 ubiquitin ligase_Orf10&#45;&gt;Cul2 ubiquitin ligase</title>
<path fill="none" stroke="black" d="M329.28,-1174.32C336.784,-1180 344.651,-1186.16 352,-1191.68 364.894,-1201.37 396.145,-1223.41 420.244,-1241.33"/>
<polygon fill="black" stroke="black" points="418.33,-1244.27 428.429,-1247.48 422.531,-1238.67 418.33,-1244.27"/>
</g>
<!-- Orf10 -->
<g id="node29" class="node"><title>Orf10</title>
<ellipse fill="none" stroke="black" cx="297" cy="-1032.12" rx="18" ry="18"/>
<text text-anchor="middle" x="297" y="-1030.92" font-family="Times,serif" font-size="4.00">Orf10</text>
</g>
<!-- Cul2 ubiquitin ligase_Orf10&#45;&gt;Orf10 -->
<g id="edge8" class="edge"><title>Cul2 ubiquitin ligase_Orf10&#45;&gt;Orf10</title>
<path fill="none" stroke="black" d="M290.74,-1116.73C289.941,-1098.4 290.119,-1076.57 291.274,-1059.81"/>
<polygon fill="black" stroke="black" points="294.781,-1059.89 292.174,-1049.62 287.808,-1059.28 294.781,-1059.89"/>
</g>
<!-- Cul2 ubiquitin ligase_Orf10_substrate -->
<g id="node38" class="node"><title>Cul2 ubiquitin ligase_Orf10_substrate</title>
<ellipse fill="none" stroke="black" cx="212" cy="-1032.12" rx="48.0213" ry="48.0213"/>
<text text-anchor="middle" x="212" y="-1030.92" font-family="Times,serif" font-size="4.00">Cul2 ubiquitin ligase_Orf10_substrate</text>
</g>
<!-- Cul2 ubiquitin ligase_Orf10&#45;&gt;Cul2 ubiquitin ligase_Orf10_substrate -->
<g id="edge6" class="edge"><title>Cul2 ubiquitin ligase_Orf10&#45;&gt;Cul2 ubiquitin ligase_Orf10_substrate</title>
<path fill="none" stroke="black" d="M271.951,-1125.82C262.177,-1113.23 250.978,-1097.85 240.886,-1083.28"/>
<polygon fill="black" stroke="black" points="243.629,-1081.09 235.092,-1074.81 237.853,-1085.04 243.629,-1081.09"/>
</g>
<!-- ubit_traget -->
<g id="node5" class="node"><title>ubit_traget</title>
<ellipse fill="none" stroke="black" cx="102" cy="-34.4715" rx="20.3063" ry="20.3062"/>
<text text-anchor="middle" x="102" y="-33.2715" font-family="Times,serif" font-size="4.00">ubit_traget</text>
</g>
<!-- Cul2 ubiquitin ligase_substrate -->
<g id="node37" class="node"><title>Cul2 ubiquitin ligase_substrate</title>
<ellipse fill="none" stroke="black" cx="427" cy="-292.617" rx="41.2319" ry="41.2319"/>
<text text-anchor="middle" x="427" y="-291.417" font-family="Times,serif" font-size="4.00">Cul2 ubiquitin ligase_substrate</text>
</g>
<!-- ubit_traget&#45;&gt;Cul2 ubiquitin ligase_substrate -->
<g id="edge10" class="edge"><title>ubit_traget&#45;&gt;Cul2 ubiquitin ligase_substrate</title>
<path fill="none" stroke="black" d="M121.838,-38.2068C186.819,-48.2667 388.435,-83.7272 408,-104.943 441.968,-141.776 445.349,-201.199 440.646,-243.09"/>
<polygon fill="black" stroke="black" points="437.167,-242.7 439.33,-253.072 444.107,-243.615 437.167,-242.7"/>
</g>
<!-- ubit_traget&#45;&gt;Cul2 ubiquitin ligase_Orf10_substrate -->
<g id="edge9" class="edge"><title>ubit_traget&#45;&gt;Cul2 ubiquitin ligase_Orf10_substrate</title>
<path fill="none" stroke="black" d="M100.69,-54.8478C96.1832,-68.5726 88.6202,-87.56 84,-104.943 62.4499,-186.022 56,-207.723 56,-291.617 56,-748.984 56,-748.984 56,-748.984 56,-844.244 126.96,-935.897 173.272,-987.705"/>
<polygon fill="black" stroke="black" points="170.893,-990.294 180.196,-995.364 176.086,-985.599 170.893,-990.294"/>
</g>
<!-- ELOC&#45;&gt;ELOB_ELOC -->
<g id="edge11" class="edge"><title>ELOC&#45;&gt;ELOB_ELOC</title>
<path fill="none" stroke="black" d="M216.485,-1417.29C222.191,-1429.74 229.403,-1447.43 242,-1457.78 294.041,-1500.56 374.437,-1512.43 418.955,-1515.61"/>
<polygon fill="black" stroke="black" points="419.005,-1519.12 429.199,-1516.24 419.43,-1512.14 419.005,-1519.12"/>
</g>
<!-- UBE2M -->
<g id="node7" class="node"><title>UBE2M</title>
<ellipse fill="none" stroke="black" cx="558" cy="-154.264" rx="18" ry="18"/>
<text text-anchor="middle" x="558" y="-153.064" font-family="Times,serif" font-size="4.00">UBE2M</text>
</g>
<!-- UBE2M_NEDD8 -->
<g id="node39" class="node"><title>UBE2M_NEDD8</title>
<ellipse fill="none" stroke="black" cx="558" cy="-34.4715" rx="25.4118" ry="25.4118"/>
<text text-anchor="middle" x="558" y="-33.2715" font-family="Times,serif" font-size="4.00">UBE2M_NEDD8</text>
</g>
<!-- UBE2M&#45;&gt;UBE2M_NEDD8 -->
<g id="edge12" class="edge"><title>UBE2M&#45;&gt;UBE2M_NEDD8</title>
<path fill="none" stroke="black" d="M553.155,-136.885C551.192,-119.531 550.746,-91.6317 551.817,-69.4843"/>
<polygon fill="black" stroke="black" points="555.313,-69.6571 552.44,-59.4593 548.326,-69.223 555.313,-69.6571"/>
</g>
<!-- Cul2 ubiquitin ligase_N8_Orf10_E2&#45;Ub_substrate -->
<g id="node8" class="node"><title>Cul2 ubiquitin ligase_N8_Orf10_E2&#45;Ub_substrate</title>
<ellipse fill="none" stroke="black" cx="318" cy="-747.984" rx="59.8547" ry="59.8547"/>
<text text-anchor="middle" x="318" y="-746.784" font-family="Times,serif" font-size="4.00">Cul2 ubiquitin ligase_N8_Orf10_E2&#45;Ub_substrate</text>
</g>
<!-- E2 -->
<g id="node22" class="node"><title>E2</title>
<ellipse fill="none" stroke="black" cx="318" cy="-592.129" rx="18" ry="18"/>
<text text-anchor="middle" x="318" y="-590.929" font-family="Times,serif" font-size="4.00">E2</text>
</g>
<!-- Cul2 ubiquitin ligase_N8_Orf10_E2&#45;Ub_substrate&#45;&gt;E2 -->
<g id="edge13" class="edge"><title>Cul2 ubiquitin ligase_N8_Orf10_E2&#45;Ub_substrate&#45;&gt;E2</title>
<path fill="none" stroke="black" d="M311.423,-688.379C310.97,-664.811 311.406,-638.806 312.733,-619.932"/>
<polygon fill="black" stroke="black" points="316.242,-619.98 313.617,-609.715 309.268,-619.376 316.242,-619.98"/>
</g>
<!-- Cul2 ubiquitin ligase_N8_Orf10_E2_substrate&#45;Ub -->
<g id="node30" class="node"><title>Cul2 ubiquitin ligase_N8_Orf10_E2_substrate&#45;Ub</title>
<ellipse fill="none" stroke="black" cx="414" cy="-592.129" rx="59.8547" ry="59.8547"/>
<text text-anchor="middle" x="414" y="-590.929" font-family="Times,serif" font-size="4.00">Cul2 ubiquitin ligase_N8_Orf10_E2_substrate&#45;Ub</text>
</g>
<!-- Cul2 ubiquitin ligase_N8_Orf10_E2&#45;Ub_substrate&#45;&gt;Cul2 ubiquitin ligase_N8_Orf10_E2_substrate&#45;Ub -->
<g id="edge15" class="edge"><title>Cul2 ubiquitin ligase_N8_Orf10_E2&#45;Ub_substrate&#45;&gt;Cul2 ubiquitin ligase_N8_Orf10_E2_substrate&#45;Ub</title>
<path fill="none" stroke="black" d="M349.434,-696.606C358.348,-682.32 368.13,-666.642 377.325,-651.907"/>
<polygon fill="black" stroke="black" points="380.335,-653.694 382.659,-643.357 374.396,-649.988 380.335,-653.694"/>
</g>
<!-- Cul2 ubiquitin ligase_N8_Orf10_substrate -->
<g id="node42" class="node"><title>Cul2 ubiquitin ligase_N8_Orf10_substrate</title>
<ellipse fill="none" stroke="black" cx="211" cy="-895.883" rx="51.9447" ry="51.9447"/>
<text text-anchor="middle" x="211" y="-894.683" font-family="Times,serif" font-size="4.00">Cul2 ubiquitin ligase_N8_Orf10_substrate</text>
</g>
<!-- Cul2 ubiquitin ligase_N8_Orf10_E2&#45;Ub_substrate&#45;&gt;Cul2 ubiquitin ligase_N8_Orf10_substrate -->
<g id="edge14" class="edge"><title>Cul2 ubiquitin ligase_N8_Orf10_E2&#45;Ub_substrate&#45;&gt;Cul2 ubiquitin ligase_N8_Orf10_substrate</title>
<path fill="none" stroke="black" d="M287.279,-799.686C276.046,-815.577 263.206,-833.027 251.278,-848.597"/>
<polygon fill="black" stroke="black" points="248.478,-846.496 245.136,-856.55 254.018,-850.774 248.478,-846.496"/>
</g>
<!-- AMP -->
<g id="node9" class="node"><title>AMP</title>
<ellipse fill="none" stroke="black" cx="782" cy="-292.617" rx="18" ry="18"/>
<text text-anchor="middle" x="782" y="-291.417" font-family="Times,serif" font-size="4.00">AMP</text>
</g>
<!-- Cul2 ubiquitin ligase_N8_substrate&#45;Ub -->
<g id="node10" class="node"><title>Cul2 ubiquitin ligase_N8_substrate&#45;Ub</title>
<ellipse fill="none" stroke="black" cx="187" cy="-154.264" rx="48.5816" ry="48.5816"/>
<text text-anchor="middle" x="187" y="-153.064" font-family="Times,serif" font-size="4.00">Cul2 ubiquitin ligase_N8_substrate&#45;Ub</text>
</g>
<!-- Cul2 ubiquitin ligase_N8_substrate&#45;Ub&#45;&gt;ubit_traget -->
<g id="edge17" class="edge"><title>Cul2 ubiquitin ligase_N8_substrate&#45;Ub&#45;&gt;ubit_traget</title>
<path fill="none" stroke="black" d="M158.696,-114.041C145.657,-95.9707 130.603,-75.1095 119.286,-59.426"/>
<polygon fill="black" stroke="black" points="122.109,-57.3573 113.419,-51.2963 116.433,-61.4535 122.109,-57.3573"/>
</g>
<!-- Cul2 ubiquitin ligase_N8 -->
<g id="node11" class="node"><title>Cul2 ubiquitin ligase_N8</title>
<ellipse fill="none" stroke="black" cx="330" cy="-34.4715" rx="34.4429" ry="34.4429"/>
<text text-anchor="middle" x="330" y="-33.2715" font-family="Times,serif" font-size="4.00">Cul2 ubiquitin ligase_N8</text>
</g>
<!-- Cul2 ubiquitin ligase_N8_substrate&#45;Ub&#45;&gt;Cul2 ubiquitin ligase_N8 -->
<g id="edge16" class="edge"><title>Cul2 ubiquitin ligase_N8_substrate&#45;Ub&#45;&gt;Cul2 ubiquitin ligase_N8</title>
<path fill="none" stroke="black" d="M224.198,-122.623C246.359,-104.368 274.281,-81.3683 295.876,-63.5803"/>
<polygon fill="black" stroke="black" points="298.324,-66.0984 303.817,-57.0389 293.873,-60.6954 298.324,-66.0984"/>
</g>
<!-- Cul2 ubiquitin ligase_N8&#45;&gt;Cul2 ubiquitin ligase -->
<g id="edge18" class="edge"><title>Cul2 ubiquitin ligase_N8&#45;&gt;Cul2 ubiquitin ligase</title>
<path fill="none" stroke="black" d="M361.984,-48.5684C386.332,-60.0672 418.968,-79.0174 439,-104.943 577.836,-284.624 596,-364.059 596,-591.129 596,-1033.12 596,-1033.12 596,-1033.12 596,-1112.46 557.714,-1125.47 514,-1191.68 503.313,-1207.87 489.806,-1224.62 478.041,-1238.3"/>
<polygon fill="black" stroke="black" points="475.287,-1236.14 471.351,-1245.97 480.562,-1240.74 475.287,-1236.14"/>
</g>
<!-- 26S&#45;proteasom -->
<g id="node12" class="node"><title>26S&#45;proteasom</title>
<ellipse fill="none" stroke="black" cx="515" cy="-1517.65" rx="23.7305" ry="23.7305"/>
<text text-anchor="middle" x="515" y="-1516.45" font-family="Times,serif" font-size="4.00">26S&#45;proteasom</text>
</g>
<!-- Zyg11B_EloBC&#45;&gt;ELOB_ELOC -->
<g id="edge19" class="edge"><title>Zyg11B_EloBC&#45;&gt;ELOB_ELOC</title>
<path fill="none" stroke="black" d="M456.539,-1425.96C457.955,-1443.26 458.129,-1467.2 457.062,-1486.14"/>
<polygon fill="black" stroke="black" points="453.554,-1486.12 456.316,-1496.35 460.536,-1486.63 453.554,-1486.12"/>
</g>
<!-- Zyg11B_EloBC&#45;&gt;Cul2 ubiquitin ligase -->
<g id="edge21" class="edge"><title>Zyg11B_EloBC&#45;&gt;Cul2 ubiquitin ligase</title>
<path fill="none" stroke="black" d="M445.733,-1378.27C444.176,-1359.41 443.845,-1332.18 444.739,-1309.75"/>
<polygon fill="black" stroke="black" points="448.248,-1309.67 445.256,-1299.51 441.256,-1309.32 448.248,-1309.67"/>
</g>
<!-- ZYG11B -->
<g id="node36" class="node"><title>ZYG11B</title>
<ellipse fill="none" stroke="black" cx="518" cy="-1269.05" rx="18" ry="18"/>
<text text-anchor="middle" x="518" y="-1267.85" font-family="Times,serif" font-size="4.00">ZYG11B</text>
</g>
<!-- Zyg11B_EloBC&#45;&gt;ZYG11B -->
<g id="edge20" class="edge"><title>Zyg11B_EloBC&#45;&gt;ZYG11B</title>
<path fill="none" stroke="black" d="M457.404,-1378.27C467.785,-1354.06 487.228,-1316.07 501.5,-1292.14"/>
<polygon fill="black" stroke="black" points="504.608,-1293.77 506.878,-1283.42 498.65,-1290.09 504.608,-1293.77"/>
</g>
<!-- CUL2 -->
<g id="node14" class="node"><title>CUL2</title>
<ellipse fill="none" stroke="black" cx="453" cy="-1032.12" rx="18" ry="18"/>
<text text-anchor="middle" x="453" y="-1030.92" font-family="Times,serif" font-size="4.00">CUL2</text>
</g>
<!-- Rbx1_Cul2 -->
<g id="node16" class="node"><title>Rbx1_Cul2</title>
<ellipse fill="none" stroke="black" cx="452" cy="-1154.03" rx="20.3062" ry="20.3063"/>
<text text-anchor="middle" x="452" y="-1152.83" font-family="Times,serif" font-size="4.00">Rbx1_Cul2</text>
</g>
<!-- CUL2&#45;&gt;Rbx1_Cul2 -->
<g id="edge22" class="edge"><title>CUL2&#45;&gt;Rbx1_Cul2</title>
<path fill="none" stroke="black" d="M457.714,-1049.87C459.691,-1069.2 459.753,-1101.3 458.08,-1124.56"/>
<polygon fill="black" stroke="black" points="454.591,-1124.28 457.19,-1134.56 461.564,-1124.91 454.591,-1124.28"/>
</g>
<!-- Cul2 ubiquitin ligase&#45;&gt;Cul2 ubiquitin ligase_Orf10 -->
<g id="edge25" class="edge"><title>Cul2 ubiquitin ligase&#45;&gt;Cul2 ubiquitin ligase_Orf10</title>
<path fill="none" stroke="black" d="M424.106,-1253.57C394.636,-1235 350.067,-1203.75 334,-1191.68 332.775,-1190.76 331.536,-1189.82 330.29,-1188.87"/>
<polygon fill="black" stroke="black" points="332.095,-1185.84 322.052,-1182.47 327.799,-1191.37 332.095,-1185.84"/>
</g>
<!-- Cul2 ubiquitin ligase&#45;&gt;Zyg11B_EloBC -->
<g id="edge24" class="edge"><title>Cul2 ubiquitin ligase&#45;&gt;Zyg11B_EloBC</title>
<path fill="none" stroke="black" d="M456.744,-1299.51C458.014,-1319.9 458.082,-1347.05 456.946,-1368.15"/>
<polygon fill="black" stroke="black" points="453.444,-1368.06 456.267,-1378.27 460.429,-1368.53 453.444,-1368.06"/>
</g>
<!-- Cul2 ubiquitin ligase&#45;&gt;Rbx1_Cul2 -->
<g id="edge23" class="edge"><title>Cul2 ubiquitin ligase&#45;&gt;Rbx1_Cul2</title>
<path fill="none" stroke="black" d="M445.254,-1238.65C444.402,-1221.8 444.598,-1200.74 445.765,-1183.97"/>
<polygon fill="black" stroke="black" points="449.283,-1183.93 446.672,-1173.66 442.31,-1183.31 449.283,-1183.93"/>
</g>
<!-- Cul2 ubiquitin ligase&#45;&gt;Cul2 ubiquitin ligase_substrate -->
<g id="edge26" class="edge"><title>Cul2 ubiquitin ligase&#45;&gt;Cul2 ubiquitin ligase_substrate</title>
<path fill="none" stroke="black" d="M455.964,-1238.39C460.948,-1224.43 467.463,-1207.42 472,-1191.68 491.867,-1122.76 502,-1104.84 502,-1033.12 502,-1033.12 502,-1033.12 502,-591.129 502,-497.199 506.183,-469.894 474,-381.65 468.502,-366.574 460.102,-351.389 451.841,-337.977"/>
<polygon fill="black" stroke="black" points="454.754,-336.035 446.464,-329.438 448.831,-339.765 454.754,-336.035"/>
</g>
<!-- Rbx1_Cul2&#45;&gt;CUL2 -->
<g id="edge28" class="edge"><title>Rbx1_Cul2&#45;&gt;CUL2</title>
<path fill="none" stroke="black" d="M447.094,-1134.29C445.258,-1114.28 445.304,-1082.38 447.056,-1059.76"/>
<polygon fill="black" stroke="black" points="450.541,-1060.08 448.016,-1049.79 443.573,-1059.41 450.541,-1060.08"/>
</g>
<!-- Rbx1_Cul2&#45;&gt;Cul2 ubiquitin ligase -->
<g id="edge27" class="edge"><title>Rbx1_Cul2&#45;&gt;Cul2 ubiquitin ligase</title>
<path fill="none" stroke="black" d="M456.998,-1173.66C458.37,-1188.56 458.616,-1209.96 457.817,-1228.62"/>
<polygon fill="black" stroke="black" points="454.32,-1228.47 457.266,-1238.65 461.309,-1228.86 454.32,-1228.47"/>
</g>
<!-- RBX1 -->
<g id="node44" class="node"><title>RBX1</title>
<ellipse fill="none" stroke="black" cx="399" cy="-1032.12" rx="18" ry="18"/>
<text text-anchor="middle" x="399" y="-1030.92" font-family="Times,serif" font-size="4.00">RBX1</text>
</g>
<!-- Rbx1_Cul2&#45;&gt;RBX1 -->
<g id="edge29" class="edge"><title>Rbx1_Cul2&#45;&gt;RBX1</title>
<path fill="none" stroke="black" d="M440.34,-1137.35C429.283,-1117.58 413.802,-1083.28 404.94,-1059.45"/>
<polygon fill="black" stroke="black" points="408.214,-1058.21 401.579,-1049.95 401.615,-1060.55 408.214,-1058.21"/>
</g>
<!-- ATP -->
<g id="node17" class="node"><title>ATP</title>
<ellipse fill="none" stroke="black" cx="744" cy="-592.129" rx="18" ry="18"/>
<text text-anchor="middle" x="744" y="-590.929" font-family="Times,serif" font-size="4.00">ATP</text>
</g>
<!-- ATP&#45;&gt;AMP -->
<g id="edge32" class="edge"><title>ATP&#45;&gt;AMP</title>
<path fill="none" stroke="black" d="M753.309,-576.397C764.13,-558.323 781.351,-526.357 788,-496.202 801.608,-434.485 793.167,-359.646 786.919,-320.479"/>
<polygon fill="black" stroke="black" points="790.337,-319.704 785.234,-310.419 783.434,-320.86 790.337,-319.704"/>
</g>
<!-- E1 -->
<g id="node40" class="node"><title>E1</title>
<ellipse fill="none" stroke="black" cx="652" cy="-438.926" rx="18" ry="18"/>
<text text-anchor="middle" x="652" y="-437.726" font-family="Times,serif" font-size="4.00">E1</text>
</g>
<!-- ATP&#45;&gt;E1 -->
<g id="edge31" class="edge"><title>ATP&#45;&gt;E1</title>
<path fill="none" stroke="black" d="M737.655,-575.228C732.609,-563.14 725.075,-546.251 717,-532.202 702.482,-506.943 682.904,-479.901 669.04,-461.665"/>
<polygon fill="black" stroke="black" points="671.609,-459.264 662.74,-453.467 666.058,-463.529 671.609,-459.264"/>
</g>
<!-- PPi -->
<g id="node41" class="node"><title>PPi</title>
<ellipse fill="none" stroke="black" cx="728" cy="-292.617" rx="18" ry="18"/>
<text text-anchor="middle" x="728" y="-291.417" font-family="Times,serif" font-size="4.00">PPi</text>
</g>
<!-- ATP&#45;&gt;PPi -->
<g id="edge30" class="edge"><title>ATP&#45;&gt;PPi</title>
<path fill="none" stroke="black" d="M743.071,-573.847C740.408,-524.346 732.738,-381.709 729.486,-321.24"/>
<polygon fill="black" stroke="black" points="732.964,-320.744 728.932,-310.946 725.974,-321.12 732.964,-320.744"/>
</g>
<!-- DUB -->
<g id="node18" class="node"><title>DUB</title>
<ellipse fill="none" stroke="black" cx="102" cy="-154.264" rx="18" ry="18"/>
<text text-anchor="middle" x="102" y="-153.064" font-family="Times,serif" font-size="4.00">DUB</text>
</g>
<!-- DUB&#45;&gt;ubit_traget -->
<g id="edge33" class="edge"><title>DUB&#45;&gt;ubit_traget</title>
<path fill="none" stroke="black" d="M102,-136.136C102,-117.517 102,-87.4258 102,-64.9852"/>
<polygon fill="black" stroke="black" points="105.5,-64.975 102,-54.9751 98.5001,-64.9751 105.5,-64.975"/>
</g>
<!-- Cul2 ubiquitin ligase_N8_Orf10_0E2_substrate -->
<g id="node19" class="node"><title>Cul2 ubiquitin ligase_N8_Orf10_0E2_substrate</title>
<ellipse fill="none" stroke="black" cx="199" cy="-438.926" rx="57.0522" ry="57.0522"/>
<text text-anchor="middle" x="199" y="-437.726" font-family="Times,serif" font-size="4.00">Cul2 ubiquitin ligase_N8_Orf10_0E2_substrate</text>
</g>
<!-- Cul2 ubiquitin ligase_N8_Orf10_0E2_substrate&#45;&gt;E2 -->
<g id="edge34" class="edge"><title>Cul2 ubiquitin ligase_N8_Orf10_0E2_substrate&#45;&gt;E2</title>
<path fill="none" stroke="black" d="M237.807,-481.483C260.67,-509.099 288.091,-544.375 304.358,-567.348"/>
<polygon fill="black" stroke="black" points="301.64,-569.57 310.21,-575.799 307.395,-565.585 301.64,-569.57"/>
</g>
<!-- Cul2 ubiquitin ligase_N8_Orf10_0E2_substrate&#45;&gt;Cul2 ubiquitin ligase_N8_Orf10_substrate -->
<g id="edge35" class="edge"><title>Cul2 ubiquitin ligase_N8_Orf10_0E2_substrate&#45;&gt;Cul2 ubiquitin ligase_N8_Orf10_substrate</title>
<path fill="none" stroke="black" d="M205.103,-496.008C210.14,-581.691 214.493,-744.575 214.171,-833.387"/>
<polygon fill="black" stroke="black" points="210.67,-833.558 214.11,-843.578 217.67,-833.599 210.67,-833.558"/>
</g>
<!-- NAE_Pevonedistat -->
<g id="node20" class="node"><title>NAE_Pevonedistat</title>
<ellipse fill="none" stroke="black" cx="738" cy="-154.264" rx="28.2154" ry="28.2154"/>
<text text-anchor="middle" x="738" y="-153.064" font-family="Times,serif" font-size="4.00">NAE_Pevonedistat</text>
</g>
<!-- Pevonedistat -->
<g id="node21" class="node"><title>Pevonedistat</title>
<ellipse fill="none" stroke="black" cx="738" cy="-34.4715" rx="21.9898" ry="21.9898"/>
<text text-anchor="middle" x="738" y="-33.2715" font-family="Times,serif" font-size="4.00">Pevonedistat</text>
</g>
<!-- NAE_Pevonedistat&#45;&gt;Pevonedistat -->
<g id="edge36" class="edge"><title>NAE_Pevonedistat&#45;&gt;Pevonedistat</title>
<path fill="none" stroke="black" d="M732.239,-126.535C731.004,-108.521 730.926,-84.7147 732.003,-65.9613"/>
<polygon fill="black" stroke="black" points="735.503,-66.0886 732.745,-55.859 728.522,-65.5756 735.503,-66.0886"/>
</g>
<!-- NAE -->
<g id="node33" class="node"><title>NAE</title>
<ellipse fill="none" stroke="black" cx="674" cy="-292.617" rx="18" ry="18"/>
<text text-anchor="middle" x="674" y="-291.417" font-family="Times,serif" font-size="4.00">NAE</text>
</g>
<!-- NAE_Pevonedistat&#45;&gt;NAE -->
<g id="edge37" class="edge"><title>NAE_Pevonedistat&#45;&gt;NAE</title>
<path fill="none" stroke="black" d="M731.113,-181.567C720.975,-207.041 702.94,-245.246 689.634,-269.284"/>
<polygon fill="black" stroke="black" points="686.549,-267.628 684.614,-278.045 692.622,-271.108 686.549,-267.628"/>
</g>
<!-- Pevonedistat&#45;&gt;NAE_Pevonedistat -->
<g id="edge38" class="edge"><title>Pevonedistat&#45;&gt;NAE_Pevonedistat</title>
<path fill="none" stroke="black" d="M743.255,-55.859C744.794,-72.5203 745.145,-96.5022 744.307,-116.5"/>
<polygon fill="black" stroke="black" points="740.81,-116.359 743.761,-126.535 747.799,-116.74 740.81,-116.359"/>
</g>
<!-- E2&#45;&gt;Cul2 ubiquitin ligase_N8_Orf10_E2&#45;Ub_substrate -->
<g id="edge41" class="edge"><title>E2&#45;&gt;Cul2 ubiquitin ligase_N8_Orf10_E2&#45;Ub_substrate</title>
<path fill="none" stroke="black" d="M322.383,-609.715C324.153,-626.303 324.93,-652.937 324.715,-678.35"/>
<polygon fill="black" stroke="black" points="321.215,-678.332 324.577,-688.379 328.214,-678.428 321.215,-678.332"/>
</g>
<!-- E2&#45;&gt;Cul2 ubiquitin ligase_N8_Orf10_0E2_substrate -->
<g id="edge43" class="edge"><title>E2&#45;&gt;Cul2 ubiquitin ligase_N8_Orf10_0E2_substrate</title>
<path fill="none" stroke="black" d="M304.819,-579.264C288.222,-561.306 259.597,-526.076 236.23,-495.535"/>
<polygon fill="black" stroke="black" points="238.942,-493.319 230.104,-487.476 233.369,-497.555 238.942,-493.319"/>
</g>
<!-- Cul2 ubiquitin ligase_N8_E2&#45;Ub_substrate -->
<g id="node23" class="node"><title>Cul2 ubiquitin ligase_N8_E2&#45;Ub_substrate</title>
<ellipse fill="none" stroke="black" cx="421" cy="-438.926" rx="53.066" ry="53.066"/>
<text text-anchor="middle" x="421" y="-437.726" font-family="Times,serif" font-size="4.00">Cul2 ubiquitin ligase_N8_E2&#45;Ub_substrate</text>
</g>
<!-- E2&#45;&gt;Cul2 ubiquitin ligase_N8_E2&#45;Ub_substrate -->
<g id="edge39" class="edge"><title>E2&#45;&gt;Cul2 ubiquitin ligase_N8_E2&#45;Ub_substrate</title>
<path fill="none" stroke="black" d="M316.93,-574.022C320.349,-561.927 327.641,-545.555 336,-532.202 346.878,-514.824 360.677,-497.119 374.04,-481.925"/>
<polygon fill="black" stroke="black" points="376.883,-483.999 380.97,-474.224 371.679,-479.316 376.883,-483.999"/>
</g>
<!-- Cul2 ubiquitin ligase_N8_E2_substrate -->
<g id="node25" class="node"><title>Cul2 ubiquitin ligase_N8_E2_substrate</title>
<ellipse fill="none" stroke="black" cx="341" cy="-154.264" rx="49.142" ry="49.142"/>
<text text-anchor="middle" x="341" y="-153.064" font-family="Times,serif" font-size="4.00">Cul2 ubiquitin ligase_N8_E2_substrate</text>
</g>
<!-- E2&#45;&gt;Cul2 ubiquitin ligase_N8_E2_substrate -->
<g id="edge40" class="edge"><title>E2&#45;&gt;Cul2 ubiquitin ligase_N8_E2_substrate</title>
<path fill="none" stroke="black" d="M316.068,-574.042C314.746,-514.393 324.698,-313.599 333.173,-213.295"/>
<polygon fill="black" stroke="black" points="336.66,-213.591 334.04,-203.325 329.687,-212.984 336.66,-213.591"/>
</g>
<!-- E2&#45;&gt;E1 -->
<g id="edge42" class="edge"><title>E2&#45;&gt;E1</title>
<path fill="none" stroke="black" d="M314.251,-574.5C316.117,-561.174 323.156,-542.98 336,-532.202 384.555,-491.456 413.23,-514.224 474,-496.202 527.698,-480.276 590.008,-458.716 625.052,-447.466"/>
<polygon fill="black" stroke="black" points="626.117,-450.8 634.598,-444.451 624.008,-444.125 626.117,-450.8"/>
</g>
<!-- Cul2 ubiquitin ligase_N8_E2&#45;Ub_substrate&#45;&gt;E2 -->
<g id="edge46" class="edge"><title>Cul2 ubiquitin ligase_N8_E2&#45;Ub_substrate&#45;&gt;E2</title>
<path fill="none" stroke="black" d="M390.337,-482.749C378.18,-497.757 364.682,-515.138 354,-532.202 346.723,-543.827 340.255,-557.739 334.504,-569.125"/>
<polygon fill="black" stroke="black" points="331.399,-567.511 329.84,-577.99 337.594,-570.77 331.399,-567.511"/>
</g>
<!-- Cul2 ubiquitin ligase_N8_E2_substrate&#45;Ub -->
<g id="node28" class="node"><title>Cul2 ubiquitin ligase_N8_E2_substrate&#45;Ub</title>
<ellipse fill="none" stroke="black" cx="241" cy="-292.617" rx="53.066" ry="53.066"/>
<text text-anchor="middle" x="241" y="-291.417" font-family="Times,serif" font-size="4.00">Cul2 ubiquitin ligase_N8_E2_substrate&#45;Ub</text>
</g>
<!-- Cul2 ubiquitin ligase_N8_E2&#45;Ub_substrate&#45;&gt;Cul2 ubiquitin ligase_N8_E2_substrate&#45;Ub -->
<g id="edge44" class="edge"><title>Cul2 ubiquitin ligase_N8_E2&#45;Ub_substrate&#45;&gt;Cul2 ubiquitin ligase_N8_E2_substrate&#45;Ub</title>
<path fill="none" stroke="black" d="M379.704,-404.819C353.064,-383.461 318.277,-355.572 290.206,-333.066"/>
<polygon fill="black" stroke="black" points="292.095,-330.095 282.103,-326.571 287.716,-335.556 292.095,-330.095"/>
</g>
<!-- Cul2 ubiquitin ligase_N8_E2&#45;Ub_substrate&#45;&gt;Cul2 ubiquitin ligase_substrate -->
<g id="edge45" class="edge"><title>Cul2 ubiquitin ligase_N8_E2&#45;Ub_substrate&#45;&gt;Cul2 ubiquitin ligase_substrate</title>
<path fill="none" stroke="black" d="M416.653,-385.827C416.892,-372.06 417.527,-357.234 418.465,-343.582"/>
<polygon fill="black" stroke="black" points="421.97,-343.645 419.239,-333.408 414.99,-343.114 421.97,-343.645"/>
</g>
<!-- Ub -->
<g id="node24" class="node"><title>Ub</title>
<ellipse fill="none" stroke="black" cx="690" cy="-592.129" rx="18" ry="18"/>
<text text-anchor="middle" x="690" y="-590.929" font-family="Times,serif" font-size="4.00">Ub</text>
</g>
<!-- Ub&#45;&gt;AMP -->
<g id="edge49" class="edge"><title>Ub&#45;&gt;AMP</title>
<path fill="none" stroke="black" d="M695.858,-575.089C702.66,-556.281 714.086,-524.126 723,-496.202 743.008,-433.521 763.984,-359.071 774.72,-320.222"/>
<polygon fill="black" stroke="black" points="778.186,-320.818 777.467,-310.248 771.437,-318.96 778.186,-320.818"/>
</g>
<!-- Ub&#45;&gt;E1 -->
<g id="edge48" class="edge"><title>Ub&#45;&gt;E1</title>
<path fill="none" stroke="black" d="M685.788,-574.37C679.226,-548.257 666.503,-497.635 658.68,-466.506"/>
<polygon fill="black" stroke="black" points="662.063,-465.605 656.231,-456.76 655.274,-467.312 662.063,-465.605"/>
</g>
<!-- Ub&#45;&gt;PPi -->
<g id="edge47" class="edge"><title>Ub&#45;&gt;PPi</title>
<path fill="none" stroke="black" d="M692.207,-573.847C698.545,-524.229 716.834,-381.036 724.526,-320.814"/>
<polygon fill="black" stroke="black" points="728.039,-320.939 725.834,-310.576 721.095,-320.052 728.039,-320.939"/>
</g>
<!-- Cul2 ubiquitin ligase_N8_E2_substrate&#45;&gt;E2 -->
<g id="edge51" class="edge"><title>Cul2 ubiquitin ligase_N8_E2_substrate&#45;&gt;E2</title>
<path fill="none" stroke="black" d="M342.88,-203.793C341.404,-295.748 330.692,-492.575 322.88,-564.286"/>
<polygon fill="black" stroke="black" points="319.393,-563.969 321.701,-574.31 326.345,-564.787 319.393,-563.969"/>
</g>
<!-- Cul2 ubiquitin ligase_N8_E2_substrate&#45;&gt;Cul2 ubiquitin ligase_substrate -->
<g id="edge50" class="edge"><title>Cul2 ubiquitin ligase_N8_E2_substrate&#45;&gt;Cul2 ubiquitin ligase_substrate</title>
<path fill="none" stroke="black" d="M371.332,-193.62C382.319,-209.913 394.47,-229.036 404.665,-246.043"/>
<polygon fill="black" stroke="black" points="401.695,-247.897 409.801,-254.718 407.718,-244.33 401.695,-247.897"/>
</g>
<!-- CSN5 -->
<g id="node26" class="node"><title>CSN5</title>
<ellipse fill="none" stroke="black" cx="390" cy="-1402.1" rx="18" ry="18"/>
<text text-anchor="middle" x="390" y="-1400.9" font-family="Times,serif" font-size="4.00">CSN5</text>
</g>
<!-- CSN5&#45;&gt;Cul2 ubiquitin ligase_Orf10 -->
<g id="edge52" class="edge"><title>CSN5&#45;&gt;Cul2 ubiquitin ligase_Orf10</title>
<path fill="none" stroke="black" d="M388.034,-1384.16C383.882,-1352.32 372.514,-1281.87 348,-1227.68 342.382,-1215.26 334.557,-1202.75 326.722,-1191.7"/>
<polygon fill="black" stroke="black" points="329.493,-1189.56 320.764,-1183.55 323.843,-1193.69 329.493,-1189.56"/>
</g>
<!-- CSN5&#45;&gt;Cul2 ubiquitin ligase -->
<g id="edge53" class="edge"><title>CSN5&#45;&gt;Cul2 ubiquitin ligase</title>
<path fill="none" stroke="black" d="M397.237,-1385.55C406.231,-1366.23 421.871,-1332.63 433.971,-1306.63"/>
<polygon fill="black" stroke="black" points="437.203,-1307.98 438.25,-1297.44 430.856,-1305.03 437.203,-1307.98"/>
</g>
<!-- UBA3 -->
<g id="node27" class="node"><title>UBA3</title>
<ellipse fill="none" stroke="black" cx="674" cy="-154.264" rx="18" ry="18"/>
<text text-anchor="middle" x="674" y="-153.064" font-family="Times,serif" font-size="4.00">UBA3</text>
</g>
<!-- UBA3&#45;&gt;NAE -->
<g id="edge54" class="edge"><title>UBA3&#45;&gt;NAE</title>
<path fill="none" stroke="black" d="M678.591,-171.769C681.134,-194.938 681.431,-237.36 679.48,-265.016"/>
<polygon fill="black" stroke="black" points="675.977,-264.901 678.584,-275.17 682.95,-265.516 675.977,-264.901"/>
</g>
<!-- Cul2 ubiquitin ligase_N8_E2_substrate&#45;Ub&#45;&gt;Cul2 ubiquitin ligase_N8_substrate&#45;Ub -->
<g id="edge56" class="edge"><title>Cul2 ubiquitin ligase_N8_E2_substrate&#45;Ub&#45;&gt;Cul2 ubiquitin ligase_N8_substrate&#45;Ub</title>
<path fill="none" stroke="black" d="M221.81,-243.16C217.495,-232.267 212.89,-220.638 208.489,-209.525"/>
<polygon fill="black" stroke="black" points="211.623,-207.931 204.686,-199.923 205.114,-210.509 211.623,-207.931"/>
</g>
<!-- Cul2 ubiquitin ligase_N8_E2_substrate&#45;Ub&#45;&gt;E2 -->
<g id="edge55" class="edge"><title>Cul2 ubiquitin ligase_N8_E2_substrate&#45;Ub&#45;&gt;E2</title>
<path fill="none" stroke="black" d="M254.866,-343.853C258.227,-356.2 261.779,-369.393 265,-381.65 282.249,-447.289 301.588,-524.771 311.448,-564.577"/>
<polygon fill="black" stroke="black" points="308.113,-565.671 313.912,-574.537 314.908,-563.989 308.113,-565.671"/>
</g>
<!-- Orf10&#45;&gt;Cul2 ubiquitin ligase_Orf10 -->
<g id="edge57" class="edge"><title>Orf10&#45;&gt;Cul2 ubiquitin ligase_Orf10</title>
<path fill="none" stroke="black" d="M301.826,-1049.62C303.47,-1064.29 304.06,-1086.44 303.598,-1106.49"/>
<polygon fill="black" stroke="black" points="300.091,-1106.62 303.26,-1116.73 307.088,-1106.85 300.091,-1106.62"/>
</g>
<!-- Orf10 (+)ss sgmRNA -->
<g id="node31" class="node"><title>Orf10 (+)ss sgmRNA</title>
<ellipse fill="none" stroke="black" cx="383" cy="-1154.03" rx="30.5202" ry="30.5202"/>
<text text-anchor="middle" x="383" y="-1152.83" font-family="Times,serif" font-size="4.00">Orf10 (+)ss sgmRNA</text>
</g>
<!-- Orf10 (+)ss sgmRNA&#45;&gt;Orf10 -->
<g id="edge58" class="edge"><title>Orf10 (+)ss sgmRNA&#45;&gt;Orf10</title>
<path fill="none" stroke="black" d="M365.389,-1128.47C349.996,-1107.01 327.839,-1076.12 312.956,-1055.36"/>
<polygon fill="black" stroke="black" points="315.737,-1053.24 307.065,-1047.15 310.048,-1057.32 315.737,-1053.24"/>
</g>
<!-- ELOB&#45;&gt;ELOB_ELOC -->
<g id="edge59" class="edge"><title>ELOB&#45;&gt;ELOB_ELOC</title>
<path fill="none" stroke="black" d="M510.483,-1420.46C506.488,-1431.26 499.513,-1445.42 493,-1457.78 486.687,-1469.77 479.345,-1482.94 472.362,-1493.77"/>
<polygon fill="black" stroke="black" points="469.328,-1492.01 466.611,-1502.25 475.121,-1495.94 469.328,-1492.01"/>
</g>
<!-- NAE&#45;&gt;NAE_Pevonedistat -->
<g id="edge63" class="edge"><title>NAE&#45;&gt;NAE_Pevonedistat</title>
<path fill="none" stroke="black" d="M677.233,-274.898C685.116,-253.047 702.89,-214.336 717.365,-186.871"/>
<polygon fill="black" stroke="black" points="720.467,-188.492 722.128,-178.029 714.304,-185.173 720.467,-188.492"/>
</g>
<!-- NAE&#45;&gt;UBA3 -->
<g id="edge61" class="edge"><title>NAE&#45;&gt;UBA3</title>
<path fill="none" stroke="black" d="M669.416,-275.17C666.868,-252.033 666.568,-209.615 668.515,-181.934"/>
<polygon fill="black" stroke="black" points="672.019,-182.038 669.409,-171.769 665.046,-181.424 672.019,-182.038"/>
</g>
<!-- NAE&#45;&gt;NAE_NEDD8 -->
<g id="edge60" class="edge"><title>NAE&#45;&gt;NAE_NEDD8</title>
<path fill="none" stroke="black" d="M667.233,-275.709C657.717,-253.337 640.219,-212.2 628.349,-184.295"/>
<polygon fill="black" stroke="black" points="631.543,-182.861 624.408,-175.029 625.101,-185.601 631.543,-182.861"/>
</g>
<!-- NAE1 -->
<g id="node43" class="node"><title>NAE1</title>
<ellipse fill="none" stroke="black" cx="802" cy="-154.264" rx="18" ry="18"/>
<text text-anchor="middle" x="802" y="-153.064" font-family="Times,serif" font-size="4.00">NAE1</text>
</g>
<!-- NAE&#45;&gt;NAE1 -->
<g id="edge62" class="edge"><title>NAE&#45;&gt;NAE1</title>
<path fill="none" stroke="black" d="M672.051,-274.404C675.087,-263.325 682.087,-249.244 692,-239.584 718.194,-214.059 739.414,-228.702 766,-203.584 773.777,-196.237 779.896,-186.142 785.068,-177.078"/>
<polygon fill="black" stroke="black" points="788.237,-178.586 790.146,-168.165 782.155,-175.121 788.237,-178.586"/>
</g>
<!-- Cul2 ubiquitin ligase_N8_Orf10_substrate&#45;Ub -->
<g id="node34" class="node"><title>Cul2 ubiquitin ligase_N8_Orf10_substrate&#45;Ub</title>
<ellipse fill="none" stroke="black" cx="298" cy="-1402.1" rx="55.8699" ry="55.8699"/>
<text text-anchor="middle" x="298" y="-1400.9" font-family="Times,serif" font-size="4.00">Cul2 ubiquitin ligase_N8_Orf10_substrate&#45;Ub</text>
</g>
<!-- Cul2 ubiquitin ligase_N8_Orf10_substrate&#45;Ub&#45;&gt;Cul2 ubiquitin ligase_N8_Orf10 -->
<g id="edge64" class="edge"><title>Cul2 ubiquitin ligase_N8_Orf10_substrate&#45;Ub&#45;&gt;Cul2 ubiquitin ligase_N8_Orf10</title>
<path fill="none" stroke="black" d="M298,-1346.28C298,-1337.8 298,-1329.08 298,-1320.7"/>
<polygon fill="black" stroke="black" points="301.5,-1320.69 298,-1310.69 294.5,-1320.69 301.5,-1320.69"/>
</g>
<!-- Cul2 ubiquitin ligase_N8_Orf10_substrate&#45;Ub&#45;&gt;ubit_traget -->
<g id="edge65" class="edge"><title>Cul2 ubiquitin ligase_N8_Orf10_substrate&#45;Ub&#45;&gt;ubit_traget</title>
<path fill="none" stroke="black" d="M255.753,-1365.43C248.19,-1359.08 240.371,-1352.54 233,-1346.41 129.947,-1260.75 0,-1289.04 0,-1155.03 0,-1155.03 0,-1155.03 0,-291.617 0,-205.952 10.2601,-181.847 48,-104.943 56.6384,-87.34 70.1901,-69.9239 81.5562,-56.9327"/>
<polygon fill="black" stroke="black" points="84.1993,-59.228 88.2873,-49.4536 78.9961,-54.5453 84.1993,-59.228"/>
</g>
<!-- NAE_NEDD8&#45;&gt;UBE2M_NEDD8 -->
<g id="edge66" class="edge"><title>NAE_NEDD8&#45;&gt;UBE2M_NEDD8</title>
<path fill="none" stroke="black" d="M606.552,-134.076C597.604,-115.904 584.008,-88.2918 573.478,-66.9048"/>
<polygon fill="black" stroke="black" points="576.586,-65.2951 569.029,-57.8698 570.306,-68.3873 576.586,-65.2951"/>
</g>
<!-- ZYG11B&#45;&gt;Zyg11B_EloBC -->
<g id="edge67" class="edge"><title>ZYG11B&#45;&gt;Zyg11B_EloBC</title>
<path fill="none" stroke="black" d="M514.16,-1286.71C505.369,-1308.6 485.88,-1347.33 470.675,-1373.6"/>
<polygon fill="black" stroke="black" points="467.593,-1371.94 465.5,-1382.32 473.613,-1375.51 467.593,-1371.94"/>
</g>
<!-- Cul2 ubiquitin ligase_substrate&#45;&gt;ubit_traget -->
<g id="edge71" class="edge"><title>Cul2 ubiquitin ligase_substrate&#45;&gt;ubit_traget</title>
<path fill="none" stroke="black" d="M426.26,-251.156C427.663,-209.153 426.213,-144.211 390,-104.943 372.116,-85.55 202.119,-54.2547 131.9,-41.337"/>
<polygon fill="black" stroke="black" points="132.377,-37.8661 121.909,-39.497 131.109,-44.7504 132.377,-37.8661"/>
</g>
<!-- Cul2 ubiquitin ligase_substrate&#45;&gt;UBE2M -->
<g id="edge72" class="edge"><title>Cul2 ubiquitin ligase_substrate&#45;&gt;UBE2M</title>
<path fill="none" stroke="black" d="M459.264,-266.557C479.629,-249.896 505.807,-226.867 526,-203.584 532.514,-196.073 538.767,-187.162 543.99,-179.049"/>
<polygon fill="black" stroke="black" points="547.094,-180.686 549.408,-170.348 541.151,-176.987 547.094,-180.686"/>
</g>
<!-- Cul2 ubiquitin ligase_substrate&#45;&gt;Cul2 ubiquitin ligase -->
<g id="edge70" class="edge"><title>Cul2 ubiquitin ligase_substrate&#45;&gt;Cul2 ubiquitin ligase</title>
<path fill="none" stroke="black" d="M456.917,-321.297C470.056,-337.86 484.056,-359.868 492,-381.65 524.183,-469.894 520,-497.199 520,-591.129 520,-1033.12 520,-1033.12 520,-1033.12 520,-1104.84 509.867,-1122.76 490,-1191.68 485.809,-1206.22 479.931,-1221.84 473.845,-1235.14"/>
<polygon fill="black" stroke="black" points="470.587,-1233.84 469.398,-1244.37 476.892,-1236.88 470.587,-1233.84"/>
</g>
<!-- Cul2 ubiquitin ligase_substrate&#45;&gt;Cul2 ubiquitin ligase_N8_E2&#45;Ub_substrate -->
<g id="edge68" class="edge"><title>Cul2 ubiquitin ligase_substrate&#45;&gt;Cul2 ubiquitin ligase_N8_E2&#45;Ub_substrate</title>
<path fill="none" stroke="black" d="M431.452,-334.088C431.45,-347.104 431.022,-361.837 430.263,-376.029"/>
<polygon fill="black" stroke="black" points="426.755,-376.044 429.652,-386.235 433.743,-376.462 426.755,-376.044"/>
</g>
<!-- Cul2 ubiquitin ligase_substrate&#45;&gt;Cul2 ubiquitin ligase_N8_E2_substrate -->
<g id="edge69" class="edge"><title>Cul2 ubiquitin ligase_substrate&#45;&gt;Cul2 ubiquitin ligase_N8_E2_substrate</title>
<path fill="none" stroke="black" d="M401.253,-259.992C390.601,-244.517 378.326,-225.473 367.6,-207.888"/>
<polygon fill="black" stroke="black" points="370.311,-205.607 362.148,-198.852 364.317,-209.223 370.311,-205.607"/>
</g>
<!-- Cul2 ubiquitin ligase_Orf10_substrate&#45;&gt;Cul2 ubiquitin ligase_Orf10 -->
<g id="edge73" class="edge"><title>Cul2 ubiquitin ligase_Orf10_substrate&#45;&gt;Cul2 ubiquitin ligase_Orf10</title>
<path fill="none" stroke="black" d="M243.519,-1068.79C253.706,-1082.3 264.762,-1097.8 274.211,-1111.78"/>
<polygon fill="black" stroke="black" points="271.405,-1113.88 279.864,-1120.26 277.23,-1110 271.405,-1113.88"/>
</g>
<!-- Cul2 ubiquitin ligase_Orf10_substrate&#45;&gt;ubit_traget -->
<g id="edge74" class="edge"><title>Cul2 ubiquitin ligase_Orf10_substrate&#45;&gt;ubit_traget</title>
<path fill="none" stroke="black" d="M174.528,-1001.49C123.239,-953.462 38,-853.39 38,-748.984 38,-748.984 38,-748.984 38,-291.617 38,-207.723 44.4499,-186.022 66,-104.943 70.226,-89.0431 76.914,-71.8009 83.6787,-58.4715"/>
<polygon fill="black" stroke="black" points="86.8417,-59.9828 88.5839,-49.5322 80.7049,-56.6154 86.8417,-59.9828"/>
</g>
<!-- Cul2 ubiquitin ligase_Orf10_substrate&#45;&gt;UBE2M -->
<g id="edge75" class="edge"><title>Cul2 ubiquitin ligase_Orf10_substrate&#45;&gt;UBE2M</title>
<path fill="none" stroke="black" d="M246.76,-998.637C334.501,-915.183 558,-692.819 558,-593.129 558,-593.129 558,-593.129 558,-437.926 558,-344.203 558,-232.999 558,-182.561"/>
<polygon fill="black" stroke="black" points="561.5,-182.471 558,-172.471 554.5,-182.471 561.5,-182.471"/>
</g>
<!-- Cul2 ubiquitin ligase_Orf10_substrate&#45;&gt;Cul2 ubiquitin ligase_N8_Orf10_substrate -->
<g id="edge76" class="edge"><title>Cul2 ubiquitin ligase_Orf10_substrate&#45;&gt;Cul2 ubiquitin ligase_N8_Orf10_substrate</title>
<path fill="none" stroke="black" d="M211.647,-983.79C211.585,-975.435 211.52,-966.631 211.455,-957.963"/>
<polygon fill="black" stroke="black" points="214.954,-957.857 211.38,-947.883 207.955,-957.909 214.954,-957.857"/>
</g>
<!-- UBE2M_NEDD8&#45;&gt;UBE2M -->
<g id="edge77" class="edge"><title>UBE2M_NEDD8&#45;&gt;UBE2M</title>
<path fill="none" stroke="black" d="M563.56,-59.4593C565.083,-79.0155 565.144,-106.606 563.742,-126.802"/>
<polygon fill="black" stroke="black" points="560.245,-126.614 562.845,-136.885 567.218,-127.235 560.245,-126.614"/>
</g>
<!-- UBE2M_NEDD8&#45;&gt;Cul2 ubiquitin ligase_substrate -->
<g id="edge78" class="edge"><title>UBE2M_NEDD8&#45;&gt;Cul2 ubiquitin ligase_substrate</title>
<path fill="none" stroke="black" d="M546.739,-57.4895C525.376,-99.2619 478.569,-190.785 450.218,-246.219"/>
<polygon fill="black" stroke="black" points="446.929,-244.964 445.491,-255.461 453.161,-248.152 446.929,-244.964"/>
</g>
<!-- UBE2M_NEDD8&#45;&gt;Cul2 ubiquitin ligase_N8_Orf10_substrate -->
<g id="edge79" class="edge"><title>UBE2M_NEDD8&#45;&gt;Cul2 ubiquitin ligase_N8_Orf10_substrate</title>
<path fill="none" stroke="black" d="M532.798,-40.4615C468.482,-53.3874 301.978,-88.1207 283,-104.943 247.843,-136.107 275.964,-168.251 245,-203.584 222.978,-228.714 200.328,-213.863 179,-239.584 33.9168,-414.552 134.461,-714.916 185.856,-838.871"/>
<polygon fill="black" stroke="black" points="182.671,-840.327 189.768,-848.194 189.126,-837.619 182.671,-840.327"/>
</g>
<!-- E1&#45;&gt;AMP -->
<g id="edge80" class="edge"><title>E1&#45;&gt;AMP</title>
<path fill="none" stroke="black" d="M666.486,-427.65C687.911,-411.902 728.375,-379.994 755,-345.65 761.319,-337.499 766.867,-327.647 771.263,-318.718"/>
<polygon fill="black" stroke="black" points="774.5,-320.058 775.564,-309.516 768.159,-317.094 774.5,-320.058"/>
</g>
<!-- E1&#45;&gt;E2 -->
<g id="edge82" class="edge"><title>E1&#45;&gt;E2</title>
<path fill="none" stroke="black" d="M636.141,-447.676C607.237,-458.982 545.366,-480.375 492,-496.202 431.23,-514.224 402.555,-491.456 354,-532.202 343.359,-541.131 336.703,-555.149 331.653,-567.273"/>
<polygon fill="black" stroke="black" points="328.279,-566.278 327.737,-576.859 334.759,-568.925 328.279,-566.278"/>
</g>
<!-- E1&#45;&gt;PPi -->
<g id="edge81" class="edge"><title>E1&#45;&gt;PPi</title>
<path fill="none" stroke="black" d="M660.194,-422.602C669.961,-404.313 686.752,-372.792 701,-345.65 705.724,-336.65 710.872,-326.753 715.394,-318.029"/>
<polygon fill="black" stroke="black" points="718.516,-319.609 720.005,-309.12 712.3,-316.392 718.516,-319.609"/>
</g>
<!-- Cul2 ubiquitin ligase_N8_Orf10_substrate&#45;&gt;Cul2 ubiquitin ligase_N8_Orf10_E2&#45;Ub_substrate -->
<g id="edge84" class="edge"><title>Cul2 ubiquitin ligase_N8_Orf10_substrate&#45;&gt;Cul2 ubiquitin ligase_N8_Orf10_E2&#45;Ub_substrate</title>
<path fill="none" stroke="black" d="M237.134,-850.713C247.845,-835.357 260.506,-817.975 272.613,-801.98"/>
<polygon fill="black" stroke="black" points="275.601,-803.834 278.881,-793.76 270.034,-799.59 275.601,-803.834"/>
</g>
<!-- Cul2 ubiquitin ligase_N8_Orf10_substrate&#45;&gt;Cul2 ubiquitin ligase_N8_Orf10_0E2_substrate -->
<g id="edge83" class="edge"><title>Cul2 ubiquitin ligase_N8_Orf10_substrate&#45;&gt;Cul2 ubiquitin ligase_N8_Orf10_0E2_substrate</title>
<path fill="none" stroke="black" d="M205.21,-844.018C200.135,-761.408 195.665,-598.107 195.816,-506.409"/>
<polygon fill="black" stroke="black" points="199.317,-506.148 195.855,-496.135 192.317,-506.122 199.317,-506.148"/>
</g>
<!-- NAE1&#45;&gt;NAE -->
<g id="edge85" class="edge"><title>NAE1&#45;&gt;NAE</title>
<path fill="none" stroke="black" d="M803.237,-172.623C799.902,-182.678 793.081,-195.005 784,-203.584 757.414,-228.702 736.194,-214.059 710,-239.584 701.604,-247.766 695.297,-259.119 690.08,-269.134"/>
<polygon fill="black" stroke="black" points="686.885,-267.69 685.378,-278.178 693.096,-270.919 686.885,-267.69"/>
</g>
<!-- RBX1&#45;&gt;Rbx1_Cul2 -->
<g id="edge86" class="edge"><title>RBX1&#45;&gt;Rbx1_Cul2</title>
<path fill="none" stroke="black" d="M409.536,-1046.81C420.321,-1065.63 435.951,-1099.97 445.241,-1124.51"/>
<polygon fill="black" stroke="black" points="441.993,-1125.82 448.691,-1134.03 448.574,-1123.43 441.993,-1125.82"/>
</g>
</g>
</svg>
