<?xml version="1.0" encoding="UTF-8" standalone="no"?>
<!DOCTYPE svg PUBLIC "-//W3C//DTD SVG 1.1//EN"
 "http://www.w3.org/Graphics/SVG/1.1/DTD/svg11.dtd">
<!-- Generated by graphviz version 2.38.0 (20140413.2041)
 -->
<!-- Title: G Pages: 1 -->
<svg width="795pt" height="999pt"
 viewBox="0.00 0.00 795.00 998.84" xmlns="http://www.w3.org/2000/svg" xmlns:xlink="http://www.w3.org/1999/xlink">
<g id="graph0" class="graph" transform="scale(1 1) rotate(0) translate(4 994.843)">
<title>G</title>
<polygon fill="white" stroke="none" points="-4,4 -4,-994.843 791,-994.843 791,4 -4,4"/>
<!-- P65/P015 -->
<g id="node1" class="node"><title>P65/P015</title>
<ellipse fill="none" stroke="black" cx="88" cy="-615.151" rx="18.0625" ry="18.0625"/>
<text text-anchor="middle" x="88" y="-613.951" font-family="Times,serif" font-size="4.00">P65/P015</text>
</g>
<!-- IL1b -->
<g id="node2" class="node"><title>IL1b</title>
<ellipse fill="none" stroke="black" cx="88" cy="-456.77" rx="18" ry="18"/>
<text text-anchor="middle" x="88" y="-455.57" font-family="Times,serif" font-size="4.00">IL1b</text>
</g>
<!-- P65/P015&#45;&gt;IL1b -->
<g id="edge1" class="edge"><title>P65/P015&#45;&gt;IL1b</title>
<path fill="none" stroke="black" d="M88,-597.118C88,-570.092 88,-517.149 88,-484.87"/>
<polygon fill="black" stroke="black" points="91.5001,-484.782 88,-474.782 84.5001,-484.782 91.5001,-484.782"/>
</g>
<!-- TRIM59 -->
<g id="node3" class="node"><title>TRIM59</title>
<ellipse fill="none" stroke="black" cx="256" cy="-615.151" rx="18" ry="18"/>
<text text-anchor="middle" x="256" y="-613.951" font-family="Times,serif" font-size="4.00">TRIM59</text>
</g>
<!-- LPS/TLR4/MYD88 -->
<g id="node4" class="node"><title>LPS/TLR4/MYD88</title>
<ellipse fill="none" stroke="black" cx="384" cy="-456.77" rx="26.533" ry="26.533"/>
<text text-anchor="middle" x="384" y="-455.57" font-family="Times,serif" font-size="4.00">LPS/TLR4/MYD88</text>
</g>
<!-- TRIM59&#45;&gt;LPS/TLR4/MYD88 -->
<g id="edge2" class="edge"><title>TRIM59&#45;&gt;LPS/TLR4/MYD88</title>
<path fill="none" stroke="black" d="M268.596,-602.181C272.951,-598.406 277.998,-594.41 283,-591.286 316.761,-570.206 340.135,-586.366 365,-555.286 378.856,-537.968 383.586,-513.444 384.862,-493.323"/>
<polygon fill="black" stroke="black" points="388.362,-493.39 385.245,-483.264 381.367,-493.123 388.362,-493.39"/>
</g>
<!-- MYD88 -->
<g id="node16" class="node"><title>MYD88</title>
<ellipse fill="none" stroke="black" cx="284" cy="-537.286" rx="18" ry="18"/>
<text text-anchor="middle" x="284" y="-536.086" font-family="Times,serif" font-size="4.00">MYD88</text>
</g>
<!-- TRIM59&#45;&gt;MYD88 -->
<g id="edge3" class="edge"><title>TRIM59&#45;&gt;MYD88</title>
<path fill="none" stroke="black" d="M261.938,-598.062C265.613,-588.105 270.413,-575.101 274.596,-563.765"/>
<polygon fill="black" stroke="black" points="277.891,-564.945 278.07,-554.352 271.324,-562.522 277.891,-564.945"/>
</g>
<!-- MYD88_TRIM59 -->
<g id="node35" class="node"><title>MYD88_TRIM59</title>
<ellipse fill="none" stroke="black" cx="247" cy="-456.77" rx="24.8512" ry="24.8512"/>
<text text-anchor="middle" x="247" y="-455.57" font-family="Times,serif" font-size="4.00">MYD88_TRIM59</text>
</g>
<!-- TRIM59&#45;&gt;MYD88_TRIM59 -->
<g id="edge4" class="edge"><title>TRIM59&#45;&gt;MYD88_TRIM59</title>
<path fill="none" stroke="black" d="M255.02,-597.118C253.579,-572.083 250.858,-524.811 248.989,-492.323"/>
<polygon fill="black" stroke="black" points="252.459,-491.708 248.39,-481.926 245.471,-492.11 252.459,-491.708"/>
</g>
<!-- TRAF6 -->
<g id="node9" class="node"><title>TRAF6</title>
<ellipse fill="none" stroke="black" cx="430" cy="-367.737" rx="18" ry="18"/>
<text text-anchor="middle" x="430" y="-366.537" font-family="Times,serif" font-size="4.00">TRAF6</text>
</g>
<!-- LPS/TLR4/MYD88&#45;&gt;TRAF6 -->
<g id="edge5" class="edge"><title>LPS/TLR4/MYD88&#45;&gt;TRAF6</title>
<path fill="none" stroke="black" d="M396.086,-432.903C402.577,-420.622 410.578,-405.485 417.178,-392.997"/>
<polygon fill="black" stroke="black" points="420.325,-394.532 421.903,-384.056 414.136,-391.261 420.325,-394.532"/>
</g>
<!-- TLR3 -->
<g id="node5" class="node"><title>TLR3</title>
<ellipse fill="none" stroke="black" cx="282" cy="-875.325" rx="18" ry="18"/>
<text text-anchor="middle" x="282" y="-874.125" font-family="Times,serif" font-size="4.00">TLR3</text>
</g>
<!-- TICAM1 -->
<g id="node33" class="node"><title>TICAM1</title>
<ellipse fill="none" stroke="black" cx="282" cy="-797.46" rx="18" ry="18"/>
<text text-anchor="middle" x="282" y="-796.26" font-family="Times,serif" font-size="4.00">TICAM1</text>
</g>
<!-- TLR3&#45;&gt;TICAM1 -->
<g id="edge6" class="edge"><title>TLR3&#45;&gt;TICAM1</title>
<path fill="none" stroke="black" d="M282,-857.11C282,-847.895 282,-836.327 282,-825.906"/>
<polygon fill="black" stroke="black" points="285.5,-825.607 282,-815.607 278.5,-825.607 285.5,-825.607"/>
</g>
<!-- Orf3a -->
<g id="node6" class="node"><title>Orf3a</title>
<ellipse fill="none" stroke="black" cx="260" cy="-706.306" rx="18" ry="18"/>
<text text-anchor="middle" x="260" y="-705.106" font-family="Times,serif" font-size="4.00">Orf3a</text>
</g>
<!-- Orf3a&#45;&gt;P65/P015 -->
<g id="edge10" class="edge"><title>Orf3a&#45;&gt;P65/P015</title>
<path fill="none" stroke="black" d="M250.009,-691.111C245.393,-685.429 239.495,-679.242 233,-675.016 189.175,-646.499 167.887,-662.156 121,-639.016 117.377,-637.228 113.702,-635.077 110.186,-632.82"/>
<polygon fill="black" stroke="black" points="112.116,-629.899 101.888,-627.134 108.159,-635.674 112.116,-629.899"/>
</g>
<!-- Orf3a&#45;&gt;TRIM59 -->
<g id="edge9" class="edge"><title>Orf3a&#45;&gt;TRIM59</title>
<path fill="none" stroke="black" d="M259.229,-688.116C258.664,-675.535 257.887,-658.203 257.236,-643.701"/>
<polygon fill="black" stroke="black" points="260.714,-643.121 256.769,-633.288 253.721,-643.435 260.714,-643.121"/>
</g>
<!-- Hops Complex -->
<g id="node17" class="node"><title>Hops Complex</title>
<ellipse fill="none" stroke="black" cx="316" cy="-615.151" rx="23.7305" ry="23.7305"/>
<text text-anchor="middle" x="316" y="-613.951" font-family="Times,serif" font-size="4.00">Hops Complex</text>
</g>
<!-- Orf3a&#45;&gt;Hops Complex -->
<g id="edge7" class="edge"><title>Orf3a&#45;&gt;Hops Complex</title>
<path fill="none" stroke="black" d="M269.247,-690.584C277.09,-678.098 288.565,-659.829 298.184,-644.515"/>
<polygon fill="black" stroke="black" points="301.236,-646.236 303.591,-635.906 295.308,-642.513 301.236,-646.236"/>
</g>
<!-- PYCARD -->
<g id="node20" class="node"><title>PYCARD</title>
<ellipse fill="none" stroke="black" cx="148" cy="-615.151" rx="18" ry="18"/>
<text text-anchor="middle" x="148" y="-613.951" font-family="Times,serif" font-size="4.00">PYCARD</text>
</g>
<!-- Orf3a&#45;&gt;PYCARD -->
<g id="edge11" class="edge"><title>Orf3a&#45;&gt;PYCARD</title>
<path fill="none" stroke="black" d="M249.201,-691.549C244.539,-686.068 238.823,-679.912 233,-675.016 209.778,-655.491 199.532,-656.868 175,-639.016 173.103,-637.636 171.172,-636.159 169.258,-634.644"/>
<polygon fill="black" stroke="black" points="171.085,-631.614 161.144,-627.95 166.63,-637.014 171.085,-631.614"/>
</g>
<!-- S -->
<g id="node28" class="node"><title>S</title>
<ellipse fill="none" stroke="black" cx="376" cy="-615.151" rx="18" ry="18"/>
<text text-anchor="middle" x="376" y="-613.951" font-family="Times,serif" font-size="4.00">S</text>
</g>
<!-- Orf3a&#45;&gt;S -->
<g id="edge8" class="edge"><title>Orf3a&#45;&gt;S</title>
<path fill="none" stroke="black" d="M274.389,-695.013C292.161,-682.203 323.206,-659.511 349,-639.016 350.837,-637.557 352.726,-636.024 354.612,-634.472"/>
<polygon fill="black" stroke="black" points="357.259,-636.82 362.679,-627.716 352.765,-631.454 357.259,-636.82"/>
</g>
<!-- NLRP3 -->
<g id="node7" class="node"><title>NLRP3</title>
<ellipse fill="none" stroke="black" cx="202" cy="-615.151" rx="18" ry="18"/>
<text text-anchor="middle" x="202" y="-613.951" font-family="Times,serif" font-size="4.00">NLRP3</text>
</g>
<!-- CASP1 -->
<g id="node14" class="node"><title>CASP1</title>
<ellipse fill="none" stroke="black" cx="148" cy="-537.286" rx="18" ry="18"/>
<text text-anchor="middle" x="148" y="-536.086" font-family="Times,serif" font-size="4.00">CASP1</text>
</g>
<!-- NLRP3&#45;&gt;CASP1 -->
<g id="edge12" class="edge"><title>NLRP3&#45;&gt;CASP1</title>
<path fill="none" stroke="black" d="M191.843,-599.882C183.999,-588.861 172.997,-573.404 163.976,-560.732"/>
<polygon fill="black" stroke="black" points="166.762,-558.609 158.111,-552.492 161.059,-562.669 166.762,-558.609"/>
</g>
<!-- IFNB1 -->
<g id="node8" class="node"><title>IFNB1</title>
<ellipse fill="none" stroke="black" cx="525" cy="-104.912" rx="18" ry="18"/>
<text text-anchor="middle" x="525" y="-103.712" font-family="Times,serif" font-size="4.00">IFNB1</text>
</g>
<!-- TAB2/TAB3/TAK1 -->
<g id="node29" class="node"><title>TAB2/TAB3/TAK1</title>
<ellipse fill="none" stroke="black" cx="461" cy="-278.174" rx="27.0938" ry="27.0938"/>
<text text-anchor="middle" x="461" y="-276.974" font-family="Times,serif" font-size="4.00">TAB2/TAB3/TAK1</text>
</g>
<!-- TRAF6&#45;&gt;TAB2/TAB3/TAK1 -->
<g id="edge13" class="edge"><title>TRAF6&#45;&gt;TAB2/TAB3/TAK1</title>
<path fill="none" stroke="black" d="M435.831,-350.267C439.484,-339.947 444.331,-326.256 448.796,-313.646"/>
<polygon fill="black" stroke="black" points="452.226,-314.444 452.264,-303.849 445.627,-312.107 452.226,-314.444"/>
</g>
<!-- TRIM39 -->
<g id="node10" class="node"><title>TRIM39</title>
<ellipse fill="none" stroke="black" cx="711" cy="-187.019" rx="18" ry="18"/>
<text text-anchor="middle" x="711" y="-185.819" font-family="Times,serif" font-size="4.00">TRIM39</text>
</g>
<!-- CACTIN -->
<g id="node15" class="node"><title>CACTIN</title>
<ellipse fill="none" stroke="black" cx="679" cy="-104.912" rx="18" ry="18"/>
<text text-anchor="middle" x="679" y="-103.712" font-family="Times,serif" font-size="4.00">CACTIN</text>
</g>
<!-- TRIM39&#45;&gt;CACTIN -->
<g id="edge14" class="edge"><title>TRIM39&#45;&gt;CACTIN</title>
<path fill="none" stroke="black" d="M704.524,-169.808C700.115,-158.769 694.188,-143.932 689.155,-131.333"/>
<polygon fill="black" stroke="black" points="692.317,-129.813 685.357,-121.825 685.816,-132.41 692.317,-129.813"/>
</g>
<!-- E -->
<g id="node11" class="node"><title>E</title>
<ellipse fill="none" stroke="black" cx="18" cy="-706.306" rx="18" ry="18"/>
<text text-anchor="middle" x="18" y="-705.106" font-family="Times,serif" font-size="4.00">E</text>
</g>
<!-- E&#45;&gt;P65/P015 -->
<g id="edge16" class="edge"><title>E&#45;&gt;P65/P015</title>
<path fill="none" stroke="black" d="M28.6315,-691.765C39.8354,-677.495 57.653,-654.802 70.8487,-637.996"/>
<polygon fill="black" stroke="black" points="73.8458,-639.846 77.2685,-629.819 68.3401,-635.523 73.8458,-639.846"/>
</g>
<!-- E&#45;&gt;IL1b -->
<g id="edge15" class="edge"><title>E&#45;&gt;IL1b</title>
<path fill="none" stroke="black" d="M22.7016,-688.68C34.6318,-646.492 66.1544,-535.021 80.5905,-483.972"/>
<polygon fill="black" stroke="black" points="83.9656,-484.898 83.3189,-474.323 77.2297,-482.994 83.9656,-484.898"/>
</g>
<!-- TRIM30a/TRIM38 -->
<g id="node12" class="node"><title>TRIM30a/TRIM38</title>
<ellipse fill="none" stroke="black" cx="493" cy="-367.737" rx="26.533" ry="26.533"/>
<text text-anchor="middle" x="493" y="-366.537" font-family="Times,serif" font-size="4.00">TRIM30a/TRIM38</text>
</g>
<!-- TRIM30a/TRIM38&#45;&gt;TAB2/TAB3/TAK1 -->
<g id="edge17" class="edge"><title>TRIM30a/TRIM38&#45;&gt;TAB2/TAB3/TAK1</title>
<path fill="none" stroke="black" d="M484.086,-342.346C480.785,-333.313 476.98,-322.9 473.423,-313.167"/>
<polygon fill="black" stroke="black" points="476.697,-311.929 469.977,-303.738 470.122,-314.332 476.697,-311.929"/>
</g>
<!-- TRIM29 -->
<g id="node13" class="node"><title>TRIM29</title>
<ellipse fill="none" stroke="black" cx="593" cy="-278.174" rx="18" ry="18"/>
<text text-anchor="middle" x="593" y="-276.974" font-family="Times,serif" font-size="4.00">TRIM29</text>
</g>
<!-- NEMO/IKKA/IKKB -->
<g id="node19" class="node"><title>NEMO/IKKA/IKKB</title>
<ellipse fill="none" stroke="black" cx="593" cy="-187.019" rx="28.2154" ry="28.2154"/>
<text text-anchor="middle" x="593" y="-185.819" font-family="Times,serif" font-size="4.00">NEMO/IKKA/IKKB</text>
</g>
<!-- TRIM29&#45;&gt;NEMO/IKKA/IKKB -->
<g id="edge18" class="edge"><title>TRIM29&#45;&gt;NEMO/IKKA/IKKB</title>
<path fill="none" stroke="black" d="M593,-259.984C593,-250.2 593,-237.542 593,-225.576"/>
<polygon fill="black" stroke="black" points="596.5,-225.329 593,-215.329 589.5,-225.329 596.5,-225.329"/>
</g>
<!-- CASP1&#45;&gt;IL1b -->
<g id="edge19" class="edge"><title>CASP1&#45;&gt;IL1b</title>
<path fill="none" stroke="black" d="M137.549,-522.61C128.485,-510.748 115.203,-493.368 104.672,-479.587"/>
<polygon fill="black" stroke="black" points="107.386,-477.374 98.5328,-471.553 101.824,-481.624 107.386,-477.374"/>
</g>
<!-- NFKB1_NFKNIA -->
<g id="node40" class="node"><title>NFKB1_NFKNIA</title>
<ellipse fill="none" stroke="black" cx="609" cy="-25.4558" rx="25.4118" ry="25.4118"/>
<text text-anchor="middle" x="609" y="-24.2558" font-family="Times,serif" font-size="4.00">NFKB1_NFKNIA</text>
</g>
<!-- CACTIN&#45;&gt;NFKB1_NFKNIA -->
<g id="edge20" class="edge"><title>CACTIN&#45;&gt;NFKB1_NFKNIA</title>
<path fill="none" stroke="black" d="M667.125,-90.7724C657.693,-80.3355 644.205,-65.4107 632.596,-52.5653"/>
<polygon fill="black" stroke="black" points="634.966,-49.9671 625.664,-44.8947 629.772,-54.6606 634.966,-49.9671"/>
</g>
<!-- MYD88&#45;&gt;LPS/TLR4/MYD88 -->
<g id="edge21" class="edge"><title>MYD88&#45;&gt;LPS/TLR4/MYD88</title>
<path fill="none" stroke="black" d="M297.905,-525.369C312.771,-513.697 336.752,-494.867 355.634,-480.042"/>
<polygon fill="black" stroke="black" points="357.932,-482.688 363.635,-473.759 353.609,-477.182 357.932,-482.688"/>
</g>
<!-- MYD88&#45;&gt;TRAF6 -->
<g id="edge23" class="edge"><title>MYD88&#45;&gt;TRAF6</title>
<path fill="none" stroke="black" d="M291.055,-520.661C301.417,-498.816 322.331,-458.643 348,-430.253 365.076,-411.368 388.675,-394.379 406.174,-383.064"/>
<polygon fill="black" stroke="black" points="408.111,-385.98 414.701,-377.685 404.376,-380.06 408.111,-385.98"/>
</g>
<!-- MYD88&#45;&gt;MYD88_TRIM59 -->
<g id="edge22" class="edge"><title>MYD88&#45;&gt;MYD88_TRIM59</title>
<path fill="none" stroke="black" d="M276.69,-520.774C272.422,-511.718 266.882,-499.961 261.745,-489.06"/>
<polygon fill="black" stroke="black" points="264.805,-487.344 257.377,-479.79 258.473,-490.327 264.805,-487.344"/>
</g>
<!-- TLR4 -->
<g id="node18" class="node"><title>TLR4</title>
<ellipse fill="none" stroke="black" cx="430" cy="-537.286" rx="18" ry="18"/>
<text text-anchor="middle" x="430" y="-536.086" font-family="Times,serif" font-size="4.00">TLR4</text>
</g>
<!-- TLR4&#45;&gt;LPS/TLR4/MYD88 -->
<g id="edge24" class="edge"><title>TLR4&#45;&gt;LPS/TLR4/MYD88</title>
<path fill="none" stroke="black" d="M421.131,-521.148C415.733,-511.935 408.641,-499.829 402.102,-488.669"/>
<polygon fill="black" stroke="black" points="405.095,-486.853 397.02,-479.994 399.055,-490.392 405.095,-486.853"/>
</g>
<!-- NFKBIA -->
<g id="node42" class="node"><title>NFKBIA</title>
<ellipse fill="none" stroke="black" cx="609" cy="-104.912" rx="18" ry="18"/>
<text text-anchor="middle" x="609" y="-103.712" font-family="Times,serif" font-size="4.00">NFKBIA</text>
</g>
<!-- NEMO/IKKA/IKKB&#45;&gt;NFKBIA -->
<g id="edge25" class="edge"><title>NEMO/IKKA/IKKB&#45;&gt;NFKBIA</title>
<path fill="none" stroke="black" d="M598.328,-159.345C600.034,-150.802 601.923,-141.342 603.632,-132.786"/>
<polygon fill="black" stroke="black" points="607.077,-133.411 605.603,-122.919 600.212,-132.04 607.077,-133.411"/>
</g>
<!-- PYCARD&#45;&gt;CASP1 -->
<g id="edge26" class="edge"><title>PYCARD&#45;&gt;CASP1</title>
<path fill="none" stroke="black" d="M148,-596.936C148,-587.721 148,-576.154 148,-565.732"/>
<polygon fill="black" stroke="black" points="151.5,-565.433 148,-555.433 144.5,-565.433 151.5,-565.433"/>
</g>
<!-- TLR7/8/9 -->
<g id="node21" class="node"><title>TLR7/8/9</title>
<ellipse fill="none" stroke="black" cx="430" cy="-615.151" rx="18.0625" ry="18.0625"/>
<text text-anchor="middle" x="430" y="-613.951" font-family="Times,serif" font-size="4.00">TLR7/8/9</text>
</g>
<!-- TLR7/8/9&#45;&gt;MYD88 -->
<g id="edge27" class="edge"><title>TLR7/8/9&#45;&gt;MYD88</title>
<path fill="none" stroke="black" d="M417.478,-602.061C413.127,-598.278 408.064,-594.307 403,-591.286 365.291,-568.794 350.197,-575.072 311,-555.286 309.832,-554.697 308.649,-554.071 307.465,-553.421"/>
<polygon fill="black" stroke="black" points="308.951,-550.234 298.561,-548.157 305.388,-556.259 308.951,-550.234"/>
</g>
<!-- TRIM27/TRIM21 -->
<g id="node22" class="node"><title>TRIM27/TRIM21</title>
<ellipse fill="none" stroke="black" cx="654" cy="-278.174" rx="25.4118" ry="25.4118"/>
<text text-anchor="middle" x="654" y="-276.974" font-family="Times,serif" font-size="4.00">TRIM27/TRIM21</text>
</g>
<!-- TRIM27/TRIM21&#45;&gt;NEMO/IKKA/IKKB -->
<g id="edge28" class="edge"><title>TRIM27/TRIM21&#45;&gt;NEMO/IKKA/IKKB</title>
<path fill="none" stroke="black" d="M639.852,-256.496C632.245,-245.378 622.712,-231.445 614.234,-219.054"/>
<polygon fill="black" stroke="black" points="617.106,-217.053 608.57,-210.776 611.329,-221.006 617.106,-217.053"/>
</g>
<!-- IRF6 -->
<g id="node23" class="node"><title>IRF6</title>
<ellipse fill="none" stroke="black" cx="338" cy="-537.286" rx="18" ry="18"/>
<text text-anchor="middle" x="338" y="-536.086" font-family="Times,serif" font-size="4.00">IRF6</text>
</g>
<!-- IRF6&#45;&gt;LPS/TLR4/MYD88 -->
<g id="edge29" class="edge"><title>IRF6&#45;&gt;LPS/TLR4/MYD88</title>
<path fill="none" stroke="black" d="M346.869,-521.148C352.267,-511.935 359.359,-499.829 365.898,-488.669"/>
<polygon fill="black" stroke="black" points="368.945,-490.392 370.98,-479.994 362.905,-486.853 368.945,-490.392"/>
</g>
<!-- SERPINF2 -->
<g id="node24" class="node"><title>SERPINF2</title>
<ellipse fill="none" stroke="black" cx="495" cy="-187.019" rx="19.1842" ry="19.1842"/>
<text text-anchor="middle" x="495" y="-185.819" font-family="Times,serif" font-size="4.00">SERPINF2</text>
</g>
<!-- SERPINF2&#45;&gt;IFNB1 -->
<g id="edge30" class="edge"><title>SERPINF2&#45;&gt;IFNB1</title>
<path fill="none" stroke="black" d="M501.51,-168.637C505.575,-157.78 510.882,-143.609 515.423,-131.485"/>
<polygon fill="black" stroke="black" points="518.783,-132.491 519.013,-121.899 512.228,-130.036 518.783,-132.491"/>
</g>
<!-- TRIM22 -->
<g id="node25" class="node"><title>TRIM22</title>
<ellipse fill="none" stroke="black" cx="715" cy="-278.174" rx="18" ry="18"/>
<text text-anchor="middle" x="715" y="-276.974" font-family="Times,serif" font-size="4.00">TRIM22</text>
</g>
<!-- TRIM22&#45;&gt;NEMO/IKKA/IKKB -->
<g id="edge31" class="edge"><title>TRIM22&#45;&gt;NEMO/IKKA/IKKB</title>
<path fill="none" stroke="black" d="M702.866,-264.402C698.384,-259.977 693.14,-255.128 688,-251.127 664.059,-232.49 655.145,-232.105 630,-215.127 627.863,-213.684 625.675,-212.173 623.483,-210.633"/>
<polygon fill="black" stroke="black" points="625.277,-207.613 615.107,-204.641 621.204,-213.306 625.277,-207.613"/>
</g>
<!-- TRIM23 -->
<g id="node26" class="node"><title>TRIM23</title>
<ellipse fill="none" stroke="black" cx="522" cy="-456.77" rx="18" ry="18"/>
<text text-anchor="middle" x="522" y="-455.57" font-family="Times,serif" font-size="4.00">TRIM23</text>
</g>
<!-- TRIM23&#45;&gt;TRAF6 -->
<g id="edge32" class="edge"><title>TRIM23&#45;&gt;TRAF6</title>
<path fill="none" stroke="black" d="M509.208,-443.668C493.965,-429.249 468.307,-404.976 450.335,-387.974"/>
<polygon fill="black" stroke="black" points="452.353,-385.065 442.684,-380.736 447.543,-390.15 452.353,-385.065"/>
</g>
<!-- ORF8b -->
<g id="node27" class="node"><title>ORF8b</title>
<ellipse fill="none" stroke="black" cx="206" cy="-706.306" rx="18" ry="18"/>
<text text-anchor="middle" x="206" y="-705.106" font-family="Times,serif" font-size="4.00">ORF8b</text>
</g>
<!-- ORF8b&#45;&gt;NLRP3 -->
<g id="edge33" class="edge"><title>ORF8b&#45;&gt;NLRP3</title>
<path fill="none" stroke="black" d="M205.229,-688.116C204.664,-675.535 203.887,-658.203 203.236,-643.701"/>
<polygon fill="black" stroke="black" points="206.714,-643.121 202.769,-633.288 199.721,-643.435 206.714,-643.121"/>
</g>
<!-- TAB2/TAB3/TAK1&#45;&gt;NEMO/IKKA/IKKB -->
<g id="edge35" class="edge"><title>TAB2/TAB3/TAK1&#45;&gt;NEMO/IKKA/IKKB</title>
<path fill="none" stroke="black" d="M482.844,-261.649C487.809,-258.162 493.072,-254.497 498,-251.127 519.022,-236.748 542.903,-220.887 561.462,-208.662"/>
<polygon fill="black" stroke="black" points="563.415,-211.567 569.847,-203.148 559.569,-205.719 563.415,-211.567"/>
</g>
<!-- TAB2/TAB3/TAK1&#45;&gt;SERPINF2 -->
<g id="edge34" class="edge"><title>TAB2/TAB3/TAK1&#45;&gt;SERPINF2</title>
<path fill="none" stroke="black" d="M470.471,-252.339C474.953,-240.585 480.311,-226.537 484.874,-214.571"/>
<polygon fill="black" stroke="black" points="488.19,-215.698 488.483,-205.107 481.65,-213.203 488.19,-215.698"/>
</g>
<!-- LPS/TNF α/IL&#45;1 -->
<g id="node30" class="node"><title>LPS/TNF α/IL&#45;1</title>
<ellipse fill="none" stroke="black" cx="85" cy="-797.46" rx="23.7305" ry="23.7305"/>
<text text-anchor="middle" x="85" y="-796.26" font-family="Times,serif" font-size="4.00">LPS/TNF α/IL&#45;1</text>
</g>
<!-- IKBKG/IKBKB/CHUK -->
<g id="node34" class="node"><title>IKBKG/IKBKB/CHUK</title>
<ellipse fill="none" stroke="black" cx="85" cy="-706.306" rx="31.0804" ry="31.0804"/>
<text text-anchor="middle" x="85" y="-705.106" font-family="Times,serif" font-size="4.00">IKBKG/IKBKB/CHUK</text>
</g>
<!-- LPS/TNF α/IL&#45;1&#45;&gt;IKBKG/IKBKB/CHUK -->
<g id="edge36" class="edge"><title>LPS/TNF α/IL&#45;1&#45;&gt;IKBKG/IKBKB/CHUK</title>
<path fill="none" stroke="black" d="M85,-773.5C85,-765.713 85,-756.764 85,-748.016"/>
<polygon fill="black" stroke="black" points="88.5001,-747.919 85,-737.919 81.5001,-747.919 88.5001,-747.919"/>
</g>
<!-- TRIM38 -->
<g id="node31" class="node"><title>TRIM38</title>
<ellipse fill="none" stroke="black" cx="401" cy="-875.325" rx="18" ry="18"/>
<text text-anchor="middle" x="401" y="-874.125" font-family="Times,serif" font-size="4.00">TRIM38</text>
</g>
<!-- TRIM38&#45;&gt;TRAF6 -->
<g id="edge38" class="edge"><title>TRIM38&#45;&gt;TRAF6</title>
<path fill="none" stroke="black" d="M412.067,-860.531C432.929,-833.09 476,-768.97 476,-707.306 476,-707.306 476,-707.306 476,-536.286 476,-484.298 455.151,-426.37 441.525,-394.063"/>
<polygon fill="black" stroke="black" points="444.576,-392.3 437.391,-384.514 438.152,-395.081 444.576,-392.3"/>
</g>
<!-- TRIM38&#45;&gt;TICAM1 -->
<g id="edge37" class="edge"><title>TRIM38&#45;&gt;TICAM1</title>
<path fill="none" stroke="black" d="M385.929,-864.716C365.631,-851.777 329.309,-828.62 305.431,-813.398"/>
<polygon fill="black" stroke="black" points="307.263,-810.415 296.949,-807.99 303.5,-816.317 307.263,-810.415"/>
</g>
<!-- TRIM14/TRIM23 -->
<g id="node32" class="node"><title>TRIM14/TRIM23</title>
<ellipse fill="none" stroke="black" cx="532" cy="-278.174" rx="25.4118" ry="25.4118"/>
<text text-anchor="middle" x="532" y="-276.974" font-family="Times,serif" font-size="4.00">TRIM14/TRIM23</text>
</g>
<!-- TRIM14/TRIM23&#45;&gt;NEMO/IKKA/IKKB -->
<g id="edge39" class="edge"><title>TRIM14/TRIM23&#45;&gt;NEMO/IKKA/IKKB</title>
<path fill="none" stroke="black" d="M546.148,-256.496C553.755,-245.378 563.288,-231.445 571.766,-219.054"/>
<polygon fill="black" stroke="black" points="574.671,-221.006 577.43,-210.776 568.894,-217.053 574.671,-221.006"/>
</g>
<!-- TRAF3 -->
<g id="node37" class="node"><title>TRAF3</title>
<ellipse fill="none" stroke="black" cx="152" cy="-706.306" rx="18" ry="18"/>
<text text-anchor="middle" x="152" y="-705.106" font-family="Times,serif" font-size="4.00">TRAF3</text>
</g>
<!-- TICAM1&#45;&gt;TRAF3 -->
<g id="edge40" class="edge"><title>TICAM1&#45;&gt;TRAF3</title>
<path fill="none" stroke="black" d="M265.637,-789.155C244.421,-779.243 206.844,-760.157 179,-737.595 175.767,-734.976 172.589,-731.953 169.612,-728.852"/>
<polygon fill="black" stroke="black" points="171.997,-726.269 162.711,-721.168 166.79,-730.947 171.997,-726.269"/>
</g>
<!-- IKBKG/IKBKB/CHUK&#45;&gt;P65/P015 -->
<g id="edge41" class="edge"><title>IKBKG/IKBKB/CHUK&#45;&gt;P65/P015</title>
<path fill="none" stroke="black" d="M86.0324,-674.624C86.3735,-664.488 86.7504,-653.288 87.0822,-643.426"/>
<polygon fill="black" stroke="black" points="90.5825,-643.475 87.4208,-633.363 83.5864,-643.239 90.5825,-643.475"/>
</g>
<!-- ssRNA -->
<g id="node36" class="node"><title>ssRNA</title>
<ellipse fill="none" stroke="black" cx="430" cy="-706.306" rx="18" ry="18"/>
<text text-anchor="middle" x="430" y="-705.106" font-family="Times,serif" font-size="4.00">ssRNA</text>
</g>
<!-- ssRNA&#45;&gt;TLR7/8/9 -->
<g id="edge42" class="edge"><title>ssRNA&#45;&gt;TLR7/8/9</title>
<path fill="none" stroke="black" d="M430,-688.116C430,-675.535 430,-658.203 430,-643.701"/>
<polygon fill="black" stroke="black" points="433.5,-643.288 430,-633.288 426.5,-643.288 433.5,-643.288"/>
</g>
<!-- TRAF3&#45;&gt;P65/P015 -->
<g id="edge44" class="edge"><title>TRAF3&#45;&gt;P65/P015</title>
<path fill="none" stroke="black" d="M141.717,-690.981C131.581,-676.861 115.939,-655.072 104.144,-638.64"/>
<polygon fill="black" stroke="black" points="106.721,-636.228 98.0462,-630.146 101.035,-640.311 106.721,-636.228"/>
</g>
<!-- TRAF3&#45;&gt;PYCARD -->
<g id="edge43" class="edge"><title>TRAF3&#45;&gt;PYCARD</title>
<path fill="none" stroke="black" d="M151.229,-688.116C150.664,-675.535 149.887,-658.203 149.236,-643.701"/>
<polygon fill="black" stroke="black" points="152.714,-643.121 148.769,-633.288 145.721,-643.435 152.714,-643.121"/>
</g>
<!-- TRIM9 -->
<g id="node38" class="node"><title>TRIM9</title>
<ellipse fill="none" stroke="black" cx="769" cy="-278.174" rx="18" ry="18"/>
<text text-anchor="middle" x="769" y="-276.974" font-family="Times,serif" font-size="4.00">TRIM9</text>
</g>
<!-- BTRC -->
<g id="node39" class="node"><title>BTRC</title>
<ellipse fill="none" stroke="black" cx="657" cy="-187.019" rx="18" ry="18"/>
<text text-anchor="middle" x="657" y="-185.819" font-family="Times,serif" font-size="4.00">BTRC</text>
</g>
<!-- TRIM9&#45;&gt;BTRC -->
<g id="edge45" class="edge"><title>TRIM9&#45;&gt;BTRC</title>
<path fill="none" stroke="black" d="M756.866,-264.402C752.384,-259.977 747.14,-255.128 742,-251.127 718.059,-232.49 707.754,-234.001 684,-215.127 681.348,-213.019 678.681,-210.676 676.11,-208.274"/>
<polygon fill="black" stroke="black" points="678.378,-205.595 668.798,-201.07 673.465,-210.581 678.378,-205.595"/>
</g>
<!-- BTRC&#45;&gt;NFKBIA -->
<g id="edge46" class="edge"><title>BTRC&#45;&gt;NFKBIA</title>
<path fill="none" stroke="black" d="M647.972,-170.952C640.955,-159.241 631.095,-142.787 623.049,-129.359"/>
<polygon fill="black" stroke="black" points="625.968,-127.42 617.826,-120.641 619.963,-131.018 625.968,-127.42"/>
</g>
<!-- NFKB1 -->
<g id="node41" class="node"><title>NFKB1</title>
<ellipse fill="none" stroke="black" cx="471" cy="-104.912" rx="18" ry="18"/>
<text text-anchor="middle" x="471" y="-103.712" font-family="Times,serif" font-size="4.00">NFKB1</text>
</g>
<!-- NFKB1&#45;&gt;NFKB1_NFKNIA -->
<g id="edge47" class="edge"><title>NFKB1&#45;&gt;NFKB1_NFKNIA</title>
<path fill="none" stroke="black" d="M485.751,-94.3888C489.699,-91.9046 493.986,-89.2652 498,-86.9117 524.501,-71.3725 555.214,-54.7487 577.606,-42.8738"/>
<polygon fill="black" stroke="black" points="579.449,-45.8583 586.656,-38.0924 576.18,-39.669 579.449,-45.8583"/>
</g>
<!-- NFKBIA&#45;&gt;NFKB1_NFKNIA -->
<g id="edge48" class="edge"><title>NFKBIA&#45;&gt;NFKB1_NFKNIA</title>
<path fill="none" stroke="black" d="M609,-86.7217C609,-79.1618 609,-69.9963 609,-61.1189"/>
<polygon fill="black" stroke="black" points="612.5,-60.9434 609,-50.9434 605.5,-60.9434 612.5,-60.9434"/>
</g>
<!-- double&#45;stranded RNA -->
<g id="node43" class="node"><title>double&#45;stranded RNA</title>
<ellipse fill="none" stroke="black" cx="282" cy="-960.084" rx="30.5202" ry="30.5202"/>
<text text-anchor="middle" x="282" y="-958.884" font-family="Times,serif" font-size="4.00">double&#45;stranded RNA</text>
</g>
<!-- double&#45;stranded RNA&#45;&gt;TLR3 -->
<g id="edge49" class="edge"><title>double&#45;stranded RNA&#45;&gt;TLR3</title>
<path fill="none" stroke="black" d="M282,-929.206C282,-920.836 282,-911.784 282,-903.575"/>
<polygon fill="black" stroke="black" points="285.5,-903.397 282,-893.397 278.5,-903.397 285.5,-903.397"/>
</g>
</g>
</svg>
