<?xml version="1.0" encoding="UTF-8" standalone="no"?>
<!DOCTYPE svg PUBLIC "-//W3C//DTD SVG 1.1//EN"
 "http://www.w3.org/Graphics/SVG/1.1/DTD/svg11.dtd">
<!-- Generated by graphviz version 2.38.0 (20140413.2041)
 -->
<!-- Title: G Pages: 1 -->
<svg width="933pt" height="265pt"
 viewBox="0.00 0.00 932.50 264.73" xmlns="http://www.w3.org/2000/svg" xmlns:xlink="http://www.w3.org/1999/xlink">
<g id="graph0" class="graph" transform="scale(1 1) rotate(0) translate(4 260.73)">
<title>G</title>
<polygon fill="white" stroke="none" points="-4,4 -4,-260.73 928.5,-260.73 928.5,4 -4,4"/>
<!-- IFNB1 -->
<g id="node1" class="node"><title>IFNB1</title>
<ellipse fill="none" stroke="black" cx="109.5" cy="-238.73" rx="18" ry="18"/>
<text text-anchor="middle" x="109.5" y="-237.53" font-family="Times,serif" font-size="4.00">IFNB1</text>
</g>
<!-- pr_18a1b933&#45;a9d4&#45;4413&#45;bb0d&#45;9dc718407a1c -->
<g id="node2" class="node"><title>pr_18a1b933&#45;a9d4&#45;4413&#45;bb0d&#45;9dc718407a1c</title>
<polygon fill="none" stroke="black" points="101,-184.73 0,-184.73 0,-83.7297 101,-83.7297 101,-184.73"/>
<text text-anchor="middle" x="50.5" y="-133.03" font-family="Times,serif" font-size="4.00">pr_18a1b933&#45;a9d4&#45;4413&#45;bb0d&#45;9dc718407a1c</text>
</g>
<!-- IFNB1&#45;&gt;pr_18a1b933&#45;a9d4&#45;4413&#45;bb0d&#45;9dc718407a1c -->
<g id="edge1" class="edge"><title>IFNB1&#45;&gt;pr_18a1b933&#45;a9d4&#45;4413&#45;bb0d&#45;9dc718407a1c</title>
<path fill="none" stroke="black" d="M97.6512,-225.161C91.7656,-216.988 84.5635,-205.677 77.5433,-193.831"/>
<polygon fill="black" stroke="black" points="80.5429,-192.026 72.4851,-185.147 74.4943,-195.55 80.5429,-192.026"/>
</g>
<!-- pr_c9ca8c49&#45;7cf8&#45;4811&#45;a11f&#45;5164e46a3694 -->
<g id="node3" class="node"><title>pr_c9ca8c49&#45;7cf8&#45;4811&#45;a11f&#45;5164e46a3694</title>
<polygon fill="none" stroke="black" points="218,-183.73 119,-183.73 119,-84.7297 218,-84.7297 218,-183.73"/>
<text text-anchor="middle" x="168.5" y="-133.03" font-family="Times,serif" font-size="4.00">pr_c9ca8c49&#45;7cf8&#45;4811&#45;a11f&#45;5164e46a3694</text>
</g>
<!-- IFNB1&#45;&gt;pr_c9ca8c49&#45;7cf8&#45;4811&#45;a11f&#45;5164e46a3694 -->
<g id="edge2" class="edge"><title>IFNB1&#45;&gt;pr_c9ca8c49&#45;7cf8&#45;4811&#45;a11f&#45;5164e46a3694</title>
<path fill="none" stroke="black" d="M113.865,-221.261C117.538,-213.303 122.808,-203.227 128.66,-192.796"/>
<polygon fill="black" stroke="black" points="131.77,-194.408 133.691,-183.989 125.692,-190.936 131.77,-194.408"/>
</g>
<!-- pr_18a1b933&#45;a9d4&#45;4413&#45;bb0d&#45;9dc718407a1c&#45;&gt;IFNB1 -->
<g id="edge3" class="edge"><title>pr_18a1b933&#45;a9d4&#45;4413&#45;bb0d&#45;9dc718407a1c&#45;&gt;IFNB1</title>
<path fill="none" stroke="black" d="M85.829,-184.885C91.299,-194.328 96.5048,-203.843 100.707,-212.147"/>
<polygon fill="black" stroke="black" points="97.6173,-213.796 105.135,-221.261 103.913,-210.737 97.6173,-213.796"/>
</g>
<!-- pr_c9ca8c49&#45;7cf8&#45;4811&#45;a11f&#45;5164e46a3694&#45;&gt;IFNB1 -->
<g id="edge4" class="edge"><title>pr_c9ca8c49&#45;7cf8&#45;4811&#45;a11f&#45;5164e46a3694&#45;&gt;IFNB1</title>
<path fill="none" stroke="black" d="M147.318,-183.741C140.713,-195.341 133.538,-207.13 127.167,-216.719"/>
<polygon fill="black" stroke="black" points="124.141,-214.941 121.349,-225.161 129.905,-218.913 124.141,-214.941"/>
</g>
<!-- STOML2 -->
<g id="node4" class="node"><title>STOML2</title>
<ellipse fill="none" stroke="black" cx="521.5" cy="-238.73" rx="18" ry="18"/>
<text text-anchor="middle" x="521.5" y="-237.53" font-family="Times,serif" font-size="4.00">STOML2</text>
</g>
<!-- pr_1432cda6&#45;6281&#45;432e&#45;b773&#45;c06c9db91625 -->
<g id="node5" class="node"><title>pr_1432cda6&#45;6281&#45;432e&#45;b773&#45;c06c9db91625</title>
<polygon fill="none" stroke="black" points="337,-184.73 236,-184.73 236,-83.7297 337,-83.7297 337,-184.73"/>
<text text-anchor="middle" x="286.5" y="-133.03" font-family="Times,serif" font-size="4.00">pr_1432cda6&#45;6281&#45;432e&#45;b773&#45;c06c9db91625</text>
</g>
<!-- STOML2&#45;&gt;pr_1432cda6&#45;6281&#45;432e&#45;b773&#45;c06c9db91625 -->
<g id="edge5" class="edge"><title>STOML2&#45;&gt;pr_1432cda6&#45;6281&#45;432e&#45;b773&#45;c06c9db91625</title>
<path fill="none" stroke="black" d="M504.285,-232.715C461.576,-220.247 353.67,-188.572 346.5,-184.73 346.307,-184.626 346.113,-184.522 345.92,-184.417"/>
<polygon fill="black" stroke="black" points="347.661,-181.38 337.275,-179.286 344.088,-187.4 347.661,-181.38"/>
</g>
<!-- pr_168477cb&#45;de20&#45;41cf&#45;a90e&#45;e353ef4a629f -->
<g id="node9" class="node"><title>pr_168477cb&#45;de20&#45;41cf&#45;a90e&#45;e353ef4a629f</title>
<polygon fill="none" stroke="black" points="453.5,-183.23 355.5,-183.23 355.5,-85.2297 453.5,-85.2297 453.5,-183.23"/>
<text text-anchor="middle" x="404.5" y="-133.03" font-family="Times,serif" font-size="4.00">pr_168477cb&#45;de20&#45;41cf&#45;a90e&#45;e353ef4a629f</text>
</g>
<!-- STOML2&#45;&gt;pr_168477cb&#45;de20&#45;41cf&#45;a90e&#45;e353ef4a629f -->
<g id="edge6" class="edge"><title>STOML2&#45;&gt;pr_168477cb&#45;de20&#45;41cf&#45;a90e&#45;e353ef4a629f</title>
<path fill="none" stroke="black" d="M508.079,-225.972C496.523,-215.848 479.013,-200.509 461.661,-185.307"/>
<polygon fill="black" stroke="black" points="463.549,-182.308 453.721,-178.351 458.937,-187.573 463.549,-182.308"/>
</g>
<!-- pr_c43e8f87&#45;1b66&#45;4e02&#45;a2e2&#45;d7667df6c09d -->
<g id="node11" class="node"><title>pr_c43e8f87&#45;1b66&#45;4e02&#45;a2e2&#45;d7667df6c09d</title>
<polygon fill="none" stroke="black" points="806,-183.73 707,-183.73 707,-84.7297 806,-84.7297 806,-183.73"/>
<text text-anchor="middle" x="756.5" y="-133.03" font-family="Times,serif" font-size="4.00">pr_c43e8f87&#45;1b66&#45;4e02&#45;a2e2&#45;d7667df6c09d</text>
</g>
<!-- STOML2&#45;&gt;pr_c43e8f87&#45;1b66&#45;4e02&#45;a2e2&#45;d7667df6c09d -->
<g id="edge7" class="edge"><title>STOML2&#45;&gt;pr_c43e8f87&#45;1b66&#45;4e02&#45;a2e2&#45;d7667df6c09d</title>
<path fill="none" stroke="black" d="M539.273,-234.927C570.66,-229.472 637.589,-215.561 697.623,-184.657"/>
<polygon fill="black" stroke="black" points="699.629,-187.554 706.808,-179.762 696.337,-181.376 699.629,-187.554"/>
</g>
<!-- pr_d9bfb1c0&#45;225c&#45;442e&#45;8154&#45;89b8eaa18d8a -->
<g id="node17" class="node"><title>pr_d9bfb1c0&#45;225c&#45;442e&#45;8154&#45;89b8eaa18d8a</title>
<polygon fill="none" stroke="black" points="571.5,-184.23 471.5,-184.23 471.5,-84.2297 571.5,-84.2297 571.5,-184.23"/>
<text text-anchor="middle" x="521.5" y="-133.03" font-family="Times,serif" font-size="4.00">pr_d9bfb1c0&#45;225c&#45;442e&#45;8154&#45;89b8eaa18d8a</text>
</g>
<!-- STOML2&#45;&gt;pr_d9bfb1c0&#45;225c&#45;442e&#45;8154&#45;89b8eaa18d8a -->
<g id="edge8" class="edge"><title>STOML2&#45;&gt;pr_d9bfb1c0&#45;225c&#45;442e&#45;8154&#45;89b8eaa18d8a</title>
<path fill="none" stroke="black" d="M521.5,-220.342C521.5,-213.044 521.5,-204.087 521.5,-194.754"/>
<polygon fill="black" stroke="black" points="525,-194.54 521.5,-184.54 518,-194.54 525,-194.54"/>
</g>
<!-- pr_4c97eead&#45;dff7&#45;47c8&#45;a4cb&#45;e339163a7470 -->
<g id="node18" class="node"><title>pr_4c97eead&#45;dff7&#45;47c8&#45;a4cb&#45;e339163a7470</title>
<polygon fill="none" stroke="black" points="689,-183.73 590,-183.73 590,-84.7297 689,-84.7297 689,-183.73"/>
<text text-anchor="middle" x="639.5" y="-133.03" font-family="Times,serif" font-size="4.00">pr_4c97eead&#45;dff7&#45;47c8&#45;a4cb&#45;e339163a7470</text>
</g>
<!-- STOML2&#45;&gt;pr_4c97eead&#45;dff7&#45;47c8&#45;a4cb&#45;e339163a7470 -->
<g id="edge9" class="edge"><title>STOML2&#45;&gt;pr_4c97eead&#45;dff7&#45;47c8&#45;a4cb&#45;e339163a7470</title>
<path fill="none" stroke="black" d="M535.036,-225.972C546.69,-215.848 564.35,-200.509 581.851,-185.307"/>
<polygon fill="black" stroke="black" points="584.604,-187.551 589.858,-178.351 580.013,-182.266 584.604,-187.551"/>
</g>
<!-- MFN2&#45;STOML2 -->
<g id="node7" class="node"><title>MFN2&#45;STOML2</title>
<ellipse fill="none" stroke="black" cx="286.5" cy="-23.8649" rx="23.7305" ry="23.7305"/>
<text text-anchor="middle" x="286.5" y="-22.6649" font-family="Times,serif" font-size="4.00">MFN2&#45;STOML2</text>
</g>
<!-- pr_1432cda6&#45;6281&#45;432e&#45;b773&#45;c06c9db91625&#45;&gt;MFN2&#45;STOML2 -->
<g id="edge10" class="edge"><title>pr_1432cda6&#45;6281&#45;432e&#45;b773&#45;c06c9db91625&#45;&gt;MFN2&#45;STOML2</title>
<path fill="none" stroke="black" d="M286.5,-83.4875C286.5,-74.8217 286.5,-66.0034 286.5,-57.9272"/>
<polygon fill="black" stroke="black" points="290,-57.8131 286.5,-47.8131 283,-57.8132 290,-57.8131"/>
</g>
<!-- MFN2 -->
<g id="node6" class="node"><title>MFN2</title>
<ellipse fill="none" stroke="black" cx="286.5" cy="-238.73" rx="18" ry="18"/>
<text text-anchor="middle" x="286.5" y="-237.53" font-family="Times,serif" font-size="4.00">MFN2</text>
</g>
<!-- MFN2&#45;&gt;pr_1432cda6&#45;6281&#45;432e&#45;b773&#45;c06c9db91625 -->
<g id="edge11" class="edge"><title>MFN2&#45;&gt;pr_1432cda6&#45;6281&#45;432e&#45;b773&#45;c06c9db91625</title>
<path fill="none" stroke="black" d="M286.5,-220.342C286.5,-213.127 286.5,-204.292 286.5,-195.076"/>
<polygon fill="black" stroke="black" points="290,-194.983 286.5,-184.983 283,-194.983 290,-194.983"/>
</g>
<!-- Orf3b -->
<g id="node8" class="node"><title>Orf3b</title>
<ellipse fill="none" stroke="black" cx="435.5" cy="-238.73" rx="18" ry="18"/>
<text text-anchor="middle" x="435.5" y="-237.53" font-family="Times,serif" font-size="4.00">Orf3b</text>
</g>
<!-- Orf3b&#45;&gt;pr_168477cb&#45;de20&#45;41cf&#45;a90e&#45;e353ef4a629f -->
<g id="edge12" class="edge"><title>Orf3b&#45;&gt;pr_168477cb&#45;de20&#45;41cf&#45;a90e&#45;e353ef4a629f</title>
<path fill="none" stroke="black" d="M430.519,-221.261C428.159,-213.456 425.182,-203.613 422.092,-193.397"/>
<polygon fill="black" stroke="black" points="425.356,-192.1 419.111,-183.542 418.656,-194.127 425.356,-192.1"/>
</g>
<!-- Orf3b&#45;&gt;pr_d9bfb1c0&#45;225c&#45;442e&#45;8154&#45;89b8eaa18d8a -->
<g id="edge13" class="edge"><title>Orf3b&#45;&gt;pr_d9bfb1c0&#45;225c&#45;442e&#45;8154&#45;89b8eaa18d8a</title>
<path fill="none" stroke="black" d="M446.743,-224.33C453.839,-215.872 463.543,-204.307 473.608,-192.31"/>
<polygon fill="black" stroke="black" points="476.505,-194.303 480.251,-184.392 471.143,-189.803 476.505,-194.303"/>
</g>
<!-- Orf3b&#45;STOML2 -->
<g id="node10" class="node"><title>Orf3b&#45;STOML2</title>
<ellipse fill="none" stroke="black" cx="462.5" cy="-23.8649" rx="23.1702" ry="23.1702"/>
<text text-anchor="middle" x="462.5" y="-22.6649" font-family="Times,serif" font-size="4.00">Orf3b&#45;STOML2</text>
</g>
<!-- pr_168477cb&#45;de20&#45;41cf&#45;a90e&#45;e353ef4a629f&#45;&gt;Orf3b&#45;STOML2 -->
<g id="edge14" class="edge"><title>pr_168477cb&#45;de20&#45;41cf&#45;a90e&#45;e353ef4a629f&#45;&gt;Orf3b&#45;STOML2</title>
<path fill="none" stroke="black" d="M430.277,-85.0682C435.95,-74.4695 441.789,-63.5596 446.913,-53.9879"/>
<polygon fill="black" stroke="black" points="450.131,-55.3915 451.764,-44.9233 443.959,-52.0882 450.131,-55.3915"/>
</g>
<!-- STOML2&#45;PHB -->
<g id="node13" class="node"><title>STOML2&#45;PHB</title>
<ellipse fill="none" stroke="black" cx="756.5" cy="-23.8649" rx="22.05" ry="22.05"/>
<text text-anchor="middle" x="756.5" y="-22.6649" font-family="Times,serif" font-size="4.00">STOML2&#45;PHB</text>
</g>
<!-- pr_c43e8f87&#45;1b66&#45;4e02&#45;a2e2&#45;d7667df6c09d&#45;&gt;STOML2&#45;PHB -->
<g id="edge15" class="edge"><title>pr_c43e8f87&#45;1b66&#45;4e02&#45;a2e2&#45;d7667df6c09d&#45;&gt;STOML2&#45;PHB</title>
<path fill="none" stroke="black" d="M756.5,-84.4364C756.5,-74.931 756.5,-65.2022 756.5,-56.4357"/>
<polygon fill="black" stroke="black" points="760,-56.2995 756.5,-46.2995 753,-56.2996 760,-56.2995"/>
</g>
<!-- PHB -->
<g id="node12" class="node"><title>PHB</title>
<ellipse fill="none" stroke="black" cx="788.5" cy="-238.73" rx="18" ry="18"/>
<text text-anchor="middle" x="788.5" y="-237.53" font-family="Times,serif" font-size="4.00">PHB</text>
</g>
<!-- PHB&#45;&gt;pr_c43e8f87&#45;1b66&#45;4e02&#45;a2e2&#45;d7667df6c09d -->
<g id="edge16" class="edge"><title>PHB&#45;&gt;pr_c43e8f87&#45;1b66&#45;4e02&#45;a2e2&#45;d7667df6c09d</title>
<path fill="none" stroke="black" d="M783.359,-221.261C780.949,-213.542 777.916,-203.829 774.765,-193.734"/>
<polygon fill="black" stroke="black" points="778.044,-192.492 771.722,-183.989 771.362,-194.578 778.044,-192.492"/>
</g>
<!-- pr_a7b1acae&#45;1ce6&#45;4471&#45;addd&#45;c7fd3986b548 -->
<g id="node14" class="node"><title>pr_a7b1acae&#45;1ce6&#45;4471&#45;addd&#45;c7fd3986b548</title>
<polygon fill="none" stroke="black" points="924.5,-184.23 824.5,-184.23 824.5,-84.2297 924.5,-84.2297 924.5,-184.23"/>
<text text-anchor="middle" x="874.5" y="-133.03" font-family="Times,serif" font-size="4.00">pr_a7b1acae&#45;1ce6&#45;4471&#45;addd&#45;c7fd3986b548</text>
</g>
<!-- PHB&#45;&gt;pr_a7b1acae&#45;1ce6&#45;4471&#45;addd&#45;c7fd3986b548 -->
<g id="edge17" class="edge"><title>PHB&#45;&gt;pr_a7b1acae&#45;1ce6&#45;4471&#45;addd&#45;c7fd3986b548</title>
<path fill="none" stroke="black" d="M799.743,-224.33C806.839,-215.872 816.543,-204.307 826.608,-192.31"/>
<polygon fill="black" stroke="black" points="829.505,-194.303 833.251,-184.392 824.143,-189.803 829.505,-194.303"/>
</g>
<!-- PHB&#45;RAF1 -->
<g id="node16" class="node"><title>PHB&#45;RAF1</title>
<ellipse fill="none" stroke="black" cx="874.5" cy="-23.8649" rx="19.7452" ry="19.7452"/>
<text text-anchor="middle" x="874.5" y="-22.6649" font-family="Times,serif" font-size="4.00">PHB&#45;RAF1</text>
</g>
<!-- pr_a7b1acae&#45;1ce6&#45;4471&#45;addd&#45;c7fd3986b548&#45;&gt;PHB&#45;RAF1 -->
<g id="edge18" class="edge"><title>pr_a7b1acae&#45;1ce6&#45;4471&#45;addd&#45;c7fd3986b548&#45;&gt;PHB&#45;RAF1</title>
<path fill="none" stroke="black" d="M874.5,-84.1203C874.5,-73.8163 874.5,-63.2654 874.5,-53.9759"/>
<polygon fill="black" stroke="black" points="878,-53.7405 874.5,-43.7406 871,-53.7406 878,-53.7405"/>
</g>
<!-- RAF1 -->
<g id="node15" class="node"><title>RAF1</title>
<ellipse fill="none" stroke="black" cx="874.5" cy="-238.73" rx="18" ry="18"/>
<text text-anchor="middle" x="874.5" y="-237.53" font-family="Times,serif" font-size="4.00">RAF1</text>
</g>
<!-- RAF1&#45;&gt;pr_a7b1acae&#45;1ce6&#45;4471&#45;addd&#45;c7fd3986b548 -->
<g id="edge19" class="edge"><title>RAF1&#45;&gt;pr_a7b1acae&#45;1ce6&#45;4471&#45;addd&#45;c7fd3986b548</title>
<path fill="none" stroke="black" d="M874.5,-220.342C874.5,-213.044 874.5,-204.087 874.5,-194.754"/>
<polygon fill="black" stroke="black" points="878,-194.54 874.5,-184.54 871,-194.54 878,-194.54"/>
</g>
<!-- pr_d9bfb1c0&#45;225c&#45;442e&#45;8154&#45;89b8eaa18d8a&#45;&gt;Orf3b&#45;STOML2 -->
<g id="edge20" class="edge"><title>pr_d9bfb1c0&#45;225c&#45;442e&#45;8154&#45;89b8eaa18d8a&#45;&gt;Orf3b&#45;STOML2</title>
<path fill="none" stroke="black" d="M494.762,-84.1203C489.091,-73.7043 483.283,-63.036 478.185,-53.6734"/>
<polygon fill="black" stroke="black" points="481.212,-51.9128 473.356,-44.8037 475.064,-55.26 481.212,-51.9128"/>
</g>
<!-- TCR complex -->
<g id="node19" class="node"><title>TCR complex</title>
<ellipse fill="none" stroke="black" cx="639.5" cy="-23.8649" rx="22.6101" ry="22.6101"/>
<text text-anchor="middle" x="639.5" y="-22.6649" font-family="Times,serif" font-size="4.00">TCR complex</text>
</g>
<!-- pr_4c97eead&#45;dff7&#45;47c8&#45;a4cb&#45;e339163a7470&#45;&gt;TCR complex -->
<g id="edge21" class="edge"><title>pr_4c97eead&#45;dff7&#45;47c8&#45;a4cb&#45;e339163a7470&#45;&gt;TCR complex</title>
<path fill="none" stroke="black" d="M632.78,-84.4364C632.674,-74.8512 632.852,-65.0387 633.314,-56.2149"/>
<polygon fill="black" stroke="black" points="636.82,-56.2416 634.018,-46.024 629.837,-55.7587 636.82,-56.2416"/>
</g>
<!-- TCR complex&#45;&gt;pr_4c97eead&#45;dff7&#45;47c8&#45;a4cb&#45;e339163a7470 -->
<g id="edge22" class="edge"><title>TCR complex&#45;&gt;pr_4c97eead&#45;dff7&#45;47c8&#45;a4cb&#45;e339163a7470</title>
<path fill="none" stroke="black" d="M644.982,-46.024C645.713,-54.2723 646.128,-64.1712 646.227,-74.2931"/>
<polygon fill="black" stroke="black" points="642.727,-74.4341 646.22,-84.4364 649.727,-74.4387 642.727,-74.4341"/>
</g>
</g>
</svg>
