<?xml version="1.0" encoding="UTF-8" standalone="no"?>
<!DOCTYPE svg PUBLIC "-//W3C//DTD SVG 1.1//EN"
 "http://www.w3.org/Graphics/SVG/1.1/DTD/svg11.dtd">
<!-- Generated by graphviz version 2.38.0 (20140413.2041)
 -->
<!-- Title: G Pages: 1 -->
<svg width="915pt" height="1156pt"
 viewBox="0.00 0.00 914.50 1156.19" xmlns="http://www.w3.org/2000/svg" xmlns:xlink="http://www.w3.org/1999/xlink">
<g id="graph0" class="graph" transform="scale(1 1) rotate(0) translate(4 1152.19)">
<title>G</title>
<polygon fill="white" stroke="none" points="-4,4 -4,-1152.19 910.5,-1152.19 910.5,4 -4,4"/>
<!-- Orf3a -->
<g id="node1" class="node"><title>Orf3a</title>
<ellipse fill="none" stroke="black" cx="333.5" cy="-1127.51" rx="18" ry="18"/>
<text text-anchor="middle" x="333.5" y="-1126.31" font-family="Times,serif" font-size="4.00">Orf3a</text>
</g>
<!-- pr_e7bd89d8&#45;5293&#45;4bda&#45;a23e&#45;2bd3bb032eba -->
<g id="node2" class="node"><title>pr_e7bd89d8&#45;5293&#45;4bda&#45;a23e&#45;2bd3bb032eba</title>
<polygon fill="none" stroke="black" points="298,-1070.83 197,-1070.83 197,-969.829 298,-969.829 298,-1070.83"/>
<text text-anchor="middle" x="247.5" y="-1019.13" font-family="Times,serif" font-size="4.00">pr_e7bd89d8&#45;5293&#45;4bda&#45;a23e&#45;2bd3bb032eba</text>
</g>
<!-- Orf3a&#45;&gt;pr_e7bd89d8&#45;5293&#45;4bda&#45;a23e&#45;2bd3bb032eba -->
<g id="edge1" class="edge"><title>Orf3a&#45;&gt;pr_e7bd89d8&#45;5293&#45;4bda&#45;a23e&#45;2bd3bb032eba</title>
<path fill="none" stroke="black" d="M322.257,-1112.76C315.018,-1103.91 305.065,-1091.73 294.783,-1079.16"/>
<polygon fill="black" stroke="black" points="297.399,-1076.83 288.359,-1071.3 291.979,-1081.26 297.399,-1076.83"/>
</g>
<!-- pr_cc6fa52c&#45;bcc5&#45;4f9d&#45;9ee8&#45;7e08e9d258f0 -->
<g id="node35" class="node"><title>pr_cc6fa52c&#45;bcc5&#45;4f9d&#45;9ee8&#45;7e08e9d258f0</title>
<polygon fill="none" stroke="black" points="414.5,-1069.33 316.5,-1069.33 316.5,-971.329 414.5,-971.329 414.5,-1069.33"/>
<text text-anchor="middle" x="365.5" y="-1019.13" font-family="Times,serif" font-size="4.00">pr_cc6fa52c&#45;bcc5&#45;4f9d&#45;9ee8&#45;7e08e9d258f0</text>
</g>
<!-- Orf3a&#45;&gt;pr_cc6fa52c&#45;bcc5&#45;4f9d&#45;9ee8&#45;7e08e9d258f0 -->
<g id="edge2" class="edge"><title>Orf3a&#45;&gt;pr_cc6fa52c&#45;bcc5&#45;4f9d&#45;9ee8&#45;7e08e9d258f0</title>
<path fill="none" stroke="black" d="M338.5,-1110.08C341.109,-1101.5 344.475,-1090.44 347.939,-1079.05"/>
<polygon fill="black" stroke="black" points="351.296,-1080.04 350.858,-1069.46 344.599,-1078.01 351.296,-1080.04"/>
</g>
<!-- NLRP3 -->
<g id="node4" class="node"><title>NLRP3</title>
<ellipse fill="none" stroke="black" cx="247.5" cy="-907.312" rx="18" ry="18"/>
<text text-anchor="middle" x="247.5" y="-906.112" font-family="Times,serif" font-size="4.00">NLRP3</text>
</g>
<!-- pr_e7bd89d8&#45;5293&#45;4bda&#45;a23e&#45;2bd3bb032eba&#45;&gt;NLRP3 -->
<g id="edge3" class="edge"><title>pr_e7bd89d8&#45;5293&#45;4bda&#45;a23e&#45;2bd3bb032eba&#45;&gt;NLRP3</title>
<path fill="none" stroke="black" d="M247.5,-969.665C247.5,-957.925 247.5,-945.832 247.5,-935.519"/>
<polygon fill="black" stroke="black" points="251,-935.504 247.5,-925.504 244,-935.504 251,-935.504"/>
</g>
<!-- TRAF3 -->
<g id="node3" class="node"><title>TRAF3</title>
<ellipse fill="none" stroke="black" cx="482.5" cy="-1127.51" rx="18" ry="18"/>
<text text-anchor="middle" x="482.5" y="-1126.31" font-family="Times,serif" font-size="4.00">TRAF3</text>
</g>
<!-- TRAF3&#45;&gt;pr_e7bd89d8&#45;5293&#45;4bda&#45;a23e&#45;2bd3bb032eba -->
<g id="edge4" class="edge"><title>TRAF3&#45;&gt;pr_e7bd89d8&#45;5293&#45;4bda&#45;a23e&#45;2bd3bb032eba</title>
<path fill="none" stroke="black" d="M464.981,-1123.25C432.441,-1116.71 361.113,-1100.04 307.5,-1070.83 307.307,-1070.72 307.115,-1070.62 306.922,-1070.51"/>
<polygon fill="black" stroke="black" points="308.677,-1067.48 298.303,-1065.33 305.072,-1073.48 308.677,-1067.48"/>
</g>
<!-- pr_07021d14&#45;c0b9&#45;4cb1&#45;872b&#45;0bf40293008b -->
<g id="node52" class="node"><title>pr_07021d14&#45;c0b9&#45;4cb1&#45;872b&#45;0bf40293008b</title>
<polygon fill="none" stroke="black" points="532.5,-1070.33 432.5,-1070.33 432.5,-970.329 532.5,-970.329 532.5,-1070.33"/>
<text text-anchor="middle" x="482.5" y="-1019.13" font-family="Times,serif" font-size="4.00">pr_07021d14&#45;c0b9&#45;4cb1&#45;872b&#45;0bf40293008b</text>
</g>
<!-- TRAF3&#45;&gt;pr_07021d14&#45;c0b9&#45;4cb1&#45;872b&#45;0bf40293008b -->
<g id="edge5" class="edge"><title>TRAF3&#45;&gt;pr_07021d14&#45;c0b9&#45;4cb1&#45;872b&#45;0bf40293008b</title>
<path fill="none" stroke="black" d="M477.438,-1110.08C476.499,-1101.85 475.952,-1091.33 475.796,-1080.44"/>
<polygon fill="black" stroke="black" points="479.296,-1080.37 475.764,-1070.38 472.296,-1080.39 479.296,-1080.37"/>
</g>
<!-- pr_8c38def7&#45;e977&#45;409a&#45;bfbf&#45;fb2b191516b9 -->
<g id="node8" class="node"><title>pr_8c38def7&#45;e977&#45;409a&#45;bfbf&#45;fb2b191516b9</title>
<polygon fill="none" stroke="black" points="296.5,-843.296 198.5,-843.296 198.5,-745.296 296.5,-745.296 296.5,-843.296"/>
<text text-anchor="middle" x="247.5" y="-793.096" font-family="Times,serif" font-size="4.00">pr_8c38def7&#45;e977&#45;409a&#45;bfbf&#45;fb2b191516b9</text>
</g>
<!-- NLRP3&#45;&gt;pr_8c38def7&#45;e977&#45;409a&#45;bfbf&#45;fb2b191516b9 -->
<g id="edge6" class="edge"><title>NLRP3&#45;&gt;pr_8c38def7&#45;e977&#45;409a&#45;bfbf&#45;fb2b191516b9</title>
<path fill="none" stroke="black" d="M247.5,-888.966C247.5,-879.342 247.5,-866.752 247.5,-853.938"/>
<polygon fill="black" stroke="black" points="251,-853.666 247.5,-843.666 244,-853.666 251,-853.666"/>
</g>
<!-- ASC/CASP1 -->
<g id="node5" class="node"><title>ASC/CASP1</title>
<ellipse fill="none" stroke="black" cx="179.5" cy="-1127.51" rx="20.8674" ry="20.8674"/>
<text text-anchor="middle" x="179.5" y="-1126.31" font-family="Times,serif" font-size="4.00">ASC/CASP1</text>
</g>
<!-- ASC/CASP1&#45;&gt;pr_e7bd89d8&#45;5293&#45;4bda&#45;a23e&#45;2bd3bb032eba -->
<g id="edge7" class="edge"><title>ASC/CASP1&#45;&gt;pr_e7bd89d8&#45;5293&#45;4bda&#45;a23e&#45;2bd3bb032eba</title>
<path fill="none" stroke="black" d="M190.425,-1109.61C195.87,-1101.19 202.81,-1090.46 209.961,-1079.39"/>
<polygon fill="black" stroke="black" points="212.959,-1081.2 215.449,-1070.91 207.081,-1077.4 212.959,-1081.2"/>
</g>
<!-- ASC/CASP1&#45;&gt;pr_8c38def7&#45;e977&#45;409a&#45;bfbf&#45;fb2b191516b9 -->
<g id="edge8" class="edge"><title>ASC/CASP1&#45;&gt;pr_8c38def7&#45;e977&#45;409a&#45;bfbf&#45;fb2b191516b9</title>
<path fill="none" stroke="black" d="M178.747,-1106.51C178.015,-1076.51 178.138,-1018.23 187.5,-969.829 195.226,-929.887 210.047,-886.633 223.025,-853.177"/>
<polygon fill="black" stroke="black" points="226.401,-854.156 226.806,-843.569 219.887,-851.592 226.401,-854.156"/>
</g>
<!-- P65/P015 -->
<g id="node6" class="node"><title>P65/P015</title>
<ellipse fill="none" stroke="black" cx="86.5" cy="-1127.51" rx="18.0625" ry="18.0625"/>
<text text-anchor="middle" x="86.5" y="-1126.31" font-family="Times,serif" font-size="4.00">P65/P015</text>
</g>
<!-- P65/P015&#45;&gt;pr_e7bd89d8&#45;5293&#45;4bda&#45;a23e&#45;2bd3bb032eba -->
<g id="edge9" class="edge"><title>P65/P015&#45;&gt;pr_e7bd89d8&#45;5293&#45;4bda&#45;a23e&#45;2bd3bb032eba</title>
<path fill="none" stroke="black" d="M101.358,-1116.8C120.997,-1103.97 156.764,-1080.61 187.997,-1060.2"/>
<polygon fill="black" stroke="black" points="190.212,-1062.94 196.669,-1054.54 186.383,-1057.08 190.212,-1062.94"/>
</g>
<!-- pr_c0a5e3c1&#45;8ca8&#45;4537&#45;8dae&#45;c6b28eb92617 -->
<g id="node10" class="node"><title>pr_c0a5e3c1&#45;8ca8&#45;4537&#45;8dae&#45;c6b28eb92617</title>
<polygon fill="none" stroke="black" points="101,-1070.83 0,-1070.83 0,-969.829 101,-969.829 101,-1070.83"/>
<text text-anchor="middle" x="50.5" y="-1019.13" font-family="Times,serif" font-size="4.00">pr_c0a5e3c1&#45;8ca8&#45;4537&#45;8dae&#45;c6b28eb92617</text>
</g>
<!-- P65/P015&#45;&gt;pr_c0a5e3c1&#45;8ca8&#45;4537&#45;8dae&#45;c6b28eb92617 -->
<g id="edge10" class="edge"><title>P65/P015&#45;&gt;pr_c0a5e3c1&#45;8ca8&#45;4537&#45;8dae&#45;c6b28eb92617</title>
<path fill="none" stroke="black" d="M76.6494,-1111.89C72.7203,-1103.51 68.2924,-1092.38 64.153,-1080.79"/>
<polygon fill="black" stroke="black" points="67.3428,-1079.31 60.761,-1071 60.7287,-1081.6 67.3428,-1079.31"/>
</g>
<!-- pr_3a380c39&#45;1656&#45;4a39&#45;9729&#45;9b20ebdbe0c0 -->
<g id="node28" class="node"><title>pr_3a380c39&#45;1656&#45;4a39&#45;9729&#45;9b20ebdbe0c0</title>
<polygon fill="none" stroke="black" points="180,-844.796 79,-844.796 79,-743.796 180,-743.796 180,-844.796"/>
<text text-anchor="middle" x="129.5" y="-793.096" font-family="Times,serif" font-size="4.00">pr_3a380c39&#45;1656&#45;4a39&#45;9729&#45;9b20ebdbe0c0</text>
</g>
<!-- P65/P015&#45;&gt;pr_3a380c39&#45;1656&#45;4a39&#45;9729&#45;9b20ebdbe0c0 -->
<g id="edge11" class="edge"><title>P65/P015&#45;&gt;pr_3a380c39&#45;1656&#45;4a39&#45;9729&#45;9b20ebdbe0c0</title>
<path fill="none" stroke="black" d="M94.539,-1110.88C99.7559,-1099.96 106.18,-1084.88 109.5,-1070.83 126.713,-997.997 130.373,-911.585 130.607,-855.206"/>
<polygon fill="black" stroke="black" points="134.107,-855.04 130.613,-845.038 127.107,-855.036 134.107,-855.04"/>
</g>
<!-- ORF8b -->
<g id="node7" class="node"><title>ORF8b</title>
<ellipse fill="none" stroke="black" cx="247.5" cy="-1127.51" rx="18" ry="18"/>
<text text-anchor="middle" x="247.5" y="-1126.31" font-family="Times,serif" font-size="4.00">ORF8b</text>
</g>
<!-- ORF8b&#45;&gt;pr_e7bd89d8&#45;5293&#45;4bda&#45;a23e&#45;2bd3bb032eba -->
<g id="edge12" class="edge"><title>ORF8b&#45;&gt;pr_e7bd89d8&#45;5293&#45;4bda&#45;a23e&#45;2bd3bb032eba</title>
<path fill="none" stroke="black" d="M247.5,-1109.14C247.5,-1101.27 247.5,-1091.44 247.5,-1081.23"/>
<polygon fill="black" stroke="black" points="251,-1080.97 247.5,-1070.97 244,-1080.97 251,-1080.97"/>
</g>
<!-- CASP1 -->
<g id="node9" class="node"><title>CASP1</title>
<ellipse fill="none" stroke="black" cx="228.5" cy="-681.279" rx="18" ry="18"/>
<text text-anchor="middle" x="228.5" y="-680.079" font-family="Times,serif" font-size="4.00">CASP1</text>
</g>
<!-- pr_8c38def7&#45;e977&#45;409a&#45;bfbf&#45;fb2b191516b9&#45;&gt;CASP1 -->
<g id="edge13" class="edge"><title>pr_8c38def7&#45;e977&#45;409a&#45;bfbf&#45;fb2b191516b9&#45;&gt;CASP1</title>
<path fill="none" stroke="black" d="M239.277,-745.248C237.171,-732.942 234.979,-720.137 233.127,-709.314"/>
<polygon fill="black" stroke="black" points="236.54,-708.508 231.403,-699.242 229.64,-709.689 236.54,-708.508"/>
</g>
<!-- pr_0178de12&#45;4e51&#45;44e1&#45;8806&#45;aab28c154bb4 -->
<g id="node24" class="node"><title>pr_0178de12&#45;4e51&#45;44e1&#45;8806&#45;aab28c154bb4</title>
<polygon fill="none" stroke="black" points="278,-618.763 177,-618.763 177,-517.763 278,-517.763 278,-618.763"/>
<text text-anchor="middle" x="227.5" y="-567.063" font-family="Times,serif" font-size="4.00">pr_0178de12&#45;4e51&#45;44e1&#45;8806&#45;aab28c154bb4</text>
</g>
<!-- CASP1&#45;&gt;pr_0178de12&#45;4e51&#45;44e1&#45;8806&#45;aab28c154bb4 -->
<g id="edge14" class="edge"><title>CASP1&#45;&gt;pr_0178de12&#45;4e51&#45;44e1&#45;8806&#45;aab28c154bb4</title>
<path fill="none" stroke="black" d="M228.344,-662.933C228.26,-653.69 228.153,-641.711 228.042,-629.426"/>
<polygon fill="black" stroke="black" points="231.539,-629.056 227.949,-619.088 224.539,-629.119 231.539,-629.056"/>
</g>
<!-- pr_c0a5e3c1&#45;8ca8&#45;4537&#45;8dae&#45;c6b28eb92617&#45;&gt;P65/P015 -->
<g id="edge15" class="edge"><title>pr_c0a5e3c1&#45;8ca8&#45;4537&#45;8dae&#45;c6b28eb92617&#45;&gt;P65/P015</title>
<path fill="none" stroke="black" d="M74.2292,-1070.97C77.6261,-1080.71 80.7597,-1090.59 83.1705,-1099.26"/>
<polygon fill="black" stroke="black" points="79.8341,-1100.33 85.7217,-1109.14 86.6121,-1098.59 79.8341,-1100.33"/>
</g>
<!-- LPS/TLR4/MYD88 -->
<g id="node11" class="node"><title>LPS/TLR4/MYD88</title>
<ellipse fill="none" stroke="black" cx="502.5" cy="-907.312" rx="26.533" ry="26.533"/>
<text text-anchor="middle" x="502.5" y="-906.112" font-family="Times,serif" font-size="4.00">LPS/TLR4/MYD88</text>
</g>
<!-- pr_3f3718ce&#45;f997&#45;4a24&#45;8dd7&#45;38c01bedad49 -->
<g id="node12" class="node"><title>pr_3f3718ce&#45;f997&#45;4a24&#45;8dd7&#45;38c01bedad49</title>
<polygon fill="none" stroke="black" points="552,-843.796 453,-843.796 453,-744.796 552,-744.796 552,-843.796"/>
<text text-anchor="middle" x="502.5" y="-793.096" font-family="Times,serif" font-size="4.00">pr_3f3718ce&#45;f997&#45;4a24&#45;8dd7&#45;38c01bedad49</text>
</g>
<!-- LPS/TLR4/MYD88&#45;&gt;pr_3f3718ce&#45;f997&#45;4a24&#45;8dd7&#45;38c01bedad49 -->
<g id="edge16" class="edge"><title>LPS/TLR4/MYD88&#45;&gt;pr_3f3718ce&#45;f997&#45;4a24&#45;8dd7&#45;38c01bedad49</title>
<path fill="none" stroke="black" d="M502.5,-880.564C502.5,-872.567 502.5,-863.4 502.5,-854.11"/>
<polygon fill="black" stroke="black" points="506,-854.03 502.5,-844.03 499,-854.03 506,-854.03"/>
</g>
<!-- TRAF6 -->
<g id="node13" class="node"><title>TRAF6</title>
<ellipse fill="none" stroke="black" cx="563.5" cy="-681.279" rx="18" ry="18"/>
<text text-anchor="middle" x="563.5" y="-680.079" font-family="Times,serif" font-size="4.00">TRAF6</text>
</g>
<!-- pr_3f3718ce&#45;f997&#45;4a24&#45;8dd7&#45;38c01bedad49&#45;&gt;TRAF6 -->
<g id="edge17" class="edge"><title>pr_3f3718ce&#45;f997&#45;4a24&#45;8dd7&#45;38c01bedad49&#45;&gt;TRAF6</title>
<path fill="none" stroke="black" d="M529.255,-744.602C536.558,-731.312 544.152,-717.492 550.327,-706.254"/>
<polygon fill="black" stroke="black" points="553.395,-707.938 555.143,-697.488 547.26,-704.567 553.395,-707.938"/>
</g>
<!-- pr_0307aa85&#45;02c2&#45;4c92&#45;a660&#45;e925d7e4a4e4 -->
<g id="node41" class="node"><title>pr_0307aa85&#45;02c2&#45;4c92&#45;a660&#45;e925d7e4a4e4</title>
<polygon fill="none" stroke="black" points="669,-618.763 568,-618.763 568,-517.763 669,-517.763 669,-618.763"/>
<text text-anchor="middle" x="618.5" y="-567.063" font-family="Times,serif" font-size="4.00">pr_0307aa85&#45;02c2&#45;4c92&#45;a660&#45;e925d7e4a4e4</text>
</g>
<!-- TRAF6&#45;&gt;pr_0307aa85&#45;02c2&#45;4c92&#45;a660&#45;e925d7e4a4e4 -->
<g id="edge18" class="edge"><title>TRAF6&#45;&gt;pr_0307aa85&#45;02c2&#45;4c92&#45;a660&#45;e925d7e4a4e4</title>
<path fill="none" stroke="black" d="M566.844,-663.418C570.558,-653.759 576.302,-640.999 582.659,-628.002"/>
<polygon fill="black" stroke="black" points="585.816,-629.514 587.141,-619.002 579.55,-626.394 585.816,-629.514"/>
</g>
<!-- pr_5eeb930b&#45;9b2d&#45;4391&#45;9e45&#45;f37cd11e8b08 -->
<g id="node44" class="node"><title>pr_5eeb930b&#45;9b2d&#45;4391&#45;9e45&#45;f37cd11e8b08</title>
<polygon fill="none" stroke="black" points="549.5,-618.263 449.5,-618.263 449.5,-518.263 549.5,-518.263 549.5,-618.263"/>
<text text-anchor="middle" x="499.5" y="-567.063" font-family="Times,serif" font-size="4.00">pr_5eeb930b&#45;9b2d&#45;4391&#45;9e45&#45;f37cd11e8b08</text>
</g>
<!-- TRAF6&#45;&gt;pr_5eeb930b&#45;9b2d&#45;4391&#45;9e45&#45;f37cd11e8b08 -->
<g id="edge19" class="edge"><title>TRAF6&#45;&gt;pr_5eeb930b&#45;9b2d&#45;4391&#45;9e45&#45;f37cd11e8b08</title>
<path fill="none" stroke="black" d="M554.869,-665.307C549.105,-655.308 541.116,-641.452 532.999,-627.371"/>
<polygon fill="black" stroke="black" points="535.974,-625.523 527.947,-618.608 529.909,-629.019 535.974,-625.523"/>
</g>
<!-- TRIM59 -->
<g id="node14" class="node"><title>TRIM59</title>
<ellipse fill="none" stroke="black" cx="365.5" cy="-907.312" rx="18" ry="18"/>
<text text-anchor="middle" x="365.5" y="-906.112" font-family="Times,serif" font-size="4.00">TRIM59</text>
</g>
<!-- TRIM59&#45;&gt;pr_3f3718ce&#45;f997&#45;4a24&#45;8dd7&#45;38c01bedad49 -->
<g id="edge20" class="edge"><title>TRIM59&#45;&gt;pr_3f3718ce&#45;f997&#45;4a24&#45;8dd7&#45;38c01bedad49</title>
<path fill="none" stroke="black" d="M379.137,-895.262C394.588,-882.741 420.786,-861.511 445.076,-841.828"/>
<polygon fill="black" stroke="black" points="447.314,-844.52 452.879,-835.505 442.907,-839.082 447.314,-844.52"/>
</g>
<!-- TRIM59&#45;&gt;pr_cc6fa52c&#45;bcc5&#45;4f9d&#45;9ee8&#45;7e08e9d258f0 -->
<g id="edge21" class="edge"><title>TRIM59&#45;&gt;pr_cc6fa52c&#45;bcc5&#45;4f9d&#45;9ee8&#45;7e08e9d258f0</title>
<path fill="none" stroke="black" d="M370.462,-924.751C371.578,-934.579 372.171,-947.723 372.243,-961.078"/>
<polygon fill="black" stroke="black" points="368.742,-961.265 372.196,-971.281 375.742,-961.297 368.742,-961.265"/>
</g>
<!-- NFKBIA -->
<g id="node15" class="node"><title>NFKBIA</title>
<ellipse fill="none" stroke="black" cx="849.5" cy="-228.092" rx="18" ry="18"/>
<text text-anchor="middle" x="849.5" y="-226.892" font-family="Times,serif" font-size="4.00">NFKBIA</text>
</g>
<!-- pr_5d63aada&#45;43a2&#45;4cfc&#45;8d58&#45;ba257e08a5ab -->
<g id="node16" class="node"><title>pr_5d63aada&#45;43a2&#45;4cfc&#45;8d58&#45;ba257e08a5ab</title>
<polygon fill="none" stroke="black" points="899.5,-383.184 799.5,-383.184 799.5,-283.184 899.5,-283.184 899.5,-383.184"/>
<text text-anchor="middle" x="849.5" y="-331.984" font-family="Times,serif" font-size="4.00">pr_5d63aada&#45;43a2&#45;4cfc&#45;8d58&#45;ba257e08a5ab</text>
</g>
<!-- NFKBIA&#45;&gt;pr_5d63aada&#45;43a2&#45;4cfc&#45;8d58&#45;ba257e08a5ab -->
<g id="edge22" class="edge"><title>NFKBIA&#45;&gt;pr_5d63aada&#45;43a2&#45;4cfc&#45;8d58&#45;ba257e08a5ab</title>
<path fill="none" stroke="black" d="M854.613,-245.641C855.484,-253.309 856.007,-262.935 856.183,-272.957"/>
<polygon fill="black" stroke="black" points="852.683,-273.074 856.243,-283.053 859.683,-273.032 852.683,-273.074"/>
</g>
<!-- pr_d47037a8&#45;d30c&#45;49a4&#45;9348&#45;db7575bc0673 -->
<g id="node53" class="node"><title>pr_d47037a8&#45;d30c&#45;49a4&#45;9348&#45;db7575bc0673</title>
<polygon fill="none" stroke="black" points="900,-173 799,-173 799,-72 900,-72 900,-173"/>
<text text-anchor="middle" x="849.5" y="-121.3" font-family="Times,serif" font-size="4.00">pr_d47037a8&#45;d30c&#45;49a4&#45;9348&#45;db7575bc0673</text>
</g>
<!-- NFKBIA&#45;&gt;pr_d47037a8&#45;d30c&#45;49a4&#45;9348&#45;db7575bc0673 -->
<g id="edge23" class="edge"><title>NFKBIA&#45;&gt;pr_d47037a8&#45;d30c&#45;49a4&#45;9348&#45;db7575bc0673</title>
<path fill="none" stroke="black" d="M849.5,-209.986C849.5,-202.479 849.5,-193.174 849.5,-183.475"/>
<polygon fill="black" stroke="black" points="853,-183.286 849.5,-173.286 846,-183.286 853,-183.286"/>
</g>
<!-- pr_5d63aada&#45;43a2&#45;4cfc&#45;8d58&#45;ba257e08a5ab&#45;&gt;NFKBIA -->
<g id="edge24" class="edge"><title>pr_5d63aada&#45;43a2&#45;4cfc&#45;8d58&#45;ba257e08a5ab&#45;&gt;NFKBIA</title>
<path fill="none" stroke="black" d="M842.757,-283.053C842.705,-273.678 842.952,-264.196 843.498,-255.851"/>
<polygon fill="black" stroke="black" points="847.006,-255.907 844.387,-245.641 840.033,-255.3 847.006,-255.907"/>
</g>
<!-- B&#45;TrcP -->
<g id="node17" class="node"><title>B&#45;TrcP</title>
<ellipse fill="none" stroke="black" cx="881.5" cy="-450.473" rx="18" ry="18"/>
<text text-anchor="middle" x="881.5" y="-449.273" font-family="Times,serif" font-size="4.00">B&#45;TrcP</text>
</g>
<!-- B&#45;TrcP&#45;&gt;pr_5d63aada&#45;43a2&#45;4cfc&#45;8d58&#45;ba257e08a5ab -->
<g id="edge25" class="edge"><title>B&#45;TrcP&#45;&gt;pr_5d63aada&#45;43a2&#45;4cfc&#45;8d58&#45;ba257e08a5ab</title>
<path fill="none" stroke="black" d="M876.915,-432.955C873.981,-422.382 869.977,-407.957 865.936,-393.399"/>
<polygon fill="black" stroke="black" points="869.192,-392.044 863.145,-383.345 862.447,-393.916 869.192,-392.044"/>
</g>
<!-- NEMO/IKKA/IKKB -->
<g id="node18" class="node"><title>NEMO/IKKA/IKKB</title>
<ellipse fill="none" stroke="black" cx="817.5" cy="-450.473" rx="28.2154" ry="28.2154"/>
<text text-anchor="middle" x="817.5" y="-449.273" font-family="Times,serif" font-size="4.00">NEMO/IKKA/IKKB</text>
</g>
<!-- NEMO/IKKA/IKKB&#45;&gt;pr_5d63aada&#45;43a2&#45;4cfc&#45;8d58&#45;ba257e08a5ab -->
<g id="edge26" class="edge"><title>NEMO/IKKA/IKKB&#45;&gt;pr_5d63aada&#45;43a2&#45;4cfc&#45;8d58&#45;ba257e08a5ab</title>
<path fill="none" stroke="black" d="M824.761,-423.312C827.274,-414.258 830.202,-403.71 833.146,-393.103"/>
<polygon fill="black" stroke="black" points="836.541,-393.96 835.843,-383.388 829.796,-392.087 836.541,-393.96"/>
</g>
<!-- pr_325989ff&#45;d810&#45;4252&#45;b91c&#45;7f9149a75e0d -->
<g id="node46" class="node"><title>pr_325989ff&#45;d810&#45;4252&#45;b91c&#45;7f9149a75e0d</title>
<polygon fill="none" stroke="black" points="710.5,-382.184 612.5,-382.184 612.5,-284.184 710.5,-284.184 710.5,-382.184"/>
<text text-anchor="middle" x="661.5" y="-331.984" font-family="Times,serif" font-size="4.00">pr_325989ff&#45;d810&#45;4252&#45;b91c&#45;7f9149a75e0d</text>
</g>
<!-- NEMO/IKKA/IKKB&#45;&gt;pr_325989ff&#45;d810&#45;4252&#45;b91c&#45;7f9149a75e0d -->
<g id="edge27" class="edge"><title>NEMO/IKKA/IKKB&#45;&gt;pr_325989ff&#45;d810&#45;4252&#45;b91c&#45;7f9149a75e0d</title>
<path fill="none" stroke="black" d="M796.17,-431.613C791.086,-427.467 785.643,-423.119 780.5,-419.184 760.74,-404.064 738.67,-388.064 718.954,-374.074"/>
<polygon fill="black" stroke="black" points="720.847,-371.126 710.662,-368.209 716.805,-376.841 720.847,-371.126"/>
</g>
<!-- LPS/TNF α/IL&#45;1 -->
<g id="node19" class="node"><title>LPS/TNF α/IL&#45;1</title>
<ellipse fill="none" stroke="black" cx="345.5" cy="-681.279" rx="23.7305" ry="23.7305"/>
<text text-anchor="middle" x="345.5" y="-680.079" font-family="Times,serif" font-size="4.00">LPS/TNF α/IL&#45;1</text>
</g>
<!-- pr_9610fea4&#45;f465&#45;47b5&#45;95cb&#45;2e03631a88f9 -->
<g id="node20" class="node"><title>pr_9610fea4&#45;f465&#45;47b5&#45;95cb&#45;2e03631a88f9</title>
<polygon fill="none" stroke="black" points="394.5,-617.263 296.5,-617.263 296.5,-519.263 394.5,-519.263 394.5,-617.263"/>
<text text-anchor="middle" x="345.5" y="-567.063" font-family="Times,serif" font-size="4.00">pr_9610fea4&#45;f465&#45;47b5&#45;95cb&#45;2e03631a88f9</text>
</g>
<!-- LPS/TNF α/IL&#45;1&#45;&gt;pr_9610fea4&#45;f465&#45;47b5&#45;95cb&#45;2e03631a88f9 -->
<g id="edge28" class="edge"><title>LPS/TNF α/IL&#45;1&#45;&gt;pr_9610fea4&#45;f465&#45;47b5&#45;95cb&#45;2e03631a88f9</title>
<path fill="none" stroke="black" d="M345.5,-657.277C345.5,-648.517 345.5,-638.09 345.5,-627.53"/>
<polygon fill="black" stroke="black" points="349,-627.414 345.5,-617.414 342,-627.414 349,-627.414"/>
</g>
<!-- IKBKG/IKBKB/CHUK -->
<g id="node22" class="node"><title>IKBKG/IKBKB/CHUK</title>
<ellipse fill="none" stroke="black" cx="345.5" cy="-450.473" rx="31.0804" ry="31.0804"/>
<text text-anchor="middle" x="345.5" y="-449.273" font-family="Times,serif" font-size="4.00">IKBKG/IKBKB/CHUK</text>
</g>
<!-- pr_9610fea4&#45;f465&#45;47b5&#45;95cb&#45;2e03631a88f9&#45;&gt;IKBKG/IKBKB/CHUK -->
<g id="edge29" class="edge"><title>pr_9610fea4&#45;f465&#45;47b5&#45;95cb&#45;2e03631a88f9&#45;&gt;IKBKG/IKBKB/CHUK</title>
<path fill="none" stroke="black" d="M345.5,-519.163C345.5,-510.24 345.5,-500.997 345.5,-492.316"/>
<polygon fill="black" stroke="black" points="349,-492.065 345.5,-482.065 342,-492.065 349,-492.065"/>
</g>
<!-- E -->
<g id="node21" class="node"><title>E</title>
<ellipse fill="none" stroke="black" cx="283.5" cy="-681.279" rx="18" ry="18"/>
<text text-anchor="middle" x="283.5" y="-680.079" font-family="Times,serif" font-size="4.00">E</text>
</g>
<!-- E&#45;&gt;pr_9610fea4&#45;f465&#45;47b5&#45;95cb&#45;2e03631a88f9 -->
<g id="edge30" class="edge"><title>E&#45;&gt;pr_9610fea4&#45;f465&#45;47b5&#45;95cb&#45;2e03631a88f9</title>
<path fill="none" stroke="black" d="M291.862,-665.307C297.555,-655.112 305.489,-640.907 313.511,-626.543"/>
<polygon fill="black" stroke="black" points="316.677,-628.05 318.498,-617.613 310.566,-624.637 316.677,-628.05"/>
</g>
<!-- E&#45;&gt;pr_0178de12&#45;4e51&#45;44e1&#45;8806&#45;aab28c154bb4 -->
<g id="edge31" class="edge"><title>E&#45;&gt;pr_0178de12&#45;4e51&#45;44e1&#45;8806&#45;aab28c154bb4</title>
<path fill="none" stroke="black" d="M275.713,-664.843C270.783,-655.068 264.062,-641.744 257.204,-628.148"/>
<polygon fill="black" stroke="black" points="260.323,-626.562 252.695,-619.209 254.073,-629.714 260.323,-626.562"/>
</g>
<!-- Pro_IL1b -->
<g id="node23" class="node"><title>Pro_IL1b</title>
<ellipse fill="none" stroke="black" cx="227.5" cy="-450.473" rx="18" ry="18"/>
<text text-anchor="middle" x="227.5" y="-449.273" font-family="Times,serif" font-size="4.00">Pro_IL1b</text>
</g>
<!-- Pro_IL1b&#45;&gt;pr_0178de12&#45;4e51&#45;44e1&#45;8806&#45;aab28c154bb4 -->
<g id="edge32" class="edge"><title>Pro_IL1b&#45;&gt;pr_0178de12&#45;4e51&#45;44e1&#45;8806&#45;aab28c154bb4</title>
<path fill="none" stroke="black" d="M232.384,-467.917C233.575,-478.46 234.196,-492.859 234.247,-507.422"/>
<polygon fill="black" stroke="black" points="230.746,-507.466 234.191,-517.486 237.746,-507.505 230.746,-507.466"/>
</g>
<!-- pr_0178de12&#45;4e51&#45;44e1&#45;8806&#45;aab28c154bb4&#45;&gt;Pro_IL1b -->
<g id="edge33" class="edge"><title>pr_0178de12&#45;4e51&#45;44e1&#45;8806&#45;aab28c154bb4&#45;&gt;Pro_IL1b</title>
<path fill="none" stroke="black" d="M220.809,-517.486C220.609,-503.876 220.915,-489.656 221.728,-477.915"/>
<polygon fill="black" stroke="black" points="225.217,-478.188 222.616,-467.917 218.244,-477.568 225.217,-478.188"/>
</g>
<!-- SERPINF2 -->
<g id="node25" class="node"><title>SERPINF2</title>
<ellipse fill="none" stroke="black" cx="499.5" cy="-228.092" rx="19.1842" ry="19.1842"/>
<text text-anchor="middle" x="499.5" y="-226.892" font-family="Times,serif" font-size="4.00">SERPINF2</text>
</g>
<!-- pr_0a3aa88f&#45;9860&#45;412f&#45;bbb1&#45;bbbea9a14b32 -->
<g id="node26" class="node"><title>pr_0a3aa88f&#45;9860&#45;412f&#45;bbb1&#45;bbbea9a14b32</title>
<polygon fill="none" stroke="black" points="549,-172 450,-172 450,-73 549,-73 549,-172"/>
<text text-anchor="middle" x="499.5" y="-121.3" font-family="Times,serif" font-size="4.00">pr_0a3aa88f&#45;9860&#45;412f&#45;bbb1&#45;bbbea9a14b32</text>
</g>
<!-- SERPINF2&#45;&gt;pr_0a3aa88f&#45;9860&#45;412f&#45;bbb1&#45;bbbea9a14b32 -->
<g id="edge34" class="edge"><title>SERPINF2&#45;&gt;pr_0a3aa88f&#45;9860&#45;412f&#45;bbb1&#45;bbbea9a14b32</title>
<path fill="none" stroke="black" d="M499.5,-208.572C499.5,-200.97 499.5,-191.709 499.5,-182.132"/>
<polygon fill="black" stroke="black" points="503,-182.092 499.5,-172.092 496,-182.092 503,-182.092"/>
</g>
<!-- pr_0e16ecb7&#45;24f4&#45;4228&#45;b47a&#45;bb150b63517a -->
<g id="node51" class="node"><title>pr_0e16ecb7&#45;24f4&#45;4228&#45;b47a&#45;bb150b63517a</title>
<polygon fill="none" stroke="black" points="549.5,-383.184 449.5,-383.184 449.5,-283.184 549.5,-283.184 549.5,-383.184"/>
<text text-anchor="middle" x="499.5" y="-331.984" font-family="Times,serif" font-size="4.00">pr_0e16ecb7&#45;24f4&#45;4228&#45;b47a&#45;bb150b63517a</text>
</g>
<!-- SERPINF2&#45;&gt;pr_0e16ecb7&#45;24f4&#45;4228&#45;b47a&#45;bb150b63517a -->
<g id="edge35" class="edge"><title>SERPINF2&#45;&gt;pr_0e16ecb7&#45;24f4&#45;4228&#45;b47a&#45;bb150b63517a</title>
<path fill="none" stroke="black" d="M504.719,-246.595C505.526,-254.101 506.014,-263.349 506.183,-272.962"/>
<polygon fill="black" stroke="black" points="502.684,-273.074 506.243,-283.053 509.683,-273.032 502.684,-273.074"/>
</g>
<!-- IFNB1 -->
<g id="node27" class="node"><title>IFNB1</title>
<ellipse fill="none" stroke="black" cx="499.5" cy="-18" rx="18" ry="18"/>
<text text-anchor="middle" x="499.5" y="-16.8" font-family="Times,serif" font-size="4.00">IFNB1</text>
</g>
<!-- pr_0a3aa88f&#45;9860&#45;412f&#45;bbb1&#45;bbbea9a14b32&#45;&gt;IFNB1 -->
<g id="edge36" class="edge"><title>pr_0a3aa88f&#45;9860&#45;412f&#45;bbb1&#45;bbbea9a14b32&#45;&gt;IFNB1</title>
<path fill="none" stroke="black" d="M499.5,-72.9515C499.5,-63.741 499.5,-54.4139 499.5,-46.1644"/>
<polygon fill="black" stroke="black" points="503,-46.0408 499.5,-36.0409 496,-46.0409 503,-46.0408"/>
</g>
<!-- pr_3a380c39&#45;1656&#45;4a39&#45;9729&#45;9b20ebdbe0c0&#45;&gt;Pro_IL1b -->
<g id="edge37" class="edge"><title>pr_3a380c39&#45;1656&#45;4a39&#45;9729&#45;9b20ebdbe0c0&#45;&gt;Pro_IL1b</title>
<path fill="none" stroke="black" d="M127.728,-743.558C127.597,-686.403 133.317,-591.067 167.5,-517.763 176.355,-498.773 192.554,-481.379 205.89,-469.177"/>
<polygon fill="black" stroke="black" points="208.532,-471.514 213.732,-462.283 203.91,-466.257 208.532,-471.514"/>
</g>
<!-- TLR3 -->
<g id="node29" class="node"><title>TLR3</title>
<ellipse fill="none" stroke="black" cx="738.5" cy="-1127.51" rx="18" ry="18"/>
<text text-anchor="middle" x="738.5" y="-1126.31" font-family="Times,serif" font-size="4.00">TLR3</text>
</g>
<!-- pr_64acdcb0&#45;47cd&#45;4510&#45;80df&#45;15562f03da48 -->
<g id="node30" class="node"><title>pr_64acdcb0&#45;47cd&#45;4510&#45;80df&#45;15562f03da48</title>
<polygon fill="none" stroke="black" points="806,-1069.83 707,-1069.83 707,-970.829 806,-970.829 806,-1069.83"/>
<text text-anchor="middle" x="756.5" y="-1019.13" font-family="Times,serif" font-size="4.00">pr_64acdcb0&#45;47cd&#45;4510&#45;80df&#45;15562f03da48</text>
</g>
<!-- TLR3&#45;&gt;pr_64acdcb0&#45;47cd&#45;4510&#45;80df&#45;15562f03da48 -->
<g id="edge38" class="edge"><title>TLR3&#45;&gt;pr_64acdcb0&#45;47cd&#45;4510&#45;80df&#45;15562f03da48</title>
<path fill="none" stroke="black" d="M736.277,-1109.61C736.773,-1101.34 738.038,-1090.84 739.751,-1079.99"/>
<polygon fill="black" stroke="black" points="743.227,-1080.43 741.44,-1069.99 736.324,-1079.27 743.227,-1080.43"/>
</g>
<!-- pr_c51af124&#45;78c3&#45;4d58&#45;8631&#45;0c5ec8dd67c3 -->
<g id="node33" class="node"><title>pr_c51af124&#45;78c3&#45;4d58&#45;8631&#45;0c5ec8dd67c3</title>
<polygon fill="none" stroke="black" points="650.5,-1070.33 550.5,-1070.33 550.5,-970.329 650.5,-970.329 650.5,-1070.33"/>
<text text-anchor="middle" x="600.5" y="-1019.13" font-family="Times,serif" font-size="4.00">pr_c51af124&#45;78c3&#45;4d58&#45;8631&#45;0c5ec8dd67c3</text>
</g>
<!-- TLR3&#45;&gt;pr_c51af124&#45;78c3&#45;4d58&#45;8631&#45;0c5ec8dd67c3 -->
<g id="edge39" class="edge"><title>TLR3&#45;&gt;pr_c51af124&#45;78c3&#45;4d58&#45;8631&#45;0c5ec8dd67c3</title>
<path fill="none" stroke="black" d="M724.508,-1115.85C708.994,-1104.02 682.952,-1084.17 658.727,-1065.71"/>
<polygon fill="black" stroke="black" points="660.674,-1062.79 650.599,-1059.51 656.43,-1068.36 660.674,-1062.79"/>
</g>
<!-- pr_64acdcb0&#45;47cd&#45;4510&#45;80df&#45;15562f03da48&#45;&gt;TLR3 -->
<g id="edge40" class="edge"><title>pr_64acdcb0&#45;47cd&#45;4510&#45;80df&#45;15562f03da48&#45;&gt;TLR3</title>
<path fill="none" stroke="black" d="M754.867,-1070.23C753.118,-1080.95 750.958,-1091.88 748.695,-1101.22"/>
<polygon fill="black" stroke="black" points="745.283,-1100.43 746.111,-1110.99 752.051,-1102.22 745.283,-1100.43"/>
</g>
<!-- dsRNA -->
<g id="node31" class="node"><title>dsRNA</title>
<ellipse fill="none" stroke="black" cx="792.5" cy="-1127.51" rx="18" ry="18"/>
<text text-anchor="middle" x="792.5" y="-1126.31" font-family="Times,serif" font-size="4.00">dsRNA</text>
</g>
<!-- dsRNA&#45;&gt;pr_64acdcb0&#45;47cd&#45;4510&#45;80df&#45;15562f03da48 -->
<g id="edge41" class="edge"><title>dsRNA&#45;&gt;pr_64acdcb0&#45;47cd&#45;4510&#45;80df&#45;15562f03da48</title>
<path fill="none" stroke="black" d="M786.875,-1110.08C783.97,-1101.59 780.233,-1090.67 776.379,-1079.41"/>
<polygon fill="black" stroke="black" points="779.68,-1078.25 773.13,-1069.92 773.057,-1080.51 779.68,-1078.25"/>
</g>
<!-- TICAM1 -->
<g id="node32" class="node"><title>TICAM1</title>
<ellipse fill="none" stroke="black" cx="600.5" cy="-1127.51" rx="18" ry="18"/>
<text text-anchor="middle" x="600.5" y="-1126.31" font-family="Times,serif" font-size="4.00">TICAM1</text>
</g>
<!-- TICAM1&#45;&gt;pr_c51af124&#45;78c3&#45;4d58&#45;8631&#45;0c5ec8dd67c3 -->
<g id="edge42" class="edge"><title>TICAM1&#45;&gt;pr_c51af124&#45;78c3&#45;4d58&#45;8631&#45;0c5ec8dd67c3</title>
<path fill="none" stroke="black" d="M595.438,-1110.08C594.499,-1101.85 593.952,-1091.33 593.796,-1080.44"/>
<polygon fill="black" stroke="black" points="597.296,-1080.37 593.764,-1070.38 590.296,-1080.39 597.296,-1080.37"/>
</g>
<!-- TICAM1&#45;&gt;pr_07021d14&#45;c0b9&#45;4cb1&#45;872b&#45;0bf40293008b -->
<g id="edge43" class="edge"><title>TICAM1&#45;&gt;pr_07021d14&#45;c0b9&#45;4cb1&#45;872b&#45;0bf40293008b</title>
<path fill="none" stroke="black" d="M587.421,-1114.85C575.765,-1104.46 557.851,-1088.5 540.105,-1072.68"/>
<polygon fill="black" stroke="black" points="542.323,-1069.97 532.529,-1065.92 537.665,-1075.19 542.323,-1069.97"/>
</g>
<!-- pr_c51af124&#45;78c3&#45;4d58&#45;8631&#45;0c5ec8dd67c3&#45;&gt;TICAM1 -->
<g id="edge44" class="edge"><title>pr_c51af124&#45;78c3&#45;4d58&#45;8631&#45;0c5ec8dd67c3&#45;&gt;TICAM1</title>
<path fill="none" stroke="black" d="M607.236,-1070.38C607.315,-1080.55 607.055,-1090.89 606.458,-1099.88"/>
<polygon fill="black" stroke="black" points="602.951,-1099.81 605.562,-1110.08 609.924,-1100.42 602.951,-1099.81"/>
</g>
<!-- TRIM38 -->
<g id="node34" class="node"><title>TRIM38</title>
<ellipse fill="none" stroke="black" cx="666.5" cy="-1127.51" rx="18" ry="18"/>
<text text-anchor="middle" x="666.5" y="-1126.31" font-family="Times,serif" font-size="4.00">TRIM38</text>
</g>
<!-- TRIM38&#45;&gt;pr_c51af124&#45;78c3&#45;4d58&#45;8631&#45;0c5ec8dd67c3 -->
<g id="edge45" class="edge"><title>TRIM38&#45;&gt;pr_c51af124&#45;78c3&#45;4d58&#45;8631&#45;0c5ec8dd67c3</title>
<path fill="none" stroke="black" d="M657.323,-1111.89C651.797,-1103.08 644.364,-1091.23 636.698,-1079.02"/>
<polygon fill="black" stroke="black" points="639.654,-1077.14 631.374,-1070.53 633.725,-1080.86 639.654,-1077.14"/>
</g>
<!-- TRIM38&#45;&gt;pr_0307aa85&#45;02c2&#45;4c92&#45;a660&#45;e925d7e4a4e4 -->
<g id="edge46" class="edge"><title>TRIM38&#45;&gt;pr_0307aa85&#45;02c2&#45;4c92&#45;a660&#45;e925d7e4a4e4</title>
<path fill="none" stroke="black" d="M668.069,-1109.55C671.322,-1072.88 678.5,-983.432 678.5,-908.312 678.5,-908.312 678.5,-908.312 678.5,-793.296 678.5,-735.901 659.898,-672.965 643.41,-628.452"/>
<polygon fill="black" stroke="black" points="646.632,-627.078 639.823,-618.961 640.084,-629.552 646.632,-627.078"/>
</g>
<!-- pr_cc6fa52c&#45;bcc5&#45;4f9d&#45;9ee8&#45;7e08e9d258f0&#45;&gt;TRIM59 -->
<g id="edge47" class="edge"><title>pr_cc6fa52c&#45;bcc5&#45;4f9d&#45;9ee8&#45;7e08e9d258f0&#45;&gt;TRIM59</title>
<path fill="none" stroke="black" d="M358.804,-971.281C358.621,-958.799 358.9,-945.805 359.642,-934.884"/>
<polygon fill="black" stroke="black" points="363.144,-935.02 360.538,-924.751 356.171,-934.404 363.144,-935.02"/>
</g>
<!-- TLR7/8/9 -->
<g id="node36" class="node"><title>TLR7/8/9</title>
<ellipse fill="none" stroke="black" cx="829.5" cy="-681.279" rx="18.0625" ry="18.0625"/>
<text text-anchor="middle" x="829.5" y="-680.079" font-family="Times,serif" font-size="4.00">TLR7/8/9</text>
</g>
<!-- pr_2ab770f9&#45;1c26&#45;4ea4&#45;b3ee&#45;84dc7e2b92b6 -->
<g id="node37" class="node"><title>pr_2ab770f9&#45;1c26&#45;4ea4&#45;b3ee&#45;84dc7e2b92b6</title>
<polygon fill="none" stroke="black" points="906.5,-618.263 806.5,-618.263 806.5,-518.263 906.5,-518.263 906.5,-618.263"/>
<text text-anchor="middle" x="856.5" y="-567.063" font-family="Times,serif" font-size="4.00">pr_2ab770f9&#45;1c26&#45;4ea4&#45;b3ee&#45;84dc7e2b92b6</text>
</g>
<!-- TLR7/8/9&#45;&gt;pr_2ab770f9&#45;1c26&#45;4ea4&#45;b3ee&#45;84dc7e2b92b6 -->
<g id="edge48" class="edge"><title>TLR7/8/9&#45;&gt;pr_2ab770f9&#45;1c26&#45;4ea4&#45;b3ee&#45;84dc7e2b92b6</title>
<path fill="none" stroke="black" d="M828.656,-662.933C829.931,-653.501 832.36,-641.221 835.316,-628.674"/>
<polygon fill="black" stroke="black" points="838.803,-629.149 837.787,-618.603 832.005,-627.48 838.803,-629.149"/>
</g>
<!-- pr_a2ea74e0&#45;4318&#45;42c1&#45;a95a&#45;dc62145a8238 -->
<g id="node40" class="node"><title>pr_a2ea74e0&#45;4318&#45;42c1&#45;a95a&#45;dc62145a8238</title>
<polygon fill="none" stroke="black" points="788,-618.763 687,-618.763 687,-517.763 788,-517.763 788,-618.763"/>
<text text-anchor="middle" x="737.5" y="-567.063" font-family="Times,serif" font-size="4.00">pr_a2ea74e0&#45;4318&#45;42c1&#45;a95a&#45;dc62145a8238</text>
</g>
<!-- TLR7/8/9&#45;&gt;pr_a2ea74e0&#45;4318&#45;42c1&#45;a95a&#45;dc62145a8238 -->
<g id="edge49" class="edge"><title>TLR7/8/9&#45;&gt;pr_a2ea74e0&#45;4318&#45;42c1&#45;a95a&#45;dc62145a8238</title>
<path fill="none" stroke="black" d="M818.219,-666.666C809.72,-656.411 797.441,-641.594 785.015,-626.599"/>
<polygon fill="black" stroke="black" points="787.598,-624.231 778.522,-618.764 782.208,-628.697 787.598,-624.231"/>
</g>
<!-- pr_2ab770f9&#45;1c26&#45;4ea4&#45;b3ee&#45;84dc7e2b92b6&#45;&gt;TLR7/8/9 -->
<g id="edge50" class="edge"><title>pr_2ab770f9&#45;1c26&#45;4ea4&#45;b3ee&#45;84dc7e2b92b6&#45;&gt;TLR7/8/9</title>
<path fill="none" stroke="black" d="M851.212,-618.608C848.247,-631.434 844.689,-644.705 841.214,-655.636"/>
<polygon fill="black" stroke="black" points="837.831,-654.713 837.93,-665.307 844.459,-656.963 837.831,-654.713"/>
</g>
<!-- ssRNA -->
<g id="node38" class="node"><title>ssRNA</title>
<ellipse fill="none" stroke="black" cx="883.5" cy="-681.279" rx="18" ry="18"/>
<text text-anchor="middle" x="883.5" y="-680.079" font-family="Times,serif" font-size="4.00">ssRNA</text>
</g>
<!-- ssRNA&#45;&gt;pr_2ab770f9&#45;1c26&#45;4ea4&#45;b3ee&#45;84dc7e2b92b6 -->
<g id="edge51" class="edge"><title>ssRNA&#45;&gt;pr_2ab770f9&#45;1c26&#45;4ea4&#45;b3ee&#45;84dc7e2b92b6</title>
<path fill="none" stroke="black" d="M879.399,-663.418C877.072,-653.848 874.004,-641.234 870.873,-628.362"/>
<polygon fill="black" stroke="black" points="874.242,-627.404 868.478,-618.514 867.441,-629.058 874.242,-627.404"/>
</g>
<!-- MYD88 -->
<g id="node39" class="node"><title>MYD88</title>
<ellipse fill="none" stroke="black" cx="737.5" cy="-681.279" rx="18" ry="18"/>
<text text-anchor="middle" x="737.5" y="-680.079" font-family="Times,serif" font-size="4.00">MYD88</text>
</g>
<!-- MYD88&#45;&gt;pr_a2ea74e0&#45;4318&#45;42c1&#45;a95a&#45;dc62145a8238 -->
<g id="edge52" class="edge"><title>MYD88&#45;&gt;pr_a2ea74e0&#45;4318&#45;42c1&#45;a95a&#45;dc62145a8238</title>
<path fill="none" stroke="black" d="M732.545,-663.898C731.472,-654.475 730.88,-641.991 730.769,-629.191"/>
<polygon fill="black" stroke="black" points="734.269,-628.916 730.784,-618.911 727.269,-628.906 734.269,-628.916"/>
</g>
<!-- MYD88&#45;&gt;pr_0307aa85&#45;02c2&#45;4c92&#45;a660&#45;e925d7e4a4e4 -->
<g id="edge53" class="edge"><title>MYD88&#45;&gt;pr_0307aa85&#45;02c2&#45;4c92&#45;a660&#45;e925d7e4a4e4</title>
<path fill="none" stroke="black" d="M724.765,-668.399C713.066,-657.484 694.85,-640.49 676.783,-623.636"/>
<polygon fill="black" stroke="black" points="678.769,-620.702 669.069,-616.439 673.994,-625.82 678.769,-620.702"/>
</g>
<!-- pr_a2ea74e0&#45;4318&#45;42c1&#45;a95a&#45;dc62145a8238&#45;&gt;MYD88 -->
<g id="edge54" class="edge"><title>pr_a2ea74e0&#45;4318&#45;42c1&#45;a95a&#45;dc62145a8238&#45;&gt;MYD88</title>
<path fill="none" stroke="black" d="M744.216,-618.911C744.354,-630.924 744.067,-643.308 743.353,-653.777"/>
<polygon fill="black" stroke="black" points="739.853,-653.628 742.455,-663.898 746.825,-654.247 739.853,-653.628"/>
</g>
<!-- pr_0307aa85&#45;02c2&#45;4c92&#45;a660&#45;e925d7e4a4e4&#45;&gt;TRAF6 -->
<g id="edge55" class="edge"><title>pr_0307aa85&#45;02c2&#45;4c92&#45;a660&#45;e925d7e4a4e4&#45;&gt;TRAF6</title>
<path fill="none" stroke="black" d="M600.691,-618.764C594.069,-632.456 586.649,-646.641 580.109,-657.934"/>
<polygon fill="black" stroke="black" points="577.012,-656.293 574.858,-666.666 583.011,-659.9 577.012,-656.293"/>
</g>
<!-- TRIM23 -->
<g id="node42" class="node"><title>TRIM23</title>
<ellipse fill="none" stroke="black" cx="618.5" cy="-681.279" rx="18" ry="18"/>
<text text-anchor="middle" x="618.5" y="-680.079" font-family="Times,serif" font-size="4.00">TRIM23</text>
</g>
<!-- TRIM23&#45;&gt;pr_0307aa85&#45;02c2&#45;4c92&#45;a660&#45;e925d7e4a4e4 -->
<g id="edge56" class="edge"><title>TRIM23&#45;&gt;pr_0307aa85&#45;02c2&#45;4c92&#45;a660&#45;e925d7e4a4e4</title>
<path fill="none" stroke="black" d="M618.5,-662.933C618.5,-653.69 618.5,-641.711 618.5,-629.426"/>
<polygon fill="black" stroke="black" points="622,-629.088 618.5,-619.088 615,-629.088 622,-629.088"/>
</g>
<!-- TAB2/TAB3/TAK1 -->
<g id="node43" class="node"><title>TAB2/TAB3/TAK1</title>
<ellipse fill="none" stroke="black" cx="499.5" cy="-450.473" rx="27.0938" ry="27.0938"/>
<text text-anchor="middle" x="499.5" y="-449.273" font-family="Times,serif" font-size="4.00">TAB2/TAB3/TAK1</text>
</g>
<!-- TAB2/TAB3/TAK1&#45;&gt;pr_5eeb930b&#45;9b2d&#45;4391&#45;9e45&#45;f37cd11e8b08 -->
<g id="edge57" class="edge"><title>TAB2/TAB3/TAK1&#45;&gt;pr_5eeb930b&#45;9b2d&#45;4391&#45;9e45&#45;f37cd11e8b08</title>
<path fill="none" stroke="black" d="M505.206,-476.976C505.876,-486.246 506.224,-497.151 506.249,-508.116"/>
<polygon fill="black" stroke="black" points="502.748,-508.134 506.18,-518.158 509.748,-508.182 502.748,-508.134"/>
</g>
<!-- TAB2/TAB3/TAK1&#45;&gt;pr_325989ff&#45;d810&#45;4252&#45;b91c&#45;7f9149a75e0d -->
<g id="edge58" class="edge"><title>TAB2/TAB3/TAK1&#45;&gt;pr_325989ff&#45;d810&#45;4252&#45;b91c&#45;7f9149a75e0d</title>
<path fill="none" stroke="black" d="M519.985,-432.162C525.29,-427.829 531.046,-423.258 536.5,-419.184 558.124,-403.031 582.548,-386.137 604.032,-371.706"/>
<polygon fill="black" stroke="black" points="606.053,-374.565 612.419,-366.096 602.161,-368.746 606.053,-374.565"/>
</g>
<!-- TAB2/TAB3/TAK1&#45;&gt;pr_0e16ecb7&#45;24f4&#45;4228&#45;b47a&#45;bb150b63517a -->
<g id="edge59" class="edge"><title>TAB2/TAB3/TAK1&#45;&gt;pr_0e16ecb7&#45;24f4&#45;4228&#45;b47a&#45;bb150b63517a</title>
<path fill="none" stroke="black" d="M499.5,-423.312C499.5,-414.351 499.5,-403.925 499.5,-393.428"/>
<polygon fill="black" stroke="black" points="503,-393.388 499.5,-383.388 496,-393.388 503,-393.388"/>
</g>
<!-- pr_5eeb930b&#45;9b2d&#45;4391&#45;9e45&#45;f37cd11e8b08&#45;&gt;TAB2/TAB3/TAK1 -->
<g id="edge60" class="edge"><title>pr_5eeb930b&#45;9b2d&#45;4391&#45;9e45&#45;f37cd11e8b08&#45;&gt;TAB2/TAB3/TAK1</title>
<path fill="none" stroke="black" d="M492.82,-518.158C492.654,-507.747 492.785,-496.947 493.213,-487.149"/>
<polygon fill="black" stroke="black" points="496.718,-487.159 493.794,-476.976 489.729,-486.76 496.718,-487.159"/>
</g>
<!-- TRIM30a/TRIM38 -->
<g id="node45" class="node"><title>TRIM30a/TRIM38</title>
<ellipse fill="none" stroke="black" cx="499.5" cy="-681.279" rx="26.533" ry="26.533"/>
<text text-anchor="middle" x="499.5" y="-680.079" font-family="Times,serif" font-size="4.00">TRIM30a/TRIM38</text>
</g>
<!-- TRIM30a/TRIM38&#45;&gt;pr_5eeb930b&#45;9b2d&#45;4391&#45;9e45&#45;f37cd11e8b08 -->
<g id="edge61" class="edge"><title>TRIM30a/TRIM38&#45;&gt;pr_5eeb930b&#45;9b2d&#45;4391&#45;9e45&#45;f37cd11e8b08</title>
<path fill="none" stroke="black" d="M499.5,-654.531C499.5,-646.712 499.5,-637.775 499.5,-628.698"/>
<polygon fill="black" stroke="black" points="503,-628.441 499.5,-618.441 496,-628.441 503,-628.441"/>
</g>
<!-- TRIM22 -->
<g id="node47" class="node"><title>TRIM22</title>
<ellipse fill="none" stroke="black" cx="753.5" cy="-450.473" rx="18" ry="18"/>
<text text-anchor="middle" x="753.5" y="-449.273" font-family="Times,serif" font-size="4.00">TRIM22</text>
</g>
<!-- TRIM22&#45;&gt;pr_325989ff&#45;d810&#45;4252&#45;b91c&#45;7f9149a75e0d -->
<g id="edge62" class="edge"><title>TRIM22&#45;&gt;pr_325989ff&#45;d810&#45;4252&#45;b91c&#45;7f9149a75e0d</title>
<path fill="none" stroke="black" d="M742.585,-435.795C733.504,-424.416 719.933,-407.409 706.478,-390.547"/>
<polygon fill="black" stroke="black" points="708.875,-387.94 699.902,-382.307 703.404,-392.307 708.875,-387.94"/>
</g>
<!-- TRIM27/TRIM21 -->
<g id="node48" class="node"><title>TRIM27/TRIM21</title>
<ellipse fill="none" stroke="black" cx="570.5" cy="-450.473" rx="25.4118" ry="25.4118"/>
<text text-anchor="middle" x="570.5" y="-449.273" font-family="Times,serif" font-size="4.00">TRIM27/TRIM21</text>
</g>
<!-- TRIM27/TRIM21&#45;&gt;pr_325989ff&#45;d810&#45;4252&#45;b91c&#45;7f9149a75e0d -->
<g id="edge63" class="edge"><title>TRIM27/TRIM21&#45;&gt;pr_325989ff&#45;d810&#45;4252&#45;b91c&#45;7f9149a75e0d</title>
<path fill="none" stroke="black" d="M585.937,-429.916C594.665,-418.858 606.065,-404.416 617.353,-390.114"/>
<polygon fill="black" stroke="black" points="620.147,-392.224 623.596,-382.206 614.653,-387.887 620.147,-392.224"/>
</g>
<!-- TRIM29 -->
<g id="node49" class="node"><title>TRIM29</title>
<ellipse fill="none" stroke="black" cx="631.5" cy="-450.473" rx="18" ry="18"/>
<text text-anchor="middle" x="631.5" y="-449.273" font-family="Times,serif" font-size="4.00">TRIM29</text>
</g>
<!-- TRIM29&#45;&gt;pr_325989ff&#45;d810&#45;4252&#45;b91c&#45;7f9149a75e0d -->
<g id="edge64" class="edge"><title>TRIM29&#45;&gt;pr_325989ff&#45;d810&#45;4252&#45;b91c&#45;7f9149a75e0d</title>
<path fill="none" stroke="black" d="M635.798,-432.955C638.629,-422.076 642.521,-407.119 646.42,-392.135"/>
<polygon fill="black" stroke="black" points="649.841,-392.886 648.972,-382.327 643.067,-391.123 649.841,-392.886"/>
</g>
<!-- TRIM14/TRIM23 -->
<g id="node50" class="node"><title>TRIM14/TRIM23</title>
<ellipse fill="none" stroke="black" cx="692.5" cy="-450.473" rx="25.4118" ry="25.4118"/>
<text text-anchor="middle" x="692.5" y="-449.273" font-family="Times,serif" font-size="4.00">TRIM14/TRIM23</text>
</g>
<!-- TRIM14/TRIM23&#45;&gt;pr_325989ff&#45;d810&#45;4252&#45;b91c&#45;7f9149a75e0d -->
<g id="edge65" class="edge"><title>TRIM14/TRIM23&#45;&gt;pr_325989ff&#45;d810&#45;4252&#45;b91c&#45;7f9149a75e0d</title>
<path fill="none" stroke="black" d="M686.077,-425.585C683.444,-415.795 680.273,-403.999 677.095,-392.183"/>
<polygon fill="black" stroke="black" points="680.414,-391.045 674.437,-382.297 673.654,-392.863 680.414,-391.045"/>
</g>
<!-- pr_0e16ecb7&#45;24f4&#45;4228&#45;b47a&#45;bb150b63517a&#45;&gt;SERPINF2 -->
<g id="edge66" class="edge"><title>pr_0e16ecb7&#45;24f4&#45;4228&#45;b47a&#45;bb150b63517a&#45;&gt;SERPINF2</title>
<path fill="none" stroke="black" d="M492.757,-283.053C492.707,-273.966 492.938,-264.779 493.448,-256.625"/>
<polygon fill="black" stroke="black" points="496.942,-256.85 494.281,-246.595 489.966,-256.271 496.942,-256.85"/>
</g>
<!-- pr_07021d14&#45;c0b9&#45;4cb1&#45;872b&#45;0bf40293008b&#45;&gt;TRAF3 -->
<g id="edge67" class="edge"><title>pr_07021d14&#45;c0b9&#45;4cb1&#45;872b&#45;0bf40293008b&#45;&gt;TRAF3</title>
<path fill="none" stroke="black" d="M489.236,-1070.38C489.315,-1080.55 489.055,-1090.89 488.458,-1099.88"/>
<polygon fill="black" stroke="black" points="484.951,-1099.81 487.562,-1110.08 491.924,-1100.42 484.951,-1099.81"/>
</g>
<!-- NFKB1 -->
<g id="node54" class="node"><title>NFKB1</title>
<ellipse fill="none" stroke="black" cx="849.5" cy="-18" rx="18" ry="18"/>
<text text-anchor="middle" x="849.5" y="-16.8" font-family="Times,serif" font-size="4.00">NFKB1</text>
</g>
<!-- pr_d47037a8&#45;d30c&#45;49a4&#45;9348&#45;db7575bc0673&#45;&gt;NFKB1 -->
<g id="edge68" class="edge"><title>pr_d47037a8&#45;d30c&#45;49a4&#45;9348&#45;db7575bc0673&#45;&gt;NFKB1</title>
<path fill="none" stroke="black" d="M849.5,-71.7513C849.5,-62.9143 849.5,-54.0178 849.5,-46.1139"/>
<polygon fill="black" stroke="black" points="853,-46.0498 849.5,-36.0499 846,-46.0499 853,-46.0498"/>
</g>
</g>
</svg>
