<?xml version="1.0" encoding="UTF-8" standalone="no"?>
<!DOCTYPE svg PUBLIC "-//W3C//DTD SVG 1.1//EN"
 "http://www.w3.org/Graphics/SVG/1.1/DTD/svg11.dtd">
<!-- Generated by graphviz version 2.38.0 (20140413.2041)
 -->
<!-- Title: G Pages: 1 -->
<svg width="496pt" height="927pt"
 viewBox="0.00 0.00 496.03 926.84" xmlns="http://www.w3.org/2000/svg" xmlns:xlink="http://www.w3.org/1999/xlink">
<g id="graph0" class="graph" transform="scale(1 1) rotate(0) translate(4 922.843)">
<title>G</title>
<polygon fill="white" stroke="none" points="-4,4 -4,-922.843 492.031,-922.843 492.031,4 -4,4"/>
<!-- P65/P015 -->
<g id="node1" class="node"><title>P65/P015</title>
<ellipse fill="none" stroke="black" cx="90" cy="-543.151" rx="18.0625" ry="18.0625"/>
<text text-anchor="middle" x="90" y="-541.951" font-family="Times,serif" font-size="4.00">P65/P015</text>
</g>
<!-- IL1b -->
<g id="node2" class="node"><title>IL1b</title>
<ellipse fill="none" stroke="black" cx="90" cy="-367.737" rx="18" ry="18"/>
<text text-anchor="middle" x="90" y="-366.537" font-family="Times,serif" font-size="4.00">IL1b</text>
</g>
<!-- P65/P015&#45;&gt;IL1b -->
<g id="edge1" class="edge"><title>P65/P015&#45;&gt;IL1b</title>
<path fill="none" stroke="black" d="M90,-524.89C90,-494.766 90,-432.369 90,-396.235"/>
<polygon fill="black" stroke="black" points="93.5001,-395.929 90,-385.929 86.5001,-395.929 93.5001,-395.929"/>
</g>
<!-- TRIM59 -->
<g id="node3" class="node"><title>TRIM59</title>
<ellipse fill="none" stroke="black" cx="258" cy="-543.151" rx="18" ry="18"/>
<text text-anchor="middle" x="258" y="-541.951" font-family="Times,serif" font-size="4.00">TRIM59</text>
</g>
<!-- LPS/TLR4/MYD88 -->
<g id="node4" class="node"><title>LPS/TLR4/MYD88</title>
<ellipse fill="none" stroke="black" cx="287" cy="-456.77" rx="26.533" ry="26.533"/>
<text text-anchor="middle" x="287" y="-455.57" font-family="Times,serif" font-size="4.00">LPS/TLR4/MYD88</text>
</g>
<!-- TRIM59&#45;&gt;LPS/TLR4/MYD88 -->
<g id="edge2" class="edge"><title>TRIM59&#45;&gt;LPS/TLR4/MYD88</title>
<path fill="none" stroke="black" d="M263.591,-525.882C266.935,-516.154 271.31,-503.424 275.371,-491.606"/>
<polygon fill="black" stroke="black" points="278.74,-492.573 278.68,-481.978 272.12,-490.298 278.74,-492.573"/>
</g>
<!-- TRAF6 -->
<g id="node30" class="node"><title>TRAF6</title>
<ellipse fill="none" stroke="black" cx="401" cy="-367.737" rx="18" ry="18"/>
<text text-anchor="middle" x="401" y="-366.537" font-family="Times,serif" font-size="4.00">TRAF6</text>
</g>
<!-- LPS/TLR4/MYD88&#45;&gt;TRAF6 -->
<g id="edge3" class="edge"><title>LPS/TLR4/MYD88&#45;&gt;TRAF6</title>
<path fill="none" stroke="black" d="M309.079,-441.425C327.052,-429.452 352.821,-411.602 374,-394.253 376.339,-392.338 378.726,-390.268 381.066,-388.165"/>
<polygon fill="black" stroke="black" points="383.763,-390.436 388.699,-381.062 378.994,-385.312 383.763,-390.436"/>
</g>
<!-- TRIM23 -->
<g id="node5" class="node"><title>TRIM23</title>
<ellipse fill="none" stroke="black" cx="378" cy="-456.77" rx="18" ry="18"/>
<text text-anchor="middle" x="378" y="-455.57" font-family="Times,serif" font-size="4.00">TRIM23</text>
</g>
<!-- TRIM23&#45;&gt;TRAF6 -->
<g id="edge4" class="edge"><title>TRIM23&#45;&gt;TRAF6</title>
<path fill="none" stroke="black" d="M382.435,-438.989C385.712,-426.588 390.239,-409.456 394.003,-395.216"/>
<polygon fill="black" stroke="black" points="397.408,-396.029 396.579,-385.466 390.64,-394.24 397.408,-396.029"/>
</g>
<!-- TAB2/TAB3/TAK1 -->
<g id="node6" class="node"><title>TAB2/TAB3/TAK1</title>
<ellipse fill="none" stroke="black" cx="370" cy="-278.174" rx="27.0938" ry="27.0938"/>
<text text-anchor="middle" x="370" y="-276.974" font-family="Times,serif" font-size="4.00">TAB2/TAB3/TAK1</text>
</g>
<!-- NEMO/IKKA/IKKB -->
<g id="node37" class="node"><title>NEMO/IKKA/IKKB</title>
<ellipse fill="none" stroke="black" cx="200" cy="-187.019" rx="28.2154" ry="28.2154"/>
<text text-anchor="middle" x="200" y="-185.819" font-family="Times,serif" font-size="4.00">NEMO/IKKA/IKKB</text>
</g>
<!-- TAB2/TAB3/TAK1&#45;&gt;NEMO/IKKA/IKKB -->
<g id="edge5" class="edge"><title>TAB2/TAB3/TAK1&#45;&gt;NEMO/IKKA/IKKB</title>
<path fill="none" stroke="black" d="M348.495,-261.113C343.512,-257.654 338.157,-254.136 333,-251.127 300.954,-232.427 262.483,-214.642 235.18,-202.747"/>
<polygon fill="black" stroke="black" points="236.227,-199.387 225.659,-198.641 233.455,-205.815 236.227,-199.387"/>
</g>
<!-- SERPINF2 -->
<g id="node39" class="node"><title>SERPINF2</title>
<ellipse fill="none" stroke="black" cx="370" cy="-187.019" rx="19.1842" ry="19.1842"/>
<text text-anchor="middle" x="370" y="-185.819" font-family="Times,serif" font-size="4.00">SERPINF2</text>
</g>
<!-- TAB2/TAB3/TAK1&#45;&gt;SERPINF2 -->
<g id="edge6" class="edge"><title>TAB2/TAB3/TAK1&#45;&gt;SERPINF2</title>
<path fill="none" stroke="black" d="M370,-250.906C370,-240.008 370,-227.341 370,-216.245"/>
<polygon fill="black" stroke="black" points="373.5,-216.195 370,-206.195 366.5,-216.195 373.5,-216.195"/>
</g>
<!-- TRIM29 -->
<g id="node7" class="node"><title>TRIM29</title>
<ellipse fill="none" stroke="black" cx="115" cy="-278.174" rx="18" ry="18"/>
<text text-anchor="middle" x="115" y="-276.974" font-family="Times,serif" font-size="4.00">TRIM29</text>
</g>
<!-- TRIM29&#45;&gt;NEMO/IKKA/IKKB -->
<g id="edge7" class="edge"><title>TRIM29&#45;&gt;NEMO/IKKA/IKKB</title>
<path fill="none" stroke="black" d="M127.178,-264.4C139.25,-251.738 158.131,-231.934 173.643,-215.664"/>
<polygon fill="black" stroke="black" points="176.575,-217.661 180.943,-208.008 171.509,-212.831 176.575,-217.661"/>
</g>
<!-- IKBKG/IKBKB/CHUK -->
<g id="node8" class="node"><title>IKBKG/IKBKB/CHUK</title>
<ellipse fill="none" stroke="black" cx="87" cy="-634.306" rx="31.0804" ry="31.0804"/>
<text text-anchor="middle" x="87" y="-633.106" font-family="Times,serif" font-size="4.00">IKBKG/IKBKB/CHUK</text>
</g>
<!-- IKBKG/IKBKB/CHUK&#45;&gt;P65/P015 -->
<g id="edge8" class="edge"><title>IKBKG/IKBKB/CHUK&#45;&gt;P65/P015</title>
<path fill="none" stroke="black" d="M88.0324,-602.624C88.3735,-592.488 88.7504,-581.288 89.0822,-571.426"/>
<polygon fill="black" stroke="black" points="92.5825,-571.475 89.4208,-561.363 85.5864,-571.239 92.5825,-571.475"/>
</g>
<!-- LPS/TNF α/IL&#45;1 -->
<g id="node9" class="node"><title>LPS/TNF α/IL&#45;1</title>
<ellipse fill="none" stroke="black" cx="87" cy="-725.46" rx="23.7305" ry="23.7305"/>
<text text-anchor="middle" x="87" y="-724.26" font-family="Times,serif" font-size="4.00">LPS/TNF α/IL&#45;1</text>
</g>
<!-- LPS/TNF α/IL&#45;1&#45;&gt;IKBKG/IKBKB/CHUK -->
<g id="edge9" class="edge"><title>LPS/TNF α/IL&#45;1&#45;&gt;IKBKG/IKBKB/CHUK</title>
<path fill="none" stroke="black" d="M87,-701.5C87,-693.713 87,-684.764 87,-676.016"/>
<polygon fill="black" stroke="black" points="90.5001,-675.919 87,-665.919 83.5001,-675.919 90.5001,-675.919"/>
</g>
<!-- E -->
<g id="node10" class="node"><title>E</title>
<ellipse fill="none" stroke="black" cx="20" cy="-634.306" rx="18" ry="18"/>
<text text-anchor="middle" x="20" y="-633.106" font-family="Times,serif" font-size="4.00">E</text>
</g>
<!-- E&#45;&gt;P65/P015 -->
<g id="edge10" class="edge"><title>E&#45;&gt;P65/P015</title>
<path fill="none" stroke="black" d="M30.6315,-619.765C41.8354,-605.495 59.653,-582.802 72.8487,-565.996"/>
<polygon fill="black" stroke="black" points="75.8458,-567.846 79.2685,-557.819 70.3401,-563.523 75.8458,-567.846"/>
</g>
<!-- E&#45;&gt;IL1b -->
<g id="edge11" class="edge"><title>E&#45;&gt;IL1b</title>
<path fill="none" stroke="black" d="M24.3788,-616.756C36.1642,-572.212 68.6328,-449.495 83.0018,-395.187"/>
<polygon fill="black" stroke="black" points="86.4485,-395.843 85.6228,-385.281 79.6814,-394.053 86.4485,-395.843"/>
</g>
<!-- NFKB1_NFKNIA -->
<g id="node11" class="node"><title>NFKB1_NFKNIA</title>
<ellipse fill="none" stroke="black" cx="72" cy="-25.4558" rx="25.4118" ry="25.4118"/>
<text text-anchor="middle" x="72" y="-24.2558" font-family="Times,serif" font-size="4.00">NFKB1_NFKNIA</text>
</g>
<!-- Hops Complex -->
<g id="node12" class="node"><title>Hops Complex</title>
<ellipse fill="none" stroke="black" cx="318" cy="-543.151" rx="23.7305" ry="23.7305"/>
<text text-anchor="middle" x="318" y="-541.951" font-family="Times,serif" font-size="4.00">Hops Complex</text>
</g>
<!-- ssRNA -->
<g id="node13" class="node"><title>ssRNA</title>
<ellipse fill="none" stroke="black" cx="470" cy="-634.306" rx="18" ry="18"/>
<text text-anchor="middle" x="470" y="-633.106" font-family="Times,serif" font-size="4.00">ssRNA</text>
</g>
<!-- TLR7/8/9 -->
<g id="node19" class="node"><title>TLR7/8/9</title>
<ellipse fill="none" stroke="black" cx="470" cy="-543.151" rx="18.0625" ry="18.0625"/>
<text text-anchor="middle" x="470" y="-541.951" font-family="Times,serif" font-size="4.00">TLR7/8/9</text>
</g>
<!-- ssRNA&#45;&gt;TLR7/8/9 -->
<g id="edge12" class="edge"><title>ssRNA&#45;&gt;TLR7/8/9</title>
<path fill="none" stroke="black" d="M470,-616.116C470,-603.535 470,-586.203 470,-571.701"/>
<polygon fill="black" stroke="black" points="473.5,-571.288 470,-561.288 466.5,-571.288 473.5,-571.288"/>
</g>
<!-- PYCARD -->
<g id="node14" class="node"><title>PYCARD</title>
<ellipse fill="none" stroke="black" cx="150" cy="-543.151" rx="18" ry="18"/>
<text text-anchor="middle" x="150" y="-541.951" font-family="Times,serif" font-size="4.00">PYCARD</text>
</g>
<!-- CASP1 -->
<g id="node18" class="node"><title>CASP1</title>
<ellipse fill="none" stroke="black" cx="150" cy="-456.77" rx="18" ry="18"/>
<text text-anchor="middle" x="150" y="-455.57" font-family="Times,serif" font-size="4.00">CASP1</text>
</g>
<!-- PYCARD&#45;&gt;CASP1 -->
<g id="edge13" class="edge"><title>PYCARD&#45;&gt;CASP1</title>
<path fill="none" stroke="black" d="M150,-525.075C150,-513.638 150,-498.329 150,-485.202"/>
<polygon fill="black" stroke="black" points="153.5,-484.82 150,-474.82 146.5,-484.82 153.5,-484.82"/>
</g>
<!-- CACTIN -->
<g id="node15" class="node"><title>CACTIN</title>
<ellipse fill="none" stroke="black" cx="18" cy="-104.912" rx="18" ry="18"/>
<text text-anchor="middle" x="18" y="-103.712" font-family="Times,serif" font-size="4.00">CACTIN</text>
</g>
<!-- CACTIN&#45;&gt;NFKB1_NFKNIA -->
<g id="edge14" class="edge"><title>CACTIN&#45;&gt;NFKB1_NFKNIA</title>
<path fill="none" stroke="black" d="M27.9044,-89.7051C34.6667,-80.0055 43.8595,-66.8197 52.1018,-54.9972"/>
<polygon fill="black" stroke="black" points="55.0391,-56.9039 57.8871,-46.699 49.2969,-52.9005 55.0391,-56.9039"/>
</g>
<!-- TRIM22 -->
<g id="node16" class="node"><title>TRIM22</title>
<ellipse fill="none" stroke="black" cx="169" cy="-278.174" rx="18" ry="18"/>
<text text-anchor="middle" x="169" y="-276.974" font-family="Times,serif" font-size="4.00">TRIM22</text>
</g>
<!-- TRIM22&#45;&gt;NEMO/IKKA/IKKB -->
<g id="edge15" class="edge"><title>TRIM22&#45;&gt;NEMO/IKKA/IKKB</title>
<path fill="none" stroke="black" d="M174.686,-260.821C178.335,-250.326 183.218,-236.284 187.721,-223.334"/>
<polygon fill="black" stroke="black" points="191.085,-224.315 191.063,-213.72 184.473,-222.016 191.085,-224.315"/>
</g>
<!-- TRIM30a/TRIM38 -->
<g id="node17" class="node"><title>TRIM30a/TRIM38</title>
<ellipse fill="none" stroke="black" cx="338" cy="-367.737" rx="26.533" ry="26.533"/>
<text text-anchor="middle" x="338" y="-366.537" font-family="Times,serif" font-size="4.00">TRIM30a/TRIM38</text>
</g>
<!-- TRIM30a/TRIM38&#45;&gt;TAB2/TAB3/TAK1 -->
<g id="edge16" class="edge"><title>TRIM30a/TRIM38&#45;&gt;TAB2/TAB3/TAK1</title>
<path fill="none" stroke="black" d="M346.914,-342.346C350.215,-333.313 354.02,-322.9 357.577,-313.167"/>
<polygon fill="black" stroke="black" points="360.878,-314.332 361.023,-303.738 354.303,-311.929 360.878,-314.332"/>
</g>
<!-- CASP1&#45;&gt;IL1b -->
<g id="edge17" class="edge"><title>CASP1&#45;&gt;IL1b</title>
<path fill="none" stroke="black" d="M140.092,-441.398C130.799,-427.918 116.745,-407.532 105.887,-391.781"/>
<polygon fill="black" stroke="black" points="108.48,-389.377 99.9225,-383.13 102.717,-393.35 108.48,-389.377"/>
</g>
<!-- MYD88 -->
<g id="node34" class="node"><title>MYD88</title>
<ellipse fill="none" stroke="black" cx="470" cy="-456.77" rx="18" ry="18"/>
<text text-anchor="middle" x="470" y="-455.57" font-family="Times,serif" font-size="4.00">MYD88</text>
</g>
<!-- TLR7/8/9&#45;&gt;MYD88 -->
<g id="edge18" class="edge"><title>TLR7/8/9&#45;&gt;MYD88</title>
<path fill="none" stroke="black" d="M470,-525.075C470,-513.638 470,-498.329 470,-485.202"/>
<polygon fill="black" stroke="black" points="473.5,-484.82 470,-474.82 466.5,-484.82 473.5,-484.82"/>
</g>
<!-- TRIM14/TRIM23 -->
<g id="node20" class="node"><title>TRIM14/TRIM23</title>
<ellipse fill="none" stroke="black" cx="230" cy="-278.174" rx="25.4118" ry="25.4118"/>
<text text-anchor="middle" x="230" y="-276.974" font-family="Times,serif" font-size="4.00">TRIM14/TRIM23</text>
</g>
<!-- TRIM14/TRIM23&#45;&gt;NEMO/IKKA/IKKB -->
<g id="edge19" class="edge"><title>TRIM14/TRIM23&#45;&gt;NEMO/IKKA/IKKB</title>
<path fill="none" stroke="black" d="M222.118,-253.749C218.987,-244.444 215.317,-233.538 211.877,-223.314"/>
<polygon fill="black" stroke="black" points="215.18,-222.157 208.673,-213.795 208.546,-224.389 215.18,-222.157"/>
</g>
<!-- ORF8b -->
<g id="node21" class="node"><title>ORF8b</title>
<ellipse fill="none" stroke="black" cx="208" cy="-634.306" rx="18" ry="18"/>
<text text-anchor="middle" x="208" y="-633.106" font-family="Times,serif" font-size="4.00">ORF8b</text>
</g>
<!-- NLRP3 -->
<g id="node27" class="node"><title>NLRP3</title>
<ellipse fill="none" stroke="black" cx="204" cy="-543.151" rx="18" ry="18"/>
<text text-anchor="middle" x="204" y="-541.951" font-family="Times,serif" font-size="4.00">NLRP3</text>
</g>
<!-- ORF8b&#45;&gt;NLRP3 -->
<g id="edge20" class="edge"><title>ORF8b&#45;&gt;NLRP3</title>
<path fill="none" stroke="black" d="M207.229,-616.116C206.664,-603.535 205.887,-586.203 205.236,-571.701"/>
<polygon fill="black" stroke="black" points="208.714,-571.121 204.769,-561.288 201.721,-571.435 208.714,-571.121"/>
</g>
<!-- Orf3a -->
<g id="node22" class="node"><title>Orf3a</title>
<ellipse fill="none" stroke="black" cx="262" cy="-634.306" rx="18" ry="18"/>
<text text-anchor="middle" x="262" y="-633.106" font-family="Times,serif" font-size="4.00">Orf3a</text>
</g>
<!-- Orf3a&#45;&gt;P65/P015 -->
<g id="edge24" class="edge"><title>Orf3a&#45;&gt;P65/P015</title>
<path fill="none" stroke="black" d="M252.009,-619.111C247.393,-613.429 241.495,-607.242 235,-603.016 191.175,-574.499 169.887,-590.156 123,-567.016 119.377,-565.228 115.702,-563.077 112.186,-560.82"/>
<polygon fill="black" stroke="black" points="114.116,-557.899 103.888,-555.134 110.159,-563.674 114.116,-557.899"/>
</g>
<!-- Orf3a&#45;&gt;TRIM59 -->
<g id="edge25" class="edge"><title>Orf3a&#45;&gt;TRIM59</title>
<path fill="none" stroke="black" d="M261.229,-616.116C260.664,-603.535 259.887,-586.203 259.236,-571.701"/>
<polygon fill="black" stroke="black" points="262.714,-571.121 258.769,-561.288 255.721,-571.435 262.714,-571.121"/>
</g>
<!-- Orf3a&#45;&gt;Hops Complex -->
<g id="edge23" class="edge"><title>Orf3a&#45;&gt;Hops Complex</title>
<path fill="none" stroke="black" d="M271.247,-618.584C279.09,-606.098 290.565,-587.829 300.184,-572.515"/>
<polygon fill="black" stroke="black" points="303.236,-574.236 305.591,-563.906 297.308,-570.513 303.236,-574.236"/>
</g>
<!-- Orf3a&#45;&gt;PYCARD -->
<g id="edge22" class="edge"><title>Orf3a&#45;&gt;PYCARD</title>
<path fill="none" stroke="black" d="M251.201,-619.549C246.539,-614.068 240.823,-607.912 235,-603.016 211.778,-583.491 201.532,-584.868 177,-567.016 175.103,-565.636 173.172,-564.159 171.258,-562.644"/>
<polygon fill="black" stroke="black" points="173.085,-559.614 163.144,-555.95 168.63,-565.014 173.085,-559.614"/>
</g>
<!-- S -->
<g id="node26" class="node"><title>S</title>
<ellipse fill="none" stroke="black" cx="378" cy="-543.151" rx="18" ry="18"/>
<text text-anchor="middle" x="378" y="-541.951" font-family="Times,serif" font-size="4.00">S</text>
</g>
<!-- Orf3a&#45;&gt;S -->
<g id="edge21" class="edge"><title>Orf3a&#45;&gt;S</title>
<path fill="none" stroke="black" d="M276.389,-623.013C294.161,-610.203 325.206,-587.511 351,-567.016 352.837,-565.557 354.726,-564.024 356.612,-562.472"/>
<polygon fill="black" stroke="black" points="359.259,-564.82 364.679,-555.716 354.765,-559.454 359.259,-564.82"/>
</g>
<!-- BTRC -->
<g id="node23" class="node"><title>BTRC</title>
<ellipse fill="none" stroke="black" cx="99" cy="-187.019" rx="18" ry="18"/>
<text text-anchor="middle" x="99" y="-185.819" font-family="Times,serif" font-size="4.00">BTRC</text>
</g>
<!-- NFKBIA -->
<g id="node32" class="node"><title>NFKBIA</title>
<ellipse fill="none" stroke="black" cx="126" cy="-104.912" rx="18" ry="18"/>
<text text-anchor="middle" x="126" y="-103.712" font-family="Times,serif" font-size="4.00">NFKBIA</text>
</g>
<!-- BTRC&#45;&gt;NFKBIA -->
<g id="edge26" class="edge"><title>BTRC&#45;&gt;NFKBIA</title>
<path fill="none" stroke="black" d="M104.464,-169.808C108.16,-158.842 113.12,-144.126 117.348,-131.581"/>
<polygon fill="black" stroke="black" points="120.667,-132.693 120.544,-122.099 114.034,-130.457 120.667,-132.693"/>
</g>
<!-- TRIM38 -->
<g id="node24" class="node"><title>TRIM38</title>
<ellipse fill="none" stroke="black" cx="363" cy="-803.325" rx="18" ry="18"/>
<text text-anchor="middle" x="363" y="-802.125" font-family="Times,serif" font-size="4.00">TRIM38</text>
</g>
<!-- TICAM1 -->
<g id="node25" class="node"><title>TICAM1</title>
<ellipse fill="none" stroke="black" cx="257" cy="-725.46" rx="18" ry="18"/>
<text text-anchor="middle" x="257" y="-724.26" font-family="Times,serif" font-size="4.00">TICAM1</text>
</g>
<!-- TRIM38&#45;&gt;TICAM1 -->
<g id="edge28" class="edge"><title>TRIM38&#45;&gt;TICAM1</title>
<path fill="none" stroke="black" d="M348.704,-792.093C331.002,-779.424 300.634,-757.689 279.725,-742.724"/>
<polygon fill="black" stroke="black" points="281.577,-739.745 271.408,-736.772 277.503,-745.438 281.577,-739.745"/>
</g>
<!-- TRIM38&#45;&gt;TRAF6 -->
<g id="edge27" class="edge"><title>TRIM38&#45;&gt;TRAF6</title>
<path fill="none" stroke="black" d="M372.265,-787.783C389.329,-759.559 424,-694.884 424,-635.306 424,-635.306 424,-635.306 424,-542.151 424,-489.809 413.575,-429.345 406.763,-395.419"/>
<polygon fill="black" stroke="black" points="410.14,-394.468 404.695,-385.38 403.284,-395.88 410.14,-394.468"/>
</g>
<!-- TRAF3 -->
<g id="node33" class="node"><title>TRAF3</title>
<ellipse fill="none" stroke="black" cx="154" cy="-634.306" rx="18" ry="18"/>
<text text-anchor="middle" x="154" y="-633.106" font-family="Times,serif" font-size="4.00">TRAF3</text>
</g>
<!-- TICAM1&#45;&gt;TRAF3 -->
<g id="edge29" class="edge"><title>TICAM1&#45;&gt;TRAF3</title>
<path fill="none" stroke="black" d="M242.649,-714.556C226.885,-703.406 201.132,-684.383 181,-665.595 177.958,-662.756 174.883,-659.615 171.951,-656.462"/>
<polygon fill="black" stroke="black" points="174.339,-653.882 165.061,-648.766 169.124,-658.551 174.339,-653.882"/>
</g>
<!-- NLRP3&#45;&gt;CASP1 -->
<g id="edge30" class="edge"><title>NLRP3&#45;&gt;CASP1</title>
<path fill="none" stroke="black" d="M194.594,-527.453C186.386,-514.627 174.336,-495.798 164.831,-480.945"/>
<polygon fill="black" stroke="black" points="167.637,-478.836 159.298,-472.3 161.741,-482.609 167.637,-478.836"/>
</g>
<!-- NFKB1 -->
<g id="node28" class="node"><title>NFKB1</title>
<ellipse fill="none" stroke="black" cx="72" cy="-104.912" rx="18" ry="18"/>
<text text-anchor="middle" x="72" y="-103.712" font-family="Times,serif" font-size="4.00">NFKB1</text>
</g>
<!-- NFKB1&#45;&gt;NFKB1_NFKNIA -->
<g id="edge31" class="edge"><title>NFKB1&#45;&gt;NFKB1_NFKNIA</title>
<path fill="none" stroke="black" d="M72,-86.7217C72,-79.1618 72,-69.9963 72,-61.1189"/>
<polygon fill="black" stroke="black" points="75.5001,-60.9434 72,-50.9434 68.5001,-60.9434 75.5001,-60.9434"/>
</g>
<!-- TRIM9 -->
<g id="node29" class="node"><title>TRIM9</title>
<ellipse fill="none" stroke="black" cx="61" cy="-278.174" rx="18" ry="18"/>
<text text-anchor="middle" x="61" y="-276.974" font-family="Times,serif" font-size="4.00">TRIM9</text>
</g>
<!-- TRIM9&#45;&gt;BTRC -->
<g id="edge32" class="edge"><title>TRIM9&#45;&gt;BTRC</title>
<path fill="none" stroke="black" d="M67.7936,-261.235C73.4675,-247.923 81.6599,-228.702 88.2271,-213.294"/>
<polygon fill="black" stroke="black" points="91.5639,-214.392 92.2652,-203.82 85.1244,-211.647 91.5639,-214.392"/>
</g>
<!-- TRAF6&#45;&gt;TAB2/TAB3/TAK1 -->
<g id="edge33" class="edge"><title>TRAF6&#45;&gt;TAB2/TAB3/TAK1</title>
<path fill="none" stroke="black" d="M395.169,-350.267C391.516,-339.947 386.669,-326.256 382.204,-313.646"/>
<polygon fill="black" stroke="black" points="385.373,-312.107 378.736,-303.849 378.774,-314.444 385.373,-312.107"/>
</g>
<!-- TLR3 -->
<g id="node31" class="node"><title>TLR3</title>
<ellipse fill="none" stroke="black" cx="257" cy="-803.325" rx="18" ry="18"/>
<text text-anchor="middle" x="257" y="-802.125" font-family="Times,serif" font-size="4.00">TLR3</text>
</g>
<!-- TLR3&#45;&gt;TICAM1 -->
<g id="edge34" class="edge"><title>TLR3&#45;&gt;TICAM1</title>
<path fill="none" stroke="black" d="M257,-785.11C257,-775.895 257,-764.327 257,-753.906"/>
<polygon fill="black" stroke="black" points="260.5,-753.607 257,-743.607 253.5,-753.607 260.5,-753.607"/>
</g>
<!-- NFKBIA&#45;&gt;NFKB1_NFKNIA -->
<g id="edge35" class="edge"><title>NFKBIA&#45;&gt;NFKB1_NFKNIA</title>
<path fill="none" stroke="black" d="M116.096,-89.7051C109.333,-80.0055 100.141,-66.8197 91.8982,-54.9972"/>
<polygon fill="black" stroke="black" points="94.7031,-52.9005 86.1129,-46.699 88.9609,-56.9039 94.7031,-52.9005"/>
</g>
<!-- TRAF3&#45;&gt;P65/P015 -->
<g id="edge36" class="edge"><title>TRAF3&#45;&gt;P65/P015</title>
<path fill="none" stroke="black" d="M143.717,-618.981C133.581,-604.861 117.939,-583.072 106.144,-566.64"/>
<polygon fill="black" stroke="black" points="108.721,-564.228 100.046,-558.146 103.035,-568.311 108.721,-564.228"/>
</g>
<!-- TRAF3&#45;&gt;PYCARD -->
<g id="edge37" class="edge"><title>TRAF3&#45;&gt;PYCARD</title>
<path fill="none" stroke="black" d="M153.229,-616.116C152.664,-603.535 151.887,-586.203 151.236,-571.701"/>
<polygon fill="black" stroke="black" points="154.714,-571.121 150.769,-561.288 147.721,-571.435 154.714,-571.121"/>
</g>
<!-- MYD88&#45;&gt;TRAF6 -->
<g id="edge38" class="edge"><title>MYD88&#45;&gt;TRAF6</title>
<path fill="none" stroke="black" d="M459.219,-442.171C448.18,-428.247 430.863,-406.404 417.981,-390.156"/>
<polygon fill="black" stroke="black" points="420.661,-387.902 411.706,-382.24 415.175,-392.251 420.661,-387.902"/>
</g>
<!-- IFNB1 -->
<g id="node35" class="node"><title>IFNB1</title>
<ellipse fill="none" stroke="black" cx="370" cy="-104.912" rx="18" ry="18"/>
<text text-anchor="middle" x="370" y="-103.712" font-family="Times,serif" font-size="4.00">IFNB1</text>
</g>
<!-- double&#45;stranded RNA -->
<g id="node36" class="node"><title>double&#45;stranded RNA</title>
<ellipse fill="none" stroke="black" cx="257" cy="-888.084" rx="30.5202" ry="30.5202"/>
<text text-anchor="middle" x="257" y="-886.884" font-family="Times,serif" font-size="4.00">double&#45;stranded RNA</text>
</g>
<!-- double&#45;stranded RNA&#45;&gt;TLR3 -->
<g id="edge39" class="edge"><title>double&#45;stranded RNA&#45;&gt;TLR3</title>
<path fill="none" stroke="black" d="M257,-857.206C257,-848.836 257,-839.784 257,-831.575"/>
<polygon fill="black" stroke="black" points="260.5,-831.397 257,-821.397 253.5,-831.397 260.5,-831.397"/>
</g>
<!-- NEMO/IKKA/IKKB&#45;&gt;NFKBIA -->
<g id="edge40" class="edge"><title>NEMO/IKKA/IKKB&#45;&gt;NFKBIA</title>
<path fill="none" stroke="black" d="M181.327,-165.805C170.087,-153.638 155.83,-138.203 144.603,-126.05"/>
<polygon fill="black" stroke="black" points="147.082,-123.576 137.726,-118.605 141.94,-128.325 147.082,-123.576"/>
</g>
<!-- TRIM39 -->
<g id="node38" class="node"><title>TRIM39</title>
<ellipse fill="none" stroke="black" cx="18" cy="-187.019" rx="18" ry="18"/>
<text text-anchor="middle" x="18" y="-185.819" font-family="Times,serif" font-size="4.00">TRIM39</text>
</g>
<!-- TRIM39&#45;&gt;CACTIN -->
<g id="edge41" class="edge"><title>TRIM39&#45;&gt;CACTIN</title>
<path fill="none" stroke="black" d="M18,-168.637C18,-158.279 18,-144.905 18,-133.169"/>
<polygon fill="black" stroke="black" points="21.5001,-132.985 18,-122.985 14.5001,-132.985 21.5001,-132.985"/>
</g>
<!-- SERPINF2&#45;&gt;IFNB1 -->
<g id="edge42" class="edge"><title>SERPINF2&#45;&gt;IFNB1</title>
<path fill="none" stroke="black" d="M370,-167.842C370,-157.627 370,-144.674 370,-133.257"/>
<polygon fill="black" stroke="black" points="373.5,-132.922 370,-122.922 366.5,-132.922 373.5,-132.922"/>
</g>
<!-- TRIM27/TRIM21 -->
<g id="node40" class="node"><title>TRIM27/TRIM21</title>
<ellipse fill="none" stroke="black" cx="299" cy="-278.174" rx="25.4118" ry="25.4118"/>
<text text-anchor="middle" x="299" y="-276.974" font-family="Times,serif" font-size="4.00">TRIM27/TRIM21</text>
</g>
<!-- TRIM27/TRIM21&#45;&gt;NEMO/IKKA/IKKB -->
<g id="edge43" class="edge"><title>TRIM27/TRIM21&#45;&gt;NEMO/IKKA/IKKB</title>
<path fill="none" stroke="black" d="M280.379,-260.404C265.746,-247.227 245.119,-228.651 228.424,-213.616"/>
<polygon fill="black" stroke="black" points="230.361,-210.651 220.588,-206.56 225.677,-215.852 230.361,-210.651"/>
</g>
</g>
</svg>
