<?xml version="1.0" encoding="UTF-8" standalone="no"?>
<!DOCTYPE svg PUBLIC "-//W3C//DTD SVG 1.1//EN"
 "http://www.w3.org/Graphics/SVG/1.1/DTD/svg11.dtd">
<!-- Generated by graphviz version 2.38.0 (20140413.2041)
 -->
<!-- Title: G Pages: 1 -->
<svg width="690pt" height="999pt"
 viewBox="0.00 0.00 690.00 998.84" xmlns="http://www.w3.org/2000/svg" xmlns:xlink="http://www.w3.org/1999/xlink">
<g id="graph0" class="graph" transform="scale(1 1) rotate(0) translate(4 994.843)">
<title>G</title>
<polygon fill="white" stroke="none" points="-4,4 -4,-994.843 686,-994.843 686,4 -4,4"/>
<!-- P65/P015 -->
<g id="node1" class="node"><title>P65/P015</title>
<ellipse fill="none" stroke="black" cx="85" cy="-615.151" rx="18.0625" ry="18.0625"/>
<text text-anchor="middle" x="85" y="-613.951" font-family="Times,serif" font-size="4.00">P65/P015</text>
</g>
<!-- IL1b -->
<g id="node2" class="node"><title>IL1b</title>
<ellipse fill="none" stroke="black" cx="85" cy="-456.77" rx="18" ry="18"/>
<text text-anchor="middle" x="85" y="-455.57" font-family="Times,serif" font-size="4.00">IL1b</text>
</g>
<!-- P65/P015&#45;&gt;IL1b -->
<g id="edge1" class="edge"><title>P65/P015&#45;&gt;IL1b</title>
<path fill="none" stroke="black" d="M85,-597.118C85,-570.092 85,-517.149 85,-484.87"/>
<polygon fill="black" stroke="black" points="88.5001,-484.782 85,-474.782 81.5001,-484.782 88.5001,-484.782"/>
</g>
<!-- NFKB1 -->
<g id="node3" class="node"><title>NFKB1</title>
<ellipse fill="none" stroke="black" cx="569" cy="-104.912" rx="18" ry="18"/>
<text text-anchor="middle" x="569" y="-103.712" font-family="Times,serif" font-size="4.00">NFKB1</text>
</g>
<!-- NFKB1_NFKNIA -->
<g id="node9" class="node"><title>NFKB1_NFKNIA</title>
<ellipse fill="none" stroke="black" cx="515" cy="-25.4558" rx="25.4118" ry="25.4118"/>
<text text-anchor="middle" x="515" y="-24.2558" font-family="Times,serif" font-size="4.00">NFKB1_NFKNIA</text>
</g>
<!-- NFKB1&#45;&gt;NFKB1_NFKNIA -->
<g id="edge2" class="edge"><title>NFKB1&#45;&gt;NFKB1_NFKNIA</title>
<path fill="none" stroke="black" d="M559.096,-89.7051C552.333,-80.0055 543.141,-66.8197 534.898,-54.9972"/>
<polygon fill="black" stroke="black" points="537.703,-52.9005 529.113,-46.699 531.961,-56.9039 537.703,-52.9005"/>
</g>
<!-- CASP1 -->
<g id="node4" class="node"><title>CASP1</title>
<ellipse fill="none" stroke="black" cx="139" cy="-537.286" rx="18" ry="18"/>
<text text-anchor="middle" x="139" y="-536.086" font-family="Times,serif" font-size="4.00">CASP1</text>
</g>
<!-- CASP1&#45;&gt;IL1b -->
<g id="edge3" class="edge"><title>CASP1&#45;&gt;IL1b</title>
<path fill="none" stroke="black" d="M129.096,-521.885C121.103,-510.264 109.715,-493.706 100.514,-480.328"/>
<polygon fill="black" stroke="black" points="103.392,-478.336 94.8416,-472.08 97.6246,-482.303 103.392,-478.336"/>
</g>
<!-- TRIM38 -->
<g id="node5" class="node"><title>TRIM38</title>
<ellipse fill="none" stroke="black" cx="401" cy="-875.325" rx="18" ry="18"/>
<text text-anchor="middle" x="401" y="-874.125" font-family="Times,serif" font-size="4.00">TRIM38</text>
</g>
<!-- TICAM1 -->
<g id="node10" class="node"><title>TICAM1</title>
<ellipse fill="none" stroke="black" cx="282" cy="-797.46" rx="18" ry="18"/>
<text text-anchor="middle" x="282" y="-796.26" font-family="Times,serif" font-size="4.00">TICAM1</text>
</g>
<!-- TRIM38&#45;&gt;TICAM1 -->
<g id="edge4" class="edge"><title>TRIM38&#45;&gt;TICAM1</title>
<path fill="none" stroke="black" d="M385.929,-864.716C365.631,-851.777 329.309,-828.62 305.431,-813.398"/>
<polygon fill="black" stroke="black" points="307.263,-810.415 296.949,-807.99 303.5,-816.317 307.263,-810.415"/>
</g>
<!-- TRAF6 -->
<g id="node36" class="node"><title>TRAF6</title>
<ellipse fill="none" stroke="black" cx="388" cy="-367.737" rx="18" ry="18"/>
<text text-anchor="middle" x="388" y="-366.537" font-family="Times,serif" font-size="4.00">TRAF6</text>
</g>
<!-- TRIM38&#45;&gt;TRAF6 -->
<g id="edge5" class="edge"><title>TRIM38&#45;&gt;TRAF6</title>
<path fill="none" stroke="black" d="M411.024,-859.891C429.487,-831.852 467,-767.48 467,-707.306 467,-707.306 467,-707.306 467,-536.286 467,-488.245 468.003,-472.959 446,-430.253 437.176,-413.127 422.155,-397.392 409.61,-386.123"/>
<polygon fill="black" stroke="black" points="411.67,-383.279 401.814,-379.393 407.096,-388.577 411.67,-383.279"/>
</g>
<!-- TLR7/8/9 -->
<g id="node6" class="node"><title>TLR7/8/9</title>
<ellipse fill="none" stroke="black" cx="247" cy="-615.151" rx="18.0625" ry="18.0625"/>
<text text-anchor="middle" x="247" y="-613.951" font-family="Times,serif" font-size="4.00">TLR7/8/9</text>
</g>
<!-- MYD88 -->
<g id="node12" class="node"><title>MYD88</title>
<ellipse fill="none" stroke="black" cx="301" cy="-537.286" rx="18" ry="18"/>
<text text-anchor="middle" x="301" y="-536.086" font-family="Times,serif" font-size="4.00">MYD88</text>
</g>
<!-- TLR7/8/9&#45;&gt;MYD88 -->
<g id="edge6" class="edge"><title>TLR7/8/9&#45;&gt;MYD88</title>
<path fill="none" stroke="black" d="M257.157,-599.882C265.001,-588.861 276.003,-573.404 285.024,-560.732"/>
<polygon fill="black" stroke="black" points="287.941,-562.669 290.889,-552.492 282.238,-558.609 287.941,-562.669"/>
</g>
<!-- SERPINF2 -->
<g id="node7" class="node"><title>SERPINF2</title>
<ellipse fill="none" stroke="black" cx="356" cy="-187.019" rx="19.1842" ry="19.1842"/>
<text text-anchor="middle" x="356" y="-185.819" font-family="Times,serif" font-size="4.00">SERPINF2</text>
</g>
<!-- IFNB1 -->
<g id="node35" class="node"><title>IFNB1</title>
<ellipse fill="none" stroke="black" cx="356" cy="-104.912" rx="18" ry="18"/>
<text text-anchor="middle" x="356" y="-103.712" font-family="Times,serif" font-size="4.00">IFNB1</text>
</g>
<!-- SERPINF2&#45;&gt;IFNB1 -->
<g id="edge7" class="edge"><title>SERPINF2&#45;&gt;IFNB1</title>
<path fill="none" stroke="black" d="M356,-167.842C356,-157.627 356,-144.674 356,-133.257"/>
<polygon fill="black" stroke="black" points="359.5,-132.922 356,-122.922 352.5,-132.922 359.5,-132.922"/>
</g>
<!-- NEMO/IKKA/IKKB -->
<g id="node8" class="node"><title>NEMO/IKKA/IKKB</title>
<ellipse fill="none" stroke="black" cx="515" cy="-187.019" rx="28.2154" ry="28.2154"/>
<text text-anchor="middle" x="515" y="-185.819" font-family="Times,serif" font-size="4.00">NEMO/IKKA/IKKB</text>
</g>
<!-- NFKBIA -->
<g id="node33" class="node"><title>NFKBIA</title>
<ellipse fill="none" stroke="black" cx="515" cy="-104.912" rx="18" ry="18"/>
<text text-anchor="middle" x="515" y="-103.712" font-family="Times,serif" font-size="4.00">NFKBIA</text>
</g>
<!-- NEMO/IKKA/IKKB&#45;&gt;NFKBIA -->
<g id="edge8" class="edge"><title>NEMO/IKKA/IKKB&#45;&gt;NFKBIA</title>
<path fill="none" stroke="black" d="M515,-158.898C515,-150.693 515,-141.676 515,-133.443"/>
<polygon fill="black" stroke="black" points="518.5,-133.207 515,-123.208 511.5,-133.208 518.5,-133.207"/>
</g>
<!-- TRAF3 -->
<g id="node32" class="node"><title>TRAF3</title>
<ellipse fill="none" stroke="black" cx="152" cy="-706.306" rx="18" ry="18"/>
<text text-anchor="middle" x="152" y="-705.106" font-family="Times,serif" font-size="4.00">TRAF3</text>
</g>
<!-- TICAM1&#45;&gt;TRAF3 -->
<g id="edge9" class="edge"><title>TICAM1&#45;&gt;TRAF3</title>
<path fill="none" stroke="black" d="M265.637,-789.155C244.421,-779.243 206.844,-760.157 179,-737.595 175.767,-734.976 172.589,-731.953 169.612,-728.852"/>
<polygon fill="black" stroke="black" points="171.997,-726.269 162.711,-721.168 166.79,-730.947 171.997,-726.269"/>
</g>
<!-- TRIM59 -->
<g id="node11" class="node"><title>TRIM59</title>
<ellipse fill="none" stroke="black" cx="301" cy="-615.151" rx="18" ry="18"/>
<text text-anchor="middle" x="301" y="-613.951" font-family="Times,serif" font-size="4.00">TRIM59</text>
</g>
<!-- TRIM59&#45;&gt;MYD88 -->
<g id="edge10" class="edge"><title>TRIM59&#45;&gt;MYD88</title>
<path fill="none" stroke="black" d="M301,-596.936C301,-587.721 301,-576.154 301,-565.732"/>
<polygon fill="black" stroke="black" points="304.5,-565.433 301,-555.433 297.5,-565.433 304.5,-565.433"/>
</g>
<!-- LPS/TLR4/MYD88 -->
<g id="node21" class="node"><title>LPS/TLR4/MYD88</title>
<ellipse fill="none" stroke="black" cx="356" cy="-456.77" rx="26.533" ry="26.533"/>
<text text-anchor="middle" x="356" y="-455.57" font-family="Times,serif" font-size="4.00">LPS/TLR4/MYD88</text>
</g>
<!-- MYD88&#45;&gt;LPS/TLR4/MYD88 -->
<g id="edge12" class="edge"><title>MYD88&#45;&gt;LPS/TLR4/MYD88</title>
<path fill="none" stroke="black" d="M311.088,-521.885C317.876,-512.195 327.068,-499.073 335.368,-487.224"/>
<polygon fill="black" stroke="black" points="338.336,-489.087 341.207,-478.888 332.603,-485.071 338.336,-489.087"/>
</g>
<!-- MYD88&#45;&gt;TRAF6 -->
<g id="edge11" class="edge"><title>MYD88&#45;&gt;TRAF6</title>
<path fill="none" stroke="black" d="M300.682,-518.962C301.012,-496.948 304.099,-458.43 320,-430.253 331.918,-409.134 343.074,-410.584 361,-394.253 363.235,-392.217 365.557,-390.071 367.858,-387.924"/>
<polygon fill="black" stroke="black" points="370.57,-390.179 375.452,-380.776 365.772,-385.082 370.57,-390.179"/>
</g>
<!-- PYCARD -->
<g id="node13" class="node"><title>PYCARD</title>
<ellipse fill="none" stroke="black" cx="193" cy="-615.151" rx="18" ry="18"/>
<text text-anchor="middle" x="193" y="-613.951" font-family="Times,serif" font-size="4.00">PYCARD</text>
</g>
<!-- PYCARD&#45;&gt;CASP1 -->
<g id="edge13" class="edge"><title>PYCARD&#45;&gt;CASP1</title>
<path fill="none" stroke="black" d="M182.843,-599.882C174.999,-588.861 163.997,-573.404 154.976,-560.732"/>
<polygon fill="black" stroke="black" points="157.762,-558.609 149.111,-552.492 152.059,-562.669 157.762,-558.609"/>
</g>
<!-- LPS/TNF α/IL&#45;1 -->
<g id="node14" class="node"><title>LPS/TNF α/IL&#45;1</title>
<ellipse fill="none" stroke="black" cx="85" cy="-797.46" rx="23.7305" ry="23.7305"/>
<text text-anchor="middle" x="85" y="-796.26" font-family="Times,serif" font-size="4.00">LPS/TNF α/IL&#45;1</text>
</g>
<!-- IKBKG/IKBKB/CHUK -->
<g id="node31" class="node"><title>IKBKG/IKBKB/CHUK</title>
<ellipse fill="none" stroke="black" cx="85" cy="-706.306" rx="31.0804" ry="31.0804"/>
<text text-anchor="middle" x="85" y="-705.106" font-family="Times,serif" font-size="4.00">IKBKG/IKBKB/CHUK</text>
</g>
<!-- LPS/TNF α/IL&#45;1&#45;&gt;IKBKG/IKBKB/CHUK -->
<g id="edge14" class="edge"><title>LPS/TNF α/IL&#45;1&#45;&gt;IKBKG/IKBKB/CHUK</title>
<path fill="none" stroke="black" d="M85,-773.5C85,-765.713 85,-756.764 85,-748.016"/>
<polygon fill="black" stroke="black" points="88.5001,-747.919 85,-737.919 81.5001,-747.919 88.5001,-747.919"/>
</g>
<!-- S -->
<g id="node15" class="node"><title>S</title>
<ellipse fill="none" stroke="black" cx="355" cy="-615.151" rx="18" ry="18"/>
<text text-anchor="middle" x="355" y="-613.951" font-family="Times,serif" font-size="4.00">S</text>
</g>
<!-- Hops Complex -->
<g id="node16" class="node"><title>Hops Complex</title>
<ellipse fill="none" stroke="black" cx="415" cy="-615.151" rx="23.7305" ry="23.7305"/>
<text text-anchor="middle" x="415" y="-613.951" font-family="Times,serif" font-size="4.00">Hops Complex</text>
</g>
<!-- TLR4 -->
<g id="node17" class="node"><title>TLR4</title>
<ellipse fill="none" stroke="black" cx="356" cy="-537.286" rx="18" ry="18"/>
<text text-anchor="middle" x="356" y="-536.086" font-family="Times,serif" font-size="4.00">TLR4</text>
</g>
<!-- TLR4&#45;&gt;LPS/TLR4/MYD88 -->
<g id="edge15" class="edge"><title>TLR4&#45;&gt;LPS/TLR4/MYD88</title>
<path fill="none" stroke="black" d="M356,-519.249C356,-511.729 356,-502.586 356,-493.675"/>
<polygon fill="black" stroke="black" points="359.5,-493.432 356,-483.432 352.5,-493.432 359.5,-493.432"/>
</g>
<!-- TLR3 -->
<g id="node18" class="node"><title>TLR3</title>
<ellipse fill="none" stroke="black" cx="282" cy="-875.325" rx="18" ry="18"/>
<text text-anchor="middle" x="282" y="-874.125" font-family="Times,serif" font-size="4.00">TLR3</text>
</g>
<!-- TLR3&#45;&gt;TICAM1 -->
<g id="edge16" class="edge"><title>TLR3&#45;&gt;TICAM1</title>
<path fill="none" stroke="black" d="M282,-857.11C282,-847.895 282,-836.327 282,-825.906"/>
<polygon fill="black" stroke="black" points="285.5,-825.607 282,-815.607 278.5,-825.607 285.5,-825.607"/>
</g>
<!-- TRIM29 -->
<g id="node19" class="node"><title>TRIM29</title>
<ellipse fill="none" stroke="black" cx="542" cy="-278.174" rx="18" ry="18"/>
<text text-anchor="middle" x="542" y="-276.974" font-family="Times,serif" font-size="4.00">TRIM29</text>
</g>
<!-- TRIM29&#45;&gt;NEMO/IKKA/IKKB -->
<g id="edge17" class="edge"><title>TRIM29&#45;&gt;NEMO/IKKA/IKKB</title>
<path fill="none" stroke="black" d="M537.048,-260.821C533.924,-250.508 529.764,-236.771 525.9,-224.01"/>
<polygon fill="black" stroke="black" points="529.137,-222.625 522.889,-214.068 522.438,-224.654 529.137,-222.625"/>
</g>
<!-- ORF8b -->
<g id="node20" class="node"><title>ORF8b</title>
<ellipse fill="none" stroke="black" cx="206" cy="-706.306" rx="18" ry="18"/>
<text text-anchor="middle" x="206" y="-705.106" font-family="Times,serif" font-size="4.00">ORF8b</text>
</g>
<!-- NLRP3 -->
<g id="node26" class="node"><title>NLRP3</title>
<ellipse fill="none" stroke="black" cx="139" cy="-615.151" rx="18" ry="18"/>
<text text-anchor="middle" x="139" y="-613.951" font-family="Times,serif" font-size="4.00">NLRP3</text>
</g>
<!-- ORF8b&#45;&gt;NLRP3 -->
<g id="edge18" class="edge"><title>ORF8b&#45;&gt;NLRP3</title>
<path fill="none" stroke="black" d="M195.531,-691.375C184.813,-677.112 167.997,-654.736 155.489,-638.092"/>
<polygon fill="black" stroke="black" points="158.201,-635.875 149.395,-629.984 152.605,-640.081 158.201,-635.875"/>
</g>
<!-- LPS/TLR4/MYD88&#45;&gt;TRAF6 -->
<g id="edge19" class="edge"><title>LPS/TLR4/MYD88&#45;&gt;TRAF6</title>
<path fill="none" stroke="black" d="M364.914,-431.526C369.148,-420.011 374.211,-406.24 378.516,-394.533"/>
<polygon fill="black" stroke="black" points="381.897,-395.478 382.063,-384.884 375.327,-393.062 381.897,-395.478"/>
</g>
<!-- TRIM27/TRIM21 -->
<g id="node22" class="node"><title>TRIM27/TRIM21</title>
<ellipse fill="none" stroke="black" cx="603" cy="-278.174" rx="25.4118" ry="25.4118"/>
<text text-anchor="middle" x="603" y="-276.974" font-family="Times,serif" font-size="4.00">TRIM27/TRIM21</text>
</g>
<!-- TRIM27/TRIM21&#45;&gt;NEMO/IKKA/IKKB -->
<g id="edge20" class="edge"><title>TRIM27/TRIM21&#45;&gt;NEMO/IKKA/IKKB</title>
<path fill="none" stroke="black" d="M585.614,-259.559C573.074,-246.855 555.913,-229.469 541.649,-215.018"/>
<polygon fill="black" stroke="black" points="544.01,-212.427 534.494,-207.769 539.028,-217.345 544.01,-212.427"/>
</g>
<!-- BTRC -->
<g id="node23" class="node"><title>BTRC</title>
<ellipse fill="none" stroke="black" cx="635" cy="-187.019" rx="18" ry="18"/>
<text text-anchor="middle" x="635" y="-185.819" font-family="Times,serif" font-size="4.00">BTRC</text>
</g>
<!-- BTRC&#45;&gt;NFKBIA -->
<g id="edge21" class="edge"><title>BTRC&#45;&gt;NFKBIA</title>
<path fill="none" stroke="black" d="M620.286,-176.196C599.863,-162.563 562.707,-137.759 538.442,-121.56"/>
<polygon fill="black" stroke="black" points="540.095,-118.456 529.835,-115.815 536.209,-124.278 540.095,-118.456"/>
</g>
<!-- CACTIN -->
<g id="node24" class="node"><title>CACTIN</title>
<ellipse fill="none" stroke="black" cx="456" cy="-104.912" rx="18" ry="18"/>
<text text-anchor="middle" x="456" y="-103.712" font-family="Times,serif" font-size="4.00">CACTIN</text>
</g>
<!-- CACTIN&#45;&gt;NFKB1_NFKNIA -->
<g id="edge22" class="edge"><title>CACTIN&#45;&gt;NFKB1_NFKNIA</title>
<path fill="none" stroke="black" d="M466.548,-90.0641C474.089,-80.1648 484.494,-66.5042 493.73,-54.3794"/>
<polygon fill="black" stroke="black" points="496.612,-56.3717 499.887,-46.2958 491.044,-52.13 496.612,-56.3717"/>
</g>
<!-- TRIM30a/TRIM38 -->
<g id="node25" class="node"><title>TRIM30a/TRIM38</title>
<ellipse fill="none" stroke="black" cx="325" cy="-367.737" rx="26.533" ry="26.533"/>
<text text-anchor="middle" x="325" y="-366.537" font-family="Times,serif" font-size="4.00">TRIM30a/TRIM38</text>
</g>
<!-- TAB2/TAB3/TAK1 -->
<g id="node41" class="node"><title>TAB2/TAB3/TAK1</title>
<ellipse fill="none" stroke="black" cx="356" cy="-278.174" rx="27.0938" ry="27.0938"/>
<text text-anchor="middle" x="356" y="-276.974" font-family="Times,serif" font-size="4.00">TAB2/TAB3/TAK1</text>
</g>
<!-- TRIM30a/TRIM38&#45;&gt;TAB2/TAB3/TAK1 -->
<g id="edge23" class="edge"><title>TRIM30a/TRIM38&#45;&gt;TAB2/TAB3/TAK1</title>
<path fill="none" stroke="black" d="M333.635,-342.346C336.773,-333.482 340.382,-323.29 343.771,-313.715"/>
<polygon fill="black" stroke="black" points="347.158,-314.637 347.196,-304.042 340.559,-312.301 347.158,-314.637"/>
</g>
<!-- NLRP3&#45;&gt;CASP1 -->
<g id="edge24" class="edge"><title>NLRP3&#45;&gt;CASP1</title>
<path fill="none" stroke="black" d="M139,-596.936C139,-587.721 139,-576.154 139,-565.732"/>
<polygon fill="black" stroke="black" points="142.5,-565.433 139,-555.433 135.5,-565.433 142.5,-565.433"/>
</g>
<!-- TRIM39 -->
<g id="node27" class="node"><title>TRIM39</title>
<ellipse fill="none" stroke="black" cx="451" cy="-187.019" rx="18" ry="18"/>
<text text-anchor="middle" x="451" y="-185.819" font-family="Times,serif" font-size="4.00">TRIM39</text>
</g>
<!-- TRIM39&#45;&gt;CACTIN -->
<g id="edge25" class="edge"><title>TRIM39&#45;&gt;CACTIN</title>
<path fill="none" stroke="black" d="M452.06,-169.03C452.706,-158.692 453.545,-145.245 454.283,-133.42"/>
<polygon fill="black" stroke="black" points="457.794,-133.351 454.924,-123.152 450.808,-132.915 457.794,-133.351"/>
</g>
<!-- IRF6 -->
<g id="node28" class="node"><title>IRF6</title>
<ellipse fill="none" stroke="black" cx="410" cy="-537.286" rx="18" ry="18"/>
<text text-anchor="middle" x="410" y="-536.086" font-family="Times,serif" font-size="4.00">IRF6</text>
</g>
<!-- IRF6&#45;&gt;LPS/TLR4/MYD88 -->
<g id="edge26" class="edge"><title>IRF6&#45;&gt;LPS/TLR4/MYD88</title>
<path fill="none" stroke="black" d="M400.096,-521.885C393.48,-512.267 384.539,-499.266 376.437,-487.486"/>
<polygon fill="black" stroke="black" points="379.282,-485.445 370.731,-479.189 373.514,-489.412 379.282,-485.445"/>
</g>
<!-- ssRNA -->
<g id="node29" class="node"><title>ssRNA</title>
<ellipse fill="none" stroke="black" cx="260" cy="-706.306" rx="18" ry="18"/>
<text text-anchor="middle" x="260" y="-705.106" font-family="Times,serif" font-size="4.00">ssRNA</text>
</g>
<!-- ssRNA&#45;&gt;TLR7/8/9 -->
<g id="edge27" class="edge"><title>ssRNA&#45;&gt;TLR7/8/9</title>
<path fill="none" stroke="black" d="M257.493,-688.116C255.641,-675.412 253.082,-657.863 250.955,-643.275"/>
<polygon fill="black" stroke="black" points="254.405,-642.679 249.499,-633.288 247.478,-643.689 254.405,-642.679"/>
</g>
<!-- TRIM23 -->
<g id="node30" class="node"><title>TRIM23</title>
<ellipse fill="none" stroke="black" cx="419" cy="-456.77" rx="18" ry="18"/>
<text text-anchor="middle" x="419" y="-455.57" font-family="Times,serif" font-size="4.00">TRIM23</text>
</g>
<!-- TRIM23&#45;&gt;TRAF6 -->
<g id="edge28" class="edge"><title>TRIM23&#45;&gt;TRAF6</title>
<path fill="none" stroke="black" d="M413.169,-439.4C408.666,-426.757 402.35,-409.025 397.172,-394.486"/>
<polygon fill="black" stroke="black" points="400.457,-393.28 393.805,-385.034 393.863,-395.628 400.457,-393.28"/>
</g>
<!-- IKBKG/IKBKB/CHUK&#45;&gt;P65/P015 -->
<g id="edge29" class="edge"><title>IKBKG/IKBKB/CHUK&#45;&gt;P65/P015</title>
<path fill="none" stroke="black" d="M85,-674.624C85,-664.488 85,-653.288 85,-643.426"/>
<polygon fill="black" stroke="black" points="88.5001,-643.362 85,-633.363 81.5001,-643.363 88.5001,-643.362"/>
</g>
<!-- TRAF3&#45;&gt;P65/P015 -->
<g id="edge31" class="edge"><title>TRAF3&#45;&gt;P65/P015</title>
<path fill="none" stroke="black" d="M141.531,-691.375C130.813,-677.112 113.997,-654.736 101.489,-638.092"/>
<polygon fill="black" stroke="black" points="104.201,-635.875 95.3952,-629.984 98.605,-640.081 104.201,-635.875"/>
</g>
<!-- TRAF3&#45;&gt;PYCARD -->
<g id="edge30" class="edge"><title>TRAF3&#45;&gt;PYCARD</title>
<path fill="none" stroke="black" d="M159.142,-689.776C165.336,-676.308 174.411,-656.573 181.607,-640.924"/>
<polygon fill="black" stroke="black" points="184.804,-642.35 185.803,-631.802 178.445,-639.425 184.804,-642.35"/>
</g>
<!-- NFKBIA&#45;&gt;NFKB1_NFKNIA -->
<g id="edge32" class="edge"><title>NFKBIA&#45;&gt;NFKB1_NFKNIA</title>
<path fill="none" stroke="black" d="M515,-86.7217C515,-79.1618 515,-69.9963 515,-61.1189"/>
<polygon fill="black" stroke="black" points="518.5,-60.9434 515,-50.9434 511.5,-60.9434 518.5,-60.9434"/>
</g>
<!-- E -->
<g id="node34" class="node"><title>E</title>
<ellipse fill="none" stroke="black" cx="18" cy="-706.306" rx="18" ry="18"/>
<text text-anchor="middle" x="18" y="-705.106" font-family="Times,serif" font-size="4.00">E</text>
</g>
<!-- E&#45;&gt;P65/P015 -->
<g id="edge34" class="edge"><title>E&#45;&gt;P65/P015</title>
<path fill="none" stroke="black" d="M28.4688,-691.375C39.1874,-677.112 56.003,-654.736 68.5114,-638.092"/>
<polygon fill="black" stroke="black" points="71.395,-640.081 74.6048,-629.984 65.799,-635.875 71.395,-640.081"/>
</g>
<!-- E&#45;&gt;IL1b -->
<g id="edge33" class="edge"><title>E&#45;&gt;IL1b</title>
<path fill="none" stroke="black" d="M22.5001,-688.68C33.8951,-646.58 63.9647,-535.486 77.8213,-484.292"/>
<polygon fill="black" stroke="black" points="81.2852,-484.891 80.5195,-474.323 74.5283,-483.062 81.2852,-484.891"/>
</g>
<!-- TRAF6&#45;&gt;TAB2/TAB3/TAK1 -->
<g id="edge35" class="edge"><title>TRAF6&#45;&gt;TAB2/TAB3/TAK1</title>
<path fill="none" stroke="black" d="M382.131,-350.676C378.306,-340.211 373.17,-326.156 368.463,-313.276"/>
<polygon fill="black" stroke="black" points="371.696,-311.927 364.976,-303.736 365.121,-314.33 371.696,-311.927"/>
</g>
<!-- double&#45;stranded RNA -->
<g id="node37" class="node"><title>double&#45;stranded RNA</title>
<ellipse fill="none" stroke="black" cx="282" cy="-960.084" rx="30.5202" ry="30.5202"/>
<text text-anchor="middle" x="282" y="-958.884" font-family="Times,serif" font-size="4.00">double&#45;stranded RNA</text>
</g>
<!-- double&#45;stranded RNA&#45;&gt;TLR3 -->
<g id="edge36" class="edge"><title>double&#45;stranded RNA&#45;&gt;TLR3</title>
<path fill="none" stroke="black" d="M282,-929.206C282,-920.836 282,-911.784 282,-903.575"/>
<polygon fill="black" stroke="black" points="285.5,-903.397 282,-893.397 278.5,-903.397 285.5,-903.397"/>
</g>
<!-- TRIM14/TRIM23 -->
<g id="node38" class="node"><title>TRIM14/TRIM23</title>
<ellipse fill="none" stroke="black" cx="427" cy="-278.174" rx="25.4118" ry="25.4118"/>
<text text-anchor="middle" x="427" y="-276.974" font-family="Times,serif" font-size="4.00">TRIM14/TRIM23</text>
</g>
<!-- TRIM14/TRIM23&#45;&gt;NEMO/IKKA/IKKB -->
<g id="edge37" class="edge"><title>TRIM14/TRIM23&#45;&gt;NEMO/IKKA/IKKB</title>
<path fill="none" stroke="black" d="M444.386,-259.559C456.926,-246.855 474.087,-229.469 488.351,-215.018"/>
<polygon fill="black" stroke="black" points="490.972,-217.345 495.506,-207.769 485.99,-212.427 490.972,-217.345"/>
</g>
<!-- Orf3a -->
<g id="node39" class="node"><title>Orf3a</title>
<ellipse fill="none" stroke="black" cx="314" cy="-706.306" rx="18" ry="18"/>
<text text-anchor="middle" x="314" y="-705.106" font-family="Times,serif" font-size="4.00">Orf3a</text>
</g>
<!-- Orf3a&#45;&gt;P65/P015 -->
<g id="edge42" class="edge"><title>Orf3a&#45;&gt;P65/P015</title>
<path fill="none" stroke="black" d="M304.222,-690.763C299.643,-685.022 293.714,-678.885 287,-675.016 218.201,-635.366 183.405,-673.753 112,-639.016 109.68,-637.887 107.395,-636.514 105.195,-635.006"/>
<polygon fill="black" stroke="black" points="107.269,-632.184 97.243,-628.759 102.944,-637.689 107.269,-632.184"/>
</g>
<!-- Orf3a&#45;&gt;TRIM59 -->
<g id="edge40" class="edge"><title>Orf3a&#45;&gt;TRIM59</title>
<path fill="none" stroke="black" d="M311.493,-688.116C309.629,-675.33 307.049,-657.638 304.914,-642.995"/>
<polygon fill="black" stroke="black" points="308.361,-642.376 303.455,-632.986 301.434,-643.386 308.361,-642.376"/>
</g>
<!-- Orf3a&#45;&gt;PYCARD -->
<g id="edge39" class="edge"><title>Orf3a&#45;&gt;PYCARD</title>
<path fill="none" stroke="black" d="M303.351,-691.365C298.712,-685.855 292.973,-679.728 287,-675.016 260.46,-654.08 247.941,-658.043 220,-639.016 217.868,-637.564 215.708,-635.973 213.588,-634.327"/>
<polygon fill="black" stroke="black" points="215.696,-631.53 205.745,-627.892 211.256,-636.941 215.696,-631.53"/>
</g>
<!-- Orf3a&#45;&gt;S -->
<g id="edge41" class="edge"><title>Orf3a&#45;&gt;S</title>
<path fill="none" stroke="black" d="M321.142,-689.776C327.336,-676.308 336.411,-656.573 343.607,-640.924"/>
<polygon fill="black" stroke="black" points="346.804,-642.35 347.803,-631.802 340.445,-639.425 346.804,-642.35"/>
</g>
<!-- Orf3a&#45;&gt;Hops Complex -->
<g id="edge38" class="edge"><title>Orf3a&#45;&gt;Hops Complex</title>
<path fill="none" stroke="black" d="M327.204,-693.65C342.995,-679.711 369.778,-656.07 389.619,-638.555"/>
<polygon fill="black" stroke="black" points="392.197,-640.948 397.378,-631.706 387.565,-635.7 392.197,-640.948"/>
</g>
<!-- TRIM9 -->
<g id="node40" class="node"><title>TRIM9</title>
<ellipse fill="none" stroke="black" cx="664" cy="-278.174" rx="18" ry="18"/>
<text text-anchor="middle" x="664" y="-276.974" font-family="Times,serif" font-size="4.00">TRIM9</text>
</g>
<!-- TRIM9&#45;&gt;BTRC -->
<g id="edge43" class="edge"><title>TRIM9&#45;&gt;BTRC</title>
<path fill="none" stroke="black" d="M658.681,-260.821C654.43,-247.751 648.389,-229.182 643.473,-214.068"/>
<polygon fill="black" stroke="black" points="646.707,-212.695 640.285,-204.268 640.05,-214.86 646.707,-212.695"/>
</g>
<!-- TAB2/TAB3/TAK1&#45;&gt;SERPINF2 -->
<g id="edge44" class="edge"><title>TAB2/TAB3/TAK1&#45;&gt;SERPINF2</title>
<path fill="none" stroke="black" d="M356,-250.906C356,-240.008 356,-227.341 356,-216.245"/>
<polygon fill="black" stroke="black" points="359.5,-216.195 356,-206.195 352.5,-216.195 359.5,-216.195"/>
</g>
<!-- TAB2/TAB3/TAK1&#45;&gt;NEMO/IKKA/IKKB -->
<g id="edge45" class="edge"><title>TAB2/TAB3/TAK1&#45;&gt;NEMO/IKKA/IKKB</title>
<path fill="none" stroke="black" d="M377.412,-260.95C382.399,-257.499 387.781,-254.026 393,-251.127 428.865,-231.206 442.325,-235.386 478,-215.127 480.242,-213.854 482.508,-212.469 484.758,-211.021"/>
<polygon fill="black" stroke="black" points="486.965,-213.753 493.257,-205.229 483.023,-207.968 486.965,-213.753"/>
</g>
<!-- TRIM22 -->
<g id="node42" class="node"><title>TRIM22</title>
<ellipse fill="none" stroke="black" cx="488" cy="-278.174" rx="18" ry="18"/>
<text text-anchor="middle" x="488" y="-276.974" font-family="Times,serif" font-size="4.00">TRIM22</text>
</g>
<!-- TRIM22&#45;&gt;NEMO/IKKA/IKKB -->
<g id="edge46" class="edge"><title>TRIM22&#45;&gt;NEMO/IKKA/IKKB</title>
<path fill="none" stroke="black" d="M492.952,-260.821C496.076,-250.508 500.236,-236.771 504.1,-224.01"/>
<polygon fill="black" stroke="black" points="507.562,-224.654 507.111,-214.068 500.863,-222.625 507.562,-224.654"/>
</g>
</g>
</svg>
