<?xml version="1.0" encoding="UTF-8" standalone="no"?>
<!DOCTYPE svg PUBLIC "-//W3C//DTD SVG 1.1//EN"
 "http://www.w3.org/Graphics/SVG/1.1/DTD/svg11.dtd">
<!-- Generated by graphviz version 2.38.0 (20140413.2041)
 -->
<!-- Title: G Pages: 1 -->
<svg width="587pt" height="999pt"
 viewBox="0.00 0.00 587.00 998.84" xmlns="http://www.w3.org/2000/svg" xmlns:xlink="http://www.w3.org/1999/xlink">
<g id="graph0" class="graph" transform="scale(1 1) rotate(0) translate(4 994.843)">
<title>G</title>
<polygon fill="white" stroke="none" points="-4,4 -4,-994.843 583,-994.843 583,4 -4,4"/>
<!-- P65/P015 -->
<g id="node1" class="node"><title>P65/P015</title>
<ellipse fill="none" stroke="black" cx="79" cy="-615.151" rx="18.0625" ry="18.0625"/>
<text text-anchor="middle" x="79" y="-613.951" font-family="Times,serif" font-size="4.00">P65/P015</text>
</g>
<!-- IL1b -->
<g id="node2" class="node"><title>IL1b</title>
<ellipse fill="none" stroke="black" cx="79" cy="-456.77" rx="18" ry="18"/>
<text text-anchor="middle" x="79" y="-455.57" font-family="Times,serif" font-size="4.00">IL1b</text>
</g>
<!-- P65/P015&#45;&gt;IL1b -->
<g id="edge1" class="edge"><title>P65/P015&#45;&gt;IL1b</title>
<path fill="none" stroke="black" d="M79,-597.118C79,-570.092 79,-517.149 79,-484.87"/>
<polygon fill="black" stroke="black" points="82.5001,-484.782 79,-474.782 75.5001,-484.782 82.5001,-484.782"/>
</g>
<!-- TLR4 -->
<g id="node3" class="node"><title>TLR4</title>
<ellipse fill="none" stroke="black" cx="561" cy="-537.286" rx="18" ry="18"/>
<text text-anchor="middle" x="561" y="-536.086" font-family="Times,serif" font-size="4.00">TLR4</text>
</g>
<!-- LPS/TLR4/MYD88 -->
<g id="node14" class="node"><title>LPS/TLR4/MYD88</title>
<ellipse fill="none" stroke="black" cx="505" cy="-456.77" rx="26.533" ry="26.533"/>
<text text-anchor="middle" x="505" y="-455.57" font-family="Times,serif" font-size="4.00">LPS/TLR4/MYD88</text>
</g>
<!-- TLR4&#45;&gt;LPS/TLR4/MYD88 -->
<g id="edge2" class="edge"><title>TLR4&#45;&gt;LPS/TLR4/MYD88</title>
<path fill="none" stroke="black" d="M550.988,-522.249C544.052,-512.524 534.561,-499.217 526.003,-487.217"/>
<polygon fill="black" stroke="black" points="528.641,-484.889 519.985,-478.78 522.942,-488.954 528.641,-484.889"/>
</g>
<!-- TLR3 -->
<g id="node4" class="node"><title>TLR3</title>
<ellipse fill="none" stroke="black" cx="245" cy="-875.325" rx="18" ry="18"/>
<text text-anchor="middle" x="245" y="-874.125" font-family="Times,serif" font-size="4.00">TLR3</text>
</g>
<!-- TICAM1 -->
<g id="node25" class="node"><title>TICAM1</title>
<ellipse fill="none" stroke="black" cx="245" cy="-797.46" rx="18" ry="18"/>
<text text-anchor="middle" x="245" y="-796.26" font-family="Times,serif" font-size="4.00">TICAM1</text>
</g>
<!-- TLR3&#45;&gt;TICAM1 -->
<g id="edge3" class="edge"><title>TLR3&#45;&gt;TICAM1</title>
<path fill="none" stroke="black" d="M245,-857.11C245,-847.895 245,-836.327 245,-825.906"/>
<polygon fill="black" stroke="black" points="248.5,-825.607 245,-815.607 241.5,-825.607 248.5,-825.607"/>
</g>
<!-- MYD88 -->
<g id="node5" class="node"><title>MYD88</title>
<ellipse fill="none" stroke="black" cx="453" cy="-537.286" rx="18" ry="18"/>
<text text-anchor="middle" x="453" y="-536.086" font-family="Times,serif" font-size="4.00">MYD88</text>
</g>
<!-- TRAF6 -->
<g id="node8" class="node"><title>TRAF6</title>
<ellipse fill="none" stroke="black" cx="427" cy="-367.737" rx="18" ry="18"/>
<text text-anchor="middle" x="427" y="-366.537" font-family="Times,serif" font-size="4.00">TRAF6</text>
</g>
<!-- MYD88&#45;&gt;TRAF6 -->
<g id="edge5" class="edge"><title>MYD88&#45;&gt;TRAF6</title>
<path fill="none" stroke="black" d="M450.364,-519.299C445.848,-490.196 436.596,-430.579 431.189,-395.729"/>
<polygon fill="black" stroke="black" points="434.635,-395.114 429.643,-385.769 427.718,-396.188 434.635,-395.114"/>
</g>
<!-- MYD88&#45;&gt;LPS/TLR4/MYD88 -->
<g id="edge4" class="edge"><title>MYD88&#45;&gt;LPS/TLR4/MYD88</title>
<path fill="none" stroke="black" d="M462.538,-521.885C468.846,-512.36 477.351,-499.518 485.092,-487.829"/>
<polygon fill="black" stroke="black" points="488.211,-489.459 490.814,-479.189 482.375,-485.594 488.211,-489.459"/>
</g>
<!-- TRIM29 -->
<g id="node6" class="node"><title>TRIM29</title>
<ellipse fill="none" stroke="black" cx="327" cy="-278.174" rx="18" ry="18"/>
<text text-anchor="middle" x="327" y="-276.974" font-family="Times,serif" font-size="4.00">TRIM29</text>
</g>
<!-- NEMO/IKKA/IKKB -->
<g id="node31" class="node"><title>NEMO/IKKA/IKKB</title>
<ellipse fill="none" stroke="black" cx="327" cy="-187.019" rx="28.2154" ry="28.2154"/>
<text text-anchor="middle" x="327" y="-185.819" font-family="Times,serif" font-size="4.00">NEMO/IKKA/IKKB</text>
</g>
<!-- TRIM29&#45;&gt;NEMO/IKKA/IKKB -->
<g id="edge6" class="edge"><title>TRIM29&#45;&gt;NEMO/IKKA/IKKB</title>
<path fill="none" stroke="black" d="M327,-259.984C327,-250.2 327,-237.542 327,-225.576"/>
<polygon fill="black" stroke="black" points="330.5,-225.329 327,-215.329 323.5,-225.329 330.5,-225.329"/>
</g>
<!-- E -->
<g id="node7" class="node"><title>E</title>
<ellipse fill="none" stroke="black" cx="18" cy="-706.306" rx="18" ry="18"/>
<text text-anchor="middle" x="18" y="-705.106" font-family="Times,serif" font-size="4.00">E</text>
</g>
<!-- E&#45;&gt;P65/P015 -->
<g id="edge8" class="edge"><title>E&#45;&gt;P65/P015</title>
<path fill="none" stroke="black" d="M27.8007,-690.981C37.4053,-676.944 52.1952,-655.328 63.414,-638.931"/>
<polygon fill="black" stroke="black" points="66.4653,-640.669 69.2236,-630.44 60.6882,-636.717 66.4653,-640.669"/>
</g>
<!-- E&#45;&gt;IL1b -->
<g id="edge7" class="edge"><title>E&#45;&gt;IL1b</title>
<path fill="none" stroke="black" d="M22.0971,-688.68C32.4717,-646.58 59.8485,-535.486 72.4642,-484.292"/>
<polygon fill="black" stroke="black" points="75.9263,-484.87 74.9207,-474.323 69.1296,-483.195 75.9263,-484.87"/>
</g>
<!-- TAB2/TAB3/TAK1 -->
<g id="node37" class="node"><title>TAB2/TAB3/TAK1</title>
<ellipse fill="none" stroke="black" cx="459" cy="-278.174" rx="27.0938" ry="27.0938"/>
<text text-anchor="middle" x="459" y="-276.974" font-family="Times,serif" font-size="4.00">TAB2/TAB3/TAK1</text>
</g>
<!-- TRAF6&#45;&gt;TAB2/TAB3/TAK1 -->
<g id="edge9" class="edge"><title>TRAF6&#45;&gt;TAB2/TAB3/TAK1</title>
<path fill="none" stroke="black" d="M432.869,-350.676C436.694,-340.211 441.83,-326.156 446.537,-313.276"/>
<polygon fill="black" stroke="black" points="449.879,-314.33 450.024,-303.736 443.304,-311.927 449.879,-314.33"/>
</g>
<!-- CACTIN -->
<g id="node9" class="node"><title>CACTIN</title>
<ellipse fill="none" stroke="black" cx="479" cy="-104.912" rx="18" ry="18"/>
<text text-anchor="middle" x="479" y="-103.712" font-family="Times,serif" font-size="4.00">CACTIN</text>
</g>
<!-- NFKB1_NFKNIA -->
<g id="node21" class="node"><title>NFKB1_NFKNIA</title>
<ellipse fill="none" stroke="black" cx="479" cy="-25.4558" rx="25.4118" ry="25.4118"/>
<text text-anchor="middle" x="479" y="-24.2558" font-family="Times,serif" font-size="4.00">NFKB1_NFKNIA</text>
</g>
<!-- CACTIN&#45;&gt;NFKB1_NFKNIA -->
<g id="edge10" class="edge"><title>CACTIN&#45;&gt;NFKB1_NFKNIA</title>
<path fill="none" stroke="black" d="M479,-86.7217C479,-79.1618 479,-69.9963 479,-61.1189"/>
<polygon fill="black" stroke="black" points="482.5,-60.9434 479,-50.9434 475.5,-60.9434 482.5,-60.9434"/>
</g>
<!-- TLR7/8/9 -->
<g id="node10" class="node"><title>TLR7/8/9</title>
<ellipse fill="none" stroke="black" cx="453" cy="-615.151" rx="18.0625" ry="18.0625"/>
<text text-anchor="middle" x="453" y="-613.951" font-family="Times,serif" font-size="4.00">TLR7/8/9</text>
</g>
<!-- TLR7/8/9&#45;&gt;MYD88 -->
<g id="edge11" class="edge"><title>TLR7/8/9&#45;&gt;MYD88</title>
<path fill="none" stroke="black" d="M453,-596.936C453,-587.721 453,-576.154 453,-565.732"/>
<polygon fill="black" stroke="black" points="456.5,-565.433 453,-555.433 449.5,-565.433 456.5,-565.433"/>
</g>
<!-- TRIM9 -->
<g id="node11" class="node"><title>TRIM9</title>
<ellipse fill="none" stroke="black" cx="151" cy="-278.174" rx="18" ry="18"/>
<text text-anchor="middle" x="151" y="-276.974" font-family="Times,serif" font-size="4.00">TRIM9</text>
</g>
<!-- BTRC -->
<g id="node16" class="node"><title>BTRC</title>
<ellipse fill="none" stroke="black" cx="207" cy="-187.019" rx="18" ry="18"/>
<text text-anchor="middle" x="207" y="-185.819" font-family="Times,serif" font-size="4.00">BTRC</text>
</g>
<!-- TRIM9&#45;&gt;BTRC -->
<g id="edge12" class="edge"><title>TRIM9&#45;&gt;BTRC</title>
<path fill="none" stroke="black" d="M160.247,-262.451C168.921,-248.643 182.038,-227.76 192.172,-211.625"/>
<polygon fill="black" stroke="black" points="195.384,-213.093 197.739,-202.763 189.456,-209.369 195.384,-213.093"/>
</g>
<!-- IFNB1 -->
<g id="node12" class="node"><title>IFNB1</title>
<ellipse fill="none" stroke="black" cx="425" cy="-104.912" rx="18" ry="18"/>
<text text-anchor="middle" x="425" y="-103.712" font-family="Times,serif" font-size="4.00">IFNB1</text>
</g>
<!-- SERPINF2 -->
<g id="node13" class="node"><title>SERPINF2</title>
<ellipse fill="none" stroke="black" cx="425" cy="-187.019" rx="19.1842" ry="19.1842"/>
<text text-anchor="middle" x="425" y="-185.819" font-family="Times,serif" font-size="4.00">SERPINF2</text>
</g>
<!-- SERPINF2&#45;&gt;IFNB1 -->
<g id="edge13" class="edge"><title>SERPINF2&#45;&gt;IFNB1</title>
<path fill="none" stroke="black" d="M425,-167.842C425,-157.627 425,-144.674 425,-133.257"/>
<polygon fill="black" stroke="black" points="428.5,-132.922 425,-122.922 421.5,-132.922 428.5,-132.922"/>
</g>
<!-- LPS/TLR4/MYD88&#45;&gt;TRAF6 -->
<g id="edge14" class="edge"><title>LPS/TLR4/MYD88&#45;&gt;TRAF6</title>
<path fill="none" stroke="black" d="M487.689,-436.454C475.233,-422.556 458.449,-403.828 445.689,-389.59"/>
<polygon fill="black" stroke="black" points="447.984,-386.907 438.704,-381.796 442.771,-391.579 447.984,-386.907"/>
</g>
<!-- TRIM14/TRIM23 -->
<g id="node15" class="node"><title>TRIM14/TRIM23</title>
<ellipse fill="none" stroke="black" cx="388" cy="-278.174" rx="25.4118" ry="25.4118"/>
<text text-anchor="middle" x="388" y="-276.974" font-family="Times,serif" font-size="4.00">TRIM14/TRIM23</text>
</g>
<!-- TRIM14/TRIM23&#45;&gt;NEMO/IKKA/IKKB -->
<g id="edge15" class="edge"><title>TRIM14/TRIM23&#45;&gt;NEMO/IKKA/IKKB</title>
<path fill="none" stroke="black" d="M373.852,-256.496C366.245,-245.378 356.712,-231.445 348.234,-219.054"/>
<polygon fill="black" stroke="black" points="351.106,-217.053 342.57,-210.776 345.329,-221.006 351.106,-217.053"/>
</g>
<!-- NFKBIA -->
<g id="node19" class="node"><title>NFKBIA</title>
<ellipse fill="none" stroke="black" cx="327" cy="-104.912" rx="18" ry="18"/>
<text text-anchor="middle" x="327" y="-103.712" font-family="Times,serif" font-size="4.00">NFKBIA</text>
</g>
<!-- BTRC&#45;&gt;NFKBIA -->
<g id="edge16" class="edge"><title>BTRC&#45;&gt;NFKBIA</title>
<path fill="none" stroke="black" d="M221.714,-176.196C242.137,-162.563 279.293,-137.759 303.558,-121.56"/>
<polygon fill="black" stroke="black" points="305.791,-124.278 312.165,-115.815 301.905,-118.456 305.791,-124.278"/>
</g>
<!-- TRIM59 -->
<g id="node17" class="node"><title>TRIM59</title>
<ellipse fill="none" stroke="black" cx="361" cy="-615.151" rx="18" ry="18"/>
<text text-anchor="middle" x="361" y="-613.951" font-family="Times,serif" font-size="4.00">TRIM59</text>
</g>
<!-- TRIM59&#45;&gt;MYD88 -->
<g id="edge17" class="edge"><title>TRIM59&#45;&gt;MYD88</title>
<path fill="none" stroke="black" d="M374.575,-602.957C389.523,-590.631 413.766,-570.64 431.345,-556.144"/>
<polygon fill="black" stroke="black" points="433.881,-558.589 439.369,-549.526 429.427,-553.188 433.881,-558.589"/>
</g>
<!-- NLRP3 -->
<g id="node18" class="node"><title>NLRP3</title>
<ellipse fill="none" stroke="black" cx="133" cy="-615.151" rx="18" ry="18"/>
<text text-anchor="middle" x="133" y="-613.951" font-family="Times,serif" font-size="4.00">NLRP3</text>
</g>
<!-- CASP1 -->
<g id="node23" class="node"><title>CASP1</title>
<ellipse fill="none" stroke="black" cx="133" cy="-537.286" rx="18" ry="18"/>
<text text-anchor="middle" x="133" y="-536.086" font-family="Times,serif" font-size="4.00">CASP1</text>
</g>
<!-- NLRP3&#45;&gt;CASP1 -->
<g id="edge18" class="edge"><title>NLRP3&#45;&gt;CASP1</title>
<path fill="none" stroke="black" d="M133,-596.936C133,-587.721 133,-576.154 133,-565.732"/>
<polygon fill="black" stroke="black" points="136.5,-565.433 133,-555.433 129.5,-565.433 136.5,-565.433"/>
</g>
<!-- NFKBIA&#45;&gt;NFKB1_NFKNIA -->
<g id="edge19" class="edge"><title>NFKBIA&#45;&gt;NFKB1_NFKNIA</title>
<path fill="none" stroke="black" d="M342.694,-95.9143C367.34,-83.3552 415.601,-58.7627 447.577,-42.4682"/>
<polygon fill="black" stroke="black" points="449.212,-45.5637 456.532,-37.9049 446.033,-39.3268 449.212,-45.5637"/>
</g>
<!-- TRIM38 -->
<g id="node20" class="node"><title>TRIM38</title>
<ellipse fill="none" stroke="black" cx="345" cy="-875.325" rx="18" ry="18"/>
<text text-anchor="middle" x="345" y="-874.125" font-family="Times,serif" font-size="4.00">TRIM38</text>
</g>
<!-- TRIM38&#45;&gt;TRAF6 -->
<g id="edge21" class="edge"><title>TRIM38&#45;&gt;TRAF6</title>
<path fill="none" stroke="black" d="M354.416,-859.804C371.761,-831.616 407,-767 407,-707.306 407,-707.306 407,-707.306 407,-536.286 407,-486.542 415.799,-429.072 421.725,-396.012"/>
<polygon fill="black" stroke="black" points="425.24,-396.25 423.607,-385.782 418.355,-394.983 425.24,-396.25"/>
</g>
<!-- TRIM38&#45;&gt;TICAM1 -->
<g id="edge20" class="edge"><title>TRIM38&#45;&gt;TICAM1</title>
<path fill="none" stroke="black" d="M331.095,-863.776C314.546,-851.221 286.701,-830.097 267.17,-815.279"/>
<polygon fill="black" stroke="black" points="269.191,-812.419 259.109,-809.164 264.96,-817.996 269.191,-812.419"/>
</g>
<!-- NFKB1 -->
<g id="node22" class="node"><title>NFKB1</title>
<ellipse fill="none" stroke="black" cx="533" cy="-104.912" rx="18" ry="18"/>
<text text-anchor="middle" x="533" y="-103.712" font-family="Times,serif" font-size="4.00">NFKB1</text>
</g>
<!-- NFKB1&#45;&gt;NFKB1_NFKNIA -->
<g id="edge22" class="edge"><title>NFKB1&#45;&gt;NFKB1_NFKNIA</title>
<path fill="none" stroke="black" d="M523.096,-89.7051C516.333,-80.0055 507.141,-66.8197 498.898,-54.9972"/>
<polygon fill="black" stroke="black" points="501.703,-52.9005 493.113,-46.699 495.961,-56.9039 501.703,-52.9005"/>
</g>
<!-- CASP1&#45;&gt;IL1b -->
<g id="edge23" class="edge"><title>CASP1&#45;&gt;IL1b</title>
<path fill="none" stroke="black" d="M123.096,-521.885C115.103,-510.264 103.715,-493.706 94.5144,-480.328"/>
<polygon fill="black" stroke="black" points="97.3922,-478.336 88.8416,-472.08 91.6246,-482.303 97.3922,-478.336"/>
</g>
<!-- double&#45;stranded RNA -->
<g id="node24" class="node"><title>double&#45;stranded RNA</title>
<ellipse fill="none" stroke="black" cx="245" cy="-960.084" rx="30.5202" ry="30.5202"/>
<text text-anchor="middle" x="245" y="-958.884" font-family="Times,serif" font-size="4.00">double&#45;stranded RNA</text>
</g>
<!-- double&#45;stranded RNA&#45;&gt;TLR3 -->
<g id="edge24" class="edge"><title>double&#45;stranded RNA&#45;&gt;TLR3</title>
<path fill="none" stroke="black" d="M245,-929.206C245,-920.836 245,-911.784 245,-903.575"/>
<polygon fill="black" stroke="black" points="248.5,-903.397 245,-893.397 241.5,-903.397 248.5,-903.397"/>
</g>
<!-- TRAF3 -->
<g id="node42" class="node"><title>TRAF3</title>
<ellipse fill="none" stroke="black" cx="152" cy="-706.306" rx="18" ry="18"/>
<text text-anchor="middle" x="152" y="-705.106" font-family="Times,serif" font-size="4.00">TRAF3</text>
</g>
<!-- TICAM1&#45;&gt;TRAF3 -->
<g id="edge25" class="edge"><title>TICAM1&#45;&gt;TRAF3</title>
<path fill="none" stroke="black" d="M231.444,-785.164C217.807,-773.619 196.368,-754.968 179,-737.595 176.058,-734.653 173.037,-731.456 170.129,-728.278"/>
<polygon fill="black" stroke="black" points="172.519,-725.699 163.245,-720.576 167.299,-730.364 172.519,-725.699"/>
</g>
<!-- IRF6 -->
<g id="node26" class="node"><title>IRF6</title>
<ellipse fill="none" stroke="black" cx="507" cy="-537.286" rx="18" ry="18"/>
<text text-anchor="middle" x="507" y="-536.086" font-family="Times,serif" font-size="4.00">IRF6</text>
</g>
<!-- IRF6&#45;&gt;LPS/TLR4/MYD88 -->
<g id="edge26" class="edge"><title>IRF6&#45;&gt;LPS/TLR4/MYD88</title>
<path fill="none" stroke="black" d="M506.566,-519.249C506.374,-511.729 506.142,-502.586 505.915,-493.675"/>
<polygon fill="black" stroke="black" points="509.407,-493.339 505.654,-483.432 502.41,-493.517 509.407,-493.339"/>
</g>
<!-- S -->
<g id="node27" class="node"><title>S</title>
<ellipse fill="none" stroke="black" cx="307" cy="-615.151" rx="18" ry="18"/>
<text text-anchor="middle" x="307" y="-613.951" font-family="Times,serif" font-size="4.00">S</text>
</g>
<!-- Orf3a -->
<g id="node28" class="node"><title>Orf3a</title>
<ellipse fill="none" stroke="black" cx="260" cy="-706.306" rx="18" ry="18"/>
<text text-anchor="middle" x="260" y="-705.106" font-family="Times,serif" font-size="4.00">Orf3a</text>
</g>
<!-- Orf3a&#45;&gt;P65/P015 -->
<g id="edge27" class="edge"><title>Orf3a&#45;&gt;P65/P015</title>
<path fill="none" stroke="black" d="M250.079,-691C245.476,-685.3 239.567,-679.129 233,-675.016 183.277,-643.878 157.78,-666.598 106,-639.016 103.723,-637.803 101.466,-636.373 99.2849,-634.829"/>
<polygon fill="black" stroke="black" points="101.365,-632.012 91.358,-628.533 97.0115,-637.493 101.365,-632.012"/>
</g>
<!-- Orf3a&#45;&gt;TRIM59 -->
<g id="edge30" class="edge"><title>Orf3a&#45;&gt;TRIM59</title>
<path fill="none" stroke="black" d="M273.204,-693.65C290.217,-678.633 319.988,-652.353 340.092,-634.607"/>
<polygon fill="black" stroke="black" points="342.612,-637.051 347.793,-627.809 337.979,-631.803 342.612,-637.051"/>
</g>
<!-- Orf3a&#45;&gt;S -->
<g id="edge28" class="edge"><title>Orf3a&#45;&gt;S</title>
<path fill="none" stroke="black" d="M268.187,-689.776C275.331,-676.225 285.819,-656.33 294.092,-640.637"/>
<polygon fill="black" stroke="black" points="297.34,-641.981 298.907,-631.503 291.147,-638.717 297.34,-641.981"/>
</g>
<!-- Hops Complex -->
<g id="node34" class="node"><title>Hops Complex</title>
<ellipse fill="none" stroke="black" cx="247" cy="-615.151" rx="23.7305" ry="23.7305"/>
<text text-anchor="middle" x="247" y="-613.951" font-family="Times,serif" font-size="4.00">Hops Complex</text>
</g>
<!-- Orf3a&#45;&gt;Hops Complex -->
<g id="edge29" class="edge"><title>Orf3a&#45;&gt;Hops Complex</title>
<path fill="none" stroke="black" d="M257.493,-688.116C255.887,-677.096 253.748,-662.431 251.821,-649.215"/>
<polygon fill="black" stroke="black" points="255.242,-648.414 250.335,-639.024 248.315,-649.424 255.242,-648.414"/>
</g>
<!-- PYCARD -->
<g id="node41" class="node"><title>PYCARD</title>
<ellipse fill="none" stroke="black" cx="187" cy="-615.151" rx="18" ry="18"/>
<text text-anchor="middle" x="187" y="-613.951" font-family="Times,serif" font-size="4.00">PYCARD</text>
</g>
<!-- Orf3a&#45;&gt;PYCARD -->
<g id="edge31" class="edge"><title>Orf3a&#45;&gt;PYCARD</title>
<path fill="none" stroke="black" d="M248.913,-691.765C237.161,-677.412 218.431,-654.538 204.647,-637.703"/>
<polygon fill="black" stroke="black" points="206.996,-635.047 197.952,-629.527 201.58,-639.482 206.996,-635.047"/>
</g>
<!-- TRIM30a/TRIM38 -->
<g id="node29" class="node"><title>TRIM30a/TRIM38</title>
<ellipse fill="none" stroke="black" cx="490" cy="-367.737" rx="26.533" ry="26.533"/>
<text text-anchor="middle" x="490" y="-366.537" font-family="Times,serif" font-size="4.00">TRIM30a/TRIM38</text>
</g>
<!-- TRIM30a/TRIM38&#45;&gt;TAB2/TAB3/TAK1 -->
<g id="edge32" class="edge"><title>TRIM30a/TRIM38&#45;&gt;TAB2/TAB3/TAK1</title>
<path fill="none" stroke="black" d="M481.365,-342.346C478.227,-333.482 474.618,-323.29 471.229,-313.715"/>
<polygon fill="black" stroke="black" points="474.441,-312.301 467.804,-304.042 467.842,-314.637 474.441,-312.301"/>
</g>
<!-- TRIM22 -->
<g id="node30" class="node"><title>TRIM22</title>
<ellipse fill="none" stroke="black" cx="205" cy="-278.174" rx="18" ry="18"/>
<text text-anchor="middle" x="205" y="-276.974" font-family="Times,serif" font-size="4.00">TRIM22</text>
</g>
<!-- TRIM22&#45;&gt;NEMO/IKKA/IKKB -->
<g id="edge33" class="edge"><title>TRIM22&#45;&gt;NEMO/IKKA/IKKB</title>
<path fill="none" stroke="black" d="M217.203,-264.49C221.692,-260.073 226.923,-255.206 232,-251.127 251.854,-235.173 275.74,-219.32 294.594,-207.493"/>
<polygon fill="black" stroke="black" points="296.485,-210.438 303.138,-202.192 292.795,-204.49 296.485,-210.438"/>
</g>
<!-- NEMO/IKKA/IKKB&#45;&gt;NFKBIA -->
<g id="edge34" class="edge"><title>NEMO/IKKA/IKKB&#45;&gt;NFKBIA</title>
<path fill="none" stroke="black" d="M327,-158.898C327,-150.693 327,-141.676 327,-133.443"/>
<polygon fill="black" stroke="black" points="330.5,-133.207 327,-123.208 323.5,-133.208 330.5,-133.207"/>
</g>
<!-- TRIM23 -->
<g id="node32" class="node"><title>TRIM23</title>
<ellipse fill="none" stroke="black" cx="361" cy="-456.77" rx="18" ry="18"/>
<text text-anchor="middle" x="361" y="-455.57" font-family="Times,serif" font-size="4.00">TRIM23</text>
</g>
<!-- TRIM23&#45;&gt;TRAF6 -->
<g id="edge35" class="edge"><title>TRIM23&#45;&gt;TRAF6</title>
<path fill="none" stroke="black" d="M371.604,-441.787C381.996,-428.083 397.998,-406.981 410.136,-390.975"/>
<polygon fill="black" stroke="black" points="413.169,-392.768 416.422,-382.686 407.591,-388.539 413.169,-392.768"/>
</g>
<!-- TRIM39 -->
<g id="node33" class="node"><title>TRIM39</title>
<ellipse fill="none" stroke="black" cx="480" cy="-187.019" rx="18" ry="18"/>
<text text-anchor="middle" x="480" y="-185.819" font-family="Times,serif" font-size="4.00">TRIM39</text>
</g>
<!-- TRIM39&#45;&gt;CACTIN -->
<g id="edge36" class="edge"><title>TRIM39&#45;&gt;CACTIN</title>
<path fill="none" stroke="black" d="M479.783,-168.637C479.654,-158.279 479.487,-144.905 479.34,-133.169"/>
<polygon fill="black" stroke="black" points="482.838,-132.94 479.213,-122.985 475.838,-133.028 482.838,-132.94"/>
</g>
<!-- LPS/TNF α/IL&#45;1 -->
<g id="node35" class="node"><title>LPS/TNF α/IL&#45;1</title>
<ellipse fill="none" stroke="black" cx="85" cy="-797.46" rx="23.7305" ry="23.7305"/>
<text text-anchor="middle" x="85" y="-796.26" font-family="Times,serif" font-size="4.00">LPS/TNF α/IL&#45;1</text>
</g>
<!-- IKBKG/IKBKB/CHUK -->
<g id="node40" class="node"><title>IKBKG/IKBKB/CHUK</title>
<ellipse fill="none" stroke="black" cx="85" cy="-706.306" rx="31.0804" ry="31.0804"/>
<text text-anchor="middle" x="85" y="-705.106" font-family="Times,serif" font-size="4.00">IKBKG/IKBKB/CHUK</text>
</g>
<!-- LPS/TNF α/IL&#45;1&#45;&gt;IKBKG/IKBKB/CHUK -->
<g id="edge37" class="edge"><title>LPS/TNF α/IL&#45;1&#45;&gt;IKBKG/IKBKB/CHUK</title>
<path fill="none" stroke="black" d="M85,-773.5C85,-765.713 85,-756.764 85,-748.016"/>
<polygon fill="black" stroke="black" points="88.5001,-747.919 85,-737.919 81.5001,-747.919 88.5001,-747.919"/>
</g>
<!-- ORF8b -->
<g id="node36" class="node"><title>ORF8b</title>
<ellipse fill="none" stroke="black" cx="206" cy="-706.306" rx="18" ry="18"/>
<text text-anchor="middle" x="206" y="-705.106" font-family="Times,serif" font-size="4.00">ORF8b</text>
</g>
<!-- ORF8b&#45;&gt;NLRP3 -->
<g id="edge38" class="edge"><title>ORF8b&#45;&gt;NLRP3</title>
<path fill="none" stroke="black" d="M194.913,-691.765C183.161,-677.412 164.431,-654.538 150.647,-637.703"/>
<polygon fill="black" stroke="black" points="152.996,-635.047 143.952,-629.527 147.58,-639.482 152.996,-635.047"/>
</g>
<!-- TAB2/TAB3/TAK1&#45;&gt;SERPINF2 -->
<g id="edge39" class="edge"><title>TAB2/TAB3/TAK1&#45;&gt;SERPINF2</title>
<path fill="none" stroke="black" d="M449.529,-252.339C445.047,-240.585 439.689,-226.537 435.126,-214.571"/>
<polygon fill="black" stroke="black" points="438.35,-213.203 431.517,-205.107 431.81,-215.698 438.35,-213.203"/>
</g>
<!-- TAB2/TAB3/TAK1&#45;&gt;NEMO/IKKA/IKKB -->
<g id="edge40" class="edge"><title>TAB2/TAB3/TAK1&#45;&gt;NEMO/IKKA/IKKB</title>
<path fill="none" stroke="black" d="M437.156,-261.649C432.191,-258.162 426.928,-254.497 422,-251.127 400.978,-236.748 377.097,-220.887 358.538,-208.662"/>
<polygon fill="black" stroke="black" points="360.431,-205.719 350.153,-203.148 356.585,-211.567 360.431,-205.719"/>
</g>
<!-- TRIM27/TRIM21 -->
<g id="node38" class="node"><title>TRIM27/TRIM21</title>
<ellipse fill="none" stroke="black" cx="266" cy="-278.174" rx="25.4118" ry="25.4118"/>
<text text-anchor="middle" x="266" y="-276.974" font-family="Times,serif" font-size="4.00">TRIM27/TRIM21</text>
</g>
<!-- TRIM27/TRIM21&#45;&gt;NEMO/IKKA/IKKB -->
<g id="edge41" class="edge"><title>TRIM27/TRIM21&#45;&gt;NEMO/IKKA/IKKB</title>
<path fill="none" stroke="black" d="M280.148,-256.496C287.755,-245.378 297.288,-231.445 305.766,-219.054"/>
<polygon fill="black" stroke="black" points="308.671,-221.006 311.43,-210.776 302.894,-217.053 308.671,-221.006"/>
</g>
<!-- ssRNA -->
<g id="node39" class="node"><title>ssRNA</title>
<ellipse fill="none" stroke="black" cx="453" cy="-706.306" rx="18" ry="18"/>
<text text-anchor="middle" x="453" y="-705.106" font-family="Times,serif" font-size="4.00">ssRNA</text>
</g>
<!-- ssRNA&#45;&gt;TLR7/8/9 -->
<g id="edge42" class="edge"><title>ssRNA&#45;&gt;TLR7/8/9</title>
<path fill="none" stroke="black" d="M453,-688.116C453,-675.535 453,-658.203 453,-643.701"/>
<polygon fill="black" stroke="black" points="456.5,-643.288 453,-633.288 449.5,-643.288 456.5,-643.288"/>
</g>
<!-- IKBKG/IKBKB/CHUK&#45;&gt;P65/P015 -->
<g id="edge43" class="edge"><title>IKBKG/IKBKB/CHUK&#45;&gt;P65/P015</title>
<path fill="none" stroke="black" d="M82.9351,-674.624C82.253,-664.488 81.4993,-653.288 80.8356,-643.426"/>
<polygon fill="black" stroke="black" points="84.322,-643.105 80.1583,-633.363 77.3378,-643.575 84.322,-643.105"/>
</g>
<!-- PYCARD&#45;&gt;CASP1 -->
<g id="edge44" class="edge"><title>PYCARD&#45;&gt;CASP1</title>
<path fill="none" stroke="black" d="M176.843,-599.882C168.999,-588.861 157.997,-573.404 148.976,-560.732"/>
<polygon fill="black" stroke="black" points="151.762,-558.609 143.111,-552.492 146.059,-562.669 151.762,-558.609"/>
</g>
<!-- TRAF3&#45;&gt;P65/P015 -->
<g id="edge46" class="edge"><title>TRAF3&#45;&gt;P65/P015</title>
<path fill="none" stroke="black" d="M140.913,-691.765C129.161,-677.412 110.431,-654.538 96.6468,-637.703"/>
<polygon fill="black" stroke="black" points="98.9956,-635.047 89.9523,-629.527 93.5795,-639.482 98.9956,-635.047"/>
</g>
<!-- TRAF3&#45;&gt;PYCARD -->
<g id="edge45" class="edge"><title>TRAF3&#45;&gt;PYCARD</title>
<path fill="none" stroke="black" d="M158.257,-689.367C163.451,-676.137 170.936,-657.071 176.965,-641.712"/>
<polygon fill="black" stroke="black" points="180.282,-642.84 180.679,-632.253 173.767,-640.282 180.282,-642.84"/>
</g>
</g>
</svg>
