<?xml version="1.0" encoding="UTF-8" standalone="no"?>
<!DOCTYPE svg PUBLIC "-//W3C//DTD SVG 1.1//EN"
 "http://www.w3.org/Graphics/SVG/1.1/DTD/svg11.dtd">
<!-- Generated by graphviz version 2.38.0 (20140413.2041)
 -->
<!-- Title: G Pages: 1 -->
<svg width="910pt" height="1155pt"
 viewBox="0.00 0.00 910.00 1155.19" xmlns="http://www.w3.org/2000/svg" xmlns:xlink="http://www.w3.org/1999/xlink">
<g id="graph0" class="graph" transform="scale(1 1) rotate(0) translate(4 1151.19)">
<title>G</title>
<polygon fill="white" stroke="none" points="-4,4 -4,-1151.19 906,-1151.19 906,4 -4,4"/>
<!-- Orf3a -->
<g id="node1" class="node"><title>Orf3a</title>
<ellipse fill="none" stroke="black" cx="332" cy="-1126.51" rx="18" ry="18"/>
<text text-anchor="middle" x="332" y="-1125.31" font-family="Times,serif" font-size="4.00">Orf3a</text>
</g>
<!-- pr_324be2a2&#45;5930&#45;4407&#45;a291&#45;ad22147c00c0 -->
<g id="node2" class="node"><title>pr_324be2a2&#45;5930&#45;4407&#45;a291&#45;ad22147c00c0</title>
<polygon fill="none" stroke="black" points="296.5,-1069.83 195.5,-1069.83 195.5,-968.829 296.5,-968.829 296.5,-1069.83"/>
<text text-anchor="middle" x="246" y="-1018.13" font-family="Times,serif" font-size="4.00">pr_324be2a2&#45;5930&#45;4407&#45;a291&#45;ad22147c00c0</text>
</g>
<!-- Orf3a&#45;&gt;pr_324be2a2&#45;5930&#45;4407&#45;a291&#45;ad22147c00c0 -->
<g id="edge1" class="edge"><title>Orf3a&#45;&gt;pr_324be2a2&#45;5930&#45;4407&#45;a291&#45;ad22147c00c0</title>
<path fill="none" stroke="black" d="M320.757,-1111.76C313.518,-1102.91 303.565,-1090.73 293.283,-1078.16"/>
<polygon fill="black" stroke="black" points="295.899,-1075.83 286.859,-1070.3 290.479,-1080.26 295.899,-1075.83"/>
</g>
<!-- pr_ff4cf994&#45;e759&#45;4c18&#45;95b4&#45;db4e7bbf4c83 -->
<g id="node35" class="node"><title>pr_ff4cf994&#45;e759&#45;4c18&#45;95b4&#45;db4e7bbf4c83</title>
<polygon fill="none" stroke="black" points="413,-1068.33 315,-1068.33 315,-970.329 413,-970.329 413,-1068.33"/>
<text text-anchor="middle" x="364" y="-1018.13" font-family="Times,serif" font-size="4.00">pr_ff4cf994&#45;e759&#45;4c18&#45;95b4&#45;db4e7bbf4c83</text>
</g>
<!-- Orf3a&#45;&gt;pr_ff4cf994&#45;e759&#45;4c18&#45;95b4&#45;db4e7bbf4c83 -->
<g id="edge2" class="edge"><title>Orf3a&#45;&gt;pr_ff4cf994&#45;e759&#45;4c18&#45;95b4&#45;db4e7bbf4c83</title>
<path fill="none" stroke="black" d="M337,-1109.08C339.609,-1100.5 342.975,-1089.44 346.439,-1078.05"/>
<polygon fill="black" stroke="black" points="349.796,-1079.04 349.358,-1068.46 343.099,-1077.01 349.796,-1079.04"/>
</g>
<!-- NLRP3 -->
<g id="node4" class="node"><title>NLRP3</title>
<ellipse fill="none" stroke="black" cx="246" cy="-906.312" rx="18" ry="18"/>
<text text-anchor="middle" x="246" y="-905.112" font-family="Times,serif" font-size="4.00">NLRP3</text>
</g>
<!-- pr_324be2a2&#45;5930&#45;4407&#45;a291&#45;ad22147c00c0&#45;&gt;NLRP3 -->
<g id="edge3" class="edge"><title>pr_324be2a2&#45;5930&#45;4407&#45;a291&#45;ad22147c00c0&#45;&gt;NLRP3</title>
<path fill="none" stroke="black" d="M246,-968.665C246,-956.925 246,-944.832 246,-934.519"/>
<polygon fill="black" stroke="black" points="249.5,-934.504 246,-924.504 242.5,-934.504 249.5,-934.504"/>
</g>
<!-- TRAF3 -->
<g id="node3" class="node"><title>TRAF3</title>
<ellipse fill="none" stroke="black" cx="481" cy="-1126.51" rx="18" ry="18"/>
<text text-anchor="middle" x="481" y="-1125.31" font-family="Times,serif" font-size="4.00">TRAF3</text>
</g>
<!-- TRAF3&#45;&gt;pr_324be2a2&#45;5930&#45;4407&#45;a291&#45;ad22147c00c0 -->
<g id="edge4" class="edge"><title>TRAF3&#45;&gt;pr_324be2a2&#45;5930&#45;4407&#45;a291&#45;ad22147c00c0</title>
<path fill="none" stroke="black" d="M463.481,-1122.25C430.941,-1115.71 359.613,-1099.04 306,-1069.83 305.807,-1069.72 305.615,-1069.62 305.422,-1069.51"/>
<polygon fill="black" stroke="black" points="307.177,-1066.48 296.803,-1064.33 303.572,-1072.48 307.177,-1066.48"/>
</g>
<!-- pr_fbd972b9&#45;1209&#45;43bd&#45;bb71&#45;19127a4c55ab -->
<g id="node52" class="node"><title>pr_fbd972b9&#45;1209&#45;43bd&#45;bb71&#45;19127a4c55ab</title>
<polygon fill="none" stroke="black" points="531,-1069.33 431,-1069.33 431,-969.329 531,-969.329 531,-1069.33"/>
<text text-anchor="middle" x="481" y="-1018.13" font-family="Times,serif" font-size="4.00">pr_fbd972b9&#45;1209&#45;43bd&#45;bb71&#45;19127a4c55ab</text>
</g>
<!-- TRAF3&#45;&gt;pr_fbd972b9&#45;1209&#45;43bd&#45;bb71&#45;19127a4c55ab -->
<g id="edge5" class="edge"><title>TRAF3&#45;&gt;pr_fbd972b9&#45;1209&#45;43bd&#45;bb71&#45;19127a4c55ab</title>
<path fill="none" stroke="black" d="M475.938,-1109.08C474.999,-1100.85 474.452,-1090.33 474.296,-1079.44"/>
<polygon fill="black" stroke="black" points="477.796,-1079.37 474.264,-1069.38 470.796,-1079.39 477.796,-1079.37"/>
</g>
<!-- pr_e7345146&#45;31ab&#45;4671&#45;a58b&#45;6945959b28c3 -->
<g id="node8" class="node"><title>pr_e7345146&#45;31ab&#45;4671&#45;a58b&#45;6945959b28c3</title>
<polygon fill="none" stroke="black" points="296.5,-843.796 195.5,-843.796 195.5,-742.796 296.5,-742.796 296.5,-843.796"/>
<text text-anchor="middle" x="246" y="-792.096" font-family="Times,serif" font-size="4.00">pr_e7345146&#45;31ab&#45;4671&#45;a58b&#45;6945959b28c3</text>
</g>
<!-- NLRP3&#45;&gt;pr_e7345146&#45;31ab&#45;4671&#45;a58b&#45;6945959b28c3 -->
<g id="edge6" class="edge"><title>NLRP3&#45;&gt;pr_e7345146&#45;31ab&#45;4671&#45;a58b&#45;6945959b28c3</title>
<path fill="none" stroke="black" d="M246,-887.966C246,-878.723 246,-866.744 246,-854.459"/>
<polygon fill="black" stroke="black" points="249.5,-854.121 246,-844.121 242.5,-854.121 249.5,-854.121"/>
</g>
<!-- ASC/CASP1 -->
<g id="node5" class="node"><title>ASC/CASP1</title>
<ellipse fill="none" stroke="black" cx="178" cy="-1126.51" rx="20.8674" ry="20.8674"/>
<text text-anchor="middle" x="178" y="-1125.31" font-family="Times,serif" font-size="4.00">ASC/CASP1</text>
</g>
<!-- ASC/CASP1&#45;&gt;pr_324be2a2&#45;5930&#45;4407&#45;a291&#45;ad22147c00c0 -->
<g id="edge7" class="edge"><title>ASC/CASP1&#45;&gt;pr_324be2a2&#45;5930&#45;4407&#45;a291&#45;ad22147c00c0</title>
<path fill="none" stroke="black" d="M188.925,-1108.61C194.37,-1100.19 201.31,-1089.46 208.461,-1078.39"/>
<polygon fill="black" stroke="black" points="211.459,-1080.2 213.949,-1069.91 205.581,-1076.4 211.459,-1080.2"/>
</g>
<!-- ASC/CASP1&#45;&gt;pr_e7345146&#45;31ab&#45;4671&#45;a58b&#45;6945959b28c3 -->
<g id="edge8" class="edge"><title>ASC/CASP1&#45;&gt;pr_e7345146&#45;31ab&#45;4671&#45;a58b&#45;6945959b28c3</title>
<path fill="none" stroke="black" d="M177.247,-1105.51C176.515,-1075.51 176.638,-1017.23 186,-968.829 193.615,-929.46 208.123,-886.873 220.966,-853.622"/>
<polygon fill="black" stroke="black" points="224.323,-854.648 224.712,-844.06 217.805,-852.094 224.323,-854.648"/>
</g>
<!-- P65/P015 -->
<g id="node6" class="node"><title>P65/P015</title>
<ellipse fill="none" stroke="black" cx="85" cy="-1126.51" rx="18.0625" ry="18.0625"/>
<text text-anchor="middle" x="85" y="-1125.31" font-family="Times,serif" font-size="4.00">P65/P015</text>
</g>
<!-- P65/P015&#45;&gt;pr_324be2a2&#45;5930&#45;4407&#45;a291&#45;ad22147c00c0 -->
<g id="edge9" class="edge"><title>P65/P015&#45;&gt;pr_324be2a2&#45;5930&#45;4407&#45;a291&#45;ad22147c00c0</title>
<path fill="none" stroke="black" d="M99.8579,-1115.8C119.497,-1102.97 155.264,-1079.61 186.497,-1059.2"/>
<polygon fill="black" stroke="black" points="188.712,-1061.94 195.169,-1053.54 184.883,-1056.08 188.712,-1061.94"/>
</g>
<!-- pr_aa2e01ce&#45;993b&#45;4dd5&#45;a841&#45;9deaa97e9f5a -->
<g id="node10" class="node"><title>pr_aa2e01ce&#45;993b&#45;4dd5&#45;a841&#45;9deaa97e9f5a</title>
<polygon fill="none" stroke="black" points="100,-1069.33 0,-1069.33 0,-969.329 100,-969.329 100,-1069.33"/>
<text text-anchor="middle" x="50" y="-1018.13" font-family="Times,serif" font-size="4.00">pr_aa2e01ce&#45;993b&#45;4dd5&#45;a841&#45;9deaa97e9f5a</text>
</g>
<!-- P65/P015&#45;&gt;pr_aa2e01ce&#45;993b&#45;4dd5&#45;a841&#45;9deaa97e9f5a -->
<g id="edge10" class="edge"><title>P65/P015&#45;&gt;pr_aa2e01ce&#45;993b&#45;4dd5&#45;a841&#45;9deaa97e9f5a</title>
<path fill="none" stroke="black" d="M75.2884,-1110.89C71.3596,-1102.33 66.9383,-1090.91 62.8386,-1079.07"/>
<polygon fill="black" stroke="black" points="66.1363,-1077.9 59.6352,-1069.53 59.5004,-1080.13 66.1363,-1077.9"/>
</g>
<!-- pr_1cb75f6f&#45;2921&#45;4e60&#45;9746&#45;07f4984cac37 -->
<g id="node28" class="node"><title>pr_1cb75f6f&#45;2921&#45;4e60&#45;9746&#45;07f4984cac37</title>
<polygon fill="none" stroke="black" points="177,-842.296 79,-842.296 79,-744.296 177,-744.296 177,-842.296"/>
<text text-anchor="middle" x="128" y="-792.096" font-family="Times,serif" font-size="4.00">pr_1cb75f6f&#45;2921&#45;4e60&#45;9746&#45;07f4984cac37</text>
</g>
<!-- P65/P015&#45;&gt;pr_1cb75f6f&#45;2921&#45;4e60&#45;9746&#45;07f4984cac37 -->
<g id="edge11" class="edge"><title>P65/P015&#45;&gt;pr_1cb75f6f&#45;2921&#45;4e60&#45;9746&#45;07f4984cac37</title>
<path fill="none" stroke="black" d="M93.1781,-1110.4C98.6748,-1099.46 105.527,-1084.15 109,-1069.83 126.818,-996.349 129.895,-908.852 129.629,-852.484"/>
<polygon fill="black" stroke="black" points="133.128,-852.301 129.544,-842.331 126.128,-852.36 133.128,-852.301"/>
</g>
<!-- ORF8b -->
<g id="node7" class="node"><title>ORF8b</title>
<ellipse fill="none" stroke="black" cx="246" cy="-1126.51" rx="18" ry="18"/>
<text text-anchor="middle" x="246" y="-1125.31" font-family="Times,serif" font-size="4.00">ORF8b</text>
</g>
<!-- ORF8b&#45;&gt;pr_324be2a2&#45;5930&#45;4407&#45;a291&#45;ad22147c00c0 -->
<g id="edge12" class="edge"><title>ORF8b&#45;&gt;pr_324be2a2&#45;5930&#45;4407&#45;a291&#45;ad22147c00c0</title>
<path fill="none" stroke="black" d="M246,-1108.14C246,-1100.27 246,-1090.44 246,-1080.23"/>
<polygon fill="black" stroke="black" points="249.5,-1079.97 246,-1069.97 242.5,-1079.97 249.5,-1079.97"/>
</g>
<!-- CASP1 -->
<g id="node9" class="node"><title>CASP1</title>
<ellipse fill="none" stroke="black" cx="226" cy="-680.279" rx="18" ry="18"/>
<text text-anchor="middle" x="226" y="-679.079" font-family="Times,serif" font-size="4.00">CASP1</text>
</g>
<!-- pr_e7345146&#45;31ab&#45;4671&#45;a58b&#45;6945959b28c3&#45;&gt;CASP1 -->
<g id="edge13" class="edge"><title>pr_e7345146&#45;31ab&#45;4671&#45;a58b&#45;6945959b28c3&#45;&gt;CASP1</title>
<path fill="none" stroke="black" d="M237.053,-742.632C234.922,-730.806 232.727,-718.622 230.861,-708.26"/>
<polygon fill="black" stroke="black" points="234.268,-707.433 229.05,-698.212 227.379,-708.674 234.268,-707.433"/>
</g>
<!-- pr_1620a471&#45;0bf7&#45;4d18&#45;9547&#45;b35498390303 -->
<g id="node24" class="node"><title>pr_1620a471&#45;0bf7&#45;4d18&#45;9547&#45;b35498390303</title>
<polygon fill="none" stroke="black" points="275,-617.263 175,-617.263 175,-517.263 275,-517.263 275,-617.263"/>
<text text-anchor="middle" x="225" y="-566.063" font-family="Times,serif" font-size="4.00">pr_1620a471&#45;0bf7&#45;4d18&#45;9547&#45;b35498390303</text>
</g>
<!-- CASP1&#45;&gt;pr_1620a471&#45;0bf7&#45;4d18&#45;9547&#45;b35498390303 -->
<g id="edge14" class="edge"><title>CASP1&#45;&gt;pr_1620a471&#45;0bf7&#45;4d18&#45;9547&#45;b35498390303</title>
<path fill="none" stroke="black" d="M225.844,-661.933C225.759,-652.501 225.648,-640.221 225.535,-627.674"/>
<polygon fill="black" stroke="black" points="229.034,-627.571 225.444,-617.603 222.035,-627.634 229.034,-627.571"/>
</g>
<!-- pr_aa2e01ce&#45;993b&#45;4dd5&#45;a841&#45;9deaa97e9f5a&#45;&gt;P65/P015 -->
<g id="edge15" class="edge"><title>pr_aa2e01ce&#45;993b&#45;4dd5&#45;a841&#45;9deaa97e9f5a&#45;&gt;P65/P015</title>
<path fill="none" stroke="black" d="M73.1021,-1069.51C76.4882,-1079.46 79.6051,-1089.58 81.9755,-1098.43"/>
<polygon fill="black" stroke="black" points="78.5811,-1099.28 84.3868,-1108.14 85.375,-1097.59 78.5811,-1099.28"/>
</g>
<!-- LPS/TLR4/MYD88 -->
<g id="node11" class="node"><title>LPS/TLR4/MYD88</title>
<ellipse fill="none" stroke="black" cx="501" cy="-906.312" rx="26.533" ry="26.533"/>
<text text-anchor="middle" x="501" y="-905.112" font-family="Times,serif" font-size="4.00">LPS/TLR4/MYD88</text>
</g>
<!-- pr_b56abedc&#45;2156&#45;4e2d&#45;ba07&#45;e6840a944c57 -->
<g id="node12" class="node"><title>pr_b56abedc&#45;2156&#45;4e2d&#45;ba07&#45;e6840a944c57</title>
<polygon fill="none" stroke="black" points="551.5,-843.796 450.5,-843.796 450.5,-742.796 551.5,-742.796 551.5,-843.796"/>
<text text-anchor="middle" x="501" y="-792.096" font-family="Times,serif" font-size="4.00">pr_b56abedc&#45;2156&#45;4e2d&#45;ba07&#45;e6840a944c57</text>
</g>
<!-- LPS/TLR4/MYD88&#45;&gt;pr_b56abedc&#45;2156&#45;4e2d&#45;ba07&#45;e6840a944c57 -->
<g id="edge16" class="edge"><title>LPS/TLR4/MYD88&#45;&gt;pr_b56abedc&#45;2156&#45;4e2d&#45;ba07&#45;e6840a944c57</title>
<path fill="none" stroke="black" d="M501,-879.564C501,-871.838 501,-863.021 501,-854.055"/>
<polygon fill="black" stroke="black" points="504.5,-853.919 501,-843.919 497.5,-853.919 504.5,-853.919"/>
</g>
<!-- TRAF6 -->
<g id="node13" class="node"><title>TRAF6</title>
<ellipse fill="none" stroke="black" cx="563" cy="-680.279" rx="18" ry="18"/>
<text text-anchor="middle" x="563" y="-679.079" font-family="Times,serif" font-size="4.00">TRAF6</text>
</g>
<!-- pr_b56abedc&#45;2156&#45;4e2d&#45;ba07&#45;e6840a944c57&#45;&gt;TRAF6 -->
<g id="edge17" class="edge"><title>pr_b56abedc&#45;2156&#45;4e2d&#45;ba07&#45;e6840a944c57&#45;&gt;TRAF6</title>
<path fill="none" stroke="black" d="M528.736,-742.632C535.918,-729.772 543.336,-716.49 549.425,-705.586"/>
<polygon fill="black" stroke="black" points="552.575,-707.124 554.395,-696.686 546.464,-703.711 552.575,-707.124"/>
</g>
<!-- pr_79bf6dbe&#45;4360&#45;4585&#45;a379&#45;6b55907cbe62 -->
<g id="node41" class="node"><title>pr_79bf6dbe&#45;4360&#45;4585&#45;a379&#45;6b55907cbe62</title>
<polygon fill="none" stroke="black" points="668,-617.263 568,-617.263 568,-517.263 668,-517.263 668,-617.263"/>
<text text-anchor="middle" x="618" y="-566.063" font-family="Times,serif" font-size="4.00">pr_79bf6dbe&#45;4360&#45;4585&#45;a379&#45;6b55907cbe62</text>
</g>
<!-- TRAF6&#45;&gt;pr_79bf6dbe&#45;4360&#45;4585&#45;a379&#45;6b55907cbe62 -->
<g id="edge18" class="edge"><title>TRAF6&#45;&gt;pr_79bf6dbe&#45;4360&#45;4585&#45;a379&#45;6b55907cbe62</title>
<path fill="none" stroke="black" d="M566.344,-662.418C570.096,-652.66 575.92,-639.738 582.354,-626.604"/>
<polygon fill="black" stroke="black" points="585.557,-628.025 586.888,-617.514 579.293,-624.901 585.557,-628.025"/>
</g>
<!-- pr_69486432&#45;ac99&#45;4086&#45;8c18&#45;26d730d431a3 -->
<g id="node44" class="node"><title>pr_69486432&#45;ac99&#45;4086&#45;8c18&#45;26d730d431a3</title>
<polygon fill="none" stroke="black" points="549.5,-617.763 448.5,-617.763 448.5,-516.763 549.5,-516.763 549.5,-617.763"/>
<text text-anchor="middle" x="499" y="-566.063" font-family="Times,serif" font-size="4.00">pr_69486432&#45;ac99&#45;4086&#45;8c18&#45;26d730d431a3</text>
</g>
<!-- TRAF6&#45;&gt;pr_69486432&#45;ac99&#45;4086&#45;8c18&#45;26d730d431a3 -->
<g id="edge19" class="edge"><title>TRAF6&#45;&gt;pr_69486432&#45;ac99&#45;4086&#45;8c18&#45;26d730d431a3</title>
<path fill="none" stroke="black" d="M554.369,-664.307C548.661,-654.406 540.773,-640.723 532.738,-626.785"/>
<polygon fill="black" stroke="black" points="535.761,-625.021 527.734,-618.106 529.696,-628.517 535.761,-625.021"/>
</g>
<!-- TRIM59 -->
<g id="node14" class="node"><title>TRIM59</title>
<ellipse fill="none" stroke="black" cx="364" cy="-906.312" rx="18" ry="18"/>
<text text-anchor="middle" x="364" y="-905.112" font-family="Times,serif" font-size="4.00">TRIM59</text>
</g>
<!-- TRIM59&#45;&gt;pr_b56abedc&#45;2156&#45;4e2d&#45;ba07&#45;e6840a944c57 -->
<g id="edge20" class="edge"><title>TRIM59&#45;&gt;pr_b56abedc&#45;2156&#45;4e2d&#45;ba07&#45;e6840a944c57</title>
<path fill="none" stroke="black" d="M377.637,-894.262C392.839,-881.943 418.444,-861.194 442.399,-841.782"/>
<polygon fill="black" stroke="black" points="444.877,-844.28 450.442,-835.265 440.469,-838.841 444.877,-844.28"/>
</g>
<!-- TRIM59&#45;&gt;pr_ff4cf994&#45;e759&#45;4c18&#45;95b4&#45;db4e7bbf4c83 -->
<g id="edge21" class="edge"><title>TRIM59&#45;&gt;pr_ff4cf994&#45;e759&#45;4c18&#45;95b4&#45;db4e7bbf4c83</title>
<path fill="none" stroke="black" d="M368.962,-923.751C370.078,-933.579 370.671,-946.723 370.743,-960.078"/>
<polygon fill="black" stroke="black" points="367.242,-960.265 370.696,-970.281 374.242,-960.297 367.242,-960.265"/>
</g>
<!-- NFKBIA -->
<g id="node15" class="node"><title>NFKBIA</title>
<ellipse fill="none" stroke="black" cx="849" cy="-227.092" rx="18" ry="18"/>
<text text-anchor="middle" x="849" y="-225.892" font-family="Times,serif" font-size="4.00">NFKBIA</text>
</g>
<!-- pr_90cd3a08&#45;c5f2&#45;4ef8&#45;8a9c&#45;0c8bde3331b9 -->
<g id="node16" class="node"><title>pr_90cd3a08&#45;c5f2&#45;4ef8&#45;8a9c&#45;0c8bde3331b9</title>
<polygon fill="none" stroke="black" points="898.5,-381.684 799.5,-381.684 799.5,-282.684 898.5,-282.684 898.5,-381.684"/>
<text text-anchor="middle" x="849" y="-330.984" font-family="Times,serif" font-size="4.00">pr_90cd3a08&#45;c5f2&#45;4ef8&#45;8a9c&#45;0c8bde3331b9</text>
</g>
<!-- NFKBIA&#45;&gt;pr_90cd3a08&#45;c5f2&#45;4ef8&#45;8a9c&#45;0c8bde3331b9 -->
<g id="edge22" class="edge"><title>NFKBIA&#45;&gt;pr_90cd3a08&#45;c5f2&#45;4ef8&#45;8a9c&#45;0c8bde3331b9</title>
<path fill="none" stroke="black" d="M854.085,-244.392C854.992,-252.274 855.529,-262.267 855.694,-272.645"/>
<polygon fill="black" stroke="black" points="852.194,-272.673 855.74,-282.657 859.194,-272.641 852.194,-272.673"/>
</g>
<!-- pr_813ee590&#45;1fd6&#45;4222&#45;b408&#45;de89ac8d968a -->
<g id="node53" class="node"><title>pr_813ee590&#45;1fd6&#45;4222&#45;b408&#45;de89ac8d968a</title>
<polygon fill="none" stroke="black" points="899,-172 799,-172 799,-72 899,-72 899,-172"/>
<text text-anchor="middle" x="849" y="-120.8" font-family="Times,serif" font-size="4.00">pr_813ee590&#45;1fd6&#45;4222&#45;b408&#45;de89ac8d968a</text>
</g>
<!-- NFKBIA&#45;&gt;pr_813ee590&#45;1fd6&#45;4222&#45;b408&#45;de89ac8d968a -->
<g id="edge23" class="edge"><title>NFKBIA&#45;&gt;pr_813ee590&#45;1fd6&#45;4222&#45;b408&#45;de89ac8d968a</title>
<path fill="none" stroke="black" d="M849,-209.068C849,-201.513 849,-192.127 849,-182.357"/>
<polygon fill="black" stroke="black" points="852.5,-182.097 849,-172.098 845.5,-182.098 852.5,-182.097"/>
</g>
<!-- pr_90cd3a08&#45;c5f2&#45;4ef8&#45;8a9c&#45;0c8bde3331b9&#45;&gt;NFKBIA -->
<g id="edge24" class="edge"><title>pr_90cd3a08&#45;c5f2&#45;4ef8&#45;8a9c&#45;0c8bde3331b9&#45;&gt;NFKBIA</title>
<path fill="none" stroke="black" d="M842.26,-282.657C842.194,-272.962 842.447,-263.125 843.02,-254.523"/>
<polygon fill="black" stroke="black" points="846.521,-254.661 843.915,-244.392 839.548,-254.044 846.521,-254.661"/>
</g>
<!-- B&#45;TrcP -->
<g id="node17" class="node"><title>B&#45;TrcP</title>
<ellipse fill="none" stroke="black" cx="881" cy="-449.473" rx="18" ry="18"/>
<text text-anchor="middle" x="881" y="-448.273" font-family="Times,serif" font-size="4.00">B&#45;TrcP</text>
</g>
<!-- B&#45;TrcP&#45;&gt;pr_90cd3a08&#45;c5f2&#45;4ef8&#45;8a9c&#45;0c8bde3331b9 -->
<g id="edge25" class="edge"><title>B&#45;TrcP&#45;&gt;pr_90cd3a08&#45;c5f2&#45;4ef8&#45;8a9c&#45;0c8bde3331b9</title>
<path fill="none" stroke="black" d="M876.415,-431.955C873.424,-421.178 869.322,-406.4 865.202,-391.557"/>
<polygon fill="black" stroke="black" points="868.551,-390.535 862.504,-381.835 861.806,-392.407 868.551,-390.535"/>
</g>
<!-- NEMO/IKKA/IKKB -->
<g id="node18" class="node"><title>NEMO/IKKA/IKKB</title>
<ellipse fill="none" stroke="black" cx="817" cy="-449.473" rx="28.2154" ry="28.2154"/>
<text text-anchor="middle" x="817" y="-448.273" font-family="Times,serif" font-size="4.00">NEMO/IKKA/IKKB</text>
</g>
<!-- NEMO/IKKA/IKKB&#45;&gt;pr_90cd3a08&#45;c5f2&#45;4ef8&#45;8a9c&#45;0c8bde3331b9 -->
<g id="edge26" class="edge"><title>NEMO/IKKA/IKKB&#45;&gt;pr_90cd3a08&#45;c5f2&#45;4ef8&#45;8a9c&#45;0c8bde3331b9</title>
<path fill="none" stroke="black" d="M824.261,-422.312C826.803,-413.157 829.768,-402.472 832.745,-391.746"/>
<polygon fill="black" stroke="black" points="836.169,-392.497 835.471,-381.925 829.424,-390.625 836.169,-392.497"/>
</g>
<!-- pr_a009a764&#45;cdf8&#45;4953&#45;870d&#45;fdf7969251e1 -->
<g id="node46" class="node"><title>pr_a009a764&#45;cdf8&#45;4953&#45;870d&#45;fdf7969251e1</title>
<polygon fill="none" stroke="black" points="710,-381.184 612,-381.184 612,-283.184 710,-283.184 710,-381.184"/>
<text text-anchor="middle" x="661" y="-330.984" font-family="Times,serif" font-size="4.00">pr_a009a764&#45;cdf8&#45;4953&#45;870d&#45;fdf7969251e1</text>
</g>
<!-- NEMO/IKKA/IKKB&#45;&gt;pr_a009a764&#45;cdf8&#45;4953&#45;870d&#45;fdf7969251e1 -->
<g id="edge27" class="edge"><title>NEMO/IKKA/IKKB&#45;&gt;pr_a009a764&#45;cdf8&#45;4953&#45;870d&#45;fdf7969251e1</title>
<path fill="none" stroke="black" d="M795.67,-430.613C790.586,-426.467 785.143,-422.119 780,-418.184 760.24,-403.064 738.17,-387.064 718.454,-373.074"/>
<polygon fill="black" stroke="black" points="720.347,-370.126 710.162,-367.209 716.305,-375.841 720.347,-370.126"/>
</g>
<!-- LPS/TNF α/IL&#45;1 -->
<g id="node19" class="node"><title>LPS/TNF α/IL&#45;1</title>
<ellipse fill="none" stroke="black" cx="343" cy="-680.279" rx="23.7305" ry="23.7305"/>
<text text-anchor="middle" x="343" y="-679.079" font-family="Times,serif" font-size="4.00">LPS/TNF α/IL&#45;1</text>
</g>
<!-- pr_d0664f73&#45;924c&#45;44ca&#45;9495&#45;a77ebc06ad34 -->
<g id="node20" class="node"><title>pr_d0664f73&#45;924c&#45;44ca&#45;9495&#45;a77ebc06ad34</title>
<polygon fill="none" stroke="black" points="393,-617.263 293,-617.263 293,-517.263 393,-517.263 393,-617.263"/>
<text text-anchor="middle" x="343" y="-566.063" font-family="Times,serif" font-size="4.00">pr_d0664f73&#45;924c&#45;44ca&#45;9495&#45;a77ebc06ad34</text>
</g>
<!-- LPS/TNF α/IL&#45;1&#45;&gt;pr_d0664f73&#45;924c&#45;44ca&#45;9495&#45;a77ebc06ad34 -->
<g id="edge28" class="edge"><title>LPS/TNF α/IL&#45;1&#45;&gt;pr_d0664f73&#45;924c&#45;44ca&#45;9495&#45;a77ebc06ad34</title>
<path fill="none" stroke="black" d="M343,-656.277C343,-647.798 343,-637.757 343,-627.545"/>
<polygon fill="black" stroke="black" points="346.5,-627.327 343,-617.327 339.5,-627.327 346.5,-627.327"/>
</g>
<!-- IKBKG/IKBKB/CHUK -->
<g id="node22" class="node"><title>IKBKG/IKBKB/CHUK</title>
<ellipse fill="none" stroke="black" cx="343" cy="-449.473" rx="31.0804" ry="31.0804"/>
<text text-anchor="middle" x="343" y="-448.273" font-family="Times,serif" font-size="4.00">IKBKG/IKBKB/CHUK</text>
</g>
<!-- pr_d0664f73&#45;924c&#45;44ca&#45;9495&#45;a77ebc06ad34&#45;&gt;IKBKG/IKBKB/CHUK -->
<g id="edge29" class="edge"><title>pr_d0664f73&#45;924c&#45;44ca&#45;9495&#45;a77ebc06ad34&#45;&gt;IKBKG/IKBKB/CHUK</title>
<path fill="none" stroke="black" d="M343,-517.158C343,-508.393 343,-499.354 343,-490.869"/>
<polygon fill="black" stroke="black" points="346.5,-490.848 343,-480.848 339.5,-490.848 346.5,-490.848"/>
</g>
<!-- E -->
<g id="node21" class="node"><title>E</title>
<ellipse fill="none" stroke="black" cx="281" cy="-680.279" rx="18" ry="18"/>
<text text-anchor="middle" x="281" y="-679.079" font-family="Times,serif" font-size="4.00">E</text>
</g>
<!-- E&#45;&gt;pr_d0664f73&#45;924c&#45;44ca&#45;9495&#45;a77ebc06ad34 -->
<g id="edge30" class="edge"><title>E&#45;&gt;pr_d0664f73&#45;924c&#45;44ca&#45;9495&#45;a77ebc06ad34</title>
<path fill="none" stroke="black" d="M289.362,-664.307C294.946,-654.308 302.684,-640.452 310.548,-626.371"/>
<polygon fill="black" stroke="black" points="313.622,-628.045 315.442,-617.608 307.51,-624.632 313.622,-628.045"/>
</g>
<!-- E&#45;&gt;pr_1620a471&#45;0bf7&#45;4d18&#45;9547&#45;b35498390303 -->
<g id="edge31" class="edge"><title>E&#45;&gt;pr_1620a471&#45;0bf7&#45;4d18&#45;9547&#45;b35498390303</title>
<path fill="none" stroke="black" d="M273.213,-663.843C268.234,-653.97 261.427,-640.477 254.498,-626.74"/>
<polygon fill="black" stroke="black" points="257.573,-625.066 249.945,-617.714 251.323,-628.219 257.573,-625.066"/>
</g>
<!-- Pro_IL1b -->
<g id="node23" class="node"><title>Pro_IL1b</title>
<ellipse fill="none" stroke="black" cx="225" cy="-449.473" rx="18" ry="18"/>
<text text-anchor="middle" x="225" y="-448.273" font-family="Times,serif" font-size="4.00">Pro_IL1b</text>
</g>
<!-- Pro_IL1b&#45;&gt;pr_1620a471&#45;0bf7&#45;4d18&#45;9547&#45;b35498390303 -->
<g id="edge32" class="edge"><title>Pro_IL1b&#45;&gt;pr_1620a471&#45;0bf7&#45;4d18&#45;9547&#45;b35498390303</title>
<path fill="none" stroke="black" d="M229.878,-466.86C231.087,-477.537 231.711,-492.186 231.748,-506.959"/>
<polygon fill="black" stroke="black" points="228.247,-507.134 231.68,-517.158 235.247,-507.181 228.247,-507.134"/>
</g>
<!-- pr_1620a471&#45;0bf7&#45;4d18&#45;9547&#45;b35498390303&#45;&gt;Pro_IL1b -->
<g id="edge33" class="edge"><title>pr_1620a471&#45;0bf7&#45;4d18&#45;9547&#45;b35498390303&#45;&gt;Pro_IL1b</title>
<path fill="none" stroke="black" d="M218.32,-517.158C218.1,-503.378 218.401,-488.918 219.222,-476.999"/>
<polygon fill="black" stroke="black" points="222.724,-477.13 220.122,-466.86 215.751,-476.511 222.724,-477.13"/>
</g>
<!-- SERPINF2 -->
<g id="node25" class="node"><title>SERPINF2</title>
<ellipse fill="none" stroke="black" cx="499" cy="-227.092" rx="19.1842" ry="19.1842"/>
<text text-anchor="middle" x="499" y="-225.892" font-family="Times,serif" font-size="4.00">SERPINF2</text>
</g>
<!-- pr_8bc7d823&#45;4e68&#45;46d5&#45;9f29&#45;c72a61fc21c0 -->
<g id="node26" class="node"><title>pr_8bc7d823&#45;4e68&#45;46d5&#45;9f29&#45;c72a61fc21c0</title>
<polygon fill="none" stroke="black" points="548.5,-171.5 449.5,-171.5 449.5,-72.5 548.5,-72.5 548.5,-171.5"/>
<text text-anchor="middle" x="499" y="-120.8" font-family="Times,serif" font-size="4.00">pr_8bc7d823&#45;4e68&#45;46d5&#45;9f29&#45;c72a61fc21c0</text>
</g>
<!-- SERPINF2&#45;&gt;pr_8bc7d823&#45;4e68&#45;46d5&#45;9f29&#45;c72a61fc21c0 -->
<g id="edge34" class="edge"><title>SERPINF2&#45;&gt;pr_8bc7d823&#45;4e68&#45;46d5&#45;9f29&#45;c72a61fc21c0</title>
<path fill="none" stroke="black" d="M499,-207.661C499,-200.261 499,-191.281 499,-181.971"/>
<polygon fill="black" stroke="black" points="502.5,-181.798 499,-171.798 495.5,-181.798 502.5,-181.798"/>
</g>
<!-- pr_c534653f&#45;2b1e&#45;445e&#45;aed1&#45;e425c3c64547 -->
<g id="node51" class="node"><title>pr_c534653f&#45;2b1e&#45;445e&#45;aed1&#45;e425c3c64547</title>
<polygon fill="none" stroke="black" points="549,-382.184 449,-382.184 449,-282.184 549,-282.184 549,-382.184"/>
<text text-anchor="middle" x="499" y="-330.984" font-family="Times,serif" font-size="4.00">pr_c534653f&#45;2b1e&#45;445e&#45;aed1&#45;e425c3c64547</text>
</g>
<!-- SERPINF2&#45;&gt;pr_c534653f&#45;2b1e&#45;445e&#45;aed1&#45;e425c3c64547 -->
<g id="edge35" class="edge"><title>SERPINF2&#45;&gt;pr_c534653f&#45;2b1e&#45;445e&#45;aed1&#45;e425c3c64547</title>
<path fill="none" stroke="black" d="M504.219,-245.595C505.026,-253.101 505.514,-262.349 505.683,-271.962"/>
<polygon fill="black" stroke="black" points="502.184,-272.074 505.743,-282.053 509.183,-272.032 502.184,-272.074"/>
</g>
<!-- IFNB1 -->
<g id="node27" class="node"><title>IFNB1</title>
<ellipse fill="none" stroke="black" cx="499" cy="-18" rx="18" ry="18"/>
<text text-anchor="middle" x="499" y="-16.8" font-family="Times,serif" font-size="4.00">IFNB1</text>
</g>
<!-- pr_8bc7d823&#45;4e68&#45;46d5&#45;9f29&#45;c72a61fc21c0&#45;&gt;IFNB1 -->
<g id="edge36" class="edge"><title>pr_8bc7d823&#45;4e68&#45;46d5&#45;9f29&#45;c72a61fc21c0&#45;&gt;IFNB1</title>
<path fill="none" stroke="black" d="M499,-72.3898C499,-63.5002 499,-54.5136 499,-46.5134"/>
<polygon fill="black" stroke="black" points="502.5,-46.3173 499,-36.3173 495.5,-46.3174 502.5,-46.3173"/>
</g>
<!-- pr_1cb75f6f&#45;2921&#45;4e60&#45;9746&#45;07f4984cac37&#45;&gt;Pro_IL1b -->
<g id="edge37" class="edge"><title>pr_1cb75f6f&#45;2921&#45;4e60&#45;9746&#45;07f4984cac37&#45;&gt;Pro_IL1b</title>
<path fill="none" stroke="black" d="M126.34,-744.134C126.207,-687.21 131.82,-590.867 166,-516.763 174.657,-497.994 190.444,-480.692 203.51,-468.474"/>
<polygon fill="black" stroke="black" points="206.109,-470.843 211.206,-461.555 201.429,-465.638 206.109,-470.843"/>
</g>
<!-- TLR3 -->
<g id="node29" class="node"><title>TLR3</title>
<ellipse fill="none" stroke="black" cx="737" cy="-1126.51" rx="18" ry="18"/>
<text text-anchor="middle" x="737" y="-1125.31" font-family="Times,serif" font-size="4.00">TLR3</text>
</g>
<!-- pr_b10bd3dc&#45;7bc2&#45;4fcc&#45;97d3&#45;5bd02d85a676 -->
<g id="node30" class="node"><title>pr_b10bd3dc&#45;7bc2&#45;4fcc&#45;97d3&#45;5bd02d85a676</title>
<polygon fill="none" stroke="black" points="805,-1069.33 705,-1069.33 705,-969.329 805,-969.329 805,-1069.33"/>
<text text-anchor="middle" x="755" y="-1018.13" font-family="Times,serif" font-size="4.00">pr_b10bd3dc&#45;7bc2&#45;4fcc&#45;97d3&#45;5bd02d85a676</text>
</g>
<!-- TLR3&#45;&gt;pr_b10bd3dc&#45;7bc2&#45;4fcc&#45;97d3&#45;5bd02d85a676 -->
<g id="edge38" class="edge"><title>TLR3&#45;&gt;pr_b10bd3dc&#45;7bc2&#45;4fcc&#45;97d3&#45;5bd02d85a676</title>
<path fill="none" stroke="black" d="M734.777,-1108.61C735.268,-1100.43 736.511,-1090.07 738.196,-1079.34"/>
<polygon fill="black" stroke="black" points="741.653,-1079.89 739.858,-1069.45 734.75,-1078.73 741.653,-1079.89"/>
</g>
<!-- pr_bd6a28f3&#45;3e3e&#45;4ef1&#45;98de&#45;268634866d2a -->
<g id="node33" class="node"><title>pr_bd6a28f3&#45;3e3e&#45;4ef1&#45;98de&#45;268634866d2a</title>
<polygon fill="none" stroke="black" points="648.5,-1068.83 549.5,-1068.83 549.5,-969.829 648.5,-969.829 648.5,-1068.83"/>
<text text-anchor="middle" x="599" y="-1018.13" font-family="Times,serif" font-size="4.00">pr_bd6a28f3&#45;3e3e&#45;4ef1&#45;98de&#45;268634866d2a</text>
</g>
<!-- TLR3&#45;&gt;pr_bd6a28f3&#45;3e3e&#45;4ef1&#45;98de&#45;268634866d2a -->
<g id="edge39" class="edge"><title>TLR3&#45;&gt;pr_bd6a28f3&#45;3e3e&#45;4ef1&#45;98de&#45;268634866d2a</title>
<path fill="none" stroke="black" d="M723.008,-1114.85C707.433,-1102.98 681.245,-1083.02 656.938,-1064.49"/>
<polygon fill="black" stroke="black" points="658.86,-1061.55 648.785,-1058.27 654.617,-1067.12 658.86,-1061.55"/>
</g>
<!-- pr_b10bd3dc&#45;7bc2&#45;4fcc&#45;97d3&#45;5bd02d85a676&#45;&gt;TLR3 -->
<g id="edge40" class="edge"><title>pr_b10bd3dc&#45;7bc2&#45;4fcc&#45;97d3&#45;5bd02d85a676&#45;&gt;TLR3</title>
<path fill="none" stroke="black" d="M753.29,-1069.7C751.567,-1080.2 749.454,-1090.87 747.24,-1100.03"/>
<polygon fill="black" stroke="black" points="743.779,-1099.43 744.611,-1109.99 750.547,-1101.22 743.779,-1099.43"/>
</g>
<!-- dsRNA -->
<g id="node31" class="node"><title>dsRNA</title>
<ellipse fill="none" stroke="black" cx="791" cy="-1126.51" rx="18" ry="18"/>
<text text-anchor="middle" x="791" y="-1125.31" font-family="Times,serif" font-size="4.00">dsRNA</text>
</g>
<!-- dsRNA&#45;&gt;pr_b10bd3dc&#45;7bc2&#45;4fcc&#45;97d3&#45;5bd02d85a676 -->
<g id="edge41" class="edge"><title>dsRNA&#45;&gt;pr_b10bd3dc&#45;7bc2&#45;4fcc&#45;97d3&#45;5bd02d85a676</title>
<path fill="none" stroke="black" d="M785.375,-1109.08C782.53,-1100.76 778.886,-1090.12 775.116,-1079.1"/>
<polygon fill="black" stroke="black" points="778.338,-1077.71 771.788,-1069.38 771.715,-1079.97 778.338,-1077.71"/>
</g>
<!-- TICAM1 -->
<g id="node32" class="node"><title>TICAM1</title>
<ellipse fill="none" stroke="black" cx="599" cy="-1126.51" rx="18" ry="18"/>
<text text-anchor="middle" x="599" y="-1125.31" font-family="Times,serif" font-size="4.00">TICAM1</text>
</g>
<!-- TICAM1&#45;&gt;pr_bd6a28f3&#45;3e3e&#45;4ef1&#45;98de&#45;268634866d2a -->
<g id="edge42" class="edge"><title>TICAM1&#45;&gt;pr_bd6a28f3&#45;3e3e&#45;4ef1&#45;98de&#45;268634866d2a</title>
<path fill="none" stroke="black" d="M593.938,-1109.08C592.989,-1100.76 592.44,-1090.11 592.291,-1079.09"/>
<polygon fill="black" stroke="black" points="595.791,-1078.91 592.267,-1068.92 588.791,-1078.93 595.791,-1078.91"/>
</g>
<!-- TICAM1&#45;&gt;pr_fbd972b9&#45;1209&#45;43bd&#45;bb71&#45;19127a4c55ab -->
<g id="edge43" class="edge"><title>TICAM1&#45;&gt;pr_fbd972b9&#45;1209&#45;43bd&#45;bb71&#45;19127a4c55ab</title>
<path fill="none" stroke="black" d="M585.921,-1113.85C574.265,-1103.46 556.351,-1087.5 538.605,-1071.68"/>
<polygon fill="black" stroke="black" points="540.823,-1068.97 531.029,-1064.92 536.165,-1074.19 540.823,-1068.97"/>
</g>
<!-- pr_bd6a28f3&#45;3e3e&#45;4ef1&#45;98de&#45;268634866d2a&#45;&gt;TICAM1 -->
<g id="edge44" class="edge"><title>pr_bd6a28f3&#45;3e3e&#45;4ef1&#45;98de&#45;268634866d2a&#45;&gt;TICAM1</title>
<path fill="none" stroke="black" d="M605.733,-1068.92C605.823,-1079.3 605.561,-1089.89 604.946,-1099.06"/>
<polygon fill="black" stroke="black" points="601.455,-1098.81 604.062,-1109.08 608.428,-1099.42 601.455,-1098.81"/>
</g>
<!-- TRIM38 -->
<g id="node34" class="node"><title>TRIM38</title>
<ellipse fill="none" stroke="black" cx="665" cy="-1126.51" rx="18" ry="18"/>
<text text-anchor="middle" x="665" y="-1125.31" font-family="Times,serif" font-size="4.00">TRIM38</text>
</g>
<!-- TRIM38&#45;&gt;pr_bd6a28f3&#45;3e3e&#45;4ef1&#45;98de&#45;268634866d2a -->
<g id="edge45" class="edge"><title>TRIM38&#45;&gt;pr_bd6a28f3&#45;3e3e&#45;4ef1&#45;98de&#45;268634866d2a</title>
<path fill="none" stroke="black" d="M655.823,-1110.89C650.24,-1101.99 642.709,-1089.99 634.958,-1077.63"/>
<polygon fill="black" stroke="black" points="637.859,-1075.67 629.579,-1069.06 631.929,-1079.39 637.859,-1075.67"/>
</g>
<!-- TRIM38&#45;&gt;pr_79bf6dbe&#45;4360&#45;4585&#45;a379&#45;6b55907cbe62 -->
<g id="edge46" class="edge"><title>TRIM38&#45;&gt;pr_79bf6dbe&#45;4360&#45;4585&#45;a379&#45;6b55907cbe62</title>
<path fill="none" stroke="black" d="M666.569,-1108.55C669.822,-1071.88 677,-982.432 677,-907.312 677,-907.312 677,-907.312 677,-792.296 677,-734.777 658.589,-671.61 642.336,-627.054"/>
<polygon fill="black" stroke="black" points="645.569,-625.707 638.801,-617.556 639.009,-628.149 645.569,-625.707"/>
</g>
<!-- pr_ff4cf994&#45;e759&#45;4c18&#45;95b4&#45;db4e7bbf4c83&#45;&gt;TRIM59 -->
<g id="edge47" class="edge"><title>pr_ff4cf994&#45;e759&#45;4c18&#45;95b4&#45;db4e7bbf4c83&#45;&gt;TRIM59</title>
<path fill="none" stroke="black" d="M357.304,-970.281C357.121,-957.799 357.4,-944.805 358.142,-933.884"/>
<polygon fill="black" stroke="black" points="361.644,-934.02 359.038,-923.751 354.671,-933.404 361.644,-934.02"/>
</g>
<!-- TLR7/8/9 -->
<g id="node36" class="node"><title>TLR7/8/9</title>
<ellipse fill="none" stroke="black" cx="826" cy="-680.279" rx="18.0625" ry="18.0625"/>
<text text-anchor="middle" x="826" y="-679.079" font-family="Times,serif" font-size="4.00">TLR7/8/9</text>
</g>
<!-- pr_b20fd1f5&#45;737a&#45;49d5&#45;a039&#45;8abdfa222765 -->
<g id="node37" class="node"><title>pr_b20fd1f5&#45;737a&#45;49d5&#45;a039&#45;8abdfa222765</title>
<polygon fill="none" stroke="black" points="902,-616.263 804,-616.263 804,-518.263 902,-518.263 902,-616.263"/>
<text text-anchor="middle" x="853" y="-566.063" font-family="Times,serif" font-size="4.00">pr_b20fd1f5&#45;737a&#45;49d5&#45;a039&#45;8abdfa222765</text>
</g>
<!-- TLR7/8/9&#45;&gt;pr_b20fd1f5&#45;737a&#45;49d5&#45;a039&#45;8abdfa222765 -->
<g id="edge48" class="edge"><title>TLR7/8/9&#45;&gt;pr_b20fd1f5&#45;737a&#45;49d5&#45;a039&#45;8abdfa222765</title>
<path fill="none" stroke="black" d="M825.156,-661.933C826.469,-652.214 829.009,-639.469 832.088,-626.524"/>
<polygon fill="black" stroke="black" points="835.531,-627.181 834.536,-616.633 828.736,-625.499 835.531,-627.181"/>
</g>
<!-- pr_1101a34c&#45;3d9b&#45;4193&#45;8d1d&#45;3ae6a7fb99ef -->
<g id="node40" class="node"><title>pr_1101a34c&#45;3d9b&#45;4193&#45;8d1d&#45;3ae6a7fb99ef</title>
<polygon fill="none" stroke="black" points="785.5,-616.763 686.5,-616.763 686.5,-517.763 785.5,-517.763 785.5,-616.763"/>
<text text-anchor="middle" x="736" y="-566.063" font-family="Times,serif" font-size="4.00">pr_1101a34c&#45;3d9b&#45;4193&#45;8d1d&#45;3ae6a7fb99ef</text>
</g>
<!-- TLR7/8/9&#45;&gt;pr_1101a34c&#45;3d9b&#45;4193&#45;8d1d&#45;3ae6a7fb99ef -->
<g id="edge49" class="edge"><title>TLR7/8/9&#45;&gt;pr_1101a34c&#45;3d9b&#45;4193&#45;8d1d&#45;3ae6a7fb99ef</title>
<path fill="none" stroke="black" d="M814.964,-665.666C806.53,-655.263 794.291,-640.166 781.956,-624.95"/>
<polygon fill="black" stroke="black" points="784.533,-622.571 775.516,-617.007 779.095,-626.979 784.533,-622.571"/>
</g>
<!-- pr_b20fd1f5&#45;737a&#45;49d5&#45;a039&#45;8abdfa222765&#45;&gt;TLR7/8/9 -->
<g id="edge50" class="edge"><title>pr_b20fd1f5&#45;737a&#45;49d5&#45;a039&#45;8abdfa222765&#45;&gt;TLR7/8/9</title>
<path fill="none" stroke="black" d="M847.941,-616.613C844.919,-629.8 841.249,-643.536 837.67,-654.775"/>
<polygon fill="black" stroke="black" points="834.334,-653.713 834.43,-664.307 840.962,-655.965 834.334,-653.713"/>
</g>
<!-- ssRNA -->
<g id="node38" class="node"><title>ssRNA</title>
<ellipse fill="none" stroke="black" cx="880" cy="-680.279" rx="18" ry="18"/>
<text text-anchor="middle" x="880" y="-679.079" font-family="Times,serif" font-size="4.00">ssRNA</text>
</g>
<!-- ssRNA&#45;&gt;pr_b20fd1f5&#45;737a&#45;49d5&#45;a039&#45;8abdfa222765 -->
<g id="edge51" class="edge"><title>ssRNA&#45;&gt;pr_b20fd1f5&#45;737a&#45;49d5&#45;a039&#45;8abdfa222765</title>
<path fill="none" stroke="black" d="M875.899,-662.418C873.525,-652.654 870.38,-639.723 867.184,-626.582"/>
<polygon fill="black" stroke="black" points="870.505,-625.43 864.741,-616.54 863.704,-627.084 870.505,-625.43"/>
</g>
<!-- MYD88 -->
<g id="node39" class="node"><title>MYD88</title>
<ellipse fill="none" stroke="black" cx="736" cy="-680.279" rx="18" ry="18"/>
<text text-anchor="middle" x="736" y="-679.079" font-family="Times,serif" font-size="4.00">MYD88</text>
</g>
<!-- MYD88&#45;&gt;pr_1101a34c&#45;3d9b&#45;4193&#45;8d1d&#45;3ae6a7fb99ef -->
<g id="edge52" class="edge"><title>MYD88&#45;&gt;pr_1101a34c&#45;3d9b&#45;4193&#45;8d1d&#45;3ae6a7fb99ef</title>
<path fill="none" stroke="black" d="M731.045,-662.898C729.939,-653.19 729.344,-640.232 729.26,-627.027"/>
<polygon fill="black" stroke="black" points="732.761,-626.943 729.296,-616.931 725.761,-626.919 732.761,-626.943"/>
</g>
<!-- MYD88&#45;&gt;pr_79bf6dbe&#45;4360&#45;4585&#45;a379&#45;6b55907cbe62 -->
<g id="edge53" class="edge"><title>MYD88&#45;&gt;pr_79bf6dbe&#45;4360&#45;4585&#45;a379&#45;6b55907cbe62</title>
<path fill="none" stroke="black" d="M723.372,-667.399C711.771,-656.484 693.708,-639.49 675.793,-622.636"/>
<polygon fill="black" stroke="black" points="677.826,-619.742 668.144,-615.439 673.029,-624.841 677.826,-619.742"/>
</g>
<!-- pr_1101a34c&#45;3d9b&#45;4193&#45;8d1d&#45;3ae6a7fb99ef&#45;&gt;MYD88 -->
<g id="edge54" class="edge"><title>pr_1101a34c&#45;3d9b&#45;4193&#45;8d1d&#45;3ae6a7fb99ef&#45;&gt;MYD88</title>
<path fill="none" stroke="black" d="M742.704,-616.931C742.87,-629.293 742.584,-642.116 741.845,-652.894"/>
<polygon fill="black" stroke="black" points="738.355,-652.628 740.955,-662.898 745.328,-653.248 738.355,-652.628"/>
</g>
<!-- pr_79bf6dbe&#45;4360&#45;4585&#45;a379&#45;6b55907cbe62&#45;&gt;TRAF6 -->
<g id="edge55" class="edge"><title>pr_79bf6dbe&#45;4360&#45;4585&#45;a379&#45;6b55907cbe62&#45;&gt;TRAF6</title>
<path fill="none" stroke="black" d="M600.313,-617.512C593.669,-631.263 586.209,-645.533 579.635,-656.889"/>
<polygon fill="black" stroke="black" points="576.511,-655.293 574.358,-665.666 582.51,-658.899 576.511,-655.293"/>
</g>
<!-- TRIM23 -->
<g id="node42" class="node"><title>TRIM23</title>
<ellipse fill="none" stroke="black" cx="618" cy="-680.279" rx="18" ry="18"/>
<text text-anchor="middle" x="618" y="-679.079" font-family="Times,serif" font-size="4.00">TRIM23</text>
</g>
<!-- TRIM23&#45;&gt;pr_79bf6dbe&#45;4360&#45;4585&#45;a379&#45;6b55907cbe62 -->
<g id="edge56" class="edge"><title>TRIM23&#45;&gt;pr_79bf6dbe&#45;4360&#45;4585&#45;a379&#45;6b55907cbe62</title>
<path fill="none" stroke="black" d="M618,-661.933C618,-652.501 618,-640.221 618,-627.674"/>
<polygon fill="black" stroke="black" points="621.5,-627.603 618,-617.603 614.5,-627.603 621.5,-627.603"/>
</g>
<!-- TAB2/TAB3/TAK1 -->
<g id="node43" class="node"><title>TAB2/TAB3/TAK1</title>
<ellipse fill="none" stroke="black" cx="499" cy="-449.473" rx="27.0938" ry="27.0938"/>
<text text-anchor="middle" x="499" y="-448.273" font-family="Times,serif" font-size="4.00">TAB2/TAB3/TAK1</text>
</g>
<!-- TAB2/TAB3/TAK1&#45;&gt;pr_69486432&#45;ac99&#45;4086&#45;8c18&#45;26d730d431a3 -->
<g id="edge57" class="edge"><title>TAB2/TAB3/TAK1&#45;&gt;pr_69486432&#45;ac99&#45;4086&#45;8c18&#45;26d730d431a3</title>
<path fill="none" stroke="black" d="M504.706,-475.973C505.359,-485.005 505.706,-495.588 505.746,-506.266"/>
<polygon fill="black" stroke="black" points="502.245,-506.467 505.691,-516.486 509.245,-506.505 502.245,-506.467"/>
</g>
<!-- TAB2/TAB3/TAK1&#45;&gt;pr_a009a764&#45;cdf8&#45;4953&#45;870d&#45;fdf7969251e1 -->
<g id="edge58" class="edge"><title>TAB2/TAB3/TAK1&#45;&gt;pr_a009a764&#45;cdf8&#45;4953&#45;870d&#45;fdf7969251e1</title>
<path fill="none" stroke="black" d="M519.485,-431.162C524.79,-426.829 530.546,-422.258 536,-418.184 557.624,-402.031 582.048,-385.137 603.532,-370.706"/>
<polygon fill="black" stroke="black" points="605.553,-373.565 611.919,-365.096 601.661,-367.746 605.553,-373.565"/>
</g>
<!-- TAB2/TAB3/TAK1&#45;&gt;pr_c534653f&#45;2b1e&#45;445e&#45;aed1&#45;e425c3c64547 -->
<g id="edge59" class="edge"><title>TAB2/TAB3/TAK1&#45;&gt;pr_c534653f&#45;2b1e&#45;445e&#45;aed1&#45;e425c3c64547</title>
<path fill="none" stroke="black" d="M499,-422.312C499,-413.351 499,-402.925 499,-392.428"/>
<polygon fill="black" stroke="black" points="502.5,-392.388 499,-382.388 495.5,-392.388 502.5,-392.388"/>
</g>
<!-- pr_69486432&#45;ac99&#45;4086&#45;8c18&#45;26d730d431a3&#45;&gt;TAB2/TAB3/TAK1 -->
<g id="edge60" class="edge"><title>pr_69486432&#45;ac99&#45;4086&#45;8c18&#45;26d730d431a3&#45;&gt;TAB2/TAB3/TAK1</title>
<path fill="none" stroke="black" d="M492.309,-516.486C492.158,-506.223 492.295,-495.612 492.72,-485.98"/>
<polygon fill="black" stroke="black" points="496.216,-486.157 493.294,-475.973 489.227,-485.756 496.216,-486.157"/>
</g>
<!-- TRIM30a/TRIM38 -->
<g id="node45" class="node"><title>TRIM30a/TRIM38</title>
<ellipse fill="none" stroke="black" cx="499" cy="-680.279" rx="26.533" ry="26.533"/>
<text text-anchor="middle" x="499" y="-679.079" font-family="Times,serif" font-size="4.00">TRIM30a/TRIM38</text>
</g>
<!-- TRIM30a/TRIM38&#45;&gt;pr_69486432&#45;ac99&#45;4086&#45;8c18&#45;26d730d431a3 -->
<g id="edge61" class="edge"><title>TRIM30a/TRIM38&#45;&gt;pr_69486432&#45;ac99&#45;4086&#45;8c18&#45;26d730d431a3</title>
<path fill="none" stroke="black" d="M499,-653.531C499,-645.805 499,-636.988 499,-628.022"/>
<polygon fill="black" stroke="black" points="502.5,-627.886 499,-617.886 495.5,-627.886 502.5,-627.886"/>
</g>
<!-- TRIM22 -->
<g id="node47" class="node"><title>TRIM22</title>
<ellipse fill="none" stroke="black" cx="753" cy="-449.473" rx="18" ry="18"/>
<text text-anchor="middle" x="753" y="-448.273" font-family="Times,serif" font-size="4.00">TRIM22</text>
</g>
<!-- TRIM22&#45;&gt;pr_a009a764&#45;cdf8&#45;4953&#45;870d&#45;fdf7969251e1 -->
<g id="edge62" class="edge"><title>TRIM22&#45;&gt;pr_a009a764&#45;cdf8&#45;4953&#45;870d&#45;fdf7969251e1</title>
<path fill="none" stroke="black" d="M742.085,-434.795C733.004,-423.416 719.433,-406.409 705.978,-389.547"/>
<polygon fill="black" stroke="black" points="708.375,-386.94 699.402,-381.307 702.904,-391.307 708.375,-386.94"/>
</g>
<!-- TRIM27/TRIM21 -->
<g id="node48" class="node"><title>TRIM27/TRIM21</title>
<ellipse fill="none" stroke="black" cx="570" cy="-449.473" rx="25.4118" ry="25.4118"/>
<text text-anchor="middle" x="570" y="-448.273" font-family="Times,serif" font-size="4.00">TRIM27/TRIM21</text>
</g>
<!-- TRIM27/TRIM21&#45;&gt;pr_a009a764&#45;cdf8&#45;4953&#45;870d&#45;fdf7969251e1 -->
<g id="edge63" class="edge"><title>TRIM27/TRIM21&#45;&gt;pr_a009a764&#45;cdf8&#45;4953&#45;870d&#45;fdf7969251e1</title>
<path fill="none" stroke="black" d="M585.437,-428.916C594.165,-417.858 605.565,-403.416 616.853,-389.114"/>
<polygon fill="black" stroke="black" points="619.647,-391.224 623.096,-381.206 614.153,-386.887 619.647,-391.224"/>
</g>
<!-- TRIM29 -->
<g id="node49" class="node"><title>TRIM29</title>
<ellipse fill="none" stroke="black" cx="631" cy="-449.473" rx="18" ry="18"/>
<text text-anchor="middle" x="631" y="-448.273" font-family="Times,serif" font-size="4.00">TRIM29</text>
</g>
<!-- TRIM29&#45;&gt;pr_a009a764&#45;cdf8&#45;4953&#45;870d&#45;fdf7969251e1 -->
<g id="edge64" class="edge"><title>TRIM29&#45;&gt;pr_a009a764&#45;cdf8&#45;4953&#45;870d&#45;fdf7969251e1</title>
<path fill="none" stroke="black" d="M635.298,-431.955C638.129,-421.076 642.021,-406.119 645.92,-391.135"/>
<polygon fill="black" stroke="black" points="649.341,-391.886 648.472,-381.327 642.567,-390.123 649.341,-391.886"/>
</g>
<!-- TRIM14/TRIM23 -->
<g id="node50" class="node"><title>TRIM14/TRIM23</title>
<ellipse fill="none" stroke="black" cx="692" cy="-449.473" rx="25.4118" ry="25.4118"/>
<text text-anchor="middle" x="692" y="-448.273" font-family="Times,serif" font-size="4.00">TRIM14/TRIM23</text>
</g>
<!-- TRIM14/TRIM23&#45;&gt;pr_a009a764&#45;cdf8&#45;4953&#45;870d&#45;fdf7969251e1 -->
<g id="edge65" class="edge"><title>TRIM14/TRIM23&#45;&gt;pr_a009a764&#45;cdf8&#45;4953&#45;870d&#45;fdf7969251e1</title>
<path fill="none" stroke="black" d="M685.577,-424.585C682.944,-414.795 679.773,-402.999 676.595,-391.183"/>
<polygon fill="black" stroke="black" points="679.914,-390.045 673.937,-381.297 673.154,-391.863 679.914,-390.045"/>
</g>
<!-- pr_c534653f&#45;2b1e&#45;445e&#45;aed1&#45;e425c3c64547&#45;&gt;SERPINF2 -->
<g id="edge66" class="edge"><title>pr_c534653f&#45;2b1e&#45;445e&#45;aed1&#45;e425c3c64547&#45;&gt;SERPINF2</title>
<path fill="none" stroke="black" d="M492.257,-282.053C492.207,-272.966 492.438,-263.779 492.948,-255.625"/>
<polygon fill="black" stroke="black" points="496.442,-255.85 493.781,-245.595 489.466,-255.271 496.442,-255.85"/>
</g>
<!-- pr_fbd972b9&#45;1209&#45;43bd&#45;bb71&#45;19127a4c55ab&#45;&gt;TRAF3 -->
<g id="edge67" class="edge"><title>pr_fbd972b9&#45;1209&#45;43bd&#45;bb71&#45;19127a4c55ab&#45;&gt;TRAF3</title>
<path fill="none" stroke="black" d="M487.736,-1069.38C487.815,-1079.55 487.555,-1089.89 486.958,-1098.88"/>
<polygon fill="black" stroke="black" points="483.451,-1098.81 486.062,-1109.08 490.424,-1099.42 483.451,-1098.81"/>
</g>
<!-- NFKB1 -->
<g id="node54" class="node"><title>NFKB1</title>
<ellipse fill="none" stroke="black" cx="849" cy="-18" rx="18" ry="18"/>
<text text-anchor="middle" x="849" y="-16.8" font-family="Times,serif" font-size="4.00">NFKB1</text>
</g>
<!-- pr_813ee590&#45;1fd6&#45;4222&#45;b408&#45;de89ac8d968a&#45;&gt;NFKB1 -->
<g id="edge68" class="edge"><title>pr_813ee590&#45;1fd6&#45;4222&#45;b408&#45;de89ac8d968a&#45;&gt;NFKB1</title>
<path fill="none" stroke="black" d="M849,-71.7926C849,-62.9666 849,-54.0689 849,-46.1586"/>
<polygon fill="black" stroke="black" points="852.5,-46.0832 849,-36.0833 845.5,-46.0833 852.5,-46.0832"/>
</g>
</g>
</svg>
