<?xml version="1.0" encoding="UTF-8" standalone="no"?>
<!DOCTYPE svg PUBLIC "-//W3C//DTD SVG 1.1//EN"
 "http://www.w3.org/Graphics/SVG/1.1/DTD/svg11.dtd">
<!-- Generated by graphviz version 2.38.0 (20140413.2041)
 -->
<!-- Title: G Pages: 1 -->
<svg width="938pt" height="265pt"
 viewBox="0.00 0.00 938.00 264.73" xmlns="http://www.w3.org/2000/svg" xmlns:xlink="http://www.w3.org/1999/xlink">
<g id="graph0" class="graph" transform="scale(1 1) rotate(0) translate(4 260.73)">
<title>G</title>
<polygon fill="white" stroke="none" points="-4,4 -4,-260.73 934,-260.73 934,4 -4,4"/>
<!-- IFNB1 -->
<g id="node1" class="node"><title>IFNB1</title>
<ellipse fill="none" stroke="black" cx="110.5" cy="-238.73" rx="18" ry="18"/>
<text text-anchor="middle" x="110.5" y="-237.53" font-family="Times,serif" font-size="4.00">IFNB1</text>
</g>
<!-- pr_b84352da&#45;6edd&#45;4408&#45;a3d1&#45;28664800956d -->
<g id="node2" class="node"><title>pr_b84352da&#45;6edd&#45;4408&#45;a3d1&#45;28664800956d</title>
<polygon fill="none" stroke="black" points="101,-184.73 0,-184.73 0,-83.7297 101,-83.7297 101,-184.73"/>
<text text-anchor="middle" x="50.5" y="-133.03" font-family="Times,serif" font-size="4.00">pr_b84352da&#45;6edd&#45;4408&#45;a3d1&#45;28664800956d</text>
</g>
<!-- IFNB1&#45;&gt;pr_b84352da&#45;6edd&#45;4408&#45;a3d1&#45;28664800956d -->
<g id="edge1" class="edge"><title>IFNB1&#45;&gt;pr_b84352da&#45;6edd&#45;4408&#45;a3d1&#45;28664800956d</title>
<path fill="none" stroke="black" d="M98.5286,-225.161C92.5632,-216.988 85.2508,-205.677 78.115,-193.831"/>
<polygon fill="black" stroke="black" points="81.0796,-191.968 72.9721,-185.147 75.0567,-195.535 81.0796,-191.968"/>
</g>
<!-- pr_5647b1a8&#45;8d7e&#45;429f&#45;bc11&#45;5a270cb3b244 -->
<g id="node3" class="node"><title>pr_5647b1a8&#45;8d7e&#45;429f&#45;bc11&#45;5a270cb3b244</title>
<polygon fill="none" stroke="black" points="219.5,-184.23 119.5,-184.23 119.5,-84.2297 219.5,-84.2297 219.5,-184.23"/>
<text text-anchor="middle" x="169.5" y="-133.03" font-family="Times,serif" font-size="4.00">pr_5647b1a8&#45;8d7e&#45;429f&#45;bc11&#45;5a270cb3b244</text>
</g>
<!-- IFNB1&#45;&gt;pr_5647b1a8&#45;8d7e&#45;429f&#45;bc11&#45;5a270cb3b244 -->
<g id="edge2" class="edge"><title>IFNB1&#45;&gt;pr_5647b1a8&#45;8d7e&#45;429f&#45;bc11&#45;5a270cb3b244</title>
<path fill="none" stroke="black" d="M114.865,-221.261C118.497,-213.392 123.691,-203.45 129.465,-193.143"/>
<polygon fill="black" stroke="black" points="132.517,-194.857 134.431,-184.437 126.436,-191.39 132.517,-194.857"/>
</g>
<!-- pr_b84352da&#45;6edd&#45;4408&#45;a3d1&#45;28664800956d&#45;&gt;IFNB1 -->
<g id="edge3" class="edge"><title>pr_b84352da&#45;6edd&#45;4408&#45;a3d1&#45;28664800956d&#45;&gt;IFNB1</title>
<path fill="none" stroke="black" d="M86.3134,-184.885C91.8756,-194.328 97.1742,-203.843 101.458,-212.147"/>
<polygon fill="black" stroke="black" points="98.3981,-213.856 105.975,-221.261 104.67,-210.747 98.3981,-213.856"/>
</g>
<!-- pr_5647b1a8&#45;8d7e&#45;429f&#45;bc11&#45;5a270cb3b244&#45;&gt;IFNB1 -->
<g id="edge4" class="edge"><title>pr_5647b1a8&#45;8d7e&#45;429f&#45;bc11&#45;5a270cb3b244&#45;&gt;IFNB1</title>
<path fill="none" stroke="black" d="M147.783,-184.678C141.284,-196.05 134.273,-207.541 128.042,-216.906"/>
<polygon fill="black" stroke="black" points="125.145,-214.942 122.349,-225.161 130.908,-218.916 125.145,-214.942"/>
</g>
<!-- STOML2 -->
<g id="node4" class="node"><title>STOML2</title>
<ellipse fill="none" stroke="black" cx="524.5" cy="-238.73" rx="18" ry="18"/>
<text text-anchor="middle" x="524.5" y="-237.53" font-family="Times,serif" font-size="4.00">STOML2</text>
</g>
<!-- pr_166e2388&#45;d566&#45;4331&#45;b3d6&#45;57de14b5e286 -->
<g id="node5" class="node"><title>pr_166e2388&#45;d566&#45;4331&#45;b3d6&#45;57de14b5e286</title>
<polygon fill="none" stroke="black" points="339,-184.73 238,-184.73 238,-83.7297 339,-83.7297 339,-184.73"/>
<text text-anchor="middle" x="288.5" y="-133.03" font-family="Times,serif" font-size="4.00">pr_166e2388&#45;d566&#45;4331&#45;b3d6&#45;57de14b5e286</text>
</g>
<!-- STOML2&#45;&gt;pr_166e2388&#45;d566&#45;4331&#45;b3d6&#45;57de14b5e286 -->
<g id="edge5" class="edge"><title>STOML2&#45;&gt;pr_166e2388&#45;d566&#45;4331&#45;b3d6&#45;57de14b5e286</title>
<path fill="none" stroke="black" d="M507.401,-232.813C469.622,-221.925 380.334,-196.054 348.625,-183.914"/>
<polygon fill="black" stroke="black" points="349.648,-180.542 339.082,-179.754 346.85,-186.959 349.648,-180.542"/>
</g>
<!-- pr_8eb342e8&#45;86b6&#45;462e&#45;9db0&#45;cefdc1ce592f -->
<g id="node9" class="node"><title>pr_8eb342e8&#45;86b6&#45;462e&#45;9db0&#45;cefdc1ce592f</title>
<polygon fill="none" stroke="black" points="456,-183.73 357,-183.73 357,-84.7297 456,-84.7297 456,-183.73"/>
<text text-anchor="middle" x="406.5" y="-133.03" font-family="Times,serif" font-size="4.00">pr_8eb342e8&#45;86b6&#45;462e&#45;9db0&#45;cefdc1ce592f</text>
</g>
<!-- STOML2&#45;&gt;pr_8eb342e8&#45;86b6&#45;462e&#45;9db0&#45;cefdc1ce592f -->
<g id="edge6" class="edge"><title>STOML2&#45;&gt;pr_8eb342e8&#45;86b6&#45;462e&#45;9db0&#45;cefdc1ce592f</title>
<path fill="none" stroke="black" d="M510.964,-225.972C499.31,-215.848 481.65,-200.509 464.149,-185.307"/>
<polygon fill="black" stroke="black" points="465.987,-182.266 456.142,-178.351 461.396,-187.551 465.987,-182.266"/>
</g>
<!-- pr_cee3d579&#45;623c&#45;402c&#45;8533&#45;be6ded59cf74 -->
<g id="node11" class="node"><title>pr_cee3d579&#45;623c&#45;402c&#45;8533&#45;be6ded59cf74</title>
<polygon fill="none" stroke="black" points="810.5,-184.23 710.5,-184.23 710.5,-84.2297 810.5,-84.2297 810.5,-184.23"/>
<text text-anchor="middle" x="760.5" y="-133.03" font-family="Times,serif" font-size="4.00">pr_cee3d579&#45;623c&#45;402c&#45;8533&#45;be6ded59cf74</text>
</g>
<!-- STOML2&#45;&gt;pr_cee3d579&#45;623c&#45;402c&#45;8533&#45;be6ded59cf74 -->
<g id="edge7" class="edge"><title>STOML2&#45;&gt;pr_cee3d579&#45;623c&#45;402c&#45;8533&#45;be6ded59cf74</title>
<path fill="none" stroke="black" d="M542.249,-234.884C575.21,-229.078 647.431,-213.883 701.5,-184.73 701.592,-184.68 701.684,-184.63 701.776,-184.581"/>
<polygon fill="black" stroke="black" points="703.46,-187.651 710.265,-179.531 699.881,-181.635 703.46,-187.651"/>
</g>
<!-- pr_473ac1a5&#45;f088&#45;436a&#45;a7eb&#45;cc29d6c22143 -->
<g id="node17" class="node"><title>pr_473ac1a5&#45;f088&#45;436a&#45;a7eb&#45;cc29d6c22143</title>
<polygon fill="none" stroke="black" points="574.5,-184.23 474.5,-184.23 474.5,-84.2297 574.5,-84.2297 574.5,-184.23"/>
<text text-anchor="middle" x="524.5" y="-133.03" font-family="Times,serif" font-size="4.00">pr_473ac1a5&#45;f088&#45;436a&#45;a7eb&#45;cc29d6c22143</text>
</g>
<!-- STOML2&#45;&gt;pr_473ac1a5&#45;f088&#45;436a&#45;a7eb&#45;cc29d6c22143 -->
<g id="edge8" class="edge"><title>STOML2&#45;&gt;pr_473ac1a5&#45;f088&#45;436a&#45;a7eb&#45;cc29d6c22143</title>
<path fill="none" stroke="black" d="M524.5,-220.342C524.5,-213.044 524.5,-204.087 524.5,-194.754"/>
<polygon fill="black" stroke="black" points="528,-194.54 524.5,-184.54 521,-194.54 528,-194.54"/>
</g>
<!-- pr_dddfa481&#45;0b65&#45;4638&#45;91c1&#45;d71cdcad4b0a -->
<g id="node18" class="node"><title>pr_dddfa481&#45;0b65&#45;4638&#45;91c1&#45;d71cdcad4b0a</title>
<polygon fill="none" stroke="black" points="692.5,-184.23 592.5,-184.23 592.5,-84.2297 692.5,-84.2297 692.5,-184.23"/>
<text text-anchor="middle" x="642.5" y="-133.03" font-family="Times,serif" font-size="4.00">pr_dddfa481&#45;0b65&#45;4638&#45;91c1&#45;d71cdcad4b0a</text>
</g>
<!-- STOML2&#45;&gt;pr_dddfa481&#45;0b65&#45;4638&#45;91c1&#45;d71cdcad4b0a -->
<g id="edge9" class="edge"><title>STOML2&#45;&gt;pr_dddfa481&#45;0b65&#45;4638&#45;91c1&#45;d71cdcad4b0a</title>
<path fill="none" stroke="black" d="M538.036,-225.972C549.585,-215.939 567.032,-200.785 584.377,-185.717"/>
<polygon fill="black" stroke="black" points="587.064,-188.02 592.318,-178.82 582.474,-182.735 587.064,-188.02"/>
</g>
<!-- MFN2&#45;STOML2 -->
<g id="node7" class="node"><title>MFN2&#45;STOML2</title>
<ellipse fill="none" stroke="black" cx="288.5" cy="-23.8649" rx="23.7305" ry="23.7305"/>
<text text-anchor="middle" x="288.5" y="-22.6649" font-family="Times,serif" font-size="4.00">MFN2&#45;STOML2</text>
</g>
<!-- pr_166e2388&#45;d566&#45;4331&#45;b3d6&#45;57de14b5e286&#45;&gt;MFN2&#45;STOML2 -->
<g id="edge10" class="edge"><title>pr_166e2388&#45;d566&#45;4331&#45;b3d6&#45;57de14b5e286&#45;&gt;MFN2&#45;STOML2</title>
<path fill="none" stroke="black" d="M288.5,-83.4875C288.5,-74.8217 288.5,-66.0034 288.5,-57.9272"/>
<polygon fill="black" stroke="black" points="292,-57.8131 288.5,-47.8131 285,-57.8132 292,-57.8131"/>
</g>
<!-- MFN2 -->
<g id="node6" class="node"><title>MFN2</title>
<ellipse fill="none" stroke="black" cx="288.5" cy="-238.73" rx="18" ry="18"/>
<text text-anchor="middle" x="288.5" y="-237.53" font-family="Times,serif" font-size="4.00">MFN2</text>
</g>
<!-- MFN2&#45;&gt;pr_166e2388&#45;d566&#45;4331&#45;b3d6&#45;57de14b5e286 -->
<g id="edge11" class="edge"><title>MFN2&#45;&gt;pr_166e2388&#45;d566&#45;4331&#45;b3d6&#45;57de14b5e286</title>
<path fill="none" stroke="black" d="M288.5,-220.342C288.5,-213.127 288.5,-204.292 288.5,-195.076"/>
<polygon fill="black" stroke="black" points="292,-194.983 288.5,-184.983 285,-194.983 292,-194.983"/>
</g>
<!-- Orf3b -->
<g id="node8" class="node"><title>Orf3b</title>
<ellipse fill="none" stroke="black" cx="438.5" cy="-238.73" rx="18" ry="18"/>
<text text-anchor="middle" x="438.5" y="-237.53" font-family="Times,serif" font-size="4.00">Orf3b</text>
</g>
<!-- Orf3b&#45;&gt;pr_8eb342e8&#45;86b6&#45;462e&#45;9db0&#45;cefdc1ce592f -->
<g id="edge12" class="edge"><title>Orf3b&#45;&gt;pr_8eb342e8&#45;86b6&#45;462e&#45;9db0&#45;cefdc1ce592f</title>
<path fill="none" stroke="black" d="M433.359,-221.261C430.949,-213.542 427.916,-203.829 424.765,-193.734"/>
<polygon fill="black" stroke="black" points="428.044,-192.492 421.722,-183.989 421.362,-194.578 428.044,-192.492"/>
</g>
<!-- Orf3b&#45;&gt;pr_473ac1a5&#45;f088&#45;436a&#45;a7eb&#45;cc29d6c22143 -->
<g id="edge13" class="edge"><title>Orf3b&#45;&gt;pr_473ac1a5&#45;f088&#45;436a&#45;a7eb&#45;cc29d6c22143</title>
<path fill="none" stroke="black" d="M449.743,-224.33C456.839,-215.872 466.543,-204.307 476.608,-192.31"/>
<polygon fill="black" stroke="black" points="479.505,-194.303 483.251,-184.392 474.143,-189.803 479.505,-194.303"/>
</g>
<!-- Orf3b&#45;STOML2 -->
<g id="node10" class="node"><title>Orf3b&#45;STOML2</title>
<ellipse fill="none" stroke="black" cx="465.5" cy="-23.8649" rx="23.1702" ry="23.1702"/>
<text text-anchor="middle" x="465.5" y="-22.6649" font-family="Times,serif" font-size="4.00">Orf3b&#45;STOML2</text>
</g>
<!-- pr_8eb342e8&#45;86b6&#45;462e&#45;9db0&#45;cefdc1ce592f&#45;&gt;Orf3b&#45;STOML2 -->
<g id="edge14" class="edge"><title>pr_8eb342e8&#45;86b6&#45;462e&#45;9db0&#45;cefdc1ce592f&#45;&gt;Orf3b&#45;STOML2</title>
<path fill="none" stroke="black" d="M433.066,-84.4364C438.801,-73.9032 444.685,-63.0955 449.84,-53.6271"/>
<polygon fill="black" stroke="black" points="453.012,-55.1211 454.72,-44.6648 446.864,-51.7738 453.012,-55.1211"/>
</g>
<!-- STOML2&#45;PHB -->
<g id="node13" class="node"><title>STOML2&#45;PHB</title>
<ellipse fill="none" stroke="black" cx="760.5" cy="-23.8649" rx="22.05" ry="22.05"/>
<text text-anchor="middle" x="760.5" y="-22.6649" font-family="Times,serif" font-size="4.00">STOML2&#45;PHB</text>
</g>
<!-- pr_cee3d579&#45;623c&#45;402c&#45;8533&#45;be6ded59cf74&#45;&gt;STOML2&#45;PHB -->
<g id="edge15" class="edge"><title>pr_cee3d579&#45;623c&#45;402c&#45;8533&#45;be6ded59cf74&#45;&gt;STOML2&#45;PHB</title>
<path fill="none" stroke="black" d="M760.5,-84.1203C760.5,-74.6449 760.5,-64.9608 760.5,-56.2407"/>
<polygon fill="black" stroke="black" points="764,-56.1611 760.5,-46.1611 757,-56.1611 764,-56.1611"/>
</g>
<!-- PHB -->
<g id="node12" class="node"><title>PHB</title>
<ellipse fill="none" stroke="black" cx="792.5" cy="-238.73" rx="18" ry="18"/>
<text text-anchor="middle" x="792.5" y="-237.53" font-family="Times,serif" font-size="4.00">PHB</text>
</g>
<!-- PHB&#45;&gt;pr_cee3d579&#45;623c&#45;402c&#45;8533&#45;be6ded59cf74 -->
<g id="edge16" class="edge"><title>PHB&#45;&gt;pr_cee3d579&#45;623c&#45;402c&#45;8533&#45;be6ded59cf74</title>
<path fill="none" stroke="black" d="M787.359,-221.261C784.975,-213.628 781.984,-204.045 778.87,-194.07"/>
<polygon fill="black" stroke="black" points="782.183,-192.939 775.862,-184.437 775.501,-195.025 782.183,-192.939"/>
</g>
<!-- pr_9425cc04&#45;8d9c&#45;406b&#45;9588&#45;509c434aa7ba -->
<g id="node14" class="node"><title>pr_9425cc04&#45;8d9c&#45;406b&#45;9588&#45;509c434aa7ba</title>
<polygon fill="none" stroke="black" points="930,-184.73 829,-184.73 829,-83.7297 930,-83.7297 930,-184.73"/>
<text text-anchor="middle" x="879.5" y="-133.03" font-family="Times,serif" font-size="4.00">pr_9425cc04&#45;8d9c&#45;406b&#45;9588&#45;509c434aa7ba</text>
</g>
<!-- PHB&#45;&gt;pr_9425cc04&#45;8d9c&#45;406b&#45;9588&#45;509c434aa7ba -->
<g id="edge17" class="edge"><title>PHB&#45;&gt;pr_9425cc04&#45;8d9c&#45;406b&#45;9588&#45;509c434aa7ba</title>
<path fill="none" stroke="black" d="M803.874,-224.33C810.977,-215.961 820.662,-204.55 830.73,-192.689"/>
<polygon fill="black" stroke="black" points="833.575,-194.745 837.378,-184.856 828.238,-190.216 833.575,-194.745"/>
</g>
<!-- PHB&#45;RAF1 -->
<g id="node16" class="node"><title>PHB&#45;RAF1</title>
<ellipse fill="none" stroke="black" cx="879.5" cy="-23.8649" rx="19.7452" ry="19.7452"/>
<text text-anchor="middle" x="879.5" y="-22.6649" font-family="Times,serif" font-size="4.00">PHB&#45;RAF1</text>
</g>
<!-- pr_9425cc04&#45;8d9c&#45;406b&#45;9588&#45;509c434aa7ba&#45;&gt;PHB&#45;RAF1 -->
<g id="edge18" class="edge"><title>pr_9425cc04&#45;8d9c&#45;406b&#45;9588&#45;509c434aa7ba&#45;&gt;PHB&#45;RAF1</title>
<path fill="none" stroke="black" d="M879.5,-83.4875C879.5,-73.2499 879.5,-62.7994 879.5,-53.6113"/>
<polygon fill="black" stroke="black" points="883,-53.4934 879.5,-43.4934 876,-53.4935 883,-53.4934"/>
</g>
<!-- RAF1 -->
<g id="node15" class="node"><title>RAF1</title>
<ellipse fill="none" stroke="black" cx="879.5" cy="-238.73" rx="18" ry="18"/>
<text text-anchor="middle" x="879.5" y="-237.53" font-family="Times,serif" font-size="4.00">RAF1</text>
</g>
<!-- RAF1&#45;&gt;pr_9425cc04&#45;8d9c&#45;406b&#45;9588&#45;509c434aa7ba -->
<g id="edge19" class="edge"><title>RAF1&#45;&gt;pr_9425cc04&#45;8d9c&#45;406b&#45;9588&#45;509c434aa7ba</title>
<path fill="none" stroke="black" d="M879.5,-220.342C879.5,-213.127 879.5,-204.292 879.5,-195.076"/>
<polygon fill="black" stroke="black" points="883,-194.983 879.5,-184.983 876,-194.983 883,-194.983"/>
</g>
<!-- pr_473ac1a5&#45;f088&#45;436a&#45;a7eb&#45;cc29d6c22143&#45;&gt;Orf3b&#45;STOML2 -->
<g id="edge20" class="edge"><title>pr_473ac1a5&#45;f088&#45;436a&#45;a7eb&#45;cc29d6c22143&#45;&gt;Orf3b&#45;STOML2</title>
<path fill="none" stroke="black" d="M497.762,-84.1203C492.091,-73.7043 486.283,-63.036 481.185,-53.6734"/>
<polygon fill="black" stroke="black" points="484.212,-51.9128 476.356,-44.8037 478.064,-55.26 484.212,-51.9128"/>
</g>
<!-- TCR complex -->
<g id="node19" class="node"><title>TCR complex</title>
<ellipse fill="none" stroke="black" cx="642.5" cy="-23.8649" rx="22.6101" ry="22.6101"/>
<text text-anchor="middle" x="642.5" y="-22.6649" font-family="Times,serif" font-size="4.00">TCR complex</text>
</g>
<!-- pr_dddfa481&#45;0b65&#45;4638&#45;91c1&#45;d71cdcad4b0a&#45;&gt;TCR complex -->
<g id="edge21" class="edge"><title>pr_dddfa481&#45;0b65&#45;4638&#45;91c1&#45;d71cdcad4b0a&#45;&gt;TCR complex</title>
<path fill="none" stroke="black" d="M635.776,-84.1203C635.678,-74.6449 635.856,-64.9608 636.312,-56.2407"/>
<polygon fill="black" stroke="black" points="639.811,-56.3779 637.006,-46.1611 632.828,-55.8971 639.811,-56.3779"/>
</g>
<!-- TCR complex&#45;&gt;pr_dddfa481&#45;0b65&#45;4638&#45;91c1&#45;d71cdcad4b0a -->
<g id="edge22" class="edge"><title>TCR complex&#45;&gt;pr_dddfa481&#45;0b65&#45;4638&#45;91c1&#45;d71cdcad4b0a</title>
<path fill="none" stroke="black" d="M647.994,-46.1611C648.713,-54.3287 649.123,-64.1 649.225,-74.0978"/>
<polygon fill="black" stroke="black" points="645.725,-74.1198 649.224,-84.1203 652.725,-74.1207 645.725,-74.1198"/>
</g>
</g>
</svg>
