<?xml version="1.0" encoding="UTF-8" standalone="no"?>
<!DOCTYPE svg PUBLIC "-//W3C//DTD SVG 1.1//EN"
 "http://www.w3.org/Graphics/SVG/1.1/DTD/svg11.dtd">
<!-- Generated by graphviz version 2.38.0 (20140413.2041)
 -->
<!-- Title: G Pages: 1 -->
<svg width="485pt" height="927pt"
 viewBox="0.00 0.00 484.92 926.84" xmlns="http://www.w3.org/2000/svg" xmlns:xlink="http://www.w3.org/1999/xlink">
<g id="graph0" class="graph" transform="scale(1 1) rotate(0) translate(4 922.843)">
<title>G</title>
<polygon fill="white" stroke="none" points="-4,4 -4,-922.843 480.92,-922.843 480.92,4 -4,4"/>
<!-- P65/P015 -->
<g id="node1" class="node"><title>P65/P015</title>
<ellipse fill="none" stroke="black" cx="88" cy="-543.151" rx="18.0625" ry="18.0625"/>
<text text-anchor="middle" x="88" y="-541.951" font-family="Times,serif" font-size="4.00">P65/P015</text>
</g>
<!-- IL1b -->
<g id="node2" class="node"><title>IL1b</title>
<ellipse fill="none" stroke="black" cx="88" cy="-367.737" rx="18" ry="18"/>
<text text-anchor="middle" x="88" y="-366.537" font-family="Times,serif" font-size="4.00">IL1b</text>
</g>
<!-- P65/P015&#45;&gt;IL1b -->
<g id="edge1" class="edge"><title>P65/P015&#45;&gt;IL1b</title>
<path fill="none" stroke="black" d="M88,-524.89C88,-494.766 88,-432.369 88,-396.235"/>
<polygon fill="black" stroke="black" points="91.5001,-395.929 88,-385.929 84.5001,-395.929 91.5001,-395.929"/>
</g>
<!-- TRIM59 -->
<g id="node3" class="node"><title>TRIM59</title>
<ellipse fill="none" stroke="black" cx="256" cy="-543.151" rx="18" ry="18"/>
<text text-anchor="middle" x="256" y="-541.951" font-family="Times,serif" font-size="4.00">TRIM59</text>
</g>
<!-- LPS/TLR4/MYD88 -->
<g id="node4" class="node"><title>LPS/TLR4/MYD88</title>
<ellipse fill="none" stroke="black" cx="367" cy="-456.77" rx="26.533" ry="26.533"/>
<text text-anchor="middle" x="367" y="-455.57" font-family="Times,serif" font-size="4.00">LPS/TLR4/MYD88</text>
</g>
<!-- TRIM59&#45;&gt;LPS/TLR4/MYD88 -->
<g id="edge2" class="edge"><title>TRIM59&#45;&gt;LPS/TLR4/MYD88</title>
<path fill="none" stroke="black" d="M269.304,-530.564C273.62,-526.892 278.465,-522.86 283,-519.286 300.609,-505.41 320.873,-490.54 337.086,-478.896"/>
<polygon fill="black" stroke="black" points="339.534,-481.448 345.634,-472.785 335.463,-475.754 339.534,-481.448"/>
</g>
<!-- TRAF6 -->
<g id="node7" class="node"><title>TRAF6</title>
<ellipse fill="none" stroke="black" cx="398" cy="-367.737" rx="18" ry="18"/>
<text text-anchor="middle" x="398" y="-366.537" font-family="Times,serif" font-size="4.00">TRAF6</text>
</g>
<!-- LPS/TLR4/MYD88&#45;&gt;TRAF6 -->
<g id="edge3" class="edge"><title>LPS/TLR4/MYD88&#45;&gt;TRAF6</title>
<path fill="none" stroke="black" d="M375.635,-431.526C379.737,-420.011 384.642,-406.24 388.812,-394.533"/>
<polygon fill="black" stroke="black" points="392.19,-395.479 392.249,-384.884 385.596,-393.13 392.19,-395.479"/>
</g>
<!-- IKBKG/IKBKB/CHUK -->
<g id="node5" class="node"><title>IKBKG/IKBKB/CHUK</title>
<ellipse fill="none" stroke="black" cx="85" cy="-634.306" rx="31.0804" ry="31.0804"/>
<text text-anchor="middle" x="85" y="-633.106" font-family="Times,serif" font-size="4.00">IKBKG/IKBKB/CHUK</text>
</g>
<!-- IKBKG/IKBKB/CHUK&#45;&gt;P65/P015 -->
<g id="edge4" class="edge"><title>IKBKG/IKBKB/CHUK&#45;&gt;P65/P015</title>
<path fill="none" stroke="black" d="M86.0324,-602.624C86.3735,-592.488 86.7504,-581.288 87.0822,-571.426"/>
<polygon fill="black" stroke="black" points="90.5825,-571.475 87.4208,-561.363 83.5864,-571.239 90.5825,-571.475"/>
</g>
<!-- MYD88 -->
<g id="node6" class="node"><title>MYD88</title>
<ellipse fill="none" stroke="black" cx="430" cy="-456.77" rx="18" ry="18"/>
<text text-anchor="middle" x="430" y="-455.57" font-family="Times,serif" font-size="4.00">MYD88</text>
</g>
<!-- MYD88&#45;&gt;TRAF6 -->
<g id="edge5" class="edge"><title>MYD88&#45;&gt;TRAF6</title>
<path fill="none" stroke="black" d="M423.981,-439.4C419.333,-426.757 412.813,-409.025 407.468,-394.486"/>
<polygon fill="black" stroke="black" points="410.728,-393.212 403.992,-385.034 404.158,-395.627 410.728,-393.212"/>
</g>
<!-- TAB2/TAB3/TAK1 -->
<g id="node35" class="node"><title>TAB2/TAB3/TAK1</title>
<ellipse fill="none" stroke="black" cx="367" cy="-278.174" rx="27.0938" ry="27.0938"/>
<text text-anchor="middle" x="367" y="-276.974" font-family="Times,serif" font-size="4.00">TAB2/TAB3/TAK1</text>
</g>
<!-- TRAF6&#45;&gt;TAB2/TAB3/TAK1 -->
<g id="edge6" class="edge"><title>TRAF6&#45;&gt;TAB2/TAB3/TAK1</title>
<path fill="none" stroke="black" d="M392.169,-350.267C388.516,-339.947 383.669,-326.256 379.204,-313.646"/>
<polygon fill="black" stroke="black" points="382.373,-312.107 375.736,-303.849 375.774,-314.444 382.373,-312.107"/>
</g>
<!-- NFKB1 -->
<g id="node8" class="node"><title>NFKB1</title>
<ellipse fill="none" stroke="black" cx="150" cy="-104.912" rx="18" ry="18"/>
<text text-anchor="middle" x="150" y="-103.712" font-family="Times,serif" font-size="4.00">NFKB1</text>
</g>
<!-- NFKB1_NFKNIA -->
<g id="node40" class="node"><title>NFKB1_NFKNIA</title>
<ellipse fill="none" stroke="black" cx="96" cy="-25.4558" rx="25.4118" ry="25.4118"/>
<text text-anchor="middle" x="96" y="-24.2558" font-family="Times,serif" font-size="4.00">NFKB1_NFKNIA</text>
</g>
<!-- NFKB1&#45;&gt;NFKB1_NFKNIA -->
<g id="edge7" class="edge"><title>NFKB1&#45;&gt;NFKB1_NFKNIA</title>
<path fill="none" stroke="black" d="M140.096,-89.7051C133.333,-80.0055 124.141,-66.8197 115.898,-54.9972"/>
<polygon fill="black" stroke="black" points="118.703,-52.9005 110.113,-46.699 112.961,-56.9039 118.703,-52.9005"/>
</g>
<!-- TRIM27/TRIM21 -->
<g id="node9" class="node"><title>TRIM27/TRIM21</title>
<ellipse fill="none" stroke="black" cx="227" cy="-278.174" rx="25.4118" ry="25.4118"/>
<text text-anchor="middle" x="227" y="-276.974" font-family="Times,serif" font-size="4.00">TRIM27/TRIM21</text>
</g>
<!-- NEMO/IKKA/IKKB -->
<g id="node19" class="node"><title>NEMO/IKKA/IKKB</title>
<ellipse fill="none" stroke="black" cx="197" cy="-187.019" rx="28.2154" ry="28.2154"/>
<text text-anchor="middle" x="197" y="-185.819" font-family="Times,serif" font-size="4.00">NEMO/IKKA/IKKB</text>
</g>
<!-- TRIM27/TRIM21&#45;&gt;NEMO/IKKA/IKKB -->
<g id="edge8" class="edge"><title>TRIM27/TRIM21&#45;&gt;NEMO/IKKA/IKKB</title>
<path fill="none" stroke="black" d="M219.118,-253.749C215.987,-244.444 212.317,-233.538 208.877,-223.314"/>
<polygon fill="black" stroke="black" points="212.18,-222.157 205.673,-213.795 205.546,-224.389 212.18,-222.157"/>
</g>
<!-- CACTIN -->
<g id="node10" class="node"><title>CACTIN</title>
<ellipse fill="none" stroke="black" cx="42" cy="-104.912" rx="18" ry="18"/>
<text text-anchor="middle" x="42" y="-103.712" font-family="Times,serif" font-size="4.00">CACTIN</text>
</g>
<!-- CACTIN&#45;&gt;NFKB1_NFKNIA -->
<g id="edge9" class="edge"><title>CACTIN&#45;&gt;NFKB1_NFKNIA</title>
<path fill="none" stroke="black" d="M51.9044,-89.7051C58.6667,-80.0055 67.8595,-66.8197 76.1018,-54.9972"/>
<polygon fill="black" stroke="black" points="79.0391,-56.9039 81.8871,-46.699 73.2969,-52.9005 79.0391,-56.9039"/>
</g>
<!-- E -->
<g id="node11" class="node"><title>E</title>
<ellipse fill="none" stroke="black" cx="18" cy="-634.306" rx="18" ry="18"/>
<text text-anchor="middle" x="18" y="-633.106" font-family="Times,serif" font-size="4.00">E</text>
</g>
<!-- E&#45;&gt;P65/P015 -->
<g id="edge10" class="edge"><title>E&#45;&gt;P65/P015</title>
<path fill="none" stroke="black" d="M28.6315,-619.765C39.8354,-605.495 57.653,-582.802 70.8487,-565.996"/>
<polygon fill="black" stroke="black" points="73.8458,-567.846 77.2685,-557.819 68.3401,-563.523 73.8458,-567.846"/>
</g>
<!-- E&#45;&gt;IL1b -->
<g id="edge11" class="edge"><title>E&#45;&gt;IL1b</title>
<path fill="none" stroke="black" d="M22.3788,-616.756C34.1642,-572.212 66.6328,-449.495 81.0018,-395.187"/>
<polygon fill="black" stroke="black" points="84.4485,-395.843 83.6228,-385.281 77.6814,-394.053 84.4485,-395.843"/>
</g>
<!-- ssRNA -->
<g id="node12" class="node"><title>ssRNA</title>
<ellipse fill="none" stroke="black" cx="430" cy="-634.306" rx="18" ry="18"/>
<text text-anchor="middle" x="430" y="-633.106" font-family="Times,serif" font-size="4.00">ssRNA</text>
</g>
<!-- TLR7/8/9 -->
<g id="node25" class="node"><title>TLR7/8/9</title>
<ellipse fill="none" stroke="black" cx="430" cy="-543.151" rx="18.0625" ry="18.0625"/>
<text text-anchor="middle" x="430" y="-541.951" font-family="Times,serif" font-size="4.00">TLR7/8/9</text>
</g>
<!-- ssRNA&#45;&gt;TLR7/8/9 -->
<g id="edge12" class="edge"><title>ssRNA&#45;&gt;TLR7/8/9</title>
<path fill="none" stroke="black" d="M430,-616.116C430,-603.535 430,-586.203 430,-571.701"/>
<polygon fill="black" stroke="black" points="433.5,-571.288 430,-561.288 426.5,-571.288 433.5,-571.288"/>
</g>
<!-- double&#45;stranded RNA -->
<g id="node13" class="node"><title>double&#45;stranded RNA</title>
<ellipse fill="none" stroke="black" cx="282" cy="-888.084" rx="30.5202" ry="30.5202"/>
<text text-anchor="middle" x="282" y="-886.884" font-family="Times,serif" font-size="4.00">double&#45;stranded RNA</text>
</g>
<!-- TLR3 -->
<g id="node38" class="node"><title>TLR3</title>
<ellipse fill="none" stroke="black" cx="282" cy="-803.325" rx="18" ry="18"/>
<text text-anchor="middle" x="282" y="-802.125" font-family="Times,serif" font-size="4.00">TLR3</text>
</g>
<!-- double&#45;stranded RNA&#45;&gt;TLR3 -->
<g id="edge13" class="edge"><title>double&#45;stranded RNA&#45;&gt;TLR3</title>
<path fill="none" stroke="black" d="M282,-857.206C282,-848.836 282,-839.784 282,-831.575"/>
<polygon fill="black" stroke="black" points="285.5,-831.397 282,-821.397 278.5,-831.397 285.5,-831.397"/>
</g>
<!-- NFKBIA -->
<g id="node14" class="node"><title>NFKBIA</title>
<ellipse fill="none" stroke="black" cx="96" cy="-104.912" rx="18" ry="18"/>
<text text-anchor="middle" x="96" y="-103.712" font-family="Times,serif" font-size="4.00">NFKBIA</text>
</g>
<!-- NFKBIA&#45;&gt;NFKB1_NFKNIA -->
<g id="edge14" class="edge"><title>NFKBIA&#45;&gt;NFKB1_NFKNIA</title>
<path fill="none" stroke="black" d="M96,-86.7217C96,-79.1618 96,-69.9963 96,-61.1189"/>
<polygon fill="black" stroke="black" points="99.5001,-60.9434 96,-50.9434 92.5001,-60.9434 99.5001,-60.9434"/>
</g>
<!-- LPS/TNF α/IL&#45;1 -->
<g id="node15" class="node"><title>LPS/TNF α/IL&#45;1</title>
<ellipse fill="none" stroke="black" cx="85" cy="-725.46" rx="23.7305" ry="23.7305"/>
<text text-anchor="middle" x="85" y="-724.26" font-family="Times,serif" font-size="4.00">LPS/TNF α/IL&#45;1</text>
</g>
<!-- LPS/TNF α/IL&#45;1&#45;&gt;IKBKG/IKBKB/CHUK -->
<g id="edge15" class="edge"><title>LPS/TNF α/IL&#45;1&#45;&gt;IKBKG/IKBKB/CHUK</title>
<path fill="none" stroke="black" d="M85,-701.5C85,-693.713 85,-684.764 85,-676.016"/>
<polygon fill="black" stroke="black" points="88.5001,-675.919 85,-665.919 81.5001,-675.919 88.5001,-675.919"/>
</g>
<!-- TRIM39 -->
<g id="node16" class="node"><title>TRIM39</title>
<ellipse fill="none" stroke="black" cx="42" cy="-187.019" rx="18" ry="18"/>
<text text-anchor="middle" x="42" y="-185.819" font-family="Times,serif" font-size="4.00">TRIM39</text>
</g>
<!-- TRIM39&#45;&gt;CACTIN -->
<g id="edge16" class="edge"><title>TRIM39&#45;&gt;CACTIN</title>
<path fill="none" stroke="black" d="M42,-168.637C42,-158.279 42,-144.905 42,-133.169"/>
<polygon fill="black" stroke="black" points="45.5001,-132.985 42,-122.985 38.5001,-132.985 45.5001,-132.985"/>
</g>
<!-- TRIM14/TRIM23 -->
<g id="node17" class="node"><title>TRIM14/TRIM23</title>
<ellipse fill="none" stroke="black" cx="296" cy="-278.174" rx="25.4118" ry="25.4118"/>
<text text-anchor="middle" x="296" y="-276.974" font-family="Times,serif" font-size="4.00">TRIM14/TRIM23</text>
</g>
<!-- TRIM14/TRIM23&#45;&gt;NEMO/IKKA/IKKB -->
<g id="edge17" class="edge"><title>TRIM14/TRIM23&#45;&gt;NEMO/IKKA/IKKB</title>
<path fill="none" stroke="black" d="M277.379,-260.404C262.746,-247.227 242.119,-228.651 225.424,-213.616"/>
<polygon fill="black" stroke="black" points="227.361,-210.651 217.588,-206.56 222.677,-215.852 227.361,-210.651"/>
</g>
<!-- CASP1 -->
<g id="node18" class="node"><title>CASP1</title>
<ellipse fill="none" stroke="black" cx="148" cy="-456.77" rx="18" ry="18"/>
<text text-anchor="middle" x="148" y="-455.57" font-family="Times,serif" font-size="4.00">CASP1</text>
</g>
<!-- CASP1&#45;&gt;IL1b -->
<g id="edge18" class="edge"><title>CASP1&#45;&gt;IL1b</title>
<path fill="none" stroke="black" d="M138.092,-441.398C128.799,-427.918 114.745,-407.532 103.887,-391.781"/>
<polygon fill="black" stroke="black" points="106.48,-389.377 97.9225,-383.13 100.717,-393.35 106.48,-389.377"/>
</g>
<!-- NEMO/IKKA/IKKB&#45;&gt;NFKBIA -->
<g id="edge19" class="edge"><title>NEMO/IKKA/IKKB&#45;&gt;NFKBIA</title>
<path fill="none" stroke="black" d="M175.085,-168.637C158.188,-155.236 134.925,-136.785 118.006,-123.366"/>
<polygon fill="black" stroke="black" points="119.814,-120.332 109.804,-116.86 115.464,-125.816 119.814,-120.332"/>
</g>
<!-- ORF8b -->
<g id="node20" class="node"><title>ORF8b</title>
<ellipse fill="none" stroke="black" cx="206" cy="-634.306" rx="18" ry="18"/>
<text text-anchor="middle" x="206" y="-633.106" font-family="Times,serif" font-size="4.00">ORF8b</text>
</g>
<!-- NLRP3 -->
<g id="node32" class="node"><title>NLRP3</title>
<ellipse fill="none" stroke="black" cx="202" cy="-543.151" rx="18" ry="18"/>
<text text-anchor="middle" x="202" y="-541.951" font-family="Times,serif" font-size="4.00">NLRP3</text>
</g>
<!-- ORF8b&#45;&gt;NLRP3 -->
<g id="edge20" class="edge"><title>ORF8b&#45;&gt;NLRP3</title>
<path fill="none" stroke="black" d="M205.229,-616.116C204.664,-603.535 203.887,-586.203 203.236,-571.701"/>
<polygon fill="black" stroke="black" points="206.714,-571.121 202.769,-561.288 199.721,-571.435 206.714,-571.121"/>
</g>
<!-- TRIM9 -->
<g id="node21" class="node"><title>TRIM9</title>
<ellipse fill="none" stroke="black" cx="58" cy="-278.174" rx="18" ry="18"/>
<text text-anchor="middle" x="58" y="-276.974" font-family="Times,serif" font-size="4.00">TRIM9</text>
</g>
<!-- BTRC -->
<g id="node39" class="node"><title>BTRC</title>
<ellipse fill="none" stroke="black" cx="96" cy="-187.019" rx="18" ry="18"/>
<text text-anchor="middle" x="96" y="-185.819" font-family="Times,serif" font-size="4.00">BTRC</text>
</g>
<!-- TRIM9&#45;&gt;BTRC -->
<g id="edge21" class="edge"><title>TRIM9&#45;&gt;BTRC</title>
<path fill="none" stroke="black" d="M64.7936,-261.235C70.4675,-247.923 78.6599,-228.702 85.2271,-213.294"/>
<polygon fill="black" stroke="black" points="88.5639,-214.392 89.2652,-203.82 82.1244,-211.647 88.5639,-214.392"/>
</g>
<!-- TRIM22 -->
<g id="node22" class="node"><title>TRIM22</title>
<ellipse fill="none" stroke="black" cx="112" cy="-278.174" rx="18" ry="18"/>
<text text-anchor="middle" x="112" y="-276.974" font-family="Times,serif" font-size="4.00">TRIM22</text>
</g>
<!-- TRIM22&#45;&gt;NEMO/IKKA/IKKB -->
<g id="edge22" class="edge"><title>TRIM22&#45;&gt;NEMO/IKKA/IKKB</title>
<path fill="none" stroke="black" d="M124.178,-264.4C136.25,-251.738 155.131,-231.934 170.643,-215.664"/>
<polygon fill="black" stroke="black" points="173.575,-217.661 177.943,-208.008 168.509,-212.831 173.575,-217.661"/>
</g>
<!-- TRIM29 -->
<g id="node23" class="node"><title>TRIM29</title>
<ellipse fill="none" stroke="black" cx="166" cy="-278.174" rx="18" ry="18"/>
<text text-anchor="middle" x="166" y="-276.974" font-family="Times,serif" font-size="4.00">TRIM29</text>
</g>
<!-- TRIM29&#45;&gt;NEMO/IKKA/IKKB -->
<g id="edge23" class="edge"><title>TRIM29&#45;&gt;NEMO/IKKA/IKKB</title>
<path fill="none" stroke="black" d="M171.686,-260.821C175.335,-250.326 180.218,-236.284 184.721,-223.334"/>
<polygon fill="black" stroke="black" points="188.085,-224.315 188.063,-213.72 181.473,-222.016 188.085,-224.315"/>
</g>
<!-- PYCARD -->
<g id="node24" class="node"><title>PYCARD</title>
<ellipse fill="none" stroke="black" cx="148" cy="-543.151" rx="18" ry="18"/>
<text text-anchor="middle" x="148" y="-541.951" font-family="Times,serif" font-size="4.00">PYCARD</text>
</g>
<!-- PYCARD&#45;&gt;CASP1 -->
<g id="edge24" class="edge"><title>PYCARD&#45;&gt;CASP1</title>
<path fill="none" stroke="black" d="M148,-525.075C148,-513.638 148,-498.329 148,-485.202"/>
<polygon fill="black" stroke="black" points="151.5,-484.82 148,-474.82 144.5,-484.82 151.5,-484.82"/>
</g>
<!-- TLR7/8/9&#45;&gt;MYD88 -->
<g id="edge25" class="edge"><title>TLR7/8/9&#45;&gt;MYD88</title>
<path fill="none" stroke="black" d="M430,-525.075C430,-513.638 430,-498.329 430,-485.202"/>
<polygon fill="black" stroke="black" points="433.5,-484.82 430,-474.82 426.5,-484.82 433.5,-484.82"/>
</g>
<!-- Hops Complex -->
<g id="node26" class="node"><title>Hops Complex</title>
<ellipse fill="none" stroke="black" cx="316" cy="-543.151" rx="23.7305" ry="23.7305"/>
<text text-anchor="middle" x="316" y="-541.951" font-family="Times,serif" font-size="4.00">Hops Complex</text>
</g>
<!-- TICAM1 -->
<g id="node27" class="node"><title>TICAM1</title>
<ellipse fill="none" stroke="black" cx="282" cy="-725.46" rx="18" ry="18"/>
<text text-anchor="middle" x="282" y="-724.26" font-family="Times,serif" font-size="4.00">TICAM1</text>
</g>
<!-- TRAF3 -->
<g id="node34" class="node"><title>TRAF3</title>
<ellipse fill="none" stroke="black" cx="152" cy="-634.306" rx="18" ry="18"/>
<text text-anchor="middle" x="152" y="-633.106" font-family="Times,serif" font-size="4.00">TRAF3</text>
</g>
<!-- TICAM1&#45;&gt;TRAF3 -->
<g id="edge26" class="edge"><title>TICAM1&#45;&gt;TRAF3</title>
<path fill="none" stroke="black" d="M265.637,-717.155C244.421,-707.243 206.844,-688.157 179,-665.595 175.767,-662.976 172.589,-659.953 169.612,-656.852"/>
<polygon fill="black" stroke="black" points="171.997,-654.269 162.711,-649.168 166.79,-658.947 171.997,-654.269"/>
</g>
<!-- S -->
<g id="node28" class="node"><title>S</title>
<ellipse fill="none" stroke="black" cx="376" cy="-543.151" rx="18" ry="18"/>
<text text-anchor="middle" x="376" y="-541.951" font-family="Times,serif" font-size="4.00">S</text>
</g>
<!-- IFNB1 -->
<g id="node29" class="node"><title>IFNB1</title>
<ellipse fill="none" stroke="black" cx="367" cy="-104.912" rx="18" ry="18"/>
<text text-anchor="middle" x="367" y="-103.712" font-family="Times,serif" font-size="4.00">IFNB1</text>
</g>
<!-- TRIM38 -->
<g id="node30" class="node"><title>TRIM38</title>
<ellipse fill="none" stroke="black" cx="401" cy="-803.325" rx="18" ry="18"/>
<text text-anchor="middle" x="401" y="-802.125" font-family="Times,serif" font-size="4.00">TRIM38</text>
</g>
<!-- TRIM38&#45;&gt;TRAF6 -->
<g id="edge28" class="edge"><title>TRIM38&#45;&gt;TRAF6</title>
<path fill="none" stroke="black" d="M412.067,-788.531C432.929,-761.09 476,-696.97 476,-635.306 476,-635.306 476,-635.306 476,-542.151 476,-491.707 479.681,-475.311 457,-430.253 448.267,-412.905 432.98,-397.175 420.155,-385.965"/>
<polygon fill="black" stroke="black" points="422.089,-383.019 412.177,-379.279 417.593,-388.385 422.089,-383.019"/>
</g>
<!-- TRIM38&#45;&gt;TICAM1 -->
<g id="edge27" class="edge"><title>TRIM38&#45;&gt;TICAM1</title>
<path fill="none" stroke="black" d="M385.929,-792.716C365.631,-779.777 329.309,-756.62 305.431,-741.398"/>
<polygon fill="black" stroke="black" points="307.263,-738.415 296.949,-735.99 303.5,-744.317 307.263,-738.415"/>
</g>
<!-- TRIM30a/TRIM38 -->
<g id="node31" class="node"><title>TRIM30a/TRIM38</title>
<ellipse fill="none" stroke="black" cx="335" cy="-367.737" rx="26.533" ry="26.533"/>
<text text-anchor="middle" x="335" y="-366.537" font-family="Times,serif" font-size="4.00">TRIM30a/TRIM38</text>
</g>
<!-- TRIM30a/TRIM38&#45;&gt;TAB2/TAB3/TAK1 -->
<g id="edge29" class="edge"><title>TRIM30a/TRIM38&#45;&gt;TAB2/TAB3/TAK1</title>
<path fill="none" stroke="black" d="M343.914,-342.346C347.215,-333.313 351.02,-322.9 354.577,-313.167"/>
<polygon fill="black" stroke="black" points="357.878,-314.332 358.023,-303.738 351.303,-311.929 357.878,-314.332"/>
</g>
<!-- NLRP3&#45;&gt;CASP1 -->
<g id="edge30" class="edge"><title>NLRP3&#45;&gt;CASP1</title>
<path fill="none" stroke="black" d="M192.594,-527.453C184.386,-514.627 172.336,-495.798 162.831,-480.945"/>
<polygon fill="black" stroke="black" points="165.637,-478.836 157.298,-472.3 159.741,-482.609 165.637,-478.836"/>
</g>
<!-- Orf3a -->
<g id="node33" class="node"><title>Orf3a</title>
<ellipse fill="none" stroke="black" cx="260" cy="-634.306" rx="18" ry="18"/>
<text text-anchor="middle" x="260" y="-633.106" font-family="Times,serif" font-size="4.00">Orf3a</text>
</g>
<!-- Orf3a&#45;&gt;P65/P015 -->
<g id="edge34" class="edge"><title>Orf3a&#45;&gt;P65/P015</title>
<path fill="none" stroke="black" d="M250.009,-619.111C245.393,-613.429 239.495,-607.242 233,-603.016 189.175,-574.499 167.887,-590.156 121,-567.016 117.377,-565.228 113.702,-563.077 110.186,-560.82"/>
<polygon fill="black" stroke="black" points="112.116,-557.899 101.888,-555.134 108.159,-563.674 112.116,-557.899"/>
</g>
<!-- Orf3a&#45;&gt;TRIM59 -->
<g id="edge33" class="edge"><title>Orf3a&#45;&gt;TRIM59</title>
<path fill="none" stroke="black" d="M259.229,-616.116C258.664,-603.535 257.887,-586.203 257.236,-571.701"/>
<polygon fill="black" stroke="black" points="260.714,-571.121 256.769,-561.288 253.721,-571.435 260.714,-571.121"/>
</g>
<!-- Orf3a&#45;&gt;PYCARD -->
<g id="edge32" class="edge"><title>Orf3a&#45;&gt;PYCARD</title>
<path fill="none" stroke="black" d="M249.201,-619.549C244.539,-614.068 238.823,-607.912 233,-603.016 209.778,-583.491 199.532,-584.868 175,-567.016 173.103,-565.636 171.172,-564.159 169.258,-562.644"/>
<polygon fill="black" stroke="black" points="171.085,-559.614 161.144,-555.95 166.63,-565.014 171.085,-559.614"/>
</g>
<!-- Orf3a&#45;&gt;Hops Complex -->
<g id="edge35" class="edge"><title>Orf3a&#45;&gt;Hops Complex</title>
<path fill="none" stroke="black" d="M269.247,-618.584C277.09,-606.098 288.565,-587.829 298.184,-572.515"/>
<polygon fill="black" stroke="black" points="301.236,-574.236 303.591,-563.906 295.308,-570.513 301.236,-574.236"/>
</g>
<!-- Orf3a&#45;&gt;S -->
<g id="edge31" class="edge"><title>Orf3a&#45;&gt;S</title>
<path fill="none" stroke="black" d="M274.389,-623.013C292.161,-610.203 323.206,-587.511 349,-567.016 350.837,-565.557 352.726,-564.024 354.612,-562.472"/>
<polygon fill="black" stroke="black" points="357.259,-564.82 362.679,-555.716 352.765,-559.454 357.259,-564.82"/>
</g>
<!-- TRAF3&#45;&gt;P65/P015 -->
<g id="edge37" class="edge"><title>TRAF3&#45;&gt;P65/P015</title>
<path fill="none" stroke="black" d="M141.717,-618.981C131.581,-604.861 115.939,-583.072 104.144,-566.64"/>
<polygon fill="black" stroke="black" points="106.721,-564.228 98.0462,-558.146 101.035,-568.311 106.721,-564.228"/>
</g>
<!-- TRAF3&#45;&gt;PYCARD -->
<g id="edge36" class="edge"><title>TRAF3&#45;&gt;PYCARD</title>
<path fill="none" stroke="black" d="M151.229,-616.116C150.664,-603.535 149.887,-586.203 149.236,-571.701"/>
<polygon fill="black" stroke="black" points="152.714,-571.121 148.769,-561.288 145.721,-571.435 152.714,-571.121"/>
</g>
<!-- TAB2/TAB3/TAK1&#45;&gt;NEMO/IKKA/IKKB -->
<g id="edge38" class="edge"><title>TAB2/TAB3/TAK1&#45;&gt;NEMO/IKKA/IKKB</title>
<path fill="none" stroke="black" d="M345.495,-261.113C340.512,-257.654 335.157,-254.136 330,-251.127 297.954,-232.427 259.483,-214.642 232.18,-202.747"/>
<polygon fill="black" stroke="black" points="233.227,-199.387 222.659,-198.641 230.455,-205.815 233.227,-199.387"/>
</g>
<!-- SERPINF2 -->
<g id="node36" class="node"><title>SERPINF2</title>
<ellipse fill="none" stroke="black" cx="367" cy="-187.019" rx="19.1842" ry="19.1842"/>
<text text-anchor="middle" x="367" y="-185.819" font-family="Times,serif" font-size="4.00">SERPINF2</text>
</g>
<!-- TAB2/TAB3/TAK1&#45;&gt;SERPINF2 -->
<g id="edge39" class="edge"><title>TAB2/TAB3/TAK1&#45;&gt;SERPINF2</title>
<path fill="none" stroke="black" d="M367,-250.906C367,-240.008 367,-227.341 367,-216.245"/>
<polygon fill="black" stroke="black" points="370.5,-216.195 367,-206.195 363.5,-216.195 370.5,-216.195"/>
</g>
<!-- SERPINF2&#45;&gt;IFNB1 -->
<g id="edge40" class="edge"><title>SERPINF2&#45;&gt;IFNB1</title>
<path fill="none" stroke="black" d="M367,-167.842C367,-157.627 367,-144.674 367,-133.257"/>
<polygon fill="black" stroke="black" points="370.5,-132.922 367,-122.922 363.5,-132.922 370.5,-132.922"/>
</g>
<!-- TRIM23 -->
<g id="node37" class="node"><title>TRIM23</title>
<ellipse fill="none" stroke="black" cx="304" cy="-456.77" rx="18" ry="18"/>
<text text-anchor="middle" x="304" y="-455.57" font-family="Times,serif" font-size="4.00">TRIM23</text>
</g>
<!-- TRIM23&#45;&gt;TRAF6 -->
<g id="edge41" class="edge"><title>TRIM23&#45;&gt;TRAF6</title>
<path fill="none" stroke="black" d="M316.577,-443.763C321.102,-439.476 326.259,-434.626 331,-430.253 348.582,-414.038 353.418,-410.469 371,-394.253 373.222,-392.204 375.536,-390.049 377.833,-387.897"/>
<polygon fill="black" stroke="black" points="380.546,-390.149 385.423,-380.744 375.745,-385.056 380.546,-390.149"/>
</g>
<!-- TLR3&#45;&gt;TICAM1 -->
<g id="edge42" class="edge"><title>TLR3&#45;&gt;TICAM1</title>
<path fill="none" stroke="black" d="M282,-785.11C282,-775.895 282,-764.327 282,-753.906"/>
<polygon fill="black" stroke="black" points="285.5,-753.607 282,-743.607 278.5,-753.607 285.5,-753.607"/>
</g>
<!-- BTRC&#45;&gt;NFKBIA -->
<g id="edge43" class="edge"><title>BTRC&#45;&gt;NFKBIA</title>
<path fill="none" stroke="black" d="M96,-168.637C96,-158.279 96,-144.905 96,-133.169"/>
<polygon fill="black" stroke="black" points="99.5001,-132.985 96,-122.985 92.5001,-132.985 99.5001,-132.985"/>
</g>
</g>
</svg>
