<?xml version="1.0" encoding="UTF-8" standalone="no"?>
<!DOCTYPE svg PUBLIC "-//W3C//DTD SVG 1.1//EN"
 "http://www.w3.org/Graphics/SVG/1.1/DTD/svg11.dtd">
<!-- Generated by graphviz version 2.38.0 (20140413.2041)
 -->
<!-- Title: G Pages: 1 -->
<svg width="895pt" height="1157pt"
 viewBox="0.00 0.00 895.00 1157.19" xmlns="http://www.w3.org/2000/svg" xmlns:xlink="http://www.w3.org/1999/xlink">
<g id="graph0" class="graph" transform="scale(1 1) rotate(0) translate(4 1153.19)">
<title>G</title>
<polygon fill="white" stroke="none" points="-4,4 -4,-1153.19 891,-1153.19 891,4 -4,4"/>
<!-- Orf3a -->
<g id="node1" class="node"><title>Orf3a</title>
<ellipse fill="none" stroke="black" cx="330" cy="-1128.51" rx="18" ry="18"/>
<text text-anchor="middle" x="330" y="-1127.31" font-family="Times,serif" font-size="4.00">Orf3a</text>
</g>
<!-- pr_7a6e9b21&#45;0529&#45;4964&#45;b926&#45;4d89ac91cb10 -->
<g id="node2" class="node"><title>pr_7a6e9b21&#45;0529&#45;4964&#45;b926&#45;4d89ac91cb10</title>
<polygon fill="none" stroke="black" points="294.5,-1071.83 193.5,-1071.83 193.5,-970.829 294.5,-970.829 294.5,-1071.83"/>
<text text-anchor="middle" x="244" y="-1020.13" font-family="Times,serif" font-size="4.00">pr_7a6e9b21&#45;0529&#45;4964&#45;b926&#45;4d89ac91cb10</text>
</g>
<!-- Orf3a&#45;&gt;pr_7a6e9b21&#45;0529&#45;4964&#45;b926&#45;4d89ac91cb10 -->
<g id="edge1" class="edge"><title>Orf3a&#45;&gt;pr_7a6e9b21&#45;0529&#45;4964&#45;b926&#45;4d89ac91cb10</title>
<path fill="none" stroke="black" d="M318.757,-1113.76C311.518,-1104.91 301.565,-1092.73 291.283,-1080.16"/>
<polygon fill="black" stroke="black" points="293.899,-1077.83 284.859,-1072.3 288.479,-1082.26 293.899,-1077.83"/>
</g>
<!-- pr_cb9faef2&#45;9ceb&#45;4bb9&#45;b768&#45;152b31bccf01 -->
<g id="node35" class="node"><title>pr_cb9faef2&#45;9ceb&#45;4bb9&#45;b768&#45;152b31bccf01</title>
<polygon fill="none" stroke="black" points="411,-1070.33 313,-1070.33 313,-972.329 411,-972.329 411,-1070.33"/>
<text text-anchor="middle" x="362" y="-1020.13" font-family="Times,serif" font-size="4.00">pr_cb9faef2&#45;9ceb&#45;4bb9&#45;b768&#45;152b31bccf01</text>
</g>
<!-- Orf3a&#45;&gt;pr_cb9faef2&#45;9ceb&#45;4bb9&#45;b768&#45;152b31bccf01 -->
<g id="edge2" class="edge"><title>Orf3a&#45;&gt;pr_cb9faef2&#45;9ceb&#45;4bb9&#45;b768&#45;152b31bccf01</title>
<path fill="none" stroke="black" d="M335,-1111.08C337.609,-1102.5 340.975,-1091.44 344.439,-1080.05"/>
<polygon fill="black" stroke="black" points="347.796,-1081.04 347.358,-1070.46 341.099,-1079.01 347.796,-1081.04"/>
</g>
<!-- NLRP3 -->
<g id="node4" class="node"><title>NLRP3</title>
<ellipse fill="none" stroke="black" cx="244" cy="-908.312" rx="18" ry="18"/>
<text text-anchor="middle" x="244" y="-907.112" font-family="Times,serif" font-size="4.00">NLRP3</text>
</g>
<!-- pr_7a6e9b21&#45;0529&#45;4964&#45;b926&#45;4d89ac91cb10&#45;&gt;NLRP3 -->
<g id="edge3" class="edge"><title>pr_7a6e9b21&#45;0529&#45;4964&#45;b926&#45;4d89ac91cb10&#45;&gt;NLRP3</title>
<path fill="none" stroke="black" d="M244,-970.665C244,-958.925 244,-946.832 244,-936.519"/>
<polygon fill="black" stroke="black" points="247.5,-936.504 244,-926.504 240.5,-936.504 247.5,-936.504"/>
</g>
<!-- TRAF3 -->
<g id="node3" class="node"><title>TRAF3</title>
<ellipse fill="none" stroke="black" cx="478" cy="-1128.51" rx="18" ry="18"/>
<text text-anchor="middle" x="478" y="-1127.31" font-family="Times,serif" font-size="4.00">TRAF3</text>
</g>
<!-- TRAF3&#45;&gt;pr_7a6e9b21&#45;0529&#45;4964&#45;b926&#45;4d89ac91cb10 -->
<g id="edge4" class="edge"><title>TRAF3&#45;&gt;pr_7a6e9b21&#45;0529&#45;4964&#45;b926&#45;4d89ac91cb10</title>
<path fill="none" stroke="black" d="M460.327,-1124.18C427.859,-1117.57 357.171,-1100.86 304,-1071.83 303.807,-1071.72 303.615,-1071.62 303.422,-1071.51"/>
<polygon fill="black" stroke="black" points="305.179,-1068.48 294.807,-1066.33 301.57,-1074.48 305.179,-1068.48"/>
</g>
<!-- pr_343d29f5&#45;01c8&#45;4fbf&#45;9fa2&#45;9a97eb4b4620 -->
<g id="node52" class="node"><title>pr_343d29f5&#45;01c8&#45;4fbf&#45;9fa2&#45;9a97eb4b4620</title>
<polygon fill="none" stroke="black" points="527,-1070.33 429,-1070.33 429,-972.329 527,-972.329 527,-1070.33"/>
<text text-anchor="middle" x="478" y="-1020.13" font-family="Times,serif" font-size="4.00">pr_343d29f5&#45;01c8&#45;4fbf&#45;9fa2&#45;9a97eb4b4620</text>
</g>
<!-- TRAF3&#45;&gt;pr_343d29f5&#45;01c8&#45;4fbf&#45;9fa2&#45;9a97eb4b4620 -->
<g id="edge5" class="edge"><title>TRAF3&#45;&gt;pr_343d29f5&#45;01c8&#45;4fbf&#45;9fa2&#45;9a97eb4b4620</title>
<path fill="none" stroke="black" d="M472.938,-1111.08C471.979,-1102.67 471.428,-1091.88 471.287,-1080.73"/>
<polygon fill="black" stroke="black" points="474.786,-1080.45 471.272,-1070.46 467.786,-1080.46 474.786,-1080.45"/>
</g>
<!-- pr_bffdb61e&#45;db22&#45;4a08&#45;b626&#45;8e7a3fe50d0b -->
<g id="node8" class="node"><title>pr_bffdb61e&#45;db22&#45;4a08&#45;b626&#45;8e7a3fe50d0b</title>
<polygon fill="none" stroke="black" points="293,-844.296 195,-844.296 195,-746.296 293,-746.296 293,-844.296"/>
<text text-anchor="middle" x="244" y="-794.096" font-family="Times,serif" font-size="4.00">pr_bffdb61e&#45;db22&#45;4a08&#45;b626&#45;8e7a3fe50d0b</text>
</g>
<!-- NLRP3&#45;&gt;pr_bffdb61e&#45;db22&#45;4a08&#45;b626&#45;8e7a3fe50d0b -->
<g id="edge6" class="edge"><title>NLRP3&#45;&gt;pr_bffdb61e&#45;db22&#45;4a08&#45;b626&#45;8e7a3fe50d0b</title>
<path fill="none" stroke="black" d="M244,-889.966C244,-880.342 244,-867.752 244,-854.938"/>
<polygon fill="black" stroke="black" points="247.5,-854.666 244,-844.666 240.5,-854.666 247.5,-854.666"/>
</g>
<!-- ASC/CASP1 -->
<g id="node5" class="node"><title>ASC/CASP1</title>
<ellipse fill="none" stroke="black" cx="176" cy="-1128.51" rx="20.8674" ry="20.8674"/>
<text text-anchor="middle" x="176" y="-1127.31" font-family="Times,serif" font-size="4.00">ASC/CASP1</text>
</g>
<!-- ASC/CASP1&#45;&gt;pr_7a6e9b21&#45;0529&#45;4964&#45;b926&#45;4d89ac91cb10 -->
<g id="edge7" class="edge"><title>ASC/CASP1&#45;&gt;pr_7a6e9b21&#45;0529&#45;4964&#45;b926&#45;4d89ac91cb10</title>
<path fill="none" stroke="black" d="M186.925,-1110.61C192.37,-1102.19 199.31,-1091.46 206.461,-1080.39"/>
<polygon fill="black" stroke="black" points="209.459,-1082.2 211.949,-1071.91 203.581,-1078.4 209.459,-1082.2"/>
</g>
<!-- ASC/CASP1&#45;&gt;pr_bffdb61e&#45;db22&#45;4a08&#45;b626&#45;8e7a3fe50d0b -->
<g id="edge8" class="edge"><title>ASC/CASP1&#45;&gt;pr_bffdb61e&#45;db22&#45;4a08&#45;b626&#45;8e7a3fe50d0b</title>
<path fill="none" stroke="black" d="M175.247,-1107.51C174.515,-1077.51 174.638,-1019.23 184,-970.829 191.726,-930.887 206.547,-887.633 219.525,-854.177"/>
<polygon fill="black" stroke="black" points="222.901,-855.156 223.306,-844.569 216.387,-852.592 222.901,-855.156"/>
</g>
<!-- P65/P015 -->
<g id="node6" class="node"><title>P65/P015</title>
<ellipse fill="none" stroke="black" cx="84" cy="-1128.51" rx="18.0625" ry="18.0625"/>
<text text-anchor="middle" x="84" y="-1127.31" font-family="Times,serif" font-size="4.00">P65/P015</text>
</g>
<!-- P65/P015&#45;&gt;pr_7a6e9b21&#45;0529&#45;4964&#45;b926&#45;4d89ac91cb10 -->
<g id="edge9" class="edge"><title>P65/P015&#45;&gt;pr_7a6e9b21&#45;0529&#45;4964&#45;b926&#45;4d89ac91cb10</title>
<path fill="none" stroke="black" d="M98.7656,-1117.8C118.283,-1104.97 153.828,-1081.61 184.867,-1061.2"/>
<polygon fill="black" stroke="black" points="187.051,-1063.95 193.485,-1055.54 183.206,-1058.11 187.051,-1063.95"/>
</g>
<!-- pr_a9feb2a9&#45;e96b&#45;4324&#45;9ddf&#45;0f9218ece007 -->
<g id="node10" class="node"><title>pr_a9feb2a9&#45;e96b&#45;4324&#45;9ddf&#45;0f9218ece007</title>
<polygon fill="none" stroke="black" points="98,-1070.33 7.10543e-15,-1070.33 7.10543e-15,-972.329 98,-972.329 98,-1070.33"/>
<text text-anchor="middle" x="49" y="-1020.13" font-family="Times,serif" font-size="4.00">pr_a9feb2a9&#45;e96b&#45;4324&#45;9ddf&#45;0f9218ece007</text>
</g>
<!-- P65/P015&#45;&gt;pr_a9feb2a9&#45;e96b&#45;4324&#45;9ddf&#45;0f9218ece007 -->
<g id="edge10" class="edge"><title>P65/P015&#45;&gt;pr_a9feb2a9&#45;e96b&#45;4324&#45;9ddf&#45;0f9218ece007</title>
<path fill="none" stroke="black" d="M74.2884,-1112.89C70.2777,-1104.16 65.7539,-1092.44 61.5828,-1080.33"/>
<polygon fill="black" stroke="black" points="64.8171,-1078.97 58.3299,-1070.59 58.1775,-1081.18 64.8171,-1078.97"/>
</g>
<!-- pr_74b0219b&#45;88ea&#45;44de&#45;8c55&#45;755e0b76d03c -->
<g id="node28" class="node"><title>pr_74b0219b&#45;88ea&#45;44de&#45;8c55&#45;755e0b76d03c</title>
<polygon fill="none" stroke="black" points="176.5,-845.796 75.5,-845.796 75.5,-744.796 176.5,-744.796 176.5,-845.796"/>
<text text-anchor="middle" x="126" y="-794.096" font-family="Times,serif" font-size="4.00">pr_74b0219b&#45;88ea&#45;44de&#45;8c55&#45;755e0b76d03c</text>
</g>
<!-- P65/P015&#45;&gt;pr_74b0219b&#45;88ea&#45;44de&#45;8c55&#45;755e0b76d03c -->
<g id="edge11" class="edge"><title>P65/P015&#45;&gt;pr_74b0219b&#45;88ea&#45;44de&#45;8c55&#45;755e0b76d03c</title>
<path fill="none" stroke="black" d="M92.0552,-1111.88C97.2793,-1100.96 103.705,-1085.88 107,-1071.83 124.077,-998.985 127.395,-912.575 127.383,-856.2"/>
<polygon fill="black" stroke="black" points="130.882,-856.02 127.344,-846.033 123.882,-856.046 130.882,-856.02"/>
</g>
<!-- ORF8b -->
<g id="node7" class="node"><title>ORF8b</title>
<ellipse fill="none" stroke="black" cx="244" cy="-1128.51" rx="18" ry="18"/>
<text text-anchor="middle" x="244" y="-1127.31" font-family="Times,serif" font-size="4.00">ORF8b</text>
</g>
<!-- ORF8b&#45;&gt;pr_7a6e9b21&#45;0529&#45;4964&#45;b926&#45;4d89ac91cb10 -->
<g id="edge12" class="edge"><title>ORF8b&#45;&gt;pr_7a6e9b21&#45;0529&#45;4964&#45;b926&#45;4d89ac91cb10</title>
<path fill="none" stroke="black" d="M244,-1110.14C244,-1102.27 244,-1092.44 244,-1082.23"/>
<polygon fill="black" stroke="black" points="247.5,-1081.97 244,-1071.97 240.5,-1081.97 247.5,-1081.97"/>
</g>
<!-- CASP1 -->
<g id="node9" class="node"><title>CASP1</title>
<ellipse fill="none" stroke="black" cx="234" cy="-682.279" rx="18" ry="18"/>
<text text-anchor="middle" x="234" y="-681.079" font-family="Times,serif" font-size="4.00">CASP1</text>
</g>
<!-- pr_bffdb61e&#45;db22&#45;4a08&#45;b626&#45;8e7a3fe50d0b&#45;&gt;CASP1 -->
<g id="edge13" class="edge"><title>pr_bffdb61e&#45;db22&#45;4a08&#45;b626&#45;8e7a3fe50d0b&#45;&gt;CASP1</title>
<path fill="none" stroke="black" d="M239.672,-746.248C238.564,-733.942 237.41,-721.137 236.435,-710.314"/>
<polygon fill="black" stroke="black" points="239.911,-709.888 235.528,-700.242 232.939,-710.516 239.911,-709.888"/>
</g>
<!-- pr_e4b317cb&#45;1c5b&#45;489c&#45;b02b&#45;9e655cd49720 -->
<g id="node24" class="node"><title>pr_e4b317cb&#45;1c5b&#45;489c&#45;b02b&#45;9e655cd49720</title>
<polygon fill="none" stroke="black" points="284.5,-619.763 183.5,-619.763 183.5,-518.763 284.5,-518.763 284.5,-619.763"/>
<text text-anchor="middle" x="234" y="-568.063" font-family="Times,serif" font-size="4.00">pr_e4b317cb&#45;1c5b&#45;489c&#45;b02b&#45;9e655cd49720</text>
</g>
<!-- CASP1&#45;&gt;pr_e4b317cb&#45;1c5b&#45;489c&#45;b02b&#45;9e655cd49720 -->
<g id="edge14" class="edge"><title>CASP1&#45;&gt;pr_e4b317cb&#45;1c5b&#45;489c&#45;b02b&#45;9e655cd49720</title>
<path fill="none" stroke="black" d="M234,-663.933C234,-654.69 234,-642.711 234,-630.426"/>
<polygon fill="black" stroke="black" points="237.5,-630.088 234,-620.088 230.5,-630.088 237.5,-630.088"/>
</g>
<!-- pr_a9feb2a9&#45;e96b&#45;4324&#45;9ddf&#45;0f9218ece007&#45;&gt;P65/P015 -->
<g id="edge15" class="edge"><title>pr_a9feb2a9&#45;e96b&#45;4324&#45;9ddf&#45;0f9218ece007&#45;&gt;P65/P015</title>
<path fill="none" stroke="black" d="M71.7908,-1070.6C75.2676,-1080.76 78.4786,-1091.13 80.9142,-1100.2"/>
<polygon fill="black" stroke="black" points="77.5772,-1101.28 83.3868,-1110.14 84.3704,-1099.59 77.5772,-1101.28"/>
</g>
<!-- LPS/TLR4/MYD88 -->
<g id="node11" class="node"><title>LPS/TLR4/MYD88</title>
<ellipse fill="none" stroke="black" cx="485" cy="-908.312" rx="26.533" ry="26.533"/>
<text text-anchor="middle" x="485" y="-907.112" font-family="Times,serif" font-size="4.00">LPS/TLR4/MYD88</text>
</g>
<!-- pr_e41db0ec&#45;16a6&#45;470c&#45;8a32&#45;50f3a9435bac -->
<g id="node12" class="node"><title>pr_e41db0ec&#45;16a6&#45;470c&#45;8a32&#45;50f3a9435bac</title>
<polygon fill="none" stroke="black" points="535,-845.296 435,-845.296 435,-745.296 535,-745.296 535,-845.296"/>
<text text-anchor="middle" x="485" y="-794.096" font-family="Times,serif" font-size="4.00">pr_e41db0ec&#45;16a6&#45;470c&#45;8a32&#45;50f3a9435bac</text>
</g>
<!-- LPS/TLR4/MYD88&#45;&gt;pr_e41db0ec&#45;16a6&#45;470c&#45;8a32&#45;50f3a9435bac -->
<g id="edge16" class="edge"><title>LPS/TLR4/MYD88&#45;&gt;pr_e41db0ec&#45;16a6&#45;470c&#45;8a32&#45;50f3a9435bac</title>
<path fill="none" stroke="black" d="M485,-881.564C485,-873.745 485,-864.808 485,-855.731"/>
<polygon fill="black" stroke="black" points="488.5,-855.474 485,-845.474 481.5,-855.474 488.5,-855.474"/>
</g>
<!-- TRAF6 -->
<g id="node13" class="node"><title>TRAF6</title>
<ellipse fill="none" stroke="black" cx="545" cy="-682.279" rx="18" ry="18"/>
<text text-anchor="middle" x="545" y="-681.079" font-family="Times,serif" font-size="4.00">TRAF6</text>
</g>
<!-- pr_e41db0ec&#45;16a6&#45;470c&#45;8a32&#45;50f3a9435bac&#45;&gt;TRAF6 -->
<g id="edge17" class="edge"><title>pr_e41db0ec&#45;16a6&#45;470c&#45;8a32&#45;50f3a9435bac&#45;&gt;TRAF6</title>
<path fill="none" stroke="black" d="M511.492,-745.279C518.581,-732.161 525.936,-718.552 531.943,-707.438"/>
<polygon fill="black" stroke="black" points="535.158,-708.85 536.834,-698.389 529,-705.522 535.158,-708.85"/>
</g>
<!-- pr_b0db31c2&#45;6e78&#45;4840&#45;84b3&#45;c42148d10e03 -->
<g id="node41" class="node"><title>pr_b0db31c2&#45;6e78&#45;4840&#45;84b3&#45;c42148d10e03</title>
<polygon fill="none" stroke="black" points="650.5,-619.763 549.5,-619.763 549.5,-518.763 650.5,-518.763 650.5,-619.763"/>
<text text-anchor="middle" x="600" y="-568.063" font-family="Times,serif" font-size="4.00">pr_b0db31c2&#45;6e78&#45;4840&#45;84b3&#45;c42148d10e03</text>
</g>
<!-- TRAF6&#45;&gt;pr_b0db31c2&#45;6e78&#45;4840&#45;84b3&#45;c42148d10e03 -->
<g id="edge18" class="edge"><title>TRAF6&#45;&gt;pr_b0db31c2&#45;6e78&#45;4840&#45;84b3&#45;c42148d10e03</title>
<path fill="none" stroke="black" d="M548.344,-664.418C552.058,-654.759 557.802,-641.999 564.159,-629.002"/>
<polygon fill="black" stroke="black" points="567.316,-630.514 568.641,-620.002 561.05,-627.394 567.316,-630.514"/>
</g>
<!-- pr_1417cd23&#45;a0a6&#45;4b0e&#45;a06f&#45;a518890868db -->
<g id="node44" class="node"><title>pr_1417cd23&#45;a0a6&#45;4b0e&#45;a06f&#45;a518890868db</title>
<polygon fill="none" stroke="black" points="531,-619.263 431,-619.263 431,-519.263 531,-519.263 531,-619.263"/>
<text text-anchor="middle" x="481" y="-568.063" font-family="Times,serif" font-size="4.00">pr_1417cd23&#45;a0a6&#45;4b0e&#45;a06f&#45;a518890868db</text>
</g>
<!-- TRAF6&#45;&gt;pr_1417cd23&#45;a0a6&#45;4b0e&#45;a06f&#45;a518890868db -->
<g id="edge19" class="edge"><title>TRAF6&#45;&gt;pr_1417cd23&#45;a0a6&#45;4b0e&#45;a06f&#45;a518890868db</title>
<path fill="none" stroke="black" d="M536.369,-666.307C530.605,-656.308 522.616,-642.452 514.499,-628.371"/>
<polygon fill="black" stroke="black" points="517.474,-626.523 509.447,-619.608 511.409,-630.019 517.474,-626.523"/>
</g>
<!-- TRIM59 -->
<g id="node14" class="node"><title>TRIM59</title>
<ellipse fill="none" stroke="black" cx="362" cy="-908.312" rx="18" ry="18"/>
<text text-anchor="middle" x="362" y="-907.112" font-family="Times,serif" font-size="4.00">TRIM59</text>
</g>
<!-- TRIM59&#45;&gt;pr_e41db0ec&#45;16a6&#45;470c&#45;8a32&#45;50f3a9435bac -->
<g id="edge20" class="edge"><title>TRIM59&#45;&gt;pr_e41db0ec&#45;16a6&#45;470c&#45;8a32&#45;50f3a9435bac</title>
<path fill="none" stroke="black" d="M375.163,-895.432C387.857,-883.974 407.974,-865.817 427.543,-848.155"/>
<polygon fill="black" stroke="black" points="429.921,-850.724 434.999,-841.425 425.23,-845.527 429.921,-850.724"/>
</g>
<!-- TRIM59&#45;&gt;pr_cb9faef2&#45;9ceb&#45;4bb9&#45;b768&#45;152b31bccf01 -->
<g id="edge21" class="edge"><title>TRIM59&#45;&gt;pr_cb9faef2&#45;9ceb&#45;4bb9&#45;b768&#45;152b31bccf01</title>
<path fill="none" stroke="black" d="M366.962,-925.751C368.078,-935.579 368.671,-948.723 368.743,-962.078"/>
<polygon fill="black" stroke="black" points="365.242,-962.265 368.696,-972.281 372.242,-962.297 365.242,-962.265"/>
</g>
<!-- NFKBIA -->
<g id="node15" class="node"><title>NFKBIA</title>
<ellipse fill="none" stroke="black" cx="831" cy="-228.092" rx="18" ry="18"/>
<text text-anchor="middle" x="831" y="-226.892" font-family="Times,serif" font-size="4.00">NFKBIA</text>
</g>
<!-- pr_c7771764&#45;f1ee&#45;403d&#45;b7e3&#45;c984c48ca379 -->
<g id="node16" class="node"><title>pr_c7771764&#45;f1ee&#45;403d&#45;b7e3&#45;c984c48ca379</title>
<polygon fill="none" stroke="black" points="881,-383.684 781,-383.684 781,-283.684 881,-283.684 881,-383.684"/>
<text text-anchor="middle" x="831" y="-332.484" font-family="Times,serif" font-size="4.00">pr_c7771764&#45;f1ee&#45;403d&#45;b7e3&#45;c984c48ca379</text>
</g>
<!-- NFKBIA&#45;&gt;pr_c7771764&#45;f1ee&#45;403d&#45;b7e3&#45;c984c48ca379 -->
<g id="edge22" class="edge"><title>NFKBIA&#45;&gt;pr_c7771764&#45;f1ee&#45;403d&#45;b7e3&#45;c984c48ca379</title>
<path fill="none" stroke="black" d="M836.126,-245.835C836.996,-253.588 837.517,-263.316 837.687,-273.432"/>
<polygon fill="black" stroke="black" points="834.188,-273.637 837.742,-283.618 841.188,-273.6 834.188,-273.637"/>
</g>
<!-- pr_02959e66&#45;ed7c&#45;4c6e&#45;a74a&#45;461405be0780 -->
<g id="node53" class="node"><title>pr_02959e66&#45;ed7c&#45;4c6e&#45;a74a&#45;461405be0780</title>
<polygon fill="none" stroke="black" points="881.5,-173 780.5,-173 780.5,-72 881.5,-72 881.5,-173"/>
<text text-anchor="middle" x="831" y="-121.3" font-family="Times,serif" font-size="4.00">pr_02959e66&#45;ed7c&#45;4c6e&#45;a74a&#45;461405be0780</text>
</g>
<!-- NFKBIA&#45;&gt;pr_02959e66&#45;ed7c&#45;4c6e&#45;a74a&#45;461405be0780 -->
<g id="edge23" class="edge"><title>NFKBIA&#45;&gt;pr_02959e66&#45;ed7c&#45;4c6e&#45;a74a&#45;461405be0780</title>
<path fill="none" stroke="black" d="M831,-209.986C831,-202.479 831,-193.174 831,-183.475"/>
<polygon fill="black" stroke="black" points="834.5,-183.286 831,-173.286 827.5,-183.286 834.5,-183.286"/>
</g>
<!-- pr_c7771764&#45;f1ee&#45;403d&#45;b7e3&#45;c984c48ca379&#45;&gt;NFKBIA -->
<g id="edge24" class="edge"><title>pr_c7771764&#45;f1ee&#45;403d&#45;b7e3&#45;c984c48ca379&#45;&gt;NFKBIA</title>
<path fill="none" stroke="black" d="M824.258,-283.618C824.2,-274.058 824.449,-264.373 825.005,-255.872"/>
<polygon fill="black" stroke="black" points="828.498,-256.099 825.874,-245.835 821.524,-255.495 828.498,-256.099"/>
</g>
<!-- B&#45;TrcP -->
<g id="node17" class="node"><title>B&#45;TrcP</title>
<ellipse fill="none" stroke="black" cx="863" cy="-451.473" rx="18" ry="18"/>
<text text-anchor="middle" x="863" y="-450.273" font-family="Times,serif" font-size="4.00">B&#45;TrcP</text>
</g>
<!-- B&#45;TrcP&#45;&gt;pr_c7771764&#45;f1ee&#45;403d&#45;b7e3&#45;c984c48ca379 -->
<g id="edge25" class="edge"><title>B&#45;TrcP&#45;&gt;pr_c7771764&#45;f1ee&#45;403d&#45;b7e3&#45;c984c48ca379</title>
<path fill="none" stroke="black" d="M858.415,-433.883C855.438,-423.111 851.361,-408.358 847.261,-393.522"/>
<polygon fill="black" stroke="black" points="850.612,-392.508 844.575,-383.802 843.865,-394.373 850.612,-392.508"/>
</g>
<!-- NEMO/IKKA/IKKB -->
<g id="node18" class="node"><title>NEMO/IKKA/IKKB</title>
<ellipse fill="none" stroke="black" cx="799" cy="-451.473" rx="28.2154" ry="28.2154"/>
<text text-anchor="middle" x="799" y="-450.273" font-family="Times,serif" font-size="4.00">NEMO/IKKA/IKKB</text>
</g>
<!-- NEMO/IKKA/IKKB&#45;&gt;pr_c7771764&#45;f1ee&#45;403d&#45;b7e3&#45;c984c48ca379 -->
<g id="edge26" class="edge"><title>NEMO/IKKA/IKKB&#45;&gt;pr_c7771764&#45;f1ee&#45;403d&#45;b7e3&#45;c984c48ca379</title>
<path fill="none" stroke="black" d="M806.261,-424.199C808.774,-415.106 811.702,-404.511 814.646,-393.859"/>
<polygon fill="black" stroke="black" points="818.053,-394.672 817.343,-384.101 811.305,-392.808 818.053,-394.672"/>
</g>
<!-- pr_b4bac287&#45;bd62&#45;416b&#45;8d66&#45;1959a11b1822 -->
<g id="node46" class="node"><title>pr_b4bac287&#45;bd62&#45;416b&#45;8d66&#45;1959a11b1822</title>
<polygon fill="none" stroke="black" points="693.5,-384.184 592.5,-384.184 592.5,-283.184 693.5,-283.184 693.5,-384.184"/>
<text text-anchor="middle" x="643" y="-332.484" font-family="Times,serif" font-size="4.00">pr_b4bac287&#45;bd62&#45;416b&#45;8d66&#45;1959a11b1822</text>
</g>
<!-- NEMO/IKKA/IKKB&#45;&gt;pr_b4bac287&#45;bd62&#45;416b&#45;8d66&#45;1959a11b1822 -->
<g id="edge27" class="edge"><title>NEMO/IKKA/IKKB&#45;&gt;pr_b4bac287&#45;bd62&#45;416b&#45;8d66&#45;1959a11b1822</title>
<path fill="none" stroke="black" d="M777.662,-432.623C772.579,-428.477 767.137,-424.126 762,-420.184 742.663,-405.345 721.131,-389.638 701.756,-375.79"/>
<polygon fill="black" stroke="black" points="703.773,-372.929 693.598,-369.977 699.711,-378.63 703.773,-372.929"/>
</g>
<!-- LPS/TNF α/IL&#45;1 -->
<g id="node19" class="node"><title>LPS/TNF α/IL&#45;1</title>
<ellipse fill="none" stroke="black" cx="353" cy="-682.279" rx="23.7305" ry="23.7305"/>
<text text-anchor="middle" x="353" y="-681.079" font-family="Times,serif" font-size="4.00">LPS/TNF α/IL&#45;1</text>
</g>
<!-- pr_9a568a7c&#45;1710&#45;4c45&#45;a9c1&#45;4c362082d1b2 -->
<g id="node20" class="node"><title>pr_9a568a7c&#45;1710&#45;4c45&#45;a9c1&#45;4c362082d1b2</title>
<polygon fill="none" stroke="black" points="403.5,-619.763 302.5,-619.763 302.5,-518.763 403.5,-518.763 403.5,-619.763"/>
<text text-anchor="middle" x="353" y="-568.063" font-family="Times,serif" font-size="4.00">pr_9a568a7c&#45;1710&#45;4c45&#45;a9c1&#45;4c362082d1b2</text>
</g>
<!-- LPS/TNF α/IL&#45;1&#45;&gt;pr_9a568a7c&#45;1710&#45;4c45&#45;a9c1&#45;4c362082d1b2 -->
<g id="edge28" class="edge"><title>LPS/TNF α/IL&#45;1&#45;&gt;pr_9a568a7c&#45;1710&#45;4c45&#45;a9c1&#45;4c362082d1b2</title>
<path fill="none" stroke="black" d="M353,-658.277C353,-649.893 353,-639.982 353,-629.889"/>
<polygon fill="black" stroke="black" points="356.5,-629.785 353,-619.785 349.5,-629.785 356.5,-629.785"/>
</g>
<!-- IKBKG/IKBKB/CHUK -->
<g id="node22" class="node"><title>IKBKG/IKBKB/CHUK</title>
<ellipse fill="none" stroke="black" cx="353" cy="-451.473" rx="31.0804" ry="31.0804"/>
<text text-anchor="middle" x="353" y="-450.273" font-family="Times,serif" font-size="4.00">IKBKG/IKBKB/CHUK</text>
</g>
<!-- pr_9a568a7c&#45;1710&#45;4c45&#45;a9c1&#45;4c362082d1b2&#45;&gt;IKBKG/IKBKB/CHUK -->
<g id="edge29" class="edge"><title>pr_9a568a7c&#45;1710&#45;4c45&#45;a9c1&#45;4c362082d1b2&#45;&gt;IKBKG/IKBKB/CHUK</title>
<path fill="none" stroke="black" d="M353,-518.486C353,-509.952 353,-501.179 353,-492.927"/>
<polygon fill="black" stroke="black" points="356.5,-492.81 353,-482.81 349.5,-492.81 356.5,-492.81"/>
</g>
<!-- E -->
<g id="node21" class="node"><title>E</title>
<ellipse fill="none" stroke="black" cx="291" cy="-682.279" rx="18" ry="18"/>
<text text-anchor="middle" x="291" y="-681.079" font-family="Times,serif" font-size="4.00">E</text>
</g>
<!-- E&#45;&gt;pr_9a568a7c&#45;1710&#45;4c45&#45;a9c1&#45;4c362082d1b2 -->
<g id="edge30" class="edge"><title>E&#45;&gt;pr_9a568a7c&#45;1710&#45;4c45&#45;a9c1&#45;4c362082d1b2</title>
<path fill="none" stroke="black" d="M299.362,-666.307C304.839,-656.5 312.389,-642.981 320.096,-629.18"/>
<polygon fill="black" stroke="black" points="323.344,-630.543 325.164,-620.106 317.232,-627.13 323.344,-630.543"/>
</g>
<!-- E&#45;&gt;pr_e4b317cb&#45;1c5b&#45;489c&#45;b02b&#45;9e655cd49720 -->
<g id="edge31" class="edge"><title>E&#45;&gt;pr_e4b317cb&#45;1c5b&#45;489c&#45;b02b&#45;9e655cd49720</title>
<path fill="none" stroke="black" d="M283.074,-665.843C278.056,-656.068 271.215,-642.744 264.234,-629.148"/>
<polygon fill="black" stroke="black" points="267.326,-627.507 259.645,-620.209 261.099,-630.704 267.326,-627.507"/>
</g>
<!-- Pro_IL1b -->
<g id="node23" class="node"><title>Pro_IL1b</title>
<ellipse fill="none" stroke="black" cx="234" cy="-451.473" rx="18" ry="18"/>
<text text-anchor="middle" x="234" y="-450.273" font-family="Times,serif" font-size="4.00">Pro_IL1b</text>
</g>
<!-- Pro_IL1b&#45;&gt;pr_e4b317cb&#45;1c5b&#45;489c&#45;b02b&#45;9e655cd49720 -->
<g id="edge32" class="edge"><title>Pro_IL1b&#45;&gt;pr_e4b317cb&#45;1c5b&#45;489c&#45;b02b&#45;9e655cd49720</title>
<path fill="none" stroke="black" d="M238.884,-468.917C240.075,-479.46 240.696,-493.859 240.747,-508.422"/>
<polygon fill="black" stroke="black" points="237.246,-508.466 240.691,-518.486 244.246,-508.505 237.246,-508.466"/>
</g>
<!-- pr_e4b317cb&#45;1c5b&#45;489c&#45;b02b&#45;9e655cd49720&#45;&gt;Pro_IL1b -->
<g id="edge33" class="edge"><title>pr_e4b317cb&#45;1c5b&#45;489c&#45;b02b&#45;9e655cd49720&#45;&gt;Pro_IL1b</title>
<path fill="none" stroke="black" d="M227.309,-518.486C227.109,-504.876 227.415,-490.656 228.228,-478.915"/>
<polygon fill="black" stroke="black" points="231.717,-479.188 229.116,-468.917 224.744,-478.568 231.717,-479.188"/>
</g>
<!-- SERPINF2 -->
<g id="node25" class="node"><title>SERPINF2</title>
<ellipse fill="none" stroke="black" cx="481" cy="-228.092" rx="19.1842" ry="19.1842"/>
<text text-anchor="middle" x="481" y="-226.892" font-family="Times,serif" font-size="4.00">SERPINF2</text>
</g>
<!-- pr_21abfdfb&#45;ef38&#45;400f&#45;aa67&#45;26ac3c926557 -->
<g id="node26" class="node"><title>pr_21abfdfb&#45;ef38&#45;400f&#45;aa67&#45;26ac3c926557</title>
<polygon fill="none" stroke="black" points="530,-171.5 432,-171.5 432,-73.5 530,-73.5 530,-171.5"/>
<text text-anchor="middle" x="481" y="-121.3" font-family="Times,serif" font-size="4.00">pr_21abfdfb&#45;ef38&#45;400f&#45;aa67&#45;26ac3c926557</text>
</g>
<!-- SERPINF2&#45;&gt;pr_21abfdfb&#45;ef38&#45;400f&#45;aa67&#45;26ac3c926557 -->
<g id="edge34" class="edge"><title>SERPINF2&#45;&gt;pr_21abfdfb&#45;ef38&#45;400f&#45;aa67&#45;26ac3c926557</title>
<path fill="none" stroke="black" d="M481,-208.572C481,-200.883 481,-191.499 481,-181.805"/>
<polygon fill="black" stroke="black" points="484.5,-181.65 481,-171.65 477.5,-181.65 484.5,-181.65"/>
</g>
<!-- pr_1a2c3418&#45;c6c2&#45;4443&#45;9ace&#45;cecc91bfba15 -->
<g id="node51" class="node"><title>pr_1a2c3418&#45;c6c2&#45;4443&#45;9ace&#45;cecc91bfba15</title>
<polygon fill="none" stroke="black" points="531,-383.684 431,-383.684 431,-283.684 531,-283.684 531,-383.684"/>
<text text-anchor="middle" x="481" y="-332.484" font-family="Times,serif" font-size="4.00">pr_1a2c3418&#45;c6c2&#45;4443&#45;9ace&#45;cecc91bfba15</text>
</g>
<!-- SERPINF2&#45;&gt;pr_1a2c3418&#45;c6c2&#45;4443&#45;9ace&#45;cecc91bfba15 -->
<g id="edge35" class="edge"><title>SERPINF2&#45;&gt;pr_1a2c3418&#45;c6c2&#45;4443&#45;9ace&#45;cecc91bfba15</title>
<path fill="none" stroke="black" d="M486.231,-246.799C487.038,-254.388 487.524,-263.735 487.688,-273.437"/>
<polygon fill="black" stroke="black" points="484.188,-273.637 487.742,-283.618 491.188,-273.6 484.188,-273.637"/>
</g>
<!-- IFNB1 -->
<g id="node27" class="node"><title>IFNB1</title>
<ellipse fill="none" stroke="black" cx="481" cy="-18" rx="18" ry="18"/>
<text text-anchor="middle" x="481" y="-16.8" font-family="Times,serif" font-size="4.00">IFNB1</text>
</g>
<!-- pr_21abfdfb&#45;ef38&#45;400f&#45;aa67&#45;26ac3c926557&#45;&gt;IFNB1 -->
<g id="edge36" class="edge"><title>pr_21abfdfb&#45;ef38&#45;400f&#45;aa67&#45;26ac3c926557&#45;&gt;IFNB1</title>
<path fill="none" stroke="black" d="M481,-73.2514C481,-64.0088 481,-54.6357 481,-46.3398"/>
<polygon fill="black" stroke="black" points="484.5,-46.1562 481,-36.1562 477.5,-46.1562 484.5,-46.1562"/>
</g>
<!-- pr_74b0219b&#45;88ea&#45;44de&#45;8c55&#45;755e0b76d03c&#45;&gt;Pro_IL1b -->
<g id="edge37" class="edge"><title>pr_74b0219b&#45;88ea&#45;44de&#45;8c55&#45;755e0b76d03c&#45;&gt;Pro_IL1b</title>
<path fill="none" stroke="black" d="M126.443,-744.737C128.758,-687.54 138.274,-591.962 174,-518.763 183.19,-499.933 199.371,-482.53 212.614,-470.284"/>
<polygon fill="black" stroke="black" points="215.25,-472.623 220.392,-463.36 210.596,-467.395 215.25,-472.623"/>
</g>
<!-- TLR3 -->
<g id="node29" class="node"><title>TLR3</title>
<ellipse fill="none" stroke="black" cx="733" cy="-1128.51" rx="18" ry="18"/>
<text text-anchor="middle" x="733" y="-1127.31" font-family="Times,serif" font-size="4.00">TLR3</text>
</g>
<!-- pr_e40bb00a&#45;946a&#45;44e0&#45;adf9&#45;ba09f02c947c -->
<g id="node30" class="node"><title>pr_e40bb00a&#45;946a&#45;44e0&#45;adf9&#45;ba09f02c947c</title>
<polygon fill="none" stroke="black" points="800.5,-1070.83 701.5,-1070.83 701.5,-971.829 800.5,-971.829 800.5,-1070.83"/>
<text text-anchor="middle" x="751" y="-1020.13" font-family="Times,serif" font-size="4.00">pr_e40bb00a&#45;946a&#45;44e0&#45;adf9&#45;ba09f02c947c</text>
</g>
<!-- TLR3&#45;&gt;pr_e40bb00a&#45;946a&#45;44e0&#45;adf9&#45;ba09f02c947c -->
<g id="edge38" class="edge"><title>TLR3&#45;&gt;pr_e40bb00a&#45;946a&#45;44e0&#45;adf9&#45;ba09f02c947c</title>
<path fill="none" stroke="black" d="M730.777,-1110.61C731.273,-1102.34 732.538,-1091.84 734.251,-1080.99"/>
<polygon fill="black" stroke="black" points="737.727,-1081.43 735.94,-1070.99 730.824,-1080.27 737.727,-1081.43"/>
</g>
<!-- pr_bc395bb5&#45;99fd&#45;454a&#45;b111&#45;8bd4bca156ea -->
<g id="node33" class="node"><title>pr_bc395bb5&#45;99fd&#45;454a&#45;b111&#45;8bd4bca156ea</title>
<polygon fill="none" stroke="black" points="645,-1071.33 545,-1071.33 545,-971.329 645,-971.329 645,-1071.33"/>
<text text-anchor="middle" x="595" y="-1020.13" font-family="Times,serif" font-size="4.00">pr_bc395bb5&#45;99fd&#45;454a&#45;b111&#45;8bd4bca156ea</text>
</g>
<!-- TLR3&#45;&gt;pr_bc395bb5&#45;99fd&#45;454a&#45;b111&#45;8bd4bca156ea -->
<g id="edge39" class="edge"><title>TLR3&#45;&gt;pr_bc395bb5&#45;99fd&#45;454a&#45;b111&#45;8bd4bca156ea</title>
<path fill="none" stroke="black" d="M719.008,-1116.85C703.494,-1105.02 677.452,-1085.17 653.227,-1066.71"/>
<polygon fill="black" stroke="black" points="655.174,-1063.79 645.099,-1060.51 650.93,-1069.36 655.174,-1063.79"/>
</g>
<!-- pr_e40bb00a&#45;946a&#45;44e0&#45;adf9&#45;ba09f02c947c&#45;&gt;TLR3 -->
<g id="edge40" class="edge"><title>pr_e40bb00a&#45;946a&#45;44e0&#45;adf9&#45;ba09f02c947c&#45;&gt;TLR3</title>
<path fill="none" stroke="black" d="M749.367,-1071.23C747.618,-1081.95 745.458,-1092.88 743.195,-1102.22"/>
<polygon fill="black" stroke="black" points="739.783,-1101.43 740.611,-1111.99 746.551,-1103.22 739.783,-1101.43"/>
</g>
<!-- dsRNA -->
<g id="node31" class="node"><title>dsRNA</title>
<ellipse fill="none" stroke="black" cx="787" cy="-1128.51" rx="18" ry="18"/>
<text text-anchor="middle" x="787" y="-1127.31" font-family="Times,serif" font-size="4.00">dsRNA</text>
</g>
<!-- dsRNA&#45;&gt;pr_e40bb00a&#45;946a&#45;44e0&#45;adf9&#45;ba09f02c947c -->
<g id="edge41" class="edge"><title>dsRNA&#45;&gt;pr_e40bb00a&#45;946a&#45;44e0&#45;adf9&#45;ba09f02c947c</title>
<path fill="none" stroke="black" d="M781.375,-1111.08C778.47,-1102.59 774.733,-1091.67 770.879,-1080.41"/>
<polygon fill="black" stroke="black" points="774.18,-1079.25 767.63,-1070.92 767.557,-1081.51 774.18,-1079.25"/>
</g>
<!-- TICAM1 -->
<g id="node32" class="node"><title>TICAM1</title>
<ellipse fill="none" stroke="black" cx="595" cy="-1128.51" rx="18" ry="18"/>
<text text-anchor="middle" x="595" y="-1127.31" font-family="Times,serif" font-size="4.00">TICAM1</text>
</g>
<!-- TICAM1&#45;&gt;pr_bc395bb5&#45;99fd&#45;454a&#45;b111&#45;8bd4bca156ea -->
<g id="edge42" class="edge"><title>TICAM1&#45;&gt;pr_bc395bb5&#45;99fd&#45;454a&#45;b111&#45;8bd4bca156ea</title>
<path fill="none" stroke="black" d="M589.938,-1111.08C588.999,-1102.85 588.452,-1092.33 588.296,-1081.44"/>
<polygon fill="black" stroke="black" points="591.796,-1081.37 588.264,-1071.38 584.796,-1081.39 591.796,-1081.37"/>
</g>
<!-- TICAM1&#45;&gt;pr_343d29f5&#45;01c8&#45;4fbf&#45;9fa2&#45;9a97eb4b4620 -->
<g id="edge43" class="edge"><title>TICAM1&#45;&gt;pr_343d29f5&#45;01c8&#45;4fbf&#45;9fa2&#45;9a97eb4b4620</title>
<path fill="none" stroke="black" d="M582.032,-1115.85C570.371,-1105.37 552.392,-1089.21 534.642,-1073.25"/>
<polygon fill="black" stroke="black" points="536.844,-1070.52 527.068,-1066.44 532.164,-1075.73 536.844,-1070.52"/>
</g>
<!-- pr_bc395bb5&#45;99fd&#45;454a&#45;b111&#45;8bd4bca156ea&#45;&gt;TICAM1 -->
<g id="edge44" class="edge"><title>pr_bc395bb5&#45;99fd&#45;454a&#45;b111&#45;8bd4bca156ea&#45;&gt;TICAM1</title>
<path fill="none" stroke="black" d="M601.736,-1071.38C601.815,-1081.55 601.555,-1091.89 600.958,-1100.88"/>
<polygon fill="black" stroke="black" points="597.451,-1100.81 600.062,-1111.08 604.424,-1101.42 597.451,-1100.81"/>
</g>
<!-- TRIM38 -->
<g id="node34" class="node"><title>TRIM38</title>
<ellipse fill="none" stroke="black" cx="661" cy="-1128.51" rx="18" ry="18"/>
<text text-anchor="middle" x="661" y="-1127.31" font-family="Times,serif" font-size="4.00">TRIM38</text>
</g>
<!-- TRIM38&#45;&gt;pr_bc395bb5&#45;99fd&#45;454a&#45;b111&#45;8bd4bca156ea -->
<g id="edge45" class="edge"><title>TRIM38&#45;&gt;pr_bc395bb5&#45;99fd&#45;454a&#45;b111&#45;8bd4bca156ea</title>
<path fill="none" stroke="black" d="M651.823,-1112.89C646.297,-1104.08 638.864,-1092.23 631.198,-1080.02"/>
<polygon fill="black" stroke="black" points="634.154,-1078.14 625.874,-1071.53 628.225,-1081.86 634.154,-1078.14"/>
</g>
<!-- TRIM38&#45;&gt;pr_b0db31c2&#45;6e78&#45;4840&#45;84b3&#45;c42148d10e03 -->
<g id="edge46" class="edge"><title>TRIM38&#45;&gt;pr_b0db31c2&#45;6e78&#45;4840&#45;84b3&#45;c42148d10e03</title>
<path fill="none" stroke="black" d="M662.569,-1110.55C665.822,-1073.88 673,-984.432 673,-909.312 673,-909.312 673,-909.312 673,-794.296 673,-736.055 650.421,-673.302 630.378,-629.069"/>
<polygon fill="black" stroke="black" points="633.522,-627.528 626.148,-619.92 627.168,-630.466 633.522,-627.528"/>
</g>
<!-- pr_cb9faef2&#45;9ceb&#45;4bb9&#45;b768&#45;152b31bccf01&#45;&gt;TRIM59 -->
<g id="edge47" class="edge"><title>pr_cb9faef2&#45;9ceb&#45;4bb9&#45;b768&#45;152b31bccf01&#45;&gt;TRIM59</title>
<path fill="none" stroke="black" d="M355.304,-972.281C355.121,-959.799 355.4,-946.805 356.142,-935.884"/>
<polygon fill="black" stroke="black" points="359.644,-936.02 357.038,-925.751 352.671,-935.404 359.644,-936.02"/>
</g>
<!-- TLR7/8/9 -->
<g id="node36" class="node"><title>TLR7/8/9</title>
<ellipse fill="none" stroke="black" cx="810" cy="-682.279" rx="18.0625" ry="18.0625"/>
<text text-anchor="middle" x="810" y="-681.079" font-family="Times,serif" font-size="4.00">TLR7/8/9</text>
</g>
<!-- pr_04447c6a&#45;9b21&#45;4639&#45;9086&#45;746c0ef4e118 -->
<g id="node37" class="node"><title>pr_04447c6a&#45;9b21&#45;4639&#45;9086&#45;746c0ef4e118</title>
<polygon fill="none" stroke="black" points="887,-619.263 787,-619.263 787,-519.263 887,-519.263 887,-619.263"/>
<text text-anchor="middle" x="837" y="-568.063" font-family="Times,serif" font-size="4.00">pr_04447c6a&#45;9b21&#45;4639&#45;9086&#45;746c0ef4e118</text>
</g>
<!-- TLR7/8/9&#45;&gt;pr_04447c6a&#45;9b21&#45;4639&#45;9086&#45;746c0ef4e118 -->
<g id="edge48" class="edge"><title>TLR7/8/9&#45;&gt;pr_04447c6a&#45;9b21&#45;4639&#45;9086&#45;746c0ef4e118</title>
<path fill="none" stroke="black" d="M809.156,-663.933C810.431,-654.501 812.86,-642.221 815.816,-629.674"/>
<polygon fill="black" stroke="black" points="819.303,-630.149 818.287,-619.603 812.505,-628.48 819.303,-630.149"/>
</g>
<!-- pr_96e12ec6&#45;c69d&#45;4170&#45;8f47&#45;c86c16ed41c6 -->
<g id="node40" class="node"><title>pr_96e12ec6&#45;c69d&#45;4170&#45;8f47&#45;c86c16ed41c6</title>
<polygon fill="none" stroke="black" points="769,-619.263 669,-619.263 669,-519.263 769,-519.263 769,-619.263"/>
<text text-anchor="middle" x="719" y="-568.063" font-family="Times,serif" font-size="4.00">pr_96e12ec6&#45;c69d&#45;4170&#45;8f47&#45;c86c16ed41c6</text>
</g>
<!-- TLR7/8/9&#45;&gt;pr_96e12ec6&#45;c69d&#45;4170&#45;8f47&#45;c86c16ed41c6 -->
<g id="edge49" class="edge"><title>TLR7/8/9&#45;&gt;pr_96e12ec6&#45;c69d&#45;4170&#45;8f47&#45;c86c16ed41c6</title>
<path fill="none" stroke="black" d="M798.842,-667.666C790.395,-657.362 778.173,-642.451 765.821,-627.383"/>
<polygon fill="black" stroke="black" points="768.416,-625.027 759.369,-619.512 763.002,-629.464 768.416,-625.027"/>
</g>
<!-- pr_04447c6a&#45;9b21&#45;4639&#45;9086&#45;746c0ef4e118&#45;&gt;TLR7/8/9 -->
<g id="edge50" class="edge"><title>pr_04447c6a&#45;9b21&#45;4639&#45;9086&#45;746c0ef4e118&#45;&gt;TLR7/8/9</title>
<path fill="none" stroke="black" d="M831.712,-619.608C828.747,-632.434 825.189,-645.705 821.714,-656.636"/>
<polygon fill="black" stroke="black" points="818.331,-655.713 818.43,-666.307 824.959,-657.963 818.331,-655.713"/>
</g>
<!-- ssRNA -->
<g id="node38" class="node"><title>ssRNA</title>
<ellipse fill="none" stroke="black" cx="864" cy="-682.279" rx="18" ry="18"/>
<text text-anchor="middle" x="864" y="-681.079" font-family="Times,serif" font-size="4.00">ssRNA</text>
</g>
<!-- ssRNA&#45;&gt;pr_04447c6a&#45;9b21&#45;4639&#45;9086&#45;746c0ef4e118 -->
<g id="edge51" class="edge"><title>ssRNA&#45;&gt;pr_04447c6a&#45;9b21&#45;4639&#45;9086&#45;746c0ef4e118</title>
<path fill="none" stroke="black" d="M859.899,-664.418C857.572,-654.848 854.504,-642.234 851.373,-629.362"/>
<polygon fill="black" stroke="black" points="854.742,-628.404 848.978,-619.514 847.941,-630.058 854.742,-628.404"/>
</g>
<!-- MYD88 -->
<g id="node39" class="node"><title>MYD88</title>
<ellipse fill="none" stroke="black" cx="719" cy="-682.279" rx="18" ry="18"/>
<text text-anchor="middle" x="719" y="-681.079" font-family="Times,serif" font-size="4.00">MYD88</text>
</g>
<!-- MYD88&#45;&gt;pr_96e12ec6&#45;c69d&#45;4170&#45;8f47&#45;c86c16ed41c6 -->
<g id="edge52" class="edge"><title>MYD88&#45;&gt;pr_96e12ec6&#45;c69d&#45;4170&#45;8f47&#45;c86c16ed41c6</title>
<path fill="none" stroke="black" d="M714.045,-664.898C712.961,-655.38 712.368,-642.738 712.266,-629.803"/>
<polygon fill="black" stroke="black" points="715.767,-629.429 712.289,-619.421 708.767,-629.413 715.767,-629.429"/>
</g>
<!-- MYD88&#45;&gt;pr_b0db31c2&#45;6e78&#45;4840&#45;84b3&#45;c42148d10e03 -->
<g id="edge53" class="edge"><title>MYD88&#45;&gt;pr_b0db31c2&#45;6e78&#45;4840&#45;84b3&#45;c42148d10e03</title>
<path fill="none" stroke="black" d="M706.265,-669.399C694.566,-658.484 676.35,-641.49 658.283,-624.636"/>
<polygon fill="black" stroke="black" points="660.269,-621.702 650.569,-617.439 655.494,-626.82 660.269,-621.702"/>
</g>
<!-- pr_96e12ec6&#45;c69d&#45;4170&#45;8f47&#45;c86c16ed41c6&#45;&gt;MYD88 -->
<g id="edge54" class="edge"><title>pr_96e12ec6&#45;c69d&#45;4170&#45;8f47&#45;c86c16ed41c6&#45;&gt;MYD88</title>
<path fill="none" stroke="black" d="M725.711,-619.421C725.862,-631.545 725.578,-644.078 724.861,-654.667"/>
<polygon fill="black" stroke="black" points="721.35,-654.629 723.955,-664.898 728.323,-655.246 721.35,-654.629"/>
</g>
<!-- pr_b0db31c2&#45;6e78&#45;4840&#45;84b3&#45;c42148d10e03&#45;&gt;TRAF6 -->
<g id="edge55" class="edge"><title>pr_b0db31c2&#45;6e78&#45;4840&#45;84b3&#45;c42148d10e03&#45;&gt;TRAF6</title>
<path fill="none" stroke="black" d="M582.191,-619.764C575.569,-633.456 568.149,-647.641 561.609,-658.934"/>
<polygon fill="black" stroke="black" points="558.512,-657.293 556.358,-667.666 564.511,-660.9 558.512,-657.293"/>
</g>
<!-- TRIM23 -->
<g id="node42" class="node"><title>TRIM23</title>
<ellipse fill="none" stroke="black" cx="600" cy="-682.279" rx="18" ry="18"/>
<text text-anchor="middle" x="600" y="-681.079" font-family="Times,serif" font-size="4.00">TRIM23</text>
</g>
<!-- TRIM23&#45;&gt;pr_b0db31c2&#45;6e78&#45;4840&#45;84b3&#45;c42148d10e03 -->
<g id="edge56" class="edge"><title>TRIM23&#45;&gt;pr_b0db31c2&#45;6e78&#45;4840&#45;84b3&#45;c42148d10e03</title>
<path fill="none" stroke="black" d="M600,-663.933C600,-654.69 600,-642.711 600,-630.426"/>
<polygon fill="black" stroke="black" points="603.5,-630.088 600,-620.088 596.5,-630.088 603.5,-630.088"/>
</g>
<!-- TAB2/TAB3/TAK1 -->
<g id="node43" class="node"><title>TAB2/TAB3/TAK1</title>
<ellipse fill="none" stroke="black" cx="481" cy="-451.473" rx="27.0938" ry="27.0938"/>
<text text-anchor="middle" x="481" y="-450.273" font-family="Times,serif" font-size="4.00">TAB2/TAB3/TAK1</text>
</g>
<!-- TAB2/TAB3/TAK1&#45;&gt;pr_1417cd23&#45;a0a6&#45;4b0e&#45;a06f&#45;a518890868db -->
<g id="edge57" class="edge"><title>TAB2/TAB3/TAK1&#45;&gt;pr_1417cd23&#45;a0a6&#45;4b0e&#45;a06f&#45;a518890868db</title>
<path fill="none" stroke="black" d="M486.706,-477.976C487.376,-487.246 487.724,-498.151 487.749,-509.116"/>
<polygon fill="black" stroke="black" points="484.248,-509.134 487.68,-519.158 491.248,-509.182 484.248,-509.134"/>
</g>
<!-- TAB2/TAB3/TAK1&#45;&gt;pr_b4bac287&#45;bd62&#45;416b&#45;8d66&#45;1959a11b1822 -->
<g id="edge58" class="edge"><title>TAB2/TAB3/TAK1&#45;&gt;pr_b4bac287&#45;bd62&#45;416b&#45;8d66&#45;1959a11b1822</title>
<path fill="none" stroke="black" d="M501.493,-433.172C506.798,-428.84 512.552,-424.265 518,-420.184 539.084,-404.389 562.812,-387.861 583.884,-373.593"/>
<polygon fill="black" stroke="black" points="586.094,-376.324 592.429,-367.832 582.181,-370.52 586.094,-376.324"/>
</g>
<!-- TAB2/TAB3/TAK1&#45;&gt;pr_1a2c3418&#45;c6c2&#45;4443&#45;9ace&#45;cecc91bfba15 -->
<g id="edge59" class="edge"><title>TAB2/TAB3/TAK1&#45;&gt;pr_1a2c3418&#45;c6c2&#45;4443&#45;9ace&#45;cecc91bfba15</title>
<path fill="none" stroke="black" d="M481,-424.199C481,-415.198 481,-404.727 481,-394.185"/>
<polygon fill="black" stroke="black" points="484.5,-394.101 481,-384.101 477.5,-394.101 484.5,-394.101"/>
</g>
<!-- pr_1417cd23&#45;a0a6&#45;4b0e&#45;a06f&#45;a518890868db&#45;&gt;TAB2/TAB3/TAK1 -->
<g id="edge60" class="edge"><title>pr_1417cd23&#45;a0a6&#45;4b0e&#45;a06f&#45;a518890868db&#45;&gt;TAB2/TAB3/TAK1</title>
<path fill="none" stroke="black" d="M474.32,-519.158C474.154,-508.747 474.285,-497.947 474.713,-488.149"/>
<polygon fill="black" stroke="black" points="478.218,-488.159 475.294,-477.976 471.229,-487.76 478.218,-488.159"/>
</g>
<!-- TRIM30a/TRIM38 -->
<g id="node45" class="node"><title>TRIM30a/TRIM38</title>
<ellipse fill="none" stroke="black" cx="481" cy="-682.279" rx="26.533" ry="26.533"/>
<text text-anchor="middle" x="481" y="-681.079" font-family="Times,serif" font-size="4.00">TRIM30a/TRIM38</text>
</g>
<!-- TRIM30a/TRIM38&#45;&gt;pr_1417cd23&#45;a0a6&#45;4b0e&#45;a06f&#45;a518890868db -->
<g id="edge61" class="edge"><title>TRIM30a/TRIM38&#45;&gt;pr_1417cd23&#45;a0a6&#45;4b0e&#45;a06f&#45;a518890868db</title>
<path fill="none" stroke="black" d="M481,-655.531C481,-647.712 481,-638.775 481,-629.698"/>
<polygon fill="black" stroke="black" points="484.5,-629.441 481,-619.441 477.5,-629.441 484.5,-629.441"/>
</g>
<!-- TRIM22 -->
<g id="node47" class="node"><title>TRIM22</title>
<ellipse fill="none" stroke="black" cx="735" cy="-451.473" rx="18" ry="18"/>
<text text-anchor="middle" x="735" y="-450.273" font-family="Times,serif" font-size="4.00">TRIM22</text>
</g>
<!-- TRIM22&#45;&gt;pr_b4bac287&#45;bd62&#45;416b&#45;8d66&#45;1959a11b1822 -->
<g id="edge62" class="edge"><title>TRIM22&#45;&gt;pr_b4bac287&#45;bd62&#45;416b&#45;8d66&#45;1959a11b1822</title>
<path fill="none" stroke="black" d="M724.085,-436.736C715.209,-425.565 702.042,-408.993 688.887,-392.436"/>
<polygon fill="black" stroke="black" points="691.41,-389.986 682.449,-384.334 685.93,-394.34 691.41,-389.986"/>
</g>
<!-- TRIM27/TRIM21 -->
<g id="node48" class="node"><title>TRIM27/TRIM21</title>
<ellipse fill="none" stroke="black" cx="552" cy="-451.473" rx="25.4118" ry="25.4118"/>
<text text-anchor="middle" x="552" y="-450.273" font-family="Times,serif" font-size="4.00">TRIM27/TRIM21</text>
</g>
<!-- TRIM27/TRIM21&#45;&gt;pr_b4bac287&#45;bd62&#45;416b&#45;8d66&#45;1959a11b1822 -->
<g id="edge63" class="edge"><title>TRIM27/TRIM21&#45;&gt;pr_b4bac287&#45;bd62&#45;416b&#45;8d66&#45;1959a11b1822</title>
<path fill="none" stroke="black" d="M567.437,-430.831C575.83,-420.152 586.693,-406.329 597.553,-392.512"/>
<polygon fill="black" stroke="black" points="600.5,-394.426 603.927,-384.4 594.996,-390.1 600.5,-394.426"/>
</g>
<!-- TRIM29 -->
<g id="node49" class="node"><title>TRIM29</title>
<ellipse fill="none" stroke="black" cx="613" cy="-451.473" rx="18" ry="18"/>
<text text-anchor="middle" x="613" y="-450.273" font-family="Times,serif" font-size="4.00">TRIM29</text>
</g>
<!-- TRIM29&#45;&gt;pr_b4bac287&#45;bd62&#45;416b&#45;8d66&#45;1959a11b1822 -->
<g id="edge64" class="edge"><title>TRIM29&#45;&gt;pr_b4bac287&#45;bd62&#45;416b&#45;8d66&#45;1959a11b1822</title>
<path fill="none" stroke="black" d="M617.298,-433.883C620.036,-423.315 623.767,-408.916 627.537,-394.366"/>
<polygon fill="black" stroke="black" points="631.021,-394.872 630.141,-384.314 624.245,-393.116 631.021,-394.872"/>
</g>
<!-- TRIM14/TRIM23 -->
<g id="node50" class="node"><title>TRIM14/TRIM23</title>
<ellipse fill="none" stroke="black" cx="674" cy="-451.473" rx="25.4118" ry="25.4118"/>
<text text-anchor="middle" x="674" y="-450.273" font-family="Times,serif" font-size="4.00">TRIM14/TRIM23</text>
</g>
<!-- TRIM14/TRIM23&#45;&gt;pr_b4bac287&#45;bd62&#45;416b&#45;8d66&#45;1959a11b1822 -->
<g id="edge65" class="edge"><title>TRIM14/TRIM23&#45;&gt;pr_b4bac287&#45;bd62&#45;416b&#45;8d66&#45;1959a11b1822</title>
<path fill="none" stroke="black" d="M667.652,-426.762C665.131,-417.346 662.107,-406.051 659.054,-394.648"/>
<polygon fill="black" stroke="black" points="662.343,-393.399 656.376,-384.645 655.581,-395.21 662.343,-393.399"/>
</g>
<!-- pr_1a2c3418&#45;c6c2&#45;4443&#45;9ace&#45;cecc91bfba15&#45;&gt;SERPINF2 -->
<g id="edge66" class="edge"><title>pr_1a2c3418&#45;c6c2&#45;4443&#45;9ace&#45;cecc91bfba15&#45;&gt;SERPINF2</title>
<path fill="none" stroke="black" d="M474.258,-283.618C474.202,-274.455 474.429,-265.178 474.937,-256.937"/>
<polygon fill="black" stroke="black" points="478.44,-257.051 475.769,-246.799 471.463,-256.479 478.44,-257.051"/>
</g>
<!-- pr_343d29f5&#45;01c8&#45;4fbf&#45;9fa2&#45;9a97eb4b4620&#45;&gt;TRAF3 -->
<g id="edge67" class="edge"><title>pr_343d29f5&#45;01c8&#45;4fbf&#45;9fa2&#45;9a97eb4b4620&#45;&gt;TRAF3</title>
<path fill="none" stroke="black" d="M484.728,-1070.46C484.83,-1080.94 484.572,-1091.67 483.954,-1100.95"/>
<polygon fill="black" stroke="black" points="480.453,-1100.81 483.062,-1111.08 487.426,-1101.42 480.453,-1100.81"/>
</g>
<!-- NFKB1 -->
<g id="node54" class="node"><title>NFKB1</title>
<ellipse fill="none" stroke="black" cx="831" cy="-18" rx="18" ry="18"/>
<text text-anchor="middle" x="831" y="-16.8" font-family="Times,serif" font-size="4.00">NFKB1</text>
</g>
<!-- pr_02959e66&#45;ed7c&#45;4c6e&#45;a74a&#45;461405be0780&#45;&gt;NFKB1 -->
<g id="edge68" class="edge"><title>pr_02959e66&#45;ed7c&#45;4c6e&#45;a74a&#45;461405be0780&#45;&gt;NFKB1</title>
<path fill="none" stroke="black" d="M831,-71.7513C831,-62.9143 831,-54.0178 831,-46.1139"/>
<polygon fill="black" stroke="black" points="834.5,-46.0498 831,-36.0499 827.5,-46.0499 834.5,-46.0498"/>
</g>
</g>
</svg>
