<?xml version="1.0" encoding="UTF-8" standalone="no"?>
<!DOCTYPE svg PUBLIC "-//W3C//DTD SVG 1.1//EN"
 "http://www.w3.org/Graphics/SVG/1.1/DTD/svg11.dtd">
<!-- Generated by graphviz version 2.38.0 (20140413.2041)
 -->
<!-- Title: G Pages: 1 -->
<svg width="932pt" height="265pt"
 viewBox="0.00 0.00 932.00 264.73" xmlns="http://www.w3.org/2000/svg" xmlns:xlink="http://www.w3.org/1999/xlink">
<g id="graph0" class="graph" transform="scale(1 1) rotate(0) translate(4 260.73)">
<title>G</title>
<polygon fill="white" stroke="none" points="-4,4 -4,-260.73 928,-260.73 928,4 -4,4"/>
<!-- IFNB1 -->
<g id="node1" class="node"><title>IFNB1</title>
<ellipse fill="none" stroke="black" cx="108" cy="-238.73" rx="18" ry="18"/>
<text text-anchor="middle" x="108" y="-237.53" font-family="Times,serif" font-size="4.00">IFNB1</text>
</g>
<!-- pr_618a6e4a&#45;9b97&#45;4cc6&#45;8b9c&#45;a27d042399e7 -->
<g id="node2" class="node"><title>pr_618a6e4a&#45;9b97&#45;4cc6&#45;8b9c&#45;a27d042399e7</title>
<polygon fill="none" stroke="black" points="217.5,-184.73 116.5,-184.73 116.5,-83.7297 217.5,-83.7297 217.5,-184.73"/>
<text text-anchor="middle" x="167" y="-133.03" font-family="Times,serif" font-size="4.00">pr_618a6e4a&#45;9b97&#45;4cc6&#45;8b9c&#45;a27d042399e7</text>
</g>
<!-- IFNB1&#45;&gt;pr_618a6e4a&#45;9b97&#45;4cc6&#45;8b9c&#45;a27d042399e7 -->
<g id="edge1" class="edge"><title>IFNB1&#45;&gt;pr_618a6e4a&#45;9b97&#45;4cc6&#45;8b9c&#45;a27d042399e7</title>
<path fill="none" stroke="black" d="M112.365,-221.261C115.92,-213.558 120.972,-203.869 126.6,-193.796"/>
<polygon fill="black" stroke="black" points="129.767,-195.307 131.671,-184.885 123.683,-191.845 129.767,-195.307"/>
</g>
<!-- pr_1b1f05d6&#45;f8c9&#45;4ab3&#45;949f&#45;6d63ac80fc92 -->
<g id="node4" class="node"><title>pr_1b1f05d6&#45;f8c9&#45;4ab3&#45;949f&#45;6d63ac80fc92</title>
<polygon fill="none" stroke="black" points="98,-183.23 7.10543e-15,-183.23 7.10543e-15,-85.2297 98,-85.2297 98,-183.23"/>
<text text-anchor="middle" x="49" y="-133.03" font-family="Times,serif" font-size="4.00">pr_1b1f05d6&#45;f8c9&#45;4ab3&#45;949f&#45;6d63ac80fc92</text>
</g>
<!-- IFNB1&#45;&gt;pr_1b1f05d6&#45;f8c9&#45;4ab3&#45;949f&#45;6d63ac80fc92 -->
<g id="edge2" class="edge"><title>IFNB1&#45;&gt;pr_1b1f05d6&#45;f8c9&#45;4ab3&#45;949f&#45;6d63ac80fc92</title>
<path fill="none" stroke="black" d="M96.1512,-225.161C89.9582,-216.561 82.3077,-204.487 74.9452,-191.971"/>
<polygon fill="black" stroke="black" points="77.9512,-190.177 69.9155,-183.272 71.8913,-193.681 77.9512,-190.177"/>
</g>
<!-- pr_618a6e4a&#45;9b97&#45;4cc6&#45;8b9c&#45;a27d042399e7&#45;&gt;IFNB1 -->
<g id="edge3" class="edge"><title>pr_618a6e4a&#45;9b97&#45;4cc6&#45;8b9c&#45;a27d042399e7&#45;&gt;IFNB1</title>
<path fill="none" stroke="black" d="M145.015,-185.147C138.636,-196.288 131.784,-207.512 125.671,-216.713"/>
<polygon fill="black" stroke="black" points="122.641,-214.941 119.849,-225.161 128.405,-218.913 122.641,-214.941"/>
</g>
<!-- Orf3b -->
<g id="node3" class="node"><title>Orf3b</title>
<ellipse fill="none" stroke="black" cx="285" cy="-238.73" rx="18" ry="18"/>
<text text-anchor="middle" x="285" y="-237.53" font-family="Times,serif" font-size="4.00">Orf3b</text>
</g>
<!-- Orf3b&#45;&gt;pr_618a6e4a&#45;9b97&#45;4cc6&#45;8b9c&#45;a27d042399e7 -->
<g id="edge4" class="edge"><title>Orf3b&#45;&gt;pr_618a6e4a&#45;9b97&#45;4cc6&#45;8b9c&#45;a27d042399e7</title>
<path fill="none" stroke="black" d="M271.464,-225.972C260.02,-216.031 242.785,-201.06 225.596,-186.128"/>
<polygon fill="black" stroke="black" points="227.567,-183.205 217.722,-179.289 222.976,-188.489 227.567,-183.205"/>
</g>
<!-- pr_b1e552f1&#45;ac6f&#45;4564&#45;8ff0&#45;17eea284aa5e -->
<g id="node9" class="node"><title>pr_b1e552f1&#45;ac6f&#45;4564&#45;8ff0&#45;17eea284aa5e</title>
<polygon fill="none" stroke="black" points="334,-183.23 236,-183.23 236,-85.2297 334,-85.2297 334,-183.23"/>
<text text-anchor="middle" x="285" y="-133.03" font-family="Times,serif" font-size="4.00">pr_b1e552f1&#45;ac6f&#45;4564&#45;8ff0&#45;17eea284aa5e</text>
</g>
<!-- Orf3b&#45;&gt;pr_b1e552f1&#45;ac6f&#45;4564&#45;8ff0&#45;17eea284aa5e -->
<g id="edge5" class="edge"><title>Orf3b&#45;&gt;pr_b1e552f1&#45;ac6f&#45;4564&#45;8ff0&#45;17eea284aa5e</title>
<path fill="none" stroke="black" d="M285,-220.342C285,-212.796 285,-203.478 285,-193.804"/>
<polygon fill="black" stroke="black" points="288.5,-193.654 285,-183.654 281.5,-193.654 288.5,-193.654"/>
</g>
<!-- pr_84bff6ad&#45;3825&#45;4c0b&#45;ade8&#45;9451099c2289 -->
<g id="node17" class="node"><title>pr_84bff6ad&#45;3825&#45;4c0b&#45;ade8&#45;9451099c2289</title>
<polygon fill="none" stroke="black" points="451.5,-183.73 352.5,-183.73 352.5,-84.7297 451.5,-84.7297 451.5,-183.73"/>
<text text-anchor="middle" x="402" y="-133.03" font-family="Times,serif" font-size="4.00">pr_84bff6ad&#45;3825&#45;4c0b&#45;ade8&#45;9451099c2289</text>
</g>
<!-- Orf3b&#45;&gt;pr_84bff6ad&#45;3825&#45;4c0b&#45;ade8&#45;9451099c2289 -->
<g id="edge6" class="edge"><title>Orf3b&#45;&gt;pr_84bff6ad&#45;3825&#45;4c0b&#45;ade8&#45;9451099c2289</title>
<path fill="none" stroke="black" d="M298.421,-225.972C309.873,-215.939 327.172,-200.785 344.37,-185.717"/>
<polygon fill="black" stroke="black" points="347.028,-188.042 352.244,-178.82 342.415,-182.777 347.028,-188.042"/>
</g>
<!-- pr_1b1f05d6&#45;f8c9&#45;4ab3&#45;949f&#45;6d63ac80fc92&#45;&gt;IFNB1 -->
<g id="edge7" class="edge"><title>pr_1b1f05d6&#45;f8c9&#45;4ab3&#45;949f&#45;6d63ac80fc92&#45;&gt;IFNB1</title>
<path fill="none" stroke="black" d="M83.5489,-183.542C89.2914,-193.403 94.7834,-203.409 99.1808,-212.095"/>
<polygon fill="black" stroke="black" points="96.1166,-213.797 103.635,-221.261 102.412,-210.737 96.1166,-213.797"/>
</g>
<!-- STOML2 -->
<g id="node5" class="node"><title>STOML2</title>
<ellipse fill="none" stroke="black" cx="519" cy="-238.73" rx="18" ry="18"/>
<text text-anchor="middle" x="519" y="-237.53" font-family="Times,serif" font-size="4.00">STOML2</text>
</g>
<!-- pr_c9501728&#45;a42a&#45;403b&#45;bd0f&#45;4a99b46d1ed1 -->
<g id="node6" class="node"><title>pr_c9501728&#45;a42a&#45;403b&#45;bd0f&#45;4a99b46d1ed1</title>
<polygon fill="none" stroke="black" points="686,-184.23 586,-184.23 586,-84.2297 686,-84.2297 686,-184.23"/>
<text text-anchor="middle" x="636" y="-133.03" font-family="Times,serif" font-size="4.00">pr_c9501728&#45;a42a&#45;403b&#45;bd0f&#45;4a99b46d1ed1</text>
</g>
<!-- STOML2&#45;&gt;pr_c9501728&#45;a42a&#45;403b&#45;bd0f&#45;4a99b46d1ed1 -->
<g id="edge8" class="edge"><title>STOML2&#45;&gt;pr_c9501728&#45;a42a&#45;403b&#45;bd0f&#45;4a99b46d1ed1</title>
<path fill="none" stroke="black" d="M532.421,-225.972C543.821,-215.985 561.014,-200.922 578.136,-185.923"/>
<polygon fill="black" stroke="black" points="580.76,-188.277 585.976,-179.054 576.148,-183.011 580.76,-188.277"/>
</g>
<!-- STOML2&#45;&gt;pr_b1e552f1&#45;ac6f&#45;4564&#45;8ff0&#45;17eea284aa5e -->
<g id="edge9" class="edge"><title>STOML2&#45;&gt;pr_b1e552f1&#45;ac6f&#45;4564&#45;8ff0&#45;17eea284aa5e</title>
<path fill="none" stroke="black" d="M501.328,-234.906C468.516,-229.137 396.643,-214 343,-184.73 342.906,-184.678 342.811,-184.626 342.717,-184.575"/>
<polygon fill="black" stroke="black" points="344.378,-181.489 334.01,-179.309 340.756,-187.479 344.378,-181.489"/>
</g>
<!-- pr_0517e491&#45;04e9&#45;40be&#45;a812&#45;1aa06233b98b -->
<g id="node11" class="node"><title>pr_0517e491&#45;04e9&#45;40be&#45;a812&#45;1aa06233b98b</title>
<polygon fill="none" stroke="black" points="805.5,-184.73 704.5,-184.73 704.5,-83.7297 805.5,-83.7297 805.5,-184.73"/>
<text text-anchor="middle" x="755" y="-133.03" font-family="Times,serif" font-size="4.00">pr_0517e491&#45;04e9&#45;40be&#45;a812&#45;1aa06233b98b</text>
</g>
<!-- STOML2&#45;&gt;pr_0517e491&#45;04e9&#45;40be&#45;a812&#45;1aa06233b98b -->
<g id="edge10" class="edge"><title>STOML2&#45;&gt;pr_0517e491&#45;04e9&#45;40be&#45;a812&#45;1aa06233b98b</title>
<path fill="none" stroke="black" d="M536.626,-234.821C569.362,-228.911 641.114,-213.551 695,-184.73 695.194,-184.626 695.387,-184.522 695.58,-184.417"/>
<polygon fill="black" stroke="black" points="697.41,-187.401 704.228,-179.292 693.841,-181.38 697.41,-187.401"/>
</g>
<!-- STOML2&#45;&gt;pr_84bff6ad&#45;3825&#45;4c0b&#45;ade8&#45;9451099c2289 -->
<g id="edge11" class="edge"><title>STOML2&#45;&gt;pr_84bff6ad&#45;3825&#45;4c0b&#45;ade8&#45;9451099c2289</title>
<path fill="none" stroke="black" d="M505.579,-225.972C494.127,-215.939 476.828,-200.785 459.63,-185.717"/>
<polygon fill="black" stroke="black" points="461.585,-182.777 451.756,-178.82 456.972,-188.042 461.585,-182.777"/>
</g>
<!-- pr_c00c5929&#45;276f&#45;460a&#45;96ad&#45;ffc414571bf6 -->
<g id="node18" class="node"><title>pr_c00c5929&#45;276f&#45;460a&#45;96ad&#45;ffc414571bf6</title>
<polygon fill="none" stroke="black" points="568,-183.23 470,-183.23 470,-85.2297 568,-85.2297 568,-183.23"/>
<text text-anchor="middle" x="519" y="-133.03" font-family="Times,serif" font-size="4.00">pr_c00c5929&#45;276f&#45;460a&#45;96ad&#45;ffc414571bf6</text>
</g>
<!-- STOML2&#45;&gt;pr_c00c5929&#45;276f&#45;460a&#45;96ad&#45;ffc414571bf6 -->
<g id="edge12" class="edge"><title>STOML2&#45;&gt;pr_c00c5929&#45;276f&#45;460a&#45;96ad&#45;ffc414571bf6</title>
<path fill="none" stroke="black" d="M519,-220.342C519,-212.796 519,-203.478 519,-193.804"/>
<polygon fill="black" stroke="black" points="522.5,-193.654 519,-183.654 515.5,-193.654 522.5,-193.654"/>
</g>
<!-- MFN2&#45;STOML2 -->
<g id="node8" class="node"><title>MFN2&#45;STOML2</title>
<ellipse fill="none" stroke="black" cx="636" cy="-23.8649" rx="23.7305" ry="23.7305"/>
<text text-anchor="middle" x="636" y="-22.6649" font-family="Times,serif" font-size="4.00">MFN2&#45;STOML2</text>
</g>
<!-- pr_c9501728&#45;a42a&#45;403b&#45;bd0f&#45;4a99b46d1ed1&#45;&gt;MFN2&#45;STOML2 -->
<g id="edge13" class="edge"><title>pr_c9501728&#45;a42a&#45;403b&#45;bd0f&#45;4a99b46d1ed1&#45;&gt;MFN2&#45;STOML2</title>
<path fill="none" stroke="black" d="M636,-84.1203C636,-75.2215 636,-66.1387 636,-57.8431"/>
<polygon fill="black" stroke="black" points="639.5,-57.8297 636,-47.8297 632.5,-57.8297 639.5,-57.8297"/>
</g>
<!-- MFN2 -->
<g id="node7" class="node"><title>MFN2</title>
<ellipse fill="none" stroke="black" cx="636" cy="-238.73" rx="18" ry="18"/>
<text text-anchor="middle" x="636" y="-237.53" font-family="Times,serif" font-size="4.00">MFN2</text>
</g>
<!-- MFN2&#45;&gt;pr_c9501728&#45;a42a&#45;403b&#45;bd0f&#45;4a99b46d1ed1 -->
<g id="edge14" class="edge"><title>MFN2&#45;&gt;pr_c9501728&#45;a42a&#45;403b&#45;bd0f&#45;4a99b46d1ed1</title>
<path fill="none" stroke="black" d="M636,-220.342C636,-213.044 636,-204.087 636,-194.754"/>
<polygon fill="black" stroke="black" points="639.5,-194.54 636,-184.54 632.5,-194.54 639.5,-194.54"/>
</g>
<!-- Orf3b&#45;STOML2 -->
<g id="node10" class="node"><title>Orf3b&#45;STOML2</title>
<ellipse fill="none" stroke="black" cx="343" cy="-23.8649" rx="23.1702" ry="23.1702"/>
<text text-anchor="middle" x="343" y="-22.6649" font-family="Times,serif" font-size="4.00">Orf3b&#45;STOML2</text>
</g>
<!-- pr_b1e552f1&#45;ac6f&#45;4564&#45;8ff0&#45;17eea284aa5e&#45;&gt;Orf3b&#45;STOML2 -->
<g id="edge15" class="edge"><title>pr_b1e552f1&#45;ac6f&#45;4564&#45;8ff0&#45;17eea284aa5e&#45;&gt;Orf3b&#45;STOML2</title>
<path fill="none" stroke="black" d="M310.777,-85.0682C316.45,-74.4695 322.289,-63.5596 327.413,-53.9879"/>
<polygon fill="black" stroke="black" points="330.631,-55.3915 332.264,-44.9233 324.459,-52.0882 330.631,-55.3915"/>
</g>
<!-- STOML2&#45;PHB -->
<g id="node13" class="node"><title>STOML2&#45;PHB</title>
<ellipse fill="none" stroke="black" cx="755" cy="-23.8649" rx="22.05" ry="22.05"/>
<text text-anchor="middle" x="755" y="-22.6649" font-family="Times,serif" font-size="4.00">STOML2&#45;PHB</text>
</g>
<!-- pr_0517e491&#45;04e9&#45;40be&#45;a812&#45;1aa06233b98b&#45;&gt;STOML2&#45;PHB -->
<g id="edge16" class="edge"><title>pr_0517e491&#45;04e9&#45;40be&#45;a812&#45;1aa06233b98b&#45;&gt;STOML2&#45;PHB</title>
<path fill="none" stroke="black" d="M755,-83.4875C755,-74.2549 755,-64.8491 755,-56.3522"/>
<polygon fill="black" stroke="black" points="758.5,-56.157 755,-46.1571 751.5,-56.1571 758.5,-56.157"/>
</g>
<!-- PHB -->
<g id="node12" class="node"><title>PHB</title>
<ellipse fill="none" stroke="black" cx="787" cy="-238.73" rx="18" ry="18"/>
<text text-anchor="middle" x="787" y="-237.53" font-family="Times,serif" font-size="4.00">PHB</text>
</g>
<!-- PHB&#45;&gt;pr_0517e491&#45;04e9&#45;40be&#45;a812&#45;1aa06233b98b -->
<g id="edge17" class="edge"><title>PHB&#45;&gt;pr_0517e491&#45;04e9&#45;40be&#45;a812&#45;1aa06233b98b</title>
<path fill="none" stroke="black" d="M781.859,-221.261C779.527,-213.791 776.612,-204.455 773.57,-194.711"/>
<polygon fill="black" stroke="black" points="776.823,-193.387 770.502,-184.885 770.141,-195.473 776.823,-193.387"/>
</g>
<!-- pr_38a9b834&#45;539a&#45;4d18&#45;8c23&#45;d8104bdae3fe -->
<g id="node14" class="node"><title>pr_38a9b834&#45;539a&#45;4d18&#45;8c23&#45;d8104bdae3fe</title>
<polygon fill="none" stroke="black" points="924,-184.23 824,-184.23 824,-84.2297 924,-84.2297 924,-184.23"/>
<text text-anchor="middle" x="874" y="-133.03" font-family="Times,serif" font-size="4.00">pr_38a9b834&#45;539a&#45;4d18&#45;8c23&#45;d8104bdae3fe</text>
</g>
<!-- PHB&#45;&gt;pr_38a9b834&#45;539a&#45;4d18&#45;8c23&#45;d8104bdae3fe -->
<g id="edge18" class="edge"><title>PHB&#45;&gt;pr_38a9b834&#45;539a&#45;4d18&#45;8c23&#45;d8104bdae3fe</title>
<path fill="none" stroke="black" d="M798.374,-224.33C805.553,-215.872 815.369,-204.307 825.551,-192.31"/>
<polygon fill="black" stroke="black" points="828.469,-194.281 832.272,-184.392 823.132,-189.751 828.469,-194.281"/>
</g>
<!-- PHB&#45;RAF1 -->
<g id="node16" class="node"><title>PHB&#45;RAF1</title>
<ellipse fill="none" stroke="black" cx="874" cy="-23.8649" rx="19.7452" ry="19.7452"/>
<text text-anchor="middle" x="874" y="-22.6649" font-family="Times,serif" font-size="4.00">PHB&#45;RAF1</text>
</g>
<!-- pr_38a9b834&#45;539a&#45;4d18&#45;8c23&#45;d8104bdae3fe&#45;&gt;PHB&#45;RAF1 -->
<g id="edge19" class="edge"><title>pr_38a9b834&#45;539a&#45;4d18&#45;8c23&#45;d8104bdae3fe&#45;&gt;PHB&#45;RAF1</title>
<path fill="none" stroke="black" d="M874,-84.1203C874,-73.8163 874,-63.2654 874,-53.9759"/>
<polygon fill="black" stroke="black" points="877.5,-53.7405 874,-43.7406 870.5,-53.7406 877.5,-53.7405"/>
</g>
<!-- RAF1 -->
<g id="node15" class="node"><title>RAF1</title>
<ellipse fill="none" stroke="black" cx="874" cy="-238.73" rx="18" ry="18"/>
<text text-anchor="middle" x="874" y="-237.53" font-family="Times,serif" font-size="4.00">RAF1</text>
</g>
<!-- RAF1&#45;&gt;pr_38a9b834&#45;539a&#45;4d18&#45;8c23&#45;d8104bdae3fe -->
<g id="edge20" class="edge"><title>RAF1&#45;&gt;pr_38a9b834&#45;539a&#45;4d18&#45;8c23&#45;d8104bdae3fe</title>
<path fill="none" stroke="black" d="M874,-220.342C874,-213.044 874,-204.087 874,-194.754"/>
<polygon fill="black" stroke="black" points="877.5,-194.54 874,-184.54 870.5,-194.54 877.5,-194.54"/>
</g>
<!-- pr_84bff6ad&#45;3825&#45;4c0b&#45;ade8&#45;9451099c2289&#45;&gt;Orf3b&#45;STOML2 -->
<g id="edge21" class="edge"><title>pr_84bff6ad&#45;3825&#45;4c0b&#45;ade8&#45;9451099c2289&#45;&gt;Orf3b&#45;STOML2</title>
<path fill="none" stroke="black" d="M375.434,-84.4364C369.699,-73.9032 363.815,-63.0955 358.66,-53.6271"/>
<polygon fill="black" stroke="black" points="361.636,-51.7738 353.78,-44.6648 355.488,-55.1211 361.636,-51.7738"/>
</g>
<!-- TCR complex -->
<g id="node19" class="node"><title>TCR complex</title>
<ellipse fill="none" stroke="black" cx="519" cy="-23.8649" rx="22.6101" ry="22.6101"/>
<text text-anchor="middle" x="519" y="-22.6649" font-family="Times,serif" font-size="4.00">TCR complex</text>
</g>
<!-- pr_c00c5929&#45;276f&#45;460a&#45;96ad&#45;ffc414571bf6&#45;&gt;TCR complex -->
<g id="edge22" class="edge"><title>pr_c00c5929&#45;276f&#45;460a&#45;96ad&#45;ffc414571bf6&#45;&gt;TCR complex</title>
<path fill="none" stroke="black" d="M512.287,-85.0682C512.165,-75.2361 512.343,-65.1363 512.82,-56.0853"/>
<polygon fill="black" stroke="black" points="516.318,-56.2392 513.519,-46.021 509.335,-55.7548 516.318,-56.2392"/>
</g>
<!-- TCR complex&#45;&gt;pr_c00c5929&#45;276f&#45;460a&#45;96ad&#45;ffc414571bf6 -->
<g id="edge23" class="edge"><title>TCR complex&#45;&gt;pr_c00c5929&#45;276f&#45;460a&#45;96ad&#45;ffc414571bf6</title>
<path fill="none" stroke="black" d="M524.481,-46.021C525.224,-54.3985 525.641,-64.4792 525.731,-74.7669"/>
<polygon fill="black" stroke="black" points="522.231,-75.062 525.713,-85.0682 529.231,-75.0745 522.231,-75.062"/>
</g>
</g>
</svg>
