<?xml version="1.0" encoding="UTF-8" standalone="no"?>
<!DOCTYPE svg PUBLIC "-//W3C//DTD SVG 1.1//EN"
 "http://www.w3.org/Graphics/SVG/1.1/DTD/svg11.dtd">
<!-- Generated by graphviz version 2.38.0 (20140413.2041)
 -->
<!-- Title: G Pages: 1 -->
<svg width="930pt" height="265pt"
 viewBox="0.00 0.00 930.00 264.73" xmlns="http://www.w3.org/2000/svg" xmlns:xlink="http://www.w3.org/1999/xlink">
<g id="graph0" class="graph" transform="scale(1 1) rotate(0) translate(4 260.73)">
<title>G</title>
<polygon fill="white" stroke="none" points="-4,4 -4,-260.73 926,-260.73 926,4 -4,4"/>
<!-- IFNB1 -->
<g id="node1" class="node"><title>IFNB1</title>
<ellipse fill="none" stroke="black" cx="107" cy="-238.73" rx="18" ry="18"/>
<text text-anchor="middle" x="107" y="-237.53" font-family="Times,serif" font-size="4.00">IFNB1</text>
</g>
<!-- pr_af5d0ee2&#45;593c&#45;402f&#45;9dd1&#45;e5343f0005ba -->
<g id="node2" class="node"><title>pr_af5d0ee2&#45;593c&#45;402f&#45;9dd1&#45;e5343f0005ba</title>
<polygon fill="none" stroke="black" points="214,-183.23 116,-183.23 116,-85.2297 214,-85.2297 214,-183.23"/>
<text text-anchor="middle" x="165" y="-133.03" font-family="Times,serif" font-size="4.00">pr_af5d0ee2&#45;593c&#45;402f&#45;9dd1&#45;e5343f0005ba</text>
</g>
<!-- IFNB1&#45;&gt;pr_af5d0ee2&#45;593c&#45;402f&#45;9dd1&#45;e5343f0005ba -->
<g id="edge1" class="edge"><title>IFNB1&#45;&gt;pr_af5d0ee2&#45;593c&#45;402f&#45;9dd1&#45;e5343f0005ba</title>
<path fill="none" stroke="black" d="M111.411,-220.804C115.047,-212.808 120.225,-202.749 125.961,-192.363"/>
<polygon fill="black" stroke="black" points="129.038,-194.032 130.889,-183.6 122.936,-190.601 129.038,-194.032"/>
</g>
<!-- pr_14746389&#45;6ff2&#45;4fae&#45;9811&#45;bcf0ec966a0e -->
<g id="node4" class="node"><title>pr_14746389&#45;6ff2&#45;4fae&#45;9811&#45;bcf0ec966a0e</title>
<polygon fill="none" stroke="black" points="98,-183.23 7.10543e-15,-183.23 7.10543e-15,-85.2297 98,-85.2297 98,-183.23"/>
<text text-anchor="middle" x="49" y="-133.03" font-family="Times,serif" font-size="4.00">pr_14746389&#45;6ff2&#45;4fae&#45;9811&#45;bcf0ec966a0e</text>
</g>
<!-- IFNB1&#45;&gt;pr_14746389&#45;6ff2&#45;4fae&#45;9811&#45;bcf0ec966a0e -->
<g id="edge2" class="edge"><title>IFNB1&#45;&gt;pr_14746389&#45;6ff2&#45;4fae&#45;9811&#45;bcf0ec966a0e</title>
<path fill="none" stroke="black" d="M94.9811,-224.748C88.978,-216.252 81.6463,-204.495 74.5786,-192.294"/>
<polygon fill="black" stroke="black" points="77.4891,-190.331 69.5017,-183.371 71.4049,-193.793 77.4891,-190.331"/>
</g>
<!-- pr_af5d0ee2&#45;593c&#45;402f&#45;9dd1&#45;e5343f0005ba&#45;&gt;IFNB1 -->
<g id="edge3" class="edge"><title>pr_af5d0ee2&#45;593c&#45;402f&#45;9dd1&#45;e5343f0005ba&#45;&gt;IFNB1</title>
<path fill="none" stroke="black" d="M144.498,-183.371C138.051,-194.909 131.027,-206.658 124.757,-216.267"/>
<polygon fill="black" stroke="black" points="121.724,-214.504 119.019,-224.748 127.522,-218.427 121.724,-214.504"/>
</g>
<!-- Orf3b -->
<g id="node3" class="node"><title>Orf3b</title>
<ellipse fill="none" stroke="black" cx="282" cy="-238.73" rx="18" ry="18"/>
<text text-anchor="middle" x="282" y="-237.53" font-family="Times,serif" font-size="4.00">Orf3b</text>
</g>
<!-- Orf3b&#45;&gt;pr_af5d0ee2&#45;593c&#45;402f&#45;9dd1&#45;e5343f0005ba -->
<g id="edge4" class="edge"><title>Orf3b&#45;&gt;pr_af5d0ee2&#45;593c&#45;402f&#45;9dd1&#45;e5343f0005ba</title>
<path fill="none" stroke="black" d="M268.579,-225.972C257.023,-215.848 239.513,-200.509 222.161,-185.307"/>
<polygon fill="black" stroke="black" points="224.049,-182.308 214.221,-178.351 219.437,-187.573 224.049,-182.308"/>
</g>
<!-- pr_f56bfb5b&#45;1ca8&#45;4cc1&#45;ae64&#45;8e3db201d57b -->
<g id="node9" class="node"><title>pr_f56bfb5b&#45;1ca8&#45;4cc1&#45;ae64&#45;8e3db201d57b</title>
<polygon fill="none" stroke="black" points="331.5,-183.73 232.5,-183.73 232.5,-84.7297 331.5,-84.7297 331.5,-183.73"/>
<text text-anchor="middle" x="282" y="-133.03" font-family="Times,serif" font-size="4.00">pr_f56bfb5b&#45;1ca8&#45;4cc1&#45;ae64&#45;8e3db201d57b</text>
</g>
<!-- Orf3b&#45;&gt;pr_f56bfb5b&#45;1ca8&#45;4cc1&#45;ae64&#45;8e3db201d57b -->
<g id="edge5" class="edge"><title>Orf3b&#45;&gt;pr_f56bfb5b&#45;1ca8&#45;4cc1&#45;ae64&#45;8e3db201d57b</title>
<path fill="none" stroke="black" d="M282,-220.342C282,-212.881 282,-203.687 282,-194.13"/>
<polygon fill="black" stroke="black" points="285.5,-194.097 282,-184.097 278.5,-194.097 285.5,-194.097"/>
</g>
<!-- pr_60503039&#45;aad7&#45;447c&#45;a1f7&#45;0795d8d34ab1 -->
<g id="node17" class="node"><title>pr_60503039&#45;aad7&#45;447c&#45;a1f7&#45;0795d8d34ab1</title>
<polygon fill="none" stroke="black" points="450,-184.23 350,-184.23 350,-84.2297 450,-84.2297 450,-184.23"/>
<text text-anchor="middle" x="400" y="-133.03" font-family="Times,serif" font-size="4.00">pr_60503039&#45;aad7&#45;447c&#45;a1f7&#45;0795d8d34ab1</text>
</g>
<!-- Orf3b&#45;&gt;pr_60503039&#45;aad7&#45;447c&#45;a1f7&#45;0795d8d34ab1 -->
<g id="edge6" class="edge"><title>Orf3b&#45;&gt;pr_60503039&#45;aad7&#45;447c&#45;a1f7&#45;0795d8d34ab1</title>
<path fill="none" stroke="black" d="M295.536,-225.972C307.085,-215.939 324.532,-200.785 341.877,-185.717"/>
<polygon fill="black" stroke="black" points="344.564,-188.02 349.818,-178.82 339.974,-182.735 344.564,-188.02"/>
</g>
<!-- pr_14746389&#45;6ff2&#45;4fae&#45;9811&#45;bcf0ec966a0e&#45;&gt;IFNB1 -->
<g id="edge7" class="edge"><title>pr_14746389&#45;6ff2&#45;4fae&#45;9811&#45;bcf0ec966a0e&#45;&gt;IFNB1</title>
<path fill="none" stroke="black" d="M83.1111,-183.6C88.6651,-193.302 93.9737,-203.143 98.2467,-211.724"/>
<polygon fill="black" stroke="black" points="95.1169,-213.292 102.589,-220.804 101.432,-210.272 95.1169,-213.292"/>
</g>
<!-- STOML2 -->
<g id="node5" class="node"><title>STOML2</title>
<ellipse fill="none" stroke="black" cx="518" cy="-238.73" rx="18" ry="18"/>
<text text-anchor="middle" x="518" y="-237.53" font-family="Times,serif" font-size="4.00">STOML2</text>
</g>
<!-- pr_7f3bc5d8&#45;5f8d&#45;472b&#45;be6a&#45;09024ee5bcf5 -->
<g id="node6" class="node"><title>pr_7f3bc5d8&#45;5f8d&#45;472b&#45;be6a&#45;09024ee5bcf5</title>
<polygon fill="none" stroke="black" points="684,-183.23 586,-183.23 586,-85.2297 684,-85.2297 684,-183.23"/>
<text text-anchor="middle" x="635" y="-133.03" font-family="Times,serif" font-size="4.00">pr_7f3bc5d8&#45;5f8d&#45;472b&#45;be6a&#45;09024ee5bcf5</text>
</g>
<!-- STOML2&#45;&gt;pr_7f3bc5d8&#45;5f8d&#45;472b&#45;be6a&#45;09024ee5bcf5 -->
<g id="edge8" class="edge"><title>STOML2&#45;&gt;pr_7f3bc5d8&#45;5f8d&#45;472b&#45;be6a&#45;09024ee5bcf5</title>
<path fill="none" stroke="black" d="M531.421,-225.972C542.977,-215.848 560.487,-200.509 577.839,-185.307"/>
<polygon fill="black" stroke="black" points="580.563,-187.573 585.779,-178.351 575.951,-182.308 580.563,-187.573"/>
</g>
<!-- STOML2&#45;&gt;pr_f56bfb5b&#45;1ca8&#45;4cc1&#45;ae64&#45;8e3db201d57b -->
<g id="edge9" class="edge"><title>STOML2&#45;&gt;pr_f56bfb5b&#45;1ca8&#45;4cc1&#45;ae64&#45;8e3db201d57b</title>
<path fill="none" stroke="black" d="M500.251,-234.884C467.29,-229.078 395.069,-213.883 341,-184.73 340.702,-184.569 340.404,-184.407 340.107,-184.243"/>
<polygon fill="black" stroke="black" points="341.913,-181.245 331.542,-179.081 338.3,-187.241 341.913,-181.245"/>
</g>
<!-- pr_803442c3&#45;e907&#45;4a8d&#45;a05d&#45;4c441d060c1b -->
<g id="node11" class="node"><title>pr_803442c3&#45;e907&#45;4a8d&#45;a05d&#45;4c441d060c1b</title>
<polygon fill="none" stroke="black" points="803.5,-184.73 702.5,-184.73 702.5,-83.7297 803.5,-83.7297 803.5,-184.73"/>
<text text-anchor="middle" x="753" y="-133.03" font-family="Times,serif" font-size="4.00">pr_803442c3&#45;e907&#45;4a8d&#45;a05d&#45;4c441d060c1b</text>
</g>
<!-- STOML2&#45;&gt;pr_803442c3&#45;e907&#45;4a8d&#45;a05d&#45;4c441d060c1b -->
<g id="edge10" class="edge"><title>STOML2&#45;&gt;pr_803442c3&#45;e907&#45;4a8d&#45;a05d&#45;4c441d060c1b</title>
<path fill="none" stroke="black" d="M535.781,-234.753C568.446,-228.776 639.557,-213.369 693,-184.73 693.193,-184.626 693.387,-184.522 693.58,-184.417"/>
<polygon fill="black" stroke="black" points="695.412,-187.4 702.225,-179.286 691.839,-181.38 695.412,-187.4"/>
</g>
<!-- STOML2&#45;&gt;pr_60503039&#45;aad7&#45;447c&#45;a1f7&#45;0795d8d34ab1 -->
<g id="edge11" class="edge"><title>STOML2&#45;&gt;pr_60503039&#45;aad7&#45;447c&#45;a1f7&#45;0795d8d34ab1</title>
<path fill="none" stroke="black" d="M504.464,-225.972C492.915,-215.939 475.468,-200.785 458.123,-185.717"/>
<polygon fill="black" stroke="black" points="460.026,-182.735 450.182,-178.82 455.436,-188.02 460.026,-182.735"/>
</g>
<!-- pr_e5e74577&#45;763e&#45;443b&#45;95e3&#45;5f8c758dfce0 -->
<g id="node18" class="node"><title>pr_e5e74577&#45;763e&#45;443b&#45;95e3&#45;5f8c758dfce0</title>
<polygon fill="none" stroke="black" points="567.5,-183.73 468.5,-183.73 468.5,-84.7297 567.5,-84.7297 567.5,-183.73"/>
<text text-anchor="middle" x="518" y="-133.03" font-family="Times,serif" font-size="4.00">pr_e5e74577&#45;763e&#45;443b&#45;95e3&#45;5f8c758dfce0</text>
</g>
<!-- STOML2&#45;&gt;pr_e5e74577&#45;763e&#45;443b&#45;95e3&#45;5f8c758dfce0 -->
<g id="edge12" class="edge"><title>STOML2&#45;&gt;pr_e5e74577&#45;763e&#45;443b&#45;95e3&#45;5f8c758dfce0</title>
<path fill="none" stroke="black" d="M518,-220.342C518,-212.881 518,-203.687 518,-194.13"/>
<polygon fill="black" stroke="black" points="521.5,-194.097 518,-184.097 514.5,-194.097 521.5,-194.097"/>
</g>
<!-- MFN2&#45;STOML2 -->
<g id="node8" class="node"><title>MFN2&#45;STOML2</title>
<ellipse fill="none" stroke="black" cx="635" cy="-23.8649" rx="23.7305" ry="23.7305"/>
<text text-anchor="middle" x="635" y="-22.6649" font-family="Times,serif" font-size="4.00">MFN2&#45;STOML2</text>
</g>
<!-- pr_7f3bc5d8&#45;5f8d&#45;472b&#45;be6a&#45;09024ee5bcf5&#45;&gt;MFN2&#45;STOML2 -->
<g id="edge13" class="edge"><title>pr_7f3bc5d8&#45;5f8d&#45;472b&#45;be6a&#45;09024ee5bcf5&#45;&gt;MFN2&#45;STOML2</title>
<path fill="none" stroke="black" d="M635,-85.0682C635,-76.0063 635,-66.7169 635,-58.231"/>
<polygon fill="black" stroke="black" points="638.5,-57.9893 635,-47.9893 631.5,-57.9893 638.5,-57.9893"/>
</g>
<!-- MFN2 -->
<g id="node7" class="node"><title>MFN2</title>
<ellipse fill="none" stroke="black" cx="635" cy="-238.73" rx="18" ry="18"/>
<text text-anchor="middle" x="635" y="-237.53" font-family="Times,serif" font-size="4.00">MFN2</text>
</g>
<!-- MFN2&#45;&gt;pr_7f3bc5d8&#45;5f8d&#45;472b&#45;be6a&#45;09024ee5bcf5 -->
<g id="edge14" class="edge"><title>MFN2&#45;&gt;pr_7f3bc5d8&#45;5f8d&#45;472b&#45;be6a&#45;09024ee5bcf5</title>
<path fill="none" stroke="black" d="M635,-220.342C635,-212.796 635,-203.478 635,-193.804"/>
<polygon fill="black" stroke="black" points="638.5,-193.654 635,-183.654 631.5,-193.654 638.5,-193.654"/>
</g>
<!-- Orf3b&#45;STOML2 -->
<g id="node10" class="node"><title>Orf3b&#45;STOML2</title>
<ellipse fill="none" stroke="black" cx="341" cy="-23.8649" rx="23.1702" ry="23.1702"/>
<text text-anchor="middle" x="341" y="-22.6649" font-family="Times,serif" font-size="4.00">Orf3b&#45;STOML2</text>
</g>
<!-- pr_f56bfb5b&#45;1ca8&#45;4cc1&#45;ae64&#45;8e3db201d57b&#45;&gt;Orf3b&#45;STOML2 -->
<g id="edge15" class="edge"><title>pr_f56bfb5b&#45;1ca8&#45;4cc1&#45;ae64&#45;8e3db201d57b&#45;&gt;Orf3b&#45;STOML2</title>
<path fill="none" stroke="black" d="M308.566,-84.4364C314.301,-73.9032 320.185,-63.0955 325.34,-53.6271"/>
<polygon fill="black" stroke="black" points="328.512,-55.1211 330.22,-44.6648 322.364,-51.7738 328.512,-55.1211"/>
</g>
<!-- STOML2&#45;PHB -->
<g id="node13" class="node"><title>STOML2&#45;PHB</title>
<ellipse fill="none" stroke="black" cx="753" cy="-23.8649" rx="22.05" ry="22.05"/>
<text text-anchor="middle" x="753" y="-22.6649" font-family="Times,serif" font-size="4.00">STOML2&#45;PHB</text>
</g>
<!-- pr_803442c3&#45;e907&#45;4a8d&#45;a05d&#45;4c441d060c1b&#45;&gt;STOML2&#45;PHB -->
<g id="edge16" class="edge"><title>pr_803442c3&#45;e907&#45;4a8d&#45;a05d&#45;4c441d060c1b&#45;&gt;STOML2&#45;PHB</title>
<path fill="none" stroke="black" d="M753,-83.4875C753,-74.2549 753,-64.8491 753,-56.3522"/>
<polygon fill="black" stroke="black" points="756.5,-56.157 753,-46.1571 749.5,-56.1571 756.5,-56.157"/>
</g>
<!-- PHB -->
<g id="node12" class="node"><title>PHB</title>
<ellipse fill="none" stroke="black" cx="785" cy="-238.73" rx="18" ry="18"/>
<text text-anchor="middle" x="785" y="-237.53" font-family="Times,serif" font-size="4.00">PHB</text>
</g>
<!-- PHB&#45;&gt;pr_803442c3&#45;e907&#45;4a8d&#45;a05d&#45;4c441d060c1b -->
<g id="edge17" class="edge"><title>PHB&#45;&gt;pr_803442c3&#45;e907&#45;4a8d&#45;a05d&#45;4c441d060c1b</title>
<path fill="none" stroke="black" d="M779.859,-221.261C777.527,-213.791 774.612,-204.455 771.57,-194.711"/>
<polygon fill="black" stroke="black" points="774.823,-193.387 768.502,-184.885 768.141,-195.473 774.823,-193.387"/>
</g>
<!-- pr_e587a0a9&#45;c7cf&#45;442d&#45;86e7&#45;d1ea99cdd447 -->
<g id="node14" class="node"><title>pr_e587a0a9&#45;c7cf&#45;442d&#45;86e7&#45;d1ea99cdd447</title>
<polygon fill="none" stroke="black" points="922,-184.23 822,-184.23 822,-84.2297 922,-84.2297 922,-184.23"/>
<text text-anchor="middle" x="872" y="-133.03" font-family="Times,serif" font-size="4.00">pr_e587a0a9&#45;c7cf&#45;442d&#45;86e7&#45;d1ea99cdd447</text>
</g>
<!-- PHB&#45;&gt;pr_e587a0a9&#45;c7cf&#45;442d&#45;86e7&#45;d1ea99cdd447 -->
<g id="edge18" class="edge"><title>PHB&#45;&gt;pr_e587a0a9&#45;c7cf&#45;442d&#45;86e7&#45;d1ea99cdd447</title>
<path fill="none" stroke="black" d="M796.374,-224.33C803.553,-215.872 813.369,-204.307 823.551,-192.31"/>
<polygon fill="black" stroke="black" points="826.469,-194.281 830.272,-184.392 821.132,-189.751 826.469,-194.281"/>
</g>
<!-- PHB&#45;RAF1 -->
<g id="node16" class="node"><title>PHB&#45;RAF1</title>
<ellipse fill="none" stroke="black" cx="872" cy="-23.8649" rx="19.7452" ry="19.7452"/>
<text text-anchor="middle" x="872" y="-22.6649" font-family="Times,serif" font-size="4.00">PHB&#45;RAF1</text>
</g>
<!-- pr_e587a0a9&#45;c7cf&#45;442d&#45;86e7&#45;d1ea99cdd447&#45;&gt;PHB&#45;RAF1 -->
<g id="edge19" class="edge"><title>pr_e587a0a9&#45;c7cf&#45;442d&#45;86e7&#45;d1ea99cdd447&#45;&gt;PHB&#45;RAF1</title>
<path fill="none" stroke="black" d="M872,-84.1203C872,-73.8163 872,-63.2654 872,-53.9759"/>
<polygon fill="black" stroke="black" points="875.5,-53.7405 872,-43.7406 868.5,-53.7406 875.5,-53.7405"/>
</g>
<!-- RAF1 -->
<g id="node15" class="node"><title>RAF1</title>
<ellipse fill="none" stroke="black" cx="872" cy="-238.73" rx="18" ry="18"/>
<text text-anchor="middle" x="872" y="-237.53" font-family="Times,serif" font-size="4.00">RAF1</text>
</g>
<!-- RAF1&#45;&gt;pr_e587a0a9&#45;c7cf&#45;442d&#45;86e7&#45;d1ea99cdd447 -->
<g id="edge20" class="edge"><title>RAF1&#45;&gt;pr_e587a0a9&#45;c7cf&#45;442d&#45;86e7&#45;d1ea99cdd447</title>
<path fill="none" stroke="black" d="M872,-220.342C872,-213.044 872,-204.087 872,-194.754"/>
<polygon fill="black" stroke="black" points="875.5,-194.54 872,-184.54 868.5,-194.54 875.5,-194.54"/>
</g>
<!-- pr_60503039&#45;aad7&#45;447c&#45;a1f7&#45;0795d8d34ab1&#45;&gt;Orf3b&#45;STOML2 -->
<g id="edge21" class="edge"><title>pr_60503039&#45;aad7&#45;447c&#45;a1f7&#45;0795d8d34ab1&#45;&gt;Orf3b&#45;STOML2</title>
<path fill="none" stroke="black" d="M373.262,-84.1203C367.591,-73.7043 361.783,-63.036 356.685,-53.6734"/>
<polygon fill="black" stroke="black" points="359.712,-51.9128 351.856,-44.8037 353.564,-55.26 359.712,-51.9128"/>
</g>
<!-- TCR complex -->
<g id="node19" class="node"><title>TCR complex</title>
<ellipse fill="none" stroke="black" cx="518" cy="-23.8649" rx="22.6101" ry="22.6101"/>
<text text-anchor="middle" x="518" y="-22.6649" font-family="Times,serif" font-size="4.00">TCR complex</text>
</g>
<!-- pr_e5e74577&#45;763e&#45;443b&#45;95e3&#45;5f8c758dfce0&#45;&gt;TCR complex -->
<g id="edge22" class="edge"><title>pr_e5e74577&#45;763e&#45;443b&#45;95e3&#45;5f8c758dfce0&#45;&gt;TCR complex</title>
<path fill="none" stroke="black" d="M511.28,-84.4364C511.174,-74.8512 511.352,-65.0387 511.814,-56.2149"/>
<polygon fill="black" stroke="black" points="515.32,-56.2416 512.518,-46.024 508.337,-55.7587 515.32,-56.2416"/>
</g>
<!-- TCR complex&#45;&gt;pr_e5e74577&#45;763e&#45;443b&#45;95e3&#45;5f8c758dfce0 -->
<g id="edge23" class="edge"><title>TCR complex&#45;&gt;pr_e5e74577&#45;763e&#45;443b&#45;95e3&#45;5f8c758dfce0</title>
<path fill="none" stroke="black" d="M523.482,-46.024C524.213,-54.2723 524.628,-64.1712 524.727,-74.2931"/>
<polygon fill="black" stroke="black" points="521.227,-74.4341 524.72,-84.4364 528.227,-74.4387 521.227,-74.4341"/>
</g>
</g>
</svg>
