<?xml version="1.0" encoding="UTF-8" standalone="no"?>
<!DOCTYPE svg PUBLIC "-//W3C//DTD SVG 1.1//EN"
 "http://www.w3.org/Graphics/SVG/1.1/DTD/svg11.dtd">
<!-- Generated by graphviz version 2.38.0 (20140413.2041)
 -->
<!-- Title: G Pages: 1 -->
<svg width="912pt" height="1155pt"
 viewBox="0.00 0.00 912.00 1155.19" xmlns="http://www.w3.org/2000/svg" xmlns:xlink="http://www.w3.org/1999/xlink">
<g id="graph0" class="graph" transform="scale(1 1) rotate(0) translate(4 1151.19)">
<title>G</title>
<polygon fill="white" stroke="none" points="-4,4 -4,-1151.19 908,-1151.19 908,4 -4,4"/>
<!-- Orf3a -->
<g id="node1" class="node"><title>Orf3a</title>
<ellipse fill="none" stroke="black" cx="331" cy="-1126.51" rx="18" ry="18"/>
<text text-anchor="middle" x="331" y="-1125.31" font-family="Times,serif" font-size="4.00">Orf3a</text>
</g>
<!-- pr_42032c52&#45;93ff&#45;4a58&#45;8dea&#45;cb25c4547d60 -->
<g id="node2" class="node"><title>pr_42032c52&#45;93ff&#45;4a58&#45;8dea&#45;cb25c4547d60</title>
<polygon fill="none" stroke="black" points="294.5,-1068.83 195.5,-1068.83 195.5,-969.829 294.5,-969.829 294.5,-1068.83"/>
<text text-anchor="middle" x="245" y="-1018.13" font-family="Times,serif" font-size="4.00">pr_42032c52&#45;93ff&#45;4a58&#45;8dea&#45;cb25c4547d60</text>
</g>
<!-- Orf3a&#45;&gt;pr_42032c52&#45;93ff&#45;4a58&#45;8dea&#45;cb25c4547d60 -->
<g id="edge1" class="edge"><title>Orf3a&#45;&gt;pr_42032c52&#45;93ff&#45;4a58&#45;8dea&#45;cb25c4547d60</title>
<path fill="none" stroke="black" d="M319.757,-1111.76C312.292,-1102.63 301.941,-1089.97 291.318,-1076.98"/>
<polygon fill="black" stroke="black" points="293.732,-1074.4 284.692,-1068.87 288.312,-1078.83 293.732,-1074.4"/>
</g>
<!-- pr_cce71908&#45;b487&#45;4c99&#45;a39e&#45;9822d5921c0d -->
<g id="node35" class="node"><title>pr_cce71908&#45;b487&#45;4c99&#45;a39e&#45;9822d5921c0d</title>
<polygon fill="none" stroke="black" points="413.5,-1069.83 312.5,-1069.83 312.5,-968.829 413.5,-968.829 413.5,-1069.83"/>
<text text-anchor="middle" x="363" y="-1018.13" font-family="Times,serif" font-size="4.00">pr_cce71908&#45;b487&#45;4c99&#45;a39e&#45;9822d5921c0d</text>
</g>
<!-- Orf3a&#45;&gt;pr_cce71908&#45;b487&#45;4c99&#45;a39e&#45;9822d5921c0d -->
<g id="edge2" class="edge"><title>Orf3a&#45;&gt;pr_cce71908&#45;b487&#45;4c99&#45;a39e&#45;9822d5921c0d</title>
<path fill="none" stroke="black" d="M336,-1109.08C338.502,-1100.85 341.699,-1090.35 345.011,-1079.46"/>
<polygon fill="black" stroke="black" points="348.375,-1080.43 347.937,-1069.84 341.678,-1078.39 348.375,-1080.43"/>
</g>
<!-- NLRP3 -->
<g id="node4" class="node"><title>NLRP3</title>
<ellipse fill="none" stroke="black" cx="245" cy="-906.312" rx="18" ry="18"/>
<text text-anchor="middle" x="245" y="-905.112" font-family="Times,serif" font-size="4.00">NLRP3</text>
</g>
<!-- pr_42032c52&#45;93ff&#45;4a58&#45;8dea&#45;cb25c4547d60&#45;&gt;NLRP3 -->
<g id="edge3" class="edge"><title>pr_42032c52&#45;93ff&#45;4a58&#45;8dea&#45;cb25c4547d60&#45;&gt;NLRP3</title>
<path fill="none" stroke="black" d="M245,-969.635C245,-957.615 245,-945.161 245,-934.576"/>
<polygon fill="black" stroke="black" points="248.5,-934.318 245,-924.318 241.5,-934.318 248.5,-934.318"/>
</g>
<!-- TRAF3 -->
<g id="node3" class="node"><title>TRAF3</title>
<ellipse fill="none" stroke="black" cx="481" cy="-1126.51" rx="18" ry="18"/>
<text text-anchor="middle" x="481" y="-1125.31" font-family="Times,serif" font-size="4.00">TRAF3</text>
</g>
<!-- TRAF3&#45;&gt;pr_42032c52&#45;93ff&#45;4a58&#45;8dea&#45;cb25c4547d60 -->
<g id="edge4" class="edge"><title>TRAF3&#45;&gt;pr_42032c52&#45;93ff&#45;4a58&#45;8dea&#45;cb25c4547d60</title>
<path fill="none" stroke="black" d="M463.39,-1122.45C431.881,-1116.48 364.162,-1101.4 303.594,-1069.63"/>
<polygon fill="black" stroke="black" points="305.175,-1066.5 294.715,-1064.82 301.84,-1072.66 305.175,-1066.5"/>
</g>
<!-- pr_07a4c1e7&#45;e270&#45;448b&#45;aff2&#45;8e11e8c79f88 -->
<g id="node52" class="node"><title>pr_07a4c1e7&#45;e270&#45;448b&#45;aff2&#45;8e11e8c79f88</title>
<polygon fill="none" stroke="black" points="530,-1068.33 432,-1068.33 432,-970.329 530,-970.329 530,-1068.33"/>
<text text-anchor="middle" x="481" y="-1018.13" font-family="Times,serif" font-size="4.00">pr_07a4c1e7&#45;e270&#45;448b&#45;aff2&#45;8e11e8c79f88</text>
</g>
<!-- TRAF3&#45;&gt;pr_07a4c1e7&#45;e270&#45;448b&#45;aff2&#45;8e11e8c79f88 -->
<g id="edge5" class="edge"><title>TRAF3&#45;&gt;pr_07a4c1e7&#45;e270&#45;448b&#45;aff2&#45;8e11e8c79f88</title>
<path fill="none" stroke="black" d="M475.938,-1109.08C474.979,-1100.67 474.428,-1089.88 474.287,-1078.73"/>
<polygon fill="black" stroke="black" points="477.786,-1078.45 474.272,-1068.46 470.786,-1078.46 477.786,-1078.45"/>
</g>
<!-- pr_0934c5e5&#45;7268&#45;48d7&#45;a57a&#45;cf1c78b5352e -->
<g id="node8" class="node"><title>pr_0934c5e5&#45;7268&#45;48d7&#45;a57a&#45;cf1c78b5352e</title>
<polygon fill="none" stroke="black" points="295,-843.296 195,-843.296 195,-743.296 295,-743.296 295,-843.296"/>
<text text-anchor="middle" x="245" y="-792.096" font-family="Times,serif" font-size="4.00">pr_0934c5e5&#45;7268&#45;48d7&#45;a57a&#45;cf1c78b5352e</text>
</g>
<!-- NLRP3&#45;&gt;pr_0934c5e5&#45;7268&#45;48d7&#45;a57a&#45;cf1c78b5352e -->
<g id="edge6" class="edge"><title>NLRP3&#45;&gt;pr_0934c5e5&#45;7268&#45;48d7&#45;a57a&#45;cf1c78b5352e</title>
<path fill="none" stroke="black" d="M245,-887.966C245,-878.534 245,-866.254 245,-853.707"/>
<polygon fill="black" stroke="black" points="248.5,-853.636 245,-843.636 241.5,-853.636 248.5,-853.636"/>
</g>
<!-- ASC/CASP1 -->
<g id="node5" class="node"><title>ASC/CASP1</title>
<ellipse fill="none" stroke="black" cx="178" cy="-1126.51" rx="20.8674" ry="20.8674"/>
<text text-anchor="middle" x="178" y="-1125.31" font-family="Times,serif" font-size="4.00">ASC/CASP1</text>
</g>
<!-- ASC/CASP1&#45;&gt;pr_42032c52&#45;93ff&#45;4a58&#45;8dea&#45;cb25c4547d60 -->
<g id="edge7" class="edge"><title>ASC/CASP1&#45;&gt;pr_42032c52&#45;93ff&#45;4a58&#45;8dea&#45;cb25c4547d60</title>
<path fill="none" stroke="black" d="M188.765,-1108.61C194.247,-1100 201.269,-1088.98 208.478,-1077.66"/>
<polygon fill="black" stroke="black" points="211.585,-1079.3 214.005,-1068.99 205.681,-1075.54 211.585,-1079.3"/>
</g>
<!-- ASC/CASP1&#45;&gt;pr_0934c5e5&#45;7268&#45;48d7&#45;a57a&#45;cf1c78b5352e -->
<g id="edge8" class="edge"><title>ASC/CASP1&#45;&gt;pr_0934c5e5&#45;7268&#45;48d7&#45;a57a&#45;cf1c78b5352e</title>
<path fill="none" stroke="black" d="M177.279,-1105.52C176.588,-1075.53 176.762,-1017.26 186,-968.829 193.555,-929.223 207.976,-886.304 220.668,-852.937"/>
<polygon fill="black" stroke="black" points="224.034,-853.937 224.368,-843.347 217.503,-851.417 224.034,-853.937"/>
</g>
<!-- P65/P015 -->
<g id="node6" class="node"><title>P65/P015</title>
<ellipse fill="none" stroke="black" cx="86" cy="-1126.51" rx="18.0625" ry="18.0625"/>
<text text-anchor="middle" x="86" y="-1125.31" font-family="Times,serif" font-size="4.00">P65/P015</text>
</g>
<!-- P65/P015&#45;&gt;pr_42032c52&#45;93ff&#45;4a58&#45;8dea&#45;cb25c4547d60 -->
<g id="edge9" class="edge"><title>P65/P015&#45;&gt;pr_42032c52&#45;93ff&#45;4a58&#45;8dea&#45;cb25c4547d60</title>
<path fill="none" stroke="black" d="M100.673,-1115.8C120.139,-1102.93 155.647,-1079.44 186.571,-1058.98"/>
<polygon fill="black" stroke="black" points="188.746,-1061.74 195.155,-1053.3 184.884,-1055.9 188.746,-1061.74"/>
</g>
<!-- pr_83af6857&#45;3056&#45;4361&#45;9853&#45;89106a1bb673 -->
<g id="node10" class="node"><title>pr_83af6857&#45;3056&#45;4361&#45;9853&#45;89106a1bb673</title>
<polygon fill="none" stroke="black" points="100,-1069.33 0,-1069.33 0,-969.329 100,-969.329 100,-1069.33"/>
<text text-anchor="middle" x="50" y="-1018.13" font-family="Times,serif" font-size="4.00">pr_83af6857&#45;3056&#45;4361&#45;9853&#45;89106a1bb673</text>
</g>
<!-- P65/P015&#45;&gt;pr_83af6857&#45;3056&#45;4361&#45;9853&#45;89106a1bb673 -->
<g id="edge10" class="edge"><title>P65/P015&#45;&gt;pr_83af6857&#45;3056&#45;4361&#45;9853&#45;89106a1bb673</title>
<path fill="none" stroke="black" d="M76.1494,-1110.89C72.1392,-1102.33 67.6094,-1090.91 63.3971,-1079.07"/>
<polygon fill="black" stroke="black" points="66.6751,-1077.84 60.103,-1069.53 60.0584,-1080.13 66.6751,-1077.84"/>
</g>
<!-- pr_e5b2c47a&#45;742c&#45;4129&#45;8fba&#45;109b85ee5b6d -->
<g id="node28" class="node"><title>pr_e5b2c47a&#45;742c&#45;4129&#45;8fba&#45;109b85ee5b6d</title>
<polygon fill="none" stroke="black" points="177,-843.296 77,-843.296 77,-743.296 177,-743.296 177,-843.296"/>
<text text-anchor="middle" x="127" y="-792.096" font-family="Times,serif" font-size="4.00">pr_e5b2c47a&#45;742c&#45;4129&#45;8fba&#45;109b85ee5b6d</text>
</g>
<!-- P65/P015&#45;&gt;pr_e5b2c47a&#45;742c&#45;4129&#45;8fba&#45;109b85ee5b6d -->
<g id="edge11" class="edge"><title>P65/P015&#45;&gt;pr_e5b2c47a&#45;742c&#45;4129&#45;8fba&#45;109b85ee5b6d</title>
<path fill="none" stroke="black" d="M94.0714,-1109.89C99.3027,-1098.97 105.731,-1083.89 109,-1069.83 125.993,-996.752 128.936,-910.044 128.657,-853.685"/>
<polygon fill="black" stroke="black" points="132.155,-853.494 128.57,-843.525 125.156,-853.554 132.155,-853.494"/>
</g>
<!-- ORF8b -->
<g id="node7" class="node"><title>ORF8b</title>
<ellipse fill="none" stroke="black" cx="245" cy="-1126.51" rx="18" ry="18"/>
<text text-anchor="middle" x="245" y="-1125.31" font-family="Times,serif" font-size="4.00">ORF8b</text>
</g>
<!-- ORF8b&#45;&gt;pr_42032c52&#45;93ff&#45;4a58&#45;8dea&#45;cb25c4547d60 -->
<g id="edge12" class="edge"><title>ORF8b&#45;&gt;pr_42032c52&#45;93ff&#45;4a58&#45;8dea&#45;cb25c4547d60</title>
<path fill="none" stroke="black" d="M245,-1108.14C245,-1100.01 245,-1089.79 245,-1079.23"/>
<polygon fill="black" stroke="black" points="248.5,-1079.05 245,-1069.05 241.5,-1079.05 248.5,-1079.05"/>
</g>
<!-- CASP1 -->
<g id="node9" class="node"><title>CASP1</title>
<ellipse fill="none" stroke="black" cx="225" cy="-680.279" rx="18" ry="18"/>
<text text-anchor="middle" x="225" y="-679.079" font-family="Times,serif" font-size="4.00">CASP1</text>
</g>
<!-- pr_0934c5e5&#45;7268&#45;48d7&#45;a57a&#45;cf1c78b5352e&#45;&gt;CASP1 -->
<g id="edge13" class="edge"><title>pr_0934c5e5&#45;7268&#45;48d7&#45;a57a&#45;cf1c78b5352e&#45;&gt;CASP1</title>
<path fill="none" stroke="black" d="M236.169,-743.279C233.988,-731.168 231.731,-718.639 229.821,-708.042"/>
<polygon fill="black" stroke="black" points="233.261,-707.395 228.044,-698.174 226.372,-708.636 233.261,-707.395"/>
</g>
<!-- pr_f70f8f47&#45;e157&#45;4fe9&#45;8bc0&#45;de1eadf090eb -->
<g id="node24" class="node"><title>pr_f70f8f47&#45;e157&#45;4fe9&#45;8bc0&#45;de1eadf090eb</title>
<polygon fill="none" stroke="black" points="272.5,-615.763 175.5,-615.763 175.5,-518.763 272.5,-518.763 272.5,-615.763"/>
<text text-anchor="middle" x="224" y="-566.063" font-family="Times,serif" font-size="4.00">pr_f70f8f47&#45;e157&#45;4fe9&#45;8bc0&#45;de1eadf090eb</text>
</g>
<!-- CASP1&#45;&gt;pr_f70f8f47&#45;e157&#45;4fe9&#45;8bc0&#45;de1eadf090eb -->
<g id="edge14" class="edge"><title>CASP1&#45;&gt;pr_f70f8f47&#45;e157&#45;4fe9&#45;8bc0&#45;de1eadf090eb</title>
<path fill="none" stroke="black" d="M224.844,-661.933C224.756,-652.213 224.641,-639.467 224.525,-626.521"/>
<polygon fill="black" stroke="black" points="228.021,-626.117 224.431,-616.149 221.022,-626.18 228.021,-626.117"/>
</g>
<!-- pr_83af6857&#45;3056&#45;4361&#45;9853&#45;89106a1bb673&#45;&gt;P65/P015 -->
<g id="edge15" class="edge"><title>pr_83af6857&#45;3056&#45;4361&#45;9853&#45;89106a1bb673&#45;&gt;P65/P015</title>
<path fill="none" stroke="black" d="M73.5697,-1069.51C77.0504,-1079.46 80.2635,-1089.58 82.718,-1098.43"/>
<polygon fill="black" stroke="black" points="79.337,-1099.33 85.2217,-1108.14 86.1155,-1097.59 79.337,-1099.33"/>
</g>
<!-- LPS/TLR4/MYD88 -->
<g id="node11" class="node"><title>LPS/TLR4/MYD88</title>
<ellipse fill="none" stroke="black" cx="501" cy="-906.312" rx="26.533" ry="26.533"/>
<text text-anchor="middle" x="501" y="-905.112" font-family="Times,serif" font-size="4.00">LPS/TLR4/MYD88</text>
</g>
<!-- pr_256a7371&#45;a871&#45;4b0e&#45;b341&#45;92a1e6e10c08 -->
<g id="node12" class="node"><title>pr_256a7371&#45;a871&#45;4b0e&#45;b341&#45;92a1e6e10c08</title>
<polygon fill="none" stroke="black" points="551.5,-843.796 450.5,-843.796 450.5,-742.796 551.5,-742.796 551.5,-843.796"/>
<text text-anchor="middle" x="501" y="-792.096" font-family="Times,serif" font-size="4.00">pr_256a7371&#45;a871&#45;4b0e&#45;b341&#45;92a1e6e10c08</text>
</g>
<!-- LPS/TLR4/MYD88&#45;&gt;pr_256a7371&#45;a871&#45;4b0e&#45;b341&#45;92a1e6e10c08 -->
<g id="edge16" class="edge"><title>LPS/TLR4/MYD88&#45;&gt;pr_256a7371&#45;a871&#45;4b0e&#45;b341&#45;92a1e6e10c08</title>
<path fill="none" stroke="black" d="M501,-879.564C501,-871.838 501,-863.021 501,-854.055"/>
<polygon fill="black" stroke="black" points="504.5,-853.919 501,-843.919 497.5,-853.919 504.5,-853.919"/>
</g>
<!-- TRAF6 -->
<g id="node13" class="node"><title>TRAF6</title>
<ellipse fill="none" stroke="black" cx="562" cy="-680.279" rx="18" ry="18"/>
<text text-anchor="middle" x="562" y="-679.079" font-family="Times,serif" font-size="4.00">TRAF6</text>
</g>
<!-- pr_256a7371&#45;a871&#45;4b0e&#45;b341&#45;92a1e6e10c08&#45;&gt;TRAF6 -->
<g id="edge17" class="edge"><title>pr_256a7371&#45;a871&#45;4b0e&#45;b341&#45;92a1e6e10c08&#45;&gt;TRAF6</title>
<path fill="none" stroke="black" d="M528.289,-742.632C535.355,-729.772 542.653,-716.49 548.644,-705.586"/>
<polygon fill="black" stroke="black" points="551.786,-707.136 553.534,-696.686 545.651,-703.765 551.786,-707.136"/>
</g>
<!-- pr_9eacb259&#45;d179&#45;4e72&#45;832a&#45;ecb4fd2cc122 -->
<g id="node41" class="node"><title>pr_9eacb259&#45;d179&#45;4e72&#45;832a&#45;ecb4fd2cc122</title>
<polygon fill="none" stroke="black" points="666,-617.263 566,-617.263 566,-517.263 666,-517.263 666,-617.263"/>
<text text-anchor="middle" x="616" y="-566.063" font-family="Times,serif" font-size="4.00">pr_9eacb259&#45;d179&#45;4e72&#45;832a&#45;ecb4fd2cc122</text>
</g>
<!-- TRAF6&#45;&gt;pr_9eacb259&#45;d179&#45;4e72&#45;832a&#45;ecb4fd2cc122 -->
<g id="edge18" class="edge"><title>TRAF6&#45;&gt;pr_9eacb259&#45;d179&#45;4e72&#45;832a&#45;ecb4fd2cc122</title>
<path fill="none" stroke="black" d="M565.192,-662.418C568.856,-652.66 574.564,-639.738 580.88,-626.604"/>
<polygon fill="black" stroke="black" points="584.076,-628.034 585.332,-617.514 577.79,-624.956 584.076,-628.034"/>
</g>
<!-- pr_857df342&#45;2879&#45;427f&#45;8438&#45;459b7b8f3d40 -->
<g id="node44" class="node"><title>pr_857df342&#45;2879&#45;427f&#45;8438&#45;459b7b8f3d40</title>
<polygon fill="none" stroke="black" points="548,-616.263 450,-616.263 450,-518.263 548,-518.263 548,-616.263"/>
<text text-anchor="middle" x="499" y="-566.063" font-family="Times,serif" font-size="4.00">pr_857df342&#45;2879&#45;427f&#45;8438&#45;459b7b8f3d40</text>
</g>
<!-- TRAF6&#45;&gt;pr_857df342&#45;2879&#45;427f&#45;8438&#45;459b7b8f3d40 -->
<g id="edge19" class="edge"><title>TRAF6&#45;&gt;pr_857df342&#45;2879&#45;427f&#45;8438&#45;459b7b8f3d40</title>
<path fill="none" stroke="black" d="M553.504,-664.307C547.718,-654.112 539.657,-639.907 531.505,-625.543"/>
<polygon fill="black" stroke="black" points="534.418,-623.583 526.438,-616.613 528.33,-627.038 534.418,-623.583"/>
</g>
<!-- TRIM59 -->
<g id="node14" class="node"><title>TRIM59</title>
<ellipse fill="none" stroke="black" cx="363" cy="-906.312" rx="18" ry="18"/>
<text text-anchor="middle" x="363" y="-905.112" font-family="Times,serif" font-size="4.00">TRIM59</text>
</g>
<!-- TRIM59&#45;&gt;pr_256a7371&#45;a871&#45;4b0e&#45;b341&#45;92a1e6e10c08 -->
<g id="edge20" class="edge"><title>TRIM59&#45;&gt;pr_256a7371&#45;a871&#45;4b0e&#45;b341&#45;92a1e6e10c08</title>
<path fill="none" stroke="black" d="M376.736,-894.262C392.177,-881.84 418.273,-860.847 442.577,-841.296"/>
<polygon fill="black" stroke="black" points="444.79,-844.006 450.388,-835.011 440.403,-838.552 444.79,-844.006"/>
</g>
<!-- TRIM59&#45;&gt;pr_cce71908&#45;b487&#45;4c99&#45;a39e&#45;9822d5921c0d -->
<g id="edge21" class="edge"><title>TRIM59&#45;&gt;pr_cce71908&#45;b487&#45;4c99&#45;a39e&#45;9822d5921c0d</title>
<path fill="none" stroke="black" d="M367.96,-923.73C369.03,-933.149 369.62,-945.617 369.731,-958.399"/>
<polygon fill="black" stroke="black" points="366.231,-958.66 369.717,-968.665 373.231,-958.67 366.231,-958.66"/>
</g>
<!-- NFKBIA -->
<g id="node15" class="node"><title>NFKBIA</title>
<ellipse fill="none" stroke="black" cx="849" cy="-226.092" rx="18" ry="18"/>
<text text-anchor="middle" x="849" y="-224.892" font-family="Times,serif" font-size="4.00">NFKBIA</text>
</g>
<!-- pr_5dcc7178&#45;7385&#45;4327&#45;8e39&#45;65609c95bbda -->
<g id="node16" class="node"><title>pr_5dcc7178&#45;7385&#45;4327&#45;8e39&#45;65609c95bbda</title>
<polygon fill="none" stroke="black" points="899.5,-382.184 798.5,-382.184 798.5,-281.184 899.5,-281.184 899.5,-382.184"/>
<text text-anchor="middle" x="849" y="-330.484" font-family="Times,serif" font-size="4.00">pr_5dcc7178&#45;7385&#45;4327&#45;8e39&#45;65609c95bbda</text>
</g>
<!-- NFKBIA&#45;&gt;pr_5dcc7178&#45;7385&#45;4327&#45;8e39&#45;65609c95bbda -->
<g id="edge22" class="edge"><title>NFKBIA&#45;&gt;pr_5dcc7178&#45;7385&#45;4327&#45;8e39&#45;65609c95bbda</title>
<path fill="none" stroke="black" d="M854.1,-243.608C854.971,-251.265 855.497,-260.882 855.678,-270.907"/>
<polygon fill="black" stroke="black" points="852.179,-271.035 855.745,-281.012 859.179,-270.989 852.179,-271.035"/>
</g>
<!-- pr_70cac896&#45;01f0&#45;41a0&#45;8f01&#45;352b4369132b -->
<g id="node53" class="node"><title>pr_70cac896&#45;01f0&#45;41a0&#45;8f01&#45;352b4369132b</title>
<polygon fill="none" stroke="black" points="898.5,-171 799.5,-171 799.5,-72 898.5,-72 898.5,-171"/>
<text text-anchor="middle" x="849" y="-120.3" font-family="Times,serif" font-size="4.00">pr_70cac896&#45;01f0&#45;41a0&#45;8f01&#45;352b4369132b</text>
</g>
<!-- NFKBIA&#45;&gt;pr_70cac896&#45;01f0&#45;41a0&#45;8f01&#45;352b4369132b -->
<g id="edge23" class="edge"><title>NFKBIA&#45;&gt;pr_70cac896&#45;01f0&#45;41a0&#45;8f01&#45;352b4369132b</title>
<path fill="none" stroke="black" d="M849,-207.689C849,-200.221 849,-191.019 849,-181.453"/>
<polygon fill="black" stroke="black" points="852.5,-181.411 849,-171.411 845.5,-181.411 852.5,-181.411"/>
</g>
<!-- pr_5dcc7178&#45;7385&#45;4327&#45;8e39&#45;65609c95bbda&#45;&gt;NFKBIA -->
<g id="edge24" class="edge"><title>pr_5dcc7178&#45;7385&#45;4327&#45;8e39&#45;65609c95bbda&#45;&gt;NFKBIA</title>
<path fill="none" stroke="black" d="M842.255,-281.012C842.21,-271.624 842.462,-262.144 843.009,-253.806"/>
<polygon fill="black" stroke="black" points="846.517,-253.875 843.9,-243.608 839.543,-253.266 846.517,-253.875"/>
</g>
<!-- B&#45;TrcP -->
<g id="node17" class="node"><title>B&#45;TrcP</title>
<ellipse fill="none" stroke="black" cx="881" cy="-449.473" rx="18" ry="18"/>
<text text-anchor="middle" x="881" y="-448.273" font-family="Times,serif" font-size="4.00">B&#45;TrcP</text>
</g>
<!-- B&#45;TrcP&#45;&gt;pr_5dcc7178&#45;7385&#45;4327&#45;8e39&#45;65609c95bbda -->
<g id="edge25" class="edge"><title>B&#45;TrcP&#45;&gt;pr_5dcc7178&#45;7385&#45;4327&#45;8e39&#45;65609c95bbda</title>
<path fill="none" stroke="black" d="M876.415,-431.883C873.495,-421.315 869.515,-406.916 865.494,-392.366"/>
<polygon fill="black" stroke="black" points="868.753,-391.02 862.716,-382.314 862.006,-392.885 868.753,-391.02"/>
</g>
<!-- NEMO/IKKA/IKKB -->
<g id="node18" class="node"><title>NEMO/IKKA/IKKB</title>
<ellipse fill="none" stroke="black" cx="817" cy="-449.473" rx="28.2154" ry="28.2154"/>
<text text-anchor="middle" x="817" y="-448.273" font-family="Times,serif" font-size="4.00">NEMO/IKKA/IKKB</text>
</g>
<!-- NEMO/IKKA/IKKB&#45;&gt;pr_5dcc7178&#45;7385&#45;4327&#45;8e39&#45;65609c95bbda -->
<g id="edge26" class="edge"><title>NEMO/IKKA/IKKB&#45;&gt;pr_5dcc7178&#45;7385&#45;4327&#45;8e39&#45;65609c95bbda</title>
<path fill="none" stroke="black" d="M824.261,-422.199C826.746,-413.208 829.637,-402.749 832.547,-392.218"/>
<polygon fill="black" stroke="black" points="835.924,-393.137 835.214,-382.566 829.177,-391.272 835.924,-393.137"/>
</g>
<!-- pr_26afc2e6&#45;70c7&#45;4bce&#45;98ee&#45;2e563f522d93 -->
<g id="node46" class="node"><title>pr_26afc2e6&#45;70c7&#45;4bce&#45;98ee&#45;2e563f522d93</title>
<polygon fill="none" stroke="black" points="710.5,-381.184 611.5,-381.184 611.5,-282.184 710.5,-282.184 710.5,-381.184"/>
<text text-anchor="middle" x="661" y="-330.484" font-family="Times,serif" font-size="4.00">pr_26afc2e6&#45;70c7&#45;4bce&#45;98ee&#45;2e563f522d93</text>
</g>
<!-- NEMO/IKKA/IKKB&#45;&gt;pr_26afc2e6&#45;70c7&#45;4bce&#45;98ee&#45;2e563f522d93 -->
<g id="edge27" class="edge"><title>NEMO/IKKA/IKKB&#45;&gt;pr_26afc2e6&#45;70c7&#45;4bce&#45;98ee&#45;2e563f522d93</title>
<path fill="none" stroke="black" d="M795.662,-430.623C790.579,-426.477 785.137,-422.126 780,-418.184 760.398,-403.142 738.541,-387.207 718.961,-373.222"/>
<polygon fill="black" stroke="black" points="720.899,-370.305 710.723,-367.355 716.839,-376.007 720.899,-370.305"/>
</g>
<!-- LPS/TNF α/IL&#45;1 -->
<g id="node19" class="node"><title>LPS/TNF α/IL&#45;1</title>
<ellipse fill="none" stroke="black" cx="341" cy="-680.279" rx="23.7305" ry="23.7305"/>
<text text-anchor="middle" x="341" y="-679.079" font-family="Times,serif" font-size="4.00">LPS/TNF α/IL&#45;1</text>
</g>
<!-- pr_8ba795cb&#45;9c47&#45;490f&#45;b971&#45;68dced449292 -->
<g id="node20" class="node"><title>pr_8ba795cb&#45;9c47&#45;490f&#45;b971&#45;68dced449292</title>
<polygon fill="none" stroke="black" points="391,-617.263 291,-617.263 291,-517.263 391,-517.263 391,-617.263"/>
<text text-anchor="middle" x="341" y="-566.063" font-family="Times,serif" font-size="4.00">pr_8ba795cb&#45;9c47&#45;490f&#45;b971&#45;68dced449292</text>
</g>
<!-- LPS/TNF α/IL&#45;1&#45;&gt;pr_8ba795cb&#45;9c47&#45;490f&#45;b971&#45;68dced449292 -->
<g id="edge28" class="edge"><title>LPS/TNF α/IL&#45;1&#45;&gt;pr_8ba795cb&#45;9c47&#45;490f&#45;b971&#45;68dced449292</title>
<path fill="none" stroke="black" d="M341,-656.277C341,-647.798 341,-637.757 341,-627.545"/>
<polygon fill="black" stroke="black" points="344.5,-627.327 341,-617.327 337.5,-627.327 344.5,-627.327"/>
</g>
<!-- IKBKG/IKBKB/CHUK -->
<g id="node22" class="node"><title>IKBKG/IKBKB/CHUK</title>
<ellipse fill="none" stroke="black" cx="341" cy="-449.473" rx="31.0804" ry="31.0804"/>
<text text-anchor="middle" x="341" y="-448.273" font-family="Times,serif" font-size="4.00">IKBKG/IKBKB/CHUK</text>
</g>
<!-- pr_8ba795cb&#45;9c47&#45;490f&#45;b971&#45;68dced449292&#45;&gt;IKBKG/IKBKB/CHUK -->
<g id="edge29" class="edge"><title>pr_8ba795cb&#45;9c47&#45;490f&#45;b971&#45;68dced449292&#45;&gt;IKBKG/IKBKB/CHUK</title>
<path fill="none" stroke="black" d="M341,-517.158C341,-508.393 341,-499.354 341,-490.869"/>
<polygon fill="black" stroke="black" points="344.5,-490.848 341,-480.848 337.5,-490.848 344.5,-490.848"/>
</g>
<!-- E -->
<g id="node21" class="node"><title>E</title>
<ellipse fill="none" stroke="black" cx="280" cy="-680.279" rx="18" ry="18"/>
<text text-anchor="middle" x="280" y="-679.079" font-family="Times,serif" font-size="4.00">E</text>
</g>
<!-- E&#45;&gt;pr_8ba795cb&#45;9c47&#45;490f&#45;b971&#45;68dced449292 -->
<g id="edge30" class="edge"><title>E&#45;&gt;pr_8ba795cb&#45;9c47&#45;490f&#45;b971&#45;68dced449292</title>
<path fill="none" stroke="black" d="M288.482,-663.843C293.906,-653.97 301.321,-640.477 308.868,-626.74"/>
<polygon fill="black" stroke="black" points="312.08,-628.164 313.828,-617.714 305.945,-624.793 312.08,-628.164"/>
</g>
<!-- E&#45;&gt;pr_f70f8f47&#45;e157&#45;4fe9&#45;8bc0&#45;de1eadf090eb -->
<g id="edge31" class="edge"><title>E&#45;&gt;pr_f70f8f47&#45;e157&#45;4fe9&#45;8bc0&#45;de1eadf090eb</title>
<path fill="none" stroke="black" d="M272.213,-663.843C267.086,-653.677 260.021,-639.672 252.88,-625.516"/>
<polygon fill="black" stroke="black" points="255.825,-623.582 248.196,-616.23 249.575,-626.735 255.825,-623.582"/>
</g>
<!-- Pro_IL1b -->
<g id="node23" class="node"><title>Pro_IL1b</title>
<ellipse fill="none" stroke="black" cx="224" cy="-449.473" rx="18" ry="18"/>
<text text-anchor="middle" x="224" y="-448.273" font-family="Times,serif" font-size="4.00">Pro_IL1b</text>
</g>
<!-- Pro_IL1b&#45;&gt;pr_f70f8f47&#45;e157&#45;4fe9&#45;8bc0&#45;de1eadf090eb -->
<g id="edge32" class="edge"><title>Pro_IL1b&#45;&gt;pr_f70f8f47&#45;e157&#45;4fe9&#45;8bc0&#45;de1eadf090eb</title>
<path fill="none" stroke="black" d="M228.894,-467.007C230.124,-477.947 230.743,-493.011 230.75,-508.099"/>
<polygon fill="black" stroke="black" points="227.247,-508.467 230.657,-518.498 234.246,-508.53 227.247,-508.467"/>
</g>
<!-- pr_f70f8f47&#45;e157&#45;4fe9&#45;8bc0&#45;de1eadf090eb&#45;&gt;Pro_IL1b -->
<g id="edge33" class="edge"><title>pr_f70f8f47&#45;e157&#45;4fe9&#45;8bc0&#45;de1eadf090eb&#45;&gt;Pro_IL1b</title>
<path fill="none" stroke="black" d="M217.343,-518.498C217.081,-504.333 217.373,-489.332 218.219,-477.032"/>
<polygon fill="black" stroke="black" points="221.711,-477.277 219.106,-467.007 214.739,-476.66 221.711,-477.277"/>
</g>
<!-- SERPINF2 -->
<g id="node25" class="node"><title>SERPINF2</title>
<ellipse fill="none" stroke="black" cx="499" cy="-226.092" rx="19.1842" ry="19.1842"/>
<text text-anchor="middle" x="499" y="-224.892" font-family="Times,serif" font-size="4.00">SERPINF2</text>
</g>
<!-- pr_fd80226f&#45;89d9&#45;46a3&#45;a2d7&#45;ae5ff73b8ce2 -->
<g id="node26" class="node"><title>pr_fd80226f&#45;89d9&#45;46a3&#45;a2d7&#45;ae5ff73b8ce2</title>
<polygon fill="none" stroke="black" points="548,-170.5 450,-170.5 450,-72.5 548,-72.5 548,-170.5"/>
<text text-anchor="middle" x="499" y="-120.3" font-family="Times,serif" font-size="4.00">pr_fd80226f&#45;89d9&#45;46a3&#45;a2d7&#45;ae5ff73b8ce2</text>
</g>
<!-- SERPINF2&#45;&gt;pr_fd80226f&#45;89d9&#45;46a3&#45;a2d7&#45;ae5ff73b8ce2 -->
<g id="edge34" class="edge"><title>SERPINF2&#45;&gt;pr_fd80226f&#45;89d9&#45;46a3&#45;a2d7&#45;ae5ff73b8ce2</title>
<path fill="none" stroke="black" d="M499,-206.751C499,-199.301 499,-190.244 499,-180.865"/>
<polygon fill="black" stroke="black" points="502.5,-180.623 499,-170.623 495.5,-180.623 502.5,-180.623"/>
</g>
<!-- pr_1a8c5070&#45;9ee1&#45;42ac&#45;8add&#45;75dff91a2175 -->
<g id="node51" class="node"><title>pr_1a8c5070&#45;9ee1&#45;42ac&#45;8add&#45;75dff91a2175</title>
<polygon fill="none" stroke="black" points="548.5,-381.184 449.5,-381.184 449.5,-282.184 548.5,-282.184 548.5,-381.184"/>
<text text-anchor="middle" x="499" y="-330.484" font-family="Times,serif" font-size="4.00">pr_1a8c5070&#45;9ee1&#45;42ac&#45;8add&#45;75dff91a2175</text>
</g>
<!-- SERPINF2&#45;&gt;pr_1a8c5070&#45;9ee1&#45;42ac&#45;8add&#45;75dff91a2175 -->
<g id="edge35" class="edge"><title>SERPINF2&#45;&gt;pr_1a8c5070&#45;9ee1&#45;42ac&#45;8add&#45;75dff91a2175</title>
<path fill="none" stroke="black" d="M504.244,-244.918C505.051,-252.555 505.533,-261.954 505.692,-271.7"/>
<polygon fill="black" stroke="black" points="502.193,-271.938 505.74,-281.921 509.193,-271.905 502.193,-271.938"/>
</g>
<!-- IFNB1 -->
<g id="node27" class="node"><title>IFNB1</title>
<ellipse fill="none" stroke="black" cx="499" cy="-18" rx="18" ry="18"/>
<text text-anchor="middle" x="499" y="-16.8" font-family="Times,serif" font-size="4.00">IFNB1</text>
</g>
<!-- pr_fd80226f&#45;89d9&#45;46a3&#45;a2d7&#45;ae5ff73b8ce2&#45;&gt;IFNB1 -->
<g id="edge36" class="edge"><title>pr_fd80226f&#45;89d9&#45;46a3&#45;a2d7&#45;ae5ff73b8ce2&#45;&gt;IFNB1</title>
<path fill="none" stroke="black" d="M499,-72.4252C499,-63.5479 499,-54.5612 499,-46.5556"/>
<polygon fill="black" stroke="black" points="502.5,-46.3493 499,-36.3493 495.5,-46.3494 502.5,-46.3493"/>
</g>
<!-- pr_e5b2c47a&#45;742c&#45;4129&#45;8fba&#45;109b85ee5b6d&#45;&gt;Pro_IL1b -->
<g id="edge37" class="edge"><title>pr_e5b2c47a&#45;742c&#45;4129&#45;8fba&#45;109b85ee5b6d&#45;&gt;Pro_IL1b</title>
<path fill="none" stroke="black" d="M125.67,-743.162C125.957,-686.153 132.186,-590.549 166,-516.763 174.547,-498.113 190.064,-480.805 202.899,-468.554"/>
<polygon fill="black" stroke="black" points="205.459,-470.955 210.457,-461.613 200.724,-465.799 205.459,-470.955"/>
</g>
<!-- TLR3 -->
<g id="node29" class="node"><title>TLR3</title>
<ellipse fill="none" stroke="black" cx="736" cy="-1126.51" rx="18" ry="18"/>
<text text-anchor="middle" x="736" y="-1125.31" font-family="Times,serif" font-size="4.00">TLR3</text>
</g>
<!-- pr_93aa2473&#45;7b0a&#45;40a2&#45;bf09&#45;55b4d179aa88 -->
<g id="node30" class="node"><title>pr_93aa2473&#45;7b0a&#45;40a2&#45;bf09&#45;55b4d179aa88</title>
<polygon fill="none" stroke="black" points="804,-1069.33 704,-1069.33 704,-969.329 804,-969.329 804,-1069.33"/>
<text text-anchor="middle" x="754" y="-1018.13" font-family="Times,serif" font-size="4.00">pr_93aa2473&#45;7b0a&#45;40a2&#45;bf09&#45;55b4d179aa88</text>
</g>
<!-- TLR3&#45;&gt;pr_93aa2473&#45;7b0a&#45;40a2&#45;bf09&#45;55b4d179aa88 -->
<g id="edge38" class="edge"><title>TLR3&#45;&gt;pr_93aa2473&#45;7b0a&#45;40a2&#45;bf09&#45;55b4d179aa88</title>
<path fill="none" stroke="black" d="M733.777,-1108.61C734.268,-1100.43 735.511,-1090.07 737.196,-1079.34"/>
<polygon fill="black" stroke="black" points="740.653,-1079.89 738.858,-1069.45 733.75,-1078.73 740.653,-1079.89"/>
</g>
<!-- pr_d6629e16&#45;1b62&#45;43f6&#45;ba10&#45;74341965bf63 -->
<g id="node33" class="node"><title>pr_d6629e16&#45;1b62&#45;43f6&#45;ba10&#45;74341965bf63</title>
<polygon fill="none" stroke="black" points="647.5,-1068.83 548.5,-1068.83 548.5,-969.829 647.5,-969.829 647.5,-1068.83"/>
<text text-anchor="middle" x="598" y="-1018.13" font-family="Times,serif" font-size="4.00">pr_d6629e16&#45;1b62&#45;43f6&#45;ba10&#45;74341965bf63</text>
</g>
<!-- TLR3&#45;&gt;pr_d6629e16&#45;1b62&#45;43f6&#45;ba10&#45;74341965bf63 -->
<g id="edge39" class="edge"><title>TLR3&#45;&gt;pr_d6629e16&#45;1b62&#45;43f6&#45;ba10&#45;74341965bf63</title>
<path fill="none" stroke="black" d="M722.008,-1114.85C706.433,-1102.98 680.245,-1083.02 655.938,-1064.49"/>
<polygon fill="black" stroke="black" points="657.86,-1061.55 647.785,-1058.27 653.617,-1067.12 657.86,-1061.55"/>
</g>
<!-- pr_93aa2473&#45;7b0a&#45;40a2&#45;bf09&#45;55b4d179aa88&#45;&gt;TLR3 -->
<g id="edge40" class="edge"><title>pr_93aa2473&#45;7b0a&#45;40a2&#45;bf09&#45;55b4d179aa88&#45;&gt;TLR3</title>
<path fill="none" stroke="black" d="M752.29,-1069.7C750.567,-1080.2 748.454,-1090.87 746.24,-1100.03"/>
<polygon fill="black" stroke="black" points="742.779,-1099.43 743.611,-1109.99 749.547,-1101.22 742.779,-1099.43"/>
</g>
<!-- dsRNA -->
<g id="node31" class="node"><title>dsRNA</title>
<ellipse fill="none" stroke="black" cx="790" cy="-1126.51" rx="18" ry="18"/>
<text text-anchor="middle" x="790" y="-1125.31" font-family="Times,serif" font-size="4.00">dsRNA</text>
</g>
<!-- dsRNA&#45;&gt;pr_93aa2473&#45;7b0a&#45;40a2&#45;bf09&#45;55b4d179aa88 -->
<g id="edge41" class="edge"><title>dsRNA&#45;&gt;pr_93aa2473&#45;7b0a&#45;40a2&#45;bf09&#45;55b4d179aa88</title>
<path fill="none" stroke="black" d="M784.375,-1109.08C781.53,-1100.76 777.886,-1090.12 774.116,-1079.1"/>
<polygon fill="black" stroke="black" points="777.338,-1077.71 770.788,-1069.38 770.715,-1079.97 777.338,-1077.71"/>
</g>
<!-- TICAM1 -->
<g id="node32" class="node"><title>TICAM1</title>
<ellipse fill="none" stroke="black" cx="598" cy="-1126.51" rx="18" ry="18"/>
<text text-anchor="middle" x="598" y="-1125.31" font-family="Times,serif" font-size="4.00">TICAM1</text>
</g>
<!-- TICAM1&#45;&gt;pr_d6629e16&#45;1b62&#45;43f6&#45;ba10&#45;74341965bf63 -->
<g id="edge42" class="edge"><title>TICAM1&#45;&gt;pr_d6629e16&#45;1b62&#45;43f6&#45;ba10&#45;74341965bf63</title>
<path fill="none" stroke="black" d="M592.938,-1109.08C591.989,-1100.76 591.44,-1090.11 591.291,-1079.09"/>
<polygon fill="black" stroke="black" points="594.791,-1078.91 591.267,-1068.92 587.791,-1078.93 594.791,-1078.91"/>
</g>
<!-- TICAM1&#45;&gt;pr_07a4c1e7&#45;e270&#45;448b&#45;aff2&#45;8e11e8c79f88 -->
<g id="edge43" class="edge"><title>TICAM1&#45;&gt;pr_07a4c1e7&#45;e270&#45;448b&#45;aff2&#45;8e11e8c79f88</title>
<path fill="none" stroke="black" d="M585.032,-1113.85C573.371,-1103.37 555.392,-1087.21 537.642,-1071.25"/>
<polygon fill="black" stroke="black" points="539.844,-1068.52 530.068,-1064.44 535.164,-1073.73 539.844,-1068.52"/>
</g>
<!-- pr_d6629e16&#45;1b62&#45;43f6&#45;ba10&#45;74341965bf63&#45;&gt;TICAM1 -->
<g id="edge44" class="edge"><title>pr_d6629e16&#45;1b62&#45;43f6&#45;ba10&#45;74341965bf63&#45;&gt;TICAM1</title>
<path fill="none" stroke="black" d="M604.733,-1068.92C604.823,-1079.3 604.561,-1089.89 603.946,-1099.06"/>
<polygon fill="black" stroke="black" points="600.455,-1098.81 603.062,-1109.08 607.428,-1099.42 600.455,-1098.81"/>
</g>
<!-- TRIM38 -->
<g id="node34" class="node"><title>TRIM38</title>
<ellipse fill="none" stroke="black" cx="664" cy="-1126.51" rx="18" ry="18"/>
<text text-anchor="middle" x="664" y="-1125.31" font-family="Times,serif" font-size="4.00">TRIM38</text>
</g>
<!-- TRIM38&#45;&gt;pr_d6629e16&#45;1b62&#45;43f6&#45;ba10&#45;74341965bf63 -->
<g id="edge45" class="edge"><title>TRIM38&#45;&gt;pr_d6629e16&#45;1b62&#45;43f6&#45;ba10&#45;74341965bf63</title>
<path fill="none" stroke="black" d="M654.823,-1110.89C649.24,-1101.99 641.709,-1089.99 633.958,-1077.63"/>
<polygon fill="black" stroke="black" points="636.859,-1075.67 628.579,-1069.06 630.929,-1079.39 636.859,-1075.67"/>
</g>
<!-- TRIM38&#45;&gt;pr_9eacb259&#45;d179&#45;4e72&#45;832a&#45;ecb4fd2cc122 -->
<g id="edge46" class="edge"><title>TRIM38&#45;&gt;pr_9eacb259&#45;d179&#45;4e72&#45;832a&#45;ecb4fd2cc122</title>
<path fill="none" stroke="black" d="M665.569,-1108.55C668.822,-1071.88 676,-982.432 676,-907.312 676,-907.312 676,-907.312 676,-792.296 676,-734.714 657.277,-671.553 640.748,-627.016"/>
<polygon fill="black" stroke="black" points="643.968,-625.636 637.154,-617.523 637.422,-628.114 643.968,-625.636"/>
</g>
<!-- pr_cce71908&#45;b487&#45;4c99&#45;a39e&#45;9822d5921c0d&#45;&gt;TRIM59 -->
<g id="edge47" class="edge"><title>pr_cce71908&#45;b487&#45;4c99&#45;a39e&#45;9822d5921c0d&#45;&gt;TRIM59</title>
<path fill="none" stroke="black" d="M356.283,-968.665C356.146,-956.668 356.433,-944.302 357.145,-933.844"/>
<polygon fill="black" stroke="black" points="360.645,-934 358.04,-923.73 353.672,-933.383 360.645,-934"/>
</g>
<!-- TLR7/8/9 -->
<g id="node36" class="node"><title>TLR7/8/9</title>
<ellipse fill="none" stroke="black" cx="827" cy="-680.279" rx="18.0625" ry="18.0625"/>
<text text-anchor="middle" x="827" y="-679.079" font-family="Times,serif" font-size="4.00">TLR7/8/9</text>
</g>
<!-- pr_daa63c12&#45;ac4e&#45;4d3c&#45;aa8d&#45;91daf0726023 -->
<g id="node37" class="node"><title>pr_daa63c12&#45;ac4e&#45;4d3c&#45;aa8d&#45;91daf0726023</title>
<polygon fill="none" stroke="black" points="904,-617.263 804,-617.263 804,-517.263 904,-517.263 904,-617.263"/>
<text text-anchor="middle" x="854" y="-566.063" font-family="Times,serif" font-size="4.00">pr_daa63c12&#45;ac4e&#45;4d3c&#45;aa8d&#45;91daf0726023</text>
</g>
<!-- TLR7/8/9&#45;&gt;pr_daa63c12&#45;ac4e&#45;4d3c&#45;aa8d&#45;91daf0726023 -->
<g id="edge48" class="edge"><title>TLR7/8/9&#45;&gt;pr_daa63c12&#45;ac4e&#45;4d3c&#45;aa8d&#45;91daf0726023</title>
<path fill="none" stroke="black" d="M826.156,-661.933C827.431,-652.501 829.86,-640.221 832.816,-627.674"/>
<polygon fill="black" stroke="black" points="836.303,-628.149 835.287,-617.603 829.505,-626.48 836.303,-628.149"/>
</g>
<!-- pr_9aac3997&#45;4961&#45;4d65&#45;b619&#45;dd4eb34c9cc7 -->
<g id="node40" class="node"><title>pr_9aac3997&#45;4961&#45;4d65&#45;b619&#45;dd4eb34c9cc7</title>
<polygon fill="none" stroke="black" points="785.5,-617.763 684.5,-617.763 684.5,-516.763 785.5,-516.763 785.5,-617.763"/>
<text text-anchor="middle" x="735" y="-566.063" font-family="Times,serif" font-size="4.00">pr_9aac3997&#45;4961&#45;4d65&#45;b619&#45;dd4eb34c9cc7</text>
</g>
<!-- TLR7/8/9&#45;&gt;pr_9aac3997&#45;4961&#45;4d65&#45;b619&#45;dd4eb34c9cc7 -->
<g id="edge49" class="edge"><title>TLR7/8/9&#45;&gt;pr_9aac3997&#45;4961&#45;4d65&#45;b619&#45;dd4eb34c9cc7</title>
<path fill="none" stroke="black" d="M815.719,-665.666C807.22,-655.411 794.941,-640.594 782.515,-625.599"/>
<polygon fill="black" stroke="black" points="785.098,-623.231 776.022,-617.764 779.708,-627.697 785.098,-623.231"/>
</g>
<!-- pr_daa63c12&#45;ac4e&#45;4d3c&#45;aa8d&#45;91daf0726023&#45;&gt;TLR7/8/9 -->
<g id="edge50" class="edge"><title>pr_daa63c12&#45;ac4e&#45;4d3c&#45;aa8d&#45;91daf0726023&#45;&gt;TLR7/8/9</title>
<path fill="none" stroke="black" d="M848.712,-617.608C845.747,-630.434 842.189,-643.705 838.714,-654.636"/>
<polygon fill="black" stroke="black" points="835.331,-653.713 835.43,-664.307 841.959,-655.963 835.331,-653.713"/>
</g>
<!-- ssRNA -->
<g id="node38" class="node"><title>ssRNA</title>
<ellipse fill="none" stroke="black" cx="881" cy="-680.279" rx="18" ry="18"/>
<text text-anchor="middle" x="881" y="-679.079" font-family="Times,serif" font-size="4.00">ssRNA</text>
</g>
<!-- ssRNA&#45;&gt;pr_daa63c12&#45;ac4e&#45;4d3c&#45;aa8d&#45;91daf0726023 -->
<g id="edge51" class="edge"><title>ssRNA&#45;&gt;pr_daa63c12&#45;ac4e&#45;4d3c&#45;aa8d&#45;91daf0726023</title>
<path fill="none" stroke="black" d="M876.899,-662.418C874.572,-652.848 871.504,-640.234 868.373,-627.362"/>
<polygon fill="black" stroke="black" points="871.742,-626.404 865.978,-617.514 864.941,-628.058 871.742,-626.404"/>
</g>
<!-- MYD88 -->
<g id="node39" class="node"><title>MYD88</title>
<ellipse fill="none" stroke="black" cx="735" cy="-680.279" rx="18" ry="18"/>
<text text-anchor="middle" x="735" y="-679.079" font-family="Times,serif" font-size="4.00">MYD88</text>
</g>
<!-- MYD88&#45;&gt;pr_9aac3997&#45;4961&#45;4d65&#45;b619&#45;dd4eb34c9cc7 -->
<g id="edge52" class="edge"><title>MYD88&#45;&gt;pr_9aac3997&#45;4961&#45;4d65&#45;b619&#45;dd4eb34c9cc7</title>
<path fill="none" stroke="black" d="M730.045,-662.898C728.972,-653.475 728.38,-640.991 728.269,-628.191"/>
<polygon fill="black" stroke="black" points="731.769,-627.916 728.284,-617.911 724.769,-627.906 731.769,-627.916"/>
</g>
<!-- MYD88&#45;&gt;pr_9eacb259&#45;d179&#45;4e72&#45;832a&#45;ecb4fd2cc122 -->
<g id="edge53" class="edge"><title>MYD88&#45;&gt;pr_9eacb259&#45;d179&#45;4e72&#45;832a&#45;ecb4fd2cc122</title>
<path fill="none" stroke="black" d="M722.265,-667.399C710.461,-656.386 692.022,-639.185 673.797,-622.182"/>
<polygon fill="black" stroke="black" points="675.719,-619.189 666.019,-614.926 670.944,-624.307 675.719,-619.189"/>
</g>
<!-- pr_9aac3997&#45;4961&#45;4d65&#45;b619&#45;dd4eb34c9cc7&#45;&gt;MYD88 -->
<g id="edge54" class="edge"><title>pr_9aac3997&#45;4961&#45;4d65&#45;b619&#45;dd4eb34c9cc7&#45;&gt;MYD88</title>
<path fill="none" stroke="black" d="M741.716,-617.911C741.854,-629.924 741.567,-642.308 740.853,-652.777"/>
<polygon fill="black" stroke="black" points="737.353,-652.628 739.955,-662.898 744.325,-653.247 737.353,-652.628"/>
</g>
<!-- pr_9eacb259&#45;d179&#45;4e72&#45;832a&#45;ecb4fd2cc122&#45;&gt;TRAF6 -->
<g id="edge55" class="edge"><title>pr_9eacb259&#45;d179&#45;4e72&#45;832a&#45;ecb4fd2cc122&#45;&gt;TRAF6</title>
<path fill="none" stroke="black" d="M598.756,-617.512C592.236,-631.263 584.905,-645.533 578.433,-656.889"/>
<polygon fill="black" stroke="black" points="575.319,-655.278 573.236,-665.666 581.343,-658.845 575.319,-655.278"/>
</g>
<!-- TRIM23 -->
<g id="node42" class="node"><title>TRIM23</title>
<ellipse fill="none" stroke="black" cx="616" cy="-680.279" rx="18" ry="18"/>
<text text-anchor="middle" x="616" y="-679.079" font-family="Times,serif" font-size="4.00">TRIM23</text>
</g>
<!-- TRIM23&#45;&gt;pr_9eacb259&#45;d179&#45;4e72&#45;832a&#45;ecb4fd2cc122 -->
<g id="edge56" class="edge"><title>TRIM23&#45;&gt;pr_9eacb259&#45;d179&#45;4e72&#45;832a&#45;ecb4fd2cc122</title>
<path fill="none" stroke="black" d="M616,-661.933C616,-652.501 616,-640.221 616,-627.674"/>
<polygon fill="black" stroke="black" points="619.5,-627.603 616,-617.603 612.5,-627.603 619.5,-627.603"/>
</g>
<!-- TAB2/TAB3/TAK1 -->
<g id="node43" class="node"><title>TAB2/TAB3/TAK1</title>
<ellipse fill="none" stroke="black" cx="499" cy="-449.473" rx="27.0938" ry="27.0938"/>
<text text-anchor="middle" x="499" y="-448.273" font-family="Times,serif" font-size="4.00">TAB2/TAB3/TAK1</text>
</g>
<!-- TAB2/TAB3/TAK1&#45;&gt;pr_857df342&#45;2879&#45;427f&#45;8438&#45;459b7b8f3d40 -->
<g id="edge57" class="edge"><title>TAB2/TAB3/TAK1&#45;&gt;pr_857df342&#45;2879&#45;427f&#45;8438&#45;459b7b8f3d40</title>
<path fill="none" stroke="black" d="M504.717,-476.13C505.397,-485.6 505.741,-496.758 505.75,-507.938"/>
<polygon fill="black" stroke="black" points="502.248,-508.134 505.663,-518.163 509.248,-508.193 502.248,-508.134"/>
</g>
<!-- TAB2/TAB3/TAK1&#45;&gt;pr_26afc2e6&#45;70c7&#45;4bce&#45;98ee&#45;2e563f522d93 -->
<g id="edge58" class="edge"><title>TAB2/TAB3/TAK1&#45;&gt;pr_26afc2e6&#45;70c7&#45;4bce&#45;98ee&#45;2e563f522d93</title>
<path fill="none" stroke="black" d="M519.493,-431.172C524.798,-426.84 530.552,-422.265 536,-418.184 557.456,-402.11 581.65,-385.277 602.998,-370.839"/>
<polygon fill="black" stroke="black" points="604.997,-373.713 611.336,-365.223 601.086,-367.907 604.997,-373.713"/>
</g>
<!-- TAB2/TAB3/TAK1&#45;&gt;pr_1a8c5070&#45;9ee1&#45;42ac&#45;8add&#45;75dff91a2175 -->
<g id="edge59" class="edge"><title>TAB2/TAB3/TAK1&#45;&gt;pr_1a8c5070&#45;9ee1&#45;42ac&#45;8add&#45;75dff91a2175</title>
<path fill="none" stroke="black" d="M499,-422.199C499,-413.097 499,-402.492 499,-391.829"/>
<polygon fill="black" stroke="black" points="502.5,-391.637 499,-381.637 495.5,-391.637 502.5,-391.637"/>
</g>
<!-- pr_857df342&#45;2879&#45;427f&#45;8438&#45;459b7b8f3d40&#45;&gt;TAB2/TAB3/TAK1 -->
<g id="edge60" class="edge"><title>pr_857df342&#45;2879&#45;427f&#45;8438&#45;459b7b8f3d40&#45;&gt;TAB2/TAB3/TAK1</title>
<path fill="none" stroke="black" d="M492.337,-518.163C492.146,-507.465 492.27,-496.306 492.71,-486.207"/>
<polygon fill="black" stroke="black" points="496.21,-486.313 493.283,-476.13 489.221,-485.916 496.21,-486.313"/>
</g>
<!-- TRIM30a/TRIM38 -->
<g id="node45" class="node"><title>TRIM30a/TRIM38</title>
<ellipse fill="none" stroke="black" cx="499" cy="-680.279" rx="26.533" ry="26.533"/>
<text text-anchor="middle" x="499" y="-679.079" font-family="Times,serif" font-size="4.00">TRIM30a/TRIM38</text>
</g>
<!-- TRIM30a/TRIM38&#45;&gt;pr_857df342&#45;2879&#45;427f&#45;8438&#45;459b7b8f3d40 -->
<g id="edge61" class="edge"><title>TRIM30a/TRIM38&#45;&gt;pr_857df342&#45;2879&#45;427f&#45;8438&#45;459b7b8f3d40</title>
<path fill="none" stroke="black" d="M499,-653.531C499,-645.44 499,-636.152 499,-626.749"/>
<polygon fill="black" stroke="black" points="502.5,-626.552 499,-616.553 495.5,-626.553 502.5,-626.552"/>
</g>
<!-- TRIM22 -->
<g id="node47" class="node"><title>TRIM22</title>
<ellipse fill="none" stroke="black" cx="753" cy="-449.473" rx="18" ry="18"/>
<text text-anchor="middle" x="753" y="-448.273" font-family="Times,serif" font-size="4.00">TRIM22</text>
</g>
<!-- TRIM22&#45;&gt;pr_26afc2e6&#45;70c7&#45;4bce&#45;98ee&#45;2e563f522d93 -->
<g id="edge62" class="edge"><title>TRIM22&#45;&gt;pr_26afc2e6&#45;70c7&#45;4bce&#45;98ee&#45;2e563f522d93</title>
<path fill="none" stroke="black" d="M742.085,-434.736C733.045,-423.359 719.555,-406.38 706.16,-389.521"/>
<polygon fill="black" stroke="black" points="708.572,-386.931 699.611,-381.279 703.092,-391.286 708.572,-386.931"/>
</g>
<!-- TRIM27/TRIM21 -->
<g id="node48" class="node"><title>TRIM27/TRIM21</title>
<ellipse fill="none" stroke="black" cx="570" cy="-449.473" rx="25.4118" ry="25.4118"/>
<text text-anchor="middle" x="570" y="-448.273" font-family="Times,serif" font-size="4.00">TRIM27/TRIM21</text>
</g>
<!-- TRIM27/TRIM21&#45;&gt;pr_26afc2e6&#45;70c7&#45;4bce&#45;98ee&#45;2e563f522d93 -->
<g id="edge63" class="edge"><title>TRIM27/TRIM21&#45;&gt;pr_26afc2e6&#45;70c7&#45;4bce&#45;98ee&#45;2e563f522d93</title>
<path fill="none" stroke="black" d="M585.437,-428.831C594.08,-417.834 605.341,-403.504 616.521,-389.279"/>
<polygon fill="black" stroke="black" points="619.279,-391.434 622.707,-381.409 613.776,-387.109 619.279,-391.434"/>
</g>
<!-- TRIM29 -->
<g id="node49" class="node"><title>TRIM29</title>
<ellipse fill="none" stroke="black" cx="631" cy="-449.473" rx="18" ry="18"/>
<text text-anchor="middle" x="631" y="-448.273" font-family="Times,serif" font-size="4.00">TRIM29</text>
</g>
<!-- TRIM29&#45;&gt;pr_26afc2e6&#45;70c7&#45;4bce&#45;98ee&#45;2e563f522d93 -->
<g id="edge64" class="edge"><title>TRIM29&#45;&gt;pr_26afc2e6&#45;70c7&#45;4bce&#45;98ee&#45;2e563f522d93</title>
<path fill="none" stroke="black" d="M635.298,-431.883C638.116,-421.009 641.985,-406.077 645.865,-391.098"/>
<polygon fill="black" stroke="black" points="649.286,-391.849 648.406,-381.291 642.51,-390.093 649.286,-391.849"/>
</g>
<!-- TRIM14/TRIM23 -->
<g id="node50" class="node"><title>TRIM14/TRIM23</title>
<ellipse fill="none" stroke="black" cx="692" cy="-449.473" rx="25.4118" ry="25.4118"/>
<text text-anchor="middle" x="692" y="-448.273" font-family="Times,serif" font-size="4.00">TRIM14/TRIM23</text>
</g>
<!-- TRIM14/TRIM23&#45;&gt;pr_26afc2e6&#45;70c7&#45;4bce&#45;98ee&#45;2e563f522d93 -->
<g id="edge65" class="edge"><title>TRIM14/TRIM23&#45;&gt;pr_26afc2e6&#45;70c7&#45;4bce&#45;98ee&#45;2e563f522d93</title>
<path fill="none" stroke="black" d="M685.652,-424.762C683.022,-414.941 679.846,-403.075 676.66,-391.176"/>
<polygon fill="black" stroke="black" points="679.961,-389.971 673.993,-381.216 673.199,-391.781 679.961,-389.971"/>
</g>
<!-- pr_1a8c5070&#45;9ee1&#45;42ac&#45;8add&#45;75dff91a2175&#45;&gt;SERPINF2 -->
<g id="edge66" class="edge"><title>pr_1a8c5070&#45;9ee1&#45;42ac&#45;8add&#45;75dff91a2175&#45;&gt;SERPINF2</title>
<path fill="none" stroke="black" d="M492.26,-281.921C492.198,-272.726 492.42,-263.403 492.926,-255.117"/>
<polygon fill="black" stroke="black" points="496.433,-255.169 493.756,-244.918 489.457,-254.602 496.433,-255.169"/>
</g>
<!-- pr_07a4c1e7&#45;e270&#45;448b&#45;aff2&#45;8e11e8c79f88&#45;&gt;TRAF3 -->
<g id="edge67" class="edge"><title>pr_07a4c1e7&#45;e270&#45;448b&#45;aff2&#45;8e11e8c79f88&#45;&gt;TRAF3</title>
<path fill="none" stroke="black" d="M487.728,-1068.46C487.83,-1078.94 487.572,-1089.67 486.954,-1098.95"/>
<polygon fill="black" stroke="black" points="483.453,-1098.81 486.062,-1109.08 490.426,-1099.42 483.453,-1098.81"/>
</g>
<!-- NFKB1 -->
<g id="node54" class="node"><title>NFKB1</title>
<ellipse fill="none" stroke="black" cx="849" cy="-18" rx="18" ry="18"/>
<text text-anchor="middle" x="849" y="-16.8" font-family="Times,serif" font-size="4.00">NFKB1</text>
</g>
<!-- pr_70cac896&#45;01f0&#45;41a0&#45;8f01&#45;352b4369132b&#45;&gt;NFKB1 -->
<g id="edge68" class="edge"><title>pr_70cac896&#45;01f0&#45;41a0&#45;8f01&#45;352b4369132b&#45;&gt;NFKB1</title>
<path fill="none" stroke="black" d="M849,-71.831C849,-63.0165 849,-54.1181 849,-46.2018"/>
<polygon fill="black" stroke="black" points="852.5,-46.1158 849,-36.1159 845.5,-46.1159 852.5,-46.1158"/>
</g>
</g>
</svg>
