<?xml version="1.0" encoding="UTF-8" standalone="no"?>
<!DOCTYPE svg PUBLIC "-//W3C//DTD SVG 1.1//EN"
 "http://www.w3.org/Graphics/SVG/1.1/DTD/svg11.dtd">
<!-- Generated by graphviz version 2.38.0 (20140413.2041)
 -->
<!-- Title: G Pages: 1 -->
<svg width="925pt" height="264pt"
 viewBox="0.00 0.00 924.50 263.73" xmlns="http://www.w3.org/2000/svg" xmlns:xlink="http://www.w3.org/1999/xlink">
<g id="graph0" class="graph" transform="scale(1 1) rotate(0) translate(4 259.73)">
<title>G</title>
<polygon fill="white" stroke="none" points="-4,4 -4,-259.73 920.5,-259.73 920.5,4 -4,4"/>
<!-- IFNB1 -->
<g id="node1" class="node"><title>IFNB1</title>
<ellipse fill="none" stroke="black" cx="108.5" cy="-237.73" rx="18" ry="18"/>
<text text-anchor="middle" x="108.5" y="-236.53" font-family="Times,serif" font-size="4.00">IFNB1</text>
</g>
<!-- pr_035be5b1&#45;1075&#45;4917&#45;a291&#45;f67dcb41f1dd -->
<g id="node2" class="node"><title>pr_035be5b1&#45;1075&#45;4917&#45;a291&#45;f67dcb41f1dd</title>
<polygon fill="none" stroke="black" points="99,-183.23 0,-183.23 0,-84.2297 99,-84.2297 99,-183.23"/>
<text text-anchor="middle" x="49.5" y="-132.53" font-family="Times,serif" font-size="4.00">pr_035be5b1&#45;1075&#45;4917&#45;a291&#45;f67dcb41f1dd</text>
</g>
<!-- IFNB1&#45;&gt;pr_035be5b1&#45;1075&#45;4917&#45;a291&#45;f67dcb41f1dd -->
<g id="edge1" class="edge"><title>IFNB1&#45;&gt;pr_035be5b1&#45;1075&#45;4917&#45;a291&#45;f67dcb41f1dd</title>
<path fill="none" stroke="black" d="M96.3544,-223.811C90.3927,-215.529 83.1254,-204.134 76.0757,-192.258"/>
<polygon fill="black" stroke="black" points="79.0654,-190.437 71.0026,-183.564 73.0193,-193.965 79.0654,-190.437"/>
</g>
<!-- pr_3596afab&#45;37c5&#45;4b34&#45;8b8d&#45;dd1f4fd8922e -->
<g id="node3" class="node"><title>pr_3596afab&#45;37c5&#45;4b34&#45;8b8d&#45;dd1f4fd8922e</title>
<polygon fill="none" stroke="black" points="215.5,-182.73 117.5,-182.73 117.5,-84.7297 215.5,-84.7297 215.5,-182.73"/>
<text text-anchor="middle" x="166.5" y="-132.53" font-family="Times,serif" font-size="4.00">pr_3596afab&#45;37c5&#45;4b34&#45;8b8d&#45;dd1f4fd8922e</text>
</g>
<!-- IFNB1&#45;&gt;pr_3596afab&#45;37c5&#45;4b34&#45;8b8d&#45;dd1f4fd8922e -->
<g id="edge2" class="edge"><title>IFNB1&#45;&gt;pr_3596afab&#45;37c5&#45;4b34&#45;8b8d&#45;dd1f4fd8922e</title>
<path fill="none" stroke="black" d="M112.911,-219.886C116.547,-211.929 121.725,-201.919 127.461,-191.584"/>
<polygon fill="black" stroke="black" points="130.516,-193.292 132.389,-182.864 124.422,-189.848 130.516,-193.292"/>
</g>
<!-- pr_035be5b1&#45;1075&#45;4917&#45;a291&#45;f67dcb41f1dd&#45;&gt;IFNB1 -->
<g id="edge3" class="edge"><title>pr_035be5b1&#45;1075&#45;4917&#45;a291&#45;f67dcb41f1dd&#45;&gt;IFNB1</title>
<path fill="none" stroke="black" d="M84.342,-183.307C89.8603,-192.756 95.1334,-202.316 99.4085,-210.686"/>
<polygon fill="black" stroke="black" points="96.3761,-212.451 103.924,-219.886 102.66,-209.367 96.3761,-212.451"/>
</g>
<!-- pr_3596afab&#45;37c5&#45;4b34&#45;8b8d&#45;dd1f4fd8922e&#45;&gt;IFNB1 -->
<g id="edge4" class="edge"><title>pr_3596afab&#45;37c5&#45;4b34&#45;8b8d&#45;dd1f4fd8922e&#45;&gt;IFNB1</title>
<path fill="none" stroke="black" d="M145.738,-183.1C139.341,-194.47 132.397,-206.015 126.195,-215.466"/>
<polygon fill="black" stroke="black" points="123.249,-213.574 120.519,-223.811 129.037,-217.511 123.249,-213.574"/>
</g>
<!-- STOML2 -->
<g id="node4" class="node"><title>STOML2</title>
<ellipse fill="none" stroke="black" cx="514.5" cy="-237.73" rx="18" ry="18"/>
<text text-anchor="middle" x="514.5" y="-236.53" font-family="Times,serif" font-size="4.00">STOML2</text>
</g>
<!-- pr_2e4dc23f&#45;7476&#45;4279&#45;b44f&#45;61f6f2202f6d -->
<g id="node5" class="node"><title>pr_2e4dc23f&#45;7476&#45;4279&#45;b44f&#45;61f6f2202f6d</title>
<polygon fill="none" stroke="black" points="330,-182.23 233,-182.23 233,-85.2297 330,-85.2297 330,-182.23"/>
<text text-anchor="middle" x="281.5" y="-132.53" font-family="Times,serif" font-size="4.00">pr_2e4dc23f&#45;7476&#45;4279&#45;b44f&#45;61f6f2202f6d</text>
</g>
<!-- STOML2&#45;&gt;pr_2e4dc23f&#45;7476&#45;4279&#45;b44f&#45;61f6f2202f6d -->
<g id="edge5" class="edge"><title>STOML2&#45;&gt;pr_2e4dc23f&#45;7476&#45;4279&#45;b44f&#45;61f6f2202f6d</title>
<path fill="none" stroke="black" d="M497.495,-231.816C459.924,-220.935 371.129,-195.078 339.743,-182.961"/>
<polygon fill="black" stroke="black" points="340.886,-179.64 330.324,-178.81 338.063,-186.046 340.886,-179.64"/>
</g>
<!-- pr_58f1e2ba&#45;80a7&#45;4212&#45;a9f8&#45;802235067d06 -->
<g id="node9" class="node"><title>pr_58f1e2ba&#45;80a7&#45;4212&#45;a9f8&#45;802235067d06</title>
<polygon fill="none" stroke="black" points="447,-183.23 348,-183.23 348,-84.2297 447,-84.2297 447,-183.23"/>
<text text-anchor="middle" x="397.5" y="-132.53" font-family="Times,serif" font-size="4.00">pr_58f1e2ba&#45;80a7&#45;4212&#45;a9f8&#45;802235067d06</text>
</g>
<!-- STOML2&#45;&gt;pr_58f1e2ba&#45;80a7&#45;4212&#45;a9f8&#45;802235067d06 -->
<g id="edge6" class="edge"><title>STOML2&#45;&gt;pr_58f1e2ba&#45;80a7&#45;4212&#45;a9f8&#45;802235067d06</title>
<path fill="none" stroke="black" d="M501.079,-225.029C489.627,-215.046 472.328,-199.965 455.13,-184.971"/>
<polygon fill="black" stroke="black" points="457.094,-182.04 447.256,-178.107 452.494,-187.317 457.094,-182.04"/>
</g>
<!-- pr_6cd0282c&#45;1d10&#45;4945&#45;8626&#45;c42dfd2df100 -->
<g id="node11" class="node"><title>pr_6cd0282c&#45;1d10&#45;4945&#45;8626&#45;c42dfd2df100</title>
<polygon fill="none" stroke="black" points="798,-183.23 699,-183.23 699,-84.2297 798,-84.2297 798,-183.23"/>
<text text-anchor="middle" x="748.5" y="-132.53" font-family="Times,serif" font-size="4.00">pr_6cd0282c&#45;1d10&#45;4945&#45;8626&#45;c42dfd2df100</text>
</g>
<!-- STOML2&#45;&gt;pr_6cd0282c&#45;1d10&#45;4945&#45;8626&#45;c42dfd2df100 -->
<g id="edge7" class="edge"><title>STOML2&#45;&gt;pr_6cd0282c&#45;1d10&#45;4945&#45;8626&#45;c42dfd2df100</title>
<path fill="none" stroke="black" d="M532.158,-233.88C563.346,-228.353 629.861,-214.328 689.639,-183.658"/>
<polygon fill="black" stroke="black" points="691.594,-186.582 698.786,-178.802 688.312,-180.4 691.594,-186.582"/>
</g>
<!-- pr_96a66e43&#45;58ff&#45;4361&#45;88fc&#45;3d0efbad8503 -->
<g id="node17" class="node"><title>pr_96a66e43&#45;58ff&#45;4361&#45;88fc&#45;3d0efbad8503</title>
<polygon fill="none" stroke="black" points="563.5,-182.73 465.5,-182.73 465.5,-84.7297 563.5,-84.7297 563.5,-182.73"/>
<text text-anchor="middle" x="514.5" y="-132.53" font-family="Times,serif" font-size="4.00">pr_96a66e43&#45;58ff&#45;4361&#45;88fc&#45;3d0efbad8503</text>
</g>
<!-- STOML2&#45;&gt;pr_96a66e43&#45;58ff&#45;4361&#45;88fc&#45;3d0efbad8503 -->
<g id="edge8" class="edge"><title>STOML2&#45;&gt;pr_96a66e43&#45;58ff&#45;4361&#45;88fc&#45;3d0efbad8503</title>
<path fill="none" stroke="black" d="M514.5,-219.427C514.5,-211.918 514.5,-202.645 514.5,-193.019"/>
<polygon fill="black" stroke="black" points="518,-192.918 514.5,-182.918 511,-192.918 518,-192.918"/>
</g>
<!-- pr_cddbcc83&#45;8f9e&#45;4972&#45;9656&#45;b7f5ccd2cdbb -->
<g id="node18" class="node"><title>pr_cddbcc83&#45;8f9e&#45;4972&#45;9656&#45;b7f5ccd2cdbb</title>
<polygon fill="none" stroke="black" points="681,-183.23 582,-183.23 582,-84.2297 681,-84.2297 681,-183.23"/>
<text text-anchor="middle" x="631.5" y="-132.53" font-family="Times,serif" font-size="4.00">pr_cddbcc83&#45;8f9e&#45;4972&#45;9656&#45;b7f5ccd2cdbb</text>
</g>
<!-- STOML2&#45;&gt;pr_cddbcc83&#45;8f9e&#45;4972&#45;9656&#45;b7f5ccd2cdbb -->
<g id="edge9" class="edge"><title>STOML2&#45;&gt;pr_cddbcc83&#45;8f9e&#45;4972&#45;9656&#45;b7f5ccd2cdbb</title>
<path fill="none" stroke="black" d="M527.921,-225.029C539.373,-215.046 556.672,-199.965 573.87,-184.971"/>
<polygon fill="black" stroke="black" points="576.506,-187.317 581.744,-178.107 571.906,-182.04 576.506,-187.317"/>
</g>
<!-- MFN2&#45;STOML2 -->
<g id="node7" class="node"><title>MFN2&#45;STOML2</title>
<ellipse fill="none" stroke="black" cx="281.5" cy="-23.8649" rx="23.7305" ry="23.7305"/>
<text text-anchor="middle" x="281.5" y="-22.6649" font-family="Times,serif" font-size="4.00">MFN2&#45;STOML2</text>
</g>
<!-- pr_2e4dc23f&#45;7476&#45;4279&#45;b44f&#45;61f6f2202f6d&#45;&gt;MFN2&#45;STOML2 -->
<g id="edge10" class="edge"><title>pr_2e4dc23f&#45;7476&#45;4279&#45;b44f&#45;61f6f2202f6d&#45;&gt;MFN2&#45;STOML2</title>
<path fill="none" stroke="black" d="M281.5,-85.1046C281.5,-75.8764 281.5,-66.3984 281.5,-57.7713"/>
<polygon fill="black" stroke="black" points="285,-57.7443 281.5,-47.7443 278,-57.7444 285,-57.7443"/>
</g>
<!-- MFN2 -->
<g id="node6" class="node"><title>MFN2</title>
<ellipse fill="none" stroke="black" cx="281.5" cy="-237.73" rx="18" ry="18"/>
<text text-anchor="middle" x="281.5" y="-236.53" font-family="Times,serif" font-size="4.00">MFN2</text>
</g>
<!-- MFN2&#45;&gt;pr_2e4dc23f&#45;7476&#45;4279&#45;b44f&#45;61f6f2202f6d -->
<g id="edge11" class="edge"><title>MFN2&#45;&gt;pr_2e4dc23f&#45;7476&#45;4279&#45;b44f&#45;61f6f2202f6d</title>
<path fill="none" stroke="black" d="M281.5,-219.427C281.5,-211.834 281.5,-202.437 281.5,-192.694"/>
<polygon fill="black" stroke="black" points="285,-192.477 281.5,-182.477 278,-192.477 285,-192.477"/>
</g>
<!-- Orf3b -->
<g id="node8" class="node"><title>Orf3b</title>
<ellipse fill="none" stroke="black" cx="428.5" cy="-237.73" rx="18" ry="18"/>
<text text-anchor="middle" x="428.5" y="-236.53" font-family="Times,serif" font-size="4.00">Orf3b</text>
</g>
<!-- Orf3b&#45;&gt;pr_58f1e2ba&#45;80a7&#45;4212&#45;a9f8&#45;802235067d06 -->
<g id="edge12" class="edge"><title>Orf3b&#45;&gt;pr_58f1e2ba&#45;80a7&#45;4212&#45;a9f8&#45;802235067d06</title>
<path fill="none" stroke="black" d="M423.519,-220.342C421.185,-212.66 418.247,-202.995 415.194,-192.948"/>
<polygon fill="black" stroke="black" points="418.503,-191.801 412.247,-183.251 411.806,-193.837 418.503,-191.801"/>
</g>
<!-- Orf3b&#45;&gt;pr_96a66e43&#45;58ff&#45;4361&#45;88fc&#45;3d0efbad8503 -->
<g id="edge13" class="edge"><title>Orf3b&#45;&gt;pr_96a66e43&#45;58ff&#45;4361&#45;88fc&#45;3d0efbad8503</title>
<path fill="none" stroke="black" d="M439.743,-223.395C446.914,-214.89 456.747,-203.227 466.926,-191.154"/>
<polygon fill="black" stroke="black" points="469.871,-193.092 473.641,-183.191 464.519,-188.58 469.871,-193.092"/>
</g>
<!-- Orf3b&#45;STOML2 -->
<g id="node10" class="node"><title>Orf3b&#45;STOML2</title>
<ellipse fill="none" stroke="black" cx="455.5" cy="-23.8649" rx="23.1702" ry="23.1702"/>
<text text-anchor="middle" x="455.5" y="-22.6649" font-family="Times,serif" font-size="4.00">Orf3b&#45;STOML2</text>
</g>
<!-- pr_58f1e2ba&#45;80a7&#45;4212&#45;a9f8&#45;802235067d06&#45;&gt;Orf3b&#45;STOML2 -->
<g id="edge14" class="edge"><title>pr_58f1e2ba&#45;80a7&#45;4212&#45;a9f8&#45;802235067d06&#45;&gt;Orf3b&#45;STOML2</title>
<path fill="none" stroke="black" d="M423.616,-84.1616C429.208,-73.7608 434.945,-63.0912 439.984,-53.7208"/>
<polygon fill="black" stroke="black" points="443.105,-55.3066 444.758,-44.8415 436.94,-51.9914 443.105,-55.3066"/>
</g>
<!-- STOML2&#45;PHB -->
<g id="node13" class="node"><title>STOML2&#45;PHB</title>
<ellipse fill="none" stroke="black" cx="748.5" cy="-23.8649" rx="22.05" ry="22.05"/>
<text text-anchor="middle" x="748.5" y="-22.6649" font-family="Times,serif" font-size="4.00">STOML2&#45;PHB</text>
</g>
<!-- pr_6cd0282c&#45;1d10&#45;4945&#45;8626&#45;c42dfd2df100&#45;&gt;STOML2&#45;PHB -->
<g id="edge15" class="edge"><title>pr_6cd0282c&#45;1d10&#45;4945&#45;8626&#45;c42dfd2df100&#45;&gt;STOML2&#45;PHB</title>
<path fill="none" stroke="black" d="M748.5,-84.1616C748.5,-74.7 748.5,-65.0161 748.5,-56.2901"/>
<polygon fill="black" stroke="black" points="752,-56.2006 748.5,-46.2006 745,-56.2007 752,-56.2006"/>
</g>
<!-- PHB -->
<g id="node12" class="node"><title>PHB</title>
<ellipse fill="none" stroke="black" cx="780.5" cy="-237.73" rx="18" ry="18"/>
<text text-anchor="middle" x="780.5" y="-236.53" font-family="Times,serif" font-size="4.00">PHB</text>
</g>
<!-- PHB&#45;&gt;pr_6cd0282c&#45;1d10&#45;4945&#45;8626&#45;c42dfd2df100 -->
<g id="edge16" class="edge"><title>PHB&#45;&gt;pr_6cd0282c&#45;1d10&#45;4945&#45;8626&#45;c42dfd2df100</title>
<path fill="none" stroke="black" d="M775.359,-220.342C772.949,-212.66 769.916,-202.995 766.765,-192.948"/>
<polygon fill="black" stroke="black" points="770.055,-191.745 763.722,-183.251 763.376,-193.84 770.055,-191.745"/>
</g>
<!-- pr_8a5126e7&#45;32a7&#45;4e81&#45;92dc&#45;4435a76cf152 -->
<g id="node14" class="node"><title>pr_8a5126e7&#45;32a7&#45;4e81&#45;92dc&#45;4435a76cf152</title>
<polygon fill="none" stroke="black" points="916.5,-183.73 816.5,-183.73 816.5,-83.7297 916.5,-83.7297 916.5,-183.73"/>
<text text-anchor="middle" x="866.5" y="-132.53" font-family="Times,serif" font-size="4.00">pr_8a5126e7&#45;32a7&#45;4e81&#45;92dc&#45;4435a76cf152</text>
</g>
<!-- PHB&#45;&gt;pr_8a5126e7&#45;32a7&#45;4e81&#45;92dc&#45;4435a76cf152 -->
<g id="edge17" class="edge"><title>PHB&#45;&gt;pr_8a5126e7&#45;32a7&#45;4e81&#45;92dc&#45;4435a76cf152</title>
<path fill="none" stroke="black" d="M791.743,-223.395C798.765,-215.067 808.339,-203.712 818.291,-191.908"/>
<polygon fill="black" stroke="black" points="821.092,-194.016 824.862,-184.114 815.74,-189.504 821.092,-194.016"/>
</g>
<!-- PHB&#45;RAF1 -->
<g id="node16" class="node"><title>PHB&#45;RAF1</title>
<ellipse fill="none" stroke="black" cx="866.5" cy="-23.8649" rx="19.7452" ry="19.7452"/>
<text text-anchor="middle" x="866.5" y="-22.6649" font-family="Times,serif" font-size="4.00">PHB&#45;RAF1</text>
</g>
<!-- pr_8a5126e7&#45;32a7&#45;4e81&#45;92dc&#45;4435a76cf152&#45;&gt;PHB&#45;RAF1 -->
<g id="edge18" class="edge"><title>pr_8a5126e7&#45;32a7&#45;4e81&#45;92dc&#45;4435a76cf152&#45;&gt;PHB&#45;RAF1</title>
<path fill="none" stroke="black" d="M866.5,-83.532C866.5,-73.3084 866.5,-62.8561 866.5,-53.6599"/>
<polygon fill="black" stroke="black" points="870,-53.5303 866.5,-43.5303 863,-53.5304 870,-53.5303"/>
</g>
<!-- RAF1 -->
<g id="node15" class="node"><title>RAF1</title>
<ellipse fill="none" stroke="black" cx="866.5" cy="-237.73" rx="18" ry="18"/>
<text text-anchor="middle" x="866.5" y="-236.53" font-family="Times,serif" font-size="4.00">RAF1</text>
</g>
<!-- RAF1&#45;&gt;pr_8a5126e7&#45;32a7&#45;4e81&#45;92dc&#45;4435a76cf152 -->
<g id="edge19" class="edge"><title>RAF1&#45;&gt;pr_8a5126e7&#45;32a7&#45;4e81&#45;92dc&#45;4435a76cf152</title>
<path fill="none" stroke="black" d="M866.5,-219.427C866.5,-212.164 866.5,-203.251 866.5,-193.964"/>
<polygon fill="black" stroke="black" points="870,-193.799 866.5,-183.799 863,-193.799 870,-193.799"/>
</g>
<!-- pr_96a66e43&#45;58ff&#45;4361&#45;88fc&#45;3d0efbad8503&#45;&gt;Orf3b&#45;STOML2 -->
<g id="edge20" class="edge"><title>pr_96a66e43&#45;58ff&#45;4361&#45;88fc&#45;3d0efbad8503&#45;&gt;Orf3b&#45;STOML2</title>
<path fill="none" stroke="black" d="M488.106,-84.4761C482.353,-73.9587 476.441,-63.1499 471.258,-53.6738"/>
<polygon fill="black" stroke="black" points="474.22,-51.7956 466.35,-44.7019 468.079,-55.1549 474.22,-51.7956"/>
</g>
<!-- TCR complex -->
<g id="node19" class="node"><title>TCR complex</title>
<ellipse fill="none" stroke="black" cx="631.5" cy="-23.8649" rx="22.6101" ry="22.6101"/>
<text text-anchor="middle" x="631.5" y="-22.6649" font-family="Times,serif" font-size="4.00">TCR complex</text>
</g>
<!-- pr_cddbcc83&#45;8f9e&#45;4972&#45;9656&#45;b7f5ccd2cdbb&#45;&gt;TCR complex -->
<g id="edge21" class="edge"><title>pr_cddbcc83&#45;8f9e&#45;4972&#45;9656&#45;b7f5ccd2cdbb&#45;&gt;TCR complex</title>
<path fill="none" stroke="black" d="M624.78,-84.1616C624.674,-74.7 624.849,-65.0161 625.302,-56.2901"/>
<polygon fill="black" stroke="black" points="628.802,-56.4167 625.994,-46.2006 621.818,-55.9377 628.802,-56.4167"/>
</g>
<!-- TCR complex&#45;&gt;pr_cddbcc83&#45;8f9e&#45;4972&#45;9656&#45;b7f5ccd2cdbb -->
<g id="edge22" class="edge"><title>TCR complex&#45;&gt;pr_cddbcc83&#45;8f9e&#45;4972&#45;9656&#45;b7f5ccd2cdbb</title>
<path fill="none" stroke="black" d="M637.006,-46.2006C637.724,-54.3785 638.131,-64.1565 638.228,-74.149"/>
<polygon fill="black" stroke="black" points="634.728,-74.1589 638.22,-84.1616 641.728,-74.1642 634.728,-74.1589"/>
</g>
</g>
</svg>
