<?xml version="1.0" encoding="UTF-8" standalone="no"?>
<!DOCTYPE svg PUBLIC "-//W3C//DTD SVG 1.1//EN"
 "http://www.w3.org/Graphics/SVG/1.1/DTD/svg11.dtd">
<!-- Generated by graphviz version 2.38.0 (20140413.2041)
 -->
<!-- Title: G Pages: 1 -->
<svg width="911pt" height="1157pt"
 viewBox="0.00 0.00 910.50 1157.19" xmlns="http://www.w3.org/2000/svg" xmlns:xlink="http://www.w3.org/1999/xlink">
<g id="graph0" class="graph" transform="scale(1 1) rotate(0) translate(4 1153.19)">
<title>G</title>
<polygon fill="white" stroke="none" points="-4,4 -4,-1153.19 906.5,-1153.19 906.5,4 -4,4"/>
<!-- Orf3a -->
<g id="node1" class="node"><title>Orf3a</title>
<ellipse fill="none" stroke="black" cx="332.5" cy="-1128.51" rx="18" ry="18"/>
<text text-anchor="middle" x="332.5" y="-1127.31" font-family="Times,serif" font-size="4.00">Orf3a</text>
</g>
<!-- pr_0b79b3b9&#45;8b6f&#45;43c7&#45;a793&#45;7a6177dade6f -->
<g id="node2" class="node"><title>pr_0b79b3b9&#45;8b6f&#45;43c7&#45;a793&#45;7a6177dade6f</title>
<polygon fill="none" stroke="black" points="296,-1070.83 197,-1070.83 197,-971.829 296,-971.829 296,-1070.83"/>
<text text-anchor="middle" x="246.5" y="-1020.13" font-family="Times,serif" font-size="4.00">pr_0b79b3b9&#45;8b6f&#45;43c7&#45;a793&#45;7a6177dade6f</text>
</g>
<!-- Orf3a&#45;&gt;pr_0b79b3b9&#45;8b6f&#45;43c7&#45;a793&#45;7a6177dade6f -->
<g id="edge1" class="edge"><title>Orf3a&#45;&gt;pr_0b79b3b9&#45;8b6f&#45;43c7&#45;a793&#45;7a6177dade6f</title>
<path fill="none" stroke="black" d="M321.257,-1113.76C313.792,-1104.63 303.441,-1091.97 292.818,-1078.98"/>
<polygon fill="black" stroke="black" points="295.232,-1076.4 286.192,-1070.87 289.812,-1080.83 295.232,-1076.4"/>
</g>
<!-- pr_743a7eaf&#45;fd1a&#45;4bfd&#45;a010&#45;6d912bd6f189 -->
<g id="node35" class="node"><title>pr_743a7eaf&#45;fd1a&#45;4bfd&#45;a010&#45;6d912bd6f189</title>
<polygon fill="none" stroke="black" points="412.5,-1070.33 314.5,-1070.33 314.5,-972.329 412.5,-972.329 412.5,-1070.33"/>
<text text-anchor="middle" x="363.5" y="-1020.13" font-family="Times,serif" font-size="4.00">pr_743a7eaf&#45;fd1a&#45;4bfd&#45;a010&#45;6d912bd6f189</text>
</g>
<!-- Orf3a&#45;&gt;pr_743a7eaf&#45;fd1a&#45;4bfd&#45;a010&#45;6d912bd6f189 -->
<g id="edge2" class="edge"><title>Orf3a&#45;&gt;pr_743a7eaf&#45;fd1a&#45;4bfd&#45;a010&#45;6d912bd6f189</title>
<path fill="none" stroke="black" d="M337.344,-1111.08C339.871,-1102.5 343.132,-1091.44 346.488,-1080.05"/>
<polygon fill="black" stroke="black" points="349.846,-1081.04 349.315,-1070.46 343.131,-1079.06 349.846,-1081.04"/>
</g>
<!-- NLRP3 -->
<g id="node4" class="node"><title>NLRP3</title>
<ellipse fill="none" stroke="black" cx="246.5" cy="-908.312" rx="18" ry="18"/>
<text text-anchor="middle" x="246.5" y="-907.112" font-family="Times,serif" font-size="4.00">NLRP3</text>
</g>
<!-- pr_0b79b3b9&#45;8b6f&#45;43c7&#45;a793&#45;7a6177dade6f&#45;&gt;NLRP3 -->
<g id="edge3" class="edge"><title>pr_0b79b3b9&#45;8b6f&#45;43c7&#45;a793&#45;7a6177dade6f&#45;&gt;NLRP3</title>
<path fill="none" stroke="black" d="M246.5,-971.635C246.5,-959.615 246.5,-947.161 246.5,-936.576"/>
<polygon fill="black" stroke="black" points="250,-936.318 246.5,-926.318 243,-936.318 250,-936.318"/>
</g>
<!-- TRAF3 -->
<g id="node3" class="node"><title>TRAF3</title>
<ellipse fill="none" stroke="black" cx="479.5" cy="-1128.51" rx="18" ry="18"/>
<text text-anchor="middle" x="479.5" y="-1127.31" font-family="Times,serif" font-size="4.00">TRAF3</text>
</g>
<!-- TRAF3&#45;&gt;pr_0b79b3b9&#45;8b6f&#45;43c7&#45;a793&#45;7a6177dade6f -->
<g id="edge4" class="edge"><title>TRAF3&#45;&gt;pr_0b79b3b9&#45;8b6f&#45;43c7&#45;a793&#45;7a6177dade6f</title>
<path fill="none" stroke="black" d="M461.804,-1124.22C429.298,-1117.68 358.551,-1101.08 305.5,-1071.83 305.204,-1071.67 304.907,-1071.5 304.611,-1071.33"/>
<polygon fill="black" stroke="black" points="306.436,-1068.35 296.081,-1066.11 302.78,-1074.32 306.436,-1068.35"/>
</g>
<!-- pr_0cbe1bb9&#45;c21f&#45;4202&#45;a3ff&#45;790bfed7321e -->
<g id="node52" class="node"><title>pr_0cbe1bb9&#45;c21f&#45;4202&#45;a3ff&#45;790bfed7321e</title>
<polygon fill="none" stroke="black" points="528.5,-1070.33 430.5,-1070.33 430.5,-972.329 528.5,-972.329 528.5,-1070.33"/>
<text text-anchor="middle" x="479.5" y="-1020.13" font-family="Times,serif" font-size="4.00">pr_0cbe1bb9&#45;c21f&#45;4202&#45;a3ff&#45;790bfed7321e</text>
</g>
<!-- TRAF3&#45;&gt;pr_0cbe1bb9&#45;c21f&#45;4202&#45;a3ff&#45;790bfed7321e -->
<g id="edge5" class="edge"><title>TRAF3&#45;&gt;pr_0cbe1bb9&#45;c21f&#45;4202&#45;a3ff&#45;790bfed7321e</title>
<path fill="none" stroke="black" d="M474.438,-1111.08C473.479,-1102.67 472.928,-1091.88 472.787,-1080.73"/>
<polygon fill="black" stroke="black" points="476.286,-1080.45 472.772,-1070.46 469.286,-1080.46 476.286,-1080.45"/>
</g>
<!-- pr_36cceb9f&#45;6149&#45;46d8&#45;8254&#45;ca729fafb249 -->
<g id="node8" class="node"><title>pr_36cceb9f&#45;6149&#45;46d8&#45;8254&#45;ca729fafb249</title>
<polygon fill="none" stroke="black" points="295.5,-844.296 197.5,-844.296 197.5,-746.296 295.5,-746.296 295.5,-844.296"/>
<text text-anchor="middle" x="246.5" y="-794.096" font-family="Times,serif" font-size="4.00">pr_36cceb9f&#45;6149&#45;46d8&#45;8254&#45;ca729fafb249</text>
</g>
<!-- NLRP3&#45;&gt;pr_36cceb9f&#45;6149&#45;46d8&#45;8254&#45;ca729fafb249 -->
<g id="edge6" class="edge"><title>NLRP3&#45;&gt;pr_36cceb9f&#45;6149&#45;46d8&#45;8254&#45;ca729fafb249</title>
<path fill="none" stroke="black" d="M246.5,-889.966C246.5,-880.342 246.5,-867.752 246.5,-854.938"/>
<polygon fill="black" stroke="black" points="250,-854.666 246.5,-844.666 243,-854.666 250,-854.666"/>
</g>
<!-- ASC/CASP1 -->
<g id="node5" class="node"><title>ASC/CASP1</title>
<ellipse fill="none" stroke="black" cx="179.5" cy="-1128.51" rx="20.8674" ry="20.8674"/>
<text text-anchor="middle" x="179.5" y="-1127.31" font-family="Times,serif" font-size="4.00">ASC/CASP1</text>
</g>
<!-- ASC/CASP1&#45;&gt;pr_0b79b3b9&#45;8b6f&#45;43c7&#45;a793&#45;7a6177dade6f -->
<g id="edge7" class="edge"><title>ASC/CASP1&#45;&gt;pr_0b79b3b9&#45;8b6f&#45;43c7&#45;a793&#45;7a6177dade6f</title>
<path fill="none" stroke="black" d="M190.265,-1110.61C195.747,-1102 202.769,-1090.98 209.978,-1079.66"/>
<polygon fill="black" stroke="black" points="213.085,-1081.3 215.505,-1070.99 207.181,-1077.54 213.085,-1081.3"/>
</g>
<!-- ASC/CASP1&#45;&gt;pr_36cceb9f&#45;6149&#45;46d8&#45;8254&#45;ca729fafb249 -->
<g id="edge8" class="edge"><title>ASC/CASP1&#45;&gt;pr_36cceb9f&#45;6149&#45;46d8&#45;8254&#45;ca729fafb249</title>
<path fill="none" stroke="black" d="M178.779,-1107.52C178.088,-1077.53 178.262,-1019.26 187.5,-970.829 195.11,-930.937 209.684,-887.684 222.443,-854.215"/>
<polygon fill="black" stroke="black" points="225.818,-855.192 226.16,-844.603 219.289,-852.668 225.818,-855.192"/>
</g>
<!-- P65/P015 -->
<g id="node6" class="node"><title>P65/P015</title>
<ellipse fill="none" stroke="black" cx="86.5" cy="-1128.51" rx="18.0625" ry="18.0625"/>
<text text-anchor="middle" x="86.5" y="-1127.31" font-family="Times,serif" font-size="4.00">P65/P015</text>
</g>
<!-- P65/P015&#45;&gt;pr_0b79b3b9&#45;8b6f&#45;43c7&#45;a793&#45;7a6177dade6f -->
<g id="edge9" class="edge"><title>P65/P015&#45;&gt;pr_0b79b3b9&#45;8b6f&#45;43c7&#45;a793&#45;7a6177dade6f</title>
<path fill="none" stroke="black" d="M101.266,-1117.8C120.924,-1104.88 156.844,-1081.27 188.041,-1060.76"/>
<polygon fill="black" stroke="black" points="190.264,-1063.49 196.697,-1055.07 186.419,-1057.64 190.264,-1063.49"/>
</g>
<!-- pr_cc3132c9&#45;2129&#45;4059&#45;b606&#45;39236866b76a -->
<g id="node10" class="node"><title>pr_cc3132c9&#45;2129&#45;4059&#45;b606&#45;39236866b76a</title>
<polygon fill="none" stroke="black" points="101,-1071.83 0,-1071.83 0,-970.829 101,-970.829 101,-1071.83"/>
<text text-anchor="middle" x="50.5" y="-1020.13" font-family="Times,serif" font-size="4.00">pr_cc3132c9&#45;2129&#45;4059&#45;b606&#45;39236866b76a</text>
</g>
<!-- P65/P015&#45;&gt;pr_cc3132c9&#45;2129&#45;4059&#45;b606&#45;39236866b76a -->
<g id="edge10" class="edge"><title>P65/P015&#45;&gt;pr_cc3132c9&#45;2129&#45;4059&#45;b606&#45;39236866b76a</title>
<path fill="none" stroke="black" d="M76.6494,-1112.89C72.7203,-1104.51 68.2924,-1093.38 64.153,-1081.79"/>
<polygon fill="black" stroke="black" points="67.3428,-1080.31 60.761,-1072 60.7287,-1082.6 67.3428,-1080.31"/>
</g>
<!-- pr_ba7b5cb1&#45;4494&#45;44ac&#45;bb8e&#45;68a25985baeb -->
<g id="node28" class="node"><title>pr_ba7b5cb1&#45;4494&#45;44ac&#45;bb8e&#45;68a25985baeb</title>
<polygon fill="none" stroke="black" points="179,-845.796 78,-845.796 78,-744.796 179,-744.796 179,-845.796"/>
<text text-anchor="middle" x="128.5" y="-794.096" font-family="Times,serif" font-size="4.00">pr_ba7b5cb1&#45;4494&#45;44ac&#45;bb8e&#45;68a25985baeb</text>
</g>
<!-- P65/P015&#45;&gt;pr_ba7b5cb1&#45;4494&#45;44ac&#45;bb8e&#45;68a25985baeb -->
<g id="edge11" class="edge"><title>P65/P015&#45;&gt;pr_ba7b5cb1&#45;4494&#45;44ac&#45;bb8e&#45;68a25985baeb</title>
<path fill="none" stroke="black" d="M94.5552,-1111.88C99.7793,-1100.96 106.205,-1085.88 109.5,-1071.83 126.577,-998.985 129.895,-912.575 129.883,-856.2"/>
<polygon fill="black" stroke="black" points="133.382,-856.02 129.844,-846.033 126.382,-856.046 133.382,-856.02"/>
</g>
<!-- ORF8b -->
<g id="node7" class="node"><title>ORF8b</title>
<ellipse fill="none" stroke="black" cx="246.5" cy="-1128.51" rx="18" ry="18"/>
<text text-anchor="middle" x="246.5" y="-1127.31" font-family="Times,serif" font-size="4.00">ORF8b</text>
</g>
<!-- ORF8b&#45;&gt;pr_0b79b3b9&#45;8b6f&#45;43c7&#45;a793&#45;7a6177dade6f -->
<g id="edge12" class="edge"><title>ORF8b&#45;&gt;pr_0b79b3b9&#45;8b6f&#45;43c7&#45;a793&#45;7a6177dade6f</title>
<path fill="none" stroke="black" d="M246.5,-1110.14C246.5,-1102.01 246.5,-1091.79 246.5,-1081.23"/>
<polygon fill="black" stroke="black" points="250,-1081.05 246.5,-1071.05 243,-1081.05 250,-1081.05"/>
</g>
<!-- CASP1 -->
<g id="node9" class="node"><title>CASP1</title>
<ellipse fill="none" stroke="black" cx="226.5" cy="-682.279" rx="18" ry="18"/>
<text text-anchor="middle" x="226.5" y="-681.079" font-family="Times,serif" font-size="4.00">CASP1</text>
</g>
<!-- pr_36cceb9f&#45;6149&#45;46d8&#45;8254&#45;ca729fafb249&#45;&gt;CASP1 -->
<g id="edge13" class="edge"><title>pr_36cceb9f&#45;6149&#45;46d8&#45;8254&#45;ca729fafb249&#45;&gt;CASP1</title>
<path fill="none" stroke="black" d="M237.844,-746.248C235.627,-733.942 233.32,-721.137 231.37,-710.314"/>
<polygon fill="black" stroke="black" points="234.774,-709.463 229.556,-700.242 227.884,-710.704 234.774,-709.463"/>
</g>
<!-- pr_24c3aa42&#45;953b&#45;419b&#45;8083&#45;52d462f4b489 -->
<g id="node24" class="node"><title>pr_24c3aa42&#45;953b&#45;419b&#45;8083&#45;52d462f4b489</title>
<polygon fill="none" stroke="black" points="275.5,-619.263 175.5,-619.263 175.5,-519.263 275.5,-519.263 275.5,-619.263"/>
<text text-anchor="middle" x="225.5" y="-568.063" font-family="Times,serif" font-size="4.00">pr_24c3aa42&#45;953b&#45;419b&#45;8083&#45;52d462f4b489</text>
</g>
<!-- CASP1&#45;&gt;pr_24c3aa42&#45;953b&#45;419b&#45;8083&#45;52d462f4b489 -->
<g id="edge14" class="edge"><title>CASP1&#45;&gt;pr_24c3aa42&#45;953b&#45;419b&#45;8083&#45;52d462f4b489</title>
<path fill="none" stroke="black" d="M226.344,-663.933C226.259,-654.501 226.148,-642.221 226.035,-629.674"/>
<polygon fill="black" stroke="black" points="229.534,-629.571 225.944,-619.603 222.535,-629.634 229.534,-629.571"/>
</g>
<!-- pr_cc3132c9&#45;2129&#45;4059&#45;b606&#45;39236866b76a&#45;&gt;P65/P015 -->
<g id="edge15" class="edge"><title>pr_cc3132c9&#45;2129&#45;4059&#45;b606&#45;39236866b76a&#45;&gt;P65/P015</title>
<path fill="none" stroke="black" d="M74.2292,-1071.97C77.6261,-1081.71 80.7597,-1091.59 83.1705,-1100.26"/>
<polygon fill="black" stroke="black" points="79.8341,-1101.33 85.7217,-1110.14 86.6121,-1099.59 79.8341,-1101.33"/>
</g>
<!-- LPS/TLR4/MYD88 -->
<g id="node11" class="node"><title>LPS/TLR4/MYD88</title>
<ellipse fill="none" stroke="black" cx="500.5" cy="-908.312" rx="26.533" ry="26.533"/>
<text text-anchor="middle" x="500.5" y="-907.112" font-family="Times,serif" font-size="4.00">LPS/TLR4/MYD88</text>
</g>
<!-- pr_9bc3d214&#45;e62f&#45;4868&#45;989c&#45;ed654cdaca64 -->
<g id="node12" class="node"><title>pr_9bc3d214&#45;e62f&#45;4868&#45;989c&#45;ed654cdaca64</title>
<polygon fill="none" stroke="black" points="550.5,-845.296 450.5,-845.296 450.5,-745.296 550.5,-745.296 550.5,-845.296"/>
<text text-anchor="middle" x="500.5" y="-794.096" font-family="Times,serif" font-size="4.00">pr_9bc3d214&#45;e62f&#45;4868&#45;989c&#45;ed654cdaca64</text>
</g>
<!-- LPS/TLR4/MYD88&#45;&gt;pr_9bc3d214&#45;e62f&#45;4868&#45;989c&#45;ed654cdaca64 -->
<g id="edge16" class="edge"><title>LPS/TLR4/MYD88&#45;&gt;pr_9bc3d214&#45;e62f&#45;4868&#45;989c&#45;ed654cdaca64</title>
<path fill="none" stroke="black" d="M500.5,-881.564C500.5,-873.745 500.5,-864.808 500.5,-855.731"/>
<polygon fill="black" stroke="black" points="504,-855.474 500.5,-845.474 497,-855.474 504,-855.474"/>
</g>
<!-- TRAF6 -->
<g id="node13" class="node"><title>TRAF6</title>
<ellipse fill="none" stroke="black" cx="561.5" cy="-682.279" rx="18" ry="18"/>
<text text-anchor="middle" x="561.5" y="-681.079" font-family="Times,serif" font-size="4.00">TRAF6</text>
</g>
<!-- pr_9bc3d214&#45;e62f&#45;4868&#45;989c&#45;ed654cdaca64&#45;&gt;TRAF6 -->
<g id="edge17" class="edge"><title>pr_9bc3d214&#45;e62f&#45;4868&#45;989c&#45;ed654cdaca64&#45;&gt;TRAF6</title>
<path fill="none" stroke="black" d="M527.433,-745.279C534.641,-732.161 542.119,-718.552 548.225,-707.438"/>
<polygon fill="black" stroke="black" points="551.45,-708.838 553.198,-698.389 545.315,-705.467 551.45,-708.838"/>
</g>
<!-- pr_0f1a2448&#45;179c&#45;482e&#45;bed5&#45;e6f30670cdbc -->
<g id="node41" class="node"><title>pr_0f1a2448&#45;179c&#45;482e&#45;bed5&#45;e6f30670cdbc</title>
<polygon fill="none" stroke="black" points="665,-618.763 566,-618.763 566,-519.763 665,-519.763 665,-618.763"/>
<text text-anchor="middle" x="615.5" y="-568.063" font-family="Times,serif" font-size="4.00">pr_0f1a2448&#45;179c&#45;482e&#45;bed5&#45;e6f30670cdbc</text>
</g>
<!-- TRAF6&#45;&gt;pr_0f1a2448&#45;179c&#45;482e&#45;bed5&#45;e6f30670cdbc -->
<g id="edge18" class="edge"><title>TRAF6&#45;&gt;pr_0f1a2448&#45;179c&#45;482e&#45;bed5&#45;e6f30670cdbc</title>
<path fill="none" stroke="black" d="M564.692,-664.418C568.393,-654.561 574.179,-641.477 580.571,-628.206"/>
<polygon fill="black" stroke="black" points="583.812,-629.546 585.075,-619.027 577.528,-626.463 583.812,-629.546"/>
</g>
<!-- pr_eb769fdd&#45;7f3c&#45;48d7&#45;b475&#45;d5aed7022f7c -->
<g id="node44" class="node"><title>pr_eb769fdd&#45;7f3c&#45;48d7&#45;b475&#45;d5aed7022f7c</title>
<polygon fill="none" stroke="black" points="547.5,-618.263 449.5,-618.263 449.5,-520.263 547.5,-520.263 547.5,-618.263"/>
<text text-anchor="middle" x="498.5" y="-568.063" font-family="Times,serif" font-size="4.00">pr_eb769fdd&#45;7f3c&#45;48d7&#45;b475&#45;d5aed7022f7c</text>
</g>
<!-- TRAF6&#45;&gt;pr_eb769fdd&#45;7f3c&#45;48d7&#45;b475&#45;d5aed7022f7c -->
<g id="edge19" class="edge"><title>TRAF6&#45;&gt;pr_eb769fdd&#45;7f3c&#45;48d7&#45;b475&#45;d5aed7022f7c</title>
<path fill="none" stroke="black" d="M553.004,-666.307C547.218,-656.112 539.157,-641.907 531.005,-627.543"/>
<polygon fill="black" stroke="black" points="533.918,-625.583 525.938,-618.613 527.83,-629.038 533.918,-625.583"/>
</g>
<!-- TRIM59 -->
<g id="node14" class="node"><title>TRIM59</title>
<ellipse fill="none" stroke="black" cx="363.5" cy="-908.312" rx="18" ry="18"/>
<text text-anchor="middle" x="363.5" y="-907.112" font-family="Times,serif" font-size="4.00">TRIM59</text>
</g>
<!-- TRIM59&#45;&gt;pr_9bc3d214&#45;e62f&#45;4868&#45;989c&#45;ed654cdaca64 -->
<g id="edge20" class="edge"><title>TRIM59&#45;&gt;pr_9bc3d214&#45;e62f&#45;4868&#45;989c&#45;ed654cdaca64</title>
<path fill="none" stroke="black" d="M377.137,-896.262C392.399,-883.894 418.149,-863.028 442.186,-843.55"/>
<polygon fill="black" stroke="black" points="444.689,-846.026 450.255,-837.011 440.282,-840.588 444.689,-846.026"/>
</g>
<!-- TRIM59&#45;&gt;pr_743a7eaf&#45;fd1a&#45;4bfd&#45;a010&#45;6d912bd6f189 -->
<g id="edge21" class="edge"><title>TRIM59&#45;&gt;pr_743a7eaf&#45;fd1a&#45;4bfd&#45;a010&#45;6d912bd6f189</title>
<path fill="none" stroke="black" d="M368.462,-925.751C369.578,-935.579 370.171,-948.723 370.243,-962.078"/>
<polygon fill="black" stroke="black" points="366.742,-962.265 370.196,-972.281 373.742,-962.297 366.742,-962.265"/>
</g>
<!-- NFKBIA -->
<g id="node15" class="node"><title>NFKBIA</title>
<ellipse fill="none" stroke="black" cx="848.5" cy="-228.092" rx="18" ry="18"/>
<text text-anchor="middle" x="848.5" y="-226.892" font-family="Times,serif" font-size="4.00">NFKBIA</text>
</g>
<!-- pr_eab87990&#45;82d9&#45;421a&#45;9ddd&#45;4dfca101fbf6 -->
<g id="node16" class="node"><title>pr_eab87990&#45;82d9&#45;421a&#45;9ddd&#45;4dfca101fbf6</title>
<polygon fill="none" stroke="black" points="897.5,-382.684 799.5,-382.684 799.5,-284.684 897.5,-284.684 897.5,-382.684"/>
<text text-anchor="middle" x="848.5" y="-332.484" font-family="Times,serif" font-size="4.00">pr_eab87990&#45;82d9&#45;421a&#45;9ddd&#45;4dfca101fbf6</text>
</g>
<!-- NFKBIA&#45;&gt;pr_eab87990&#45;82d9&#45;421a&#45;9ddd&#45;4dfca101fbf6 -->
<g id="edge22" class="edge"><title>NFKBIA&#45;&gt;pr_eab87990&#45;82d9&#45;421a&#45;9ddd&#45;4dfca101fbf6</title>
<path fill="none" stroke="black" d="M853.61,-245.693C854.517,-253.713 855.048,-263.869 855.203,-274.388"/>
<polygon fill="black" stroke="black" points="851.703,-274.538 855.235,-284.527 858.703,-274.516 851.703,-274.538"/>
</g>
<!-- pr_7814cb49&#45;6ab4&#45;4676&#45;be22&#45;27610ae054c4 -->
<g id="node53" class="node"><title>pr_7814cb49&#45;6ab4&#45;4676&#45;be22&#45;27610ae054c4</title>
<polygon fill="none" stroke="black" points="899,-173 798,-173 798,-72 899,-72 899,-173"/>
<text text-anchor="middle" x="848.5" y="-121.3" font-family="Times,serif" font-size="4.00">pr_7814cb49&#45;6ab4&#45;4676&#45;be22&#45;27610ae054c4</text>
</g>
<!-- NFKBIA&#45;&gt;pr_7814cb49&#45;6ab4&#45;4676&#45;be22&#45;27610ae054c4 -->
<g id="edge23" class="edge"><title>NFKBIA&#45;&gt;pr_7814cb49&#45;6ab4&#45;4676&#45;be22&#45;27610ae054c4</title>
<path fill="none" stroke="black" d="M848.5,-209.986C848.5,-202.479 848.5,-193.174 848.5,-183.475"/>
<polygon fill="black" stroke="black" points="852,-183.286 848.5,-173.286 845,-183.286 852,-183.286"/>
</g>
<!-- pr_eab87990&#45;82d9&#45;421a&#45;9ddd&#45;4dfca101fbf6&#45;&gt;NFKBIA -->
<g id="edge24" class="edge"><title>pr_eab87990&#45;82d9&#45;421a&#45;9ddd&#45;4dfca101fbf6&#45;&gt;NFKBIA</title>
<path fill="none" stroke="black" d="M841.765,-284.527C841.684,-274.61 841.934,-264.515 842.516,-255.704"/>
<polygon fill="black" stroke="black" points="846.007,-255.959 843.39,-245.693 839.034,-255.35 846.007,-255.959"/>
</g>
<!-- B&#45;TrcP -->
<g id="node17" class="node"><title>B&#45;TrcP</title>
<ellipse fill="none" stroke="black" cx="880.5" cy="-451.473" rx="18" ry="18"/>
<text text-anchor="middle" x="880.5" y="-450.273" font-family="Times,serif" font-size="4.00">B&#45;TrcP</text>
</g>
<!-- B&#45;TrcP&#45;&gt;pr_eab87990&#45;82d9&#45;421a&#45;9ddd&#45;4dfca101fbf6 -->
<g id="edge25" class="edge"><title>B&#45;TrcP&#45;&gt;pr_eab87990&#45;82d9&#45;421a&#45;9ddd&#45;4dfca101fbf6</title>
<path fill="none" stroke="black" d="M875.915,-433.883C872.881,-422.906 868.705,-407.795 864.526,-392.674"/>
<polygon fill="black" stroke="black" points="867.83,-391.487 861.792,-382.78 861.082,-393.351 867.83,-391.487"/>
</g>
<!-- NEMO/IKKA/IKKB -->
<g id="node18" class="node"><title>NEMO/IKKA/IKKB</title>
<ellipse fill="none" stroke="black" cx="816.5" cy="-451.473" rx="28.2154" ry="28.2154"/>
<text text-anchor="middle" x="816.5" y="-450.273" font-family="Times,serif" font-size="4.00">NEMO/IKKA/IKKB</text>
</g>
<!-- NEMO/IKKA/IKKB&#45;&gt;pr_eab87990&#45;82d9&#45;421a&#45;9ddd&#45;4dfca101fbf6 -->
<g id="edge26" class="edge"><title>NEMO/IKKA/IKKB&#45;&gt;pr_eab87990&#45;82d9&#45;421a&#45;9ddd&#45;4dfca101fbf6</title>
<path fill="none" stroke="black" d="M823.761,-424.199C826.386,-414.703 829.462,-403.57 832.537,-392.444"/>
<polygon fill="black" stroke="black" points="835.937,-393.281 835.227,-382.71 829.19,-391.416 835.937,-393.281"/>
</g>
<!-- pr_0eb87cc8&#45;40ad&#45;428c&#45;a94a&#45;01b46d49913b -->
<g id="node46" class="node"><title>pr_0eb87cc8&#45;40ad&#45;428c&#45;a94a&#45;01b46d49913b</title>
<polygon fill="none" stroke="black" points="711,-384.184 610,-384.184 610,-283.184 711,-283.184 711,-384.184"/>
<text text-anchor="middle" x="660.5" y="-332.484" font-family="Times,serif" font-size="4.00">pr_0eb87cc8&#45;40ad&#45;428c&#45;a94a&#45;01b46d49913b</text>
</g>
<!-- NEMO/IKKA/IKKB&#45;&gt;pr_0eb87cc8&#45;40ad&#45;428c&#45;a94a&#45;01b46d49913b -->
<g id="edge27" class="edge"><title>NEMO/IKKA/IKKB&#45;&gt;pr_0eb87cc8&#45;40ad&#45;428c&#45;a94a&#45;01b46d49913b</title>
<path fill="none" stroke="black" d="M795.162,-432.623C790.079,-428.477 784.637,-424.126 779.5,-420.184 760.163,-405.345 738.631,-389.638 719.256,-375.79"/>
<polygon fill="black" stroke="black" points="721.273,-372.929 711.098,-369.977 717.211,-378.63 721.273,-372.929"/>
</g>
<!-- LPS/TNF α/IL&#45;1 -->
<g id="node19" class="node"><title>LPS/TNF α/IL&#45;1</title>
<ellipse fill="none" stroke="black" cx="342.5" cy="-682.279" rx="23.7305" ry="23.7305"/>
<text text-anchor="middle" x="342.5" y="-681.079" font-family="Times,serif" font-size="4.00">LPS/TNF α/IL&#45;1</text>
</g>
<!-- pr_7e029707&#45;f698&#45;4e12&#45;9276&#45;9bfaf16eccb0 -->
<g id="node20" class="node"><title>pr_7e029707&#45;f698&#45;4e12&#45;9276&#45;9bfaf16eccb0</title>
<polygon fill="none" stroke="black" points="391.5,-618.263 293.5,-618.263 293.5,-520.263 391.5,-520.263 391.5,-618.263"/>
<text text-anchor="middle" x="342.5" y="-568.063" font-family="Times,serif" font-size="4.00">pr_7e029707&#45;f698&#45;4e12&#45;9276&#45;9bfaf16eccb0</text>
</g>
<!-- LPS/TNF α/IL&#45;1&#45;&gt;pr_7e029707&#45;f698&#45;4e12&#45;9276&#45;9bfaf16eccb0 -->
<g id="edge28" class="edge"><title>LPS/TNF α/IL&#45;1&#45;&gt;pr_7e029707&#45;f698&#45;4e12&#45;9276&#45;9bfaf16eccb0</title>
<path fill="none" stroke="black" d="M342.5,-658.277C342.5,-649.517 342.5,-639.09 342.5,-628.53"/>
<polygon fill="black" stroke="black" points="346,-628.414 342.5,-618.414 339,-628.414 346,-628.414"/>
</g>
<!-- IKBKG/IKBKB/CHUK -->
<g id="node22" class="node"><title>IKBKG/IKBKB/CHUK</title>
<ellipse fill="none" stroke="black" cx="342.5" cy="-451.473" rx="31.0804" ry="31.0804"/>
<text text-anchor="middle" x="342.5" y="-450.273" font-family="Times,serif" font-size="4.00">IKBKG/IKBKB/CHUK</text>
</g>
<!-- pr_7e029707&#45;f698&#45;4e12&#45;9276&#45;9bfaf16eccb0&#45;&gt;IKBKG/IKBKB/CHUK -->
<g id="edge29" class="edge"><title>pr_7e029707&#45;f698&#45;4e12&#45;9276&#45;9bfaf16eccb0&#45;&gt;IKBKG/IKBKB/CHUK</title>
<path fill="none" stroke="black" d="M342.5,-520.163C342.5,-511.24 342.5,-501.997 342.5,-493.316"/>
<polygon fill="black" stroke="black" points="346,-493.065 342.5,-483.065 339,-493.065 346,-493.065"/>
</g>
<!-- E -->
<g id="node21" class="node"><title>E</title>
<ellipse fill="none" stroke="black" cx="281.5" cy="-682.279" rx="18" ry="18"/>
<text text-anchor="middle" x="281.5" y="-681.079" font-family="Times,serif" font-size="4.00">E</text>
</g>
<!-- E&#45;&gt;pr_7e029707&#45;f698&#45;4e12&#45;9276&#45;9bfaf16eccb0 -->
<g id="edge30" class="edge"><title>E&#45;&gt;pr_7e029707&#45;f698&#45;4e12&#45;9276&#45;9bfaf16eccb0</title>
<path fill="none" stroke="black" d="M289.982,-665.843C295.566,-655.679 303.26,-641.677 311.037,-627.523"/>
<polygon fill="black" stroke="black" points="314.124,-629.174 315.872,-618.724 307.989,-625.803 314.124,-629.174"/>
</g>
<!-- E&#45;&gt;pr_24c3aa42&#45;953b&#45;419b&#45;8083&#45;52d462f4b489 -->
<g id="edge31" class="edge"><title>E&#45;&gt;pr_24c3aa42&#45;953b&#45;419b&#45;8083&#45;52d462f4b489</title>
<path fill="none" stroke="black" d="M273.713,-665.843C268.734,-655.97 261.927,-642.477 254.998,-628.74"/>
<polygon fill="black" stroke="black" points="258.073,-627.066 250.445,-619.714 251.823,-630.219 258.073,-627.066"/>
</g>
<!-- Pro_IL1b -->
<g id="node23" class="node"><title>Pro_IL1b</title>
<ellipse fill="none" stroke="black" cx="225.5" cy="-451.473" rx="18" ry="18"/>
<text text-anchor="middle" x="225.5" y="-450.273" font-family="Times,serif" font-size="4.00">Pro_IL1b</text>
</g>
<!-- Pro_IL1b&#45;&gt;pr_24c3aa42&#45;953b&#45;419b&#45;8083&#45;52d462f4b489 -->
<g id="edge32" class="edge"><title>Pro_IL1b&#45;&gt;pr_24c3aa42&#45;953b&#45;419b&#45;8083&#45;52d462f4b489</title>
<path fill="none" stroke="black" d="M230.378,-468.86C231.587,-479.537 232.211,-494.186 232.248,-508.959"/>
<polygon fill="black" stroke="black" points="228.747,-509.134 232.18,-519.158 235.747,-509.181 228.747,-509.134"/>
</g>
<!-- pr_24c3aa42&#45;953b&#45;419b&#45;8083&#45;52d462f4b489&#45;&gt;Pro_IL1b -->
<g id="edge33" class="edge"><title>pr_24c3aa42&#45;953b&#45;419b&#45;8083&#45;52d462f4b489&#45;&gt;Pro_IL1b</title>
<path fill="none" stroke="black" d="M218.82,-519.158C218.6,-505.378 218.901,-490.918 219.722,-478.999"/>
<polygon fill="black" stroke="black" points="223.224,-479.13 220.622,-468.86 216.251,-478.511 223.224,-479.13"/>
</g>
<!-- SERPINF2 -->
<g id="node25" class="node"><title>SERPINF2</title>
<ellipse fill="none" stroke="black" cx="498.5" cy="-228.092" rx="19.1842" ry="19.1842"/>
<text text-anchor="middle" x="498.5" y="-226.892" font-family="Times,serif" font-size="4.00">SERPINF2</text>
</g>
<!-- pr_6a627011&#45;0315&#45;40cf&#45;b42a&#45;2fef46ddebc5 -->
<g id="node26" class="node"><title>pr_6a627011&#45;0315&#45;40cf&#45;b42a&#45;2fef46ddebc5</title>
<polygon fill="none" stroke="black" points="547.5,-171.5 449.5,-171.5 449.5,-73.5 547.5,-73.5 547.5,-171.5"/>
<text text-anchor="middle" x="498.5" y="-121.3" font-family="Times,serif" font-size="4.00">pr_6a627011&#45;0315&#45;40cf&#45;b42a&#45;2fef46ddebc5</text>
</g>
<!-- SERPINF2&#45;&gt;pr_6a627011&#45;0315&#45;40cf&#45;b42a&#45;2fef46ddebc5 -->
<g id="edge34" class="edge"><title>SERPINF2&#45;&gt;pr_6a627011&#45;0315&#45;40cf&#45;b42a&#45;2fef46ddebc5</title>
<path fill="none" stroke="black" d="M498.5,-208.572C498.5,-200.883 498.5,-191.499 498.5,-181.805"/>
<polygon fill="black" stroke="black" points="502,-181.65 498.5,-171.65 495,-181.65 502,-181.65"/>
</g>
<!-- pr_7595fcf8&#45;ebd5&#45;4277&#45;a2e6&#45;8223542ce573 -->
<g id="node51" class="node"><title>pr_7595fcf8&#45;ebd5&#45;4277&#45;a2e6&#45;8223542ce573</title>
<polygon fill="none" stroke="black" points="548,-383.184 449,-383.184 449,-284.184 548,-284.184 548,-383.184"/>
<text text-anchor="middle" x="498.5" y="-332.484" font-family="Times,serif" font-size="4.00">pr_7595fcf8&#45;ebd5&#45;4277&#45;a2e6&#45;8223542ce573</text>
</g>
<!-- SERPINF2&#45;&gt;pr_7595fcf8&#45;ebd5&#45;4277&#45;a2e6&#45;8223542ce573 -->
<g id="edge35" class="edge"><title>SERPINF2&#45;&gt;pr_7595fcf8&#45;ebd5&#45;4277&#45;a2e6&#45;8223542ce573</title>
<path fill="none" stroke="black" d="M503.744,-246.918C504.551,-254.555 505.033,-263.954 505.192,-273.7"/>
<polygon fill="black" stroke="black" points="501.693,-273.938 505.24,-283.921 508.693,-273.905 501.693,-273.938"/>
</g>
<!-- IFNB1 -->
<g id="node27" class="node"><title>IFNB1</title>
<ellipse fill="none" stroke="black" cx="498.5" cy="-18" rx="18" ry="18"/>
<text text-anchor="middle" x="498.5" y="-16.8" font-family="Times,serif" font-size="4.00">IFNB1</text>
</g>
<!-- pr_6a627011&#45;0315&#45;40cf&#45;b42a&#45;2fef46ddebc5&#45;&gt;IFNB1 -->
<g id="edge36" class="edge"><title>pr_6a627011&#45;0315&#45;40cf&#45;b42a&#45;2fef46ddebc5&#45;&gt;IFNB1</title>
<path fill="none" stroke="black" d="M498.5,-73.2514C498.5,-64.0088 498.5,-54.6357 498.5,-46.3398"/>
<polygon fill="black" stroke="black" points="502,-46.1562 498.5,-36.1562 495,-46.1562 502,-46.1562"/>
</g>
<!-- pr_ba7b5cb1&#45;4494&#45;44ac&#45;bb8e&#45;68a25985baeb&#45;&gt;Pro_IL1b -->
<g id="edge37" class="edge"><title>pr_ba7b5cb1&#45;4494&#45;44ac&#45;bb8e&#45;68a25985baeb&#45;&gt;Pro_IL1b</title>
<path fill="none" stroke="black" d="M126.838,-744.609C126.809,-687.501 132.623,-592.209 166.5,-518.763 175.157,-499.994 190.944,-482.692 204.01,-470.474"/>
<polygon fill="black" stroke="black" points="206.609,-472.843 211.706,-463.555 201.929,-467.638 206.609,-472.843"/>
</g>
<!-- TLR3 -->
<g id="node29" class="node"><title>TLR3</title>
<ellipse fill="none" stroke="black" cx="734.5" cy="-1128.51" rx="18" ry="18"/>
<text text-anchor="middle" x="734.5" y="-1127.31" font-family="Times,serif" font-size="4.00">TLR3</text>
</g>
<!-- pr_949d730c&#45;a723&#45;4838&#45;8d19&#45;d8302cf1a285 -->
<g id="node30" class="node"><title>pr_949d730c&#45;a723&#45;4838&#45;8d19&#45;d8302cf1a285</title>
<polygon fill="none" stroke="black" points="802.5,-1071.33 702.5,-1071.33 702.5,-971.329 802.5,-971.329 802.5,-1071.33"/>
<text text-anchor="middle" x="752.5" y="-1020.13" font-family="Times,serif" font-size="4.00">pr_949d730c&#45;a723&#45;4838&#45;8d19&#45;d8302cf1a285</text>
</g>
<!-- TLR3&#45;&gt;pr_949d730c&#45;a723&#45;4838&#45;8d19&#45;d8302cf1a285 -->
<g id="edge38" class="edge"><title>TLR3&#45;&gt;pr_949d730c&#45;a723&#45;4838&#45;8d19&#45;d8302cf1a285</title>
<path fill="none" stroke="black" d="M732.277,-1110.61C732.768,-1102.43 734.011,-1092.07 735.696,-1081.34"/>
<polygon fill="black" stroke="black" points="739.153,-1081.89 737.358,-1071.45 732.25,-1080.73 739.153,-1081.89"/>
</g>
<!-- pr_60470df9&#45;fd44&#45;4148&#45;b30e&#45;d1494d4d8bd4 -->
<g id="node33" class="node"><title>pr_60470df9&#45;fd44&#45;4148&#45;b30e&#45;d1494d4d8bd4</title>
<polygon fill="none" stroke="black" points="646,-1070.83 547,-1070.83 547,-971.829 646,-971.829 646,-1070.83"/>
<text text-anchor="middle" x="596.5" y="-1020.13" font-family="Times,serif" font-size="4.00">pr_60470df9&#45;fd44&#45;4148&#45;b30e&#45;d1494d4d8bd4</text>
</g>
<!-- TLR3&#45;&gt;pr_60470df9&#45;fd44&#45;4148&#45;b30e&#45;d1494d4d8bd4 -->
<g id="edge39" class="edge"><title>TLR3&#45;&gt;pr_60470df9&#45;fd44&#45;4148&#45;b30e&#45;d1494d4d8bd4</title>
<path fill="none" stroke="black" d="M720.508,-1116.85C704.933,-1104.98 678.745,-1085.02 654.438,-1066.49"/>
<polygon fill="black" stroke="black" points="656.36,-1063.55 646.285,-1060.27 652.117,-1069.12 656.36,-1063.55"/>
</g>
<!-- pr_949d730c&#45;a723&#45;4838&#45;8d19&#45;d8302cf1a285&#45;&gt;TLR3 -->
<g id="edge40" class="edge"><title>pr_949d730c&#45;a723&#45;4838&#45;8d19&#45;d8302cf1a285&#45;&gt;TLR3</title>
<path fill="none" stroke="black" d="M750.79,-1071.7C749.067,-1082.2 746.954,-1092.87 744.74,-1102.03"/>
<polygon fill="black" stroke="black" points="741.279,-1101.43 742.111,-1111.99 748.047,-1103.22 741.279,-1101.43"/>
</g>
<!-- dsRNA -->
<g id="node31" class="node"><title>dsRNA</title>
<ellipse fill="none" stroke="black" cx="788.5" cy="-1128.51" rx="18" ry="18"/>
<text text-anchor="middle" x="788.5" y="-1127.31" font-family="Times,serif" font-size="4.00">dsRNA</text>
</g>
<!-- dsRNA&#45;&gt;pr_949d730c&#45;a723&#45;4838&#45;8d19&#45;d8302cf1a285 -->
<g id="edge41" class="edge"><title>dsRNA&#45;&gt;pr_949d730c&#45;a723&#45;4838&#45;8d19&#45;d8302cf1a285</title>
<path fill="none" stroke="black" d="M782.875,-1111.08C780.03,-1102.76 776.386,-1092.12 772.616,-1081.1"/>
<polygon fill="black" stroke="black" points="775.838,-1079.71 769.288,-1071.38 769.215,-1081.97 775.838,-1079.71"/>
</g>
<!-- TICAM1 -->
<g id="node32" class="node"><title>TICAM1</title>
<ellipse fill="none" stroke="black" cx="596.5" cy="-1128.51" rx="18" ry="18"/>
<text text-anchor="middle" x="596.5" y="-1127.31" font-family="Times,serif" font-size="4.00">TICAM1</text>
</g>
<!-- TICAM1&#45;&gt;pr_60470df9&#45;fd44&#45;4148&#45;b30e&#45;d1494d4d8bd4 -->
<g id="edge42" class="edge"><title>TICAM1&#45;&gt;pr_60470df9&#45;fd44&#45;4148&#45;b30e&#45;d1494d4d8bd4</title>
<path fill="none" stroke="black" d="M591.438,-1111.08C590.489,-1102.76 589.94,-1092.11 589.791,-1081.09"/>
<polygon fill="black" stroke="black" points="593.291,-1080.91 589.767,-1070.92 586.291,-1080.93 593.291,-1080.91"/>
</g>
<!-- TICAM1&#45;&gt;pr_0cbe1bb9&#45;c21f&#45;4202&#45;a3ff&#45;790bfed7321e -->
<g id="edge43" class="edge"><title>TICAM1&#45;&gt;pr_0cbe1bb9&#45;c21f&#45;4202&#45;a3ff&#45;790bfed7321e</title>
<path fill="none" stroke="black" d="M583.532,-1115.85C571.871,-1105.37 553.892,-1089.21 536.142,-1073.25"/>
<polygon fill="black" stroke="black" points="538.344,-1070.52 528.568,-1066.44 533.664,-1075.73 538.344,-1070.52"/>
</g>
<!-- pr_60470df9&#45;fd44&#45;4148&#45;b30e&#45;d1494d4d8bd4&#45;&gt;TICAM1 -->
<g id="edge44" class="edge"><title>pr_60470df9&#45;fd44&#45;4148&#45;b30e&#45;d1494d4d8bd4&#45;&gt;TICAM1</title>
<path fill="none" stroke="black" d="M603.233,-1070.92C603.323,-1081.3 603.061,-1091.89 602.446,-1101.06"/>
<polygon fill="black" stroke="black" points="598.955,-1100.81 601.562,-1111.08 605.928,-1101.42 598.955,-1100.81"/>
</g>
<!-- TRIM38 -->
<g id="node34" class="node"><title>TRIM38</title>
<ellipse fill="none" stroke="black" cx="662.5" cy="-1128.51" rx="18" ry="18"/>
<text text-anchor="middle" x="662.5" y="-1127.31" font-family="Times,serif" font-size="4.00">TRIM38</text>
</g>
<!-- TRIM38&#45;&gt;pr_60470df9&#45;fd44&#45;4148&#45;b30e&#45;d1494d4d8bd4 -->
<g id="edge45" class="edge"><title>TRIM38&#45;&gt;pr_60470df9&#45;fd44&#45;4148&#45;b30e&#45;d1494d4d8bd4</title>
<path fill="none" stroke="black" d="M653.323,-1112.89C647.74,-1103.99 640.209,-1091.99 632.458,-1079.63"/>
<polygon fill="black" stroke="black" points="635.359,-1077.67 627.079,-1071.06 629.429,-1081.39 635.359,-1077.67"/>
</g>
<!-- TRIM38&#45;&gt;pr_0f1a2448&#45;179c&#45;482e&#45;bed5&#45;e6f30670cdbc -->
<g id="edge46" class="edge"><title>TRIM38&#45;&gt;pr_0f1a2448&#45;179c&#45;482e&#45;bed5&#45;e6f30670cdbc</title>
<path fill="none" stroke="black" d="M664.069,-1110.55C667.322,-1073.88 674.5,-984.432 674.5,-909.312 674.5,-909.312 674.5,-909.312 674.5,-794.296 674.5,-736.59 655.969,-673.198 639.677,-628.619"/>
<polygon fill="black" stroke="black" points="642.908,-627.266 636.135,-619.119 636.349,-629.712 642.908,-627.266"/>
</g>
<!-- pr_743a7eaf&#45;fd1a&#45;4bfd&#45;a010&#45;6d912bd6f189&#45;&gt;TRIM59 -->
<g id="edge47" class="edge"><title>pr_743a7eaf&#45;fd1a&#45;4bfd&#45;a010&#45;6d912bd6f189&#45;&gt;TRIM59</title>
<path fill="none" stroke="black" d="M356.804,-972.281C356.621,-959.799 356.9,-946.805 357.642,-935.884"/>
<polygon fill="black" stroke="black" points="361.144,-936.02 358.538,-925.751 354.171,-935.404 361.144,-936.02"/>
</g>
<!-- TLR7/8/9 -->
<g id="node36" class="node"><title>TLR7/8/9</title>
<ellipse fill="none" stroke="black" cx="825.5" cy="-682.279" rx="18.0625" ry="18.0625"/>
<text text-anchor="middle" x="825.5" y="-681.079" font-family="Times,serif" font-size="4.00">TLR7/8/9</text>
</g>
<!-- pr_05b43ad9&#45;cb83&#45;470d&#45;a6d2&#45;a361e50003fd -->
<g id="node37" class="node"><title>pr_05b43ad9&#45;cb83&#45;470d&#45;a6d2&#45;a361e50003fd</title>
<polygon fill="none" stroke="black" points="902.5,-619.263 802.5,-619.263 802.5,-519.263 902.5,-519.263 902.5,-619.263"/>
<text text-anchor="middle" x="852.5" y="-568.063" font-family="Times,serif" font-size="4.00">pr_05b43ad9&#45;cb83&#45;470d&#45;a6d2&#45;a361e50003fd</text>
</g>
<!-- TLR7/8/9&#45;&gt;pr_05b43ad9&#45;cb83&#45;470d&#45;a6d2&#45;a361e50003fd -->
<g id="edge48" class="edge"><title>TLR7/8/9&#45;&gt;pr_05b43ad9&#45;cb83&#45;470d&#45;a6d2&#45;a361e50003fd</title>
<path fill="none" stroke="black" d="M824.656,-663.933C825.931,-654.501 828.36,-642.221 831.316,-629.674"/>
<polygon fill="black" stroke="black" points="834.803,-630.149 833.787,-619.603 828.005,-628.48 834.803,-630.149"/>
</g>
<!-- pr_3e35e2e0&#45;c1cb&#45;4534&#45;9bec&#45;0447eb8b59bd -->
<g id="node40" class="node"><title>pr_3e35e2e0&#45;c1cb&#45;4534&#45;9bec&#45;0447eb8b59bd</title>
<polygon fill="none" stroke="black" points="784,-619.763 683,-619.763 683,-518.763 784,-518.763 784,-619.763"/>
<text text-anchor="middle" x="733.5" y="-568.063" font-family="Times,serif" font-size="4.00">pr_3e35e2e0&#45;c1cb&#45;4534&#45;9bec&#45;0447eb8b59bd</text>
</g>
<!-- TLR7/8/9&#45;&gt;pr_3e35e2e0&#45;c1cb&#45;4534&#45;9bec&#45;0447eb8b59bd -->
<g id="edge49" class="edge"><title>TLR7/8/9&#45;&gt;pr_3e35e2e0&#45;c1cb&#45;4534&#45;9bec&#45;0447eb8b59bd</title>
<path fill="none" stroke="black" d="M814.219,-667.666C805.72,-657.411 793.441,-642.594 781.015,-627.599"/>
<polygon fill="black" stroke="black" points="783.598,-625.231 774.522,-619.764 778.208,-629.697 783.598,-625.231"/>
</g>
<!-- pr_05b43ad9&#45;cb83&#45;470d&#45;a6d2&#45;a361e50003fd&#45;&gt;TLR7/8/9 -->
<g id="edge50" class="edge"><title>pr_05b43ad9&#45;cb83&#45;470d&#45;a6d2&#45;a361e50003fd&#45;&gt;TLR7/8/9</title>
<path fill="none" stroke="black" d="M847.212,-619.608C844.247,-632.434 840.689,-645.705 837.214,-656.636"/>
<polygon fill="black" stroke="black" points="833.831,-655.713 833.93,-666.307 840.459,-657.963 833.831,-655.713"/>
</g>
<!-- ssRNA -->
<g id="node38" class="node"><title>ssRNA</title>
<ellipse fill="none" stroke="black" cx="879.5" cy="-682.279" rx="18" ry="18"/>
<text text-anchor="middle" x="879.5" y="-681.079" font-family="Times,serif" font-size="4.00">ssRNA</text>
</g>
<!-- ssRNA&#45;&gt;pr_05b43ad9&#45;cb83&#45;470d&#45;a6d2&#45;a361e50003fd -->
<g id="edge51" class="edge"><title>ssRNA&#45;&gt;pr_05b43ad9&#45;cb83&#45;470d&#45;a6d2&#45;a361e50003fd</title>
<path fill="none" stroke="black" d="M875.399,-664.418C873.072,-654.848 870.004,-642.234 866.873,-629.362"/>
<polygon fill="black" stroke="black" points="870.242,-628.404 864.478,-619.514 863.441,-630.058 870.242,-628.404"/>
</g>
<!-- MYD88 -->
<g id="node39" class="node"><title>MYD88</title>
<ellipse fill="none" stroke="black" cx="733.5" cy="-682.279" rx="18" ry="18"/>
<text text-anchor="middle" x="733.5" y="-681.079" font-family="Times,serif" font-size="4.00">MYD88</text>
</g>
<!-- MYD88&#45;&gt;pr_3e35e2e0&#45;c1cb&#45;4534&#45;9bec&#45;0447eb8b59bd -->
<g id="edge52" class="edge"><title>MYD88&#45;&gt;pr_3e35e2e0&#45;c1cb&#45;4534&#45;9bec&#45;0447eb8b59bd</title>
<path fill="none" stroke="black" d="M728.545,-664.898C727.472,-655.475 726.88,-642.991 726.769,-630.191"/>
<polygon fill="black" stroke="black" points="730.269,-629.916 726.784,-619.911 723.269,-629.906 730.269,-629.916"/>
</g>
<!-- MYD88&#45;&gt;pr_0f1a2448&#45;179c&#45;482e&#45;bed5&#45;e6f30670cdbc -->
<g id="edge53" class="edge"><title>MYD88&#45;&gt;pr_0f1a2448&#45;179c&#45;482e&#45;bed5&#45;e6f30670cdbc</title>
<path fill="none" stroke="black" d="M720.872,-669.399C709.167,-658.386 690.883,-641.185 672.812,-624.182"/>
<polygon fill="black" stroke="black" points="674.781,-621.23 665.099,-616.926 669.984,-626.328 674.781,-621.23"/>
</g>
<!-- pr_3e35e2e0&#45;c1cb&#45;4534&#45;9bec&#45;0447eb8b59bd&#45;&gt;MYD88 -->
<g id="edge54" class="edge"><title>pr_3e35e2e0&#45;c1cb&#45;4534&#45;9bec&#45;0447eb8b59bd&#45;&gt;MYD88</title>
<path fill="none" stroke="black" d="M740.216,-619.911C740.354,-631.924 740.067,-644.308 739.353,-654.777"/>
<polygon fill="black" stroke="black" points="735.853,-654.628 738.455,-664.898 742.825,-655.247 735.853,-654.628"/>
</g>
<!-- pr_0f1a2448&#45;179c&#45;482e&#45;bed5&#45;e6f30670cdbc&#45;&gt;TRAF6 -->
<g id="edge55" class="edge"><title>pr_0f1a2448&#45;179c&#45;482e&#45;bed5&#45;e6f30670cdbc&#45;&gt;TRAF6</title>
<path fill="none" stroke="black" d="M598.496,-619.007C591.933,-632.876 584.524,-647.318 577.985,-658.797"/>
<polygon fill="black" stroke="black" points="574.818,-657.278 572.736,-667.666 580.841,-660.844 574.818,-657.278"/>
</g>
<!-- TRIM23 -->
<g id="node42" class="node"><title>TRIM23</title>
<ellipse fill="none" stroke="black" cx="615.5" cy="-682.279" rx="18" ry="18"/>
<text text-anchor="middle" x="615.5" y="-681.079" font-family="Times,serif" font-size="4.00">TRIM23</text>
</g>
<!-- TRIM23&#45;&gt;pr_0f1a2448&#45;179c&#45;482e&#45;bed5&#45;e6f30670cdbc -->
<g id="edge56" class="edge"><title>TRIM23&#45;&gt;pr_0f1a2448&#45;179c&#45;482e&#45;bed5&#45;e6f30670cdbc</title>
<path fill="none" stroke="black" d="M615.5,-663.933C615.5,-654.405 615.5,-641.97 615.5,-629.289"/>
<polygon fill="black" stroke="black" points="619,-629.118 615.5,-619.118 612,-629.118 619,-629.118"/>
</g>
<!-- TAB2/TAB3/TAK1 -->
<g id="node43" class="node"><title>TAB2/TAB3/TAK1</title>
<ellipse fill="none" stroke="black" cx="498.5" cy="-451.473" rx="27.0938" ry="27.0938"/>
<text text-anchor="middle" x="498.5" y="-450.273" font-family="Times,serif" font-size="4.00">TAB2/TAB3/TAK1</text>
</g>
<!-- TAB2/TAB3/TAK1&#45;&gt;pr_eb769fdd&#45;7f3c&#45;48d7&#45;b475&#45;d5aed7022f7c -->
<g id="edge57" class="edge"><title>TAB2/TAB3/TAK1&#45;&gt;pr_eb769fdd&#45;7f3c&#45;48d7&#45;b475&#45;d5aed7022f7c</title>
<path fill="none" stroke="black" d="M504.217,-478.13C504.897,-487.6 505.241,-498.758 505.25,-509.938"/>
<polygon fill="black" stroke="black" points="501.748,-510.134 505.163,-520.163 508.748,-510.193 501.748,-510.134"/>
</g>
<!-- TAB2/TAB3/TAK1&#45;&gt;pr_0eb87cc8&#45;40ad&#45;428c&#45;a94a&#45;01b46d49913b -->
<g id="edge58" class="edge"><title>TAB2/TAB3/TAK1&#45;&gt;pr_0eb87cc8&#45;40ad&#45;428c&#45;a94a&#45;01b46d49913b</title>
<path fill="none" stroke="black" d="M518.993,-433.172C524.298,-428.84 530.052,-424.265 535.5,-420.184 556.584,-404.389 580.312,-387.861 601.384,-373.593"/>
<polygon fill="black" stroke="black" points="603.594,-376.324 609.929,-367.832 599.681,-370.52 603.594,-376.324"/>
</g>
<!-- TAB2/TAB3/TAK1&#45;&gt;pr_7595fcf8&#45;ebd5&#45;4277&#45;a2e6&#45;8223542ce573 -->
<g id="edge59" class="edge"><title>TAB2/TAB3/TAK1&#45;&gt;pr_7595fcf8&#45;ebd5&#45;4277&#45;a2e6&#45;8223542ce573</title>
<path fill="none" stroke="black" d="M498.5,-424.199C498.5,-415.097 498.5,-404.492 498.5,-393.829"/>
<polygon fill="black" stroke="black" points="502,-393.637 498.5,-383.637 495,-393.637 502,-393.637"/>
</g>
<!-- pr_eb769fdd&#45;7f3c&#45;48d7&#45;b475&#45;d5aed7022f7c&#45;&gt;TAB2/TAB3/TAK1 -->
<g id="edge60" class="edge"><title>pr_eb769fdd&#45;7f3c&#45;48d7&#45;b475&#45;d5aed7022f7c&#45;&gt;TAB2/TAB3/TAK1</title>
<path fill="none" stroke="black" d="M491.837,-520.163C491.646,-509.465 491.77,-498.306 492.21,-488.207"/>
<polygon fill="black" stroke="black" points="495.71,-488.313 492.783,-478.13 488.721,-487.916 495.71,-488.313"/>
</g>
<!-- TRIM30a/TRIM38 -->
<g id="node45" class="node"><title>TRIM30a/TRIM38</title>
<ellipse fill="none" stroke="black" cx="498.5" cy="-682.279" rx="26.533" ry="26.533"/>
<text text-anchor="middle" x="498.5" y="-681.079" font-family="Times,serif" font-size="4.00">TRIM30a/TRIM38</text>
</g>
<!-- TRIM30a/TRIM38&#45;&gt;pr_eb769fdd&#45;7f3c&#45;48d7&#45;b475&#45;d5aed7022f7c -->
<g id="edge61" class="edge"><title>TRIM30a/TRIM38&#45;&gt;pr_eb769fdd&#45;7f3c&#45;48d7&#45;b475&#45;d5aed7022f7c</title>
<path fill="none" stroke="black" d="M498.5,-655.531C498.5,-647.44 498.5,-638.152 498.5,-628.749"/>
<polygon fill="black" stroke="black" points="502,-628.552 498.5,-618.553 495,-628.553 502,-628.552"/>
</g>
<!-- TRIM22 -->
<g id="node47" class="node"><title>TRIM22</title>
<ellipse fill="none" stroke="black" cx="752.5" cy="-451.473" rx="18" ry="18"/>
<text text-anchor="middle" x="752.5" y="-450.273" font-family="Times,serif" font-size="4.00">TRIM22</text>
</g>
<!-- TRIM22&#45;&gt;pr_0eb87cc8&#45;40ad&#45;428c&#45;a94a&#45;01b46d49913b -->
<g id="edge62" class="edge"><title>TRIM22&#45;&gt;pr_0eb87cc8&#45;40ad&#45;428c&#45;a94a&#45;01b46d49913b</title>
<path fill="none" stroke="black" d="M741.585,-436.736C732.709,-425.565 719.542,-408.993 706.387,-392.436"/>
<polygon fill="black" stroke="black" points="708.91,-389.986 699.949,-384.334 703.43,-394.34 708.91,-389.986"/>
</g>
<!-- TRIM27/TRIM21 -->
<g id="node48" class="node"><title>TRIM27/TRIM21</title>
<ellipse fill="none" stroke="black" cx="569.5" cy="-451.473" rx="25.4118" ry="25.4118"/>
<text text-anchor="middle" x="569.5" y="-450.273" font-family="Times,serif" font-size="4.00">TRIM27/TRIM21</text>
</g>
<!-- TRIM27/TRIM21&#45;&gt;pr_0eb87cc8&#45;40ad&#45;428c&#45;a94a&#45;01b46d49913b -->
<g id="edge63" class="edge"><title>TRIM27/TRIM21&#45;&gt;pr_0eb87cc8&#45;40ad&#45;428c&#45;a94a&#45;01b46d49913b</title>
<path fill="none" stroke="black" d="M584.937,-430.831C593.33,-420.152 604.193,-406.329 615.053,-392.512"/>
<polygon fill="black" stroke="black" points="618,-394.426 621.427,-384.4 612.496,-390.1 618,-394.426"/>
</g>
<!-- TRIM29 -->
<g id="node49" class="node"><title>TRIM29</title>
<ellipse fill="none" stroke="black" cx="630.5" cy="-451.473" rx="18" ry="18"/>
<text text-anchor="middle" x="630.5" y="-450.273" font-family="Times,serif" font-size="4.00">TRIM29</text>
</g>
<!-- TRIM29&#45;&gt;pr_0eb87cc8&#45;40ad&#45;428c&#45;a94a&#45;01b46d49913b -->
<g id="edge64" class="edge"><title>TRIM29&#45;&gt;pr_0eb87cc8&#45;40ad&#45;428c&#45;a94a&#45;01b46d49913b</title>
<path fill="none" stroke="black" d="M634.798,-433.883C637.536,-423.315 641.267,-408.916 645.037,-394.366"/>
<polygon fill="black" stroke="black" points="648.521,-394.872 647.641,-384.314 641.745,-393.116 648.521,-394.872"/>
</g>
<!-- TRIM14/TRIM23 -->
<g id="node50" class="node"><title>TRIM14/TRIM23</title>
<ellipse fill="none" stroke="black" cx="691.5" cy="-451.473" rx="25.4118" ry="25.4118"/>
<text text-anchor="middle" x="691.5" y="-450.273" font-family="Times,serif" font-size="4.00">TRIM14/TRIM23</text>
</g>
<!-- TRIM14/TRIM23&#45;&gt;pr_0eb87cc8&#45;40ad&#45;428c&#45;a94a&#45;01b46d49913b -->
<g id="edge65" class="edge"><title>TRIM14/TRIM23&#45;&gt;pr_0eb87cc8&#45;40ad&#45;428c&#45;a94a&#45;01b46d49913b</title>
<path fill="none" stroke="black" d="M685.152,-426.762C682.631,-417.346 679.607,-406.051 676.554,-394.648"/>
<polygon fill="black" stroke="black" points="679.843,-393.399 673.876,-384.645 673.081,-395.21 679.843,-393.399"/>
</g>
<!-- pr_7595fcf8&#45;ebd5&#45;4277&#45;a2e6&#45;8223542ce573&#45;&gt;SERPINF2 -->
<g id="edge66" class="edge"><title>pr_7595fcf8&#45;ebd5&#45;4277&#45;a2e6&#45;8223542ce573&#45;&gt;SERPINF2</title>
<path fill="none" stroke="black" d="M491.76,-283.921C491.698,-274.726 491.92,-265.403 492.426,-257.117"/>
<polygon fill="black" stroke="black" points="495.933,-257.169 493.256,-246.918 488.957,-256.602 495.933,-257.169"/>
</g>
<!-- pr_0cbe1bb9&#45;c21f&#45;4202&#45;a3ff&#45;790bfed7321e&#45;&gt;TRAF3 -->
<g id="edge67" class="edge"><title>pr_0cbe1bb9&#45;c21f&#45;4202&#45;a3ff&#45;790bfed7321e&#45;&gt;TRAF3</title>
<path fill="none" stroke="black" d="M486.228,-1070.46C486.33,-1080.94 486.072,-1091.67 485.454,-1100.95"/>
<polygon fill="black" stroke="black" points="481.953,-1100.81 484.562,-1111.08 488.926,-1101.42 481.953,-1100.81"/>
</g>
<!-- NFKB1 -->
<g id="node54" class="node"><title>NFKB1</title>
<ellipse fill="none" stroke="black" cx="848.5" cy="-18" rx="18" ry="18"/>
<text text-anchor="middle" x="848.5" y="-16.8" font-family="Times,serif" font-size="4.00">NFKB1</text>
</g>
<!-- pr_7814cb49&#45;6ab4&#45;4676&#45;be22&#45;27610ae054c4&#45;&gt;NFKB1 -->
<g id="edge68" class="edge"><title>pr_7814cb49&#45;6ab4&#45;4676&#45;be22&#45;27610ae054c4&#45;&gt;NFKB1</title>
<path fill="none" stroke="black" d="M848.5,-71.7513C848.5,-62.9143 848.5,-54.0178 848.5,-46.1139"/>
<polygon fill="black" stroke="black" points="852,-46.0498 848.5,-36.0499 845,-46.0499 852,-46.0498"/>
</g>
</g>
</svg>
