<?xml version="1.0" encoding="UTF-8" standalone="no"?>
<!DOCTYPE svg PUBLIC "-//W3C//DTD SVG 1.1//EN"
 "http://www.w3.org/Graphics/SVG/1.1/DTD/svg11.dtd">
<!-- Generated by graphviz version 2.38.0 (20140413.2041)
 -->
<!-- Title: G Pages: 1 -->
<svg width="932pt" height="265pt"
 viewBox="0.00 0.00 932.00 264.73" xmlns="http://www.w3.org/2000/svg" xmlns:xlink="http://www.w3.org/1999/xlink">
<g id="graph0" class="graph" transform="scale(1 1) rotate(0) translate(4 260.73)">
<title>G</title>
<polygon fill="white" stroke="none" points="-4,4 -4,-260.73 928,-260.73 928,4 -4,4"/>
<!-- IFNB1 -->
<g id="node1" class="node"><title>IFNB1</title>
<ellipse fill="none" stroke="black" cx="108.5" cy="-238.73" rx="18" ry="18"/>
<text text-anchor="middle" x="108.5" y="-237.53" font-family="Times,serif" font-size="4.00">IFNB1</text>
</g>
<!-- pr_1ffae416&#45;1d0c&#45;4342&#45;9b35&#45;39b4bd709e8d -->
<g id="node2" class="node"><title>pr_1ffae416&#45;1d0c&#45;4342&#45;9b35&#45;39b4bd709e8d</title>
<polygon fill="none" stroke="black" points="216,-183.73 117,-183.73 117,-84.7297 216,-84.7297 216,-183.73"/>
<text text-anchor="middle" x="166.5" y="-133.03" font-family="Times,serif" font-size="4.00">pr_1ffae416&#45;1d0c&#45;4342&#45;9b35&#45;39b4bd709e8d</text>
</g>
<!-- IFNB1&#45;&gt;pr_1ffae416&#45;1d0c&#45;4342&#45;9b35&#45;39b4bd709e8d -->
<g id="edge1" class="edge"><title>IFNB1&#45;&gt;pr_1ffae416&#45;1d0c&#45;4342&#45;9b35&#45;39b4bd709e8d</title>
<path fill="none" stroke="black" d="M112.911,-220.804C116.471,-212.976 121.508,-203.17 127.1,-193.017"/>
<polygon fill="black" stroke="black" points="130.293,-194.479 132.134,-184.045 124.188,-191.053 130.293,-194.479"/>
</g>
<!-- pr_172cdce7&#45;cf8a&#45;4c80&#45;ad65&#45;0cfc694b6bb5 -->
<g id="node4" class="node"><title>pr_172cdce7&#45;cf8a&#45;4c80&#45;ad65&#45;0cfc694b6bb5</title>
<polygon fill="none" stroke="black" points="99,-183.73 0,-183.73 0,-84.7297 99,-84.7297 99,-183.73"/>
<text text-anchor="middle" x="49.5" y="-133.03" font-family="Times,serif" font-size="4.00">pr_172cdce7&#45;cf8a&#45;4c80&#45;ad65&#45;0cfc694b6bb5</text>
</g>
<!-- IFNB1&#45;&gt;pr_172cdce7&#45;cf8a&#45;4c80&#45;ad65&#45;0cfc694b6bb5 -->
<g id="edge2" class="edge"><title>IFNB1&#45;&gt;pr_172cdce7&#45;cf8a&#45;4c80&#45;ad65&#45;0cfc694b6bb5</title>
<path fill="none" stroke="black" d="M96.6512,-225.161C90.5797,-216.73 83.1073,-204.959 75.8788,-192.707"/>
<polygon fill="black" stroke="black" points="78.7248,-190.637 70.682,-183.741 72.6686,-194.148 78.7248,-190.637"/>
</g>
<!-- pr_1ffae416&#45;1d0c&#45;4342&#45;9b35&#45;39b4bd709e8d&#45;&gt;IFNB1 -->
<g id="edge3" class="edge"><title>pr_1ffae416&#45;1d0c&#45;4342&#45;9b35&#45;39b4bd709e8d&#45;&gt;IFNB1</title>
<path fill="none" stroke="black" d="M145.738,-183.837C139.341,-195.263 132.397,-206.864 126.195,-216.361"/>
<polygon fill="black" stroke="black" points="123.226,-214.505 120.519,-224.748 129.023,-218.429 123.226,-214.505"/>
</g>
<!-- Orf3b -->
<g id="node3" class="node"><title>Orf3b</title>
<ellipse fill="none" stroke="black" cx="283.5" cy="-238.73" rx="18" ry="18"/>
<text text-anchor="middle" x="283.5" y="-237.53" font-family="Times,serif" font-size="4.00">Orf3b</text>
</g>
<!-- Orf3b&#45;&gt;pr_1ffae416&#45;1d0c&#45;4342&#45;9b35&#45;39b4bd709e8d -->
<g id="edge4" class="edge"><title>Orf3b&#45;&gt;pr_1ffae416&#45;1d0c&#45;4342&#45;9b35&#45;39b4bd709e8d</title>
<path fill="none" stroke="black" d="M270.079,-225.972C258.627,-215.939 241.328,-200.785 224.13,-185.717"/>
<polygon fill="black" stroke="black" points="226.085,-182.777 216.256,-178.82 221.472,-188.042 226.085,-182.777"/>
</g>
<!-- pr_0fedd2d0&#45;a9db&#45;4cce&#45;a013&#45;4420a554cf13 -->
<g id="node9" class="node"><title>pr_0fedd2d0&#45;a9db&#45;4cce&#45;a013&#45;4420a554cf13</title>
<polygon fill="none" stroke="black" points="333,-183.73 234,-183.73 234,-84.7297 333,-84.7297 333,-183.73"/>
<text text-anchor="middle" x="283.5" y="-133.03" font-family="Times,serif" font-size="4.00">pr_0fedd2d0&#45;a9db&#45;4cce&#45;a013&#45;4420a554cf13</text>
</g>
<!-- Orf3b&#45;&gt;pr_0fedd2d0&#45;a9db&#45;4cce&#45;a013&#45;4420a554cf13 -->
<g id="edge5" class="edge"><title>Orf3b&#45;&gt;pr_0fedd2d0&#45;a9db&#45;4cce&#45;a013&#45;4420a554cf13</title>
<path fill="none" stroke="black" d="M283.5,-220.342C283.5,-212.881 283.5,-203.687 283.5,-194.13"/>
<polygon fill="black" stroke="black" points="287,-194.097 283.5,-184.097 280,-194.097 287,-194.097"/>
</g>
<!-- pr_92d89a2d&#45;30d2&#45;4e25&#45;a909&#45;d76f36a5a15b -->
<g id="node17" class="node"><title>pr_92d89a2d&#45;30d2&#45;4e25&#45;a909&#45;d76f36a5a15b</title>
<polygon fill="none" stroke="black" points="451.5,-184.23 351.5,-184.23 351.5,-84.2297 451.5,-84.2297 451.5,-184.23"/>
<text text-anchor="middle" x="401.5" y="-133.03" font-family="Times,serif" font-size="4.00">pr_92d89a2d&#45;30d2&#45;4e25&#45;a909&#45;d76f36a5a15b</text>
</g>
<!-- Orf3b&#45;&gt;pr_92d89a2d&#45;30d2&#45;4e25&#45;a909&#45;d76f36a5a15b -->
<g id="edge6" class="edge"><title>Orf3b&#45;&gt;pr_92d89a2d&#45;30d2&#45;4e25&#45;a909&#45;d76f36a5a15b</title>
<path fill="none" stroke="black" d="M297.036,-225.972C308.585,-215.939 326.032,-200.785 343.377,-185.717"/>
<polygon fill="black" stroke="black" points="346.064,-188.02 351.318,-178.82 341.474,-182.735 346.064,-188.02"/>
</g>
<!-- pr_172cdce7&#45;cf8a&#45;4c80&#45;ad65&#45;0cfc694b6bb5&#45;&gt;IFNB1 -->
<g id="edge7" class="edge"><title>pr_172cdce7&#45;cf8a&#45;4c80&#45;ad65&#45;0cfc694b6bb5&#45;&gt;IFNB1</title>
<path fill="none" stroke="black" d="M84.3093,-183.989C89.981,-193.746 95.3952,-203.623 99.7353,-212.202"/>
<polygon fill="black" stroke="black" points="96.618,-213.795 104.135,-221.261 102.915,-210.737 96.618,-213.795"/>
</g>
<!-- STOML2 -->
<g id="node5" class="node"><title>STOML2</title>
<ellipse fill="none" stroke="black" cx="519.5" cy="-238.73" rx="18" ry="18"/>
<text text-anchor="middle" x="519.5" y="-237.53" font-family="Times,serif" font-size="4.00">STOML2</text>
</g>
<!-- pr_02d5e1f9&#45;0dde&#45;4a77&#45;bd16&#45;21c6f5155480 -->
<g id="node6" class="node"><title>pr_02d5e1f9&#45;0dde&#45;4a77&#45;bd16&#45;21c6f5155480</title>
<polygon fill="none" stroke="black" points="686,-183.73 587,-183.73 587,-84.7297 686,-84.7297 686,-183.73"/>
<text text-anchor="middle" x="636.5" y="-133.03" font-family="Times,serif" font-size="4.00">pr_02d5e1f9&#45;0dde&#45;4a77&#45;bd16&#45;21c6f5155480</text>
</g>
<!-- STOML2&#45;&gt;pr_02d5e1f9&#45;0dde&#45;4a77&#45;bd16&#45;21c6f5155480 -->
<g id="edge8" class="edge"><title>STOML2&#45;&gt;pr_02d5e1f9&#45;0dde&#45;4a77&#45;bd16&#45;21c6f5155480</title>
<path fill="none" stroke="black" d="M532.921,-225.972C544.373,-215.939 561.672,-200.785 578.87,-185.717"/>
<polygon fill="black" stroke="black" points="581.528,-188.042 586.744,-178.82 576.915,-182.777 581.528,-188.042"/>
</g>
<!-- STOML2&#45;&gt;pr_0fedd2d0&#45;a9db&#45;4cce&#45;a013&#45;4420a554cf13 -->
<g id="edge9" class="edge"><title>STOML2&#45;&gt;pr_0fedd2d0&#45;a9db&#45;4cce&#45;a013&#45;4420a554cf13</title>
<path fill="none" stroke="black" d="M501.751,-234.884C468.79,-229.078 396.569,-213.883 342.5,-184.73 342.202,-184.569 341.904,-184.407 341.607,-184.243"/>
<polygon fill="black" stroke="black" points="343.413,-181.245 333.042,-179.081 339.8,-187.241 343.413,-181.245"/>
</g>
<!-- pr_62c5998b&#45;afbd&#45;4b3e&#45;a8b1&#45;b00c9bc55757 -->
<g id="node11" class="node"><title>pr_62c5998b&#45;afbd&#45;4b3e&#45;a8b1&#45;b00c9bc55757</title>
<polygon fill="none" stroke="black" points="804.5,-184.23 704.5,-184.23 704.5,-84.2297 804.5,-84.2297 804.5,-184.23"/>
<text text-anchor="middle" x="754.5" y="-133.03" font-family="Times,serif" font-size="4.00">pr_62c5998b&#45;afbd&#45;4b3e&#45;a8b1&#45;b00c9bc55757</text>
</g>
<!-- STOML2&#45;&gt;pr_62c5998b&#45;afbd&#45;4b3e&#45;a8b1&#45;b00c9bc55757 -->
<g id="edge10" class="edge"><title>STOML2&#45;&gt;pr_62c5998b&#45;afbd&#45;4b3e&#45;a8b1&#45;b00c9bc55757</title>
<path fill="none" stroke="black" d="M537.148,-234.863C569.922,-229.023 641.734,-213.774 695.5,-184.73 695.592,-184.68 695.684,-184.63 695.776,-184.58"/>
<polygon fill="black" stroke="black" points="697.462,-187.65 704.262,-179.525 693.88,-181.636 697.462,-187.65"/>
</g>
<!-- STOML2&#45;&gt;pr_92d89a2d&#45;30d2&#45;4e25&#45;a909&#45;d76f36a5a15b -->
<g id="edge11" class="edge"><title>STOML2&#45;&gt;pr_92d89a2d&#45;30d2&#45;4e25&#45;a909&#45;d76f36a5a15b</title>
<path fill="none" stroke="black" d="M505.964,-225.972C494.415,-215.939 476.968,-200.785 459.623,-185.717"/>
<polygon fill="black" stroke="black" points="461.526,-182.735 451.682,-178.82 456.936,-188.02 461.526,-182.735"/>
</g>
<!-- pr_6d5b74c8&#45;f25a&#45;45a4&#45;9395&#45;1f72980e4878 -->
<g id="node18" class="node"><title>pr_6d5b74c8&#45;f25a&#45;45a4&#45;9395&#45;1f72980e4878</title>
<polygon fill="none" stroke="black" points="569,-183.73 470,-183.73 470,-84.7297 569,-84.7297 569,-183.73"/>
<text text-anchor="middle" x="519.5" y="-133.03" font-family="Times,serif" font-size="4.00">pr_6d5b74c8&#45;f25a&#45;45a4&#45;9395&#45;1f72980e4878</text>
</g>
<!-- STOML2&#45;&gt;pr_6d5b74c8&#45;f25a&#45;45a4&#45;9395&#45;1f72980e4878 -->
<g id="edge12" class="edge"><title>STOML2&#45;&gt;pr_6d5b74c8&#45;f25a&#45;45a4&#45;9395&#45;1f72980e4878</title>
<path fill="none" stroke="black" d="M519.5,-220.342C519.5,-212.881 519.5,-203.687 519.5,-194.13"/>
<polygon fill="black" stroke="black" points="523,-194.097 519.5,-184.097 516,-194.097 523,-194.097"/>
</g>
<!-- MFN2&#45;STOML2 -->
<g id="node8" class="node"><title>MFN2&#45;STOML2</title>
<ellipse fill="none" stroke="black" cx="636.5" cy="-23.8649" rx="23.7305" ry="23.7305"/>
<text text-anchor="middle" x="636.5" y="-22.6649" font-family="Times,serif" font-size="4.00">MFN2&#45;STOML2</text>
</g>
<!-- pr_02d5e1f9&#45;0dde&#45;4a77&#45;bd16&#45;21c6f5155480&#45;&gt;MFN2&#45;STOML2 -->
<g id="edge13" class="edge"><title>pr_02d5e1f9&#45;0dde&#45;4a77&#45;bd16&#45;21c6f5155480&#45;&gt;MFN2&#45;STOML2</title>
<path fill="none" stroke="black" d="M636.5,-84.4364C636.5,-75.5095 636.5,-66.3855 636.5,-58.0466"/>
<polygon fill="black" stroke="black" points="640,-57.9778 636.5,-47.9779 633,-57.9779 640,-57.9778"/>
</g>
<!-- MFN2 -->
<g id="node7" class="node"><title>MFN2</title>
<ellipse fill="none" stroke="black" cx="636.5" cy="-238.73" rx="18" ry="18"/>
<text text-anchor="middle" x="636.5" y="-237.53" font-family="Times,serif" font-size="4.00">MFN2</text>
</g>
<!-- MFN2&#45;&gt;pr_02d5e1f9&#45;0dde&#45;4a77&#45;bd16&#45;21c6f5155480 -->
<g id="edge14" class="edge"><title>MFN2&#45;&gt;pr_02d5e1f9&#45;0dde&#45;4a77&#45;bd16&#45;21c6f5155480</title>
<path fill="none" stroke="black" d="M636.5,-220.342C636.5,-212.881 636.5,-203.687 636.5,-194.13"/>
<polygon fill="black" stroke="black" points="640,-194.097 636.5,-184.097 633,-194.097 640,-194.097"/>
</g>
<!-- Orf3b&#45;STOML2 -->
<g id="node10" class="node"><title>Orf3b&#45;STOML2</title>
<ellipse fill="none" stroke="black" cx="342.5" cy="-23.8649" rx="23.1702" ry="23.1702"/>
<text text-anchor="middle" x="342.5" y="-22.6649" font-family="Times,serif" font-size="4.00">Orf3b&#45;STOML2</text>
</g>
<!-- pr_0fedd2d0&#45;a9db&#45;4cce&#45;a013&#45;4420a554cf13&#45;&gt;Orf3b&#45;STOML2 -->
<g id="edge15" class="edge"><title>pr_0fedd2d0&#45;a9db&#45;4cce&#45;a013&#45;4420a554cf13&#45;&gt;Orf3b&#45;STOML2</title>
<path fill="none" stroke="black" d="M310.066,-84.4364C315.801,-73.9032 321.685,-63.0955 326.84,-53.6271"/>
<polygon fill="black" stroke="black" points="330.012,-55.1211 331.72,-44.6648 323.864,-51.7738 330.012,-55.1211"/>
</g>
<!-- STOML2&#45;PHB -->
<g id="node13" class="node"><title>STOML2&#45;PHB</title>
<ellipse fill="none" stroke="black" cx="754.5" cy="-23.8649" rx="22.05" ry="22.05"/>
<text text-anchor="middle" x="754.5" y="-22.6649" font-family="Times,serif" font-size="4.00">STOML2&#45;PHB</text>
</g>
<!-- pr_62c5998b&#45;afbd&#45;4b3e&#45;a8b1&#45;b00c9bc55757&#45;&gt;STOML2&#45;PHB -->
<g id="edge16" class="edge"><title>pr_62c5998b&#45;afbd&#45;4b3e&#45;a8b1&#45;b00c9bc55757&#45;&gt;STOML2&#45;PHB</title>
<path fill="none" stroke="black" d="M754.5,-84.1203C754.5,-74.6449 754.5,-64.9608 754.5,-56.2407"/>
<polygon fill="black" stroke="black" points="758,-56.1611 754.5,-46.1611 751,-56.1611 758,-56.1611"/>
</g>
<!-- PHB -->
<g id="node12" class="node"><title>PHB</title>
<ellipse fill="none" stroke="black" cx="786.5" cy="-238.73" rx="18" ry="18"/>
<text text-anchor="middle" x="786.5" y="-237.53" font-family="Times,serif" font-size="4.00">PHB</text>
</g>
<!-- PHB&#45;&gt;pr_62c5998b&#45;afbd&#45;4b3e&#45;a8b1&#45;b00c9bc55757 -->
<g id="edge17" class="edge"><title>PHB&#45;&gt;pr_62c5998b&#45;afbd&#45;4b3e&#45;a8b1&#45;b00c9bc55757</title>
<path fill="none" stroke="black" d="M781.359,-221.261C778.975,-213.628 775.984,-204.045 772.87,-194.07"/>
<polygon fill="black" stroke="black" points="776.183,-192.939 769.862,-184.437 769.501,-195.025 776.183,-192.939"/>
</g>
<!-- pr_61be6032&#45;ce12&#45;4da3&#45;abb1&#45;3077684d755e -->
<g id="node14" class="node"><title>pr_61be6032&#45;ce12&#45;4da3&#45;abb1&#45;3077684d755e</title>
<polygon fill="none" stroke="black" points="924,-184.73 823,-184.73 823,-83.7297 924,-83.7297 924,-184.73"/>
<text text-anchor="middle" x="873.5" y="-133.03" font-family="Times,serif" font-size="4.00">pr_61be6032&#45;ce12&#45;4da3&#45;abb1&#45;3077684d755e</text>
</g>
<!-- PHB&#45;&gt;pr_61be6032&#45;ce12&#45;4da3&#45;abb1&#45;3077684d755e -->
<g id="edge18" class="edge"><title>PHB&#45;&gt;pr_61be6032&#45;ce12&#45;4da3&#45;abb1&#45;3077684d755e</title>
<path fill="none" stroke="black" d="M797.874,-224.33C804.977,-215.961 814.662,-204.55 824.73,-192.689"/>
<polygon fill="black" stroke="black" points="827.575,-194.745 831.378,-184.856 822.238,-190.216 827.575,-194.745"/>
</g>
<!-- PHB&#45;RAF1 -->
<g id="node16" class="node"><title>PHB&#45;RAF1</title>
<ellipse fill="none" stroke="black" cx="873.5" cy="-23.8649" rx="19.7452" ry="19.7452"/>
<text text-anchor="middle" x="873.5" y="-22.6649" font-family="Times,serif" font-size="4.00">PHB&#45;RAF1</text>
</g>
<!-- pr_61be6032&#45;ce12&#45;4da3&#45;abb1&#45;3077684d755e&#45;&gt;PHB&#45;RAF1 -->
<g id="edge19" class="edge"><title>pr_61be6032&#45;ce12&#45;4da3&#45;abb1&#45;3077684d755e&#45;&gt;PHB&#45;RAF1</title>
<path fill="none" stroke="black" d="M873.5,-83.4875C873.5,-73.2499 873.5,-62.7994 873.5,-53.6113"/>
<polygon fill="black" stroke="black" points="877,-53.4934 873.5,-43.4934 870,-53.4935 877,-53.4934"/>
</g>
<!-- RAF1 -->
<g id="node15" class="node"><title>RAF1</title>
<ellipse fill="none" stroke="black" cx="873.5" cy="-238.73" rx="18" ry="18"/>
<text text-anchor="middle" x="873.5" y="-237.53" font-family="Times,serif" font-size="4.00">RAF1</text>
</g>
<!-- RAF1&#45;&gt;pr_61be6032&#45;ce12&#45;4da3&#45;abb1&#45;3077684d755e -->
<g id="edge20" class="edge"><title>RAF1&#45;&gt;pr_61be6032&#45;ce12&#45;4da3&#45;abb1&#45;3077684d755e</title>
<path fill="none" stroke="black" d="M873.5,-220.342C873.5,-213.127 873.5,-204.292 873.5,-195.076"/>
<polygon fill="black" stroke="black" points="877,-194.983 873.5,-184.983 870,-194.983 877,-194.983"/>
</g>
<!-- pr_92d89a2d&#45;30d2&#45;4e25&#45;a909&#45;d76f36a5a15b&#45;&gt;Orf3b&#45;STOML2 -->
<g id="edge21" class="edge"><title>pr_92d89a2d&#45;30d2&#45;4e25&#45;a909&#45;d76f36a5a15b&#45;&gt;Orf3b&#45;STOML2</title>
<path fill="none" stroke="black" d="M374.762,-84.1203C369.091,-73.7043 363.283,-63.036 358.185,-53.6734"/>
<polygon fill="black" stroke="black" points="361.212,-51.9128 353.356,-44.8037 355.064,-55.26 361.212,-51.9128"/>
</g>
<!-- TCR complex -->
<g id="node19" class="node"><title>TCR complex</title>
<ellipse fill="none" stroke="black" cx="519.5" cy="-23.8649" rx="22.6101" ry="22.6101"/>
<text text-anchor="middle" x="519.5" y="-22.6649" font-family="Times,serif" font-size="4.00">TCR complex</text>
</g>
<!-- pr_6d5b74c8&#45;f25a&#45;45a4&#45;9395&#45;1f72980e4878&#45;&gt;TCR complex -->
<g id="edge22" class="edge"><title>pr_6d5b74c8&#45;f25a&#45;45a4&#45;9395&#45;1f72980e4878&#45;&gt;TCR complex</title>
<path fill="none" stroke="black" d="M512.78,-84.4364C512.674,-74.8512 512.852,-65.0387 513.314,-56.2149"/>
<polygon fill="black" stroke="black" points="516.82,-56.2416 514.018,-46.024 509.837,-55.7587 516.82,-56.2416"/>
</g>
<!-- TCR complex&#45;&gt;pr_6d5b74c8&#45;f25a&#45;45a4&#45;9395&#45;1f72980e4878 -->
<g id="edge23" class="edge"><title>TCR complex&#45;&gt;pr_6d5b74c8&#45;f25a&#45;45a4&#45;9395&#45;1f72980e4878</title>
<path fill="none" stroke="black" d="M524.982,-46.024C525.713,-54.2723 526.128,-64.1712 526.227,-74.2931"/>
<polygon fill="black" stroke="black" points="522.727,-74.4341 526.22,-84.4364 529.727,-74.4387 522.727,-74.4341"/>
</g>
</g>
</svg>
