<?xml version="1.0" encoding="UTF-8" standalone="no"?>
<!DOCTYPE svg PUBLIC "-//W3C//DTD SVG 1.1//EN"
 "http://www.w3.org/Graphics/SVG/1.1/DTD/svg11.dtd">
<!-- Generated by graphviz version 2.38.0 (20140413.2041)
 -->
<!-- Title: G Pages: 1 -->
<svg width="908pt" height="1153pt"
 viewBox="0.00 0.00 908.00 1153.19" xmlns="http://www.w3.org/2000/svg" xmlns:xlink="http://www.w3.org/1999/xlink">
<g id="graph0" class="graph" transform="scale(1 1) rotate(0) translate(4 1149.19)">
<title>G</title>
<polygon fill="white" stroke="none" points="-4,4 -4,-1149.19 904,-1149.19 904,4 -4,4"/>
<!-- Orf3a -->
<g id="node1" class="node"><title>Orf3a</title>
<ellipse fill="none" stroke="black" cx="329" cy="-1124.51" rx="18" ry="18"/>
<text text-anchor="middle" x="329" y="-1123.31" font-family="Times,serif" font-size="4.00">Orf3a</text>
</g>
<!-- pr_33d84620&#45;8b25&#45;4c90&#45;96a1&#45;fcd86ccec85d -->
<g id="node2" class="node"><title>pr_33d84620&#45;8b25&#45;4c90&#45;96a1&#45;fcd86ccec85d</title>
<polygon fill="none" stroke="black" points="293,-1067.83 193,-1067.83 193,-967.829 293,-967.829 293,-1067.83"/>
<text text-anchor="middle" x="243" y="-1016.63" font-family="Times,serif" font-size="4.00">pr_33d84620&#45;8b25&#45;4c90&#45;96a1&#45;fcd86ccec85d</text>
</g>
<!-- Orf3a&#45;&gt;pr_33d84620&#45;8b25&#45;4c90&#45;96a1&#45;fcd86ccec85d -->
<g id="edge1" class="edge"><title>Orf3a&#45;&gt;pr_33d84620&#45;8b25&#45;4c90&#45;96a1&#45;fcd86ccec85d</title>
<path fill="none" stroke="black" d="M317.757,-1109.83C310.442,-1100.92 300.358,-1088.65 289.961,-1075.99"/>
<polygon fill="black" stroke="black" points="292.522,-1073.6 283.47,-1068.09 287.113,-1078.04 292.522,-1073.6"/>
</g>
<!-- pr_408bb2eb&#45;4510&#45;4156&#45;b3f8&#45;9f69dbde53e8 -->
<g id="node35" class="node"><title>pr_408bb2eb&#45;4510&#45;4156&#45;b3f8&#45;9f69dbde53e8</title>
<polygon fill="none" stroke="black" points="410.5,-1067.33 311.5,-1067.33 311.5,-968.329 410.5,-968.329 410.5,-1067.33"/>
<text text-anchor="middle" x="361" y="-1016.63" font-family="Times,serif" font-size="4.00">pr_408bb2eb&#45;4510&#45;4156&#45;b3f8&#45;9f69dbde53e8</text>
</g>
<!-- Orf3a&#45;&gt;pr_408bb2eb&#45;4510&#45;4156&#45;b3f8&#45;9f69dbde53e8 -->
<g id="edge2" class="edge"><title>Orf3a&#45;&gt;pr_408bb2eb&#45;4510&#45;4156&#45;b3f8&#45;9f69dbde53e8</title>
<path fill="none" stroke="black" d="M334,-1107.15C336.529,-1098.88 339.768,-1088.29 343.119,-1077.32"/>
<polygon fill="black" stroke="black" points="346.501,-1078.23 346.077,-1067.65 339.807,-1076.19 346.501,-1078.23"/>
</g>
<!-- NLRP3 -->
<g id="node4" class="node"><title>NLRP3</title>
<ellipse fill="none" stroke="black" cx="243" cy="-905.312" rx="18" ry="18"/>
<text text-anchor="middle" x="243" y="-904.112" font-family="Times,serif" font-size="4.00">NLRP3</text>
</g>
<!-- pr_33d84620&#45;8b25&#45;4c90&#45;96a1&#45;fcd86ccec85d&#45;&gt;NLRP3 -->
<g id="edge3" class="edge"><title>pr_33d84620&#45;8b25&#45;4c90&#45;96a1&#45;fcd86ccec85d&#45;&gt;NLRP3</title>
<path fill="none" stroke="black" d="M243,-967.711C243,-955.988 243,-943.891 243,-933.567"/>
<polygon fill="black" stroke="black" points="246.5,-933.54 243,-923.54 239.5,-933.54 246.5,-933.54"/>
</g>
<!-- TRAF3 -->
<g id="node3" class="node"><title>TRAF3</title>
<ellipse fill="none" stroke="black" cx="478" cy="-1124.51" rx="18" ry="18"/>
<text text-anchor="middle" x="478" y="-1123.31" font-family="Times,serif" font-size="4.00">TRAF3</text>
</g>
<!-- TRAF3&#45;&gt;pr_33d84620&#45;8b25&#45;4c90&#45;96a1&#45;fcd86ccec85d -->
<g id="edge4" class="edge"><title>TRAF3&#45;&gt;pr_33d84620&#45;8b25&#45;4c90&#45;96a1&#45;fcd86ccec85d</title>
<path fill="none" stroke="black" d="M460.371,-1120.29C427.629,-1113.81 355.867,-1097.24 302,-1067.83 301.909,-1067.78 301.817,-1067.73 301.726,-1067.68"/>
<polygon fill="black" stroke="black" points="303.662,-1064.76 293.285,-1062.62 300.065,-1070.76 303.662,-1064.76"/>
</g>
<!-- pr_e9b7a8c1&#45;65a5&#45;43f6&#45;8db3&#45;cd8fae5a89ef -->
<g id="node52" class="node"><title>pr_e9b7a8c1&#45;65a5&#45;43f6&#45;8db3&#45;cd8fae5a89ef</title>
<polygon fill="none" stroke="black" points="527,-1066.83 429,-1066.83 429,-968.829 527,-968.829 527,-1066.83"/>
<text text-anchor="middle" x="478" y="-1016.63" font-family="Times,serif" font-size="4.00">pr_e9b7a8c1&#45;65a5&#45;43f6&#45;8db3&#45;cd8fae5a89ef</text>
</g>
<!-- TRAF3&#45;&gt;pr_e9b7a8c1&#45;65a5&#45;43f6&#45;8db3&#45;cd8fae5a89ef -->
<g id="edge5" class="edge"><title>TRAF3&#45;&gt;pr_e9b7a8c1&#45;65a5&#45;43f6&#45;8db3&#45;cd8fae5a89ef</title>
<path fill="none" stroke="black" d="M472.938,-1107.15C471.989,-1098.88 471.44,-1088.27 471.291,-1077.31"/>
<polygon fill="black" stroke="black" points="474.791,-1077.18 471.267,-1067.19 467.791,-1077.19 474.791,-1077.18"/>
</g>
<!-- pr_d867d0c6&#45;8d32&#45;44c2&#45;b19d&#45;94dc7f67f60d -->
<g id="node8" class="node"><title>pr_d867d0c6&#45;8d32&#45;44c2&#45;b19d&#45;94dc7f67f60d</title>
<polygon fill="none" stroke="black" points="292.5,-842.796 193.5,-842.796 193.5,-743.796 292.5,-743.796 292.5,-842.796"/>
<text text-anchor="middle" x="243" y="-792.096" font-family="Times,serif" font-size="4.00">pr_d867d0c6&#45;8d32&#45;44c2&#45;b19d&#45;94dc7f67f60d</text>
</g>
<!-- NLRP3&#45;&gt;pr_d867d0c6&#45;8d32&#45;44c2&#45;b19d&#45;94dc7f67f60d -->
<g id="edge6" class="edge"><title>NLRP3&#45;&gt;pr_d867d0c6&#45;8d32&#45;44c2&#45;b19d&#45;94dc7f67f60d</title>
<path fill="none" stroke="black" d="M243,-887.122C243,-877.868 243,-865.847 243,-853.541"/>
<polygon fill="black" stroke="black" points="246.5,-853.191 243,-843.191 239.5,-853.191 246.5,-853.191"/>
</g>
<!-- ASC/CASP1 -->
<g id="node5" class="node"><title>ASC/CASP1</title>
<ellipse fill="none" stroke="black" cx="176" cy="-1124.51" rx="20.8674" ry="20.8674"/>
<text text-anchor="middle" x="176" y="-1123.31" font-family="Times,serif" font-size="4.00">ASC/CASP1</text>
</g>
<!-- ASC/CASP1&#45;&gt;pr_33d84620&#45;8b25&#45;4c90&#45;96a1&#45;fcd86ccec85d -->
<g id="edge7" class="edge"><title>ASC/CASP1&#45;&gt;pr_33d84620&#45;8b25&#45;4c90&#45;96a1&#45;fcd86ccec85d</title>
<path fill="none" stroke="black" d="M186.765,-1106.69C192.13,-1098.31 198.967,-1087.63 206.013,-1076.62"/>
<polygon fill="black" stroke="black" points="208.978,-1078.48 211.421,-1068.17 203.082,-1074.71 208.978,-1078.48"/>
</g>
<!-- ASC/CASP1&#45;&gt;pr_d867d0c6&#45;8d32&#45;44c2&#45;b19d&#45;94dc7f67f60d -->
<g id="edge8" class="edge"><title>ASC/CASP1&#45;&gt;pr_d867d0c6&#45;8d32&#45;44c2&#45;b19d&#45;94dc7f67f60d</title>
<path fill="none" stroke="black" d="M175.281,-1103.64C174.593,-1073.84 174.771,-1015.94 184,-967.829 191.557,-928.435 205.978,-885.761 218.67,-852.589"/>
<polygon fill="black" stroke="black" points="222.014,-853.644 222.369,-843.055 215.489,-851.111 222.014,-853.644"/>
</g>
<!-- P65/P015 -->
<g id="node6" class="node"><title>P65/P015</title>
<ellipse fill="none" stroke="black" cx="84" cy="-1124.51" rx="18.0625" ry="18.0625"/>
<text text-anchor="middle" x="84" y="-1123.31" font-family="Times,serif" font-size="4.00">P65/P015</text>
</g>
<!-- P65/P015&#45;&gt;pr_33d84620&#45;8b25&#45;4c90&#45;96a1&#45;fcd86ccec85d -->
<g id="edge9" class="edge"><title>P65/P015&#45;&gt;pr_33d84620&#45;8b25&#45;4c90&#45;96a1&#45;fcd86ccec85d</title>
<path fill="none" stroke="black" d="M98.6733,-1113.85C118.068,-1101.08 153.391,-1077.83 184.236,-1057.52"/>
<polygon fill="black" stroke="black" points="186.373,-1060.3 192.801,-1051.88 182.524,-1054.45 186.373,-1060.3"/>
</g>
<!-- pr_193d38cc&#45;46d7&#45;4fc1&#45;aeab&#45;a43cc93c3ff4 -->
<g id="node10" class="node"><title>pr_193d38cc&#45;46d7&#45;4fc1&#45;aeab&#45;a43cc93c3ff4</title>
<polygon fill="none" stroke="black" points="98,-1066.83 7.10543e-15,-1066.83 7.10543e-15,-968.829 98,-968.829 98,-1066.83"/>
<text text-anchor="middle" x="49" y="-1016.63" font-family="Times,serif" font-size="4.00">pr_193d38cc&#45;46d7&#45;4fc1&#45;aeab&#45;a43cc93c3ff4</text>
</g>
<!-- P65/P015&#45;&gt;pr_193d38cc&#45;46d7&#45;4fc1&#45;aeab&#45;a43cc93c3ff4 -->
<g id="edge10" class="edge"><title>P65/P015&#45;&gt;pr_193d38cc&#45;46d7&#45;4fc1&#45;aeab&#45;a43cc93c3ff4</title>
<path fill="none" stroke="black" d="M74.2884,-1108.96C70.2777,-1100.27 65.7539,-1088.6 61.5828,-1076.56"/>
<polygon fill="black" stroke="black" points="64.8291,-1075.23 58.3299,-1066.86 58.1927,-1077.46 64.8291,-1075.23"/>
</g>
<!-- pr_d9800305&#45;c73b&#45;4faa&#45;b1c6&#45;dc6044f3525f -->
<g id="node28" class="node"><title>pr_d9800305&#45;c73b&#45;4faa&#45;b1c6&#45;dc6044f3525f</title>
<polygon fill="none" stroke="black" points="175,-842.296 77,-842.296 77,-744.296 175,-744.296 175,-842.296"/>
<text text-anchor="middle" x="126" y="-792.096" font-family="Times,serif" font-size="4.00">pr_d9800305&#45;c73b&#45;4faa&#45;b1c6&#45;dc6044f3525f</text>
</g>
<!-- P65/P015&#45;&gt;pr_d9800305&#45;c73b&#45;4faa&#45;b1c6&#45;dc6044f3525f -->
<g id="edge11" class="edge"><title>P65/P015&#45;&gt;pr_d9800305&#45;c73b&#45;4faa&#45;b1c6&#45;dc6044f3525f</title>
<path fill="none" stroke="black" d="M92.0529,-1107.88C97.2761,-1096.96 103.702,-1081.88 107,-1067.83 124.1,-994.97 127.363,-908.438 127.335,-852.505"/>
<polygon fill="black" stroke="black" points="130.834,-852.413 127.294,-842.427 123.835,-852.442 130.834,-852.413"/>
</g>
<!-- ORF8b -->
<g id="node7" class="node"><title>ORF8b</title>
<ellipse fill="none" stroke="black" cx="243" cy="-1124.51" rx="18" ry="18"/>
<text text-anchor="middle" x="243" y="-1123.31" font-family="Times,serif" font-size="4.00">ORF8b</text>
</g>
<!-- ORF8b&#45;&gt;pr_33d84620&#45;8b25&#45;4c90&#45;96a1&#45;fcd86ccec85d -->
<g id="edge12" class="edge"><title>ORF8b&#45;&gt;pr_33d84620&#45;8b25&#45;4c90&#45;96a1&#45;fcd86ccec85d</title>
<path fill="none" stroke="black" d="M243,-1106.23C243,-1098.39 243,-1088.6 243,-1078.45"/>
<polygon fill="black" stroke="black" points="246.5,-1078.23 243,-1068.23 239.5,-1078.23 246.5,-1078.23"/>
</g>
<!-- CASP1 -->
<g id="node9" class="node"><title>CASP1</title>
<ellipse fill="none" stroke="black" cx="224" cy="-681.279" rx="18" ry="18"/>
<text text-anchor="middle" x="224" y="-680.079" font-family="Times,serif" font-size="4.00">CASP1</text>
</g>
<!-- pr_d867d0c6&#45;8d32&#45;44c2&#45;b19d&#45;94dc7f67f60d&#45;&gt;CASP1 -->
<g id="edge13" class="edge"><title>pr_d867d0c6&#45;8d32&#45;44c2&#45;b19d&#45;94dc7f67f60d&#45;&gt;CASP1</title>
<path fill="none" stroke="black" d="M234.611,-743.721C232.575,-731.929 230.469,-719.738 228.676,-709.355"/>
<polygon fill="black" stroke="black" points="232.087,-708.539 226.936,-699.281 225.189,-709.731 232.087,-708.539"/>
</g>
<!-- pr_55e07510&#45;45c5&#45;4a09&#45;9d1f&#45;55514dad7d98 -->
<g id="node24" class="node"><title>pr_55e07510&#45;45c5&#45;4a09&#45;9d1f&#45;55514dad7d98</title>
<polygon fill="none" stroke="black" points="273,-618.263 173,-618.263 173,-518.263 273,-518.263 273,-618.263"/>
<text text-anchor="middle" x="223" y="-567.063" font-family="Times,serif" font-size="4.00">pr_55e07510&#45;45c5&#45;4a09&#45;9d1f&#45;55514dad7d98</text>
</g>
<!-- CASP1&#45;&gt;pr_55e07510&#45;45c5&#45;4a09&#45;9d1f&#45;55514dad7d98 -->
<g id="edge14" class="edge"><title>CASP1&#45;&gt;pr_55e07510&#45;45c5&#45;4a09&#45;9d1f&#45;55514dad7d98</title>
<path fill="none" stroke="black" d="M223.844,-662.933C223.759,-653.501 223.648,-641.221 223.535,-628.674"/>
<polygon fill="black" stroke="black" points="227.034,-628.571 223.444,-618.603 220.035,-628.634 227.034,-628.571"/>
</g>
<!-- pr_193d38cc&#45;46d7&#45;4fc1&#45;aeab&#45;a43cc93c3ff4&#45;&gt;P65/P015 -->
<g id="edge15" class="edge"><title>pr_193d38cc&#45;46d7&#45;4fc1&#45;aeab&#45;a43cc93c3ff4&#45;&gt;P65/P015</title>
<path fill="none" stroke="black" d="M71.7908,-1066.87C75.2676,-1076.98 78.4786,-1087.31 80.9142,-1096.33"/>
<polygon fill="black" stroke="black" points="77.5673,-1097.37 83.3868,-1106.23 84.3586,-1095.68 77.5673,-1097.37"/>
</g>
<!-- LPS/TLR4/MYD88 -->
<g id="node11" class="node"><title>LPS/TLR4/MYD88</title>
<ellipse fill="none" stroke="black" cx="498" cy="-905.312" rx="26.533" ry="26.533"/>
<text text-anchor="middle" x="498" y="-904.112" font-family="Times,serif" font-size="4.00">LPS/TLR4/MYD88</text>
</g>
<!-- pr_cdb970ff&#45;585b&#45;4bb3&#45;a5df&#45;eede04f6b4c3 -->
<g id="node12" class="node"><title>pr_cdb970ff&#45;585b&#45;4bb3&#45;a5df&#45;eede04f6b4c3</title>
<polygon fill="none" stroke="black" points="547,-842.296 449,-842.296 449,-744.296 547,-744.296 547,-842.296"/>
<text text-anchor="middle" x="498" y="-792.096" font-family="Times,serif" font-size="4.00">pr_cdb970ff&#45;585b&#45;4bb3&#45;a5df&#45;eede04f6b4c3</text>
</g>
<!-- LPS/TLR4/MYD88&#45;&gt;pr_cdb970ff&#45;585b&#45;4bb3&#45;a5df&#45;eede04f6b4c3 -->
<g id="edge16" class="edge"><title>LPS/TLR4/MYD88&#45;&gt;pr_cdb970ff&#45;585b&#45;4bb3&#45;a5df&#45;eede04f6b4c3</title>
<path fill="none" stroke="black" d="M498,-878.796C498,-870.955 498,-861.98 498,-852.874"/>
<polygon fill="black" stroke="black" points="501.5,-852.591 498,-842.591 494.5,-852.591 501.5,-852.591"/>
</g>
<!-- TRAF6 -->
<g id="node13" class="node"><title>TRAF6</title>
<ellipse fill="none" stroke="black" cx="559" cy="-681.279" rx="18" ry="18"/>
<text text-anchor="middle" x="559" y="-680.079" font-family="Times,serif" font-size="4.00">TRAF6</text>
</g>
<!-- pr_cdb970ff&#45;585b&#45;4bb3&#45;a5df&#45;eede04f6b4c3&#45;&gt;TRAF6 -->
<g id="edge17" class="edge"><title>pr_cdb970ff&#45;585b&#45;4bb3&#45;a5df&#45;eede04f6b4c3&#45;&gt;TRAF6</title>
<path fill="none" stroke="black" d="M524.755,-744.041C531.985,-731.002 539.5,-717.449 545.641,-706.372"/>
<polygon fill="black" stroke="black" points="548.855,-707.794 550.643,-697.351 542.733,-704.4 548.855,-707.794"/>
</g>
<!-- pr_d111a32a&#45;9aea&#45;4a06&#45;8e5d&#45;8ec97c5beda3 -->
<g id="node41" class="node"><title>pr_d111a32a&#45;9aea&#45;4a06&#45;8e5d&#45;8ec97c5beda3</title>
<polygon fill="none" stroke="black" points="664.5,-618.763 563.5,-618.763 563.5,-517.763 664.5,-517.763 664.5,-618.763"/>
<text text-anchor="middle" x="614" y="-567.063" font-family="Times,serif" font-size="4.00">pr_d111a32a&#45;9aea&#45;4a06&#45;8e5d&#45;8ec97c5beda3</text>
</g>
<!-- TRAF6&#45;&gt;pr_d111a32a&#45;9aea&#45;4a06&#45;8e5d&#45;8ec97c5beda3 -->
<g id="edge18" class="edge"><title>TRAF6&#45;&gt;pr_d111a32a&#45;9aea&#45;4a06&#45;8e5d&#45;8ec97c5beda3</title>
<path fill="none" stroke="black" d="M562.344,-663.418C566.058,-653.759 571.802,-640.999 578.159,-628.002"/>
<polygon fill="black" stroke="black" points="581.316,-629.514 582.641,-619.002 575.05,-626.394 581.316,-629.514"/>
</g>
<!-- pr_1868ab61&#45;60bd&#45;4a23&#45;8209&#45;f33743b21884 -->
<g id="node44" class="node"><title>pr_1868ab61&#45;60bd&#45;4a23&#45;8209&#45;f33743b21884</title>
<polygon fill="none" stroke="black" points="545,-618.263 445,-618.263 445,-518.263 545,-518.263 545,-618.263"/>
<text text-anchor="middle" x="495" y="-567.063" font-family="Times,serif" font-size="4.00">pr_1868ab61&#45;60bd&#45;4a23&#45;8209&#45;f33743b21884</text>
</g>
<!-- TRAF6&#45;&gt;pr_1868ab61&#45;60bd&#45;4a23&#45;8209&#45;f33743b21884 -->
<g id="edge19" class="edge"><title>TRAF6&#45;&gt;pr_1868ab61&#45;60bd&#45;4a23&#45;8209&#45;f33743b21884</title>
<path fill="none" stroke="black" d="M550.369,-665.307C544.605,-655.308 536.616,-641.452 528.499,-627.371"/>
<polygon fill="black" stroke="black" points="531.474,-625.523 523.447,-618.608 525.409,-629.019 531.474,-625.523"/>
</g>
<!-- TRIM59 -->
<g id="node14" class="node"><title>TRIM59</title>
<ellipse fill="none" stroke="black" cx="361" cy="-905.312" rx="18" ry="18"/>
<text text-anchor="middle" x="361" y="-904.112" font-family="Times,serif" font-size="4.00">TRIM59</text>
</g>
<!-- TRIM59&#45;&gt;pr_cdb970ff&#45;585b&#45;4bb3&#45;a5df&#45;eede04f6b4c3 -->
<g id="edge20" class="edge"><title>TRIM59&#45;&gt;pr_cdb970ff&#45;585b&#45;4bb3&#45;a5df&#45;eede04f6b4c3</title>
<path fill="none" stroke="black" d="M374.637,-893.361C390.149,-880.904 416.494,-859.749 440.864,-840.178"/>
<polygon fill="black" stroke="black" points="443.085,-842.883 448.691,-833.893 438.702,-837.425 443.085,-842.883"/>
</g>
<!-- TRIM59&#45;&gt;pr_408bb2eb&#45;4510&#45;4156&#45;b3f8&#45;9f69dbde53e8 -->
<g id="edge21" class="edge"><title>TRIM59&#45;&gt;pr_408bb2eb&#45;4510&#45;4156&#45;b3f8&#45;9f69dbde53e8</title>
<path fill="none" stroke="black" d="M365.984,-922.873C367.055,-932.364 367.639,-944.914 367.736,-957.74"/>
<polygon fill="black" stroke="black" points="364.235,-958.024 367.709,-968.033 371.235,-958.042 364.235,-958.024"/>
</g>
<!-- NFKBIA -->
<g id="node15" class="node"><title>NFKBIA</title>
<ellipse fill="none" stroke="black" cx="845" cy="-227.092" rx="18" ry="18"/>
<text text-anchor="middle" x="845" y="-225.892" font-family="Times,serif" font-size="4.00">NFKBIA</text>
</g>
<!-- pr_a1d324eb&#45;90a1&#45;48aa&#45;8a6a&#45;0af7556a54f8 -->
<g id="node16" class="node"><title>pr_a1d324eb&#45;90a1&#45;48aa&#45;8a6a&#45;0af7556a54f8</title>
<polygon fill="none" stroke="black" points="894.5,-382.184 795.5,-382.184 795.5,-283.184 894.5,-283.184 894.5,-382.184"/>
<text text-anchor="middle" x="845" y="-331.484" font-family="Times,serif" font-size="4.00">pr_a1d324eb&#45;90a1&#45;48aa&#45;8a6a&#45;0af7556a54f8</text>
</g>
<!-- NFKBIA&#45;&gt;pr_a1d324eb&#45;90a1&#45;48aa&#45;8a6a&#45;0af7556a54f8 -->
<g id="edge22" class="edge"><title>NFKBIA&#45;&gt;pr_a1d324eb&#45;90a1&#45;48aa&#45;8a6a&#45;0af7556a54f8</title>
<path fill="none" stroke="black" d="M850.085,-244.471C850.992,-252.391 851.529,-262.432 851.694,-272.861"/>
<polygon fill="black" stroke="black" points="848.195,-272.937 851.74,-282.921 855.195,-272.906 848.195,-272.937"/>
</g>
<!-- pr_6b176834&#45;5e24&#45;4b53&#45;bd85&#45;1152557abc1f -->
<g id="node53" class="node"><title>pr_6b176834&#45;5e24&#45;4b53&#45;bd85&#45;1152557abc1f</title>
<polygon fill="none" stroke="black" points="895,-172 795,-172 795,-72 895,-72 895,-172"/>
<text text-anchor="middle" x="845" y="-120.8" font-family="Times,serif" font-size="4.00">pr_6b176834&#45;5e24&#45;4b53&#45;bd85&#45;1152557abc1f</text>
</g>
<!-- NFKBIA&#45;&gt;pr_6b176834&#45;5e24&#45;4b53&#45;bd85&#45;1152557abc1f -->
<g id="edge23" class="edge"><title>NFKBIA&#45;&gt;pr_6b176834&#45;5e24&#45;4b53&#45;bd85&#45;1152557abc1f</title>
<path fill="none" stroke="black" d="M845,-209.068C845,-201.513 845,-192.127 845,-182.357"/>
<polygon fill="black" stroke="black" points="848.5,-182.097 845,-172.098 841.5,-182.098 848.5,-182.097"/>
</g>
<!-- pr_a1d324eb&#45;90a1&#45;48aa&#45;8a6a&#45;0af7556a54f8&#45;&gt;NFKBIA -->
<g id="edge24" class="edge"><title>pr_a1d324eb&#45;90a1&#45;48aa&#45;8a6a&#45;0af7556a54f8&#45;&gt;NFKBIA</title>
<path fill="none" stroke="black" d="M838.26,-282.921C838.194,-273.18 838.447,-263.295 839.02,-254.652"/>
<polygon fill="black" stroke="black" points="842.525,-254.739 839.915,-244.471 835.552,-254.125 842.525,-254.739"/>
</g>
<!-- B&#45;TrcP -->
<g id="node17" class="node"><title>B&#45;TrcP</title>
<ellipse fill="none" stroke="black" cx="877" cy="-450.473" rx="18" ry="18"/>
<text text-anchor="middle" x="877" y="-449.273" font-family="Times,serif" font-size="4.00">B&#45;TrcP</text>
</g>
<!-- B&#45;TrcP&#45;&gt;pr_a1d324eb&#45;90a1&#45;48aa&#45;8a6a&#45;0af7556a54f8 -->
<g id="edge25" class="edge"><title>B&#45;TrcP&#45;&gt;pr_a1d324eb&#45;90a1&#45;48aa&#45;8a6a&#45;0af7556a54f8</title>
<path fill="none" stroke="black" d="M872.415,-432.883C869.41,-422.009 865.283,-407.077 861.144,-392.098"/>
<polygon fill="black" stroke="black" points="864.471,-390.997 858.433,-382.291 857.724,-392.862 864.471,-390.997"/>
</g>
<!-- NEMO/IKKA/IKKB -->
<g id="node18" class="node"><title>NEMO/IKKA/IKKB</title>
<ellipse fill="none" stroke="black" cx="813" cy="-450.473" rx="28.2154" ry="28.2154"/>
<text text-anchor="middle" x="813" y="-449.273" font-family="Times,serif" font-size="4.00">NEMO/IKKA/IKKB</text>
</g>
<!-- NEMO/IKKA/IKKB&#45;&gt;pr_a1d324eb&#45;90a1&#45;48aa&#45;8a6a&#45;0af7556a54f8 -->
<g id="edge26" class="edge"><title>NEMO/IKKA/IKKB&#45;&gt;pr_a1d324eb&#45;90a1&#45;48aa&#45;8a6a&#45;0af7556a54f8</title>
<path fill="none" stroke="black" d="M820.261,-423.199C822.803,-414.003 825.768,-403.273 828.745,-392.5"/>
<polygon fill="black" stroke="black" points="832.181,-393.208 831.471,-382.637 825.434,-391.343 832.181,-393.208"/>
</g>
<!-- pr_6eb5dc23&#45;b48f&#45;4260&#45;9288&#45;1d3baa4a1352 -->
<g id="node46" class="node"><title>pr_6eb5dc23&#45;b48f&#45;4260&#45;9288&#45;1d3baa4a1352</title>
<polygon fill="none" stroke="black" points="707,-382.684 607,-382.684 607,-282.684 707,-282.684 707,-382.684"/>
<text text-anchor="middle" x="657" y="-331.484" font-family="Times,serif" font-size="4.00">pr_6eb5dc23&#45;b48f&#45;4260&#45;9288&#45;1d3baa4a1352</text>
</g>
<!-- NEMO/IKKA/IKKB&#45;&gt;pr_6eb5dc23&#45;b48f&#45;4260&#45;9288&#45;1d3baa4a1352 -->
<g id="edge27" class="edge"><title>NEMO/IKKA/IKKB&#45;&gt;pr_6eb5dc23&#45;b48f&#45;4260&#45;9288&#45;1d3baa4a1352</title>
<path fill="none" stroke="black" d="M791.662,-431.623C786.579,-427.477 781.137,-423.126 776,-419.184 756.486,-404.21 734.738,-388.351 715.226,-374.411"/>
<polygon fill="black" stroke="black" points="717.19,-371.512 707.014,-368.562 713.129,-377.214 717.19,-371.512"/>
</g>
<!-- LPS/TNF α/IL&#45;1 -->
<g id="node19" class="node"><title>LPS/TNF α/IL&#45;1</title>
<ellipse fill="none" stroke="black" cx="341" cy="-681.279" rx="23.7305" ry="23.7305"/>
<text text-anchor="middle" x="341" y="-680.079" font-family="Times,serif" font-size="4.00">LPS/TNF α/IL&#45;1</text>
</g>
<!-- pr_5a9168be&#45;1577&#45;405b&#45;a8b3&#45;82f457a0967c -->
<g id="node20" class="node"><title>pr_5a9168be&#45;1577&#45;405b&#45;a8b3&#45;82f457a0967c</title>
<polygon fill="none" stroke="black" points="391,-618.263 291,-618.263 291,-518.263 391,-518.263 391,-618.263"/>
<text text-anchor="middle" x="341" y="-567.063" font-family="Times,serif" font-size="4.00">pr_5a9168be&#45;1577&#45;405b&#45;a8b3&#45;82f457a0967c</text>
</g>
<!-- LPS/TNF α/IL&#45;1&#45;&gt;pr_5a9168be&#45;1577&#45;405b&#45;a8b3&#45;82f457a0967c -->
<g id="edge28" class="edge"><title>LPS/TNF α/IL&#45;1&#45;&gt;pr_5a9168be&#45;1577&#45;405b&#45;a8b3&#45;82f457a0967c</title>
<path fill="none" stroke="black" d="M341,-657.277C341,-648.798 341,-638.757 341,-628.545"/>
<polygon fill="black" stroke="black" points="344.5,-628.327 341,-618.327 337.5,-628.327 344.5,-628.327"/>
</g>
<!-- IKBKG/IKBKB/CHUK -->
<g id="node22" class="node"><title>IKBKG/IKBKB/CHUK</title>
<ellipse fill="none" stroke="black" cx="341" cy="-450.473" rx="31.0804" ry="31.0804"/>
<text text-anchor="middle" x="341" y="-449.273" font-family="Times,serif" font-size="4.00">IKBKG/IKBKB/CHUK</text>
</g>
<!-- pr_5a9168be&#45;1577&#45;405b&#45;a8b3&#45;82f457a0967c&#45;&gt;IKBKG/IKBKB/CHUK -->
<g id="edge29" class="edge"><title>pr_5a9168be&#45;1577&#45;405b&#45;a8b3&#45;82f457a0967c&#45;&gt;IKBKG/IKBKB/CHUK</title>
<path fill="none" stroke="black" d="M341,-518.158C341,-509.393 341,-500.354 341,-491.869"/>
<polygon fill="black" stroke="black" points="344.5,-491.848 341,-481.848 337.5,-491.848 344.5,-491.848"/>
</g>
<!-- E -->
<g id="node21" class="node"><title>E</title>
<ellipse fill="none" stroke="black" cx="279" cy="-681.279" rx="18" ry="18"/>
<text text-anchor="middle" x="279" y="-680.079" font-family="Times,serif" font-size="4.00">E</text>
</g>
<!-- E&#45;&gt;pr_5a9168be&#45;1577&#45;405b&#45;a8b3&#45;82f457a0967c -->
<g id="edge30" class="edge"><title>E&#45;&gt;pr_5a9168be&#45;1577&#45;405b&#45;a8b3&#45;82f457a0967c</title>
<path fill="none" stroke="black" d="M287.362,-665.307C292.946,-655.308 300.684,-641.452 308.548,-627.371"/>
<polygon fill="black" stroke="black" points="311.622,-629.045 313.442,-618.608 305.51,-625.632 311.622,-629.045"/>
</g>
<!-- E&#45;&gt;pr_55e07510&#45;45c5&#45;4a09&#45;9d1f&#45;55514dad7d98 -->
<g id="edge31" class="edge"><title>E&#45;&gt;pr_55e07510&#45;45c5&#45;4a09&#45;9d1f&#45;55514dad7d98</title>
<path fill="none" stroke="black" d="M271.213,-664.843C266.234,-654.97 259.427,-641.477 252.498,-627.74"/>
<polygon fill="black" stroke="black" points="255.573,-626.066 247.945,-618.714 249.323,-629.219 255.573,-626.066"/>
</g>
<!-- Pro_IL1b -->
<g id="node23" class="node"><title>Pro_IL1b</title>
<ellipse fill="none" stroke="black" cx="223" cy="-450.473" rx="18" ry="18"/>
<text text-anchor="middle" x="223" y="-449.273" font-family="Times,serif" font-size="4.00">Pro_IL1b</text>
</g>
<!-- Pro_IL1b&#45;&gt;pr_55e07510&#45;45c5&#45;4a09&#45;9d1f&#45;55514dad7d98 -->
<g id="edge32" class="edge"><title>Pro_IL1b&#45;&gt;pr_55e07510&#45;45c5&#45;4a09&#45;9d1f&#45;55514dad7d98</title>
<path fill="none" stroke="black" d="M227.878,-467.86C229.087,-478.537 229.711,-493.186 229.748,-507.959"/>
<polygon fill="black" stroke="black" points="226.247,-508.134 229.68,-518.158 233.247,-508.181 226.247,-508.134"/>
</g>
<!-- pr_55e07510&#45;45c5&#45;4a09&#45;9d1f&#45;55514dad7d98&#45;&gt;Pro_IL1b -->
<g id="edge33" class="edge"><title>pr_55e07510&#45;45c5&#45;4a09&#45;9d1f&#45;55514dad7d98&#45;&gt;Pro_IL1b</title>
<path fill="none" stroke="black" d="M216.32,-518.158C216.1,-504.378 216.401,-489.918 217.222,-477.999"/>
<polygon fill="black" stroke="black" points="220.724,-478.13 218.122,-467.86 213.751,-477.511 220.724,-478.13"/>
</g>
<!-- SERPINF2 -->
<g id="node25" class="node"><title>SERPINF2</title>
<ellipse fill="none" stroke="black" cx="495" cy="-227.092" rx="19.1842" ry="19.1842"/>
<text text-anchor="middle" x="495" y="-225.892" font-family="Times,serif" font-size="4.00">SERPINF2</text>
</g>
<!-- pr_e3d6ee29&#45;b7d3&#45;4edc&#45;af2f&#45;3bd20aaf5873 -->
<g id="node26" class="node"><title>pr_e3d6ee29&#45;b7d3&#45;4edc&#45;af2f&#45;3bd20aaf5873</title>
<polygon fill="none" stroke="black" points="544,-171 446,-171 446,-73 544,-73 544,-171"/>
<text text-anchor="middle" x="495" y="-120.8" font-family="Times,serif" font-size="4.00">pr_e3d6ee29&#45;b7d3&#45;4edc&#45;af2f&#45;3bd20aaf5873</text>
</g>
<!-- SERPINF2&#45;&gt;pr_e3d6ee29&#45;b7d3&#45;4edc&#45;af2f&#45;3bd20aaf5873 -->
<g id="edge34" class="edge"><title>SERPINF2&#45;&gt;pr_e3d6ee29&#45;b7d3&#45;4edc&#45;af2f&#45;3bd20aaf5873</title>
<path fill="none" stroke="black" d="M495,-207.661C495,-200.176 495,-191.074 495,-181.65"/>
<polygon fill="black" stroke="black" points="498.5,-181.358 495,-171.358 491.5,-181.358 498.5,-181.358"/>
</g>
<!-- pr_3c76418a&#45;a12a&#45;4c91&#45;9319&#45;24208a39ee81 -->
<g id="node51" class="node"><title>pr_3c76418a&#45;a12a&#45;4c91&#45;9319&#45;24208a39ee81</title>
<polygon fill="none" stroke="black" points="545.5,-383.184 444.5,-383.184 444.5,-282.184 545.5,-282.184 545.5,-383.184"/>
<text text-anchor="middle" x="495" y="-331.484" font-family="Times,serif" font-size="4.00">pr_3c76418a&#45;a12a&#45;4c91&#45;9319&#45;24208a39ee81</text>
</g>
<!-- SERPINF2&#45;&gt;pr_3c76418a&#45;a12a&#45;4c91&#45;9319&#45;24208a39ee81 -->
<g id="edge35" class="edge"><title>SERPINF2&#45;&gt;pr_3c76418a&#45;a12a&#45;4c91&#45;9319&#45;24208a39ee81</title>
<path fill="none" stroke="black" d="M500.206,-245.56C501.014,-253.056 501.504,-262.296 501.678,-271.912"/>
<polygon fill="black" stroke="black" points="498.179,-272.035 501.745,-282.012 505.179,-271.989 498.179,-272.035"/>
</g>
<!-- IFNB1 -->
<g id="node27" class="node"><title>IFNB1</title>
<ellipse fill="none" stroke="black" cx="495" cy="-18" rx="18" ry="18"/>
<text text-anchor="middle" x="495" y="-16.8" font-family="Times,serif" font-size="4.00">IFNB1</text>
</g>
<!-- pr_e3d6ee29&#45;b7d3&#45;4edc&#45;af2f&#45;3bd20aaf5873&#45;&gt;IFNB1 -->
<g id="edge36" class="edge"><title>pr_e3d6ee29&#45;b7d3&#45;4edc&#45;af2f&#45;3bd20aaf5873&#45;&gt;IFNB1</title>
<path fill="none" stroke="black" d="M495,-72.9868C495,-63.7893 495,-54.4618 495,-46.2064"/>
<polygon fill="black" stroke="black" points="498.5,-46.0725 495,-36.0725 491.5,-46.0725 498.5,-46.0725"/>
</g>
<!-- pr_d9800305&#45;c73b&#45;4faa&#45;b1c6&#45;dc6044f3525f&#45;&gt;Pro_IL1b -->
<g id="edge37" class="edge"><title>pr_d9800305&#45;c73b&#45;4faa&#45;b1c6&#45;dc6044f3525f&#45;&gt;Pro_IL1b</title>
<path fill="none" stroke="black" d="M124.376,-744.055C124.295,-687.305 129.974,-591.486 164,-517.763 172.662,-498.996 188.448,-481.694 201.513,-469.475"/>
<polygon fill="black" stroke="black" points="204.112,-471.845 209.208,-462.556 199.432,-466.64 204.112,-471.845"/>
</g>
<!-- TLR3 -->
<g id="node29" class="node"><title>TLR3</title>
<ellipse fill="none" stroke="black" cx="732" cy="-1124.51" rx="18" ry="18"/>
<text text-anchor="middle" x="732" y="-1123.31" font-family="Times,serif" font-size="4.00">TLR3</text>
</g>
<!-- pr_d2f4c1cc&#45;8e4d&#45;46d8&#45;bb5f&#45;6c34ef2d4111 -->
<g id="node30" class="node"><title>pr_d2f4c1cc&#45;8e4d&#45;46d8&#45;bb5f&#45;6c34ef2d4111</title>
<polygon fill="none" stroke="black" points="799,-1066.83 701,-1066.83 701,-968.829 799,-968.829 799,-1066.83"/>
<text text-anchor="middle" x="750" y="-1016.63" font-family="Times,serif" font-size="4.00">pr_d2f4c1cc&#45;8e4d&#45;46d8&#45;bb5f&#45;6c34ef2d4111</text>
</g>
<!-- TLR3&#45;&gt;pr_d2f4c1cc&#45;8e4d&#45;46d8&#45;bb5f&#45;6c34ef2d4111 -->
<g id="edge38" class="edge"><title>TLR3&#45;&gt;pr_d2f4c1cc&#45;8e4d&#45;46d8&#45;bb5f&#45;6c34ef2d4111</title>
<path fill="none" stroke="black" d="M729.806,-1106.23C730.328,-1097.96 731.605,-1087.52 733.321,-1076.78"/>
<polygon fill="black" stroke="black" points="736.78,-1077.31 735.01,-1066.87 729.879,-1076.14 736.78,-1077.31"/>
</g>
<!-- pr_435236f2&#45;1c79&#45;48e9&#45;8574&#45;67f0659268d3 -->
<g id="node33" class="node"><title>pr_435236f2&#45;1c79&#45;48e9&#45;8574&#45;67f0659268d3</title>
<polygon fill="none" stroke="black" points="644.5,-1067.33 545.5,-1067.33 545.5,-968.329 644.5,-968.329 644.5,-1067.33"/>
<text text-anchor="middle" x="595" y="-1016.63" font-family="Times,serif" font-size="4.00">pr_435236f2&#45;1c79&#45;48e9&#45;8574&#45;67f0659268d3</text>
</g>
<!-- TLR3&#45;&gt;pr_435236f2&#45;1c79&#45;48e9&#45;8574&#45;67f0659268d3 -->
<g id="edge39" class="edge"><title>TLR3&#45;&gt;pr_435236f2&#45;1c79&#45;48e9&#45;8574&#45;67f0659268d3</title>
<path fill="none" stroke="black" d="M718.11,-1112.9C702.708,-1101.13 676.855,-1081.37 652.805,-1063"/>
<polygon fill="black" stroke="black" points="654.807,-1060.12 644.736,-1056.83 650.556,-1065.68 654.807,-1060.12"/>
</g>
<!-- pr_d2f4c1cc&#45;8e4d&#45;46d8&#45;bb5f&#45;6c34ef2d4111&#45;&gt;TLR3 -->
<g id="edge40" class="edge"><title>pr_d2f4c1cc&#45;8e4d&#45;46d8&#45;bb5f&#45;6c34ef2d4111&#45;&gt;TLR3</title>
<path fill="none" stroke="black" d="M748.442,-1067.03C746.687,-1077.81 744.508,-1088.82 742.222,-1098.23"/>
<polygon fill="black" stroke="black" points="738.793,-1097.5 739.611,-1108.07 745.559,-1099.3 738.793,-1097.5"/>
</g>
<!-- dsRNA -->
<g id="node31" class="node"><title>dsRNA</title>
<ellipse fill="none" stroke="black" cx="786" cy="-1124.51" rx="18" ry="18"/>
<text text-anchor="middle" x="786" y="-1123.31" font-family="Times,serif" font-size="4.00">dsRNA</text>
</g>
<!-- dsRNA&#45;&gt;pr_d2f4c1cc&#45;8e4d&#45;46d8&#45;bb5f&#45;6c34ef2d4111 -->
<g id="edge41" class="edge"><title>dsRNA&#45;&gt;pr_d2f4c1cc&#45;8e4d&#45;46d8&#45;bb5f&#45;6c34ef2d4111</title>
<path fill="none" stroke="black" d="M780.375,-1107.15C777.5,-1098.79 773.807,-1088.06 769.994,-1076.97"/>
<polygon fill="black" stroke="black" points="773.192,-1075.5 766.63,-1067.19 766.572,-1077.78 773.192,-1075.5"/>
</g>
<!-- TICAM1 -->
<g id="node32" class="node"><title>TICAM1</title>
<ellipse fill="none" stroke="black" cx="595" cy="-1124.51" rx="18" ry="18"/>
<text text-anchor="middle" x="595" y="-1123.31" font-family="Times,serif" font-size="4.00">TICAM1</text>
</g>
<!-- TICAM1&#45;&gt;pr_435236f2&#45;1c79&#45;48e9&#45;8574&#45;67f0659268d3 -->
<g id="edge42" class="edge"><title>TICAM1&#45;&gt;pr_435236f2&#45;1c79&#45;48e9&#45;8574&#45;67f0659268d3</title>
<path fill="none" stroke="black" d="M589.938,-1107.15C588.999,-1098.97 588.452,-1088.5 588.296,-1077.66"/>
<polygon fill="black" stroke="black" points="591.796,-1077.63 588.264,-1067.65 584.796,-1077.66 591.796,-1077.63"/>
</g>
<!-- TICAM1&#45;&gt;pr_e9b7a8c1&#45;65a5&#45;43f6&#45;8db3&#45;cd8fae5a89ef -->
<g id="edge43" class="edge"><title>TICAM1&#45;&gt;pr_e9b7a8c1&#45;65a5&#45;43f6&#45;8db3&#45;cd8fae5a89ef</title>
<path fill="none" stroke="black" d="M582.032,-1111.91C570.371,-1101.48 552.392,-1085.39 534.642,-1069.51"/>
<polygon fill="black" stroke="black" points="536.854,-1066.79 527.068,-1062.73 532.186,-1072.01 536.854,-1066.79"/>
</g>
<!-- pr_435236f2&#45;1c79&#45;48e9&#45;8574&#45;67f0659268d3&#45;&gt;TICAM1 -->
<g id="edge44" class="edge"><title>pr_435236f2&#45;1c79&#45;48e9&#45;8574&#45;67f0659268d3&#45;&gt;TICAM1</title>
<path fill="none" stroke="black" d="M601.736,-1067.65C601.815,-1077.76 601.555,-1088.06 600.958,-1097.01"/>
<polygon fill="black" stroke="black" points="597.456,-1096.89 600.062,-1107.15 604.428,-1097.5 597.456,-1096.89"/>
</g>
<!-- TRIM38 -->
<g id="node34" class="node"><title>TRIM38</title>
<ellipse fill="none" stroke="black" cx="661" cy="-1124.51" rx="18" ry="18"/>
<text text-anchor="middle" x="661" y="-1123.31" font-family="Times,serif" font-size="4.00">TRIM38</text>
</g>
<!-- TRIM38&#45;&gt;pr_435236f2&#45;1c79&#45;48e9&#45;8574&#45;67f0659268d3 -->
<g id="edge45" class="edge"><title>TRIM38&#45;&gt;pr_435236f2&#45;1c79&#45;48e9&#45;8574&#45;67f0659268d3</title>
<path fill="none" stroke="black" d="M651.823,-1108.96C646.24,-1100.1 638.709,-1088.16 630.958,-1075.86"/>
<polygon fill="black" stroke="black" points="633.873,-1073.92 625.579,-1067.33 627.952,-1077.66 633.873,-1073.92"/>
</g>
<!-- TRIM38&#45;&gt;pr_d111a32a&#45;9aea&#45;4a06&#45;8e5d&#45;8ec97c5beda3 -->
<g id="edge46" class="edge"><title>TRIM38&#45;&gt;pr_d111a32a&#45;9aea&#45;4a06&#45;8e5d&#45;8ec97c5beda3</title>
<path fill="none" stroke="black" d="M662.594,-1106.35C665.858,-1069.68 673,-980.9 673,-906.312 673,-906.312 673,-906.312 673,-792.296 673,-735.204 654.708,-672.543 638.495,-628.215"/>
<polygon fill="black" stroke="black" points="641.743,-626.908 634.967,-618.763 635.185,-629.356 641.743,-626.908"/>
</g>
<!-- pr_408bb2eb&#45;4510&#45;4156&#45;b3f8&#45;9f69dbde53e8&#45;&gt;TRIM59 -->
<g id="edge47" class="edge"><title>pr_408bb2eb&#45;4510&#45;4156&#45;b3f8&#45;9f69dbde53e8&#45;&gt;TRIM59</title>
<path fill="none" stroke="black" d="M354.291,-968.033C354.137,-956.016 354.414,-943.586 355.122,-933.058"/>
<polygon fill="black" stroke="black" points="358.628,-933.14 356.016,-922.873 351.655,-932.528 358.628,-933.14"/>
</g>
<!-- TLR7/8/9 -->
<g id="node36" class="node"><title>TLR7/8/9</title>
<ellipse fill="none" stroke="black" cx="823" cy="-681.279" rx="18.0625" ry="18.0625"/>
<text text-anchor="middle" x="823" y="-680.079" font-family="Times,serif" font-size="4.00">TLR7/8/9</text>
</g>
<!-- pr_d4a64897&#45;6d6e&#45;4004&#45;a419&#45;d3f95a265925 -->
<g id="node37" class="node"><title>pr_d4a64897&#45;6d6e&#45;4004&#45;a419&#45;d3f95a265925</title>
<polygon fill="none" stroke="black" points="900,-618.263 800,-618.263 800,-518.263 900,-518.263 900,-618.263"/>
<text text-anchor="middle" x="850" y="-567.063" font-family="Times,serif" font-size="4.00">pr_d4a64897&#45;6d6e&#45;4004&#45;a419&#45;d3f95a265925</text>
</g>
<!-- TLR7/8/9&#45;&gt;pr_d4a64897&#45;6d6e&#45;4004&#45;a419&#45;d3f95a265925 -->
<g id="edge48" class="edge"><title>TLR7/8/9&#45;&gt;pr_d4a64897&#45;6d6e&#45;4004&#45;a419&#45;d3f95a265925</title>
<path fill="none" stroke="black" d="M822.156,-662.933C823.431,-653.501 825.86,-641.221 828.816,-628.674"/>
<polygon fill="black" stroke="black" points="832.303,-629.149 831.287,-618.603 825.505,-627.48 832.303,-629.149"/>
</g>
<!-- pr_fa3f8ab7&#45;d956&#45;44da&#45;8366&#45;741e9c9d6373 -->
<g id="node40" class="node"><title>pr_fa3f8ab7&#45;d956&#45;44da&#45;8366&#45;741e9c9d6373</title>
<polygon fill="none" stroke="black" points="781.5,-617.763 682.5,-617.763 682.5,-518.763 781.5,-518.763 781.5,-617.763"/>
<text text-anchor="middle" x="732" y="-567.063" font-family="Times,serif" font-size="4.00">pr_fa3f8ab7&#45;d956&#45;44da&#45;8366&#45;741e9c9d6373</text>
</g>
<!-- TLR7/8/9&#45;&gt;pr_fa3f8ab7&#45;d956&#45;44da&#45;8366&#45;741e9c9d6373 -->
<g id="edge49" class="edge"><title>TLR7/8/9&#45;&gt;pr_fa3f8ab7&#45;d956&#45;44da&#45;8366&#45;741e9c9d6373</title>
<path fill="none" stroke="black" d="M811.842,-666.666C803.314,-656.263 790.939,-641.166 778.466,-625.95"/>
<polygon fill="black" stroke="black" points="781.002,-623.522 771.955,-618.007 775.588,-627.959 781.002,-623.522"/>
</g>
<!-- pr_d4a64897&#45;6d6e&#45;4004&#45;a419&#45;d3f95a265925&#45;&gt;TLR7/8/9 -->
<g id="edge50" class="edge"><title>pr_d4a64897&#45;6d6e&#45;4004&#45;a419&#45;d3f95a265925&#45;&gt;TLR7/8/9</title>
<path fill="none" stroke="black" d="M844.712,-618.608C841.747,-631.434 838.189,-644.705 834.714,-655.636"/>
<polygon fill="black" stroke="black" points="831.331,-654.713 831.43,-665.307 837.959,-656.963 831.331,-654.713"/>
</g>
<!-- ssRNA -->
<g id="node38" class="node"><title>ssRNA</title>
<ellipse fill="none" stroke="black" cx="877" cy="-681.279" rx="18" ry="18"/>
<text text-anchor="middle" x="877" y="-680.079" font-family="Times,serif" font-size="4.00">ssRNA</text>
</g>
<!-- ssRNA&#45;&gt;pr_d4a64897&#45;6d6e&#45;4004&#45;a419&#45;d3f95a265925 -->
<g id="edge51" class="edge"><title>ssRNA&#45;&gt;pr_d4a64897&#45;6d6e&#45;4004&#45;a419&#45;d3f95a265925</title>
<path fill="none" stroke="black" d="M872.899,-663.418C870.572,-653.848 867.504,-641.234 864.373,-628.362"/>
<polygon fill="black" stroke="black" points="867.742,-627.404 861.978,-618.514 860.941,-629.058 867.742,-627.404"/>
</g>
<!-- MYD88 -->
<g id="node39" class="node"><title>MYD88</title>
<ellipse fill="none" stroke="black" cx="732" cy="-681.279" rx="18" ry="18"/>
<text text-anchor="middle" x="732" y="-680.079" font-family="Times,serif" font-size="4.00">MYD88</text>
</g>
<!-- MYD88&#45;&gt;pr_fa3f8ab7&#45;d956&#45;44da&#45;8366&#45;741e9c9d6373 -->
<g id="edge52" class="edge"><title>MYD88&#45;&gt;pr_fa3f8ab7&#45;d956&#45;44da&#45;8366&#45;741e9c9d6373</title>
<path fill="none" stroke="black" d="M727.045,-663.898C725.939,-654.19 725.344,-641.232 725.26,-628.027"/>
<polygon fill="black" stroke="black" points="728.761,-627.943 725.296,-617.931 721.761,-627.919 728.761,-627.943"/>
</g>
<!-- MYD88&#45;&gt;pr_d111a32a&#45;9aea&#45;4a06&#45;8e5d&#45;8ec97c5beda3 -->
<g id="edge53" class="edge"><title>MYD88&#45;&gt;pr_d111a32a&#45;9aea&#45;4a06&#45;8e5d&#45;8ec97c5beda3</title>
<path fill="none" stroke="black" d="M719.372,-668.399C707.875,-657.582 690.031,-640.794 672.276,-624.089"/>
<polygon fill="black" stroke="black" points="674.372,-621.256 664.69,-616.953 669.575,-626.354 674.372,-621.256"/>
</g>
<!-- pr_fa3f8ab7&#45;d956&#45;44da&#45;8366&#45;741e9c9d6373&#45;&gt;MYD88 -->
<g id="edge54" class="edge"><title>pr_fa3f8ab7&#45;d956&#45;44da&#45;8366&#45;741e9c9d6373&#45;&gt;MYD88</title>
<path fill="none" stroke="black" d="M738.704,-617.931C738.87,-630.293 738.584,-643.116 737.845,-653.894"/>
<polygon fill="black" stroke="black" points="734.355,-653.628 736.955,-663.898 741.328,-654.248 734.355,-653.628"/>
</g>
<!-- pr_d111a32a&#45;9aea&#45;4a06&#45;8e5d&#45;8ec97c5beda3&#45;&gt;TRAF6 -->
<g id="edge55" class="edge"><title>pr_d111a32a&#45;9aea&#45;4a06&#45;8e5d&#45;8ec97c5beda3&#45;&gt;TRAF6</title>
<path fill="none" stroke="black" d="M596.191,-618.764C589.569,-632.456 582.149,-646.641 575.609,-657.934"/>
<polygon fill="black" stroke="black" points="572.512,-656.293 570.358,-666.666 578.511,-659.9 572.512,-656.293"/>
</g>
<!-- TRIM23 -->
<g id="node42" class="node"><title>TRIM23</title>
<ellipse fill="none" stroke="black" cx="614" cy="-681.279" rx="18" ry="18"/>
<text text-anchor="middle" x="614" y="-680.079" font-family="Times,serif" font-size="4.00">TRIM23</text>
</g>
<!-- TRIM23&#45;&gt;pr_d111a32a&#45;9aea&#45;4a06&#45;8e5d&#45;8ec97c5beda3 -->
<g id="edge56" class="edge"><title>TRIM23&#45;&gt;pr_d111a32a&#45;9aea&#45;4a06&#45;8e5d&#45;8ec97c5beda3</title>
<path fill="none" stroke="black" d="M614,-662.933C614,-653.69 614,-641.711 614,-629.426"/>
<polygon fill="black" stroke="black" points="617.5,-629.088 614,-619.088 610.5,-629.088 617.5,-629.088"/>
</g>
<!-- TAB2/TAB3/TAK1 -->
<g id="node43" class="node"><title>TAB2/TAB3/TAK1</title>
<ellipse fill="none" stroke="black" cx="495" cy="-450.473" rx="27.0938" ry="27.0938"/>
<text text-anchor="middle" x="495" y="-449.273" font-family="Times,serif" font-size="4.00">TAB2/TAB3/TAK1</text>
</g>
<!-- TAB2/TAB3/TAK1&#45;&gt;pr_1868ab61&#45;60bd&#45;4a23&#45;8209&#45;f33743b21884 -->
<g id="edge57" class="edge"><title>TAB2/TAB3/TAK1&#45;&gt;pr_1868ab61&#45;60bd&#45;4a23&#45;8209&#45;f33743b21884</title>
<path fill="none" stroke="black" d="M500.706,-476.976C501.376,-486.246 501.724,-497.151 501.749,-508.116"/>
<polygon fill="black" stroke="black" points="498.248,-508.134 501.68,-518.158 505.248,-508.182 498.248,-508.134"/>
</g>
<!-- TAB2/TAB3/TAK1&#45;&gt;pr_6eb5dc23&#45;b48f&#45;4260&#45;9288&#45;1d3baa4a1352 -->
<g id="edge58" class="edge"><title>TAB2/TAB3/TAK1&#45;&gt;pr_6eb5dc23&#45;b48f&#45;4260&#45;9288&#45;1d3baa4a1352</title>
<path fill="none" stroke="black" d="M515.493,-432.172C520.798,-427.84 526.552,-423.265 532,-419.184 553.176,-403.32 577.02,-386.716 598.161,-372.405"/>
<polygon fill="black" stroke="black" points="600.396,-375.12 606.732,-366.629 596.483,-369.315 600.396,-375.12"/>
</g>
<!-- TAB2/TAB3/TAK1&#45;&gt;pr_3c76418a&#45;a12a&#45;4c91&#45;9319&#45;24208a39ee81 -->
<g id="edge59" class="edge"><title>TAB2/TAB3/TAK1&#45;&gt;pr_3c76418a&#45;a12a&#45;4c91&#45;9319&#45;24208a39ee81</title>
<path fill="none" stroke="black" d="M495,-423.199C495,-414.391 495,-404.175 495,-393.862"/>
<polygon fill="black" stroke="black" points="498.5,-393.566 495,-383.566 491.5,-393.566 498.5,-393.566"/>
</g>
<!-- pr_1868ab61&#45;60bd&#45;4a23&#45;8209&#45;f33743b21884&#45;&gt;TAB2/TAB3/TAK1 -->
<g id="edge60" class="edge"><title>pr_1868ab61&#45;60bd&#45;4a23&#45;8209&#45;f33743b21884&#45;&gt;TAB2/TAB3/TAK1</title>
<path fill="none" stroke="black" d="M488.32,-518.158C488.154,-507.747 488.285,-496.947 488.713,-487.149"/>
<polygon fill="black" stroke="black" points="492.218,-487.159 489.294,-476.976 485.229,-486.76 492.218,-487.159"/>
</g>
<!-- TRIM30a/TRIM38 -->
<g id="node45" class="node"><title>TRIM30a/TRIM38</title>
<ellipse fill="none" stroke="black" cx="495" cy="-681.279" rx="26.533" ry="26.533"/>
<text text-anchor="middle" x="495" y="-680.079" font-family="Times,serif" font-size="4.00">TRIM30a/TRIM38</text>
</g>
<!-- TRIM30a/TRIM38&#45;&gt;pr_1868ab61&#45;60bd&#45;4a23&#45;8209&#45;f33743b21884 -->
<g id="edge61" class="edge"><title>TRIM30a/TRIM38&#45;&gt;pr_1868ab61&#45;60bd&#45;4a23&#45;8209&#45;f33743b21884</title>
<path fill="none" stroke="black" d="M495,-654.531C495,-646.712 495,-637.775 495,-628.698"/>
<polygon fill="black" stroke="black" points="498.5,-628.441 495,-618.441 491.5,-628.441 498.5,-628.441"/>
</g>
<!-- TRIM22 -->
<g id="node47" class="node"><title>TRIM22</title>
<ellipse fill="none" stroke="black" cx="749" cy="-450.473" rx="18" ry="18"/>
<text text-anchor="middle" x="749" y="-449.273" font-family="Times,serif" font-size="4.00">TRIM22</text>
</g>
<!-- TRIM22&#45;&gt;pr_6eb5dc23&#45;b48f&#45;4260&#45;9288&#45;1d3baa4a1352 -->
<g id="edge62" class="edge"><title>TRIM22&#45;&gt;pr_6eb5dc23&#45;b48f&#45;4260&#45;9288&#45;1d3baa4a1352</title>
<path fill="none" stroke="black" d="M738.085,-435.736C729.127,-424.462 715.799,-407.687 702.523,-390.978"/>
<polygon fill="black" stroke="black" points="704.991,-388.458 696.03,-382.806 699.51,-392.813 704.991,-388.458"/>
</g>
<!-- TRIM27/TRIM21 -->
<g id="node48" class="node"><title>TRIM27/TRIM21</title>
<ellipse fill="none" stroke="black" cx="566" cy="-450.473" rx="25.4118" ry="25.4118"/>
<text text-anchor="middle" x="566" y="-449.273" font-family="Times,serif" font-size="4.00">TRIM27/TRIM21</text>
</g>
<!-- TRIM27/TRIM21&#45;&gt;pr_6eb5dc23&#45;b48f&#45;4260&#45;9288&#45;1d3baa4a1352 -->
<g id="edge63" class="edge"><title>TRIM27/TRIM21&#45;&gt;pr_6eb5dc23&#45;b48f&#45;4260&#45;9288&#45;1d3baa4a1352</title>
<path fill="none" stroke="black" d="M581.437,-429.831C589.915,-419.044 600.913,-405.05 611.882,-391.093"/>
<polygon fill="black" stroke="black" points="614.89,-392.93 618.317,-382.904 609.386,-388.604 614.89,-392.93"/>
</g>
<!-- TRIM29 -->
<g id="node49" class="node"><title>TRIM29</title>
<ellipse fill="none" stroke="black" cx="627" cy="-450.473" rx="18" ry="18"/>
<text text-anchor="middle" x="627" y="-449.273" font-family="Times,serif" font-size="4.00">TRIM29</text>
</g>
<!-- TRIM29&#45;&gt;pr_6eb5dc23&#45;b48f&#45;4260&#45;9288&#45;1d3baa4a1352 -->
<g id="edge64" class="edge"><title>TRIM29&#45;&gt;pr_6eb5dc23&#45;b48f&#45;4260&#45;9288&#45;1d3baa4a1352</title>
<path fill="none" stroke="black" d="M631.298,-432.883C634.089,-422.111 637.912,-407.358 641.755,-392.522"/>
<polygon fill="black" stroke="black" points="645.154,-393.36 644.274,-382.802 638.378,-391.605 645.154,-393.36"/>
</g>
<!-- TRIM14/TRIM23 -->
<g id="node50" class="node"><title>TRIM14/TRIM23</title>
<ellipse fill="none" stroke="black" cx="688" cy="-450.473" rx="25.4118" ry="25.4118"/>
<text text-anchor="middle" x="688" y="-449.273" font-family="Times,serif" font-size="4.00">TRIM14/TRIM23</text>
</g>
<!-- TRIM14/TRIM23&#45;&gt;pr_6eb5dc23&#45;b48f&#45;4260&#45;9288&#45;1d3baa4a1352 -->
<g id="edge65" class="edge"><title>TRIM14/TRIM23&#45;&gt;pr_6eb5dc23&#45;b48f&#45;4260&#45;9288&#45;1d3baa4a1352</title>
<path fill="none" stroke="black" d="M681.652,-425.762C679.05,-416.044 675.912,-404.325 672.76,-392.551"/>
<polygon fill="black" stroke="black" points="676.088,-391.446 670.121,-382.692 669.326,-393.257 676.088,-391.446"/>
</g>
<!-- pr_3c76418a&#45;a12a&#45;4c91&#45;9319&#45;24208a39ee81&#45;&gt;SERPINF2 -->
<g id="edge66" class="edge"><title>pr_3c76418a&#45;a12a&#45;4c91&#45;9319&#45;24208a39ee81&#45;&gt;SERPINF2</title>
<path fill="none" stroke="black" d="M488.255,-282.012C488.212,-272.913 488.447,-263.727 488.96,-255.579"/>
<polygon fill="black" stroke="black" points="492.452,-255.817 489.794,-245.56 485.476,-255.235 492.452,-255.817"/>
</g>
<!-- pr_e9b7a8c1&#45;65a5&#45;43f6&#45;8db3&#45;cd8fae5a89ef&#45;&gt;TRAF3 -->
<g id="edge67" class="edge"><title>pr_e9b7a8c1&#45;65a5&#45;43f6&#45;8db3&#45;cd8fae5a89ef&#45;&gt;TRAF3</title>
<path fill="none" stroke="black" d="M484.733,-1067.19C484.823,-1077.52 484.561,-1088.06 483.946,-1097.19"/>
<polygon fill="black" stroke="black" points="480.459,-1096.88 483.062,-1107.15 487.432,-1097.5 480.459,-1096.88"/>
</g>
<!-- NFKB1 -->
<g id="node54" class="node"><title>NFKB1</title>
<ellipse fill="none" stroke="black" cx="845" cy="-18" rx="18" ry="18"/>
<text text-anchor="middle" x="845" y="-16.8" font-family="Times,serif" font-size="4.00">NFKB1</text>
</g>
<!-- pr_6b176834&#45;5e24&#45;4b53&#45;bd85&#45;1152557abc1f&#45;&gt;NFKB1 -->
<g id="edge68" class="edge"><title>pr_6b176834&#45;5e24&#45;4b53&#45;bd85&#45;1152557abc1f&#45;&gt;NFKB1</title>
<path fill="none" stroke="black" d="M845,-71.7926C845,-62.9666 845,-54.0689 845,-46.1586"/>
<polygon fill="black" stroke="black" points="848.5,-46.0832 845,-36.0833 841.5,-46.0833 848.5,-46.0832"/>
</g>
</g>
</svg>
