<?xml version="1.0" encoding="UTF-8" standalone="no"?>
<!DOCTYPE svg PUBLIC "-//W3C//DTD SVG 1.1//EN"
 "http://www.w3.org/Graphics/SVG/1.1/DTD/svg11.dtd">
<!-- Generated by graphviz version 2.38.0 (20140413.2041)
 -->
<!-- Title: G Pages: 1 -->
<svg width="780pt" height="999pt"
 viewBox="0.00 0.00 780.00 998.84" xmlns="http://www.w3.org/2000/svg" xmlns:xlink="http://www.w3.org/1999/xlink">
<g id="graph0" class="graph" transform="scale(1 1) rotate(0) translate(4 994.843)">
<title>G</title>
<polygon fill="white" stroke="none" points="-4,4 -4,-994.843 776,-994.843 776,4 -4,4"/>
<!-- P65/P015 -->
<g id="node1" class="node"><title>P65/P015</title>
<ellipse fill="none" stroke="black" cx="164" cy="-615.151" rx="18.0625" ry="18.0625"/>
<text text-anchor="middle" x="164" y="-613.951" font-family="Times,serif" font-size="4.00">P65/P015</text>
</g>
<!-- IL1b -->
<g id="node2" class="node"><title>IL1b</title>
<ellipse fill="none" stroke="black" cx="164" cy="-456.77" rx="18" ry="18"/>
<text text-anchor="middle" x="164" y="-455.57" font-family="Times,serif" font-size="4.00">IL1b</text>
</g>
<!-- P65/P015&#45;&gt;IL1b -->
<g id="edge1" class="edge"><title>P65/P015&#45;&gt;IL1b</title>
<path fill="none" stroke="black" d="M164,-597.118C164,-570.092 164,-517.149 164,-484.87"/>
<polygon fill="black" stroke="black" points="167.5,-484.782 164,-474.782 160.5,-484.782 167.5,-484.782"/>
</g>
<!-- S -->
<g id="node3" class="node"><title>S</title>
<ellipse fill="none" stroke="black" cx="272" cy="-615.151" rx="18" ry="18"/>
<text text-anchor="middle" x="272" y="-613.951" font-family="Times,serif" font-size="4.00">S</text>
</g>
<!-- TLR4 -->
<g id="node4" class="node"><title>TLR4</title>
<ellipse fill="none" stroke="black" cx="18" cy="-537.286" rx="18" ry="18"/>
<text text-anchor="middle" x="18" y="-536.086" font-family="Times,serif" font-size="4.00">TLR4</text>
</g>
<!-- LPS/TLR4/MYD88 -->
<g id="node24" class="node"><title>LPS/TLR4/MYD88</title>
<ellipse fill="none" stroke="black" cx="87" cy="-456.77" rx="26.533" ry="26.533"/>
<text text-anchor="middle" x="87" y="-455.57" font-family="Times,serif" font-size="4.00">LPS/TLR4/MYD88</text>
</g>
<!-- TLR4&#45;&gt;LPS/TLR4/MYD88 -->
<g id="edge2" class="edge"><title>TLR4&#45;&gt;LPS/TLR4/MYD88</title>
<path fill="none" stroke="black" d="M29.3939,-523.321C38.5231,-512.933 51.647,-497.999 63.0631,-485.008"/>
<polygon fill="black" stroke="black" points="65.9274,-487.051 69.8995,-477.229 60.6692,-482.43 65.9274,-487.051"/>
</g>
<!-- BTRC -->
<g id="node5" class="node"><title>BTRC</title>
<ellipse fill="none" stroke="black" cx="714" cy="-187.019" rx="18" ry="18"/>
<text text-anchor="middle" x="714" y="-185.819" font-family="Times,serif" font-size="4.00">BTRC</text>
</g>
<!-- NFKBIA -->
<g id="node14" class="node"><title>NFKBIA</title>
<ellipse fill="none" stroke="black" cx="611" cy="-104.912" rx="18" ry="18"/>
<text text-anchor="middle" x="611" y="-103.712" font-family="Times,serif" font-size="4.00">NFKBIA</text>
</g>
<!-- BTRC&#45;&gt;NFKBIA -->
<g id="edge3" class="edge"><title>BTRC&#45;&gt;NFKBIA</title>
<path fill="none" stroke="black" d="M700.109,-175.216C682.908,-161.838 653.399,-138.888 633.082,-123.086"/>
<polygon fill="black" stroke="black" points="635.042,-120.176 625,-116.8 630.745,-125.702 635.042,-120.176"/>
</g>
<!-- LPS/TNF α/IL&#45;1 -->
<g id="node6" class="node"><title>LPS/TNF α/IL&#45;1</title>
<ellipse fill="none" stroke="black" cx="164" cy="-797.46" rx="23.7305" ry="23.7305"/>
<text text-anchor="middle" x="164" y="-796.26" font-family="Times,serif" font-size="4.00">LPS/TNF α/IL&#45;1</text>
</g>
<!-- IKBKG/IKBKB/CHUK -->
<g id="node15" class="node"><title>IKBKG/IKBKB/CHUK</title>
<ellipse fill="none" stroke="black" cx="164" cy="-706.306" rx="31.0804" ry="31.0804"/>
<text text-anchor="middle" x="164" y="-705.106" font-family="Times,serif" font-size="4.00">IKBKG/IKBKB/CHUK</text>
</g>
<!-- LPS/TNF α/IL&#45;1&#45;&gt;IKBKG/IKBKB/CHUK -->
<g id="edge4" class="edge"><title>LPS/TNF α/IL&#45;1&#45;&gt;IKBKG/IKBKB/CHUK</title>
<path fill="none" stroke="black" d="M164,-773.5C164,-765.713 164,-756.764 164,-748.016"/>
<polygon fill="black" stroke="black" points="167.5,-747.919 164,-737.919 160.5,-747.919 167.5,-747.919"/>
</g>
<!-- NLRP3 -->
<g id="node7" class="node"><title>NLRP3</title>
<ellipse fill="none" stroke="black" cx="446" cy="-615.151" rx="18" ry="18"/>
<text text-anchor="middle" x="446" y="-613.951" font-family="Times,serif" font-size="4.00">NLRP3</text>
</g>
<!-- CASP1 -->
<g id="node16" class="node"><title>CASP1</title>
<ellipse fill="none" stroke="black" cx="218" cy="-537.286" rx="18" ry="18"/>
<text text-anchor="middle" x="218" y="-536.086" font-family="Times,serif" font-size="4.00">CASP1</text>
</g>
<!-- NLRP3&#45;&gt;CASP1 -->
<g id="edge5" class="edge"><title>NLRP3&#45;&gt;CASP1</title>
<path fill="none" stroke="black" d="M433.672,-601.713C429.334,-597.907 424.23,-594.011 419,-591.286 361.683,-561.429 286.197,-547.409 246.01,-541.679"/>
<polygon fill="black" stroke="black" points="246.268,-538.182 235.888,-540.306 245.327,-545.118 246.268,-538.182"/>
</g>
<!-- TRIM9 -->
<g id="node8" class="node"><title>TRIM9</title>
<ellipse fill="none" stroke="black" cx="754" cy="-278.174" rx="18" ry="18"/>
<text text-anchor="middle" x="754" y="-276.974" font-family="Times,serif" font-size="4.00">TRIM9</text>
</g>
<!-- TRIM9&#45;&gt;BTRC -->
<g id="edge6" class="edge"><title>TRIM9&#45;&gt;BTRC</title>
<path fill="none" stroke="black" d="M746.849,-261.235C740.876,-247.923 732.253,-228.702 725.34,-213.294"/>
<polygon fill="black" stroke="black" points="728.376,-211.511 721.089,-203.82 721.989,-214.377 728.376,-211.511"/>
</g>
<!-- TICAM1 -->
<g id="node9" class="node"><title>TICAM1</title>
<ellipse fill="none" stroke="black" cx="361" cy="-797.46" rx="18" ry="18"/>
<text text-anchor="middle" x="361" y="-796.26" font-family="Times,serif" font-size="4.00">TICAM1</text>
</g>
<!-- TRAF3 -->
<g id="node23" class="node"><title>TRAF3</title>
<ellipse fill="none" stroke="black" cx="231" cy="-706.306" rx="18" ry="18"/>
<text text-anchor="middle" x="231" y="-705.106" font-family="Times,serif" font-size="4.00">TRAF3</text>
</g>
<!-- TICAM1&#45;&gt;TRAF3 -->
<g id="edge7" class="edge"><title>TICAM1&#45;&gt;TRAF3</title>
<path fill="none" stroke="black" d="M344.637,-789.155C323.421,-779.243 285.844,-760.157 258,-737.595 254.767,-734.976 251.589,-731.953 248.612,-728.852"/>
<polygon fill="black" stroke="black" points="250.997,-726.269 241.711,-721.168 245.79,-730.947 250.997,-726.269"/>
</g>
<!-- TRIM27/TRIM21 -->
<g id="node10" class="node"><title>TRIM27/TRIM21</title>
<ellipse fill="none" stroke="black" cx="639" cy="-278.174" rx="25.4118" ry="25.4118"/>
<text text-anchor="middle" x="639" y="-276.974" font-family="Times,serif" font-size="4.00">TRIM27/TRIM21</text>
</g>
<!-- NEMO/IKKA/IKKB -->
<g id="node31" class="node"><title>NEMO/IKKA/IKKB</title>
<ellipse fill="none" stroke="black" cx="590" cy="-187.019" rx="28.2154" ry="28.2154"/>
<text text-anchor="middle" x="590" y="-185.819" font-family="Times,serif" font-size="4.00">NEMO/IKKA/IKKB</text>
</g>
<!-- TRIM27/TRIM21&#45;&gt;NEMO/IKKA/IKKB -->
<g id="edge8" class="edge"><title>TRIM27/TRIM21&#45;&gt;NEMO/IKKA/IKKB</title>
<path fill="none" stroke="black" d="M627.138,-255.592C621.417,-245.182 614.429,-232.468 608.065,-220.889"/>
<polygon fill="black" stroke="black" points="611.015,-218.989 603.131,-211.911 604.88,-222.36 611.015,-218.989"/>
</g>
<!-- NFKB1_NFKNIA -->
<g id="node11" class="node"><title>NFKB1_NFKNIA</title>
<ellipse fill="none" stroke="black" cx="557" cy="-25.4558" rx="25.4118" ry="25.4118"/>
<text text-anchor="middle" x="557" y="-24.2558" font-family="Times,serif" font-size="4.00">NFKB1_NFKNIA</text>
</g>
<!-- TAB2/TAB3/TAK1 -->
<g id="node12" class="node"><title>TAB2/TAB3/TAK1</title>
<ellipse fill="none" stroke="black" cx="446" cy="-278.174" rx="27.0938" ry="27.0938"/>
<text text-anchor="middle" x="446" y="-276.974" font-family="Times,serif" font-size="4.00">TAB2/TAB3/TAK1</text>
</g>
<!-- SERPINF2 -->
<g id="node25" class="node"><title>SERPINF2</title>
<ellipse fill="none" stroke="black" cx="446" cy="-187.019" rx="19.1842" ry="19.1842"/>
<text text-anchor="middle" x="446" y="-185.819" font-family="Times,serif" font-size="4.00">SERPINF2</text>
</g>
<!-- TAB2/TAB3/TAK1&#45;&gt;SERPINF2 -->
<g id="edge10" class="edge"><title>TAB2/TAB3/TAK1&#45;&gt;SERPINF2</title>
<path fill="none" stroke="black" d="M446,-250.906C446,-240.008 446,-227.341 446,-216.245"/>
<polygon fill="black" stroke="black" points="449.5,-216.195 446,-206.195 442.5,-216.195 449.5,-216.195"/>
</g>
<!-- TAB2/TAB3/TAK1&#45;&gt;NEMO/IKKA/IKKB -->
<g id="edge9" class="edge"><title>TAB2/TAB3/TAK1&#45;&gt;NEMO/IKKA/IKKB</title>
<path fill="none" stroke="black" d="M467.463,-261.124C472.192,-257.735 477.217,-254.244 482,-251.127 506.516,-235.149 535.146,-218.507 556.766,-206.327"/>
<polygon fill="black" stroke="black" points="558.557,-209.336 565.571,-201.395 555.136,-203.228 558.557,-209.336"/>
</g>
<!-- TRIM38 -->
<g id="node13" class="node"><title>TRIM38</title>
<ellipse fill="none" stroke="black" cx="480" cy="-875.325" rx="18" ry="18"/>
<text text-anchor="middle" x="480" y="-874.125" font-family="Times,serif" font-size="4.00">TRIM38</text>
</g>
<!-- TRIM38&#45;&gt;TICAM1 -->
<g id="edge12" class="edge"><title>TRIM38&#45;&gt;TICAM1</title>
<path fill="none" stroke="black" d="M464.929,-864.716C444.631,-851.777 408.309,-828.62 384.431,-813.398"/>
<polygon fill="black" stroke="black" points="386.263,-810.415 375.949,-807.99 382.5,-816.317 386.263,-810.415"/>
</g>
<!-- TRAF6 -->
<g id="node17" class="node"><title>TRAF6</title>
<ellipse fill="none" stroke="black" cx="415" cy="-367.737" rx="18" ry="18"/>
<text text-anchor="middle" x="415" y="-366.537" font-family="Times,serif" font-size="4.00">TRAF6</text>
</g>
<!-- TRIM38&#45;&gt;TRAF6 -->
<g id="edge11" class="edge"><title>TRIM38&#45;&gt;TRAF6</title>
<path fill="none" stroke="black" d="M490.024,-859.891C508.487,-831.852 546,-767.48 546,-707.306 546,-707.306 546,-707.306 546,-536.286 546,-500.78 472.066,-424.061 435.285,-388.09"/>
<polygon fill="black" stroke="black" points="437.655,-385.513 428.04,-381.062 432.781,-390.537 437.655,-385.513"/>
</g>
<!-- NFKBIA&#45;&gt;NFKB1_NFKNIA -->
<g id="edge13" class="edge"><title>NFKBIA&#45;&gt;NFKB1_NFKNIA</title>
<path fill="none" stroke="black" d="M601.096,-89.7051C594.333,-80.0055 585.141,-66.8197 576.898,-54.9972"/>
<polygon fill="black" stroke="black" points="579.703,-52.9005 571.113,-46.699 573.961,-56.9039 579.703,-52.9005"/>
</g>
<!-- IKBKG/IKBKB/CHUK&#45;&gt;P65/P015 -->
<g id="edge14" class="edge"><title>IKBKG/IKBKB/CHUK&#45;&gt;P65/P015</title>
<path fill="none" stroke="black" d="M164,-674.624C164,-664.488 164,-653.288 164,-643.426"/>
<polygon fill="black" stroke="black" points="167.5,-643.362 164,-633.363 160.5,-643.363 167.5,-643.362"/>
</g>
<!-- CASP1&#45;&gt;IL1b -->
<g id="edge15" class="edge"><title>CASP1&#45;&gt;IL1b</title>
<path fill="none" stroke="black" d="M208.096,-521.885C200.103,-510.264 188.715,-493.706 179.514,-480.328"/>
<polygon fill="black" stroke="black" points="182.392,-478.336 173.842,-472.08 176.625,-482.303 182.392,-478.336"/>
</g>
<!-- TRAF6&#45;&gt;TAB2/TAB3/TAK1 -->
<g id="edge16" class="edge"><title>TRAF6&#45;&gt;TAB2/TAB3/TAK1</title>
<path fill="none" stroke="black" d="M420.831,-350.267C424.484,-339.947 429.331,-326.256 433.796,-313.646"/>
<polygon fill="black" stroke="black" points="437.226,-314.444 437.264,-303.849 430.627,-312.107 437.226,-314.444"/>
</g>
<!-- ORF8b -->
<g id="node18" class="node"><title>ORF8b</title>
<ellipse fill="none" stroke="black" cx="446" cy="-706.306" rx="18" ry="18"/>
<text text-anchor="middle" x="446" y="-705.106" font-family="Times,serif" font-size="4.00">ORF8b</text>
</g>
<!-- ORF8b&#45;&gt;NLRP3 -->
<g id="edge17" class="edge"><title>ORF8b&#45;&gt;NLRP3</title>
<path fill="none" stroke="black" d="M446,-688.116C446,-675.535 446,-658.203 446,-643.701"/>
<polygon fill="black" stroke="black" points="449.5,-643.288 446,-633.288 442.5,-643.288 449.5,-643.288"/>
</g>
<!-- Orf3a -->
<g id="node19" class="node"><title>Orf3a</title>
<ellipse fill="none" stroke="black" cx="285" cy="-706.306" rx="18" ry="18"/>
<text text-anchor="middle" x="285" y="-705.106" font-family="Times,serif" font-size="4.00">Orf3a</text>
</g>
<!-- Orf3a&#45;&gt;P65/P015 -->
<g id="edge20" class="edge"><title>Orf3a&#45;&gt;P65/P015</title>
<path fill="none" stroke="black" d="M274.351,-691.365C269.712,-685.855 263.973,-679.728 258,-675.016 231.46,-654.08 218.941,-658.043 191,-639.016 189.061,-637.696 187.1,-636.261 185.166,-634.774"/>
<polygon fill="black" stroke="black" points="186.98,-631.737 177.019,-628.127 182.555,-637.161 186.98,-631.737"/>
</g>
<!-- Orf3a&#45;&gt;S -->
<g id="edge18" class="edge"><title>Orf3a&#45;&gt;S</title>
<path fill="none" stroke="black" d="M282.493,-688.116C280.629,-675.33 278.049,-657.638 275.914,-642.995"/>
<polygon fill="black" stroke="black" points="279.361,-642.376 274.455,-632.986 272.434,-643.386 279.361,-642.376"/>
</g>
<!-- TRIM59 -->
<g id="node20" class="node"><title>TRIM59</title>
<ellipse fill="none" stroke="black" cx="392" cy="-615.151" rx="18" ry="18"/>
<text text-anchor="middle" x="392" y="-613.951" font-family="Times,serif" font-size="4.00">TRIM59</text>
</g>
<!-- Orf3a&#45;&gt;TRIM59 -->
<g id="edge22" class="edge"><title>Orf3a&#45;&gt;TRIM59</title>
<path fill="none" stroke="black" d="M298.626,-694.09C314.577,-680.943 341.771,-658.475 365,-639.016 366.798,-637.51 368.661,-635.944 370.528,-634.37"/>
<polygon fill="black" stroke="black" points="373.187,-636.706 378.565,-627.577 368.668,-631.36 373.187,-636.706"/>
</g>
<!-- Hops Complex -->
<g id="node21" class="node"><title>Hops Complex</title>
<ellipse fill="none" stroke="black" cx="332" cy="-615.151" rx="23.7305" ry="23.7305"/>
<text text-anchor="middle" x="332" y="-613.951" font-family="Times,serif" font-size="4.00">Hops Complex</text>
</g>
<!-- Orf3a&#45;&gt;Hops Complex -->
<g id="edge19" class="edge"><title>Orf3a&#45;&gt;Hops Complex</title>
<path fill="none" stroke="black" d="M293.187,-689.776C299.573,-677.662 308.631,-660.48 316.391,-645.76"/>
<polygon fill="black" stroke="black" points="319.694,-646.999 321.261,-636.521 313.502,-643.735 319.694,-646.999"/>
</g>
<!-- PYCARD -->
<g id="node29" class="node"><title>PYCARD</title>
<ellipse fill="none" stroke="black" cx="218" cy="-615.151" rx="18" ry="18"/>
<text text-anchor="middle" x="218" y="-613.951" font-family="Times,serif" font-size="4.00">PYCARD</text>
</g>
<!-- Orf3a&#45;&gt;PYCARD -->
<g id="edge21" class="edge"><title>Orf3a&#45;&gt;PYCARD</title>
<path fill="none" stroke="black" d="M274.531,-691.375C263.813,-677.112 246.997,-654.736 234.489,-638.092"/>
<polygon fill="black" stroke="black" points="237.201,-635.875 228.395,-629.984 231.605,-640.081 237.201,-635.875"/>
</g>
<!-- MYD88 -->
<g id="node35" class="node"><title>MYD88</title>
<ellipse fill="none" stroke="black" cx="392" cy="-537.286" rx="18" ry="18"/>
<text text-anchor="middle" x="392" y="-536.086" font-family="Times,serif" font-size="4.00">MYD88</text>
</g>
<!-- TRIM59&#45;&gt;MYD88 -->
<g id="edge23" class="edge"><title>TRIM59&#45;&gt;MYD88</title>
<path fill="none" stroke="black" d="M392,-596.936C392,-587.721 392,-576.154 392,-565.732"/>
<polygon fill="black" stroke="black" points="395.5,-565.433 392,-555.433 388.5,-565.433 395.5,-565.433"/>
</g>
<!-- TRIM39 -->
<g id="node22" class="node"><title>TRIM39</title>
<ellipse fill="none" stroke="black" cx="503" cy="-187.019" rx="18" ry="18"/>
<text text-anchor="middle" x="503" y="-185.819" font-family="Times,serif" font-size="4.00">TRIM39</text>
</g>
<!-- CACTIN -->
<g id="node26" class="node"><title>CACTIN</title>
<ellipse fill="none" stroke="black" cx="503" cy="-104.912" rx="18" ry="18"/>
<text text-anchor="middle" x="503" y="-103.712" font-family="Times,serif" font-size="4.00">CACTIN</text>
</g>
<!-- TRIM39&#45;&gt;CACTIN -->
<g id="edge24" class="edge"><title>TRIM39&#45;&gt;CACTIN</title>
<path fill="none" stroke="black" d="M503,-168.637C503,-158.279 503,-144.905 503,-133.169"/>
<polygon fill="black" stroke="black" points="506.5,-132.985 503,-122.985 499.5,-132.985 506.5,-132.985"/>
</g>
<!-- TRAF3&#45;&gt;P65/P015 -->
<g id="edge25" class="edge"><title>TRAF3&#45;&gt;P65/P015</title>
<path fill="none" stroke="black" d="M220.531,-691.375C209.813,-677.112 192.997,-654.736 180.489,-638.092"/>
<polygon fill="black" stroke="black" points="183.201,-635.875 174.395,-629.984 177.605,-640.081 183.201,-635.875"/>
</g>
<!-- TRAF3&#45;&gt;PYCARD -->
<g id="edge26" class="edge"><title>TRAF3&#45;&gt;PYCARD</title>
<path fill="none" stroke="black" d="M228.493,-688.116C226.629,-675.33 224.049,-657.638 221.914,-642.995"/>
<polygon fill="black" stroke="black" points="225.361,-642.376 220.455,-632.986 218.434,-643.386 225.361,-642.376"/>
</g>
<!-- LPS/TLR4/MYD88&#45;&gt;TRAF6 -->
<g id="edge27" class="edge"><title>LPS/TLR4/MYD88&#45;&gt;TRAF6</title>
<path fill="none" stroke="black" d="M109.855,-442.562C118.192,-438.162 127.828,-433.548 137,-430.253 225.602,-398.43 336.237,-379.909 387.083,-372.511"/>
<polygon fill="black" stroke="black" points="387.589,-375.975 396.996,-371.101 386.603,-369.045 387.589,-375.975"/>
</g>
<!-- IFNB1 -->
<g id="node27" class="node"><title>IFNB1</title>
<ellipse fill="none" stroke="black" cx="446" cy="-104.912" rx="18" ry="18"/>
<text text-anchor="middle" x="446" y="-103.712" font-family="Times,serif" font-size="4.00">IFNB1</text>
</g>
<!-- SERPINF2&#45;&gt;IFNB1 -->
<g id="edge28" class="edge"><title>SERPINF2&#45;&gt;IFNB1</title>
<path fill="none" stroke="black" d="M446,-167.842C446,-157.627 446,-144.674 446,-133.257"/>
<polygon fill="black" stroke="black" points="449.5,-132.922 446,-122.922 442.5,-132.922 449.5,-132.922"/>
</g>
<!-- CACTIN&#45;&gt;NFKB1_NFKNIA -->
<g id="edge29" class="edge"><title>CACTIN&#45;&gt;NFKB1_NFKNIA</title>
<path fill="none" stroke="black" d="M512.904,-89.7051C519.667,-80.0055 528.859,-66.8197 537.102,-54.9972"/>
<polygon fill="black" stroke="black" points="540.039,-56.9039 542.887,-46.699 534.297,-52.9005 540.039,-56.9039"/>
</g>
<!-- TRIM22 -->
<g id="node28" class="node"><title>TRIM22</title>
<ellipse fill="none" stroke="black" cx="700" cy="-278.174" rx="18" ry="18"/>
<text text-anchor="middle" x="700" y="-276.974" font-family="Times,serif" font-size="4.00">TRIM22</text>
</g>
<!-- TRIM22&#45;&gt;NEMO/IKKA/IKKB -->
<g id="edge30" class="edge"><title>TRIM22&#45;&gt;NEMO/IKKA/IKKB</title>
<path fill="none" stroke="black" d="M687.649,-264.668C683.146,-260.268 677.945,-255.366 673,-251.127 656.419,-236.911 637.03,-222.076 621.164,-210.365"/>
<polygon fill="black" stroke="black" points="622.887,-207.289 612.752,-204.203 618.751,-212.936 622.887,-207.289"/>
</g>
<!-- PYCARD&#45;&gt;CASP1 -->
<g id="edge31" class="edge"><title>PYCARD&#45;&gt;CASP1</title>
<path fill="none" stroke="black" d="M218,-596.936C218,-587.721 218,-576.154 218,-565.732"/>
<polygon fill="black" stroke="black" points="221.5,-565.433 218,-555.433 214.5,-565.433 221.5,-565.433"/>
</g>
<!-- TRIM30a/TRIM38 -->
<g id="node30" class="node"><title>TRIM30a/TRIM38</title>
<ellipse fill="none" stroke="black" cx="478" cy="-367.737" rx="26.533" ry="26.533"/>
<text text-anchor="middle" x="478" y="-366.537" font-family="Times,serif" font-size="4.00">TRIM30a/TRIM38</text>
</g>
<!-- TRIM30a/TRIM38&#45;&gt;TAB2/TAB3/TAK1 -->
<g id="edge32" class="edge"><title>TRIM30a/TRIM38&#45;&gt;TAB2/TAB3/TAK1</title>
<path fill="none" stroke="black" d="M469.086,-342.346C465.785,-333.313 461.98,-322.9 458.423,-313.167"/>
<polygon fill="black" stroke="black" points="461.697,-311.929 454.977,-303.738 455.122,-314.332 461.697,-311.929"/>
</g>
<!-- NEMO/IKKA/IKKB&#45;&gt;NFKBIA -->
<g id="edge33" class="edge"><title>NEMO/IKKA/IKKB&#45;&gt;NFKBIA</title>
<path fill="none" stroke="black" d="M596.993,-159.345C599.266,-150.673 601.787,-141.055 604.057,-132.397"/>
<polygon fill="black" stroke="black" points="607.517,-133.001 606.667,-122.44 600.746,-131.226 607.517,-133.001"/>
</g>
<!-- TLR3 -->
<g id="node32" class="node"><title>TLR3</title>
<ellipse fill="none" stroke="black" cx="361" cy="-875.325" rx="18" ry="18"/>
<text text-anchor="middle" x="361" y="-874.125" font-family="Times,serif" font-size="4.00">TLR3</text>
</g>
<!-- TLR3&#45;&gt;TICAM1 -->
<g id="edge34" class="edge"><title>TLR3&#45;&gt;TICAM1</title>
<path fill="none" stroke="black" d="M361,-857.11C361,-847.895 361,-836.327 361,-825.906"/>
<polygon fill="black" stroke="black" points="364.5,-825.607 361,-815.607 357.5,-825.607 364.5,-825.607"/>
</g>
<!-- IRF6 -->
<g id="node33" class="node"><title>IRF6</title>
<ellipse fill="none" stroke="black" cx="72" cy="-537.286" rx="18" ry="18"/>
<text text-anchor="middle" x="72" y="-536.086" font-family="Times,serif" font-size="4.00">IRF6</text>
</g>
<!-- IRF6&#45;&gt;LPS/TLR4/MYD88 -->
<g id="edge35" class="edge"><title>IRF6&#45;&gt;LPS/TLR4/MYD88</title>
<path fill="none" stroke="black" d="M75.2548,-519.249C76.7197,-511.581 78.5068,-502.227 80.2406,-493.151"/>
<polygon fill="black" stroke="black" points="83.7168,-493.607 82.1555,-483.128 76.8411,-492.294 83.7168,-493.607"/>
</g>
<!-- TRIM29 -->
<g id="node34" class="node"><title>TRIM29</title>
<ellipse fill="none" stroke="black" cx="509" cy="-278.174" rx="18" ry="18"/>
<text text-anchor="middle" x="509" y="-276.974" font-family="Times,serif" font-size="4.00">TRIM29</text>
</g>
<!-- TRIM29&#45;&gt;NEMO/IKKA/IKKB -->
<g id="edge36" class="edge"><title>TRIM29&#45;&gt;NEMO/IKKA/IKKB</title>
<path fill="none" stroke="black" d="M520.605,-264.4C532.034,-251.821 549.867,-232.193 564.593,-215.984"/>
<polygon fill="black" stroke="black" points="567.397,-218.102 571.531,-208.347 562.216,-213.395 567.397,-218.102"/>
</g>
<!-- MYD88&#45;&gt;TRAF6 -->
<g id="edge38" class="edge"><title>MYD88&#45;&gt;TRAF6</title>
<path fill="none" stroke="black" d="M394.332,-519.299C398.327,-490.196 406.511,-430.579 411.295,-395.729"/>
<polygon fill="black" stroke="black" points="414.769,-396.153 412.662,-385.769 407.834,-395.2 414.769,-396.153"/>
</g>
<!-- MYD88&#45;&gt;LPS/TLR4/MYD88 -->
<g id="edge37" class="edge"><title>MYD88&#45;&gt;LPS/TLR4/MYD88</title>
<path fill="none" stroke="black" d="M374.249,-534.254C332.116,-529.077 223.158,-513.609 137,-483.286 130.967,-481.163 124.742,-478.452 118.819,-475.593"/>
<polygon fill="black" stroke="black" points="120.334,-472.437 109.831,-471.043 117.172,-478.683 120.334,-472.437"/>
</g>
<!-- NFKB1 -->
<g id="node36" class="node"><title>NFKB1</title>
<ellipse fill="none" stroke="black" cx="557" cy="-104.912" rx="18" ry="18"/>
<text text-anchor="middle" x="557" y="-103.712" font-family="Times,serif" font-size="4.00">NFKB1</text>
</g>
<!-- NFKB1&#45;&gt;NFKB1_NFKNIA -->
<g id="edge39" class="edge"><title>NFKB1&#45;&gt;NFKB1_NFKNIA</title>
<path fill="none" stroke="black" d="M557,-86.7217C557,-79.1618 557,-69.9963 557,-61.1189"/>
<polygon fill="black" stroke="black" points="560.5,-60.9434 557,-50.9434 553.5,-60.9434 560.5,-60.9434"/>
</g>
<!-- TRIM14/TRIM23 -->
<g id="node37" class="node"><title>TRIM14/TRIM23</title>
<ellipse fill="none" stroke="black" cx="570" cy="-278.174" rx="25.4118" ry="25.4118"/>
<text text-anchor="middle" x="570" y="-276.974" font-family="Times,serif" font-size="4.00">TRIM14/TRIM23</text>
</g>
<!-- TRIM14/TRIM23&#45;&gt;NEMO/IKKA/IKKB -->
<g id="edge40" class="edge"><title>TRIM14/TRIM23&#45;&gt;NEMO/IKKA/IKKB</title>
<path fill="none" stroke="black" d="M575.36,-253.282C577.335,-244.477 579.62,-234.289 581.79,-224.619"/>
<polygon fill="black" stroke="black" points="585.217,-225.332 583.99,-214.808 578.386,-223.799 585.217,-225.332"/>
</g>
<!-- double&#45;stranded RNA -->
<g id="node38" class="node"><title>double&#45;stranded RNA</title>
<ellipse fill="none" stroke="black" cx="361" cy="-960.084" rx="30.5202" ry="30.5202"/>
<text text-anchor="middle" x="361" y="-958.884" font-family="Times,serif" font-size="4.00">double&#45;stranded RNA</text>
</g>
<!-- double&#45;stranded RNA&#45;&gt;TLR3 -->
<g id="edge41" class="edge"><title>double&#45;stranded RNA&#45;&gt;TLR3</title>
<path fill="none" stroke="black" d="M361,-929.206C361,-920.836 361,-911.784 361,-903.575"/>
<polygon fill="black" stroke="black" points="364.5,-903.397 361,-893.397 357.5,-903.397 364.5,-903.397"/>
</g>
<!-- TRIM23 -->
<g id="node39" class="node"><title>TRIM23</title>
<ellipse fill="none" stroke="black" cx="438" cy="-456.77" rx="18" ry="18"/>
<text text-anchor="middle" x="438" y="-455.57" font-family="Times,serif" font-size="4.00">TRIM23</text>
</g>
<!-- TRIM23&#45;&gt;TRAF6 -->
<g id="edge42" class="edge"><title>TRIM23&#45;&gt;TRAF6</title>
<path fill="none" stroke="black" d="M433.565,-438.989C430.288,-426.588 425.761,-409.456 421.997,-395.216"/>
<polygon fill="black" stroke="black" points="425.36,-394.24 419.421,-385.466 418.592,-396.029 425.36,-394.24"/>
</g>
<!-- TLR7/8/9 -->
<g id="node40" class="node"><title>TLR7/8/9</title>
<ellipse fill="none" stroke="black" cx="500" cy="-615.151" rx="18.0625" ry="18.0625"/>
<text text-anchor="middle" x="500" y="-613.951" font-family="Times,serif" font-size="4.00">TLR7/8/9</text>
</g>
<!-- TLR7/8/9&#45;&gt;MYD88 -->
<g id="edge43" class="edge"><title>TLR7/8/9&#45;&gt;MYD88</title>
<path fill="none" stroke="black" d="M486.807,-602.419C482.497,-598.739 477.628,-594.739 473,-591.286 454.422,-577.424 432.35,-563.114 415.941,-552.863"/>
<polygon fill="black" stroke="black" points="417.349,-549.618 407.004,-547.33 413.664,-555.57 417.349,-549.618"/>
</g>
<!-- E -->
<g id="node41" class="node"><title>E</title>
<ellipse fill="none" stroke="black" cx="97" cy="-706.306" rx="18" ry="18"/>
<text text-anchor="middle" x="97" y="-705.106" font-family="Times,serif" font-size="4.00">E</text>
</g>
<!-- E&#45;&gt;P65/P015 -->
<g id="edge45" class="edge"><title>E&#45;&gt;P65/P015</title>
<path fill="none" stroke="black" d="M107.469,-691.375C118.187,-677.112 135.003,-654.736 147.511,-638.092"/>
<polygon fill="black" stroke="black" points="150.395,-640.081 153.605,-629.984 144.799,-635.875 150.395,-640.081"/>
</g>
<!-- E&#45;&gt;IL1b -->
<g id="edge44" class="edge"><title>E&#45;&gt;IL1b</title>
<path fill="none" stroke="black" d="M101.5,-688.68C112.895,-646.58 142.965,-535.486 156.821,-484.292"/>
<polygon fill="black" stroke="black" points="160.285,-484.891 159.519,-474.323 153.528,-483.062 160.285,-484.891"/>
</g>
<!-- ssRNA -->
<g id="node42" class="node"><title>ssRNA</title>
<ellipse fill="none" stroke="black" cx="500" cy="-706.306" rx="18" ry="18"/>
<text text-anchor="middle" x="500" y="-705.106" font-family="Times,serif" font-size="4.00">ssRNA</text>
</g>
<!-- ssRNA&#45;&gt;TLR7/8/9 -->
<g id="edge46" class="edge"><title>ssRNA&#45;&gt;TLR7/8/9</title>
<path fill="none" stroke="black" d="M500,-688.116C500,-675.535 500,-658.203 500,-643.701"/>
<polygon fill="black" stroke="black" points="503.5,-643.288 500,-633.288 496.5,-643.288 503.5,-643.288"/>
</g>
</g>
</svg>
