<?xml version="1.0" encoding="UTF-8" standalone="no"?>
<!DOCTYPE svg PUBLIC "-//W3C//DTD SVG 1.1//EN"
 "http://www.w3.org/Graphics/SVG/1.1/DTD/svg11.dtd">
<!-- Generated by graphviz version 2.38.0 (20140413.2041)
 -->
<!-- Title: G Pages: 1 -->
<svg width="537pt" height="999pt"
 viewBox="0.00 0.00 537.03 998.84" xmlns="http://www.w3.org/2000/svg" xmlns:xlink="http://www.w3.org/1999/xlink">
<g id="graph0" class="graph" transform="scale(1 1) rotate(0) translate(4 994.843)">
<title>G</title>
<polygon fill="white" stroke="none" points="-4,4 -4,-994.843 533.031,-994.843 533.031,4 -4,4"/>
<!-- P65/P015 -->
<g id="node1" class="node"><title>P65/P015</title>
<ellipse fill="none" stroke="black" cx="178" cy="-615.151" rx="18.0625" ry="18.0625"/>
<text text-anchor="middle" x="178" y="-613.951" font-family="Times,serif" font-size="4.00">P65/P015</text>
</g>
<!-- IL1b -->
<g id="node2" class="node"><title>IL1b</title>
<ellipse fill="none" stroke="black" cx="118" cy="-456.77" rx="18" ry="18"/>
<text text-anchor="middle" x="118" y="-455.57" font-family="Times,serif" font-size="4.00">IL1b</text>
</g>
<!-- P65/P015&#45;&gt;IL1b -->
<g id="edge1" class="edge"><title>P65/P015&#45;&gt;IL1b</title>
<path fill="none" stroke="black" d="M171.805,-598.005C161.43,-570.965 140.455,-516.296 127.979,-483.779"/>
<polygon fill="black" stroke="black" points="131.101,-482.145 124.251,-474.063 124.566,-484.653 131.101,-482.145"/>
</g>
<!-- PYCARD -->
<g id="node3" class="node"><title>PYCARD</title>
<ellipse fill="none" stroke="black" cx="245" cy="-615.151" rx="18" ry="18"/>
<text text-anchor="middle" x="245" y="-613.951" font-family="Times,serif" font-size="4.00">PYCARD</text>
</g>
<!-- CASP1 -->
<g id="node33" class="node"><title>CASP1</title>
<ellipse fill="none" stroke="black" cx="72" cy="-537.286" rx="18" ry="18"/>
<text text-anchor="middle" x="72" y="-536.086" font-family="Times,serif" font-size="4.00">CASP1</text>
</g>
<!-- PYCARD&#45;&gt;CASP1 -->
<g id="edge2" class="edge"><title>PYCARD&#45;&gt;CASP1</title>
<path fill="none" stroke="black" d="M230.073,-604.955C222.665,-600.564 213.502,-595.386 205,-591.286 168.867,-573.865 125.435,-557.346 98.267,-547.515"/>
<polygon fill="black" stroke="black" points="99.2944,-544.166 88.6999,-544.087 96.933,-550.755 99.2944,-544.166"/>
</g>
<!-- TLR7/8/9 -->
<g id="node4" class="node"><title>TLR7/8/9</title>
<ellipse fill="none" stroke="black" cx="511" cy="-615.151" rx="18.0625" ry="18.0625"/>
<text text-anchor="middle" x="511" y="-613.951" font-family="Times,serif" font-size="4.00">TLR7/8/9</text>
</g>
<!-- MYD88 -->
<g id="node42" class="node"><title>MYD88</title>
<ellipse fill="none" stroke="black" cx="451" cy="-537.286" rx="18" ry="18"/>
<text text-anchor="middle" x="451" y="-536.086" font-family="Times,serif" font-size="4.00">MYD88</text>
</g>
<!-- TLR7/8/9&#45;&gt;MYD88 -->
<g id="edge3" class="edge"><title>TLR7/8/9&#45;&gt;MYD88</title>
<path fill="none" stroke="black" d="M500.273,-600.588C491.37,-589.33 478.539,-573.107 468.202,-560.037"/>
<polygon fill="black" stroke="black" points="470.785,-557.66 461.836,-551.988 465.294,-562.002 470.785,-557.66"/>
</g>
<!-- ssRNA -->
<g id="node5" class="node"><title>ssRNA</title>
<ellipse fill="none" stroke="black" cx="511" cy="-706.306" rx="18" ry="18"/>
<text text-anchor="middle" x="511" y="-705.106" font-family="Times,serif" font-size="4.00">ssRNA</text>
</g>
<!-- ssRNA&#45;&gt;TLR7/8/9 -->
<g id="edge4" class="edge"><title>ssRNA&#45;&gt;TLR7/8/9</title>
<path fill="none" stroke="black" d="M511,-688.116C511,-675.535 511,-658.203 511,-643.701"/>
<polygon fill="black" stroke="black" points="514.5,-643.288 511,-633.288 507.5,-643.288 514.5,-643.288"/>
</g>
<!-- LPS/TLR4/MYD88 -->
<g id="node6" class="node"><title>LPS/TLR4/MYD88</title>
<ellipse fill="none" stroke="black" cx="347" cy="-456.77" rx="26.533" ry="26.533"/>
<text text-anchor="middle" x="347" y="-455.57" font-family="Times,serif" font-size="4.00">LPS/TLR4/MYD88</text>
</g>
<!-- TRAF6 -->
<g id="node11" class="node"><title>TRAF6</title>
<ellipse fill="none" stroke="black" cx="319" cy="-367.737" rx="18" ry="18"/>
<text text-anchor="middle" x="319" y="-366.537" font-family="Times,serif" font-size="4.00">TRAF6</text>
</g>
<!-- LPS/TLR4/MYD88&#45;&gt;TRAF6 -->
<g id="edge5" class="edge"><title>LPS/TLR4/MYD88&#45;&gt;TRAF6</title>
<path fill="none" stroke="black" d="M339.051,-431.062C335.375,-419.635 331.009,-406.064 327.291,-394.508"/>
<polygon fill="black" stroke="black" points="330.619,-393.424 324.225,-384.976 323.955,-395.568 330.619,-393.424"/>
</g>
<!-- TICAM1 -->
<g id="node7" class="node"><title>TICAM1</title>
<ellipse fill="none" stroke="black" cx="245" cy="-797.46" rx="18" ry="18"/>
<text text-anchor="middle" x="245" y="-796.26" font-family="Times,serif" font-size="4.00">TICAM1</text>
</g>
<!-- TRAF3 -->
<g id="node40" class="node"><title>TRAF3</title>
<ellipse fill="none" stroke="black" cx="245" cy="-706.306" rx="18" ry="18"/>
<text text-anchor="middle" x="245" y="-705.106" font-family="Times,serif" font-size="4.00">TRAF3</text>
</g>
<!-- TICAM1&#45;&gt;TRAF3 -->
<g id="edge6" class="edge"><title>TICAM1&#45;&gt;TRAF3</title>
<path fill="none" stroke="black" d="M245,-779.27C245,-766.69 245,-749.358 245,-734.855"/>
<polygon fill="black" stroke="black" points="248.5,-734.443 245,-724.443 241.5,-734.443 248.5,-734.443"/>
</g>
<!-- IKBKG/IKBKB/CHUK -->
<g id="node8" class="node"><title>IKBKG/IKBKB/CHUK</title>
<ellipse fill="none" stroke="black" cx="178" cy="-706.306" rx="31.0804" ry="31.0804"/>
<text text-anchor="middle" x="178" y="-705.106" font-family="Times,serif" font-size="4.00">IKBKG/IKBKB/CHUK</text>
</g>
<!-- IKBKG/IKBKB/CHUK&#45;&gt;P65/P015 -->
<g id="edge7" class="edge"><title>IKBKG/IKBKB/CHUK&#45;&gt;P65/P015</title>
<path fill="none" stroke="black" d="M178,-674.624C178,-664.488 178,-653.288 178,-643.426"/>
<polygon fill="black" stroke="black" points="181.5,-643.362 178,-633.363 174.5,-643.363 181.5,-643.362"/>
</g>
<!-- TRIM59 -->
<g id="node9" class="node"><title>TRIM59</title>
<ellipse fill="none" stroke="black" cx="457" cy="-615.151" rx="18" ry="18"/>
<text text-anchor="middle" x="457" y="-613.951" font-family="Times,serif" font-size="4.00">TRIM59</text>
</g>
<!-- TRIM59&#45;&gt;MYD88 -->
<g id="edge8" class="edge"><title>TRIM59&#45;&gt;MYD88</title>
<path fill="none" stroke="black" d="M455.639,-596.936C454.902,-587.624 453.976,-575.91 453.145,-565.403"/>
<polygon fill="black" stroke="black" points="456.634,-565.126 452.356,-555.433 449.656,-565.678 456.634,-565.126"/>
</g>
<!-- E -->
<g id="node10" class="node"><title>E</title>
<ellipse fill="none" stroke="black" cx="111" cy="-706.306" rx="18" ry="18"/>
<text text-anchor="middle" x="111" y="-705.106" font-family="Times,serif" font-size="4.00">E</text>
</g>
<!-- E&#45;&gt;P65/P015 -->
<g id="edge9" class="edge"><title>E&#45;&gt;P65/P015</title>
<path fill="none" stroke="black" d="M121.469,-691.375C132.187,-677.112 149.003,-654.736 161.511,-638.092"/>
<polygon fill="black" stroke="black" points="164.395,-640.081 167.605,-629.984 158.799,-635.875 164.395,-640.081"/>
</g>
<!-- E&#45;&gt;IL1b -->
<g id="edge10" class="edge"><title>E&#45;&gt;IL1b</title>
<path fill="none" stroke="black" d="M111.481,-688.291C112.675,-646.073 115.781,-536.228 117.232,-484.918"/>
<polygon fill="black" stroke="black" points="120.731,-484.998 117.515,-474.903 113.734,-484.8 120.731,-484.998"/>
</g>
<!-- TAB2/TAB3/TAK1 -->
<g id="node16" class="node"><title>TAB2/TAB3/TAK1</title>
<ellipse fill="none" stroke="black" cx="351" cy="-278.174" rx="27.0938" ry="27.0938"/>
<text text-anchor="middle" x="351" y="-276.974" font-family="Times,serif" font-size="4.00">TAB2/TAB3/TAK1</text>
</g>
<!-- TRAF6&#45;&gt;TAB2/TAB3/TAK1 -->
<g id="edge11" class="edge"><title>TRAF6&#45;&gt;TAB2/TAB3/TAK1</title>
<path fill="none" stroke="black" d="M324.869,-350.676C328.694,-340.211 333.83,-326.156 338.537,-313.276"/>
<polygon fill="black" stroke="black" points="341.879,-314.33 342.024,-303.736 335.304,-311.927 341.879,-314.33"/>
</g>
<!-- NFKB1_NFKNIA -->
<g id="node12" class="node"><title>NFKB1_NFKNIA</title>
<ellipse fill="none" stroke="black" cx="72" cy="-25.4558" rx="25.4118" ry="25.4118"/>
<text text-anchor="middle" x="72" y="-24.2558" font-family="Times,serif" font-size="4.00">NFKB1_NFKNIA</text>
</g>
<!-- double&#45;stranded RNA -->
<g id="node13" class="node"><title>double&#45;stranded RNA</title>
<ellipse fill="none" stroke="black" cx="237" cy="-960.084" rx="30.5202" ry="30.5202"/>
<text text-anchor="middle" x="237" y="-958.884" font-family="Times,serif" font-size="4.00">double&#45;stranded RNA</text>
</g>
<!-- TLR3 -->
<g id="node15" class="node"><title>TLR3</title>
<ellipse fill="none" stroke="black" cx="237" cy="-875.325" rx="18" ry="18"/>
<text text-anchor="middle" x="237" y="-874.125" font-family="Times,serif" font-size="4.00">TLR3</text>
</g>
<!-- double&#45;stranded RNA&#45;&gt;TLR3 -->
<g id="edge12" class="edge"><title>double&#45;stranded RNA&#45;&gt;TLR3</title>
<path fill="none" stroke="black" d="M237,-929.206C237,-920.836 237,-911.784 237,-903.575"/>
<polygon fill="black" stroke="black" points="240.5,-903.397 237,-893.397 233.5,-903.397 240.5,-903.397"/>
</g>
<!-- NFKBIA -->
<g id="node14" class="node"><title>NFKBIA</title>
<ellipse fill="none" stroke="black" cx="72" cy="-104.912" rx="18" ry="18"/>
<text text-anchor="middle" x="72" y="-103.712" font-family="Times,serif" font-size="4.00">NFKBIA</text>
</g>
<!-- NFKBIA&#45;&gt;NFKB1_NFKNIA -->
<g id="edge13" class="edge"><title>NFKBIA&#45;&gt;NFKB1_NFKNIA</title>
<path fill="none" stroke="black" d="M72,-86.7217C72,-79.1618 72,-69.9963 72,-61.1189"/>
<polygon fill="black" stroke="black" points="75.5001,-60.9434 72,-50.9434 68.5001,-60.9434 75.5001,-60.9434"/>
</g>
<!-- TLR3&#45;&gt;TICAM1 -->
<g id="edge14" class="edge"><title>TLR3&#45;&gt;TICAM1</title>
<path fill="none" stroke="black" d="M238.815,-857.11C239.797,-847.798 241.033,-836.083 242.14,-825.577"/>
<polygon fill="black" stroke="black" points="245.624,-825.919 243.192,-815.607 238.662,-825.184 245.624,-825.919"/>
</g>
<!-- NEMO/IKKA/IKKB -->
<g id="node31" class="node"><title>NEMO/IKKA/IKKB</title>
<ellipse fill="none" stroke="black" cx="192" cy="-187.019" rx="28.2154" ry="28.2154"/>
<text text-anchor="middle" x="192" y="-185.819" font-family="Times,serif" font-size="4.00">NEMO/IKKA/IKKB</text>
</g>
<!-- TAB2/TAB3/TAK1&#45;&gt;NEMO/IKKA/IKKB -->
<g id="edge15" class="edge"><title>TAB2/TAB3/TAK1&#45;&gt;NEMO/IKKA/IKKB</title>
<path fill="none" stroke="black" d="M329.417,-261.244C324.439,-257.778 319.104,-254.224 314,-251.127 285.257,-233.686 251.169,-216.315 226.343,-204.226"/>
<polygon fill="black" stroke="black" points="227.838,-201.062 217.311,-199.863 224.793,-207.365 227.838,-201.062"/>
</g>
<!-- SERPINF2 -->
<g id="node39" class="node"><title>SERPINF2</title>
<ellipse fill="none" stroke="black" cx="351" cy="-187.019" rx="19.1842" ry="19.1842"/>
<text text-anchor="middle" x="351" y="-185.819" font-family="Times,serif" font-size="4.00">SERPINF2</text>
</g>
<!-- TAB2/TAB3/TAK1&#45;&gt;SERPINF2 -->
<g id="edge16" class="edge"><title>TAB2/TAB3/TAK1&#45;&gt;SERPINF2</title>
<path fill="none" stroke="black" d="M351,-250.906C351,-240.008 351,-227.341 351,-216.245"/>
<polygon fill="black" stroke="black" points="354.5,-216.195 351,-206.195 347.5,-216.195 354.5,-216.195"/>
</g>
<!-- IRF6 -->
<g id="node17" class="node"><title>IRF6</title>
<ellipse fill="none" stroke="black" cx="396" cy="-537.286" rx="18" ry="18"/>
<text text-anchor="middle" x="396" y="-536.086" font-family="Times,serif" font-size="4.00">IRF6</text>
</g>
<!-- IRF6&#45;&gt;LPS/TLR4/MYD88 -->
<g id="edge17" class="edge"><title>IRF6&#45;&gt;LPS/TLR4/MYD88</title>
<path fill="none" stroke="black" d="M386.783,-521.518C380.907,-512.102 373.078,-499.556 365.919,-488.086"/>
<polygon fill="black" stroke="black" points="368.883,-486.224 360.62,-479.594 362.945,-489.93 368.883,-486.224"/>
</g>
<!-- TRIM9 -->
<g id="node18" class="node"><title>TRIM9</title>
<ellipse fill="none" stroke="black" cx="43" cy="-278.174" rx="18" ry="18"/>
<text text-anchor="middle" x="43" y="-276.974" font-family="Times,serif" font-size="4.00">TRIM9</text>
</g>
<!-- BTRC -->
<g id="node29" class="node"><title>BTRC</title>
<ellipse fill="none" stroke="black" cx="72" cy="-187.019" rx="18" ry="18"/>
<text text-anchor="middle" x="72" y="-185.819" font-family="Times,serif" font-size="4.00">BTRC</text>
</g>
<!-- TRIM9&#45;&gt;BTRC -->
<g id="edge18" class="edge"><title>TRIM9&#45;&gt;BTRC</title>
<path fill="none" stroke="black" d="M48.319,-260.821C52.5705,-247.751 58.6107,-229.182 63.5267,-214.068"/>
<polygon fill="black" stroke="black" points="66.9497,-214.86 66.7147,-204.268 60.293,-212.695 66.9497,-214.86"/>
</g>
<!-- TLR4 -->
<g id="node19" class="node"><title>TLR4</title>
<ellipse fill="none" stroke="black" cx="342" cy="-537.286" rx="18" ry="18"/>
<text text-anchor="middle" x="342" y="-536.086" font-family="Times,serif" font-size="4.00">TLR4</text>
</g>
<!-- TLR4&#45;&gt;LPS/TLR4/MYD88 -->
<g id="edge19" class="edge"><title>TLR4&#45;&gt;LPS/TLR4/MYD88</title>
<path fill="none" stroke="black" d="M343.085,-519.249C343.564,-511.729 344.146,-502.586 344.714,-493.675"/>
<polygon fill="black" stroke="black" points="348.223,-493.634 345.366,-483.432 341.237,-493.189 348.223,-493.634"/>
</g>
<!-- Orf3a -->
<g id="node20" class="node"><title>Orf3a</title>
<ellipse fill="none" stroke="black" cx="337" cy="-706.306" rx="18" ry="18"/>
<text text-anchor="middle" x="337" y="-705.106" font-family="Times,serif" font-size="4.00">Orf3a</text>
</g>
<!-- Orf3a&#45;&gt;P65/P015 -->
<g id="edge21" class="edge"><title>Orf3a&#45;&gt;P65/P015</title>
<path fill="none" stroke="black" d="M321.565,-696.779C298.844,-684.21 255.072,-659.937 218,-639.016 212.949,-636.166 207.551,-633.096 202.408,-630.16"/>
<polygon fill="black" stroke="black" points="203.972,-627.023 193.554,-625.095 200.496,-633.099 203.972,-627.023"/>
</g>
<!-- Orf3a&#45;&gt;PYCARD -->
<g id="edge23" class="edge"><title>Orf3a&#45;&gt;PYCARD</title>
<path fill="none" stroke="black" d="M324.208,-692.909C308.965,-678.138 283.307,-653.273 265.335,-635.857"/>
<polygon fill="black" stroke="black" points="267.301,-632.888 257.684,-628.442 262.429,-637.915 267.301,-632.888"/>
</g>
<!-- Orf3a&#45;&gt;TRIM59 -->
<g id="edge20" class="edge"><title>Orf3a&#45;&gt;TRIM59</title>
<path fill="none" stroke="black" d="M351.45,-695.56C369.97,-682.943 402.922,-660.073 430,-639.016 431.852,-637.576 433.752,-636.057 435.644,-634.514"/>
<polygon fill="black" stroke="black" points="438.287,-636.867 443.723,-627.773 433.803,-631.493 438.287,-636.867"/>
</g>
<!-- S -->
<g id="node30" class="node"><title>S</title>
<ellipse fill="none" stroke="black" cx="337" cy="-615.151" rx="18" ry="18"/>
<text text-anchor="middle" x="337" y="-613.951" font-family="Times,serif" font-size="4.00">S</text>
</g>
<!-- Orf3a&#45;&gt;S -->
<g id="edge22" class="edge"><title>Orf3a&#45;&gt;S</title>
<path fill="none" stroke="black" d="M337,-688.116C337,-675.535 337,-658.203 337,-643.701"/>
<polygon fill="black" stroke="black" points="340.5,-643.288 337,-633.288 333.5,-643.288 340.5,-643.288"/>
</g>
<!-- Hops Complex -->
<g id="node35" class="node"><title>Hops Complex</title>
<ellipse fill="none" stroke="black" cx="397" cy="-615.151" rx="23.7305" ry="23.7305"/>
<text text-anchor="middle" x="397" y="-613.951" font-family="Times,serif" font-size="4.00">Hops Complex</text>
</g>
<!-- Orf3a&#45;&gt;Hops Complex -->
<g id="edge24" class="edge"><title>Orf3a&#45;&gt;Hops Complex</title>
<path fill="none" stroke="black" d="M346.64,-690.981C355.114,-678.39 367.69,-659.703 378.155,-644.153"/>
<polygon fill="black" stroke="black" points="381.346,-645.68 384.026,-635.429 375.539,-641.772 381.346,-645.68"/>
</g>
<!-- ORF8b -->
<g id="node21" class="node"><title>ORF8b</title>
<ellipse fill="none" stroke="black" cx="57" cy="-706.306" rx="18" ry="18"/>
<text text-anchor="middle" x="57" y="-705.106" font-family="Times,serif" font-size="4.00">ORF8b</text>
</g>
<!-- NLRP3 -->
<g id="node28" class="node"><title>NLRP3</title>
<ellipse fill="none" stroke="black" cx="68" cy="-615.151" rx="18" ry="18"/>
<text text-anchor="middle" x="68" y="-613.951" font-family="Times,serif" font-size="4.00">NLRP3</text>
</g>
<!-- ORF8b&#45;&gt;NLRP3 -->
<g id="edge25" class="edge"><title>ORF8b&#45;&gt;NLRP3</title>
<path fill="none" stroke="black" d="M59.1209,-688.116C60.6883,-675.412 62.8535,-657.863 64.6534,-643.275"/>
<polygon fill="black" stroke="black" points="68.1346,-643.642 65.8856,-633.288 61.1873,-642.784 68.1346,-643.642"/>
</g>
<!-- TRIM27/TRIM21 -->
<g id="node22" class="node"><title>TRIM27/TRIM21</title>
<ellipse fill="none" stroke="black" cx="104" cy="-278.174" rx="25.4118" ry="25.4118"/>
<text text-anchor="middle" x="104" y="-276.974" font-family="Times,serif" font-size="4.00">TRIM27/TRIM21</text>
</g>
<!-- TRIM27/TRIM21&#45;&gt;NEMO/IKKA/IKKB -->
<g id="edge26" class="edge"><title>TRIM27/TRIM21&#45;&gt;NEMO/IKKA/IKKB</title>
<path fill="none" stroke="black" d="M121.386,-259.559C133.926,-246.855 151.087,-229.469 165.351,-215.018"/>
<polygon fill="black" stroke="black" points="167.972,-217.345 172.506,-207.769 162.99,-212.427 167.972,-217.345"/>
</g>
<!-- TRIM38 -->
<g id="node23" class="node"><title>TRIM38</title>
<ellipse fill="none" stroke="black" cx="291" cy="-875.325" rx="18" ry="18"/>
<text text-anchor="middle" x="291" y="-874.125" font-family="Times,serif" font-size="4.00">TRIM38</text>
</g>
<!-- TRIM38&#45;&gt;TICAM1 -->
<g id="edge27" class="edge"><title>TRIM38&#45;&gt;TICAM1</title>
<path fill="none" stroke="black" d="M281.912,-859.336C275.444,-848.669 266.624,-834.124 259.229,-821.926"/>
<polygon fill="black" stroke="black" points="262.09,-819.895 253.913,-813.159 256.105,-823.525 262.09,-819.895"/>
</g>
<!-- TRIM38&#45;&gt;TRAF6 -->
<g id="edge28" class="edge"><title>TRIM38&#45;&gt;TRAF6</title>
<path fill="none" stroke="black" d="M291,-857.254C291,-827.027 291,-762.109 291,-707.306 291,-707.306 291,-707.306 291,-536.286 291,-485.724 303.558,-427.738 311.854,-394.95"/>
<polygon fill="black" stroke="black" points="315.252,-395.789 314.376,-385.231 308.476,-394.031 315.252,-395.789"/>
</g>
<!-- LPS/TNF α/IL&#45;1 -->
<g id="node24" class="node"><title>LPS/TNF α/IL&#45;1</title>
<ellipse fill="none" stroke="black" cx="178" cy="-797.46" rx="23.7305" ry="23.7305"/>
<text text-anchor="middle" x="178" y="-796.26" font-family="Times,serif" font-size="4.00">LPS/TNF α/IL&#45;1</text>
</g>
<!-- LPS/TNF α/IL&#45;1&#45;&gt;IKBKG/IKBKB/CHUK -->
<g id="edge29" class="edge"><title>LPS/TNF α/IL&#45;1&#45;&gt;IKBKG/IKBKB/CHUK</title>
<path fill="none" stroke="black" d="M178,-773.5C178,-765.713 178,-756.764 178,-748.016"/>
<polygon fill="black" stroke="black" points="181.5,-747.919 178,-737.919 174.5,-747.919 181.5,-747.919"/>
</g>
<!-- NFKB1 -->
<g id="node25" class="node"><title>NFKB1</title>
<ellipse fill="none" stroke="black" cx="126" cy="-104.912" rx="18" ry="18"/>
<text text-anchor="middle" x="126" y="-103.712" font-family="Times,serif" font-size="4.00">NFKB1</text>
</g>
<!-- NFKB1&#45;&gt;NFKB1_NFKNIA -->
<g id="edge30" class="edge"><title>NFKB1&#45;&gt;NFKB1_NFKNIA</title>
<path fill="none" stroke="black" d="M116.096,-89.7051C109.333,-80.0055 100.141,-66.8197 91.8982,-54.9972"/>
<polygon fill="black" stroke="black" points="94.7031,-52.9005 86.1129,-46.699 88.9609,-56.9039 94.7031,-52.9005"/>
</g>
<!-- TRIM23 -->
<g id="node26" class="node"><title>TRIM23</title>
<ellipse fill="none" stroke="black" cx="245" cy="-456.77" rx="18" ry="18"/>
<text text-anchor="middle" x="245" y="-455.57" font-family="Times,serif" font-size="4.00">TRIM23</text>
</g>
<!-- TRIM23&#45;&gt;TRAF6 -->
<g id="edge31" class="edge"><title>TRIM23&#45;&gt;TRAF6</title>
<path fill="none" stroke="black" d="M256.239,-442.551C268.083,-428.621 286.919,-406.468 300.869,-390.062"/>
<polygon fill="black" stroke="black" points="303.844,-391.965 307.655,-382.08 298.511,-387.431 303.844,-391.965"/>
</g>
<!-- IFNB1 -->
<g id="node27" class="node"><title>IFNB1</title>
<ellipse fill="none" stroke="black" cx="351" cy="-104.912" rx="18" ry="18"/>
<text text-anchor="middle" x="351" y="-103.712" font-family="Times,serif" font-size="4.00">IFNB1</text>
</g>
<!-- NLRP3&#45;&gt;CASP1 -->
<g id="edge32" class="edge"><title>NLRP3&#45;&gt;CASP1</title>
<path fill="none" stroke="black" d="M68.9077,-596.936C69.3935,-587.721 70.0034,-576.154 70.5529,-565.732"/>
<polygon fill="black" stroke="black" points="74.0645,-565.604 71.0959,-555.433 67.0742,-565.235 74.0645,-565.604"/>
</g>
<!-- BTRC&#45;&gt;NFKBIA -->
<g id="edge33" class="edge"><title>BTRC&#45;&gt;NFKBIA</title>
<path fill="none" stroke="black" d="M72,-168.637C72,-158.279 72,-144.905 72,-133.169"/>
<polygon fill="black" stroke="black" points="75.5001,-132.985 72,-122.985 68.5001,-132.985 75.5001,-132.985"/>
</g>
<!-- NEMO/IKKA/IKKB&#45;&gt;NFKBIA -->
<g id="edge34" class="edge"><title>NEMO/IKKA/IKKB&#45;&gt;NFKBIA</title>
<path fill="none" stroke="black" d="M168.863,-170.574C147.648,-156.411 116.393,-135.547 95.1683,-121.378"/>
<polygon fill="black" stroke="black" points="97.0048,-118.396 86.7444,-115.755 93.1182,-124.218 97.0048,-118.396"/>
</g>
<!-- TRIM22 -->
<g id="node32" class="node"><title>TRIM22</title>
<ellipse fill="none" stroke="black" cx="165" cy="-278.174" rx="18" ry="18"/>
<text text-anchor="middle" x="165" y="-276.974" font-family="Times,serif" font-size="4.00">TRIM22</text>
</g>
<!-- TRIM22&#45;&gt;NEMO/IKKA/IKKB -->
<g id="edge35" class="edge"><title>TRIM22&#45;&gt;NEMO/IKKA/IKKB</title>
<path fill="none" stroke="black" d="M169.952,-260.821C173.076,-250.508 177.236,-236.771 181.1,-224.01"/>
<polygon fill="black" stroke="black" points="184.562,-224.654 184.111,-214.068 177.863,-222.625 184.562,-224.654"/>
</g>
<!-- CASP1&#45;&gt;IL1b -->
<g id="edge36" class="edge"><title>CASP1&#45;&gt;IL1b</title>
<path fill="none" stroke="black" d="M80.8693,-521.148C87.4659,-509.888 96.5946,-494.306 104.15,-481.411"/>
<polygon fill="black" stroke="black" points="107.279,-482.993 109.314,-472.596 101.239,-479.455 107.279,-482.993"/>
</g>
<!-- TRIM30a/TRIM38 -->
<g id="node34" class="node"><title>TRIM30a/TRIM38</title>
<ellipse fill="none" stroke="black" cx="382" cy="-367.737" rx="26.533" ry="26.533"/>
<text text-anchor="middle" x="382" y="-366.537" font-family="Times,serif" font-size="4.00">TRIM30a/TRIM38</text>
</g>
<!-- TRIM30a/TRIM38&#45;&gt;TAB2/TAB3/TAK1 -->
<g id="edge37" class="edge"><title>TRIM30a/TRIM38&#45;&gt;TAB2/TAB3/TAK1</title>
<path fill="none" stroke="black" d="M373.365,-342.346C370.227,-333.482 366.618,-323.29 363.229,-313.715"/>
<polygon fill="black" stroke="black" points="366.441,-312.301 359.804,-304.042 359.842,-314.637 366.441,-312.301"/>
</g>
<!-- TRIM39 -->
<g id="node36" class="node"><title>TRIM39</title>
<ellipse fill="none" stroke="black" cx="18" cy="-187.019" rx="18" ry="18"/>
<text text-anchor="middle" x="18" y="-185.819" font-family="Times,serif" font-size="4.00">TRIM39</text>
</g>
<!-- CACTIN -->
<g id="node38" class="node"><title>CACTIN</title>
<ellipse fill="none" stroke="black" cx="18" cy="-104.912" rx="18" ry="18"/>
<text text-anchor="middle" x="18" y="-103.712" font-family="Times,serif" font-size="4.00">CACTIN</text>
</g>
<!-- TRIM39&#45;&gt;CACTIN -->
<g id="edge38" class="edge"><title>TRIM39&#45;&gt;CACTIN</title>
<path fill="none" stroke="black" d="M18,-168.637C18,-158.279 18,-144.905 18,-133.169"/>
<polygon fill="black" stroke="black" points="21.5001,-132.985 18,-122.985 14.5001,-132.985 21.5001,-132.985"/>
</g>
<!-- TRIM29 -->
<g id="node37" class="node"><title>TRIM29</title>
<ellipse fill="none" stroke="black" cx="219" cy="-278.174" rx="18" ry="18"/>
<text text-anchor="middle" x="219" y="-276.974" font-family="Times,serif" font-size="4.00">TRIM29</text>
</g>
<!-- TRIM29&#45;&gt;NEMO/IKKA/IKKB -->
<g id="edge39" class="edge"><title>TRIM29&#45;&gt;NEMO/IKKA/IKKB</title>
<path fill="none" stroke="black" d="M214.048,-260.821C210.924,-250.508 206.764,-236.771 202.9,-224.01"/>
<polygon fill="black" stroke="black" points="206.137,-222.625 199.889,-214.068 199.438,-224.654 206.137,-222.625"/>
</g>
<!-- CACTIN&#45;&gt;NFKB1_NFKNIA -->
<g id="edge40" class="edge"><title>CACTIN&#45;&gt;NFKB1_NFKNIA</title>
<path fill="none" stroke="black" d="M27.9044,-89.7051C34.6667,-80.0055 43.8595,-66.8197 52.1018,-54.9972"/>
<polygon fill="black" stroke="black" points="55.0391,-56.9039 57.8871,-46.699 49.2969,-52.9005 55.0391,-56.9039"/>
</g>
<!-- SERPINF2&#45;&gt;IFNB1 -->
<g id="edge41" class="edge"><title>SERPINF2&#45;&gt;IFNB1</title>
<path fill="none" stroke="black" d="M351,-167.842C351,-157.627 351,-144.674 351,-133.257"/>
<polygon fill="black" stroke="black" points="354.5,-132.922 351,-122.922 347.5,-132.922 354.5,-132.922"/>
</g>
<!-- TRAF3&#45;&gt;P65/P015 -->
<g id="edge43" class="edge"><title>TRAF3&#45;&gt;P65/P015</title>
<path fill="none" stroke="black" d="M234.531,-691.375C223.813,-677.112 206.997,-654.736 194.489,-638.092"/>
<polygon fill="black" stroke="black" points="197.201,-635.875 188.395,-629.984 191.605,-640.081 197.201,-635.875"/>
</g>
<!-- TRAF3&#45;&gt;PYCARD -->
<g id="edge42" class="edge"><title>TRAF3&#45;&gt;PYCARD</title>
<path fill="none" stroke="black" d="M245,-688.116C245,-675.535 245,-658.203 245,-643.701"/>
<polygon fill="black" stroke="black" points="248.5,-643.288 245,-633.288 241.5,-643.288 248.5,-643.288"/>
</g>
<!-- TRIM14/TRIM23 -->
<g id="node41" class="node"><title>TRIM14/TRIM23</title>
<ellipse fill="none" stroke="black" cx="280" cy="-278.174" rx="25.4118" ry="25.4118"/>
<text text-anchor="middle" x="280" y="-276.974" font-family="Times,serif" font-size="4.00">TRIM14/TRIM23</text>
</g>
<!-- TRIM14/TRIM23&#45;&gt;NEMO/IKKA/IKKB -->
<g id="edge44" class="edge"><title>TRIM14/TRIM23&#45;&gt;NEMO/IKKA/IKKB</title>
<path fill="none" stroke="black" d="M262.614,-259.559C250.074,-246.855 232.913,-229.469 218.649,-215.018"/>
<polygon fill="black" stroke="black" points="221.01,-212.427 211.494,-207.769 216.028,-217.345 221.01,-212.427"/>
</g>
<!-- MYD88&#45;&gt;LPS/TLR4/MYD88 -->
<g id="edge45" class="edge"><title>MYD88&#45;&gt;LPS/TLR4/MYD88</title>
<path fill="none" stroke="black" d="M436.974,-525.697C421.45,-513.977 395.996,-494.76 376.117,-479.752"/>
<polygon fill="black" stroke="black" points="378.073,-476.844 367.983,-473.612 373.855,-482.43 378.073,-476.844"/>
</g>
<!-- MYD88&#45;&gt;TRAF6 -->
<g id="edge46" class="edge"><title>MYD88&#45;&gt;TRAF6</title>
<path fill="none" stroke="black" d="M442.79,-521.131C430.933,-499.845 407.709,-460.332 383,-430.253 381.063,-427.896 357.028,-404.911 338.978,-387.723"/>
<polygon fill="black" stroke="black" points="341.348,-385.147 331.691,-380.789 336.523,-390.218 341.348,-385.147"/>
</g>
</g>
</svg>
