<?xml version="1.0" encoding="UTF-8" standalone="no"?>
<!DOCTYPE svg PUBLIC "-//W3C//DTD SVG 1.1//EN"
 "http://www.w3.org/Graphics/SVG/1.1/DTD/svg11.dtd">
<!-- Generated by graphviz version 2.38.0 (20140413.2041)
 -->
<!-- Title: G Pages: 1 -->
<svg width="934pt" height="264pt"
 viewBox="0.00 0.00 933.50 263.73" xmlns="http://www.w3.org/2000/svg" xmlns:xlink="http://www.w3.org/1999/xlink">
<g id="graph0" class="graph" transform="scale(1 1) rotate(0) translate(4 259.73)">
<title>G</title>
<polygon fill="white" stroke="none" points="-4,4 -4,-259.73 929.5,-259.73 929.5,4 -4,4"/>
<!-- IFNB1 -->
<g id="node1" class="node"><title>IFNB1</title>
<ellipse fill="none" stroke="black" cx="108.5" cy="-237.73" rx="18" ry="18"/>
<text text-anchor="middle" x="108.5" y="-236.53" font-family="Times,serif" font-size="4.00">IFNB1</text>
</g>
<!-- pr_f07fa274&#45;920b&#45;4866&#45;89d1&#45;b879a02b15ce -->
<g id="node2" class="node"><title>pr_f07fa274&#45;920b&#45;4866&#45;89d1&#45;b879a02b15ce</title>
<polygon fill="none" stroke="black" points="99,-183.23 0,-183.23 0,-84.2297 99,-84.2297 99,-183.23"/>
<text text-anchor="middle" x="49.5" y="-132.53" font-family="Times,serif" font-size="4.00">pr_f07fa274&#45;920b&#45;4866&#45;89d1&#45;b879a02b15ce</text>
</g>
<!-- IFNB1&#45;&gt;pr_f07fa274&#45;920b&#45;4866&#45;89d1&#45;b879a02b15ce -->
<g id="edge1" class="edge"><title>IFNB1&#45;&gt;pr_f07fa274&#45;920b&#45;4866&#45;89d1&#45;b879a02b15ce</title>
<path fill="none" stroke="black" d="M96.3544,-223.811C90.3927,-215.529 83.1254,-204.134 76.0757,-192.258"/>
<polygon fill="black" stroke="black" points="79.0654,-190.437 71.0026,-183.564 73.0193,-193.965 79.0654,-190.437"/>
</g>
<!-- pr_0d68b416&#45;2055&#45;4ea6&#45;a121&#45;7bfea247d421 -->
<g id="node3" class="node"><title>pr_0d68b416&#45;2055&#45;4ea6&#45;a121&#45;7bfea247d421</title>
<polygon fill="none" stroke="black" points="217.5,-183.73 117.5,-183.73 117.5,-83.7297 217.5,-83.7297 217.5,-183.73"/>
<text text-anchor="middle" x="167.5" y="-132.53" font-family="Times,serif" font-size="4.00">pr_0d68b416&#45;2055&#45;4ea6&#45;a121&#45;7bfea247d421</text>
</g>
<!-- IFNB1&#45;&gt;pr_0d68b416&#45;2055&#45;4ea6&#45;a121&#45;7bfea247d421 -->
<g id="edge2" class="edge"><title>IFNB1&#45;&gt;pr_0d68b416&#45;2055&#45;4ea6&#45;a121&#45;7bfea247d421</title>
<path fill="none" stroke="black" d="M113.076,-219.886C116.671,-212.184 121.73,-202.558 127.345,-192.575"/>
<polygon fill="black" stroke="black" points="130.466,-194.167 132.399,-183.75 124.392,-190.688 130.466,-194.167"/>
</g>
<!-- pr_f07fa274&#45;920b&#45;4866&#45;89d1&#45;b879a02b15ce&#45;&gt;IFNB1 -->
<g id="edge3" class="edge"><title>pr_f07fa274&#45;920b&#45;4866&#45;89d1&#45;b879a02b15ce&#45;&gt;IFNB1</title>
<path fill="none" stroke="black" d="M84.342,-183.307C89.8603,-192.756 95.1334,-202.316 99.4085,-210.686"/>
<polygon fill="black" stroke="black" points="96.3761,-212.451 103.924,-219.886 102.66,-209.367 96.3761,-212.451"/>
</g>
<!-- pr_0d68b416&#45;2055&#45;4ea6&#45;a121&#45;7bfea247d421&#45;&gt;IFNB1 -->
<g id="edge4" class="edge"><title>pr_0d68b416&#45;2055&#45;4ea6&#45;a121&#45;7bfea247d421&#45;&gt;IFNB1</title>
<path fill="none" stroke="black" d="M145.731,-184.028C139.395,-195.056 132.577,-206.191 126.47,-215.366"/>
<polygon fill="black" stroke="black" points="123.442,-213.592 120.646,-223.811 129.204,-217.566 123.442,-213.592"/>
</g>
<!-- STOML2 -->
<g id="node4" class="node"><title>STOML2</title>
<ellipse fill="none" stroke="black" cx="521.5" cy="-237.73" rx="18" ry="18"/>
<text text-anchor="middle" x="521.5" y="-236.53" font-family="Times,serif" font-size="4.00">STOML2</text>
</g>
<!-- pr_5ac45446&#45;1753&#45;466d&#45;8ae3&#45;cf800e5b15da -->
<g id="node5" class="node"><title>pr_5ac45446&#45;1753&#45;466d&#45;8ae3&#45;cf800e5b15da</title>
<polygon fill="none" stroke="black" points="335.5,-183.73 235.5,-183.73 235.5,-83.7297 335.5,-83.7297 335.5,-183.73"/>
<text text-anchor="middle" x="285.5" y="-132.53" font-family="Times,serif" font-size="4.00">pr_5ac45446&#45;1753&#45;466d&#45;8ae3&#45;cf800e5b15da</text>
</g>
<!-- STOML2&#45;&gt;pr_5ac45446&#45;1753&#45;466d&#45;8ae3&#45;cf800e5b15da -->
<g id="edge5" class="edge"><title>STOML2&#45;&gt;pr_5ac45446&#45;1753&#45;466d&#45;8ae3&#45;cf800e5b15da</title>
<path fill="none" stroke="black" d="M504.402,-231.811C461.421,-219.418 351.762,-187.622 344.5,-183.73 344.408,-183.681 344.317,-183.631 344.225,-183.582"/>
<polygon fill="black" stroke="black" points="346.145,-180.651 335.755,-178.578 342.585,-186.678 346.145,-180.651"/>
</g>
<!-- pr_98a2ac9d&#45;d7fc&#45;4e31&#45;8b10&#45;a062d53550b8 -->
<g id="node9" class="node"><title>pr_98a2ac9d&#45;d7fc&#45;4e31&#45;8b10&#45;a062d53550b8</title>
<polygon fill="none" stroke="black" points="453.5,-183.73 353.5,-183.73 353.5,-83.7297 453.5,-83.7297 453.5,-183.73"/>
<text text-anchor="middle" x="403.5" y="-132.53" font-family="Times,serif" font-size="4.00">pr_98a2ac9d&#45;d7fc&#45;4e31&#45;8b10&#45;a062d53550b8</text>
</g>
<!-- STOML2&#45;&gt;pr_98a2ac9d&#45;d7fc&#45;4e31&#45;8b10&#45;a062d53550b8 -->
<g id="edge6" class="edge"><title>STOML2&#45;&gt;pr_98a2ac9d&#45;d7fc&#45;4e31&#45;8b10&#45;a062d53550b8</title>
<path fill="none" stroke="black" d="M507.964,-225.029C496.415,-215.046 478.968,-199.965 461.623,-184.971"/>
<polygon fill="black" stroke="black" points="463.536,-181.999 453.682,-178.107 458.958,-187.295 463.536,-181.999"/>
</g>
<!-- pr_29f70e9d&#45;3466&#45;44dc&#45;8c5a&#45;d9aec70907cc -->
<g id="node11" class="node"><title>pr_29f70e9d&#45;3466&#45;44dc&#45;8c5a&#45;d9aec70907cc</title>
<polygon fill="none" stroke="black" points="807.5,-183.73 707.5,-183.73 707.5,-83.7297 807.5,-83.7297 807.5,-183.73"/>
<text text-anchor="middle" x="757.5" y="-132.53" font-family="Times,serif" font-size="4.00">pr_29f70e9d&#45;3466&#45;44dc&#45;8c5a&#45;d9aec70907cc</text>
</g>
<!-- STOML2&#45;&gt;pr_29f70e9d&#45;3466&#45;44dc&#45;8c5a&#45;d9aec70907cc -->
<g id="edge7" class="edge"><title>STOML2&#45;&gt;pr_29f70e9d&#45;3466&#45;44dc&#45;8c5a&#45;d9aec70907cc</title>
<path fill="none" stroke="black" d="M539.235,-233.858C572.173,-228.01 644.358,-212.748 698.5,-183.73 698.592,-183.681 698.683,-183.631 698.775,-183.582"/>
<polygon fill="black" stroke="black" points="700.415,-186.678 707.245,-178.578 696.855,-180.651 700.415,-186.678"/>
</g>
<!-- pr_01215e88&#45;aadc&#45;4166&#45;bd8a&#45;ab0e17996acf -->
<g id="node17" class="node"><title>pr_01215e88&#45;aadc&#45;4166&#45;bd8a&#45;ab0e17996acf</title>
<polygon fill="none" stroke="black" points="571.5,-183.73 471.5,-183.73 471.5,-83.7297 571.5,-83.7297 571.5,-183.73"/>
<text text-anchor="middle" x="521.5" y="-132.53" font-family="Times,serif" font-size="4.00">pr_01215e88&#45;aadc&#45;4166&#45;bd8a&#45;ab0e17996acf</text>
</g>
<!-- STOML2&#45;&gt;pr_01215e88&#45;aadc&#45;4166&#45;bd8a&#45;ab0e17996acf -->
<g id="edge8" class="edge"><title>STOML2&#45;&gt;pr_01215e88&#45;aadc&#45;4166&#45;bd8a&#45;ab0e17996acf</title>
<path fill="none" stroke="black" d="M521.5,-219.427C521.5,-212.164 521.5,-203.251 521.5,-193.964"/>
<polygon fill="black" stroke="black" points="525,-193.799 521.5,-183.799 518,-193.799 525,-193.799"/>
</g>
<!-- pr_e2e9d5a7&#45;626e&#45;4147&#45;80f6&#45;dda993a71ed6 -->
<g id="node18" class="node"><title>pr_e2e9d5a7&#45;626e&#45;4147&#45;80f6&#45;dda993a71ed6</title>
<polygon fill="none" stroke="black" points="689.5,-183.73 589.5,-183.73 589.5,-83.7297 689.5,-83.7297 689.5,-183.73"/>
<text text-anchor="middle" x="639.5" y="-132.53" font-family="Times,serif" font-size="4.00">pr_e2e9d5a7&#45;626e&#45;4147&#45;80f6&#45;dda993a71ed6</text>
</g>
<!-- STOML2&#45;&gt;pr_e2e9d5a7&#45;626e&#45;4147&#45;80f6&#45;dda993a71ed6 -->
<g id="edge9" class="edge"><title>STOML2&#45;&gt;pr_e2e9d5a7&#45;626e&#45;4147&#45;80f6&#45;dda993a71ed6</title>
<path fill="none" stroke="black" d="M535.036,-225.029C546.585,-215.046 564.032,-199.965 581.377,-184.971"/>
<polygon fill="black" stroke="black" points="584.042,-187.295 589.318,-178.107 579.464,-181.999 584.042,-187.295"/>
</g>
<!-- MFN2&#45;STOML2 -->
<g id="node7" class="node"><title>MFN2&#45;STOML2</title>
<ellipse fill="none" stroke="black" cx="285.5" cy="-23.8649" rx="23.7305" ry="23.7305"/>
<text text-anchor="middle" x="285.5" y="-22.6649" font-family="Times,serif" font-size="4.00">MFN2&#45;STOML2</text>
</g>
<!-- pr_5ac45446&#45;1753&#45;466d&#45;8ae3&#45;cf800e5b15da&#45;&gt;MFN2&#45;STOML2 -->
<g id="edge10" class="edge"><title>pr_5ac45446&#45;1753&#45;466d&#45;8ae3&#45;cf800e5b15da&#45;&gt;MFN2&#45;STOML2</title>
<path fill="none" stroke="black" d="M285.5,-83.532C285.5,-74.8781 285.5,-66.0603 285.5,-57.9791"/>
<polygon fill="black" stroke="black" points="289,-57.8557 285.5,-47.8557 282,-57.8558 289,-57.8557"/>
</g>
<!-- MFN2 -->
<g id="node6" class="node"><title>MFN2</title>
<ellipse fill="none" stroke="black" cx="285.5" cy="-237.73" rx="18" ry="18"/>
<text text-anchor="middle" x="285.5" y="-236.53" font-family="Times,serif" font-size="4.00">MFN2</text>
</g>
<!-- MFN2&#45;&gt;pr_5ac45446&#45;1753&#45;466d&#45;8ae3&#45;cf800e5b15da -->
<g id="edge11" class="edge"><title>MFN2&#45;&gt;pr_5ac45446&#45;1753&#45;466d&#45;8ae3&#45;cf800e5b15da</title>
<path fill="none" stroke="black" d="M285.5,-219.427C285.5,-212.164 285.5,-203.251 285.5,-193.964"/>
<polygon fill="black" stroke="black" points="289,-193.799 285.5,-183.799 282,-193.799 289,-193.799"/>
</g>
<!-- Orf3b -->
<g id="node8" class="node"><title>Orf3b</title>
<ellipse fill="none" stroke="black" cx="435.5" cy="-237.73" rx="18" ry="18"/>
<text text-anchor="middle" x="435.5" y="-236.53" font-family="Times,serif" font-size="4.00">Orf3b</text>
</g>
<!-- Orf3b&#45;&gt;pr_98a2ac9d&#45;d7fc&#45;4e31&#45;8b10&#45;a062d53550b8 -->
<g id="edge12" class="edge"><title>Orf3b&#45;&gt;pr_98a2ac9d&#45;d7fc&#45;4e31&#45;8b10&#45;a062d53550b8</title>
<path fill="none" stroke="black" d="M430.359,-220.342C428.027,-212.908 425.112,-203.617 422.07,-193.92"/>
<polygon fill="black" stroke="black" points="425.335,-192.636 419.002,-184.142 418.656,-194.732 425.335,-192.636"/>
</g>
<!-- Orf3b&#45;&gt;pr_01215e88&#45;aadc&#45;4166&#45;bd8a&#45;ab0e17996acf -->
<g id="edge13" class="edge"><title>Orf3b&#45;&gt;pr_01215e88&#45;aadc&#45;4166&#45;bd8a&#45;ab0e17996acf</title>
<path fill="none" stroke="black" d="M446.743,-223.395C453.765,-215.067 463.339,-203.712 473.291,-191.908"/>
<polygon fill="black" stroke="black" points="476.092,-194.016 479.862,-184.114 470.74,-189.504 476.092,-194.016"/>
</g>
<!-- Orf3b&#45;STOML2 -->
<g id="node10" class="node"><title>Orf3b&#45;STOML2</title>
<ellipse fill="none" stroke="black" cx="462.5" cy="-23.8649" rx="23.1702" ry="23.1702"/>
<text text-anchor="middle" x="462.5" y="-22.6649" font-family="Times,serif" font-size="4.00">Orf3b&#45;STOML2</text>
</g>
<!-- pr_98a2ac9d&#45;d7fc&#45;4e31&#45;8b10&#45;a062d53550b8&#45;&gt;Orf3b&#45;STOML2 -->
<g id="edge14" class="edge"><title>pr_98a2ac9d&#45;d7fc&#45;4e31&#45;8b10&#45;a062d53550b8&#45;&gt;Orf3b&#45;STOML2</title>
<path fill="none" stroke="black" d="M430.41,-83.532C436.063,-73.1973 441.844,-62.6289 446.913,-53.3605"/>
<polygon fill="black" stroke="black" points="449.987,-55.0352 451.715,-44.5823 443.845,-51.676 449.987,-55.0352"/>
</g>
<!-- STOML2&#45;PHB -->
<g id="node13" class="node"><title>STOML2&#45;PHB</title>
<ellipse fill="none" stroke="black" cx="757.5" cy="-23.8649" rx="22.05" ry="22.05"/>
<text text-anchor="middle" x="757.5" y="-22.6649" font-family="Times,serif" font-size="4.00">STOML2&#45;PHB</text>
</g>
<!-- pr_29f70e9d&#45;3466&#45;44dc&#45;8c5a&#45;d9aec70907cc&#45;&gt;STOML2&#45;PHB -->
<g id="edge15" class="edge"><title>pr_29f70e9d&#45;3466&#45;44dc&#45;8c5a&#45;d9aec70907cc&#45;&gt;STOML2&#45;PHB</title>
<path fill="none" stroke="black" d="M757.5,-83.532C757.5,-74.312 757.5,-64.9061 757.5,-56.4031"/>
<polygon fill="black" stroke="black" points="761,-56.1976 757.5,-46.1976 754,-56.1977 761,-56.1976"/>
</g>
<!-- PHB -->
<g id="node12" class="node"><title>PHB</title>
<ellipse fill="none" stroke="black" cx="789.5" cy="-237.73" rx="18" ry="18"/>
<text text-anchor="middle" x="789.5" y="-236.53" font-family="Times,serif" font-size="4.00">PHB</text>
</g>
<!-- PHB&#45;&gt;pr_29f70e9d&#45;3466&#45;44dc&#45;8c5a&#45;d9aec70907cc -->
<g id="edge16" class="edge"><title>PHB&#45;&gt;pr_29f70e9d&#45;3466&#45;44dc&#45;8c5a&#45;d9aec70907cc</title>
<path fill="none" stroke="black" d="M784.359,-220.342C782.027,-212.908 779.112,-203.617 776.07,-193.92"/>
<polygon fill="black" stroke="black" points="779.335,-192.636 773.002,-184.142 772.656,-194.732 779.335,-192.636"/>
</g>
<!-- pr_ee9ccd47&#45;ddcc&#45;495f&#45;8a9c&#45;351e9e1e5dec -->
<g id="node14" class="node"><title>pr_ee9ccd47&#45;ddcc&#45;495f&#45;8a9c&#45;351e9e1e5dec</title>
<polygon fill="none" stroke="black" points="925.5,-183.73 825.5,-183.73 825.5,-83.7297 925.5,-83.7297 925.5,-183.73"/>
<text text-anchor="middle" x="875.5" y="-132.53" font-family="Times,serif" font-size="4.00">pr_ee9ccd47&#45;ddcc&#45;495f&#45;8a9c&#45;351e9e1e5dec</text>
</g>
<!-- PHB&#45;&gt;pr_ee9ccd47&#45;ddcc&#45;495f&#45;8a9c&#45;351e9e1e5dec -->
<g id="edge17" class="edge"><title>PHB&#45;&gt;pr_ee9ccd47&#45;ddcc&#45;495f&#45;8a9c&#45;351e9e1e5dec</title>
<path fill="none" stroke="black" d="M800.743,-223.395C807.765,-215.067 817.339,-203.712 827.291,-191.908"/>
<polygon fill="black" stroke="black" points="830.092,-194.016 833.862,-184.114 824.74,-189.504 830.092,-194.016"/>
</g>
<!-- PHB&#45;RAF1 -->
<g id="node16" class="node"><title>PHB&#45;RAF1</title>
<ellipse fill="none" stroke="black" cx="875.5" cy="-23.8649" rx="19.7452" ry="19.7452"/>
<text text-anchor="middle" x="875.5" y="-22.6649" font-family="Times,serif" font-size="4.00">PHB&#45;RAF1</text>
</g>
<!-- pr_ee9ccd47&#45;ddcc&#45;495f&#45;8a9c&#45;351e9e1e5dec&#45;&gt;PHB&#45;RAF1 -->
<g id="edge18" class="edge"><title>pr_ee9ccd47&#45;ddcc&#45;495f&#45;8a9c&#45;351e9e1e5dec&#45;&gt;PHB&#45;RAF1</title>
<path fill="none" stroke="black" d="M875.5,-83.532C875.5,-73.3084 875.5,-62.8561 875.5,-53.6599"/>
<polygon fill="black" stroke="black" points="879,-53.5303 875.5,-43.5303 872,-53.5304 879,-53.5303"/>
</g>
<!-- RAF1 -->
<g id="node15" class="node"><title>RAF1</title>
<ellipse fill="none" stroke="black" cx="875.5" cy="-237.73" rx="18" ry="18"/>
<text text-anchor="middle" x="875.5" y="-236.53" font-family="Times,serif" font-size="4.00">RAF1</text>
</g>
<!-- RAF1&#45;&gt;pr_ee9ccd47&#45;ddcc&#45;495f&#45;8a9c&#45;351e9e1e5dec -->
<g id="edge19" class="edge"><title>RAF1&#45;&gt;pr_ee9ccd47&#45;ddcc&#45;495f&#45;8a9c&#45;351e9e1e5dec</title>
<path fill="none" stroke="black" d="M875.5,-219.427C875.5,-212.164 875.5,-203.251 875.5,-193.964"/>
<polygon fill="black" stroke="black" points="879,-193.799 875.5,-183.799 872,-193.799 879,-193.799"/>
</g>
<!-- pr_01215e88&#45;aadc&#45;4166&#45;bd8a&#45;ab0e17996acf&#45;&gt;Orf3b&#45;STOML2 -->
<g id="edge20" class="edge"><title>pr_01215e88&#45;aadc&#45;4166&#45;bd8a&#45;ab0e17996acf&#45;&gt;Orf3b&#45;STOML2</title>
<path fill="none" stroke="black" d="M494.59,-83.532C488.937,-73.1973 483.156,-62.6289 478.087,-53.3605"/>
<polygon fill="black" stroke="black" points="481.155,-51.676 473.285,-44.5823 475.013,-55.0352 481.155,-51.676"/>
</g>
<!-- TCR complex -->
<g id="node19" class="node"><title>TCR complex</title>
<ellipse fill="none" stroke="black" cx="639.5" cy="-23.8649" rx="22.6101" ry="22.6101"/>
<text text-anchor="middle" x="639.5" y="-22.6649" font-family="Times,serif" font-size="4.00">TCR complex</text>
</g>
<!-- pr_e2e9d5a7&#45;626e&#45;4147&#45;80f6&#45;dda993a71ed6&#45;&gt;TCR complex -->
<g id="edge21" class="edge"><title>pr_e2e9d5a7&#45;626e&#45;4147&#45;80f6&#45;dda993a71ed6&#45;&gt;TCR complex</title>
<path fill="none" stroke="black" d="M632.773,-83.532C632.683,-74.312 632.857,-64.9061 633.296,-56.4031"/>
<polygon fill="black" stroke="black" points="636.804,-56.4132 633.994,-46.1976 629.82,-55.9355 636.804,-56.4132"/>
</g>
<!-- TCR complex&#45;&gt;pr_e2e9d5a7&#45;626e&#45;4147&#45;80f6&#45;dda993a71ed6 -->
<g id="edge22" class="edge"><title>TCR complex&#45;&gt;pr_e2e9d5a7&#45;626e&#45;4147&#45;80f6&#45;dda993a71ed6</title>
<path fill="none" stroke="black" d="M645.006,-46.1976C645.705,-54.1631 646.11,-63.6471 646.22,-73.3687"/>
<polygon fill="black" stroke="black" points="642.72,-73.5346 646.227,-83.532 649.72,-73.5295 642.72,-73.5346"/>
</g>
</g>
</svg>
