<?xml version="1.0" encoding="UTF-8" standalone="no"?>
<!DOCTYPE svg PUBLIC "-//W3C//DTD SVG 1.1//EN"
 "http://www.w3.org/Graphics/SVG/1.1/DTD/svg11.dtd">
<!-- Generated by graphviz version 2.38.0 (20140413.2041)
 -->
<!-- Title: G Pages: 1 -->
<svg width="904pt" height="1150pt"
 viewBox="0.00 0.00 904.00 1150.19" xmlns="http://www.w3.org/2000/svg" xmlns:xlink="http://www.w3.org/1999/xlink">
<g id="graph0" class="graph" transform="scale(1 1) rotate(0) translate(4 1146.19)">
<title>G</title>
<polygon fill="white" stroke="none" points="-4,4 -4,-1146.19 900,-1146.19 900,4 -4,4"/>
<!-- Orf3a -->
<g id="node1" class="node"><title>Orf3a</title>
<ellipse fill="none" stroke="black" cx="329" cy="-1121.51" rx="18" ry="18"/>
<text text-anchor="middle" x="329" y="-1120.31" font-family="Times,serif" font-size="4.00">Orf3a</text>
</g>
<!-- pr_702a0bb2&#45;534a&#45;4cbe&#45;aa08&#45;8a5bbf01863b -->
<g id="node2" class="node"><title>pr_702a0bb2&#45;534a&#45;4cbe&#45;aa08&#45;8a5bbf01863b</title>
<polygon fill="none" stroke="black" points="293,-1064.83 193,-1064.83 193,-964.829 293,-964.829 293,-1064.83"/>
<text text-anchor="middle" x="243" y="-1013.63" font-family="Times,serif" font-size="4.00">pr_702a0bb2&#45;534a&#45;4cbe&#45;aa08&#45;8a5bbf01863b</text>
</g>
<!-- Orf3a&#45;&gt;pr_702a0bb2&#45;534a&#45;4cbe&#45;aa08&#45;8a5bbf01863b -->
<g id="edge1" class="edge"><title>Orf3a&#45;&gt;pr_702a0bb2&#45;534a&#45;4cbe&#45;aa08&#45;8a5bbf01863b</title>
<path fill="none" stroke="black" d="M317.757,-1106.83C310.442,-1097.92 300.358,-1085.65 289.961,-1072.99"/>
<polygon fill="black" stroke="black" points="292.522,-1070.6 283.47,-1065.09 287.113,-1075.04 292.522,-1070.6"/>
</g>
<!-- pr_c4ba815c&#45;d45a&#45;4c8b&#45;8cd8&#45;4df23bde983f -->
<g id="node35" class="node"><title>pr_c4ba815c&#45;d45a&#45;4c8b&#45;8cd8&#45;4df23bde983f</title>
<polygon fill="none" stroke="black" points="410.5,-1064.33 311.5,-1064.33 311.5,-965.329 410.5,-965.329 410.5,-1064.33"/>
<text text-anchor="middle" x="361" y="-1013.63" font-family="Times,serif" font-size="4.00">pr_c4ba815c&#45;d45a&#45;4c8b&#45;8cd8&#45;4df23bde983f</text>
</g>
<!-- Orf3a&#45;&gt;pr_c4ba815c&#45;d45a&#45;4c8b&#45;8cd8&#45;4df23bde983f -->
<g id="edge2" class="edge"><title>Orf3a&#45;&gt;pr_c4ba815c&#45;d45a&#45;4c8b&#45;8cd8&#45;4df23bde983f</title>
<path fill="none" stroke="black" d="M334,-1104.15C336.529,-1095.88 339.768,-1085.29 343.119,-1074.32"/>
<polygon fill="black" stroke="black" points="346.501,-1075.23 346.077,-1064.65 339.807,-1073.19 346.501,-1075.23"/>
</g>
<!-- NLRP3 -->
<g id="node4" class="node"><title>NLRP3</title>
<ellipse fill="none" stroke="black" cx="243" cy="-902.312" rx="18" ry="18"/>
<text text-anchor="middle" x="243" y="-901.112" font-family="Times,serif" font-size="4.00">NLRP3</text>
</g>
<!-- pr_702a0bb2&#45;534a&#45;4cbe&#45;aa08&#45;8a5bbf01863b&#45;&gt;NLRP3 -->
<g id="edge3" class="edge"><title>pr_702a0bb2&#45;534a&#45;4cbe&#45;aa08&#45;8a5bbf01863b&#45;&gt;NLRP3</title>
<path fill="none" stroke="black" d="M243,-964.711C243,-952.988 243,-940.891 243,-930.567"/>
<polygon fill="black" stroke="black" points="246.5,-930.54 243,-920.54 239.5,-930.54 246.5,-930.54"/>
</g>
<!-- TRAF3 -->
<g id="node3" class="node"><title>TRAF3</title>
<ellipse fill="none" stroke="black" cx="478" cy="-1121.51" rx="18" ry="18"/>
<text text-anchor="middle" x="478" y="-1120.31" font-family="Times,serif" font-size="4.00">TRAF3</text>
</g>
<!-- TRAF3&#45;&gt;pr_702a0bb2&#45;534a&#45;4cbe&#45;aa08&#45;8a5bbf01863b -->
<g id="edge4" class="edge"><title>TRAF3&#45;&gt;pr_702a0bb2&#45;534a&#45;4cbe&#45;aa08&#45;8a5bbf01863b</title>
<path fill="none" stroke="black" d="M460.371,-1117.29C427.629,-1110.81 355.867,-1094.24 302,-1064.83 301.909,-1064.78 301.817,-1064.73 301.726,-1064.68"/>
<polygon fill="black" stroke="black" points="303.662,-1061.76 293.285,-1059.62 300.065,-1067.76 303.662,-1061.76"/>
</g>
<!-- pr_5ed7ac80&#45;bd8f&#45;4c73&#45;87d8&#45;684df01f1d0d -->
<g id="node52" class="node"><title>pr_5ed7ac80&#45;bd8f&#45;4c73&#45;87d8&#45;684df01f1d0d</title>
<polygon fill="none" stroke="black" points="527,-1063.83 429,-1063.83 429,-965.829 527,-965.829 527,-1063.83"/>
<text text-anchor="middle" x="478" y="-1013.63" font-family="Times,serif" font-size="4.00">pr_5ed7ac80&#45;bd8f&#45;4c73&#45;87d8&#45;684df01f1d0d</text>
</g>
<!-- TRAF3&#45;&gt;pr_5ed7ac80&#45;bd8f&#45;4c73&#45;87d8&#45;684df01f1d0d -->
<g id="edge5" class="edge"><title>TRAF3&#45;&gt;pr_5ed7ac80&#45;bd8f&#45;4c73&#45;87d8&#45;684df01f1d0d</title>
<path fill="none" stroke="black" d="M472.938,-1104.15C471.989,-1095.88 471.44,-1085.27 471.291,-1074.31"/>
<polygon fill="black" stroke="black" points="474.791,-1074.18 471.267,-1064.19 467.791,-1074.19 474.791,-1074.18"/>
</g>
<!-- pr_0f4705b6&#45;a1c3&#45;477b&#45;a80d&#45;27ab66f73d66 -->
<g id="node8" class="node"><title>pr_0f4705b6&#45;a1c3&#45;477b&#45;a80d&#45;27ab66f73d66</title>
<polygon fill="none" stroke="black" points="292.5,-839.296 193.5,-839.296 193.5,-740.296 292.5,-740.296 292.5,-839.296"/>
<text text-anchor="middle" x="243" y="-788.596" font-family="Times,serif" font-size="4.00">pr_0f4705b6&#45;a1c3&#45;477b&#45;a80d&#45;27ab66f73d66</text>
</g>
<!-- NLRP3&#45;&gt;pr_0f4705b6&#45;a1c3&#45;477b&#45;a80d&#45;27ab66f73d66 -->
<g id="edge6" class="edge"><title>NLRP3&#45;&gt;pr_0f4705b6&#45;a1c3&#45;477b&#45;a80d&#45;27ab66f73d66</title>
<path fill="none" stroke="black" d="M243,-884.044C243,-874.559 243,-862.18 243,-849.557"/>
<polygon fill="black" stroke="black" points="246.5,-849.431 243,-839.431 239.5,-849.431 246.5,-849.431"/>
</g>
<!-- ASC/CASP1 -->
<g id="node5" class="node"><title>ASC/CASP1</title>
<ellipse fill="none" stroke="black" cx="176" cy="-1121.51" rx="20.8674" ry="20.8674"/>
<text text-anchor="middle" x="176" y="-1120.31" font-family="Times,serif" font-size="4.00">ASC/CASP1</text>
</g>
<!-- ASC/CASP1&#45;&gt;pr_702a0bb2&#45;534a&#45;4cbe&#45;aa08&#45;8a5bbf01863b -->
<g id="edge7" class="edge"><title>ASC/CASP1&#45;&gt;pr_702a0bb2&#45;534a&#45;4cbe&#45;aa08&#45;8a5bbf01863b</title>
<path fill="none" stroke="black" d="M186.765,-1103.69C192.13,-1095.31 198.967,-1084.63 206.013,-1073.62"/>
<polygon fill="black" stroke="black" points="208.978,-1075.48 211.421,-1065.17 203.082,-1071.71 208.978,-1075.48"/>
</g>
<!-- ASC/CASP1&#45;&gt;pr_0f4705b6&#45;a1c3&#45;477b&#45;a80d&#45;27ab66f73d66 -->
<g id="edge8" class="edge"><title>ASC/CASP1&#45;&gt;pr_0f4705b6&#45;a1c3&#45;477b&#45;a80d&#45;27ab66f73d66</title>
<path fill="none" stroke="black" d="M175.287,-1100.64C174.606,-1070.84 174.792,-1012.94 184,-964.829 191.587,-925.187 206.084,-882.224 218.809,-848.903"/>
<polygon fill="black" stroke="black" points="222.169,-849.919 222.517,-839.33 215.641,-847.391 222.169,-849.919"/>
</g>
<!-- P65/P015 -->
<g id="node6" class="node"><title>P65/P015</title>
<ellipse fill="none" stroke="black" cx="84" cy="-1121.51" rx="18.0625" ry="18.0625"/>
<text text-anchor="middle" x="84" y="-1120.31" font-family="Times,serif" font-size="4.00">P65/P015</text>
</g>
<!-- P65/P015&#45;&gt;pr_702a0bb2&#45;534a&#45;4cbe&#45;aa08&#45;8a5bbf01863b -->
<g id="edge9" class="edge"><title>P65/P015&#45;&gt;pr_702a0bb2&#45;534a&#45;4cbe&#45;aa08&#45;8a5bbf01863b</title>
<path fill="none" stroke="black" d="M98.6733,-1110.85C118.068,-1098.08 153.391,-1074.83 184.236,-1054.52"/>
<polygon fill="black" stroke="black" points="186.373,-1057.3 192.801,-1048.88 182.524,-1051.45 186.373,-1057.3"/>
</g>
<!-- pr_d8b61f79&#45;8210&#45;4b76&#45;b393&#45;3bcf87367f66 -->
<g id="node10" class="node"><title>pr_d8b61f79&#45;8210&#45;4b76&#45;b393&#45;3bcf87367f66</title>
<polygon fill="none" stroke="black" points="98,-1063.83 7.10543e-15,-1063.83 7.10543e-15,-965.829 98,-965.829 98,-1063.83"/>
<text text-anchor="middle" x="49" y="-1013.63" font-family="Times,serif" font-size="4.00">pr_d8b61f79&#45;8210&#45;4b76&#45;b393&#45;3bcf87367f66</text>
</g>
<!-- P65/P015&#45;&gt;pr_d8b61f79&#45;8210&#45;4b76&#45;b393&#45;3bcf87367f66 -->
<g id="edge10" class="edge"><title>P65/P015&#45;&gt;pr_d8b61f79&#45;8210&#45;4b76&#45;b393&#45;3bcf87367f66</title>
<path fill="none" stroke="black" d="M74.2884,-1105.96C70.2777,-1097.27 65.7539,-1085.6 61.5828,-1073.56"/>
<polygon fill="black" stroke="black" points="64.8291,-1072.23 58.3299,-1063.86 58.1927,-1074.46 64.8291,-1072.23"/>
</g>
<!-- pr_9d5c5504&#45;17c6&#45;4c15&#45;9684&#45;8b17d8ba444f -->
<g id="node28" class="node"><title>pr_9d5c5504&#45;17c6&#45;4c15&#45;9684&#45;8b17d8ba444f</title>
<polygon fill="none" stroke="black" points="175,-839.796 75,-839.796 75,-739.796 175,-739.796 175,-839.796"/>
<text text-anchor="middle" x="125" y="-788.596" font-family="Times,serif" font-size="4.00">pr_9d5c5504&#45;17c6&#45;4c15&#45;9684&#45;8b17d8ba444f</text>
</g>
<!-- P65/P015&#45;&gt;pr_9d5c5504&#45;17c6&#45;4c15&#45;9684&#45;8b17d8ba444f -->
<g id="edge11" class="edge"><title>P65/P015&#45;&gt;pr_9d5c5504&#45;17c6&#45;4c15&#45;9684&#45;8b17d8ba444f</title>
<path fill="none" stroke="black" d="M92.0698,-1104.89C97.3004,-1093.97 103.728,-1078.89 107,-1064.83 123.888,-992.26 126.865,-906.174 126.622,-850.115"/>
<polygon fill="black" stroke="black" points="130.121,-849.979 126.542,-840.007 123.121,-850.035 130.121,-849.979"/>
</g>
<!-- ORF8b -->
<g id="node7" class="node"><title>ORF8b</title>
<ellipse fill="none" stroke="black" cx="243" cy="-1121.51" rx="18" ry="18"/>
<text text-anchor="middle" x="243" y="-1120.31" font-family="Times,serif" font-size="4.00">ORF8b</text>
</g>
<!-- ORF8b&#45;&gt;pr_702a0bb2&#45;534a&#45;4cbe&#45;aa08&#45;8a5bbf01863b -->
<g id="edge12" class="edge"><title>ORF8b&#45;&gt;pr_702a0bb2&#45;534a&#45;4cbe&#45;aa08&#45;8a5bbf01863b</title>
<path fill="none" stroke="black" d="M243,-1103.23C243,-1095.39 243,-1085.6 243,-1075.45"/>
<polygon fill="black" stroke="black" points="246.5,-1075.23 243,-1065.23 239.5,-1075.23 246.5,-1075.23"/>
</g>
<!-- CASP1 -->
<g id="node9" class="node"><title>CASP1</title>
<ellipse fill="none" stroke="black" cx="223" cy="-677.279" rx="18" ry="18"/>
<text text-anchor="middle" x="223" y="-676.079" font-family="Times,serif" font-size="4.00">CASP1</text>
</g>
<!-- pr_0f4705b6&#45;a1c3&#45;477b&#45;a80d&#45;27ab66f73d66&#45;&gt;CASP1 -->
<g id="edge13" class="edge"><title>pr_0f4705b6&#45;a1c3&#45;477b&#45;a80d&#45;27ab66f73d66&#45;&gt;CASP1</title>
<path fill="none" stroke="black" d="M234.169,-740C232.01,-728.069 229.778,-715.731 227.881,-705.251"/>
<polygon fill="black" stroke="black" points="231.269,-704.315 226.044,-695.098 224.38,-705.562 231.269,-704.315"/>
</g>
<!-- pr_61276d32&#45;4254&#45;4f37&#45;8315&#45;6e95dc1f0bfa -->
<g id="node24" class="node"><title>pr_61276d32&#45;4254&#45;4f37&#45;8315&#45;6e95dc1f0bfa</title>
<polygon fill="none" stroke="black" points="271,-613.763 173,-613.763 173,-515.763 271,-515.763 271,-613.763"/>
<text text-anchor="middle" x="222" y="-563.563" font-family="Times,serif" font-size="4.00">pr_61276d32&#45;4254&#45;4f37&#45;8315&#45;6e95dc1f0bfa</text>
</g>
<!-- CASP1&#45;&gt;pr_61276d32&#45;4254&#45;4f37&#45;8315&#45;6e95dc1f0bfa -->
<g id="edge14" class="edge"><title>CASP1&#45;&gt;pr_61276d32&#45;4254&#45;4f37&#45;8315&#45;6e95dc1f0bfa</title>
<path fill="none" stroke="black" d="M222.844,-659.011C222.757,-649.43 222.644,-636.897 222.528,-624.141"/>
<polygon fill="black" stroke="black" points="226.026,-623.883 222.436,-613.915 219.026,-623.947 226.026,-623.883"/>
</g>
<!-- pr_d8b61f79&#45;8210&#45;4b76&#45;b393&#45;3bcf87367f66&#45;&gt;P65/P015 -->
<g id="edge15" class="edge"><title>pr_d8b61f79&#45;8210&#45;4b76&#45;b393&#45;3bcf87367f66&#45;&gt;P65/P015</title>
<path fill="none" stroke="black" d="M71.7908,-1063.87C75.2676,-1073.98 78.4786,-1084.31 80.9142,-1093.33"/>
<polygon fill="black" stroke="black" points="77.5673,-1094.37 83.3868,-1103.23 84.3586,-1092.68 77.5673,-1094.37"/>
</g>
<!-- LPS/TLR4/MYD88 -->
<g id="node11" class="node"><title>LPS/TLR4/MYD88</title>
<ellipse fill="none" stroke="black" cx="497" cy="-902.312" rx="26.533" ry="26.533"/>
<text text-anchor="middle" x="497" y="-901.112" font-family="Times,serif" font-size="4.00">LPS/TLR4/MYD88</text>
</g>
<!-- pr_a4008cfd&#45;a33a&#45;49fc&#45;811b&#45;3d538a3a2c31 -->
<g id="node12" class="node"><title>pr_a4008cfd&#45;a33a&#45;49fc&#45;811b&#45;3d538a3a2c31</title>
<polygon fill="none" stroke="black" points="546.5,-839.296 447.5,-839.296 447.5,-740.296 546.5,-740.296 546.5,-839.296"/>
<text text-anchor="middle" x="497" y="-788.596" font-family="Times,serif" font-size="4.00">pr_a4008cfd&#45;a33a&#45;49fc&#45;811b&#45;3d538a3a2c31</text>
</g>
<!-- LPS/TLR4/MYD88&#45;&gt;pr_a4008cfd&#45;a33a&#45;49fc&#45;811b&#45;3d538a3a2c31 -->
<g id="edge16" class="edge"><title>LPS/TLR4/MYD88&#45;&gt;pr_a4008cfd&#45;a33a&#45;49fc&#45;811b&#45;3d538a3a2c31</title>
<path fill="none" stroke="black" d="M497,-875.68C497,-867.719 497,-858.594 497,-849.345"/>
<polygon fill="black" stroke="black" points="500.5,-849.31 497,-839.31 493.5,-849.31 500.5,-849.31"/>
</g>
<!-- TRAF6 -->
<g id="node13" class="node"><title>TRAF6</title>
<ellipse fill="none" stroke="black" cx="559" cy="-677.279" rx="18" ry="18"/>
<text text-anchor="middle" x="559" y="-676.079" font-family="Times,serif" font-size="4.00">TRAF6</text>
</g>
<!-- pr_a4008cfd&#45;a33a&#45;49fc&#45;811b&#45;3d538a3a2c31&#45;&gt;TRAF6 -->
<g id="edge17" class="edge"><title>pr_a4008cfd&#45;a33a&#45;49fc&#45;811b&#45;3d538a3a2c31&#45;&gt;TRAF6</title>
<path fill="none" stroke="black" d="M524.375,-740C531.701,-726.941 539.301,-713.393 545.508,-702.329"/>
<polygon fill="black" stroke="black" points="548.721,-703.754 550.562,-693.321 542.617,-700.329 548.721,-703.754"/>
</g>
<!-- pr_5b3f8c9f&#45;fa61&#45;4c37&#45;b0d2&#45;ca3df6ac8a98 -->
<g id="node41" class="node"><title>pr_5b3f8c9f&#45;fa61&#45;4c37&#45;b0d2&#45;ca3df6ac8a98</title>
<polygon fill="none" stroke="black" points="662,-613.763 564,-613.763 564,-515.763 662,-515.763 662,-613.763"/>
<text text-anchor="middle" x="613" y="-563.563" font-family="Times,serif" font-size="4.00">pr_5b3f8c9f&#45;fa61&#45;4c37&#45;b0d2&#45;ca3df6ac8a98</text>
</g>
<!-- TRAF6&#45;&gt;pr_5b3f8c9f&#45;fa61&#45;4c37&#45;b0d2&#45;ca3df6ac8a98 -->
<g id="edge18" class="edge"><title>TRAF6&#45;&gt;pr_5b3f8c9f&#45;fa61&#45;4c37&#45;b0d2&#45;ca3df6ac8a98</title>
<path fill="none" stroke="black" d="M562.192,-659.494C565.93,-649.584 571.795,-636.395 578.263,-623.049"/>
<polygon fill="black" stroke="black" points="581.53,-624.339 582.818,-613.822 575.253,-621.24 581.53,-624.339"/>
</g>
<!-- pr_d5e541db&#45;bae4&#45;40f7&#45;9e69&#45;ccea00db3290 -->
<g id="node44" class="node"><title>pr_d5e541db&#45;bae4&#45;40f7&#45;9e69&#45;ccea00db3290</title>
<polygon fill="none" stroke="black" points="546,-614.763 446,-614.763 446,-514.763 546,-514.763 546,-614.763"/>
<text text-anchor="middle" x="496" y="-563.563" font-family="Times,serif" font-size="4.00">pr_d5e541db&#45;bae4&#45;40f7&#45;9e69&#45;ccea00db3290</text>
</g>
<!-- TRAF6&#45;&gt;pr_d5e541db&#45;bae4&#45;40f7&#45;9e69&#45;ccea00db3290 -->
<g id="edge19" class="edge"><title>TRAF6&#45;&gt;pr_d5e541db&#45;bae4&#45;40f7&#45;9e69&#45;ccea00db3290</title>
<path fill="none" stroke="black" d="M550.504,-661.374C544.83,-651.421 536.966,-637.626 528.976,-623.609"/>
<polygon fill="black" stroke="black" points="531.996,-621.84 524.002,-614.885 525.914,-625.306 531.996,-621.84"/>
</g>
<!-- TRIM59 -->
<g id="node14" class="node"><title>TRIM59</title>
<ellipse fill="none" stroke="black" cx="361" cy="-902.312" rx="18" ry="18"/>
<text text-anchor="middle" x="361" y="-901.112" font-family="Times,serif" font-size="4.00">TRIM59</text>
</g>
<!-- TRIM59&#45;&gt;pr_a4008cfd&#45;a33a&#45;49fc&#45;811b&#45;3d538a3a2c31 -->
<g id="edge20" class="edge"><title>TRIM59&#45;&gt;pr_a4008cfd&#45;a33a&#45;49fc&#45;811b&#45;3d538a3a2c31</title>
<path fill="none" stroke="black" d="M374.537,-890.311C389.749,-877.95 415.454,-857.062 439.397,-837.605"/>
<polygon fill="black" stroke="black" points="441.879,-840.099 447.432,-831.076 437.464,-834.666 441.879,-840.099"/>
</g>
<!-- TRIM59&#45;&gt;pr_c4ba815c&#45;d45a&#45;4c8b&#45;8cd8&#45;4df23bde983f -->
<g id="edge21" class="edge"><title>TRIM59&#45;&gt;pr_c4ba815c&#45;d45a&#45;4c8b&#45;8cd8&#45;4df23bde983f</title>
<path fill="none" stroke="black" d="M365.984,-919.873C367.055,-929.364 367.639,-941.914 367.736,-954.74"/>
<polygon fill="black" stroke="black" points="364.235,-955.024 367.709,-965.033 371.235,-955.042 364.235,-955.024"/>
</g>
<!-- NFKBIA -->
<g id="node15" class="node"><title>NFKBIA</title>
<ellipse fill="none" stroke="black" cx="846" cy="-225.092" rx="18" ry="18"/>
<text text-anchor="middle" x="846" y="-223.892" font-family="Times,serif" font-size="4.00">NFKBIA</text>
</g>
<!-- pr_19291688&#45;690a&#45;4412&#45;a144&#45;6466f59fb1ca -->
<g id="node16" class="node"><title>pr_19291688&#45;690a&#45;4412&#45;a144&#45;6466f59fb1ca</title>
<polygon fill="none" stroke="black" points="895.5,-379.684 796.5,-379.684 796.5,-280.684 895.5,-280.684 895.5,-379.684"/>
<text text-anchor="middle" x="846" y="-328.984" font-family="Times,serif" font-size="4.00">pr_19291688&#45;690a&#45;4412&#45;a144&#45;6466f59fb1ca</text>
</g>
<!-- NFKBIA&#45;&gt;pr_19291688&#45;690a&#45;4412&#45;a144&#45;6466f59fb1ca -->
<g id="edge22" class="edge"><title>NFKBIA&#45;&gt;pr_19291688&#45;690a&#45;4412&#45;a144&#45;6466f59fb1ca</title>
<path fill="none" stroke="black" d="M851.085,-242.392C851.992,-250.274 852.529,-260.267 852.694,-270.645"/>
<polygon fill="black" stroke="black" points="849.194,-270.673 852.74,-280.657 856.194,-270.641 849.194,-270.673"/>
</g>
<!-- pr_f3846dea&#45;320f&#45;477b&#45;9cf8&#45;b00ad8b71ecc -->
<g id="node53" class="node"><title>pr_f3846dea&#45;320f&#45;477b&#45;9cf8&#45;b00ad8b71ecc</title>
<polygon fill="none" stroke="black" points="895,-170 797,-170 797,-72 895,-72 895,-170"/>
<text text-anchor="middle" x="846" y="-119.8" font-family="Times,serif" font-size="4.00">pr_f3846dea&#45;320f&#45;477b&#45;9cf8&#45;b00ad8b71ecc</text>
</g>
<!-- NFKBIA&#45;&gt;pr_f3846dea&#45;320f&#45;477b&#45;9cf8&#45;b00ad8b71ecc -->
<g id="edge23" class="edge"><title>NFKBIA&#45;&gt;pr_f3846dea&#45;320f&#45;477b&#45;9cf8&#45;b00ad8b71ecc</title>
<path fill="none" stroke="black" d="M846,-206.773C846,-199.258 846,-189.977 846,-180.341"/>
<polygon fill="black" stroke="black" points="849.5,-180.231 846,-170.231 842.5,-180.232 849.5,-180.231"/>
</g>
<!-- pr_19291688&#45;690a&#45;4412&#45;a144&#45;6466f59fb1ca&#45;&gt;NFKBIA -->
<g id="edge24" class="edge"><title>pr_19291688&#45;690a&#45;4412&#45;a144&#45;6466f59fb1ca&#45;&gt;NFKBIA</title>
<path fill="none" stroke="black" d="M839.26,-280.657C839.194,-270.962 839.447,-261.125 840.02,-252.523"/>
<polygon fill="black" stroke="black" points="843.521,-252.661 840.915,-242.392 836.548,-252.044 843.521,-252.661"/>
</g>
<!-- B&#45;TrcP -->
<g id="node17" class="node"><title>B&#45;TrcP</title>
<ellipse fill="none" stroke="black" cx="878" cy="-447.473" rx="18" ry="18"/>
<text text-anchor="middle" x="878" y="-446.273" font-family="Times,serif" font-size="4.00">B&#45;TrcP</text>
</g>
<!-- B&#45;TrcP&#45;&gt;pr_19291688&#45;690a&#45;4412&#45;a144&#45;6466f59fb1ca -->
<g id="edge25" class="edge"><title>B&#45;TrcP&#45;&gt;pr_19291688&#45;690a&#45;4412&#45;a144&#45;6466f59fb1ca</title>
<path fill="none" stroke="black" d="M873.415,-429.955C870.424,-419.178 866.322,-404.4 862.202,-389.557"/>
<polygon fill="black" stroke="black" points="865.551,-388.535 859.504,-379.835 858.806,-390.407 865.551,-388.535"/>
</g>
<!-- NEMO/IKKA/IKKB -->
<g id="node18" class="node"><title>NEMO/IKKA/IKKB</title>
<ellipse fill="none" stroke="black" cx="814" cy="-447.473" rx="28.2154" ry="28.2154"/>
<text text-anchor="middle" x="814" y="-446.273" font-family="Times,serif" font-size="4.00">NEMO/IKKA/IKKB</text>
</g>
<!-- NEMO/IKKA/IKKB&#45;&gt;pr_19291688&#45;690a&#45;4412&#45;a144&#45;6466f59fb1ca -->
<g id="edge26" class="edge"><title>NEMO/IKKA/IKKB&#45;&gt;pr_19291688&#45;690a&#45;4412&#45;a144&#45;6466f59fb1ca</title>
<path fill="none" stroke="black" d="M821.261,-420.312C823.803,-411.157 826.768,-400.472 829.745,-389.746"/>
<polygon fill="black" stroke="black" points="833.169,-390.497 832.471,-379.925 826.424,-388.625 833.169,-390.497"/>
</g>
<!-- pr_6d7197bc&#45;d1c2&#45;4f45&#45;b1f7&#45;c9d7fc2b4803 -->
<g id="node46" class="node"><title>pr_6d7197bc&#45;d1c2&#45;4f45&#45;b1f7&#45;c9d7fc2b4803</title>
<polygon fill="none" stroke="black" points="707,-379.184 609,-379.184 609,-281.184 707,-281.184 707,-379.184"/>
<text text-anchor="middle" x="658" y="-328.984" font-family="Times,serif" font-size="4.00">pr_6d7197bc&#45;d1c2&#45;4f45&#45;b1f7&#45;c9d7fc2b4803</text>
</g>
<!-- NEMO/IKKA/IKKB&#45;&gt;pr_6d7197bc&#45;d1c2&#45;4f45&#45;b1f7&#45;c9d7fc2b4803 -->
<g id="edge27" class="edge"><title>NEMO/IKKA/IKKB&#45;&gt;pr_6d7197bc&#45;d1c2&#45;4f45&#45;b1f7&#45;c9d7fc2b4803</title>
<path fill="none" stroke="black" d="M792.67,-428.613C787.586,-424.467 782.143,-420.119 777,-416.184 757.24,-401.064 735.17,-385.064 715.454,-371.074"/>
<polygon fill="black" stroke="black" points="717.347,-368.126 707.162,-365.209 713.305,-373.841 717.347,-368.126"/>
</g>
<!-- LPS/TNF α/IL&#45;1 -->
<g id="node19" class="node"><title>LPS/TNF α/IL&#45;1</title>
<ellipse fill="none" stroke="black" cx="339" cy="-677.279" rx="23.7305" ry="23.7305"/>
<text text-anchor="middle" x="339" y="-676.079" font-family="Times,serif" font-size="4.00">LPS/TNF α/IL&#45;1</text>
</g>
<!-- pr_a83fc12e&#45;1a1c&#45;48c3&#45;82f0&#45;9578d74e03b7 -->
<g id="node20" class="node"><title>pr_a83fc12e&#45;1a1c&#45;48c3&#45;82f0&#45;9578d74e03b7</title>
<polygon fill="none" stroke="black" points="388.5,-614.263 289.5,-614.263 289.5,-515.263 388.5,-515.263 388.5,-614.263"/>
<text text-anchor="middle" x="339" y="-563.563" font-family="Times,serif" font-size="4.00">pr_a83fc12e&#45;1a1c&#45;48c3&#45;82f0&#45;9578d74e03b7</text>
</g>
<!-- LPS/TNF α/IL&#45;1&#45;&gt;pr_a83fc12e&#45;1a1c&#45;48c3&#45;82f0&#45;9578d74e03b7 -->
<g id="edge28" class="edge"><title>LPS/TNF α/IL&#45;1&#45;&gt;pr_a83fc12e&#45;1a1c&#45;48c3&#45;82f0&#45;9578d74e03b7</title>
<path fill="none" stroke="black" d="M339,-653.38C339,-644.94 339,-634.944 339,-624.778"/>
<polygon fill="black" stroke="black" points="342.5,-624.606 339,-614.606 335.5,-624.606 342.5,-624.606"/>
</g>
<!-- IKBKG/IKBKB/CHUK -->
<g id="node22" class="node"><title>IKBKG/IKBKB/CHUK</title>
<ellipse fill="none" stroke="black" cx="339" cy="-447.473" rx="31.0804" ry="31.0804"/>
<text text-anchor="middle" x="339" y="-446.273" font-family="Times,serif" font-size="4.00">IKBKG/IKBKB/CHUK</text>
</g>
<!-- pr_a83fc12e&#45;1a1c&#45;48c3&#45;82f0&#45;9578d74e03b7&#45;&gt;IKBKG/IKBKB/CHUK -->
<g id="edge29" class="edge"><title>pr_a83fc12e&#45;1a1c&#45;48c3&#45;82f0&#45;9578d74e03b7&#45;&gt;IKBKG/IKBKB/CHUK</title>
<path fill="none" stroke="black" d="M339,-515.204C339,-506.454 339,-497.417 339,-488.928"/>
<polygon fill="black" stroke="black" points="342.5,-488.901 339,-478.901 335.5,-488.901 342.5,-488.901"/>
</g>
<!-- E -->
<g id="node21" class="node"><title>E</title>
<ellipse fill="none" stroke="black" cx="278" cy="-677.279" rx="18" ry="18"/>
<text text-anchor="middle" x="278" y="-676.079" font-family="Times,serif" font-size="4.00">E</text>
</g>
<!-- E&#45;&gt;pr_a83fc12e&#45;1a1c&#45;48c3&#45;82f0&#45;9578d74e03b7 -->
<g id="edge30" class="edge"><title>E&#45;&gt;pr_a83fc12e&#45;1a1c&#45;48c3&#45;82f0&#45;9578d74e03b7</title>
<path fill="none" stroke="black" d="M286.482,-660.912C291.96,-650.987 299.468,-637.385 307.093,-623.571"/>
<polygon fill="black" stroke="black" points="310.332,-624.944 312.1,-614.498 304.204,-621.562 310.332,-624.944"/>
</g>
<!-- E&#45;&gt;pr_61276d32&#45;4254&#45;4f37&#45;8315&#45;6e95dc1f0bfa -->
<g id="edge31" class="edge"><title>E&#45;&gt;pr_61276d32&#45;4254&#45;4f37&#45;8315&#45;6e95dc1f0bfa</title>
<path fill="none" stroke="black" d="M270.213,-660.912C265.135,-650.89 258.157,-637.118 251.086,-623.164"/>
<polygon fill="black" stroke="black" points="254.087,-621.344 246.445,-614.006 247.843,-624.508 254.087,-621.344"/>
</g>
<!-- Pro_IL1b -->
<g id="node23" class="node"><title>Pro_IL1b</title>
<ellipse fill="none" stroke="black" cx="222" cy="-447.473" rx="18" ry="18"/>
<text text-anchor="middle" x="222" y="-446.273" font-family="Times,serif" font-size="4.00">Pro_IL1b</text>
</g>
<!-- Pro_IL1b&#45;&gt;pr_61276d32&#45;4254&#45;4f37&#45;8315&#45;6e95dc1f0bfa -->
<g id="edge32" class="edge"><title>Pro_IL1b&#45;&gt;pr_61276d32&#45;4254&#45;4f37&#45;8315&#45;6e95dc1f0bfa</title>
<path fill="none" stroke="black" d="M226.901,-464.999C228.112,-475.758 228.728,-490.503 228.749,-505.318"/>
<polygon fill="black" stroke="black" points="225.248,-505.51 228.669,-515.538 232.248,-505.565 225.248,-505.51"/>
</g>
<!-- pr_61276d32&#45;4254&#45;4f37&#45;8315&#45;6e95dc1f0bfa&#45;&gt;Pro_IL1b -->
<g id="edge33" class="edge"><title>pr_61276d32&#45;4254&#45;4f37&#45;8315&#45;6e95dc1f0bfa&#45;&gt;Pro_IL1b</title>
<path fill="none" stroke="black" d="M215.331,-515.538C215.092,-501.743 215.382,-487.209 216.199,-475.211"/>
<polygon fill="black" stroke="black" points="219.708,-475.268 217.099,-464.999 212.735,-474.653 219.708,-475.268"/>
</g>
<!-- SERPINF2 -->
<g id="node25" class="node"><title>SERPINF2</title>
<ellipse fill="none" stroke="black" cx="496" cy="-225.092" rx="19.1842" ry="19.1842"/>
<text text-anchor="middle" x="496" y="-223.892" font-family="Times,serif" font-size="4.00">SERPINF2</text>
</g>
<!-- pr_c52365fe&#45;dfe7&#45;4b93&#45;bc1a&#45;64ff84086703 -->
<g id="node26" class="node"><title>pr_c52365fe&#45;dfe7&#45;4b93&#45;bc1a&#45;64ff84086703</title>
<polygon fill="none" stroke="black" points="545,-170 447,-170 447,-72 545,-72 545,-170"/>
<text text-anchor="middle" x="496" y="-119.8" font-family="Times,serif" font-size="4.00">pr_c52365fe&#45;dfe7&#45;4b93&#45;bc1a&#45;64ff84086703</text>
</g>
<!-- SERPINF2&#45;&gt;pr_c52365fe&#45;dfe7&#45;4b93&#45;bc1a&#45;64ff84086703 -->
<g id="edge34" class="edge"><title>SERPINF2&#45;&gt;pr_c52365fe&#45;dfe7&#45;4b93&#45;bc1a&#45;64ff84086703</title>
<path fill="none" stroke="black" d="M496,-205.84C496,-198.511 496,-189.618 496,-180.399"/>
<polygon fill="black" stroke="black" points="499.5,-180.325 496,-170.325 492.5,-180.325 499.5,-180.325"/>
</g>
<!-- pr_9b763303&#45;7577&#45;42d2&#45;9451&#45;8c87578d808f -->
<g id="node51" class="node"><title>pr_9b763303&#45;7577&#45;42d2&#45;9451&#45;8c87578d808f</title>
<polygon fill="none" stroke="black" points="546,-380.184 446,-380.184 446,-280.184 546,-280.184 546,-380.184"/>
<text text-anchor="middle" x="496" y="-328.984" font-family="Times,serif" font-size="4.00">pr_9b763303&#45;7577&#45;42d2&#45;9451&#45;8c87578d808f</text>
</g>
<!-- SERPINF2&#45;&gt;pr_9b763303&#45;7577&#45;42d2&#45;9451&#45;8c87578d808f -->
<g id="edge35" class="edge"><title>SERPINF2&#45;&gt;pr_9b763303&#45;7577&#45;42d2&#45;9451&#45;8c87578d808f</title>
<path fill="none" stroke="black" d="M501.219,-243.595C502.026,-251.101 502.514,-260.349 502.683,-269.962"/>
<polygon fill="black" stroke="black" points="499.184,-270.074 502.743,-280.053 506.183,-270.032 499.184,-270.074"/>
</g>
<!-- IFNB1 -->
<g id="node27" class="node"><title>IFNB1</title>
<ellipse fill="none" stroke="black" cx="496" cy="-18" rx="18" ry="18"/>
<text text-anchor="middle" x="496" y="-16.8" font-family="Times,serif" font-size="4.00">IFNB1</text>
</g>
<!-- pr_c52365fe&#45;dfe7&#45;4b93&#45;bc1a&#45;64ff84086703&#45;&gt;IFNB1 -->
<g id="edge36" class="edge"><title>pr_c52365fe&#45;dfe7&#45;4b93&#45;bc1a&#45;64ff84086703&#45;&gt;IFNB1</title>
<path fill="none" stroke="black" d="M496,-71.8664C496,-63.064 496,-54.1654 496,-46.2437"/>
<polygon fill="black" stroke="black" points="499.5,-46.1475 496,-36.1476 492.5,-46.1476 499.5,-46.1475"/>
</g>
<!-- pr_9d5c5504&#45;17c6&#45;4c15&#45;9684&#45;8b17d8ba444f&#45;&gt;Pro_IL1b -->
<g id="edge37" class="edge"><title>pr_9d5c5504&#45;17c6&#45;4c15&#45;9684&#45;8b17d8ba444f&#45;&gt;Pro_IL1b</title>
<path fill="none" stroke="black" d="M123.726,-739.674C124.081,-682.944 130.389,-588.033 164,-514.763 172.554,-496.116 188.071,-478.808 200.904,-466.557"/>
<polygon fill="black" stroke="black" points="203.464,-468.957 208.461,-459.615 198.728,-463.802 203.464,-468.957"/>
</g>
<!-- TLR3 -->
<g id="node29" class="node"><title>TLR3</title>
<ellipse fill="none" stroke="black" cx="731" cy="-1121.51" rx="18" ry="18"/>
<text text-anchor="middle" x="731" y="-1120.31" font-family="Times,serif" font-size="4.00">TLR3</text>
</g>
<!-- pr_73c60b51&#45;4d56&#45;4001&#45;9b1b&#45;dacf66e69c6c -->
<g id="node30" class="node"><title>pr_73c60b51&#45;4d56&#45;4001&#45;9b1b&#45;dacf66e69c6c</title>
<polygon fill="none" stroke="black" points="799,-1064.83 699,-1064.83 699,-964.829 799,-964.829 799,-1064.83"/>
<text text-anchor="middle" x="749" y="-1013.63" font-family="Times,serif" font-size="4.00">pr_73c60b51&#45;4d56&#45;4001&#45;9b1b&#45;dacf66e69c6c</text>
</g>
<!-- TLR3&#45;&gt;pr_73c60b51&#45;4d56&#45;4001&#45;9b1b&#45;dacf66e69c6c -->
<g id="edge38" class="edge"><title>TLR3&#45;&gt;pr_73c60b51&#45;4d56&#45;4001&#45;9b1b&#45;dacf66e69c6c</title>
<path fill="none" stroke="black" d="M728.806,-1103.23C729.306,-1095.3 730.499,-1085.4 732.106,-1075.13"/>
<polygon fill="black" stroke="black" points="735.565,-1075.67 733.765,-1065.23 728.661,-1074.51 735.565,-1075.67"/>
</g>
<!-- pr_6963597e&#45;af33&#45;4679&#45;b559&#45;b4638fc05fc6 -->
<g id="node33" class="node"><title>pr_6963597e&#45;af33&#45;4679&#45;b559&#45;b4638fc05fc6</title>
<polygon fill="none" stroke="black" points="643,-1063.83 545,-1063.83 545,-965.829 643,-965.829 643,-1063.83"/>
<text text-anchor="middle" x="594" y="-1013.63" font-family="Times,serif" font-size="4.00">pr_6963597e&#45;af33&#45;4679&#45;b559&#45;b4638fc05fc6</text>
</g>
<!-- TLR3&#45;&gt;pr_6963597e&#45;af33&#45;4679&#45;b559&#45;b4638fc05fc6 -->
<g id="edge39" class="edge"><title>TLR3&#45;&gt;pr_6963597e&#45;af33&#45;4679&#45;b559&#45;b4638fc05fc6</title>
<path fill="none" stroke="black" d="M717.11,-1109.9C701.586,-1098.04 675.444,-1078.06 651.233,-1059.56"/>
<polygon fill="black" stroke="black" points="653.185,-1056.65 643.114,-1053.36 648.935,-1062.21 653.185,-1056.65"/>
</g>
<!-- pr_73c60b51&#45;4d56&#45;4001&#45;9b1b&#45;dacf66e69c6c&#45;&gt;TLR3 -->
<g id="edge40" class="edge"><title>pr_73c60b51&#45;4d56&#45;4001&#45;9b1b&#45;dacf66e69c6c&#45;&gt;TLR3</title>
<path fill="none" stroke="black" d="M747.29,-1064.96C745.567,-1075.41 743.454,-1086.03 741.24,-1095.15"/>
<polygon fill="black" stroke="black" points="737.792,-1094.5 738.611,-1105.07 744.558,-1096.3 737.792,-1094.5"/>
</g>
<!-- dsRNA -->
<g id="node31" class="node"><title>dsRNA</title>
<ellipse fill="none" stroke="black" cx="785" cy="-1121.51" rx="18" ry="18"/>
<text text-anchor="middle" x="785" y="-1120.31" font-family="Times,serif" font-size="4.00">dsRNA</text>
</g>
<!-- dsRNA&#45;&gt;pr_73c60b51&#45;4d56&#45;4001&#45;9b1b&#45;dacf66e69c6c -->
<g id="edge41" class="edge"><title>dsRNA&#45;&gt;pr_73c60b51&#45;4d56&#45;4001&#45;9b1b&#45;dacf66e69c6c</title>
<path fill="none" stroke="black" d="M779.375,-1104.15C776.561,-1095.97 772.964,-1085.51 769.238,-1074.68"/>
<polygon fill="black" stroke="black" points="772.508,-1073.42 765.946,-1065.1 765.888,-1075.7 772.508,-1073.42"/>
</g>
<!-- TICAM1 -->
<g id="node32" class="node"><title>TICAM1</title>
<ellipse fill="none" stroke="black" cx="594" cy="-1121.51" rx="18" ry="18"/>
<text text-anchor="middle" x="594" y="-1120.31" font-family="Times,serif" font-size="4.00">TICAM1</text>
</g>
<!-- TICAM1&#45;&gt;pr_6963597e&#45;af33&#45;4679&#45;b559&#45;b4638fc05fc6 -->
<g id="edge42" class="edge"><title>TICAM1&#45;&gt;pr_6963597e&#45;af33&#45;4679&#45;b559&#45;b4638fc05fc6</title>
<path fill="none" stroke="black" d="M588.938,-1104.15C587.989,-1095.88 587.44,-1085.27 587.291,-1074.31"/>
<polygon fill="black" stroke="black" points="590.791,-1074.18 587.267,-1064.19 583.791,-1074.19 590.791,-1074.18"/>
</g>
<!-- TICAM1&#45;&gt;pr_5ed7ac80&#45;bd8f&#45;4c73&#45;87d8&#45;684df01f1d0d -->
<g id="edge43" class="edge"><title>TICAM1&#45;&gt;pr_5ed7ac80&#45;bd8f&#45;4c73&#45;87d8&#45;684df01f1d0d</title>
<path fill="none" stroke="black" d="M581.143,-1108.91C569.684,-1098.57 552.074,-1082.68 534.629,-1066.93"/>
<polygon fill="black" stroke="black" points="536.95,-1064.31 527.181,-1060.21 532.26,-1069.51 536.95,-1064.31"/>
</g>
<!-- pr_6963597e&#45;af33&#45;4679&#45;b559&#45;b4638fc05fc6&#45;&gt;TICAM1 -->
<g id="edge44" class="edge"><title>pr_6963597e&#45;af33&#45;4679&#45;b559&#45;b4638fc05fc6&#45;&gt;TICAM1</title>
<path fill="none" stroke="black" d="M600.733,-1064.19C600.823,-1074.52 600.561,-1085.06 599.946,-1094.19"/>
<polygon fill="black" stroke="black" points="596.459,-1093.88 599.062,-1104.15 603.432,-1094.5 596.459,-1093.88"/>
</g>
<!-- TRIM38 -->
<g id="node34" class="node"><title>TRIM38</title>
<ellipse fill="none" stroke="black" cx="659" cy="-1121.51" rx="18" ry="18"/>
<text text-anchor="middle" x="659" y="-1120.31" font-family="Times,serif" font-size="4.00">TRIM38</text>
</g>
<!-- TRIM38&#45;&gt;pr_6963597e&#45;af33&#45;4679&#45;b559&#45;b4638fc05fc6 -->
<g id="edge45" class="edge"><title>TRIM38&#45;&gt;pr_6963597e&#45;af33&#45;4679&#45;b559&#45;b4638fc05fc6</title>
<path fill="none" stroke="black" d="M649.687,-1105.51C644.207,-1096.69 636.892,-1084.91 629.37,-1072.79"/>
<polygon fill="black" stroke="black" points="632.128,-1070.6 623.88,-1063.95 626.181,-1074.29 632.128,-1070.6"/>
</g>
<!-- TRIM38&#45;&gt;pr_5b3f8c9f&#45;fa61&#45;4c37&#45;b0d2&#45;ca3df6ac8a98 -->
<g id="edge46" class="edge"><title>TRIM38&#45;&gt;pr_5b3f8c9f&#45;fa61&#45;4c37&#45;b0d2&#45;ca3df6ac8a98</title>
<path fill="none" stroke="black" d="M660.594,-1103.35C663.858,-1066.68 671,-977.9 671,-903.312 671,-903.312 671,-903.312 671,-788.796 671,-731.208 652.664,-667.87 636.611,-623.453"/>
<polygon fill="black" stroke="black" points="639.866,-622.163 633.123,-613.992 633.298,-624.585 639.866,-622.163"/>
</g>
<!-- pr_c4ba815c&#45;d45a&#45;4c8b&#45;8cd8&#45;4df23bde983f&#45;&gt;TRIM59 -->
<g id="edge47" class="edge"><title>pr_c4ba815c&#45;d45a&#45;4c8b&#45;8cd8&#45;4df23bde983f&#45;&gt;TRIM59</title>
<path fill="none" stroke="black" d="M354.291,-965.033C354.137,-953.016 354.414,-940.586 355.122,-930.058"/>
<polygon fill="black" stroke="black" points="358.628,-930.14 356.016,-919.873 351.655,-929.528 358.628,-930.14"/>
</g>
<!-- TLR7/8/9 -->
<g id="node36" class="node"><title>TLR7/8/9</title>
<ellipse fill="none" stroke="black" cx="817" cy="-677.279" rx="18.0625" ry="18.0625"/>
<text text-anchor="middle" x="817" y="-676.079" font-family="Times,serif" font-size="4.00">TLR7/8/9</text>
</g>
<!-- pr_73a5ba0b&#45;634b&#45;4f3b&#45;a1bf&#45;8cd2188b9d70 -->
<g id="node37" class="node"><title>pr_73a5ba0b&#45;634b&#45;4f3b&#45;a1bf&#45;8cd2188b9d70</title>
<polygon fill="none" stroke="black" points="893.5,-614.263 794.5,-614.263 794.5,-515.263 893.5,-515.263 893.5,-614.263"/>
<text text-anchor="middle" x="844" y="-563.563" font-family="Times,serif" font-size="4.00">pr_73a5ba0b&#45;634b&#45;4f3b&#45;a1bf&#45;8cd2188b9d70</text>
</g>
<!-- TLR7/8/9&#45;&gt;pr_73a5ba0b&#45;634b&#45;4f3b&#45;a1bf&#45;8cd2188b9d70 -->
<g id="edge48" class="edge"><title>TLR7/8/9&#45;&gt;pr_73a5ba0b&#45;634b&#45;4f3b&#45;a1bf&#45;8cd2188b9d70</title>
<path fill="none" stroke="black" d="M816.156,-659.011C817.456,-649.432 819.958,-636.902 822.996,-624.149"/>
<polygon fill="black" stroke="black" points="826.404,-624.946 825.411,-614.398 819.609,-623.262 826.404,-624.946"/>
</g>
<!-- pr_f1ac09af&#45;3f2d&#45;4ffa&#45;8d96&#45;d7ba422a6170 -->
<g id="node40" class="node"><title>pr_f1ac09af&#45;3f2d&#45;4ffa&#45;8d96&#45;d7ba422a6170</title>
<polygon fill="none" stroke="black" points="776.5,-613.263 679.5,-613.263 679.5,-516.263 776.5,-516.263 776.5,-613.263"/>
<text text-anchor="middle" x="728" y="-563.563" font-family="Times,serif" font-size="4.00">pr_f1ac09af&#45;3f2d&#45;4ffa&#45;8d96&#45;d7ba422a6170</text>
</g>
<!-- TLR7/8/9&#45;&gt;pr_f1ac09af&#45;3f2d&#45;4ffa&#45;8d96&#45;d7ba422a6170 -->
<g id="edge49" class="edge"><title>TLR7/8/9&#45;&gt;pr_f1ac09af&#45;3f2d&#45;4ffa&#45;8d96&#45;d7ba422a6170</title>
<path fill="none" stroke="black" d="M806.087,-662.728C797.589,-652.175 785.183,-636.77 772.751,-621.333"/>
<polygon fill="black" stroke="black" points="775.267,-618.876 766.269,-613.283 769.815,-623.267 775.267,-618.876"/>
</g>
<!-- pr_73a5ba0b&#45;634b&#45;4f3b&#45;a1bf&#45;8cd2188b9d70&#45;&gt;TLR7/8/9 -->
<g id="edge50" class="edge"><title>pr_73a5ba0b&#45;634b&#45;4f3b&#45;a1bf&#45;8cd2188b9d70&#45;&gt;TLR7/8/9</title>
<path fill="none" stroke="black" d="M838.802,-614.498C835.864,-627.193 832.332,-640.354 828.872,-651.249"/>
<polygon fill="black" stroke="black" points="825.492,-650.318 825.599,-660.912 832.122,-652.564 825.492,-650.318"/>
</g>
<!-- ssRNA -->
<g id="node38" class="node"><title>ssRNA</title>
<ellipse fill="none" stroke="black" cx="871" cy="-677.279" rx="18" ry="18"/>
<text text-anchor="middle" x="871" y="-676.079" font-family="Times,serif" font-size="4.00">ssRNA</text>
</g>
<!-- ssRNA&#45;&gt;pr_73a5ba0b&#45;634b&#45;4f3b&#45;a1bf&#45;8cd2188b9d70 -->
<g id="edge51" class="edge"><title>ssRNA&#45;&gt;pr_73a5ba0b&#45;634b&#45;4f3b&#45;a1bf&#45;8cd2188b9d70</title>
<path fill="none" stroke="black" d="M866.899,-659.494C864.548,-649.87 861.442,-637.156 858.278,-624.207"/>
<polygon fill="black" stroke="black" points="861.633,-623.191 855.86,-614.307 854.833,-624.852 861.633,-623.191"/>
</g>
<!-- MYD88 -->
<g id="node39" class="node"><title>MYD88</title>
<ellipse fill="none" stroke="black" cx="728" cy="-677.279" rx="18" ry="18"/>
<text text-anchor="middle" x="728" y="-676.079" font-family="Times,serif" font-size="4.00">MYD88</text>
</g>
<!-- MYD88&#45;&gt;pr_f1ac09af&#45;3f2d&#45;4ffa&#45;8d96&#45;d7ba422a6170 -->
<g id="edge52" class="edge"><title>MYD88&#45;&gt;pr_f1ac09af&#45;3f2d&#45;4ffa&#45;8d96&#45;d7ba422a6170</title>
<path fill="none" stroke="black" d="M723.045,-659.972C721.928,-650.211 721.332,-637.152 721.258,-623.872"/>
<polygon fill="black" stroke="black" points="724.759,-623.74 721.303,-613.725 717.759,-623.709 724.759,-623.74"/>
</g>
<!-- MYD88&#45;&gt;pr_5b3f8c9f&#45;fa61&#45;4c37&#45;b0d2&#45;ca3df6ac8a98 -->
<g id="edge53" class="edge"><title>MYD88&#45;&gt;pr_5b3f8c9f&#45;fa61&#45;4c37&#45;b0d2&#45;ca3df6ac8a98</title>
<path fill="none" stroke="black" d="M715.254,-664.03C703.945,-653.162 686.593,-636.486 669.375,-619.94"/>
<polygon fill="black" stroke="black" points="671.657,-617.279 662.022,-612.873 666.807,-622.326 671.657,-617.279"/>
</g>
<!-- pr_f1ac09af&#45;3f2d&#45;4ffa&#45;8d96&#45;d7ba422a6170&#45;&gt;MYD88 -->
<g id="edge54" class="edge"><title>pr_f1ac09af&#45;3f2d&#45;4ffa&#45;8d96&#45;d7ba422a6170&#45;&gt;MYD88</title>
<path fill="none" stroke="black" d="M734.697,-613.725C734.877,-626.141 734.596,-639.057 733.852,-649.907"/>
<polygon fill="black" stroke="black" points="730.357,-649.701 732.955,-659.972 737.329,-650.322 730.357,-649.701"/>
</g>
<!-- pr_5b3f8c9f&#45;fa61&#45;4c37&#45;b0d2&#45;ca3df6ac8a98&#45;&gt;TRAF6 -->
<g id="edge55" class="edge"><title>pr_5b3f8c9f&#45;fa61&#45;4c37&#45;b0d2&#45;ca3df6ac8a98&#45;&gt;TRAF6</title>
<path fill="none" stroke="black" d="M596.234,-613.785C589.631,-627.708 582.143,-642.255 575.538,-653.808"/>
<polygon fill="black" stroke="black" points="572.336,-652.343 570.236,-662.728 578.354,-655.92 572.336,-652.343"/>
</g>
<!-- TRIM23 -->
<g id="node42" class="node"><title>TRIM23</title>
<ellipse fill="none" stroke="black" cx="613" cy="-677.279" rx="18" ry="18"/>
<text text-anchor="middle" x="613" y="-676.079" font-family="Times,serif" font-size="4.00">TRIM23</text>
</g>
<!-- TRIM23&#45;&gt;pr_5b3f8c9f&#45;fa61&#45;4c37&#45;b0d2&#45;ca3df6ac8a98 -->
<g id="edge56" class="edge"><title>TRIM23&#45;&gt;pr_5b3f8c9f&#45;fa61&#45;4c37&#45;b0d2&#45;ca3df6ac8a98</title>
<path fill="none" stroke="black" d="M613,-659.011C613,-649.43 613,-636.897 613,-624.141"/>
<polygon fill="black" stroke="black" points="616.5,-623.915 613,-613.915 609.5,-623.915 616.5,-623.915"/>
</g>
<!-- TAB2/TAB3/TAK1 -->
<g id="node43" class="node"><title>TAB2/TAB3/TAK1</title>
<ellipse fill="none" stroke="black" cx="496" cy="-447.473" rx="27.0938" ry="27.0938"/>
<text text-anchor="middle" x="496" y="-446.273" font-family="Times,serif" font-size="4.00">TAB2/TAB3/TAK1</text>
</g>
<!-- TAB2/TAB3/TAK1&#45;&gt;pr_d5e541db&#45;bae4&#45;40f7&#45;9e69&#45;ccea00db3290 -->
<g id="edge57" class="edge"><title>TAB2/TAB3/TAK1&#45;&gt;pr_d5e541db&#45;bae4&#45;40f7&#45;9e69&#45;ccea00db3290</title>
<path fill="none" stroke="black" d="M501.717,-474.022C502.369,-483.065 502.713,-493.654 502.747,-504.326"/>
<polygon fill="black" stroke="black" points="499.246,-504.514 502.686,-514.535 506.246,-504.556 499.246,-504.514"/>
</g>
<!-- TAB2/TAB3/TAK1&#45;&gt;pr_6d7197bc&#45;d1c2&#45;4f45&#45;b1f7&#45;c9d7fc2b4803 -->
<g id="edge58" class="edge"><title>TAB2/TAB3/TAK1&#45;&gt;pr_6d7197bc&#45;d1c2&#45;4f45&#45;b1f7&#45;c9d7fc2b4803</title>
<path fill="none" stroke="black" d="M516.485,-429.162C521.79,-424.829 527.546,-420.258 533,-416.184 554.624,-400.031 579.048,-383.137 600.532,-368.706"/>
<polygon fill="black" stroke="black" points="602.553,-371.565 608.919,-363.096 598.661,-365.746 602.553,-371.565"/>
</g>
<!-- TAB2/TAB3/TAK1&#45;&gt;pr_9b763303&#45;7577&#45;42d2&#45;9451&#45;8c87578d808f -->
<g id="edge59" class="edge"><title>TAB2/TAB3/TAK1&#45;&gt;pr_9b763303&#45;7577&#45;42d2&#45;9451&#45;8c87578d808f</title>
<path fill="none" stroke="black" d="M496,-420.312C496,-411.351 496,-400.925 496,-390.428"/>
<polygon fill="black" stroke="black" points="499.5,-390.388 496,-380.388 492.5,-390.388 499.5,-390.388"/>
</g>
<!-- pr_d5e541db&#45;bae4&#45;40f7&#45;9e69&#45;ccea00db3290&#45;&gt;TAB2/TAB3/TAK1 -->
<g id="edge60" class="edge"><title>pr_d5e541db&#45;bae4&#45;40f7&#45;9e69&#45;ccea00db3290&#45;&gt;TAB2/TAB3/TAK1</title>
<path fill="none" stroke="black" d="M489.314,-514.535C489.157,-504.288 489.289,-493.678 489.711,-484.038"/>
<polygon fill="black" stroke="black" points="493.207,-484.205 490.283,-474.022 486.218,-483.806 493.207,-484.205"/>
</g>
<!-- TRIM30a/TRIM38 -->
<g id="node45" class="node"><title>TRIM30a/TRIM38</title>
<ellipse fill="none" stroke="black" cx="496" cy="-677.279" rx="26.533" ry="26.533"/>
<text text-anchor="middle" x="496" y="-676.079" font-family="Times,serif" font-size="4.00">TRIM30a/TRIM38</text>
</g>
<!-- TRIM30a/TRIM38&#45;&gt;pr_d5e541db&#45;bae4&#45;40f7&#45;9e69&#45;ccea00db3290 -->
<g id="edge61" class="edge"><title>TRIM30a/TRIM38&#45;&gt;pr_d5e541db&#45;bae4&#45;40f7&#45;9e69&#45;ccea00db3290</title>
<path fill="none" stroke="black" d="M496,-650.647C496,-642.956 496,-634.178 496,-625.253"/>
<polygon fill="black" stroke="black" points="499.5,-625.162 496,-615.162 492.5,-625.162 499.5,-625.162"/>
</g>
<!-- TRIM22 -->
<g id="node47" class="node"><title>TRIM22</title>
<ellipse fill="none" stroke="black" cx="750" cy="-447.473" rx="18" ry="18"/>
<text text-anchor="middle" x="750" y="-446.273" font-family="Times,serif" font-size="4.00">TRIM22</text>
</g>
<!-- TRIM22&#45;&gt;pr_6d7197bc&#45;d1c2&#45;4f45&#45;b1f7&#45;c9d7fc2b4803 -->
<g id="edge62" class="edge"><title>TRIM22&#45;&gt;pr_6d7197bc&#45;d1c2&#45;4f45&#45;b1f7&#45;c9d7fc2b4803</title>
<path fill="none" stroke="black" d="M739.085,-432.795C730.004,-421.416 716.433,-404.409 702.978,-387.547"/>
<polygon fill="black" stroke="black" points="705.375,-384.94 696.402,-379.307 699.904,-389.307 705.375,-384.94"/>
</g>
<!-- TRIM27/TRIM21 -->
<g id="node48" class="node"><title>TRIM27/TRIM21</title>
<ellipse fill="none" stroke="black" cx="567" cy="-447.473" rx="25.4118" ry="25.4118"/>
<text text-anchor="middle" x="567" y="-446.273" font-family="Times,serif" font-size="4.00">TRIM27/TRIM21</text>
</g>
<!-- TRIM27/TRIM21&#45;&gt;pr_6d7197bc&#45;d1c2&#45;4f45&#45;b1f7&#45;c9d7fc2b4803 -->
<g id="edge63" class="edge"><title>TRIM27/TRIM21&#45;&gt;pr_6d7197bc&#45;d1c2&#45;4f45&#45;b1f7&#45;c9d7fc2b4803</title>
<path fill="none" stroke="black" d="M582.437,-426.916C591.165,-415.858 602.565,-401.416 613.853,-387.114"/>
<polygon fill="black" stroke="black" points="616.647,-389.224 620.096,-379.206 611.153,-384.887 616.647,-389.224"/>
</g>
<!-- TRIM29 -->
<g id="node49" class="node"><title>TRIM29</title>
<ellipse fill="none" stroke="black" cx="628" cy="-447.473" rx="18" ry="18"/>
<text text-anchor="middle" x="628" y="-446.273" font-family="Times,serif" font-size="4.00">TRIM29</text>
</g>
<!-- TRIM29&#45;&gt;pr_6d7197bc&#45;d1c2&#45;4f45&#45;b1f7&#45;c9d7fc2b4803 -->
<g id="edge64" class="edge"><title>TRIM29&#45;&gt;pr_6d7197bc&#45;d1c2&#45;4f45&#45;b1f7&#45;c9d7fc2b4803</title>
<path fill="none" stroke="black" d="M632.298,-429.955C635.129,-419.076 639.021,-404.119 642.92,-389.135"/>
<polygon fill="black" stroke="black" points="646.341,-389.886 645.472,-379.327 639.567,-388.123 646.341,-389.886"/>
</g>
<!-- TRIM14/TRIM23 -->
<g id="node50" class="node"><title>TRIM14/TRIM23</title>
<ellipse fill="none" stroke="black" cx="689" cy="-447.473" rx="25.4118" ry="25.4118"/>
<text text-anchor="middle" x="689" y="-446.273" font-family="Times,serif" font-size="4.00">TRIM14/TRIM23</text>
</g>
<!-- TRIM14/TRIM23&#45;&gt;pr_6d7197bc&#45;d1c2&#45;4f45&#45;b1f7&#45;c9d7fc2b4803 -->
<g id="edge65" class="edge"><title>TRIM14/TRIM23&#45;&gt;pr_6d7197bc&#45;d1c2&#45;4f45&#45;b1f7&#45;c9d7fc2b4803</title>
<path fill="none" stroke="black" d="M682.577,-422.585C679.944,-412.795 676.773,-400.999 673.595,-389.183"/>
<polygon fill="black" stroke="black" points="676.914,-388.045 670.937,-379.297 670.154,-389.863 676.914,-388.045"/>
</g>
<!-- pr_9b763303&#45;7577&#45;42d2&#45;9451&#45;8c87578d808f&#45;&gt;SERPINF2 -->
<g id="edge66" class="edge"><title>pr_9b763303&#45;7577&#45;42d2&#45;9451&#45;8c87578d808f&#45;&gt;SERPINF2</title>
<path fill="none" stroke="black" d="M489.257,-280.053C489.207,-270.966 489.438,-261.779 489.948,-253.625"/>
<polygon fill="black" stroke="black" points="493.442,-253.85 490.781,-243.595 486.466,-253.271 493.442,-253.85"/>
</g>
<!-- pr_5ed7ac80&#45;bd8f&#45;4c73&#45;87d8&#45;684df01f1d0d&#45;&gt;TRAF3 -->
<g id="edge67" class="edge"><title>pr_5ed7ac80&#45;bd8f&#45;4c73&#45;87d8&#45;684df01f1d0d&#45;&gt;TRAF3</title>
<path fill="none" stroke="black" d="M484.733,-1064.19C484.823,-1074.52 484.561,-1085.06 483.946,-1094.19"/>
<polygon fill="black" stroke="black" points="480.459,-1093.88 483.062,-1104.15 487.432,-1094.5 480.459,-1093.88"/>
</g>
<!-- NFKB1 -->
<g id="node54" class="node"><title>NFKB1</title>
<ellipse fill="none" stroke="black" cx="846" cy="-18" rx="18" ry="18"/>
<text text-anchor="middle" x="846" y="-16.8" font-family="Times,serif" font-size="4.00">NFKB1</text>
</g>
<!-- pr_f3846dea&#45;320f&#45;477b&#45;9cf8&#45;b00ad8b71ecc&#45;&gt;NFKB1 -->
<g id="edge68" class="edge"><title>pr_f3846dea&#45;320f&#45;477b&#45;9cf8&#45;b00ad8b71ecc&#45;&gt;NFKB1</title>
<path fill="none" stroke="black" d="M846,-71.8664C846,-63.064 846,-54.1654 846,-46.2437"/>
<polygon fill="black" stroke="black" points="849.5,-46.1475 846,-36.1476 842.5,-46.1476 849.5,-46.1475"/>
</g>
</g>
</svg>
