<?xml version="1.0" encoding="UTF-8" standalone="no"?>
<!DOCTYPE svg PUBLIC "-//W3C//DTD SVG 1.1//EN"
 "http://www.w3.org/Graphics/SVG/1.1/DTD/svg11.dtd">
<!-- Generated by graphviz version 2.38.0 (20140413.2041)
 -->
<!-- Title: G Pages: 1 -->
<svg width="930pt" height="265pt"
 viewBox="0.00 0.00 929.50 264.73" xmlns="http://www.w3.org/2000/svg" xmlns:xlink="http://www.w3.org/1999/xlink">
<g id="graph0" class="graph" transform="scale(1 1) rotate(0) translate(4 260.73)">
<title>G</title>
<polygon fill="white" stroke="none" points="-4,4 -4,-260.73 925.5,-260.73 925.5,4 -4,4"/>
<!-- IFNB1 -->
<g id="node1" class="node"><title>IFNB1</title>
<ellipse fill="none" stroke="black" cx="108.5" cy="-238.73" rx="18" ry="18"/>
<text text-anchor="middle" x="108.5" y="-237.53" font-family="Times,serif" font-size="4.00">IFNB1</text>
</g>
<!-- pr_aa940a7a&#45;bac0&#45;4fe8&#45;bfcb&#45;53a287618633 -->
<g id="node2" class="node"><title>pr_aa940a7a&#45;bac0&#45;4fe8&#45;bfcb&#45;53a287618633</title>
<polygon fill="none" stroke="black" points="99,-183.73 0,-183.73 0,-84.7297 99,-84.7297 99,-183.73"/>
<text text-anchor="middle" x="49.5" y="-133.03" font-family="Times,serif" font-size="4.00">pr_aa940a7a&#45;bac0&#45;4fe8&#45;bfcb&#45;53a287618633</text>
</g>
<!-- IFNB1&#45;&gt;pr_aa940a7a&#45;bac0&#45;4fe8&#45;bfcb&#45;53a287618633 -->
<g id="edge1" class="edge"><title>IFNB1&#45;&gt;pr_aa940a7a&#45;bac0&#45;4fe8&#45;bfcb&#45;53a287618633</title>
<path fill="none" stroke="black" d="M96.6512,-225.161C90.5797,-216.73 83.1073,-204.959 75.8788,-192.707"/>
<polygon fill="black" stroke="black" points="78.7248,-190.637 70.682,-183.741 72.6686,-194.148 78.7248,-190.637"/>
</g>
<!-- pr_bed5a123&#45;9fd1&#45;4fbc&#45;b8e8&#45;c9a351ec83e6 -->
<g id="node3" class="node"><title>pr_bed5a123&#45;9fd1&#45;4fbc&#45;b8e8&#45;c9a351ec83e6</title>
<polygon fill="none" stroke="black" points="216,-183.73 117,-183.73 117,-84.7297 216,-84.7297 216,-183.73"/>
<text text-anchor="middle" x="166.5" y="-133.03" font-family="Times,serif" font-size="4.00">pr_bed5a123&#45;9fd1&#45;4fbc&#45;b8e8&#45;c9a351ec83e6</text>
</g>
<!-- IFNB1&#45;&gt;pr_bed5a123&#45;9fd1&#45;4fbc&#45;b8e8&#45;c9a351ec83e6 -->
<g id="edge2" class="edge"><title>IFNB1&#45;&gt;pr_bed5a123&#45;9fd1&#45;4fbc&#45;b8e8&#45;c9a351ec83e6</title>
<path fill="none" stroke="black" d="M112.911,-220.804C116.471,-212.976 121.508,-203.17 127.1,-193.017"/>
<polygon fill="black" stroke="black" points="130.293,-194.479 132.134,-184.045 124.188,-191.053 130.293,-194.479"/>
</g>
<!-- pr_aa940a7a&#45;bac0&#45;4fe8&#45;bfcb&#45;53a287618633&#45;&gt;IFNB1 -->
<g id="edge3" class="edge"><title>pr_aa940a7a&#45;bac0&#45;4fe8&#45;bfcb&#45;53a287618633&#45;&gt;IFNB1</title>
<path fill="none" stroke="black" d="M84.3093,-183.989C89.981,-193.746 95.3952,-203.623 99.7353,-212.202"/>
<polygon fill="black" stroke="black" points="96.618,-213.795 104.135,-221.261 102.915,-210.737 96.618,-213.795"/>
</g>
<!-- pr_bed5a123&#45;9fd1&#45;4fbc&#45;b8e8&#45;c9a351ec83e6&#45;&gt;IFNB1 -->
<g id="edge4" class="edge"><title>pr_bed5a123&#45;9fd1&#45;4fbc&#45;b8e8&#45;c9a351ec83e6&#45;&gt;IFNB1</title>
<path fill="none" stroke="black" d="M145.738,-183.837C139.341,-195.263 132.397,-206.864 126.195,-216.361"/>
<polygon fill="black" stroke="black" points="123.226,-214.505 120.519,-224.748 129.023,-218.429 123.226,-214.505"/>
</g>
<!-- STOML2 -->
<g id="node4" class="node"><title>STOML2</title>
<ellipse fill="none" stroke="black" cx="517.5" cy="-238.73" rx="18" ry="18"/>
<text text-anchor="middle" x="517.5" y="-237.53" font-family="Times,serif" font-size="4.00">STOML2</text>
</g>
<!-- pr_c5d1e943&#45;c4f4&#45;4b2e&#45;9b7f&#45;5c8aca195bbb -->
<g id="node5" class="node"><title>pr_c5d1e943&#45;c4f4&#45;4b2e&#45;9b7f&#45;5c8aca195bbb</title>
<polygon fill="none" stroke="black" points="333,-183.73 234,-183.73 234,-84.7297 333,-84.7297 333,-183.73"/>
<text text-anchor="middle" x="283.5" y="-133.03" font-family="Times,serif" font-size="4.00">pr_c5d1e943&#45;c4f4&#45;4b2e&#45;9b7f&#45;5c8aca195bbb</text>
</g>
<!-- STOML2&#45;&gt;pr_c5d1e943&#45;c4f4&#45;4b2e&#45;9b7f&#45;5c8aca195bbb -->
<g id="edge5" class="edge"><title>STOML2&#45;&gt;pr_c5d1e943&#45;c4f4&#45;4b2e&#45;9b7f&#45;5c8aca195bbb</title>
<path fill="none" stroke="black" d="M500.283,-232.718C457.569,-220.259 349.654,-188.602 342.5,-184.73 342.202,-184.569 341.905,-184.406 341.607,-184.242"/>
<polygon fill="black" stroke="black" points="343.417,-181.246 333.048,-179.069 339.797,-187.237 343.417,-181.246"/>
</g>
<!-- pr_052bf92b&#45;234b&#45;4c96&#45;a91e&#45;c3df4bc361f2 -->
<g id="node9" class="node"><title>pr_052bf92b&#45;234b&#45;4c96&#45;a91e&#45;c3df4bc361f2</title>
<polygon fill="none" stroke="black" points="449.5,-183.23 351.5,-183.23 351.5,-85.2297 449.5,-85.2297 449.5,-183.23"/>
<text text-anchor="middle" x="400.5" y="-133.03" font-family="Times,serif" font-size="4.00">pr_052bf92b&#45;234b&#45;4c96&#45;a91e&#45;c3df4bc361f2</text>
</g>
<!-- STOML2&#45;&gt;pr_052bf92b&#45;234b&#45;4c96&#45;a91e&#45;c3df4bc361f2 -->
<g id="edge6" class="edge"><title>STOML2&#45;&gt;pr_052bf92b&#45;234b&#45;4c96&#45;a91e&#45;c3df4bc361f2</title>
<path fill="none" stroke="black" d="M504.079,-225.972C492.523,-215.848 475.013,-200.509 457.661,-185.307"/>
<polygon fill="black" stroke="black" points="459.549,-182.308 449.721,-178.351 454.937,-187.573 459.549,-182.308"/>
</g>
<!-- pr_e7a0dbd0&#45;4936&#45;4ea5&#45;833b&#45;3298c8e9c714 -->
<g id="node11" class="node"><title>pr_e7a0dbd0&#45;4936&#45;4ea5&#45;833b&#45;3298c8e9c714</title>
<polygon fill="none" stroke="black" points="803,-184.73 702,-184.73 702,-83.7297 803,-83.7297 803,-184.73"/>
<text text-anchor="middle" x="752.5" y="-133.03" font-family="Times,serif" font-size="4.00">pr_e7a0dbd0&#45;4936&#45;4ea5&#45;833b&#45;3298c8e9c714</text>
</g>
<!-- STOML2&#45;&gt;pr_e7a0dbd0&#45;4936&#45;4ea5&#45;833b&#45;3298c8e9c714 -->
<g id="edge7" class="edge"><title>STOML2&#45;&gt;pr_e7a0dbd0&#45;4936&#45;4ea5&#45;833b&#45;3298c8e9c714</title>
<path fill="none" stroke="black" d="M535.148,-234.863C566.322,-229.308 632.814,-215.24 692.743,-184.599"/>
<polygon fill="black" stroke="black" points="694.711,-187.518 701.915,-179.748 691.439,-181.33 694.711,-187.518"/>
</g>
<!-- pr_b517600b&#45;ec68&#45;451d&#45;8082&#45;460efe3f1225 -->
<g id="node17" class="node"><title>pr_b517600b&#45;ec68&#45;451d&#45;8082&#45;460efe3f1225</title>
<polygon fill="none" stroke="black" points="567,-183.73 468,-183.73 468,-84.7297 567,-84.7297 567,-183.73"/>
<text text-anchor="middle" x="517.5" y="-133.03" font-family="Times,serif" font-size="4.00">pr_b517600b&#45;ec68&#45;451d&#45;8082&#45;460efe3f1225</text>
</g>
<!-- STOML2&#45;&gt;pr_b517600b&#45;ec68&#45;451d&#45;8082&#45;460efe3f1225 -->
<g id="edge8" class="edge"><title>STOML2&#45;&gt;pr_b517600b&#45;ec68&#45;451d&#45;8082&#45;460efe3f1225</title>
<path fill="none" stroke="black" d="M517.5,-220.342C517.5,-212.881 517.5,-203.687 517.5,-194.13"/>
<polygon fill="black" stroke="black" points="521,-194.097 517.5,-184.097 514,-194.097 521,-194.097"/>
</g>
<!-- pr_1c1aef19&#45;2520&#45;4d97&#45;9a2b&#45;40cf3c4a8a53 -->
<g id="node18" class="node"><title>pr_1c1aef19&#45;2520&#45;4d97&#45;9a2b&#45;40cf3c4a8a53</title>
<polygon fill="none" stroke="black" points="684,-183.73 585,-183.73 585,-84.7297 684,-84.7297 684,-183.73"/>
<text text-anchor="middle" x="634.5" y="-133.03" font-family="Times,serif" font-size="4.00">pr_1c1aef19&#45;2520&#45;4d97&#45;9a2b&#45;40cf3c4a8a53</text>
</g>
<!-- STOML2&#45;&gt;pr_1c1aef19&#45;2520&#45;4d97&#45;9a2b&#45;40cf3c4a8a53 -->
<g id="edge9" class="edge"><title>STOML2&#45;&gt;pr_1c1aef19&#45;2520&#45;4d97&#45;9a2b&#45;40cf3c4a8a53</title>
<path fill="none" stroke="black" d="M530.921,-225.972C542.373,-215.939 559.672,-200.785 576.87,-185.717"/>
<polygon fill="black" stroke="black" points="579.528,-188.042 584.744,-178.82 574.915,-182.777 579.528,-188.042"/>
</g>
<!-- MFN2&#45;STOML2 -->
<g id="node7" class="node"><title>MFN2&#45;STOML2</title>
<ellipse fill="none" stroke="black" cx="283.5" cy="-23.8649" rx="23.7305" ry="23.7305"/>
<text text-anchor="middle" x="283.5" y="-22.6649" font-family="Times,serif" font-size="4.00">MFN2&#45;STOML2</text>
</g>
<!-- pr_c5d1e943&#45;c4f4&#45;4b2e&#45;9b7f&#45;5c8aca195bbb&#45;&gt;MFN2&#45;STOML2 -->
<g id="edge10" class="edge"><title>pr_c5d1e943&#45;c4f4&#45;4b2e&#45;9b7f&#45;5c8aca195bbb&#45;&gt;MFN2&#45;STOML2</title>
<path fill="none" stroke="black" d="M283.5,-84.4364C283.5,-75.5095 283.5,-66.3855 283.5,-58.0466"/>
<polygon fill="black" stroke="black" points="287,-57.9778 283.5,-47.9779 280,-57.9779 287,-57.9778"/>
</g>
<!-- MFN2 -->
<g id="node6" class="node"><title>MFN2</title>
<ellipse fill="none" stroke="black" cx="283.5" cy="-238.73" rx="18" ry="18"/>
<text text-anchor="middle" x="283.5" y="-237.53" font-family="Times,serif" font-size="4.00">MFN2</text>
</g>
<!-- MFN2&#45;&gt;pr_c5d1e943&#45;c4f4&#45;4b2e&#45;9b7f&#45;5c8aca195bbb -->
<g id="edge11" class="edge"><title>MFN2&#45;&gt;pr_c5d1e943&#45;c4f4&#45;4b2e&#45;9b7f&#45;5c8aca195bbb</title>
<path fill="none" stroke="black" d="M283.5,-220.342C283.5,-212.881 283.5,-203.687 283.5,-194.13"/>
<polygon fill="black" stroke="black" points="287,-194.097 283.5,-184.097 280,-194.097 287,-194.097"/>
</g>
<!-- Orf3b -->
<g id="node8" class="node"><title>Orf3b</title>
<ellipse fill="none" stroke="black" cx="431.5" cy="-238.73" rx="18" ry="18"/>
<text text-anchor="middle" x="431.5" y="-237.53" font-family="Times,serif" font-size="4.00">Orf3b</text>
</g>
<!-- Orf3b&#45;&gt;pr_052bf92b&#45;234b&#45;4c96&#45;a91e&#45;c3df4bc361f2 -->
<g id="edge12" class="edge"><title>Orf3b&#45;&gt;pr_052bf92b&#45;234b&#45;4c96&#45;a91e&#45;c3df4bc361f2</title>
<path fill="none" stroke="black" d="M426.519,-221.261C424.159,-213.456 421.182,-203.613 418.092,-193.397"/>
<polygon fill="black" stroke="black" points="421.356,-192.1 415.111,-183.542 414.656,-194.127 421.356,-192.1"/>
</g>
<!-- Orf3b&#45;&gt;pr_b517600b&#45;ec68&#45;451d&#45;8082&#45;460efe3f1225 -->
<g id="edge13" class="edge"><title>Orf3b&#45;&gt;pr_b517600b&#45;ec68&#45;451d&#45;8082&#45;460efe3f1225</title>
<path fill="none" stroke="black" d="M442.743,-224.33C449.914,-215.783 459.747,-204.063 469.926,-191.931"/>
<polygon fill="black" stroke="black" points="472.895,-193.839 476.641,-183.928 467.532,-189.339 472.895,-193.839"/>
</g>
<!-- Orf3b&#45;STOML2 -->
<g id="node10" class="node"><title>Orf3b&#45;STOML2</title>
<ellipse fill="none" stroke="black" cx="458.5" cy="-23.8649" rx="23.1702" ry="23.1702"/>
<text text-anchor="middle" x="458.5" y="-22.6649" font-family="Times,serif" font-size="4.00">Orf3b&#45;STOML2</text>
</g>
<!-- pr_052bf92b&#45;234b&#45;4c96&#45;a91e&#45;c3df4bc361f2&#45;&gt;Orf3b&#45;STOML2 -->
<g id="edge14" class="edge"><title>pr_052bf92b&#45;234b&#45;4c96&#45;a91e&#45;c3df4bc361f2&#45;&gt;Orf3b&#45;STOML2</title>
<path fill="none" stroke="black" d="M426.277,-85.0682C431.95,-74.4695 437.789,-63.5596 442.913,-53.9879"/>
<polygon fill="black" stroke="black" points="446.131,-55.3915 447.764,-44.9233 439.959,-52.0882 446.131,-55.3915"/>
</g>
<!-- STOML2&#45;PHB -->
<g id="node13" class="node"><title>STOML2&#45;PHB</title>
<ellipse fill="none" stroke="black" cx="752.5" cy="-23.8649" rx="22.05" ry="22.05"/>
<text text-anchor="middle" x="752.5" y="-22.6649" font-family="Times,serif" font-size="4.00">STOML2&#45;PHB</text>
</g>
<!-- pr_e7a0dbd0&#45;4936&#45;4ea5&#45;833b&#45;3298c8e9c714&#45;&gt;STOML2&#45;PHB -->
<g id="edge15" class="edge"><title>pr_e7a0dbd0&#45;4936&#45;4ea5&#45;833b&#45;3298c8e9c714&#45;&gt;STOML2&#45;PHB</title>
<path fill="none" stroke="black" d="M752.5,-83.4875C752.5,-74.2549 752.5,-64.8491 752.5,-56.3522"/>
<polygon fill="black" stroke="black" points="756,-56.157 752.5,-46.1571 749,-56.1571 756,-56.157"/>
</g>
<!-- PHB -->
<g id="node12" class="node"><title>PHB</title>
<ellipse fill="none" stroke="black" cx="784.5" cy="-238.73" rx="18" ry="18"/>
<text text-anchor="middle" x="784.5" y="-237.53" font-family="Times,serif" font-size="4.00">PHB</text>
</g>
<!-- PHB&#45;&gt;pr_e7a0dbd0&#45;4936&#45;4ea5&#45;833b&#45;3298c8e9c714 -->
<g id="edge16" class="edge"><title>PHB&#45;&gt;pr_e7a0dbd0&#45;4936&#45;4ea5&#45;833b&#45;3298c8e9c714</title>
<path fill="none" stroke="black" d="M779.359,-221.261C777.027,-213.791 774.112,-204.455 771.07,-194.711"/>
<polygon fill="black" stroke="black" points="774.323,-193.387 768.002,-184.885 767.641,-195.473 774.323,-193.387"/>
</g>
<!-- pr_148de4e4&#45;eba2&#45;4121&#45;bb98&#45;de18be9558df -->
<g id="node14" class="node"><title>pr_148de4e4&#45;eba2&#45;4121&#45;bb98&#45;de18be9558df</title>
<polygon fill="none" stroke="black" points="921.5,-184.23 821.5,-184.23 821.5,-84.2297 921.5,-84.2297 921.5,-184.23"/>
<text text-anchor="middle" x="871.5" y="-133.03" font-family="Times,serif" font-size="4.00">pr_148de4e4&#45;eba2&#45;4121&#45;bb98&#45;de18be9558df</text>
</g>
<!-- PHB&#45;&gt;pr_148de4e4&#45;eba2&#45;4121&#45;bb98&#45;de18be9558df -->
<g id="edge17" class="edge"><title>PHB&#45;&gt;pr_148de4e4&#45;eba2&#45;4121&#45;bb98&#45;de18be9558df</title>
<path fill="none" stroke="black" d="M795.874,-224.33C803.053,-215.872 812.869,-204.307 823.051,-192.31"/>
<polygon fill="black" stroke="black" points="825.969,-194.281 829.772,-184.392 820.632,-189.751 825.969,-194.281"/>
</g>
<!-- PHB&#45;RAF1 -->
<g id="node16" class="node"><title>PHB&#45;RAF1</title>
<ellipse fill="none" stroke="black" cx="871.5" cy="-23.8649" rx="19.7452" ry="19.7452"/>
<text text-anchor="middle" x="871.5" y="-22.6649" font-family="Times,serif" font-size="4.00">PHB&#45;RAF1</text>
</g>
<!-- pr_148de4e4&#45;eba2&#45;4121&#45;bb98&#45;de18be9558df&#45;&gt;PHB&#45;RAF1 -->
<g id="edge18" class="edge"><title>pr_148de4e4&#45;eba2&#45;4121&#45;bb98&#45;de18be9558df&#45;&gt;PHB&#45;RAF1</title>
<path fill="none" stroke="black" d="M871.5,-84.1203C871.5,-73.8163 871.5,-63.2654 871.5,-53.9759"/>
<polygon fill="black" stroke="black" points="875,-53.7405 871.5,-43.7406 868,-53.7406 875,-53.7405"/>
</g>
<!-- RAF1 -->
<g id="node15" class="node"><title>RAF1</title>
<ellipse fill="none" stroke="black" cx="871.5" cy="-238.73" rx="18" ry="18"/>
<text text-anchor="middle" x="871.5" y="-237.53" font-family="Times,serif" font-size="4.00">RAF1</text>
</g>
<!-- RAF1&#45;&gt;pr_148de4e4&#45;eba2&#45;4121&#45;bb98&#45;de18be9558df -->
<g id="edge19" class="edge"><title>RAF1&#45;&gt;pr_148de4e4&#45;eba2&#45;4121&#45;bb98&#45;de18be9558df</title>
<path fill="none" stroke="black" d="M871.5,-220.342C871.5,-213.044 871.5,-204.087 871.5,-194.754"/>
<polygon fill="black" stroke="black" points="875,-194.54 871.5,-184.54 868,-194.54 875,-194.54"/>
</g>
<!-- pr_b517600b&#45;ec68&#45;451d&#45;8082&#45;460efe3f1225&#45;&gt;Orf3b&#45;STOML2 -->
<g id="edge20" class="edge"><title>pr_b517600b&#45;ec68&#45;451d&#45;8082&#45;460efe3f1225&#45;&gt;Orf3b&#45;STOML2</title>
<path fill="none" stroke="black" d="M490.934,-84.4364C485.199,-73.9032 479.315,-63.0955 474.16,-53.6271"/>
<polygon fill="black" stroke="black" points="477.136,-51.7738 469.28,-44.6648 470.988,-55.1211 477.136,-51.7738"/>
</g>
<!-- TCR complex -->
<g id="node19" class="node"><title>TCR complex</title>
<ellipse fill="none" stroke="black" cx="634.5" cy="-23.8649" rx="22.6101" ry="22.6101"/>
<text text-anchor="middle" x="634.5" y="-22.6649" font-family="Times,serif" font-size="4.00">TCR complex</text>
</g>
<!-- pr_1c1aef19&#45;2520&#45;4d97&#45;9a2b&#45;40cf3c4a8a53&#45;&gt;TCR complex -->
<g id="edge21" class="edge"><title>pr_1c1aef19&#45;2520&#45;4d97&#45;9a2b&#45;40cf3c4a8a53&#45;&gt;TCR complex</title>
<path fill="none" stroke="black" d="M627.78,-84.4364C627.674,-74.8512 627.852,-65.0387 628.314,-56.2149"/>
<polygon fill="black" stroke="black" points="631.82,-56.2416 629.018,-46.024 624.837,-55.7587 631.82,-56.2416"/>
</g>
<!-- TCR complex&#45;&gt;pr_1c1aef19&#45;2520&#45;4d97&#45;9a2b&#45;40cf3c4a8a53 -->
<g id="edge22" class="edge"><title>TCR complex&#45;&gt;pr_1c1aef19&#45;2520&#45;4d97&#45;9a2b&#45;40cf3c4a8a53</title>
<path fill="none" stroke="black" d="M639.982,-46.024C640.713,-54.2723 641.128,-64.1712 641.227,-74.2931"/>
<polygon fill="black" stroke="black" points="637.727,-74.4341 641.22,-84.4364 644.727,-74.4387 637.727,-74.4341"/>
</g>
</g>
</svg>
