<?xml version="1.0" encoding="UTF-8" standalone="no"?>
<!DOCTYPE svg PUBLIC "-//W3C//DTD SVG 1.1//EN"
 "http://www.w3.org/Graphics/SVG/1.1/DTD/svg11.dtd">
<!-- Generated by graphviz version 2.38.0 (20140413.2041)
 -->
<!-- Title: G Pages: 1 -->
<svg width="823pt" height="741pt"
 viewBox="0.00 0.00 823.49 741.41" xmlns="http://www.w3.org/2000/svg" xmlns:xlink="http://www.w3.org/1999/xlink">
<g id="graph0" class="graph" transform="scale(1 1) rotate(0) translate(4 737.415)">
<title>G</title>
<polygon fill="white" stroke="none" points="-4,4 -4,-737.415 819.487,-737.415 819.487,4 -4,4"/>
<!-- IKBKG/IKBKB/CHUK -->
<g id="node1" class="node"><title>IKBKG/IKBKB/CHUK</title>
<ellipse fill="none" stroke="black" cx="304.031" cy="-522.999" rx="31.0804" ry="31.0804"/>
<text text-anchor="middle" x="304.031" y="-521.799" font-family="Times,serif" font-size="4.00">IKBKG/IKBKB/CHUK</text>
</g>
<!-- Orf3a -->
<g id="node2" class="node"><title>Orf3a</title>
<ellipse fill="none" stroke="black" cx="304.031" cy="-435.026" rx="18" ry="18"/>
<text text-anchor="middle" x="304.031" y="-433.826" font-family="Times,serif" font-size="4.00">Orf3a</text>
</g>
<!-- IKBKG/IKBKB/CHUK&#45;&gt;Orf3a -->
<g id="edge1" class="edge"><title>IKBKG/IKBKB/CHUK&#45;&gt;Orf3a</title>
<path fill="none" stroke="black" d="M304.031,-491.446C304.031,-482.388 304.031,-472.523 304.031,-463.661"/>
<polygon fill="black" stroke="black" points="307.531,-463.469 304.031,-453.469 300.531,-463.469 307.531,-463.469"/>
</g>
<!-- S -->
<g id="node3" class="node"><title>S</title>
<ellipse fill="none" stroke="black" cx="180.031" cy="-351.827" rx="18" ry="18"/>
<text text-anchor="middle" x="180.031" y="-350.627" font-family="Times,serif" font-size="4.00">S</text>
</g>
<!-- Orf3a&#45;&gt;S -->
<g id="edge2" class="edge"><title>Orf3a&#45;&gt;S</title>
<path fill="none" stroke="black" d="M288.212,-426.41C268.41,-416.554 233.837,-398.266 207.031,-378.343 204.605,-376.54 202.162,-374.542 199.789,-372.48"/>
<polygon fill="black" stroke="black" points="201.85,-369.62 192.124,-365.419 197.108,-374.768 201.85,-369.62"/>
</g>
<!-- Hops Complex -->
<g id="node9" class="node"><title>Hops Complex</title>
<ellipse fill="none" stroke="black" cx="311.031" cy="-351.827" rx="23.7305" ry="23.7305"/>
<text text-anchor="middle" x="311.031" y="-350.627" font-family="Times,serif" font-size="4.00">Hops Complex</text>
</g>
<!-- Orf3a&#45;&gt;Hops Complex -->
<g id="edge3" class="edge"><title>Orf3a&#45;&gt;Hops Complex</title>
<path fill="none" stroke="black" d="M305.516,-416.806C306.286,-407.868 307.255,-396.636 308.164,-386.088"/>
<polygon fill="black" stroke="black" points="311.672,-386.142 309.044,-375.878 304.698,-385.541 311.672,-386.142"/>
</g>
<!-- TRIM59 -->
<g id="node24" class="node"><title>TRIM59</title>
<ellipse fill="none" stroke="black" cx="126.031" cy="-351.827" rx="18" ry="18"/>
<text text-anchor="middle" x="126.031" y="-350.627" font-family="Times,serif" font-size="4.00">TRIM59</text>
</g>
<!-- Orf3a&#45;&gt;TRIM59 -->
<g id="edge4" class="edge"><title>Orf3a&#45;&gt;TRIM59</title>
<path fill="none" stroke="black" d="M286.712,-430.074C257.537,-422.902 197.432,-405.886 153.031,-378.343 150.462,-376.75 147.929,-374.884 145.504,-372.9"/>
<polygon fill="black" stroke="black" points="147.549,-370.03 137.785,-365.917 142.853,-375.221 147.549,-370.03"/>
</g>
<!-- NLRP3 -->
<g id="node28" class="node"><title>NLRP3</title>
<ellipse fill="none" stroke="black" cx="501.031" cy="-351.827" rx="18" ry="18"/>
<text text-anchor="middle" x="501.031" y="-350.627" font-family="Times,serif" font-size="4.00">NLRP3</text>
</g>
<!-- Orf3a&#45;&gt;NLRP3 -->
<g id="edge5" class="edge"><title>Orf3a&#45;&gt;NLRP3</title>
<path fill="none" stroke="black" d="M320.488,-427.243C354.832,-413.087 434.342,-380.315 475.427,-363.38"/>
<polygon fill="black" stroke="black" points="476.848,-366.581 484.759,-359.534 474.18,-360.109 476.848,-366.581"/>
</g>
<!-- TRIM9 -->
<g id="node4" class="node"><title>TRIM9</title>
<ellipse fill="none" stroke="black" cx="552.031" cy="-707.959" rx="18" ry="18"/>
<text text-anchor="middle" x="552.031" y="-706.759" font-family="Times,serif" font-size="4.00">TRIM9</text>
</g>
<!-- B&#45;TrcP -->
<g id="node5" class="node"><title>B&#45;TrcP</title>
<ellipse fill="none" stroke="black" cx="552.031" cy="-618.396" rx="18" ry="18"/>
<text text-anchor="middle" x="552.031" y="-617.196" font-family="Times,serif" font-size="4.00">B&#45;TrcP</text>
</g>
<!-- TRIM9&#45;&gt;B&#45;TrcP -->
<g id="edge6" class="edge"><title>TRIM9&#45;&gt;B&#45;TrcP</title>
<path fill="none" stroke="black" d="M552.031,-689.659C552.031,-677.426 552.031,-660.775 552.031,-646.753"/>
<polygon fill="black" stroke="black" points="555.531,-646.659 552.031,-636.659 548.531,-646.659 555.531,-646.659"/>
</g>
<!-- NFKBIA -->
<g id="node16" class="node"><title>NFKBIA</title>
<ellipse fill="none" stroke="black" cx="616.031" cy="-522.999" rx="18" ry="18"/>
<text text-anchor="middle" x="616.031" y="-521.799" font-family="Times,serif" font-size="4.00">NFKBIA</text>
</g>
<!-- B&#45;TrcP&#45;&gt;NFKBIA -->
<g id="edge7" class="edge"><title>B&#45;TrcP&#45;&gt;NFKBIA</title>
<path fill="none" stroke="black" d="M561.751,-603.211C571.995,-588.262 588.285,-564.489 600.35,-546.883"/>
<polygon fill="black" stroke="black" points="603.454,-548.545 606.22,-538.317 597.68,-544.588 603.454,-548.545"/>
</g>
<!-- TRIM39 -->
<g id="node6" class="node"><title>TRIM39</title>
<ellipse fill="none" stroke="black" cx="680.031" cy="-618.396" rx="18" ry="18"/>
<text text-anchor="middle" x="680.031" y="-617.196" font-family="Times,serif" font-size="4.00">TRIM39</text>
</g>
<!-- CACTIN -->
<g id="node7" class="node"><title>CACTIN</title>
<ellipse fill="none" stroke="black" cx="675.031" cy="-522.999" rx="18" ry="18"/>
<text text-anchor="middle" x="675.031" y="-521.799" font-family="Times,serif" font-size="4.00">CACTIN</text>
</g>
<!-- TRIM39&#45;&gt;CACTIN -->
<g id="edge8" class="edge"><title>TRIM39&#45;&gt;CACTIN</title>
<path fill="none" stroke="black" d="M679.114,-600.265C678.381,-586.573 677.34,-567.12 676.492,-551.288"/>
<polygon fill="black" stroke="black" points="679.972,-550.819 675.942,-541.021 672.982,-551.193 679.972,-550.819"/>
</g>
<!-- NFKB1 -->
<g id="node8" class="node"><title>NFKB1</title>
<ellipse fill="none" stroke="black" cx="673.031" cy="-435.026" rx="18" ry="18"/>
<text text-anchor="middle" x="673.031" y="-433.826" font-family="Times,serif" font-size="4.00">NFKB1</text>
</g>
<!-- CACTIN&#45;&gt;NFKB1 -->
<g id="edge9" class="edge"><title>CACTIN&#45;&gt;NFKB1</title>
<path fill="none" stroke="black" d="M674.626,-504.601C674.351,-492.754 673.98,-476.83 673.666,-463.309"/>
<polygon fill="black" stroke="black" points="677.16,-463.021 673.429,-453.105 670.162,-463.184 677.16,-463.021"/>
</g>
<!-- TAB2/TAB3/TAK1 -->
<g id="node10" class="node"><title>TAB2/TAB3/TAK1</title>
<ellipse fill="none" stroke="black" cx="95.0312" cy="-173.231" rx="27.0938" ry="27.0938"/>
<text text-anchor="middle" x="95.0312" y="-172.031" font-family="Times,serif" font-size="4.00">TAB2/TAB3/TAK1</text>
</g>
<!-- SERPINF2 -->
<g id="node23" class="node"><title>SERPINF2</title>
<ellipse fill="none" stroke="black" cx="95.0312" cy="-91.0919" rx="19.1842" ry="19.1842"/>
<text text-anchor="middle" x="95.0312" y="-89.8919" font-family="Times,serif" font-size="4.00">SERPINF2</text>
</g>
<!-- TAB2/TAB3/TAK1&#45;&gt;SERPINF2 -->
<g id="edge10" class="edge"><title>TAB2/TAB3/TAK1&#45;&gt;SERPINF2</title>
<path fill="none" stroke="black" d="M95.0312,-145.99C95.0312,-137.774 95.0312,-128.673 95.0312,-120.325"/>
<polygon fill="black" stroke="black" points="98.5313,-120.277 95.0312,-110.277 91.5313,-120.277 98.5313,-120.277"/>
</g>
<!-- CASP1 -->
<g id="node11" class="node"><title>CASP1</title>
<ellipse fill="none" stroke="black" cx="501.031" cy="-262.794" rx="18" ry="18"/>
<text text-anchor="middle" x="501.031" y="-261.594" font-family="Times,serif" font-size="4.00">CASP1</text>
</g>
<!-- Pro_IL1b -->
<g id="node39" class="node"><title>Pro_IL1b</title>
<ellipse fill="none" stroke="black" cx="447.031" cy="-173.231" rx="18" ry="18"/>
<text text-anchor="middle" x="447.031" y="-172.031" font-family="Times,serif" font-size="4.00">Pro_IL1b</text>
</g>
<!-- CASP1&#45;&gt;Pro_IL1b -->
<g id="edge11" class="edge"><title>CASP1&#45;&gt;Pro_IL1b</title>
<path fill="none" stroke="black" d="M491.871,-246.94C483.52,-233.398 471.047,-213.174 461.375,-197.49"/>
<polygon fill="black" stroke="black" points="464.284,-195.54 456.056,-188.865 458.326,-199.214 464.284,-195.54"/>
</g>
<!-- TRIM30a/TRIM38 -->
<g id="node12" class="node"><title>TRIM30a/TRIM38</title>
<ellipse fill="none" stroke="black" cx="63.0312" cy="-262.794" rx="26.533" ry="26.533"/>
<text text-anchor="middle" x="63.0312" y="-261.594" font-family="Times,serif" font-size="4.00">TRIM30a/TRIM38</text>
</g>
<!-- TRIM30a/TRIM38&#45;&gt;TAB2/TAB3/TAK1 -->
<g id="edge12" class="edge"><title>TRIM30a/TRIM38&#45;&gt;TAB2/TAB3/TAK1</title>
<path fill="none" stroke="black" d="M71.945,-237.403C75.2461,-228.37 79.0514,-217.957 82.6082,-208.224"/>
<polygon fill="black" stroke="black" points="85.9091,-209.389 86.0543,-198.795 79.3344,-206.986 85.9091,-209.389"/>
</g>
<!-- TLR7/8/9 -->
<g id="node13" class="node"><title>TLR7/8/9</title>
<ellipse fill="none" stroke="black" cx="18.0312" cy="-435.026" rx="18.0625" ry="18.0625"/>
<text text-anchor="middle" x="18.0312" y="-433.826" font-family="Times,serif" font-size="4.00">TLR7/8/9</text>
</g>
<!-- MYD88 -->
<g id="node21" class="node"><title>MYD88</title>
<ellipse fill="none" stroke="black" cx="18.0312" cy="-351.827" rx="18" ry="18"/>
<text text-anchor="middle" x="18.0312" y="-350.627" font-family="Times,serif" font-size="4.00">MYD88</text>
</g>
<!-- TLR7/8/9&#45;&gt;MYD88 -->
<g id="edge13" class="edge"><title>TLR7/8/9&#45;&gt;MYD88</title>
<path fill="none" stroke="black" d="M18.0312,-416.806C18.0312,-406.148 18.0312,-392.23 18.0312,-380.097"/>
<polygon fill="black" stroke="black" points="21.5313,-380.022 18.0312,-370.022 14.5313,-380.022 21.5313,-380.022"/>
</g>
<!-- LPS/TNF α/IL&#45;1 -->
<g id="node14" class="node"><title>LPS/TNF α/IL&#45;1</title>
<ellipse fill="none" stroke="black" cx="303.031" cy="-618.396" rx="23.7305" ry="23.7305"/>
<text text-anchor="middle" x="303.031" y="-617.196" font-family="Times,serif" font-size="4.00">LPS/TNF α/IL&#45;1</text>
</g>
<!-- LPS/TNF α/IL&#45;1&#45;&gt;IKBKG/IKBKB/CHUK -->
<g id="edge14" class="edge"><title>LPS/TNF α/IL&#45;1&#45;&gt;IKBKG/IKBKB/CHUK</title>
<path fill="none" stroke="black" d="M303.278,-594.309C303.374,-585.408 303.486,-574.955 303.594,-564.87"/>
<polygon fill="black" stroke="black" points="307.096,-564.611 303.704,-554.574 300.097,-564.536 307.096,-564.611"/>
</g>
<!-- TRIM29 -->
<g id="node15" class="node"><title>TRIM29</title>
<ellipse fill="none" stroke="black" cx="606.031" cy="-707.959" rx="18" ry="18"/>
<text text-anchor="middle" x="606.031" y="-706.759" font-family="Times,serif" font-size="4.00">TRIM29</text>
</g>
<!-- NFKBIA&#45;&gt;NFKB1 -->
<g id="edge15" class="edge"><title>NFKBIA&#45;&gt;NFKB1</title>
<path fill="none" stroke="black" d="M625.7,-507.415C634.516,-494.119 647.681,-474.262 657.89,-458.863"/>
<polygon fill="black" stroke="black" points="660.896,-460.664 663.505,-450.395 655.062,-456.795 660.896,-460.664"/>
</g>
<!-- TRIM22 -->
<g id="node17" class="node"><title>TRIM22</title>
<ellipse fill="none" stroke="black" cx="660.031" cy="-707.959" rx="18" ry="18"/>
<text text-anchor="middle" x="660.031" y="-706.759" font-family="Times,serif" font-size="4.00">TRIM22</text>
</g>
<!-- TRIM27/TRIM21 -->
<g id="node18" class="node"><title>TRIM27/TRIM21</title>
<ellipse fill="none" stroke="black" cx="721.031" cy="-707.959" rx="25.4118" ry="25.4118"/>
<text text-anchor="middle" x="721.031" y="-706.759" font-family="Times,serif" font-size="4.00">TRIM27/TRIM21</text>
</g>
<!-- TRIM38 -->
<g id="node19" class="node"><title>TRIM38</title>
<ellipse fill="none" stroke="black" cx="424.031" cy="-618.396" rx="18" ry="18"/>
<text text-anchor="middle" x="424.031" y="-617.196" font-family="Times,serif" font-size="4.00">TRIM38</text>
</g>
<!-- TRAF6 -->
<g id="node34" class="node"><title>TRAF6</title>
<ellipse fill="none" stroke="black" cx="126.031" cy="-262.794" rx="18" ry="18"/>
<text text-anchor="middle" x="126.031" y="-261.594" font-family="Times,serif" font-size="4.00">TRAF6</text>
</g>
<!-- TRIM38&#45;&gt;TRAF6 -->
<g id="edge17" class="edge"><title>TRIM38&#45;&gt;TRAF6</title>
<path fill="none" stroke="black" d="M424.744,-600.084C425.813,-550.023 421.803,-403.683 344.031,-325.31 292.487,-273.368 200.694,-264.435 154.398,-263.43"/>
<polygon fill="black" stroke="black" points="154.221,-259.928 144.185,-263.323 154.148,-266.927 154.221,-259.928"/>
</g>
<!-- TICAM1 -->
<g id="node36" class="node"><title>TICAM1</title>
<ellipse fill="none" stroke="black" cx="485.031" cy="-522.999" rx="18" ry="18"/>
<text text-anchor="middle" x="485.031" y="-521.799" font-family="Times,serif" font-size="4.00">TICAM1</text>
</g>
<!-- TRIM38&#45;&gt;TICAM1 -->
<g id="edge16" class="edge"><title>TRIM38&#45;&gt;TICAM1</title>
<path fill="none" stroke="black" d="M433.562,-602.802C443.321,-587.861 458.631,-564.42 470.019,-546.984"/>
<polygon fill="black" stroke="black" points="473.029,-548.776 475.567,-538.489 467.168,-544.948 473.029,-548.776"/>
</g>
<!-- IFNB1 -->
<g id="node20" class="node"><title>IFNB1</title>
<ellipse fill="none" stroke="black" cx="95.0312" cy="-18" rx="18" ry="18"/>
<text text-anchor="middle" x="95.0312" y="-16.8" font-family="Times,serif" font-size="4.00">IFNB1</text>
</g>
<!-- MYD88&#45;&gt;TRAF6 -->
<g id="edge18" class="edge"><title>MYD88&#45;&gt;TRAF6</title>
<path fill="none" stroke="black" d="M30.2701,-338.425C34.7628,-334.101 39.9863,-329.329 45.0312,-325.31 67.5938,-307.34 76.4686,-307.281 99.0312,-289.31 101.396,-287.427 103.8,-285.378 106.15,-283.287"/>
<polygon fill="black" stroke="black" points="108.842,-285.563 113.792,-276.195 104.081,-280.431 108.842,-285.563"/>
</g>
<!-- E -->
<g id="node22" class="node"><title>E</title>
<ellipse fill="none" stroke="black" cx="363.031" cy="-618.396" rx="18" ry="18"/>
<text text-anchor="middle" x="363.031" y="-617.196" font-family="Times,serif" font-size="4.00">E</text>
</g>
<!-- E&#45;&gt;IKBKG/IKBKB/CHUK -->
<g id="edge19" class="edge"><title>E&#45;&gt;IKBKG/IKBKB/CHUK</title>
<path fill="none" stroke="black" d="M353.812,-602.802C346.335,-590.965 335.488,-573.795 325.826,-558.501"/>
<polygon fill="black" stroke="black" points="328.609,-556.352 320.309,-549.767 322.691,-560.091 328.609,-556.352"/>
</g>
<!-- E&#45;&gt;Pro_IL1b -->
<g id="edge20" class="edge"><title>E&#45;&gt;Pro_IL1b</title>
<path fill="none" stroke="black" d="M363.031,-600.392C363.031,-568.275 363.031,-496.483 363.031,-436.026 363.031,-436.026 363.031,-436.026 363.031,-350.827 363.031,-289.692 404.592,-227.187 429.246,-195.487"/>
<polygon fill="black" stroke="black" points="432.205,-197.39 435.703,-187.39 426.732,-193.026 432.205,-197.39"/>
</g>
<!-- SERPINF2&#45;&gt;IFNB1 -->
<g id="edge21" class="edge"><title>SERPINF2&#45;&gt;IFNB1</title>
<path fill="none" stroke="black" d="M95.0312,-71.784C95.0312,-64.0315 95.0312,-54.8357 95.0312,-46.309"/>
<polygon fill="black" stroke="black" points="98.5313,-46.0254 95.0312,-36.0255 91.5313,-46.0255 98.5313,-46.0254"/>
</g>
<!-- TRIM59&#45;&gt;TRAF6 -->
<g id="edge22" class="edge"><title>TRIM59&#45;&gt;TRAF6</title>
<path fill="none" stroke="black" d="M126.031,-333.632C126.031,-321.473 126.031,-304.923 126.031,-290.986"/>
<polygon fill="black" stroke="black" points="129.531,-290.953 126.031,-280.953 122.531,-290.953 129.531,-290.953"/>
</g>
<!-- NEMO/IKKA/IKKB -->
<g id="node25" class="node"><title>NEMO/IKKA/IKKB</title>
<ellipse fill="none" stroke="black" cx="616.031" cy="-618.396" rx="28.2154" ry="28.2154"/>
<text text-anchor="middle" x="616.031" y="-617.196" font-family="Times,serif" font-size="4.00">NEMO/IKKA/IKKB</text>
</g>
<!-- NEMO/IKKA/IKKB&#45;&gt;NFKBIA -->
<g id="edge23" class="edge"><title>NEMO/IKKA/IKKB&#45;&gt;NFKBIA</title>
<path fill="none" stroke="black" d="M616.031,-590.13C616.031,-577.887 616.031,-563.475 616.031,-551.235"/>
<polygon fill="black" stroke="black" points="619.531,-551.147 616.031,-541.147 612.531,-551.147 619.531,-551.147"/>
</g>
<!-- TRIM23 -->
<g id="node26" class="node"><title>TRIM23</title>
<ellipse fill="none" stroke="black" cx="72.0312" cy="-351.827" rx="18" ry="18"/>
<text text-anchor="middle" x="72.0312" y="-350.627" font-family="Times,serif" font-size="4.00">TRIM23</text>
</g>
<!-- TRIM23&#45;&gt;TRAF6 -->
<g id="edge24" class="edge"><title>TRIM23&#45;&gt;TRAF6</title>
<path fill="none" stroke="black" d="M81.1916,-336.063C89.4924,-322.684 101.865,-302.743 111.512,-287.195"/>
<polygon fill="black" stroke="black" points="114.528,-288.973 116.826,-278.63 108.58,-285.282 114.528,-288.973"/>
</g>
<!-- P65/P015 -->
<g id="node27" class="node"><title>P65/P015</title>
<ellipse fill="none" stroke="black" cx="447.031" cy="-435.026" rx="18.0625" ry="18.0625"/>
<text text-anchor="middle" x="447.031" y="-433.826" font-family="Times,serif" font-size="4.00">P65/P015</text>
</g>
<!-- P65/P015&#45;&gt;NLRP3 -->
<g id="edge25" class="edge"><title>P65/P015&#45;&gt;NLRP3</title>
<path fill="none" stroke="black" d="M456.685,-419.51C464.748,-407.385 476.39,-389.88 485.722,-375.847"/>
<polygon fill="black" stroke="black" points="488.837,-377.483 491.461,-367.218 483.009,-373.607 488.837,-377.483"/>
</g>
<!-- P65/P015&#45;&gt;Pro_IL1b -->
<g id="edge26" class="edge"><title>P65/P015&#45;&gt;Pro_IL1b</title>
<path fill="none" stroke="black" d="M447.031,-416.98C447.031,-372.941 447.031,-255.078 447.031,-201.461"/>
<polygon fill="black" stroke="black" points="450.531,-201.339 447.031,-191.339 443.531,-201.339 450.531,-201.339"/>
</g>
<!-- NLRP3&#45;&gt;CASP1 -->
<g id="edge27" class="edge"><title>NLRP3&#45;&gt;CASP1</title>
<path fill="none" stroke="black" d="M501.031,-333.632C501.031,-321.473 501.031,-304.923 501.031,-290.986"/>
<polygon fill="black" stroke="black" points="504.531,-290.953 501.031,-280.953 497.531,-290.953 504.531,-290.953"/>
</g>
<!-- LPS/TLR4/MYD88 -->
<g id="node29" class="node"><title>LPS/TLR4/MYD88</title>
<ellipse fill="none" stroke="black" cx="243.031" cy="-351.827" rx="26.533" ry="26.533"/>
<text text-anchor="middle" x="243.031" y="-350.627" font-family="Times,serif" font-size="4.00">LPS/TLR4/MYD88</text>
</g>
<!-- LPS/TLR4/MYD88&#45;&gt;TRAF6 -->
<g id="edge28" class="edge"><title>LPS/TLR4/MYD88&#45;&gt;TRAF6</title>
<path fill="none" stroke="black" d="M222.114,-335.267C201.317,-319.797 169.53,-296.152 148.279,-280.343"/>
<polygon fill="black" stroke="black" points="150.264,-277.458 140.151,-274.298 146.086,-283.074 150.264,-277.458"/>
</g>
<!-- dsRNA -->
<g id="node30" class="node"><title>dsRNA</title>
<ellipse fill="none" stroke="black" cx="485.031" cy="-707.959" rx="18" ry="18"/>
<text text-anchor="middle" x="485.031" y="-706.759" font-family="Times,serif" font-size="4.00">dsRNA</text>
</g>
<!-- TLR3 -->
<g id="node38" class="node"><title>TLR3</title>
<ellipse fill="none" stroke="black" cx="485.031" cy="-618.396" rx="18" ry="18"/>
<text text-anchor="middle" x="485.031" y="-617.196" font-family="Times,serif" font-size="4.00">TLR3</text>
</g>
<!-- dsRNA&#45;&gt;TLR3 -->
<g id="edge29" class="edge"><title>dsRNA&#45;&gt;TLR3</title>
<path fill="none" stroke="black" d="M485.031,-689.659C485.031,-677.426 485.031,-660.775 485.031,-646.753"/>
<polygon fill="black" stroke="black" points="488.531,-646.659 485.031,-636.659 481.531,-646.659 488.531,-646.659"/>
</g>
<!-- TRIM14/TRIM23 -->
<g id="node31" class="node"><title>TRIM14/TRIM23</title>
<ellipse fill="none" stroke="black" cx="790.031" cy="-707.959" rx="25.4118" ry="25.4118"/>
<text text-anchor="middle" x="790.031" y="-706.759" font-family="Times,serif" font-size="4.00">TRIM14/TRIM23</text>
</g>
<!-- TRAF3 -->
<g id="node32" class="node"><title>TRAF3</title>
<ellipse fill="none" stroke="black" cx="501.031" cy="-435.026" rx="18" ry="18"/>
<text text-anchor="middle" x="501.031" y="-433.826" font-family="Times,serif" font-size="4.00">TRAF3</text>
</g>
<!-- TRAF3&#45;&gt;NLRP3 -->
<g id="edge30" class="edge"><title>TRAF3&#45;&gt;NLRP3</title>
<path fill="none" stroke="black" d="M501.031,-416.806C501.031,-406.148 501.031,-392.23 501.031,-380.097"/>
<polygon fill="black" stroke="black" points="504.531,-380.022 501.031,-370.022 497.531,-380.022 504.531,-380.022"/>
</g>
<!-- ASC/CASP1 -->
<g id="node33" class="node"><title>ASC/CASP1</title>
<ellipse fill="none" stroke="black" cx="612.031" cy="-435.026" rx="20.8674" ry="20.8674"/>
<text text-anchor="middle" x="612.031" y="-433.826" font-family="Times,serif" font-size="4.00">ASC/CASP1</text>
</g>
<!-- ASC/CASP1&#45;&gt;CASP1 -->
<g id="edge31" class="edge"><title>ASC/CASP1&#45;&gt;CASP1</title>
<path fill="none" stroke="black" d="M601.186,-417.394C581.255,-386.828 538.771,-321.672 516.069,-286.856"/>
<polygon fill="black" stroke="black" points="518.881,-284.76 510.487,-278.295 513.017,-288.584 518.881,-284.76"/>
</g>
<!-- ASC/CASP1&#45;&gt;NLRP3 -->
<g id="edge32" class="edge"><title>ASC/CASP1&#45;&gt;NLRP3</title>
<path fill="none" stroke="black" d="M595.653,-422.045C576.572,-408.087 544.938,-384.946 523.553,-369.303"/>
<polygon fill="black" stroke="black" points="525.495,-366.387 515.358,-363.307 521.362,-372.036 525.495,-366.387"/>
</g>
<!-- TRAF6&#45;&gt;TAB2/TAB3/TAK1 -->
<g id="edge33" class="edge"><title>TRAF6&#45;&gt;TAB2/TAB3/TAK1</title>
<path fill="none" stroke="black" d="M120.2,-245.324C116.547,-235.004 111.7,-221.313 107.235,-208.703"/>
<polygon fill="black" stroke="black" points="110.404,-207.165 103.767,-198.906 103.805,-209.501 110.404,-207.165"/>
</g>
<!-- ssRNA -->
<g id="node35" class="node"><title>ssRNA</title>
<ellipse fill="none" stroke="black" cx="18.0312" cy="-522.999" rx="18" ry="18"/>
<text text-anchor="middle" x="18.0312" y="-521.799" font-family="Times,serif" font-size="4.00">ssRNA</text>
</g>
<!-- ssRNA&#45;&gt;TLR7/8/9 -->
<g id="edge34" class="edge"><title>ssRNA&#45;&gt;TLR7/8/9</title>
<path fill="none" stroke="black" d="M18.0312,-504.601C18.0312,-492.754 18.0312,-476.83 18.0312,-463.309"/>
<polygon fill="black" stroke="black" points="21.5313,-463.105 18.0312,-453.105 14.5313,-463.105 21.5313,-463.105"/>
</g>
<!-- TICAM1&#45;&gt;TRAF3 -->
<g id="edge35" class="edge"><title>TICAM1&#45;&gt;TRAF3</title>
<path fill="none" stroke="black" d="M488.192,-505.013C490.428,-493.003 493.47,-476.654 496.032,-462.887"/>
<polygon fill="black" stroke="black" points="499.488,-463.448 497.877,-452.976 492.606,-462.167 499.488,-463.448"/>
</g>
<!-- ORF8b -->
<g id="node37" class="node"><title>ORF8b</title>
<ellipse fill="none" stroke="black" cx="555.031" cy="-435.026" rx="18" ry="18"/>
<text text-anchor="middle" x="555.031" y="-433.826" font-family="Times,serif" font-size="4.00">ORF8b</text>
</g>
<!-- ORF8b&#45;&gt;NLRP3 -->
<g id="edge36" class="edge"><title>ORF8b&#45;&gt;NLRP3</title>
<path fill="none" stroke="black" d="M545.377,-419.51C537.314,-407.385 525.672,-389.88 516.34,-375.847"/>
<polygon fill="black" stroke="black" points="519.054,-373.607 510.602,-367.218 513.225,-377.483 519.054,-373.607"/>
</g>
<!-- TLR3&#45;&gt;TICAM1 -->
<g id="edge37" class="edge"><title>TLR3&#45;&gt;TICAM1</title>
<path fill="none" stroke="black" d="M485.031,-600.265C485.031,-586.573 485.031,-567.12 485.031,-551.288"/>
<polygon fill="black" stroke="black" points="488.531,-551.02 485.031,-541.021 481.531,-551.021 488.531,-551.02"/>
</g>
</g>
</svg>
