<?xml version="1.0" encoding="UTF-8" standalone="no"?>
<!DOCTYPE svg PUBLIC "-//W3C//DTD SVG 1.1//EN"
 "http://www.w3.org/Graphics/SVG/1.1/DTD/svg11.dtd">
<!-- Generated by graphviz version 2.38.0 (20140413.2041)
 -->
<!-- Title: G Pages: 1 -->
<svg width="909pt" height="1153pt"
 viewBox="0.00 0.00 908.50 1153.19" xmlns="http://www.w3.org/2000/svg" xmlns:xlink="http://www.w3.org/1999/xlink">
<g id="graph0" class="graph" transform="scale(1 1) rotate(0) translate(4 1149.19)">
<title>G</title>
<polygon fill="white" stroke="none" points="-4,4 -4,-1149.19 904.5,-1149.19 904.5,4 -4,4"/>
<!-- Orf3a -->
<g id="node1" class="node"><title>Orf3a</title>
<ellipse fill="none" stroke="black" cx="331.5" cy="-1124.51" rx="18" ry="18"/>
<text text-anchor="middle" x="331.5" y="-1123.31" font-family="Times,serif" font-size="4.00">Orf3a</text>
</g>
<!-- pr_23ef9b29&#45;7f70&#45;436a&#45;8808&#45;5711cd19ebc2 -->
<g id="node2" class="node"><title>pr_23ef9b29&#45;7f70&#45;436a&#45;8808&#45;5711cd19ebc2</title>
<polygon fill="none" stroke="black" points="295,-1067.33 196,-1067.33 196,-968.329 295,-968.329 295,-1067.33"/>
<text text-anchor="middle" x="245.5" y="-1016.63" font-family="Times,serif" font-size="4.00">pr_23ef9b29&#45;7f70&#45;436a&#45;8808&#45;5711cd19ebc2</text>
</g>
<!-- Orf3a&#45;&gt;pr_23ef9b29&#45;7f70&#45;436a&#45;8808&#45;5711cd19ebc2 -->
<g id="edge1" class="edge"><title>Orf3a&#45;&gt;pr_23ef9b29&#45;7f70&#45;436a&#45;8808&#45;5711cd19ebc2</title>
<path fill="none" stroke="black" d="M320.257,-1109.83C312.867,-1100.83 302.649,-1088.39 292.14,-1075.6"/>
<polygon fill="black" stroke="black" points="294.633,-1073.12 285.581,-1067.62 289.224,-1077.57 294.633,-1073.12"/>
</g>
<!-- pr_195b0f34&#45;c565&#45;4722&#45;8455&#45;43a72247e1c6 -->
<g id="node35" class="node"><title>pr_195b0f34&#45;c565&#45;4722&#45;8455&#45;43a72247e1c6</title>
<polygon fill="none" stroke="black" points="413.5,-1067.83 313.5,-1067.83 313.5,-967.829 413.5,-967.829 413.5,-1067.83"/>
<text text-anchor="middle" x="363.5" y="-1016.63" font-family="Times,serif" font-size="4.00">pr_195b0f34&#45;c565&#45;4722&#45;8455&#45;43a72247e1c6</text>
</g>
<!-- Orf3a&#45;&gt;pr_195b0f34&#45;c565&#45;4722&#45;8455&#45;43a72247e1c6 -->
<g id="edge2" class="edge"><title>Orf3a&#45;&gt;pr_195b0f34&#45;c565&#45;4722&#45;8455&#45;43a72247e1c6</title>
<path fill="none" stroke="black" d="M336.5,-1107.15C339.002,-1098.97 342.199,-1088.51 345.511,-1077.68"/>
<polygon fill="black" stroke="black" points="348.861,-1078.69 348.437,-1068.1 342.167,-1076.64 348.861,-1078.69"/>
</g>
<!-- NLRP3 -->
<g id="node4" class="node"><title>NLRP3</title>
<ellipse fill="none" stroke="black" cx="245.5" cy="-905.312" rx="18" ry="18"/>
<text text-anchor="middle" x="245.5" y="-904.112" font-family="Times,serif" font-size="4.00">NLRP3</text>
</g>
<!-- pr_23ef9b29&#45;7f70&#45;436a&#45;8808&#45;5711cd19ebc2&#45;&gt;NLRP3 -->
<g id="edge3" class="edge"><title>pr_23ef9b29&#45;7f70&#45;436a&#45;8808&#45;5711cd19ebc2&#45;&gt;NLRP3</title>
<path fill="none" stroke="black" d="M245.5,-968.033C245.5,-956.188 245.5,-943.942 245.5,-933.511"/>
<polygon fill="black" stroke="black" points="249,-933.391 245.5,-923.391 242,-933.391 249,-933.391"/>
</g>
<!-- TRAF3 -->
<g id="node3" class="node"><title>TRAF3</title>
<ellipse fill="none" stroke="black" cx="480.5" cy="-1124.51" rx="18" ry="18"/>
<text text-anchor="middle" x="480.5" y="-1123.31" font-family="Times,serif" font-size="4.00">TRAF3</text>
</g>
<!-- TRAF3&#45;&gt;pr_23ef9b29&#45;7f70&#45;436a&#45;8808&#45;5711cd19ebc2 -->
<g id="edge4" class="edge"><title>TRAF3&#45;&gt;pr_23ef9b29&#45;7f70&#45;436a&#45;8808&#45;5711cd19ebc2</title>
<path fill="none" stroke="black" d="M462.871,-1120.29C430.129,-1113.81 358.367,-1097.24 304.5,-1067.83 304.303,-1067.72 304.106,-1067.61 303.908,-1067.5"/>
<polygon fill="black" stroke="black" points="305.463,-1064.35 295.095,-1062.17 301.84,-1070.34 305.463,-1064.35"/>
</g>
<!-- pr_dcf1d569&#45;e234&#45;47b1&#45;a127&#45;ef2cafa56a54 -->
<g id="node52" class="node"><title>pr_dcf1d569&#45;e234&#45;47b1&#45;a127&#45;ef2cafa56a54</title>
<polygon fill="none" stroke="black" points="529.5,-1066.83 431.5,-1066.83 431.5,-968.829 529.5,-968.829 529.5,-1066.83"/>
<text text-anchor="middle" x="480.5" y="-1016.63" font-family="Times,serif" font-size="4.00">pr_dcf1d569&#45;e234&#45;47b1&#45;a127&#45;ef2cafa56a54</text>
</g>
<!-- TRAF3&#45;&gt;pr_dcf1d569&#45;e234&#45;47b1&#45;a127&#45;ef2cafa56a54 -->
<g id="edge5" class="edge"><title>TRAF3&#45;&gt;pr_dcf1d569&#45;e234&#45;47b1&#45;a127&#45;ef2cafa56a54</title>
<path fill="none" stroke="black" d="M475.438,-1107.15C474.489,-1098.88 473.94,-1088.27 473.791,-1077.31"/>
<polygon fill="black" stroke="black" points="477.291,-1077.18 473.767,-1067.19 470.291,-1077.19 477.291,-1077.18"/>
</g>
<!-- pr_3d19e579&#45;28ac&#45;40ee&#45;be0b&#45;ac792e89d671 -->
<g id="node8" class="node"><title>pr_3d19e579&#45;28ac&#45;40ee&#45;be0b&#45;ac792e89d671</title>
<polygon fill="none" stroke="black" points="296,-842.796 195,-842.796 195,-741.796 296,-741.796 296,-842.796"/>
<text text-anchor="middle" x="245.5" y="-791.096" font-family="Times,serif" font-size="4.00">pr_3d19e579&#45;28ac&#45;40ee&#45;be0b&#45;ac792e89d671</text>
</g>
<!-- NLRP3&#45;&gt;pr_3d19e579&#45;28ac&#45;40ee&#45;be0b&#45;ac792e89d671 -->
<g id="edge6" class="edge"><title>NLRP3&#45;&gt;pr_3d19e579&#45;28ac&#45;40ee&#45;be0b&#45;ac792e89d671</title>
<path fill="none" stroke="black" d="M245.5,-886.966C245.5,-877.723 245.5,-865.744 245.5,-853.459"/>
<polygon fill="black" stroke="black" points="249,-853.121 245.5,-843.121 242,-853.121 249,-853.121"/>
</g>
<!-- ASC/CASP1 -->
<g id="node5" class="node"><title>ASC/CASP1</title>
<ellipse fill="none" stroke="black" cx="178.5" cy="-1124.51" rx="20.8674" ry="20.8674"/>
<text text-anchor="middle" x="178.5" y="-1123.31" font-family="Times,serif" font-size="4.00">ASC/CASP1</text>
</g>
<!-- ASC/CASP1&#45;&gt;pr_23ef9b29&#45;7f70&#45;436a&#45;8808&#45;5711cd19ebc2 -->
<g id="edge7" class="edge"><title>ASC/CASP1&#45;&gt;pr_23ef9b29&#45;7f70&#45;436a&#45;8808&#45;5711cd19ebc2</title>
<path fill="none" stroke="black" d="M189.265,-1106.69C194.689,-1098.22 201.618,-1087.39 208.745,-1076.26"/>
<polygon fill="black" stroke="black" points="211.77,-1078.02 214.213,-1067.71 205.874,-1074.25 211.77,-1078.02"/>
</g>
<!-- ASC/CASP1&#45;&gt;pr_3d19e579&#45;28ac&#45;40ee&#45;be0b&#45;ac792e89d671 -->
<g id="edge8" class="edge"><title>ASC/CASP1&#45;&gt;pr_3d19e579&#45;28ac&#45;40ee&#45;be0b&#45;ac792e89d671</title>
<path fill="none" stroke="black" d="M177.792,-1103.64C177.118,-1073.85 177.313,-1015.95 186.5,-967.829 194.007,-928.51 208.274,-885.924 220.898,-852.662"/>
<polygon fill="black" stroke="black" points="224.254,-853.686 224.58,-843.096 217.721,-851.171 224.254,-853.686"/>
</g>
<!-- P65/P015 -->
<g id="node6" class="node"><title>P65/P015</title>
<ellipse fill="none" stroke="black" cx="85.5" cy="-1124.51" rx="18.0625" ry="18.0625"/>
<text text-anchor="middle" x="85.5" y="-1123.31" font-family="Times,serif" font-size="4.00">P65/P015</text>
</g>
<!-- P65/P015&#45;&gt;pr_23ef9b29&#45;7f70&#45;436a&#45;8808&#45;5711cd19ebc2 -->
<g id="edge9" class="edge"><title>P65/P015&#45;&gt;pr_23ef9b29&#45;7f70&#45;436a&#45;8808&#45;5711cd19ebc2</title>
<path fill="none" stroke="black" d="M100.266,-1113.85C119.924,-1100.99 155.844,-1077.49 187.041,-1057.08"/>
<polygon fill="black" stroke="black" points="189.246,-1059.82 195.697,-1051.41 185.413,-1053.96 189.246,-1059.82"/>
</g>
<!-- pr_5231f714&#45;2284&#45;495c&#45;9d9e&#45;cfd72b770049 -->
<g id="node10" class="node"><title>pr_5231f714&#45;2284&#45;495c&#45;9d9e&#45;cfd72b770049</title>
<polygon fill="none" stroke="black" points="99,-1067.33 0,-1067.33 0,-968.329 99,-968.329 99,-1067.33"/>
<text text-anchor="middle" x="49.5" y="-1016.63" font-family="Times,serif" font-size="4.00">pr_5231f714&#45;2284&#45;495c&#45;9d9e&#45;cfd72b770049</text>
</g>
<!-- P65/P015&#45;&gt;pr_5231f714&#45;2284&#45;495c&#45;9d9e&#45;cfd72b770049 -->
<g id="edge10" class="edge"><title>P65/P015&#45;&gt;pr_5231f714&#45;2284&#45;495c&#45;9d9e&#45;cfd72b770049</title>
<path fill="none" stroke="black" d="M75.6494,-1108.96C71.5975,-1100.36 67.015,-1088.84 62.7656,-1076.93"/>
<polygon fill="black" stroke="black" points="66.0231,-1075.64 59.4456,-1067.33 59.4079,-1077.92 66.0231,-1075.64"/>
</g>
<!-- pr_41d05d72&#45;aabe&#45;49ed&#45;aa76&#45;bda0b31a03b5 -->
<g id="node28" class="node"><title>pr_41d05d72&#45;aabe&#45;49ed&#45;aa76&#45;bda0b31a03b5</title>
<polygon fill="none" stroke="black" points="177,-842.796 76,-842.796 76,-741.796 177,-741.796 177,-842.796"/>
<text text-anchor="middle" x="126.5" y="-791.096" font-family="Times,serif" font-size="4.00">pr_41d05d72&#45;aabe&#45;49ed&#45;aa76&#45;bda0b31a03b5</text>
</g>
<!-- P65/P015&#45;&gt;pr_41d05d72&#45;aabe&#45;49ed&#45;aa76&#45;bda0b31a03b5 -->
<g id="edge11" class="edge"><title>P65/P015&#45;&gt;pr_41d05d72&#45;aabe&#45;49ed&#45;aa76&#45;bda0b31a03b5</title>
<path fill="none" stroke="black" d="M93.1944,-1107.84C98.1867,-1096.91 104.332,-1081.82 107.5,-1067.83 123.964,-995.121 127.416,-909.053 127.602,-852.924"/>
<polygon fill="black" stroke="black" points="131.102,-852.802 127.601,-842.802 124.102,-852.802 131.102,-852.802"/>
</g>
<!-- ORF8b -->
<g id="node7" class="node"><title>ORF8b</title>
<ellipse fill="none" stroke="black" cx="245.5" cy="-1124.51" rx="18" ry="18"/>
<text text-anchor="middle" x="245.5" y="-1123.31" font-family="Times,serif" font-size="4.00">ORF8b</text>
</g>
<!-- ORF8b&#45;&gt;pr_23ef9b29&#45;7f70&#45;436a&#45;8808&#45;5711cd19ebc2 -->
<g id="edge12" class="edge"><title>ORF8b&#45;&gt;pr_23ef9b29&#45;7f70&#45;436a&#45;8808&#45;5711cd19ebc2</title>
<path fill="none" stroke="black" d="M245.5,-1106.23C245.5,-1098.22 245.5,-1088.18 245.5,-1077.79"/>
<polygon fill="black" stroke="black" points="249,-1077.77 245.5,-1067.77 242,-1077.77 249,-1077.77"/>
</g>
<!-- CASP1 -->
<g id="node9" class="node"><title>CASP1</title>
<ellipse fill="none" stroke="black" cx="225.5" cy="-679.279" rx="18" ry="18"/>
<text text-anchor="middle" x="225.5" y="-678.079" font-family="Times,serif" font-size="4.00">CASP1</text>
</g>
<!-- pr_3d19e579&#45;28ac&#45;40ee&#45;be0b&#45;ac792e89d671&#45;&gt;CASP1 -->
<g id="edge13" class="edge"><title>pr_3d19e579&#45;28ac&#45;40ee&#45;be0b&#45;ac792e89d671&#45;&gt;CASP1</title>
<path fill="none" stroke="black" d="M236.553,-741.632C234.422,-729.806 232.227,-717.622 230.361,-707.26"/>
<polygon fill="black" stroke="black" points="233.768,-706.433 228.55,-697.212 226.879,-707.674 233.768,-706.433"/>
</g>
<!-- pr_1da51cc3&#45;2c14&#45;4040&#45;aac3&#45;9e1bd8cff5d4 -->
<g id="node24" class="node"><title>pr_1da51cc3&#45;2c14&#45;4040&#45;aac3&#45;9e1bd8cff5d4</title>
<polygon fill="none" stroke="black" points="274,-616.263 175,-616.263 175,-517.263 274,-517.263 274,-616.263"/>
<text text-anchor="middle" x="224.5" y="-565.563" font-family="Times,serif" font-size="4.00">pr_1da51cc3&#45;2c14&#45;4040&#45;aac3&#45;9e1bd8cff5d4</text>
</g>
<!-- CASP1&#45;&gt;pr_1da51cc3&#45;2c14&#45;4040&#45;aac3&#45;9e1bd8cff5d4 -->
<g id="edge14" class="edge"><title>CASP1&#45;&gt;pr_1da51cc3&#45;2c14&#45;4040&#45;aac3&#45;9e1bd8cff5d4</title>
<path fill="none" stroke="black" d="M225.344,-661.011C225.258,-651.526 225.146,-639.147 225.032,-626.524"/>
<polygon fill="black" stroke="black" points="228.531,-626.366 224.94,-616.398 221.531,-626.429 228.531,-626.366"/>
</g>
<!-- pr_5231f714&#45;2284&#45;495c&#45;9d9e&#45;cfd72b770049&#45;&gt;P65/P015 -->
<g id="edge15" class="edge"><title>pr_5231f714&#45;2284&#45;495c&#45;9d9e&#45;cfd72b770049&#45;&gt;P65/P015</title>
<path fill="none" stroke="black" d="M73.0697,-1067.77C76.5125,-1077.57 79.6936,-1087.53 82.1377,-1096.27"/>
<polygon fill="black" stroke="black" points="78.822,-1097.43 84.7217,-1106.23 85.5976,-1095.67 78.822,-1097.43"/>
</g>
<!-- LPS/TLR4/MYD88 -->
<g id="node11" class="node"><title>LPS/TLR4/MYD88</title>
<ellipse fill="none" stroke="black" cx="500.5" cy="-905.312" rx="26.533" ry="26.533"/>
<text text-anchor="middle" x="500.5" y="-904.112" font-family="Times,serif" font-size="4.00">LPS/TLR4/MYD88</text>
</g>
<!-- pr_33e9d5a1&#45;923c&#45;4e67&#45;bbc7&#45;3c5e2f3c5cd4 -->
<g id="node12" class="node"><title>pr_33e9d5a1&#45;923c&#45;4e67&#45;bbc7&#45;3c5e2f3c5cd4</title>
<polygon fill="none" stroke="black" points="550.5,-842.296 450.5,-842.296 450.5,-742.296 550.5,-742.296 550.5,-842.296"/>
<text text-anchor="middle" x="500.5" y="-791.096" font-family="Times,serif" font-size="4.00">pr_33e9d5a1&#45;923c&#45;4e67&#45;bbc7&#45;3c5e2f3c5cd4</text>
</g>
<!-- LPS/TLR4/MYD88&#45;&gt;pr_33e9d5a1&#45;923c&#45;4e67&#45;bbc7&#45;3c5e2f3c5cd4 -->
<g id="edge16" class="edge"><title>LPS/TLR4/MYD88&#45;&gt;pr_33e9d5a1&#45;923c&#45;4e67&#45;bbc7&#45;3c5e2f3c5cd4</title>
<path fill="none" stroke="black" d="M500.5,-878.564C500.5,-870.745 500.5,-861.808 500.5,-852.731"/>
<polygon fill="black" stroke="black" points="504,-852.474 500.5,-842.474 497,-852.474 504,-852.474"/>
</g>
<!-- TRAF6 -->
<g id="node13" class="node"><title>TRAF6</title>
<ellipse fill="none" stroke="black" cx="562.5" cy="-679.279" rx="18" ry="18"/>
<text text-anchor="middle" x="562.5" y="-678.079" font-family="Times,serif" font-size="4.00">TRAF6</text>
</g>
<!-- pr_33e9d5a1&#45;923c&#45;4e67&#45;bbc7&#45;3c5e2f3c5cd4&#45;&gt;TRAF6 -->
<g id="edge17" class="edge"><title>pr_33e9d5a1&#45;923c&#45;4e67&#45;bbc7&#45;3c5e2f3c5cd4&#45;&gt;TRAF6</title>
<path fill="none" stroke="black" d="M527.875,-742.279C535.201,-729.161 542.801,-715.552 549.008,-704.438"/>
<polygon fill="black" stroke="black" points="552.242,-705.826 554.062,-695.389 546.13,-702.413 552.242,-705.826"/>
</g>
<!-- pr_2d511e1e&#45;f39c&#45;4403&#45;a720&#45;d847415cb31f -->
<g id="node41" class="node"><title>pr_2d511e1e&#45;f39c&#45;4403&#45;a720&#45;d847415cb31f</title>
<polygon fill="none" stroke="black" points="666,-616.263 567,-616.263 567,-517.263 666,-517.263 666,-616.263"/>
<text text-anchor="middle" x="616.5" y="-565.563" font-family="Times,serif" font-size="4.00">pr_2d511e1e&#45;f39c&#45;4403&#45;a720&#45;d847415cb31f</text>
</g>
<!-- TRAF6&#45;&gt;pr_2d511e1e&#45;f39c&#45;4403&#45;a720&#45;d847415cb31f -->
<g id="edge18" class="edge"><title>TRAF6&#45;&gt;pr_2d511e1e&#45;f39c&#45;4403&#45;a720&#45;d847415cb31f</title>
<path fill="none" stroke="black" d="M565.692,-661.494C569.393,-651.682 575.179,-638.656 581.571,-625.445"/>
<polygon fill="black" stroke="black" points="584.794,-626.824 586.075,-616.307 578.515,-623.73 584.794,-626.824"/>
</g>
<!-- pr_8f207122&#45;6a49&#45;4004&#45;aa56&#45;44e08b2bf501 -->
<g id="node44" class="node"><title>pr_8f207122&#45;6a49&#45;4004&#45;aa56&#45;44e08b2bf501</title>
<polygon fill="none" stroke="black" points="549,-616.263 450,-616.263 450,-517.263 549,-517.263 549,-616.263"/>
<text text-anchor="middle" x="499.5" y="-565.563" font-family="Times,serif" font-size="4.00">pr_8f207122&#45;6a49&#45;4004&#45;aa56&#45;44e08b2bf501</text>
</g>
<!-- TRAF6&#45;&gt;pr_8f207122&#45;6a49&#45;4004&#45;aa56&#45;44e08b2bf501 -->
<g id="edge19" class="edge"><title>TRAF6&#45;&gt;pr_8f207122&#45;6a49&#45;4004&#45;aa56&#45;44e08b2bf501</title>
<path fill="none" stroke="black" d="M554.004,-663.374C548.274,-653.323 540.312,-639.356 532.241,-625.197"/>
<polygon fill="black" stroke="black" points="535.213,-623.344 527.22,-616.39 529.132,-626.811 535.213,-623.344"/>
</g>
<!-- TRIM59 -->
<g id="node14" class="node"><title>TRIM59</title>
<ellipse fill="none" stroke="black" cx="363.5" cy="-905.312" rx="18" ry="18"/>
<text text-anchor="middle" x="363.5" y="-904.112" font-family="Times,serif" font-size="4.00">TRIM59</text>
</g>
<!-- TRIM59&#45;&gt;pr_33e9d5a1&#45;923c&#45;4e67&#45;bbc7&#45;3c5e2f3c5cd4 -->
<g id="edge20" class="edge"><title>TRIM59&#45;&gt;pr_33e9d5a1&#45;923c&#45;4e67&#45;bbc7&#45;3c5e2f3c5cd4</title>
<path fill="none" stroke="black" d="M377.137,-893.262C392.399,-880.894 418.149,-860.028 442.186,-840.55"/>
<polygon fill="black" stroke="black" points="444.689,-843.026 450.255,-834.011 440.282,-837.588 444.689,-843.026"/>
</g>
<!-- TRIM59&#45;&gt;pr_195b0f34&#45;c565&#45;4722&#45;8455&#45;43a72247e1c6 -->
<g id="edge21" class="edge"><title>TRIM59&#45;&gt;pr_195b0f34&#45;c565&#45;4722&#45;8455&#45;43a72247e1c6</title>
<path fill="none" stroke="black" d="M368.472,-922.764C369.543,-932.198 370.13,-944.679 370.233,-957.454"/>
<polygon fill="black" stroke="black" points="366.733,-957.704 370.213,-967.711 373.733,-957.718 366.733,-957.704"/>
</g>
<!-- NFKBIA -->
<g id="node15" class="node"><title>NFKBIA</title>
<ellipse fill="none" stroke="black" cx="849.5" cy="-227.092" rx="18" ry="18"/>
<text text-anchor="middle" x="849.5" y="-225.892" font-family="Times,serif" font-size="4.00">NFKBIA</text>
</g>
<!-- pr_5511b76d&#45;60df&#45;49a4&#45;99b9&#45;79f359631c64 -->
<g id="node16" class="node"><title>pr_5511b76d&#45;60df&#45;49a4&#45;99b9&#45;79f359631c64</title>
<polygon fill="none" stroke="black" points="899,-381.684 800,-381.684 800,-282.684 899,-282.684 899,-381.684"/>
<text text-anchor="middle" x="849.5" y="-330.984" font-family="Times,serif" font-size="4.00">pr_5511b76d&#45;60df&#45;49a4&#45;99b9&#45;79f359631c64</text>
</g>
<!-- NFKBIA&#45;&gt;pr_5511b76d&#45;60df&#45;49a4&#45;99b9&#45;79f359631c64 -->
<g id="edge22" class="edge"><title>NFKBIA&#45;&gt;pr_5511b76d&#45;60df&#45;49a4&#45;99b9&#45;79f359631c64</title>
<path fill="none" stroke="black" d="M854.585,-244.392C855.492,-252.274 856.029,-262.267 856.194,-272.645"/>
<polygon fill="black" stroke="black" points="852.694,-272.673 856.24,-282.657 859.694,-272.641 852.694,-272.673"/>
</g>
<!-- pr_160c72ec&#45;0899&#45;4b6f&#45;9532&#45;70cda3d85962 -->
<g id="node53" class="node"><title>pr_160c72ec&#45;0899&#45;4b6f&#45;9532&#45;70cda3d85962</title>
<polygon fill="none" stroke="black" points="899.5,-172 799.5,-172 799.5,-72 899.5,-72 899.5,-172"/>
<text text-anchor="middle" x="849.5" y="-120.8" font-family="Times,serif" font-size="4.00">pr_160c72ec&#45;0899&#45;4b6f&#45;9532&#45;70cda3d85962</text>
</g>
<!-- NFKBIA&#45;&gt;pr_160c72ec&#45;0899&#45;4b6f&#45;9532&#45;70cda3d85962 -->
<g id="edge23" class="edge"><title>NFKBIA&#45;&gt;pr_160c72ec&#45;0899&#45;4b6f&#45;9532&#45;70cda3d85962</title>
<path fill="none" stroke="black" d="M849.5,-209.068C849.5,-201.513 849.5,-192.127 849.5,-182.357"/>
<polygon fill="black" stroke="black" points="853,-182.097 849.5,-172.098 846,-182.098 853,-182.097"/>
</g>
<!-- pr_5511b76d&#45;60df&#45;49a4&#45;99b9&#45;79f359631c64&#45;&gt;NFKBIA -->
<g id="edge24" class="edge"><title>pr_5511b76d&#45;60df&#45;49a4&#45;99b9&#45;79f359631c64&#45;&gt;NFKBIA</title>
<path fill="none" stroke="black" d="M842.76,-282.657C842.694,-272.962 842.947,-263.125 843.52,-254.523"/>
<polygon fill="black" stroke="black" points="847.021,-254.661 844.415,-244.392 840.048,-254.044 847.021,-254.661"/>
</g>
<!-- B&#45;TrcP -->
<g id="node17" class="node"><title>B&#45;TrcP</title>
<ellipse fill="none" stroke="black" cx="881.5" cy="-449.473" rx="18" ry="18"/>
<text text-anchor="middle" x="881.5" y="-448.273" font-family="Times,serif" font-size="4.00">B&#45;TrcP</text>
</g>
<!-- B&#45;TrcP&#45;&gt;pr_5511b76d&#45;60df&#45;49a4&#45;99b9&#45;79f359631c64 -->
<g id="edge25" class="edge"><title>B&#45;TrcP&#45;&gt;pr_5511b76d&#45;60df&#45;49a4&#45;99b9&#45;79f359631c64</title>
<path fill="none" stroke="black" d="M876.915,-431.955C873.924,-421.178 869.822,-406.4 865.702,-391.557"/>
<polygon fill="black" stroke="black" points="869.051,-390.535 863.004,-381.835 862.306,-392.407 869.051,-390.535"/>
</g>
<!-- NEMO/IKKA/IKKB -->
<g id="node18" class="node"><title>NEMO/IKKA/IKKB</title>
<ellipse fill="none" stroke="black" cx="817.5" cy="-449.473" rx="28.2154" ry="28.2154"/>
<text text-anchor="middle" x="817.5" y="-448.273" font-family="Times,serif" font-size="4.00">NEMO/IKKA/IKKB</text>
</g>
<!-- NEMO/IKKA/IKKB&#45;&gt;pr_5511b76d&#45;60df&#45;49a4&#45;99b9&#45;79f359631c64 -->
<g id="edge26" class="edge"><title>NEMO/IKKA/IKKB&#45;&gt;pr_5511b76d&#45;60df&#45;49a4&#45;99b9&#45;79f359631c64</title>
<path fill="none" stroke="black" d="M824.761,-422.312C827.303,-413.157 830.268,-402.472 833.245,-391.746"/>
<polygon fill="black" stroke="black" points="836.669,-392.497 835.971,-381.925 829.924,-390.625 836.669,-392.497"/>
</g>
<!-- pr_70ed5a72&#45;cdc2&#45;407b&#45;8942&#45;18e355f866ca -->
<g id="node46" class="node"><title>pr_70ed5a72&#45;cdc2&#45;407b&#45;8942&#45;18e355f866ca</title>
<polygon fill="none" stroke="black" points="711.5,-382.184 611.5,-382.184 611.5,-282.184 711.5,-282.184 711.5,-382.184"/>
<text text-anchor="middle" x="661.5" y="-330.984" font-family="Times,serif" font-size="4.00">pr_70ed5a72&#45;cdc2&#45;407b&#45;8942&#45;18e355f866ca</text>
</g>
<!-- NEMO/IKKA/IKKB&#45;&gt;pr_70ed5a72&#45;cdc2&#45;407b&#45;8942&#45;18e355f866ca -->
<g id="edge27" class="edge"><title>NEMO/IKKA/IKKB&#45;&gt;pr_70ed5a72&#45;cdc2&#45;407b&#45;8942&#45;18e355f866ca</title>
<path fill="none" stroke="black" d="M796.17,-430.613C791.086,-426.467 785.643,-422.119 780.5,-418.184 761.004,-403.267 739.26,-387.493 719.747,-373.637"/>
<polygon fill="black" stroke="black" points="721.718,-370.744 711.534,-367.824 717.675,-376.458 721.718,-370.744"/>
</g>
<!-- LPS/TNF α/IL&#45;1 -->
<g id="node19" class="node"><title>LPS/TNF α/IL&#45;1</title>
<ellipse fill="none" stroke="black" cx="341.5" cy="-679.279" rx="23.7305" ry="23.7305"/>
<text text-anchor="middle" x="341.5" y="-678.079" font-family="Times,serif" font-size="4.00">LPS/TNF α/IL&#45;1</text>
</g>
<!-- pr_e2a30f5a&#45;d5ad&#45;4d7d&#45;b87c&#45;a47fbedb05b2 -->
<g id="node20" class="node"><title>pr_e2a30f5a&#45;d5ad&#45;4d7d&#45;b87c&#45;a47fbedb05b2</title>
<polygon fill="none" stroke="black" points="391,-616.263 292,-616.263 292,-517.263 391,-517.263 391,-616.263"/>
<text text-anchor="middle" x="341.5" y="-565.563" font-family="Times,serif" font-size="4.00">pr_e2a30f5a&#45;d5ad&#45;4d7d&#45;b87c&#45;a47fbedb05b2</text>
</g>
<!-- LPS/TNF α/IL&#45;1&#45;&gt;pr_e2a30f5a&#45;d5ad&#45;4d7d&#45;b87c&#45;a47fbedb05b2 -->
<g id="edge28" class="edge"><title>LPS/TNF α/IL&#45;1&#45;&gt;pr_e2a30f5a&#45;d5ad&#45;4d7d&#45;b87c&#45;a47fbedb05b2</title>
<path fill="none" stroke="black" d="M341.5,-655.38C341.5,-646.94 341.5,-636.944 341.5,-626.778"/>
<polygon fill="black" stroke="black" points="345,-626.606 341.5,-616.606 338,-626.606 345,-626.606"/>
</g>
<!-- IKBKG/IKBKB/CHUK -->
<g id="node22" class="node"><title>IKBKG/IKBKB/CHUK</title>
<ellipse fill="none" stroke="black" cx="341.5" cy="-449.473" rx="31.0804" ry="31.0804"/>
<text text-anchor="middle" x="341.5" y="-448.273" font-family="Times,serif" font-size="4.00">IKBKG/IKBKB/CHUK</text>
</g>
<!-- pr_e2a30f5a&#45;d5ad&#45;4d7d&#45;b87c&#45;a47fbedb05b2&#45;&gt;IKBKG/IKBKB/CHUK -->
<g id="edge29" class="edge"><title>pr_e2a30f5a&#45;d5ad&#45;4d7d&#45;b87c&#45;a47fbedb05b2&#45;&gt;IKBKG/IKBKB/CHUK</title>
<path fill="none" stroke="black" d="M341.5,-517.204C341.5,-508.454 341.5,-499.417 341.5,-490.928"/>
<polygon fill="black" stroke="black" points="345,-490.901 341.5,-480.901 338,-490.901 345,-490.901"/>
</g>
<!-- E -->
<g id="node21" class="node"><title>E</title>
<ellipse fill="none" stroke="black" cx="280.5" cy="-679.279" rx="18" ry="18"/>
<text text-anchor="middle" x="280.5" y="-678.079" font-family="Times,serif" font-size="4.00">E</text>
</g>
<!-- E&#45;&gt;pr_e2a30f5a&#45;d5ad&#45;4d7d&#45;b87c&#45;a47fbedb05b2 -->
<g id="edge30" class="edge"><title>E&#45;&gt;pr_e2a30f5a&#45;d5ad&#45;4d7d&#45;b87c&#45;a47fbedb05b2</title>
<path fill="none" stroke="black" d="M288.982,-662.912C294.46,-652.987 301.968,-639.385 309.593,-625.571"/>
<polygon fill="black" stroke="black" points="312.832,-626.944 314.6,-616.498 306.704,-623.562 312.832,-626.944"/>
</g>
<!-- E&#45;&gt;pr_1da51cc3&#45;2c14&#45;4040&#45;aac3&#45;9e1bd8cff5d4 -->
<g id="edge31" class="edge"><title>E&#45;&gt;pr_1da51cc3&#45;2c14&#45;4040&#45;aac3&#45;9e1bd8cff5d4</title>
<path fill="none" stroke="black" d="M272.713,-662.912C267.684,-652.987 260.792,-639.385 253.792,-625.571"/>
<polygon fill="black" stroke="black" points="256.837,-623.836 249.195,-616.498 250.593,-627 256.837,-623.836"/>
</g>
<!-- Pro_IL1b -->
<g id="node23" class="node"><title>Pro_IL1b</title>
<ellipse fill="none" stroke="black" cx="224.5" cy="-449.473" rx="18" ry="18"/>
<text text-anchor="middle" x="224.5" y="-448.273" font-family="Times,serif" font-size="4.00">Pro_IL1b</text>
</g>
<!-- Pro_IL1b&#45;&gt;pr_1da51cc3&#45;2c14&#45;4040&#45;aac3&#45;9e1bd8cff5d4 -->
<g id="edge32" class="edge"><title>Pro_IL1b&#45;&gt;pr_1da51cc3&#45;2c14&#45;4040&#45;aac3&#45;9e1bd8cff5d4</title>
<path fill="none" stroke="black" d="M229.39,-466.894C230.6,-477.589 231.22,-492.254 231.249,-507.016"/>
<polygon fill="black" stroke="black" points="227.748,-507.179 231.175,-517.204 234.748,-507.229 227.748,-507.179"/>
</g>
<!-- pr_1da51cc3&#45;2c14&#45;4040&#45;aac3&#45;9e1bd8cff5d4&#45;&gt;Pro_IL1b -->
<g id="edge33" class="edge"><title>pr_1da51cc3&#45;2c14&#45;4040&#45;aac3&#45;9e1bd8cff5d4&#45;&gt;Pro_IL1b</title>
<path fill="none" stroke="black" d="M217.825,-517.204C217.596,-503.446 217.891,-488.98 218.711,-477.047"/>
<polygon fill="black" stroke="black" points="222.214,-477.164 219.61,-466.894 215.241,-476.546 222.214,-477.164"/>
</g>
<!-- SERPINF2 -->
<g id="node25" class="node"><title>SERPINF2</title>
<ellipse fill="none" stroke="black" cx="499.5" cy="-227.092" rx="19.1842" ry="19.1842"/>
<text text-anchor="middle" x="499.5" y="-225.892" font-family="Times,serif" font-size="4.00">SERPINF2</text>
</g>
<!-- pr_2018fe2e&#45;217f&#45;48f3&#45;9db9&#45;4fe2a0b2506f -->
<g id="node26" class="node"><title>pr_2018fe2e&#45;217f&#45;48f3&#45;9db9&#45;4fe2a0b2506f</title>
<polygon fill="none" stroke="black" points="548,-170.5 451,-170.5 451,-73.5 548,-73.5 548,-170.5"/>
<text text-anchor="middle" x="499.5" y="-120.8" font-family="Times,serif" font-size="4.00">pr_2018fe2e&#45;217f&#45;48f3&#45;9db9&#45;4fe2a0b2506f</text>
</g>
<!-- SERPINF2&#45;&gt;pr_2018fe2e&#45;217f&#45;48f3&#45;9db9&#45;4fe2a0b2506f -->
<g id="edge34" class="edge"><title>SERPINF2&#45;&gt;pr_2018fe2e&#45;217f&#45;48f3&#45;9db9&#45;4fe2a0b2506f</title>
<path fill="none" stroke="black" d="M499.5,-207.661C499.5,-200.01 499.5,-190.671 499.5,-181.024"/>
<polygon fill="black" stroke="black" points="503,-180.917 499.5,-170.917 496,-180.917 503,-180.917"/>
</g>
<!-- pr_e6c9693d&#45;4fc8&#45;4700&#45;97ce&#45;fbc4784e050b -->
<g id="node51" class="node"><title>pr_e6c9693d&#45;4fc8&#45;4700&#45;97ce&#45;fbc4784e050b</title>
<polygon fill="none" stroke="black" points="549,-381.684 450,-381.684 450,-282.684 549,-282.684 549,-381.684"/>
<text text-anchor="middle" x="499.5" y="-330.984" font-family="Times,serif" font-size="4.00">pr_e6c9693d&#45;4fc8&#45;4700&#45;97ce&#45;fbc4784e050b</text>
</g>
<!-- SERPINF2&#45;&gt;pr_e6c9693d&#45;4fc8&#45;4700&#45;97ce&#45;fbc4784e050b -->
<g id="edge35" class="edge"><title>SERPINF2&#45;&gt;pr_e6c9693d&#45;4fc8&#45;4700&#45;97ce&#45;fbc4784e050b</title>
<path fill="none" stroke="black" d="M504.744,-245.832C505.551,-253.432 506.033,-262.786 506.192,-272.484"/>
<polygon fill="black" stroke="black" points="502.693,-272.673 506.24,-282.657 509.693,-272.64 502.693,-272.673"/>
</g>
<!-- IFNB1 -->
<g id="node27" class="node"><title>IFNB1</title>
<ellipse fill="none" stroke="black" cx="499.5" cy="-18" rx="18" ry="18"/>
<text text-anchor="middle" x="499.5" y="-16.8" font-family="Times,serif" font-size="4.00">IFNB1</text>
</g>
<!-- pr_2018fe2e&#45;217f&#45;48f3&#45;9db9&#45;4fe2a0b2506f&#45;&gt;IFNB1 -->
<g id="edge36" class="edge"><title>pr_2018fe2e&#45;217f&#45;48f3&#45;9db9&#45;4fe2a0b2506f&#45;&gt;IFNB1</title>
<path fill="none" stroke="black" d="M499.5,-73.2851C499.5,-64.056 499.5,-54.6828 499.5,-46.3813"/>
<polygon fill="black" stroke="black" points="503,-46.1875 499.5,-36.1876 496,-46.1876 503,-46.1875"/>
</g>
<!-- pr_41d05d72&#45;aabe&#45;49ed&#45;aa76&#45;bda0b31a03b5&#45;&gt;Pro_IL1b -->
<g id="edge37" class="edge"><title>pr_41d05d72&#45;aabe&#45;49ed&#45;aa76&#45;bda0b31a03b5&#45;&gt;Pro_IL1b</title>
<path fill="none" stroke="black" d="M125.098,-741.779C125.35,-684.87 131.578,-589.916 165.5,-516.763 174.195,-498.012 189.98,-480.709 203.036,-468.486"/>
<polygon fill="black" stroke="black" points="205.634,-470.856 210.724,-461.564 200.951,-465.653 205.634,-470.856"/>
</g>
<!-- TLR3 -->
<g id="node29" class="node"><title>TLR3</title>
<ellipse fill="none" stroke="black" cx="735.5" cy="-1124.51" rx="18" ry="18"/>
<text text-anchor="middle" x="735.5" y="-1123.31" font-family="Times,serif" font-size="4.00">TLR3</text>
</g>
<!-- pr_4c21b0b2&#45;4557&#45;4b6e&#45;8fb3&#45;49dad061ea84 -->
<g id="node30" class="node"><title>pr_4c21b0b2&#45;4557&#45;4b6e&#45;8fb3&#45;49dad061ea84</title>
<polygon fill="none" stroke="black" points="803.5,-1067.83 703.5,-1067.83 703.5,-967.829 803.5,-967.829 803.5,-1067.83"/>
<text text-anchor="middle" x="753.5" y="-1016.63" font-family="Times,serif" font-size="4.00">pr_4c21b0b2&#45;4557&#45;4b6e&#45;8fb3&#45;49dad061ea84</text>
</g>
<!-- TLR3&#45;&gt;pr_4c21b0b2&#45;4557&#45;4b6e&#45;8fb3&#45;49dad061ea84 -->
<g id="edge38" class="edge"><title>TLR3&#45;&gt;pr_4c21b0b2&#45;4557&#45;4b6e&#45;8fb3&#45;49dad061ea84</title>
<path fill="none" stroke="black" d="M733.306,-1106.23C733.806,-1098.3 734.999,-1088.4 736.606,-1078.13"/>
<polygon fill="black" stroke="black" points="740.065,-1078.67 738.265,-1068.23 733.161,-1077.51 740.065,-1078.67"/>
</g>
<!-- pr_25cb0560&#45;497e&#45;49bd&#45;b62c&#45;2d2f9915bcba -->
<g id="node33" class="node"><title>pr_25cb0560&#45;497e&#45;49bd&#45;b62c&#45;2d2f9915bcba</title>
<polygon fill="none" stroke="black" points="647.5,-1067.83 547.5,-1067.83 547.5,-967.829 647.5,-967.829 647.5,-1067.83"/>
<text text-anchor="middle" x="597.5" y="-1016.63" font-family="Times,serif" font-size="4.00">pr_25cb0560&#45;497e&#45;49bd&#45;b62c&#45;2d2f9915bcba</text>
</g>
<!-- TLR3&#45;&gt;pr_25cb0560&#45;497e&#45;49bd&#45;b62c&#45;2d2f9915bcba -->
<g id="edge39" class="edge"><title>TLR3&#45;&gt;pr_25cb0560&#45;497e&#45;49bd&#45;b62c&#45;2d2f9915bcba</title>
<path fill="none" stroke="black" d="M721.508,-1112.9C705.994,-1101.13 679.952,-1081.37 655.727,-1063"/>
<polygon fill="black" stroke="black" points="657.681,-1060.09 647.599,-1056.83 653.45,-1065.66 657.681,-1060.09"/>
</g>
<!-- pr_4c21b0b2&#45;4557&#45;4b6e&#45;8fb3&#45;49dad061ea84&#45;&gt;TLR3 -->
<g id="edge40" class="edge"><title>pr_4c21b0b2&#45;4557&#45;4b6e&#45;8fb3&#45;49dad061ea84&#45;&gt;TLR3</title>
<path fill="none" stroke="black" d="M751.79,-1067.96C750.067,-1078.41 747.954,-1089.03 745.74,-1098.15"/>
<polygon fill="black" stroke="black" points="742.292,-1097.5 743.111,-1108.07 749.058,-1099.3 742.292,-1097.5"/>
</g>
<!-- dsRNA -->
<g id="node31" class="node"><title>dsRNA</title>
<ellipse fill="none" stroke="black" cx="789.5" cy="-1124.51" rx="18" ry="18"/>
<text text-anchor="middle" x="789.5" y="-1123.31" font-family="Times,serif" font-size="4.00">dsRNA</text>
</g>
<!-- dsRNA&#45;&gt;pr_4c21b0b2&#45;4557&#45;4b6e&#45;8fb3&#45;49dad061ea84 -->
<g id="edge41" class="edge"><title>dsRNA&#45;&gt;pr_4c21b0b2&#45;4557&#45;4b6e&#45;8fb3&#45;49dad061ea84</title>
<path fill="none" stroke="black" d="M783.875,-1107.15C781.061,-1098.97 777.464,-1088.51 773.738,-1077.68"/>
<polygon fill="black" stroke="black" points="777.008,-1076.42 770.446,-1068.1 770.388,-1078.7 777.008,-1076.42"/>
</g>
<!-- TICAM1 -->
<g id="node32" class="node"><title>TICAM1</title>
<ellipse fill="none" stroke="black" cx="597.5" cy="-1124.51" rx="18" ry="18"/>
<text text-anchor="middle" x="597.5" y="-1123.31" font-family="Times,serif" font-size="4.00">TICAM1</text>
</g>
<!-- TICAM1&#45;&gt;pr_25cb0560&#45;497e&#45;49bd&#45;b62c&#45;2d2f9915bcba -->
<g id="edge42" class="edge"><title>TICAM1&#45;&gt;pr_25cb0560&#45;497e&#45;49bd&#45;b62c&#45;2d2f9915bcba</title>
<path fill="none" stroke="black" d="M592.438,-1107.15C591.518,-1099.14 590.975,-1088.93 590.807,-1078.33"/>
<polygon fill="black" stroke="black" points="594.306,-1078.09 590.76,-1068.1 587.306,-1078.12 594.306,-1078.09"/>
</g>
<!-- TICAM1&#45;&gt;pr_dcf1d569&#45;e234&#45;47b1&#45;a127&#45;ef2cafa56a54 -->
<g id="edge43" class="edge"><title>TICAM1&#45;&gt;pr_dcf1d569&#45;e234&#45;47b1&#45;a127&#45;ef2cafa56a54</title>
<path fill="none" stroke="black" d="M584.532,-1111.91C572.871,-1101.48 554.892,-1085.39 537.142,-1069.51"/>
<polygon fill="black" stroke="black" points="539.354,-1066.79 529.568,-1062.73 534.686,-1072.01 539.354,-1066.79"/>
</g>
<!-- pr_25cb0560&#45;497e&#45;49bd&#45;b62c&#45;2d2f9915bcba&#45;&gt;TICAM1 -->
<g id="edge44" class="edge"><title>pr_25cb0560&#45;497e&#45;49bd&#45;b62c&#45;2d2f9915bcba&#45;&gt;TICAM1</title>
<path fill="none" stroke="black" d="M604.24,-1068.1C604.307,-1078.12 604.044,-1088.28 603.45,-1097.13"/>
<polygon fill="black" stroke="black" points="599.958,-1096.89 602.562,-1107.15 606.931,-1097.5 599.958,-1096.89"/>
</g>
<!-- TRIM38 -->
<g id="node34" class="node"><title>TRIM38</title>
<ellipse fill="none" stroke="black" cx="663.5" cy="-1124.51" rx="18" ry="18"/>
<text text-anchor="middle" x="663.5" y="-1123.31" font-family="Times,serif" font-size="4.00">TRIM38</text>
</g>
<!-- TRIM38&#45;&gt;pr_25cb0560&#45;497e&#45;49bd&#45;b62c&#45;2d2f9915bcba -->
<g id="edge45" class="edge"><title>TRIM38&#45;&gt;pr_25cb0560&#45;497e&#45;49bd&#45;b62c&#45;2d2f9915bcba</title>
<path fill="none" stroke="black" d="M654.323,-1108.96C648.908,-1100.37 641.66,-1088.87 634.156,-1076.97"/>
<polygon fill="black" stroke="black" points="636.964,-1074.86 628.67,-1068.27 631.043,-1078.59 636.964,-1074.86"/>
</g>
<!-- TRIM38&#45;&gt;pr_2d511e1e&#45;f39c&#45;4403&#45;a720&#45;d847415cb31f -->
<g id="edge46" class="edge"><title>TRIM38&#45;&gt;pr_2d511e1e&#45;f39c&#45;4403&#45;a720&#45;d847415cb31f</title>
<path fill="none" stroke="black" d="M665.094,-1106.35C668.358,-1069.68 675.5,-980.9 675.5,-906.312 675.5,-906.312 675.5,-906.312 675.5,-791.296 675.5,-733.71 656.969,-670.461 640.677,-625.984"/>
<polygon fill="black" stroke="black" points="643.914,-624.648 637.135,-616.506 637.357,-627.098 643.914,-624.648"/>
</g>
<!-- pr_195b0f34&#45;c565&#45;4722&#45;8455&#45;43a72247e1c6&#45;&gt;TRIM59 -->
<g id="edge47" class="edge"><title>pr_195b0f34&#45;c565&#45;4722&#45;8455&#45;43a72247e1c6&#45;&gt;TRIM59</title>
<path fill="none" stroke="black" d="M356.787,-967.711C356.642,-955.731 356.924,-943.361 357.634,-932.891"/>
<polygon fill="black" stroke="black" points="361.134,-933.034 358.528,-922.764 354.162,-932.418 361.134,-933.034"/>
</g>
<!-- TLR7/8/9 -->
<g id="node36" class="node"><title>TLR7/8/9</title>
<ellipse fill="none" stroke="black" cx="823.5" cy="-679.279" rx="18.0625" ry="18.0625"/>
<text text-anchor="middle" x="823.5" y="-678.079" font-family="Times,serif" font-size="4.00">TLR7/8/9</text>
</g>
<!-- pr_767eafab&#45;76a7&#45;478c&#45;9b68&#45;cb95989415d0 -->
<g id="node37" class="node"><title>pr_767eafab&#45;76a7&#45;478c&#45;9b68&#45;cb95989415d0</title>
<polygon fill="none" stroke="black" points="900.5,-616.763 800.5,-616.763 800.5,-516.763 900.5,-516.763 900.5,-616.763"/>
<text text-anchor="middle" x="850.5" y="-565.563" font-family="Times,serif" font-size="4.00">pr_767eafab&#45;76a7&#45;478c&#45;9b68&#45;cb95989415d0</text>
</g>
<!-- TLR7/8/9&#45;&gt;pr_767eafab&#45;76a7&#45;478c&#45;9b68&#45;cb95989415d0 -->
<g id="edge48" class="edge"><title>TLR7/8/9&#45;&gt;pr_767eafab&#45;76a7&#45;478c&#45;9b68&#45;cb95989415d0</title>
<path fill="none" stroke="black" d="M822.656,-661.011C823.931,-651.622 826.36,-639.397 829.316,-626.906"/>
<polygon fill="black" stroke="black" points="832.792,-627.428 831.787,-616.88 825.995,-625.752 832.792,-627.428"/>
</g>
<!-- pr_0f209609&#45;a2a0&#45;49fe&#45;86d2&#45;58162e44f7b1 -->
<g id="node40" class="node"><title>pr_0f209609&#45;a2a0&#45;49fe&#45;86d2&#45;58162e44f7b1</title>
<polygon fill="none" stroke="black" points="782.5,-615.763 684.5,-615.763 684.5,-517.763 782.5,-517.763 782.5,-615.763"/>
<text text-anchor="middle" x="733.5" y="-565.563" font-family="Times,serif" font-size="4.00">pr_0f209609&#45;a2a0&#45;49fe&#45;86d2&#45;58162e44f7b1</text>
</g>
<!-- TLR7/8/9&#45;&gt;pr_0f209609&#45;a2a0&#45;49fe&#45;86d2&#45;58162e44f7b1 -->
<g id="edge49" class="edge"><title>TLR7/8/9&#45;&gt;pr_0f209609&#45;a2a0&#45;49fe&#45;86d2&#45;58162e44f7b1</title>
<path fill="none" stroke="black" d="M812.464,-664.728C803.95,-654.273 791.559,-639.056 779.105,-623.764"/>
<polygon fill="black" stroke="black" points="781.636,-621.329 772.607,-615.785 776.208,-625.749 781.636,-621.329"/>
</g>
<!-- pr_767eafab&#45;76a7&#45;478c&#45;9b68&#45;cb95989415d0&#45;&gt;TLR7/8/9 -->
<g id="edge50" class="edge"><title>pr_767eafab&#45;76a7&#45;478c&#45;9b68&#45;cb95989415d0&#45;&gt;TLR7/8/9</title>
<path fill="none" stroke="black" d="M845.187,-616.991C842.264,-629.573 838.765,-642.577 835.34,-653.352"/>
<polygon fill="black" stroke="black" points="831.995,-652.318 832.099,-662.912 838.624,-654.565 831.995,-652.318"/>
</g>
<!-- ssRNA -->
<g id="node38" class="node"><title>ssRNA</title>
<ellipse fill="none" stroke="black" cx="877.5" cy="-679.279" rx="18" ry="18"/>
<text text-anchor="middle" x="877.5" y="-678.079" font-family="Times,serif" font-size="4.00">ssRNA</text>
</g>
<!-- ssRNA&#45;&gt;pr_767eafab&#45;76a7&#45;478c&#45;9b68&#45;cb95989415d0 -->
<g id="edge51" class="edge"><title>ssRNA&#45;&gt;pr_767eafab&#45;76a7&#45;478c&#45;9b68&#45;cb95989415d0</title>
<path fill="none" stroke="black" d="M873.399,-661.494C871.072,-651.967 868.004,-639.41 864.873,-626.596"/>
<polygon fill="black" stroke="black" points="868.252,-625.676 862.478,-616.792 861.452,-627.337 868.252,-625.676"/>
</g>
<!-- MYD88 -->
<g id="node39" class="node"><title>MYD88</title>
<ellipse fill="none" stroke="black" cx="733.5" cy="-679.279" rx="18" ry="18"/>
<text text-anchor="middle" x="733.5" y="-678.079" font-family="Times,serif" font-size="4.00">MYD88</text>
</g>
<!-- MYD88&#45;&gt;pr_0f209609&#45;a2a0&#45;49fe&#45;86d2&#45;58162e44f7b1 -->
<g id="edge52" class="edge"><title>MYD88&#45;&gt;pr_0f209609&#45;a2a0&#45;49fe&#45;86d2&#45;58162e44f7b1</title>
<path fill="none" stroke="black" d="M728.545,-661.972C727.439,-652.307 726.844,-639.407 726.76,-626.262"/>
<polygon fill="black" stroke="black" points="730.26,-626.224 726.796,-616.212 723.26,-626.199 730.26,-626.224"/>
</g>
<!-- MYD88&#45;&gt;pr_2d511e1e&#45;f39c&#45;4403&#45;a720&#45;d847415cb31f -->
<g id="edge53" class="edge"><title>MYD88&#45;&gt;pr_2d511e1e&#45;f39c&#45;4403&#45;a720&#45;d847415cb31f</title>
<path fill="none" stroke="black" d="M720.532,-666.03C708.975,-655.113 691.213,-638.335 673.617,-621.715"/>
<polygon fill="black" stroke="black" points="675.778,-618.942 666.105,-614.619 670.972,-624.03 675.778,-618.942"/>
</g>
<!-- pr_0f209609&#45;a2a0&#45;49fe&#45;86d2&#45;58162e44f7b1&#45;&gt;MYD88 -->
<g id="edge54" class="edge"><title>pr_0f209609&#45;a2a0&#45;49fe&#45;86d2&#45;58162e44f7b1&#45;&gt;MYD88</title>
<path fill="none" stroke="black" d="M740.204,-616.212C740.369,-628.39 740.09,-641.017 739.368,-651.677"/>
<polygon fill="black" stroke="black" points="735.852,-651.702 738.455,-661.972 742.825,-652.32 735.852,-651.702"/>
</g>
<!-- pr_2d511e1e&#45;f39c&#45;4403&#45;a720&#45;d847415cb31f&#45;&gt;TRAF6 -->
<g id="edge55" class="edge"><title>pr_2d511e1e&#45;f39c&#45;4403&#45;a720&#45;d847415cb31f&#45;&gt;TRAF6</title>
<path fill="none" stroke="black" d="M599.496,-616.287C592.933,-630.094 585.524,-644.471 578.985,-655.899"/>
<polygon fill="black" stroke="black" points="575.838,-654.344 573.736,-664.728 581.855,-657.921 575.838,-654.344"/>
</g>
<!-- TRIM23 -->
<g id="node42" class="node"><title>TRIM23</title>
<ellipse fill="none" stroke="black" cx="616.5" cy="-679.279" rx="18" ry="18"/>
<text text-anchor="middle" x="616.5" y="-678.079" font-family="Times,serif" font-size="4.00">TRIM23</text>
</g>
<!-- TRIM23&#45;&gt;pr_2d511e1e&#45;f39c&#45;4403&#45;a720&#45;d847415cb31f -->
<g id="edge56" class="edge"><title>TRIM23&#45;&gt;pr_2d511e1e&#45;f39c&#45;4403&#45;a720&#45;d847415cb31f</title>
<path fill="none" stroke="black" d="M616.5,-661.011C616.5,-651.526 616.5,-639.147 616.5,-626.524"/>
<polygon fill="black" stroke="black" points="620,-626.398 616.5,-616.398 613,-626.398 620,-626.398"/>
</g>
<!-- TAB2/TAB3/TAK1 -->
<g id="node43" class="node"><title>TAB2/TAB3/TAK1</title>
<ellipse fill="none" stroke="black" cx="499.5" cy="-449.473" rx="27.0938" ry="27.0938"/>
<text text-anchor="middle" x="499.5" y="-448.273" font-family="Times,serif" font-size="4.00">TAB2/TAB3/TAK1</text>
</g>
<!-- TAB2/TAB3/TAK1&#45;&gt;pr_8f207122&#45;6a49&#45;4004&#45;aa56&#45;44e08b2bf501 -->
<g id="edge57" class="edge"><title>TAB2/TAB3/TAK1&#45;&gt;pr_8f207122&#45;6a49&#45;4004&#45;aa56&#45;44e08b2bf501</title>
<path fill="none" stroke="black" d="M505.217,-476.023C505.887,-485.305 506.231,-496.217 506.249,-507.174"/>
<polygon fill="black" stroke="black" points="502.749,-507.178 506.175,-517.204 509.749,-507.23 502.749,-507.178"/>
</g>
<!-- TAB2/TAB3/TAK1&#45;&gt;pr_70ed5a72&#45;cdc2&#45;407b&#45;8942&#45;18e355f866ca -->
<g id="edge58" class="edge"><title>TAB2/TAB3/TAK1&#45;&gt;pr_70ed5a72&#45;cdc2&#45;407b&#45;8942&#45;18e355f866ca</title>
<path fill="none" stroke="black" d="M519.985,-431.162C525.29,-426.829 531.046,-422.258 536.5,-418.184 557.658,-402.378 581.498,-385.864 602.642,-371.641"/>
<polygon fill="black" stroke="black" points="604.852,-374.373 611.213,-365.9 600.957,-368.557 604.852,-374.373"/>
</g>
<!-- TAB2/TAB3/TAK1&#45;&gt;pr_e6c9693d&#45;4fc8&#45;4700&#45;97ce&#45;fbc4784e050b -->
<g id="edge59" class="edge"><title>TAB2/TAB3/TAK1&#45;&gt;pr_e6c9693d&#45;4fc8&#45;4700&#45;97ce&#45;fbc4784e050b</title>
<path fill="none" stroke="black" d="M499.5,-422.312C499.5,-413.25 499.5,-402.69 499.5,-392.074"/>
<polygon fill="black" stroke="black" points="503,-391.925 499.5,-381.925 496,-391.925 503,-391.925"/>
</g>
<!-- pr_8f207122&#45;6a49&#45;4004&#45;aa56&#45;44e08b2bf501&#45;&gt;TAB2/TAB3/TAK1 -->
<g id="edge60" class="edge"><title>pr_8f207122&#45;6a49&#45;4004&#45;aa56&#45;44e08b2bf501&#45;&gt;TAB2/TAB3/TAK1</title>
<path fill="none" stroke="black" d="M492.825,-517.204C492.652,-506.809 492.778,-496.011 493.204,-486.206"/>
<polygon fill="black" stroke="black" points="496.709,-486.205 493.783,-476.023 489.72,-485.808 496.709,-486.205"/>
</g>
<!-- TRIM30a/TRIM38 -->
<g id="node45" class="node"><title>TRIM30a/TRIM38</title>
<ellipse fill="none" stroke="black" cx="499.5" cy="-679.279" rx="26.533" ry="26.533"/>
<text text-anchor="middle" x="499.5" y="-678.079" font-family="Times,serif" font-size="4.00">TRIM30a/TRIM38</text>
</g>
<!-- TRIM30a/TRIM38&#45;&gt;pr_8f207122&#45;6a49&#45;4004&#45;aa56&#45;44e08b2bf501 -->
<g id="edge61" class="edge"><title>TRIM30a/TRIM38&#45;&gt;pr_8f207122&#45;6a49&#45;4004&#45;aa56&#45;44e08b2bf501</title>
<path fill="none" stroke="black" d="M499.5,-652.647C499.5,-644.686 499.5,-635.561 499.5,-626.312"/>
<polygon fill="black" stroke="black" points="503,-626.277 499.5,-616.277 496,-626.277 503,-626.277"/>
</g>
<!-- TRIM22 -->
<g id="node47" class="node"><title>TRIM22</title>
<ellipse fill="none" stroke="black" cx="753.5" cy="-449.473" rx="18" ry="18"/>
<text text-anchor="middle" x="753.5" y="-448.273" font-family="Times,serif" font-size="4.00">TRIM22</text>
</g>
<!-- TRIM22&#45;&gt;pr_70ed5a72&#45;cdc2&#45;407b&#45;8942&#45;18e355f866ca -->
<g id="edge62" class="edge"><title>TRIM22&#45;&gt;pr_70ed5a72&#45;cdc2&#45;407b&#45;8942&#45;18e355f866ca</title>
<path fill="none" stroke="black" d="M742.585,-434.795C733.668,-423.621 720.42,-407.02 707.205,-390.459"/>
<polygon fill="black" stroke="black" points="709.712,-387.99 700.739,-382.356 704.241,-392.356 709.712,-387.99"/>
</g>
<!-- TRIM27/TRIM21 -->
<g id="node48" class="node"><title>TRIM27/TRIM21</title>
<ellipse fill="none" stroke="black" cx="570.5" cy="-449.473" rx="25.4118" ry="25.4118"/>
<text text-anchor="middle" x="570.5" y="-448.273" font-family="Times,serif" font-size="4.00">TRIM27/TRIM21</text>
</g>
<!-- TRIM27/TRIM21&#45;&gt;pr_70ed5a72&#45;cdc2&#45;407b&#45;8942&#45;18e355f866ca -->
<g id="edge63" class="edge"><title>TRIM27/TRIM21&#45;&gt;pr_70ed5a72&#45;cdc2&#45;407b&#45;8942&#45;18e355f866ca</title>
<path fill="none" stroke="black" d="M585.937,-428.916C594.415,-418.175 605.413,-404.241 616.382,-390.345"/>
<polygon fill="black" stroke="black" points="619.369,-392.21 622.817,-382.192 613.874,-387.873 619.369,-392.21"/>
</g>
<!-- TRIM29 -->
<g id="node49" class="node"><title>TRIM29</title>
<ellipse fill="none" stroke="black" cx="631.5" cy="-449.473" rx="18" ry="18"/>
<text text-anchor="middle" x="631.5" y="-448.273" font-family="Times,serif" font-size="4.00">TRIM29</text>
</g>
<!-- TRIM29&#45;&gt;pr_70ed5a72&#45;cdc2&#45;407b&#45;8942&#45;18e355f866ca -->
<g id="edge64" class="edge"><title>TRIM29&#45;&gt;pr_70ed5a72&#45;cdc2&#45;407b&#45;8942&#45;18e355f866ca</title>
<path fill="none" stroke="black" d="M635.798,-431.955C638.55,-421.382 642.303,-406.957 646.091,-392.399"/>
<polygon fill="black" stroke="black" points="649.576,-392.904 648.708,-382.345 642.802,-391.141 649.576,-392.904"/>
</g>
<!-- TRIM14/TRIM23 -->
<g id="node50" class="node"><title>TRIM14/TRIM23</title>
<ellipse fill="none" stroke="black" cx="692.5" cy="-449.473" rx="25.4118" ry="25.4118"/>
<text text-anchor="middle" x="692.5" y="-448.273" font-family="Times,serif" font-size="4.00">TRIM14/TRIM23</text>
</g>
<!-- TRIM14/TRIM23&#45;&gt;pr_70ed5a72&#45;cdc2&#45;407b&#45;8942&#45;18e355f866ca -->
<g id="edge65" class="edge"><title>TRIM14/TRIM23&#45;&gt;pr_70ed5a72&#45;cdc2&#45;407b&#45;8942&#45;18e355f866ca</title>
<path fill="none" stroke="black" d="M686.077,-424.585C683.5,-415.001 680.406,-403.495 677.296,-391.929"/>
<polygon fill="black" stroke="black" points="680.668,-390.99 674.691,-382.241 673.908,-392.807 680.668,-390.99"/>
</g>
<!-- pr_e6c9693d&#45;4fc8&#45;4700&#45;97ce&#45;fbc4784e050b&#45;&gt;SERPINF2 -->
<g id="edge66" class="edge"><title>pr_e6c9693d&#45;4fc8&#45;4700&#45;97ce&#45;fbc4784e050b&#45;&gt;SERPINF2</title>
<path fill="none" stroke="black" d="M492.76,-282.657C492.698,-273.506 492.92,-264.228 493.426,-255.981"/>
<polygon fill="black" stroke="black" points="496.929,-256.084 494.256,-245.832 489.953,-255.514 496.929,-256.084"/>
</g>
<!-- pr_dcf1d569&#45;e234&#45;47b1&#45;a127&#45;ef2cafa56a54&#45;&gt;TRAF3 -->
<g id="edge67" class="edge"><title>pr_dcf1d569&#45;e234&#45;47b1&#45;a127&#45;ef2cafa56a54&#45;&gt;TRAF3</title>
<path fill="none" stroke="black" d="M487.233,-1067.19C487.323,-1077.52 487.061,-1088.06 486.446,-1097.19"/>
<polygon fill="black" stroke="black" points="482.959,-1096.88 485.562,-1107.15 489.932,-1097.5 482.959,-1096.88"/>
</g>
<!-- NFKB1 -->
<g id="node54" class="node"><title>NFKB1</title>
<ellipse fill="none" stroke="black" cx="849.5" cy="-18" rx="18" ry="18"/>
<text text-anchor="middle" x="849.5" y="-16.8" font-family="Times,serif" font-size="4.00">NFKB1</text>
</g>
<!-- pr_160c72ec&#45;0899&#45;4b6f&#45;9532&#45;70cda3d85962&#45;&gt;NFKB1 -->
<g id="edge68" class="edge"><title>pr_160c72ec&#45;0899&#45;4b6f&#45;9532&#45;70cda3d85962&#45;&gt;NFKB1</title>
<path fill="none" stroke="black" d="M849.5,-71.7926C849.5,-62.9666 849.5,-54.0689 849.5,-46.1586"/>
<polygon fill="black" stroke="black" points="853,-46.0832 849.5,-36.0833 846,-46.0833 853,-46.0832"/>
</g>
</g>
</svg>
