<?xml version="1.0" encoding="UTF-8" standalone="no"?>
<!DOCTYPE svg PUBLIC "-//W3C//DTD SVG 1.1//EN"
 "http://www.w3.org/Graphics/SVG/1.1/DTD/svg11.dtd">
<!-- Generated by graphviz version 2.38.0 (20140413.2041)
 -->
<!-- Title: G Pages: 1 -->
<svg width="1092pt" height="995pt"
 viewBox="0.00 0.00 1092.00 994.73" xmlns="http://www.w3.org/2000/svg" xmlns:xlink="http://www.w3.org/1999/xlink">
<g id="graph0" class="graph" transform="scale(1 1) rotate(0) translate(4 990.725)">
<title>G</title>
<polygon fill="white" stroke="none" points="-4,4 -4,-990.725 1088,-990.725 1088,4 -4,4"/>
<!-- AP1 -->
<g id="node1" class="node"><title>AP1</title>
<ellipse fill="none" stroke="black" cx="607" cy="-156.884" rx="18" ry="18"/>
<text text-anchor="middle" x="607" y="-155.684" font-family="Times,serif" font-size="4.00">AP1</text>
</g>
<!-- transcription of proinflammatory proteins -->
<g id="node2" class="node"><title>transcription of proinflammatory proteins</title>
<ellipse fill="none" stroke="black" cx="649" cy="-51.442" rx="51.3841" ry="51.3841"/>
<text text-anchor="middle" x="649" y="-50.242" font-family="Times,serif" font-size="4.00">transcription of proinflammatory proteins</text>
</g>
<!-- AP1&#45;&gt;transcription of proinflammatory proteins -->
<g id="edge1" class="edge"><title>AP1&#45;&gt;transcription of proinflammatory proteins</title>
<path fill="none" stroke="black" d="M613.562,-139.721C617.023,-131.198 621.498,-120.177 626.095,-108.855"/>
<polygon fill="black" stroke="black" points="629.447,-109.903 629.966,-99.3205 622.961,-107.269 629.447,-109.903"/>
</g>
<!-- NFKB -->
<g id="node3" class="node"><title>NFKB</title>
<ellipse fill="none" stroke="black" cx="100" cy="-228.884" rx="18" ry="18"/>
<text text-anchor="middle" x="100" y="-227.684" font-family="Times,serif" font-size="4.00">NFKB</text>
</g>
<!-- NFKB&#45;&gt;transcription of proinflammatory proteins -->
<g id="edge2" class="edge"><title>NFKB&#45;&gt;transcription of proinflammatory proteins</title>
<path fill="none" stroke="black" d="M117.032,-222.441C188.664,-199.55 467.427,-110.467 590.288,-71.2044"/>
<polygon fill="black" stroke="black" points="591.46,-74.5044 599.92,-68.1265 589.329,-67.8366 591.46,-74.5044"/>
</g>
<!-- IRF3 -->
<g id="node4" class="node"><title>IRF3</title>
<ellipse fill="none" stroke="black" cx="732" cy="-228.884" rx="18" ry="18"/>
<text text-anchor="middle" x="732" y="-227.684" font-family="Times,serif" font-size="4.00">IRF3</text>
</g>
<!-- IRF3&#45;&gt;transcription of proinflammatory proteins -->
<g id="edge3" class="edge"><title>IRF3&#45;&gt;transcription of proinflammatory proteins</title>
<path fill="none" stroke="black" d="M724.634,-212.315C713.589,-188.967 692.192,-143.74 674.967,-107.331"/>
<polygon fill="black" stroke="black" points="678.127,-105.826 670.687,-98.2831 671.8,-108.819 678.127,-105.826"/>
</g>
<!-- IRF7 -->
<g id="node5" class="node"><title>IRF7</title>
<ellipse fill="none" stroke="black" cx="894" cy="-228.884" rx="18" ry="18"/>
<text text-anchor="middle" x="894" y="-227.684" font-family="Times,serif" font-size="4.00">IRF7</text>
</g>
<!-- IRF7&#45;&gt;transcription of proinflammatory proteins -->
<g id="edge4" class="edge"><title>IRF7&#45;&gt;transcription of proinflammatory proteins</title>
<path fill="none" stroke="black" d="M879.769,-217.693C845.213,-192.948 755.546,-128.738 698.7,-88.032"/>
<polygon fill="black" stroke="black" points="700.73,-85.1806 690.562,-82.2041 696.655,-90.8719 700.73,-85.1806"/>
</g>
<!-- TRAF5 -->
<g id="node6" class="node"><title>TRAF5</title>
<ellipse fill="none" stroke="black" cx="554" cy="-756.687" rx="18" ry="18"/>
<text text-anchor="middle" x="554" y="-755.487" font-family="Times,serif" font-size="4.00">TRAF5</text>
</g>
<!-- MAVS_TRAF -->
<g id="node47" class="node"><title>MAVS_TRAF</title>
<ellipse fill="none" stroke="black" cx="544" cy="-672.427" rx="21.9898" ry="21.9898"/>
<text text-anchor="middle" x="544" y="-671.227" font-family="Times,serif" font-size="4.00">MAVS_TRAF</text>
</g>
<!-- TRAF5&#45;&gt;MAVS_TRAF -->
<g id="edge5" class="edge"><title>TRAF5&#45;&gt;MAVS_TRAF</title>
<path fill="none" stroke="black" d="M551.928,-738.643C550.728,-728.77 549.18,-716.04 547.771,-704.45"/>
<polygon fill="black" stroke="black" points="551.212,-703.747 546.53,-694.243 544.263,-704.592 551.212,-703.747"/>
</g>
<!-- MAP2K4 -->
<g id="node7" class="node"><title>MAP2K4</title>
<ellipse fill="none" stroke="black" cx="634" cy="-307.279" rx="18" ry="18"/>
<text text-anchor="middle" x="634" y="-306.079" font-family="Times,serif" font-size="4.00">MAP2K4</text>
</g>
<!-- JNK -->
<g id="node61" class="node"><title>JNK</title>
<ellipse fill="none" stroke="black" cx="607" cy="-228.884" rx="18" ry="18"/>
<text text-anchor="middle" x="607" y="-227.684" font-family="Times,serif" font-size="4.00">JNK</text>
</g>
<!-- MAP2K4&#45;&gt;JNK -->
<g id="edge6" class="edge"><title>MAP2K4&#45;&gt;JNK</title>
<path fill="none" stroke="black" d="M628.274,-290.078C624.73,-280.051 620.102,-266.956 616.068,-255.541"/>
<polygon fill="black" stroke="black" points="619.35,-254.324 612.718,-246.062 612.75,-256.657 619.35,-254.324"/>
</g>
<!-- TANK_TRAF3_IKBKE -->
<g id="node8" class="node"><title>TANK_TRAF3_IKBKE</title>
<ellipse fill="none" stroke="black" cx="770" cy="-398.964" rx="31.0804" ry="31.0804"/>
<text text-anchor="middle" x="770" y="-397.764" font-family="Times,serif" font-size="4.00">TANK_TRAF3_IKBKE</text>
</g>
<!-- TBK1 -->
<g id="node20" class="node"><title>TBK1</title>
<ellipse fill="none" stroke="black" cx="732" cy="-307.279" rx="18" ry="18"/>
<text text-anchor="middle" x="732" y="-306.079" font-family="Times,serif" font-size="4.00">TBK1</text>
</g>
<!-- TANK_TRAF3_IKBKE&#45;&gt;TBK1 -->
<g id="edge8" class="edge"><title>TANK_TRAF3_IKBKE&#45;&gt;TBK1</title>
<path fill="none" stroke="black" d="M757.977,-369.587C753.066,-357.997 747.433,-344.703 742.671,-333.464"/>
<polygon fill="black" stroke="black" points="745.874,-332.052 738.75,-324.21 739.429,-334.783 745.874,-332.052"/>
</g>
<!-- IKBKE -->
<g id="node37" class="node"><title>IKBKE</title>
<ellipse fill="none" stroke="black" cx="894" cy="-307.279" rx="18" ry="18"/>
<text text-anchor="middle" x="894" y="-306.079" font-family="Times,serif" font-size="4.00">IKBKE</text>
</g>
<!-- TANK_TRAF3_IKBKE&#45;&gt;IKBKE -->
<g id="edge7" class="edge"><title>TANK_TRAF3_IKBKE&#45;&gt;IKBKE</title>
<path fill="none" stroke="black" d="M793.452,-377.943C811.553,-365.223 836.676,-348.113 858,-331.674 861.85,-328.706 865.873,-325.363 869.861,-322.152"/>
<polygon fill="black" stroke="black" points="872.162,-324.797 877.93,-315.91 867.879,-319.26 872.162,-324.797"/>
</g>
<!-- MYD88_IRAK_TRAF -->
<g id="node9" class="node"><title>MYD88_IRAK_TRAF</title>
<ellipse fill="none" stroke="black" cx="966" cy="-499.134" rx="29.8983" ry="29.8983"/>
<text text-anchor="middle" x="966" y="-497.934" font-family="Times,serif" font-size="4.00">MYD88_IRAK_TRAF</text>
</g>
<!-- MYD88_IRAK_TRAF&#45;&gt;IRF7 -->
<g id="edge9" class="edge"><title>MYD88_IRAK_TRAF&#45;&gt;IRF7</title>
<path fill="none" stroke="black" d="M962.493,-469.623C956.802,-427.786 943.828,-347.701 921,-282.884 917.523,-273.013 912.568,-262.651 907.85,-253.735"/>
<polygon fill="black" stroke="black" points="910.782,-251.802 902.904,-244.717 904.644,-255.168 910.782,-251.802"/>
</g>
<!-- TLR8_ssRNA -->
<g id="node10" class="node"><title>TLR8_ssRNA</title>
<ellipse fill="none" stroke="black" cx="958" cy="-672.427" rx="22.05" ry="22.05"/>
<text text-anchor="middle" x="958" y="-671.227" font-family="Times,serif" font-size="4.00">TLR8_ssRNA</text>
</g>
<!-- MYD88 -->
<g id="node55" class="node"><title>MYD88</title>
<ellipse fill="none" stroke="black" cx="958" cy="-590.288" rx="18" ry="18"/>
<text text-anchor="middle" x="958" y="-589.088" font-family="Times,serif" font-size="4.00">MYD88</text>
</g>
<!-- TLR8_ssRNA&#45;&gt;MYD88 -->
<g id="edge10" class="edge"><title>TLR8_ssRNA&#45;&gt;MYD88</title>
<path fill="none" stroke="black" d="M958,-649.951C958,-640.316 958,-628.838 958,-618.601"/>
<polygon fill="black" stroke="black" points="961.5,-618.511 958,-608.511 954.5,-618.511 961.5,-618.511"/>
</g>
<!-- IFIH1 -->
<g id="node11" class="node"><title>IFIH1</title>
<ellipse fill="none" stroke="black" cx="333" cy="-946.42" rx="18" ry="18"/>
<text text-anchor="middle" x="333" y="-945.22" font-family="Times,serif" font-size="4.00">IFIH1</text>
</g>
<!-- IFIH1_dsRNA -->
<g id="node49" class="node"><title>IFIH1_dsRNA</title>
<ellipse fill="none" stroke="black" cx="335" cy="-843.599" rx="22.6101" ry="22.6101"/>
<text text-anchor="middle" x="335" y="-842.399" font-family="Times,serif" font-size="4.00">IFIH1_dsRNA</text>
</g>
<!-- IFIH1&#45;&gt;IFIH1_dsRNA -->
<g id="edge11" class="edge"><title>IFIH1&#45;&gt;IFIH1_dsRNA</title>
<path fill="none" stroke="black" d="M333.339,-928.317C333.618,-914.267 334.021,-893.967 334.36,-876.876"/>
<polygon fill="black" stroke="black" points="337.862,-876.802 334.561,-866.734 330.863,-876.663 337.862,-876.802"/>
</g>
<!-- IKK Complex -->
<g id="node12" class="node"><title>IKK Complex</title>
<ellipse fill="none" stroke="black" cx="323" cy="-398.964" rx="22.6101" ry="22.6101"/>
<text text-anchor="middle" x="323" y="-397.764" font-family="Times,serif" font-size="4.00">IKK Complex</text>
</g>
<!-- NFKB_NFKBIA -->
<g id="node29" class="node"><title>NFKB_NFKBIA</title>
<ellipse fill="none" stroke="black" cx="100" cy="-307.279" rx="24.2908" ry="24.2908"/>
<text text-anchor="middle" x="100" y="-306.079" font-family="Times,serif" font-size="4.00">NFKB_NFKBIA</text>
</g>
<!-- IKK Complex&#45;&gt;NFKB_NFKBIA -->
<g id="edge12" class="edge"><title>IKK Complex&#45;&gt;NFKB_NFKBIA</title>
<path fill="none" stroke="black" d="M302.021,-389.527C262.828,-373.764 178.279,-339.761 131.953,-321.13"/>
<polygon fill="black" stroke="black" points="132.99,-317.775 122.406,-317.29 130.378,-324.269 132.99,-317.775"/>
</g>
<!-- RELA -->
<g id="node13" class="node"><title>RELA</title>
<ellipse fill="none" stroke="black" cx="154" cy="-398.964" rx="18" ry="18"/>
<text text-anchor="middle" x="154" y="-397.764" font-family="Times,serif" font-size="4.00">RELA</text>
</g>
<!-- RELA&#45;&gt;NFKB_NFKBIA -->
<g id="edge13" class="edge"><title>RELA&#45;&gt;NFKB_NFKBIA</title>
<path fill="none" stroke="black" d="M145.083,-383.154C137.571,-370.677 126.602,-352.46 117.364,-337.118"/>
<polygon fill="black" stroke="black" points="120.322,-335.245 112.165,-328.483 114.325,-338.855 120.322,-335.245"/>
</g>
<!-- TRAF3 -->
<g id="node14" class="node"><title>TRAF3</title>
<ellipse fill="none" stroke="black" cx="770" cy="-499.134" rx="18" ry="18"/>
<text text-anchor="middle" x="770" y="-497.934" font-family="Times,serif" font-size="4.00">TRAF3</text>
</g>
<!-- TRAF3&#45;&gt;TANK_TRAF3_IKBKE -->
<g id="edge14" class="edge"><title>TRAF3&#45;&gt;TANK_TRAF3_IKBKE</title>
<path fill="none" stroke="black" d="M770,-481.034C770,-469.806 770,-454.623 770,-440.432"/>
<polygon fill="black" stroke="black" points="773.5,-440.345 770,-430.345 766.5,-440.345 773.5,-440.345"/>
</g>
<!-- M -->
<g id="node15" class="node"><title>M</title>
<ellipse fill="none" stroke="black" cx="450" cy="-946.42" rx="18" ry="18"/>
<text text-anchor="middle" x="450" y="-945.22" font-family="Times,serif" font-size="4.00">M</text>
</g>
<!-- M&#45;&gt;TANK_TRAF3_IKBKE -->
<g id="edge17" class="edge"><title>M&#45;&gt;TANK_TRAF3_IKBKE</title>
<path fill="none" stroke="black" d="M462.587,-933.108C471.125,-925.031 482.846,-914.46 494,-906.115 518.294,-887.941 528.871,-889.75 552,-870.115 640.528,-794.96 724,-789.554 724,-673.427 724,-673.427 724,-673.427 724,-589.288 724,-533.958 728.242,-519.579 743,-466.253 745.681,-456.565 749.364,-446.38 753.148,-436.979"/>
<polygon fill="black" stroke="black" points="756.474,-438.098 757.09,-427.521 750.012,-435.405 756.474,-438.098"/>
</g>
<!-- M&#45;&gt;IKK Complex -->
<g id="edge15" class="edge"><title>M&#45;&gt;IKK Complex</title>
<path fill="none" stroke="black" d="M451.413,-928.349C457.377,-852.545 478.083,-546.617 431,-466.253 414.31,-437.765 380.071,-419.896 354.595,-409.987"/>
<polygon fill="black" stroke="black" points="355.568,-406.616 344.975,-406.455 353.156,-413.187 355.568,-406.616"/>
</g>
<!-- M&#45;&gt;IFIH1_dsRNA -->
<g id="edge18" class="edge"><title>M&#45;&gt;IFIH1_dsRNA</title>
<path fill="none" stroke="black" d="M438.846,-932.158C431.985,-924.283 422.839,-914.275 414,-906.115 397.403,-890.794 377.302,-875.178 361.53,-863.513"/>
<polygon fill="black" stroke="black" points="363.4,-860.545 353.262,-857.466 359.267,-866.195 363.4,-860.545"/>
</g>
<!-- DDX58_dsRNA -->
<g id="node62" class="node"><title>DDX58_dsRNA</title>
<ellipse fill="none" stroke="black" cx="395" cy="-756.687" rx="24.2908" ry="24.2908"/>
<text text-anchor="middle" x="395" y="-755.487" font-family="Times,serif" font-size="4.00">DDX58_dsRNA</text>
</g>
<!-- M&#45;&gt;DDX58_dsRNA -->
<g id="edge16" class="edge"><title>M&#45;&gt;DDX58_dsRNA</title>
<path fill="none" stroke="black" d="M445.119,-928.76C436.006,-897.655 416.261,-830.258 404.456,-789.965"/>
<polygon fill="black" stroke="black" points="407.808,-788.956 401.638,-780.344 401.09,-790.924 407.808,-788.956"/>
</g>
<!-- dsRNA -->
<g id="node16" class="node"><title>dsRNA</title>
<ellipse fill="none" stroke="black" cx="387" cy="-946.42" rx="18" ry="18"/>
<text text-anchor="middle" x="387" y="-945.22" font-family="Times,serif" font-size="4.00">dsRNA</text>
</g>
<!-- EIF2AK2_dsRNA -->
<g id="node24" class="node"><title>EIF2AK2_dsRNA</title>
<ellipse fill="none" stroke="black" cx="268" cy="-843.599" rx="26.533" ry="26.533"/>
<text text-anchor="middle" x="268" y="-842.399" font-family="Times,serif" font-size="4.00">EIF2AK2_dsRNA</text>
</g>
<!-- dsRNA&#45;&gt;EIF2AK2_dsRNA -->
<g id="edge20" class="edge"><title>dsRNA&#45;&gt;EIF2AK2_dsRNA</title>
<path fill="none" stroke="black" d="M378.534,-930.143C373.751,-922.373 367.278,-913.118 360,-906.115 338.408,-885.341 327.786,-886.95 303,-870.115 301.13,-868.845 299.216,-867.521 297.295,-866.174"/>
<polygon fill="black" stroke="black" points="299.111,-863.17 288.937,-860.211 295.045,-868.868 299.111,-863.17"/>
</g>
<!-- dsRNA&#45;&gt;IFIH1_dsRNA -->
<g id="edge19" class="edge"><title>dsRNA&#45;&gt;IFIH1_dsRNA</title>
<path fill="none" stroke="black" d="M379.102,-930.108C371.325,-915.027 359.256,-891.629 349.709,-873.118"/>
<polygon fill="black" stroke="black" points="352.813,-871.501 345.119,-864.217 346.592,-874.709 352.813,-871.501"/>
</g>
<!-- dsRNA&#45;&gt;DDX58_dsRNA -->
<g id="edge22" class="edge"><title>dsRNA&#45;&gt;DDX58_dsRNA</title>
<path fill="none" stroke="black" d="M387.724,-928.429C389.041,-897.524 391.851,-831.594 393.567,-791.306"/>
<polygon fill="black" stroke="black" points="397.071,-791.303 394,-781.163 390.077,-791.005 397.071,-791.303"/>
</g>
<!-- TLR3_dsRNA -->
<g id="node63" class="node"><title>TLR3_dsRNA</title>
<ellipse fill="none" stroke="black" cx="521" cy="-843.599" rx="22.05" ry="22.05"/>
<text text-anchor="middle" x="521" y="-842.399" font-family="Times,serif" font-size="4.00">TLR3_dsRNA</text>
</g>
<!-- dsRNA&#45;&gt;TLR3_dsRNA -->
<g id="edge21" class="edge"><title>dsRNA&#45;&gt;TLR3_dsRNA</title>
<path fill="none" stroke="black" d="M397.863,-931.826C404.621,-923.833 413.76,-913.818 423,-906.115 444.811,-887.933 472.413,-871.075 492.762,-859.622"/>
<polygon fill="black" stroke="black" points="494.501,-862.66 501.554,-854.755 491.11,-856.536 494.501,-862.66"/>
</g>
<!-- MAVS -->
<g id="node17" class="node"><title>MAVS</title>
<ellipse fill="none" stroke="black" cx="335" cy="-756.687" rx="18" ry="18"/>
<text text-anchor="middle" x="335" y="-755.487" font-family="Times,serif" font-size="4.00">MAVS</text>
</g>
<!-- MAVS&#45;&gt;MAVS_TRAF -->
<g id="edge23" class="edge"><title>MAVS&#45;&gt;MAVS_TRAF</title>
<path fill="none" stroke="black" d="M347.109,-743.364C351.508,-739.405 356.705,-735.277 362,-732.292 411.181,-704.562 475.311,-687.701 512.841,-679.503"/>
<polygon fill="black" stroke="black" points="513.629,-682.914 522.687,-677.419 512.179,-676.066 513.629,-682.914"/>
</g>
<!-- MAVS_TRADD -->
<g id="node60" class="node"><title>MAVS_TRADD</title>
<ellipse fill="none" stroke="black" cx="335" cy="-672.427" rx="23.7305" ry="23.7305"/>
<text text-anchor="middle" x="335" y="-671.227" font-family="Times,serif" font-size="4.00">MAVS_TRADD</text>
</g>
<!-- MAVS&#45;&gt;MAVS_TRADD -->
<g id="edge24" class="edge"><title>MAVS&#45;&gt;MAVS_TRADD</title>
<path fill="none" stroke="black" d="M335,-738.643C335,-729.37 335,-717.577 335,-706.575"/>
<polygon fill="black" stroke="black" points="338.5,-706.378 335,-696.378 331.5,-706.378 338.5,-706.378"/>
</g>
<!-- N -->
<g id="node18" class="node"><title>N</title>
<ellipse fill="none" stroke="black" cx="46" cy="-946.42" rx="18" ry="18"/>
<text text-anchor="middle" x="46" y="-945.22" font-family="Times,serif" font-size="4.00">N</text>
</g>
<!-- N&#45;&gt;NFKB -->
<g id="edge26" class="edge"><title>N&#45;&gt;NFKB</title>
<path fill="none" stroke="black" d="M39.4093,-929.668C26.6899,-897.797 0,-823.123 0,-757.687 0,-757.687 0,-757.687 0,-397.964 0,-336.249 50.4088,-277.441 79.6467,-248.522"/>
<polygon fill="black" stroke="black" points="82.156,-250.965 86.9267,-241.505 77.298,-245.925 82.156,-250.965"/>
</g>
<!-- NFKBIA -->
<g id="node22" class="node"><title>NFKBIA</title>
<ellipse fill="none" stroke="black" cx="46" cy="-398.964" rx="18" ry="18"/>
<text text-anchor="middle" x="46" y="-397.764" font-family="Times,serif" font-size="4.00">NFKBIA</text>
</g>
<!-- N&#45;&gt;NFKBIA -->
<g id="edge25" class="edge"><title>N&#45;&gt;NFKBIA</title>
<path fill="none" stroke="black" d="M46,-928.336C46,-895.35 46,-820.591 46,-757.687 46,-757.687 46,-757.687 46,-589.288 46,-531.799 46,-464.489 46,-427.615"/>
<polygon fill="black" stroke="black" points="49.5001,-427.193 46,-417.193 42.5001,-427.193 49.5001,-427.193"/>
</g>
<!-- DDX58 -->
<g id="node41" class="node"><title>DDX58</title>
<ellipse fill="none" stroke="black" cx="205" cy="-843.599" rx="18" ry="18"/>
<text text-anchor="middle" x="205" y="-842.399" font-family="Times,serif" font-size="4.00">DDX58</text>
</g>
<!-- N&#45;&gt;DDX58 -->
<g id="edge27" class="edge"><title>N&#45;&gt;DDX58</title>
<path fill="none" stroke="black" d="M60.9583,-935.935C88.6582,-918.371 148.134,-880.657 181.343,-859.599"/>
<polygon fill="black" stroke="black" points="183.395,-862.443 189.966,-854.132 179.646,-856.531 183.395,-862.443"/>
</g>
<!-- MAP3K7 -->
<g id="node19" class="node"><title>MAP3K7</title>
<ellipse fill="none" stroke="black" cx="575" cy="-398.964" rx="18" ry="18"/>
<text text-anchor="middle" x="575" y="-397.764" font-family="Times,serif" font-size="4.00">MAP3K7</text>
</g>
<!-- MAP3K7&#45;&gt;MAP2K4 -->
<g id="edge28" class="edge"><title>MAP3K7&#45;&gt;MAP2K4</title>
<path fill="none" stroke="black" d="M584.479,-383.554C593.769,-369.433 608.074,-347.689 618.925,-331.194"/>
<polygon fill="black" stroke="black" points="621.972,-332.931 624.544,-322.653 616.124,-329.084 621.972,-332.931"/>
</g>
<!-- MAP2K7 -->
<g id="node36" class="node"><title>MAP2K7</title>
<ellipse fill="none" stroke="black" cx="580" cy="-307.279" rx="18" ry="18"/>
<text text-anchor="middle" x="580" y="-306.079" font-family="Times,serif" font-size="4.00">MAP2K7</text>
</g>
<!-- MAP3K7&#45;&gt;MAP2K7 -->
<g id="edge30" class="edge"><title>MAP3K7&#45;&gt;MAP2K7</title>
<path fill="none" stroke="black" d="M575.964,-380.672C576.677,-367.892 577.661,-350.239 578.479,-335.565"/>
<polygon fill="black" stroke="black" points="581.977,-335.698 579.039,-325.518 574.988,-335.308 581.977,-335.698"/>
</g>
<!-- MAP2K3 -->
<g id="node43" class="node"><title>MAP2K3</title>
<ellipse fill="none" stroke="black" cx="526" cy="-307.279" rx="18" ry="18"/>
<text text-anchor="middle" x="526" y="-306.079" font-family="Times,serif" font-size="4.00">MAP2K3</text>
</g>
<!-- MAP3K7&#45;&gt;MAP2K3 -->
<g id="edge31" class="edge"><title>MAP3K7&#45;&gt;MAP2K3</title>
<path fill="none" stroke="black" d="M566.688,-382.75C559.156,-368.964 547.929,-348.415 539.175,-332.393"/>
<polygon fill="black" stroke="black" points="542.219,-330.665 534.353,-323.568 536.076,-334.021 542.219,-330.665"/>
</g>
<!-- MAP2K6 -->
<g id="node58" class="node"><title>MAP2K6</title>
<ellipse fill="none" stroke="black" cx="472" cy="-307.279" rx="18" ry="18"/>
<text text-anchor="middle" x="472" y="-306.079" font-family="Times,serif" font-size="4.00">MAP2K6</text>
</g>
<!-- MAP3K7&#45;&gt;MAP2K6 -->
<g id="edge29" class="edge"><title>MAP3K7&#45;&gt;MAP2K6</title>
<path fill="none" stroke="black" d="M561.535,-386.239C544.012,-370.982 513.216,-344.167 492.71,-326.312"/>
<polygon fill="black" stroke="black" points="494.983,-323.65 485.143,-319.723 490.386,-328.93 494.983,-323.65"/>
</g>
<!-- TBK1&#45;&gt;IRF3 -->
<g id="edge32" class="edge"><title>TBK1&#45;&gt;IRF3</title>
<path fill="none" stroke="black" d="M732,-288.944C732,-279.501 732,-267.604 732,-256.967"/>
<polygon fill="black" stroke="black" points="735.5,-256.887 732,-246.888 728.5,-256.888 735.5,-256.887"/>
</g>
<!-- TLR7 -->
<g id="node21" class="node"><title>TLR7</title>
<ellipse fill="none" stroke="black" cx="1064" cy="-756.687" rx="18" ry="18"/>
<text text-anchor="middle" x="1064" y="-755.487" font-family="Times,serif" font-size="4.00">TLR7</text>
</g>
<!-- TLR7_ssRNA -->
<g id="node23" class="node"><title>TLR7_ssRNA</title>
<ellipse fill="none" stroke="black" cx="1021" cy="-672.427" rx="22.05" ry="22.05"/>
<text text-anchor="middle" x="1021" y="-671.227" font-family="Times,serif" font-size="4.00">TLR7_ssRNA</text>
</g>
<!-- TLR7&#45;&gt;TLR7_ssRNA -->
<g id="edge33" class="edge"><title>TLR7&#45;&gt;TLR7_ssRNA</title>
<path fill="none" stroke="black" d="M1055.91,-740.214C1050.23,-729.354 1042.48,-714.519 1035.72,-701.589"/>
<polygon fill="black" stroke="black" points="1038.75,-699.836 1031.02,-692.595 1032.55,-703.078 1038.75,-699.836"/>
</g>
<!-- NFKBIA&#45;&gt;NFKB_NFKBIA -->
<g id="edge34" class="edge"><title>NFKBIA&#45;&gt;NFKB_NFKBIA</title>
<path fill="none" stroke="black" d="M50.5404,-381.514C56.9722,-368.325 67.9887,-349.57 78.1143,-334.341"/>
<polygon fill="black" stroke="black" points="81.1665,-336.079 83.9318,-325.851 75.3921,-332.122 81.1665,-336.079"/>
</g>
<!-- TLR7_ssRNA&#45;&gt;MYD88 -->
<g id="edge35" class="edge"><title>TLR7_ssRNA&#45;&gt;MYD88</title>
<path fill="none" stroke="black" d="M1007.64,-654.432C998.158,-642.371 985.351,-626.079 975.12,-613.066"/>
<polygon fill="black" stroke="black" points="977.762,-610.763 968.83,-605.064 972.259,-615.089 977.762,-610.763"/>
</g>
<!-- EIF2AK2_dsRNA&#45;&gt;MAP2K6 -->
<g id="edge36" class="edge"><title>EIF2AK2_dsRNA&#45;&gt;MAP2K6</title>
<path fill="none" stroke="black" d="M246.34,-827.915C210.315,-801.551 142,-742.458 142,-673.427 142,-673.427 142,-673.427 142,-589.288 142,-533.958 132.666,-513.778 161,-466.253 198.132,-403.971 226.782,-401.347 291,-367.674 342.318,-340.766 408.172,-322.869 444.628,-314.253"/>
<polygon fill="black" stroke="black" points="445.564,-317.629 454.523,-311.973 443.992,-310.808 445.564,-317.629"/>
</g>
<!-- IRAK4 -->
<g id="node25" class="node"><title>IRAK4</title>
<ellipse fill="none" stroke="black" cx="1012" cy="-590.288" rx="18" ry="18"/>
<text text-anchor="middle" x="1012" y="-589.088" font-family="Times,serif" font-size="4.00">IRAK4</text>
</g>
<!-- IRAK4&#45;&gt;MYD88_IRAK_TRAF -->
<g id="edge37" class="edge"><title>IRAK4&#45;&gt;MYD88_IRAK_TRAF</title>
<path fill="none" stroke="black" d="M1003.99,-573.759C998.466,-563.057 990.904,-548.4 983.979,-534.98"/>
<polygon fill="black" stroke="black" points="987.016,-533.233 979.321,-525.951 980.795,-536.443 987.016,-533.233"/>
</g>
<!-- Orf9 -->
<g id="node26" class="node"><title>Orf9</title>
<ellipse fill="none" stroke="black" cx="954" cy="-946.42" rx="18" ry="18"/>
<text text-anchor="middle" x="954" y="-945.22" font-family="Times,serif" font-size="4.00">Orf9</text>
</g>
<!-- ITCH -->
<g id="node44" class="node"><title>ITCH</title>
<ellipse fill="none" stroke="black" cx="954" cy="-843.599" rx="18" ry="18"/>
<text text-anchor="middle" x="954" y="-842.399" font-family="Times,serif" font-size="4.00">ITCH</text>
</g>
<!-- Orf9&#45;&gt;ITCH -->
<g id="edge38" class="edge"><title>Orf9&#45;&gt;ITCH</title>
<path fill="none" stroke="black" d="M954,-928.317C954,-912.891 954,-889.934 954,-871.959"/>
<polygon fill="black" stroke="black" points="957.5,-871.785 954,-861.786 950.5,-871.786 957.5,-871.785"/>
</g>
<!-- TICAM1 -->
<g id="node27" class="node"><title>TICAM1</title>
<ellipse fill="none" stroke="black" cx="640" cy="-672.427" rx="18" ry="18"/>
<text text-anchor="middle" x="640" y="-671.227" font-family="Times,serif" font-size="4.00">TICAM1</text>
</g>
<!-- TICAM1_TRAF3_TRAF6 -->
<g id="node54" class="node"><title>TICAM1_TRAF3_TRAF6</title>
<ellipse fill="none" stroke="black" cx="625" cy="-499.134" rx="32.7614" ry="32.7614"/>
<text text-anchor="middle" x="625" y="-497.934" font-family="Times,serif" font-size="4.00">TICAM1_TRAF3_TRAF6</text>
</g>
<!-- TICAM1&#45;&gt;TICAM1_TRAF3_TRAF6 -->
<g id="edge39" class="edge"><title>TICAM1&#45;&gt;TICAM1_TRAF3_TRAF6</title>
<path fill="none" stroke="black" d="M638.507,-654.376C636.241,-628.498 631.863,-578.506 628.705,-542.439"/>
<polygon fill="black" stroke="black" points="632.167,-541.859 627.808,-532.202 625.194,-542.469 632.167,-541.859"/>
</g>
<!-- IKBKB -->
<g id="node28" class="node"><title>IKBKB</title>
<ellipse fill="none" stroke="black" cx="404" cy="-499.134" rx="18" ry="18"/>
<text text-anchor="middle" x="404" y="-497.934" font-family="Times,serif" font-size="4.00">IKBKB</text>
</g>
<!-- IKBKB&#45;&gt;IKK Complex -->
<g id="edge40" class="edge"><title>IKBKB&#45;&gt;IKK Complex</title>
<path fill="none" stroke="black" d="M392.737,-484.484C380.09,-469.155 359.297,-443.955 343.701,-425.053"/>
<polygon fill="black" stroke="black" points="346.225,-422.613 337.161,-417.127 340.826,-427.068 346.225,-422.613"/>
</g>
<!-- NFKB_NFKBIA&#45;&gt;NFKB -->
<g id="edge42" class="edge"><title>NFKB_NFKBIA&#45;&gt;NFKB</title>
<path fill="none" stroke="black" d="M100,-282.526C100,-274.608 100,-265.718 100,-257.53"/>
<polygon fill="black" stroke="black" points="103.5,-257.312 100,-247.312 96.5001,-257.312 103.5,-257.312"/>
</g>
<!-- NFKB_NFKBIA&#45;&gt;NFKBIA -->
<g id="edge41" class="edge"><title>NFKB_NFKBIA&#45;&gt;NFKBIA</title>
<path fill="none" stroke="black" d="M92.4583,-330.657C85.03,-344.871 73.9869,-363.143 64.3948,-377.062"/>
<polygon fill="black" stroke="black" points="61.3328,-375.326 58.3534,-385.494 67.0229,-379.403 61.3328,-375.326"/>
</g>
<!-- ubiquitin&#45;proteasome complex -->
<g id="node30" class="node"><title>ubiquitin&#45;proteasome complex</title>
<ellipse fill="none" stroke="black" cx="1030" cy="-946.42" rx="40.1111" ry="40.1111"/>
<text text-anchor="middle" x="1030" y="-945.22" font-family="Times,serif" font-size="4.00">ubiquitin&#45;proteasome complex</text>
</g>
<!-- MAPK14 -->
<g id="node31" class="node"><title>MAPK14</title>
<ellipse fill="none" stroke="black" cx="526" cy="-228.884" rx="18" ry="18"/>
<text text-anchor="middle" x="526" y="-227.684" font-family="Times,serif" font-size="4.00">MAPK14</text>
</g>
<!-- MAPK14&#45;&gt;AP1 -->
<g id="edge43" class="edge"><title>MAPK14&#45;&gt;AP1</title>
<path fill="none" stroke="black" d="M539.376,-216.325C552.114,-205.316 571.479,-188.581 586.227,-175.836"/>
<polygon fill="black" stroke="black" points="588.596,-178.415 593.873,-169.228 584.019,-173.119 588.596,-178.415"/>
</g>
<!-- CASP8 -->
<g id="node32" class="node"><title>CASP8</title>
<ellipse fill="none" stroke="black" cx="350" cy="-499.134" rx="18" ry="18"/>
<text text-anchor="middle" x="350" y="-497.934" font-family="Times,serif" font-size="4.00">CASP8</text>
</g>
<!-- CASP8&#45;&gt;IKK Complex -->
<g id="edge44" class="edge"><title>CASP8&#45;&gt;IKK Complex</title>
<path fill="none" stroke="black" d="M345.42,-481.481C341.632,-467.709 336.149,-447.772 331.553,-431.063"/>
<polygon fill="black" stroke="black" points="334.856,-429.873 328.83,-421.16 328.107,-431.73 334.856,-429.873"/>
</g>
<!-- TANK -->
<g id="node33" class="node"><title>TANK</title>
<ellipse fill="none" stroke="black" cx="824" cy="-499.134" rx="18" ry="18"/>
<text text-anchor="middle" x="824" y="-497.934" font-family="Times,serif" font-size="4.00">TANK</text>
</g>
<!-- TANK&#45;&gt;TANK_TRAF3_IKBKE -->
<g id="edge45" class="edge"><title>TANK&#45;&gt;TANK_TRAF3_IKBKE</title>
<path fill="none" stroke="black" d="M815.562,-482.795C808.605,-470.146 798.459,-451.702 789.507,-435.427"/>
<polygon fill="black" stroke="black" points="792.571,-433.735 784.684,-426.66 786.437,-437.108 792.571,-433.735"/>
</g>
<!-- IRAK1 -->
<g id="node34" class="node"><title>IRAK1</title>
<ellipse fill="none" stroke="black" cx="1066" cy="-590.288" rx="18" ry="18"/>
<text text-anchor="middle" x="1066" y="-589.088" font-family="Times,serif" font-size="4.00">IRAK1</text>
</g>
<!-- IRAK1&#45;&gt;MYD88_IRAK_TRAF -->
<g id="edge46" class="edge"><title>IRAK1&#45;&gt;MYD88_IRAK_TRAF</title>
<path fill="none" stroke="black" d="M1052.93,-577.633C1038.41,-564.69 1014.51,-543.38 995.438,-526.379"/>
<polygon fill="black" stroke="black" points="997.662,-523.672 987.868,-519.63 993.003,-528.897 997.662,-523.672"/>
</g>
<!-- ssRNA -->
<g id="node35" class="node"><title>ssRNA</title>
<ellipse fill="none" stroke="black" cx="1010" cy="-756.687" rx="18" ry="18"/>
<text text-anchor="middle" x="1010" y="-755.487" font-family="Times,serif" font-size="4.00">ssRNA</text>
</g>
<!-- ssRNA&#45;&gt;TLR8_ssRNA -->
<g id="edge48" class="edge"><title>ssRNA&#45;&gt;TLR8_ssRNA</title>
<path fill="none" stroke="black" d="M1000.7,-740.98C993.562,-729.684 983.506,-713.775 974.945,-700.233"/>
<polygon fill="black" stroke="black" points="977.884,-698.331 969.582,-691.748 971.967,-702.071 977.884,-698.331"/>
</g>
<!-- ssRNA&#45;&gt;TLR7_ssRNA -->
<g id="edge47" class="edge"><title>ssRNA&#45;&gt;TLR7_ssRNA</title>
<path fill="none" stroke="black" d="M1012.28,-738.643C1013.59,-728.842 1015.28,-716.225 1016.82,-704.704"/>
<polygon fill="black" stroke="black" points="1020.32,-704.92 1018.18,-694.544 1013.38,-703.992 1020.32,-704.92"/>
</g>
<!-- MAP2K7&#45;&gt;JNK -->
<g id="edge49" class="edge"><title>MAP2K7&#45;&gt;JNK</title>
<path fill="none" stroke="black" d="M585.726,-290.078C589.27,-280.051 593.898,-266.956 597.932,-255.541"/>
<polygon fill="black" stroke="black" points="601.25,-256.657 601.282,-246.062 594.65,-254.324 601.25,-256.657"/>
</g>
<!-- IKBKE&#45;&gt;IRF7 -->
<g id="edge51" class="edge"><title>IKBKE&#45;&gt;IRF7</title>
<path fill="none" stroke="black" d="M894,-288.944C894,-279.501 894,-267.604 894,-256.967"/>
<polygon fill="black" stroke="black" points="897.5,-256.887 894,-246.888 890.5,-256.888 897.5,-256.887"/>
</g>
<!-- IKBKE&#45;&gt;TANK_TRAF3_IKBKE -->
<g id="edge50" class="edge"><title>IKBKE&#45;&gt;TANK_TRAF3_IKBKE</title>
<path fill="none" stroke="black" d="M885.939,-323.433C882.811,-326.242 879.34,-329.099 876,-331.674 853.808,-348.782 827.501,-366.618 806.495,-379.474"/>
<polygon fill="black" stroke="black" points="804.62,-376.517 797.845,-384.662 808.221,-382.52 804.62,-376.517"/>
</g>
<!-- TRAF2 -->
<g id="node38" class="node"><title>TRAF2</title>
<ellipse fill="none" stroke="black" cx="500" cy="-756.687" rx="18" ry="18"/>
<text text-anchor="middle" x="500" y="-755.487" font-family="Times,serif" font-size="4.00">TRAF2</text>
</g>
<!-- TRAF2&#45;&gt;MAVS_TRAF -->
<g id="edge52" class="edge"><title>TRAF2&#45;&gt;MAVS_TRAF</title>
<path fill="none" stroke="black" d="M508.276,-740.214C514.165,-729.204 522.24,-714.109 529.222,-701.055"/>
<polygon fill="black" stroke="black" points="532.436,-702.467 534.066,-691.998 526.264,-699.165 532.436,-702.467"/>
</g>
<!-- NFKB1 -->
<g id="node39" class="node"><title>NFKB1</title>
<ellipse fill="none" stroke="black" cx="100" cy="-398.964" rx="18" ry="18"/>
<text text-anchor="middle" x="100" y="-397.764" font-family="Times,serif" font-size="4.00">NFKB1</text>
</g>
<!-- NFKB1&#45;&gt;NFKB_NFKBIA -->
<g id="edge53" class="edge"><title>NFKB1&#45;&gt;NFKB_NFKBIA</title>
<path fill="none" stroke="black" d="M100,-380.672C100,-369.747 100,-355.261 100,-342.118"/>
<polygon fill="black" stroke="black" points="103.5,-341.96 100,-331.96 96.5001,-341.96 103.5,-341.96"/>
</g>
<!-- Orf3b -->
<g id="node40" class="node"><title>Orf3b</title>
<ellipse fill="none" stroke="black" cx="840" cy="-307.279" rx="18" ry="18"/>
<text text-anchor="middle" x="840" y="-306.079" font-family="Times,serif" font-size="4.00">Orf3b</text>
</g>
<!-- Orf3b&#45;&gt;IRF3 -->
<g id="edge54" class="edge"><title>Orf3b&#45;&gt;IRF3</title>
<path fill="none" stroke="black" d="M827.112,-294.491C822.737,-290.659 817.752,-286.472 813,-282.884 794.501,-268.917 772.422,-254.615 755.992,-244.394"/>
<polygon fill="black" stroke="black" points="757.39,-241.144 747.04,-238.88 753.719,-247.105 757.39,-241.144"/>
</g>
<!-- DDX58&#45;&gt;MAVS -->
<g id="edge55" class="edge"><title>DDX58&#45;&gt;MAVS</title>
<path fill="none" stroke="black" d="M216.928,-829.776C221.392,-825.412 226.676,-820.723 232,-817.082 262.852,-795.985 276.699,-801.508 308,-781.082 310.182,-779.658 312.374,-778.072 314.515,-776.415"/>
<polygon fill="black" stroke="black" points="316.938,-778.953 322.386,-769.866 312.461,-773.571 316.938,-778.953"/>
</g>
<!-- DDX58&#45;&gt;DDX58_dsRNA -->
<g id="edge56" class="edge"><title>DDX58&#45;&gt;DDX58_dsRNA</title>
<path fill="none" stroke="black" d="M210.908,-826.33C214.4,-822.888 218.619,-819.554 223,-817.082 275.216,-787.624 298.846,-806.804 353,-781.082 357.034,-779.166 361.1,-776.758 365.072,-774.221"/>
<polygon fill="black" stroke="black" points="367.157,-777.038 373.565,-768.602 363.294,-771.201 367.157,-777.038"/>
</g>
<!-- RIPK1_FADD -->
<g id="node42" class="node"><title>RIPK1_FADD</title>
<ellipse fill="none" stroke="black" cx="335" cy="-590.288" rx="22.05" ry="22.05"/>
<text text-anchor="middle" x="335" y="-589.088" font-family="Times,serif" font-size="4.00">RIPK1_FADD</text>
</g>
<!-- RIPK1_FADD&#45;&gt;CASP8 -->
<g id="edge57" class="edge"><title>RIPK1_FADD&#45;&gt;CASP8</title>
<path fill="none" stroke="black" d="M338.555,-568.16C340.633,-555.808 343.276,-540.098 345.499,-526.889"/>
<polygon fill="black" stroke="black" points="348.964,-527.384 347.172,-516.942 342.061,-526.223 348.964,-527.384"/>
</g>
<!-- CASP10 -->
<g id="node57" class="node"><title>CASP10</title>
<ellipse fill="none" stroke="black" cx="242" cy="-499.134" rx="18" ry="18"/>
<text text-anchor="middle" x="242" y="-497.934" font-family="Times,serif" font-size="4.00">CASP10</text>
</g>
<!-- RIPK1_FADD&#45;&gt;CASP10 -->
<g id="edge58" class="edge"><title>RIPK1_FADD&#45;&gt;CASP10</title>
<path fill="none" stroke="black" d="M317.819,-575.609C304.11,-564.408 284.674,-547.878 269,-532.014 265.758,-528.733 262.461,-525.115 259.336,-521.529"/>
<polygon fill="black" stroke="black" points="261.99,-519.248 252.857,-513.876 256.647,-523.77 261.99,-519.248"/>
</g>
<!-- MAP2K3&#45;&gt;MAPK14 -->
<g id="edge59" class="edge"><title>MAP2K3&#45;&gt;MAPK14</title>
<path fill="none" stroke="black" d="M526,-288.944C526,-279.501 526,-267.604 526,-256.967"/>
<polygon fill="black" stroke="black" points="529.5,-256.887 526,-246.888 522.5,-256.888 529.5,-256.887"/>
</g>
<!-- EIF2AK2 -->
<g id="node45" class="node"><title>EIF2AK2</title>
<ellipse fill="none" stroke="black" cx="225" cy="-946.42" rx="18.0625" ry="18.0625"/>
<text text-anchor="middle" x="225" y="-945.22" font-family="Times,serif" font-size="4.00">EIF2AK2</text>
</g>
<!-- EIF2AK2&#45;&gt;EIF2AK2_dsRNA -->
<g id="edge60" class="edge"><title>EIF2AK2&#45;&gt;EIF2AK2_dsRNA</title>
<path fill="none" stroke="black" d="M231.719,-929.667C237.618,-915.835 246.395,-895.256 253.838,-877.803"/>
<polygon fill="black" stroke="black" points="257.106,-879.063 257.81,-868.492 250.667,-876.317 257.106,-879.063"/>
</g>
<!-- CHUK -->
<g id="node46" class="node"><title>CHUK</title>
<ellipse fill="none" stroke="black" cx="188" cy="-499.134" rx="18" ry="18"/>
<text text-anchor="middle" x="188" y="-497.934" font-family="Times,serif" font-size="4.00">CHUK</text>
</g>
<!-- CHUK&#45;&gt;IKK Complex -->
<g id="edge61" class="edge"><title>CHUK&#45;&gt;IKK Complex</title>
<path fill="none" stroke="black" d="M198.167,-484.242C202.897,-478.308 208.836,-471.544 215,-466.253 239.248,-445.441 270.748,-426.906 293.465,-414.763"/>
<polygon fill="black" stroke="black" points="295.386,-417.708 302.616,-409.963 292.134,-411.509 295.386,-417.708"/>
</g>
<!-- TRAF6 -->
<g id="node51" class="node"><title>TRAF6</title>
<ellipse fill="none" stroke="black" cx="564" cy="-590.288" rx="18" ry="18"/>
<text text-anchor="middle" x="564" y="-589.088" font-family="Times,serif" font-size="4.00">TRAF6</text>
</g>
<!-- MAVS_TRAF&#45;&gt;TRAF6 -->
<g id="edge62" class="edge"><title>MAVS_TRAF&#45;&gt;TRAF6</title>
<path fill="none" stroke="black" d="M543.232,-650.371C545.022,-639.649 548.212,-626.561 551.723,-615.432"/>
<polygon fill="black" stroke="black" points="555.063,-616.48 555.006,-605.885 548.444,-614.203 555.063,-616.48"/>
</g>
<!-- TLR8 -->
<g id="node48" class="node"><title>TLR8</title>
<ellipse fill="none" stroke="black" cx="956" cy="-756.687" rx="18" ry="18"/>
<text text-anchor="middle" x="956" y="-755.487" font-family="Times,serif" font-size="4.00">TLR8</text>
</g>
<!-- TLR8&#45;&gt;TLR8_ssRNA -->
<g id="edge63" class="edge"><title>TLR8&#45;&gt;TLR8_ssRNA</title>
<path fill="none" stroke="black" d="M956.414,-738.643C956.651,-728.914 956.955,-716.411 957.233,-704.959"/>
<polygon fill="black" stroke="black" points="960.735,-704.929 957.479,-694.847 953.737,-704.759 960.735,-704.929"/>
</g>
<!-- IFIH1_dsRNA&#45;&gt;MAVS -->
<g id="edge64" class="edge"><title>IFIH1_dsRNA&#45;&gt;MAVS</title>
<path fill="none" stroke="black" d="M335,-820.732C335,-809.822 335,-796.518 335,-784.948"/>
<polygon fill="black" stroke="black" points="338.5,-784.929 335,-774.929 331.5,-784.929 338.5,-784.929"/>
</g>
<!-- Nsp3 -->
<g id="node50" class="node"><title>Nsp3</title>
<ellipse fill="none" stroke="black" cx="667" cy="-946.42" rx="18" ry="18"/>
<text text-anchor="middle" x="667" y="-945.22" font-family="Times,serif" font-size="4.00">Nsp3</text>
</g>
<!-- Nsp3&#45;&gt;IRF3 -->
<g id="edge69" class="edge"><title>Nsp3&#45;&gt;IRF3</title>
<path fill="none" stroke="black" d="M669.886,-928.395C675.201,-895.508 686,-820.912 686,-757.687 686,-757.687 686,-757.687 686,-397.964 686,-346.125 688.821,-332.134 705,-282.884 708.266,-272.941 713.178,-262.565 717.92,-253.656"/>
<polygon fill="black" stroke="black" points="721.123,-255.098 722.914,-244.655 715.002,-251.702 721.123,-255.098"/>
</g>
<!-- Nsp3&#45;&gt;TANK_TRAF3_IKBKE -->
<g id="edge68" class="edge"><title>Nsp3&#45;&gt;TANK_TRAF3_IKBKE</title>
<path fill="none" stroke="black" d="M683.612,-939.446C732.095,-920.83 870,-858.975 870,-757.687 870,-757.687 870,-757.687 870,-589.288 870,-533.958 878.448,-514.295 851,-466.253 840.253,-447.443 821.949,-431.776 805.457,-420.404"/>
<polygon fill="black" stroke="black" points="807.322,-417.442 797.048,-414.855 803.467,-423.284 807.322,-417.442"/>
</g>
<!-- Nsp3&#45;&gt;IKBKE -->
<g id="edge65" class="edge"><title>Nsp3&#45;&gt;IKBKE</title>
<path fill="none" stroke="black" d="M684.587,-942.063C719.249,-934.655 797.246,-913.968 846,-870.115 888.425,-831.955 908,-814.749 908,-757.687 908,-757.687 908,-757.687 908,-498.134 908,-440.177 901.431,-372.537 897.292,-335.674"/>
<polygon fill="black" stroke="black" points="900.715,-334.802 896.096,-325.267 893.761,-335.601 900.715,-334.802"/>
</g>
<!-- Nsp3&#45;&gt;IFIH1_dsRNA -->
<g id="edge70" class="edge"><title>Nsp3&#45;&gt;IFIH1_dsRNA</title>
<path fill="none" stroke="black" d="M650.117,-939.62C627.11,-931.768 584.582,-917.435 548,-906.115 483.933,-886.291 408.409,-864.956 366.7,-853.349"/>
<polygon fill="black" stroke="black" points="367.424,-849.918 356.852,-850.615 365.551,-856.663 367.424,-849.918"/>
</g>
<!-- Nsp3&#45;&gt;TRAF6 -->
<g id="edge66" class="edge"><title>Nsp3&#45;&gt;TRAF6</title>
<path fill="none" stroke="black" d="M662.17,-928.815C645.714,-872.235 591.744,-686.675 571.638,-617.55"/>
<polygon fill="black" stroke="black" points="574.973,-616.482 568.819,-607.858 568.251,-618.437 574.973,-616.482"/>
</g>
<!-- Nsp3&#45;&gt;DDX58_dsRNA -->
<g id="edge67" class="edge"><title>Nsp3&#45;&gt;DDX58_dsRNA</title>
<path fill="none" stroke="black" d="M657.359,-930.636C639.522,-904.348 598.885,-849.221 552,-817.082 531.325,-802.91 467.543,-780.964 427.923,-768.092"/>
<polygon fill="black" stroke="black" points="428.762,-764.685 418.17,-764.948 426.614,-771.348 428.762,-764.685"/>
</g>
<!-- TRAF6&#45;&gt;MYD88_IRAK_TRAF -->
<g id="edge75" class="edge"><title>TRAF6&#45;&gt;MYD88_IRAK_TRAF</title>
<path fill="none" stroke="black" d="M581.569,-586.247C626.589,-578.352 749.673,-556.135 851,-532.014 876.868,-525.856 905.703,-517.86 928.028,-511.416"/>
<polygon fill="black" stroke="black" points="929.169,-514.73 937.794,-508.577 927.214,-508.008 929.169,-514.73"/>
</g>
<!-- TRAF6&#45;&gt;IKK Complex -->
<g id="edge72" class="edge"><title>TRAF6&#45;&gt;IKK Complex</title>
<path fill="none" stroke="black" d="M554.957,-574.204C539.212,-549 504.54,-497.97 464,-466.253 430.313,-439.898 384.446,-420.81 354.299,-410.066"/>
<polygon fill="black" stroke="black" points="355.312,-406.713 344.718,-406.744 353.019,-413.327 355.312,-406.713"/>
</g>
<!-- TRAF6&#45;&gt;MAP3K7 -->
<g id="edge71" class="edge"><title>TRAF6&#45;&gt;MAP3K7</title>
<path fill="none" stroke="black" d="M564.996,-572.153C566.909,-539.218 571.114,-466.839 573.417,-427.214"/>
<polygon fill="black" stroke="black" points="576.913,-427.383 573.999,-417.197 569.925,-426.977 576.913,-427.383"/>
</g>
<!-- TRAF6&#45;&gt;MAVS_TRAF -->
<g id="edge73" class="edge"><title>TRAF6&#45;&gt;MAVS_TRAF</title>
<path fill="none" stroke="black" d="M565.391,-608.305C563.958,-618.513 560.932,-631.745 557.449,-643.457"/>
<polygon fill="black" stroke="black" points="554.032,-642.651 554.299,-653.242 560.695,-644.796 554.032,-642.651"/>
</g>
<!-- TRAF6&#45;&gt;TICAM1_TRAF3_TRAF6 -->
<g id="edge74" class="edge"><title>TRAF6&#45;&gt;TICAM1_TRAF3_TRAF6</title>
<path fill="none" stroke="black" d="M573.801,-574.964C581.164,-564.203 591.574,-548.988 601.086,-535.085"/>
<polygon fill="black" stroke="black" points="604.1,-536.879 606.858,-526.649 598.323,-532.926 604.1,-536.879"/>
</g>
<!-- Nsp15 -->
<g id="node52" class="node"><title>Nsp15</title>
<ellipse fill="none" stroke="black" cx="279" cy="-946.42" rx="18" ry="18"/>
<text text-anchor="middle" x="279" y="-945.22" font-family="Times,serif" font-size="4.00">Nsp15</text>
</g>
<!-- Nsp15&#45;&gt;EIF2AK2_dsRNA -->
<g id="edge76" class="edge"><title>Nsp15&#45;&gt;EIF2AK2_dsRNA</title>
<path fill="none" stroke="black" d="M277.134,-928.317C275.706,-915.229 273.686,-896.718 271.909,-880.429"/>
<polygon fill="black" stroke="black" points="275.349,-879.687 270.785,-870.126 268.39,-880.446 275.349,-879.687"/>
</g>
<!-- Nsp15&#45;&gt;IFIH1_dsRNA -->
<g id="edge77" class="edge"><title>Nsp15&#45;&gt;IFIH1_dsRNA</title>
<path fill="none" stroke="black" d="M287.505,-930.108C295.934,-914.933 309.04,-891.336 319.352,-872.771"/>
<polygon fill="black" stroke="black" points="322.507,-874.299 324.303,-863.857 316.388,-870.9 322.507,-874.299"/>
</g>
<!-- Orf8 -->
<g id="node53" class="node"><title>Orf8</title>
<ellipse fill="none" stroke="black" cx="786" cy="-307.279" rx="18" ry="18"/>
<text text-anchor="middle" x="786" y="-306.079" font-family="Times,serif" font-size="4.00">Orf8</text>
</g>
<!-- Orf8&#45;&gt;IRF3 -->
<g id="edge78" class="edge"><title>Orf8&#45;&gt;IRF3</title>
<path fill="none" stroke="black" d="M775.843,-291.91C767.949,-280.742 756.857,-265.05 747.805,-252.244"/>
<polygon fill="black" stroke="black" points="750.559,-250.077 741.929,-243.931 744.843,-254.117 750.559,-250.077"/>
</g>
<!-- TICAM1_TRAF3_TRAF6&#45;&gt;TANK_TRAF3_IKBKE -->
<g id="edge80" class="edge"><title>TICAM1_TRAF3_TRAF6&#45;&gt;TANK_TRAF3_IKBKE</title>
<path fill="none" stroke="black" d="M651.934,-479.899C675.627,-463.858 710.239,-440.424 735.867,-423.073"/>
<polygon fill="black" stroke="black" points="737.867,-425.946 744.185,-417.441 733.942,-420.149 737.867,-425.946"/>
</g>
<!-- TICAM1_TRAF3_TRAF6&#45;&gt;MAP3K7 -->
<g id="edge79" class="edge"><title>TICAM1_TRAF3_TRAF6&#45;&gt;MAP3K7</title>
<path fill="none" stroke="black" d="M610.404,-469.475C603.167,-455.266 594.514,-438.278 587.575,-424.653"/>
<polygon fill="black" stroke="black" points="590.527,-422.737 582.869,-415.414 584.289,-425.914 590.527,-422.737"/>
</g>
<!-- MYD88&#45;&gt;MYD88_IRAK_TRAF -->
<g id="edge81" class="edge"><title>MYD88&#45;&gt;MYD88_IRAK_TRAF</title>
<path fill="none" stroke="black" d="M959.542,-572.098C960.392,-562.627 961.484,-550.464 962.527,-538.842"/>
<polygon fill="black" stroke="black" points="966.016,-539.122 963.423,-528.849 959.044,-538.496 966.016,-539.122"/>
</g>
<!-- TRADD -->
<g id="node56" class="node"><title>TRADD</title>
<ellipse fill="none" stroke="black" cx="281" cy="-756.687" rx="18" ry="18"/>
<text text-anchor="middle" x="281" y="-755.487" font-family="Times,serif" font-size="4.00">TRADD</text>
</g>
<!-- TRADD&#45;&gt;MAVS_TRADD -->
<g id="edge82" class="edge"><title>TRADD&#45;&gt;MAVS_TRADD</title>
<path fill="none" stroke="black" d="M290.654,-740.98C297.871,-729.987 307.955,-714.626 316.684,-701.329"/>
<polygon fill="black" stroke="black" points="319.618,-703.236 322.18,-692.956 313.767,-699.395 319.618,-703.236"/>
</g>
<!-- CASP10&#45;&gt;IKK Complex -->
<g id="edge83" class="edge"><title>CASP10&#45;&gt;IKK Complex</title>
<path fill="none" stroke="black" d="M253.263,-484.484C265.91,-469.155 286.703,-443.955 302.299,-425.053"/>
<polygon fill="black" stroke="black" points="305.174,-427.068 308.839,-417.127 299.775,-422.613 305.174,-427.068"/>
</g>
<!-- MAP2K6&#45;&gt;MAPK14 -->
<g id="edge84" class="edge"><title>MAP2K6&#45;&gt;MAPK14</title>
<path fill="none" stroke="black" d="M482.157,-291.91C490.051,-280.742 501.143,-265.05 510.195,-252.244"/>
<polygon fill="black" stroke="black" points="513.157,-254.117 516.071,-243.931 507.441,-250.077 513.157,-254.117"/>
</g>
<!-- IKBKG -->
<g id="node59" class="node"><title>IKBKG</title>
<ellipse fill="none" stroke="black" cx="296" cy="-499.134" rx="18" ry="18"/>
<text text-anchor="middle" x="296" y="-497.934" font-family="Times,serif" font-size="4.00">IKBKG</text>
</g>
<!-- IKBKG&#45;&gt;IKK Complex -->
<g id="edge85" class="edge"><title>IKBKG&#45;&gt;IKK Complex</title>
<path fill="none" stroke="black" d="M300.58,-481.481C304.368,-467.709 309.851,-447.772 314.447,-431.063"/>
<polygon fill="black" stroke="black" points="317.893,-431.73 317.17,-421.16 311.144,-429.873 317.893,-431.73"/>
</g>
<!-- MAVS_TRADD&#45;&gt;TANK_TRAF3_IKBKE -->
<g id="edge86" class="edge"><title>MAVS_TRADD&#45;&gt;TANK_TRAF3_IKBKE</title>
<path fill="none" stroke="black" d="M351.173,-654.472C388.619,-616.074 485.544,-521.527 583,-466.253 630.545,-439.288 690.999,-420.282 730.09,-409.728"/>
<polygon fill="black" stroke="black" points="731.016,-413.104 739.79,-407.165 729.228,-406.336 731.016,-413.104"/>
</g>
<!-- MAVS_TRADD&#45;&gt;RIPK1_FADD -->
<g id="edge87" class="edge"><title>MAVS_TRADD&#45;&gt;RIPK1_FADD</title>
<path fill="none" stroke="black" d="M335,-648.247C335,-640.382 335,-631.453 335,-623.037"/>
<polygon fill="black" stroke="black" points="338.5,-622.769 335,-612.769 331.5,-622.769 338.5,-622.769"/>
</g>
<!-- JNK&#45;&gt;AP1 -->
<g id="edge88" class="edge"><title>JNK&#45;&gt;AP1</title>
<path fill="none" stroke="black" d="M607,-210.581C607,-202.867 607,-193.596 607,-184.996"/>
<polygon fill="black" stroke="black" points="610.5,-184.988 607,-174.988 603.5,-184.988 610.5,-184.988"/>
</g>
<!-- DDX58_dsRNA&#45;&gt;DDX58 -->
<g id="edge89" class="edge"><title>DDX58_dsRNA&#45;&gt;DDX58</title>
<path fill="none" stroke="black" d="M380.017,-776.059C377.108,-777.909 374.045,-779.636 371,-781.082 316.846,-806.804 293.216,-787.624 241,-817.082 236.413,-819.67 232.005,-823.203 227.837,-826.815"/>
<polygon fill="black" stroke="black" points="225.304,-824.383 220.132,-833.63 229.941,-829.626 225.304,-824.383"/>
</g>
<!-- TLR3_dsRNA&#45;&gt;TICAM1 -->
<g id="edge90" class="edge"><title>TLR3_dsRNA&#45;&gt;TICAM1</title>
<path fill="none" stroke="black" d="M537.274,-828.226C550.107,-816.377 567.954,-798.71 581,-781.082 600.549,-754.668 617.952,-721.02 628.702,-698.434"/>
<polygon fill="black" stroke="black" points="631.958,-699.734 633.023,-689.193 625.617,-696.769 631.958,-699.734"/>
</g>
<!-- TLR3 -->
<g id="node64" class="node"><title>TLR3</title>
<ellipse fill="none" stroke="black" cx="521" cy="-946.42" rx="18" ry="18"/>
<text text-anchor="middle" x="521" y="-945.22" font-family="Times,serif" font-size="4.00">TLR3</text>
</g>
<!-- TLR3&#45;&gt;TLR3_dsRNA -->
<g id="edge91" class="edge"><title>TLR3&#45;&gt;TLR3_dsRNA</title>
<path fill="none" stroke="black" d="M521,-928.317C521,-914.08 521,-893.429 521,-876.199"/>
<polygon fill="black" stroke="black" points="524.5,-876.001 521,-866.001 517.5,-876.001 524.5,-876.001"/>
</g>
</g>
</svg>
