<?xml version="1.0" encoding="UTF-8" standalone="no"?>
<!DOCTYPE svg PUBLIC "-//W3C//DTD SVG 1.1//EN"
 "http://www.w3.org/Graphics/SVG/1.1/DTD/svg11.dtd">
<!-- Generated by graphviz version 2.38.0 (20140413.2041)
 -->
<!-- Title: G Pages: 1 -->
<svg width="1224pt" height="995pt"
 viewBox="0.00 0.00 1224.31 994.73" xmlns="http://www.w3.org/2000/svg" xmlns:xlink="http://www.w3.org/1999/xlink">
<g id="graph0" class="graph" transform="scale(1 1) rotate(0) translate(4 990.725)">
<title>G</title>
<polygon fill="white" stroke="none" points="-4,4 -4,-990.725 1220.31,-990.725 1220.31,4 -4,4"/>
<!-- AP1 -->
<g id="node1" class="node"><title>AP1</title>
<ellipse fill="none" stroke="black" cx="597" cy="-156.884" rx="18" ry="18"/>
<text text-anchor="middle" x="597" y="-155.684" font-family="Times,serif" font-size="4.00">AP1</text>
</g>
<!-- transcription of proinflammatory proteins -->
<g id="node2" class="node"><title>transcription of proinflammatory proteins</title>
<ellipse fill="none" stroke="black" cx="648" cy="-51.442" rx="51.3841" ry="51.3841"/>
<text text-anchor="middle" x="648" y="-50.242" font-family="Times,serif" font-size="4.00">transcription of proinflammatory proteins</text>
</g>
<!-- AP1&#45;&gt;transcription of proinflammatory proteins -->
<g id="edge1" class="edge"><title>AP1&#45;&gt;transcription of proinflammatory proteins</title>
<path fill="none" stroke="black" d="M604.746,-140.173C609.187,-131.166 615.054,-119.265 621.03,-107.145"/>
<polygon fill="black" stroke="black" points="624.315,-108.396 625.598,-97.879 618.037,-105.3 624.315,-108.396"/>
</g>
<!-- NFKB -->
<g id="node3" class="node"><title>NFKB</title>
<ellipse fill="none" stroke="black" cx="60" cy="-228.884" rx="18" ry="18"/>
<text text-anchor="middle" x="60" y="-227.684" font-family="Times,serif" font-size="4.00">NFKB</text>
</g>
<!-- NFKB&#45;&gt;transcription of proinflammatory proteins -->
<g id="edge2" class="edge"><title>NFKB&#45;&gt;transcription of proinflammatory proteins</title>
<path fill="none" stroke="black" d="M74.4295,-217.735C78.3804,-215.256 82.7487,-212.775 87,-210.884 261.054,-133.45 482.449,-84.2279 587.467,-63.5939"/>
<polygon fill="black" stroke="black" points="588.418,-66.9745 597.565,-61.6277 587.08,-60.1036 588.418,-66.9745"/>
</g>
<!-- IRF3 -->
<g id="node4" class="node"><title>IRF3</title>
<ellipse fill="none" stroke="black" cx="758" cy="-228.884" rx="18" ry="18"/>
<text text-anchor="middle" x="758" y="-227.684" font-family="Times,serif" font-size="4.00">IRF3</text>
</g>
<!-- IRF3&#45;&gt;transcription of proinflammatory proteins -->
<g id="edge3" class="edge"><title>IRF3&#45;&gt;transcription of proinflammatory proteins</title>
<path fill="none" stroke="black" d="M748.811,-213.228C733.944,-189.516 703.919,-141.628 680.484,-104.252"/>
<polygon fill="black" stroke="black" points="683.264,-102.097 674.987,-95.4837 677.333,-105.815 683.264,-102.097"/>
</g>
<!-- IRF7 -->
<g id="node5" class="node"><title>IRF7</title>
<ellipse fill="none" stroke="black" cx="904" cy="-228.884" rx="18" ry="18"/>
<text text-anchor="middle" x="904" y="-227.684" font-family="Times,serif" font-size="4.00">IRF7</text>
</g>
<!-- IRF7&#45;&gt;transcription of proinflammatory proteins -->
<g id="edge4" class="edge"><title>IRF7&#45;&gt;transcription of proinflammatory proteins</title>
<path fill="none" stroke="black" d="M889.503,-217.949C853.412,-193.215 758.163,-127.939 698.637,-87.1448"/>
<polygon fill="black" stroke="black" points="700.353,-84.0774 690.125,-81.3113 696.396,-89.8515 700.353,-84.0774"/>
</g>
<!-- DDX58 -->
<g id="node6" class="node"><title>DDX58</title>
<ellipse fill="none" stroke="black" cx="350" cy="-843.599" rx="18" ry="18"/>
<text text-anchor="middle" x="350" y="-842.399" font-family="Times,serif" font-size="4.00">DDX58</text>
</g>
<!-- DDX58_dsRNA -->
<g id="node21" class="node"><title>DDX58_dsRNA</title>
<ellipse fill="none" stroke="black" cx="528" cy="-756.687" rx="24.2908" ry="24.2908"/>
<text text-anchor="middle" x="528" y="-755.487" font-family="Times,serif" font-size="4.00">DDX58_dsRNA</text>
</g>
<!-- DDX58&#45;&gt;DDX58_dsRNA -->
<g id="edge5" class="edge"><title>DDX58&#45;&gt;DDX58_dsRNA</title>
<path fill="none" stroke="black" d="M356.104,-826.658C359.589,-823.202 363.754,-819.78 368,-817.082 389.208,-803.609 454.177,-780.074 494.668,-767.04"/>
<polygon fill="black" stroke="black" points="495.914,-770.317 504.394,-763.966 493.804,-763.643 495.914,-770.317"/>
</g>
<!-- MAVS -->
<g id="node45" class="node"><title>MAVS</title>
<ellipse fill="none" stroke="black" cx="430" cy="-756.687" rx="18" ry="18"/>
<text text-anchor="middle" x="430" y="-755.487" font-family="Times,serif" font-size="4.00">MAVS</text>
</g>
<!-- DDX58&#45;&gt;MAVS -->
<g id="edge6" class="edge"><title>DDX58&#45;&gt;MAVS</title>
<path fill="none" stroke="black" d="M362.15,-829.702C375.147,-815.907 395.932,-793.847 411.075,-777.773"/>
<polygon fill="black" stroke="black" points="413.688,-780.105 417.998,-770.426 408.593,-775.305 413.688,-780.105"/>
</g>
<!-- MAPK14 -->
<g id="node7" class="node"><title>MAPK14</title>
<ellipse fill="none" stroke="black" cx="516" cy="-228.884" rx="18" ry="18"/>
<text text-anchor="middle" x="516" y="-227.684" font-family="Times,serif" font-size="4.00">MAPK14</text>
</g>
<!-- MAPK14&#45;&gt;AP1 -->
<g id="edge7" class="edge"><title>MAPK14&#45;&gt;AP1</title>
<path fill="none" stroke="black" d="M529.376,-216.325C542.114,-205.316 561.479,-188.581 576.227,-175.836"/>
<polygon fill="black" stroke="black" points="578.596,-178.415 583.873,-169.228 574.019,-173.119 578.596,-178.415"/>
</g>
<!-- Nsp3 -->
<g id="node8" class="node"><title>Nsp3</title>
<ellipse fill="none" stroke="black" cx="693" cy="-946.42" rx="18" ry="18"/>
<text text-anchor="middle" x="693" y="-945.22" font-family="Times,serif" font-size="4.00">Nsp3</text>
</g>
<!-- Nsp3&#45;&gt;IRF3 -->
<g id="edge13" class="edge"><title>Nsp3&#45;&gt;IRF3</title>
<path fill="none" stroke="black" d="M708.73,-937.023C749.242,-914.127 854,-846.351 854,-757.687 854,-757.687 854,-757.687 854,-671.427 854,-498.613 924.115,-433.284 839,-282.884 827.088,-261.836 802.971,-247.703 784.135,-239.363"/>
<polygon fill="black" stroke="black" points="785.438,-236.114 774.86,-235.523 782.761,-242.582 785.438,-236.114"/>
</g>
<!-- Nsp3&#45;&gt;DDX58_dsRNA -->
<g id="edge8" class="edge"><title>Nsp3&#45;&gt;DDX58_dsRNA</title>
<path fill="none" stroke="black" d="M686.377,-929.24C675.131,-903.235 650.247,-851.572 617,-817.082 596.465,-795.78 585.52,-797.642 561,-781.082 559.341,-779.962 557.643,-778.801 555.934,-777.623"/>
<polygon fill="black" stroke="black" points="557.644,-774.547 547.441,-771.69 553.635,-780.286 557.644,-774.547"/>
</g>
<!-- IKBKE -->
<g id="node22" class="node"><title>IKBKE</title>
<ellipse fill="none" stroke="black" cx="904" cy="-307.279" rx="18" ry="18"/>
<text text-anchor="middle" x="904" y="-306.079" font-family="Times,serif" font-size="4.00">IKBKE</text>
</g>
<!-- Nsp3&#45;&gt;IKBKE -->
<g id="edge9" class="edge"><title>Nsp3&#45;&gt;IKBKE</title>
<path fill="none" stroke="black" d="M711.398,-944.607C784.963,-940.285 1054,-913.805 1054,-757.687 1054,-757.687 1054,-757.687 1054,-498.134 1054,-417.711 970.106,-351.393 927.8,-323.064"/>
<polygon fill="black" stroke="black" points="929.494,-319.99 919.208,-317.451 925.666,-325.85 929.494,-319.99"/>
</g>
<!-- TANK_TRAF3_IKBKE -->
<g id="node36" class="node"><title>TANK_TRAF3_IKBKE</title>
<ellipse fill="none" stroke="black" cx="712" cy="-398.964" rx="31.0804" ry="31.0804"/>
<text text-anchor="middle" x="712" y="-397.764" font-family="Times,serif" font-size="4.00">TANK_TRAF3_IKBKE</text>
</g>
<!-- Nsp3&#45;&gt;TANK_TRAF3_IKBKE -->
<g id="edge11" class="edge"><title>Nsp3&#45;&gt;TANK_TRAF3_IKBKE</title>
<path fill="none" stroke="black" d="M695.886,-928.395C701.201,-895.508 712,-820.912 712,-757.687 712,-757.687 712,-757.687 712,-589.288 712,-538.063 712,-479.041 712,-440.701"/>
<polygon fill="black" stroke="black" points="715.5,-440.459 712,-430.459 708.5,-440.459 715.5,-440.459"/>
</g>
<!-- TRAF6 -->
<g id="node53" class="node"><title>TRAF6</title>
<ellipse fill="none" stroke="black" cx="514" cy="-590.288" rx="18" ry="18"/>
<text text-anchor="middle" x="514" y="-589.088" font-family="Times,serif" font-size="4.00">TRAF6</text>
</g>
<!-- Nsp3&#45;&gt;TRAF6 -->
<g id="edge12" class="edge"><title>Nsp3&#45;&gt;TRAF6</title>
<path fill="none" stroke="black" d="M688.135,-929.058C680.728,-904.516 665.904,-856.812 651,-817.082 636.62,-778.75 635.041,-767.991 615,-732.292 589.728,-687.275 553.006,-639.313 531.506,-612.541"/>
<polygon fill="black" stroke="black" points="534.107,-610.192 525.093,-604.624 528.667,-614.598 534.107,-610.192"/>
</g>
<!-- IFIH1_dsRNA -->
<g id="node63" class="node"><title>IFIH1_dsRNA</title>
<ellipse fill="none" stroke="black" cx="409" cy="-843.599" rx="22.6101" ry="22.6101"/>
<text text-anchor="middle" x="409" y="-842.399" font-family="Times,serif" font-size="4.00">IFIH1_dsRNA</text>
</g>
<!-- Nsp3&#45;&gt;IFIH1_dsRNA -->
<g id="edge10" class="edge"><title>Nsp3&#45;&gt;IFIH1_dsRNA</title>
<path fill="none" stroke="black" d="M677.408,-936.808C661.531,-928.266 636.041,-915.179 613,-906.115 553.623,-882.758 481.65,-862.949 441.009,-852.51"/>
<polygon fill="black" stroke="black" points="441.692,-849.073 431.138,-850.001 439.967,-855.857 441.692,-849.073"/>
</g>
<!-- TRAF2 -->
<g id="node9" class="node"><title>TRAF2</title>
<ellipse fill="none" stroke="black" cx="322" cy="-756.687" rx="18" ry="18"/>
<text text-anchor="middle" x="322" y="-755.487" font-family="Times,serif" font-size="4.00">TRAF2</text>
</g>
<!-- MAVS_TRAF -->
<g id="node39" class="node"><title>MAVS_TRAF</title>
<ellipse fill="none" stroke="black" cx="430" cy="-672.427" rx="21.9898" ry="21.9898"/>
<text text-anchor="middle" x="430" y="-671.227" font-family="Times,serif" font-size="4.00">MAVS_TRAF</text>
</g>
<!-- TRAF2&#45;&gt;MAVS_TRAF -->
<g id="edge14" class="edge"><title>TRAF2&#45;&gt;MAVS_TRAF</title>
<path fill="none" stroke="black" d="M334.993,-744.034C339.375,-740.211 344.337,-735.995 349,-732.292 366.918,-718.061 387.823,-702.902 403.908,-691.532"/>
<polygon fill="black" stroke="black" points="406.129,-694.249 412.298,-685.635 402.104,-688.522 406.129,-694.249"/>
</g>
<!-- MAP2K4 -->
<g id="node10" class="node"><title>MAP2K4</title>
<ellipse fill="none" stroke="black" cx="624" cy="-307.279" rx="18" ry="18"/>
<text text-anchor="middle" x="624" y="-306.079" font-family="Times,serif" font-size="4.00">MAP2K4</text>
</g>
<!-- JNK -->
<g id="node40" class="node"><title>JNK</title>
<ellipse fill="none" stroke="black" cx="597" cy="-228.884" rx="18" ry="18"/>
<text text-anchor="middle" x="597" y="-227.684" font-family="Times,serif" font-size="4.00">JNK</text>
</g>
<!-- MAP2K4&#45;&gt;JNK -->
<g id="edge15" class="edge"><title>MAP2K4&#45;&gt;JNK</title>
<path fill="none" stroke="black" d="M618.274,-290.078C614.73,-280.051 610.102,-266.956 606.068,-255.541"/>
<polygon fill="black" stroke="black" points="609.35,-254.324 602.718,-246.062 602.75,-256.657 609.35,-254.324"/>
</g>
<!-- TICAM1 -->
<g id="node11" class="node"><title>TICAM1</title>
<ellipse fill="none" stroke="black" cx="666" cy="-672.427" rx="18" ry="18"/>
<text text-anchor="middle" x="666" y="-671.227" font-family="Times,serif" font-size="4.00">TICAM1</text>
</g>
<!-- TICAM1_TRAF3_TRAF6 -->
<g id="node16" class="node"><title>TICAM1_TRAF3_TRAF6</title>
<ellipse fill="none" stroke="black" cx="575" cy="-499.134" rx="32.7614" ry="32.7614"/>
<text text-anchor="middle" x="575" y="-497.934" font-family="Times,serif" font-size="4.00">TICAM1_TRAF3_TRAF6</text>
</g>
<!-- TICAM1&#45;&gt;TICAM1_TRAF3_TRAF6 -->
<g id="edge16" class="edge"><title>TICAM1&#45;&gt;TICAM1_TRAF3_TRAF6</title>
<path fill="none" stroke="black" d="M657.924,-656.226C643.889,-629.807 614.611,-574.696 594.876,-537.548"/>
<polygon fill="black" stroke="black" points="597.862,-535.708 590.079,-528.518 591.68,-538.992 597.862,-535.708"/>
</g>
<!-- Nsp15 -->
<g id="node12" class="node"><title>Nsp15</title>
<ellipse fill="none" stroke="black" cx="313" cy="-946.42" rx="18" ry="18"/>
<text text-anchor="middle" x="313" y="-945.22" font-family="Times,serif" font-size="4.00">Nsp15</text>
</g>
<!-- EIF2AK2_dsRNA -->
<g id="node38" class="node"><title>EIF2AK2_dsRNA</title>
<ellipse fill="none" stroke="black" cx="221" cy="-843.599" rx="26.533" ry="26.533"/>
<text text-anchor="middle" x="221" y="-842.399" font-family="Times,serif" font-size="4.00">EIF2AK2_dsRNA</text>
</g>
<!-- Nsp15&#45;&gt;EIF2AK2_dsRNA -->
<g id="edge17" class="edge"><title>Nsp15&#45;&gt;EIF2AK2_dsRNA</title>
<path fill="none" stroke="black" d="M301.348,-932.651C287.347,-917.308 263.484,-891.156 245.391,-871.329"/>
<polygon fill="black" stroke="black" points="247.854,-868.835 238.528,-863.807 242.683,-873.553 247.854,-868.835"/>
</g>
<!-- Nsp15&#45;&gt;IFIH1_dsRNA -->
<g id="edge18" class="edge"><title>Nsp15&#45;&gt;IFIH1_dsRNA</title>
<path fill="none" stroke="black" d="M325.158,-932.651C340.638,-916.394 367.671,-888.003 386.853,-867.858"/>
<polygon fill="black" stroke="black" points="389.419,-870.238 393.78,-860.583 384.35,-865.411 389.419,-870.238"/>
</g>
<!-- IKBKB -->
<g id="node13" class="node"><title>IKBKB</title>
<ellipse fill="none" stroke="black" cx="322" cy="-499.134" rx="18" ry="18"/>
<text text-anchor="middle" x="322" y="-497.934" font-family="Times,serif" font-size="4.00">IKBKB</text>
</g>
<!-- IKK Complex -->
<g id="node24" class="node"><title>IKK Complex</title>
<ellipse fill="none" stroke="black" cx="299" cy="-398.964" rx="22.6101" ry="22.6101"/>
<text text-anchor="middle" x="299" y="-397.764" font-family="Times,serif" font-size="4.00">IKK Complex</text>
</g>
<!-- IKBKB&#45;&gt;IKK Complex -->
<g id="edge19" class="edge"><title>IKBKB&#45;&gt;IKK Complex</title>
<path fill="none" stroke="black" d="M318.098,-481.481C314.893,-467.8 310.262,-448.034 306.363,-431.393"/>
<polygon fill="black" stroke="black" points="309.739,-430.455 304.05,-421.517 302.923,-432.052 309.739,-430.455"/>
</g>
<!-- IFIH1 -->
<g id="node14" class="node"><title>IFIH1</title>
<ellipse fill="none" stroke="black" cx="406" cy="-946.42" rx="18" ry="18"/>
<text text-anchor="middle" x="406" y="-945.22" font-family="Times,serif" font-size="4.00">IFIH1</text>
</g>
<!-- IFIH1&#45;&gt;IFIH1_dsRNA -->
<g id="edge20" class="edge"><title>IFIH1&#45;&gt;IFIH1_dsRNA</title>
<path fill="none" stroke="black" d="M406.509,-928.317C406.927,-914.267 407.531,-893.967 408.04,-876.876"/>
<polygon fill="black" stroke="black" points="411.542,-876.834 408.341,-866.734 404.545,-876.626 411.542,-876.834"/>
</g>
<!-- IRAK4 -->
<g id="node15" class="node"><title>IRAK4</title>
<ellipse fill="none" stroke="black" cx="954" cy="-590.288" rx="18" ry="18"/>
<text text-anchor="middle" x="954" y="-589.088" font-family="Times,serif" font-size="4.00">IRAK4</text>
</g>
<!-- MYD88_IRAK_TRAF -->
<g id="node62" class="node"><title>MYD88_IRAK_TRAF</title>
<ellipse fill="none" stroke="black" cx="950" cy="-499.134" rx="29.8983" ry="29.8983"/>
<text text-anchor="middle" x="950" y="-497.934" font-family="Times,serif" font-size="4.00">MYD88_IRAK_TRAF</text>
</g>
<!-- IRAK4&#45;&gt;MYD88_IRAK_TRAF -->
<g id="edge21" class="edge"><title>IRAK4&#45;&gt;MYD88_IRAK_TRAF</title>
<path fill="none" stroke="black" d="M953.229,-572.098C952.804,-562.627 952.258,-550.464 951.737,-538.842"/>
<polygon fill="black" stroke="black" points="955.233,-538.682 951.288,-528.849 948.24,-538.996 955.233,-538.682"/>
</g>
<!-- TICAM1_TRAF3_TRAF6&#45;&gt;TANK_TRAF3_IKBKE -->
<g id="edge22" class="edge"><title>TICAM1_TRAF3_TRAF6&#45;&gt;TANK_TRAF3_IKBKE</title>
<path fill="none" stroke="black" d="M601.415,-479.206C623.298,-463.525 654.537,-441.14 678.234,-424.159"/>
<polygon fill="black" stroke="black" points="680.503,-426.84 686.592,-418.17 676.425,-421.15 680.503,-426.84"/>
</g>
<!-- MAP3K7 -->
<g id="node48" class="node"><title>MAP3K7</title>
<ellipse fill="none" stroke="black" cx="545" cy="-398.964" rx="18" ry="18"/>
<text text-anchor="middle" x="545" y="-397.764" font-family="Times,serif" font-size="4.00">MAP3K7</text>
</g>
<!-- TICAM1_TRAF3_TRAF6&#45;&gt;MAP3K7 -->
<g id="edge23" class="edge"><title>TICAM1_TRAF3_TRAF6&#45;&gt;MAP3K7</title>
<path fill="none" stroke="black" d="M565.59,-467.342C561.563,-454.163 556.908,-438.93 553.044,-426.287"/>
<polygon fill="black" stroke="black" points="556.285,-424.917 550.016,-416.376 549.591,-426.963 556.285,-424.917"/>
</g>
<!-- M -->
<g id="node17" class="node"><title>M</title>
<ellipse fill="none" stroke="black" cx="460" cy="-946.42" rx="18" ry="18"/>
<text text-anchor="middle" x="460" y="-945.22" font-family="Times,serif" font-size="4.00">M</text>
</g>
<!-- M&#45;&gt;DDX58_dsRNA -->
<g id="edge26" class="edge"><title>M&#45;&gt;DDX58_dsRNA</title>
<path fill="none" stroke="black" d="M465.916,-929.088C477.175,-898.002 501.867,-829.834 516.491,-789.46"/>
<polygon fill="black" stroke="black" points="519.863,-790.428 519.978,-779.834 513.282,-788.044 519.863,-790.428"/>
</g>
<!-- M&#45;&gt;IKK Complex -->
<g id="edge25" class="edge"><title>M&#45;&gt;IKK Complex</title>
<path fill="none" stroke="black" d="M452.422,-929.754C447.81,-921.681 441.218,-912.267 433,-906.115 391.82,-875.288 360.794,-905.011 323,-870.115 283.209,-833.375 276,-811.846 276,-757.687 276,-757.687 276,-757.687 276,-589.288 276,-533.537 285.95,-469.221 292.761,-431.725"/>
<polygon fill="black" stroke="black" points="296.287,-431.911 294.674,-421.439 289.405,-430.631 296.287,-431.911"/>
</g>
<!-- M&#45;&gt;TANK_TRAF3_IKBKE -->
<g id="edge24" class="edge"><title>M&#45;&gt;TANK_TRAF3_IKBKE</title>
<path fill="none" stroke="black" d="M458.621,-928.438C456.355,-890.264 455.497,-796.038 495,-732.292 509.424,-709.016 526.053,-716.061 545,-696.292 605.46,-633.209 611.041,-608.658 653,-532.014 669.86,-501.217 685.904,-464.667 696.993,-437.837"/>
<polygon fill="black" stroke="black" points="700.299,-439.001 700.847,-428.421 693.82,-436.35 700.299,-439.001"/>
</g>
<!-- M&#45;&gt;IFIH1_dsRNA -->
<g id="edge27" class="edge"><title>M&#45;&gt;IFIH1_dsRNA</title>
<path fill="none" stroke="black" d="M452.254,-930.108C444.661,-915.096 432.898,-891.842 423.555,-873.371"/>
<polygon fill="black" stroke="black" points="426.561,-871.561 418.924,-864.217 420.315,-874.721 426.561,-871.561"/>
</g>
<!-- N -->
<g id="node18" class="node"><title>N</title>
<ellipse fill="none" stroke="black" cx="38" cy="-946.42" rx="18" ry="18"/>
<text text-anchor="middle" x="38" y="-945.22" font-family="Times,serif" font-size="4.00">N</text>
</g>
<!-- N&#45;&gt;NFKB -->
<g id="edge30" class="edge"><title>N&#45;&gt;NFKB</title>
<path fill="none" stroke="black" d="M32.393,-929.071C21.8226,-896.746 0,-822.199 0,-757.687 0,-757.687 0,-757.687 0,-397.964 0,-345.717 3.59958,-330.984 24,-282.884 28.6737,-271.864 35.7792,-260.744 42.4463,-251.555"/>
<polygon fill="black" stroke="black" points="45.3709,-253.49 48.6104,-243.403 39.7873,-249.269 45.3709,-253.49"/>
</g>
<!-- N&#45;&gt;DDX58 -->
<g id="edge28" class="edge"><title>N&#45;&gt;DDX58</title>
<path fill="none" stroke="black" d="M55.2189,-939.856C106.891,-923.158 260.896,-873.392 323.298,-853.227"/>
<polygon fill="black" stroke="black" points="324.395,-856.551 332.834,-850.146 322.243,-849.89 324.395,-856.551"/>
</g>
<!-- NFKBIA -->
<g id="node43" class="node"><title>NFKBIA</title>
<ellipse fill="none" stroke="black" cx="114" cy="-228.884" rx="18" ry="18"/>
<text text-anchor="middle" x="114" y="-227.684" font-family="Times,serif" font-size="4.00">NFKBIA</text>
</g>
<!-- N&#45;&gt;NFKBIA -->
<g id="edge29" class="edge"><title>N&#45;&gt;NFKBIA</title>
<path fill="none" stroke="black" d="M38,-928.336C38,-895.35 38,-820.591 38,-757.687 38,-757.687 38,-757.687 38,-397.964 38,-341.126 74.5287,-282.311 96.9367,-251.58"/>
<polygon fill="black" stroke="black" points="99.9219,-253.432 103.111,-243.329 94.3174,-249.238 99.9219,-253.432"/>
</g>
<!-- Orf3b -->
<g id="node19" class="node"><title>Orf3b</title>
<ellipse fill="none" stroke="black" cx="812" cy="-307.279" rx="18" ry="18"/>
<text text-anchor="middle" x="812" y="-306.079" font-family="Times,serif" font-size="4.00">Orf3b</text>
</g>
<!-- Orf3b&#45;&gt;IRF3 -->
<g id="edge31" class="edge"><title>Orf3b&#45;&gt;IRF3</title>
<path fill="none" stroke="black" d="M801.843,-291.91C793.949,-280.742 782.857,-265.05 773.805,-252.244"/>
<polygon fill="black" stroke="black" points="776.559,-250.077 767.929,-243.931 770.843,-254.117 776.559,-250.077"/>
</g>
<!-- TRAF5 -->
<g id="node20" class="node"><title>TRAF5</title>
<ellipse fill="none" stroke="black" cx="376" cy="-756.687" rx="18" ry="18"/>
<text text-anchor="middle" x="376" y="-755.487" font-family="Times,serif" font-size="4.00">TRAF5</text>
</g>
<!-- TRAF5&#45;&gt;MAVS_TRAF -->
<g id="edge32" class="edge"><title>TRAF5&#45;&gt;MAVS_TRAF</title>
<path fill="none" stroke="black" d="M385.654,-740.98C393.17,-729.532 403.794,-713.347 412.76,-699.689"/>
<polygon fill="black" stroke="black" points="415.801,-701.435 418.363,-691.154 409.949,-697.593 415.801,-701.435"/>
</g>
<!-- DDX58_dsRNA&#45;&gt;DDX58 -->
<g id="edge33" class="edge"><title>DDX58_dsRNA&#45;&gt;DDX58</title>
<path fill="none" stroke="black" d="M505.773,-767.345C471.172,-780.438 407.043,-803.714 386,-817.082 381.555,-819.906 377.198,-823.525 373.034,-827.144"/>
<polygon fill="black" stroke="black" points="370.528,-824.685 365.29,-833.894 375.128,-829.961 370.528,-824.685"/>
</g>
<!-- IKBKE&#45;&gt;IRF7 -->
<g id="edge34" class="edge"><title>IKBKE&#45;&gt;IRF7</title>
<path fill="none" stroke="black" d="M904,-288.944C904,-279.501 904,-267.604 904,-256.967"/>
<polygon fill="black" stroke="black" points="907.5,-256.887 904,-246.888 900.5,-256.888 907.5,-256.887"/>
</g>
<!-- IKBKE&#45;&gt;TANK_TRAF3_IKBKE -->
<g id="edge35" class="edge"><title>IKBKE&#45;&gt;TANK_TRAF3_IKBKE</title>
<path fill="none" stroke="black" d="M888.791,-317.381C858.928,-332.702 792.663,-363.805 750.192,-382.571"/>
<polygon fill="black" stroke="black" points="748.743,-379.385 740.99,-386.605 751.554,-385.796 748.743,-379.385"/>
</g>
<!-- TANK -->
<g id="node23" class="node"><title>TANK</title>
<ellipse fill="none" stroke="black" cx="758" cy="-499.134" rx="18" ry="18"/>
<text text-anchor="middle" x="758" y="-497.934" font-family="Times,serif" font-size="4.00">TANK</text>
</g>
<!-- TANK&#45;&gt;TANK_TRAF3_IKBKE -->
<g id="edge36" class="edge"><title>TANK&#45;&gt;TANK_TRAF3_IKBKE</title>
<path fill="none" stroke="black" d="M750.609,-482.361C744.889,-470.153 736.729,-452.738 729.383,-437.062"/>
<polygon fill="black" stroke="black" points="732.356,-435.157 724.944,-427.587 726.017,-438.128 732.356,-435.157"/>
</g>
<!-- NFKB_NFKBIA -->
<g id="node58" class="node"><title>NFKB_NFKBIA</title>
<ellipse fill="none" stroke="black" cx="114" cy="-307.279" rx="24.2908" ry="24.2908"/>
<text text-anchor="middle" x="114" y="-306.079" font-family="Times,serif" font-size="4.00">NFKB_NFKBIA</text>
</g>
<!-- IKK Complex&#45;&gt;NFKB_NFKBIA -->
<g id="edge37" class="edge"><title>IKK Complex&#45;&gt;NFKB_NFKBIA</title>
<path fill="none" stroke="black" d="M278.85,-388.195C246.475,-372.501 182.665,-341.567 144.629,-323.128"/>
<polygon fill="black" stroke="black" points="146.074,-319.939 135.549,-318.726 143.021,-326.238 146.074,-319.939"/>
</g>
<!-- TRAF3 -->
<g id="node25" class="node"><title>TRAF3</title>
<ellipse fill="none" stroke="black" cx="812" cy="-499.134" rx="18" ry="18"/>
<text text-anchor="middle" x="812" y="-497.934" font-family="Times,serif" font-size="4.00">TRAF3</text>
</g>
<!-- TRAF3&#45;&gt;TANK_TRAF3_IKBKE -->
<g id="edge38" class="edge"><title>TRAF3&#45;&gt;TANK_TRAF3_IKBKE</title>
<path fill="none" stroke="black" d="M801.08,-484.453C796.308,-478.685 790.543,-471.992 785,-466.253 771.776,-452.564 756.27,-438.262 742.957,-426.462"/>
<polygon fill="black" stroke="black" points="745.229,-423.799 735.407,-419.827 740.608,-429.057 745.229,-423.799"/>
</g>
<!-- TBK1 -->
<g id="node26" class="node"><title>TBK1</title>
<ellipse fill="none" stroke="black" cx="704" cy="-307.279" rx="18" ry="18"/>
<text text-anchor="middle" x="704" y="-306.079" font-family="Times,serif" font-size="4.00">TBK1</text>
</g>
<!-- TBK1&#45;&gt;IRF3 -->
<g id="edge39" class="edge"><title>TBK1&#45;&gt;IRF3</title>
<path fill="none" stroke="black" d="M714.157,-291.91C722.051,-280.742 733.143,-265.05 742.195,-252.244"/>
<polygon fill="black" stroke="black" points="745.157,-254.117 748.071,-243.931 739.441,-250.077 745.157,-254.117"/>
</g>
<!-- ssRNA -->
<g id="node27" class="node"><title>ssRNA</title>
<ellipse fill="none" stroke="black" cx="954" cy="-756.687" rx="18" ry="18"/>
<text text-anchor="middle" x="954" y="-755.487" font-family="Times,serif" font-size="4.00">ssRNA</text>
</g>
<!-- TLR8_ssRNA -->
<g id="node42" class="node"><title>TLR8_ssRNA</title>
<ellipse fill="none" stroke="black" cx="967" cy="-672.427" rx="22.05" ry="22.05"/>
<text text-anchor="middle" x="967" y="-671.227" font-family="Times,serif" font-size="4.00">TLR8_ssRNA</text>
</g>
<!-- ssRNA&#45;&gt;TLR8_ssRNA -->
<g id="edge41" class="edge"><title>ssRNA&#45;&gt;TLR8_ssRNA</title>
<path fill="none" stroke="black" d="M956.694,-738.643C958.242,-728.842 960.236,-716.225 962.057,-704.704"/>
<polygon fill="black" stroke="black" points="965.559,-704.968 963.663,-694.544 958.645,-703.875 965.559,-704.968"/>
</g>
<!-- TLR7_ssRNA -->
<g id="node55" class="node"><title>TLR7_ssRNA</title>
<ellipse fill="none" stroke="black" cx="904" cy="-672.427" rx="22.05" ry="22.05"/>
<text text-anchor="middle" x="904" y="-671.227" font-family="Times,serif" font-size="4.00">TLR7_ssRNA</text>
</g>
<!-- ssRNA&#45;&gt;TLR7_ssRNA -->
<g id="edge40" class="edge"><title>ssRNA&#45;&gt;TLR7_ssRNA</title>
<path fill="none" stroke="black" d="M945.061,-740.98C938.26,-729.791 928.709,-714.077 920.529,-700.621"/>
<polygon fill="black" stroke="black" points="923.321,-698.476 915.136,-691.748 917.34,-702.112 923.321,-698.476"/>
</g>
<!-- TLR3_dsRNA -->
<g id="node28" class="node"><title>TLR3_dsRNA</title>
<ellipse fill="none" stroke="black" cx="586" cy="-843.599" rx="22.05" ry="22.05"/>
<text text-anchor="middle" x="586" y="-842.399" font-family="Times,serif" font-size="4.00">TLR3_dsRNA</text>
</g>
<!-- TLR3_dsRNA&#45;&gt;TICAM1 -->
<g id="edge42" class="edge"><title>TLR3_dsRNA&#45;&gt;TICAM1</title>
<path fill="none" stroke="black" d="M595.177,-823.192C609.745,-792.386 638.154,-732.311 654.211,-698.357"/>
<polygon fill="black" stroke="black" points="657.468,-699.656 658.579,-689.119 651.14,-696.663 657.468,-699.656"/>
</g>
<!-- Orf8 -->
<g id="node29" class="node"><title>Orf8</title>
<ellipse fill="none" stroke="black" cx="758" cy="-307.279" rx="18" ry="18"/>
<text text-anchor="middle" x="758" y="-306.079" font-family="Times,serif" font-size="4.00">Orf8</text>
</g>
<!-- Orf8&#45;&gt;IRF3 -->
<g id="edge43" class="edge"><title>Orf8&#45;&gt;IRF3</title>
<path fill="none" stroke="black" d="M758,-288.944C758,-279.501 758,-267.604 758,-256.967"/>
<polygon fill="black" stroke="black" points="761.5,-256.887 758,-246.888 754.5,-256.888 761.5,-256.887"/>
</g>
<!-- MAP2K7 -->
<g id="node30" class="node"><title>MAP2K7</title>
<ellipse fill="none" stroke="black" cx="570" cy="-307.279" rx="18" ry="18"/>
<text text-anchor="middle" x="570" y="-306.079" font-family="Times,serif" font-size="4.00">MAP2K7</text>
</g>
<!-- MAP2K7&#45;&gt;JNK -->
<g id="edge44" class="edge"><title>MAP2K7&#45;&gt;JNK</title>
<path fill="none" stroke="black" d="M575.726,-290.078C579.27,-280.051 583.898,-266.956 587.932,-255.541"/>
<polygon fill="black" stroke="black" points="591.25,-256.657 591.282,-246.062 584.65,-254.324 591.25,-256.657"/>
</g>
<!-- RIPK1_FADD -->
<g id="node31" class="node"><title>RIPK1_FADD</title>
<ellipse fill="none" stroke="black" cx="430" cy="-590.288" rx="22.05" ry="22.05"/>
<text text-anchor="middle" x="430" y="-589.088" font-family="Times,serif" font-size="4.00">RIPK1_FADD</text>
</g>
<!-- CASP8 -->
<g id="node34" class="node"><title>CASP8</title>
<ellipse fill="none" stroke="black" cx="376" cy="-499.134" rx="18" ry="18"/>
<text text-anchor="middle" x="376" y="-497.934" font-family="Times,serif" font-size="4.00">CASP8</text>
</g>
<!-- RIPK1_FADD&#45;&gt;CASP8 -->
<g id="edge46" class="edge"><title>RIPK1_FADD&#45;&gt;CASP8</title>
<path fill="none" stroke="black" d="M418.811,-570.815C410.522,-557.13 399.164,-538.378 390.229,-523.627"/>
<polygon fill="black" stroke="black" points="393.203,-521.781 385.029,-515.041 387.216,-525.407 393.203,-521.781"/>
</g>
<!-- CASP10 -->
<g id="node54" class="node"><title>CASP10</title>
<ellipse fill="none" stroke="black" cx="430" cy="-499.134" rx="18" ry="18"/>
<text text-anchor="middle" x="430" y="-497.934" font-family="Times,serif" font-size="4.00">CASP10</text>
</g>
<!-- RIPK1_FADD&#45;&gt;CASP10 -->
<g id="edge45" class="edge"><title>RIPK1_FADD&#45;&gt;CASP10</title>
<path fill="none" stroke="black" d="M430,-567.706C430,-555.628 430,-540.448 430,-527.537"/>
<polygon fill="black" stroke="black" points="433.5,-527.343 430,-517.343 426.5,-527.344 433.5,-527.343"/>
</g>
<!-- MAP2K3 -->
<g id="node32" class="node"><title>MAP2K3</title>
<ellipse fill="none" stroke="black" cx="516" cy="-307.279" rx="18" ry="18"/>
<text text-anchor="middle" x="516" y="-306.079" font-family="Times,serif" font-size="4.00">MAP2K3</text>
</g>
<!-- MAP2K3&#45;&gt;MAPK14 -->
<g id="edge47" class="edge"><title>MAP2K3&#45;&gt;MAPK14</title>
<path fill="none" stroke="black" d="M516,-288.944C516,-279.501 516,-267.604 516,-256.967"/>
<polygon fill="black" stroke="black" points="519.5,-256.887 516,-246.888 512.5,-256.888 519.5,-256.887"/>
</g>
<!-- EIF2AK2 -->
<g id="node33" class="node"><title>EIF2AK2</title>
<ellipse fill="none" stroke="black" cx="221" cy="-946.42" rx="18.0625" ry="18.0625"/>
<text text-anchor="middle" x="221" y="-945.22" font-family="Times,serif" font-size="4.00">EIF2AK2</text>
</g>
<!-- EIF2AK2&#45;&gt;EIF2AK2_dsRNA -->
<g id="edge48" class="edge"><title>EIF2AK2&#45;&gt;EIF2AK2_dsRNA</title>
<path fill="none" stroke="black" d="M221,-928.317C221,-915.229 221,-896.718 221,-880.429"/>
<polygon fill="black" stroke="black" points="224.5,-880.126 221,-870.126 217.5,-880.126 224.5,-880.126"/>
</g>
<!-- CASP8&#45;&gt;IKK Complex -->
<g id="edge49" class="edge"><title>CASP8&#45;&gt;IKK Complex</title>
<path fill="none" stroke="black" d="M365.293,-484.484C353.343,-469.247 333.741,-444.257 318.945,-425.393"/>
<polygon fill="black" stroke="black" points="321.658,-423.181 312.733,-417.472 316.15,-427.501 321.658,-423.181"/>
</g>
<!-- ITCH -->
<g id="node35" class="node"><title>ITCH</title>
<ellipse fill="none" stroke="black" cx="1100" cy="-843.599" rx="18" ry="18"/>
<text text-anchor="middle" x="1100" y="-842.399" font-family="Times,serif" font-size="4.00">ITCH</text>
</g>
<!-- TANK_TRAF3_IKBKE&#45;&gt;IKBKE -->
<g id="edge50" class="edge"><title>TANK_TRAF3_IKBKE&#45;&gt;IKBKE</title>
<path fill="none" stroke="black" d="M738.945,-382.953C775.874,-364.63 841.38,-334.145 877.886,-318.393"/>
<polygon fill="black" stroke="black" points="879.532,-321.496 887.365,-314.363 876.793,-315.054 879.532,-321.496"/>
</g>
<!-- TANK_TRAF3_IKBKE&#45;&gt;TBK1 -->
<g id="edge51" class="edge"><title>TANK_TRAF3_IKBKE&#45;&gt;TBK1</title>
<path fill="none" stroke="black" d="M709.292,-367.601C708.356,-357.116 707.315,-345.448 706.406,-335.253"/>
<polygon fill="black" stroke="black" points="709.891,-334.923 705.516,-325.273 702.918,-335.545 709.891,-334.923"/>
</g>
<!-- TLR8 -->
<g id="node37" class="node"><title>TLR8</title>
<ellipse fill="none" stroke="black" cx="1008" cy="-756.687" rx="18" ry="18"/>
<text text-anchor="middle" x="1008" y="-755.487" font-family="Times,serif" font-size="4.00">TLR8</text>
</g>
<!-- TLR8&#45;&gt;TLR8_ssRNA -->
<g id="edge52" class="edge"><title>TLR8&#45;&gt;TLR8_ssRNA</title>
<path fill="none" stroke="black" d="M1000.29,-740.214C994.875,-729.354 987.481,-714.519 981.037,-701.589"/>
<polygon fill="black" stroke="black" points="984.147,-699.983 976.554,-692.595 977.882,-703.106 984.147,-699.983"/>
</g>
<!-- MAP2K6 -->
<g id="node64" class="node"><title>MAP2K6</title>
<ellipse fill="none" stroke="black" cx="462" cy="-307.279" rx="18" ry="18"/>
<text text-anchor="middle" x="462" y="-306.079" font-family="Times,serif" font-size="4.00">MAP2K6</text>
</g>
<!-- EIF2AK2_dsRNA&#45;&gt;MAP2K6 -->
<g id="edge53" class="edge"><title>EIF2AK2_dsRNA&#45;&gt;MAP2K6</title>
<path fill="none" stroke="black" d="M203.021,-824.063C176.501,-794.68 130,-734.457 130,-673.427 130,-673.427 130,-673.427 130,-589.288 130,-533.958 121.795,-514.433 149,-466.253 182.6,-406.747 206.892,-400.186 267,-367.674 322.484,-337.664 395.237,-320.651 434.314,-313.084"/>
<polygon fill="black" stroke="black" points="435.215,-316.476 444.401,-311.197 433.927,-309.595 435.215,-316.476"/>
</g>
<!-- MAVS_TRAF&#45;&gt;TRAF6 -->
<g id="edge54" class="edge"><title>MAVS_TRAF&#45;&gt;TRAF6</title>
<path fill="none" stroke="black" d="M442.548,-654.038C455.618,-640.161 475.885,-620.872 491.628,-607.355"/>
<polygon fill="black" stroke="black" points="493.957,-609.97 499.386,-600.871 489.468,-604.598 493.957,-609.97"/>
</g>
<!-- JNK&#45;&gt;AP1 -->
<g id="edge55" class="edge"><title>JNK&#45;&gt;AP1</title>
<path fill="none" stroke="black" d="M597,-210.581C597,-202.867 597,-193.596 597,-184.996"/>
<polygon fill="black" stroke="black" points="600.5,-184.988 597,-174.988 593.5,-184.988 600.5,-184.988"/>
</g>
<!-- dsRNA -->
<g id="node41" class="node"><title>dsRNA</title>
<ellipse fill="none" stroke="black" cx="523" cy="-946.42" rx="18" ry="18"/>
<text text-anchor="middle" x="523" y="-945.22" font-family="Times,serif" font-size="4.00">dsRNA</text>
</g>
<!-- dsRNA&#45;&gt;DDX58_dsRNA -->
<g id="edge56" class="edge"><title>dsRNA&#45;&gt;DDX58_dsRNA</title>
<path fill="none" stroke="black" d="M523.461,-928.095C524.287,-897.098 526.03,-831.645 527.1,-791.486"/>
<polygon fill="black" stroke="black" points="530.602,-791.458 527.369,-781.368 523.604,-791.272 530.602,-791.458"/>
</g>
<!-- dsRNA&#45;&gt;TLR3_dsRNA -->
<g id="edge58" class="edge"><title>dsRNA&#45;&gt;TLR3_dsRNA</title>
<path fill="none" stroke="black" d="M532.296,-930.544C541.988,-915.033 557.385,-890.392 569.213,-871.463"/>
<polygon fill="black" stroke="black" points="572.196,-873.294 574.527,-862.959 566.26,-869.585 572.196,-873.294"/>
</g>
<!-- dsRNA&#45;&gt;EIF2AK2_dsRNA -->
<g id="edge57" class="edge"><title>dsRNA&#45;&gt;EIF2AK2_dsRNA</title>
<path fill="none" stroke="black" d="M513.293,-930.98C506.824,-922.472 497.584,-912.213 487,-906.115 422.339,-868.863 395.649,-887.172 323,-870.115 300.755,-864.892 275.876,-858.676 256.258,-853.687"/>
<polygon fill="black" stroke="black" points="257.075,-850.283 246.52,-851.201 255.344,-857.066 257.075,-850.283"/>
</g>
<!-- dsRNA&#45;&gt;IFIH1_dsRNA -->
<g id="edge59" class="edge"><title>dsRNA&#45;&gt;IFIH1_dsRNA</title>
<path fill="none" stroke="black" d="M511.827,-932.178C504.96,-924.31 495.814,-914.302 487,-906.115 470.687,-890.963 450.992,-875.449 435.474,-863.792"/>
<polygon fill="black" stroke="black" points="437.444,-860.896 427.33,-857.739 433.268,-866.514 437.444,-860.896"/>
</g>
<!-- MYD88 -->
<g id="node51" class="node"><title>MYD88</title>
<ellipse fill="none" stroke="black" cx="900" cy="-590.288" rx="18" ry="18"/>
<text text-anchor="middle" x="900" y="-589.088" font-family="Times,serif" font-size="4.00">MYD88</text>
</g>
<!-- TLR8_ssRNA&#45;&gt;MYD88 -->
<g id="edge60" class="edge"><title>TLR8_ssRNA&#45;&gt;MYD88</title>
<path fill="none" stroke="black" d="M953.118,-654.822C942.833,-642.521 928.74,-625.665 917.655,-612.405"/>
<polygon fill="black" stroke="black" points="920.302,-610.114 911.203,-604.687 914.931,-614.604 920.302,-610.114"/>
</g>
<!-- NFKBIA&#45;&gt;NFKB_NFKBIA -->
<g id="edge61" class="edge"><title>NFKBIA&#45;&gt;NFKB_NFKBIA</title>
<path fill="none" stroke="black" d="M119.653,-246.238C120.545,-254.1 120.893,-263.822 120.697,-273.136"/>
<polygon fill="black" stroke="black" points="117.19,-273.213 120.245,-283.358 124.184,-273.523 117.19,-273.213"/>
</g>
<!-- TRADD -->
<g id="node44" class="node"><title>TRADD</title>
<ellipse fill="none" stroke="black" cx="588" cy="-756.687" rx="18" ry="18"/>
<text text-anchor="middle" x="588" y="-755.487" font-family="Times,serif" font-size="4.00">TRADD</text>
</g>
<!-- MAVS_TRADD -->
<g id="node49" class="node"><title>MAVS_TRADD</title>
<ellipse fill="none" stroke="black" cx="512" cy="-672.427" rx="23.7305" ry="23.7305"/>
<text text-anchor="middle" x="512" y="-671.227" font-family="Times,serif" font-size="4.00">MAVS_TRADD</text>
</g>
<!-- TRADD&#45;&gt;MAVS_TRADD -->
<g id="edge62" class="edge"><title>TRADD&#45;&gt;MAVS_TRADD</title>
<path fill="none" stroke="black" d="M576.125,-742.834C565.033,-730.828 548.185,-712.593 534.542,-697.826"/>
<polygon fill="black" stroke="black" points="537.104,-695.441 527.747,-690.471 531.963,-700.191 537.104,-695.441"/>
</g>
<!-- MAVS&#45;&gt;MAVS_TRAF -->
<g id="edge63" class="edge"><title>MAVS&#45;&gt;MAVS_TRAF</title>
<path fill="none" stroke="black" d="M430,-738.643C430,-728.77 430,-716.04 430,-704.45"/>
<polygon fill="black" stroke="black" points="433.5,-704.243 430,-694.243 426.5,-704.243 433.5,-704.243"/>
</g>
<!-- MAVS&#45;&gt;MAVS_TRADD -->
<g id="edge64" class="edge"><title>MAVS&#45;&gt;MAVS_TRADD</title>
<path fill="none" stroke="black" d="M442.454,-743.193C454.51,-731.099 473.104,-712.446 488.033,-697.469"/>
<polygon fill="black" stroke="black" points="490.871,-699.58 495.452,-690.027 485.914,-694.638 490.871,-699.58"/>
</g>
<!-- TLR7 -->
<g id="node46" class="node"><title>TLR7</title>
<ellipse fill="none" stroke="black" cx="900" cy="-756.687" rx="18" ry="18"/>
<text text-anchor="middle" x="900" y="-755.487" font-family="Times,serif" font-size="4.00">TLR7</text>
</g>
<!-- TLR7&#45;&gt;TLR7_ssRNA -->
<g id="edge65" class="edge"><title>TLR7&#45;&gt;TLR7_ssRNA</title>
<path fill="none" stroke="black" d="M900.829,-738.643C901.302,-728.914 901.91,-716.411 902.467,-704.959"/>
<polygon fill="black" stroke="black" points="905.969,-705.005 902.958,-694.847 898.977,-704.665 905.969,-705.005"/>
</g>
<!-- TLR3 -->
<g id="node47" class="node"><title>TLR3</title>
<ellipse fill="none" stroke="black" cx="586" cy="-946.42" rx="18" ry="18"/>
<text text-anchor="middle" x="586" y="-945.22" font-family="Times,serif" font-size="4.00">TLR3</text>
</g>
<!-- TLR3&#45;&gt;TLR3_dsRNA -->
<g id="edge66" class="edge"><title>TLR3&#45;&gt;TLR3_dsRNA</title>
<path fill="none" stroke="black" d="M586,-928.317C586,-914.08 586,-893.429 586,-876.199"/>
<polygon fill="black" stroke="black" points="589.5,-876.001 586,-866.001 582.5,-876.001 589.5,-876.001"/>
</g>
<!-- MAP3K7&#45;&gt;MAP2K4 -->
<g id="edge69" class="edge"><title>MAP3K7&#45;&gt;MAP2K4</title>
<path fill="none" stroke="black" d="M556.657,-384.731C569.566,-370.075 590.549,-346.254 605.664,-329.095"/>
<polygon fill="black" stroke="black" points="608.569,-331.093 612.552,-321.275 603.316,-326.466 608.569,-331.093"/>
</g>
<!-- MAP3K7&#45;&gt;MAP2K7 -->
<g id="edge68" class="edge"><title>MAP3K7&#45;&gt;MAP2K7</title>
<path fill="none" stroke="black" d="M549.585,-381.514C553.228,-368.449 558.393,-349.92 562.616,-334.769"/>
<polygon fill="black" stroke="black" points="566.045,-335.501 565.359,-324.928 559.302,-333.621 566.045,-335.501"/>
</g>
<!-- MAP3K7&#45;&gt;MAP2K3 -->
<g id="edge67" class="edge"><title>MAP3K7&#45;&gt;MAP2K3</title>
<path fill="none" stroke="black" d="M539.681,-381.514C535.43,-368.366 529.389,-349.686 524.473,-334.483"/>
<polygon fill="black" stroke="black" points="527.692,-333.063 521.285,-324.624 521.032,-335.216 527.692,-333.063"/>
</g>
<!-- MAP3K7&#45;&gt;MAP2K6 -->
<g id="edge70" class="edge"><title>MAP3K7&#45;&gt;MAP2K6</title>
<path fill="none" stroke="black" d="M533.108,-385.114C519.425,-370.33 496.783,-345.863 480.727,-328.515"/>
<polygon fill="black" stroke="black" points="483.231,-326.067 473.87,-321.105 478.093,-330.822 483.231,-326.067"/>
</g>
<!-- MAVS_TRADD&#45;&gt;RIPK1_FADD -->
<g id="edge71" class="edge"><title>MAVS_TRADD&#45;&gt;RIPK1_FADD</title>
<path fill="none" stroke="black" d="M495.406,-655.21C483.201,-643.281 466.458,-626.919 452.968,-613.735"/>
<polygon fill="black" stroke="black" points="455.058,-610.883 445.46,-606.397 450.165,-615.89 455.058,-610.883"/>
</g>
<!-- MAVS_TRADD&#45;&gt;TANK_TRAF3_IKBKE -->
<g id="edge72" class="edge"><title>MAVS_TRADD&#45;&gt;TANK_TRAF3_IKBKE</title>
<path fill="none" stroke="black" d="M526.323,-653.223C546.912,-626.874 585.826,-576.398 617,-532.014 637.071,-503.438 639.649,-494.631 660,-466.253 668.219,-454.792 677.624,-442.561 686.155,-431.765"/>
<polygon fill="black" stroke="black" points="688.985,-433.83 692.474,-423.826 683.508,-429.47 688.985,-433.83"/>
</g>
<!-- RELA -->
<g id="node50" class="node"><title>RELA</title>
<ellipse fill="none" stroke="black" cx="138" cy="-398.964" rx="18" ry="18"/>
<text text-anchor="middle" x="138" y="-397.764" font-family="Times,serif" font-size="4.00">RELA</text>
</g>
<!-- RELA&#45;&gt;NFKB_NFKBIA -->
<g id="edge73" class="edge"><title>RELA&#45;&gt;NFKB_NFKBIA</title>
<path fill="none" stroke="black" d="M133.486,-381.095C130.478,-369.854 126.425,-354.709 122.794,-341.142"/>
<polygon fill="black" stroke="black" points="126.091,-339.921 120.125,-331.166 119.329,-341.731 126.091,-339.921"/>
</g>
<!-- MYD88&#45;&gt;MYD88_IRAK_TRAF -->
<g id="edge74" class="edge"><title>MYD88&#45;&gt;MYD88_IRAK_TRAF</title>
<path fill="none" stroke="black" d="M908.482,-574.164C914.607,-563.243 923.127,-548.051 930.855,-534.27"/>
<polygon fill="black" stroke="black" points="933.948,-535.911 935.787,-525.477 927.843,-532.487 933.948,-535.911"/>
</g>
<!-- CHUK -->
<g id="node52" class="node"><title>CHUK</title>
<ellipse fill="none" stroke="black" cx="176" cy="-499.134" rx="18" ry="18"/>
<text text-anchor="middle" x="176" y="-497.934" font-family="Times,serif" font-size="4.00">CHUK</text>
</g>
<!-- CHUK&#45;&gt;IKK Complex -->
<g id="edge75" class="edge"><title>CHUK&#45;&gt;IKK Complex</title>
<path fill="none" stroke="black" d="M186.56,-484.081C191.271,-478.25 197.088,-471.611 203,-466.253 224.085,-447.147 250.938,-429.048 270.879,-416.604"/>
<polygon fill="black" stroke="black" points="272.822,-419.519 279.51,-411.301 269.157,-413.554 272.822,-419.519"/>
</g>
<!-- TRAF6&#45;&gt;TICAM1_TRAF3_TRAF6 -->
<g id="edge79" class="edge"><title>TRAF6&#45;&gt;TICAM1_TRAF3_TRAF6</title>
<path fill="none" stroke="black" d="M523.801,-574.964C531.164,-564.203 541.574,-548.988 551.086,-535.085"/>
<polygon fill="black" stroke="black" points="554.1,-536.879 556.858,-526.649 548.323,-532.926 554.1,-536.879"/>
</g>
<!-- TRAF6&#45;&gt;IKK Complex -->
<g id="edge76" class="edge"><title>TRAF6&#45;&gt;IKK Complex</title>
<path fill="none" stroke="black" d="M510.304,-572.274C503.815,-546.177 488.015,-496.153 457,-466.253 421.775,-432.294 366.588,-414.607 331.633,-406.302"/>
<polygon fill="black" stroke="black" points="332.004,-402.798 321.479,-404.018 330.467,-409.627 332.004,-402.798"/>
</g>
<!-- TRAF6&#45;&gt;MAVS_TRAF -->
<g id="edge80" class="edge"><title>TRAF6&#45;&gt;MAVS_TRAF</title>
<path fill="none" stroke="black" d="M504.176,-605.748C492.114,-618.889 471.872,-638.354 455.462,-652.684"/>
<polygon fill="black" stroke="black" points="453.098,-650.1 447.767,-659.256 457.644,-655.423 453.098,-650.1"/>
</g>
<!-- TRAF6&#45;&gt;MAP3K7 -->
<g id="edge77" class="edge"><title>TRAF6&#45;&gt;MAP3K7</title>
<path fill="none" stroke="black" d="M516.504,-572.148C520.012,-548.355 526.673,-503.982 533,-466.253 535.184,-453.228 537.776,-438.796 539.992,-426.732"/>
<polygon fill="black" stroke="black" points="543.445,-427.305 541.822,-416.835 536.562,-426.032 543.445,-427.305"/>
</g>
<!-- TRAF6&#45;&gt;MYD88_IRAK_TRAF -->
<g id="edge78" class="edge"><title>TRAF6&#45;&gt;MYD88_IRAK_TRAF</title>
<path fill="none" stroke="black" d="M531.747,-586.832C580.908,-579.884 722.889,-558.841 839,-532.014 863.622,-526.325 890.906,-518.511 912.261,-512.042"/>
<polygon fill="black" stroke="black" points="913.39,-515.357 921.928,-509.084 911.341,-508.663 913.39,-515.357"/>
</g>
<!-- CASP10&#45;&gt;IKK Complex -->
<g id="edge81" class="edge"><title>CASP10&#45;&gt;IKK Complex</title>
<path fill="none" stroke="black" d="M419.79,-484.292C415.052,-478.366 409.119,-471.596 403,-466.253 379.714,-445.922 349.615,-427.439 327.794,-415.186"/>
<polygon fill="black" stroke="black" points="329.44,-412.097 318.993,-410.329 326.057,-418.225 329.44,-412.097"/>
</g>
<!-- TLR7_ssRNA&#45;&gt;MYD88 -->
<g id="edge82" class="edge"><title>TLR7_ssRNA&#45;&gt;MYD88</title>
<path fill="none" stroke="black" d="M902.928,-649.951C902.447,-640.316 901.874,-628.838 901.363,-618.601"/>
<polygon fill="black" stroke="black" points="904.854,-618.324 900.86,-608.511 897.863,-618.673 904.854,-618.324"/>
</g>
<!-- IKBKG -->
<g id="node56" class="node"><title>IKBKG</title>
<ellipse fill="none" stroke="black" cx="230" cy="-499.134" rx="18" ry="18"/>
<text text-anchor="middle" x="230" y="-497.934" font-family="Times,serif" font-size="4.00">IKBKG</text>
</g>
<!-- IKBKG&#45;&gt;IKK Complex -->
<g id="edge83" class="edge"><title>IKBKG&#45;&gt;IKK Complex</title>
<path fill="none" stroke="black" d="M239.886,-484.068C250.438,-469.056 267.398,-444.925 280.452,-426.353"/>
<polygon fill="black" stroke="black" points="283.432,-428.199 286.319,-418.005 277.705,-424.174 283.432,-428.199"/>
</g>
<!-- Orf9 -->
<g id="node57" class="node"><title>Orf9</title>
<ellipse fill="none" stroke="black" cx="1100" cy="-946.42" rx="18" ry="18"/>
<text text-anchor="middle" x="1100" y="-945.22" font-family="Times,serif" font-size="4.00">Orf9</text>
</g>
<!-- Orf9&#45;&gt;ITCH -->
<g id="edge84" class="edge"><title>Orf9&#45;&gt;ITCH</title>
<path fill="none" stroke="black" d="M1100,-928.317C1100,-912.891 1100,-889.934 1100,-871.959"/>
<polygon fill="black" stroke="black" points="1103.5,-871.785 1100,-861.786 1096.5,-871.786 1103.5,-871.785"/>
</g>
<!-- NFKB_NFKBIA&#45;&gt;NFKB -->
<g id="edge86" class="edge"><title>NFKB_NFKBIA&#45;&gt;NFKB</title>
<path fill="none" stroke="black" d="M100.374,-287.001C92.9774,-276.538 83.7901,-263.541 76.0489,-252.589"/>
<polygon fill="black" stroke="black" points="78.8428,-250.478 70.2125,-244.332 73.1266,-254.518 78.8428,-250.478"/>
</g>
<!-- NFKB_NFKBIA&#45;&gt;NFKBIA -->
<g id="edge85" class="edge"><title>NFKB_NFKBIA&#45;&gt;NFKBIA</title>
<path fill="none" stroke="black" d="M107.755,-283.358C107.163,-274.859 107.092,-265.152 107.541,-256.362"/>
<polygon fill="black" stroke="black" points="111.042,-256.484 108.347,-246.238 104.064,-255.928 111.042,-256.484"/>
</g>
<!-- NFKB1 -->
<g id="node59" class="node"><title>NFKB1</title>
<ellipse fill="none" stroke="black" cx="84" cy="-398.964" rx="18" ry="18"/>
<text text-anchor="middle" x="84" y="-397.764" font-family="Times,serif" font-size="4.00">NFKB1</text>
</g>
<!-- NFKB1&#45;&gt;NFKB_NFKBIA -->
<g id="edge87" class="edge"><title>NFKB1&#45;&gt;NFKB_NFKBIA</title>
<path fill="none" stroke="black" d="M89.5025,-381.514C93.341,-370.039 98.5891,-354.35 103.243,-340.436"/>
<polygon fill="black" stroke="black" points="106.646,-341.298 106.499,-330.704 100.007,-339.078 106.646,-341.298"/>
</g>
<!-- IRAK1 -->
<g id="node60" class="node"><title>IRAK1</title>
<ellipse fill="none" stroke="black" cx="1008" cy="-590.288" rx="18" ry="18"/>
<text text-anchor="middle" x="1008" y="-589.088" font-family="Times,serif" font-size="4.00">IRAK1</text>
</g>
<!-- IRAK1&#45;&gt;MYD88_IRAK_TRAF -->
<g id="edge88" class="edge"><title>IRAK1&#45;&gt;MYD88_IRAK_TRAF</title>
<path fill="none" stroke="black" d="M998.422,-574.566C991.122,-563.344 980.782,-547.45 971.53,-533.228"/>
<polygon fill="black" stroke="black" points="974.334,-531.12 965.947,-524.647 968.466,-534.938 974.334,-531.12"/>
</g>
<!-- ubiquitin&#45;proteasome complex -->
<g id="node61" class="node"><title>ubiquitin&#45;proteasome complex</title>
<ellipse fill="none" stroke="black" cx="1176" cy="-946.42" rx="40.1111" ry="40.1111"/>
<text text-anchor="middle" x="1176" y="-945.22" font-family="Times,serif" font-size="4.00">ubiquitin&#45;proteasome complex</text>
</g>
<!-- MYD88_IRAK_TRAF&#45;&gt;IRF7 -->
<g id="edge89" class="edge"><title>MYD88_IRAK_TRAF&#45;&gt;IRF7</title>
<path fill="none" stroke="black" d="M950.903,-469.297C951.448,-427.393 949.584,-347.608 931,-282.884 928.112,-272.825 923.279,-262.424 918.494,-253.529"/>
<polygon fill="black" stroke="black" points="921.386,-251.533 913.414,-244.554 915.294,-254.981 921.386,-251.533"/>
</g>
<!-- IFIH1_dsRNA&#45;&gt;MAVS -->
<g id="edge90" class="edge"><title>IFIH1_dsRNA&#45;&gt;MAVS</title>
<path fill="none" stroke="black" d="M414.299,-821.172C417.081,-809.924 420.514,-796.042 423.46,-784.13"/>
<polygon fill="black" stroke="black" points="426.892,-784.833 425.895,-774.286 420.096,-783.153 426.892,-784.833"/>
</g>
<!-- MAP2K6&#45;&gt;MAPK14 -->
<g id="edge91" class="edge"><title>MAP2K6&#45;&gt;MAPK14</title>
<path fill="none" stroke="black" d="M472.157,-291.91C480.051,-280.742 491.143,-265.05 500.195,-252.244"/>
<polygon fill="black" stroke="black" points="503.157,-254.117 506.071,-243.931 497.441,-250.077 503.157,-254.117"/>
</g>
</g>
</svg>
