<?xml version="1.0" encoding="UTF-8" standalone="no"?>
<!DOCTYPE svg PUBLIC "-//W3C//DTD SVG 1.1//EN"
 "http://www.w3.org/Graphics/SVG/1.1/DTD/svg11.dtd">
<!-- Generated by graphviz version 2.38.0 (20140413.2041)
 -->
<!-- Title: G Pages: 1 -->
<svg width="859pt" height="911pt"
 viewBox="0.00 0.00 858.50 911.25" xmlns="http://www.w3.org/2000/svg" xmlns:xlink="http://www.w3.org/1999/xlink">
<g id="graph0" class="graph" transform="scale(1 1) rotate(0) translate(4 907.252)">
<title>G</title>
<polygon fill="white" stroke="none" points="-4,4 -4,-907.252 854.5,-907.252 854.5,4 -4,4"/>
<!-- AGT -->
<g id="node1" class="node"><title>AGT</title>
<ellipse fill="none" stroke="black" cx="292" cy="-884.69" rx="18" ry="18"/>
<text text-anchor="middle" x="292" y="-883.49" font-family="Times,serif" font-size="4.00">AGT</text>
</g>
<!-- pr_f1e0f543&#45;c3e5&#45;4ca0&#45;9603&#45;c352fc93e0cd -->
<g id="node2" class="node"><title>pr_f1e0f543&#45;c3e5&#45;4ca0&#45;9603&#45;c352fc93e0cd</title>
<polygon fill="none" stroke="black" points="341,-828.628 243,-828.628 243,-730.628 341,-730.628 341,-828.628"/>
<text text-anchor="middle" x="292" y="-778.428" font-family="Times,serif" font-size="4.00">pr_f1e0f543&#45;c3e5&#45;4ca0&#45;9603&#45;c352fc93e0cd</text>
</g>
<!-- AGT&#45;&gt;pr_f1e0f543&#45;c3e5&#45;4ca0&#45;9603&#45;c352fc93e0cd -->
<g id="edge1" class="edge"><title>AGT&#45;&gt;pr_f1e0f543&#45;c3e5&#45;4ca0&#45;9603&#45;c352fc93e0cd</title>
<path fill="none" stroke="black" d="M292,-866.671C292,-858.867 292,-849.109 292,-838.993"/>
<polygon fill="black" stroke="black" points="295.5,-838.816 292,-828.816 288.5,-838.816 295.5,-838.816"/>
</g>
<!-- angiotensin I -->
<g id="node3" class="node"><title>angiotensin I</title>
<ellipse fill="none" stroke="black" cx="292" cy="-670.855" rx="22.05" ry="22.05"/>
<text text-anchor="middle" x="292" y="-669.655" font-family="Times,serif" font-size="4.00">angiotensin I</text>
</g>
<!-- pr_f1e0f543&#45;c3e5&#45;4ca0&#45;9603&#45;c352fc93e0cd&#45;&gt;angiotensin I -->
<g id="edge2" class="edge"><title>pr_f1e0f543&#45;c3e5&#45;4ca0&#45;9603&#45;c352fc93e0cd&#45;&gt;angiotensin I</title>
<path fill="none" stroke="black" d="M292,-730.552C292,-721.366 292,-711.97 292,-703.463"/>
<polygon fill="black" stroke="black" points="295.5,-703.247 292,-693.247 288.5,-703.247 295.5,-703.247"/>
</g>
<!-- pr_7af70acf&#45;9761&#45;4cc4&#45;9a54&#45;f1160a61b298 -->
<g id="node5" class="node"><title>pr_7af70acf&#45;9761&#45;4cc4&#45;9a54&#45;f1160a61b298</title>
<polygon fill="none" stroke="black" points="268,-611.581 170,-611.581 170,-513.581 268,-513.581 268,-611.581"/>
<text text-anchor="middle" x="219" y="-561.381" font-family="Times,serif" font-size="4.00">pr_7af70acf&#45;9761&#45;4cc4&#45;9a54&#45;f1160a61b298</text>
</g>
<!-- angiotensin I&#45;&gt;pr_7af70acf&#45;9761&#45;4cc4&#45;9a54&#45;f1160a61b298 -->
<g id="edge3" class="edge"><title>angiotensin I&#45;&gt;pr_7af70acf&#45;9761&#45;4cc4&#45;9a54&#45;f1160a61b298</title>
<path fill="none" stroke="black" d="M279.617,-651.827C273.528,-642.963 265.819,-631.741 257.958,-620.296"/>
<polygon fill="black" stroke="black" points="260.774,-618.214 252.227,-611.953 255.004,-622.178 260.774,-618.214"/>
</g>
<!-- pr_b3669469&#45;469d&#45;4d0e&#45;8322&#45;469cf56e9a0d -->
<g id="node8" class="node"><title>pr_b3669469&#45;469d&#45;4d0e&#45;8322&#45;469cf56e9a0d</title>
<polygon fill="none" stroke="black" points="386,-612.581 286,-612.581 286,-512.581 386,-512.581 386,-612.581"/>
<text text-anchor="middle" x="336" y="-561.381" font-family="Times,serif" font-size="4.00">pr_b3669469&#45;469d&#45;4d0e&#45;8322&#45;469cf56e9a0d</text>
</g>
<!-- angiotensin I&#45;&gt;pr_b3669469&#45;469d&#45;4d0e&#45;8322&#45;469cf56e9a0d -->
<g id="edge4" class="edge"><title>angiotensin I&#45;&gt;pr_b3669469&#45;469d&#45;4d0e&#45;8322&#45;469cf56e9a0d</title>
<path fill="none" stroke="black" d="M300.276,-649.865C303.631,-641.763 307.694,-631.949 311.86,-621.886"/>
<polygon fill="black" stroke="black" points="315.107,-623.194 315.698,-612.615 308.639,-620.516 315.107,-623.194"/>
</g>
<!-- REN -->
<g id="node4" class="node"><title>REN</title>
<ellipse fill="none" stroke="black" cx="656" cy="-884.69" rx="18" ry="18"/>
<text text-anchor="middle" x="656" y="-883.49" font-family="Times,serif" font-size="4.00">REN</text>
</g>
<!-- REN&#45;&gt;pr_f1e0f543&#45;c3e5&#45;4ca0&#45;9603&#45;c352fc93e0cd -->
<g id="edge5" class="edge"><title>REN&#45;&gt;pr_f1e0f543&#45;c3e5&#45;4ca0&#45;9603&#45;c352fc93e0cd</title>
<path fill="none" stroke="black" d="M639.023,-878.525C625.983,-874.699 607.476,-869.573 591,-866.128 484.992,-843.968 448.558,-875.018 350,-830.128 349.906,-830.086 349.812,-830.043 349.718,-829.999"/>
<polygon fill="black" stroke="black" points="351.57,-827.019 341.092,-825.454 348.307,-833.212 351.57,-827.019"/>
</g>
<!-- pr_3052c6c3&#45;f6bd&#45;47de&#45;b765&#45;817a9af5b3e7 -->
<g id="node26" class="node"><title>pr_3052c6c3&#45;f6bd&#45;47de&#45;b765&#45;817a9af5b3e7</title>
<polygon fill="none" stroke="black" points="733.5,-829.128 634.5,-829.128 634.5,-730.128 733.5,-730.128 733.5,-829.128"/>
<text text-anchor="middle" x="684" y="-778.428" font-family="Times,serif" font-size="4.00">pr_3052c6c3&#45;f6bd&#45;47de&#45;b765&#45;817a9af5b3e7</text>
</g>
<!-- REN&#45;&gt;pr_3052c6c3&#45;f6bd&#45;47de&#45;b765&#45;817a9af5b3e7 -->
<g id="edge6" class="edge"><title>REN&#45;&gt;pr_3052c6c3&#45;f6bd&#45;47de&#45;b765&#45;817a9af5b3e7</title>
<path fill="none" stroke="black" d="M655.457,-866.671C656.714,-858.873 658.853,-849.122 661.441,-839.014"/>
<polygon fill="black" stroke="black" points="664.846,-839.828 664.046,-829.264 658.083,-838.022 664.846,-839.828"/>
</g>
<!-- angiotensin II -->
<g id="node6" class="node"><title>angiotensin II</title>
<ellipse fill="none" stroke="black" cx="465" cy="-452.186" rx="23.1702" ry="23.1702"/>
<text text-anchor="middle" x="465" y="-450.986" font-family="Times,serif" font-size="4.00">angiotensin II</text>
</g>
<!-- pr_7af70acf&#45;9761&#45;4cc4&#45;9a54&#45;f1160a61b298&#45;&gt;angiotensin II -->
<g id="edge7" class="edge"><title>pr_7af70acf&#45;9761&#45;4cc4&#45;9a54&#45;f1160a61b298&#45;&gt;angiotensin II</title>
<path fill="none" stroke="black" d="M268.058,-518.001C271.008,-516.059 273.998,-514.235 277,-512.581 327.555,-484.716 393.089,-467.788 431.927,-459.48"/>
<polygon fill="black" stroke="black" points="433.058,-462.82 442.139,-457.363 431.637,-455.966 433.058,-462.82"/>
</g>
<!-- pr_104e5fe2&#45;7de2&#45;4901&#45;8ca7&#45;51105dc4689d -->
<g id="node13" class="node"><title>pr_104e5fe2&#45;7de2&#45;4901&#45;8ca7&#45;51105dc4689d</title>
<polygon fill="none" stroke="black" points="344,-391.29 244,-391.29 244,-291.29 344,-291.29 344,-391.29"/>
<text text-anchor="middle" x="294" y="-340.09" font-family="Times,serif" font-size="4.00">pr_104e5fe2&#45;7de2&#45;4901&#45;8ca7&#45;51105dc4689d</text>
</g>
<!-- angiotensin II&#45;&gt;pr_104e5fe2&#45;7de2&#45;4901&#45;8ca7&#45;51105dc4689d -->
<g id="edge8" class="edge"><title>angiotensin II&#45;&gt;pr_104e5fe2&#45;7de2&#45;4901&#45;8ca7&#45;51105dc4689d</title>
<path fill="none" stroke="black" d="M445.67,-438.369C440.051,-434.807 433.851,-431.03 428,-427.79 395.653,-409.88 384.073,-411.83 353,-391.79 352.909,-391.731 352.817,-391.672 352.726,-391.613"/>
<polygon fill="black" stroke="black" points="354.454,-388.555 344.223,-385.8 350.503,-394.333 354.454,-388.555"/>
</g>
<!-- pr_0aaa6755&#45;c1f9&#45;492d&#45;9e3c&#45;4e6952083812 -->
<g id="node18" class="node"><title>pr_0aaa6755&#45;c1f9&#45;492d&#45;9e3c&#45;4e6952083812</title>
<polygon fill="none" stroke="black" points="462,-391.29 362,-391.29 362,-291.29 462,-291.29 462,-391.29"/>
<text text-anchor="middle" x="412" y="-340.09" font-family="Times,serif" font-size="4.00">pr_0aaa6755&#45;c1f9&#45;492d&#45;9e3c&#45;4e6952083812</text>
</g>
<!-- angiotensin II&#45;&gt;pr_0aaa6755&#45;c1f9&#45;492d&#45;9e3c&#45;4e6952083812 -->
<g id="edge9" class="edge"><title>angiotensin II&#45;&gt;pr_0aaa6755&#45;c1f9&#45;492d&#45;9e3c&#45;4e6952083812</title>
<path fill="none" stroke="black" d="M455.155,-430.958C450.899,-422.213 445.678,-411.486 440.357,-400.554"/>
<polygon fill="black" stroke="black" points="443.406,-398.821 435.883,-391.361 437.112,-401.884 443.406,-398.821"/>
</g>
<!-- pr_bfaa379d&#45;ed44&#45;46ef&#45;a1a2&#45;140746925612 -->
<g id="node20" class="node"><title>pr_bfaa379d&#45;ed44&#45;46ef&#45;a1a2&#45;140746925612</title>
<polygon fill="none" stroke="black" points="733.5,-390.79 634.5,-390.79 634.5,-291.79 733.5,-291.79 733.5,-390.79"/>
<text text-anchor="middle" x="684" y="-340.09" font-family="Times,serif" font-size="4.00">pr_bfaa379d&#45;ed44&#45;46ef&#45;a1a2&#45;140746925612</text>
</g>
<!-- angiotensin II&#45;&gt;pr_bfaa379d&#45;ed44&#45;46ef&#45;a1a2&#45;140746925612 -->
<g id="edge10" class="edge"><title>angiotensin II&#45;&gt;pr_bfaa379d&#45;ed44&#45;46ef&#45;a1a2&#45;140746925612</title>
<path fill="none" stroke="black" d="M485.588,-441.168C509.695,-429.418 550.808,-409.315 586,-391.79 598.7,-385.466 612.3,-378.635 625.203,-372.126"/>
<polygon fill="black" stroke="black" points="627.103,-375.087 634.452,-367.455 623.947,-368.839 627.103,-375.087"/>
</g>
<!-- pr_63891c7d&#45;a6c8&#45;48ff&#45;a4c1&#45;a9f0aacffd43 -->
<g id="node29" class="node"><title>pr_63891c7d&#45;a6c8&#45;48ff&#45;a4c1&#45;a9f0aacffd43</title>
<polygon fill="none" stroke="black" points="577.5,-389.79 480.5,-389.79 480.5,-292.79 577.5,-292.79 577.5,-389.79"/>
<text text-anchor="middle" x="529" y="-340.09" font-family="Times,serif" font-size="4.00">pr_63891c7d&#45;a6c8&#45;48ff&#45;a4c1&#45;a9f0aacffd43</text>
</g>
<!-- angiotensin II&#45;&gt;pr_63891c7d&#45;a6c8&#45;48ff&#45;a4c1&#45;a9f0aacffd43 -->
<g id="edge11" class="edge"><title>angiotensin II&#45;&gt;pr_63891c7d&#45;a6c8&#45;48ff&#45;a4c1&#45;a9f0aacffd43</title>
<path fill="none" stroke="black" d="M476.442,-431.717C481.939,-422.364 488.84,-410.623 495.816,-398.753"/>
<polygon fill="black" stroke="black" points="498.84,-400.515 500.889,-390.12 492.805,-396.968 498.84,-400.515"/>
</g>
<!-- ACE -->
<g id="node7" class="node"><title>ACE</title>
<ellipse fill="none" stroke="black" cx="147" cy="-670.855" rx="18" ry="18"/>
<text text-anchor="middle" x="147" y="-669.655" font-family="Times,serif" font-size="4.00">ACE</text>
</g>
<!-- ACE&#45;&gt;pr_7af70acf&#45;9761&#45;4cc4&#45;9a54&#45;f1160a61b298 -->
<g id="edge12" class="edge"><title>ACE&#45;&gt;pr_7af70acf&#45;9761&#45;4cc4&#45;9a54&#45;f1160a61b298</title>
<path fill="none" stroke="black" d="M156.71,-655.522C163.008,-646.227 171.665,-633.448 180.523,-620.373"/>
<polygon fill="black" stroke="black" points="183.64,-622.014 186.351,-611.772 177.844,-618.087 183.64,-622.014"/>
</g>
<!-- pr_878d7365&#45;c768&#45;4a81&#45;9c09&#45;ecd7d7e51e34 -->
<g id="node11" class="node"><title>pr_878d7365&#45;c768&#45;4a81&#45;9c09&#45;ecd7d7e51e34</title>
<polygon fill="none" stroke="black" points="225.5,-391.79 124.5,-391.79 124.5,-290.79 225.5,-290.79 225.5,-391.79"/>
<text text-anchor="middle" x="175" y="-340.09" font-family="Times,serif" font-size="4.00">pr_878d7365&#45;c768&#45;4a81&#45;9c09&#45;ecd7d7e51e34</text>
</g>
<!-- ACE&#45;&gt;pr_878d7365&#45;c768&#45;4a81&#45;9c09&#45;ecd7d7e51e34 -->
<g id="edge13" class="edge"><title>ACE&#45;&gt;pr_878d7365&#45;c768&#45;4a81&#45;9c09&#45;ecd7d7e51e34</title>
<path fill="none" stroke="black" d="M148.466,-652.705C152.407,-606.595 163.375,-478.292 169.91,-401.837"/>
<polygon fill="black" stroke="black" points="173.398,-402.127 170.762,-391.865 166.423,-401.531 173.398,-402.127"/>
</g>
<!-- angiotensin I&#45;9 -->
<g id="node9" class="node"><title>angiotensin I&#45;9</title>
<ellipse fill="none" stroke="black" cx="265" cy="-452.186" rx="24.2908" ry="24.2908"/>
<text text-anchor="middle" x="265" y="-450.986" font-family="Times,serif" font-size="4.00">angiotensin I&#45;9</text>
</g>
<!-- pr_b3669469&#45;469d&#45;4d0e&#45;8322&#45;469cf56e9a0d&#45;&gt;angiotensin I&#45;9 -->
<g id="edge14" class="edge"><title>pr_b3669469&#45;469d&#45;4d0e&#45;8322&#45;469cf56e9a0d&#45;&gt;angiotensin I&#45;9</title>
<path fill="none" stroke="black" d="M303.824,-512.458C296.928,-501.93 289.864,-491.145 283.684,-481.71"/>
<polygon fill="black" stroke="black" points="286.471,-479.577 278.064,-473.13 280.615,-483.413 286.471,-479.577"/>
</g>
<!-- angiotensin I&#45;9&#45;&gt;pr_878d7365&#45;c768&#45;4a81&#45;9c09&#45;ecd7d7e51e34 -->
<g id="edge15" class="edge"><title>angiotensin I&#45;9&#45;&gt;pr_878d7365&#45;c768&#45;4a81&#45;9c09&#45;ecd7d7e51e34</title>
<path fill="none" stroke="black" d="M249.733,-432.713C242.081,-423.454 232.353,-411.684 222.465,-399.721"/>
<polygon fill="black" stroke="black" points="225.034,-397.335 215.965,-391.856 219.638,-401.794 225.034,-397.335"/>
</g>
<!-- ACE2 -->
<g id="node10" class="node"><title>ACE2</title>
<ellipse fill="none" stroke="black" cx="414" cy="-670.855" rx="18" ry="18"/>
<text text-anchor="middle" x="414" y="-669.655" font-family="Times,serif" font-size="4.00">ACE2</text>
</g>
<!-- ACE2&#45;&gt;pr_b3669469&#45;469d&#45;4d0e&#45;8322&#45;469cf56e9a0d -->
<g id="edge16" class="edge"><title>ACE2&#45;&gt;pr_b3669469&#45;469d&#45;4d0e&#45;8322&#45;469cf56e9a0d</title>
<path fill="none" stroke="black" d="M403.803,-655.961C397.032,-646.736 387.644,-633.945 378.009,-620.818"/>
<polygon fill="black" stroke="black" points="380.738,-618.621 372,-612.63 375.095,-622.763 380.738,-618.621"/>
</g>
<!-- ACE2&#45;&gt;pr_104e5fe2&#45;7de2&#45;4901&#45;8ca7&#45;51105dc4689d -->
<g id="edge17" class="edge"><title>ACE2&#45;&gt;pr_104e5fe2&#45;7de2&#45;4901&#45;8ca7&#45;51105dc4689d</title>
<path fill="none" stroke="black" d="M414.214,-652.821C414.09,-623.406 411.646,-561.534 395,-512.581 381.395,-472.572 357.564,-431.716 336.466,-400.055"/>
<polygon fill="black" stroke="black" points="339.099,-397.701 330.599,-391.377 333.3,-401.622 339.099,-397.701"/>
</g>
<!-- ACE2&#45;&gt;pr_63891c7d&#45;a6c8&#45;48ff&#45;a4c1&#45;a9f0aacffd43 -->
<g id="edge18" class="edge"><title>ACE2&#45;&gt;pr_63891c7d&#45;a6c8&#45;48ff&#45;a4c1&#45;a9f0aacffd43</title>
<path fill="none" stroke="black" d="M421.833,-654.178C437.8,-621.724 474.5,-544.527 497,-476.581 505.175,-451.895 512.168,-424.011 517.513,-400.075"/>
<polygon fill="black" stroke="black" points="520.982,-400.597 519.702,-390.079 514.144,-399.099 520.982,-400.597"/>
</g>
<!-- angiotensin I&#45;7 -->
<g id="node12" class="node"><title>angiotensin I&#45;7</title>
<ellipse fill="none" stroke="black" cx="235" cy="-230.395" rx="24.2908" ry="24.2908"/>
<text text-anchor="middle" x="235" y="-229.195" font-family="Times,serif" font-size="4.00">angiotensin I&#45;7</text>
</g>
<!-- pr_878d7365&#45;c768&#45;4a81&#45;9c09&#45;ecd7d7e51e34&#45;&gt;angiotensin I&#45;7 -->
<g id="edge19" class="edge"><title>pr_878d7365&#45;c768&#45;4a81&#45;9c09&#45;ecd7d7e51e34&#45;&gt;angiotensin I&#45;7</title>
<path fill="none" stroke="black" d="M202.366,-290.623C207.917,-280.548 213.59,-270.253 218.615,-261.132"/>
<polygon fill="black" stroke="black" points="221.826,-262.558 223.586,-252.111 215.695,-259.18 221.826,-262.558"/>
</g>
<!-- pr_c31f2fcd&#45;1875&#45;4fea&#45;b00e&#45;aa3a83b525cc -->
<g id="node22" class="node"><title>pr_c31f2fcd&#45;1875&#45;4fea&#45;b00e&#45;aa3a83b525cc</title>
<polygon fill="none" stroke="black" points="284,-170 186,-170 186,-72 284,-72 284,-170"/>
<text text-anchor="middle" x="235" y="-119.8" font-family="Times,serif" font-size="4.00">pr_c31f2fcd&#45;1875&#45;4fea&#45;b00e&#45;aa3a83b525cc</text>
</g>
<!-- angiotensin I&#45;7&#45;&gt;pr_c31f2fcd&#45;1875&#45;4fea&#45;b00e&#45;aa3a83b525cc -->
<g id="edge20" class="edge"><title>angiotensin I&#45;7&#45;&gt;pr_c31f2fcd&#45;1875&#45;4fea&#45;b00e&#45;aa3a83b525cc</title>
<path fill="none" stroke="black" d="M235,-205.827C235,-198.2 235,-189.375 235,-180.373"/>
<polygon fill="black" stroke="black" points="238.5,-180.189 235,-170.189 231.5,-180.189 238.5,-180.189"/>
</g>
<!-- pr_104e5fe2&#45;7de2&#45;4901&#45;8ca7&#45;51105dc4689d&#45;&gt;angiotensin I&#45;7 -->
<g id="edge21" class="edge"><title>pr_104e5fe2&#45;7de2&#45;4901&#45;8ca7&#45;51105dc4689d&#45;&gt;angiotensin I&#45;7</title>
<path fill="none" stroke="black" d="M267.434,-291.258C261.837,-280.928 256.097,-270.334 251.032,-260.986"/>
<polygon fill="black" stroke="black" points="254.063,-259.233 246.222,-252.108 247.909,-262.568 254.063,-259.233"/>
</g>
<!-- SPIKE -->
<g id="node14" class="node"><title>SPIKE</title>
<ellipse fill="none" stroke="black" cx="409" cy="-884.69" rx="18" ry="18"/>
<text text-anchor="middle" x="409" y="-883.49" font-family="Times,serif" font-size="4.00">SPIKE</text>
</g>
<!-- pr_b15cfb61&#45;1b4e&#45;4777&#45;b904&#45;eef37a8e8462 -->
<g id="node15" class="node"><title>pr_b15cfb61&#45;1b4e&#45;4777&#45;b904&#45;eef37a8e8462</title>
<polygon fill="none" stroke="black" points="458.5,-829.128 359.5,-829.128 359.5,-730.128 458.5,-730.128 458.5,-829.128"/>
<text text-anchor="middle" x="409" y="-778.428" font-family="Times,serif" font-size="4.00">pr_b15cfb61&#45;1b4e&#45;4777&#45;b904&#45;eef37a8e8462</text>
</g>
<!-- SPIKE&#45;&gt;pr_b15cfb61&#45;1b4e&#45;4777&#45;b904&#45;eef37a8e8462 -->
<g id="edge22" class="edge"><title>SPIKE&#45;&gt;pr_b15cfb61&#45;1b4e&#45;4777&#45;b904&#45;eef37a8e8462</title>
<path fill="none" stroke="black" d="M409,-866.671C409,-858.953 409,-849.323 409,-839.326"/>
<polygon fill="black" stroke="black" points="412.5,-839.264 409,-829.264 405.5,-839.264 412.5,-839.264"/>
</g>
<!-- pr_b15cfb61&#45;1b4e&#45;4777&#45;b904&#45;eef37a8e8462&#45;&gt;ACE2 -->
<g id="edge23" class="edge"><title>pr_b15cfb61&#45;1b4e&#45;4777&#45;b904&#45;eef37a8e8462&#45;&gt;ACE2</title>
<path fill="none" stroke="black" d="M411.281,-729.928C411.773,-719.413 412.277,-708.653 412.715,-699.297"/>
<polygon fill="black" stroke="black" points="416.223,-699.212 413.194,-689.059 409.23,-698.884 416.223,-699.212"/>
</g>
<!-- Lisinopril -->
<g id="node16" class="node"><title>Lisinopril</title>
<ellipse fill="none" stroke="black" cx="107" cy="-884.69" rx="18.6233" ry="18.6233"/>
<text text-anchor="middle" x="107" y="-883.49" font-family="Times,serif" font-size="4.00">Lisinopril</text>
</g>
<!-- pr_255c1ede&#45;442e&#45;4fba&#45;a82f&#45;fb5eed20a87f -->
<g id="node17" class="node"><title>pr_255c1ede&#45;442e&#45;4fba&#45;a82f&#45;fb5eed20a87f</title>
<polygon fill="none" stroke="black" points="98,-828.628 7.10543e-15,-828.628 7.10543e-15,-730.628 98,-730.628 98,-828.628"/>
<text text-anchor="middle" x="49" y="-778.428" font-family="Times,serif" font-size="4.00">pr_255c1ede&#45;442e&#45;4fba&#45;a82f&#45;fb5eed20a87f</text>
</g>
<!-- Lisinopril&#45;&gt;pr_255c1ede&#45;442e&#45;4fba&#45;a82f&#45;fb5eed20a87f -->
<g id="edge24" class="edge"><title>Lisinopril&#45;&gt;pr_255c1ede&#45;442e&#45;4fba&#45;a82f&#45;fb5eed20a87f</title>
<path fill="none" stroke="black" d="M98.191,-868.037C93.54,-859.773 87.5135,-849.064 81.2821,-837.991"/>
<polygon fill="black" stroke="black" points="84.2178,-836.071 76.2632,-829.073 78.1175,-839.504 84.2178,-836.071"/>
</g>
<!-- pr_1b537cef&#45;fabe&#45;4824&#45;b4f5&#45;7021cb766577 -->
<g id="node28" class="node"><title>pr_1b537cef&#45;fabe&#45;4824&#45;b4f5&#45;7021cb766577</title>
<polygon fill="none" stroke="black" points="214,-828.628 116,-828.628 116,-730.628 214,-730.628 214,-828.628"/>
<text text-anchor="middle" x="165" y="-778.428" font-family="Times,serif" font-size="4.00">pr_1b537cef&#45;fabe&#45;4824&#45;b4f5&#45;7021cb766577</text>
</g>
<!-- Lisinopril&#45;&gt;pr_1b537cef&#45;fabe&#45;4824&#45;b4f5&#45;7021cb766577 -->
<g id="edge25" class="edge"><title>Lisinopril&#45;&gt;pr_1b537cef&#45;fabe&#45;4824&#45;b4f5&#45;7021cb766577</title>
<path fill="none" stroke="black" d="M115.809,-868.037C120.46,-859.773 126.487,-849.064 132.718,-837.991"/>
<polygon fill="black" stroke="black" points="135.883,-839.504 137.737,-829.073 129.782,-836.071 135.883,-839.504"/>
</g>
<!-- pr_255c1ede&#45;442e&#45;4fba&#45;a82f&#45;fb5eed20a87f&#45;&gt;ACE -->
<g id="edge26" class="edge"><title>pr_255c1ede&#45;442e&#45;4fba&#45;a82f&#45;fb5eed20a87f&#45;&gt;ACE</title>
<path fill="none" stroke="black" d="M93.1263,-730.552C105.434,-717.142 118.155,-703.282 128.144,-692.399"/>
<polygon fill="black" stroke="black" points="131.014,-694.448 135.197,-684.714 125.857,-689.715 131.014,-694.448"/>
</g>
<!-- AGTR1 -->
<g id="node19" class="node"><title>AGTR1</title>
<ellipse fill="none" stroke="black" cx="529" cy="-230.395" rx="18" ry="18"/>
<text text-anchor="middle" x="529" y="-229.195" font-family="Times,serif" font-size="4.00">AGTR1</text>
</g>
<!-- pr_0aaa6755&#45;c1f9&#45;492d&#45;9e3c&#45;4e6952083812&#45;&gt;AGTR1 -->
<g id="edge27" class="edge"><title>pr_0aaa6755&#45;c1f9&#45;492d&#45;9e3c&#45;4e6952083812&#45;&gt;AGTR1</title>
<path fill="none" stroke="black" d="M462.298,-293.477C478.71,-278.201 496.002,-262.107 508.866,-250.134"/>
<polygon fill="black" stroke="black" points="511.321,-252.631 516.256,-243.256 506.552,-247.507 511.321,-252.631"/>
</g>
<!-- AGTR2 -->
<g id="node21" class="node"><title>AGTR2</title>
<ellipse fill="none" stroke="black" cx="742" cy="-230.395" rx="18" ry="18"/>
<text text-anchor="middle" x="742" y="-229.195" font-family="Times,serif" font-size="4.00">AGTR2</text>
</g>
<!-- pr_bfaa379d&#45;ed44&#45;46ef&#45;a1a2&#45;140746925612&#45;&gt;AGTR2 -->
<g id="edge28" class="edge"><title>pr_bfaa379d&#45;ed44&#45;46ef&#45;a1a2&#45;140746925612&#45;&gt;AGTR2</title>
<path fill="none" stroke="black" d="M709.946,-291.576C716.597,-279.089 723.464,-266.196 729.128,-255.562"/>
<polygon fill="black" stroke="black" points="732.339,-256.979 733.951,-246.508 726.16,-253.689 732.339,-256.979"/>
</g>
<!-- MAS1 -->
<g id="node23" class="node"><title>MAS1</title>
<ellipse fill="none" stroke="black" cx="235" cy="-18" rx="18" ry="18"/>
<text text-anchor="middle" x="235" y="-16.8" font-family="Times,serif" font-size="4.00">MAS1</text>
</g>
<!-- pr_c31f2fcd&#45;1875&#45;4fea&#45;b00e&#45;aa3a83b525cc&#45;&gt;MAS1 -->
<g id="edge29" class="edge"><title>pr_c31f2fcd&#45;1875&#45;4fea&#45;b00e&#45;aa3a83b525cc&#45;&gt;MAS1</title>
<path fill="none" stroke="black" d="M235,-71.8664C235,-63.064 235,-54.1654 235,-46.2437"/>
<polygon fill="black" stroke="black" points="238.5,-46.1475 235,-36.1476 231.5,-46.1476 238.5,-46.1475"/>
</g>
<!-- losartan -->
<g id="node24" class="node"><title>losartan</title>
<ellipse fill="none" stroke="black" cx="564" cy="-884.69" rx="18" ry="18"/>
<text text-anchor="middle" x="564" y="-883.49" font-family="Times,serif" font-size="4.00">losartan</text>
</g>
<!-- pr_86bd8ed5&#45;4d4a&#45;4688&#45;bfad&#45;e6bda57ec6a0 -->
<g id="node25" class="node"><title>pr_86bd8ed5&#45;4d4a&#45;4688&#45;bfad&#45;e6bda57ec6a0</title>
<polygon fill="none" stroke="black" points="656,-612.581 556,-612.581 556,-512.581 656,-512.581 656,-612.581"/>
<text text-anchor="middle" x="606" y="-561.381" font-family="Times,serif" font-size="4.00">pr_86bd8ed5&#45;4d4a&#45;4688&#45;bfad&#45;e6bda57ec6a0</text>
</g>
<!-- losartan&#45;&gt;pr_86bd8ed5&#45;4d4a&#45;4688&#45;bfad&#45;e6bda57ec6a0 -->
<g id="edge30" class="edge"><title>losartan&#45;&gt;pr_86bd8ed5&#45;4d4a&#45;4688&#45;bfad&#45;e6bda57ec6a0</title>
<path fill="none" stroke="black" d="M571.895,-868.187C576.84,-857.718 582.852,-843.433 586,-830.128 602.511,-760.34 606.376,-677.675 606.846,-623.112"/>
<polygon fill="black" stroke="black" points="610.347,-622.941 606.897,-612.923 603.347,-622.906 610.347,-622.941"/>
</g>
<!-- pr_12dbd227&#45;c9d3&#45;40eb&#45;96d9&#45;273ec68c2c8a -->
<g id="node32" class="node"><title>pr_12dbd227&#45;c9d3&#45;40eb&#45;96d9&#45;273ec68c2c8a</title>
<polygon fill="none" stroke="black" points="577.5,-830.128 476.5,-830.128 476.5,-729.128 577.5,-729.128 577.5,-830.128"/>
<text text-anchor="middle" x="527" y="-778.428" font-family="Times,serif" font-size="4.00">pr_12dbd227&#45;c9d3&#45;40eb&#45;96d9&#45;273ec68c2c8a</text>
</g>
<!-- losartan&#45;&gt;pr_12dbd227&#45;c9d3&#45;40eb&#45;96d9&#45;273ec68c2c8a -->
<g id="edge31" class="edge"><title>losartan&#45;&gt;pr_12dbd227&#45;c9d3&#45;40eb&#45;96d9&#45;273ec68c2c8a</title>
<path fill="none" stroke="black" d="M558.219,-867.587C555.449,-859.871 551.942,-850.102 548.286,-839.92"/>
<polygon fill="black" stroke="black" points="551.577,-838.728 544.904,-830.499 544.989,-841.093 551.577,-838.728"/>
</g>
<!-- pr_86bd8ed5&#45;4d4a&#45;4688&#45;bfad&#45;e6bda57ec6a0&#45;&gt;AGTR1 -->
<g id="edge32" class="edge"><title>pr_86bd8ed5&#45;4d4a&#45;4688&#45;bfad&#45;e6bda57ec6a0&#45;&gt;AGTR1</title>
<path fill="none" stroke="black" d="M612.028,-512.475C616.791,-456.302 618.096,-362.804 586,-290.79 578.411,-273.764 563.759,-258.669 551.211,-247.958"/>
<polygon fill="black" stroke="black" points="553.331,-245.17 543.364,-241.575 548.914,-250.601 553.331,-245.17"/>
</g>
<!-- pr_3052c6c3&#45;f6bd&#45;47de&#45;b765&#45;817a9af5b3e7&#45;&gt;REN -->
<g id="edge33" class="edge"><title>pr_3052c6c3&#45;f6bd&#45;47de&#45;b765&#45;817a9af5b3e7&#45;&gt;REN</title>
<path fill="none" stroke="black" d="M677.496,-829.382C674.72,-839.84 671.531,-850.451 668.399,-859.486"/>
<polygon fill="black" stroke="black" points="665.095,-858.331 664.912,-868.924 671.661,-860.757 665.095,-858.331"/>
</g>
<!-- Calcitriol -->
<g id="node27" class="node"><title>Calcitriol</title>
<ellipse fill="none" stroke="black" cx="711" cy="-884.69" rx="18.6233" ry="18.6233"/>
<text text-anchor="middle" x="711" y="-883.49" font-family="Times,serif" font-size="4.00">Calcitriol</text>
</g>
<!-- Calcitriol&#45;&gt;pr_3052c6c3&#45;f6bd&#45;47de&#45;b765&#45;817a9af5b3e7 -->
<g id="edge34" class="edge"><title>Calcitriol&#45;&gt;pr_3052c6c3&#45;f6bd&#45;47de&#45;b765&#45;817a9af5b3e7</title>
<path fill="none" stroke="black" d="M706.541,-866.671C704.498,-858.873 701.944,-849.122 699.296,-839.014"/>
<polygon fill="black" stroke="black" points="702.662,-838.05 696.741,-829.264 695.89,-839.824 702.662,-838.05"/>
</g>
<!-- pr_1b537cef&#45;fabe&#45;4824&#45;b4f5&#45;7021cb766577&#45;&gt;ACE -->
<g id="edge35" class="edge"><title>pr_1b537cef&#45;fabe&#45;4824&#45;b4f5&#45;7021cb766577&#45;&gt;ACE</title>
<path fill="none" stroke="black" d="M156.895,-730.552C155.065,-719.693 153.184,-708.538 151.561,-698.909"/>
<polygon fill="black" stroke="black" points="154.967,-698.061 149.854,-688.782 148.065,-699.224 154.967,-698.061"/>
</g>
<!-- pr_63891c7d&#45;a6c8&#45;48ff&#45;a4c1&#45;a9f0aacffd43&#45;&gt;AGTR1 -->
<g id="edge36" class="edge"><title>pr_63891c7d&#45;a6c8&#45;48ff&#45;a4c1&#45;a9f0aacffd43&#45;&gt;AGTR1</title>
<path fill="none" stroke="black" d="M529,-292.527C529,-281.028 529,-269.126 529,-258.913"/>
<polygon fill="black" stroke="black" points="532.5,-258.593 529,-248.593 525.5,-258.593 532.5,-258.593"/>
</g>
<!-- CGP42112A -->
<g id="node30" class="node"><title>CGP42112A</title>
<ellipse fill="none" stroke="black" cx="801" cy="-452.186" rx="20.8674" ry="20.8674"/>
<text text-anchor="middle" x="801" y="-450.986" font-family="Times,serif" font-size="4.00">CGP42112A</text>
</g>
<!-- pr_b54acf25&#45;d417&#45;469d&#45;af00&#45;2cbb3766517a -->
<g id="node31" class="node"><title>pr_b54acf25&#45;d417&#45;469d&#45;af00&#45;2cbb3766517a</title>
<polygon fill="none" stroke="black" points="850.5,-390.79 751.5,-390.79 751.5,-291.79 850.5,-291.79 850.5,-390.79"/>
<text text-anchor="middle" x="801" y="-340.09" font-family="Times,serif" font-size="4.00">pr_b54acf25&#45;d417&#45;469d&#45;af00&#45;2cbb3766517a</text>
</g>
<!-- CGP42112A&#45;&gt;pr_b54acf25&#45;d417&#45;469d&#45;af00&#45;2cbb3766517a -->
<g id="edge37" class="edge"><title>CGP42112A&#45;&gt;pr_b54acf25&#45;d417&#45;469d&#45;af00&#45;2cbb3766517a</title>
<path fill="none" stroke="black" d="M801,-431.465C801,-422.737 801,-411.966 801,-400.963"/>
<polygon fill="black" stroke="black" points="804.5,-400.845 801,-390.845 797.5,-400.845 804.5,-400.845"/>
</g>
<!-- pr_b54acf25&#45;d417&#45;469d&#45;af00&#45;2cbb3766517a&#45;&gt;AGTR2 -->
<g id="edge38" class="edge"><title>pr_b54acf25&#45;d417&#45;469d&#45;af00&#45;2cbb3766517a&#45;&gt;AGTR2</title>
<path fill="none" stroke="black" d="M774.606,-291.576C767.841,-279.089 760.855,-266.196 755.094,-255.562"/>
<polygon fill="black" stroke="black" points="758.029,-253.633 750.188,-246.508 751.875,-256.968 758.029,-253.633"/>
</g>
<!-- pr_12dbd227&#45;c9d3&#45;40eb&#45;96d9&#45;273ec68c2c8a&#45;&gt;ACE2 -->
<g id="edge39" class="edge"><title>pr_12dbd227&#45;c9d3&#45;40eb&#45;96d9&#45;273ec68c2c8a&#45;&gt;ACE2</title>
<path fill="none" stroke="black" d="M476.449,-730.863C461.553,-716.787 446.098,-702.184 434.29,-691.027"/>
<polygon fill="black" stroke="black" points="436.422,-688.226 426.75,-683.902 431.614,-693.314 436.422,-688.226"/>
</g>
</g>
</svg>
