<?xml version="1.0" encoding="UTF-8" standalone="no"?>
<!DOCTYPE svg PUBLIC "-//W3C//DTD SVG 1.1//EN"
 "http://www.w3.org/Graphics/SVG/1.1/DTD/svg11.dtd">
<!-- Generated by graphviz version 2.38.0 (20140413.2041)
 -->
<!-- Title: G Pages: 1 -->
<svg width="864pt" height="911pt"
 viewBox="0.00 0.00 864.00 911.25" xmlns="http://www.w3.org/2000/svg" xmlns:xlink="http://www.w3.org/1999/xlink">
<g id="graph0" class="graph" transform="scale(1 1) rotate(0) translate(4 907.252)">
<title>G</title>
<polygon fill="white" stroke="none" points="-4,4 -4,-907.252 860,-907.252 860,4 -4,4"/>
<!-- AGT -->
<g id="node1" class="node"><title>AGT</title>
<ellipse fill="none" stroke="black" cx="296" cy="-884.69" rx="18" ry="18"/>
<text text-anchor="middle" x="296" y="-883.49" font-family="Times,serif" font-size="4.00">AGT</text>
</g>
<!-- pr_b572ed47&#45;8015&#45;40b2&#45;a612&#45;1c7a25b027f7 -->
<g id="node2" class="node"><title>pr_b572ed47&#45;8015&#45;40b2&#45;a612&#45;1c7a25b027f7</title>
<polygon fill="none" stroke="black" points="346,-829.628 246,-829.628 246,-729.628 346,-729.628 346,-829.628"/>
<text text-anchor="middle" x="296" y="-778.428" font-family="Times,serif" font-size="4.00">pr_b572ed47&#45;8015&#45;40b2&#45;a612&#45;1c7a25b027f7</text>
</g>
<!-- AGT&#45;&gt;pr_b572ed47&#45;8015&#45;40b2&#45;a612&#45;1c7a25b027f7 -->
<g id="edge1" class="edge"><title>AGT&#45;&gt;pr_b572ed47&#45;8015&#45;40b2&#45;a612&#45;1c7a25b027f7</title>
<path fill="none" stroke="black" d="M296,-866.671C296,-859.118 296,-849.735 296,-839.968"/>
<polygon fill="black" stroke="black" points="299.5,-839.711 296,-829.712 292.5,-839.712 299.5,-839.711"/>
</g>
<!-- angiotensin I -->
<g id="node3" class="node"><title>angiotensin I</title>
<ellipse fill="none" stroke="black" cx="296" cy="-670.855" rx="22.05" ry="22.05"/>
<text text-anchor="middle" x="296" y="-669.655" font-family="Times,serif" font-size="4.00">angiotensin I</text>
</g>
<!-- pr_b572ed47&#45;8015&#45;40b2&#45;a612&#45;1c7a25b027f7&#45;&gt;angiotensin I -->
<g id="edge2" class="edge"><title>pr_b572ed47&#45;8015&#45;40b2&#45;a612&#45;1c7a25b027f7&#45;&gt;angiotensin I</title>
<path fill="none" stroke="black" d="M296,-729.617C296,-720.773 296,-711.768 296,-703.582"/>
<polygon fill="black" stroke="black" points="299.5,-703.374 296,-693.374 292.5,-703.374 299.5,-703.374"/>
</g>
<!-- pr_2d90b402&#45;4379&#45;40d2&#45;a4f8&#45;aac78b935613 -->
<g id="node5" class="node"><title>pr_2d90b402&#45;4379&#45;40d2&#45;a4f8&#45;aac78b935613</title>
<polygon fill="none" stroke="black" points="272,-612.581 172,-612.581 172,-512.581 272,-512.581 272,-612.581"/>
<text text-anchor="middle" x="222" y="-561.381" font-family="Times,serif" font-size="4.00">pr_2d90b402&#45;4379&#45;40d2&#45;a4f8&#45;aac78b935613</text>
</g>
<!-- angiotensin I&#45;&gt;pr_2d90b402&#45;4379&#45;40d2&#45;a4f8&#45;aac78b935613 -->
<g id="edge3" class="edge"><title>angiotensin I&#45;&gt;pr_2d90b402&#45;4379&#45;40d2&#45;a4f8&#45;aac78b935613</title>
<path fill="none" stroke="black" d="M283.447,-651.827C277.466,-643.238 269.944,-632.434 262.232,-621.36"/>
<polygon fill="black" stroke="black" points="264.908,-619.077 256.321,-612.87 259.163,-623.077 264.908,-619.077"/>
</g>
<!-- pr_964a2892&#45;07c2&#45;4c26&#45;8e1a&#45;6c1f0c9a08cd -->
<g id="node8" class="node"><title>pr_964a2892&#45;07c2&#45;4c26&#45;8e1a&#45;6c1f0c9a08cd</title>
<polygon fill="none" stroke="black" points="390,-612.581 290,-612.581 290,-512.581 390,-512.581 390,-612.581"/>
<text text-anchor="middle" x="340" y="-561.381" font-family="Times,serif" font-size="4.00">pr_964a2892&#45;07c2&#45;4c26&#45;8e1a&#45;6c1f0c9a08cd</text>
</g>
<!-- angiotensin I&#45;&gt;pr_964a2892&#45;07c2&#45;4c26&#45;8e1a&#45;6c1f0c9a08cd -->
<g id="edge4" class="edge"><title>angiotensin I&#45;&gt;pr_964a2892&#45;07c2&#45;4c26&#45;8e1a&#45;6c1f0c9a08cd</title>
<path fill="none" stroke="black" d="M304.276,-649.865C307.631,-641.763 311.694,-631.949 315.86,-621.886"/>
<polygon fill="black" stroke="black" points="319.107,-623.194 319.698,-612.615 312.639,-620.516 319.107,-623.194"/>
</g>
<!-- REN -->
<g id="node4" class="node"><title>REN</title>
<ellipse fill="none" stroke="black" cx="660" cy="-884.69" rx="18" ry="18"/>
<text text-anchor="middle" x="660" y="-883.49" font-family="Times,serif" font-size="4.00">REN</text>
</g>
<!-- REN&#45;&gt;pr_b572ed47&#45;8015&#45;40b2&#45;a612&#45;1c7a25b027f7 -->
<g id="edge5" class="edge"><title>REN&#45;&gt;pr_b572ed47&#45;8015&#45;40b2&#45;a612&#45;1c7a25b027f7</title>
<path fill="none" stroke="black" d="M643.022,-878.435C630.201,-874.612 612.121,-869.532 596,-866.128 493.14,-844.415 455.933,-872.841 355.594,-829.758"/>
<polygon fill="black" stroke="black" points="356.893,-826.506 346.333,-825.658 354.06,-832.906 356.893,-826.506"/>
</g>
<!-- pr_c19bc6cf&#45;987e&#45;4080&#45;81d5&#45;394bac4187ce -->
<g id="node26" class="node"><title>pr_c19bc6cf&#45;987e&#45;4080&#45;81d5&#45;394bac4187ce</title>
<polygon fill="none" stroke="black" points="738,-829.628 638,-829.628 638,-729.628 738,-729.628 738,-829.628"/>
<text text-anchor="middle" x="688" y="-778.428" font-family="Times,serif" font-size="4.00">pr_c19bc6cf&#45;987e&#45;4080&#45;81d5&#45;394bac4187ce</text>
</g>
<!-- REN&#45;&gt;pr_c19bc6cf&#45;987e&#45;4080&#45;81d5&#45;394bac4187ce -->
<g id="edge6" class="edge"><title>REN&#45;&gt;pr_c19bc6cf&#45;987e&#45;4080&#45;81d5&#45;394bac4187ce</title>
<path fill="none" stroke="black" d="M659.457,-866.671C660.687,-859.039 662.762,-849.537 665.276,-839.659"/>
<polygon fill="black" stroke="black" points="668.734,-840.275 667.922,-829.712 661.969,-838.476 668.734,-840.275"/>
</g>
<!-- angiotensin II -->
<g id="node6" class="node"><title>angiotensin II</title>
<ellipse fill="none" stroke="black" cx="469" cy="-452.186" rx="23.1702" ry="23.1702"/>
<text text-anchor="middle" x="469" y="-450.986" font-family="Times,serif" font-size="4.00">angiotensin II</text>
</g>
<!-- pr_2d90b402&#45;4379&#45;40d2&#45;a4f8&#45;aac78b935613&#45;&gt;angiotensin II -->
<g id="edge7" class="edge"><title>pr_2d90b402&#45;4379&#45;40d2&#45;a4f8&#45;aac78b935613&#45;&gt;angiotensin II</title>
<path fill="none" stroke="black" d="M272.284,-517.786C275.164,-515.926 278.078,-514.175 281,-512.581 331.672,-484.929 397.169,-467.933 435.968,-459.554"/>
<polygon fill="black" stroke="black" points="437.099,-462.893 446.169,-457.418 435.664,-456.042 437.099,-462.893"/>
</g>
<!-- pr_cac6499a&#45;8384&#45;477e&#45;923b&#45;d252d0b6f6c2 -->
<g id="node13" class="node"><title>pr_cac6499a&#45;8384&#45;477e&#45;923b&#45;d252d0b6f6c2</title>
<polygon fill="none" stroke="black" points="346,-391.79 246,-391.79 246,-291.79 346,-291.79 346,-391.79"/>
<text text-anchor="middle" x="296" y="-340.59" font-family="Times,serif" font-size="4.00">pr_cac6499a&#45;8384&#45;477e&#45;923b&#45;d252d0b6f6c2</text>
</g>
<!-- angiotensin II&#45;&gt;pr_cac6499a&#45;8384&#45;477e&#45;923b&#45;d252d0b6f6c2 -->
<g id="edge8" class="edge"><title>angiotensin II&#45;&gt;pr_cac6499a&#45;8384&#45;477e&#45;923b&#45;d252d0b6f6c2</title>
<path fill="none" stroke="black" d="M449.691,-438.33C444.073,-434.768 437.867,-431 432,-427.79 398.857,-409.659 386.903,-412.024 355,-391.79 354.909,-391.732 354.817,-391.674 354.726,-391.616"/>
<polygon fill="black" stroke="black" points="356.468,-388.57 346.218,-385.887 352.558,-394.376 356.468,-388.57"/>
</g>
<!-- pr_cb01d04c&#45;9fd6&#45;4200&#45;b129&#45;005317d04605 -->
<g id="node18" class="node"><title>pr_cb01d04c&#45;9fd6&#45;4200&#45;b129&#45;005317d04605</title>
<polygon fill="none" stroke="black" points="464,-391.79 364,-391.79 364,-291.79 464,-291.79 464,-391.79"/>
<text text-anchor="middle" x="414" y="-340.59" font-family="Times,serif" font-size="4.00">pr_cb01d04c&#45;9fd6&#45;4200&#45;b129&#45;005317d04605</text>
</g>
<!-- angiotensin II&#45;&gt;pr_cb01d04c&#45;9fd6&#45;4200&#45;b129&#45;005317d04605 -->
<g id="edge9" class="edge"><title>angiotensin II&#45;&gt;pr_cb01d04c&#45;9fd6&#45;4200&#45;b129&#45;005317d04605</title>
<path fill="none" stroke="black" d="M458.784,-431.051C454.415,-422.442 449.068,-411.903 443.609,-401.145"/>
<polygon fill="black" stroke="black" points="446.663,-399.428 439.017,-392.094 440.421,-402.595 446.663,-399.428"/>
</g>
<!-- pr_5807da2e&#45;b6b2&#45;4ea5&#45;ba6f&#45;a3b6b5518296 -->
<g id="node20" class="node"><title>pr_5807da2e&#45;b6b2&#45;4ea5&#45;ba6f&#45;a3b6b5518296</title>
<polygon fill="none" stroke="black" points="738,-391.79 638,-391.79 638,-291.79 738,-291.79 738,-391.79"/>
<text text-anchor="middle" x="688" y="-340.59" font-family="Times,serif" font-size="4.00">pr_5807da2e&#45;b6b2&#45;4ea5&#45;ba6f&#45;a3b6b5518296</text>
</g>
<!-- angiotensin II&#45;&gt;pr_5807da2e&#45;b6b2&#45;4ea5&#45;ba6f&#45;a3b6b5518296 -->
<g id="edge10" class="edge"><title>angiotensin II&#45;&gt;pr_5807da2e&#45;b6b2&#45;4ea5&#45;ba6f&#45;a3b6b5518296</title>
<path fill="none" stroke="black" d="M489.576,-441.142C513.67,-429.369 554.772,-409.243 590,-391.79 602.55,-385.573 615.988,-378.878 628.764,-372.496"/>
<polygon fill="black" stroke="black" points="630.549,-375.517 637.928,-367.915 627.419,-369.255 630.549,-375.517"/>
</g>
<!-- pr_a9d8e5c0&#45;6225&#45;4273&#45;bd78&#45;7afefc27a71a -->
<g id="node29" class="node"><title>pr_a9d8e5c0&#45;6225&#45;4273&#45;bd78&#45;7afefc27a71a</title>
<polygon fill="none" stroke="black" points="581.5,-391.29 482.5,-391.29 482.5,-292.29 581.5,-292.29 581.5,-391.29"/>
<text text-anchor="middle" x="532" y="-340.59" font-family="Times,serif" font-size="4.00">pr_a9d8e5c0&#45;6225&#45;4273&#45;bd78&#45;7afefc27a71a</text>
</g>
<!-- angiotensin II&#45;&gt;pr_a9d8e5c0&#45;6225&#45;4273&#45;bd78&#45;7afefc27a71a -->
<g id="edge11" class="edge"><title>angiotensin II&#45;&gt;pr_a9d8e5c0&#45;6225&#45;4273&#45;bd78&#45;7afefc27a71a</title>
<path fill="none" stroke="black" d="M480.409,-431.556C485.557,-422.698 491.934,-411.726 498.429,-400.551"/>
<polygon fill="black" stroke="black" points="501.643,-401.987 503.642,-391.582 495.591,-398.47 501.643,-401.987"/>
</g>
<!-- ACE -->
<g id="node7" class="node"><title>ACE</title>
<ellipse fill="none" stroke="black" cx="149" cy="-670.855" rx="18" ry="18"/>
<text text-anchor="middle" x="149" y="-669.655" font-family="Times,serif" font-size="4.00">ACE</text>
</g>
<!-- ACE&#45;&gt;pr_2d90b402&#45;4379&#45;40d2&#45;a4f8&#45;aac78b935613 -->
<g id="edge12" class="edge"><title>ACE&#45;&gt;pr_2d90b402&#45;4379&#45;40d2&#45;a4f8&#45;aac78b935613</title>
<path fill="none" stroke="black" d="M158.845,-655.522C165.102,-646.413 173.658,-633.958 182.45,-621.157"/>
<polygon fill="black" stroke="black" points="185.464,-622.951 188.241,-612.727 179.694,-618.988 185.464,-622.951"/>
</g>
<!-- pr_e7deb873&#45;2502&#45;4829&#45;8aa9&#45;d524a67f8355 -->
<g id="node11" class="node"><title>pr_e7deb873&#45;2502&#45;4829&#45;8aa9&#45;d524a67f8355</title>
<polygon fill="none" stroke="black" points="228,-391.79 128,-391.79 128,-291.79 228,-291.79 228,-391.79"/>
<text text-anchor="middle" x="178" y="-340.59" font-family="Times,serif" font-size="4.00">pr_e7deb873&#45;2502&#45;4829&#45;8aa9&#45;d524a67f8355</text>
</g>
<!-- ACE&#45;&gt;pr_e7deb873&#45;2502&#45;4829&#45;8aa9&#45;d524a67f8355 -->
<g id="edge13" class="edge"><title>ACE&#45;&gt;pr_e7deb873&#45;2502&#45;4829&#45;8aa9&#45;d524a67f8355</title>
<path fill="none" stroke="black" d="M150.518,-652.731C154.598,-606.723 165.944,-478.758 172.714,-402.402"/>
<polygon fill="black" stroke="black" points="176.241,-402.254 173.638,-391.984 169.268,-401.636 176.241,-402.254"/>
</g>
<!-- angiotensin I&#45;9 -->
<g id="node9" class="node"><title>angiotensin I&#45;9</title>
<ellipse fill="none" stroke="black" cx="268" cy="-452.186" rx="24.2908" ry="24.2908"/>
<text text-anchor="middle" x="268" y="-450.986" font-family="Times,serif" font-size="4.00">angiotensin I&#45;9</text>
</g>
<!-- pr_964a2892&#45;07c2&#45;4c26&#45;8e1a&#45;6c1f0c9a08cd&#45;&gt;angiotensin I&#45;9 -->
<g id="edge14" class="edge"><title>pr_964a2892&#45;07c2&#45;4c26&#45;8e1a&#45;6c1f0c9a08cd&#45;&gt;angiotensin I&#45;9</title>
<path fill="none" stroke="black" d="M307.371,-512.458C300.322,-501.845 293.099,-490.971 286.795,-481.482"/>
<polygon fill="black" stroke="black" points="289.518,-479.256 281.07,-472.862 283.688,-483.129 289.518,-479.256"/>
</g>
<!-- angiotensin I&#45;9&#45;&gt;pr_e7deb873&#45;2502&#45;4829&#45;8aa9&#45;d524a67f8355 -->
<g id="edge15" class="edge"><title>angiotensin I&#45;9&#45;&gt;pr_e7deb873&#45;2502&#45;4829&#45;8aa9&#45;d524a67f8355</title>
<path fill="none" stroke="black" d="M252.733,-432.798C245.081,-423.582 235.353,-411.865 225.465,-399.957"/>
<polygon fill="black" stroke="black" points="228.046,-397.586 218.965,-392.129 222.661,-402.058 228.046,-397.586"/>
</g>
<!-- ACE2 -->
<g id="node10" class="node"><title>ACE2</title>
<ellipse fill="none" stroke="black" cx="418" cy="-670.855" rx="18" ry="18"/>
<text text-anchor="middle" x="418" y="-669.655" font-family="Times,serif" font-size="4.00">ACE2</text>
</g>
<!-- ACE2&#45;&gt;pr_964a2892&#45;07c2&#45;4c26&#45;8e1a&#45;6c1f0c9a08cd -->
<g id="edge16" class="edge"><title>ACE2&#45;&gt;pr_964a2892&#45;07c2&#45;4c26&#45;8e1a&#45;6c1f0c9a08cd</title>
<path fill="none" stroke="black" d="M407.803,-655.961C401.032,-646.736 391.644,-633.945 382.009,-620.818"/>
<polygon fill="black" stroke="black" points="384.738,-618.621 376,-612.63 379.095,-622.763 384.738,-618.621"/>
</g>
<!-- ACE2&#45;&gt;pr_cac6499a&#45;8384&#45;477e&#45;923b&#45;d252d0b6f6c2 -->
<g id="edge17" class="edge"><title>ACE2&#45;&gt;pr_cac6499a&#45;8384&#45;477e&#45;923b&#45;d252d0b6f6c2</title>
<path fill="none" stroke="black" d="M418.265,-652.804C418.219,-623.361 415.889,-561.45 399,-512.581 385.147,-472.497 360.826,-431.733 339.295,-400.196"/>
<polygon fill="black" stroke="black" points="342.17,-398.199 333.6,-391.97 336.415,-402.184 342.17,-398.199"/>
</g>
<!-- ACE2&#45;&gt;pr_a9d8e5c0&#45;6225&#45;4273&#45;bd78&#45;7afefc27a71a -->
<g id="edge18" class="edge"><title>ACE2&#45;&gt;pr_a9d8e5c0&#45;6225&#45;4273&#45;bd78&#45;7afefc27a71a</title>
<path fill="none" stroke="black" d="M425.868,-654.189C441.9,-621.757 478.712,-544.597 501,-476.581 508.958,-452.295 515.687,-424.891 520.82,-401.238"/>
<polygon fill="black" stroke="black" points="524.266,-401.86 522.922,-391.351 517.419,-400.405 524.266,-401.86"/>
</g>
<!-- angiotensin I&#45;7 -->
<g id="node12" class="node"><title>angiotensin I&#45;7</title>
<ellipse fill="none" stroke="black" cx="237" cy="-231.395" rx="24.2908" ry="24.2908"/>
<text text-anchor="middle" x="237" y="-230.195" font-family="Times,serif" font-size="4.00">angiotensin I&#45;7</text>
</g>
<!-- pr_e7deb873&#45;2502&#45;4829&#45;8aa9&#45;d524a67f8355&#45;&gt;angiotensin I&#45;7 -->
<g id="edge19" class="edge"><title>pr_e7deb873&#45;2502&#45;4829&#45;8aa9&#45;d524a67f8355&#45;&gt;angiotensin I&#45;7</title>
<path fill="none" stroke="black" d="M204.738,-291.667C210.214,-281.606 215.818,-271.31 220.787,-262.182"/>
<polygon fill="black" stroke="black" points="223.996,-263.607 225.703,-253.151 217.848,-260.261 223.996,-263.607"/>
</g>
<!-- pr_a3e6d859&#45;180b&#45;4fdc&#45;ad5c&#45;b83e8361f5e4 -->
<g id="node22" class="node"><title>pr_a3e6d859&#45;180b&#45;4fdc&#45;ad5c&#45;b83e8361f5e4</title>
<polygon fill="none" stroke="black" points="286.5,-171 187.5,-171 187.5,-72 286.5,-72 286.5,-171"/>
<text text-anchor="middle" x="237" y="-120.3" font-family="Times,serif" font-size="4.00">pr_a3e6d859&#45;180b&#45;4fdc&#45;ad5c&#45;b83e8361f5e4</text>
</g>
<!-- angiotensin I&#45;7&#45;&gt;pr_a3e6d859&#45;180b&#45;4fdc&#45;ad5c&#45;b83e8361f5e4 -->
<g id="edge20" class="edge"><title>angiotensin I&#45;7&#45;&gt;pr_a3e6d859&#45;180b&#45;4fdc&#45;ad5c&#45;b83e8361f5e4</title>
<path fill="none" stroke="black" d="M237,-206.984C237,-199.328 237,-190.45 237,-181.384"/>
<polygon fill="black" stroke="black" points="240.5,-181.124 237,-171.124 233.5,-181.124 240.5,-181.124"/>
</g>
<!-- pr_cac6499a&#45;8384&#45;477e&#45;923b&#45;d252d0b6f6c2&#45;&gt;angiotensin I&#45;7 -->
<g id="edge21" class="edge"><title>pr_cac6499a&#45;8384&#45;477e&#45;923b&#45;d252d0b6f6c2&#45;&gt;angiotensin I&#45;7</title>
<path fill="none" stroke="black" d="M269.262,-291.667C263.786,-281.606 258.182,-271.31 253.213,-262.182"/>
<polygon fill="black" stroke="black" points="256.152,-260.261 248.297,-253.151 250.004,-263.607 256.152,-260.261"/>
</g>
<!-- SPIKE -->
<g id="node14" class="node"><title>SPIKE</title>
<ellipse fill="none" stroke="black" cx="414" cy="-884.69" rx="18" ry="18"/>
<text text-anchor="middle" x="414" y="-883.49" font-family="Times,serif" font-size="4.00">SPIKE</text>
</g>
<!-- pr_8013e5e3&#45;2562&#45;444d&#45;80ee&#45;bf5d61bb41cd -->
<g id="node15" class="node"><title>pr_8013e5e3&#45;2562&#45;444d&#45;80ee&#45;bf5d61bb41cd</title>
<polygon fill="none" stroke="black" points="464,-829.628 364,-829.628 364,-729.628 464,-729.628 464,-829.628"/>
<text text-anchor="middle" x="414" y="-778.428" font-family="Times,serif" font-size="4.00">pr_8013e5e3&#45;2562&#45;444d&#45;80ee&#45;bf5d61bb41cd</text>
</g>
<!-- SPIKE&#45;&gt;pr_8013e5e3&#45;2562&#45;444d&#45;80ee&#45;bf5d61bb41cd -->
<g id="edge22" class="edge"><title>SPIKE&#45;&gt;pr_8013e5e3&#45;2562&#45;444d&#45;80ee&#45;bf5d61bb41cd</title>
<path fill="none" stroke="black" d="M414,-866.671C414,-859.118 414,-849.735 414,-839.968"/>
<polygon fill="black" stroke="black" points="417.5,-839.711 414,-829.712 410.5,-839.712 417.5,-839.711"/>
</g>
<!-- pr_8013e5e3&#45;2562&#45;444d&#45;80ee&#45;bf5d61bb41cd&#45;&gt;ACE2 -->
<g id="edge23" class="edge"><title>pr_8013e5e3&#45;2562&#45;444d&#45;80ee&#45;bf5d61bb41cd&#45;&gt;ACE2</title>
<path fill="none" stroke="black" d="M415.836,-729.617C416.226,-719.214 416.624,-708.588 416.971,-699.334"/>
<polygon fill="black" stroke="black" points="420.473,-699.319 417.35,-689.195 413.478,-699.057 420.473,-699.319"/>
</g>
<!-- Lisinopril -->
<g id="node16" class="node"><title>Lisinopril</title>
<ellipse fill="none" stroke="black" cx="108" cy="-884.69" rx="18.6233" ry="18.6233"/>
<text text-anchor="middle" x="108" y="-883.49" font-family="Times,serif" font-size="4.00">Lisinopril</text>
</g>
<!-- pr_ebfba99f&#45;f4e0&#45;476a&#45;82d1&#45;7c1215b47b56 -->
<g id="node17" class="node"><title>pr_ebfba99f&#45;f4e0&#45;476a&#45;82d1&#45;7c1215b47b56</title>
<polygon fill="none" stroke="black" points="98,-828.628 7.10543e-15,-828.628 7.10543e-15,-730.628 98,-730.628 98,-828.628"/>
<text text-anchor="middle" x="49" y="-778.428" font-family="Times,serif" font-size="4.00">pr_ebfba99f&#45;f4e0&#45;476a&#45;82d1&#45;7c1215b47b56</text>
</g>
<!-- Lisinopril&#45;&gt;pr_ebfba99f&#45;f4e0&#45;476a&#45;82d1&#45;7c1215b47b56 -->
<g id="edge24" class="edge"><title>Lisinopril&#45;&gt;pr_ebfba99f&#45;f4e0&#45;476a&#45;82d1&#45;7c1215b47b56</title>
<path fill="none" stroke="black" d="M99.0392,-868.037C94.308,-859.773 88.1775,-849.064 81.8387,-837.991"/>
<polygon fill="black" stroke="black" points="84.739,-836.013 76.7333,-829.073 78.664,-839.491 84.739,-836.013"/>
</g>
<!-- pr_2de5a110&#45;314a&#45;47a7&#45;9bec&#45;453862ac95c5 -->
<g id="node28" class="node"><title>pr_2de5a110&#45;314a&#45;47a7&#45;9bec&#45;453862ac95c5</title>
<polygon fill="none" stroke="black" points="217.5,-830.128 116.5,-830.128 116.5,-729.128 217.5,-729.128 217.5,-830.128"/>
<text text-anchor="middle" x="167" y="-778.428" font-family="Times,serif" font-size="4.00">pr_2de5a110&#45;314a&#45;47a7&#45;9bec&#45;453862ac95c5</text>
</g>
<!-- Lisinopril&#45;&gt;pr_2de5a110&#45;314a&#45;47a7&#45;9bec&#45;453862ac95c5 -->
<g id="edge25" class="edge"><title>Lisinopril&#45;&gt;pr_2de5a110&#45;314a&#45;47a7&#45;9bec&#45;453862ac95c5</title>
<path fill="none" stroke="black" d="M116.961,-868.037C121.494,-860.118 127.312,-849.956 133.367,-839.379"/>
<polygon fill="black" stroke="black" points="136.555,-840.855 138.486,-830.438 130.48,-837.377 136.555,-840.855"/>
</g>
<!-- pr_ebfba99f&#45;f4e0&#45;476a&#45;82d1&#45;7c1215b47b56&#45;&gt;ACE -->
<g id="edge26" class="edge"><title>pr_ebfba99f&#45;f4e0&#45;476a&#45;82d1&#45;7c1215b47b56&#45;&gt;ACE</title>
<path fill="none" stroke="black" d="M94.0269,-730.552C106.708,-717.011 119.821,-703.01 130.058,-692.08"/>
<polygon fill="black" stroke="black" points="132.675,-694.405 136.956,-684.714 127.566,-689.62 132.675,-694.405"/>
</g>
<!-- AGTR1 -->
<g id="node19" class="node"><title>AGTR1</title>
<ellipse fill="none" stroke="black" cx="532" cy="-231.395" rx="18" ry="18"/>
<text text-anchor="middle" x="532" y="-230.195" font-family="Times,serif" font-size="4.00">AGTR1</text>
</g>
<!-- pr_cb01d04c&#45;9fd6&#45;4200&#45;b129&#45;005317d04605&#45;&gt;AGTR1 -->
<g id="edge27" class="edge"><title>pr_cb01d04c&#45;9fd6&#45;4200&#45;b129&#45;005317d04605&#45;&gt;AGTR1</title>
<path fill="none" stroke="black" d="M464.043,-294.821C480.688,-279.53 498.308,-263.345 511.434,-251.287"/>
<polygon fill="black" stroke="black" points="513.981,-253.7 518.978,-244.357 509.246,-248.545 513.981,-253.7"/>
</g>
<!-- AGTR2 -->
<g id="node21" class="node"><title>AGTR2</title>
<ellipse fill="none" stroke="black" cx="747" cy="-231.395" rx="18" ry="18"/>
<text text-anchor="middle" x="747" y="-230.195" font-family="Times,serif" font-size="4.00">AGTR2</text>
</g>
<!-- pr_5807da2e&#45;b6b2&#45;4ea5&#45;ba6f&#45;a3b6b5518296&#45;&gt;AGTR2 -->
<g id="edge28" class="edge"><title>pr_5807da2e&#45;b6b2&#45;4ea5&#45;ba6f&#45;a3b6b5518296&#45;&gt;AGTR2</title>
<path fill="none" stroke="black" d="M714.738,-291.667C721.368,-279.487 728.185,-266.963 733.835,-256.583"/>
<polygon fill="black" stroke="black" points="736.95,-258.181 738.656,-247.724 730.801,-254.834 736.95,-258.181"/>
</g>
<!-- MAS1 -->
<g id="node23" class="node"><title>MAS1</title>
<ellipse fill="none" stroke="black" cx="237" cy="-18" rx="18" ry="18"/>
<text text-anchor="middle" x="237" y="-16.8" font-family="Times,serif" font-size="4.00">MAS1</text>
</g>
<!-- pr_a3e6d859&#45;180b&#45;4fdc&#45;ad5c&#45;b83e8361f5e4&#45;&gt;MAS1 -->
<g id="edge29" class="edge"><title>pr_a3e6d859&#45;180b&#45;4fdc&#45;ad5c&#45;b83e8361f5e4&#45;&gt;MAS1</title>
<path fill="none" stroke="black" d="M237,-71.831C237,-63.0165 237,-54.1181 237,-46.2018"/>
<polygon fill="black" stroke="black" points="240.5,-46.1158 237,-36.1159 233.5,-46.1159 240.5,-46.1158"/>
</g>
<!-- losartan -->
<g id="node24" class="node"><title>losartan</title>
<ellipse fill="none" stroke="black" cx="569" cy="-884.69" rx="18" ry="18"/>
<text text-anchor="middle" x="569" y="-883.49" font-family="Times,serif" font-size="4.00">losartan</text>
</g>
<!-- pr_c67ea415&#45;b423&#45;47aa&#45;a486&#45;43818fc4a193 -->
<g id="node25" class="node"><title>pr_c67ea415&#45;b423&#45;47aa&#45;a486&#45;43818fc4a193</title>
<polygon fill="none" stroke="black" points="660,-612.581 560,-612.581 560,-512.581 660,-512.581 660,-612.581"/>
<text text-anchor="middle" x="610" y="-561.381" font-family="Times,serif" font-size="4.00">pr_c67ea415&#45;b423&#45;47aa&#45;a486&#45;43818fc4a193</text>
</g>
<!-- losartan&#45;&gt;pr_c67ea415&#45;b423&#45;47aa&#45;a486&#45;43818fc4a193 -->
<g id="edge30" class="edge"><title>losartan&#45;&gt;pr_c67ea415&#45;b423&#45;47aa&#45;a486&#45;43818fc4a193</title>
<path fill="none" stroke="black" d="M576.912,-868.191C581.863,-857.723 587.877,-843.439 591,-830.128 607.376,-760.328 610.905,-677.665 611.129,-623.106"/>
<polygon fill="black" stroke="black" points="614.629,-622.92 611.134,-612.919 607.629,-622.917 614.629,-622.92"/>
</g>
<!-- pr_3da6e6ae&#45;be8a&#45;426b&#45;8178&#45;5439b19a18af -->
<g id="node32" class="node"><title>pr_3da6e6ae&#45;be8a&#45;426b&#45;8178&#45;5439b19a18af</title>
<polygon fill="none" stroke="black" points="582,-829.628 482,-829.628 482,-729.628 582,-729.628 582,-829.628"/>
<text text-anchor="middle" x="532" y="-778.428" font-family="Times,serif" font-size="4.00">pr_3da6e6ae&#45;be8a&#45;426b&#45;8178&#45;5439b19a18af</text>
</g>
<!-- losartan&#45;&gt;pr_3da6e6ae&#45;be8a&#45;426b&#45;8178&#45;5439b19a18af -->
<g id="edge31" class="edge"><title>losartan&#45;&gt;pr_3da6e6ae&#45;be8a&#45;426b&#45;8178&#45;5439b19a18af</title>
<path fill="none" stroke="black" d="M563.219,-867.587C560.418,-859.785 556.863,-849.883 553.163,-839.576"/>
<polygon fill="black" stroke="black" points="556.415,-838.275 549.741,-830.046 549.826,-840.641 556.415,-838.275"/>
</g>
<!-- pr_c67ea415&#45;b423&#45;47aa&#45;a486&#45;43818fc4a193&#45;&gt;AGTR1 -->
<g id="edge32" class="edge"><title>pr_c67ea415&#45;b423&#45;47aa&#45;a486&#45;43818fc4a193&#45;&gt;AGTR1</title>
<path fill="none" stroke="black" d="M616.123,-512.354C620.936,-456.313 622.251,-363.288 590,-291.79 582.222,-274.547 567.174,-259.372 554.355,-248.678"/>
<polygon fill="black" stroke="black" points="556.358,-245.8 546.351,-242.32 552.004,-251.281 556.358,-245.8"/>
</g>
<!-- pr_c19bc6cf&#45;987e&#45;4080&#45;81d5&#45;394bac4187ce&#45;&gt;REN -->
<g id="edge33" class="edge"><title>pr_c19bc6cf&#45;987e&#45;4080&#45;81d5&#45;394bac4187ce&#45;&gt;REN</title>
<path fill="none" stroke="black" d="M681.374,-829.841C678.645,-840.081 675.528,-850.443 672.462,-859.306"/>
<polygon fill="black" stroke="black" points="669.091,-858.33 668.912,-868.924 675.658,-860.754 669.091,-858.33"/>
</g>
<!-- Calcitriol -->
<g id="node27" class="node"><title>Calcitriol</title>
<ellipse fill="none" stroke="black" cx="715" cy="-884.69" rx="18.6233" ry="18.6233"/>
<text text-anchor="middle" x="715" y="-883.49" font-family="Times,serif" font-size="4.00">Calcitriol</text>
</g>
<!-- Calcitriol&#45;&gt;pr_c19bc6cf&#45;987e&#45;4080&#45;81d5&#45;394bac4187ce -->
<g id="edge34" class="edge"><title>Calcitriol&#45;&gt;pr_c19bc6cf&#45;987e&#45;4080&#45;81d5&#45;394bac4187ce</title>
<path fill="none" stroke="black" d="M710.541,-866.671C708.542,-859.039 706.053,-849.537 703.465,-839.659"/>
<polygon fill="black" stroke="black" points="706.779,-838.498 700.859,-829.712 700.007,-840.272 706.779,-838.498"/>
</g>
<!-- pr_2de5a110&#45;314a&#45;47a7&#45;9bec&#45;453862ac95c5&#45;&gt;ACE -->
<g id="edge35" class="edge"><title>pr_2de5a110&#45;314a&#45;47a7&#45;9bec&#45;453862ac95c5&#45;&gt;ACE</title>
<path fill="none" stroke="black" d="M158.632,-728.993C156.89,-718.659 155.116,-708.137 153.574,-698.985"/>
<polygon fill="black" stroke="black" points="156.998,-698.244 151.885,-688.965 150.096,-699.408 156.998,-698.244"/>
</g>
<!-- pr_a9d8e5c0&#45;6225&#45;4273&#45;bd78&#45;7afefc27a71a&#45;&gt;AGTR1 -->
<g id="edge36" class="edge"><title>pr_a9d8e5c0&#45;6225&#45;4273&#45;bd78&#45;7afefc27a71a&#45;&gt;AGTR1</title>
<path fill="none" stroke="black" d="M532,-291.983C532,-280.96 532,-269.636 532,-259.86"/>
<polygon fill="black" stroke="black" points="535.5,-259.579 532,-249.579 528.5,-259.579 535.5,-259.579"/>
</g>
<!-- CGP42112A -->
<g id="node30" class="node"><title>CGP42112A</title>
<ellipse fill="none" stroke="black" cx="806" cy="-452.186" rx="20.8674" ry="20.8674"/>
<text text-anchor="middle" x="806" y="-450.986" font-family="Times,serif" font-size="4.00">CGP42112A</text>
</g>
<!-- pr_c0828447&#45;c622&#45;4092&#45;b2f2&#45;c38b425432be -->
<g id="node31" class="node"><title>pr_c0828447&#45;c622&#45;4092&#45;b2f2&#45;c38b425432be</title>
<polygon fill="none" stroke="black" points="856,-391.79 756,-391.79 756,-291.79 856,-291.79 856,-391.79"/>
<text text-anchor="middle" x="806" y="-340.59" font-family="Times,serif" font-size="4.00">pr_c0828447&#45;c622&#45;4092&#45;b2f2&#45;c38b425432be</text>
</g>
<!-- CGP42112A&#45;&gt;pr_c0828447&#45;c622&#45;4092&#45;b2f2&#45;c38b425432be -->
<g id="edge37" class="edge"><title>CGP42112A&#45;&gt;pr_c0828447&#45;c622&#45;4092&#45;b2f2&#45;c38b425432be</title>
<path fill="none" stroke="black" d="M806,-431.304C806,-422.875 806,-412.564 806,-401.996"/>
<polygon fill="black" stroke="black" points="809.5,-401.839 806,-391.839 802.5,-401.839 809.5,-401.839"/>
</g>
<!-- pr_c0828447&#45;c622&#45;4092&#45;b2f2&#45;c38b425432be&#45;&gt;AGTR2 -->
<g id="edge38" class="edge"><title>pr_c0828447&#45;c622&#45;4092&#45;b2f2&#45;c38b425432be&#45;&gt;AGTR2</title>
<path fill="none" stroke="black" d="M779.262,-291.667C772.632,-279.487 765.815,-266.963 760.165,-256.583"/>
<polygon fill="black" stroke="black" points="763.199,-254.834 755.344,-247.724 757.05,-258.181 763.199,-254.834"/>
</g>
<!-- pr_3da6e6ae&#45;be8a&#45;426b&#45;8178&#45;5439b19a18af&#45;&gt;ACE2 -->
<g id="edge39" class="edge"><title>pr_3da6e6ae&#45;be8a&#45;426b&#45;8178&#45;5439b19a18af&#45;&gt;ACE2</title>
<path fill="none" stroke="black" d="M481.998,-731.796C466.49,-717.271 450.281,-702.089 438.055,-690.639"/>
<polygon fill="black" stroke="black" points="440.335,-687.979 430.644,-683.697 435.55,-693.088 440.335,-687.979"/>
</g>
</g>
</svg>
