<?xml version="1.0" encoding="UTF-8" standalone="no"?>
<!DOCTYPE svg PUBLIC "-//W3C//DTD SVG 1.1//EN"
 "http://www.w3.org/Graphics/SVG/1.1/DTD/svg11.dtd">
<!-- Generated by graphviz version 2.38.0 (20140413.2041)
 -->
<!-- Title: G Pages: 1 -->
<svg width="864pt" height="911pt"
 viewBox="0.00 0.00 863.50 911.25" xmlns="http://www.w3.org/2000/svg" xmlns:xlink="http://www.w3.org/1999/xlink">
<g id="graph0" class="graph" transform="scale(1 1) rotate(0) translate(4 907.252)">
<title>G</title>
<polygon fill="white" stroke="none" points="-4,4 -4,-907.252 859.5,-907.252 859.5,4 -4,4"/>
<!-- AGT -->
<g id="node1" class="node"><title>AGT</title>
<ellipse fill="none" stroke="black" cx="298.5" cy="-884.69" rx="18" ry="18"/>
<text text-anchor="middle" x="298.5" y="-883.49" font-family="Times,serif" font-size="4.00">AGT</text>
</g>
<!-- pr_3d82def9&#45;8d55&#45;4bbf&#45;913c&#45;0de7e6a26c0f -->
<g id="node2" class="node"><title>pr_3d82def9&#45;8d55&#45;4bbf&#45;913c&#45;0de7e6a26c0f</title>
<polygon fill="none" stroke="black" points="347.5,-828.628 249.5,-828.628 249.5,-730.628 347.5,-730.628 347.5,-828.628"/>
<text text-anchor="middle" x="298.5" y="-778.428" font-family="Times,serif" font-size="4.00">pr_3d82def9&#45;8d55&#45;4bbf&#45;913c&#45;0de7e6a26c0f</text>
</g>
<!-- AGT&#45;&gt;pr_3d82def9&#45;8d55&#45;4bbf&#45;913c&#45;0de7e6a26c0f -->
<g id="edge1" class="edge"><title>AGT&#45;&gt;pr_3d82def9&#45;8d55&#45;4bbf&#45;913c&#45;0de7e6a26c0f</title>
<path fill="none" stroke="black" d="M298.5,-866.671C298.5,-858.867 298.5,-849.109 298.5,-838.993"/>
<polygon fill="black" stroke="black" points="302,-838.816 298.5,-828.816 295,-838.816 302,-838.816"/>
</g>
<!-- angiotensin I -->
<g id="node3" class="node"><title>angiotensin I</title>
<ellipse fill="none" stroke="black" cx="298.5" cy="-670.855" rx="22.05" ry="22.05"/>
<text text-anchor="middle" x="298.5" y="-669.655" font-family="Times,serif" font-size="4.00">angiotensin I</text>
</g>
<!-- pr_3d82def9&#45;8d55&#45;4bbf&#45;913c&#45;0de7e6a26c0f&#45;&gt;angiotensin I -->
<g id="edge2" class="edge"><title>pr_3d82def9&#45;8d55&#45;4bbf&#45;913c&#45;0de7e6a26c0f&#45;&gt;angiotensin I</title>
<path fill="none" stroke="black" d="M298.5,-730.552C298.5,-721.366 298.5,-711.97 298.5,-703.463"/>
<polygon fill="black" stroke="black" points="302,-703.247 298.5,-693.247 295,-703.247 302,-703.247"/>
</g>
<!-- pr_dd8c0542&#45;8b56&#45;4db3&#45;91b2&#45;85a9036c46e6 -->
<g id="node5" class="node"><title>pr_dd8c0542&#45;8b56&#45;4db3&#45;91b2&#45;85a9036c46e6</title>
<polygon fill="none" stroke="black" points="273,-612.581 172,-612.581 172,-511.581 273,-511.581 273,-612.581"/>
<text text-anchor="middle" x="222.5" y="-560.881" font-family="Times,serif" font-size="4.00">pr_dd8c0542&#45;8b56&#45;4db3&#45;91b2&#45;85a9036c46e6</text>
</g>
<!-- angiotensin I&#45;&gt;pr_dd8c0542&#45;8b56&#45;4db3&#45;91b2&#45;85a9036c46e6 -->
<g id="edge3" class="edge"><title>angiotensin I&#45;&gt;pr_dd8c0542&#45;8b56&#45;4db3&#45;91b2&#45;85a9036c46e6</title>
<path fill="none" stroke="black" d="M285.95,-652.223C279.776,-643.548 271.942,-632.543 263.904,-621.249"/>
<polygon fill="black" stroke="black" points="266.685,-619.122 258.035,-613.004 260.982,-623.181 266.685,-619.122"/>
</g>
<!-- pr_2bc7a571&#45;83ae&#45;4ca9&#45;89ec&#45;75ae9cb33fdb -->
<g id="node8" class="node"><title>pr_2bc7a571&#45;83ae&#45;4ca9&#45;89ec&#45;75ae9cb33fdb</title>
<polygon fill="none" stroke="black" points="391.5,-612.081 291.5,-612.081 291.5,-512.081 391.5,-512.081 391.5,-612.081"/>
<text text-anchor="middle" x="341.5" y="-560.881" font-family="Times,serif" font-size="4.00">pr_2bc7a571&#45;83ae&#45;4ca9&#45;89ec&#45;75ae9cb33fdb</text>
</g>
<!-- angiotensin I&#45;&gt;pr_2bc7a571&#45;83ae&#45;4ca9&#45;89ec&#45;75ae9cb33fdb -->
<g id="edge4" class="edge"><title>angiotensin I&#45;&gt;pr_2bc7a571&#45;83ae&#45;4ca9&#45;89ec&#45;75ae9cb33fdb</title>
<path fill="none" stroke="black" d="M306.588,-649.771C309.866,-641.631 313.837,-631.771 317.909,-621.66"/>
<polygon fill="black" stroke="black" points="321.171,-622.93 321.66,-612.346 314.678,-620.315 321.171,-622.93"/>
</g>
<!-- REN -->
<g id="node4" class="node"><title>REN</title>
<ellipse fill="none" stroke="black" cx="658.5" cy="-884.69" rx="18" ry="18"/>
<text text-anchor="middle" x="658.5" y="-883.49" font-family="Times,serif" font-size="4.00">REN</text>
</g>
<!-- REN&#45;&gt;pr_3d82def9&#45;8d55&#45;4bbf&#45;913c&#45;0de7e6a26c0f -->
<g id="edge5" class="edge"><title>REN&#45;&gt;pr_3d82def9&#45;8d55&#45;4bbf&#45;913c&#45;0de7e6a26c0f</title>
<path fill="none" stroke="black" d="M641.527,-878.35C628.926,-874.535 611.267,-869.5 595.5,-866.128 490.455,-843.664 454.231,-874.713 356.5,-830.128 356.406,-830.086 356.312,-830.042 356.218,-829.999"/>
<polygon fill="black" stroke="black" points="358.072,-827.02 347.594,-825.449 354.805,-833.211 358.072,-827.02"/>
</g>
<!-- pr_785f3d5c&#45;7444&#45;4016&#45;8a66&#45;0f0c36fda739 -->
<g id="node26" class="node"><title>pr_785f3d5c&#45;7444&#45;4016&#45;8a66&#45;0f0c36fda739</title>
<polygon fill="none" stroke="black" points="735.5,-828.628 637.5,-828.628 637.5,-730.628 735.5,-730.628 735.5,-828.628"/>
<text text-anchor="middle" x="686.5" y="-778.428" font-family="Times,serif" font-size="4.00">pr_785f3d5c&#45;7444&#45;4016&#45;8a66&#45;0f0c36fda739</text>
</g>
<!-- REN&#45;&gt;pr_785f3d5c&#45;7444&#45;4016&#45;8a66&#45;0f0c36fda739 -->
<g id="edge6" class="edge"><title>REN&#45;&gt;pr_785f3d5c&#45;7444&#45;4016&#45;8a66&#45;0f0c36fda739</title>
<path fill="none" stroke="black" d="M657.957,-866.671C659.228,-858.786 661.401,-848.905 664.028,-838.676"/>
<polygon fill="black" stroke="black" points="667.462,-839.382 666.671,-828.816 660.701,-837.569 667.462,-839.382"/>
</g>
<!-- angiotensin II -->
<g id="node6" class="node"><title>angiotensin II</title>
<ellipse fill="none" stroke="black" cx="470.5" cy="-451.186" rx="23.1702" ry="23.1702"/>
<text text-anchor="middle" x="470.5" y="-449.986" font-family="Times,serif" font-size="4.00">angiotensin II</text>
</g>
<!-- pr_dd8c0542&#45;8b56&#45;4db3&#45;91b2&#45;85a9036c46e6&#45;&gt;angiotensin II -->
<g id="edge7" class="edge"><title>pr_dd8c0542&#45;8b56&#45;4db3&#45;91b2&#45;85a9036c46e6&#45;&gt;angiotensin II</title>
<path fill="none" stroke="black" d="M273.299,-517.069C276.338,-515.104 279.415,-513.258 282.5,-511.581 333.217,-484.012 398.7,-466.99 437.484,-458.583"/>
<polygon fill="black" stroke="black" points="438.615,-461.922 447.681,-456.439 437.174,-455.072 438.615,-461.922"/>
</g>
<!-- pr_c526d85d&#45;1d0f&#45;4c6b&#45;b875&#45;624ea2ee2ed8 -->
<g id="node13" class="node"><title>pr_c526d85d&#45;1d0f&#45;4c6b&#45;b875&#45;624ea2ee2ed8</title>
<polygon fill="none" stroke="black" points="349.5,-390.79 249.5,-390.79 249.5,-290.79 349.5,-290.79 349.5,-390.79"/>
<text text-anchor="middle" x="299.5" y="-339.59" font-family="Times,serif" font-size="4.00">pr_c526d85d&#45;1d0f&#45;4c6b&#45;b875&#45;624ea2ee2ed8</text>
</g>
<!-- angiotensin II&#45;&gt;pr_c526d85d&#45;1d0f&#45;4c6b&#45;b875&#45;624ea2ee2ed8 -->
<g id="edge8" class="edge"><title>angiotensin II&#45;&gt;pr_c526d85d&#45;1d0f&#45;4c6b&#45;b875&#45;624ea2ee2ed8</title>
<path fill="none" stroke="black" d="M451.17,-437.369C445.551,-433.807 439.351,-430.03 433.5,-426.79 401.153,-408.88 389.623,-410.752 358.5,-390.79 358.409,-390.732 358.318,-390.673 358.227,-390.615"/>
<polygon fill="black" stroke="black" points="359.98,-387.575 349.741,-384.851 356.047,-393.365 359.98,-387.575"/>
</g>
<!-- pr_66462ff0&#45;9a36&#45;47c2&#45;bf44&#45;3593681b2562 -->
<g id="node18" class="node"><title>pr_66462ff0&#45;9a36&#45;47c2&#45;bf44&#45;3593681b2562</title>
<polygon fill="none" stroke="black" points="465.5,-389.79 367.5,-389.79 367.5,-291.79 465.5,-291.79 465.5,-389.79"/>
<text text-anchor="middle" x="416.5" y="-339.59" font-family="Times,serif" font-size="4.00">pr_66462ff0&#45;9a36&#45;47c2&#45;bf44&#45;3593681b2562</text>
</g>
<!-- angiotensin II&#45;&gt;pr_66462ff0&#45;9a36&#45;47c2&#45;bf44&#45;3593681b2562 -->
<g id="edge9" class="edge"><title>angiotensin II&#45;&gt;pr_66462ff0&#45;9a36&#45;47c2&#45;bf44&#45;3593681b2562</title>
<path fill="none" stroke="black" d="M460.47,-430.051C456.085,-421.25 450.697,-410.434 445.213,-399.427"/>
<polygon fill="black" stroke="black" points="448.197,-397.568 440.605,-390.178 441.932,-400.689 448.197,-397.568"/>
</g>
<!-- pr_fb071d5d&#45;7445&#45;44af&#45;81d8&#45;268b8317d134 -->
<g id="node20" class="node"><title>pr_fb071d5d&#45;7445&#45;44af&#45;81d8&#45;268b8317d134</title>
<polygon fill="none" stroke="black" points="737,-390.29 638,-390.29 638,-291.29 737,-291.29 737,-390.29"/>
<text text-anchor="middle" x="687.5" y="-339.59" font-family="Times,serif" font-size="4.00">pr_fb071d5d&#45;7445&#45;44af&#45;81d8&#45;268b8317d134</text>
</g>
<!-- angiotensin II&#45;&gt;pr_fb071d5d&#45;7445&#45;44af&#45;81d8&#45;268b8317d134 -->
<g id="edge10" class="edge"><title>angiotensin II&#45;&gt;pr_fb071d5d&#45;7445&#45;44af&#45;81d8&#45;268b8317d134</title>
<path fill="none" stroke="black" d="M491.337,-439.936C515.292,-428.138 555.779,-408.153 590.5,-390.79 602.857,-384.611 616.081,-377.958 628.665,-371.607"/>
<polygon fill="black" stroke="black" points="630.346,-374.68 637.694,-367.048 627.19,-368.432 630.346,-374.68"/>
</g>
<!-- pr_8c6b3cd3&#45;144f&#45;4e71&#45;a10a&#45;f6fe25e8d96f -->
<g id="node29" class="node"><title>pr_8c6b3cd3&#45;144f&#45;4e71&#45;a10a&#45;f6fe25e8d96f</title>
<polygon fill="none" stroke="black" points="581.5,-389.79 483.5,-389.79 483.5,-291.79 581.5,-291.79 581.5,-389.79"/>
<text text-anchor="middle" x="532.5" y="-339.59" font-family="Times,serif" font-size="4.00">pr_8c6b3cd3&#45;144f&#45;4e71&#45;a10a&#45;f6fe25e8d96f</text>
</g>
<!-- angiotensin II&#45;&gt;pr_8c6b3cd3&#45;144f&#45;4e71&#45;a10a&#45;f6fe25e8d96f -->
<g id="edge11" class="edge"><title>angiotensin II&#45;&gt;pr_8c6b3cd3&#45;144f&#45;4e71&#45;a10a&#45;f6fe25e8d96f</title>
<path fill="none" stroke="black" d="M481.728,-430.556C486.9,-421.513 493.333,-410.267 499.862,-398.851"/>
<polygon fill="black" stroke="black" points="502.928,-400.54 504.855,-390.122 496.852,-397.065 502.928,-400.54"/>
</g>
<!-- ACE -->
<g id="node7" class="node"><title>ACE</title>
<ellipse fill="none" stroke="black" cx="150.5" cy="-670.855" rx="18" ry="18"/>
<text text-anchor="middle" x="150.5" y="-669.655" font-family="Times,serif" font-size="4.00">ACE</text>
</g>
<!-- ACE&#45;&gt;pr_dd8c0542&#45;8b56&#45;4db3&#45;91b2&#45;85a9036c46e6 -->
<g id="edge12" class="edge"><title>ACE&#45;&gt;pr_dd8c0542&#45;8b56&#45;4db3&#45;91b2&#45;85a9036c46e6</title>
<path fill="none" stroke="black" d="M160.21,-655.455C166.319,-646.396 174.648,-634.044 183.227,-621.322"/>
<polygon fill="black" stroke="black" points="186.191,-623.187 188.88,-612.939 180.387,-619.273 186.191,-623.187"/>
</g>
<!-- pr_91b37348&#45;54cf&#45;425d&#45;b3be&#45;99f85135861c -->
<g id="node11" class="node"><title>pr_91b37348&#45;54cf&#45;425d&#45;b3be&#45;99f85135861c</title>
<polygon fill="none" stroke="black" points="231,-390.29 132,-390.29 132,-291.29 231,-291.29 231,-390.29"/>
<text text-anchor="middle" x="181.5" y="-339.59" font-family="Times,serif" font-size="4.00">pr_91b37348&#45;54cf&#45;425d&#45;b3be&#45;99f85135861c</text>
</g>
<!-- ACE&#45;&gt;pr_91b37348&#45;54cf&#45;425d&#45;b3be&#45;99f85135861c -->
<g id="edge13" class="edge"><title>ACE&#45;&gt;pr_91b37348&#45;54cf&#45;425d&#45;b3be&#45;99f85135861c</title>
<path fill="none" stroke="black" d="M151.596,-652.74C153.502,-623.69 157.686,-562.887 162.5,-511.581 165.963,-474.674 170.573,-433.336 174.385,-400.69"/>
<polygon fill="black" stroke="black" points="177.901,-400.753 175.592,-390.413 170.949,-399.937 177.901,-400.753"/>
</g>
<!-- angiotensin I&#45;9 -->
<g id="node9" class="node"><title>angiotensin I&#45;9</title>
<ellipse fill="none" stroke="black" cx="268.5" cy="-451.186" rx="24.2908" ry="24.2908"/>
<text text-anchor="middle" x="268.5" y="-449.986" font-family="Times,serif" font-size="4.00">angiotensin I&#45;9</text>
</g>
<!-- pr_2bc7a571&#45;83ae&#45;4ca9&#45;89ec&#45;75ae9cb33fdb&#45;&gt;angiotensin I&#45;9 -->
<g id="edge14" class="edge"><title>pr_2bc7a571&#45;83ae&#45;4ca9&#45;89ec&#45;75ae9cb33fdb&#45;&gt;angiotensin I&#45;9</title>
<path fill="none" stroke="black" d="M308.63,-512.049C301.329,-501.157 293.832,-489.973 287.323,-480.264"/>
<polygon fill="black" stroke="black" points="290.133,-478.17 281.658,-471.813 284.319,-482.068 290.133,-478.17"/>
</g>
<!-- angiotensin I&#45;9&#45;&gt;pr_91b37348&#45;54cf&#45;425d&#45;b3be&#45;99f85135861c -->
<g id="edge15" class="edge"><title>angiotensin I&#45;9&#45;&gt;pr_91b37348&#45;54cf&#45;425d&#45;b3be&#45;99f85135861c</title>
<path fill="none" stroke="black" d="M253.346,-431.305C245.988,-422.138 236.715,-410.584 227.297,-398.85"/>
<polygon fill="black" stroke="black" points="229.765,-396.334 220.776,-390.726 224.306,-400.715 229.765,-396.334"/>
</g>
<!-- ACE2 -->
<g id="node10" class="node"><title>ACE2</title>
<ellipse fill="none" stroke="black" cx="419.5" cy="-670.855" rx="18" ry="18"/>
<text text-anchor="middle" x="419.5" y="-669.655" font-family="Times,serif" font-size="4.00">ACE2</text>
</g>
<!-- ACE2&#45;&gt;pr_2bc7a571&#45;83ae&#45;4ca9&#45;89ec&#45;75ae9cb33fdb -->
<g id="edge16" class="edge"><title>ACE2&#45;&gt;pr_2bc7a571&#45;83ae&#45;4ca9&#45;89ec&#45;75ae9cb33fdb</title>
<path fill="none" stroke="black" d="M409.303,-655.896C402.532,-646.627 393.144,-633.776 383.509,-620.587"/>
<polygon fill="black" stroke="black" points="386.225,-618.371 377.5,-612.361 380.572,-622.5 386.225,-618.371"/>
</g>
<!-- ACE2&#45;&gt;pr_c526d85d&#45;1d0f&#45;4c6b&#45;b875&#45;624ea2ee2ed8 -->
<g id="edge17" class="edge"><title>ACE2&#45;&gt;pr_c526d85d&#45;1d0f&#45;4c6b&#45;b875&#45;624ea2ee2ed8</title>
<path fill="none" stroke="black" d="M419.739,-652.711C419.653,-623.106 417.264,-560.836 400.5,-511.581 386.964,-471.811 363.26,-431.229 342.217,-399.716"/>
<polygon fill="black" stroke="black" points="344.87,-397.392 336.362,-391.076 339.075,-401.318 344.87,-397.392"/>
</g>
<!-- ACE2&#45;&gt;pr_8c6b3cd3&#45;144f&#45;4e71&#45;a10a&#45;f6fe25e8d96f -->
<g id="edge18" class="edge"><title>ACE2&#45;&gt;pr_8c6b3cd3&#45;144f&#45;4e71&#45;a10a&#45;f6fe25e8d96f</title>
<path fill="none" stroke="black" d="M427.402,-654.116C443.498,-621.529 480.422,-543.994 502.5,-475.581 510.368,-451.2 516.923,-423.672 521.878,-399.953"/>
<polygon fill="black" stroke="black" points="525.331,-400.539 523.903,-390.041 518.472,-399.138 525.331,-400.539"/>
</g>
<!-- angiotensin I&#45;7 -->
<g id="node12" class="node"><title>angiotensin I&#45;7</title>
<ellipse fill="none" stroke="black" cx="240.5" cy="-230.395" rx="24.2908" ry="24.2908"/>
<text text-anchor="middle" x="240.5" y="-229.195" font-family="Times,serif" font-size="4.00">angiotensin I&#45;7</text>
</g>
<!-- pr_91b37348&#45;54cf&#45;425d&#45;b3be&#45;99f85135861c&#45;&gt;angiotensin I&#45;7 -->
<g id="edge19" class="edge"><title>pr_91b37348&#45;54cf&#45;425d&#45;b3be&#45;99f85135861c&#45;&gt;angiotensin I&#45;7</title>
<path fill="none" stroke="black" d="M208.066,-290.983C213.617,-280.784 219.309,-270.328 224.343,-261.079"/>
<polygon fill="black" stroke="black" points="227.422,-262.742 229.129,-252.286 221.274,-259.396 227.422,-262.742"/>
</g>
<!-- pr_3ba25c26&#45;3ace&#45;457f&#45;a1e2&#45;f3ad845b48f0 -->
<g id="node22" class="node"><title>pr_3ba25c26&#45;3ace&#45;457f&#45;a1e2&#45;f3ad845b48f0</title>
<polygon fill="none" stroke="black" points="289.5,-170 191.5,-170 191.5,-72 289.5,-72 289.5,-170"/>
<text text-anchor="middle" x="240.5" y="-119.8" font-family="Times,serif" font-size="4.00">pr_3ba25c26&#45;3ace&#45;457f&#45;a1e2&#45;f3ad845b48f0</text>
</g>
<!-- angiotensin I&#45;7&#45;&gt;pr_3ba25c26&#45;3ace&#45;457f&#45;a1e2&#45;f3ad845b48f0 -->
<g id="edge20" class="edge"><title>angiotensin I&#45;7&#45;&gt;pr_3ba25c26&#45;3ace&#45;457f&#45;a1e2&#45;f3ad845b48f0</title>
<path fill="none" stroke="black" d="M240.5,-205.827C240.5,-198.2 240.5,-189.375 240.5,-180.373"/>
<polygon fill="black" stroke="black" points="244,-180.189 240.5,-170.189 237,-180.189 244,-180.189"/>
</g>
<!-- pr_c526d85d&#45;1d0f&#45;4c6b&#45;b875&#45;624ea2ee2ed8&#45;&gt;angiotensin I&#45;7 -->
<g id="edge21" class="edge"><title>pr_c526d85d&#45;1d0f&#45;4c6b&#45;b875&#45;624ea2ee2ed8&#45;&gt;angiotensin I&#45;7</title>
<path fill="none" stroke="black" d="M272.762,-290.667C267.286,-280.606 261.682,-270.31 256.713,-261.182"/>
<polygon fill="black" stroke="black" points="259.652,-259.261 251.797,-252.151 253.504,-262.607 259.652,-259.261"/>
</g>
<!-- SPIKE -->
<g id="node14" class="node"><title>SPIKE</title>
<ellipse fill="none" stroke="black" cx="415.5" cy="-884.69" rx="18" ry="18"/>
<text text-anchor="middle" x="415.5" y="-883.49" font-family="Times,serif" font-size="4.00">SPIKE</text>
</g>
<!-- pr_c4b6de82&#45;4ee9&#45;44db&#45;a914&#45;789e5c7b8ff4 -->
<g id="node15" class="node"><title>pr_c4b6de82&#45;4ee9&#45;44db&#45;a914&#45;789e5c7b8ff4</title>
<polygon fill="none" stroke="black" points="465,-829.128 366,-829.128 366,-730.128 465,-730.128 465,-829.128"/>
<text text-anchor="middle" x="415.5" y="-778.428" font-family="Times,serif" font-size="4.00">pr_c4b6de82&#45;4ee9&#45;44db&#45;a914&#45;789e5c7b8ff4</text>
</g>
<!-- SPIKE&#45;&gt;pr_c4b6de82&#45;4ee9&#45;44db&#45;a914&#45;789e5c7b8ff4 -->
<g id="edge22" class="edge"><title>SPIKE&#45;&gt;pr_c4b6de82&#45;4ee9&#45;44db&#45;a914&#45;789e5c7b8ff4</title>
<path fill="none" stroke="black" d="M415.5,-866.671C415.5,-858.953 415.5,-849.323 415.5,-839.326"/>
<polygon fill="black" stroke="black" points="419,-839.264 415.5,-829.264 412,-839.264 419,-839.264"/>
</g>
<!-- pr_c4b6de82&#45;4ee9&#45;44db&#45;a914&#45;789e5c7b8ff4&#45;&gt;ACE2 -->
<g id="edge23" class="edge"><title>pr_c4b6de82&#45;4ee9&#45;44db&#45;a914&#45;789e5c7b8ff4&#45;&gt;ACE2</title>
<path fill="none" stroke="black" d="M417.324,-729.928C417.718,-719.413 418.121,-708.653 418.472,-699.297"/>
<polygon fill="black" stroke="black" points="421.979,-699.183 418.855,-689.059 414.983,-698.921 421.979,-699.183"/>
</g>
<!-- Lisinopril -->
<g id="node16" class="node"><title>Lisinopril</title>
<ellipse fill="none" stroke="black" cx="108.5" cy="-884.69" rx="18.6233" ry="18.6233"/>
<text text-anchor="middle" x="108.5" y="-883.49" font-family="Times,serif" font-size="4.00">Lisinopril</text>
</g>
<!-- pr_3290acad&#45;0001&#45;418b&#45;a513&#45;b8803f08fecd -->
<g id="node17" class="node"><title>pr_3290acad&#45;0001&#45;418b&#45;a513&#45;b8803f08fecd</title>
<polygon fill="none" stroke="black" points="99,-829.128 0,-829.128 0,-730.128 99,-730.128 99,-829.128"/>
<text text-anchor="middle" x="49.5" y="-778.428" font-family="Times,serif" font-size="4.00">pr_3290acad&#45;0001&#45;418b&#45;a513&#45;b8803f08fecd</text>
</g>
<!-- Lisinopril&#45;&gt;pr_3290acad&#45;0001&#45;418b&#45;a513&#45;b8803f08fecd -->
<g id="edge24" class="edge"><title>Lisinopril&#45;&gt;pr_3290acad&#45;0001&#45;418b&#45;a513&#45;b8803f08fecd</title>
<path fill="none" stroke="black" d="M99.5392,-868.037C94.8588,-859.862 88.8092,-849.294 82.5431,-838.348"/>
<polygon fill="black" stroke="black" points="85.4993,-836.467 77.4935,-829.528 79.4243,-839.945 85.4993,-836.467"/>
</g>
<!-- pr_08481b18&#45;30cb&#45;4816&#45;b9cb&#45;1951cd862e46 -->
<g id="node28" class="node"><title>pr_08481b18&#45;30cb&#45;4816&#45;b9cb&#45;1951cd862e46</title>
<polygon fill="none" stroke="black" points="218,-830.128 117,-830.128 117,-729.128 218,-729.128 218,-830.128"/>
<text text-anchor="middle" x="167.5" y="-778.428" font-family="Times,serif" font-size="4.00">pr_08481b18&#45;30cb&#45;4816&#45;b9cb&#45;1951cd862e46</text>
</g>
<!-- Lisinopril&#45;&gt;pr_08481b18&#45;30cb&#45;4816&#45;b9cb&#45;1951cd862e46 -->
<g id="edge25" class="edge"><title>Lisinopril&#45;&gt;pr_08481b18&#45;30cb&#45;4816&#45;b9cb&#45;1951cd862e46</title>
<path fill="none" stroke="black" d="M117.461,-868.037C121.994,-860.118 127.812,-849.956 133.867,-839.379"/>
<polygon fill="black" stroke="black" points="137.055,-840.855 138.986,-830.438 130.98,-837.377 137.055,-840.855"/>
</g>
<!-- pr_3290acad&#45;0001&#45;418b&#45;a513&#45;b8803f08fecd&#45;&gt;ACE -->
<g id="edge26" class="edge"><title>pr_3290acad&#45;0001&#45;418b&#45;a513&#45;b8803f08fecd&#45;&gt;ACE</title>
<path fill="none" stroke="black" d="M95.5666,-729.928C108.294,-716.474 121.399,-702.619 131.616,-691.818"/>
<polygon fill="black" stroke="black" points="134.169,-694.212 138.499,-684.542 129.084,-689.402 134.169,-694.212"/>
</g>
<!-- AGTR1 -->
<g id="node19" class="node"><title>AGTR1</title>
<ellipse fill="none" stroke="black" cx="532.5" cy="-230.395" rx="18" ry="18"/>
<text text-anchor="middle" x="532.5" y="-229.195" font-family="Times,serif" font-size="4.00">AGTR1</text>
</g>
<!-- pr_66462ff0&#45;9a36&#45;47c2&#45;bf44&#45;3593681b2562&#45;&gt;AGTR1 -->
<g id="edge27" class="edge"><title>pr_66462ff0&#45;9a36&#45;47c2&#45;bf44&#45;3593681b2562&#45;&gt;AGTR1</title>
<path fill="none" stroke="black" d="M465.694,-293.821C482.058,-278.53 499.379,-262.345 512.283,-250.287"/>
<polygon fill="black" stroke="black" points="514.782,-252.742 519.699,-243.357 510.002,-247.628 514.782,-252.742"/>
</g>
<!-- AGTR2 -->
<g id="node21" class="node"><title>AGTR2</title>
<ellipse fill="none" stroke="black" cx="746.5" cy="-230.395" rx="18" ry="18"/>
<text text-anchor="middle" x="746.5" y="-229.195" font-family="Times,serif" font-size="4.00">AGTR2</text>
</g>
<!-- pr_fb071d5d&#45;7445&#45;44af&#45;81d8&#45;268b8317d134&#45;&gt;AGTR2 -->
<g id="edge28" class="edge"><title>pr_fb071d5d&#45;7445&#45;44af&#45;81d8&#45;268b8317d134&#45;&gt;AGTR2</title>
<path fill="none" stroke="black" d="M714.066,-290.983C720.716,-278.765 727.568,-266.177 733.25,-255.738"/>
<polygon fill="black" stroke="black" points="736.394,-257.283 738.101,-246.827 730.246,-253.937 736.394,-257.283"/>
</g>
<!-- MAS1 -->
<g id="node23" class="node"><title>MAS1</title>
<ellipse fill="none" stroke="black" cx="240.5" cy="-18" rx="18" ry="18"/>
<text text-anchor="middle" x="240.5" y="-16.8" font-family="Times,serif" font-size="4.00">MAS1</text>
</g>
<!-- pr_3ba25c26&#45;3ace&#45;457f&#45;a1e2&#45;f3ad845b48f0&#45;&gt;MAS1 -->
<g id="edge29" class="edge"><title>pr_3ba25c26&#45;3ace&#45;457f&#45;a1e2&#45;f3ad845b48f0&#45;&gt;MAS1</title>
<path fill="none" stroke="black" d="M240.5,-71.8664C240.5,-63.064 240.5,-54.1654 240.5,-46.2437"/>
<polygon fill="black" stroke="black" points="244,-46.1475 240.5,-36.1476 237,-46.1476 244,-46.1475"/>
</g>
<!-- losartan -->
<g id="node24" class="node"><title>losartan</title>
<ellipse fill="none" stroke="black" cx="568.5" cy="-884.69" rx="18" ry="18"/>
<text text-anchor="middle" x="568.5" y="-883.49" font-family="Times,serif" font-size="4.00">losartan</text>
</g>
<!-- pr_5a0118e2&#45;bd9f&#45;4eb1&#45;b4fd&#45;172196c8b9c6 -->
<g id="node25" class="node"><title>pr_5a0118e2&#45;bd9f&#45;4eb1&#45;b4fd&#45;172196c8b9c6</title>
<polygon fill="none" stroke="black" points="659,-611.581 560,-611.581 560,-512.581 659,-512.581 659,-611.581"/>
<text text-anchor="middle" x="609.5" y="-560.881" font-family="Times,serif" font-size="4.00">pr_5a0118e2&#45;bd9f&#45;4eb1&#45;b4fd&#45;172196c8b9c6</text>
</g>
<!-- losartan&#45;&gt;pr_5a0118e2&#45;bd9f&#45;4eb1&#45;b4fd&#45;172196c8b9c6 -->
<g id="edge30" class="edge"><title>losartan&#45;&gt;pr_5a0118e2&#45;bd9f&#45;4eb1&#45;b4fd&#45;172196c8b9c6</title>
<path fill="none" stroke="black" d="M576.412,-868.191C581.364,-857.724 587.378,-843.439 590.5,-830.128 606.952,-759.984 610.447,-676.875 610.643,-622.22"/>
<polygon fill="black" stroke="black" points="614.143,-622.018 610.643,-612.018 607.143,-622.019 614.143,-622.018"/>
</g>
<!-- pr_1b45b51b&#45;9349&#45;439d&#45;9d70&#45;9cbfef6f53c3 -->
<g id="node32" class="node"><title>pr_1b45b51b&#45;9349&#45;439d&#45;9d70&#45;9cbfef6f53c3</title>
<polygon fill="none" stroke="black" points="581.5,-828.628 483.5,-828.628 483.5,-730.628 581.5,-730.628 581.5,-828.628"/>
<text text-anchor="middle" x="532.5" y="-778.428" font-family="Times,serif" font-size="4.00">pr_1b45b51b&#45;9349&#45;439d&#45;9d70&#45;9cbfef6f53c3</text>
</g>
<!-- losartan&#45;&gt;pr_1b45b51b&#45;9349&#45;439d&#45;9d70&#45;9cbfef6f53c3 -->
<g id="edge31" class="edge"><title>losartan&#45;&gt;pr_1b45b51b&#45;9349&#45;439d&#45;9d70&#45;9cbfef6f53c3</title>
<path fill="none" stroke="black" d="M562.875,-867.587C560.03,-859.442 556.386,-849.01 552.616,-838.217"/>
<polygon fill="black" stroke="black" points="555.89,-836.976 549.288,-828.689 549.281,-839.284 555.89,-836.976"/>
</g>
<!-- pr_5a0118e2&#45;bd9f&#45;4eb1&#45;b4fd&#45;172196c8b9c6&#45;&gt;AGTR1 -->
<g id="edge32" class="edge"><title>pr_5a0118e2&#45;bd9f&#45;4eb1&#45;b4fd&#45;172196c8b9c6&#45;&gt;AGTR1</title>
<path fill="none" stroke="black" d="M615.802,-512.532C620.935,-456.485 622.81,-362.784 590.5,-290.79 582.755,-273.532 567.706,-258.358 554.878,-247.667"/>
<polygon fill="black" stroke="black" points="556.878,-244.786 546.868,-241.313 552.527,-250.27 556.878,-244.786"/>
</g>
<!-- pr_785f3d5c&#45;7444&#45;4016&#45;8a66&#45;0f0c36fda739&#45;&gt;REN -->
<g id="edge33" class="edge"><title>pr_785f3d5c&#45;7444&#45;4016&#45;8a66&#45;0f0c36fda739&#45;&gt;REN</title>
<path fill="none" stroke="black" d="M680.118,-828.922C677.325,-839.487 674.103,-850.234 670.937,-859.377"/>
<polygon fill="black" stroke="black" points="667.593,-858.331 667.412,-868.924 674.159,-860.755 667.593,-858.331"/>
</g>
<!-- Calcitriol -->
<g id="node27" class="node"><title>Calcitriol</title>
<ellipse fill="none" stroke="black" cx="713.5" cy="-884.69" rx="18.6233" ry="18.6233"/>
<text text-anchor="middle" x="713.5" y="-883.49" font-family="Times,serif" font-size="4.00">Calcitriol</text>
</g>
<!-- Calcitriol&#45;&gt;pr_785f3d5c&#45;7444&#45;4016&#45;8a66&#45;0f0c36fda739 -->
<g id="edge34" class="edge"><title>Calcitriol&#45;&gt;pr_785f3d5c&#45;7444&#45;4016&#45;8a66&#45;0f0c36fda739</title>
<path fill="none" stroke="black" d="M709.041,-866.671C706.976,-858.786 704.387,-848.905 701.707,-838.676"/>
<polygon fill="black" stroke="black" points="705.044,-837.603 699.124,-828.816 698.273,-839.377 705.044,-837.603"/>
</g>
<!-- pr_08481b18&#45;30cb&#45;4816&#45;b9cb&#45;1951cd862e46&#45;&gt;ACE -->
<g id="edge35" class="edge"><title>pr_08481b18&#45;30cb&#45;4816&#45;b9cb&#45;1951cd862e46&#45;&gt;ACE</title>
<path fill="none" stroke="black" d="M159.597,-728.993C157.952,-718.659 156.277,-708.137 154.82,-698.985"/>
<polygon fill="black" stroke="black" points="158.253,-698.291 153.224,-688.965 151.34,-699.391 158.253,-698.291"/>
</g>
<!-- pr_8c6b3cd3&#45;144f&#45;4e71&#45;a10a&#45;f6fe25e8d96f&#45;&gt;AGTR1 -->
<g id="edge36" class="edge"><title>pr_8c6b3cd3&#45;144f&#45;4e71&#45;a10a&#45;f6fe25e8d96f&#45;&gt;AGTR1</title>
<path fill="none" stroke="black" d="M532.5,-291.615C532.5,-280.321 532.5,-268.673 532.5,-258.667"/>
<polygon fill="black" stroke="black" points="536,-258.548 532.5,-248.548 529,-258.548 536,-258.548"/>
</g>
<!-- CGP42112A -->
<g id="node30" class="node"><title>CGP42112A</title>
<ellipse fill="none" stroke="black" cx="805.5" cy="-451.186" rx="20.8674" ry="20.8674"/>
<text text-anchor="middle" x="805.5" y="-449.986" font-family="Times,serif" font-size="4.00">CGP42112A</text>
</g>
<!-- pr_1e951ad8&#45;f131&#45;4e39&#45;b068&#45;35c7d199ae22 -->
<g id="node31" class="node"><title>pr_1e951ad8&#45;f131&#45;4e39&#45;b068&#45;35c7d199ae22</title>
<polygon fill="none" stroke="black" points="855.5,-390.79 755.5,-390.79 755.5,-290.79 855.5,-290.79 855.5,-390.79"/>
<text text-anchor="middle" x="805.5" y="-339.59" font-family="Times,serif" font-size="4.00">pr_1e951ad8&#45;f131&#45;4e39&#45;b068&#45;35c7d199ae22</text>
</g>
<!-- CGP42112A&#45;&gt;pr_1e951ad8&#45;f131&#45;4e39&#45;b068&#45;35c7d199ae22 -->
<g id="edge37" class="edge"><title>CGP42112A&#45;&gt;pr_1e951ad8&#45;f131&#45;4e39&#45;b068&#45;35c7d199ae22</title>
<path fill="none" stroke="black" d="M805.5,-430.304C805.5,-421.875 805.5,-411.564 805.5,-400.996"/>
<polygon fill="black" stroke="black" points="809,-400.839 805.5,-390.839 802,-400.839 809,-400.839"/>
</g>
<!-- pr_1e951ad8&#45;f131&#45;4e39&#45;b068&#45;35c7d199ae22&#45;&gt;AGTR2 -->
<g id="edge38" class="edge"><title>pr_1e951ad8&#45;f131&#45;4e39&#45;b068&#45;35c7d199ae22&#45;&gt;AGTR2</title>
<path fill="none" stroke="black" d="M778.762,-290.667C772.132,-278.487 765.315,-265.963 759.665,-255.583"/>
<polygon fill="black" stroke="black" points="762.699,-253.834 754.844,-246.724 756.55,-257.181 762.699,-253.834"/>
</g>
<!-- pr_1b45b51b&#45;9349&#45;439d&#45;9d70&#45;9cbfef6f53c3&#45;&gt;ACE2 -->
<g id="edge39" class="edge"><title>pr_1b45b51b&#45;9349&#45;439d&#45;9d70&#45;9cbfef6f53c3&#45;&gt;ACE2</title>
<path fill="none" stroke="black" d="M483.265,-732.106C467.848,-717.539 451.697,-702.278 439.508,-690.76"/>
<polygon fill="black" stroke="black" points="441.789,-688.1 432.117,-683.776 436.981,-693.188 441.789,-688.1"/>
</g>
</g>
</svg>
