<?xml version="1.0" encoding="UTF-8" standalone="no"?>
<!DOCTYPE svg PUBLIC "-//W3C//DTD SVG 1.1//EN"
 "http://www.w3.org/Graphics/SVG/1.1/DTD/svg11.dtd">
<!-- Generated by graphviz version 2.38.0 (20140413.2041)
 -->
<!-- Title: G Pages: 1 -->
<svg width="857pt" height="710pt"
 viewBox="0.00 0.00 856.96 709.61" xmlns="http://www.w3.org/2000/svg" xmlns:xlink="http://www.w3.org/1999/xlink">
<g id="graph0" class="graph" transform="scale(1 1) rotate(0) translate(4 705.614)">
<title>G</title>
<polygon fill="white" stroke="none" points="-4,4 -4,-705.614 852.962,-705.614 852.962,4 -4,4"/>
<!-- SMAD1/5/8 -->
<g id="node1" class="node"><title>SMAD1/5/8</title>
<ellipse fill="none" stroke="black" cx="41.962" cy="-455.43" rx="20.3062" ry="20.3062"/>
<text text-anchor="middle" x="41.962" y="-454.23" font-family="Times,serif" font-size="4.00">SMAD1/5/8</text>
</g>
<!-- pr_a275bc91&#45;1a62&#45;460c&#45;b97c&#45;389bbc745fb2 -->
<g id="node2" class="node"><title>pr_a275bc91&#45;1a62&#45;460c&#45;b97c&#45;389bbc745fb2</title>
<polygon fill="none" stroke="black" points="187.962,-381.246 87.962,-381.246 87.962,-281.246 187.962,-281.246 187.962,-381.246"/>
<text text-anchor="middle" x="137.962" y="-330.046" font-family="Times,serif" font-size="4.00">pr_a275bc91&#45;1a62&#45;460c&#45;b97c&#45;389bbc745fb2</text>
</g>
<!-- SMAD1/5/8&#45;&gt;pr_a275bc91&#45;1a62&#45;460c&#45;b97c&#45;389bbc745fb2 -->
<g id="edge1" class="edge"><title>SMAD1/5/8&#45;&gt;pr_a275bc91&#45;1a62&#45;460c&#45;b97c&#45;389bbc745fb2</title>
<path fill="none" stroke="black" d="M47.8447,-435.88C52.0425,-429.924 57.2137,-423.302 61.962,-417.246 68.9564,-408.326 76.375,-398.889 83.7472,-389.675"/>
<polygon fill="black" stroke="black" points="86.6595,-391.639 90.2021,-381.654 81.206,-387.25 86.6595,-391.639"/>
</g>
<!-- pr_a275bc91&#45;1a62&#45;460c&#45;b97c&#45;389bbc745fb2&#45;&gt;SMAD1/5/8 -->
<g id="edge2" class="edge"><title>pr_a275bc91&#45;1a62&#45;460c&#45;b97c&#45;389bbc745fb2&#45;&gt;SMAD1/5/8</title>
<path fill="none" stroke="black" d="M107.693,-381.654C98.7576,-393.316 89.0052,-405.712 79.962,-417.246 75.239,-423.27 70.0975,-429.854 65.0348,-435.785"/>
<polygon fill="black" stroke="black" points="62.3116,-433.579 58.2265,-443.354 67.5161,-438.26 62.3116,-433.579"/>
</g>
<!-- BAMBI -->
<g id="node3" class="node"><title>BAMBI</title>
<ellipse fill="none" stroke="black" cx="421.962" cy="-683.614" rx="18" ry="18"/>
<text text-anchor="middle" x="421.962" y="-682.414" font-family="Times,serif" font-size="4.00">BAMBI</text>
</g>
<!-- BAMBI&#45;&gt;pr_a275bc91&#45;1a62&#45;460c&#45;b97c&#45;389bbc745fb2 -->
<g id="edge3" class="edge"><title>BAMBI&#45;&gt;pr_a275bc91&#45;1a62&#45;460c&#45;b97c&#45;389bbc745fb2</title>
<path fill="none" stroke="black" d="M404.132,-680.904C337.891,-673.482 105.044,-637.603 12.962,-493.614 -5.32404,-465.02 -2.91595,-447.244 12.962,-417.246 27.067,-390.598 53.6883,-370.748 78.7506,-356.963"/>
<polygon fill="black" stroke="black" points="80.6664,-359.909 87.8874,-352.157 77.4077,-353.714 80.6664,-359.909"/>
</g>
<!-- pr_aca320a4&#45;2935&#45;49f9&#45;bfc2&#45;622841246132 -->
<g id="node10" class="node"><title>pr_aca320a4&#45;2935&#45;49f9&#45;bfc2&#45;622841246132</title>
<polygon fill="none" stroke="black" points="422.462,-380.746 323.462,-380.746 323.462,-281.746 422.462,-281.746 422.462,-380.746"/>
<text text-anchor="middle" x="372.962" y="-330.046" font-family="Times,serif" font-size="4.00">pr_aca320a4&#45;2935&#45;49f9&#45;bfc2&#45;622841246132</text>
</g>
<!-- BAMBI&#45;&gt;pr_aca320a4&#45;2935&#45;49f9&#45;bfc2&#45;622841246132 -->
<g id="edge4" class="edge"><title>BAMBI&#45;&gt;pr_aca320a4&#45;2935&#45;49f9&#45;bfc2&#45;622841246132</title>
<path fill="none" stroke="black" d="M419.599,-665.715C412.744,-616.704 392.619,-472.804 381.172,-390.948"/>
<polygon fill="black" stroke="black" points="384.638,-390.46 379.786,-381.041 377.705,-391.429 384.638,-390.46"/>
</g>
<!-- pr_3a7d9684&#45;2a5f&#45;4be8&#45;9bbf&#45;07860c656bef -->
<g id="node22" class="node"><title>pr_3a7d9684&#45;2a5f&#45;4be8&#45;9bbf&#45;07860c656bef</title>
<polygon fill="none" stroke="black" points="538.962,-380.246 440.962,-380.246 440.962,-282.246 538.962,-282.246 538.962,-380.246"/>
<text text-anchor="middle" x="489.962" y="-330.046" font-family="Times,serif" font-size="4.00">pr_3a7d9684&#45;2a5f&#45;4be8&#45;9bbf&#45;07860c656bef</text>
</g>
<!-- BAMBI&#45;&gt;pr_3a7d9684&#45;2a5f&#45;4be8&#45;9bbf&#45;07860c656bef -->
<g id="edge5" class="edge"><title>BAMBI&#45;&gt;pr_3a7d9684&#45;2a5f&#45;4be8&#45;9bbf&#45;07860c656bef</title>
<path fill="none" stroke="black" d="M431.125,-667.663C449.545,-636.625 490.533,-562.356 504.962,-493.614 512.05,-459.845 508.905,-421.398 503.704,-390.504"/>
<polygon fill="black" stroke="black" points="507.09,-389.556 501.873,-380.335 500.201,-390.797 507.09,-389.556"/>
</g>
<!-- pr_2e9de9ba&#45;e0b3&#45;45f2&#45;a750&#45;961dda9f4b9b -->
<g id="node24" class="node"><title>pr_2e9de9ba&#45;e0b3&#45;45f2&#45;a750&#45;961dda9f4b9b</title>
<polygon fill="none" stroke="black" points="651.462,-629.114 552.462,-629.114 552.462,-530.114 651.462,-530.114 651.462,-629.114"/>
<text text-anchor="middle" x="601.962" y="-578.414" font-family="Times,serif" font-size="4.00">pr_2e9de9ba&#45;e0b3&#45;45f2&#45;a750&#45;961dda9f4b9b</text>
</g>
<!-- BAMBI&#45;&gt;pr_2e9de9ba&#45;e0b3&#45;45f2&#45;a750&#45;961dda9f4b9b -->
<g id="edge6" class="edge"><title>BAMBI&#45;&gt;pr_2e9de9ba&#45;e0b3&#45;45f2&#45;a750&#45;961dda9f4b9b</title>
<path fill="none" stroke="black" d="M438.687,-676.353C461.775,-667.407 504.368,-649.796 537.962,-629.614 539.911,-628.443 541.871,-627.223 543.832,-625.965"/>
<polygon fill="black" stroke="black" points="546.033,-628.704 552.409,-620.242 542.148,-622.881 546.033,-628.704"/>
</g>
<!-- BMPR1/2/ACTR2 -->
<g id="node4" class="node"><title>BMPR1/2/ACTR2</title>
<ellipse fill="none" stroke="black" cx="106.962" cy="-455.43" rx="26.533" ry="26.533"/>
<text text-anchor="middle" x="106.962" y="-454.23" font-family="Times,serif" font-size="4.00">BMPR1/2/ACTR2</text>
</g>
<!-- BMPR1/2/ACTR2&#45;&gt;pr_a275bc91&#45;1a62&#45;460c&#45;b97c&#45;389bbc745fb2 -->
<g id="edge7" class="edge"><title>BMPR1/2/ACTR2&#45;&gt;pr_a275bc91&#45;1a62&#45;460c&#45;b97c&#45;389bbc745fb2</title>
<path fill="none" stroke="black" d="M113.31,-429.409C116.132,-418.286 119.585,-404.676 123.003,-391.205"/>
<polygon fill="black" stroke="black" points="126.41,-392.011 125.476,-381.457 119.624,-390.29 126.41,-392.011"/>
</g>
<!-- MAPK3 -->
<g id="node5" class="node"><title>MAPK3</title>
<ellipse fill="none" stroke="black" cx="223.962" cy="-455.43" rx="18" ry="18"/>
<text text-anchor="middle" x="223.962" y="-454.23" font-family="Times,serif" font-size="4.00">MAPK3</text>
</g>
<!-- MAPK3&#45;&gt;pr_a275bc91&#45;1a62&#45;460c&#45;b97c&#45;389bbc745fb2 -->
<g id="edge8" class="edge"><title>MAPK3&#45;&gt;pr_a275bc91&#45;1a62&#45;460c&#45;b97c&#45;389bbc745fb2</title>
<path fill="none" stroke="black" d="M213.759,-439.934C204.883,-427.324 191.418,-408.194 178.287,-389.538"/>
<polygon fill="black" stroke="black" points="181.113,-387.472 172.495,-381.309 175.389,-391.501 181.113,-387.472"/>
</g>
<!-- MAPK3&#45;&gt;pr_aca320a4&#45;2935&#45;49f9&#45;bfc2&#45;622841246132 -->
<g id="edge9" class="edge"><title>MAPK3&#45;&gt;pr_aca320a4&#45;2935&#45;49f9&#45;bfc2&#45;622841246132</title>
<path fill="none" stroke="black" d="M232.939,-439.773C237.767,-432.538 244.127,-423.949 250.962,-417.246 269.915,-398.66 293.326,-381.29 314.557,-367.159"/>
<polygon fill="black" stroke="black" points="316.74,-369.913 323.19,-361.508 312.907,-364.056 316.74,-369.913"/>
</g>
<!-- 3a -->
<g id="node6" class="node"><title>3a</title>
<ellipse fill="none" stroke="black" cx="423.962" cy="-455.43" rx="18" ry="18"/>
<text text-anchor="middle" x="423.962" y="-454.23" font-family="Times,serif" font-size="4.00">3a</text>
</g>
<!-- 3a&#45;&gt;pr_a275bc91&#45;1a62&#45;460c&#45;b97c&#45;389bbc745fb2 -->
<g id="edge10" class="edge"><title>3a&#45;&gt;pr_a275bc91&#45;1a62&#45;460c&#45;b97c&#45;389bbc745fb2</title>
<path fill="none" stroke="black" d="M409.077,-445.046C396.123,-437.092 376.695,-425.668 358.962,-417.246 305.686,-391.944 242.712,-368.304 197.643,-352.411"/>
<polygon fill="black" stroke="black" points="198.617,-349.044 188.022,-349.04 196.303,-355.65 198.617,-349.044"/>
</g>
<!-- 3a&#45;&gt;pr_aca320a4&#45;2935&#45;49f9&#45;bfc2&#45;622841246132 -->
<g id="edge11" class="edge"><title>3a&#45;&gt;pr_aca320a4&#45;2935&#45;49f9&#45;bfc2&#45;622841246132</title>
<path fill="none" stroke="black" d="M417.295,-438.457C412.146,-426.122 404.683,-408.242 397.344,-390.66"/>
<polygon fill="black" stroke="black" points="400.377,-388.839 393.295,-380.959 393.917,-391.535 400.377,-388.839"/>
</g>
<!-- 3a&#45;&gt;pr_3a7d9684&#45;2a5f&#45;4be8&#45;9bbf&#45;07860c656bef -->
<g id="edge12" class="edge"><title>3a&#45;&gt;pr_3a7d9684&#45;2a5f&#45;4be8&#45;9bbf&#45;07860c656bef</title>
<path fill="none" stroke="black" d="M432.321,-438.955C439.177,-426.263 449.33,-407.467 459.212,-389.172"/>
<polygon fill="black" stroke="black" points="462.353,-390.722 464.027,-380.26 456.194,-387.395 462.353,-390.722"/>
</g>
<!-- 7b -->
<g id="node7" class="node"><title>7b</title>
<ellipse fill="none" stroke="black" cx="277.962" cy="-455.43" rx="18" ry="18"/>
<text text-anchor="middle" x="277.962" y="-454.23" font-family="Times,serif" font-size="4.00">7b</text>
</g>
<!-- 7b&#45;&gt;pr_a275bc91&#45;1a62&#45;460c&#45;b97c&#45;389bbc745fb2 -->
<g id="edge13" class="edge"><title>7b&#45;&gt;pr_a275bc91&#45;1a62&#45;460c&#45;b97c&#45;389bbc745fb2</title>
<path fill="none" stroke="black" d="M268.881,-439.877C264.026,-432.669 257.674,-424.073 250.962,-417.246 234.619,-400.625 214.852,-384.639 196.451,-371.104"/>
<polygon fill="black" stroke="black" points="198.262,-368.095 188.11,-365.065 194.157,-373.764 198.262,-368.095"/>
</g>
<!-- 7b&#45;&gt;pr_aca320a4&#45;2935&#45;49f9&#45;bfc2&#45;622841246132 -->
<g id="edge14" class="edge"><title>7b&#45;&gt;pr_aca320a4&#45;2935&#45;49f9&#45;bfc2&#45;622841246132</title>
<path fill="none" stroke="black" d="M288.065,-440.19C293.072,-433.218 299.254,-424.733 304.962,-417.246 312.034,-407.971 319.648,-398.227 327.132,-388.78"/>
<polygon fill="black" stroke="black" points="329.889,-390.937 333.374,-380.932 324.41,-386.58 329.889,-390.937"/>
</g>
<!-- nsp4 -->
<g id="node8" class="node"><title>nsp4</title>
<ellipse fill="none" stroke="black" cx="169.962" cy="-455.43" rx="18" ry="18"/>
<text text-anchor="middle" x="169.962" y="-454.23" font-family="Times,serif" font-size="4.00">nsp4</text>
</g>
<!-- nsp4&#45;&gt;pr_a275bc91&#45;1a62&#45;460c&#45;b97c&#45;389bbc745fb2 -->
<g id="edge15" class="edge"><title>nsp4&#45;&gt;pr_a275bc91&#45;1a62&#45;460c&#45;b97c&#45;389bbc745fb2</title>
<path fill="none" stroke="black" d="M165.646,-437.952C162.466,-425.809 157.932,-408.496 153.451,-391.387"/>
<polygon fill="black" stroke="black" points="156.749,-390.165 150.83,-381.378 149.977,-391.938 156.749,-390.165"/>
</g>
<!-- SMAD2/3 -->
<g id="node9" class="node"><title>SMAD2/3</title>
<ellipse fill="none" stroke="black" cx="372.962" cy="-226.685" rx="18.6233" ry="18.6233"/>
<text text-anchor="middle" x="372.962" y="-225.485" font-family="Times,serif" font-size="4.00">SMAD2/3</text>
</g>
<!-- SMAD2/3&#45;&gt;pr_aca320a4&#45;2935&#45;49f9&#45;bfc2&#45;622841246132 -->
<g id="edge16" class="edge"><title>SMAD2/3&#45;&gt;pr_aca320a4&#45;2935&#45;49f9&#45;bfc2&#45;622841246132</title>
<path fill="none" stroke="black" d="M378.141,-244.736C378.975,-252.293 379.477,-261.675 379.647,-271.43"/>
<polygon fill="black" stroke="black" points="376.148,-271.688 379.704,-281.669 383.148,-271.649 376.148,-271.688"/>
</g>
<!-- pr_aca320a4&#45;2935&#45;49f9&#45;bfc2&#45;622841246132&#45;&gt;SMAD2/3 -->
<g id="edge17" class="edge"><title>pr_aca320a4&#45;2935&#45;49f9&#45;bfc2&#45;622841246132&#45;&gt;SMAD2/3</title>
<path fill="none" stroke="black" d="M366.22,-281.669C366.163,-272.453 366.398,-263.12 366.924,-254.865"/>
<polygon fill="black" stroke="black" points="370.425,-254.996 367.783,-244.736 363.45,-254.404 370.425,-254.996"/>
</g>
<!-- TGFB/TGFBR -->
<g id="node11" class="node"><title>TGFB/TGFBR</title>
<ellipse fill="none" stroke="black" cx="601.962" cy="-455.43" rx="22.05" ry="22.05"/>
<text text-anchor="middle" x="601.962" y="-454.23" font-family="Times,serif" font-size="4.00">TGFB/TGFBR</text>
</g>
<!-- TGFB/TGFBR&#45;&gt;pr_aca320a4&#45;2935&#45;49f9&#45;bfc2&#45;622841246132 -->
<g id="edge18" class="edge"><title>TGFB/TGFBR&#45;&gt;pr_aca320a4&#45;2935&#45;49f9&#45;bfc2&#45;622841246132</title>
<path fill="none" stroke="black" d="M581.554,-446.497C542.462,-431.163 458.537,-397.532 431.962,-381.246 431.77,-381.129 431.579,-381.011 431.387,-380.892"/>
<polygon fill="black" stroke="black" points="433.049,-377.796 422.773,-375.217 429.198,-383.641 433.049,-377.796"/>
</g>
<!-- pr_5268a972&#45;bfd6&#45;4dd1&#45;8974&#45;e62e26e91477 -->
<g id="node15" class="node"><title>pr_5268a972&#45;bfd6&#45;4dd1&#45;8974&#45;e62e26e91477</title>
<polygon fill="none" stroke="black" points="656.962,-381.246 556.962,-381.246 556.962,-281.246 656.962,-281.246 656.962,-381.246"/>
<text text-anchor="middle" x="606.962" y="-330.046" font-family="Times,serif" font-size="4.00">pr_5268a972&#45;bfd6&#45;4dd1&#45;8974&#45;e62e26e91477</text>
</g>
<!-- TGFB/TGFBR&#45;&gt;pr_5268a972&#45;bfd6&#45;4dd1&#45;8974&#45;e62e26e91477 -->
<g id="edge19" class="edge"><title>TGFB/TGFBR&#45;&gt;pr_5268a972&#45;bfd6&#45;4dd1&#45;8974&#45;e62e26e91477</title>
<path fill="none" stroke="black" d="M602.833,-433.147C603.308,-421.537 603.922,-406.529 604.531,-391.654"/>
<polygon fill="black" stroke="black" points="608.038,-391.555 604.95,-381.42 601.044,-391.269 608.038,-391.555"/>
</g>
<!-- pr_bc9a5a5f&#45;b9c6&#45;4483&#45;9b85&#45;630e0fa91821 -->
<g id="node18" class="node"><title>pr_bc9a5a5f&#45;b9c6&#45;4483&#45;9b85&#45;630e0fa91821</title>
<polygon fill="none" stroke="black" points="774.462,-380.746 675.462,-380.746 675.462,-281.746 774.462,-281.746 774.462,-380.746"/>
<text text-anchor="middle" x="724.962" y="-330.046" font-family="Times,serif" font-size="4.00">pr_bc9a5a5f&#45;b9c6&#45;4483&#45;9b85&#45;630e0fa91821</text>
</g>
<!-- TGFB/TGFBR&#45;&gt;pr_bc9a5a5f&#45;b9c6&#45;4483&#45;9b85&#45;630e0fa91821 -->
<g id="edge20" class="edge"><title>TGFB/TGFBR&#45;&gt;pr_bc9a5a5f&#45;b9c6&#45;4483&#45;9b85&#45;630e0fa91821</title>
<path fill="none" stroke="black" d="M615.402,-437.372C620.695,-430.907 626.941,-423.582 632.962,-417.246 643.776,-405.867 655.806,-394.147 667.507,-383.183"/>
<polygon fill="black" stroke="black" points="670.189,-385.468 675.133,-376.098 665.425,-380.34 670.189,-385.468"/>
</g>
<!-- ACVR1 -->
<g id="node12" class="node"><title>ACVR1</title>
<ellipse fill="none" stroke="black" cx="331.962" cy="-455.43" rx="18" ry="18"/>
<text text-anchor="middle" x="331.962" y="-454.23" font-family="Times,serif" font-size="4.00">ACVR1</text>
</g>
<!-- ACVR1&#45;&gt;pr_aca320a4&#45;2935&#45;49f9&#45;bfc2&#45;622841246132 -->
<g id="edge21" class="edge"><title>ACVR1&#45;&gt;pr_aca320a4&#45;2935&#45;49f9&#45;bfc2&#45;622841246132</title>
<path fill="none" stroke="black" d="M337.406,-438.205C341.56,-425.826 347.552,-407.971 353.436,-390.435"/>
<polygon fill="black" stroke="black" points="356.819,-391.357 356.682,-380.763 350.182,-389.13 356.819,-391.357"/>
</g>
<!-- ACVR1B -->
<g id="node13" class="node"><title>ACVR1B</title>
<ellipse fill="none" stroke="black" cx="477.962" cy="-455.43" rx="18.0625" ry="18.0625"/>
<text text-anchor="middle" x="477.962" y="-454.23" font-family="Times,serif" font-size="4.00">ACVR1B</text>
</g>
<!-- ACVR1B&#45;&gt;pr_aca320a4&#45;2935&#45;49f9&#45;bfc2&#45;622841246132 -->
<g id="edge22" class="edge"><title>ACVR1B&#45;&gt;pr_aca320a4&#45;2935&#45;49f9&#45;bfc2&#45;622841246132</title>
<path fill="none" stroke="black" d="M468.077,-440.018C463.122,-433.005 456.92,-424.535 450.962,-417.246 443.161,-407.702 434.602,-397.834 426.101,-388.349"/>
<polygon fill="black" stroke="black" points="428.614,-385.91 419.311,-380.839 423.421,-390.604 428.614,-385.91"/>
</g>
<!-- RHOA -->
<g id="node14" class="node"><title>RHOA</title>
<ellipse fill="none" stroke="black" cx="606.962" cy="-226.685" rx="18" ry="18"/>
<text text-anchor="middle" x="606.962" y="-225.485" font-family="Times,serif" font-size="4.00">RHOA</text>
</g>
<!-- RHOA&#45;&gt;pr_5268a972&#45;bfd6&#45;4dd1&#45;8974&#45;e62e26e91477 -->
<g id="edge23" class="edge"><title>RHOA&#45;&gt;pr_5268a972&#45;bfd6&#45;4dd1&#45;8974&#45;e62e26e91477</title>
<path fill="none" stroke="black" d="M612.062,-244.037C612.933,-251.617 613.459,-261.139 613.64,-271.064"/>
<polygon fill="black" stroke="black" points="610.14,-271.092 613.707,-281.068 617.14,-271.045 610.14,-271.092"/>
</g>
<!-- pr_5268a972&#45;bfd6&#45;4dd1&#45;8974&#45;e62e26e91477&#45;&gt;RHOA -->
<g id="edge24" class="edge"><title>pr_5268a972&#45;bfd6&#45;4dd1&#45;8974&#45;e62e26e91477&#45;&gt;RHOA</title>
<path fill="none" stroke="black" d="M600.217,-281.068C600.172,-271.774 600.424,-262.388 600.971,-254.134"/>
<polygon fill="black" stroke="black" points="604.47,-254.306 601.862,-244.037 597.497,-253.691 604.47,-254.306"/>
</g>
<!-- nsp7 -->
<g id="node16" class="node"><title>nsp7</title>
<ellipse fill="none" stroke="black" cx="659.962" cy="-455.43" rx="18" ry="18"/>
<text text-anchor="middle" x="659.962" y="-454.23" font-family="Times,serif" font-size="4.00">nsp7</text>
</g>
<!-- nsp7&#45;&gt;pr_5268a972&#45;bfd6&#45;4dd1&#45;8974&#45;e62e26e91477 -->
<g id="edge25" class="edge"><title>nsp7&#45;&gt;pr_5268a972&#45;bfd6&#45;4dd1&#45;8974&#45;e62e26e91477</title>
<path fill="none" stroke="black" d="M653.033,-438.457C647.73,-426.231 640.064,-408.558 632.503,-391.126"/>
<polygon fill="black" stroke="black" points="635.519,-389.284 628.328,-381.503 629.097,-392.07 635.519,-389.284"/>
</g>
<!-- PPP2CA -->
<g id="node17" class="node"><title>PPP2CA</title>
<ellipse fill="none" stroke="black" cx="724.962" cy="-226.685" rx="18" ry="18"/>
<text text-anchor="middle" x="724.962" y="-225.485" font-family="Times,serif" font-size="4.00">PPP2CA</text>
</g>
<!-- PPP2CA&#45;&gt;pr_bc9a5a5f&#45;b9c6&#45;4483&#45;9b85&#45;630e0fa91821 -->
<g id="edge26" class="edge"><title>PPP2CA&#45;&gt;pr_bc9a5a5f&#45;b9c6&#45;4483&#45;9b85&#45;630e0fa91821</title>
<path fill="none" stroke="black" d="M730.088,-244.261C730.958,-251.937 731.479,-261.569 731.649,-271.584"/>
<polygon fill="black" stroke="black" points="728.15,-271.688 731.704,-281.669 735.15,-271.65 728.15,-271.688"/>
</g>
<!-- pr_d9cd9a40&#45;bf06&#45;43fe&#45;9d41&#45;1d5394c678ad -->
<g id="node21" class="node"><title>pr_d9cd9a40&#45;bf06&#45;43fe&#45;9d41&#45;1d5394c678ad</title>
<polygon fill="none" stroke="black" points="774.462,-172.123 675.462,-172.123 675.462,-73.1231 774.462,-73.1231 774.462,-172.123"/>
<text text-anchor="middle" x="724.962" y="-121.423" font-family="Times,serif" font-size="4.00">pr_d9cd9a40&#45;bf06&#45;43fe&#45;9d41&#45;1d5394c678ad</text>
</g>
<!-- PPP2CA&#45;&gt;pr_d9cd9a40&#45;bf06&#45;43fe&#45;9d41&#45;1d5394c678ad -->
<g id="edge27" class="edge"><title>PPP2CA&#45;&gt;pr_d9cd9a40&#45;bf06&#45;43fe&#45;9d41&#45;1d5394c678ad</title>
<path fill="none" stroke="black" d="M724.962,-208.371C724.962,-201.021 724.962,-191.98 724.962,-182.572"/>
<polygon fill="black" stroke="black" points="728.462,-182.281 724.962,-172.281 721.462,-182.281 728.462,-182.281"/>
</g>
<!-- pr_bc9a5a5f&#45;b9c6&#45;4483&#45;9b85&#45;630e0fa91821&#45;&gt;PPP2CA -->
<g id="edge28" class="edge"><title>pr_bc9a5a5f&#45;b9c6&#45;4483&#45;9b85&#45;630e0fa91821&#45;&gt;PPP2CA</title>
<path fill="none" stroke="black" d="M718.22,-281.669C718.163,-272.309 718.405,-262.828 718.949,-254.479"/>
<polygon fill="black" stroke="black" points="722.458,-254.526 719.836,-244.261 715.484,-253.921 722.458,-254.526"/>
</g>
<!-- 7a -->
<g id="node19" class="node"><title>7a</title>
<ellipse fill="none" stroke="black" cx="724.962" cy="-455.43" rx="18" ry="18"/>
<text text-anchor="middle" x="724.962" y="-454.23" font-family="Times,serif" font-size="4.00">7a</text>
</g>
<!-- 7a&#45;&gt;pr_bc9a5a5f&#45;b9c6&#45;4483&#45;9b85&#45;630e0fa91821 -->
<g id="edge29" class="edge"><title>7a&#45;&gt;pr_bc9a5a5f&#45;b9c6&#45;4483&#45;9b85&#45;630e0fa91821</title>
<path fill="none" stroke="black" d="M724.962,-437.183C724.962,-425.035 724.962,-407.999 724.962,-391.18"/>
<polygon fill="black" stroke="black" points="728.462,-390.783 724.962,-380.783 721.462,-390.783 728.462,-390.783"/>
</g>
<!-- RPS6KB1 -->
<g id="node20" class="node"><title>RPS6KB1</title>
<ellipse fill="none" stroke="black" cx="724.962" cy="-18.5616" rx="18.6233" ry="18.6233"/>
<text text-anchor="middle" x="724.962" y="-17.3616" font-family="Times,serif" font-size="4.00">RPS6KB1</text>
</g>
<!-- RPS6KB1&#45;&gt;pr_d9cd9a40&#45;bf06&#45;43fe&#45;9d41&#45;1d5394c678ad -->
<g id="edge30" class="edge"><title>RPS6KB1&#45;&gt;pr_d9cd9a40&#45;bf06&#45;43fe&#45;9d41&#45;1d5394c678ad</title>
<path fill="none" stroke="black" d="M730.128,-36.4149C730.962,-43.8885 731.467,-53.1721 731.642,-62.8356"/>
<polygon fill="black" stroke="black" points="728.143,-63.0056 731.705,-72.9836 735.143,-62.962 728.143,-63.0056"/>
</g>
<!-- pr_d9cd9a40&#45;bf06&#45;43fe&#45;9d41&#45;1d5394c678ad&#45;&gt;RPS6KB1 -->
<g id="edge31" class="edge"><title>pr_d9cd9a40&#45;bf06&#45;43fe&#45;9d41&#45;1d5394c678ad&#45;&gt;RPS6KB1</title>
<path fill="none" stroke="black" d="M718.219,-72.9836C718.168,-63.8448 718.407,-54.6034 718.935,-46.4354"/>
<polygon fill="black" stroke="black" points="722.427,-46.6778 719.796,-36.4149 715.453,-46.0787 722.427,-46.6778"/>
</g>
<!-- TGFB -->
<g id="node23" class="node"><title>TGFB</title>
<ellipse fill="none" stroke="black" cx="574.962" cy="-683.614" rx="18" ry="18"/>
<text text-anchor="middle" x="574.962" y="-682.414" font-family="Times,serif" font-size="4.00">TGFB</text>
</g>
<!-- TGFB&#45;&gt;pr_2e9de9ba&#45;e0b3&#45;45f2&#45;a750&#45;961dda9f4b9b -->
<g id="edge32" class="edge"><title>TGFB&#45;&gt;pr_2e9de9ba&#45;e0b3&#45;45f2&#45;a750&#45;961dda9f4b9b</title>
<path fill="none" stroke="black" d="M579.421,-665.771C581.42,-658.217 583.909,-648.812 586.497,-639.036"/>
<polygon fill="black" stroke="black" points="589.928,-639.754 589.103,-629.191 583.161,-637.963 589.928,-639.754"/>
</g>
<!-- pr_2e9de9ba&#45;e0b3&#45;45f2&#45;a750&#45;961dda9f4b9b&#45;&gt;TGFB/TGFBR -->
<g id="edge33" class="edge"><title>pr_2e9de9ba&#45;e0b3&#45;45f2&#45;a750&#45;961dda9f4b9b&#45;&gt;TGFB/TGFBR</title>
<path fill="none" stroke="black" d="M601.962,-529.972C601.962,-515.831 601.962,-500.76 601.962,-487.966"/>
<polygon fill="black" stroke="black" points="605.462,-487.826 601.962,-477.826 598.462,-487.826 605.462,-487.826"/>
</g>
<!-- TGFBR2 -->
<g id="node25" class="node"><title>TGFBR2</title>
<ellipse fill="none" stroke="black" cx="628.962" cy="-683.614" rx="18" ry="18"/>
<text text-anchor="middle" x="628.962" y="-682.414" font-family="Times,serif" font-size="4.00">TGFBR2</text>
</g>
<!-- TGFBR2&#45;&gt;pr_2e9de9ba&#45;e0b3&#45;45f2&#45;a750&#45;961dda9f4b9b -->
<g id="edge34" class="edge"><title>TGFBR2&#45;&gt;pr_2e9de9ba&#45;e0b3&#45;45f2&#45;a750&#45;961dda9f4b9b</title>
<path fill="none" stroke="black" d="M624.504,-665.771C622.504,-658.217 620.015,-648.812 617.427,-639.036"/>
<polygon fill="black" stroke="black" points="620.763,-637.963 614.821,-629.191 613.996,-639.754 620.763,-637.963"/>
</g>
<!-- LTBP1 -->
<g id="node26" class="node"><title>LTBP1</title>
<ellipse fill="none" stroke="black" cx="682.962" cy="-683.614" rx="18" ry="18"/>
<text text-anchor="middle" x="682.962" y="-682.414" font-family="Times,serif" font-size="4.00">LTBP1</text>
</g>
<!-- LTBP1&#45;&gt;pr_2e9de9ba&#45;e0b3&#45;45f2&#45;a750&#45;961dda9f4b9b -->
<g id="edge35" class="edge"><title>LTBP1&#45;&gt;pr_2e9de9ba&#45;e0b3&#45;45f2&#45;a750&#45;961dda9f4b9b</title>
<path fill="none" stroke="black" d="M672.038,-668.858C665.308,-660.382 656.181,-648.89 646.741,-637.002"/>
<polygon fill="black" stroke="black" points="649.474,-634.815 640.514,-629.161 643.992,-639.169 649.474,-634.815"/>
</g>
<!-- 8 -->
<g id="node27" class="node"><title>8</title>
<ellipse fill="none" stroke="black" cx="520.962" cy="-683.614" rx="18" ry="18"/>
<text text-anchor="middle" x="520.962" y="-682.414" font-family="Times,serif" font-size="4.00">8</text>
</g>
<!-- 8&#45;&gt;pr_2e9de9ba&#45;e0b3&#45;45f2&#45;a750&#45;961dda9f4b9b -->
<g id="edge36" class="edge"><title>8&#45;&gt;pr_2e9de9ba&#45;e0b3&#45;45f2&#45;a750&#45;961dda9f4b9b</title>
<path fill="none" stroke="black" d="M531.886,-668.858C538.616,-660.382 547.743,-648.89 557.183,-637.002"/>
<polygon fill="black" stroke="black" points="559.932,-639.169 563.41,-629.161 554.45,-634.815 559.932,-639.169"/>
</g>
<!-- ORF10 -->
<g id="node28" class="node"><title>ORF10</title>
<ellipse fill="none" stroke="black" cx="798.962" cy="-683.614" rx="18" ry="18"/>
<text text-anchor="middle" x="798.962" y="-682.414" font-family="Times,serif" font-size="4.00">ORF10</text>
</g>
<!-- pr_4b69ddcd&#45;de23&#45;4122&#45;ac7e&#45;fc9ba8e50b1d -->
<g id="node29" class="node"><title>pr_4b69ddcd&#45;de23&#45;4122&#45;ac7e&#45;fc9ba8e50b1d</title>
<polygon fill="none" stroke="black" points="848.962,-629.614 748.962,-629.614 748.962,-529.614 848.962,-529.614 848.962,-629.614"/>
<text text-anchor="middle" x="798.962" y="-578.414" font-family="Times,serif" font-size="4.00">pr_4b69ddcd&#45;de23&#45;4122&#45;ac7e&#45;fc9ba8e50b1d</text>
</g>
<!-- ORF10&#45;&gt;pr_4b69ddcd&#45;de23&#45;4122&#45;ac7e&#45;fc9ba8e50b1d -->
<g id="edge37" class="edge"><title>ORF10&#45;&gt;pr_4b69ddcd&#45;de23&#45;4122&#45;ac7e&#45;fc9ba8e50b1d</title>
<path fill="none" stroke="black" d="M798.962,-665.311C798.962,-658.048 798.962,-649.135 798.962,-639.848"/>
<polygon fill="black" stroke="black" points="802.462,-639.683 798.962,-629.683 795.462,-639.683 802.462,-639.683"/>
</g>
<!-- E3 ubiquitin ligase complex -->
<g id="node30" class="node"><title>E3 ubiquitin ligase complex</title>
<ellipse fill="none" stroke="black" cx="798.962" cy="-455.43" rx="38.3684" ry="38.3684"/>
<text text-anchor="middle" x="798.962" y="-454.23" font-family="Times,serif" font-size="4.00">E3 ubiquitin ligase complex</text>
</g>
<!-- pr_4b69ddcd&#45;de23&#45;4122&#45;ac7e&#45;fc9ba8e50b1d&#45;&gt;E3 ubiquitin ligase complex -->
<g id="edge38" class="edge"><title>pr_4b69ddcd&#45;de23&#45;4122&#45;ac7e&#45;fc9ba8e50b1d&#45;&gt;E3 ubiquitin ligase complex</title>
<path fill="none" stroke="black" d="M792.324,-529.269C792.159,-520.699 792.176,-511.809 792.377,-503.308"/>
<polygon fill="black" stroke="black" points="795.88,-503.289 792.713,-493.178 788.883,-503.057 795.88,-503.289"/>
</g>
<!-- E3 ubiquitin ligase complex&#45;&gt;pr_4b69ddcd&#45;de23&#45;4122&#45;ac7e&#45;fc9ba8e50b1d -->
<g id="edge39" class="edge"><title>E3 ubiquitin ligase complex&#45;&gt;pr_4b69ddcd&#45;de23&#45;4122&#45;ac7e&#45;fc9ba8e50b1d</title>
<path fill="none" stroke="black" d="M805.211,-493.178C805.565,-501.335 805.731,-510.184 805.71,-518.992"/>
<polygon fill="black" stroke="black" points="802.208,-519.232 805.6,-529.269 809.207,-519.307 802.208,-519.232"/>
</g>
</g>
</svg>
