<?xml version="1.0" encoding="UTF-8" standalone="no"?>
<!DOCTYPE svg PUBLIC "-//W3C//DTD SVG 1.1//EN"
 "http://www.w3.org/Graphics/SVG/1.1/DTD/svg11.dtd">
<!-- Generated by graphviz version 2.38.0 (20140413.2041)
 -->
<!-- Title: G Pages: 1 -->
<svg width="855pt" height="707pt"
 viewBox="0.00 0.00 854.97 706.61" xmlns="http://www.w3.org/2000/svg" xmlns:xlink="http://www.w3.org/1999/xlink">
<g id="graph0" class="graph" transform="scale(1 1) rotate(0) translate(4 702.614)">
<title>G</title>
<polygon fill="white" stroke="none" points="-4,4 -4,-702.614 850.974,-702.614 850.974,4 -4,4"/>
<!-- SMAD1/5/8 -->
<g id="node1" class="node"><title>SMAD1/5/8</title>
<ellipse fill="none" stroke="black" cx="41.9744" cy="-454.43" rx="20.3062" ry="20.3062"/>
<text text-anchor="middle" x="41.9744" y="-453.23" font-family="Times,serif" font-size="4.00">SMAD1/5/8</text>
</g>
<!-- pr_1d2e1726&#45;5c1b&#45;4479&#45;8ad7&#45;72b7903b45a4 -->
<g id="node2" class="node"><title>pr_1d2e1726&#45;5c1b&#45;4479&#45;8ad7&#45;72b7903b45a4</title>
<polygon fill="none" stroke="black" points="188.474,-380.246 87.4744,-380.246 87.4744,-279.246 188.474,-279.246 188.474,-380.246"/>
<text text-anchor="middle" x="137.974" y="-328.546" font-family="Times,serif" font-size="4.00">pr_1d2e1726&#45;5c1b&#45;4479&#45;8ad7&#45;72b7903b45a4</text>
</g>
<!-- SMAD1/5/8&#45;&gt;pr_1d2e1726&#45;5c1b&#45;4479&#45;8ad7&#45;72b7903b45a4 -->
<g id="edge1" class="edge"><title>SMAD1/5/8&#45;&gt;pr_1d2e1726&#45;5c1b&#45;4479&#45;8ad7&#45;72b7903b45a4</title>
<path fill="none" stroke="black" d="M47.8675,-434.888C52.0659,-428.933 57.2348,-422.309 61.9744,-416.246 68.9814,-407.283 76.4067,-397.796 83.7818,-388.53"/>
<polygon fill="black" stroke="black" points="86.7223,-390.458 90.2383,-380.463 81.2571,-386.084 86.7223,-390.458"/>
</g>
<!-- pr_1d2e1726&#45;5c1b&#45;4479&#45;8ad7&#45;72b7903b45a4&#45;&gt;SMAD1/5/8 -->
<g id="edge2" class="edge"><title>pr_1d2e1726&#45;5c1b&#45;4479&#45;8ad7&#45;72b7903b45a4&#45;&gt;SMAD1/5/8</title>
<path fill="none" stroke="black" d="M107.729,-380.463C98.7928,-392.193 89.034,-404.658 79.9744,-416.246 75.26,-422.277 70.1208,-428.862 65.0576,-434.793"/>
<polygon fill="black" stroke="black" points="62.3348,-432.586 58.2472,-442.361 67.5382,-437.269 62.3348,-432.586"/>
</g>
<!-- BAMBI -->
<g id="node3" class="node"><title>BAMBI</title>
<ellipse fill="none" stroke="black" cx="421.974" cy="-680.614" rx="18" ry="18"/>
<text text-anchor="middle" x="421.974" y="-679.414" font-family="Times,serif" font-size="4.00">BAMBI</text>
</g>
<!-- BAMBI&#45;&gt;pr_1d2e1726&#45;5c1b&#45;4479&#45;8ad7&#45;72b7903b45a4 -->
<g id="edge3" class="edge"><title>BAMBI&#45;&gt;pr_1d2e1726&#45;5c1b&#45;4479&#45;8ad7&#45;72b7903b45a4</title>
<path fill="none" stroke="black" d="M404.152,-677.991C337.938,-670.893 105.175,-636.15 12.9744,-492.614 -5.36928,-464.057 -2.86255,-446.266 12.9744,-416.246 26.96,-389.736 53.2776,-369.881 78.1706,-356.012"/>
<polygon fill="black" stroke="black" points="80.0733,-358.964 87.2518,-351.172 76.7807,-352.787 80.0733,-358.964"/>
</g>
<!-- pr_3a94fa17&#45;ec96&#45;423e&#45;b5de&#45;10277b880932 -->
<g id="node10" class="node"><title>pr_3a94fa17&#45;ec96&#45;423e&#45;b5de&#45;10277b880932</title>
<polygon fill="none" stroke="black" points="421.974,-379.746 321.974,-379.746 321.974,-279.746 421.974,-279.746 421.974,-379.746"/>
<text text-anchor="middle" x="371.974" y="-328.546" font-family="Times,serif" font-size="4.00">pr_3a94fa17&#45;ec96&#45;423e&#45;b5de&#45;10277b880932</text>
</g>
<!-- BAMBI&#45;&gt;pr_3a94fa17&#45;ec96&#45;423e&#45;b5de&#45;10277b880932 -->
<g id="edge4" class="edge"><title>BAMBI&#45;&gt;pr_3a94fa17&#45;ec96&#45;423e&#45;b5de&#45;10277b880932</title>
<path fill="none" stroke="black" d="M419.495,-662.313C412.456,-613.199 392.107,-471.218 380.447,-389.863"/>
<polygon fill="black" stroke="black" points="383.884,-389.172 379,-379.769 376.955,-390.165 383.884,-389.172"/>
</g>
<!-- pr_ec671615&#45;c7d5&#45;4f05&#45;a411&#45;a0df51330fe4 -->
<g id="node22" class="node"><title>pr_ec671615&#45;c7d5&#45;4f05&#45;a411&#45;a0df51330fe4</title>
<polygon fill="none" stroke="black" points="537.974,-378.746 439.974,-378.746 439.974,-280.746 537.974,-280.746 537.974,-378.746"/>
<text text-anchor="middle" x="488.974" y="-328.546" font-family="Times,serif" font-size="4.00">pr_ec671615&#45;c7d5&#45;4f05&#45;a411&#45;a0df51330fe4</text>
</g>
<!-- BAMBI&#45;&gt;pr_ec671615&#45;c7d5&#45;4f05&#45;a411&#45;a0df51330fe4 -->
<g id="edge5" class="edge"><title>BAMBI&#45;&gt;pr_ec671615&#45;c7d5&#45;4f05&#45;a411&#45;a0df51330fe4</title>
<path fill="none" stroke="black" d="M431.136,-664.836C449.555,-634.154 490.539,-560.719 504.974,-492.614 512.155,-458.735 508.784,-420.169 503.323,-389.181"/>
<polygon fill="black" stroke="black" points="506.693,-388.16 501.403,-378.98 499.814,-389.455 506.693,-388.16"/>
</g>
<!-- pr_96c7d67f&#45;3141&#45;4a14&#45;bdac&#45;f1f8f0c40028 -->
<g id="node24" class="node"><title>pr_96c7d67f&#45;3141&#45;4a14&#45;bdac&#45;f1f8f0c40028</title>
<polygon fill="none" stroke="black" points="649.974,-626.614 551.974,-626.614 551.974,-528.614 649.974,-528.614 649.974,-626.614"/>
<text text-anchor="middle" x="600.974" y="-576.414" font-family="Times,serif" font-size="4.00">pr_96c7d67f&#45;3141&#45;4a14&#45;bdac&#45;f1f8f0c40028</text>
</g>
<!-- BAMBI&#45;&gt;pr_96c7d67f&#45;3141&#45;4a14&#45;bdac&#45;f1f8f0c40028 -->
<g id="edge6" class="edge"><title>BAMBI&#45;&gt;pr_96c7d67f&#45;3141&#45;4a14&#45;bdac&#45;f1f8f0c40028</title>
<path fill="none" stroke="black" d="M438.692,-673.342C461.773,-664.382 504.357,-646.757 537.974,-626.614 539.699,-625.58 541.433,-624.508 543.168,-623.405"/>
<polygon fill="black" stroke="black" points="545.425,-626.109 551.831,-617.67 541.561,-620.272 545.425,-626.109"/>
</g>
<!-- BMPR1/2/ACTR2 -->
<g id="node4" class="node"><title>BMPR1/2/ACTR2</title>
<ellipse fill="none" stroke="black" cx="106.974" cy="-454.43" rx="26.533" ry="26.533"/>
<text text-anchor="middle" x="106.974" y="-453.23" font-family="Times,serif" font-size="4.00">BMPR1/2/ACTR2</text>
</g>
<!-- BMPR1/2/ACTR2&#45;&gt;pr_1d2e1726&#45;5c1b&#45;4479&#45;8ad7&#45;72b7903b45a4 -->
<g id="edge7" class="edge"><title>BMPR1/2/ACTR2&#45;&gt;pr_1d2e1726&#45;5c1b&#45;4479&#45;8ad7&#45;72b7903b45a4</title>
<path fill="none" stroke="black" d="M113.248,-428.603C116.067,-417.447 119.526,-403.759 122.953,-390.193"/>
<polygon fill="black" stroke="black" points="126.377,-390.928 125.434,-380.376 119.591,-389.213 126.377,-390.928"/>
</g>
<!-- MAPK3 -->
<g id="node5" class="node"><title>MAPK3</title>
<ellipse fill="none" stroke="black" cx="223.974" cy="-454.43" rx="18" ry="18"/>
<text text-anchor="middle" x="223.974" y="-453.23" font-family="Times,serif" font-size="4.00">MAPK3</text>
</g>
<!-- MAPK3&#45;&gt;pr_1d2e1726&#45;5c1b&#45;4479&#45;8ad7&#45;72b7903b45a4 -->
<g id="edge8" class="edge"><title>MAPK3&#45;&gt;pr_1d2e1726&#45;5c1b&#45;4479&#45;8ad7&#45;72b7903b45a4</title>
<path fill="none" stroke="black" d="M214.109,-439.357C205.308,-426.801 191.808,-407.543 178.606,-388.71"/>
<polygon fill="black" stroke="black" points="181.388,-386.58 172.782,-380.4 175.656,-390.598 181.388,-386.58"/>
</g>
<!-- MAPK3&#45;&gt;pr_3a94fa17&#45;ec96&#45;423e&#45;b5de&#45;10277b880932 -->
<g id="edge9" class="edge"><title>MAPK3&#45;&gt;pr_3a94fa17&#45;ec96&#45;423e&#45;b5de&#45;10277b880932</title>
<path fill="none" stroke="black" d="M232.97,-438.792C237.803,-431.562 244.161,-422.972 250.974,-416.246 269.557,-397.902 292.428,-380.662 313.265,-366.535"/>
<polygon fill="black" stroke="black" points="315.369,-369.339 321.745,-360.878 311.484,-363.516 315.369,-369.339"/>
</g>
<!-- 3a -->
<g id="node6" class="node"><title>3a</title>
<ellipse fill="none" stroke="black" cx="423.974" cy="-454.43" rx="18" ry="18"/>
<text text-anchor="middle" x="423.974" y="-453.23" font-family="Times,serif" font-size="4.00">3a</text>
</g>
<!-- 3a&#45;&gt;pr_1d2e1726&#45;5c1b&#45;4479&#45;8ad7&#45;72b7903b45a4 -->
<g id="edge10" class="edge"><title>3a&#45;&gt;pr_1d2e1726&#45;5c1b&#45;4479&#45;8ad7&#45;72b7903b45a4</title>
<path fill="none" stroke="black" d="M409.085,-444.054C396.129,-436.106 376.699,-424.686 358.974,-416.246 306.029,-391.037 243.528,-367.393 198.527,-351.387"/>
<polygon fill="black" stroke="black" points="199.509,-348.022 188.914,-347.99 197.176,-354.622 199.509,-348.022"/>
</g>
<!-- 3a&#45;&gt;pr_3a94fa17&#45;ec96&#45;423e&#45;b5de&#45;10277b880932 -->
<g id="edge11" class="edge"><title>3a&#45;&gt;pr_3a94fa17&#45;ec96&#45;423e&#45;b5de&#45;10277b880932</title>
<path fill="none" stroke="black" d="M417.283,-437.642C412.004,-425.187 404.292,-406.992 396.722,-389.132"/>
<polygon fill="black" stroke="black" points="399.915,-387.697 392.79,-379.855 393.47,-390.428 399.915,-387.697"/>
</g>
<!-- 3a&#45;&gt;pr_ec671615&#45;c7d5&#45;4f05&#45;a411&#45;a0df51330fe4 -->
<g id="edge12" class="edge"><title>3a&#45;&gt;pr_ec671615&#45;c7d5&#45;4f05&#45;a411&#45;a0df51330fe4</title>
<path fill="none" stroke="black" d="M432.075,-438.14C438.831,-425.389 448.902,-406.381 458.701,-387.885"/>
<polygon fill="black" stroke="black" points="461.886,-389.351 463.475,-378.876 455.7,-386.074 461.886,-389.351"/>
</g>
<!-- 7b -->
<g id="node7" class="node"><title>7b</title>
<ellipse fill="none" stroke="black" cx="277.974" cy="-454.43" rx="18" ry="18"/>
<text text-anchor="middle" x="277.974" y="-453.23" font-family="Times,serif" font-size="4.00">7b</text>
</g>
<!-- 7b&#45;&gt;pr_1d2e1726&#45;5c1b&#45;4479&#45;8ad7&#45;72b7903b45a4 -->
<g id="edge13" class="edge"><title>7b&#45;&gt;pr_1d2e1726&#45;5c1b&#45;4479&#45;8ad7&#45;72b7903b45a4</title>
<path fill="none" stroke="black" d="M268.885,-438.885C264.028,-431.679 257.677,-423.082 250.974,-416.246 234.769,-399.718 215.211,-383.79 196.955,-370.253"/>
<polygon fill="black" stroke="black" points="198.815,-367.278 188.675,-364.208 194.687,-372.932 198.815,-367.278"/>
</g>
<!-- 7b&#45;&gt;pr_3a94fa17&#45;ec96&#45;423e&#45;b5de&#45;10277b880932 -->
<g id="edge14" class="edge"><title>7b&#45;&gt;pr_3a94fa17&#45;ec96&#45;423e&#45;b5de&#45;10277b880932</title>
<path fill="none" stroke="black" d="M288.11,-439.215C293.125,-432.248 299.305,-423.761 304.974,-416.246 311.985,-406.955 319.509,-397.174 326.892,-387.68"/>
<polygon fill="black" stroke="black" points="329.656,-389.827 333.046,-379.789 324.136,-385.522 329.656,-389.827"/>
</g>
<!-- nsp4 -->
<g id="node8" class="node"><title>nsp4</title>
<ellipse fill="none" stroke="black" cx="169.974" cy="-454.43" rx="18" ry="18"/>
<text text-anchor="middle" x="169.974" y="-453.23" font-family="Times,serif" font-size="4.00">nsp4</text>
</g>
<!-- nsp4&#45;&gt;pr_1d2e1726&#45;5c1b&#45;4479&#45;8ad7&#45;72b7903b45a4 -->
<g id="edge15" class="edge"><title>nsp4&#45;&gt;pr_1d2e1726&#45;5c1b&#45;4479&#45;8ad7&#45;72b7903b45a4</title>
<path fill="none" stroke="black" d="M165.659,-436.884C162.493,-424.747 157.985,-407.464 153.524,-390.36"/>
<polygon fill="black" stroke="black" points="156.824,-389.144 150.913,-380.351 150.05,-390.91 156.824,-389.144"/>
</g>
<!-- SMAD2/3 -->
<g id="node9" class="node"><title>SMAD2/3</title>
<ellipse fill="none" stroke="black" cx="371.974" cy="-224.685" rx="18.6233" ry="18.6233"/>
<text text-anchor="middle" x="371.974" y="-223.485" font-family="Times,serif" font-size="4.00">SMAD2/3</text>
</g>
<!-- SMAD2/3&#45;&gt;pr_3a94fa17&#45;ec96&#45;423e&#45;b5de&#45;10277b880932 -->
<g id="edge16" class="edge"><title>SMAD2/3&#45;&gt;pr_3a94fa17&#45;ec96&#45;423e&#45;b5de&#45;10277b880932</title>
<path fill="none" stroke="black" d="M377.141,-242.703C377.975,-250.25 378.48,-259.624 378.655,-269.383"/>
<polygon fill="black" stroke="black" points="375.156,-269.652 378.718,-279.63 382.156,-269.609 375.156,-269.652"/>
</g>
<!-- pr_3a94fa17&#45;ec96&#45;423e&#45;b5de&#45;10277b880932&#45;&gt;SMAD2/3 -->
<g id="edge17" class="edge"><title>pr_3a94fa17&#45;ec96&#45;423e&#45;b5de&#45;10277b880932&#45;&gt;SMAD2/3</title>
<path fill="none" stroke="black" d="M365.231,-279.63C365.181,-270.402 365.419,-261.07 365.947,-252.822"/>
<polygon fill="black" stroke="black" points="369.448,-252.964 366.808,-242.703 362.473,-252.371 369.448,-252.964"/>
</g>
<!-- TGFB/TGFBR -->
<g id="node11" class="node"><title>TGFB/TGFBR</title>
<ellipse fill="none" stroke="black" cx="600.974" cy="-454.43" rx="22.05" ry="22.05"/>
<text text-anchor="middle" x="600.974" y="-453.23" font-family="Times,serif" font-size="4.00">TGFB/TGFBR</text>
</g>
<!-- TGFB/TGFBR&#45;&gt;pr_3a94fa17&#45;ec96&#45;423e&#45;b5de&#45;10277b880932 -->
<g id="edge18" class="edge"><title>TGFB/TGFBR&#45;&gt;pr_3a94fa17&#45;ec96&#45;423e&#45;b5de&#45;10277b880932</title>
<path fill="none" stroke="black" d="M580.559,-445.509C541.455,-430.195 457.509,-396.598 430.974,-380.246 430.882,-380.189 430.789,-380.132 430.697,-380.075"/>
<polygon fill="black" stroke="black" points="432.379,-376.991 422.106,-374.402 428.522,-382.833 432.379,-376.991"/>
</g>
<!-- pr_a73da4d8&#45;cd77&#45;4d84&#45;8bf9&#45;a70b1e8149ab -->
<g id="node15" class="node"><title>pr_a73da4d8&#45;cd77&#45;4d84&#45;8bf9&#45;a70b1e8149ab</title>
<polygon fill="none" stroke="black" points="655.974,-379.746 555.974,-379.746 555.974,-279.746 655.974,-279.746 655.974,-379.746"/>
<text text-anchor="middle" x="605.974" y="-328.546" font-family="Times,serif" font-size="4.00">pr_a73da4d8&#45;cd77&#45;4d84&#45;8bf9&#45;a70b1e8149ab</text>
</g>
<!-- TGFB/TGFBR&#45;&gt;pr_a73da4d8&#45;cd77&#45;4d84&#45;8bf9&#45;a70b1e8149ab -->
<g id="edge19" class="edge"><title>TGFB/TGFBR&#45;&gt;pr_a73da4d8&#45;cd77&#45;4d84&#45;8bf9&#45;a70b1e8149ab</title>
<path fill="none" stroke="black" d="M601.845,-432.06C602.323,-420.346 602.941,-405.188 603.552,-390.182"/>
<polygon fill="black" stroke="black" points="607.062,-389.997 603.973,-379.862 600.068,-389.711 607.062,-389.997"/>
</g>
<!-- pr_d1dfdadb&#45;b903&#45;4032&#45;9c2e&#45;b8b382d12776 -->
<g id="node18" class="node"><title>pr_d1dfdadb&#45;b903&#45;4032&#45;9c2e&#45;b8b382d12776</title>
<polygon fill="none" stroke="black" points="773.974,-379.746 673.974,-379.746 673.974,-279.746 773.974,-279.746 773.974,-379.746"/>
<text text-anchor="middle" x="723.974" y="-328.546" font-family="Times,serif" font-size="4.00">pr_d1dfdadb&#45;b903&#45;4032&#45;9c2e&#45;b8b382d12776</text>
</g>
<!-- TGFB/TGFBR&#45;&gt;pr_d1dfdadb&#45;b903&#45;4032&#45;9c2e&#45;b8b382d12776 -->
<g id="edge20" class="edge"><title>TGFB/TGFBR&#45;&gt;pr_d1dfdadb&#45;b903&#45;4032&#45;9c2e&#45;b8b382d12776</title>
<path fill="none" stroke="black" d="M614.424,-436.381C619.719,-429.918 625.962,-422.591 631.974,-416.246 642.678,-404.95 654.564,-393.308 666.14,-382.39"/>
<polygon fill="black" stroke="black" points="668.775,-384.718 673.688,-375.33 663.994,-379.605 668.775,-384.718"/>
</g>
<!-- ACVR1 -->
<g id="node12" class="node"><title>ACVR1</title>
<ellipse fill="none" stroke="black" cx="331.974" cy="-454.43" rx="18" ry="18"/>
<text text-anchor="middle" x="331.974" y="-453.23" font-family="Times,serif" font-size="4.00">ACVR1</text>
</g>
<!-- ACVR1&#45;&gt;pr_3a94fa17&#45;ec96&#45;423e&#45;b5de&#45;10277b880932 -->
<g id="edge21" class="edge"><title>ACVR1&#45;&gt;pr_3a94fa17&#45;ec96&#45;423e&#45;b5de&#45;10277b880932</title>
<path fill="none" stroke="black" d="M337.286,-437.139C341.303,-424.819 347.081,-407.098 352.772,-389.641"/>
<polygon fill="black" stroke="black" points="356.142,-390.598 355.914,-380.006 349.486,-388.428 356.142,-390.598"/>
</g>
<!-- ACVR1B -->
<g id="node13" class="node"><title>ACVR1B</title>
<ellipse fill="none" stroke="black" cx="477.974" cy="-454.43" rx="18.0625" ry="18.0625"/>
<text text-anchor="middle" x="477.974" y="-453.23" font-family="Times,serif" font-size="4.00">ACVR1B</text>
</g>
<!-- ACVR1B&#45;&gt;pr_3a94fa17&#45;ec96&#45;423e&#45;b5de&#45;10277b880932 -->
<g id="edge22" class="edge"><title>ACVR1B&#45;&gt;pr_3a94fa17&#45;ec96&#45;423e&#45;b5de&#45;10277b880932</title>
<path fill="none" stroke="black" d="M468.1,-439.009C463.148,-431.994 456.945,-423.525 450.974,-416.246 443.187,-406.752 434.646,-396.949 426.148,-387.518"/>
<polygon fill="black" stroke="black" points="428.673,-385.092 419.357,-380.047 423.493,-389.801 428.673,-385.092"/>
</g>
<!-- RHOA -->
<g id="node14" class="node"><title>RHOA</title>
<ellipse fill="none" stroke="black" cx="605.974" cy="-224.685" rx="18" ry="18"/>
<text text-anchor="middle" x="605.974" y="-223.485" font-family="Times,serif" font-size="4.00">RHOA</text>
</g>
<!-- RHOA&#45;&gt;pr_a73da4d8&#45;cd77&#45;4d84&#45;8bf9&#45;a70b1e8149ab -->
<g id="edge23" class="edge"><title>RHOA&#45;&gt;pr_a73da4d8&#45;cd77&#45;4d84&#45;8bf9&#45;a70b1e8149ab</title>
<path fill="none" stroke="black" d="M611.088,-242.229C611.958,-249.895 612.481,-259.518 612.657,-269.537"/>
<polygon fill="black" stroke="black" points="609.158,-269.651 612.718,-279.63 616.158,-269.609 609.158,-269.651"/>
</g>
<!-- pr_a73da4d8&#45;cd77&#45;4d84&#45;8bf9&#45;a70b1e8149ab&#45;&gt;RHOA -->
<g id="edge24" class="edge"><title>pr_a73da4d8&#45;cd77&#45;4d84&#45;8bf9&#45;a70b1e8149ab&#45;&gt;RHOA</title>
<path fill="none" stroke="black" d="M599.231,-279.63C599.18,-270.258 599.427,-260.778 599.972,-252.436"/>
<polygon fill="black" stroke="black" points="603.48,-252.495 600.861,-242.229 596.507,-251.888 603.48,-252.495"/>
</g>
<!-- nsp7 -->
<g id="node16" class="node"><title>nsp7</title>
<ellipse fill="none" stroke="black" cx="658.974" cy="-454.43" rx="18" ry="18"/>
<text text-anchor="middle" x="658.974" y="-453.23" font-family="Times,serif" font-size="4.00">nsp7</text>
</g>
<!-- nsp7&#45;&gt;pr_a73da4d8&#45;cd77&#45;4d84&#45;8bf9&#45;a70b1e8149ab -->
<g id="edge25" class="edge"><title>nsp7&#45;&gt;pr_a73da4d8&#45;cd77&#45;4d84&#45;8bf9&#45;a70b1e8149ab</title>
<path fill="none" stroke="black" d="M652.154,-437.642C646.774,-425.187 638.913,-406.992 631.198,-389.132"/>
<polygon fill="black" stroke="black" points="634.369,-387.647 627.19,-379.855 627.943,-390.423 634.369,-387.647"/>
</g>
<!-- PPP2CA -->
<g id="node17" class="node"><title>PPP2CA</title>
<ellipse fill="none" stroke="black" cx="723.974" cy="-224.685" rx="18" ry="18"/>
<text text-anchor="middle" x="723.974" y="-223.485" font-family="Times,serif" font-size="4.00">PPP2CA</text>
</g>
<!-- PPP2CA&#45;&gt;pr_d1dfdadb&#45;b903&#45;4032&#45;9c2e&#45;b8b382d12776 -->
<g id="edge26" class="edge"><title>PPP2CA&#45;&gt;pr_d1dfdadb&#45;b903&#45;4032&#45;9c2e&#45;b8b382d12776</title>
<path fill="none" stroke="black" d="M729.088,-242.229C729.958,-249.895 730.481,-259.518 730.657,-269.537"/>
<polygon fill="black" stroke="black" points="727.158,-269.651 730.718,-279.63 734.158,-269.609 727.158,-269.651"/>
</g>
<!-- pr_475f2ffb&#45;653e&#45;4ab0&#45;a55a&#45;66fa49409fca -->
<g id="node21" class="node"><title>pr_475f2ffb&#45;653e&#45;4ab0&#45;a55a&#45;66fa49409fca</title>
<polygon fill="none" stroke="black" points="772.474,-170.123 675.474,-170.123 675.474,-73.1231 772.474,-73.1231 772.474,-170.123"/>
<text text-anchor="middle" x="723.974" y="-120.423" font-family="Times,serif" font-size="4.00">pr_475f2ffb&#45;653e&#45;4ab0&#45;a55a&#45;66fa49409fca</text>
</g>
<!-- PPP2CA&#45;&gt;pr_475f2ffb&#45;653e&#45;4ab0&#45;a55a&#45;66fa49409fca -->
<g id="edge27" class="edge"><title>PPP2CA&#45;&gt;pr_475f2ffb&#45;653e&#45;4ab0&#45;a55a&#45;66fa49409fca</title>
<path fill="none" stroke="black" d="M723.974,-206.541C723.974,-199.101 723.974,-189.914 723.974,-180.376"/>
<polygon fill="black" stroke="black" points="727.475,-180.368 723.974,-170.368 720.475,-180.368 727.475,-180.368"/>
</g>
<!-- pr_d1dfdadb&#45;b903&#45;4032&#45;9c2e&#45;b8b382d12776&#45;&gt;PPP2CA -->
<g id="edge28" class="edge"><title>pr_d1dfdadb&#45;b903&#45;4032&#45;9c2e&#45;b8b382d12776&#45;&gt;PPP2CA</title>
<path fill="none" stroke="black" d="M717.231,-279.63C717.18,-270.258 717.427,-260.778 717.972,-252.436"/>
<polygon fill="black" stroke="black" points="721.48,-252.495 718.861,-242.229 714.507,-251.888 721.48,-252.495"/>
</g>
<!-- 7a -->
<g id="node19" class="node"><title>7a</title>
<ellipse fill="none" stroke="black" cx="723.974" cy="-454.43" rx="18" ry="18"/>
<text text-anchor="middle" x="723.974" y="-453.23" font-family="Times,serif" font-size="4.00">7a</text>
</g>
<!-- 7a&#45;&gt;pr_d1dfdadb&#45;b903&#45;4032&#45;9c2e&#45;b8b382d12776 -->
<g id="edge29" class="edge"><title>7a&#45;&gt;pr_d1dfdadb&#45;b903&#45;4032&#45;9c2e&#45;b8b382d12776</title>
<path fill="none" stroke="black" d="M723.974,-436.371C723.974,-424.267 723.974,-407.237 723.974,-390.379"/>
<polygon fill="black" stroke="black" points="727.475,-389.95 723.974,-379.951 720.475,-389.951 727.475,-389.95"/>
</g>
<!-- RPS6KB1 -->
<g id="node20" class="node"><title>RPS6KB1</title>
<ellipse fill="none" stroke="black" cx="723.974" cy="-18.5616" rx="18.6233" ry="18.6233"/>
<text text-anchor="middle" x="723.974" y="-17.3616" font-family="Times,serif" font-size="4.00">RPS6KB1</text>
</g>
<!-- RPS6KB1&#45;&gt;pr_475f2ffb&#45;653e&#45;4ab0&#45;a55a&#45;66fa49409fca -->
<g id="edge30" class="edge"><title>RPS6KB1&#45;&gt;pr_475f2ffb&#45;653e&#45;4ab0&#45;a55a&#45;66fa49409fca</title>
<path fill="none" stroke="black" d="M729.166,-36.477C730,-43.9701 730.499,-53.2681 730.664,-62.9224"/>
<polygon fill="black" stroke="black" points="727.164,-63.0692 730.714,-73.0516 734.164,-63.0343 727.164,-63.0692"/>
</g>
<!-- pr_475f2ffb&#45;653e&#45;4ab0&#45;a55a&#45;66fa49409fca&#45;&gt;RPS6KB1 -->
<g id="edge31" class="edge"><title>pr_475f2ffb&#45;653e&#45;4ab0&#45;a55a&#45;66fa49409fca&#45;&gt;RPS6KB1</title>
<path fill="none" stroke="black" d="M717.235,-73.0516C717.171,-63.9388 717.401,-54.6971 717.925,-46.5177"/>
<polygon fill="black" stroke="black" points="721.419,-46.7386 718.783,-36.477 714.444,-46.1428 721.419,-46.7386"/>
</g>
<!-- TGFB -->
<g id="node23" class="node"><title>TGFB</title>
<ellipse fill="none" stroke="black" cx="573.974" cy="-680.614" rx="18" ry="18"/>
<text text-anchor="middle" x="573.974" y="-679.414" font-family="Times,serif" font-size="4.00">TGFB</text>
</g>
<!-- TGFB&#45;&gt;pr_96c7d67f&#45;3141&#45;4a14&#45;bdac&#45;f1f8f0c40028 -->
<g id="edge32" class="edge"><title>TGFB&#45;&gt;pr_96c7d67f&#45;3141&#45;4a14&#45;bdac&#45;f1f8f0c40028</title>
<path fill="none" stroke="black" d="M578.433,-662.936C580.433,-655.456 582.922,-646.144 585.51,-636.464"/>
<polygon fill="black" stroke="black" points="588.914,-637.28 588.116,-626.715 582.152,-635.472 588.914,-637.28"/>
</g>
<!-- pr_96c7d67f&#45;3141&#45;4a14&#45;bdac&#45;f1f8f0c40028&#45;&gt;TGFB/TGFBR -->
<g id="edge33" class="edge"><title>pr_96c7d67f&#45;3141&#45;4a14&#45;bdac&#45;f1f8f0c40028&#45;&gt;TGFB/TGFBR</title>
<path fill="none" stroke="black" d="M600.974,-528.371C600.974,-514.448 600.974,-499.616 600.974,-486.989"/>
<polygon fill="black" stroke="black" points="604.475,-486.968 600.974,-476.968 597.475,-486.968 604.475,-486.968"/>
</g>
<!-- TGFBR2 -->
<g id="node25" class="node"><title>TGFBR2</title>
<ellipse fill="none" stroke="black" cx="627.974" cy="-680.614" rx="18" ry="18"/>
<text text-anchor="middle" x="627.974" y="-679.414" font-family="Times,serif" font-size="4.00">TGFBR2</text>
</g>
<!-- TGFBR2&#45;&gt;pr_96c7d67f&#45;3141&#45;4a14&#45;bdac&#45;f1f8f0c40028 -->
<g id="edge34" class="edge"><title>TGFBR2&#45;&gt;pr_96c7d67f&#45;3141&#45;4a14&#45;bdac&#45;f1f8f0c40028</title>
<path fill="none" stroke="black" d="M623.516,-662.936C621.516,-655.456 619.027,-646.144 616.439,-636.464"/>
<polygon fill="black" stroke="black" points="619.797,-635.472 613.833,-626.715 613.035,-637.28 619.797,-635.472"/>
</g>
<!-- LTBP1 -->
<g id="node26" class="node"><title>LTBP1</title>
<ellipse fill="none" stroke="black" cx="681.974" cy="-680.614" rx="18" ry="18"/>
<text text-anchor="middle" x="681.974" y="-679.414" font-family="Times,serif" font-size="4.00">LTBP1</text>
</g>
<!-- LTBP1&#45;&gt;pr_96c7d67f&#45;3141&#45;4a14&#45;bdac&#45;f1f8f0c40028 -->
<g id="edge35" class="edge"><title>LTBP1&#45;&gt;pr_96c7d67f&#45;3141&#45;4a14&#45;bdac&#45;f1f8f0c40028</title>
<path fill="none" stroke="black" d="M671.05,-665.992C664.384,-657.68 655.367,-646.437 646.023,-634.785"/>
<polygon fill="black" stroke="black" points="648.513,-632.296 639.527,-626.685 643.053,-636.676 648.513,-632.296"/>
</g>
<!-- 8 -->
<g id="node27" class="node"><title>8</title>
<ellipse fill="none" stroke="black" cx="519.974" cy="-680.614" rx="18" ry="18"/>
<text text-anchor="middle" x="519.974" y="-679.414" font-family="Times,serif" font-size="4.00">8</text>
</g>
<!-- 8&#45;&gt;pr_96c7d67f&#45;3141&#45;4a14&#45;bdac&#45;f1f8f0c40028 -->
<g id="edge36" class="edge"><title>8&#45;&gt;pr_96c7d67f&#45;3141&#45;4a14&#45;bdac&#45;f1f8f0c40028</title>
<path fill="none" stroke="black" d="M530.898,-665.992C537.565,-657.68 546.582,-646.437 555.926,-634.785"/>
<polygon fill="black" stroke="black" points="558.896,-636.676 562.422,-626.685 553.435,-632.296 558.896,-636.676"/>
</g>
<!-- ORF10 -->
<g id="node28" class="node"><title>ORF10</title>
<ellipse fill="none" stroke="black" cx="797.974" cy="-680.614" rx="18" ry="18"/>
<text text-anchor="middle" x="797.974" y="-679.414" font-family="Times,serif" font-size="4.00">ORF10</text>
</g>
<!-- pr_fcbdaae1&#45;febf&#45;4802&#45;aec4&#45;0c629fa3e44e -->
<g id="node29" class="node"><title>pr_fcbdaae1&#45;febf&#45;4802&#45;aec4&#45;0c629fa3e44e</title>
<polygon fill="none" stroke="black" points="846.974,-626.614 748.974,-626.614 748.974,-528.614 846.974,-528.614 846.974,-626.614"/>
<text text-anchor="middle" x="797.974" y="-576.414" font-family="Times,serif" font-size="4.00">pr_fcbdaae1&#45;febf&#45;4802&#45;aec4&#45;0c629fa3e44e</text>
</g>
<!-- ORF10&#45;&gt;pr_fcbdaae1&#45;febf&#45;4802&#45;aec4&#45;0c629fa3e44e -->
<g id="edge37" class="edge"><title>ORF10&#45;&gt;pr_fcbdaae1&#45;febf&#45;4802&#45;aec4&#45;0c629fa3e44e</title>
<path fill="none" stroke="black" d="M797.974,-662.48C797.974,-655.206 797.974,-646.26 797.974,-636.95"/>
<polygon fill="black" stroke="black" points="801.475,-636.766 797.974,-626.766 794.475,-636.766 801.475,-636.766"/>
</g>
<!-- E3 ubiquitin ligase complex -->
<g id="node30" class="node"><title>E3 ubiquitin ligase complex</title>
<ellipse fill="none" stroke="black" cx="797.974" cy="-454.43" rx="38.3684" ry="38.3684"/>
<text text-anchor="middle" x="797.974" y="-453.23" font-family="Times,serif" font-size="4.00">E3 ubiquitin ligase complex</text>
</g>
<!-- pr_fcbdaae1&#45;febf&#45;4802&#45;aec4&#45;0c629fa3e44e&#45;&gt;E3 ubiquitin ligase complex -->
<g id="edge38" class="edge"><title>pr_fcbdaae1&#45;febf&#45;4802&#45;aec4&#45;0c629fa3e44e&#45;&gt;E3 ubiquitin ligase complex</title>
<path fill="none" stroke="black" d="M791.351,-528.371C791.174,-519.83 791.183,-510.948 791.377,-502.442"/>
<polygon fill="black" stroke="black" points="794.88,-502.41 791.707,-492.302 787.884,-502.183 794.88,-502.41"/>
</g>
<!-- E3 ubiquitin ligase complex&#45;&gt;pr_fcbdaae1&#45;febf&#45;4802&#45;aec4&#45;0c629fa3e44e -->
<g id="edge39" class="edge"><title>E3 ubiquitin ligase complex&#45;&gt;pr_fcbdaae1&#45;febf&#45;4802&#45;aec4&#45;0c629fa3e44e</title>
<path fill="none" stroke="black" d="M804.242,-492.302C804.591,-500.472 804.751,-509.325 804.721,-518.119"/>
<polygon fill="black" stroke="black" points="801.218,-518.329 804.598,-528.371 808.218,-518.413 801.218,-518.329"/>
</g>
</g>
</svg>
