<?xml version="1.0" encoding="UTF-8" standalone="no"?>
<!DOCTYPE svg PUBLIC "-//W3C//DTD SVG 1.1//EN"
 "http://www.w3.org/Graphics/SVG/1.1/DTD/svg11.dtd">
<!-- Generated by graphviz version 2.38.0 (20140413.2041)
 -->
<!-- Title: G Pages: 1 -->
<svg width="855pt" height="708pt"
 viewBox="0.00 0.00 854.97 707.61" xmlns="http://www.w3.org/2000/svg" xmlns:xlink="http://www.w3.org/1999/xlink">
<g id="graph0" class="graph" transform="scale(1 1) rotate(0) translate(4 703.614)">
<title>G</title>
<polygon fill="white" stroke="none" points="-4,4 -4,-703.614 850.975,-703.614 850.975,4 -4,4"/>
<!-- SMAD1/5/8 -->
<g id="node1" class="node"><title>SMAD1/5/8</title>
<ellipse fill="none" stroke="black" cx="41.9748" cy="-453.43" rx="20.3062" ry="20.3062"/>
<text text-anchor="middle" x="41.9748" y="-452.23" font-family="Times,serif" font-size="4.00">SMAD1/5/8</text>
</g>
<!-- pr_a3251d73&#45;7a39&#45;4025&#45;9dff&#45;0a01ae99fede -->
<g id="node2" class="node"><title>pr_a3251d73&#45;7a39&#45;4025&#45;9dff&#45;0a01ae99fede</title>
<polygon fill="none" stroke="black" points="186.975,-378.746 88.9748,-378.746 88.9748,-280.746 186.975,-280.746 186.975,-378.746"/>
<text text-anchor="middle" x="137.975" y="-328.546" font-family="Times,serif" font-size="4.00">pr_a3251d73&#45;7a39&#45;4025&#45;9dff&#45;0a01ae99fede</text>
</g>
<!-- SMAD1/5/8&#45;&gt;pr_a3251d73&#45;7a39&#45;4025&#45;9dff&#45;0a01ae99fede -->
<g id="edge1" class="edge"><title>SMAD1/5/8&#45;&gt;pr_a3251d73&#45;7a39&#45;4025&#45;9dff&#45;0a01ae99fede</title>
<path fill="none" stroke="black" d="M47.8471,-433.872C52.0444,-427.916 57.2179,-421.295 61.9748,-415.246 69.208,-406.048 76.9028,-396.305 84.5337,-386.831"/>
<polygon fill="black" stroke="black" points="87.3404,-388.926 90.9172,-378.954 81.9019,-384.519 87.3404,-388.926"/>
</g>
<!-- pr_a3251d73&#45;7a39&#45;4025&#45;9dff&#45;0a01ae99fede&#45;&gt;SMAD1/5/8 -->
<g id="edge2" class="edge"><title>pr_a3251d73&#45;7a39&#45;4025&#45;9dff&#45;0a01ae99fede&#45;&gt;SMAD1/5/8</title>
<path fill="none" stroke="black" d="M108.368,-378.954C99.2481,-390.806 89.2332,-403.473 79.9748,-415.246 75.2432,-421.263 70.0994,-427.845 65.0372,-433.777"/>
<polygon fill="black" stroke="black" points="62.3135,-431.571 58.2311,-441.348 67.5193,-436.251 62.3135,-431.571"/>
</g>
<!-- BAMBI -->
<g id="node3" class="node"><title>BAMBI</title>
<ellipse fill="none" stroke="black" cx="421.975" cy="-681.614" rx="18" ry="18"/>
<text text-anchor="middle" x="421.975" y="-680.414" font-family="Times,serif" font-size="4.00">BAMBI</text>
</g>
<!-- BAMBI&#45;&gt;pr_a3251d73&#45;7a39&#45;4025&#45;9dff&#45;0a01ae99fede -->
<g id="edge3" class="edge"><title>BAMBI&#45;&gt;pr_a3251d73&#45;7a39&#45;4025&#45;9dff&#45;0a01ae99fede</title>
<path fill="none" stroke="black" d="M404.145,-678.904C337.904,-671.482 105.056,-635.603 12.9748,-491.614 -5.3112,-463.02 -2.9442,-445.223 12.9748,-415.246 27.3169,-388.239 54.5711,-368.292 79.9793,-354.582"/>
<polygon fill="black" stroke="black" points="81.5874,-357.691 88.8653,-349.991 78.3744,-351.472 81.5874,-357.691"/>
</g>
<!-- pr_3f9c8d33&#45;d785&#45;4b21&#45;864c&#45;03afd0de5110 -->
<g id="node10" class="node"><title>pr_3f9c8d33&#45;d785&#45;4b21&#45;864c&#45;03afd0de5110</title>
<polygon fill="none" stroke="black" points="421.475,-379.246 322.475,-379.246 322.475,-280.246 421.475,-280.246 421.475,-379.246"/>
<text text-anchor="middle" x="371.975" y="-328.546" font-family="Times,serif" font-size="4.00">pr_3f9c8d33&#45;d785&#45;4b21&#45;864c&#45;03afd0de5110</text>
</g>
<!-- BAMBI&#45;&gt;pr_3f9c8d33&#45;d785&#45;4b21&#45;864c&#45;03afd0de5110 -->
<g id="edge4" class="edge"><title>BAMBI&#45;&gt;pr_3f9c8d33&#45;d785&#45;4b21&#45;864c&#45;03afd0de5110</title>
<path fill="none" stroke="black" d="M419.563,-663.739C412.576,-614.848 392.075,-471.396 380.388,-389.614"/>
<polygon fill="black" stroke="black" points="383.818,-388.876 378.938,-379.471 376.888,-389.866 383.818,-388.876"/>
</g>
<!-- pr_87ee4411&#45;4c39&#45;4bbc&#45;9f25&#45;89df142e57df -->
<g id="node22" class="node"><title>pr_87ee4411&#45;4c39&#45;4bbc&#45;9f25&#45;89df142e57df</title>
<polygon fill="none" stroke="black" points="537.975,-378.746 439.975,-378.746 439.975,-280.746 537.975,-280.746 537.975,-378.746"/>
<text text-anchor="middle" x="488.975" y="-328.546" font-family="Times,serif" font-size="4.00">pr_87ee4411&#45;4c39&#45;4bbc&#45;9f25&#45;89df142e57df</text>
</g>
<!-- BAMBI&#45;&gt;pr_87ee4411&#45;4c39&#45;4bbc&#45;9f25&#45;89df142e57df -->
<g id="edge5" class="edge"><title>BAMBI&#45;&gt;pr_87ee4411&#45;4c39&#45;4bbc&#45;9f25&#45;89df142e57df</title>
<path fill="none" stroke="black" d="M431.138,-665.663C449.558,-634.625 490.546,-560.356 504.975,-491.614 512.02,-458.052 508.695,-419.88 503.294,-389.145"/>
<polygon fill="black" stroke="black" points="506.679,-388.208 501.395,-379.025 499.799,-389.499 506.679,-388.208"/>
</g>
<!-- pr_4fe324fa&#45;c25b&#45;4e8a&#45;b773&#45;e15b99c013ef -->
<g id="node24" class="node"><title>pr_4fe324fa&#45;c25b&#45;4e8a&#45;b773&#45;e15b99c013ef</title>
<polygon fill="none" stroke="black" points="649.975,-626.614 551.975,-626.614 551.975,-528.614 649.975,-528.614 649.975,-626.614"/>
<text text-anchor="middle" x="600.975" y="-576.414" font-family="Times,serif" font-size="4.00">pr_4fe324fa&#45;c25b&#45;4e8a&#45;b773&#45;e15b99c013ef</text>
</g>
<!-- BAMBI&#45;&gt;pr_4fe324fa&#45;c25b&#45;4e8a&#45;b773&#45;e15b99c013ef -->
<g id="edge6" class="edge"><title>BAMBI&#45;&gt;pr_4fe324fa&#45;c25b&#45;4e8a&#45;b773&#45;e15b99c013ef</title>
<path fill="none" stroke="black" d="M438.722,-674.39C461.836,-665.485 504.458,-647.924 537.975,-627.614 539.708,-626.564 541.449,-625.473 543.19,-624.351"/>
<polygon fill="black" stroke="black" points="545.531,-626.995 551.878,-618.512 541.626,-621.186 545.531,-626.995"/>
</g>
<!-- BMPR1/2/ACTR2 -->
<g id="node4" class="node"><title>BMPR1/2/ACTR2</title>
<ellipse fill="none" stroke="black" cx="106.975" cy="-453.43" rx="26.533" ry="26.533"/>
<text text-anchor="middle" x="106.975" y="-452.23" font-family="Times,serif" font-size="4.00">BMPR1/2/ACTR2</text>
</g>
<!-- BMPR1/2/ACTR2&#45;&gt;pr_a3251d73&#45;7a39&#45;4025&#45;9dff&#45;0a01ae99fede -->
<g id="edge7" class="edge"><title>BMPR1/2/ACTR2&#45;&gt;pr_a3251d73&#45;7a39&#45;4025&#45;9dff&#45;0a01ae99fede</title>
<path fill="none" stroke="black" d="M113.323,-427.512C116.202,-416.21 119.738,-402.331 123.223,-388.65"/>
<polygon fill="black" stroke="black" points="126.665,-389.318 125.742,-378.764 119.881,-387.59 126.665,-389.318"/>
</g>
<!-- MAPK3 -->
<g id="node5" class="node"><title>MAPK3</title>
<ellipse fill="none" stroke="black" cx="223.975" cy="-453.43" rx="18" ry="18"/>
<text text-anchor="middle" x="223.975" y="-452.23" font-family="Times,serif" font-size="4.00">MAPK3</text>
</g>
<!-- MAPK3&#45;&gt;pr_a3251d73&#45;7a39&#45;4025&#45;9dff&#45;0a01ae99fede -->
<g id="edge8" class="edge"><title>MAPK3&#45;&gt;pr_a3251d73&#45;7a39&#45;4025&#45;9dff&#45;0a01ae99fede</title>
<path fill="none" stroke="black" d="M213.772,-437.993C204.78,-425.271 191.077,-405.883 177.784,-387.073"/>
<polygon fill="black" stroke="black" points="180.556,-384.931 171.926,-378.784 174.839,-388.971 180.556,-384.931"/>
</g>
<!-- MAPK3&#45;&gt;pr_3f9c8d33&#45;d785&#45;4b21&#45;864c&#45;03afd0de5110 -->
<g id="edge9" class="edge"><title>MAPK3&#45;&gt;pr_3f9c8d33&#45;d785&#45;4b21&#45;864c&#45;03afd0de5110</title>
<path fill="none" stroke="black" d="M232.955,-437.776C237.784,-430.542 244.143,-421.953 250.975,-415.246 269.696,-396.867 292.799,-379.672 313.783,-365.654"/>
<polygon fill="black" stroke="black" points="315.883,-368.462 322.319,-360.046 312.039,-362.612 315.883,-368.462"/>
</g>
<!-- 3a -->
<g id="node6" class="node"><title>3a</title>
<ellipse fill="none" stroke="black" cx="423.975" cy="-453.43" rx="18" ry="18"/>
<text text-anchor="middle" x="423.975" y="-452.23" font-family="Times,serif" font-size="4.00">3a</text>
</g>
<!-- 3a&#45;&gt;pr_a3251d73&#45;7a39&#45;4025&#45;9dff&#45;0a01ae99fede -->
<g id="edge10" class="edge"><title>3a&#45;&gt;pr_a3251d73&#45;7a39&#45;4025&#45;9dff&#45;0a01ae99fede</title>
<path fill="none" stroke="black" d="M409.094,-443.037C396.143,-435.077 376.716,-423.651 358.975,-415.246 305.369,-389.851 241.92,-366.219 196.789,-350.442"/>
<polygon fill="black" stroke="black" points="197.756,-347.073 187.162,-347.098 195.46,-353.685 197.756,-347.073"/>
</g>
<!-- 3a&#45;&gt;pr_3f9c8d33&#45;d785&#45;4b21&#45;864c&#45;03afd0de5110 -->
<g id="edge11" class="edge"><title>3a&#45;&gt;pr_3f9c8d33&#45;d785&#45;4b21&#45;864c&#45;03afd0de5110</title>
<path fill="none" stroke="black" d="M417.177,-436.522C411.927,-424.238 404.318,-406.431 396.835,-388.921"/>
<polygon fill="black" stroke="black" points="399.855,-387.08 392.706,-379.26 393.418,-389.831 399.855,-387.08"/>
</g>
<!-- 3a&#45;&gt;pr_87ee4411&#45;4c39&#45;4bbc&#45;9f25&#45;89df142e57df -->
<g id="edge12" class="edge"><title>3a&#45;&gt;pr_87ee4411&#45;4c39&#45;4bbc&#45;9f25&#45;89df142e57df</title>
<path fill="none" stroke="black" d="M432.207,-437.019C438.93,-424.433 448.872,-405.822 458.564,-387.677"/>
<polygon fill="black" stroke="black" points="461.663,-389.304 463.287,-378.835 455.488,-386.006 461.663,-389.304"/>
</g>
<!-- 7b -->
<g id="node7" class="node"><title>7b</title>
<ellipse fill="none" stroke="black" cx="277.975" cy="-453.43" rx="18" ry="18"/>
<text text-anchor="middle" x="277.975" y="-452.23" font-family="Times,serif" font-size="4.00">7b</text>
</g>
<!-- 7b&#45;&gt;pr_a3251d73&#45;7a39&#45;4025&#45;9dff&#45;0a01ae99fede -->
<g id="edge13" class="edge"><title>7b&#45;&gt;pr_a3251d73&#45;7a39&#45;4025&#45;9dff&#45;0a01ae99fede</title>
<path fill="none" stroke="black" d="M268.902,-437.869C264.049,-430.659 257.697,-422.063 250.975,-415.246 234.269,-398.305 213.974,-382.055 195.218,-368.411"/>
<polygon fill="black" stroke="black" points="197.177,-365.508 187.009,-362.531 193.1,-371.199 197.177,-365.508"/>
</g>
<!-- 7b&#45;&gt;pr_3f9c8d33&#45;d785&#45;4b21&#45;864c&#45;03afd0de5110 -->
<g id="edge14" class="edge"><title>7b&#45;&gt;pr_3f9c8d33&#45;d785&#45;4b21&#45;864c&#45;03afd0de5110</title>
<path fill="none" stroke="black" d="M288.092,-438.201C293.102,-431.231 299.284,-422.745 304.975,-415.246 311.803,-406.249 319.134,-396.8 326.351,-387.612"/>
<polygon fill="black" stroke="black" points="329.207,-389.642 332.649,-379.622 323.71,-385.309 329.207,-389.642"/>
</g>
<!-- nsp4 -->
<g id="node8" class="node"><title>nsp4</title>
<ellipse fill="none" stroke="black" cx="169.975" cy="-453.43" rx="18" ry="18"/>
<text text-anchor="middle" x="169.975" y="-452.23" font-family="Times,serif" font-size="4.00">nsp4</text>
</g>
<!-- nsp4&#45;&gt;pr_a3251d73&#45;7a39&#45;4025&#45;9dff&#45;0a01ae99fede -->
<g id="edge15" class="edge"><title>nsp4&#45;&gt;pr_a3251d73&#45;7a39&#45;4025&#45;9dff&#45;0a01ae99fede</title>
<path fill="none" stroke="black" d="M165.592,-435.766C162.373,-423.523 157.792,-406.103 153.284,-388.961"/>
<polygon fill="black" stroke="black" points="156.577,-387.723 150.649,-378.942 149.808,-389.503 156.577,-387.723"/>
</g>
<!-- SMAD2/3 -->
<g id="node9" class="node"><title>SMAD2/3</title>
<ellipse fill="none" stroke="black" cx="371.975" cy="-225.685" rx="18.6233" ry="18.6233"/>
<text text-anchor="middle" x="371.975" y="-224.485" font-family="Times,serif" font-size="4.00">SMAD2/3</text>
</g>
<!-- SMAD2/3&#45;&gt;pr_3f9c8d33&#45;d785&#45;4b21&#45;864c&#45;03afd0de5110 -->
<g id="edge16" class="edge"><title>SMAD2/3&#45;&gt;pr_3f9c8d33&#45;d785&#45;4b21&#45;864c&#45;03afd0de5110</title>
<path fill="none" stroke="black" d="M377.141,-243.538C377.975,-251.012 378.48,-260.295 378.655,-269.959"/>
<polygon fill="black" stroke="black" points="375.156,-270.129 378.718,-280.107 382.156,-270.085 375.156,-270.129"/>
</g>
<!-- pr_3f9c8d33&#45;d785&#45;4b21&#45;864c&#45;03afd0de5110&#45;&gt;SMAD2/3 -->
<g id="edge17" class="edge"><title>pr_3f9c8d33&#45;d785&#45;4b21&#45;864c&#45;03afd0de5110&#45;&gt;SMAD2/3</title>
<path fill="none" stroke="black" d="M365.231,-280.107C365.181,-270.968 365.42,-261.727 365.948,-253.559"/>
<polygon fill="black" stroke="black" points="369.44,-253.801 366.809,-243.538 362.465,-253.202 369.44,-253.801"/>
</g>
<!-- TGFB/TGFBR -->
<g id="node11" class="node"><title>TGFB/TGFBR</title>
<ellipse fill="none" stroke="black" cx="600.975" cy="-453.43" rx="22.05" ry="22.05"/>
<text text-anchor="middle" x="600.975" y="-452.23" font-family="Times,serif" font-size="4.00">TGFB/TGFBR</text>
</g>
<!-- TGFB/TGFBR&#45;&gt;pr_3f9c8d33&#45;d785&#45;4b21&#45;864c&#45;03afd0de5110 -->
<g id="edge18" class="edge"><title>TGFB/TGFBR&#45;&gt;pr_3f9c8d33&#45;d785&#45;4b21&#45;864c&#45;03afd0de5110</title>
<path fill="none" stroke="black" d="M580.574,-444.485C541.495,-429.13 457.591,-395.465 430.975,-379.246 430.784,-379.13 430.593,-379.013 430.401,-378.895"/>
<polygon fill="black" stroke="black" points="432.089,-375.817 421.805,-373.269 428.256,-381.674 432.089,-375.817"/>
</g>
<!-- pr_3447b6d8&#45;4cf3&#45;424c&#45;b54d&#45;af257d68725c -->
<g id="node15" class="node"><title>pr_3447b6d8&#45;4cf3&#45;424c&#45;b54d&#45;af257d68725c</title>
<polygon fill="none" stroke="black" points="655.475,-379.246 556.475,-379.246 556.475,-280.246 655.475,-280.246 655.475,-379.246"/>
<text text-anchor="middle" x="605.975" y="-328.546" font-family="Times,serif" font-size="4.00">pr_3447b6d8&#45;4cf3&#45;424c&#45;b54d&#45;af257d68725c</text>
</g>
<!-- TGFB/TGFBR&#45;&gt;pr_3447b6d8&#45;4cf3&#45;424c&#45;b54d&#45;af257d68725c -->
<g id="edge19" class="edge"><title>TGFB/TGFBR&#45;&gt;pr_3447b6d8&#45;4cf3&#45;424c&#45;b54d&#45;af257d68725c</title>
<path fill="none" stroke="black" d="M601.857,-430.955C602.336,-419.314 602.952,-404.303 603.562,-389.46"/>
<polygon fill="black" stroke="black" points="607.068,-389.391 603.982,-379.255 600.074,-389.103 607.068,-389.391"/>
</g>
<!-- pr_c3714fe9&#45;552a&#45;4cf3&#45;a908&#45;14ee4e72f5dc -->
<g id="node18" class="node"><title>pr_c3714fe9&#45;552a&#45;4cf3&#45;a908&#45;14ee4e72f5dc</title>
<polygon fill="none" stroke="black" points="771.975,-378.746 673.975,-378.746 673.975,-280.746 771.975,-280.746 771.975,-378.746"/>
<text text-anchor="middle" x="722.975" y="-328.546" font-family="Times,serif" font-size="4.00">pr_c3714fe9&#45;552a&#45;4cf3&#45;a908&#45;14ee4e72f5dc</text>
</g>
<!-- TGFB/TGFBR&#45;&gt;pr_c3714fe9&#45;552a&#45;4cf3&#45;a908&#45;14ee4e72f5dc -->
<g id="edge20" class="edge"><title>TGFB/TGFBR&#45;&gt;pr_c3714fe9&#45;552a&#45;4cf3&#45;a908&#45;14ee4e72f5dc</title>
<path fill="none" stroke="black" d="M614.423,-435.38C619.718,-428.916 625.961,-421.59 631.975,-415.246 642.682,-403.951 654.586,-392.307 666.161,-381.409"/>
<polygon fill="black" stroke="black" points="668.784,-383.75 673.705,-374.367 664.007,-378.633 668.784,-383.75"/>
</g>
<!-- ACVR1 -->
<g id="node12" class="node"><title>ACVR1</title>
<ellipse fill="none" stroke="black" cx="331.975" cy="-453.43" rx="18" ry="18"/>
<text text-anchor="middle" x="331.975" y="-452.23" font-family="Times,serif" font-size="4.00">ACVR1</text>
</g>
<!-- ACVR1&#45;&gt;pr_3f9c8d33&#45;d785&#45;4b21&#45;864c&#45;03afd0de5110 -->
<g id="edge21" class="edge"><title>ACVR1&#45;&gt;pr_3f9c8d33&#45;d785&#45;4b21&#45;864c&#45;03afd0de5110</title>
<path fill="none" stroke="black" d="M337.369,-436.019C341.4,-423.758 347.17,-406.204 352.847,-388.936"/>
<polygon fill="black" stroke="black" points="356.181,-390 355.979,-379.407 349.531,-387.814 356.181,-390"/>
</g>
<!-- ACVR1B -->
<g id="node13" class="node"><title>ACVR1B</title>
<ellipse fill="none" stroke="black" cx="477.975" cy="-453.43" rx="18.0625" ry="18.0625"/>
<text text-anchor="middle" x="477.975" y="-452.23" font-family="Times,serif" font-size="4.00">ACVR1B</text>
</g>
<!-- ACVR1B&#45;&gt;pr_3f9c8d33&#45;d785&#45;4b21&#45;864c&#45;03afd0de5110 -->
<g id="edge22" class="edge"><title>ACVR1B&#45;&gt;pr_3f9c8d33&#45;d785&#45;4b21&#45;864c&#45;03afd0de5110</title>
<path fill="none" stroke="black" d="M468.119,-437.994C463.171,-430.975 456.966,-422.507 450.975,-415.246 443.209,-405.835 434.679,-396.131 426.186,-386.804"/>
<polygon fill="black" stroke="black" points="428.741,-384.412 419.397,-379.417 423.587,-389.148 428.741,-384.412"/>
</g>
<!-- RHOA -->
<g id="node14" class="node"><title>RHOA</title>
<ellipse fill="none" stroke="black" cx="605.975" cy="-225.685" rx="18" ry="18"/>
<text text-anchor="middle" x="605.975" y="-224.485" font-family="Times,serif" font-size="4.00">RHOA</text>
</g>
<!-- RHOA&#45;&gt;pr_3447b6d8&#45;4cf3&#45;424c&#45;b54d&#45;af257d68725c -->
<g id="edge23" class="edge"><title>RHOA&#45;&gt;pr_3447b6d8&#45;4cf3&#45;424c&#45;b54d&#45;af257d68725c</title>
<path fill="none" stroke="black" d="M611.088,-243.068C611.949,-250.581 612.471,-259.991 612.652,-269.801"/>
<polygon fill="black" stroke="black" points="609.154,-270.129 612.718,-280.107 616.154,-270.084 609.154,-270.129"/>
</g>
<!-- pr_3447b6d8&#45;4cf3&#45;424c&#45;b54d&#45;af257d68725c&#45;&gt;RHOA -->
<g id="edge24" class="edge"><title>pr_3447b6d8&#45;4cf3&#45;424c&#45;b54d&#45;af257d68725c&#45;&gt;RHOA</title>
<path fill="none" stroke="black" d="M599.231,-280.107C599.18,-270.825 599.427,-261.438 599.973,-253.176"/>
<polygon fill="black" stroke="black" points="603.472,-253.337 600.862,-243.068 596.499,-252.723 603.472,-253.337"/>
</g>
<!-- nsp7 -->
<g id="node16" class="node"><title>nsp7</title>
<ellipse fill="none" stroke="black" cx="658.975" cy="-453.43" rx="18" ry="18"/>
<text text-anchor="middle" x="658.975" y="-452.23" font-family="Times,serif" font-size="4.00">nsp7</text>
</g>
<!-- nsp7&#45;&gt;pr_3447b6d8&#45;4cf3&#45;424c&#45;b54d&#45;af257d68725c -->
<g id="edge25" class="edge"><title>nsp7&#45;&gt;pr_3447b6d8&#45;4cf3&#45;424c&#45;b54d&#45;af257d68725c</title>
<path fill="none" stroke="black" d="M652.046,-436.522C646.646,-424.124 638.796,-406.101 631.101,-388.434"/>
<polygon fill="black" stroke="black" points="634.307,-387.03 627.105,-379.26 627.89,-389.825 634.307,-387.03"/>
</g>
<!-- PPP2CA -->
<g id="node17" class="node"><title>PPP2CA</title>
<ellipse fill="none" stroke="black" cx="722.975" cy="-225.685" rx="18" ry="18"/>
<text text-anchor="middle" x="722.975" y="-224.485" font-family="Times,serif" font-size="4.00">PPP2CA</text>
</g>
<!-- PPP2CA&#45;&gt;pr_c3714fe9&#45;552a&#45;4cf3&#45;a908&#45;14ee4e72f5dc -->
<g id="edge26" class="edge"><title>PPP2CA&#45;&gt;pr_c3714fe9&#45;552a&#45;4cf3&#45;a908&#45;14ee4e72f5dc</title>
<path fill="none" stroke="black" d="M728.114,-243.292C728.984,-250.979 729.501,-260.618 729.667,-270.629"/>
<polygon fill="black" stroke="black" points="726.167,-270.721 729.715,-280.704 733.167,-270.687 726.167,-270.721"/>
</g>
<!-- pr_7fe641a2&#45;0eff&#45;49c6&#45;aa74&#45;810bba0efcde -->
<g id="node21" class="node"><title>pr_7fe641a2&#45;0eff&#45;49c6&#45;aa74&#45;810bba0efcde</title>
<polygon fill="none" stroke="black" points="771.975,-171.123 673.975,-171.123 673.975,-73.1231 771.975,-73.1231 771.975,-171.123"/>
<text text-anchor="middle" x="722.975" y="-120.923" font-family="Times,serif" font-size="4.00">pr_7fe641a2&#45;0eff&#45;49c6&#45;aa74&#45;810bba0efcde</text>
</g>
<!-- PPP2CA&#45;&gt;pr_7fe641a2&#45;0eff&#45;49c6&#45;aa74&#45;810bba0efcde -->
<g id="edge27" class="edge"><title>PPP2CA&#45;&gt;pr_7fe641a2&#45;0eff&#45;49c6&#45;aa74&#45;810bba0efcde</title>
<path fill="none" stroke="black" d="M722.975,-207.456C722.975,-200.141 722.975,-191.145 722.975,-181.783"/>
<polygon fill="black" stroke="black" points="726.475,-181.543 722.975,-171.543 719.475,-181.543 726.475,-181.543"/>
</g>
<!-- pr_c3714fe9&#45;552a&#45;4cf3&#45;a908&#45;14ee4e72f5dc&#45;&gt;PPP2CA -->
<g id="edge28" class="edge"><title>pr_c3714fe9&#45;552a&#45;4cf3&#45;a908&#45;14ee4e72f5dc&#45;&gt;PPP2CA</title>
<path fill="none" stroke="black" d="M716.235,-280.704C716.171,-271.357 716.409,-261.876 716.95,-253.521"/>
<polygon fill="black" stroke="black" points="720.46,-253.557 717.836,-243.292 713.486,-252.953 720.46,-253.557"/>
</g>
<!-- 7a -->
<g id="node19" class="node"><title>7a</title>
<ellipse fill="none" stroke="black" cx="722.975" cy="-453.43" rx="18" ry="18"/>
<text text-anchor="middle" x="722.975" y="-452.23" font-family="Times,serif" font-size="4.00">7a</text>
</g>
<!-- 7a&#45;&gt;pr_c3714fe9&#45;552a&#45;4cf3&#45;a908&#45;14ee4e72f5dc -->
<g id="edge29" class="edge"><title>7a&#45;&gt;pr_c3714fe9&#45;552a&#45;4cf3&#45;a908&#45;14ee4e72f5dc</title>
<path fill="none" stroke="black" d="M722.975,-435.254C722.975,-423.101 722.975,-406.036 722.975,-389.214"/>
<polygon fill="black" stroke="black" points="726.475,-388.817 722.975,-378.817 719.475,-388.817 726.475,-388.817"/>
</g>
<!-- RPS6KB1 -->
<g id="node20" class="node"><title>RPS6KB1</title>
<ellipse fill="none" stroke="black" cx="722.975" cy="-18.5616" rx="18.6233" ry="18.6233"/>
<text text-anchor="middle" x="722.975" y="-17.3616" font-family="Times,serif" font-size="4.00">RPS6KB1</text>
</g>
<!-- RPS6KB1&#45;&gt;pr_7fe641a2&#45;0eff&#45;49c6&#45;aa74&#45;810bba0efcde -->
<g id="edge30" class="edge"><title>RPS6KB1&#45;&gt;pr_7fe641a2&#45;0eff&#45;49c6&#45;aa74&#45;810bba0efcde</title>
<path fill="none" stroke="black" d="M728.154,-36.4464C728.988,-43.9299 729.49,-53.2209 729.66,-62.8802"/>
<polygon fill="black" stroke="black" points="726.16,-63.0389 729.717,-73.0191 733.16,-62.9996 726.16,-63.0389"/>
</g>
<!-- pr_7fe641a2&#45;0eff&#45;49c6&#45;aa74&#45;810bba0efcde&#45;&gt;RPS6KB1 -->
<g id="edge31" class="edge"><title>pr_7fe641a2&#45;0eff&#45;49c6&#45;aa74&#45;810bba0efcde&#45;&gt;RPS6KB1</title>
<path fill="none" stroke="black" d="M716.233,-73.0191C716.176,-63.893 716.411,-54.6512 716.937,-46.4772"/>
<polygon fill="black" stroke="black" points="720.43,-46.7086 717.796,-36.4464 713.455,-46.1112 720.43,-46.7086"/>
</g>
<!-- TGFB -->
<g id="node23" class="node"><title>TGFB</title>
<ellipse fill="none" stroke="black" cx="573.975" cy="-681.614" rx="18" ry="18"/>
<text text-anchor="middle" x="573.975" y="-680.414" font-family="Times,serif" font-size="4.00">TGFB</text>
</g>
<!-- TGFB&#45;&gt;pr_4fe324fa&#45;c25b&#45;4e8a&#45;b773&#45;e15b99c013ef -->
<g id="edge32" class="edge"><title>TGFB&#45;&gt;pr_4fe324fa&#45;c25b&#45;4e8a&#45;b773&#45;e15b99c013ef</title>
<path fill="none" stroke="black" d="M578.433,-663.771C580.455,-656.132 582.978,-646.601 585.597,-636.707"/>
<polygon fill="black" stroke="black" points="589.058,-637.311 588.233,-626.748 582.291,-635.52 589.058,-637.311"/>
</g>
<!-- pr_4fe324fa&#45;c25b&#45;4e8a&#45;b773&#45;e15b99c013ef&#45;&gt;TGFB/TGFBR -->
<g id="edge33" class="edge"><title>pr_4fe324fa&#45;c25b&#45;4e8a&#45;b773&#45;e15b99c013ef&#45;&gt;TGFB/TGFBR</title>
<path fill="none" stroke="black" d="M600.975,-528.323C600.975,-514.149 600.975,-499.012 600.975,-486.152"/>
<polygon fill="black" stroke="black" points="604.475,-485.958 600.975,-475.958 597.475,-485.958 604.475,-485.958"/>
</g>
<!-- TGFBR2 -->
<g id="node25" class="node"><title>TGFBR2</title>
<ellipse fill="none" stroke="black" cx="627.975" cy="-681.614" rx="18" ry="18"/>
<text text-anchor="middle" x="627.975" y="-680.414" font-family="Times,serif" font-size="4.00">TGFBR2</text>
</g>
<!-- TGFBR2&#45;&gt;pr_4fe324fa&#45;c25b&#45;4e8a&#45;b773&#45;e15b99c013ef -->
<g id="edge34" class="edge"><title>TGFBR2&#45;&gt;pr_4fe324fa&#45;c25b&#45;4e8a&#45;b773&#45;e15b99c013ef</title>
<path fill="none" stroke="black" d="M623.516,-663.771C621.494,-656.132 618.971,-646.601 616.352,-636.707"/>
<polygon fill="black" stroke="black" points="619.659,-635.52 613.716,-626.748 612.892,-637.311 619.659,-635.52"/>
</g>
<!-- LTBP1 -->
<g id="node26" class="node"><title>LTBP1</title>
<ellipse fill="none" stroke="black" cx="681.975" cy="-681.614" rx="18" ry="18"/>
<text text-anchor="middle" x="681.975" y="-680.414" font-family="Times,serif" font-size="4.00">LTBP1</text>
</g>
<!-- LTBP1&#45;&gt;pr_4fe324fa&#45;c25b&#45;4e8a&#45;b773&#45;e15b99c013ef -->
<g id="edge35" class="edge"><title>LTBP1&#45;&gt;pr_4fe324fa&#45;c25b&#45;4e8a&#45;b773&#45;e15b99c013ef</title>
<path fill="none" stroke="black" d="M671.051,-666.858C664.25,-658.293 655.001,-646.647 645.456,-634.627"/>
<polygon fill="black" stroke="black" points="648.122,-632.356 639.162,-626.702 642.64,-636.709 648.122,-632.356"/>
</g>
<!-- 8 -->
<g id="node27" class="node"><title>8</title>
<ellipse fill="none" stroke="black" cx="519.975" cy="-681.614" rx="18" ry="18"/>
<text text-anchor="middle" x="519.975" y="-680.414" font-family="Times,serif" font-size="4.00">8</text>
</g>
<!-- 8&#45;&gt;pr_4fe324fa&#45;c25b&#45;4e8a&#45;b773&#45;e15b99c013ef -->
<g id="edge36" class="edge"><title>8&#45;&gt;pr_4fe324fa&#45;c25b&#45;4e8a&#45;b773&#45;e15b99c013ef</title>
<path fill="none" stroke="black" d="M530.899,-666.858C537.7,-658.293 546.948,-646.647 556.494,-634.627"/>
<polygon fill="black" stroke="black" points="559.309,-636.709 562.787,-626.702 553.828,-632.356 559.309,-636.709"/>
</g>
<!-- ORF10 -->
<g id="node28" class="node"><title>ORF10</title>
<ellipse fill="none" stroke="black" cx="796.975" cy="-681.614" rx="18" ry="18"/>
<text text-anchor="middle" x="796.975" y="-680.414" font-family="Times,serif" font-size="4.00">ORF10</text>
</g>
<!-- pr_1f173991&#45;10ae&#45;42d8&#45;a800&#45;cad35a34e627 -->
<g id="node29" class="node"><title>pr_1f173991&#45;10ae&#45;42d8&#45;a800&#45;cad35a34e627</title>
<polygon fill="none" stroke="black" points="846.975,-627.614 746.975,-627.614 746.975,-527.614 846.975,-527.614 846.975,-627.614"/>
<text text-anchor="middle" x="796.975" y="-576.414" font-family="Times,serif" font-size="4.00">pr_1f173991&#45;10ae&#45;42d8&#45;a800&#45;cad35a34e627</text>
</g>
<!-- ORF10&#45;&gt;pr_1f173991&#45;10ae&#45;42d8&#45;a800&#45;cad35a34e627 -->
<g id="edge37" class="edge"><title>ORF10&#45;&gt;pr_1f173991&#45;10ae&#45;42d8&#45;a800&#45;cad35a34e627</title>
<path fill="none" stroke="black" d="M796.975,-663.311C796.975,-656.048 796.975,-647.135 796.975,-637.848"/>
<polygon fill="black" stroke="black" points="800.475,-637.683 796.975,-627.683 793.475,-637.683 800.475,-637.683"/>
</g>
<!-- E3 ubiquitin ligase complex -->
<g id="node30" class="node"><title>E3 ubiquitin ligase complex</title>
<ellipse fill="none" stroke="black" cx="796.975" cy="-453.43" rx="38.3684" ry="38.3684"/>
<text text-anchor="middle" x="796.975" y="-452.23" font-family="Times,serif" font-size="4.00">E3 ubiquitin ligase complex</text>
</g>
<!-- pr_1f173991&#45;10ae&#45;42d8&#45;a800&#45;cad35a34e627&#45;&gt;E3 ubiquitin ligase complex -->
<g id="edge38" class="edge"><title>pr_1f173991&#45;10ae&#45;42d8&#45;a800&#45;cad35a34e627&#45;&gt;E3 ubiquitin ligase complex</title>
<path fill="none" stroke="black" d="M790.337,-527.269C790.172,-518.699 790.189,-509.809 790.39,-501.308"/>
<polygon fill="black" stroke="black" points="793.892,-501.289 790.726,-491.178 786.896,-501.057 793.892,-501.289"/>
</g>
<!-- E3 ubiquitin ligase complex&#45;&gt;pr_1f173991&#45;10ae&#45;42d8&#45;a800&#45;cad35a34e627 -->
<g id="edge39" class="edge"><title>E3 ubiquitin ligase complex&#45;&gt;pr_1f173991&#45;10ae&#45;42d8&#45;a800&#45;cad35a34e627</title>
<path fill="none" stroke="black" d="M803.224,-491.178C803.578,-499.335 803.744,-508.184 803.723,-516.992"/>
<polygon fill="black" stroke="black" points="800.22,-517.232 803.613,-527.269 807.22,-517.307 800.22,-517.232"/>
</g>
</g>
</svg>
