<?xml version="1.0" encoding="UTF-8" standalone="no"?>
<!DOCTYPE svg PUBLIC "-//W3C//DTD SVG 1.1//EN"
 "http://www.w3.org/Graphics/SVG/1.1/DTD/svg11.dtd">
<!-- Generated by graphviz version 2.38.0 (20140413.2041)
 -->
<!-- Title: G Pages: 1 -->
<svg width="855pt" height="711pt"
 viewBox="0.00 0.00 855.46 710.61" xmlns="http://www.w3.org/2000/svg" xmlns:xlink="http://www.w3.org/1999/xlink">
<g id="graph0" class="graph" transform="scale(1 1) rotate(0) translate(4 706.614)">
<title>G</title>
<polygon fill="white" stroke="none" points="-4,4 -4,-706.614 851.462,-706.614 851.462,4 -4,4"/>
<!-- SMAD1/5/8 -->
<g id="node1" class="node"><title>SMAD1/5/8</title>
<ellipse fill="none" stroke="black" cx="41.9622" cy="-455.43" rx="20.3062" ry="20.3062"/>
<text text-anchor="middle" x="41.9622" y="-454.23" font-family="Times,serif" font-size="4.00">SMAD1/5/8</text>
</g>
<!-- pr_5541f294&#45;54f5&#45;4eed&#45;a2dd&#45;fa0167920852 -->
<g id="node2" class="node"><title>pr_5541f294&#45;54f5&#45;4eed&#45;a2dd&#45;fa0167920852</title>
<polygon fill="none" stroke="black" points="186.962,-380.746 88.9622,-380.746 88.9622,-282.746 186.962,-282.746 186.962,-380.746"/>
<text text-anchor="middle" x="137.962" y="-330.546" font-family="Times,serif" font-size="4.00">pr_5541f294&#45;54f5&#45;4eed&#45;a2dd&#45;fa0167920852</text>
</g>
<!-- SMAD1/5/8&#45;&gt;pr_5541f294&#45;54f5&#45;4eed&#45;a2dd&#45;fa0167920852 -->
<g id="edge1" class="edge"><title>SMAD1/5/8&#45;&gt;pr_5541f294&#45;54f5&#45;4eed&#45;a2dd&#45;fa0167920852</title>
<path fill="none" stroke="black" d="M47.8345,-435.872C52.0318,-429.916 57.2053,-423.295 61.9622,-417.246 69.1954,-408.048 76.8902,-398.305 84.5211,-388.831"/>
<polygon fill="black" stroke="black" points="87.3278,-390.926 90.9046,-380.954 81.8893,-386.519 87.3278,-390.926"/>
</g>
<!-- pr_5541f294&#45;54f5&#45;4eed&#45;a2dd&#45;fa0167920852&#45;&gt;SMAD1/5/8 -->
<g id="edge2" class="edge"><title>pr_5541f294&#45;54f5&#45;4eed&#45;a2dd&#45;fa0167920852&#45;&gt;SMAD1/5/8</title>
<path fill="none" stroke="black" d="M108.355,-380.954C99.2355,-392.806 89.2206,-405.473 79.9622,-417.246 75.2306,-423.263 70.0868,-429.845 65.0246,-435.777"/>
<polygon fill="black" stroke="black" points="62.3009,-433.571 58.2185,-443.348 67.5067,-438.251 62.3009,-433.571"/>
</g>
<!-- BAMBI -->
<g id="node3" class="node"><title>BAMBI</title>
<ellipse fill="none" stroke="black" cx="421.962" cy="-684.614" rx="18" ry="18"/>
<text text-anchor="middle" x="421.962" y="-683.414" font-family="Times,serif" font-size="4.00">BAMBI</text>
</g>
<!-- BAMBI&#45;&gt;pr_5541f294&#45;54f5&#45;4eed&#45;a2dd&#45;fa0167920852 -->
<g id="edge3" class="edge"><title>BAMBI&#45;&gt;pr_5541f294&#45;54f5&#45;4eed&#45;a2dd&#45;fa0167920852</title>
<path fill="none" stroke="black" d="M404.129,-681.861C337.874,-674.277 104.985,-637.83 12.9622,-493.614 -5.295,-465.001 -2.95679,-447.223 12.9622,-417.246 27.3043,-390.239 54.5585,-370.292 79.9667,-356.582"/>
<polygon fill="black" stroke="black" points="81.5748,-359.691 88.8527,-351.991 78.3618,-353.472 81.5748,-359.691"/>
</g>
<!-- pr_09289f47&#45;c349&#45;44e1&#45;a864&#45;73b1baef160d -->
<g id="node10" class="node"><title>pr_09289f47&#45;c349&#45;44e1&#45;a864&#45;73b1baef160d</title>
<polygon fill="none" stroke="black" points="421.462,-381.246 322.462,-381.246 322.462,-282.246 421.462,-282.246 421.462,-381.246"/>
<text text-anchor="middle" x="371.962" y="-330.546" font-family="Times,serif" font-size="4.00">pr_09289f47&#45;c349&#45;44e1&#45;a864&#45;73b1baef160d</text>
</g>
<!-- BAMBI&#45;&gt;pr_09289f47&#45;c349&#45;44e1&#45;a864&#45;73b1baef160d -->
<g id="edge4" class="edge"><title>BAMBI&#45;&gt;pr_09289f47&#45;c349&#45;44e1&#45;a864&#45;73b1baef160d</title>
<path fill="none" stroke="black" d="M419.551,-666.691C412.547,-617.544 391.966,-473.118 380.293,-391.203"/>
<polygon fill="black" stroke="black" points="383.756,-390.697 378.88,-381.291 376.826,-391.685 383.756,-390.697"/>
</g>
<!-- pr_f73706f7&#45;8e5a&#45;4fe8&#45;bca2&#45;5cf531e9e3da -->
<g id="node22" class="node"><title>pr_f73706f7&#45;8e5a&#45;4fe8&#45;bca2&#45;5cf531e9e3da</title>
<polygon fill="none" stroke="black" points="537.962,-380.746 439.962,-380.746 439.962,-282.746 537.962,-282.746 537.962,-380.746"/>
<text text-anchor="middle" x="488.962" y="-330.546" font-family="Times,serif" font-size="4.00">pr_f73706f7&#45;8e5a&#45;4fe8&#45;bca2&#45;5cf531e9e3da</text>
</g>
<!-- BAMBI&#45;&gt;pr_f73706f7&#45;8e5a&#45;4fe8&#45;bca2&#45;5cf531e9e3da -->
<g id="edge5" class="edge"><title>BAMBI&#45;&gt;pr_f73706f7&#45;8e5a&#45;4fe8&#45;bca2&#45;5cf531e9e3da</title>
<path fill="none" stroke="black" d="M431.126,-668.576C449.547,-637.361 490.536,-562.676 504.962,-493.614 511.974,-460.045 508.648,-421.873 503.254,-391.14"/>
<polygon fill="black" stroke="black" points="506.64,-390.204 501.358,-381.02 499.76,-391.493 506.64,-390.204"/>
</g>
<!-- pr_c9d9f9f3&#45;ee8a&#45;4a58&#45;ae54&#45;d38f54c6b72e -->
<g id="node24" class="node"><title>pr_c9d9f9f3&#45;ee8a&#45;4a58&#45;ae54&#45;d38f54c6b72e</title>
<polygon fill="none" stroke="black" points="649.962,-629.114 551.962,-629.114 551.962,-531.114 649.962,-531.114 649.962,-629.114"/>
<text text-anchor="middle" x="600.962" y="-578.914" font-family="Times,serif" font-size="4.00">pr_c9d9f9f3&#45;ee8a&#45;4a58&#45;ae54&#45;d38f54c6b72e</text>
</g>
<!-- BAMBI&#45;&gt;pr_c9d9f9f3&#45;ee8a&#45;4a58&#45;ae54&#45;d38f54c6b72e -->
<g id="edge6" class="edge"><title>BAMBI&#45;&gt;pr_c9d9f9f3&#45;ee8a&#45;4a58&#45;ae54&#45;d38f54c6b72e</title>
<path fill="none" stroke="black" d="M438.723,-677.413C461.854,-668.536 504.496,-651.007 537.962,-630.614 539.699,-629.555 541.444,-628.456 543.189,-627.324"/>
<polygon fill="black" stroke="black" points="545.571,-629.938 551.889,-621.432 541.646,-624.142 545.571,-629.938"/>
</g>
<!-- BMPR1/2/ACTR2 -->
<g id="node4" class="node"><title>BMPR1/2/ACTR2</title>
<ellipse fill="none" stroke="black" cx="106.962" cy="-455.43" rx="26.533" ry="26.533"/>
<text text-anchor="middle" x="106.962" y="-454.23" font-family="Times,serif" font-size="4.00">BMPR1/2/ACTR2</text>
</g>
<!-- BMPR1/2/ACTR2&#45;&gt;pr_5541f294&#45;54f5&#45;4eed&#45;a2dd&#45;fa0167920852 -->
<g id="edge7" class="edge"><title>BMPR1/2/ACTR2&#45;&gt;pr_5541f294&#45;54f5&#45;4eed&#45;a2dd&#45;fa0167920852</title>
<path fill="none" stroke="black" d="M113.31,-429.512C116.19,-418.21 119.725,-404.331 123.211,-390.65"/>
<polygon fill="black" stroke="black" points="126.652,-391.318 125.729,-380.764 119.869,-389.59 126.652,-391.318"/>
</g>
<!-- MAPK3 -->
<g id="node5" class="node"><title>MAPK3</title>
<ellipse fill="none" stroke="black" cx="223.962" cy="-455.43" rx="18" ry="18"/>
<text text-anchor="middle" x="223.962" y="-454.23" font-family="Times,serif" font-size="4.00">MAPK3</text>
</g>
<!-- MAPK3&#45;&gt;pr_5541f294&#45;54f5&#45;4eed&#45;a2dd&#45;fa0167920852 -->
<g id="edge8" class="edge"><title>MAPK3&#45;&gt;pr_5541f294&#45;54f5&#45;4eed&#45;a2dd&#45;fa0167920852</title>
<path fill="none" stroke="black" d="M213.759,-439.993C204.767,-427.271 191.065,-407.883 177.771,-389.073"/>
<polygon fill="black" stroke="black" points="180.543,-386.931 171.913,-380.784 174.827,-390.971 180.543,-386.931"/>
</g>
<!-- MAPK3&#45;&gt;pr_09289f47&#45;c349&#45;44e1&#45;a864&#45;73b1baef160d -->
<g id="edge9" class="edge"><title>MAPK3&#45;&gt;pr_09289f47&#45;c349&#45;44e1&#45;a864&#45;73b1baef160d</title>
<path fill="none" stroke="black" d="M232.942,-439.776C237.771,-432.542 244.131,-423.953 250.962,-417.246 269.684,-398.867 292.786,-381.672 313.77,-367.654"/>
<polygon fill="black" stroke="black" points="315.87,-370.462 322.306,-362.046 312.026,-364.612 315.87,-370.462"/>
</g>
<!-- Orf3a -->
<g id="node6" class="node"><title>Orf3a</title>
<ellipse fill="none" stroke="black" cx="423.962" cy="-455.43" rx="18" ry="18"/>
<text text-anchor="middle" x="423.962" y="-454.23" font-family="Times,serif" font-size="4.00">Orf3a</text>
</g>
<!-- Orf3a&#45;&gt;pr_5541f294&#45;54f5&#45;4eed&#45;a2dd&#45;fa0167920852 -->
<g id="edge10" class="edge"><title>Orf3a&#45;&gt;pr_5541f294&#45;54f5&#45;4eed&#45;a2dd&#45;fa0167920852</title>
<path fill="none" stroke="black" d="M409.081,-445.037C396.13,-437.077 376.703,-425.651 358.962,-417.246 305.356,-391.851 241.907,-368.219 196.776,-352.442"/>
<polygon fill="black" stroke="black" points="197.744,-349.073 187.149,-349.098 195.447,-355.685 197.744,-349.073"/>
</g>
<!-- Orf3a&#45;&gt;pr_09289f47&#45;c349&#45;44e1&#45;a864&#45;73b1baef160d -->
<g id="edge11" class="edge"><title>Orf3a&#45;&gt;pr_09289f47&#45;c349&#45;44e1&#45;a864&#45;73b1baef160d</title>
<path fill="none" stroke="black" d="M417.164,-438.522C411.915,-426.238 404.305,-408.431 396.822,-390.921"/>
<polygon fill="black" stroke="black" points="399.842,-389.08 392.694,-381.26 393.405,-391.831 399.842,-389.08"/>
</g>
<!-- Orf3a&#45;&gt;pr_f73706f7&#45;8e5a&#45;4fe8&#45;bca2&#45;5cf531e9e3da -->
<g id="edge12" class="edge"><title>Orf3a&#45;&gt;pr_f73706f7&#45;8e5a&#45;4fe8&#45;bca2&#45;5cf531e9e3da</title>
<path fill="none" stroke="black" d="M432.195,-439.019C438.917,-426.433 448.859,-407.822 458.552,-389.677"/>
<polygon fill="black" stroke="black" points="461.65,-391.304 463.275,-380.835 455.476,-388.006 461.65,-391.304"/>
</g>
<!-- Nsp7b -->
<g id="node7" class="node"><title>Nsp7b</title>
<ellipse fill="none" stroke="black" cx="277.962" cy="-455.43" rx="18" ry="18"/>
<text text-anchor="middle" x="277.962" y="-454.23" font-family="Times,serif" font-size="4.00">Nsp7b</text>
</g>
<!-- Nsp7b&#45;&gt;pr_5541f294&#45;54f5&#45;4eed&#45;a2dd&#45;fa0167920852 -->
<g id="edge13" class="edge"><title>Nsp7b&#45;&gt;pr_5541f294&#45;54f5&#45;4eed&#45;a2dd&#45;fa0167920852</title>
<path fill="none" stroke="black" d="M268.889,-439.869C264.037,-432.659 257.684,-424.063 250.962,-417.246 234.257,-400.305 213.962,-384.055 195.205,-370.411"/>
<polygon fill="black" stroke="black" points="197.164,-367.508 186.996,-364.531 193.088,-373.199 197.164,-367.508"/>
</g>
<!-- Nsp7b&#45;&gt;pr_09289f47&#45;c349&#45;44e1&#45;a864&#45;73b1baef160d -->
<g id="edge14" class="edge"><title>Nsp7b&#45;&gt;pr_09289f47&#45;c349&#45;44e1&#45;a864&#45;73b1baef160d</title>
<path fill="none" stroke="black" d="M288.08,-440.201C293.09,-433.231 299.271,-424.745 304.962,-417.246 311.791,-408.249 319.121,-398.8 326.339,-389.612"/>
<polygon fill="black" stroke="black" points="329.195,-391.642 332.637,-381.622 323.697,-387.309 329.195,-391.642"/>
</g>
<!-- E -->
<g id="node8" class="node"><title>E</title>
<ellipse fill="none" stroke="black" cx="169.962" cy="-455.43" rx="18" ry="18"/>
<text text-anchor="middle" x="169.962" y="-454.23" font-family="Times,serif" font-size="4.00">E</text>
</g>
<!-- E&#45;&gt;pr_5541f294&#45;54f5&#45;4eed&#45;a2dd&#45;fa0167920852 -->
<g id="edge15" class="edge"><title>E&#45;&gt;pr_5541f294&#45;54f5&#45;4eed&#45;a2dd&#45;fa0167920852</title>
<path fill="none" stroke="black" d="M165.58,-437.766C162.36,-425.523 157.779,-408.103 153.271,-390.961"/>
<polygon fill="black" stroke="black" points="156.565,-389.723 150.637,-380.942 149.795,-391.503 156.565,-389.723"/>
</g>
<!-- SMAD2/3 -->
<g id="node9" class="node"><title>SMAD2/3</title>
<ellipse fill="none" stroke="black" cx="371.962" cy="-227.685" rx="18.6233" ry="18.6233"/>
<text text-anchor="middle" x="371.962" y="-226.485" font-family="Times,serif" font-size="4.00">SMAD2/3</text>
</g>
<!-- SMAD2/3&#45;&gt;pr_09289f47&#45;c349&#45;44e1&#45;a864&#45;73b1baef160d -->
<g id="edge16" class="edge"><title>SMAD2/3&#45;&gt;pr_09289f47&#45;c349&#45;44e1&#45;a864&#45;73b1baef160d</title>
<path fill="none" stroke="black" d="M377.129,-245.538C377.963,-253.012 378.467,-262.295 378.642,-271.959"/>
<polygon fill="black" stroke="black" points="375.143,-272.129 378.706,-282.107 382.143,-272.085 375.143,-272.129"/>
</g>
<!-- pr_09289f47&#45;c349&#45;44e1&#45;a864&#45;73b1baef160d&#45;&gt;SMAD2/3 -->
<g id="edge17" class="edge"><title>pr_09289f47&#45;c349&#45;44e1&#45;a864&#45;73b1baef160d&#45;&gt;SMAD2/3</title>
<path fill="none" stroke="black" d="M365.219,-282.107C365.168,-272.968 365.407,-263.727 365.935,-255.559"/>
<polygon fill="black" stroke="black" points="369.427,-255.801 366.796,-245.538 362.453,-255.202 369.427,-255.801"/>
</g>
<!-- TGFB/TGFBR -->
<g id="node11" class="node"><title>TGFB/TGFBR</title>
<ellipse fill="none" stroke="black" cx="600.962" cy="-455.43" rx="22.05" ry="22.05"/>
<text text-anchor="middle" x="600.962" y="-454.23" font-family="Times,serif" font-size="4.00">TGFB/TGFBR</text>
</g>
<!-- TGFB/TGFBR&#45;&gt;pr_09289f47&#45;c349&#45;44e1&#45;a864&#45;73b1baef160d -->
<g id="edge18" class="edge"><title>TGFB/TGFBR&#45;&gt;pr_09289f47&#45;c349&#45;44e1&#45;a864&#45;73b1baef160d</title>
<path fill="none" stroke="black" d="M580.562,-446.485C541.482,-431.13 457.579,-397.465 430.962,-381.246 430.771,-381.13 430.58,-381.013 430.389,-380.895"/>
<polygon fill="black" stroke="black" points="432.077,-377.817 421.793,-375.269 428.243,-383.674 432.077,-377.817"/>
</g>
<!-- pr_31e7d3b1&#45;0b34&#45;4e56&#45;80ef&#45;fa556b4ecbd8 -->
<g id="node15" class="node"><title>pr_31e7d3b1&#45;0b34&#45;4e56&#45;80ef&#45;fa556b4ecbd8</title>
<polygon fill="none" stroke="black" points="655.462,-381.246 556.462,-381.246 556.462,-282.246 655.462,-282.246 655.462,-381.246"/>
<text text-anchor="middle" x="605.962" y="-330.546" font-family="Times,serif" font-size="4.00">pr_31e7d3b1&#45;0b34&#45;4e56&#45;80ef&#45;fa556b4ecbd8</text>
</g>
<!-- TGFB/TGFBR&#45;&gt;pr_31e7d3b1&#45;0b34&#45;4e56&#45;80ef&#45;fa556b4ecbd8 -->
<g id="edge19" class="edge"><title>TGFB/TGFBR&#45;&gt;pr_31e7d3b1&#45;0b34&#45;4e56&#45;80ef&#45;fa556b4ecbd8</title>
<path fill="none" stroke="black" d="M601.845,-432.955C602.323,-421.314 602.94,-406.303 603.55,-391.46"/>
<polygon fill="black" stroke="black" points="607.055,-391.391 603.969,-381.255 600.061,-391.103 607.055,-391.391"/>
</g>
<!-- pr_63cdaefb&#45;006c&#45;42cb&#45;b534&#45;3efc8dbcc493 -->
<g id="node18" class="node"><title>pr_63cdaefb&#45;006c&#45;42cb&#45;b534&#45;3efc8dbcc493</title>
<polygon fill="none" stroke="black" points="772.462,-381.246 673.462,-381.246 673.462,-282.246 772.462,-282.246 772.462,-381.246"/>
<text text-anchor="middle" x="722.962" y="-330.546" font-family="Times,serif" font-size="4.00">pr_63cdaefb&#45;006c&#45;42cb&#45;b534&#45;3efc8dbcc493</text>
</g>
<!-- TGFB/TGFBR&#45;&gt;pr_63cdaefb&#45;006c&#45;42cb&#45;b534&#45;3efc8dbcc493 -->
<g id="edge20" class="edge"><title>TGFB/TGFBR&#45;&gt;pr_63cdaefb&#45;006c&#45;42cb&#45;b534&#45;3efc8dbcc493</title>
<path fill="none" stroke="black" d="M614.411,-437.38C619.705,-430.916 625.949,-423.59 631.962,-417.246 642.548,-406.08 654.303,-394.572 665.754,-383.781"/>
<polygon fill="black" stroke="black" points="668.303,-386.19 673.22,-376.805 663.524,-381.075 668.303,-386.19"/>
</g>
<!-- ACVR1 -->
<g id="node12" class="node"><title>ACVR1</title>
<ellipse fill="none" stroke="black" cx="331.962" cy="-455.43" rx="18" ry="18"/>
<text text-anchor="middle" x="331.962" y="-454.23" font-family="Times,serif" font-size="4.00">ACVR1</text>
</g>
<!-- ACVR1&#45;&gt;pr_09289f47&#45;c349&#45;44e1&#45;a864&#45;73b1baef160d -->
<g id="edge21" class="edge"><title>ACVR1&#45;&gt;pr_09289f47&#45;c349&#45;44e1&#45;a864&#45;73b1baef160d</title>
<path fill="none" stroke="black" d="M337.357,-438.019C341.387,-425.758 347.158,-408.204 352.834,-390.936"/>
<polygon fill="black" stroke="black" points="356.168,-392 355.966,-381.407 349.519,-389.814 356.168,-392"/>
</g>
<!-- ACVR1B -->
<g id="node13" class="node"><title>ACVR1B</title>
<ellipse fill="none" stroke="black" cx="477.962" cy="-455.43" rx="18.0625" ry="18.0625"/>
<text text-anchor="middle" x="477.962" y="-454.23" font-family="Times,serif" font-size="4.00">ACVR1B</text>
</g>
<!-- ACVR1B&#45;&gt;pr_09289f47&#45;c349&#45;44e1&#45;a864&#45;73b1baef160d -->
<g id="edge22" class="edge"><title>ACVR1B&#45;&gt;pr_09289f47&#45;c349&#45;44e1&#45;a864&#45;73b1baef160d</title>
<path fill="none" stroke="black" d="M468.107,-439.994C463.158,-432.975 456.954,-424.507 450.962,-417.246 443.196,-407.835 434.666,-398.131 426.173,-388.804"/>
<polygon fill="black" stroke="black" points="428.728,-386.412 419.385,-381.417 423.574,-391.148 428.728,-386.412"/>
</g>
<!-- RHOA -->
<g id="node14" class="node"><title>RHOA</title>
<ellipse fill="none" stroke="black" cx="605.962" cy="-227.685" rx="18" ry="18"/>
<text text-anchor="middle" x="605.962" y="-226.485" font-family="Times,serif" font-size="4.00">RHOA</text>
</g>
<!-- RHOA&#45;&gt;pr_31e7d3b1&#45;0b34&#45;4e56&#45;80ef&#45;fa556b4ecbd8 -->
<g id="edge23" class="edge"><title>RHOA&#45;&gt;pr_31e7d3b1&#45;0b34&#45;4e56&#45;80ef&#45;fa556b4ecbd8</title>
<path fill="none" stroke="black" d="M611.075,-245.068C611.937,-252.581 612.458,-261.991 612.64,-271.801"/>
<polygon fill="black" stroke="black" points="609.142,-272.129 612.706,-282.107 616.141,-272.084 609.142,-272.129"/>
</g>
<!-- pr_31e7d3b1&#45;0b34&#45;4e56&#45;80ef&#45;fa556b4ecbd8&#45;&gt;RHOA -->
<g id="edge24" class="edge"><title>pr_31e7d3b1&#45;0b34&#45;4e56&#45;80ef&#45;fa556b4ecbd8&#45;&gt;RHOA</title>
<path fill="none" stroke="black" d="M599.219,-282.107C599.168,-272.825 599.415,-263.438 599.96,-255.176"/>
<polygon fill="black" stroke="black" points="603.46,-255.337 600.849,-245.068 596.486,-254.723 603.46,-255.337"/>
</g>
<!-- Nsp7 -->
<g id="node16" class="node"><title>Nsp7</title>
<ellipse fill="none" stroke="black" cx="658.962" cy="-455.43" rx="18" ry="18"/>
<text text-anchor="middle" x="658.962" y="-454.23" font-family="Times,serif" font-size="4.00">Nsp7</text>
</g>
<!-- Nsp7&#45;&gt;pr_31e7d3b1&#45;0b34&#45;4e56&#45;80ef&#45;fa556b4ecbd8 -->
<g id="edge25" class="edge"><title>Nsp7&#45;&gt;pr_31e7d3b1&#45;0b34&#45;4e56&#45;80ef&#45;fa556b4ecbd8</title>
<path fill="none" stroke="black" d="M652.033,-438.522C646.633,-426.124 638.784,-408.101 631.089,-390.434"/>
<polygon fill="black" stroke="black" points="634.295,-389.03 627.092,-381.26 627.877,-391.825 634.295,-389.03"/>
</g>
<!-- PP2A -->
<g id="node17" class="node"><title>PP2A</title>
<ellipse fill="none" stroke="black" cx="722.962" cy="-227.685" rx="18" ry="18"/>
<text text-anchor="middle" x="722.962" y="-226.485" font-family="Times,serif" font-size="4.00">PP2A</text>
</g>
<!-- PP2A&#45;&gt;pr_63cdaefb&#45;006c&#45;42cb&#45;b534&#45;3efc8dbcc493 -->
<g id="edge26" class="edge"><title>PP2A&#45;&gt;pr_63cdaefb&#45;006c&#45;42cb&#45;b534&#45;3efc8dbcc493</title>
<path fill="none" stroke="black" d="M728.075,-245.068C728.937,-252.581 729.458,-261.991 729.64,-271.801"/>
<polygon fill="black" stroke="black" points="726.142,-272.129 729.706,-282.107 733.141,-272.084 726.142,-272.129"/>
</g>
<!-- pr_18c2ed83&#45;24cc&#45;49e8&#45;abf6&#45;464698a4ed22 -->
<g id="node21" class="node"><title>pr_18c2ed83&#45;24cc&#45;49e8&#45;abf6&#45;464698a4ed22</title>
<polygon fill="none" stroke="black" points="772.962,-173.123 672.962,-173.123 672.962,-73.1231 772.962,-73.1231 772.962,-173.123"/>
<text text-anchor="middle" x="722.962" y="-121.923" font-family="Times,serif" font-size="4.00">pr_18c2ed83&#45;24cc&#45;49e8&#45;abf6&#45;464698a4ed22</text>
</g>
<!-- PP2A&#45;&gt;pr_18c2ed83&#45;24cc&#45;49e8&#45;abf6&#45;464698a4ed22 -->
<g id="edge27" class="edge"><title>PP2A&#45;&gt;pr_18c2ed83&#45;24cc&#45;49e8&#45;abf6&#45;464698a4ed22</title>
<path fill="none" stroke="black" d="M722.962,-209.286C722.962,-201.984 722.962,-193.021 722.962,-183.683"/>
<polygon fill="black" stroke="black" points="726.462,-183.463 722.962,-173.463 719.462,-183.463 726.462,-183.463"/>
</g>
<!-- pr_63cdaefb&#45;006c&#45;42cb&#45;b534&#45;3efc8dbcc493&#45;&gt;PP2A -->
<g id="edge28" class="edge"><title>pr_63cdaefb&#45;006c&#45;42cb&#45;b534&#45;3efc8dbcc493&#45;&gt;PP2A</title>
<path fill="none" stroke="black" d="M716.219,-282.107C716.168,-272.825 716.415,-263.438 716.96,-255.176"/>
<polygon fill="black" stroke="black" points="720.46,-255.337 717.849,-245.068 713.486,-254.723 720.46,-255.337"/>
</g>
<!-- Orf7a -->
<g id="node19" class="node"><title>Orf7a</title>
<ellipse fill="none" stroke="black" cx="722.962" cy="-455.43" rx="18" ry="18"/>
<text text-anchor="middle" x="722.962" y="-454.23" font-family="Times,serif" font-size="4.00">Orf7a</text>
</g>
<!-- Orf7a&#45;&gt;pr_63cdaefb&#45;006c&#45;42cb&#45;b534&#45;3efc8dbcc493 -->
<g id="edge29" class="edge"><title>Orf7a&#45;&gt;pr_63cdaefb&#45;006c&#45;42cb&#45;b534&#45;3efc8dbcc493</title>
<path fill="none" stroke="black" d="M722.962,-437.254C722.962,-425.21 722.962,-408.341 722.962,-391.665"/>
<polygon fill="black" stroke="black" points="726.462,-391.351 722.962,-381.351 719.462,-391.351 726.462,-391.351"/>
</g>
<!-- RPS6KB1 -->
<g id="node20" class="node"><title>RPS6KB1</title>
<ellipse fill="none" stroke="black" cx="722.962" cy="-18.5616" rx="18.6233" ry="18.6233"/>
<text text-anchor="middle" x="722.962" y="-17.3616" font-family="Times,serif" font-size="4.00">RPS6KB1</text>
</g>
<!-- RPS6KB1&#45;&gt;pr_18c2ed83&#45;24cc&#45;49e8&#45;abf6&#45;464698a4ed22 -->
<g id="edge30" class="edge"><title>RPS6KB1&#45;&gt;pr_18c2ed83&#45;24cc&#45;49e8&#45;abf6&#45;464698a4ed22</title>
<path fill="none" stroke="black" d="M728.168,-36.8564C728.967,-44.1994 729.456,-53.2334 729.635,-62.6456"/>
<polygon fill="black" stroke="black" points="726.137,-62.9699 729.707,-72.9451 733.137,-62.9208 726.137,-62.9699"/>
</g>
<!-- pr_18c2ed83&#45;24cc&#45;49e8&#45;abf6&#45;464698a4ed22&#45;&gt;RPS6KB1 -->
<g id="edge31" class="edge"><title>pr_18c2ed83&#45;24cc&#45;49e8&#45;abf6&#45;464698a4ed22&#45;&gt;RPS6KB1</title>
<path fill="none" stroke="black" d="M716.217,-72.9451C716.175,-64.0384 716.404,-55.0469 716.905,-47.0479"/>
<polygon fill="black" stroke="black" points="720.411,-47.1132 717.756,-36.8564 713.436,-46.5301 720.411,-47.1132"/>
</g>
<!-- TGFB1 -->
<g id="node23" class="node"><title>TGFB1</title>
<ellipse fill="none" stroke="black" cx="573.962" cy="-684.614" rx="18" ry="18"/>
<text text-anchor="middle" x="573.962" y="-683.414" font-family="Times,serif" font-size="4.00">TGFB1</text>
</g>
<!-- TGFB1&#45;&gt;pr_c9d9f9f3&#45;ee8a&#45;4a58&#45;ae54&#45;d38f54c6b72e -->
<g id="edge32" class="edge"><title>TGFB1&#45;&gt;pr_c9d9f9f3&#45;ee8a&#45;4a58&#45;ae54&#45;d38f54c6b72e</title>
<path fill="none" stroke="black" d="M578.421,-666.688C580.464,-658.932 583.018,-649.234 585.667,-639.181"/>
<polygon fill="black" stroke="black" points="589.058,-640.046 588.221,-629.484 582.289,-638.263 589.058,-640.046"/>
</g>
<!-- pr_c9d9f9f3&#45;ee8a&#45;4a58&#45;ae54&#45;d38f54c6b72e&#45;&gt;TGFB/TGFBR -->
<g id="edge33" class="edge"><title>pr_c9d9f9f3&#45;ee8a&#45;4a58&#45;ae54&#45;d38f54c6b72e&#45;&gt;TGFB/TGFBR</title>
<path fill="none" stroke="black" d="M600.962,-530.978C600.962,-516.608 600.962,-501.223 600.962,-488.183"/>
<polygon fill="black" stroke="black" points="604.462,-487.856 600.962,-477.856 597.462,-487.856 604.462,-487.856"/>
</g>
<!-- TGFBR -->
<g id="node25" class="node"><title>TGFBR</title>
<ellipse fill="none" stroke="black" cx="627.962" cy="-684.614" rx="18" ry="18"/>
<text text-anchor="middle" x="627.962" y="-683.414" font-family="Times,serif" font-size="4.00">TGFBR</text>
</g>
<!-- TGFBR&#45;&gt;pr_c9d9f9f3&#45;ee8a&#45;4a58&#45;ae54&#45;d38f54c6b72e -->
<g id="edge34" class="edge"><title>TGFBR&#45;&gt;pr_c9d9f9f3&#45;ee8a&#45;4a58&#45;ae54&#45;d38f54c6b72e</title>
<path fill="none" stroke="black" d="M623.504,-666.688C621.461,-658.932 618.906,-649.234 616.258,-639.181"/>
<polygon fill="black" stroke="black" points="619.636,-638.263 613.704,-629.484 612.867,-640.046 619.636,-638.263"/>
</g>
<!-- LTBP1 -->
<g id="node26" class="node"><title>LTBP1</title>
<ellipse fill="none" stroke="black" cx="681.962" cy="-684.614" rx="18" ry="18"/>
<text text-anchor="middle" x="681.962" y="-683.414" font-family="Times,serif" font-size="4.00">LTBP1</text>
</g>
<!-- LTBP1&#45;&gt;pr_c9d9f9f3&#45;ee8a&#45;4a58&#45;ae54&#45;d38f54c6b72e -->
<g id="edge35" class="edge"><title>LTBP1&#45;&gt;pr_c9d9f9f3&#45;ee8a&#45;4a58&#45;ae54&#45;d38f54c6b72e</title>
<path fill="none" stroke="black" d="M671.038,-669.79C664.237,-661.184 654.989,-649.481 645.443,-637.401"/>
<polygon fill="black" stroke="black" points="648.096,-635.113 639.15,-629.437 642.604,-639.453 648.096,-635.113"/>
</g>
<!-- Orf8 -->
<g id="node27" class="node"><title>Orf8</title>
<ellipse fill="none" stroke="black" cx="519.962" cy="-684.614" rx="18" ry="18"/>
<text text-anchor="middle" x="519.962" y="-683.414" font-family="Times,serif" font-size="4.00">Orf8</text>
</g>
<!-- Orf8&#45;&gt;pr_c9d9f9f3&#45;ee8a&#45;4a58&#45;ae54&#45;d38f54c6b72e -->
<g id="edge36" class="edge"><title>Orf8&#45;&gt;pr_c9d9f9f3&#45;ee8a&#45;4a58&#45;ae54&#45;d38f54c6b72e</title>
<path fill="none" stroke="black" d="M530.886,-669.79C537.688,-661.184 546.936,-649.481 556.482,-637.401"/>
<polygon fill="black" stroke="black" points="559.321,-639.453 562.775,-629.437 553.829,-635.113 559.321,-639.453"/>
</g>
<!-- Orf10 -->
<g id="node28" class="node"><title>Orf10</title>
<ellipse fill="none" stroke="black" cx="796.962" cy="-684.614" rx="18" ry="18"/>
<text text-anchor="middle" x="796.962" y="-683.414" font-family="Times,serif" font-size="4.00">Orf10</text>
</g>
<!-- pr_4aa35526&#45;3ee7&#45;411e&#45;b2c6&#45;a28ced4bc8c4 -->
<g id="node29" class="node"><title>pr_4aa35526&#45;3ee7&#45;411e&#45;b2c6&#45;a28ced4bc8c4</title>
<polygon fill="none" stroke="black" points="847.462,-630.614 746.462,-630.614 746.462,-529.614 847.462,-529.614 847.462,-630.614"/>
<text text-anchor="middle" x="796.962" y="-578.914" font-family="Times,serif" font-size="4.00">pr_4aa35526&#45;3ee7&#45;411e&#45;b2c6&#45;a28ced4bc8c4</text>
</g>
<!-- Orf10&#45;&gt;pr_4aa35526&#45;3ee7&#45;411e&#45;b2c6&#45;a28ced4bc8c4 -->
<g id="edge37" class="edge"><title>Orf10&#45;&gt;pr_4aa35526&#45;3ee7&#45;411e&#45;b2c6&#45;a28ced4bc8c4</title>
<path fill="none" stroke="black" d="M796.962,-666.226C796.962,-659.011 796.962,-650.176 796.962,-640.96"/>
<polygon fill="black" stroke="black" points="800.462,-640.867 796.962,-630.867 793.462,-640.867 800.462,-640.867"/>
</g>
<!-- E3 ubiquitin ligase complex -->
<g id="node30" class="node"><title>E3 ubiquitin ligase complex</title>
<ellipse fill="none" stroke="black" cx="796.962" cy="-455.43" rx="38.3684" ry="38.3684"/>
<text text-anchor="middle" x="796.962" y="-454.23" font-family="Times,serif" font-size="4.00">E3 ubiquitin ligase complex</text>
</g>
<!-- pr_4aa35526&#45;3ee7&#45;411e&#45;b2c6&#45;a28ced4bc8c4&#45;&gt;E3 ubiquitin ligase complex -->
<g id="edge38" class="edge"><title>pr_4aa35526&#45;3ee7&#45;411e&#45;b2c6&#45;a28ced4bc8c4&#45;&gt;E3 ubiquitin ligase complex</title>
<path fill="none" stroke="black" d="M790.324,-529.567C790.159,-520.962 790.177,-512.036 790.377,-503.5"/>
<polygon fill="black" stroke="black" points="793.881,-503.439 790.713,-493.329 786.885,-503.208 793.881,-503.439"/>
</g>
<!-- E3 ubiquitin ligase complex&#45;&gt;pr_4aa35526&#45;3ee7&#45;411e&#45;b2c6&#45;a28ced4bc8c4 -->
<g id="edge39" class="edge"><title>E3 ubiquitin ligase complex&#45;&gt;pr_4aa35526&#45;3ee7&#45;411e&#45;b2c6&#45;a28ced4bc8c4</title>
<path fill="none" stroke="black" d="M803.211,-493.329C803.569,-501.608 803.735,-510.597 803.71,-519.536"/>
<polygon fill="black" stroke="black" points="800.21,-519.529 803.6,-529.567 807.209,-519.606 800.21,-519.529"/>
</g>
</g>
</svg>
