<?xml version="1.0" encoding="UTF-8" standalone="no"?>
<!DOCTYPE svg PUBLIC "-//W3C//DTD SVG 1.1//EN"
 "http://www.w3.org/Graphics/SVG/1.1/DTD/svg11.dtd">
<!-- Generated by graphviz version 2.38.0 (20140413.2041)
 -->
<!-- Title: G Pages: 1 -->
<svg width="854pt" height="708pt"
 viewBox="0.00 0.00 853.97 707.61" xmlns="http://www.w3.org/2000/svg" xmlns:xlink="http://www.w3.org/1999/xlink">
<g id="graph0" class="graph" transform="scale(1 1) rotate(0) translate(4 703.614)">
<title>G</title>
<polygon fill="white" stroke="none" points="-4,4 -4,-703.614 849.975,-703.614 849.975,4 -4,4"/>
<!-- SMAD1/5/8 -->
<g id="node1" class="node"><title>SMAD1/5/8</title>
<ellipse fill="none" stroke="black" cx="41.9746" cy="-454.43" rx="20.3062" ry="20.3062"/>
<text text-anchor="middle" x="41.9746" y="-453.23" font-family="Times,serif" font-size="4.00">SMAD1/5/8</text>
</g>
<!-- pr_8191e748&#45;0bb0&#45;4e33&#45;9d5e&#45;edbb91f85a82 -->
<g id="node2" class="node"><title>pr_8191e748&#45;0bb0&#45;4e33&#45;9d5e&#45;edbb91f85a82</title>
<polygon fill="none" stroke="black" points="187.975,-380.246 87.9746,-380.246 87.9746,-280.246 187.975,-280.246 187.975,-380.246"/>
<text text-anchor="middle" x="137.975" y="-329.046" font-family="Times,serif" font-size="4.00">pr_8191e748&#45;0bb0&#45;4e33&#45;9d5e&#45;edbb91f85a82</text>
</g>
<!-- SMAD1/5/8&#45;&gt;pr_8191e748&#45;0bb0&#45;4e33&#45;9d5e&#45;edbb91f85a82 -->
<g id="edge1" class="edge"><title>SMAD1/5/8&#45;&gt;pr_8191e748&#45;0bb0&#45;4e33&#45;9d5e&#45;edbb91f85a82</title>
<path fill="none" stroke="black" d="M47.8573,-434.88C52.0551,-428.924 57.2263,-422.302 61.9746,-416.246 68.969,-407.326 76.3876,-397.889 83.7598,-388.675"/>
<polygon fill="black" stroke="black" points="86.6721,-390.639 90.2147,-380.654 81.2186,-386.25 86.6721,-390.639"/>
</g>
<!-- pr_8191e748&#45;0bb0&#45;4e33&#45;9d5e&#45;edbb91f85a82&#45;&gt;SMAD1/5/8 -->
<g id="edge2" class="edge"><title>pr_8191e748&#45;0bb0&#45;4e33&#45;9d5e&#45;edbb91f85a82&#45;&gt;SMAD1/5/8</title>
<path fill="none" stroke="black" d="M107.706,-380.654C98.7702,-392.316 89.0178,-404.712 79.9746,-416.246 75.2516,-422.27 70.1101,-428.854 65.0474,-434.785"/>
<polygon fill="black" stroke="black" points="62.3242,-432.579 58.2392,-442.354 67.5288,-437.26 62.3242,-432.579"/>
</g>
<!-- BAMBI -->
<g id="node3" class="node"><title>BAMBI</title>
<ellipse fill="none" stroke="black" cx="421.975" cy="-681.614" rx="18" ry="18"/>
<text text-anchor="middle" x="421.975" y="-680.414" font-family="Times,serif" font-size="4.00">BAMBI</text>
</g>
<!-- BAMBI&#45;&gt;pr_8191e748&#45;0bb0&#45;4e33&#45;9d5e&#45;edbb91f85a82 -->
<g id="edge3" class="edge"><title>BAMBI&#45;&gt;pr_8191e748&#45;0bb0&#45;4e33&#45;9d5e&#45;edbb91f85a82</title>
<path fill="none" stroke="black" d="M404.149,-678.948C337.921,-671.688 105.116,-636.376 12.9746,-492.614 -5.34025,-464.038 -2.90334,-446.244 12.9746,-416.246 27.0796,-389.598 53.7009,-369.748 78.7632,-355.963"/>
<polygon fill="black" stroke="black" points="80.6791,-358.909 87.9001,-351.157 77.4203,-352.714 80.6791,-358.909"/>
</g>
<!-- pr_133469ff&#45;cd09&#45;478f&#45;8027&#45;e272a61f889a -->
<g id="node10" class="node"><title>pr_133469ff&#45;cd09&#45;478f&#45;8027&#45;e272a61f889a</title>
<polygon fill="none" stroke="black" points="422.975,-379.246 324.975,-379.246 324.975,-281.246 422.975,-281.246 422.975,-379.246"/>
<text text-anchor="middle" x="373.975" y="-329.046" font-family="Times,serif" font-size="4.00">pr_133469ff&#45;cd09&#45;478f&#45;8027&#45;e272a61f889a</text>
</g>
<!-- BAMBI&#45;&gt;pr_133469ff&#45;cd09&#45;478f&#45;8027&#45;e272a61f889a -->
<g id="edge4" class="edge"><title>BAMBI&#45;&gt;pr_133469ff&#45;cd09&#45;478f&#45;8027&#45;e272a61f889a</title>
<path fill="none" stroke="black" d="M419.659,-663.763C412.934,-614.811 393.165,-470.927 381.961,-389.375"/>
<polygon fill="black" stroke="black" points="385.401,-388.696 380.572,-379.266 378.466,-389.649 385.401,-388.696"/>
</g>
<!-- pr_43fc9074&#45;6571&#45;431e&#45;918b&#45;21dc090ceff3 -->
<g id="node22" class="node"><title>pr_43fc9074&#45;6571&#45;431e&#45;918b&#45;21dc090ceff3</title>
<polygon fill="none" stroke="black" points="538.975,-379.246 440.975,-379.246 440.975,-281.246 538.975,-281.246 538.975,-379.246"/>
<text text-anchor="middle" x="489.975" y="-329.046" font-family="Times,serif" font-size="4.00">pr_43fc9074&#45;6571&#45;431e&#45;918b&#45;21dc090ceff3</text>
</g>
<!-- BAMBI&#45;&gt;pr_43fc9074&#45;6571&#45;431e&#45;918b&#45;21dc090ceff3 -->
<g id="edge5" class="edge"><title>BAMBI&#45;&gt;pr_43fc9074&#45;6571&#45;431e&#45;918b&#45;21dc090ceff3</title>
<path fill="none" stroke="black" d="M431.137,-665.749C449.556,-634.89 490.542,-561.038 504.975,-492.614 512.096,-458.852 508.952,-420.405 503.744,-389.51"/>
<polygon fill="black" stroke="black" points="507.129,-388.56 501.91,-379.34 500.24,-389.802 507.129,-388.56"/>
</g>
<!-- pr_9e78f093&#45;b43a&#45;4407&#45;a9c0&#45;c794fbcee60c -->
<g id="node24" class="node"><title>pr_9e78f093&#45;b43a&#45;4407&#45;a9c0&#45;c794fbcee60c</title>
<polygon fill="none" stroke="black" points="651.475,-627.614 552.475,-627.614 552.475,-528.614 651.475,-528.614 651.475,-627.614"/>
<text text-anchor="middle" x="601.975" y="-576.914" font-family="Times,serif" font-size="4.00">pr_9e78f093&#45;b43a&#45;4407&#45;a9c0&#45;c794fbcee60c</text>
</g>
<!-- BAMBI&#45;&gt;pr_9e78f093&#45;b43a&#45;4407&#45;a9c0&#45;c794fbcee60c -->
<g id="edge6" class="edge"><title>BAMBI&#45;&gt;pr_9e78f093&#45;b43a&#45;4407&#45;a9c0&#45;c794fbcee60c</title>
<path fill="none" stroke="black" d="M438.685,-674.329C461.757,-665.355 504.331,-647.713 537.975,-627.614 539.919,-626.452 541.875,-625.242 543.833,-623.995"/>
<polygon fill="black" stroke="black" points="545.993,-626.763 552.398,-618.323 542.128,-620.926 545.993,-626.763"/>
</g>
<!-- BMPR1/2/ACTR2 -->
<g id="node4" class="node"><title>BMPR1/2/ACTR2</title>
<ellipse fill="none" stroke="black" cx="106.975" cy="-454.43" rx="26.533" ry="26.533"/>
<text text-anchor="middle" x="106.975" y="-453.23" font-family="Times,serif" font-size="4.00">BMPR1/2/ACTR2</text>
</g>
<!-- BMPR1/2/ACTR2&#45;&gt;pr_8191e748&#45;0bb0&#45;4e33&#45;9d5e&#45;edbb91f85a82 -->
<g id="edge7" class="edge"><title>BMPR1/2/ACTR2&#45;&gt;pr_8191e748&#45;0bb0&#45;4e33&#45;9d5e&#45;edbb91f85a82</title>
<path fill="none" stroke="black" d="M113.323,-428.409C116.145,-417.286 119.598,-403.676 123.016,-390.205"/>
<polygon fill="black" stroke="black" points="126.422,-391.011 125.489,-380.457 119.637,-389.29 126.422,-391.011"/>
</g>
<!-- MAPK3 -->
<g id="node5" class="node"><title>MAPK3</title>
<ellipse fill="none" stroke="black" cx="223.975" cy="-454.43" rx="18" ry="18"/>
<text text-anchor="middle" x="223.975" y="-453.23" font-family="Times,serif" font-size="4.00">MAPK3</text>
</g>
<!-- MAPK3&#45;&gt;pr_8191e748&#45;0bb0&#45;4e33&#45;9d5e&#45;edbb91f85a82 -->
<g id="edge8" class="edge"><title>MAPK3&#45;&gt;pr_8191e748&#45;0bb0&#45;4e33&#45;9d5e&#45;edbb91f85a82</title>
<path fill="none" stroke="black" d="M213.772,-438.934C204.896,-426.324 191.431,-407.194 178.3,-388.538"/>
<polygon fill="black" stroke="black" points="181.126,-386.472 172.508,-380.309 175.402,-390.501 181.126,-386.472"/>
</g>
<!-- MAPK3&#45;&gt;pr_133469ff&#45;cd09&#45;478f&#45;8027&#45;e272a61f889a -->
<g id="edge9" class="edge"><title>MAPK3&#45;&gt;pr_133469ff&#45;cd09&#45;478f&#45;8027&#45;e272a61f889a</title>
<path fill="none" stroke="black" d="M232.941,-438.762C237.766,-431.525 244.127,-422.936 250.975,-416.246 270.399,-397.271 294.487,-379.609 316.185,-365.357"/>
<polygon fill="black" stroke="black" points="318.183,-368.233 324.683,-359.866 314.384,-362.354 318.183,-368.233"/>
</g>
<!-- Orf3a -->
<g id="node6" class="node"><title>Orf3a</title>
<ellipse fill="none" stroke="black" cx="423.975" cy="-454.43" rx="18" ry="18"/>
<text text-anchor="middle" x="423.975" y="-453.23" font-family="Times,serif" font-size="4.00">Orf3a</text>
</g>
<!-- Orf3a&#45;&gt;pr_8191e748&#45;0bb0&#45;4e33&#45;9d5e&#45;edbb91f85a82 -->
<g id="edge10" class="edge"><title>Orf3a&#45;&gt;pr_8191e748&#45;0bb0&#45;4e33&#45;9d5e&#45;edbb91f85a82</title>
<path fill="none" stroke="black" d="M409.09,-444.046C396.136,-436.092 376.707,-424.668 358.975,-416.246 305.699,-390.944 242.724,-367.304 197.656,-351.411"/>
<polygon fill="black" stroke="black" points="198.63,-348.044 188.035,-348.04 196.315,-354.65 198.63,-348.044"/>
</g>
<!-- Orf3a&#45;&gt;pr_133469ff&#45;cd09&#45;478f&#45;8027&#45;e272a61f889a -->
<g id="edge11" class="edge"><title>Orf3a&#45;&gt;pr_133469ff&#45;cd09&#45;478f&#45;8027&#45;e272a61f889a</title>
<path fill="none" stroke="black" d="M417.438,-437.457C412.298,-424.897 404.807,-406.59 397.486,-388.7"/>
<polygon fill="black" stroke="black" points="400.713,-387.345 393.687,-379.416 394.235,-389.997 400.713,-387.345"/>
</g>
<!-- Orf3a&#45;&gt;pr_43fc9074&#45;6571&#45;431e&#45;918b&#45;21dc090ceff3 -->
<g id="edge12" class="edge"><title>Orf3a&#45;&gt;pr_43fc9074&#45;6571&#45;431e&#45;918b&#45;21dc090ceff3</title>
<path fill="none" stroke="black" d="M432.334,-437.955C439.19,-425.263 449.343,-406.467 459.225,-388.172"/>
<polygon fill="black" stroke="black" points="462.366,-389.722 464.039,-379.26 456.207,-386.395 462.366,-389.722"/>
</g>
<!-- Nsp7b -->
<g id="node7" class="node"><title>Nsp7b</title>
<ellipse fill="none" stroke="black" cx="277.975" cy="-454.43" rx="18" ry="18"/>
<text text-anchor="middle" x="277.975" y="-453.23" font-family="Times,serif" font-size="4.00">Nsp7b</text>
</g>
<!-- Nsp7b&#45;&gt;pr_8191e748&#45;0bb0&#45;4e33&#45;9d5e&#45;edbb91f85a82 -->
<g id="edge13" class="edge"><title>Nsp7b&#45;&gt;pr_8191e748&#45;0bb0&#45;4e33&#45;9d5e&#45;edbb91f85a82</title>
<path fill="none" stroke="black" d="M268.894,-438.877C264.039,-431.669 257.687,-423.073 250.975,-416.246 234.631,-399.625 214.865,-383.639 196.464,-370.104"/>
<polygon fill="black" stroke="black" points="198.275,-367.095 188.122,-364.065 194.169,-372.764 198.275,-367.095"/>
</g>
<!-- Nsp7b&#45;&gt;pr_133469ff&#45;cd09&#45;478f&#45;8027&#45;e272a61f889a -->
<g id="edge14" class="edge"><title>Nsp7b&#45;&gt;pr_133469ff&#45;cd09&#45;478f&#45;8027&#45;e272a61f889a</title>
<path fill="none" stroke="black" d="M288.055,-439.172C293.056,-432.196 299.24,-423.712 304.975,-416.246 312.211,-406.825 320.026,-396.938 327.707,-387.373"/>
<polygon fill="black" stroke="black" points="330.558,-389.413 334.111,-379.432 325.109,-385.019 330.558,-389.413"/>
</g>
<!-- E -->
<g id="node8" class="node"><title>E</title>
<ellipse fill="none" stroke="black" cx="169.975" cy="-454.43" rx="18" ry="18"/>
<text text-anchor="middle" x="169.975" y="-453.23" font-family="Times,serif" font-size="4.00">E</text>
</g>
<!-- E&#45;&gt;pr_8191e748&#45;0bb0&#45;4e33&#45;9d5e&#45;edbb91f85a82 -->
<g id="edge15" class="edge"><title>E&#45;&gt;pr_8191e748&#45;0bb0&#45;4e33&#45;9d5e&#45;edbb91f85a82</title>
<path fill="none" stroke="black" d="M165.659,-436.952C162.479,-424.809 157.944,-407.496 153.464,-390.387"/>
<polygon fill="black" stroke="black" points="156.762,-389.165 150.842,-380.378 149.99,-390.938 156.762,-389.165"/>
</g>
<!-- SMAD2/3 -->
<g id="node9" class="node"><title>SMAD2/3</title>
<ellipse fill="none" stroke="black" cx="373.975" cy="-225.685" rx="18.6233" ry="18.6233"/>
<text text-anchor="middle" x="373.975" y="-224.485" font-family="Times,serif" font-size="4.00">SMAD2/3</text>
</g>
<!-- SMAD2/3&#45;&gt;pr_133469ff&#45;cd09&#45;478f&#45;8027&#45;e272a61f889a -->
<g id="edge16" class="edge"><title>SMAD2/3&#45;&gt;pr_133469ff&#45;cd09&#45;478f&#45;8027&#45;e272a61f889a</title>
<path fill="none" stroke="black" d="M379.166,-243.851C380,-251.455 380.499,-260.891 380.664,-270.689"/>
<polygon fill="black" stroke="black" points="377.165,-270.986 380.714,-280.969 384.165,-270.952 377.165,-270.986"/>
</g>
<!-- pr_133469ff&#45;cd09&#45;478f&#45;8027&#45;e272a61f889a&#45;&gt;SMAD2/3 -->
<g id="edge17" class="edge"><title>pr_133469ff&#45;cd09&#45;478f&#45;8027&#45;e272a61f889a&#45;&gt;SMAD2/3</title>
<path fill="none" stroke="black" d="M367.235,-280.969C367.171,-271.721 367.402,-262.342 367.925,-254.041"/>
<polygon fill="black" stroke="black" points="371.432,-254.109 368.783,-243.851 364.456,-253.522 371.432,-254.109"/>
</g>
<!-- TGFB/TGFBR -->
<g id="node11" class="node"><title>TGFB/TGFBR</title>
<ellipse fill="none" stroke="black" cx="601.975" cy="-454.43" rx="22.05" ry="22.05"/>
<text text-anchor="middle" x="601.975" y="-453.23" font-family="Times,serif" font-size="4.00">TGFB/TGFBR</text>
</g>
<!-- TGFB/TGFBR&#45;&gt;pr_133469ff&#45;cd09&#45;478f&#45;8027&#45;e272a61f889a -->
<g id="edge18" class="edge"><title>TGFB/TGFBR&#45;&gt;pr_133469ff&#45;cd09&#45;478f&#45;8027&#45;e272a61f889a</title>
<path fill="none" stroke="black" d="M581.555,-445.517C542.441,-430.217 458.481,-396.644 431.975,-380.246 431.884,-380.19 431.792,-380.133 431.701,-380.077"/>
<polygon fill="black" stroke="black" points="433.511,-377.077 423.243,-374.466 429.642,-382.911 433.511,-377.077"/>
</g>
<!-- pr_013b2246&#45;68ef&#45;407f&#45;b38c&#45;677e3473f137 -->
<g id="node15" class="node"><title>pr_013b2246&#45;68ef&#45;407f&#45;b38c&#45;677e3473f137</title>
<polygon fill="none" stroke="black" points="654.975,-379.246 556.975,-379.246 556.975,-281.246 654.975,-281.246 654.975,-379.246"/>
<text text-anchor="middle" x="605.975" y="-329.046" font-family="Times,serif" font-size="4.00">pr_013b2246&#45;68ef&#45;407f&#45;b38c&#45;677e3473f137</text>
</g>
<!-- TGFB/TGFBR&#45;&gt;pr_013b2246&#45;68ef&#45;407f&#45;b38c&#45;677e3473f137 -->
<g id="edge19" class="edge"><title>TGFB/TGFBR&#45;&gt;pr_013b2246&#45;68ef&#45;407f&#45;b38c&#45;677e3473f137</title>
<path fill="none" stroke="black" d="M602.671,-432.147C603.059,-420.315 603.562,-404.953 604.058,-389.8"/>
<polygon fill="black" stroke="black" points="607.569,-389.498 604.399,-379.388 600.573,-389.269 607.569,-389.498"/>
</g>
<!-- pr_ecedbce8&#45;549b&#45;4ba4&#45;93ec&#45;6f0bdd66e05b -->
<g id="node18" class="node"><title>pr_ecedbce8&#45;549b&#45;4ba4&#45;93ec&#45;6f0bdd66e05b</title>
<polygon fill="none" stroke="black" points="772.975,-380.246 672.975,-380.246 672.975,-280.246 772.975,-280.246 772.975,-380.246"/>
<text text-anchor="middle" x="722.975" y="-329.046" font-family="Times,serif" font-size="4.00">pr_ecedbce8&#45;549b&#45;4ba4&#45;93ec&#45;6f0bdd66e05b</text>
</g>
<!-- TGFB/TGFBR&#45;&gt;pr_ecedbce8&#45;549b&#45;4ba4&#45;93ec&#45;6f0bdd66e05b -->
<g id="edge20" class="edge"><title>TGFB/TGFBR&#45;&gt;pr_ecedbce8&#45;549b&#45;4ba4&#45;93ec&#45;6f0bdd66e05b</title>
<path fill="none" stroke="black" d="M615.451,-436.406C620.749,-429.946 626.988,-422.615 632.975,-416.246 643.14,-405.431 654.371,-394.265 665.353,-383.724"/>
<polygon fill="black" stroke="black" points="668.071,-385.97 672.899,-376.539 663.244,-380.9 668.071,-385.97"/>
</g>
<!-- ACVR1 -->
<g id="node12" class="node"><title>ACVR1</title>
<ellipse fill="none" stroke="black" cx="331.975" cy="-454.43" rx="18" ry="18"/>
<text text-anchor="middle" x="331.975" y="-453.23" font-family="Times,serif" font-size="4.00">ACVR1</text>
</g>
<!-- ACVR1&#45;&gt;pr_133469ff&#45;cd09&#45;478f&#45;8027&#45;e272a61f889a -->
<g id="edge21" class="edge"><title>ACVR1&#45;&gt;pr_133469ff&#45;cd09&#45;478f&#45;8027&#45;e272a61f889a</title>
<path fill="none" stroke="black" d="M337.552,-437.205C341.826,-424.772 347.999,-406.813 354.052,-389.202"/>
<polygon fill="black" stroke="black" points="357.45,-390.087 357.39,-379.492 350.83,-387.811 357.45,-390.087"/>
</g>
<!-- ACVR1B -->
<g id="node13" class="node"><title>ACVR1B</title>
<ellipse fill="none" stroke="black" cx="477.975" cy="-454.43" rx="18.0625" ry="18.0625"/>
<text text-anchor="middle" x="477.975" y="-453.23" font-family="Times,serif" font-size="4.00">ACVR1B</text>
</g>
<!-- ACVR1B&#45;&gt;pr_133469ff&#45;cd09&#45;478f&#45;8027&#45;e272a61f889a -->
<g id="edge22" class="edge"><title>ACVR1B&#45;&gt;pr_133469ff&#45;cd09&#45;478f&#45;8027&#45;e272a61f889a</title>
<path fill="none" stroke="black" d="M468.069,-439.035C463.109,-432.025 456.909,-423.554 450.975,-416.246 443.15,-406.611 434.571,-396.628 426.068,-387.039"/>
<polygon fill="black" stroke="black" points="428.555,-384.569 419.281,-379.446 423.336,-389.234 428.555,-384.569"/>
</g>
<!-- RHOA -->
<g id="node14" class="node"><title>RHOA</title>
<ellipse fill="none" stroke="black" cx="605.975" cy="-225.685" rx="18" ry="18"/>
<text text-anchor="middle" x="605.975" y="-224.485" font-family="Times,serif" font-size="4.00">RHOA</text>
</g>
<!-- RHOA&#45;&gt;pr_013b2246&#45;68ef&#45;407f&#45;b38c&#45;677e3473f137 -->
<g id="edge23" class="edge"><title>RHOA&#45;&gt;pr_013b2246&#45;68ef&#45;407f&#45;b38c&#45;677e3473f137</title>
<path fill="none" stroke="black" d="M611.113,-243.373C611.983,-251.098 612.501,-260.784 612.666,-270.844"/>
<polygon fill="black" stroke="black" points="609.167,-270.985 612.714,-280.969 616.167,-270.952 609.167,-270.985"/>
</g>
<!-- pr_013b2246&#45;68ef&#45;407f&#45;b38c&#45;677e3473f137&#45;&gt;RHOA -->
<g id="edge24" class="edge"><title>pr_013b2246&#45;68ef&#45;407f&#45;b38c&#45;677e3473f137&#45;&gt;RHOA</title>
<path fill="none" stroke="black" d="M599.235,-280.969C599.17,-271.47 599.414,-261.834 599.968,-253.37"/>
<polygon fill="black" stroke="black" points="603.458,-253.639 600.836,-243.373 596.484,-253.033 603.458,-253.639"/>
</g>
<!-- Nsp7 -->
<g id="node16" class="node"><title>Nsp7</title>
<ellipse fill="none" stroke="black" cx="659.975" cy="-454.43" rx="18" ry="18"/>
<text text-anchor="middle" x="659.975" y="-453.23" font-family="Times,serif" font-size="4.00">Nsp7</text>
</g>
<!-- Nsp7&#45;&gt;pr_013b2246&#45;68ef&#45;407f&#45;b38c&#45;677e3473f137 -->
<g id="edge25" class="edge"><title>Nsp7&#45;&gt;pr_013b2246&#45;68ef&#45;407f&#45;b38c&#45;677e3473f137</title>
<path fill="none" stroke="black" d="M652.915,-437.457C647.364,-424.897 639.273,-406.59 631.367,-388.7"/>
<polygon fill="black" stroke="black" points="634.507,-387.148 627.264,-379.416 628.105,-389.977 634.507,-387.148"/>
</g>
<!-- PP2A -->
<g id="node17" class="node"><title>PP2A</title>
<ellipse fill="none" stroke="black" cx="722.975" cy="-225.685" rx="18" ry="18"/>
<text text-anchor="middle" x="722.975" y="-224.485" font-family="Times,serif" font-size="4.00">PP2A</text>
</g>
<!-- PP2A&#45;&gt;pr_ecedbce8&#45;549b&#45;4ba4&#45;93ec&#45;6f0bdd66e05b -->
<g id="edge26" class="edge"><title>PP2A&#45;&gt;pr_ecedbce8&#45;549b&#45;4ba4&#45;93ec&#45;6f0bdd66e05b</title>
<path fill="none" stroke="black" d="M728.075,-243.037C728.945,-250.617 729.471,-260.139 729.653,-270.064"/>
<polygon fill="black" stroke="black" points="726.153,-270.092 729.72,-280.068 733.153,-270.045 726.153,-270.092"/>
</g>
<!-- pr_b5010132&#45;62ad&#45;4ec6&#45;9d4f&#45;dc74ffcabd5b -->
<g id="node21" class="node"><title>pr_b5010132&#45;62ad&#45;4ec6&#45;9d4f&#45;dc74ffcabd5b</title>
<polygon fill="none" stroke="black" points="771.975,-171.123 673.975,-171.123 673.975,-73.1231 771.975,-73.1231 771.975,-171.123"/>
<text text-anchor="middle" x="722.975" y="-120.923" font-family="Times,serif" font-size="4.00">pr_b5010132&#45;62ad&#45;4ec6&#45;9d4f&#45;dc74ffcabd5b</text>
</g>
<!-- PP2A&#45;&gt;pr_b5010132&#45;62ad&#45;4ec6&#45;9d4f&#45;dc74ffcabd5b -->
<g id="edge27" class="edge"><title>PP2A&#45;&gt;pr_b5010132&#45;62ad&#45;4ec6&#45;9d4f&#45;dc74ffcabd5b</title>
<path fill="none" stroke="black" d="M722.975,-207.456C722.975,-200.141 722.975,-191.145 722.975,-181.783"/>
<polygon fill="black" stroke="black" points="726.475,-181.543 722.975,-171.543 719.475,-181.543 726.475,-181.543"/>
</g>
<!-- pr_ecedbce8&#45;549b&#45;4ba4&#45;93ec&#45;6f0bdd66e05b&#45;&gt;PP2A -->
<g id="edge28" class="edge"><title>pr_ecedbce8&#45;549b&#45;4ba4&#45;93ec&#45;6f0bdd66e05b&#45;&gt;PP2A</title>
<path fill="none" stroke="black" d="M716.23,-280.068C716.185,-270.774 716.436,-261.388 716.984,-253.134"/>
<polygon fill="black" stroke="black" points="720.482,-253.306 717.874,-243.037 713.509,-252.691 720.482,-253.306"/>
</g>
<!-- Orf7a -->
<g id="node19" class="node"><title>Orf7a</title>
<ellipse fill="none" stroke="black" cx="722.975" cy="-454.43" rx="18" ry="18"/>
<text text-anchor="middle" x="722.975" y="-453.23" font-family="Times,serif" font-size="4.00">Orf7a</text>
</g>
<!-- Orf7a&#45;&gt;pr_ecedbce8&#45;549b&#45;4ba4&#45;93ec&#45;6f0bdd66e05b -->
<g id="edge29" class="edge"><title>Orf7a&#45;&gt;pr_ecedbce8&#45;549b&#45;4ba4&#45;93ec&#45;6f0bdd66e05b</title>
<path fill="none" stroke="black" d="M722.975,-436.183C722.975,-424.144 722.975,-407.304 722.975,-390.633"/>
<polygon fill="black" stroke="black" points="726.475,-390.319 722.975,-380.319 719.475,-390.319 726.475,-390.319"/>
</g>
<!-- RPS6KB1 -->
<g id="node20" class="node"><title>RPS6KB1</title>
<ellipse fill="none" stroke="black" cx="722.975" cy="-18.5616" rx="18.6233" ry="18.6233"/>
<text text-anchor="middle" x="722.975" y="-17.3616" font-family="Times,serif" font-size="4.00">RPS6KB1</text>
</g>
<!-- RPS6KB1&#45;&gt;pr_b5010132&#45;62ad&#45;4ec6&#45;9d4f&#45;dc74ffcabd5b -->
<g id="edge30" class="edge"><title>RPS6KB1&#45;&gt;pr_b5010132&#45;62ad&#45;4ec6&#45;9d4f&#45;dc74ffcabd5b</title>
<path fill="none" stroke="black" d="M728.154,-36.4464C728.988,-43.9299 729.49,-53.2209 729.659,-62.8802"/>
<polygon fill="black" stroke="black" points="726.16,-63.0389 729.716,-73.0191 733.16,-62.9996 726.16,-63.0389"/>
</g>
<!-- pr_b5010132&#45;62ad&#45;4ec6&#45;9d4f&#45;dc74ffcabd5b&#45;&gt;RPS6KB1 -->
<g id="edge31" class="edge"><title>pr_b5010132&#45;62ad&#45;4ec6&#45;9d4f&#45;dc74ffcabd5b&#45;&gt;RPS6KB1</title>
<path fill="none" stroke="black" d="M716.233,-73.0191C716.176,-63.893 716.41,-54.6512 716.936,-46.4772"/>
<polygon fill="black" stroke="black" points="720.429,-46.7086 717.796,-36.4464 713.455,-46.1112 720.429,-46.7086"/>
</g>
<!-- TGFB1 -->
<g id="node23" class="node"><title>TGFB1</title>
<ellipse fill="none" stroke="black" cx="574.975" cy="-681.614" rx="18" ry="18"/>
<text text-anchor="middle" x="574.975" y="-680.414" font-family="Times,serif" font-size="4.00">TGFB1</text>
</g>
<!-- TGFB1&#45;&gt;pr_9e78f093&#45;b43a&#45;4407&#45;a9c0&#45;c794fbcee60c -->
<g id="edge32" class="edge"><title>TGFB1&#45;&gt;pr_9e78f093&#45;b43a&#45;4407&#45;a9c0&#45;c794fbcee60c</title>
<path fill="none" stroke="black" d="M579.433,-663.853C581.41,-656.421 583.866,-647.188 586.423,-637.578"/>
<polygon fill="black" stroke="black" points="589.81,-638.458 588.999,-627.894 583.045,-636.658 589.81,-638.458"/>
</g>
<!-- pr_9e78f093&#45;b43a&#45;4407&#45;a9c0&#45;c794fbcee60c&#45;&gt;TGFB/TGFBR -->
<g id="edge33" class="edge"><title>pr_9e78f093&#45;b43a&#45;4407&#45;a9c0&#45;c794fbcee60c&#45;&gt;TGFB/TGFBR</title>
<path fill="none" stroke="black" d="M601.975,-528.321C601.975,-514.374 601.975,-499.547 601.975,-486.932"/>
<polygon fill="black" stroke="black" points="605.475,-486.924 601.975,-476.924 598.475,-486.924 605.475,-486.924"/>
</g>
<!-- TGFBR -->
<g id="node25" class="node"><title>TGFBR</title>
<ellipse fill="none" stroke="black" cx="628.975" cy="-681.614" rx="18" ry="18"/>
<text text-anchor="middle" x="628.975" y="-680.414" font-family="Times,serif" font-size="4.00">TGFBR</text>
</g>
<!-- TGFBR&#45;&gt;pr_9e78f093&#45;b43a&#45;4407&#45;a9c0&#45;c794fbcee60c -->
<g id="edge34" class="edge"><title>TGFBR&#45;&gt;pr_9e78f093&#45;b43a&#45;4407&#45;a9c0&#45;c794fbcee60c</title>
<path fill="none" stroke="black" d="M624.516,-663.853C622.539,-656.421 620.083,-647.188 617.527,-637.578"/>
<polygon fill="black" stroke="black" points="620.904,-636.658 614.951,-627.894 614.139,-638.458 620.904,-636.658"/>
</g>
<!-- LTBP1 -->
<g id="node26" class="node"><title>LTBP1</title>
<ellipse fill="none" stroke="black" cx="682.975" cy="-681.614" rx="18" ry="18"/>
<text text-anchor="middle" x="682.975" y="-680.414" font-family="Times,serif" font-size="4.00">LTBP1</text>
</g>
<!-- LTBP1&#45;&gt;pr_9e78f093&#45;b43a&#45;4407&#45;a9c0&#45;c794fbcee60c -->
<g id="edge35" class="edge"><title>LTBP1&#45;&gt;pr_9e78f093&#45;b43a&#45;4407&#45;a9c0&#45;c794fbcee60c</title>
<path fill="none" stroke="black" d="M672.051,-666.925C665.454,-658.659 656.557,-647.51 647.318,-635.933"/>
<polygon fill="black" stroke="black" points="649.865,-633.513 640.892,-627.88 644.394,-637.88 649.865,-633.513"/>
</g>
<!-- Orf8 -->
<g id="node27" class="node"><title>Orf8</title>
<ellipse fill="none" stroke="black" cx="520.975" cy="-681.614" rx="18" ry="18"/>
<text text-anchor="middle" x="520.975" y="-680.414" font-family="Times,serif" font-size="4.00">Orf8</text>
</g>
<!-- Orf8&#45;&gt;pr_9e78f093&#45;b43a&#45;4407&#45;a9c0&#45;c794fbcee60c -->
<g id="edge36" class="edge"><title>Orf8&#45;&gt;pr_9e78f093&#45;b43a&#45;4407&#45;a9c0&#45;c794fbcee60c</title>
<path fill="none" stroke="black" d="M531.899,-666.925C538.495,-658.659 547.392,-647.51 556.631,-635.933"/>
<polygon fill="black" stroke="black" points="559.556,-637.88 563.058,-627.88 554.084,-633.513 559.556,-637.88"/>
</g>
<!-- Orf10 -->
<g id="node28" class="node"><title>Orf10</title>
<ellipse fill="none" stroke="black" cx="796.975" cy="-681.614" rx="18" ry="18"/>
<text text-anchor="middle" x="796.975" y="-680.414" font-family="Times,serif" font-size="4.00">Orf10</text>
</g>
<!-- pr_eb12fcb5&#45;1f52&#45;4a94&#45;bd98&#45;2b242fadcb30 -->
<g id="node29" class="node"><title>pr_eb12fcb5&#45;1f52&#45;4a94&#45;bd98&#45;2b242fadcb30</title>
<polygon fill="none" stroke="black" points="845.975,-627.114 747.975,-627.114 747.975,-529.114 845.975,-529.114 845.975,-627.114"/>
<text text-anchor="middle" x="796.975" y="-576.914" font-family="Times,serif" font-size="4.00">pr_eb12fcb5&#45;1f52&#45;4a94&#45;bd98&#45;2b242fadcb30</text>
</g>
<!-- Orf10&#45;&gt;pr_eb12fcb5&#45;1f52&#45;4a94&#45;bd98&#45;2b242fadcb30 -->
<g id="edge37" class="edge"><title>Orf10&#45;&gt;pr_eb12fcb5&#45;1f52&#45;4a94&#45;bd98&#45;2b242fadcb30</title>
<path fill="none" stroke="black" d="M796.975,-663.396C796.975,-656.085 796.975,-647.095 796.975,-637.738"/>
<polygon fill="black" stroke="black" points="800.475,-637.504 796.975,-627.504 793.475,-637.504 800.475,-637.504"/>
</g>
<!-- E3 ubiquitin ligase complex -->
<g id="node30" class="node"><title>E3 ubiquitin ligase complex</title>
<ellipse fill="none" stroke="black" cx="796.975" cy="-454.43" rx="38.3684" ry="38.3684"/>
<text text-anchor="middle" x="796.975" y="-453.23" font-family="Times,serif" font-size="4.00">E3 ubiquitin ligase complex</text>
</g>
<!-- pr_eb12fcb5&#45;1f52&#45;4a94&#45;bd98&#45;2b242fadcb30&#45;&gt;E3 ubiquitin ligase complex -->
<g id="edge38" class="edge"><title>pr_eb12fcb5&#45;1f52&#45;4a94&#45;bd98&#45;2b242fadcb30&#45;&gt;E3 ubiquitin ligase complex</title>
<path fill="none" stroke="black" d="M790.358,-529.021C790.172,-520.236 790.181,-511.079 790.385,-502.329"/>
<polygon fill="black" stroke="black" points="793.884,-502.399 790.714,-492.29 786.888,-502.17 793.884,-502.399"/>
</g>
<!-- E3 ubiquitin ligase complex&#45;&gt;pr_eb12fcb5&#45;1f52&#45;4a94&#45;bd98&#45;2b242fadcb30 -->
<g id="edge39" class="edge"><title>E3 ubiquitin ligase complex&#45;&gt;pr_eb12fcb5&#45;1f52&#45;4a94&#45;bd98&#45;2b242fadcb30</title>
<path fill="none" stroke="black" d="M803.235,-492.29C803.596,-500.693 803.757,-509.823 803.719,-518.876"/>
<polygon fill="black" stroke="black" points="800.218,-518.978 803.591,-529.021 807.217,-519.066 800.218,-518.978"/>
</g>
</g>
</svg>
