<?xml version="1.0" encoding="UTF-8" standalone="no"?>
<!DOCTYPE svg PUBLIC "-//W3C//DTD SVG 1.1//EN"
 "http://www.w3.org/Graphics/SVG/1.1/DTD/svg11.dtd">
<!-- Generated by graphviz version 2.38.0 (20140413.2041)
 -->
<!-- Title: G Pages: 1 -->
<svg width="855pt" height="709pt"
 viewBox="0.00 0.00 854.99 708.61" xmlns="http://www.w3.org/2000/svg" xmlns:xlink="http://www.w3.org/1999/xlink">
<g id="graph0" class="graph" transform="scale(1 1) rotate(0) translate(4 704.614)">
<title>G</title>
<polygon fill="white" stroke="none" points="-4,4 -4,-704.614 850.987,-704.614 850.987,4 -4,4"/>
<!-- SMAD1/5/8 -->
<g id="node1" class="node"><title>SMAD1/5/8</title>
<ellipse fill="none" stroke="black" cx="41.9872" cy="-456.43" rx="20.3062" ry="20.3062"/>
<text text-anchor="middle" x="41.9872" y="-455.23" font-family="Times,serif" font-size="4.00">SMAD1/5/8</text>
</g>
<!-- pr_aca34f51&#45;813f&#45;4c66&#45;8569&#45;9fbfbd5996fc -->
<g id="node2" class="node"><title>pr_aca34f51&#45;813f&#45;4c66&#45;8569&#45;9fbfbd5996fc</title>
<polygon fill="none" stroke="black" points="186.487,-380.746 89.4872,-380.746 89.4872,-283.746 186.487,-283.746 186.487,-380.746"/>
<text text-anchor="middle" x="137.987" y="-331.046" font-family="Times,serif" font-size="4.00">pr_aca34f51&#45;813f&#45;4c66&#45;8569&#45;9fbfbd5996fc</text>
</g>
<!-- SMAD1/5/8&#45;&gt;pr_aca34f51&#45;813f&#45;4c66&#45;8569&#45;9fbfbd5996fc -->
<g id="edge1" class="edge"><title>SMAD1/5/8&#45;&gt;pr_aca34f51&#45;813f&#45;4c66&#45;8569&#45;9fbfbd5996fc</title>
<path fill="none" stroke="black" d="M47.8699,-436.88C52.0677,-430.924 57.239,-424.302 61.9872,-418.246 69.4888,-408.679 77.4784,-398.518 85.3755,-388.674"/>
<polygon fill="black" stroke="black" points="88.1208,-390.845 91.6778,-380.865 82.6736,-386.449 88.1208,-390.845"/>
</g>
<!-- pr_aca34f51&#45;813f&#45;4c66&#45;8569&#45;9fbfbd5996fc&#45;&gt;SMAD1/5/8 -->
<g id="edge2" class="edge"><title>pr_aca34f51&#45;813f&#45;4c66&#45;8569&#45;9fbfbd5996fc&#45;&gt;SMAD1/5/8</title>
<path fill="none" stroke="black" d="M109.086,-380.865C99.785,-393.042 89.4942,-406.121 79.9872,-418.246 75.2642,-424.27 70.1227,-430.854 65.06,-436.785"/>
<polygon fill="black" stroke="black" points="62.3368,-434.579 58.2518,-444.354 67.5414,-439.26 62.3368,-434.579"/>
</g>
<!-- BAMBI -->
<g id="node3" class="node"><title>BAMBI</title>
<ellipse fill="none" stroke="black" cx="421.987" cy="-682.614" rx="18" ry="18"/>
<text text-anchor="middle" x="421.987" y="-681.414" font-family="Times,serif" font-size="4.00">BAMBI</text>
</g>
<!-- BAMBI&#45;&gt;pr_aca34f51&#45;813f&#45;4c66&#45;8569&#45;9fbfbd5996fc -->
<g id="edge3" class="edge"><title>BAMBI&#45;&gt;pr_aca34f51&#45;813f&#45;4c66&#45;8569&#45;9fbfbd5996fc</title>
<path fill="none" stroke="black" d="M404.165,-679.991C337.951,-672.893 105.188,-638.15 12.9872,-494.614 -5.35648,-466.057 -2.89072,-448.244 12.9872,-418.246 27.3738,-391.066 54.7812,-370.959 80.2744,-357.144"/>
<polygon fill="black" stroke="black" points="81.9234,-360.232 89.1874,-352.519 78.6992,-354.019 81.9234,-360.232"/>
</g>
<!-- pr_eac57157&#45;c6cc&#45;4b86&#45;8d60&#45;2654a142fa87 -->
<g id="node10" class="node"><title>pr_eac57157&#45;c6cc&#45;4b86&#45;8d60&#45;2654a142fa87</title>
<polygon fill="none" stroke="black" points="421.987,-382.246 321.987,-382.246 321.987,-282.246 421.987,-282.246 421.987,-382.246"/>
<text text-anchor="middle" x="371.987" y="-331.046" font-family="Times,serif" font-size="4.00">pr_eac57157&#45;c6cc&#45;4b86&#45;8d60&#45;2654a142fa87</text>
</g>
<!-- BAMBI&#45;&gt;pr_eac57157&#45;c6cc&#45;4b86&#45;8d60&#45;2654a142fa87 -->
<g id="edge4" class="edge"><title>BAMBI&#45;&gt;pr_eac57157&#45;c6cc&#45;4b86&#45;8d60&#45;2654a142fa87</title>
<path fill="none" stroke="black" d="M419.508,-664.338C412.478,-615.36 392.174,-473.897 380.507,-392.606"/>
<polygon fill="black" stroke="black" points="383.944,-391.919 379.059,-382.518 377.015,-392.914 383.944,-391.919"/>
</g>
<!-- pr_2068e5be&#45;f9b9&#45;464b&#45;91a8&#45;39692530a5a9 -->
<g id="node22" class="node"><title>pr_2068e5be&#45;f9b9&#45;464b&#45;91a8&#45;39692530a5a9</title>
<polygon fill="none" stroke="black" points="539.987,-382.246 439.987,-382.246 439.987,-282.246 539.987,-282.246 539.987,-382.246"/>
<text text-anchor="middle" x="489.987" y="-331.046" font-family="Times,serif" font-size="4.00">pr_2068e5be&#45;f9b9&#45;464b&#45;91a8&#45;39692530a5a9</text>
</g>
<!-- BAMBI&#45;&gt;pr_2068e5be&#45;f9b9&#45;464b&#45;91a8&#45;39692530a5a9 -->
<g id="edge5" class="edge"><title>BAMBI&#45;&gt;pr_2068e5be&#45;f9b9&#45;464b&#45;91a8&#45;39692530a5a9</title>
<path fill="none" stroke="black" d="M431.149,-666.836C449.568,-636.154 490.552,-562.719 504.987,-494.614 512.063,-461.23 509.067,-423.257 503.955,-392.537"/>
<polygon fill="black" stroke="black" points="507.351,-391.645 502.151,-382.414 500.459,-392.873 507.351,-391.645"/>
</g>
<!-- pr_e34fe913&#45;c47d&#45;4546&#45;80ab&#45;44319f18f793 -->
<g id="node24" class="node"><title>pr_e34fe913&#45;c47d&#45;4546&#45;80ab&#45;44319f18f793</title>
<polygon fill="none" stroke="black" points="649.987,-628.614 551.987,-628.614 551.987,-530.614 649.987,-530.614 649.987,-628.614"/>
<text text-anchor="middle" x="600.987" y="-578.414" font-family="Times,serif" font-size="4.00">pr_e34fe913&#45;c47d&#45;4546&#45;80ab&#45;44319f18f793</text>
</g>
<!-- BAMBI&#45;&gt;pr_e34fe913&#45;c47d&#45;4546&#45;80ab&#45;44319f18f793 -->
<g id="edge6" class="edge"><title>BAMBI&#45;&gt;pr_e34fe913&#45;c47d&#45;4546&#45;80ab&#45;44319f18f793</title>
<path fill="none" stroke="black" d="M438.705,-675.342C461.786,-666.382 504.37,-648.757 537.987,-628.614 539.712,-627.58 541.446,-626.508 543.181,-625.405"/>
<polygon fill="black" stroke="black" points="545.438,-628.109 551.844,-619.67 541.574,-622.272 545.438,-628.109"/>
</g>
<!-- BMPR1/2/ACTR2 -->
<g id="node4" class="node"><title>BMPR1/2/ACTR2</title>
<ellipse fill="none" stroke="black" cx="106.987" cy="-456.43" rx="26.533" ry="26.533"/>
<text text-anchor="middle" x="106.987" y="-455.23" font-family="Times,serif" font-size="4.00">BMPR1/2/ACTR2</text>
</g>
<!-- BMPR1/2/ACTR2&#45;&gt;pr_aca34f51&#45;813f&#45;4c66&#45;8569&#45;9fbfbd5996fc -->
<g id="edge7" class="edge"><title>BMPR1/2/ACTR2&#45;&gt;pr_aca34f51&#45;813f&#45;4c66&#45;8569&#45;9fbfbd5996fc</title>
<path fill="none" stroke="black" d="M113.335,-430.409C116.243,-418.948 119.821,-404.849 123.339,-390.98"/>
<polygon fill="black" stroke="black" points="126.814,-391.518 125.88,-380.964 120.029,-389.796 126.814,-391.518"/>
</g>
<!-- MAPK3 -->
<g id="node5" class="node"><title>MAPK3</title>
<ellipse fill="none" stroke="black" cx="223.987" cy="-456.43" rx="18" ry="18"/>
<text text-anchor="middle" x="223.987" y="-455.23" font-family="Times,serif" font-size="4.00">MAPK3</text>
</g>
<!-- MAPK3&#45;&gt;pr_aca34f51&#45;813f&#45;4c66&#45;8569&#45;9fbfbd5996fc -->
<g id="edge8" class="edge"><title>MAPK3&#45;&gt;pr_aca34f51&#45;813f&#45;4c66&#45;8569&#45;9fbfbd5996fc</title>
<path fill="none" stroke="black" d="M213.784,-440.934C204.715,-428.049 190.853,-408.355 177.453,-389.316"/>
<polygon fill="black" stroke="black" points="180.169,-387.094 171.551,-380.931 174.444,-391.123 180.169,-387.094"/>
</g>
<!-- MAPK3&#45;&gt;pr_eac57157&#45;c6cc&#45;4b86&#45;8d60&#45;2654a142fa87 -->
<g id="edge9" class="edge"><title>MAPK3&#45;&gt;pr_eac57157&#45;c6cc&#45;4b86&#45;8d60&#45;2654a142fa87</title>
<path fill="none" stroke="black" d="M232.975,-440.784C237.806,-433.552 244.165,-424.962 250.987,-418.246 269.559,-399.963 292.428,-382.815 313.266,-368.775"/>
<polygon fill="black" stroke="black" points="315.345,-371.596 321.747,-363.155 311.478,-365.762 315.345,-371.596"/>
</g>
<!-- 3a -->
<g id="node6" class="node"><title>3a</title>
<ellipse fill="none" stroke="black" cx="423.987" cy="-456.43" rx="18" ry="18"/>
<text text-anchor="middle" x="423.987" y="-455.23" font-family="Times,serif" font-size="4.00">3a</text>
</g>
<!-- 3a&#45;&gt;pr_aca34f51&#45;813f&#45;4c66&#45;8569&#45;9fbfbd5996fc -->
<g id="edge10" class="edge"><title>3a&#45;&gt;pr_aca34f51&#45;813f&#45;4c66&#45;8569&#45;9fbfbd5996fc</title>
<path fill="none" stroke="black" d="M409.102,-446.046C396.148,-438.092 376.72,-426.668 358.987,-418.246 305.193,-392.697 241.509,-368.844 196.357,-352.949"/>
<polygon fill="black" stroke="black" points="197.323,-349.579 186.728,-349.581 195.011,-356.187 197.323,-349.579"/>
</g>
<!-- 3a&#45;&gt;pr_eac57157&#45;c6cc&#45;4b86&#45;8d60&#45;2654a142fa87 -->
<g id="edge11" class="edge"><title>3a&#45;&gt;pr_eac57157&#45;c6cc&#45;4b86&#45;8d60&#45;2654a142fa87</title>
<path fill="none" stroke="black" d="M417.189,-439.457C411.986,-427.231 404.465,-409.558 397.046,-392.126"/>
<polygon fill="black" stroke="black" points="400.087,-390.334 392.95,-382.503 393.646,-393.075 400.087,-390.334"/>
</g>
<!-- 3a&#45;&gt;pr_2068e5be&#45;f9b9&#45;464b&#45;91a8&#45;39692530a5a9 -->
<g id="edge12" class="edge"><title>3a&#45;&gt;pr_2068e5be&#45;f9b9&#45;464b&#45;91a8&#45;39692530a5a9</title>
<path fill="none" stroke="black" d="M432.346,-439.955C439.022,-427.597 448.823,-409.452 458.457,-391.618"/>
<polygon fill="black" stroke="black" points="461.789,-392.814 463.462,-382.352 455.63,-389.487 461.789,-392.814"/>
</g>
<!-- 7b -->
<g id="node7" class="node"><title>7b</title>
<ellipse fill="none" stroke="black" cx="277.987" cy="-456.43" rx="18" ry="18"/>
<text text-anchor="middle" x="277.987" y="-455.23" font-family="Times,serif" font-size="4.00">7b</text>
</g>
<!-- 7b&#45;&gt;pr_aca34f51&#45;813f&#45;4c66&#45;8569&#45;9fbfbd5996fc -->
<g id="edge13" class="edge"><title>7b&#45;&gt;pr_aca34f51&#45;813f&#45;4c66&#45;8569&#45;9fbfbd5996fc</title>
<path fill="none" stroke="black" d="M268.906,-440.877C264.051,-433.669 257.699,-425.073 250.987,-418.246 234.195,-401.169 213.79,-384.762 194.965,-370.996"/>
<polygon fill="black" stroke="black" points="196.888,-368.068 186.728,-365.064 192.797,-373.748 196.888,-368.068"/>
</g>
<!-- 7b&#45;&gt;pr_eac57157&#45;c6cc&#45;4b86&#45;8d60&#45;2654a142fa87 -->
<g id="edge14" class="edge"><title>7b&#45;&gt;pr_eac57157&#45;c6cc&#45;4b86&#45;8d60&#45;2654a142fa87</title>
<path fill="none" stroke="black" d="M288.114,-441.208C293.126,-434.24 299.307,-425.753 304.987,-418.246 311.827,-409.207 319.165,-399.707 326.385,-390.467"/>
<polygon fill="black" stroke="black" points="329.269,-392.46 332.684,-382.431 323.76,-388.142 329.269,-392.46"/>
</g>
<!-- nsp4 -->
<g id="node8" class="node"><title>nsp4</title>
<ellipse fill="none" stroke="black" cx="169.987" cy="-456.43" rx="18" ry="18"/>
<text text-anchor="middle" x="169.987" y="-455.23" font-family="Times,serif" font-size="4.00">nsp4</text>
</g>
<!-- nsp4&#45;&gt;pr_aca34f51&#45;813f&#45;4c66&#45;8569&#45;9fbfbd5996fc -->
<g id="edge15" class="edge"><title>nsp4&#45;&gt;pr_aca34f51&#45;813f&#45;4c66&#45;8569&#45;9fbfbd5996fc</title>
<path fill="none" stroke="black" d="M165.672,-438.952C162.375,-426.366 157.624,-408.225 152.986,-390.514"/>
<polygon fill="black" stroke="black" points="156.35,-389.545 150.43,-380.758 149.578,-391.318 156.35,-389.545"/>
</g>
<!-- SMAD2/3 -->
<g id="node9" class="node"><title>SMAD2/3</title>
<ellipse fill="none" stroke="black" cx="371.987" cy="-227.685" rx="18.6233" ry="18.6233"/>
<text text-anchor="middle" x="371.987" y="-226.485" font-family="Times,serif" font-size="4.00">SMAD2/3</text>
</g>
<!-- SMAD2/3&#45;&gt;pr_eac57157&#45;c6cc&#45;4b86&#45;8d60&#45;2654a142fa87 -->
<g id="edge16" class="edge"><title>SMAD2/3&#45;&gt;pr_eac57157&#45;c6cc&#45;4b86&#45;8d60&#45;2654a142fa87</title>
<path fill="none" stroke="black" d="M377.193,-245.98C377.992,-253.322 378.481,-262.356 378.66,-271.769"/>
<polygon fill="black" stroke="black" points="375.162,-272.093 378.732,-282.068 382.162,-272.044 375.162,-272.093"/>
</g>
<!-- pr_eac57157&#45;c6cc&#45;4b86&#45;8d60&#45;2654a142fa87&#45;&gt;SMAD2/3 -->
<g id="edge17" class="edge"><title>pr_eac57157&#45;c6cc&#45;4b86&#45;8d60&#45;2654a142fa87&#45;&gt;SMAD2/3</title>
<path fill="none" stroke="black" d="M365.242,-282.068C365.2,-273.161 365.429,-264.17 365.93,-256.171"/>
<polygon fill="black" stroke="black" points="369.436,-256.236 366.781,-245.98 362.461,-255.653 369.436,-256.236"/>
</g>
<!-- TGFB/TGFBR -->
<g id="node11" class="node"><title>TGFB/TGFBR</title>
<ellipse fill="none" stroke="black" cx="600.987" cy="-456.43" rx="22.05" ry="22.05"/>
<text text-anchor="middle" x="600.987" y="-455.23" font-family="Times,serif" font-size="4.00">TGFB/TGFBR</text>
</g>
<!-- TGFB/TGFBR&#45;&gt;pr_eac57157&#45;c6cc&#45;4b86&#45;8d60&#45;2654a142fa87 -->
<g id="edge18" class="edge"><title>TGFB/TGFBR&#45;&gt;pr_eac57157&#45;c6cc&#45;4b86&#45;8d60&#45;2654a142fa87</title>
<path fill="none" stroke="black" d="M580.579,-447.497C541.487,-432.163 457.563,-398.532 430.987,-382.246 430.895,-382.19 430.803,-382.133 430.71,-382.076"/>
<polygon fill="black" stroke="black" points="432.419,-379.011 422.137,-376.452 428.579,-384.864 432.419,-379.011"/>
</g>
<!-- pr_8846bf14&#45;5547&#45;47ff&#45;820a&#45;7c721209e961 -->
<g id="node15" class="node"><title>pr_8846bf14&#45;5547&#45;47ff&#45;820a&#45;7c721209e961</title>
<polygon fill="none" stroke="black" points="655.987,-381.246 557.987,-381.246 557.987,-283.246 655.987,-283.246 655.987,-381.246"/>
<text text-anchor="middle" x="606.987" y="-331.046" font-family="Times,serif" font-size="4.00">pr_8846bf14&#45;5547&#45;47ff&#45;820a&#45;7c721209e961</text>
</g>
<!-- TGFB/TGFBR&#45;&gt;pr_8846bf14&#45;5547&#45;47ff&#45;820a&#45;7c721209e961 -->
<g id="edge19" class="edge"><title>TGFB/TGFBR&#45;&gt;pr_8846bf14&#45;5547&#45;47ff&#45;820a&#45;7c721209e961</title>
<path fill="none" stroke="black" d="M602.032,-434.147C602.613,-422.315 603.368,-406.953 604.112,-391.8"/>
<polygon fill="black" stroke="black" points="607.628,-391.548 604.623,-381.388 600.637,-391.205 607.628,-391.548"/>
</g>
<!-- pr_be810fa1&#45;b21e&#45;4ab0&#45;8c70&#45;f38de849b00c -->
<g id="node18" class="node"><title>pr_be810fa1&#45;b21e&#45;4ab0&#45;8c70&#45;f38de849b00c</title>
<polygon fill="none" stroke="black" points="773.487,-381.746 674.487,-381.746 674.487,-282.746 773.487,-282.746 773.487,-381.746"/>
<text text-anchor="middle" x="723.987" y="-331.046" font-family="Times,serif" font-size="4.00">pr_be810fa1&#45;b21e&#45;4ab0&#45;8c70&#45;f38de849b00c</text>
</g>
<!-- TGFB/TGFBR&#45;&gt;pr_be810fa1&#45;b21e&#45;4ab0&#45;8c70&#45;f38de849b00c -->
<g id="edge20" class="edge"><title>TGFB/TGFBR&#45;&gt;pr_be810fa1&#45;b21e&#45;4ab0&#45;8c70&#45;f38de849b00c</title>
<path fill="none" stroke="black" d="M614.427,-438.372C619.721,-431.907 625.966,-424.582 631.987,-418.246 642.801,-406.867 654.832,-395.147 666.533,-384.183"/>
<polygon fill="black" stroke="black" points="669.215,-386.468 674.158,-377.098 664.45,-381.34 669.215,-386.468"/>
</g>
<!-- ACVR1 -->
<g id="node12" class="node"><title>ACVR1</title>
<ellipse fill="none" stroke="black" cx="331.987" cy="-456.43" rx="18" ry="18"/>
<text text-anchor="middle" x="331.987" y="-455.23" font-family="Times,serif" font-size="4.00">ACVR1</text>
</g>
<!-- ACVR1&#45;&gt;pr_eac57157&#45;c6cc&#45;4b86&#45;8d60&#45;2654a142fa87 -->
<g id="edge21" class="edge"><title>ACVR1&#45;&gt;pr_eac57157&#45;c6cc&#45;4b86&#45;8d60&#45;2654a142fa87</title>
<path fill="none" stroke="black" d="M337.299,-439.205C341.315,-426.936 347.093,-409.287 352.785,-391.901"/>
<polygon fill="black" stroke="black" points="356.142,-392.898 355.927,-382.305 349.489,-390.72 356.142,-392.898"/>
</g>
<!-- ACVR1B -->
<g id="node13" class="node"><title>ACVR1B</title>
<ellipse fill="none" stroke="black" cx="477.987" cy="-456.43" rx="18.0625" ry="18.0625"/>
<text text-anchor="middle" x="477.987" y="-455.23" font-family="Times,serif" font-size="4.00">ACVR1B</text>
</g>
<!-- ACVR1B&#45;&gt;pr_eac57157&#45;c6cc&#45;4b86&#45;8d60&#45;2654a142fa87 -->
<g id="edge22" class="edge"><title>ACVR1B&#45;&gt;pr_eac57157&#45;c6cc&#45;4b86&#45;8d60&#45;2654a142fa87</title>
<path fill="none" stroke="black" d="M468.122,-441.001C463.172,-433.984 456.968,-425.516 450.987,-418.246 443.387,-409.009 435.063,-399.484 426.76,-390.302"/>
<polygon fill="black" stroke="black" points="429.132,-387.709 419.806,-382.683 423.962,-392.429 429.132,-387.709"/>
</g>
<!-- RHOA -->
<g id="node14" class="node"><title>RHOA</title>
<ellipse fill="none" stroke="black" cx="606.987" cy="-227.685" rx="18" ry="18"/>
<text text-anchor="middle" x="606.987" y="-226.485" font-family="Times,serif" font-size="4.00">RHOA</text>
</g>
<!-- RHOA&#45;&gt;pr_8846bf14&#45;5547&#45;47ff&#45;820a&#45;7c721209e961 -->
<g id="edge23" class="edge"><title>RHOA&#45;&gt;pr_8846bf14&#45;5547&#45;47ff&#45;820a&#45;7c721209e961</title>
<path fill="none" stroke="black" d="M612.126,-245.373C612.996,-253.098 613.514,-262.784 613.679,-272.844"/>
<polygon fill="black" stroke="black" points="610.18,-272.985 613.727,-282.969 617.179,-272.952 610.18,-272.985"/>
</g>
<!-- pr_8846bf14&#45;5547&#45;47ff&#45;820a&#45;7c721209e961&#45;&gt;RHOA -->
<g id="edge24" class="edge"><title>pr_8846bf14&#45;5547&#45;47ff&#45;820a&#45;7c721209e961&#45;&gt;RHOA</title>
<path fill="none" stroke="black" d="M600.248,-282.969C600.182,-273.47 600.427,-263.834 600.981,-255.37"/>
<polygon fill="black" stroke="black" points="604.471,-255.639 601.849,-245.373 597.497,-255.033 604.471,-255.639"/>
</g>
<!-- nsp7 -->
<g id="node16" class="node"><title>nsp7</title>
<ellipse fill="none" stroke="black" cx="658.987" cy="-456.43" rx="18" ry="18"/>
<text text-anchor="middle" x="658.987" y="-455.23" font-family="Times,serif" font-size="4.00">nsp7</text>
</g>
<!-- nsp7&#45;&gt;pr_8846bf14&#45;5547&#45;47ff&#45;820a&#45;7c721209e961 -->
<g id="edge25" class="edge"><title>nsp7&#45;&gt;pr_8846bf14&#45;5547&#45;47ff&#45;820a&#45;7c721209e961</title>
<path fill="none" stroke="black" d="M652.189,-439.457C646.844,-426.897 639.053,-408.59 631.439,-390.7"/>
<polygon fill="black" stroke="black" points="634.624,-389.247 627.488,-381.416 628.183,-391.988 634.624,-389.247"/>
</g>
<!-- PP2A -->
<g id="node17" class="node"><title>PP2A</title>
<ellipse fill="none" stroke="black" cx="723.987" cy="-227.685" rx="18" ry="18"/>
<text text-anchor="middle" x="723.987" y="-226.485" font-family="Times,serif" font-size="4.00">PP2A</text>
</g>
<!-- PP2A&#45;&gt;pr_be810fa1&#45;b21e&#45;4ab0&#45;8c70&#45;f38de849b00c -->
<g id="edge26" class="edge"><title>PP2A&#45;&gt;pr_be810fa1&#45;b21e&#45;4ab0&#45;8c70&#45;f38de849b00c</title>
<path fill="none" stroke="black" d="M729.113,-245.261C729.983,-252.937 730.504,-262.569 730.675,-272.584"/>
<polygon fill="black" stroke="black" points="727.175,-272.688 730.729,-282.669 734.175,-272.65 727.175,-272.688"/>
</g>
<!-- pr_71ae04db&#45;f03e&#45;4dcd&#45;9378&#45;c078dd237eea -->
<g id="node21" class="node"><title>pr_71ae04db&#45;f03e&#45;4dcd&#45;9378&#45;c078dd237eea</title>
<polygon fill="none" stroke="black" points="773.987,-173.123 673.987,-173.123 673.987,-73.1231 773.987,-73.1231 773.987,-173.123"/>
<text text-anchor="middle" x="723.987" y="-121.923" font-family="Times,serif" font-size="4.00">pr_71ae04db&#45;f03e&#45;4dcd&#45;9378&#45;c078dd237eea</text>
</g>
<!-- PP2A&#45;&gt;pr_71ae04db&#45;f03e&#45;4dcd&#45;9378&#45;c078dd237eea -->
<g id="edge27" class="edge"><title>PP2A&#45;&gt;pr_71ae04db&#45;f03e&#45;4dcd&#45;9378&#45;c078dd237eea</title>
<path fill="none" stroke="black" d="M723.987,-209.286C723.987,-201.984 723.987,-193.021 723.987,-183.683"/>
<polygon fill="black" stroke="black" points="727.487,-183.463 723.987,-173.463 720.487,-183.463 727.487,-183.463"/>
</g>
<!-- pr_be810fa1&#45;b21e&#45;4ab0&#45;8c70&#45;f38de849b00c&#45;&gt;PP2A -->
<g id="edge28" class="edge"><title>pr_be810fa1&#45;b21e&#45;4ab0&#45;8c70&#45;f38de849b00c&#45;&gt;PP2A</title>
<path fill="none" stroke="black" d="M717.246,-282.669C717.188,-273.309 717.431,-263.828 717.974,-255.479"/>
<polygon fill="black" stroke="black" points="721.483,-255.526 718.861,-245.261 714.509,-254.921 721.483,-255.526"/>
</g>
<!-- 7a -->
<g id="node19" class="node"><title>7a</title>
<ellipse fill="none" stroke="black" cx="723.987" cy="-456.43" rx="18" ry="18"/>
<text text-anchor="middle" x="723.987" y="-455.23" font-family="Times,serif" font-size="4.00">7a</text>
</g>
<!-- 7a&#45;&gt;pr_be810fa1&#45;b21e&#45;4ab0&#45;8c70&#45;f38de849b00c -->
<g id="edge29" class="edge"><title>7a&#45;&gt;pr_be810fa1&#45;b21e&#45;4ab0&#45;8c70&#45;f38de849b00c</title>
<path fill="none" stroke="black" d="M723.987,-438.183C723.987,-426.035 723.987,-408.999 723.987,-392.18"/>
<polygon fill="black" stroke="black" points="727.487,-391.783 723.987,-381.783 720.487,-391.783 727.487,-391.783"/>
</g>
<!-- RPS6KB1 -->
<g id="node20" class="node"><title>RPS6KB1</title>
<ellipse fill="none" stroke="black" cx="723.987" cy="-18.5616" rx="18.6233" ry="18.6233"/>
<text text-anchor="middle" x="723.987" y="-17.3616" font-family="Times,serif" font-size="4.00">RPS6KB1</text>
</g>
<!-- RPS6KB1&#45;&gt;pr_71ae04db&#45;f03e&#45;4dcd&#45;9378&#45;c078dd237eea -->
<g id="edge30" class="edge"><title>RPS6KB1&#45;&gt;pr_71ae04db&#45;f03e&#45;4dcd&#45;9378&#45;c078dd237eea</title>
<path fill="none" stroke="black" d="M729.193,-36.8564C729.992,-44.1994 730.481,-53.2334 730.66,-62.6456"/>
<polygon fill="black" stroke="black" points="727.162,-62.9699 730.732,-72.9451 734.162,-62.9208 727.162,-62.9699"/>
</g>
<!-- pr_71ae04db&#45;f03e&#45;4dcd&#45;9378&#45;c078dd237eea&#45;&gt;RPS6KB1 -->
<g id="edge31" class="edge"><title>pr_71ae04db&#45;f03e&#45;4dcd&#45;9378&#45;c078dd237eea&#45;&gt;RPS6KB1</title>
<path fill="none" stroke="black" d="M717.242,-72.9451C717.2,-64.0384 717.429,-55.0469 717.93,-47.0479"/>
<polygon fill="black" stroke="black" points="721.436,-47.1132 718.781,-36.8564 714.461,-46.5301 721.436,-47.1132"/>
</g>
<!-- TGFB -->
<g id="node23" class="node"><title>TGFB</title>
<ellipse fill="none" stroke="black" cx="573.987" cy="-682.614" rx="18" ry="18"/>
<text text-anchor="middle" x="573.987" y="-681.414" font-family="Times,serif" font-size="4.00">TGFB</text>
</g>
<!-- TGFB&#45;&gt;pr_e34fe913&#45;c47d&#45;4546&#45;80ab&#45;44319f18f793 -->
<g id="edge32" class="edge"><title>TGFB&#45;&gt;pr_e34fe913&#45;c47d&#45;4546&#45;80ab&#45;44319f18f793</title>
<path fill="none" stroke="black" d="M578.446,-664.936C580.445,-657.456 582.935,-648.144 585.522,-638.464"/>
<polygon fill="black" stroke="black" points="588.927,-639.28 588.128,-628.715 582.165,-637.472 588.927,-639.28"/>
</g>
<!-- pr_e34fe913&#45;c47d&#45;4546&#45;80ab&#45;44319f18f793&#45;&gt;TGFB/TGFBR -->
<g id="edge33" class="edge"><title>pr_e34fe913&#45;c47d&#45;4546&#45;80ab&#45;44319f18f793&#45;&gt;TGFB/TGFBR</title>
<path fill="none" stroke="black" d="M600.987,-530.371C600.987,-516.448 600.987,-501.616 600.987,-488.989"/>
<polygon fill="black" stroke="black" points="604.487,-488.968 600.987,-478.968 597.487,-488.968 604.487,-488.968"/>
</g>
<!-- TGFBR -->
<g id="node25" class="node"><title>TGFBR</title>
<ellipse fill="none" stroke="black" cx="627.987" cy="-682.614" rx="18" ry="18"/>
<text text-anchor="middle" x="627.987" y="-681.414" font-family="Times,serif" font-size="4.00">TGFBR</text>
</g>
<!-- TGFBR&#45;&gt;pr_e34fe913&#45;c47d&#45;4546&#45;80ab&#45;44319f18f793 -->
<g id="edge34" class="edge"><title>TGFBR&#45;&gt;pr_e34fe913&#45;c47d&#45;4546&#45;80ab&#45;44319f18f793</title>
<path fill="none" stroke="black" d="M623.529,-664.936C621.529,-657.456 619.04,-648.144 616.452,-638.464"/>
<polygon fill="black" stroke="black" points="619.81,-637.472 613.846,-628.715 613.047,-639.28 619.81,-637.472"/>
</g>
<!-- LTBP1 -->
<g id="node26" class="node"><title>LTBP1</title>
<ellipse fill="none" stroke="black" cx="681.987" cy="-682.614" rx="18" ry="18"/>
<text text-anchor="middle" x="681.987" y="-681.414" font-family="Times,serif" font-size="4.00">LTBP1</text>
</g>
<!-- LTBP1&#45;&gt;pr_e34fe913&#45;c47d&#45;4546&#45;80ab&#45;44319f18f793 -->
<g id="edge35" class="edge"><title>LTBP1&#45;&gt;pr_e34fe913&#45;c47d&#45;4546&#45;80ab&#45;44319f18f793</title>
<path fill="none" stroke="black" d="M671.063,-667.992C664.397,-659.68 655.38,-648.437 646.036,-636.785"/>
<polygon fill="black" stroke="black" points="648.526,-634.296 639.539,-628.685 643.065,-638.676 648.526,-634.296"/>
</g>
<!-- 8 -->
<g id="node27" class="node"><title>8</title>
<ellipse fill="none" stroke="black" cx="519.987" cy="-682.614" rx="18" ry="18"/>
<text text-anchor="middle" x="519.987" y="-681.414" font-family="Times,serif" font-size="4.00">8</text>
</g>
<!-- 8&#45;&gt;pr_e34fe913&#45;c47d&#45;4546&#45;80ab&#45;44319f18f793 -->
<g id="edge36" class="edge"><title>8&#45;&gt;pr_e34fe913&#45;c47d&#45;4546&#45;80ab&#45;44319f18f793</title>
<path fill="none" stroke="black" d="M530.911,-667.992C537.578,-659.68 546.595,-648.437 555.939,-636.785"/>
<polygon fill="black" stroke="black" points="558.909,-638.676 562.435,-628.685 553.448,-634.296 558.909,-638.676"/>
</g>
<!-- Orf10 -->
<g id="node28" class="node"><title>Orf10</title>
<ellipse fill="none" stroke="black" cx="797.987" cy="-682.614" rx="18" ry="18"/>
<text text-anchor="middle" x="797.987" y="-681.414" font-family="Times,serif" font-size="4.00">Orf10</text>
</g>
<!-- pr_f30cfecd&#45;2d73&#45;4855&#45;a830&#45;f505b472a817 -->
<g id="node29" class="node"><title>pr_f30cfecd&#45;2d73&#45;4855&#45;a830&#45;f505b472a817</title>
<polygon fill="none" stroke="black" points="846.987,-628.614 748.987,-628.614 748.987,-530.614 846.987,-530.614 846.987,-628.614"/>
<text text-anchor="middle" x="797.987" y="-578.414" font-family="Times,serif" font-size="4.00">pr_f30cfecd&#45;2d73&#45;4855&#45;a830&#45;f505b472a817</text>
</g>
<!-- Orf10&#45;&gt;pr_f30cfecd&#45;2d73&#45;4855&#45;a830&#45;f505b472a817 -->
<g id="edge37" class="edge"><title>Orf10&#45;&gt;pr_f30cfecd&#45;2d73&#45;4855&#45;a830&#45;f505b472a817</title>
<path fill="none" stroke="black" d="M797.987,-664.48C797.987,-657.206 797.987,-648.26 797.987,-638.95"/>
<polygon fill="black" stroke="black" points="801.487,-638.766 797.987,-628.766 794.487,-638.766 801.487,-638.766"/>
</g>
<!-- E3 ubiquitin ligase complex -->
<g id="node30" class="node"><title>E3 ubiquitin ligase complex</title>
<ellipse fill="none" stroke="black" cx="797.987" cy="-456.43" rx="38.3684" ry="38.3684"/>
<text text-anchor="middle" x="797.987" y="-455.23" font-family="Times,serif" font-size="4.00">E3 ubiquitin ligase complex</text>
</g>
<!-- pr_f30cfecd&#45;2d73&#45;4855&#45;a830&#45;f505b472a817&#45;&gt;E3 ubiquitin ligase complex -->
<g id="edge38" class="edge"><title>pr_f30cfecd&#45;2d73&#45;4855&#45;a830&#45;f505b472a817&#45;&gt;E3 ubiquitin ligase complex</title>
<path fill="none" stroke="black" d="M791.363,-530.371C791.187,-521.83 791.196,-512.948 791.39,-504.442"/>
<polygon fill="black" stroke="black" points="794.893,-504.41 791.72,-494.302 787.897,-504.183 794.893,-504.41"/>
</g>
<!-- E3 ubiquitin ligase complex&#45;&gt;pr_f30cfecd&#45;2d73&#45;4855&#45;a830&#45;f505b472a817 -->
<g id="edge39" class="edge"><title>E3 ubiquitin ligase complex&#45;&gt;pr_f30cfecd&#45;2d73&#45;4855&#45;a830&#45;f505b472a817</title>
<path fill="none" stroke="black" d="M804.255,-494.302C804.604,-502.472 804.764,-511.325 804.734,-520.119"/>
<polygon fill="black" stroke="black" points="801.231,-520.329 804.611,-530.371 808.23,-520.413 801.231,-520.329"/>
</g>
</g>
</svg>
