<?xml version="1.0" encoding="UTF-8" standalone="no"?>
<!DOCTYPE svg PUBLIC "-//W3C//DTD SVG 1.1//EN"
 "http://www.w3.org/Graphics/SVG/1.1/DTD/svg11.dtd">
<!-- Generated by graphviz version 2.38.0 (20140413.2041)
 -->
<!-- Title: G Pages: 1 -->
<svg width="858pt" height="710pt"
 viewBox="0.00 0.00 857.96 709.61" xmlns="http://www.w3.org/2000/svg" xmlns:xlink="http://www.w3.org/1999/xlink">
<g id="graph0" class="graph" transform="scale(1 1) rotate(0) translate(4 705.614)">
<title>G</title>
<polygon fill="white" stroke="none" points="-4,4 -4,-705.614 853.962,-705.614 853.962,4 -4,4"/>
<!-- SMAD1/5/8 -->
<g id="node1" class="node"><title>SMAD1/5/8</title>
<ellipse fill="none" stroke="black" cx="41.962" cy="-455.43" rx="20.3062" ry="20.3062"/>
<text text-anchor="middle" x="41.962" y="-454.23" font-family="Times,serif" font-size="4.00">SMAD1/5/8</text>
</g>
<!-- pr_fa5bc814&#45;3c43&#45;4838&#45;bd00&#45;3d09acd37523 -->
<g id="node2" class="node"><title>pr_fa5bc814&#45;3c43&#45;4838&#45;bd00&#45;3d09acd37523</title>
<polygon fill="none" stroke="black" points="187.962,-381.246 87.962,-381.246 87.962,-281.246 187.962,-281.246 187.962,-381.246"/>
<text text-anchor="middle" x="137.962" y="-330.046" font-family="Times,serif" font-size="4.00">pr_fa5bc814&#45;3c43&#45;4838&#45;bd00&#45;3d09acd37523</text>
</g>
<!-- SMAD1/5/8&#45;&gt;pr_fa5bc814&#45;3c43&#45;4838&#45;bd00&#45;3d09acd37523 -->
<g id="edge1" class="edge"><title>SMAD1/5/8&#45;&gt;pr_fa5bc814&#45;3c43&#45;4838&#45;bd00&#45;3d09acd37523</title>
<path fill="none" stroke="black" d="M47.8447,-435.88C52.0425,-429.924 57.2137,-423.302 61.962,-417.246 68.9564,-408.326 76.375,-398.889 83.7472,-389.675"/>
<polygon fill="black" stroke="black" points="86.6595,-391.639 90.2021,-381.654 81.206,-387.25 86.6595,-391.639"/>
</g>
<!-- pr_fa5bc814&#45;3c43&#45;4838&#45;bd00&#45;3d09acd37523&#45;&gt;SMAD1/5/8 -->
<g id="edge2" class="edge"><title>pr_fa5bc814&#45;3c43&#45;4838&#45;bd00&#45;3d09acd37523&#45;&gt;SMAD1/5/8</title>
<path fill="none" stroke="black" d="M107.693,-381.654C98.7576,-393.316 89.0052,-405.712 79.962,-417.246 75.239,-423.27 70.0975,-429.854 65.0348,-435.785"/>
<polygon fill="black" stroke="black" points="62.3116,-433.579 58.2265,-443.354 67.5161,-438.26 62.3116,-433.579"/>
</g>
<!-- BAMBI -->
<g id="node3" class="node"><title>BAMBI</title>
<ellipse fill="none" stroke="black" cx="421.962" cy="-683.614" rx="18" ry="18"/>
<text text-anchor="middle" x="421.962" y="-682.414" font-family="Times,serif" font-size="4.00">BAMBI</text>
</g>
<!-- BAMBI&#45;&gt;pr_fa5bc814&#45;3c43&#45;4838&#45;bd00&#45;3d09acd37523 -->
<g id="edge3" class="edge"><title>BAMBI&#45;&gt;pr_fa5bc814&#45;3c43&#45;4838&#45;bd00&#45;3d09acd37523</title>
<path fill="none" stroke="black" d="M404.132,-680.904C337.891,-673.482 105.044,-637.603 12.962,-493.614 -5.32404,-465.02 -2.91595,-447.244 12.962,-417.246 27.067,-390.598 53.6883,-370.748 78.7506,-356.963"/>
<polygon fill="black" stroke="black" points="80.6664,-359.909 87.8874,-352.157 77.4077,-353.714 80.6664,-359.909"/>
</g>
<!-- pr_86778f5d&#45;926a&#45;482d&#45;83f4&#45;994bcdd79e4a -->
<g id="node10" class="node"><title>pr_86778f5d&#45;926a&#45;482d&#45;83f4&#45;994bcdd79e4a</title>
<polygon fill="none" stroke="black" points="421.462,-380.746 322.462,-380.746 322.462,-281.746 421.462,-281.746 421.462,-380.746"/>
<text text-anchor="middle" x="371.962" y="-330.046" font-family="Times,serif" font-size="4.00">pr_86778f5d&#45;926a&#45;482d&#45;83f4&#45;994bcdd79e4a</text>
</g>
<!-- BAMBI&#45;&gt;pr_86778f5d&#45;926a&#45;482d&#45;83f4&#45;994bcdd79e4a -->
<g id="edge4" class="edge"><title>BAMBI&#45;&gt;pr_86778f5d&#45;926a&#45;482d&#45;83f4&#45;994bcdd79e4a</title>
<path fill="none" stroke="black" d="M419.55,-665.715C412.556,-616.704 392.021,-472.804 380.339,-390.948"/>
<polygon fill="black" stroke="black" points="383.803,-390.446 378.925,-381.041 376.873,-391.435 383.803,-390.446"/>
</g>
<!-- pr_97090c79&#45;d043&#45;4ca0&#45;9401&#45;17043ca91f5c -->
<g id="node22" class="node"><title>pr_97090c79&#45;d043&#45;4ca0&#45;9401&#45;17043ca91f5c</title>
<polygon fill="none" stroke="black" points="539.962,-381.246 439.962,-381.246 439.962,-281.246 539.962,-281.246 539.962,-381.246"/>
<text text-anchor="middle" x="489.962" y="-330.046" font-family="Times,serif" font-size="4.00">pr_97090c79&#45;d043&#45;4ca0&#45;9401&#45;17043ca91f5c</text>
</g>
<!-- BAMBI&#45;&gt;pr_97090c79&#45;d043&#45;4ca0&#45;9401&#45;17043ca91f5c -->
<g id="edge5" class="edge"><title>BAMBI&#45;&gt;pr_97090c79&#45;d043&#45;4ca0&#45;9401&#45;17043ca91f5c</title>
<path fill="none" stroke="black" d="M431.125,-667.663C449.545,-636.625 490.533,-562.356 504.962,-493.614 511.972,-460.216 508.973,-422.242 503.875,-391.526"/>
<polygon fill="black" stroke="black" points="507.272,-390.638 502.077,-381.404 500.38,-391.862 507.272,-390.638"/>
</g>
<!-- pr_5ac77995&#45;22fd&#45;41e1&#45;a6bb&#45;7f70264dde24 -->
<g id="node24" class="node"><title>pr_5ac77995&#45;22fd&#45;41e1&#45;a6bb&#45;7f70264dde24</title>
<polygon fill="none" stroke="black" points="651.462,-629.114 552.462,-629.114 552.462,-530.114 651.462,-530.114 651.462,-629.114"/>
<text text-anchor="middle" x="601.962" y="-578.414" font-family="Times,serif" font-size="4.00">pr_5ac77995&#45;22fd&#45;41e1&#45;a6bb&#45;7f70264dde24</text>
</g>
<!-- BAMBI&#45;&gt;pr_5ac77995&#45;22fd&#45;41e1&#45;a6bb&#45;7f70264dde24 -->
<g id="edge6" class="edge"><title>BAMBI&#45;&gt;pr_5ac77995&#45;22fd&#45;41e1&#45;a6bb&#45;7f70264dde24</title>
<path fill="none" stroke="black" d="M438.687,-676.353C461.775,-667.407 504.368,-649.796 537.962,-629.614 539.911,-628.443 541.871,-627.223 543.832,-625.965"/>
<polygon fill="black" stroke="black" points="546.033,-628.704 552.409,-620.242 542.148,-622.881 546.033,-628.704"/>
</g>
<!-- BMPR1/2/ACTR2 -->
<g id="node4" class="node"><title>BMPR1/2/ACTR2</title>
<ellipse fill="none" stroke="black" cx="106.962" cy="-455.43" rx="26.533" ry="26.533"/>
<text text-anchor="middle" x="106.962" y="-454.23" font-family="Times,serif" font-size="4.00">BMPR1/2/ACTR2</text>
</g>
<!-- BMPR1/2/ACTR2&#45;&gt;pr_fa5bc814&#45;3c43&#45;4838&#45;bd00&#45;3d09acd37523 -->
<g id="edge7" class="edge"><title>BMPR1/2/ACTR2&#45;&gt;pr_fa5bc814&#45;3c43&#45;4838&#45;bd00&#45;3d09acd37523</title>
<path fill="none" stroke="black" d="M113.31,-429.409C116.132,-418.286 119.585,-404.676 123.003,-391.205"/>
<polygon fill="black" stroke="black" points="126.41,-392.011 125.476,-381.457 119.624,-390.29 126.41,-392.011"/>
</g>
<!-- MAPK3 -->
<g id="node5" class="node"><title>MAPK3</title>
<ellipse fill="none" stroke="black" cx="223.962" cy="-455.43" rx="18" ry="18"/>
<text text-anchor="middle" x="223.962" y="-454.23" font-family="Times,serif" font-size="4.00">MAPK3</text>
</g>
<!-- MAPK3&#45;&gt;pr_fa5bc814&#45;3c43&#45;4838&#45;bd00&#45;3d09acd37523 -->
<g id="edge8" class="edge"><title>MAPK3&#45;&gt;pr_fa5bc814&#45;3c43&#45;4838&#45;bd00&#45;3d09acd37523</title>
<path fill="none" stroke="black" d="M213.759,-439.934C204.883,-427.324 191.418,-408.194 178.287,-389.538"/>
<polygon fill="black" stroke="black" points="181.113,-387.472 172.495,-381.309 175.389,-391.501 181.113,-387.472"/>
</g>
<!-- MAPK3&#45;&gt;pr_86778f5d&#45;926a&#45;482d&#45;83f4&#45;994bcdd79e4a -->
<g id="edge9" class="edge"><title>MAPK3&#45;&gt;pr_86778f5d&#45;926a&#45;482d&#45;83f4&#45;994bcdd79e4a</title>
<path fill="none" stroke="black" d="M232.95,-439.784C237.781,-432.552 244.14,-423.962 250.962,-417.246 269.694,-398.805 292.799,-381.518 313.782,-367.411"/>
<polygon fill="black" stroke="black" points="315.906,-370.203 322.317,-361.767 312.045,-364.364 315.906,-370.203"/>
</g>
<!-- Orf3a -->
<g id="node6" class="node"><title>Orf3a</title>
<ellipse fill="none" stroke="black" cx="423.962" cy="-455.43" rx="18" ry="18"/>
<text text-anchor="middle" x="423.962" y="-454.23" font-family="Times,serif" font-size="4.00">Orf3a</text>
</g>
<!-- Orf3a&#45;&gt;pr_fa5bc814&#45;3c43&#45;4838&#45;bd00&#45;3d09acd37523 -->
<g id="edge10" class="edge"><title>Orf3a&#45;&gt;pr_fa5bc814&#45;3c43&#45;4838&#45;bd00&#45;3d09acd37523</title>
<path fill="none" stroke="black" d="M409.077,-445.046C396.123,-437.092 376.695,-425.668 358.962,-417.246 305.686,-391.944 242.712,-368.304 197.643,-352.411"/>
<polygon fill="black" stroke="black" points="198.617,-349.044 188.022,-349.04 196.303,-355.65 198.617,-349.044"/>
</g>
<!-- Orf3a&#45;&gt;pr_86778f5d&#45;926a&#45;482d&#45;83f4&#45;994bcdd79e4a -->
<g id="edge11" class="edge"><title>Orf3a&#45;&gt;pr_86778f5d&#45;926a&#45;482d&#45;83f4&#45;994bcdd79e4a</title>
<path fill="none" stroke="black" d="M417.164,-438.457C411.866,-426.008 404.164,-407.911 396.614,-390.171"/>
<polygon fill="black" stroke="black" points="399.83,-388.79 392.694,-380.959 393.389,-391.531 399.83,-388.79"/>
</g>
<!-- Orf3a&#45;&gt;pr_97090c79&#45;d043&#45;4ca0&#45;9401&#45;17043ca91f5c -->
<g id="edge12" class="edge"><title>Orf3a&#45;&gt;pr_97090c79&#45;d043&#45;4ca0&#45;9401&#45;17043ca91f5c</title>
<path fill="none" stroke="black" d="M432.321,-438.955C438.997,-426.597 448.798,-408.452 458.432,-390.618"/>
<polygon fill="black" stroke="black" points="461.763,-391.814 463.437,-381.352 455.605,-388.487 461.763,-391.814"/>
</g>
<!-- Nsp7b -->
<g id="node7" class="node"><title>Nsp7b</title>
<ellipse fill="none" stroke="black" cx="277.962" cy="-455.43" rx="18" ry="18"/>
<text text-anchor="middle" x="277.962" y="-454.23" font-family="Times,serif" font-size="4.00">Nsp7b</text>
</g>
<!-- Nsp7b&#45;&gt;pr_fa5bc814&#45;3c43&#45;4838&#45;bd00&#45;3d09acd37523 -->
<g id="edge13" class="edge"><title>Nsp7b&#45;&gt;pr_fa5bc814&#45;3c43&#45;4838&#45;bd00&#45;3d09acd37523</title>
<path fill="none" stroke="black" d="M268.881,-439.877C264.026,-432.669 257.674,-424.073 250.962,-417.246 234.619,-400.625 214.852,-384.639 196.451,-371.104"/>
<polygon fill="black" stroke="black" points="198.262,-368.095 188.11,-365.065 194.157,-373.764 198.262,-368.095"/>
</g>
<!-- Nsp7b&#45;&gt;pr_86778f5d&#45;926a&#45;482d&#45;83f4&#45;994bcdd79e4a -->
<g id="edge14" class="edge"><title>Nsp7b&#45;&gt;pr_86778f5d&#45;926a&#45;482d&#45;83f4&#45;994bcdd79e4a</title>
<path fill="none" stroke="black" d="M288.089,-440.208C293.101,-433.24 299.281,-424.753 304.962,-417.246 311.89,-408.091 319.328,-398.464 326.637,-389.112"/>
<polygon fill="black" stroke="black" points="329.595,-391.011 333.011,-380.982 324.086,-386.692 329.595,-391.011"/>
</g>
<!-- E -->
<g id="node8" class="node"><title>E</title>
<ellipse fill="none" stroke="black" cx="169.962" cy="-455.43" rx="18" ry="18"/>
<text text-anchor="middle" x="169.962" y="-454.23" font-family="Times,serif" font-size="4.00">E</text>
</g>
<!-- E&#45;&gt;pr_fa5bc814&#45;3c43&#45;4838&#45;bd00&#45;3d09acd37523 -->
<g id="edge15" class="edge"><title>E&#45;&gt;pr_fa5bc814&#45;3c43&#45;4838&#45;bd00&#45;3d09acd37523</title>
<path fill="none" stroke="black" d="M165.646,-437.952C162.466,-425.809 157.932,-408.496 153.451,-391.387"/>
<polygon fill="black" stroke="black" points="156.749,-390.165 150.83,-381.378 149.977,-391.938 156.749,-390.165"/>
</g>
<!-- SMAD2/3 -->
<g id="node9" class="node"><title>SMAD2/3</title>
<ellipse fill="none" stroke="black" cx="371.962" cy="-226.685" rx="18.6233" ry="18.6233"/>
<text text-anchor="middle" x="371.962" y="-225.485" font-family="Times,serif" font-size="4.00">SMAD2/3</text>
</g>
<!-- SMAD2/3&#45;&gt;pr_86778f5d&#45;926a&#45;482d&#45;83f4&#45;994bcdd79e4a -->
<g id="edge16" class="edge"><title>SMAD2/3&#45;&gt;pr_86778f5d&#45;926a&#45;482d&#45;83f4&#45;994bcdd79e4a</title>
<path fill="none" stroke="black" d="M377.141,-244.736C377.975,-252.293 378.477,-261.675 378.647,-271.43"/>
<polygon fill="black" stroke="black" points="375.148,-271.688 378.704,-281.669 382.148,-271.649 375.148,-271.688"/>
</g>
<!-- pr_86778f5d&#45;926a&#45;482d&#45;83f4&#45;994bcdd79e4a&#45;&gt;SMAD2/3 -->
<g id="edge17" class="edge"><title>pr_86778f5d&#45;926a&#45;482d&#45;83f4&#45;994bcdd79e4a&#45;&gt;SMAD2/3</title>
<path fill="none" stroke="black" d="M365.22,-281.669C365.163,-272.453 365.398,-263.12 365.924,-254.865"/>
<polygon fill="black" stroke="black" points="369.425,-254.996 366.783,-244.736 362.45,-254.404 369.425,-254.996"/>
</g>
<!-- TGFB/TGFBR -->
<g id="node11" class="node"><title>TGFB/TGFBR</title>
<ellipse fill="none" stroke="black" cx="601.962" cy="-455.43" rx="22.05" ry="22.05"/>
<text text-anchor="middle" x="601.962" y="-454.23" font-family="Times,serif" font-size="4.00">TGFB/TGFBR</text>
</g>
<!-- TGFB/TGFBR&#45;&gt;pr_86778f5d&#45;926a&#45;482d&#45;83f4&#45;994bcdd79e4a -->
<g id="edge18" class="edge"><title>TGFB/TGFBR&#45;&gt;pr_86778f5d&#45;926a&#45;482d&#45;83f4&#45;994bcdd79e4a</title>
<path fill="none" stroke="black" d="M581.433,-446.506C542.109,-431.188 457.687,-397.585 430.962,-381.246 430.77,-381.129 430.579,-381.011 430.387,-380.893"/>
<polygon fill="black" stroke="black" points="432.047,-377.795 421.768,-375.225 428.2,-383.644 432.047,-377.795"/>
</g>
<!-- pr_1f4cc106&#45;a479&#45;4d2a&#45;b134&#45;c44beeef470b -->
<g id="node15" class="node"><title>pr_1f4cc106&#45;a479&#45;4d2a&#45;b134&#45;c44beeef470b</title>
<polygon fill="none" stroke="black" points="657.462,-380.746 558.462,-380.746 558.462,-281.746 657.462,-281.746 657.462,-380.746"/>
<text text-anchor="middle" x="607.962" y="-330.046" font-family="Times,serif" font-size="4.00">pr_1f4cc106&#45;a479&#45;4d2a&#45;b134&#45;c44beeef470b</text>
</g>
<!-- TGFB/TGFBR&#45;&gt;pr_1f4cc106&#45;a479&#45;4d2a&#45;b134&#45;c44beeef470b -->
<g id="edge19" class="edge"><title>TGFB/TGFBR&#45;&gt;pr_1f4cc106&#45;a479&#45;4d2a&#45;b134&#45;c44beeef470b</title>
<path fill="none" stroke="black" d="M603.007,-433.147C603.583,-421.426 604.328,-406.241 605.066,-391.227"/>
<polygon fill="black" stroke="black" points="608.578,-391.064 605.573,-380.904 601.586,-390.72 608.578,-391.064"/>
</g>
<!-- pr_4d3e1682&#45;b754&#45;47e9&#45;b32c&#45;9c8cefd765cd -->
<g id="node18" class="node"><title>pr_4d3e1682&#45;b754&#45;47e9&#45;b32c&#45;9c8cefd765cd</title>
<polygon fill="none" stroke="black" points="775.962,-381.246 675.962,-381.246 675.962,-281.246 775.962,-281.246 775.962,-381.246"/>
<text text-anchor="middle" x="725.962" y="-330.046" font-family="Times,serif" font-size="4.00">pr_4d3e1682&#45;b754&#45;47e9&#45;b32c&#45;9c8cefd765cd</text>
</g>
<!-- TGFB/TGFBR&#45;&gt;pr_4d3e1682&#45;b754&#45;47e9&#45;b32c&#45;9c8cefd765cd -->
<g id="edge20" class="edge"><title>TGFB/TGFBR&#45;&gt;pr_4d3e1682&#45;b754&#45;47e9&#45;b32c&#45;9c8cefd765cd</title>
<path fill="none" stroke="black" d="M615.384,-437.354C620.675,-430.888 626.924,-423.566 632.962,-417.246 643.974,-405.721 656.253,-393.869 668.185,-382.811"/>
<polygon fill="black" stroke="black" points="670.56,-385.382 675.555,-376.039 665.824,-380.228 670.56,-385.382"/>
</g>
<!-- ACVR1 -->
<g id="node12" class="node"><title>ACVR1</title>
<ellipse fill="none" stroke="black" cx="331.962" cy="-455.43" rx="18" ry="18"/>
<text text-anchor="middle" x="331.962" y="-454.23" font-family="Times,serif" font-size="4.00">ACVR1</text>
</g>
<!-- ACVR1&#45;&gt;pr_86778f5d&#45;926a&#45;482d&#45;83f4&#45;994bcdd79e4a -->
<g id="edge21" class="edge"><title>ACVR1&#45;&gt;pr_86778f5d&#45;926a&#45;482d&#45;83f4&#45;994bcdd79e4a</title>
<path fill="none" stroke="black" d="M337.274,-438.205C341.326,-425.826 347.172,-407.971 352.912,-390.435"/>
<polygon fill="black" stroke="black" points="356.294,-391.355 356.079,-380.763 349.641,-389.177 356.294,-391.355"/>
</g>
<!-- ACVR1B -->
<g id="node13" class="node"><title>ACVR1B</title>
<ellipse fill="none" stroke="black" cx="477.962" cy="-455.43" rx="18.0625" ry="18.0625"/>
<text text-anchor="middle" x="477.962" y="-454.23" font-family="Times,serif" font-size="4.00">ACVR1B</text>
</g>
<!-- ACVR1B&#45;&gt;pr_86778f5d&#45;926a&#45;482d&#45;83f4&#45;994bcdd79e4a -->
<g id="edge22" class="edge"><title>ACVR1B&#45;&gt;pr_86778f5d&#45;926a&#45;482d&#45;83f4&#45;994bcdd79e4a</title>
<path fill="none" stroke="black" d="M468.097,-440.001C463.147,-432.984 456.943,-424.516 450.962,-417.246 443.084,-407.671 434.428,-397.787 425.823,-388.295"/>
<polygon fill="black" stroke="black" points="428.282,-385.797 418.949,-380.781 423.117,-390.522 428.282,-385.797"/>
</g>
<!-- RHOA -->
<g id="node14" class="node"><title>RHOA</title>
<ellipse fill="none" stroke="black" cx="607.962" cy="-226.685" rx="18" ry="18"/>
<text text-anchor="middle" x="607.962" y="-225.485" font-family="Times,serif" font-size="4.00">RHOA</text>
</g>
<!-- RHOA&#45;&gt;pr_1f4cc106&#45;a479&#45;4d2a&#45;b134&#45;c44beeef470b -->
<g id="edge23" class="edge"><title>RHOA&#45;&gt;pr_1f4cc106&#45;a479&#45;4d2a&#45;b134&#45;c44beeef470b</title>
<path fill="none" stroke="black" d="M613.088,-244.261C613.958,-251.937 614.479,-261.569 614.649,-271.584"/>
<polygon fill="black" stroke="black" points="611.15,-271.688 614.704,-281.669 618.15,-271.65 611.15,-271.688"/>
</g>
<!-- pr_1f4cc106&#45;a479&#45;4d2a&#45;b134&#45;c44beeef470b&#45;&gt;RHOA -->
<g id="edge24" class="edge"><title>pr_1f4cc106&#45;a479&#45;4d2a&#45;b134&#45;c44beeef470b&#45;&gt;RHOA</title>
<path fill="none" stroke="black" d="M601.22,-281.669C601.163,-272.309 601.405,-262.828 601.949,-254.479"/>
<polygon fill="black" stroke="black" points="605.458,-254.526 602.836,-244.261 598.484,-253.921 605.458,-254.526"/>
</g>
<!-- Nsp7 -->
<g id="node16" class="node"><title>Nsp7</title>
<ellipse fill="none" stroke="black" cx="659.962" cy="-455.43" rx="18" ry="18"/>
<text text-anchor="middle" x="659.962" y="-454.23" font-family="Times,serif" font-size="4.00">Nsp7</text>
</g>
<!-- Nsp7&#45;&gt;pr_1f4cc106&#45;a479&#45;4d2a&#45;b134&#45;c44beeef470b -->
<g id="edge25" class="edge"><title>Nsp7&#45;&gt;pr_1f4cc106&#45;a479&#45;4d2a&#45;b134&#45;c44beeef470b</title>
<path fill="none" stroke="black" d="M653.164,-438.457C647.866,-426.008 640.164,-407.911 632.614,-390.171"/>
<polygon fill="black" stroke="black" points="635.83,-388.79 628.694,-380.959 629.389,-391.531 635.83,-388.79"/>
</g>
<!-- PP2A -->
<g id="node17" class="node"><title>PP2A</title>
<ellipse fill="none" stroke="black" cx="725.962" cy="-226.685" rx="18" ry="18"/>
<text text-anchor="middle" x="725.962" y="-225.485" font-family="Times,serif" font-size="4.00">PP2A</text>
</g>
<!-- PP2A&#45;&gt;pr_4d3e1682&#45;b754&#45;47e9&#45;b32c&#45;9c8cefd765cd -->
<g id="edge26" class="edge"><title>PP2A&#45;&gt;pr_4d3e1682&#45;b754&#45;47e9&#45;b32c&#45;9c8cefd765cd</title>
<path fill="none" stroke="black" d="M731.062,-244.037C731.933,-251.617 732.459,-261.139 732.64,-271.064"/>
<polygon fill="black" stroke="black" points="729.14,-271.092 732.707,-281.068 736.14,-271.045 729.14,-271.092"/>
</g>
<!-- pr_d18bde0f&#45;ef09&#45;4dd7&#45;b21b&#45;869b041b2e3e -->
<g id="node21" class="node"><title>pr_d18bde0f&#45;ef09&#45;4dd7&#45;b21b&#45;869b041b2e3e</title>
<polygon fill="none" stroke="black" points="775.462,-172.123 676.462,-172.123 676.462,-73.1231 775.462,-73.1231 775.462,-172.123"/>
<text text-anchor="middle" x="725.962" y="-121.423" font-family="Times,serif" font-size="4.00">pr_d18bde0f&#45;ef09&#45;4dd7&#45;b21b&#45;869b041b2e3e</text>
</g>
<!-- PP2A&#45;&gt;pr_d18bde0f&#45;ef09&#45;4dd7&#45;b21b&#45;869b041b2e3e -->
<g id="edge27" class="edge"><title>PP2A&#45;&gt;pr_d18bde0f&#45;ef09&#45;4dd7&#45;b21b&#45;869b041b2e3e</title>
<path fill="none" stroke="black" d="M725.962,-208.371C725.962,-201.021 725.962,-191.98 725.962,-182.572"/>
<polygon fill="black" stroke="black" points="729.462,-182.281 725.962,-172.281 722.462,-182.281 729.462,-182.281"/>
</g>
<!-- pr_4d3e1682&#45;b754&#45;47e9&#45;b32c&#45;9c8cefd765cd&#45;&gt;PP2A -->
<g id="edge28" class="edge"><title>pr_4d3e1682&#45;b754&#45;47e9&#45;b32c&#45;9c8cefd765cd&#45;&gt;PP2A</title>
<path fill="none" stroke="black" d="M719.217,-281.068C719.172,-271.774 719.424,-262.388 719.971,-254.134"/>
<polygon fill="black" stroke="black" points="723.47,-254.306 720.862,-244.037 716.497,-253.691 723.47,-254.306"/>
</g>
<!-- Orf7a -->
<g id="node19" class="node"><title>Orf7a</title>
<ellipse fill="none" stroke="black" cx="725.962" cy="-455.43" rx="18" ry="18"/>
<text text-anchor="middle" x="725.962" y="-454.23" font-family="Times,serif" font-size="4.00">Orf7a</text>
</g>
<!-- Orf7a&#45;&gt;pr_4d3e1682&#45;b754&#45;47e9&#45;b32c&#45;9c8cefd765cd -->
<g id="edge29" class="edge"><title>Orf7a&#45;&gt;pr_4d3e1682&#45;b754&#45;47e9&#45;b32c&#45;9c8cefd765cd</title>
<path fill="none" stroke="black" d="M725.962,-437.183C725.962,-425.144 725.962,-408.304 725.962,-391.633"/>
<polygon fill="black" stroke="black" points="729.462,-391.319 725.962,-381.319 722.462,-391.319 729.462,-391.319"/>
</g>
<!-- RPS6KB1 -->
<g id="node20" class="node"><title>RPS6KB1</title>
<ellipse fill="none" stroke="black" cx="725.962" cy="-18.5616" rx="18.6233" ry="18.6233"/>
<text text-anchor="middle" x="725.962" y="-17.3616" font-family="Times,serif" font-size="4.00">RPS6KB1</text>
</g>
<!-- RPS6KB1&#45;&gt;pr_d18bde0f&#45;ef09&#45;4dd7&#45;b21b&#45;869b041b2e3e -->
<g id="edge30" class="edge"><title>RPS6KB1&#45;&gt;pr_d18bde0f&#45;ef09&#45;4dd7&#45;b21b&#45;869b041b2e3e</title>
<path fill="none" stroke="black" d="M731.128,-36.4149C731.962,-43.8885 732.467,-53.1721 732.642,-62.8356"/>
<polygon fill="black" stroke="black" points="729.143,-63.0056 732.705,-72.9836 736.143,-62.962 729.143,-63.0056"/>
</g>
<!-- pr_d18bde0f&#45;ef09&#45;4dd7&#45;b21b&#45;869b041b2e3e&#45;&gt;RPS6KB1 -->
<g id="edge31" class="edge"><title>pr_d18bde0f&#45;ef09&#45;4dd7&#45;b21b&#45;869b041b2e3e&#45;&gt;RPS6KB1</title>
<path fill="none" stroke="black" d="M719.219,-72.9836C719.168,-63.8448 719.407,-54.6034 719.935,-46.4354"/>
<polygon fill="black" stroke="black" points="723.427,-46.6778 720.796,-36.4149 716.453,-46.0787 723.427,-46.6778"/>
</g>
<!-- TGFB1 -->
<g id="node23" class="node"><title>TGFB1</title>
<ellipse fill="none" stroke="black" cx="574.962" cy="-683.614" rx="18" ry="18"/>
<text text-anchor="middle" x="574.962" y="-682.414" font-family="Times,serif" font-size="4.00">TGFB1</text>
</g>
<!-- TGFB1&#45;&gt;pr_5ac77995&#45;22fd&#45;41e1&#45;a6bb&#45;7f70264dde24 -->
<g id="edge32" class="edge"><title>TGFB1&#45;&gt;pr_5ac77995&#45;22fd&#45;41e1&#45;a6bb&#45;7f70264dde24</title>
<path fill="none" stroke="black" d="M579.421,-665.771C581.42,-658.217 583.909,-648.812 586.497,-639.036"/>
<polygon fill="black" stroke="black" points="589.928,-639.754 589.103,-629.191 583.161,-637.963 589.928,-639.754"/>
</g>
<!-- pr_5ac77995&#45;22fd&#45;41e1&#45;a6bb&#45;7f70264dde24&#45;&gt;TGFB/TGFBR -->
<g id="edge33" class="edge"><title>pr_5ac77995&#45;22fd&#45;41e1&#45;a6bb&#45;7f70264dde24&#45;&gt;TGFB/TGFBR</title>
<path fill="none" stroke="black" d="M601.962,-529.972C601.962,-515.831 601.962,-500.76 601.962,-487.966"/>
<polygon fill="black" stroke="black" points="605.462,-487.826 601.962,-477.826 598.462,-487.826 605.462,-487.826"/>
</g>
<!-- TGFBR -->
<g id="node25" class="node"><title>TGFBR</title>
<ellipse fill="none" stroke="black" cx="628.962" cy="-683.614" rx="18" ry="18"/>
<text text-anchor="middle" x="628.962" y="-682.414" font-family="Times,serif" font-size="4.00">TGFBR</text>
</g>
<!-- TGFBR&#45;&gt;pr_5ac77995&#45;22fd&#45;41e1&#45;a6bb&#45;7f70264dde24 -->
<g id="edge34" class="edge"><title>TGFBR&#45;&gt;pr_5ac77995&#45;22fd&#45;41e1&#45;a6bb&#45;7f70264dde24</title>
<path fill="none" stroke="black" d="M624.504,-665.771C622.504,-658.217 620.015,-648.812 617.427,-639.036"/>
<polygon fill="black" stroke="black" points="620.763,-637.963 614.821,-629.191 613.996,-639.754 620.763,-637.963"/>
</g>
<!-- LTBP1 -->
<g id="node26" class="node"><title>LTBP1</title>
<ellipse fill="none" stroke="black" cx="682.962" cy="-683.614" rx="18" ry="18"/>
<text text-anchor="middle" x="682.962" y="-682.414" font-family="Times,serif" font-size="4.00">LTBP1</text>
</g>
<!-- LTBP1&#45;&gt;pr_5ac77995&#45;22fd&#45;41e1&#45;a6bb&#45;7f70264dde24 -->
<g id="edge35" class="edge"><title>LTBP1&#45;&gt;pr_5ac77995&#45;22fd&#45;41e1&#45;a6bb&#45;7f70264dde24</title>
<path fill="none" stroke="black" d="M672.038,-668.858C665.308,-660.382 656.181,-648.89 646.741,-637.002"/>
<polygon fill="black" stroke="black" points="649.474,-634.815 640.514,-629.161 643.992,-639.169 649.474,-634.815"/>
</g>
<!-- Orf8 -->
<g id="node27" class="node"><title>Orf8</title>
<ellipse fill="none" stroke="black" cx="520.962" cy="-683.614" rx="18" ry="18"/>
<text text-anchor="middle" x="520.962" y="-682.414" font-family="Times,serif" font-size="4.00">Orf8</text>
</g>
<!-- Orf8&#45;&gt;pr_5ac77995&#45;22fd&#45;41e1&#45;a6bb&#45;7f70264dde24 -->
<g id="edge36" class="edge"><title>Orf8&#45;&gt;pr_5ac77995&#45;22fd&#45;41e1&#45;a6bb&#45;7f70264dde24</title>
<path fill="none" stroke="black" d="M531.886,-668.858C538.616,-660.382 547.743,-648.89 557.183,-637.002"/>
<polygon fill="black" stroke="black" points="559.932,-639.169 563.41,-629.161 554.45,-634.815 559.932,-639.169"/>
</g>
<!-- Orf10 -->
<g id="node28" class="node"><title>Orf10</title>
<ellipse fill="none" stroke="black" cx="799.962" cy="-683.614" rx="18" ry="18"/>
<text text-anchor="middle" x="799.962" y="-682.414" font-family="Times,serif" font-size="4.00">Orf10</text>
</g>
<!-- pr_7c60f1ee&#45;49b5&#45;4976&#45;be0d&#45;5971212b2d3e -->
<g id="node29" class="node"><title>pr_7c60f1ee&#45;49b5&#45;4976&#45;be0d&#45;5971212b2d3e</title>
<polygon fill="none" stroke="black" points="849.962,-629.614 749.962,-629.614 749.962,-529.614 849.962,-529.614 849.962,-629.614"/>
<text text-anchor="middle" x="799.962" y="-578.414" font-family="Times,serif" font-size="4.00">pr_7c60f1ee&#45;49b5&#45;4976&#45;be0d&#45;5971212b2d3e</text>
</g>
<!-- Orf10&#45;&gt;pr_7c60f1ee&#45;49b5&#45;4976&#45;be0d&#45;5971212b2d3e -->
<g id="edge37" class="edge"><title>Orf10&#45;&gt;pr_7c60f1ee&#45;49b5&#45;4976&#45;be0d&#45;5971212b2d3e</title>
<path fill="none" stroke="black" d="M799.962,-665.311C799.962,-658.048 799.962,-649.135 799.962,-639.848"/>
<polygon fill="black" stroke="black" points="803.462,-639.683 799.962,-629.683 796.462,-639.683 803.462,-639.683"/>
</g>
<!-- E3 ubiquitin ligase complex -->
<g id="node30" class="node"><title>E3 ubiquitin ligase complex</title>
<ellipse fill="none" stroke="black" cx="799.962" cy="-455.43" rx="38.3684" ry="38.3684"/>
<text text-anchor="middle" x="799.962" y="-454.23" font-family="Times,serif" font-size="4.00">E3 ubiquitin ligase complex</text>
</g>
<!-- pr_7c60f1ee&#45;49b5&#45;4976&#45;be0d&#45;5971212b2d3e&#45;&gt;E3 ubiquitin ligase complex -->
<g id="edge38" class="edge"><title>pr_7c60f1ee&#45;49b5&#45;4976&#45;be0d&#45;5971212b2d3e&#45;&gt;E3 ubiquitin ligase complex</title>
<path fill="none" stroke="black" d="M793.324,-529.269C793.159,-520.699 793.176,-511.809 793.377,-503.308"/>
<polygon fill="black" stroke="black" points="796.88,-503.289 793.713,-493.178 789.883,-503.057 796.88,-503.289"/>
</g>
<!-- E3 ubiquitin ligase complex&#45;&gt;pr_7c60f1ee&#45;49b5&#45;4976&#45;be0d&#45;5971212b2d3e -->
<g id="edge39" class="edge"><title>E3 ubiquitin ligase complex&#45;&gt;pr_7c60f1ee&#45;49b5&#45;4976&#45;be0d&#45;5971212b2d3e</title>
<path fill="none" stroke="black" d="M806.211,-493.178C806.565,-501.335 806.731,-510.184 806.71,-518.992"/>
<polygon fill="black" stroke="black" points="803.208,-519.232 806.6,-529.269 810.207,-519.307 803.208,-519.232"/>
</g>
</g>
</svg>
