<?xml version="1.0" encoding="UTF-8" standalone="no"?>
<!DOCTYPE svg PUBLIC "-//W3C//DTD SVG 1.1//EN"
 "http://www.w3.org/Graphics/SVG/1.1/DTD/svg11.dtd">
<!-- Generated by graphviz version 2.38.0 (20140413.2041)
 -->
<!-- Title: G Pages: 1 -->
<svg width="1412pt" height="1995pt"
 viewBox="0.00 0.00 1412.17 1995.36" xmlns="http://www.w3.org/2000/svg" xmlns:xlink="http://www.w3.org/1999/xlink">
<g id="graph0" class="graph" transform="scale(1 1) rotate(0) translate(4 1991.36)">
<title>G</title>
<polygon fill="white" stroke="none" points="-4,4 -4,-1991.36 1408.17,-1991.36 1408.17,4 -4,4"/>
<!-- Type I interferon signaling pathway -->
<g id="node1" class="node"><title>Type I interferon signaling pathway</title>
<ellipse fill="none" stroke="black" cx="207" cy="-1941.76" rx="45.717" ry="45.717"/>
<text text-anchor="middle" x="207" y="-1940.56" font-family="Times,serif" font-size="4.00">Type I interferon signaling pathway</text>
</g>
<!-- LY6E -->
<g id="node2" class="node"><title>LY6E</title>
<ellipse fill="none" stroke="black" cx="207" cy="-1842.15" rx="18" ry="18"/>
<text text-anchor="middle" x="207" y="-1840.95" font-family="Times,serif" font-size="4.00">LY6E</text>
</g>
<!-- Type I interferon signaling pathway&#45;&gt;LY6E -->
<g id="edge1" class="edge"><title>Type I interferon signaling pathway&#45;&gt;LY6E</title>
<path fill="none" stroke="black" d="M207,-1895.95C207,-1887.27 207,-1878.42 207,-1870.5"/>
<polygon fill="black" stroke="black" points="210.5,-1870.4 207,-1860.4 203.5,-1870.4 210.5,-1870.4"/>
</g>
<!-- M -->
<g id="node3" class="node"><title>M</title>
<ellipse fill="none" stroke="black" cx="184" cy="-1770.15" rx="18" ry="18"/>
<text text-anchor="middle" x="184" y="-1768.95" font-family="Times,serif" font-size="4.00">M</text>
</g>
<!-- LY6E&#45;&gt;M -->
<g id="edge3" class="edge"><title>LY6E&#45;&gt;M</title>
<path fill="none" stroke="black" d="M201.666,-1824.91C198.976,-1816.73 195.647,-1806.6 192.607,-1797.34"/>
<polygon fill="black" stroke="black" points="195.912,-1796.19 189.465,-1787.78 189.262,-1798.37 195.912,-1796.19"/>
</g>
<!-- E -->
<g id="node12" class="node"><title>E</title>
<ellipse fill="none" stroke="black" cx="230" cy="-1698.15" rx="18" ry="18"/>
<text text-anchor="middle" x="230" y="-1696.95" font-family="Times,serif" font-size="4.00">E</text>
</g>
<!-- LY6E&#45;&gt;E -->
<g id="edge2" class="edge"><title>LY6E&#45;&gt;E</title>
<path fill="none" stroke="black" d="M209.729,-1824.3C213.654,-1800.07 220.935,-1755.11 225.619,-1726.19"/>
<polygon fill="black" stroke="black" points="229.131,-1726.4 227.275,-1715.97 222.221,-1725.28 229.131,-1726.4"/>
</g>
<!-- Nucleocapsid -->
<g id="node27" class="node"><title>Nucleocapsid</title>
<ellipse fill="none" stroke="black" cx="682" cy="-1549.34" rx="22.6101" ry="22.6101"/>
<text text-anchor="middle" x="682" y="-1548.14" font-family="Times,serif" font-size="4.00">Nucleocapsid</text>
</g>
<!-- LY6E&#45;&gt;Nucleocapsid -->
<g id="edge5" class="edge"><title>LY6E&#45;&gt;Nucleocapsid</title>
<path fill="none" stroke="black" d="M222,-1831.96C289.472,-1790.66 565.408,-1621.72 654.28,-1567.31"/>
<polygon fill="black" stroke="black" points="656.294,-1570.18 662.995,-1561.98 652.639,-1564.21 656.294,-1570.18"/>
</g>
<!-- Orf7a -->
<g id="node37" class="node"><title>Orf7a</title>
<ellipse fill="none" stroke="black" cx="138" cy="-1626.15" rx="18" ry="18"/>
<text text-anchor="middle" x="138" y="-1624.95" font-family="Times,serif" font-size="4.00">Orf7a</text>
</g>
<!-- LY6E&#45;&gt;Orf7a -->
<g id="edge4" class="edge"><title>LY6E&#45;&gt;Orf7a</title>
<path fill="none" stroke="black" d="M192.977,-1830.64C181.237,-1820.99 165.135,-1805.57 157,-1788.15 136.779,-1744.84 135.024,-1688.15 136.134,-1654.89"/>
<polygon fill="black" stroke="black" points="139.646,-1654.7 136.598,-1644.55 132.653,-1654.39 139.646,-1654.7"/>
</g>
<!-- M&#45;&gt;E -->
<g id="edge6" class="edge"><title>M&#45;&gt;E</title>
<path fill="none" stroke="black" d="M189.061,-1752.56C194.586,-1742.48 202.98,-1729.55 210.849,-1718.94"/>
<polygon fill="black" stroke="black" points="213.624,-1721.07 216.982,-1711.02 208.09,-1716.78 213.624,-1721.07"/>
</g>
<!-- M&#45;&gt;Nucleocapsid -->
<g id="edge8" class="edge"><title>M&#45;&gt;Nucleocapsid</title>
<path fill="none" stroke="black" d="M182.828,-1752.11C182.433,-1732.29 184.923,-1699.8 203,-1680.15 339.905,-1531.31 455.287,-1642.17 645,-1572.15 648.148,-1570.99 651.332,-1569.56 654.443,-1568"/>
<polygon fill="black" stroke="black" points="656.381,-1570.92 663.445,-1563.03 652.998,-1564.79 656.381,-1570.92"/>
</g>
<!-- M&#45;&gt;Orf7a -->
<g id="edge7" class="edge"><title>M&#45;&gt;Orf7a</title>
<path fill="none" stroke="black" d="M174.943,-1754.49C164.431,-1730.78 148.806,-1683.68 141.249,-1653.89"/>
<polygon fill="black" stroke="black" points="144.649,-1653.06 138.934,-1644.14 137.838,-1654.67 144.649,-1653.06"/>
</g>
<!-- S -->
<g id="node4" class="node"><title>S</title>
<ellipse fill="none" stroke="black" cx="1122" cy="-231.068" rx="18" ry="18"/>
<text text-anchor="middle" x="1122" y="-229.868" font-family="Times,serif" font-size="4.00">S</text>
</g>
<!-- ACE2_SPIKE complex -->
<g id="node36" class="node"><title>ACE2_SPIKE complex</title>
<ellipse fill="none" stroke="black" cx="1187" cy="-145.248" rx="31.6406" ry="31.6406"/>
<text text-anchor="middle" x="1187" y="-144.048" font-family="Times,serif" font-size="4.00">ACE2_SPIKE complex</text>
</g>
<!-- S&#45;&gt;ACE2_SPIKE complex -->
<g id="edge9" class="edge"><title>S&#45;&gt;ACE2_SPIKE complex</title>
<path fill="none" stroke="black" d="M1132.73,-216.227C1140.54,-206.157 1151.45,-192.086 1161.45,-179.2"/>
<polygon fill="black" stroke="black" points="1164.48,-181.005 1167.84,-170.957 1158.94,-176.715 1164.48,-181.005"/>
</g>
<!-- FURIN -->
<g id="node5" class="node"><title>FURIN</title>
<ellipse fill="none" stroke="black" cx="1310" cy="-145.248" rx="18" ry="18"/>
<text text-anchor="middle" x="1310" y="-144.048" font-family="Times,serif" font-size="4.00">FURIN</text>
</g>
<!-- ACE2 (100 Kda) -->
<g id="node21" class="node"><title>ACE2 (100 Kda)</title>
<ellipse fill="none" stroke="black" cx="1321" cy="-38.7141" rx="25.4118" ry="25.4118"/>
<text text-anchor="middle" x="1321" y="-37.5141" font-family="Times,serif" font-size="4.00">ACE2 (100 Kda)</text>
</g>
<!-- FURIN&#45;&gt;ACE2 (100 Kda) -->
<g id="edge12" class="edge"><title>FURIN&#45;&gt;ACE2 (100 Kda)</title>
<path fill="none" stroke="black" d="M1311.82,-126.986C1313.33,-112.638 1315.52,-91.7747 1317.39,-74.0452"/>
<polygon fill="black" stroke="black" points="1320.87,-74.3527 1318.44,-64.0413 1313.91,-73.6201 1320.87,-74.3527"/>
</g>
<!-- S2 -->
<g id="node24" class="node"><title>S2</title>
<ellipse fill="none" stroke="black" cx="1092" cy="-38.7141" rx="18" ry="18"/>
<text text-anchor="middle" x="1092" y="-37.5141" font-family="Times,serif" font-size="4.00">S2</text>
</g>
<!-- FURIN&#45;&gt;S2 -->
<g id="edge13" class="edge"><title>FURIN&#45;&gt;S2</title>
<path fill="none" stroke="black" d="M1300.35,-130.047C1295.71,-124.166 1289.71,-117.729 1283,-113.428 1235.77,-83.1379 1213.86,-98.8468 1162,-77.4282 1146.19,-70.8978 1129.28,-61.8525 1116.05,-54.2572"/>
<polygon fill="black" stroke="black" points="1117.52,-51.0668 1107.12,-49.0396 1113.99,-57.1093 1117.52,-51.0668"/>
</g>
<!-- S1 -->
<g id="node32" class="node"><title>S1</title>
<ellipse fill="none" stroke="black" cx="1189" cy="-38.7141" rx="18" ry="18"/>
<text text-anchor="middle" x="1189" y="-37.5141" font-family="Times,serif" font-size="4.00">S1</text>
</g>
<!-- FURIN&#45;&gt;S1 -->
<g id="edge11" class="edge"><title>FURIN&#45;&gt;S1</title>
<path fill="none" stroke="black" d="M1299.58,-130.441C1294.9,-124.767 1289.06,-118.38 1283,-113.428 1258.03,-93.0187 1244.65,-98.2276 1220,-77.4282 1214.73,-72.9799 1209.68,-67.5488 1205.24,-62.2093"/>
<polygon fill="black" stroke="black" points="1207.75,-59.746 1198.82,-54.0483 1202.25,-64.0727 1207.75,-59.746"/>
</g>
<!-- ACE2 (15 Kda) -->
<g id="node33" class="node"><title>ACE2 (15 Kda)</title>
<ellipse fill="none" stroke="black" cx="1253" cy="-38.7141" rx="24.2908" ry="24.2908"/>
<text text-anchor="middle" x="1253" y="-37.5141" font-family="Times,serif" font-size="4.00">ACE2 (15 Kda)</text>
</g>
<!-- FURIN&#45;&gt;ACE2 (15 Kda) -->
<g id="edge10" class="edge"><title>FURIN&#45;&gt;ACE2 (15 Kda)</title>
<path fill="none" stroke="black" d="M1301.59,-128.824C1293.13,-113.303 1279.86,-88.9644 1269.32,-69.6425"/>
<polygon fill="black" stroke="black" points="1272.26,-67.7248 1264.4,-60.6208 1266.11,-71.076 1272.26,-67.7248"/>
</g>
<!-- SARS&#45;CoV&#45;2 accessory protein coding (+)sgmRNAs -->
<g id="node6" class="node"><title>SARS&#45;CoV&#45;2 accessory protein coding (+)sgmRNAs</title>
<ellipse fill="none" stroke="black" cx="395" cy="-472.212" rx="62.658" ry="62.658"/>
<text text-anchor="middle" x="395" y="-471.012" font-family="Times,serif" font-size="4.00">SARS&#45;CoV&#45;2 accessory protein coding (+)sgmRNAs</text>
</g>
<!-- SARS&#45;CoV&#45;2 accessory proteins -->
<g id="node16" class="node"><title>SARS&#45;CoV&#45;2 accessory proteins</title>
<ellipse fill="none" stroke="black" cx="385" cy="-326.964" rx="41.7924" ry="41.7924"/>
<text text-anchor="middle" x="385" y="-325.764" font-family="Times,serif" font-size="4.00">SARS&#45;CoV&#45;2 accessory proteins</text>
</g>
<!-- SARS&#45;CoV&#45;2 accessory protein coding (+)sgmRNAs&#45;&gt;SARS&#45;CoV&#45;2 accessory proteins -->
<g id="edge14" class="edge"><title>SARS&#45;CoV&#45;2 accessory protein coding (+)sgmRNAs&#45;&gt;SARS&#45;CoV&#45;2 accessory proteins</title>
<path fill="none" stroke="black" d="M390.701,-409.63C389.986,-399.387 389.251,-388.865 388.557,-378.923"/>
<polygon fill="black" stroke="black" points="392.039,-378.541 387.851,-368.809 385.056,-379.029 392.039,-378.541"/>
</g>
<!-- Nucleoporin_gRNA complex  -->
<g id="node7" class="node"><title>Nucleoporin_gRNA complex </title>
<ellipse fill="none" stroke="black" cx="152" cy="-38.7141" rx="38.9294" ry="38.9294"/>
<text text-anchor="middle" x="152" y="-37.5141" font-family="Times,serif" font-size="4.00">Nucleoporin_gRNA complex </text>
</g>
<!-- Nucleoporin_gRNA complex &#45;&gt;M -->
<g id="edge16" class="edge"><title>Nucleoporin_gRNA complex &#45;&gt;M</title>
<path fill="none" stroke="black" d="M117.433,-56.7993C94.4972,-69.6454 65.1944,-89.1708 46,-113.428 11.4213,-157.128 0,-174.342 0,-230.068 0,-1627.15 0,-1627.15 0,-1627.15 0,-1705.48 105.805,-1746.67 156.95,-1762"/>
<polygon fill="black" stroke="black" points="156.112,-1765.4 166.69,-1764.8 158.049,-1758.67 156.112,-1765.4"/>
</g>
<!-- Nucleoporin_gRNA complex &#45;&gt;E -->
<g id="edge15" class="edge"><title>Nucleoporin_gRNA complex &#45;&gt;E</title>
<path fill="none" stroke="black" d="M152,-77.6361C152,-116.054 152,-177.192 152,-230.068 152,-923.275 152,-923.275 152,-923.275 152,-1100.83 114,-1143.4 114,-1320.96 114,-1459.19 114,-1459.19 114,-1459.19 114,-1504.94 184.17,-1623.47 215.359,-1673.89"/>
<polygon fill="black" stroke="black" points="212.449,-1675.84 220.703,-1682.48 218.392,-1672.14 212.449,-1675.84"/>
</g>
<!-- Nucleoporin_gRNA complex &#45;&gt;Nucleocapsid -->
<g id="edge18" class="edge"><title>Nucleoporin_gRNA complex &#45;&gt;Nucleocapsid</title>
<path fill="none" stroke="black" d="M140.392,-75.7789C129.217,-113.748 114,-175.474 114,-230.068 114,-923.275 114,-923.275 114,-923.275 114,-1281.41 153.11,-1403.3 272,-1490.54 331.947,-1534.53 562.744,-1545.17 649.12,-1547.63"/>
<polygon fill="black" stroke="black" points="649.061,-1551.13 659.151,-1547.9 649.248,-1544.14 649.061,-1551.13"/>
</g>
<!-- Nucleoporin_gRNA complex &#45;&gt;Orf7a -->
<g id="edge17" class="edge"><title>Nucleoporin_gRNA complex &#45;&gt;Orf7a</title>
<path fill="none" stroke="black" d="M123.82,-65.7524C90.0616,-99.9246 38,-163.427 38,-230.068 38,-1459.19 38,-1459.19 38,-1459.19 38,-1520.33 88.4088,-1578.31 117.647,-1606.8"/>
<polygon fill="black" stroke="black" points="115.265,-1609.36 124.927,-1613.71 120.084,-1604.28 115.265,-1609.36"/>
</g>
<!-- Replication transcription complex_N oligomer -->
<g id="node8" class="node"><title>Replication transcription complex_N oligomer</title>
<ellipse fill="none" stroke="black" cx="389" cy="-791.346" rx="56.9917" ry="56.9917"/>
<text text-anchor="middle" x="389" y="-790.146" font-family="Times,serif" font-size="4.00">Replication transcription complex_N oligomer</text>
</g>
<!-- Replication transcription complex -->
<g id="node18" class="node"><title>Replication transcription complex</title>
<ellipse fill="none" stroke="black" cx="559" cy="-637.082" rx="44.0348" ry="44.0348"/>
<text text-anchor="middle" x="559" y="-635.882" font-family="Times,serif" font-size="4.00">Replication transcription complex</text>
</g>
<!-- Replication transcription complex_N oligomer&#45;&gt;Replication transcription complex -->
<g id="edge19" class="edge"><title>Replication transcription complex_N oligomer&#45;&gt;Replication transcription complex</title>
<path fill="none" stroke="black" d="M431.022,-752.707C457.87,-728.661 492.479,-697.663 518.936,-673.966"/>
<polygon fill="black" stroke="black" points="521.404,-676.455 526.518,-667.176 516.733,-671.24 521.404,-676.455"/>
</g>
<!-- N -->
<g id="node19" class="node"><title>N</title>
<ellipse fill="none" stroke="black" cx="389" cy="-922.275" rx="18" ry="18"/>
<text text-anchor="middle" x="389" y="-921.075" font-family="Times,serif" font-size="4.00">N</text>
</g>
<!-- Replication transcription complex_N oligomer&#45;&gt;N -->
<g id="edge20" class="edge"><title>Replication transcription complex_N oligomer&#45;&gt;N</title>
<path fill="none" stroke="black" d="M395.69,-847.712C395.906,-863.974 395.539,-881.025 394.589,-894.611"/>
<polygon fill="black" stroke="black" points="391.093,-894.415 393.702,-904.684 398.066,-895.029 391.093,-894.415"/>
</g>
<!-- SARS&#45;CoV&#45;2 structural proteins -->
<g id="node9" class="node"><title>SARS&#45;CoV&#45;2 structural proteins</title>
<ellipse fill="none" stroke="black" cx="1111" cy="-326.964" rx="41.2319" ry="41.2319"/>
<text text-anchor="middle" x="1111" y="-325.764" font-family="Times,serif" font-size="4.00">SARS&#45;CoV&#45;2 structural proteins</text>
</g>
<!-- SARS&#45;CoV&#45;2 structural proteins&#45;&gt;M -->
<g id="edge22" class="edge"><title>SARS&#45;CoV&#45;2 structural proteins&#45;&gt;M</title>
<path fill="none" stroke="black" d="M1115.72,-368.274C1122.18,-427.065 1133,-539.818 1133,-636.082 1133,-1627.15 1133,-1627.15 1133,-1627.15 1133,-1722.73 370.356,-1761.06 212.418,-1767.97"/>
<polygon fill="black" stroke="black" points="211.95,-1764.49 202.11,-1768.41 212.251,-1771.48 211.95,-1764.49"/>
</g>
<!-- SARS&#45;CoV&#45;2 structural proteins&#45;&gt;S -->
<g id="edge23" class="edge"><title>SARS&#45;CoV&#45;2 structural proteins&#45;&gt;S</title>
<path fill="none" stroke="black" d="M1115.73,-285.599C1116.77,-276.751 1117.84,-267.585 1118.8,-259.392"/>
<polygon fill="black" stroke="black" points="1122.3,-259.629 1119.98,-249.29 1115.34,-258.815 1122.3,-259.629"/>
</g>
<!-- SARS&#45;CoV&#45;2 structural proteins&#45;&gt;E -->
<g id="edge21" class="edge"><title>SARS&#45;CoV&#45;2 structural proteins&#45;&gt;E</title>
<path fill="none" stroke="black" d="M1099.68,-366.977C1083.85,-425.086 1057,-538.056 1057,-636.082 1057,-1550.34 1057,-1550.34 1057,-1550.34 1057,-1593.38 1066.1,-1616.65 1033,-1644.15 972.308,-1694.56 393.544,-1697.27 258.207,-1697.21"/>
<polygon fill="black" stroke="black" points="258.209,-1693.71 248.206,-1697.2 258.202,-1700.71 258.209,-1693.71"/>
</g>
<!-- CTSB -->
<g id="node10" class="node"><title>CTSB</title>
<ellipse fill="none" stroke="black" cx="1065" cy="-145.248" rx="18" ry="18"/>
<text text-anchor="middle" x="1065" y="-144.048" font-family="Times,serif" font-size="4.00">CTSB</text>
</g>
<!-- CTSB&#45;&gt;S2 -->
<g id="edge25" class="edge"><title>CTSB&#45;&gt;S2</title>
<path fill="none" stroke="black" d="M1069.34,-127.453C1073.61,-110.917 1080.2,-85.4138 1085.17,-66.1568"/>
<polygon fill="black" stroke="black" points="1088.56,-67.0252 1087.67,-56.4676 1081.78,-65.2745 1088.56,-67.0252"/>
</g>
<!-- CTSB&#45;&gt;S1 -->
<g id="edge24" class="edge"><title>CTSB&#45;&gt;S1</title>
<path fill="none" stroke="black" d="M1076.01,-130.51C1080.7,-124.972 1086.38,-118.668 1092,-113.428 1115.71,-91.3102 1145.81,-69.2463 1166.15,-55.1044"/>
<polygon fill="black" stroke="black" points="1168.22,-57.9235 1174.48,-49.3721 1164.26,-52.1565 1168.22,-57.9235"/>
</g>
<!-- Replication transcription complex_SARS&#45;CoV&#45;2 (+)gRNA -->
<g id="node11" class="node"><title>Replication transcription complex_SARS&#45;CoV&#45;2 (+)gRNA</title>
<ellipse fill="none" stroke="black" cx="559" cy="-1321.96" rx="67.7647" ry="67.7647"/>
<text text-anchor="middle" x="559" y="-1320.76" font-family="Times,serif" font-size="4.00">Replication transcription complex_SARS&#45;CoV&#45;2 (+)gRNA</text>
</g>
<!-- N (&#45;)sgmRNA -->
<g id="node13" class="node"><title>N (&#45;)sgmRNA</title>
<ellipse fill="none" stroke="black" cx="460" cy="-1156.56" rx="22.6101" ry="22.6101"/>
<text text-anchor="middle" x="460" y="-1155.36" font-family="Times,serif" font-size="4.00">N (&#45;)sgmRNA</text>
</g>
<!-- Replication transcription complex_SARS&#45;CoV&#45;2 (+)gRNA&#45;&gt;N (&#45;)sgmRNA -->
<g id="edge26" class="edge"><title>Replication transcription complex_SARS&#45;CoV&#45;2 (+)gRNA&#45;&gt;N (&#45;)sgmRNA</title>
<path fill="none" stroke="black" d="M524.096,-1263.35C508.022,-1236.82 489.692,-1206.56 476.763,-1185.22"/>
<polygon fill="black" stroke="black" points="479.751,-1183.4 471.575,-1176.66 473.764,-1187.03 479.751,-1183.4"/>
</g>
<!-- Replication transcription complex_SARS&#45;CoV&#45;2 (+)gRNA&#45;&gt;Replication transcription complex -->
<g id="edge28" class="edge"><title>Replication transcription complex_SARS&#45;CoV&#45;2 (+)gRNA&#45;&gt;Replication transcription complex</title>
<path fill="none" stroke="black" d="M551.903,-1254.22C550,-1195 550,-1106.11 550,-1028.75 550,-1028.75 550,-1028.75 550,-921.275 550,-840.971 550,-747.858 552.338,-690.971"/>
<polygon fill="black" stroke="black" points="555.843,-690.931 552.802,-680.782 548.85,-690.612 555.843,-690.931"/>
</g>
<!-- SARS&#45;CoV&#45;2 structural protein coding (&#45;)sgmRNAs -->
<g id="node22" class="node"><title>SARS&#45;CoV&#45;2 structural protein coding (&#45;)sgmRNAs</title>
<ellipse fill="none" stroke="black" cx="853" cy="-637.082" rx="61.5366" ry="61.5366"/>
<text text-anchor="middle" x="853" y="-635.882" font-family="Times,serif" font-size="4.00">SARS&#45;CoV&#45;2 structural protein coding (&#45;)sgmRNAs</text>
</g>
<!-- Replication transcription complex_SARS&#45;CoV&#45;2 (+)gRNA&#45;&gt;SARS&#45;CoV&#45;2 structural protein coding (&#45;)sgmRNAs -->
<g id="edge27" class="edge"><title>Replication transcription complex_SARS&#45;CoV&#45;2 (+)gRNA&#45;&gt;SARS&#45;CoV&#45;2 structural protein coding (&#45;)sgmRNAs</title>
<path fill="none" stroke="black" d="M610.543,-1277.58C679.819,-1215.58 799.83,-1094.23 848,-960.459 877.853,-877.555 872.882,-774.711 864.627,-707.798"/>
<polygon fill="black" stroke="black" points="868.086,-707.254 863.334,-697.784 861.144,-708.15 868.086,-707.254"/>
</g>
<!-- SARS&#45;CoV&#45;2 accessory protein coding (&#45;)sgmRNAs -->
<g id="node25" class="node"><title>SARS&#45;CoV&#45;2 accessory protein coding (&#45;)sgmRNAs</title>
<ellipse fill="none" stroke="black" cx="357" cy="-1156.56" rx="61.5366" ry="61.5366"/>
<text text-anchor="middle" x="357" y="-1155.36" font-family="Times,serif" font-size="4.00">SARS&#45;CoV&#45;2 accessory protein coding (&#45;)sgmRNAs</text>
</g>
<!-- Replication transcription complex_SARS&#45;CoV&#45;2 (+)gRNA&#45;&gt;SARS&#45;CoV&#45;2 accessory protein coding (&#45;)sgmRNAs -->
<g id="edge29" class="edge"><title>Replication transcription complex_SARS&#45;CoV&#45;2 (+)gRNA&#45;&gt;SARS&#45;CoV&#45;2 accessory protein coding (&#45;)sgmRNAs</title>
<path fill="none" stroke="black" d="M505.712,-1279.89C481.777,-1261.24 453.29,-1238.77 428,-1218.07 422.485,-1213.56 416.768,-1208.81 411.082,-1204.04"/>
<polygon fill="black" stroke="black" points="413.271,-1201.31 403.369,-1197.54 408.76,-1206.66 413.271,-1201.31"/>
</g>
<!--  SARS&#45;CoV&#45;2 (&#45;)gRNA -->
<g id="node39" class="node"><title> SARS&#45;CoV&#45;2 (&#45;)gRNA</title>
<ellipse fill="none" stroke="black" cx="491" cy="-1027.75" rx="31.0804" ry="31.0804"/>
<text text-anchor="middle" x="491" y="-1026.55" font-family="Times,serif" font-size="4.00"> SARS&#45;CoV&#45;2 (&#45;)gRNA</text>
</g>
<!-- Replication transcription complex_SARS&#45;CoV&#45;2 (+)gRNA&#45;&gt; SARS&#45;CoV&#45;2 (&#45;)gRNA -->
<g id="edge30" class="edge"><title>Replication transcription complex_SARS&#45;CoV&#45;2 (+)gRNA&#45;&gt; SARS&#45;CoV&#45;2 (&#45;)gRNA</title>
<path fill="none" stroke="black" d="M543.824,-1255.74C530.477,-1198.39 511.479,-1116.75 500.276,-1068.61"/>
<polygon fill="black" stroke="black" points="503.617,-1067.52 497.942,-1058.58 496.799,-1069.11 503.617,-1067.52"/>
</g>
<!-- E&#45;&gt;M -->
<g id="edge31" class="edge"><title>E&#45;&gt;M</title>
<path fill="none" stroke="black" d="M225.041,-1715.55C219.526,-1725.64 211.092,-1738.65 203.184,-1749.32"/>
<polygon fill="black" stroke="black" points="200.377,-1747.22 197.02,-1757.27 205.911,-1751.51 200.377,-1747.22"/>
</g>
<!-- E&#45;&gt;Nucleocapsid -->
<g id="edge33" class="edge"><title>E&#45;&gt;Nucleocapsid</title>
<path fill="none" stroke="black" d="M247.525,-1693.46C305.705,-1680.89 497.138,-1636.86 645,-1572.15 648.074,-1570.8 651.21,-1569.26 654.292,-1567.62"/>
<polygon fill="black" stroke="black" points="656.268,-1570.53 663.258,-1562.56 652.829,-1564.43 656.268,-1570.53"/>
</g>
<!-- E&#45;&gt;Orf7a -->
<g id="edge32" class="edge"><title>E&#45;&gt;Orf7a</title>
<path fill="none" stroke="black" d="M214.531,-1688.84C198.705,-1678.51 174.558,-1660.53 157.5,-1646.64"/>
<polygon fill="black" stroke="black" points="159.689,-1643.91 149.764,-1640.2 155.21,-1649.29 159.689,-1643.91"/>
</g>
<!-- N (+)sgmRNA -->
<g id="node15" class="node"><title>N (+)sgmRNA</title>
<ellipse fill="none" stroke="black" cx="418" cy="-1027.75" rx="23.1702" ry="23.1702"/>
<text text-anchor="middle" x="418" y="-1026.55" font-family="Times,serif" font-size="4.00">N (+)sgmRNA</text>
</g>
<!-- N (&#45;)sgmRNA&#45;&gt;N (+)sgmRNA -->
<g id="edge34" class="edge"><title>N (&#45;)sgmRNA&#45;&gt;N (+)sgmRNA</title>
<path fill="none" stroke="black" d="M453.065,-1134.62C446.326,-1114.27 436.013,-1083.13 428.313,-1059.88"/>
<polygon fill="black" stroke="black" points="431.553,-1058.54 425.086,-1050.14 424.908,-1060.74 431.553,-1058.54"/>
</g>
<!--  SARS&#45;CoV&#45;2 (+)gRNA -->
<g id="node14" class="node"><title> SARS&#45;CoV&#45;2 (+)gRNA</title>
<ellipse fill="none" stroke="black" cx="682" cy="-1458.19" rx="32.201" ry="32.201"/>
<text text-anchor="middle" x="682" y="-1456.99" font-family="Times,serif" font-size="4.00"> SARS&#45;CoV&#45;2 (+)gRNA</text>
</g>
<!--  SARS&#45;CoV&#45;2 (+)gRNA&#45;&gt;Nucleoporin_gRNA complex  -->
<g id="edge35" class="edge"><title> SARS&#45;CoV&#45;2 (+)gRNA&#45;&gt;Nucleoporin_gRNA complex </title>
<path fill="none" stroke="black" d="M650.24,-1450.59C609.375,-1441.21 537.095,-1421.55 482,-1389.84 381.61,-1332.06 339.017,-1321.06 286,-1218.07 167.421,-987.746 228,-897.142 228,-638.082 228,-638.082 228,-638.082 228,-230.068 228,-175.285 200.514,-117.55 178.601,-80.226"/>
<polygon fill="black" stroke="black" points="181.322,-77.9585 173.17,-71.1908 175.322,-81.5648 181.322,-77.9585"/>
</g>
<!--  SARS&#45;CoV&#45;2 (+)gRNA&#45;&gt;Replication transcription complex_SARS&#45;CoV&#45;2 (+)gRNA -->
<g id="edge37" class="edge"><title> SARS&#45;CoV&#45;2 (+)gRNA&#45;&gt;Replication transcription complex_SARS&#45;CoV&#45;2 (+)gRNA</title>
<path fill="none" stroke="black" d="M660.575,-1433.81C646.903,-1418.89 628.552,-1398.86 611.209,-1379.93"/>
<polygon fill="black" stroke="black" points="613.706,-1377.48 604.369,-1372.47 608.545,-1382.21 613.706,-1377.48"/>
</g>
<!-- SARS&#45;CoV&#45;2 polyprotein 1ab -->
<g id="node17" class="node"><title>SARS&#45;CoV&#45;2 polyprotein 1ab</title>
<ellipse fill="none" stroke="black" cx="682" cy="-922.275" rx="38.3684" ry="38.3684"/>
<text text-anchor="middle" x="682" y="-921.075" font-family="Times,serif" font-size="4.00">SARS&#45;CoV&#45;2 polyprotein 1ab</text>
</g>
<!--  SARS&#45;CoV&#45;2 (+)gRNA&#45;&gt;SARS&#45;CoV&#45;2 polyprotein 1ab -->
<g id="edge38" class="edge"><title> SARS&#45;CoV&#45;2 (+)gRNA&#45;&gt;SARS&#45;CoV&#45;2 polyprotein 1ab</title>
<path fill="none" stroke="black" d="M682,-1425.78C682,-1336.01 682,-1077.87 682,-970.748"/>
<polygon fill="black" stroke="black" points="685.5,-970.561 682,-960.561 678.5,-970.561 685.5,-970.561"/>
</g>
<!-- SARS&#45;CoV&#45;2 polyprotein 1a -->
<g id="node23" class="node"><title>SARS&#45;CoV&#45;2 polyprotein 1a</title>
<ellipse fill="none" stroke="black" cx="802" cy="-922.275" rx="37.2466" ry="37.2466"/>
<text text-anchor="middle" x="802" y="-921.075" font-family="Times,serif" font-size="4.00">SARS&#45;CoV&#45;2 polyprotein 1a</text>
</g>
<!--  SARS&#45;CoV&#45;2 (+)gRNA&#45;&gt;SARS&#45;CoV&#45;2 polyprotein 1a -->
<g id="edge36" class="edge"><title> SARS&#45;CoV&#45;2 (+)gRNA&#45;&gt;SARS&#45;CoV&#45;2 polyprotein 1a</title>
<path fill="none" stroke="black" d="M688.883,-1426.57C709.029,-1336.93 767.954,-1074.76 791.803,-968.642"/>
<polygon fill="black" stroke="black" points="795.289,-969.097 794.067,-958.573 788.459,-967.562 795.289,-969.097"/>
</g>
<!-- N (+)sgmRNA&#45;&gt;N -->
<g id="edge39" class="edge"><title>N (+)sgmRNA&#45;&gt;N</title>
<path fill="none" stroke="black" d="M411.921,-1005.06C407.409,-988.96 401.234,-966.925 396.429,-949.783"/>
<polygon fill="black" stroke="black" points="399.711,-948.523 393.642,-939.839 392.971,-950.412 399.711,-948.523"/>
</g>
<!-- SARS&#45;CoV&#45;2 accessory proteins&#45;&gt;Orf7a -->
<g id="edge40" class="edge"><title>SARS&#45;CoV&#45;2 accessory proteins&#45;&gt;Orf7a</title>
<path fill="none" stroke="black" d="M356.081,-357.654C344.332,-371.132 331.541,-387.849 323,-404.86 216.654,-616.669 190,-684.267 190,-921.275 190,-1028.75 190,-1028.75 190,-1028.75 190,-1249.3 154.272,-1513.99 142.046,-1598.11"/>
<polygon fill="black" stroke="black" points="138.567,-1597.71 140.579,-1608.12 145.493,-1598.73 138.567,-1597.71"/>
</g>
<!-- SARS&#45;CoV&#45;2 pp1a and pp1ab products -->
<g id="node34" class="node"><title>SARS&#45;CoV&#45;2 pp1a and pp1ab products</title>
<ellipse fill="none" stroke="black" cx="737" cy="-791.346" rx="47.9605" ry="47.9605"/>
<text text-anchor="middle" x="737" y="-790.146" font-family="Times,serif" font-size="4.00">SARS&#45;CoV&#45;2 pp1a and pp1ab products</text>
</g>
<!-- SARS&#45;CoV&#45;2 polyprotein 1ab&#45;&gt;SARS&#45;CoV&#45;2 pp1a and pp1ab products -->
<g id="edge41" class="edge"><title>SARS&#45;CoV&#45;2 polyprotein 1ab&#45;&gt;SARS&#45;CoV&#45;2 pp1a and pp1ab products</title>
<path fill="none" stroke="black" d="M696.739,-886.724C702.168,-873.997 708.45,-859.271 714.413,-845.292"/>
<polygon fill="black" stroke="black" points="717.772,-846.339 718.477,-835.768 711.333,-843.592 717.772,-846.339"/>
</g>
<!-- SARS&#45;CoV&#45;2 pp1ab products -->
<g id="node35" class="node"><title>SARS&#45;CoV&#45;2 pp1ab products</title>
<ellipse fill="none" stroke="black" cx="634" cy="-791.346" rx="37.8075" ry="37.8075"/>
<text text-anchor="middle" x="634" y="-790.146" font-family="Times,serif" font-size="4.00">SARS&#45;CoV&#45;2 pp1ab products</text>
</g>
<!-- SARS&#45;CoV&#45;2 polyprotein 1ab&#45;&gt;SARS&#45;CoV&#45;2 pp1ab products -->
<g id="edge42" class="edge"><title>SARS&#45;CoV&#45;2 polyprotein 1ab&#45;&gt;SARS&#45;CoV&#45;2 pp1ab products</title>
<path fill="none" stroke="black" d="M668.884,-886.044C663.229,-870.856 656.552,-852.92 650.56,-836.828"/>
<polygon fill="black" stroke="black" points="653.703,-835.238 646.934,-827.087 647.143,-837.68 653.703,-835.238"/>
</g>
<!-- Replication transcription complex&#45;&gt;SARS&#45;CoV&#45;2 accessory protein coding (+)sgmRNAs -->
<g id="edge44" class="edge"><title>Replication transcription complex&#45;&gt;SARS&#45;CoV&#45;2 accessory protein coding (+)sgmRNAs</title>
<path fill="none" stroke="black" d="M528.153,-605.447C505.169,-582.622 473.257,-550.93 446.436,-524.294"/>
<polygon fill="black" stroke="black" points="448.58,-521.49 439.018,-516.927 443.647,-526.457 448.58,-521.49"/>
</g>
<!-- Replication transcription complex&#45;&gt;Replication transcription complex_SARS&#45;CoV&#45;2 (+)gRNA -->
<g id="edge43" class="edge"><title>Replication transcription complex&#45;&gt;Replication transcription complex_SARS&#45;CoV&#45;2 (+)gRNA</title>
<path fill="none" stroke="black" d="M565.198,-680.782C568,-736.218 568,-835.973 568,-921.275 568,-1028.75 568,-1028.75 568,-1028.75 568,-1101.73 568,-1184.97 566.403,-1243.88"/>
<polygon fill="black" stroke="black" points="562.894,-1244.13 566.097,-1254.22 569.891,-1244.33 562.894,-1244.13"/>
</g>
<!-- Replication transcription complex&#45;&gt;N (+)sgmRNA -->
<g id="edge45" class="edge"><title>Replication transcription complex&#45;&gt;N (+)sgmRNA</title>
<path fill="none" stroke="black" d="M544.289,-678.634C515.952,-756.743 454.374,-926.482 429.133,-996.06"/>
<polygon fill="black" stroke="black" points="425.801,-994.981 425.681,-1005.58 432.381,-997.369 425.801,-994.981"/>
</g>
<!-- Replication transcription complex_SARS&#45;CoV&#45;2 (&#45;)gRNA -->
<g id="node29" class="node"><title>Replication transcription complex_SARS&#45;CoV&#45;2 (&#45;)gRNA</title>
<ellipse fill="none" stroke="black" cx="559" cy="-472.212" rx="67.2042" ry="67.2042"/>
<text text-anchor="middle" x="559" y="-471.012" font-family="Times,serif" font-size="4.00">Replication transcription complex_SARS&#45;CoV&#45;2 (&#45;)gRNA</text>
</g>
<!-- Replication transcription complex&#45;&gt;Replication transcription complex_SARS&#45;CoV&#45;2 (&#45;)gRNA -->
<g id="edge46" class="edge"><title>Replication transcription complex&#45;&gt;Replication transcription complex_SARS&#45;CoV&#45;2 (&#45;)gRNA</title>
<path fill="none" stroke="black" d="M552.977,-593.29C552.432,-579.889 552.194,-564.67 552.261,-549.677"/>
<polygon fill="black" stroke="black" points="555.764,-549.39 552.357,-539.358 548.764,-549.325 555.764,-549.39"/>
</g>
<!-- SARS&#45;CoV&#45;2 structural protein coding (+)sgmRNAs -->
<g id="node31" class="node"><title>SARS&#45;CoV&#45;2 structural protein coding (+)sgmRNAs</title>
<ellipse fill="none" stroke="black" cx="853" cy="-472.212" rx="62.0973" ry="62.0973"/>
<text text-anchor="middle" x="853" y="-471.012" font-family="Times,serif" font-size="4.00">SARS&#45;CoV&#45;2 structural protein coding (+)sgmRNAs</text>
</g>
<!-- Replication transcription complex&#45;&gt;SARS&#45;CoV&#45;2 structural protein coding (+)sgmRNAs -->
<g id="edge47" class="edge"><title>Replication transcription complex&#45;&gt;SARS&#45;CoV&#45;2 structural protein coding (+)sgmRNAs</title>
<path fill="none" stroke="black" d="M597.134,-614.957C646.05,-587.858 731.557,-540.489 790.157,-508.026"/>
<polygon fill="black" stroke="black" points="791.909,-511.056 798.96,-503.149 788.517,-504.933 791.909,-511.056"/>
</g>
<!-- N&#45;&gt;Nucleoporin_gRNA complex  -->
<g id="edge48" class="edge"><title>N&#45;&gt;Nucleoporin_gRNA complex </title>
<path fill="none" stroke="black" d="M375.046,-910.614C359.338,-897.716 334.511,-874.429 323,-848.091 285.469,-762.216 304,-731.801 304,-638.082 304,-638.082 304,-638.082 304,-230.068 304,-158.752 238.046,-98.794 193.028,-66.1751"/>
<polygon fill="black" stroke="black" points="194.792,-63.1356 184.608,-60.2133 190.747,-68.8485 194.792,-63.1356"/>
</g>
<!-- N&#45;&gt;Replication transcription complex_N oligomer -->
<g id="edge49" class="edge"><title>N&#45;&gt;Replication transcription complex_N oligomer</title>
<path fill="none" stroke="black" d="M384.298,-904.684C382.961,-892.574 382.279,-875.301 382.251,-857.92"/>
<polygon fill="black" stroke="black" points="385.752,-857.732 382.31,-847.712 378.752,-857.692 385.752,-857.732"/>
</g>
<!-- Nsp11 -->
<g id="node20" class="node"><title>Nsp11</title>
<ellipse fill="none" stroke="black" cx="821" cy="-791.346" rx="18" ry="18"/>
<text text-anchor="middle" x="821" y="-790.146" font-family="Times,serif" font-size="4.00">Nsp11</text>
</g>
<!-- Nsp11&#45;&gt;Replication transcription complex -->
<g id="edge50" class="edge"><title>Nsp11&#45;&gt;Replication transcription complex</title>
<path fill="none" stroke="black" d="M816.495,-773.764C812.413,-761.521 805.28,-745.209 794,-734.6 742.794,-686.443 664.265,-660.839 612.279,-648.371"/>
<polygon fill="black" stroke="black" points="612.783,-644.895 602.251,-646.05 611.204,-651.715 612.783,-644.895"/>
</g>
<!-- SARS&#45;CoV&#45;2 structural protein coding (&#45;)sgmRNAs&#45;&gt;SARS&#45;CoV&#45;2 structural protein coding (+)sgmRNAs -->
<g id="edge51" class="edge"><title>SARS&#45;CoV&#45;2 structural protein coding (&#45;)sgmRNAs&#45;&gt;SARS&#45;CoV&#45;2 structural protein coding (+)sgmRNAs</title>
<path fill="none" stroke="black" d="M853,-575.435C853,-565.396 853,-554.905 853,-544.631"/>
<polygon fill="black" stroke="black" points="856.5,-544.453 853,-534.453 849.5,-544.453 856.5,-544.453"/>
</g>
<!-- SARS&#45;CoV&#45;2 polyprotein 1a&#45;&gt;Nsp11 -->
<g id="edge53" class="edge"><title>SARS&#45;CoV&#45;2 polyprotein 1a&#45;&gt;Nsp11</title>
<path fill="none" stroke="black" d="M807.293,-885.361C810.373,-864.46 814.192,-838.542 817.016,-819.377"/>
<polygon fill="black" stroke="black" points="820.516,-819.635 818.512,-809.232 813.591,-818.615 820.516,-819.635"/>
</g>
<!-- SARS&#45;CoV&#45;2 polyprotein 1a&#45;&gt;SARS&#45;CoV&#45;2 pp1a and pp1ab products -->
<g id="edge52" class="edge"><title>SARS&#45;CoV&#45;2 polyprotein 1a&#45;&gt;SARS&#45;CoV&#45;2 pp1a and pp1ab products</title>
<path fill="none" stroke="black" d="M785.598,-888.741C778.746,-875.15 770.617,-859.026 762.987,-843.892"/>
<polygon fill="black" stroke="black" points="765.944,-841.983 758.317,-834.629 759.694,-845.134 765.944,-841.983"/>
</g>
<!-- S2&#45;&gt;M -->
<g id="edge55" class="edge"><title>S2&#45;&gt;M</title>
<path fill="none" stroke="black" d="M1073.93,-40.7492C937.623,-49.0347 76,-109.951 76,-325.964 76,-1627.15 76,-1627.15 76,-1627.15 76,-1682.64 128.894,-1730.01 160.649,-1753.44"/>
<polygon fill="black" stroke="black" points="158.814,-1756.43 168.983,-1759.41 162.887,-1750.74 158.814,-1756.43"/>
</g>
<!-- S2&#45;&gt;E -->
<g id="edge54" class="edge"><title>S2&#45;&gt;E</title>
<path fill="none" stroke="black" d="M1079.99,-52.1352C1067.39,-65.9295 1048.06,-89.4332 1038,-113.428 1017.7,-161.869 1019,-177.545 1019,-230.068 1019,-1550.34 1019,-1550.34 1019,-1550.34 1019,-1629.36 399.417,-1683.62 258.348,-1694.94"/>
<polygon fill="black" stroke="black" points="257.653,-1691.49 247.962,-1695.77 258.208,-1698.47 257.653,-1691.49"/>
</g>
<!-- S2&#45;&gt;Nucleocapsid -->
<g id="edge57" class="edge"><title>S2&#45;&gt;Nucleocapsid</title>
<path fill="none" stroke="black" d="M1076.69,-48.2343C1056.84,-60.126 1022.68,-83.6318 1005,-113.428 977.998,-158.948 981,-177.142 981,-230.068 981,-1322.96 981,-1322.96 981,-1322.96 981,-1412.29 944.812,-1441.71 870,-1490.54 821.281,-1522.34 754.137,-1537.41 714.673,-1543.94"/>
<polygon fill="black" stroke="black" points="713.89,-1540.52 704.552,-1545.53 714.974,-1547.44 713.89,-1540.52"/>
</g>
<!-- S2&#45;&gt;Orf7a -->
<g id="edge56" class="edge"><title>S2&#45;&gt;Orf7a</title>
<path fill="none" stroke="black" d="M1075.39,-46.0334C1050.51,-56.3415 1003.76,-79.1291 978,-113.428 945.497,-156.705 943,-175.944 943,-230.068 943,-1157.56 943,-1157.56 943,-1157.56 943,-1334.93 881.27,-1410.46 723,-1490.54 621.502,-1541.89 267.732,-1603.54 165.726,-1620.59"/>
<polygon fill="black" stroke="black" points="164.894,-1617.18 155.603,-1622.27 166.042,-1624.09 164.894,-1617.18"/>
</g>
<!-- SARS&#45;CoV&#45;2 accessory protein coding (&#45;)sgmRNAs&#45;&gt;SARS&#45;CoV&#45;2 accessory protein coding (+)sgmRNAs -->
<g id="edge58" class="edge"><title>SARS&#45;CoV&#45;2 accessory protein coding (&#45;)sgmRNAs&#45;&gt;SARS&#45;CoV&#45;2 accessory protein coding (+)sgmRNAs</title>
<path fill="none" stroke="black" d="M344.183,-1096.08C328.392,-1014.35 305.66,-862.844 323,-734.6 332.065,-667.554 353.649,-593.394 370.835,-541.245"/>
<polygon fill="black" stroke="black" points="374.26,-542.038 374.099,-531.445 367.619,-539.826 374.26,-542.038"/>
</g>
<!-- Camostat mesylate -->
<g id="node26" class="node"><title>Camostat mesylate</title>
<ellipse fill="none" stroke="black" cx="1375" cy="-145.248" rx="29.3373" ry="29.3373"/>
<text text-anchor="middle" x="1375" y="-144.048" font-family="Times,serif" font-size="4.00">Camostat mesylate</text>
</g>
<!-- Camostat mesylate&#45;&gt;ACE2 (100 Kda) -->
<g id="edge61" class="edge"><title>Camostat mesylate&#45;&gt;ACE2 (100 Kda)</title>
<path fill="none" stroke="black" d="M1361.93,-118.943C1354.43,-104.432 1344.96,-86.1025 1337.02,-70.7293"/>
<polygon fill="black" stroke="black" points="1340.01,-68.8782 1332.31,-61.6 1333.79,-72.0909 1340.01,-68.8782"/>
</g>
<!-- Camostat mesylate&#45;&gt;S2 -->
<g id="edge62" class="edge"><title>Camostat mesylate&#45;&gt;S2</title>
<path fill="none" stroke="black" d="M1354.12,-124.38C1348.86,-120.232 1342.99,-116.263 1337,-113.428 1265.23,-79.4506 1236.63,-104.547 1162,-77.4282 1145.82,-71.548 1128.79,-62.4452 1115.58,-54.6558"/>
<polygon fill="black" stroke="black" points="1117.07,-51.4661 1106.7,-49.2808 1113.44,-57.4541 1117.07,-51.4661"/>
</g>
<!-- Camostat mesylate&#45;&gt;S1 -->
<g id="edge60" class="edge"><title>Camostat mesylate&#45;&gt;S1</title>
<path fill="none" stroke="black" d="M1353.91,-124.79C1348.66,-120.625 1342.85,-116.546 1337,-113.428 1289,-87.8248 1265.19,-107.727 1220,-77.4282 1214.04,-73.4324 1208.63,-67.955 1204.06,-62.4131"/>
<polygon fill="black" stroke="black" points="1206.83,-60.2693 1198,-54.4121 1201.25,-64.4965 1206.83,-60.2693"/>
</g>
<!-- Camostat mesylate&#45;&gt;ACE2 (15 Kda) -->
<g id="edge59" class="edge"><title>Camostat mesylate&#45;&gt;ACE2 (15 Kda)</title>
<path fill="none" stroke="black" d="M1352.67,-125.78C1347.56,-121.658 1342.13,-117.349 1337,-113.428 1315.25,-96.7969 1307.39,-95.701 1287,-77.4282 1283,-73.8435 1278.98,-69.8284 1275.17,-65.791"/>
<polygon fill="black" stroke="black" points="1277.49,-63.1462 1268.17,-58.1066 1272.32,-67.8579 1277.49,-63.1462"/>
</g>
<!-- Nucleocapsid&#45;&gt; SARS&#45;CoV&#45;2 (+)gRNA -->
<g id="edge64" class="edge"><title>Nucleocapsid&#45;&gt; SARS&#45;CoV&#45;2 (+)gRNA</title>
<path fill="none" stroke="black" d="M682,-1526.3C682,-1518.6 682,-1509.67 682,-1500.89"/>
<polygon fill="black" stroke="black" points="685.5,-1500.73 682,-1490.73 678.5,-1500.73 685.5,-1500.73"/>
</g>
<!-- Nucleocapsid&#45;&gt;N -->
<g id="edge63" class="edge"><title>Nucleocapsid&#45;&gt;N</title>
<path fill="none" stroke="black" d="M659.175,-1547.77C567.111,-1544.16 228,-1517.65 228,-1322.96 228,-1322.96 228,-1322.96 228,-1155.56 228,-1059.42 322.315,-974.371 366.571,-939.757"/>
<polygon fill="black" stroke="black" points="368.904,-942.379 374.712,-933.518 364.646,-936.823 368.904,-942.379"/>
</g>
<!-- TMPRSS2 -->
<g id="node28" class="node"><title>TMPRSS2</title>
<ellipse fill="none" stroke="black" cx="1255" cy="-145.248" rx="18.6233" ry="18.6233"/>
<text text-anchor="middle" x="1255" y="-144.048" font-family="Times,serif" font-size="4.00">TMPRSS2</text>
</g>
<!-- TMPRSS2&#45;&gt;ACE2 (100 Kda) -->
<g id="edge67" class="edge"><title>TMPRSS2&#45;&gt;ACE2 (100 Kda)</title>
<path fill="none" stroke="black" d="M1264.46,-129.271C1274.29,-113.703 1289.93,-88.9247 1302.27,-69.3741"/>
<polygon fill="black" stroke="black" points="1305.3,-71.1353 1307.68,-60.8111 1299.38,-67.3982 1305.3,-71.1353"/>
</g>
<!-- TMPRSS2&#45;&gt;S2 -->
<g id="edge68" class="edge"><title>TMPRSS2&#45;&gt;S2</title>
<path fill="none" stroke="black" d="M1244.12,-129.752C1239.53,-124.227 1233.89,-118.134 1228,-113.428 1226.78,-112.453 1155.37,-73.8917 1116.53,-52.942"/>
<polygon fill="black" stroke="black" points="1117.89,-49.6952 1107.42,-48.0288 1114.56,-55.8563 1117.89,-49.6952"/>
</g>
<!-- TMPRSS2&#45;&gt;S1 -->
<g id="edge66" class="edge"><title>TMPRSS2&#45;&gt;S1</title>
<path fill="none" stroke="black" d="M1245.54,-129.271C1234.6,-111.94 1216.45,-83.1966 1203.67,-62.9562"/>
<polygon fill="black" stroke="black" points="1206.52,-60.9136 1198.23,-54.3264 1200.61,-64.6507 1206.52,-60.9136"/>
</g>
<!-- TMPRSS2&#45;&gt;ACE2 (15 Kda) -->
<g id="edge65" class="edge"><title>TMPRSS2&#45;&gt;ACE2 (15 Kda)</title>
<path fill="none" stroke="black" d="M1254.66,-126.515C1254.39,-112.14 1253.99,-91.4571 1253.65,-73.8863"/>
<polygon fill="black" stroke="black" points="1257.14,-73.3636 1253.45,-63.4324 1250.15,-73.4976 1257.14,-73.3636"/>
</g>
<!-- Replication transcription complex_SARS&#45;CoV&#45;2 (&#45;)gRNA&#45;&gt;Replication transcription complex_N oligomer -->
<g id="edge69" class="edge"><title>Replication transcription complex_SARS&#45;CoV&#45;2 (&#45;)gRNA&#45;&gt;Replication transcription complex_N oligomer</title>
<path fill="none" stroke="black" d="M508.283,-516.844C491.059,-533.761 472.923,-554.199 460,-575.564 431.843,-622.113 413.369,-681.173 402.344,-725.576"/>
<polygon fill="black" stroke="black" points="398.92,-724.844 399.969,-735.387 405.723,-726.491 398.92,-724.844"/>
</g>
<!-- Replication transcription complex_SARS&#45;CoV&#45;2 (&#45;)gRNA&#45;&gt; SARS&#45;CoV&#45;2 (+)gRNA -->
<g id="edge71" class="edge"><title>Replication transcription complex_SARS&#45;CoV&#45;2 (&#45;)gRNA&#45;&gt; SARS&#45;CoV&#45;2 (+)gRNA</title>
<path fill="none" stroke="black" d="M601.868,-524.487C644.28,-573.176 712.722,-646.476 782,-698.6 808.7,-718.689 826.889,-708.701 848,-734.6 902.809,-801.84 905,-834.527 905,-921.275 905,-1157.56 905,-1157.56 905,-1157.56 905,-1281.73 780.224,-1387.79 717.342,-1433.35"/>
<polygon fill="black" stroke="black" points="715.007,-1430.72 708.899,-1439.38 719.072,-1436.42 715.007,-1430.72"/>
</g>
<!-- Replication transcription complex_SARS&#45;CoV&#45;2 (&#45;)gRNA&#45;&gt;Replication transcription complex -->
<g id="edge70" class="edge"><title>Replication transcription complex_SARS&#45;CoV&#45;2 (&#45;)gRNA&#45;&gt;Replication transcription complex</title>
<path fill="none" stroke="black" d="M565.643,-539.358C565.848,-553.854 565.758,-569.021 565.374,-582.93"/>
<polygon fill="black" stroke="black" points="561.864,-583.177 565.023,-593.29 568.86,-583.414 561.864,-583.177"/>
</g>
<!-- CTSL -->
<g id="node30" class="node"><title>CTSL</title>
<ellipse fill="none" stroke="black" cx="1119" cy="-145.248" rx="18" ry="18"/>
<text text-anchor="middle" x="1119" y="-144.048" font-family="Times,serif" font-size="4.00">CTSL</text>
</g>
<!-- CTSL&#45;&gt;S2 -->
<g id="edge73" class="edge"><title>CTSL&#45;&gt;S2</title>
<path fill="none" stroke="black" d="M1114.66,-127.453C1110.39,-110.917 1103.8,-85.4138 1098.83,-66.1568"/>
<polygon fill="black" stroke="black" points="1102.22,-65.2745 1096.33,-56.4676 1095.44,-67.0252 1102.22,-65.2745"/>
</g>
<!-- CTSL&#45;&gt;S1 -->
<g id="edge72" class="edge"><title>CTSL&#45;&gt;S1</title>
<path fill="none" stroke="black" d="M1128.73,-129.713C1140.38,-112.316 1160.03,-82.9769 1173.71,-62.544"/>
<polygon fill="black" stroke="black" points="1176.69,-64.3822 1179.35,-54.1256 1170.88,-60.4873 1176.69,-64.3822"/>
</g>
<!-- SARS&#45;CoV&#45;2 structural protein coding (+)sgmRNAs&#45;&gt;SARS&#45;CoV&#45;2 structural proteins -->
<g id="edge74" class="edge"><title>SARS&#45;CoV&#45;2 structural protein coding (+)sgmRNAs&#45;&gt;SARS&#45;CoV&#45;2 structural proteins</title>
<path fill="none" stroke="black" d="M907.085,-441.182C954.363,-414.933 1022.18,-377.277 1066.41,-352.721"/>
<polygon fill="black" stroke="black" points="1068.16,-355.755 1075.2,-347.841 1064.76,-349.635 1068.16,-355.755"/>
</g>
<!-- SARS&#45;CoV&#45;2 pp1a and pp1ab products&#45;&gt;Replication transcription complex -->
<g id="edge75" class="edge"><title>SARS&#45;CoV&#45;2 pp1a and pp1ab products&#45;&gt;Replication transcription complex</title>
<path fill="none" stroke="black" d="M704.14,-756.397C696.684,-749.046 688.693,-741.432 681,-734.6 655.711,-712.141 625.968,-688.557 602.182,-670.325"/>
<polygon fill="black" stroke="black" points="604.107,-667.391 594.033,-664.109 599.862,-672.957 604.107,-667.391"/>
</g>
<!-- SARS&#45;CoV&#45;2 pp1ab products&#45;&gt;Replication transcription complex -->
<g id="edge76" class="edge"><title>SARS&#45;CoV&#45;2 pp1ab products&#45;&gt;Replication transcription complex</title>
<path fill="none" stroke="black" d="M617.726,-757.307C607.457,-736.459 594.022,-709.182 582.594,-685.981"/>
<polygon fill="black" stroke="black" points="585.719,-684.406 578.161,-676.982 579.44,-687.499 585.719,-684.406"/>
</g>
<!-- ACE2_SPIKE complex&#45;&gt;Nucleoporin_gRNA complex  -->
<g id="edge81" class="edge"><title>ACE2_SPIKE complex&#45;&gt;Nucleoporin_gRNA complex </title>
<path fill="none" stroke="black" d="M1163.65,-123.178C1158.2,-119.298 1152.17,-115.745 1146,-113.428 969.986,-47.3153 376.541,-40.328 201.187,-39.726"/>
<polygon fill="black" stroke="black" points="200.981,-36.2255 190.971,-39.6967 200.961,-43.2255 200.981,-36.2255"/>
</g>
<!-- ACE2_SPIKE complex&#45;&gt;ACE2 (100 Kda) -->
<g id="edge80" class="edge"><title>ACE2_SPIKE complex&#45;&gt;ACE2 (100 Kda)</title>
<path fill="none" stroke="black" d="M1211.65,-124.586C1216.66,-120.784 1221.94,-116.904 1227,-113.428 1252.31,-96.0283 1262.22,-96.8695 1286,-77.4282 1290.13,-74.052 1294.24,-70.1987 1298.11,-66.2745"/>
<polygon fill="black" stroke="black" points="1300.89,-68.4249 1305.21,-58.7478 1295.8,-63.6228 1300.89,-68.4249"/>
</g>
<!-- ACE2_SPIKE complex&#45;&gt;S2 -->
<g id="edge79" class="edge"><title>ACE2_SPIKE complex&#45;&gt;S2</title>
<path fill="none" stroke="black" d="M1165.92,-121.049C1149.33,-102.792 1126.43,-77.5985 1110.53,-60.1079"/>
<polygon fill="black" stroke="black" points="1113.09,-57.713 1103.77,-52.6664 1107.91,-62.4209 1113.09,-57.713"/>
</g>
<!-- ACE2_SPIKE complex&#45;&gt;S1 -->
<g id="edge78" class="edge"><title>ACE2_SPIKE complex&#45;&gt;S1</title>
<path fill="none" stroke="black" d="M1187.59,-113.167C1187.88,-98.4921 1188.21,-81.1345 1188.48,-66.9782"/>
<polygon fill="black" stroke="black" points="1191.98,-66.9394 1188.67,-56.8742 1184.98,-66.8054 1191.98,-66.9394"/>
</g>
<!-- ACE2_SPIKE complex&#45;&gt;ACE2 (15 Kda) -->
<g id="edge77" class="edge"><title>ACE2_SPIKE complex&#45;&gt;ACE2 (15 Kda)</title>
<path fill="none" stroke="black" d="M1203.65,-117.87C1213.17,-102.803 1225.1,-83.896 1234.86,-68.4526"/>
<polygon fill="black" stroke="black" points="1237.93,-70.1394 1240.31,-59.8151 1232.01,-66.4023 1237.93,-70.1394"/>
</g>
<!-- Orf7a&#45;&gt;M -->
<g id="edge83" class="edge"><title>Orf7a&#45;&gt;M</title>
<path fill="none" stroke="black" d="M147.035,-1641.76C157.53,-1665.41 173.136,-1712.43 180.712,-1742.25"/>
<polygon fill="black" stroke="black" points="177.316,-1743.1 183.036,-1752.02 184.126,-1741.48 177.316,-1743.1"/>
</g>
<!-- Orf7a&#45;&gt;E -->
<g id="edge82" class="edge"><title>Orf7a&#45;&gt;E</title>
<path fill="none" stroke="black" d="M153.562,-1635.51C169.475,-1645.91 193.735,-1663.98 210.774,-1677.87"/>
<polygon fill="black" stroke="black" points="208.568,-1680.59 218.49,-1684.31 213.051,-1675.22 208.568,-1680.59"/>
</g>
<!-- Orf7a&#45;&gt;Nucleocapsid -->
<g id="edge84" class="edge"><title>Orf7a&#45;&gt;Nucleocapsid</title>
<path fill="none" stroke="black" d="M152.755,-1615.67C158.001,-1612.76 164.078,-1609.86 170,-1608.15 373.355,-1549.23 442.996,-1635.54 645,-1572.15 648.201,-1571.14 651.42,-1569.82 654.552,-1568.32"/>
<polygon fill="black" stroke="black" points="656.456,-1571.26 663.58,-1563.42 653.12,-1565.11 656.456,-1571.26"/>
</g>
<!-- ACE2 -->
<g id="node38" class="node"><title>ACE2</title>
<ellipse fill="none" stroke="black" cx="1187" cy="-231.068" rx="18" ry="18"/>
<text text-anchor="middle" x="1187" y="-229.868" font-family="Times,serif" font-size="4.00">ACE2</text>
</g>
<!-- ACE2&#45;&gt;ACE2_SPIKE complex -->
<g id="edge85" class="edge"><title>ACE2&#45;&gt;ACE2_SPIKE complex</title>
<path fill="none" stroke="black" d="M1187,-212.7C1187,-205.245 1187,-196.189 1187,-187.192"/>
<polygon fill="black" stroke="black" points="1190.5,-187.149 1187,-177.149 1183.5,-187.149 1190.5,-187.149"/>
</g>
<!--  SARS&#45;CoV&#45;2 (&#45;)gRNA&#45;&gt;Replication transcription complex_SARS&#45;CoV&#45;2 (&#45;)gRNA -->
<g id="edge86" class="edge"><title> SARS&#45;CoV&#45;2 (&#45;)gRNA&#45;&gt;Replication transcription complex_SARS&#45;CoV&#45;2 (&#45;)gRNA</title>
<path fill="none" stroke="black" d="M487.492,-996.533C479.918,-923.006 465.788,-729.497 506,-575.564 509.193,-563.342 514.033,-550.925 519.515,-539.151"/>
<polygon fill="black" stroke="black" points="522.806,-540.387 524.03,-529.863 516.51,-537.326 522.806,-540.387"/>
</g>
</g>
</svg>
