<?xml version="1.0" encoding="UTF-8" standalone="no"?>
<!DOCTYPE svg PUBLIC "-//W3C//DTD SVG 1.1//EN"
 "http://www.w3.org/Graphics/SVG/1.1/DTD/svg11.dtd">
<!-- Generated by graphviz version 2.38.0 (20140413.2041)
 -->
<!-- Title: G Pages: 1 -->
<svg width="1491pt" height="1983pt"
 viewBox="0.00 0.00 1491.00 1982.57" xmlns="http://www.w3.org/2000/svg" xmlns:xlink="http://www.w3.org/1999/xlink">
<g id="graph0" class="graph" transform="scale(1 1) rotate(0) translate(4 1978.57)">
<title>G</title>
<polygon fill="white" stroke="none" points="-4,4 -4,-1978.57 1487,-1978.57 1487,4 -4,4"/>
<!-- Type I interferon signaling pathway -->
<g id="node1" class="node"><title>Type I interferon signaling pathway</title>
<ellipse fill="none" stroke="black" cx="306" cy="-1928.97" rx="45.717" ry="45.717"/>
<text text-anchor="middle" x="306" y="-1927.77" font-family="Times,serif" font-size="4.00">Type I interferon signaling pathway</text>
</g>
<!-- LY6E -->
<g id="node2" class="node"><title>LY6E</title>
<ellipse fill="none" stroke="black" cx="306" cy="-1829.36" rx="18" ry="18"/>
<text text-anchor="middle" x="306" y="-1828.16" font-family="Times,serif" font-size="4.00">LY6E</text>
</g>
<!-- Type I interferon signaling pathway&#45;&gt;LY6E -->
<g id="edge1" class="edge"><title>Type I interferon signaling pathway&#45;&gt;LY6E</title>
<path fill="none" stroke="black" d="M306,-1883.16C306,-1874.48 306,-1865.63 306,-1857.71"/>
<polygon fill="black" stroke="black" points="309.5,-1857.61 306,-1847.61 302.5,-1857.61 309.5,-1857.61"/>
</g>
<!-- Orf7a -->
<g id="node17" class="node"><title>Orf7a</title>
<ellipse fill="none" stroke="black" cx="283" cy="-1757.36" rx="18" ry="18"/>
<text text-anchor="middle" x="283" y="-1756.16" font-family="Times,serif" font-size="4.00">Orf7a</text>
</g>
<!-- LY6E&#45;&gt;Orf7a -->
<g id="edge2" class="edge"><title>LY6E&#45;&gt;Orf7a</title>
<path fill="none" stroke="black" d="M300.666,-1812.12C297.976,-1803.94 294.647,-1793.8 291.607,-1784.55"/>
<polygon fill="black" stroke="black" points="294.912,-1783.4 288.465,-1774.99 288.262,-1785.58 294.912,-1783.4"/>
</g>
<!-- M -->
<g id="node21" class="node"><title>M</title>
<ellipse fill="none" stroke="black" cx="283" cy="-1685.36" rx="18" ry="18"/>
<text text-anchor="middle" x="283" y="-1684.16" font-family="Times,serif" font-size="4.00">M</text>
</g>
<!-- LY6E&#45;&gt;M -->
<g id="edge5" class="edge"><title>LY6E&#45;&gt;M</title>
<path fill="none" stroke="black" d="M309.472,-1811.69C312.614,-1793.61 315.921,-1764.02 310,-1739.36 307.531,-1729.07 302.716,-1718.53 297.827,-1709.59"/>
<polygon fill="black" stroke="black" points="300.846,-1707.82 292.801,-1700.93 294.791,-1711.33 300.846,-1707.82"/>
</g>
<!-- E -->
<g id="node24" class="node"><title>E</title>
<ellipse fill="none" stroke="black" cx="103" cy="-18" rx="18" ry="18"/>
<text text-anchor="middle" x="103" y="-16.8" font-family="Times,serif" font-size="4.00">E</text>
</g>
<!-- LY6E&#45;&gt;E -->
<g id="edge3" class="edge"><title>LY6E&#45;&gt;E</title>
<path fill="none" stroke="black" d="M287.775,-1828.34C221.899,-1827.23 0,-1814.03 0,-1686.36 0,-1686.36 0,-1686.36 0,-216.248 0,-147.947 17.0561,-130.078 53,-72 60.8793,-59.2688 72.1607,-46.9806 82.0141,-37.4473"/>
<polygon fill="black" stroke="black" points="84.6003,-39.8209 89.5179,-30.4365 79.8214,-34.706 84.6003,-39.8209"/>
</g>
<!-- Nucleocapsid -->
<g id="node32" class="node"><title>Nucleocapsid</title>
<ellipse fill="none" stroke="black" cx="511" cy="-1608.55" rx="22.6101" ry="22.6101"/>
<text text-anchor="middle" x="511" y="-1607.35" font-family="Times,serif" font-size="4.00">Nucleocapsid</text>
</g>
<!-- LY6E&#45;&gt;Nucleocapsid -->
<g id="edge4" class="edge"><title>LY6E&#45;&gt;Nucleocapsid</title>
<path fill="none" stroke="black" d="M317.908,-1815.65C351.189,-1780.12 445.568,-1679.39 488.834,-1633.21"/>
<polygon fill="black" stroke="black" points="491.526,-1635.46 495.809,-1625.77 486.417,-1630.67 491.526,-1635.46"/>
</g>
<!-- Replication transcription complex_SARS&#45;CoV&#45;2 (&#45;)gRNA -->
<g id="node3" class="node"><title>Replication transcription complex_SARS&#45;CoV&#45;2 (&#45;)gRNA</title>
<ellipse fill="none" stroke="black" cx="1001" cy="-1136.87" rx="67.2042" ry="67.2042"/>
<text text-anchor="middle" x="1001" y="-1135.67" font-family="Times,serif" font-size="4.00">Replication transcription complex_SARS&#45;CoV&#45;2 (&#45;)gRNA</text>
</g>
<!-- Replication transcription complex -->
<g id="node16" class="node"><title>Replication transcription complex</title>
<ellipse fill="none" stroke="black" cx="912" cy="-1284.24" rx="44.0348" ry="44.0348"/>
<text text-anchor="middle" x="912" y="-1283.04" font-family="Times,serif" font-size="4.00">Replication transcription complex</text>
</g>
<!-- Replication transcription complex_SARS&#45;CoV&#45;2 (&#45;)gRNA&#45;&gt;Replication transcription complex -->
<g id="edge8" class="edge"><title>Replication transcription complex_SARS&#45;CoV&#45;2 (&#45;)gRNA&#45;&gt;Replication transcription complex</title>
<path fill="none" stroke="black" d="M971.23,-1197.36C962.591,-1211.83 953.142,-1227.03 944.352,-1240.54"/>
<polygon fill="black" stroke="black" points="941.257,-1238.88 938.687,-1249.16 947.106,-1242.73 941.257,-1238.88"/>
</g>
<!--  SARS&#45;CoV&#45;2 (+)gRNA -->
<g id="node22" class="node"><title> SARS&#45;CoV&#45;2 (+)gRNA</title>
<ellipse fill="none" stroke="black" cx="786" cy="-1001.17" rx="32.201" ry="32.201"/>
<text text-anchor="middle" x="786" y="-999.969" font-family="Times,serif" font-size="4.00"> SARS&#45;CoV&#45;2 (+)gRNA</text>
</g>
<!-- Replication transcription complex_SARS&#45;CoV&#45;2 (&#45;)gRNA&#45;&gt; SARS&#45;CoV&#45;2 (+)gRNA -->
<g id="edge7" class="edge"><title>Replication transcription complex_SARS&#45;CoV&#45;2 (&#45;)gRNA&#45;&gt; SARS&#45;CoV&#45;2 (+)gRNA</title>
<path fill="none" stroke="black" d="M944.23,-1100.57C905.4,-1076.42 855.113,-1045.15 821.766,-1024.41"/>
<polygon fill="black" stroke="black" points="823.592,-1021.43 813.252,-1019.12 819.896,-1027.37 823.592,-1021.43"/>
</g>
<!-- Replication transcription complex_N oligomer -->
<g id="node37" class="node"><title>Replication transcription complex_N oligomer</title>
<ellipse fill="none" stroke="black" cx="912" cy="-1421" rx="56.9917" ry="56.9917"/>
<text text-anchor="middle" x="912" y="-1419.8" font-family="Times,serif" font-size="4.00">Replication transcription complex_N oligomer</text>
</g>
<!-- Replication transcription complex_SARS&#45;CoV&#45;2 (&#45;)gRNA&#45;&gt;Replication transcription complex_N oligomer -->
<g id="edge6" class="edge"><title>Replication transcription complex_SARS&#45;CoV&#45;2 (&#45;)gRNA&#45;&gt;Replication transcription complex_N oligomer</title>
<path fill="none" stroke="black" d="M994.05,-1204.11C988.77,-1241.41 979.806,-1288.36 965,-1328.26 960.461,-1340.49 954.369,-1352.98 947.933,-1364.66"/>
<polygon fill="black" stroke="black" points="944.859,-1362.98 942.965,-1373.41 950.946,-1366.44 944.859,-1362.98"/>
</g>
<!-- SARS&#45;CoV&#45;2 accessory protein coding (&#45;)sgmRNAs -->
<g id="node4" class="node"><title>SARS&#45;CoV&#45;2 accessory protein coding (&#45;)sgmRNAs</title>
<ellipse fill="none" stroke="black" cx="1178" cy="-699.536" rx="61.5366" ry="61.5366"/>
<text text-anchor="middle" x="1178" y="-698.336" font-family="Times,serif" font-size="4.00">SARS&#45;CoV&#45;2 accessory protein coding (&#45;)sgmRNAs</text>
</g>
<!-- SARS&#45;CoV&#45;2 accessory protein coding (+)sgmRNAs -->
<g id="node34" class="node"><title>SARS&#45;CoV&#45;2 accessory protein coding (+)sgmRNAs</title>
<ellipse fill="none" stroke="black" cx="1178" cy="-539.439" rx="62.658" ry="62.658"/>
<text text-anchor="middle" x="1178" y="-538.239" font-family="Times,serif" font-size="4.00">SARS&#45;CoV&#45;2 accessory protein coding (+)sgmRNAs</text>
</g>
<!-- SARS&#45;CoV&#45;2 accessory protein coding (&#45;)sgmRNAs&#45;&gt;SARS&#45;CoV&#45;2 accessory protein coding (+)sgmRNAs -->
<g id="edge9" class="edge"><title>SARS&#45;CoV&#45;2 accessory protein coding (&#45;)sgmRNAs&#45;&gt;SARS&#45;CoV&#45;2 accessory protein coding (+)sgmRNAs</title>
<path fill="none" stroke="black" d="M1178,-637.864C1178,-629.568 1178,-620.987 1178,-612.513"/>
<polygon fill="black" stroke="black" points="1181.5,-612.257 1178,-602.257 1174.5,-612.257 1181.5,-612.257"/>
</g>
<!-- SARS&#45;CoV&#45;2 accessory proteins -->
<g id="node5" class="node"><title>SARS&#45;CoV&#45;2 accessory proteins</title>
<ellipse fill="none" stroke="black" cx="1276" cy="-398.964" rx="41.7924" ry="41.7924"/>
<text text-anchor="middle" x="1276" y="-397.764" font-family="Times,serif" font-size="4.00">SARS&#45;CoV&#45;2 accessory proteins</text>
</g>
<!-- SARS&#45;CoV&#45;2 accessory proteins&#45;&gt;Orf7a -->
<g id="edge10" class="edge"><title>SARS&#45;CoV&#45;2 accessory proteins&#45;&gt;Orf7a</title>
<path fill="none" stroke="black" d="M1311.17,-422.599C1329.41,-436.165 1350.45,-455.011 1363,-476.86 1413.04,-563.955 1407,-598.091 1407,-698.536 1407,-1002.17 1407,-1002.17 1407,-1002.17 1407,-1188.64 1445,-1233.53 1445,-1420 1445,-1609.55 1445,-1609.55 1445,-1609.55 1445,-1727.56 489.513,-1752.26 311.401,-1755.84"/>
<polygon fill="black" stroke="black" points="311.182,-1752.35 301.252,-1756.04 311.319,-1759.35 311.182,-1752.35"/>
</g>
<!--  SARS&#45;CoV&#45;2 (&#45;)gRNA -->
<g id="node6" class="node"><title> SARS&#45;CoV&#45;2 (&#45;)gRNA</title>
<ellipse fill="none" stroke="black" cx="926" cy="-699.536" rx="31.0804" ry="31.0804"/>
<text text-anchor="middle" x="926" y="-698.336" font-family="Times,serif" font-size="4.00"> SARS&#45;CoV&#45;2 (&#45;)gRNA</text>
</g>
<!--  SARS&#45;CoV&#45;2 (&#45;)gRNA&#45;&gt;Replication transcription complex_SARS&#45;CoV&#45;2 (&#45;)gRNA -->
<g id="edge11" class="edge"><title> SARS&#45;CoV&#45;2 (&#45;)gRNA&#45;&gt;Replication transcription complex_SARS&#45;CoV&#45;2 (&#45;)gRNA</title>
<path fill="none" stroke="black" d="M931.188,-730.652C942.799,-798.045 971.17,-962.724 987.953,-1060.14"/>
<polygon fill="black" stroke="black" points="984.543,-1060.97 989.691,-1070.23 991.442,-1059.78 984.543,-1060.97"/>
</g>
<!-- ACE2 (100 Kda) -->
<g id="node7" class="node"><title>ACE2 (100 Kda)</title>
<ellipse fill="none" stroke="black" cx="552" cy="-110.714" rx="25.4118" ry="25.4118"/>
<text text-anchor="middle" x="552" y="-109.514" font-family="Times,serif" font-size="4.00">ACE2 (100 Kda)</text>
</g>
<!-- ACE2 -->
<g id="node8" class="node"><title>ACE2</title>
<ellipse fill="none" stroke="black" cx="594" cy="-303.068" rx="18" ry="18"/>
<text text-anchor="middle" x="594" y="-301.868" font-family="Times,serif" font-size="4.00">ACE2</text>
</g>
<!-- ACE2_SPIKE complex -->
<g id="node9" class="node"><title>ACE2_SPIKE complex</title>
<ellipse fill="none" stroke="black" cx="618" cy="-217.248" rx="31.6406" ry="31.6406"/>
<text text-anchor="middle" x="618" y="-216.048" font-family="Times,serif" font-size="4.00">ACE2_SPIKE complex</text>
</g>
<!-- ACE2&#45;&gt;ACE2_SPIKE complex -->
<g id="edge12" class="edge"><title>ACE2&#45;&gt;ACE2_SPIKE complex</title>
<path fill="none" stroke="black" d="M598.742,-285.508C601.037,-277.492 603.899,-267.496 606.709,-257.681"/>
<polygon fill="black" stroke="black" points="610.091,-258.583 609.479,-248.006 603.362,-256.656 610.091,-258.583"/>
</g>
<!-- ACE2_SPIKE complex&#45;&gt;ACE2 (100 Kda) -->
<g id="edge17" class="edge"><title>ACE2_SPIKE complex&#45;&gt;ACE2 (100 Kda)</title>
<path fill="none" stroke="black" d="M601.345,-189.87C592.024,-175.106 580.375,-156.656 570.736,-141.39"/>
<polygon fill="black" stroke="black" points="573.625,-139.408 565.326,-132.821 567.706,-143.145 573.625,-139.408"/>
</g>
<!-- Nucleoporin_gRNA complex  -->
<g id="node19" class="node"><title>Nucleoporin_gRNA complex </title>
<ellipse fill="none" stroke="black" cx="754" cy="-110.714" rx="38.9294" ry="38.9294"/>
<text text-anchor="middle" x="754" y="-109.514" font-family="Times,serif" font-size="4.00">Nucleoporin_gRNA complex </text>
</g>
<!-- ACE2_SPIKE complex&#45;&gt;Nucleoporin_gRNA complex  -->
<g id="edge13" class="edge"><title>ACE2_SPIKE complex&#45;&gt;Nucleoporin_gRNA complex </title>
<path fill="none" stroke="black" d="M642.944,-197.075C663.249,-181.468 692.254,-159.174 715.53,-141.284"/>
<polygon fill="black" stroke="black" points="717.705,-144.026 723.5,-135.157 713.439,-138.476 717.705,-144.026"/>
</g>
<!-- S2 -->
<g id="node25" class="node"><title>S2</title>
<ellipse fill="none" stroke="black" cx="337" cy="-110.714" rx="18" ry="18"/>
<text text-anchor="middle" x="337" y="-109.514" font-family="Times,serif" font-size="4.00">S2</text>
</g>
<!-- ACE2_SPIKE complex&#45;&gt;S2 -->
<g id="edge14" class="edge"><title>ACE2_SPIKE complex&#45;&gt;S2</title>
<path fill="none" stroke="black" d="M594.423,-195.734C588.983,-191.819 583.018,-188.112 577,-185.428 501.292,-151.672 470.687,-180.895 394,-149.428 381.604,-144.342 369.053,-136.404 358.896,-129.121"/>
<polygon fill="black" stroke="black" points="360.76,-126.145 350.65,-122.977 356.578,-131.759 360.76,-126.145"/>
</g>
<!-- S1 -->
<g id="node26" class="node"><title>S1</title>
<ellipse fill="none" stroke="black" cx="421" cy="-110.714" rx="18" ry="18"/>
<text text-anchor="middle" x="421" y="-109.514" font-family="Times,serif" font-size="4.00">S1</text>
</g>
<!-- ACE2_SPIKE complex&#45;&gt;S1 -->
<g id="edge15" class="edge"><title>ACE2_SPIKE complex&#45;&gt;S1</title>
<path fill="none" stroke="black" d="M593.803,-195.795C588.496,-191.97 582.741,-188.283 577,-185.428 524.851,-159.497 499.441,-181.762 451,-149.428 445.337,-145.648 440.243,-140.461 435.929,-135.143"/>
<polygon fill="black" stroke="black" points="438.573,-132.831 429.821,-126.861 432.94,-136.986 438.573,-132.831"/>
</g>
<!-- ACE2 (15 Kda) -->
<g id="node33" class="node"><title>ACE2 (15 Kda)</title>
<ellipse fill="none" stroke="black" cx="484" cy="-110.714" rx="24.2908" ry="24.2908"/>
<text text-anchor="middle" x="484" y="-109.514" font-family="Times,serif" font-size="4.00">ACE2 (15 Kda)</text>
</g>
<!-- ACE2_SPIKE complex&#45;&gt;ACE2 (15 Kda) -->
<g id="edge16" class="edge"><title>ACE2_SPIKE complex&#45;&gt;ACE2 (15 Kda)</title>
<path fill="none" stroke="black" d="M593.127,-196.95C587.869,-193.041 582.305,-189.028 577,-185.428 551.582,-168.179 541.642,-169.041 518,-149.428 513.865,-145.998 509.773,-142.064 505.936,-138.061"/>
<polygon fill="black" stroke="black" points="508.259,-135.414 498.931,-130.39 503.09,-140.134 508.259,-135.414"/>
</g>
<!-- SARS&#45;CoV&#45;2 structural protein coding (&#45;)sgmRNAs -->
<g id="node10" class="node"><title>SARS&#45;CoV&#45;2 structural protein coding (&#45;)sgmRNAs</title>
<ellipse fill="none" stroke="black" cx="1037" cy="-699.536" rx="61.5366" ry="61.5366"/>
<text text-anchor="middle" x="1037" y="-698.336" font-family="Times,serif" font-size="4.00">SARS&#45;CoV&#45;2 structural protein coding (&#45;)sgmRNAs</text>
</g>
<!-- SARS&#45;CoV&#45;2 structural protein coding (+)sgmRNAs -->
<g id="node35" class="node"><title>SARS&#45;CoV&#45;2 structural protein coding (+)sgmRNAs</title>
<ellipse fill="none" stroke="black" cx="544" cy="-539.439" rx="62.0973" ry="62.0973"/>
<text text-anchor="middle" x="544" y="-538.239" font-family="Times,serif" font-size="4.00">SARS&#45;CoV&#45;2 structural protein coding (+)sgmRNAs</text>
</g>
<!-- SARS&#45;CoV&#45;2 structural protein coding (&#45;)sgmRNAs&#45;&gt;SARS&#45;CoV&#45;2 structural protein coding (+)sgmRNAs -->
<g id="edge18" class="edge"><title>SARS&#45;CoV&#45;2 structural protein coding (&#45;)sgmRNAs&#45;&gt;SARS&#45;CoV&#45;2 structural protein coding (+)sgmRNAs</title>
<path fill="none" stroke="black" d="M993.501,-655.957C984.891,-649.178 975.547,-642.826 966,-638.018 851.654,-580.429 702.745,-556.28 615.824,-546.564"/>
<polygon fill="black" stroke="black" points="616.116,-543.076 605.797,-545.477 615.362,-550.035 616.116,-543.076"/>
</g>
<!-- N (+)sgmRNA -->
<g id="node11" class="node"><title>N (+)sgmRNA</title>
<ellipse fill="none" stroke="black" cx="1331" cy="-539.439" rx="23.1702" ry="23.1702"/>
<text text-anchor="middle" x="1331" y="-538.239" font-family="Times,serif" font-size="4.00">N (+)sgmRNA</text>
</g>
<!-- N -->
<g id="node13" class="node"><title>N</title>
<ellipse fill="none" stroke="black" cx="912" cy="-1531.75" rx="18" ry="18"/>
<text text-anchor="middle" x="912" y="-1530.55" font-family="Times,serif" font-size="4.00">N</text>
</g>
<!-- N (+)sgmRNA&#45;&gt;N -->
<g id="edge19" class="edge"><title>N (+)sgmRNA&#45;&gt;N</title>
<path fill="none" stroke="black" d="M1335.43,-562.688C1345.46,-615 1369,-749.991 1369,-863.937 1369,-1285.24 1369,-1285.24 1369,-1285.24 1369,-1481 1039.57,-1521.32 940.102,-1529.04"/>
<polygon fill="black" stroke="black" points="939.636,-1525.56 929.915,-1529.77 940.141,-1532.54 939.636,-1525.56"/>
</g>
<!-- S -->
<g id="node12" class="node"><title>S</title>
<ellipse fill="none" stroke="black" cx="498" cy="-303.068" rx="18" ry="18"/>
<text text-anchor="middle" x="498" y="-301.868" font-family="Times,serif" font-size="4.00">S</text>
</g>
<!-- S&#45;&gt;ACE2_SPIKE complex -->
<g id="edge20" class="edge"><title>S&#45;&gt;ACE2_SPIKE complex</title>
<path fill="none" stroke="black" d="M512.72,-292.531C528.708,-282.095 554.92,-264.756 577,-249.068 579.532,-247.269 582.134,-245.388 584.742,-243.482"/>
<polygon fill="black" stroke="black" points="587.046,-246.13 593.005,-237.37 582.884,-240.502 587.046,-246.13"/>
</g>
<!-- N&#45;&gt;Nucleoporin_gRNA complex  -->
<g id="edge22" class="edge"><title>N&#45;&gt;Nucleoporin_gRNA complex </title>
<path fill="none" stroke="black" d="M897.025,-1520.9C826.399,-1473.14 530,-1257.49 530,-1002.17 530,-1002.17 530,-1002.17 530,-863.937 530,-763.174 493.976,-722.43 549,-638.018 567.246,-610.026 593.649,-627.719 615,-602.018 720.426,-475.113 690.145,-409.165 730,-249.068 737.331,-219.62 743.237,-186.077 747.356,-159.51"/>
<polygon fill="black" stroke="black" points="750.861,-159.736 748.901,-149.324 743.941,-158.686 750.861,-159.736"/>
</g>
<!-- N&#45;&gt;Replication transcription complex_N oligomer -->
<g id="edge21" class="edge"><title>N&#45;&gt;Replication transcription complex_N oligomer</title>
<path fill="none" stroke="black" d="M906.991,-1514.23C906.143,-1506.75 905.605,-1497.36 905.376,-1487.46"/>
<polygon fill="black" stroke="black" points="908.876,-1487.4 905.251,-1477.44 901.876,-1487.48 908.876,-1487.4"/>
</g>
<!-- Replication transcription complex_SARS&#45;CoV&#45;2 (+)gRNA -->
<g id="node14" class="node"><title>Replication transcription complex_SARS&#45;CoV&#45;2 (+)gRNA</title>
<ellipse fill="none" stroke="black" cx="1105" cy="-864.937" rx="67.7647" ry="67.7647"/>
<text text-anchor="middle" x="1105" y="-863.737" font-family="Times,serif" font-size="4.00">Replication transcription complex_SARS&#45;CoV&#45;2 (+)gRNA</text>
</g>
<!-- Replication transcription complex_SARS&#45;CoV&#45;2 (+)gRNA&#45;&gt;SARS&#45;CoV&#45;2 accessory protein coding (&#45;)sgmRNAs -->
<g id="edge23" class="edge"><title>Replication transcription complex_SARS&#45;CoV&#45;2 (+)gRNA&#45;&gt;SARS&#45;CoV&#45;2 accessory protein coding (&#45;)sgmRNAs</title>
<path fill="none" stroke="black" d="M1132.39,-802.627C1137.84,-790.432 1143.58,-777.589 1149.07,-765.282"/>
<polygon fill="black" stroke="black" points="1152.34,-766.554 1153.22,-755.996 1145.95,-763.699 1152.34,-766.554"/>
</g>
<!-- Replication transcription complex_SARS&#45;CoV&#45;2 (+)gRNA&#45;&gt; SARS&#45;CoV&#45;2 (&#45;)gRNA -->
<g id="edge25" class="edge"><title>Replication transcription complex_SARS&#45;CoV&#45;2 (+)gRNA&#45;&gt; SARS&#45;CoV&#45;2 (&#45;)gRNA</title>
<path fill="none" stroke="black" d="M1047.6,-828.191C1021.02,-810.022 990.067,-786.435 966,-761.054 958.851,-753.515 952.155,-744.55 946.363,-735.861"/>
<polygon fill="black" stroke="black" points="949.235,-733.854 940.89,-727.327 943.343,-737.634 949.235,-733.854"/>
</g>
<!-- Replication transcription complex_SARS&#45;CoV&#45;2 (+)gRNA&#45;&gt;SARS&#45;CoV&#45;2 structural protein coding (&#45;)sgmRNAs -->
<g id="edge24" class="edge"><title>Replication transcription complex_SARS&#45;CoV&#45;2 (+)gRNA&#45;&gt;SARS&#45;CoV&#45;2 structural protein coding (&#45;)sgmRNAs</title>
<path fill="none" stroke="black" d="M1079.1,-801.696C1074.24,-790.025 1069.15,-777.791 1064.25,-766.025"/>
<polygon fill="black" stroke="black" points="1067.45,-764.596 1060.38,-756.709 1060.99,-767.286 1067.45,-764.596"/>
</g>
<!-- Replication transcription complex_SARS&#45;CoV&#45;2 (+)gRNA&#45;&gt;Replication transcription complex -->
<g id="edge26" class="edge"><title>Replication transcription complex_SARS&#45;CoV&#45;2 (+)gRNA&#45;&gt;Replication transcription complex</title>
<path fill="none" stroke="black" d="M1123.89,-930.457C1136.73,-1003.56 1141.93,-1123.06 1086,-1204.22 1058.67,-1243.88 1005.82,-1264.28 965.403,-1274.33"/>
<polygon fill="black" stroke="black" points="964.358,-1270.98 955.418,-1276.66 965.953,-1277.79 964.358,-1270.98"/>
</g>
<!-- N (&#45;)sgmRNA -->
<g id="node39" class="node"><title>N (&#45;)sgmRNA</title>
<ellipse fill="none" stroke="black" cx="1280" cy="-699.536" rx="22.6101" ry="22.6101"/>
<text text-anchor="middle" x="1280" y="-698.336" font-family="Times,serif" font-size="4.00">N (&#45;)sgmRNA</text>
</g>
<!-- Replication transcription complex_SARS&#45;CoV&#45;2 (+)gRNA&#45;&gt;N (&#45;)sgmRNA -->
<g id="edge27" class="edge"><title>Replication transcription complex_SARS&#45;CoV&#45;2 (+)gRNA&#45;&gt;N (&#45;)sgmRNA</title>
<path fill="none" stroke="black" d="M1164.06,-830.863C1192.32,-812.914 1225.11,-788.737 1249,-761.054 1256.79,-752.022 1263.27,-740.689 1268.24,-730.28"/>
<polygon fill="black" stroke="black" points="1271.48,-731.629 1272.39,-721.073 1265.09,-728.754 1271.48,-731.629"/>
</g>
<!-- CTSL -->
<g id="node15" class="node"><title>CTSL</title>
<ellipse fill="none" stroke="black" cx="310" cy="-217.248" rx="18" ry="18"/>
<text text-anchor="middle" x="310" y="-216.048" font-family="Times,serif" font-size="4.00">CTSL</text>
</g>
<!-- CTSL&#45;&gt;S2 -->
<g id="edge28" class="edge"><title>CTSL&#45;&gt;S2</title>
<path fill="none" stroke="black" d="M314.338,-199.453C318.609,-182.917 325.196,-157.414 330.17,-138.157"/>
<polygon fill="black" stroke="black" points="333.561,-139.025 332.673,-128.468 326.783,-137.275 333.561,-139.025"/>
</g>
<!-- CTSL&#45;&gt;S1 -->
<g id="edge29" class="edge"><title>CTSL&#45;&gt;S1</title>
<path fill="none" stroke="black" d="M321.194,-202.705C325.916,-197.197 331.57,-190.863 337,-185.428 357.271,-165.14 382.137,-143.706 399.534,-129.212"/>
<polygon fill="black" stroke="black" points="401.946,-131.76 407.422,-122.69 397.485,-126.365 401.946,-131.76"/>
</g>
<!-- Replication transcription complex&#45;&gt;Replication transcription complex_SARS&#45;CoV&#45;2 (&#45;)gRNA -->
<g id="edge34" class="edge"><title>Replication transcription complex&#45;&gt;Replication transcription complex_SARS&#45;CoV&#45;2 (&#45;)gRNA</title>
<path fill="none" stroke="black" d="M930.01,-1243.9C937.645,-1230.48 946.846,-1215.11 956.073,-1200.33"/>
<polygon fill="black" stroke="black" points="959.134,-1202.03 961.497,-1191.71 953.209,-1198.31 959.134,-1202.03"/>
</g>
<!-- Replication transcription complex&#45;&gt;N (+)sgmRNA -->
<g id="edge30" class="edge"><title>Replication transcription complex&#45;&gt;N (+)sgmRNA</title>
<path fill="none" stroke="black" d="M955.262,-1275.6C1062.32,-1253.95 1331,-1181.74 1331,-1002.17 1331,-1002.17 1331,-1002.17 1331,-863.937 1331,-757.4 1331,-631.127 1331,-572.862"/>
<polygon fill="black" stroke="black" points="1334.5,-572.794 1331,-562.794 1327.5,-572.794 1334.5,-572.794"/>
</g>
<!-- Replication transcription complex&#45;&gt;Replication transcription complex_SARS&#45;CoV&#45;2 (+)gRNA -->
<g id="edge33" class="edge"><title>Replication transcription complex&#45;&gt;Replication transcription complex_SARS&#45;CoV&#45;2 (+)gRNA</title>
<path fill="none" stroke="black" d="M954.934,-1273.27C991.378,-1262.88 1041.6,-1242.54 1068,-1204.22 1120.86,-1127.52 1119.12,-1016.57 1112.17,-942.906"/>
<polygon fill="black" stroke="black" points="1115.63,-942.37 1111.16,-932.766 1108.67,-943.064 1115.63,-942.37"/>
</g>
<!-- Replication transcription complex&#45;&gt;SARS&#45;CoV&#45;2 accessory protein coding (+)sgmRNAs -->
<g id="edge31" class="edge"><title>Replication transcription complex&#45;&gt;SARS&#45;CoV&#45;2 accessory protein coding (+)sgmRNAs</title>
<path fill="none" stroke="black" d="M908.822,-1240.28C898.628,-1099.93 868.413,-662.438 886,-638.018 935.543,-569.225 1035.78,-548.219 1104.88,-542.192"/>
<polygon fill="black" stroke="black" points="1105.57,-545.649 1115.27,-541.378 1105.02,-538.67 1105.57,-545.649"/>
</g>
<!-- Replication transcription complex&#45;&gt;SARS&#45;CoV&#45;2 structural protein coding (+)sgmRNAs -->
<g id="edge32" class="edge"><title>Replication transcription complex&#45;&gt;SARS&#45;CoV&#45;2 structural protein coding (+)sgmRNAs</title>
<path fill="none" stroke="black" d="M867.969,-1281.5C805.996,-1277 692.117,-1260.97 616,-1204.22 531.527,-1141.25 492,-1107.53 492,-1002.17 492,-1002.17 492,-1002.17 492,-863.937 492,-762.963 496.669,-737.123 516,-638.018 517.873,-628.417 520.249,-618.393 522.824,-608.58"/>
<polygon fill="black" stroke="black" points="526.22,-609.428 525.452,-598.861 519.463,-607.601 526.22,-609.428"/>
</g>
<!-- Orf7a&#45;&gt;M -->
<g id="edge35" class="edge"><title>Orf7a&#45;&gt;M</title>
<path fill="none" stroke="black" d="M277.199,-1740.12C276.287,-1731.99 276.032,-1721.95 276.435,-1712.75"/>
<polygon fill="black" stroke="black" points="279.945,-1712.74 277.209,-1702.5 272.965,-1712.21 279.945,-1712.74"/>
</g>
<!-- Orf7a&#45;&gt;E -->
<g id="edge36" class="edge"><title>Orf7a&#45;&gt;E</title>
<path fill="none" stroke="black" d="M265.112,-1754.52C208.353,-1747.09 38,-1714.5 38,-1609.55 38,-1609.55 38,-1609.55 38,-216.248 38,-150.566 67.0908,-77.0982 86.7078,-41.1883"/>
<polygon fill="black" stroke="black" points="89.7573,-42.9064 91.7124,-32.4935 83.6904,-39.4144 89.7573,-42.9064"/>
</g>
<!-- Orf7a&#45;&gt;Nucleocapsid -->
<g id="edge37" class="edge"><title>Orf7a&#45;&gt;Nucleocapsid</title>
<path fill="none" stroke="black" d="M297.96,-1746.72C335.732,-1722.4 435.386,-1658.24 483.813,-1627.06"/>
<polygon fill="black" stroke="black" points="485.72,-1629.99 492.233,-1621.64 481.93,-1624.11 485.72,-1629.99"/>
</g>
<!-- Camostat mesylate -->
<g id="node18" class="node"><title>Camostat mesylate</title>
<ellipse fill="none" stroke="black" cx="485" cy="-217.248" rx="29.3373" ry="29.3373"/>
<text text-anchor="middle" x="485" y="-216.048" font-family="Times,serif" font-size="4.00">Camostat mesylate</text>
</g>
<!-- Camostat mesylate&#45;&gt;ACE2 (100 Kda) -->
<g id="edge39" class="edge"><title>Camostat mesylate&#45;&gt;ACE2 (100 Kda)</title>
<path fill="none" stroke="black" d="M500.371,-192.266C510.085,-177.11 522.71,-157.413 533.043,-141.291"/>
<polygon fill="black" stroke="black" points="536.066,-143.061 538.515,-132.753 530.172,-139.284 536.066,-143.061"/>
</g>
<!-- Camostat mesylate&#45;&gt;S2 -->
<g id="edge40" class="edge"><title>Camostat mesylate&#45;&gt;S2</title>
<path fill="none" stroke="black" d="M462.762,-197.651C457.653,-193.536 452.194,-189.262 447,-185.428 438.871,-179.427 390.026,-146.901 360.224,-127.114"/>
<polygon fill="black" stroke="black" points="361.92,-124.039 351.652,-121.426 358.049,-129.872 361.92,-124.039"/>
</g>
<!-- Camostat mesylate&#45;&gt;S1 -->
<g id="edge41" class="edge"><title>Camostat mesylate&#45;&gt;S1</title>
<path fill="none" stroke="black" d="M470.156,-192.003C459.688,-174.904 445.741,-152.125 435.378,-135.198"/>
<polygon fill="black" stroke="black" points="438.24,-133.171 430.034,-126.47 432.27,-136.826 438.24,-133.171"/>
</g>
<!-- Camostat mesylate&#45;&gt;ACE2 (15 Kda) -->
<g id="edge38" class="edge"><title>Camostat mesylate&#45;&gt;ACE2 (15 Kda)</title>
<path fill="none" stroke="black" d="M484.729,-187.96C484.604,-174.854 484.454,-159.18 484.323,-145.461"/>
<polygon fill="black" stroke="black" points="487.822,-145.392 484.227,-135.426 480.823,-145.459 487.822,-145.392"/>
</g>
<!-- Nucleoporin_gRNA complex &#45;&gt;Orf7a -->
<g id="edge42" class="edge"><title>Nucleoporin_gRNA complex &#45;&gt;Orf7a</title>
<path fill="none" stroke="black" d="M792.813,-113.325C909.713,-118.661 1256.62,-138.181 1358,-185.428 1426.87,-217.527 1483,-226.082 1483,-302.068 1483,-1609.55 1483,-1609.55 1483,-1609.55 1483,-1713.4 1370.57,-1681.74 1269,-1703.36 1079.02,-1743.8 452.761,-1754.17 311.485,-1756.02"/>
<polygon fill="black" stroke="black" points="311.048,-1752.53 301.093,-1756.15 311.137,-1759.53 311.048,-1752.53"/>
</g>
<!-- Nucleoporin_gRNA complex &#45;&gt;M -->
<g id="edge45" class="edge"><title>Nucleoporin_gRNA complex &#45;&gt;M</title>
<path fill="none" stroke="black" d="M736.367,-145.589C713.082,-188.705 669.337,-264.385 621,-321.068 553.216,-400.556 493.994,-384.596 445,-476.86 398.399,-564.617 416,-599.174 416,-698.536 416,-1137.87 416,-1137.87 416,-1137.87 416,-1322.99 386.667,-1367.53 354,-1549.75 347.462,-1586.22 354.764,-1598.84 337,-1631.36 329.195,-1645.64 316.293,-1658.52 305.057,-1668"/>
<polygon fill="black" stroke="black" points="302.858,-1665.28 297.267,-1674.27 307.25,-1670.73 302.858,-1665.28"/>
</g>
<!-- Nucleoporin_gRNA complex &#45;&gt;E -->
<g id="edge43" class="edge"><title>Nucleoporin_gRNA complex &#45;&gt;E</title>
<path fill="none" stroke="black" d="M723.186,-87.1802C713.63,-81.2608 702.77,-75.5466 692,-72 585.796,-37.0267 233.928,-23.1987 131.318,-19.8515"/>
<polygon fill="black" stroke="black" points="131.224,-16.3468 121.118,-19.5268 131.001,-23.3433 131.224,-16.3468"/>
</g>
<!-- Nucleoporin_gRNA complex &#45;&gt;Nucleocapsid -->
<g id="edge44" class="edge"><title>Nucleoporin_gRNA complex &#45;&gt;Nucleocapsid</title>
<path fill="none" stroke="black" d="M792.632,-113.923C938.152,-123.279 1445,-165.657 1445,-302.068 1445,-1002.17 1445,-1002.17 1445,-1002.17 1445,-1225.32 1468.12,-1351.66 1284,-1477.75 1160.19,-1562.54 675.973,-1597.58 544.241,-1605.65"/>
<polygon fill="black" stroke="black" points="543.754,-1602.18 533.983,-1606.27 544.175,-1609.16 543.754,-1602.18"/>
</g>
<!-- SARS&#45;CoV&#45;2 pp1a and pp1ab products -->
<g id="node20" class="node"><title>SARS&#45;CoV&#45;2 pp1a and pp1ab products</title>
<ellipse fill="none" stroke="black" cx="699" cy="-699.536" rx="47.9605" ry="47.9605"/>
<text text-anchor="middle" x="699" y="-698.336" font-family="Times,serif" font-size="4.00">SARS&#45;CoV&#45;2 pp1a and pp1ab products</text>
</g>
<!-- SARS&#45;CoV&#45;2 pp1a and pp1ab products&#45;&gt;Replication transcription complex -->
<g id="edge46" class="edge"><title>SARS&#45;CoV&#45;2 pp1a and pp1ab products&#45;&gt;Replication transcription complex</title>
<path fill="none" stroke="black" d="M665.039,-733.433C649.629,-750.731 633.072,-773.26 625,-797.054 605.616,-854.196 604.7,-875.996 625,-932.819 674.064,-1070.16 802.667,-1192.42 869.813,-1249.37"/>
<polygon fill="black" stroke="black" points="867.78,-1252.23 877.688,-1255.99 872.284,-1246.87 867.78,-1252.23"/>
</g>
<!-- M&#45;&gt;Orf7a -->
<g id="edge47" class="edge"><title>M&#45;&gt;Orf7a</title>
<path fill="none" stroke="black" d="M288.791,-1702.5C289.708,-1710.62 289.967,-1720.66 289.57,-1729.86"/>
<polygon fill="black" stroke="black" points="286.058,-1729.89 288.801,-1740.12 293.038,-1730.41 286.058,-1729.89"/>
</g>
<!-- M&#45;&gt;E -->
<g id="edge48" class="edge"><title>M&#45;&gt;E</title>
<path fill="none" stroke="black" d="M267.424,-1676.19C236.041,-1655.47 170,-1597.86 170,-1532.75 170,-1532.75 170,-1532.75 170,-1283.24 170,-1094.72 94,-1054.46 94,-865.937 94,-865.937 94,-865.937 94,-216.248 94,-155.159 94,-83.428 97.0454,-45.5502"/>
<polygon fill="black" stroke="black" points="100.551,-45.6583 98.0392,-35.3656 93.5844,-44.9784 100.551,-45.6583"/>
</g>
<!-- M&#45;&gt;Nucleocapsid -->
<g id="edge49" class="edge"><title>M&#45;&gt;Nucleocapsid</title>
<path fill="none" stroke="black" d="M300.137,-1678.73C338.328,-1666.2 430.893,-1635.83 479.694,-1619.82"/>
<polygon fill="black" stroke="black" points="480.997,-1623.08 489.407,-1616.64 478.815,-1616.43 480.997,-1623.08"/>
</g>
<!--  SARS&#45;CoV&#45;2 (+)gRNA&#45;&gt;Replication transcription complex_SARS&#45;CoV&#45;2 (+)gRNA -->
<g id="edge51" class="edge"><title> SARS&#45;CoV&#45;2 (+)gRNA&#45;&gt;Replication transcription complex_SARS&#45;CoV&#45;2 (+)gRNA</title>
<path fill="none" stroke="black" d="M815.724,-987.661C864.916,-966.962 964.614,-925.01 1033.09,-896.196"/>
<polygon fill="black" stroke="black" points="1034.68,-899.325 1042.54,-892.221 1031.96,-892.873 1034.68,-899.325"/>
</g>
<!--  SARS&#45;CoV&#45;2 (+)gRNA&#45;&gt;Nucleoporin_gRNA complex  -->
<g id="edge52" class="edge"><title> SARS&#45;CoV&#45;2 (+)gRNA&#45;&gt;Nucleoporin_gRNA complex </title>
<path fill="none" stroke="black" d="M798.977,-971.241C803.626,-959.548 808.365,-945.774 811,-932.819 845.791,-761.746 829,-715.013 829,-540.439 829,-540.439 829,-540.439 829,-302.068 829,-247.547 802.038,-189.974 780.445,-152.609"/>
<polygon fill="black" stroke="black" points="783.195,-150.383 775.091,-143.559 777.171,-153.948 783.195,-150.383"/>
</g>
<!-- SARS&#45;CoV&#45;2 polyprotein 1a -->
<g id="node27" class="node"><title>SARS&#45;CoV&#45;2 polyprotein 1a</title>
<ellipse fill="none" stroke="black" cx="765" cy="-864.937" rx="37.2466" ry="37.2466"/>
<text text-anchor="middle" x="765" y="-863.737" font-family="Times,serif" font-size="4.00">SARS&#45;CoV&#45;2 polyprotein 1a</text>
</g>
<!--  SARS&#45;CoV&#45;2 (+)gRNA&#45;&gt;SARS&#45;CoV&#45;2 polyprotein 1a -->
<g id="edge53" class="edge"><title> SARS&#45;CoV&#45;2 (+)gRNA&#45;&gt;SARS&#45;CoV&#45;2 polyprotein 1a</title>
<path fill="none" stroke="black" d="M781.129,-969.036C778.459,-951.967 775.099,-930.49 772.138,-911.562"/>
<polygon fill="black" stroke="black" points="775.59,-910.983 770.586,-901.644 768.674,-912.065 775.59,-910.983"/>
</g>
<!-- SARS&#45;CoV&#45;2 polyprotein 1ab -->
<g id="node28" class="node"><title>SARS&#45;CoV&#45;2 polyprotein 1ab</title>
<ellipse fill="none" stroke="black" cx="672" cy="-864.937" rx="38.3684" ry="38.3684"/>
<text text-anchor="middle" x="672" y="-863.737" font-family="Times,serif" font-size="4.00">SARS&#45;CoV&#45;2 polyprotein 1ab</text>
</g>
<!--  SARS&#45;CoV&#45;2 (+)gRNA&#45;&gt;SARS&#45;CoV&#45;2 polyprotein 1ab -->
<g id="edge50" class="edge"><title> SARS&#45;CoV&#45;2 (+)gRNA&#45;&gt;SARS&#45;CoV&#45;2 polyprotein 1ab</title>
<path fill="none" stroke="black" d="M762.672,-978.628C749.313,-965.835 732.563,-948.997 719,-932.819 711.88,-924.326 704.73,-914.79 698.231,-905.639"/>
<polygon fill="black" stroke="black" points="701.061,-903.578 692.466,-897.384 695.322,-907.586 701.061,-903.578"/>
</g>
<!-- FURIN -->
<g id="node23" class="node"><title>FURIN</title>
<ellipse fill="none" stroke="black" cx="550" cy="-217.248" rx="18" ry="18"/>
<text text-anchor="middle" x="550" y="-216.048" font-family="Times,serif" font-size="4.00">FURIN</text>
</g>
<!-- FURIN&#45;&gt;ACE2 (100 Kda) -->
<g id="edge55" class="edge"><title>FURIN&#45;&gt;ACE2 (100 Kda)</title>
<path fill="none" stroke="black" d="M550.33,-198.986C550.6,-184.868 550.991,-164.442 551.327,-146.901"/>
<polygon fill="black" stroke="black" points="554.835,-146.499 551.527,-136.433 547.836,-146.365 554.835,-146.499"/>
</g>
<!-- FURIN&#45;&gt;S2 -->
<g id="edge56" class="edge"><title>FURIN&#45;&gt;S2</title>
<path fill="none" stroke="black" d="M540.382,-201.992C535.754,-196.102 529.743,-189.672 523,-185.428 472.624,-153.721 448.147,-174.152 394,-149.428 381.811,-143.863 369.285,-135.869 359.091,-128.672"/>
<polygon fill="black" stroke="black" points="360.943,-125.692 350.799,-122.634 356.822,-131.35 360.943,-125.692"/>
</g>
<!-- FURIN&#45;&gt;S1 -->
<g id="edge57" class="edge"><title>FURIN&#45;&gt;S1</title>
<path fill="none" stroke="black" d="M539.715,-202.275C535.05,-196.573 529.194,-190.21 523,-185.428 494.682,-163.563 478.791,-171.959 451,-149.428 445.711,-145.141 440.754,-139.768 436.451,-134.434"/>
<polygon fill="black" stroke="black" points="439.091,-132.121 430.275,-126.244 433.501,-136.335 439.091,-132.121"/>
</g>
<!-- FURIN&#45;&gt;ACE2 (15 Kda) -->
<g id="edge54" class="edge"><title>FURIN&#45;&gt;ACE2 (15 Kda)</title>
<path fill="none" stroke="black" d="M540.823,-201.713C530.871,-185.951 514.73,-160.385 502.189,-140.523"/>
<polygon fill="black" stroke="black" points="505.014,-138.441 496.716,-131.854 499.095,-142.178 505.014,-138.441"/>
</g>
<!-- E&#45;&gt;Orf7a -->
<g id="edge58" class="edge"><title>E&#45;&gt;Orf7a</title>
<path fill="none" stroke="black" d="M99.8202,-35.9526C88.1597,-69.5216 56,-147.188 56,-216.248 56,-1609.55 56,-1609.55 56,-1609.55 56,-1704.23 194.648,-1740.02 255.349,-1751.57"/>
<polygon fill="black" stroke="black" points="254.929,-1755.05 265.393,-1753.39 256.181,-1748.16 254.929,-1755.05"/>
</g>
<!-- E&#45;&gt;M -->
<g id="edge59" class="edge"><title>E&#45;&gt;M</title>
<path fill="none" stroke="black" d="M107.961,-35.3656C112,-69.1628 112,-149.129 112,-216.248 112,-865.937 112,-865.937 112,-865.937 112,-1054.46 188,-1094.72 188,-1283.24 188,-1532.75 188,-1532.75 188,-1532.75 188,-1587.95 235.456,-1637.75 263.48,-1664.26"/>
<polygon fill="black" stroke="black" points="261.448,-1667.15 271.147,-1671.41 266.223,-1662.03 261.448,-1667.15"/>
</g>
<!-- E&#45;&gt;Nucleocapsid -->
<g id="edge60" class="edge"><title>E&#45;&gt;Nucleocapsid</title>
<path fill="none" stroke="black" d="M121.021,-18.9478C198.877,-19.0234 506.016,-22.5067 586,-72 636.98,-103.546 642.091,-127.912 659,-185.428 676.657,-245.492 657.513,-270.213 621,-321.068 565.3,-398.647 512.172,-389.759 473,-476.86 432.442,-567.044 454,-599.652 454,-698.536 454,-1422 454,-1422 454,-1422 454,-1479.61 479.411,-1543.01 496.3,-1578.78"/>
<polygon fill="black" stroke="black" points="493.307,-1580.63 500.81,-1588.11 499.609,-1577.59 493.307,-1580.63"/>
</g>
<!-- S2&#45;&gt;Orf7a -->
<g id="edge61" class="edge"><title>S2&#45;&gt;Orf7a</title>
<path fill="none" stroke="black" d="M320.732,-118.667C275.236,-139.328 150,-205.014 150,-302.068 150,-865.937 150,-865.937 150,-865.937 150,-1051.58 132,-1097.6 132,-1283.24 132,-1609.55 132,-1609.55 132,-1609.55 132,-1678.58 214.125,-1725.64 257.244,-1745.59"/>
<polygon fill="black" stroke="black" points="255.996,-1748.86 266.553,-1749.75 258.855,-1742.47 255.996,-1748.86"/>
</g>
<!-- S2&#45;&gt;M -->
<g id="edge64" class="edge"><title>S2&#45;&gt;M</title>
<path fill="none" stroke="black" d="M323.803,-123.316C308.995,-136.931 285.077,-160.795 270,-185.428 241.077,-232.685 226,-246.662 226,-302.068 226,-1532.75 226,-1532.75 226,-1532.75 226,-1580.75 251.344,-1632.15 268.233,-1661.07"/>
<polygon fill="black" stroke="black" points="265.436,-1663.21 273.588,-1669.98 271.436,-1659.6 265.436,-1663.21"/>
</g>
<!-- S2&#45;&gt;E -->
<g id="edge62" class="edge"><title>S2&#45;&gt;E</title>
<path fill="none" stroke="black" d="M320.546,-103.335C280.434,-87.7854 177.362,-47.8276 128.905,-29.0426"/>
<polygon fill="black" stroke="black" points="130.025,-25.7231 119.436,-25.3718 127.495,-32.2498 130.025,-25.7231"/>
</g>
<!-- S2&#45;&gt;Nucleocapsid -->
<g id="edge63" class="edge"><title>S2&#45;&gt;Nucleocapsid</title>
<path fill="none" stroke="black" d="M324.224,-123.851C310.975,-137.403 291.088,-160.7 283,-185.428 253.517,-275.566 302,-303.127 302,-397.964 302,-865.937 302,-865.937 302,-865.937 302,-1020.96 359.858,-1417.05 440,-1549.75 450.372,-1566.92 467.778,-1581.21 482.759,-1591.29"/>
<polygon fill="black" stroke="black" points="480.921,-1594.27 491.228,-1596.73 484.702,-1588.38 480.921,-1594.27"/>
</g>
<!-- SARS&#45;CoV&#45;2 polyprotein 1a&#45;&gt;SARS&#45;CoV&#45;2 pp1a and pp1ab products -->
<g id="edge66" class="edge"><title>SARS&#45;CoV&#45;2 polyprotein 1a&#45;&gt;SARS&#45;CoV&#45;2 pp1a and pp1ab products</title>
<path fill="none" stroke="black" d="M751.325,-830.08C742.386,-807.949 730.525,-778.585 720.357,-753.411"/>
<polygon fill="black" stroke="black" points="723.543,-751.952 716.552,-743.991 717.052,-754.574 723.543,-751.952"/>
</g>
<!-- Nsp11 -->
<g id="node38" class="node"><title>Nsp11</title>
<ellipse fill="none" stroke="black" cx="783" cy="-699.536" rx="18" ry="18"/>
<text text-anchor="middle" x="783" y="-698.336" font-family="Times,serif" font-size="4.00">Nsp11</text>
</g>
<!-- SARS&#45;CoV&#45;2 polyprotein 1a&#45;&gt;Nsp11 -->
<g id="edge65" class="edge"><title>SARS&#45;CoV&#45;2 polyprotein 1a&#45;&gt;Nsp11</title>
<path fill="none" stroke="black" d="M768.995,-827.673C772.323,-797.46 776.99,-755.091 780.005,-727.726"/>
<polygon fill="black" stroke="black" points="783.495,-728.008 781.111,-717.685 776.537,-727.242 783.495,-728.008"/>
</g>
<!-- SARS&#45;CoV&#45;2 polyprotein 1ab&#45;&gt;SARS&#45;CoV&#45;2 pp1a and pp1ab products -->
<g id="edge68" class="edge"><title>SARS&#45;CoV&#45;2 polyprotein 1ab&#45;&gt;SARS&#45;CoV&#45;2 pp1a and pp1ab products</title>
<path fill="none" stroke="black" d="M678.127,-826.859C681.542,-806.189 685.866,-780.023 689.691,-756.873"/>
<polygon fill="black" stroke="black" points="693.175,-757.258 691.352,-746.821 686.268,-756.116 693.175,-757.258"/>
</g>
<!-- SARS&#45;CoV&#45;2 pp1ab products -->
<g id="node36" class="node"><title>SARS&#45;CoV&#45;2 pp1ab products</title>
<ellipse fill="none" stroke="black" cx="596" cy="-699.536" rx="37.8075" ry="37.8075"/>
<text text-anchor="middle" x="596" y="-698.336" font-family="Times,serif" font-size="4.00">SARS&#45;CoV&#45;2 pp1ab products</text>
</g>
<!-- SARS&#45;CoV&#45;2 polyprotein 1ab&#45;&gt;SARS&#45;CoV&#45;2 pp1ab products -->
<g id="edge67" class="edge"><title>SARS&#45;CoV&#45;2 polyprotein 1ab&#45;&gt;SARS&#45;CoV&#45;2 pp1ab products</title>
<path fill="none" stroke="black" d="M656.253,-830.08C644.546,-804.911 628.489,-770.387 615.894,-743.309"/>
<polygon fill="black" stroke="black" points="618.988,-741.661 611.597,-734.07 612.641,-744.613 618.988,-741.661"/>
</g>
<!-- CTSB -->
<g id="node29" class="node"><title>CTSB</title>
<ellipse fill="none" stroke="black" cx="364" cy="-217.248" rx="18" ry="18"/>
<text text-anchor="middle" x="364" y="-216.048" font-family="Times,serif" font-size="4.00">CTSB</text>
</g>
<!-- CTSB&#45;&gt;S2 -->
<g id="edge69" class="edge"><title>CTSB&#45;&gt;S2</title>
<path fill="none" stroke="black" d="M359.662,-199.453C355.391,-182.917 348.804,-157.414 343.83,-138.157"/>
<polygon fill="black" stroke="black" points="347.217,-137.275 341.327,-128.468 340.439,-139.025 347.217,-137.275"/>
</g>
<!-- CTSB&#45;&gt;S1 -->
<g id="edge70" class="edge"><title>CTSB&#45;&gt;S1</title>
<path fill="none" stroke="black" d="M372.411,-200.824C381.767,-183.664 397.002,-155.724 407.919,-135.704"/>
<polygon fill="black" stroke="black" points="411.026,-137.317 412.74,-126.862 404.88,-133.966 411.026,-137.317"/>
</g>
<!-- SARS&#45;CoV&#45;2 structural proteins -->
<g id="node30" class="node"><title>SARS&#45;CoV&#45;2 structural proteins</title>
<ellipse fill="none" stroke="black" cx="414" cy="-398.964" rx="41.2319" ry="41.2319"/>
<text text-anchor="middle" x="414" y="-397.764" font-family="Times,serif" font-size="4.00">SARS&#45;CoV&#45;2 structural proteins</text>
</g>
<!-- SARS&#45;CoV&#45;2 structural proteins&#45;&gt;S -->
<g id="edge73" class="edge"><title>SARS&#45;CoV&#45;2 structural proteins&#45;&gt;S</title>
<path fill="none" stroke="black" d="M441.272,-367.479C453.69,-353.598 468.075,-337.518 479.252,-325.025"/>
<polygon fill="black" stroke="black" points="482.022,-327.178 486.08,-317.392 476.805,-322.511 482.022,-327.178"/>
</g>
<!-- SARS&#45;CoV&#45;2 structural proteins&#45;&gt;M -->
<g id="edge71" class="edge"><title>SARS&#45;CoV&#45;2 structural proteins&#45;&gt;M</title>
<path fill="none" stroke="black" d="M398.487,-437.402C376.788,-493.248 340,-602.142 340,-698.536 340,-1532.75 340,-1532.75 340,-1532.75 340,-1580.75 314.656,-1632.15 297.767,-1661.07"/>
<polygon fill="black" stroke="black" points="294.564,-1659.6 292.412,-1669.98 300.564,-1663.21 294.564,-1659.6"/>
</g>
<!-- SARS&#45;CoV&#45;2 structural proteins&#45;&gt;E -->
<g id="edge72" class="edge"><title>SARS&#45;CoV&#45;2 structural proteins&#45;&gt;E</title>
<path fill="none" stroke="black" d="M386.634,-367.896C359.764,-338.133 317.852,-291.062 283,-249.068 220.862,-174.197 150.764,-82.3308 119.537,-40.9936"/>
<polygon fill="black" stroke="black" points="122.296,-38.8397 113.48,-32.964 116.708,-43.0552 122.296,-38.8397"/>
</g>
<!-- TMPRSS2 -->
<g id="node31" class="node"><title>TMPRSS2</title>
<ellipse fill="none" stroke="black" cx="419" cy="-217.248" rx="18.6233" ry="18.6233"/>
<text text-anchor="middle" x="419" y="-216.048" font-family="Times,serif" font-size="4.00">TMPRSS2</text>
</g>
<!-- TMPRSS2&#45;&gt;ACE2 (100 Kda) -->
<g id="edge75" class="edge"><title>TMPRSS2&#45;&gt;ACE2 (100 Kda)</title>
<path fill="none" stroke="black" d="M430.042,-202.019C434.853,-196.407 440.804,-190.179 447,-185.428 474.762,-164.141 489.125,-170.568 517,-149.428 521.25,-146.205 525.422,-142.433 529.321,-138.544"/>
<polygon fill="black" stroke="black" points="532.098,-140.702 536.431,-131.034 527.014,-135.89 532.098,-140.702"/>
</g>
<!-- TMPRSS2&#45;&gt;S2 -->
<g id="edge76" class="edge"><title>TMPRSS2&#45;&gt;S2</title>
<path fill="none" stroke="black" d="M407.941,-202.15C394.032,-184.419 370.015,-153.802 353.824,-133.162"/>
<polygon fill="black" stroke="black" points="356.55,-130.966 347.624,-125.258 351.042,-135.286 356.55,-130.966"/>
</g>
<!-- TMPRSS2&#45;&gt;S1 -->
<g id="edge77" class="edge"><title>TMPRSS2&#45;&gt;S1</title>
<path fill="none" stroke="black" d="M419.339,-198.515C419.652,-182.176 420.12,-157.686 420.48,-138.881"/>
<polygon fill="black" stroke="black" points="423.98,-138.904 420.672,-128.839 416.982,-138.77 423.98,-138.904"/>
</g>
<!-- TMPRSS2&#45;&gt;ACE2 (15 Kda) -->
<g id="edge74" class="edge"><title>TMPRSS2&#45;&gt;ACE2 (15 Kda)</title>
<path fill="none" stroke="black" d="M428.591,-200.824C438.452,-184.965 454.038,-159.9 466.171,-140.387"/>
<polygon fill="black" stroke="black" points="469.161,-142.206 471.47,-131.865 463.217,-138.509 469.161,-142.206"/>
</g>
<!-- Nucleocapsid&#45;&gt;N -->
<g id="edge79" class="edge"><title>Nucleocapsid&#45;&gt;N</title>
<path fill="none" stroke="black" d="M533.419,-1603.37C601.961,-1590.58 808.637,-1552.03 884.061,-1537.96"/>
<polygon fill="black" stroke="black" points="885.017,-1541.34 894.205,-1536.07 883.733,-1534.46 885.017,-1541.34"/>
</g>
<!-- Nucleocapsid&#45;&gt; SARS&#45;CoV&#45;2 (+)gRNA -->
<g id="edge78" class="edge"><title>Nucleocapsid&#45;&gt; SARS&#45;CoV&#45;2 (+)gRNA</title>
<path fill="none" stroke="black" d="M520.15,-1587.41C559.672,-1500.41 716.109,-1156.03 768.67,-1040.32"/>
<polygon fill="black" stroke="black" points="771.903,-1041.67 772.852,-1031.11 765.529,-1038.77 771.903,-1041.67"/>
</g>
<!-- SARS&#45;CoV&#45;2 accessory protein coding (+)sgmRNAs&#45;&gt;SARS&#45;CoV&#45;2 accessory proteins -->
<g id="edge80" class="edge"><title>SARS&#45;CoV&#45;2 accessory protein coding (+)sgmRNAs&#45;&gt;SARS&#45;CoV&#45;2 accessory proteins</title>
<path fill="none" stroke="black" d="M1213.94,-487.662C1224.53,-472.692 1236,-456.481 1246.17,-442.115"/>
<polygon fill="black" stroke="black" points="1249.07,-444.079 1251.99,-433.894 1243.35,-440.035 1249.07,-444.079"/>
</g>
<!-- SARS&#45;CoV&#45;2 structural protein coding (+)sgmRNAs&#45;&gt;SARS&#45;CoV&#45;2 structural proteins -->
<g id="edge81" class="edge"><title>SARS&#45;CoV&#45;2 structural protein coding (+)sgmRNAs&#45;&gt;SARS&#45;CoV&#45;2 structural proteins</title>
<path fill="none" stroke="black" d="M501.793,-493.48C484.82,-475.4 465.472,-454.792 449.267,-437.531"/>
<polygon fill="black" stroke="black" points="451.459,-434.751 442.063,-429.856 446.356,-439.543 451.459,-434.751"/>
</g>
<!-- SARS&#45;CoV&#45;2 pp1ab products&#45;&gt;Replication transcription complex -->
<g id="edge82" class="edge"><title>SARS&#45;CoV&#45;2 pp1ab products&#45;&gt;Replication transcription complex</title>
<path fill="none" stroke="black" d="M591.145,-737.041C581.09,-829.358 568.639,-1074.03 697,-1204.22 740.269,-1248.11 809.943,-1267.82 858.195,-1276.54"/>
<polygon fill="black" stroke="black" points="857.703,-1280.01 868.149,-1278.24 858.881,-1273.11 857.703,-1280.01"/>
</g>
<!-- Replication transcription complex_N oligomer&#45;&gt;N -->
<g id="edge84" class="edge"><title>Replication transcription complex_N oligomer&#45;&gt;N</title>
<path fill="none" stroke="black" d="M918.749,-1477.44C918.729,-1486.79 918.442,-1496.1 917.889,-1504.26"/>
<polygon fill="black" stroke="black" points="914.402,-1503.96 917.009,-1514.23 921.375,-1504.58 914.402,-1503.96"/>
</g>
<!-- Replication transcription complex_N oligomer&#45;&gt;Replication transcription complex -->
<g id="edge83" class="edge"><title>Replication transcription complex_N oligomer&#45;&gt;Replication transcription complex</title>
<path fill="none" stroke="black" d="M912,-1364.02C912,-1355.59 912,-1346.91 912,-1338.54"/>
<polygon fill="black" stroke="black" points="915.5,-1338.51 912,-1328.51 908.5,-1338.51 915.5,-1338.51"/>
</g>
<!-- Nsp11&#45;&gt;Replication transcription complex -->
<g id="edge85" class="edge"><title>Nsp11&#45;&gt;Replication transcription complex</title>
<path fill="none" stroke="black" d="M788.188,-716.816C794.164,-735.91 804.051,-768.578 811,-797.054 854.744,-976.304 851.35,-1024.25 892,-1204.22 894.015,-1213.14 896.287,-1222.6 898.558,-1231.74"/>
<polygon fill="black" stroke="black" points="895.18,-1232.66 901.01,-1241.51 901.969,-1230.96 895.18,-1232.66"/>
</g>
<!-- N (&#45;)sgmRNA&#45;&gt;N (+)sgmRNA -->
<g id="edge86" class="edge"><title>N (&#45;)sgmRNA&#45;&gt;N (+)sgmRNA</title>
<path fill="none" stroke="black" d="M1286.77,-677.542C1295.55,-650.333 1310.92,-602.671 1321.04,-571.329"/>
<polygon fill="black" stroke="black" points="1324.38,-572.364 1324.12,-561.773 1317.72,-570.215 1324.38,-572.364"/>
</g>
</g>
</svg>
