<?xml version="1.0" encoding="UTF-8" standalone="no"?>
<!DOCTYPE svg PUBLIC "-//W3C//DTD SVG 1.1//EN"
 "http://www.w3.org/Graphics/SVG/1.1/DTD/svg11.dtd">
<!-- Generated by graphviz version 2.38.0 (20140413.2041)
 -->
<!-- Title: G Pages: 1 -->
<svg width="386pt" height="746pt"
 viewBox="0.00 0.00 386.00 745.68" xmlns="http://www.w3.org/2000/svg" xmlns:xlink="http://www.w3.org/1999/xlink">
<g id="graph0" class="graph" transform="scale(1 1) rotate(0) translate(4 741.676)">
<title>G</title>
<polygon fill="white" stroke="none" points="-4,4 -4,-741.676 382,-741.676 382,4 -4,4"/>
<!-- ACE2 -->
<g id="node1" class="node"><title>ACE2</title>
<ellipse fill="none" stroke="black" cx="228" cy="-719.676" rx="18" ry="18"/>
<text text-anchor="middle" x="228" y="-718.476" font-family="Times,serif" font-size="4.00">ACE2</text>
</g>
<!-- pr_27feab0c&#45;ecfd&#45;477b&#45;8c9b&#45;e8eb9ba83053 -->
<g id="node2" class="node"><title>pr_27feab0c&#45;ecfd&#45;477b&#45;8c9b&#45;e8eb9ba83053</title>
<polygon fill="none" stroke="black" points="261.5,-665.676 162.5,-665.676 162.5,-566.676 261.5,-566.676 261.5,-665.676"/>
<text text-anchor="middle" x="212" y="-614.976" font-family="Times,serif" font-size="4.00">pr_27feab0c&#45;ecfd&#45;477b&#45;8c9b&#45;e8eb9ba83053</text>
</g>
<!-- ACE2&#45;&gt;pr_27feab0c&#45;ecfd&#45;477b&#45;8c9b&#45;e8eb9ba83053 -->
<g id="edge1" class="edge"><title>ACE2&#45;&gt;pr_27feab0c&#45;ecfd&#45;477b&#45;8c9b&#45;e8eb9ba83053</title>
<path fill="none" stroke="black" d="M225.286,-701.458C224.147,-694.231 222.748,-685.361 221.292,-676.12"/>
<polygon fill="black" stroke="black" points="224.712,-675.338 219.697,-666.005 217.797,-676.428 224.712,-675.338"/>
</g>
<!-- pr_57e4cc8c&#45;14e3&#45;41fb&#45;bb5b&#45;9b651e552ffc -->
<g id="node19" class="node"><title>pr_57e4cc8c&#45;14e3&#45;41fb&#45;bb5b&#45;9b651e552ffc</title>
<polygon fill="none" stroke="black" points="378,-665.176 280,-665.176 280,-567.176 378,-567.176 378,-665.176"/>
<text text-anchor="middle" x="329" y="-614.976" font-family="Times,serif" font-size="4.00">pr_57e4cc8c&#45;14e3&#45;41fb&#45;bb5b&#45;9b651e552ffc</text>
</g>
<!-- ACE2&#45;&gt;pr_57e4cc8c&#45;14e3&#45;41fb&#45;bb5b&#45;9b651e552ffc -->
<g id="edge2" class="edge"><title>ACE2&#45;&gt;pr_57e4cc8c&#45;14e3&#45;41fb&#45;bb5b&#45;9b651e552ffc</title>
<path fill="none" stroke="black" d="M240.385,-706.23C249.096,-697.476 261.425,-685.086 274.125,-672.322"/>
<polygon fill="black" stroke="black" points="276.626,-674.771 281.199,-665.214 271.664,-669.834 276.626,-674.771"/>
</g>
<!-- ACE2_SPIKE complex -->
<g id="node3" class="node"><title>ACE2_SPIKE complex</title>
<ellipse fill="none" stroke="black" cx="271" cy="-498.856" rx="31.6406" ry="31.6406"/>
<text text-anchor="middle" x="271" y="-497.656" font-family="Times,serif" font-size="4.00">ACE2_SPIKE complex</text>
</g>
<!-- pr_27feab0c&#45;ecfd&#45;477b&#45;8c9b&#45;e8eb9ba83053&#45;&gt;ACE2_SPIKE complex -->
<g id="edge3" class="edge"><title>pr_27feab0c&#45;ecfd&#45;477b&#45;8c9b&#45;e8eb9ba83053&#45;&gt;ACE2_SPIKE complex</title>
<path fill="none" stroke="black" d="M236.85,-566.604C241.952,-556.633 247.244,-546.289 252.096,-536.806"/>
<polygon fill="black" stroke="black" points="255.338,-538.154 256.777,-527.657 249.106,-534.966 255.338,-538.154"/>
</g>
<!-- pr_10a2b9ba&#45;cf93&#45;425b&#45;981d&#45;0021174dfe61 -->
<g id="node6" class="node"><title>pr_10a2b9ba&#45;cf93&#45;425b&#45;981d&#45;0021174dfe61</title>
<polygon fill="none" stroke="black" points="355.5,-431.037 256.5,-431.037 256.5,-332.037 355.5,-332.037 355.5,-431.037"/>
<text text-anchor="middle" x="306" y="-380.337" font-family="Times,serif" font-size="4.00">pr_10a2b9ba&#45;cf93&#45;425b&#45;981d&#45;0021174dfe61</text>
</g>
<!-- ACE2_SPIKE complex&#45;&gt;pr_10a2b9ba&#45;cf93&#45;425b&#45;981d&#45;0021174dfe61 -->
<g id="edge4" class="edge"><title>ACE2_SPIKE complex&#45;&gt;pr_10a2b9ba&#45;cf93&#45;425b&#45;981d&#45;0021174dfe61</title>
<path fill="none" stroke="black" d="M280.013,-468.159C282.539,-459.838 285.375,-450.491 288.222,-441.113"/>
<polygon fill="black" stroke="black" points="291.624,-441.955 291.179,-431.369 284.926,-439.922 291.624,-441.955"/>
</g>
<!-- pr_a53391e3&#45;67e5&#45;4fbb&#45;b7b5&#45;2ce6f0e384e5 -->
<g id="node7" class="node"><title>pr_a53391e3&#45;67e5&#45;4fbb&#45;b7b5&#45;2ce6f0e384e5</title>
<polygon fill="none" stroke="black" points="121.5,-431.037 22.5,-431.037 22.5,-332.037 121.5,-332.037 121.5,-431.037"/>
<text text-anchor="middle" x="72" y="-380.337" font-family="Times,serif" font-size="4.00">pr_a53391e3&#45;67e5&#45;4fbb&#45;b7b5&#45;2ce6f0e384e5</text>
</g>
<!-- ACE2_SPIKE complex&#45;&gt;pr_a53391e3&#45;67e5&#45;4fbb&#45;b7b5&#45;2ce6f0e384e5 -->
<g id="edge5" class="edge"><title>ACE2_SPIKE complex&#45;&gt;pr_a53391e3&#45;67e5&#45;4fbb&#45;b7b5&#45;2ce6f0e384e5</title>
<path fill="none" stroke="black" d="M246.861,-477.357C241.812,-473.624 236.382,-469.984 231,-467.037 189.569,-444.348 172.068,-454.376 131,-431.037 130.805,-430.926 130.611,-430.815 130.416,-430.703"/>
<polygon fill="black" stroke="black" points="132.039,-427.59 121.698,-425.285 128.344,-433.536 132.039,-427.59"/>
</g>
<!-- pr_0364af08&#45;e3fc&#45;40b2&#45;afd2&#45;b64d514fad4c -->
<g id="node15" class="node"><title>pr_0364af08&#45;e3fc&#45;40b2&#45;afd2&#45;b64d514fad4c</title>
<polygon fill="none" stroke="black" points="238,-430.537 140,-430.537 140,-332.537 238,-332.537 238,-430.537"/>
<text text-anchor="middle" x="189" y="-380.337" font-family="Times,serif" font-size="4.00">pr_0364af08&#45;e3fc&#45;40b2&#45;afd2&#45;b64d514fad4c</text>
</g>
<!-- ACE2_SPIKE complex&#45;&gt;pr_0364af08&#45;e3fc&#45;40b2&#45;afd2&#45;b64d514fad4c -->
<g id="edge6" class="edge"><title>ACE2_SPIKE complex&#45;&gt;pr_0364af08&#45;e3fc&#45;40b2&#45;afd2&#45;b64d514fad4c</title>
<path fill="none" stroke="black" d="M253.005,-472.549C245.88,-462.529 237.385,-450.582 228.949,-438.719"/>
<polygon fill="black" stroke="black" points="231.784,-436.665 223.136,-430.544 226.079,-440.722 231.784,-436.665"/>
</g>
<!-- SPIKE -->
<g id="node4" class="node"><title>SPIKE</title>
<ellipse fill="none" stroke="black" cx="313" cy="-719.676" rx="18" ry="18"/>
<text text-anchor="middle" x="313" y="-718.476" font-family="Times,serif" font-size="4.00">SPIKE</text>
</g>
<!-- SPIKE&#45;&gt;pr_27feab0c&#45;ecfd&#45;477b&#45;8c9b&#45;e8eb9ba83053 -->
<g id="edge7" class="edge"><title>SPIKE&#45;&gt;pr_27feab0c&#45;ecfd&#45;477b&#45;8c9b&#45;e8eb9ba83053</title>
<path fill="none" stroke="black" d="M300.615,-706.23C292.073,-697.646 280.052,-685.565 267.612,-673.064"/>
<polygon fill="black" stroke="black" points="269.798,-670.298 260.263,-665.678 264.836,-675.235 269.798,-670.298"/>
</g>
<!-- SPIKE&#45;&gt;pr_57e4cc8c&#45;14e3&#45;41fb&#45;bb5b&#45;9b651e552ffc -->
<g id="edge8" class="edge"><title>SPIKE&#45;&gt;pr_57e4cc8c&#45;14e3&#45;41fb&#45;bb5b&#45;9b651e552ffc</title>
<path fill="none" stroke="black" d="M315.714,-701.458C316.879,-694.07 318.314,-684.966 319.806,-675.502"/>
<polygon fill="black" stroke="black" points="323.272,-675.99 321.372,-665.567 316.357,-674.9 323.272,-675.99"/>
</g>
<!-- Nucleoporin_gRNA complex  -->
<g id="node5" class="node"><title>Nucleoporin_gRNA complex </title>
<ellipse fill="none" stroke="black" cx="306" cy="-257.322" rx="38.9294" ry="38.9294"/>
<text text-anchor="middle" x="306" y="-256.122" font-family="Times,serif" font-size="4.00">Nucleoporin_gRNA complex </text>
</g>
<!-- Nucleoporin_gRNA complex &#45;&gt;pr_10a2b9ba&#45;cf93&#45;425b&#45;981d&#45;0021174dfe61 -->
<g id="edge9" class="edge"><title>Nucleoporin_gRNA complex &#45;&gt;pr_10a2b9ba&#45;cf93&#45;425b&#45;981d&#45;0021174dfe61</title>
<path fill="none" stroke="black" d="M312.283,-295.886C312.623,-304.056 312.777,-312.888 312.746,-321.659"/>
<polygon fill="black" stroke="black" points="309.244,-321.842 312.624,-331.883 316.243,-321.926 309.244,-321.842"/>
</g>
<!-- pr_13f31c4b&#45;7e1f&#45;4b6d&#45;83ae&#45;33b38791cb5f -->
<g id="node12" class="node"><title>pr_13f31c4b&#45;7e1f&#45;4b6d&#45;83ae&#45;33b38791cb5f</title>
<polygon fill="none" stroke="black" points="138,-181.108 40,-181.108 40,-83.1084 138,-83.1084 138,-181.108"/>
<text text-anchor="middle" x="89" y="-130.908" font-family="Times,serif" font-size="4.00">pr_13f31c4b&#45;7e1f&#45;4b6d&#45;83ae&#45;33b38791cb5f</text>
</g>
<!-- Nucleoporin_gRNA complex &#45;&gt;pr_13f31c4b&#45;7e1f&#45;4b6d&#45;83ae&#45;33b38791cb5f -->
<g id="edge10" class="edge"><title>Nucleoporin_gRNA complex &#45;&gt;pr_13f31c4b&#45;7e1f&#45;4b6d&#45;83ae&#45;33b38791cb5f</title>
<path fill="none" stroke="black" d="M277.171,-231.053C271.102,-226.5 264.546,-222.098 258,-218.608 212.234,-194.21 192.262,-207.929 147,-182.608 146.906,-182.556 146.812,-182.503 146.718,-182.45"/>
<polygon fill="black" stroke="black" points="148.403,-179.377 138.053,-177.111 144.731,-185.337 148.403,-179.377"/>
</g>
<!-- pr_76d6b699&#45;9030&#45;49a8&#45;97a5&#45;338117295b9a -->
<g id="node20" class="node"><title>pr_76d6b699&#45;9030&#45;49a8&#45;97a5&#45;338117295b9a</title>
<polygon fill="none" stroke="black" points="257.5,-182.608 156.5,-182.608 156.5,-81.6084 257.5,-81.6084 257.5,-182.608"/>
<text text-anchor="middle" x="207" y="-130.908" font-family="Times,serif" font-size="4.00">pr_76d6b699&#45;9030&#45;49a8&#45;97a5&#45;338117295b9a</text>
</g>
<!-- Nucleoporin_gRNA complex &#45;&gt;pr_76d6b699&#45;9030&#45;49a8&#45;97a5&#45;338117295b9a -->
<g id="edge11" class="edge"><title>Nucleoporin_gRNA complex &#45;&gt;pr_76d6b699&#45;9030&#45;49a8&#45;97a5&#45;338117295b9a</title>
<path fill="none" stroke="black" d="M282.035,-226.496C273.397,-215.746 263.332,-203.218 253.43,-190.895"/>
<polygon fill="black" stroke="black" points="255.956,-188.45 246.964,-182.847 250.499,-192.835 255.956,-188.45"/>
</g>
<!-- pr_10a2b9ba&#45;cf93&#45;425b&#45;981d&#45;0021174dfe61&#45;&gt;Nucleoporin_gRNA complex  -->
<g id="edge12" class="edge"><title>pr_10a2b9ba&#45;cf93&#45;425b&#45;981d&#45;0021174dfe61&#45;&gt;Nucleoporin_gRNA complex </title>
<path fill="none" stroke="black" d="M299.376,-331.883C299.201,-323.365 299.208,-314.509 299.397,-306.017"/>
<polygon fill="black" stroke="black" points="302.899,-305.992 299.717,-295.886 295.903,-305.771 302.899,-305.992"/>
</g>
<!-- SPIKE S2 -->
<g id="node8" class="node"><title>SPIKE S2</title>
<ellipse fill="none" stroke="black" cx="144" cy="-257.322" rx="18.6233" ry="18.6233"/>
<text text-anchor="middle" x="144" y="-256.122" font-family="Times,serif" font-size="4.00">SPIKE S2</text>
</g>
<!-- pr_a53391e3&#45;67e5&#45;4fbb&#45;b7b5&#45;2ce6f0e384e5&#45;&gt;SPIKE S2 -->
<g id="edge13" class="edge"><title>pr_a53391e3&#45;67e5&#45;4fbb&#45;b7b5&#45;2ce6f0e384e5&#45;&gt;SPIKE S2</title>
<path fill="none" stroke="black" d="M100.663,-331.883C110.604,-315.009 121.325,-296.811 129.616,-282.737"/>
<polygon fill="black" stroke="black" points="132.869,-284.112 134.929,-273.72 126.837,-280.559 132.869,-284.112"/>
</g>
<!-- SPIKE S1 -->
<g id="node11" class="node"><title>SPIKE S1</title>
<ellipse fill="none" stroke="black" cx="89" cy="-257.322" rx="18.6233" ry="18.6233"/>
<text text-anchor="middle" x="89" y="-256.122" font-family="Times,serif" font-size="4.00">SPIKE S1</text>
</g>
<!-- pr_a53391e3&#45;67e5&#45;4fbb&#45;b7b5&#45;2ce6f0e384e5&#45;&gt;SPIKE S1 -->
<g id="edge14" class="edge"><title>pr_a53391e3&#45;67e5&#45;4fbb&#45;b7b5&#45;2ce6f0e384e5&#45;&gt;SPIKE S1</title>
<path fill="none" stroke="black" d="M78.7677,-331.883C80.9449,-316.231 83.2805,-299.44 85.1698,-285.858"/>
<polygon fill="black" stroke="black" points="88.6665,-286.123 86.5777,-275.736 81.7333,-285.159 88.6665,-286.123"/>
</g>
<!-- SPIKE S2&#45;&gt;pr_13f31c4b&#45;7e1f&#45;4b6d&#45;83ae&#45;33b38791cb5f -->
<g id="edge15" class="edge"><title>SPIKE S2&#45;&gt;pr_13f31c4b&#45;7e1f&#45;4b6d&#45;83ae&#45;33b38791cb5f</title>
<path fill="none" stroke="black" d="M136.696,-239.961C130.998,-227.195 122.721,-208.653 114.657,-190.587"/>
<polygon fill="black" stroke="black" points="117.746,-188.92 110.474,-181.216 111.354,-191.774 117.746,-188.92"/>
</g>
<!-- SPIKE S2&#45;&gt;pr_76d6b699&#45;9030&#45;49a8&#45;97a5&#45;338117295b9a -->
<g id="edge16" class="edge"><title>SPIKE S2&#45;&gt;pr_76d6b699&#45;9030&#45;49a8&#45;97a5&#45;338117295b9a</title>
<path fill="none" stroke="black" d="M152.107,-240.467C158.475,-228.013 167.764,-209.846 176.896,-191.985"/>
<polygon fill="black" stroke="black" points="180.205,-193.202 181.641,-182.705 173.972,-190.015 180.205,-193.202"/>
</g>
<!-- CTSB -->
<g id="node9" class="node"><title>CTSB</title>
<ellipse fill="none" stroke="black" cx="72" cy="-498.856" rx="18" ry="18"/>
<text text-anchor="middle" x="72" y="-497.656" font-family="Times,serif" font-size="4.00">CTSB</text>
</g>
<!-- CTSB&#45;&gt;pr_a53391e3&#45;67e5&#45;4fbb&#45;b7b5&#45;2ce6f0e384e5 -->
<g id="edge17" class="edge"><title>CTSB&#45;&gt;pr_a53391e3&#45;67e5&#45;4fbb&#45;b7b5&#45;2ce6f0e384e5</title>
<path fill="none" stroke="black" d="M72,-480.841C72,-470.15 72,-455.668 72,-441.108"/>
<polygon fill="black" stroke="black" points="75.5001,-441.061 72,-431.061 68.5001,-441.061 75.5001,-441.061"/>
</g>
<!-- CTSL -->
<g id="node10" class="node"><title>CTSL</title>
<ellipse fill="none" stroke="black" cx="18" cy="-498.856" rx="18" ry="18"/>
<text text-anchor="middle" x="18" y="-497.656" font-family="Times,serif" font-size="4.00">CTSL</text>
</g>
<!-- CTSL&#45;&gt;pr_a53391e3&#45;67e5&#45;4fbb&#45;b7b5&#45;2ce6f0e384e5 -->
<g id="edge18" class="edge"><title>CTSL&#45;&gt;pr_a53391e3&#45;67e5&#45;4fbb&#45;b7b5&#45;2ce6f0e384e5</title>
<path fill="none" stroke="black" d="M25.2827,-482.304C30.4327,-471.306 37.687,-455.814 44.9465,-440.311"/>
<polygon fill="black" stroke="black" points="48.1345,-441.756 49.2055,-431.215 41.795,-438.787 48.1345,-441.756"/>
</g>
<!-- Nucleocapsid -->
<g id="node13" class="node"><title>Nucleocapsid</title>
<ellipse fill="none" stroke="black" cx="148" cy="-22.8042" rx="22.6101" ry="22.6101"/>
<text text-anchor="middle" x="148" y="-21.6042" font-family="Times,serif" font-size="4.00">Nucleocapsid</text>
</g>
<!-- pr_13f31c4b&#45;7e1f&#45;4b6d&#45;83ae&#45;33b38791cb5f&#45;&gt;Nucleocapsid -->
<g id="edge19" class="edge"><title>pr_13f31c4b&#45;7e1f&#45;4b6d&#45;83ae&#45;33b38791cb5f&#45;&gt;Nucleocapsid</title>
<path fill="none" stroke="black" d="M115.394,-83.1056C121.193,-72.5591 127.153,-61.7182 132.366,-52.2374"/>
<polygon fill="black" stroke="black" points="135.545,-53.7203 137.296,-43.2712 129.411,-50.3476 135.545,-53.7203"/>
</g>
<!-- LY6E -->
<g id="node14" class="node"><title>LY6E</title>
<ellipse fill="none" stroke="black" cx="34" cy="-257.322" rx="18" ry="18"/>
<text text-anchor="middle" x="34" y="-256.122" font-family="Times,serif" font-size="4.00">LY6E</text>
</g>
<!-- LY6E&#45;&gt;pr_13f31c4b&#45;7e1f&#45;4b6d&#45;83ae&#45;33b38791cb5f -->
<g id="edge20" class="edge"><title>LY6E&#45;&gt;pr_13f31c4b&#45;7e1f&#45;4b6d&#45;83ae&#45;33b38791cb5f</title>
<path fill="none" stroke="black" d="M40.9658,-240.717C46.6779,-227.921 55.1363,-208.972 63.37,-190.526"/>
<polygon fill="black" stroke="black" points="66.6296,-191.81 67.5097,-181.252 60.2375,-188.957 66.6296,-191.81"/>
</g>
<!-- LY6E&#45;&gt;pr_76d6b699&#45;9030&#45;49a8&#45;97a5&#45;338117295b9a -->
<g id="edge21" class="edge"><title>LY6E&#45;&gt;pr_76d6b699&#45;9030&#45;49a8&#45;97a5&#45;338117295b9a</title>
<path fill="none" stroke="black" d="M42.134,-241.174C46.8256,-233.584 53.3177,-224.732 61,-218.608 93.4022,-192.781 111.527,-204.023 147,-182.608 147.293,-182.432 147.585,-182.254 147.878,-182.074"/>
<polygon fill="black" stroke="black" points="149.888,-184.942 156.355,-176.549 146.066,-179.078 149.888,-184.942"/>
</g>
<!-- pr_0364af08&#45;e3fc&#45;40b2&#45;afd2&#45;b64d514fad4c&#45;&gt;SPIKE S2 -->
<g id="edge22" class="edge"><title>pr_0364af08&#45;e3fc&#45;40b2&#45;afd2&#45;b64d514fad4c&#45;&gt;SPIKE S2</title>
<path fill="none" stroke="black" d="M171.215,-332.234C165.205,-315.913 158.726,-298.315 153.597,-284.387"/>
<polygon fill="black" stroke="black" points="156.867,-283.139 150.127,-274.964 150.298,-285.557 156.867,-283.139"/>
</g>
<!-- pr_0364af08&#45;e3fc&#45;40b2&#45;afd2&#45;b64d514fad4c&#45;&gt;SPIKE S1 -->
<g id="edge23" class="edge"><title>pr_0364af08&#45;e3fc&#45;40b2&#45;afd2&#45;b64d514fad4c&#45;&gt;SPIKE S1</title>
<path fill="none" stroke="black" d="M146.151,-332.469C136.052,-320.724 125.474,-308.07 116,-296.037 112.389,-291.449 108.657,-286.436 105.164,-281.605"/>
<polygon fill="black" stroke="black" points="107.859,-279.356 99.2087,-273.238 102.156,-283.415 107.859,-279.356"/>
</g>
<!-- ACE2 (15 Kda fragment) -->
<g id="node18" class="node"><title>ACE2 (15 Kda fragment)</title>
<ellipse fill="none" stroke="black" cx="215" cy="-257.322" rx="34.4429" ry="34.4429"/>
<text text-anchor="middle" x="215" y="-256.122" font-family="Times,serif" font-size="4.00">ACE2 (15 Kda fragment)</text>
</g>
<!-- pr_0364af08&#45;e3fc&#45;40b2&#45;afd2&#45;b64d514fad4c&#45;&gt;ACE2 (15 Kda fragment) -->
<g id="edge24" class="edge"><title>pr_0364af08&#45;e3fc&#45;40b2&#45;afd2&#45;b64d514fad4c&#45;&gt;ACE2 (15 Kda fragment)</title>
<path fill="none" stroke="black" d="M199.276,-332.234C201.469,-321.926 203.77,-311.109 205.915,-301.028"/>
<polygon fill="black" stroke="black" points="209.34,-301.749 207.997,-291.239 202.493,-300.292 209.34,-301.749"/>
</g>
<!-- TMPRSS2 -->
<g id="node16" class="node"><title>TMPRSS2</title>
<ellipse fill="none" stroke="black" cx="203" cy="-498.856" rx="18.6233" ry="18.6233"/>
<text text-anchor="middle" x="203" y="-497.656" font-family="Times,serif" font-size="4.00">TMPRSS2</text>
</g>
<!-- TMPRSS2&#45;&gt;pr_0364af08&#45;e3fc&#45;40b2&#45;afd2&#45;b64d514fad4c -->
<g id="edge25" class="edge"><title>TMPRSS2&#45;&gt;pr_0364af08&#45;e3fc&#45;40b2&#45;afd2&#45;b64d514fad4c</title>
<path fill="none" stroke="black" d="M200.874,-480.342C199.569,-469.591 197.815,-455.144 196.056,-440.658"/>
<polygon fill="black" stroke="black" points="199.523,-440.173 194.843,-430.667 192.574,-441.016 199.523,-440.173"/>
</g>
<!-- Camostat mesylate -->
<g id="node17" class="node"><title>Camostat mesylate</title>
<ellipse fill="none" stroke="black" cx="137" cy="-498.856" rx="29.3373" ry="29.3373"/>
<text text-anchor="middle" x="137" y="-497.656" font-family="Times,serif" font-size="4.00">Camostat mesylate</text>
</g>
<!-- Camostat mesylate&#45;&gt;pr_0364af08&#45;e3fc&#45;40b2&#45;afd2&#45;b64d514fad4c -->
<g id="edge26" class="edge"><title>Camostat mesylate&#45;&gt;pr_0364af08&#45;e3fc&#45;40b2&#45;afd2&#45;b64d514fad4c</title>
<path fill="none" stroke="black" d="M148.67,-471.976C152.974,-462.43 158.041,-451.194 163.102,-439.97"/>
<polygon fill="black" stroke="black" points="166.416,-441.136 167.336,-430.581 160.034,-438.259 166.416,-441.136"/>
</g>
<!-- pr_57e4cc8c&#45;14e3&#45;41fb&#45;bb5b&#45;9b651e552ffc&#45;&gt;ACE2_SPIKE complex -->
<g id="edge27" class="edge"><title>pr_57e4cc8c&#45;14e3&#45;41fb&#45;bb5b&#45;9b651e552ffc&#45;&gt;ACE2_SPIKE complex</title>
<path fill="none" stroke="black" d="M304.739,-566.938C299.611,-556.742 294.279,-546.142 289.41,-536.46"/>
<polygon fill="black" stroke="black" points="292.524,-534.862 284.904,-527.501 286.27,-538.008 292.524,-534.862"/>
</g>
<!-- pr_76d6b699&#45;9030&#45;49a8&#45;97a5&#45;338117295b9a&#45;&gt;Nucleocapsid -->
<g id="edge28" class="edge"><title>pr_76d6b699&#45;9030&#45;49a8&#45;97a5&#45;338117295b9a&#45;&gt;Nucleocapsid</title>
<path fill="none" stroke="black" d="M179.745,-81.5396C174.188,-71.4321 168.523,-61.1302 163.547,-52.08"/>
<polygon fill="black" stroke="black" points="166.529,-50.2388 158.644,-43.1624 160.395,-53.6115 166.529,-50.2388"/>
</g>
</g>
</svg>
