<?xml version="1.0" encoding="UTF-8" standalone="no"?>
<!DOCTYPE svg PUBLIC "-//W3C//DTD SVG 1.1//EN"
 "http://www.w3.org/Graphics/SVG/1.1/DTD/svg11.dtd">
<!-- Generated by graphviz version 2.38.0 (20140413.2041)
 -->
<!-- Title: G Pages: 1 -->
<svg width="496pt" height="2184pt"
 viewBox="0.00 0.00 496.46 2183.97" xmlns="http://www.w3.org/2000/svg" xmlns:xlink="http://www.w3.org/1999/xlink">
<g id="graph0" class="graph" transform="scale(1 1) rotate(0) translate(4 2179.97)">
<title>G</title>
<polygon fill="white" stroke="none" points="-4,4 -4,-2179.97 492.456,-2179.97 492.456,4 -4,4"/>
<!-- ACE2 -->
<g id="node1" class="node"><title>ACE2</title>
<ellipse fill="none" stroke="black" cx="219" cy="-2157.97" rx="18" ry="18"/>
<text text-anchor="middle" x="219" y="-2156.77" font-family="Times,serif" font-size="4.00">ACE2</text>
</g>
<!-- pr_a67b53ee&#45;5c64&#45;4bcf&#45;968a&#45;f07185309451 -->
<g id="node2" class="node"><title>pr_a67b53ee&#45;5c64&#45;4bcf&#45;968a&#45;f07185309451</title>
<polygon fill="none" stroke="black" points="252.5,-2103.47 153.5,-2103.47 153.5,-2004.47 252.5,-2004.47 252.5,-2103.47"/>
<text text-anchor="middle" x="203" y="-2052.77" font-family="Times,serif" font-size="4.00">pr_a67b53ee&#45;5c64&#45;4bcf&#45;968a&#45;f07185309451</text>
</g>
<!-- ACE2&#45;&gt;pr_a67b53ee&#45;5c64&#45;4bcf&#45;968a&#45;f07185309451 -->
<g id="edge1" class="edge"><title>ACE2&#45;&gt;pr_a67b53ee&#45;5c64&#45;4bcf&#45;968a&#45;f07185309451</title>
<path fill="none" stroke="black" d="M216.358,-2140.13C215.185,-2132.65 213.729,-2123.36 212.212,-2113.7"/>
<polygon fill="black" stroke="black" points="215.627,-2112.88 210.62,-2103.55 208.712,-2113.97 215.627,-2112.88"/>
</g>
<!-- pr_166fb1c7&#45;5c2c&#45;4b97&#45;a1b1&#45;48288835426e -->
<g id="node17" class="node"><title>pr_166fb1c7&#45;5c2c&#45;4b97&#45;a1b1&#45;48288835426e</title>
<polygon fill="none" stroke="black" points="371,-2103.97 271,-2103.97 271,-2003.97 371,-2003.97 371,-2103.97"/>
<text text-anchor="middle" x="321" y="-2052.77" font-family="Times,serif" font-size="4.00">pr_166fb1c7&#45;5c2c&#45;4b97&#45;a1b1&#45;48288835426e</text>
</g>
<!-- ACE2&#45;&gt;pr_166fb1c7&#45;5c2c&#45;4b97&#45;a1b1&#45;48288835426e -->
<g id="edge2" class="edge"><title>ACE2&#45;&gt;pr_166fb1c7&#45;5c2c&#45;4b97&#45;a1b1&#45;48288835426e</title>
<path fill="none" stroke="black" d="M231.507,-2144.46C240.045,-2135.92 252.025,-2123.94 264.449,-2111.52"/>
<polygon fill="black" stroke="black" points="267.196,-2113.72 271.793,-2104.18 262.247,-2108.77 267.196,-2113.72"/>
</g>
<!-- ACE2_SPIKE complex -->
<g id="node3" class="node"><title>ACE2_SPIKE complex</title>
<ellipse fill="none" stroke="black" cx="262" cy="-1936.15" rx="31.6406" ry="31.6406"/>
<text text-anchor="middle" x="262" y="-1934.95" font-family="Times,serif" font-size="4.00">ACE2_SPIKE complex</text>
</g>
<!-- pr_a67b53ee&#45;5c64&#45;4bcf&#45;968a&#45;f07185309451&#45;&gt;ACE2_SPIKE complex -->
<g id="edge3" class="edge"><title>pr_a67b53ee&#45;5c64&#45;4bcf&#45;968a&#45;f07185309451&#45;&gt;ACE2_SPIKE complex</title>
<path fill="none" stroke="black" d="M227.85,-2004.19C233.053,-1993.97 238.454,-1983.37 243.383,-1973.7"/>
<polygon fill="black" stroke="black" points="246.522,-1975.24 247.942,-1964.75 240.285,-1972.07 246.522,-1975.24"/>
</g>
<!-- pr_8a401afb&#45;5e4d&#45;4e5d&#45;9313&#45;72195a92d146 -->
<g id="node6" class="node"><title>pr_8a401afb&#45;5e4d&#45;4e5d&#45;9313&#45;72195a92d146</title>
<polygon fill="none" stroke="black" points="209,-1868.33 109,-1868.33 109,-1768.33 209,-1768.33 209,-1868.33"/>
<text text-anchor="middle" x="159" y="-1817.13" font-family="Times,serif" font-size="4.00">pr_8a401afb&#45;5e4d&#45;4e5d&#45;9313&#45;72195a92d146</text>
</g>
<!-- ACE2_SPIKE complex&#45;&gt;pr_8a401afb&#45;5e4d&#45;4e5d&#45;9313&#45;72195a92d146 -->
<g id="edge4" class="edge"><title>ACE2_SPIKE complex&#45;&gt;pr_8a401afb&#45;5e4d&#45;4e5d&#45;9313&#45;72195a92d146</title>
<path fill="none" stroke="black" d="M241.156,-1911.71C232.005,-1901.42 220.822,-1888.85 209.69,-1876.33"/>
<polygon fill="black" stroke="black" points="212.045,-1873.71 202.784,-1868.56 206.814,-1878.36 212.045,-1873.71"/>
</g>
<!-- pr_c3e3868e&#45;36c5&#45;424e&#45;840e&#45;718b6ba5fb7a -->
<g id="node7" class="node"><title>pr_c3e3868e&#45;36c5&#45;424e&#45;840e&#45;718b6ba5fb7a</title>
<polygon fill="none" stroke="black" points="327,-1868.33 227,-1868.33 227,-1768.33 327,-1768.33 327,-1868.33"/>
<text text-anchor="middle" x="277" y="-1817.13" font-family="Times,serif" font-size="4.00">pr_c3e3868e&#45;36c5&#45;424e&#45;840e&#45;718b6ba5fb7a</text>
</g>
<!-- ACE2_SPIKE complex&#45;&gt;pr_c3e3868e&#45;36c5&#45;424e&#45;840e&#45;718b6ba5fb7a -->
<g id="edge5" class="edge"><title>ACE2_SPIKE complex&#45;&gt;pr_c3e3868e&#45;36c5&#45;424e&#45;840e&#45;718b6ba5fb7a</title>
<path fill="none" stroke="black" d="M265.98,-1904.42C267.015,-1896.43 268.164,-1887.55 269.32,-1878.63"/>
<polygon fill="black" stroke="black" points="272.807,-1878.95 270.621,-1868.59 265.865,-1878.05 272.807,-1878.95"/>
</g>
<!-- pr_34bb293d&#45;8604&#45;4995&#45;bd58&#45;7f56ddaec789 -->
<g id="node12" class="node"><title>pr_34bb293d&#45;8604&#45;4995&#45;bd58&#45;7f56ddaec789</title>
<polygon fill="none" stroke="black" points="445,-1868.33 345,-1868.33 345,-1768.33 445,-1768.33 445,-1868.33"/>
<text text-anchor="middle" x="395" y="-1817.13" font-family="Times,serif" font-size="4.00">pr_34bb293d&#45;8604&#45;4995&#45;bd58&#45;7f56ddaec789</text>
</g>
<!-- ACE2_SPIKE complex&#45;&gt;pr_34bb293d&#45;8604&#45;4995&#45;bd58&#45;7f56ddaec789 -->
<g id="edge6" class="edge"><title>ACE2_SPIKE complex&#45;&gt;pr_34bb293d&#45;8604&#45;4995&#45;bd58&#45;7f56ddaec789</title>
<path fill="none" stroke="black" d="M285.778,-1914.44C300.161,-1901.92 319.168,-1885.37 337.289,-1869.59"/>
<polygon fill="black" stroke="black" points="339.742,-1872.09 344.985,-1862.88 335.145,-1866.81 339.742,-1872.09"/>
</g>
<!-- S -->
<g id="node4" class="node"><title>S</title>
<ellipse fill="none" stroke="black" cx="305" cy="-2157.97" rx="18" ry="18"/>
<text text-anchor="middle" x="305" y="-2156.77" font-family="Times,serif" font-size="4.00">S</text>
</g>
<!-- S&#45;&gt;pr_a67b53ee&#45;5c64&#45;4bcf&#45;968a&#45;f07185309451 -->
<g id="edge7" class="edge"><title>S&#45;&gt;pr_a67b53ee&#45;5c64&#45;4bcf&#45;968a&#45;f07185309451</title>
<path fill="none" stroke="black" d="M292.493,-2144.46C283.866,-2135.84 271.725,-2123.7 259.163,-2111.13"/>
<polygon fill="black" stroke="black" points="261.287,-2108.31 251.741,-2103.71 256.337,-2113.26 261.287,-2108.31"/>
</g>
<!-- S&#45;&gt;pr_166fb1c7&#45;5c2c&#45;4b97&#45;a1b1&#45;48288835426e -->
<g id="edge8" class="edge"><title>S&#45;&gt;pr_166fb1c7&#45;5c2c&#45;4b97&#45;a1b1&#45;48288835426e</title>
<path fill="none" stroke="black" d="M307.642,-2140.13C308.801,-2132.74 310.239,-2123.57 311.737,-2114.02"/>
<polygon fill="black" stroke="black" points="315.218,-2114.41 313.31,-2103.99 308.303,-2113.33 315.218,-2114.41"/>
</g>
<!-- Nucleoporin_gRNA complex  -->
<g id="node5" class="node"><title>Nucleoporin_gRNA complex </title>
<ellipse fill="none" stroke="black" cx="159" cy="-1693.62" rx="38.9294" ry="38.9294"/>
<text text-anchor="middle" x="159" y="-1692.42" font-family="Times,serif" font-size="4.00">Nucleoporin_gRNA complex </text>
</g>
<!-- Nucleoporin_gRNA complex &#45;&gt;pr_8a401afb&#45;5e4d&#45;4e5d&#45;9313&#45;72195a92d146 -->
<g id="edge9" class="edge"><title>Nucleoporin_gRNA complex &#45;&gt;pr_8a401afb&#45;5e4d&#45;4e5d&#45;9313&#45;72195a92d146</title>
<path fill="none" stroke="black" d="M165.274,-1732.12C165.616,-1740.28 165.774,-1749.11 165.747,-1757.89"/>
<polygon fill="black" stroke="black" points="162.245,-1758.09 165.631,-1768.12 169.244,-1758.17 162.245,-1758.09"/>
</g>
<!-- pr_a1f57ed3&#45;977b&#45;4180&#45;8fd3&#45;d6847c4c3d00 -->
<g id="node18" class="node"><title>pr_a1f57ed3&#45;977b&#45;4180&#45;8fd3&#45;d6847c4c3d00</title>
<polygon fill="none" stroke="black" points="114.5,-1618.9 15.5,-1618.9 15.5,-1519.9 114.5,-1519.9 114.5,-1618.9"/>
<text text-anchor="middle" x="65" y="-1568.2" font-family="Times,serif" font-size="4.00">pr_a1f57ed3&#45;977b&#45;4180&#45;8fd3&#45;d6847c4c3d00</text>
</g>
<!-- Nucleoporin_gRNA complex &#45;&gt;pr_a1f57ed3&#45;977b&#45;4180&#45;8fd3&#45;d6847c4c3d00 -->
<g id="edge10" class="edge"><title>Nucleoporin_gRNA complex &#45;&gt;pr_a1f57ed3&#45;977b&#45;4180&#45;8fd3&#45;d6847c4c3d00</title>
<path fill="none" stroke="black" d="M135.764,-1662.41C127.558,-1651.74 118.04,-1639.36 108.698,-1627.22"/>
<polygon fill="black" stroke="black" points="111.47,-1625.08 102.599,-1619.29 105.921,-1629.35 111.47,-1625.08"/>
</g>
<!-- pr_8da8e0ca&#45;16c4&#45;4fd5&#45;ad33&#45;bf5a70c1058a -->
<g id="node22" class="node"><title>pr_8da8e0ca&#45;16c4&#45;4fd5&#45;ad33&#45;bf5a70c1058a</title>
<polygon fill="none" stroke="black" points="231.5,-1618.9 132.5,-1618.9 132.5,-1519.9 231.5,-1519.9 231.5,-1618.9"/>
<text text-anchor="middle" x="182" y="-1568.2" font-family="Times,serif" font-size="4.00">pr_8da8e0ca&#45;16c4&#45;4fd5&#45;ad33&#45;bf5a70c1058a</text>
</g>
<!-- Nucleoporin_gRNA complex &#45;&gt;pr_8da8e0ca&#45;16c4&#45;4fd5&#45;ad33&#45;bf5a70c1058a -->
<g id="edge11" class="edge"><title>Nucleoporin_gRNA complex &#45;&gt;pr_8da8e0ca&#45;16c4&#45;4fd5&#45;ad33&#45;bf5a70c1058a</title>
<path fill="none" stroke="black" d="M166.026,-1655.28C167.581,-1647.02 169.265,-1638.07 170.937,-1629.19"/>
<polygon fill="black" stroke="black" points="174.402,-1629.7 172.812,-1619.23 167.522,-1628.41 174.402,-1629.7"/>
</g>
<!-- pr_8a401afb&#45;5e4d&#45;4e5d&#45;9313&#45;72195a92d146&#45;&gt;Nucleoporin_gRNA complex  -->
<g id="edge12" class="edge"><title>pr_8a401afb&#45;5e4d&#45;4e5d&#45;9313&#45;72195a92d146&#45;&gt;Nucleoporin_gRNA complex </title>
<path fill="none" stroke="black" d="M152.369,-1768.12C152.2,-1759.59 152.211,-1750.73 152.403,-1742.24"/>
<polygon fill="black" stroke="black" points="155.905,-1742.22 152.726,-1732.12 148.908,-1742 155.905,-1742.22"/>
</g>
<!-- S2 -->
<g id="node8" class="node"><title>S2</title>
<ellipse fill="none" stroke="black" cx="279" cy="-1693.62" rx="18" ry="18"/>
<text text-anchor="middle" x="279" y="-1692.42" font-family="Times,serif" font-size="4.00">S2</text>
</g>
<!-- pr_c3e3868e&#45;36c5&#45;424e&#45;840e&#45;718b6ba5fb7a&#45;&gt;S2 -->
<g id="edge13" class="edge"><title>pr_c3e3868e&#45;36c5&#45;424e&#45;840e&#45;718b6ba5fb7a&#45;&gt;S2</title>
<path fill="none" stroke="black" d="M277.802,-1768.12C278.059,-1752.34 278.335,-1735.44 278.557,-1721.83"/>
<polygon fill="black" stroke="black" points="282.058,-1721.75 278.722,-1711.7 275.059,-1721.64 282.058,-1721.75"/>
</g>
<!-- S1 -->
<g id="node11" class="node"><title>S1</title>
<ellipse fill="none" stroke="black" cx="334" cy="-1693.62" rx="18" ry="18"/>
<text text-anchor="middle" x="334" y="-1692.42" font-family="Times,serif" font-size="4.00">S1</text>
</g>
<!-- pr_c3e3868e&#45;36c5&#45;424e&#45;840e&#45;718b6ba5fb7a&#45;&gt;S1 -->
<g id="edge14" class="edge"><title>pr_c3e3868e&#45;36c5&#45;424e&#45;840e&#45;718b6ba5fb7a&#45;&gt;S1</title>
<path fill="none" stroke="black" d="M299.856,-1768.12C307.582,-1751.49 315.884,-1733.62 322.368,-1719.66"/>
<polygon fill="black" stroke="black" points="325.695,-1720.8 326.733,-1710.26 319.346,-1717.86 325.695,-1720.8"/>
</g>
<!-- S2&#45;&gt;pr_a1f57ed3&#45;977b&#45;4180&#45;8fd3&#45;d6847c4c3d00 -->
<g id="edge15" class="edge"><title>S2&#45;&gt;pr_a1f57ed3&#45;977b&#45;4180&#45;8fd3&#45;d6847c4c3d00</title>
<path fill="none" stroke="black" d="M263.446,-1684.02C248.982,-1676.14 226.754,-1664.29 207,-1654.9 170.316,-1637.47 157.613,-1640.16 123,-1618.9 122.913,-1618.85 122.825,-1618.79 122.738,-1618.74"/>
<polygon fill="black" stroke="black" points="124.898,-1615.97 114.618,-1613.41 121.057,-1621.82 124.898,-1615.97"/>
</g>
<!-- pr_fa7c4bae&#45;520a&#45;47a6&#45;9e20&#45;41dcc6f23090 -->
<g id="node21" class="node"><title>pr_fa7c4bae&#45;520a&#45;47a6&#45;9e20&#45;41dcc6f23090</title>
<polygon fill="none" stroke="black" points="348.5,-1618.9 249.5,-1618.9 249.5,-1519.9 348.5,-1519.9 348.5,-1618.9"/>
<text text-anchor="middle" x="299" y="-1568.2" font-family="Times,serif" font-size="4.00">pr_fa7c4bae&#45;520a&#45;47a6&#45;9e20&#45;41dcc6f23090</text>
</g>
<!-- S2&#45;&gt;pr_fa7c4bae&#45;520a&#45;47a6&#45;9e20&#45;41dcc6f23090 -->
<g id="edge16" class="edge"><title>S2&#45;&gt;pr_fa7c4bae&#45;520a&#45;47a6&#45;9e20&#45;41dcc6f23090</title>
<path fill="none" stroke="black" d="M276.936,-1675.62C277.604,-1663.4 279.797,-1646.12 282.649,-1629.1"/>
<polygon fill="black" stroke="black" points="286.114,-1629.6 284.397,-1619.15 279.22,-1628.39 286.114,-1629.6"/>
</g>
<!-- S2&#45;&gt;pr_8da8e0ca&#45;16c4&#45;4fd5&#45;ad33&#45;bf5a70c1058a -->
<g id="edge17" class="edge"><title>S2&#45;&gt;pr_8da8e0ca&#45;16c4&#45;4fd5&#45;ad33&#45;bf5a70c1058a</title>
<path fill="none" stroke="black" d="M268.249,-1679.07C258.147,-1666.34 242.329,-1646.41 226.982,-1627.08"/>
<polygon fill="black" stroke="black" points="229.64,-1624.8 220.682,-1619.14 224.157,-1629.15 229.64,-1624.8"/>
</g>
<!-- CTSB -->
<g id="node9" class="node"><title>CTSB</title>
<ellipse fill="none" stroke="black" cx="330" cy="-1936.15" rx="18" ry="18"/>
<text text-anchor="middle" x="330" y="-1934.95" font-family="Times,serif" font-size="4.00">CTSB</text>
</g>
<!-- CTSB&#45;&gt;pr_c3e3868e&#45;36c5&#45;424e&#45;840e&#45;718b6ba5fb7a -->
<g id="edge18" class="edge"><title>CTSB&#45;&gt;pr_c3e3868e&#45;36c5&#45;424e&#45;840e&#45;718b6ba5fb7a</title>
<path fill="none" stroke="black" d="M322.852,-1919.53C317.821,-1908.54 310.744,-1893.07 303.652,-1877.57"/>
<polygon fill="black" stroke="black" points="306.834,-1876.12 299.491,-1868.48 300.469,-1879.03 306.834,-1876.12"/>
</g>
<!-- CTSL -->
<g id="node10" class="node"><title>CTSL</title>
<ellipse fill="none" stroke="black" cx="194" cy="-1936.15" rx="18" ry="18"/>
<text text-anchor="middle" x="194" y="-1934.95" font-family="Times,serif" font-size="4.00">CTSL</text>
</g>
<!-- CTSL&#45;&gt;pr_c3e3868e&#45;36c5&#45;424e&#45;840e&#45;718b6ba5fb7a -->
<g id="edge19" class="edge"><title>CTSL&#45;&gt;pr_c3e3868e&#45;36c5&#45;424e&#45;840e&#45;718b6ba5fb7a</title>
<path fill="none" stroke="black" d="M204.177,-1920.95C212.213,-1909.73 223.996,-1893.29 235.751,-1876.89"/>
<polygon fill="black" stroke="black" points="238.896,-1878.51 241.876,-1868.34 233.206,-1874.43 238.896,-1878.51"/>
</g>
<!-- pr_34bb293d&#45;8604&#45;4995&#45;bd58&#45;7f56ddaec789&#45;&gt;S2 -->
<g id="edge20" class="edge"><title>pr_34bb293d&#45;8604&#45;4995&#45;bd58&#45;7f56ddaec789&#45;&gt;S2</title>
<path fill="none" stroke="black" d="M344.692,-1771.49C331.975,-1759.17 318.634,-1745.58 307,-1732.33 302.863,-1727.62 298.686,-1722.34 294.865,-1717.25"/>
<polygon fill="black" stroke="black" points="297.57,-1715.02 288.843,-1709.01 291.919,-1719.15 297.57,-1715.02"/>
</g>
<!-- pr_34bb293d&#45;8604&#45;4995&#45;bd58&#45;7f56ddaec789&#45;&gt;S1 -->
<g id="edge21" class="edge"><title>pr_34bb293d&#45;8604&#45;4995&#45;bd58&#45;7f56ddaec789&#45;&gt;S1</title>
<path fill="none" stroke="black" d="M370.54,-1768.12C362.138,-1751.22 353.098,-1733.04 346.112,-1718.98"/>
<polygon fill="black" stroke="black" points="349.222,-1717.38 341.637,-1709.98 342.954,-1720.49 349.222,-1717.38"/>
</g>
<!-- ACE2 (15 Kda) -->
<g id="node15" class="node"><title>ACE2 (15 Kda)</title>
<ellipse fill="none" stroke="black" cx="395" cy="-1693.62" rx="24.2908" ry="24.2908"/>
<text text-anchor="middle" x="395" y="-1692.42" font-family="Times,serif" font-size="4.00">ACE2 (15 Kda)</text>
</g>
<!-- pr_34bb293d&#45;8604&#45;4995&#45;bd58&#45;7f56ddaec789&#45;&gt;ACE2 (15 Kda) -->
<g id="edge22" class="edge"><title>pr_34bb293d&#45;8604&#45;4995&#45;bd58&#45;7f56ddaec789&#45;&gt;ACE2 (15 Kda)</title>
<path fill="none" stroke="black" d="M395,-1768.12C395,-1754.82 395,-1740.72 395,-1728.46"/>
<polygon fill="black" stroke="black" points="398.5,-1728.24 395,-1718.24 391.5,-1728.24 398.5,-1728.24"/>
</g>
<!-- ACE2 (100 Kda) -->
<g id="node16" class="node"><title>ACE2 (100 Kda)</title>
<ellipse fill="none" stroke="black" cx="463" cy="-1693.62" rx="25.4118" ry="25.4118"/>
<text text-anchor="middle" x="463" y="-1692.42" font-family="Times,serif" font-size="4.00">ACE2 (100 Kda)</text>
</g>
<!-- pr_34bb293d&#45;8604&#45;4995&#45;bd58&#45;7f56ddaec789&#45;&gt;ACE2 (100 Kda) -->
<g id="edge23" class="edge"><title>pr_34bb293d&#45;8604&#45;4995&#45;bd58&#45;7f56ddaec789&#45;&gt;ACE2 (100 Kda)</title>
<path fill="none" stroke="black" d="M422.266,-1768.12C430.294,-1753.64 438.844,-1738.21 446.027,-1725.25"/>
<polygon fill="black" stroke="black" points="449.203,-1726.74 450.989,-1716.29 443.08,-1723.34 449.203,-1726.74"/>
</g>
<!-- TMPRSS2 -->
<g id="node13" class="node"><title>TMPRSS2</title>
<ellipse fill="none" stroke="black" cx="461" cy="-1936.15" rx="18.6233" ry="18.6233"/>
<text text-anchor="middle" x="461" y="-1934.95" font-family="Times,serif" font-size="4.00">TMPRSS2</text>
</g>
<!-- TMPRSS2&#45;&gt;pr_34bb293d&#45;8604&#45;4995&#45;bd58&#45;7f56ddaec789 -->
<g id="edge24" class="edge"><title>TMPRSS2&#45;&gt;pr_34bb293d&#45;8604&#45;4995&#45;bd58&#45;7f56ddaec789</title>
<path fill="none" stroke="black" d="M452.099,-1919.53C445.834,-1908.54 437.021,-1893.07 428.19,-1877.57"/>
<polygon fill="black" stroke="black" points="430.999,-1875.43 423.007,-1868.48 424.917,-1878.9 430.999,-1875.43"/>
</g>
<!-- Camostat mesylate -->
<g id="node14" class="node"><title>Camostat mesylate</title>
<ellipse fill="none" stroke="black" cx="395" cy="-1936.15" rx="29.3373" ry="29.3373"/>
<text text-anchor="middle" x="395" y="-1934.95" font-family="Times,serif" font-size="4.00">Camostat mesylate</text>
</g>
<!-- Camostat mesylate&#45;&gt;pr_34bb293d&#45;8604&#45;4995&#45;bd58&#45;7f56ddaec789 -->
<g id="edge25" class="edge"><title>Camostat mesylate&#45;&gt;pr_34bb293d&#45;8604&#45;4995&#45;bd58&#45;7f56ddaec789</title>
<path fill="none" stroke="black" d="M395,-1906.82C395,-1898.27 395,-1888.54 395,-1878.76"/>
<polygon fill="black" stroke="black" points="398.5,-1878.59 395,-1868.59 391.5,-1878.59 398.5,-1878.59"/>
</g>
<!-- pr_166fb1c7&#45;5c2c&#45;4b97&#45;a1b1&#45;48288835426e&#45;&gt;ACE2_SPIKE complex -->
<g id="edge26" class="edge"><title>pr_166fb1c7&#45;5c2c&#45;4b97&#45;a1b1&#45;48288835426e&#45;&gt;ACE2_SPIKE complex</title>
<path fill="none" stroke="black" d="M295.979,-2003.85C290.891,-1993.86 285.621,-1983.52 280.793,-1974.04"/>
<polygon fill="black" stroke="black" points="283.794,-1972.22 276.137,-1964.9 277.557,-1975.4 283.794,-1972.22"/>
</g>
<!-- Nucleocapsid -->
<g id="node19" class="node"><title>Nucleocapsid</title>
<ellipse fill="none" stroke="black" cx="123" cy="-1461.1" rx="22.6101" ry="22.6101"/>
<text text-anchor="middle" x="123" y="-1459.9" font-family="Times,serif" font-size="4.00">Nucleocapsid</text>
</g>
<!-- pr_a1f57ed3&#45;977b&#45;4180&#45;8fd3&#45;d6847c4c3d00&#45;&gt;Nucleocapsid -->
<g id="edge27" class="edge"><title>pr_a1f57ed3&#45;977b&#45;4180&#45;8fd3&#45;d6847c4c3d00&#45;&gt;Nucleocapsid</title>
<path fill="none" stroke="black" d="M91.6235,-1519.61C97.1048,-1509.56 102.7,-1499.3 107.619,-1490.29"/>
<polygon fill="black" stroke="black" points="110.75,-1491.86 112.467,-1481.4 104.605,-1488.5 110.75,-1491.86"/>
</g>
<!-- pr_c691ca43&#45;a66a&#45;457c&#45;b7fa&#45;20a48103141d -->
<g id="node26" class="node"><title>pr_c691ca43&#45;a66a&#45;457c&#45;b7fa&#45;20a48103141d</title>
<polygon fill="none" stroke="black" points="173,-1402.29 73,-1402.29 73,-1302.29 173,-1302.29 173,-1402.29"/>
<text text-anchor="middle" x="123" y="-1351.09" font-family="Times,serif" font-size="4.00">pr_c691ca43&#45;a66a&#45;457c&#45;b7fa&#45;20a48103141d</text>
</g>
<!-- Nucleocapsid&#45;&gt;pr_c691ca43&#45;a66a&#45;457c&#45;b7fa&#45;20a48103141d -->
<g id="edge28" class="edge"><title>Nucleocapsid&#45;&gt;pr_c691ca43&#45;a66a&#45;457c&#45;b7fa&#45;20a48103141d</title>
<path fill="none" stroke="black" d="M123,-1438.23C123,-1430.61 123,-1421.65 123,-1412.47"/>
<polygon fill="black" stroke="black" points="126.5,-1412.47 123,-1402.47 119.5,-1412.47 126.5,-1412.47"/>
</g>
<!-- LY6E -->
<g id="node20" class="node"><title>LY6E</title>
<ellipse fill="none" stroke="black" cx="65" cy="-1693.62" rx="18" ry="18"/>
<text text-anchor="middle" x="65" y="-1692.42" font-family="Times,serif" font-size="4.00">LY6E</text>
</g>
<!-- LY6E&#45;&gt;pr_a1f57ed3&#45;977b&#45;4180&#45;8fd3&#45;d6847c4c3d00 -->
<g id="edge29" class="edge"><title>LY6E&#45;&gt;pr_a1f57ed3&#45;977b&#45;4180&#45;8fd3&#45;d6847c4c3d00</title>
<path fill="none" stroke="black" d="M65,-1675.36C65,-1663.21 65,-1646.17 65,-1629.35"/>
<polygon fill="black" stroke="black" points="68.5001,-1628.95 65,-1618.95 61.5001,-1628.95 68.5001,-1628.95"/>
</g>
<!-- pr_fa7c4bae&#45;520a&#45;47a6&#45;9e20&#45;41dcc6f23090&#45;&gt;S2 -->
<g id="edge30" class="edge"><title>pr_fa7c4bae&#45;520a&#45;47a6&#45;9e20&#45;41dcc6f23090&#45;&gt;S2</title>
<path fill="none" stroke="black" d="M297.652,-1619.13C295.314,-1635.44 292.109,-1652.99 288.843,-1666.85"/>
<polygon fill="black" stroke="black" points="285.425,-1666.08 286.346,-1676.64 292.208,-1667.81 285.425,-1666.08"/>
</g>
<!-- pr_8da8e0ca&#45;16c4&#45;4fd5&#45;ad33&#45;bf5a70c1058a&#45;&gt;Nucleocapsid -->
<g id="edge31" class="edge"><title>pr_8da8e0ca&#45;16c4&#45;4fd5&#45;ad33&#45;bf5a70c1058a&#45;&gt;Nucleocapsid</title>
<path fill="none" stroke="black" d="M154.918,-1519.61C149.342,-1509.56 143.65,-1499.3 138.646,-1490.29"/>
<polygon fill="black" stroke="black" points="141.627,-1488.45 133.714,-1481.4 135.507,-1491.84 141.627,-1488.45"/>
</g>
<!--  SARS&#45;CoV&#45;2 gRNA -->
<g id="node23" class="node"><title> SARS&#45;CoV&#45;2 gRNA</title>
<ellipse fill="none" stroke="black" cx="91" cy="-1237.13" rx="29.3373" ry="29.3373"/>
<text text-anchor="middle" x="91" y="-1235.93" font-family="Times,serif" font-size="4.00"> SARS&#45;CoV&#45;2 gRNA</text>
</g>
<!-- pr_d5308d0d&#45;74dd&#45;4046&#45;940b&#45;c86980c74844 -->
<g id="node24" class="node"><title>pr_d5308d0d&#45;74dd&#45;4046&#45;940b&#45;c86980c74844</title>
<polygon fill="none" stroke="black" points="260.5,-1171.96 159.5,-1171.96 159.5,-1070.96 260.5,-1070.96 260.5,-1171.96"/>
<text text-anchor="middle" x="210" y="-1120.26" font-family="Times,serif" font-size="4.00">pr_d5308d0d&#45;74dd&#45;4046&#45;940b&#45;c86980c74844</text>
</g>
<!--  SARS&#45;CoV&#45;2 gRNA&#45;&gt;pr_d5308d0d&#45;74dd&#45;4046&#45;940b&#45;c86980c74844 -->
<g id="edge32" class="edge"><title> SARS&#45;CoV&#45;2 gRNA&#45;&gt;pr_d5308d0d&#45;74dd&#45;4046&#45;940b&#45;c86980c74844</title>
<path fill="none" stroke="black" d="M111.728,-1216.33C122.956,-1205.6 137.446,-1191.76 151.833,-1178.02"/>
<polygon fill="black" stroke="black" points="154.515,-1180.3 159.328,-1170.86 149.68,-1175.23 154.515,-1180.3"/>
</g>
<!-- pr_177fdaad&#45;60ee&#45;4eb6&#45;b43a&#45;ac42e1056856 -->
<g id="node28" class="node"><title>pr_177fdaad&#45;60ee&#45;4eb6&#45;b43a&#45;ac42e1056856</title>
<polygon fill="none" stroke="black" points="100,-435.279 0,-435.279 0,-335.279 100,-335.279 100,-435.279"/>
<text text-anchor="middle" x="50" y="-384.079" font-family="Times,serif" font-size="4.00">pr_177fdaad&#45;60ee&#45;4eb6&#45;b43a&#45;ac42e1056856</text>
</g>
<!--  SARS&#45;CoV&#45;2 gRNA&#45;&gt;pr_177fdaad&#45;60ee&#45;4eb6&#45;b43a&#45;ac42e1056856 -->
<g id="edge33" class="edge"><title> SARS&#45;CoV&#45;2 gRNA&#45;&gt;pr_177fdaad&#45;60ee&#45;4eb6&#45;b43a&#45;ac42e1056856</title>
<path fill="none" stroke="black" d="M68.314,-1218.42C55.0839,-1206.74 39.394,-1190.26 31,-1171.96 -1.56704,-1100.96 12,-1075.35 12,-997.243 12,-997.243 12,-997.243 12,-600.888 12,-547.642 23.4817,-488.089 33.8226,-445.251"/>
<polygon fill="black" stroke="black" points="37.2847,-445.829 36.2811,-435.282 30.4884,-444.153 37.2847,-445.829"/>
</g>
<!-- pr_65329680&#45;b134&#45;4d0c&#45;b7ab&#45;b555d8692cba -->
<g id="node40" class="node"><title>pr_65329680&#45;b134&#45;4d0c&#45;b7ab&#45;b555d8692cba</title>
<polygon fill="none" stroke="black" points="141.5,-1171.96 40.5,-1171.96 40.5,-1070.96 141.5,-1070.96 141.5,-1171.96"/>
<text text-anchor="middle" x="91" y="-1120.26" font-family="Times,serif" font-size="4.00">pr_65329680&#45;b134&#45;4d0c&#45;b7ab&#45;b555d8692cba</text>
</g>
<!--  SARS&#45;CoV&#45;2 gRNA&#45;&gt;pr_65329680&#45;b134&#45;4d0c&#45;b7ab&#45;b555d8692cba -->
<g id="edge34" class="edge"><title> SARS&#45;CoV&#45;2 gRNA&#45;&gt;pr_65329680&#45;b134&#45;4d0c&#45;b7ab&#45;b555d8692cba</title>
<path fill="none" stroke="black" d="M91,-1207.74C91,-1199.9 91,-1191.09 91,-1182.19"/>
<polygon fill="black" stroke="black" points="94.5001,-1182.15 91,-1172.15 87.5001,-1182.15 94.5001,-1182.15"/>
</g>
<!-- SARS&#45;COV&#45;2 polyprotein 1ab -->
<g id="node25" class="node"><title>SARS&#45;COV&#45;2 polyprotein 1ab</title>
<ellipse fill="none" stroke="black" cx="210" cy="-996.243" rx="38.9294" ry="38.9294"/>
<text text-anchor="middle" x="210" y="-995.043" font-family="Times,serif" font-size="4.00">SARS&#45;COV&#45;2 polyprotein 1ab</text>
</g>
<!-- pr_d5308d0d&#45;74dd&#45;4046&#45;940b&#45;c86980c74844&#45;&gt;SARS&#45;COV&#45;2 polyprotein 1ab -->
<g id="edge35" class="edge"><title>pr_d5308d0d&#45;74dd&#45;4046&#45;940b&#45;c86980c74844&#45;&gt;SARS&#45;COV&#45;2 polyprotein 1ab</title>
<path fill="none" stroke="black" d="M210,-1070.7C210,-1062.24 210,-1053.48 210,-1045.08"/>
<polygon fill="black" stroke="black" points="213.5,-1045.06 210,-1035.06 206.5,-1045.06 213.5,-1045.06"/>
</g>
<!-- pr_c5612f70&#45;87da&#45;4309&#45;9a98&#45;aac552b02d23 -->
<g id="node33" class="node"><title>pr_c5612f70&#45;87da&#45;4309&#45;9a98&#45;aac552b02d23</title>
<polygon fill="none" stroke="black" points="260,-921.529 160,-921.529 160,-821.529 260,-821.529 260,-921.529"/>
<text text-anchor="middle" x="210" y="-870.329" font-family="Times,serif" font-size="4.00">pr_c5612f70&#45;87da&#45;4309&#45;9a98&#45;aac552b02d23</text>
</g>
<!-- SARS&#45;COV&#45;2 polyprotein 1ab&#45;&gt;pr_c5612f70&#45;87da&#45;4309&#45;9a98&#45;aac552b02d23 -->
<g id="edge36" class="edge"><title>SARS&#45;COV&#45;2 polyprotein 1ab&#45;&gt;pr_c5612f70&#45;87da&#45;4309&#45;9a98&#45;aac552b02d23</title>
<path fill="none" stroke="black" d="M210,-957.424C210,-949.325 210,-940.582 210,-931.891"/>
<polygon fill="black" stroke="black" points="213.5,-931.756 210,-921.757 206.5,-931.757 213.5,-931.756"/>
</g>
<!-- pr_c691ca43&#45;a66a&#45;457c&#45;b7fa&#45;20a48103141d&#45;&gt; SARS&#45;CoV&#45;2 gRNA -->
<g id="edge37" class="edge"><title>pr_c691ca43&#45;a66a&#45;457c&#45;b7fa&#45;20a48103141d&#45;&gt; SARS&#45;CoV&#45;2 gRNA</title>
<path fill="none" stroke="black" d="M109.057,-1301.99C106.515,-1293 103.903,-1283.76 101.482,-1275.2"/>
<polygon fill="black" stroke="black" points="104.833,-1274.18 98.7444,-1265.51 98.0975,-1276.09 104.833,-1274.18"/>
</g>
<!-- N -->
<g id="node27" class="node"><title>N</title>
<ellipse fill="none" stroke="black" cx="156" cy="-1237.13" rx="18" ry="18"/>
<text text-anchor="middle" x="156" y="-1235.93" font-family="Times,serif" font-size="4.00">N</text>
</g>
<!-- pr_c691ca43&#45;a66a&#45;457c&#45;b7fa&#45;20a48103141d&#45;&gt;N -->
<g id="edge38" class="edge"><title>pr_c691ca43&#45;a66a&#45;457c&#45;b7fa&#45;20a48103141d&#45;&gt;N</title>
<path fill="none" stroke="black" d="M137.378,-1301.99C141.182,-1288.94 145.138,-1275.38 148.42,-1264.12"/>
<polygon fill="black" stroke="black" points="151.782,-1265.09 151.222,-1254.51 145.062,-1263.13 151.782,-1265.09"/>
</g>
<!-- SARS&#45;CoV&#45;2 sgmRNAs -->
<g id="node29" class="node"><title>SARS&#45;CoV&#45;2 sgmRNAs</title>
<ellipse fill="none" stroke="black" cx="50" cy="-266.399" rx="32.7614" ry="32.7614"/>
<text text-anchor="middle" x="50" y="-265.199" font-family="Times,serif" font-size="4.00">SARS&#45;CoV&#45;2 sgmRNAs</text>
</g>
<!-- pr_177fdaad&#45;60ee&#45;4eb6&#45;b43a&#45;ac42e1056856&#45;&gt;SARS&#45;CoV&#45;2 sgmRNAs -->
<g id="edge39" class="edge"><title>pr_177fdaad&#45;60ee&#45;4eb6&#45;b43a&#45;ac42e1056856&#45;&gt;SARS&#45;CoV&#45;2 sgmRNAs</title>
<path fill="none" stroke="black" d="M50,-335.05C50,-326.628 50,-317.944 50,-309.721"/>
<polygon fill="black" stroke="black" points="53.5001,-309.608 50,-299.608 46.5001,-309.608 53.5001,-309.608"/>
</g>
<!-- pr_6866e711&#45;4562&#45;4d80&#45;91c0&#45;f66487013018 -->
<g id="node31" class="node"><title>pr_6866e711&#45;4562&#45;4d80&#45;91c0&#45;f66487013018</title>
<polygon fill="none" stroke="black" points="100,-197.518 0,-197.518 0,-97.5183 100,-97.5183 100,-197.518"/>
<text text-anchor="middle" x="50" y="-146.318" font-family="Times,serif" font-size="4.00">pr_6866e711&#45;4562&#45;4d80&#45;91c0&#45;f66487013018</text>
</g>
<!-- SARS&#45;CoV&#45;2 sgmRNAs&#45;&gt;pr_6866e711&#45;4562&#45;4d80&#45;91c0&#45;f66487013018 -->
<g id="edge40" class="edge"><title>SARS&#45;CoV&#45;2 sgmRNAs&#45;&gt;pr_6866e711&#45;4562&#45;4d80&#45;91c0&#45;f66487013018</title>
<path fill="none" stroke="black" d="M50,-233.461C50,-225.407 50,-216.501 50,-207.576"/>
<polygon fill="black" stroke="black" points="53.5001,-207.536 50,-197.536 46.5001,-207.536 53.5001,-207.536"/>
</g>
<!-- RTC complex -->
<g id="node30" class="node"><title>RTC complex</title>
<ellipse fill="none" stroke="black" cx="89" cy="-494.083" rx="22.6101" ry="22.6101"/>
<text text-anchor="middle" x="89" y="-492.883" font-family="Times,serif" font-size="4.00">RTC complex</text>
</g>
<!-- RTC complex&#45;&gt;pr_177fdaad&#45;60ee&#45;4eb6&#45;b43a&#45;ac42e1056856 -->
<g id="edge41" class="edge"><title>RTC complex&#45;&gt;pr_177fdaad&#45;60ee&#45;4eb6&#45;b43a&#45;ac42e1056856</title>
<path fill="none" stroke="black" d="M81.4804,-472.49C78.5617,-464.498 75.0585,-454.904 71.4652,-445.063"/>
<polygon fill="black" stroke="black" points="74.7266,-443.79 68.0088,-435.598 68.1512,-446.191 74.7266,-443.79"/>
</g>
<!-- SARS&#45;CoV&#45;2 proteins -->
<g id="node32" class="node"><title>SARS&#45;CoV&#45;2 proteins</title>
<ellipse fill="none" stroke="black" cx="50" cy="-30.7591" rx="30.5202" ry="30.5202"/>
<text text-anchor="middle" x="50" y="-29.5591" font-family="Times,serif" font-size="4.00">SARS&#45;CoV&#45;2 proteins</text>
</g>
<!-- pr_6866e711&#45;4562&#45;4d80&#45;91c0&#45;f66487013018&#45;&gt;SARS&#45;CoV&#45;2 proteins -->
<g id="edge42" class="edge"><title>pr_6866e711&#45;4562&#45;4d80&#45;91c0&#45;f66487013018&#45;&gt;SARS&#45;CoV&#45;2 proteins</title>
<path fill="none" stroke="black" d="M50,-97.5172C50,-88.9503 50,-80.1287 50,-71.8386"/>
<polygon fill="black" stroke="black" points="53.5001,-71.6813 50,-61.6813 46.5001,-71.6814 53.5001,-71.6813"/>
</g>
<!-- SARS&#45;CoV&#45;2 pp&#45;1ab products -->
<g id="node34" class="node"><title>SARS&#45;CoV&#45;2 pp&#45;1ab products</title>
<ellipse fill="none" stroke="black" cx="249" cy="-736.208" rx="38.9294" ry="38.9294"/>
<text text-anchor="middle" x="249" y="-735.008" font-family="Times,serif" font-size="4.00">SARS&#45;CoV&#45;2 pp&#45;1ab products</text>
</g>
<!-- pr_c5612f70&#45;87da&#45;4309&#45;9a98&#45;aac552b02d23&#45;&gt;SARS&#45;CoV&#45;2 pp&#45;1ab products -->
<g id="edge43" class="edge"><title>pr_c5612f70&#45;87da&#45;4309&#45;9a98&#45;aac552b02d23&#45;&gt;SARS&#45;CoV&#45;2 pp&#45;1ab products</title>
<path fill="none" stroke="black" d="M224.411,-821.264C228.005,-808.979 231.847,-795.846 235.4,-783.699"/>
<polygon fill="black" stroke="black" points="238.857,-784.349 238.305,-773.768 232.138,-782.383 238.857,-784.349"/>
</g>
<!-- SARS&#45;CoV&#45;2 pp&#45;1a and pp&#45;1ab products -->
<g id="node35" class="node"><title>SARS&#45;CoV&#45;2 pp&#45;1a and pp&#45;1ab products</title>
<ellipse fill="none" stroke="black" cx="143" cy="-736.208" rx="49.142" ry="49.142"/>
<text text-anchor="middle" x="143" y="-735.008" font-family="Times,serif" font-size="4.00">SARS&#45;CoV&#45;2 pp&#45;1a and pp&#45;1ab products</text>
</g>
<!-- pr_c5612f70&#45;87da&#45;4309&#45;9a98&#45;aac552b02d23&#45;&gt;SARS&#45;CoV&#45;2 pp&#45;1a and pp&#45;1ab products -->
<g id="edge44" class="edge"><title>pr_c5612f70&#45;87da&#45;4309&#45;9a98&#45;aac552b02d23&#45;&gt;SARS&#45;CoV&#45;2 pp&#45;1a and pp&#45;1ab products</title>
<path fill="none" stroke="black" d="M185.242,-821.264C180.052,-810.937 174.562,-800.012 169.318,-789.577"/>
<polygon fill="black" stroke="black" points="172.404,-787.923 164.786,-780.56 166.149,-791.067 172.404,-787.923"/>
</g>
<!-- pr_b1431f5f&#45;9574&#45;4565&#45;9a85&#45;300246f3a36f -->
<g id="node36" class="node"><title>pr_b1431f5f&#45;9574&#45;4565&#45;9a85&#45;300246f3a36f</title>
<polygon fill="none" stroke="black" points="165,-650.888 67,-650.888 67,-552.888 165,-552.888 165,-650.888"/>
<text text-anchor="middle" x="116" y="-600.688" font-family="Times,serif" font-size="4.00">pr_b1431f5f&#45;9574&#45;4565&#45;9a85&#45;300246f3a36f</text>
</g>
<!-- SARS&#45;CoV&#45;2 pp&#45;1ab products&#45;&gt;pr_b1431f5f&#45;9574&#45;4565&#45;9a85&#45;300246f3a36f -->
<g id="edge45" class="edge"><title>SARS&#45;CoV&#45;2 pp&#45;1ab products&#45;&gt;pr_b1431f5f&#45;9574&#45;4565&#45;9a85&#45;300246f3a36f</title>
<path fill="none" stroke="black" d="M222.134,-708.075C215.257,-701.153 207.865,-693.735 201,-686.888 191.753,-677.664 181.913,-667.897 172.332,-658.412"/>
<polygon fill="black" stroke="black" points="174.64,-655.772 165.07,-651.227 169.717,-660.748 174.64,-655.772"/>
</g>
<!-- SARS&#45;CoV&#45;2 pp&#45;1a and pp&#45;1ab products&#45;&gt;pr_b1431f5f&#45;9574&#45;4565&#45;9a85&#45;300246f3a36f -->
<g id="edge46" class="edge"><title>SARS&#45;CoV&#45;2 pp&#45;1a and pp&#45;1ab products&#45;&gt;pr_b1431f5f&#45;9574&#45;4565&#45;9a85&#45;300246f3a36f</title>
<path fill="none" stroke="black" d="M133.329,-687.811C131.57,-679.191 129.716,-670.107 127.901,-661.214"/>
<polygon fill="black" stroke="black" points="131.305,-660.389 125.877,-651.29 124.447,-661.788 131.305,-660.389"/>
</g>
<!-- pr_b1431f5f&#45;9574&#45;4565&#45;9a85&#45;300246f3a36f&#45;&gt;RTC complex -->
<g id="edge47" class="edge"><title>pr_b1431f5f&#45;9574&#45;4565&#45;9a85&#45;300246f3a36f&#45;&gt;RTC complex</title>
<path fill="none" stroke="black" d="M103.685,-552.63C101.397,-543.663 99.0627,-534.516 96.9486,-526.231"/>
<polygon fill="black" stroke="black" points="100.272,-525.101 94.4083,-516.277 93.4897,-526.832 100.272,-525.101"/>
</g>
<!-- NSP11 -->
<g id="node37" class="node"><title>NSP11</title>
<ellipse fill="none" stroke="black" cx="58" cy="-736.208" rx="18" ry="18"/>
<text text-anchor="middle" x="58" y="-735.008" font-family="Times,serif" font-size="4.00">NSP11</text>
</g>
<!-- NSP11&#45;&gt;pr_b1431f5f&#45;9574&#45;4565&#45;9a85&#45;300246f3a36f -->
<g id="edge48" class="edge"><title>NSP11&#45;&gt;pr_b1431f5f&#45;9574&#45;4565&#45;9a85&#45;300246f3a36f</title>
<path fill="none" stroke="black" d="M64.8811,-719.51C71.3401,-704.774 81.4033,-681.816 90.8985,-660.154"/>
<polygon fill="black" stroke="black" points="94.1119,-661.541 94.921,-650.977 87.7008,-658.731 94.1119,-661.541"/>
</g>
<!-- SARS&#45;COV&#45;2 polyprotein 1a -->
<g id="node38" class="node"><title>SARS&#45;COV&#45;2 polyprotein 1a</title>
<ellipse fill="none" stroke="black" cx="91" cy="-996.243" rx="37.8075" ry="37.8075"/>
<text text-anchor="middle" x="91" y="-995.043" font-family="Times,serif" font-size="4.00">SARS&#45;COV&#45;2 polyprotein 1a</text>
</g>
<!-- pr_6c6313cc&#45;f0c8&#45;4167&#45;93a5&#45;b0b5b8419078 -->
<g id="node39" class="node"><title>pr_6c6313cc&#45;f0c8&#45;4167&#45;93a5&#45;b0b5b8419078</title>
<polygon fill="none" stroke="black" points="141,-921.529 41,-921.529 41,-821.529 141,-821.529 141,-921.529"/>
<text text-anchor="middle" x="91" y="-870.329" font-family="Times,serif" font-size="4.00">pr_6c6313cc&#45;f0c8&#45;4167&#45;93a5&#45;b0b5b8419078</text>
</g>
<!-- SARS&#45;COV&#45;2 polyprotein 1a&#45;&gt;pr_6c6313cc&#45;f0c8&#45;4167&#45;93a5&#45;b0b5b8419078 -->
<g id="edge49" class="edge"><title>SARS&#45;COV&#45;2 polyprotein 1a&#45;&gt;pr_6c6313cc&#45;f0c8&#45;4167&#45;93a5&#45;b0b5b8419078</title>
<path fill="none" stroke="black" d="M91,-958.425C91,-950.013 91,-940.864 91,-931.776"/>
<polygon fill="black" stroke="black" points="94.5001,-931.585 91,-921.585 87.5001,-931.586 94.5001,-931.585"/>
</g>
<!-- pr_6c6313cc&#45;f0c8&#45;4167&#45;93a5&#45;b0b5b8419078&#45;&gt;SARS&#45;CoV&#45;2 pp&#45;1a and pp&#45;1ab products -->
<g id="edge51" class="edge"><title>pr_6c6313cc&#45;f0c8&#45;4167&#45;93a5&#45;b0b5b8419078&#45;&gt;SARS&#45;CoV&#45;2 pp&#45;1a and pp&#45;1ab products</title>
<path fill="none" stroke="black" d="M110.215,-821.264C113.947,-811.695 117.88,-801.613 121.675,-791.882"/>
<polygon fill="black" stroke="black" points="125.039,-792.889 125.412,-782.301 118.518,-790.346 125.039,-792.889"/>
</g>
<!-- pr_6c6313cc&#45;f0c8&#45;4167&#45;93a5&#45;b0b5b8419078&#45;&gt;NSP11 -->
<g id="edge50" class="edge"><title>pr_6c6313cc&#45;f0c8&#45;4167&#45;93a5&#45;b0b5b8419078&#45;&gt;NSP11</title>
<path fill="none" stroke="black" d="M78.8058,-821.264C73.9862,-801.793 68.6396,-780.193 64.5733,-763.765"/>
<polygon fill="black" stroke="black" points="67.9047,-762.656 62.1044,-753.79 61.1098,-764.338 67.9047,-762.656"/>
</g>
<!-- pr_65329680&#45;b134&#45;4d0c&#45;b7ab&#45;b555d8692cba&#45;&gt;SARS&#45;COV&#45;2 polyprotein 1a -->
<g id="edge52" class="edge"><title>pr_65329680&#45;b134&#45;4d0c&#45;b7ab&#45;b555d8692cba&#45;&gt;SARS&#45;COV&#45;2 polyprotein 1a</title>
<path fill="none" stroke="black" d="M91,-1070.7C91,-1061.86 91,-1052.69 91,-1043.95"/>
<polygon fill="black" stroke="black" points="94.5001,-1043.92 91,-1033.92 87.5001,-1043.92 94.5001,-1043.92"/>
</g>
</g>
</svg>
