<?xml version="1.0" encoding="UTF-8" standalone="no"?>
<!DOCTYPE svg PUBLIC "-//W3C//DTD SVG 1.1//EN"
 "http://www.w3.org/Graphics/SVG/1.1/DTD/svg11.dtd">
<!-- Generated by graphviz version 2.38.0 (20140413.2041)
 -->
<!-- Title: G Pages: 1 -->
<svg width="977pt" height="1446pt"
 viewBox="0.00 0.00 977.33 1446.44" xmlns="http://www.w3.org/2000/svg" xmlns:xlink="http://www.w3.org/1999/xlink">
<g id="graph0" class="graph" transform="scale(1 1) rotate(0) translate(4 1442.44)">
<title>G</title>
<polygon fill="white" stroke="none" points="-4,4 -4,-1442.44 973.326,-1442.44 973.326,4 -4,4"/>
<!-- Type I interferon signaling pathway -->
<g id="node1" class="node"><title>Type I interferon signaling pathway</title>
<ellipse fill="none" stroke="black" cx="493" cy="-1392.83" rx="45.717" ry="45.717"/>
<text text-anchor="middle" x="493" y="-1391.63" font-family="Times,serif" font-size="4.00">Type I interferon signaling pathway</text>
</g>
<!-- LY6E -->
<g id="node2" class="node"><title>LY6E</title>
<ellipse fill="none" stroke="black" cx="493" cy="-1293.22" rx="18" ry="18"/>
<text text-anchor="middle" x="493" y="-1292.02" font-family="Times,serif" font-size="4.00">LY6E</text>
</g>
<!-- Type I interferon signaling pathway&#45;&gt;LY6E -->
<g id="edge1" class="edge"><title>Type I interferon signaling pathway&#45;&gt;LY6E</title>
<path fill="none" stroke="black" d="M493,-1347.03C493,-1338.35 493,-1329.49 493,-1321.58"/>
<polygon fill="black" stroke="black" points="496.5,-1321.48 493,-1311.48 489.5,-1321.48 496.5,-1321.48"/>
</g>
<!-- Nucleocapsid -->
<g id="node17" class="node"><title>Nucleocapsid</title>
<ellipse fill="none" stroke="black" cx="493" cy="-1216.42" rx="22.6101" ry="22.6101"/>
<text text-anchor="middle" x="493" y="-1215.22" font-family="Times,serif" font-size="4.00">Nucleocapsid</text>
</g>
<!-- LY6E&#45;&gt;Nucleocapsid -->
<g id="edge2" class="edge"><title>LY6E&#45;&gt;Nucleocapsid</title>
<path fill="none" stroke="black" d="M493,-1274.88C493,-1267.24 493,-1258.03 493,-1249.24"/>
<polygon fill="black" stroke="black" points="496.5,-1249.23 493,-1239.23 489.5,-1249.23 496.5,-1249.23"/>
</g>
<!-- ACE2_SPIKE complex -->
<g id="node3" class="node"><title>ACE2_SPIKE complex</title>
<ellipse fill="none" stroke="black" cx="691" cy="-145.248" rx="31.6406" ry="31.6406"/>
<text text-anchor="middle" x="691" y="-144.048" font-family="Times,serif" font-size="4.00">ACE2_SPIKE complex</text>
</g>
<!-- ACE2 (15 Kda) -->
<g id="node4" class="node"><title>ACE2 (15 Kda)</title>
<ellipse fill="none" stroke="black" cx="759" cy="-38.7141" rx="24.2908" ry="24.2908"/>
<text text-anchor="middle" x="759" y="-37.5141" font-family="Times,serif" font-size="4.00">ACE2 (15 Kda)</text>
</g>
<!-- ACE2_SPIKE complex&#45;&gt;ACE2 (15 Kda) -->
<g id="edge6" class="edge"><title>ACE2_SPIKE complex&#45;&gt;ACE2 (15 Kda)</title>
<path fill="none" stroke="black" d="M707.984,-118.139C717.849,-102.974 730.29,-83.8496 740.416,-68.283"/>
<polygon fill="black" stroke="black" points="743.554,-69.8766 746.073,-59.5856 737.687,-66.0596 743.554,-69.8766"/>
</g>
<!-- ACE2 (100 Kda) -->
<g id="node11" class="node"><title>ACE2 (100 Kda)</title>
<ellipse fill="none" stroke="black" cx="691" cy="-38.7141" rx="25.4118" ry="25.4118"/>
<text text-anchor="middle" x="691" y="-37.5141" font-family="Times,serif" font-size="4.00">ACE2 (100 Kda)</text>
</g>
<!-- ACE2_SPIKE complex&#45;&gt;ACE2 (100 Kda) -->
<g id="edge5" class="edge"><title>ACE2_SPIKE complex&#45;&gt;ACE2 (100 Kda)</title>
<path fill="none" stroke="black" d="M691,-113.167C691,-100.943 691,-86.8567 691,-74.3104"/>
<polygon fill="black" stroke="black" points="694.5,-74.2082 691,-64.2082 687.5,-74.2082 694.5,-74.2082"/>
</g>
<!-- Nucleoporin_gRNA complex  -->
<g id="node22" class="node"><title>Nucleoporin_gRNA complex </title>
<ellipse fill="none" stroke="black" cx="457" cy="-38.7141" rx="38.9294" ry="38.9294"/>
<text text-anchor="middle" x="457" y="-37.5141" font-family="Times,serif" font-size="4.00">Nucleoporin_gRNA complex </text>
</g>
<!-- ACE2_SPIKE complex&#45;&gt;Nucleoporin_gRNA complex  -->
<g id="edge7" class="edge"><title>ACE2_SPIKE complex&#45;&gt;Nucleoporin_gRNA complex </title>
<path fill="none" stroke="black" d="M665.331,-125.631C658.862,-121.34 651.814,-116.993 645,-113.428 598.464,-89.0835 542.015,-67.9887 503.19,-54.6767"/>
<polygon fill="black" stroke="black" points="504.31,-51.3608 493.715,-51.4627 502.061,-57.9897 504.31,-51.3608"/>
</g>
<!-- S2 -->
<g id="node31" class="node"><title>S2</title>
<ellipse fill="none" stroke="black" cx="873" cy="-38.7141" rx="18" ry="18"/>
<text text-anchor="middle" x="873" y="-37.5141" font-family="Times,serif" font-size="4.00">S2</text>
</g>
<!-- ACE2_SPIKE complex&#45;&gt;S2 -->
<g id="edge3" class="edge"><title>ACE2_SPIKE complex&#45;&gt;S2</title>
<path fill="none" stroke="black" d="M714.61,-123.887C719.787,-120.056 725.401,-116.343 731,-113.428 778.506,-88.6998 802.612,-108.826 846,-77.4282 851.099,-73.7386 855.601,-68.7866 859.395,-63.687"/>
<polygon fill="black" stroke="black" points="862.446,-65.4208 865.093,-55.1621 856.626,-61.5308 862.446,-65.4208"/>
</g>
<!-- S1 -->
<g id="node32" class="node"><title>S1</title>
<ellipse fill="none" stroke="black" cx="819" cy="-38.7141" rx="18" ry="18"/>
<text text-anchor="middle" x="819" y="-37.5141" font-family="Times,serif" font-size="4.00">S1</text>
</g>
<!-- ACE2_SPIKE complex&#45;&gt;S1 -->
<g id="edge4" class="edge"><title>ACE2_SPIKE complex&#45;&gt;S1</title>
<path fill="none" stroke="black" d="M715.614,-124.527C720.623,-120.729 725.917,-116.867 731,-113.428 757.074,-95.7878 768.781,-98.6855 792,-77.4282 796.566,-73.2481 800.824,-68.1776 804.548,-63.1284"/>
<polygon fill="black" stroke="black" points="807.485,-65.0343 810.271,-54.8121 801.719,-61.0663 807.485,-65.0343"/>
</g>
<!--  SARS&#45;CoV&#45;2 (+)gRNA -->
<g id="node5" class="node"><title> SARS&#45;CoV&#45;2 (+)gRNA</title>
<ellipse fill="none" stroke="black" cx="313" cy="-1125.27" rx="32.201" ry="32.201"/>
<text text-anchor="middle" x="313" y="-1124.07" font-family="Times,serif" font-size="4.00"> SARS&#45;CoV&#45;2 (+)gRNA</text>
</g>
<!-- SARS&#45;CoV&#45;2 polyprotein 1a -->
<g id="node6" class="node"><title>SARS&#45;CoV&#45;2 polyprotein 1a</title>
<ellipse fill="none" stroke="black" cx="267" cy="-1018.73" rx="37.2466" ry="37.2466"/>
<text text-anchor="middle" x="267" y="-1017.53" font-family="Times,serif" font-size="4.00">SARS&#45;CoV&#45;2 polyprotein 1a</text>
</g>
<!--  SARS&#45;CoV&#45;2 (+)gRNA&#45;&gt;SARS&#45;CoV&#45;2 polyprotein 1a -->
<g id="edge9" class="edge"><title> SARS&#45;CoV&#45;2 (+)gRNA&#45;&gt;SARS&#45;CoV&#45;2 polyprotein 1a</title>
<path fill="none" stroke="black" d="M300.309,-1095.43C295.779,-1085.13 290.578,-1073.31 285.652,-1062.12"/>
<polygon fill="black" stroke="black" points="288.832,-1060.66 281.601,-1052.91 282.425,-1063.47 288.832,-1060.66"/>
</g>
<!-- SARS&#45;CoV&#45;2 polyprotein 1ab -->
<g id="node10" class="node"><title>SARS&#45;CoV&#45;2 polyprotein 1ab</title>
<ellipse fill="none" stroke="black" cx="360" cy="-1018.73" rx="38.3684" ry="38.3684"/>
<text text-anchor="middle" x="360" y="-1017.53" font-family="Times,serif" font-size="4.00">SARS&#45;CoV&#45;2 polyprotein 1ab</text>
</g>
<!--  SARS&#45;CoV&#45;2 (+)gRNA&#45;&gt;SARS&#45;CoV&#45;2 polyprotein 1ab -->
<g id="edge10" class="edge"><title> SARS&#45;CoV&#45;2 (+)gRNA&#45;&gt;SARS&#45;CoV&#45;2 polyprotein 1ab</title>
<path fill="none" stroke="black" d="M325.967,-1095.43C330.423,-1085.52 335.515,-1074.19 340.379,-1063.37"/>
<polygon fill="black" stroke="black" points="343.664,-1064.6 344.573,-1054.04 337.28,-1061.73 343.664,-1064.6"/>
</g>
<!-- N (&#45;)sgmRNA -->
<g id="node13" class="node"><title>N (&#45;)sgmRNA</title>
<ellipse fill="none" stroke="black" cx="89" cy="-627.536" rx="22.6101" ry="22.6101"/>
<text text-anchor="middle" x="89" y="-626.336" font-family="Times,serif" font-size="4.00">N (&#45;)sgmRNA</text>
</g>
<!--  SARS&#45;CoV&#45;2 (+)gRNA&#45;&gt;N (&#45;)sgmRNA -->
<g id="edge12" class="edge"><title> SARS&#45;CoV&#45;2 (+)gRNA&#45;&gt;N (&#45;)sgmRNA</title>
<path fill="none" stroke="black" d="M281.636,-1116.64C250.961,-1107.54 205.157,-1089.34 179,-1056.92 129.137,-995.105 100.703,-748.688 91.9443,-660.297"/>
<polygon fill="black" stroke="black" points="95.426,-659.938 90.9736,-650.324 88.4589,-660.616 95.426,-659.938"/>
</g>
<!-- SARS&#45;CoV&#45;2 structural protein coding (&#45;)sgmRNAs -->
<g id="node18" class="node"><title>SARS&#45;CoV&#45;2 structural protein coding (&#45;)sgmRNAs</title>
<ellipse fill="none" stroke="black" cx="404" cy="-627.536" rx="61.5366" ry="61.5366"/>
<text text-anchor="middle" x="404" y="-626.336" font-family="Times,serif" font-size="4.00">SARS&#45;CoV&#45;2 structural protein coding (&#45;)sgmRNAs</text>
</g>
<!--  SARS&#45;CoV&#45;2 (+)gRNA&#45;&gt;SARS&#45;CoV&#45;2 structural protein coding (&#45;)sgmRNAs -->
<g id="edge11" class="edge"><title> SARS&#45;CoV&#45;2 (+)gRNA&#45;&gt;SARS&#45;CoV&#45;2 structural protein coding (&#45;)sgmRNAs</title>
<path fill="none" stroke="black" d="M344.364,-1116.64C375.039,-1107.54 420.843,-1089.34 447,-1056.92 479.384,-1016.77 469.504,-995.715 476,-944.549 481.344,-902.46 482.666,-890.989 476,-849.089 467.469,-795.465 447.958,-737.16 431.396,-693.972"/>
<polygon fill="black" stroke="black" points="434.577,-692.496 427.695,-684.441 428.052,-695.03 434.577,-692.496"/>
</g>
<!--  SARS&#45;CoV&#45;2 (+)gRNA&#45;&gt;Nucleoporin_gRNA complex  -->
<g id="edge8" class="edge"><title> SARS&#45;CoV&#45;2 (+)gRNA&#45;&gt;Nucleoporin_gRNA complex </title>
<path fill="none" stroke="black" d="M280.763,-1120.33C242.332,-1113.9 178.815,-1097.5 143,-1056.92 88.8378,-995.545 0,-1045.4 0,-468.439 0,-468.439 0,-468.439 0,-230.068 0,-142.17 291.734,-73.2135 409.023,-49.0421"/>
<polygon fill="black" stroke="black" points="409.724,-52.4713 418.822,-47.0434 408.325,-45.6125 409.724,-52.4713"/>
</g>
<!--  SARS&#45;CoV&#45;2 (&#45;)gRNA -->
<g id="node24" class="node"><title> SARS&#45;CoV&#45;2 (&#45;)gRNA</title>
<ellipse fill="none" stroke="black" cx="161" cy="-627.536" rx="31.0804" ry="31.0804"/>
<text text-anchor="middle" x="161" y="-626.336" font-family="Times,serif" font-size="4.00"> SARS&#45;CoV&#45;2 (&#45;)gRNA</text>
</g>
<!--  SARS&#45;CoV&#45;2 (+)gRNA&#45;&gt; SARS&#45;CoV&#45;2 (&#45;)gRNA -->
<g id="edge14" class="edge"><title> SARS&#45;CoV&#45;2 (+)gRNA&#45;&gt; SARS&#45;CoV&#45;2 (&#45;)gRNA</title>
<path fill="none" stroke="black" d="M282.966,-1113.07C259.947,-1101.73 229.643,-1082.26 212,-1056.92 127.82,-935.998 137.427,-748.817 150.561,-667.956"/>
<polygon fill="black" stroke="black" points="154.076,-668.176 152.344,-657.723 147.18,-666.974 154.076,-668.176"/>
</g>
<!-- SARS&#45;CoV&#45;2 accessory protein coding (&#45;)sgmRNAs -->
<g id="node30" class="node"><title>SARS&#45;CoV&#45;2 accessory protein coding (&#45;)sgmRNAs</title>
<ellipse fill="none" stroke="black" cx="584" cy="-627.536" rx="61.5366" ry="61.5366"/>
<text text-anchor="middle" x="584" y="-626.336" font-family="Times,serif" font-size="4.00">SARS&#45;CoV&#45;2 accessory protein coding (&#45;)sgmRNAs</text>
</g>
<!--  SARS&#45;CoV&#45;2 (+)gRNA&#45;&gt;SARS&#45;CoV&#45;2 accessory protein coding (&#45;)sgmRNAs -->
<g id="edge13" class="edge"><title> SARS&#45;CoV&#45;2 (+)gRNA&#45;&gt;SARS&#45;CoV&#45;2 accessory protein coding (&#45;)sgmRNAs</title>
<path fill="none" stroke="black" d="M345.074,-1119.65C381.868,-1112.63 441.43,-1095.74 475,-1056.92 562.934,-955.225 581.562,-792.109 584.56,-699.255"/>
<polygon fill="black" stroke="black" points="588.063,-699.207 584.834,-689.116 581.065,-699.018 588.063,-699.207"/>
</g>
<!-- Nsp11 -->
<g id="node19" class="node"><title>Nsp11</title>
<ellipse fill="none" stroke="black" cx="216" cy="-896.819" rx="18" ry="18"/>
<text text-anchor="middle" x="216" y="-895.619" font-family="Times,serif" font-size="4.00">Nsp11</text>
</g>
<!-- SARS&#45;CoV&#45;2 polyprotein 1a&#45;&gt;Nsp11 -->
<g id="edge15" class="edge"><title>SARS&#45;CoV&#45;2 polyprotein 1a&#45;&gt;Nsp11</title>
<path fill="none" stroke="black" d="M252.794,-984.33C244.614,-965.097 234.491,-941.296 226.935,-923.53"/>
<polygon fill="black" stroke="black" points="229.952,-921.68 222.817,-913.847 223.51,-924.419 229.952,-921.68"/>
</g>
<!-- SARS&#45;CoV&#45;2 pp1a and pp1ab products -->
<g id="node20" class="node"><title>SARS&#45;CoV&#45;2 pp1a and pp1ab products</title>
<ellipse fill="none" stroke="black" cx="300" cy="-896.819" rx="47.9605" ry="47.9605"/>
<text text-anchor="middle" x="300" y="-895.619" font-family="Times,serif" font-size="4.00">SARS&#45;CoV&#45;2 pp1a and pp1ab products</text>
</g>
<!-- SARS&#45;CoV&#45;2 polyprotein 1a&#45;&gt;SARS&#45;CoV&#45;2 pp1a and pp1ab products -->
<g id="edge16" class="edge"><title>SARS&#45;CoV&#45;2 polyprotein 1a&#45;&gt;SARS&#45;CoV&#45;2 pp1a and pp1ab products</title>
<path fill="none" stroke="black" d="M276.634,-982.726C279.229,-973.296 282.1,-962.865 284.915,-952.634"/>
<polygon fill="black" stroke="black" points="288.308,-953.496 287.587,-942.926 281.559,-951.639 288.308,-953.496"/>
</g>
<!-- SARS&#45;CoV&#45;2 accessory protein coding (+)sgmRNAs -->
<g id="node7" class="node"><title>SARS&#45;CoV&#45;2 accessory protein coding (+)sgmRNAs</title>
<ellipse fill="none" stroke="black" cx="565" cy="-467.439" rx="62.658" ry="62.658"/>
<text text-anchor="middle" x="565" y="-466.239" font-family="Times,serif" font-size="4.00">SARS&#45;CoV&#45;2 accessory protein coding (+)sgmRNAs</text>
</g>
<!-- SARS&#45;CoV&#45;2 accessory proteins -->
<g id="node28" class="node"><title>SARS&#45;CoV&#45;2 accessory proteins</title>
<ellipse fill="none" stroke="black" cx="565" cy="-326.964" rx="41.7924" ry="41.7924"/>
<text text-anchor="middle" x="565" y="-325.764" font-family="Times,serif" font-size="4.00">SARS&#45;CoV&#45;2 accessory proteins</text>
</g>
<!-- SARS&#45;CoV&#45;2 accessory protein coding (+)sgmRNAs&#45;&gt;SARS&#45;CoV&#45;2 accessory proteins -->
<g id="edge17" class="edge"><title>SARS&#45;CoV&#45;2 accessory protein coding (+)sgmRNAs&#45;&gt;SARS&#45;CoV&#45;2 accessory proteins</title>
<path fill="none" stroke="black" d="M565,-404.492C565,-396.087 565,-387.537 565,-379.345"/>
<polygon fill="black" stroke="black" points="568.5,-379.197 565,-369.197 561.5,-379.198 568.5,-379.197"/>
</g>
<!-- N (+)sgmRNA -->
<g id="node8" class="node"><title>N (+)sgmRNA</title>
<ellipse fill="none" stroke="black" cx="207" cy="-467.439" rx="23.1702" ry="23.1702"/>
<text text-anchor="middle" x="207" y="-466.239" font-family="Times,serif" font-size="4.00">N (+)sgmRNA</text>
</g>
<!-- N -->
<g id="node35" class="node"><title>N</title>
<ellipse fill="none" stroke="black" cx="267" cy="-326.964" rx="18" ry="18"/>
<text text-anchor="middle" x="267" y="-325.764" font-family="Times,serif" font-size="4.00">N</text>
</g>
<!-- N (+)sgmRNA&#45;&gt;N -->
<g id="edge18" class="edge"><title>N (+)sgmRNA&#45;&gt;N</title>
<path fill="none" stroke="black" d="M215.983,-445.708C226.708,-420.954 244.637,-379.577 256.133,-353.045"/>
<polygon fill="black" stroke="black" points="259.431,-354.236 260.195,-343.669 253.008,-351.453 259.431,-354.236"/>
</g>
<!-- Replication transcription complex -->
<g id="node9" class="node"><title>Replication transcription complex</title>
<ellipse fill="none" stroke="black" cx="300" cy="-769.072" rx="44.0348" ry="44.0348"/>
<text text-anchor="middle" x="300" y="-767.872" font-family="Times,serif" font-size="4.00">Replication transcription complex</text>
</g>
<!-- Replication transcription complex&#45;&gt; SARS&#45;CoV&#45;2 (+)gRNA -->
<g id="edge19" class="edge"><title>Replication transcription complex&#45;&gt; SARS&#45;CoV&#45;2 (+)gRNA</title>
<path fill="none" stroke="black" d="M343.06,-779.737C378.656,-790.246 426.96,-810.91 450,-849.089 498.736,-929.847 464.629,-982.244 407,-1056.92 391.858,-1076.54 369.461,-1092.9 350.327,-1104.58"/>
<polygon fill="black" stroke="black" points="348.359,-1101.67 341.524,-1109.77 351.915,-1107.7 348.359,-1101.67"/>
</g>
<!-- Replication transcription complex&#45;&gt;SARS&#45;CoV&#45;2 accessory protein coding (+)sgmRNAs -->
<g id="edge27" class="edge"><title>Replication transcription complex&#45;&gt;SARS&#45;CoV&#45;2 accessory protein coding (+)sgmRNAs</title>
<path fill="none" stroke="black" d="M343.114,-759.267C382.763,-748.99 440.478,-728.169 475,-689.054 512.871,-646.145 490.999,-618.851 513,-566.018 517.804,-554.482 523.527,-542.503 529.391,-531.053"/>
<polygon fill="black" stroke="black" points="532.591,-532.487 534.11,-522.002 526.384,-529.251 532.591,-532.487"/>
</g>
<!-- Replication transcription complex&#45;&gt;N (+)sgmRNA -->
<g id="edge25" class="edge"><title>Replication transcription complex&#45;&gt;N (+)sgmRNA</title>
<path fill="none" stroke="black" d="M271.563,-735.063C261.365,-721.6 250.734,-705.374 244,-689.054 217.929,-625.874 210.218,-545.299 207.944,-501.104"/>
<polygon fill="black" stroke="black" points="211.432,-500.776 207.485,-490.944 204.44,-501.092 211.432,-500.776"/>
</g>
<!-- Replication transcription complex&#45;&gt;N (&#45;)sgmRNA -->
<g id="edge22" class="edge"><title>Replication transcription complex&#45;&gt;N (&#45;)sgmRNA</title>
<path fill="none" stroke="black" d="M257.147,-757.856C217.76,-746.618 159.772,-725.178 121,-689.054 112.079,-680.743 105.169,-669.373 100.09,-658.732"/>
<polygon fill="black" stroke="black" points="103.162,-657.021 95.9368,-649.272 96.7527,-659.836 103.162,-657.021"/>
</g>
<!-- Replication transcription complex&#45;&gt;SARS&#45;CoV&#45;2 structural protein coding (&#45;)sgmRNAs -->
<g id="edge21" class="edge"><title>Replication transcription complex&#45;&gt;SARS&#45;CoV&#45;2 structural protein coding (&#45;)sgmRNAs</title>
<path fill="none" stroke="black" d="M325.975,-733.221C336.683,-718.854 349.375,-701.826 361.377,-685.723"/>
<polygon fill="black" stroke="black" points="364.406,-687.515 367.576,-677.406 358.794,-683.332 364.406,-687.515"/>
</g>
<!-- Replication transcription complex&#45;&gt; SARS&#45;CoV&#45;2 (&#45;)gRNA -->
<g id="edge24" class="edge"><title>Replication transcription complex&#45;&gt; SARS&#45;CoV&#45;2 (&#45;)gRNA</title>
<path fill="none" stroke="black" d="M264.808,-741.705C246.384,-727.128 223.981,-708.141 206,-689.054 198.233,-680.809 190.576,-671.225 183.842,-662.149"/>
<polygon fill="black" stroke="black" points="186.644,-660.051 177.94,-654.009 180.977,-664.16 186.644,-660.051"/>
</g>
<!-- SARS&#45;CoV&#45;2 structural protein coding (+)sgmRNAs -->
<g id="node26" class="node"><title>SARS&#45;CoV&#45;2 structural protein coding (+)sgmRNAs</title>
<ellipse fill="none" stroke="black" cx="404" cy="-467.439" rx="62.0973" ry="62.0973"/>
<text text-anchor="middle" x="404" y="-466.239" font-family="Times,serif" font-size="4.00">SARS&#45;CoV&#45;2 structural protein coding (+)sgmRNAs</text>
</g>
<!-- Replication transcription complex&#45;&gt;SARS&#45;CoV&#45;2 structural protein coding (+)sgmRNAs -->
<g id="edge26" class="edge"><title>Replication transcription complex&#45;&gt;SARS&#45;CoV&#45;2 structural protein coding (+)sgmRNAs</title>
<path fill="none" stroke="black" d="M301.294,-724.696C303.866,-682.663 311.366,-617.842 333,-566.018 339.216,-551.128 348.118,-536.365 357.527,-523.002"/>
<polygon fill="black" stroke="black" points="360.386,-525.02 363.431,-514.873 354.722,-520.907 360.386,-525.02"/>
</g>
<!-- Replication transcription complex&#45;&gt;SARS&#45;CoV&#45;2 accessory protein coding (&#45;)sgmRNAs -->
<g id="edge23" class="edge"><title>Replication transcription complex&#45;&gt;SARS&#45;CoV&#45;2 accessory protein coding (&#45;)sgmRNAs</title>
<path fill="none" stroke="black" d="M342.346,-756.22C385.623,-743.153 453.959,-719.836 508,-689.054 515.374,-684.854 522.785,-679.968 529.933,-674.826"/>
<polygon fill="black" stroke="black" points="532.243,-677.471 538.187,-668.7 528.071,-671.85 532.243,-677.471"/>
</g>
<!-- Replication transcription complex&#45;&gt;N -->
<g id="edge20" class="edge"><title>Replication transcription complex&#45;&gt;N</title>
<path fill="none" stroke="black" d="M292.611,-725.473C282.257,-635.805 267.044,-429.737 265.575,-355.364"/>
<polygon fill="black" stroke="black" points="269.071,-354.946 265.46,-344.985 262.071,-355.024 269.071,-354.946"/>
</g>
<!-- SARS&#45;CoV&#45;2 polyprotein 1ab&#45;&gt;SARS&#45;CoV&#45;2 pp1a and pp1ab products -->
<g id="edge29" class="edge"><title>SARS&#45;CoV&#45;2 polyprotein 1ab&#45;&gt;SARS&#45;CoV&#45;2 pp1a and pp1ab products</title>
<path fill="none" stroke="black" d="M343.287,-984.33C337.816,-973.396 331.606,-960.985 325.632,-949.046"/>
<polygon fill="black" stroke="black" points="328.731,-947.417 321.126,-940.041 322.471,-950.55 328.731,-947.417"/>
</g>
<!-- SARS&#45;CoV&#45;2 pp1ab products -->
<g id="node23" class="node"><title>SARS&#45;CoV&#45;2 pp1ab products</title>
<ellipse fill="none" stroke="black" cx="403" cy="-896.819" rx="37.8075" ry="37.8075"/>
<text text-anchor="middle" x="403" y="-895.619" font-family="Times,serif" font-size="4.00">SARS&#45;CoV&#45;2 pp1ab products</text>
</g>
<!-- SARS&#45;CoV&#45;2 polyprotein 1ab&#45;&gt;SARS&#45;CoV&#45;2 pp1ab products -->
<g id="edge28" class="edge"><title>SARS&#45;CoV&#45;2 polyprotein 1ab&#45;&gt;SARS&#45;CoV&#45;2 pp1ab products</title>
<path fill="none" stroke="black" d="M372.669,-982.403C377.214,-969.728 382.396,-955.276 387.176,-941.948"/>
<polygon fill="black" stroke="black" points="390.489,-943.077 390.57,-932.483 383.9,-940.714 390.489,-943.077"/>
</g>
<!-- ACE2 -->
<g id="node12" class="node"><title>ACE2</title>
<ellipse fill="none" stroke="black" cx="691" cy="-231.068" rx="18" ry="18"/>
<text text-anchor="middle" x="691" y="-229.868" font-family="Times,serif" font-size="4.00">ACE2</text>
</g>
<!-- ACE2&#45;&gt;ACE2_SPIKE complex -->
<g id="edge30" class="edge"><title>ACE2&#45;&gt;ACE2_SPIKE complex</title>
<path fill="none" stroke="black" d="M691,-212.7C691,-205.245 691,-196.189 691,-187.192"/>
<polygon fill="black" stroke="black" points="694.5,-187.149 691,-177.149 687.5,-187.149 694.5,-187.149"/>
</g>
<!-- N (&#45;)sgmRNA&#45;&gt;N (+)sgmRNA -->
<g id="edge31" class="edge"><title>N (&#45;)sgmRNA&#45;&gt;N (+)sgmRNA</title>
<path fill="none" stroke="black" d="M98.1093,-606.504C103.98,-594.376 112.152,-578.829 121,-566.018 139.835,-538.745 165.342,-510.669 183.68,-491.676"/>
<polygon fill="black" stroke="black" points="186.333,-493.969 190.815,-484.369 181.324,-489.079 186.333,-493.969"/>
</g>
<!-- S -->
<g id="node14" class="node"><title>S</title>
<ellipse fill="none" stroke="black" cx="504" cy="-231.068" rx="18" ry="18"/>
<text text-anchor="middle" x="504" y="-229.868" font-family="Times,serif" font-size="4.00">S</text>
</g>
<!-- S&#45;&gt;ACE2_SPIKE complex -->
<g id="edge32" class="edge"><title>S&#45;&gt;ACE2_SPIKE complex</title>
<path fill="none" stroke="black" d="M519.83,-221.939C525.527,-219.071 532.023,-215.865 538,-213.068 576.494,-195.053 621.087,-175.753 652.162,-162.551"/>
<polygon fill="black" stroke="black" points="653.91,-165.612 661.752,-158.488 651.179,-159.166 653.91,-165.612"/>
</g>
<!-- CTSB -->
<g id="node15" class="node"><title>CTSB</title>
<ellipse fill="none" stroke="black" cx="922" cy="-145.248" rx="18" ry="18"/>
<text text-anchor="middle" x="922" y="-144.048" font-family="Times,serif" font-size="4.00">CTSB</text>
</g>
<!-- CTSB&#45;&gt;S2 -->
<g id="edge33" class="edge"><title>CTSB&#45;&gt;S2</title>
<path fill="none" stroke="black" d="M914.558,-128.372C906.633,-111.466 893.982,-84.4766 884.718,-64.7126"/>
<polygon fill="black" stroke="black" points="887.765,-62.9665 880.352,-55.3974 881.427,-65.9376 887.765,-62.9665"/>
</g>
<!-- CTSB&#45;&gt;S1 -->
<g id="edge34" class="edge"><title>CTSB&#45;&gt;S1</title>
<path fill="none" stroke="black" d="M911.297,-130.771C906.561,-125.153 900.765,-118.719 895,-113.428 875.09,-95.1567 864.991,-96.6539 846,-77.4282 841.65,-73.0241 837.477,-67.8641 833.769,-62.7994"/>
<polygon fill="black" stroke="black" points="836.594,-60.7321 828.014,-54.516 830.845,-64.7257 836.594,-60.7321"/>
</g>
<!-- Orf7a -->
<g id="node16" class="node"><title>Orf7a</title>
<ellipse fill="none" stroke="black" cx="565" cy="-231.068" rx="18" ry="18"/>
<text text-anchor="middle" x="565" y="-229.868" font-family="Times,serif" font-size="4.00">Orf7a</text>
</g>
<!-- Nucleocapsid&#45;&gt; SARS&#45;CoV&#45;2 (+)gRNA -->
<g id="edge36" class="edge"><title>Nucleocapsid&#45;&gt; SARS&#45;CoV&#45;2 (+)gRNA</title>
<path fill="none" stroke="black" d="M472.702,-1205.37C443.205,-1190.76 387.972,-1163.4 350.836,-1145.01"/>
<polygon fill="black" stroke="black" points="352.325,-1141.84 341.811,-1140.54 349.219,-1148.11 352.325,-1141.84"/>
</g>
<!-- Nucleocapsid&#45;&gt;N -->
<g id="edge35" class="edge"><title>Nucleocapsid&#45;&gt;N</title>
<path fill="none" stroke="black" d="M470.125,-1216.1C377.858,-1217.55 38,-1209.98 38,-1019.73 38,-1019.73 38,-1019.73 38,-626.536 38,-492.597 184.891,-381.684 243.382,-342.829"/>
<polygon fill="black" stroke="black" points="245.515,-345.617 251.975,-337.219 241.688,-339.755 245.515,-345.617"/>
</g>
<!-- SARS&#45;CoV&#45;2 structural protein coding (&#45;)sgmRNAs&#45;&gt;SARS&#45;CoV&#45;2 structural protein coding (+)sgmRNAs -->
<g id="edge37" class="edge"><title>SARS&#45;CoV&#45;2 structural protein coding (&#45;)sgmRNAs&#45;&gt;SARS&#45;CoV&#45;2 structural protein coding (+)sgmRNAs</title>
<path fill="none" stroke="black" d="M404,-565.864C404,-557.352 404,-548.539 404,-539.85"/>
<polygon fill="black" stroke="black" points="407.5,-539.733 404,-529.733 400.5,-539.733 407.5,-539.733"/>
</g>
<!-- Nsp11&#45;&gt;Replication transcription complex -->
<g id="edge38" class="edge"><title>Nsp11&#45;&gt;Replication transcription complex</title>
<path fill="none" stroke="black" d="M224.374,-880.433C229.523,-871.205 236.382,-859.315 243,-849.089 250.692,-837.205 259.446,-824.647 267.746,-813.125"/>
<polygon fill="black" stroke="black" points="270.644,-815.091 273.687,-804.943 264.979,-810.978 270.644,-815.091"/>
</g>
<!-- SARS&#45;CoV&#45;2 pp1a and pp1ab products&#45;&gt;Replication transcription complex -->
<g id="edge39" class="edge"><title>SARS&#45;CoV&#45;2 pp1a and pp1ab products&#45;&gt;Replication transcription complex</title>
<path fill="none" stroke="black" d="M300,-848.995C300,-840.655 300,-831.912 300,-823.406"/>
<polygon fill="black" stroke="black" points="303.5,-823.193 300,-813.193 296.5,-823.193 303.5,-823.193"/>
</g>
<!-- E -->
<g id="node21" class="node"><title>E</title>
<ellipse fill="none" stroke="black" cx="389" cy="-231.068" rx="18" ry="18"/>
<text text-anchor="middle" x="389" y="-229.868" font-family="Times,serif" font-size="4.00">E</text>
</g>
<!-- Nucleoporin_gRNA complex &#45;&gt;Nucleocapsid -->
<g id="edge40" class="edge"><title>Nucleoporin_gRNA complex &#45;&gt;Nucleocapsid</title>
<path fill="none" stroke="black" d="M483.431,-67.3485C513.349,-99.9112 561.834,-156.743 592,-213.068 709.723,-432.874 674,-518.726 674,-768.072 674,-1019.73 674,-1019.73 674,-1019.73 674,-1107.95 573.63,-1173.3 522.375,-1200.92"/>
<polygon fill="black" stroke="black" points="520.632,-1197.88 513.411,-1205.63 523.891,-1204.07 520.632,-1197.88"/>
</g>
<!-- SARS&#45;CoV&#45;2 pp1ab products&#45;&gt;Replication transcription complex -->
<g id="edge41" class="edge"><title>SARS&#45;CoV&#45;2 pp1ab products&#45;&gt;Replication transcription complex</title>
<path fill="none" stroke="black" d="M379.628,-867.285C366.245,-850.947 349.207,-830.146 334.329,-811.982"/>
<polygon fill="black" stroke="black" points="336.71,-809.366 327.666,-803.847 331.295,-813.801 336.71,-809.366"/>
</g>
<!--  SARS&#45;CoV&#45;2 (&#45;)gRNA&#45;&gt; SARS&#45;CoV&#45;2 (+)gRNA -->
<g id="edge42" class="edge"><title> SARS&#45;CoV&#45;2 (&#45;)gRNA&#45;&gt; SARS&#45;CoV&#45;2 (+)gRNA</title>
<path fill="none" stroke="black" d="M161.015,-659.094C156.306,-734.296 142.577,-931.339 230,-1056.92 242.424,-1074.76 261.126,-1089.69 277.719,-1100.93"/>
<polygon fill="black" stroke="black" points="275.877,-1103.9 286.159,-1106.46 279.715,-1098.05 275.877,-1103.9"/>
</g>
<!-- FURIN -->
<g id="node25" class="node"><title>FURIN</title>
<ellipse fill="none" stroke="black" cx="814" cy="-145.248" rx="18" ry="18"/>
<text text-anchor="middle" x="814" y="-144.048" font-family="Times,serif" font-size="4.00">FURIN</text>
</g>
<!-- FURIN&#45;&gt;ACE2 (15 Kda) -->
<g id="edge45" class="edge"><title>FURIN&#45;&gt;ACE2 (15 Kda)</title>
<path fill="none" stroke="black" d="M805.885,-128.824C797.719,-113.303 784.913,-88.9644 774.747,-69.6425"/>
<polygon fill="black" stroke="black" points="777.754,-67.8409 770,-60.6208 771.559,-71.1003 777.754,-67.8409"/>
</g>
<!-- FURIN&#45;&gt;ACE2 (100 Kda) -->
<g id="edge43" class="edge"><title>FURIN&#45;&gt;ACE2 (100 Kda)</title>
<path fill="none" stroke="black" d="M803.549,-130.482C798.856,-124.815 793.024,-118.423 787,-113.428 762.766,-93.3349 750.519,-97.1721 726,-77.4282 721.845,-74.0825 717.724,-70.2454 713.847,-66.3283"/>
<polygon fill="black" stroke="black" points="716.157,-63.676 706.748,-58.805 711.066,-68.4802 716.157,-63.676"/>
</g>
<!-- FURIN&#45;&gt;S2 -->
<g id="edge44" class="edge"><title>FURIN&#45;&gt;S2</title>
<path fill="none" stroke="black" d="M822.453,-129.271C832.136,-112.116 848.13,-83.7777 859.533,-63.5738"/>
<polygon fill="black" stroke="black" points="862.695,-65.0925 864.562,-54.6635 856.599,-61.6518 862.695,-65.0925"/>
</g>
<!-- FURIN&#45;&gt;S1 -->
<g id="edge46" class="edge"><title>FURIN&#45;&gt;S1</title>
<path fill="none" stroke="black" d="M814.826,-126.986C815.604,-110.72 816.782,-86.0817 817.689,-67.1274"/>
<polygon fill="black" stroke="black" points="821.191,-67.1572 818.173,-57.0014 814.199,-66.8227 821.191,-67.1572"/>
</g>
<!-- SARS&#45;CoV&#45;2 structural proteins -->
<g id="node33" class="node"><title>SARS&#45;CoV&#45;2 structural proteins</title>
<ellipse fill="none" stroke="black" cx="417" cy="-326.964" rx="41.2319" ry="41.2319"/>
<text text-anchor="middle" x="417" y="-325.764" font-family="Times,serif" font-size="4.00">SARS&#45;CoV&#45;2 structural proteins</text>
</g>
<!-- SARS&#45;CoV&#45;2 structural protein coding (+)sgmRNAs&#45;&gt;SARS&#45;CoV&#45;2 structural proteins -->
<g id="edge47" class="edge"><title>SARS&#45;CoV&#45;2 structural protein coding (+)sgmRNAs&#45;&gt;SARS&#45;CoV&#45;2 structural proteins</title>
<path fill="none" stroke="black" d="M409.74,-405.299C410.581,-396.342 411.439,-387.202 412.257,-378.489"/>
<polygon fill="black" stroke="black" points="415.745,-378.777 413.195,-368.494 408.776,-378.123 415.745,-378.777"/>
</g>
<!-- TMPRSS2 -->
<g id="node27" class="node"><title>TMPRSS2</title>
<ellipse fill="none" stroke="black" cx="759" cy="-145.248" rx="18.6233" ry="18.6233"/>
<text text-anchor="middle" x="759" y="-144.048" font-family="Times,serif" font-size="4.00">TMPRSS2</text>
</g>
<!-- TMPRSS2&#45;&gt;ACE2 (15 Kda) -->
<g id="edge50" class="edge"><title>TMPRSS2&#45;&gt;ACE2 (15 Kda)</title>
<path fill="none" stroke="black" d="M759,-126.515C759,-112.14 759,-91.4571 759,-73.8863"/>
<polygon fill="black" stroke="black" points="762.5,-73.4324 759,-63.4324 755.5,-73.4324 762.5,-73.4324"/>
</g>
<!-- TMPRSS2&#45;&gt;ACE2 (100 Kda) -->
<g id="edge48" class="edge"><title>TMPRSS2&#45;&gt;ACE2 (100 Kda)</title>
<path fill="none" stroke="black" d="M749.257,-129.271C739.066,-113.605 722.809,-88.6127 710.054,-69.0059"/>
<polygon fill="black" stroke="black" points="712.862,-66.9031 704.475,-60.4291 706.994,-70.7201 712.862,-66.9031"/>
</g>
<!-- TMPRSS2&#45;&gt;S2 -->
<g id="edge49" class="edge"><title>TMPRSS2&#45;&gt;S2</title>
<path fill="none" stroke="black" d="M770.22,-130.242C775.058,-124.664 780.981,-118.401 787,-113.428 810.68,-93.8612 823.496,-98.3369 846,-77.4282 850.535,-73.2146 854.781,-68.1308 858.503,-63.0793"/>
<polygon fill="black" stroke="black" points="861.438,-64.9882 864.23,-54.7678 855.674,-61.0165 861.438,-64.9882"/>
</g>
<!-- TMPRSS2&#45;&gt;S1 -->
<g id="edge51" class="edge"><title>TMPRSS2&#45;&gt;S1</title>
<path fill="none" stroke="black" d="M767.853,-128.824C777.703,-111.664 793.739,-83.7241 805.231,-63.7037"/>
<polygon fill="black" stroke="black" points="808.363,-65.2771 810.306,-54.8619 802.292,-61.7924 808.363,-65.2771"/>
</g>
<!-- SARS&#45;CoV&#45;2 accessory proteins&#45;&gt;Orf7a -->
<g id="edge52" class="edge"><title>SARS&#45;CoV&#45;2 accessory proteins&#45;&gt;Orf7a</title>
<path fill="none" stroke="black" d="M565,-285.053C565,-276.355 565,-267.376 565,-259.337"/>
<polygon fill="black" stroke="black" points="568.5,-259.072 565,-249.072 561.5,-259.072 568.5,-259.072"/>
</g>
<!-- M -->
<g id="node29" class="node"><title>M</title>
<ellipse fill="none" stroke="black" cx="443" cy="-231.068" rx="18" ry="18"/>
<text text-anchor="middle" x="443" y="-229.868" font-family="Times,serif" font-size="4.00">M</text>
</g>
<!-- SARS&#45;CoV&#45;2 accessory protein coding (&#45;)sgmRNAs&#45;&gt;SARS&#45;CoV&#45;2 accessory protein coding (+)sgmRNAs -->
<g id="edge53" class="edge"><title>SARS&#45;CoV&#45;2 accessory protein coding (&#45;)sgmRNAs&#45;&gt;SARS&#45;CoV&#45;2 accessory protein coding (+)sgmRNAs</title>
<path fill="none" stroke="black" d="M576.763,-566.315C575.719,-557.629 574.636,-548.621 573.569,-539.745"/>
<polygon fill="black" stroke="black" points="577.043,-539.314 572.375,-529.803 570.093,-540.149 577.043,-539.314"/>
</g>
<!-- S2&#45;&gt;Nucleocapsid -->
<g id="edge54" class="edge"><title>S2&#45;&gt;Nucleocapsid</title>
<path fill="none" stroke="black" d="M887.762,-49.4816C905.432,-62.0345 934.456,-85.5637 949,-113.428 973.304,-159.99 968,-177.545 968,-230.068 968,-1019.73 968,-1019.73 968,-1019.73 968,-1115.76 631.937,-1188.69 525.157,-1209.44"/>
<polygon fill="black" stroke="black" points="524.433,-1206.02 515.273,-1211.34 525.754,-1212.89 524.433,-1206.02"/>
</g>
<!-- SARS&#45;CoV&#45;2 structural proteins&#45;&gt;S -->
<g id="edge57" class="edge"><title>SARS&#45;CoV&#45;2 structural proteins&#45;&gt;S</title>
<path fill="none" stroke="black" d="M444.767,-295.996C457.945,-281.774 473.349,-265.148 485.145,-252.417"/>
<polygon fill="black" stroke="black" points="487.742,-254.764 491.972,-245.05 482.608,-250.006 487.742,-254.764"/>
</g>
<!-- SARS&#45;CoV&#45;2 structural proteins&#45;&gt;E -->
<g id="edge56" class="edge"><title>SARS&#45;CoV&#45;2 structural proteins&#45;&gt;E</title>
<path fill="none" stroke="black" d="M405.45,-287.231C402.548,-277.5 399.501,-267.283 396.829,-258.323"/>
<polygon fill="black" stroke="black" points="400.108,-257.07 393.896,-248.487 393.4,-259.07 400.108,-257.07"/>
</g>
<!-- SARS&#45;CoV&#45;2 structural proteins&#45;&gt;M -->
<g id="edge55" class="edge"><title>SARS&#45;CoV&#45;2 structural proteins&#45;&gt;M</title>
<path fill="none" stroke="black" d="M427.8,-286.959C430.448,-277.398 433.221,-267.385 435.662,-258.567"/>
<polygon fill="black" stroke="black" points="439.053,-259.436 438.349,-248.865 432.307,-257.568 439.053,-259.436"/>
</g>
<!-- CTSL -->
<g id="node34" class="node"><title>CTSL</title>
<ellipse fill="none" stroke="black" cx="868" cy="-145.248" rx="18" ry="18"/>
<text text-anchor="middle" x="868" y="-144.048" font-family="Times,serif" font-size="4.00">CTSL</text>
</g>
<!-- CTSL&#45;&gt;S2 -->
<g id="edge58" class="edge"><title>CTSL&#45;&gt;S2</title>
<path fill="none" stroke="black" d="M868.826,-126.986C869.604,-110.72 870.782,-86.0817 871.689,-67.1274"/>
<polygon fill="black" stroke="black" points="875.191,-67.1572 872.173,-57.0014 868.199,-66.8227 875.191,-67.1572"/>
</g>
<!-- CTSL&#45;&gt;S1 -->
<g id="edge59" class="edge"><title>CTSL&#45;&gt;S1</title>
<path fill="none" stroke="black" d="M860.558,-128.372C852.633,-111.466 839.982,-84.4766 830.718,-64.7126"/>
<polygon fill="black" stroke="black" points="833.765,-62.9665 826.352,-55.3974 827.427,-65.9376 833.765,-62.9665"/>
</g>
<!-- N&#45;&gt;Replication transcription complex -->
<g id="edge60" class="edge"><title>N&#45;&gt;Replication transcription complex</title>
<path fill="none" stroke="black" d="M271.081,-344.907C280.21,-405.756 296.489,-614.911 300.585,-714.516"/>
<polygon fill="black" stroke="black" points="297.093,-714.809 300.973,-724.668 304.088,-714.542 297.093,-714.809"/>
</g>
<!-- N&#45;&gt;Nucleoporin_gRNA complex  -->
<g id="edge61" class="edge"><title>N&#45;&gt;Nucleoporin_gRNA complex </title>
<path fill="none" stroke="black" d="M276.683,-311.375C304.836,-268.961 387.382,-144.599 430.336,-79.8857"/>
<polygon fill="black" stroke="black" points="433.259,-81.81 435.874,-71.5427 427.427,-77.9388 433.259,-81.81"/>
</g>
</g>
</svg>
