<?xml version="1.0" encoding="UTF-8" standalone="no"?>
<!DOCTYPE svg PUBLIC "-//W3C//DTD SVG 1.1//EN"
 "http://www.w3.org/Graphics/SVG/1.1/DTD/svg11.dtd">
<!-- Generated by graphviz version 2.38.0 (20140413.2041)
 -->
<!-- Title: G Pages: 1 -->
<svg width="946pt" height="1528pt"
 viewBox="0.00 0.00 946.29 1528.05" xmlns="http://www.w3.org/2000/svg" xmlns:xlink="http://www.w3.org/1999/xlink">
<g id="graph0" class="graph" transform="scale(1 1) rotate(0) translate(4 1524.05)">
<title>G</title>
<polygon fill="white" stroke="none" points="-4,4 -4,-1524.05 942.287,-1524.05 942.287,4 -4,4"/>
<!-- Type I interferon signaling pathway -->
<g id="node1" class="node"><title>Type I interferon signaling pathway</title>
<ellipse fill="none" stroke="black" cx="523" cy="-1474.44" rx="45.717" ry="45.717"/>
<text text-anchor="middle" x="523" y="-1473.24" font-family="Times,serif" font-size="4.00">Type I interferon signaling pathway</text>
</g>
<!-- LY6E -->
<g id="node2" class="node"><title>LY6E</title>
<ellipse fill="none" stroke="black" cx="523" cy="-1374.83" rx="18" ry="18"/>
<text text-anchor="middle" x="523" y="-1373.63" font-family="Times,serif" font-size="4.00">LY6E</text>
</g>
<!-- Type I interferon signaling pathway&#45;&gt;LY6E -->
<g id="edge1" class="edge"><title>Type I interferon signaling pathway&#45;&gt;LY6E</title>
<path fill="none" stroke="black" d="M523,-1428.64C523,-1419.95 523,-1411.1 523,-1403.19"/>
<polygon fill="black" stroke="black" points="526.5,-1403.08 523,-1393.08 519.5,-1403.08 526.5,-1403.08"/>
</g>
<!-- Nucleocapsid -->
<g id="node28" class="node"><title>Nucleocapsid</title>
<ellipse fill="none" stroke="black" cx="523" cy="-1298.03" rx="22.6101" ry="22.6101"/>
<text text-anchor="middle" x="523" y="-1296.83" font-family="Times,serif" font-size="4.00">Nucleocapsid</text>
</g>
<!-- LY6E&#45;&gt;Nucleocapsid -->
<g id="edge2" class="edge"><title>LY6E&#45;&gt;Nucleocapsid</title>
<path fill="none" stroke="black" d="M523,-1356.48C523,-1348.85 523,-1339.64 523,-1330.85"/>
<polygon fill="black" stroke="black" points="526.5,-1330.84 523,-1320.84 519.5,-1330.84 526.5,-1330.84"/>
</g>
<!-- M -->
<g id="node3" class="node"><title>M</title>
<ellipse fill="none" stroke="black" cx="127" cy="-231.068" rx="18" ry="18"/>
<text text-anchor="middle" x="127" y="-229.868" font-family="Times,serif" font-size="4.00">M</text>
</g>
<!-- SARS&#45;CoV&#45;2 accessory protein coding (+)sgmRNAs -->
<g id="node4" class="node"><title>SARS&#45;CoV&#45;2 accessory protein coding (+)sgmRNAs</title>
<ellipse fill="none" stroke="black" cx="299" cy="-467.439" rx="62.658" ry="62.658"/>
<text text-anchor="middle" x="299" y="-466.239" font-family="Times,serif" font-size="4.00">SARS&#45;CoV&#45;2 accessory protein coding (+)sgmRNAs</text>
</g>
<!-- SARS&#45;CoV&#45;2 accessory proteins -->
<g id="node6" class="node"><title>SARS&#45;CoV&#45;2 accessory proteins</title>
<ellipse fill="none" stroke="black" cx="299" cy="-326.964" rx="41.7924" ry="41.7924"/>
<text text-anchor="middle" x="299" y="-325.764" font-family="Times,serif" font-size="4.00">SARS&#45;CoV&#45;2 accessory proteins</text>
</g>
<!-- SARS&#45;CoV&#45;2 accessory protein coding (+)sgmRNAs&#45;&gt;SARS&#45;CoV&#45;2 accessory proteins -->
<g id="edge3" class="edge"><title>SARS&#45;CoV&#45;2 accessory protein coding (+)sgmRNAs&#45;&gt;SARS&#45;CoV&#45;2 accessory proteins</title>
<path fill="none" stroke="black" d="M299,-404.492C299,-396.087 299,-387.537 299,-379.345"/>
<polygon fill="black" stroke="black" points="302.5,-379.197 299,-369.197 295.5,-379.198 302.5,-379.197"/>
</g>
<!-- Replication transcription complex -->
<g id="node5" class="node"><title>Replication transcription complex</title>
<ellipse fill="none" stroke="black" cx="262" cy="-769.072" rx="44.0348" ry="44.0348"/>
<text text-anchor="middle" x="262" y="-767.872" font-family="Times,serif" font-size="4.00">Replication transcription complex</text>
</g>
<!-- Replication transcription complex&#45;&gt;SARS&#45;CoV&#45;2 accessory protein coding (+)sgmRNAs -->
<g id="edge6" class="edge"><title>Replication transcription complex&#45;&gt;SARS&#45;CoV&#45;2 accessory protein coding (+)sgmRNAs</title>
<path fill="none" stroke="black" d="M267.301,-725.142C273.267,-676.827 283.055,-597.566 290.178,-539.882"/>
<polygon fill="black" stroke="black" points="293.679,-540.09 291.431,-529.736 286.731,-539.232 293.679,-540.09"/>
</g>
<!--  SARS&#45;CoV&#45;2 (&#45;)gRNA -->
<g id="node8" class="node"><title> SARS&#45;CoV&#45;2 (&#45;)gRNA</title>
<ellipse fill="none" stroke="black" cx="348" cy="-627.536" rx="31.0804" ry="31.0804"/>
<text text-anchor="middle" x="348" y="-626.336" font-family="Times,serif" font-size="4.00"> SARS&#45;CoV&#45;2 (&#45;)gRNA</text>
</g>
<!-- Replication transcription complex&#45;&gt; SARS&#45;CoV&#45;2 (&#45;)gRNA -->
<g id="edge8" class="edge"><title>Replication transcription complex&#45;&gt; SARS&#45;CoV&#45;2 (&#45;)gRNA</title>
<path fill="none" stroke="black" d="M284.821,-731.045C297.738,-710.087 313.798,-684.03 326.493,-663.432"/>
<polygon fill="black" stroke="black" points="329.619,-665.03 331.886,-654.681 323.66,-661.357 329.619,-665.03"/>
</g>
<!-- N (&#45;)sgmRNA -->
<g id="node10" class="node"><title>N (&#45;)sgmRNA</title>
<ellipse fill="none" stroke="black" cx="130" cy="-1115.72" rx="22.6101" ry="22.6101"/>
<text text-anchor="middle" x="130" y="-1114.52" font-family="Times,serif" font-size="4.00">N (&#45;)sgmRNA</text>
</g>
<!-- Replication transcription complex&#45;&gt;N (&#45;)sgmRNA -->
<g id="edge9" class="edge"><title>Replication transcription complex&#45;&gt;N (&#45;)sgmRNA</title>
<path fill="none" stroke="black" d="M227.276,-796.339C219.667,-801.95 211.61,-807.783 204,-813.089 180.035,-829.798 163.803,-823.902 149,-849.089 105.278,-923.485 115.209,-1030.6 123.8,-1083.17"/>
<polygon fill="black" stroke="black" points="120.387,-1083.98 125.539,-1093.24 127.285,-1082.79 120.387,-1083.98"/>
</g>
<!-- SARS&#45;CoV&#45;2 accessory protein coding (&#45;)sgmRNAs -->
<g id="node16" class="node"><title>SARS&#45;CoV&#45;2 accessory protein coding (&#45;)sgmRNAs</title>
<ellipse fill="none" stroke="black" cx="459" cy="-627.536" rx="61.5366" ry="61.5366"/>
<text text-anchor="middle" x="459" y="-626.336" font-family="Times,serif" font-size="4.00">SARS&#45;CoV&#45;2 accessory protein coding (&#45;)sgmRNAs</text>
</g>
<!-- Replication transcription complex&#45;&gt;SARS&#45;CoV&#45;2 accessory protein coding (&#45;)sgmRNAs -->
<g id="edge10" class="edge"><title>Replication transcription complex&#45;&gt;SARS&#45;CoV&#45;2 accessory protein coding (&#45;)sgmRNAs</title>
<path fill="none" stroke="black" d="M299.878,-746.288C325.399,-731.139 359.479,-709.981 388,-689.054 393.746,-684.839 399.614,-680.284 405.393,-675.632"/>
<polygon fill="black" stroke="black" points="407.671,-678.29 413.197,-669.251 403.24,-672.871 407.671,-678.29"/>
</g>
<!-- SARS&#45;CoV&#45;2 structural protein coding (&#45;)sgmRNAs -->
<g id="node17" class="node"><title>SARS&#45;CoV&#45;2 structural protein coding (&#45;)sgmRNAs</title>
<ellipse fill="none" stroke="black" cx="62" cy="-627.536" rx="61.5366" ry="61.5366"/>
<text text-anchor="middle" x="62" y="-626.336" font-family="Times,serif" font-size="4.00">SARS&#45;CoV&#45;2 structural protein coding (&#45;)sgmRNAs</text>
</g>
<!-- Replication transcription complex&#45;&gt;SARS&#45;CoV&#45;2 structural protein coding (&#45;)sgmRNAs -->
<g id="edge11" class="edge"><title>Replication transcription complex&#45;&gt;SARS&#45;CoV&#45;2 structural protein coding (&#45;)sgmRNAs</title>
<path fill="none" stroke="black" d="M224.431,-745.557C199.487,-730.264 166.257,-709.224 138,-689.054 131.192,-684.195 124.169,-678.947 117.27,-673.643"/>
<polygon fill="black" stroke="black" points="119.294,-670.783 109.25,-667.412 114.999,-676.311 119.294,-670.783"/>
</g>
<!-- SARS&#45;CoV&#45;2 structural protein coding (+)sgmRNAs -->
<g id="node18" class="node"><title>SARS&#45;CoV&#45;2 structural protein coding (+)sgmRNAs</title>
<ellipse fill="none" stroke="black" cx="100" cy="-467.439" rx="62.0973" ry="62.0973"/>
<text text-anchor="middle" x="100" y="-466.239" font-family="Times,serif" font-size="4.00">SARS&#45;CoV&#45;2 structural protein coding (+)sgmRNAs</text>
</g>
<!-- Replication transcription complex&#45;&gt;SARS&#45;CoV&#45;2 structural protein coding (+)sgmRNAs -->
<g id="edge12" class="edge"><title>Replication transcription complex&#45;&gt;SARS&#45;CoV&#45;2 structural protein coding (+)sgmRNAs</title>
<path fill="none" stroke="black" d="M241.483,-730.123C214.434,-680.095 166.48,-591.4 133.978,-531.284"/>
<polygon fill="black" stroke="black" points="136.935,-529.393 129.1,-522.261 130.777,-532.723 136.935,-529.393"/>
</g>
<!--  SARS&#45;CoV&#45;2 (+)gRNA -->
<g id="node24" class="node"><title> SARS&#45;CoV&#45;2 (+)gRNA</title>
<ellipse fill="none" stroke="black" cx="446" cy="-1206.87" rx="32.201" ry="32.201"/>
<text text-anchor="middle" x="446" y="-1205.67" font-family="Times,serif" font-size="4.00"> SARS&#45;CoV&#45;2 (+)gRNA</text>
</g>
<!-- Replication transcription complex&#45;&gt; SARS&#45;CoV&#45;2 (+)gRNA -->
<g id="edge5" class="edge"><title>Replication transcription complex&#45;&gt; SARS&#45;CoV&#45;2 (+)gRNA</title>
<path fill="none" stroke="black" d="M261.335,-813.207C262.03,-849.261 265.988,-901.54 281,-944.549 312.61,-1035.11 380.532,-1126.62 418.639,-1173.6"/>
<polygon fill="black" stroke="black" points="416.122,-1176.05 425.166,-1181.57 421.538,-1171.61 416.122,-1176.05"/>
</g>
<!-- N (+)sgmRNA -->
<g id="node25" class="node"><title>N (+)sgmRNA</title>
<ellipse fill="none" stroke="black" cx="79" cy="-1018.73" rx="23.1702" ry="23.1702"/>
<text text-anchor="middle" x="79" y="-1017.53" font-family="Times,serif" font-size="4.00">N (+)sgmRNA</text>
</g>
<!-- Replication transcription complex&#45;&gt;N (+)sgmRNA -->
<g id="edge4" class="edge"><title>Replication transcription complex&#45;&gt;N (+)sgmRNA</title>
<path fill="none" stroke="black" d="M227.992,-797.477C220.338,-803.018 212.082,-808.534 204,-813.089 167.187,-833.838 143.198,-816.748 116,-849.089 83.6911,-887.508 77.8196,-947.832 77.6225,-984.96"/>
<polygon fill="black" stroke="black" points="74.1249,-985.263 77.7101,-995.233 81.1246,-985.204 74.1249,-985.263"/>
</g>
<!-- N -->
<g id="node26" class="node"><title>N</title>
<ellipse fill="none" stroke="black" cx="46" cy="-896.819" rx="18" ry="18"/>
<text text-anchor="middle" x="46" y="-895.619" font-family="Times,serif" font-size="4.00">N</text>
</g>
<!-- Replication transcription complex&#45;&gt;N -->
<g id="edge7" class="edge"><title>Replication transcription complex&#45;&gt;N</title>
<path fill="none" stroke="black" d="M232.181,-801.693C226.065,-805.906 219.521,-809.873 213,-813.089 160.767,-838.853 134.254,-815.044 87,-849.089 77.6896,-855.797 70.2177,-866.1 63.9903,-875.327"/>
<polygon fill="black" stroke="black" points="61.0443,-873.436 58.3816,-883.691 66.8581,-877.335 61.0443,-873.436"/>
</g>
<!-- Orf7a -->
<g id="node21" class="node"><title>Orf7a</title>
<ellipse fill="none" stroke="black" cx="299" cy="-231.068" rx="18" ry="18"/>
<text text-anchor="middle" x="299" y="-229.868" font-family="Times,serif" font-size="4.00">Orf7a</text>
</g>
<!-- SARS&#45;CoV&#45;2 accessory proteins&#45;&gt;Orf7a -->
<g id="edge13" class="edge"><title>SARS&#45;CoV&#45;2 accessory proteins&#45;&gt;Orf7a</title>
<path fill="none" stroke="black" d="M299,-285.053C299,-276.355 299,-267.376 299,-259.337"/>
<polygon fill="black" stroke="black" points="302.5,-259.072 299,-249.072 295.5,-259.072 302.5,-259.072"/>
</g>
<!-- SARS&#45;CoV&#45;2 pp1ab products -->
<g id="node7" class="node"><title>SARS&#45;CoV&#45;2 pp1ab products</title>
<ellipse fill="none" stroke="black" cx="196" cy="-896.819" rx="37.8075" ry="37.8075"/>
<text text-anchor="middle" x="196" y="-895.619" font-family="Times,serif" font-size="4.00">SARS&#45;CoV&#45;2 pp1ab products</text>
</g>
<!-- SARS&#45;CoV&#45;2 pp1ab products&#45;&gt;Replication transcription complex -->
<g id="edge14" class="edge"><title>SARS&#45;CoV&#45;2 pp1ab products&#45;&gt;Replication transcription complex</title>
<path fill="none" stroke="black" d="M213.168,-863.109C220.443,-849.248 229.063,-832.825 237.021,-817.663"/>
<polygon fill="black" stroke="black" points="240.324,-818.902 241.872,-808.421 234.126,-815.648 240.324,-818.902"/>
</g>
<!--  SARS&#45;CoV&#45;2 (&#45;)gRNA&#45;&gt; SARS&#45;CoV&#45;2 (+)gRNA -->
<g id="edge15" class="edge"><title> SARS&#45;CoV&#45;2 (&#45;)gRNA&#45;&gt; SARS&#45;CoV&#45;2 (+)gRNA</title>
<path fill="none" stroke="black" d="M367.376,-652.25C405.682,-707.449 486,-843.779 486,-895.819 486,-1019.73 486,-1019.73 486,-1019.73 486,-1071.39 474.24,-1130.03 463.103,-1167.45"/>
<polygon fill="black" stroke="black" points="459.63,-1166.83 459.989,-1177.42 466.312,-1168.92 459.63,-1166.83"/>
</g>
<!-- FURIN -->
<g id="node9" class="node"><title>FURIN</title>
<ellipse fill="none" stroke="black" cx="783" cy="-145.248" rx="18" ry="18"/>
<text text-anchor="middle" x="783" y="-144.048" font-family="Times,serif" font-size="4.00">FURIN</text>
</g>
<!-- ACE2 (100 Kda) -->
<g id="node22" class="node"><title>ACE2 (100 Kda)</title>
<ellipse fill="none" stroke="black" cx="728" cy="-38.7141" rx="25.4118" ry="25.4118"/>
<text text-anchor="middle" x="728" y="-37.5141" font-family="Times,serif" font-size="4.00">ACE2 (100 Kda)</text>
</g>
<!-- FURIN&#45;&gt;ACE2 (100 Kda) -->
<g id="edge19" class="edge"><title>FURIN&#45;&gt;ACE2 (100 Kda)</title>
<path fill="none" stroke="black" d="M774.885,-128.824C766.873,-113.596 754.394,-89.8797 744.325,-70.7414"/>
<polygon fill="black" stroke="black" points="747.359,-68.9914 739.605,-61.7713 741.164,-72.2508 747.359,-68.9914"/>
</g>
<!-- ACE2 (15 Kda) -->
<g id="node30" class="node"><title>ACE2 (15 Kda)</title>
<ellipse fill="none" stroke="black" cx="660" cy="-38.7141" rx="24.2908" ry="24.2908"/>
<text text-anchor="middle" x="660" y="-37.5141" font-family="Times,serif" font-size="4.00">ACE2 (15 Kda)</text>
</g>
<!-- FURIN&#45;&gt;ACE2 (15 Kda) -->
<g id="edge18" class="edge"><title>FURIN&#45;&gt;ACE2 (15 Kda)</title>
<path fill="none" stroke="black" d="M772.566,-130.462C767.876,-124.791 762.041,-118.401 756,-113.428 731.399,-93.1772 718.744,-97.5037 694,-77.4282 689.828,-74.0436 685.716,-70.1334 681.872,-66.1396"/>
<polygon fill="black" stroke="black" points="684.193,-63.4919 674.863,-58.4725 679.027,-68.2149 684.193,-63.4919"/>
</g>
<!-- S2 -->
<g id="node33" class="node"><title>S2</title>
<ellipse fill="none" stroke="black" cx="843" cy="-38.7141" rx="18" ry="18"/>
<text text-anchor="middle" x="843" y="-37.5141" font-family="Times,serif" font-size="4.00">S2</text>
</g>
<!-- FURIN&#45;&gt;S2 -->
<g id="edge17" class="edge"><title>FURIN&#45;&gt;S2</title>
<path fill="none" stroke="black" d="M791.597,-129.271C801.443,-112.116 817.709,-83.7777 829.305,-63.5738"/>
<polygon fill="black" stroke="black" points="832.477,-65.0787 834.419,-54.6635 826.406,-61.5941 832.477,-65.0787"/>
</g>
<!-- S1 -->
<g id="node35" class="node"><title>S1</title>
<ellipse fill="none" stroke="black" cx="789" cy="-38.7141" rx="18" ry="18"/>
<text text-anchor="middle" x="789" y="-37.5141" font-family="Times,serif" font-size="4.00">S1</text>
</g>
<!-- FURIN&#45;&gt;S1 -->
<g id="edge16" class="edge"><title>FURIN&#45;&gt;S1</title>
<path fill="none" stroke="black" d="M783.991,-126.986C784.924,-110.72 786.339,-86.0817 787.427,-67.1274"/>
<polygon fill="black" stroke="black" points="790.929,-67.1856 788.008,-57.0014 783.94,-66.7844 790.929,-67.1856"/>
</g>
<!-- N (&#45;)sgmRNA&#45;&gt;N (+)sgmRNA -->
<g id="edge20" class="edge"><title>N (&#45;)sgmRNA&#45;&gt;N (+)sgmRNA</title>
<path fill="none" stroke="black" d="M119.433,-1095.04C112.233,-1081.63 102.58,-1063.65 94.5119,-1048.62"/>
<polygon fill="black" stroke="black" points="97.5433,-1046.87 89.7292,-1039.72 91.376,-1050.18 97.5433,-1046.87"/>
</g>
<!-- E -->
<g id="node11" class="node"><title>E</title>
<ellipse fill="none" stroke="black" cx="73" cy="-231.068" rx="18" ry="18"/>
<text text-anchor="middle" x="73" y="-229.868" font-family="Times,serif" font-size="4.00">E</text>
</g>
<!-- ACE2 -->
<g id="node12" class="node"><title>ACE2</title>
<ellipse fill="none" stroke="black" cx="660" cy="-231.068" rx="18" ry="18"/>
<text text-anchor="middle" x="660" y="-229.868" font-family="Times,serif" font-size="4.00">ACE2</text>
</g>
<!-- ACE2_SPIKE complex -->
<g id="node19" class="node"><title>ACE2_SPIKE complex</title>
<ellipse fill="none" stroke="black" cx="660" cy="-145.248" rx="31.6406" ry="31.6406"/>
<text text-anchor="middle" x="660" y="-144.048" font-family="Times,serif" font-size="4.00">ACE2_SPIKE complex</text>
</g>
<!-- ACE2&#45;&gt;ACE2_SPIKE complex -->
<g id="edge21" class="edge"><title>ACE2&#45;&gt;ACE2_SPIKE complex</title>
<path fill="none" stroke="black" d="M660,-212.7C660,-205.245 660,-196.189 660,-187.192"/>
<polygon fill="black" stroke="black" points="663.5,-187.149 660,-177.149 656.5,-187.149 663.5,-187.149"/>
</g>
<!-- SARS&#45;CoV&#45;2 polyprotein 1a -->
<g id="node13" class="node"><title>SARS&#45;CoV&#45;2 polyprotein 1a</title>
<ellipse fill="none" stroke="black" cx="403" cy="-1018.73" rx="37.2466" ry="37.2466"/>
<text text-anchor="middle" x="403" y="-1017.53" font-family="Times,serif" font-size="4.00">SARS&#45;CoV&#45;2 polyprotein 1a</text>
</g>
<!-- Nsp11 -->
<g id="node15" class="node"><title>Nsp11</title>
<ellipse fill="none" stroke="black" cx="422" cy="-896.819" rx="18" ry="18"/>
<text text-anchor="middle" x="422" y="-895.619" font-family="Times,serif" font-size="4.00">Nsp11</text>
</g>
<!-- SARS&#45;CoV&#45;2 polyprotein 1a&#45;&gt;Nsp11 -->
<g id="edge23" class="edge"><title>SARS&#45;CoV&#45;2 polyprotein 1a&#45;&gt;Nsp11</title>
<path fill="none" stroke="black" d="M408.701,-981.754C411.588,-963.532 415.036,-941.772 417.697,-924.974"/>
<polygon fill="black" stroke="black" points="421.211,-925.164 419.319,-914.739 414.297,-924.068 421.211,-925.164"/>
</g>
<!-- SARS&#45;CoV&#45;2 pp1a and pp1ab products -->
<g id="node20" class="node"><title>SARS&#45;CoV&#45;2 pp1a and pp1ab products</title>
<ellipse fill="none" stroke="black" cx="338" cy="-896.819" rx="47.9605" ry="47.9605"/>
<text text-anchor="middle" x="338" y="-895.619" font-family="Times,serif" font-size="4.00">SARS&#45;CoV&#45;2 pp1a and pp1ab products</text>
</g>
<!-- SARS&#45;CoV&#45;2 polyprotein 1a&#45;&gt;SARS&#45;CoV&#45;2 pp1a and pp1ab products -->
<g id="edge22" class="edge"><title>SARS&#45;CoV&#45;2 polyprotein 1a&#45;&gt;SARS&#45;CoV&#45;2 pp1a and pp1ab products</title>
<path fill="none" stroke="black" d="M385.581,-985.598C379.348,-974.098 372.163,-960.843 365.296,-948.176"/>
<polygon fill="black" stroke="black" points="368.213,-946.213 360.371,-939.089 362.059,-949.548 368.213,-946.213"/>
</g>
<!-- SARS&#45;CoV&#45;2 polyprotein 1ab -->
<g id="node14" class="node"><title>SARS&#45;CoV&#45;2 polyprotein 1ab</title>
<ellipse fill="none" stroke="black" cx="196" cy="-1018.73" rx="38.3684" ry="38.3684"/>
<text text-anchor="middle" x="196" y="-1017.53" font-family="Times,serif" font-size="4.00">SARS&#45;CoV&#45;2 polyprotein 1ab</text>
</g>
<!-- SARS&#45;CoV&#45;2 polyprotein 1ab&#45;&gt;SARS&#45;CoV&#45;2 pp1ab products -->
<g id="edge24" class="edge"><title>SARS&#45;CoV&#45;2 polyprotein 1ab&#45;&gt;SARS&#45;CoV&#45;2 pp1ab products</title>
<path fill="none" stroke="black" d="M196,-980.448C196,-969.175 196,-956.648 196,-944.826"/>
<polygon fill="black" stroke="black" points="199.5,-944.668 196,-934.668 192.5,-944.668 199.5,-944.668"/>
</g>
<!-- SARS&#45;CoV&#45;2 polyprotein 1ab&#45;&gt;SARS&#45;CoV&#45;2 pp1a and pp1ab products -->
<g id="edge25" class="edge"><title>SARS&#45;CoV&#45;2 polyprotein 1ab&#45;&gt;SARS&#45;CoV&#45;2 pp1a and pp1ab products</title>
<path fill="none" stroke="black" d="M224.736,-993.466C244.672,-976.631 271.597,-953.894 294.193,-934.812"/>
<polygon fill="black" stroke="black" points="296.605,-937.357 301.987,-928.231 292.088,-932.009 296.605,-937.357"/>
</g>
<!-- Nsp11&#45;&gt;Replication transcription complex -->
<g id="edge26" class="edge"><title>Nsp11&#45;&gt;Replication transcription complex</title>
<path fill="none" stroke="black" d="M415.251,-879.742C410.599,-870.037 403.692,-857.888 395,-849.089 371.192,-824.99 338.559,-805.457 311.576,-791.84"/>
<polygon fill="black" stroke="black" points="312.81,-788.546 302.292,-787.273 309.72,-794.828 312.81,-788.546"/>
</g>
<!-- SARS&#45;CoV&#45;2 accessory protein coding (&#45;)sgmRNAs&#45;&gt;SARS&#45;CoV&#45;2 accessory protein coding (+)sgmRNAs -->
<g id="edge27" class="edge"><title>SARS&#45;CoV&#45;2 accessory protein coding (&#45;)sgmRNAs&#45;&gt;SARS&#45;CoV&#45;2 accessory protein coding (+)sgmRNAs</title>
<path fill="none" stroke="black" d="M415.702,-583.753C395.584,-563.875 371.514,-540.09 350.473,-519.3"/>
<polygon fill="black" stroke="black" points="352.742,-516.621 343.168,-512.082 347.821,-521.6 352.742,-516.621"/>
</g>
<!-- SARS&#45;CoV&#45;2 structural protein coding (&#45;)sgmRNAs&#45;&gt;SARS&#45;CoV&#45;2 structural protein coding (+)sgmRNAs -->
<g id="edge28" class="edge"><title>SARS&#45;CoV&#45;2 structural protein coding (&#45;)sgmRNAs&#45;&gt;SARS&#45;CoV&#45;2 structural protein coding (+)sgmRNAs</title>
<path fill="none" stroke="black" d="M76.1498,-567.667C78.4921,-557.922 80.9397,-547.738 83.337,-537.765"/>
<polygon fill="black" stroke="black" points="86.7776,-538.426 85.7117,-527.885 79.9715,-536.79 86.7776,-538.426"/>
</g>
<!-- SARS&#45;CoV&#45;2 structural proteins -->
<g id="node34" class="node"><title>SARS&#45;CoV&#45;2 structural proteins</title>
<ellipse fill="none" stroke="black" cx="110" cy="-326.964" rx="41.2319" ry="41.2319"/>
<text text-anchor="middle" x="110" y="-325.764" font-family="Times,serif" font-size="4.00">SARS&#45;CoV&#45;2 structural proteins</text>
</g>
<!-- SARS&#45;CoV&#45;2 structural protein coding (+)sgmRNAs&#45;&gt;SARS&#45;CoV&#45;2 structural proteins -->
<g id="edge29" class="edge"><title>SARS&#45;CoV&#45;2 structural protein coding (+)sgmRNAs&#45;&gt;SARS&#45;CoV&#45;2 structural proteins</title>
<path fill="none" stroke="black" d="M104.415,-405.299C105.062,-396.342 105.722,-387.202 106.351,-378.489"/>
<polygon fill="black" stroke="black" points="109.844,-378.72 107.073,-368.494 102.862,-378.216 109.844,-378.72"/>
</g>
<!-- ACE2_SPIKE complex&#45;&gt;ACE2 (100 Kda) -->
<g id="edge34" class="edge"><title>ACE2_SPIKE complex&#45;&gt;ACE2 (100 Kda)</title>
<path fill="none" stroke="black" d="M676.984,-118.139C686.652,-103.277 698.793,-84.613 708.805,-69.2212"/>
<polygon fill="black" stroke="black" points="711.901,-70.8814 714.42,-60.5904 706.033,-67.0644 711.901,-70.8814"/>
</g>
<!-- ACE2_SPIKE complex&#45;&gt;ACE2 (15 Kda) -->
<g id="edge33" class="edge"><title>ACE2_SPIKE complex&#45;&gt;ACE2 (15 Kda)</title>
<path fill="none" stroke="black" d="M660,-113.167C660,-100.661 660,-86.2056 660,-73.4443"/>
<polygon fill="black" stroke="black" points="663.5,-73.203 660,-63.2031 656.5,-73.2031 663.5,-73.203"/>
</g>
<!-- Nucleoporin_gRNA complex  -->
<g id="node31" class="node"><title>Nucleoporin_gRNA complex </title>
<ellipse fill="none" stroke="black" cx="570" cy="-38.7141" rx="38.9294" ry="38.9294"/>
<text text-anchor="middle" x="570" y="-37.5141" font-family="Times,serif" font-size="4.00">Nucleoporin_gRNA complex </text>
</g>
<!-- ACE2_SPIKE complex&#45;&gt;Nucleoporin_gRNA complex  -->
<g id="edge32" class="edge"><title>ACE2_SPIKE complex&#45;&gt;Nucleoporin_gRNA complex </title>
<path fill="none" stroke="black" d="M639.578,-120.528C628.375,-107.516 614.242,-91.1001 601.644,-76.4678"/>
<polygon fill="black" stroke="black" points="604.008,-73.8498 594.831,-68.5552 598.703,-78.417 604.008,-73.8498"/>
</g>
<!-- ACE2_SPIKE complex&#45;&gt;S2 -->
<g id="edge30" class="edge"><title>ACE2_SPIKE complex&#45;&gt;S2</title>
<path fill="none" stroke="black" d="M683.605,-123.877C688.782,-120.046 694.398,-116.336 700,-113.428 747.913,-88.5628 772.229,-109.021 816,-77.4282 821.103,-73.7448 825.607,-68.7953 829.402,-63.6961"/>
<polygon fill="black" stroke="black" points="832.453,-65.4292 835.099,-55.1701 826.633,-61.5399 832.453,-65.4292"/>
</g>
<!-- ACE2_SPIKE complex&#45;&gt;S1 -->
<g id="edge31" class="edge"><title>ACE2_SPIKE complex&#45;&gt;S1</title>
<path fill="none" stroke="black" d="M684.595,-124.498C689.606,-120.703 694.905,-116.849 700,-113.428 726.454,-95.6665 738.422,-98.8611 762,-77.4282 766.581,-73.2643 770.845,-68.2003 774.57,-63.1522"/>
<polygon fill="black" stroke="black" points="777.508,-65.0566 780.29,-54.8335 771.74,-61.0904 777.508,-65.0566"/>
</g>
<!-- SARS&#45;CoV&#45;2 pp1a and pp1ab products&#45;&gt;Replication transcription complex -->
<g id="edge35" class="edge"><title>SARS&#45;CoV&#45;2 pp1a and pp1ab products&#45;&gt;Replication transcription complex</title>
<path fill="none" stroke="black" d="M313.744,-855.686C306.12,-843.072 297.643,-829.046 289.794,-816.059"/>
<polygon fill="black" stroke="black" points="292.646,-814.011 284.478,-807.263 286.655,-817.632 292.646,-814.011"/>
</g>
<!-- CTSL -->
<g id="node23" class="node"><title>CTSL</title>
<ellipse fill="none" stroke="black" cx="891" cy="-145.248" rx="18" ry="18"/>
<text text-anchor="middle" x="891" y="-144.048" font-family="Times,serif" font-size="4.00">CTSL</text>
</g>
<!-- CTSL&#45;&gt;S2 -->
<g id="edge36" class="edge"><title>CTSL&#45;&gt;S2</title>
<path fill="none" stroke="black" d="M883.71,-128.372C875.947,-111.466 863.554,-84.4766 854.479,-64.7126"/>
<polygon fill="black" stroke="black" points="857.555,-63.0246 850.201,-55.3974 851.194,-65.9457 857.555,-63.0246"/>
</g>
<!-- CTSL&#45;&gt;S1 -->
<g id="edge37" class="edge"><title>CTSL&#45;&gt;S1</title>
<path fill="none" stroke="black" d="M880.012,-130.492C875.321,-124.952 869.635,-118.651 864,-113.428 844.442,-95.3013 834.646,-96.4923 816,-77.4282 811.672,-73.0027 807.508,-67.8341 803.801,-62.7679"/>
<polygon fill="black" stroke="black" points="806.626,-60.7001 798.043,-54.4877 800.878,-64.6962 806.626,-60.7001"/>
</g>
<!--  SARS&#45;CoV&#45;2 (+)gRNA&#45;&gt; SARS&#45;CoV&#45;2 (&#45;)gRNA -->
<g id="edge39" class="edge"><title> SARS&#45;CoV&#45;2 (+)gRNA&#45;&gt; SARS&#45;CoV&#45;2 (&#45;)gRNA</title>
<path fill="none" stroke="black" d="M448.014,-1174.52C454.649,-1137.74 468,-1074.77 468,-1019.73 468,-1019.73 468,-1019.73 468,-895.819 468,-847.545 398.887,-726.74 365.366,-665.447"/>
<polygon fill="black" stroke="black" points="368.351,-663.609 360.499,-656.496 362.201,-666.953 368.351,-663.609"/>
</g>
<!--  SARS&#45;CoV&#45;2 (+)gRNA&#45;&gt;N (&#45;)sgmRNA -->
<g id="edge40" class="edge"><title> SARS&#45;CoV&#45;2 (+)gRNA&#45;&gt;N (&#45;)sgmRNA</title>
<path fill="none" stroke="black" d="M414.662,-1198.03C367.152,-1186.01 274.152,-1161.94 196,-1138.52 184.494,-1135.08 171.959,-1131.01 160.933,-1127.34"/>
<polygon fill="black" stroke="black" points="161.899,-1123.97 151.305,-1124.09 159.666,-1130.6 161.899,-1123.97"/>
</g>
<!--  SARS&#45;CoV&#45;2 (+)gRNA&#45;&gt;SARS&#45;CoV&#45;2 polyprotein 1a -->
<g id="edge43" class="edge"><title> SARS&#45;CoV&#45;2 (+)gRNA&#45;&gt;SARS&#45;CoV&#45;2 polyprotein 1a</title>
<path fill="none" stroke="black" d="M438.899,-1175.14C431.952,-1145.06 421.292,-1098.92 413.391,-1064.72"/>
<polygon fill="black" stroke="black" points="416.8,-1063.92 411.139,-1054.96 409.979,-1065.49 416.8,-1063.92"/>
</g>
<!--  SARS&#45;CoV&#45;2 (+)gRNA&#45;&gt;SARS&#45;CoV&#45;2 polyprotein 1ab -->
<g id="edge44" class="edge"><title> SARS&#45;CoV&#45;2 (+)gRNA&#45;&gt;SARS&#45;CoV&#45;2 polyprotein 1ab</title>
<path fill="none" stroke="black" d="M413.864,-1202.92C370.999,-1197.38 295.061,-1181.76 248,-1138.52 227.236,-1119.45 214.342,-1090.61 206.589,-1066.12"/>
<polygon fill="black" stroke="black" points="209.87,-1064.87 203.669,-1056.28 203.159,-1066.86 209.87,-1064.87"/>
</g>
<!--  SARS&#45;CoV&#45;2 (+)gRNA&#45;&gt;SARS&#45;CoV&#45;2 accessory protein coding (&#45;)sgmRNAs -->
<g id="edge41" class="edge"><title> SARS&#45;CoV&#45;2 (+)gRNA&#45;&gt;SARS&#45;CoV&#45;2 accessory protein coding (&#45;)sgmRNAs</title>
<path fill="none" stroke="black" d="M468.528,-1183.45C479.625,-1171.16 492.252,-1155.09 500,-1138.52 522.825,-1089.74 524,-1073.6 524,-1019.73 524,-1019.73 524,-1019.73 524,-895.819 524,-819.178 520.491,-798.905 500,-725.054 497.056,-714.444 493.214,-703.459 489.063,-692.869"/>
<polygon fill="black" stroke="black" points="492.177,-691.234 485.182,-683.277 485.689,-693.86 492.177,-691.234"/>
</g>
<!--  SARS&#45;CoV&#45;2 (+)gRNA&#45;&gt;SARS&#45;CoV&#45;2 structural protein coding (&#45;)sgmRNAs -->
<g id="edge42" class="edge"><title> SARS&#45;CoV&#45;2 (+)gRNA&#45;&gt;SARS&#45;CoV&#45;2 structural protein coding (&#45;)sgmRNAs</title>
<path fill="none" stroke="black" d="M414.185,-1200.98C333.474,-1188.38 125.213,-1154.69 98,-1138.52 39.1581,-1103.56 0,-1088.18 0,-1019.73 0,-1019.73 0,-1019.73 0,-895.819 0,-826.086 20.2734,-748.705 37.6343,-695.225"/>
<polygon fill="black" stroke="black" points="41.0254,-696.117 40.8365,-685.524 34.3782,-693.923 41.0254,-696.117"/>
</g>
<!--  SARS&#45;CoV&#45;2 (+)gRNA&#45;&gt;Nucleoporin_gRNA complex  -->
<g id="edge38" class="edge"><title> SARS&#45;CoV&#45;2 (+)gRNA&#45;&gt;Nucleoporin_gRNA complex </title>
<path fill="none" stroke="black" d="M472.845,-1188.09C489.383,-1175.89 509.865,-1158.37 523,-1138.52 553.671,-1092.19 562,-1075.3 562,-1019.73 562,-1019.73 562,-1019.73 562,-230.068 562,-181.693 564.611,-126.464 566.85,-88.0009"/>
<polygon fill="black" stroke="black" points="570.367,-87.807 567.469,-77.6164 563.38,-87.3904 570.367,-87.807"/>
</g>
<!-- N (+)sgmRNA&#45;&gt;N -->
<g id="edge45" class="edge"><title>N (+)sgmRNA&#45;&gt;N</title>
<path fill="none" stroke="black" d="M73.0239,-996.017C67.4693,-975.833 59.1836,-945.725 53.2525,-924.173"/>
<polygon fill="black" stroke="black" points="56.5802,-923.073 50.5522,-914.361 49.8311,-924.931 56.5802,-923.073"/>
</g>
<!-- N&#45;&gt;Replication transcription complex -->
<g id="edge46" class="edge"><title>N&#45;&gt;Replication transcription complex</title>
<path fill="none" stroke="black" d="M46.2664,-878.432C50.5389,-868.495 58.6288,-856.561 69,-849.089 116.254,-815.044 142.767,-838.853 195,-813.089 202.516,-809.382 210.061,-804.678 217.268,-799.751"/>
<polygon fill="black" stroke="black" points="219.395,-802.533 225.551,-793.91 215.361,-796.812 219.395,-802.533"/>
</g>
<!-- N&#45;&gt;Nucleoporin_gRNA complex  -->
<g id="edge47" class="edge"><title>N&#45;&gt;Nucleoporin_gRNA complex </title>
<path fill="none" stroke="black" d="M55.0078,-881.09C86.533,-829.297 190,-657.131 190,-628.536 190,-628.536 190,-628.536 190,-230.068 190,-83.6492 418.318,-49.8479 520.999,-42.05"/>
<polygon fill="black" stroke="black" points="521.391,-45.5312 531.119,-41.3351 520.897,-38.5486 521.391,-45.5312"/>
</g>
<!-- CTSB -->
<g id="node27" class="node"><title>CTSB</title>
<ellipse fill="none" stroke="black" cx="837" cy="-145.248" rx="18" ry="18"/>
<text text-anchor="middle" x="837" y="-144.048" font-family="Times,serif" font-size="4.00">CTSB</text>
</g>
<!-- CTSB&#45;&gt;S2 -->
<g id="edge48" class="edge"><title>CTSB&#45;&gt;S2</title>
<path fill="none" stroke="black" d="M837.991,-126.986C838.924,-110.72 840.339,-86.0817 841.427,-67.1274"/>
<polygon fill="black" stroke="black" points="844.929,-67.1856 842.008,-57.0014 837.94,-66.7844 844.929,-67.1856"/>
</g>
<!-- CTSB&#45;&gt;S1 -->
<g id="edge49" class="edge"><title>CTSB&#45;&gt;S1</title>
<path fill="none" stroke="black" d="M829.71,-128.372C821.947,-111.466 809.554,-84.4766 800.479,-64.7126"/>
<polygon fill="black" stroke="black" points="803.555,-63.0246 796.201,-55.3974 797.194,-65.9457 803.555,-63.0246"/>
</g>
<!-- Nucleocapsid&#45;&gt; SARS&#45;CoV&#45;2 (+)gRNA -->
<g id="edge50" class="edge"><title>Nucleocapsid&#45;&gt; SARS&#45;CoV&#45;2 (+)gRNA</title>
<path fill="none" stroke="black" d="M508.517,-1280.26C498.684,-1268.88 485.372,-1253.46 473.558,-1239.78"/>
<polygon fill="black" stroke="black" points="475.999,-1237.25 466.814,-1231.97 470.701,-1241.83 475.999,-1237.25"/>
</g>
<!-- Nucleocapsid&#45;&gt;N -->
<g id="edge51" class="edge"><title>Nucleocapsid&#45;&gt;N</title>
<path fill="none" stroke="black" d="M500.152,-1293.8C431.971,-1283.14 226.719,-1243.6 98,-1138.52 64.8671,-1111.48 58.9193,-1097.99 47,-1056.92 33.9983,-1012.11 37.7181,-957.17 41.7539,-924.974"/>
<polygon fill="black" stroke="black" points="45.2343,-925.355 43.111,-914.975 38.2978,-924.414 45.2343,-925.355"/>
</g>
<!-- TMPRSS2 -->
<g id="node29" class="node"><title>TMPRSS2</title>
<ellipse fill="none" stroke="black" cx="728" cy="-145.248" rx="18.6233" ry="18.6233"/>
<text text-anchor="middle" x="728" y="-144.048" font-family="Times,serif" font-size="4.00">TMPRSS2</text>
</g>
<!-- TMPRSS2&#45;&gt;ACE2 (100 Kda) -->
<g id="edge55" class="edge"><title>TMPRSS2&#45;&gt;ACE2 (100 Kda)</title>
<path fill="none" stroke="black" d="M728,-126.515C728,-112.333 728,-92.0112 728,-74.5955"/>
<polygon fill="black" stroke="black" points="731.5,-74.2082 728,-64.2082 724.5,-74.2082 731.5,-74.2082"/>
</g>
<!-- TMPRSS2&#45;&gt;ACE2 (15 Kda) -->
<g id="edge54" class="edge"><title>TMPRSS2&#45;&gt;ACE2 (15 Kda)</title>
<path fill="none" stroke="black" d="M718.257,-129.271C707.939,-113.409 691.401,-87.9864 678.578,-68.2731"/>
<polygon fill="black" stroke="black" points="681.37,-66.1463 672.983,-59.6723 675.502,-69.9633 681.37,-66.1463"/>
</g>
<!-- TMPRSS2&#45;&gt;S2 -->
<g id="edge53" class="edge"><title>TMPRSS2&#45;&gt;S2</title>
<path fill="none" stroke="black" d="M739.201,-130.22C744.036,-124.638 749.963,-118.379 756,-113.428 780.047,-93.7083 793.139,-98.5108 816,-77.4282 820.551,-73.2315 824.803,-68.1544 828.526,-63.1041"/>
<polygon fill="black" stroke="black" points="831.462,-65.0115 834.25,-54.7902 825.697,-61.0417 831.462,-65.0115"/>
</g>
<!-- TMPRSS2&#45;&gt;S1 -->
<g id="edge52" class="edge"><title>TMPRSS2&#45;&gt;S1</title>
<path fill="none" stroke="black" d="M737.001,-128.824C747.071,-111.566 763.505,-83.4044 775.201,-63.3612"/>
<polygon fill="black" stroke="black" points="778.34,-64.9259 780.357,-54.5249 772.294,-61.3978 778.34,-64.9259"/>
</g>
<!-- Nucleoporin_gRNA complex &#45;&gt;Nucleocapsid -->
<g id="edge56" class="edge"><title>Nucleoporin_gRNA complex &#45;&gt;Nucleocapsid</title>
<path fill="none" stroke="black" d="M579.328,-76.6471C588.134,-114.802 600,-176.205 600,-230.068 600,-1116.72 600,-1116.72 600,-1116.72 600,-1175.46 565.007,-1236.95 542.201,-1270.78"/>
<polygon fill="black" stroke="black" points="539.212,-1268.95 536.412,-1279.17 544.973,-1272.93 539.212,-1268.95"/>
</g>
<!-- S -->
<g id="node32" class="node"><title>S</title>
<ellipse fill="none" stroke="black" cx="242" cy="-231.068" rx="18" ry="18"/>
<text text-anchor="middle" x="242" y="-229.868" font-family="Times,serif" font-size="4.00">S</text>
</g>
<!-- S&#45;&gt;ACE2_SPIKE complex -->
<g id="edge57" class="edge"><title>S&#45;&gt;ACE2_SPIKE complex</title>
<path fill="none" stroke="black" d="M256.775,-220.357C261.48,-217.637 266.813,-214.92 272,-213.068 393.018,-169.844 545.547,-154.069 618.035,-148.738"/>
<polygon fill="black" stroke="black" points="618.408,-152.22 628.136,-148.025 617.915,-145.238 618.408,-152.22"/>
</g>
<!-- S2&#45;&gt;Nucleocapsid -->
<g id="edge58" class="edge"><title>S2&#45;&gt;Nucleocapsid</title>
<path fill="none" stroke="black" d="M857.567,-49.5281C875.004,-62.1279 903.645,-85.7044 918,-113.428 942.15,-160.07 937,-177.545 937,-230.068 937,-1116.72 937,-1116.72 937,-1116.72 937,-1282.58 654.236,-1297.45 556.084,-1297.61"/>
<polygon fill="black" stroke="black" points="555.861,-1294.11 545.848,-1297.57 555.836,-1301.11 555.861,-1294.11"/>
</g>
<!-- SARS&#45;CoV&#45;2 structural proteins&#45;&gt;M -->
<g id="edge60" class="edge"><title>SARS&#45;CoV&#45;2 structural proteins&#45;&gt;M</title>
<path fill="none" stroke="black" d="M117.21,-286.143C118.864,-277.006 120.585,-267.5 122.114,-259.053"/>
<polygon fill="black" stroke="black" points="125.592,-259.491 123.929,-249.027 118.704,-258.244 125.592,-259.491"/>
</g>
<!-- SARS&#45;CoV&#45;2 structural proteins&#45;&gt;E -->
<g id="edge59" class="edge"><title>SARS&#45;CoV&#45;2 structural proteins&#45;&gt;E</title>
<path fill="none" stroke="black" d="M95.1639,-288.314C91.1479,-278.122 86.892,-267.322 83.1947,-257.939"/>
<polygon fill="black" stroke="black" points="86.3621,-256.43 79.4396,-248.41 79.8495,-258.997 86.3621,-256.43"/>
</g>
<!-- SARS&#45;CoV&#45;2 structural proteins&#45;&gt;S -->
<g id="edge61" class="edge"><title>SARS&#45;CoV&#45;2 structural proteins&#45;&gt;S</title>
<path fill="none" stroke="black" d="M143.309,-302.27C167.1,-285.347 198.472,-263.03 219.395,-248.147"/>
<polygon fill="black" stroke="black" points="221.55,-250.91 227.67,-242.261 217.492,-245.206 221.55,-250.91"/>
</g>
</g>
</svg>
