<?xml version="1.0" encoding="UTF-8" standalone="no"?>
<!DOCTYPE svg PUBLIC "-//W3C//DTD SVG 1.1//EN"
 "http://www.w3.org/Graphics/SVG/1.1/DTD/svg11.dtd">
<!-- Generated by graphviz version 2.38.0 (20140413.2041)
 -->
<!-- Title: G Pages: 1 -->
<svg width="950pt" height="1528pt"
 viewBox="0.00 0.00 950.33 1528.05" xmlns="http://www.w3.org/2000/svg" xmlns:xlink="http://www.w3.org/1999/xlink">
<g id="graph0" class="graph" transform="scale(1 1) rotate(0) translate(4 1524.05)">
<title>G</title>
<polygon fill="white" stroke="none" points="-4,4 -4,-1524.05 946.326,-1524.05 946.326,4 -4,4"/>
<!-- Type I interferon signaling pathway -->
<g id="node1" class="node"><title>Type I interferon signaling pathway</title>
<ellipse fill="none" stroke="black" cx="697.326" cy="-1474.44" rx="45.717" ry="45.717"/>
<text text-anchor="middle" x="697.326" y="-1473.24" font-family="Times,serif" font-size="4.00">Type I interferon signaling pathway</text>
</g>
<!-- LY6E -->
<g id="node2" class="node"><title>LY6E</title>
<ellipse fill="none" stroke="black" cx="697.326" cy="-1374.83" rx="18" ry="18"/>
<text text-anchor="middle" x="697.326" y="-1373.63" font-family="Times,serif" font-size="4.00">LY6E</text>
</g>
<!-- Type I interferon signaling pathway&#45;&gt;LY6E -->
<g id="edge1" class="edge"><title>Type I interferon signaling pathway&#45;&gt;LY6E</title>
<path fill="none" stroke="black" d="M697.326,-1428.64C697.326,-1419.95 697.326,-1411.1 697.326,-1403.19"/>
<polygon fill="black" stroke="black" points="700.826,-1403.08 697.326,-1393.08 693.826,-1403.08 700.826,-1403.08"/>
</g>
<!-- Nucleocapsid -->
<g id="node5" class="node"><title>Nucleocapsid</title>
<ellipse fill="none" stroke="black" cx="697.326" cy="-1298.03" rx="22.6101" ry="22.6101"/>
<text text-anchor="middle" x="697.326" y="-1296.83" font-family="Times,serif" font-size="4.00">Nucleocapsid</text>
</g>
<!-- LY6E&#45;&gt;Nucleocapsid -->
<g id="edge2" class="edge"><title>LY6E&#45;&gt;Nucleocapsid</title>
<path fill="none" stroke="black" d="M697.326,-1356.48C697.326,-1348.85 697.326,-1339.64 697.326,-1330.85"/>
<polygon fill="black" stroke="black" points="700.826,-1330.84 697.326,-1320.84 693.826,-1330.84 700.826,-1330.84"/>
</g>
<!-- S2 -->
<g id="node3" class="node"><title>S2</title>
<ellipse fill="none" stroke="black" cx="96.326" cy="-38.7141" rx="18" ry="18"/>
<text text-anchor="middle" x="96.326" y="-37.5141" font-family="Times,serif" font-size="4.00">S2</text>
</g>
<!-- S2&#45;&gt;Nucleocapsid -->
<g id="edge3" class="edge"><title>S2&#45;&gt;Nucleocapsid</title>
<path fill="none" stroke="black" d="M81.5645,-49.4816C63.8943,-62.0345 34.8705,-85.5637 20.326,-113.428 -3.97797,-159.99 1.32599,-177.545 1.32599,-230.068 1.32599,-1116.72 1.32599,-1116.72 1.32599,-1116.72 1.32599,-1255.42 525.821,-1289.19 664.19,-1295.68"/>
<polygon fill="black" stroke="black" points="664.417,-1299.2 674.565,-1296.15 664.733,-1292.21 664.417,-1299.2"/>
</g>
<!-- SARS&#45;CoV&#45;2 accessory protein coding (+)sgmRNAs -->
<g id="node4" class="node"><title>SARS&#45;CoV&#45;2 accessory protein coding (+)sgmRNAs</title>
<ellipse fill="none" stroke="black" cx="708.326" cy="-467.439" rx="62.658" ry="62.658"/>
<text text-anchor="middle" x="708.326" y="-466.239" font-family="Times,serif" font-size="4.00">SARS&#45;CoV&#45;2 accessory protein coding (+)sgmRNAs</text>
</g>
<!-- SARS&#45;CoV&#45;2 accessory proteins -->
<g id="node10" class="node"><title>SARS&#45;CoV&#45;2 accessory proteins</title>
<ellipse fill="none" stroke="black" cx="708.326" cy="-326.964" rx="41.7924" ry="41.7924"/>
<text text-anchor="middle" x="708.326" y="-325.764" font-family="Times,serif" font-size="4.00">SARS&#45;CoV&#45;2 accessory proteins</text>
</g>
<!-- SARS&#45;CoV&#45;2 accessory protein coding (+)sgmRNAs&#45;&gt;SARS&#45;CoV&#45;2 accessory proteins -->
<g id="edge4" class="edge"><title>SARS&#45;CoV&#45;2 accessory protein coding (+)sgmRNAs&#45;&gt;SARS&#45;CoV&#45;2 accessory proteins</title>
<path fill="none" stroke="black" d="M708.326,-404.492C708.326,-396.087 708.326,-387.537 708.326,-379.345"/>
<polygon fill="black" stroke="black" points="711.826,-379.197 708.326,-369.197 704.826,-379.198 711.826,-379.197"/>
</g>
<!--  SARS&#45;CoV&#45;2 (+)gRNA -->
<g id="node23" class="node"><title> SARS&#45;CoV&#45;2 (+)gRNA</title>
<ellipse fill="none" stroke="black" cx="491.326" cy="-1206.87" rx="32.201" ry="32.201"/>
<text text-anchor="middle" x="491.326" y="-1205.67" font-family="Times,serif" font-size="4.00"> SARS&#45;CoV&#45;2 (+)gRNA</text>
</g>
<!-- Nucleocapsid&#45;&gt; SARS&#45;CoV&#45;2 (+)gRNA -->
<g id="edge6" class="edge"><title>Nucleocapsid&#45;&gt; SARS&#45;CoV&#45;2 (+)gRNA</title>
<path fill="none" stroke="black" d="M676.44,-1287.99C642.206,-1273.17 573.628,-1243.49 530.235,-1224.71"/>
<polygon fill="black" stroke="black" points="531.415,-1221.41 520.848,-1220.65 528.635,-1227.84 531.415,-1221.41"/>
</g>
<!-- N -->
<g id="node30" class="node"><title>N</title>
<ellipse fill="none" stroke="black" cx="848.326" cy="-896.819" rx="18" ry="18"/>
<text text-anchor="middle" x="848.326" y="-895.619" font-family="Times,serif" font-size="4.00">N</text>
</g>
<!-- Nucleocapsid&#45;&gt;N -->
<g id="edge5" class="edge"><title>Nucleocapsid&#45;&gt;N</title>
<path fill="none" stroke="black" d="M712.271,-1280.59C744.551,-1243.84 820.075,-1150.86 847.326,-1056.92 860.324,-1012.11 856.605,-957.17 852.571,-924.974"/>
<polygon fill="black" stroke="black" points="856.027,-924.414 851.214,-914.975 849.09,-925.355 856.027,-924.414"/>
</g>
<!-- N (&#45;)sgmRNA -->
<g id="node6" class="node"><title>N (&#45;)sgmRNA</title>
<ellipse fill="none" stroke="black" cx="764.326" cy="-1115.72" rx="22.6101" ry="22.6101"/>
<text text-anchor="middle" x="764.326" y="-1114.52" font-family="Times,serif" font-size="4.00">N (&#45;)sgmRNA</text>
</g>
<!-- N (+)sgmRNA -->
<g id="node27" class="node"><title>N (+)sgmRNA</title>
<ellipse fill="none" stroke="black" cx="815.326" cy="-1018.73" rx="23.1702" ry="23.1702"/>
<text text-anchor="middle" x="815.326" y="-1017.53" font-family="Times,serif" font-size="4.00">N (+)sgmRNA</text>
</g>
<!-- N (&#45;)sgmRNA&#45;&gt;N (+)sgmRNA -->
<g id="edge7" class="edge"><title>N (&#45;)sgmRNA&#45;&gt;N (+)sgmRNA</title>
<path fill="none" stroke="black" d="M774.893,-1095.04C782.093,-1081.63 791.746,-1063.65 799.814,-1048.62"/>
<polygon fill="black" stroke="black" points="802.95,-1050.18 804.597,-1039.72 796.783,-1046.87 802.95,-1050.18"/>
</g>
<!-- SARS&#45;CoV&#45;2 polyprotein 1a -->
<g id="node7" class="node"><title>SARS&#45;CoV&#45;2 polyprotein 1a</title>
<ellipse fill="none" stroke="black" cx="530.326" cy="-1018.73" rx="37.2466" ry="37.2466"/>
<text text-anchor="middle" x="530.326" y="-1017.53" font-family="Times,serif" font-size="4.00">SARS&#45;CoV&#45;2 polyprotein 1a</text>
</g>
<!-- SARS&#45;CoV&#45;2 pp1a and pp1ab products -->
<g id="node17" class="node"><title>SARS&#45;CoV&#45;2 pp1a and pp1ab products</title>
<ellipse fill="none" stroke="black" cx="595.326" cy="-896.819" rx="47.9605" ry="47.9605"/>
<text text-anchor="middle" x="595.326" y="-895.619" font-family="Times,serif" font-size="4.00">SARS&#45;CoV&#45;2 pp1a and pp1ab products</text>
</g>
<!-- SARS&#45;CoV&#45;2 polyprotein 1a&#45;&gt;SARS&#45;CoV&#45;2 pp1a and pp1ab products -->
<g id="edge8" class="edge"><title>SARS&#45;CoV&#45;2 polyprotein 1a&#45;&gt;SARS&#45;CoV&#45;2 pp1a and pp1ab products</title>
<path fill="none" stroke="black" d="M547.745,-985.598C553.978,-974.098 561.163,-960.843 568.03,-948.176"/>
<polygon fill="black" stroke="black" points="571.267,-949.548 572.955,-939.089 565.113,-946.213 571.267,-949.548"/>
</g>
<!-- Nsp11 -->
<g id="node34" class="node"><title>Nsp11</title>
<ellipse fill="none" stroke="black" cx="511.326" cy="-896.819" rx="18" ry="18"/>
<text text-anchor="middle" x="511.326" y="-895.619" font-family="Times,serif" font-size="4.00">Nsp11</text>
</g>
<!-- SARS&#45;CoV&#45;2 polyprotein 1a&#45;&gt;Nsp11 -->
<g id="edge9" class="edge"><title>SARS&#45;CoV&#45;2 polyprotein 1a&#45;&gt;Nsp11</title>
<path fill="none" stroke="black" d="M524.625,-981.754C521.738,-963.532 518.29,-941.772 515.629,-924.974"/>
<polygon fill="black" stroke="black" points="519.029,-924.068 514.007,-914.739 512.115,-925.164 519.029,-924.068"/>
</g>
<!-- Replication transcription complex -->
<g id="node8" class="node"><title>Replication transcription complex</title>
<ellipse fill="none" stroke="black" cx="654.326" cy="-769.072" rx="44.0348" ry="44.0348"/>
<text text-anchor="middle" x="654.326" y="-767.872" font-family="Times,serif" font-size="4.00">Replication transcription complex</text>
</g>
<!-- Replication transcription complex&#45;&gt;SARS&#45;CoV&#45;2 accessory protein coding (+)sgmRNAs -->
<g id="edge10" class="edge"><title>Replication transcription complex&#45;&gt;SARS&#45;CoV&#45;2 accessory protein coding (+)sgmRNAs</title>
<path fill="none" stroke="black" d="M655.259,-725.016C656.882,-683.775 661.304,-620.012 673.326,-566.018 675.564,-555.967 678.55,-545.534 681.837,-535.393"/>
<polygon fill="black" stroke="black" points="685.2,-536.375 685.067,-525.781 678.564,-534.145 685.2,-536.375"/>
</g>
<!-- Replication transcription complex&#45;&gt;N (&#45;)sgmRNA -->
<g id="edge12" class="edge"><title>Replication transcription complex&#45;&gt;N (&#45;)sgmRNA</title>
<path fill="none" stroke="black" d="M691.772,-792.264C711.309,-805.998 733.537,-825.508 745.326,-849.089 783.719,-925.887 776.409,-1031.05 769.499,-1083.01"/>
<polygon fill="black" stroke="black" points="766.026,-1082.57 768.092,-1092.96 772.957,-1083.55 766.026,-1082.57"/>
</g>
<!-- SARS&#45;CoV&#45;2 structural protein coding (+)sgmRNAs -->
<g id="node11" class="node"><title>SARS&#45;CoV&#45;2 structural protein coding (+)sgmRNAs</title>
<ellipse fill="none" stroke="black" cx="423.326" cy="-467.439" rx="62.0973" ry="62.0973"/>
<text text-anchor="middle" x="423.326" y="-466.239" font-family="Times,serif" font-size="4.00">SARS&#45;CoV&#45;2 structural protein coding (+)sgmRNAs</text>
</g>
<!-- Replication transcription complex&#45;&gt;SARS&#45;CoV&#45;2 structural protein coding (+)sgmRNAs -->
<g id="edge15" class="edge"><title>Replication transcription complex&#45;&gt;SARS&#45;CoV&#45;2 structural protein coding (+)sgmRNAs</title>
<path fill="none" stroke="black" d="M645.668,-725.869C634.964,-682.055 613.211,-613.417 574.326,-566.018 551.362,-538.025 518.205,-515.366 488.808,-498.954"/>
<polygon fill="black" stroke="black" points="490.278,-495.769 479.821,-494.062 486.931,-501.917 490.278,-495.769"/>
</g>
<!-- SARS&#45;CoV&#45;2 structural protein coding (&#45;)sgmRNAs -->
<g id="node14" class="node"><title>SARS&#45;CoV&#45;2 structural protein coding (&#45;)sgmRNAs</title>
<ellipse fill="none" stroke="black" cx="423.326" cy="-627.536" rx="61.5366" ry="61.5366"/>
<text text-anchor="middle" x="423.326" y="-626.336" font-family="Times,serif" font-size="4.00">SARS&#45;CoV&#45;2 structural protein coding (&#45;)sgmRNAs</text>
</g>
<!-- Replication transcription complex&#45;&gt;SARS&#45;CoV&#45;2 structural protein coding (&#45;)sgmRNAs -->
<g id="edge14" class="edge"><title>Replication transcription complex&#45;&gt;SARS&#45;CoV&#45;2 structural protein coding (&#45;)sgmRNAs</title>
<path fill="none" stroke="black" d="M613.707,-751.358C580.435,-736.892 532.75,-714.355 494.326,-689.054 488.281,-685.074 482.183,-680.639 476.234,-676.03"/>
<polygon fill="black" stroke="black" points="478.239,-673.152 468.235,-669.663 473.879,-678.629 478.239,-673.152"/>
</g>
<!-- Replication transcription complex&#45;&gt; SARS&#45;CoV&#45;2 (+)gRNA -->
<g id="edge16" class="edge"><title>Replication transcription complex&#45;&gt; SARS&#45;CoV&#45;2 (+)gRNA</title>
<path fill="none" stroke="black" d="M610.82,-776.886C570.257,-785.798 511.982,-805.736 484.326,-849.089 421.127,-948.156 455.42,-1096.28 477.432,-1166.38"/>
<polygon fill="black" stroke="black" points="474.179,-1167.7 480.578,-1176.15 480.842,-1165.55 474.179,-1167.7"/>
</g>
<!--  SARS&#45;CoV&#45;2 (&#45;)gRNA -->
<g id="node25" class="node"><title> SARS&#45;CoV&#45;2 (&#45;)gRNA</title>
<ellipse fill="none" stroke="black" cx="534.326" cy="-627.536" rx="31.0804" ry="31.0804"/>
<text text-anchor="middle" x="534.326" y="-626.336" font-family="Times,serif" font-size="4.00"> SARS&#45;CoV&#45;2 (&#45;)gRNA</text>
</g>
<!-- Replication transcription complex&#45;&gt; SARS&#45;CoV&#45;2 (&#45;)gRNA -->
<g id="edge13" class="edge"><title>Replication transcription complex&#45;&gt; SARS&#45;CoV&#45;2 (&#45;)gRNA</title>
<path fill="none" stroke="black" d="M625.888,-735.004C606.258,-712.179 580.329,-682.028 561.075,-659.64"/>
<polygon fill="black" stroke="black" points="563.482,-657.071 554.308,-651.771 558.175,-661.635 563.482,-657.071"/>
</g>
<!-- SARS&#45;CoV&#45;2 accessory protein coding (&#45;)sgmRNAs -->
<g id="node26" class="node"><title>SARS&#45;CoV&#45;2 accessory protein coding (&#45;)sgmRNAs</title>
<ellipse fill="none" stroke="black" cx="744.326" cy="-627.536" rx="61.5366" ry="61.5366"/>
<text text-anchor="middle" x="744.326" y="-626.336" font-family="Times,serif" font-size="4.00">SARS&#45;CoV&#45;2 accessory protein coding (&#45;)sgmRNAs</text>
</g>
<!-- Replication transcription complex&#45;&gt;SARS&#45;CoV&#45;2 accessory protein coding (&#45;)sgmRNAs -->
<g id="edge11" class="edge"><title>Replication transcription complex&#45;&gt;SARS&#45;CoV&#45;2 accessory protein coding (&#45;)sgmRNAs</title>
<path fill="none" stroke="black" d="M677.737,-731.775C686.315,-718.477 696.263,-703.053 705.813,-688.246"/>
<polygon fill="black" stroke="black" points="708.898,-689.921 711.377,-679.621 703.015,-686.127 708.898,-689.921"/>
</g>
<!-- Replication transcription complex&#45;&gt;N (+)sgmRNA -->
<g id="edge17" class="edge"><title>Replication transcription complex&#45;&gt;N (+)sgmRNA</title>
<path fill="none" stroke="black" d="M695.027,-785.994C722.695,-798.906 757.861,-819.791 778.326,-849.089 806.915,-890.019 813.965,-949.077 815.402,-985.348"/>
<polygon fill="black" stroke="black" points="811.904,-985.484 815.678,-995.384 818.901,-985.291 811.904,-985.484"/>
</g>
<!-- Replication transcription complex&#45;&gt;N -->
<g id="edge18" class="edge"><title>Replication transcription complex&#45;&gt;N</title>
<path fill="none" stroke="black" d="M696.746,-781.389C733.955,-793.829 787.543,-816.477 825.326,-849.089 832.025,-854.872 837.969,-862.364 842.47,-869.649"/>
<polygon fill="black" stroke="black" points="839.496,-871.507 847.347,-878.622 845.646,-868.164 839.496,-871.507"/>
</g>
<!-- M -->
<g id="node9" class="node"><title>M</title>
<ellipse fill="none" stroke="black" cx="461.326" cy="-231.068" rx="18" ry="18"/>
<text text-anchor="middle" x="461.326" y="-229.868" font-family="Times,serif" font-size="4.00">M</text>
</g>
<!-- Orf7a -->
<g id="node13" class="node"><title>Orf7a</title>
<ellipse fill="none" stroke="black" cx="708.326" cy="-231.068" rx="18" ry="18"/>
<text text-anchor="middle" x="708.326" y="-229.868" font-family="Times,serif" font-size="4.00">Orf7a</text>
</g>
<!-- SARS&#45;CoV&#45;2 accessory proteins&#45;&gt;Orf7a -->
<g id="edge19" class="edge"><title>SARS&#45;CoV&#45;2 accessory proteins&#45;&gt;Orf7a</title>
<path fill="none" stroke="black" d="M708.326,-285.053C708.326,-276.355 708.326,-267.376 708.326,-259.337"/>
<polygon fill="black" stroke="black" points="711.826,-259.072 708.326,-249.072 704.826,-259.072 711.826,-259.072"/>
</g>
<!-- SARS&#45;CoV&#45;2 structural proteins -->
<g id="node24" class="node"><title>SARS&#45;CoV&#45;2 structural proteins</title>
<ellipse fill="none" stroke="black" cx="413.326" cy="-326.964" rx="41.2319" ry="41.2319"/>
<text text-anchor="middle" x="413.326" y="-325.764" font-family="Times,serif" font-size="4.00">SARS&#45;CoV&#45;2 structural proteins</text>
</g>
<!-- SARS&#45;CoV&#45;2 structural protein coding (+)sgmRNAs&#45;&gt;SARS&#45;CoV&#45;2 structural proteins -->
<g id="edge20" class="edge"><title>SARS&#45;CoV&#45;2 structural protein coding (+)sgmRNAs&#45;&gt;SARS&#45;CoV&#45;2 structural proteins</title>
<path fill="none" stroke="black" d="M418.911,-405.299C418.264,-396.342 417.604,-387.202 416.975,-378.489"/>
<polygon fill="black" stroke="black" points="420.464,-378.216 416.253,-368.494 413.482,-378.72 420.464,-378.216"/>
</g>
<!-- SARS&#45;CoV&#45;2 pp1ab products -->
<g id="node12" class="node"><title>SARS&#45;CoV&#45;2 pp1ab products</title>
<ellipse fill="none" stroke="black" cx="698.326" cy="-896.819" rx="37.8075" ry="37.8075"/>
<text text-anchor="middle" x="698.326" y="-895.619" font-family="Times,serif" font-size="4.00">SARS&#45;CoV&#45;2 pp1ab products</text>
</g>
<!-- SARS&#45;CoV&#45;2 pp1ab products&#45;&gt;Replication transcription complex -->
<g id="edge21" class="edge"><title>SARS&#45;CoV&#45;2 pp1ab products&#45;&gt;Replication transcription complex</title>
<path fill="none" stroke="black" d="M686.186,-861.125C681.806,-848.607 676.768,-834.209 672.01,-820.612"/>
<polygon fill="black" stroke="black" points="675.216,-819.174 668.609,-810.892 668.608,-821.486 675.216,-819.174"/>
</g>
<!-- SARS&#45;CoV&#45;2 structural protein coding (&#45;)sgmRNAs&#45;&gt;SARS&#45;CoV&#45;2 structural protein coding (+)sgmRNAs -->
<g id="edge22" class="edge"><title>SARS&#45;CoV&#45;2 structural protein coding (&#45;)sgmRNAs&#45;&gt;SARS&#45;CoV&#45;2 structural protein coding (+)sgmRNAs</title>
<path fill="none" stroke="black" d="M423.326,-565.864C423.326,-557.352 423.326,-548.539 423.326,-539.85"/>
<polygon fill="black" stroke="black" points="426.826,-539.733 423.326,-529.733 419.826,-539.733 426.826,-539.733"/>
</g>
<!-- TMPRSS2 -->
<g id="node15" class="node"><title>TMPRSS2</title>
<ellipse fill="none" stroke="black" cx="156.326" cy="-145.248" rx="18.6233" ry="18.6233"/>
<text text-anchor="middle" x="156.326" y="-144.048" font-family="Times,serif" font-size="4.00">TMPRSS2</text>
</g>
<!-- TMPRSS2&#45;&gt;S2 -->
<g id="edge23" class="edge"><title>TMPRSS2&#45;&gt;S2</title>
<path fill="none" stroke="black" d="M147.473,-128.824C137.623,-111.664 121.587,-83.7241 110.095,-63.7037"/>
<polygon fill="black" stroke="black" points="113.034,-61.7924 105.02,-54.8619 106.963,-65.2771 113.034,-61.7924"/>
</g>
<!-- ACE2 (15 Kda) -->
<g id="node21" class="node"><title>ACE2 (15 Kda)</title>
<ellipse fill="none" stroke="black" cx="279.326" cy="-38.7141" rx="24.2908" ry="24.2908"/>
<text text-anchor="middle" x="279.326" y="-37.5141" font-family="Times,serif" font-size="4.00">ACE2 (15 Kda)</text>
</g>
<!-- TMPRSS2&#45;&gt;ACE2 (15 Kda) -->
<g id="edge25" class="edge"><title>TMPRSS2&#45;&gt;ACE2 (15 Kda)</title>
<path fill="none" stroke="black" d="M167.509,-130.198C172.342,-124.612 178.271,-118.357 184.326,-113.428 208.74,-93.5546 220.95,-97.3486 245.326,-77.4282 249.486,-74.0289 253.591,-70.1109 257.433,-66.1139"/>
<polygon fill="black" stroke="black" points="260.279,-68.1885 264.441,-58.4455 255.112,-63.4664 260.279,-68.1885"/>
</g>
<!-- ACE2 (100 Kda) -->
<g id="node29" class="node"><title>ACE2 (100 Kda)</title>
<ellipse fill="none" stroke="black" cx="211.326" cy="-38.7141" rx="25.4118" ry="25.4118"/>
<text text-anchor="middle" x="211.326" y="-37.5141" font-family="Times,serif" font-size="4.00">ACE2 (100 Kda)</text>
</g>
<!-- TMPRSS2&#45;&gt;ACE2 (100 Kda) -->
<g id="edge26" class="edge"><title>TMPRSS2&#45;&gt;ACE2 (100 Kda)</title>
<path fill="none" stroke="black" d="M164.679,-128.372C172.737,-113.058 185.148,-89.4692 195.143,-70.4725"/>
<polygon fill="black" stroke="black" points="198.267,-72.0517 199.825,-61.5721 192.072,-68.7922 198.267,-72.0517"/>
</g>
<!-- S1 -->
<g id="node31" class="node"><title>S1</title>
<ellipse fill="none" stroke="black" cx="150.326" cy="-38.7141" rx="18" ry="18"/>
<text text-anchor="middle" x="150.326" y="-37.5141" font-family="Times,serif" font-size="4.00">S1</text>
</g>
<!-- TMPRSS2&#45;&gt;S1 -->
<g id="edge24" class="edge"><title>TMPRSS2&#45;&gt;S1</title>
<path fill="none" stroke="black" d="M155.308,-126.515C154.37,-110.176 152.965,-85.6859 151.885,-66.8807"/>
<polygon fill="black" stroke="black" points="155.376,-66.6216 151.309,-56.8386 148.388,-67.0228 155.376,-66.6216"/>
</g>
<!-- CTSB -->
<g id="node16" class="node"><title>CTSB</title>
<ellipse fill="none" stroke="black" cx="47.326" cy="-145.248" rx="18" ry="18"/>
<text text-anchor="middle" x="47.326" y="-144.048" font-family="Times,serif" font-size="4.00">CTSB</text>
</g>
<!-- CTSB&#45;&gt;S2 -->
<g id="edge27" class="edge"><title>CTSB&#45;&gt;S2</title>
<path fill="none" stroke="black" d="M54.768,-128.372C62.6925,-111.466 75.3437,-84.4766 84.608,-64.7126"/>
<polygon fill="black" stroke="black" points="87.8992,-65.9376 88.9745,-55.3974 81.561,-62.9665 87.8992,-65.9376"/>
</g>
<!-- CTSB&#45;&gt;S1 -->
<g id="edge28" class="edge"><title>CTSB&#45;&gt;S1</title>
<path fill="none" stroke="black" d="M58.0294,-130.771C62.765,-125.153 68.5608,-118.719 74.326,-113.428 94.2364,-95.1567 104.335,-96.6539 123.326,-77.4282 127.676,-73.0241 131.849,-67.8641 135.557,-62.7994"/>
<polygon fill="black" stroke="black" points="138.481,-64.7257 141.312,-54.516 132.732,-60.7321 138.481,-64.7257"/>
</g>
<!-- SARS&#45;CoV&#45;2 pp1a and pp1ab products&#45;&gt;Replication transcription complex -->
<g id="edge29" class="edge"><title>SARS&#45;CoV&#45;2 pp1a and pp1ab products&#45;&gt;Replication transcription complex</title>
<path fill="none" stroke="black" d="M615.301,-853.247C620.576,-842.003 626.307,-829.788 631.712,-818.269"/>
<polygon fill="black" stroke="black" points="634.882,-819.752 635.961,-809.213 628.545,-816.779 634.882,-819.752"/>
</g>
<!-- E -->
<g id="node18" class="node"><title>E</title>
<ellipse fill="none" stroke="black" cx="407.326" cy="-231.068" rx="18" ry="18"/>
<text text-anchor="middle" x="407.326" y="-229.868" font-family="Times,serif" font-size="4.00">E</text>
</g>
<!-- Nucleoporin_gRNA complex  -->
<g id="node19" class="node"><title>Nucleoporin_gRNA complex </title>
<ellipse fill="none" stroke="black" cx="601.326" cy="-38.7141" rx="38.9294" ry="38.9294"/>
<text text-anchor="middle" x="601.326" y="-37.5141" font-family="Times,serif" font-size="4.00">Nucleoporin_gRNA complex </text>
</g>
<!-- Nucleoporin_gRNA complex &#45;&gt;Nucleocapsid -->
<g id="edge30" class="edge"><title>Nucleoporin_gRNA complex &#45;&gt;Nucleocapsid</title>
<path fill="none" stroke="black" d="M640.111,-43.2296C729.487,-53.6737 942.326,-92.9408 942.326,-230.068 942.326,-1116.72 942.326,-1116.72 942.326,-1116.72 942.326,-1221.24 795.896,-1271.92 729.444,-1289.54"/>
<polygon fill="black" stroke="black" points="728.319,-1286.21 719.5,-1292.08 730.056,-1292.99 728.319,-1286.21"/>
</g>
<!-- ACE2 -->
<g id="node20" class="node"><title>ACE2</title>
<ellipse fill="none" stroke="black" cx="293.326" cy="-231.068" rx="18" ry="18"/>
<text text-anchor="middle" x="293.326" y="-229.868" font-family="Times,serif" font-size="4.00">ACE2</text>
</g>
<!-- ACE2_SPIKE complex -->
<g id="node28" class="node"><title>ACE2_SPIKE complex</title>
<ellipse fill="none" stroke="black" cx="279.326" cy="-145.248" rx="31.6406" ry="31.6406"/>
<text text-anchor="middle" x="279.326" y="-144.048" font-family="Times,serif" font-size="4.00">ACE2_SPIKE complex</text>
</g>
<!-- ACE2&#45;&gt;ACE2_SPIKE complex -->
<g id="edge31" class="edge"><title>ACE2&#45;&gt;ACE2_SPIKE complex</title>
<path fill="none" stroke="black" d="M290.493,-213.106C289.214,-205.447 287.643,-196.041 286.087,-186.73"/>
<polygon fill="black" stroke="black" points="289.52,-186.036 284.421,-176.75 282.616,-187.19 289.52,-186.036"/>
</g>
<!-- FURIN -->
<g id="node22" class="node"><title>FURIN</title>
<ellipse fill="none" stroke="black" cx="211.326" cy="-145.248" rx="18" ry="18"/>
<text text-anchor="middle" x="211.326" y="-144.048" font-family="Times,serif" font-size="4.00">FURIN</text>
</g>
<!-- FURIN&#45;&gt;S2 -->
<g id="edge32" class="edge"><title>FURIN&#45;&gt;S2</title>
<path fill="none" stroke="black" d="M200.875,-130.482C196.182,-124.815 190.35,-118.423 184.326,-113.428 160.092,-93.3349 146.545,-98.6855 123.326,-77.4282 118.76,-73.2481 114.502,-68.1776 110.778,-63.1284"/>
<polygon fill="black" stroke="black" points="113.607,-61.0663 105.055,-54.8121 107.841,-65.0343 113.607,-61.0663"/>
</g>
<!-- FURIN&#45;&gt;ACE2 (15 Kda) -->
<g id="edge34" class="edge"><title>FURIN&#45;&gt;ACE2 (15 Kda)</title>
<path fill="none" stroke="black" d="M220.781,-129.713C231.144,-113.782 248.022,-87.8369 260.999,-67.8869"/>
<polygon fill="black" stroke="black" points="263.952,-69.767 266.471,-59.476 258.084,-65.9499 263.952,-69.767"/>
</g>
<!-- FURIN&#45;&gt;ACE2 (100 Kda) -->
<g id="edge35" class="edge"><title>FURIN&#45;&gt;ACE2 (100 Kda)</title>
<path fill="none" stroke="black" d="M211.326,-126.986C211.326,-112.868 211.326,-92.4423 211.326,-74.9007"/>
<polygon fill="black" stroke="black" points="214.826,-74.4333 211.326,-64.4334 207.826,-74.4334 214.826,-74.4333"/>
</g>
<!-- FURIN&#45;&gt;S1 -->
<g id="edge33" class="edge"><title>FURIN&#45;&gt;S1</title>
<path fill="none" stroke="black" d="M202.586,-129.271C192.575,-112.116 176.039,-83.7777 164.249,-63.5738"/>
<polygon fill="black" stroke="black" points="167.113,-61.5364 159.05,-54.6635 161.067,-65.0645 167.113,-61.5364"/>
</g>
<!--  SARS&#45;CoV&#45;2 (+)gRNA&#45;&gt;N (&#45;)sgmRNA -->
<g id="edge39" class="edge"><title> SARS&#45;CoV&#45;2 (+)gRNA&#45;&gt;N (&#45;)sgmRNA</title>
<path fill="none" stroke="black" d="M521.848,-1195.91C574.155,-1178.83 680.375,-1144.14 733.137,-1126.91"/>
<polygon fill="black" stroke="black" points="734.525,-1130.13 742.945,-1123.7 732.352,-1123.48 734.525,-1130.13"/>
</g>
<!--  SARS&#45;CoV&#45;2 (+)gRNA&#45;&gt;SARS&#45;CoV&#45;2 polyprotein 1a -->
<g id="edge42" class="edge"><title> SARS&#45;CoV&#45;2 (+)gRNA&#45;&gt;SARS&#45;CoV&#45;2 polyprotein 1a</title>
<path fill="none" stroke="black" d="M497.766,-1175.14C504.021,-1145.28 513.593,-1099.6 520.742,-1065.48"/>
<polygon fill="black" stroke="black" points="524.251,-1065.79 522.876,-1055.29 517.4,-1064.36 524.251,-1065.79"/>
</g>
<!--  SARS&#45;CoV&#45;2 (+)gRNA&#45;&gt;SARS&#45;CoV&#45;2 structural protein coding (&#45;)sgmRNAs -->
<g id="edge41" class="edge"><title> SARS&#45;CoV&#45;2 (+)gRNA&#45;&gt;SARS&#45;CoV&#45;2 structural protein coding (&#45;)sgmRNAs</title>
<path fill="none" stroke="black" d="M466.753,-1185.49C431.645,-1153.92 371.326,-1089.52 371.326,-1019.73 371.326,-1019.73 371.326,-1019.73 371.326,-895.819 371.326,-826.95 388.166,-749.906 402.679,-696.294"/>
<polygon fill="black" stroke="black" points="406.078,-697.134 405.358,-686.564 399.329,-695.276 406.078,-697.134"/>
</g>
<!--  SARS&#45;CoV&#45;2 (+)gRNA&#45;&gt;Nucleoporin_gRNA complex  -->
<g id="edge36" class="edge"><title> SARS&#45;CoV&#45;2 (+)gRNA&#45;&gt;Nucleoporin_gRNA complex </title>
<path fill="none" stroke="black" d="M461.915,-1192.33C439.355,-1180.71 408.722,-1162.13 388.326,-1138.52 350.285,-1094.5 333.326,-1077.91 333.326,-1019.73 333.326,-1019.73 333.326,-1019.73 333.326,-626.536 333.326,-441.589 280.717,-368.9 380.326,-213.068 424.83,-143.445 507.247,-90.038 557.887,-61.8847"/>
<polygon fill="black" stroke="black" points="559.863,-64.7933 566.957,-56.9235 556.504,-58.6521 559.863,-64.7933"/>
</g>
<!--  SARS&#45;CoV&#45;2 (+)gRNA&#45;&gt; SARS&#45;CoV&#45;2 (&#45;)gRNA -->
<g id="edge40" class="edge"><title> SARS&#45;CoV&#45;2 (+)gRNA&#45;&gt; SARS&#45;CoV&#45;2 (&#45;)gRNA</title>
<path fill="none" stroke="black" d="M469.768,-1182.63C445.216,-1148.49 409.326,-1082.04 409.326,-1019.73 409.326,-1019.73 409.326,-1019.73 409.326,-895.819 409.326,-847.463 474.024,-722.26 510.533,-661.961"/>
<polygon fill="black" stroke="black" points="513.66,-663.558 515.92,-653.207 507.698,-659.889 513.66,-663.558"/>
</g>
<!--  SARS&#45;CoV&#45;2 (+)gRNA&#45;&gt;SARS&#45;CoV&#45;2 accessory protein coding (&#45;)sgmRNAs -->
<g id="edge38" class="edge"><title> SARS&#45;CoV&#45;2 (+)gRNA&#45;&gt;SARS&#45;CoV&#45;2 accessory protein coding (&#45;)sgmRNAs</title>
<path fill="none" stroke="black" d="M523.966,-1206.61C583.581,-1206.35 711.717,-1198.26 796.326,-1138.52 831.265,-1113.86 830.616,-1096.29 847.326,-1056.92 883.739,-971.122 900.005,-938.965 875.326,-849.089 858.522,-787.891 819.835,-726.486 788.834,-684.066"/>
<polygon fill="black" stroke="black" points="791.508,-681.796 782.745,-675.841 785.882,-685.961 791.508,-681.796"/>
</g>
<!-- SARS&#45;CoV&#45;2 polyprotein 1ab -->
<g id="node35" class="node"><title>SARS&#45;CoV&#45;2 polyprotein 1ab</title>
<ellipse fill="none" stroke="black" cx="623.326" cy="-1018.73" rx="38.3684" ry="38.3684"/>
<text text-anchor="middle" x="623.326" y="-1017.53" font-family="Times,serif" font-size="4.00">SARS&#45;CoV&#45;2 polyprotein 1ab</text>
</g>
<!--  SARS&#45;CoV&#45;2 (+)gRNA&#45;&gt;SARS&#45;CoV&#45;2 polyprotein 1ab -->
<g id="edge37" class="edge"><title> SARS&#45;CoV&#45;2 (+)gRNA&#45;&gt;SARS&#45;CoV&#45;2 polyprotein 1ab</title>
<path fill="none" stroke="black" d="M509.68,-1179.99C531.978,-1148.55 569.812,-1095.2 595.652,-1058.76"/>
<polygon fill="black" stroke="black" points="598.692,-1060.52 601.621,-1050.34 592.982,-1056.47 598.692,-1060.52"/>
</g>
<!-- SARS&#45;CoV&#45;2 structural proteins&#45;&gt;M -->
<g id="edge43" class="edge"><title>SARS&#45;CoV&#45;2 structural proteins&#45;&gt;M</title>
<path fill="none" stroke="black" d="M431.884,-289.661C437.562,-278.555 443.668,-266.609 448.84,-256.492"/>
<polygon fill="black" stroke="black" points="452.032,-257.937 453.468,-247.44 445.8,-254.751 452.032,-257.937"/>
</g>
<!-- SARS&#45;CoV&#45;2 structural proteins&#45;&gt;E -->
<g id="edge45" class="edge"><title>SARS&#45;CoV&#45;2 structural proteins&#45;&gt;E</title>
<path fill="none" stroke="black" d="M410.747,-285.599C410.181,-276.751 409.596,-267.585 409.072,-259.392"/>
<polygon fill="black" stroke="black" points="412.557,-259.046 408.426,-249.29 405.571,-259.493 412.557,-259.046"/>
</g>
<!-- S -->
<g id="node33" class="node"><title>S</title>
<ellipse fill="none" stroke="black" cx="239.326" cy="-231.068" rx="18" ry="18"/>
<text text-anchor="middle" x="239.326" y="-229.868" font-family="Times,serif" font-size="4.00">S</text>
</g>
<!-- SARS&#45;CoV&#45;2 structural proteins&#45;&gt;S -->
<g id="edge44" class="edge"><title>SARS&#45;CoV&#45;2 structural proteins&#45;&gt;S</title>
<path fill="none" stroke="black" d="M376.642,-307.801C346.635,-292.7 303.277,-270.32 266.326,-249.068 265.192,-248.415 264.037,-247.739 262.875,-247.047"/>
<polygon fill="black" stroke="black" points="264.405,-243.88 254.05,-241.636 260.746,-249.848 264.405,-243.88"/>
</g>
<!--  SARS&#45;CoV&#45;2 (&#45;)gRNA&#45;&gt; SARS&#45;CoV&#45;2 (+)gRNA -->
<g id="edge46" class="edge"><title> SARS&#45;CoV&#45;2 (&#45;)gRNA&#45;&gt; SARS&#45;CoV&#45;2 (+)gRNA</title>
<path fill="none" stroke="black" d="M523.37,-657.086C495.67,-715.24 427.326,-846.119 427.326,-895.819 427.326,-1019.73 427.326,-1019.73 427.326,-1019.73 427.326,-1073.9 454.453,-1131.2 473.595,-1167.68"/>
<polygon fill="black" stroke="black" points="470.732,-1169.75 478.511,-1176.95 476.915,-1166.47 470.732,-1169.75"/>
</g>
<!-- SARS&#45;CoV&#45;2 accessory protein coding (&#45;)sgmRNAs&#45;&gt;SARS&#45;CoV&#45;2 accessory protein coding (+)sgmRNAs -->
<g id="edge47" class="edge"><title>SARS&#45;CoV&#45;2 accessory protein coding (&#45;)sgmRNAs&#45;&gt;SARS&#45;CoV&#45;2 accessory protein coding (+)sgmRNAs</title>
<path fill="none" stroke="black" d="M730.818,-567.217C728.686,-557.853 726.464,-548.094 724.282,-538.513"/>
<polygon fill="black" stroke="black" points="727.662,-537.591 722.029,-528.617 720.837,-539.145 727.662,-537.591"/>
</g>
<!-- N (+)sgmRNA&#45;&gt;N -->
<g id="edge48" class="edge"><title>N (+)sgmRNA&#45;&gt;N</title>
<path fill="none" stroke="black" d="M821.302,-996.017C826.857,-975.833 835.142,-945.725 841.074,-924.173"/>
<polygon fill="black" stroke="black" points="844.495,-924.931 843.774,-914.361 837.746,-923.073 844.495,-924.931"/>
</g>
<!-- ACE2_SPIKE complex&#45;&gt;S2 -->
<g id="edge49" class="edge"><title>ACE2_SPIKE complex&#45;&gt;S2</title>
<path fill="none" stroke="black" d="M255.072,-123.906C249.77,-120.073 244.031,-116.355 238.326,-113.428 190.673,-88.9829 166.714,-108.826 123.326,-77.4282 118.227,-73.7386 113.725,-68.7866 109.931,-63.687"/>
<polygon fill="black" stroke="black" points="112.7,-61.5308 104.233,-55.1621 106.88,-65.4208 112.7,-61.5308"/>
</g>
<!-- ACE2_SPIKE complex&#45;&gt;Nucleoporin_gRNA complex  -->
<g id="edge53" class="edge"><title>ACE2_SPIKE complex&#45;&gt;Nucleoporin_gRNA complex </title>
<path fill="none" stroke="black" d="M304.241,-125.4C310.847,-121.015 318.147,-116.683 325.326,-113.428 401.232,-79.0155 496.408,-58.019 552.85,-47.6532"/>
<polygon fill="black" stroke="black" points="553.703,-51.056 562.925,-45.8405 552.464,-44.1666 553.703,-51.056"/>
</g>
<!-- ACE2_SPIKE complex&#45;&gt;ACE2 (15 Kda) -->
<g id="edge50" class="edge"><title>ACE2_SPIKE complex&#45;&gt;ACE2 (15 Kda)</title>
<path fill="none" stroke="black" d="M279.326,-113.167C279.326,-100.661 279.326,-86.2056 279.326,-73.4443"/>
<polygon fill="black" stroke="black" points="282.826,-73.203 279.326,-63.2031 275.826,-73.2031 282.826,-73.203"/>
</g>
<!-- ACE2_SPIKE complex&#45;&gt;ACE2 (100 Kda) -->
<g id="edge51" class="edge"><title>ACE2_SPIKE complex&#45;&gt;ACE2 (100 Kda)</title>
<path fill="none" stroke="black" d="M262.342,-118.139C252.674,-103.277 240.533,-84.613 230.521,-69.2212"/>
<polygon fill="black" stroke="black" points="233.293,-67.0644 224.906,-60.5904 227.425,-70.8814 233.293,-67.0644"/>
</g>
<!-- ACE2_SPIKE complex&#45;&gt;S1 -->
<g id="edge52" class="edge"><title>ACE2_SPIKE complex&#45;&gt;S1</title>
<path fill="none" stroke="black" d="M254.494,-124.89C249.233,-120.985 243.658,-116.989 238.326,-113.428 212.148,-95.9433 200.545,-98.6855 177.326,-77.4282 172.76,-73.2481 168.502,-68.1776 164.778,-63.1284"/>
<polygon fill="black" stroke="black" points="167.607,-61.0663 159.055,-54.8121 161.841,-65.0343 167.607,-61.0663"/>
</g>
<!-- N&#45;&gt;Replication transcription complex -->
<g id="edge55" class="edge"><title>N&#45;&gt;Replication transcription complex</title>
<path fill="none" stroke="black" d="M835.259,-883.784C827.8,-873.498 818.64,-858.855 807.326,-849.089 776.949,-822.87 736.357,-803.091 704.536,-789.879"/>
<polygon fill="black" stroke="black" points="705.545,-786.511 694.963,-785.99 702.91,-792.997 705.545,-786.511"/>
</g>
<!-- N&#45;&gt;Nucleoporin_gRNA complex  -->
<g id="edge54" class="edge"><title>N&#45;&gt;Nucleoporin_gRNA complex </title>
<path fill="none" stroke="black" d="M847.781,-878.623C846.485,-836.17 843.326,-722.983 843.326,-628.536 843.326,-628.536 843.326,-628.536 843.326,-230.068 843.326,-131.792 718.509,-76.4948 648.155,-53.1323"/>
<polygon fill="black" stroke="black" points="649.2,-49.7917 638.608,-50.0465 647.047,-56.4524 649.2,-49.7917"/>
</g>
<!-- CTSL -->
<g id="node32" class="node"><title>CTSL</title>
<ellipse fill="none" stroke="black" cx="101.326" cy="-145.248" rx="18" ry="18"/>
<text text-anchor="middle" x="101.326" y="-144.048" font-family="Times,serif" font-size="4.00">CTSL</text>
</g>
<!-- CTSL&#45;&gt;S2 -->
<g id="edge56" class="edge"><title>CTSL&#45;&gt;S2</title>
<path fill="none" stroke="black" d="M100.5,-126.986C99.7223,-110.72 98.5438,-86.0817 97.6372,-67.1274"/>
<polygon fill="black" stroke="black" points="101.127,-66.8227 97.1529,-57.0014 94.1347,-67.1572 101.127,-66.8227"/>
</g>
<!-- CTSL&#45;&gt;S1 -->
<g id="edge57" class="edge"><title>CTSL&#45;&gt;S1</title>
<path fill="none" stroke="black" d="M108.768,-128.372C116.693,-111.466 129.344,-84.4766 138.608,-64.7126"/>
<polygon fill="black" stroke="black" points="141.899,-65.9376 142.974,-55.3974 135.561,-62.9665 141.899,-65.9376"/>
</g>
<!-- S&#45;&gt;ACE2_SPIKE complex -->
<g id="edge58" class="edge"><title>S&#45;&gt;ACE2_SPIKE complex</title>
<path fill="none" stroke="black" d="M246.85,-214.302C251.016,-205.572 256.384,-194.323 261.551,-183.495"/>
<polygon fill="black" stroke="black" points="264.858,-184.693 266.006,-174.161 258.54,-181.678 264.858,-184.693"/>
</g>
<!-- Nsp11&#45;&gt;Replication transcription complex -->
<g id="edge59" class="edge"><title>Nsp11&#45;&gt;Replication transcription complex</title>
<path fill="none" stroke="black" d="M518.27,-879.928C522.995,-870.293 529.91,-858.152 538.326,-849.089 557.94,-827.966 584.197,-809.492 606.769,-795.729"/>
<polygon fill="black" stroke="black" points="608.741,-798.628 615.539,-790.502 605.157,-792.615 608.741,-798.628"/>
</g>
<!-- SARS&#45;CoV&#45;2 polyprotein 1ab&#45;&gt;SARS&#45;CoV&#45;2 pp1ab products -->
<g id="edge60" class="edge"><title>SARS&#45;CoV&#45;2 polyprotein 1ab&#45;&gt;SARS&#45;CoV&#45;2 pp1ab products</title>
<path fill="none" stroke="black" d="M643.228,-985.913C652.369,-971.296 663.316,-953.795 673.034,-938.257"/>
<polygon fill="black" stroke="black" points="676.256,-939.706 678.592,-929.371 670.321,-935.994 676.256,-939.706"/>
</g>
<!-- SARS&#45;CoV&#45;2 polyprotein 1ab&#45;&gt;SARS&#45;CoV&#45;2 pp1a and pp1ab products -->
<g id="edge61" class="edge"><title>SARS&#45;CoV&#45;2 polyprotein 1ab&#45;&gt;SARS&#45;CoV&#45;2 pp1a and pp1ab products</title>
<path fill="none" stroke="black" d="M614.849,-981.429C612.794,-972.629 610.551,-963.02 608.34,-953.552"/>
<polygon fill="black" stroke="black" points="611.739,-952.718 606.057,-943.776 604.923,-954.31 611.739,-952.718"/>
</g>
</g>
</svg>
