<?xml version="1.0" encoding="UTF-8" standalone="no"?>
<!DOCTYPE svg PUBLIC "-//W3C//DTD SVG 1.1//EN"
 "http://www.w3.org/Graphics/SVG/1.1/DTD/svg11.dtd">
<!-- Generated by graphviz version 2.38.0 (20140413.2041)
 -->
<!-- Title: G Pages: 1 -->
<svg width="516pt" height="746pt"
 viewBox="0.00 0.00 515.53 745.68" xmlns="http://www.w3.org/2000/svg" xmlns:xlink="http://www.w3.org/1999/xlink">
<g id="graph0" class="graph" transform="scale(1 1) rotate(0) translate(4 741.676)">
<title>G</title>
<polygon fill="white" stroke="none" points="-4,4 -4,-741.676 511.532,-741.676 511.532,4 -4,4"/>
<!-- ACE2 -->
<g id="node1" class="node"><title>ACE2</title>
<ellipse fill="none" stroke="black" cx="204" cy="-719.676" rx="18" ry="18"/>
<text text-anchor="middle" x="204" y="-718.476" font-family="Times,serif" font-size="4.00">ACE2</text>
</g>
<!-- pr_28b90e9d&#45;2b0d&#45;44f6&#45;a710&#45;877102081155 -->
<g id="node2" class="node"><title>pr_28b90e9d&#45;2b0d&#45;44f6&#45;a710&#45;877102081155</title>
<polygon fill="none" stroke="black" points="238,-665.176 138,-665.176 138,-565.176 238,-565.176 238,-665.176"/>
<text text-anchor="middle" x="188" y="-613.976" font-family="Times,serif" font-size="4.00">pr_28b90e9d&#45;2b0d&#45;44f6&#45;a710&#45;877102081155</text>
</g>
<!-- ACE2&#45;&gt;pr_28b90e9d&#45;2b0d&#45;44f6&#45;a710&#45;877102081155 -->
<g id="edge1" class="edge"><title>ACE2&#45;&gt;pr_28b90e9d&#45;2b0d&#45;44f6&#45;a710&#45;877102081155</title>
<path fill="none" stroke="black" d="M201.358,-701.75C200.199,-694.323 198.761,-685.115 197.263,-675.519"/>
<polygon fill="black" stroke="black" points="200.69,-674.778 195.69,-665.437 193.774,-675.857 200.69,-674.778"/>
</g>
<!-- pr_254ee8d3&#45;5c21&#45;47d6&#45;9253&#45;54acc0db3ca7 -->
<g id="node17" class="node"><title>pr_254ee8d3&#45;5c21&#45;47d6&#45;9253&#45;54acc0db3ca7</title>
<polygon fill="none" stroke="black" points="357.5,-665.676 256.5,-665.676 256.5,-564.676 357.5,-564.676 357.5,-665.676"/>
<text text-anchor="middle" x="307" y="-613.976" font-family="Times,serif" font-size="4.00">pr_254ee8d3&#45;5c21&#45;47d6&#45;9253&#45;54acc0db3ca7</text>
</g>
<!-- ACE2&#45;&gt;pr_254ee8d3&#45;5c21&#45;47d6&#45;9253&#45;54acc0db3ca7 -->
<g id="edge2" class="edge"><title>ACE2&#45;&gt;pr_254ee8d3&#45;5c21&#45;47d6&#45;9253&#45;54acc0db3ca7</title>
<path fill="none" stroke="black" d="M216.63,-706.108C225.162,-697.617 237.097,-685.74 249.502,-673.395"/>
<polygon fill="black" stroke="black" points="252.219,-675.629 256.839,-666.094 247.282,-670.667 252.219,-675.629"/>
</g>
<!-- ACE2_SPIKE complex -->
<g id="node3" class="node"><title>ACE2_SPIKE complex</title>
<ellipse fill="none" stroke="black" cx="248" cy="-496.856" rx="31.6406" ry="31.6406"/>
<text text-anchor="middle" x="248" y="-495.656" font-family="Times,serif" font-size="4.00">ACE2_SPIKE complex</text>
</g>
<!-- pr_28b90e9d&#45;2b0d&#45;44f6&#45;a710&#45;877102081155&#45;&gt;ACE2_SPIKE complex -->
<g id="edge3" class="edge"><title>pr_28b90e9d&#45;2b0d&#45;44f6&#45;a710&#45;877102081155&#45;&gt;ACE2_SPIKE complex</title>
<path fill="none" stroke="black" d="M213.445,-564.846C218.722,-554.617 224.191,-544.014 229.179,-534.344"/>
<polygon fill="black" stroke="black" points="232.318,-535.894 233.792,-525.402 226.097,-532.685 232.318,-535.894"/>
</g>
<!-- pr_63e024c4&#45;2b64&#45;4dd3&#45;afe6&#45;0acf43f83a05 -->
<g id="node6" class="node"><title>pr_63e024c4&#45;2b64&#45;4dd3&#45;afe6&#45;0acf43f83a05</title>
<polygon fill="none" stroke="black" points="193,-428.037 95,-428.037 95,-330.037 193,-330.037 193,-428.037"/>
<text text-anchor="middle" x="144" y="-377.837" font-family="Times,serif" font-size="4.00">pr_63e024c4&#45;2b64&#45;4dd3&#45;afe6&#45;0acf43f83a05</text>
</g>
<!-- ACE2_SPIKE complex&#45;&gt;pr_63e024c4&#45;2b64&#45;4dd3&#45;afe6&#45;0acf43f83a05 -->
<g id="edge4" class="edge"><title>ACE2_SPIKE complex&#45;&gt;pr_63e024c4&#45;2b64&#45;4dd3&#45;afe6&#45;0acf43f83a05</title>
<path fill="none" stroke="black" d="M227.204,-472.697C217.591,-461.991 205.72,-448.771 193.986,-435.704"/>
<polygon fill="black" stroke="black" points="196.397,-433.15 187.111,-428.048 191.188,-437.827 196.397,-433.15"/>
</g>
<!-- pr_6f6b9bf1&#45;2443&#45;4e3f&#45;8b5f&#45;11a22434ac4b -->
<g id="node7" class="node"><title>pr_6f6b9bf1&#45;2443&#45;4e3f&#45;8b5f&#45;11a22434ac4b</title>
<polygon fill="none" stroke="black" points="309,-428.037 211,-428.037 211,-330.037 309,-330.037 309,-428.037"/>
<text text-anchor="middle" x="260" y="-377.837" font-family="Times,serif" font-size="4.00">pr_6f6b9bf1&#45;2443&#45;4e3f&#45;8b5f&#45;11a22434ac4b</text>
</g>
<!-- ACE2_SPIKE complex&#45;&gt;pr_6f6b9bf1&#45;2443&#45;4e3f&#45;8b5f&#45;11a22434ac4b -->
<g id="edge5" class="edge"><title>ACE2_SPIKE complex&#45;&gt;pr_6f6b9bf1&#45;2443&#45;4e3f&#45;8b5f&#45;11a22434ac4b</title>
<path fill="none" stroke="black" d="M251.184,-465.123C252.041,-456.855 252.997,-447.631 253.954,-438.392"/>
<polygon fill="black" stroke="black" points="257.439,-438.712 254.989,-428.405 250.477,-437.991 257.439,-438.712"/>
</g>
<!-- pr_8d4682db&#45;ea9d&#45;4474&#45;9059&#45;310253f5ae8c -->
<g id="node12" class="node"><title>pr_8d4682db&#45;ea9d&#45;4474&#45;9059&#45;310253f5ae8c</title>
<polygon fill="none" stroke="black" points="431,-429.037 331,-429.037 331,-329.037 431,-329.037 431,-429.037"/>
<text text-anchor="middle" x="381" y="-377.837" font-family="Times,serif" font-size="4.00">pr_8d4682db&#45;ea9d&#45;4474&#45;9059&#45;310253f5ae8c</text>
</g>
<!-- ACE2_SPIKE complex&#45;&gt;pr_8d4682db&#45;ea9d&#45;4474&#45;9059&#45;310253f5ae8c -->
<g id="edge6" class="edge"><title>ACE2_SPIKE complex&#45;&gt;pr_8d4682db&#45;ea9d&#45;4474&#45;9059&#45;310253f5ae8c</title>
<path fill="none" stroke="black" d="M271.778,-475.15C286.161,-462.625 305.168,-446.073 323.289,-430.293"/>
<polygon fill="black" stroke="black" points="325.742,-432.798 330.985,-423.591 321.145,-427.519 325.742,-432.798"/>
</g>
<!-- SPIKE -->
<g id="node4" class="node"><title>SPIKE</title>
<ellipse fill="none" stroke="black" cx="290" cy="-719.676" rx="18" ry="18"/>
<text text-anchor="middle" x="290" y="-718.476" font-family="Times,serif" font-size="4.00">SPIKE</text>
</g>
<!-- SPIKE&#45;&gt;pr_28b90e9d&#45;2b0d&#45;44f6&#45;a710&#45;877102081155 -->
<g id="edge7" class="edge"><title>SPIKE&#45;&gt;pr_28b90e9d&#45;2b0d&#45;44f6&#45;a710&#45;877102081155</title>
<path fill="none" stroke="black" d="M277.493,-706.108C268.955,-697.528 256.975,-685.49 244.551,-673.005"/>
<polygon fill="black" stroke="black" points="246.742,-670.244 237.207,-665.625 241.78,-675.182 246.742,-670.244"/>
</g>
<!-- SPIKE&#45;&gt;pr_254ee8d3&#45;5c21&#45;47d6&#45;9253&#45;54acc0db3ca7 -->
<g id="edge8" class="edge"><title>SPIKE&#45;&gt;pr_254ee8d3&#45;5c21&#45;47d6&#45;9253&#45;54acc0db3ca7</title>
<path fill="none" stroke="black" d="M292.807,-701.75C294.025,-694.407 295.532,-685.324 297.103,-675.846"/>
<polygon fill="black" stroke="black" points="300.573,-676.321 298.756,-665.883 293.667,-675.175 300.573,-676.321"/>
</g>
<!-- Nucleoporin_gRNA complex  -->
<g id="node5" class="node"><title>Nucleoporin_gRNA complex </title>
<ellipse fill="none" stroke="black" cx="144" cy="-254.322" rx="38.9294" ry="38.9294"/>
<text text-anchor="middle" x="144" y="-253.122" font-family="Times,serif" font-size="4.00">Nucleoporin_gRNA complex </text>
</g>
<!-- Nucleoporin_gRNA complex &#45;&gt;pr_63e024c4&#45;2b64&#45;4dd3&#45;afe6&#45;0acf43f83a05 -->
<g id="edge9" class="edge"><title>Nucleoporin_gRNA complex &#45;&gt;pr_63e024c4&#45;2b64&#45;4dd3&#45;afe6&#45;0acf43f83a05</title>
<path fill="none" stroke="black" d="M150.27,-292.708C150.628,-301.224 150.786,-310.471 150.743,-319.629"/>
<polygon fill="black" stroke="black" points="147.24,-319.844 150.609,-329.889 154.239,-319.936 147.24,-319.844"/>
</g>
<!-- pr_fab66ad5&#45;0aa2&#45;4975&#45;a119&#45;89f1fe66d412 -->
<g id="node18" class="node"><title>pr_fab66ad5&#45;0aa2&#45;4975&#45;a119&#45;89f1fe66d412</title>
<polygon fill="none" stroke="black" points="98,-179.608 7.10543e-15,-179.608 7.10543e-15,-81.6084 98,-81.6084 98,-179.608"/>
<text text-anchor="middle" x="49" y="-129.408" font-family="Times,serif" font-size="4.00">pr_fab66ad5&#45;0aa2&#45;4975&#45;a119&#45;89f1fe66d412</text>
</g>
<!-- Nucleoporin_gRNA complex &#45;&gt;pr_fab66ad5&#45;0aa2&#45;4975&#45;a119&#45;89f1fe66d412 -->
<g id="edge10" class="edge"><title>Nucleoporin_gRNA complex &#45;&gt;pr_fab66ad5&#45;0aa2&#45;4975&#45;a119&#45;89f1fe66d412</title>
<path fill="none" stroke="black" d="M120.517,-223.236C112.133,-212.495 102.395,-200.018 92.8546,-187.795"/>
<polygon fill="black" stroke="black" points="95.5416,-185.549 86.6297,-179.82 90.0235,-189.856 95.5416,-185.549"/>
</g>
<!-- pr_a68d705a&#45;3640&#45;48fa&#45;b9f3&#45;4fca2da926c4 -->
<g id="node22" class="node"><title>pr_a68d705a&#45;3640&#45;48fa&#45;b9f3&#45;4fca2da926c4</title>
<polygon fill="none" stroke="black" points="214,-179.608 116,-179.608 116,-81.6084 214,-81.6084 214,-179.608"/>
<text text-anchor="middle" x="165" y="-129.408" font-family="Times,serif" font-size="4.00">pr_a68d705a&#45;3640&#45;48fa&#45;b9f3&#45;4fca2da926c4</text>
</g>
<!-- Nucleoporin_gRNA complex &#45;&gt;pr_a68d705a&#45;3640&#45;48fa&#45;b9f3&#45;4fca2da926c4 -->
<g id="edge11" class="edge"><title>Nucleoporin_gRNA complex &#45;&gt;pr_a68d705a&#45;3640&#45;48fa&#45;b9f3&#45;4fca2da926c4</title>
<path fill="none" stroke="black" d="M150.415,-216.143C151.852,-207.813 153.41,-198.781 154.955,-189.826"/>
<polygon fill="black" stroke="black" points="158.436,-190.239 156.687,-179.789 151.538,-189.049 158.436,-190.239"/>
</g>
<!-- pr_63e024c4&#45;2b64&#45;4dd3&#45;afe6&#45;0acf43f83a05&#45;&gt;Nucleoporin_gRNA complex  -->
<g id="edge12" class="edge"><title>pr_63e024c4&#45;2b64&#45;4dd3&#45;afe6&#45;0acf43f83a05&#45;&gt;Nucleoporin_gRNA complex </title>
<path fill="none" stroke="black" d="M137.391,-329.889C137.199,-321.009 137.203,-311.741 137.404,-302.879"/>
<polygon fill="black" stroke="black" points="140.908,-302.816 137.73,-292.708 133.911,-302.591 140.908,-302.816"/>
</g>
<!-- SPIKE S2 -->
<g id="node8" class="node"><title>SPIKE S2</title>
<ellipse fill="none" stroke="black" cx="258" cy="-254.322" rx="18.6233" ry="18.6233"/>
<text text-anchor="middle" x="258" y="-253.122" font-family="Times,serif" font-size="4.00">SPIKE S2</text>
</g>
<!-- pr_6f6b9bf1&#45;2443&#45;4e3f&#45;8b5f&#45;11a22434ac4b&#45;&gt;SPIKE S2 -->
<g id="edge13" class="edge"><title>pr_6f6b9bf1&#45;2443&#45;4e3f&#45;8b5f&#45;11a22434ac4b&#45;&gt;SPIKE S2</title>
<path fill="none" stroke="black" d="M259.215,-329.889C258.958,-314.1 258.681,-297.086 258.456,-283.302"/>
<polygon fill="black" stroke="black" points="261.951,-282.968 258.289,-273.026 254.952,-283.082 261.951,-282.968"/>
</g>
<!-- SPIKE S1 -->
<g id="node11" class="node"><title>SPIKE S1</title>
<ellipse fill="none" stroke="black" cx="313" cy="-254.322" rx="18.6233" ry="18.6233"/>
<text text-anchor="middle" x="313" y="-253.122" font-family="Times,serif" font-size="4.00">SPIKE S1</text>
</g>
<!-- pr_6f6b9bf1&#45;2443&#45;4e3f&#45;8b5f&#45;11a22434ac4b&#45;&gt;SPIKE S1 -->
<g id="edge14" class="edge"><title>pr_6f6b9bf1&#45;2443&#45;4e3f&#45;8b5f&#45;11a22434ac4b&#45;&gt;SPIKE S1</title>
<path fill="none" stroke="black" d="M280.795,-329.889C287.982,-313.247 295.758,-295.244 301.868,-281.097"/>
<polygon fill="black" stroke="black" points="305.238,-282.121 305.99,-271.553 298.812,-279.345 305.238,-282.121"/>
</g>
<!-- SPIKE S2&#45;&gt;pr_fab66ad5&#45;0aa2&#45;4975&#45;a119&#45;89f1fe66d412 -->
<g id="edge15" class="edge"><title>SPIKE S2&#45;&gt;pr_fab66ad5&#45;0aa2&#45;4975&#45;a119&#45;89f1fe66d412</title>
<path fill="none" stroke="black" d="M242.548,-243.798C229.349,-235.833 209.739,-224.395 192,-215.608 155.236,-197.399 142.062,-200.912 107,-179.608 106.909,-179.553 106.818,-179.498 106.728,-179.443"/>
<polygon fill="black" stroke="black" points="108.584,-176.474 98.2938,-173.95 104.764,-182.34 108.584,-176.474"/>
</g>
<!-- pr_8f93a435&#45;3fce&#45;470e&#45;aa7a&#45;7d22ebf68e03 -->
<g id="node21" class="node"><title>pr_8f93a435&#45;3fce&#45;470e&#45;aa7a&#45;7d22ebf68e03</title>
<polygon fill="none" stroke="black" points="330,-179.608 232,-179.608 232,-81.6084 330,-81.6084 330,-179.608"/>
<text text-anchor="middle" x="281" y="-129.408" font-family="Times,serif" font-size="4.00">pr_8f93a435&#45;3fce&#45;470e&#45;aa7a&#45;7d22ebf68e03</text>
</g>
<!-- SPIKE S2&#45;&gt;pr_8f93a435&#45;3fce&#45;470e&#45;aa7a&#45;7d22ebf68e03 -->
<g id="edge16" class="edge"><title>SPIKE S2&#45;&gt;pr_8f93a435&#45;3fce&#45;470e&#45;aa7a&#45;7d22ebf68e03</title>
<path fill="none" stroke="black" d="M256.416,-235.624C257.431,-223.503 260.005,-206.676 263.204,-190.085"/>
<polygon fill="black" stroke="black" points="266.727,-190.323 265.269,-179.829 259.864,-188.942 266.727,-190.323"/>
</g>
<!-- SPIKE S2&#45;&gt;pr_a68d705a&#45;3640&#45;48fa&#45;b9f3&#45;4fca2da926c4 -->
<g id="edge17" class="edge"><title>SPIKE S2&#45;&gt;pr_a68d705a&#45;3640&#45;48fa&#45;b9f3&#45;4fca2da926c4</title>
<path fill="none" stroke="black" d="M246.966,-238.882C237.199,-226.099 222.292,-206.589 207.856,-187.696"/>
<polygon fill="black" stroke="black" points="210.567,-185.479 201.714,-179.658 205.005,-189.729 210.567,-185.479"/>
</g>
<!-- CTSB -->
<g id="node9" class="node"><title>CTSB</title>
<ellipse fill="none" stroke="black" cx="316" cy="-496.856" rx="18" ry="18"/>
<text text-anchor="middle" x="316" y="-495.656" font-family="Times,serif" font-size="4.00">CTSB</text>
</g>
<!-- CTSB&#45;&gt;pr_6f6b9bf1&#45;2443&#45;4e3f&#45;8b5f&#45;11a22434ac4b -->
<g id="edge18" class="edge"><title>CTSB&#45;&gt;pr_6f6b9bf1&#45;2443&#45;4e3f&#45;8b5f&#45;11a22434ac4b</title>
<path fill="none" stroke="black" d="M308.448,-480.236C303.032,-469.036 295.372,-453.194 287.739,-437.406"/>
<polygon fill="black" stroke="black" points="290.768,-435.632 283.264,-428.152 284.466,-438.679 290.768,-435.632"/>
</g>
<!-- CTSL -->
<g id="node10" class="node"><title>CTSL</title>
<ellipse fill="none" stroke="black" cx="180" cy="-496.856" rx="18" ry="18"/>
<text text-anchor="middle" x="180" y="-495.656" font-family="Times,serif" font-size="4.00">CTSL</text>
</g>
<!-- CTSL&#45;&gt;pr_6f6b9bf1&#45;2443&#45;4e3f&#45;8b5f&#45;11a22434ac4b -->
<g id="edge19" class="edge"><title>CTSL&#45;&gt;pr_6f6b9bf1&#45;2443&#45;4e3f&#45;8b5f&#45;11a22434ac4b</title>
<path fill="none" stroke="black" d="M189.81,-481.655C197.662,-470.287 209.225,-453.546 220.71,-436.919"/>
<polygon fill="black" stroke="black" points="223.885,-438.481 226.688,-428.264 218.125,-434.502 223.885,-438.481"/>
</g>
<!-- pr_8d4682db&#45;ea9d&#45;4474&#45;9059&#45;310253f5ae8c&#45;&gt;SPIKE S2 -->
<g id="edge20" class="edge"><title>pr_8d4682db&#45;ea9d&#45;4474&#45;9059&#45;310253f5ae8c&#45;&gt;SPIKE S2</title>
<path fill="none" stroke="black" d="M330.664,-337.24C315.323,-323.834 298.863,-308.412 285,-293.037 281.091,-288.701 277.23,-283.796 273.704,-278.992"/>
<polygon fill="black" stroke="black" points="276.407,-276.751 267.781,-270.599 270.687,-280.787 276.407,-276.751"/>
</g>
<!-- pr_8d4682db&#45;ea9d&#45;4474&#45;9059&#45;310253f5ae8c&#45;&gt;SPIKE S1 -->
<g id="edge21" class="edge"><title>pr_8d4682db&#45;ea9d&#45;4474&#45;9059&#45;310253f5ae8c&#45;&gt;SPIKE S1</title>
<path fill="none" stroke="black" d="M353.734,-328.831C344.427,-312.036 334.419,-293.976 326.652,-279.96"/>
<polygon fill="black" stroke="black" points="329.578,-278.018 321.669,-270.968 323.455,-281.411 329.578,-278.018"/>
</g>
<!-- ACE2 (15 Kda fragment) -->
<g id="node15" class="node"><title>ACE2 (15 Kda fragment)</title>
<ellipse fill="none" stroke="black" cx="384" cy="-254.322" rx="34.4429" ry="34.4429"/>
<text text-anchor="middle" x="384" y="-253.122" font-family="Times,serif" font-size="4.00">ACE2 (15 Kda fragment)</text>
</g>
<!-- pr_8d4682db&#45;ea9d&#45;4474&#45;9059&#45;310253f5ae8c&#45;&gt;ACE2 (15 Kda fragment) -->
<g id="edge22" class="edge"><title>pr_8d4682db&#45;ea9d&#45;4474&#45;9059&#45;310253f5ae8c&#45;&gt;ACE2 (15 Kda fragment)</title>
<path fill="none" stroke="black" d="M382.203,-328.831C382.442,-319.038 382.692,-308.814 382.927,-299.212"/>
<polygon fill="black" stroke="black" points="386.429,-299.171 383.175,-289.088 379.431,-298.999 386.429,-299.171"/>
</g>
<!-- ACE2 (100 Kda fragment) -->
<g id="node16" class="node"><title>ACE2 (100 Kda fragment)</title>
<ellipse fill="none" stroke="black" cx="472" cy="-254.322" rx="35.5643" ry="35.5643"/>
<text text-anchor="middle" x="472" y="-253.122" font-family="Times,serif" font-size="4.00">ACE2 (100 Kda fragment)</text>
</g>
<!-- pr_8d4682db&#45;ea9d&#45;4474&#45;9059&#45;310253f5ae8c&#45;&gt;ACE2 (100 Kda fragment) -->
<g id="edge23" class="edge"><title>pr_8d4682db&#45;ea9d&#45;4474&#45;9059&#45;310253f5ae8c&#45;&gt;ACE2 (100 Kda fragment)</title>
<path fill="none" stroke="black" d="M417.489,-328.831C426.72,-316.383 436.467,-303.239 445.126,-291.563"/>
<polygon fill="black" stroke="black" points="448.07,-293.468 451.215,-283.351 442.448,-289.298 448.07,-293.468"/>
</g>
<!-- TMPRSS2 -->
<g id="node13" class="node"><title>TMPRSS2</title>
<ellipse fill="none" stroke="black" cx="447" cy="-496.856" rx="18.6233" ry="18.6233"/>
<text text-anchor="middle" x="447" y="-495.656" font-family="Times,serif" font-size="4.00">TMPRSS2</text>
</g>
<!-- TMPRSS2&#45;&gt;pr_8d4682db&#45;ea9d&#45;4474&#45;9059&#45;310253f5ae8c -->
<g id="edge24" class="edge"><title>TMPRSS2&#45;&gt;pr_8d4682db&#45;ea9d&#45;4474&#45;9059&#45;310253f5ae8c</title>
<path fill="none" stroke="black" d="M438.099,-480.236C431.834,-469.242 423.021,-453.777 414.19,-438.279"/>
<polygon fill="black" stroke="black" points="416.999,-436.14 409.007,-429.185 410.917,-439.606 416.999,-436.14"/>
</g>
<!-- Camostat mesylate -->
<g id="node14" class="node"><title>Camostat mesylate</title>
<ellipse fill="none" stroke="black" cx="381" cy="-496.856" rx="29.3373" ry="29.3373"/>
<text text-anchor="middle" x="381" y="-495.656" font-family="Times,serif" font-size="4.00">Camostat mesylate</text>
</g>
<!-- Camostat mesylate&#45;&gt;pr_8d4682db&#45;ea9d&#45;4474&#45;9059&#45;310253f5ae8c -->
<g id="edge25" class="edge"><title>Camostat mesylate&#45;&gt;pr_8d4682db&#45;ea9d&#45;4474&#45;9059&#45;310253f5ae8c</title>
<path fill="none" stroke="black" d="M381,-467.524C381,-458.975 381,-449.25 381,-439.467"/>
<polygon fill="black" stroke="black" points="384.5,-439.299 381,-429.299 377.5,-439.299 384.5,-439.299"/>
</g>
<!-- pr_254ee8d3&#45;5c21&#45;47d6&#45;9253&#45;54acc0db3ca7&#45;&gt;ACE2_SPIKE complex -->
<g id="edge26" class="edge"><title>pr_254ee8d3&#45;5c21&#45;47d6&#45;9253&#45;54acc0db3ca7&#45;&gt;ACE2_SPIKE complex</title>
<path fill="none" stroke="black" d="M281.808,-564.509C276.734,-554.505 271.486,-544.16 266.683,-534.689"/>
<polygon fill="black" stroke="black" points="269.695,-532.891 262.05,-525.556 263.452,-536.058 269.695,-532.891"/>
</g>
<!-- Nucleocapsid -->
<g id="node19" class="node"><title>Nucleocapsid</title>
<ellipse fill="none" stroke="black" cx="107" cy="-22.8042" rx="22.6101" ry="22.6101"/>
<text text-anchor="middle" x="107" y="-21.6042" font-family="Times,serif" font-size="4.00">Nucleocapsid</text>
</g>
<!-- pr_fab66ad5&#45;0aa2&#45;4975&#45;a119&#45;89f1fe66d412&#45;&gt;Nucleocapsid -->
<g id="edge27" class="edge"><title>pr_fab66ad5&#45;0aa2&#45;4975&#45;a119&#45;89f1fe66d412&#45;&gt;Nucleocapsid</title>
<path fill="none" stroke="black" d="M75.4541,-81.3506C80.9533,-71.3189 86.5755,-61.0627 91.5216,-52.04"/>
<polygon fill="black" stroke="black" points="94.6599,-53.5963 96.3978,-43.1449 88.5216,-50.2314 94.6599,-53.5963"/>
</g>
<!-- LY6E -->
<g id="node20" class="node"><title>LY6E</title>
<ellipse fill="none" stroke="black" cx="49" cy="-254.322" rx="18" ry="18"/>
<text text-anchor="middle" x="49" y="-253.122" font-family="Times,serif" font-size="4.00">LY6E</text>
</g>
<!-- LY6E&#45;&gt;pr_fab66ad5&#45;0aa2&#45;4975&#45;a119&#45;89f1fe66d412 -->
<g id="edge28" class="edge"><title>LY6E&#45;&gt;pr_fab66ad5&#45;0aa2&#45;4975&#45;a119&#45;89f1fe66d412</title>
<path fill="none" stroke="black" d="M49,-236.142C49,-223.986 49,-206.917 49,-190.091"/>
<polygon fill="black" stroke="black" points="52.5001,-189.691 49,-179.691 45.5001,-189.691 52.5001,-189.691"/>
</g>
<!-- pr_8f93a435&#45;3fce&#45;470e&#45;aa7a&#45;7d22ebf68e03&#45;&gt;SPIKE S2 -->
<g id="edge29" class="edge"><title>pr_8f93a435&#45;3fce&#45;470e&#45;aa7a&#45;7d22ebf68e03&#45;&gt;SPIKE S2</title>
<path fill="none" stroke="black" d="M278.501,-179.863C275.761,-196.172 272.11,-213.743 268.487,-227.61"/>
<polygon fill="black" stroke="black" points="265.069,-226.837 265.738,-237.41 271.809,-228.728 265.069,-226.837"/>
</g>
<!-- pr_a68d705a&#45;3640&#45;48fa&#45;b9f3&#45;4fca2da926c4&#45;&gt;Nucleocapsid -->
<g id="edge30" class="edge"><title>pr_a68d705a&#45;3640&#45;48fa&#45;b9f3&#45;4fca2da926c4&#45;&gt;Nucleocapsid</title>
<path fill="none" stroke="black" d="M138.546,-81.3506C133.047,-71.3189 127.424,-61.0627 122.478,-52.04"/>
<polygon fill="black" stroke="black" points="125.478,-50.2314 117.602,-43.1449 119.34,-53.5963 125.478,-50.2314"/>
</g>
</g>
</svg>
