<?xml version="1.0" encoding="UTF-8" standalone="no"?>
<!DOCTYPE svg PUBLIC "-//W3C//DTD SVG 1.1//EN"
 "http://www.w3.org/Graphics/SVG/1.1/DTD/svg11.dtd">
<!-- Generated by graphviz version 2.38.0 (20140413.2041)
 -->
<!-- Title: G Pages: 1 -->
<svg width="1378pt" height="1983pt"
 viewBox="0.00 0.00 1378.00 1982.57" xmlns="http://www.w3.org/2000/svg" xmlns:xlink="http://www.w3.org/1999/xlink">
<g id="graph0" class="graph" transform="scale(1 1) rotate(0) translate(4 1978.57)">
<title>G</title>
<polygon fill="white" stroke="none" points="-4,4 -4,-1978.57 1374,-1978.57 1374,4 -4,4"/>
<!-- Type I interferon signaling pathway -->
<g id="node1" class="node"><title>Type I interferon signaling pathway</title>
<ellipse fill="none" stroke="black" cx="1140" cy="-1928.97" rx="45.717" ry="45.717"/>
<text text-anchor="middle" x="1140" y="-1927.77" font-family="Times,serif" font-size="4.00">Type I interferon signaling pathway</text>
</g>
<!-- LY6E -->
<g id="node2" class="node"><title>LY6E</title>
<ellipse fill="none" stroke="black" cx="1140" cy="-1829.36" rx="18" ry="18"/>
<text text-anchor="middle" x="1140" y="-1828.16" font-family="Times,serif" font-size="4.00">LY6E</text>
</g>
<!-- Type I interferon signaling pathway&#45;&gt;LY6E -->
<g id="edge1" class="edge"><title>Type I interferon signaling pathway&#45;&gt;LY6E</title>
<path fill="none" stroke="black" d="M1140,-1883.16C1140,-1874.48 1140,-1865.63 1140,-1857.71"/>
<polygon fill="black" stroke="black" points="1143.5,-1857.61 1140,-1847.61 1136.5,-1857.61 1143.5,-1857.61"/>
</g>
<!-- M -->
<g id="node3" class="node"><title>M</title>
<ellipse fill="none" stroke="black" cx="1163" cy="-1757.36" rx="18" ry="18"/>
<text text-anchor="middle" x="1163" y="-1756.16" font-family="Times,serif" font-size="4.00">M</text>
</g>
<!-- LY6E&#45;&gt;M -->
<g id="edge3" class="edge"><title>LY6E&#45;&gt;M</title>
<path fill="none" stroke="black" d="M1145.33,-1812.12C1148.02,-1803.94 1151.35,-1793.8 1154.39,-1784.55"/>
<polygon fill="black" stroke="black" points="1157.74,-1785.58 1157.53,-1774.99 1151.09,-1783.4 1157.74,-1785.58"/>
</g>
<!-- Orf7a -->
<g id="node11" class="node"><title>Orf7a</title>
<ellipse fill="none" stroke="black" cx="1163" cy="-1685.36" rx="18" ry="18"/>
<text text-anchor="middle" x="1163" y="-1684.16" font-family="Times,serif" font-size="4.00">Orf7a</text>
</g>
<!-- LY6E&#45;&gt;Orf7a -->
<g id="edge2" class="edge"><title>LY6E&#45;&gt;Orf7a</title>
<path fill="none" stroke="black" d="M1136.53,-1811.69C1133.39,-1793.61 1130.08,-1764.02 1136,-1739.36 1138.47,-1729.07 1143.28,-1718.53 1148.17,-1709.59"/>
<polygon fill="black" stroke="black" points="1151.21,-1711.33 1153.2,-1700.93 1145.15,-1707.82 1151.21,-1711.33"/>
</g>
<!-- E -->
<g id="node16" class="node"><title>E</title>
<ellipse fill="none" stroke="black" cx="1267" cy="-18" rx="18" ry="18"/>
<text text-anchor="middle" x="1267" y="-16.8" font-family="Times,serif" font-size="4.00">E</text>
</g>
<!-- LY6E&#45;&gt;E -->
<g id="edge4" class="edge"><title>LY6E&#45;&gt;E</title>
<path fill="none" stroke="black" d="M1158.05,-1826.03C1212.27,-1817.94 1370,-1785.84 1370,-1686.36 1370,-1686.36 1370,-1686.36 1370,-216.248 1370,-149.222 1362.03,-128.52 1326,-72 1316.62,-57.2834 1302.06,-44.1472 1289.76,-34.6341"/>
<polygon fill="black" stroke="black" points="1291.81,-31.796 1281.69,-28.652 1287.64,-37.4192 1291.81,-31.796"/>
</g>
<!-- Nucleocapsid -->
<g id="node25" class="node"><title>Nucleocapsid</title>
<ellipse fill="none" stroke="black" cx="1011" cy="-1608.55" rx="22.6101" ry="22.6101"/>
<text text-anchor="middle" x="1011" y="-1607.35" font-family="Times,serif" font-size="4.00">Nucleocapsid</text>
</g>
<!-- LY6E&#45;&gt;Nucleocapsid -->
<g id="edge5" class="edge"><title>LY6E&#45;&gt;Nucleocapsid</title>
<path fill="none" stroke="black" d="M1131.13,-1813.32C1109.73,-1777.02 1054.99,-1684.17 1027.41,-1637.38"/>
<polygon fill="black" stroke="black" points="1030.37,-1635.51 1022.27,-1628.67 1024.34,-1639.06 1030.37,-1635.51"/>
</g>
<!-- M&#45;&gt;Orf7a -->
<g id="edge6" class="edge"><title>M&#45;&gt;Orf7a</title>
<path fill="none" stroke="black" d="M1157.2,-1740.12C1156.29,-1731.99 1156.03,-1721.95 1156.43,-1712.75"/>
<polygon fill="black" stroke="black" points="1159.95,-1712.74 1157.21,-1702.5 1152.97,-1712.21 1159.95,-1712.74"/>
</g>
<!-- M&#45;&gt;E -->
<g id="edge7" class="edge"><title>M&#45;&gt;E</title>
<path fill="none" stroke="black" d="M1179.08,-1748.66C1218.29,-1731.19 1314,-1684.2 1314,-1609.55 1314,-1609.55 1314,-1609.55 1314,-216.248 1314,-153.123 1287.13,-82.807 1273.61,-45.5507"/>
<polygon fill="black" stroke="black" points="1276.84,-44.1933 1270.18,-35.9526 1270.25,-46.5472 1276.84,-44.1933"/>
</g>
<!-- M&#45;&gt;Nucleocapsid -->
<g id="edge8" class="edge"><title>M&#45;&gt;Nucleocapsid</title>
<path fill="none" stroke="black" d="M1150.56,-1744.34C1125.22,-1719.87 1067.27,-1663.9 1034.57,-1632.32"/>
<polygon fill="black" stroke="black" points="1036.85,-1629.65 1027.22,-1625.22 1031.99,-1634.69 1036.85,-1629.65"/>
</g>
<!-- SARS&#45;CoV&#45;2 accessory protein coding (+)sgmRNAs -->
<g id="node4" class="node"><title>SARS&#45;CoV&#45;2 accessory protein coding (+)sgmRNAs</title>
<ellipse fill="none" stroke="black" cx="901" cy="-539.439" rx="62.658" ry="62.658"/>
<text text-anchor="middle" x="901" y="-538.239" font-family="Times,serif" font-size="4.00">SARS&#45;CoV&#45;2 accessory protein coding (+)sgmRNAs</text>
</g>
<!-- SARS&#45;CoV&#45;2 accessory proteins -->
<g id="node34" class="node"><title>SARS&#45;CoV&#45;2 accessory proteins</title>
<ellipse fill="none" stroke="black" cx="930" cy="-398.964" rx="41.7924" ry="41.7924"/>
<text text-anchor="middle" x="930" y="-397.764" font-family="Times,serif" font-size="4.00">SARS&#45;CoV&#45;2 accessory proteins</text>
</g>
<!-- SARS&#45;CoV&#45;2 accessory protein coding (+)sgmRNAs&#45;&gt;SARS&#45;CoV&#45;2 accessory proteins -->
<g id="edge9" class="edge"><title>SARS&#45;CoV&#45;2 accessory protein coding (+)sgmRNAs&#45;&gt;SARS&#45;CoV&#45;2 accessory proteins</title>
<path fill="none" stroke="black" d="M913.635,-478.105C915.587,-468.785 917.585,-459.246 919.484,-450.179"/>
<polygon fill="black" stroke="black" points="922.954,-450.684 921.578,-440.179 916.102,-449.25 922.954,-450.684"/>
</g>
<!-- CTSL -->
<g id="node5" class="node"><title>CTSL</title>
<ellipse fill="none" stroke="black" cx="564" cy="-217.248" rx="18" ry="18"/>
<text text-anchor="middle" x="564" y="-216.048" font-family="Times,serif" font-size="4.00">CTSL</text>
</g>
<!-- S1 -->
<g id="node8" class="node"><title>S1</title>
<ellipse fill="none" stroke="black" cx="684" cy="-110.714" rx="18" ry="18"/>
<text text-anchor="middle" x="684" y="-109.514" font-family="Times,serif" font-size="4.00">S1</text>
</g>
<!-- CTSL&#45;&gt;S1 -->
<g id="edge11" class="edge"><title>CTSL&#45;&gt;S1</title>
<path fill="none" stroke="black" d="M574.469,-202.504C579.165,-196.84 584.995,-190.444 591,-185.428 614.867,-165.492 627.139,-169.372 651,-149.428 656.651,-144.705 662.174,-138.981 667.034,-133.435"/>
<polygon fill="black" stroke="black" points="669.881,-135.487 673.62,-125.574 664.515,-130.992 669.881,-135.487"/>
</g>
<!-- S2 -->
<g id="node35" class="node"><title>S2</title>
<ellipse fill="none" stroke="black" cx="624" cy="-110.714" rx="18" ry="18"/>
<text text-anchor="middle" x="624" y="-109.514" font-family="Times,serif" font-size="4.00">S2</text>
</g>
<!-- CTSL&#45;&gt;S2 -->
<g id="edge10" class="edge"><title>CTSL&#45;&gt;S2</title>
<path fill="none" stroke="black" d="M572.597,-201.271C582.443,-184.116 598.709,-155.778 610.305,-135.574"/>
<polygon fill="black" stroke="black" points="613.477,-137.079 615.419,-126.663 607.406,-133.594 613.477,-137.079"/>
</g>
<!-- SARS&#45;CoV&#45;2 structural protein coding (&#45;)sgmRNAs -->
<g id="node6" class="node"><title>SARS&#45;CoV&#45;2 structural protein coding (&#45;)sgmRNAs</title>
<ellipse fill="none" stroke="black" cx="385" cy="-699.536" rx="61.5366" ry="61.5366"/>
<text text-anchor="middle" x="385" y="-698.336" font-family="Times,serif" font-size="4.00">SARS&#45;CoV&#45;2 structural protein coding (&#45;)sgmRNAs</text>
</g>
<!-- SARS&#45;CoV&#45;2 structural protein coding (+)sgmRNAs -->
<g id="node32" class="node"><title>SARS&#45;CoV&#45;2 structural protein coding (+)sgmRNAs</title>
<ellipse fill="none" stroke="black" cx="385" cy="-539.439" rx="62.0973" ry="62.0973"/>
<text text-anchor="middle" x="385" y="-538.239" font-family="Times,serif" font-size="4.00">SARS&#45;CoV&#45;2 structural protein coding (+)sgmRNAs</text>
</g>
<!-- SARS&#45;CoV&#45;2 structural protein coding (&#45;)sgmRNAs&#45;&gt;SARS&#45;CoV&#45;2 structural protein coding (+)sgmRNAs -->
<g id="edge12" class="edge"><title>SARS&#45;CoV&#45;2 structural protein coding (&#45;)sgmRNAs&#45;&gt;SARS&#45;CoV&#45;2 structural protein coding (+)sgmRNAs</title>
<path fill="none" stroke="black" d="M385,-637.864C385,-629.352 385,-620.539 385,-611.85"/>
<polygon fill="black" stroke="black" points="388.5,-611.733 385,-601.733 381.5,-611.733 388.5,-611.733"/>
</g>
<!-- N -->
<g id="node7" class="node"><title>N</title>
<ellipse fill="none" stroke="black" cx="554" cy="-1531.75" rx="18" ry="18"/>
<text text-anchor="middle" x="554" y="-1530.55" font-family="Times,serif" font-size="4.00">N</text>
</g>
<!-- Replication transcription complex_N oligomer -->
<g id="node20" class="node"><title>Replication transcription complex_N oligomer</title>
<ellipse fill="none" stroke="black" cx="554" cy="-1421" rx="56.9917" ry="56.9917"/>
<text text-anchor="middle" x="554" y="-1419.8" font-family="Times,serif" font-size="4.00">Replication transcription complex_N oligomer</text>
</g>
<!-- N&#45;&gt;Replication transcription complex_N oligomer -->
<g id="edge14" class="edge"><title>N&#45;&gt;Replication transcription complex_N oligomer</title>
<path fill="none" stroke="black" d="M548.991,-1514.23C548.143,-1506.75 547.605,-1497.36 547.376,-1487.46"/>
<polygon fill="black" stroke="black" points="550.876,-1487.4 547.251,-1477.44 543.876,-1487.48 550.876,-1487.4"/>
</g>
<!-- Nucleoporin_gRNA complex  -->
<g id="node30" class="node"><title>Nucleoporin_gRNA complex </title>
<ellipse fill="none" stroke="black" cx="1106" cy="-110.714" rx="38.9294" ry="38.9294"/>
<text text-anchor="middle" x="1106" y="-109.514" font-family="Times,serif" font-size="4.00">Nucleoporin_gRNA complex </text>
</g>
<!-- N&#45;&gt;Nucleoporin_gRNA complex  -->
<g id="edge13" class="edge"><title>N&#45;&gt;Nucleoporin_gRNA complex </title>
<path fill="none" stroke="black" d="M569.589,-1522.35C647.614,-1479.07 992,-1272.7 992,-1002.17 992,-1002.17 992,-1002.17 992,-863.937 992,-762.963 999.868,-737.694 1016,-638.018 1033.3,-531.112 1068,-508.26 1068,-399.964 1068,-399.964 1068,-399.964 1068,-302.068 1068,-251.953 1080.82,-195.827 1091.57,-157.585"/>
<polygon fill="black" stroke="black" points="1094.99,-158.357 1094.39,-147.779 1088.26,-156.422 1094.99,-158.357"/>
</g>
<!--  SARS&#45;CoV&#45;2 (+)gRNA -->
<g id="node9" class="node"><title> SARS&#45;CoV&#45;2 (+)gRNA</title>
<ellipse fill="none" stroke="black" cx="751" cy="-1001.17" rx="32.201" ry="32.201"/>
<text text-anchor="middle" x="751" y="-999.969" font-family="Times,serif" font-size="4.00"> SARS&#45;CoV&#45;2 (+)gRNA</text>
</g>
<!-- Replication transcription complex_SARS&#45;CoV&#45;2 (+)gRNA -->
<g id="node26" class="node"><title>Replication transcription complex_SARS&#45;CoV&#45;2 (+)gRNA</title>
<ellipse fill="none" stroke="black" cx="482" cy="-864.937" rx="67.7647" ry="67.7647"/>
<text text-anchor="middle" x="482" y="-863.737" font-family="Times,serif" font-size="4.00">Replication transcription complex_SARS&#45;CoV&#45;2 (+)gRNA</text>
</g>
<!--  SARS&#45;CoV&#45;2 (+)gRNA&#45;&gt;Replication transcription complex_SARS&#45;CoV&#45;2 (+)gRNA -->
<g id="edge18" class="edge"><title> SARS&#45;CoV&#45;2 (+)gRNA&#45;&gt;Replication transcription complex_SARS&#45;CoV&#45;2 (+)gRNA</title>
<path fill="none" stroke="black" d="M722.212,-985.804C681.77,-965.623 606.879,-928.252 551.429,-900.582"/>
<polygon fill="black" stroke="black" points="552.869,-897.389 542.358,-896.056 549.743,-903.653 552.869,-897.389"/>
</g>
<!--  SARS&#45;CoV&#45;2 (+)gRNA&#45;&gt;Nucleoporin_gRNA complex  -->
<g id="edge16" class="edge"><title> SARS&#45;CoV&#45;2 (+)gRNA&#45;&gt;Nucleoporin_gRNA complex </title>
<path fill="none" stroke="black" d="M758.953,-969.443C770.386,-924.145 791.37,-836.635 803,-761.054 830.787,-580.481 780.258,-510.785 879,-357.068 934.224,-271.096 1020.87,-187.316 1069.59,-143.384"/>
<polygon fill="black" stroke="black" points="1071.96,-145.961 1077.07,-136.682 1067.29,-140.747 1071.96,-145.961"/>
</g>
<!-- SARS&#45;CoV&#45;2 polyprotein 1ab -->
<g id="node37" class="node"><title>SARS&#45;CoV&#45;2 polyprotein 1ab</title>
<ellipse fill="none" stroke="black" cx="850" cy="-864.937" rx="38.3684" ry="38.3684"/>
<text text-anchor="middle" x="850" y="-863.737" font-family="Times,serif" font-size="4.00">SARS&#45;CoV&#45;2 polyprotein 1ab</text>
</g>
<!--  SARS&#45;CoV&#45;2 (+)gRNA&#45;&gt;SARS&#45;CoV&#45;2 polyprotein 1ab -->
<g id="edge15" class="edge"><title> SARS&#45;CoV&#45;2 (+)gRNA&#45;&gt;SARS&#45;CoV&#45;2 polyprotein 1ab</title>
<path fill="none" stroke="black" d="M769.854,-974.605C784.48,-954.775 804.989,-926.966 821.6,-904.444"/>
<polygon fill="black" stroke="black" points="824.636,-906.224 827.755,-896.099 819.002,-902.069 824.636,-906.224"/>
</g>
<!-- SARS&#45;CoV&#45;2 polyprotein 1a -->
<g id="node39" class="node"><title>SARS&#45;CoV&#45;2 polyprotein 1a</title>
<ellipse fill="none" stroke="black" cx="719" cy="-864.937" rx="37.2466" ry="37.2466"/>
<text text-anchor="middle" x="719" y="-863.737" font-family="Times,serif" font-size="4.00">SARS&#45;CoV&#45;2 polyprotein 1a</text>
</g>
<!--  SARS&#45;CoV&#45;2 (+)gRNA&#45;&gt;SARS&#45;CoV&#45;2 polyprotein 1a -->
<g id="edge17" class="edge"><title> SARS&#45;CoV&#45;2 (+)gRNA&#45;&gt;SARS&#45;CoV&#45;2 polyprotein 1a</title>
<path fill="none" stroke="black" d="M743.659,-969.373C739.542,-952.104 734.33,-930.244 729.76,-911.074"/>
<polygon fill="black" stroke="black" points="733.162,-910.248 727.438,-901.332 726.352,-911.871 733.162,-910.248"/>
</g>
<!-- ACE2 (15 Kda) -->
<g id="node10" class="node"><title>ACE2 (15 Kda)</title>
<ellipse fill="none" stroke="black" cx="747" cy="-110.714" rx="24.2908" ry="24.2908"/>
<text text-anchor="middle" x="747" y="-109.514" font-family="Times,serif" font-size="4.00">ACE2 (15 Kda)</text>
</g>
<!-- Orf7a&#45;&gt;M -->
<g id="edge19" class="edge"><title>Orf7a&#45;&gt;M</title>
<path fill="none" stroke="black" d="M1168.79,-1702.5C1169.71,-1710.62 1169.97,-1720.66 1169.57,-1729.86"/>
<polygon fill="black" stroke="black" points="1166.06,-1729.89 1168.8,-1740.12 1173.04,-1730.41 1166.06,-1729.89"/>
</g>
<!-- Orf7a&#45;&gt;E -->
<g id="edge20" class="edge"><title>Orf7a&#45;&gt;E</title>
<path fill="none" stroke="black" d="M1169.56,-1668.53C1185.16,-1641.98 1220,-1586.14 1220,-1532.75 1220,-1532.75 1220,-1532.75 1220,-698.536 1220,-522.405 1258,-480.199 1258,-304.068 1258,-304.068 1258,-304.068 1258,-216.248 1258,-155.159 1258,-83.428 1261.05,-45.5502"/>
<polygon fill="black" stroke="black" points="1264.55,-45.6583 1262.04,-35.3656 1257.58,-44.9784 1264.55,-45.6583"/>
</g>
<!-- Orf7a&#45;&gt;Nucleocapsid -->
<g id="edge21" class="edge"><title>Orf7a&#45;&gt;Nucleocapsid</title>
<path fill="none" stroke="black" d="M1147.02,-1676.49C1121.74,-1664.05 1072.13,-1639.64 1040.32,-1623.98"/>
<polygon fill="black" stroke="black" points="1041.59,-1620.7 1031.07,-1619.43 1038.49,-1626.98 1041.59,-1620.7"/>
</g>
<!-- Nsp11 -->
<g id="node12" class="node"><title>Nsp11</title>
<ellipse fill="none" stroke="black" cx="662" cy="-699.536" rx="18" ry="18"/>
<text text-anchor="middle" x="662" y="-698.336" font-family="Times,serif" font-size="4.00">Nsp11</text>
</g>
<!-- Replication transcription complex -->
<g id="node33" class="node"><title>Replication transcription complex</title>
<ellipse fill="none" stroke="black" cx="554" cy="-1284.24" rx="44.0348" ry="44.0348"/>
<text text-anchor="middle" x="554" y="-1283.04" font-family="Times,serif" font-size="4.00">Replication transcription complex</text>
</g>
<!-- Nsp11&#45;&gt;Replication transcription complex -->
<g id="edge22" class="edge"><title>Nsp11&#45;&gt;Replication transcription complex</title>
<path fill="none" stroke="black" d="M657.64,-717.166C652.753,-736.315 644.876,-768.77 640,-797.054 609.042,-976.622 642.847,-1029.24 592,-1204.22 588.91,-1214.86 584.509,-1225.82 579.791,-1236.08"/>
<polygon fill="black" stroke="black" points="576.553,-1234.74 575.397,-1245.27 582.868,-1237.76 576.553,-1234.74"/>
</g>
<!--  SARS&#45;CoV&#45;2 (&#45;)gRNA -->
<g id="node13" class="node"><title> SARS&#45;CoV&#45;2 (&#45;)gRNA</title>
<ellipse fill="none" stroke="black" cx="211" cy="-699.536" rx="31.0804" ry="31.0804"/>
<text text-anchor="middle" x="211" y="-698.336" font-family="Times,serif" font-size="4.00"> SARS&#45;CoV&#45;2 (&#45;)gRNA</text>
</g>
<!-- Replication transcription complex_SARS&#45;CoV&#45;2 (&#45;)gRNA -->
<g id="node17" class="node"><title>Replication transcription complex_SARS&#45;CoV&#45;2 (&#45;)gRNA</title>
<ellipse fill="none" stroke="black" cx="427" cy="-1136.87" rx="67.2042" ry="67.2042"/>
<text text-anchor="middle" x="427" y="-1135.67" font-family="Times,serif" font-size="4.00">Replication transcription complex_SARS&#45;CoV&#45;2 (&#45;)gRNA</text>
</g>
<!--  SARS&#45;CoV&#45;2 (&#45;)gRNA&#45;&gt;Replication transcription complex_SARS&#45;CoV&#45;2 (&#45;)gRNA -->
<g id="edge23" class="edge"><title> SARS&#45;CoV&#45;2 (&#45;)gRNA&#45;&gt;Replication transcription complex_SARS&#45;CoV&#45;2 (&#45;)gRNA</title>
<path fill="none" stroke="black" d="M224.608,-727.962C257.928,-795.117 344.412,-969.421 392.853,-1067.05"/>
<polygon fill="black" stroke="black" points="389.839,-1068.85 397.419,-1076.25 396.11,-1065.74 389.839,-1068.85"/>
</g>
<!-- ACE2_SPIKE complex -->
<g id="node14" class="node"><title>ACE2_SPIKE complex</title>
<ellipse fill="none" stroke="black" cx="872" cy="-217.248" rx="31.6406" ry="31.6406"/>
<text text-anchor="middle" x="872" y="-216.048" font-family="Times,serif" font-size="4.00">ACE2_SPIKE complex</text>
</g>
<!-- ACE2_SPIKE complex&#45;&gt;S1 -->
<g id="edge26" class="edge"><title>ACE2_SPIKE complex&#45;&gt;S1</title>
<path fill="none" stroke="black" d="M847.757,-195.884C842.454,-192.053 836.712,-188.341 831,-185.428 782.532,-160.714 758.944,-180.088 714,-149.428 708.376,-145.591 703.296,-140.383 698.983,-135.063"/>
<polygon fill="black" stroke="black" points="701.627,-132.752 692.867,-126.792 695.998,-136.913 701.627,-132.752"/>
</g>
<!-- ACE2_SPIKE complex&#45;&gt;ACE2 (15 Kda) -->
<g id="edge28" class="edge"><title>ACE2_SPIKE complex&#45;&gt;ACE2 (15 Kda)</title>
<path fill="none" stroke="black" d="M846.909,-197.259C841.667,-193.328 836.164,-189.228 831,-185.428 808.943,-169.201 801.394,-167.701 781,-149.428 776.999,-145.843 772.976,-141.828 769.169,-137.791"/>
<polygon fill="black" stroke="black" points="771.494,-135.146 762.175,-130.107 766.318,-139.858 771.494,-135.146"/>
</g>
<!-- ACE2_SPIKE complex&#45;&gt;Nucleoporin_gRNA complex  -->
<g id="edge24" class="edge"><title>ACE2_SPIKE complex&#45;&gt;Nucleoporin_gRNA complex </title>
<path fill="none" stroke="black" d="M897.669,-197.631C904.138,-193.34 911.186,-188.993 918,-185.428 964.536,-161.084 1020.98,-139.989 1059.81,-126.677"/>
<polygon fill="black" stroke="black" points="1060.94,-129.99 1069.28,-123.463 1058.69,-123.361 1060.94,-129.99"/>
</g>
<!-- ACE2 (100 Kda) -->
<g id="node31" class="node"><title>ACE2 (100 Kda)</title>
<ellipse fill="none" stroke="black" cx="815" cy="-110.714" rx="25.4118" ry="25.4118"/>
<text text-anchor="middle" x="815" y="-109.514" font-family="Times,serif" font-size="4.00">ACE2 (100 Kda)</text>
</g>
<!-- ACE2_SPIKE complex&#45;&gt;ACE2 (100 Kda) -->
<g id="edge27" class="edge"><title>ACE2_SPIKE complex&#45;&gt;ACE2 (100 Kda)</title>
<path fill="none" stroke="black" d="M857.173,-189.056C849.36,-174.728 839.751,-157.106 831.68,-142.303"/>
<polygon fill="black" stroke="black" points="834.743,-140.61 826.882,-133.506 828.597,-143.961 834.743,-140.61"/>
</g>
<!-- ACE2_SPIKE complex&#45;&gt;S2 -->
<g id="edge25" class="edge"><title>ACE2_SPIKE complex&#45;&gt;S2</title>
<path fill="none" stroke="black" d="M848.403,-195.779C842.965,-191.861 837.005,-188.141 831,-185.428 759.032,-152.917 725.217,-189.214 657,-149.428 650.537,-145.659 644.692,-140.166 639.779,-134.532"/>
<polygon fill="black" stroke="black" points="642.248,-132.013 633.285,-126.363 636.768,-136.369 642.248,-132.013"/>
</g>
<!-- Camostat mesylate -->
<g id="node15" class="node"><title>Camostat mesylate</title>
<ellipse fill="none" stroke="black" cx="683" cy="-217.248" rx="29.3373" ry="29.3373"/>
<text text-anchor="middle" x="683" y="-216.048" font-family="Times,serif" font-size="4.00">Camostat mesylate</text>
</g>
<!-- Camostat mesylate&#45;&gt;S1 -->
<g id="edge32" class="edge"><title>Camostat mesylate&#45;&gt;S1</title>
<path fill="none" stroke="black" d="M683.271,-187.96C683.416,-172.779 683.594,-154.153 683.738,-139.111"/>
<polygon fill="black" stroke="black" points="687.24,-138.925 683.836,-128.892 680.24,-138.858 687.24,-138.925"/>
</g>
<!-- Camostat mesylate&#45;&gt;ACE2 (15 Kda) -->
<g id="edge30" class="edge"><title>Camostat mesylate&#45;&gt;ACE2 (15 Kda)</title>
<path fill="none" stroke="black" d="M697.844,-192.003C707.253,-176.635 719.472,-156.677 729.373,-140.504"/>
<polygon fill="black" stroke="black" points="732.367,-142.318 734.603,-131.962 726.397,-138.663 732.367,-142.318"/>
</g>
<!-- Camostat mesylate&#45;&gt;ACE2 (100 Kda) -->
<g id="edge29" class="edge"><title>Camostat mesylate&#45;&gt;ACE2 (100 Kda)</title>
<path fill="none" stroke="black" d="M705.119,-197.486C710.234,-193.38 715.726,-189.151 721,-185.428 746.096,-167.714 756.217,-168.87 780,-149.428 784.13,-146.052 788.238,-142.199 792.109,-138.275"/>
<polygon fill="black" stroke="black" points="794.892,-140.425 799.206,-130.748 789.799,-135.623 794.892,-140.425"/>
</g>
<!-- Camostat mesylate&#45;&gt;S2 -->
<g id="edge31" class="edge"><title>Camostat mesylate&#45;&gt;S2</title>
<path fill="none" stroke="black" d="M669.018,-191.475C659.561,-174.719 647.129,-152.693 637.726,-136.033"/>
<polygon fill="black" stroke="black" points="640.548,-133.913 632.585,-126.925 634.452,-137.354 640.548,-133.913"/>
</g>
<!-- E&#45;&gt;M -->
<g id="edge34" class="edge"><title>E&#45;&gt;M</title>
<path fill="none" stroke="black" d="M1278.29,-32.4935C1297.48,-63.9056 1332,-144.696 1332,-216.248 1332,-1609.55 1332,-1609.55 1332,-1609.55 1332,-1683.64 1237.71,-1730.49 1189.83,-1748.26"/>
<polygon fill="black" stroke="black" points="1188.62,-1744.98 1180.36,-1751.61 1190.96,-1751.58 1188.62,-1744.98"/>
</g>
<!-- E&#45;&gt;Orf7a -->
<g id="edge33" class="edge"><title>E&#45;&gt;Orf7a</title>
<path fill="none" stroke="black" d="M1271.96,-35.3656C1276,-69.1628 1276,-149.129 1276,-216.248 1276,-304.068 1276,-304.068 1276,-304.068 1276,-480.199 1238,-522.405 1238,-698.536 1238,-1532.75 1238,-1532.75 1238,-1532.75 1238,-1584.26 1205.57,-1638.04 1183.08,-1665.61"/>
<polygon fill="black" stroke="black" points="1180.34,-1663.43 1176.46,-1673.29 1185.64,-1668 1180.34,-1663.43"/>
</g>
<!-- E&#45;&gt;Nucleocapsid -->
<g id="edge35" class="edge"><title>E&#45;&gt;Nucleocapsid</title>
<path fill="none" stroke="black" d="M1259.12,-34.3937C1254.11,-44.7751 1247.86,-58.9154 1244,-72 1108.47,-531.697 1068,-656.613 1068,-1135.87 1068,-1422 1068,-1422 1068,-1422 1068,-1479.61 1042.59,-1543.01 1025.7,-1578.78"/>
<polygon fill="black" stroke="black" points="1022.39,-1577.59 1021.19,-1588.11 1028.69,-1580.63 1022.39,-1577.59"/>
</g>
<!-- Replication transcription complex_SARS&#45;CoV&#45;2 (&#45;)gRNA&#45;&gt; SARS&#45;CoV&#45;2 (+)gRNA -->
<g id="edge36" class="edge"><title>Replication transcription complex_SARS&#45;CoV&#45;2 (&#45;)gRNA&#45;&gt; SARS&#45;CoV&#45;2 (+)gRNA</title>
<path fill="none" stroke="black" d="M489.087,-1110.25C554.783,-1083.14 656.444,-1041.19 711.806,-1018.34"/>
<polygon fill="black" stroke="black" points="713.351,-1021.49 721.259,-1014.44 710.68,-1015.02 713.351,-1021.49"/>
</g>
<!-- Replication transcription complex_SARS&#45;CoV&#45;2 (&#45;)gRNA&#45;&gt;Replication transcription complex_N oligomer -->
<g id="edge38" class="edge"><title>Replication transcription complex_SARS&#45;CoV&#45;2 (&#45;)gRNA&#45;&gt;Replication transcription complex_N oligomer</title>
<path fill="none" stroke="black" d="M448.8,-1201.06C462.434,-1238.62 481.137,-1286.85 501,-1328.26 506.524,-1339.77 512.951,-1351.79 519.385,-1363.19"/>
<polygon fill="black" stroke="black" points="516.524,-1365.24 524.528,-1372.18 522.6,-1361.77 516.524,-1365.24"/>
</g>
<!-- Replication transcription complex_SARS&#45;CoV&#45;2 (&#45;)gRNA&#45;&gt;Replication transcription complex -->
<g id="edge37" class="edge"><title>Replication transcription complex_SARS&#45;CoV&#45;2 (&#45;)gRNA&#45;&gt;Replication transcription complex</title>
<path fill="none" stroke="black" d="M474.422,-1184.87C490.435,-1202.56 507.882,-1222.58 522.387,-1239.92"/>
<polygon fill="black" stroke="black" points="519.749,-1242.22 528.829,-1247.68 525.135,-1237.75 519.749,-1242.22"/>
</g>
<!-- N (+)sgmRNA -->
<g id="node18" class="node"><title>N (+)sgmRNA</title>
<ellipse fill="none" stroke="black" cx="152" cy="-539.439" rx="23.1702" ry="23.1702"/>
<text text-anchor="middle" x="152" y="-538.239" font-family="Times,serif" font-size="4.00">N (+)sgmRNA</text>
</g>
<!-- N (+)sgmRNA&#45;&gt;N -->
<g id="edge39" class="edge"><title>N (+)sgmRNA&#45;&gt;N</title>
<path fill="none" stroke="black" d="M147.567,-562.688C137.543,-615 114,-749.991 114,-863.937 114,-1285.24 114,-1285.24 114,-1285.24 114,-1474.55 428.432,-1519.24 525.685,-1528.53"/>
<polygon fill="black" stroke="black" points="525.657,-1532.04 535.931,-1529.46 526.286,-1525.07 525.657,-1532.04"/>
</g>
<!-- S -->
<g id="node19" class="node"><title>S</title>
<ellipse fill="none" stroke="black" cx="257" cy="-303.068" rx="18" ry="18"/>
<text text-anchor="middle" x="257" y="-301.868" font-family="Times,serif" font-size="4.00">S</text>
</g>
<!-- S&#45;&gt;ACE2_SPIKE complex -->
<g id="edge40" class="edge"><title>S&#45;&gt;ACE2_SPIKE complex</title>
<path fill="none" stroke="black" d="M275.019,-301.72C360.542,-299.872 725.732,-289.696 831,-249.068 834.074,-247.881 837.116,-246.394 840.07,-244.718"/>
<polygon fill="black" stroke="black" points="842.092,-247.579 848.619,-239.233 838.312,-241.688 842.092,-247.579"/>
</g>
<!-- Replication transcription complex_N oligomer&#45;&gt;N -->
<g id="edge42" class="edge"><title>Replication transcription complex_N oligomer&#45;&gt;N</title>
<path fill="none" stroke="black" d="M560.749,-1477.44C560.729,-1486.79 560.442,-1496.1 559.889,-1504.26"/>
<polygon fill="black" stroke="black" points="556.402,-1503.96 559.009,-1514.23 563.375,-1504.58 556.402,-1503.96"/>
</g>
<!-- Replication transcription complex_N oligomer&#45;&gt;Replication transcription complex -->
<g id="edge41" class="edge"><title>Replication transcription complex_N oligomer&#45;&gt;Replication transcription complex</title>
<path fill="none" stroke="black" d="M554,-1364.02C554,-1355.59 554,-1346.91 554,-1338.54"/>
<polygon fill="black" stroke="black" points="557.5,-1338.51 554,-1328.51 550.5,-1338.51 557.5,-1338.51"/>
</g>
<!-- TMPRSS2 -->
<g id="node21" class="node"><title>TMPRSS2</title>
<ellipse fill="none" stroke="black" cx="749" cy="-217.248" rx="18.6233" ry="18.6233"/>
<text text-anchor="middle" x="749" y="-216.048" font-family="Times,serif" font-size="4.00">TMPRSS2</text>
</g>
<!-- TMPRSS2&#45;&gt;S1 -->
<g id="edge46" class="edge"><title>TMPRSS2&#45;&gt;S1</title>
<path fill="none" stroke="black" d="M739.409,-200.824C728.629,-183.488 711.008,-155.149 698.535,-135.09"/>
<polygon fill="black" stroke="black" points="701.462,-133.169 693.209,-126.525 695.518,-136.865 701.462,-133.169"/>
</g>
<!-- TMPRSS2&#45;&gt;ACE2 (15 Kda) -->
<g id="edge44" class="edge"><title>TMPRSS2&#45;&gt;ACE2 (15 Kda)</title>
<path fill="none" stroke="black" d="M748.661,-198.515C748.386,-184.14 747.99,-163.457 747.654,-145.886"/>
<polygon fill="black" stroke="black" points="751.145,-145.364 747.454,-135.432 744.146,-145.498 751.145,-145.364"/>
</g>
<!-- TMPRSS2&#45;&gt;ACE2 (100 Kda) -->
<g id="edge43" class="edge"><title>TMPRSS2&#45;&gt;ACE2 (100 Kda)</title>
<path fill="none" stroke="black" d="M758.456,-201.271C768.286,-185.703 783.93,-160.925 796.273,-141.374"/>
<polygon fill="black" stroke="black" points="799.301,-143.135 801.68,-132.811 793.382,-139.398 799.301,-143.135"/>
</g>
<!-- TMPRSS2&#45;&gt;S2 -->
<g id="edge45" class="edge"><title>TMPRSS2&#45;&gt;S2</title>
<path fill="none" stroke="black" d="M737.868,-202.135C733.043,-196.539 727.106,-190.294 721,-185.428 695.477,-165.089 682.332,-170.004 657,-149.428 651.283,-144.784 645.738,-139.088 640.877,-133.542"/>
<polygon fill="black" stroke="black" points="643.399,-131.101 634.304,-125.666 638.024,-135.586 643.399,-131.101"/>
</g>
<!-- SARS&#45;CoV&#45;2 structural proteins -->
<g id="node22" class="node"><title>SARS&#45;CoV&#45;2 structural proteins</title>
<ellipse fill="none" stroke="black" cx="250" cy="-398.964" rx="41.2319" ry="41.2319"/>
<text text-anchor="middle" x="250" y="-397.764" font-family="Times,serif" font-size="4.00">SARS&#45;CoV&#45;2 structural proteins</text>
</g>
<!-- SARS&#45;CoV&#45;2 structural proteins&#45;&gt;M -->
<g id="edge47" class="edge"><title>SARS&#45;CoV&#45;2 structural proteins&#45;&gt;M</title>
<path fill="none" stroke="black" d="M210.859,-412.381C180.859,-424.052 141.132,-444.622 120,-476.86 -41.8045,-723.709 38,-840.719 38,-1135.87 38,-1609.55 38,-1609.55 38,-1609.55 38,-1723.69 960.192,-1751.49 1134.69,-1755.73"/>
<polygon fill="black" stroke="black" points="1134.79,-1759.23 1144.87,-1755.97 1134.96,-1752.23 1134.79,-1759.23"/>
</g>
<!-- SARS&#45;CoV&#45;2 structural proteins&#45;&gt;E -->
<g id="edge49" class="edge"><title>SARS&#45;CoV&#45;2 structural proteins&#45;&gt;E</title>
<path fill="none" stroke="black" d="M231.833,-361.75C222.887,-338.478 216.592,-308.356 230,-285.068 324.107,-121.616 416.955,-128.183 597,-72 719.753,-33.6951 1127.79,-22.0616 1238.87,-19.5672"/>
<polygon fill="black" stroke="black" points="1239.04,-23.0645 1248.96,-19.3478 1238.88,-16.0662 1239.04,-23.0645"/>
</g>
<!-- SARS&#45;CoV&#45;2 structural proteins&#45;&gt;S -->
<g id="edge48" class="edge"><title>SARS&#45;CoV&#45;2 structural proteins&#45;&gt;S</title>
<path fill="none" stroke="black" d="M253.009,-357.599C253.669,-348.751 254.352,-339.585 254.963,-331.392"/>
<polygon fill="black" stroke="black" points="258.463,-331.522 255.716,-321.29 251.482,-331.002 258.463,-331.522"/>
</g>
<!-- ACE2 -->
<g id="node23" class="node"><title>ACE2</title>
<ellipse fill="none" stroke="black" cx="872" cy="-303.068" rx="18" ry="18"/>
<text text-anchor="middle" x="872" y="-301.868" font-family="Times,serif" font-size="4.00">ACE2</text>
</g>
<!-- ACE2&#45;&gt;ACE2_SPIKE complex -->
<g id="edge50" class="edge"><title>ACE2&#45;&gt;ACE2_SPIKE complex</title>
<path fill="none" stroke="black" d="M872,-284.7C872,-277.245 872,-268.189 872,-259.192"/>
<polygon fill="black" stroke="black" points="875.5,-259.149 872,-249.149 868.5,-259.149 875.5,-259.149"/>
</g>
<!-- SARS&#45;CoV&#45;2 accessory protein coding (&#45;)sgmRNAs -->
<g id="node24" class="node"><title>SARS&#45;CoV&#45;2 accessory protein coding (&#45;)sgmRNAs</title>
<ellipse fill="none" stroke="black" cx="526" cy="-699.536" rx="61.5366" ry="61.5366"/>
<text text-anchor="middle" x="526" y="-698.336" font-family="Times,serif" font-size="4.00">SARS&#45;CoV&#45;2 accessory protein coding (&#45;)sgmRNAs</text>
</g>
<!-- SARS&#45;CoV&#45;2 accessory protein coding (&#45;)sgmRNAs&#45;&gt;SARS&#45;CoV&#45;2 accessory protein coding (+)sgmRNAs -->
<g id="edge51" class="edge"><title>SARS&#45;CoV&#45;2 accessory protein coding (&#45;)sgmRNAs&#45;&gt;SARS&#45;CoV&#45;2 accessory protein coding (+)sgmRNAs</title>
<path fill="none" stroke="black" d="M578.647,-667.144C596.263,-657.226 616.204,-646.62 635,-638.018 700.296,-608.134 777.622,-580.601 832.024,-562.456"/>
<polygon fill="black" stroke="black" points="833.178,-565.761 841.567,-559.291 830.974,-559.117 833.178,-565.761"/>
</g>
<!-- Nucleocapsid&#45;&gt;N -->
<g id="edge53" class="edge"><title>Nucleocapsid&#45;&gt;N</title>
<path fill="none" stroke="black" d="M988.649,-1603.89C912.767,-1591.47 665.108,-1550.94 581.703,-1537.28"/>
<polygon fill="black" stroke="black" points="582.144,-1533.81 571.71,-1535.65 581.013,-1540.72 582.144,-1533.81"/>
</g>
<!-- Nucleocapsid&#45;&gt; SARS&#45;CoV&#45;2 (+)gRNA -->
<g id="edge52" class="edge"><title>Nucleocapsid&#45;&gt; SARS&#45;CoV&#45;2 (+)gRNA</title>
<path fill="none" stroke="black" d="M1002.35,-1587.41C964.982,-1500.41 817.079,-1156.03 767.385,-1040.32"/>
<polygon fill="black" stroke="black" points="770.593,-1038.92 763.431,-1031.11 764.161,-1041.68 770.593,-1038.92"/>
</g>
<!-- Replication transcription complex_SARS&#45;CoV&#45;2 (+)gRNA&#45;&gt;SARS&#45;CoV&#45;2 structural protein coding (&#45;)sgmRNAs -->
<g id="edge55" class="edge"><title>Replication transcription complex_SARS&#45;CoV&#45;2 (+)gRNA&#45;&gt;SARS&#45;CoV&#45;2 structural protein coding (&#45;)sgmRNAs</title>
<path fill="none" stroke="black" d="M447.528,-805.868C439.005,-791.51 429.85,-776.088 421.245,-761.593"/>
<polygon fill="black" stroke="black" points="424.084,-759.518 415.97,-752.706 418.065,-763.091 424.084,-759.518"/>
</g>
<!-- Replication transcription complex_SARS&#45;CoV&#45;2 (+)gRNA&#45;&gt; SARS&#45;CoV&#45;2 (&#45;)gRNA -->
<g id="edge54" class="edge"><title>Replication transcription complex_SARS&#45;CoV&#45;2 (+)gRNA&#45;&gt; SARS&#45;CoV&#45;2 (&#45;)gRNA</title>
<path fill="none" stroke="black" d="M418.553,-840.321C359.771,-817.624 277.546,-783.545 251,-761.054 242.928,-754.216 235.847,-745.349 229.975,-736.522"/>
<polygon fill="black" stroke="black" points="232.782,-734.41 224.515,-727.784 226.846,-738.119 232.782,-734.41"/>
</g>
<!-- Replication transcription complex_SARS&#45;CoV&#45;2 (+)gRNA&#45;&gt;SARS&#45;CoV&#45;2 accessory protein coding (&#45;)sgmRNAs -->
<g id="edge58" class="edge"><title>Replication transcription complex_SARS&#45;CoV&#45;2 (+)gRNA&#45;&gt;SARS&#45;CoV&#45;2 accessory protein coding (&#45;)sgmRNAs</title>
<path fill="none" stroke="black" d="M499.516,-798.887C502.177,-789.008 504.928,-778.79 507.606,-768.844"/>
<polygon fill="black" stroke="black" points="511.033,-769.578 510.254,-759.012 504.274,-767.758 511.033,-769.578"/>
</g>
<!-- Replication transcription complex_SARS&#45;CoV&#45;2 (+)gRNA&#45;&gt;Replication transcription complex -->
<g id="edge56" class="edge"><title>Replication transcription complex_SARS&#45;CoV&#45;2 (+)gRNA&#45;&gt;Replication transcription complex</title>
<path fill="none" stroke="black" d="M498.262,-930.888C514.833,-1013.17 538.911,-1153.43 549.475,-1229.81"/>
<polygon fill="black" stroke="black" points="546.065,-1230.71 550.873,-1240.15 553.001,-1229.77 546.065,-1230.71"/>
</g>
<!-- N (&#45;)sgmRNA -->
<g id="node36" class="node"><title>N (&#45;)sgmRNA</title>
<ellipse fill="none" stroke="black" cx="283" cy="-699.536" rx="22.6101" ry="22.6101"/>
<text text-anchor="middle" x="283" y="-698.336" font-family="Times,serif" font-size="4.00">N (&#45;)sgmRNA</text>
</g>
<!-- Replication transcription complex_SARS&#45;CoV&#45;2 (+)gRNA&#45;&gt;N (&#45;)sgmRNA -->
<g id="edge57" class="edge"><title>Replication transcription complex_SARS&#45;CoV&#45;2 (+)gRNA&#45;&gt;N (&#45;)sgmRNA</title>
<path fill="none" stroke="black" d="M420.317,-836.578C385.756,-818.885 343.756,-793.165 314,-761.054 305.891,-752.304 299.353,-741.03 294.41,-730.59"/>
<polygon fill="black" stroke="black" points="297.562,-729.065 290.319,-721.333 291.159,-731.894 297.562,-729.065"/>
</g>
<!-- SARS&#45;CoV&#45;2 pp1a and pp1ab products -->
<g id="node27" class="node"><title>SARS&#45;CoV&#45;2 pp1a and pp1ab products</title>
<ellipse fill="none" stroke="black" cx="746" cy="-699.536" rx="47.9605" ry="47.9605"/>
<text text-anchor="middle" x="746" y="-698.336" font-family="Times,serif" font-size="4.00">SARS&#45;CoV&#45;2 pp1a and pp1ab products</text>
</g>
<!-- SARS&#45;CoV&#45;2 pp1a and pp1ab products&#45;&gt;Replication transcription complex -->
<g id="edge59" class="edge"><title>SARS&#45;CoV&#45;2 pp1a and pp1ab products&#45;&gt;Replication transcription complex</title>
<path fill="none" stroke="black" d="M713.418,-734.437C698.634,-751.811 682.391,-774.11 673,-797.054 603.874,-965.946 693.187,-1037.05 620,-1204.22 613.473,-1219.13 603.239,-1233.43 592.762,-1245.67"/>
<polygon fill="black" stroke="black" points="589.915,-1243.6 585.878,-1253.4 595.142,-1248.26 589.915,-1243.6"/>
</g>
<!-- SARS&#45;CoV&#45;2 pp1ab products -->
<g id="node28" class="node"><title>SARS&#45;CoV&#45;2 pp1ab products</title>
<ellipse fill="none" stroke="black" cx="888" cy="-699.536" rx="37.8075" ry="37.8075"/>
<text text-anchor="middle" x="888" y="-698.336" font-family="Times,serif" font-size="4.00">SARS&#45;CoV&#45;2 pp1ab products</text>
</g>
<!-- SARS&#45;CoV&#45;2 pp1ab products&#45;&gt;Replication transcription complex -->
<g id="edge60" class="edge"><title>SARS&#45;CoV&#45;2 pp1ab products&#45;&gt;Replication transcription complex</title>
<path fill="none" stroke="black" d="M897.883,-736.204C908.999,-783.074 922.412,-867.141 897,-932.819 838.877,-1083.04 679.303,-1202.63 599.993,-1254.8"/>
<polygon fill="black" stroke="black" points="597.662,-1252.14 591.191,-1260.53 601.481,-1258.01 597.662,-1252.14"/>
</g>
<!-- CTSB -->
<g id="node29" class="node"><title>CTSB</title>
<ellipse fill="none" stroke="black" cx="618" cy="-217.248" rx="18" ry="18"/>
<text text-anchor="middle" x="618" y="-216.048" font-family="Times,serif" font-size="4.00">CTSB</text>
</g>
<!-- CTSB&#45;&gt;S1 -->
<g id="edge62" class="edge"><title>CTSB&#45;&gt;S1</title>
<path fill="none" stroke="black" d="M627.177,-201.713C638.05,-184.491 656.312,-155.567 669.194,-135.164"/>
<polygon fill="black" stroke="black" points="672.309,-136.787 674.688,-126.463 666.39,-133.05 672.309,-136.787"/>
</g>
<!-- CTSB&#45;&gt;S2 -->
<g id="edge61" class="edge"><title>CTSB&#45;&gt;S2</title>
<path fill="none" stroke="black" d="M618.991,-198.986C619.924,-182.72 621.339,-158.082 622.427,-139.127"/>
<polygon fill="black" stroke="black" points="625.929,-139.186 623.008,-129.001 618.94,-138.784 625.929,-139.186"/>
</g>
<!-- Nucleoporin_gRNA complex &#45;&gt;M -->
<g id="edge64" class="edge"><title>Nucleoporin_gRNA complex &#45;&gt;M</title>
<path fill="none" stroke="black" d="M1124.48,-144.803C1130.95,-157.276 1137.86,-171.756 1143,-185.428 1225.86,-405.96 1276,-462.952 1276,-698.536 1276,-1609.55 1276,-1609.55 1276,-1609.55 1276,-1668.01 1219.04,-1717.46 1186,-1741.23"/>
<polygon fill="black" stroke="black" points="1183.97,-1738.38 1177.77,-1746.97 1187.98,-1744.12 1183.97,-1738.38"/>
</g>
<!-- Nucleoporin_gRNA complex &#45;&gt;Orf7a -->
<g id="edge63" class="edge"><title>Nucleoporin_gRNA complex &#45;&gt;Orf7a</title>
<path fill="none" stroke="black" d="M1114.13,-148.574C1133.74,-240.761 1182,-488.968 1182,-698.536 1182,-1532.75 1182,-1532.75 1182,-1532.75 1182,-1576.69 1174.04,-1627.25 1168.43,-1657.46"/>
<polygon fill="black" stroke="black" points="1164.93,-1657.14 1166.48,-1667.62 1171.8,-1658.45 1164.93,-1657.14"/>
</g>
<!-- Nucleoporin_gRNA complex &#45;&gt;E -->
<g id="edge65" class="edge"><title>Nucleoporin_gRNA complex &#45;&gt;E</title>
<path fill="none" stroke="black" d="M1139.36,-90.9181C1170.17,-73.556 1215.22,-48.177 1242.74,-32.671"/>
<polygon fill="black" stroke="black" points="1244.69,-35.5857 1251.69,-27.6275 1241.26,-29.4871 1244.69,-35.5857"/>
</g>
<!-- Nucleoporin_gRNA complex &#45;&gt;Nucleocapsid -->
<g id="edge66" class="edge"><title>Nucleoporin_gRNA complex &#45;&gt;Nucleocapsid</title>
<path fill="none" stroke="black" d="M1106,-149.636C1106,-188.054 1106,-249.192 1106,-302.068 1106,-399.964 1106,-399.964 1106,-399.964 1106,-608.922 1030,-654.978 1030,-863.937 1030,-1422 1030,-1422 1030,-1422 1030,-1476.23 1021.87,-1538.92 1016.25,-1575.79"/>
<polygon fill="black" stroke="black" points="1012.75,-1575.5 1014.66,-1585.92 1019.66,-1576.58 1012.75,-1575.5"/>
</g>
<!-- SARS&#45;CoV&#45;2 structural protein coding (+)sgmRNAs&#45;&gt;SARS&#45;CoV&#45;2 structural proteins -->
<g id="edge67" class="edge"><title>SARS&#45;CoV&#45;2 structural protein coding (+)sgmRNAs&#45;&gt;SARS&#45;CoV&#45;2 structural proteins</title>
<path fill="none" stroke="black" d="M341.914,-494.244C323.819,-475.683 303.018,-454.347 285.786,-436.671"/>
<polygon fill="black" stroke="black" points="288.125,-434.056 278.638,-429.339 283.112,-438.942 288.125,-434.056"/>
</g>
<!-- Replication transcription complex&#45;&gt;SARS&#45;CoV&#45;2 accessory protein coding (+)sgmRNAs -->
<g id="edge70" class="edge"><title>Replication transcription complex&#45;&gt;SARS&#45;CoV&#45;2 accessory protein coding (+)sgmRNAs</title>
<path fill="none" stroke="black" d="M597.187,-1274.51C700.618,-1250.81 954,-1175.1 954,-1002.17 954,-1002.17 954,-1002.17 954,-863.937 954,-763.174 955.965,-736.576 935,-638.018 932.864,-627.978 929.985,-617.552 926.801,-607.414"/>
<polygon fill="black" stroke="black" points="930.096,-606.227 923.67,-597.804 923.44,-608.396 930.096,-606.227"/>
</g>
<!-- Replication transcription complex&#45;&gt;Replication transcription complex_SARS&#45;CoV&#45;2 (&#45;)gRNA -->
<g id="edge72" class="edge"><title>Replication transcription complex&#45;&gt;Replication transcription complex_SARS&#45;CoV&#45;2 (&#45;)gRNA</title>
<path fill="none" stroke="black" d="M522.422,-1253.47C507.657,-1237.7 489.845,-1217.73 473.6,-1198.85"/>
<polygon fill="black" stroke="black" points="476.148,-1196.44 466.988,-1191.12 470.828,-1200.99 476.148,-1196.44"/>
</g>
<!-- Replication transcription complex&#45;&gt;N (+)sgmRNA -->
<g id="edge71" class="edge"><title>Replication transcription complex&#45;&gt;N (+)sgmRNA</title>
<path fill="none" stroke="black" d="M510.979,-1274.66C407.274,-1251.23 152,-1175.89 152,-1002.17 152,-1002.17 152,-1002.17 152,-863.937 152,-757.4 152,-631.127 152,-572.862"/>
<polygon fill="black" stroke="black" points="155.5,-572.794 152,-562.794 148.5,-572.794 155.5,-572.794"/>
</g>
<!-- Replication transcription complex&#45;&gt;Replication transcription complex_SARS&#45;CoV&#45;2 (+)gRNA -->
<g id="edge69" class="edge"><title>Replication transcription complex&#45;&gt;Replication transcription complex_SARS&#45;CoV&#45;2 (+)gRNA</title>
<path fill="none" stroke="black" d="M542.59,-1241.7C527.655,-1172.03 502.88,-1030.6 489.847,-942.512"/>
<polygon fill="black" stroke="black" points="493.304,-941.96 488.394,-932.572 486.377,-942.973 493.304,-941.96"/>
</g>
<!-- Replication transcription complex&#45;&gt;SARS&#45;CoV&#45;2 structural protein coding (+)sgmRNAs -->
<g id="edge68" class="edge"><title>Replication transcription complex&#45;&gt;SARS&#45;CoV&#45;2 structural protein coding (+)sgmRNAs</title>
<path fill="none" stroke="black" d="M559.771,-1240.45C577.703,-1104.52 629.359,-688.535 597,-638.018 566.229,-589.98 505.176,-565.266 456.46,-552.752"/>
<polygon fill="black" stroke="black" points="457.126,-549.311 446.581,-550.335 455.463,-556.111 457.126,-549.311"/>
</g>
<!-- SARS&#45;CoV&#45;2 accessory proteins&#45;&gt;Orf7a -->
<g id="edge73" class="edge"><title>SARS&#45;CoV&#45;2 accessory proteins&#45;&gt;Orf7a</title>
<path fill="none" stroke="black" d="M952.226,-434.492C959.727,-447.379 967.566,-462.399 973,-476.86 1037.43,-648.335 1144,-1100.06 1144,-1283.24 1144,-1532.75 1144,-1532.75 1144,-1532.75 1144,-1576.69 1151.96,-1627.25 1157.57,-1657.46"/>
<polygon fill="black" stroke="black" points="1154.2,-1658.45 1159.52,-1667.62 1161.07,-1657.14 1154.2,-1658.45"/>
</g>
<!-- S2&#45;&gt;M -->
<g id="edge75" class="edge"><title>S2&#45;&gt;M</title>
<path fill="none" stroke="black" d="M605.998,-113.175C503.687,-121.959 0,-171.817 0,-302.068 0,-1609.55 0,-1609.55 0,-1609.55 0,-1681.16 63.4034,-1679.72 131,-1703.36 228.057,-1737.29 978.867,-1752.95 1134.73,-1755.85"/>
<polygon fill="black" stroke="black" points="1134.84,-1759.36 1144.9,-1756.04 1134.97,-1752.36 1134.84,-1759.36"/>
</g>
<!-- S2&#45;&gt;Orf7a -->
<g id="edge74" class="edge"><title>S2&#45;&gt;Orf7a</title>
<path fill="none" stroke="black" d="M608.114,-119.549C587.277,-130.829 551.649,-153.815 537,-185.428 525.108,-211.091 519.523,-226.83 537,-249.068 552.686,-269.027 962.88,-339.288 981,-357.068 1277.47,-647.981 1106,-867.876 1106,-1283.24 1106,-1532.75 1106,-1532.75 1106,-1532.75 1106,-1580.75 1131.34,-1632.15 1148.23,-1661.07"/>
<polygon fill="black" stroke="black" points="1145.44,-1663.21 1153.59,-1669.98 1151.44,-1659.6 1145.44,-1663.21"/>
</g>
<!-- S2&#45;&gt;E -->
<g id="edge76" class="edge"><title>S2&#45;&gt;E</title>
<path fill="none" stroke="black" d="M633.051,-94.6346C638.818,-86.4652 647.068,-77.0367 657,-72 760.7,-19.413 1132.6,-17.9985 1238.61,-18.6999"/>
<polygon fill="black" stroke="black" points="1238.82,-22.2015 1248.84,-18.7801 1238.87,-15.2017 1238.82,-22.2015"/>
</g>
<!-- S2&#45;&gt;Nucleocapsid -->
<g id="edge77" class="edge"><title>S2&#45;&gt;Nucleocapsid</title>
<path fill="none" stroke="black" d="M606.591,-116.576C548.953,-133.226 360.595,-192.114 230,-285.068 135.254,-352.506 94.4939,-368.606 52,-476.86 -1.54673,-613.271 76,-989.327 76,-1135.87 76,-1422 76,-1422 76,-1422 76,-1457.76 102.178,-1461.45 134,-1477.75 286.536,-1555.88 837.357,-1596.31 978.083,-1605.5"/>
<polygon fill="black" stroke="black" points="978.027,-1609 988.232,-1606.16 978.478,-1602.02 978.027,-1609"/>
</g>
<!-- N (&#45;)sgmRNA&#45;&gt;N (+)sgmRNA -->
<g id="edge78" class="edge"><title>N (&#45;)sgmRNA&#45;&gt;N (+)sgmRNA</title>
<path fill="none" stroke="black" d="M274.208,-678.276C268.453,-666.065 260.292,-650.511 251,-638.018 229.289,-608.828 198.82,-580.181 177.436,-561.558"/>
<polygon fill="black" stroke="black" points="179.588,-558.793 169.722,-554.932 175.026,-564.103 179.588,-558.793"/>
</g>
<!-- SARS&#45;CoV&#45;2 polyprotein 1ab&#45;&gt;SARS&#45;CoV&#45;2 pp1a and pp1ab products -->
<g id="edge79" class="edge"><title>SARS&#45;CoV&#45;2 polyprotein 1ab&#45;&gt;SARS&#45;CoV&#45;2 pp1a and pp1ab products</title>
<path fill="none" stroke="black" d="M829.948,-832.431C814.875,-808.749 793.955,-775.88 776.769,-748.88"/>
<polygon fill="black" stroke="black" points="779.655,-746.896 771.333,-740.339 773.75,-750.654 779.655,-746.896"/>
</g>
<!-- SARS&#45;CoV&#45;2 polyprotein 1ab&#45;&gt;SARS&#45;CoV&#45;2 pp1ab products -->
<g id="edge80" class="edge"><title>SARS&#45;CoV&#45;2 polyprotein 1ab&#45;&gt;SARS&#45;CoV&#45;2 pp1ab products</title>
<path fill="none" stroke="black" d="M858.433,-827.673C864.012,-803.685 871.373,-772.034 877.354,-746.314"/>
<polygon fill="black" stroke="black" points="880.799,-746.95 879.656,-736.417 873.981,-745.364 880.799,-746.95"/>
</g>
<!-- FURIN -->
<g id="node38" class="node"><title>FURIN</title>
<ellipse fill="none" stroke="black" cx="804" cy="-217.248" rx="18" ry="18"/>
<text text-anchor="middle" x="804" y="-216.048" font-family="Times,serif" font-size="4.00">FURIN</text>
</g>
<!-- FURIN&#45;&gt;S1 -->
<g id="edge84" class="edge"><title>FURIN&#45;&gt;S1</title>
<path fill="none" stroke="black" d="M793.583,-202.441C788.895,-196.767 783.058,-190.38 777,-185.428 752.031,-165.019 738.478,-170.424 714,-149.428 708.832,-144.996 703.919,-139.57 699.62,-134.231"/>
<polygon fill="black" stroke="black" points="702.257,-131.916 693.422,-126.067 696.681,-136.149 702.257,-131.916"/>
</g>
<!-- FURIN&#45;&gt;ACE2 (15 Kda) -->
<g id="edge82" class="edge"><title>FURIN&#45;&gt;ACE2 (15 Kda)</title>
<path fill="none" stroke="black" d="M795.589,-200.824C787.127,-185.303 773.855,-160.964 763.319,-141.642"/>
<polygon fill="black" stroke="black" points="766.26,-139.725 758.4,-132.621 760.114,-143.076 766.26,-139.725"/>
</g>
<!-- FURIN&#45;&gt;ACE2 (100 Kda) -->
<g id="edge81" class="edge"><title>FURIN&#45;&gt;ACE2 (100 Kda)</title>
<path fill="none" stroke="black" d="M805.816,-198.986C807.326,-184.638 809.522,-163.775 811.387,-146.045"/>
<polygon fill="black" stroke="black" points="814.874,-146.353 812.44,-136.041 807.913,-145.62 814.874,-146.353"/>
</g>
<!-- FURIN&#45;&gt;S2 -->
<g id="edge83" class="edge"><title>FURIN&#45;&gt;S2</title>
<path fill="none" stroke="black" d="M794.343,-202.054C789.707,-196.175 783.701,-189.737 777,-185.428 730.164,-155.314 703.827,-179.556 657,-149.428 650.708,-145.38 644.919,-139.795 640.005,-134.163"/>
<polygon fill="black" stroke="black" points="642.473,-131.647 633.476,-126.052 637.02,-136.037 642.473,-131.647"/>
</g>
<!-- SARS&#45;CoV&#45;2 polyprotein 1a&#45;&gt;Nsp11 -->
<g id="edge86" class="edge"><title>SARS&#45;CoV&#45;2 polyprotein 1a&#45;&gt;Nsp11</title>
<path fill="none" stroke="black" d="M707.051,-829.683C696.293,-798.844 680.721,-754.204 670.988,-726.303"/>
<polygon fill="black" stroke="black" points="674.285,-725.127 667.686,-716.837 667.676,-727.432 674.285,-725.127"/>
</g>
<!-- SARS&#45;CoV&#45;2 polyprotein 1a&#45;&gt;SARS&#45;CoV&#45;2 pp1a and pp1ab products -->
<g id="edge85" class="edge"><title>SARS&#45;CoV&#45;2 polyprotein 1a&#45;&gt;SARS&#45;CoV&#45;2 pp1a and pp1ab products</title>
<path fill="none" stroke="black" d="M724.925,-828.078C728.375,-807.199 732.801,-780.414 736.706,-756.784"/>
<polygon fill="black" stroke="black" points="740.166,-757.314 738.343,-746.877 733.259,-756.173 740.166,-757.314"/>
</g>
</g>
</svg>
