<?xml version="1.0" encoding="UTF-8" standalone="no"?>
<!DOCTYPE svg PUBLIC "-//W3C//DTD SVG 1.1//EN"
 "http://www.w3.org/Graphics/SVG/1.1/DTD/svg11.dtd">
<!-- Generated by graphviz version 2.38.0 (20140413.2041)
 -->
<!-- Title: G Pages: 1 -->
<svg width="1061pt" height="1873pt"
 viewBox="0.00 0.00 1061.00 1873.45" xmlns="http://www.w3.org/2000/svg" xmlns:xlink="http://www.w3.org/1999/xlink">
<g id="graph0" class="graph" transform="scale(1 1) rotate(0) translate(4 1869.45)">
<title>G</title>
<polygon fill="white" stroke="none" points="-4,4 -4,-1869.45 1057,-1869.45 1057,4 -4,4"/>
<!-- Type I interferon signaling pathway -->
<g id="node1" class="node"><title>Type I interferon signaling pathway</title>
<ellipse fill="none" stroke="black" cx="777" cy="-1819.84" rx="45.717" ry="45.717"/>
<text text-anchor="middle" x="777" y="-1818.64" font-family="Times,serif" font-size="4.00">Type I interferon signaling pathway</text>
</g>
<!-- LY6E -->
<g id="node2" class="node"><title>LY6E</title>
<ellipse fill="none" stroke="black" cx="777" cy="-1720.23" rx="18" ry="18"/>
<text text-anchor="middle" x="777" y="-1719.03" font-family="Times,serif" font-size="4.00">LY6E</text>
</g>
<!-- Type I interferon signaling pathway&#45;&gt;LY6E -->
<g id="edge1" class="edge"><title>Type I interferon signaling pathway&#45;&gt;LY6E</title>
<path fill="none" stroke="black" d="M777,-1774.04C777,-1765.35 777,-1756.5 777,-1748.59"/>
<polygon fill="black" stroke="black" points="780.5,-1748.48 777,-1738.48 773.5,-1748.48 780.5,-1748.48"/>
</g>
<!-- Nucleocapsid -->
<g id="node12" class="node"><title>Nucleocapsid</title>
<ellipse fill="none" stroke="black" cx="539" cy="-1643.43" rx="22.6101" ry="22.6101"/>
<text text-anchor="middle" x="539" y="-1642.23" font-family="Times,serif" font-size="4.00">Nucleocapsid</text>
</g>
<!-- LY6E&#45;&gt;Nucleocapsid -->
<g id="edge4" class="edge"><title>LY6E&#45;&gt;Nucleocapsid</title>
<path fill="none" stroke="black" d="M759.884,-1713.85C720.197,-1701.38 621.413,-1670.33 570.477,-1654.32"/>
<polygon fill="black" stroke="black" points="571.255,-1650.9 560.666,-1651.24 569.156,-1657.58 571.255,-1650.9"/>
</g>
<!-- Orf7a -->
<g id="node16" class="node"><title>Orf7a</title>
<ellipse fill="none" stroke="black" cx="286" cy="-162" rx="18" ry="18"/>
<text text-anchor="middle" x="286" y="-160.8" font-family="Times,serif" font-size="4.00">Orf7a</text>
</g>
<!-- LY6E&#45;&gt;Orf7a -->
<g id="edge5" class="edge"><title>LY6E&#45;&gt;Orf7a</title>
<path fill="none" stroke="black" d="M758.937,-1719.35C642.274,-1719.62 0,-1713.8 0,-1553.28 0,-1553.28 0,-1553.28 0,-360.248 0,-291.947 1.70404,-261.097 53,-216 83.3774,-189.294 202.667,-172.521 257.791,-166.045"/>
<polygon fill="black" stroke="black" points="258.378,-169.5 267.915,-164.887 257.582,-162.546 258.378,-169.5"/>
</g>
<!-- E -->
<g id="node17" class="node"><title>E</title>
<ellipse fill="none" stroke="black" cx="503" cy="-18" rx="18" ry="18"/>
<text text-anchor="middle" x="503" y="-16.8" font-family="Times,serif" font-size="4.00">E</text>
</g>
<!-- LY6E&#45;&gt;E -->
<g id="edge2" class="edge"><title>LY6E&#45;&gt;E</title>
<path fill="none" stroke="black" d="M795.182,-1718.66C832.771,-1716.65 920.336,-1707.51 978,-1666.23 1027,-1631.16 1053,-1613.54 1053,-1553.28 1053,-1553.28 1053,-1553.28 1053,-161 1053,-98.8016 1002.18,-96.467 945,-72 869.781,-39.8166 616.66,-24.6156 531.346,-20.3199"/>
<polygon fill="black" stroke="black" points="531.283,-16.8126 521.124,-19.8173 530.94,-23.8042 531.283,-16.8126"/>
</g>
<!-- M -->
<g id="node21" class="node"><title>M</title>
<ellipse fill="none" stroke="black" cx="503" cy="-90" rx="18" ry="18"/>
<text text-anchor="middle" x="503" y="-88.8" font-family="Times,serif" font-size="4.00">M</text>
</g>
<!-- LY6E&#45;&gt;M -->
<g id="edge3" class="edge"><title>LY6E&#45;&gt;M</title>
<path fill="none" stroke="black" d="M794.501,-1715.92C849.464,-1704.41 1015,-1660.82 1015,-1553.28 1015,-1553.28 1015,-1553.28 1015,-881.781 1015,-632.059 1075.9,-517.837 912,-329.428 800.17,-200.876 601.255,-124.173 529.627,-99.6447"/>
<polygon fill="black" stroke="black" points="530.602,-96.28 520.008,-96.4043 528.367,-102.914 530.602,-96.28"/>
</g>
<!-- Replication transcription complex_N oligomer -->
<g id="node3" class="node"><title>Replication transcription complex_N oligomer</title>
<ellipse fill="none" stroke="black" cx="791" cy="-557.813" rx="56.9917" ry="56.9917"/>
<text text-anchor="middle" x="791" y="-556.613" font-family="Times,serif" font-size="4.00">Replication transcription complex_N oligomer</text>
</g>
<!-- Replication transcription complex -->
<g id="node5" class="node"><title>Replication transcription complex</title>
<ellipse fill="none" stroke="black" cx="694" cy="-1196.08" rx="44.0348" ry="44.0348"/>
<text text-anchor="middle" x="694" y="-1194.88" font-family="Times,serif" font-size="4.00">Replication transcription complex</text>
</g>
<!-- Replication transcription complex_N oligomer&#45;&gt;Replication transcription complex -->
<g id="edge6" class="edge"><title>Replication transcription complex_N oligomer&#45;&gt;Replication transcription complex</title>
<path fill="none" stroke="black" d="M754.88,-601.856C744.805,-616.405 735.2,-633.347 730,-650.558 712.686,-707.869 727.512,-725.446 730,-785.262 730.667,-801.304 732.333,-805.221 733,-821.262 738.445,-952.173 761.493,-988.402 732,-1116.06 729.482,-1126.96 725.277,-1138.12 720.562,-1148.48"/>
<polygon fill="black" stroke="black" points="717.287,-1147.22 716.122,-1157.75 723.599,-1150.24 717.287,-1147.22"/>
</g>
<!-- N -->
<g id="node35" class="node"><title>N</title>
<ellipse fill="none" stroke="black" cx="791" cy="-447.068" rx="18" ry="18"/>
<text text-anchor="middle" x="791" y="-445.868" font-family="Times,serif" font-size="4.00">N</text>
</g>
<!-- Replication transcription complex_N oligomer&#45;&gt;N -->
<g id="edge7" class="edge"><title>Replication transcription complex_N oligomer&#45;&gt;N</title>
<path fill="none" stroke="black" d="M784.252,-501.166C784.275,-491.969 784.557,-482.821 785.096,-474.774"/>
<polygon fill="black" stroke="black" points="788.602,-474.852 785.991,-464.584 781.629,-474.239 788.602,-474.852"/>
</g>
<!-- ACE2 (15 Kda) -->
<g id="node4" class="node"><title>ACE2 (15 Kda)</title>
<ellipse fill="none" stroke="black" cx="423" cy="-254.714" rx="24.2908" ry="24.2908"/>
<text text-anchor="middle" x="423" y="-253.514" font-family="Times,serif" font-size="4.00">ACE2 (15 Kda)</text>
</g>
<!-- SARS&#45;CoV&#45;2 accessory protein coding (+)sgmRNAs -->
<g id="node7" class="node"><title>SARS&#45;CoV&#45;2 accessory protein coding (+)sgmRNAs</title>
<ellipse fill="none" stroke="black" cx="243" cy="-717.91" rx="62.658" ry="62.658"/>
<text text-anchor="middle" x="243" y="-716.71" font-family="Times,serif" font-size="4.00">SARS&#45;CoV&#45;2 accessory protein coding (+)sgmRNAs</text>
</g>
<!-- Replication transcription complex&#45;&gt;SARS&#45;CoV&#45;2 accessory protein coding (+)sgmRNAs -->
<g id="edge11" class="edge"><title>Replication transcription complex&#45;&gt;SARS&#45;CoV&#45;2 accessory protein coding (+)sgmRNAs</title>
<path fill="none" stroke="black" d="M650.35,-1188.89C548.852,-1171.79 298.794,-1113.42 209,-944.299 182.784,-894.924 195.855,-831.408 212.837,-784.393"/>
<polygon fill="black" stroke="black" points="216.155,-785.513 216.391,-774.921 209.601,-783.054 216.155,-785.513"/>
</g>
<!-- Replication transcription complex_SARS&#45;CoV&#45;2 (+)gRNA -->
<g id="node8" class="node"><title>Replication transcription complex_SARS&#45;CoV&#45;2 (+)gRNA</title>
<ellipse fill="none" stroke="black" cx="540" cy="-1048.18" rx="67.7647" ry="67.7647"/>
<text text-anchor="middle" x="540" y="-1046.98" font-family="Times,serif" font-size="4.00">Replication transcription complex_SARS&#45;CoV&#45;2 (+)gRNA</text>
</g>
<!-- Replication transcription complex&#45;&gt;Replication transcription complex_SARS&#45;CoV&#45;2 (+)gRNA -->
<g id="edge12" class="edge"><title>Replication transcription complex&#45;&gt;Replication transcription complex_SARS&#45;CoV&#45;2 (+)gRNA</title>
<path fill="none" stroke="black" d="M660.007,-1167.98C640.35,-1150.51 615.275,-1127.13 593.103,-1105.74"/>
<polygon fill="black" stroke="black" points="595.324,-1103.02 585.707,-1098.57 590.453,-1108.05 595.324,-1103.02"/>
</g>
<!-- N (+)sgmRNA -->
<g id="node9" class="node"><title>N (+)sgmRNA</title>
<ellipse fill="none" stroke="black" cx="660" cy="-717.91" rx="23.1702" ry="23.1702"/>
<text text-anchor="middle" x="660" y="-716.71" font-family="Times,serif" font-size="4.00">N (+)sgmRNA</text>
</g>
<!-- Replication transcription complex&#45;&gt;N (+)sgmRNA -->
<g id="edge10" class="edge"><title>Replication transcription complex&#45;&gt;N (+)sgmRNA</title>
<path fill="none" stroke="black" d="M703.614,-1152.88C717.889,-1082.87 740.144,-938.792 712,-821.262 708.419,-806.309 690.266,-772.202 676.407,-747.461"/>
<polygon fill="black" stroke="black" points="679.31,-745.483 671.345,-738.496 673.214,-748.925 679.31,-745.483"/>
</g>
<!-- SARS&#45;CoV&#45;2 structural protein coding (+)sgmRNAs -->
<g id="node23" class="node"><title>SARS&#45;CoV&#45;2 structural protein coding (+)sgmRNAs</title>
<ellipse fill="none" stroke="black" cx="546" cy="-717.91" rx="62.0973" ry="62.0973"/>
<text text-anchor="middle" x="546" y="-716.71" font-family="Times,serif" font-size="4.00">SARS&#45;CoV&#45;2 structural protein coding (+)sgmRNAs</text>
</g>
<!-- Replication transcription complex&#45;&gt;SARS&#45;CoV&#45;2 structural protein coding (+)sgmRNAs -->
<g id="edge8" class="edge"><title>Replication transcription complex&#45;&gt;SARS&#45;CoV&#45;2 structural protein coding (+)sgmRNAs</title>
<path fill="none" stroke="black" d="M683.736,-1152.97C663.08,-1068.9 616.544,-883.03 594,-821.262 589.415,-808.701 583.871,-795.576 578.203,-783.077"/>
<polygon fill="black" stroke="black" points="581.226,-781.274 573.858,-773.661 574.87,-784.207 581.226,-781.274"/>
</g>
<!-- Replication transcription complex_SARS&#45;CoV&#45;2 (&#45;)gRNA -->
<g id="node26" class="node"><title>Replication transcription complex_SARS&#45;CoV&#45;2 (&#45;)gRNA</title>
<ellipse fill="none" stroke="black" cx="806" cy="-717.91" rx="67.2042" ry="67.2042"/>
<text text-anchor="middle" x="806" y="-716.71" font-family="Times,serif" font-size="4.00">Replication transcription complex_SARS&#45;CoV&#45;2 (&#45;)gRNA</text>
</g>
<!-- Replication transcription complex&#45;&gt;Replication transcription complex_SARS&#45;CoV&#45;2 (&#45;)gRNA -->
<g id="edge9" class="edge"><title>Replication transcription complex&#45;&gt;Replication transcription complex_SARS&#45;CoV&#45;2 (&#45;)gRNA</title>
<path fill="none" stroke="black" d="M728.528,-1168.33C745.283,-1154.93 763.817,-1137.07 774,-1116.06 823.59,-1013.74 818.91,-878.773 811.646,-795.466"/>
<polygon fill="black" stroke="black" points="815.115,-794.961 810.727,-785.317 808.143,-795.592 815.115,-794.961"/>
</g>
<!-- SARS&#45;CoV&#45;2 polyprotein 1a -->
<g id="node6" class="node"><title>SARS&#45;CoV&#45;2 polyprotein 1a</title>
<ellipse fill="none" stroke="black" cx="662" cy="-1445.74" rx="37.2466" ry="37.2466"/>
<text text-anchor="middle" x="662" y="-1444.54" font-family="Times,serif" font-size="4.00">SARS&#45;CoV&#45;2 polyprotein 1a</text>
</g>
<!-- Nsp11 -->
<g id="node28" class="node"><title>Nsp11</title>
<ellipse fill="none" stroke="black" cx="610" cy="-1323.83" rx="18" ry="18"/>
<text text-anchor="middle" x="610" y="-1322.63" font-family="Times,serif" font-size="4.00">Nsp11</text>
</g>
<!-- SARS&#45;CoV&#45;2 polyprotein 1a&#45;&gt;Nsp11 -->
<g id="edge14" class="edge"><title>SARS&#45;CoV&#45;2 polyprotein 1a&#45;&gt;Nsp11</title>
<path fill="none" stroke="black" d="M647.515,-1411.34C639.046,-1391.81 628.535,-1367.57 620.795,-1349.72"/>
<polygon fill="black" stroke="black" points="624,-1348.32 616.811,-1340.53 617.578,-1351.1 624,-1348.32"/>
</g>
<!-- SARS&#45;CoV&#45;2 pp1a and pp1ab products -->
<g id="node38" class="node"><title>SARS&#45;CoV&#45;2 pp1a and pp1ab products</title>
<ellipse fill="none" stroke="black" cx="694" cy="-1323.83" rx="47.9605" ry="47.9605"/>
<text text-anchor="middle" x="694" y="-1322.63" font-family="Times,serif" font-size="4.00">SARS&#45;CoV&#45;2 pp1a and pp1ab products</text>
</g>
<!-- SARS&#45;CoV&#45;2 polyprotein 1a&#45;&gt;SARS&#45;CoV&#45;2 pp1a and pp1ab products -->
<g id="edge13" class="edge"><title>SARS&#45;CoV&#45;2 polyprotein 1a&#45;&gt;SARS&#45;CoV&#45;2 pp1a and pp1ab products</title>
<path fill="none" stroke="black" d="M671.342,-1409.74C673.805,-1400.51 676.523,-1390.32 679.198,-1380.3"/>
<polygon fill="black" stroke="black" points="682.649,-1380.94 681.845,-1370.37 675.885,-1379.13 682.649,-1380.94"/>
</g>
<!-- SARS&#45;CoV&#45;2 accessory proteins -->
<g id="node32" class="node"><title>SARS&#45;CoV&#45;2 accessory proteins</title>
<ellipse fill="none" stroke="black" cx="233" cy="-557.813" rx="41.7924" ry="41.7924"/>
<text text-anchor="middle" x="233" y="-556.613" font-family="Times,serif" font-size="4.00">SARS&#45;CoV&#45;2 accessory proteins</text>
</g>
<!-- SARS&#45;CoV&#45;2 accessory protein coding (+)sgmRNAs&#45;&gt;SARS&#45;CoV&#45;2 accessory proteins -->
<g id="edge15" class="edge"><title>SARS&#45;CoV&#45;2 accessory protein coding (+)sgmRNAs&#45;&gt;SARS&#45;CoV&#45;2 accessory proteins</title>
<path fill="none" stroke="black" d="M239.105,-655.333C238.161,-640.403 237.161,-624.597 236.25,-610.194"/>
<polygon fill="black" stroke="black" points="239.729,-609.746 235.604,-599.987 232.743,-610.188 239.729,-609.746"/>
</g>
<!-- Replication transcription complex_SARS&#45;CoV&#45;2 (+)gRNA&#45;&gt;Replication transcription complex -->
<g id="edge16" class="edge"><title>Replication transcription complex_SARS&#45;CoV&#45;2 (+)gRNA&#45;&gt;Replication transcription complex</title>
<path fill="none" stroke="black" d="M591.775,-1092.34C613.486,-1112.2 638.169,-1135.63 657.884,-1155.09"/>
<polygon fill="black" stroke="black" points="655.619,-1157.77 665.18,-1162.34 660.553,-1152.81 655.619,-1157.77"/>
</g>
<!-- N (&#45;)sgmRNA -->
<g id="node13" class="node"><title>N (&#45;)sgmRNA</title>
<ellipse fill="none" stroke="black" cx="562" cy="-882.781" rx="22.6101" ry="22.6101"/>
<text text-anchor="middle" x="562" y="-881.581" font-family="Times,serif" font-size="4.00">N (&#45;)sgmRNA</text>
</g>
<!-- Replication transcription complex_SARS&#45;CoV&#45;2 (+)gRNA&#45;&gt;N (&#45;)sgmRNA -->
<g id="edge20" class="edge"><title>Replication transcription complex_SARS&#45;CoV&#45;2 (+)gRNA&#45;&gt;N (&#45;)sgmRNA</title>
<path fill="none" stroke="black" d="M548.948,-980.72C551.985,-958.161 555.239,-933.996 557.738,-915.436"/>
<polygon fill="black" stroke="black" points="561.213,-915.857 559.079,-905.479 554.275,-914.922 561.213,-915.857"/>
</g>
<!-- SARS&#45;CoV&#45;2 structural protein coding (&#45;)sgmRNAs -->
<g id="node19" class="node"><title>SARS&#45;CoV&#45;2 structural protein coding (&#45;)sgmRNAs</title>
<ellipse fill="none" stroke="black" cx="460" cy="-882.781" rx="61.5366" ry="61.5366"/>
<text text-anchor="middle" x="460" y="-881.581" font-family="Times,serif" font-size="4.00">SARS&#45;CoV&#45;2 structural protein coding (&#45;)sgmRNAs</text>
</g>
<!-- Replication transcription complex_SARS&#45;CoV&#45;2 (+)gRNA&#45;&gt;SARS&#45;CoV&#45;2 structural protein coding (&#45;)sgmRNAs -->
<g id="edge19" class="edge"><title>Replication transcription complex_SARS&#45;CoV&#45;2 (+)gRNA&#45;&gt;SARS&#45;CoV&#45;2 structural protein coding (&#45;)sgmRNAs</title>
<path fill="none" stroke="black" d="M510.438,-986.801C504.17,-973.999 497.535,-960.446 491.208,-947.523"/>
<polygon fill="black" stroke="black" points="494.206,-945.687 486.665,-938.245 487.919,-948.765 494.206,-945.687"/>
</g>
<!-- SARS&#45;CoV&#45;2 accessory protein coding (&#45;)sgmRNAs -->
<g id="node24" class="node"><title>SARS&#45;CoV&#45;2 accessory protein coding (&#45;)sgmRNAs</title>
<ellipse fill="none" stroke="black" cx="280" cy="-882.781" rx="61.5366" ry="61.5366"/>
<text text-anchor="middle" x="280" y="-881.581" font-family="Times,serif" font-size="4.00">SARS&#45;CoV&#45;2 accessory protein coding (&#45;)sgmRNAs</text>
</g>
<!-- Replication transcription complex_SARS&#45;CoV&#45;2 (+)gRNA&#45;&gt;SARS&#45;CoV&#45;2 accessory protein coding (&#45;)sgmRNAs -->
<g id="edge17" class="edge"><title>Replication transcription complex_SARS&#45;CoV&#45;2 (+)gRNA&#45;&gt;SARS&#45;CoV&#45;2 accessory protein coding (&#45;)sgmRNAs</title>
<path fill="none" stroke="black" d="M482.942,-1011.32C440.708,-984.78 383.287,-948.693 340.301,-921.678"/>
<polygon fill="black" stroke="black" points="341.961,-918.587 331.632,-916.23 338.237,-924.514 341.961,-918.587"/>
</g>
<!--  SARS&#45;CoV&#45;2 (&#45;)gRNA -->
<g id="node33" class="node"><title> SARS&#45;CoV&#45;2 (&#45;)gRNA</title>
<ellipse fill="none" stroke="black" cx="672" cy="-882.781" rx="31.0804" ry="31.0804"/>
<text text-anchor="middle" x="672" y="-881.581" font-family="Times,serif" font-size="4.00"> SARS&#45;CoV&#45;2 (&#45;)gRNA</text>
</g>
<!-- Replication transcription complex_SARS&#45;CoV&#45;2 (+)gRNA&#45;&gt; SARS&#45;CoV&#45;2 (&#45;)gRNA -->
<g id="edge18" class="edge"><title>Replication transcription complex_SARS&#45;CoV&#45;2 (+)gRNA&#45;&gt; SARS&#45;CoV&#45;2 (&#45;)gRNA</title>
<path fill="none" stroke="black" d="M582.492,-994.581C603.569,-968.49 628.325,-937.845 646.453,-915.405"/>
<polygon fill="black" stroke="black" points="649.251,-917.511 652.813,-907.532 643.806,-913.112 649.251,-917.511"/>
</g>
<!-- N (+)sgmRNA&#45;&gt;N -->
<g id="edge21" class="edge"><title>N (+)sgmRNA&#45;&gt;N</title>
<path fill="none" stroke="black" d="M662.319,-694.542C667.512,-653.157 683.095,-563.201 725,-501.068 735.785,-485.077 752.86,-471.551 766.94,-462.167"/>
<polygon fill="black" stroke="black" points="769.107,-464.936 775.664,-456.613 765.348,-459.031 769.107,-464.936"/>
</g>
<!-- Camostat mesylate -->
<g id="node10" class="node"><title>Camostat mesylate</title>
<ellipse fill="none" stroke="black" cx="438" cy="-361.248" rx="29.3373" ry="29.3373"/>
<text text-anchor="middle" x="438" y="-360.048" font-family="Times,serif" font-size="4.00">Camostat mesylate</text>
</g>
<!-- Camostat mesylate&#45;&gt;ACE2 (15 Kda) -->
<g id="edge24" class="edge"><title>Camostat mesylate&#45;&gt;ACE2 (15 Kda)</title>
<path fill="none" stroke="black" d="M433.98,-332.235C432.085,-319.03 429.81,-303.172 427.823,-289.324"/>
<polygon fill="black" stroke="black" points="431.256,-288.606 426.371,-279.204 424.327,-289.6 431.256,-288.606"/>
</g>
<!-- S2 -->
<g id="node11" class="node"><title>S2</title>
<ellipse fill="none" stroke="black" cx="309" cy="-254.714" rx="18" ry="18"/>
<text text-anchor="middle" x="309" y="-253.514" font-family="Times,serif" font-size="4.00">S2</text>
</g>
<!-- Camostat mesylate&#45;&gt;S2 -->
<g id="edge23" class="edge"><title>Camostat mesylate&#45;&gt;S2</title>
<path fill="none" stroke="black" d="M415.978,-341.346C410.858,-337.247 405.339,-333.057 400,-329.428 373.008,-311.084 360.299,-315.215 336,-293.428 331.391,-289.296 327.115,-284.244 323.388,-279.198"/>
<polygon fill="black" stroke="black" points="326.219,-277.137 317.672,-270.875 320.448,-281.1 326.219,-277.137"/>
</g>
<!-- ACE2 (100 Kda) -->
<g id="node14" class="node"><title>ACE2 (100 Kda)</title>
<ellipse fill="none" stroke="black" cx="491" cy="-254.714" rx="25.4118" ry="25.4118"/>
<text text-anchor="middle" x="491" y="-253.514" font-family="Times,serif" font-size="4.00">ACE2 (100 Kda)</text>
</g>
<!-- Camostat mesylate&#45;&gt;ACE2 (100 Kda) -->
<g id="edge22" class="edge"><title>Camostat mesylate&#45;&gt;ACE2 (100 Kda)</title>
<path fill="none" stroke="black" d="M450.83,-334.943C458.136,-320.532 467.352,-302.355 475.113,-287.048"/>
<polygon fill="black" stroke="black" points="478.327,-288.449 479.728,-277.947 472.084,-285.283 478.327,-288.449"/>
</g>
<!-- S1 -->
<g id="node36" class="node"><title>S1</title>
<ellipse fill="none" stroke="black" cx="363" cy="-254.714" rx="18" ry="18"/>
<text text-anchor="middle" x="363" y="-253.514" font-family="Times,serif" font-size="4.00">S1</text>
</g>
<!-- Camostat mesylate&#45;&gt;S1 -->
<g id="edge25" class="edge"><title>Camostat mesylate&#45;&gt;S1</title>
<path fill="none" stroke="black" d="M421.33,-337.062C412.093,-324.209 400.405,-307.937 390,-293.428 386.392,-288.398 382.517,-282.987 378.859,-277.879"/>
<polygon fill="black" stroke="black" points="381.663,-275.782 372.996,-269.688 375.971,-279.857 381.663,-275.782"/>
</g>
<!-- S2&#45;&gt;Nucleocapsid -->
<g id="edge28" class="edge"><title>S2&#45;&gt;Nucleocapsid</title>
<path fill="none" stroke="black" d="M291.851,-261.033C264.523,-270.39 211.204,-292.395 182,-329.428 116.684,-412.255 114,-451.331 114,-556.813 114,-1446.74 114,-1446.74 114,-1446.74 114,-1508.94 93.3789,-1541.29 138,-1584.63 190.19,-1635.31 419.889,-1641.83 506.13,-1642.46"/>
<polygon fill="black" stroke="black" points="506.131,-1645.96 516.149,-1642.51 506.167,-1638.96 506.131,-1645.96"/>
</g>
<!-- S2&#45;&gt;Orf7a -->
<g id="edge29" class="edge"><title>S2&#45;&gt;Orf7a</title>
<path fill="none" stroke="black" d="M304.781,-237.076C301.41,-223.777 296.619,-204.883 292.72,-189.505"/>
<polygon fill="black" stroke="black" points="296.042,-188.366 290.192,-179.533 289.257,-190.086 296.042,-188.366"/>
</g>
<!-- S2&#45;&gt;E -->
<g id="edge26" class="edge"><title>S2&#45;&gt;E</title>
<path fill="none" stroke="black" d="M317.651,-238.926C330.571,-217.283 356.166,-176.07 382,-144 414.485,-103.674 457.728,-61.298 482.751,-37.704"/>
<polygon fill="black" stroke="black" points="485.291,-40.1201 490.198,-30.73 480.506,-35.0107 485.291,-40.1201"/>
</g>
<!-- S2&#45;&gt;M -->
<g id="edge27" class="edge"><title>S2&#45;&gt;M</title>
<path fill="none" stroke="black" d="M318.04,-238.938C322.885,-231.623 329.24,-222.905 336,-216 336.39,-215.601 435.359,-141.58 480.737,-107.647"/>
<polygon fill="black" stroke="black" points="482.889,-110.408 488.802,-101.616 478.697,-104.802 482.889,-110.408"/>
</g>
<!--  SARS&#45;CoV&#45;2 (+)gRNA -->
<g id="node27" class="node"><title> SARS&#45;CoV&#45;2 (+)gRNA</title>
<ellipse fill="none" stroke="black" cx="708" cy="-1552.28" rx="32.201" ry="32.201"/>
<text text-anchor="middle" x="708" y="-1551.08" font-family="Times,serif" font-size="4.00"> SARS&#45;CoV&#45;2 (+)gRNA</text>
</g>
<!-- Nucleocapsid&#45;&gt; SARS&#45;CoV&#45;2 (+)gRNA -->
<g id="edge31" class="edge"><title>Nucleocapsid&#45;&gt; SARS&#45;CoV&#45;2 (+)gRNA</title>
<path fill="none" stroke="black" d="M559.05,-1631.85C586.383,-1617.43 635.866,-1591.33 670.261,-1573.18"/>
<polygon fill="black" stroke="black" points="672.32,-1576.06 679.532,-1568.29 669.054,-1569.86 672.32,-1576.06"/>
</g>
<!-- Nucleocapsid&#45;&gt;N -->
<g id="edge30" class="edge"><title>Nucleocapsid&#45;&gt;N</title>
<path fill="none" stroke="black" d="M561.779,-1640.33C602.184,-1635.74 687.893,-1622.05 749,-1584.63 800.695,-1552.96 810.82,-1536.5 841,-1483.93 938.106,-1314.76 901,-1244.23 901,-1049.18 901,-1049.18 901,-1049.18 901,-716.91 901,-619.007 907.977,-584.652 857,-501.068 846.957,-484.601 829.864,-471.088 815.589,-461.828"/>
<polygon fill="black" stroke="black" points="817.069,-458.629 806.718,-456.369 813.4,-464.59 817.069,-458.629"/>
</g>
<!-- N (&#45;)sgmRNA&#45;&gt;N (+)sgmRNA -->
<g id="edge32" class="edge"><title>N (&#45;)sgmRNA&#45;&gt;N (+)sgmRNA</title>
<path fill="none" stroke="black" d="M573.434,-862.779C590.602,-834.246 623.148,-780.157 643.073,-747.042"/>
<polygon fill="black" stroke="black" points="646.179,-748.669 648.335,-738.296 640.181,-745.06 646.179,-748.669"/>
</g>
<!-- S -->
<g id="node15" class="node"><title>S</title>
<ellipse fill="none" stroke="black" cx="531" cy="-447.068" rx="18" ry="18"/>
<text text-anchor="middle" x="531" y="-445.868" font-family="Times,serif" font-size="4.00">S</text>
</g>
<!-- ACE2_SPIKE complex -->
<g id="node25" class="node"><title>ACE2_SPIKE complex</title>
<ellipse fill="none" stroke="black" cx="517" cy="-361.248" rx="31.6406" ry="31.6406"/>
<text text-anchor="middle" x="517" y="-360.048" font-family="Times,serif" font-size="4.00">ACE2_SPIKE complex</text>
</g>
<!-- S&#45;&gt;ACE2_SPIKE complex -->
<g id="edge33" class="edge"><title>S&#45;&gt;ACE2_SPIKE complex</title>
<path fill="none" stroke="black" d="M528.167,-429.106C526.888,-421.447 525.317,-412.041 523.761,-402.73"/>
<polygon fill="black" stroke="black" points="527.194,-402.036 522.095,-392.75 520.29,-403.19 527.194,-402.036"/>
</g>
<!-- Orf7a&#45;&gt;Nucleocapsid -->
<g id="edge35" class="edge"><title>Orf7a&#45;&gt;Nucleocapsid</title>
<path fill="none" stroke="black" d="M268.361,-166.5C240.549,-172.693 185.793,-187.686 148,-216 83.4761,-264.342 38,-279.624 38,-360.248 38,-1446.74 38,-1446.74 38,-1446.74 38,-1515.07 50.4948,-1544.78 106,-1584.63 170.085,-1630.63 415.976,-1640.04 505.854,-1641.95"/>
<polygon fill="black" stroke="black" points="505.952,-1645.45 516.018,-1642.15 506.088,-1638.45 505.952,-1645.45"/>
</g>
<!-- Orf7a&#45;&gt;E -->
<g id="edge36" class="edge"><title>Orf7a&#45;&gt;E</title>
<path fill="none" stroke="black" d="M281.349,-144.42C281.559,-124.44 289.345,-91.1689 310,-72 355.728,-29.5629 433.291,-20.8627 474.987,-19.2418"/>
<polygon fill="black" stroke="black" points="475.117,-22.7396 485.016,-18.9618 474.922,-15.7423 475.117,-22.7396"/>
</g>
<!-- Orf7a&#45;&gt;M -->
<g id="edge34" class="edge"><title>Orf7a&#45;&gt;M</title>
<path fill="none" stroke="black" d="M302.628,-154.288C340.093,-141.113 430.4,-111.966 475.988,-98.3172"/>
<polygon fill="black" stroke="black" points="477.181,-101.614 485.78,-95.4248 475.199,-94.9009 477.181,-101.614"/>
</g>
<!-- E&#45;&gt;Nucleocapsid -->
<g id="edge38" class="edge"><title>E&#45;&gt;Nucleocapsid</title>
<path fill="none" stroke="black" d="M520.922,-20.0048C611.542,-25.5617 1015,-56.1875 1015,-161 1015,-448.068 1015,-448.068 1015,-448.068 1015,-641.567 977,-688.281 977,-881.781 977,-1446.74 977,-1446.74 977,-1446.74 977,-1624.11 673.887,-1641.8 571.974,-1642.74"/>
<polygon fill="black" stroke="black" points="571.917,-1639.24 561.932,-1642.78 571.947,-1646.24 571.917,-1639.24"/>
</g>
<!-- E&#45;&gt;Orf7a -->
<g id="edge39" class="edge"><title>E&#45;&gt;Orf7a</title>
<path fill="none" stroke="black" d="M484.966,-19.2866C449.918,-21.0197 373.323,-29.9392 328,-72 310.102,-88.6099 301.867,-115.808 296.361,-135.773"/>
<polygon fill="black" stroke="black" points="292.974,-134.889 293.693,-145.459 299.723,-136.748 292.974,-134.889"/>
</g>
<!-- E&#45;&gt;M -->
<g id="edge37" class="edge"><title>E&#45;&gt;M</title>
<path fill="none" stroke="black" d="M508.791,-35.1473C509.708,-43.2615 509.967,-53.3027 509.57,-62.5079"/>
<polygon fill="black" stroke="black" points="506.058,-62.531 508.801,-72.7646 513.038,-63.0542 506.058,-62.531"/>
</g>
<!-- Nucleoporin_gRNA complex  -->
<g id="node18" class="node"><title>Nucleoporin_gRNA complex </title>
<ellipse fill="none" stroke="black" cx="623" cy="-254.714" rx="38.9294" ry="38.9294"/>
<text text-anchor="middle" x="623" y="-253.514" font-family="Times,serif" font-size="4.00">Nucleoporin_gRNA complex </text>
</g>
<!-- Nucleoporin_gRNA complex &#45;&gt;Nucleocapsid -->
<g id="edge42" class="edge"><title>Nucleoporin_gRNA complex &#45;&gt;Nucleocapsid</title>
<path fill="none" stroke="black" d="M632.461,-292.331C648.406,-363.177 671.958,-520.311 596,-614.558 560.792,-658.244 518.034,-614.557 475,-650.558 335.139,-767.563 370,-864.832 370,-1047.18 370,-1446.74 370,-1446.74 370,-1446.74 370,-1531.72 462.407,-1598.02 510.561,-1626.8"/>
<polygon fill="black" stroke="black" points="508.882,-1629.88 519.283,-1631.9 512.412,-1623.83 508.882,-1629.88"/>
</g>
<!-- Nucleoporin_gRNA complex &#45;&gt;Orf7a -->
<g id="edge43" class="edge"><title>Nucleoporin_gRNA complex &#45;&gt;Orf7a</title>
<path fill="none" stroke="black" d="M587.604,-238.623C569.168,-231.14 546.12,-222.367 525,-216 449.815,-193.335 358.661,-175.778 313.753,-167.762"/>
<polygon fill="black" stroke="black" points="314.079,-164.266 303.623,-165.977 312.864,-171.16 314.079,-164.266"/>
</g>
<!-- Nucleoporin_gRNA complex &#45;&gt;E -->
<g id="edge40" class="edge"><title>Nucleoporin_gRNA complex &#45;&gt;E</title>
<path fill="none" stroke="black" d="M617.176,-216.422C612.876,-194.6 605.851,-166.92 595,-144 575.816,-103.479 542.706,-62.8284 521.876,-39.3331"/>
<polygon fill="black" stroke="black" points="524.356,-36.8561 515.064,-31.7663 519.154,-41.5399 524.356,-36.8561"/>
</g>
<!-- Nucleoporin_gRNA complex &#45;&gt;M -->
<g id="edge41" class="edge"><title>Nucleoporin_gRNA complex &#45;&gt;M</title>
<path fill="none" stroke="black" d="M610.543,-218.033C601.523,-195.356 587.797,-166.199 570,-144 557.9,-128.907 540.738,-115.436 526.813,-105.852"/>
<polygon fill="black" stroke="black" points="528.48,-102.758 518.215,-100.137 524.605,-108.587 528.48,-102.758"/>
</g>
<!-- SARS&#45;CoV&#45;2 structural protein coding (&#45;)sgmRNAs&#45;&gt;SARS&#45;CoV&#45;2 structural protein coding (+)sgmRNAs -->
<g id="edge44" class="edge"><title>SARS&#45;CoV&#45;2 structural protein coding (&#45;)sgmRNAs&#45;&gt;SARS&#45;CoV&#45;2 structural protein coding (+)sgmRNAs</title>
<path fill="none" stroke="black" d="M488.398,-827.999C496.096,-813.42 504.503,-797.5 512.455,-782.438"/>
<polygon fill="black" stroke="black" points="515.764,-783.669 517.338,-773.192 509.574,-780.4 515.764,-783.669"/>
</g>
<!-- SARS&#45;CoV&#45;2 pp1ab products -->
<g id="node20" class="node"><title>SARS&#45;CoV&#45;2 pp1ab products</title>
<ellipse fill="none" stroke="black" cx="797" cy="-1323.83" rx="37.8075" ry="37.8075"/>
<text text-anchor="middle" x="797" y="-1322.63" font-family="Times,serif" font-size="4.00">SARS&#45;CoV&#45;2 pp1ab products</text>
</g>
<!-- SARS&#45;CoV&#45;2 pp1ab products&#45;&gt;Replication transcription complex -->
<g id="edge45" class="edge"><title>SARS&#45;CoV&#45;2 pp1ab products&#45;&gt;Replication transcription complex</title>
<path fill="none" stroke="black" d="M773.628,-1294.29C760.245,-1277.96 743.207,-1257.16 728.329,-1238.99"/>
<polygon fill="black" stroke="black" points="730.71,-1236.37 721.666,-1230.86 725.295,-1240.81 730.71,-1236.37"/>
</g>
<!-- M&#45;&gt;Nucleocapsid -->
<g id="edge47" class="edge"><title>M&#45;&gt;Nucleocapsid</title>
<path fill="none" stroke="black" d="M486.337,-97.2224C462.859,-106.255 418.999,-124.108 384,-144 335.758,-171.419 323.296,-178.936 282,-216 231.984,-260.891 209.825,-268.252 182,-329.428 139.796,-422.217 152,-454.877 152,-556.813 152,-1446.74 152,-1446.74 152,-1446.74 152,-1604.96 412.792,-1635.29 506.206,-1641.07"/>
<polygon fill="black" stroke="black" points="506.055,-1644.57 516.236,-1641.64 506.449,-1637.58 506.055,-1644.57"/>
</g>
<!-- M&#45;&gt;Orf7a -->
<g id="edge48" class="edge"><title>M&#45;&gt;Orf7a</title>
<path fill="none" stroke="black" d="M486.64,-97.6177C449.408,-110.723 359.045,-139.893 313.267,-153.606"/>
<polygon fill="black" stroke="black" points="312.025,-150.324 303.428,-156.515 314.01,-157.037 312.025,-150.324"/>
</g>
<!-- M&#45;&gt;E -->
<g id="edge46" class="edge"><title>M&#45;&gt;E</title>
<path fill="none" stroke="black" d="M497.199,-72.7646C496.287,-64.6365 496.032,-54.5915 496.435,-45.3923"/>
<polygon fill="black" stroke="black" points="499.945,-45.3827 497.209,-35.1473 492.965,-44.8551 499.945,-45.3827"/>
</g>
<!-- SARS&#45;CoV&#45;2 structural proteins -->
<g id="node22" class="node"><title>SARS&#45;CoV&#45;2 structural proteins</title>
<ellipse fill="none" stroke="black" cx="546" cy="-557.813" rx="41.2319" ry="41.2319"/>
<text text-anchor="middle" x="546" y="-556.613" font-family="Times,serif" font-size="4.00">SARS&#45;CoV&#45;2 structural proteins</text>
</g>
<!-- SARS&#45;CoV&#45;2 structural proteins&#45;&gt;S -->
<g id="edge51" class="edge"><title>SARS&#45;CoV&#45;2 structural proteins&#45;&gt;S</title>
<path fill="none" stroke="black" d="M540.457,-516.629C538.559,-502.872 536.482,-487.811 534.759,-475.318"/>
<polygon fill="black" stroke="black" points="538.183,-474.525 533.349,-465.098 531.248,-475.482 538.183,-474.525"/>
</g>
<!-- SARS&#45;CoV&#45;2 structural proteins&#45;&gt;E -->
<g id="edge50" class="edge"><title>SARS&#45;CoV&#45;2 structural proteins&#45;&gt;E</title>
<path fill="none" stroke="black" d="M583.899,-540.621C641.637,-513.104 745,-451.394 745,-362.248 745,-362.248 745,-362.248 745,-161 745,-62.686 594.588,-31.1306 530.927,-22.1778"/>
<polygon fill="black" stroke="black" points="531.166,-18.6792 520.795,-20.8424 530.252,-25.6192 531.166,-18.6792"/>
</g>
<!-- SARS&#45;CoV&#45;2 structural proteins&#45;&gt;M -->
<g id="edge49" class="edge"><title>SARS&#45;CoV&#45;2 structural proteins&#45;&gt;M</title>
<path fill="none" stroke="black" d="M552.392,-516.731C554.646,-500.709 556.893,-482.059 558,-465.068 561.917,-404.911 564.819,-389.326 558,-329.428 549.077,-251.052 524.162,-160.931 511.148,-117.34"/>
<polygon fill="black" stroke="black" points="514.43,-116.1 508.188,-107.539 507.729,-118.124 514.43,-116.1"/>
</g>
<!-- SARS&#45;CoV&#45;2 structural protein coding (+)sgmRNAs&#45;&gt;SARS&#45;CoV&#45;2 structural proteins -->
<g id="edge52" class="edge"><title>SARS&#45;CoV&#45;2 structural protein coding (+)sgmRNAs&#45;&gt;SARS&#45;CoV&#45;2 structural proteins</title>
<path fill="none" stroke="black" d="M546,-655.786C546,-640.543 546,-624.362 546,-609.674"/>
<polygon fill="black" stroke="black" points="549.5,-609.278 546,-599.279 542.5,-609.279 549.5,-609.278"/>
</g>
<!-- SARS&#45;CoV&#45;2 accessory protein coding (&#45;)sgmRNAs&#45;&gt;SARS&#45;CoV&#45;2 accessory protein coding (+)sgmRNAs -->
<g id="edge53" class="edge"><title>SARS&#45;CoV&#45;2 accessory protein coding (&#45;)sgmRNAs&#45;&gt;SARS&#45;CoV&#45;2 accessory protein coding (+)sgmRNAs</title>
<path fill="none" stroke="black" d="M266.537,-822.52C264.085,-811.726 261.506,-800.37 258.989,-789.292"/>
<polygon fill="black" stroke="black" points="262.329,-788.196 256.701,-779.22 255.503,-789.747 262.329,-788.196"/>
</g>
<!-- ACE2_SPIKE complex&#45;&gt;ACE2 (15 Kda) -->
<g id="edge58" class="edge"><title>ACE2_SPIKE complex&#45;&gt;ACE2 (15 Kda)</title>
<path fill="none" stroke="black" d="M496.138,-337.049C481.129,-320.357 460.905,-297.866 445.527,-280.766"/>
<polygon fill="black" stroke="black" points="448.129,-278.424 438.84,-273.329 442.924,-283.105 448.129,-278.424"/>
</g>
<!-- ACE2_SPIKE complex&#45;&gt;S2 -->
<g id="edge54" class="edge"><title>ACE2_SPIKE complex&#45;&gt;S2</title>
<path fill="none" stroke="black" d="M493.302,-339.994C487.87,-336.063 481.939,-332.283 476,-329.428 418.098,-301.591 389.004,-329.735 336,-293.428 330.808,-289.872 326.269,-284.971 322.469,-279.88"/>
<polygon fill="black" stroke="black" points="325.238,-277.722 316.787,-271.333 319.409,-281.598 325.238,-277.722"/>
</g>
<!-- ACE2_SPIKE complex&#45;&gt;ACE2 (100 Kda) -->
<g id="edge57" class="edge"><title>ACE2_SPIKE complex&#45;&gt;ACE2 (100 Kda)</title>
<path fill="none" stroke="black" d="M509.549,-330.293C506.4,-317.63 502.715,-302.816 499.464,-289.743"/>
<polygon fill="black" stroke="black" points="502.778,-288.565 496.967,-279.706 495.984,-290.255 502.778,-288.565"/>
</g>
<!-- ACE2_SPIKE complex&#45;&gt;Nucleoporin_gRNA complex  -->
<g id="edge56" class="edge"><title>ACE2_SPIKE complex&#45;&gt;Nucleoporin_gRNA complex </title>
<path fill="none" stroke="black" d="M539.221,-338.334C553.541,-324.213 572.447,-305.567 588.676,-289.564"/>
<polygon fill="black" stroke="black" points="591.255,-291.936 595.917,-282.422 586.34,-286.952 591.255,-291.936"/>
</g>
<!-- ACE2_SPIKE complex&#45;&gt;S1 -->
<g id="edge55" class="edge"><title>ACE2_SPIKE complex&#45;&gt;S1</title>
<path fill="none" stroke="black" d="M492.526,-340.312C487.239,-336.45 481.562,-332.617 476,-329.428 440.052,-308.821 422.402,-319.255 390,-293.428 385.079,-289.505 380.646,-284.463 376.861,-279.349"/>
<polygon fill="black" stroke="black" points="379.629,-277.194 371.134,-270.863 373.827,-281.11 379.629,-277.194"/>
</g>
<!-- Replication transcription complex_SARS&#45;CoV&#45;2 (&#45;)gRNA&#45;&gt;Replication transcription complex_N oligomer -->
<g id="edge61" class="edge"><title>Replication transcription complex_SARS&#45;CoV&#45;2 (&#45;)gRNA&#45;&gt;Replication transcription complex_N oligomer</title>
<path fill="none" stroke="black" d="M799.726,-650.779C798.906,-642.143 798.067,-633.296 797.248,-624.664"/>
<polygon fill="black" stroke="black" points="800.727,-624.281 796.298,-614.657 793.759,-624.942 800.727,-624.281"/>
</g>
<!-- Replication transcription complex_SARS&#45;CoV&#45;2 (&#45;)gRNA&#45;&gt;Replication transcription complex -->
<g id="edge59" class="edge"><title>Replication transcription complex_SARS&#45;CoV&#45;2 (&#45;)gRNA&#45;&gt;Replication transcription complex</title>
<path fill="none" stroke="black" d="M822.97,-783.176C836.294,-864.971 844.111,-1008.54 792,-1116.06 781.246,-1138.25 761.177,-1156.93 741.903,-1170.54"/>
<polygon fill="black" stroke="black" points="739.771,-1167.76 733.432,-1176.25 743.681,-1173.56 739.771,-1167.76"/>
</g>
<!-- Replication transcription complex_SARS&#45;CoV&#45;2 (&#45;)gRNA&#45;&gt; SARS&#45;CoV&#45;2 (+)gRNA -->
<g id="edge60" class="edge"><title>Replication transcription complex_SARS&#45;CoV&#45;2 (&#45;)gRNA&#45;&gt; SARS&#45;CoV&#45;2 (+)gRNA</title>
<path fill="none" stroke="black" d="M833.154,-779.677C838.202,-793.137 842.866,-807.497 846,-821.262 868.35,-919.443 863,-946.489 863,-1047.18 863,-1324.83 863,-1324.83 863,-1324.83 863,-1400.56 848.288,-1423.99 802,-1483.93 786.852,-1503.54 764.454,-1519.9 745.322,-1531.58"/>
<polygon fill="black" stroke="black" points="743.354,-1528.68 736.519,-1536.77 746.911,-1534.71 743.354,-1528.68"/>
</g>
<!--  SARS&#45;CoV&#45;2 (+)gRNA&#45;&gt;SARS&#45;CoV&#45;2 polyprotein 1a -->
<g id="edge63" class="edge"><title> SARS&#45;CoV&#45;2 (+)gRNA&#45;&gt;SARS&#45;CoV&#45;2 polyprotein 1a</title>
<path fill="none" stroke="black" d="M695.309,-1522.43C690.779,-1512.14 685.578,-1500.32 680.652,-1489.13"/>
<polygon fill="black" stroke="black" points="683.832,-1487.66 676.601,-1479.92 677.425,-1490.48 683.832,-1487.66"/>
</g>
<!--  SARS&#45;CoV&#45;2 (+)gRNA&#45;&gt;Replication transcription complex_SARS&#45;CoV&#45;2 (+)gRNA -->
<g id="edge65" class="edge"><title> SARS&#45;CoV&#45;2 (+)gRNA&#45;&gt;Replication transcription complex_SARS&#45;CoV&#45;2 (+)gRNA</title>
<path fill="none" stroke="black" d="M679.127,-1536.79C658.694,-1525.13 632.154,-1506.93 616,-1483.93 540.873,-1376.95 532.126,-1219.48 534.65,-1126.32"/>
<polygon fill="black" stroke="black" points="538.154,-1126.23 534.978,-1116.12 531.158,-1126.01 538.154,-1126.23"/>
</g>
<!--  SARS&#45;CoV&#45;2 (+)gRNA&#45;&gt;Nucleoporin_gRNA complex  -->
<g id="edge64" class="edge"><title> SARS&#45;CoV&#45;2 (+)gRNA&#45;&gt;Nucleoporin_gRNA complex </title>
<path fill="none" stroke="black" d="M731.377,-1529.43C735.717,-1525.98 740.353,-1522.65 745,-1519.93 784.297,-1496.86 809.707,-1517.05 841,-1483.93 897.39,-1424.24 939,-1208.59 939,-1049.18 939,-1049.18 939,-1049.18 939,-446.068 939,-322.7 760.094,-277.215 671.512,-262.254"/>
<polygon fill="black" stroke="black" points="671.864,-258.765 661.432,-260.618 670.742,-265.675 671.864,-258.765"/>
</g>
<!-- SARS&#45;CoV&#45;2 polyprotein 1ab -->
<g id="node39" class="node"><title>SARS&#45;CoV&#45;2 polyprotein 1ab</title>
<ellipse fill="none" stroke="black" cx="755" cy="-1445.74" rx="38.3684" ry="38.3684"/>
<text text-anchor="middle" x="755" y="-1444.54" font-family="Times,serif" font-size="4.00">SARS&#45;CoV&#45;2 polyprotein 1ab</text>
</g>
<!--  SARS&#45;CoV&#45;2 (+)gRNA&#45;&gt;SARS&#45;CoV&#45;2 polyprotein 1ab -->
<g id="edge62" class="edge"><title> SARS&#45;CoV&#45;2 (+)gRNA&#45;&gt;SARS&#45;CoV&#45;2 polyprotein 1ab</title>
<path fill="none" stroke="black" d="M720.967,-1522.43C725.423,-1512.53 730.515,-1501.2 735.379,-1490.38"/>
<polygon fill="black" stroke="black" points="738.664,-1491.61 739.573,-1481.05 732.28,-1488.74 738.664,-1491.61"/>
</g>
<!-- Nsp11&#45;&gt;Replication transcription complex -->
<g id="edge66" class="edge"><title>Nsp11&#45;&gt;Replication transcription complex</title>
<path fill="none" stroke="black" d="M618.374,-1307.44C623.523,-1298.21 630.382,-1286.32 637,-1276.1 644.692,-1264.21 653.446,-1251.66 661.746,-1240.13"/>
<polygon fill="black" stroke="black" points="664.644,-1242.1 667.687,-1231.95 658.979,-1237.99 664.644,-1242.1"/>
</g>
<!-- FURIN -->
<g id="node29" class="node"><title>FURIN</title>
<ellipse fill="none" stroke="black" cx="317" cy="-361.248" rx="18" ry="18"/>
<text text-anchor="middle" x="317" y="-360.048" font-family="Times,serif" font-size="4.00">FURIN</text>
</g>
<!-- FURIN&#45;&gt;ACE2 (15 Kda) -->
<g id="edge69" class="edge"><title>FURIN&#45;&gt;ACE2 (15 Kda)</title>
<path fill="none" stroke="black" d="M328.043,-346.55C332.742,-341.018 338.419,-334.708 344,-329.428 362.858,-311.586 371.147,-311.276 390,-293.428 393.773,-289.856 397.582,-285.899 401.204,-281.929"/>
<polygon fill="black" stroke="black" points="403.877,-284.19 407.881,-274.381 398.634,-279.552 403.877,-284.19"/>
</g>
<!-- FURIN&#45;&gt;S2 -->
<g id="edge68" class="edge"><title>FURIN&#45;&gt;S2</title>
<path fill="none" stroke="black" d="M315.679,-342.986C314.434,-326.72 312.549,-302.082 311.098,-283.127"/>
<polygon fill="black" stroke="black" points="314.576,-282.705 310.323,-273.001 307.596,-283.239 314.576,-282.705"/>
</g>
<!-- FURIN&#45;&gt;ACE2 (100 Kda) -->
<g id="edge67" class="edge"><title>FURIN&#45;&gt;ACE2 (100 Kda)</title>
<path fill="none" stroke="black" d="M326.947,-345.801C331.555,-340.019 337.46,-333.724 344,-329.428 387.701,-300.723 411.892,-321.505 456,-293.428 460.5,-290.564 464.805,-286.983 468.762,-283.177"/>
<polygon fill="black" stroke="black" points="471.521,-285.355 475.899,-275.707 466.46,-280.519 471.521,-285.355"/>
</g>
<!-- FURIN&#45;&gt;S1 -->
<g id="edge70" class="edge"><title>FURIN&#45;&gt;S1</title>
<path fill="none" stroke="black" d="M323.986,-344.372C331.426,-327.466 343.302,-300.477 351.999,-280.713"/>
<polygon fill="black" stroke="black" points="355.274,-281.96 356.099,-271.397 348.867,-279.141 355.274,-281.96"/>
</g>
<!-- CTSL -->
<g id="node30" class="node"><title>CTSL</title>
<ellipse fill="none" stroke="black" cx="263" cy="-361.248" rx="18" ry="18"/>
<text text-anchor="middle" x="263" y="-360.048" font-family="Times,serif" font-size="4.00">CTSL</text>
</g>
<!-- CTSL&#45;&gt;S2 -->
<g id="edge71" class="edge"><title>CTSL&#45;&gt;S2</title>
<path fill="none" stroke="black" d="M269.986,-344.372C277.426,-327.466 289.302,-300.477 297.999,-280.713"/>
<polygon fill="black" stroke="black" points="301.274,-281.96 302.099,-271.397 294.867,-279.141 301.274,-281.96"/>
</g>
<!-- CTSL&#45;&gt;S1 -->
<g id="edge72" class="edge"><title>CTSL&#45;&gt;S1</title>
<path fill="none" stroke="black" d="M274.043,-346.55C278.742,-341.018 284.419,-334.708 290,-329.428 308.858,-311.586 318.039,-312.173 336,-293.428 340.283,-288.958 344.428,-283.772 348.132,-278.703"/>
<polygon fill="black" stroke="black" points="351.052,-280.635 353.896,-270.429 345.308,-276.634 351.052,-280.635"/>
</g>
<!-- ACE2 -->
<g id="node31" class="node"><title>ACE2</title>
<ellipse fill="none" stroke="black" cx="477" cy="-447.068" rx="18" ry="18"/>
<text text-anchor="middle" x="477" y="-445.868" font-family="Times,serif" font-size="4.00">ACE2</text>
</g>
<!-- ACE2&#45;&gt;ACE2_SPIKE complex -->
<g id="edge73" class="edge"><title>ACE2&#45;&gt;ACE2_SPIKE complex</title>
<path fill="none" stroke="black" d="M484.524,-430.302C488.69,-421.572 494.058,-410.323 499.225,-399.495"/>
<polygon fill="black" stroke="black" points="502.532,-400.693 503.68,-390.161 496.214,-397.678 502.532,-400.693"/>
</g>
<!-- SARS&#45;CoV&#45;2 accessory proteins&#45;&gt;Orf7a -->
<g id="edge74" class="edge"><title>SARS&#45;CoV&#45;2 accessory proteins&#45;&gt;Orf7a</title>
<path fill="none" stroke="black" d="M212.33,-521.336C177.101,-455.73 114.889,-313.28 176,-216 193.84,-187.602 231.639,-174.062 257.916,-167.862"/>
<polygon fill="black" stroke="black" points="258.992,-171.211 268.039,-165.697 257.528,-164.366 258.992,-171.211"/>
</g>
<!--  SARS&#45;CoV&#45;2 (&#45;)gRNA&#45;&gt;Replication transcription complex_SARS&#45;CoV&#45;2 (&#45;)gRNA -->
<g id="edge75" class="edge"><title> SARS&#45;CoV&#45;2 (&#45;)gRNA&#45;&gt;Replication transcription complex_SARS&#45;CoV&#45;2 (&#45;)gRNA</title>
<path fill="none" stroke="black" d="M691.485,-858.098C708.596,-837.3 734.225,-806.149 756.902,-778.586"/>
<polygon fill="black" stroke="black" points="759.87,-780.488 763.52,-770.542 754.464,-776.041 759.87,-780.488"/>
</g>
<!-- TMPRSS2 -->
<g id="node34" class="node"><title>TMPRSS2</title>
<ellipse fill="none" stroke="black" cx="372" cy="-361.248" rx="18.6233" ry="18.6233"/>
<text text-anchor="middle" x="372" y="-360.048" font-family="Times,serif" font-size="4.00">TMPRSS2</text>
</g>
<!-- TMPRSS2&#45;&gt;ACE2 (15 Kda) -->
<g id="edge78" class="edge"><title>TMPRSS2&#45;&gt;ACE2 (15 Kda)</title>
<path fill="none" stroke="black" d="M379.746,-344.372C387.231,-329.029 398.768,-305.383 408.045,-286.368"/>
<polygon fill="black" stroke="black" points="411.283,-287.712 412.523,-277.189 404.992,-284.642 411.283,-287.712"/>
</g>
<!-- TMPRSS2&#45;&gt;S2 -->
<g id="edge77" class="edge"><title>TMPRSS2&#45;&gt;S2</title>
<path fill="none" stroke="black" d="M362.704,-344.824C352.256,-327.488 335.177,-299.149 323.088,-279.09"/>
<polygon fill="black" stroke="black" points="326.086,-277.283 317.926,-270.525 320.09,-280.896 326.086,-277.283"/>
</g>
<!-- TMPRSS2&#45;&gt;ACE2 (100 Kda) -->
<g id="edge76" class="edge"><title>TMPRSS2&#45;&gt;ACE2 (100 Kda)</title>
<path fill="none" stroke="black" d="M383.279,-346.313C388.126,-340.745 394.04,-334.472 400,-329.428 422.586,-310.315 433.313,-312.422 456,-293.428 460.09,-290.004 464.177,-286.125 468.039,-282.189"/>
<polygon fill="black" stroke="black" points="470.824,-284.337 475.131,-274.657 465.727,-279.539 470.824,-284.337"/>
</g>
<!-- TMPRSS2&#45;&gt;S1 -->
<g id="edge79" class="edge"><title>TMPRSS2&#45;&gt;S1</title>
<path fill="none" stroke="black" d="M370.473,-342.515C369.066,-326.176 366.958,-301.686 365.339,-282.881"/>
<polygon fill="black" stroke="black" points="368.819,-282.501 364.474,-272.839 361.845,-283.102 368.819,-282.501"/>
</g>
<!-- N&#45;&gt;Replication transcription complex_N oligomer -->
<g id="edge81" class="edge"><title>N&#45;&gt;Replication transcription complex_N oligomer</title>
<path fill="none" stroke="black" d="M796.009,-464.584C796.844,-471.954 797.379,-481.166 797.613,-490.896"/>
<polygon fill="black" stroke="black" points="794.117,-491.213 797.748,-501.166 801.116,-491.121 794.117,-491.213"/>
</g>
<!-- N&#45;&gt;Nucleoporin_gRNA complex  -->
<g id="edge80" class="edge"><title>N&#45;&gt;Nucleoporin_gRNA complex </title>
<path fill="none" stroke="black" d="M779.453,-432.984C754.119,-404.28 692.907,-334.922 654.995,-291.966"/>
<polygon fill="black" stroke="black" points="657.442,-289.45 648.201,-284.268 652.194,-294.082 657.442,-289.45"/>
</g>
<!-- CTSB -->
<g id="node37" class="node"><title>CTSB</title>
<ellipse fill="none" stroke="black" cx="209" cy="-361.248" rx="18" ry="18"/>
<text text-anchor="middle" x="209" y="-360.048" font-family="Times,serif" font-size="4.00">CTSB</text>
</g>
<!-- CTSB&#45;&gt;S2 -->
<g id="edge82" class="edge"><title>CTSB&#45;&gt;S2</title>
<path fill="none" stroke="black" d="M220.388,-346.892C225.14,-341.413 230.763,-335.05 236,-329.428 253.563,-310.574 274.295,-289.772 289.168,-275.087"/>
<polygon fill="black" stroke="black" points="291.689,-277.516 296.364,-268.008 286.78,-272.526 291.689,-277.516"/>
</g>
<!-- CTSB&#45;&gt;S1 -->
<g id="edge83" class="edge"><title>CTSB&#45;&gt;S1</title>
<path fill="none" stroke="black" d="M219.021,-345.91C223.641,-340.147 229.535,-333.837 236,-329.428 275.027,-302.816 298.325,-321.922 336,-293.428 341.02,-289.632 345.491,-284.638 349.281,-279.533"/>
<polygon fill="black" stroke="black" points="352.324,-281.279 354.992,-271.025 346.512,-277.377 352.324,-281.279"/>
</g>
<!-- SARS&#45;CoV&#45;2 pp1a and pp1ab products&#45;&gt;Replication transcription complex -->
<g id="edge84" class="edge"><title>SARS&#45;CoV&#45;2 pp1a and pp1ab products&#45;&gt;Replication transcription complex</title>
<path fill="none" stroke="black" d="M694,-1276C694,-1267.66 694,-1258.92 694,-1250.42"/>
<polygon fill="black" stroke="black" points="697.5,-1250.2 694,-1240.2 690.5,-1250.2 697.5,-1250.2"/>
</g>
<!-- SARS&#45;CoV&#45;2 polyprotein 1ab&#45;&gt;SARS&#45;CoV&#45;2 pp1ab products -->
<g id="edge86" class="edge"><title>SARS&#45;CoV&#45;2 polyprotein 1ab&#45;&gt;SARS&#45;CoV&#45;2 pp1ab products</title>
<path fill="none" stroke="black" d="M767.374,-1409.41C771.814,-1396.74 776.876,-1382.28 781.544,-1368.96"/>
<polygon fill="black" stroke="black" points="784.856,-1370.09 784.859,-1359.49 778.25,-1367.77 784.856,-1370.09"/>
</g>
<!-- SARS&#45;CoV&#45;2 polyprotein 1ab&#45;&gt;SARS&#45;CoV&#45;2 pp1a and pp1ab products -->
<g id="edge85" class="edge"><title>SARS&#45;CoV&#45;2 polyprotein 1ab&#45;&gt;SARS&#45;CoV&#45;2 pp1a and pp1ab products</title>
<path fill="none" stroke="black" d="M738.008,-1411.34C732.39,-1400.29 726.005,-1387.74 719.875,-1375.69"/>
<polygon fill="black" stroke="black" points="722.908,-1373.94 715.255,-1366.61 716.669,-1377.11 722.908,-1373.94"/>
</g>
</g>
</svg>
