<?xml version="1.0" encoding="UTF-8" standalone="no"?>
<!DOCTYPE svg PUBLIC "-//W3C//DTD SVG 1.1//EN"
 "http://www.w3.org/Graphics/SVG/1.1/DTD/svg11.dtd">
<!-- Generated by graphviz version 2.38.0 (20140413.2041)
 -->
<!-- Title: G Pages: 1 -->
<svg width="1274pt" height="947pt"
 viewBox="0.00 0.00 1274.00 946.87" xmlns="http://www.w3.org/2000/svg" xmlns:xlink="http://www.w3.org/1999/xlink">
<g id="graph0" class="graph" transform="scale(1 1) rotate(0) translate(4 942.871)">
<title>G</title>
<polygon fill="white" stroke="none" points="-4,4 -4,-942.871 1270,-942.871 1270,4 -4,4"/>
<!-- Type I interferon signaling pathway -->
<g id="node1" class="node"><title>Type I interferon signaling pathway</title>
<ellipse fill="none" stroke="black" cx="948" cy="-893.262" rx="45.717" ry="45.717"/>
<text text-anchor="middle" x="948" y="-892.062" font-family="Times,serif" font-size="4.00">Type I interferon signaling pathway</text>
</g>
<!-- LY6E -->
<g id="node2" class="node"><title>LY6E</title>
<ellipse fill="none" stroke="black" cx="948" cy="-793.654" rx="18" ry="18"/>
<text text-anchor="middle" x="948" y="-792.454" font-family="Times,serif" font-size="4.00">LY6E</text>
</g>
<!-- Type I interferon signaling pathway&#45;&gt;LY6E -->
<g id="edge1" class="edge"><title>Type I interferon signaling pathway&#45;&gt;LY6E</title>
<path fill="none" stroke="black" d="M948,-847.458C948,-838.775 948,-829.922 948,-822.009"/>
<polygon fill="black" stroke="black" points="951.5,-821.904 948,-811.904 944.5,-821.904 951.5,-821.904"/>
</g>
<!-- Nucleocapsid -->
<g id="node37" class="node"><title>Nucleocapsid</title>
<ellipse fill="none" stroke="black" cx="948" cy="-716.85" rx="22.6101" ry="22.6101"/>
<text text-anchor="middle" x="948" y="-715.65" font-family="Times,serif" font-size="4.00">Nucleocapsid</text>
</g>
<!-- LY6E&#45;&gt;Nucleocapsid -->
<g id="edge2" class="edge"><title>LY6E&#45;&gt;Nucleocapsid</title>
<path fill="none" stroke="black" d="M948,-775.304C948,-767.673 948,-758.461 948,-749.669"/>
<polygon fill="black" stroke="black" points="951.5,-749.662 948,-739.662 944.5,-749.662 951.5,-749.662"/>
</g>
<!-- E sgmRNA -->
<g id="node3" class="node"><title>E sgmRNA</title>
<ellipse fill="none" stroke="black" cx="576" cy="-311.584" rx="20.3062" ry="20.3062"/>
<text text-anchor="middle" x="576" y="-310.384" font-family="Times,serif" font-size="4.00">E sgmRNA</text>
</g>
<!-- E -->
<g id="node20" class="node"><title>E</title>
<ellipse fill="none" stroke="black" cx="576" cy="-231.068" rx="18" ry="18"/>
<text text-anchor="middle" x="576" y="-229.868" font-family="Times,serif" font-size="4.00">E</text>
</g>
<!-- E sgmRNA&#45;&gt;E -->
<g id="edge3" class="edge"><title>E sgmRNA&#45;&gt;E</title>
<path fill="none" stroke="black" d="M576,-291.176C576,-281.604 576,-269.895 576,-259.432"/>
<polygon fill="black" stroke="black" points="579.5,-259.12 576,-249.12 572.5,-259.12 579.5,-259.12"/>
</g>
<!-- ORF6 -->
<g id="node4" class="node"><title>ORF6</title>
<ellipse fill="none" stroke="black" cx="395" cy="-231.068" rx="18" ry="18"/>
<text text-anchor="middle" x="395" y="-229.868" font-family="Times,serif" font-size="4.00">ORF6</text>
</g>
<!-- NSP15 -->
<g id="node5" class="node"><title>NSP15</title>
<ellipse fill="none" stroke="black" cx="938" cy="-473.709" rx="18" ry="18"/>
<text text-anchor="middle" x="938" y="-472.509" font-family="Times,serif" font-size="4.00">NSP15</text>
</g>
<!-- RTC complex -->
<g id="node27" class="node"><title>RTC complex</title>
<ellipse fill="none" stroke="black" cx="614" cy="-396.905" rx="22.6101" ry="22.6101"/>
<text text-anchor="middle" x="614" y="-395.705" font-family="Times,serif" font-size="4.00">RTC complex</text>
</g>
<!-- NSP15&#45;&gt;RTC complex -->
<g id="edge4" class="edge"><title>NSP15&#45;&gt;RTC complex</title>
<path fill="none" stroke="black" d="M923.672,-462.319C919.72,-459.842 915.326,-457.422 911,-455.709 819.464,-419.459 702.769,-405.305 646.815,-400.323"/>
<polygon fill="black" stroke="black" points="647.037,-396.829 636.777,-399.47 646.445,-403.804 647.037,-396.829"/>
</g>
<!-- NSP3 -->
<g id="node6" class="node"><title>NSP3</title>
<ellipse fill="none" stroke="black" cx="452" cy="-473.709" rx="18" ry="18"/>
<text text-anchor="middle" x="452" y="-472.509" font-family="Times,serif" font-size="4.00">NSP3</text>
</g>
<!-- NSP3&#45;&gt;RTC complex -->
<g id="edge5" class="edge"><title>NSP3&#45;&gt;RTC complex</title>
<path fill="none" stroke="black" d="M466.607,-462.927C470.557,-460.445 474.88,-457.871 479,-455.709 513.785,-437.456 555.601,-420.236 583.384,-409.417"/>
<polygon fill="black" stroke="black" points="584.874,-412.594 592.946,-405.731 582.356,-406.062 584.874,-412.594"/>
</g>
<!-- NSP8 -->
<g id="node7" class="node"><title>NSP8</title>
<ellipse fill="none" stroke="black" cx="506" cy="-473.709" rx="18" ry="18"/>
<text text-anchor="middle" x="506" y="-472.509" font-family="Times,serif" font-size="4.00">NSP8</text>
</g>
<!-- NSP8&#45;&gt;RTC complex -->
<g id="edge6" class="edge"><title>NSP8&#45;&gt;RTC complex</title>
<path fill="none" stroke="black" d="M520.565,-462.621C537.67,-450.774 566.38,-430.888 587.471,-416.28"/>
<polygon fill="black" stroke="black" points="589.476,-419.149 595.704,-410.577 585.491,-413.394 589.476,-419.149"/>
</g>
<!-- NSP10 -->
<g id="node8" class="node"><title>NSP10</title>
<ellipse fill="none" stroke="black" cx="560" cy="-473.709" rx="18" ry="18"/>
<text text-anchor="middle" x="560" y="-472.509" font-family="Times,serif" font-size="4.00">NSP10</text>
</g>
<!-- NSP10&#45;&gt;RTC complex -->
<g id="edge7" class="edge"><title>NSP10&#45;&gt;RTC complex</title>
<path fill="none" stroke="black" d="M570.157,-458.639C577.188,-448.899 586.757,-435.644 595.161,-424.002"/>
<polygon fill="black" stroke="black" points="598.006,-426.04 601.022,-415.883 592.331,-421.943 598.006,-426.04"/>
</g>
<!-- TMPRSS2 -->
<g id="node9" class="node"><title>TMPRSS2</title>
<ellipse fill="none" stroke="black" cx="685" cy="-145.248" rx="18.6233" ry="18.6233"/>
<text text-anchor="middle" x="685" y="-144.048" font-family="Times,serif" font-size="4.00">TMPRSS2</text>
</g>
<!-- S2 -->
<g id="node18" class="node"><title>S2</title>
<ellipse fill="none" stroke="black" cx="559" cy="-38.7141" rx="18" ry="18"/>
<text text-anchor="middle" x="559" y="-37.5141" font-family="Times,serif" font-size="4.00">S2</text>
</g>
<!-- TMPRSS2&#45;&gt;S2 -->
<g id="edge8" class="edge"><title>TMPRSS2&#45;&gt;S2</title>
<path fill="none" stroke="black" d="M673.884,-130.114C669.062,-124.516 663.122,-118.274 657,-113.428 631.106,-92.9327 617.702,-98.1645 592,-77.4282 586.268,-72.8034 580.718,-67.1131 575.857,-61.5677"/>
<polygon fill="black" stroke="black" points="578.379,-59.1268 569.286,-53.6879 573.002,-63.6097 578.379,-59.1268"/>
</g>
<!-- ACE2 (100 Kda) -->
<g id="node34" class="node"><title>ACE2 (100 Kda)</title>
<ellipse fill="none" stroke="black" cx="750" cy="-38.7141" rx="25.4118" ry="25.4118"/>
<text text-anchor="middle" x="750" y="-37.5141" font-family="Times,serif" font-size="4.00">ACE2 (100 Kda)</text>
</g>
<!-- TMPRSS2&#45;&gt;ACE2 (100 Kda) -->
<g id="edge11" class="edge"><title>TMPRSS2&#45;&gt;ACE2 (100 Kda)</title>
<path fill="none" stroke="black" d="M694.591,-128.824C704.329,-113.162 719.651,-88.5212 731.717,-69.1168"/>
<polygon fill="black" stroke="black" points="734.692,-70.9611 737,-60.6208 728.747,-67.2647 734.692,-70.9611"/>
</g>
<!-- S1 -->
<g id="node46" class="node"><title>S1</title>
<ellipse fill="none" stroke="black" cx="619" cy="-38.7141" rx="18" ry="18"/>
<text text-anchor="middle" x="619" y="-37.5141" font-family="Times,serif" font-size="4.00">S1</text>
</g>
<!-- TMPRSS2&#45;&gt;S1 -->
<g id="edge10" class="edge"><title>TMPRSS2&#45;&gt;S1</title>
<path fill="none" stroke="black" d="M675.544,-129.271C664.602,-111.94 646.454,-83.1966 633.674,-62.9562"/>
<polygon fill="black" stroke="black" points="636.524,-60.9136 628.226,-54.3264 630.605,-64.6507 636.524,-60.9136"/>
</g>
<!-- ACE2 (15 Kda) -->
<g id="node52" class="node"><title>ACE2 (15 Kda)</title>
<ellipse fill="none" stroke="black" cx="682" cy="-38.7141" rx="24.2908" ry="24.2908"/>
<text text-anchor="middle" x="682" y="-37.5141" font-family="Times,serif" font-size="4.00">ACE2 (15 Kda)</text>
</g>
<!-- TMPRSS2&#45;&gt;ACE2 (15 Kda) -->
<g id="edge9" class="edge"><title>TMPRSS2&#45;&gt;ACE2 (15 Kda)</title>
<path fill="none" stroke="black" d="M684.491,-126.515C684.079,-112.14 683.485,-91.4571 682.981,-73.8863"/>
<polygon fill="black" stroke="black" points="686.466,-73.3279 682.681,-63.4324 679.469,-73.5287 686.466,-73.3279"/>
</g>
<!-- ACE2 -->
<g id="node10" class="node"><title>ACE2</title>
<ellipse fill="none" stroke="black" cx="726" cy="-231.068" rx="18" ry="18"/>
<text text-anchor="middle" x="726" y="-229.868" font-family="Times,serif" font-size="4.00">ACE2</text>
</g>
<!-- ACE2_SPIKE complex -->
<g id="node48" class="node"><title>ACE2_SPIKE complex</title>
<ellipse fill="none" stroke="black" cx="753" cy="-145.248" rx="31.6406" ry="31.6406"/>
<text text-anchor="middle" x="753" y="-144.048" font-family="Times,serif" font-size="4.00">ACE2_SPIKE complex</text>
</g>
<!-- ACE2&#45;&gt;ACE2_SPIKE complex -->
<g id="edge12" class="edge"><title>ACE2&#45;&gt;ACE2_SPIKE complex</title>
<path fill="none" stroke="black" d="M731.334,-213.508C733.939,-205.421 737.194,-195.317 740.383,-185.418"/>
<polygon fill="black" stroke="black" points="743.788,-186.26 743.523,-175.669 737.125,-184.114 743.788,-186.26"/>
</g>
<!-- ORF7a -->
<g id="node11" class="node"><title>ORF7a</title>
<ellipse fill="none" stroke="black" cx="261" cy="-231.068" rx="18" ry="18"/>
<text text-anchor="middle" x="261" y="-229.868" font-family="Times,serif" font-size="4.00">ORF7a</text>
</g>
<!-- NSP13 -->
<g id="node12" class="node"><title>NSP13</title>
<ellipse fill="none" stroke="black" cx="992" cy="-473.709" rx="18" ry="18"/>
<text text-anchor="middle" x="992" y="-472.509" font-family="Times,serif" font-size="4.00">NSP13</text>
</g>
<!-- NSP13&#45;&gt;RTC complex -->
<g id="edge13" class="edge"><title>NSP13&#45;&gt;RTC complex</title>
<path fill="none" stroke="black" d="M977.986,-462.411C973.963,-459.872 969.454,-457.399 965,-455.709 853.646,-413.468 710.88,-402.066 647.216,-399.011"/>
<polygon fill="black" stroke="black" points="647.127,-395.504 636.982,-398.56 646.819,-402.497 647.127,-395.504"/>
</g>
<!-- NSP11 -->
<g id="node13" class="node"><title>NSP11</title>
<ellipse fill="none" stroke="black" cx="236" cy="-473.709" rx="18" ry="18"/>
<text text-anchor="middle" x="236" y="-472.509" font-family="Times,serif" font-size="4.00">NSP11</text>
</g>
<!-- NSP11&#45;&gt;RTC complex -->
<g id="edge14" class="edge"><title>NSP11&#45;&gt;RTC complex</title>
<path fill="none" stroke="black" d="M250.014,-462.411C254.037,-459.872 258.546,-457.399 263,-455.709 374.354,-413.468 517.12,-402.066 580.784,-399.011"/>
<polygon fill="black" stroke="black" points="581.181,-402.497 591.018,-398.56 580.873,-395.504 581.181,-402.497"/>
</g>
<!-- ORF8 -->
<g id="node14" class="node"><title>ORF8</title>
<ellipse fill="none" stroke="black" cx="1059" cy="-231.068" rx="18" ry="18"/>
<text text-anchor="middle" x="1059" y="-229.868" font-family="Times,serif" font-size="4.00">ORF8</text>
</g>
<!-- CTSB -->
<g id="node15" class="node"><title>CTSB</title>
<ellipse fill="none" stroke="black" cx="554" cy="-145.248" rx="18" ry="18"/>
<text text-anchor="middle" x="554" y="-144.048" font-family="Times,serif" font-size="4.00">CTSB</text>
</g>
<!-- CTSB&#45;&gt;S2 -->
<g id="edge15" class="edge"><title>CTSB&#45;&gt;S2</title>
<path fill="none" stroke="black" d="M554.826,-126.986C555.604,-110.72 556.782,-86.0817 557.689,-67.1274"/>
<polygon fill="black" stroke="black" points="561.191,-67.1572 558.173,-57.0014 554.199,-66.8227 561.191,-67.1572"/>
</g>
<!-- CTSB&#45;&gt;S1 -->
<g id="edge16" class="edge"><title>CTSB&#45;&gt;S1</title>
<path fill="none" stroke="black" d="M563.313,-129.271C574.089,-111.94 591.962,-83.1966 604.548,-62.9562"/>
<polygon fill="black" stroke="black" points="607.606,-64.6668 609.914,-54.3264 601.661,-60.9704 607.606,-64.6668"/>
</g>
<!-- NSP6 -->
<g id="node16" class="node"><title>NSP6</title>
<ellipse fill="none" stroke="black" cx="614" cy="-473.709" rx="18" ry="18"/>
<text text-anchor="middle" x="614" y="-472.509" font-family="Times,serif" font-size="4.00">NSP6</text>
</g>
<!-- NSP6&#45;&gt;RTC complex -->
<g id="edge17" class="edge"><title>NSP6&#45;&gt;RTC complex</title>
<path fill="none" stroke="black" d="M614,-455.36C614,-447.728 614,-438.516 614,-429.724"/>
<polygon fill="black" stroke="black" points="617.5,-429.717 614,-419.717 610.5,-429.717 617.5,-429.717"/>
</g>
<!--  SARS&#45;CoV&#45;2 gRNA -->
<g id="node17" class="node"><title> SARS&#45;CoV&#45;2 gRNA</title>
<ellipse fill="none" stroke="black" cx="641" cy="-628.877" rx="29.3373" ry="29.3373"/>
<text text-anchor="middle" x="641" y="-627.677" font-family="Times,serif" font-size="4.00"> SARS&#45;CoV&#45;2 gRNA</text>
</g>
<!--  SARS&#45;CoV&#45;2 gRNA&#45;&gt;E sgmRNA -->
<g id="edge19" class="edge"><title> SARS&#45;CoV&#45;2 gRNA&#45;&gt;E sgmRNA</title>
<path fill="none" stroke="black" d="M612.099,-623.255C523.452,-608.431 258.408,-559.087 209,-491.709 152.935,-415.253 219.102,-480.242 530,-338.101 536.585,-335.09 543.503,-331.497 549.916,-327.971"/>
<polygon fill="black" stroke="black" points="551.864,-330.891 558.854,-322.928 548.425,-324.794 551.864,-330.891"/>
</g>
<!-- S sgmRNA -->
<g id="node22" class="node"><title>S sgmRNA</title>
<ellipse fill="none" stroke="black" cx="780" cy="-311.584" rx="20.3062" ry="20.3062"/>
<text text-anchor="middle" x="780" y="-310.384" font-family="Times,serif" font-size="4.00">S sgmRNA</text>
</g>
<!--  SARS&#45;CoV&#45;2 gRNA&#45;&gt;S sgmRNA -->
<g id="edge21" class="edge"><title> SARS&#45;CoV&#45;2 gRNA&#45;&gt;S sgmRNA</title>
<path fill="none" stroke="black" d="M669.926,-624.999C741.842,-617.436 926.692,-595.377 979,-563.709 1013.91,-542.572 1022.59,-530.257 1036,-491.709 1072.37,-387.179 942.833,-379.023 840,-338.101 829.32,-333.851 817.672,-328.957 807.505,-324.6"/>
<polygon fill="black" stroke="black" points="808.858,-321.372 798.29,-320.625 806.086,-327.8 808.858,-321.372"/>
</g>
<!-- M sgmRNA -->
<g id="node28" class="node"><title>M sgmRNA</title>
<ellipse fill="none" stroke="black" cx="643" cy="-311.584" rx="20.8674" ry="20.8674"/>
<text text-anchor="middle" x="643" y="-310.384" font-family="Times,serif" font-size="4.00">M sgmRNA</text>
</g>
<!--  SARS&#45;CoV&#45;2 gRNA&#45;&gt;M sgmRNA -->
<g id="edge26" class="edge"><title> SARS&#45;CoV&#45;2 gRNA&#45;&gt;M sgmRNA</title>
<path fill="none" stroke="black" d="M670.24,-627.748C743.851,-625.644 936.789,-608.707 1019,-491.709 1028.2,-478.618 1028.08,-468.883 1019,-455.709 977.741,-395.857 754.991,-338.712 673.169,-319.442"/>
<polygon fill="black" stroke="black" points="673.563,-315.94 663.029,-317.079 671.974,-322.757 673.563,-315.94"/>
</g>
<!-- ORF7b sgmRNA -->
<g id="node29" class="node"><title>ORF7b sgmRNA</title>
<ellipse fill="none" stroke="black" cx="874" cy="-311.584" rx="25.4118" ry="25.4118"/>
<text text-anchor="middle" x="874" y="-310.384" font-family="Times,serif" font-size="4.00">ORF7b sgmRNA</text>
</g>
<!--  SARS&#45;CoV&#45;2 gRNA&#45;&gt;ORF7b sgmRNA -->
<g id="edge24" class="edge"><title> SARS&#45;CoV&#45;2 gRNA&#45;&gt;ORF7b sgmRNA</title>
<path fill="none" stroke="black" d="M670.127,-626.12C747.957,-620.925 958.61,-603.451 1014,-563.709 1082.61,-514.484 1064.91,-430.418 1002,-374.101 974.677,-349.643 935.896,-332.839 908.194,-323.052"/>
<polygon fill="black" stroke="black" points="909.126,-319.672 898.531,-319.763 906.87,-326.299 909.126,-319.672"/>
</g>
<!-- pp1ab -->
<g id="node33" class="node"><title>pp1ab</title>
<ellipse fill="none" stroke="black" cx="641" cy="-545.709" rx="18" ry="18"/>
<text text-anchor="middle" x="641" y="-544.509" font-family="Times,serif" font-size="4.00">pp1ab</text>
</g>
<!--  SARS&#45;CoV&#45;2 gRNA&#45;&gt;pp1ab -->
<g id="edge18" class="edge"><title> SARS&#45;CoV&#45;2 gRNA&#45;&gt;pp1ab</title>
<path fill="none" stroke="black" d="M641,-599.489C641,-591.224 641,-582.216 641,-574.019"/>
<polygon fill="black" stroke="black" points="644.5,-573.842 641,-563.842 637.5,-573.842 644.5,-573.842"/>
</g>
<!-- ORF8 sgmRNA -->
<g id="node35" class="node"><title>ORF8 sgmRNA</title>
<ellipse fill="none" stroke="black" cx="1059" cy="-311.584" rx="24.2908" ry="24.2908"/>
<text text-anchor="middle" x="1059" y="-310.384" font-family="Times,serif" font-size="4.00">ORF8 sgmRNA</text>
</g>
<!--  SARS&#45;CoV&#45;2 gRNA&#45;&gt;ORF8 sgmRNA -->
<g id="edge20" class="edge"><title> SARS&#45;CoV&#45;2 gRNA&#45;&gt;ORF8 sgmRNA</title>
<path fill="none" stroke="black" d="M670.398,-626.977C753.332,-623.867 986.815,-611.01 1044,-563.709 1107.52,-511.165 1085.53,-399.585 1069.59,-344.589"/>
<polygon fill="black" stroke="black" points="1072.94,-343.573 1066.71,-335.006 1066.24,-345.59 1072.94,-343.573"/>
</g>
<!-- ORF3 sgmRNA -->
<g id="node42" class="node"><title>ORF3 sgmRNA</title>
<ellipse fill="none" stroke="black" cx="183" cy="-311.584" rx="24.2908" ry="24.2908"/>
<text text-anchor="middle" x="183" y="-310.384" font-family="Times,serif" font-size="4.00">ORF3 sgmRNA</text>
</g>
<!--  SARS&#45;CoV&#45;2 gRNA&#45;&gt;ORF3 sgmRNA -->
<g id="edge28" class="edge"><title> SARS&#45;CoV&#45;2 gRNA&#45;&gt;ORF3 sgmRNA</title>
<path fill="none" stroke="black" d="M611.712,-628.468C514.03,-629.811 201.583,-628.844 131,-563.709 69.0665,-506.556 93.1653,-450.378 129,-374.101 135.759,-359.714 146.92,-346.156 157.346,-335.448"/>
<polygon fill="black" stroke="black" points="160.058,-337.691 164.735,-328.184 155.15,-332.699 160.058,-337.691"/>
</g>
<!-- ORF7a sgmRNA_ -->
<g id="node45" class="node"><title>ORF7a sgmRNA_</title>
<ellipse fill="none" stroke="black" cx="261" cy="-311.584" rx="26.533" ry="26.533"/>
<text text-anchor="middle" x="261" y="-310.384" font-family="Times,serif" font-size="4.00">ORF7a sgmRNA_</text>
</g>
<!--  SARS&#45;CoV&#45;2 gRNA&#45;&gt;ORF7a sgmRNA_ -->
<g id="edge22" class="edge"><title> SARS&#45;CoV&#45;2 gRNA&#45;&gt;ORF7a sgmRNA_</title>
<path fill="none" stroke="black" d="M611.842,-628.031C518.897,-627.916 231.801,-622.7 165,-563.709 101.763,-507.865 109.669,-444.605 156,-374.101 157.173,-372.316 198.789,-348.223 229.269,-330.728"/>
<polygon fill="black" stroke="black" points="231.379,-333.553 238.313,-325.543 227.897,-327.48 231.379,-333.553"/>
</g>
<!-- pp1a -->
<g id="node47" class="node"><title>pp1a</title>
<ellipse fill="none" stroke="black" cx="533" cy="-545.709" rx="18" ry="18"/>
<text text-anchor="middle" x="533" y="-544.509" font-family="Times,serif" font-size="4.00">pp1a</text>
</g>
<!--  SARS&#45;CoV&#45;2 gRNA&#45;&gt;pp1a -->
<g id="edge29" class="edge"><title> SARS&#45;CoV&#45;2 gRNA&#45;&gt;pp1a</title>
<path fill="none" stroke="black" d="M618.096,-610.664C599.578,-596.747 573.66,-577.268 555.305,-563.472"/>
<polygon fill="black" stroke="black" points="557.064,-560.416 546.967,-557.206 552.858,-566.012 557.064,-560.416"/>
</g>
<!-- N sgmRNA -->
<g id="node49" class="node"><title>N sgmRNA</title>
<ellipse fill="none" stroke="black" cx="1180" cy="-311.584" rx="20.3063" ry="20.3062"/>
<text text-anchor="middle" x="1180" y="-310.384" font-family="Times,serif" font-size="4.00">N sgmRNA</text>
</g>
<!--  SARS&#45;CoV&#45;2 gRNA&#45;&gt;N sgmRNA -->
<g id="edge23" class="edge"><title> SARS&#45;CoV&#45;2 gRNA&#45;&gt;N sgmRNA</title>
<path fill="none" stroke="black" d="M670.333,-627.121C756.679,-624.348 1007.83,-612.199 1071,-563.709 1143.13,-508.339 1168.33,-395.472 1176.45,-341.973"/>
<polygon fill="black" stroke="black" points="1179.96,-342.192 1177.9,-331.799 1173.03,-341.206 1179.96,-342.192"/>
</g>
<!-- ORF6 sgmRNA -->
<g id="node51" class="node"><title>ORF6 sgmRNA</title>
<ellipse fill="none" stroke="black" cx="395" cy="-311.584" rx="24.2908" ry="24.2908"/>
<text text-anchor="middle" x="395" y="-310.384" font-family="Times,serif" font-size="4.00">ORF6 sgmRNA</text>
</g>
<!--  SARS&#45;CoV&#45;2 gRNA&#45;&gt;ORF6 sgmRNA -->
<g id="edge25" class="edge"><title> SARS&#45;CoV&#45;2 gRNA&#45;&gt;ORF6 sgmRNA</title>
<path fill="none" stroke="black" d="M611.753,-627.456C523.816,-625.612 263.999,-615.779 201,-563.709 135.915,-509.915 133.368,-437.622 189,-374.101 194.817,-367.459 304.581,-337.027 361.45,-321.602"/>
<polygon fill="black" stroke="black" points="362.677,-324.896 371.416,-318.906 360.849,-318.139 362.677,-324.896"/>
</g>
<!-- ORF9b sgmRNA -->
<g id="node53" class="node"><title>ORF9b sgmRNA</title>
<ellipse fill="none" stroke="black" cx="496" cy="-311.584" rx="25.4118" ry="25.4118"/>
<text text-anchor="middle" x="496" y="-310.384" font-family="Times,serif" font-size="4.00">ORF9b sgmRNA</text>
</g>
<!--  SARS&#45;CoV&#45;2 gRNA&#45;&gt;ORF9b sgmRNA -->
<g id="edge27" class="edge"><title> SARS&#45;CoV&#45;2 gRNA&#45;&gt;ORF9b sgmRNA</title>
<path fill="none" stroke="black" d="M611.779,-625.522C532.555,-618.751 315.438,-597.526 253,-563.709 214.829,-543.036 202.737,-532.166 187,-491.709 140.953,-373.331 307.687,-378.824 428,-338.101 439.547,-334.192 452.071,-329.597 463.187,-325.39"/>
<polygon fill="black" stroke="black" points="464.44,-328.659 472.533,-321.821 461.942,-322.119 464.44,-328.659"/>
</g>
<!-- S2&#45;&gt;Nucleocapsid -->
<g id="edge30" class="edge"><title>S2&#45;&gt;Nucleocapsid</title>
<path fill="none" stroke="black" d="M541.034,-41.777C445.353,-53.2491 0,-112.937 0,-230.068 0,-546.709 0,-546.709 0,-546.709 0,-641.694 747.094,-701.331 914.839,-713.525"/>
<polygon fill="black" stroke="black" points="914.81,-717.031 925.036,-714.259 915.313,-710.05 914.81,-717.031"/>
</g>
<!-- Nucleoporin_gRNA complex  -->
<g id="node19" class="node"><title>Nucleoporin_gRNA complex </title>
<ellipse fill="none" stroke="black" cx="1049" cy="-38.7141" rx="38.9294" ry="38.9294"/>
<text text-anchor="middle" x="1049" y="-37.5141" font-family="Times,serif" font-size="4.00">Nucleoporin_gRNA complex </text>
</g>
<!-- Nucleoporin_gRNA complex &#45;&gt;Nucleocapsid -->
<g id="edge31" class="edge"><title>Nucleoporin_gRNA complex &#45;&gt;Nucleocapsid</title>
<path fill="none" stroke="black" d="M1085.32,-52.3505C1147.1,-76.426 1266,-135.101 1266,-230.068 1266,-546.709 1266,-546.709 1266,-546.709 1266,-605.16 1243.6,-624.119 1196,-658.046 1130.13,-705 1031.72,-714.363 980.939,-715.884"/>
<polygon fill="black" stroke="black" points="980.778,-712.387 970.855,-716.101 980.928,-719.385 980.778,-712.387"/>
</g>
<!-- NSP9 -->
<g id="node21" class="node"><title>NSP9</title>
<ellipse fill="none" stroke="black" cx="668" cy="-473.709" rx="18" ry="18"/>
<text text-anchor="middle" x="668" y="-472.509" font-family="Times,serif" font-size="4.00">NSP9</text>
</g>
<!-- NSP9&#45;&gt;RTC complex -->
<g id="edge32" class="edge"><title>NSP9&#45;&gt;RTC complex</title>
<path fill="none" stroke="black" d="M657.843,-458.639C650.812,-448.899 641.243,-435.644 632.839,-424.002"/>
<polygon fill="black" stroke="black" points="635.669,-421.943 626.978,-415.883 629.994,-426.04 635.669,-421.943"/>
</g>
<!-- S -->
<g id="node31" class="node"><title>S</title>
<ellipse fill="none" stroke="black" cx="780" cy="-231.068" rx="18" ry="18"/>
<text text-anchor="middle" x="780" y="-229.868" font-family="Times,serif" font-size="4.00">S</text>
</g>
<!-- S sgmRNA&#45;&gt;S -->
<g id="edge33" class="edge"><title>S sgmRNA&#45;&gt;S</title>
<path fill="none" stroke="black" d="M780,-291.176C780,-281.604 780,-269.895 780,-259.432"/>
<polygon fill="black" stroke="black" points="783.5,-259.12 780,-249.12 776.5,-259.12 783.5,-259.12"/>
</g>
<!-- CTSL -->
<g id="node23" class="node"><title>CTSL</title>
<ellipse fill="none" stroke="black" cx="500" cy="-145.248" rx="18" ry="18"/>
<text text-anchor="middle" x="500" y="-144.048" font-family="Times,serif" font-size="4.00">CTSL</text>
</g>
<!-- CTSL&#45;&gt;S2 -->
<g id="edge34" class="edge"><title>CTSL&#45;&gt;S2</title>
<path fill="none" stroke="black" d="M508.453,-129.271C518.136,-112.116 534.13,-83.7777 545.533,-63.5738"/>
<polygon fill="black" stroke="black" points="548.695,-65.0925 550.562,-54.6635 542.599,-61.6518 548.695,-65.0925"/>
</g>
<!-- CTSL&#45;&gt;S1 -->
<g id="edge35" class="edge"><title>CTSL&#45;&gt;S1</title>
<path fill="none" stroke="black" d="M510.487,-130.526C515.186,-124.866 521.013,-118.467 527,-113.428 550.502,-93.6481 562.504,-97.2153 586,-77.4282 591.634,-72.6838 597.15,-66.953 602.011,-61.4071"/>
<polygon fill="black" stroke="black" points="604.856,-63.4614 608.6,-53.5502 599.492,-58.9631 604.856,-63.4614"/>
</g>
<!-- NSP12 -->
<g id="node24" class="node"><title>NSP12</title>
<ellipse fill="none" stroke="black" cx="830" cy="-473.709" rx="18" ry="18"/>
<text text-anchor="middle" x="830" y="-472.509" font-family="Times,serif" font-size="4.00">NSP12</text>
</g>
<!-- NSP12&#45;&gt;RTC complex -->
<g id="edge36" class="edge"><title>NSP12&#45;&gt;RTC complex</title>
<path fill="none" stroke="black" d="M815.543,-462.622C811.592,-460.142 807.231,-457.646 803,-455.709 750.243,-431.554 684.717,-414.089 646.311,-405.015"/>
<polygon fill="black" stroke="black" points="646.763,-401.527 636.231,-402.68 645.183,-408.346 646.763,-401.527"/>
</g>
<!-- NSP1 -->
<g id="node25" class="node"><title>NSP1</title>
<ellipse fill="none" stroke="black" cx="722" cy="-473.709" rx="18" ry="18"/>
<text text-anchor="middle" x="722" y="-472.509" font-family="Times,serif" font-size="4.00">NSP1</text>
</g>
<!-- NSP1&#45;&gt;RTC complex -->
<g id="edge37" class="edge"><title>NSP1&#45;&gt;RTC complex</title>
<path fill="none" stroke="black" d="M707.435,-462.621C690.33,-450.774 661.62,-430.888 640.529,-416.28"/>
<polygon fill="black" stroke="black" points="642.509,-413.394 632.296,-410.577 638.524,-419.149 642.509,-413.394"/>
</g>
<!-- NSP5 -->
<g id="node26" class="node"><title>NSP5</title>
<ellipse fill="none" stroke="black" cx="776" cy="-473.709" rx="18" ry="18"/>
<text text-anchor="middle" x="776" y="-472.509" font-family="Times,serif" font-size="4.00">NSP5</text>
</g>
<!-- NSP5&#45;&gt;RTC complex -->
<g id="edge38" class="edge"><title>NSP5&#45;&gt;RTC complex</title>
<path fill="none" stroke="black" d="M761.393,-462.927C757.443,-460.445 753.12,-457.871 749,-455.709 714.215,-437.456 672.399,-420.236 644.616,-409.417"/>
<polygon fill="black" stroke="black" points="645.644,-406.062 635.054,-405.731 643.126,-412.594 645.644,-406.062"/>
</g>
<!-- RTC complex&#45;&gt;E sgmRNA -->
<g id="edge39" class="edge"><title>RTC complex&#45;&gt;E sgmRNA</title>
<path fill="none" stroke="black" d="M604.801,-375.735C599.859,-364.899 593.699,-351.391 588.345,-339.652"/>
<polygon fill="black" stroke="black" points="591.416,-337.952 584.082,-330.305 585.047,-340.856 591.416,-337.952"/>
</g>
<!-- RTC complex&#45;&gt;S sgmRNA -->
<g id="edge41" class="edge"><title>RTC complex&#45;&gt;S sgmRNA</title>
<path fill="none" stroke="black" d="M634.023,-385.855C663.691,-370.964 719.399,-343.002 752.757,-326.259"/>
<polygon fill="black" stroke="black" points="754.568,-329.266 761.935,-321.652 751.428,-323.01 754.568,-329.266"/>
</g>
<!-- RTC complex&#45;&gt;M sgmRNA -->
<g id="edge46" class="edge"><title>RTC complex&#45;&gt;M sgmRNA</title>
<path fill="none" stroke="black" d="M621.318,-374.88C624.889,-364.619 629.238,-352.123 633.101,-341.025"/>
<polygon fill="black" stroke="black" points="636.494,-341.923 636.476,-331.329 629.883,-339.622 636.494,-341.923"/>
</g>
<!-- RTC complex&#45;&gt;ORF7b sgmRNA -->
<g id="edge44" class="edge"><title>RTC complex&#45;&gt;ORF7b sgmRNA</title>
<path fill="none" stroke="black" d="M635.835,-390.092C672.095,-380.292 746.891,-359.453 809,-338.101 819.599,-334.457 831.021,-330.117 841.288,-326.059"/>
<polygon fill="black" stroke="black" points="842.73,-329.252 850.713,-322.287 840.128,-322.753 842.73,-329.252"/>
</g>
<!-- RTC complex&#45;&gt;ORF8 sgmRNA -->
<g id="edge40" class="edge"><title>RTC complex&#45;&gt;ORF8 sgmRNA</title>
<path fill="none" stroke="black" d="M636.373,-391.716C708.944,-378.128 938.133,-335.215 1025.09,-318.933"/>
<polygon fill="black" stroke="black" points="1025.79,-322.364 1034.97,-317.084 1024.5,-315.484 1025.79,-322.364"/>
</g>
<!-- RTC complex&#45;&gt;ORF3 sgmRNA -->
<g id="edge48" class="edge"><title>RTC complex&#45;&gt;ORF3 sgmRNA</title>
<path fill="none" stroke="black" d="M590.866,-395.631C529.389,-394.241 357.6,-386.013 225,-338.101 220.426,-336.448 215.807,-334.267 211.389,-331.873"/>
<polygon fill="black" stroke="black" points="213.08,-328.807 202.684,-326.765 209.538,-334.845 213.08,-328.807"/>
</g>
<!-- RTC complex&#45;&gt;ORF7a sgmRNA_ -->
<g id="edge42" class="edge"><title>RTC complex&#45;&gt;ORF7a sgmRNA_</title>
<path fill="none" stroke="black" d="M591.713,-390.966C547.724,-381.178 446.656,-358.501 362,-338.101 340.24,-332.857 315.915,-326.72 296.59,-321.779"/>
<polygon fill="black" stroke="black" points="297.255,-318.336 286.699,-319.243 295.517,-325.117 297.255,-318.336"/>
</g>
<!-- RTC complex&#45;&gt;N sgmRNA -->
<g id="edge43" class="edge"><title>RTC complex&#45;&gt;N sgmRNA</title>
<path fill="none" stroke="black" d="M637.097,-394.443C706.522,-389.766 919.185,-373.363 1092,-338.101 1112.01,-334.019 1134.07,-327.615 1151.11,-322.244"/>
<polygon fill="black" stroke="black" points="1152.55,-325.457 1161,-319.064 1150.41,-318.793 1152.55,-325.457"/>
</g>
<!-- RTC complex&#45;&gt;ORF6 sgmRNA -->
<g id="edge45" class="edge"><title>RTC complex&#45;&gt;ORF6 sgmRNA</title>
<path fill="none" stroke="black" d="M592.852,-387.866C563.488,-376.704 508.704,-355.875 462,-338.101 450.689,-333.796 438.304,-329.08 427.294,-324.887"/>
<polygon fill="black" stroke="black" points="428.229,-321.498 417.638,-321.209 425.738,-328.039 428.229,-321.498"/>
</g>
<!-- RTC complex&#45;&gt;ORF9b sgmRNA -->
<g id="edge47" class="edge"><title>RTC complex&#45;&gt;ORF9b sgmRNA</title>
<path fill="none" stroke="black" d="M595.821,-383.069C576.873,-369.689 546.907,-348.53 524.747,-332.883"/>
<polygon fill="black" stroke="black" points="526.567,-329.883 516.379,-326.974 522.529,-335.602 526.567,-329.883"/>
</g>
<!-- M -->
<g id="node32" class="node"><title>M</title>
<ellipse fill="none" stroke="black" cx="643" cy="-231.068" rx="18" ry="18"/>
<text text-anchor="middle" x="643" y="-229.868" font-family="Times,serif" font-size="4.00">M</text>
</g>
<!-- M sgmRNA&#45;&gt;M -->
<g id="edge49" class="edge"><title>M sgmRNA&#45;&gt;M</title>
<path fill="none" stroke="black" d="M643,-290.771C643,-281.263 643,-269.719 643,-259.392"/>
<polygon fill="black" stroke="black" points="646.5,-259.208 643,-249.208 639.5,-259.208 646.5,-259.208"/>
</g>
<!-- ORF7b -->
<g id="node39" class="node"><title>ORF7b</title>
<ellipse fill="none" stroke="black" cx="874" cy="-231.068" rx="18" ry="18"/>
<text text-anchor="middle" x="874" y="-229.868" font-family="Times,serif" font-size="4.00">ORF7b</text>
</g>
<!-- ORF7b sgmRNA&#45;&gt;ORF7b -->
<g id="edge50" class="edge"><title>ORF7b sgmRNA&#45;&gt;ORF7b</title>
<path fill="none" stroke="black" d="M874,-285.741C874,-277.402 874,-268.054 874,-259.526"/>
<polygon fill="black" stroke="black" points="877.5,-259.299 874,-249.299 870.5,-259.299 877.5,-259.299"/>
</g>
<!-- NSP7 -->
<g id="node30" class="node"><title>NSP7</title>
<ellipse fill="none" stroke="black" cx="290" cy="-473.709" rx="18" ry="18"/>
<text text-anchor="middle" x="290" y="-472.509" font-family="Times,serif" font-size="4.00">NSP7</text>
</g>
<!-- NSP7&#45;&gt;RTC complex -->
<g id="edge51" class="edge"><title>NSP7&#45;&gt;RTC complex</title>
<path fill="none" stroke="black" d="M304.328,-462.319C308.28,-459.842 312.674,-457.422 317,-455.709 408.536,-419.459 525.231,-405.305 581.185,-400.323"/>
<polygon fill="black" stroke="black" points="581.555,-403.804 591.223,-399.47 580.963,-396.829 581.555,-403.804"/>
</g>
<!-- S&#45;&gt;ACE2_SPIKE complex -->
<g id="edge52" class="edge"><title>S&#45;&gt;ACE2_SPIKE complex</title>
<path fill="none" stroke="black" d="M774.666,-213.508C772.061,-205.421 768.806,-195.317 765.617,-185.418"/>
<polygon fill="black" stroke="black" points="768.875,-184.114 762.477,-175.669 762.212,-186.26 768.875,-184.114"/>
</g>
<!-- pp1ab&#45;&gt;NSP15 -->
<g id="edge56" class="edge"><title>pp1ab&#45;&gt;NSP15</title>
<path fill="none" stroke="black" d="M659.009,-543.462C703.328,-539.911 820.647,-527.575 911,-491.709 912.216,-491.226 913.438,-490.688 914.654,-490.108"/>
<polygon fill="black" stroke="black" points="916.631,-493.013 923.67,-485.095 913.229,-486.896 916.631,-493.013"/>
</g>
<!-- pp1ab&#45;&gt;NSP3 -->
<g id="edge58" class="edge"><title>pp1ab&#45;&gt;NSP3</title>
<path fill="none" stroke="black" d="M623.441,-540.483C593.119,-532.856 529.356,-515.358 479,-491.709 477.815,-491.153 476.62,-490.555 475.425,-489.927"/>
<polygon fill="black" stroke="black" points="476.89,-486.73 466.483,-484.741 473.378,-492.785 476.89,-486.73"/>
</g>
<!-- pp1ab&#45;&gt;NSP8 -->
<g id="edge60" class="edge"><title>pp1ab&#45;&gt;NSP8</title>
<path fill="none" stroke="black" d="M624.624,-537.331C603.223,-527.54 564.734,-509.421 533,-491.709 531.857,-491.071 530.696,-490.407 529.528,-489.725"/>
<polygon fill="black" stroke="black" points="531.047,-486.553 520.684,-484.348 527.411,-492.534 531.047,-486.553"/>
</g>
<!-- pp1ab&#45;&gt;NSP10 -->
<g id="edge61" class="edge"><title>pp1ab&#45;&gt;NSP10</title>
<path fill="none" stroke="black" d="M627.624,-533.15C614.886,-522.141 595.521,-505.406 580.773,-492.661"/>
<polygon fill="black" stroke="black" points="582.981,-489.944 573.127,-486.053 578.404,-495.24 582.981,-489.944"/>
</g>
<!-- pp1ab&#45;&gt;NSP13 -->
<g id="edge63" class="edge"><title>pp1ab&#45;&gt;NSP13</title>
<path fill="none" stroke="black" d="M659.207,-544.247C709.533,-542.443 854.13,-533.699 965,-491.709 966.392,-491.182 967.79,-490.578 969.176,-489.919"/>
<polygon fill="black" stroke="black" points="970.955,-492.935 977.988,-485.011 967.548,-486.82 970.955,-492.935"/>
</g>
<!-- pp1ab&#45;&gt;NSP6 -->
<g id="edge54" class="edge"><title>pp1ab&#45;&gt;NSP6</title>
<path fill="none" stroke="black" d="M634.738,-528.474C631.5,-520.081 627.475,-509.644 623.834,-500.204"/>
<polygon fill="black" stroke="black" points="627.093,-498.927 620.228,-490.857 620.562,-501.446 627.093,-498.927"/>
</g>
<!-- pp1ab&#45;&gt;NSP9 -->
<g id="edge57" class="edge"><title>pp1ab&#45;&gt;NSP9</title>
<path fill="none" stroke="black" d="M647.262,-528.474C650.5,-520.081 654.525,-509.644 658.166,-500.204"/>
<polygon fill="black" stroke="black" points="661.438,-501.446 661.772,-490.857 654.907,-498.927 661.438,-501.446"/>
</g>
<!-- pp1ab&#45;&gt;NSP12 -->
<g id="edge62" class="edge"><title>pp1ab&#45;&gt;NSP12</title>
<path fill="none" stroke="black" d="M658.559,-540.483C688.881,-532.856 752.644,-515.358 803,-491.709 804.185,-491.153 805.38,-490.555 806.575,-489.927"/>
<polygon fill="black" stroke="black" points="808.622,-492.785 815.517,-484.741 805.11,-486.73 808.622,-492.785"/>
</g>
<!-- pp1ab&#45;&gt;NSP1 -->
<g id="edge64" class="edge"><title>pp1ab&#45;&gt;NSP1</title>
<path fill="none" stroke="black" d="M654.376,-533.15C667.114,-522.141 686.479,-505.406 701.227,-492.661"/>
<polygon fill="black" stroke="black" points="703.596,-495.24 708.873,-486.053 699.019,-489.944 703.596,-495.24"/>
</g>
<!-- pp1ab&#45;&gt;NSP5 -->
<g id="edge66" class="edge"><title>pp1ab&#45;&gt;NSP5</title>
<path fill="none" stroke="black" d="M657.376,-537.331C678.777,-527.54 717.266,-509.421 749,-491.709 750.143,-491.071 751.304,-490.407 752.472,-489.725"/>
<polygon fill="black" stroke="black" points="754.589,-492.534 761.316,-484.348 750.953,-486.553 754.589,-492.534"/>
</g>
<!-- pp1ab&#45;&gt;NSP7 -->
<g id="edge53" class="edge"><title>pp1ab&#45;&gt;NSP7</title>
<path fill="none" stroke="black" d="M623.678,-540.76C607.317,-537.105 582.065,-531.656 560,-527.709 452.527,-508.488 419.39,-529.607 317,-491.709 315.604,-491.192 314.203,-490.597 312.815,-489.945"/>
<polygon fill="black" stroke="black" points="314.439,-486.843 303.996,-485.055 311.044,-492.965 314.439,-486.843"/>
</g>
<!-- NSP4 -->
<g id="node36" class="node"><title>NSP4</title>
<ellipse fill="none" stroke="black" cx="344" cy="-473.709" rx="18" ry="18"/>
<text text-anchor="middle" x="344" y="-472.509" font-family="Times,serif" font-size="4.00">NSP4</text>
</g>
<!-- pp1ab&#45;&gt;NSP4 -->
<g id="edge59" class="edge"><title>pp1ab&#45;&gt;NSP4</title>
<path fill="none" stroke="black" d="M623.322,-540.9C606.926,-537.39 581.839,-532.08 560,-527.709 476.153,-510.927 450.566,-523.035 371,-491.709 369.782,-491.23 368.559,-490.694 367.343,-490.117"/>
<polygon fill="black" stroke="black" points="368.766,-486.903 358.324,-485.111 365.369,-493.024 368.766,-486.903"/>
</g>
<!-- NSP14 -->
<g id="node43" class="node"><title>NSP14</title>
<ellipse fill="none" stroke="black" cx="884" cy="-473.709" rx="18" ry="18"/>
<text text-anchor="middle" x="884" y="-472.509" font-family="Times,serif" font-size="4.00">NSP14</text>
</g>
<!-- pp1ab&#45;&gt;NSP14 -->
<g id="edge55" class="edge"><title>pp1ab&#45;&gt;NSP14</title>
<path fill="none" stroke="black" d="M658.685,-542.337C696.355,-536.867 786.798,-521.495 857,-491.709 858.205,-491.198 859.417,-490.636 860.625,-490.038"/>
<polygon fill="black" stroke="black" points="862.63,-492.925 869.614,-484.958 859.186,-486.831 862.63,-492.925"/>
</g>
<!-- NSP2 -->
<g id="node50" class="node"><title>NSP2</title>
<ellipse fill="none" stroke="black" cx="398" cy="-473.709" rx="18" ry="18"/>
<text text-anchor="middle" x="398" y="-472.509" font-family="Times,serif" font-size="4.00">NSP2</text>
</g>
<!-- pp1ab&#45;&gt;NSP2 -->
<g id="edge65" class="edge"><title>pp1ab&#45;&gt;NSP2</title>
<path fill="none" stroke="black" d="M623.364,-541.145C578.596,-531.975 461.523,-507.205 425,-491.709 423.795,-491.198 422.583,-490.636 421.375,-490.038"/>
<polygon fill="black" stroke="black" points="422.814,-486.831 412.386,-484.958 419.37,-492.925 422.814,-486.831"/>
</g>
<!-- ORF8 sgmRNA&#45;&gt;ORF8 -->
<g id="edge67" class="edge"><title>ORF8 sgmRNA&#45;&gt;ORF8</title>
<path fill="none" stroke="black" d="M1059,-287.027C1059,-278.326 1059,-268.393 1059,-259.386"/>
<polygon fill="black" stroke="black" points="1062.5,-259.368 1059,-249.368 1055.5,-259.368 1062.5,-259.368"/>
</g>
<!-- NSP4&#45;&gt;RTC complex -->
<g id="edge68" class="edge"><title>NSP4&#45;&gt;RTC complex</title>
<path fill="none" stroke="black" d="M358.377,-462.44C362.329,-459.961 366.71,-457.511 371,-455.709 442.921,-425.494 533.757,-409.2 581.41,-402.182"/>
<polygon fill="black" stroke="black" points="582.049,-405.627 591.454,-400.747 581.059,-398.697 582.049,-405.627"/>
</g>
<!-- Nucleocapsid&#45;&gt; SARS&#45;CoV&#45;2 gRNA -->
<g id="edge69" class="edge"><title>Nucleocapsid&#45;&gt; SARS&#45;CoV&#45;2 gRNA</title>
<path fill="none" stroke="black" d="M925.921,-709.667C873.981,-695.121 743.565,-658.6 678.762,-640.452"/>
<polygon fill="black" stroke="black" points="679.521,-637.03 668.947,-637.704 677.633,-643.771 679.521,-637.03"/>
</g>
<!-- N -->
<g id="node38" class="node"><title>N</title>
<ellipse fill="none" stroke="black" cx="1200" cy="-231.068" rx="18" ry="18"/>
<text text-anchor="middle" x="1200" y="-229.868" font-family="Times,serif" font-size="4.00">N</text>
</g>
<!-- Nucleocapsid&#45;&gt;N -->
<g id="edge70" class="edge"><title>Nucleocapsid&#45;&gt;N</title>
<path fill="none" stroke="black" d="M970.914,-713.116C1037.79,-703.741 1228,-666.54 1228,-546.709 1228,-546.709 1228,-546.709 1228,-395.905 1228,-346.906 1215.68,-290.826 1207.39,-258.617"/>
<polygon fill="black" stroke="black" points="1210.69,-257.426 1204.75,-248.653 1203.92,-259.216 1210.69,-257.426"/>
</g>
<!-- Camostat mesylate -->
<g id="node40" class="node"><title>Camostat mesylate</title>
<ellipse fill="none" stroke="black" cx="619" cy="-145.248" rx="29.3373" ry="29.3373"/>
<text text-anchor="middle" x="619" y="-144.048" font-family="Times,serif" font-size="4.00">Camostat mesylate</text>
</g>
<!-- Camostat mesylate&#45;&gt;S2 -->
<g id="edge71" class="edge"><title>Camostat mesylate&#45;&gt;S2</title>
<path fill="none" stroke="black" d="M604.781,-119.475C595.105,-102.618 582.368,-80.4272 572.786,-63.7326"/>
<polygon fill="black" stroke="black" points="575.569,-61.5507 567.556,-54.6201 569.498,-65.0353 575.569,-61.5507"/>
</g>
<!-- Camostat mesylate&#45;&gt;ACE2 (100 Kda) -->
<g id="edge74" class="edge"><title>Camostat mesylate&#45;&gt;ACE2 (100 Kda)</title>
<path fill="none" stroke="black" d="M641.14,-125.516C646.254,-121.408 651.74,-117.171 657,-113.428 681.72,-95.8377 691.583,-96.7194 715,-77.4282 719.117,-74.0363 723.218,-70.1746 727.086,-66.2468"/>
<polygon fill="black" stroke="black" points="729.87,-68.3963 734.181,-58.7183 724.776,-63.5954 729.87,-68.3963"/>
</g>
<!-- Camostat mesylate&#45;&gt;S1 -->
<g id="edge73" class="edge"><title>Camostat mesylate&#45;&gt;S1</title>
<path fill="none" stroke="black" d="M619,-115.96C619,-100.779 619,-82.1531 619,-67.1108"/>
<polygon fill="black" stroke="black" points="622.5,-66.8915 619,-56.8916 615.5,-66.8916 622.5,-66.8915"/>
</g>
<!-- Camostat mesylate&#45;&gt;ACE2 (15 Kda) -->
<g id="edge72" class="edge"><title>Camostat mesylate&#45;&gt;ACE2 (15 Kda)</title>
<path fill="none" stroke="black" d="M633.612,-120.003C642.788,-104.777 654.68,-85.046 664.378,-68.9545"/>
<polygon fill="black" stroke="black" points="667.633,-70.3337 669.797,-59.9622 661.637,-66.7204 667.633,-70.3337"/>
</g>
<!-- ORF3 -->
<g id="node41" class="node"><title>ORF3</title>
<ellipse fill="none" stroke="black" cx="183" cy="-231.068" rx="18" ry="18"/>
<text text-anchor="middle" x="183" y="-229.868" font-family="Times,serif" font-size="4.00">ORF3</text>
</g>
<!-- ORF3 sgmRNA&#45;&gt;ORF3 -->
<g id="edge75" class="edge"><title>ORF3 sgmRNA&#45;&gt;ORF3</title>
<path fill="none" stroke="black" d="M183,-287.027C183,-278.326 183,-268.393 183,-259.386"/>
<polygon fill="black" stroke="black" points="186.5,-259.368 183,-249.368 179.5,-259.368 186.5,-259.368"/>
</g>
<!-- NSP14&#45;&gt;RTC complex -->
<g id="edge76" class="edge"><title>NSP14&#45;&gt;RTC complex</title>
<path fill="none" stroke="black" d="M869.623,-462.44C865.671,-459.961 861.29,-457.511 857,-455.709 785.079,-425.494 694.243,-409.2 646.59,-402.182"/>
<polygon fill="black" stroke="black" points="646.941,-398.697 636.546,-400.747 645.951,-405.627 646.941,-398.697"/>
</g>
<!-- ORF9b -->
<g id="node44" class="node"><title>ORF9b</title>
<ellipse fill="none" stroke="black" cx="496" cy="-231.068" rx="18" ry="18"/>
<text text-anchor="middle" x="496" y="-229.868" font-family="Times,serif" font-size="4.00">ORF9b</text>
</g>
<!-- ORF7a sgmRNA_&#45;&gt;ORF7a -->
<g id="edge77" class="edge"><title>ORF7a sgmRNA_&#45;&gt;ORF7a</title>
<path fill="none" stroke="black" d="M261,-284.875C261,-276.79 261,-267.831 261,-259.623"/>
<polygon fill="black" stroke="black" points="264.5,-259.402 261,-249.402 257.5,-259.402 264.5,-259.402"/>
</g>
<!-- pp1a&#45;&gt;NSP3 -->
<g id="edge80" class="edge"><title>pp1a&#45;&gt;NSP3</title>
<path fill="none" stroke="black" d="M519.624,-533.15C506.886,-522.141 487.521,-505.406 472.773,-492.661"/>
<polygon fill="black" stroke="black" points="474.981,-489.944 465.127,-486.053 470.404,-495.24 474.981,-489.944"/>
</g>
<!-- pp1a&#45;&gt;NSP8 -->
<g id="edge82" class="edge"><title>pp1a&#45;&gt;NSP8</title>
<path fill="none" stroke="black" d="M526.738,-528.474C523.5,-520.081 519.475,-509.644 515.834,-500.204"/>
<polygon fill="black" stroke="black" points="519.093,-498.927 512.228,-490.857 512.562,-501.446 519.093,-498.927"/>
</g>
<!-- pp1a&#45;&gt;NSP10 -->
<g id="edge83" class="edge"><title>pp1a&#45;&gt;NSP10</title>
<path fill="none" stroke="black" d="M539.262,-528.474C542.5,-520.081 546.525,-509.644 550.166,-500.204"/>
<polygon fill="black" stroke="black" points="553.438,-501.446 553.772,-490.857 546.907,-498.927 553.438,-501.446"/>
</g>
<!-- pp1a&#45;&gt;NSP11 -->
<g id="edge84" class="edge"><title>pp1a&#45;&gt;NSP11</title>
<path fill="none" stroke="black" d="M514.991,-543.462C470.672,-539.911 353.353,-527.575 263,-491.709 261.784,-491.226 260.562,-490.688 259.346,-490.108"/>
<polygon fill="black" stroke="black" points="260.771,-486.896 250.33,-485.095 257.369,-493.013 260.771,-486.896"/>
</g>
<!-- pp1a&#45;&gt;NSP6 -->
<g id="edge87" class="edge"><title>pp1a&#45;&gt;NSP6</title>
<path fill="none" stroke="black" d="M546.376,-533.15C559.114,-522.141 578.479,-505.406 593.227,-492.661"/>
<polygon fill="black" stroke="black" points="595.596,-495.24 600.873,-486.053 591.019,-489.944 595.596,-495.24"/>
</g>
<!-- pp1a&#45;&gt;NSP9 -->
<g id="edge79" class="edge"><title>pp1a&#45;&gt;NSP9</title>
<path fill="none" stroke="black" d="M549.376,-537.331C570.777,-527.54 609.266,-509.421 641,-491.709 642.143,-491.071 643.304,-490.407 644.472,-489.725"/>
<polygon fill="black" stroke="black" points="646.589,-492.534 653.316,-484.348 642.953,-486.553 646.589,-492.534"/>
</g>
<!-- pp1a&#45;&gt;NSP1 -->
<g id="edge86" class="edge"><title>pp1a&#45;&gt;NSP1</title>
<path fill="none" stroke="black" d="M550.559,-540.483C580.881,-532.856 644.644,-515.358 695,-491.709 696.185,-491.153 697.38,-490.555 698.575,-489.927"/>
<polygon fill="black" stroke="black" points="700.622,-492.785 707.517,-484.741 697.11,-486.73 700.622,-492.785"/>
</g>
<!-- pp1a&#45;&gt;NSP5 -->
<g id="edge88" class="edge"><title>pp1a&#45;&gt;NSP5</title>
<path fill="none" stroke="black" d="M550.636,-541.145C595.404,-531.975 712.477,-507.205 749,-491.709 750.205,-491.198 751.417,-490.636 752.625,-490.038"/>
<polygon fill="black" stroke="black" points="754.63,-492.925 761.614,-484.958 751.186,-486.831 754.63,-492.925"/>
</g>
<!-- pp1a&#45;&gt;NSP7 -->
<g id="edge78" class="edge"><title>pp1a&#45;&gt;NSP7</title>
<path fill="none" stroke="black" d="M515.315,-542.337C477.645,-536.867 387.202,-521.495 317,-491.709 315.795,-491.198 314.583,-490.636 313.375,-490.038"/>
<polygon fill="black" stroke="black" points="314.814,-486.831 304.386,-484.958 311.37,-492.925 314.814,-486.831"/>
</g>
<!-- pp1a&#45;&gt;NSP4 -->
<g id="edge81" class="edge"><title>pp1a&#45;&gt;NSP4</title>
<path fill="none" stroke="black" d="M515.441,-540.483C485.119,-532.856 421.356,-515.358 371,-491.709 369.815,-491.153 368.62,-490.555 367.425,-489.927"/>
<polygon fill="black" stroke="black" points="368.89,-486.73 358.483,-484.741 365.378,-492.785 368.89,-486.73"/>
</g>
<!-- pp1a&#45;&gt;NSP2 -->
<g id="edge85" class="edge"><title>pp1a&#45;&gt;NSP2</title>
<path fill="none" stroke="black" d="M516.624,-537.331C495.223,-527.54 456.734,-509.421 425,-491.709 423.857,-491.071 422.696,-490.407 421.528,-489.725"/>
<polygon fill="black" stroke="black" points="423.047,-486.553 412.684,-484.348 419.411,-492.534 423.047,-486.553"/>
</g>
<!-- ACE2_SPIKE complex&#45;&gt;S2 -->
<g id="edge92" class="edge"><title>ACE2_SPIKE complex&#45;&gt;S2</title>
<path fill="none" stroke="black" d="M729.421,-123.826C724.242,-119.998 718.619,-116.303 713,-113.428 663.049,-87.8762 639.22,-107.733 592,-77.4282 585.703,-73.3869 579.913,-67.8047 574.999,-62.1729"/>
<polygon fill="black" stroke="black" points="577.467,-59.6567 568.471,-54.06 572.013,-64.0451 577.467,-59.6567"/>
</g>
<!-- ACE2_SPIKE complex&#45;&gt;Nucleoporin_gRNA complex  -->
<g id="edge89" class="edge"><title>ACE2_SPIKE complex&#45;&gt;Nucleoporin_gRNA complex </title>
<path fill="none" stroke="black" d="M782.737,-133.746C834.504,-115.464 941.513,-77.6738 1002.94,-55.9792"/>
<polygon fill="black" stroke="black" points="1004.13,-59.2713 1012.4,-52.641 1001.8,-52.6708 1004.13,-59.2713"/>
</g>
<!-- ACE2_SPIKE complex&#45;&gt;ACE2 (100 Kda) -->
<g id="edge90" class="edge"><title>ACE2_SPIKE complex&#45;&gt;ACE2 (100 Kda)</title>
<path fill="none" stroke="black" d="M752.108,-113.167C751.757,-100.943 751.353,-86.8567 750.993,-74.3104"/>
<polygon fill="black" stroke="black" points="754.488,-74.1037 750.703,-64.2082 747.491,-74.3045 754.488,-74.1037"/>
</g>
<!-- ACE2_SPIKE complex&#45;&gt;S1 -->
<g id="edge91" class="edge"><title>ACE2_SPIKE complex&#45;&gt;S1</title>
<path fill="none" stroke="black" d="M728.442,-124.443C723.428,-120.653 718.118,-116.814 713,-113.428 685.781,-95.4221 673.843,-98.5924 649,-77.4282 643.817,-73.0131 638.898,-67.5941 634.599,-62.2556"/>
<polygon fill="black" stroke="black" points="637.236,-59.9407 628.404,-54.0886 631.659,-64.1711 637.236,-59.9407"/>
</g>
<!-- ACE2_SPIKE complex&#45;&gt;ACE2 (15 Kda) -->
<g id="edge93" class="edge"><title>ACE2_SPIKE complex&#45;&gt;ACE2 (15 Kda)</title>
<path fill="none" stroke="black" d="M735.449,-118.408C724.986,-103.002 711.698,-83.4393 700.99,-67.673"/>
<polygon fill="black" stroke="black" points="703.854,-65.6608 695.34,-59.355 698.064,-69.5939 703.854,-65.6608"/>
</g>
<!-- N sgmRNA&#45;&gt;N -->
<g id="edge94" class="edge"><title>N sgmRNA&#45;&gt;N</title>
<path fill="none" stroke="black" d="M1184.74,-291.977C1187.28,-282.011 1190.45,-269.563 1193.24,-258.599"/>
<polygon fill="black" stroke="black" points="1196.69,-259.227 1195.77,-248.673 1189.91,-257.499 1196.69,-259.227"/>
</g>
<!-- NSP2&#45;&gt;RTC complex -->
<g id="edge95" class="edge"><title>NSP2&#45;&gt;RTC complex</title>
<path fill="none" stroke="black" d="M412.457,-462.622C416.408,-460.142 420.769,-457.646 425,-455.709 477.757,-431.554 543.283,-414.089 581.689,-405.015"/>
<polygon fill="black" stroke="black" points="582.817,-408.346 591.769,-402.68 581.237,-401.527 582.817,-408.346"/>
</g>
<!-- ORF6 sgmRNA&#45;&gt;ORF6 -->
<g id="edge96" class="edge"><title>ORF6 sgmRNA&#45;&gt;ORF6</title>
<path fill="none" stroke="black" d="M395,-287.027C395,-278.326 395,-268.393 395,-259.386"/>
<polygon fill="black" stroke="black" points="398.5,-259.368 395,-249.368 391.5,-259.368 398.5,-259.368"/>
</g>
<!-- ORF9b sgmRNA&#45;&gt;ORF9b -->
<g id="edge97" class="edge"><title>ORF9b sgmRNA&#45;&gt;ORF9b</title>
<path fill="none" stroke="black" d="M496,-285.741C496,-277.402 496,-268.054 496,-259.526"/>
<polygon fill="black" stroke="black" points="499.5,-259.299 496,-249.299 492.5,-259.299 499.5,-259.299"/>
</g>
</g>
</svg>
