<?xml version="1.0" encoding="UTF-8" standalone="no"?>
<!DOCTYPE svg PUBLIC "-//W3C//DTD SVG 1.1//EN"
 "http://www.w3.org/Graphics/SVG/1.1/DTD/svg11.dtd">
<!-- Generated by graphviz version 2.38.0 (20140413.2041)
 -->
<!-- Title: G Pages: 1 -->
<svg width="466pt" height="990pt"
 viewBox="0.00 0.00 465.61 989.55" xmlns="http://www.w3.org/2000/svg" xmlns:xlink="http://www.w3.org/1999/xlink">
<g id="graph0" class="graph" transform="scale(1 1) rotate(0) translate(4 985.547)">
<title>G</title>
<polygon fill="white" stroke="none" points="-4,4 -4,-985.547 461.608,-985.547 461.608,4 -4,4"/>
<!-- Type I interferon signaling pathway -->
<g id="node1" class="node"><title>Type I interferon signaling pathway</title>
<ellipse fill="none" stroke="black" cx="45.6084" cy="-863.938" rx="45.717" ry="45.717"/>
<text text-anchor="middle" x="45.6084" y="-862.738" font-family="Times,serif" font-size="4.00">Type I interferon signaling pathway</text>
</g>
<!-- LY6E -->
<g id="node2" class="node"><title>LY6E</title>
<ellipse fill="none" stroke="black" cx="45.6084" cy="-743.616" rx="18" ry="18"/>
<text text-anchor="middle" x="45.6084" y="-742.416" font-family="Times,serif" font-size="4.00">LY6E</text>
</g>
<!-- Type I interferon signaling pathway&#45;&gt;LY6E -->
<g id="edge1" class="edge"><title>Type I interferon signaling pathway&#45;&gt;LY6E</title>
<path fill="none" stroke="black" d="M45.6084,-818.206C45.6084,-802.611 45.6084,-785.592 45.6084,-771.852"/>
<polygon fill="black" stroke="black" points="49.1085,-771.626 45.6084,-761.626 42.1085,-771.626 49.1085,-771.626"/>
</g>
<!-- Nucleocapsid -->
<g id="node21" class="node"><title>Nucleocapsid</title>
<ellipse fill="none" stroke="black" cx="120.608" cy="-646.098" rx="22.6101" ry="22.6101"/>
<text text-anchor="middle" x="120.608" y="-644.898" font-family="Times,serif" font-size="4.00">Nucleocapsid</text>
</g>
<!-- LY6E&#45;&gt;Nucleocapsid -->
<g id="edge2" class="edge"><title>LY6E&#45;&gt;Nucleocapsid</title>
<path fill="none" stroke="black" d="M55.3745,-728.471C60.4039,-721.317 66.7055,-712.552 72.6084,-704.902 81.1595,-693.819 90.9761,-681.871 99.4946,-671.73"/>
<polygon fill="black" stroke="black" points="102.216,-673.932 105.999,-664.035 96.8702,-669.413 102.216,-673.932"/>
</g>
<!-- TMPRSS2 -->
<g id="node3" class="node"><title>TMPRSS2</title>
<ellipse fill="none" stroke="black" cx="330.608" cy="-863.938" rx="18.6233" ry="18.6233"/>
<text text-anchor="middle" x="330.608" y="-862.738" font-family="Times,serif" font-size="4.00">TMPRSS2</text>
</g>
<!-- S2 -->
<g id="node5" class="node"><title>S2</title>
<ellipse fill="none" stroke="black" cx="384.608" cy="-743.616" rx="18" ry="18"/>
<text text-anchor="middle" x="384.608" y="-742.416" font-family="Times,serif" font-size="4.00">S2</text>
</g>
<!-- TMPRSS2&#45;&gt;S2 -->
<g id="edge4" class="edge"><title>TMPRSS2&#45;&gt;S2</title>
<path fill="none" stroke="black" d="M338.117,-846.486C347.246,-826.484 362.739,-792.535 373.311,-769.371"/>
<polygon fill="black" stroke="black" points="376.539,-770.726 377.507,-760.176 370.171,-767.82 376.539,-770.726"/>
</g>
<!-- ACE2 (15 Kda) -->
<g id="node12" class="node"><title>ACE2 (15 Kda)</title>
<ellipse fill="none" stroke="black" cx="270.608" cy="-743.616" rx="24.2908" ry="24.2908"/>
<text text-anchor="middle" x="270.608" y="-742.416" font-family="Times,serif" font-size="4.00">ACE2 (15 Kda)</text>
</g>
<!-- TMPRSS2&#45;&gt;ACE2 (15 Kda) -->
<g id="edge5" class="edge"><title>TMPRSS2&#45;&gt;ACE2 (15 Kda)</title>
<path fill="none" stroke="black" d="M322.517,-846.981C313.183,-828.574 297.628,-797.9 285.975,-774.919"/>
<polygon fill="black" stroke="black" points="289.051,-773.247 281.407,-765.911 282.808,-776.412 289.051,-773.247"/>
</g>
<!-- ACE2 (100 Kda) -->
<g id="node17" class="node"><title>ACE2 (100 Kda)</title>
<ellipse fill="none" stroke="black" cx="202.608" cy="-743.616" rx="25.4118" ry="25.4118"/>
<text text-anchor="middle" x="202.608" y="-742.416" font-family="Times,serif" font-size="4.00">ACE2 (100 Kda)</text>
</g>
<!-- TMPRSS2&#45;&gt;ACE2 (100 Kda) -->
<g id="edge3" class="edge"><title>TMPRSS2&#45;&gt;ACE2 (100 Kda)</title>
<path fill="none" stroke="black" d="M322.983,-846.669C318.108,-837.529 311.108,-826.376 302.608,-818.33 278.627,-795.627 263.611,-802.688 237.608,-782.33 233.408,-779.042 229.263,-775.235 225.376,-771.331"/>
<polygon fill="black" stroke="black" points="227.684,-768.678 218.271,-763.814 222.596,-773.486 227.684,-768.678"/>
</g>
<!-- S1 -->
<g id="node23" class="node"><title>S1</title>
<ellipse fill="none" stroke="black" cx="330.608" cy="-743.616" rx="18" ry="18"/>
<text text-anchor="middle" x="330.608" y="-742.416" font-family="Times,serif" font-size="4.00">S1</text>
</g>
<!-- TMPRSS2&#45;&gt;S1 -->
<g id="edge6" class="edge"><title>TMPRSS2&#45;&gt;S1</title>
<path fill="none" stroke="black" d="M330.608,-845.224C330.608,-825.833 330.608,-794.504 330.608,-771.955"/>
<polygon fill="black" stroke="black" points="334.108,-771.682 330.608,-761.682 327.108,-771.682 334.108,-771.682"/>
</g>
<!-- S -->
<g id="node4" class="node"><title>S</title>
<ellipse fill="none" stroke="black" cx="158.608" cy="-963.547" rx="18" ry="18"/>
<text text-anchor="middle" x="158.608" y="-962.347" font-family="Times,serif" font-size="4.00">S</text>
</g>
<!-- ACE2_SPIKE complex -->
<g id="node10" class="node"><title>ACE2_SPIKE complex</title>
<ellipse fill="none" stroke="black" cx="185.608" cy="-863.938" rx="31.6406" ry="31.6406"/>
<text text-anchor="middle" x="185.608" y="-862.738" font-family="Times,serif" font-size="4.00">ACE2_SPIKE complex</text>
</g>
<!-- S&#45;&gt;ACE2_SPIKE complex -->
<g id="edge7" class="edge"><title>S&#45;&gt;ACE2_SPIKE complex</title>
<path fill="none" stroke="black" d="M163.189,-945.989C166.318,-934.676 170.605,-919.178 174.592,-904.763"/>
<polygon fill="black" stroke="black" points="177.994,-905.592 177.287,-895.021 171.248,-903.726 177.994,-905.592"/>
</g>
<!-- S2&#45;&gt;Nucleocapsid -->
<g id="edge8" class="edge"><title>S2&#45;&gt;Nucleocapsid</title>
<path fill="none" stroke="black" d="M376.85,-726.956C372.261,-719.226 365.748,-710.403 357.608,-704.902 294.322,-662.128 202.572,-650.933 153.879,-648.052"/>
<polygon fill="black" stroke="black" points="153.765,-644.542 143.6,-647.531 153.41,-651.533 153.765,-644.542"/>
</g>
<!-- Camostat mesylate -->
<g id="node6" class="node"><title>Camostat mesylate</title>
<ellipse fill="none" stroke="black" cx="264.608" cy="-863.938" rx="29.3373" ry="29.3373"/>
<text text-anchor="middle" x="264.608" y="-862.738" font-family="Times,serif" font-size="4.00">Camostat mesylate</text>
</g>
<!-- Camostat mesylate&#45;&gt;S2 -->
<g id="edge10" class="edge"><title>Camostat mesylate&#45;&gt;S2</title>
<path fill="none" stroke="black" d="M281.998,-840.012C288.106,-832.675 295.281,-824.788 302.608,-818.33 324.526,-799.013 336.523,-802.553 357.608,-782.33 362.076,-778.045 366.295,-772.933 370.012,-767.876"/>
<polygon fill="black" stroke="black" points="372.943,-769.792 375.749,-759.575 367.184,-765.812 372.943,-769.792"/>
</g>
<!-- Camostat mesylate&#45;&gt;ACE2 (15 Kda) -->
<g id="edge11" class="edge"><title>Camostat mesylate&#45;&gt;ACE2 (15 Kda)</title>
<path fill="none" stroke="black" d="M266.046,-834.597C266.895,-817.838 267.977,-796.502 268.874,-778.812"/>
<polygon fill="black" stroke="black" points="272.394,-778.507 269.405,-768.342 265.403,-778.152 272.394,-778.507"/>
</g>
<!-- Camostat mesylate&#45;&gt;ACE2 (100 Kda) -->
<g id="edge9" class="edge"><title>Camostat mesylate&#45;&gt;ACE2 (100 Kda)</title>
<path fill="none" stroke="black" d="M251.46,-837.845C241.929,-819.657 228.983,-794.951 218.813,-775.541"/>
<polygon fill="black" stroke="black" points="221.812,-773.724 214.07,-766.491 215.612,-776.973 221.812,-773.724"/>
</g>
<!-- Camostat mesylate&#45;&gt;S1 -->
<g id="edge12" class="edge"><title>Camostat mesylate&#45;&gt;S1</title>
<path fill="none" stroke="black" d="M278.444,-838.134C289.865,-817.659 305.973,-788.782 317.258,-768.549"/>
<polygon fill="black" stroke="black" points="320.405,-770.093 322.22,-759.655 314.292,-766.683 320.405,-770.093"/>
</g>
<!-- CTSB -->
<g id="node7" class="node"><title>CTSB</title>
<ellipse fill="none" stroke="black" cx="439.608" cy="-863.938" rx="18" ry="18"/>
<text text-anchor="middle" x="439.608" y="-862.738" font-family="Times,serif" font-size="4.00">CTSB</text>
</g>
<!-- CTSB&#45;&gt;S2 -->
<g id="edge13" class="edge"><title>CTSB&#45;&gt;S2</title>
<path fill="none" stroke="black" d="M432.191,-846.981C422.955,-827.111 407.073,-792.944 396.218,-769.593"/>
<polygon fill="black" stroke="black" points="399.298,-767.914 391.908,-760.321 392.95,-770.864 399.298,-767.914"/>
</g>
<!-- CTSB&#45;&gt;S1 -->
<g id="edge14" class="edge"><title>CTSB&#45;&gt;S1</title>
<path fill="none" stroke="black" d="M432.365,-847.31C427.617,-838.168 420.782,-826.797 412.608,-818.33 392.318,-797.311 378.694,-802.553 357.608,-782.33 353.141,-778.045 348.921,-772.933 345.204,-767.876"/>
<polygon fill="black" stroke="black" points="348.032,-765.812 339.468,-759.575 342.274,-769.792 348.032,-765.812"/>
</g>
<!-- ACE2 -->
<g id="node8" class="node"><title>ACE2</title>
<ellipse fill="none" stroke="black" cx="212.608" cy="-963.547" rx="18" ry="18"/>
<text text-anchor="middle" x="212.608" y="-962.347" font-family="Times,serif" font-size="4.00">ACE2</text>
</g>
<!-- ACE2&#45;&gt;ACE2_SPIKE complex -->
<g id="edge15" class="edge"><title>ACE2&#45;&gt;ACE2_SPIKE complex</title>
<path fill="none" stroke="black" d="M208.028,-945.989C204.899,-934.676 200.612,-919.178 196.624,-904.763"/>
<polygon fill="black" stroke="black" points="199.969,-903.726 193.93,-895.021 193.222,-905.592 199.969,-903.726"/>
</g>
<!-- SARS&#45;CoV&#45;2 sgmRNAs -->
<g id="node9" class="node"><title>SARS&#45;CoV&#45;2 sgmRNAs</title>
<ellipse fill="none" stroke="black" cx="67.6084" cy="-130.399" rx="32.7614" ry="32.7614"/>
<text text-anchor="middle" x="67.6084" y="-129.199" font-family="Times,serif" font-size="4.00">SARS&#45;CoV&#45;2 sgmRNAs</text>
</g>
<!-- SARS&#45;CoV&#45;2 proteins -->
<g id="node19" class="node"><title>SARS&#45;CoV&#45;2 proteins</title>
<ellipse fill="none" stroke="black" cx="67.6084" cy="-30.7591" rx="30.5202" ry="30.5202"/>
<text text-anchor="middle" x="67.6084" y="-29.5591" font-family="Times,serif" font-size="4.00">SARS&#45;CoV&#45;2 proteins</text>
</g>
<!-- SARS&#45;CoV&#45;2 sgmRNAs&#45;&gt;SARS&#45;CoV&#45;2 proteins -->
<g id="edge16" class="edge"><title>SARS&#45;CoV&#45;2 sgmRNAs&#45;&gt;SARS&#45;CoV&#45;2 proteins</title>
<path fill="none" stroke="black" d="M67.6084,-97.4279C67.6084,-89.2826 67.6084,-80.4241 67.6084,-71.9269"/>
<polygon fill="black" stroke="black" points="71.1085,-71.8135 67.6084,-61.8135 64.1085,-71.8135 71.1085,-71.8135"/>
</g>
<!-- ACE2_SPIKE complex&#45;&gt;S2 -->
<g id="edge18" class="edge"><title>ACE2_SPIKE complex&#45;&gt;S2</title>
<path fill="none" stroke="black" d="M204.358,-837.679C210.729,-830.549 218.347,-823.371 226.608,-818.33 278.152,-786.88 308.077,-816.862 357.608,-782.33 362.771,-778.731 367.298,-773.814 371.096,-768.72"/>
<polygon fill="black" stroke="black" points="374.154,-770.443 376.784,-760.18 368.328,-766.563 374.154,-770.443"/>
</g>
<!-- ACE2_SPIKE complex&#45;&gt;ACE2 (15 Kda) -->
<g id="edge20" class="edge"><title>ACE2_SPIKE complex&#45;&gt;ACE2 (15 Kda)</title>
<path fill="none" stroke="black" d="M203.843,-837.555C217.611,-818.39 236.487,-792.113 250.657,-772.389"/>
<polygon fill="black" stroke="black" points="253.615,-774.271 256.607,-764.107 247.93,-770.186 253.615,-774.271"/>
</g>
<!-- ACE2_SPIKE complex&#45;&gt;ACE2 (100 Kda) -->
<g id="edge19" class="edge"><title>ACE2_SPIKE complex&#45;&gt;ACE2 (100 Kda)</title>
<path fill="none" stroke="black" d="M190.031,-832.16C192.377,-815.829 195.267,-795.716 197.684,-778.889"/>
<polygon fill="black" stroke="black" points="201.162,-779.296 199.119,-768.899 194.233,-778.3 201.162,-779.296"/>
</g>
<!-- Nucleoporin_gRNA complex  -->
<g id="node22" class="node"><title>Nucleoporin_gRNA complex </title>
<ellipse fill="none" stroke="black" cx="120.608" cy="-743.616" rx="38.9294" ry="38.9294"/>
<text text-anchor="middle" x="120.608" y="-742.416" font-family="Times,serif" font-size="4.00">Nucleoporin_gRNA complex </text>
</g>
<!-- ACE2_SPIKE complex&#45;&gt;Nucleoporin_gRNA complex  -->
<g id="edge21" class="edge"><title>ACE2_SPIKE complex&#45;&gt;Nucleoporin_gRNA complex </title>
<path fill="none" stroke="black" d="M170.696,-835.793C162.727,-821.286 152.738,-803.104 143.782,-786.8"/>
<polygon fill="black" stroke="black" points="146.815,-785.051 138.932,-777.972 140.679,-788.421 146.815,-785.051"/>
</g>
<!-- ACE2_SPIKE complex&#45;&gt;S1 -->
<g id="edge17" class="edge"><title>ACE2_SPIKE complex&#45;&gt;S1</title>
<path fill="none" stroke="black" d="M204.919,-838.516C211.312,-831.42 218.803,-824.05 226.608,-818.33 257.08,-795.999 274.554,-806.476 303.608,-782.33 308.449,-778.307 312.85,-773.226 316.629,-768.107"/>
<polygon fill="black" stroke="black" points="319.657,-769.878 322.37,-759.637 313.862,-765.951 319.657,-769.878"/>
</g>
<!-- NSP11 -->
<g id="node11" class="node"><title>NSP11</title>
<ellipse fill="none" stroke="black" cx="68.6084" cy="-330.208" rx="18" ry="18"/>
<text text-anchor="middle" x="68.6084" y="-329.008" font-family="Times,serif" font-size="4.00">NSP11</text>
</g>
<!-- RTC complex -->
<g id="node15" class="node"><title>RTC complex</title>
<ellipse fill="none" stroke="black" cx="113.608" cy="-222.083" rx="22.6101" ry="22.6101"/>
<text text-anchor="middle" x="113.608" y="-220.883" font-family="Times,serif" font-size="4.00">RTC complex</text>
</g>
<!-- NSP11&#45;&gt;RTC complex -->
<g id="edge22" class="edge"><title>NSP11&#45;&gt;RTC complex</title>
<path fill="none" stroke="black" d="M75.4429,-313.09C82.2157,-297.118 92.748,-272.279 101.034,-252.738"/>
<polygon fill="black" stroke="black" points="104.331,-253.928 105.013,-243.355 97.8864,-251.195 104.331,-253.928"/>
</g>
<!-- CTSL -->
<g id="node13" class="node"><title>CTSL</title>
<ellipse fill="none" stroke="black" cx="385.608" cy="-863.938" rx="18" ry="18"/>
<text text-anchor="middle" x="385.608" y="-862.738" font-family="Times,serif" font-size="4.00">CTSL</text>
</g>
<!-- CTSL&#45;&gt;S2 -->
<g id="edge23" class="edge"><title>CTSL&#45;&gt;S2</title>
<path fill="none" stroke="black" d="M385.463,-845.733C385.299,-826.367 385.031,-794.643 384.839,-771.892"/>
<polygon fill="black" stroke="black" points="388.338,-771.812 384.754,-761.842 381.339,-771.871 388.338,-771.812"/>
</g>
<!-- CTSL&#45;&gt;S1 -->
<g id="edge24" class="edge"><title>CTSL&#45;&gt;S1</title>
<path fill="none" stroke="black" d="M378.191,-846.981C368.955,-827.111 353.073,-792.944 342.218,-769.593"/>
<polygon fill="black" stroke="black" points="345.298,-767.914 337.908,-760.321 338.95,-770.864 345.298,-767.914"/>
</g>
<!--  SARS&#45;CoV&#45;2 gRNA -->
<g id="node14" class="node"><title> SARS&#45;CoV&#45;2 gRNA</title>
<ellipse fill="none" stroke="black" cx="88.6084" cy="-558.125" rx="29.3373" ry="29.3373"/>
<text text-anchor="middle" x="88.6084" y="-556.925" font-family="Times,serif" font-size="4.00"> SARS&#45;CoV&#45;2 gRNA</text>
</g>
<!--  SARS&#45;CoV&#45;2 gRNA&#45;&gt;SARS&#45;CoV&#45;2 sgmRNAs -->
<g id="edge27" class="edge"><title> SARS&#45;CoV&#45;2 gRNA&#45;&gt;SARS&#45;CoV&#45;2 sgmRNAs</title>
<path fill="none" stroke="black" d="M68.4974,-536.802C58.3055,-525.047 46.974,-509.363 41.6084,-492.957 5.04482,-381.16 35.7304,-239.882 54.9581,-171.764"/>
<polygon fill="black" stroke="black" points="58.4047,-172.444 57.818,-161.866 51.6797,-170.501 58.4047,-172.444"/>
</g>
<!-- SARS&#45;COV&#45;2 polyprotein 1a -->
<g id="node16" class="node"><title>SARS&#45;COV&#45;2 polyprotein 1a</title>
<ellipse fill="none" stroke="black" cx="88.6084" cy="-454.243" rx="37.8075" ry="37.8075"/>
<text text-anchor="middle" x="88.6084" y="-453.043" font-family="Times,serif" font-size="4.00">SARS&#45;COV&#45;2 polyprotein 1a</text>
</g>
<!--  SARS&#45;CoV&#45;2 gRNA&#45;&gt;SARS&#45;COV&#45;2 polyprotein 1a -->
<g id="edge25" class="edge"><title> SARS&#45;CoV&#45;2 gRNA&#45;&gt;SARS&#45;COV&#45;2 polyprotein 1a</title>
<path fill="none" stroke="black" d="M88.6084,-528.745C88.6084,-520.532 88.6084,-511.338 88.6084,-502.307"/>
<polygon fill="black" stroke="black" points="92.1085,-502.241 88.6084,-492.241 85.1085,-502.241 92.1085,-502.241"/>
</g>
<!-- SARS&#45;COV&#45;2 polyprotein 1ab -->
<g id="node18" class="node"><title>SARS&#45;COV&#45;2 polyprotein 1ab</title>
<ellipse fill="none" stroke="black" cx="182.608" cy="-454.243" rx="38.9294" ry="38.9294"/>
<text text-anchor="middle" x="182.608" y="-453.043" font-family="Times,serif" font-size="4.00">SARS&#45;COV&#45;2 polyprotein 1ab</text>
</g>
<!--  SARS&#45;CoV&#45;2 gRNA&#45;&gt;SARS&#45;COV&#45;2 polyprotein 1ab -->
<g id="edge26" class="edge"><title> SARS&#45;CoV&#45;2 gRNA&#45;&gt;SARS&#45;COV&#45;2 polyprotein 1ab</title>
<path fill="none" stroke="black" d="M108.085,-536.015C120.083,-523.011 135.776,-506.003 149.664,-490.949"/>
<polygon fill="black" stroke="black" points="152.525,-493.01 156.734,-483.287 147.381,-488.263 152.525,-493.01"/>
</g>
<!-- RTC complex&#45;&gt;SARS&#45;CoV&#45;2 sgmRNAs -->
<g id="edge28" class="edge"><title>RTC complex&#45;&gt;SARS&#45;CoV&#45;2 sgmRNAs</title>
<path fill="none" stroke="black" d="M103.399,-201.179C98.5607,-191.745 92.6144,-180.152 86.9683,-169.144"/>
<polygon fill="black" stroke="black" points="90.0052,-167.396 82.3271,-160.095 83.7767,-170.591 90.0052,-167.396"/>
</g>
<!-- SARS&#45;COV&#45;2 polyprotein 1a&#45;&gt;NSP11 -->
<g id="edge29" class="edge"><title>SARS&#45;COV&#45;2 polyprotein 1a&#45;&gt;NSP11</title>
<path fill="none" stroke="black" d="M82.6619,-416.959C79.5724,-398.108 75.8615,-375.465 73.029,-358.182"/>
<polygon fill="black" stroke="black" points="76.4636,-357.497 71.3923,-348.195 69.5557,-358.629 76.4636,-357.497"/>
</g>
<!-- SARS&#45;CoV&#45;2 pp&#45;1a and pp&#45;1ab products -->
<g id="node24" class="node"><title>SARS&#45;CoV&#45;2 pp&#45;1a and pp&#45;1ab products</title>
<ellipse fill="none" stroke="black" cx="153.608" cy="-330.208" rx="49.142" ry="49.142"/>
<text text-anchor="middle" x="153.608" y="-329.008" font-family="Times,serif" font-size="4.00">SARS&#45;CoV&#45;2 pp&#45;1a and pp&#45;1ab products</text>
</g>
<!-- SARS&#45;COV&#45;2 polyprotein 1a&#45;&gt;SARS&#45;CoV&#45;2 pp&#45;1a and pp&#45;1ab products -->
<g id="edge30" class="edge"><title>SARS&#45;COV&#45;2 polyprotein 1a&#45;&gt;SARS&#45;CoV&#45;2 pp&#45;1a and pp&#45;1ab products</title>
<path fill="none" stroke="black" d="M106.027,-420.54C112.14,-409.064 119.167,-395.871 125.912,-383.208"/>
<polygon fill="black" stroke="black" points="129.144,-384.584 130.756,-374.113 122.966,-381.293 129.144,-384.584"/>
</g>
<!-- SARS&#45;COV&#45;2 polyprotein 1ab&#45;&gt;SARS&#45;CoV&#45;2 pp&#45;1a and pp&#45;1ab products -->
<g id="edge31" class="edge"><title>SARS&#45;COV&#45;2 polyprotein 1ab&#45;&gt;SARS&#45;CoV&#45;2 pp&#45;1a and pp&#45;1ab products</title>
<path fill="none" stroke="black" d="M173.829,-416.297C171.725,-407.446 169.431,-397.79 167.167,-388.263"/>
<polygon fill="black" stroke="black" points="170.545,-387.341 164.828,-378.422 163.735,-388.96 170.545,-387.341"/>
</g>
<!-- SARS&#45;CoV&#45;2 pp&#45;1ab products -->
<g id="node25" class="node"><title>SARS&#45;CoV&#45;2 pp&#45;1ab products</title>
<ellipse fill="none" stroke="black" cx="259.608" cy="-330.208" rx="38.9294" ry="38.9294"/>
<text text-anchor="middle" x="259.608" y="-329.008" font-family="Times,serif" font-size="4.00">SARS&#45;CoV&#45;2 pp&#45;1ab products</text>
</g>
<!-- SARS&#45;COV&#45;2 polyprotein 1ab&#45;&gt;SARS&#45;CoV&#45;2 pp&#45;1ab products -->
<g id="edge32" class="edge"><title>SARS&#45;COV&#45;2 polyprotein 1ab&#45;&gt;SARS&#45;CoV&#45;2 pp&#45;1ab products</title>
<path fill="none" stroke="black" d="M202.839,-421.18C212.313,-406.165 223.709,-388.104 233.796,-372.117"/>
<polygon fill="black" stroke="black" points="236.869,-373.806 239.245,-363.481 230.949,-370.071 236.869,-373.806"/>
</g>
<!-- N -->
<g id="node20" class="node"><title>N</title>
<ellipse fill="none" stroke="black" cx="153.608" cy="-558.125" rx="18" ry="18"/>
<text text-anchor="middle" x="153.608" y="-556.925" font-family="Times,serif" font-size="4.00">N</text>
</g>
<!-- Nucleocapsid&#45;&gt; SARS&#45;CoV&#45;2 gRNA -->
<g id="edge33" class="edge"><title>Nucleocapsid&#45;&gt; SARS&#45;CoV&#45;2 gRNA</title>
<path fill="none" stroke="black" d="M112.862,-624.286C109.616,-615.565 105.745,-605.166 102.06,-595.265"/>
<polygon fill="black" stroke="black" points="105.235,-593.761 98.4665,-585.61 98.6747,-596.203 105.235,-593.761"/>
</g>
<!-- Nucleocapsid&#45;&gt;N -->
<g id="edge34" class="edge"><title>Nucleocapsid&#45;&gt;N</title>
<path fill="none" stroke="black" d="M128.597,-624.286C133.172,-612.366 138.951,-597.312 143.8,-584.678"/>
<polygon fill="black" stroke="black" points="147.134,-585.76 147.45,-575.17 140.599,-583.252 147.134,-585.76"/>
</g>
<!-- Nucleoporin_gRNA complex &#45;&gt;Nucleocapsid -->
<g id="edge35" class="edge"><title>Nucleoporin_gRNA complex &#45;&gt;Nucleocapsid</title>
<path fill="none" stroke="black" d="M120.608,-704.865C120.608,-696.285 120.608,-687.254 120.608,-678.948"/>
<polygon fill="black" stroke="black" points="124.108,-678.903 120.608,-668.903 117.108,-678.903 124.108,-678.903"/>
</g>
<!-- SARS&#45;CoV&#45;2 pp&#45;1a and pp&#45;1ab products&#45;&gt;RTC complex -->
<g id="edge36" class="edge"><title>SARS&#45;CoV&#45;2 pp&#45;1a and pp&#45;1ab products&#45;&gt;RTC complex</title>
<path fill="none" stroke="black" d="M136.529,-283.894C132.62,-273.524 128.56,-262.752 124.962,-253.205"/>
<polygon fill="black" stroke="black" points="128.207,-251.893 121.405,-243.77 121.657,-254.362 128.207,-251.893"/>
</g>
<!-- SARS&#45;CoV&#45;2 pp&#45;1ab products&#45;&gt;RTC complex -->
<g id="edge37" class="edge"><title>SARS&#45;CoV&#45;2 pp&#45;1ab products&#45;&gt;RTC complex</title>
<path fill="none" stroke="black" d="M234.089,-301.085C227.126,-294.108 219.357,-286.911 211.608,-280.888 189.933,-264.037 162.907,-248.445 142.729,-237.712"/>
<polygon fill="black" stroke="black" points="144.19,-234.526 133.706,-232.992 140.945,-240.728 144.19,-234.526"/>
</g>
</g>
</svg>
