<?xml version="1.0" encoding="UTF-8" standalone="no"?>
<!DOCTYPE svg PUBLIC "-//W3C//DTD SVG 1.1//EN"
 "http://www.w3.org/Graphics/SVG/1.1/DTD/svg11.dtd">
<!-- Generated by graphviz version 2.38.0 (20140413.2041)
 -->
<!-- Title: G Pages: 1 -->
<svg width="490pt" height="2181pt"
 viewBox="0.00 0.00 490.46 2180.97" xmlns="http://www.w3.org/2000/svg" xmlns:xlink="http://www.w3.org/1999/xlink">
<g id="graph0" class="graph" transform="scale(1 1) rotate(0) translate(4 2176.97)">
<title>G</title>
<polygon fill="white" stroke="none" points="-4,4 -4,-2176.97 486.456,-2176.97 486.456,4 -4,4"/>
<!-- ACE2 -->
<g id="node1" class="node"><title>ACE2</title>
<ellipse fill="none" stroke="black" cx="213" cy="-2154.97" rx="18" ry="18"/>
<text text-anchor="middle" x="213" y="-2153.77" font-family="Times,serif" font-size="4.00">ACE2</text>
</g>
<!-- pr_5ab1a6ff&#45;5eeb&#45;4db0&#45;951a&#45;04cad7e20b4a -->
<g id="node2" class="node"><title>pr_5ab1a6ff&#45;5eeb&#45;4db0&#45;951a&#45;04cad7e20b4a</title>
<polygon fill="none" stroke="black" points="246.5,-2100.47 147.5,-2100.47 147.5,-2001.47 246.5,-2001.47 246.5,-2100.47"/>
<text text-anchor="middle" x="197" y="-2049.77" font-family="Times,serif" font-size="4.00">pr_5ab1a6ff&#45;5eeb&#45;4db0&#45;951a&#45;04cad7e20b4a</text>
</g>
<!-- ACE2&#45;&gt;pr_5ab1a6ff&#45;5eeb&#45;4db0&#45;951a&#45;04cad7e20b4a -->
<g id="edge1" class="edge"><title>ACE2&#45;&gt;pr_5ab1a6ff&#45;5eeb&#45;4db0&#45;951a&#45;04cad7e20b4a</title>
<path fill="none" stroke="black" d="M210.358,-2137.13C209.185,-2129.65 207.729,-2120.36 206.212,-2110.7"/>
<polygon fill="black" stroke="black" points="209.627,-2109.88 204.62,-2100.55 202.712,-2110.97 209.627,-2109.88"/>
</g>
<!-- pr_0924763a&#45;c661&#45;411e&#45;baa7&#45;449a24cf554a -->
<g id="node17" class="node"><title>pr_0924763a&#45;c661&#45;411e&#45;baa7&#45;449a24cf554a</title>
<polygon fill="none" stroke="black" points="365,-2100.97 265,-2100.97 265,-2000.97 365,-2000.97 365,-2100.97"/>
<text text-anchor="middle" x="315" y="-2049.77" font-family="Times,serif" font-size="4.00">pr_0924763a&#45;c661&#45;411e&#45;baa7&#45;449a24cf554a</text>
</g>
<!-- ACE2&#45;&gt;pr_0924763a&#45;c661&#45;411e&#45;baa7&#45;449a24cf554a -->
<g id="edge2" class="edge"><title>ACE2&#45;&gt;pr_0924763a&#45;c661&#45;411e&#45;baa7&#45;449a24cf554a</title>
<path fill="none" stroke="black" d="M225.507,-2141.46C234.045,-2132.92 246.025,-2120.94 258.449,-2108.52"/>
<polygon fill="black" stroke="black" points="261.196,-2110.72 265.793,-2101.18 256.247,-2105.77 261.196,-2110.72"/>
</g>
<!-- ACE2_SPIKE complex -->
<g id="node3" class="node"><title>ACE2_SPIKE complex</title>
<ellipse fill="none" stroke="black" cx="256" cy="-1933.15" rx="31.6406" ry="31.6406"/>
<text text-anchor="middle" x="256" y="-1931.95" font-family="Times,serif" font-size="4.00">ACE2_SPIKE complex</text>
</g>
<!-- pr_5ab1a6ff&#45;5eeb&#45;4db0&#45;951a&#45;04cad7e20b4a&#45;&gt;ACE2_SPIKE complex -->
<g id="edge3" class="edge"><title>pr_5ab1a6ff&#45;5eeb&#45;4db0&#45;951a&#45;04cad7e20b4a&#45;&gt;ACE2_SPIKE complex</title>
<path fill="none" stroke="black" d="M221.85,-2001.19C227.053,-1990.97 232.454,-1980.37 237.383,-1970.7"/>
<polygon fill="black" stroke="black" points="240.522,-1972.24 241.942,-1961.75 234.285,-1969.07 240.522,-1972.24"/>
</g>
<!-- pr_b544fa46&#45;1c63&#45;48c4&#45;8f02&#45;bedf97f8adee -->
<g id="node6" class="node"><title>pr_b544fa46&#45;1c63&#45;48c4&#45;8f02&#45;bedf97f8adee</title>
<polygon fill="none" stroke="black" points="206,-1865.33 108,-1865.33 108,-1767.33 206,-1767.33 206,-1865.33"/>
<text text-anchor="middle" x="157" y="-1815.13" font-family="Times,serif" font-size="4.00">pr_b544fa46&#45;1c63&#45;48c4&#45;8f02&#45;bedf97f8adee</text>
</g>
<!-- ACE2_SPIKE complex&#45;&gt;pr_b544fa46&#45;1c63&#45;48c4&#45;8f02&#45;bedf97f8adee -->
<g id="edge4" class="edge"><title>ACE2_SPIKE complex&#45;&gt;pr_b544fa46&#45;1c63&#45;48c4&#45;8f02&#45;bedf97f8adee</title>
<path fill="none" stroke="black" d="M235.487,-1908.36C226.67,-1898.13 215.957,-1885.71 205.318,-1873.37"/>
<polygon fill="black" stroke="black" points="207.901,-1871.01 198.72,-1865.72 202.6,-1875.58 207.901,-1871.01"/>
</g>
<!-- pr_f25b7f99&#45;241c&#45;4914&#45;bf35&#45;32bc9c95945c -->
<g id="node7" class="node"><title>pr_f25b7f99&#45;241c&#45;4914&#45;bf35&#45;32bc9c95945c</title>
<polygon fill="none" stroke="black" points="322,-1865.33 224,-1865.33 224,-1767.33 322,-1767.33 322,-1865.33"/>
<text text-anchor="middle" x="273" y="-1815.13" font-family="Times,serif" font-size="4.00">pr_f25b7f99&#45;241c&#45;4914&#45;bf35&#45;32bc9c95945c</text>
</g>
<!-- ACE2_SPIKE complex&#45;&gt;pr_f25b7f99&#45;241c&#45;4914&#45;bf35&#45;32bc9c95945c -->
<g id="edge5" class="edge"><title>ACE2_SPIKE complex&#45;&gt;pr_f25b7f99&#45;241c&#45;4914&#45;bf35&#45;32bc9c95945c</title>
<path fill="none" stroke="black" d="M260.556,-1901.38C261.742,-1893.37 263.06,-1884.47 264.382,-1875.54"/>
<polygon fill="black" stroke="black" points="267.866,-1875.9 265.869,-1865.5 260.942,-1874.88 267.866,-1875.9"/>
</g>
<!-- pr_d1e28daa&#45;5e8e&#45;4f86&#45;9771&#45;6fe0a1294f1a -->
<g id="node12" class="node"><title>pr_d1e28daa&#45;5e8e&#45;4f86&#45;9771&#45;6fe0a1294f1a</title>
<polygon fill="none" stroke="black" points="438,-1865.33 340,-1865.33 340,-1767.33 438,-1767.33 438,-1865.33"/>
<text text-anchor="middle" x="389" y="-1815.13" font-family="Times,serif" font-size="4.00">pr_d1e28daa&#45;5e8e&#45;4f86&#45;9771&#45;6fe0a1294f1a</text>
</g>
<!-- ACE2_SPIKE complex&#45;&gt;pr_d1e28daa&#45;5e8e&#45;4f86&#45;9771&#45;6fe0a1294f1a -->
<g id="edge6" class="edge"><title>ACE2_SPIKE complex&#45;&gt;pr_d1e28daa&#45;5e8e&#45;4f86&#45;9771&#45;6fe0a1294f1a</title>
<path fill="none" stroke="black" d="M279.778,-1911.62C294.357,-1899.04 313.687,-1882.35 332.03,-1866.51"/>
<polygon fill="black" stroke="black" points="334.531,-1868.98 339.814,-1859.79 329.957,-1863.68 334.531,-1868.98"/>
</g>
<!-- S -->
<g id="node4" class="node"><title>S</title>
<ellipse fill="none" stroke="black" cx="299" cy="-2154.97" rx="18" ry="18"/>
<text text-anchor="middle" x="299" y="-2153.77" font-family="Times,serif" font-size="4.00">S</text>
</g>
<!-- S&#45;&gt;pr_5ab1a6ff&#45;5eeb&#45;4db0&#45;951a&#45;04cad7e20b4a -->
<g id="edge7" class="edge"><title>S&#45;&gt;pr_5ab1a6ff&#45;5eeb&#45;4db0&#45;951a&#45;04cad7e20b4a</title>
<path fill="none" stroke="black" d="M286.493,-2141.46C277.866,-2132.84 265.725,-2120.7 253.163,-2108.13"/>
<polygon fill="black" stroke="black" points="255.287,-2105.31 245.741,-2100.71 250.337,-2110.26 255.287,-2105.31"/>
</g>
<!-- S&#45;&gt;pr_0924763a&#45;c661&#45;411e&#45;baa7&#45;449a24cf554a -->
<g id="edge8" class="edge"><title>S&#45;&gt;pr_0924763a&#45;c661&#45;411e&#45;baa7&#45;449a24cf554a</title>
<path fill="none" stroke="black" d="M301.642,-2137.13C302.801,-2129.74 304.239,-2120.57 305.737,-2111.02"/>
<polygon fill="black" stroke="black" points="309.218,-2111.41 307.31,-2100.99 302.303,-2110.33 309.218,-2111.41"/>
</g>
<!-- Nucleoporin_gRNA complex  -->
<g id="node5" class="node"><title>Nucleoporin_gRNA complex </title>
<ellipse fill="none" stroke="black" cx="157" cy="-1692.62" rx="38.9294" ry="38.9294"/>
<text text-anchor="middle" x="157" y="-1691.42" font-family="Times,serif" font-size="4.00">Nucleoporin_gRNA complex </text>
</g>
<!-- Nucleoporin_gRNA complex &#45;&gt;pr_b544fa46&#45;1c63&#45;48c4&#45;8f02&#45;bedf97f8adee -->
<g id="edge9" class="edge"><title>Nucleoporin_gRNA complex &#45;&gt;pr_b544fa46&#45;1c63&#45;48c4&#45;8f02&#45;bedf97f8adee</title>
<path fill="none" stroke="black" d="M163.277,-1730.86C163.628,-1739.2 163.783,-1748.23 163.744,-1757.19"/>
<polygon fill="black" stroke="black" points="160.244,-1757.18 163.617,-1767.23 167.243,-1757.27 160.244,-1757.18"/>
</g>
<!-- pr_aee9581c&#45;e4ad&#45;4fa4&#45;bf31&#45;311c4e86545a -->
<g id="node18" class="node"><title>pr_aee9581c&#45;e4ad&#45;4fa4&#45;bf31&#45;311c4e86545a</title>
<polygon fill="none" stroke="black" points="110.5,-1617.4 11.5,-1617.4 11.5,-1518.4 110.5,-1518.4 110.5,-1617.4"/>
<text text-anchor="middle" x="61" y="-1566.7" font-family="Times,serif" font-size="4.00">pr_aee9581c&#45;e4ad&#45;4fa4&#45;bf31&#45;311c4e86545a</text>
</g>
<!-- Nucleoporin_gRNA complex &#45;&gt;pr_aee9581c&#45;e4ad&#45;4fa4&#45;bf31&#45;311c4e86545a -->
<g id="edge10" class="edge"><title>Nucleoporin_gRNA complex &#45;&gt;pr_aee9581c&#45;e4ad&#45;4fa4&#45;bf31&#45;311c4e86545a</title>
<path fill="none" stroke="black" d="M133.516,-1661.6C125.046,-1650.77 115.185,-1638.16 105.513,-1625.8"/>
<polygon fill="black" stroke="black" points="108.12,-1623.45 99.2014,-1617.73 102.606,-1627.77 108.12,-1623.45"/>
</g>
<!-- pr_8f4ca331&#45;6c2b&#45;425b&#45;a681&#45;96a7a11a9e3b -->
<g id="node22" class="node"><title>pr_8f4ca331&#45;6c2b&#45;425b&#45;a681&#45;96a7a11a9e3b</title>
<polygon fill="none" stroke="black" points="229,-1617.9 129,-1617.9 129,-1517.9 229,-1517.9 229,-1617.9"/>
<text text-anchor="middle" x="179" y="-1566.7" font-family="Times,serif" font-size="4.00">pr_8f4ca331&#45;6c2b&#45;425b&#45;a681&#45;96a7a11a9e3b</text>
</g>
<!-- Nucleoporin_gRNA complex &#45;&gt;pr_8f4ca331&#45;6c2b&#45;425b&#45;a681&#45;96a7a11a9e3b -->
<g id="edge11" class="edge"><title>Nucleoporin_gRNA complex &#45;&gt;pr_8f4ca331&#45;6c2b&#45;425b&#45;a681&#45;96a7a11a9e3b</title>
<path fill="none" stroke="black" d="M163.66,-1654.46C165.149,-1646.16 166.764,-1637.15 168.368,-1628.21"/>
<polygon fill="black" stroke="black" points="171.848,-1628.63 170.168,-1618.17 164.958,-1627.39 171.848,-1628.63"/>
</g>
<!-- pr_b544fa46&#45;1c63&#45;48c4&#45;8f02&#45;bedf97f8adee&#45;&gt;Nucleoporin_gRNA complex  -->
<g id="edge12" class="edge"><title>pr_b544fa46&#45;1c63&#45;48c4&#45;8f02&#45;bedf97f8adee&#45;&gt;Nucleoporin_gRNA complex </title>
<path fill="none" stroke="black" d="M150.383,-1767.23C150.201,-1758.63 150.206,-1749.67 150.397,-1741.09"/>
<polygon fill="black" stroke="black" points="153.903,-1740.97 150.723,-1730.86 146.906,-1740.75 153.903,-1740.97"/>
</g>
<!-- S2 -->
<g id="node8" class="node"><title>S2</title>
<ellipse fill="none" stroke="black" cx="274" cy="-1692.62" rx="18" ry="18"/>
<text text-anchor="middle" x="274" y="-1691.42" font-family="Times,serif" font-size="4.00">S2</text>
</g>
<!-- pr_f25b7f99&#45;241c&#45;4914&#45;bf35&#45;32bc9c95945c&#45;&gt;S2 -->
<g id="edge13" class="edge"><title>pr_f25b7f99&#45;241c&#45;4914&#45;bf35&#45;32bc9c95945c&#45;&gt;S2</title>
<path fill="none" stroke="black" d="M273.395,-1767.23C273.524,-1751.5 273.663,-1734.58 273.776,-1720.93"/>
<polygon fill="black" stroke="black" points="277.277,-1720.8 273.859,-1710.77 270.277,-1720.74 277.277,-1720.8"/>
</g>
<!-- S1 -->
<g id="node11" class="node"><title>S1</title>
<ellipse fill="none" stroke="black" cx="329" cy="-1692.62" rx="18" ry="18"/>
<text text-anchor="middle" x="329" y="-1691.42" font-family="Times,serif" font-size="4.00">S1</text>
</g>
<!-- pr_f25b7f99&#45;241c&#45;4914&#45;bf35&#45;32bc9c95945c&#45;&gt;S1 -->
<g id="edge14" class="edge"><title>pr_f25b7f99&#45;241c&#45;4914&#45;bf35&#45;32bc9c95945c&#45;&gt;S1</title>
<path fill="none" stroke="black" d="M295.133,-1767.23C302.759,-1750.65 310.993,-1732.75 317.433,-1718.76"/>
<polygon fill="black" stroke="black" points="320.77,-1719.88 321.77,-1709.33 314.411,-1716.95 320.77,-1719.88"/>
</g>
<!-- S2&#45;&gt;pr_aee9581c&#45;e4ad&#45;4fa4&#45;bf31&#45;311c4e86545a -->
<g id="edge15" class="edge"><title>S2&#45;&gt;pr_aee9581c&#45;e4ad&#45;4fa4&#45;bf31&#45;311c4e86545a</title>
<path fill="none" stroke="black" d="M258.881,-1682.78C245.052,-1674.84 223.927,-1663.05 205,-1653.9 168.065,-1636.04 155.043,-1639.24 120,-1617.9 119.808,-1617.79 119.616,-1617.67 119.424,-1617.55"/>
<polygon fill="black" stroke="black" points="121.08,-1614.45 110.798,-1611.89 117.242,-1620.3 121.08,-1614.45"/>
</g>
<!-- pr_c22c6078&#45;a6d3&#45;40f5&#45;98bf&#45;b7578299f8fa -->
<g id="node21" class="node"><title>pr_c22c6078&#45;a6d3&#45;40f5&#45;98bf&#45;b7578299f8fa</title>
<polygon fill="none" stroke="black" points="345,-1616.9 247,-1616.9 247,-1518.9 345,-1518.9 345,-1616.9"/>
<text text-anchor="middle" x="296" y="-1566.7" font-family="Times,serif" font-size="4.00">pr_c22c6078&#45;a6d3&#45;40f5&#45;98bf&#45;b7578299f8fa</text>
</g>
<!-- S2&#45;&gt;pr_c22c6078&#45;a6d3&#45;40f5&#45;98bf&#45;b7578299f8fa -->
<g id="edge16" class="edge"><title>S2&#45;&gt;pr_c22c6078&#45;a6d3&#45;40f5&#45;98bf&#45;b7578299f8fa</title>
<path fill="none" stroke="black" d="M272.214,-1674.55C273.094,-1662.11 275.625,-1644.47 278.815,-1627.15"/>
<polygon fill="black" stroke="black" points="282.308,-1627.52 280.761,-1617.04 275.434,-1626.2 282.308,-1627.52"/>
</g>
<!-- S2&#45;&gt;pr_8f4ca331&#45;6c2b&#45;425b&#45;a681&#45;96a7a11a9e3b -->
<g id="edge17" class="edge"><title>S2&#45;&gt;pr_8f4ca331&#45;6c2b&#45;425b&#45;a681&#45;96a7a11a9e3b</title>
<path fill="none" stroke="black" d="M263.47,-1678.01C253.62,-1665.29 238.218,-1645.4 223.248,-1626.06"/>
<polygon fill="black" stroke="black" points="225.99,-1623.88 217.101,-1618.12 220.455,-1628.17 225.99,-1623.88"/>
</g>
<!-- CTSB -->
<g id="node9" class="node"><title>CTSB</title>
<ellipse fill="none" stroke="black" cx="324" cy="-1933.15" rx="18" ry="18"/>
<text text-anchor="middle" x="324" y="-1931.95" font-family="Times,serif" font-size="4.00">CTSB</text>
</g>
<!-- CTSB&#45;&gt;pr_f25b7f99&#45;241c&#45;4914&#45;bf35&#45;32bc9c95945c -->
<g id="edge18" class="edge"><title>CTSB&#45;&gt;pr_f25b7f99&#45;241c&#45;4914&#45;bf35&#45;32bc9c95945c</title>
<path fill="none" stroke="black" d="M316.909,-1916.18C312.058,-1905.26 305.305,-1890.06 298.547,-1874.85"/>
<polygon fill="black" stroke="black" points="301.614,-1873.13 294.356,-1865.41 295.217,-1875.97 301.614,-1873.13"/>
</g>
<!-- CTSL -->
<g id="node10" class="node"><title>CTSL</title>
<ellipse fill="none" stroke="black" cx="188" cy="-1933.15" rx="18" ry="18"/>
<text text-anchor="middle" x="188" y="-1931.95" font-family="Times,serif" font-size="4.00">CTSL</text>
</g>
<!-- CTSL&#45;&gt;pr_f25b7f99&#45;241c&#45;4914&#45;bf35&#45;32bc9c95945c -->
<g id="edge19" class="edge"><title>CTSL&#45;&gt;pr_f25b7f99&#45;241c&#45;4914&#45;bf35&#45;32bc9c95945c</title>
<path fill="none" stroke="black" d="M198.423,-1918.07C206.804,-1906.75 219.164,-1890.05 231.423,-1873.49"/>
<polygon fill="black" stroke="black" points="234.277,-1875.52 237.414,-1865.4 228.651,-1871.36 234.277,-1875.52"/>
</g>
<!-- pr_d1e28daa&#45;5e8e&#45;4f86&#45;9771&#45;6fe0a1294f1a&#45;&gt;S2 -->
<g id="edge20" class="edge"><title>pr_d1e28daa&#45;5e8e&#45;4f86&#45;9771&#45;6fe0a1294f1a&#45;&gt;S2</title>
<path fill="none" stroke="black" d="M339.717,-1770.47C327.008,-1758.18 313.639,-1744.58 302,-1731.33 297.863,-1726.62 293.685,-1721.34 289.865,-1716.25"/>
<polygon fill="black" stroke="black" points="292.57,-1714.02 283.843,-1708.01 286.918,-1718.15 292.57,-1714.02"/>
</g>
<!-- pr_d1e28daa&#45;5e8e&#45;4f86&#45;9771&#45;6fe0a1294f1a&#45;&gt;S1 -->
<g id="edge21" class="edge"><title>pr_d1e28daa&#45;5e8e&#45;4f86&#45;9771&#45;6fe0a1294f1a&#45;&gt;S1</title>
<path fill="none" stroke="black" d="M365.286,-1767.23C356.983,-1750.38 348.006,-1732.17 341.059,-1718.08"/>
<polygon fill="black" stroke="black" points="344.168,-1716.47 336.607,-1709.05 337.889,-1719.56 344.168,-1716.47"/>
</g>
<!-- ACE2 (15 Kda) -->
<g id="node15" class="node"><title>ACE2 (15 Kda)</title>
<ellipse fill="none" stroke="black" cx="389" cy="-1692.62" rx="24.2908" ry="24.2908"/>
<text text-anchor="middle" x="389" y="-1691.42" font-family="Times,serif" font-size="4.00">ACE2 (15 Kda)</text>
</g>
<!-- pr_d1e28daa&#45;5e8e&#45;4f86&#45;9771&#45;6fe0a1294f1a&#45;&gt;ACE2 (15 Kda) -->
<g id="edge22" class="edge"><title>pr_d1e28daa&#45;5e8e&#45;4f86&#45;9771&#45;6fe0a1294f1a&#45;&gt;ACE2 (15 Kda)</title>
<path fill="none" stroke="black" d="M389,-1767.23C389,-1753.97 389,-1739.86 389,-1727.58"/>
<polygon fill="black" stroke="black" points="392.5,-1727.33 389,-1717.33 385.5,-1727.33 392.5,-1727.33"/>
</g>
<!-- ACE2 (100 Kda) -->
<g id="node16" class="node"><title>ACE2 (100 Kda)</title>
<ellipse fill="none" stroke="black" cx="457" cy="-1692.62" rx="25.4118" ry="25.4118"/>
<text text-anchor="middle" x="457" y="-1691.42" font-family="Times,serif" font-size="4.00">ACE2 (100 Kda)</text>
</g>
<!-- pr_d1e28daa&#45;5e8e&#45;4f86&#45;9771&#45;6fe0a1294f1a&#45;&gt;ACE2 (100 Kda) -->
<g id="edge23" class="edge"><title>pr_d1e28daa&#45;5e8e&#45;4f86&#45;9771&#45;6fe0a1294f1a&#45;&gt;ACE2 (100 Kda)</title>
<path fill="none" stroke="black" d="M415.875,-1767.23C423.941,-1752.79 432.567,-1737.35 439.825,-1724.36"/>
<polygon fill="black" stroke="black" points="443.019,-1725.82 444.841,-1715.38 436.908,-1722.4 443.019,-1725.82"/>
</g>
<!-- TMPRSS2 -->
<g id="node13" class="node"><title>TMPRSS2</title>
<ellipse fill="none" stroke="black" cx="455" cy="-1933.15" rx="18.6233" ry="18.6233"/>
<text text-anchor="middle" x="455" y="-1931.95" font-family="Times,serif" font-size="4.00">TMPRSS2</text>
</g>
<!-- TMPRSS2&#45;&gt;pr_d1e28daa&#45;5e8e&#45;4f86&#45;9771&#45;6fe0a1294f1a -->
<g id="edge24" class="edge"><title>TMPRSS2&#45;&gt;pr_d1e28daa&#45;5e8e&#45;4f86&#45;9771&#45;6fe0a1294f1a</title>
<path fill="none" stroke="black" d="M446.099,-1916.66C439.775,-1905.66 430.855,-1890.15 421.941,-1874.64"/>
<polygon fill="black" stroke="black" points="424.731,-1872.47 416.713,-1865.54 418.662,-1875.96 424.731,-1872.47"/>
</g>
<!-- Camostat mesylate -->
<g id="node14" class="node"><title>Camostat mesylate</title>
<ellipse fill="none" stroke="black" cx="389" cy="-1933.15" rx="29.3373" ry="29.3373"/>
<text text-anchor="middle" x="389" y="-1931.95" font-family="Times,serif" font-size="4.00">Camostat mesylate</text>
</g>
<!-- Camostat mesylate&#45;&gt;pr_d1e28daa&#45;5e8e&#45;4f86&#45;9771&#45;6fe0a1294f1a -->
<g id="edge25" class="edge"><title>Camostat mesylate&#45;&gt;pr_d1e28daa&#45;5e8e&#45;4f86&#45;9771&#45;6fe0a1294f1a</title>
<path fill="none" stroke="black" d="M389,-1903.77C389,-1895.19 389,-1885.44 389,-1875.66"/>
<polygon fill="black" stroke="black" points="392.5,-1875.5 389,-1865.5 385.5,-1875.5 392.5,-1875.5"/>
</g>
<!-- pr_0924763a&#45;c661&#45;411e&#45;baa7&#45;449a24cf554a&#45;&gt;ACE2_SPIKE complex -->
<g id="edge26" class="edge"><title>pr_0924763a&#45;c661&#45;411e&#45;baa7&#45;449a24cf554a&#45;&gt;ACE2_SPIKE complex</title>
<path fill="none" stroke="black" d="M289.979,-2000.85C284.891,-1990.86 279.621,-1980.52 274.793,-1971.04"/>
<polygon fill="black" stroke="black" points="277.794,-1969.22 270.137,-1961.9 271.557,-1972.4 277.794,-1969.22"/>
</g>
<!-- Nucleocapsid -->
<g id="node19" class="node"><title>Nucleocapsid</title>
<ellipse fill="none" stroke="black" cx="120" cy="-1459.1" rx="22.6101" ry="22.6101"/>
<text text-anchor="middle" x="120" y="-1457.9" font-family="Times,serif" font-size="4.00">Nucleocapsid</text>
</g>
<!-- pr_aee9581c&#45;e4ad&#45;4fa4&#45;bf31&#45;311c4e86545a&#45;&gt;Nucleocapsid -->
<g id="edge27" class="edge"><title>pr_aee9581c&#45;e4ad&#45;4fa4&#45;bf31&#45;311c4e86545a&#45;&gt;Nucleocapsid</title>
<path fill="none" stroke="black" d="M87.9102,-1518.19C93.5493,-1507.98 99.3156,-1497.54 104.376,-1488.38"/>
<polygon fill="black" stroke="black" points="107.588,-1489.8 109.36,-1479.36 101.461,-1486.42 107.588,-1489.8"/>
</g>
<!-- pr_31274f90&#45;93ca&#45;4232&#45;9dcc&#45;bc7e193352a2 -->
<g id="node26" class="node"><title>pr_31274f90&#45;93ca&#45;4232&#45;9dcc&#45;bc7e193352a2</title>
<polygon fill="none" stroke="black" points="170,-1400.29 70,-1400.29 70,-1300.29 170,-1300.29 170,-1400.29"/>
<text text-anchor="middle" x="120" y="-1349.09" font-family="Times,serif" font-size="4.00">pr_31274f90&#45;93ca&#45;4232&#45;9dcc&#45;bc7e193352a2</text>
</g>
<!-- Nucleocapsid&#45;&gt;pr_31274f90&#45;93ca&#45;4232&#45;9dcc&#45;bc7e193352a2 -->
<g id="edge28" class="edge"><title>Nucleocapsid&#45;&gt;pr_31274f90&#45;93ca&#45;4232&#45;9dcc&#45;bc7e193352a2</title>
<path fill="none" stroke="black" d="M120,-1436.23C120,-1428.61 120,-1419.65 120,-1410.47"/>
<polygon fill="black" stroke="black" points="123.5,-1410.47 120,-1400.47 116.5,-1410.47 123.5,-1410.47"/>
</g>
<!-- LY6E -->
<g id="node20" class="node"><title>LY6E</title>
<ellipse fill="none" stroke="black" cx="61" cy="-1692.62" rx="18" ry="18"/>
<text text-anchor="middle" x="61" y="-1691.42" font-family="Times,serif" font-size="4.00">LY6E</text>
</g>
<!-- LY6E&#45;&gt;pr_aee9581c&#45;e4ad&#45;4fa4&#45;bf31&#45;311c4e86545a -->
<g id="edge29" class="edge"><title>LY6E&#45;&gt;pr_aee9581c&#45;e4ad&#45;4fa4&#45;bf31&#45;311c4e86545a</title>
<path fill="none" stroke="black" d="M61,-1674.55C61,-1662.22 61,-1644.78 61,-1627.61"/>
<polygon fill="black" stroke="black" points="64.5001,-1627.58 61,-1617.58 57.5001,-1627.58 64.5001,-1627.58"/>
</g>
<!-- pr_c22c6078&#45;a6d3&#45;40f5&#45;98bf&#45;b7578299f8fa&#45;&gt;S2 -->
<g id="edge30" class="edge"><title>pr_c22c6078&#45;a6d3&#45;40f5&#45;98bf&#45;b7578299f8fa&#45;&gt;S2</title>
<path fill="none" stroke="black" d="M293.965,-1617.12C291.328,-1633.84 287.748,-1651.93 284.175,-1666.1"/>
<polygon fill="black" stroke="black" points="280.708,-1665.51 281.459,-1676.07 287.462,-1667.34 280.708,-1665.51"/>
</g>
<!-- pr_8f4ca331&#45;6c2b&#45;425b&#45;a681&#45;96a7a11a9e3b&#45;&gt;Nucleocapsid -->
<g id="edge31" class="edge"><title>pr_8f4ca331&#45;6c2b&#45;425b&#45;a681&#45;96a7a11a9e3b&#45;&gt;Nucleocapsid</title>
<path fill="none" stroke="black" d="M151.918,-1517.88C146.342,-1507.78 140.65,-1497.48 135.646,-1488.42"/>
<polygon fill="black" stroke="black" points="138.613,-1486.55 130.714,-1479.49 132.486,-1489.94 138.613,-1486.55"/>
</g>
<!--  SARS&#45;CoV&#45;2 gRNA -->
<g id="node23" class="node"><title> SARS&#45;CoV&#45;2 gRNA</title>
<ellipse fill="none" stroke="black" cx="88" cy="-1235.13" rx="29.3373" ry="29.3373"/>
<text text-anchor="middle" x="88" y="-1233.93" font-family="Times,serif" font-size="4.00"> SARS&#45;CoV&#45;2 gRNA</text>
</g>
<!-- pr_2b70644d&#45;24f7&#45;416c&#45;ba24&#45;09965c9a1299 -->
<g id="node24" class="node"><title>pr_2b70644d&#45;24f7&#45;416c&#45;ba24&#45;09965c9a1299</title>
<polygon fill="none" stroke="black" points="255,-1169.96 155,-1169.96 155,-1069.96 255,-1069.96 255,-1169.96"/>
<text text-anchor="middle" x="205" y="-1118.76" font-family="Times,serif" font-size="4.00">pr_2b70644d&#45;24f7&#45;416c&#45;ba24&#45;09965c9a1299</text>
</g>
<!--  SARS&#45;CoV&#45;2 gRNA&#45;&gt;pr_2b70644d&#45;24f7&#45;416c&#45;ba24&#45;09965c9a1299 -->
<g id="edge32" class="edge"><title> SARS&#45;CoV&#45;2 gRNA&#45;&gt;pr_2b70644d&#45;24f7&#45;416c&#45;ba24&#45;09965c9a1299</title>
<path fill="none" stroke="black" d="M108.648,-1214.15C119.597,-1203.56 133.647,-1189.97 147.613,-1176.47"/>
<polygon fill="black" stroke="black" points="150.136,-1178.89 154.891,-1169.43 145.27,-1173.86 150.136,-1178.89"/>
</g>
<!-- pr_7a1f0785&#45;3a6e&#45;4d13&#45;ba93&#45;161989ac5c17 -->
<g id="node28" class="node"><title>pr_7a1f0785&#45;3a6e&#45;4d13&#45;ba93&#45;161989ac5c17</title>
<polygon fill="none" stroke="black" points="100,-433.279 0,-433.279 0,-333.279 100,-333.279 100,-433.279"/>
<text text-anchor="middle" x="50" y="-382.079" font-family="Times,serif" font-size="4.00">pr_7a1f0785&#45;3a6e&#45;4d13&#45;ba93&#45;161989ac5c17</text>
</g>
<!--  SARS&#45;CoV&#45;2 gRNA&#45;&gt;pr_7a1f0785&#45;3a6e&#45;4d13&#45;ba93&#45;161989ac5c17 -->
<g id="edge33" class="edge"><title> SARS&#45;CoV&#45;2 gRNA&#45;&gt;pr_7a1f0785&#45;3a6e&#45;4d13&#45;ba93&#45;161989ac5c17</title>
<path fill="none" stroke="black" d="M65.7817,-1216.01C53.0552,-1204.29 38.0563,-1187.9 30,-1169.96 -1.80742,-1099.1 11,-1073.91 11,-996.243 11,-996.243 11,-996.243 11,-600.388 11,-546.626 22.8337,-486.519 33.464,-443.371"/>
<polygon fill="black" stroke="black" points="36.8747,-444.159 35.9201,-433.607 30.0862,-442.451 36.8747,-444.159"/>
</g>
<!-- pr_2d052d88&#45;0ff8&#45;4fc9&#45;b8f1&#45;ab66fe533707 -->
<g id="node40" class="node"><title>pr_2d052d88&#45;0ff8&#45;4fc9&#45;b8f1&#45;ab66fe533707</title>
<polygon fill="none" stroke="black" points="136.5,-1168.46 39.5,-1168.46 39.5,-1071.46 136.5,-1071.46 136.5,-1168.46"/>
<text text-anchor="middle" x="88" y="-1118.76" font-family="Times,serif" font-size="4.00">pr_2d052d88&#45;0ff8&#45;4fc9&#45;b8f1&#45;ab66fe533707</text>
</g>
<!--  SARS&#45;CoV&#45;2 gRNA&#45;&gt;pr_2d052d88&#45;0ff8&#45;4fc9&#45;b8f1&#45;ab66fe533707 -->
<g id="edge34" class="edge"><title> SARS&#45;CoV&#45;2 gRNA&#45;&gt;pr_2d052d88&#45;0ff8&#45;4fc9&#45;b8f1&#45;ab66fe533707</title>
<path fill="none" stroke="black" d="M88,-1205.86C88,-1197.59 88,-1188.23 88,-1178.83"/>
<polygon fill="black" stroke="black" points="91.5001,-1178.66 88,-1168.66 84.5001,-1178.66 91.5001,-1178.66"/>
</g>
<!-- SARS&#45;COV&#45;2 polyprotein 1ab -->
<g id="node25" class="node"><title>SARS&#45;COV&#45;2 polyprotein 1ab</title>
<ellipse fill="none" stroke="black" cx="205" cy="-995.243" rx="38.9294" ry="38.9294"/>
<text text-anchor="middle" x="205" y="-994.043" font-family="Times,serif" font-size="4.00">SARS&#45;COV&#45;2 polyprotein 1ab</text>
</g>
<!-- pr_2b70644d&#45;24f7&#45;416c&#45;ba24&#45;09965c9a1299&#45;&gt;SARS&#45;COV&#45;2 polyprotein 1ab -->
<g id="edge35" class="edge"><title>pr_2b70644d&#45;24f7&#45;416c&#45;ba24&#45;09965c9a1299&#45;&gt;SARS&#45;COV&#45;2 polyprotein 1ab</title>
<path fill="none" stroke="black" d="M205,-1069.75C205,-1061.31 205,-1052.56 205,-1044.15"/>
<polygon fill="black" stroke="black" points="208.5,-1044.12 205,-1034.12 201.5,-1044.12 208.5,-1044.12"/>
</g>
<!-- pr_f035763e&#45;788f&#45;4965&#45;8bd3&#45;0d11192003f2 -->
<g id="node33" class="node"><title>pr_f035763e&#45;788f&#45;4965&#45;8bd3&#45;0d11192003f2</title>
<polygon fill="none" stroke="black" points="254,-920.529 156,-920.529 156,-822.529 254,-822.529 254,-920.529"/>
<text text-anchor="middle" x="205" y="-870.329" font-family="Times,serif" font-size="4.00">pr_f035763e&#45;788f&#45;4965&#45;8bd3&#45;0d11192003f2</text>
</g>
<!-- SARS&#45;COV&#45;2 polyprotein 1ab&#45;&gt;pr_f035763e&#45;788f&#45;4965&#45;8bd3&#45;0d11192003f2 -->
<g id="edge36" class="edge"><title>SARS&#45;COV&#45;2 polyprotein 1ab&#45;&gt;pr_f035763e&#45;788f&#45;4965&#45;8bd3&#45;0d11192003f2</title>
<path fill="none" stroke="black" d="M205,-956.399C205,-948.274 205,-939.506 205,-930.809"/>
<polygon fill="black" stroke="black" points="208.5,-930.675 205,-920.675 201.5,-930.675 208.5,-930.675"/>
</g>
<!-- pr_31274f90&#45;93ca&#45;4232&#45;9dcc&#45;bc7e193352a2&#45;&gt; SARS&#45;CoV&#45;2 gRNA -->
<g id="edge37" class="edge"><title>pr_31274f90&#45;93ca&#45;4232&#45;9dcc&#45;bc7e193352a2&#45;&gt; SARS&#45;CoV&#45;2 gRNA</title>
<path fill="none" stroke="black" d="M106.057,-1299.99C103.515,-1291 100.903,-1281.76 98.482,-1273.2"/>
<polygon fill="black" stroke="black" points="101.833,-1272.18 95.7444,-1263.51 95.0975,-1274.09 101.833,-1272.18"/>
</g>
<!-- N -->
<g id="node27" class="node"><title>N</title>
<ellipse fill="none" stroke="black" cx="153" cy="-1235.13" rx="18" ry="18"/>
<text text-anchor="middle" x="153" y="-1233.93" font-family="Times,serif" font-size="4.00">N</text>
</g>
<!-- pr_31274f90&#45;93ca&#45;4232&#45;9dcc&#45;bc7e193352a2&#45;&gt;N -->
<g id="edge38" class="edge"><title>pr_31274f90&#45;93ca&#45;4232&#45;9dcc&#45;bc7e193352a2&#45;&gt;N</title>
<path fill="none" stroke="black" d="M134.378,-1299.99C138.182,-1286.94 142.138,-1273.38 145.42,-1262.12"/>
<polygon fill="black" stroke="black" points="148.782,-1263.09 148.222,-1252.51 142.062,-1261.13 148.782,-1263.09"/>
</g>
<!-- SARS&#45;CoV&#45;2 sgmRNAs -->
<g id="node29" class="node"><title>SARS&#45;CoV&#45;2 sgmRNAs</title>
<ellipse fill="none" stroke="black" cx="50" cy="-264.399" rx="32.7614" ry="32.7614"/>
<text text-anchor="middle" x="50" y="-263.199" font-family="Times,serif" font-size="4.00">SARS&#45;CoV&#45;2 sgmRNAs</text>
</g>
<!-- pr_7a1f0785&#45;3a6e&#45;4d13&#45;ba93&#45;161989ac5c17&#45;&gt;SARS&#45;CoV&#45;2 sgmRNAs -->
<g id="edge39" class="edge"><title>pr_7a1f0785&#45;3a6e&#45;4d13&#45;ba93&#45;161989ac5c17&#45;&gt;SARS&#45;CoV&#45;2 sgmRNAs</title>
<path fill="none" stroke="black" d="M50,-333.05C50,-324.628 50,-315.944 50,-307.721"/>
<polygon fill="black" stroke="black" points="53.5001,-307.608 50,-297.608 46.5001,-307.608 53.5001,-307.608"/>
</g>
<!-- pr_56e791c5&#45;c3be&#45;4f28&#45;b674&#45;f4c583167f5b -->
<g id="node31" class="node"><title>pr_56e791c5&#45;c3be&#45;4f28&#45;b674&#45;f4c583167f5b</title>
<polygon fill="none" stroke="black" points="99,-195.518 1,-195.518 1,-97.5183 99,-97.5183 99,-195.518"/>
<text text-anchor="middle" x="50" y="-145.318" font-family="Times,serif" font-size="4.00">pr_56e791c5&#45;c3be&#45;4f28&#45;b674&#45;f4c583167f5b</text>
</g>
<!-- SARS&#45;CoV&#45;2 sgmRNAs&#45;&gt;pr_56e791c5&#45;c3be&#45;4f28&#45;b674&#45;f4c583167f5b -->
<g id="edge40" class="edge"><title>SARS&#45;CoV&#45;2 sgmRNAs&#45;&gt;pr_56e791c5&#45;c3be&#45;4f28&#45;b674&#45;f4c583167f5b</title>
<path fill="none" stroke="black" d="M50,-231.427C50,-223.53 50,-214.822 50,-206.095"/>
<polygon fill="black" stroke="black" points="53.5001,-205.888 50,-195.888 46.5001,-205.888 53.5001,-205.888"/>
</g>
<!-- RTC complex -->
<g id="node30" class="node"><title>RTC complex</title>
<ellipse fill="none" stroke="black" cx="89" cy="-492.083" rx="22.6101" ry="22.6101"/>
<text text-anchor="middle" x="89" y="-490.883" font-family="Times,serif" font-size="4.00">RTC complex</text>
</g>
<!-- RTC complex&#45;&gt;pr_7a1f0785&#45;3a6e&#45;4d13&#45;ba93&#45;161989ac5c17 -->
<g id="edge41" class="edge"><title>RTC complex&#45;&gt;pr_7a1f0785&#45;3a6e&#45;4d13&#45;ba93&#45;161989ac5c17</title>
<path fill="none" stroke="black" d="M81.4804,-470.49C78.5617,-462.498 75.0585,-452.904 71.4652,-443.063"/>
<polygon fill="black" stroke="black" points="74.7266,-441.79 68.0088,-433.598 68.1512,-444.191 74.7266,-441.79"/>
</g>
<!-- SARS&#45;CoV&#45;2 proteins -->
<g id="node32" class="node"><title>SARS&#45;CoV&#45;2 proteins</title>
<ellipse fill="none" stroke="black" cx="50" cy="-30.7591" rx="30.5202" ry="30.5202"/>
<text text-anchor="middle" x="50" y="-29.5591" font-family="Times,serif" font-size="4.00">SARS&#45;CoV&#45;2 proteins</text>
</g>
<!-- pr_56e791c5&#45;c3be&#45;4f28&#45;b674&#45;f4c583167f5b&#45;&gt;SARS&#45;CoV&#45;2 proteins -->
<g id="edge42" class="edge"><title>pr_56e791c5&#45;c3be&#45;4f28&#45;b674&#45;f4c583167f5b&#45;&gt;SARS&#45;CoV&#45;2 proteins</title>
<path fill="none" stroke="black" d="M50,-97.2742C50,-88.7584 50,-79.9782 50,-71.7212"/>
<polygon fill="black" stroke="black" points="53.5001,-71.6015 50,-61.6016 46.5001,-71.6016 53.5001,-71.6015"/>
</g>
<!-- SARS&#45;CoV&#45;2 pp&#45;1ab products -->
<g id="node34" class="node"><title>SARS&#45;CoV&#45;2 pp&#45;1ab products</title>
<ellipse fill="none" stroke="black" cx="248" cy="-737.208" rx="38.9294" ry="38.9294"/>
<text text-anchor="middle" x="248" y="-736.008" font-family="Times,serif" font-size="4.00">SARS&#45;CoV&#45;2 pp&#45;1ab products</text>
</g>
<!-- pr_f035763e&#45;788f&#45;4965&#45;8bd3&#45;0d11192003f2&#45;&gt;SARS&#45;CoV&#45;2 pp&#45;1ab products -->
<g id="edge43" class="edge"><title>pr_f035763e&#45;788f&#45;4965&#45;8bd3&#45;0d11192003f2&#45;&gt;SARS&#45;CoV&#45;2 pp&#45;1ab products</title>
<path fill="none" stroke="black" d="M220.646,-822.384C224.7,-809.906 229.056,-796.503 233.073,-784.142"/>
<polygon fill="black" stroke="black" points="236.448,-785.082 236.21,-774.49 229.79,-782.919 236.448,-785.082"/>
</g>
<!-- SARS&#45;CoV&#45;2 pp&#45;1a and pp&#45;1ab products -->
<g id="node35" class="node"><title>SARS&#45;CoV&#45;2 pp&#45;1a and pp&#45;1ab products</title>
<ellipse fill="none" stroke="black" cx="142" cy="-737.208" rx="49.142" ry="49.142"/>
<text text-anchor="middle" x="142" y="-736.008" font-family="Times,serif" font-size="4.00">SARS&#45;CoV&#45;2 pp&#45;1a and pp&#45;1ab products</text>
</g>
<!-- pr_f035763e&#45;788f&#45;4965&#45;8bd3&#45;0d11192003f2&#45;&gt;SARS&#45;CoV&#45;2 pp&#45;1a and pp&#45;1ab products -->
<g id="edge44" class="edge"><title>pr_f035763e&#45;788f&#45;4965&#45;8bd3&#45;0d11192003f2&#45;&gt;SARS&#45;CoV&#45;2 pp&#45;1a and pp&#45;1ab products</title>
<path fill="none" stroke="black" d="M182.077,-822.384C177.283,-812.314 172.201,-801.64 167.325,-791.399"/>
<polygon fill="black" stroke="black" points="170.378,-789.669 162.919,-782.144 164.057,-792.678 170.378,-789.669"/>
</g>
<!-- pr_7b4e0ab8&#45;79d6&#45;4e4d&#45;b421&#45;06b0a74be6d3 -->
<g id="node36" class="node"><title>pr_7b4e0ab8&#45;79d6&#45;4e4d&#45;b421&#45;06b0a74be6d3</title>
<polygon fill="none" stroke="black" points="166.5,-651.888 65.5,-651.888 65.5,-550.888 166.5,-550.888 166.5,-651.888"/>
<text text-anchor="middle" x="116" y="-600.188" font-family="Times,serif" font-size="4.00">pr_7b4e0ab8&#45;79d6&#45;4e4d&#45;b421&#45;06b0a74be6d3</text>
</g>
<!-- SARS&#45;CoV&#45;2 pp&#45;1ab products&#45;&gt;pr_7b4e0ab8&#45;79d6&#45;4e4d&#45;b421&#45;06b0a74be6d3 -->
<g id="edge45" class="edge"><title>SARS&#45;CoV&#45;2 pp&#45;1ab products&#45;&gt;pr_7b4e0ab8&#45;79d6&#45;4e4d&#45;b421&#45;06b0a74be6d3</title>
<path fill="none" stroke="black" d="M221.288,-709.128C207.116,-694.76 189.144,-676.54 172.077,-659.239"/>
<polygon fill="black" stroke="black" points="174.347,-656.555 164.833,-651.894 169.363,-661.471 174.347,-656.555"/>
</g>
<!-- SARS&#45;CoV&#45;2 pp&#45;1a and pp&#45;1ab products&#45;&gt;pr_7b4e0ab8&#45;79d6&#45;4e4d&#45;b421&#45;06b0a74be6d3 -->
<g id="edge46" class="edge"><title>SARS&#45;CoV&#45;2 pp&#45;1a and pp&#45;1ab products&#45;&gt;pr_7b4e0ab8&#45;79d6&#45;4e4d&#45;b421&#45;06b0a74be6d3</title>
<path fill="none" stroke="black" d="M132.76,-688.651C131.085,-680.027 129.318,-670.934 127.585,-662.015"/>
<polygon fill="black" stroke="black" points="130.993,-661.203 125.65,-652.054 124.121,-662.538 130.993,-661.203"/>
</g>
<!-- pr_7b4e0ab8&#45;79d6&#45;4e4d&#45;b421&#45;06b0a74be6d3&#45;&gt;RTC complex -->
<g id="edge47" class="edge"><title>pr_7b4e0ab8&#45;79d6&#45;4e4d&#45;b421&#45;06b0a74be6d3&#45;&gt;RTC complex</title>
<path fill="none" stroke="black" d="M103.527,-550.819C101.229,-541.683 98.8902,-532.389 96.7803,-524.004"/>
<polygon fill="black" stroke="black" points="100.173,-523.142 94.3381,-514.298 93.3841,-524.85 100.173,-523.142"/>
</g>
<!-- NSP11 -->
<g id="node37" class="node"><title>NSP11</title>
<ellipse fill="none" stroke="black" cx="57" cy="-737.208" rx="18" ry="18"/>
<text text-anchor="middle" x="57" y="-736.008" font-family="Times,serif" font-size="4.00">NSP11</text>
</g>
<!-- NSP11&#45;&gt;pr_7b4e0ab8&#45;79d6&#45;4e4d&#45;b421&#45;06b0a74be6d3 -->
<g id="edge48" class="edge"><title>NSP11&#45;&gt;pr_7b4e0ab8&#45;79d6&#45;4e4d&#45;b421&#45;06b0a74be6d3</title>
<path fill="none" stroke="black" d="M63.9998,-720.332C70.49,-705.611 80.5576,-682.776 90.1121,-661.105"/>
<polygon fill="black" stroke="black" points="93.3318,-662.478 94.1635,-651.916 86.9267,-659.654 93.3318,-662.478"/>
</g>
<!-- SARS&#45;COV&#45;2 polyprotein 1a -->
<g id="node38" class="node"><title>SARS&#45;COV&#45;2 polyprotein 1a</title>
<ellipse fill="none" stroke="black" cx="88" cy="-995.243" rx="37.8075" ry="37.8075"/>
<text text-anchor="middle" x="88" y="-994.043" font-family="Times,serif" font-size="4.00">SARS&#45;COV&#45;2 polyprotein 1a</text>
</g>
<!-- pr_fac6fb74&#45;82a4&#45;4112&#45;8453&#45;66fc2ae4a0e7 -->
<g id="node39" class="node"><title>pr_fac6fb74&#45;82a4&#45;4112&#45;8453&#45;66fc2ae4a0e7</title>
<polygon fill="none" stroke="black" points="137,-920.529 39,-920.529 39,-822.529 137,-822.529 137,-920.529"/>
<text text-anchor="middle" x="88" y="-870.329" font-family="Times,serif" font-size="4.00">pr_fac6fb74&#45;82a4&#45;4112&#45;8453&#45;66fc2ae4a0e7</text>
</g>
<!-- SARS&#45;COV&#45;2 polyprotein 1a&#45;&gt;pr_fac6fb74&#45;82a4&#45;4112&#45;8453&#45;66fc2ae4a0e7 -->
<g id="edge49" class="edge"><title>SARS&#45;COV&#45;2 polyprotein 1a&#45;&gt;pr_fac6fb74&#45;82a4&#45;4112&#45;8453&#45;66fc2ae4a0e7</title>
<path fill="none" stroke="black" d="M88,-957.395C88,-949.057 88,-940.004 88,-931.02"/>
<polygon fill="black" stroke="black" points="91.5001,-930.948 88,-920.948 84.5001,-930.948 91.5001,-930.948"/>
</g>
<!-- pr_fac6fb74&#45;82a4&#45;4112&#45;8453&#45;66fc2ae4a0e7&#45;&gt;SARS&#45;CoV&#45;2 pp&#45;1a and pp&#45;1ab products -->
<g id="edge51" class="edge"><title>pr_fac6fb74&#45;82a4&#45;4112&#45;8453&#45;66fc2ae4a0e7&#45;&gt;SARS&#45;CoV&#45;2 pp&#45;1a and pp&#45;1ab products</title>
<path fill="none" stroke="black" d="M107.648,-822.384C111.624,-812.64 115.831,-802.332 119.886,-792.397"/>
<polygon fill="black" stroke="black" points="123.176,-793.597 123.714,-783.016 116.695,-790.952 123.176,-793.597"/>
</g>
<!-- pr_fac6fb74&#45;82a4&#45;4112&#45;8453&#45;66fc2ae4a0e7&#45;&gt;NSP11 -->
<g id="edge50" class="edge"><title>pr_fac6fb74&#45;82a4&#45;4112&#45;8453&#45;66fc2ae4a0e7&#45;&gt;NSP11</title>
<path fill="none" stroke="black" d="M76.7206,-822.384C72.1762,-802.987 67.1079,-781.353 63.2474,-764.875"/>
<polygon fill="black" stroke="black" points="66.5915,-763.804 60.9026,-754.866 59.776,-765.401 66.5915,-763.804"/>
</g>
<!-- pr_2d052d88&#45;0ff8&#45;4fc9&#45;b8f1&#45;ab66fe533707&#45;&gt;SARS&#45;COV&#45;2 polyprotein 1a -->
<g id="edge52" class="edge"><title>pr_2d052d88&#45;0ff8&#45;4fc9&#45;b8f1&#45;ab66fe533707&#45;&gt;SARS&#45;COV&#45;2 polyprotein 1a</title>
<path fill="none" stroke="black" d="M88,-1071.16C88,-1061.97 88,-1052.35 88,-1043.18"/>
<polygon fill="black" stroke="black" points="91.5001,-1043.08 88,-1033.08 84.5001,-1043.08 91.5001,-1043.08"/>
</g>
</g>
</svg>
