<?xml version="1.0" encoding="UTF-8" standalone="no"?>
<!DOCTYPE svg PUBLIC "-//W3C//DTD SVG 1.1//EN"
 "http://www.w3.org/Graphics/SVG/1.1/DTD/svg11.dtd">
<!-- Generated by graphviz version 2.38.0 (20140413.2041)
 -->
<!-- Title: G Pages: 1 -->
<svg width="1348pt" height="1941pt"
 viewBox="0.00 0.00 1348.00 1941.27" xmlns="http://www.w3.org/2000/svg" xmlns:xlink="http://www.w3.org/1999/xlink">
<g id="graph0" class="graph" transform="scale(1 1) rotate(0) translate(4 1937.27)">
<title>G</title>
<polygon fill="white" stroke="none" points="-4,4 -4,-1937.27 1344,-1937.27 1344,4 -4,4"/>
<!-- Type I interferon signaling pathway -->
<g id="node1" class="node"><title>Type I interferon signaling pathway</title>
<ellipse fill="none" stroke="black" cx="842" cy="-1887.66" rx="45.717" ry="45.717"/>
<text text-anchor="middle" x="842" y="-1886.46" font-family="Times,serif" font-size="4.00">Type I interferon signaling pathway</text>
</g>
<!-- LY6E -->
<g id="node2" class="node"><title>LY6E</title>
<ellipse fill="none" stroke="black" cx="842" cy="-1788.05" rx="18" ry="18"/>
<text text-anchor="middle" x="842" y="-1786.85" font-family="Times,serif" font-size="4.00">LY6E</text>
</g>
<!-- Type I interferon signaling pathway&#45;&gt;LY6E -->
<g id="edge1" class="edge"><title>Type I interferon signaling pathway&#45;&gt;LY6E</title>
<path fill="none" stroke="black" d="M842,-1841.86C842,-1833.17 842,-1824.32 842,-1816.41"/>
<polygon fill="black" stroke="black" points="845.5,-1816.3 842,-1806.3 838.5,-1816.3 845.5,-1816.3"/>
</g>
<!-- M -->
<g id="node5" class="node"><title>M</title>
<ellipse fill="none" stroke="black" cx="865" cy="-1716.05" rx="18" ry="18"/>
<text text-anchor="middle" x="865" y="-1714.85" font-family="Times,serif" font-size="4.00">M</text>
</g>
<!-- LY6E&#45;&gt;M -->
<g id="edge2" class="edge"><title>LY6E&#45;&gt;M</title>
<path fill="none" stroke="black" d="M847.334,-1770.82C850.024,-1762.63 853.353,-1752.5 856.393,-1743.25"/>
<polygon fill="black" stroke="black" points="859.738,-1744.28 859.535,-1733.69 853.088,-1742.09 859.738,-1744.28"/>
</g>
<!-- E -->
<g id="node19" class="node"><title>E</title>
<ellipse fill="none" stroke="black" cx="819" cy="-1644.05" rx="18" ry="18"/>
<text text-anchor="middle" x="819" y="-1642.85" font-family="Times,serif" font-size="4.00">E</text>
</g>
<!-- LY6E&#45;&gt;E -->
<g id="edge4" class="edge"><title>LY6E&#45;&gt;E</title>
<path fill="none" stroke="black" d="M839.271,-1770.21C835.346,-1745.97 828.065,-1701.02 823.381,-1672.1"/>
<polygon fill="black" stroke="black" points="826.779,-1671.19 821.725,-1661.88 819.869,-1672.31 826.779,-1671.19"/>
</g>
<!-- Nucleocapsid -->
<g id="node23" class="node"><title>Nucleocapsid</title>
<ellipse fill="none" stroke="black" cx="766" cy="-1495.25" rx="22.6101" ry="22.6101"/>
<text text-anchor="middle" x="766" y="-1494.05" font-family="Times,serif" font-size="4.00">Nucleocapsid</text>
</g>
<!-- LY6E&#45;&gt;Nucleocapsid -->
<g id="edge5" class="edge"><title>LY6E&#45;&gt;Nucleocapsid</title>
<path fill="none" stroke="black" d="M856.536,-1776.77C868.605,-1767.26 884.901,-1751.92 892,-1734.05 897.907,-1719.18 894.758,-1713.81 892,-1698.05 880.105,-1630.09 875.328,-1609.3 834,-1554.05 822.625,-1538.85 806.555,-1524.95 792.894,-1514.6"/>
<polygon fill="black" stroke="black" points="794.894,-1511.72 784.762,-1508.63 790.752,-1517.37 794.894,-1511.72"/>
</g>
<!-- Orf7a -->
<g id="node33" class="node"><title>Orf7a</title>
<ellipse fill="none" stroke="black" cx="743" cy="-1572.05" rx="18" ry="18"/>
<text text-anchor="middle" x="743" y="-1570.85" font-family="Times,serif" font-size="4.00">Orf7a</text>
</g>
<!-- LY6E&#45;&gt;Orf7a -->
<g id="edge3" class="edge"><title>LY6E&#45;&gt;Orf7a</title>
<path fill="none" stroke="black" d="M831.459,-1773.22C814.984,-1750.96 783.143,-1705.3 765,-1662.05 756.559,-1641.93 750.849,-1617.84 747.366,-1599.8"/>
<polygon fill="black" stroke="black" points="750.808,-1599.16 745.569,-1589.95 743.922,-1600.41 750.808,-1599.16"/>
</g>
<!--  SARS&#45;CoV&#45;2 (+)gRNA -->
<g id="node3" class="node"><title> SARS&#45;CoV&#45;2 (+)gRNA</title>
<ellipse fill="none" stroke="black" cx="676" cy="-1404.1" rx="32.201" ry="32.201"/>
<text text-anchor="middle" x="676" y="-1402.9" font-family="Times,serif" font-size="4.00"> SARS&#45;CoV&#45;2 (+)gRNA</text>
</g>
<!-- N (&#45;)sgmRNA -->
<g id="node8" class="node"><title>N (&#45;)sgmRNA</title>
<ellipse fill="none" stroke="black" cx="466" cy="-1184.13" rx="22.6101" ry="22.6101"/>
<text text-anchor="middle" x="466" y="-1182.93" font-family="Times,serif" font-size="4.00">N (&#45;)sgmRNA</text>
</g>
<!--  SARS&#45;CoV&#45;2 (+)gRNA&#45;&gt;N (&#45;)sgmRNA -->
<g id="edge6" class="edge"><title> SARS&#45;CoV&#45;2 (+)gRNA&#45;&gt;N (&#45;)sgmRNA</title>
<path fill="none" stroke="black" d="M646.461,-1390.86C621.315,-1379.37 585.342,-1360.29 560,-1335.74 523.282,-1300.18 494.688,-1247.49 479.102,-1214.78"/>
<polygon fill="black" stroke="black" points="482.086,-1212.9 474.688,-1205.32 475.742,-1215.86 482.086,-1212.9"/>
</g>
<!-- Nucleoporin_gRNA complex  -->
<g id="node9" class="node"><title>Nucleoporin_gRNA complex </title>
<ellipse fill="none" stroke="black" cx="152" cy="-38.7141" rx="38.9294" ry="38.9294"/>
<text text-anchor="middle" x="152" y="-37.5141" font-family="Times,serif" font-size="4.00">Nucleoporin_gRNA complex </text>
</g>
<!--  SARS&#45;CoV&#45;2 (+)gRNA&#45;&gt;Nucleoporin_gRNA complex  -->
<g id="edge10" class="edge"><title> SARS&#45;CoV&#45;2 (+)gRNA&#45;&gt;Nucleoporin_gRNA complex </title>
<path fill="none" stroke="black" d="M643.651,-1401.66C561.785,-1397.37 349.321,-1381.95 299,-1335.74 113.204,-1165.14 152,-1039.81 152,-787.573 152,-787.573 152,-787.573 152,-230.068 152,-181.736 152,-126.501 152,-88.0244"/>
<polygon fill="black" stroke="black" points="155.5,-87.6361 152,-77.6361 148.5,-87.6362 155.5,-87.6361"/>
</g>
<!-- SARS&#45;CoV&#45;2 accessory protein coding (&#45;)sgmRNAs -->
<g id="node11" class="node"><title>SARS&#45;CoV&#45;2 accessory protein coding (&#45;)sgmRNAs</title>
<ellipse fill="none" stroke="black" cx="280" cy="-786.573" rx="61.5366" ry="61.5366"/>
<text text-anchor="middle" x="280" y="-785.373" font-family="Times,serif" font-size="4.00">SARS&#45;CoV&#45;2 accessory protein coding (&#45;)sgmRNAs</text>
</g>
<!--  SARS&#45;CoV&#45;2 (+)gRNA&#45;&gt;SARS&#45;CoV&#45;2 accessory protein coding (&#45;)sgmRNAs -->
<g id="edge7" class="edge"><title> SARS&#45;CoV&#45;2 (+)gRNA&#45;&gt;SARS&#45;CoV&#45;2 accessory protein coding (&#45;)sgmRNAs</title>
<path fill="none" stroke="black" d="M646.013,-1391.13C631.262,-1385.26 613.211,-1378.1 597,-1371.74 444.786,-1312.08 280,-1348.62 280,-1185.13 280,-1185.13 280,-1185.13 280,-1055.92 280,-988.953 280,-912.591 280,-858.494"/>
<polygon fill="black" stroke="black" points="283.5,-858.32 280,-848.32 276.5,-858.32 283.5,-858.32"/>
</g>
<!-- SARS&#45;CoV&#45;2 polyproteins -->
<g id="node17" class="node"><title>SARS&#45;CoV&#45;2 polyproteins</title>
<ellipse fill="none" stroke="black" cx="604" cy="-1300.74" rx="35.0036" ry="35.0036"/>
<text text-anchor="middle" x="604" y="-1299.54" font-family="Times,serif" font-size="4.00">SARS&#45;CoV&#45;2 polyproteins</text>
</g>
<!--  SARS&#45;CoV&#45;2 (+)gRNA&#45;&gt;SARS&#45;CoV&#45;2 polyproteins -->
<g id="edge8" class="edge"><title> SARS&#45;CoV&#45;2 (+)gRNA&#45;&gt;SARS&#45;CoV&#45;2 polyproteins</title>
<path fill="none" stroke="black" d="M657.645,-1377.26C649.169,-1365.33 638.959,-1350.95 629.732,-1337.97"/>
<polygon fill="black" stroke="black" points="632.483,-1335.79 623.838,-1329.67 626.776,-1339.85 632.483,-1335.79"/>
</g>
<!-- SARS&#45;CoV&#45;2 structural protein coding (&#45;)sgmRNAs -->
<g id="node27" class="node"><title>SARS&#45;CoV&#45;2 structural protein coding (&#45;)sgmRNAs</title>
<ellipse fill="none" stroke="black" cx="751" cy="-627.536" rx="61.5366" ry="61.5366"/>
<text text-anchor="middle" x="751" y="-626.336" font-family="Times,serif" font-size="4.00">SARS&#45;CoV&#45;2 structural protein coding (&#45;)sgmRNAs</text>
</g>
<!--  SARS&#45;CoV&#45;2 (+)gRNA&#45;&gt;SARS&#45;CoV&#45;2 structural protein coding (&#45;)sgmRNAs -->
<g id="edge9" class="edge"><title> SARS&#45;CoV&#45;2 (+)gRNA&#45;&gt;SARS&#45;CoV&#45;2 structural protein coding (&#45;)sgmRNAs</title>
<path fill="none" stroke="black" d="M706.275,-1392.68C731.442,-1382.35 765.953,-1363.94 784,-1335.74 820.371,-1278.92 803,-1252.6 803,-1185.13 803,-1185.13 803,-1185.13 803,-928.699 803,-848.165 784.602,-757.238 769.693,-696.774"/>
<polygon fill="black" stroke="black" points="773.062,-695.818 767.239,-686.967 766.271,-697.517 773.062,-695.818"/>
</g>
<!--  SARS&#45;CoV&#45;2 (&#45;)gRNA -->
<g id="node28" class="node"><title> SARS&#45;CoV&#45;2 (&#45;)gRNA</title>
<ellipse fill="none" stroke="black" cx="744" cy="-1300.74" rx="31.0804" ry="31.0804"/>
<text text-anchor="middle" x="744" y="-1299.54" font-family="Times,serif" font-size="4.00"> SARS&#45;CoV&#45;2 (&#45;)gRNA</text>
</g>
<!--  SARS&#45;CoV&#45;2 (+)gRNA&#45;&gt; SARS&#45;CoV&#45;2 (&#45;)gRNA -->
<g id="edge12" class="edge"><title> SARS&#45;CoV&#45;2 (+)gRNA&#45;&gt; SARS&#45;CoV&#45;2 (&#45;)gRNA</title>
<path fill="none" stroke="black" d="M689.149,-1374.32C697.096,-1361.36 707.34,-1346.03 716.879,-1332.81"/>
<polygon fill="black" stroke="black" points="719.907,-1334.6 723.014,-1324.47 714.268,-1330.45 719.907,-1334.6"/>
</g>
<!-- Replication transcription complex -->
<g id="node39" class="node"><title>Replication transcription complex</title>
<ellipse fill="none" stroke="black" cx="605" cy="-627.536" rx="44.0348" ry="44.0348"/>
<text text-anchor="middle" x="605" y="-626.336" font-family="Times,serif" font-size="4.00">Replication transcription complex</text>
</g>
<!--  SARS&#45;CoV&#45;2 (+)gRNA&#45;&gt;Replication transcription complex -->
<g id="edge11" class="edge"><title> SARS&#45;CoV&#45;2 (+)gRNA&#45;&gt;Replication transcription complex</title>
<path fill="none" stroke="black" d="M677.515,-1371.59C689.618,-1253.97 746.467,-841.335 691,-725.054 680.115,-702.235 661.613,-681.557 644.48,-665.247"/>
<polygon fill="black" stroke="black" points="646.45,-662.3 636.737,-658.068 641.691,-667.434 646.45,-662.3"/>
</g>
<!-- N (+)sgmRNA -->
<g id="node4" class="node"><title>N (+)sgmRNA</title>
<ellipse fill="none" stroke="black" cx="456" cy="-1056.92" rx="23.1702" ry="23.1702"/>
<text text-anchor="middle" x="456" y="-1055.72" font-family="Times,serif" font-size="4.00">N (+)sgmRNA</text>
</g>
<!-- N -->
<g id="node12" class="node"><title>N</title>
<ellipse fill="none" stroke="black" cx="416" cy="-929.699" rx="18" ry="18"/>
<text text-anchor="middle" x="416" y="-928.499" font-family="Times,serif" font-size="4.00">N</text>
</g>
<!-- N (+)sgmRNA&#45;&gt;N -->
<g id="edge13" class="edge"><title>N (+)sgmRNA&#45;&gt;N</title>
<path fill="none" stroke="black" d="M449.124,-1034.39C442.267,-1012.92 431.724,-979.924 424.381,-956.936"/>
<polygon fill="black" stroke="black" points="427.634,-955.617 421.257,-947.157 420.966,-957.748 427.634,-955.617"/>
</g>
<!-- M&#45;&gt;E -->
<g id="edge15" class="edge"><title>M&#45;&gt;E</title>
<path fill="none" stroke="black" d="M851.98,-1703.18C844.672,-1694.22 835.946,-1681.6 829.146,-1670.41"/>
<polygon fill="black" stroke="black" points="832,-1668.35 823.959,-1661.46 825.943,-1671.86 832,-1668.35"/>
</g>
<!-- M&#45;&gt;Nucleocapsid -->
<g id="edge16" class="edge"><title>M&#45;&gt;Nucleocapsid</title>
<path fill="none" stroke="black" d="M862.776,-1697.94C860.083,-1679.73 854.782,-1650.26 846,-1626.05 833.662,-1592.04 827.128,-1584.77 808,-1554.05 801.254,-1543.22 793.148,-1531.76 785.865,-1521.93"/>
<polygon fill="black" stroke="black" points="788.534,-1519.65 779.73,-1513.76 782.937,-1523.86 788.534,-1519.65"/>
</g>
<!-- M&#45;&gt;Orf7a -->
<g id="edge14" class="edge"><title>M&#45;&gt;Orf7a</title>
<path fill="none" stroke="black" d="M848.271,-1709.26C829.849,-1700.61 801.549,-1683.07 783,-1662.05 766.654,-1643.53 753.526,-1618.63 746.463,-1599.88"/>
<polygon fill="black" stroke="black" points="749.7,-1598.53 743.181,-1590.18 743.069,-1600.77 749.7,-1598.53"/>
</g>
<!-- CTSB -->
<g id="node6" class="node"><title>CTSB</title>
<ellipse fill="none" stroke="black" cx="1055" cy="-145.248" rx="18" ry="18"/>
<text text-anchor="middle" x="1055" y="-144.048" font-family="Times,serif" font-size="4.00">CTSB</text>
</g>
<!-- S2 -->
<g id="node15" class="node"><title>S2</title>
<ellipse fill="none" stroke="black" cx="1028" cy="-38.7141" rx="18" ry="18"/>
<text text-anchor="middle" x="1028" y="-37.5141" font-family="Times,serif" font-size="4.00">S2</text>
</g>
<!-- CTSB&#45;&gt;S2 -->
<g id="edge18" class="edge"><title>CTSB&#45;&gt;S2</title>
<path fill="none" stroke="black" d="M1050.66,-127.453C1046.39,-110.917 1039.8,-85.4138 1034.83,-66.1568"/>
<polygon fill="black" stroke="black" points="1038.22,-65.2745 1032.33,-56.4676 1031.44,-67.0252 1038.22,-65.2745"/>
</g>
<!-- S1 -->
<g id="node22" class="node"><title>S1</title>
<ellipse fill="none" stroke="black" cx="1126" cy="-38.7141" rx="18" ry="18"/>
<text text-anchor="middle" x="1126" y="-37.5141" font-family="Times,serif" font-size="4.00">S1</text>
</g>
<!-- CTSB&#45;&gt;S1 -->
<g id="edge17" class="edge"><title>CTSB&#45;&gt;S1</title>
<path fill="none" stroke="black" d="M1064.87,-129.713C1076.69,-112.316 1096.62,-82.9769 1110.49,-62.544"/>
<polygon fill="black" stroke="black" points="1113.49,-64.3645 1116.21,-54.1256 1107.7,-60.4315 1113.49,-64.3645"/>
</g>
<!-- SARS&#45;CoV&#45;2 polyproteins (Nsp6&#45;16) -->
<g id="node7" class="node"><title>SARS&#45;CoV&#45;2 polyproteins (Nsp6&#45;16)</title>
<ellipse fill="none" stroke="black" cx="597" cy="-929.699" rx="45.717" ry="45.717"/>
<text text-anchor="middle" x="597" y="-928.499" font-family="Times,serif" font-size="4.00">SARS&#45;CoV&#45;2 polyproteins (Nsp6&#45;16)</text>
</g>
<!-- SARS&#45;CoV&#45;2 &#160;Nsp5 products -->
<g id="node40" class="node"><title>SARS&#45;CoV&#45;2 &#160;Nsp5 products</title>
<ellipse fill="none" stroke="black" cx="605" cy="-786.573" rx="37.8075" ry="37.8075"/>
<text text-anchor="middle" x="605" y="-785.373" font-family="Times,serif" font-size="4.00">SARS&#45;CoV&#45;2 &#160;Nsp5 products</text>
</g>
<!-- SARS&#45;CoV&#45;2 polyproteins (Nsp6&#45;16)&#45;&gt;SARS&#45;CoV&#45;2 &#160;Nsp5 products -->
<g id="edge19" class="edge"><title>SARS&#45;CoV&#45;2 polyproteins (Nsp6&#45;16)&#45;&gt;SARS&#45;CoV&#45;2 &#160;Nsp5 products</title>
<path fill="none" stroke="black" d="M599.531,-884.046C600.425,-868.28 601.432,-850.51 602.337,-834.557"/>
<polygon fill="black" stroke="black" points="605.842,-834.558 602.914,-824.376 598.853,-834.162 605.842,-834.558"/>
</g>
<!-- N (&#45;)sgmRNA&#45;&gt;N (+)sgmRNA -->
<g id="edge20" class="edge"><title>N (&#45;)sgmRNA&#45;&gt;N (+)sgmRNA</title>
<path fill="none" stroke="black" d="M464.258,-1161.32C462.693,-1141.72 460.373,-1112.68 458.591,-1090.36"/>
<polygon fill="black" stroke="black" points="462.074,-1090.01 457.789,-1080.32 455.097,-1090.57 462.074,-1090.01"/>
</g>
<!-- Nucleoporin_gRNA complex &#45;&gt;M -->
<g id="edge21" class="edge"><title>Nucleoporin_gRNA complex &#45;&gt;M</title>
<path fill="none" stroke="black" d="M190.31,-45.136C340.99,-67.2724 889.903,-155.802 998,-285.068 1049.99,-347.244 1017,-385.388 1017,-466.439 1017,-787.573 1017,-787.573 1017,-787.573 1017,-964.187 979,-1006.52 979,-1183.13 979,-1573.05 979,-1573.05 979,-1573.05 979,-1629.98 922.596,-1677.08 889.137,-1700.01"/>
<polygon fill="black" stroke="black" points="886.772,-1697.38 880.375,-1705.83 890.642,-1703.21 886.772,-1697.38"/>
</g>
<!-- Nucleoporin_gRNA complex &#45;&gt;E -->
<g id="edge23" class="edge"><title>Nucleoporin_gRNA complex &#45;&gt;E</title>
<path fill="none" stroke="black" d="M117.433,-56.7993C94.4972,-69.6454 65.1944,-89.1708 46,-113.428 11.4213,-157.128 0,-174.342 0,-230.068 0,-1496.25 0,-1496.25 0,-1496.25 0,-1578.43 647.201,-1630.51 790.943,-1641.06"/>
<polygon fill="black" stroke="black" points="790.905,-1644.57 801.132,-1641.8 791.412,-1637.59 790.905,-1644.57"/>
</g>
<!-- Nucleoporin_gRNA complex &#45;&gt;Nucleocapsid -->
<g id="edge24" class="edge"><title>Nucleoporin_gRNA complex &#45;&gt;Nucleocapsid</title>
<path fill="none" stroke="black" d="M140.392,-75.7789C129.217,-113.748 114,-175.474 114,-230.068 114,-787.573 114,-787.573 114,-787.573 114,-966.578 137.192,-1187.93 166,-1229.74 303.856,-1429.8 628.865,-1480.13 733.167,-1491.33"/>
<polygon fill="black" stroke="black" points="732.81,-1494.82 743.115,-1492.36 733.525,-1487.85 732.81,-1494.82"/>
</g>
<!-- Nucleoporin_gRNA complex &#45;&gt;Orf7a -->
<g id="edge22" class="edge"><title>Nucleoporin_gRNA complex &#45;&gt;Orf7a</title>
<path fill="none" stroke="black" d="M123.82,-65.7524C90.0616,-99.9246 38,-163.427 38,-230.068 38,-1405.1 38,-1405.1 38,-1405.1 38,-1457.27 29.6463,-1484.97 70,-1518.05 120.485,-1559.44 592.832,-1568.93 714.517,-1570.7"/>
<polygon fill="black" stroke="black" points="714.817,-1574.2 724.865,-1570.84 714.915,-1567.2 714.817,-1574.2"/>
</g>
<!-- Nsp5 -->
<g id="node10" class="node"><title>Nsp5</title>
<ellipse fill="none" stroke="black" cx="515" cy="-929.699" rx="18" ry="18"/>
<text text-anchor="middle" x="515" y="-928.499" font-family="Times,serif" font-size="4.00">Nsp5</text>
</g>
<!-- Nsp5&#45;&gt;Replication transcription complex -->
<g id="edge26" class="edge"><title>Nsp5&#45;&gt;Replication transcription complex</title>
<path fill="none" stroke="black" d="M517.153,-911.694C521.951,-876.256 534.949,-792.213 558,-725.054 563.662,-708.558 571.465,-691.225 579.086,-675.872"/>
<polygon fill="black" stroke="black" points="582.39,-677.095 583.788,-666.593 576.146,-673.931 582.39,-677.095"/>
</g>
<!-- Nsp5&#45;&gt;SARS&#45;CoV&#45;2 &#160;Nsp5 products -->
<g id="edge25" class="edge"><title>Nsp5&#45;&gt;SARS&#45;CoV&#45;2 &#160;Nsp5 products</title>
<path fill="none" stroke="black" d="M523.874,-913.752C529.082,-905.053 535.832,-893.901 542,-884.091 553.882,-865.193 567.371,-844.438 578.811,-827.032"/>
<polygon fill="black" stroke="black" points="582.009,-828.539 584.587,-818.263 576.163,-824.689 582.009,-828.539"/>
</g>
<!-- SARS&#45;CoV&#45;2 accessory protein coding (+)sgmRNAs -->
<g id="node16" class="node"><title>SARS&#45;CoV&#45;2 accessory protein coding (+)sgmRNAs</title>
<ellipse fill="none" stroke="black" cx="319" cy="-467.439" rx="62.658" ry="62.658"/>
<text text-anchor="middle" x="319" y="-466.239" font-family="Times,serif" font-size="4.00">SARS&#45;CoV&#45;2 accessory protein coding (+)sgmRNAs</text>
</g>
<!-- SARS&#45;CoV&#45;2 accessory protein coding (&#45;)sgmRNAs&#45;&gt;SARS&#45;CoV&#45;2 accessory protein coding (+)sgmRNAs -->
<g id="edge27" class="edge"><title>SARS&#45;CoV&#45;2 accessory protein coding (&#45;)sgmRNAs&#45;&gt;SARS&#45;CoV&#45;2 accessory protein coding (+)sgmRNAs</title>
<path fill="none" stroke="black" d="M287.427,-725.176C293.919,-672.39 303.353,-595.677 310.217,-539.86"/>
<polygon fill="black" stroke="black" points="313.721,-540.044 311.467,-529.691 306.773,-539.189 313.721,-540.044"/>
</g>
<!-- Replication transcription complex_N oligomer -->
<g id="node24" class="node"><title>Replication transcription complex_N oligomer</title>
<ellipse fill="none" stroke="black" cx="416" cy="-786.573" rx="56.9917" ry="56.9917"/>
<text text-anchor="middle" x="416" y="-785.373" font-family="Times,serif" font-size="4.00">Replication transcription complex_N oligomer</text>
</g>
<!-- N&#45;&gt;Replication transcription complex_N oligomer -->
<g id="edge28" class="edge"><title>N&#45;&gt;Replication transcription complex_N oligomer</title>
<path fill="none" stroke="black" d="M416,-911.676C416,-897.057 416,-874.999 416,-853.515"/>
<polygon fill="black" stroke="black" points="419.5,-853.382 416,-843.382 412.5,-853.382 419.5,-853.382"/>
</g>
<!-- ACE2 (15 Kda) -->
<g id="node13" class="node"><title>ACE2 (15 Kda)</title>
<ellipse fill="none" stroke="black" cx="1190" cy="-38.7141" rx="24.2908" ry="24.2908"/>
<text text-anchor="middle" x="1190" y="-37.5141" font-family="Times,serif" font-size="4.00">ACE2 (15 Kda)</text>
</g>
<!-- ACE2 (100 Kda) -->
<g id="node14" class="node"><title>ACE2 (100 Kda)</title>
<ellipse fill="none" stroke="black" cx="1258" cy="-38.7141" rx="25.4118" ry="25.4118"/>
<text text-anchor="middle" x="1258" y="-37.5141" font-family="Times,serif" font-size="4.00">ACE2 (100 Kda)</text>
</g>
<!-- S2&#45;&gt;M -->
<g id="edge29" class="edge"><title>S2&#45;&gt;M</title>
<path fill="none" stroke="black" d="M1015.22,-51.8512C1001.98,-65.4027 982.088,-88.7003 974,-113.428 965.207,-140.311 967.811,-149.469 974,-177.068 981.743,-211.599 990.883,-218.094 1008,-249.068 1017.18,-265.686 1024.49,-267.233 1031,-285.068 1058.88,-361.449 1055,-385.127 1055,-466.439 1055,-930.699 1055,-930.699 1055,-930.699 1055,-1095.59 1017,-1134.86 1017,-1299.74 1017,-1573.05 1017,-1573.05 1017,-1573.05 1017,-1614.02 1020.04,-1631.28 993,-1662.05 966.986,-1691.66 921.826,-1705.08 892.692,-1710.91"/>
<polygon fill="black" stroke="black" points="891.956,-1707.48 882.748,-1712.72 893.215,-1714.37 891.956,-1707.48"/>
</g>
<!-- S2&#45;&gt;E -->
<g id="edge31" class="edge"><title>S2&#45;&gt;E</title>
<path fill="none" stroke="black" d="M1012.54,-48.5564C992.851,-60.6386 959.2,-84.1826 941,-113.428 856.834,-248.672 879,-307.144 879,-466.439 879,-1301.74 879,-1301.74 879,-1301.74 879,-1420.97 843.047,-1560.13 826.803,-1616.92"/>
<polygon fill="black" stroke="black" points="823.436,-1615.96 824.012,-1626.54 830.159,-1617.91 823.436,-1615.96"/>
</g>
<!-- S2&#45;&gt;Nucleocapsid -->
<g id="edge32" class="edge"><title>S2&#45;&gt;Nucleocapsid</title>
<path fill="none" stroke="black" d="M1011.5,-45.9781C985.601,-56.5057 935.046,-79.9319 903,-113.428 862.415,-155.85 841,-171.359 841,-230.068 841,-1301.74 841,-1301.74 841,-1301.74 841,-1364.57 805.89,-1431.54 783.715,-1467.58"/>
<polygon fill="black" stroke="black" points="780.747,-1465.72 778.385,-1476.05 786.672,-1469.45 780.747,-1465.72"/>
</g>
<!-- S2&#45;&gt;Orf7a -->
<g id="edge30" class="edge"><title>S2&#45;&gt;Orf7a</title>
<path fill="none" stroke="black" d="M1009.83,-39.7847C915.991,-41.1503 481.803,-59.8216 253,-285.068 -71.3715,-604.396 114,-844.565 114,-1299.74 114,-1405.1 114,-1405.1 114,-1405.1 114,-1531.17 592.409,-1563.57 714.77,-1569.79"/>
<polygon fill="black" stroke="black" points="714.694,-1573.29 724.854,-1570.28 715.037,-1566.3 714.694,-1573.29"/>
</g>
<!-- SARS&#45;CoV&#45;2 accessory proteins -->
<g id="node20" class="node"><title>SARS&#45;CoV&#45;2 accessory proteins</title>
<ellipse fill="none" stroke="black" cx="304" cy="-326.964" rx="41.7924" ry="41.7924"/>
<text text-anchor="middle" x="304" y="-325.764" font-family="Times,serif" font-size="4.00">SARS&#45;CoV&#45;2 accessory proteins</text>
</g>
<!-- SARS&#45;CoV&#45;2 accessory protein coding (+)sgmRNAs&#45;&gt;SARS&#45;CoV&#45;2 accessory proteins -->
<g id="edge33" class="edge"><title>SARS&#45;CoV&#45;2 accessory protein coding (+)sgmRNAs&#45;&gt;SARS&#45;CoV&#45;2 accessory proteins</title>
<path fill="none" stroke="black" d="M312.333,-404.895C311.388,-396.165 310.424,-387.27 309.504,-378.774"/>
<polygon fill="black" stroke="black" points="312.964,-378.212 308.407,-368.647 306.004,-378.966 312.964,-378.212"/>
</g>
<!-- SARS&#45;CoV&#45;2 polyproteins (cleaved) -->
<g id="node26" class="node"><title>SARS&#45;CoV&#45;2 polyproteins (cleaved)</title>
<ellipse fill="none" stroke="black" cx="562" cy="-1184.13" rx="45.717" ry="45.717"/>
<text text-anchor="middle" x="562" y="-1182.93" font-family="Times,serif" font-size="4.00">SARS&#45;CoV&#45;2 polyproteins (cleaved)</text>
</g>
<!-- SARS&#45;CoV&#45;2 polyproteins&#45;&gt;SARS&#45;CoV&#45;2 polyproteins (cleaved) -->
<g id="edge34" class="edge"><title>SARS&#45;CoV&#45;2 polyproteins&#45;&gt;SARS&#45;CoV&#45;2 polyproteins (cleaved)</title>
<path fill="none" stroke="black" d="M592.189,-1267.51C588.697,-1257.98 584.782,-1247.3 580.958,-1236.87"/>
<polygon fill="black" stroke="black" points="584.215,-1235.58 577.487,-1227.39 577.642,-1237.99 584.215,-1235.58"/>
</g>
<!-- Nsp3 -->
<g id="node36" class="node"><title>Nsp3</title>
<ellipse fill="none" stroke="black" cx="644" cy="-1184.13" rx="18" ry="18"/>
<text text-anchor="middle" x="644" y="-1182.93" font-family="Times,serif" font-size="4.00">Nsp3</text>
</g>
<!-- SARS&#45;CoV&#45;2 polyproteins&#45;&gt;Nsp3 -->
<g id="edge35" class="edge"><title>SARS&#45;CoV&#45;2 polyproteins&#45;&gt;Nsp3</title>
<path fill="none" stroke="black" d="M615.249,-1267.51C621.487,-1249.64 629.14,-1227.71 634.982,-1210.97"/>
<polygon fill="black" stroke="black" points="638.365,-1211.9 638.356,-1201.3 631.756,-1209.59 638.365,-1211.9"/>
</g>
<!-- FURIN -->
<g id="node18" class="node"><title>FURIN</title>
<ellipse fill="none" stroke="black" cx="1322" cy="-145.248" rx="18" ry="18"/>
<text text-anchor="middle" x="1322" y="-144.048" font-family="Times,serif" font-size="4.00">FURIN</text>
</g>
<!-- FURIN&#45;&gt;ACE2 (15 Kda) -->
<g id="edge36" class="edge"><title>FURIN&#45;&gt;ACE2 (15 Kda)</title>
<path fill="none" stroke="black" d="M1311.7,-130.292C1307.03,-124.593 1301.18,-118.228 1295,-113.428 1267.06,-91.7272 1252.1,-98.9299 1224,-77.4282 1219.73,-74.1635 1215.57,-70.316 1211.71,-66.3483"/>
<polygon fill="black" stroke="black" points="1214.03,-63.6993 1204.69,-58.6916 1208.87,-68.4287 1214.03,-63.6993"/>
</g>
<!-- FURIN&#45;&gt;ACE2 (100 Kda) -->
<g id="edge38" class="edge"><title>FURIN&#45;&gt;ACE2 (100 Kda)</title>
<path fill="none" stroke="black" d="M1312.83,-129.271C1303.3,-113.703 1288.13,-88.9247 1276.16,-69.3741"/>
<polygon fill="black" stroke="black" points="1279.12,-67.5121 1270.92,-60.8111 1273.15,-71.1672 1279.12,-67.5121"/>
</g>
<!-- FURIN&#45;&gt;S2 -->
<g id="edge39" class="edge"><title>FURIN&#45;&gt;S2</title>
<path fill="none" stroke="black" d="M1312.56,-129.699C1307.96,-123.754 1301.93,-117.363 1295,-113.428 1217.99,-69.6891 1182.65,-106.544 1099,-77.4282 1082.4,-71.6498 1064.95,-62.4295 1051.5,-54.5523"/>
<polygon fill="black" stroke="black" points="1053.27,-51.5286 1042.89,-49.3721 1049.66,-57.5267 1053.27,-51.5286"/>
</g>
<!-- FURIN&#45;&gt;S1 -->
<g id="edge37" class="edge"><title>FURIN&#45;&gt;S1</title>
<path fill="none" stroke="black" d="M1312.42,-129.938C1307.79,-124.037 1301.78,-117.615 1295,-113.428 1241.07,-80.1204 1210.4,-111.579 1157,-77.4282 1150.96,-73.5624 1145.52,-68.1291 1140.95,-62.5878"/>
<polygon fill="black" stroke="black" points="1143.72,-60.4438 1134.9,-54.5618 1138.12,-64.6553 1143.72,-60.4438"/>
</g>
<!-- E&#45;&gt;M -->
<g id="edge40" class="edge"><title>E&#45;&gt;M</title>
<path fill="none" stroke="black" d="M832.018,-1656.93C839.291,-1665.84 847.968,-1678.38 854.755,-1689.53"/>
<polygon fill="black" stroke="black" points="851.891,-1691.57 859.939,-1698.46 857.946,-1688.06 851.891,-1691.57"/>
</g>
<!-- E&#45;&gt;Nucleocapsid -->
<g id="edge42" class="edge"><title>E&#45;&gt;Nucleocapsid</title>
<path fill="none" stroke="black" d="M813.126,-1626.78C804.408,-1602.64 787.899,-1556.91 776.92,-1526.5"/>
<polygon fill="black" stroke="black" points="780.117,-1525.04 773.429,-1516.83 773.532,-1527.42 780.117,-1525.04"/>
</g>
<!-- E&#45;&gt;Orf7a -->
<g id="edge41" class="edge"><title>E&#45;&gt;Orf7a</title>
<path fill="none" stroke="black" d="M803.962,-1633.61C791.173,-1623.63 773.216,-1607.55 759.971,-1594.46"/>
<polygon fill="black" stroke="black" points="762.302,-1591.84 752.791,-1587.18 757.316,-1596.76 762.302,-1591.84"/>
</g>
<!-- SARS&#45;CoV&#45;2 accessory proteins&#45;&gt;Orf7a -->
<g id="edge43" class="edge"><title>SARS&#45;CoV&#45;2 accessory proteins&#45;&gt;Orf7a</title>
<path fill="none" stroke="black" d="M276.08,-358.365C265.32,-371.711 253.954,-388.135 247,-404.86 197.957,-522.817 226.668,-563.335 204,-689.054 154.793,-961.969 76,-1022.43 76,-1299.74 76,-1405.1 76,-1405.1 76,-1405.1 76,-1456.42 61.4764,-1484.14 100,-1518.05 146.726,-1559.19 597.194,-1568.85 714.95,-1570.68"/>
<polygon fill="black" stroke="black" points="714.933,-1574.18 724.984,-1570.83 715.037,-1567.18 714.933,-1574.18"/>
</g>
<!-- SARS&#45;CoV&#45;2 Nsp3 products -->
<g id="node21" class="node"><title>SARS&#45;CoV&#45;2 Nsp3 products</title>
<ellipse fill="none" stroke="black" cx="644" cy="-1056.92" rx="37.2466" ry="37.2466"/>
<text text-anchor="middle" x="644" y="-1055.72" font-family="Times,serif" font-size="4.00">SARS&#45;CoV&#45;2 Nsp3 products</text>
</g>
<!-- SARS&#45;CoV&#45;2 Nsp3 products&#45;&gt;Replication transcription complex -->
<g id="edge44" class="edge"><title>SARS&#45;CoV&#45;2 Nsp3 products&#45;&gt;Replication transcription complex</title>
<path fill="none" stroke="black" d="M650.61,-1020.08C660.66,-958.723 676.202,-830.035 652,-725.054 648.01,-707.747 640.478,-689.951 632.593,-674.427"/>
<polygon fill="black" stroke="black" points="635.688,-672.791 627.934,-665.571 629.492,-676.05 635.688,-672.791"/>
</g>
<!-- Nucleocapsid&#45;&gt; SARS&#45;CoV&#45;2 (+)gRNA -->
<g id="edge46" class="edge"><title>Nucleocapsid&#45;&gt; SARS&#45;CoV&#45;2 (+)gRNA</title>
<path fill="none" stroke="black" d="M749.91,-1478.31C737.768,-1466.28 720.757,-1449.43 706.115,-1434.93"/>
<polygon fill="black" stroke="black" points="708.28,-1432.15 698.713,-1427.59 703.354,-1437.12 708.28,-1432.15"/>
</g>
<!-- Nucleocapsid&#45;&gt;N -->
<g id="edge45" class="edge"><title>Nucleocapsid&#45;&gt;N</title>
<path fill="none" stroke="black" d="M744.821,-1486.71C718.267,-1476.86 671.772,-1458.26 635,-1436.45 524.794,-1371.06 475.649,-1350.93 434,-1229.74 401.184,-1134.26 407.786,-1011.63 412.895,-957.928"/>
<polygon fill="black" stroke="black" points="416.391,-958.144 413.916,-947.843 409.427,-957.439 416.391,-958.144"/>
</g>
<!-- Replication transcription complex_N oligomer&#45;&gt;Nucleoporin_gRNA complex  -->
<g id="edge47" class="edge"><title>Replication transcription complex_N oligomer&#45;&gt;Nucleoporin_gRNA complex </title>
<path fill="none" stroke="black" d="M421.758,-729.873C429.145,-633.143 432.885,-430.535 355,-285.068 309.516,-200.117 231.866,-117.109 186.935,-72.7771"/>
<polygon fill="black" stroke="black" points="189.34,-70.234 179.746,-65.7392 184.443,-75.2359 189.34,-70.234"/>
</g>
<!-- Replication transcription complex_N oligomer&#45;&gt;Replication transcription complex -->
<g id="edge48" class="edge"><title>Replication transcription complex_N oligomer&#45;&gt;Replication transcription complex</title>
<path fill="none" stroke="black" d="M454.749,-744.748C462.415,-738.138 470.416,-731.387 478,-725.054 505.013,-702.498 535.799,-677.335 560.412,-658.357"/>
<polygon fill="black" stroke="black" points="562.687,-661.024 568.508,-652.172 558.437,-655.462 562.687,-661.024"/>
</g>
<!-- ACE2 -->
<g id="node25" class="node"><title>ACE2</title>
<ellipse fill="none" stroke="black" cx="1123" cy="-231.068" rx="18" ry="18"/>
<text text-anchor="middle" x="1123" y="-229.868" font-family="Times,serif" font-size="4.00">ACE2</text>
</g>
<!-- ACE2_SPIKE complex -->
<g id="node29" class="node"><title>ACE2_SPIKE complex</title>
<ellipse fill="none" stroke="black" cx="1123" cy="-145.248" rx="31.6406" ry="31.6406"/>
<text text-anchor="middle" x="1123" y="-144.048" font-family="Times,serif" font-size="4.00">ACE2_SPIKE complex</text>
</g>
<!-- ACE2&#45;&gt;ACE2_SPIKE complex -->
<g id="edge49" class="edge"><title>ACE2&#45;&gt;ACE2_SPIKE complex</title>
<path fill="none" stroke="black" d="M1123,-212.7C1123,-205.245 1123,-196.189 1123,-187.192"/>
<polygon fill="black" stroke="black" points="1126.5,-187.149 1123,-177.149 1119.5,-187.149 1126.5,-187.149"/>
</g>
<!-- SARS&#45;CoV&#45;2 polyproteins (cleaved)&#45;&gt;SARS&#45;CoV&#45;2 Nsp3 products -->
<g id="edge51" class="edge"><title>SARS&#45;CoV&#45;2 polyproteins (cleaved)&#45;&gt;SARS&#45;CoV&#45;2 Nsp3 products</title>
<path fill="none" stroke="black" d="M586.603,-1145.56C596.713,-1130.13 608.416,-1112.25 618.607,-1096.69"/>
<polygon fill="black" stroke="black" points="621.542,-1098.6 624.093,-1088.32 615.686,-1094.76 621.542,-1098.6"/>
</g>
<!-- SARS&#45;CoV&#45;2 polyproteins (Nsp5&#45;16) -->
<g id="node31" class="node"><title>SARS&#45;CoV&#45;2 polyproteins (Nsp5&#45;16)</title>
<ellipse fill="none" stroke="black" cx="543" cy="-1056.92" rx="45.717" ry="45.717"/>
<text text-anchor="middle" x="543" y="-1055.72" font-family="Times,serif" font-size="4.00">SARS&#45;CoV&#45;2 polyproteins (Nsp5&#45;16)</text>
</g>
<!-- SARS&#45;CoV&#45;2 polyproteins (cleaved)&#45;&gt;SARS&#45;CoV&#45;2 polyproteins (Nsp5&#45;16) -->
<g id="edge50" class="edge"><title>SARS&#45;CoV&#45;2 polyproteins (cleaved)&#45;&gt;SARS&#45;CoV&#45;2 polyproteins (Nsp5&#45;16)</title>
<path fill="none" stroke="black" d="M555.301,-1138.99C553.982,-1130.29 552.583,-1121.07 551.22,-1112.09"/>
<polygon fill="black" stroke="black" points="554.663,-1111.45 549.702,-1102.09 547.742,-1112.5 554.663,-1111.45"/>
</g>
<!-- SARS&#45;CoV&#45;2 structural protein coding (+)sgmRNAs -->
<g id="node30" class="node"><title>SARS&#45;CoV&#45;2 structural protein coding (+)sgmRNAs</title>
<ellipse fill="none" stroke="black" cx="751" cy="-467.439" rx="62.0973" ry="62.0973"/>
<text text-anchor="middle" x="751" y="-466.239" font-family="Times,serif" font-size="4.00">SARS&#45;CoV&#45;2 structural protein coding (+)sgmRNAs</text>
</g>
<!-- SARS&#45;CoV&#45;2 structural protein coding (&#45;)sgmRNAs&#45;&gt;SARS&#45;CoV&#45;2 structural protein coding (+)sgmRNAs -->
<g id="edge52" class="edge"><title>SARS&#45;CoV&#45;2 structural protein coding (&#45;)sgmRNAs&#45;&gt;SARS&#45;CoV&#45;2 structural protein coding (+)sgmRNAs</title>
<path fill="none" stroke="black" d="M751,-565.864C751,-557.352 751,-548.539 751,-539.85"/>
<polygon fill="black" stroke="black" points="754.5,-539.733 751,-529.733 747.5,-539.733 754.5,-539.733"/>
</g>
<!--  SARS&#45;CoV&#45;2 (&#45;)gRNA&#45;&gt; SARS&#45;CoV&#45;2 (+)gRNA -->
<g id="edge53" class="edge"><title> SARS&#45;CoV&#45;2 (&#45;)gRNA&#45;&gt; SARS&#45;CoV&#45;2 (+)gRNA</title>
<path fill="none" stroke="black" d="M731.51,-1329.44C723.577,-1342.46 713.192,-1358.04 703.494,-1371.51"/>
<polygon fill="black" stroke="black" points="700.664,-1369.45 697.572,-1379.59 706.308,-1373.59 700.664,-1369.45"/>
</g>
<!-- ACE2_SPIKE complex&#45;&gt;Nucleoporin_gRNA complex  -->
<g id="edge58" class="edge"><title>ACE2_SPIKE complex&#45;&gt;Nucleoporin_gRNA complex </title>
<path fill="none" stroke="black" d="M1099.64,-123.202C1094.19,-119.32 1088.16,-115.761 1082,-113.428 918.329,-51.4772 368.285,-41.5902 200.804,-40.0132"/>
<polygon fill="black" stroke="black" points="200.825,-36.5133 190.794,-39.9246 200.763,-43.513 200.825,-36.5133"/>
</g>
<!-- ACE2_SPIKE complex&#45;&gt;ACE2 (15 Kda) -->
<g id="edge54" class="edge"><title>ACE2_SPIKE complex&#45;&gt;ACE2 (15 Kda)</title>
<path fill="none" stroke="black" d="M1139.73,-118.139C1149.45,-102.974 1161.71,-83.8496 1171.69,-68.283"/>
<polygon fill="black" stroke="black" points="1174.81,-69.8934 1177.26,-59.5856 1168.92,-66.116 1174.81,-69.8934"/>
</g>
<!-- ACE2_SPIKE complex&#45;&gt;ACE2 (100 Kda) -->
<g id="edge56" class="edge"><title>ACE2_SPIKE complex&#45;&gt;ACE2 (100 Kda)</title>
<path fill="none" stroke="black" d="M1147.63,-124.556C1152.64,-120.756 1157.93,-116.885 1163,-113.428 1188.69,-95.9084 1198.85,-97.0204 1223,-77.4282 1227.14,-74.0674 1231.26,-70.2223 1235.13,-66.3017"/>
<polygon fill="black" stroke="black" points="1237.91,-68.4528 1242.23,-58.7767 1232.82,-63.6497 1237.91,-68.4528"/>
</g>
<!-- ACE2_SPIKE complex&#45;&gt;S2 -->
<g id="edge57" class="edge"><title>ACE2_SPIKE complex&#45;&gt;S2</title>
<path fill="none" stroke="black" d="M1101.92,-121.049C1085.33,-102.792 1062.43,-77.5985 1046.53,-60.1079"/>
<polygon fill="black" stroke="black" points="1049.09,-57.713 1039.77,-52.6664 1043.91,-62.4209 1049.09,-57.713"/>
</g>
<!-- ACE2_SPIKE complex&#45;&gt;S1 -->
<g id="edge55" class="edge"><title>ACE2_SPIKE complex&#45;&gt;S1</title>
<path fill="none" stroke="black" d="M1123.89,-113.167C1124.31,-98.4921 1124.81,-81.1345 1125.22,-66.9782"/>
<polygon fill="black" stroke="black" points="1128.72,-66.9705 1125.51,-56.8742 1121.72,-66.7697 1128.72,-66.9705"/>
</g>
<!-- SARS&#45;CoV&#45;2 structural proteins -->
<g id="node38" class="node"><title>SARS&#45;CoV&#45;2 structural proteins</title>
<ellipse fill="none" stroke="black" cx="948" cy="-326.964" rx="41.2319" ry="41.2319"/>
<text text-anchor="middle" x="948" y="-325.764" font-family="Times,serif" font-size="4.00">SARS&#45;CoV&#45;2 structural proteins</text>
</g>
<!-- SARS&#45;CoV&#45;2 structural protein coding (+)sgmRNAs&#45;&gt;SARS&#45;CoV&#45;2 structural proteins -->
<g id="edge59" class="edge"><title>SARS&#45;CoV&#45;2 structural protein coding (+)sgmRNAs&#45;&gt;SARS&#45;CoV&#45;2 structural proteins</title>
<path fill="none" stroke="black" d="M801.477,-430.958C833.884,-408.178 875.474,-378.944 906.059,-357.445"/>
<polygon fill="black" stroke="black" points="908.209,-360.212 914.377,-351.598 904.183,-354.485 908.209,-360.212"/>
</g>
<!-- SARS&#45;CoV&#45;2 polyproteins (Nsp5&#45;16)&#45;&gt;SARS&#45;CoV&#45;2 polyproteins (Nsp6&#45;16) -->
<g id="edge61" class="edge"><title>SARS&#45;CoV&#45;2 polyproteins (Nsp5&#45;16)&#45;&gt;SARS&#45;CoV&#45;2 polyproteins (Nsp6&#45;16)</title>
<path fill="none" stroke="black" d="M560.831,-1014.57C565.393,-1003.99 570.352,-992.492 575.093,-981.499"/>
<polygon fill="black" stroke="black" points="578.441,-982.572 579.187,-972.004 572.014,-979.8 578.441,-982.572"/>
</g>
<!-- SARS&#45;CoV&#45;2 polyproteins (Nsp5&#45;16)&#45;&gt;Nsp5 -->
<g id="edge60" class="edge"><title>SARS&#45;CoV&#45;2 polyproteins (Nsp5&#45;16)&#45;&gt;Nsp5</title>
<path fill="none" stroke="black" d="M533.207,-1012.12C529.158,-994.014 524.591,-973.592 521.044,-957.73"/>
<polygon fill="black" stroke="black" points="524.369,-956.557 518.771,-947.562 517.537,-958.085 524.369,-956.557"/>
</g>
<!-- TMPRSS2 -->
<g id="node32" class="node"><title>TMPRSS2</title>
<ellipse fill="none" stroke="black" cx="1191" cy="-145.248" rx="18.6233" ry="18.6233"/>
<text text-anchor="middle" x="1191" y="-144.048" font-family="Times,serif" font-size="4.00">TMPRSS2</text>
</g>
<!-- TMPRSS2&#45;&gt;ACE2 (15 Kda) -->
<g id="edge62" class="edge"><title>TMPRSS2&#45;&gt;ACE2 (15 Kda)</title>
<path fill="none" stroke="black" d="M1190.83,-126.515C1190.69,-112.14 1190.49,-91.4571 1190.33,-73.8863"/>
<polygon fill="black" stroke="black" points="1193.82,-73.3984 1190.23,-63.4324 1186.82,-73.4655 1193.82,-73.3984"/>
</g>
<!-- TMPRSS2&#45;&gt;ACE2 (100 Kda) -->
<g id="edge64" class="edge"><title>TMPRSS2&#45;&gt;ACE2 (100 Kda)</title>
<path fill="none" stroke="black" d="M1200.6,-129.271C1210.58,-113.703 1226.46,-88.9247 1238.99,-69.3741"/>
<polygon fill="black" stroke="black" points="1242.03,-71.1189 1244.48,-60.8111 1236.14,-67.3415 1242.03,-71.1189"/>
</g>
<!-- TMPRSS2&#45;&gt;S2 -->
<g id="edge65" class="edge"><title>TMPRSS2&#45;&gt;S2</title>
<path fill="none" stroke="black" d="M1180.12,-129.752C1175.53,-124.227 1169.89,-118.134 1164,-113.428 1159.15,-109.555 1090.41,-72.8474 1052.56,-52.7382"/>
<polygon fill="black" stroke="black" points="1054.14,-49.6119 1043.66,-48.0134 1050.85,-55.7944 1054.14,-49.6119"/>
</g>
<!-- TMPRSS2&#45;&gt;S1 -->
<g id="edge63" class="edge"><title>TMPRSS2&#45;&gt;S1</title>
<path fill="none" stroke="black" d="M1181.41,-128.824C1170.63,-111.488 1153.01,-83.1494 1140.54,-63.0897"/>
<polygon fill="black" stroke="black" points="1143.46,-61.1688 1135.21,-54.5249 1137.52,-64.8652 1143.46,-61.1688"/>
</g>
<!-- Orf7a&#45;&gt;M -->
<g id="edge66" class="edge"><title>Orf7a&#45;&gt;M</title>
<path fill="none" stroke="black" d="M754.243,-1586.56C764.826,-1605.06 780.343,-1638.64 801,-1662.05 813.411,-1676.12 830.187,-1688.62 843.606,-1697.95"/>
<polygon fill="black" stroke="black" points="841.631,-1700.84 851.859,-1703.6 845.587,-1695.06 841.631,-1700.84"/>
</g>
<!-- Orf7a&#45;&gt;E -->
<g id="edge67" class="edge"><title>Orf7a&#45;&gt;E</title>
<path fill="none" stroke="black" d="M758.041,-1582.5C770.817,-1592.47 788.749,-1608.53 801.989,-1621.6"/>
<polygon fill="black" stroke="black" points="799.657,-1624.22 809.169,-1628.89 804.643,-1619.31 799.657,-1624.22"/>
</g>
<!-- Orf7a&#45;&gt;Nucleocapsid -->
<g id="edge68" class="edge"><title>Orf7a&#45;&gt;Nucleocapsid</title>
<path fill="none" stroke="black" d="M748.104,-1554.45C750.573,-1546.42 753.618,-1536.52 756.492,-1527.17"/>
<polygon fill="black" stroke="black" points="759.915,-1527.95 759.508,-1517.36 753.224,-1525.89 759.915,-1527.95"/>
</g>
<!-- Camostat mesylate -->
<g id="node34" class="node"><title>Camostat mesylate</title>
<ellipse fill="none" stroke="black" cx="1257" cy="-145.248" rx="29.3373" ry="29.3373"/>
<text text-anchor="middle" x="1257" y="-144.048" font-family="Times,serif" font-size="4.00">Camostat mesylate</text>
</g>
<!-- Camostat mesylate&#45;&gt;ACE2 (15 Kda) -->
<g id="edge69" class="edge"><title>Camostat mesylate&#45;&gt;ACE2 (15 Kda)</title>
<path fill="none" stroke="black" d="M1241.63,-120.266C1231.72,-104.805 1218.78,-84.6182 1208.34,-68.3214"/>
<polygon fill="black" stroke="black" points="1211.17,-66.2529 1202.82,-59.7224 1205.27,-70.0302 1211.17,-66.2529"/>
</g>
<!-- Camostat mesylate&#45;&gt;ACE2 (100 Kda) -->
<g id="edge71" class="edge"><title>Camostat mesylate&#45;&gt;ACE2 (100 Kda)</title>
<path fill="none" stroke="black" d="M1257.27,-115.96C1257.39,-103.269 1257.54,-88.1694 1257.66,-74.7693"/>
<polygon fill="black" stroke="black" points="1261.17,-74.4985 1257.76,-64.4654 1254.17,-74.4315 1261.17,-74.4985"/>
</g>
<!-- Camostat mesylate&#45;&gt;S2 -->
<g id="edge72" class="edge"><title>Camostat mesylate&#45;&gt;S2</title>
<path fill="none" stroke="black" d="M1235.93,-124.76C1230.67,-120.597 1224.86,-116.526 1219,-113.428 1169.78,-87.3976 1150.5,-98.591 1099,-77.4282 1082.74,-70.7475 1065.3,-61.5127 1051.77,-53.8536"/>
<polygon fill="black" stroke="black" points="1053.5,-50.8133 1043.09,-48.8536 1050.01,-56.8786 1053.5,-50.8133"/>
</g>
<!-- Camostat mesylate&#45;&gt;S1 -->
<g id="edge70" class="edge"><title>Camostat mesylate&#45;&gt;S1</title>
<path fill="none" stroke="black" d="M1234.94,-125.4C1229.82,-121.299 1224.31,-117.093 1219,-113.428 1192.77,-95.3379 1181.28,-98.0633 1157,-77.4282 1151.74,-72.9617 1146.7,-67.524 1142.26,-62.1839"/>
<polygon fill="black" stroke="black" points="1144.77,-59.7203 1135.84,-54.0261 1139.27,-64.0492 1144.77,-59.7203"/>
</g>
<!-- S -->
<g id="node35" class="node"><title>S</title>
<ellipse fill="none" stroke="black" cx="1035" cy="-231.068" rx="18" ry="18"/>
<text text-anchor="middle" x="1035" y="-229.868" font-family="Times,serif" font-size="4.00">S</text>
</g>
<!-- S&#45;&gt;ACE2_SPIKE complex -->
<g id="edge73" class="edge"><title>S&#45;&gt;ACE2_SPIKE complex</title>
<path fill="none" stroke="black" d="M1047.61,-218.058C1059.37,-206.855 1077.38,-189.703 1092.84,-174.971"/>
<polygon fill="black" stroke="black" points="1095.37,-177.401 1100.19,-167.97 1090.54,-172.333 1095.37,-177.401"/>
</g>
<!-- Nsp3&#45;&gt;SARS&#45;CoV&#45;2 Nsp3 products -->
<g id="edge75" class="edge"><title>Nsp3&#45;&gt;SARS&#45;CoV&#45;2 Nsp3 products</title>
<path fill="none" stroke="black" d="M644,-1165.98C644,-1150.08 644,-1125.69 644,-1104.11"/>
<polygon fill="black" stroke="black" points="647.5,-1104.11 644,-1094.11 640.5,-1104.11 647.5,-1104.11"/>
</g>
<!-- Nsp3&#45;&gt;SARS&#45;CoV&#45;2 polyproteins (Nsp5&#45;16) -->
<g id="edge74" class="edge"><title>Nsp3&#45;&gt;SARS&#45;CoV&#45;2 polyproteins (Nsp5&#45;16)</title>
<path fill="none" stroke="black" d="M635.714,-1167.78C630.702,-1158.95 623.952,-1147.79 617,-1138.52 606.523,-1124.55 594.029,-1110.22 582.317,-1097.59"/>
<polygon fill="black" stroke="black" points="584.549,-1094.86 575.151,-1089.97 579.448,-1099.65 584.549,-1094.86"/>
</g>
<!-- Nsp3&#45;&gt;Replication transcription complex -->
<g id="edge76" class="edge"><title>Nsp3&#45;&gt;Replication transcription complex</title>
<path fill="none" stroke="black" d="M654.721,-1169.56C666.045,-1154.28 683.184,-1128.22 690,-1102.52 710.757,-1024.27 713.183,-839.913 673,-725.054 665.968,-704.954 653.444,-685.272 641.044,-668.979"/>
<polygon fill="black" stroke="black" points="643.533,-666.482 634.601,-660.784 638.03,-670.809 643.533,-666.482"/>
</g>
<!-- CTSL -->
<g id="node37" class="node"><title>CTSL</title>
<ellipse fill="none" stroke="black" cx="1001" cy="-145.248" rx="18" ry="18"/>
<text text-anchor="middle" x="1001" y="-144.048" font-family="Times,serif" font-size="4.00">CTSL</text>
</g>
<!-- CTSL&#45;&gt;S2 -->
<g id="edge78" class="edge"><title>CTSL&#45;&gt;S2</title>
<path fill="none" stroke="black" d="M1005.34,-127.453C1009.61,-110.917 1016.2,-85.4138 1021.17,-66.1568"/>
<polygon fill="black" stroke="black" points="1024.56,-67.0252 1023.67,-56.4676 1017.78,-65.2745 1024.56,-67.0252"/>
</g>
<!-- CTSL&#45;&gt;S1 -->
<g id="edge77" class="edge"><title>CTSL&#45;&gt;S1</title>
<path fill="none" stroke="black" d="M1011.99,-130.496C1016.68,-124.956 1022.37,-118.654 1028,-113.428 1051.92,-91.2243 1082.34,-69.1774 1102.89,-55.0629"/>
<polygon fill="black" stroke="black" points="1105.01,-57.8565 1111.32,-49.3432 1101.08,-52.0654 1105.01,-57.8565"/>
</g>
<!-- SARS&#45;CoV&#45;2 structural proteins&#45;&gt;M -->
<g id="edge81" class="edge"><title>SARS&#45;CoV&#45;2 structural proteins&#45;&gt;M</title>
<path fill="none" stroke="black" d="M954.803,-367.91C963.928,-425.054 979,-533.512 979,-626.536 979,-787.573 979,-787.573 979,-787.573 979,-1017.7 1055,-1069.62 1055,-1299.74 1055,-1573.05 1055,-1573.05 1055,-1573.05 1055,-1614.02 1059.3,-1632.43 1031,-1662.05 994.385,-1700.38 930.135,-1711.07 893.226,-1714"/>
<polygon fill="black" stroke="black" points="892.898,-1710.51 883.148,-1714.66 893.356,-1717.5 892.898,-1710.51"/>
</g>
<!-- SARS&#45;CoV&#45;2 structural proteins&#45;&gt;E -->
<g id="edge80" class="edge"><title>SARS&#45;CoV&#45;2 structural proteins&#45;&gt;E</title>
<path fill="none" stroke="black" d="M946.446,-368.523C944.384,-425.948 941,-534.244 941,-626.536 941,-1496.25 941,-1496.25 941,-1496.25 941,-1556.79 878.879,-1605.68 843.293,-1628.72"/>
<polygon fill="black" stroke="black" points="841.062,-1625.99 834.451,-1634.27 844.782,-1631.92 841.062,-1625.99"/>
</g>
<!-- SARS&#45;CoV&#45;2 structural proteins&#45;&gt;S -->
<g id="edge79" class="edge"><title>SARS&#45;CoV&#45;2 structural proteins&#45;&gt;S</title>
<path fill="none" stroke="black" d="M975.767,-295.996C988.945,-281.774 1004.35,-265.148 1016.15,-252.417"/>
<polygon fill="black" stroke="black" points="1018.74,-254.764 1022.97,-245.05 1013.61,-250.006 1018.74,-254.764"/>
</g>
<!-- Replication transcription complex&#45;&gt; SARS&#45;CoV&#45;2 (+)gRNA -->
<g id="edge83" class="edge"><title>Replication transcription complex&#45;&gt; SARS&#45;CoV&#45;2 (+)gRNA</title>
<path fill="none" stroke="black" d="M643.159,-650.613C666.578,-668.148 694.525,-694.708 709,-725.054 763.128,-838.527 710.297,-1234.22 686.031,-1362.56"/>
<polygon fill="black" stroke="black" points="682.593,-1361.91 684.125,-1372.39 689.465,-1363.24 682.593,-1361.91"/>
</g>
<!-- Replication transcription complex&#45;&gt;N (+)sgmRNA -->
<g id="edge86" class="edge"><title>Replication transcription complex&#45;&gt;N (+)sgmRNA</title>
<path fill="none" stroke="black" d="M573.429,-658.401C556.375,-676.217 536.344,-700.165 524,-725.054 497.862,-777.756 470.927,-951.073 460.499,-1023.58"/>
<polygon fill="black" stroke="black" points="457.028,-1023.12 459.082,-1033.52 463.958,-1024.11 457.028,-1023.12"/>
</g>
<!-- Replication transcription complex&#45;&gt;SARS&#45;CoV&#45;2 accessory protein coding (+)sgmRNAs -->
<g id="edge85" class="edge"><title>Replication transcription complex&#45;&gt;SARS&#45;CoV&#45;2 accessory protein coding (+)sgmRNAs</title>
<path fill="none" stroke="black" d="M566.726,-605.378C519.552,-579.302 438.721,-534.619 382.263,-503.41"/>
<polygon fill="black" stroke="black" points="383.865,-500.296 373.42,-498.522 380.478,-506.423 383.865,-500.296"/>
</g>
<!-- Replication transcription complex&#45;&gt;Replication transcription complex_N oligomer -->
<g id="edge84" class="edge"><title>Replication transcription complex&#45;&gt;Replication transcription complex_N oligomer</title>
<path fill="none" stroke="black" d="M574.65,-659.421C552.657,-678.268 522.511,-702.917 496,-725.054 487.624,-732.049 478.739,-739.553 470.029,-746.815"/>
<polygon fill="black" stroke="black" points="467.56,-744.315 462.098,-753.394 472.029,-749.703 467.56,-744.315"/>
</g>
<!-- Replication transcription complex&#45;&gt;SARS&#45;CoV&#45;2 structural protein coding (+)sgmRNAs -->
<g id="edge82" class="edge"><title>Replication transcription complex&#45;&gt;SARS&#45;CoV&#45;2 structural protein coding (+)sgmRNAs</title>
<path fill="none" stroke="black" d="M634.545,-594.543C654.027,-573.446 680.002,-545.32 702.476,-520.984"/>
<polygon fill="black" stroke="black" points="705.114,-523.286 709.327,-513.565 699.971,-518.537 705.114,-523.286"/>
</g>
<!-- SARS&#45;CoV&#45;2 &#160;Nsp5 products&#45;&gt;Replication transcription complex -->
<g id="edge87" class="edge"><title>SARS&#45;CoV&#45;2 &#160;Nsp5 products&#45;&gt;Replication transcription complex</title>
<path fill="none" stroke="black" d="M605,-748.755C605,-728.876 605,-703.975 605,-681.999"/>
<polygon fill="black" stroke="black" points="608.5,-681.809 605,-671.809 601.5,-681.809 608.5,-681.809"/>
</g>
</g>
</svg>
