<?xml version="1.0" encoding="UTF-8" standalone="no"?>
<!DOCTYPE svg PUBLIC "-//W3C//DTD SVG 1.1//EN"
 "http://www.w3.org/Graphics/SVG/1.1/DTD/svg11.dtd">
<!-- Generated by graphviz version 2.38.0 (20140413.2041)
 -->
<!-- Title: G Pages: 1 -->
<svg width="1358pt" height="1714pt"
 viewBox="0.00 0.00 1358.00 1714.41" xmlns="http://www.w3.org/2000/svg" xmlns:xlink="http://www.w3.org/1999/xlink">
<g id="graph0" class="graph" transform="scale(1 1) rotate(0) translate(4 1710.41)">
<title>G</title>
<polygon fill="white" stroke="none" points="-4,4 -4,-1710.41 1354,-1710.41 1354,4 -4,4"/>
<!-- Type I interferon signaling pathway -->
<g id="node1" class="node"><title>Type I interferon signaling pathway</title>
<ellipse fill="none" stroke="black" cx="213" cy="-1660.81" rx="45.717" ry="45.717"/>
<text text-anchor="middle" x="213" y="-1659.61" font-family="Times,serif" font-size="4.00">Type I interferon signaling pathway</text>
</g>
<!-- LY6E -->
<g id="node2" class="node"><title>LY6E</title>
<ellipse fill="none" stroke="black" cx="213" cy="-1561.2" rx="18" ry="18"/>
<text text-anchor="middle" x="213" y="-1560" font-family="Times,serif" font-size="4.00">LY6E</text>
</g>
<!-- Type I interferon signaling pathway&#45;&gt;LY6E -->
<g id="edge1" class="edge"><title>Type I interferon signaling pathway&#45;&gt;LY6E</title>
<path fill="none" stroke="black" d="M213,-1615C213,-1606.32 213,-1597.47 213,-1589.55"/>
<polygon fill="black" stroke="black" points="216.5,-1589.45 213,-1579.45 209.5,-1589.45 216.5,-1589.45"/>
</g>
<!-- Orf7a -->
<g id="node3" class="node"><title>Orf7a</title>
<ellipse fill="none" stroke="black" cx="246" cy="-1489.2" rx="18" ry="18"/>
<text text-anchor="middle" x="246" y="-1488" font-family="Times,serif" font-size="4.00">Orf7a</text>
</g>
<!-- LY6E&#45;&gt;Orf7a -->
<g id="edge4" class="edge"><title>LY6E&#45;&gt;Orf7a</title>
<path fill="none" stroke="black" d="M220.324,-1544.66C224.425,-1535.96 229.636,-1524.91 234.29,-1515.04"/>
<polygon fill="black" stroke="black" points="237.598,-1516.23 238.697,-1505.69 231.267,-1513.24 237.598,-1516.23"/>
</g>
<!-- E -->
<g id="node11" class="node"><title>E</title>
<ellipse fill="none" stroke="black" cx="162" cy="-1417.2" rx="18" ry="18"/>
<text text-anchor="middle" x="162" y="-1416" font-family="Times,serif" font-size="4.00">E</text>
</g>
<!-- LY6E&#45;&gt;E -->
<g id="edge2" class="edge"><title>LY6E&#45;&gt;E</title>
<path fill="none" stroke="black" d="M207.15,-1543.91C198.349,-1519.41 181.627,-1472.85 171.189,-1443.78"/>
<polygon fill="black" stroke="black" points="174.456,-1442.52 167.782,-1434.3 167.868,-1444.89 174.456,-1442.52"/>
</g>
<!-- M -->
<g id="node13" class="node"><title>M</title>
<ellipse fill="none" stroke="black" cx="523" cy="-18" rx="18" ry="18"/>
<text text-anchor="middle" x="523" y="-16.8" font-family="Times,serif" font-size="4.00">M</text>
</g>
<!-- LY6E&#45;&gt;M -->
<g id="edge5" class="edge"><title>LY6E&#45;&gt;M</title>
<path fill="none" stroke="black" d="M195.206,-1557.2C144.014,-1547.46 0,-1511.75 0,-1418.2 0,-1418.2 0,-1418.2 0,-222.082 0,-148.667 9.59415,-115.136 69,-72 137.422,-22.3178 406.548,-18.6241 494.803,-18.7809"/>
<polygon fill="black" stroke="black" points="494.862,-22.2811 504.874,-18.8176 494.887,-15.2811 494.862,-22.2811"/>
</g>
<!-- Nucleocapsid -->
<g id="node34" class="node"><title>Nucleocapsid</title>
<ellipse fill="none" stroke="black" cx="903" cy="-1340.39" rx="22.6101" ry="22.6101"/>
<text text-anchor="middle" x="903" y="-1339.19" font-family="Times,serif" font-size="4.00">Nucleocapsid</text>
</g>
<!-- LY6E&#45;&gt;Nucleocapsid -->
<g id="edge3" class="edge"><title>LY6E&#45;&gt;Nucleocapsid</title>
<path fill="none" stroke="black" d="M230.264,-1555.52C288.53,-1539.66 483.155,-1486.06 642,-1435.2 734.367,-1405.62 757.123,-1397.08 848,-1363.2 856.074,-1360.19 864.763,-1356.81 872.796,-1353.63"/>
<polygon fill="black" stroke="black" points="874.194,-1356.84 882.185,-1349.88 871.599,-1350.34 874.194,-1356.84"/>
</g>
<!-- Orf7a&#45;&gt;E -->
<g id="edge6" class="edge"><title>Orf7a&#45;&gt;E</title>
<path fill="none" stroke="black" d="M230.688,-1479.33C216.46,-1469.21 195.676,-1452.32 180.571,-1438.86"/>
<polygon fill="black" stroke="black" points="182.584,-1435.95 172.841,-1431.79 177.862,-1441.12 182.584,-1435.95"/>
</g>
<!-- Orf7a&#45;&gt;M -->
<g id="edge8" class="edge"><title>Orf7a&#45;&gt;M</title>
<path fill="none" stroke="black" d="M263.994,-1487.78C372.186,-1485.35 934.848,-1471.7 1104,-1435.2 1211.11,-1412.09 1332,-1450.97 1332,-1341.39 1332,-1341.39 1332,-1341.39 1332,-222.082 1332,-143.139 1304.72,-112.576 1237,-72 1177.07,-36.0898 677.16,-22.6008 551.488,-19.6545"/>
<polygon fill="black" stroke="black" points="551.233,-16.1478 541.154,-19.4162 551.071,-23.1459 551.233,-16.1478"/>
</g>
<!-- Orf7a&#45;&gt;Nucleocapsid -->
<g id="edge7" class="edge"><title>Orf7a&#45;&gt;Nucleocapsid</title>
<path fill="none" stroke="black" d="M264.009,-1485.62C337.566,-1474.87 622.021,-1430.9 848,-1363.2 856.254,-1360.72 865.005,-1357.53 873.041,-1354.35"/>
<polygon fill="black" stroke="black" points="874.466,-1357.55 882.406,-1350.54 871.824,-1351.07 874.466,-1357.55"/>
</g>
<!-- N -->
<g id="node4" class="node"><title>N</title>
<ellipse fill="none" stroke="black" cx="939" cy="-1263.59" rx="18" ry="18"/>
<text text-anchor="middle" x="939" y="-1262.39" font-family="Times,serif" font-size="4.00">N</text>
</g>
<!-- Replication transcription complex_N oligomer -->
<g id="node23" class="node"><title>Replication transcription complex_N oligomer</title>
<ellipse fill="none" stroke="black" cx="939" cy="-1152.84" rx="56.9917" ry="56.9917"/>
<text text-anchor="middle" x="939" y="-1151.64" font-family="Times,serif" font-size="4.00">Replication transcription complex_N oligomer</text>
</g>
<!-- N&#45;&gt;Replication transcription complex_N oligomer -->
<g id="edge9" class="edge"><title>N&#45;&gt;Replication transcription complex_N oligomer</title>
<path fill="none" stroke="black" d="M939,-1245.12C939,-1237.97 939,-1229.22 939,-1220"/>
<polygon fill="black" stroke="black" points="942.5,-1219.85 939,-1209.85 935.5,-1219.85 942.5,-1219.85"/>
</g>
<!-- SARS&#45;CoV&#45;2 polyproteins -->
<g id="node5" class="node"><title>SARS&#45;CoV&#45;2 polyproteins</title>
<ellipse fill="none" stroke="black" cx="749" cy="-773.845" rx="35.0036" ry="35.0036"/>
<text text-anchor="middle" x="749" y="-772.645" font-family="Times,serif" font-size="4.00">SARS&#45;CoV&#45;2 polyproteins</text>
</g>
<!-- SARS&#45;CoV&#45;2 polyproteins (cleaved) -->
<g id="node26" class="node"><title>SARS&#45;CoV&#45;2 polyproteins (cleaved)</title>
<ellipse fill="none" stroke="black" cx="722" cy="-613.748" rx="45.717" ry="45.717"/>
<text text-anchor="middle" x="722" y="-612.548" font-family="Times,serif" font-size="4.00">SARS&#45;CoV&#45;2 polyproteins (cleaved)</text>
</g>
<!-- SARS&#45;CoV&#45;2 polyproteins&#45;&gt;SARS&#45;CoV&#45;2 polyproteins (cleaved) -->
<g id="edge11" class="edge"><title>SARS&#45;CoV&#45;2 polyproteins&#45;&gt;SARS&#45;CoV&#45;2 polyproteins (cleaved)</title>
<path fill="none" stroke="black" d="M743.208,-738.929C739.725,-718.538 735.214,-692.121 731.248,-668.898"/>
<polygon fill="black" stroke="black" points="734.662,-668.096 729.528,-658.827 727.761,-669.274 734.662,-668.096"/>
</g>
<!-- Nsp3 -->
<g id="node36" class="node"><title>Nsp3</title>
<ellipse fill="none" stroke="black" cx="804" cy="-613.748" rx="18" ry="18"/>
<text text-anchor="middle" x="804" y="-612.548" font-family="Times,serif" font-size="4.00">Nsp3</text>
</g>
<!-- SARS&#45;CoV&#45;2 polyproteins&#45;&gt;Nsp3 -->
<g id="edge10" class="edge"><title>SARS&#45;CoV&#45;2 polyproteins&#45;&gt;Nsp3</title>
<path fill="none" stroke="black" d="M760.263,-740.47C770.518,-710.991 785.467,-668.021 794.961,-640.73"/>
<polygon fill="black" stroke="black" points="798.331,-641.694 798.312,-631.099 791.72,-639.394 798.331,-641.694"/>
</g>
<!-- SARS&#45;CoV&#45;2 structural protein coding (+)sgmRNAs -->
<g id="node6" class="node"><title>SARS&#45;CoV&#45;2 structural protein coding (+)sgmRNAs</title>
<ellipse fill="none" stroke="black" cx="336" cy="-613.748" rx="62.0973" ry="62.0973"/>
<text text-anchor="middle" x="336" y="-612.548" font-family="Times,serif" font-size="4.00">SARS&#45;CoV&#45;2 structural protein coding (+)sgmRNAs</text>
</g>
<!-- SARS&#45;CoV&#45;2 structural proteins -->
<g id="node17" class="node"><title>SARS&#45;CoV&#45;2 structural proteins</title>
<ellipse fill="none" stroke="black" cx="201" cy="-469.56" rx="41.2319" ry="41.2319"/>
<text text-anchor="middle" x="201" y="-468.36" font-family="Times,serif" font-size="4.00">SARS&#45;CoV&#45;2 structural proteins</text>
</g>
<!-- SARS&#45;CoV&#45;2 structural protein coding (+)sgmRNAs&#45;&gt;SARS&#45;CoV&#45;2 structural proteins -->
<g id="edge12" class="edge"><title>SARS&#45;CoV&#45;2 structural protein coding (+)sgmRNAs&#45;&gt;SARS&#45;CoV&#45;2 structural proteins</title>
<path fill="none" stroke="black" d="M293.656,-568.149C275.252,-548.765 253.937,-526.315 236.394,-507.838"/>
<polygon fill="black" stroke="black" points="238.549,-505.026 229.126,-500.183 233.473,-509.845 238.549,-505.026"/>
</g>
<!-- SARS&#45;CoV&#45;2 &#160;Nsp5 products -->
<g id="node7" class="node"><title>SARS&#45;CoV&#45;2 &#160;Nsp5 products</title>
<ellipse fill="none" stroke="black" cx="673" cy="-223.082" rx="37.8075" ry="37.8075"/>
<text text-anchor="middle" x="673" y="-221.882" font-family="Times,serif" font-size="4.00">SARS&#45;CoV&#45;2 &#160;Nsp5 products</text>
</g>
<!-- Replication transcription complex -->
<g id="node8" class="node"><title>Replication transcription complex</title>
<ellipse fill="none" stroke="black" cx="926" cy="-1016.08" rx="44.0348" ry="44.0348"/>
<text text-anchor="middle" x="926" y="-1014.88" font-family="Times,serif" font-size="4.00">Replication transcription complex</text>
</g>
<!-- SARS&#45;CoV&#45;2 &#160;Nsp5 products&#45;&gt;Replication transcription complex -->
<g id="edge13" class="edge"><title>SARS&#45;CoV&#45;2 &#160;Nsp5 products&#45;&gt;Replication transcription complex</title>
<path fill="none" stroke="black" d="M701.875,-247.59C707.764,-252.102 713.998,-256.68 720,-260.735 746.402,-278.574 756.83,-277.196 782,-296.735 948.249,-425.796 973.396,-504.895 1009,-712.327 1018.25,-766.221 1020.74,-781.955 1009,-835.363 998.436,-883.432 973.719,-933.959 953.989,-969.152"/>
<polygon fill="black" stroke="black" points="950.739,-967.785 948.832,-978.207 956.822,-971.249 950.739,-967.785"/>
</g>
<!-- Replication transcription complex&#45;&gt;SARS&#45;CoV&#45;2 structural protein coding (+)sgmRNAs -->
<g id="edge15" class="edge"><title>Replication transcription complex&#45;&gt;SARS&#45;CoV&#45;2 structural protein coding (+)sgmRNAs</title>
<path fill="none" stroke="black" d="M881.988,-1013.35C767.449,-1008.14 463.222,-989.484 380,-936.063 292.858,-880.127 304.045,-815.295 315,-712.327 315.986,-703.055 317.486,-693.369 319.239,-683.854"/>
<polygon fill="black" stroke="black" points="322.678,-684.508 321.147,-674.024 315.806,-683.174 322.678,-684.508"/>
</g>
<!-- SARS&#45;CoV&#45;2 accessory protein coding (+)sgmRNAs -->
<g id="node12" class="node"><title>SARS&#45;CoV&#45;2 accessory protein coding (+)sgmRNAs</title>
<ellipse fill="none" stroke="black" cx="479" cy="-613.748" rx="62.658" ry="62.658"/>
<text text-anchor="middle" x="479" y="-612.548" font-family="Times,serif" font-size="4.00">SARS&#45;CoV&#45;2 accessory protein coding (+)sgmRNAs</text>
</g>
<!-- Replication transcription complex&#45;&gt;SARS&#45;CoV&#45;2 accessory protein coding (+)sgmRNAs -->
<g id="edge18" class="edge"><title>Replication transcription complex&#45;&gt;SARS&#45;CoV&#45;2 accessory protein coding (+)sgmRNAs</title>
<path fill="none" stroke="black" d="M882.545,-1008.45C758.48,-988.541 407.297,-925.086 341,-835.363 308.503,-791.384 313.086,-759.348 341,-712.327 358.056,-683.595 379.488,-695.288 407,-676.327 412.959,-672.22 418.997,-667.705 424.91,-663.045"/>
<polygon fill="black" stroke="black" points="427.287,-665.624 432.877,-656.624 422.894,-660.174 427.287,-665.624"/>
</g>
<!-- N (+)sgmRNA -->
<g id="node20" class="node"><title>N (+)sgmRNA</title>
<ellipse fill="none" stroke="black" cx="1066" cy="-613.748" rx="23.1702" ry="23.1702"/>
<text text-anchor="middle" x="1066" y="-612.548" font-family="Times,serif" font-size="4.00">N (+)sgmRNA</text>
</g>
<!-- Replication transcription complex&#45;&gt;N (+)sgmRNA -->
<g id="edge14" class="edge"><title>Replication transcription complex&#45;&gt;N (+)sgmRNA</title>
<path fill="none" stroke="black" d="M966.499,-998.754C992.79,-985.87 1025.18,-965.184 1042,-936.063 1095.83,-842.838 1082.29,-708.195 1072.25,-647.088"/>
<polygon fill="black" stroke="black" points="1075.64,-646.162 1070.5,-636.902 1068.74,-647.351 1075.64,-646.162"/>
</g>
<!-- Replication transcription complex&#45;&gt;Replication transcription complex_N oligomer -->
<g id="edge16" class="edge"><title>Replication transcription complex&#45;&gt;Replication transcription complex_N oligomer</title>
<path fill="none" stroke="black" d="M936.362,-1059.12C937.487,-1067.57 938.51,-1076.65 939.368,-1085.7"/>
<polygon fill="black" stroke="black" points="935.899,-1086.21 940.263,-1095.86 942.873,-1085.59 935.899,-1086.21"/>
</g>
<!--  SARS&#45;CoV&#45;2 (+)gRNA -->
<g id="node28" class="node"><title> SARS&#45;CoV&#45;2 (+)gRNA</title>
<ellipse fill="none" stroke="black" cx="751" cy="-903.713" rx="32.201" ry="32.201"/>
<text text-anchor="middle" x="751" y="-902.513" font-family="Times,serif" font-size="4.00"> SARS&#45;CoV&#45;2 (+)gRNA</text>
</g>
<!-- Replication transcription complex&#45;&gt; SARS&#45;CoV&#45;2 (+)gRNA -->
<g id="edge17" class="edge"><title>Replication transcription complex&#45;&gt; SARS&#45;CoV&#45;2 (+)gRNA</title>
<path fill="none" stroke="black" d="M888.563,-992.239C879.038,-985.426 868.793,-978.157 859,-972.063 829.296,-953.582 819.156,-953.798 789,-936.063 787.008,-934.892 784.984,-933.67 782.959,-932.418"/>
<polygon fill="black" stroke="black" points="784.47,-929.23 774.16,-926.789 780.698,-935.126 784.47,-929.23"/>
</g>
<!-- Nsp5 -->
<g id="node9" class="node"><title>Nsp5</title>
<ellipse fill="none" stroke="black" cx="755" cy="-342.343" rx="18" ry="18"/>
<text text-anchor="middle" x="755" y="-341.143" font-family="Times,serif" font-size="4.00">Nsp5</text>
</g>
<!-- Nsp5&#45;&gt;SARS&#45;CoV&#45;2 &#160;Nsp5 products -->
<g id="edge20" class="edge"><title>Nsp5&#45;&gt;SARS&#45;CoV&#45;2 &#160;Nsp5 products</title>
<path fill="none" stroke="black" d="M746.379,-326.231C741.256,-317.476 734.506,-306.324 728,-296.735 720.073,-285.051 710.988,-272.683 702.516,-261.529"/>
<polygon fill="black" stroke="black" points="705.046,-259.076 696.187,-253.266 699.49,-263.333 705.046,-259.076"/>
</g>
<!-- Nsp5&#45;&gt;Replication transcription complex -->
<g id="edge19" class="edge"><title>Nsp5&#45;&gt;Replication transcription complex</title>
<path fill="none" stroke="black" d="M771.198,-350.489C795.959,-362.234 843.072,-387.96 869,-423.952 920.232,-495.07 926,-525.098 926,-612.748 926,-774.845 926,-774.845 926,-774.845 926,-838.958 926,-912.696 926,-961.383"/>
<polygon fill="black" stroke="black" points="922.5,-961.682 926,-971.682 929.5,-961.682 922.5,-961.682"/>
</g>
<!-- SARS&#45;CoV&#45;2 Nsp3 products -->
<g id="node10" class="node"><title>SARS&#45;CoV&#45;2 Nsp3 products</title>
<ellipse fill="none" stroke="black" cx="823" cy="-469.56" rx="37.2466" ry="37.2466"/>
<text text-anchor="middle" x="823" y="-468.36" font-family="Times,serif" font-size="4.00">SARS&#45;CoV&#45;2 Nsp3 products</text>
</g>
<!-- SARS&#45;CoV&#45;2 Nsp3 products&#45;&gt;Replication transcription complex -->
<g id="edge21" class="edge"><title>SARS&#45;CoV&#45;2 Nsp3 products&#45;&gt;Replication transcription complex</title>
<path fill="none" stroke="black" d="M829.744,-506.215C847.428,-599.701 895.201,-852.258 916.046,-962.458"/>
<polygon fill="black" stroke="black" points="912.62,-963.178 917.918,-972.353 919.498,-961.877 912.62,-963.178"/>
</g>
<!-- E&#45;&gt;Orf7a -->
<g id="edge23" class="edge"><title>E&#45;&gt;Orf7a</title>
<path fill="none" stroke="black" d="M177.225,-1427C191.483,-1437.13 212.376,-1454.11 227.519,-1467.62"/>
<polygon fill="black" stroke="black" points="225.521,-1470.53 235.262,-1474.7 230.245,-1465.37 225.521,-1470.53"/>
</g>
<!-- E&#45;&gt;M -->
<g id="edge24" class="edge"><title>E&#45;&gt;M</title>
<path fill="none" stroke="black" d="M145.748,-1408.61C111.744,-1388.79 38,-1332.31 38,-1264.59 38,-1264.59 38,-1264.59 38,-222.082 38,-24.018 390.973,-16.4772 494.757,-18.2025"/>
<polygon fill="black" stroke="black" points="494.741,-21.7029 504.812,-18.4125 494.888,-14.7044 494.741,-21.7029"/>
</g>
<!-- E&#45;&gt;Nucleocapsid -->
<g id="edge22" class="edge"><title>E&#45;&gt;Nucleocapsid</title>
<path fill="none" stroke="black" d="M180.063,-1415.53C274.834,-1411.95 715.326,-1393.88 848,-1363.2 856.466,-1361.24 865.344,-1358.19 873.436,-1354.99"/>
<polygon fill="black" stroke="black" points="874.952,-1358.15 882.836,-1351.08 872.259,-1351.69 874.952,-1358.15"/>
</g>
<!-- SARS&#45;CoV&#45;2 accessory proteins -->
<g id="node39" class="node"><title>SARS&#45;CoV&#45;2 accessory proteins</title>
<ellipse fill="none" stroke="black" cx="410" cy="-469.56" rx="41.7924" ry="41.7924"/>
<text text-anchor="middle" x="410" y="-468.36" font-family="Times,serif" font-size="4.00">SARS&#45;CoV&#45;2 accessory proteins</text>
</g>
<!-- SARS&#45;CoV&#45;2 accessory protein coding (+)sgmRNAs&#45;&gt;SARS&#45;CoV&#45;2 accessory proteins -->
<g id="edge25" class="edge"><title>SARS&#45;CoV&#45;2 accessory protein coding (+)sgmRNAs&#45;&gt;SARS&#45;CoV&#45;2 accessory proteins</title>
<path fill="none" stroke="black" d="M451.927,-556.959C445.487,-543.687 438.683,-529.667 432.474,-516.872"/>
<polygon fill="black" stroke="black" points="435.586,-515.268 428.071,-507.799 429.288,-518.324 435.586,-515.268"/>
</g>
<!-- M&#45;&gt;Orf7a -->
<g id="edge28" class="edge"><title>M&#45;&gt;Orf7a</title>
<path fill="none" stroke="black" d="M541.175,-19.314C648.297,-21.4087 1192.32,-34.44 1255,-72 1322.72,-112.576 1350,-143.139 1350,-222.082 1350,-1341.39 1350,-1341.39 1350,-1341.39 1350,-1450.97 1229.11,-1412.09 1122,-1435.2 955.143,-1471.2 405.384,-1484.97 274.2,-1487.68"/>
<polygon fill="black" stroke="black" points="274.074,-1484.18 264.146,-1487.88 274.215,-1491.18 274.074,-1484.18"/>
</g>
<!-- M&#45;&gt;E -->
<g id="edge26" class="edge"><title>M&#45;&gt;E</title>
<path fill="none" stroke="black" d="M504.944,-18.279C418.812,-16.3049 56,-21.2764 56,-222.082 56,-1264.59 56,-1264.59 56,-1264.59 56,-1322.57 110.047,-1372.3 141.138,-1397.85"/>
<polygon fill="black" stroke="black" points="139.259,-1400.83 149.234,-1404.4 143.662,-1395.39 139.259,-1400.83"/>
</g>
<!-- M&#45;&gt;Nucleocapsid -->
<g id="edge27" class="edge"><title>M&#45;&gt;Nucleocapsid</title>
<path fill="none" stroke="black" d="M541.1,-19.5255C641.954,-22.5736 1132.09,-39.0044 1190,-72 1280.55,-123.596 1294,-190.646 1294,-222.082 1294,-774.845 1294,-774.845 1294,-774.845 1294,-970.414 1308.77,-1032.4 1226,-1209.59 1208,-1248.11 1199.57,-1259.9 1163,-1281.59 1090.04,-1324.87 988.131,-1335.8 936.229,-1338.52"/>
<polygon fill="black" stroke="black" points="935.773,-1335.04 925.942,-1338.99 936.09,-1342.03 935.773,-1335.04"/>
</g>
<!-- Nucleoporin_gRNA complex  -->
<g id="node14" class="node"><title>Nucleoporin_gRNA complex </title>
<ellipse fill="none" stroke="black" cx="1142" cy="-110.714" rx="38.9294" ry="38.9294"/>
<text text-anchor="middle" x="1142" y="-109.514" font-family="Times,serif" font-size="4.00">Nucleoporin_gRNA complex </text>
</g>
<!-- Nucleoporin_gRNA complex &#45;&gt;Orf7a -->
<g id="edge31" class="edge"><title>Nucleoporin_gRNA complex &#45;&gt;Orf7a</title>
<path fill="none" stroke="black" d="M1171.14,-136.479C1190.14,-153.195 1212.56,-174.187 1219,-185.428 1254.39,-247.231 1256,-270.123 1256,-341.343 1256,-774.845 1256,-774.845 1256,-774.845 1256,-943.249 1294,-983.439 1294,-1151.84 1294,-1341.39 1294,-1341.39 1294,-1341.39 1294,-1447.41 442.063,-1481.59 274.434,-1487.29"/>
<polygon fill="black" stroke="black" points="274.068,-1483.8 264.19,-1487.63 274.301,-1490.8 274.068,-1483.8"/>
</g>
<!-- Nucleoporin_gRNA complex &#45;&gt;E -->
<g id="edge29" class="edge"><title>Nucleoporin_gRNA complex &#45;&gt;E</title>
<path fill="none" stroke="black" d="M1151.88,-148.392C1163.14,-193.465 1180,-272.447 1180,-341.343 1180,-614.748 1180,-614.748 1180,-614.748 1180,-752.536 1106.12,-1115.99 1005,-1209.59 973.543,-1238.71 331.847,-1379.32 189.715,-1410.2"/>
<polygon fill="black" stroke="black" points="188.674,-1406.84 179.643,-1412.38 190.158,-1413.68 188.674,-1406.84"/>
</g>
<!-- Nucleoporin_gRNA complex &#45;&gt;M -->
<g id="edge32" class="edge"><title>Nucleoporin_gRNA complex &#45;&gt;M</title>
<path fill="none" stroke="black" d="M1103.75,-104.108C989.164,-87.3161 650.516,-37.6874 550.877,-23.0854"/>
<polygon fill="black" stroke="black" points="551.106,-19.5815 540.704,-21.5945 550.091,-26.5076 551.106,-19.5815"/>
</g>
<!-- Nucleoporin_gRNA complex &#45;&gt;Nucleocapsid -->
<g id="edge30" class="edge"><title>Nucleoporin_gRNA complex &#45;&gt;Nucleocapsid</title>
<path fill="none" stroke="black" d="M1167.16,-140.706C1177.05,-153.596 1187.55,-169.452 1194,-185.428 1220.24,-250.446 1218,-271.232 1218,-341.343 1218,-1153.84 1218,-1153.84 1218,-1153.84 1218,-1283.83 1016.39,-1324.59 935.754,-1335.69"/>
<polygon fill="black" stroke="black" points="935.115,-1332.25 925.654,-1337.02 936.024,-1339.19 935.115,-1332.25"/>
</g>
<!-- TMPRSS2 -->
<g id="node15" class="node"><title>TMPRSS2</title>
<ellipse fill="none" stroke="black" cx="802" cy="-223.082" rx="18.6233" ry="18.6233"/>
<text text-anchor="middle" x="802" y="-221.882" font-family="Times,serif" font-size="4.00">TMPRSS2</text>
</g>
<!-- S1 -->
<g id="node18" class="node"><title>S1</title>
<ellipse fill="none" stroke="black" cx="633" cy="-110.714" rx="18" ry="18"/>
<text text-anchor="middle" x="633" y="-109.514" font-family="Times,serif" font-size="4.00">S1</text>
</g>
<!-- TMPRSS2&#45;&gt;S1 -->
<g id="edge36" class="edge"><title>TMPRSS2&#45;&gt;S1</title>
<path fill="none" stroke="black" d="M792.663,-206.919C787.74,-199.779 781.227,-191.516 774,-185.428 771.536,-183.353 697.74,-145.133 657.917,-124.567"/>
<polygon fill="black" stroke="black" points="659.31,-121.347 648.818,-119.87 656.099,-127.567 659.31,-121.347"/>
</g>
<!-- S2 -->
<g id="node24" class="node"><title>S2</title>
<ellipse fill="none" stroke="black" cx="523" cy="-110.714" rx="18" ry="18"/>
<text text-anchor="middle" x="523" y="-109.514" font-family="Times,serif" font-size="4.00">S2</text>
</g>
<!-- TMPRSS2&#45;&gt;S2 -->
<g id="edge35" class="edge"><title>TMPRSS2&#45;&gt;S2</title>
<path fill="none" stroke="black" d="M793.562,-206.394C788.777,-198.946 782.117,-190.571 774,-185.428 709.496,-144.558 678.514,-173.362 606,-149.428 585.836,-142.773 564.012,-132.736 547.805,-124.689"/>
<polygon fill="black" stroke="black" points="549.008,-121.375 538.505,-119.984 545.848,-127.621 549.008,-121.375"/>
</g>
<!-- ACE2 (100 Kda) -->
<g id="node25" class="node"><title>ACE2 (100 Kda)</title>
<ellipse fill="none" stroke="black" cx="740" cy="-110.714" rx="25.4118" ry="25.4118"/>
<text text-anchor="middle" x="740" y="-109.514" font-family="Times,serif" font-size="4.00">ACE2 (100 Kda)</text>
</g>
<!-- TMPRSS2&#45;&gt;ACE2 (100 Kda) -->
<g id="edge34" class="edge"><title>TMPRSS2&#45;&gt;ACE2 (100 Kda)</title>
<path fill="none" stroke="black" d="M793.117,-206.269C783.725,-189.55 768.682,-162.771 756.998,-141.973"/>
<polygon fill="black" stroke="black" points="760.01,-140.189 752.061,-133.184 753.907,-143.617 760.01,-140.189"/>
</g>
<!-- ACE2 (15 Kda) -->
<g id="node38" class="node"><title>ACE2 (15 Kda)</title>
<ellipse fill="none" stroke="black" cx="808" cy="-110.714" rx="24.2908" ry="24.2908"/>
<text text-anchor="middle" x="808" y="-109.514" font-family="Times,serif" font-size="4.00">ACE2 (15 Kda)</text>
</g>
<!-- TMPRSS2&#45;&gt;ACE2 (15 Kda) -->
<g id="edge33" class="edge"><title>TMPRSS2&#45;&gt;ACE2 (15 Kda)</title>
<path fill="none" stroke="black" d="M802.964,-204.349C803.829,-188.441 805.121,-164.669 806.18,-145.191"/>
<polygon fill="black" stroke="black" points="809.676,-145.35 806.725,-135.175 802.687,-144.97 809.676,-145.35"/>
</g>
<!-- SARS&#45;CoV&#45;2 accessory protein coding (&#45;)sgmRNAs -->
<g id="node16" class="node"><title>SARS&#45;CoV&#45;2 accessory protein coding (&#45;)sgmRNAs</title>
<ellipse fill="none" stroke="black" cx="634" cy="-773.845" rx="61.5366" ry="61.5366"/>
<text text-anchor="middle" x="634" y="-772.645" font-family="Times,serif" font-size="4.00">SARS&#45;CoV&#45;2 accessory protein coding (&#45;)sgmRNAs</text>
</g>
<!-- SARS&#45;CoV&#45;2 accessory protein coding (&#45;)sgmRNAs&#45;&gt;SARS&#45;CoV&#45;2 accessory protein coding (+)sgmRNAs -->
<g id="edge37" class="edge"><title>SARS&#45;CoV&#45;2 accessory protein coding (&#45;)sgmRNAs&#45;&gt;SARS&#45;CoV&#45;2 accessory protein coding (+)sgmRNAs</title>
<path fill="none" stroke="black" d="M591.235,-729.226C572.161,-709.771 549.548,-686.706 529.636,-666.395"/>
<polygon fill="black" stroke="black" points="531.933,-663.739 522.433,-659.048 526.935,-668.639 531.933,-663.739"/>
</g>
<!-- SARS&#45;CoV&#45;2 structural proteins&#45;&gt;E -->
<g id="edge38" class="edge"><title>SARS&#45;CoV&#45;2 structural proteins&#45;&gt;E</title>
<path fill="none" stroke="black" d="M194.273,-510.522C185.156,-568.249 170,-678.413 170,-772.845 170,-1264.59 170,-1264.59 170,-1264.59 170,-1308.02 166.686,-1358.35 164.324,-1388.7"/>
<polygon fill="black" stroke="black" points="160.814,-1388.69 163.505,-1398.93 167.792,-1389.24 160.814,-1388.69"/>
</g>
<!-- SARS&#45;CoV&#45;2 structural proteins&#45;&gt;M -->
<g id="edge39" class="edge"><title>SARS&#45;CoV&#45;2 structural proteins&#45;&gt;M</title>
<path fill="none" stroke="black" d="M199.156,-428.149C198.475,-369.494 204.912,-259.684 256,-185.428 316.79,-97.0725 441.394,-46.3485 496.165,-27.5064"/>
<polygon fill="black" stroke="black" points="497.48,-30.7569 505.849,-24.259 495.255,-24.1201 497.48,-30.7569"/>
</g>
<!-- S -->
<g id="node35" class="node"><title>S</title>
<ellipse fill="none" stroke="black" cx="470" cy="-342.343" rx="18" ry="18"/>
<text text-anchor="middle" x="470" y="-341.143" font-family="Times,serif" font-size="4.00">S</text>
</g>
<!-- SARS&#45;CoV&#45;2 structural proteins&#45;&gt;S -->
<g id="edge40" class="edge"><title>SARS&#45;CoV&#45;2 structural proteins&#45;&gt;S</title>
<path fill="none" stroke="black" d="M238.121,-451.281C293.693,-425.413 397.069,-377.292 444.733,-355.105"/>
<polygon fill="black" stroke="black" points="446.432,-358.175 454.021,-350.782 443.478,-351.829 446.432,-358.175"/>
</g>
<!-- ACE2_SPIKE complex -->
<g id="node19" class="node"><title>ACE2_SPIKE complex</title>
<ellipse fill="none" stroke="black" cx="870" cy="-223.082" rx="31.6406" ry="31.6406"/>
<text text-anchor="middle" x="870" y="-221.882" font-family="Times,serif" font-size="4.00">ACE2_SPIKE complex</text>
</g>
<!-- ACE2_SPIKE complex&#45;&gt;Nucleoporin_gRNA complex  -->
<g id="edge45" class="edge"><title>ACE2_SPIKE complex&#45;&gt;Nucleoporin_gRNA complex </title>
<path fill="none" stroke="black" d="M898.689,-208.406C913.845,-201.317 932.819,-192.654 950,-185.428 999.458,-164.629 1057.01,-142.849 1096.11,-128.407"/>
<polygon fill="black" stroke="black" points="1097.46,-131.638 1105.63,-124.898 1095.04,-125.069 1097.46,-131.638"/>
</g>
<!-- ACE2_SPIKE complex&#45;&gt;S1 -->
<g id="edge42" class="edge"><title>ACE2_SPIKE complex&#45;&gt;S1</title>
<path fill="none" stroke="black" d="M848.591,-199.166C842.938,-194.085 836.568,-189.121 830,-185.428 779.977,-157.305 759.299,-170.699 706,-149.428 689.207,-142.726 671.148,-133.416 657.193,-125.722"/>
<polygon fill="black" stroke="black" points="658.687,-122.548 648.253,-120.707 655.262,-128.652 658.687,-122.548"/>
</g>
<!-- ACE2_SPIKE complex&#45;&gt;S2 -->
<g id="edge41" class="edge"><title>ACE2_SPIKE complex&#45;&gt;S2</title>
<path fill="none" stroke="black" d="M848.896,-198.582C843.233,-193.52 836.783,-188.71 830,-185.428 739.23,-141.518 702.538,-178.544 606,-149.428 585.671,-143.297 563.855,-133.235 547.693,-125.045"/>
<polygon fill="black" stroke="black" points="548.913,-121.735 538.424,-120.24 545.691,-127.95 548.913,-121.735"/>
</g>
<!-- ACE2_SPIKE complex&#45;&gt;ACE2 (100 Kda) -->
<g id="edge43" class="edge"><title>ACE2_SPIKE complex&#45;&gt;ACE2 (100 Kda)</title>
<path fill="none" stroke="black" d="M847.291,-200.102C841.78,-195.1 835.801,-189.937 830,-185.428 806.932,-167.5 797.324,-168.275 775,-149.428 770.924,-145.987 766.845,-142.099 762.986,-138.16"/>
<polygon fill="black" stroke="black" points="765.298,-135.509 755.896,-130.626 760.2,-140.307 765.298,-135.509"/>
</g>
<!-- ACE2_SPIKE complex&#45;&gt;ACE2 (15 Kda) -->
<g id="edge44" class="edge"><title>ACE2_SPIKE complex&#45;&gt;ACE2 (15 Kda)</title>
<path fill="none" stroke="black" d="M854.833,-195.083C845.698,-178.821 834.056,-158.097 824.665,-141.379"/>
<polygon fill="black" stroke="black" points="827.658,-139.562 819.709,-132.557 821.555,-142.99 827.658,-139.562"/>
</g>
<!-- N (+)sgmRNA&#45;&gt;N -->
<g id="edge46" class="edge"><title>N (+)sgmRNA&#45;&gt;N</title>
<path fill="none" stroke="black" d="M1075.3,-635.213C1110.93,-716.946 1230.15,-1024.48 1097,-1209.59 1067.32,-1250.85 1003.98,-1260.44 967.148,-1262.4"/>
<polygon fill="black" stroke="black" points="966.934,-1258.9 957.072,-1262.78 967.197,-1265.9 966.934,-1258.9"/>
</g>
<!-- CTSB -->
<g id="node21" class="node"><title>CTSB</title>
<ellipse fill="none" stroke="black" cx="523" cy="-223.082" rx="18" ry="18"/>
<text text-anchor="middle" x="523" y="-221.882" font-family="Times,serif" font-size="4.00">CTSB</text>
</g>
<!-- CTSB&#45;&gt;S1 -->
<g id="edge48" class="edge"><title>CTSB&#45;&gt;S1</title>
<path fill="none" stroke="black" d="M532.598,-207.617C537.486,-200.643 543.713,-192.317 550,-185.428 569.203,-164.387 593.901,-143.069 611.347,-128.808"/>
<polygon fill="black" stroke="black" points="613.693,-131.413 619.273,-122.407 609.294,-125.967 613.693,-131.413"/>
</g>
<!-- CTSB&#45;&gt;S2 -->
<g id="edge47" class="edge"><title>CTSB&#45;&gt;S2</title>
<path fill="none" stroke="black" d="M523,-204.837C523,-187.18 523,-159.48 523,-138.875"/>
<polygon fill="black" stroke="black" points="526.5,-138.838 523,-128.838 519.5,-138.838 526.5,-138.838"/>
</g>
<!-- FURIN -->
<g id="node22" class="node"><title>FURIN</title>
<ellipse fill="none" stroke="black" cx="747" cy="-223.082" rx="18" ry="18"/>
<text text-anchor="middle" x="747" y="-221.882" font-family="Times,serif" font-size="4.00">FURIN</text>
</g>
<!-- FURIN&#45;&gt;S1 -->
<g id="edge52" class="edge"><title>FURIN&#45;&gt;S1</title>
<path fill="none" stroke="black" d="M737.471,-207.553C732.6,-200.563 726.367,-192.243 720,-185.428 699.908,-163.921 673.81,-142.533 655.459,-128.379"/>
<polygon fill="black" stroke="black" points="657.21,-125.314 647.133,-122.043 652.971,-130.884 657.21,-125.314"/>
</g>
<!-- FURIN&#45;&gt;S2 -->
<g id="edge51" class="edge"><title>FURIN&#45;&gt;S2</title>
<path fill="none" stroke="black" d="M738.767,-206.711C734.129,-199.344 727.714,-190.946 720,-185.428 676.784,-154.517 655.61,-168.453 606,-149.428 586.297,-141.872 564.603,-131.957 548.337,-124.189"/>
<polygon fill="black" stroke="black" points="549.504,-120.866 538.977,-119.671 546.461,-127.17 549.504,-120.866"/>
</g>
<!-- FURIN&#45;&gt;ACE2 (100 Kda) -->
<g id="edge50" class="edge"><title>FURIN&#45;&gt;ACE2 (100 Kda)</title>
<path fill="none" stroke="black" d="M745.906,-204.837C744.915,-189.214 743.426,-165.728 742.191,-146.252"/>
<polygon fill="black" stroke="black" points="745.68,-145.967 741.554,-136.208 738.694,-146.41 745.68,-145.967"/>
</g>
<!-- FURIN&#45;&gt;ACE2 (15 Kda) -->
<g id="edge49" class="edge"><title>FURIN&#45;&gt;ACE2 (15 Kda)</title>
<path fill="none" stroke="black" d="M755.482,-206.735C764.778,-189.915 779.918,-162.522 791.56,-141.459"/>
<polygon fill="black" stroke="black" points="794.694,-143.024 796.468,-132.579 788.567,-139.638 794.694,-143.024"/>
</g>
<!-- Replication transcription complex_N oligomer&#45;&gt;Replication transcription complex -->
<g id="edge54" class="edge"><title>Replication transcription complex_N oligomer&#45;&gt;Replication transcription complex</title>
<path fill="none" stroke="black" d="M927.068,-1097.03C926.07,-1088.23 925.202,-1079.14 924.524,-1070.37"/>
<polygon fill="black" stroke="black" points="928.007,-1070.01 923.819,-1060.28 921.024,-1070.5 928.007,-1070.01"/>
</g>
<!-- Replication transcription complex_N oligomer&#45;&gt;Nucleoporin_gRNA complex  -->
<g id="edge53" class="edge"><title>Replication transcription complex_N oligomer&#45;&gt;Nucleoporin_gRNA complex </title>
<path fill="none" stroke="black" d="M972.044,-1106.48C1001.37,-1064.25 1043.43,-998.609 1069,-936.063 1089.79,-885.214 1142,-671.079 1142,-614.748 1142,-614.748 1142,-614.748 1142,-341.343 1142,-278.521 1142,-206.032 1142,-159.58"/>
<polygon fill="black" stroke="black" points="1145.5,-159.503 1142,-149.503 1138.5,-159.503 1145.5,-159.503"/>
</g>
<!-- S2&#45;&gt;Orf7a -->
<g id="edge57" class="edge"><title>S2&#45;&gt;Orf7a</title>
<path fill="none" stroke="black" d="M506.199,-117.398C431.359,-143.885 132,-262.699 132,-468.56 132,-904.713 132,-904.713 132,-904.713 132,-1067.32 208,-1099.99 208,-1262.59 208,-1341.39 208,-1341.39 208,-1341.39 208,-1385.2 224.052,-1434.07 235.29,-1462.93"/>
<polygon fill="black" stroke="black" points="232.06,-1464.28 239.03,-1472.25 238.558,-1461.67 232.06,-1464.28"/>
</g>
<!-- S2&#45;&gt;E -->
<g id="edge55" class="edge"><title>S2&#45;&gt;E</title>
<path fill="none" stroke="black" d="M504.803,-111.315C451.945,-111.026 295.724,-116.421 194,-185.428 147.371,-217.06 94,-303.768 94,-341.343 94,-1264.59 94,-1264.59 94,-1264.59 94,-1314.31 124.821,-1365.8 144.963,-1394.14"/>
<polygon fill="black" stroke="black" points="142.346,-1396.49 151.075,-1402.49 147.996,-1392.36 142.346,-1396.49"/>
</g>
<!-- S2&#45;&gt;M -->
<g id="edge58" class="edge"><title>S2&#45;&gt;M</title>
<path fill="none" stroke="black" d="M523,-92.6515C523,-79.6835 523,-61.5776 523,-46.5633"/>
<polygon fill="black" stroke="black" points="526.5,-46.2945 523,-36.2945 519.5,-46.2946 526.5,-46.2945"/>
</g>
<!-- S2&#45;&gt;Nucleocapsid -->
<g id="edge56" class="edge"><title>S2&#45;&gt;Nucleocapsid</title>
<path fill="none" stroke="black" d="M508.884,-122.321C491.681,-135.721 462.39,-160.103 442,-185.428 438.322,-189.996 232.808,-545.59 231,-551.169 200.47,-645.398 208,-673.793 208,-772.845 208,-904.713 208,-904.713 208,-904.713 208,-1221.3 732.792,-1315.91 870.327,-1335.27"/>
<polygon fill="black" stroke="black" points="869.889,-1338.74 880.271,-1336.63 870.839,-1331.8 869.889,-1338.74"/>
</g>
<!-- SARS&#45;CoV&#45;2 polyproteins (cleaved)&#45;&gt;SARS&#45;CoV&#45;2 Nsp3 products -->
<g id="edge60" class="edge"><title>SARS&#45;CoV&#45;2 polyproteins (cleaved)&#45;&gt;SARS&#45;CoV&#45;2 Nsp3 products</title>
<path fill="none" stroke="black" d="M748.01,-576.131C762.702,-555.447 781.043,-529.627 795.909,-508.699"/>
<polygon fill="black" stroke="black" points="798.899,-510.533 801.837,-500.354 793.192,-506.48 798.899,-510.533"/>
</g>
<!-- SARS&#45;CoV&#45;2 polyproteins (Nsp5&#45;16) -->
<g id="node33" class="node"><title>SARS&#45;CoV&#45;2 polyproteins (Nsp5&#45;16)</title>
<ellipse fill="none" stroke="black" cx="722" cy="-469.56" rx="45.717" ry="45.717"/>
<text text-anchor="middle" x="722" y="-468.36" font-family="Times,serif" font-size="4.00">SARS&#45;CoV&#45;2 polyproteins (Nsp5&#45;16)</text>
</g>
<!-- SARS&#45;CoV&#45;2 polyproteins (cleaved)&#45;&gt;SARS&#45;CoV&#45;2 polyproteins (Nsp5&#45;16) -->
<g id="edge59" class="edge"><title>SARS&#45;CoV&#45;2 polyproteins (cleaved)&#45;&gt;SARS&#45;CoV&#45;2 polyproteins (Nsp5&#45;16)</title>
<path fill="none" stroke="black" d="M722,-567.759C722,-554.272 722,-539.33 722,-525.288"/>
<polygon fill="black" stroke="black" points="725.5,-525.256 722,-515.257 718.5,-525.257 725.5,-525.256"/>
</g>
<!-- N (&#45;)sgmRNA -->
<g id="node27" class="node"><title>N (&#45;)sgmRNA</title>
<ellipse fill="none" stroke="black" cx="977" cy="-773.845" rx="22.6101" ry="22.6101"/>
<text text-anchor="middle" x="977" y="-772.645" font-family="Times,serif" font-size="4.00">N (&#45;)sgmRNA</text>
</g>
<!-- N (&#45;)sgmRNA&#45;&gt;N (+)sgmRNA -->
<g id="edge61" class="edge"><title>N (&#45;)sgmRNA&#45;&gt;N (+)sgmRNA</title>
<path fill="none" stroke="black" d="M987.913,-753.459C1003.42,-725.917 1031.93,-675.273 1049.87,-643.393"/>
<polygon fill="black" stroke="black" points="1053,-644.972 1054.86,-634.541 1046.9,-641.538 1053,-644.972"/>
</g>
<!--  SARS&#45;CoV&#45;2 (+)gRNA&#45;&gt;SARS&#45;CoV&#45;2 polyproteins -->
<g id="edge68" class="edge"><title> SARS&#45;CoV&#45;2 (+)gRNA&#45;&gt;SARS&#45;CoV&#45;2 polyproteins</title>
<path fill="none" stroke="black" d="M750.506,-871.105C750.262,-855.549 749.965,-836.528 749.699,-819.514"/>
<polygon fill="black" stroke="black" points="753.194,-819.173 749.538,-809.229 746.195,-819.283 753.194,-819.173"/>
</g>
<!--  SARS&#45;CoV&#45;2 (+)gRNA&#45;&gt;Replication transcription complex -->
<g id="edge62" class="edge"><title> SARS&#45;CoV&#45;2 (+)gRNA&#45;&gt;Replication transcription complex</title>
<path fill="none" stroke="black" d="M779.63,-918.961C788.44,-924.512 798.038,-930.793 807,-936.063 837.156,-953.798 847.296,-953.582 877,-972.063 880.318,-974.128 883.688,-976.327 887.032,-978.599"/>
<polygon fill="black" stroke="black" points="885.047,-981.482 895.245,-984.355 889.065,-975.749 885.047,-981.482"/>
</g>
<!--  SARS&#45;CoV&#45;2 (+)gRNA&#45;&gt;Nucleoporin_gRNA complex  -->
<g id="edge63" class="edge"><title> SARS&#45;CoV&#45;2 (+)gRNA&#45;&gt;Nucleoporin_gRNA complex </title>
<path fill="none" stroke="black" d="M768.436,-876.236C776.263,-863.984 785.421,-849.123 793,-835.363 931.277,-584.331 1072.41,-270.084 1122.74,-155.818"/>
<polygon fill="black" stroke="black" points="1125.95,-157.224 1126.77,-146.661 1119.54,-154.406 1125.95,-157.224"/>
</g>
<!--  SARS&#45;CoV&#45;2 (+)gRNA&#45;&gt;SARS&#45;CoV&#45;2 accessory protein coding (&#45;)sgmRNAs -->
<g id="edge66" class="edge"><title> SARS&#45;CoV&#45;2 (+)gRNA&#45;&gt;SARS&#45;CoV&#45;2 accessory protein coding (&#45;)sgmRNAs</title>
<path fill="none" stroke="black" d="M729.54,-879.26C716.264,-864.75 698.663,-845.515 682.189,-827.51"/>
<polygon fill="black" stroke="black" points="684.547,-824.902 675.214,-819.887 679.382,-829.627 684.547,-824.902"/>
</g>
<!--  SARS&#45;CoV&#45;2 (+)gRNA&#45;&gt;N (&#45;)sgmRNA -->
<g id="edge67" class="edge"><title> SARS&#45;CoV&#45;2 (+)gRNA&#45;&gt;N (&#45;)sgmRNA</title>
<path fill="none" stroke="black" d="M779.166,-886.777C822.49,-862.265 905.019,-815.571 948.527,-790.955"/>
<polygon fill="black" stroke="black" points="950.463,-793.881 957.443,-785.91 947.016,-787.788 950.463,-793.881"/>
</g>
<!-- SARS&#45;CoV&#45;2 structural protein coding (&#45;)sgmRNAs -->
<g id="node30" class="node"><title>SARS&#45;CoV&#45;2 structural protein coding (&#45;)sgmRNAs</title>
<ellipse fill="none" stroke="black" cx="412" cy="-773.845" rx="61.5366" ry="61.5366"/>
<text text-anchor="middle" x="412" y="-772.645" font-family="Times,serif" font-size="4.00">SARS&#45;CoV&#45;2 structural protein coding (&#45;)sgmRNAs</text>
</g>
<!--  SARS&#45;CoV&#45;2 (+)gRNA&#45;&gt;SARS&#45;CoV&#45;2 structural protein coding (&#45;)sgmRNAs -->
<g id="edge64" class="edge"><title> SARS&#45;CoV&#45;2 (+)gRNA&#45;&gt;SARS&#45;CoV&#45;2 structural protein coding (&#45;)sgmRNAs</title>
<path fill="none" stroke="black" d="M718.795,-899.431C666.715,-893.096 561.885,-876.035 483,-835.363 476.468,-831.995 470.021,-827.92 463.834,-823.494"/>
<polygon fill="black" stroke="black" points="465.669,-820.494 455.575,-817.274 461.458,-826.086 465.669,-820.494"/>
</g>
<!--  SARS&#45;CoV&#45;2 (&#45;)gRNA -->
<g id="node37" class="node"><title> SARS&#45;CoV&#45;2 (&#45;)gRNA</title>
<ellipse fill="none" stroke="black" cx="523" cy="-773.845" rx="31.0804" ry="31.0804"/>
<text text-anchor="middle" x="523" y="-772.645" font-family="Times,serif" font-size="4.00"> SARS&#45;CoV&#45;2 (&#45;)gRNA</text>
</g>
<!--  SARS&#45;CoV&#45;2 (+)gRNA&#45;&gt; SARS&#45;CoV&#45;2 (&#45;)gRNA -->
<g id="edge65" class="edge"><title> SARS&#45;CoV&#45;2 (+)gRNA&#45;&gt; SARS&#45;CoV&#45;2 (&#45;)gRNA</title>
<path fill="none" stroke="black" d="M718.939,-898.734C676.906,-891.731 603.367,-874.104 554,-835.363 546.36,-829.368 539.694,-821.493 534.353,-813.416"/>
<polygon fill="black" stroke="black" points="537.241,-811.426 529.095,-804.651 531.238,-815.027 537.241,-811.426"/>
</g>
<!-- ACE2 -->
<g id="node29" class="node"><title>ACE2</title>
<ellipse fill="none" stroke="black" cx="918" cy="-342.343" rx="18" ry="18"/>
<text text-anchor="middle" x="918" y="-341.143" font-family="Times,serif" font-size="4.00">ACE2</text>
</g>
<!-- ACE2&#45;&gt;ACE2_SPIKE complex -->
<g id="edge69" class="edge"><title>ACE2&#45;&gt;ACE2_SPIKE complex</title>
<path fill="none" stroke="black" d="M911.527,-325.529C904.958,-309.482 894.538,-284.027 885.78,-262.631"/>
<polygon fill="black" stroke="black" points="888.92,-261.062 881.892,-253.134 882.441,-263.714 888.92,-261.062"/>
</g>
<!-- SARS&#45;CoV&#45;2 structural protein coding (&#45;)sgmRNAs&#45;&gt;SARS&#45;CoV&#45;2 structural protein coding (+)sgmRNAs -->
<g id="edge70" class="edge"><title>SARS&#45;CoV&#45;2 structural protein coding (&#45;)sgmRNAs&#45;&gt;SARS&#45;CoV&#45;2 structural protein coding (+)sgmRNAs</title>
<path fill="none" stroke="black" d="M385.632,-717.994C379.629,-705.507 373.198,-692.128 367.021,-679.279"/>
<polygon fill="black" stroke="black" points="370.066,-677.533 362.579,-670.037 363.757,-680.566 370.066,-677.533"/>
</g>
<!-- Camostat mesylate -->
<g id="node31" class="node"><title>Camostat mesylate</title>
<ellipse fill="none" stroke="black" cx="588" cy="-223.082" rx="29.3373" ry="29.3373"/>
<text text-anchor="middle" x="588" y="-221.882" font-family="Times,serif" font-size="4.00">Camostat mesylate</text>
</g>
<!-- Camostat mesylate&#45;&gt;S1 -->
<g id="edge74" class="edge"><title>Camostat mesylate&#45;&gt;S1</title>
<path fill="none" stroke="black" d="M598.664,-195.926C605.878,-178.235 615.359,-154.98 622.531,-137.39"/>
<polygon fill="black" stroke="black" points="625.917,-138.355 626.452,-127.774 619.436,-135.712 625.917,-138.355"/>
</g>
<!-- Camostat mesylate&#45;&gt;S2 -->
<g id="edge73" class="edge"><title>Camostat mesylate&#45;&gt;S2</title>
<path fill="none" stroke="black" d="M573.574,-197.587C562.632,-179.007 547.681,-153.622 536.876,-135.275"/>
<polygon fill="black" stroke="black" points="539.884,-133.486 531.794,-126.645 533.853,-137.038 539.884,-133.486"/>
</g>
<!-- Camostat mesylate&#45;&gt;ACE2 (100 Kda) -->
<g id="edge72" class="edge"><title>Camostat mesylate&#45;&gt;ACE2 (100 Kda)</title>
<path fill="none" stroke="black" d="M607.846,-201.54C613.51,-196.072 619.825,-190.327 626,-185.428 652.732,-164.22 685.69,-143.423 709.282,-129.356"/>
<polygon fill="black" stroke="black" points="711.312,-132.221 718.145,-124.124 707.754,-126.193 711.312,-132.221"/>
</g>
<!-- Camostat mesylate&#45;&gt;ACE2 (15 Kda) -->
<g id="edge71" class="edge"><title>Camostat mesylate&#45;&gt;ACE2 (15 Kda)</title>
<path fill="none" stroke="black" d="M606.486,-200.467C612.234,-194.863 618.933,-189.316 626,-185.428 685.311,-152.796 715.863,-184.11 774,-149.428 778.826,-146.549 783.357,-142.765 787.441,-138.706"/>
<polygon fill="black" stroke="black" points="790.107,-140.977 794.275,-131.237 784.942,-136.252 790.107,-140.977"/>
</g>
<!-- SARS&#45;CoV&#45;2 polyproteins (Nsp6&#45;16) -->
<g id="node32" class="node"><title>SARS&#45;CoV&#45;2 polyproteins (Nsp6&#45;16)</title>
<ellipse fill="none" stroke="black" cx="673" cy="-342.343" rx="45.717" ry="45.717"/>
<text text-anchor="middle" x="673" y="-341.143" font-family="Times,serif" font-size="4.00">SARS&#45;CoV&#45;2 polyproteins (Nsp6&#45;16)</text>
</g>
<!-- SARS&#45;CoV&#45;2 polyproteins (Nsp6&#45;16)&#45;&gt;SARS&#45;CoV&#45;2 &#160;Nsp5 products -->
<g id="edge75" class="edge"><title>SARS&#45;CoV&#45;2 polyproteins (Nsp6&#45;16)&#45;&gt;SARS&#45;CoV&#45;2 &#160;Nsp5 products</title>
<path fill="none" stroke="black" d="M673,-296.677C673,-288.303 673,-279.525 673,-271.082"/>
<polygon fill="black" stroke="black" points="676.5,-270.999 673,-260.999 669.5,-270.999 676.5,-270.999"/>
</g>
<!-- SARS&#45;CoV&#45;2 polyproteins (Nsp5&#45;16)&#45;&gt;Nsp5 -->
<g id="edge76" class="edge"><title>SARS&#45;CoV&#45;2 polyproteins (Nsp5&#45;16)&#45;&gt;Nsp5</title>
<path fill="none" stroke="black" d="M733.449,-425.117C738.305,-406.691 743.807,-385.814 748.036,-369.766"/>
<polygon fill="black" stroke="black" points="751.448,-370.554 750.612,-359.992 744.679,-368.77 751.448,-370.554"/>
</g>
<!-- SARS&#45;CoV&#45;2 polyproteins (Nsp5&#45;16)&#45;&gt;SARS&#45;CoV&#45;2 polyproteins (Nsp6&#45;16) -->
<g id="edge77" class="edge"><title>SARS&#45;CoV&#45;2 polyproteins (Nsp5&#45;16)&#45;&gt;SARS&#45;CoV&#45;2 polyproteins (Nsp6&#45;16)</title>
<path fill="none" stroke="black" d="M705.684,-426.865C701.676,-416.625 697.339,-405.541 693.174,-394.898"/>
<polygon fill="black" stroke="black" points="696.316,-393.321 689.412,-385.284 689.797,-395.872 696.316,-393.321"/>
</g>
<!-- Nucleocapsid&#45;&gt;N -->
<g id="edge78" class="edge"><title>Nucleocapsid&#45;&gt;N</title>
<path fill="none" stroke="black" d="M912.647,-1319.35C917.084,-1310.13 922.39,-1299.1 927.074,-1289.37"/>
<polygon fill="black" stroke="black" points="930.313,-1290.71 931.496,-1280.18 924.005,-1287.68 930.313,-1290.71"/>
</g>
<!-- Nucleocapsid&#45;&gt; SARS&#45;CoV&#45;2 (+)gRNA -->
<g id="edge79" class="edge"><title>Nucleocapsid&#45;&gt; SARS&#45;CoV&#45;2 (+)gRNA</title>
<path fill="none" stroke="black" d="M895.771,-1318.72C872.029,-1250.82 796.177,-1033.91 764.794,-944.161"/>
<polygon fill="black" stroke="black" points="768.062,-942.903 761.458,-934.619 761.455,-945.214 768.062,-942.903"/>
</g>
<!-- S&#45;&gt;ACE2_SPIKE complex -->
<g id="edge80" class="edge"><title>S&#45;&gt;ACE2_SPIKE complex</title>
<path fill="none" stroke="black" d="M486.684,-335.57C513.899,-326.322 569.666,-308.077 618,-296.735 711.044,-274.903 744.152,-302.734 830,-260.735 833.807,-258.872 837.512,-256.532 841.033,-253.939"/>
<polygon fill="black" stroke="black" points="843.341,-256.573 848.875,-247.538 838.915,-251.15 843.341,-256.573"/>
</g>
<!-- Nsp3&#45;&gt;Replication transcription complex -->
<g id="edge81" class="edge"><title>Nsp3&#45;&gt;Replication transcription complex</title>
<path fill="none" stroke="black" d="M805.498,-631.788C810.269,-680.824 827.613,-825.816 874,-936.063 879.228,-948.488 886.448,-961.068 893.847,-972.426"/>
<polygon fill="black" stroke="black" points="891.026,-974.504 899.509,-980.852 896.836,-970.599 891.026,-974.504"/>
</g>
<!-- Nsp3&#45;&gt;SARS&#45;CoV&#45;2 Nsp3 products -->
<g id="edge83" class="edge"><title>Nsp3&#45;&gt;SARS&#45;CoV&#45;2 Nsp3 products</title>
<path fill="none" stroke="black" d="M806.254,-595.878C808.852,-576.44 813.228,-543.687 816.856,-516.539"/>
<polygon fill="black" stroke="black" points="820.349,-516.824 818.204,-506.449 813.411,-515.897 820.349,-516.824"/>
</g>
<!-- Nsp3&#45;&gt;SARS&#45;CoV&#45;2 polyproteins (Nsp5&#45;16) -->
<g id="edge82" class="edge"><title>Nsp3&#45;&gt;SARS&#45;CoV&#45;2 polyproteins (Nsp5&#45;16)</title>
<path fill="none" stroke="black" d="M797.904,-596.667C792.881,-584.009 785.26,-566.076 777,-551.169 770.326,-539.124 762.345,-526.601 754.561,-515.119"/>
<polygon fill="black" stroke="black" points="757.225,-512.817 748.671,-506.566 751.46,-516.787 757.225,-512.817"/>
</g>
<!--  SARS&#45;CoV&#45;2 (&#45;)gRNA&#45;&gt; SARS&#45;CoV&#45;2 (+)gRNA -->
<g id="edge84" class="edge"><title> SARS&#45;CoV&#45;2 (&#45;)gRNA&#45;&gt; SARS&#45;CoV&#45;2 (+)gRNA</title>
<path fill="none" stroke="black" d="M542.115,-798.832C549.946,-811.222 559.714,-825.722 572,-835.363 612.936,-867.488 670.492,-885.094 709.296,-894.164"/>
<polygon fill="black" stroke="black" points="708.7,-897.617 719.224,-896.395 710.235,-890.788 708.7,-897.617"/>
</g>
<!-- SARS&#45;CoV&#45;2 accessory proteins&#45;&gt;Orf7a -->
<g id="edge85" class="edge"><title>SARS&#45;CoV&#45;2 accessory proteins&#45;&gt;Orf7a</title>
<path fill="none" stroke="black" d="M369.765,-481.353C335.754,-492.749 288.867,-514.296 265,-551.169 211.268,-634.18 246,-673.961 246,-772.845 246,-1341.39 246,-1341.39 246,-1341.39 246,-1382.98 246,-1431.19 246,-1460.68"/>
<polygon fill="black" stroke="black" points="242.5,-1461.02 246,-1471.02 249.5,-1461.02 242.5,-1461.02"/>
</g>
<!-- CTSL -->
<g id="node40" class="node"><title>CTSL</title>
<ellipse fill="none" stroke="black" cx="469" cy="-223.082" rx="18" ry="18"/>
<text text-anchor="middle" x="469" y="-221.882" font-family="Times,serif" font-size="4.00">CTSL</text>
</g>
<!-- CTSL&#45;&gt;S1 -->
<g id="edge87" class="edge"><title>CTSL&#45;&gt;S1</title>
<path fill="none" stroke="black" d="M477.699,-207.302C482.457,-200.087 488.837,-191.645 496,-185.428 514.102,-169.719 572.952,-140.361 607.35,-123.83"/>
<polygon fill="black" stroke="black" points="609.244,-126.804 616.759,-119.336 606.227,-120.488 609.244,-126.804"/>
</g>
<!-- CTSL&#45;&gt;S2 -->
<g id="edge86" class="edge"><title>CTSL&#45;&gt;S2</title>
<path fill="none" stroke="black" d="M476.737,-206.269C485.689,-187.971 500.538,-157.623 510.994,-136.253"/>
<polygon fill="black" stroke="black" points="514.2,-137.663 515.452,-127.142 507.913,-134.586 514.2,-137.663"/>
</g>
</g>
</svg>
