<?xml version="1.0" encoding="UTF-8" standalone="no"?>
<!DOCTYPE svg PUBLIC "-//W3C//DTD SVG 1.1//EN"
 "http://www.w3.org/Graphics/SVG/1.1/DTD/svg11.dtd">
<!-- Generated by graphviz version 2.38.0 (20140413.2041)
 -->
<!-- Title: G Pages: 1 -->
<svg width="494pt" height="2177pt"
 viewBox="0.00 0.00 493.96 2176.97" xmlns="http://www.w3.org/2000/svg" xmlns:xlink="http://www.w3.org/1999/xlink">
<g id="graph0" class="graph" transform="scale(1 1) rotate(0) translate(4 2172.97)">
<title>G</title>
<polygon fill="white" stroke="none" points="-4,4 -4,-2172.97 489.956,-2172.97 489.956,4 -4,4"/>
<!-- ACE2 -->
<g id="node1" class="node"><title>ACE2</title>
<ellipse fill="none" stroke="black" cx="216.5" cy="-2150.97" rx="18" ry="18"/>
<text text-anchor="middle" x="216.5" y="-2149.77" font-family="Times,serif" font-size="4.00">ACE2</text>
</g>
<!-- pr_52cebf96&#45;2d1f&#45;4f68&#45;b1c5&#45;f1e03b19f46f -->
<g id="node2" class="node"><title>pr_52cebf96&#45;2d1f&#45;4f68&#45;b1c5&#45;f1e03b19f46f</title>
<polygon fill="none" stroke="black" points="249.5,-2094.97 153.5,-2094.97 153.5,-1998.97 249.5,-1998.97 249.5,-2094.97"/>
<text text-anchor="middle" x="201.5" y="-2045.77" font-family="Times,serif" font-size="4.00">pr_52cebf96&#45;2d1f&#45;4f68&#45;b1c5&#45;f1e03b19f46f</text>
</g>
<!-- ACE2&#45;&gt;pr_52cebf96&#45;2d1f&#45;4f68&#45;b1c5&#45;f1e03b19f46f -->
<g id="edge1" class="edge"><title>ACE2&#45;&gt;pr_52cebf96&#45;2d1f&#45;4f68&#45;b1c5&#45;f1e03b19f46f</title>
<path fill="none" stroke="black" d="M214.023,-2133.13C212.875,-2125.32 211.436,-2115.53 209.946,-2105.4"/>
<polygon fill="black" stroke="black" points="213.366,-2104.6 208.448,-2095.22 206.441,-2105.62 213.366,-2104.6"/>
</g>
<!-- pr_cad693ee&#45;b6c2&#45;4eaa&#45;b593&#45;72e458d27f57 -->
<g id="node17" class="node"><title>pr_cad693ee&#45;b6c2&#45;4eaa&#45;b593&#45;72e458d27f57</title>
<polygon fill="none" stroke="black" points="367.5,-2096.97 267.5,-2096.97 267.5,-1996.97 367.5,-1996.97 367.5,-2096.97"/>
<text text-anchor="middle" x="317.5" y="-2045.77" font-family="Times,serif" font-size="4.00">pr_cad693ee&#45;b6c2&#45;4eaa&#45;b593&#45;72e458d27f57</text>
</g>
<!-- ACE2&#45;&gt;pr_cad693ee&#45;b6c2&#45;4eaa&#45;b593&#45;72e458d27f57 -->
<g id="edge2" class="edge"><title>ACE2&#45;&gt;pr_cad693ee&#45;b6c2&#45;4eaa&#45;b593&#45;72e458d27f57</title>
<path fill="none" stroke="black" d="M228.885,-2137.46C237.339,-2128.92 249.201,-2116.94 261.503,-2104.52"/>
<polygon fill="black" stroke="black" points="264.226,-2106.75 268.775,-2097.18 259.252,-2101.82 264.226,-2106.75"/>
</g>
<!-- ACE2_SPIKE complex -->
<g id="node3" class="node"><title>ACE2_SPIKE complex</title>
<ellipse fill="none" stroke="black" cx="259.5" cy="-1929.15" rx="31.6406" ry="31.6406"/>
<text text-anchor="middle" x="259.5" y="-1927.95" font-family="Times,serif" font-size="4.00">ACE2_SPIKE complex</text>
</g>
<!-- pr_52cebf96&#45;2d1f&#45;4f68&#45;b1c5&#45;f1e03b19f46f&#45;&gt;ACE2_SPIKE complex -->
<g id="edge3" class="edge"><title>pr_52cebf96&#45;2d1f&#45;4f68&#45;b1c5&#45;f1e03b19f46f&#45;&gt;ACE2_SPIKE complex</title>
<path fill="none" stroke="black" d="M225.091,-1998.86C230.421,-1988.22 236.005,-1977.07 241.086,-1966.92"/>
<polygon fill="black" stroke="black" points="244.241,-1968.44 245.589,-1957.93 237.982,-1965.3 244.241,-1968.44"/>
</g>
<!-- pr_12cd0c9a&#45;3358&#45;4429&#45;a920&#45;4926f078bb52 -->
<g id="node6" class="node"><title>pr_12cd0c9a&#45;3358&#45;4429&#45;a920&#45;4926f078bb52</title>
<polygon fill="none" stroke="black" points="208.5,-1861.33 108.5,-1861.33 108.5,-1761.33 208.5,-1761.33 208.5,-1861.33"/>
<text text-anchor="middle" x="158.5" y="-1810.13" font-family="Times,serif" font-size="4.00">pr_12cd0c9a&#45;3358&#45;4429&#45;a920&#45;4926f078bb52</text>
</g>
<!-- ACE2_SPIKE complex&#45;&gt;pr_12cd0c9a&#45;3358&#45;4429&#45;a920&#45;4926f078bb52 -->
<g id="edge4" class="edge"><title>ACE2_SPIKE complex&#45;&gt;pr_12cd0c9a&#45;3358&#45;4429&#45;a920&#45;4926f078bb52</title>
<path fill="none" stroke="black" d="M239.061,-1904.71C230.087,-1894.42 219.122,-1881.85 208.206,-1869.33"/>
<polygon fill="black" stroke="black" points="210.644,-1866.8 201.434,-1861.56 205.368,-1871.4 210.644,-1866.8"/>
</g>
<!-- pr_39f2e0cb&#45;a5df&#45;408e&#45;96ef&#45;e557142c4f49 -->
<g id="node7" class="node"><title>pr_39f2e0cb&#45;a5df&#45;408e&#45;96ef&#45;e557142c4f49</title>
<polygon fill="none" stroke="black" points="324.5,-1860.33 226.5,-1860.33 226.5,-1762.33 324.5,-1762.33 324.5,-1860.33"/>
<text text-anchor="middle" x="275.5" y="-1810.13" font-family="Times,serif" font-size="4.00">pr_39f2e0cb&#45;a5df&#45;408e&#45;96ef&#45;e557142c4f49</text>
</g>
<!-- ACE2_SPIKE complex&#45;&gt;pr_39f2e0cb&#45;a5df&#45;408e&#45;96ef&#45;e557142c4f49 -->
<g id="edge5" class="edge"><title>ACE2_SPIKE complex&#45;&gt;pr_39f2e0cb&#45;a5df&#45;408e&#45;96ef&#45;e557142c4f49</title>
<path fill="none" stroke="black" d="M263.746,-1897.42C264.888,-1889.15 266.162,-1879.92 267.438,-1870.69"/>
<polygon fill="black" stroke="black" points="270.917,-1871.08 268.818,-1860.7 263.983,-1870.13 270.917,-1871.08"/>
</g>
<!-- pr_f335f7a2&#45;a547&#45;4222&#45;bb20&#45;8dc92354a32e -->
<g id="node12" class="node"><title>pr_f335f7a2&#45;a547&#45;4222&#45;bb20&#45;8dc92354a32e</title>
<polygon fill="none" stroke="black" points="442,-1860.83 343,-1860.83 343,-1761.83 442,-1761.83 442,-1860.83"/>
<text text-anchor="middle" x="392.5" y="-1810.13" font-family="Times,serif" font-size="4.00">pr_f335f7a2&#45;a547&#45;4222&#45;bb20&#45;8dc92354a32e</text>
</g>
<!-- ACE2_SPIKE complex&#45;&gt;pr_f335f7a2&#45;a547&#45;4222&#45;bb20&#45;8dc92354a32e -->
<g id="edge6" class="edge"><title>ACE2_SPIKE complex&#45;&gt;pr_f335f7a2&#45;a547&#45;4222&#45;bb20&#45;8dc92354a32e</title>
<path fill="none" stroke="black" d="M283.278,-1907.44C297.726,-1894.86 316.841,-1878.22 335.036,-1862.37"/>
<polygon fill="black" stroke="black" points="337.519,-1864.85 342.761,-1855.64 332.922,-1859.57 337.519,-1864.85"/>
</g>
<!-- S -->
<g id="node4" class="node"><title>S</title>
<ellipse fill="none" stroke="black" cx="301.5" cy="-2150.97" rx="18" ry="18"/>
<text text-anchor="middle" x="301.5" y="-2149.77" font-family="Times,serif" font-size="4.00">S</text>
</g>
<!-- S&#45;&gt;pr_52cebf96&#45;2d1f&#45;4f68&#45;b1c5&#45;f1e03b19f46f -->
<g id="edge7" class="edge"><title>S&#45;&gt;pr_52cebf96&#45;2d1f&#45;4f68&#45;b1c5&#45;f1e03b19f46f</title>
<path fill="none" stroke="black" d="M289.238,-2137.46C280.437,-2128.49 267.907,-2115.7 255.061,-2102.6"/>
<polygon fill="black" stroke="black" points="257.414,-2100 247.914,-2095.31 252.415,-2104.9 257.414,-2100"/>
</g>
<!-- S&#45;&gt;pr_cad693ee&#45;b6c2&#45;4eaa&#45;b593&#45;72e458d27f57 -->
<g id="edge8" class="edge"><title>S&#45;&gt;pr_cad693ee&#45;b6c2&#45;4eaa&#45;b593&#45;72e458d27f57</title>
<path fill="none" stroke="black" d="M304.142,-2133.13C305.301,-2125.74 306.739,-2116.57 308.237,-2107.02"/>
<polygon fill="black" stroke="black" points="311.718,-2107.41 309.81,-2096.99 304.803,-2106.33 311.718,-2107.41"/>
</g>
<!-- Nucleoporin_gRNA complex  -->
<g id="node5" class="node"><title>Nucleoporin_gRNA complex </title>
<ellipse fill="none" stroke="black" cx="158.5" cy="-1686.62" rx="38.9294" ry="38.9294"/>
<text text-anchor="middle" x="158.5" y="-1685.42" font-family="Times,serif" font-size="4.00">Nucleoporin_gRNA complex </text>
</g>
<!-- Nucleoporin_gRNA complex &#45;&gt;pr_12cd0c9a&#45;3358&#45;4429&#45;a920&#45;4926f078bb52 -->
<g id="edge9" class="edge"><title>Nucleoporin_gRNA complex &#45;&gt;pr_12cd0c9a&#45;3358&#45;4429&#45;a920&#45;4926f078bb52</title>
<path fill="none" stroke="black" d="M164.774,-1725.12C165.116,-1733.28 165.274,-1742.11 165.247,-1750.89"/>
<polygon fill="black" stroke="black" points="161.745,-1751.09 165.131,-1761.12 168.744,-1751.17 161.745,-1751.09"/>
</g>
<!-- pr_7f59e172&#45;774d&#45;4c37&#45;8faf&#45;f67b39fef2a4 -->
<g id="node18" class="node"><title>pr_7f59e172&#45;774d&#45;4c37&#45;8faf&#45;f67b39fef2a4</title>
<polygon fill="none" stroke="black" points="110.5,-1609.4 14.5,-1609.4 14.5,-1513.4 110.5,-1513.4 110.5,-1609.4"/>
<text text-anchor="middle" x="62.5" y="-1560.2" font-family="Times,serif" font-size="4.00">pr_7f59e172&#45;774d&#45;4c37&#45;8faf&#45;f67b39fef2a4</text>
</g>
<!-- Nucleoporin_gRNA complex &#45;&gt;pr_7f59e172&#45;774d&#45;4c37&#45;8faf&#45;f67b39fef2a4 -->
<g id="edge10" class="edge"><title>Nucleoporin_gRNA complex &#45;&gt;pr_7f59e172&#45;774d&#45;4c37&#45;8faf&#45;f67b39fef2a4</title>
<path fill="none" stroke="black" d="M135.016,-1655.47C126.098,-1644.03 115.637,-1630.6 105.479,-1617.56"/>
<polygon fill="black" stroke="black" points="108.117,-1615.26 99.2098,-1609.52 102.595,-1619.56 108.117,-1615.26"/>
</g>
<!-- pr_659672ed&#45;370d&#45;4ba5&#45;bc84&#45;eb1cda644e11 -->
<g id="node22" class="node"><title>pr_659672ed&#45;370d&#45;4ba5&#45;bc84&#45;eb1cda644e11</title>
<polygon fill="none" stroke="black" points="230,-1611.9 129,-1611.9 129,-1510.9 230,-1510.9 230,-1611.9"/>
<text text-anchor="middle" x="179.5" y="-1560.2" font-family="Times,serif" font-size="4.00">pr_659672ed&#45;370d&#45;4ba5&#45;bc84&#45;eb1cda644e11</text>
</g>
<!-- Nucleoporin_gRNA complex &#45;&gt;pr_659672ed&#45;370d&#45;4ba5&#45;bc84&#45;eb1cda644e11 -->
<g id="edge11" class="edge"><title>Nucleoporin_gRNA complex &#45;&gt;pr_659672ed&#45;370d&#45;4ba5&#45;bc84&#45;eb1cda644e11</title>
<path fill="none" stroke="black" d="M164.858,-1648.31C166.261,-1640.08 167.782,-1631.16 169.295,-1622.28"/>
<polygon fill="black" stroke="black" points="172.763,-1622.76 170.993,-1612.32 165.862,-1621.59 172.763,-1622.76"/>
</g>
<!-- pr_12cd0c9a&#45;3358&#45;4429&#45;a920&#45;4926f078bb52&#45;&gt;Nucleoporin_gRNA complex  -->
<g id="edge12" class="edge"><title>pr_12cd0c9a&#45;3358&#45;4429&#45;a920&#45;4926f078bb52&#45;&gt;Nucleoporin_gRNA complex </title>
<path fill="none" stroke="black" d="M151.869,-1761.12C151.7,-1752.59 151.711,-1743.73 151.903,-1735.24"/>
<polygon fill="black" stroke="black" points="155.405,-1735.22 152.226,-1725.12 148.408,-1735 155.405,-1735.22"/>
</g>
<!-- S2 -->
<g id="node8" class="node"><title>S2</title>
<ellipse fill="none" stroke="black" cx="276.5" cy="-1686.62" rx="18" ry="18"/>
<text text-anchor="middle" x="276.5" y="-1685.42" font-family="Times,serif" font-size="4.00">S2</text>
</g>
<!-- pr_39f2e0cb&#45;a5df&#45;408e&#45;96ef&#45;e557142c4f49&#45;&gt;S2 -->
<g id="edge13" class="edge"><title>pr_39f2e0cb&#45;a5df&#45;408e&#45;96ef&#45;e557142c4f49&#45;&gt;S2</title>
<path fill="none" stroke="black" d="M275.892,-1762.18C276.023,-1746.18 276.163,-1728.92 276.276,-1715.04"/>
<polygon fill="black" stroke="black" points="279.779,-1714.75 276.361,-1704.72 272.779,-1714.7 279.779,-1714.75"/>
</g>
<!-- S1 -->
<g id="node11" class="node"><title>S1</title>
<ellipse fill="none" stroke="black" cx="331.5" cy="-1686.62" rx="18" ry="18"/>
<text text-anchor="middle" x="331.5" y="-1685.42" font-family="Times,serif" font-size="4.00">S1</text>
</g>
<!-- pr_39f2e0cb&#45;a5df&#45;408e&#45;96ef&#45;e557142c4f49&#45;&gt;S1 -->
<g id="edge14" class="edge"><title>pr_39f2e0cb&#45;a5df&#45;408e&#45;96ef&#45;e557142c4f49&#45;&gt;S1</title>
<path fill="none" stroke="black" d="M297.472,-1762.18C305.24,-1745.16 313.657,-1726.72 320.177,-1712.43"/>
<polygon fill="black" stroke="black" points="323.388,-1713.82 324.356,-1703.27 317.02,-1710.92 323.388,-1713.82"/>
</g>
<!-- S2&#45;&gt;pr_7f59e172&#45;774d&#45;4c37&#45;8faf&#45;f67b39fef2a4 -->
<g id="edge15" class="edge"><title>S2&#45;&gt;pr_7f59e172&#45;774d&#45;4c37&#45;8faf&#45;f67b39fef2a4</title>
<path fill="none" stroke="black" d="M261.164,-1676.77C247.135,-1668.82 225.704,-1657.02 206.5,-1647.9 168.698,-1629.95 155.093,-1633.91 119.5,-1611.9 119.312,-1611.79 119.124,-1611.67 118.936,-1611.55"/>
<polygon fill="black" stroke="black" points="120.761,-1608.56 110.506,-1605.9 116.863,-1614.38 120.761,-1608.56"/>
</g>
<!-- pr_f0ba46a1&#45;cdf3&#45;41de&#45;b730&#45;cde75460342c -->
<g id="node21" class="node"><title>pr_f0ba46a1&#45;cdf3&#45;41de&#45;b730&#45;cde75460342c</title>
<polygon fill="none" stroke="black" points="347,-1610.9 248,-1610.9 248,-1511.9 347,-1511.9 347,-1610.9"/>
<text text-anchor="middle" x="297.5" y="-1560.2" font-family="Times,serif" font-size="4.00">pr_f0ba46a1&#45;cdf3&#45;41de&#45;b730&#45;cde75460342c</text>
</g>
<!-- S2&#45;&gt;pr_f0ba46a1&#45;cdf3&#45;41de&#45;b730&#45;cde75460342c -->
<g id="edge16" class="edge"><title>S2&#45;&gt;pr_f0ba46a1&#45;cdf3&#45;41de&#45;b730&#45;cde75460342c</title>
<path fill="none" stroke="black" d="M274.575,-1668.48C275.35,-1656.05 277.719,-1638.43 280.749,-1621.12"/>
<polygon fill="black" stroke="black" points="284.243,-1621.47 282.602,-1611.01 277.357,-1620.21 284.243,-1621.47"/>
</g>
<!-- S2&#45;&gt;pr_659672ed&#45;370d&#45;4ba5&#45;bc84&#45;eb1cda644e11 -->
<g id="edge17" class="edge"><title>S2&#45;&gt;pr_659672ed&#45;370d&#45;4ba5&#45;bc84&#45;eb1cda644e11</title>
<path fill="none" stroke="black" d="M265.749,-1671.96C255.734,-1659.24 240.1,-1639.38 224.878,-1620.04"/>
<polygon fill="black" stroke="black" points="227.561,-1617.79 218.625,-1612.1 222.061,-1622.12 227.561,-1617.79"/>
</g>
<!-- CTSB -->
<g id="node9" class="node"><title>CTSB</title>
<ellipse fill="none" stroke="black" cx="327.5" cy="-1929.15" rx="18" ry="18"/>
<text text-anchor="middle" x="327.5" y="-1927.95" font-family="Times,serif" font-size="4.00">CTSB</text>
</g>
<!-- CTSB&#45;&gt;pr_39f2e0cb&#45;a5df&#45;408e&#45;96ef&#45;e557142c4f49 -->
<g id="edge18" class="edge"><title>CTSB&#45;&gt;pr_39f2e0cb&#45;a5df&#45;408e&#45;96ef&#45;e557142c4f49</title>
<path fill="none" stroke="black" d="M320.487,-1912.53C315.458,-1901.33 308.346,-1885.49 301.258,-1869.7"/>
<polygon fill="black" stroke="black" points="304.392,-1868.14 297.103,-1860.45 298.006,-1871 304.392,-1868.14"/>
</g>
<!-- CTSL -->
<g id="node10" class="node"><title>CTSL</title>
<ellipse fill="none" stroke="black" cx="191.5" cy="-1929.15" rx="18" ry="18"/>
<text text-anchor="middle" x="191.5" y="-1927.95" font-family="Times,serif" font-size="4.00">CTSL</text>
</g>
<!-- CTSL&#45;&gt;pr_39f2e0cb&#45;a5df&#45;408e&#45;96ef&#45;e557142c4f49 -->
<g id="edge19" class="edge"><title>CTSL&#45;&gt;pr_39f2e0cb&#45;a5df&#45;408e&#45;96ef&#45;e557142c4f49</title>
<path fill="none" stroke="black" d="M201.8,-1913.95C210.12,-1902.48 222.409,-1885.53 234.577,-1868.76"/>
<polygon fill="black" stroke="black" points="237.485,-1870.71 240.523,-1860.56 231.818,-1866.6 237.485,-1870.71"/>
</g>
<!-- pr_f335f7a2&#45;a547&#45;4222&#45;bb20&#45;8dc92354a32e&#45;&gt;S2 -->
<g id="edge20" class="edge"><title>pr_f335f7a2&#45;a547&#45;4222&#45;bb20&#45;8dc92354a32e&#45;&gt;S2</title>
<path fill="none" stroke="black" d="M342.651,-1764.93C329.796,-1752.5 316.274,-1738.74 304.5,-1725.33 300.363,-1720.62 296.186,-1715.34 292.365,-1710.25"/>
<polygon fill="black" stroke="black" points="295.07,-1708.02 286.343,-1702.01 289.419,-1712.15 295.07,-1708.02"/>
</g>
<!-- pr_f335f7a2&#45;a547&#45;4222&#45;bb20&#45;8dc92354a32e&#45;&gt;S1 -->
<g id="edge21" class="edge"><title>pr_f335f7a2&#45;a547&#45;4222&#45;bb20&#45;8dc92354a32e&#45;&gt;S1</title>
<path fill="none" stroke="black" d="M368.216,-1761.48C359.794,-1744.53 350.711,-1726.26 343.686,-1712.13"/>
<polygon fill="black" stroke="black" points="346.771,-1710.47 339.185,-1703.08 340.502,-1713.59 346.771,-1710.47"/>
</g>
<!-- ACE2 (15 Kda) -->
<g id="node15" class="node"><title>ACE2 (15 Kda)</title>
<ellipse fill="none" stroke="black" cx="392.5" cy="-1686.62" rx="24.2908" ry="24.2908"/>
<text text-anchor="middle" x="392.5" y="-1685.42" font-family="Times,serif" font-size="4.00">ACE2 (15 Kda)</text>
</g>
<!-- pr_f335f7a2&#45;a547&#45;4222&#45;bb20&#45;8dc92354a32e&#45;&gt;ACE2 (15 Kda) -->
<g id="edge22" class="edge"><title>pr_f335f7a2&#45;a547&#45;4222&#45;bb20&#45;8dc92354a32e&#45;&gt;ACE2 (15 Kda)</title>
<path fill="none" stroke="black" d="M392.5,-1761.48C392.5,-1748.04 392.5,-1733.76 392.5,-1721.38"/>
<polygon fill="black" stroke="black" points="396,-1721.05 392.5,-1711.05 389,-1721.05 396,-1721.05"/>
</g>
<!-- ACE2 (100 Kda) -->
<g id="node16" class="node"><title>ACE2 (100 Kda)</title>
<ellipse fill="none" stroke="black" cx="460.5" cy="-1686.62" rx="25.4118" ry="25.4118"/>
<text text-anchor="middle" x="460.5" y="-1685.42" font-family="Times,serif" font-size="4.00">ACE2 (100 Kda)</text>
</g>
<!-- pr_f335f7a2&#45;a547&#45;4222&#45;bb20&#45;8dc92354a32e&#45;&gt;ACE2 (100 Kda) -->
<g id="edge23" class="edge"><title>pr_f335f7a2&#45;a547&#45;4222&#45;bb20&#45;8dc92354a32e&#45;&gt;ACE2 (100 Kda)</title>
<path fill="none" stroke="black" d="M419.571,-1761.48C427.618,-1746.96 436.205,-1731.46 443.426,-1718.43"/>
<polygon fill="black" stroke="black" points="446.629,-1719.87 448.415,-1709.43 440.506,-1716.48 446.629,-1719.87"/>
</g>
<!-- TMPRSS2 -->
<g id="node13" class="node"><title>TMPRSS2</title>
<ellipse fill="none" stroke="black" cx="458.5" cy="-1929.15" rx="18.6233" ry="18.6233"/>
<text text-anchor="middle" x="458.5" y="-1927.95" font-family="Times,serif" font-size="4.00">TMPRSS2</text>
</g>
<!-- TMPRSS2&#45;&gt;pr_f335f7a2&#45;a547&#45;4222&#45;bb20&#45;8dc92354a32e -->
<g id="edge24" class="edge"><title>TMPRSS2&#45;&gt;pr_f335f7a2&#45;a547&#45;4222&#45;bb20&#45;8dc92354a32e</title>
<path fill="none" stroke="black" d="M449.599,-1912.53C443.216,-1901.33 434.188,-1885.49 425.191,-1869.7"/>
<polygon fill="black" stroke="black" points="428.205,-1867.92 420.213,-1860.96 422.123,-1871.38 428.205,-1867.92"/>
</g>
<!-- Camostat mesylate -->
<g id="node14" class="node"><title>Camostat mesylate</title>
<ellipse fill="none" stroke="black" cx="392.5" cy="-1929.15" rx="29.3373" ry="29.3373"/>
<text text-anchor="middle" x="392.5" y="-1927.95" font-family="Times,serif" font-size="4.00">Camostat mesylate</text>
</g>
<!-- Camostat mesylate&#45;&gt;pr_f335f7a2&#45;a547&#45;4222&#45;bb20&#45;8dc92354a32e -->
<g id="edge25" class="edge"><title>Camostat mesylate&#45;&gt;pr_f335f7a2&#45;a547&#45;4222&#45;bb20&#45;8dc92354a32e</title>
<path fill="none" stroke="black" d="M392.5,-1899.82C392.5,-1891.17 392.5,-1881.32 392.5,-1871.42"/>
<polygon fill="black" stroke="black" points="396,-1871.14 392.5,-1861.14 389,-1871.14 396,-1871.14"/>
</g>
<!-- pr_cad693ee&#45;b6c2&#45;4eaa&#45;b593&#45;72e458d27f57&#45;&gt;ACE2_SPIKE complex -->
<g id="edge26" class="edge"><title>pr_cad693ee&#45;b6c2&#45;4eaa&#45;b593&#45;72e458d27f57&#45;&gt;ACE2_SPIKE complex</title>
<path fill="none" stroke="black" d="M292.903,-1996.85C287.901,-1986.86 282.72,-1976.52 277.975,-1967.04"/>
<polygon fill="black" stroke="black" points="281.004,-1965.28 273.397,-1957.9 274.745,-1968.41 281.004,-1965.28"/>
</g>
<!-- Nucleocapsid -->
<g id="node19" class="node"><title>Nucleocapsid</title>
<ellipse fill="none" stroke="black" cx="120.5" cy="-1452.1" rx="22.6101" ry="22.6101"/>
<text text-anchor="middle" x="120.5" y="-1450.9" font-family="Times,serif" font-size="4.00">Nucleocapsid</text>
</g>
<!-- pr_7f59e172&#45;774d&#45;4c37&#45;8faf&#45;f67b39fef2a4&#45;&gt;Nucleocapsid -->
<g id="edge27" class="edge"><title>pr_7f59e172&#45;774d&#45;4c37&#45;8faf&#45;f67b39fef2a4&#45;&gt;Nucleocapsid</title>
<path fill="none" stroke="black" d="M87.9396,-1513.34C93.8445,-1502.41 99.9492,-1491.12 105.255,-1481.3"/>
<polygon fill="black" stroke="black" points="108.388,-1482.87 110.064,-1472.41 102.23,-1479.54 108.388,-1482.87"/>
</g>
<!-- pr_ef6e4529&#45;a5e1&#45;4dee&#45;b901&#45;b8348b9f89dd -->
<g id="node26" class="node"><title>pr_ef6e4529&#45;a5e1&#45;4dee&#45;b901&#45;b8348b9f89dd</title>
<polygon fill="none" stroke="black" points="170,-1393.29 71,-1393.29 71,-1294.29 170,-1294.29 170,-1393.29"/>
<text text-anchor="middle" x="120.5" y="-1342.59" font-family="Times,serif" font-size="4.00">pr_ef6e4529&#45;a5e1&#45;4dee&#45;b901&#45;b8348b9f89dd</text>
</g>
<!-- Nucleocapsid&#45;&gt;pr_ef6e4529&#45;a5e1&#45;4dee&#45;b901&#45;b8348b9f89dd -->
<g id="edge28" class="edge"><title>Nucleocapsid&#45;&gt;pr_ef6e4529&#45;a5e1&#45;4dee&#45;b901&#45;b8348b9f89dd</title>
<path fill="none" stroke="black" d="M120.5,-1429.07C120.5,-1421.56 120.5,-1412.77 120.5,-1403.75"/>
<polygon fill="black" stroke="black" points="124,-1403.53 120.5,-1393.53 117,-1403.53 124,-1403.53"/>
</g>
<!-- LY6E -->
<g id="node20" class="node"><title>LY6E</title>
<ellipse fill="none" stroke="black" cx="62.5" cy="-1686.62" rx="18" ry="18"/>
<text text-anchor="middle" x="62.5" y="-1685.42" font-family="Times,serif" font-size="4.00">LY6E</text>
</g>
<!-- LY6E&#45;&gt;pr_7f59e172&#45;774d&#45;4c37&#45;8faf&#45;f67b39fef2a4 -->
<g id="edge29" class="edge"><title>LY6E&#45;&gt;pr_7f59e172&#45;774d&#45;4c37&#45;8faf&#45;f67b39fef2a4</title>
<path fill="none" stroke="black" d="M62.5,-1668.48C62.5,-1655.77 62.5,-1637.65 62.5,-1619.97"/>
<polygon fill="black" stroke="black" points="66.0001,-1619.65 62.5,-1609.65 59.0001,-1619.65 66.0001,-1619.65"/>
</g>
<!-- pr_f0ba46a1&#45;cdf3&#45;41de&#45;b730&#45;cde75460342c&#45;&gt;S2 -->
<g id="edge30" class="edge"><title>pr_f0ba46a1&#45;cdf3&#45;41de&#45;b730&#45;cde75460342c&#45;&gt;S2</title>
<path fill="none" stroke="black" d="M295.817,-1611.1C293.317,-1627.83 289.898,-1645.89 286.455,-1660.04"/>
<polygon fill="black" stroke="black" points="282.991,-1659.45 283.833,-1670.01 289.761,-1661.23 282.991,-1659.45"/>
</g>
<!-- pr_659672ed&#45;370d&#45;4ba5&#45;bc84&#45;eb1cda644e11&#45;&gt;Nucleocapsid -->
<g id="edge31" class="edge"><title>pr_659672ed&#45;370d&#45;4ba5&#45;bc84&#45;eb1cda644e11&#45;&gt;Nucleocapsid</title>
<path fill="none" stroke="black" d="M152.245,-1510.83C146.688,-1500.73 141.023,-1490.42 136.047,-1481.37"/>
<polygon fill="black" stroke="black" points="139.029,-1479.53 131.144,-1472.46 132.895,-1482.91 139.029,-1479.53"/>
</g>
<!--  SARS&#45;CoV&#45;2 gRNA -->
<g id="node23" class="node"><title> SARS&#45;CoV&#45;2 gRNA</title>
<ellipse fill="none" stroke="black" cx="88.5" cy="-1229.13" rx="29.3373" ry="29.3373"/>
<text text-anchor="middle" x="88.5" y="-1227.93" font-family="Times,serif" font-size="4.00"> SARS&#45;CoV&#45;2 gRNA</text>
</g>
<!-- pr_d25e6f34&#45;55ab&#45;4763&#45;89c3&#45;cdc31722c49a -->
<g id="node24" class="node"><title>pr_d25e6f34&#45;55ab&#45;4763&#45;89c3&#45;cdc31722c49a</title>
<polygon fill="none" stroke="black" points="256.5,-1163.96 156.5,-1163.96 156.5,-1063.96 256.5,-1063.96 256.5,-1163.96"/>
<text text-anchor="middle" x="206.5" y="-1112.76" font-family="Times,serif" font-size="4.00">pr_d25e6f34&#45;55ab&#45;4763&#45;89c3&#45;cdc31722c49a</text>
</g>
<!--  SARS&#45;CoV&#45;2 gRNA&#45;&gt;pr_d25e6f34&#45;55ab&#45;4763&#45;89c3&#45;cdc31722c49a -->
<g id="edge32" class="edge"><title> SARS&#45;CoV&#45;2 gRNA&#45;&gt;pr_d25e6f34&#45;55ab&#45;4763&#45;89c3&#45;cdc31722c49a</title>
<path fill="none" stroke="black" d="M109.054,-1208.41C120.187,-1197.74 134.556,-1183.96 148.821,-1170.27"/>
<polygon fill="black" stroke="black" points="151.459,-1172.59 156.254,-1163.15 146.614,-1167.54 151.459,-1172.59"/>
</g>
<!-- pr_32e7cfe4&#45;4fa1&#45;4fff&#45;ad0c&#45;bd0a114653bd -->
<g id="node28" class="node"><title>pr_32e7cfe4&#45;4fa1&#45;4fff&#45;ad0c&#45;bd0a114653bd</title>
<polygon fill="none" stroke="black" points="97,-427.279 7.10543e-15,-427.279 7.10543e-15,-330.279 97,-330.279 97,-427.279"/>
<text text-anchor="middle" x="48.5" y="-377.579" font-family="Times,serif" font-size="4.00">pr_32e7cfe4&#45;4fa1&#45;4fff&#45;ad0c&#45;bd0a114653bd</text>
</g>
<!--  SARS&#45;CoV&#45;2 gRNA&#45;&gt;pr_32e7cfe4&#45;4fa1&#45;4fff&#45;ad0c&#45;bd0a114653bd -->
<g id="edge33" class="edge"><title> SARS&#45;CoV&#45;2 gRNA&#45;&gt;pr_32e7cfe4&#45;4fa1&#45;4fff&#45;ad0c&#45;bd0a114653bd</title>
<path fill="none" stroke="black" d="M65.8991,-1210.08C52.9534,-1198.39 37.696,-1182.01 29.5,-1163.96 -2.60865,-1093.24 10.5,-1067.91 10.5,-990.243 10.5,-990.243 10.5,-990.243 10.5,-592.888 10.5,-539.655 22.1333,-480.089 32.5265,-437.494"/>
<polygon fill="black" stroke="black" points="35.9729,-438.139 34.9956,-427.589 29.1807,-436.446 35.9729,-438.139"/>
</g>
<!-- pr_e9d7c968&#45;fb5f&#45;451b&#45;876c&#45;80438d44e1d4 -->
<g id="node40" class="node"><title>pr_e9d7c968&#45;fb5f&#45;451b&#45;876c&#45;80438d44e1d4</title>
<polygon fill="none" stroke="black" points="138,-1163.46 39,-1163.46 39,-1064.46 138,-1064.46 138,-1163.46"/>
<text text-anchor="middle" x="88.5" y="-1112.76" font-family="Times,serif" font-size="4.00">pr_e9d7c968&#45;fb5f&#45;451b&#45;876c&#45;80438d44e1d4</text>
</g>
<!--  SARS&#45;CoV&#45;2 gRNA&#45;&gt;pr_e9d7c968&#45;fb5f&#45;451b&#45;876c&#45;80438d44e1d4 -->
<g id="edge34" class="edge"><title> SARS&#45;CoV&#45;2 gRNA&#45;&gt;pr_e9d7c968&#45;fb5f&#45;451b&#45;876c&#45;80438d44e1d4</title>
<path fill="none" stroke="black" d="M88.5,-1199.86C88.5,-1191.87 88.5,-1182.86 88.5,-1173.78"/>
<polygon fill="black" stroke="black" points="92.0001,-1173.54 88.5,-1163.54 85.0001,-1173.54 92.0001,-1173.54"/>
</g>
<!-- SARS&#45;COV&#45;2 polyprotein 1ab -->
<g id="node25" class="node"><title>SARS&#45;COV&#45;2 polyprotein 1ab</title>
<ellipse fill="none" stroke="black" cx="206.5" cy="-989.243" rx="38.9294" ry="38.9294"/>
<text text-anchor="middle" x="206.5" y="-988.043" font-family="Times,serif" font-size="4.00">SARS&#45;COV&#45;2 polyprotein 1ab</text>
</g>
<!-- pr_d25e6f34&#45;55ab&#45;4763&#45;89c3&#45;cdc31722c49a&#45;&gt;SARS&#45;COV&#45;2 polyprotein 1ab -->
<g id="edge35" class="edge"><title>pr_d25e6f34&#45;55ab&#45;4763&#45;89c3&#45;cdc31722c49a&#45;&gt;SARS&#45;COV&#45;2 polyprotein 1ab</title>
<path fill="none" stroke="black" d="M206.5,-1063.75C206.5,-1055.31 206.5,-1046.56 206.5,-1038.15"/>
<polygon fill="black" stroke="black" points="210,-1038.12 206.5,-1028.12 203,-1038.12 210,-1038.12"/>
</g>
<!-- pr_92eda47c&#45;a002&#45;4570&#45;b713&#45;6372b7ad14e2 -->
<g id="node33" class="node"><title>pr_92eda47c&#45;a002&#45;4570&#45;b713&#45;6372b7ad14e2</title>
<polygon fill="none" stroke="black" points="257,-914.529 156,-914.529 156,-813.529 257,-813.529 257,-914.529"/>
<text text-anchor="middle" x="206.5" y="-862.829" font-family="Times,serif" font-size="4.00">pr_92eda47c&#45;a002&#45;4570&#45;b713&#45;6372b7ad14e2</text>
</g>
<!-- SARS&#45;COV&#45;2 polyprotein 1ab&#45;&gt;pr_92eda47c&#45;a002&#45;4570&#45;b713&#45;6372b7ad14e2 -->
<g id="edge36" class="edge"><title>SARS&#45;COV&#45;2 polyprotein 1ab&#45;&gt;pr_92eda47c&#45;a002&#45;4570&#45;b713&#45;6372b7ad14e2</title>
<path fill="none" stroke="black" d="M206.5,-950.269C206.5,-942.239 206.5,-933.578 206.5,-924.961"/>
<polygon fill="black" stroke="black" points="210,-924.905 206.5,-914.905 203,-924.905 210,-924.905"/>
</g>
<!-- pr_ef6e4529&#45;a5e1&#45;4dee&#45;b901&#45;b8348b9f89dd&#45;&gt; SARS&#45;CoV&#45;2 gRNA -->
<g id="edge37" class="edge"><title>pr_ef6e4529&#45;a5e1&#45;4dee&#45;b901&#45;b8348b9f89dd&#45;&gt; SARS&#45;CoV&#45;2 gRNA</title>
<path fill="none" stroke="black" d="M106.65,-1294.03C104.101,-1285.05 101.477,-1275.82 99.0446,-1267.25"/>
<polygon fill="black" stroke="black" points="102.392,-1266.23 96.2926,-1257.56 95.658,-1268.14 102.392,-1266.23"/>
</g>
<!-- N -->
<g id="node27" class="node"><title>N</title>
<ellipse fill="none" stroke="black" cx="153.5" cy="-1229.13" rx="18" ry="18"/>
<text text-anchor="middle" x="153.5" y="-1227.93" font-family="Times,serif" font-size="4.00">N</text>
</g>
<!-- pr_ef6e4529&#45;a5e1&#45;4dee&#45;b901&#45;b8348b9f89dd&#45;&gt;N -->
<g id="edge38" class="edge"><title>pr_ef6e4529&#45;a5e1&#45;4dee&#45;b901&#45;b8348b9f89dd&#45;&gt;N</title>
<path fill="none" stroke="black" d="M134.782,-1294.03C138.597,-1281.01 142.572,-1267.44 145.873,-1256.17"/>
<polygon fill="black" stroke="black" points="149.239,-1257.13 148.691,-1246.54 142.521,-1255.16 149.239,-1257.13"/>
</g>
<!-- SARS&#45;CoV&#45;2 sgmRNAs -->
<g id="node29" class="node"><title>SARS&#45;CoV&#45;2 sgmRNAs</title>
<ellipse fill="none" stroke="black" cx="48.5" cy="-261.399" rx="32.7614" ry="32.7614"/>
<text text-anchor="middle" x="48.5" y="-260.199" font-family="Times,serif" font-size="4.00">SARS&#45;CoV&#45;2 sgmRNAs</text>
</g>
<!-- pr_32e7cfe4&#45;4fa1&#45;4fff&#45;ad0c&#45;bd0a114653bd&#45;&gt;SARS&#45;CoV&#45;2 sgmRNAs -->
<g id="edge39" class="edge"><title>pr_32e7cfe4&#45;4fa1&#45;4fff&#45;ad0c&#45;bd0a114653bd&#45;&gt;SARS&#45;CoV&#45;2 sgmRNAs</title>
<path fill="none" stroke="black" d="M48.5,-330.183C48.5,-321.716 48.5,-312.949 48.5,-304.643"/>
<polygon fill="black" stroke="black" points="52.0001,-304.426 48.5,-294.426 45.0001,-304.426 52.0001,-304.426"/>
</g>
<!-- pr_2f7f49fc&#45;f205&#45;4211&#45;b637&#45;ebd72f4bf50f -->
<g id="node31" class="node"><title>pr_2f7f49fc&#45;f205&#45;4211&#45;b637&#45;ebd72f4bf50f</title>
<polygon fill="none" stroke="black" points="96,-192.518 1,-192.518 1,-97.5183 96,-97.5183 96,-192.518"/>
<text text-anchor="middle" x="48.5" y="-143.818" font-family="Times,serif" font-size="4.00">pr_2f7f49fc&#45;f205&#45;4211&#45;b637&#45;ebd72f4bf50f</text>
</g>
<!-- SARS&#45;CoV&#45;2 sgmRNAs&#45;&gt;pr_2f7f49fc&#45;f205&#45;4211&#45;b637&#45;ebd72f4bf50f -->
<g id="edge40" class="edge"><title>SARS&#45;CoV&#45;2 sgmRNAs&#45;&gt;pr_2f7f49fc&#45;f205&#45;4211&#45;b637&#45;ebd72f4bf50f</title>
<path fill="none" stroke="black" d="M48.5,-228.233C48.5,-220.349 48.5,-211.675 48.5,-203.008"/>
<polygon fill="black" stroke="black" points="52.0001,-202.883 48.5,-192.883 45.0001,-202.883 52.0001,-202.883"/>
</g>
<!-- RTC complex -->
<g id="node30" class="node"><title>RTC complex</title>
<ellipse fill="none" stroke="black" cx="87.5" cy="-486.083" rx="22.6101" ry="22.6101"/>
<text text-anchor="middle" x="87.5" y="-484.883" font-family="Times,serif" font-size="4.00">RTC complex</text>
</g>
<!-- RTC complex&#45;&gt;pr_32e7cfe4&#45;4fa1&#45;4fff&#45;ad0c&#45;bd0a114653bd -->
<g id="edge41" class="edge"><title>RTC complex&#45;&gt;pr_32e7cfe4&#45;4fa1&#45;4fff&#45;ad0c&#45;bd0a114653bd</title>
<path fill="none" stroke="black" d="M79.8878,-464.53C76.8976,-456.456 73.3044,-446.754 69.6334,-436.842"/>
<polygon fill="black" stroke="black" points="72.8624,-435.482 66.1071,-427.32 66.2981,-437.913 72.8624,-435.482"/>
</g>
<!-- SARS&#45;CoV&#45;2 proteins -->
<g id="node32" class="node"><title>SARS&#45;CoV&#45;2 proteins</title>
<ellipse fill="none" stroke="black" cx="48.5" cy="-30.7591" rx="30.5202" ry="30.5202"/>
<text text-anchor="middle" x="48.5" y="-29.5591" font-family="Times,serif" font-size="4.00">SARS&#45;CoV&#45;2 proteins</text>
</g>
<!-- pr_2f7f49fc&#45;f205&#45;4211&#45;b637&#45;ebd72f4bf50f&#45;&gt;SARS&#45;CoV&#45;2 proteins -->
<g id="edge42" class="edge"><title>pr_2f7f49fc&#45;f205&#45;4211&#45;b637&#45;ebd72f4bf50f&#45;&gt;SARS&#45;CoV&#45;2 proteins</title>
<path fill="none" stroke="black" d="M48.5,-97.3856C48.5,-88.9143 48.5,-80.1457 48.5,-71.8823"/>
<polygon fill="black" stroke="black" points="52.0001,-71.7457 48.5,-61.7457 45.0001,-71.7458 52.0001,-71.7457"/>
</g>
<!-- SARS&#45;CoV&#45;2 pp&#45;1ab products -->
<g id="node34" class="node"><title>SARS&#45;CoV&#45;2 pp&#45;1ab products</title>
<ellipse fill="none" stroke="black" cx="247.5" cy="-728.208" rx="38.9294" ry="38.9294"/>
<text text-anchor="middle" x="247.5" y="-727.008" font-family="Times,serif" font-size="4.00">SARS&#45;CoV&#45;2 pp&#45;1ab products</text>
</g>
<!-- pr_92eda47c&#45;a002&#45;4570&#45;b713&#45;6372b7ad14e2&#45;&gt;SARS&#45;CoV&#45;2 pp&#45;1ab products -->
<g id="edge43" class="edge"><title>pr_92eda47c&#45;a002&#45;4570&#45;b713&#45;6372b7ad14e2&#45;&gt;SARS&#45;CoV&#45;2 pp&#45;1ab products</title>
<path fill="none" stroke="black" d="M221.767,-813.199C225.538,-800.891 229.562,-787.757 233.281,-775.62"/>
<polygon fill="black" stroke="black" points="236.737,-776.285 236.32,-765.698 230.044,-774.234 236.737,-776.285"/>
</g>
<!-- SARS&#45;CoV&#45;2 pp&#45;1a and pp&#45;1ab products -->
<g id="node35" class="node"><title>SARS&#45;CoV&#45;2 pp&#45;1a and pp&#45;1ab products</title>
<ellipse fill="none" stroke="black" cx="141.5" cy="-728.208" rx="49.142" ry="49.142"/>
<text text-anchor="middle" x="141.5" y="-727.008" font-family="Times,serif" font-size="4.00">SARS&#45;CoV&#45;2 pp&#45;1a and pp&#45;1ab products</text>
</g>
<!-- pr_92eda47c&#45;a002&#45;4570&#45;b713&#45;6372b7ad14e2&#45;&gt;SARS&#45;CoV&#45;2 pp&#45;1a and pp&#45;1ab products -->
<g id="edge44" class="edge"><title>pr_92eda47c&#45;a002&#45;4570&#45;b713&#45;6372b7ad14e2&#45;&gt;SARS&#45;CoV&#45;2 pp&#45;1a and pp&#45;1ab products</title>
<path fill="none" stroke="black" d="M182.296,-813.199C177.377,-803.072 172.187,-792.385 167.217,-782.155"/>
<polygon fill="black" stroke="black" points="170.247,-780.382 162.73,-772.916 163.951,-783.441 170.247,-780.382"/>
</g>
<!-- pr_f5f93e76&#45;cca1&#45;4648&#45;9ed5&#45;bfda08a95358 -->
<g id="node36" class="node"><title>pr_f5f93e76&#45;cca1&#45;4648&#45;9ed5&#45;bfda08a95358</title>
<polygon fill="none" stroke="black" points="163.5,-642.888 65.5,-642.888 65.5,-544.888 163.5,-544.888 163.5,-642.888"/>
<text text-anchor="middle" x="114.5" y="-592.688" font-family="Times,serif" font-size="4.00">pr_f5f93e76&#45;cca1&#45;4648&#45;9ed5&#45;bfda08a95358</text>
</g>
<!-- SARS&#45;CoV&#45;2 pp&#45;1ab products&#45;&gt;pr_f5f93e76&#45;cca1&#45;4648&#45;9ed5&#45;bfda08a95358 -->
<g id="edge45" class="edge"><title>SARS&#45;CoV&#45;2 pp&#45;1ab products&#45;&gt;pr_f5f93e76&#45;cca1&#45;4648&#45;9ed5&#45;bfda08a95358</title>
<path fill="none" stroke="black" d="M220.634,-700.075C213.757,-693.153 206.365,-685.735 199.5,-678.888 190.253,-669.664 180.413,-659.897 170.832,-650.412"/>
<polygon fill="black" stroke="black" points="173.14,-647.772 163.57,-643.227 168.217,-652.748 173.14,-647.772"/>
</g>
<!-- SARS&#45;CoV&#45;2 pp&#45;1a and pp&#45;1ab products&#45;&gt;pr_f5f93e76&#45;cca1&#45;4648&#45;9ed5&#45;bfda08a95358 -->
<g id="edge46" class="edge"><title>SARS&#45;CoV&#45;2 pp&#45;1a and pp&#45;1ab products&#45;&gt;pr_f5f93e76&#45;cca1&#45;4648&#45;9ed5&#45;bfda08a95358</title>
<path fill="none" stroke="black" d="M131.829,-679.811C130.07,-671.191 128.216,-662.107 126.401,-653.214"/>
<polygon fill="black" stroke="black" points="129.805,-652.389 124.377,-643.29 122.947,-653.788 129.805,-652.389"/>
</g>
<!-- pr_f5f93e76&#45;cca1&#45;4648&#45;9ed5&#45;bfda08a95358&#45;&gt;RTC complex -->
<g id="edge47" class="edge"><title>pr_f5f93e76&#45;cca1&#45;4648&#45;9ed5&#45;bfda08a95358&#45;&gt;RTC complex</title>
<path fill="none" stroke="black" d="M102.185,-544.63C99.8968,-535.663 97.5627,-526.516 95.4486,-518.231"/>
<polygon fill="black" stroke="black" points="98.7724,-517.101 92.9083,-508.277 91.9897,-518.832 98.7724,-517.101"/>
</g>
<!-- NSP11 -->
<g id="node37" class="node"><title>NSP11</title>
<ellipse fill="none" stroke="black" cx="56.5" cy="-728.208" rx="18" ry="18"/>
<text text-anchor="middle" x="56.5" y="-727.008" font-family="Times,serif" font-size="4.00">NSP11</text>
</g>
<!-- NSP11&#45;&gt;pr_f5f93e76&#45;cca1&#45;4648&#45;9ed5&#45;bfda08a95358 -->
<g id="edge48" class="edge"><title>NSP11&#45;&gt;pr_f5f93e76&#45;cca1&#45;4648&#45;9ed5&#45;bfda08a95358</title>
<path fill="none" stroke="black" d="M63.3811,-711.51C69.8401,-696.774 79.9033,-673.816 89.3985,-652.154"/>
<polygon fill="black" stroke="black" points="92.6119,-653.541 93.421,-642.977 86.2008,-650.731 92.6119,-653.541"/>
</g>
<!-- SARS&#45;COV&#45;2 polyprotein 1a -->
<g id="node38" class="node"><title>SARS&#45;COV&#45;2 polyprotein 1a</title>
<ellipse fill="none" stroke="black" cx="88.5" cy="-989.243" rx="37.8075" ry="37.8075"/>
<text text-anchor="middle" x="88.5" y="-988.043" font-family="Times,serif" font-size="4.00">SARS&#45;COV&#45;2 polyprotein 1a</text>
</g>
<!-- pr_fd46357c&#45;81ec&#45;40af&#45;975c&#45;7302e9c6e664 -->
<g id="node39" class="node"><title>pr_fd46357c&#45;81ec&#45;40af&#45;975c&#45;7302e9c6e664</title>
<polygon fill="none" stroke="black" points="138,-913.529 39,-913.529 39,-814.529 138,-814.529 138,-913.529"/>
<text text-anchor="middle" x="88.5" y="-862.829" font-family="Times,serif" font-size="4.00">pr_fd46357c&#45;81ec&#45;40af&#45;975c&#45;7302e9c6e664</text>
</g>
<!-- SARS&#45;COV&#45;2 polyprotein 1a&#45;&gt;pr_fd46357c&#45;81ec&#45;40af&#45;975c&#45;7302e9c6e664 -->
<g id="edge49" class="edge"><title>SARS&#45;COV&#45;2 polyprotein 1a&#45;&gt;pr_fd46357c&#45;81ec&#45;40af&#45;975c&#45;7302e9c6e664</title>
<path fill="none" stroke="black" d="M88.5,-951.275C88.5,-942.633 88.5,-933.218 88.5,-923.886"/>
<polygon fill="black" stroke="black" points="92.0001,-923.834 88.5,-913.834 85.0001,-923.834 92.0001,-923.834"/>
</g>
<!-- pr_fd46357c&#45;81ec&#45;40af&#45;975c&#45;7302e9c6e664&#45;&gt;SARS&#45;CoV&#45;2 pp&#45;1a and pp&#45;1ab products -->
<g id="edge51" class="edge"><title>pr_fd46357c&#45;81ec&#45;40af&#45;975c&#45;7302e9c6e664&#45;&gt;SARS&#45;CoV&#45;2 pp&#45;1a and pp&#45;1ab products</title>
<path fill="none" stroke="black" d="M107.784,-814.338C111.687,-804.484 115.816,-794.059 119.795,-784.011"/>
<polygon fill="black" stroke="black" points="123.124,-785.11 123.553,-774.524 116.616,-782.533 123.124,-785.11"/>
</g>
<!-- pr_fd46357c&#45;81ec&#45;40af&#45;975c&#45;7302e9c6e664&#45;&gt;NSP11 -->
<g id="edge50" class="edge"><title>pr_fd46357c&#45;81ec&#45;40af&#45;975c&#45;7302e9c6e664&#45;&gt;NSP11</title>
<path fill="none" stroke="black" d="M76.8567,-814.338C72.1658,-794.721 66.934,-772.842 62.949,-756.177"/>
<polygon fill="black" stroke="black" points="66.2583,-754.967 60.5285,-746.055 59.4502,-756.595 66.2583,-754.967"/>
</g>
<!-- pr_e9d7c968&#45;fb5f&#45;451b&#45;876c&#45;80438d44e1d4&#45;&gt;SARS&#45;COV&#45;2 polyprotein 1a -->
<g id="edge52" class="edge"><title>pr_e9d7c968&#45;fb5f&#45;451b&#45;876c&#45;80438d44e1d4&#45;&gt;SARS&#45;COV&#45;2 polyprotein 1a</title>
<path fill="none" stroke="black" d="M88.5,-1064.1C88.5,-1055.27 88.5,-1046.06 88.5,-1037.28"/>
<polygon fill="black" stroke="black" points="92.0001,-1037.2 88.5,-1027.2 85.0001,-1037.2 92.0001,-1037.2"/>
</g>
</g>
</svg>
