<?xml version="1.0" encoding="UTF-8" standalone="no"?>
<!DOCTYPE svg PUBLIC "-//W3C//DTD SVG 1.1//EN"
 "http://www.w3.org/Graphics/SVG/1.1/DTD/svg11.dtd">
<!-- Generated by graphviz version 2.38.0 (20140413.2041)
 -->
<!-- Title: G Pages: 1 -->
<svg width="1802pt" height="1762pt"
 viewBox="0.00 0.00 1802.00 1762.21" xmlns="http://www.w3.org/2000/svg" xmlns:xlink="http://www.w3.org/1999/xlink">
<g id="graph0" class="graph" transform="scale(1 1) rotate(0) translate(4 1758.21)">
<title>G</title>
<polygon fill="white" stroke="none" points="-4,4 -4,-1758.21 1798,-1758.21 1798,4 -4,4"/>
<!-- Type I interferon signaling pathway -->
<g id="node1" class="node"><title>Type I interferon signaling pathway</title>
<ellipse fill="none" stroke="black" cx="1375" cy="-1708.6" rx="45.717" ry="45.717"/>
<text text-anchor="middle" x="1375" y="-1707.4" font-family="Times,serif" font-size="4.00">Type I interferon signaling pathway</text>
</g>
<!-- LY6E -->
<g id="node2" class="node"><title>LY6E</title>
<ellipse fill="none" stroke="black" cx="1375" cy="-1608.99" rx="18" ry="18"/>
<text text-anchor="middle" x="1375" y="-1607.79" font-family="Times,serif" font-size="4.00">LY6E</text>
</g>
<!-- Type I interferon signaling pathway&#45;&gt;LY6E -->
<g id="edge1" class="edge"><title>Type I interferon signaling pathway&#45;&gt;LY6E</title>
<path fill="none" stroke="black" d="M1375,-1662.79C1375,-1654.11 1375,-1645.26 1375,-1637.34"/>
<polygon fill="black" stroke="black" points="1378.5,-1637.24 1375,-1627.24 1371.5,-1637.24 1378.5,-1637.24"/>
</g>
<!-- M -->
<g id="node8" class="node"><title>M</title>
<ellipse fill="none" stroke="black" cx="1597" cy="-1536.99" rx="18" ry="18"/>
<text text-anchor="middle" x="1597" y="-1535.79" font-family="Times,serif" font-size="4.00">M</text>
</g>
<!-- LY6E&#45;&gt;M -->
<g id="edge5" class="edge"><title>LY6E&#45;&gt;M</title>
<path fill="none" stroke="black" d="M1392.05,-1602.61C1430.47,-1590.5 1524.04,-1561 1570.26,-1546.42"/>
<polygon fill="black" stroke="black" points="1571.41,-1549.73 1579.89,-1543.38 1569.3,-1543.05 1571.41,-1549.73"/>
</g>
<!-- Nucleocapsid -->
<g id="node25" class="node"><title>Nucleocapsid</title>
<ellipse fill="none" stroke="black" cx="1059" cy="-1460.19" rx="22.6101" ry="22.6101"/>
<text text-anchor="middle" x="1059" y="-1458.99" font-family="Times,serif" font-size="4.00">Nucleocapsid</text>
</g>
<!-- LY6E&#45;&gt;Nucleocapsid -->
<g id="edge3" class="edge"><title>LY6E&#45;&gt;Nucleocapsid</title>
<path fill="none" stroke="black" d="M1356.79,-1607.68C1315.33,-1606.2 1211.92,-1598.11 1140,-1554.99 1112.87,-1538.72 1090.19,-1510.21 1075.8,-1488.87"/>
<polygon fill="black" stroke="black" points="1078.54,-1486.68 1070.14,-1480.23 1072.69,-1490.51 1078.54,-1486.68"/>
</g>
<!-- Orf7a -->
<g id="node28" class="node"><title>Orf7a</title>
<ellipse fill="none" stroke="black" cx="1249" cy="-18" rx="18" ry="18"/>
<text text-anchor="middle" x="1249" y="-16.8" font-family="Times,serif" font-size="4.00">Orf7a</text>
</g>
<!-- LY6E&#45;&gt;Orf7a -->
<g id="edge2" class="edge"><title>LY6E&#45;&gt;Orf7a</title>
<path fill="none" stroke="black" d="M1392.74,-1605.76C1472.49,-1595.27 1794,-1547.61 1794,-1461.19 1794,-1461.19 1794,-1461.19 1794,-229.506 1794,-153.547 1736.93,-125.247 1608,-72 1492.09,-24.1317 1339.39,-18.6602 1277.19,-18.5949"/>
<polygon fill="black" stroke="black" points="1276.98,-15.0955 1266.99,-18.6335 1277,-22.0955 1276.98,-15.0955"/>
</g>
<!-- E -->
<g id="node32" class="node"><title>E</title>
<ellipse fill="none" stroke="black" cx="1249" cy="-113.896" rx="18" ry="18"/>
<text text-anchor="middle" x="1249" y="-112.696" font-family="Times,serif" font-size="4.00">E</text>
</g>
<!-- LY6E&#45;&gt;E -->
<g id="edge4" class="edge"><title>LY6E&#45;&gt;E</title>
<path fill="none" stroke="black" d="M1357.29,-1605.05C1304.85,-1595.26 1154,-1558.61 1154,-1461.19 1154,-1461.19 1154,-1461.19 1154,-341.874 1154,-261.394 1205.45,-176.441 1232.62,-137.185"/>
<polygon fill="black" stroke="black" points="1235.74,-138.838 1238.65,-128.651 1230.02,-134.799 1235.74,-138.838"/>
</g>
<!-- SARS&#45;CoV&#45;2 polyproteins (Nsp5&#45;16) -->
<g id="node3" class="node"><title>SARS&#45;CoV&#45;2 polyproteins (Nsp5&#45;16)</title>
<ellipse fill="none" stroke="black" cx="453" cy="-589.352" rx="45.717" ry="45.717"/>
<text text-anchor="middle" x="453" y="-588.152" font-family="Times,serif" font-size="4.00">SARS&#45;CoV&#45;2 polyproteins (Nsp5&#45;16)</text>
</g>
<!-- SARS&#45;CoV&#45;2 polyproteins (Nsp6&#45;16) -->
<g id="node4" class="node"><title>SARS&#45;CoV&#45;2 polyproteins (Nsp6&#45;16)</title>
<ellipse fill="none" stroke="black" cx="417" cy="-462.136" rx="45.717" ry="45.717"/>
<text text-anchor="middle" x="417" y="-460.936" font-family="Times,serif" font-size="4.00">SARS&#45;CoV&#45;2 polyproteins (Nsp6&#45;16)</text>
</g>
<!-- SARS&#45;CoV&#45;2 polyproteins (Nsp5&#45;16)&#45;&gt;SARS&#45;CoV&#45;2 polyproteins (Nsp6&#45;16) -->
<g id="edge7" class="edge"><title>SARS&#45;CoV&#45;2 polyproteins (Nsp5&#45;16)&#45;&gt;SARS&#45;CoV&#45;2 polyproteins (Nsp6&#45;16)</title>
<path fill="none" stroke="black" d="M440.611,-545.26C437.896,-535.816 434.991,-525.713 432.181,-515.938"/>
<polygon fill="black" stroke="black" points="435.539,-514.951 429.412,-506.308 428.811,-516.885 435.539,-514.951"/>
</g>
<!-- Nsp5 -->
<g id="node29" class="node"><title>Nsp5</title>
<ellipse fill="none" stroke="black" cx="299" cy="-462.136" rx="18" ry="18"/>
<text text-anchor="middle" x="299" y="-460.936" font-family="Times,serif" font-size="4.00">Nsp5</text>
</g>
<!-- SARS&#45;CoV&#45;2 polyproteins (Nsp5&#45;16)&#45;&gt;Nsp5 -->
<g id="edge6" class="edge"><title>SARS&#45;CoV&#45;2 polyproteins (Nsp5&#45;16)&#45;&gt;Nsp5</title>
<path fill="none" stroke="black" d="M418.055,-559.939C388.076,-535.563 345.83,-501.213 320.554,-480.661"/>
<polygon fill="black" stroke="black" points="322.642,-477.848 312.675,-474.255 318.226,-483.279 322.642,-477.848"/>
</g>
<!-- SARS&#45;CoV&#45;2 &#160;Nsp5 products -->
<g id="node19" class="node"><title>SARS&#45;CoV&#45;2 &#160;Nsp5 products</title>
<ellipse fill="none" stroke="black" cx="299" cy="-342.874" rx="37.8075" ry="37.8075"/>
<text text-anchor="middle" x="299" y="-341.674" font-family="Times,serif" font-size="4.00">SARS&#45;CoV&#45;2 &#160;Nsp5 products</text>
</g>
<!-- SARS&#45;CoV&#45;2 polyproteins (Nsp6&#45;16)&#45;&gt;SARS&#45;CoV&#45;2 &#160;Nsp5 products -->
<g id="edge8" class="edge"><title>SARS&#45;CoV&#45;2 polyproteins (Nsp6&#45;16)&#45;&gt;SARS&#45;CoV&#45;2 &#160;Nsp5 products</title>
<path fill="none" stroke="black" d="M385.068,-429.403C368.85,-413.286 349.148,-393.708 332.689,-377.352"/>
<polygon fill="black" stroke="black" points="334.94,-374.654 325.379,-370.088 330.005,-379.62 334.94,-374.654"/>
</g>
<!-- SARS&#45;CoV&#45;2 structural protein coding (+)sgmRNAs -->
<g id="node5" class="node"><title>SARS&#45;CoV&#45;2 structural protein coding (+)sgmRNAs</title>
<ellipse fill="none" stroke="black" cx="912" cy="-733.54" rx="62.0973" ry="62.0973"/>
<text text-anchor="middle" x="912" y="-732.34" font-family="Times,serif" font-size="4.00">SARS&#45;CoV&#45;2 structural protein coding (+)sgmRNAs</text>
</g>
<!-- SARS&#45;CoV&#45;2 structural proteins -->
<g id="node15" class="node"><title>SARS&#45;CoV&#45;2 structural proteins</title>
<ellipse fill="none" stroke="black" cx="1231" cy="-589.352" rx="41.2319" ry="41.2319"/>
<text text-anchor="middle" x="1231" y="-588.152" font-family="Times,serif" font-size="4.00">SARS&#45;CoV&#45;2 structural proteins</text>
</g>
<!-- SARS&#45;CoV&#45;2 structural protein coding (+)sgmRNAs&#45;&gt;SARS&#45;CoV&#45;2 structural proteins -->
<g id="edge9" class="edge"><title>SARS&#45;CoV&#45;2 structural protein coding (+)sgmRNAs&#45;&gt;SARS&#45;CoV&#45;2 structural proteins</title>
<path fill="none" stroke="black" d="M968.296,-707.447C1029.63,-680.108 1126.65,-636.866 1184.04,-611.285"/>
<polygon fill="black" stroke="black" points="1185.53,-614.451 1193.24,-607.183 1182.68,-608.057 1185.53,-614.451"/>
</g>
<!-- CTSL -->
<g id="node6" class="node"><title>CTSL</title>
<ellipse fill="none" stroke="black" cx="1506" cy="-342.874" rx="18" ry="18"/>
<text text-anchor="middle" x="1506" y="-341.674" font-family="Times,serif" font-size="4.00">CTSL</text>
</g>
<!-- S2 -->
<g id="node14" class="node"><title>S2</title>
<ellipse fill="none" stroke="black" cx="1466" cy="-230.506" rx="18" ry="18"/>
<text text-anchor="middle" x="1466" y="-229.306" font-family="Times,serif" font-size="4.00">S2</text>
</g>
<!-- CTSL&#45;&gt;S2 -->
<g id="edge10" class="edge"><title>CTSL&#45;&gt;S2</title>
<path fill="none" stroke="black" d="M1500.1,-325.589C1493.6,-307.656 1483.06,-278.574 1475.42,-257.485"/>
<polygon fill="black" stroke="black" points="1478.62,-256.067 1471.93,-247.858 1472.04,-258.452 1478.62,-256.067"/>
</g>
<!-- S1 -->
<g id="node18" class="node"><title>S1</title>
<ellipse fill="none" stroke="black" cx="1412" cy="-230.506" rx="18" ry="18"/>
<text text-anchor="middle" x="1412" y="-229.306" font-family="Times,serif" font-size="4.00">S1</text>
</g>
<!-- CTSL&#45;&gt;S1 -->
<g id="edge11" class="edge"><title>CTSL&#45;&gt;S1</title>
<path fill="none" stroke="black" d="M1496.38,-327.427C1491.49,-320.457 1485.26,-312.13 1479,-305.22 1462.94,-287.501 1454.94,-287.049 1439,-269.22 1434.87,-264.606 1430.79,-259.362 1427.1,-254.283"/>
<polygon fill="black" stroke="black" points="1429.92,-252.208 1421.31,-246.03 1424.19,-256.227 1429.92,-252.208"/>
</g>
<!-- ACE2 (15 Kda) -->
<g id="node7" class="node"><title>ACE2 (15 Kda)</title>
<ellipse fill="none" stroke="black" cx="1283" cy="-230.506" rx="24.2908" ry="24.2908"/>
<text text-anchor="middle" x="1283" y="-229.306" font-family="Times,serif" font-size="4.00">ACE2 (15 Kda)</text>
</g>
<!-- M&#45;&gt;Nucleocapsid -->
<g id="edge13" class="edge"><title>M&#45;&gt;Nucleocapsid</title>
<path fill="none" stroke="black" d="M1578.98,-1534.07C1520.79,-1527.8 1332.7,-1506.93 1178,-1482.99 1148.53,-1478.43 1115.14,-1472.22 1091.25,-1467.59"/>
<polygon fill="black" stroke="black" points="1091.79,-1464.13 1081.31,-1465.65 1090.45,-1471 1091.79,-1464.13"/>
</g>
<!-- M&#45;&gt;Orf7a -->
<g id="edge12" class="edge"><title>M&#45;&gt;Orf7a</title>
<path fill="none" stroke="black" d="M1612.33,-1527.17C1649.17,-1507.78 1738,-1457.32 1738,-1384.38 1738,-1384.38 1738,-1384.38 1738,-229.506 1738,-127.631 1379.95,-47.1721 1276.54,-25.0563"/>
<polygon fill="black" stroke="black" points="1277.05,-21.5874 1266.54,-22.9292 1275.59,-28.4341 1277.05,-21.5874"/>
</g>
<!-- M&#45;&gt;E -->
<g id="edge14" class="edge"><title>M&#45;&gt;E</title>
<path fill="none" stroke="black" d="M1591.51,-1519.61C1588,-1491.81 1588,-1433.6 1588,-1384.38 1588,-1384.38 1588,-1384.38 1588,-1271.64 1588,-1098.95 1682,-1067.32 1682,-894.637 1682,-894.637 1682,-894.637 1682,-341.874 1682,-157.27 1373.13,-122.69 1277.04,-116.313"/>
<polygon fill="black" stroke="black" points="1277.11,-112.81 1266.91,-115.694 1276.68,-119.797 1277.11,-112.81"/>
</g>
<!-- ACE2 -->
<g id="node9" class="node"><title>ACE2</title>
<ellipse fill="none" stroke="black" cx="1292" cy="-462.136" rx="18" ry="18"/>
<text text-anchor="middle" x="1292" y="-460.936" font-family="Times,serif" font-size="4.00">ACE2</text>
</g>
<!-- ACE2_SPIKE complex -->
<g id="node31" class="node"><title>ACE2_SPIKE complex</title>
<ellipse fill="none" stroke="black" cx="1252" cy="-342.874" rx="31.6406" ry="31.6406"/>
<text text-anchor="middle" x="1252" y="-341.674" font-family="Times,serif" font-size="4.00">ACE2_SPIKE complex</text>
</g>
<!-- ACE2&#45;&gt;ACE2_SPIKE complex -->
<g id="edge15" class="edge"><title>ACE2&#45;&gt;ACE2_SPIKE complex</title>
<path fill="none" stroke="black" d="M1286.44,-444.831C1280.99,-428.859 1272.48,-403.914 1265.28,-382.816"/>
<polygon fill="black" stroke="black" points="1268.52,-381.468 1261.98,-373.133 1261.9,-383.728 1268.52,-381.468"/>
</g>
<!--  SARS&#45;CoV&#45;2 (&#45;)gRNA -->
<g id="node10" class="node"><title> SARS&#45;CoV&#45;2 (&#45;)gRNA</title>
<ellipse fill="none" stroke="black" cx="763" cy="-893.637" rx="31.0804" ry="31.0804"/>
<text text-anchor="middle" x="763" y="-892.437" font-family="Times,serif" font-size="4.00"> SARS&#45;CoV&#45;2 (&#45;)gRNA</text>
</g>
<!--  SARS&#45;CoV&#45;2 (+)gRNA -->
<g id="node38" class="node"><title> SARS&#45;CoV&#45;2 (+)gRNA</title>
<ellipse fill="none" stroke="black" cx="673" cy="-1023.51" rx="32.201" ry="32.201"/>
<text text-anchor="middle" x="673" y="-1022.31" font-family="Times,serif" font-size="4.00"> SARS&#45;CoV&#45;2 (+)gRNA</text>
</g>
<!--  SARS&#45;CoV&#45;2 (&#45;)gRNA&#45;&gt; SARS&#45;CoV&#45;2 (+)gRNA -->
<g id="edge16" class="edge"><title> SARS&#45;CoV&#45;2 (&#45;)gRNA&#45;&gt; SARS&#45;CoV&#45;2 (+)gRNA</title>
<path fill="none" stroke="black" d="M749.352,-922.064C736.419,-942.391 716.98,-970.122 700.859,-991.296"/>
<polygon fill="black" stroke="black" points="697.982,-989.296 694.638,-999.349 703.522,-993.575 697.982,-989.296"/>
</g>
<!-- Nucleoporin_gRNA complex  -->
<g id="node11" class="node"><title>Nucleoporin_gRNA complex </title>
<ellipse fill="none" stroke="black" cx="1049" cy="-230.506" rx="38.9294" ry="38.9294"/>
<text text-anchor="middle" x="1049" y="-229.306" font-family="Times,serif" font-size="4.00">Nucleoporin_gRNA complex </text>
</g>
<!-- Nucleoporin_gRNA complex &#45;&gt;M -->
<g id="edge20" class="edge"><title>Nucleoporin_gRNA complex &#45;&gt;M</title>
<path fill="none" stroke="black" d="M1060.37,-267.559C1079.48,-331.49 1116,-469.216 1116,-588.352 1116,-734.54 1116,-734.54 1116,-734.54 1116,-915.643 1192,-953.769 1192,-1134.87 1192,-1384.38 1192,-1384.38 1192,-1384.38 1192,-1465.18 1478.27,-1517.28 1569.45,-1531.83"/>
<polygon fill="black" stroke="black" points="1568.92,-1535.28 1579.34,-1533.38 1570,-1528.37 1568.92,-1535.28"/>
</g>
<!-- Nucleoporin_gRNA complex &#45;&gt;Nucleocapsid -->
<g id="edge18" class="edge"><title>Nucleoporin_gRNA complex &#45;&gt;Nucleocapsid</title>
<path fill="none" stroke="black" d="M1046.61,-269.278C1043.95,-314.769 1040,-393.511 1040,-461.136 1040,-1273.64 1040,-1273.64 1040,-1273.64 1040,-1327.87 1048.13,-1390.55 1053.75,-1427.42"/>
<polygon fill="black" stroke="black" points="1050.34,-1428.21 1055.34,-1437.55 1057.25,-1427.13 1050.34,-1428.21"/>
</g>
<!-- Nucleoporin_gRNA complex &#45;&gt;Orf7a -->
<g id="edge17" class="edge"><title>Nucleoporin_gRNA complex &#45;&gt;Orf7a</title>
<path fill="none" stroke="black" d="M1075.56,-201.553C1116.43,-158.535 1193.78,-77.1225 1229.73,-39.282"/>
<polygon fill="black" stroke="black" points="1232.4,-41.5585 1236.75,-31.8981 1227.32,-36.737 1232.4,-41.5585"/>
</g>
<!-- Nucleoporin_gRNA complex &#45;&gt;E -->
<g id="edge19" class="edge"><title>Nucleoporin_gRNA complex &#45;&gt;E</title>
<path fill="none" stroke="black" d="M1079.63,-206.644C1086.84,-201.562 1094.59,-196.339 1102,-191.792 1113.37,-184.816 1185.3,-147.652 1224.16,-127.656"/>
<polygon fill="black" stroke="black" points="1225.98,-130.657 1233.27,-122.971 1222.77,-124.432 1225.98,-130.657"/>
</g>
<!-- SARS&#45;CoV&#45;2 accessory proteins -->
<g id="node12" class="node"><title>SARS&#45;CoV&#45;2 accessory proteins</title>
<ellipse fill="none" stroke="black" cx="606" cy="-113.896" rx="41.7924" ry="41.7924"/>
<text text-anchor="middle" x="606" y="-112.696" font-family="Times,serif" font-size="4.00">SARS&#45;CoV&#45;2 accessory proteins</text>
</g>
<!-- SARS&#45;CoV&#45;2 accessory proteins&#45;&gt;Orf7a -->
<g id="edge21" class="edge"><title>SARS&#45;CoV&#45;2 accessory proteins&#45;&gt;Orf7a</title>
<path fill="none" stroke="black" d="M647.694,-106.808C769.059,-89.0848 1119.93,-37.8473 1221.28,-23.0475"/>
<polygon fill="black" stroke="black" points="1221.96,-26.4865 1231.34,-21.5782 1220.94,-19.56 1221.96,-26.4865"/>
</g>
<!-- Replication transcription complex_N oligomer -->
<g id="node13" class="node"><title>Replication transcription complex_N oligomer</title>
<ellipse fill="none" stroke="black" cx="382" cy="-1272.64" rx="56.9917" ry="56.9917"/>
<text text-anchor="middle" x="382" y="-1271.44" font-family="Times,serif" font-size="4.00">Replication transcription complex_N oligomer</text>
</g>
<!-- Replication transcription complex_N oligomer&#45;&gt;Nucleoporin_gRNA complex  -->
<g id="edge22" class="edge"><title>Replication transcription complex_N oligomer&#45;&gt;Nucleoporin_gRNA complex </title>
<path fill="none" stroke="black" d="M438.389,-1264.6C591.226,-1242.08 1002,-1157.14 1002,-894.637 1002,-894.637 1002,-894.637 1002,-461.136 1002,-391.024 1010.18,-373.524 1026,-305.22 1028.11,-296.109 1030.78,-286.489 1033.54,-277.314"/>
<polygon fill="black" stroke="black" points="1036.94,-278.167 1036.56,-267.579 1030.26,-276.094 1036.94,-278.167"/>
</g>
<!-- Replication transcription complex -->
<g id="node39" class="node"><title>Replication transcription complex</title>
<ellipse fill="none" stroke="black" cx="382" cy="-1135.87" rx="44.0348" ry="44.0348"/>
<text text-anchor="middle" x="382" y="-1134.67" font-family="Times,serif" font-size="4.00">Replication transcription complex</text>
</g>
<!-- Replication transcription complex_N oligomer&#45;&gt;Replication transcription complex -->
<g id="edge23" class="edge"><title>Replication transcription complex_N oligomer&#45;&gt;Replication transcription complex</title>
<path fill="none" stroke="black" d="M375.343,-1216.04C375.204,-1207.29 375.221,-1198.26 375.394,-1189.57"/>
<polygon fill="black" stroke="black" points="378.893,-1189.66 375.67,-1179.57 371.896,-1189.47 378.893,-1189.66"/>
</g>
<!-- S2&#45;&gt;M -->
<g id="edge27" class="edge"><title>S2&#45;&gt;M</title>
<path fill="none" stroke="black" d="M1483.66,-235.728C1513.62,-243.837 1574.23,-264.507 1606,-305.22 1649.88,-361.452 1644,-389.812 1644,-461.136 1644,-1384.38 1644,-1384.38 1644,-1384.38 1644,-1430.93 1623.54,-1482.05 1609.62,-1511.45"/>
<polygon fill="black" stroke="black" points="1606.42,-1510.02 1605.19,-1520.55 1612.71,-1513.09 1606.42,-1510.02"/>
</g>
<!-- S2&#45;&gt;Nucleocapsid -->
<g id="edge25" class="edge"><title>S2&#45;&gt;Nucleocapsid</title>
<path fill="none" stroke="black" d="M1483.17,-236.079C1510.87,-244.493 1564.59,-265.331 1587,-305.22 1603.39,-334.401 1594.49,-347.907 1587,-380.527 1482.84,-834.06 1158.98,-1316.65 1077.67,-1432.92"/>
<polygon fill="black" stroke="black" points="1074.7,-1431.05 1071.81,-1441.25 1080.43,-1435.08 1074.7,-1431.05"/>
</g>
<!-- S2&#45;&gt;Orf7a -->
<g id="edge24" class="edge"><title>S2&#45;&gt;Orf7a</title>
<path fill="none" stroke="black" d="M1456.67,-214.996C1451.76,-207.75 1445.42,-199.012 1439,-191.792 1383.58,-129.495 1307.74,-66.0072 1270.89,-36.3116"/>
<polygon fill="black" stroke="black" points="1272.8,-33.3589 1262.8,-29.8392 1268.42,-38.8225 1272.8,-33.3589"/>
</g>
<!-- S2&#45;&gt;E -->
<g id="edge26" class="edge"><title>S2&#45;&gt;E</title>
<path fill="none" stroke="black" d="M1458,-214.185C1453.34,-206.548 1446.84,-197.706 1439,-191.792 1400.95,-163.106 1382.14,-173.759 1338,-155.792 1316.07,-146.867 1291.67,-135.555 1273.98,-127.091"/>
<polygon fill="black" stroke="black" points="1275.42,-123.901 1264.89,-122.715 1272.38,-130.208 1275.42,-123.901"/>
</g>
<!-- SARS&#45;CoV&#45;2 structural proteins&#45;&gt;M -->
<g id="edge30" class="edge"><title>SARS&#45;CoV&#45;2 structural proteins&#45;&gt;M</title>
<path fill="none" stroke="black" d="M1259.77,-619.686C1306.56,-670.652 1394,-780.843 1394,-892.637 1394,-1384.38 1394,-1384.38 1394,-1384.38 1394,-1471.16 1514.56,-1514.23 1569.86,-1529.42"/>
<polygon fill="black" stroke="black" points="1569.13,-1532.84 1579.69,-1532.01 1570.92,-1526.08 1569.13,-1532.84"/>
</g>
<!-- S -->
<g id="node21" class="node"><title>S</title>
<ellipse fill="none" stroke="black" cx="1238" cy="-462.136" rx="18" ry="18"/>
<text text-anchor="middle" x="1238" y="-460.936" font-family="Times,serif" font-size="4.00">S</text>
</g>
<!-- SARS&#45;CoV&#45;2 structural proteins&#45;&gt;S -->
<g id="edge29" class="edge"><title>SARS&#45;CoV&#45;2 structural proteins&#45;&gt;S</title>
<path fill="none" stroke="black" d="M1233.25,-548.044C1234.3,-529.277 1235.52,-507.434 1236.46,-490.603"/>
<polygon fill="black" stroke="black" points="1239.97,-490.529 1237.04,-480.349 1232.98,-490.138 1239.97,-490.529"/>
</g>
<!-- SARS&#45;CoV&#45;2 structural proteins&#45;&gt;E -->
<g id="edge28" class="edge"><title>SARS&#45;CoV&#45;2 structural proteins&#45;&gt;E</title>
<path fill="none" stroke="black" d="M1219.3,-549.35C1215.91,-536.254 1212.68,-521.484 1211,-507.744 1200.08,-418.398 1202.15,-394.794 1211,-305.22 1216.85,-246.014 1232.71,-177.938 1241.99,-141.394"/>
<polygon fill="black" stroke="black" points="1245.42,-142.089 1244.52,-131.533 1238.64,-140.344 1245.42,-142.089"/>
</g>
<!-- SARS&#45;CoV&#45;2 polyproteins (cleaved) -->
<g id="node16" class="node"><title>SARS&#45;CoV&#45;2 polyproteins (cleaved)</title>
<ellipse fill="none" stroke="black" cx="535" cy="-733.54" rx="45.717" ry="45.717"/>
<text text-anchor="middle" x="535" y="-732.34" font-family="Times,serif" font-size="4.00">SARS&#45;CoV&#45;2 polyproteins (cleaved)</text>
</g>
<!-- SARS&#45;CoV&#45;2 polyproteins (cleaved)&#45;&gt;SARS&#45;CoV&#45;2 polyproteins (Nsp5&#45;16) -->
<g id="edge32" class="edge"><title>SARS&#45;CoV&#45;2 polyproteins (cleaved)&#45;&gt;SARS&#45;CoV&#45;2 polyproteins (Nsp5&#45;16)</title>
<path fill="none" stroke="black" d="M512.593,-693.686C502.65,-676.445 490.856,-655.994 480.394,-637.854"/>
<polygon fill="black" stroke="black" points="483.408,-636.073 475.38,-629.159 477.344,-639.57 483.408,-636.073"/>
</g>
<!-- SARS&#45;CoV&#45;2 Nsp3 products -->
<g id="node20" class="node"><title>SARS&#45;CoV&#45;2 Nsp3 products</title>
<ellipse fill="none" stroke="black" cx="352" cy="-589.352" rx="37.2466" ry="37.2466"/>
<text text-anchor="middle" x="352" y="-588.152" font-family="Times,serif" font-size="4.00">SARS&#45;CoV&#45;2 Nsp3 products</text>
</g>
<!-- SARS&#45;CoV&#45;2 polyproteins (cleaved)&#45;&gt;SARS&#45;CoV&#45;2 Nsp3 products -->
<g id="edge31" class="edge"><title>SARS&#45;CoV&#45;2 polyproteins (cleaved)&#45;&gt;SARS&#45;CoV&#45;2 Nsp3 products</title>
<path fill="none" stroke="black" d="M507.65,-696.718C499.458,-687.526 489.977,-678.201 480,-670.961 447.786,-647.585 431.032,-657.167 398,-634.961 393.384,-631.858 388.816,-628.265 384.454,-624.492"/>
<polygon fill="black" stroke="black" points="386.608,-621.72 376.858,-617.574 381.895,-626.895 386.608,-621.72"/>
</g>
<!-- N (&#45;)sgmRNA -->
<g id="node17" class="node"><title>N (&#45;)sgmRNA</title>
<ellipse fill="none" stroke="black" cx="565" cy="-893.637" rx="22.6101" ry="22.6101"/>
<text text-anchor="middle" x="565" y="-892.437" font-family="Times,serif" font-size="4.00">N (&#45;)sgmRNA</text>
</g>
<!-- N (+)sgmRNA -->
<g id="node34" class="node"><title>N (+)sgmRNA</title>
<ellipse fill="none" stroke="black" cx="334" cy="-733.54" rx="23.1702" ry="23.1702"/>
<text text-anchor="middle" x="334" y="-732.34" font-family="Times,serif" font-size="4.00">N (+)sgmRNA</text>
</g>
<!-- N (&#45;)sgmRNA&#45;&gt;N (+)sgmRNA -->
<g id="edge33" class="edge"><title>N (&#45;)sgmRNA&#45;&gt;N (+)sgmRNA</title>
<path fill="none" stroke="black" d="M549.186,-877.069C535.538,-864.112 514.931,-845.663 495,-832.119 466.391,-812.677 455.75,-813.765 426,-796.119 403.554,-782.805 379.038,-766.291 360.961,-753.717"/>
<polygon fill="black" stroke="black" points="362.841,-750.761 352.642,-747.892 358.826,-756.495 362.841,-750.761"/>
</g>
<!-- SARS&#45;CoV&#45;2 &#160;Nsp5 products&#45;&gt;Replication transcription complex -->
<g id="edge34" class="edge"><title>SARS&#45;CoV&#45;2 &#160;Nsp5 products&#45;&gt;Replication transcription complex</title>
<path fill="none" stroke="black" d="M275.041,-372.239C240.811,-415.756 182,-502.949 182,-588.352 182,-894.637 182,-894.637 182,-894.637 182,-971.894 196.51,-997.38 247,-1055.86 269.802,-1082.26 303.719,-1102.07 331.851,-1115.24"/>
<polygon fill="black" stroke="black" points="330.593,-1118.52 341.146,-1119.46 333.484,-1112.14 330.593,-1118.52"/>
</g>
<!-- SARS&#45;CoV&#45;2 Nsp3 products&#45;&gt;Replication transcription complex -->
<g id="edge35" class="edge"><title>SARS&#45;CoV&#45;2 Nsp3 products&#45;&gt;Replication transcription complex</title>
<path fill="none" stroke="black" d="M328.982,-618.708C318.552,-633.371 307.371,-652.114 302,-670.961 267.368,-792.495 299.333,-829.323 311,-955.155 315.166,-1000.09 307.228,-1013.96 324,-1055.86 329.445,-1069.46 337.789,-1082.85 346.465,-1094.63"/>
<polygon fill="black" stroke="black" points="343.945,-1097.1 352.805,-1102.91 349.502,-1092.84 343.945,-1097.1"/>
</g>
<!-- S&#45;&gt;ACE2_SPIKE complex -->
<g id="edge36" class="edge"><title>S&#45;&gt;ACE2_SPIKE complex</title>
<path fill="none" stroke="black" d="M1240.04,-444.085C1241.89,-428.544 1244.71,-404.972 1247.14,-384.594"/>
<polygon fill="black" stroke="black" points="1250.62,-384.938 1248.33,-374.593 1243.67,-384.108 1250.62,-384.938"/>
</g>
<!-- SARS&#45;CoV&#45;2 polyproteins -->
<g id="node22" class="node"><title>SARS&#45;CoV&#45;2 polyproteins</title>
<ellipse fill="none" stroke="black" cx="641" cy="-893.637" rx="35.0036" ry="35.0036"/>
<text text-anchor="middle" x="641" y="-892.437" font-family="Times,serif" font-size="4.00">SARS&#45;CoV&#45;2 polyproteins</text>
</g>
<!-- SARS&#45;CoV&#45;2 polyproteins&#45;&gt;SARS&#45;CoV&#45;2 polyproteins (cleaved) -->
<g id="edge37" class="edge"><title>SARS&#45;CoV&#45;2 polyproteins&#45;&gt;SARS&#45;CoV&#45;2 polyproteins (cleaved)</title>
<path fill="none" stroke="black" d="M621.804,-864.007C606.192,-840.722 583.864,-807.419 565.763,-780.422"/>
<polygon fill="black" stroke="black" points="568.524,-778.255 560.048,-771.899 562.71,-782.154 568.524,-778.255"/>
</g>
<!-- Nsp3 -->
<g id="node26" class="node"><title>Nsp3</title>
<ellipse fill="none" stroke="black" cx="453" cy="-733.54" rx="18" ry="18"/>
<text text-anchor="middle" x="453" y="-732.34" font-family="Times,serif" font-size="4.00">Nsp3</text>
</g>
<!-- SARS&#45;CoV&#45;2 polyproteins&#45;&gt;Nsp3 -->
<g id="edge38" class="edge"><title>SARS&#45;CoV&#45;2 polyproteins&#45;&gt;Nsp3</title>
<path fill="none" stroke="black" d="M624.718,-862.585C617.495,-851.653 608.098,-840.047 597,-832.119 552.73,-800.493 520.613,-832.321 480,-796.119 469.788,-787.016 463.268,-773.344 459.199,-761.192"/>
<polygon fill="black" stroke="black" points="462.519,-760.076 456.331,-751.477 455.806,-762.059 462.519,-760.076"/>
</g>
<!-- CTSB -->
<g id="node23" class="node"><title>CTSB</title>
<ellipse fill="none" stroke="black" cx="1560" cy="-342.874" rx="18" ry="18"/>
<text text-anchor="middle" x="1560" y="-341.674" font-family="Times,serif" font-size="4.00">CTSB</text>
</g>
<!-- CTSB&#45;&gt;S2 -->
<g id="edge39" class="edge"><title>CTSB&#45;&gt;S2</title>
<path fill="none" stroke="black" d="M1550.07,-327.693C1545.11,-320.786 1538.91,-312.435 1533,-305.22 1517.56,-286.369 1498.82,-265.938 1485.09,-251.377"/>
<polygon fill="black" stroke="black" points="1487.45,-248.782 1478.03,-243.939 1482.37,-253.601 1487.45,-248.782"/>
</g>
<!-- CTSB&#45;&gt;S1 -->
<g id="edge40" class="edge"><title>CTSB&#45;&gt;S1</title>
<path fill="none" stroke="black" d="M1551.62,-326.696C1546.95,-319.379 1540.55,-310.966 1533,-305.22 1497.41,-278.117 1474.41,-296.565 1439,-269.22 1434.02,-265.374 1429.56,-260.36 1425.78,-255.252"/>
<polygon fill="black" stroke="black" points="1428.54,-253.096 1420.06,-246.753 1422.74,-257.003 1428.54,-253.096"/>
</g>
<!-- N -->
<g id="node24" class="node"><title>N</title>
<ellipse fill="none" stroke="black" cx="467" cy="-1383.38" rx="18" ry="18"/>
<text text-anchor="middle" x="467" y="-1382.18" font-family="Times,serif" font-size="4.00">N</text>
</g>
<!-- N&#45;&gt;Replication transcription complex_N oligomer -->
<g id="edge41" class="edge"><title>N&#45;&gt;Replication transcription complex_N oligomer</title>
<path fill="none" stroke="black" d="M456.235,-1368.61C447.713,-1357.71 435.238,-1341.75 422.937,-1326.01"/>
<polygon fill="black" stroke="black" points="425.458,-1323.55 416.542,-1317.83 419.943,-1327.86 425.458,-1323.55"/>
</g>
<!-- Nucleocapsid&#45;&gt;N -->
<g id="edge43" class="edge"><title>Nucleocapsid&#45;&gt;N</title>
<path fill="none" stroke="black" d="M1036.52,-1456.34C944.51,-1444.72 596.785,-1400.78 495.094,-1387.93"/>
<polygon fill="black" stroke="black" points="495.342,-1384.43 484.982,-1386.65 494.465,-1391.38 495.342,-1384.43"/>
</g>
<!-- Nucleocapsid&#45;&gt; SARS&#45;CoV&#45;2 (+)gRNA -->
<g id="edge42" class="edge"><title>Nucleocapsid&#45;&gt; SARS&#45;CoV&#45;2 (+)gRNA</title>
<path fill="none" stroke="black" d="M1044.34,-1442.68C986.984,-1378.09 777.214,-1141.86 700.953,-1055.98"/>
<polygon fill="black" stroke="black" points="703.467,-1053.54 694.21,-1048.39 698.233,-1058.19 703.467,-1053.54"/>
</g>
<!-- Nsp3&#45;&gt;SARS&#45;CoV&#45;2 polyproteins (Nsp5&#45;16) -->
<g id="edge45" class="edge"><title>Nsp3&#45;&gt;SARS&#45;CoV&#45;2 polyproteins (Nsp5&#45;16)</title>
<path fill="none" stroke="black" d="M453,-715.389C453,-697.991 453,-670.137 453,-645.13"/>
<polygon fill="black" stroke="black" points="456.5,-644.991 453,-634.991 449.5,-644.991 456.5,-644.991"/>
</g>
<!-- Nsp3&#45;&gt;SARS&#45;CoV&#45;2 Nsp3 products -->
<g id="edge44" class="edge"><title>Nsp3&#45;&gt;SARS&#45;CoV&#45;2 Nsp3 products</title>
<path fill="none" stroke="black" d="M442.946,-718.386C428.187,-697.608 400.126,-658.104 379.059,-628.446"/>
<polygon fill="black" stroke="black" points="381.689,-626.104 373.044,-619.978 375.982,-630.158 381.689,-626.104"/>
</g>
<!-- Nsp3&#45;&gt;Replication transcription complex -->
<g id="edge46" class="edge"><title>Nsp3&#45;&gt;Replication transcription complex</title>
<path fill="none" stroke="black" d="M459.847,-750.225C471.637,-777.262 494.558,-829.974 495,-832.119 506.037,-885.676 510.146,-902.612 495,-955.155 479.832,-1007.78 444.203,-1059.86 416.975,-1094.3"/>
<polygon fill="black" stroke="black" points="414.136,-1092.24 410.603,-1102.23 419.594,-1096.63 414.136,-1092.24"/>
</g>
<!-- Camostat mesylate -->
<g id="node27" class="node"><title>Camostat mesylate</title>
<ellipse fill="none" stroke="black" cx="1441" cy="-342.874" rx="29.3373" ry="29.3373"/>
<text text-anchor="middle" x="1441" y="-341.674" font-family="Times,serif" font-size="4.00">Camostat mesylate</text>
</g>
<!-- Camostat mesylate&#45;&gt;ACE2 (15 Kda) -->
<g id="edge47" class="edge"><title>Camostat mesylate&#45;&gt;ACE2 (15 Kda)</title>
<path fill="none" stroke="black" d="M1421.7,-320.582C1416.03,-315.111 1409.59,-309.553 1403,-305.22 1368.38,-282.447 1350.8,-293.188 1317,-269.22 1312.42,-265.97 1308.01,-261.999 1303.97,-257.869"/>
<polygon fill="black" stroke="black" points="1306.47,-255.416 1297.15,-250.383 1301.3,-260.132 1306.47,-255.416"/>
</g>
<!-- Camostat mesylate&#45;&gt;S2 -->
<g id="edge49" class="edge"><title>Camostat mesylate&#45;&gt;S2</title>
<path fill="none" stroke="black" d="M1447.24,-314.308C1451.12,-297.177 1456.09,-275.261 1459.94,-258.28"/>
<polygon fill="black" stroke="black" points="1463.37,-258.958 1462.17,-248.432 1456.54,-257.412 1463.37,-258.958"/>
</g>
<!-- Camostat mesylate&#45;&gt;S1 -->
<g id="edge50" class="edge"><title>Camostat mesylate&#45;&gt;S1</title>
<path fill="none" stroke="black" d="M1433.83,-314.592C1429.3,-297.359 1423.48,-275.199 1418.99,-258.099"/>
<polygon fill="black" stroke="black" points="1422.31,-256.978 1416.39,-248.196 1415.54,-258.757 1422.31,-256.978"/>
</g>
<!-- ACE2 (100 Kda) -->
<g id="node30" class="node"><title>ACE2 (100 Kda)</title>
<ellipse fill="none" stroke="black" cx="1351" cy="-230.506" rx="25.4118" ry="25.4118"/>
<text text-anchor="middle" x="1351" y="-229.306" font-family="Times,serif" font-size="4.00">ACE2 (100 Kda)</text>
</g>
<!-- Camostat mesylate&#45;&gt;ACE2 (100 Kda) -->
<g id="edge48" class="edge"><title>Camostat mesylate&#45;&gt;ACE2 (100 Kda)</title>
<path fill="none" stroke="black" d="M1423,-319.805C1408.7,-302.269 1388.63,-277.655 1373.31,-258.868"/>
<polygon fill="black" stroke="black" points="1375.89,-256.49 1366.86,-250.952 1370.46,-260.914 1375.89,-256.49"/>
</g>
<!-- Orf7a&#45;&gt;M -->
<g id="edge53" class="edge"><title>Orf7a&#45;&gt;M</title>
<path fill="none" stroke="black" d="M1266.71,-21.8907C1356.64,-38.2088 1756,-121.913 1756,-229.506 1756,-1384.38 1756,-1384.38 1756,-1384.38 1756,-1456.65 1668.81,-1506.85 1623.39,-1526.62"/>
<polygon fill="black" stroke="black" points="1622,-1523.41 1614.12,-1530.48 1624.69,-1529.87 1622,-1523.41"/>
</g>
<!-- Orf7a&#45;&gt;Nucleocapsid -->
<g id="edge51" class="edge"><title>Orf7a&#45;&gt;Nucleocapsid</title>
<path fill="none" stroke="black" d="M1230.87,-19.0563C1150.74,-19.5824 820.583,-24.6665 555,-72 302.57,-116.989 0,26.9013 0,-229.506 0,-1273.64 0,-1273.64 0,-1273.64 0,-1477.27 239.951,-1363.36 440,-1401.38 661.076,-1443.4 932.632,-1455.32 1025.8,-1458.29"/>
<polygon fill="black" stroke="black" points="1025.91,-1461.8 1036.02,-1458.61 1026.13,-1454.8 1025.91,-1461.8"/>
</g>
<!-- Orf7a&#45;&gt;E -->
<g id="edge52" class="edge"><title>Orf7a&#45;&gt;E</title>
<path fill="none" stroke="black" d="M1254.28,-35.4831C1255.89,-49.5732 1256.18,-70.1068 1255.14,-86.4863"/>
<polygon fill="black" stroke="black" points="1251.64,-86.2754 1254.27,-96.5406 1258.62,-86.8808 1251.64,-86.2754"/>
</g>
<!-- Nsp5&#45;&gt;SARS&#45;CoV&#45;2 &#160;Nsp5 products -->
<g id="edge55" class="edge"><title>Nsp5&#45;&gt;SARS&#45;CoV&#45;2 &#160;Nsp5 products</title>
<path fill="none" stroke="black" d="M299,-444.085C299,-430.15 299,-409.759 299,-391.003"/>
<polygon fill="black" stroke="black" points="302.5,-390.803 299,-380.803 295.5,-390.803 302.5,-390.803"/>
</g>
<!-- Nsp5&#45;&gt;Replication transcription complex -->
<g id="edge54" class="edge"><title>Nsp5&#45;&gt;Replication transcription complex</title>
<path fill="none" stroke="black" d="M291.136,-478.461C271.154,-518.873 220,-632.133 220,-732.54 220,-894.637 220,-894.637 220,-894.637 220,-980.41 291.866,-1058.5 339.866,-1101.09"/>
<polygon fill="black" stroke="black" points="337.805,-1103.94 347.644,-1107.87 342.404,-1098.66 337.805,-1103.94"/>
</g>
<!-- ACE2_SPIKE complex&#45;&gt;ACE2 (15 Kda) -->
<g id="edge59" class="edge"><title>ACE2_SPIKE complex&#45;&gt;ACE2 (15 Kda)</title>
<path fill="none" stroke="black" d="M1260.39,-312.007C1264.53,-297.276 1269.53,-279.472 1273.77,-264.357"/>
<polygon fill="black" stroke="black" points="1277.24,-264.967 1276.57,-254.393 1270.5,-263.074 1277.24,-264.967"/>
</g>
<!-- ACE2_SPIKE complex&#45;&gt;Nucleoporin_gRNA complex  -->
<g id="edge56" class="edge"><title>ACE2_SPIKE complex&#45;&gt;Nucleoporin_gRNA complex </title>
<path fill="none" stroke="black" d="M1224.2,-326.759C1190.05,-308.192 1131.75,-276.494 1091.85,-254.803"/>
<polygon fill="black" stroke="black" points="1093.34,-251.629 1082.88,-249.927 1090,-257.779 1093.34,-251.629"/>
</g>
<!-- ACE2_SPIKE complex&#45;&gt;S2 -->
<g id="edge57" class="edge"><title>ACE2_SPIKE complex&#45;&gt;S2</title>
<path fill="none" stroke="black" d="M1273.48,-319.158C1279.38,-313.949 1286.08,-308.875 1293,-305.22 1352.11,-274.026 1383.68,-306.714 1439,-269.22 1444.21,-265.69 1448.76,-260.799 1452.56,-255.709"/>
<polygon fill="black" stroke="black" points="1455.62,-257.424 1458.24,-247.158 1449.79,-253.551 1455.62,-257.424"/>
</g>
<!-- ACE2_SPIKE complex&#45;&gt;S1 -->
<g id="edge58" class="edge"><title>ACE2_SPIKE complex&#45;&gt;S1</title>
<path fill="none" stroke="black" d="M1274.26,-319.394C1280.05,-314.3 1286.49,-309.221 1293,-305.22 1330.4,-282.224 1350.35,-296.184 1385,-269.22 1389.97,-265.356 1394.42,-260.335 1398.2,-255.226"/>
<polygon fill="black" stroke="black" points="1401.24,-256.979 1403.92,-246.729 1395.44,-253.07 1401.24,-256.979"/>
</g>
<!-- ACE2_SPIKE complex&#45;&gt;ACE2 (100 Kda) -->
<g id="edge60" class="edge"><title>ACE2_SPIKE complex&#45;&gt;ACE2 (100 Kda)</title>
<path fill="none" stroke="black" d="M1272.75,-318.737C1288.73,-300.928 1310.82,-276.304 1327.45,-257.758"/>
<polygon fill="black" stroke="black" points="1330.14,-260.001 1334.21,-250.22 1324.93,-255.327 1330.14,-260.001"/>
</g>
<!-- E&#45;&gt;M -->
<g id="edge63" class="edge"><title>E&#45;&gt;M</title>
<path fill="none" stroke="black" d="M1267.18,-115.424C1351.7,-118.984 1700,-145.842 1700,-341.874 1700,-894.637 1700,-894.637 1700,-894.637 1700,-1067.32 1606,-1098.95 1606,-1271.64 1606,-1384.38 1606,-1384.38 1606,-1384.38 1606,-1428.22 1606,-1479.18 1603.52,-1509.45"/>
<polygon fill="black" stroke="black" points="1600.02,-1509.31 1602.49,-1519.61 1606.98,-1510.02 1600.02,-1509.31"/>
</g>
<!-- E&#45;&gt;Nucleocapsid -->
<g id="edge62" class="edge"><title>E&#45;&gt;Nucleocapsid</title>
<path fill="none" stroke="black" d="M1232.52,-121.482C1207.95,-132.226 1162.24,-155.986 1140,-191.792 1045.88,-343.335 1078,-409.962 1078,-588.352 1078,-1273.64 1078,-1273.64 1078,-1273.64 1078,-1327.87 1069.87,-1390.55 1064.25,-1427.42"/>
<polygon fill="black" stroke="black" points="1060.75,-1427.13 1062.66,-1437.55 1067.66,-1428.21 1060.75,-1427.13"/>
</g>
<!-- E&#45;&gt;Orf7a -->
<g id="edge61" class="edge"><title>E&#45;&gt;Orf7a</title>
<path fill="none" stroke="black" d="M1243.73,-96.5406C1242.11,-82.4896 1241.82,-61.9629 1242.85,-45.5584"/>
<polygon fill="black" stroke="black" points="1246.35,-45.7465 1243.72,-35.4831 1239.37,-45.1459 1246.35,-45.7465"/>
</g>
<!-- SARS&#45;CoV&#45;2 accessory protein coding (+)sgmRNAs -->
<g id="node33" class="node"><title>SARS&#45;CoV&#45;2 accessory protein coding (+)sgmRNAs</title>
<ellipse fill="none" stroke="black" cx="91" cy="-733.54" rx="62.658" ry="62.658"/>
<text text-anchor="middle" x="91" y="-732.34" font-family="Times,serif" font-size="4.00">SARS&#45;CoV&#45;2 accessory protein coding (+)sgmRNAs</text>
</g>
<!-- SARS&#45;CoV&#45;2 accessory protein coding (+)sgmRNAs&#45;&gt;SARS&#45;CoV&#45;2 accessory proteins -->
<g id="edge64" class="edge"><title>SARS&#45;CoV&#45;2 accessory protein coding (+)sgmRNAs&#45;&gt;SARS&#45;CoV&#45;2 accessory proteins</title>
<path fill="none" stroke="black" d="M100.276,-671.446C107.743,-616.948 117,-534.911 117,-463.136 117,-463.136 117,-463.136 117,-341.874 117,-150.925 427.564,-120.169 553.696,-115.552"/>
<polygon fill="black" stroke="black" points="554.004,-119.044 563.885,-115.221 553.777,-112.048 554.004,-119.044"/>
</g>
<!-- N (+)sgmRNA&#45;&gt;N -->
<g id="edge65" class="edge"><title>N (+)sgmRNA&#45;&gt;N</title>
<path fill="none" stroke="black" d="M332.651,-757.113C330.933,-797.8 330.502,-885.665 353,-955.155 374.823,-1022.56 412.377,-1024.72 435,-1091.86 466.238,-1184.56 468.575,-1302.4 467.824,-1354.94"/>
<polygon fill="black" stroke="black" points="464.321,-1355.07 467.626,-1365.13 471.32,-1355.2 464.321,-1355.07"/>
</g>
<!-- FURIN -->
<g id="node35" class="node"><title>FURIN</title>
<ellipse fill="none" stroke="black" cx="1320" cy="-342.874" rx="18" ry="18"/>
<text text-anchor="middle" x="1320" y="-341.674" font-family="Times,serif" font-size="4.00">FURIN</text>
</g>
<!-- FURIN&#45;&gt;ACE2 (15 Kda) -->
<g id="edge66" class="edge"><title>FURIN&#45;&gt;ACE2 (15 Kda)</title>
<path fill="none" stroke="black" d="M1314.54,-325.589C1309.08,-309.305 1300.54,-283.828 1293.72,-263.49"/>
<polygon fill="black" stroke="black" points="1297.03,-262.351 1290.53,-253.982 1290.4,-264.576 1297.03,-262.351"/>
</g>
<!-- FURIN&#45;&gt;S2 -->
<g id="edge68" class="edge"><title>FURIN&#45;&gt;S2</title>
<path fill="none" stroke="black" d="M1328.39,-326.719C1333.07,-319.408 1339.48,-310.994 1347,-305.22 1381.84,-278.493 1404.35,-296.184 1439,-269.22 1443.97,-265.356 1448.42,-260.335 1452.2,-255.226"/>
<polygon fill="black" stroke="black" points="1455.24,-256.979 1457.92,-246.729 1449.44,-253.07 1455.24,-256.979"/>
</g>
<!-- FURIN&#45;&gt;S1 -->
<g id="edge69" class="edge"><title>FURIN&#45;&gt;S1</title>
<path fill="none" stroke="black" d="M1329.7,-327.497C1334.61,-320.543 1340.82,-312.209 1347,-305.22 1362.4,-287.786 1369.71,-286.759 1385,-269.22 1389.07,-264.554 1393.13,-259.289 1396.82,-254.206"/>
<polygon fill="black" stroke="black" points="1399.72,-256.155 1402.61,-245.961 1394,-252.129 1399.72,-256.155"/>
</g>
<!-- FURIN&#45;&gt;ACE2 (100 Kda) -->
<g id="edge67" class="edge"><title>FURIN&#45;&gt;ACE2 (100 Kda)</title>
<path fill="none" stroke="black" d="M1324.71,-325.111C1329.17,-309.223 1336,-284.897 1341.58,-265.027"/>
<polygon fill="black" stroke="black" points="1344.95,-265.973 1344.29,-255.399 1338.22,-264.08 1344.95,-265.973"/>
</g>
<!-- SARS&#45;CoV&#45;2 accessory protein coding (&#45;)sgmRNAs -->
<g id="node36" class="node"><title>SARS&#45;CoV&#45;2 accessory protein coding (&#45;)sgmRNAs</title>
<ellipse fill="none" stroke="black" cx="424" cy="-893.637" rx="61.5366" ry="61.5366"/>
<text text-anchor="middle" x="424" y="-892.437" font-family="Times,serif" font-size="4.00">SARS&#45;CoV&#45;2 accessory protein coding (&#45;)sgmRNAs</text>
</g>
<!-- SARS&#45;CoV&#45;2 accessory protein coding (&#45;)sgmRNAs&#45;&gt;SARS&#45;CoV&#45;2 accessory protein coding (+)sgmRNAs -->
<g id="edge70" class="edge"><title>SARS&#45;CoV&#45;2 accessory protein coding (&#45;)sgmRNAs&#45;&gt;SARS&#45;CoV&#45;2 accessory protein coding (+)sgmRNAs</title>
<path fill="none" stroke="black" d="M368.638,-866.353C310.324,-838.667 218.536,-795.089 156.62,-765.694"/>
<polygon fill="black" stroke="black" points="157.864,-762.41 147.33,-761.283 154.862,-768.734 157.864,-762.41"/>
</g>
<!-- SARS&#45;CoV&#45;2 structural protein coding (&#45;)sgmRNAs -->
<g id="node37" class="node"><title>SARS&#45;CoV&#45;2 structural protein coding (&#45;)sgmRNAs</title>
<ellipse fill="none" stroke="black" cx="874" cy="-893.637" rx="61.5366" ry="61.5366"/>
<text text-anchor="middle" x="874" y="-892.437" font-family="Times,serif" font-size="4.00">SARS&#45;CoV&#45;2 structural protein coding (&#45;)sgmRNAs</text>
</g>
<!-- SARS&#45;CoV&#45;2 structural protein coding (&#45;)sgmRNAs&#45;&gt;SARS&#45;CoV&#45;2 structural protein coding (+)sgmRNAs -->
<g id="edge71" class="edge"><title>SARS&#45;CoV&#45;2 structural protein coding (&#45;)sgmRNAs&#45;&gt;SARS&#45;CoV&#45;2 structural protein coding (+)sgmRNAs</title>
<path fill="none" stroke="black" d="M888.15,-833.767C890.492,-824.023 892.94,-813.839 895.337,-803.865"/>
<polygon fill="black" stroke="black" points="898.778,-804.527 897.712,-793.986 891.971,-802.891 898.778,-804.527"/>
</g>
<!--  SARS&#45;CoV&#45;2 (+)gRNA&#45;&gt; SARS&#45;CoV&#45;2 (&#45;)gRNA -->
<g id="edge74" class="edge"><title> SARS&#45;CoV&#45;2 (+)gRNA&#45;&gt; SARS&#45;CoV&#45;2 (&#45;)gRNA</title>
<path fill="none" stroke="black" d="M687.254,-994.127C700.369,-973.602 719.821,-945.907 735.824,-924.95"/>
<polygon fill="black" stroke="black" points="738.632,-927.04 741.992,-916.992 733.099,-922.752 738.632,-927.04"/>
</g>
<!--  SARS&#45;CoV&#45;2 (+)gRNA&#45;&gt;Nucleoporin_gRNA complex  -->
<g id="edge76" class="edge"><title> SARS&#45;CoV&#45;2 (+)gRNA&#45;&gt;Nucleoporin_gRNA complex </title>
<path fill="none" stroke="black" d="M679.145,-991.413C681.233,-980.04 683.432,-967.048 685,-955.155 697.867,-857.586 704,-832.954 704,-734.54 704,-734.54 704,-734.54 704,-461.136 704,-320.212 905.951,-260.51 1000.83,-240.238"/>
<polygon fill="black" stroke="black" points="1001.68,-243.636 1010.76,-238.177 1000.26,-236.782 1001.68,-243.636"/>
</g>
<!--  SARS&#45;CoV&#45;2 (+)gRNA&#45;&gt;N (&#45;)sgmRNA -->
<g id="edge78" class="edge"><title> SARS&#45;CoV&#45;2 (+)gRNA&#45;&gt;N (&#45;)sgmRNA</title>
<path fill="none" stroke="black" d="M647.259,-1003.57C631.435,-991.05 611.488,-973.592 597,-955.155 589.635,-945.783 583.129,-934.465 577.94,-924.165"/>
<polygon fill="black" stroke="black" points="581.053,-922.564 573.557,-915.076 574.748,-925.604 581.053,-922.564"/>
</g>
<!--  SARS&#45;CoV&#45;2 (+)gRNA&#45;&gt;SARS&#45;CoV&#45;2 polyproteins -->
<g id="edge75" class="edge"><title> SARS&#45;CoV&#45;2 (+)gRNA&#45;&gt;SARS&#45;CoV&#45;2 polyproteins</title>
<path fill="none" stroke="black" d="M665.335,-991.878C661.286,-975.696 656.248,-955.565 651.808,-937.824"/>
<polygon fill="black" stroke="black" points="655.098,-936.554 649.275,-927.703 648.307,-938.253 655.098,-936.554"/>
</g>
<!--  SARS&#45;CoV&#45;2 (+)gRNA&#45;&gt;SARS&#45;CoV&#45;2 accessory protein coding (&#45;)sgmRNAs -->
<g id="edge73" class="edge"><title> SARS&#45;CoV&#45;2 (+)gRNA&#45;&gt;SARS&#45;CoV&#45;2 accessory protein coding (&#45;)sgmRNAs</title>
<path fill="none" stroke="black" d="M643.797,-1009.06C615.305,-995.808 570.847,-974.744 533,-955.155 517.654,-947.213 501.28,-938.338 486.01,-929.886"/>
<polygon fill="black" stroke="black" points="487.604,-926.768 477.163,-924.969 484.203,-932.886 487.604,-926.768"/>
</g>
<!--  SARS&#45;CoV&#45;2 (+)gRNA&#45;&gt;SARS&#45;CoV&#45;2 structural protein coding (&#45;)sgmRNAs -->
<g id="edge72" class="edge"><title> SARS&#45;CoV&#45;2 (+)gRNA&#45;&gt;SARS&#45;CoV&#45;2 structural protein coding (&#45;)sgmRNAs</title>
<path fill="none" stroke="black" d="M702.471,-1009.59C729.544,-997.191 770.305,-977.138 803,-955.155 809.006,-951.117 815.079,-946.644 821.013,-942.012"/>
<polygon fill="black" stroke="black" points="823.376,-944.603 828.997,-935.622 819.003,-939.138 823.376,-944.603"/>
</g>
<!--  SARS&#45;CoV&#45;2 (+)gRNA&#45;&gt;Replication transcription complex -->
<g id="edge77" class="edge"><title> SARS&#45;CoV&#45;2 (+)gRNA&#45;&gt;Replication transcription complex</title>
<path fill="none" stroke="black" d="M643.666,-1037.34C594.217,-1057.15 494.098,-1095.19 432.988,-1117.46"/>
<polygon fill="black" stroke="black" points="431.734,-1114.19 423.529,-1120.89 434.123,-1120.77 431.734,-1114.19"/>
</g>
<!-- Replication transcription complex&#45;&gt;SARS&#45;CoV&#45;2 structural protein coding (+)sgmRNAs -->
<g id="edge79" class="edge"><title>Replication transcription complex&#45;&gt;SARS&#45;CoV&#45;2 structural protein coding (+)sgmRNAs</title>
<path fill="none" stroke="black" d="M425.585,-1128.07C547.37,-1108.03 886.184,-1044.96 945,-955.155 975.273,-908.934 961.554,-845.71 943.474,-798.791"/>
<polygon fill="black" stroke="black" points="946.655,-797.319 939.688,-789.337 940.156,-799.921 946.655,-797.319"/>
</g>
<!-- Replication transcription complex&#45;&gt;Replication transcription complex_N oligomer -->
<g id="edge83" class="edge"><title>Replication transcription complex&#45;&gt;Replication transcription complex_N oligomer</title>
<path fill="none" stroke="black" d="M388.33,-1179.57C388.629,-1187.99 388.768,-1197 388.748,-1205.97"/>
<polygon fill="black" stroke="black" points="385.248,-1206.01 388.657,-1216.04 392.247,-1206.08 385.248,-1206.01"/>
</g>
<!-- Replication transcription complex&#45;&gt;SARS&#45;CoV&#45;2 accessory protein coding (+)sgmRNAs -->
<g id="edge80" class="edge"><title>Replication transcription complex&#45;&gt;SARS&#45;CoV&#45;2 accessory protein coding (+)sgmRNAs</title>
<path fill="none" stroke="black" d="M337.875,-1130.73C289.139,-1123.76 211.785,-1105.16 168,-1055.86 106.829,-986.969 92.1043,-878.055 89.625,-806.447"/>
<polygon fill="black" stroke="black" points="93.1158,-806.063 89.3439,-796.162 86.1185,-806.254 93.1158,-806.063"/>
</g>
<!-- Replication transcription complex&#45;&gt;N (+)sgmRNA -->
<g id="edge81" class="edge"><title>Replication transcription complex&#45;&gt;N (+)sgmRNA</title>
<path fill="none" stroke="black" d="M364.17,-1095.54C348.999,-1059.78 328.377,-1005.12 320,-955.155 310.959,-901.225 316.107,-886.663 320,-832.119 321.573,-810.081 325.119,-785.456 328.249,-766.457"/>
<polygon fill="black" stroke="black" points="331.711,-766.977 329.93,-756.533 324.809,-765.808 331.711,-766.977"/>
</g>
<!-- Replication transcription complex&#45;&gt; SARS&#45;CoV&#45;2 (+)gRNA -->
<g id="edge82" class="edge"><title>Replication transcription complex&#45;&gt; SARS&#45;CoV&#45;2 (+)gRNA</title>
<path fill="none" stroke="black" d="M422.406,-1117.63C478.069,-1095.61 577.462,-1057.97 632.945,-1037.95"/>
<polygon fill="black" stroke="black" points="634.214,-1041.21 642.445,-1034.54 631.85,-1034.63 634.214,-1041.21"/>
</g>
<!-- TMPRSS2 -->
<g id="node40" class="node"><title>TMPRSS2</title>
<ellipse fill="none" stroke="black" cx="1375" cy="-342.874" rx="18.6233" ry="18.6233"/>
<text text-anchor="middle" x="1375" y="-341.674" font-family="Times,serif" font-size="4.00">TMPRSS2</text>
</g>
<!-- TMPRSS2&#45;&gt;ACE2 (15 Kda) -->
<g id="edge84" class="edge"><title>TMPRSS2&#45;&gt;ACE2 (15 Kda)</title>
<path fill="none" stroke="black" d="M1364.3,-327.439C1359.17,-320.623 1352.87,-312.422 1347,-305.22 1333.67,-288.855 1318.16,-270.965 1305.75,-256.907"/>
<polygon fill="black" stroke="black" points="1308.09,-254.274 1298.84,-249.114 1302.85,-258.918 1308.09,-254.274"/>
</g>
<!-- TMPRSS2&#45;&gt;S2 -->
<g id="edge86" class="edge"><title>TMPRSS2&#45;&gt;S2</title>
<path fill="none" stroke="black" d="M1385.47,-327.249C1390.56,-320.392 1396.88,-312.211 1403,-305.22 1417.9,-288.192 1424.36,-286.478 1439,-269.22 1443,-264.499 1447.04,-259.212 1450.72,-254.126"/>
<polygon fill="black" stroke="black" points="1453.63,-256.079 1456.53,-245.889 1447.91,-252.047 1453.63,-256.079"/>
</g>
<!-- TMPRSS2&#45;&gt;S1 -->
<g id="edge87" class="edge"><title>TMPRSS2&#45;&gt;S1</title>
<path fill="none" stroke="black" d="M1380.62,-325.111C1386.67,-307.077 1396.35,-278.174 1403.37,-257.253"/>
<polygon fill="black" stroke="black" points="1406.71,-258.3 1406.57,-247.706 1400.07,-256.075 1406.71,-258.3"/>
</g>
<!-- TMPRSS2&#45;&gt;ACE2 (100 Kda) -->
<g id="edge85" class="edge"><title>TMPRSS2&#45;&gt;ACE2 (100 Kda)</title>
<path fill="none" stroke="black" d="M1371.25,-324.629C1367.81,-308.831 1362.63,-284.993 1358.37,-265.39"/>
<polygon fill="black" stroke="black" points="1361.78,-264.618 1356.24,-255.59 1354.94,-266.106 1361.78,-264.618"/>
</g>
</g>
</svg>
