<?xml version="1.0" encoding="UTF-8" standalone="no"?>
<!DOCTYPE svg PUBLIC "-//W3C//DTD SVG 1.1//EN"
 "http://www.w3.org/Graphics/SVG/1.1/DTD/svg11.dtd">
<!-- Generated by graphviz version 2.38.0 (20140413.2041)
 -->
<!-- Title: G Pages: 1 -->
<svg width="389pt" height="749pt"
 viewBox="0.00 0.00 388.50 748.68" xmlns="http://www.w3.org/2000/svg" xmlns:xlink="http://www.w3.org/1999/xlink">
<g id="graph0" class="graph" transform="scale(1 1) rotate(0) translate(4 744.676)">
<title>G</title>
<polygon fill="white" stroke="none" points="-4,4 -4,-744.676 384.5,-744.676 384.5,4 -4,4"/>
<!-- ACE2 -->
<g id="node1" class="node"><title>ACE2</title>
<ellipse fill="none" stroke="black" cx="227" cy="-722.676" rx="18" ry="18"/>
<text text-anchor="middle" x="227" y="-721.476" font-family="Times,serif" font-size="4.00">ACE2</text>
</g>
<!-- pr_bd096495&#45;6f32&#45;47b8&#45;bb6d&#45;4723c8754e11 -->
<g id="node2" class="node"><title>pr_bd096495&#45;6f32&#45;47b8&#45;bb6d&#45;4723c8754e11</title>
<polygon fill="none" stroke="black" points="261,-668.176 161,-668.176 161,-568.176 261,-568.176 261,-668.176"/>
<text text-anchor="middle" x="211" y="-616.976" font-family="Times,serif" font-size="4.00">pr_bd096495&#45;6f32&#45;47b8&#45;bb6d&#45;4723c8754e11</text>
</g>
<!-- ACE2&#45;&gt;pr_bd096495&#45;6f32&#45;47b8&#45;bb6d&#45;4723c8754e11 -->
<g id="edge1" class="edge"><title>ACE2&#45;&gt;pr_bd096495&#45;6f32&#45;47b8&#45;bb6d&#45;4723c8754e11</title>
<path fill="none" stroke="black" d="M224.358,-704.75C223.199,-697.323 221.761,-688.115 220.263,-678.519"/>
<polygon fill="black" stroke="black" points="223.69,-677.778 218.69,-668.437 216.774,-678.857 223.69,-677.778"/>
</g>
<!-- pr_9ad0eb5b&#45;3b74&#45;47aa&#45;9b09&#45;52e273387e3b -->
<g id="node19" class="node"><title>pr_9ad0eb5b&#45;3b74&#45;47aa&#45;9b09&#45;52e273387e3b</title>
<polygon fill="none" stroke="black" points="380.5,-668.676 279.5,-668.676 279.5,-567.676 380.5,-567.676 380.5,-668.676"/>
<text text-anchor="middle" x="330" y="-616.976" font-family="Times,serif" font-size="4.00">pr_9ad0eb5b&#45;3b74&#45;47aa&#45;9b09&#45;52e273387e3b</text>
</g>
<!-- ACE2&#45;&gt;pr_9ad0eb5b&#45;3b74&#45;47aa&#45;9b09&#45;52e273387e3b -->
<g id="edge2" class="edge"><title>ACE2&#45;&gt;pr_9ad0eb5b&#45;3b74&#45;47aa&#45;9b09&#45;52e273387e3b</title>
<path fill="none" stroke="black" d="M239.63,-709.108C248.162,-700.617 260.097,-688.74 272.502,-676.395"/>
<polygon fill="black" stroke="black" points="275.219,-678.629 279.839,-669.094 270.282,-673.667 275.219,-678.629"/>
</g>
<!-- ACE2_SPIKE complex -->
<g id="node3" class="node"><title>ACE2_SPIKE complex</title>
<ellipse fill="none" stroke="black" cx="271" cy="-499.856" rx="31.6406" ry="31.6406"/>
<text text-anchor="middle" x="271" y="-498.656" font-family="Times,serif" font-size="4.00">ACE2_SPIKE complex</text>
</g>
<!-- pr_bd096495&#45;6f32&#45;47b8&#45;bb6d&#45;4723c8754e11&#45;&gt;ACE2_SPIKE complex -->
<g id="edge3" class="edge"><title>pr_bd096495&#45;6f32&#45;47b8&#45;bb6d&#45;4723c8754e11&#45;&gt;ACE2_SPIKE complex</title>
<path fill="none" stroke="black" d="M236.445,-567.846C241.722,-557.617 247.191,-547.014 252.179,-537.344"/>
<polygon fill="black" stroke="black" points="255.318,-538.894 256.792,-528.402 249.097,-535.685 255.318,-538.894"/>
</g>
<!-- pr_21702837&#45;9791&#45;475c&#45;bae0&#45;e2cd5bd96adb -->
<g id="node6" class="node"><title>pr_21702837&#45;9791&#45;475c&#45;bae0&#45;e2cd5bd96adb</title>
<polygon fill="none" stroke="black" points="359.5,-432.037 258.5,-432.037 258.5,-331.037 359.5,-331.037 359.5,-432.037"/>
<text text-anchor="middle" x="309" y="-380.337" font-family="Times,serif" font-size="4.00">pr_21702837&#45;9791&#45;475c&#45;bae0&#45;e2cd5bd96adb</text>
</g>
<!-- ACE2_SPIKE complex&#45;&gt;pr_21702837&#45;9791&#45;475c&#45;bae0&#45;e2cd5bd96adb -->
<g id="edge4" class="edge"><title>ACE2_SPIKE complex&#45;&gt;pr_21702837&#45;9791&#45;475c&#45;bae0&#45;e2cd5bd96adb</title>
<path fill="none" stroke="black" d="M280.589,-469.504C283.359,-461.024 286.487,-451.451 289.628,-441.836"/>
<polygon fill="black" stroke="black" points="292.982,-442.839 292.761,-432.246 286.328,-440.665 292.982,-442.839"/>
</g>
<!-- pr_6f1f2b54&#45;3682&#45;4247&#45;84b4&#45;627d3e762f22 -->
<g id="node7" class="node"><title>pr_6f1f2b54&#45;3682&#45;4247&#45;84b4&#45;627d3e762f22</title>
<polygon fill="none" stroke="black" points="121,-430.537 23,-430.537 23,-332.537 121,-332.537 121,-430.537"/>
<text text-anchor="middle" x="72" y="-380.337" font-family="Times,serif" font-size="4.00">pr_6f1f2b54&#45;3682&#45;4247&#45;84b4&#45;627d3e762f22</text>
</g>
<!-- ACE2_SPIKE complex&#45;&gt;pr_6f1f2b54&#45;3682&#45;4247&#45;84b4&#45;627d3e762f22 -->
<g id="edge5" class="edge"><title>ACE2_SPIKE complex&#45;&gt;pr_6f1f2b54&#45;3682&#45;4247&#45;84b4&#45;627d3e762f22</title>
<path fill="none" stroke="black" d="M246.868,-478.344C241.819,-474.612 236.387,-470.976 231,-468.037 189.166,-445.213 171.25,-455.899 130,-432.037 129.907,-431.983 129.814,-431.929 129.721,-431.875"/>
<polygon fill="black" stroke="black" points="131.436,-428.818 121.112,-426.435 127.696,-434.736 131.436,-428.818"/>
</g>
<!-- pr_244541e1&#45;18de&#45;4a59&#45;acad&#45;0d0b916e2dbe -->
<g id="node15" class="node"><title>pr_244541e1&#45;18de&#45;4a59&#45;acad&#45;0d0b916e2dbe</title>
<polygon fill="none" stroke="black" points="240.5,-432.037 139.5,-432.037 139.5,-331.037 240.5,-331.037 240.5,-432.037"/>
<text text-anchor="middle" x="190" y="-380.337" font-family="Times,serif" font-size="4.00">pr_244541e1&#45;18de&#45;4a59&#45;acad&#45;0d0b916e2dbe</text>
</g>
<!-- ACE2_SPIKE complex&#45;&gt;pr_244541e1&#45;18de&#45;4a59&#45;acad&#45;0d0b916e2dbe -->
<g id="edge6" class="edge"><title>ACE2_SPIKE complex&#45;&gt;pr_244541e1&#45;18de&#45;4a59&#45;acad&#45;0d0b916e2dbe</title>
<path fill="none" stroke="black" d="M253.224,-473.33C246.479,-463.643 238.49,-452.171 230.501,-440.698"/>
<polygon fill="black" stroke="black" points="233.289,-438.576 224.702,-432.37 227.544,-442.577 233.289,-438.576"/>
</g>
<!-- SPIKE -->
<g id="node4" class="node"><title>SPIKE</title>
<ellipse fill="none" stroke="black" cx="313" cy="-722.676" rx="18" ry="18"/>
<text text-anchor="middle" x="313" y="-721.476" font-family="Times,serif" font-size="4.00">SPIKE</text>
</g>
<!-- SPIKE&#45;&gt;pr_bd096495&#45;6f32&#45;47b8&#45;bb6d&#45;4723c8754e11 -->
<g id="edge7" class="edge"><title>SPIKE&#45;&gt;pr_bd096495&#45;6f32&#45;47b8&#45;bb6d&#45;4723c8754e11</title>
<path fill="none" stroke="black" d="M300.493,-709.108C291.955,-700.528 279.975,-688.49 267.551,-676.005"/>
<polygon fill="black" stroke="black" points="269.742,-673.244 260.207,-668.625 264.78,-678.182 269.742,-673.244"/>
</g>
<!-- SPIKE&#45;&gt;pr_9ad0eb5b&#45;3b74&#45;47aa&#45;9b09&#45;52e273387e3b -->
<g id="edge8" class="edge"><title>SPIKE&#45;&gt;pr_9ad0eb5b&#45;3b74&#45;47aa&#45;9b09&#45;52e273387e3b</title>
<path fill="none" stroke="black" d="M315.807,-704.75C317.025,-697.407 318.532,-688.324 320.103,-678.846"/>
<polygon fill="black" stroke="black" points="323.573,-679.321 321.756,-668.883 316.667,-678.175 323.573,-679.321"/>
</g>
<!-- Nucleoporin_gRNA complex  -->
<g id="node5" class="node"><title>Nucleoporin_gRNA complex </title>
<ellipse fill="none" stroke="black" cx="309" cy="-256.322" rx="38.9294" ry="38.9294"/>
<text text-anchor="middle" x="309" y="-255.122" font-family="Times,serif" font-size="4.00">Nucleoporin_gRNA complex </text>
</g>
<!-- Nucleoporin_gRNA complex &#45;&gt;pr_21702837&#45;9791&#45;475c&#45;bae0&#45;e2cd5bd96adb -->
<g id="edge9" class="edge"><title>Nucleoporin_gRNA complex &#45;&gt;pr_21702837&#45;9791&#45;475c&#45;bae0&#45;e2cd5bd96adb</title>
<path fill="none" stroke="black" d="M315.265,-294.759C315.609,-302.915 315.77,-311.742 315.748,-320.527"/>
<polygon fill="black" stroke="black" points="312.246,-320.739 315.638,-330.776 319.245,-320.814 312.246,-320.739"/>
</g>
<!-- pr_75b6b454&#45;c581&#45;4872&#45;84d9&#45;a8da5c1f42af -->
<g id="node12" class="node"><title>pr_75b6b454&#45;c581&#45;4872&#45;84d9&#45;a8da5c1f42af</title>
<polygon fill="none" stroke="black" points="141.5,-181.108 42.5,-181.108 42.5,-82.1084 141.5,-82.1084 141.5,-181.108"/>
<text text-anchor="middle" x="92" y="-130.408" font-family="Times,serif" font-size="4.00">pr_75b6b454&#45;c581&#45;4872&#45;84d9&#45;a8da5c1f42af</text>
</g>
<!-- Nucleoporin_gRNA complex &#45;&gt;pr_75b6b454&#45;c581&#45;4872&#45;84d9&#45;a8da5c1f42af -->
<g id="edge10" class="edge"><title>Nucleoporin_gRNA complex &#45;&gt;pr_75b6b454&#45;c581&#45;4872&#45;84d9&#45;a8da5c1f42af</title>
<path fill="none" stroke="black" d="M280.164,-230.067C274.095,-225.512 267.542,-221.107 261,-217.608 215.64,-193.348 196.027,-206.481 151,-181.608 150.803,-181.5 150.607,-181.39 150.41,-181.28"/>
<polygon fill="black" stroke="black" points="151.975,-178.135 141.615,-175.915 148.33,-184.111 151.975,-178.135"/>
</g>
<!-- pr_ab2f5a4a&#45;ae2c&#45;4cd6&#45;9333&#45;d41a4bac02b1 -->
<g id="node20" class="node"><title>pr_ab2f5a4a&#45;ae2c&#45;4cd6&#45;9333&#45;d41a4bac02b1</title>
<polygon fill="none" stroke="black" points="260,-181.608 160,-181.608 160,-81.6084 260,-81.6084 260,-181.608"/>
<text text-anchor="middle" x="210" y="-130.408" font-family="Times,serif" font-size="4.00">pr_ab2f5a4a&#45;ae2c&#45;4cd6&#45;9333&#45;d41a4bac02b1</text>
</g>
<!-- Nucleoporin_gRNA complex &#45;&gt;pr_ab2f5a4a&#45;ae2c&#45;4cd6&#45;9333&#45;d41a4bac02b1 -->
<g id="edge11" class="edge"><title>Nucleoporin_gRNA complex &#45;&gt;pr_ab2f5a4a&#45;ae2c&#45;4cd6&#45;9333&#45;d41a4bac02b1</title>
<path fill="none" stroke="black" d="M285.035,-225.617C276.304,-214.794 266.113,-202.162 256.107,-189.76"/>
<polygon fill="black" stroke="black" points="258.58,-187.25 249.576,-181.665 253.131,-191.646 258.58,-187.25"/>
</g>
<!-- pr_21702837&#45;9791&#45;475c&#45;bae0&#45;e2cd5bd96adb&#45;&gt;Nucleoporin_gRNA complex  -->
<g id="edge12" class="edge"><title>pr_21702837&#45;9791&#45;475c&#45;bae0&#45;e2cd5bd96adb&#45;&gt;Nucleoporin_gRNA complex </title>
<path fill="none" stroke="black" d="M302.362,-330.776C302.198,-322.229 302.214,-313.366 302.409,-304.878"/>
<polygon fill="black" stroke="black" points="305.911,-304.866 302.735,-294.759 298.914,-304.641 305.911,-304.866"/>
</g>
<!-- SPIKE S2 -->
<g id="node8" class="node"><title>SPIKE S2</title>
<ellipse fill="none" stroke="black" cx="147" cy="-256.322" rx="18.6233" ry="18.6233"/>
<text text-anchor="middle" x="147" y="-255.122" font-family="Times,serif" font-size="4.00">SPIKE S2</text>
</g>
<!-- pr_6f1f2b54&#45;3682&#45;4247&#45;84b4&#45;627d3e762f22&#45;&gt;SPIKE S2 -->
<g id="edge13" class="edge"><title>pr_6f1f2b54&#45;3682&#45;4247&#45;84b4&#45;627d3e762f22&#45;&gt;SPIKE S2</title>
<path fill="none" stroke="black" d="M101.427,-332.193C112.065,-314.716 123.613,-295.745 132.422,-281.272"/>
<polygon fill="black" stroke="black" points="135.569,-282.833 137.779,-272.471 129.59,-279.194 135.569,-282.833"/>
</g>
<!-- SPIKE S1 -->
<g id="node11" class="node"><title>SPIKE S1</title>
<ellipse fill="none" stroke="black" cx="92" cy="-256.322" rx="18.6233" ry="18.6233"/>
<text text-anchor="middle" x="92" y="-255.122" font-family="Times,serif" font-size="4.00">SPIKE S1</text>
</g>
<!-- pr_6f1f2b54&#45;3682&#45;4247&#45;84b4&#45;627d3e762f22&#45;&gt;SPIKE S1 -->
<g id="edge14" class="edge"><title>pr_6f1f2b54&#45;3682&#45;4247&#45;84b4&#45;627d3e762f22&#45;&gt;SPIKE S1</title>
<path fill="none" stroke="black" d="M79.8471,-332.193C82.4633,-316.075 85.2859,-298.686 87.5518,-284.727"/>
<polygon fill="black" stroke="black" points="91.0158,-285.23 89.1633,-274.798 84.1063,-284.108 91.0158,-285.23"/>
</g>
<!-- SPIKE S2&#45;&gt;pr_75b6b454&#45;c581&#45;4872&#45;84d9&#45;a8da5c1f42af -->
<g id="edge15" class="edge"><title>SPIKE S2&#45;&gt;pr_75b6b454&#45;c581&#45;4872&#45;84d9&#45;a8da5c1f42af</title>
<path fill="none" stroke="black" d="M139.696,-239.027C134.073,-226.48 125.938,-208.329 117.974,-190.561"/>
<polygon fill="black" stroke="black" points="121.123,-189.029 113.839,-181.335 114.735,-191.892 121.123,-189.029"/>
</g>
<!-- SPIKE S2&#45;&gt;pr_ab2f5a4a&#45;ae2c&#45;4cd6&#45;9333&#45;d41a4bac02b1 -->
<g id="edge16" class="edge"><title>SPIKE S2&#45;&gt;pr_ab2f5a4a&#45;ae2c&#45;4cd6&#45;9333&#45;d41a4bac02b1</title>
<path fill="none" stroke="black" d="M155.107,-239.531C161.503,-227.073 170.846,-208.873 180.018,-191.009"/>
<polygon fill="black" stroke="black" points="183.328,-192.224 184.782,-181.73 177.101,-189.027 183.328,-192.224"/>
</g>
<!-- CTSB -->
<g id="node9" class="node"><title>CTSB</title>
<ellipse fill="none" stroke="black" cx="72" cy="-499.856" rx="18" ry="18"/>
<text text-anchor="middle" x="72" y="-498.656" font-family="Times,serif" font-size="4.00">CTSB</text>
</g>
<!-- CTSB&#45;&gt;pr_6f1f2b54&#45;3682&#45;4247&#45;84b4&#45;627d3e762f22 -->
<g id="edge17" class="edge"><title>CTSB&#45;&gt;pr_6f1f2b54&#45;3682&#45;4247&#45;84b4&#45;627d3e762f22</title>
<path fill="none" stroke="black" d="M72,-481.693C72,-470.756 72,-455.884 72,-440.987"/>
<polygon fill="black" stroke="black" points="75.5001,-440.717 72,-430.717 68.5001,-440.717 75.5001,-440.717"/>
</g>
<!-- CTSL -->
<g id="node10" class="node"><title>CTSL</title>
<ellipse fill="none" stroke="black" cx="18" cy="-499.856" rx="18" ry="18"/>
<text text-anchor="middle" x="18" y="-498.656" font-family="Times,serif" font-size="4.00">CTSL</text>
</g>
<!-- CTSL&#45;&gt;pr_6f1f2b54&#45;3682&#45;4247&#45;84b4&#45;627d3e762f22 -->
<g id="edge18" class="edge"><title>CTSL&#45;&gt;pr_6f1f2b54&#45;3682&#45;4247&#45;84b4&#45;627d3e762f22</title>
<path fill="none" stroke="black" d="M25.2827,-483.169C30.5289,-471.868 37.9589,-455.863 45.3536,-439.935"/>
<polygon fill="black" stroke="black" points="48.6504,-441.145 49.6866,-430.601 42.3012,-438.198 48.6504,-441.145"/>
</g>
<!-- Nucleocapsid -->
<g id="node13" class="node"><title>Nucleocapsid</title>
<ellipse fill="none" stroke="black" cx="151" cy="-22.8042" rx="22.6101" ry="22.6101"/>
<text text-anchor="middle" x="151" y="-21.6042" font-family="Times,serif" font-size="4.00">Nucleocapsid</text>
</g>
<!-- pr_75b6b454&#45;c581&#45;4872&#45;84d9&#45;a8da5c1f42af&#45;&gt;Nucleocapsid -->
<g id="edge19" class="edge"><title>pr_75b6b454&#45;c581&#45;4872&#45;84d9&#45;a8da5c1f42af&#45;&gt;Nucleocapsid</title>
<path fill="none" stroke="black" d="M118.91,-81.8945C124.549,-71.6863 130.316,-61.2479 135.376,-52.0867"/>
<polygon fill="black" stroke="black" points="138.588,-53.5111 140.36,-43.0654 132.461,-50.1263 138.588,-53.5111"/>
</g>
<!-- LY6E -->
<g id="node14" class="node"><title>LY6E</title>
<ellipse fill="none" stroke="black" cx="37" cy="-256.322" rx="18" ry="18"/>
<text text-anchor="middle" x="37" y="-255.122" font-family="Times,serif" font-size="4.00">LY6E</text>
</g>
<!-- LY6E&#45;&gt;pr_75b6b454&#45;c581&#45;4872&#45;84d9&#45;a8da5c1f42af -->
<g id="edge20" class="edge"><title>LY6E&#45;&gt;pr_75b6b454&#45;c581&#45;4872&#45;84d9&#45;a8da5c1f42af</title>
<path fill="none" stroke="black" d="M44.0777,-239.531C49.7107,-226.963 57.9628,-208.551 66.0376,-190.535"/>
<polygon fill="black" stroke="black" points="69.3331,-191.739 70.2292,-181.183 62.9453,-188.876 69.3331,-191.739"/>
</g>
<!-- LY6E&#45;&gt;pr_ab2f5a4a&#45;ae2c&#45;4cd6&#45;9333&#45;d41a4bac02b1 -->
<g id="edge21" class="edge"><title>LY6E&#45;&gt;pr_ab2f5a4a&#45;ae2c&#45;4cd6&#45;9333&#45;d41a4bac02b1</title>
<path fill="none" stroke="black" d="M45.134,-240.174C49.8256,-232.584 56.3177,-223.732 64,-217.608 96.4022,-191.781 114.473,-202.935 150,-181.608 150.404,-181.366 150.807,-181.121 151.211,-180.874"/>
<polygon fill="black" stroke="black" points="153.205,-183.753 159.679,-175.366 149.388,-177.885 153.205,-183.753"/>
</g>
<!-- pr_244541e1&#45;18de&#45;4a59&#45;acad&#45;0d0b916e2dbe&#45;&gt;SPIKE S2 -->
<g id="edge22" class="edge"><title>pr_244541e1&#45;18de&#45;4a59&#45;acad&#45;0d0b916e2dbe&#45;&gt;SPIKE S2</title>
<path fill="none" stroke="black" d="M172.634,-330.776C167.025,-314.702 161.025,-297.511 156.242,-283.804"/>
<polygon fill="black" stroke="black" points="159.447,-282.365 152.847,-274.077 152.838,-284.672 159.447,-282.365"/>
</g>
<!-- pr_244541e1&#45;18de&#45;4a59&#45;acad&#45;0d0b916e2dbe&#45;&gt;SPIKE S1 -->
<g id="edge23" class="edge"><title>pr_244541e1&#45;18de&#45;4a59&#45;acad&#45;0d0b916e2dbe&#45;&gt;SPIKE S1</title>
<path fill="none" stroke="black" d="M147.717,-330.841C138.115,-319.221 128.076,-306.799 119,-295.037 115.434,-290.414 111.722,-285.385 108.233,-280.551"/>
<polygon fill="black" stroke="black" points="110.927,-278.301 102.273,-272.188 105.227,-282.363 110.927,-278.301"/>
</g>
<!-- ACE2 (15 Kda fragment) -->
<g id="node18" class="node"><title>ACE2 (15 Kda fragment)</title>
<ellipse fill="none" stroke="black" cx="218" cy="-256.322" rx="34.4429" ry="34.4429"/>
<text text-anchor="middle" x="218" y="-255.122" font-family="Times,serif" font-size="4.00">ACE2 (15 Kda fragment)</text>
</g>
<!-- pr_244541e1&#45;18de&#45;4a59&#45;acad&#45;0d0b916e2dbe&#45;&gt;ACE2 (15 Kda fragment) -->
<g id="edge24" class="edge"><title>pr_244541e1&#45;18de&#45;4a59&#45;acad&#45;0d0b916e2dbe&#45;&gt;ACE2 (15 Kda fragment)</title>
<path fill="none" stroke="black" d="M201.308,-330.776C203.606,-320.663 206.005,-310.108 208.243,-300.257"/>
<polygon fill="black" stroke="black" points="211.704,-300.821 210.507,-290.294 204.878,-299.269 211.704,-300.821"/>
</g>
<!-- TMPRSS2 -->
<g id="node16" class="node"><title>TMPRSS2</title>
<ellipse fill="none" stroke="black" cx="203" cy="-499.856" rx="18.6233" ry="18.6233"/>
<text text-anchor="middle" x="203" y="-498.656" font-family="Times,serif" font-size="4.00">TMPRSS2</text>
</g>
<!-- TMPRSS2&#45;&gt;pr_244541e1&#45;18de&#45;4a59&#45;acad&#45;0d0b916e2dbe -->
<g id="edge25" class="edge"><title>TMPRSS2&#45;&gt;pr_244541e1&#45;18de&#45;4a59&#45;acad&#45;0d0b916e2dbe</title>
<path fill="none" stroke="black" d="M201.026,-481.19C199.848,-470.655 198.277,-456.6 196.691,-442.41"/>
<polygon fill="black" stroke="black" points="200.129,-441.651 195.539,-432.101 193.172,-442.428 200.129,-441.651"/>
</g>
<!-- Camostat mesylate -->
<g id="node17" class="node"><title>Camostat mesylate</title>
<ellipse fill="none" stroke="black" cx="137" cy="-499.856" rx="29.3373" ry="29.3373"/>
<text text-anchor="middle" x="137" y="-498.656" font-family="Times,serif" font-size="4.00">Camostat mesylate</text>
</g>
<!-- Camostat mesylate&#45;&gt;pr_244541e1&#45;18de&#45;4a59&#45;acad&#45;0d0b916e2dbe -->
<g id="edge26" class="edge"><title>Camostat mesylate&#45;&gt;pr_244541e1&#45;18de&#45;4a59&#45;acad&#45;0d0b916e2dbe</title>
<path fill="none" stroke="black" d="M148.762,-473.041C153.051,-463.629 158.095,-452.56 163.155,-441.454"/>
<polygon fill="black" stroke="black" points="166.432,-442.702 167.394,-432.151 160.062,-439.8 166.432,-442.702"/>
</g>
<!-- pr_9ad0eb5b&#45;3b74&#45;47aa&#45;9b09&#45;52e273387e3b&#45;&gt;ACE2_SPIKE complex -->
<g id="edge27" class="edge"><title>pr_9ad0eb5b&#45;3b74&#45;47aa&#45;9b09&#45;52e273387e3b&#45;&gt;ACE2_SPIKE complex</title>
<path fill="none" stroke="black" d="M304.808,-567.509C299.734,-557.505 294.486,-547.16 289.683,-537.689"/>
<polygon fill="black" stroke="black" points="292.695,-535.891 285.05,-528.556 286.452,-539.058 292.695,-535.891"/>
</g>
<!-- pr_ab2f5a4a&#45;ae2c&#45;4cd6&#45;9333&#45;d41a4bac02b1&#45;&gt;Nucleocapsid -->
<g id="edge28" class="edge"><title>pr_ab2f5a4a&#45;ae2c&#45;4cd6&#45;9333&#45;d41a4bac02b1&#45;&gt;Nucleocapsid</title>
<path fill="none" stroke="black" d="M182.918,-81.5826C177.342,-71.489 171.65,-61.1854 166.646,-52.1274"/>
<polygon fill="black" stroke="black" points="169.613,-50.2606 161.714,-43.1998 163.486,-53.6454 169.613,-50.2606"/>
</g>
</g>
</svg>
